  0
SECTION
  2
HEADER
  9
$ACADVER
  1
AC1021
  9
$ACADMAINTVER
 70
    25
  9
$DWGCODEPAGE
  3
ANSI_1252
  9
$INSBASE
 10
0.0
 20
0.0
 30
0.0
  9
$EXTMIN
 10
-11.55
 20
-15.85
 30
0.0
  9
$EXTMAX
 10
-9.45
 20
-13.85
 30
0.0
  9
$LIMMIN
 10
0.0
 20
0.0
  9
$LIMMAX
 10
12.0
 20
9.0
  9
$ORTHOMODE
 70
     0
  9
$REGENMODE
 70
     1
  9
$FILLMODE
 70
     1
  9
$QTEXTMODE
 70
     0
  9
$MIRRTEXT
 70
     1
  9
$LTSCALE
 40
1.0
  9
$ATTMODE
 70
     1
  9
$TEXTSIZE
 40
0.2
  9
$TRACEWID
 40
0.05
  9
$TEXTSTYLE
  7
Standard
  9
$CLAYER
  8
0
  9
$CELTYPE
  6
ByLayer
  9
$CECOLOR
 62
   256
  9
$CELTSCALE
 40
1.0
  9
$DISPSILH
 70
     0
  9
$DIMSCALE
 40
1.0
  9
$DIMASZ
 40
0.18
  9
$DIMEXO
 40
0.0625
  9
$DIMDLI
 40
0.38
  9
$DIMRND
 40
0.0
  9
$DIMDLE
 40
0.0
  9
$DIMEXE
 40
0.18
  9
$DIMTP
 40
0.0
  9
$DIMTM
 40
0.0
  9
$DIMTXT
 40
0.18
  9
$DIMCEN
 40
0.09
  9
$DIMTSZ
 40
0.0
  9
$DIMTOL
 70
     0
  9
$DIMLIM
 70
     0
  9
$DIMTIH
 70
     1
  9
$DIMTOH
 70
     1
  9
$DIMSE1
 70
     0
  9
$DIMSE2
 70
     0
  9
$DIMTAD
 70
     0
  9
$DIMZIN
 70
     0
  9
$DIMBLK
  1

  9
$DIMASO
 70
     1
  9
$DIMSHO
 70
     1
  9
$DIMPOST
  1

  9
$DIMAPOST
  1

  9
$DIMALT
 70
     0
  9
$DIMALTD
 70
     2
  9
$DIMALTF
 40
25.4
  9
$DIMLFAC
 40
1.0
  9
$DIMTOFL
 70
     0
  9
$DIMTVP
 40
0.0
  9
$DIMTIX
 70
     0
  9
$DIMSOXD
 70
     0
  9
$DIMSAH
 70
     0
  9
$DIMBLK1
  1

  9
$DIMBLK2
  1

  9
$DIMSTYLE
  2
Standard
  9
$DIMCLRD
 70
     0
  9
$DIMCLRE
 70
     0
  9
$DIMCLRT
 70
     0
  9
$DIMTFAC
 40
1.0
  9
$DIMGAP
 40
0.09
  9
$DIMJUST
 70
     0
  9
$DIMSD1
 70
     0
  9
$DIMSD2
 70
     0
  9
$DIMTOLJ
 70
     1
  9
$DIMTZIN
 70
     0
  9
$DIMALTZ
 70
     0
  9
$DIMALTTZ
 70
     0
  9
$DIMUPT
 70
     0
  9
$DIMDEC
 70
     4
  9
$DIMTDEC
 70
     4
  9
$DIMALTU
 70
     2
  9
$DIMALTTD
 70
     2
  9
$DIMTXSTY
  7
Standard
  9
$DIMAUNIT
 70
     0
  9
$DIMADEC
 70
     0
  9
$DIMALTRND
 40
0.0
  9
$DIMAZIN
 70
     0
  9
$DIMDSEP
 70
    46
  9
$DIMATFIT
 70
     3
  9
$DIMFRAC
 70
     0
  9
$DIMLDRBLK
  1

  9
$DIMLUNIT
 70
     2
  9
$DIMLWD
 70
    -2
  9
$DIMLWE
 70
    -2
  9
$DIMTMOVE
 70
     0
  9
$DIMFXL
 40
1.0
  9
$DIMFXLON
 70
     0
  9
$DIMJOGANG
 40
0.7853981633974483
  9
$DIMTFILL
 70
     0
  9
$DIMTFILLCLR
 70
     0
  9
$DIMARCSYM
 70
     0
  9
$DIMLTYPE
  6

  9
$DIMLTEX1
  6

  9
$DIMLTEX2
  6

  9
$LUNITS
 70
     2
  9
$LUPREC
 70
     4
  9
$SKETCHINC
 40
0.1
  9
$FILLETRAD
 40
0.5
  9
$AUNITS
 70
     0
  9
$AUPREC
 70
     0
  9
$MENU
  1
.
  9
$ELEVATION
 40
0.0
  9
$PELEVATION
 40
0.0
  9
$THICKNESS
 40
0.0
  9
$LIMCHECK
 70
     0
  9
$CHAMFERA
 40
0.5
  9
$CHAMFERB
 40
0.5
  9
$CHAMFERC
 40
1.0
  9
$CHAMFERD
 40
0.0
  9
$SKPOLY
 70
     0
  9
$TDCREATE
 40
2458512.10669963
  9
$TDUCREATE
 40
2458512.10669963
  9
$TDUPDATE
 40
2458512.106699641
  9
$TDUUPDATE
 40
2458512.106699641
  9
$TDINDWG
 40
0.0000000116
  9
$TDUSRTIMER
 40
0.0000000116
  9
$USRTIMER
 70
     1
  9
$ANGBASE
 50
0.0
  9
$ANGDIR
 70
     0
  9
$PDMODE
 70
     0
  9
$PDSIZE
 40
0.0
  9
$PLINEWID
 40
0.0
  9
$SPLFRAME
 70
     0
  9
$SPLINETYPE
 70
     6
  9
$SPLINESEGS
 70
     8
  9
$HANDSEED
  5
97
  9
$SURFTAB1
 70
     6
  9
$SURFTAB2
 70
     6
  9
$SURFTYPE
 70
     6
  9
$SURFU
 70
     6
  9
$SURFV
 70
     6
  9
$UCSBASE
  2

  9
$UCSNAME
  2

  9
$UCSORG
 10
0.0
 20
0.0
 30
0.0
  9
$UCSXDIR
 10
1.0
 20
0.0
 30
0.0
  9
$UCSYDIR
 10
0.0
 20
1.0
 30
0.0
  9
$UCSORTHOREF
  2

  9
$UCSORTHOVIEW
 70
     0
  9
$UCSORGTOP
 10
0.0
 20
0.0
 30
0.0
  9
$UCSORGBOTTOM
 10
0.0
 20
0.0
 30
0.0
  9
$UCSORGLEFT
 10
0.0
 20
0.0
 30
0.0
  9
$UCSORGRIGHT
 10
0.0
 20
0.0
 30
0.0
  9
$UCSORGFRONT
 10
0.0
 20
0.0
 30
0.0
  9
$UCSORGBACK
 10
0.0
 20
0.0
 30
0.0
  9
$PUCSBASE
  2

  9
$PUCSNAME
  2

  9
$PUCSORG
 10
0.0
 20
0.0
 30
0.0
  9
$PUCSXDIR
 10
1.0
 20
0.0
 30
0.0
  9
$PUCSYDIR
 10
0.0
 20
1.0
 30
0.0
  9
$PUCSORTHOREF
  2

  9
$PUCSORTHOVIEW
 70
     0
  9
$PUCSORGTOP
 10
0.0
 20
0.0
 30
0.0
  9
$PUCSORGBOTTOM
 10
0.0
 20
0.0
 30
0.0
  9
$PUCSORGLEFT
 10
0.0
 20
0.0
 30
0.0
  9
$PUCSORGRIGHT
 10
0.0
 20
0.0
 30
0.0
  9
$PUCSORGFRONT
 10
0.0
 20
0.0
 30
0.0
  9
$PUCSORGBACK
 10
0.0
 20
0.0
 30
0.0
  9
$USERI1
 70
     0
  9
$USERI2
 70
     0
  9
$USERI3
 70
     0
  9
$USERI4
 70
     0
  9
$USERI5
 70
     0
  9
$USERR1
 40
0.0
  9
$USERR2
 40
0.0
  9
$USERR3
 40
0.0
  9
$USERR4
 40
0.0
  9
$USERR5
 40
0.0
  9
$WORLDVIEW
 70
     1
  9
$SHADEDGE
 70
     3
  9
$SHADEDIF
 70
    70
  9
$TILEMODE
 70
     1
  9
$MAXACTVP
 70
    64
  9
$PINSBASE
 10
0.0
 20
0.0
 30
0.0
  9
$PLIMCHECK
 70
     0
  9
$PEXTMIN
 10
1.000000000000000E+20
 20
1.000000000000000E+20
 30
1.000000000000000E+20
  9
$PEXTMAX
 10
-1.000000000000000E+20
 20
-1.000000000000000E+20
 30
-1.000000000000000E+20
  9
$PLIMMIN
 10
0.0
 20
0.0
  9
$PLIMMAX
 10
12.0
 20
9.0
  9
$UNITMODE
 70
     0
  9
$VISRETAIN
 70
     1
  9
$PLINEGEN
 70
     0
  9
$PSLTSCALE
 70
     1
  9
$TREEDEPTH
 70
  3020
  9
$CMLSTYLE
  2
Standard
  9
$CMLJUST
 70
     0
  9
$CMLSCALE
 40
1.0
  9
$PROXYGRAPHICS
 70
     1
  9
$MEASUREMENT
 70
     0
  9
$CELWEIGHT
370
    -1
  9
$ENDCAPS
280
     0
  9
$JOINSTYLE
280
     0
  9
$LWDISPLAY
290
     0
  9
$INSUNITS
 70
     5
  9
$HYPERLINKBASE
  1

  9
$STYLESHEET
  1

  9
$XEDIT
290
     1
  9
$CEPSNTYPE
380
     0
  9
$PSTYLEMODE
290
     1
  9
$FINGERPRINTGUID
  2
{830F909E-919C-464E-8AB8-B21ACC7320DF}
  9
$VERSIONGUID
  2
{FAEB1C32-E019-11D5-929B-00C0DF256EC4}
  9
$EXTNAMES
290
     1
  9
$PSVPSCALE
 40
0.0
  9
$OLESTARTUP
290
     0
  9
$SORTENTS
280
   127
  9
$INDEXCTL
280
     0
  9
$HIDETEXT
280
     1
  9
$XCLIPFRAME
290
     0
  9
$HALOGAP
280
     0
  9
$OBSCOLOR
 70
   257
  9
$OBSLTYPE
280
     0
  9
$INTERSECTIONDISPLAY
280
     0
  9
$INTERSECTIONCOLOR
 70
   257
  9
$DIMASSOC
280
     2
  9
$PROJECTNAME
  1

  9
$CAMERADISPLAY
290
     0
  9
$LENSLENGTH
 40
50.0
  9
$CAMERAHEIGHT
 40
0.0
  9
$STEPSPERSEC
 40
2.0
  9
$STEPSIZE
 40
6.0
  9
$3DDWFPREC
 40
2.0
  9
$PSOLWIDTH
 40
0.25
  9
$PSOLHEIGHT
 40
4.0
  9
$LOFTANG1
 40
1.570796326794897
  9
$LOFTANG2
 40
1.570796326794897
  9
$LOFTMAG1
 40
0.0
  9
$LOFTMAG2
 40
0.0
  9
$LOFTPARAM
 70
     7
  9
$LOFTNORMALS
280
     1
  9
$LATITUDE
 40
37.795
  9
$LONGITUDE
 40
-122.394
  9
$NORTHDIRECTION
 40
0.0
  9
$TIMEZONE
 70
 -8000
  9
$LIGHTGLYPHDISPLAY
280
     1
  9
$TILEMODELIGHTSYNCH
280
     1
  9
$SOLIDHIST
280
     1
  9
$SHOWHIST
280
     1
  9
$DWFFRAME
280
     2
  9
$DGNFRAME
280
     2
  9
$REALWORLDSCALE
290
     1
  9
$INTERFERECOLOR
 62
   256
  9
$CSHADOW
280
     0
  9
$SHADOWPLANELOCATION
 40
0.0
  0
ENDSEC
  0
SECTION
  2
CLASSES
  0
CLASS
  1
ACDBDICTIONARYWDFLT
  2
AcDbDictionaryWithDefault
  3
ObjectDBX Classes
 90
        0
 91
        3
280
     0
281
     0
  0
CLASS
  1
VISUALSTYLE
  2
AcDbVisualStyle
  3
ObjectDBX Classes
 90
     4095
 91
        3
280
     0
281
     0
  0
CLASS
  1
SCALE
  2
AcDbScale
  3
ObjectDBX Classes
 90
     1153
 91
        3
280
     0
281
     0
  0
ENDSEC
  0
SECTION
  2
TABLES
  0
TABLE
  2
VPORT
  5
8
330
0
100
AcDbSymbolTable
 70
     1
  0
VPORT
  5
29
330
8
100
AcDbSymbolTableRecord
100
AcDbViewportTableRecord
  2
*Active
 70
     0
 10
0.0
 20
0.0
 11
1.0
 21
1.0
 12
10.42990654205607
 22
4.5
 13
0.0
 23
0.0
 14
0.5
 24
0.5
 15
0.5
 25
0.5
 16
0.0
 26
0.0
 36
1.0
 17
0.0
 27
0.0
 37
0.0
 40
9.0
 41
1.972972972850329
 42
50.0
 43
0.0
 44
0.0
 50
0.0
 51
0.0
 71
     0
 72
   100
 73
     1
 74
     3
 75
     0
 76
     0
 77
     0
 78
     0
281
     0
 65
     1
110
0.0
120
0.0
130
0.0
111
1.0
121
0.0
131
0.0
112
0.0
122
1.0
132
0.0
 79
     0
146
0.0
 60
     3
 61
     5
292
     1
282
     1
141
0.0
142
0.0
 63
   256
  0
ENDTAB
  0
TABLE
  2
LTYPE
  5
5
330
0
100
AcDbSymbolTable
 70
     1
  0
LTYPE
  5
14
330
5
100
AcDbSymbolTableRecord
100
AcDbLinetypeTableRecord
  2
ByBlock
 70
     0
  3

 72
    65
 73
     0
 40
0.0
  0
LTYPE
  5
15
330
5
100
AcDbSymbolTableRecord
100
AcDbLinetypeTableRecord
  2
ByLayer
 70
     0
  3

 72
    65
 73
     0
 40
0.0
  0
LTYPE
  5
16
330
5
100
AcDbSymbolTableRecord
100
AcDbLinetypeTableRecord
  2
Continuous
 70
     0
  3
Solid line
 72
    65
 73
     0
 40
0.0
  0
ENDTAB
  0
TABLE
  2
LAYER
  5
2
330
0
100
AcDbSymbolTable
 70
     2
  0
LAYER
  5
10
330
2
100
AcDbSymbolTableRecord
100
AcDbLayerTableRecord
  2
0
 70
     0
 62
     7
  6
Continuous
370
    -3
390
F
347
0
  0
LAYER
  5
5E
330
2
100
AcDbSymbolTableRecord
100
AcDbLayerTableRecord
  2
Layer 1
 70
     0
 62
     7
  6
Continuous
370
    -3
390
F
347
0
  0
ENDTAB
  0
TABLE
  2
STYLE
  5
3
330
0
100
AcDbSymbolTable
 70
     1
  0
STYLE
  5
11
330
3
100
AcDbSymbolTableRecord
100
AcDbTextStyleTableRecord
  2
Standard
 70
     0
 40
0.0
 41
1.0
 50
0.0
 71
     0
 42
0.2
  3
txt
  4

  0
ENDTAB
  0
TABLE
  2
VIEW
  5
6
330
0
100
AcDbSymbolTable
 70
     0
  0
ENDTAB
  0
TABLE
  2
UCS
  5
7
330
0
100
AcDbSymbolTable
 70
     0
  0
ENDTAB
  0
TABLE
  2
APPID
  5
9
330
0
100
AcDbSymbolTable
 70
     2
  0
APPID
  5
12
330
9
100
AcDbSymbolTableRecord
100
AcDbRegAppTableRecord
  2
ACAD
 70
     0
  0
APPID
  5
5D
330
9
100
AcDbSymbolTableRecord
100
AcDbRegAppTableRecord
  2
ODA
 70
     0
  0
ENDTAB
  0
TABLE
  2
DIMSTYLE
  5
A
330
0
100
AcDbSymbolTable
 70
     1
100
AcDbDimStyleTable
  0
DIMSTYLE
105
27
330
A
100
AcDbSymbolTableRecord
100
AcDbDimStyleTableRecord
  2
Standard
 70
     0
340
11
  0
ENDTAB
  0
TABLE
  2
BLOCK_RECORD
  5
1
330
0
100
AcDbSymbolTable
 70
     1
  0
BLOCK_RECORD
  5
1F
330
1
100
AcDbSymbolTableRecord
100
AcDbBlockTableRecord
  2
*Model_Space
340
22
 70
     0
280
     1
281
     0
  0
BLOCK_RECORD
  5
1B
330
1
100
AcDbSymbolTableRecord
100
AcDbBlockTableRecord
  2
*Paper_Space
340
1E
 70
     0
280
     1
281
     0
  0
BLOCK_RECORD
  5
23
330
1
100
AcDbSymbolTableRecord
100
AcDbBlockTableRecord
  2
*Paper_Space0
340
26
 70
     0
280
     1
281
     0
  0
ENDTAB
  0
ENDSEC
  0
SECTION
  2
BLOCKS
  0
BLOCK
  5
20
330
1F
100
AcDbEntity
  8
0
100
AcDbBlockBegin
  2
*Model_Space
 70
     0
 10
0.0
 20
0.0
 30
0.0
  3
*Model_Space
  1

  0
ENDBLK
  5
21
330
1F
100
AcDbEntity
  8
0
100
AcDbBlockEnd
  0
BLOCK
  5
1C
330
1B
100
AcDbEntity
 67
     1
  8
0
100
AcDbBlockBegin
  2
*Paper_Space
 70
     0
 10
0.0
 20
0.0
 30
0.0
  3
*Paper_Space
  1

  0
ENDBLK
  5
1D
330
1B
100
AcDbEntity
 67
     1
  8
0
100
AcDbBlockEnd
  0
BLOCK
  5
24
330
23
100
AcDbEntity
  8
0
100
AcDbBlockBegin
  2
*Paper_Space0
 70
     0
 10
0.0
 20
0.0
 30
0.0
  3
*Paper_Space0
  1

  0
ENDBLK
  5
25
330
23
100
AcDbEntity
  8
0
100
AcDbBlockEnd
  0
ENDSEC
  0
SECTION
  2
ENTITIES
  0
LWPOLYLINE
  5
5F
330
1F
100
AcDbEntity
  8
Layer 1
 62
     7
100
AcDbPolyline
 90
        5
 70
     1
 43
0.0
 10
-11.5
 20
-15.85
 10
-9.5
 20
-15.85
 10
-9.5
 20
-13.85
 10
-11.5
 20
-13.85
 10
-11.5
 20
-15.85
  0
SPLINE
  5
60
330
1F
100
AcDbEntity
  8
Layer 1
 62
   250
370
   100
100
AcDbSpline
210
0.0
220
0.0
230
1.0
 70
    24
 71
     3
 72
     8
 73
     4
 74
     0
 42
0.0000000001
 43
0.0000000001
 40
0.0
 40
0.0
 40
0.0
 40
0.0
 40
1.0
 40
1.0
 40
1.0
 40
1.0
 10
-11.5
 20
-14.85
 30
0.0
 10
-11.5
 20
-14.85
 30
0.0
 10
-11.25
 20
-14.85
 30
0.0
 10
-11.25
 20
-14.85
 30
0.0
  0
SPLINE
  5
61
330
1F
100
AcDbEntity
  8
Layer 1
 62
   250
370
   100
100
AcDbSpline
210
0.0
220
0.0
230
1.0
 70
     8
 71
     3
 72
    32
 73
    28
 74
     0
 42
0.0000000001
 43
0.0000000001
 40
0.0
 40
0.0
 40
0.0
 40
0.0
 40
0.1428571428571428
 40
0.1428571428571428
 40
0.1428571428571428
 40
0.1428571428571428
 40
0.2857142857142857
 40
0.2857142857142857
 40
0.2857142857142857
 40
0.2857142857142857
 40
0.4285714285714285
 40
0.4285714285714285
 40
0.4285714285714285
 40
0.4285714285714285
 40
0.5714285714285714
 40
0.5714285714285714
 40
0.5714285714285714
 40
0.5714285714285714
 40
0.7142857142857142
 40
0.7142857142857142
 40
0.7142857142857142
 40
0.7142857142857142
 40
0.857142857142857
 40
0.857142857142857
 40
0.857142857142857
 40
0.857142857142857
 40
1.0
 40
1.0
 40
1.0
 40
1.0
 10
-11.25
 20
-14.85
 30
0.0
 10
-11.25
 20
-14.85
 30
0.0
 10
-11.125
 20
-15.1
 30
0.0
 10
-11.125
 20
-15.1
 30
0.0
 10
-11.125
 20
-15.1
 30
0.0
 10
-11.125
 20
-15.1
 30
0.0
 10
-10.875
 20
-14.6
 30
0.0
 10
-10.875
 20
-14.6
 30
0.0
 10
-10.875
 20
-14.6
 30
0.0
 10
-10.875
 20
-14.6
 30
0.0
 10
-10.625
 20
-15.1
 30
0.0
 10
-10.625
 20
-15.1
 30
0.0
 10
-10.625
 20
-15.1
 30
0.0
 10
-10.625
 20
-15.1
 30
0.0
 10
-10.375
 20
-14.6
 30
0.0
 10
-10.375
 20
-14.6
 30
0.0
 10
-10.375
 20
-14.6
 30
0.0
 10
-10.375
 20
-14.6
 30
0.0
 10
-10.12501
 20
-15.1
 30
0.0
 10
-10.12501
 20
-15.1
 30
0.0
 10
-10.12501
 20
-15.1
 30
0.0
 10
-10.12501
 20
-15.1
 30
0.0
 10
-9.87501
 20
-14.6
 30
0.0
 10
-9.87501
 20
-14.6
 30
0.0
 10
-9.87501
 20
-14.6
 30
0.0
 10
-9.87501
 20
-14.6
 30
0.0
 10
-9.75001
 20
-14.85
 30
0.0
 10
-9.75001
 20
-14.85
 30
0.0
  0
SPLINE
  5
62
330
1F
100
AcDbEntity
  8
Layer 1
 62
   250
370
   100
100
AcDbSpline
210
0.0
220
0.0
230
1.0
 70
    24
 71
     3
 72
     8
 73
     4
 74
     0
 42
0.0000000001
 43
0.0000000001
 40
0.0
 40
0.0
 40
0.0
 40
0.0
 40
1.0
 40
1.0
 40
1.0
 40
1.0
 10
-9.75001
 20
-14.85
 30
0.0
 10
-9.75001
 20
-14.85
 30
0.0
 10
-9.5
 20
-14.85
 30
0.0
 10
-9.5
 20
-14.85
 30
0.0
  0
SPLINE
  5
63
330
1F
100
AcDbEntity
  8
Layer 1
 62
   250
100
AcDbSpline
210
0.0
220
0.0
230
1.0
 70
    11
 71
     3
 72
    48
 73
    44
 74
     0
 42
0.0000000001
 43
0.0000000001
 40
0.0
 40
0.0
 40
0.0
 40
0.0
 40
0.0909090909090909
 40
0.0909090909090909
 40
0.0909090909090909
 40
0.0909090909090909
 40
0.1818181818181818
 40
0.1818181818181818
 40
0.1818181818181818
 40
0.1818181818181818
 40
0.2727272727272727
 40
0.2727272727272727
 40
0.2727272727272727
 40
0.2727272727272727
 40
0.3636363636363636
 40
0.3636363636363636
 40
0.3636363636363636
 40
0.3636363636363636
 40
0.4545454545454546
 40
0.4545454545454546
 40
0.4545454545454546
 40
0.4545454545454546
 40
0.5454545454545455
 40
0.5454545454545455
 40
0.5454545454545455
 40
0.5454545454545455
 40
0.6363636363636365
 40
0.6363636363636365
 40
0.6363636363636365
 40
0.6363636363636365
 40
0.7272727272727274
 40
0.7272727272727274
 40
0.7272727272727274
 40
0.7272727272727274
 40
0.8181818181818183
 40
0.8181818181818183
 40
0.8181818181818183
 40
0.8181818181818183
 40
0.9090909090909093
 40
0.9090909090909093
 40
0.9090909090909093
 40
0.9090909090909093
 40
1.0
 40
1.0
 40
1.0
 40
1.0
 10
-11.27097
 20
-14.23414
 30
0.0
 10
-11.27097
 20
-14.23414
 30
0.0
 10
-11.24754
 20
-14.23414
 30
0.0
 10
-11.24754
 20
-14.23414
 30
0.0
 10
-11.24754
 20
-14.23414
 30
0.0
 10
-11.24754
 20
-14.23414
 30
0.0
 10
-11.24754
 20
-14.16765
 30
0.0
 10
-11.24754
 20
-14.16765
 30
0.0
 10
-11.24754
 20
-14.16765
 30
0.0
 10
-11.24754
 20
-14.16765
 30
0.0
 10
-11.27158
 20
-14.17262
 30
0.0
 10
-11.27158
 20
-14.17262
 30
0.0
 10
-11.27158
 20
-14.17262
 30
0.0
 10
-11.27158
 20
-14.17262
 30
0.0
 10
-11.27158
 20
-14.15455
 30
0.0
 10
-11.27158
 20
-14.15455
 30
0.0
 10
-11.27158
 20
-14.15455
 30
0.0
 10
-11.27158
 20
-14.15455
 30
0.0
 10
-11.24768
 20
-14.14959
 30
0.0
 10
-11.24768
 20
-14.14959
 30
0.0
 10
-11.24768
 20
-14.14959
 30
0.0
 10
-11.24768
 20
-14.14959
 30
0.0
 10
-11.22247
 20
-14.14959
 30
0.0
 10
-11.22247
 20
-14.14959
 30
0.0
 10
-11.22247
 20
-14.14959
 30
0.0
 10
-11.22247
 20
-14.14959
 30
0.0
 10
-11.22247
 20
-14.23414
 30
0.0
 10
-11.22247
 20
-14.23414
 30
0.0
 10
-11.22247
 20
-14.23414
 30
0.0
 10
-11.22247
 20
-14.23414
 30
0.0
 10
-11.19905
 20
-14.23414
 30
0.0
 10
-11.19905
 20
-14.23414
 30
0.0
 10
-11.19905
 20
-14.23414
 30
0.0
 10
-11.19905
 20
-14.23414
 30
0.0
 10
-11.19905
 20
-14.25246
 30
0.0
 10
-11.19905
 20
-14.25246
 30
0.0
 10
-11.19905
 20
-14.25246
 30
0.0
 10
-11.19905
 20
-14.25246
 30
0.0
 10
-11.27097
 20
-14.25246
 30
0.0
 10
-11.27097
 20
-14.25246
 30
0.0
 10
-11.27097
 20
-14.25246
 30
0.0
 10
-11.27097
 20
-14.25246
 30
0.0
 10
-11.27097
 20
-14.23414
 30
0.0
 10
-11.27097
 20
-14.23414
 30
0.0
  0
SPLINE
  5
64
330
1F
100
AcDbEntity
  8
Layer 1
 62
   250
100
AcDbSpline
210
0.0
220
0.0
230
1.0
 70
    11
 71
     3
 72
    20
 73
    16
 74
     0
 42
0.0000000001
 43
0.0000000001
 40
0.0
 40
0.0
 40
0.0
 40
0.0
 40
0.25
 40
0.25
 40
0.25
 40
0.25
 40
0.5
 40
0.5
 40
0.5
 40
0.5
 40
0.75
 40
0.75
 40
0.75
 40
0.75
 40
1.0
 40
1.0
 40
1.0
 40
1.0
 10
-11.15307
 20
-14.14959
 30
0.0
 10
-11.15307
 20
-14.14959
 30
0.0
 10
-11.13778
 20
-14.14959
 30
0.0
 10
-11.13778
 20
-14.14959
 30
0.0
 10
-11.13778
 20
-14.14959
 30
0.0
 10
-11.13778
 20
-14.14959
 30
0.0
 10
-11.17409
 20
-14.26556
 30
0.0
 10
-11.17409
 20
-14.26556
 30
0.0
 10
-11.17409
 20
-14.26556
 30
0.0
 10
-11.17409
 20
-14.26556
 30
0.0
 10
-11.18931
 20
-14.26556
 30
0.0
 10
-11.18931
 20
-14.26556
 30
0.0
 10
-11.18931
 20
-14.26556
 30
0.0
 10
-11.18931
 20
-14.26556
 30
0.0
 10
-11.15307
 20
-14.14959
 30
0.0
 10
-11.15307
 20
-14.14959
 30
0.0
  0
SPLINE
  5
65
330
1F
100
AcDbEntity
  8
Layer 1
 62
   250
100
AcDbSpline
210
0.0
220
0.0
230
1.0
 70
    11
 71
     3
 72
    16
 73
    12
 74
     0
 42
0.0000000001
 43
0.0000000001
 40
0.0
 40
0.0
 40
0.0
 40
0.0
 40
0.3333333333333333
 40
0.3333333333333333
 40
0.3333333333333333
 40
0.3333333333333333
 40
0.6666666666666666
 40
0.6666666666666666
 40
0.6666666666666666
 40
0.6666666666666666
 40
1.0
 40
1.0
 40
1.0
 40
1.0
 10
-11.0858
 20
-14.17144
 30
0.0
 10
-11.0858
 20
-14.17144
 30
0.0
 10
-11.1149
 20
-14.2145
 30
0.0
 10
-11.1149
 20
-14.2145
 30
0.0
 10
-11.1149
 20
-14.2145
 30
0.0
 10
-11.1149
 20
-14.2145
 30
0.0
 10
-11.0858
 20
-14.2145
 30
0.0
 10
-11.0858
 20
-14.2145
 30
0.0
 10
-11.0858
 20
-14.2145
 30
0.0
 10
-11.0858
 20
-14.2145
 30
0.0
 10
-11.0858
 20
-14.17144
 30
0.0
 10
-11.0858
 20
-14.17144
 30
0.0
  0
SPLINE
  5
66
330
1F
100
AcDbEntity
  8
Layer 1
 62
   250
100
AcDbSpline
210
0.0
220
0.0
230
1.0
 70
    11
 71
     3
 72
    48
 73
    44
 74
     0
 42
0.0000000001
 43
0.0000000001
 40
0.0
 40
0.0
 40
0.0
 40
0.0
 40
0.0909090909090909
 40
0.0909090909090909
 40
0.0909090909090909
 40
0.0909090909090909
 40
0.1818181818181818
 40
0.1818181818181818
 40
0.1818181818181818
 40
0.1818181818181818
 40
0.2727272727272727
 40
0.2727272727272727
 40
0.2727272727272727
 40
0.2727272727272727
 40
0.3636363636363636
 40
0.3636363636363636
 40
0.3636363636363636
 40
0.3636363636363636
 40
0.4545454545454546
 40
0.4545454545454546
 40
0.4545454545454546
 40
0.4545454545454546
 40
0.5454545454545455
 40
0.5454545454545455
 40
0.5454545454545455
 40
0.5454545454545455
 40
0.6363636363636365
 40
0.6363636363636365
 40
0.6363636363636365
 40
0.6363636363636365
 40
0.7272727272727274
 40
0.7272727272727274
 40
0.7272727272727274
 40
0.7272727272727274
 40
0.8181818181818183
 40
0.8181818181818183
 40
0.8181818181818183
 40
0.8181818181818183
 40
0.9090909090909093
 40
0.9090909090909093
 40
0.9090909090909093
 40
0.9090909090909093
 40
1.0
 40
1.0
 40
1.0
 40
1.0
 10
-11.09023
 20
-14.14959
 30
0.0
 10
-11.09023
 20
-14.14959
 30
0.0
 10
-11.06073
 20
-14.14959
 30
0.0
 10
-11.06073
 20
-14.14959
 30
0.0
 10
-11.06073
 20
-14.14959
 30
0.0
 10
-11.06073
 20
-14.14959
 30
0.0
 10
-11.06073
 20
-14.2145
 30
0.0
 10
-11.06073
 20
-14.2145
 30
0.0
 10
-11.06073
 20
-14.2145
 30
0.0
 10
-11.06073
 20
-14.2145
 30
0.0
 10
-11.04606
 20
-14.2145
 30
0.0
 10
-11.04606
 20
-14.2145
 30
0.0
 10
-11.04606
 20
-14.2145
 30
0.0
 10
-11.04606
 20
-14.2145
 30
0.0
 10
-11.04606
 20
-14.23372
 30
0.0
 10
-11.04606
 20
-14.23372
 30
0.0
 10
-11.04606
 20
-14.23372
 30
0.0
 10
-11.04606
 20
-14.23372
 30
0.0
 10
-11.06073
 20
-14.23372
 30
0.0
 10
-11.06073
 20
-14.23372
 30
0.0
 10
-11.06073
 20
-14.23372
 30
0.0
 10
-11.06073
 20
-14.23372
 30
0.0
 10
-11.06073
 20
-14.25246
 30
0.0
 10
-11.06073
 20
-14.25246
 30
0.0
 10
-11.06073
 20
-14.25246
 30
0.0
 10
-11.06073
 20
-14.25246
 30
0.0
 10
-11.0858
 20
-14.25246
 30
0.0
 10
-11.0858
 20
-14.25246
 30
0.0
 10
-11.0858
 20
-14.25246
 30
0.0
 10
-11.0858
 20
-14.25246
 30
0.0
 10
-11.0858
 20
-14.23372
 30
0.0
 10
-11.0858
 20
-14.23372
 30
0.0
 10
-11.0858
 20
-14.23372
 30
0.0
 10
-11.0858
 20
-14.23372
 30
0.0
 10
-11.13143
 20
-14.23372
 30
0.0
 10
-11.13143
 20
-14.23372
 30
0.0
 10
-11.13143
 20
-14.23372
 30
0.0
 10
-11.13143
 20
-14.23372
 30
0.0
 10
-11.13143
 20
-14.21097
 30
0.0
 10
-11.13143
 20
-14.21097
 30
0.0
 10
-11.13143
 20
-14.21097
 30
0.0
 10
-11.13143
 20
-14.21097
 30
0.0
 10
-11.09023
 20
-14.14959
 30
0.0
 10
-11.09023
 20
-14.14959
 30
0.0
  0
SPLINE
  5
67
330
1F
100
AcDbEntity
  8
Layer 1
 62
   250
100
AcDbSpline
210
0.0
220
0.0
230
1.0
 70
    11
 71
     3
 72
    56
 73
    52
 74
     0
 42
0.0000000001
 43
0.0000000001
 40
0.0
 40
0.0
 40
0.0
 40
0.0
 40
0.0769230769230769
 40
0.0769230769230769
 40
0.0769230769230769
 40
0.0769230769230769
 40
0.1538461538461539
 40
0.1538461538461539
 40
0.1538461538461539
 40
0.1538461538461539
 40
0.2307692307692308
 40
0.2307692307692308
 40
0.2307692307692308
 40
0.2307692307692308
 40
0.3076923076923077
 40
0.3076923076923077
 40
0.3076923076923077
 40
0.3076923076923077
 40
0.3846153846153846
 40
0.3846153846153846
 40
0.3846153846153846
 40
0.3846153846153846
 40
0.4615384615384616
 40
0.4615384615384616
 40
0.4615384615384616
 40
0.4615384615384616
 40
0.5384615384615385
 40
0.5384615384615385
 40
0.5384615384615385
 40
0.5384615384615385
 40
0.6153846153846154
 40
0.6153846153846154
 40
0.6153846153846154
 40
0.6153846153846154
 40
0.6923076923076923
 40
0.6923076923076923
 40
0.6923076923076923
 40
0.6923076923076923
 40
0.7692307692307692
 40
0.7692307692307692
 40
0.7692307692307692
 40
0.7692307692307692
 40
0.846153846153846
 40
0.846153846153846
 40
0.846153846153846
 40
0.846153846153846
 40
0.9230769230769229
 40
0.9230769230769229
 40
0.9230769230769229
 40
0.9230769230769229
 40
1.0
 40
1.0
 40
1.0
 40
1.0
 10
-10.98625
 20
-14.14959
 30
0.0
 10
-10.98625
 20
-14.14959
 30
0.0
 10
-10.96083
 20
-14.14959
 30
0.0
 10
-10.96083
 20
-14.14959
 30
0.0
 10
-10.96083
 20
-14.14959
 30
0.0
 10
-10.96083
 20
-14.14959
 30
0.0
 10
-10.94305
 20
-14.22436
 30
0.0
 10
-10.94305
 20
-14.22436
 30
0.0
 10
-10.94305
 20
-14.22436
 30
0.0
 10
-10.94305
 20
-14.22436
 30
0.0
 10
-10.92541
 20
-14.14959
 30
0.0
 10
-10.92541
 20
-14.14959
 30
0.0
 10
-10.92541
 20
-14.14959
 30
0.0
 10
-10.92541
 20
-14.14959
 30
0.0
 10
-10.89984
 20
-14.14959
 30
0.0
 10
-10.89984
 20
-14.14959
 30
0.0
 10
-10.89984
 20
-14.14959
 30
0.0
 10
-10.89984
 20
-14.14959
 30
0.0
 10
-10.88221
 20
-14.22436
 30
0.0
 10
-10.88221
 20
-14.22436
 30
0.0
 10
-10.88221
 20
-14.22436
 30
0.0
 10
-10.88221
 20
-14.22436
 30
0.0
 10
-10.86443
 20
-14.14959
 30
0.0
 10
-10.86443
 20
-14.14959
 30
0.0
 10
-10.86443
 20
-14.14959
 30
0.0
 10
-10.86443
 20
-14.14959
 30
0.0
 10
-10.83921
 20
-14.14959
 30
0.0
 10
-10.83921
 20
-14.14959
 30
0.0
 10
-10.83921
 20
-14.14959
 30
0.0
 10
-10.83921
 20
-14.14959
 30
0.0
 10
-10.86346
 20
-14.25246
 30
0.0
 10
-10.86346
 20
-14.25246
 30
0.0
 10
-10.86346
 20
-14.25246
 30
0.0
 10
-10.86346
 20
-14.25246
 30
0.0
 10
-10.89406
 20
-14.25246
 30
0.0
 10
-10.89406
 20
-14.25246
 30
0.0
 10
-10.89406
 20
-14.25246
 30
0.0
 10
-10.89406
 20
-14.25246
 30
0.0
 10
-10.91273
 20
-14.17426
 30
0.0
 10
-10.91273
 20
-14.17426
 30
0.0
 10
-10.91273
 20
-14.17426
 30
0.0
 10
-10.91273
 20
-14.17426
 30
0.0
 10
-10.93119
 20
-14.25246
 30
0.0
 10
-10.93119
 20
-14.25246
 30
0.0
 10
-10.93119
 20
-14.25246
 30
0.0
 10
-10.93119
 20
-14.25246
 30
0.0
 10
-10.96179
 20
-14.25246
 30
0.0
 10
-10.96179
 20
-14.25246
 30
0.0
 10
-10.96179
 20
-14.25246
 30
0.0
 10
-10.96179
 20
-14.25246
 30
0.0
 10
-10.98625
 20
-14.14959
 30
0.0
 10
-10.98625
 20
-14.14959
 30
0.0
  0
SPLINE
  5
68
330
1F
100
AcDbEntity
  8
Layer 1
 62
   250
100
AcDbSpline
210
0.0
220
0.0
230
1.0
 70
    11
 71
     3
 72
    36
 73
    32
 74
     0
 42
0.0000000001
 43
0.0000000001
 40
0.0
 40
0.0
 40
0.0
 40
0.0
 40
0.125
 40
0.125
 40
0.125
 40
0.125
 40
0.25
 40
0.25
 40
0.25
 40
0.25
 40
0.375
 40
0.375
 40
0.375
 40
0.375
 40
0.5
 40
0.5
 40
0.5
 40
0.5
 40
0.625
 40
0.625
 40
0.625
 40
0.625
 40
0.75
 40
0.75
 40
0.75
 40
0.75
 40
0.875
 40
0.875
 40
0.875
 40
0.875
 40
1.0
 40
1.0
 40
1.0
 40
1.0
 10
-10.75944
 20
-14.23374
 30
0.0
 10
-10.75944
 20
-14.23374
 30
0.0
 10
-10.80093
 20
-14.23374
 30
0.0
 10
-10.80093
 20
-14.23374
 30
0.0
 10
-10.80093
 20
-14.23374
 30
0.0
 10
-10.80093
 20
-14.23374
 30
0.0
 10
-10.80747
 20
-14.25246
 30
0.0
 10
-10.80747
 20
-14.25246
 30
0.0
 10
-10.80747
 20
-14.25246
 30
0.0
 10
-10.80747
 20
-14.25246
 30
0.0
 10
-10.83414
 20
-14.25246
 30
0.0
 10
-10.83414
 20
-14.25246
 30
0.0
 10
-10.83414
 20
-14.25246
 30
0.0
 10
-10.83414
 20
-14.25246
 30
0.0
 10
-10.79604
 20
-14.14959
 30
0.0
 10
-10.79604
 20
-14.14959
 30
0.0
 10
-10.79604
 20
-14.14959
 30
0.0
 10
-10.79604
 20
-14.14959
 30
0.0
 10
-10.76441
 20
-14.14959
 30
0.0
 10
-10.76441
 20
-14.14959
 30
0.0
 10
-10.76441
 20
-14.14959
 30
0.0
 10
-10.76441
 20
-14.14959
 30
0.0
 10
-10.72631
 20
-14.25246
 30
0.0
 10
-10.72631
 20
-14.25246
 30
0.0
 10
-10.72631
 20
-14.25246
 30
0.0
 10
-10.72631
 20
-14.25246
 30
0.0
 10
-10.75298
 20
-14.25246
 30
0.0
 10
-10.75298
 20
-14.25246
 30
0.0
 10
-10.75298
 20
-14.25246
 30
0.0
 10
-10.75298
 20
-14.25246
 30
0.0
 10
-10.75944
 20
-14.23374
 30
0.0
 10
-10.75944
 20
-14.23374
 30
0.0
  0
SPLINE
  5
69
330
1F
100
AcDbEntity
  8
Layer 1
 62
   250
100
AcDbSpline
210
0.0
220
0.0
230
1.0
 70
    11
 71
     3
 72
    16
 73
    12
 74
     0
 42
0.0000000001
 43
0.0000000001
 40
0.0
 40
0.0
 40
0.0
 40
0.0
 40
0.3333333333333333
 40
0.3333333333333333
 40
0.3333333333333333
 40
0.3333333333333333
 40
0.6666666666666666
 40
0.6666666666666666
 40
0.6666666666666666
 40
0.6666666666666666
 40
1.0
 40
1.0
 40
1.0
 40
1.0
 10
-10.79432
 20
-14.21464
 30
0.0
 10
-10.79432
 20
-14.21464
 30
0.0
 10
-10.76612
 20
-14.21464
 30
0.0
 10
-10.76612
 20
-14.21464
 30
0.0
 10
-10.76612
 20
-14.21464
 30
0.0
 10
-10.76612
 20
-14.21464
 30
0.0
 10
-10.78019
 20
-14.17372
 30
0.0
 10
-10.78019
 20
-14.17372
 30
0.0
 10
-10.78019
 20
-14.17372
 30
0.0
 10
-10.78019
 20
-14.17372
 30
0.0
 10
-10.79432
 20
-14.21464
 30
0.0
 10
-10.79432
 20
-14.21464
 30
0.0
  0
SPLINE
  5
6A
330
1F
100
AcDbEntity
  8
Layer 1
 62
   250
100
AcDbSpline
210
0.0
220
0.0
230
1.0
 70
    11
 71
     3
 72
    36
 73
    32
 74
     0
 42
0.0000000001
 43
0.0000000001
 40
0.0
 40
0.0
 40
0.0
 40
0.0
 40
0.125
 40
0.125
 40
0.125
 40
0.125
 40
0.25
 40
0.25
 40
0.25
 40
0.25
 40
0.375
 40
0.375
 40
0.375
 40
0.375
 40
0.5
 40
0.5
 40
0.5
 40
0.5
 40
0.625
 40
0.625
 40
0.625
 40
0.625
 40
0.75
 40
0.75
 40
0.75
 40
0.75
 40
0.875
 40
0.875
 40
0.875
 40
0.875
 40
1.0
 40
1.0
 40
1.0
 40
1.0
 10
-10.72492
 20
-14.14959
 30
0.0
 10
-10.72492
 20
-14.14959
 30
0.0
 10
-10.63012
 20
-14.14959
 30
0.0
 10
-10.63012
 20
-14.14959
 30
0.0
 10
-10.63012
 20
-14.14959
 30
0.0
 10
-10.63012
 20
-14.14959
 30
0.0
 10
-10.63012
 20
-14.16965
 30
0.0
 10
-10.63012
 20
-14.16965
 30
0.0
 10
-10.63012
 20
-14.16965
 30
0.0
 10
-10.63012
 20
-14.16965
 30
0.0
 10
-10.66422
 20
-14.16965
 30
0.0
 10
-10.66422
 20
-14.16965
 30
0.0
 10
-10.66422
 20
-14.16965
 30
0.0
 10
-10.66422
 20
-14.16965
 30
0.0
 10
-10.66422
 20
-14.25246
 30
0.0
 10
-10.66422
 20
-14.25246
 30
0.0
 10
-10.66422
 20
-14.25246
 30
0.0
 10
-10.66422
 20
-14.25246
 30
0.0
 10
-10.69075
 20
-14.25246
 30
0.0
 10
-10.69075
 20
-14.25246
 30
0.0
 10
-10.69075
 20
-14.25246
 30
0.0
 10
-10.69075
 20
-14.25246
 30
0.0
 10
-10.69075
 20
-14.16965
 30
0.0
 10
-10.69075
 20
-14.16965
 30
0.0
 10
-10.69075
 20
-14.16965
 30
0.0
 10
-10.69075
 20
-14.16965
 30
0.0
 10
-10.72492
 20
-14.16965
 30
0.0
 10
-10.72492
 20
-14.16965
 30
0.0
 10
-10.72492
 20
-14.16965
 30
0.0
 10
-10.72492
 20
-14.16965
 30
0.0
 10
-10.72492
 20
-14.14959
 30
0.0
 10
-10.72492
 20
-14.14959
 30
0.0
  0
SPLINE
  5
6B
330
1F
100
AcDbEntity
  8
Layer 1
 62
   250
100
AcDbSpline
210
0.0
220
0.0
230
1.0
 70
    11
 71
     3
 72
    36
 73
    32
 74
     0
 42
0.0000000001
 43
0.0000000001
 40
0.0
 40
0.0
 40
0.0
 40
0.0
 40
0.125
 40
0.125
 40
0.125
 40
0.125
 40
0.25
 40
0.25
 40
0.25
 40
0.25
 40
0.375
 40
0.375
 40
0.375
 40
0.375
 40
0.5
 40
0.5
 40
0.5
 40
0.5
 40
0.625
 40
0.625
 40
0.625
 40
0.625
 40
0.75
 40
0.75
 40
0.75
 40
0.75
 40
0.875
 40
0.875
 40
0.875
 40
0.875
 40
1.0
 40
1.0
 40
1.0
 40
1.0
 10
-10.62866
 20
-14.14959
 30
0.0
 10
-10.62866
 20
-14.14959
 30
0.0
 10
-10.53386
 20
-14.14959
 30
0.0
 10
-10.53386
 20
-14.14959
 30
0.0
 10
-10.53386
 20
-14.14959
 30
0.0
 10
-10.53386
 20
-14.14959
 30
0.0
 10
-10.53386
 20
-14.16965
 30
0.0
 10
-10.53386
 20
-14.16965
 30
0.0
 10
-10.53386
 20
-14.16965
 30
0.0
 10
-10.53386
 20
-14.16965
 30
0.0
 10
-10.56796
 20
-14.16965
 30
0.0
 10
-10.56796
 20
-14.16965
 30
0.0
 10
-10.56796
 20
-14.16965
 30
0.0
 10
-10.56796
 20
-14.16965
 30
0.0
 10
-10.56796
 20
-14.25246
 30
0.0
 10
-10.56796
 20
-14.25246
 30
0.0
 10
-10.56796
 20
-14.25246
 30
0.0
 10
-10.56796
 20
-14.25246
 30
0.0
 10
-10.59449
 20
-14.25246
 30
0.0
 10
-10.59449
 20
-14.25246
 30
0.0
 10
-10.59449
 20
-14.25246
 30
0.0
 10
-10.59449
 20
-14.25246
 30
0.0
 10
-10.59449
 20
-14.16965
 30
0.0
 10
-10.59449
 20
-14.16965
 30
0.0
 10
-10.59449
 20
-14.16965
 30
0.0
 10
-10.59449
 20
-14.16965
 30
0.0
 10
-10.62866
 20
-14.16965
 30
0.0
 10
-10.62866
 20
-14.16965
 30
0.0
 10
-10.62866
 20
-14.16965
 30
0.0
 10
-10.62866
 20
-14.16965
 30
0.0
 10
-10.62866
 20
-14.14959
 30
0.0
 10
-10.62866
 20
-14.14959
 30
0.0
  0
SPLINE
  5
6C
330
1F
100
AcDbEntity
  8
Layer 1
 62
   250
100
AcDbSpline
210
0.0
220
0.0
230
1.0
 70
    11
 71
     3
 72
    36
 73
    32
 74
     0
 42
0.0000000001
 43
0.0000000001
 40
0.0
 40
0.0
 40
0.0
 40
0.0
 40
0.125
 40
0.125
 40
0.125
 40
0.125
 40
0.25
 40
0.25
 40
0.25
 40
0.25
 40
0.375
 40
0.375
 40
0.375
 40
0.375
 40
0.5
 40
0.5
 40
0.5
 40
0.5
 40
0.625
 40
0.625
 40
0.625
 40
0.625
 40
0.75
 40
0.75
 40
0.75
 40
0.75
 40
0.875
 40
0.875
 40
0.875
 40
0.875
 40
1.0
 40
1.0
 40
1.0
 40
1.0
 10
-10.43289
 20
-14.20168
 30
0.0
 10
-10.43755
 20
-14.20168
 30
0.0
 10
-10.44103
 20
-14.20319
 30
0.0
 10
-10.44333
 20
-14.2062
 30
0.0
 10
-10.44333
 20
-14.2062
 30
0.0
 10
-10.44566
 20
-14.20921
 30
0.0
 10
-10.44681
 20
-14.21373
 30
0.0
 10
-10.44681
 20
-14.21972
 30
0.0
 10
-10.44681
 20
-14.21972
 30
0.0
 10
-10.44681
 20
-14.22574
 30
0.0
 10
-10.44566
 20
-14.23026
 30
0.0
 10
-10.44333
 20
-14.23327
 30
0.0
 10
-10.44333
 20
-14.23327
 30
0.0
 10
-10.44103
 20
-14.23628
 30
0.0
 10
-10.43755
 20
-14.23778
 30
0.0
 10
-10.43289
 20
-14.23778
 30
0.0
 10
-10.43289
 20
-14.23778
 30
0.0
 10
-10.42821
 20
-14.23778
 30
0.0
 10
-10.42471
 20
-14.23628
 30
0.0
 10
-10.4224
 20
-14.23327
 30
0.0
 10
-10.4224
 20
-14.23327
 30
0.0
 10
-10.42007
 20
-14.23026
 30
0.0
 10
-10.41892
 20
-14.22574
 30
0.0
 10
-10.41892
 20
-14.21972
 30
0.0
 10
-10.41892
 20
-14.21972
 30
0.0
 10
-10.41892
 20
-14.21373
 30
0.0
 10
-10.42007
 20
-14.20921
 30
0.0
 10
-10.4224
 20
-14.2062
 30
0.0
 10
-10.4224
 20
-14.2062
 30
0.0
 10
-10.42471
 20
-14.20319
 30
0.0
 10
-10.42821
 20
-14.20168
 30
0.0
 10
-10.43289
 20
-14.20168
 30
0.0
  0
SPLINE
  5
6D
330
1F
100
AcDbEntity
  8
Layer 1
 62
   250
100
AcDbSpline
210
0.0
220
0.0
230
1.0
 70
    11
 71
     3
 72
    72
 73
    68
 74
     0
 42
0.0000000001
 43
0.0000000001
 40
0.0
 40
0.0
 40
0.0
 40
0.0
 40
0.0588235294117647
 40
0.0588235294117647
 40
0.0588235294117647
 40
0.0588235294117647
 40
0.1176470588235294
 40
0.1176470588235294
 40
0.1176470588235294
 40
0.1176470588235294
 40
0.1764705882352941
 40
0.1764705882352941
 40
0.1764705882352941
 40
0.1764705882352941
 40
0.2352941176470588
 40
0.2352941176470588
 40
0.2352941176470588
 40
0.2352941176470588
 40
0.2941176470588235
 40
0.2941176470588235
 40
0.2941176470588235
 40
0.2941176470588235
 40
0.3529411764705883
 40
0.3529411764705883
 40
0.3529411764705883
 40
0.3529411764705883
 40
0.411764705882353
 40
0.411764705882353
 40
0.411764705882353
 40
0.411764705882353
 40
0.4705882352941177
 40
0.4705882352941177
 40
0.4705882352941177
 40
0.4705882352941177
 40
0.5294117647058824
 40
0.5294117647058824
 40
0.5294117647058824
 40
0.5294117647058824
 40
0.5882352941176471
 40
0.5882352941176471
 40
0.5882352941176471
 40
0.5882352941176471
 40
0.6470588235294118
 40
0.6470588235294118
 40
0.6470588235294118
 40
0.6470588235294118
 40
0.7058823529411765
 40
0.7058823529411765
 40
0.7058823529411765
 40
0.7058823529411765
 40
0.7647058823529412
 40
0.7647058823529412
 40
0.7647058823529412
 40
0.7647058823529412
 40
0.823529411764706
 40
0.823529411764706
 40
0.823529411764706
 40
0.823529411764706
 40
0.8823529411764707
 40
0.8823529411764707
 40
0.8823529411764707
 40
0.8823529411764707
 40
0.9411764705882354
 40
0.9411764705882354
 40
0.9411764705882354
 40
0.9411764705882354
 40
1.0
 40
1.0
 40
1.0
 40
1.0
 10
-10.40011
 20
-14.15227
 30
0.0
 10
-10.40011
 20
-14.15227
 30
0.0
 10
-10.40011
 20
-14.1713
 30
0.0
 10
-10.40011
 20
-14.1713
 30
0.0
 10
-10.40011
 20
-14.1713
 30
0.0
 10
-10.40448
 20
-14.16923
 30
0.0
 10
-10.40857
 20
-14.1677
 30
0.0
 10
-10.41243
 20
-14.16671
 30
0.0
 10
-10.41243
 20
-14.16671
 30
0.0
 10
-10.41629
 20
-14.16572
 30
0.0
 10
-10.42007
 20
-14.16523
 30
0.0
 10
-10.42374
 20
-14.16523
 30
0.0
 10
-10.42374
 20
-14.16523
 30
0.0
 10
-10.43165
 20
-14.16523
 30
0.0
 10
-10.43778
 20
-14.16742
 30
0.0
 10
-10.4422
 20
-14.17182
 30
0.0
 10
-10.4422
 20
-14.17182
 30
0.0
 10
-10.4466
 20
-14.17619
 30
0.0
 10
-10.44919
 20
-14.1827
 30
0.0
 10
-10.44992
 20
-14.19134
 30
0.0
 10
-10.44992
 20
-14.19134
 30
0.0
 10
-10.44689
 20
-14.1891
 30
0.0
 10
-10.44359
 20
-14.18741
 30
0.0
 10
-10.44006
 20
-14.18628
 30
0.0
 10
-10.44006
 20
-14.18628
 30
0.0
 10
-10.43654
 20
-14.18515
 30
0.0
 10
-10.43268
 20
-14.18459
 30
0.0
 10
-10.42849
 20
-14.18459
 30
0.0
 10
-10.42849
 20
-14.18459
 30
0.0
 10
-10.41798
 20
-14.18459
 30
0.0
 10
-10.40949
 20
-14.18767
 30
0.0
 10
-10.40305
 20
-14.19383
 30
0.0
 10
-10.40305
 20
-14.19383
 30
0.0
 10
-10.39658
 20
-14.19997
 30
0.0
 10
-10.39336
 20
-14.20803
 30
0.0
 10
-10.39336
 20
-14.21801
 30
0.0
 10
-10.39336
 20
-14.21801
 30
0.0
 10
-10.39336
 20
-14.22904
 30
0.0
 10
-10.39696
 20
-14.23786
 30
0.0
 10
-10.40418
 20
-14.24451
 30
0.0
 10
-10.40418
 20
-14.24451
 30
0.0
 10
-10.41137
 20
-14.25114
 30
0.0
 10
-10.42106
 20
-14.25446
 30
0.0
 10
-10.43317
 20
-14.25446
 30
0.0
 10
-10.43317
 20
-14.25446
 30
0.0
 10
-10.44653
 20
-14.25446
 30
0.0
 10
-10.45688
 20
-14.24994
 30
0.0
 10
-10.46422
 20
-14.24091
 30
0.0
 10
-10.46422
 20
-14.24091
 30
0.0
 10
-10.47153
 20
-14.2319
 30
0.0
 10
-10.4752
 20
-14.21909
 30
0.0
 10
-10.4752
 20
-14.20251
 30
0.0
 10
-10.4752
 20
-14.20251
 30
0.0
 10
-10.4752
 20
-14.18553
 30
0.0
 10
-10.47092
 20
-14.17217
 30
0.0
 10
-10.46236
 20
-14.16246
 30
0.0
 10
-10.46236
 20
-14.16246
 30
0.0
 10
-10.45378
 20
-14.15274
 30
0.0
 10
-10.44204
 20
-14.14787
 30
0.0
 10
-10.42711
 20
-14.14787
 30
0.0
 10
-10.42711
 20
-14.14787
 30
0.0
 10
-10.42238
 20
-14.14787
 30
0.0
 10
-10.41779
 20
-14.14825
 30
0.0
 10
-10.41332
 20
-14.14898
 30
0.0
 10
-10.41332
 20
-14.14898
 30
0.0
 10
-10.40888
 20
-14.14971
 30
0.0
 10
-10.40448
 20
-14.15081
 30
0.0
 10
-10.40011
 20
-14.15227
 30
0.0
  0
SPLINE
  5
6E
330
1F
100
AcDbEntity
  8
Layer 1
 62
   250
100
AcDbSpline
210
0.0
220
0.0
230
1.0
 70
    11
 71
     3
 72
    20
 73
    16
 74
     0
 42
0.0000000001
 43
0.0000000001
 40
0.0
 40
0.0
 40
0.0
 40
0.0
 40
0.25
 40
0.25
 40
0.25
 40
0.25
 40
0.5
 40
0.5
 40
0.5
 40
0.5
 40
0.75
 40
0.75
 40
0.75
 40
0.75
 40
1.0
 40
1.0
 40
1.0
 40
1.0
 10
-10.37137
 20
-14.22579
 30
0.0
 10
-10.37137
 20
-14.22579
 30
0.0
 10
-10.34655
 20
-14.22579
 30
0.0
 10
-10.34655
 20
-14.22579
 30
0.0
 10
-10.34655
 20
-14.22579
 30
0.0
 10
-10.34655
 20
-14.22579
 30
0.0
 10
-10.34655
 20
-14.25246
 30
0.0
 10
-10.34655
 20
-14.25246
 30
0.0
 10
-10.34655
 20
-14.25246
 30
0.0
 10
-10.34655
 20
-14.25246
 30
0.0
 10
-10.37137
 20
-14.25246
 30
0.0
 10
-10.37137
 20
-14.25246
 30
0.0
 10
-10.37137
 20
-14.25246
 30
0.0
 10
-10.37137
 20
-14.25246
 30
0.0
 10
-10.37137
 20
-14.22579
 30
0.0
 10
-10.37137
 20
-14.22579
 30
0.0
  0
SPLINE
  5
6F
330
1F
100
AcDbEntity
  8
Layer 1
 62
   250
100
AcDbSpline
210
0.0
220
0.0
230
1.0
 70
    11
 71
     3
 72
    36
 73
    32
 74
     0
 42
0.0000000001
 43
0.0000000001
 40
0.0
 40
0.0
 40
0.0
 40
0.0
 40
0.125
 40
0.125
 40
0.125
 40
0.125
 40
0.25
 40
0.25
 40
0.25
 40
0.25
 40
0.375
 40
0.375
 40
0.375
 40
0.375
 40
0.5
 40
0.5
 40
0.5
 40
0.5
 40
0.625
 40
0.625
 40
0.625
 40
0.625
 40
0.75
 40
0.75
 40
0.75
 40
0.75
 40
0.875
 40
0.875
 40
0.875
 40
0.875
 40
1.0
 40
1.0
 40
1.0
 40
1.0
 10
-10.28303
 20
-14.20643
 30
0.0
 10
-10.28799
 20
-14.20643
 30
0.0
 10
-10.29183
 20
-14.2078
 30
0.0
 10
-10.29448
 20
-14.2105
 30
0.0
 10
-10.29448
 20
-14.2105
 30
0.0
 10
-10.29714
 20
-14.21321
 30
0.0
 10
-10.29848
 20
-14.21709
 30
0.0
 10
-10.29848
 20
-14.22214
 30
0.0
 10
-10.29848
 20
-14.22214
 30
0.0
 10
-10.29848
 20
-14.2272
 30
0.0
 10
-10.29714
 20
-14.23106
 30
0.0
 10
-10.29448
 20
-14.23376
 30
0.0
 10
-10.29448
 20
-14.23376
 30
0.0
 10
-10.29183
 20
-14.23644
 30
0.0
 10
-10.28799
 20
-14.23778
 30
0.0
 10
-10.28303
 20
-14.23778
 30
0.0
 10
-10.28303
 20
-14.23778
 30
0.0
 10
-10.27811
 20
-14.23778
 30
0.0
 10
-10.27435
 20
-14.23644
 30
0.0
 10
-10.27172
 20
-14.23376
 30
0.0
 10
-10.27172
 20
-14.23376
 30
0.0
 10
-10.26911
 20
-14.23106
 30
0.0
 10
-10.26779
 20
-14.2272
 30
0.0
 10
-10.26779
 20
-14.22214
 30
0.0
 10
-10.26779
 20
-14.22214
 30
0.0
 10
-10.26779
 20
-14.21704
 30
0.0
 10
-10.26911
 20
-14.21316
 30
0.0
 10
-10.27172
 20
-14.21046
 30
0.0
 10
-10.27172
 20
-14.21046
 30
0.0
 10
-10.27435
 20
-14.20778
 30
0.0
 10
-10.27811
 20
-14.20643
 30
0.0
 10
-10.28303
 20
-14.20643
 30
0.0
  0
SPLINE
  5
70
330
1F
100
AcDbEntity
  8
Layer 1
 62
   250
100
AcDbSpline
210
0.0
220
0.0
230
1.0
 70
    11
 71
     3
 72
    68
 73
    64
 74
     0
 42
0.0000000001
 43
0.0000000001
 40
0.0
 40
0.0
 40
0.0
 40
0.0
 40
0.0625
 40
0.0625
 40
0.0625
 40
0.0625
 40
0.125
 40
0.125
 40
0.125
 40
0.125
 40
0.1875
 40
0.1875
 40
0.1875
 40
0.1875
 40
0.25
 40
0.25
 40
0.25
 40
0.25
 40
0.3125
 40
0.3125
 40
0.3125
 40
0.3125
 40
0.375
 40
0.375
 40
0.375
 40
0.375
 40
0.4375
 40
0.4375
 40
0.4375
 40
0.4375
 40
0.5
 40
0.5
 40
0.5
 40
0.5
 40
0.5625
 40
0.5625
 40
0.5625
 40
0.5625
 40
0.625
 40
0.625
 40
0.625
 40
0.625
 40
0.6875
 40
0.6875
 40
0.6875
 40
0.6875
 40
0.75
 40
0.75
 40
0.75
 40
0.75
 40
0.8125
 40
0.8125
 40
0.8125
 40
0.8125
 40
0.875
 40
0.875
 40
0.875
 40
0.875
 40
0.9375
 40
0.9375
 40
0.9375
 40
0.9375
 40
1.0
 40
1.0
 40
1.0
 40
1.0
 10
-10.30241
 20
-14.19769
 30
0.0
 10
-10.30864
 20
-14.1958
 30
0.0
 10
-10.31335
 20
-14.19291
 30
0.0
 10
-10.31652
 20
-14.18901
 30
0.0
 10
-10.31652
 20
-14.18901
 30
0.0
 10
-10.3197
 20
-14.1851
 30
0.0
 10
-10.32127
 20
-14.18024
 30
0.0
 10
-10.32127
 20
-14.1744
 30
0.0
 10
-10.32127
 20
-14.1744
 30
0.0
 10
-10.32127
 20
-14.16572
 30
0.0
 10
-10.31803
 20
-14.15909
 30
0.0
 10
-10.31156
 20
-14.15455
 30
0.0
 10
-10.31156
 20
-14.15455
 30
0.0
 10
-10.30509
 20
-14.15001
 30
0.0
 10
-10.29557
 20
-14.14773
 30
0.0
 10
-10.28303
 20
-14.14773
 30
0.0
 10
-10.28303
 20
-14.14773
 30
0.0
 10
-10.27059
 20
-14.14773
 30
0.0
 10
-10.26111
 20
-14.14999
 30
0.0
 10
-10.25464
 20
-14.15453
 30
0.0
 10
-10.25464
 20
-14.15453
 30
0.0
 10
-10.24818
 20
-14.15905
 30
0.0
 10
-10.24493
 20
-14.16568
 30
0.0
 10
-10.24493
 20
-14.1744
 30
0.0
 10
-10.24493
 20
-14.1744
 30
0.0
 10
-10.24493
 20
-14.18024
 30
0.0
 10
-10.24653
 20
-14.1851
 30
0.0
 10
-10.2497
 20
-14.18901
 30
0.0
 10
-10.2497
 20
-14.18901
 30
0.0
 10
-10.2529
 20
-14.19291
 30
0.0
 10
-10.25763
 20
-14.1958
 30
0.0
 10
-10.26386
 20
-14.19769
 30
0.0
 10
-10.26386
 20
-14.19769
 30
0.0
 10
-10.25688
 20
-14.19961
 30
0.0
 10
-10.25161
 20
-14.20274
 30
0.0
 10
-10.24806
 20
-14.20709
 30
0.0
 10
-10.24806
 20
-14.20709
 30
0.0
 10
-10.24451
 20
-14.21142
 30
0.0
 10
-10.24272
 20
-14.2169
 30
0.0
 10
-10.24272
 20
-14.22353
 30
0.0
 10
-10.24272
 20
-14.22353
 30
0.0
 10
-10.24272
 20
-14.23372
 30
0.0
 10
-10.24611
 20
-14.24143
 30
0.0
 10
-10.25288
 20
-14.24663
 30
0.0
 10
-10.25288
 20
-14.24663
 30
0.0
 10
-10.25965
 20
-14.25185
 30
0.0
 10
-10.26972
 20
-14.25446
 30
0.0
 10
-10.28303
 20
-14.25446
 30
0.0
 10
-10.28303
 20
-14.25446
 30
0.0
 10
-10.29641
 20
-14.25446
 30
0.0
 10
-10.3065
 20
-14.25185
 30
0.0
 10
-10.31332
 20
-14.24663
 30
0.0
 10
-10.31332
 20
-14.24663
 30
0.0
 10
-10.32014
 20
-14.24143
 30
0.0
 10
-10.32355
 20
-14.23372
 30
0.0
 10
-10.32355
 20
-14.22353
 30
0.0
 10
-10.32355
 20
-14.22353
 30
0.0
 10
-10.32355
 20
-14.2169
 30
0.0
 10
-10.32176
 20
-14.21142
 30
0.0
 10
-10.31821
 20
-14.20709
 30
0.0
 10
-10.31821
 20
-14.20709
 30
0.0
 10
-10.31466
 20
-14.20274
 30
0.0
 10
-10.30939
 20
-14.19961
 30
0.0
 10
-10.30241
 20
-14.19769
 30
0.0
  0
SPLINE
  5
71
330
1F
100
AcDbEntity
  8
Layer 1
 62
   250
100
AcDbSpline
210
0.0
220
0.0
230
1.0
 70
    11
 71
     3
 72
    36
 73
    32
 74
     0
 42
0.0000000001
 43
0.0000000001
 40
0.0
 40
0.0
 40
0.0
 40
0.0
 40
0.125
 40
0.125
 40
0.125
 40
0.125
 40
0.25
 40
0.25
 40
0.25
 40
0.25
 40
0.375
 40
0.375
 40
0.375
 40
0.375
 40
0.5
 40
0.5
 40
0.5
 40
0.5
 40
0.625
 40
0.625
 40
0.625
 40
0.625
 40
0.75
 40
0.75
 40
0.75
 40
0.75
 40
0.875
 40
0.875
 40
0.875
 40
0.875
 40
1.0
 40
1.0
 40
1.0
 40
1.0
 10
-10.2962
 20
-14.17708
 30
0.0
 10
-10.2962
 20
-14.18118
 30
0.0
 10
-10.29507
 20
-14.18433
 30
0.0
 10
-10.29279
 20
-14.18651
 30
0.0
 10
-10.29279
 20
-14.18651
 30
0.0
 10
-10.29051
 20
-14.18873
 30
0.0
 10
-10.28726
 20
-14.18983
 30
0.0
 10
-10.28303
 20
-14.18983
 30
0.0
 10
-10.28303
 20
-14.18983
 30
0.0
 10
-10.27889
 20
-14.18983
 30
0.0
 10
-10.27569
 20
-14.18873
 30
0.0
 10
-10.27346
 20
-14.18651
 30
0.0
 10
-10.27346
 20
-14.18651
 30
0.0
 10
-10.2712
 20
-14.18433
 30
0.0
 10
-10.27007
 20
-14.18118
 30
0.0
 10
-10.27007
 20
-14.17708
 30
0.0
 10
-10.27007
 20
-14.17708
 30
0.0
 10
-10.27007
 20
-14.17299
 30
0.0
 10
-10.2712
 20
-14.16986
 30
0.0
 10
-10.27346
 20
-14.16768
 30
0.0
 10
-10.27346
 20
-14.16768
 30
0.0
 10
-10.27569
 20
-14.16549
 30
0.0
 10
-10.27889
 20
-14.16441
 30
0.0
 10
-10.28303
 20
-14.16441
 30
0.0
 10
-10.28303
 20
-14.16441
 30
0.0
 10
-10.28726
 20
-14.16441
 30
0.0
 10
-10.29051
 20
-14.16551
 30
0.0
 10
-10.29279
 20
-14.16772
 30
0.0
 10
-10.29279
 20
-14.16772
 30
0.0
 10
-10.29507
 20
-14.16991
 30
0.0
 10
-10.2962
 20
-14.17304
 30
0.0
 10
-10.2962
 20
-14.17708
 30
0.0
  0
SPLINE
  5
72
330
1F
100
AcDbEntity
  8
Layer 1
 62
   250
100
AcDbSpline
210
0.0
220
0.0
230
1.0
 70
    11
 71
     3
 72
    48
 73
    44
 74
     0
 42
0.0000000001
 43
0.0000000001
 40
0.0
 40
0.0
 40
0.0
 40
0.0
 40
0.0909090909090909
 40
0.0909090909090909
 40
0.0909090909090909
 40
0.0909090909090909
 40
0.1818181818181818
 40
0.1818181818181818
 40
0.1818181818181818
 40
0.1818181818181818
 40
0.2727272727272727
 40
0.2727272727272727
 40
0.2727272727272727
 40
0.2727272727272727
 40
0.3636363636363636
 40
0.3636363636363636
 40
0.3636363636363636
 40
0.3636363636363636
 40
0.4545454545454546
 40
0.4545454545454546
 40
0.4545454545454546
 40
0.4545454545454546
 40
0.5454545454545455
 40
0.5454545454545455
 40
0.5454545454545455
 40
0.5454545454545455
 40
0.6363636363636365
 40
0.6363636363636365
 40
0.6363636363636365
 40
0.6363636363636365
 40
0.7272727272727274
 40
0.7272727272727274
 40
0.7272727272727274
 40
0.7272727272727274
 40
0.8181818181818183
 40
0.8181818181818183
 40
0.8181818181818183
 40
0.8181818181818183
 40
0.9090909090909093
 40
0.9090909090909093
 40
0.9090909090909093
 40
0.9090909090909093
 40
1.0
 40
1.0
 40
1.0
 40
1.0
 10
-10.22212
 20
-14.14524
 30
0.0
 10
-10.22212
 20
-14.14524
 30
0.0
 10
-10.19745
 20
-14.14524
 30
0.0
 10
-10.19745
 20
-14.14524
 30
0.0
 10
-10.19745
 20
-14.14524
 30
0.0
 10
-10.19745
 20
-14.14524
 30
0.0
 10
-10.19745
 20
-14.20361
 30
0.0
 10
-10.19745
 20
-14.20361
 30
0.0
 10
-10.19745
 20
-14.20361
 30
0.0
 10
-10.19745
 20
-14.20361
 30
0.0
 10
-10.16906
 20
-14.1753
 30
0.0
 10
-10.16906
 20
-14.1753
 30
0.0
 10
-10.16906
 20
-14.1753
 30
0.0
 10
-10.16906
 20
-14.1753
 30
0.0
 10
-10.14039
 20
-14.1753
 30
0.0
 10
-10.14039
 20
-14.1753
 30
0.0
 10
-10.14039
 20
-14.1753
 30
0.0
 10
-10.14039
 20
-14.1753
 30
0.0
 10
-10.17809
 20
-14.21071
 30
0.0
 10
-10.17809
 20
-14.21071
 30
0.0
 10
-10.17809
 20
-14.21071
 30
0.0
 10
-10.17809
 20
-14.21071
 30
0.0
 10
-10.13743
 20
-14.25246
 30
0.0
 10
-10.13743
 20
-14.25246
 30
0.0
 10
-10.13743
 20
-14.25246
 30
0.0
 10
-10.13743
 20
-14.25246
 30
0.0
 10
-10.16734
 20
-14.25246
 30
0.0
 10
-10.16734
 20
-14.25246
 30
0.0
 10
-10.16734
 20
-14.25246
 30
0.0
 10
-10.16734
 20
-14.25246
 30
0.0
 10
-10.19745
 20
-14.22029
 30
0.0
 10
-10.19745
 20
-14.22029
 30
0.0
 10
-10.19745
 20
-14.22029
 30
0.0
 10
-10.19745
 20
-14.22029
 30
0.0
 10
-10.19745
 20
-14.25246
 30
0.0
 10
-10.19745
 20
-14.25246
 30
0.0
 10
-10.19745
 20
-14.25246
 30
0.0
 10
-10.19745
 20
-14.25246
 30
0.0
 10
-10.22212
 20
-14.25246
 30
0.0
 10
-10.22212
 20
-14.25246
 30
0.0
 10
-10.22212
 20
-14.25246
 30
0.0
 10
-10.22212
 20
-14.25246
 30
0.0
 10
-10.22212
 20
-14.14524
 30
0.0
 10
-10.22212
 20
-14.14524
 30
0.0
  0
SPLINE
  5
73
330
1F
100
AcDbEntity
  8
Layer 1
 62
   250
100
AcDbSpline
210
0.0
220
0.0
230
1.0
 70
    11
 71
     3
 72
    36
 73
    32
 74
     0
 42
0.0000000001
 43
0.0000000001
 40
0.0
 40
0.0
 40
0.0
 40
0.0
 40
0.125
 40
0.125
 40
0.125
 40
0.125
 40
0.25
 40
0.25
 40
0.25
 40
0.25
 40
0.375
 40
0.375
 40
0.375
 40
0.375
 40
0.5
 40
0.5
 40
0.5
 40
0.5
 40
0.625
 40
0.625
 40
0.625
 40
0.625
 40
0.75
 40
0.75
 40
0.75
 40
0.75
 40
0.875
 40
0.875
 40
0.875
 40
0.875
 40
1.0
 40
1.0
 40
1.0
 40
1.0
 10
-10.03105
 20
-14.16695
 30
0.0
 10
-10.03914
 20
-14.16695
 30
0.0
 10
-10.0454
 20
-14.16993
 30
0.0
 10
-10.04987
 20
-14.17591
 30
0.0
 10
-10.04987
 20
-14.17591
 30
0.0
 10
-10.05431
 20
-14.18188
 30
0.0
 10
-10.05655
 20
-14.19028
 30
0.0
 10
-10.05655
 20
-14.20112
 30
0.0
 10
-10.05655
 20
-14.20112
 30
0.0
 10
-10.05655
 20
-14.21194
 30
0.0
 10
-10.05431
 20
-14.22031
 30
0.0
 10
-10.04987
 20
-14.22628
 30
0.0
 10
-10.04987
 20
-14.22628
 30
0.0
 10
-10.0454
 20
-14.23226
 30
0.0
 10
-10.03914
 20
-14.23524
 30
0.0
 10
-10.03105
 20
-14.23524
 30
0.0
 10
-10.03105
 20
-14.23524
 30
0.0
 10
-10.02291
 20
-14.23524
 30
0.0
 10
-10.01664
 20
-14.23226
 30
0.0
 10
-10.01217
 20
-14.22628
 30
0.0
 10
-10.01217
 20
-14.22628
 30
0.0
 10
-10.00772
 20
-14.22031
 30
0.0
 10
-10.00549
 20
-14.21194
 30
0.0
 10
-10.00549
 20
-14.20112
 30
0.0
 10
-10.00549
 20
-14.20112
 30
0.0
 10
-10.00549
 20
-14.19028
 30
0.0
 10
-10.00772
 20
-14.18188
 30
0.0
 10
-10.01217
 20
-14.17591
 30
0.0
 10
-10.01217
 20
-14.17591
 30
0.0
 10
-10.01664
 20
-14.16993
 30
0.0
 10
-10.02291
 20
-14.16695
 30
0.0
 10
-10.03105
 20
-14.16695
 30
0.0
  0
SPLINE
  5
74
330
1F
100
AcDbEntity
  8
Layer 1
 62
   250
100
AcDbSpline
210
0.0
220
0.0
230
1.0
 70
    11
 71
     3
 72
    36
 73
    32
 74
     0
 42
0.0000000001
 43
0.0000000001
 40
0.0
 40
0.0
 40
0.0
 40
0.0
 40
0.125
 40
0.125
 40
0.125
 40
0.125
 40
0.25
 40
0.25
 40
0.25
 40
0.25
 40
0.375
 40
0.375
 40
0.375
 40
0.375
 40
0.5
 40
0.5
 40
0.5
 40
0.5
 40
0.625
 40
0.625
 40
0.625
 40
0.625
 40
0.75
 40
0.75
 40
0.75
 40
0.75
 40
0.875
 40
0.875
 40
0.875
 40
0.875
 40
1.0
 40
1.0
 40
1.0
 40
1.0
 10
-10.03105
 20
-14.14773
 30
0.0
 10
-10.01452
 20
-14.14773
 30
0.0
 10
-10.00156
 20
-14.15246
 30
0.0
 10
-9.9922
 20
-14.16194
 30
0.0
 10
-9.9922
 20
-14.16194
 30
0.0
 10
-9.98282
 20
-14.17139
 30
0.0
 10
-9.97814
 20
-14.18444
 30
0.0
 10
-9.97814
 20
-14.20112
 30
0.0
 10
-9.97814
 20
-14.20112
 30
0.0
 10
-9.97814
 20
-14.21775
 30
0.0
 10
-9.98282
 20
-14.2308
 30
0.0
 10
-9.9922
 20
-14.24025
 30
0.0
 10
-9.9922
 20
-14.24025
 30
0.0
 10
-10.00156
 20
-14.24973
 30
0.0
 10
-10.01452
 20
-14.25446
 30
0.0
 10
-10.03105
 20
-14.25446
 30
0.0
 10
-10.03105
 20
-14.25446
 30
0.0
 10
-10.04754
 20
-14.25446
 30
0.0
 10
-10.06047
 20
-14.24973
 30
0.0
 10
-10.06988
 20
-14.24025
 30
0.0
 10
-10.06988
 20
-14.24025
 30
0.0
 10
-10.07926
 20
-14.2308
 30
0.0
 10
-10.08397
 20
-14.21775
 30
0.0
 10
-10.08397
 20
-14.20112
 30
0.0
 10
-10.08397
 20
-14.20112
 30
0.0
 10
-10.08397
 20
-14.18444
 30
0.0
 10
-10.07926
 20
-14.17139
 30
0.0
 10
-10.06988
 20
-14.16194
 30
0.0
 10
-10.06988
 20
-14.16194
 30
0.0
 10
-10.06047
 20
-14.15246
 30
0.0
 10
-10.04754
 20
-14.14773
 30
0.0
 10
-10.03105
 20
-14.14773
 30
0.0
  0
SPLINE
  5
75
330
1F
100
AcDbEntity
  8
Layer 1
 62
   250
100
AcDbSpline
210
0.0
220
0.0
230
1.0
 70
    11
 71
     3
 72
    52
 73
    48
 74
     0
 42
0.0000000001
 43
0.0000000001
 40
0.0
 40
0.0
 40
0.0
 40
0.0
 40
0.0833333333333333
 40
0.0833333333333333
 40
0.0833333333333333
 40
0.0833333333333333
 40
0.1666666666666667
 40
0.1666666666666667
 40
0.1666666666666667
 40
0.1666666666666667
 40
0.25
 40
0.25
 40
0.25
 40
0.25
 40
0.3333333333333333
 40
0.3333333333333333
 40
0.3333333333333333
 40
0.3333333333333333
 40
0.4166666666666666
 40
0.4166666666666666
 40
0.4166666666666666
 40
0.4166666666666666
 40
0.4999999999999999
 40
0.4999999999999999
 40
0.4999999999999999
 40
0.4999999999999999
 40
0.5833333333333333
 40
0.5833333333333333
 40
0.5833333333333333
 40
0.5833333333333333
 40
0.6666666666666666
 40
0.6666666666666666
 40
0.6666666666666666
 40
0.6666666666666666
 40
0.75
 40
0.75
 40
0.75
 40
0.75
 40
0.8333333333333334
 40
0.8333333333333334
 40
0.8333333333333334
 40
0.8333333333333334
 40
0.9166666666666667
 40
0.9166666666666667
 40
0.9166666666666667
 40
0.9166666666666667
 40
1.0
 40
1.0
 40
1.0
 40
1.0
 10
-9.95807
 20
-14.14959
 30
0.0
 10
-9.95807
 20
-14.14959
 30
0.0
 10
-9.93154
 20
-14.14959
 30
0.0
 10
-9.93154
 20
-14.14959
 30
0.0
 10
-9.93154
 20
-14.14959
 30
0.0
 10
-9.93154
 20
-14.14959
 30
0.0
 10
-9.93154
 20
-14.1888
 30
0.0
 10
-9.93154
 20
-14.1888
 30
0.0
 10
-9.93154
 20
-14.1888
 30
0.0
 10
-9.93154
 20
-14.1888
 30
0.0
 10
-9.89241
 20
-14.1888
 30
0.0
 10
-9.89241
 20
-14.1888
 30
0.0
 10
-9.89241
 20
-14.1888
 30
0.0
 10
-9.89241
 20
-14.1888
 30
0.0
 10
-9.89241
 20
-14.14959
 30
0.0
 10
-9.89241
 20
-14.14959
 30
0.0
 10
-9.89241
 20
-14.14959
 30
0.0
 10
-9.89241
 20
-14.14959
 30
0.0
 10
-9.86588
 20
-14.14959
 30
0.0
 10
-9.86588
 20
-14.14959
 30
0.0
 10
-9.86588
 20
-14.14959
 30
0.0
 10
-9.86588
 20
-14.14959
 30
0.0
 10
-9.86588
 20
-14.25246
 30
0.0
 10
-9.86588
 20
-14.25246
 30
0.0
 10
-9.86588
 20
-14.25246
 30
0.0
 10
-9.86588
 20
-14.25246
 30
0.0
 10
-9.89241
 20
-14.25246
 30
0.0
 10
-9.89241
 20
-14.25246
 30
0.0
 10
-9.89241
 20
-14.25246
 30
0.0
 10
-9.89241
 20
-14.25246
 30
0.0
 10
-9.89241
 20
-14.20886
 30
0.0
 10
-9.89241
 20
-14.20886
 30
0.0
 10
-9.89241
 20
-14.20886
 30
0.0
 10
-9.89241
 20
-14.20886
 30
0.0
 10
-9.93154
 20
-14.20886
 30
0.0
 10
-9.93154
 20
-14.20886
 30
0.0
 10
-9.93154
 20
-14.20886
 30
0.0
 10
-9.93154
 20
-14.20886
 30
0.0
 10
-9.93154
 20
-14.25246
 30
0.0
 10
-9.93154
 20
-14.25246
 30
0.0
 10
-9.93154
 20
-14.25246
 30
0.0
 10
-9.93154
 20
-14.25246
 30
0.0
 10
-9.95807
 20
-14.25246
 30
0.0
 10
-9.95807
 20
-14.25246
 30
0.0
 10
-9.95807
 20
-14.25246
 30
0.0
 10
-9.95807
 20
-14.25246
 30
0.0
 10
-9.95807
 20
-14.14959
 30
0.0
 10
-9.95807
 20
-14.14959
 30
0.0
  0
SPLINE
  5
76
330
1F
100
AcDbEntity
  8
Layer 1
 62
   250
100
AcDbSpline
210
0.0
220
0.0
230
1.0
 70
    11
 71
     3
 72
    56
 73
    52
 74
     0
 42
0.0000000001
 43
0.0000000001
 40
0.0
 40
0.0
 40
0.0
 40
0.0
 40
0.0769230769230769
 40
0.0769230769230769
 40
0.0769230769230769
 40
0.0769230769230769
 40
0.1538461538461539
 40
0.1538461538461539
 40
0.1538461538461539
 40
0.1538461538461539
 40
0.2307692307692308
 40
0.2307692307692308
 40
0.2307692307692308
 40
0.2307692307692308
 40
0.3076923076923077
 40
0.3076923076923077
 40
0.3076923076923077
 40
0.3076923076923077
 40
0.3846153846153846
 40
0.3846153846153846
 40
0.3846153846153846
 40
0.3846153846153846
 40
0.4615384615384616
 40
0.4615384615384616
 40
0.4615384615384616
 40
0.4615384615384616
 40
0.5384615384615385
 40
0.5384615384615385
 40
0.5384615384615385
 40
0.5384615384615385
 40
0.6153846153846154
 40
0.6153846153846154
 40
0.6153846153846154
 40
0.6153846153846154
 40
0.6923076923076923
 40
0.6923076923076923
 40
0.6923076923076923
 40
0.6923076923076923
 40
0.7692307692307692
 40
0.7692307692307692
 40
0.7692307692307692
 40
0.7692307692307692
 40
0.846153846153846
 40
0.846153846153846
 40
0.846153846153846
 40
0.846153846153846
 40
0.9230769230769229
 40
0.9230769230769229
 40
0.9230769230769229
 40
0.9230769230769229
 40
1.0
 40
1.0
 40
1.0
 40
1.0
 10
-9.83998
 20
-14.14959
 30
0.0
 10
-9.83998
 20
-14.14959
 30
0.0
 10
-9.80623
 20
-14.14959
 30
0.0
 10
-9.80623
 20
-14.14959
 30
0.0
 10
-9.80623
 20
-14.14959
 30
0.0
 10
-9.80623
 20
-14.14959
 30
0.0
 10
-9.78278
 20
-14.20465
 30
0.0
 10
-9.78278
 20
-14.20465
 30
0.0
 10
-9.78278
 20
-14.20465
 30
0.0
 10
-9.78278
 20
-14.20465
 30
0.0
 10
-9.75922
 20
-14.14959
 30
0.0
 10
-9.75922
 20
-14.14959
 30
0.0
 10
-9.75922
 20
-14.14959
 30
0.0
 10
-9.75922
 20
-14.14959
 30
0.0
 10
-9.72554
 20
-14.14959
 30
0.0
 10
-9.72554
 20
-14.14959
 30
0.0
 10
-9.72554
 20
-14.14959
 30
0.0
 10
-9.72554
 20
-14.14959
 30
0.0
 10
-9.72554
 20
-14.25246
 30
0.0
 10
-9.72554
 20
-14.25246
 30
0.0
 10
-9.72554
 20
-14.25246
 30
0.0
 10
-9.72554
 20
-14.25246
 30
0.0
 10
-9.75061
 20
-14.25246
 30
0.0
 10
-9.75061
 20
-14.25246
 30
0.0
 10
-9.75061
 20
-14.25246
 30
0.0
 10
-9.75061
 20
-14.25246
 30
0.0
 10
-9.75061
 20
-14.17722
 30
0.0
 10
-9.75061
 20
-14.17722
 30
0.0
 10
-9.75061
 20
-14.17722
 30
0.0
 10
-9.75061
 20
-14.17722
 30
0.0
 10
-9.77432
 20
-14.23268
 30
0.0
 10
-9.77432
 20
-14.23268
 30
0.0
 10
-9.77432
 20
-14.23268
 30
0.0
 10
-9.77432
 20
-14.23268
 30
0.0
 10
-9.79113
 20
-14.23268
 30
0.0
 10
-9.79113
 20
-14.23268
 30
0.0
 10
-9.79113
 20
-14.23268
 30
0.0
 10
-9.79113
 20
-14.23268
 30
0.0
 10
-9.81484
 20
-14.17722
 30
0.0
 10
-9.81484
 20
-14.17722
 30
0.0
 10
-9.81484
 20
-14.17722
 30
0.0
 10
-9.81484
 20
-14.17722
 30
0.0
 10
-9.81484
 20
-14.25246
 30
0.0
 10
-9.81484
 20
-14.25246
 30
0.0
 10
-9.81484
 20
-14.25246
 30
0.0
 10
-9.81484
 20
-14.25246
 30
0.0
 10
-9.83998
 20
-14.25246
 30
0.0
 10
-9.83998
 20
-14.25246
 30
0.0
 10
-9.83998
 20
-14.25246
 30
0.0
 10
-9.83998
 20
-14.25246
 30
0.0
 10
-9.83998
 20
-14.14959
 30
0.0
 10
-9.83998
 20
-14.14959
 30
0.0
  0
SPLINE
  5
77
330
1F
100
AcDbEntity
  8
Layer 1
 62
   250
100
AcDbSpline
210
0.0
220
0.0
230
1.0
 70
    11
 71
     3
 72
    32
 73
    28
 74
     0
 42
0.0000000001
 43
0.0000000001
 40
0.0
 40
0.0
 40
0.0
 40
0.0
 40
0.1428571428571428
 40
0.1428571428571428
 40
0.1428571428571428
 40
0.1428571428571428
 40
0.2857142857142857
 40
0.2857142857142857
 40
0.2857142857142857
 40
0.2857142857142857
 40
0.4285714285714285
 40
0.4285714285714285
 40
0.4285714285714285
 40
0.4285714285714285
 40
0.5714285714285714
 40
0.5714285714285714
 40
0.5714285714285714
 40
0.5714285714285714
 40
0.7142857142857142
 40
0.7142857142857142
 40
0.7142857142857142
 40
0.7142857142857142
 40
0.857142857142857
 40
0.857142857142857
 40
0.857142857142857
 40
0.857142857142857
 40
1.0
 40
1.0
 40
1.0
 40
1.0
 10
-10.84217
 20
-14.35947
 30
0.0
 10
-10.83662
 20
-14.35947
 30
0.0
 10
-10.83262
 20
-14.35843
 30
0.0
 10
-10.83022
 20
-14.35636
 30
0.0
 10
-10.83022
 20
-14.35636
 30
0.0
 10
-10.8278
 20
-14.35429
 30
0.0
 10
-10.8266
 20
-14.35088
 30
0.0
 10
-10.8266
 20
-14.34615
 30
0.0
 10
-10.8266
 20
-14.34615
 30
0.0
 10
-10.8266
 20
-14.34147
 30
0.0
 10
-10.8278
 20
-14.33811
 30
0.0
 10
-10.83022
 20
-14.33609
 30
0.0
 10
-10.83022
 20
-14.33609
 30
0.0
 10
-10.83262
 20
-14.33407
 30
0.0
 10
-10.83662
 20
-14.33306
 30
0.0
 10
-10.84217
 20
-14.33306
 30
0.0
 10
-10.84217
 20
-14.33306
 30
0.0
 10
-10.84217
 20
-14.33306
 30
0.0
 10
-10.85334
 20
-14.33306
 30
0.0
 10
-10.85334
 20
-14.33306
 30
0.0
 10
-10.85334
 20
-14.33306
 30
0.0
 10
-10.85334
 20
-14.33306
 30
0.0
 10
-10.85334
 20
-14.35947
 30
0.0
 10
-10.85334
 20
-14.35947
 30
0.0
 10
-10.85334
 20
-14.35947
 30
0.0
 10
-10.85334
 20
-14.35947
 30
0.0
 10
-10.84217
 20
-14.35947
 30
0.0
 10
-10.84217
 20
-14.35947
 30
0.0
  0
SPLINE
  5
78
330
1F
100
AcDbEntity
  8
Layer 1
 62
   250
100
AcDbSpline
210
0.0
220
0.0
230
1.0
 70
    11
 71
     3
 72
    68
 73
    64
 74
     0
 42
0.0000000001
 43
0.0000000001
 40
0.0
 40
0.0
 40
0.0
 40
0.0
 40
0.0625
 40
0.0625
 40
0.0625
 40
0.0625
 40
0.125
 40
0.125
 40
0.125
 40
0.125
 40
0.1875
 40
0.1875
 40
0.1875
 40
0.1875
 40
0.25
 40
0.25
 40
0.25
 40
0.25
 40
0.3125
 40
0.3125
 40
0.3125
 40
0.3125
 40
0.375
 40
0.375
 40
0.375
 40
0.375
 40
0.4375
 40
0.4375
 40
0.4375
 40
0.4375
 40
0.5
 40
0.5
 40
0.5
 40
0.5
 40
0.5625
 40
0.5625
 40
0.5625
 40
0.5625
 40
0.625
 40
0.625
 40
0.625
 40
0.625
 40
0.6875
 40
0.6875
 40
0.6875
 40
0.6875
 40
0.75
 40
0.75
 40
0.75
 40
0.75
 40
0.8125
 40
0.8125
 40
0.8125
 40
0.8125
 40
0.875
 40
0.875
 40
0.875
 40
0.875
 40
0.9375
 40
0.9375
 40
0.9375
 40
0.9375
 40
1.0
 40
1.0
 40
1.0
 40
1.0
 10
-10.85334
 20
-14.37779
 30
0.0
 10
-10.85334
 20
-14.37779
 30
0.0
 10
-10.85334
 20
-14.41671
 30
0.0
 10
-10.85334
 20
-14.41671
 30
0.0
 10
-10.85334
 20
-14.41671
 30
0.0
 10
-10.85334
 20
-14.41671
 30
0.0
 10
-10.87987
 20
-14.41671
 30
0.0
 10
-10.87987
 20
-14.41671
 30
0.0
 10
-10.87987
 20
-14.41671
 30
0.0
 10
-10.87987
 20
-14.41671
 30
0.0
 10
-10.87987
 20
-14.31384
 30
0.0
 10
-10.87987
 20
-14.31384
 30
0.0
 10
-10.87987
 20
-14.31384
 30
0.0
 10
-10.87987
 20
-14.31384
 30
0.0
 10
-10.83935
 20
-14.31384
 30
0.0
 10
-10.83935
 20
-14.31384
 30
0.0
 10
-10.83935
 20
-14.31384
 30
0.0
 10
-10.8258
 20
-14.31384
 30
0.0
 10
-10.81585
 20
-14.31612
 30
0.0
 10
-10.80955
 20
-14.32066
 30
0.0
 10
-10.80955
 20
-14.32066
 30
0.0
 10
-10.80323
 20
-14.3252
 30
0.0
 10
-10.80007
 20
-14.3324
 30
0.0
 10
-10.80007
 20
-14.34223
 30
0.0
 10
-10.80007
 20
-14.34223
 30
0.0
 10
-10.80007
 20
-14.34902
 30
0.0
 10
-10.80172
 20
-14.35462
 30
0.0
 10
-10.80499
 20
-14.35897
 30
0.0
 10
-10.80499
 20
-14.35897
 30
0.0
 10
-10.80828
 20
-14.36335
 30
0.0
 10
-10.81324
 20
-14.36657
 30
0.0
 10
-10.81985
 20
-14.36862
 30
0.0
 10
-10.81985
 20
-14.36862
 30
0.0
 10
-10.81623
 20
-14.36946
 30
0.0
 10
-10.81296
 20
-14.37132
 30
0.0
 10
-10.81009
 20
-14.37424
 30
0.0
 10
-10.81009
 20
-14.37424
 30
0.0
 10
-10.80722
 20
-14.37715
 30
0.0
 10
-10.80433
 20
-14.38157
 30
0.0
 10
-10.80139
 20
-14.3875
 30
0.0
 10
-10.80139
 20
-14.3875
 30
0.0
 10
-10.80139
 20
-14.3875
 30
0.0
 10
-10.78697
 20
-14.41671
 30
0.0
 10
-10.78697
 20
-14.41671
 30
0.0
 10
-10.78697
 20
-14.41671
 30
0.0
 10
-10.78697
 20
-14.41671
 30
0.0
 10
-10.81524
 20
-14.41671
 30
0.0
 10
-10.81524
 20
-14.41671
 30
0.0
 10
-10.81524
 20
-14.41671
 30
0.0
 10
-10.81524
 20
-14.41671
 30
0.0
 10
-10.82778
 20
-14.39115
 30
0.0
 10
-10.82778
 20
-14.39115
 30
0.0
 10
-10.82778
 20
-14.39115
 30
0.0
 10
-10.83029
 20
-14.38602
 30
0.0
 10
-10.83286
 20
-14.38249
 30
0.0
 10
-10.83547
 20
-14.38061
 30
0.0
 10
-10.83547
 20
-14.38061
 30
0.0
 10
-10.83806
 20
-14.37873
 30
0.0
 10
-10.84151
 20
-14.37779
 30
0.0
 10
-10.84584
 20
-14.37779
 30
0.0
 10
-10.84584
 20
-14.37779
 30
0.0
 10
-10.84584
 20
-14.37779
 30
0.0
 10
-10.85334
 20
-14.37779
 30
0.0
 10
-10.85334
 20
-14.37779
 30
0.0
  0
SPLINE
  5
79
330
1F
100
AcDbEntity
  8
Layer 1
 62
   250
100
AcDbSpline
210
0.0
220
0.0
230
1.0
 70
    11
 71
     3
 72
    52
 73
    48
 74
     0
 42
0.0000000001
 43
0.0000000001
 40
0.0
 40
0.0
 40
0.0
 40
0.0
 40
0.0833333333333333
 40
0.0833333333333333
 40
0.0833333333333333
 40
0.0833333333333333
 40
0.1666666666666667
 40
0.1666666666666667
 40
0.1666666666666667
 40
0.1666666666666667
 40
0.25
 40
0.25
 40
0.25
 40
0.25
 40
0.3333333333333333
 40
0.3333333333333333
 40
0.3333333333333333
 40
0.3333333333333333
 40
0.4166666666666666
 40
0.4166666666666666
 40
0.4166666666666666
 40
0.4166666666666666
 40
0.4999999999999999
 40
0.4999999999999999
 40
0.4999999999999999
 40
0.4999999999999999
 40
0.5833333333333333
 40
0.5833333333333333
 40
0.5833333333333333
 40
0.5833333333333333
 40
0.6666666666666666
 40
0.6666666666666666
 40
0.6666666666666666
 40
0.6666666666666666
 40
0.75
 40
0.75
 40
0.75
 40
0.75
 40
0.8333333333333334
 40
0.8333333333333334
 40
0.8333333333333334
 40
0.8333333333333334
 40
0.9166666666666667
 40
0.9166666666666667
 40
0.9166666666666667
 40
0.9166666666666667
 40
1.0
 40
1.0
 40
1.0
 40
1.0
 10
-10.77122
 20
-14.31384
 30
0.0
 10
-10.77122
 20
-14.31384
 30
0.0
 10
-10.69963
 20
-14.31384
 30
0.0
 10
-10.69963
 20
-14.31384
 30
0.0
 10
-10.69963
 20
-14.31384
 30
0.0
 10
-10.69963
 20
-14.31384
 30
0.0
 10
-10.69963
 20
-14.3339
 30
0.0
 10
-10.69963
 20
-14.3339
 30
0.0
 10
-10.69963
 20
-14.3339
 30
0.0
 10
-10.69963
 20
-14.3339
 30
0.0
 10
-10.74469
 20
-14.3339
 30
0.0
 10
-10.74469
 20
-14.3339
 30
0.0
 10
-10.74469
 20
-14.3339
 30
0.0
 10
-10.74469
 20
-14.3339
 30
0.0
 10
-10.74469
 20
-14.35305
 30
0.0
 10
-10.74469
 20
-14.35305
 30
0.0
 10
-10.74469
 20
-14.35305
 30
0.0
 10
-10.74469
 20
-14.35305
 30
0.0
 10
-10.70234
 20
-14.35305
 30
0.0
 10
-10.70234
 20
-14.35305
 30
0.0
 10
-10.70234
 20
-14.35305
 30
0.0
 10
-10.70234
 20
-14.35305
 30
0.0
 10
-10.70234
 20
-14.37311
 30
0.0
 10
-10.70234
 20
-14.37311
 30
0.0
 10
-10.70234
 20
-14.37311
 30
0.0
 10
-10.70234
 20
-14.37311
 30
0.0
 10
-10.74469
 20
-14.37311
 30
0.0
 10
-10.74469
 20
-14.37311
 30
0.0
 10
-10.74469
 20
-14.37311
 30
0.0
 10
-10.74469
 20
-14.37311
 30
0.0
 10
-10.74469
 20
-14.39665
 30
0.0
 10
-10.74469
 20
-14.39665
 30
0.0
 10
-10.74469
 20
-14.39665
 30
0.0
 10
-10.74469
 20
-14.39665
 30
0.0
 10
-10.69813
 20
-14.39665
 30
0.0
 10
-10.69813
 20
-14.39665
 30
0.0
 10
-10.69813
 20
-14.39665
 30
0.0
 10
-10.69813
 20
-14.39665
 30
0.0
 10
-10.69813
 20
-14.41671
 30
0.0
 10
-10.69813
 20
-14.41671
 30
0.0
 10
-10.69813
 20
-14.41671
 30
0.0
 10
-10.69813
 20
-14.41671
 30
0.0
 10
-10.77122
 20
-14.41671
 30
0.0
 10
-10.77122
 20
-14.41671
 30
0.0
 10
-10.77122
 20
-14.41671
 30
0.0
 10
-10.77122
 20
-14.41671
 30
0.0
 10
-10.77122
 20
-14.31384
 30
0.0
 10
-10.77122
 20
-14.31384
 30
0.0
  0
SPLINE
  5
7A
330
1F
100
AcDbEntity
  8
Layer 1
 62
   250
100
AcDbSpline
210
0.0
220
0.0
230
1.0
 70
    11
 71
     3
 72
   116
 73
   112
 74
     0
 42
0.0000000001
 43
0.0000000001
 40
0.0
 40
0.0
 40
0.0
 40
0.0
 40
0.0357142857142857
 40
0.0357142857142857
 40
0.0357142857142857
 40
0.0357142857142857
 40
0.0714285714285714
 40
0.0714285714285714
 40
0.0714285714285714
 40
0.0714285714285714
 40
0.1071428571428571
 40
0.1071428571428571
 40
0.1071428571428571
 40
0.1071428571428571
 40
0.1428571428571428
 40
0.1428571428571428
 40
0.1428571428571428
 40
0.1428571428571428
 40
0.1785714285714285
 40
0.1785714285714285
 40
0.1785714285714285
 40
0.1785714285714285
 40
0.2142857142857142
 40
0.2142857142857142
 40
0.2142857142857142
 40
0.2142857142857142
 40
0.2499999999999999
 40
0.2499999999999999
 40
0.2499999999999999
 40
0.2499999999999999
 40
0.2857142857142856
 40
0.2857142857142856
 40
0.2857142857142856
 40
0.2857142857142856
 40
0.3214285714285713
 40
0.3214285714285713
 40
0.3214285714285713
 40
0.3214285714285713
 40
0.357142857142857
 40
0.357142857142857
 40
0.357142857142857
 40
0.357142857142857
 40
0.3928571428571427
 40
0.3928571428571427
 40
0.3928571428571427
 40
0.3928571428571427
 40
0.4285714285714284
 40
0.4285714285714284
 40
0.4285714285714284
 40
0.4285714285714284
 40
0.4642857142857141
 40
0.4642857142857141
 40
0.4642857142857141
 40
0.4642857142857141
 40
0.4999999999999998
 40
0.4999999999999998
 40
0.4999999999999998
 40
0.4999999999999998
 40
0.5357142857142856
 40
0.5357142857142856
 40
0.5357142857142856
 40
0.5357142857142856
 40
0.5714285714285713
 40
0.5714285714285713
 40
0.5714285714285713
 40
0.5714285714285713
 40
0.607142857142857
 40
0.607142857142857
 40
0.607142857142857
 40
0.607142857142857
 40
0.6428571428571427
 40
0.6428571428571427
 40
0.6428571428571427
 40
0.6428571428571427
 40
0.6785714285714284
 40
0.6785714285714284
 40
0.6785714285714284
 40
0.6785714285714284
 40
0.7142857142857141
 40
0.7142857142857141
 40
0.7142857142857141
 40
0.7142857142857141
 40
0.7499999999999998
 40
0.7499999999999998
 40
0.7499999999999998
 40
0.7499999999999998
 40
0.7857142857142855
 40
0.7857142857142855
 40
0.7857142857142855
 40
0.7857142857142855
 40
0.8214285714285712
 40
0.8214285714285712
 40
0.8214285714285712
 40
0.8214285714285712
 40
0.8571428571428569
 40
0.8571428571428569
 40
0.8571428571428569
 40
0.8571428571428569
 40
0.8928571428571426
 40
0.8928571428571426
 40
0.8928571428571426
 40
0.8928571428571426
 40
0.9285714285714283
 40
0.9285714285714283
 40
0.9285714285714283
 40
0.9285714285714283
 40
0.964285714285714
 40
0.964285714285714
 40
0.964285714285714
 40
0.964285714285714
 40
1.0
 40
1.0
 40
1.0
 40
1.0
 10
-10.60323
 20
-14.31709
 30
0.0
 10
-10.60323
 20
-14.31709
 30
0.0
 10
-10.60323
 20
-14.33884
 30
0.0
 10
-10.60323
 20
-14.33884
 30
0.0
 10
-10.60323
 20
-14.33884
 30
0.0
 10
-10.60888
 20
-14.33632
 30
0.0
 10
-10.6144
 20
-14.33442
 30
0.0
 10
-10.61976
 20
-14.33313
 30
0.0
 10
-10.61976
 20
-14.33313
 30
0.0
 10
-10.62515
 20
-14.33183
 30
0.0
 10
-10.63023
 20
-14.3312
 30
0.0
 10
-10.635
 20
-14.3312
 30
0.0
 10
-10.635
 20
-14.3312
 30
0.0
 10
-10.64133
 20
-14.3312
 30
0.0
 10
-10.64603
 20
-14.33207
 30
0.0
 10
-10.64907
 20
-14.33381
 30
0.0
 10
-10.64907
 20
-14.33381
 30
0.0
 10
-10.6521
 20
-14.33557
 30
0.0
 10
-10.65361
 20
-14.33828
 30
0.0
 10
-10.65361
 20
-14.34195
 30
0.0
 10
-10.65361
 20
-14.34195
 30
0.0
 10
-10.65361
 20
-14.3447
 30
0.0
 10
-10.6526
 20
-14.34686
 30
0.0
 10
-10.65055
 20
-14.34839
 30
0.0
 10
-10.65055
 20
-14.34839
 30
0.0
 10
-10.6485
 20
-14.34992
 30
0.0
 10
-10.64479
 20
-14.35126
 30
0.0
 10
-10.6394
 20
-14.35236
 30
0.0
 10
-10.6394
 20
-14.35236
 30
0.0
 10
-10.6394
 20
-14.35236
 30
0.0
 10
-10.62811
 20
-14.35462
 30
0.0
 10
-10.62811
 20
-14.35462
 30
0.0
 10
-10.62811
 20
-14.35462
 30
0.0
 10
-10.61666
 20
-14.35693
 30
0.0
 10
-10.60855
 20
-14.36041
 30
0.0
 10
-10.60373
 20
-14.36511
 30
0.0
 10
-10.60373
 20
-14.36511
 30
0.0
 10
-10.5989
 20
-14.36979
 30
0.0
 10
-10.59648
 20
-14.37645
 30
0.0
 10
-10.59648
 20
-14.38508
 30
0.0
 10
-10.59648
 20
-14.38508
 30
0.0
 10
-10.59648
 20
-14.39644
 30
0.0
 10
-10.59984
 20
-14.40488
 30
0.0
 10
-10.60657
 20
-14.41041
 30
0.0
 10
-10.60657
 20
-14.41041
 30
0.0
 10
-10.6133
 20
-14.41593
 30
0.0
 10
-10.62357
 20
-14.41871
 30
0.0
 10
-10.6374
 20
-14.41871
 30
0.0
 10
-10.6374
 20
-14.41871
 30
0.0
 10
-10.64394
 20
-14.41871
 30
0.0
 10
-10.65048
 20
-14.4181
 30
0.0
 10
-10.65704
 20
-14.41685
 30
0.0
 10
-10.65704
 20
-14.41685
 30
0.0
 10
-10.6636
 20
-14.4156
 30
0.0
 10
-10.67019
 20
-14.41377
 30
0.0
 10
-10.67675
 20
-14.41135
 30
0.0
 10
-10.67675
 20
-14.41135
 30
0.0
 10
-10.67675
 20
-14.41135
 30
0.0
 10
-10.67675
 20
-14.38896
 30
0.0
 10
-10.67675
 20
-14.38896
 30
0.0
 10
-10.67675
 20
-14.38896
 30
0.0
 10
-10.67019
 20
-14.39244
 30
0.0
 10
-10.66384
 20
-14.39507
 30
0.0
 10
-10.6577
 20
-14.39684
 30
0.0
 10
-10.6577
 20
-14.39684
 30
0.0
 10
-10.65156
 20
-14.3986
 30
0.0
 10
-10.64566
 20
-14.39949
 30
0.0
 10
-10.63997
 20
-14.39949
 30
0.0
 10
-10.63997
 20
-14.39949
 30
0.0
 10
-10.63418
 20
-14.39949
 30
0.0
 10
-10.62974
 20
-14.39853
 30
0.0
 10
-10.62666
 20
-14.3966
 30
0.0
 10
-10.62666
 20
-14.3966
 30
0.0
 10
-10.62357
 20
-14.39467
 30
0.0
 10
-10.62205
 20
-14.39192
 30
0.0
 10
-10.62205
 20
-14.38832
 30
0.0
 10
-10.62205
 20
-14.38832
 30
0.0
 10
-10.62205
 20
-14.38512
 30
0.0
 10
-10.62308
 20
-14.38263
 30
0.0
 10
-10.62517
 20
-14.38089
 30
0.0
 10
-10.62517
 20
-14.38089
 30
0.0
 10
-10.62727
 20
-14.37915
 30
0.0
 10
-10.63143
 20
-14.37758
 30
0.0
 10
-10.63769
 20
-14.37621
 30
0.0
 10
-10.63769
 20
-14.37621
 30
0.0
 10
-10.63769
 20
-14.37621
 30
0.0
 10
-10.64796
 20
-14.37393
 30
0.0
 10
-10.64796
 20
-14.37393
 30
0.0
 10
-10.64796
 20
-14.37393
 30
0.0
 10
-10.65824
 20
-14.37172
 30
0.0
 10
-10.66577
 20
-14.36822
 30
0.0
 10
-10.67052
 20
-14.36339
 30
0.0
 10
-10.67052
 20
-14.36339
 30
0.0
 10
-10.67527
 20
-14.35857
 30
0.0
 10
-10.67764
 20
-14.35206
 30
0.0
 10
-10.67764
 20
-14.3439
 30
0.0
 10
-10.67764
 20
-14.3439
 30
0.0
 10
-10.67764
 20
-14.33364
 30
0.0
 10
-10.67433
 20
-14.32576
 30
0.0
 10
-10.66772
 20
-14.32026
 30
0.0
 10
-10.66772
 20
-14.32026
 30
0.0
 10
-10.66111
 20
-14.31473
 30
0.0
 10
-10.65161
 20
-14.31198
 30
0.0
 10
-10.63919
 20
-14.31198
 30
0.0
 10
-10.63919
 20
-14.31198
 30
0.0
 10
-10.63355
 20
-14.31198
 30
0.0
 10
-10.62774
 20
-14.31241
 30
0.0
 10
-10.62176
 20
-14.31325
 30
0.0
 10
-10.62176
 20
-14.31325
 30
0.0
 10
-10.61579
 20
-14.3141
 30
0.0
 10
-10.60961
 20
-14.31537
 30
0.0
 10
-10.60323
 20
-14.31709
 30
0.0
  0
SPLINE
  5
7B
330
1F
100
AcDbEntity
  8
Layer 1
 62
   250
100
AcDbSpline
210
0.0
220
0.0
230
1.0
 70
    11
 71
     3
 72
    20
 73
    16
 74
     0
 42
0.0000000001
 43
0.0000000001
 40
0.0
 40
0.0
 40
0.0
 40
0.0
 40
0.25
 40
0.25
 40
0.25
 40
0.25
 40
0.5
 40
0.5
 40
0.5
 40
0.5
 40
0.75
 40
0.75
 40
0.75
 40
0.75
 40
1.0
 40
1.0
 40
1.0
 40
1.0
 10
-10.5732
 20
-14.31384
 30
0.0
 10
-10.5732
 20
-14.31384
 30
0.0
 10
-10.54667
 20
-14.31384
 30
0.0
 10
-10.54667
 20
-14.31384
 30
0.0
 10
-10.54667
 20
-14.31384
 30
0.0
 10
-10.54667
 20
-14.31384
 30
0.0
 10
-10.54667
 20
-14.41671
 30
0.0
 10
-10.54667
 20
-14.41671
 30
0.0
 10
-10.54667
 20
-14.41671
 30
0.0
 10
-10.54667
 20
-14.41671
 30
0.0
 10
-10.5732
 20
-14.41671
 30
0.0
 10
-10.5732
 20
-14.41671
 30
0.0
 10
-10.5732
 20
-14.41671
 30
0.0
 10
-10.5732
 20
-14.41671
 30
0.0
 10
-10.5732
 20
-14.31384
 30
0.0
 10
-10.5732
 20
-14.31384
 30
0.0
  0
SPLINE
  5
7C
330
1F
100
AcDbEntity
  8
Layer 1
 62
   250
100
AcDbSpline
210
0.0
220
0.0
230
1.0
 70
    11
 71
     3
 72
   116
 73
   112
 74
     0
 42
0.0000000001
 43
0.0000000001
 40
0.0
 40
0.0
 40
0.0
 40
0.0
 40
0.0357142857142857
 40
0.0357142857142857
 40
0.0357142857142857
 40
0.0357142857142857
 40
0.0714285714285714
 40
0.0714285714285714
 40
0.0714285714285714
 40
0.0714285714285714
 40
0.1071428571428571
 40
0.1071428571428571
 40
0.1071428571428571
 40
0.1071428571428571
 40
0.1428571428571428
 40
0.1428571428571428
 40
0.1428571428571428
 40
0.1428571428571428
 40
0.1785714285714285
 40
0.1785714285714285
 40
0.1785714285714285
 40
0.1785714285714285
 40
0.2142857142857142
 40
0.2142857142857142
 40
0.2142857142857142
 40
0.2142857142857142
 40
0.2499999999999999
 40
0.2499999999999999
 40
0.2499999999999999
 40
0.2499999999999999
 40
0.2857142857142856
 40
0.2857142857142856
 40
0.2857142857142856
 40
0.2857142857142856
 40
0.3214285714285713
 40
0.3214285714285713
 40
0.3214285714285713
 40
0.3214285714285713
 40
0.357142857142857
 40
0.357142857142857
 40
0.357142857142857
 40
0.357142857142857
 40
0.3928571428571427
 40
0.3928571428571427
 40
0.3928571428571427
 40
0.3928571428571427
 40
0.4285714285714284
 40
0.4285714285714284
 40
0.4285714285714284
 40
0.4285714285714284
 40
0.4642857142857141
 40
0.4642857142857141
 40
0.4642857142857141
 40
0.4642857142857141
 40
0.4999999999999998
 40
0.4999999999999998
 40
0.4999999999999998
 40
0.4999999999999998
 40
0.5357142857142856
 40
0.5357142857142856
 40
0.5357142857142856
 40
0.5357142857142856
 40
0.5714285714285713
 40
0.5714285714285713
 40
0.5714285714285713
 40
0.5714285714285713
 40
0.607142857142857
 40
0.607142857142857
 40
0.607142857142857
 40
0.607142857142857
 40
0.6428571428571427
 40
0.6428571428571427
 40
0.6428571428571427
 40
0.6428571428571427
 40
0.6785714285714284
 40
0.6785714285714284
 40
0.6785714285714284
 40
0.6785714285714284
 40
0.7142857142857141
 40
0.7142857142857141
 40
0.7142857142857141
 40
0.7142857142857141
 40
0.7499999999999998
 40
0.7499999999999998
 40
0.7499999999999998
 40
0.7499999999999998
 40
0.7857142857142855
 40
0.7857142857142855
 40
0.7857142857142855
 40
0.7857142857142855
 40
0.8214285714285712
 40
0.8214285714285712
 40
0.8214285714285712
 40
0.8214285714285712
 40
0.8571428571428569
 40
0.8571428571428569
 40
0.8571428571428569
 40
0.8571428571428569
 40
0.8928571428571426
 40
0.8928571428571426
 40
0.8928571428571426
 40
0.8928571428571426
 40
0.9285714285714283
 40
0.9285714285714283
 40
0.9285714285714283
 40
0.9285714285714283
 40
0.964285714285714
 40
0.964285714285714
 40
0.964285714285714
 40
0.964285714285714
 40
1.0
 40
1.0
 40
1.0
 40
1.0
 10
-10.44912
 20
-14.31709
 30
0.0
 10
-10.44912
 20
-14.31709
 30
0.0
 10
-10.44912
 20
-14.33884
 30
0.0
 10
-10.44912
 20
-14.33884
 30
0.0
 10
-10.44912
 20
-14.33884
 30
0.0
 10
-10.45477
 20
-14.33632
 30
0.0
 10
-10.46029
 20
-14.33442
 30
0.0
 10
-10.46565
 20
-14.33313
 30
0.0
 10
-10.46565
 20
-14.33313
 30
0.0
 10
-10.47104
 20
-14.33183
 30
0.0
 10
-10.47612
 20
-14.3312
 30
0.0
 10
-10.48089
 20
-14.3312
 30
0.0
 10
-10.48089
 20
-14.3312
 30
0.0
 10
-10.48722
 20
-14.3312
 30
0.0
 10
-10.49192
 20
-14.33207
 30
0.0
 10
-10.49496
 20
-14.33381
 30
0.0
 10
-10.49496
 20
-14.33381
 30
0.0
 10
-10.49799
 20
-14.33557
 30
0.0
 10
-10.4995
 20
-14.33828
 30
0.0
 10
-10.4995
 20
-14.34195
 30
0.0
 10
-10.4995
 20
-14.34195
 30
0.0
 10
-10.4995
 20
-14.3447
 30
0.0
 10
-10.49849
 20
-14.34686
 30
0.0
 10
-10.49644
 20
-14.34839
 30
0.0
 10
-10.49644
 20
-14.34839
 30
0.0
 10
-10.49439
 20
-14.34992
 30
0.0
 10
-10.49068
 20
-14.35126
 30
0.0
 10
-10.48529
 20
-14.35236
 30
0.0
 10
-10.48529
 20
-14.35236
 30
0.0
 10
-10.48529
 20
-14.35236
 30
0.0
 10
-10.474
 20
-14.35462
 30
0.0
 10
-10.474
 20
-14.35462
 30
0.0
 10
-10.474
 20
-14.35462
 30
0.0
 10
-10.46255
 20
-14.35693
 30
0.0
 10
-10.45444
 20
-14.36041
 30
0.0
 10
-10.44962
 20
-14.36511
 30
0.0
 10
-10.44962
 20
-14.36511
 30
0.0
 10
-10.44479
 20
-14.36979
 30
0.0
 10
-10.44237
 20
-14.37645
 30
0.0
 10
-10.44237
 20
-14.38508
 30
0.0
 10
-10.44237
 20
-14.38508
 30
0.0
 10
-10.44237
 20
-14.39644
 30
0.0
 10
-10.44573
 20
-14.40488
 30
0.0
 10
-10.45246
 20
-14.41041
 30
0.0
 10
-10.45246
 20
-14.41041
 30
0.0
 10
-10.45919
 20
-14.41593
 30
0.0
 10
-10.46946
 20
-14.41871
 30
0.0
 10
-10.48329
 20
-14.41871
 30
0.0
 10
-10.48329
 20
-14.41871
 30
0.0
 10
-10.48983
 20
-14.41871
 30
0.0
 10
-10.49637
 20
-14.4181
 30
0.0
 10
-10.50293
 20
-14.41685
 30
0.0
 10
-10.50293
 20
-14.41685
 30
0.0
 10
-10.50949
 20
-14.4156
 30
0.0
 10
-10.51608
 20
-14.41377
 30
0.0
 10
-10.52264
 20
-14.41135
 30
0.0
 10
-10.52264
 20
-14.41135
 30
0.0
 10
-10.52264
 20
-14.41135
 30
0.0
 10
-10.52264
 20
-14.38896
 30
0.0
 10
-10.52264
 20
-14.38896
 30
0.0
 10
-10.52264
 20
-14.38896
 30
0.0
 10
-10.51608
 20
-14.39244
 30
0.0
 10
-10.50973
 20
-14.39507
 30
0.0
 10
-10.50359
 20
-14.39684
 30
0.0
 10
-10.50359
 20
-14.39684
 30
0.0
 10
-10.49745
 20
-14.3986
 30
0.0
 10
-10.49155
 20
-14.39949
 30
0.0
 10
-10.48586
 20
-14.39949
 30
0.0
 10
-10.48586
 20
-14.39949
 30
0.0
 10
-10.48007
 20
-14.39949
 30
0.0
 10
-10.47563
 20
-14.39853
 30
0.0
 10
-10.47255
 20
-14.3966
 30
0.0
 10
-10.47255
 20
-14.3966
 30
0.0
 10
-10.46946
 20
-14.39467
 30
0.0
 10
-10.46794
 20
-14.39192
 30
0.0
 10
-10.46794
 20
-14.38832
 30
0.0
 10
-10.46794
 20
-14.38832
 30
0.0
 10
-10.46794
 20
-14.38512
 30
0.0
 10
-10.46897
 20
-14.38263
 30
0.0
 10
-10.47106
 20
-14.38089
 30
0.0
 10
-10.47106
 20
-14.38089
 30
0.0
 10
-10.47316
 20
-14.37915
 30
0.0
 10
-10.47732
 20
-14.37758
 30
0.0
 10
-10.48358
 20
-14.37621
 30
0.0
 10
-10.48358
 20
-14.37621
 30
0.0
 10
-10.48358
 20
-14.37621
 30
0.0
 10
-10.49385
 20
-14.37393
 30
0.0
 10
-10.49385
 20
-14.37393
 30
0.0
 10
-10.49385
 20
-14.37393
 30
0.0
 10
-10.50413
 20
-14.37172
 30
0.0
 10
-10.51166
 20
-14.36822
 30
0.0
 10
-10.51641
 20
-14.36339
 30
0.0
 10
-10.51641
 20
-14.36339
 30
0.0
 10
-10.52116
 20
-14.35857
 30
0.0
 10
-10.52353
 20
-14.35206
 30
0.0
 10
-10.52353
 20
-14.3439
 30
0.0
 10
-10.52353
 20
-14.3439
 30
0.0
 10
-10.52353
 20
-14.33364
 30
0.0
 10
-10.52022
 20
-14.32576
 30
0.0
 10
-10.51361
 20
-14.32026
 30
0.0
 10
-10.51361
 20
-14.32026
 30
0.0
 10
-10.507
 20
-14.31473
 30
0.0
 10
-10.4975
 20
-14.31198
 30
0.0
 10
-10.48508
 20
-14.31198
 30
0.0
 10
-10.48508
 20
-14.31198
 30
0.0
 10
-10.47944
 20
-14.31198
 30
0.0
 10
-10.47363
 20
-14.31241
 30
0.0
 10
-10.46765
 20
-14.31325
 30
0.0
 10
-10.46765
 20
-14.31325
 30
0.0
 10
-10.46168
 20
-14.3141
 30
0.0
 10
-10.4555
 20
-14.31537
 30
0.0
 10
-10.44912
 20
-14.31709
 30
0.0
  0
SPLINE
  5
7D
330
1F
100
AcDbEntity
  8
Layer 1
 62
   250
100
AcDbSpline
210
0.0
220
0.0
230
1.0
 70
    11
 71
     3
 72
    36
 73
    32
 74
     0
 42
0.0000000001
 43
0.0000000001
 40
0.0
 40
0.0
 40
0.0
 40
0.0
 40
0.125
 40
0.125
 40
0.125
 40
0.125
 40
0.25
 40
0.25
 40
0.25
 40
0.25
 40
0.375
 40
0.375
 40
0.375
 40
0.375
 40
0.5
 40
0.5
 40
0.5
 40
0.5
 40
0.625
 40
0.625
 40
0.625
 40
0.625
 40
0.75
 40
0.75
 40
0.75
 40
0.75
 40
0.875
 40
0.875
 40
0.875
 40
0.875
 40
1.0
 40
1.0
 40
1.0
 40
1.0
 10
-10.43137
 20
-14.31384
 30
0.0
 10
-10.43137
 20
-14.31384
 30
0.0
 10
-10.33657
 20
-14.31384
 30
0.0
 10
-10.33657
 20
-14.31384
 30
0.0
 10
-10.33657
 20
-14.31384
 30
0.0
 10
-10.33657
 20
-14.31384
 30
0.0
 10
-10.33657
 20
-14.3339
 30
0.0
 10
-10.33657
 20
-14.3339
 30
0.0
 10
-10.33657
 20
-14.3339
 30
0.0
 10
-10.33657
 20
-14.3339
 30
0.0
 10
-10.37067
 20
-14.3339
 30
0.0
 10
-10.37067
 20
-14.3339
 30
0.0
 10
-10.37067
 20
-14.3339
 30
0.0
 10
-10.37067
 20
-14.3339
 30
0.0
 10
-10.37067
 20
-14.41671
 30
0.0
 10
-10.37067
 20
-14.41671
 30
0.0
 10
-10.37067
 20
-14.41671
 30
0.0
 10
-10.37067
 20
-14.41671
 30
0.0
 10
-10.3972
 20
-14.41671
 30
0.0
 10
-10.3972
 20
-14.41671
 30
0.0
 10
-10.3972
 20
-14.41671
 30
0.0
 10
-10.3972
 20
-14.41671
 30
0.0
 10
-10.3972
 20
-14.3339
 30
0.0
 10
-10.3972
 20
-14.3339
 30
0.0
 10
-10.3972
 20
-14.3339
 30
0.0
 10
-10.3972
 20
-14.3339
 30
0.0
 10
-10.43137
 20
-14.3339
 30
0.0
 10
-10.43137
 20
-14.3339
 30
0.0
 10
-10.43137
 20
-14.3339
 30
0.0
 10
-10.43137
 20
-14.3339
 30
0.0
 10
-10.43137
 20
-14.31384
 30
0.0
 10
-10.43137
 20
-14.31384
 30
0.0
  0
SPLINE
  5
7E
330
1F
100
AcDbEntity
  8
Layer 1
 62
   250
100
AcDbSpline
210
0.0
220
0.0
230
1.0
 70
    11
 71
     3
 72
    36
 73
    32
 74
     0
 42
0.0000000001
 43
0.0000000001
 40
0.0
 40
0.0
 40
0.0
 40
0.0
 40
0.125
 40
0.125
 40
0.125
 40
0.125
 40
0.25
 40
0.25
 40
0.25
 40
0.25
 40
0.375
 40
0.375
 40
0.375
 40
0.375
 40
0.5
 40
0.5
 40
0.5
 40
0.5
 40
0.625
 40
0.625
 40
0.625
 40
0.625
 40
0.75
 40
0.75
 40
0.75
 40
0.75
 40
0.875
 40
0.875
 40
0.875
 40
0.875
 40
1.0
 40
1.0
 40
1.0
 40
1.0
 10
-10.27584
 20
-14.3312
 30
0.0
 10
-10.28393
 20
-14.3312
 30
0.0
 10
-10.29019
 20
-14.33418
 30
0.0
 10
-10.29466
 20
-14.34016
 30
0.0
 10
-10.29466
 20
-14.34016
 30
0.0
 10
-10.2991
 20
-14.34613
 30
0.0
 10
-10.30134
 20
-14.35453
 30
0.0
 10
-10.30134
 20
-14.36537
 30
0.0
 10
-10.30134
 20
-14.36537
 30
0.0
 10
-10.30134
 20
-14.37619
 30
0.0
 10
-10.2991
 20
-14.38456
 30
0.0
 10
-10.29466
 20
-14.39053
 30
0.0
 10
-10.29466
 20
-14.39053
 30
0.0
 10
-10.29019
 20
-14.39651
 30
0.0
 10
-10.28393
 20
-14.39949
 30
0.0
 10
-10.27584
 20
-14.39949
 30
0.0
 10
-10.27584
 20
-14.39949
 30
0.0
 10
-10.2677
 20
-14.39949
 30
0.0
 10
-10.26143
 20
-14.39651
 30
0.0
 10
-10.25696
 20
-14.39053
 30
0.0
 10
-10.25696
 20
-14.39053
 30
0.0
 10
-10.25251
 20
-14.38456
 30
0.0
 10
-10.25028
 20
-14.37619
 30
0.0
 10
-10.25028
 20
-14.36537
 30
0.0
 10
-10.25028
 20
-14.36537
 30
0.0
 10
-10.25028
 20
-14.35453
 30
0.0
 10
-10.25251
 20
-14.34613
 30
0.0
 10
-10.25696
 20
-14.34016
 30
0.0
 10
-10.25696
 20
-14.34016
 30
0.0
 10
-10.26143
 20
-14.33418
 30
0.0
 10
-10.2677
 20
-14.3312
 30
0.0
 10
-10.27584
 20
-14.3312
 30
0.0
  0
SPLINE
  5
7F
330
1F
100
AcDbEntity
  8
Layer 1
 62
   250
100
AcDbSpline
210
0.0
220
0.0
230
1.0
 70
    11
 71
     3
 72
    36
 73
    32
 74
     0
 42
0.0000000001
 43
0.0000000001
 40
0.0
 40
0.0
 40
0.0
 40
0.0
 40
0.125
 40
0.125
 40
0.125
 40
0.125
 40
0.25
 40
0.25
 40
0.25
 40
0.25
 40
0.375
 40
0.375
 40
0.375
 40
0.375
 40
0.5
 40
0.5
 40
0.5
 40
0.5
 40
0.625
 40
0.625
 40
0.625
 40
0.625
 40
0.75
 40
0.75
 40
0.75
 40
0.75
 40
0.875
 40
0.875
 40
0.875
 40
0.875
 40
1.0
 40
1.0
 40
1.0
 40
1.0
 10
-10.27584
 20
-14.31198
 30
0.0
 10
-10.25931
 20
-14.31198
 30
0.0
 10
-10.24635
 20
-14.31671
 30
0.0
 10
-10.23699
 20
-14.32619
 30
0.0
 10
-10.23699
 20
-14.32619
 30
0.0
 10
-10.22761
 20
-14.33564
 30
0.0
 10
-10.22293
 20
-14.34869
 30
0.0
 10
-10.22293
 20
-14.36537
 30
0.0
 10
-10.22293
 20
-14.36537
 30
0.0
 10
-10.22293
 20
-14.382
 30
0.0
 10
-10.22761
 20
-14.39505
 30
0.0
 10
-10.23699
 20
-14.4045
 30
0.0
 10
-10.23699
 20
-14.4045
 30
0.0
 10
-10.24635
 20
-14.41398
 30
0.0
 10
-10.25931
 20
-14.41871
 30
0.0
 10
-10.27584
 20
-14.41871
 30
0.0
 10
-10.27584
 20
-14.41871
 30
0.0
 10
-10.29233
 20
-14.41871
 30
0.0
 10
-10.30526
 20
-14.41398
 30
0.0
 10
-10.31467
 20
-14.4045
 30
0.0
 10
-10.31467
 20
-14.4045
 30
0.0
 10
-10.32405
 20
-14.39505
 30
0.0
 10
-10.32876
 20
-14.382
 30
0.0
 10
-10.32876
 20
-14.36537
 30
0.0
 10
-10.32876
 20
-14.36537
 30
0.0
 10
-10.32876
 20
-14.34869
 30
0.0
 10
-10.32405
 20
-14.33564
 30
0.0
 10
-10.31467
 20
-14.32619
 30
0.0
 10
-10.31467
 20
-14.32619
 30
0.0
 10
-10.30526
 20
-14.31671
 30
0.0
 10
-10.29233
 20
-14.31198
 30
0.0
 10
-10.27584
 20
-14.31198
 30
0.0
  0
SPLINE
  5
80
330
1F
100
AcDbEntity
  8
Layer 1
 62
   250
100
AcDbSpline
210
0.0
220
0.0
230
1.0
 70
    11
 71
     3
 72
    32
 73
    28
 74
     0
 42
0.0000000001
 43
0.0000000001
 40
0.0
 40
0.0
 40
0.0
 40
0.0
 40
0.1428571428571428
 40
0.1428571428571428
 40
0.1428571428571428
 40
0.1428571428571428
 40
0.2857142857142857
 40
0.2857142857142857
 40
0.2857142857142857
 40
0.2857142857142857
 40
0.4285714285714285
 40
0.4285714285714285
 40
0.4285714285714285
 40
0.4285714285714285
 40
0.5714285714285714
 40
0.5714285714285714
 40
0.5714285714285714
 40
0.5714285714285714
 40
0.7142857142857142
 40
0.7142857142857142
 40
0.7142857142857142
 40
0.7142857142857142
 40
0.857142857142857
 40
0.857142857142857
 40
0.857142857142857
 40
0.857142857142857
 40
1.0
 40
1.0
 40
1.0
 40
1.0
 10
-10.16516
 20
-14.35947
 30
0.0
 10
-10.15961
 20
-14.35947
 30
0.0
 10
-10.15561
 20
-14.35843
 30
0.0
 10
-10.15321
 20
-14.35636
 30
0.0
 10
-10.15321
 20
-14.35636
 30
0.0
 10
-10.15079
 20
-14.35429
 30
0.0
 10
-10.14959
 20
-14.35088
 30
0.0
 10
-10.14959
 20
-14.34615
 30
0.0
 10
-10.14959
 20
-14.34615
 30
0.0
 10
-10.14959
 20
-14.34147
 30
0.0
 10
-10.15079
 20
-14.33811
 30
0.0
 10
-10.15321
 20
-14.33609
 30
0.0
 10
-10.15321
 20
-14.33609
 30
0.0
 10
-10.15561
 20
-14.33407
 30
0.0
 10
-10.15961
 20
-14.33306
 30
0.0
 10
-10.16516
 20
-14.33306
 30
0.0
 10
-10.16516
 20
-14.33306
 30
0.0
 10
-10.16516
 20
-14.33306
 30
0.0
 10
-10.17633
 20
-14.33306
 30
0.0
 10
-10.17633
 20
-14.33306
 30
0.0
 10
-10.17633
 20
-14.33306
 30
0.0
 10
-10.17633
 20
-14.33306
 30
0.0
 10
-10.17633
 20
-14.35947
 30
0.0
 10
-10.17633
 20
-14.35947
 30
0.0
 10
-10.17633
 20
-14.35947
 30
0.0
 10
-10.17633
 20
-14.35947
 30
0.0
 10
-10.16516
 20
-14.35947
 30
0.0
 10
-10.16516
 20
-14.35947
 30
0.0
  0
SPLINE
  5
81
330
1F
100
AcDbEntity
  8
Layer 1
 62
   250
100
AcDbSpline
210
0.0
220
0.0
230
1.0
 70
    11
 71
     3
 72
    68
 73
    64
 74
     0
 42
0.0000000001
 43
0.0000000001
 40
0.0
 40
0.0
 40
0.0
 40
0.0
 40
0.0625
 40
0.0625
 40
0.0625
 40
0.0625
 40
0.125
 40
0.125
 40
0.125
 40
0.125
 40
0.1875
 40
0.1875
 40
0.1875
 40
0.1875
 40
0.25
 40
0.25
 40
0.25
 40
0.25
 40
0.3125
 40
0.3125
 40
0.3125
 40
0.3125
 40
0.375
 40
0.375
 40
0.375
 40
0.375
 40
0.4375
 40
0.4375
 40
0.4375
 40
0.4375
 40
0.5
 40
0.5
 40
0.5
 40
0.5
 40
0.5625
 40
0.5625
 40
0.5625
 40
0.5625
 40
0.625
 40
0.625
 40
0.625
 40
0.625
 40
0.6875
 40
0.6875
 40
0.6875
 40
0.6875
 40
0.75
 40
0.75
 40
0.75
 40
0.75
 40
0.8125
 40
0.8125
 40
0.8125
 40
0.8125
 40
0.875
 40
0.875
 40
0.875
 40
0.875
 40
0.9375
 40
0.9375
 40
0.9375
 40
0.9375
 40
1.0
 40
1.0
 40
1.0
 40
1.0
 10
-10.17633
 20
-14.37779
 30
0.0
 10
-10.17633
 20
-14.37779
 30
0.0
 10
-10.17633
 20
-14.41671
 30
0.0
 10
-10.17633
 20
-14.41671
 30
0.0
 10
-10.17633
 20
-14.41671
 30
0.0
 10
-10.17633
 20
-14.41671
 30
0.0
 10
-10.20286
 20
-14.41671
 30
0.0
 10
-10.20286
 20
-14.41671
 30
0.0
 10
-10.20286
 20
-14.41671
 30
0.0
 10
-10.20286
 20
-14.41671
 30
0.0
 10
-10.20286
 20
-14.31384
 30
0.0
 10
-10.20286
 20
-14.31384
 30
0.0
 10
-10.20286
 20
-14.31384
 30
0.0
 10
-10.20286
 20
-14.31384
 30
0.0
 10
-10.16234
 20
-14.31384
 30
0.0
 10
-10.16234
 20
-14.31384
 30
0.0
 10
-10.16234
 20
-14.31384
 30
0.0
 10
-10.14879
 20
-14.31384
 30
0.0
 10
-10.13884
 20
-14.31612
 30
0.0
 10
-10.13254
 20
-14.32066
 30
0.0
 10
-10.13254
 20
-14.32066
 30
0.0
 10
-10.12622
 20
-14.3252
 30
0.0
 10
-10.12306
 20
-14.3324
 30
0.0
 10
-10.12306
 20
-14.34223
 30
0.0
 10
-10.12306
 20
-14.34223
 30
0.0
 10
-10.12306
 20
-14.34902
 30
0.0
 10
-10.12471
 20
-14.35462
 30
0.0
 10
-10.12798
 20
-14.35897
 30
0.0
 10
-10.12798
 20
-14.35897
 30
0.0
 10
-10.13127
 20
-14.36335
 30
0.0
 10
-10.13623
 20
-14.36657
 30
0.0
 10
-10.14284
 20
-14.36862
 30
0.0
 10
-10.14284
 20
-14.36862
 30
0.0
 10
-10.13922
 20
-14.36946
 30
0.0
 10
-10.13595
 20
-14.37132
 30
0.0
 10
-10.13308
 20
-14.37424
 30
0.0
 10
-10.13308
 20
-14.37424
 30
0.0
 10
-10.13021
 20
-14.37715
 30
0.0
 10
-10.12732
 20
-14.38157
 30
0.0
 10
-10.12438
 20
-14.3875
 30
0.0
 10
-10.12438
 20
-14.3875
 30
0.0
 10
-10.12438
 20
-14.3875
 30
0.0
 10
-10.10996
 20
-14.41671
 30
0.0
 10
-10.10996
 20
-14.41671
 30
0.0
 10
-10.10996
 20
-14.41671
 30
0.0
 10
-10.10996
 20
-14.41671
 30
0.0
 10
-10.13823
 20
-14.41671
 30
0.0
 10
-10.13823
 20
-14.41671
 30
0.0
 10
-10.13823
 20
-14.41671
 30
0.0
 10
-10.13823
 20
-14.41671
 30
0.0
 10
-10.15077
 20
-14.39115
 30
0.0
 10
-10.15077
 20
-14.39115
 30
0.0
 10
-10.15077
 20
-14.39115
 30
0.0
 10
-10.15328
 20
-14.38602
 30
0.0
 10
-10.15585
 20
-14.38249
 30
0.0
 10
-10.15846
 20
-14.38061
 30
0.0
 10
-10.15846
 20
-14.38061
 30
0.0
 10
-10.16105
 20
-14.37873
 30
0.0
 10
-10.1645
 20
-14.37779
 30
0.0
 10
-10.16883
 20
-14.37779
 30
0.0
 10
-10.16883
 20
-14.37779
 30
0.0
 10
-10.16883
 20
-14.37779
 30
0.0
 10
-10.17633
 20
-14.37779
 30
0.0
 10
-10.17633
 20
-14.37779
 30
0.0
  0
SPLINE
  5
82
330
1F
100
AcDbEntity
  8
Layer 1
 62
   250
100
AcDbSpline
210
0.0
220
0.0
230
1.0
 70
    11
 71
     3
 72
    36
 73
    32
 74
     0
 42
0.0000000001
 43
0.0000000001
 40
0.0
 40
0.0
 40
0.0
 40
0.0
 40
0.125
 40
0.125
 40
0.125
 40
0.125
 40
0.25
 40
0.25
 40
0.25
 40
0.25
 40
0.375
 40
0.375
 40
0.375
 40
0.375
 40
0.5
 40
0.5
 40
0.5
 40
0.5
 40
0.625
 40
0.625
 40
0.625
 40
0.625
 40
0.75
 40
0.75
 40
0.75
 40
0.75
 40
0.875
 40
0.875
 40
0.875
 40
0.875
 40
1.0
 40
1.0
 40
1.0
 40
1.0
 10
-10.82692
 20
-15.33523
 30
0.0
 10
-10.83149
 20
-15.33523
 30
0.0
 10
-10.83494
 20
-15.337
 30
0.0
 10
-10.83729
 20
-15.34055
 30
0.0
 10
-10.83729
 20
-15.34055
 30
0.0
 10
-10.83964
 20
-15.3441
 30
0.0
 10
-10.84081
 20
-15.34937
 30
0.0
 10
-10.84081
 20
-15.35632
 30
0.0
 10
-10.84081
 20
-15.35632
 30
0.0
 10
-10.84081
 20
-15.36325
 30
0.0
 10
-10.83964
 20
-15.3685
 30
0.0
 10
-10.83729
 20
-15.37207
 30
0.0
 10
-10.83729
 20
-15.37207
 30
0.0
 10
-10.83494
 20
-15.37564
 30
0.0
 10
-10.83149
 20
-15.37742
 30
0.0
 10
-10.82692
 20
-15.37742
 30
0.0
 10
-10.82692
 20
-15.37742
 30
0.0
 10
-10.82234
 20
-15.37742
 30
0.0
 10
-10.81887
 20
-15.37564
 30
0.0
 10
-10.81652
 20
-15.37207
 30
0.0
 10
-10.81652
 20
-15.37207
 30
0.0
 10
-10.81417
 20
-15.3685
 30
0.0
 10
-10.81301
 20
-15.36325
 30
0.0
 10
-10.81301
 20
-15.35632
 30
0.0
 10
-10.81301
 20
-15.35632
 30
0.0
 10
-10.81301
 20
-15.34937
 30
0.0
 10
-10.81417
 20
-15.3441
 30
0.0
 10
-10.81652
 20
-15.34055
 30
0.0
 10
-10.81652
 20
-15.34055
 30
0.0
 10
-10.81887
 20
-15.337
 30
0.0
 10
-10.82234
 20
-15.33523
 30
0.0
 10
-10.82692
 20
-15.33523
 30
0.0
  0
SPLINE
  5
83
330
1F
100
AcDbEntity
  8
Layer 1
 62
   250
100
AcDbSpline
210
0.0
220
0.0
230
1.0
 70
    11
 71
     3
 72
    36
 73
    32
 74
     0
 42
0.0000000001
 43
0.0000000001
 40
0.0
 40
0.0
 40
0.0
 40
0.0
 40
0.125
 40
0.125
 40
0.125
 40
0.125
 40
0.25
 40
0.25
 40
0.25
 40
0.25
 40
0.375
 40
0.375
 40
0.375
 40
0.375
 40
0.5
 40
0.5
 40
0.5
 40
0.5
 40
0.625
 40
0.625
 40
0.625
 40
0.625
 40
0.75
 40
0.75
 40
0.75
 40
0.75
 40
0.875
 40
0.875
 40
0.875
 40
0.875
 40
1.0
 40
1.0
 40
1.0
 40
1.0
 10
-10.82692
 20
-15.32761
 30
0.0
 10
-10.81934
 20
-15.32761
 30
0.0
 10
-10.81354
 20
-15.33006
 30
0.0
 10
-10.80952
 20
-15.33498
 30
0.0
 10
-10.80952
 20
-15.33498
 30
0.0
 10
-10.8055
 20
-15.3399
 30
0.0
 10
-10.80349
 20
-15.34702
 30
0.0
 10
-10.80349
 20
-15.35632
 30
0.0
 10
-10.80349
 20
-15.35632
 30
0.0
 10
-10.80349
 20
-15.36567
 30
0.0
 10
-10.80549
 20
-15.37279
 30
0.0
 10
-10.80949
 20
-15.37769
 30
0.0
 10
-10.80949
 20
-15.37769
 30
0.0
 10
-10.81351
 20
-15.38259
 30
0.0
 10
-10.81931
 20
-15.38504
 30
0.0
 10
-10.82692
 20
-15.38504
 30
0.0
 10
-10.82692
 20
-15.38504
 30
0.0
 10
-10.83452
 20
-15.38504
 30
0.0
 10
-10.84031
 20
-15.38259
 30
0.0
 10
-10.84433
 20
-15.37769
 30
0.0
 10
-10.84433
 20
-15.37769
 30
0.0
 10
-10.84833
 20
-15.37279
 30
0.0
 10
-10.85033
 20
-15.36567
 30
0.0
 10
-10.85033
 20
-15.35632
 30
0.0
 10
-10.85033
 20
-15.35632
 30
0.0
 10
-10.85033
 20
-15.34702
 30
0.0
 10
-10.84833
 20
-15.3399
 30
0.0
 10
-10.84433
 20
-15.33498
 30
0.0
 10
-10.84433
 20
-15.33498
 30
0.0
 10
-10.84031
 20
-15.33006
 30
0.0
 10
-10.83452
 20
-15.32761
 30
0.0
 10
-10.82692
 20
-15.32761
 30
0.0
  0
SPLINE
  5
84
330
1F
100
AcDbEntity
  8
Layer 1
 62
   250
100
AcDbSpline
210
0.0
220
0.0
230
1.0
 70
    11
 71
     3
 72
    36
 73
    32
 74
     0
 42
0.0000000001
 43
0.0000000001
 40
0.0
 40
0.0
 40
0.0
 40
0.0
 40
0.125
 40
0.125
 40
0.125
 40
0.125
 40
0.25
 40
0.25
 40
0.25
 40
0.25
 40
0.375
 40
0.375
 40
0.375
 40
0.375
 40
0.5
 40
0.5
 40
0.5
 40
0.5
 40
0.625
 40
0.625
 40
0.625
 40
0.625
 40
0.75
 40
0.75
 40
0.75
 40
0.75
 40
0.875
 40
0.875
 40
0.875
 40
0.875
 40
1.0
 40
1.0
 40
1.0
 40
1.0
 10
-10.76671
 20
-15.33523
 30
0.0
 10
-10.77128
 20
-15.33523
 30
0.0
 10
-10.77473
 20
-15.337
 30
0.0
 10
-10.77708
 20
-15.34055
 30
0.0
 10
-10.77708
 20
-15.34055
 30
0.0
 10
-10.77943
 20
-15.3441
 30
0.0
 10
-10.7806
 20
-15.34937
 30
0.0
 10
-10.7806
 20
-15.35632
 30
0.0
 10
-10.7806
 20
-15.35632
 30
0.0
 10
-10.7806
 20
-15.36325
 30
0.0
 10
-10.77943
 20
-15.3685
 30
0.0
 10
-10.77708
 20
-15.37207
 30
0.0
 10
-10.77708
 20
-15.37207
 30
0.0
 10
-10.77473
 20
-15.37564
 30
0.0
 10
-10.77128
 20
-15.37742
 30
0.0
 10
-10.76671
 20
-15.37742
 30
0.0
 10
-10.76671
 20
-15.37742
 30
0.0
 10
-10.76213
 20
-15.37742
 30
0.0
 10
-10.75866
 20
-15.37564
 30
0.0
 10
-10.75631
 20
-15.37207
 30
0.0
 10
-10.75631
 20
-15.37207
 30
0.0
 10
-10.75396
 20
-15.3685
 30
0.0
 10
-10.7528
 20
-15.36325
 30
0.0
 10
-10.7528
 20
-15.35632
 30
0.0
 10
-10.7528
 20
-15.35632
 30
0.0
 10
-10.7528
 20
-15.34937
 30
0.0
 10
-10.75396
 20
-15.3441
 30
0.0
 10
-10.75631
 20
-15.34055
 30
0.0
 10
-10.75631
 20
-15.34055
 30
0.0
 10
-10.75866
 20
-15.337
 30
0.0
 10
-10.76213
 20
-15.33523
 30
0.0
 10
-10.76671
 20
-15.33523
 30
0.0
  0
SPLINE
  5
85
330
1F
100
AcDbEntity
  8
Layer 1
 62
   250
100
AcDbSpline
210
0.0
220
0.0
230
1.0
 70
    11
 71
     3
 72
    36
 73
    32
 74
     0
 42
0.0000000001
 43
0.0000000001
 40
0.0
 40
0.0
 40
0.0
 40
0.0
 40
0.125
 40
0.125
 40
0.125
 40
0.125
 40
0.25
 40
0.25
 40
0.25
 40
0.25
 40
0.375
 40
0.375
 40
0.375
 40
0.375
 40
0.5
 40
0.5
 40
0.5
 40
0.5
 40
0.625
 40
0.625
 40
0.625
 40
0.625
 40
0.75
 40
0.75
 40
0.75
 40
0.75
 40
0.875
 40
0.875
 40
0.875
 40
0.875
 40
1.0
 40
1.0
 40
1.0
 40
1.0
 10
-10.76671
 20
-15.32761
 30
0.0
 10
-10.75913
 20
-15.32761
 30
0.0
 10
-10.75333
 20
-15.33006
 30
0.0
 10
-10.74931
 20
-15.33498
 30
0.0
 10
-10.74931
 20
-15.33498
 30
0.0
 10
-10.74529
 20
-15.3399
 30
0.0
 10
-10.74328
 20
-15.34702
 30
0.0
 10
-10.74328
 20
-15.35632
 30
0.0
 10
-10.74328
 20
-15.35632
 30
0.0
 10
-10.74328
 20
-15.36567
 30
0.0
 10
-10.74528
 20
-15.37279
 30
0.0
 10
-10.74928
 20
-15.37769
 30
0.0
 10
-10.74928
 20
-15.37769
 30
0.0
 10
-10.7533
 20
-15.38259
 30
0.0
 10
-10.7591
 20
-15.38504
 30
0.0
 10
-10.76671
 20
-15.38504
 30
0.0
 10
-10.76671
 20
-15.38504
 30
0.0
 10
-10.77431
 20
-15.38504
 30
0.0
 10
-10.7801
 20
-15.38259
 30
0.0
 10
-10.78412
 20
-15.37769
 30
0.0
 10
-10.78412
 20
-15.37769
 30
0.0
 10
-10.78812
 20
-15.37279
 30
0.0
 10
-10.79012
 20
-15.36567
 30
0.0
 10
-10.79012
 20
-15.35632
 30
0.0
 10
-10.79012
 20
-15.35632
 30
0.0
 10
-10.79012
 20
-15.34702
 30
0.0
 10
-10.78812
 20
-15.3399
 30
0.0
 10
-10.78412
 20
-15.33498
 30
0.0
 10
-10.78412
 20
-15.33498
 30
0.0
 10
-10.7801
 20
-15.33006
 30
0.0
 10
-10.77431
 20
-15.32761
 30
0.0
 10
-10.76671
 20
-15.32761
 30
0.0
  0
SPLINE
  5
86
330
1F
100
AcDbEntity
  8
Layer 1
 62
   250
100
AcDbSpline
210
0.0
220
0.0
230
1.0
 70
    11
 71
     3
 72
   112
 73
   108
 74
     0
 42
0.0000000001
 43
0.0000000001
 40
0.0
 40
0.0
 40
0.0
 40
0.0
 40
0.037037037037037
 40
0.037037037037037
 40
0.037037037037037
 40
0.037037037037037
 40
0.0740740740740741
 40
0.0740740740740741
 40
0.0740740740740741
 40
0.0740740740740741
 40
0.1111111111111111
 40
0.1111111111111111
 40
0.1111111111111111
 40
0.1111111111111111
 40
0.1481481481481481
 40
0.1481481481481481
 40
0.1481481481481481
 40
0.1481481481481481
 40
0.1851851851851852
 40
0.1851851851851852
 40
0.1851851851851852
 40
0.1851851851851852
 40
0.2222222222222222
 40
0.2222222222222222
 40
0.2222222222222222
 40
0.2222222222222222
 40
0.2592592592592592
 40
0.2592592592592592
 40
0.2592592592592592
 40
0.2592592592592592
 40
0.2962962962962963
 40
0.2962962962962963
 40
0.2962962962962963
 40
0.2962962962962963
 40
0.3333333333333333
 40
0.3333333333333333
 40
0.3333333333333333
 40
0.3333333333333333
 40
0.3703703703703703
 40
0.3703703703703703
 40
0.3703703703703703
 40
0.3703703703703703
 40
0.4074074074074074
 40
0.4074074074074074
 40
0.4074074074074074
 40
0.4074074074074074
 40
0.4444444444444444
 40
0.4444444444444444
 40
0.4444444444444444
 40
0.4444444444444444
 40
0.4814814814814815
 40
0.4814814814814815
 40
0.4814814814814815
 40
0.4814814814814815
 40
0.5185185185185185
 40
0.5185185185185185
 40
0.5185185185185185
 40
0.5185185185185185
 40
0.5555555555555556
 40
0.5555555555555556
 40
0.5555555555555556
 40
0.5555555555555556
 40
0.5925925925925926
 40
0.5925925925925926
 40
0.5925925925925926
 40
0.5925925925925926
 40
0.6296296296296295
 40
0.6296296296296295
 40
0.6296296296296295
 40
0.6296296296296295
 40
0.6666666666666665
 40
0.6666666666666665
 40
0.6666666666666665
 40
0.6666666666666665
 40
0.7037037037037035
 40
0.7037037037037035
 40
0.7037037037037035
 40
0.7037037037037035
 40
0.7407407407407405
 40
0.7407407407407405
 40
0.7407407407407405
 40
0.7407407407407405
 40
0.7777777777777775
 40
0.7777777777777775
 40
0.7777777777777775
 40
0.7777777777777775
 40
0.8148148148148144
 40
0.8148148148148144
 40
0.8148148148148144
 40
0.8148148148148144
 40
0.8518518518518514
 40
0.8518518518518514
 40
0.8518518518518514
 40
0.8518518518518514
 40
0.8888888888888884
 40
0.8888888888888884
 40
0.8888888888888884
 40
0.8888888888888884
 40
0.9259259259259254
 40
0.9259259259259254
 40
0.9259259259259254
 40
0.9259259259259254
 40
0.9629629629629624
 40
0.9629629629629624
 40
0.9629629629629624
 40
0.9629629629629624
 40
1.0
 40
1.0
 40
1.0
 40
1.0
 10
-10.70359
 20
-15.3345
 30
0.0
 10
-10.70249
 20
-15.33215
 30
0.0
 10
-10.70107
 20
-15.33041
 30
0.0
 10
-10.69935
 20
-15.3293
 30
0.0
 10
-10.69935
 20
-15.3293
 30
0.0
 10
-10.69765
 20
-15.32818
 30
0.0
 10
-10.69559
 20
-15.32761
 30
0.0
 10
-10.69319
 20
-15.32761
 30
0.0
 10
-10.69319
 20
-15.32761
 30
0.0
 10
-10.68879
 20
-15.32761
 30
0.0
 10
-10.68568
 20
-15.32931
 30
0.0
 10
-10.68388
 20
-15.33271
 30
0.0
 10
-10.68388
 20
-15.33271
 30
0.0
 10
-10.68207
 20
-15.33612
 30
0.0
 10
-10.68117
 20
-15.34252
 30
0.0
 10
-10.68117
 20
-15.35193
 30
0.0
 10
-10.68117
 20
-15.35193
 30
0.0
 10
-10.68117
 20
-15.35193
 30
0.0
 10
-10.68117
 20
-15.38362
 30
0.0
 10
-10.68117
 20
-15.38362
 30
0.0
 10
-10.68117
 20
-15.38362
 30
0.0
 10
-10.68117
 20
-15.38362
 30
0.0
 10
-10.68937
 20
-15.38362
 30
0.0
 10
-10.68937
 20
-15.38362
 30
0.0
 10
-10.68937
 20
-15.38362
 30
0.0
 10
-10.68937
 20
-15.38362
 30
0.0
 10
-10.68937
 20
-15.35232
 30
0.0
 10
-10.68937
 20
-15.35232
 30
0.0
 10
-10.68937
 20
-15.35232
 30
0.0
 10
-10.68937
 20
-15.3446
 30
0.0
 10
-10.6898
 20
-15.33982
 30
0.0
 10
-10.69067
 20
-15.33793
 30
0.0
 10
-10.69067
 20
-15.33793
 30
0.0
 10
-10.69152
 20
-15.33607
 30
0.0
 10
-10.6931
 20
-15.33513
 30
0.0
 10
-10.69539
 20
-15.33513
 30
0.0
 10
-10.69539
 20
-15.33513
 30
0.0
 10
-10.69799
 20
-15.33513
 30
0.0
 10
-10.69977
 20
-15.33613
 30
0.0
 10
-10.70074
 20
-15.33813
 30
0.0
 10
-10.70074
 20
-15.33813
 30
0.0
 10
-10.70169
 20
-15.34013
 30
0.0
 10
-10.70217
 20
-15.34487
 30
0.0
 10
-10.70217
 20
-15.35232
 30
0.0
 10
-10.70217
 20
-15.35232
 30
0.0
 10
-10.70217
 20
-15.35232
 30
0.0
 10
-10.70217
 20
-15.38362
 30
0.0
 10
-10.70217
 20
-15.38362
 30
0.0
 10
-10.70217
 20
-15.38362
 30
0.0
 10
-10.70217
 20
-15.38362
 30
0.0
 10
-10.71037
 20
-15.38362
 30
0.0
 10
-10.71037
 20
-15.38362
 30
0.0
 10
-10.71037
 20
-15.38362
 30
0.0
 10
-10.71037
 20
-15.38362
 30
0.0
 10
-10.71037
 20
-15.35232
 30
0.0
 10
-10.71037
 20
-15.35232
 30
0.0
 10
-10.71037
 20
-15.35232
 30
0.0
 10
-10.71037
 20
-15.3445
 30
0.0
 10
-10.71084
 20
-15.33968
 30
0.0
 10
-10.71177
 20
-15.33787
 30
0.0
 10
-10.71177
 20
-15.33787
 30
0.0
 10
-10.71269
 20
-15.33605
 30
0.0
 10
-10.71435
 20
-15.33513
 30
0.0
 10
-10.71677
 20
-15.33513
 30
0.0
 10
-10.71677
 20
-15.33513
 30
0.0
 10
-10.71915
 20
-15.33513
 30
0.0
 10
-10.72081
 20
-15.33613
 30
0.0
 10
-10.72172
 20
-15.33813
 30
0.0
 10
-10.72172
 20
-15.33813
 30
0.0
 10
-10.72266
 20
-15.34013
 30
0.0
 10
-10.72312
 20
-15.34487
 30
0.0
 10
-10.72312
 20
-15.35232
 30
0.0
 10
-10.72312
 20
-15.35232
 30
0.0
 10
-10.72312
 20
-15.35232
 30
0.0
 10
-10.72312
 20
-15.38362
 30
0.0
 10
-10.72312
 20
-15.38362
 30
0.0
 10
-10.72312
 20
-15.38362
 30
0.0
 10
-10.72312
 20
-15.38362
 30
0.0
 10
-10.73127
 20
-15.38362
 30
0.0
 10
-10.73127
 20
-15.38362
 30
0.0
 10
-10.73127
 20
-15.38362
 30
0.0
 10
-10.73127
 20
-15.38362
 30
0.0
 10
-10.73127
 20
-15.32893
 30
0.0
 10
-10.73127
 20
-15.32893
 30
0.0
 10
-10.73127
 20
-15.32893
 30
0.0
 10
-10.73127
 20
-15.32893
 30
0.0
 10
-10.72312
 20
-15.32893
 30
0.0
 10
-10.72312
 20
-15.32893
 30
0.0
 10
-10.72312
 20
-15.32893
 30
0.0
 10
-10.72312
 20
-15.32893
 30
0.0
 10
-10.72312
 20
-15.33361
 30
0.0
 10
-10.72312
 20
-15.33361
 30
0.0
 10
-10.72312
 20
-15.33361
 30
0.0
 10
-10.72206
 20
-15.33166
 30
0.0
 10
-10.72071
 20
-15.33018
 30
0.0
 10
-10.71909
 20
-15.32915
 30
0.0
 10
-10.71909
 20
-15.32915
 30
0.0
 10
-10.71749
 20
-15.32813
 30
0.0
 10
-10.71565
 20
-15.32761
 30
0.0
 10
-10.7136
 20
-15.32761
 30
0.0
 10
-10.7136
 20
-15.32761
 30
0.0
 10
-10.71112
 20
-15.32761
 30
0.0
 10
-10.70907
 20
-15.32818
 30
0.0
 10
-10.70742
 20
-15.32931
 30
0.0
 10
-10.70742
 20
-15.32931
 30
0.0
 10
-10.70577
 20
-15.33046
 30
0.0
 10
-10.7045
 20
-15.33218
 30
0.0
 10
-10.70359
 20
-15.3345
 30
0.0
  0
SPLINE
  5
87
330
1F
100
AcDbEntity
  8
Layer 1
 62
   250
100
AcDbSpline
210
0.0
220
0.0
230
1.0
 70
    11
 71
     3
 72
    20
 73
    16
 74
     0
 42
0.0000000001
 43
0.0000000001
 40
0.0
 40
0.0
 40
0.0
 40
0.0
 40
0.25
 40
0.25
 40
0.25
 40
0.25
 40
0.5
 40
0.5
 40
0.5
 40
0.5
 40
0.75
 40
0.75
 40
0.75
 40
0.75
 40
1.0
 40
1.0
 40
1.0
 40
1.0
 10
-10.65249
 20
-15.36872
 30
0.0
 10
-10.65249
 20
-15.36872
 30
0.0
 10
-10.64019
 20
-15.36872
 30
0.0
 10
-10.64019
 20
-15.36872
 30
0.0
 10
-10.64019
 20
-15.36872
 30
0.0
 10
-10.64019
 20
-15.36872
 30
0.0
 10
-10.64019
 20
-15.38362
 30
0.0
 10
-10.64019
 20
-15.38362
 30
0.0
 10
-10.64019
 20
-15.38362
 30
0.0
 10
-10.64019
 20
-15.38362
 30
0.0
 10
-10.65249
 20
-15.38362
 30
0.0
 10
-10.65249
 20
-15.38362
 30
0.0
 10
-10.65249
 20
-15.38362
 30
0.0
 10
-10.65249
 20
-15.38362
 30
0.0
 10
-10.65249
 20
-15.36872
 30
0.0
 10
-10.65249
 20
-15.36872
 30
0.0
  0
SPLINE
  5
88
330
1F
100
AcDbEntity
  8
Layer 1
 62
   250
100
AcDbSpline
210
0.0
220
0.0
230
1.0
 70
    11
 71
     3
 72
    52
 73
    48
 74
     0
 42
0.0000000001
 43
0.0000000001
 40
0.0
 40
0.0
 40
0.0
 40
0.0
 40
0.0833333333333333
 40
0.0833333333333333
 40
0.0833333333333333
 40
0.0833333333333333
 40
0.1666666666666667
 40
0.1666666666666667
 40
0.1666666666666667
 40
0.1666666666666667
 40
0.25
 40
0.25
 40
0.25
 40
0.25
 40
0.3333333333333333
 40
0.3333333333333333
 40
0.3333333333333333
 40
0.3333333333333333
 40
0.4166666666666666
 40
0.4166666666666666
 40
0.4166666666666666
 40
0.4166666666666666
 40
0.4999999999999999
 40
0.4999999999999999
 40
0.4999999999999999
 40
0.4999999999999999
 40
0.5833333333333333
 40
0.5833333333333333
 40
0.5833333333333333
 40
0.5833333333333333
 40
0.6666666666666666
 40
0.6666666666666666
 40
0.6666666666666666
 40
0.6666666666666666
 40
0.75
 40
0.75
 40
0.75
 40
0.75
 40
0.8333333333333334
 40
0.8333333333333334
 40
0.8333333333333334
 40
0.8333333333333334
 40
0.9166666666666667
 40
0.9166666666666667
 40
0.9166666666666667
 40
0.9166666666666667
 40
1.0
 40
1.0
 40
1.0
 40
1.0
 10
-10.58497
 20
-15.3638
 30
0.0
 10
-10.58497
 20
-15.36784
 30
0.0
 10
-10.58423
 20
-15.37087
 30
0.0
 10
-10.58275
 20
-15.37292
 30
0.0
 10
-10.58275
 20
-15.37292
 30
0.0
 10
-10.58127
 20
-15.37497
 30
0.0
 10
-10.57908
 20
-15.376
 30
0.0
 10
-10.57618
 20
-15.376
 30
0.0
 10
-10.57618
 20
-15.376
 30
0.0
 10
-10.57618
 20
-15.376
 30
0.0
 10
-10.56568
 20
-15.376
 30
0.0
 10
-10.56568
 20
-15.376
 30
0.0
 10
-10.56568
 20
-15.376
 30
0.0
 10
-10.56568
 20
-15.376
 30
0.0
 10
-10.56568
 20
-15.38362
 30
0.0
 10
-10.56568
 20
-15.38362
 30
0.0
 10
-10.56568
 20
-15.38362
 30
0.0
 10
-10.56568
 20
-15.38362
 30
0.0
 10
-10.57705
 20
-15.38362
 30
0.0
 10
-10.57705
 20
-15.38362
 30
0.0
 10
-10.57705
 20
-15.38362
 30
0.0
 10
-10.58243
 20
-15.38362
 30
0.0
 10
-10.58658
 20
-15.38189
 30
0.0
 10
-10.58953
 20
-15.37844
 30
0.0
 10
-10.58953
 20
-15.37844
 30
0.0
 10
-10.59248
 20
-15.37499
 30
0.0
 10
-10.59395
 20
-15.3701
 30
0.0
 10
-10.59395
 20
-15.3638
 30
0.0
 10
-10.59395
 20
-15.3638
 30
0.0
 10
-10.59395
 20
-15.3638
 30
0.0
 10
-10.59395
 20
-15.31413
 30
0.0
 10
-10.59395
 20
-15.31413
 30
0.0
 10
-10.59395
 20
-15.31413
 30
0.0
 10
-10.59395
 20
-15.31413
 30
0.0
 10
-10.60835
 20
-15.31413
 30
0.0
 10
-10.60835
 20
-15.31413
 30
0.0
 10
-10.60835
 20
-15.31413
 30
0.0
 10
-10.60835
 20
-15.31413
 30
0.0
 10
-10.60835
 20
-15.3071
 30
0.0
 10
-10.60835
 20
-15.3071
 30
0.0
 10
-10.60835
 20
-15.3071
 30
0.0
 10
-10.60835
 20
-15.3071
 30
0.0
 10
-10.58497
 20
-15.3071
 30
0.0
 10
-10.58497
 20
-15.3071
 30
0.0
 10
-10.58497
 20
-15.3071
 30
0.0
 10
-10.58497
 20
-15.3071
 30
0.0
 10
-10.58497
 20
-15.3638
 30
0.0
 10
-10.58497
 20
-15.3638
 30
0.0
  0
SPLINE
  5
89
330
1F
100
AcDbEntity
  8
Layer 1
 62
   250
100
AcDbSpline
210
0.0
220
0.0
230
1.0
 70
    11
 71
     3
 72
    76
 73
    72
 74
     0
 42
0.0000000001
 43
0.0000000001
 40
0.0
 40
0.0
 40
0.0
 40
0.0
 40
0.0555555555555556
 40
0.0555555555555556
 40
0.0555555555555556
 40
0.0555555555555556
 40
0.1111111111111111
 40
0.1111111111111111
 40
0.1111111111111111
 40
0.1111111111111111
 40
0.1666666666666667
 40
0.1666666666666667
 40
0.1666666666666667
 40
0.1666666666666667
 40
0.2222222222222222
 40
0.2222222222222222
 40
0.2222222222222222
 40
0.2222222222222222
 40
0.2777777777777778
 40
0.2777777777777778
 40
0.2777777777777778
 40
0.2777777777777778
 40
0.3333333333333334
 40
0.3333333333333334
 40
0.3333333333333334
 40
0.3333333333333334
 40
0.388888888888889
 40
0.388888888888889
 40
0.388888888888889
 40
0.388888888888889
 40
0.4444444444444445
 40
0.4444444444444445
 40
0.4444444444444445
 40
0.4444444444444445
 40
0.5000000000000001
 40
0.5000000000000001
 40
0.5000000000000001
 40
0.5000000000000001
 40
0.5555555555555557
 40
0.5555555555555557
 40
0.5555555555555557
 40
0.5555555555555557
 40
0.6111111111111113
 40
0.6111111111111113
 40
0.6111111111111113
 40
0.6111111111111113
 40
0.6666666666666669
 40
0.6666666666666669
 40
0.6666666666666669
 40
0.6666666666666669
 40
0.7222222222222224
 40
0.7222222222222224
 40
0.7222222222222224
 40
0.7222222222222224
 40
0.777777777777778
 40
0.777777777777778
 40
0.777777777777778
 40
0.777777777777778
 40
0.8333333333333336
 40
0.8333333333333336
 40
0.8333333333333336
 40
0.8333333333333336
 40
0.8888888888888892
 40
0.8888888888888892
 40
0.8888888888888892
 40
0.8888888888888892
 40
0.9444444444444448
 40
0.9444444444444448
 40
0.9444444444444448
 40
0.9444444444444448
 40
1.0
 40
1.0
 40
1.0
 40
1.0
 10
-10.52597
 20
-15.3134
 30
0.0
 10
-10.52597
 20
-15.3134
 30
0.0
 10
-10.52597
 20
-15.32893
 30
0.0
 10
-10.52597
 20
-15.32893
 30
0.0
 10
-10.52597
 20
-15.32893
 30
0.0
 10
-10.52597
 20
-15.32893
 30
0.0
 10
-10.50555
 20
-15.32893
 30
0.0
 10
-10.50555
 20
-15.32893
 30
0.0
 10
-10.50555
 20
-15.32893
 30
0.0
 10
-10.50555
 20
-15.32893
 30
0.0
 10
-10.50555
 20
-15.33592
 30
0.0
 10
-10.50555
 20
-15.33592
 30
0.0
 10
-10.50555
 20
-15.33592
 30
0.0
 10
-10.50555
 20
-15.33592
 30
0.0
 10
-10.52597
 20
-15.33592
 30
0.0
 10
-10.52597
 20
-15.33592
 30
0.0
 10
-10.52597
 20
-15.33592
 30
0.0
 10
-10.52597
 20
-15.33592
 30
0.0
 10
-10.52597
 20
-15.3656
 30
0.0
 10
-10.52597
 20
-15.3656
 30
0.0
 10
-10.52597
 20
-15.3656
 30
0.0
 10
-10.52597
 20
-15.36964
 30
0.0
 10
-10.52521
 20
-15.37245
 30
0.0
 10
-10.52367
 20
-15.37404
 30
0.0
 10
-10.52367
 20
-15.37404
 30
0.0
 10
-10.52214
 20
-15.37564
 30
0.0
 10
-10.51947
 20
-15.37644
 30
0.0
 10
-10.51567
 20
-15.37644
 30
0.0
 10
-10.51567
 20
-15.37644
 30
0.0
 10
-10.51567
 20
-15.37644
 30
0.0
 10
-10.50555
 20
-15.37644
 30
0.0
 10
-10.50555
 20
-15.37644
 30
0.0
 10
-10.50555
 20
-15.37644
 30
0.0
 10
-10.50555
 20
-15.37644
 30
0.0
 10
-10.50555
 20
-15.38362
 30
0.0
 10
-10.50555
 20
-15.38362
 30
0.0
 10
-10.50555
 20
-15.38362
 30
0.0
 10
-10.50555
 20
-15.38362
 30
0.0
 10
-10.51654
 20
-15.38362
 30
0.0
 10
-10.51654
 20
-15.38362
 30
0.0
 10
-10.51654
 20
-15.38362
 30
0.0
 10
-10.52329
 20
-15.38362
 30
0.0
 10
-10.52804
 20
-15.38227
 30
0.0
 10
-10.53081
 20
-15.37957
 30
0.0
 10
-10.53081
 20
-15.37957
 30
0.0
 10
-10.53357
 20
-15.37687
 30
0.0
 10
-10.53496
 20
-15.3722
 30
0.0
 10
-10.53496
 20
-15.3656
 30
0.0
 10
-10.53496
 20
-15.3656
 30
0.0
 10
-10.53496
 20
-15.3656
 30
0.0
 10
-10.53496
 20
-15.33592
 30
0.0
 10
-10.53496
 20
-15.33592
 30
0.0
 10
-10.53496
 20
-15.33592
 30
0.0
 10
-10.53496
 20
-15.33592
 30
0.0
 10
-10.54956
 20
-15.33592
 30
0.0
 10
-10.54956
 20
-15.33592
 30
0.0
 10
-10.54956
 20
-15.33592
 30
0.0
 10
-10.54956
 20
-15.33592
 30
0.0
 10
-10.54956
 20
-15.32893
 30
0.0
 10
-10.54956
 20
-15.32893
 30
0.0
 10
-10.54956
 20
-15.32893
 30
0.0
 10
-10.54956
 20
-15.32893
 30
0.0
 10
-10.53496
 20
-15.32893
 30
0.0
 10
-10.53496
 20
-15.32893
 30
0.0
 10
-10.53496
 20
-15.32893
 30
0.0
 10
-10.53496
 20
-15.32893
 30
0.0
 10
-10.53496
 20
-15.3134
 30
0.0
 10
-10.53496
 20
-15.3134
 30
0.0
 10
-10.53496
 20
-15.3134
 30
0.0
 10
-10.53496
 20
-15.3134
 30
0.0
 10
-10.52597
 20
-15.3134
 30
0.0
 10
-10.52597
 20
-15.3134
 30
0.0
  0
SPLINE
  5
8A
330
1F
100
AcDbEntity
  8
Layer 1
 62
   250
100
AcDbSpline
210
0.0
220
0.0
230
1.0
 70
    11
 71
     3
 72
    20
 73
    16
 74
     0
 42
0.0000000001
 43
0.0000000001
 40
0.0
 40
0.0
 40
0.0
 40
0.0
 40
0.25
 40
0.25
 40
0.25
 40
0.25
 40
0.5
 40
0.5
 40
0.5
 40
0.5
 40
0.75
 40
0.75
 40
0.75
 40
0.75
 40
1.0
 40
1.0
 40
1.0
 40
1.0
 10
-10.45233
 20
-15.31071
 30
0.0
 10
-10.45233
 20
-15.31071
 30
0.0
 10
-10.44304
 20
-15.31071
 30
0.0
 10
-10.44304
 20
-15.31071
 30
0.0
 10
-10.44304
 20
-15.31071
 30
0.0
 10
-10.44304
 20
-15.31071
 30
0.0
 10
-10.48143
 20
-15.3929
 30
0.0
 10
-10.48143
 20
-15.3929
 30
0.0
 10
-10.48143
 20
-15.3929
 30
0.0
 10
-10.48143
 20
-15.3929
 30
0.0
 10
-10.49077
 20
-15.3929
 30
0.0
 10
-10.49077
 20
-15.3929
 30
0.0
 10
-10.49077
 20
-15.3929
 30
0.0
 10
-10.49077
 20
-15.3929
 30
0.0
 10
-10.45233
 20
-15.31071
 30
0.0
 10
-10.45233
 20
-15.31071
 30
0.0
  0
SPLINE
  5
8B
330
1F
100
AcDbEntity
  8
Layer 1
 62
   250
100
AcDbSpline
210
0.0
220
0.0
230
1.0
 70
    11
 71
     3
 72
    68
 73
    64
 74
     0
 42
0.0000000001
 43
0.0000000001
 40
0.0
 40
0.0
 40
0.0
 40
0.0
 40
0.0625
 40
0.0625
 40
0.0625
 40
0.0625
 40
0.125
 40
0.125
 40
0.125
 40
0.125
 40
0.1875
 40
0.1875
 40
0.1875
 40
0.1875
 40
0.25
 40
0.25
 40
0.25
 40
0.25
 40
0.3125
 40
0.3125
 40
0.3125
 40
0.3125
 40
0.375
 40
0.375
 40
0.375
 40
0.375
 40
0.4375
 40
0.4375
 40
0.4375
 40
0.4375
 40
0.5
 40
0.5
 40
0.5
 40
0.5
 40
0.5625
 40
0.5625
 40
0.5625
 40
0.5625
 40
0.625
 40
0.625
 40
0.625
 40
0.625
 40
0.6875
 40
0.6875
 40
0.6875
 40
0.6875
 40
0.75
 40
0.75
 40
0.75
 40
0.75
 40
0.8125
 40
0.8125
 40
0.8125
 40
0.8125
 40
0.875
 40
0.875
 40
0.875
 40
0.875
 40
0.9375
 40
0.9375
 40
0.9375
 40
0.9375
 40
1.0
 40
1.0
 40
1.0
 40
1.0
 10
-10.39614
 20
-15.3492
 30
0.0
 10
-10.3947
 20
-15.34948
 30
0.0
 10
-10.39345
 20
-15.35017
 30
0.0
 10
-10.3924
 20
-15.35123
 30
0.0
 10
-10.3924
 20
-15.35123
 30
0.0
 10
-10.39134
 20
-15.35228
 30
0.0
 10
-10.39005
 20
-15.35435
 30
0.0
 10
-10.38852
 20
-15.3574
 30
0.0
 10
-10.38852
 20
-15.3574
 30
0.0
 10
-10.38852
 20
-15.3574
 30
0.0
 10
-10.37532
 20
-15.38362
 30
0.0
 10
-10.37532
 20
-15.38362
 30
0.0
 10
-10.37532
 20
-15.38362
 30
0.0
 10
-10.37532
 20
-15.38362
 30
0.0
 10
-10.39115
 20
-15.38362
 30
0.0
 10
-10.39115
 20
-15.38362
 30
0.0
 10
-10.39115
 20
-15.38362
 30
0.0
 10
-10.39115
 20
-15.38362
 30
0.0
 10
-10.39994
 20
-15.36522
 30
0.0
 10
-10.39994
 20
-15.36522
 30
0.0
 10
-10.39994
 20
-15.36522
 30
0.0
 10
-10.4002
 20
-15.3647
 30
0.0
 10
-10.40055
 20
-15.36398
 30
0.0
 10
-10.40097
 20
-15.36307
 30
0.0
 10
-10.40097
 20
-15.36307
 30
0.0
 10
-10.40354
 20
-15.35757
 30
0.0
 10
-10.40657
 20
-15.35482
 30
0.0
 10
-10.41005
 20
-15.35482
 30
0.0
 10
-10.41005
 20
-15.35482
 30
0.0
 10
-10.41005
 20
-15.35482
 30
0.0
 10
-10.41464
 20
-15.35482
 30
0.0
 10
-10.41464
 20
-15.35482
 30
0.0
 10
-10.41464
 20
-15.35482
 30
0.0
 10
-10.41464
 20
-15.35482
 30
0.0
 10
-10.41464
 20
-15.38362
 30
0.0
 10
-10.41464
 20
-15.38362
 30
0.0
 10
-10.41464
 20
-15.38362
 30
0.0
 10
-10.41464
 20
-15.38362
 30
0.0
 10
-10.42904
 20
-15.38362
 30
0.0
 10
-10.42904
 20
-15.38362
 30
0.0
 10
-10.42904
 20
-15.38362
 30
0.0
 10
-10.42904
 20
-15.38362
 30
0.0
 10
-10.42904
 20
-15.31071
 30
0.0
 10
-10.42904
 20
-15.31071
 30
0.0
 10
-10.42904
 20
-15.31071
 30
0.0
 10
-10.42904
 20
-15.31071
 30
0.0
 10
-10.40824
 20
-15.31071
 30
0.0
 10
-10.40824
 20
-15.31071
 30
0.0
 10
-10.40824
 20
-15.31071
 30
0.0
 10
-10.39887
 20
-15.31071
 30
0.0
 10
-10.39214
 20
-15.31238
 30
0.0
 10
-10.38805
 20
-15.3157
 30
0.0
 10
-10.38805
 20
-15.3157
 30
0.0
 10
-10.38397
 20
-15.31901
 30
0.0
 10
-10.38192
 20
-15.32441
 30
0.0
 10
-10.38192
 20
-15.33191
 30
0.0
 10
-10.38192
 20
-15.33191
 30
0.0
 10
-10.38192
 20
-15.33692
 30
0.0
 10
-10.38313
 20
-15.34092
 30
0.0
 10
-10.38559
 20
-15.34388
 30
0.0
 10
-10.38559
 20
-15.34388
 30
0.0
 10
-10.38802
 20
-15.34683
 30
0.0
 10
-10.39154
 20
-15.34862
 30
0.0
 10
-10.39614
 20
-15.3492
 30
0.0
  0
SPLINE
  5
8C
330
1F
100
AcDbEntity
  8
Layer 1
 62
   250
100
AcDbSpline
210
0.0
220
0.0
230
1.0
 70
    11
 71
     3
 72
    32
 73
    28
 74
     0
 42
0.0000000001
 43
0.0000000001
 40
0.0
 40
0.0
 40
0.0
 40
0.0
 40
0.1428571428571428
 40
0.1428571428571428
 40
0.1428571428571428
 40
0.1428571428571428
 40
0.2857142857142857
 40
0.2857142857142857
 40
0.2857142857142857
 40
0.2857142857142857
 40
0.4285714285714285
 40
0.4285714285714285
 40
0.4285714285714285
 40
0.4285714285714285
 40
0.5714285714285714
 40
0.5714285714285714
 40
0.5714285714285714
 40
0.5714285714285714
 40
0.7142857142857142
 40
0.7142857142857142
 40
0.7142857142857142
 40
0.7142857142857142
 40
0.857142857142857
 40
0.857142857142857
 40
0.857142857142857
 40
0.857142857142857
 40
1.0
 40
1.0
 40
1.0
 40
1.0
 10
-10.41464
 20
-15.32283
 30
0.0
 10
-10.41464
 20
-15.32283
 30
0.0
 10
-10.41464
 20
-15.3427
 30
0.0
 10
-10.41464
 20
-15.3427
 30
0.0
 10
-10.41464
 20
-15.3427
 30
0.0
 10
-10.41464
 20
-15.3427
 30
0.0
 10
-10.40785
 20
-15.3427
 30
0.0
 10
-10.40785
 20
-15.3427
 30
0.0
 10
-10.40785
 20
-15.3427
 30
0.0
 10
-10.40392
 20
-15.3427
 30
0.0
 10
-10.40109
 20
-15.34193
 30
0.0
 10
-10.39939
 20
-15.34038
 30
0.0
 10
-10.39939
 20
-15.34038
 30
0.0
 10
-10.39767
 20
-15.33883
 30
0.0
 10
-10.39682
 20
-15.33628
 30
0.0
 10
-10.39682
 20
-15.33275
 30
0.0
 10
-10.39682
 20
-15.33275
 30
0.0
 10
-10.39682
 20
-15.3292
 30
0.0
 10
-10.39767
 20
-15.32665
 30
0.0
 10
-10.39935
 20
-15.32513
 30
0.0
 10
-10.39935
 20
-15.32513
 30
0.0
 10
-10.40105
 20
-15.3236
 30
0.0
 10
-10.40389
 20
-15.32283
 30
0.0
 10
-10.40785
 20
-15.32283
 30
0.0
 10
-10.40785
 20
-15.32283
 30
0.0
 10
-10.40785
 20
-15.32283
 30
0.0
 10
-10.41464
 20
-15.32283
 30
0.0
 10
-10.41464
 20
-15.32283
 30
0.0
  0
SPLINE
  5
8D
330
1F
100
AcDbEntity
  8
Layer 1
 62
   250
100
AcDbSpline
210
0.0
220
0.0
230
1.0
 70
    11
 71
     3
 72
    16
 73
    12
 74
     0
 42
0.0000000001
 43
0.0000000001
 40
0.0
 40
0.0
 40
0.0
 40
0.0
 40
0.3333333333333333
 40
0.3333333333333333
 40
0.3333333333333333
 40
0.3333333333333333
 40
0.6666666666666666
 40
0.6666666666666666
 40
0.6666666666666666
 40
0.6666666666666666
 40
1.0
 40
1.0
 40
1.0
 40
1.0
 10
-10.34143
 20
-15.32673
 30
0.0
 10
-10.34143
 20
-15.32673
 30
0.0
 10
-10.35985
 20
-15.35553
 30
0.0
 10
-10.35985
 20
-15.35553
 30
0.0
 10
-10.35985
 20
-15.35553
 30
0.0
 10
-10.35985
 20
-15.35553
 30
0.0
 10
-10.34143
 20
-15.35553
 30
0.0
 10
-10.34143
 20
-15.35553
 30
0.0
 10
-10.34143
 20
-15.35553
 30
0.0
 10
-10.34143
 20
-15.35553
 30
0.0
 10
-10.34143
 20
-15.32673
 30
0.0
 10
-10.34143
 20
-15.32673
 30
0.0
  0
SPLINE
  5
8E
330
1F
100
AcDbEntity
  8
Layer 1
 62
   250
100
AcDbSpline
210
0.0
220
0.0
230
1.0
 70
    11
 71
     3
 72
    48
 73
    44
 74
     0
 42
0.0000000001
 43
0.0000000001
 40
0.0
 40
0.0
 40
0.0
 40
0.0
 40
0.0909090909090909
 40
0.0909090909090909
 40
0.0909090909090909
 40
0.0909090909090909
 40
0.1818181818181818
 40
0.1818181818181818
 40
0.1818181818181818
 40
0.1818181818181818
 40
0.2727272727272727
 40
0.2727272727272727
 40
0.2727272727272727
 40
0.2727272727272727
 40
0.3636363636363636
 40
0.3636363636363636
 40
0.3636363636363636
 40
0.3636363636363636
 40
0.4545454545454546
 40
0.4545454545454546
 40
0.4545454545454546
 40
0.4545454545454546
 40
0.5454545454545455
 40
0.5454545454545455
 40
0.5454545454545455
 40
0.5454545454545455
 40
0.6363636363636365
 40
0.6363636363636365
 40
0.6363636363636365
 40
0.6363636363636365
 40
0.7272727272727274
 40
0.7272727272727274
 40
0.7272727272727274
 40
0.7272727272727274
 40
0.8181818181818183
 40
0.8181818181818183
 40
0.8181818181818183
 40
0.8181818181818183
 40
0.9090909090909093
 40
0.9090909090909093
 40
0.9090909090909093
 40
0.9090909090909093
 40
1.0
 40
1.0
 40
1.0
 40
1.0
 10
-10.34269
 20
-15.31071
 30
0.0
 10
-10.34269
 20
-15.31071
 30
0.0
 10
-10.32761
 20
-15.31071
 30
0.0
 10
-10.32761
 20
-15.31071
 30
0.0
 10
-10.32761
 20
-15.31071
 30
0.0
 10
-10.32761
 20
-15.31071
 30
0.0
 10
-10.32761
 20
-15.35553
 30
0.0
 10
-10.32761
 20
-15.35553
 30
0.0
 10
-10.32761
 20
-15.35553
 30
0.0
 10
-10.32761
 20
-15.35553
 30
0.0
 10
-10.31961
 20
-15.35553
 30
0.0
 10
-10.31961
 20
-15.35553
 30
0.0
 10
-10.31961
 20
-15.35553
 30
0.0
 10
-10.31961
 20
-15.35553
 30
0.0
 10
-10.31961
 20
-15.36789
 30
0.0
 10
-10.31961
 20
-15.36789
 30
0.0
 10
-10.31961
 20
-15.36789
 30
0.0
 10
-10.31961
 20
-15.36789
 30
0.0
 10
-10.32761
 20
-15.36789
 30
0.0
 10
-10.32761
 20
-15.36789
 30
0.0
 10
-10.32761
 20
-15.36789
 30
0.0
 10
-10.32761
 20
-15.36789
 30
0.0
 10
-10.32761
 20
-15.38362
 30
0.0
 10
-10.32761
 20
-15.38362
 30
0.0
 10
-10.32761
 20
-15.38362
 30
0.0
 10
-10.32761
 20
-15.38362
 30
0.0
 10
-10.34143
 20
-15.38362
 30
0.0
 10
-10.34143
 20
-15.38362
 30
0.0
 10
-10.34143
 20
-15.38362
 30
0.0
 10
-10.34143
 20
-15.38362
 30
0.0
 10
-10.34143
 20
-15.36789
 30
0.0
 10
-10.34143
 20
-15.36789
 30
0.0
 10
-10.34143
 20
-15.36789
 30
0.0
 10
-10.34143
 20
-15.36789
 30
0.0
 10
-10.37035
 20
-15.36789
 30
0.0
 10
-10.37035
 20
-15.36789
 30
0.0
 10
-10.37035
 20
-15.36789
 30
0.0
 10
-10.37035
 20
-15.36789
 30
0.0
 10
-10.37035
 20
-15.35392
 30
0.0
 10
-10.37035
 20
-15.35392
 30
0.0
 10
-10.37035
 20
-15.35392
 30
0.0
 10
-10.37035
 20
-15.35392
 30
0.0
 10
-10.34269
 20
-15.31071
 30
0.0
 10
-10.34269
 20
-15.31071
 30
0.0
  0
SPLINE
  5
8F
330
1F
100
AcDbEntity
  8
Layer 1
 62
   250
100
AcDbSpline
210
0.0
220
0.0
230
1.0
 70
    11
 71
     3
 72
    36
 73
    32
 74
     0
 42
0.0000000001
 43
0.0000000001
 40
0.0
 40
0.0
 40
0.0
 40
0.0
 40
0.125
 40
0.125
 40
0.125
 40
0.125
 40
0.25
 40
0.25
 40
0.25
 40
0.25
 40
0.375
 40
0.375
 40
0.375
 40
0.375
 40
0.5
 40
0.5
 40
0.5
 40
0.5
 40
0.625
 40
0.625
 40
0.625
 40
0.625
 40
0.75
 40
0.75
 40
0.75
 40
0.75
 40
0.875
 40
0.875
 40
0.875
 40
0.875
 40
1.0
 40
1.0
 40
1.0
 40
1.0
 10
-10.28372
 20
-15.34708
 30
0.0
 10
-10.28683
 20
-15.34708
 30
0.0
 10
-10.28922
 20
-15.34822
 30
0.0
 10
-10.29087
 20
-15.35048
 30
0.0
 10
-10.29087
 20
-15.35048
 30
0.0
 10
-10.29252
 20
-15.35275
 30
0.0
 10
-10.29333
 20
-15.35602
 30
0.0
 10
-10.29333
 20
-15.36032
 30
0.0
 10
-10.29333
 20
-15.36032
 30
0.0
 10
-10.29333
 20
-15.36458
 30
0.0
 10
-10.29252
 20
-15.36785
 30
0.0
 10
-10.29087
 20
-15.37012
 30
0.0
 10
-10.29087
 20
-15.37012
 30
0.0
 10
-10.28922
 20
-15.37239
 30
0.0
 10
-10.28683
 20
-15.37352
 30
0.0
 10
-10.28372
 20
-15.37352
 30
0.0
 10
-10.28372
 20
-15.37352
 30
0.0
 10
-10.28058
 20
-15.37352
 30
0.0
 10
-10.27818
 20
-15.37239
 30
0.0
 10
-10.27652
 20
-15.37012
 30
0.0
 10
-10.27652
 20
-15.37012
 30
0.0
 10
-10.27483
 20
-15.36785
 30
0.0
 10
-10.274
 20
-15.36458
 30
0.0
 10
-10.274
 20
-15.36032
 30
0.0
 10
-10.274
 20
-15.36032
 30
0.0
 10
-10.274
 20
-15.35605
 30
0.0
 10
-10.27483
 20
-15.35278
 30
0.0
 10
-10.27652
 20
-15.3505
 30
0.0
 10
-10.27652
 20
-15.3505
 30
0.0
 10
-10.27818
 20
-15.34822
 30
0.0
 10
-10.28058
 20
-15.34708
 30
0.0
 10
-10.28372
 20
-15.34708
 30
0.0
  0
SPLINE
  5
90
330
1F
100
AcDbEntity
  8
Layer 1
 62
   250
100
AcDbSpline
210
0.0
220
0.0
230
1.0
 70
    11
 71
     3
 72
    72
 73
    68
 74
     0
 42
0.0000000001
 43
0.0000000001
 40
0.0
 40
0.0
 40
0.0
 40
0.0
 40
0.0588235294117647
 40
0.0588235294117647
 40
0.0588235294117647
 40
0.0588235294117647
 40
0.1176470588235294
 40
0.1176470588235294
 40
0.1176470588235294
 40
0.1176470588235294
 40
0.1764705882352941
 40
0.1764705882352941
 40
0.1764705882352941
 40
0.1764705882352941
 40
0.2352941176470588
 40
0.2352941176470588
 40
0.2352941176470588
 40
0.2352941176470588
 40
0.2941176470588235
 40
0.2941176470588235
 40
0.2941176470588235
 40
0.2941176470588235
 40
0.3529411764705883
 40
0.3529411764705883
 40
0.3529411764705883
 40
0.3529411764705883
 40
0.411764705882353
 40
0.411764705882353
 40
0.411764705882353
 40
0.411764705882353
 40
0.4705882352941177
 40
0.4705882352941177
 40
0.4705882352941177
 40
0.4705882352941177
 40
0.5294117647058824
 40
0.5294117647058824
 40
0.5294117647058824
 40
0.5294117647058824
 40
0.5882352941176471
 40
0.5882352941176471
 40
0.5882352941176471
 40
0.5882352941176471
 40
0.6470588235294118
 40
0.6470588235294118
 40
0.6470588235294118
 40
0.6470588235294118
 40
0.7058823529411765
 40
0.7058823529411765
 40
0.7058823529411765
 40
0.7058823529411765
 40
0.7647058823529412
 40
0.7647058823529412
 40
0.7647058823529412
 40
0.7647058823529412
 40
0.823529411764706
 40
0.823529411764706
 40
0.823529411764706
 40
0.823529411764706
 40
0.8823529411764707
 40
0.8823529411764707
 40
0.8823529411764707
 40
0.8823529411764707
 40
0.9411764705882354
 40
0.9411764705882354
 40
0.9411764705882354
 40
0.9411764705882354
 40
1.0
 40
1.0
 40
1.0
 40
1.0
 10
-10.26483
 20
-15.31243
 30
0.0
 10
-10.26483
 20
-15.31243
 30
0.0
 10
-10.26483
 20
-15.32551
 30
0.0
 10
-10.26483
 20
-15.32551
 30
0.0
 10
-10.26483
 20
-15.32551
 30
0.0
 10
-10.2674
 20
-15.32405
 30
0.0
 10
-10.26987
 20
-15.32295
 30
0.0
 10
-10.27223
 20
-15.32221
 30
0.0
 10
-10.27223
 20
-15.32221
 30
0.0
 10
-10.27458
 20
-15.32148
 30
0.0
 10
-10.27685
 20
-15.32111
 30
0.0
 10
-10.27903
 20
-15.32111
 30
0.0
 10
-10.27903
 20
-15.32111
 30
0.0
 10
-10.28423
 20
-15.32111
 30
0.0
 10
-10.2882
 20
-15.32286
 30
0.0
 10
-10.29092
 20
-15.32636
 30
0.0
 10
-10.29092
 20
-15.32636
 30
0.0
 10
-10.29363
 20
-15.32986
 30
0.0
 10
-10.29505
 20
-15.33503
 30
0.0
 10
-10.29518
 20
-15.34187
 30
0.0
 10
-10.29518
 20
-15.34187
 30
0.0
 10
-10.29365
 20
-15.33975
 30
0.0
 10
-10.2917
 20
-15.33817
 30
0.0
 10
-10.28933
 20
-15.3371
 30
0.0
 10
-10.28933
 20
-15.3371
 30
0.0
 10
-10.28695
 20
-15.33605
 30
0.0
 10
-10.28415
 20
-15.33552
 30
0.0
 10
-10.28093
 20
-15.33552
 30
0.0
 10
-10.28093
 20
-15.33552
 30
0.0
 10
-10.27435
 20
-15.33552
 30
0.0
 10
-10.26928
 20
-15.3376
 30
0.0
 10
-10.2657
 20
-15.34175
 30
0.0
 10
-10.2657
 20
-15.34175
 30
0.0
 10
-10.26211
 20
-15.3459
 30
0.0
 10
-10.26033
 20
-15.35178
 30
0.0
 10
-10.26033
 20
-15.3594
 30
0.0
 10
-10.26033
 20
-15.3594
 30
0.0
 10
-10.26033
 20
-15.36757
 30
0.0
 10
-10.26235
 20
-15.3739
 30
0.0
 10
-10.26637
 20
-15.3784
 30
0.0
 10
-10.26637
 20
-15.3784
 30
0.0
 10
-10.27038
 20
-15.38289
 30
0.0
 10
-10.27603
 20
-15.38514
 30
0.0
 10
-10.28333
 20
-15.38514
 30
0.0
 10
-10.28333
 20
-15.38514
 30
0.0
 10
-10.29222
 20
-15.38514
 30
0.0
 10
-10.29867
 20
-15.38215
 30
0.0
 10
-10.30269
 20
-15.3762
 30
0.0
 10
-10.30269
 20
-15.3762
 30
0.0
 10
-10.3067
 20
-15.37024
 30
0.0
 10
-10.30872
 20
-15.36062
 30
0.0
 10
-10.30872
 20
-15.34733
 30
0.0
 10
-10.30872
 20
-15.34733
 30
0.0
 10
-10.30872
 20
-15.33472
 30
0.0
 10
-10.30627
 20
-15.32525
 30
0.0
 10
-10.30135
 20
-15.31895
 30
0.0
 10
-10.30135
 20
-15.31895
 30
0.0
 10
-10.29643
 20
-15.31265
 30
0.0
 10
-10.28907
 20
-15.3095
 30
0.0
 10
-10.27923
 20
-15.3095
 30
0.0
 10
-10.27923
 20
-15.3095
 30
0.0
 10
-10.27695
 20
-15.3095
 30
0.0
 10
-10.2746
 20
-15.30975
 30
0.0
 10
-10.27218
 20
-15.31023
 30
0.0
 10
-10.27218
 20
-15.31023
 30
0.0
 10
-10.26975
 20
-15.31071
 30
0.0
 10
-10.2673
 20
-15.31145
 30
0.0
 10
-10.26483
 20
-15.31243
 30
0.0
  0
SPLINE
  5
91
330
1F
100
AcDbEntity
  8
Layer 1
 62
   250
100
AcDbSpline
210
0.0
220
0.0
230
1.0
 70
    11
 71
     3
 72
    36
 73
    32
 74
     0
 42
0.0000000001
 43
0.0000000001
 40
0.0
 40
0.0
 40
0.0
 40
0.0
 40
0.125
 40
0.125
 40
0.125
 40
0.125
 40
0.25
 40
0.25
 40
0.25
 40
0.25
 40
0.375
 40
0.375
 40
0.375
 40
0.375
 40
0.5
 40
0.5
 40
0.5
 40
0.5
 40
0.625
 40
0.625
 40
0.625
 40
0.625
 40
0.75
 40
0.75
 40
0.75
 40
0.75
 40
0.875
 40
0.875
 40
0.875
 40
0.875
 40
1.0
 40
1.0
 40
1.0
 40
1.0
 10
-10.22482
 20
-15.35108
 30
0.0
 10
-10.22806
 20
-15.35108
 30
0.0
 10
-10.23066
 20
-15.3521
 30
0.0
 10
-10.23264
 20
-15.35413
 30
0.0
 10
-10.23264
 20
-15.35413
 30
0.0
 10
-10.23462
 20
-15.35617
 30
0.0
 10
-10.23562
 20
-15.35887
 30
0.0
 10
-10.23562
 20
-15.36223
 30
0.0
 10
-10.23562
 20
-15.36223
 30
0.0
 10
-10.23562
 20
-15.36558
 30
0.0
 10
-10.23462
 20
-15.36829
 30
0.0
 10
-10.23264
 20
-15.37034
 30
0.0
 10
-10.23264
 20
-15.37034
 30
0.0
 10
-10.23066
 20
-15.37239
 30
0.0
 10
-10.22806
 20
-15.37342
 30
0.0
 10
-10.22482
 20
-15.37342
 30
0.0
 10
-10.22482
 20
-15.37342
 30
0.0
 10
-10.22161
 20
-15.37342
 30
0.0
 10
-10.21899
 20
-15.37237
 30
0.0
 10
-10.21699
 20
-15.37029
 30
0.0
 10
-10.21699
 20
-15.37029
 30
0.0
 10
-10.21499
 20
-15.3682
 30
0.0
 10
-10.21399
 20
-15.36552
 30
0.0
 10
-10.21399
 20
-15.36223
 30
0.0
 10
-10.21399
 20
-15.36223
 30
0.0
 10
-10.21399
 20
-15.35887
 30
0.0
 10
-10.21499
 20
-15.35617
 30
0.0
 10
-10.21697
 20
-15.35413
 30
0.0
 10
-10.21697
 20
-15.35413
 30
0.0
 10
-10.21896
 20
-15.3521
 30
0.0
 10
-10.22157
 20
-15.35108
 30
0.0
 10
-10.22482
 20
-15.35108
 30
0.0
  0
SPLINE
  5
92
330
1F
100
AcDbEntity
  8
Layer 1
 62
   250
100
AcDbSpline
210
0.0
220
0.0
230
1.0
 70
    11
 71
     3
 72
    68
 73
    64
 74
     0
 42
0.0000000001
 43
0.0000000001
 40
0.0
 40
0.0
 40
0.0
 40
0.0
 40
0.0625
 40
0.0625
 40
0.0625
 40
0.0625
 40
0.125
 40
0.125
 40
0.125
 40
0.125
 40
0.1875
 40
0.1875
 40
0.1875
 40
0.1875
 40
0.25
 40
0.25
 40
0.25
 40
0.25
 40
0.3125
 40
0.3125
 40
0.3125
 40
0.3125
 40
0.375
 40
0.375
 40
0.375
 40
0.375
 40
0.4375
 40
0.4375
 40
0.4375
 40
0.4375
 40
0.5
 40
0.5
 40
0.5
 40
0.5
 40
0.5625
 40
0.5625
 40
0.5625
 40
0.5625
 40
0.625
 40
0.625
 40
0.625
 40
0.625
 40
0.6875
 40
0.6875
 40
0.6875
 40
0.6875
 40
0.75
 40
0.75
 40
0.75
 40
0.75
 40
0.8125
 40
0.8125
 40
0.8125
 40
0.8125
 40
0.875
 40
0.875
 40
0.875
 40
0.875
 40
0.9375
 40
0.9375
 40
0.9375
 40
0.9375
 40
1.0
 40
1.0
 40
1.0
 40
1.0
 10
-10.23552
 20
-15.34498
 30
0.0
 10
-10.23921
 20
-15.34372
 30
0.0
 10
-10.24201
 20
-15.34172
 30
0.0
 10
-10.24393
 20
-15.339
 30
0.0
 10
-10.24393
 20
-15.339
 30
0.0
 10
-10.24584
 20
-15.33628
 30
0.0
 10
-10.24681
 20
-15.33296
 30
0.0
 10
-10.24681
 20
-15.32901
 30
0.0
 10
-10.24681
 20
-15.32901
 30
0.0
 10
-10.24681
 20
-15.32296
 30
0.0
 10
-10.24484
 20
-15.31818
 30
0.0
 10
-10.24089
 20
-15.31466
 30
0.0
 10
-10.24089
 20
-15.31466
 30
0.0
 10
-10.23696
 20
-15.31115
 30
0.0
 10
-10.23161
 20
-15.3094
 30
0.0
 10
-10.22482
 20
-15.3094
 30
0.0
 10
-10.22482
 20
-15.3094
 30
0.0
 10
-10.21802
 20
-15.3094
 30
0.0
 10
-10.21266
 20
-15.31115
 30
0.0
 10
-10.20872
 20
-15.31466
 30
0.0
 10
-10.20872
 20
-15.31466
 30
0.0
 10
-10.20477
 20
-15.31818
 30
0.0
 10
-10.2028
 20
-15.32296
 30
0.0
 10
-10.2028
 20
-15.32901
 30
0.0
 10
-10.2028
 20
-15.32901
 30
0.0
 10
-10.2028
 20
-15.33293
 30
0.0
 10
-10.20375
 20
-15.33623
 30
0.0
 10
-10.20564
 20
-15.33895
 30
0.0
 10
-10.20564
 20
-15.33895
 30
0.0
 10
-10.20752
 20
-15.34167
 30
0.0
 10
-10.21027
 20
-15.34368
 30
0.0
 10
-10.21389
 20
-15.34498
 30
0.0
 10
-10.21389
 20
-15.34498
 30
0.0
 10
-10.20986
 20
-15.34622
 30
0.0
 10
-10.20671
 20
-15.34843
 30
0.0
 10
-10.20442
 20
-15.35163
 30
0.0
 10
-10.20442
 20
-15.35163
 30
0.0
 10
-10.20214
 20
-15.35482
 30
0.0
 10
-10.201
 20
-15.35865
 30
0.0
 10
-10.201
 20
-15.3631
 30
0.0
 10
-10.201
 20
-15.3631
 30
0.0
 10
-10.201
 20
-15.3701
 30
0.0
 10
-10.20307
 20
-15.37552
 30
0.0
 10
-10.20721
 20
-15.37932
 30
0.0
 10
-10.20721
 20
-15.37932
 30
0.0
 10
-10.21134
 20
-15.38314
 30
0.0
 10
-10.21722
 20
-15.38504
 30
0.0
 10
-10.22482
 20
-15.38504
 30
0.0
 10
-10.22482
 20
-15.38504
 30
0.0
 10
-10.23241
 20
-15.38504
 30
0.0
 10
-10.23828
 20
-15.38314
 30
0.0
 10
-10.24241
 20
-15.37932
 30
0.0
 10
-10.24241
 20
-15.37932
 30
0.0
 10
-10.24654
 20
-15.37552
 30
0.0
 10
-10.24861
 20
-15.3701
 30
0.0
 10
-10.24861
 20
-15.3631
 30
0.0
 10
-10.24861
 20
-15.3631
 30
0.0
 10
-10.24861
 20
-15.35862
 30
0.0
 10
-10.24746
 20
-15.35477
 30
0.0
 10
-10.24514
 20
-15.35158
 30
0.0
 10
-10.24514
 20
-15.35158
 30
0.0
 10
-10.24283
 20
-15.34838
 30
0.0
 10
-10.23963
 20
-15.34618
 30
0.0
 10
-10.23552
 20
-15.34498
 30
0.0
  0
SPLINE
  5
93
330
1F
100
AcDbEntity
  8
Layer 1
 62
   250
100
AcDbSpline
210
0.0
220
0.0
230
1.0
 70
    11
 71
     3
 72
    36
 73
    32
 74
     0
 42
0.0000000001
 43
0.0000000001
 40
0.0
 40
0.0
 40
0.0
 40
0.0
 40
0.125
 40
0.125
 40
0.125
 40
0.125
 40
0.25
 40
0.25
 40
0.25
 40
0.25
 40
0.375
 40
0.375
 40
0.375
 40
0.375
 40
0.5
 40
0.5
 40
0.5
 40
0.5
 40
0.625
 40
0.625
 40
0.625
 40
0.625
 40
0.75
 40
0.75
 40
0.75
 40
0.75
 40
0.875
 40
0.875
 40
0.875
 40
0.875
 40
1.0
 40
1.0
 40
1.0
 40
1.0
 10
-10.23401
 20
-15.3302
 30
0.0
 10
-10.23401
 20
-15.33305
 30
0.0
 10
-10.23319
 20
-15.33533
 30
0.0
 10
-10.23154
 20
-15.337
 30
0.0
 10
-10.23154
 20
-15.337
 30
0.0
 10
-10.22991
 20
-15.33868
 30
0.0
 10
-10.22766
 20
-15.33952
 30
0.0
 10
-10.22482
 20
-15.33952
 30
0.0
 10
-10.22482
 20
-15.33952
 30
0.0
 10
-10.22197
 20
-15.33952
 30
0.0
 10
-10.21971
 20
-15.33868
 30
0.0
 10
-10.21807
 20
-15.337
 30
0.0
 10
-10.21807
 20
-15.337
 30
0.0
 10
-10.21642
 20
-15.33533
 30
0.0
 10
-10.21561
 20
-15.33305
 30
0.0
 10
-10.21561
 20
-15.3302
 30
0.0
 10
-10.21561
 20
-15.3302
 30
0.0
 10
-10.21561
 20
-15.32736
 30
0.0
 10
-10.21642
 20
-15.32513
 30
0.0
 10
-10.21807
 20
-15.32348
 30
0.0
 10
-10.21807
 20
-15.32348
 30
0.0
 10
-10.21971
 20
-15.32183
 30
0.0
 10
-10.22197
 20
-15.32101
 30
0.0
 10
-10.22482
 20
-15.32101
 30
0.0
 10
-10.22482
 20
-15.32101
 30
0.0
 10
-10.22762
 20
-15.32101
 30
0.0
 10
-10.22986
 20
-15.32185
 30
0.0
 10
-10.23152
 20
-15.3235
 30
0.0
 10
-10.23152
 20
-15.3235
 30
0.0
 10
-10.23317
 20
-15.32516
 30
0.0
 10
-10.23401
 20
-15.3274
 30
0.0
 10
-10.23401
 20
-15.3302
 30
0.0
  0
SPLINE
  5
94
330
1F
100
AcDbEntity
  8
Layer 1
 62
   250
100
AcDbSpline
210
0.0
220
0.0
230
1.0
 70
    11
 71
     3
 72
    88
 73
    84
 74
     0
 42
0.0000000001
 43
0.0000000001
 40
0.0
 40
0.0
 40
0.0
 40
0.0
 40
0.0476190476190476
 40
0.0476190476190476
 40
0.0476190476190476
 40
0.0476190476190476
 40
0.0952380952380952
 40
0.0952380952380952
 40
0.0952380952380952
 40
0.0952380952380952
 40
0.1428571428571428
 40
0.1428571428571428
 40
0.1428571428571428
 40
0.1428571428571428
 40
0.1904761904761905
 40
0.1904761904761905
 40
0.1904761904761905
 40
0.1904761904761905
 40
0.2380952380952381
 40
0.2380952380952381
 40
0.2380952380952381
 40
0.2380952380952381
 40
0.2857142857142857
 40
0.2857142857142857
 40
0.2857142857142857
 40
0.2857142857142857
 40
0.3333333333333333
 40
0.3333333333333333
 40
0.3333333333333333
 40
0.3333333333333333
 40
0.3809523809523809
 40
0.3809523809523809
 40
0.3809523809523809
 40
0.3809523809523809
 40
0.4285714285714285
 40
0.4285714285714285
 40
0.4285714285714285
 40
0.4285714285714285
 40
0.4761904761904762
 40
0.4761904761904762
 40
0.4761904761904762
 40
0.4761904761904762
 40
0.5238095238095237
 40
0.5238095238095237
 40
0.5238095238095237
 40
0.5238095238095237
 40
0.5714285714285714
 40
0.5714285714285714
 40
0.5714285714285714
 40
0.5714285714285714
 40
0.6190476190476191
 40
0.6190476190476191
 40
0.6190476190476191
 40
0.6190476190476191
 40
0.6666666666666667
 40
0.6666666666666667
 40
0.6666666666666667
 40
0.6666666666666667
 40
0.7142857142857144
 40
0.7142857142857144
 40
0.7142857142857144
 40
0.7142857142857144
 40
0.7619047619047621
 40
0.7619047619047621
 40
0.7619047619047621
 40
0.7619047619047621
 40
0.8095238095238098
 40
0.8095238095238098
 40
0.8095238095238098
 40
0.8095238095238098
 40
0.8571428571428574
 40
0.8571428571428574
 40
0.8571428571428574
 40
0.8571428571428574
 40
0.9047619047619051
 40
0.9047619047619051
 40
0.9047619047619051
 40
0.9047619047619051
 40
0.9523809523809528
 40
0.9523809523809528
 40
0.9523809523809528
 40
0.9523809523809528
 40
1.0
 40
1.0
 40
1.0
 40
1.0
 10
-10.17351
 20
-15.37092
 30
0.0
 10
-10.17351
 20
-15.37092
 30
0.0
 10
-10.14279
 20
-15.37092
 30
0.0
 10
-10.14279
 20
-15.37092
 30
0.0
 10
-10.14279
 20
-15.37092
 30
0.0
 10
-10.14279
 20
-15.37092
 30
0.0
 10
-10.14279
 20
-15.38362
 30
0.0
 10
-10.14279
 20
-15.38362
 30
0.0
 10
-10.14279
 20
-15.38362
 30
0.0
 10
-10.14279
 20
-15.38362
 30
0.0
 10
-10.18908
 20
-15.38362
 30
0.0
 10
-10.18908
 20
-15.38362
 30
0.0
 10
-10.18908
 20
-15.38362
 30
0.0
 10
-10.18908
 20
-15.38362
 30
0.0
 10
-10.18908
 20
-15.3713
 30
0.0
 10
-10.18908
 20
-15.3713
 30
0.0
 10
-10.18908
 20
-15.3713
 30
0.0
 10
-10.18908
 20
-15.3713
 30
0.0
 10
-10.18127
 20
-15.36302
 30
0.0
 10
-10.18127
 20
-15.36302
 30
0.0
 10
-10.18127
 20
-15.36302
 30
0.0
 10
-10.172
 20
-15.35315
 30
0.0
 10
-10.16636
 20
-15.34708
 30
0.0
 10
-10.16438
 20
-15.3448
 30
0.0
 10
-10.16438
 20
-15.3448
 30
0.0
 10
-10.16195
 20
-15.342
 30
0.0
 10
-10.16018
 20
-15.33952
 30
0.0
 10
-10.15911
 20
-15.33735
 30
0.0
 10
-10.15911
 20
-15.33735
 30
0.0
 10
-10.15803
 20
-15.33518
 30
0.0
 10
-10.1575
 20
-15.33305
 30
0.0
 10
-10.1575
 20
-15.33093
 30
0.0
 10
-10.1575
 20
-15.33093
 30
0.0
 10
-10.1575
 20
-15.32768
 30
0.0
 10
-10.15848
 20
-15.32516
 30
0.0
 10
-10.16045
 20
-15.3234
 30
0.0
 10
-10.16045
 20
-15.3234
 30
0.0
 10
-10.16241
 20
-15.32161
 30
0.0
 10
-10.16521
 20
-15.32073
 30
0.0
 10
-10.16881
 20
-15.32073
 30
0.0
 10
-10.16881
 20
-15.32073
 30
0.0
 10
-10.1714
 20
-15.32073
 30
0.0
 10
-10.17428
 20
-15.32125
 30
0.0
 10
-10.17748
 20
-15.32226
 30
0.0
 10
-10.17748
 20
-15.32226
 30
0.0
 10
-10.1807
 20
-15.3233
 30
0.0
 10
-10.18403
 20
-15.32478
 30
0.0
 10
-10.18752
 20
-15.32673
 30
0.0
 10
-10.18752
 20
-15.32673
 30
0.0
 10
-10.18752
 20
-15.32673
 30
0.0
 10
-10.18752
 20
-15.3133
 30
0.0
 10
-10.18752
 20
-15.3133
 30
0.0
 10
-10.18752
 20
-15.3133
 30
0.0
 10
-10.18403
 20
-15.31203
 30
0.0
 10
-10.18063
 20
-15.31106
 30
0.0
 10
-10.17728
 20
-15.3104
 30
0.0
 10
-10.17728
 20
-15.3104
 30
0.0
 10
-10.17395
 20
-15.30973
 30
0.0
 10
-10.17075
 20
-15.3094
 30
0.0
 10
-10.1677
 20
-15.3094
 30
0.0
 10
-10.1677
 20
-15.3094
 30
0.0
 10
-10.15998
 20
-15.3094
 30
0.0
 10
-10.15391
 20
-15.3112
 30
0.0
 10
-10.14951
 20
-15.3148
 30
0.0
 10
-10.14951
 20
-15.3148
 30
0.0
 10
-10.1451
 20
-15.31838
 30
0.0
 10
-10.14289
 20
-15.3233
 30
0.0
 10
-10.14289
 20
-15.32951
 30
0.0
 10
-10.14289
 20
-15.32951
 30
0.0
 10
-10.14289
 20
-15.33238
 30
0.0
 10
-10.14338
 20
-15.33507
 30
0.0
 10
-10.14433
 20
-15.33757
 30
0.0
 10
-10.14433
 20
-15.33757
 30
0.0
 10
-10.1453
 20
-15.34008
 30
0.0
 10
-10.14695
 20
-15.34287
 30
0.0
 10
-10.1493
 20
-15.34592
 30
0.0
 10
-10.1493
 20
-15.34592
 30
0.0
 10
-10.15101
 20
-15.34813
 30
0.0
 10
-10.15575
 20
-15.35312
 30
0.0
 10
-10.1635
 20
-15.36087
 30
0.0
 10
-10.1635
 20
-15.36087
 30
0.0
 10
-10.1677
 20
-15.36505
 30
0.0
 10
-10.17103
 20
-15.36842
 30
0.0
 10
-10.17351
 20
-15.37092
 30
0.0
  0
ENDSEC
  0
SECTION
  2
OBJECTS
  0
DICTIONARY
  5
C
330
0
100
AcDbDictionary
281
     1
  3
ACAD_GROUP
350
D
  3
ACAD_LAYOUT
350
1A
  3
ACAD_MLEADERSTYLE
350
96
  3
ACAD_MLINESTYLE
350
17
  3
ACAD_PLOTSETTINGS
350
19
  3
ACAD_PLOTSTYLENAME
350
E
  3
ACAD_SCALELIST
350
3B
  3
ACAD_TABLESTYLE
350
95
  3
ACAD_VISUALSTYLE
350
2A
  0
DICTIONARY
  5
D
102
{ACAD_REACTORS
330
C
102
}
330
C
100
AcDbDictionary
281
     1
  0
DICTIONARY
  5
1A
102
{ACAD_REACTORS
330
C
102
}
330
C
100
AcDbDictionary
281
     1
  3
Layout1
350
1E
  3
Layout2
350
26
  3
Model
350
22
  0
DICTIONARY
  5
96
102
{ACAD_REACTORS
330
C
102
}
330
C
100
AcDbDictionary
281
     1
  0
DICTIONARY
  5
17
102
{ACAD_REACTORS
330
C
102
}
330
C
100
AcDbDictionary
281
     1
  3
Standard
350
18
  0
DICTIONARY
  5
19
102
{ACAD_REACTORS
330
C
102
}
330
C
100
AcDbDictionary
281
     1
  0
ACDBDICTIONARYWDFLT
  5
E
102
{ACAD_REACTORS
330
C
102
}
330
C
100
AcDbDictionary
281
     1
  3
Normal
350
F
100
AcDbDictionaryWithDefault
340
F
  0
DICTIONARY
  5
3B
102
{ACAD_REACTORS
330
C
102
}
330
C
100
AcDbDictionary
281
     1
  3
A0
350
3C
  3
A1
350
3D
  3
A2
350
3E
  3
A3
350
3F
  3
A4
350
40
  3
A5
350
41
  3
A6
350
42
  3
A7
350
43
  3
A8
350
44
  3
A9
350
45
  3
B0
350
46
  3
B1
350
47
  3
B2
350
48
  3
B3
350
49
  3
B4
350
4A
  3
B5
350
4B
  3
B6
350
4C
  3
B7
350
4D
  3
B8
350
4E
  3
B9
350
4F
  3
C0
350
50
  3
C1
350
51
  3
C2
350
52
  3
C3
350
53
  3
C4
350
54
  3
C5
350
55
  3
C6
350
56
  3
C7
350
57
  3
C8
350
58
  3
C9
350
59
  3
D0
350
5A
  3
D1
350
5B
  3
D2
350
5C
  0
DICTIONARY
  5
95
102
{ACAD_REACTORS
330
C
102
}
330
C
100
AcDbDictionary
281
     1
  0
DICTIONARY
  5
2A
102
{ACAD_REACTORS
330
C
102
}
330
C
100
AcDbDictionary
281
     1
  3
2dWireframe
350
2F
  3
3D Hidden
350
31
  3
3dWireframe
350
30
  3
Basic
350
32
  3
Brighten
350
36
  3
ColorChange
350
3A
  3
Conceptual
350
34
  3
Dim
350
35
  3
Facepattern
350
39
  3
Flat
350
2B
  3
FlatWithEdges
350
2C
  3
Gouraud
350
2D
  3
GouraudWithEdges
350
2E
  3
Linepattern
350
38
  3
Realistic
350
33
  3
Thicken
350
37
  0
LAYOUT
  5
1E
102
{ACAD_REACTORS
330
1A
102
}
330
1A
100
AcDbPlotSettings
  1

  2
none_device
  4

  6

 40
0.0
 41
0.0
 42
0.0
 43
0.0
 44
0.0
 45
0.0
 46
0.0
 47
0.0
 48
0.0
 49
0.0
140
0.0
141
0.0
142
1.0
143
1.0
 70
   688
 72
     0
 73
     0
 74
     5
  7

 75
    16
 76
     0
 77
     2
 78
   300
147
1.0
148
0.0
149
0.0
100
AcDbLayout
  1
Layout1
 70
     1
 71
     1
 10
0.0
 20
0.0
 11
12.0
 21
9.0
 12
0.0
 22
0.0
 32
0.0
 14
1.000000000000000E+20
 24
1.000000000000000E+20
 34
1.000000000000000E+20
 15
-1.000000000000000E+20
 25
-1.000000000000000E+20
 35
-1.000000000000000E+20
146
0.0
 13
0.0
 23
0.0
 33
0.0
 16
1.0
 26
0.0
 36
0.0
 17
0.0
 27
1.0
 37
0.0
 76
     0
330
1B
  0
LAYOUT
  5
26
102
{ACAD_REACTORS
330
1A
102
}
330
1A
100
AcDbPlotSettings
  1

  2
none_device
  4

  6

 40
0.0
 41
0.0
 42
0.0
 43
0.0
 44
0.0
 45
0.0
 46
0.0
 47
0.0
 48
0.0
 49
0.0
140
0.0
141
0.0
142
1.0
143
1.0
 70
   688
 72
     0
 73
     0
 74
     5
  7

 75
    16
 76
     0
 77
     2
 78
   300
147
1.0
148
0.0
149
0.0
100
AcDbLayout
  1
Layout2
 70
     1
 71
     2
 10
0.0
 20
0.0
 11
0.0
 21
0.0
 12
0.0
 22
0.0
 32
0.0
 14
0.0
 24
0.0
 34
0.0
 15
0.0
 25
0.0
 35
0.0
146
0.0
 13
0.0
 23
0.0
 33
0.0
 16
1.0
 26
0.0
 36
0.0
 17
0.0
 27
1.0
 37
0.0
 76
     0
330
23
  0
LAYOUT
  5
22
102
{ACAD_REACTORS
330
1A
102
}
330
1A
100
AcDbPlotSettings
  1

  2
none_device
  4

  6

 40
0.0
 41
0.0
 42
0.0
 43
0.0
 44
0.0
 45
0.0
 46
0.0
 47
0.0
 48
0.0
 49
0.0
140
0.0
141
0.0
142
1.0
143
1.0
 70
  1712
 72
     0
 73
     0
 74
     0
  7

 75
     0
 76
     0
 77
     2
 78
   300
147
1.0
148
0.0
149
0.0
100
AcDbLayout
  1
Model
 70
     1
 71
     0
 10
0.0
 20
0.0
 11
12.0
 21
9.0
 12
0.0
 22
0.0
 32
0.0
 14
-11.55
 24
-15.85
 34
0.0
 15
-9.45
 25
-13.85
 35
0.0
146
0.0
 13
0.0
 23
0.0
 33
0.0
 16
1.0
 26
0.0
 36
0.0
 17
0.0
 27
1.0
 37
0.0
 76
     0
330
1F
331
29
  0
MLINESTYLE
  5
18
102
{ACAD_REACTORS
330
17
102
}
330
17
100
AcDbMlineStyle
  2
Standard
 70
     0
  3

 62
   256
 51
90.0
 52
90.0
 71
     2
 49
0.5
 62
   256
  6
BYLAYER
 49
-0.5
 62
   256
  6
BYLAYER
  0
ACDBPLACEHOLDER
  5
F
102
{ACAD_REACTORS
330
E
102
}
330
E
  0
SCALE
  5
3C
102
{ACAD_REACTORS
330
3B
102
}
330
3B
100
AcDbScale
 70
     0
300
1:1
140
1.0
141
1.0
290
     1
  0
SCALE
  5
3D
102
{ACAD_REACTORS
330
3B
102
}
330
3B
100
AcDbScale
 70
     0
300
1:2
140
1.0
141
2.0
290
     0
  0
SCALE
  5
3E
102
{ACAD_REACTORS
330
3B
102
}
330
3B
100
AcDbScale
 70
     0
300
1:4
140
1.0
141
4.0
290
     0
  0
SCALE
  5
3F
102
{ACAD_REACTORS
330
3B
102
}
330
3B
100
AcDbScale
 70
     0
300
1:5
140
1.0
141
5.0
290
     0
  0
SCALE
  5
40
102
{ACAD_REACTORS
330
3B
102
}
330
3B
100
AcDbScale
 70
     0
300
1:8
140
1.0
141
8.0
290
     0
  0
SCALE
  5
41
102
{ACAD_REACTORS
330
3B
102
}
330
3B
100
AcDbScale
 70
     0
300
1:10
140
1.0
141
10.0
290
     0
  0
SCALE
  5
42
102
{ACAD_REACTORS
330
3B
102
}
330
3B
100
AcDbScale
 70
     0
300
1:16
140
1.0
141
16.0
290
     0
  0
SCALE
  5
43
102
{ACAD_REACTORS
330
3B
102
}
330
3B
100
AcDbScale
 70
     0
300
1:20
140
1.0
141
20.0
290
     0
  0
SCALE
  5
44
102
{ACAD_REACTORS
330
3B
102
}
330
3B
100
AcDbScale
 70
     0
300
1:30
140
1.0
141
30.0
290
     0
  0
SCALE
  5
45
102
{ACAD_REACTORS
330
3B
102
}
330
3B
100
AcDbScale
 70
     0
300
1:40
140
1.0
141
40.0
290
     0
  0
SCALE
  5
46
102
{ACAD_REACTORS
330
3B
102
}
330
3B
100
AcDbScale
 70
     0
300
1:50
140
1.0
141
50.0
290
     0
  0
SCALE
  5
47
102
{ACAD_REACTORS
330
3B
102
}
330
3B
100
AcDbScale
 70
     0
300
1:100
140
1.0
141
100.0
290
     0
  0
SCALE
  5
48
102
{ACAD_REACTORS
330
3B
102
}
330
3B
100
AcDbScale
 70
     0
300
2:1
140
2.0
141
1.0
290
     0
  0
SCALE
  5
49
102
{ACAD_REACTORS
330
3B
102
}
330
3B
100
AcDbScale
 70
     0
300
4:1
140
4.0
141
1.0
290
     0
  0
SCALE
  5
4A
102
{ACAD_REACTORS
330
3B
102
}
330
3B
100
AcDbScale
 70
     0
300
8:1
140
8.0
141
1.0
290
     0
  0
SCALE
  5
4B
102
{ACAD_REACTORS
330
3B
102
}
330
3B
100
AcDbScale
 70
     0
300
10:1
140
10.0
141
1.0
290
     0
  0
SCALE
  5
4C
102
{ACAD_REACTORS
330
3B
102
}
330
3B
100
AcDbScale
 70
     0
300
100:1
140
100.0
141
1.0
290
     0
  0
SCALE
  5
4D
102
{ACAD_REACTORS
330
3B
102
}
330
3B
100
AcDbScale
 70
     0
300
1/128" = 1'-0"
140
0.0078125
141
12.0
290
     0
  0
SCALE
  5
4E
102
{ACAD_REACTORS
330
3B
102
}
330
3B
100
AcDbScale
 70
     0
300
1/64" = 1'-0"
140
0.015625
141
12.0
290
     0
  0
SCALE
  5
4F
102
{ACAD_REACTORS
330
3B
102
}
330
3B
100
AcDbScale
 70
     0
300
1/32" = 1'-0"
140
0.03125
141
12.0
290
     0
  0
SCALE
  5
50
102
{ACAD_REACTORS
330
3B
102
}
330
3B
100
AcDbScale
 70
     0
300
1/16" = 1'-0"
140
0.0625
141
12.0
290
     0
  0
SCALE
  5
51
102
{ACAD_REACTORS
330
3B
102
}
330
3B
100
AcDbScale
 70
     0
300
3/32" = 1'-0"
140
0.09375
141
12.0
290
     0
  0
SCALE
  5
52
102
{ACAD_REACTORS
330
3B
102
}
330
3B
100
AcDbScale
 70
     0
300
1/8" = 1'-0"
140
0.125
141
12.0
290
     0
  0
SCALE
  5
53
102
{ACAD_REACTORS
330
3B
102
}
330
3B
100
AcDbScale
 70
     0
300
3/16" = 1'-0"
140
0.1875
141
12.0
290
     0
  0
SCALE
  5
54
102
{ACAD_REACTORS
330
3B
102
}
330
3B
100
AcDbScale
 70
     0
300
1/4" = 1'-0"
140
0.25
141
12.0
290
     0
  0
SCALE
  5
55
102
{ACAD_REACTORS
330
3B
102
}
330
3B
100
AcDbScale
 70
     0
300
3/8" = 1'-0"
140
0.375
141
12.0
290
     0
  0
SCALE
  5
56
102
{ACAD_REACTORS
330
3B
102
}
330
3B
100
AcDbScale
 70
     0
300
1/2" = 1'-0"
140
0.5
141
12.0
290
     0
  0
SCALE
  5
57
102
{ACAD_REACTORS
330
3B
102
}
330
3B
100
AcDbScale
 70
     0
300
3/4" = 1'-0"
140
0.75
141
12.0
290
     0
  0
SCALE
  5
58
102
{ACAD_REACTORS
330
3B
102
}
330
3B
100
AcDbScale
 70
     0
300
1" = 1'-0"
140
1.0
141
12.0
290
     0
  0
SCALE
  5
59
102
{ACAD_REACTORS
330
3B
102
}
330
3B
100
AcDbScale
 70
     0
300
1-1/2" = 1'-0"
140
1.5
141
12.0
290
     0
  0
SCALE
  5
5A
102
{ACAD_REACTORS
330
3B
102
}
330
3B
100
AcDbScale
 70
     0
300
3" = 1'-0"
140
3.0
141
12.0
290
     0
  0
SCALE
  5
5B
102
{ACAD_REACTORS
330
3B
102
}
330
3B
100
AcDbScale
 70
     0
300
6" = 1'-0"
140
6.0
141
12.0
290
     0
  0
SCALE
  5
5C
102
{ACAD_REACTORS
330
3B
102
}
330
3B
100
AcDbScale
 70
     0
300
1'-0" = 1'-0"
140
12.0
141
12.0
290
     0
  0
VISUALSTYLE
  5
2F
102
{ACAD_REACTORS
330
2A
102
}
330
2A
100
AcDbVisualStyle
  2
2dWireframe
 70
     4
 71
     0
 72
     2
 73
     0
 90
        0
 40
-0.6
 41
-30.0
 62
     5
 63
     7
421
 16777215
 74
     1
 91
        4
 64
     7
 65
   257
 75
     1
175
     1
 42
1.0
 92
        0
 66
   257
 43
1.0
 76
     1
 77
     6
 78
     2
 67
     7
 79
     5
170
     0
171
     0
290
     0
174
     0
 93
        1
 44
0.0
173
     0
291
     0
 45
0.0
  0
VISUALSTYLE
  5
31
102
{ACAD_REACTORS
330
2A
102
}
330
2A
100
AcDbVisualStyle
  2
3D Hidden
 70
     6
 71
     1
 72
     2
 73
     2
 90
        0
 40
-0.6
 41
-30.0
 62
     5
 63
     7
421
 16777215
 74
     2
 91
        2
 64
     7
 65
   257
 75
     2
175
     1
 42
40.0
 92
        0
 66
   257
 43
1.0
 76
     1
 77
     6
 78
     2
 67
     7
 79
     3
170
     0
171
     0
290
     0
174
     0
 93
        1
 44
0.0
173
     0
291
     0
 45
0.0
  0
VISUALSTYLE
  5
30
102
{ACAD_REACTORS
330
2A
102
}
330
2A
100
AcDbVisualStyle
  2
3dWireframe
 70
     5
 71
     0
 72
     2
 73
     0
 90
        0
 40
-0.6
 41
-30.0
 62
     5
 63
     7
421
 16777215
 74
     1
 91
        4
 64
     7
 65
   257
 75
     1
175
     1
 42
1.0
 92
        0
 66
   257
 43
1.0
 76
     1
 77
     6
 78
     2
 67
     7
 79
     5
170
     0
171
     0
290
     0
174
     0
 93
        1
 44
0.0
173
     0
291
     0
 45
0.0
  0
VISUALSTYLE
  5
32
102
{ACAD_REACTORS
330
2A
102
}
330
2A
100
AcDbVisualStyle
  2
Basic
 70
     7
 71
     1
 72
     0
 73
     1
 90
        0
 40
-0.6
 41
-30.0
 62
     5
 63
     7
421
 16777215
 74
     0
 91
        4
 64
     7
 65
   257
 75
     1
175
     1
 42
1.0
 92
        8
 66
     7
 43
1.0
 76
     1
 77
     6
 78
     2
 67
     7
 79
     5
170
     0
171
     0
290
     0
174
     0
 93
        1
 44
0.0
173
     0
291
     1
 45
0.0
  0
VISUALSTYLE
  5
36
102
{ACAD_REACTORS
330
2A
102
}
330
2A
100
AcDbVisualStyle
  2
Brighten
 70
    12
 71
     2
 72
     2
 73
     0
 90
        0
 40
-0.6
 41
-30.0
 62
     5
 63
     7
421
 16777215
 74
     1
 91
        4
 64
     7
 65
   257
 75
     1
175
     1
 42
1.0
 92
        8
 66
     7
 43
1.0
 76
     1
 77
     6
 78
     2
 67
     7
 79
     5
170
     0
171
     0
290
     0
174
     0
 93
        1
 44
50.0
173
     0
291
     1
 45
0.0
  0
VISUALSTYLE
  5
3A
102
{ACAD_REACTORS
330
2A
102
}
330
2A
100
AcDbVisualStyle
  2
ColorChange
 70
    16
 71
     2
 72
     2
 73
     3
 90
        0
 40
-0.6
 41
-30.0
 62
     5
 63
     8
421
  8421504
 74
     1
 91
        4
 64
     7
 65
   257
 75
     1
175
     1
 42
1.0
 92
        8
 66
     8
424
  8421504
 43
1.0
 76
     1
 77
     6
 78
     2
 67
     7
 79
     5
170
     0
171
     0
290
     0
174
     0
 93
        1
 44
0.0
173
     0
291
     1
 45
0.0
  0
VISUALSTYLE
  5
34
102
{ACAD_REACTORS
330
2A
102
}
330
2A
100
AcDbVisualStyle
  2
Conceptual
 70
     9
 71
     3
 72
     2
 73
     0
 90
        0
 40
-0.6
 41
-30.0
 62
     5
 63
     7
421
 16777215
 74
     2
 91
        2
 64
     7
 65
   257
 75
     1
175
     1
 42
40.0
 92
        8
 66
     7
 43
1.0
 76
     1
 77
     6
 78
     2
 67
     7
 79
     3
170
     0
171
     0
290
     0
174
     0
 93
        1
 44
0.0
173
     0
291
     0
 45
0.0
  0
VISUALSTYLE
  5
35
102
{ACAD_REACTORS
330
2A
102
}
330
2A
100
AcDbVisualStyle
  2
Dim
 70
    11
 71
     2
 72
     2
 73
     0
 90
        0
 40
-0.6
 41
-30.0
 62
     5
 63
     7
421
 16777215
 74
     1
 91
        4
 64
     7
 65
   257
 75
     1
175
     1
 42
1.0
 92
        8
 66
     7
 43
1.0
 76
     1
 77
     6
 78
     2
 67
     7
 79
     5
170
     0
171
     0
290
     0
174
     0
 93
        1
 44
-50.0
173
     0
291
     1
 45
0.0
  0
VISUALSTYLE
  5
39
102
{ACAD_REACTORS
330
2A
102
}
330
2A
100
AcDbVisualStyle
  2
Facepattern
 70
    15
 71
     2
 72
     2
 73
     0
 90
        0
 40
-0.6
 41
-30.0
 62
     5
 63
     7
421
 16777215
 74
     1
 91
        4
 64
     7
 65
   257
 75
     1
175
     1
 42
1.0
 92
        8
 66
     7
 43
1.0
 76
     1
 77
     6
 78
     2
 67
     7
 79
     5
170
     0
171
     0
290
     0
174
     0
 93
        1
 44
0.0
173
     0
291
     1
 45
0.0
  0
VISUALSTYLE
  5
2B
102
{ACAD_REACTORS
330
2A
102
}
330
2A
100
AcDbVisualStyle
  2
Flat
 70
     0
 71
     2
 72
     1
 73
     1
 90
        2
 40
-0.6
 41
30.0
 62
     5
 63
     7
421
 16777215
 74
     0
 91
        4
 64
     7
 65
   257
 75
     1
175
     1
 42
1.0
 92
        8
 66
     7
 43
1.0
 76
     1
 77
     6
 78
     2
 67
     7
 79
     5
170
     0
171
     0
290
     0
174
     0
 93
       13
 44
0.0
173
     0
291
     1
 45
0.0
  0
VISUALSTYLE
  5
2C
102
{ACAD_REACTORS
330
2A
102
}
330
2A
100
AcDbVisualStyle
  2
FlatWithEdges
 70
     1
 71
     2
 72
     1
 73
     1
 90
        2
 40
-0.6
 41
30.0
 62
     5
 63
     7
421
 16777215
 74
     1
 91
        4
 64
     7
 65
   257
 75
     1
175
     1
 42
1.0
 92
        0
 66
   257
 43
1.0
 76
     1
 77
     6
 78
     2
 67
     7
 79
     5
170
     0
171
     0
290
     0
174
     0
 93
       13
 44
0.0
173
     0
291
     1
 45
0.0
  0
VISUALSTYLE
  5
2D
102
{ACAD_REACTORS
330
2A
102
}
330
2A
100
AcDbVisualStyle
  2
Gouraud
 70
     2
 71
     2
 72
     2
 73
     1
 90
        2
 40
-0.6
 41
30.0
 62
     5
 63
     7
421
 16777215
 74
     0
 91
        4
 64
     7
 65
   257
 75
     1
175
     1
 42
1.0
 92
        0
 66
     7
 43
1.0
 76
     1
 77
     6
 78
     2
 67
     7
 79
     5
170
     0
171
     0
290
     0
174
     0
 93
       13
 44
0.0
173
     0
291
     1
 45
0.0
  0
VISUALSTYLE
  5
2E
102
{ACAD_REACTORS
330
2A
102
}
330
2A
100
AcDbVisualStyle
  2
GouraudWithEdges
 70
     3
 71
     2
 72
     2
 73
     1
 90
        2
 40
-0.6
 41
30.0
 62
     5
 63
     7
421
 16777215
 74
     1
 91
        4
 64
     7
 65
   257
 75
     1
175
     1
 42
1.0
 92
        0
 66
   257
 43
1.0
 76
     1
 77
     6
 78
     2
 67
     7
 79
     5
170
     0
171
     0
290
     0
174
     0
 93
       13
 44
0.0
173
     0
291
     1
 45
0.0
  0
VISUALSTYLE
  5
38
102
{ACAD_REACTORS
330
2A
102
}
330
2A
100
AcDbVisualStyle
  2
Linepattern
 70
    14
 71
     2
 72
     2
 73
     0
 90
        0
 40
-0.6
 41
-30.0
 62
     5
 63
     7
421
 16777215
 74
     1
 91
        4
 64
     7
 65
   257
 75
     7
175
     7
 42
1.0
 92
        8
 66
     7
 43
1.0
 76
     1
 77
     6
 78
     2
 67
     7
 79
     5
170
     0
171
     0
290
     0
174
     0
 93
        1
 44
0.0
173
     0
291
     1
 45
0.0
  0
VISUALSTYLE
  5
33
102
{ACAD_REACTORS
330
2A
102
}
330
2A
100
AcDbVisualStyle
  2
Realistic
 70
     8
 71
     2
 72
     2
 73
     0
 90
        0
 40
-0.6
 41
-30.0
 62
     5
 63
     7
421
 16777215
 74
     1
 91
        0
 64
     7
 65
   257
 75
     1
175
     1
 42
1.0
 92
        8
 66
     8
424
  7895160
 43
1.0
 76
     1
 77
     6
 78
     2
 67
     7
 79
     5
170
     0
171
     0
290
     0
174
     0
 93
       13
 44
0.0
173
     0
291
     0
 45
0.0
  0
VISUALSTYLE
  5
37
102
{ACAD_REACTORS
330
2A
102
}
330
2A
100
AcDbVisualStyle
  2
Thicken
 70
    13
 71
     2
 72
     2
 73
     0
 90
        0
 40
-0.6
 41
-30.0
 62
     5
 63
     7
421
 16777215
 74
     1
 91
        4
 64
     7
 65
   257
 75
     1
175
     1
 42
1.0
 92
       12
 66
     7
 43
1.0
 76
     1
 77
     6
 78
     2
 67
     7
 79
     5
170
     0
171
     0
290
     0
174
     0
 93
        1
 44
0.0
173
     0
291
     1
 45
0.0
  0
ENDSEC
  0
EOF
