  0
SECTION
  2
HEADER
  9
$ACADVER
  1
AC1021
  9
$ACADMAINTVER
 70
    25
  9
$DWGCODEPAGE
  3
ANSI_1252
  9
$INSBASE
 10
0.0
 20
0.0
 30
0.0
  9
$EXTMIN
 10
-10.665
 20
-14.935
 30
0.0
  9
$EXTMAX
 10
-10.335
 20
-14.765
 30
0.0
  9
$LIMMIN
 10
0.0
 20
0.0
  9
$LIMMAX
 10
12.0
 20
9.0
  9
$ORTHOMODE
 70
     0
  9
$REGENMODE
 70
     1
  9
$FILLMODE
 70
     1
  9
$QTEXTMODE
 70
     0
  9
$MIRRTEXT
 70
     1
  9
$LTSCALE
 40
1.0
  9
$ATTMODE
 70
     1
  9
$TEXTSIZE
 40
0.2
  9
$TRACEWID
 40
0.05
  9
$TEXTSTYLE
  7
Standard
  9
$CLAYER
  8
0
  9
$CELTYPE
  6
ByLayer
  9
$CECOLOR
 62
   256
  9
$CELTSCALE
 40
1.0
  9
$DISPSILH
 70
     0
  9
$DIMSCALE
 40
1.0
  9
$DIMASZ
 40
0.18
  9
$DIMEXO
 40
0.0625
  9
$DIMDLI
 40
0.38
  9
$DIMRND
 40
0.0
  9
$DIMDLE
 40
0.0
  9
$DIMEXE
 40
0.18
  9
$DIMTP
 40
0.0
  9
$DIMTM
 40
0.0
  9
$DIMTXT
 40
0.18
  9
$DIMCEN
 40
0.09
  9
$DIMTSZ
 40
0.0
  9
$DIMTOL
 70
     0
  9
$DIMLIM
 70
     0
  9
$DIMTIH
 70
     1
  9
$DIMTOH
 70
     1
  9
$DIMSE1
 70
     0
  9
$DIMSE2
 70
     0
  9
$DIMTAD
 70
     0
  9
$DIMZIN
 70
     0
  9
$DIMBLK
  1

  9
$DIMASO
 70
     1
  9
$DIMSHO
 70
     1
  9
$DIMPOST
  1

  9
$DIMAPOST
  1

  9
$DIMALT
 70
     0
  9
$DIMALTD
 70
     2
  9
$DIMALTF
 40
25.4
  9
$DIMLFAC
 40
1.0
  9
$DIMTOFL
 70
     0
  9
$DIMTVP
 40
0.0
  9
$DIMTIX
 70
     0
  9
$DIMSOXD
 70
     0
  9
$DIMSAH
 70
     0
  9
$DIMBLK1
  1

  9
$DIMBLK2
  1

  9
$DIMSTYLE
  2
Standard
  9
$DIMCLRD
 70
     0
  9
$DIMCLRE
 70
     0
  9
$DIMCLRT
 70
     0
  9
$DIMTFAC
 40
1.0
  9
$DIMGAP
 40
0.09
  9
$DIMJUST
 70
     0
  9
$DIMSD1
 70
     0
  9
$DIMSD2
 70
     0
  9
$DIMTOLJ
 70
     1
  9
$DIMTZIN
 70
     0
  9
$DIMALTZ
 70
     0
  9
$DIMALTTZ
 70
     0
  9
$DIMUPT
 70
     0
  9
$DIMDEC
 70
     4
  9
$DIMTDEC
 70
     4
  9
$DIMALTU
 70
     2
  9
$DIMALTTD
 70
     2
  9
$DIMTXSTY
  7
Standard
  9
$DIMAUNIT
 70
     0
  9
$DIMADEC
 70
     0
  9
$DIMALTRND
 40
0.0
  9
$DIMAZIN
 70
     0
  9
$DIMDSEP
 70
    46
  9
$DIMATFIT
 70
     3
  9
$DIMFRAC
 70
     0
  9
$DIMLDRBLK
  1

  9
$DIMLUNIT
 70
     2
  9
$DIMLWD
 70
    -2
  9
$DIMLWE
 70
    -2
  9
$DIMTMOVE
 70
     0
  9
$DIMFXL
 40
1.0
  9
$DIMFXLON
 70
     0
  9
$DIMJOGANG
 40
0.7853981633974483
  9
$DIMTFILL
 70
     0
  9
$DIMTFILLCLR
 70
     0
  9
$DIMARCSYM
 70
     0
  9
$DIMLTYPE
  6

  9
$DIMLTEX1
  6

  9
$DIMLTEX2
  6

  9
$LUNITS
 70
     2
  9
$LUPREC
 70
     4
  9
$SKETCHINC
 40
0.1
  9
$FILLETRAD
 40
0.5
  9
$AUNITS
 70
     0
  9
$AUPREC
 70
     0
  9
$MENU
  1
.
  9
$ELEVATION
 40
0.0
  9
$PELEVATION
 40
0.0
  9
$THICKNESS
 40
0.0
  9
$LIMCHECK
 70
     0
  9
$CHAMFERA
 40
0.5
  9
$CHAMFERB
 40
0.5
  9
$CHAMFERC
 40
1.0
  9
$CHAMFERD
 40
0.0
  9
$SKPOLY
 70
     0
  9
$TDCREATE
 40
2457065.177422222
  9
$TDUCREATE
 40
2457065.177422222
  9
$TDUPDATE
 40
2457065.177422234
  9
$TDUUPDATE
 40
2457065.177422234
  9
$TDINDWG
 40
0.0000000116
  9
$TDUSRTIMER
 40
0.0000000116
  9
$USRTIMER
 70
     1
  9
$ANGBASE
 50
0.0
  9
$ANGDIR
 70
     0
  9
$PDMODE
 70
     0
  9
$PDSIZE
 40
0.0
  9
$PLINEWID
 40
0.0
  9
$SPLFRAME
 70
     0
  9
$SPLINETYPE
 70
     6
  9
$SPLINESEGS
 70
     8
  9
$HANDSEED
  5
7D
  9
$SURFTAB1
 70
     6
  9
$SURFTAB2
 70
     6
  9
$SURFTYPE
 70
     6
  9
$SURFU
 70
     6
  9
$SURFV
 70
     6
  9
$UCSBASE
  2

  9
$UCSNAME
  2

  9
$UCSORG
 10
0.0
 20
0.0
 30
0.0
  9
$UCSXDIR
 10
1.0
 20
0.0
 30
0.0
  9
$UCSYDIR
 10
0.0
 20
1.0
 30
0.0
  9
$UCSORTHOREF
  2

  9
$UCSORTHOVIEW
 70
     0
  9
$UCSORGTOP
 10
0.0
 20
0.0
 30
0.0
  9
$UCSORGBOTTOM
 10
0.0
 20
0.0
 30
0.0
  9
$UCSORGLEFT
 10
0.0
 20
0.0
 30
0.0
  9
$UCSORGRIGHT
 10
0.0
 20
0.0
 30
0.0
  9
$UCSORGFRONT
 10
0.0
 20
0.0
 30
0.0
  9
$UCSORGBACK
 10
0.0
 20
0.0
 30
0.0
  9
$PUCSBASE
  2

  9
$PUCSNAME
  2

  9
$PUCSORG
 10
0.0
 20
0.0
 30
0.0
  9
$PUCSXDIR
 10
1.0
 20
0.0
 30
0.0
  9
$PUCSYDIR
 10
0.0
 20
1.0
 30
0.0
  9
$PUCSORTHOREF
  2

  9
$PUCSORTHOVIEW
 70
     0
  9
$PUCSORGTOP
 10
0.0
 20
0.0
 30
0.0
  9
$PUCSORGBOTTOM
 10
0.0
 20
0.0
 30
0.0
  9
$PUCSORGLEFT
 10
0.0
 20
0.0
 30
0.0
  9
$PUCSORGRIGHT
 10
0.0
 20
0.0
 30
0.0
  9
$PUCSORGFRONT
 10
0.0
 20
0.0
 30
0.0
  9
$PUCSORGBACK
 10
0.0
 20
0.0
 30
0.0
  9
$USERI1
 70
     0
  9
$USERI2
 70
     0
  9
$USERI3
 70
     0
  9
$USERI4
 70
     0
  9
$USERI5
 70
     0
  9
$USERR1
 40
0.0
  9
$USERR2
 40
0.0
  9
$USERR3
 40
0.0
  9
$USERR4
 40
0.0
  9
$USERR5
 40
0.0
  9
$WORLDVIEW
 70
     1
  9
$SHADEDGE
 70
     3
  9
$SHADEDIF
 70
    70
  9
$TILEMODE
 70
     1
  9
$MAXACTVP
 70
    64
  9
$PINSBASE
 10
0.0
 20
0.0
 30
0.0
  9
$PLIMCHECK
 70
     0
  9
$PEXTMIN
 10
1.000000000000000E+20
 20
1.000000000000000E+20
 30
1.000000000000000E+20
  9
$PEXTMAX
 10
-1.000000000000000E+20
 20
-1.000000000000000E+20
 30
-1.000000000000000E+20
  9
$PLIMMIN
 10
0.0
 20
0.0
  9
$PLIMMAX
 10
12.0
 20
9.0
  9
$UNITMODE
 70
     0
  9
$VISRETAIN
 70
     1
  9
$PLINEGEN
 70
     0
  9
$PSLTSCALE
 70
     1
  9
$TREEDEPTH
 70
  3020
  9
$CMLSTYLE
  2
Standard
  9
$CMLJUST
 70
     0
  9
$CMLSCALE
 40
1.0
  9
$PROXYGRAPHICS
 70
     1
  9
$MEASUREMENT
 70
     0
  9
$CELWEIGHT
370
    -1
  9
$ENDCAPS
280
     0
  9
$JOINSTYLE
280
     0
  9
$LWDISPLAY
290
     0
  9
$INSUNITS
 70
     5
  9
$HYPERLINKBASE
  1

  9
$STYLESHEET
  1

  9
$XEDIT
290
     1
  9
$CEPSNTYPE
380
     0
  9
$PSTYLEMODE
290
     1
  9
$FINGERPRINTGUID
  2
{B565B3FC-1391-4E8C-A769-76BE6F6BF398}
  9
$VERSIONGUID
  2
{FAEB1C32-E019-11D5-929B-00C0DF256EC4}
  9
$EXTNAMES
290
     1
  9
$PSVPSCALE
 40
0.0
  9
$OLESTARTUP
290
     0
  9
$SORTENTS
280
   127
  9
$INDEXCTL
280
     0
  9
$HIDETEXT
280
     1
  9
$XCLIPFRAME
290
     0
  9
$HALOGAP
280
     0
  9
$OBSCOLOR
 70
   257
  9
$OBSLTYPE
280
     0
  9
$INTERSECTIONDISPLAY
280
     0
  9
$INTERSECTIONCOLOR
 70
   257
  9
$DIMASSOC
280
     2
  9
$PROJECTNAME
  1

  9
$CAMERADISPLAY
290
     0
  9
$LENSLENGTH
 40
50.0
  9
$CAMERAHEIGHT
 40
0.0
  9
$STEPSPERSEC
 40
2.0
  9
$STEPSIZE
 40
6.0
  9
$3DDWFPREC
 40
2.0
  9
$PSOLWIDTH
 40
0.25
  9
$PSOLHEIGHT
 40
4.0
  9
$LOFTANG1
 40
1.570796326794897
  9
$LOFTANG2
 40
1.570796326794897
  9
$LOFTMAG1
 40
0.0
  9
$LOFTMAG2
 40
0.0
  9
$LOFTPARAM
 70
     7
  9
$LOFTNORMALS
280
     1
  9
$LATITUDE
 40
37.795
  9
$LONGITUDE
 40
-122.394
  9
$NORTHDIRECTION
 40
0.0
  9
$TIMEZONE
 70
 -8000
  9
$LIGHTGLYPHDISPLAY
280
     1
  9
$TILEMODELIGHTSYNCH
280
     1
  9
$SOLIDHIST
280
     1
  9
$SHOWHIST
280
     1
  9
$DWFFRAME
280
     2
  9
$DGNFRAME
280
     2
  9
$REALWORLDSCALE
290
     1
  9
$INTERFERECOLOR
 62
   256
  9
$CSHADOW
280
     0
  9
$SHADOWPLANELOCATION
 40
0.0
  0
ENDSEC
  0
SECTION
  2
CLASSES
  0
CLASS
  1
ACDBDICTIONARYWDFLT
  2
AcDbDictionaryWithDefault
  3
ObjectDBX Classes
 90
        0
 91
        3
280
     0
281
     0
  0
CLASS
  1
VISUALSTYLE
  2
AcDbVisualStyle
  3
ObjectDBX Classes
 90
     4095
 91
        3
280
     0
281
     0
  0
CLASS
  1
SCALE
  2
AcDbScale
  3
ObjectDBX Classes
 90
     1153
 91
        3
280
     0
281
     0
  0
ENDSEC
  0
SECTION
  2
TABLES
  0
TABLE
  2
VPORT
  5
8
330
0
100
AcDbSymbolTable
 70
     1
  0
VPORT
  5
29
330
8
100
AcDbSymbolTableRecord
100
AcDbViewportTableRecord
  2
*Active
 70
     0
 10
0.0
 20
0.0
 11
1.0
 21
1.0
 12
10.42990654205607
 22
4.5
 13
0.0
 23
0.0
 14
0.5
 24
0.5
 15
0.5
 25
0.5
 16
0.0
 26
0.0
 36
1.0
 17
0.0
 27
0.0
 37
0.0
 40
9.0
 41
1.972972972850329
 42
50.0
 43
0.0
 44
0.0
 50
0.0
 51
0.0
 71
     0
 72
   100
 73
     1
 74
     3
 75
     0
 76
     0
 77
     0
 78
     0
281
     0
 65
     1
110
0.0
120
0.0
130
0.0
111
1.0
121
0.0
131
0.0
112
0.0
122
1.0
132
0.0
 79
     0
146
0.0
 60
     3
 61
     5
292
     1
282
     1
141
0.0
142
0.0
 63
   256
  0
ENDTAB
  0
TABLE
  2
LTYPE
  5
5
330
0
100
AcDbSymbolTable
 70
     1
  0
LTYPE
  5
14
330
5
100
AcDbSymbolTableRecord
100
AcDbLinetypeTableRecord
  2
ByBlock
 70
     0
  3

 72
    65
 73
     0
 40
0.0
  0
LTYPE
  5
15
330
5
100
AcDbSymbolTableRecord
100
AcDbLinetypeTableRecord
  2
ByLayer
 70
     0
  3

 72
    65
 73
     0
 40
0.0
  0
LTYPE
  5
16
330
5
100
AcDbSymbolTableRecord
100
AcDbLinetypeTableRecord
  2
Continuous
 70
     0
  3
Solid line
 72
    65
 73
     0
 40
0.0
  0
ENDTAB
  0
TABLE
  2
LAYER
  5
2
330
0
100
AcDbSymbolTable
 70
     2
  0
LAYER
  5
10
330
2
100
AcDbSymbolTableRecord
100
AcDbLayerTableRecord
  2
0
 70
     0
 62
     7
  6
Continuous
370
    -3
390
F
347
0
  0
LAYER
  5
5E
330
2
100
AcDbSymbolTableRecord
100
AcDbLayerTableRecord
  2
Layer 1
 70
     0
 62
     7
  6
Continuous
370
    -3
390
F
347
0
  0
ENDTAB
  0
TABLE
  2
STYLE
  5
3
330
0
100
AcDbSymbolTable
 70
     1
  0
STYLE
  5
11
330
3
100
AcDbSymbolTableRecord
100
AcDbTextStyleTableRecord
  2
Standard
 70
     0
 40
0.0
 41
1.0
 50
0.0
 71
     0
 42
0.2
  3
txt
  4

  0
ENDTAB
  0
TABLE
  2
VIEW
  5
6
330
0
100
AcDbSymbolTable
 70
     0
  0
ENDTAB
  0
TABLE
  2
UCS
  5
7
330
0
100
AcDbSymbolTable
 70
     0
  0
ENDTAB
  0
TABLE
  2
APPID
  5
9
330
0
100
AcDbSymbolTable
 70
     2
  0
APPID
  5
12
330
9
100
AcDbSymbolTableRecord
100
AcDbRegAppTableRecord
  2
ACAD
 70
     0
  0
APPID
  5
5D
330
9
100
AcDbSymbolTableRecord
100
AcDbRegAppTableRecord
  2
ODA
 70
     0
  0
ENDTAB
  0
TABLE
  2
DIMSTYLE
  5
A
330
0
100
AcDbSymbolTable
 70
     1
100
AcDbDimStyleTable
  0
DIMSTYLE
105
27
330
A
100
AcDbSymbolTableRecord
100
AcDbDimStyleTableRecord
  2
Standard
 70
     0
340
11
  0
ENDTAB
  0
TABLE
  2
BLOCK_RECORD
  5
1
330
0
100
AcDbSymbolTable
 70
     1
  0
BLOCK_RECORD
  5
1F
330
1
100
AcDbSymbolTableRecord
100
AcDbBlockTableRecord
  2
*Model_Space
340
22
 70
     0
280
     1
281
     0
  0
BLOCK_RECORD
  5
1B
330
1
100
AcDbSymbolTableRecord
100
AcDbBlockTableRecord
  2
*Paper_Space
340
1E
 70
     0
280
     1
281
     0
  0
BLOCK_RECORD
  5
23
330
1
100
AcDbSymbolTableRecord
100
AcDbBlockTableRecord
  2
*Paper_Space0
340
26
 70
     0
280
     1
281
     0
  0
ENDTAB
  0
ENDSEC
  0
SECTION
  2
BLOCKS
  0
BLOCK
  5
20
330
1F
100
AcDbEntity
  8
0
100
AcDbBlockBegin
  2
*Model_Space
 70
     0
 10
0.0
 20
0.0
 30
0.0
  3
*Model_Space
  1

  0
ENDBLK
  5
21
330
1F
100
AcDbEntity
  8
0
100
AcDbBlockEnd
  0
BLOCK
  5
1C
330
1B
100
AcDbEntity
 67
     1
  8
0
100
AcDbBlockBegin
  2
*Paper_Space
 70
     0
 10
0.0
 20
0.0
 30
0.0
  3
*Paper_Space
  1

  0
ENDBLK
  5
1D
330
1B
100
AcDbEntity
 67
     1
  8
0
100
AcDbBlockEnd
  0
BLOCK
  5
24
330
23
100
AcDbEntity
  8
0
100
AcDbBlockBegin
  2
*Paper_Space0
 70
     0
 10
0.0
 20
0.0
 30
0.0
  3
*Paper_Space0
  1

  0
ENDBLK
  5
25
330
23
100
AcDbEntity
  8
0
100
AcDbBlockEnd
  0
ENDSEC
  0
SECTION
  2
ENTITIES
  0
SPLINE
  5
5F
330
1F
100
AcDbEntity
  8
Layer 1
 62
     7
370
     9
100
AcDbSpline
210
0.0
220
0.0
230
1.0
 70
    11
 71
     3
 72
    20
 73
    16
 74
     0
 42
0.0000000001
 43
0.0000000001
 40
0.0
 40
0.0
 40
0.0
 40
0.0
 40
0.25
 40
0.25
 40
0.25
 40
0.25
 40
0.5
 40
0.5
 40
0.5
 40
0.5
 40
0.75
 40
0.75
 40
0.75
 40
0.75
 40
1.0
 40
1.0
 40
1.0
 40
1.0
 10
-10.64
 20
-14.77
 30
0.0
 10
-10.64
 20
-14.77
 30
0.0
 10
-10.36
 20
-14.77
 30
0.0
 10
-10.36
 20
-14.77
 30
0.0
 10
-10.36
 20
-14.77
 30
0.0
 10
-10.36
 20
-14.77
 30
0.0
 10
-10.36
 20
-14.93
 30
0.0
 10
-10.36
 20
-14.93
 30
0.0
 10
-10.36
 20
-14.93
 30
0.0
 10
-10.36
 20
-14.93
 30
0.0
 10
-10.64
 20
-14.93
 30
0.0
 10
-10.64
 20
-14.93
 30
0.0
 10
-10.64
 20
-14.93
 30
0.0
 10
-10.64
 20
-14.93
 30
0.0
 10
-10.64
 20
-14.77
 30
0.0
 10
-10.64
 20
-14.77
 30
0.0
  0
SPLINE
  5
60
330
1F
100
AcDbEntity
  8
Layer 1
 62
     7
370
     9
100
AcDbSpline
210
0.0
220
0.0
230
1.0
 70
    11
 71
     3
 72
    20
 73
    16
 74
     0
 42
0.0000000001
 43
0.0000000001
 40
0.0
 40
0.0
 40
0.0
 40
0.0
 40
0.25
 40
0.25
 40
0.25
 40
0.25
 40
0.5
 40
0.5
 40
0.5
 40
0.5
 40
0.75
 40
0.75
 40
0.75
 40
0.75
 40
1.0
 40
1.0
 40
1.0
 40
1.0
 10
-10.36
 20
-14.79
 30
0.0
 10
-10.36
 20
-14.79
 30
0.0
 10
-10.34
 20
-14.79
 30
0.0
 10
-10.34
 20
-14.79
 30
0.0
 10
-10.34
 20
-14.79
 30
0.0
 10
-10.34
 20
-14.79
 30
0.0
 10
-10.34
 20
-14.91
 30
0.0
 10
-10.34
 20
-14.91
 30
0.0
 10
-10.34
 20
-14.91
 30
0.0
 10
-10.34
 20
-14.91
 30
0.0
 10
-10.36
 20
-14.91
 30
0.0
 10
-10.36
 20
-14.91
 30
0.0
 10
-10.36
 20
-14.91
 30
0.0
 10
-10.36
 20
-14.91
 30
0.0
 10
-10.36
 20
-14.79
 30
0.0
 10
-10.36
 20
-14.79
 30
0.0
  0
SPLINE
  5
61
330
1F
100
AcDbEntity
  8
Layer 1
 62
     7
370
     9
100
AcDbSpline
210
0.0
220
0.0
230
1.0
 70
    11
 71
     3
 72
    20
 73
    16
 74
     0
 42
0.0000000001
 43
0.0000000001
 40
0.0
 40
0.0
 40
0.0
 40
0.0
 40
0.25
 40
0.25
 40
0.25
 40
0.25
 40
0.5
 40
0.5
 40
0.5
 40
0.5
 40
0.75
 40
0.75
 40
0.75
 40
0.75
 40
1.0
 40
1.0
 40
1.0
 40
1.0
 10
-10.66
 20
-14.79
 30
0.0
 10
-10.66
 20
-14.79
 30
0.0
 10
-10.64
 20
-14.79
 30
0.0
 10
-10.64
 20
-14.79
 30
0.0
 10
-10.64
 20
-14.79
 30
0.0
 10
-10.64
 20
-14.79
 30
0.0
 10
-10.64
 20
-14.91
 30
0.0
 10
-10.64
 20
-14.91
 30
0.0
 10
-10.64
 20
-14.91
 30
0.0
 10
-10.64
 20
-14.91
 30
0.0
 10
-10.66
 20
-14.91
 30
0.0
 10
-10.66
 20
-14.91
 30
0.0
 10
-10.66
 20
-14.91
 30
0.0
 10
-10.66
 20
-14.91
 30
0.0
 10
-10.66
 20
-14.79
 30
0.0
 10
-10.66
 20
-14.79
 30
0.0
  0
SPLINE
  5
62
330
1F
100
AcDbEntity
  8
Layer 1
 62
   250
370
     9
100
AcDbSpline
210
0.0
220
0.0
230
1.0
 70
    11
 71
     3
 72
    20
 73
    16
 74
     0
 42
0.0000000001
 43
0.0000000001
 40
0.0
 40
0.0
 40
0.0
 40
0.0
 40
0.25
 40
0.25
 40
0.25
 40
0.25
 40
0.5
 40
0.5
 40
0.5
 40
0.5
 40
0.75
 40
0.75
 40
0.75
 40
0.75
 40
1.0
 40
1.0
 40
1.0
 40
1.0
 10
-10.64
 20
-14.77
 30
0.0
 10
-10.64
 20
-14.77
 30
0.0
 10
-10.61001
 20
-14.77
 30
0.0
 10
-10.61001
 20
-14.77
 30
0.0
 10
-10.61001
 20
-14.77
 30
0.0
 10
-10.61001
 20
-14.77
 30
0.0
 10
-10.61001
 20
-14.93
 30
0.0
 10
-10.61001
 20
-14.93
 30
0.0
 10
-10.61001
 20
-14.93
 30
0.0
 10
-10.61001
 20
-14.93
 30
0.0
 10
-10.64
 20
-14.93
 30
0.0
 10
-10.64
 20
-14.93
 30
0.0
 10
-10.64
 20
-14.93
 30
0.0
 10
-10.64
 20
-14.93
 30
0.0
 10
-10.64
 20
-14.77
 30
0.0
 10
-10.64
 20
-14.77
 30
0.0
  0
SPLINE
  5
63
330
1F
100
AcDbEntity
  8
Layer 1
 62
   250
100
AcDbSpline
210
0.0
220
0.0
230
1.0
 70
    11
 71
     3
 72
    36
 73
    32
 74
     0
 42
0.0000000001
 43
0.0000000001
 40
0.0
 40
0.0
 40
0.0
 40
0.0
 40
0.125
 40
0.125
 40
0.125
 40
0.125
 40
0.25
 40
0.25
 40
0.25
 40
0.25
 40
0.375
 40
0.375
 40
0.375
 40
0.375
 40
0.5
 40
0.5
 40
0.5
 40
0.5
 40
0.625
 40
0.625
 40
0.625
 40
0.625
 40
0.75
 40
0.75
 40
0.75
 40
0.75
 40
0.875
 40
0.875
 40
0.875
 40
0.875
 40
1.0
 40
1.0
 40
1.0
 40
1.0
 10
-10.54861
 20
-14.8215
 30
0.0
 10
-10.55022
 20
-14.8215
 30
0.0
 10
-10.55143
 20
-14.82212
 30
0.0
 10
-10.55226
 20
-14.82338
 30
0.0
 10
-10.55226
 20
-14.82338
 30
0.0
 10
-10.55309
 20
-14.82463
 30
0.0
 10
-10.5535
 20
-14.82649
 30
0.0
 10
-10.5535
 20
-14.82894
 30
0.0
 10
-10.5535
 20
-14.82894
 30
0.0
 10
-10.5535
 20
-14.83138
 30
0.0
 10
-10.55309
 20
-14.83324
 30
0.0
 10
-10.55226
 20
-14.8345
 30
0.0
 10
-10.55226
 20
-14.8345
 30
0.0
 10
-10.55143
 20
-14.83575
 30
0.0
 10
-10.55022
 20
-14.83638
 30
0.0
 10
-10.54861
 20
-14.83638
 30
0.0
 10
-10.54861
 20
-14.83638
 30
0.0
 10
-10.54699
 20
-14.83638
 30
0.0
 10
-10.54577
 20
-14.83575
 30
0.0
 10
-10.54494
 20
-14.8345
 30
0.0
 10
-10.54494
 20
-14.8345
 30
0.0
 10
-10.54411
 20
-14.83324
 30
0.0
 10
-10.5437
 20
-14.83138
 30
0.0
 10
-10.5437
 20
-14.82894
 30
0.0
 10
-10.5437
 20
-14.82894
 30
0.0
 10
-10.5437
 20
-14.82649
 30
0.0
 10
-10.54411
 20
-14.82463
 30
0.0
 10
-10.54494
 20
-14.82338
 30
0.0
 10
-10.54494
 20
-14.82338
 30
0.0
 10
-10.54577
 20
-14.82212
 30
0.0
 10
-10.54699
 20
-14.8215
 30
0.0
 10
-10.54861
 20
-14.8215
 30
0.0
  0
SPLINE
  5
64
330
1F
100
AcDbEntity
  8
Layer 1
 62
   250
100
AcDbSpline
210
0.0
220
0.0
230
1.0
 70
    11
 71
     3
 72
    36
 73
    32
 74
     0
 42
0.0000000001
 43
0.0000000001
 40
0.0
 40
0.0
 40
0.0
 40
0.0
 40
0.125
 40
0.125
 40
0.125
 40
0.125
 40
0.25
 40
0.25
 40
0.25
 40
0.25
 40
0.375
 40
0.375
 40
0.375
 40
0.375
 40
0.5
 40
0.5
 40
0.5
 40
0.5
 40
0.625
 40
0.625
 40
0.625
 40
0.625
 40
0.75
 40
0.75
 40
0.75
 40
0.75
 40
0.875
 40
0.875
 40
0.875
 40
0.875
 40
1.0
 40
1.0
 40
1.0
 40
1.0
 10
-10.54861
 20
-14.81881
 30
0.0
 10
-10.54593
 20
-14.81881
 30
0.0
 10
-10.54388
 20
-14.81968
 30
0.0
 10
-10.54247
 20
-14.82141
 30
0.0
 10
-10.54247
 20
-14.82141
 30
0.0
 10
-10.54105
 20
-14.82315
 30
0.0
 10
-10.54034
 20
-14.82566
 30
0.0
 10
-10.54034
 20
-14.82894
 30
0.0
 10
-10.54034
 20
-14.82894
 30
0.0
 10
-10.54034
 20
-14.83224
 30
0.0
 10
-10.54104
 20
-14.83475
 30
0.0
 10
-10.54246
 20
-14.83648
 30
0.0
 10
-10.54246
 20
-14.83648
 30
0.0
 10
-10.54387
 20
-14.83821
 30
0.0
 10
-10.54592
 20
-14.83907
 30
0.0
 10
-10.54861
 20
-14.83907
 30
0.0
 10
-10.54861
 20
-14.83907
 30
0.0
 10
-10.55129
 20
-14.83907
 30
0.0
 10
-10.55333
 20
-14.83821
 30
0.0
 10
-10.55475
 20
-14.83648
 30
0.0
 10
-10.55475
 20
-14.83648
 30
0.0
 10
-10.55616
 20
-14.83475
 30
0.0
 10
-10.55686
 20
-14.83224
 30
0.0
 10
-10.55686
 20
-14.82894
 30
0.0
 10
-10.55686
 20
-14.82894
 30
0.0
 10
-10.55686
 20
-14.82566
 30
0.0
 10
-10.55616
 20
-14.82315
 30
0.0
 10
-10.55475
 20
-14.82141
 30
0.0
 10
-10.55475
 20
-14.82141
 30
0.0
 10
-10.55333
 20
-14.81968
 30
0.0
 10
-10.55129
 20
-14.81881
 30
0.0
 10
-10.54861
 20
-14.81881
 30
0.0
  0
SPLINE
  5
65
330
1F
100
AcDbEntity
  8
Layer 1
 62
   250
100
AcDbSpline
210
0.0
220
0.0
230
1.0
 70
    11
 71
     3
 72
    36
 73
    32
 74
     0
 42
0.0000000001
 43
0.0000000001
 40
0.0
 40
0.0
 40
0.0
 40
0.0
 40
0.125
 40
0.125
 40
0.125
 40
0.125
 40
0.25
 40
0.25
 40
0.25
 40
0.25
 40
0.375
 40
0.375
 40
0.375
 40
0.375
 40
0.5
 40
0.5
 40
0.5
 40
0.5
 40
0.625
 40
0.625
 40
0.625
 40
0.625
 40
0.75
 40
0.75
 40
0.75
 40
0.75
 40
0.875
 40
0.875
 40
0.875
 40
0.875
 40
1.0
 40
1.0
 40
1.0
 40
1.0
 10
-10.52737
 20
-14.8215
 30
0.0
 10
-10.52898
 20
-14.8215
 30
0.0
 10
-10.53019
 20
-14.82212
 30
0.0
 10
-10.53102
 20
-14.82338
 30
0.0
 10
-10.53102
 20
-14.82338
 30
0.0
 10
-10.53185
 20
-14.82463
 30
0.0
 10
-10.53226
 20
-14.82649
 30
0.0
 10
-10.53226
 20
-14.82894
 30
0.0
 10
-10.53226
 20
-14.82894
 30
0.0
 10
-10.53226
 20
-14.83138
 30
0.0
 10
-10.53185
 20
-14.83324
 30
0.0
 10
-10.53102
 20
-14.8345
 30
0.0
 10
-10.53102
 20
-14.8345
 30
0.0
 10
-10.53019
 20
-14.83575
 30
0.0
 10
-10.52898
 20
-14.83638
 30
0.0
 10
-10.52737
 20
-14.83638
 30
0.0
 10
-10.52737
 20
-14.83638
 30
0.0
 10
-10.52575
 20
-14.83638
 30
0.0
 10
-10.52453
 20
-14.83575
 30
0.0
 10
-10.5237
 20
-14.8345
 30
0.0
 10
-10.5237
 20
-14.8345
 30
0.0
 10
-10.52287
 20
-14.83324
 30
0.0
 10
-10.52246
 20
-14.83138
 30
0.0
 10
-10.52246
 20
-14.82894
 30
0.0
 10
-10.52246
 20
-14.82894
 30
0.0
 10
-10.52246
 20
-14.82649
 30
0.0
 10
-10.52287
 20
-14.82463
 30
0.0
 10
-10.5237
 20
-14.82338
 30
0.0
 10
-10.5237
 20
-14.82338
 30
0.0
 10
-10.52453
 20
-14.82212
 30
0.0
 10
-10.52575
 20
-14.8215
 30
0.0
 10
-10.52737
 20
-14.8215
 30
0.0
  0
SPLINE
  5
66
330
1F
100
AcDbEntity
  8
Layer 1
 62
   250
100
AcDbSpline
210
0.0
220
0.0
230
1.0
 70
    11
 71
     3
 72
    36
 73
    32
 74
     0
 42
0.0000000001
 43
0.0000000001
 40
0.0
 40
0.0
 40
0.0
 40
0.0
 40
0.125
 40
0.125
 40
0.125
 40
0.125
 40
0.25
 40
0.25
 40
0.25
 40
0.25
 40
0.375
 40
0.375
 40
0.375
 40
0.375
 40
0.5
 40
0.5
 40
0.5
 40
0.5
 40
0.625
 40
0.625
 40
0.625
 40
0.625
 40
0.75
 40
0.75
 40
0.75
 40
0.75
 40
0.875
 40
0.875
 40
0.875
 40
0.875
 40
1.0
 40
1.0
 40
1.0
 40
1.0
 10
-10.52737
 20
-14.81881
 30
0.0
 10
-10.52469
 20
-14.81881
 30
0.0
 10
-10.52264
 20
-14.81968
 30
0.0
 10
-10.52123
 20
-14.82141
 30
0.0
 10
-10.52123
 20
-14.82141
 30
0.0
 10
-10.51981
 20
-14.82315
 30
0.0
 10
-10.5191
 20
-14.82566
 30
0.0
 10
-10.5191
 20
-14.82894
 30
0.0
 10
-10.5191
 20
-14.82894
 30
0.0
 10
-10.5191
 20
-14.83224
 30
0.0
 10
-10.5198
 20
-14.83475
 30
0.0
 10
-10.52122
 20
-14.83648
 30
0.0
 10
-10.52122
 20
-14.83648
 30
0.0
 10
-10.52263
 20
-14.83821
 30
0.0
 10
-10.52468
 20
-14.83907
 30
0.0
 10
-10.52737
 20
-14.83907
 30
0.0
 10
-10.52737
 20
-14.83907
 30
0.0
 10
-10.53005
 20
-14.83907
 30
0.0
 10
-10.53209
 20
-14.83821
 30
0.0
 10
-10.53351
 20
-14.83648
 30
0.0
 10
-10.53351
 20
-14.83648
 30
0.0
 10
-10.53492
 20
-14.83475
 30
0.0
 10
-10.53562
 20
-14.83224
 30
0.0
 10
-10.53562
 20
-14.82894
 30
0.0
 10
-10.53562
 20
-14.82894
 30
0.0
 10
-10.53562
 20
-14.82566
 30
0.0
 10
-10.53492
 20
-14.82315
 30
0.0
 10
-10.53351
 20
-14.82141
 30
0.0
 10
-10.53351
 20
-14.82141
 30
0.0
 10
-10.53209
 20
-14.81968
 30
0.0
 10
-10.53005
 20
-14.81881
 30
0.0
 10
-10.52737
 20
-14.81881
 30
0.0
  0
SPLINE
  5
67
330
1F
100
AcDbEntity
  8
Layer 1
 62
   250
100
AcDbSpline
210
0.0
220
0.0
230
1.0
 70
    11
 71
     3
 72
   112
 73
   108
 74
     0
 42
0.0000000001
 43
0.0000000001
 40
0.0
 40
0.0
 40
0.0
 40
0.0
 40
0.037037037037037
 40
0.037037037037037
 40
0.037037037037037
 40
0.037037037037037
 40
0.0740740740740741
 40
0.0740740740740741
 40
0.0740740740740741
 40
0.0740740740740741
 40
0.1111111111111111
 40
0.1111111111111111
 40
0.1111111111111111
 40
0.1111111111111111
 40
0.1481481481481481
 40
0.1481481481481481
 40
0.1481481481481481
 40
0.1481481481481481
 40
0.1851851851851852
 40
0.1851851851851852
 40
0.1851851851851852
 40
0.1851851851851852
 40
0.2222222222222222
 40
0.2222222222222222
 40
0.2222222222222222
 40
0.2222222222222222
 40
0.2592592592592592
 40
0.2592592592592592
 40
0.2592592592592592
 40
0.2592592592592592
 40
0.2962962962962963
 40
0.2962962962962963
 40
0.2962962962962963
 40
0.2962962962962963
 40
0.3333333333333333
 40
0.3333333333333333
 40
0.3333333333333333
 40
0.3333333333333333
 40
0.3703703703703703
 40
0.3703703703703703
 40
0.3703703703703703
 40
0.3703703703703703
 40
0.4074074074074074
 40
0.4074074074074074
 40
0.4074074074074074
 40
0.4074074074074074
 40
0.4444444444444444
 40
0.4444444444444444
 40
0.4444444444444444
 40
0.4444444444444444
 40
0.4814814814814815
 40
0.4814814814814815
 40
0.4814814814814815
 40
0.4814814814814815
 40
0.5185185185185185
 40
0.5185185185185185
 40
0.5185185185185185
 40
0.5185185185185185
 40
0.5555555555555556
 40
0.5555555555555556
 40
0.5555555555555556
 40
0.5555555555555556
 40
0.5925925925925926
 40
0.5925925925925926
 40
0.5925925925925926
 40
0.5925925925925926
 40
0.6296296296296295
 40
0.6296296296296295
 40
0.6296296296296295
 40
0.6296296296296295
 40
0.6666666666666665
 40
0.6666666666666665
 40
0.6666666666666665
 40
0.6666666666666665
 40
0.7037037037037035
 40
0.7037037037037035
 40
0.7037037037037035
 40
0.7037037037037035
 40
0.7407407407407405
 40
0.7407407407407405
 40
0.7407407407407405
 40
0.7407407407407405
 40
0.7777777777777775
 40
0.7777777777777775
 40
0.7777777777777775
 40
0.7777777777777775
 40
0.8148148148148144
 40
0.8148148148148144
 40
0.8148148148148144
 40
0.8148148148148144
 40
0.8518518518518514
 40
0.8518518518518514
 40
0.8518518518518514
 40
0.8518518518518514
 40
0.8888888888888884
 40
0.8888888888888884
 40
0.8888888888888884
 40
0.8888888888888884
 40
0.9259259259259254
 40
0.9259259259259254
 40
0.9259259259259254
 40
0.9259259259259254
 40
0.9629629629629624
 40
0.9629629629629624
 40
0.9629629629629624
 40
0.9629629629629624
 40
1.0
 40
1.0
 40
1.0
 40
1.0
 10
-10.5051
 20
-14.82124
 30
0.0
 10
-10.50471
 20
-14.82041
 30
0.0
 10
-10.50421
 20
-14.8198
 30
0.0
 10
-10.5036
 20
-14.81941
 30
0.0
 10
-10.5036
 20
-14.81941
 30
0.0
 10
-10.503
 20
-14.81901
 30
0.0
 10
-10.50228
 20
-14.81881
 30
0.0
 10
-10.50143
 20
-14.81881
 30
0.0
 10
-10.50143
 20
-14.81881
 30
0.0
 10
-10.49988
 20
-14.81881
 30
0.0
 10
-10.49878
 20
-14.81941
 30
0.0
 10
-10.49815
 20
-14.82061
 30
0.0
 10
-10.49815
 20
-14.82061
 30
0.0
 10
-10.49751
 20
-14.82181
 30
0.0
 10
-10.49719
 20
-14.82407
 30
0.0
 10
-10.49719
 20
-14.82739
 30
0.0
 10
-10.49719
 20
-14.82739
 30
0.0
 10
-10.49719
 20
-14.82739
 30
0.0
 10
-10.49719
 20
-14.83857
 30
0.0
 10
-10.49719
 20
-14.83857
 30
0.0
 10
-10.49719
 20
-14.83857
 30
0.0
 10
-10.49719
 20
-14.83857
 30
0.0
 10
-10.50008
 20
-14.83857
 30
0.0
 10
-10.50008
 20
-14.83857
 30
0.0
 10
-10.50008
 20
-14.83857
 30
0.0
 10
-10.50008
 20
-14.83857
 30
0.0
 10
-10.50008
 20
-14.82753
 30
0.0
 10
-10.50008
 20
-14.82753
 30
0.0
 10
-10.50008
 20
-14.82753
 30
0.0
 10
-10.50008
 20
-14.8248
 30
0.0
 10
-10.50023
 20
-14.82312
 30
0.0
 10
-10.50054
 20
-14.82245
 30
0.0
 10
-10.50054
 20
-14.82245
 30
0.0
 10
-10.50084
 20
-14.82179
 30
0.0
 10
-10.5014
 20
-14.82147
 30
0.0
 10
-10.5022
 20
-14.82147
 30
0.0
 10
-10.5022
 20
-14.82147
 30
0.0
 10
-10.50312
 20
-14.82147
 30
0.0
 10
-10.50375
 20
-14.82182
 30
0.0
 10
-10.50409
 20
-14.82252
 30
0.0
 10
-10.50409
 20
-14.82252
 30
0.0
 10
-10.50443
 20
-14.82323
 30
0.0
 10
-10.5046
 20
-14.8249
 30
0.0
 10
-10.5046
 20
-14.82753
 30
0.0
 10
-10.5046
 20
-14.82753
 30
0.0
 10
-10.5046
 20
-14.82753
 30
0.0
 10
-10.5046
 20
-14.83857
 30
0.0
 10
-10.5046
 20
-14.83857
 30
0.0
 10
-10.5046
 20
-14.83857
 30
0.0
 10
-10.5046
 20
-14.83857
 30
0.0
 10
-10.50749
 20
-14.83857
 30
0.0
 10
-10.50749
 20
-14.83857
 30
0.0
 10
-10.50749
 20
-14.83857
 30
0.0
 10
-10.50749
 20
-14.83857
 30
0.0
 10
-10.50749
 20
-14.82753
 30
0.0
 10
-10.50749
 20
-14.82753
 30
0.0
 10
-10.50749
 20
-14.82753
 30
0.0
 10
-10.50749
 20
-14.82477
 30
0.0
 10
-10.50766
 20
-14.82307
 30
0.0
 10
-10.50798
 20
-14.82243
 30
0.0
 10
-10.50798
 20
-14.82243
 30
0.0
 10
-10.50831
 20
-14.82179
 30
0.0
 10
-10.5089
 20
-14.82147
 30
0.0
 10
-10.50975
 20
-14.82147
 30
0.0
 10
-10.50975
 20
-14.82147
 30
0.0
 10
-10.51059
 20
-14.82147
 30
0.0
 10
-10.51117
 20
-14.82182
 30
0.0
 10
-10.5115
 20
-14.82252
 30
0.0
 10
-10.5115
 20
-14.82252
 30
0.0
 10
-10.51182
 20
-14.82323
 30
0.0
 10
-10.51199
 20
-14.8249
 30
0.0
 10
-10.51199
 20
-14.82753
 30
0.0
 10
-10.51199
 20
-14.82753
 30
0.0
 10
-10.51199
 20
-14.82753
 30
0.0
 10
-10.51199
 20
-14.83857
 30
0.0
 10
-10.51199
 20
-14.83857
 30
0.0
 10
-10.51199
 20
-14.83857
 30
0.0
 10
-10.51199
 20
-14.83857
 30
0.0
 10
-10.51486
 20
-14.83857
 30
0.0
 10
-10.51486
 20
-14.83857
 30
0.0
 10
-10.51486
 20
-14.83857
 30
0.0
 10
-10.51486
 20
-14.83857
 30
0.0
 10
-10.51486
 20
-14.81928
 30
0.0
 10
-10.51486
 20
-14.81928
 30
0.0
 10
-10.51486
 20
-14.81928
 30
0.0
 10
-10.51486
 20
-14.81928
 30
0.0
 10
-10.51199
 20
-14.81928
 30
0.0
 10
-10.51199
 20
-14.81928
 30
0.0
 10
-10.51199
 20
-14.81928
 30
0.0
 10
-10.51199
 20
-14.81928
 30
0.0
 10
-10.51199
 20
-14.82093
 30
0.0
 10
-10.51199
 20
-14.82093
 30
0.0
 10
-10.51199
 20
-14.82093
 30
0.0
 10
-10.51161
 20
-14.82024
 30
0.0
 10
-10.51114
 20
-14.81972
 30
0.0
 10
-10.51057
 20
-14.81935
 30
0.0
 10
-10.51057
 20
-14.81935
 30
0.0
 10
-10.51
 20
-14.819
 30
0.0
 10
-10.50935
 20
-14.81881
 30
0.0
 10
-10.50863
 20
-14.81881
 30
0.0
 10
-10.50863
 20
-14.81881
 30
0.0
 10
-10.50776
 20
-14.81881
 30
0.0
 10
-10.50703
 20
-14.81901
 30
0.0
 10
-10.50645
 20
-14.81941
 30
0.0
 10
-10.50645
 20
-14.81941
 30
0.0
 10
-10.50587
 20
-14.81982
 30
0.0
 10
-10.50542
 20
-14.82042
 30
0.0
 10
-10.5051
 20
-14.82124
 30
0.0
  0
SPLINE
  5
68
330
1F
100
AcDbEntity
  8
Layer 1
 62
   250
100
AcDbSpline
210
0.0
220
0.0
230
1.0
 70
    11
 71
     3
 72
    20
 73
    16
 74
     0
 42
0.0000000001
 43
0.0000000001
 40
0.0
 40
0.0
 40
0.0
 40
0.0
 40
0.25
 40
0.25
 40
0.25
 40
0.25
 40
0.5
 40
0.5
 40
0.5
 40
0.5
 40
0.75
 40
0.75
 40
0.75
 40
0.75
 40
1.0
 40
1.0
 40
1.0
 40
1.0
 10
-10.48707
 20
-14.83331
 30
0.0
 10
-10.48707
 20
-14.83331
 30
0.0
 10
-10.48273
 20
-14.83331
 30
0.0
 10
-10.48273
 20
-14.83331
 30
0.0
 10
-10.48273
 20
-14.83331
 30
0.0
 10
-10.48273
 20
-14.83331
 30
0.0
 10
-10.48273
 20
-14.83857
 30
0.0
 10
-10.48273
 20
-14.83857
 30
0.0
 10
-10.48273
 20
-14.83857
 30
0.0
 10
-10.48273
 20
-14.83857
 30
0.0
 10
-10.48707
 20
-14.83857
 30
0.0
 10
-10.48707
 20
-14.83857
 30
0.0
 10
-10.48707
 20
-14.83857
 30
0.0
 10
-10.48707
 20
-14.83857
 30
0.0
 10
-10.48707
 20
-14.83331
 30
0.0
 10
-10.48707
 20
-14.83331
 30
0.0
  0
SPLINE
  5
69
330
1F
100
AcDbEntity
  8
Layer 1
 62
   250
100
AcDbSpline
210
0.0
220
0.0
230
1.0
 70
    11
 71
     3
 72
    52
 73
    48
 74
     0
 42
0.0000000001
 43
0.0000000001
 40
0.0
 40
0.0
 40
0.0
 40
0.0
 40
0.0833333333333333
 40
0.0833333333333333
 40
0.0833333333333333
 40
0.0833333333333333
 40
0.1666666666666667
 40
0.1666666666666667
 40
0.1666666666666667
 40
0.1666666666666667
 40
0.25
 40
0.25
 40
0.25
 40
0.25
 40
0.3333333333333333
 40
0.3333333333333333
 40
0.3333333333333333
 40
0.3333333333333333
 40
0.4166666666666666
 40
0.4166666666666666
 40
0.4166666666666666
 40
0.4166666666666666
 40
0.4999999999999999
 40
0.4999999999999999
 40
0.4999999999999999
 40
0.4999999999999999
 40
0.5833333333333333
 40
0.5833333333333333
 40
0.5833333333333333
 40
0.5833333333333333
 40
0.6666666666666666
 40
0.6666666666666666
 40
0.6666666666666666
 40
0.6666666666666666
 40
0.75
 40
0.75
 40
0.75
 40
0.75
 40
0.8333333333333334
 40
0.8333333333333334
 40
0.8333333333333334
 40
0.8333333333333334
 40
0.9166666666666667
 40
0.9166666666666667
 40
0.9166666666666667
 40
0.9166666666666667
 40
1.0
 40
1.0
 40
1.0
 40
1.0
 10
-10.46325
 20
-14.83158
 30
0.0
 10
-10.46325
 20
-14.833
 30
0.0
 10
-10.46299
 20
-14.83407
 30
0.0
 10
-10.46247
 20
-14.8348
 30
0.0
 10
-10.46247
 20
-14.8348
 30
0.0
 10
-10.46195
 20
-14.83552
 30
0.0
 10
-10.46118
 20
-14.83588
 30
0.0
 10
-10.46015
 20
-14.83588
 30
0.0
 10
-10.46015
 20
-14.83588
 30
0.0
 10
-10.46015
 20
-14.83588
 30
0.0
 10
-10.45645
 20
-14.83588
 30
0.0
 10
-10.45645
 20
-14.83588
 30
0.0
 10
-10.45645
 20
-14.83588
 30
0.0
 10
-10.45645
 20
-14.83588
 30
0.0
 10
-10.45645
 20
-14.83857
 30
0.0
 10
-10.45645
 20
-14.83857
 30
0.0
 10
-10.45645
 20
-14.83857
 30
0.0
 10
-10.45645
 20
-14.83857
 30
0.0
 10
-10.46046
 20
-14.83857
 30
0.0
 10
-10.46046
 20
-14.83857
 30
0.0
 10
-10.46046
 20
-14.83857
 30
0.0
 10
-10.46236
 20
-14.83857
 30
0.0
 10
-10.46382
 20
-14.83796
 30
0.0
 10
-10.46486
 20
-14.83674
 30
0.0
 10
-10.46486
 20
-14.83674
 30
0.0
 10
-10.4659
 20
-14.83552
 30
0.0
 10
-10.46642
 20
-14.8338
 30
0.0
 10
-10.46642
 20
-14.83158
 30
0.0
 10
-10.46642
 20
-14.83158
 30
0.0
 10
-10.46642
 20
-14.83158
 30
0.0
 10
-10.46642
 20
-14.81406
 30
0.0
 10
-10.46642
 20
-14.81406
 30
0.0
 10
-10.46642
 20
-14.81406
 30
0.0
 10
-10.46642
 20
-14.81406
 30
0.0
 10
-10.4715
 20
-14.81406
 30
0.0
 10
-10.4715
 20
-14.81406
 30
0.0
 10
-10.4715
 20
-14.81406
 30
0.0
 10
-10.4715
 20
-14.81406
 30
0.0
 10
-10.4715
 20
-14.81157
 30
0.0
 10
-10.4715
 20
-14.81157
 30
0.0
 10
-10.4715
 20
-14.81157
 30
0.0
 10
-10.4715
 20
-14.81157
 30
0.0
 10
-10.46325
 20
-14.81157
 30
0.0
 10
-10.46325
 20
-14.81157
 30
0.0
 10
-10.46325
 20
-14.81157
 30
0.0
 10
-10.46325
 20
-14.81157
 30
0.0
 10
-10.46325
 20
-14.83158
 30
0.0
 10
-10.46325
 20
-14.83158
 30
0.0
  0
SPLINE
  5
6A
330
1F
100
AcDbEntity
  8
Layer 1
 62
   250
100
AcDbSpline
210
0.0
220
0.0
230
1.0
 70
    11
 71
     3
 72
    76
 73
    72
 74
     0
 42
0.0000000001
 43
0.0000000001
 40
0.0
 40
0.0
 40
0.0
 40
0.0
 40
0.0555555555555556
 40
0.0555555555555556
 40
0.0555555555555556
 40
0.0555555555555556
 40
0.1111111111111111
 40
0.1111111111111111
 40
0.1111111111111111
 40
0.1111111111111111
 40
0.1666666666666667
 40
0.1666666666666667
 40
0.1666666666666667
 40
0.1666666666666667
 40
0.2222222222222222
 40
0.2222222222222222
 40
0.2222222222222222
 40
0.2222222222222222
 40
0.2777777777777778
 40
0.2777777777777778
 40
0.2777777777777778
 40
0.2777777777777778
 40
0.3333333333333334
 40
0.3333333333333334
 40
0.3333333333333334
 40
0.3333333333333334
 40
0.388888888888889
 40
0.388888888888889
 40
0.388888888888889
 40
0.388888888888889
 40
0.4444444444444445
 40
0.4444444444444445
 40
0.4444444444444445
 40
0.4444444444444445
 40
0.5000000000000001
 40
0.5000000000000001
 40
0.5000000000000001
 40
0.5000000000000001
 40
0.5555555555555557
 40
0.5555555555555557
 40
0.5555555555555557
 40
0.5555555555555557
 40
0.6111111111111113
 40
0.6111111111111113
 40
0.6111111111111113
 40
0.6111111111111113
 40
0.6666666666666669
 40
0.6666666666666669
 40
0.6666666666666669
 40
0.6666666666666669
 40
0.7222222222222224
 40
0.7222222222222224
 40
0.7222222222222224
 40
0.7222222222222224
 40
0.777777777777778
 40
0.777777777777778
 40
0.777777777777778
 40
0.777777777777778
 40
0.8333333333333336
 40
0.8333333333333336
 40
0.8333333333333336
 40
0.8333333333333336
 40
0.8888888888888892
 40
0.8888888888888892
 40
0.8888888888888892
 40
0.8888888888888892
 40
0.9444444444444448
 40
0.9444444444444448
 40
0.9444444444444448
 40
0.9444444444444448
 40
1.0
 40
1.0
 40
1.0
 40
1.0
 10
-10.44244
 20
-14.8138
 30
0.0
 10
-10.44244
 20
-14.8138
 30
0.0
 10
-10.44244
 20
-14.81928
 30
0.0
 10
-10.44244
 20
-14.81928
 30
0.0
 10
-10.44244
 20
-14.81928
 30
0.0
 10
-10.44244
 20
-14.81928
 30
0.0
 10
-10.43524
 20
-14.81928
 30
0.0
 10
-10.43524
 20
-14.81928
 30
0.0
 10
-10.43524
 20
-14.81928
 30
0.0
 10
-10.43524
 20
-14.81928
 30
0.0
 10
-10.43524
 20
-14.82174
 30
0.0
 10
-10.43524
 20
-14.82174
 30
0.0
 10
-10.43524
 20
-14.82174
 30
0.0
 10
-10.43524
 20
-14.82174
 30
0.0
 10
-10.44244
 20
-14.82174
 30
0.0
 10
-10.44244
 20
-14.82174
 30
0.0
 10
-10.44244
 20
-14.82174
 30
0.0
 10
-10.44244
 20
-14.82174
 30
0.0
 10
-10.44244
 20
-14.83221
 30
0.0
 10
-10.44244
 20
-14.83221
 30
0.0
 10
-10.44244
 20
-14.83221
 30
0.0
 10
-10.44244
 20
-14.83364
 30
0.0
 10
-10.44217
 20
-14.83463
 30
0.0
 10
-10.44163
 20
-14.83519
 30
0.0
 10
-10.44163
 20
-14.83519
 30
0.0
 10
-10.44109
 20
-14.83575
 30
0.0
 10
-10.44015
 20
-14.83604
 30
0.0
 10
-10.43881
 20
-14.83604
 30
0.0
 10
-10.43881
 20
-14.83604
 30
0.0
 10
-10.43881
 20
-14.83604
 30
0.0
 10
-10.43524
 20
-14.83604
 30
0.0
 10
-10.43524
 20
-14.83604
 30
0.0
 10
-10.43524
 20
-14.83604
 30
0.0
 10
-10.43524
 20
-14.83604
 30
0.0
 10
-10.43524
 20
-14.83857
 30
0.0
 10
-10.43524
 20
-14.83857
 30
0.0
 10
-10.43524
 20
-14.83857
 30
0.0
 10
-10.43524
 20
-14.83857
 30
0.0
 10
-10.43911
 20
-14.83857
 30
0.0
 10
-10.43911
 20
-14.83857
 30
0.0
 10
-10.43911
 20
-14.83857
 30
0.0
 10
-10.4415
 20
-14.83857
 30
0.0
 10
-10.44317
 20
-14.83809
 30
0.0
 10
-10.44415
 20
-14.83714
 30
0.0
 10
-10.44415
 20
-14.83714
 30
0.0
 10
-10.44512
 20
-14.83619
 30
0.0
 10
-10.44561
 20
-14.83454
 30
0.0
 10
-10.44561
 20
-14.83221
 30
0.0
 10
-10.44561
 20
-14.83221
 30
0.0
 10
-10.44561
 20
-14.83221
 30
0.0
 10
-10.44561
 20
-14.82174
 30
0.0
 10
-10.44561
 20
-14.82174
 30
0.0
 10
-10.44561
 20
-14.82174
 30
0.0
 10
-10.44561
 20
-14.82174
 30
0.0
 10
-10.45076
 20
-14.82174
 30
0.0
 10
-10.45076
 20
-14.82174
 30
0.0
 10
-10.45076
 20
-14.82174
 30
0.0
 10
-10.45076
 20
-14.82174
 30
0.0
 10
-10.45076
 20
-14.81928
 30
0.0
 10
-10.45076
 20
-14.81928
 30
0.0
 10
-10.45076
 20
-14.81928
 30
0.0
 10
-10.45076
 20
-14.81928
 30
0.0
 10
-10.44561
 20
-14.81928
 30
0.0
 10
-10.44561
 20
-14.81928
 30
0.0
 10
-10.44561
 20
-14.81928
 30
0.0
 10
-10.44561
 20
-14.81928
 30
0.0
 10
-10.44561
 20
-14.8138
 30
0.0
 10
-10.44561
 20
-14.8138
 30
0.0
 10
-10.44561
 20
-14.8138
 30
0.0
 10
-10.44561
 20
-14.8138
 30
0.0
 10
-10.44244
 20
-14.8138
 30
0.0
 10
-10.44244
 20
-14.8138
 30
0.0
  0
SPLINE
  5
6B
330
1F
100
AcDbEntity
  8
Layer 1
 62
   250
100
AcDbSpline
210
0.0
220
0.0
230
1.0
 70
    11
 71
     3
 72
    20
 73
    16
 74
     0
 42
0.0000000001
 43
0.0000000001
 40
0.0
 40
0.0
 40
0.0
 40
0.0
 40
0.25
 40
0.25
 40
0.25
 40
0.25
 40
0.5
 40
0.5
 40
0.5
 40
0.5
 40
0.75
 40
0.75
 40
0.75
 40
0.75
 40
1.0
 40
1.0
 40
1.0
 40
1.0
 10
-10.41646
 20
-14.81285
 30
0.0
 10
-10.41646
 20
-14.81285
 30
0.0
 10
-10.41319
 20
-14.81285
 30
0.0
 10
-10.41319
 20
-14.81285
 30
0.0
 10
-10.41319
 20
-14.81285
 30
0.0
 10
-10.41319
 20
-14.81285
 30
0.0
 10
-10.42673
 20
-14.84185
 30
0.0
 10
-10.42673
 20
-14.84185
 30
0.0
 10
-10.42673
 20
-14.84185
 30
0.0
 10
-10.42673
 20
-14.84185
 30
0.0
 10
-10.43002
 20
-14.84185
 30
0.0
 10
-10.43002
 20
-14.84185
 30
0.0
 10
-10.43002
 20
-14.84185
 30
0.0
 10
-10.43002
 20
-14.84185
 30
0.0
 10
-10.41646
 20
-14.81285
 30
0.0
 10
-10.41646
 20
-14.81285
 30
0.0
  0
SPLINE
  5
6C
330
1F
100
AcDbEntity
  8
Layer 1
 62
   250
100
AcDbSpline
210
0.0
220
0.0
230
1.0
 70
    11
 71
     3
 72
    76
 73
    72
 74
     0
 42
0.0000000001
 43
0.0000000001
 40
0.0
 40
0.0
 40
0.0
 40
0.0
 40
0.0555555555555556
 40
0.0555555555555556
 40
0.0555555555555556
 40
0.0555555555555556
 40
0.1111111111111111
 40
0.1111111111111111
 40
0.1111111111111111
 40
0.1111111111111111
 40
0.1666666666666667
 40
0.1666666666666667
 40
0.1666666666666667
 40
0.1666666666666667
 40
0.2222222222222222
 40
0.2222222222222222
 40
0.2222222222222222
 40
0.2222222222222222
 40
0.2777777777777778
 40
0.2777777777777778
 40
0.2777777777777778
 40
0.2777777777777778
 40
0.3333333333333334
 40
0.3333333333333334
 40
0.3333333333333334
 40
0.3333333333333334
 40
0.388888888888889
 40
0.388888888888889
 40
0.388888888888889
 40
0.388888888888889
 40
0.4444444444444445
 40
0.4444444444444445
 40
0.4444444444444445
 40
0.4444444444444445
 40
0.5000000000000001
 40
0.5000000000000001
 40
0.5000000000000001
 40
0.5000000000000001
 40
0.5555555555555557
 40
0.5555555555555557
 40
0.5555555555555557
 40
0.5555555555555557
 40
0.6111111111111113
 40
0.6111111111111113
 40
0.6111111111111113
 40
0.6111111111111113
 40
0.6666666666666669
 40
0.6666666666666669
 40
0.6666666666666669
 40
0.6666666666666669
 40
0.7222222222222224
 40
0.7222222222222224
 40
0.7222222222222224
 40
0.7222222222222224
 40
0.777777777777778
 40
0.777777777777778
 40
0.777777777777778
 40
0.777777777777778
 40
0.8333333333333336
 40
0.8333333333333336
 40
0.8333333333333336
 40
0.8333333333333336
 40
0.8888888888888892
 40
0.8888888888888892
 40
0.8888888888888892
 40
0.8888888888888892
 40
0.9444444444444448
 40
0.9444444444444448
 40
0.9444444444444448
 40
0.9444444444444448
 40
1.0
 40
1.0
 40
1.0
 40
1.0
 10
-10.58108
 20
-14.88689
 30
0.0
 10
-10.58209
 20
-14.88741
 30
0.0
 10
-10.58314
 20
-14.8878
 30
0.0
 10
-10.58425
 20
-14.88806
 30
0.0
 10
-10.58425
 20
-14.88806
 30
0.0
 10
-10.58535
 20
-14.88831
 30
0.0
 10
-10.58651
 20
-14.88844
 30
0.0
 10
-10.58773
 20
-14.88844
 30
0.0
 10
-10.58773
 20
-14.88844
 30
0.0
 10
-10.59207
 20
-14.88844
 30
0.0
 10
-10.59539
 20
-14.88702
 30
0.0
 10
-10.59766
 20
-14.88416
 30
0.0
 10
-10.59766
 20
-14.88416
 30
0.0
 10
-10.59995
 20
-14.8813
 30
0.0
 10
-10.60109
 20
-14.87718
 30
0.0
 10
-10.60109
 20
-14.87177
 30
0.0
 10
-10.60109
 20
-14.87177
 30
0.0
 10
-10.60109
 20
-14.86637
 30
0.0
 10
-10.59995
 20
-14.86223
 30
0.0
 10
-10.59766
 20
-14.85938
 30
0.0
 10
-10.59766
 20
-14.85938
 30
0.0
 10
-10.59539
 20
-14.85652
 30
0.0
 10
-10.59207
 20
-14.85509
 30
0.0
 10
-10.58773
 20
-14.85509
 30
0.0
 10
-10.58773
 20
-14.85509
 30
0.0
 10
-10.58651
 20
-14.85509
 30
0.0
 10
-10.58535
 20
-14.85522
 30
0.0
 10
-10.58423
 20
-14.85548
 30
0.0
 10
-10.58423
 20
-14.85548
 30
0.0
 10
-10.5831
 20
-14.85574
 30
0.0
 10
-10.58206
 20
-14.85613
 30
0.0
 10
-10.58108
 20
-14.85664
 30
0.0
 10
-10.58108
 20
-14.85664
 30
0.0
 10
-10.58108
 20
-14.85664
 30
0.0
 10
-10.58108
 20
-14.8637
 30
0.0
 10
-10.58108
 20
-14.8637
 30
0.0
 10
-10.58108
 20
-14.8637
 30
0.0
 10
-10.58217
 20
-14.8627
 30
0.0
 10
-10.58324
 20
-14.86196
 30
0.0
 10
-10.58426
 20
-14.86149
 30
0.0
 10
-10.58426
 20
-14.86149
 30
0.0
 10
-10.58529
 20
-14.86103
 30
0.0
 10
-10.58635
 20
-14.86079
 30
0.0
 10
-10.58744
 20
-14.86079
 30
0.0
 10
-10.58744
 20
-14.86079
 30
0.0
 10
-10.58976
 20
-14.86079
 30
0.0
 10
-10.59152
 20
-14.86172
 30
0.0
 10
-10.5927
 20
-14.86356
 30
0.0
 10
-10.5927
 20
-14.86356
 30
0.0
 10
-10.59389
 20
-14.86541
 30
0.0
 10
-10.59448
 20
-14.86814
 30
0.0
 10
-10.59448
 20
-14.87177
 30
0.0
 10
-10.59448
 20
-14.87177
 30
0.0
 10
-10.59448
 20
-14.8754
 30
0.0
 10
-10.59389
 20
-14.87813
 30
0.0
 10
-10.5927
 20
-14.87997
 30
0.0
 10
-10.5927
 20
-14.87997
 30
0.0
 10
-10.59152
 20
-14.88182
 30
0.0
 10
-10.58976
 20
-14.88274
 30
0.0
 10
-10.58744
 20
-14.88274
 30
0.0
 10
-10.58744
 20
-14.88274
 30
0.0
 10
-10.58635
 20
-14.88274
 30
0.0
 10
-10.58529
 20
-14.88251
 30
0.0
 10
-10.58426
 20
-14.88204
 30
0.0
 10
-10.58426
 20
-14.88204
 30
0.0
 10
-10.58324
 20
-14.88157
 30
0.0
 10
-10.58217
 20
-14.88084
 30
0.0
 10
-10.58108
 20
-14.87983
 30
0.0
 10
-10.58108
 20
-14.87983
 30
0.0
 10
-10.58108
 20
-14.87983
 30
0.0
 10
-10.58108
 20
-14.88689
 30
0.0
 10
-10.58108
 20
-14.88689
 30
0.0
  0
SPLINE
  5
6D
330
1F
100
AcDbEntity
  8
Layer 1
 62
   250
100
AcDbSpline
210
0.0
220
0.0
230
1.0
 70
    11
 71
     3
 72
    36
 73
    32
 74
     0
 42
0.0000000001
 43
0.0000000001
 40
0.0
 40
0.0
 40
0.0
 40
0.0
 40
0.125
 40
0.125
 40
0.125
 40
0.125
 40
0.25
 40
0.25
 40
0.25
 40
0.25
 40
0.375
 40
0.375
 40
0.375
 40
0.375
 40
0.5
 40
0.5
 40
0.5
 40
0.5
 40
0.625
 40
0.625
 40
0.625
 40
0.625
 40
0.75
 40
0.75
 40
0.75
 40
0.75
 40
0.875
 40
0.875
 40
0.875
 40
0.875
 40
1.0
 40
1.0
 40
1.0
 40
1.0
 10
-10.56136
 20
-14.88782
 30
0.0
 10
-10.56136
 20
-14.88782
 30
0.0
 10
-10.56771
 20
-14.88782
 30
0.0
 10
-10.56771
 20
-14.88782
 30
0.0
 10
-10.56771
 20
-14.88782
 30
0.0
 10
-10.56771
 20
-14.88782
 30
0.0
 10
-10.56771
 20
-14.86123
 30
0.0
 10
-10.56771
 20
-14.86123
 30
0.0
 10
-10.56771
 20
-14.86123
 30
0.0
 10
-10.56771
 20
-14.86123
 30
0.0
 10
-10.57587
 20
-14.86123
 30
0.0
 10
-10.57587
 20
-14.86123
 30
0.0
 10
-10.57587
 20
-14.86123
 30
0.0
 10
-10.57587
 20
-14.86123
 30
0.0
 10
-10.57587
 20
-14.85567
 30
0.0
 10
-10.57587
 20
-14.85567
 30
0.0
 10
-10.57587
 20
-14.85567
 30
0.0
 10
-10.57587
 20
-14.85567
 30
0.0
 10
-10.5532
 20
-14.85567
 30
0.0
 10
-10.5532
 20
-14.85567
 30
0.0
 10
-10.5532
 20
-14.85567
 30
0.0
 10
-10.5532
 20
-14.85567
 30
0.0
 10
-10.5532
 20
-14.86123
 30
0.0
 10
-10.5532
 20
-14.86123
 30
0.0
 10
-10.5532
 20
-14.86123
 30
0.0
 10
-10.5532
 20
-14.86123
 30
0.0
 10
-10.56136
 20
-14.86123
 30
0.0
 10
-10.56136
 20
-14.86123
 30
0.0
 10
-10.56136
 20
-14.86123
 30
0.0
 10
-10.56136
 20
-14.86123
 30
0.0
 10
-10.56136
 20
-14.88782
 30
0.0
 10
-10.56136
 20
-14.88782
 30
0.0
  0
SPLINE
  5
6E
330
1F
100
AcDbEntity
  8
Layer 1
 62
   250
100
AcDbSpline
210
0.0
220
0.0
230
1.0
 70
    11
 71
     3
 72
   116
 73
   112
 74
     0
 42
0.0000000001
 43
0.0000000001
 40
0.0
 40
0.0
 40
0.0
 40
0.0
 40
0.0357142857142857
 40
0.0357142857142857
 40
0.0357142857142857
 40
0.0357142857142857
 40
0.0714285714285714
 40
0.0714285714285714
 40
0.0714285714285714
 40
0.0714285714285714
 40
0.1071428571428571
 40
0.1071428571428571
 40
0.1071428571428571
 40
0.1071428571428571
 40
0.1428571428571428
 40
0.1428571428571428
 40
0.1428571428571428
 40
0.1428571428571428
 40
0.1785714285714285
 40
0.1785714285714285
 40
0.1785714285714285
 40
0.1785714285714285
 40
0.2142857142857142
 40
0.2142857142857142
 40
0.2142857142857142
 40
0.2142857142857142
 40
0.2499999999999999
 40
0.2499999999999999
 40
0.2499999999999999
 40
0.2499999999999999
 40
0.2857142857142856
 40
0.2857142857142856
 40
0.2857142857142856
 40
0.2857142857142856
 40
0.3214285714285713
 40
0.3214285714285713
 40
0.3214285714285713
 40
0.3214285714285713
 40
0.357142857142857
 40
0.357142857142857
 40
0.357142857142857
 40
0.357142857142857
 40
0.3928571428571427
 40
0.3928571428571427
 40
0.3928571428571427
 40
0.3928571428571427
 40
0.4285714285714284
 40
0.4285714285714284
 40
0.4285714285714284
 40
0.4285714285714284
 40
0.4642857142857141
 40
0.4642857142857141
 40
0.4642857142857141
 40
0.4642857142857141
 40
0.4999999999999998
 40
0.4999999999999998
 40
0.4999999999999998
 40
0.4999999999999998
 40
0.5357142857142856
 40
0.5357142857142856
 40
0.5357142857142856
 40
0.5357142857142856
 40
0.5714285714285713
 40
0.5714285714285713
 40
0.5714285714285713
 40
0.5714285714285713
 40
0.607142857142857
 40
0.607142857142857
 40
0.607142857142857
 40
0.607142857142857
 40
0.6428571428571427
 40
0.6428571428571427
 40
0.6428571428571427
 40
0.6428571428571427
 40
0.6785714285714284
 40
0.6785714285714284
 40
0.6785714285714284
 40
0.6785714285714284
 40
0.7142857142857141
 40
0.7142857142857141
 40
0.7142857142857141
 40
0.7142857142857141
 40
0.7499999999999998
 40
0.7499999999999998
 40
0.7499999999999998
 40
0.7499999999999998
 40
0.7857142857142855
 40
0.7857142857142855
 40
0.7857142857142855
 40
0.7857142857142855
 40
0.8214285714285712
 40
0.8214285714285712
 40
0.8214285714285712
 40
0.8214285714285712
 40
0.8571428571428569
 40
0.8571428571428569
 40
0.8571428571428569
 40
0.8571428571428569
 40
0.8928571428571426
 40
0.8928571428571426
 40
0.8928571428571426
 40
0.8928571428571426
 40
0.9285714285714283
 40
0.9285714285714283
 40
0.9285714285714283
 40
0.9285714285714283
 40
0.964285714285714
 40
0.964285714285714
 40
0.964285714285714
 40
0.964285714285714
 40
1.0
 40
1.0
 40
1.0
 40
1.0
 10
-10.54028
 20
-14.87372
 30
0.0
 10
-10.54348
 20
-14.8725
 30
0.0
 10
-10.54564
 20
-14.87121
 30
0.0
 10
-10.54678
 20
-14.86987
 30
0.0
 10
-10.54678
 20
-14.86987
 30
0.0
 10
-10.54792
 20
-14.86853
 30
0.0
 10
-10.54848
 20
-14.86673
 30
0.0
 10
-10.54848
 20
-14.86445
 30
0.0
 10
-10.54848
 20
-14.86445
 30
0.0
 10
-10.54848
 20
-14.86154
 30
0.0
 10
-10.54755
 20
-14.85925
 30
0.0
 10
-10.54568
 20
-14.85759
 30
0.0
 10
-10.54568
 20
-14.85759
 30
0.0
 10
-10.54381
 20
-14.85592
 30
0.0
 10
-10.54126
 20
-14.85509
 30
0.0
 10
-10.53799
 20
-14.85509
 30
0.0
 10
-10.53799
 20
-14.85509
 30
0.0
 10
-10.53652
 20
-14.85509
 30
0.0
 10
-10.53504
 20
-14.85526
 30
0.0
 10
-10.53356
 20
-14.8556
 30
0.0
 10
-10.53356
 20
-14.8556
 30
0.0
 10
-10.53208
 20
-14.85594
 30
0.0
 10
-10.53061
 20
-14.85643
 30
0.0
 10
-10.52917
 20
-14.85709
 30
0.0
 10
-10.52917
 20
-14.85709
 30
0.0
 10
-10.52917
 20
-14.85709
 30
0.0
 10
-10.52917
 20
-14.86329
 30
0.0
 10
-10.52917
 20
-14.86329
 30
0.0
 10
-10.52917
 20
-14.86329
 30
0.0
 10
-10.53053
 20
-14.86233
 30
0.0
 10
-10.53191
 20
-14.8616
 30
0.0
 10
-10.53332
 20
-14.8611
 30
0.0
 10
-10.53332
 20
-14.8611
 30
0.0
 10
-10.53473
 20
-14.8606
 30
0.0
 10
-10.53612
 20
-14.86035
 30
0.0
 10
-10.5375
 20
-14.86035
 30
0.0
 10
-10.5375
 20
-14.86035
 30
0.0
 10
-10.53904
 20
-14.86035
 30
0.0
 10
-10.54021
 20
-14.86065
 30
0.0
 10
-10.54103
 20
-14.86127
 30
0.0
 10
-10.54103
 20
-14.86127
 30
0.0
 10
-10.54184
 20
-14.86189
 30
0.0
 10
-10.54226
 20
-14.86277
 30
0.0
 10
-10.54226
 20
-14.86392
 30
0.0
 10
-10.54226
 20
-14.86392
 30
0.0
 10
-10.54226
 20
-14.86481
 30
0.0
 10
-10.54195
 20
-14.86554
 30
0.0
 10
-10.54136
 20
-14.86612
 30
0.0
 10
-10.54136
 20
-14.86612
 30
0.0
 10
-10.54076
 20
-14.8667
 30
0.0
 10
-10.53952
 20
-14.86735
 30
0.0
 10
-10.53763
 20
-14.86805
 30
0.0
 10
-10.53763
 20
-14.86805
 30
0.0
 10
-10.53763
 20
-14.86805
 30
0.0
 10
-10.53489
 20
-14.86908
 30
0.0
 10
-10.53489
 20
-14.86908
 30
0.0
 10
-10.53489
 20
-14.86908
 30
0.0
 10
-10.53231
 20
-14.87003
 30
0.0
 10
-10.53041
 20
-14.87129
 30
0.0
 10
-10.52919
 20
-14.87286
 30
0.0
 10
-10.52919
 20
-14.87286
 30
0.0
 10
-10.52797
 20
-14.87442
 30
0.0
 10
-10.52736
 20
-14.87639
 30
0.0
 10
-10.52736
 20
-14.87877
 30
0.0
 10
-10.52736
 20
-14.87877
 30
0.0
 10
-10.52736
 20
-14.88202
 30
0.0
 10
-10.52831
 20
-14.88444
 30
0.0
 10
-10.53023
 20
-14.88604
 30
0.0
 10
-10.53023
 20
-14.88604
 30
0.0
 10
-10.53215
 20
-14.88764
 30
0.0
 10
-10.53505
 20
-14.88844
 30
0.0
 10
-10.53892
 20
-14.88844
 30
0.0
 10
-10.53892
 20
-14.88844
 30
0.0
 10
-10.54051
 20
-14.88844
 30
0.0
 10
-10.54211
 20
-14.88825
 30
0.0
 10
-10.54371
 20
-14.88787
 30
0.0
 10
-10.54371
 20
-14.88787
 30
0.0
 10
-10.54531
 20
-14.88749
 30
0.0
 10
-10.54686
 20
-14.88693
 30
0.0
 10
-10.54835
 20
-14.88618
 30
0.0
 10
-10.54835
 20
-14.88618
 30
0.0
 10
-10.54835
 20
-14.88618
 30
0.0
 10
-10.54835
 20
-14.87961
 30
0.0
 10
-10.54835
 20
-14.87961
 30
0.0
 10
-10.54835
 20
-14.87961
 30
0.0
 10
-10.54666
 20
-14.88082
 30
0.0
 10
-10.54501
 20
-14.88172
 30
0.0
 10
-10.54343
 20
-14.88231
 30
0.0
 10
-10.54343
 20
-14.88231
 30
0.0
 10
-10.54184
 20
-14.8829
 30
0.0
 10
-10.54028
 20
-14.88319
 30
0.0
 10
-10.53873
 20
-14.88319
 30
0.0
 10
-10.53873
 20
-14.88319
 30
0.0
 10
-10.53716
 20
-14.88319
 30
0.0
 10
-10.53595
 20
-14.88284
 30
0.0
 10
-10.53509
 20
-14.88212
 30
0.0
 10
-10.53509
 20
-14.88212
 30
0.0
 10
-10.53423
 20
-14.88141
 30
0.0
 10
-10.5338
 20
-14.88042
 30
0.0
 10
-10.5338
 20
-14.87914
 30
0.0
 10
-10.5338
 20
-14.87914
 30
0.0
 10
-10.5338
 20
-14.87818
 30
0.0
 10
-10.53408
 20
-14.87733
 30
0.0
 10
-10.53466
 20
-14.87661
 30
0.0
 10
-10.53466
 20
-14.87661
 30
0.0
 10
-10.53523
 20
-14.87588
 30
0.0
 10
-10.53606
 20
-14.87531
 30
0.0
 10
-10.53716
 20
-14.8749
 30
0.0
 10
-10.53716
 20
-14.8749
 30
0.0
 10
-10.53716
 20
-14.8749
 30
0.0
 10
-10.54028
 20
-14.87372
 30
0.0
 10
-10.54028
 20
-14.87372
 30
0.0
  0
SPLINE
  5
6F
330
1F
100
AcDbEntity
  8
Layer 1
 62
   250
100
AcDbSpline
210
0.0
220
0.0
230
1.0
 70
    11
 71
     3
 72
    48
 73
    44
 74
     0
 42
0.0000000001
 43
0.0000000001
 40
0.0
 40
0.0
 40
0.0
 40
0.0
 40
0.0909090909090909
 40
0.0909090909090909
 40
0.0909090909090909
 40
0.0909090909090909
 40
0.1818181818181818
 40
0.1818181818181818
 40
0.1818181818181818
 40
0.1818181818181818
 40
0.2727272727272727
 40
0.2727272727272727
 40
0.2727272727272727
 40
0.2727272727272727
 40
0.3636363636363636
 40
0.3636363636363636
 40
0.3636363636363636
 40
0.3636363636363636
 40
0.4545454545454546
 40
0.4545454545454546
 40
0.4545454545454546
 40
0.4545454545454546
 40
0.5454545454545455
 40
0.5454545454545455
 40
0.5454545454545455
 40
0.5454545454545455
 40
0.6363636363636365
 40
0.6363636363636365
 40
0.6363636363636365
 40
0.6363636363636365
 40
0.7272727272727274
 40
0.7272727272727274
 40
0.7272727272727274
 40
0.7272727272727274
 40
0.8181818181818183
 40
0.8181818181818183
 40
0.8181818181818183
 40
0.8181818181818183
 40
0.9090909090909093
 40
0.9090909090909093
 40
0.9090909090909093
 40
0.9090909090909093
 40
1.0
 40
1.0
 40
1.0
 40
1.0
 10
-10.52066
 20
-14.88222
 30
0.0
 10
-10.52066
 20
-14.88222
 30
0.0
 10
-10.51355
 20
-14.88222
 30
0.0
 10
-10.51355
 20
-14.88222
 30
0.0
 10
-10.51355
 20
-14.88222
 30
0.0
 10
-10.51355
 20
-14.88222
 30
0.0
 10
-10.51355
 20
-14.86135
 30
0.0
 10
-10.51355
 20
-14.86135
 30
0.0
 10
-10.51355
 20
-14.86135
 30
0.0
 10
-10.51355
 20
-14.86135
 30
0.0
 10
-10.52016
 20
-14.86299
 30
0.0
 10
-10.52016
 20
-14.86299
 30
0.0
 10
-10.52016
 20
-14.86299
 30
0.0
 10
-10.52016
 20
-14.86299
 30
0.0
 10
-10.52016
 20
-14.85727
 30
0.0
 10
-10.52016
 20
-14.85727
 30
0.0
 10
-10.52016
 20
-14.85727
 30
0.0
 10
-10.52016
 20
-14.85727
 30
0.0
 10
-10.51351
 20
-14.85567
 30
0.0
 10
-10.51351
 20
-14.85567
 30
0.0
 10
-10.51351
 20
-14.85567
 30
0.0
 10
-10.51351
 20
-14.85567
 30
0.0
 10
-10.50737
 20
-14.85567
 30
0.0
 10
-10.50737
 20
-14.85567
 30
0.0
 10
-10.50737
 20
-14.85567
 30
0.0
 10
-10.50737
 20
-14.85567
 30
0.0
 10
-10.50737
 20
-14.88222
 30
0.0
 10
-10.50737
 20
-14.88222
 30
0.0
 10
-10.50737
 20
-14.88222
 30
0.0
 10
-10.50737
 20
-14.88222
 30
0.0
 10
-10.50026
 20
-14.88222
 30
0.0
 10
-10.50026
 20
-14.88222
 30
0.0
 10
-10.50026
 20
-14.88222
 30
0.0
 10
-10.50026
 20
-14.88222
 30
0.0
 10
-10.50026
 20
-14.88782
 30
0.0
 10
-10.50026
 20
-14.88782
 30
0.0
 10
-10.50026
 20
-14.88782
 30
0.0
 10
-10.50026
 20
-14.88782
 30
0.0
 10
-10.52066
 20
-14.88782
 30
0.0
 10
-10.52066
 20
-14.88782
 30
0.0
 10
-10.52066
 20
-14.88782
 30
0.0
 10
-10.52066
 20
-14.88782
 30
0.0
 10
-10.52066
 20
-14.88222
 30
0.0
 10
-10.52066
 20
-14.88222
 30
0.0
  0
SPLINE
  5
70
330
1F
100
AcDbEntity
  8
Layer 1
 62
   250
100
AcDbSpline
210
0.0
220
0.0
230
1.0
 70
    11
 71
     3
 72
    60
 73
    56
 74
     0
 42
0.0000000001
 43
0.0000000001
 40
0.0
 40
0.0
 40
0.0
 40
0.0
 40
0.0714285714285714
 40
0.0714285714285714
 40
0.0714285714285714
 40
0.0714285714285714
 40
0.1428571428571428
 40
0.1428571428571428
 40
0.1428571428571428
 40
0.1428571428571428
 40
0.2142857142857143
 40
0.2142857142857143
 40
0.2142857142857143
 40
0.2142857142857143
 40
0.2857142857142857
 40
0.2857142857142857
 40
0.2857142857142857
 40
0.2857142857142857
 40
0.3571428571428571
 40
0.3571428571428571
 40
0.3571428571428571
 40
0.3571428571428571
 40
0.4285714285714285
 40
0.4285714285714285
 40
0.4285714285714285
 40
0.4285714285714285
 40
0.4999999999999999
 40
0.4999999999999999
 40
0.4999999999999999
 40
0.4999999999999999
 40
0.5714285714285713
 40
0.5714285714285713
 40
0.5714285714285713
 40
0.5714285714285713
 40
0.6428571428571427
 40
0.6428571428571427
 40
0.6428571428571427
 40
0.6428571428571427
 40
0.7142857142857141
 40
0.7142857142857141
 40
0.7142857142857141
 40
0.7142857142857141
 40
0.7857142857142855
 40
0.7857142857142855
 40
0.7857142857142855
 40
0.7857142857142855
 40
0.8571428571428569
 40
0.8571428571428569
 40
0.8571428571428569
 40
0.8571428571428569
 40
0.9285714285714283
 40
0.9285714285714283
 40
0.9285714285714283
 40
0.9285714285714283
 40
1.0
 40
1.0
 40
1.0
 40
1.0
 10
-10.49587
 20
-14.87596
 30
0.0
 10
-10.49587
 20
-14.87596
 30
0.0
 10
-10.49587
 20
-14.85567
 30
0.0
 10
-10.49587
 20
-14.85567
 30
0.0
 10
-10.49587
 20
-14.85567
 30
0.0
 10
-10.49587
 20
-14.85567
 30
0.0
 10
-10.48952
 20
-14.85567
 30
0.0
 10
-10.48952
 20
-14.85567
 30
0.0
 10
-10.48952
 20
-14.85567
 30
0.0
 10
-10.48952
 20
-14.85567
 30
0.0
 10
-10.48952
 20
-14.87755
 30
0.0
 10
-10.48952
 20
-14.87755
 30
0.0
 10
-10.48952
 20
-14.87755
 30
0.0
 10
-10.48952
 20
-14.87916
 30
0.0
 10
-10.48911
 20
-14.88042
 30
0.0
 10
-10.4883
 20
-14.88133
 30
0.0
 10
-10.4883
 20
-14.88133
 30
0.0
 10
-10.48748
 20
-14.88224
 30
0.0
 10
-10.48634
 20
-14.8827
 30
0.0
 10
-10.48489
 20
-14.8827
 30
0.0
 10
-10.48489
 20
-14.8827
 30
0.0
 10
-10.48345
 20
-14.8827
 30
0.0
 10
-10.48231
 20
-14.88224
 30
0.0
 10
-10.48149
 20
-14.88133
 30
0.0
 10
-10.48149
 20
-14.88133
 30
0.0
 10
-10.48067
 20
-14.88042
 30
0.0
 10
-10.48026
 20
-14.87916
 30
0.0
 10
-10.48026
 20
-14.87755
 30
0.0
 10
-10.48026
 20
-14.87755
 30
0.0
 10
-10.48026
 20
-14.87755
 30
0.0
 10
-10.48026
 20
-14.85567
 30
0.0
 10
-10.48026
 20
-14.85567
 30
0.0
 10
-10.48026
 20
-14.85567
 30
0.0
 10
-10.48026
 20
-14.85567
 30
0.0
 10
-10.47391
 20
-14.85567
 30
0.0
 10
-10.47391
 20
-14.85567
 30
0.0
 10
-10.47391
 20
-14.85567
 30
0.0
 10
-10.47391
 20
-14.85567
 30
0.0
 10
-10.47391
 20
-14.87596
 30
0.0
 10
-10.47391
 20
-14.87596
 30
0.0
 10
-10.47391
 20
-14.87596
 30
0.0
 10
-10.47391
 20
-14.88032
 30
0.0
 10
-10.47478
 20
-14.88349
 30
0.0
 10
-10.47651
 20
-14.88548
 30
0.0
 10
-10.47651
 20
-14.88548
 30
0.0
 10
-10.47826
 20
-14.88745
 30
0.0
 10
-10.48105
 20
-14.88844
 30
0.0
 10
-10.48489
 20
-14.88844
 30
0.0
 10
-10.48489
 20
-14.88844
 30
0.0
 10
-10.48872
 20
-14.88844
 30
0.0
 10
-10.49152
 20
-14.88745
 30
0.0
 10
-10.49326
 20
-14.88548
 30
0.0
 10
-10.49326
 20
-14.88548
 30
0.0
 10
-10.495
 20
-14.88349
 30
0.0
 10
-10.49587
 20
-14.88032
 30
0.0
 10
-10.49587
 20
-14.87596
 30
0.0
  0
SPLINE
  5
71
330
1F
100
AcDbEntity
  8
Layer 1
 62
   250
100
AcDbSpline
210
0.0
220
0.0
230
1.0
 70
    11
 71
     3
 72
    36
 73
    32
 74
     0
 42
0.0000000001
 43
0.0000000001
 40
0.0
 40
0.0
 40
0.0
 40
0.0
 40
0.125
 40
0.125
 40
0.125
 40
0.125
 40
0.25
 40
0.25
 40
0.25
 40
0.25
 40
0.375
 40
0.375
 40
0.375
 40
0.375
 40
0.5
 40
0.5
 40
0.5
 40
0.5
 40
0.625
 40
0.625
 40
0.625
 40
0.625
 40
0.75
 40
0.75
 40
0.75
 40
0.75
 40
0.875
 40
0.875
 40
0.875
 40
0.875
 40
1.0
 40
1.0
 40
1.0
 40
1.0
 10
-10.46102
 20
-14.87177
 30
0.0
 10
-10.46102
 20
-14.87102
 30
0.0
 10
-10.46076
 20
-14.87038
 30
0.0
 10
-10.46024
 20
-14.86986
 30
0.0
 10
-10.46024
 20
-14.86986
 30
0.0
 10
-10.45973
 20
-14.86934
 30
0.0
 10
-10.45909
 20
-14.86908
 30
0.0
 10
-10.45834
 20
-14.86908
 30
0.0
 10
-10.45834
 20
-14.86908
 30
0.0
 10
-10.45759
 20
-14.86908
 30
0.0
 10
-10.45695
 20
-14.86934
 30
0.0
 10
-10.45643
 20
-14.86986
 30
0.0
 10
-10.45643
 20
-14.86986
 30
0.0
 10
-10.45591
 20
-14.87038
 30
0.0
 10
-10.45565
 20
-14.87102
 30
0.0
 10
-10.45565
 20
-14.87177
 30
0.0
 10
-10.45565
 20
-14.87177
 30
0.0
 10
-10.45565
 20
-14.87252
 30
0.0
 10
-10.45591
 20
-14.87316
 30
0.0
 10
-10.45643
 20
-14.87367
 30
0.0
 10
-10.45643
 20
-14.87367
 30
0.0
 10
-10.45695
 20
-14.87419
 30
0.0
 10
-10.45759
 20
-14.87445
 30
0.0
 10
-10.45834
 20
-14.87445
 30
0.0
 10
-10.45834
 20
-14.87445
 30
0.0
 10
-10.45909
 20
-14.87445
 30
0.0
 10
-10.45973
 20
-14.87419
 30
0.0
 10
-10.46024
 20
-14.87369
 30
0.0
 10
-10.46024
 20
-14.87369
 30
0.0
 10
-10.46076
 20
-14.87318
 30
0.0
 10
-10.46102
 20
-14.87254
 30
0.0
 10
-10.46102
 20
-14.87177
 30
0.0
  0
SPLINE
  5
72
330
1F
100
AcDbEntity
  8
Layer 1
 62
   250
100
AcDbSpline
210
0.0
220
0.0
230
1.0
 70
    11
 71
     3
 72
    36
 73
    32
 74
     0
 42
0.0000000001
 43
0.0000000001
 40
0.0
 40
0.0
 40
0.0
 40
0.0
 40
0.125
 40
0.125
 40
0.125
 40
0.125
 40
0.25
 40
0.25
 40
0.25
 40
0.25
 40
0.375
 40
0.375
 40
0.375
 40
0.375
 40
0.5
 40
0.5
 40
0.5
 40
0.5
 40
0.625
 40
0.625
 40
0.625
 40
0.625
 40
0.75
 40
0.75
 40
0.75
 40
0.75
 40
0.875
 40
0.875
 40
0.875
 40
0.875
 40
1.0
 40
1.0
 40
1.0
 40
1.0
 10
-10.45834
 20
-14.86047
 30
0.0
 10
-10.45981
 20
-14.86047
 30
0.0
 10
-10.46088
 20
-14.86137
 30
0.0
 10
-10.46156
 20
-14.86316
 30
0.0
 10
-10.46156
 20
-14.86316
 30
0.0
 10
-10.46223
 20
-14.86496
 30
0.0
 10
-10.46257
 20
-14.86783
 30
0.0
 10
-10.46257
 20
-14.87177
 30
0.0
 10
-10.46257
 20
-14.87177
 30
0.0
 10
-10.46257
 20
-14.87571
 30
0.0
 10
-10.46223
 20
-14.87857
 30
0.0
 10
-10.46156
 20
-14.88037
 30
0.0
 10
-10.46156
 20
-14.88037
 30
0.0
 10
-10.46088
 20
-14.88217
 30
0.0
 10
-10.45981
 20
-14.88306
 30
0.0
 10
-10.45834
 20
-14.88306
 30
0.0
 10
-10.45834
 20
-14.88306
 30
0.0
 10
-10.45687
 20
-14.88306
 30
0.0
 10
-10.45579
 20
-14.88217
 30
0.0
 10
-10.45512
 20
-14.88037
 30
0.0
 10
-10.45512
 20
-14.88037
 30
0.0
 10
-10.45444
 20
-14.87857
 30
0.0
 10
-10.4541
 20
-14.87571
 30
0.0
 10
-10.4541
 20
-14.87177
 30
0.0
 10
-10.4541
 20
-14.87177
 30
0.0
 10
-10.4541
 20
-14.86783
 30
0.0
 10
-10.45444
 20
-14.86496
 30
0.0
 10
-10.45512
 20
-14.86316
 30
0.0
 10
-10.45512
 20
-14.86316
 30
0.0
 10
-10.45579
 20
-14.86137
 30
0.0
 10
-10.45687
 20
-14.86047
 30
0.0
 10
-10.45834
 20
-14.86047
 30
0.0
  0
SPLINE
  5
73
330
1F
100
AcDbEntity
  8
Layer 1
 62
   250
100
AcDbSpline
210
0.0
220
0.0
230
1.0
 70
    11
 71
     3
 72
    36
 73
    32
 74
     0
 42
0.0000000001
 43
0.0000000001
 40
0.0
 40
0.0
 40
0.0
 40
0.0
 40
0.125
 40
0.125
 40
0.125
 40
0.125
 40
0.25
 40
0.25
 40
0.25
 40
0.25
 40
0.375
 40
0.375
 40
0.375
 40
0.375
 40
0.5
 40
0.5
 40
0.5
 40
0.5
 40
0.625
 40
0.625
 40
0.625
 40
0.625
 40
0.75
 40
0.75
 40
0.75
 40
0.75
 40
0.875
 40
0.875
 40
0.875
 40
0.875
 40
1.0
 40
1.0
 40
1.0
 40
1.0
 10
-10.46896
 20
-14.87177
 30
0.0
 10
-10.46896
 20
-14.86621
 30
0.0
 10
-10.46808
 20
-14.86204
 30
0.0
 10
-10.46632
 20
-14.85926
 30
0.0
 10
-10.46632
 20
-14.85926
 30
0.0
 10
-10.46455
 20
-14.85648
 30
0.0
 10
-10.46189
 20
-14.85509
 30
0.0
 10
-10.45834
 20
-14.85509
 30
0.0
 10
-10.45834
 20
-14.85509
 30
0.0
 10
-10.45479
 20
-14.85509
 30
0.0
 10
-10.45213
 20
-14.85647
 30
0.0
 10
-10.45035
 20
-14.85924
 30
0.0
 10
-10.45035
 20
-14.85924
 30
0.0
 10
-10.44859
 20
-14.86201
 30
0.0
 10
-10.44771
 20
-14.8662
 30
0.0
 10
-10.44771
 20
-14.87177
 30
0.0
 10
-10.44771
 20
-14.87177
 30
0.0
 10
-10.44771
 20
-14.87735
 30
0.0
 10
-10.44859
 20
-14.88152
 30
0.0
 10
-10.45035
 20
-14.88429
 30
0.0
 10
-10.45035
 20
-14.88429
 30
0.0
 10
-10.45213
 20
-14.88706
 30
0.0
 10
-10.45479
 20
-14.88844
 30
0.0
 10
-10.45834
 20
-14.88844
 30
0.0
 10
-10.45834
 20
-14.88844
 30
0.0
 10
-10.46189
 20
-14.88844
 30
0.0
 10
-10.46455
 20
-14.88706
 30
0.0
 10
-10.46632
 20
-14.88428
 30
0.0
 10
-10.46632
 20
-14.88428
 30
0.0
 10
-10.46808
 20
-14.8815
 30
0.0
 10
-10.46896
 20
-14.87733
 30
0.0
 10
-10.46896
 20
-14.87177
 30
0.0
  0
SPLINE
  5
74
330
1F
100
AcDbEntity
  8
Layer 1
 62
   250
100
AcDbSpline
210
0.0
220
0.0
230
1.0
 70
    11
 71
     3
 72
    48
 73
    44
 74
     0
 42
0.0000000001
 43
0.0000000001
 40
0.0
 40
0.0
 40
0.0
 40
0.0
 40
0.0909090909090909
 40
0.0909090909090909
 40
0.0909090909090909
 40
0.0909090909090909
 40
0.1818181818181818
 40
0.1818181818181818
 40
0.1818181818181818
 40
0.1818181818181818
 40
0.2727272727272727
 40
0.2727272727272727
 40
0.2727272727272727
 40
0.2727272727272727
 40
0.3636363636363636
 40
0.3636363636363636
 40
0.3636363636363636
 40
0.3636363636363636
 40
0.4545454545454546
 40
0.4545454545454546
 40
0.4545454545454546
 40
0.4545454545454546
 40
0.5454545454545455
 40
0.5454545454545455
 40
0.5454545454545455
 40
0.5454545454545455
 40
0.6363636363636365
 40
0.6363636363636365
 40
0.6363636363636365
 40
0.6363636363636365
 40
0.7272727272727274
 40
0.7272727272727274
 40
0.7272727272727274
 40
0.7272727272727274
 40
0.8181818181818183
 40
0.8181818181818183
 40
0.8181818181818183
 40
0.8181818181818183
 40
0.9090909090909093
 40
0.9090909090909093
 40
0.9090909090909093
 40
0.9090909090909093
 40
1.0
 40
1.0
 40
1.0
 40
1.0
 10
-10.44101
 20
-14.88222
 30
0.0
 10
-10.44101
 20
-14.88222
 30
0.0
 10
-10.4339
 20
-14.88222
 30
0.0
 10
-10.4339
 20
-14.88222
 30
0.0
 10
-10.4339
 20
-14.88222
 30
0.0
 10
-10.4339
 20
-14.88222
 30
0.0
 10
-10.4339
 20
-14.86135
 30
0.0
 10
-10.4339
 20
-14.86135
 30
0.0
 10
-10.4339
 20
-14.86135
 30
0.0
 10
-10.4339
 20
-14.86135
 30
0.0
 10
-10.44051
 20
-14.86299
 30
0.0
 10
-10.44051
 20
-14.86299
 30
0.0
 10
-10.44051
 20
-14.86299
 30
0.0
 10
-10.44051
 20
-14.86299
 30
0.0
 10
-10.44051
 20
-14.85727
 30
0.0
 10
-10.44051
 20
-14.85727
 30
0.0
 10
-10.44051
 20
-14.85727
 30
0.0
 10
-10.44051
 20
-14.85727
 30
0.0
 10
-10.43386
 20
-14.85567
 30
0.0
 10
-10.43386
 20
-14.85567
 30
0.0
 10
-10.43386
 20
-14.85567
 30
0.0
 10
-10.43386
 20
-14.85567
 30
0.0
 10
-10.42772
 20
-14.85567
 30
0.0
 10
-10.42772
 20
-14.85567
 30
0.0
 10
-10.42772
 20
-14.85567
 30
0.0
 10
-10.42772
 20
-14.85567
 30
0.0
 10
-10.42772
 20
-14.88222
 30
0.0
 10
-10.42772
 20
-14.88222
 30
0.0
 10
-10.42772
 20
-14.88222
 30
0.0
 10
-10.42772
 20
-14.88222
 30
0.0
 10
-10.42061
 20
-14.88222
 30
0.0
 10
-10.42061
 20
-14.88222
 30
0.0
 10
-10.42061
 20
-14.88222
 30
0.0
 10
-10.42061
 20
-14.88222
 30
0.0
 10
-10.42061
 20
-14.88782
 30
0.0
 10
-10.42061
 20
-14.88782
 30
0.0
 10
-10.42061
 20
-14.88782
 30
0.0
 10
-10.42061
 20
-14.88782
 30
0.0
 10
-10.44101
 20
-14.88782
 30
0.0
 10
-10.44101
 20
-14.88782
 30
0.0
 10
-10.44101
 20
-14.88782
 30
0.0
 10
-10.44101
 20
-14.88782
 30
0.0
 10
-10.44101
 20
-14.88222
 30
0.0
 10
-10.44101
 20
-14.88222
 30
0.0
  0
SPLINE
  5
75
330
1F
100
AcDbEntity
  8
Layer 1
 62
   250
100
AcDbSpline
210
0.0
220
0.0
230
1.0
 70
    11
 71
     3
 72
    36
 73
    32
 74
     0
 42
0.0000000001
 43
0.0000000001
 40
0.0
 40
0.0
 40
0.0
 40
0.0
 40
0.125
 40
0.125
 40
0.125
 40
0.125
 40
0.25
 40
0.25
 40
0.25
 40
0.25
 40
0.375
 40
0.375
 40
0.375
 40
0.375
 40
0.5
 40
0.5
 40
0.5
 40
0.5
 40
0.625
 40
0.625
 40
0.625
 40
0.625
 40
0.75
 40
0.75
 40
0.75
 40
0.75
 40
0.875
 40
0.875
 40
0.875
 40
0.875
 40
1.0
 40
1.0
 40
1.0
 40
1.0
 10
-10.40792
 20
-14.87177
 30
0.0
 10
-10.40792
 20
-14.87102
 30
0.0
 10
-10.40766
 20
-14.87038
 30
0.0
 10
-10.40714
 20
-14.86986
 30
0.0
 10
-10.40714
 20
-14.86986
 30
0.0
 10
-10.40663
 20
-14.86934
 30
0.0
 10
-10.40599
 20
-14.86908
 30
0.0
 10
-10.40524
 20
-14.86908
 30
0.0
 10
-10.40524
 20
-14.86908
 30
0.0
 10
-10.40449
 20
-14.86908
 30
0.0
 10
-10.40385
 20
-14.86934
 30
0.0
 10
-10.40333
 20
-14.86986
 30
0.0
 10
-10.40333
 20
-14.86986
 30
0.0
 10
-10.40281
 20
-14.87038
 30
0.0
 10
-10.40255
 20
-14.87102
 30
0.0
 10
-10.40255
 20
-14.87177
 30
0.0
 10
-10.40255
 20
-14.87177
 30
0.0
 10
-10.40255
 20
-14.87252
 30
0.0
 10
-10.40281
 20
-14.87316
 30
0.0
 10
-10.40333
 20
-14.87367
 30
0.0
 10
-10.40333
 20
-14.87367
 30
0.0
 10
-10.40385
 20
-14.87419
 30
0.0
 10
-10.40449
 20
-14.87445
 30
0.0
 10
-10.40524
 20
-14.87445
 30
0.0
 10
-10.40524
 20
-14.87445
 30
0.0
 10
-10.40599
 20
-14.87445
 30
0.0
 10
-10.40663
 20
-14.87419
 30
0.0
 10
-10.40714
 20
-14.87369
 30
0.0
 10
-10.40714
 20
-14.87369
 30
0.0
 10
-10.40766
 20
-14.87318
 30
0.0
 10
-10.40792
 20
-14.87254
 30
0.0
 10
-10.40792
 20
-14.87177
 30
0.0
  0
SPLINE
  5
76
330
1F
100
AcDbEntity
  8
Layer 1
 62
   250
100
AcDbSpline
210
0.0
220
0.0
230
1.0
 70
    11
 71
     3
 72
    36
 73
    32
 74
     0
 42
0.0000000001
 43
0.0000000001
 40
0.0
 40
0.0
 40
0.0
 40
0.0
 40
0.125
 40
0.125
 40
0.125
 40
0.125
 40
0.25
 40
0.25
 40
0.25
 40
0.25
 40
0.375
 40
0.375
 40
0.375
 40
0.375
 40
0.5
 40
0.5
 40
0.5
 40
0.5
 40
0.625
 40
0.625
 40
0.625
 40
0.625
 40
0.75
 40
0.75
 40
0.75
 40
0.75
 40
0.875
 40
0.875
 40
0.875
 40
0.875
 40
1.0
 40
1.0
 40
1.0
 40
1.0
 10
-10.40524
 20
-14.86047
 30
0.0
 10
-10.40671
 20
-14.86047
 30
0.0
 10
-10.40778
 20
-14.86137
 30
0.0
 10
-10.40846
 20
-14.86316
 30
0.0
 10
-10.40846
 20
-14.86316
 30
0.0
 10
-10.40913
 20
-14.86496
 30
0.0
 10
-10.40947
 20
-14.86783
 30
0.0
 10
-10.40947
 20
-14.87177
 30
0.0
 10
-10.40947
 20
-14.87177
 30
0.0
 10
-10.40947
 20
-14.87571
 30
0.0
 10
-10.40913
 20
-14.87857
 30
0.0
 10
-10.40846
 20
-14.88037
 30
0.0
 10
-10.40846
 20
-14.88037
 30
0.0
 10
-10.40778
 20
-14.88217
 30
0.0
 10
-10.40671
 20
-14.88306
 30
0.0
 10
-10.40524
 20
-14.88306
 30
0.0
 10
-10.40524
 20
-14.88306
 30
0.0
 10
-10.40377
 20
-14.88306
 30
0.0
 10
-10.40269
 20
-14.88217
 30
0.0
 10
-10.40202
 20
-14.88037
 30
0.0
 10
-10.40202
 20
-14.88037
 30
0.0
 10
-10.40134
 20
-14.87857
 30
0.0
 10
-10.401
 20
-14.87571
 30
0.0
 10
-10.401
 20
-14.87177
 30
0.0
 10
-10.401
 20
-14.87177
 30
0.0
 10
-10.401
 20
-14.86783
 30
0.0
 10
-10.40134
 20
-14.86496
 30
0.0
 10
-10.40202
 20
-14.86316
 30
0.0
 10
-10.40202
 20
-14.86316
 30
0.0
 10
-10.40269
 20
-14.86137
 30
0.0
 10
-10.40377
 20
-14.86047
 30
0.0
 10
-10.40524
 20
-14.86047
 30
0.0
  0
SPLINE
  5
77
330
1F
100
AcDbEntity
  8
Layer 1
 62
   250
100
AcDbSpline
210
0.0
220
0.0
230
1.0
 70
    11
 71
     3
 72
    36
 73
    32
 74
     0
 42
0.0000000001
 43
0.0000000001
 40
0.0
 40
0.0
 40
0.0
 40
0.0
 40
0.125
 40
0.125
 40
0.125
 40
0.125
 40
0.25
 40
0.25
 40
0.25
 40
0.25
 40
0.375
 40
0.375
 40
0.375
 40
0.375
 40
0.5
 40
0.5
 40
0.5
 40
0.5
 40
0.625
 40
0.625
 40
0.625
 40
0.625
 40
0.75
 40
0.75
 40
0.75
 40
0.75
 40
0.875
 40
0.875
 40
0.875
 40
0.875
 40
1.0
 40
1.0
 40
1.0
 40
1.0
 10
-10.41586
 20
-14.87177
 30
0.0
 10
-10.41586
 20
-14.86621
 30
0.0
 10
-10.41498
 20
-14.86204
 30
0.0
 10
-10.41322
 20
-14.85926
 30
0.0
 10
-10.41322
 20
-14.85926
 30
0.0
 10
-10.41145
 20
-14.85648
 30
0.0
 10
-10.40879
 20
-14.85509
 30
0.0
 10
-10.40524
 20
-14.85509
 30
0.0
 10
-10.40524
 20
-14.85509
 30
0.0
 10
-10.40169
 20
-14.85509
 30
0.0
 10
-10.39903
 20
-14.85647
 30
0.0
 10
-10.39725
 20
-14.85924
 30
0.0
 10
-10.39725
 20
-14.85924
 30
0.0
 10
-10.39549
 20
-14.86201
 30
0.0
 10
-10.39461
 20
-14.8662
 30
0.0
 10
-10.39461
 20
-14.87177
 30
0.0
 10
-10.39461
 20
-14.87177
 30
0.0
 10
-10.39461
 20
-14.87735
 30
0.0
 10
-10.39549
 20
-14.88152
 30
0.0
 10
-10.39725
 20
-14.88429
 30
0.0
 10
-10.39725
 20
-14.88429
 30
0.0
 10
-10.39903
 20
-14.88706
 30
0.0
 10
-10.40169
 20
-14.88844
 30
0.0
 10
-10.40524
 20
-14.88844
 30
0.0
 10
-10.40524
 20
-14.88844
 30
0.0
 10
-10.40879
 20
-14.88844
 30
0.0
 10
-10.41145
 20
-14.88706
 30
0.0
 10
-10.41322
 20
-14.88428
 30
0.0
 10
-10.41322
 20
-14.88428
 30
0.0
 10
-10.41498
 20
-14.8815
 30
0.0
 10
-10.41586
 20
-14.87733
 30
0.0
 10
-10.41586
 20
-14.87177
 30
0.0
  0
SPLINE
  5
78
330
1F
100
AcDbEntity
  8
Layer 1
 62
   250
100
AcDbSpline
210
0.0
220
0.0
230
1.0
 70
    11
 71
     3
 72
    32
 73
    28
 74
     0
 42
0.0000000001
 43
0.0000000001
 40
0.0
 40
0.0
 40
0.0
 40
0.0
 40
0.1428571428571428
 40
0.1428571428571428
 40
0.1428571428571428
 40
0.1428571428571428
 40
0.2857142857142857
 40
0.2857142857142857
 40
0.2857142857142857
 40
0.2857142857142857
 40
0.4285714285714285
 40
0.4285714285714285
 40
0.4285714285714285
 40
0.4285714285714285
 40
0.5714285714285714
 40
0.5714285714285714
 40
0.5714285714285714
 40
0.5714285714285714
 40
0.7142857142857142
 40
0.7142857142857142
 40
0.7142857142857142
 40
0.7142857142857142
 40
0.857142857142857
 40
0.857142857142857
 40
0.857142857142857
 40
0.857142857142857
 40
1.0
 40
1.0
 40
1.0
 40
1.0
 10
-10.38313
 20
-14.87322
 30
0.0
 10
-10.38313
 20
-14.87322
 30
0.0
 10
-10.38313
 20
-14.88274
 30
0.0
 10
-10.38313
 20
-14.88274
 30
0.0
 10
-10.38313
 20
-14.88274
 30
0.0
 10
-10.38313
 20
-14.88274
 30
0.0
 10
-10.37891
 20
-14.88274
 30
0.0
 10
-10.37891
 20
-14.88274
 30
0.0
 10
-10.37891
 20
-14.88274
 30
0.0
 10
-10.37689
 20
-14.88274
 30
0.0
 10
-10.37547
 20
-14.8824
 30
0.0
 10
-10.37466
 20
-14.8817
 30
0.0
 10
-10.37466
 20
-14.8817
 30
0.0
 10
-10.37385
 20
-14.88101
 30
0.0
 10
-10.37345
 20
-14.87982
 30
0.0
 10
-10.37345
 20
-14.87811
 30
0.0
 10
-10.37345
 20
-14.87811
 30
0.0
 10
-10.37345
 20
-14.87637
 30
0.0
 10
-10.37387
 20
-14.87512
 30
0.0
 10
-10.37472
 20
-14.87435
 30
0.0
 10
-10.37472
 20
-14.87435
 30
0.0
 10
-10.37556
 20
-14.8736
 30
0.0
 10
-10.37696
 20
-14.87322
 30
0.0
 10
-10.37891
 20
-14.87322
 30
0.0
 10
-10.37891
 20
-14.87322
 30
0.0
 10
-10.37891
 20
-14.87322
 30
0.0
 10
-10.38313
 20
-14.87322
 30
0.0
 10
-10.38313
 20
-14.87322
 30
0.0
  0
SPLINE
  5
79
330
1F
100
AcDbEntity
  8
Layer 1
 62
   250
100
AcDbSpline
210
0.0
220
0.0
230
1.0
 70
    11
 71
     3
 72
    32
 73
    28
 74
     0
 42
0.0000000001
 43
0.0000000001
 40
0.0
 40
0.0
 40
0.0
 40
0.0
 40
0.1428571428571428
 40
0.1428571428571428
 40
0.1428571428571428
 40
0.1428571428571428
 40
0.2857142857142857
 40
0.2857142857142857
 40
0.2857142857142857
 40
0.2857142857142857
 40
0.4285714285714285
 40
0.4285714285714285
 40
0.4285714285714285
 40
0.4285714285714285
 40
0.5714285714285714
 40
0.5714285714285714
 40
0.5714285714285714
 40
0.5714285714285714
 40
0.7142857142857142
 40
0.7142857142857142
 40
0.7142857142857142
 40
0.7142857142857142
 40
0.857142857142857
 40
0.857142857142857
 40
0.857142857142857
 40
0.857142857142857
 40
1.0
 40
1.0
 40
1.0
 40
1.0
 10
-10.38313
 20
-14.86068
 30
0.0
 10
-10.38313
 20
-14.86068
 30
0.0
 10
-10.38313
 20
-14.86816
 30
0.0
 10
-10.38313
 20
-14.86816
 30
0.0
 10
-10.38313
 20
-14.86816
 30
0.0
 10
-10.38313
 20
-14.86816
 30
0.0
 10
-10.37891
 20
-14.86816
 30
0.0
 10
-10.37891
 20
-14.86816
 30
0.0
 10
-10.37891
 20
-14.86816
 30
0.0
 10
-10.3773
 20
-14.86816
 30
0.0
 10
-10.37616
 20
-14.86787
 30
0.0
 10
-10.37547
 20
-14.8673
 30
0.0
 10
-10.37547
 20
-14.8673
 30
0.0
 10
-10.37479
 20
-14.86673
 30
0.0
 10
-10.37445
 20
-14.86578
 30
0.0
 10
-10.37445
 20
-14.86445
 30
0.0
 10
-10.37445
 20
-14.86445
 30
0.0
 10
-10.37445
 20
-14.86313
 30
0.0
 10
-10.3748
 20
-14.86218
 30
0.0
 10
-10.3755
 20
-14.86158
 30
0.0
 10
-10.3755
 20
-14.86158
 30
0.0
 10
-10.37619
 20
-14.86099
 30
0.0
 10
-10.37733
 20
-14.86068
 30
0.0
 10
-10.37891
 20
-14.86068
 30
0.0
 10
-10.37891
 20
-14.86068
 30
0.0
 10
-10.37891
 20
-14.86068
 30
0.0
 10
-10.38313
 20
-14.86068
 30
0.0
 10
-10.38313
 20
-14.86068
 30
0.0
  0
SPLINE
  5
7A
330
1F
100
AcDbEntity
  8
Layer 1
 62
   250
100
AcDbSpline
210
0.0
220
0.0
230
1.0
 70
    11
 71
     3
 72
    48
 73
    44
 74
     0
 42
0.0000000001
 43
0.0000000001
 40
0.0
 40
0.0
 40
0.0
 40
0.0
 40
0.0909090909090909
 40
0.0909090909090909
 40
0.0909090909090909
 40
0.0909090909090909
 40
0.1818181818181818
 40
0.1818181818181818
 40
0.1818181818181818
 40
0.1818181818181818
 40
0.2727272727272727
 40
0.2727272727272727
 40
0.2727272727272727
 40
0.2727272727272727
 40
0.3636363636363636
 40
0.3636363636363636
 40
0.3636363636363636
 40
0.3636363636363636
 40
0.4545454545454546
 40
0.4545454545454546
 40
0.4545454545454546
 40
0.4545454545454546
 40
0.5454545454545455
 40
0.5454545454545455
 40
0.5454545454545455
 40
0.5454545454545455
 40
0.6363636363636365
 40
0.6363636363636365
 40
0.6363636363636365
 40
0.6363636363636365
 40
0.7272727272727274
 40
0.7272727272727274
 40
0.7272727272727274
 40
0.7272727272727274
 40
0.8181818181818183
 40
0.8181818181818183
 40
0.8181818181818183
 40
0.8181818181818183
 40
0.9090909090909093
 40
0.9090909090909093
 40
0.9090909090909093
 40
0.9090909090909093
 40
1.0
 40
1.0
 40
1.0
 40
1.0
 10
-10.38927
 20
-14.85563
 30
0.0
 10
-10.38927
 20
-14.85563
 30
0.0
 10
-10.37891
 20
-14.85563
 30
0.0
 10
-10.37891
 20
-14.85563
 30
0.0
 10
-10.37891
 20
-14.85563
 30
0.0
 10
-10.37533
 20
-14.85563
 30
0.0
 10
-10.37265
 20
-14.8563
 30
0.0
 10
-10.37085
 20
-14.85766
 30
0.0
 10
-10.37085
 20
-14.85766
 30
0.0
 10
-10.36905
 20
-14.85902
 30
0.0
 10
-10.36815
 20
-14.86104
 30
0.0
 10
-10.36815
 20
-14.86374
 30
0.0
 10
-10.36815
 20
-14.86374
 30
0.0
 10
-10.36815
 20
-14.86581
 30
0.0
 10
-10.36868
 20
-14.86742
 30
0.0
 10
-10.36974
 20
-14.86859
 30
0.0
 10
-10.36974
 20
-14.86859
 30
0.0
 10
-10.3708
 20
-14.86975
 30
0.0
 10
-10.37236
 20
-14.87042
 30
0.0
 10
-10.37441
 20
-14.87061
 30
0.0
 10
-10.37441
 20
-14.87061
 30
0.0
 10
-10.37195
 20
-14.87086
 30
0.0
 10
-10.37011
 20
-14.87168
 30
0.0
 10
-10.36887
 20
-14.87309
 30
0.0
 10
-10.36887
 20
-14.87309
 30
0.0
 10
-10.36762
 20
-14.87449
 30
0.0
 10
-10.36701
 20
-14.87646
 30
0.0
 10
-10.36701
 20
-14.87899
 30
0.0
 10
-10.36701
 20
-14.87899
 30
0.0
 10
-10.36701
 20
-14.88209
 30
0.0
 10
-10.36794
 20
-14.88434
 30
0.0
 10
-10.36981
 20
-14.88573
 30
0.0
 10
-10.36981
 20
-14.88573
 30
0.0
 10
-10.37167
 20
-14.88712
 30
0.0
 10
-10.37471
 20
-14.88782
 30
0.0
 10
-10.37891
 20
-14.88782
 30
0.0
 10
-10.37891
 20
-14.88782
 30
0.0
 10
-10.37891
 20
-14.88782
 30
0.0
 10
-10.38927
 20
-14.88782
 30
0.0
 10
-10.38927
 20
-14.88782
 30
0.0
 10
-10.38927
 20
-14.88782
 30
0.0
 10
-10.38927
 20
-14.88782
 30
0.0
 10
-10.38927
 20
-14.85563
 30
0.0
 10
-10.38927
 20
-14.85563
 30
0.0
  0
ENDSEC
  0
SECTION
  2
OBJECTS
  0
DICTIONARY
  5
C
330
0
100
AcDbDictionary
281
     1
  3
ACAD_GROUP
350
D
  3
ACAD_LAYOUT
350
1A
  3
ACAD_MLEADERSTYLE
350
7C
  3
ACAD_MLINESTYLE
350
17
  3
ACAD_PLOTSETTINGS
350
19
  3
ACAD_PLOTSTYLENAME
350
E
  3
ACAD_SCALELIST
350
3B
  3
ACAD_TABLESTYLE
350
7B
  3
ACAD_VISUALSTYLE
350
2A
  0
DICTIONARY
  5
D
102
{ACAD_REACTORS
330
C
102
}
330
C
100
AcDbDictionary
281
     1
  0
DICTIONARY
  5
1A
102
{ACAD_REACTORS
330
C
102
}
330
C
100
AcDbDictionary
281
     1
  3
Layout1
350
1E
  3
Layout2
350
26
  3
Model
350
22
  0
DICTIONARY
  5
7C
102
{ACAD_REACTORS
330
C
102
}
330
C
100
AcDbDictionary
281
     1
  0
DICTIONARY
  5
17
102
{ACAD_REACTORS
330
C
102
}
330
C
100
AcDbDictionary
281
     1
  3
Standard
350
18
  0
DICTIONARY
  5
19
102
{ACAD_REACTORS
330
C
102
}
330
C
100
AcDbDictionary
281
     1
  0
ACDBDICTIONARYWDFLT
  5
E
102
{ACAD_REACTORS
330
C
102
}
330
C
100
AcDbDictionary
281
     1
  3
Normal
350
F
100
AcDbDictionaryWithDefault
340
F
  0
DICTIONARY
  5
3B
102
{ACAD_REACTORS
330
C
102
}
330
C
100
AcDbDictionary
281
     1
  3
A0
350
3C
  3
A1
350
3D
  3
A2
350
3E
  3
A3
350
3F
  3
A4
350
40
  3
A5
350
41
  3
A6
350
42
  3
A7
350
43
  3
A8
350
44
  3
A9
350
45
  3
B0
350
46
  3
B1
350
47
  3
B2
350
48
  3
B3
350
49
  3
B4
350
4A
  3
B5
350
4B
  3
B6
350
4C
  3
B7
350
4D
  3
B8
350
4E
  3
B9
350
4F
  3
C0
350
50
  3
C1
350
51
  3
C2
350
52
  3
C3
350
53
  3
C4
350
54
  3
C5
350
55
  3
C6
350
56
  3
C7
350
57
  3
C8
350
58
  3
C9
350
59
  3
D0
350
5A
  3
D1
350
5B
  3
D2
350
5C
  0
DICTIONARY
  5
7B
102
{ACAD_REACTORS
330
C
102
}
330
C
100
AcDbDictionary
281
     1
  0
DICTIONARY
  5
2A
102
{ACAD_REACTORS
330
C
102
}
330
C
100
AcDbDictionary
281
     1
  3
2dWireframe
350
2F
  3
3D Hidden
350
31
  3
3dWireframe
350
30
  3
Basic
350
32
  3
Brighten
350
36
  3
ColorChange
350
3A
  3
Conceptual
350
34
  3
Dim
350
35
  3
Facepattern
350
39
  3
Flat
350
2B
  3
FlatWithEdges
350
2C
  3
Gouraud
350
2D
  3
GouraudWithEdges
350
2E
  3
Linepattern
350
38
  3
Realistic
350
33
  3
Thicken
350
37
  0
LAYOUT
  5
1E
102
{ACAD_REACTORS
330
1A
102
}
330
1A
100
AcDbPlotSettings
  1

  2
none_device
  4

  6

 40
0.0
 41
0.0
 42
0.0
 43
0.0
 44
0.0
 45
0.0
 46
0.0
 47
0.0
 48
0.0
 49
0.0
140
0.0
141
0.0
142
1.0
143
1.0
 70
   688
 72
     0
 73
     0
 74
     5
  7

 75
    16
 76
     0
 77
     2
 78
   300
147
1.0
148
0.0
149
0.0
100
AcDbLayout
  1
Layout1
 70
     1
 71
     1
 10
0.0
 20
0.0
 11
12.0
 21
9.0
 12
0.0
 22
0.0
 32
0.0
 14
1.000000000000000E+20
 24
1.000000000000000E+20
 34
1.000000000000000E+20
 15
-1.000000000000000E+20
 25
-1.000000000000000E+20
 35
-1.000000000000000E+20
146
0.0
 13
0.0
 23
0.0
 33
0.0
 16
1.0
 26
0.0
 36
0.0
 17
0.0
 27
1.0
 37
0.0
 76
     0
330
1B
  0
LAYOUT
  5
26
102
{ACAD_REACTORS
330
1A
102
}
330
1A
100
AcDbPlotSettings
  1

  2
none_device
  4

  6

 40
0.0
 41
0.0
 42
0.0
 43
0.0
 44
0.0
 45
0.0
 46
0.0
 47
0.0
 48
0.0
 49
0.0
140
0.0
141
0.0
142
1.0
143
1.0
 70
   688
 72
     0
 73
     0
 74
     5
  7

 75
    16
 76
     0
 77
     2
 78
   300
147
1.0
148
0.0
149
0.0
100
AcDbLayout
  1
Layout2
 70
     1
 71
     2
 10
0.0
 20
0.0
 11
0.0
 21
0.0
 12
0.0
 22
0.0
 32
0.0
 14
0.0
 24
0.0
 34
0.0
 15
0.0
 25
0.0
 35
0.0
146
0.0
 13
0.0
 23
0.0
 33
0.0
 16
1.0
 26
0.0
 36
0.0
 17
0.0
 27
1.0
 37
0.0
 76
     0
330
23
  0
LAYOUT
  5
22
102
{ACAD_REACTORS
330
1A
102
}
330
1A
100
AcDbPlotSettings
  1

  2
none_device
  4

  6

 40
0.0
 41
0.0
 42
0.0
 43
0.0
 44
0.0
 45
0.0
 46
0.0
 47
0.0
 48
0.0
 49
0.0
140
0.0
141
0.0
142
1.0
143
1.0
 70
  1712
 72
     0
 73
     0
 74
     0
  7

 75
     0
 76
     0
 77
     2
 78
   300
147
1.0
148
0.0
149
0.0
100
AcDbLayout
  1
Model
 70
     1
 71
     0
 10
0.0
 20
0.0
 11
12.0
 21
9.0
 12
0.0
 22
0.0
 32
0.0
 14
-10.665
 24
-14.935
 34
0.0
 15
-10.335
 25
-14.765
 35
0.0
146
0.0
 13
0.0
 23
0.0
 33
0.0
 16
1.0
 26
0.0
 36
0.0
 17
0.0
 27
1.0
 37
0.0
 76
     0
330
1F
331
29
  0
MLINESTYLE
  5
18
102
{ACAD_REACTORS
330
17
102
}
330
17
100
AcDbMlineStyle
  2
Standard
 70
     0
  3

 62
   256
 51
90.0
 52
90.0
 71
     2
 49
0.5
 62
   256
  6
BYLAYER
 49
-0.5
 62
   256
  6
BYLAYER
  0
ACDBPLACEHOLDER
  5
F
102
{ACAD_REACTORS
330
E
102
}
330
E
  0
SCALE
  5
3C
102
{ACAD_REACTORS
330
3B
102
}
330
3B
100
AcDbScale
 70
     0
300
1:1
140
1.0
141
1.0
290
     1
  0
SCALE
  5
3D
102
{ACAD_REACTORS
330
3B
102
}
330
3B
100
AcDbScale
 70
     0
300
1:2
140
1.0
141
2.0
290
     0
  0
SCALE
  5
3E
102
{ACAD_REACTORS
330
3B
102
}
330
3B
100
AcDbScale
 70
     0
300
1:4
140
1.0
141
4.0
290
     0
  0
SCALE
  5
3F
102
{ACAD_REACTORS
330
3B
102
}
330
3B
100
AcDbScale
 70
     0
300
1:5
140
1.0
141
5.0
290
     0
  0
SCALE
  5
40
102
{ACAD_REACTORS
330
3B
102
}
330
3B
100
AcDbScale
 70
     0
300
1:8
140
1.0
141
8.0
290
     0
  0
SCALE
  5
41
102
{ACAD_REACTORS
330
3B
102
}
330
3B
100
AcDbScale
 70
     0
300
1:10
140
1.0
141
10.0
290
     0
  0
SCALE
  5
42
102
{ACAD_REACTORS
330
3B
102
}
330
3B
100
AcDbScale
 70
     0
300
1:16
140
1.0
141
16.0
290
     0
  0
SCALE
  5
43
102
{ACAD_REACTORS
330
3B
102
}
330
3B
100
AcDbScale
 70
     0
300
1:20
140
1.0
141
20.0
290
     0
  0
SCALE
  5
44
102
{ACAD_REACTORS
330
3B
102
}
330
3B
100
AcDbScale
 70
     0
300
1:30
140
1.0
141
30.0
290
     0
  0
SCALE
  5
45
102
{ACAD_REACTORS
330
3B
102
}
330
3B
100
AcDbScale
 70
     0
300
1:40
140
1.0
141
40.0
290
     0
  0
SCALE
  5
46
102
{ACAD_REACTORS
330
3B
102
}
330
3B
100
AcDbScale
 70
     0
300
1:50
140
1.0
141
50.0
290
     0
  0
SCALE
  5
47
102
{ACAD_REACTORS
330
3B
102
}
330
3B
100
AcDbScale
 70
     0
300
1:100
140
1.0
141
100.0
290
     0
  0
SCALE
  5
48
102
{ACAD_REACTORS
330
3B
102
}
330
3B
100
AcDbScale
 70
     0
300
2:1
140
2.0
141
1.0
290
     0
  0
SCALE
  5
49
102
{ACAD_REACTORS
330
3B
102
}
330
3B
100
AcDbScale
 70
     0
300
4:1
140
4.0
141
1.0
290
     0
  0
SCALE
  5
4A
102
{ACAD_REACTORS
330
3B
102
}
330
3B
100
AcDbScale
 70
     0
300
8:1
140
8.0
141
1.0
290
     0
  0
SCALE
  5
4B
102
{ACAD_REACTORS
330
3B
102
}
330
3B
100
AcDbScale
 70
     0
300
10:1
140
10.0
141
1.0
290
     0
  0
SCALE
  5
4C
102
{ACAD_REACTORS
330
3B
102
}
330
3B
100
AcDbScale
 70
     0
300
100:1
140
100.0
141
1.0
290
     0
  0
SCALE
  5
4D
102
{ACAD_REACTORS
330
3B
102
}
330
3B
100
AcDbScale
 70
     0
300
1/128" = 1'-0"
140
0.0078125
141
12.0
290
     0
  0
SCALE
  5
4E
102
{ACAD_REACTORS
330
3B
102
}
330
3B
100
AcDbScale
 70
     0
300
1/64" = 1'-0"
140
0.015625
141
12.0
290
     0
  0
SCALE
  5
4F
102
{ACAD_REACTORS
330
3B
102
}
330
3B
100
AcDbScale
 70
     0
300
1/32" = 1'-0"
140
0.03125
141
12.0
290
     0
  0
SCALE
  5
50
102
{ACAD_REACTORS
330
3B
102
}
330
3B
100
AcDbScale
 70
     0
300
1/16" = 1'-0"
140
0.0625
141
12.0
290
     0
  0
SCALE
  5
51
102
{ACAD_REACTORS
330
3B
102
}
330
3B
100
AcDbScale
 70
     0
300
3/32" = 1'-0"
140
0.09375
141
12.0
290
     0
  0
SCALE
  5
52
102
{ACAD_REACTORS
330
3B
102
}
330
3B
100
AcDbScale
 70
     0
300
1/8" = 1'-0"
140
0.125
141
12.0
290
     0
  0
SCALE
  5
53
102
{ACAD_REACTORS
330
3B
102
}
330
3B
100
AcDbScale
 70
     0
300
3/16" = 1'-0"
140
0.1875
141
12.0
290
     0
  0
SCALE
  5
54
102
{ACAD_REACTORS
330
3B
102
}
330
3B
100
AcDbScale
 70
     0
300
1/4" = 1'-0"
140
0.25
141
12.0
290
     0
  0
SCALE
  5
55
102
{ACAD_REACTORS
330
3B
102
}
330
3B
100
AcDbScale
 70
     0
300
3/8" = 1'-0"
140
0.375
141
12.0
290
     0
  0
SCALE
  5
56
102
{ACAD_REACTORS
330
3B
102
}
330
3B
100
AcDbScale
 70
     0
300
1/2" = 1'-0"
140
0.5
141
12.0
290
     0
  0
SCALE
  5
57
102
{ACAD_REACTORS
330
3B
102
}
330
3B
100
AcDbScale
 70
     0
300
3/4" = 1'-0"
140
0.75
141
12.0
290
     0
  0
SCALE
  5
58
102
{ACAD_REACTORS
330
3B
102
}
330
3B
100
AcDbScale
 70
     0
300
1" = 1'-0"
140
1.0
141
12.0
290
     0
  0
SCALE
  5
59
102
{ACAD_REACTORS
330
3B
102
}
330
3B
100
AcDbScale
 70
     0
300
1-1/2" = 1'-0"
140
1.5
141
12.0
290
     0
  0
SCALE
  5
5A
102
{ACAD_REACTORS
330
3B
102
}
330
3B
100
AcDbScale
 70
     0
300
3" = 1'-0"
140
3.0
141
12.0
290
     0
  0
SCALE
  5
5B
102
{ACAD_REACTORS
330
3B
102
}
330
3B
100
AcDbScale
 70
     0
300
6" = 1'-0"
140
6.0
141
12.0
290
     0
  0
SCALE
  5
5C
102
{ACAD_REACTORS
330
3B
102
}
330
3B
100
AcDbScale
 70
     0
300
1'-0" = 1'-0"
140
12.0
141
12.0
290
     0
  0
VISUALSTYLE
  5
2F
102
{ACAD_REACTORS
330
2A
102
}
330
2A
100
AcDbVisualStyle
  2
2dWireframe
 70
     4
 71
     0
 72
     2
 73
     0
 90
        0
 40
-0.6
 41
-30.0
 62
     5
 63
     7
421
 16777215
 74
     1
 91
        4
 64
     7
 65
   257
 75
     1
175
     1
 42
1.0
 92
        0
 66
   257
 43
1.0
 76
     1
 77
     6
 78
     2
 67
     7
 79
     5
170
     0
171
     0
290
     0
174
     0
 93
        1
 44
0.0
173
     0
291
     0
 45
0.0
  0
VISUALSTYLE
  5
31
102
{ACAD_REACTORS
330
2A
102
}
330
2A
100
AcDbVisualStyle
  2
3D Hidden
 70
     6
 71
     1
 72
     2
 73
     2
 90
        0
 40
-0.6
 41
-30.0
 62
     5
 63
     7
421
 16777215
 74
     2
 91
        2
 64
     7
 65
   257
 75
     2
175
     1
 42
40.0
 92
        0
 66
   257
 43
1.0
 76
     1
 77
     6
 78
     2
 67
     7
 79
     3
170
     0
171
     0
290
     0
174
     0
 93
        1
 44
0.0
173
     0
291
     0
 45
0.0
  0
VISUALSTYLE
  5
30
102
{ACAD_REACTORS
330
2A
102
}
330
2A
100
AcDbVisualStyle
  2
3dWireframe
 70
     5
 71
     0
 72
     2
 73
     0
 90
        0
 40
-0.6
 41
-30.0
 62
     5
 63
     7
421
 16777215
 74
     1
 91
        4
 64
     7
 65
   257
 75
     1
175
     1
 42
1.0
 92
        0
 66
   257
 43
1.0
 76
     1
 77
     6
 78
     2
 67
     7
 79
     5
170
     0
171
     0
290
     0
174
     0
 93
        1
 44
0.0
173
     0
291
     0
 45
0.0
  0
VISUALSTYLE
  5
32
102
{ACAD_REACTORS
330
2A
102
}
330
2A
100
AcDbVisualStyle
  2
Basic
 70
     7
 71
     1
 72
     0
 73
     1
 90
        0
 40
-0.6
 41
-30.0
 62
     5
 63
     7
421
 16777215
 74
     0
 91
        4
 64
     7
 65
   257
 75
     1
175
     1
 42
1.0
 92
        8
 66
     7
 43
1.0
 76
     1
 77
     6
 78
     2
 67
     7
 79
     5
170
     0
171
     0
290
     0
174
     0
 93
        1
 44
0.0
173
     0
291
     1
 45
0.0
  0
VISUALSTYLE
  5
36
102
{ACAD_REACTORS
330
2A
102
}
330
2A
100
AcDbVisualStyle
  2
Brighten
 70
    12
 71
     2
 72
     2
 73
     0
 90
        0
 40
-0.6
 41
-30.0
 62
     5
 63
     7
421
 16777215
 74
     1
 91
        4
 64
     7
 65
   257
 75
     1
175
     1
 42
1.0
 92
        8
 66
     7
 43
1.0
 76
     1
 77
     6
 78
     2
 67
     7
 79
     5
170
     0
171
     0
290
     0
174
     0
 93
        1
 44
50.0
173
     0
291
     1
 45
0.0
  0
VISUALSTYLE
  5
3A
102
{ACAD_REACTORS
330
2A
102
}
330
2A
100
AcDbVisualStyle
  2
ColorChange
 70
    16
 71
     2
 72
     2
 73
     3
 90
        0
 40
-0.6
 41
-30.0
 62
     5
 63
     8
421
  8421504
 74
     1
 91
        4
 64
     7
 65
   257
 75
     1
175
     1
 42
1.0
 92
        8
 66
     8
424
  8421504
 43
1.0
 76
     1
 77
     6
 78
     2
 67
     7
 79
     5
170
     0
171
     0
290
     0
174
     0
 93
        1
 44
0.0
173
     0
291
     1
 45
0.0
  0
VISUALSTYLE
  5
34
102
{ACAD_REACTORS
330
2A
102
}
330
2A
100
AcDbVisualStyle
  2
Conceptual
 70
     9
 71
     3
 72
     2
 73
     0
 90
        0
 40
-0.6
 41
-30.0
 62
     5
 63
     7
421
 16777215
 74
     2
 91
        2
 64
     7
 65
   257
 75
     1
175
     1
 42
40.0
 92
        8
 66
     7
 43
1.0
 76
     1
 77
     6
 78
     2
 67
     7
 79
     3
170
     0
171
     0
290
     0
174
     0
 93
        1
 44
0.0
173
     0
291
     0
 45
0.0
  0
VISUALSTYLE
  5
35
102
{ACAD_REACTORS
330
2A
102
}
330
2A
100
AcDbVisualStyle
  2
Dim
 70
    11
 71
     2
 72
     2
 73
     0
 90
        0
 40
-0.6
 41
-30.0
 62
     5
 63
     7
421
 16777215
 74
     1
 91
        4
 64
     7
 65
   257
 75
     1
175
     1
 42
1.0
 92
        8
 66
     7
 43
1.0
 76
     1
 77
     6
 78
     2
 67
     7
 79
     5
170
     0
171
     0
290
     0
174
     0
 93
        1
 44
-50.0
173
     0
291
     1
 45
0.0
  0
VISUALSTYLE
  5
39
102
{ACAD_REACTORS
330
2A
102
}
330
2A
100
AcDbVisualStyle
  2
Facepattern
 70
    15
 71
     2
 72
     2
 73
     0
 90
        0
 40
-0.6
 41
-30.0
 62
     5
 63
     7
421
 16777215
 74
     1
 91
        4
 64
     7
 65
   257
 75
     1
175
     1
 42
1.0
 92
        8
 66
     7
 43
1.0
 76
     1
 77
     6
 78
     2
 67
     7
 79
     5
170
     0
171
     0
290
     0
174
     0
 93
        1
 44
0.0
173
     0
291
     1
 45
0.0
  0
VISUALSTYLE
  5
2B
102
{ACAD_REACTORS
330
2A
102
}
330
2A
100
AcDbVisualStyle
  2
Flat
 70
     0
 71
     2
 72
     1
 73
     1
 90
        2
 40
-0.6
 41
30.0
 62
     5
 63
     7
421
 16777215
 74
     0
 91
        4
 64
     7
 65
   257
 75
     1
175
     1
 42
1.0
 92
        8
 66
     7
 43
1.0
 76
     1
 77
     6
 78
     2
 67
     7
 79
     5
170
     0
171
     0
290
     0
174
     0
 93
       13
 44
0.0
173
     0
291
     1
 45
0.0
  0
VISUALSTYLE
  5
2C
102
{ACAD_REACTORS
330
2A
102
}
330
2A
100
AcDbVisualStyle
  2
FlatWithEdges
 70
     1
 71
     2
 72
     1
 73
     1
 90
        2
 40
-0.6
 41
30.0
 62
     5
 63
     7
421
 16777215
 74
     1
 91
        4
 64
     7
 65
   257
 75
     1
175
     1
 42
1.0
 92
        0
 66
   257
 43
1.0
 76
     1
 77
     6
 78
     2
 67
     7
 79
     5
170
     0
171
     0
290
     0
174
     0
 93
       13
 44
0.0
173
     0
291
     1
 45
0.0
  0
VISUALSTYLE
  5
2D
102
{ACAD_REACTORS
330
2A
102
}
330
2A
100
AcDbVisualStyle
  2
Gouraud
 70
     2
 71
     2
 72
     2
 73
     1
 90
        2
 40
-0.6
 41
30.0
 62
     5
 63
     7
421
 16777215
 74
     0
 91
        4
 64
     7
 65
   257
 75
     1
175
     1
 42
1.0
 92
        0
 66
     7
 43
1.0
 76
     1
 77
     6
 78
     2
 67
     7
 79
     5
170
     0
171
     0
290
     0
174
     0
 93
       13
 44
0.0
173
     0
291
     1
 45
0.0
  0
VISUALSTYLE
  5
2E
102
{ACAD_REACTORS
330
2A
102
}
330
2A
100
AcDbVisualStyle
  2
GouraudWithEdges
 70
     3
 71
     2
 72
     2
 73
     1
 90
        2
 40
-0.6
 41
30.0
 62
     5
 63
     7
421
 16777215
 74
     1
 91
        4
 64
     7
 65
   257
 75
     1
175
     1
 42
1.0
 92
        0
 66
   257
 43
1.0
 76
     1
 77
     6
 78
     2
 67
     7
 79
     5
170
     0
171
     0
290
     0
174
     0
 93
       13
 44
0.0
173
     0
291
     1
 45
0.0
  0
VISUALSTYLE
  5
38
102
{ACAD_REACTORS
330
2A
102
}
330
2A
100
AcDbVisualStyle
  2
Linepattern
 70
    14
 71
     2
 72
     2
 73
     0
 90
        0
 40
-0.6
 41
-30.0
 62
     5
 63
     7
421
 16777215
 74
     1
 91
        4
 64
     7
 65
   257
 75
     7
175
     7
 42
1.0
 92
        8
 66
     7
 43
1.0
 76
     1
 77
     6
 78
     2
 67
     7
 79
     5
170
     0
171
     0
290
     0
174
     0
 93
        1
 44
0.0
173
     0
291
     1
 45
0.0
  0
VISUALSTYLE
  5
33
102
{ACAD_REACTORS
330
2A
102
}
330
2A
100
AcDbVisualStyle
  2
Realistic
 70
     8
 71
     2
 72
     2
 73
     0
 90
        0
 40
-0.6
 41
-30.0
 62
     5
 63
     7
421
 16777215
 74
     1
 91
        0
 64
     7
 65
   257
 75
     1
175
     1
 42
1.0
 92
        8
 66
     8
424
  7895160
 43
1.0
 76
     1
 77
     6
 78
     2
 67
     7
 79
     5
170
     0
171
     0
290
     0
174
     0
 93
       13
 44
0.0
173
     0
291
     0
 45
0.0
  0
VISUALSTYLE
  5
37
102
{ACAD_REACTORS
330
2A
102
}
330
2A
100
AcDbVisualStyle
  2
Thicken
 70
    13
 71
     2
 72
     2
 73
     0
 90
        0
 40
-0.6
 41
-30.0
 62
     5
 63
     7
421
 16777215
 74
     1
 91
        4
 64
     7
 65
   257
 75
     1
175
     1
 42
1.0
 92
       12
 66
     7
 43
1.0
 76
     1
 77
     6
 78
     2
 67
     7
 79
     5
170
     0
171
     0
290
     0
174
     0
 93
        1
 44
0.0
173
     0
291
     1
 45
0.0
  0
ENDSEC
  0
EOF
