  0
SECTION
  2
HEADER
  9
$ACADVER
  1
AC1021
  9
$ACADMAINTVER
 70
    25
  9
$DWGCODEPAGE
  3
ANSI_1252
  9
$INSBASE
 10
0.0
 20
0.0
 30
0.0
  9
$EXTMIN
 10
-11.55271
 20
-15.85
 30
0.0
  9
$EXTMAX
 10
-9.4473
 20
-13.85
 30
0.0
  9
$LIMMIN
 10
0.0
 20
0.0
  9
$LIMMAX
 10
12.0
 20
9.0
  9
$ORTHOMODE
 70
     0
  9
$REGENMODE
 70
     1
  9
$FILLMODE
 70
     1
  9
$QTEXTMODE
 70
     0
  9
$MIRRTEXT
 70
     1
  9
$LTSCALE
 40
1.0
  9
$ATTMODE
 70
     1
  9
$TEXTSIZE
 40
0.2
  9
$TRACEWID
 40
0.05
  9
$TEXTSTYLE
  7
Standard
  9
$CLAYER
  8
0
  9
$CELTYPE
  6
ByLayer
  9
$CECOLOR
 62
   256
  9
$CELTSCALE
 40
1.0
  9
$DISPSILH
 70
     0
  9
$DIMSCALE
 40
1.0
  9
$DIMASZ
 40
0.18
  9
$DIMEXO
 40
0.0625
  9
$DIMDLI
 40
0.38
  9
$DIMRND
 40
0.0
  9
$DIMDLE
 40
0.0
  9
$DIMEXE
 40
0.18
  9
$DIMTP
 40
0.0
  9
$DIMTM
 40
0.0
  9
$DIMTXT
 40
0.18
  9
$DIMCEN
 40
0.09
  9
$DIMTSZ
 40
0.0
  9
$DIMTOL
 70
     0
  9
$DIMLIM
 70
     0
  9
$DIMTIH
 70
     1
  9
$DIMTOH
 70
     1
  9
$DIMSE1
 70
     0
  9
$DIMSE2
 70
     0
  9
$DIMTAD
 70
     0
  9
$DIMZIN
 70
     0
  9
$DIMBLK
  1

  9
$DIMASO
 70
     1
  9
$DIMSHO
 70
     1
  9
$DIMPOST
  1

  9
$DIMAPOST
  1

  9
$DIMALT
 70
     0
  9
$DIMALTD
 70
     2
  9
$DIMALTF
 40
25.4
  9
$DIMLFAC
 40
1.0
  9
$DIMTOFL
 70
     0
  9
$DIMTVP
 40
0.0
  9
$DIMTIX
 70
     0
  9
$DIMSOXD
 70
     0
  9
$DIMSAH
 70
     0
  9
$DIMBLK1
  1

  9
$DIMBLK2
  1

  9
$DIMSTYLE
  2
Standard
  9
$DIMCLRD
 70
     0
  9
$DIMCLRE
 70
     0
  9
$DIMCLRT
 70
     0
  9
$DIMTFAC
 40
1.0
  9
$DIMGAP
 40
0.09
  9
$DIMJUST
 70
     0
  9
$DIMSD1
 70
     0
  9
$DIMSD2
 70
     0
  9
$DIMTOLJ
 70
     1
  9
$DIMTZIN
 70
     0
  9
$DIMALTZ
 70
     0
  9
$DIMALTTZ
 70
     0
  9
$DIMUPT
 70
     0
  9
$DIMDEC
 70
     4
  9
$DIMTDEC
 70
     4
  9
$DIMALTU
 70
     2
  9
$DIMALTTD
 70
     2
  9
$DIMTXSTY
  7
Standard
  9
$DIMAUNIT
 70
     0
  9
$DIMADEC
 70
     0
  9
$DIMALTRND
 40
0.0
  9
$DIMAZIN
 70
     0
  9
$DIMDSEP
 70
    46
  9
$DIMATFIT
 70
     3
  9
$DIMFRAC
 70
     0
  9
$DIMLDRBLK
  1

  9
$DIMLUNIT
 70
     2
  9
$DIMLWD
 70
    -2
  9
$DIMLWE
 70
    -2
  9
$DIMTMOVE
 70
     0
  9
$DIMFXL
 40
1.0
  9
$DIMFXLON
 70
     0
  9
$DIMJOGANG
 40
0.7853981633974483
  9
$DIMTFILL
 70
     0
  9
$DIMTFILLCLR
 70
     0
  9
$DIMARCSYM
 70
     0
  9
$DIMLTYPE
  6

  9
$DIMLTEX1
  6

  9
$DIMLTEX2
  6

  9
$LUNITS
 70
     2
  9
$LUPREC
 70
     4
  9
$SKETCHINC
 40
0.1
  9
$FILLETRAD
 40
0.5
  9
$AUNITS
 70
     0
  9
$AUPREC
 70
     0
  9
$MENU
  1
.
  9
$ELEVATION
 40
0.0
  9
$PELEVATION
 40
0.0
  9
$THICKNESS
 40
0.0
  9
$LIMCHECK
 70
     0
  9
$CHAMFERA
 40
0.5
  9
$CHAMFERB
 40
0.5
  9
$CHAMFERC
 40
1.0
  9
$CHAMFERD
 40
0.0
  9
$SKPOLY
 70
     0
  9
$TDCREATE
 40
2458455.853671956
  9
$TDUCREATE
 40
2458455.853671956
  9
$TDUPDATE
 40
2458455.853671968
  9
$TDUUPDATE
 40
2458455.853671968
  9
$TDINDWG
 40
0.0000000116
  9
$TDUSRTIMER
 40
0.0000000116
  9
$USRTIMER
 70
     1
  9
$ANGBASE
 50
0.0
  9
$ANGDIR
 70
     0
  9
$PDMODE
 70
     0
  9
$PDSIZE
 40
0.0
  9
$PLINEWID
 40
0.0
  9
$SPLFRAME
 70
     0
  9
$SPLINETYPE
 70
     6
  9
$SPLINESEGS
 70
     8
  9
$HANDSEED
  5
AA
  9
$SURFTAB1
 70
     6
  9
$SURFTAB2
 70
     6
  9
$SURFTYPE
 70
     6
  9
$SURFU
 70
     6
  9
$SURFV
 70
     6
  9
$UCSBASE
  2

  9
$UCSNAME
  2

  9
$UCSORG
 10
0.0
 20
0.0
 30
0.0
  9
$UCSXDIR
 10
1.0
 20
0.0
 30
0.0
  9
$UCSYDIR
 10
0.0
 20
1.0
 30
0.0
  9
$UCSORTHOREF
  2

  9
$UCSORTHOVIEW
 70
     0
  9
$UCSORGTOP
 10
0.0
 20
0.0
 30
0.0
  9
$UCSORGBOTTOM
 10
0.0
 20
0.0
 30
0.0
  9
$UCSORGLEFT
 10
0.0
 20
0.0
 30
0.0
  9
$UCSORGRIGHT
 10
0.0
 20
0.0
 30
0.0
  9
$UCSORGFRONT
 10
0.0
 20
0.0
 30
0.0
  9
$UCSORGBACK
 10
0.0
 20
0.0
 30
0.0
  9
$PUCSBASE
  2

  9
$PUCSNAME
  2

  9
$PUCSORG
 10
0.0
 20
0.0
 30
0.0
  9
$PUCSXDIR
 10
1.0
 20
0.0
 30
0.0
  9
$PUCSYDIR
 10
0.0
 20
1.0
 30
0.0
  9
$PUCSORTHOREF
  2

  9
$PUCSORTHOVIEW
 70
     0
  9
$PUCSORGTOP
 10
0.0
 20
0.0
 30
0.0
  9
$PUCSORGBOTTOM
 10
0.0
 20
0.0
 30
0.0
  9
$PUCSORGLEFT
 10
0.0
 20
0.0
 30
0.0
  9
$PUCSORGRIGHT
 10
0.0
 20
0.0
 30
0.0
  9
$PUCSORGFRONT
 10
0.0
 20
0.0
 30
0.0
  9
$PUCSORGBACK
 10
0.0
 20
0.0
 30
0.0
  9
$USERI1
 70
     0
  9
$USERI2
 70
     0
  9
$USERI3
 70
     0
  9
$USERI4
 70
     0
  9
$USERI5
 70
     0
  9
$USERR1
 40
0.0
  9
$USERR2
 40
0.0
  9
$USERR3
 40
0.0
  9
$USERR4
 40
0.0
  9
$USERR5
 40
0.0
  9
$WORLDVIEW
 70
     1
  9
$SHADEDGE
 70
     3
  9
$SHADEDIF
 70
    70
  9
$TILEMODE
 70
     1
  9
$MAXACTVP
 70
    64
  9
$PINSBASE
 10
0.0
 20
0.0
 30
0.0
  9
$PLIMCHECK
 70
     0
  9
$PEXTMIN
 10
1.000000000000000E+20
 20
1.000000000000000E+20
 30
1.000000000000000E+20
  9
$PEXTMAX
 10
-1.000000000000000E+20
 20
-1.000000000000000E+20
 30
-1.000000000000000E+20
  9
$PLIMMIN
 10
0.0
 20
0.0
  9
$PLIMMAX
 10
12.0
 20
9.0
  9
$UNITMODE
 70
     0
  9
$VISRETAIN
 70
     1
  9
$PLINEGEN
 70
     0
  9
$PSLTSCALE
 70
     1
  9
$TREEDEPTH
 70
  3020
  9
$CMLSTYLE
  2
Standard
  9
$CMLJUST
 70
     0
  9
$CMLSCALE
 40
1.0
  9
$PROXYGRAPHICS
 70
     1
  9
$MEASUREMENT
 70
     0
  9
$CELWEIGHT
370
    -1
  9
$ENDCAPS
280
     0
  9
$JOINSTYLE
280
     0
  9
$LWDISPLAY
290
     0
  9
$INSUNITS
 70
     5
  9
$HYPERLINKBASE
  1

  9
$STYLESHEET
  1

  9
$XEDIT
290
     1
  9
$CEPSNTYPE
380
     0
  9
$PSTYLEMODE
290
     1
  9
$FINGERPRINTGUID
  2
{31C5708F-FBD5-414C-97C2-C3C79B5D239B}
  9
$VERSIONGUID
  2
{FAEB1C32-E019-11D5-929B-00C0DF256EC4}
  9
$EXTNAMES
290
     1
  9
$PSVPSCALE
 40
0.0
  9
$OLESTARTUP
290
     0
  9
$SORTENTS
280
   127
  9
$INDEXCTL
280
     0
  9
$HIDETEXT
280
     1
  9
$XCLIPFRAME
290
     0
  9
$HALOGAP
280
     0
  9
$OBSCOLOR
 70
   257
  9
$OBSLTYPE
280
     0
  9
$INTERSECTIONDISPLAY
280
     0
  9
$INTERSECTIONCOLOR
 70
   257
  9
$DIMASSOC
280
     2
  9
$PROJECTNAME
  1

  9
$CAMERADISPLAY
290
     0
  9
$LENSLENGTH
 40
50.0
  9
$CAMERAHEIGHT
 40
0.0
  9
$STEPSPERSEC
 40
2.0
  9
$STEPSIZE
 40
6.0
  9
$3DDWFPREC
 40
2.0
  9
$PSOLWIDTH
 40
0.25
  9
$PSOLHEIGHT
 40
4.0
  9
$LOFTANG1
 40
1.570796326794897
  9
$LOFTANG2
 40
1.570796326794897
  9
$LOFTMAG1
 40
0.0
  9
$LOFTMAG2
 40
0.0
  9
$LOFTPARAM
 70
     7
  9
$LOFTNORMALS
280
     1
  9
$LATITUDE
 40
37.795
  9
$LONGITUDE
 40
-122.394
  9
$NORTHDIRECTION
 40
0.0
  9
$TIMEZONE
 70
 -8000
  9
$LIGHTGLYPHDISPLAY
280
     1
  9
$TILEMODELIGHTSYNCH
280
     1
  9
$SOLIDHIST
280
     1
  9
$SHOWHIST
280
     1
  9
$DWFFRAME
280
     2
  9
$DGNFRAME
280
     2
  9
$REALWORLDSCALE
290
     1
  9
$INTERFERECOLOR
 62
   256
  9
$CSHADOW
280
     0
  9
$SHADOWPLANELOCATION
 40
0.0
  0
ENDSEC
  0
SECTION
  2
CLASSES
  0
CLASS
  1
ACDBDICTIONARYWDFLT
  2
AcDbDictionaryWithDefault
  3
ObjectDBX Classes
 90
        0
 91
        3
280
     0
281
     0
  0
CLASS
  1
VISUALSTYLE
  2
AcDbVisualStyle
  3
ObjectDBX Classes
 90
     4095
 91
        3
280
     0
281
     0
  0
CLASS
  1
SCALE
  2
AcDbScale
  3
ObjectDBX Classes
 90
     1153
 91
        3
280
     0
281
     0
  0
ENDSEC
  0
SECTION
  2
TABLES
  0
TABLE
  2
VPORT
  5
8
330
0
100
AcDbSymbolTable
 70
     1
  0
VPORT
  5
29
330
8
100
AcDbSymbolTableRecord
100
AcDbViewportTableRecord
  2
*Active
 70
     0
 10
0.0
 20
0.0
 11
1.0
 21
1.0
 12
10.42990654205607
 22
4.5
 13
0.0
 23
0.0
 14
0.5
 24
0.5
 15
0.5
 25
0.5
 16
0.0
 26
0.0
 36
1.0
 17
0.0
 27
0.0
 37
0.0
 40
9.0
 41
1.972972972850329
 42
50.0
 43
0.0
 44
0.0
 50
0.0
 51
0.0
 71
     0
 72
   100
 73
     1
 74
     3
 75
     0
 76
     0
 77
     0
 78
     0
281
     0
 65
     1
110
0.0
120
0.0
130
0.0
111
1.0
121
0.0
131
0.0
112
0.0
122
1.0
132
0.0
 79
     0
146
0.0
 60
     3
 61
     5
292
     1
282
     1
141
0.0
142
0.0
 63
   256
  0
ENDTAB
  0
TABLE
  2
LTYPE
  5
5
330
0
100
AcDbSymbolTable
 70
     1
  0
LTYPE
  5
14
330
5
100
AcDbSymbolTableRecord
100
AcDbLinetypeTableRecord
  2
ByBlock
 70
     0
  3

 72
    65
 73
     0
 40
0.0
  0
LTYPE
  5
15
330
5
100
AcDbSymbolTableRecord
100
AcDbLinetypeTableRecord
  2
ByLayer
 70
     0
  3

 72
    65
 73
     0
 40
0.0
  0
LTYPE
  5
16
330
5
100
AcDbSymbolTableRecord
100
AcDbLinetypeTableRecord
  2
Continuous
 70
     0
  3
Solid line
 72
    65
 73
     0
 40
0.0
  0
ENDTAB
  0
TABLE
  2
LAYER
  5
2
330
0
100
AcDbSymbolTable
 70
     2
  0
LAYER
  5
10
330
2
100
AcDbSymbolTableRecord
100
AcDbLayerTableRecord
  2
0
 70
     0
 62
     7
  6
Continuous
370
    -3
390
F
347
0
  0
LAYER
  5
5E
330
2
100
AcDbSymbolTableRecord
100
AcDbLayerTableRecord
  2
Layer 1
 70
     0
 62
     7
  6
Continuous
370
    -3
390
F
347
0
  0
ENDTAB
  0
TABLE
  2
STYLE
  5
3
330
0
100
AcDbSymbolTable
 70
     1
  0
STYLE
  5
11
330
3
100
AcDbSymbolTableRecord
100
AcDbTextStyleTableRecord
  2
Standard
 70
     0
 40
0.0
 41
1.0
 50
0.0
 71
     0
 42
0.2
  3
txt
  4

  0
ENDTAB
  0
TABLE
  2
VIEW
  5
6
330
0
100
AcDbSymbolTable
 70
     0
  0
ENDTAB
  0
TABLE
  2
UCS
  5
7
330
0
100
AcDbSymbolTable
 70
     0
  0
ENDTAB
  0
TABLE
  2
APPID
  5
9
330
0
100
AcDbSymbolTable
 70
     2
  0
APPID
  5
12
330
9
100
AcDbSymbolTableRecord
100
AcDbRegAppTableRecord
  2
ACAD
 70
     0
  0
APPID
  5
5D
330
9
100
AcDbSymbolTableRecord
100
AcDbRegAppTableRecord
  2
ODA
 70
     0
  0
ENDTAB
  0
TABLE
  2
DIMSTYLE
  5
A
330
0
100
AcDbSymbolTable
 70
     1
100
AcDbDimStyleTable
  0
DIMSTYLE
105
27
330
A
100
AcDbSymbolTableRecord
100
AcDbDimStyleTableRecord
  2
Standard
 70
     0
340
11
  0
ENDTAB
  0
TABLE
  2
BLOCK_RECORD
  5
1
330
0
100
AcDbSymbolTable
 70
     1
  0
BLOCK_RECORD
  5
1F
330
1
100
AcDbSymbolTableRecord
100
AcDbBlockTableRecord
  2
*Model_Space
340
22
 70
     0
280
     1
281
     0
  0
BLOCK_RECORD
  5
1B
330
1
100
AcDbSymbolTableRecord
100
AcDbBlockTableRecord
  2
*Paper_Space
340
1E
 70
     0
280
     1
281
     0
  0
BLOCK_RECORD
  5
23
330
1
100
AcDbSymbolTableRecord
100
AcDbBlockTableRecord
  2
*Paper_Space0
340
26
 70
     0
280
     1
281
     0
  0
ENDTAB
  0
ENDSEC
  0
SECTION
  2
BLOCKS
  0
BLOCK
  5
20
330
1F
100
AcDbEntity
  8
0
100
AcDbBlockBegin
  2
*Model_Space
 70
     0
 10
0.0
 20
0.0
 30
0.0
  3
*Model_Space
  1

  0
ENDBLK
  5
21
330
1F
100
AcDbEntity
  8
0
100
AcDbBlockEnd
  0
BLOCK
  5
1C
330
1B
100
AcDbEntity
 67
     1
  8
0
100
AcDbBlockBegin
  2
*Paper_Space
 70
     0
 10
0.0
 20
0.0
 30
0.0
  3
*Paper_Space
  1

  0
ENDBLK
  5
1D
330
1B
100
AcDbEntity
 67
     1
  8
0
100
AcDbBlockEnd
  0
BLOCK
  5
24
330
23
100
AcDbEntity
  8
0
100
AcDbBlockBegin
  2
*Paper_Space0
 70
     0
 10
0.0
 20
0.0
 30
0.0
  3
*Paper_Space0
  1

  0
ENDBLK
  5
25
330
23
100
AcDbEntity
  8
0
100
AcDbBlockEnd
  0
ENDSEC
  0
SECTION
  2
ENTITIES
  0
SPLINE
  5
5F
330
1F
100
AcDbEntity
  8
Layer 1
 62
     7
100
AcDbSpline
210
0.0
220
0.0
230
1.0
 70
    11
 71
     3
 72
    20
 73
    16
 74
     0
 42
0.0000000001
 43
0.0000000001
 40
0.0
 40
0.0
 40
0.0
 40
0.0
 40
0.25
 40
0.25
 40
0.25
 40
0.25
 40
0.5
 40
0.5
 40
0.5
 40
0.5
 40
0.75
 40
0.75
 40
0.75
 40
0.75
 40
1.0
 40
1.0
 40
1.0
 40
1.0
 10
-11.5
 20
-13.85
 30
0.0
 10
-11.5
 20
-13.85
 30
0.0
 10
-9.5
 20
-13.85
 30
0.0
 10
-9.5
 20
-13.85
 30
0.0
 10
-9.5
 20
-13.85
 30
0.0
 10
-9.5
 20
-13.85
 30
0.0
 10
-9.5
 20
-15.85
 30
0.0
 10
-9.5
 20
-15.85
 30
0.0
 10
-9.5
 20
-15.85
 30
0.0
 10
-9.5
 20
-15.85
 30
0.0
 10
-11.5
 20
-15.85
 30
0.0
 10
-11.5
 20
-15.85
 30
0.0
 10
-11.5
 20
-15.85
 30
0.0
 10
-11.5
 20
-15.85
 30
0.0
 10
-11.5
 20
-13.85
 30
0.0
 10
-11.5
 20
-13.85
 30
0.0
  0
SPLINE
  5
60
330
1F
100
AcDbEntity
  8
Layer 1
 62
   250
370
   106
100
AcDbSpline
210
0.0
220
0.0
230
1.0
 70
    24
 71
     3
 72
     8
 73
     4
 74
     0
 42
0.0000000001
 43
0.0000000001
 40
0.0
 40
0.0
 40
0.0
 40
0.0
 40
1.0
 40
1.0
 40
1.0
 40
1.0
 10
-11.5
 20
-14.85
 30
0.0
 10
-11.5
 20
-14.85
 30
0.0
 10
-10.65001
 20
-14.84998
 30
0.0
 10
-10.65001
 20
-14.84998
 30
0.0
  0
SPLINE
  5
61
330
1F
100
AcDbEntity
  8
Layer 1
 62
   250
370
   106
100
AcDbSpline
210
0.0
220
0.0
230
1.0
 70
    24
 71
     3
 72
     8
 73
     4
 74
     0
 42
0.0000000001
 43
0.0000000001
 40
0.0
 40
0.0
 40
0.0
 40
0.0
 40
1.0
 40
1.0
 40
1.0
 40
1.0
 10
-10.35
 20
-14.85
 30
0.0
 10
-10.35
 20
-14.85
 30
0.0
 10
-9.50001
 20
-14.84998
 30
0.0
 10
-9.50001
 20
-14.84998
 30
0.0
  0
SPLINE
  5
62
330
1F
100
AcDbEntity
  8
Layer 1
 62
   250
370
   106
100
AcDbSpline
210
0.0
220
0.0
230
1.0
 70
    24
 71
     3
 72
     8
 73
     4
 74
     0
 42
0.0000000001
 43
0.0000000001
 40
0.0
 40
0.0
 40
0.0
 40
0.0
 40
1.0
 40
1.0
 40
1.0
 40
1.0
 10
-10.65001
 20
-14.6
 30
0.0
 10
-10.65001
 20
-14.6
 30
0.0
 10
-10.65001
 20
-15.1
 30
0.0
 10
-10.65001
 20
-15.1
 30
0.0
  0
SPLINE
  5
63
330
1F
100
AcDbEntity
  8
Layer 1
 62
   250
370
   106
100
AcDbSpline
210
0.0
220
0.0
230
1.0
 70
    24
 71
     3
 72
     8
 73
     4
 74
     0
 42
0.0000000001
 43
0.0000000001
 40
0.0
 40
0.0
 40
0.0
 40
0.0
 40
1.0
 40
1.0
 40
1.0
 40
1.0
 10
-10.35
 20
-14.6
 30
0.0
 10
-10.35
 20
-14.6
 30
0.0
 10
-10.35
 20
-15.1
 30
0.0
 10
-10.35
 20
-15.1
 30
0.0
  0
SPLINE
  5
64
330
1F
100
AcDbEntity
  8
Layer 1
 62
   250
100
AcDbSpline
210
0.0
220
0.0
230
1.0
 70
    11
 71
     3
 72
   116
 73
   112
 74
     0
 42
0.0000000001
 43
0.0000000001
 40
0.0
 40
0.0
 40
0.0
 40
0.0
 40
0.0357142857142857
 40
0.0357142857142857
 40
0.0357142857142857
 40
0.0357142857142857
 40
0.0714285714285714
 40
0.0714285714285714
 40
0.0714285714285714
 40
0.0714285714285714
 40
0.1071428571428571
 40
0.1071428571428571
 40
0.1071428571428571
 40
0.1071428571428571
 40
0.1428571428571428
 40
0.1428571428571428
 40
0.1428571428571428
 40
0.1428571428571428
 40
0.1785714285714285
 40
0.1785714285714285
 40
0.1785714285714285
 40
0.1785714285714285
 40
0.2142857142857142
 40
0.2142857142857142
 40
0.2142857142857142
 40
0.2142857142857142
 40
0.2499999999999999
 40
0.2499999999999999
 40
0.2499999999999999
 40
0.2499999999999999
 40
0.2857142857142856
 40
0.2857142857142856
 40
0.2857142857142856
 40
0.2857142857142856
 40
0.3214285714285713
 40
0.3214285714285713
 40
0.3214285714285713
 40
0.3214285714285713
 40
0.357142857142857
 40
0.357142857142857
 40
0.357142857142857
 40
0.357142857142857
 40
0.3928571428571427
 40
0.3928571428571427
 40
0.3928571428571427
 40
0.3928571428571427
 40
0.4285714285714284
 40
0.4285714285714284
 40
0.4285714285714284
 40
0.4285714285714284
 40
0.4642857142857141
 40
0.4642857142857141
 40
0.4642857142857141
 40
0.4642857142857141
 40
0.4999999999999998
 40
0.4999999999999998
 40
0.4999999999999998
 40
0.4999999999999998
 40
0.5357142857142856
 40
0.5357142857142856
 40
0.5357142857142856
 40
0.5357142857142856
 40
0.5714285714285713
 40
0.5714285714285713
 40
0.5714285714285713
 40
0.5714285714285713
 40
0.607142857142857
 40
0.607142857142857
 40
0.607142857142857
 40
0.607142857142857
 40
0.6428571428571427
 40
0.6428571428571427
 40
0.6428571428571427
 40
0.6428571428571427
 40
0.6785714285714284
 40
0.6785714285714284
 40
0.6785714285714284
 40
0.6785714285714284
 40
0.7142857142857141
 40
0.7142857142857141
 40
0.7142857142857141
 40
0.7142857142857141
 40
0.7499999999999998
 40
0.7499999999999998
 40
0.7499999999999998
 40
0.7499999999999998
 40
0.7857142857142855
 40
0.7857142857142855
 40
0.7857142857142855
 40
0.7857142857142855
 40
0.8214285714285712
 40
0.8214285714285712
 40
0.8214285714285712
 40
0.8214285714285712
 40
0.8571428571428569
 40
0.8571428571428569
 40
0.8571428571428569
 40
0.8571428571428569
 40
0.8928571428571426
 40
0.8928571428571426
 40
0.8928571428571426
 40
0.8928571428571426
 40
0.9285714285714283
 40
0.9285714285714283
 40
0.9285714285714283
 40
0.9285714285714283
 40
0.964285714285714
 40
0.964285714285714
 40
0.964285714285714
 40
0.964285714285714
 40
1.0
 40
1.0
 40
1.0
 40
1.0
 10
-11.10871
 20
-13.98859
 30
0.0
 10
-11.10871
 20
-13.98859
 30
0.0
 10
-11.10871
 20
-14.01034
 30
0.0
 10
-11.10871
 20
-14.01034
 30
0.0
 10
-11.10871
 20
-14.01034
 30
0.0
 10
-11.11436
 20
-14.00782
 30
0.0
 10
-11.11988
 20
-14.00592
 30
0.0
 10
-11.12524
 20
-14.00463
 30
0.0
 10
-11.12524
 20
-14.00463
 30
0.0
 10
-11.13063
 20
-14.00333
 30
0.0
 10
-11.13571
 20
-14.0027
 30
0.0
 10
-11.14048
 20
-14.0027
 30
0.0
 10
-11.14048
 20
-14.0027
 30
0.0
 10
-11.14681
 20
-14.0027
 30
0.0
 10
-11.15151
 20
-14.00357
 30
0.0
 10
-11.15455
 20
-14.00531
 30
0.0
 10
-11.15455
 20
-14.00531
 30
0.0
 10
-11.15758
 20
-14.00707
 30
0.0
 10
-11.15909
 20
-14.00978
 30
0.0
 10
-11.15909
 20
-14.01345
 30
0.0
 10
-11.15909
 20
-14.01345
 30
0.0
 10
-11.15909
 20
-14.0162
 30
0.0
 10
-11.15808
 20
-14.01836
 30
0.0
 10
-11.15603
 20
-14.01989
 30
0.0
 10
-11.15603
 20
-14.01989
 30
0.0
 10
-11.15398
 20
-14.02142
 30
0.0
 10
-11.15027
 20
-14.02276
 30
0.0
 10
-11.14488
 20
-14.02386
 30
0.0
 10
-11.14488
 20
-14.02386
 30
0.0
 10
-11.14488
 20
-14.02386
 30
0.0
 10
-11.13359
 20
-14.02612
 30
0.0
 10
-11.13359
 20
-14.02612
 30
0.0
 10
-11.13359
 20
-14.02612
 30
0.0
 10
-11.12214
 20
-14.02843
 30
0.0
 10
-11.11403
 20
-14.03191
 30
0.0
 10
-11.10921
 20
-14.03661
 30
0.0
 10
-11.10921
 20
-14.03661
 30
0.0
 10
-11.10438
 20
-14.04129
 30
0.0
 10
-11.10196
 20
-14.04795
 30
0.0
 10
-11.10196
 20
-14.05658
 30
0.0
 10
-11.10196
 20
-14.05658
 30
0.0
 10
-11.10196
 20
-14.06794
 30
0.0
 10
-11.10532
 20
-14.07638
 30
0.0
 10
-11.11205
 20
-14.08191
 30
0.0
 10
-11.11205
 20
-14.08191
 30
0.0
 10
-11.11878
 20
-14.08743
 30
0.0
 10
-11.12905
 20
-14.09021
 30
0.0
 10
-11.14288
 20
-14.09021
 30
0.0
 10
-11.14288
 20
-14.09021
 30
0.0
 10
-11.14942
 20
-14.09021
 30
0.0
 10
-11.15596
 20
-14.0896
 30
0.0
 10
-11.16252
 20
-14.08835
 30
0.0
 10
-11.16252
 20
-14.08835
 30
0.0
 10
-11.16908
 20
-14.0871
 30
0.0
 10
-11.17567
 20
-14.08527
 30
0.0
 10
-11.18223
 20
-14.08285
 30
0.0
 10
-11.18223
 20
-14.08285
 30
0.0
 10
-11.18223
 20
-14.08285
 30
0.0
 10
-11.18223
 20
-14.06046
 30
0.0
 10
-11.18223
 20
-14.06046
 30
0.0
 10
-11.18223
 20
-14.06046
 30
0.0
 10
-11.17567
 20
-14.06394
 30
0.0
 10
-11.16932
 20
-14.06657
 30
0.0
 10
-11.16318
 20
-14.06834
 30
0.0
 10
-11.16318
 20
-14.06834
 30
0.0
 10
-11.15704
 20
-14.0701
 30
0.0
 10
-11.15114
 20
-14.07099
 30
0.0
 10
-11.14545
 20
-14.07099
 30
0.0
 10
-11.14545
 20
-14.07099
 30
0.0
 10
-11.13966
 20
-14.07099
 30
0.0
 10
-11.13522
 20
-14.07003
 30
0.0
 10
-11.13214
 20
-14.0681
 30
0.0
 10
-11.13214
 20
-14.0681
 30
0.0
 10
-11.12905
 20
-14.06617
 30
0.0
 10
-11.12753
 20
-14.06342
 30
0.0
 10
-11.12753
 20
-14.05982
 30
0.0
 10
-11.12753
 20
-14.05982
 30
0.0
 10
-11.12753
 20
-14.05662
 30
0.0
 10
-11.12856
 20
-14.05413
 30
0.0
 10
-11.13065
 20
-14.05239
 30
0.0
 10
-11.13065
 20
-14.05239
 30
0.0
 10
-11.13275
 20
-14.05065
 30
0.0
 10
-11.13691
 20
-14.04908
 30
0.0
 10
-11.14317
 20
-14.04771
 30
0.0
 10
-11.14317
 20
-14.04771
 30
0.0
 10
-11.14317
 20
-14.04771
 30
0.0
 10
-11.15344
 20
-14.04543
 30
0.0
 10
-11.15344
 20
-14.04543
 30
0.0
 10
-11.15344
 20
-14.04543
 30
0.0
 10
-11.16372
 20
-14.04322
 30
0.0
 10
-11.17125
 20
-14.03972
 30
0.0
 10
-11.176
 20
-14.03489
 30
0.0
 10
-11.176
 20
-14.03489
 30
0.0
 10
-11.18075
 20
-14.03007
 30
0.0
 10
-11.18312
 20
-14.02356
 30
0.0
 10
-11.18312
 20
-14.0154
 30
0.0
 10
-11.18312
 20
-14.0154
 30
0.0
 10
-11.18312
 20
-14.00514
 30
0.0
 10
-11.17981
 20
-13.99726
 30
0.0
 10
-11.1732
 20
-13.99176
 30
0.0
 10
-11.1732
 20
-13.99176
 30
0.0
 10
-11.16659
 20
-13.98623
 30
0.0
 10
-11.15709
 20
-13.98348
 30
0.0
 10
-11.14467
 20
-13.98348
 30
0.0
 10
-11.14467
 20
-13.98348
 30
0.0
 10
-11.13903
 20
-13.98348
 30
0.0
 10
-11.13322
 20
-13.98391
 30
0.0
 10
-11.12724
 20
-13.98475
 30
0.0
 10
-11.12724
 20
-13.98475
 30
0.0
 10
-11.12127
 20
-13.9856
 30
0.0
 10
-11.11509
 20
-13.98687
 30
0.0
 10
-11.10871
 20
-13.98859
 30
0.0
  0
SPLINE
  5
65
330
1F
100
AcDbEntity
  8
Layer 1
 62
   250
100
AcDbSpline
210
0.0
220
0.0
230
1.0
 70
    11
 71
     3
 72
    56
 73
    52
 74
     0
 42
0.0000000001
 43
0.0000000001
 40
0.0
 40
0.0
 40
0.0
 40
0.0
 40
0.0769230769230769
 40
0.0769230769230769
 40
0.0769230769230769
 40
0.0769230769230769
 40
0.1538461538461539
 40
0.1538461538461539
 40
0.1538461538461539
 40
0.1538461538461539
 40
0.2307692307692308
 40
0.2307692307692308
 40
0.2307692307692308
 40
0.2307692307692308
 40
0.3076923076923077
 40
0.3076923076923077
 40
0.3076923076923077
 40
0.3076923076923077
 40
0.3846153846153846
 40
0.3846153846153846
 40
0.3846153846153846
 40
0.3846153846153846
 40
0.4615384615384616
 40
0.4615384615384616
 40
0.4615384615384616
 40
0.4615384615384616
 40
0.5384615384615385
 40
0.5384615384615385
 40
0.5384615384615385
 40
0.5384615384615385
 40
0.6153846153846154
 40
0.6153846153846154
 40
0.6153846153846154
 40
0.6153846153846154
 40
0.6923076923076923
 40
0.6923076923076923
 40
0.6923076923076923
 40
0.6923076923076923
 40
0.7692307692307692
 40
0.7692307692307692
 40
0.7692307692307692
 40
0.7692307692307692
 40
0.846153846153846
 40
0.846153846153846
 40
0.846153846153846
 40
0.846153846153846
 40
0.9230769230769229
 40
0.9230769230769229
 40
0.9230769230769229
 40
0.9230769230769229
 40
1.0
 40
1.0
 40
1.0
 40
1.0
 10
-11.07868
 20
-13.98534
 30
0.0
 10
-11.07868
 20
-13.98534
 30
0.0
 10
-11.04493
 20
-13.98534
 30
0.0
 10
-11.04493
 20
-13.98534
 30
0.0
 10
-11.04493
 20
-13.98534
 30
0.0
 10
-11.04493
 20
-13.98534
 30
0.0
 10
-11.02148
 20
-14.0404
 30
0.0
 10
-11.02148
 20
-14.0404
 30
0.0
 10
-11.02148
 20
-14.0404
 30
0.0
 10
-11.02148
 20
-14.0404
 30
0.0
 10
-10.99792
 20
-13.98534
 30
0.0
 10
-10.99792
 20
-13.98534
 30
0.0
 10
-10.99792
 20
-13.98534
 30
0.0
 10
-10.99792
 20
-13.98534
 30
0.0
 10
-10.96424
 20
-13.98534
 30
0.0
 10
-10.96424
 20
-13.98534
 30
0.0
 10
-10.96424
 20
-13.98534
 30
0.0
 10
-10.96424
 20
-13.98534
 30
0.0
 10
-10.96424
 20
-14.08821
 30
0.0
 10
-10.96424
 20
-14.08821
 30
0.0
 10
-10.96424
 20
-14.08821
 30
0.0
 10
-10.96424
 20
-14.08821
 30
0.0
 10
-10.98931
 20
-14.08821
 30
0.0
 10
-10.98931
 20
-14.08821
 30
0.0
 10
-10.98931
 20
-14.08821
 30
0.0
 10
-10.98931
 20
-14.08821
 30
0.0
 10
-10.98931
 20
-14.01297
 30
0.0
 10
-10.98931
 20
-14.01297
 30
0.0
 10
-10.98931
 20
-14.01297
 30
0.0
 10
-10.98931
 20
-14.01297
 30
0.0
 10
-11.01302
 20
-14.06843
 30
0.0
 10
-11.01302
 20
-14.06843
 30
0.0
 10
-11.01302
 20
-14.06843
 30
0.0
 10
-11.01302
 20
-14.06843
 30
0.0
 10
-11.02983
 20
-14.06843
 30
0.0
 10
-11.02983
 20
-14.06843
 30
0.0
 10
-11.02983
 20
-14.06843
 30
0.0
 10
-11.02983
 20
-14.06843
 30
0.0
 10
-11.05354
 20
-14.01297
 30
0.0
 10
-11.05354
 20
-14.01297
 30
0.0
 10
-11.05354
 20
-14.01297
 30
0.0
 10
-11.05354
 20
-14.01297
 30
0.0
 10
-11.05354
 20
-14.08821
 30
0.0
 10
-11.05354
 20
-14.08821
 30
0.0
 10
-11.05354
 20
-14.08821
 30
0.0
 10
-11.05354
 20
-14.08821
 30
0.0
 10
-11.07868
 20
-14.08821
 30
0.0
 10
-11.07868
 20
-14.08821
 30
0.0
 10
-11.07868
 20
-14.08821
 30
0.0
 10
-11.07868
 20
-14.08821
 30
0.0
 10
-11.07868
 20
-13.98534
 30
0.0
 10
-11.07868
 20
-13.98534
 30
0.0
  0
SPLINE
  5
66
330
1F
100
AcDbEntity
  8
Layer 1
 62
   250
100
AcDbSpline
210
0.0
220
0.0
230
1.0
 70
    11
 71
     3
 72
    32
 73
    28
 74
     0
 42
0.0000000001
 43
0.0000000001
 40
0.0
 40
0.0
 40
0.0
 40
0.0
 40
0.1428571428571428
 40
0.1428571428571428
 40
0.1428571428571428
 40
0.1428571428571428
 40
0.2857142857142857
 40
0.2857142857142857
 40
0.2857142857142857
 40
0.2857142857142857
 40
0.4285714285714285
 40
0.4285714285714285
 40
0.4285714285714285
 40
0.4285714285714285
 40
0.5714285714285714
 40
0.5714285714285714
 40
0.5714285714285714
 40
0.5714285714285714
 40
0.7142857142857142
 40
0.7142857142857142
 40
0.7142857142857142
 40
0.7142857142857142
 40
0.857142857142857
 40
0.857142857142857
 40
0.857142857142857
 40
0.857142857142857
 40
1.0
 40
1.0
 40
1.0
 40
1.0
 10
-10.91172
 20
-14.0054
 30
0.0
 10
-10.91172
 20
-14.0054
 30
0.0
 10
-10.91172
 20
-14.06815
 30
0.0
 10
-10.91172
 20
-14.06815
 30
0.0
 10
-10.91172
 20
-14.06815
 30
0.0
 10
-10.91172
 20
-14.06815
 30
0.0
 10
-10.90222
 20
-14.06815
 30
0.0
 10
-10.90222
 20
-14.06815
 30
0.0
 10
-10.90222
 20
-14.06815
 30
0.0
 10
-10.89138
 20
-14.06815
 30
0.0
 10
-10.8831
 20
-14.06547
 30
0.0
 10
-10.87739
 20
-14.06008
 30
0.0
 10
-10.87739
 20
-14.06008
 30
0.0
 10
-10.87167
 20
-14.05472
 30
0.0
 10
-10.8688
 20
-14.04691
 30
0.0
 10
-10.8688
 20
-14.03668
 30
0.0
 10
-10.8688
 20
-14.03668
 30
0.0
 10
-10.8688
 20
-14.02647
 30
0.0
 10
-10.87165
 20
-14.01871
 30
0.0
 10
-10.87734
 20
-14.0134
 30
0.0
 10
-10.87734
 20
-14.0134
 30
0.0
 10
-10.88303
 20
-14.00806
 30
0.0
 10
-10.89133
 20
-14.0054
 30
0.0
 10
-10.90222
 20
-14.0054
 30
0.0
 10
-10.90222
 20
-14.0054
 30
0.0
 10
-10.90222
 20
-14.0054
 30
0.0
 10
-10.91172
 20
-14.0054
 30
0.0
 10
-10.91172
 20
-14.0054
 30
0.0
  0
SPLINE
  5
67
330
1F
100
AcDbEntity
  8
Layer 1
 62
   250
100
AcDbSpline
210
0.0
220
0.0
230
1.0
 70
    11
 71
     3
 72
    48
 73
    44
 74
     0
 42
0.0000000001
 43
0.0000000001
 40
0.0
 40
0.0
 40
0.0
 40
0.0
 40
0.0909090909090909
 40
0.0909090909090909
 40
0.0909090909090909
 40
0.0909090909090909
 40
0.1818181818181818
 40
0.1818181818181818
 40
0.1818181818181818
 40
0.1818181818181818
 40
0.2727272727272727
 40
0.2727272727272727
 40
0.2727272727272727
 40
0.2727272727272727
 40
0.3636363636363636
 40
0.3636363636363636
 40
0.3636363636363636
 40
0.3636363636363636
 40
0.4545454545454546
 40
0.4545454545454546
 40
0.4545454545454546
 40
0.4545454545454546
 40
0.5454545454545455
 40
0.5454545454545455
 40
0.5454545454545455
 40
0.5454545454545455
 40
0.6363636363636365
 40
0.6363636363636365
 40
0.6363636363636365
 40
0.6363636363636365
 40
0.7272727272727274
 40
0.7272727272727274
 40
0.7272727272727274
 40
0.7272727272727274
 40
0.8181818181818183
 40
0.8181818181818183
 40
0.8181818181818183
 40
0.8181818181818183
 40
0.9090909090909093
 40
0.9090909090909093
 40
0.9090909090909093
 40
0.9090909090909093
 40
1.0
 40
1.0
 40
1.0
 40
1.0
 10
-10.93825
 20
-13.98534
 30
0.0
 10
-10.93825
 20
-13.98534
 30
0.0
 10
-10.91026
 20
-13.98534
 30
0.0
 10
-10.91026
 20
-13.98534
 30
0.0
 10
-10.91026
 20
-13.98534
 30
0.0
 10
-10.89465
 20
-13.98534
 30
0.0
 10
-10.88303
 20
-13.98645
 30
0.0
 10
-10.87539
 20
-13.98868
 30
0.0
 10
-10.87539
 20
-13.98868
 30
0.0
 10
-10.86774
 20
-13.99091
 30
0.0
 10
-10.86118
 20
-13.99468
 30
0.0
 10
-10.8557
 20
-14.00002
 30
0.0
 10
-10.8557
 20
-14.00002
 30
0.0
 10
-10.85088
 20
-14.00465
 30
0.0
 10
-10.84731
 20
-14.01001
 30
0.0
 10
-10.84495
 20
-14.01608
 30
0.0
 10
-10.84495
 20
-14.01608
 30
0.0
 10
-10.84263
 20
-14.02212
 30
0.0
 10
-10.84145
 20
-14.02899
 30
0.0
 10
-10.84145
 20
-14.03668
 30
0.0
 10
-10.84145
 20
-14.03668
 30
0.0
 10
-10.84145
 20
-14.04444
 30
0.0
 10
-10.84263
 20
-14.05136
 30
0.0
 10
-10.84495
 20
-14.05745
 30
0.0
 10
-10.84495
 20
-14.05745
 30
0.0
 10
-10.84731
 20
-14.06354
 30
0.0
 10
-10.85088
 20
-14.0689
 30
0.0
 10
-10.8557
 20
-14.07353
 30
0.0
 10
-10.8557
 20
-14.07353
 30
0.0
 10
-10.86123
 20
-14.07887
 30
0.0
 10
-10.86784
 20
-14.08264
 30
0.0
 10
-10.87555
 20
-14.08487
 30
0.0
 10
-10.87555
 20
-14.08487
 30
0.0
 10
-10.88327
 20
-14.0871
 30
0.0
 10
-10.89484
 20
-14.08821
 30
0.0
 10
-10.91026
 20
-14.08821
 30
0.0
 10
-10.91026
 20
-14.08821
 30
0.0
 10
-10.91026
 20
-14.08821
 30
0.0
 10
-10.93825
 20
-14.08821
 30
0.0
 10
-10.93825
 20
-14.08821
 30
0.0
 10
-10.93825
 20
-14.08821
 30
0.0
 10
-10.93825
 20
-14.08821
 30
0.0
 10
-10.93825
 20
-13.98534
 30
0.0
 10
-10.93825
 20
-13.98534
 30
0.0
  0
SPLINE
  5
68
330
1F
100
AcDbEntity
  8
Layer 1
 62
   250
100
AcDbSpline
210
0.0
220
0.0
230
1.0
 70
    11
 71
     3
 72
    44
 73
    40
 74
     0
 42
0.0000000001
 43
0.0000000001
 40
0.0
 40
0.0
 40
0.0
 40
0.0
 40
0.1
 40
0.1
 40
0.1
 40
0.1
 40
0.2
 40
0.2
 40
0.2
 40
0.2
 40
0.3
 40
0.3
 40
0.3
 40
0.3
 40
0.4
 40
0.4
 40
0.4
 40
0.4
 40
0.5
 40
0.5
 40
0.5
 40
0.5
 40
0.6
 40
0.6
 40
0.6
 40
0.6
 40
0.7
 40
0.7
 40
0.7
 40
0.7
 40
0.7999999999999999
 40
0.7999999999999999
 40
0.7999999999999999
 40
0.7999999999999999
 40
0.8999999999999999
 40
0.8999999999999999
 40
0.8999999999999999
 40
0.8999999999999999
 40
1.0
 40
1.0
 40
1.0
 40
1.0
 10
-10.73176
 20
-14.10681
 30
0.0
 10
-10.73176
 20
-14.10681
 30
0.0
 10
-10.75222
 20
-14.10681
 30
0.0
 10
-10.75222
 20
-14.10681
 30
0.0
 10
-10.75222
 20
-14.10681
 30
0.0
 10
-10.75925
 20
-14.09548
 30
0.0
 10
-10.76445
 20
-14.08468
 30
0.0
 10
-10.76779
 20
-14.07445
 30
0.0
 10
-10.76779
 20
-14.07445
 30
0.0
 10
-10.77115
 20
-14.06424
 30
0.0
 10
-10.77282
 20
-14.05411
 30
0.0
 10
-10.77282
 20
-14.04404
 30
0.0
 10
-10.77282
 20
-14.04404
 30
0.0
 10
-10.77282
 20
-14.03398
 30
0.0
 10
-10.77113
 20
-14.02379
 30
0.0
 10
-10.76777
 20
-14.01349
 30
0.0
 10
-10.76777
 20
-14.01349
 30
0.0
 10
-10.76438
 20
-14.00317
 30
0.0
 10
-10.75921
 20
-13.9924
 30
0.0
 10
-10.75222
 20
-13.98113
 30
0.0
 10
-10.75222
 20
-13.98113
 30
0.0
 10
-10.75222
 20
-13.98113
 30
0.0
 10
-10.73176
 20
-13.98113
 30
0.0
 10
-10.73176
 20
-13.98113
 30
0.0
 10
-10.73176
 20
-13.98113
 30
0.0
 10
-10.73764
 20
-13.99202
 30
0.0
 10
-10.74204
 20
-14.00267
 30
0.0
 10
-10.74498
 20
-14.01307
 30
0.0
 10
-10.74498
 20
-14.01307
 30
0.0
 10
-10.74792
 20
-14.02346
 30
0.0
 10
-10.7494
 20
-14.03374
 30
0.0
 10
-10.7494
 20
-14.0439
 30
0.0
 10
-10.7494
 20
-14.0439
 30
0.0
 10
-10.7494
 20
-14.05406
 30
0.0
 10
-10.74794
 20
-14.06434
 30
0.0
 10
-10.74503
 20
-14.07478
 30
0.0
 10
-10.74503
 20
-14.07478
 30
0.0
 10
-10.74211
 20
-14.0852
 30
0.0
 10
-10.73769
 20
-14.09588
 30
0.0
 10
-10.73176
 20
-14.10681
 30
0.0
  0
SPLINE
  5
69
330
1F
100
AcDbEntity
  8
Layer 1
 62
   250
100
AcDbSpline
210
0.0
220
0.0
230
1.0
 70
    11
 71
     3
 72
    36
 73
    32
 74
     0
 42
0.0000000001
 43
0.0000000001
 40
0.0
 40
0.0
 40
0.0
 40
0.0
 40
0.125
 40
0.125
 40
0.125
 40
0.125
 40
0.25
 40
0.25
 40
0.25
 40
0.25
 40
0.375
 40
0.375
 40
0.375
 40
0.375
 40
0.5
 40
0.5
 40
0.5
 40
0.5
 40
0.625
 40
0.625
 40
0.625
 40
0.625
 40
0.75
 40
0.75
 40
0.75
 40
0.75
 40
0.875
 40
0.875
 40
0.875
 40
0.875
 40
1.0
 40
1.0
 40
1.0
 40
1.0
 10
-10.65556
 20
-14.03668
 30
0.0
 10
-10.65556
 20
-14.02382
 30
0.0
 10
-10.65676
 20
-14.01476
 30
0.0
 10
-10.65918
 20
-14.00949
 30
0.0
 10
-10.65918
 20
-14.00949
 30
0.0
 10
-10.66158
 20
-14.00425
 30
0.0
 10
-10.66565
 20
-14.00162
 30
0.0
 10
-10.67134
 20
-14.00162
 30
0.0
 10
-10.67134
 20
-14.00162
 30
0.0
 10
-10.67703
 20
-14.00162
 30
0.0
 10
-10.6811
 20
-14.00425
 30
0.0
 10
-10.68355
 20
-14.00949
 30
0.0
 10
-10.68355
 20
-14.00949
 30
0.0
 10
-10.68597
 20
-14.01476
 30
0.0
 10
-10.68719
 20
-14.02382
 30
0.0
 10
-10.68719
 20
-14.03668
 30
0.0
 10
-10.68719
 20
-14.03668
 30
0.0
 10
-10.68719
 20
-14.04966
 30
0.0
 10
-10.68597
 20
-14.05884
 30
0.0
 10
-10.68355
 20
-14.06415
 30
0.0
 10
-10.68355
 20
-14.06415
 30
0.0
 10
-10.6811
 20
-14.06949
 30
0.0
 10
-10.67703
 20
-14.07215
 30
0.0
 10
-10.67134
 20
-14.07215
 30
0.0
 10
-10.67134
 20
-14.07215
 30
0.0
 10
-10.6657
 20
-14.07215
 30
0.0
 10
-10.66165
 20
-14.06949
 30
0.0
 10
-10.6592
 20
-14.06415
 30
0.0
 10
-10.6592
 20
-14.06415
 30
0.0
 10
-10.65678
 20
-14.05884
 30
0.0
 10
-10.65556
 20
-14.04966
 30
0.0
 10
-10.65556
 20
-14.03668
 30
0.0
  0
SPLINE
  5
6A
330
1F
100
AcDbEntity
  8
Layer 1
 62
   250
100
AcDbSpline
210
0.0
220
0.0
230
1.0
 70
    11
 71
     3
 72
    36
 73
    32
 74
     0
 42
0.0000000001
 43
0.0000000001
 40
0.0
 40
0.0
 40
0.0
 40
0.0
 40
0.125
 40
0.125
 40
0.125
 40
0.125
 40
0.25
 40
0.25
 40
0.25
 40
0.25
 40
0.375
 40
0.375
 40
0.375
 40
0.375
 40
0.5
 40
0.5
 40
0.5
 40
0.5
 40
0.625
 40
0.625
 40
0.625
 40
0.625
 40
0.75
 40
0.75
 40
0.75
 40
0.75
 40
0.875
 40
0.875
 40
0.875
 40
0.875
 40
1.0
 40
1.0
 40
1.0
 40
1.0
 10
-10.62903
 20
-14.03687
 30
0.0
 10
-10.62903
 20
-14.05392
 30
0.0
 10
-10.6327
 20
-14.06707
 30
0.0
 10
-10.64006
 20
-14.07633
 30
0.0
 10
-10.64006
 20
-14.07633
 30
0.0
 10
-10.6474
 20
-14.08558
 30
0.0
 10
-10.65784
 20
-14.09021
 30
0.0
 10
-10.67134
 20
-14.09021
 30
0.0
 10
-10.67134
 20
-14.09021
 30
0.0
 10
-10.68489
 20
-14.09021
 30
0.0
 10
-10.69535
 20
-14.08558
 30
0.0
 10
-10.70269
 20
-14.07633
 30
0.0
 10
-10.70269
 20
-14.07633
 30
0.0
 10
-10.71005
 20
-14.06707
 30
0.0
 10
-10.71372
 20
-14.05392
 30
0.0
 10
-10.71372
 20
-14.03687
 30
0.0
 10
-10.71372
 20
-14.03687
 30
0.0
 10
-10.71372
 20
-14.0198
 30
0.0
 10
-10.71005
 20
-14.00662
 30
0.0
 10
-10.70269
 20
-13.99736
 30
0.0
 10
-10.70269
 20
-13.99736
 30
0.0
 10
-10.69535
 20
-13.98812
 30
0.0
 10
-10.68489
 20
-13.98348
 30
0.0
 10
-10.67134
 20
-13.98348
 30
0.0
 10
-10.67134
 20
-13.98348
 30
0.0
 10
-10.65784
 20
-13.98348
 30
0.0
 10
-10.6474
 20
-13.98812
 30
0.0
 10
-10.64006
 20
-13.99736
 30
0.0
 10
-10.64006
 20
-13.99736
 30
0.0
 10
-10.6327
 20
-14.00662
 30
0.0
 10
-10.62903
 20
-14.0198
 30
0.0
 10
-10.62903
 20
-14.03687
 30
0.0
  0
SPLINE
  5
6B
330
1F
100
AcDbEntity
  8
Layer 1
 62
   250
100
AcDbSpline
210
0.0
220
0.0
230
1.0
 70
    11
 71
     3
 72
    16
 73
    12
 74
     0
 42
0.0000000001
 43
0.0000000001
 40
0.0
 40
0.0
 40
0.0
 40
0.0
 40
0.3333333333333333
 40
0.3333333333333333
 40
0.3333333333333333
 40
0.3333333333333333
 40
0.6666666666666666
 40
0.6666666666666666
 40
0.6666666666666666
 40
0.6666666666666666
 40
1.0
 40
1.0
 40
1.0
 40
1.0
 10
-10.5703
 20
-14.00719
 30
0.0
 10
-10.5703
 20
-14.00719
 30
0.0
 10
-10.5994
 20
-14.05025
 30
0.0
 10
-10.5994
 20
-14.05025
 30
0.0
 10
-10.5994
 20
-14.05025
 30
0.0
 10
-10.5994
 20
-14.05025
 30
0.0
 10
-10.5703
 20
-14.05025
 30
0.0
 10
-10.5703
 20
-14.05025
 30
0.0
 10
-10.5703
 20
-14.05025
 30
0.0
 10
-10.5703
 20
-14.05025
 30
0.0
 10
-10.5703
 20
-14.00719
 30
0.0
 10
-10.5703
 20
-14.00719
 30
0.0
  0
SPLINE
  5
6C
330
1F
100
AcDbEntity
  8
Layer 1
 62
   250
100
AcDbSpline
210
0.0
220
0.0
230
1.0
 70
    11
 71
     3
 72
    48
 73
    44
 74
     0
 42
0.0000000001
 43
0.0000000001
 40
0.0
 40
0.0
 40
0.0
 40
0.0
 40
0.0909090909090909
 40
0.0909090909090909
 40
0.0909090909090909
 40
0.0909090909090909
 40
0.1818181818181818
 40
0.1818181818181818
 40
0.1818181818181818
 40
0.1818181818181818
 40
0.2727272727272727
 40
0.2727272727272727
 40
0.2727272727272727
 40
0.2727272727272727
 40
0.3636363636363636
 40
0.3636363636363636
 40
0.3636363636363636
 40
0.3636363636363636
 40
0.4545454545454546
 40
0.4545454545454546
 40
0.4545454545454546
 40
0.4545454545454546
 40
0.5454545454545455
 40
0.5454545454545455
 40
0.5454545454545455
 40
0.5454545454545455
 40
0.6363636363636365
 40
0.6363636363636365
 40
0.6363636363636365
 40
0.6363636363636365
 40
0.7272727272727274
 40
0.7272727272727274
 40
0.7272727272727274
 40
0.7272727272727274
 40
0.8181818181818183
 40
0.8181818181818183
 40
0.8181818181818183
 40
0.8181818181818183
 40
0.9090909090909093
 40
0.9090909090909093
 40
0.9090909090909093
 40
0.9090909090909093
 40
1.0
 40
1.0
 40
1.0
 40
1.0
 10
-10.57473
 20
-13.98534
 30
0.0
 10
-10.57473
 20
-13.98534
 30
0.0
 10
-10.54523
 20
-13.98534
 30
0.0
 10
-10.54523
 20
-13.98534
 30
0.0
 10
-10.54523
 20
-13.98534
 30
0.0
 10
-10.54523
 20
-13.98534
 30
0.0
 10
-10.54523
 20
-14.05025
 30
0.0
 10
-10.54523
 20
-14.05025
 30
0.0
 10
-10.54523
 20
-14.05025
 30
0.0
 10
-10.54523
 20
-14.05025
 30
0.0
 10
-10.53056
 20
-14.05025
 30
0.0
 10
-10.53056
 20
-14.05025
 30
0.0
 10
-10.53056
 20
-14.05025
 30
0.0
 10
-10.53056
 20
-14.05025
 30
0.0
 10
-10.53056
 20
-14.06947
 30
0.0
 10
-10.53056
 20
-14.06947
 30
0.0
 10
-10.53056
 20
-14.06947
 30
0.0
 10
-10.53056
 20
-14.06947
 30
0.0
 10
-10.54523
 20
-14.06947
 30
0.0
 10
-10.54523
 20
-14.06947
 30
0.0
 10
-10.54523
 20
-14.06947
 30
0.0
 10
-10.54523
 20
-14.06947
 30
0.0
 10
-10.54523
 20
-14.08821
 30
0.0
 10
-10.54523
 20
-14.08821
 30
0.0
 10
-10.54523
 20
-14.08821
 30
0.0
 10
-10.54523
 20
-14.08821
 30
0.0
 10
-10.5703
 20
-14.08821
 30
0.0
 10
-10.5703
 20
-14.08821
 30
0.0
 10
-10.5703
 20
-14.08821
 30
0.0
 10
-10.5703
 20
-14.08821
 30
0.0
 10
-10.5703
 20
-14.06947
 30
0.0
 10
-10.5703
 20
-14.06947
 30
0.0
 10
-10.5703
 20
-14.06947
 30
0.0
 10
-10.5703
 20
-14.06947
 30
0.0
 10
-10.61593
 20
-14.06947
 30
0.0
 10
-10.61593
 20
-14.06947
 30
0.0
 10
-10.61593
 20
-14.06947
 30
0.0
 10
-10.61593
 20
-14.06947
 30
0.0
 10
-10.61593
 20
-14.04672
 30
0.0
 10
-10.61593
 20
-14.04672
 30
0.0
 10
-10.61593
 20
-14.04672
 30
0.0
 10
-10.61593
 20
-14.04672
 30
0.0
 10
-10.57473
 20
-13.98534
 30
0.0
 10
-10.57473
 20
-13.98534
 30
0.0
  0
SPLINE
  5
6D
330
1F
100
AcDbEntity
  8
Layer 1
 62
   250
100
AcDbSpline
210
0.0
220
0.0
230
1.0
 70
    11
 71
     3
 72
    36
 73
    32
 74
     0
 42
0.0000000001
 43
0.0000000001
 40
0.0
 40
0.0
 40
0.0
 40
0.0
 40
0.125
 40
0.125
 40
0.125
 40
0.125
 40
0.25
 40
0.25
 40
0.25
 40
0.25
 40
0.375
 40
0.375
 40
0.375
 40
0.375
 40
0.5
 40
0.5
 40
0.5
 40
0.5
 40
0.625
 40
0.625
 40
0.625
 40
0.625
 40
0.75
 40
0.75
 40
0.75
 40
0.75
 40
0.875
 40
0.875
 40
0.875
 40
0.875
 40
1.0
 40
1.0
 40
1.0
 40
1.0
 10
-10.45918
 20
-14.03668
 30
0.0
 10
-10.45918
 20
-14.02382
 30
0.0
 10
-10.46038
 20
-14.01476
 30
0.0
 10
-10.4628
 20
-14.00949
 30
0.0
 10
-10.4628
 20
-14.00949
 30
0.0
 10
-10.4652
 20
-14.00425
 30
0.0
 10
-10.46927
 20
-14.00162
 30
0.0
 10
-10.47496
 20
-14.00162
 30
0.0
 10
-10.47496
 20
-14.00162
 30
0.0
 10
-10.48065
 20
-14.00162
 30
0.0
 10
-10.48472
 20
-14.00425
 30
0.0
 10
-10.48717
 20
-14.00949
 30
0.0
 10
-10.48717
 20
-14.00949
 30
0.0
 10
-10.48959
 20
-14.01476
 30
0.0
 10
-10.49081
 20
-14.02382
 30
0.0
 10
-10.49081
 20
-14.03668
 30
0.0
 10
-10.49081
 20
-14.03668
 30
0.0
 10
-10.49081
 20
-14.04966
 30
0.0
 10
-10.48959
 20
-14.05884
 30
0.0
 10
-10.48717
 20
-14.06415
 30
0.0
 10
-10.48717
 20
-14.06415
 30
0.0
 10
-10.48472
 20
-14.06949
 30
0.0
 10
-10.48065
 20
-14.07215
 30
0.0
 10
-10.47496
 20
-14.07215
 30
0.0
 10
-10.47496
 20
-14.07215
 30
0.0
 10
-10.46932
 20
-14.07215
 30
0.0
 10
-10.46527
 20
-14.06949
 30
0.0
 10
-10.46282
 20
-14.06415
 30
0.0
 10
-10.46282
 20
-14.06415
 30
0.0
 10
-10.4604
 20
-14.05884
 30
0.0
 10
-10.45918
 20
-14.04966
 30
0.0
 10
-10.45918
 20
-14.03668
 30
0.0
  0
SPLINE
  5
6E
330
1F
100
AcDbEntity
  8
Layer 1
 62
   250
100
AcDbSpline
210
0.0
220
0.0
230
1.0
 70
    11
 71
     3
 72
    36
 73
    32
 74
     0
 42
0.0000000001
 43
0.0000000001
 40
0.0
 40
0.0
 40
0.0
 40
0.0
 40
0.125
 40
0.125
 40
0.125
 40
0.125
 40
0.25
 40
0.25
 40
0.25
 40
0.25
 40
0.375
 40
0.375
 40
0.375
 40
0.375
 40
0.5
 40
0.5
 40
0.5
 40
0.5
 40
0.625
 40
0.625
 40
0.625
 40
0.625
 40
0.75
 40
0.75
 40
0.75
 40
0.75
 40
0.875
 40
0.875
 40
0.875
 40
0.875
 40
1.0
 40
1.0
 40
1.0
 40
1.0
 10
-10.43265
 20
-14.03687
 30
0.0
 10
-10.43265
 20
-14.05392
 30
0.0
 10
-10.43632
 20
-14.06707
 30
0.0
 10
-10.44368
 20
-14.07633
 30
0.0
 10
-10.44368
 20
-14.07633
 30
0.0
 10
-10.45102
 20
-14.08558
 30
0.0
 10
-10.46146
 20
-14.09021
 30
0.0
 10
-10.47496
 20
-14.09021
 30
0.0
 10
-10.47496
 20
-14.09021
 30
0.0
 10
-10.48851
 20
-14.09021
 30
0.0
 10
-10.49897
 20
-14.08558
 30
0.0
 10
-10.50631
 20
-14.07633
 30
0.0
 10
-10.50631
 20
-14.07633
 30
0.0
 10
-10.51367
 20
-14.06707
 30
0.0
 10
-10.51734
 20
-14.05392
 30
0.0
 10
-10.51734
 20
-14.03687
 30
0.0
 10
-10.51734
 20
-14.03687
 30
0.0
 10
-10.51734
 20
-14.0198
 30
0.0
 10
-10.51367
 20
-14.00662
 30
0.0
 10
-10.50631
 20
-13.99736
 30
0.0
 10
-10.50631
 20
-13.99736
 30
0.0
 10
-10.49897
 20
-13.98812
 30
0.0
 10
-10.48851
 20
-13.98348
 30
0.0
 10
-10.47496
 20
-13.98348
 30
0.0
 10
-10.47496
 20
-13.98348
 30
0.0
 10
-10.46146
 20
-13.98348
 30
0.0
 10
-10.45102
 20
-13.98812
 30
0.0
 10
-10.44368
 20
-13.99736
 30
0.0
 10
-10.44368
 20
-13.99736
 30
0.0
 10
-10.43632
 20
-14.00662
 30
0.0
 10
-10.43265
 20
-14.0198
 30
0.0
 10
-10.43265
 20
-14.03687
 30
0.0
  0
SPLINE
  5
6F
330
1F
100
AcDbEntity
  8
Layer 1
 62
   250
100
AcDbSpline
210
0.0
220
0.0
230
1.0
 70
    11
 71
     3
 72
    80
 73
    76
 74
     0
 42
0.0000000001
 43
0.0000000001
 40
0.0
 40
0.0
 40
0.0
 40
0.0
 40
0.0526315789473684
 40
0.0526315789473684
 40
0.0526315789473684
 40
0.0526315789473684
 40
0.1052631578947368
 40
0.1052631578947368
 40
0.1052631578947368
 40
0.1052631578947368
 40
0.1578947368421053
 40
0.1578947368421053
 40
0.1578947368421053
 40
0.1578947368421053
 40
0.2105263157894737
 40
0.2105263157894737
 40
0.2105263157894737
 40
0.2105263157894737
 40
0.2631578947368421
 40
0.2631578947368421
 40
0.2631578947368421
 40
0.2631578947368421
 40
0.3157894736842105
 40
0.3157894736842105
 40
0.3157894736842105
 40
0.3157894736842105
 40
0.3684210526315789
 40
0.3684210526315789
 40
0.3684210526315789
 40
0.3684210526315789
 40
0.4210526315789473
 40
0.4210526315789473
 40
0.4210526315789473
 40
0.4210526315789473
 40
0.4736842105263158
 40
0.4736842105263158
 40
0.4736842105263158
 40
0.4736842105263158
 40
0.5263157894736842
 40
0.5263157894736842
 40
0.5263157894736842
 40
0.5263157894736842
 40
0.5789473684210527
 40
0.5789473684210527
 40
0.5789473684210527
 40
0.5789473684210527
 40
0.631578947368421
 40
0.631578947368421
 40
0.631578947368421
 40
0.631578947368421
 40
0.6842105263157894
 40
0.6842105263157894
 40
0.6842105263157894
 40
0.6842105263157894
 40
0.7368421052631577
 40
0.7368421052631577
 40
0.7368421052631577
 40
0.7368421052631577
 40
0.7894736842105261
 40
0.7894736842105261
 40
0.7894736842105261
 40
0.7894736842105261
 40
0.8421052631578945
 40
0.8421052631578945
 40
0.8421052631578945
 40
0.8421052631578945
 40
0.8947368421052628
 40
0.8947368421052628
 40
0.8947368421052628
 40
0.8947368421052628
 40
0.9473684210526312
 40
0.9473684210526312
 40
0.9473684210526312
 40
0.9473684210526312
 40
1.0
 40
1.0
 40
1.0
 40
1.0
 10
-10.38524
 20
-14.06871
 30
0.0
 10
-10.38524
 20
-14.06871
 30
0.0
 10
-10.33996
 20
-14.06871
 30
0.0
 10
-10.33996
 20
-14.06871
 30
0.0
 10
-10.33996
 20
-14.06871
 30
0.0
 10
-10.33996
 20
-14.06871
 30
0.0
 10
-10.33996
 20
-14.08821
 30
0.0
 10
-10.33996
 20
-14.08821
 30
0.0
 10
-10.33996
 20
-14.08821
 30
0.0
 10
-10.33996
 20
-14.08821
 30
0.0
 10
-10.41473
 20
-14.08821
 30
0.0
 10
-10.41473
 20
-14.08821
 30
0.0
 10
-10.41473
 20
-14.08821
 30
0.0
 10
-10.41473
 20
-14.08821
 30
0.0
 10
-10.41473
 20
-14.06871
 30
0.0
 10
-10.41473
 20
-14.06871
 30
0.0
 10
-10.41473
 20
-14.06871
 30
0.0
 10
-10.41473
 20
-14.06871
 30
0.0
 10
-10.37717
 20
-14.03558
 30
0.0
 10
-10.37717
 20
-14.03558
 30
0.0
 10
-10.37717
 20
-14.03558
 30
0.0
 10
-10.37381
 20
-14.03254
 30
0.0
 10
-10.37134
 20
-14.02958
 30
0.0
 10
-10.36974
 20
-14.02669
 30
0.0
 10
-10.36974
 20
-14.02669
 30
0.0
 10
-10.36812
 20
-14.02379
 30
0.0
 10
-10.36732
 20
-14.02078
 30
0.0
 10
-10.36732
 20
-14.01765
 30
0.0
 10
-10.36732
 20
-14.01765
 30
0.0
 10
-10.36732
 20
-14.01283
 30
0.0
 10
-10.36894
 20
-14.00895
 30
0.0
 10
-10.37218
 20
-14.00601
 30
0.0
 10
-10.37218
 20
-14.00601
 30
0.0
 10
-10.37541
 20
-14.00307
 30
0.0
 10
-10.37971
 20
-14.00162
 30
0.0
 10
-10.3851
 20
-14.00162
 30
0.0
 10
-10.3851
 20
-14.00162
 30
0.0
 10
-10.38923
 20
-14.00162
 30
0.0
 10
-10.39375
 20
-14.00251
 30
0.0
 10
-10.39867
 20
-14.00427
 30
0.0
 10
-10.39867
 20
-14.00427
 30
0.0
 10
-10.40358
 20
-14.00604
 30
0.0
 10
-10.40885
 20
-14.00867
 30
0.0
 10
-10.41445
 20
-14.01215
 30
0.0
 10
-10.41445
 20
-14.01215
 30
0.0
 10
-10.41445
 20
-14.01215
 30
0.0
 10
-10.41445
 20
-13.98955
 30
0.0
 10
-10.41445
 20
-13.98955
 30
0.0
 10
-10.41445
 20
-13.98955
 30
0.0
 10
-10.40847
 20
-13.98758
 30
0.0
 10
-10.40257
 20
-13.98607
 30
0.0
 10
-10.39674
 20
-13.98504
 30
0.0
 10
-10.39674
 20
-13.98504
 30
0.0
 10
-10.3909
 20
-13.984
 30
0.0
 10
-10.38519
 20
-13.98348
 30
0.0
 10
-10.37957
 20
-13.98348
 30
0.0
 10
-10.37957
 20
-13.98348
 30
0.0
 10
-10.36727
 20
-13.98348
 30
0.0
 10
-10.3577
 20
-13.98619
 30
0.0
 10
-10.35088
 20
-13.99162
 30
0.0
 10
-10.35088
 20
-13.99162
 30
0.0
 10
-10.34406
 20
-13.99703
 30
0.0
 10
-10.34065
 20
-14.00458
 30
0.0
 10
-10.34065
 20
-14.01429
 30
0.0
 10
-10.34065
 20
-14.01429
 30
0.0
 10
-10.34065
 20
-14.01989
 30
0.0
 10
-10.3421
 20
-14.02511
 30
0.0
 10
-10.345
 20
-14.02996
 30
0.0
 10
-10.345
 20
-14.02996
 30
0.0
 10
-10.34789
 20
-14.0348
 30
0.0
 10
-10.35398
 20
-14.04129
 30
0.0
 10
-10.36325
 20
-14.04943
 30
0.0
 10
-10.36325
 20
-14.04943
 30
0.0
 10
-10.36325
 20
-14.04943
 30
0.0
 10
-10.38524
 20
-14.06871
 30
0.0
 10
-10.38524
 20
-14.06871
 30
0.0
  0
SPLINE
  5
70
330
1F
100
AcDbEntity
  8
Layer 1
 62
   250
100
AcDbSpline
210
0.0
220
0.0
230
1.0
 70
    11
 71
     3
 72
    44
 73
    40
 74
     0
 42
0.0000000001
 43
0.0000000001
 40
0.0
 40
0.0
 40
0.0
 40
0.0
 40
0.1
 40
0.1
 40
0.1
 40
0.1
 40
0.2
 40
0.2
 40
0.2
 40
0.2
 40
0.3
 40
0.3
 40
0.3
 40
0.3
 40
0.4
 40
0.4
 40
0.4
 40
0.4
 40
0.5
 40
0.5
 40
0.5
 40
0.5
 40
0.6
 40
0.6
 40
0.6
 40
0.6
 40
0.7
 40
0.7
 40
0.7
 40
0.7
 40
0.7999999999999999
 40
0.7999999999999999
 40
0.7999999999999999
 40
0.7999999999999999
 40
0.8999999999999999
 40
0.8999999999999999
 40
0.8999999999999999
 40
0.8999999999999999
 40
1.0
 40
1.0
 40
1.0
 40
1.0
 10
-10.31642
 20
-14.10681
 30
0.0
 10
-10.31054
 20
-14.09588
 30
0.0
 10
-10.30612
 20
-14.0852
 30
0.0
 10
-10.30318
 20
-14.07478
 30
0.0
 10
-10.30318
 20
-14.07478
 30
0.0
 10
-10.30024
 20
-14.06434
 30
0.0
 10
-10.29878
 20
-14.05406
 30
0.0
 10
-10.29878
 20
-14.0439
 30
0.0
 10
-10.29878
 20
-14.0439
 30
0.0
 10
-10.29878
 20
-14.03374
 30
0.0
 10
-10.30024
 20
-14.02346
 30
0.0
 10
-10.30318
 20
-14.01307
 30
0.0
 10
-10.30318
 20
-14.01307
 30
0.0
 10
-10.30612
 20
-14.00267
 30
0.0
 10
-10.31054
 20
-13.99202
 30
0.0
 10
-10.31642
 20
-13.98113
 30
0.0
 10
-10.31642
 20
-13.98113
 30
0.0
 10
-10.31642
 20
-13.98113
 30
0.0
 10
-10.29596
 20
-13.98113
 30
0.0
 10
-10.29596
 20
-13.98113
 30
0.0
 10
-10.29596
 20
-13.98113
 30
0.0
 10
-10.28898
 20
-13.9924
 30
0.0
 10
-10.2838
 20
-14.00317
 30
0.0
 10
-10.28041
 20
-14.01349
 30
0.0
 10
-10.28041
 20
-14.01349
 30
0.0
 10
-10.27705
 20
-14.02379
 30
0.0
 10
-10.27536
 20
-14.03398
 30
0.0
 10
-10.27536
 20
-14.04404
 30
0.0
 10
-10.27536
 20
-14.04404
 30
0.0
 10
-10.27536
 20
-14.05411
 30
0.0
 10
-10.27703
 20
-14.06424
 30
0.0
 10
-10.28039
 20
-14.07445
 30
0.0
 10
-10.28039
 20
-14.07445
 30
0.0
 10
-10.28373
 20
-14.08468
 30
0.0
 10
-10.28893
 20
-14.09548
 30
0.0
 10
-10.29596
 20
-14.10681
 30
0.0
 10
-10.29596
 20
-14.10681
 30
0.0
 10
-10.29596
 20
-14.10681
 30
0.0
 10
-10.31642
 20
-14.10681
 30
0.0
 10
-10.31642
 20
-14.10681
 30
0.0
  0
SPLINE
  5
71
330
1F
100
AcDbEntity
  8
Layer 1
 62
   250
100
AcDbSpline
210
0.0
220
0.0
230
1.0
 70
    11
 71
     3
 72
    16
 73
    12
 74
     0
 42
0.0000000001
 43
0.0000000001
 40
0.0
 40
0.0
 40
0.0
 40
0.0
 40
0.3333333333333333
 40
0.3333333333333333
 40
0.3333333333333333
 40
0.3333333333333333
 40
0.6666666666666666
 40
0.6666666666666666
 40
0.6666666666666666
 40
0.6666666666666666
 40
1.0
 40
1.0
 40
1.0
 40
1.0
 10
-10.16211
 20
-14.00719
 30
0.0
 10
-10.16211
 20
-14.00719
 30
0.0
 10
-10.19121
 20
-14.05025
 30
0.0
 10
-10.19121
 20
-14.05025
 30
0.0
 10
-10.19121
 20
-14.05025
 30
0.0
 10
-10.19121
 20
-14.05025
 30
0.0
 10
-10.16211
 20
-14.05025
 30
0.0
 10
-10.16211
 20
-14.05025
 30
0.0
 10
-10.16211
 20
-14.05025
 30
0.0
 10
-10.16211
 20
-14.05025
 30
0.0
 10
-10.16211
 20
-14.00719
 30
0.0
 10
-10.16211
 20
-14.00719
 30
0.0
  0
SPLINE
  5
72
330
1F
100
AcDbEntity
  8
Layer 1
 62
   250
100
AcDbSpline
210
0.0
220
0.0
230
1.0
 70
    11
 71
     3
 72
    48
 73
    44
 74
     0
 42
0.0000000001
 43
0.0000000001
 40
0.0
 40
0.0
 40
0.0
 40
0.0
 40
0.0909090909090909
 40
0.0909090909090909
 40
0.0909090909090909
 40
0.0909090909090909
 40
0.1818181818181818
 40
0.1818181818181818
 40
0.1818181818181818
 40
0.1818181818181818
 40
0.2727272727272727
 40
0.2727272727272727
 40
0.2727272727272727
 40
0.2727272727272727
 40
0.3636363636363636
 40
0.3636363636363636
 40
0.3636363636363636
 40
0.3636363636363636
 40
0.4545454545454546
 40
0.4545454545454546
 40
0.4545454545454546
 40
0.4545454545454546
 40
0.5454545454545455
 40
0.5454545454545455
 40
0.5454545454545455
 40
0.5454545454545455
 40
0.6363636363636365
 40
0.6363636363636365
 40
0.6363636363636365
 40
0.6363636363636365
 40
0.7272727272727274
 40
0.7272727272727274
 40
0.7272727272727274
 40
0.7272727272727274
 40
0.8181818181818183
 40
0.8181818181818183
 40
0.8181818181818183
 40
0.8181818181818183
 40
0.9090909090909093
 40
0.9090909090909093
 40
0.9090909090909093
 40
0.9090909090909093
 40
1.0
 40
1.0
 40
1.0
 40
1.0
 10
-10.16654
 20
-13.98534
 30
0.0
 10
-10.16654
 20
-13.98534
 30
0.0
 10
-10.13704
 20
-13.98534
 30
0.0
 10
-10.13704
 20
-13.98534
 30
0.0
 10
-10.13704
 20
-13.98534
 30
0.0
 10
-10.13704
 20
-13.98534
 30
0.0
 10
-10.13704
 20
-14.05025
 30
0.0
 10
-10.13704
 20
-14.05025
 30
0.0
 10
-10.13704
 20
-14.05025
 30
0.0
 10
-10.13704
 20
-14.05025
 30
0.0
 10
-10.12237
 20
-14.05025
 30
0.0
 10
-10.12237
 20
-14.05025
 30
0.0
 10
-10.12237
 20
-14.05025
 30
0.0
 10
-10.12237
 20
-14.05025
 30
0.0
 10
-10.12237
 20
-14.06947
 30
0.0
 10
-10.12237
 20
-14.06947
 30
0.0
 10
-10.12237
 20
-14.06947
 30
0.0
 10
-10.12237
 20
-14.06947
 30
0.0
 10
-10.13704
 20
-14.06947
 30
0.0
 10
-10.13704
 20
-14.06947
 30
0.0
 10
-10.13704
 20
-14.06947
 30
0.0
 10
-10.13704
 20
-14.06947
 30
0.0
 10
-10.13704
 20
-14.08821
 30
0.0
 10
-10.13704
 20
-14.08821
 30
0.0
 10
-10.13704
 20
-14.08821
 30
0.0
 10
-10.13704
 20
-14.08821
 30
0.0
 10
-10.16211
 20
-14.08821
 30
0.0
 10
-10.16211
 20
-14.08821
 30
0.0
 10
-10.16211
 20
-14.08821
 30
0.0
 10
-10.16211
 20
-14.08821
 30
0.0
 10
-10.16211
 20
-14.06947
 30
0.0
 10
-10.16211
 20
-14.06947
 30
0.0
 10
-10.16211
 20
-14.06947
 30
0.0
 10
-10.16211
 20
-14.06947
 30
0.0
 10
-10.20774
 20
-14.06947
 30
0.0
 10
-10.20774
 20
-14.06947
 30
0.0
 10
-10.20774
 20
-14.06947
 30
0.0
 10
-10.20774
 20
-14.06947
 30
0.0
 10
-10.20774
 20
-14.04672
 30
0.0
 10
-10.20774
 20
-14.04672
 30
0.0
 10
-10.20774
 20
-14.04672
 30
0.0
 10
-10.20774
 20
-14.04672
 30
0.0
 10
-10.16654
 20
-13.98534
 30
0.0
 10
-10.16654
 20
-13.98534
 30
0.0
  0
SPLINE
  5
73
330
1F
100
AcDbEntity
  8
Layer 1
 62
   250
100
AcDbSpline
210
0.0
220
0.0
230
1.0
 70
    11
 71
     3
 72
    32
 73
    28
 74
     0
 42
0.0000000001
 43
0.0000000001
 40
0.0
 40
0.0
 40
0.0
 40
0.0
 40
0.1428571428571428
 40
0.1428571428571428
 40
0.1428571428571428
 40
0.1428571428571428
 40
0.2857142857142857
 40
0.2857142857142857
 40
0.2857142857142857
 40
0.2857142857142857
 40
0.4285714285714285
 40
0.4285714285714285
 40
0.4285714285714285
 40
0.4285714285714285
 40
0.5714285714285714
 40
0.5714285714285714
 40
0.5714285714285714
 40
0.5714285714285714
 40
0.7142857142857142
 40
0.7142857142857142
 40
0.7142857142857142
 40
0.7142857142857142
 40
0.857142857142857
 40
0.857142857142857
 40
0.857142857142857
 40
0.857142857142857
 40
1.0
 40
1.0
 40
1.0
 40
1.0
 10
-10.10647
 20
-13.98534
 30
0.0
 10
-10.10647
 20
-13.98534
 30
0.0
 10
-10.02895
 20
-13.98534
 30
0.0
 10
-10.02895
 20
-13.98534
 30
0.0
 10
-10.02895
 20
-13.98534
 30
0.0
 10
-10.02895
 20
-13.98534
 30
0.0
 10
-10.02895
 20
-14.0003
 30
0.0
 10
-10.02895
 20
-14.0003
 30
0.0
 10
-10.02895
 20
-14.0003
 30
0.0
 10
-10.02895
 20
-14.0003
 30
0.0
 10
-10.06905
 20
-14.08821
 30
0.0
 10
-10.06905
 20
-14.08821
 30
0.0
 10
-10.06905
 20
-14.08821
 30
0.0
 10
-10.06905
 20
-14.08821
 30
0.0
 10
-10.0949
 20
-14.08821
 30
0.0
 10
-10.0949
 20
-14.08821
 30
0.0
 10
-10.0949
 20
-14.08821
 30
0.0
 10
-10.0949
 20
-14.08821
 30
0.0
 10
-10.05692
 20
-14.00484
 30
0.0
 10
-10.05692
 20
-14.00484
 30
0.0
 10
-10.05692
 20
-14.00484
 30
0.0
 10
-10.05692
 20
-14.00484
 30
0.0
 10
-10.10647
 20
-14.00484
 30
0.0
 10
-10.10647
 20
-14.00484
 30
0.0
 10
-10.10647
 20
-14.00484
 30
0.0
 10
-10.10647
 20
-14.00484
 30
0.0
 10
-10.10647
 20
-13.98534
 30
0.0
 10
-10.10647
 20
-13.98534
 30
0.0
  0
SPLINE
  5
74
330
1F
100
AcDbEntity
  8
Layer 1
 62
   250
100
AcDbSpline
210
0.0
220
0.0
230
1.0
 70
    11
 71
     3
 72
    80
 73
    76
 74
     0
 42
0.0000000001
 43
0.0000000001
 40
0.0
 40
0.0
 40
0.0
 40
0.0
 40
0.0526315789473684
 40
0.0526315789473684
 40
0.0526315789473684
 40
0.0526315789473684
 40
0.1052631578947368
 40
0.1052631578947368
 40
0.1052631578947368
 40
0.1052631578947368
 40
0.1578947368421053
 40
0.1578947368421053
 40
0.1578947368421053
 40
0.1578947368421053
 40
0.2105263157894737
 40
0.2105263157894737
 40
0.2105263157894737
 40
0.2105263157894737
 40
0.2631578947368421
 40
0.2631578947368421
 40
0.2631578947368421
 40
0.2631578947368421
 40
0.3157894736842105
 40
0.3157894736842105
 40
0.3157894736842105
 40
0.3157894736842105
 40
0.3684210526315789
 40
0.3684210526315789
 40
0.3684210526315789
 40
0.3684210526315789
 40
0.4210526315789473
 40
0.4210526315789473
 40
0.4210526315789473
 40
0.4210526315789473
 40
0.4736842105263158
 40
0.4736842105263158
 40
0.4736842105263158
 40
0.4736842105263158
 40
0.5263157894736842
 40
0.5263157894736842
 40
0.5263157894736842
 40
0.5263157894736842
 40
0.5789473684210527
 40
0.5789473684210527
 40
0.5789473684210527
 40
0.5789473684210527
 40
0.631578947368421
 40
0.631578947368421
 40
0.631578947368421
 40
0.631578947368421
 40
0.6842105263157894
 40
0.6842105263157894
 40
0.6842105263157894
 40
0.6842105263157894
 40
0.7368421052631577
 40
0.7368421052631577
 40
0.7368421052631577
 40
0.7368421052631577
 40
0.7894736842105261
 40
0.7894736842105261
 40
0.7894736842105261
 40
0.7894736842105261
 40
0.8421052631578945
 40
0.8421052631578945
 40
0.8421052631578945
 40
0.8421052631578945
 40
0.8947368421052628
 40
0.8947368421052628
 40
0.8947368421052628
 40
0.8947368421052628
 40
0.9473684210526312
 40
0.9473684210526312
 40
0.9473684210526312
 40
0.9473684210526312
 40
1.0
 40
1.0
 40
1.0
 40
1.0
 10
-9.87914
 20
-14.04122
 30
0.0
 10
-9.87914
 20
-14.04122
 30
0.0
 10
-9.87914
 20
-14.08821
 30
0.0
 10
-9.87914
 20
-14.08821
 30
0.0
 10
-9.87914
 20
-14.08821
 30
0.0
 10
-9.87914
 20
-14.08821
 30
0.0
 10
-9.90395
 20
-14.08821
 30
0.0
 10
-9.90395
 20
-14.08821
 30
0.0
 10
-9.90395
 20
-14.08821
 30
0.0
 10
-9.90395
 20
-14.08821
 30
0.0
 10
-9.90395
 20
-14.08057
 30
0.0
 10
-9.90395
 20
-14.08057
 30
0.0
 10
-9.90395
 20
-14.08057
 30
0.0
 10
-9.90395
 20
-14.08057
 30
0.0
 10
-9.90395
 20
-14.05225
 30
0.0
 10
-9.90395
 20
-14.05225
 30
0.0
 10
-9.90395
 20
-14.05225
 30
0.0
 10
-9.90395
 20
-14.04559
 30
0.0
 10
-9.90409
 20
-14.04099
 30
0.0
 10
-9.9044
 20
-14.03847
 30
0.0
 10
-9.9044
 20
-14.03847
 30
0.0
 10
-9.9047
 20
-14.03595
 30
0.0
 10
-9.90522
 20
-14.03409
 30
0.0
 10
-9.90595
 20
-14.03289
 30
0.0
 10
-9.90595
 20
-14.03289
 30
0.0
 10
-9.90691
 20
-14.03127
 30
0.0
 10
-9.90823
 20
-14.03003
 30
0.0
 10
-9.90988
 20
-14.02913
 30
0.0
 10
-9.90988
 20
-14.02913
 30
0.0
 10
-9.91152
 20
-14.02824
 30
0.0
 10
-9.91341
 20
-14.02779
 30
0.0
 10
-9.91552
 20
-14.02779
 30
0.0
 10
-9.91552
 20
-14.02779
 30
0.0
 10
-9.92067
 20
-14.02779
 30
0.0
 10
-9.92472
 20
-14.02977
 30
0.0
 10
-9.92766
 20
-14.03374
 30
0.0
 10
-9.92766
 20
-14.03374
 30
0.0
 10
-9.9306
 20
-14.03772
 30
0.0
 10
-9.93206
 20
-14.04322
 30
0.0
 10
-9.93206
 20
-14.05025
 30
0.0
 10
-9.93206
 20
-14.05025
 30
0.0
 10
-9.93206
 20
-14.05025
 30
0.0
 10
-9.93206
 20
-14.08821
 30
0.0
 10
-9.93206
 20
-14.08821
 30
0.0
 10
-9.93206
 20
-14.08821
 30
0.0
 10
-9.93206
 20
-14.08821
 30
0.0
 10
-9.95673
 20
-14.08821
 30
0.0
 10
-9.95673
 20
-14.08821
 30
0.0
 10
-9.95673
 20
-14.08821
 30
0.0
 10
-9.95673
 20
-14.08821
 30
0.0
 10
-9.95673
 20
-14.01105
 30
0.0
 10
-9.95673
 20
-14.01105
 30
0.0
 10
-9.95673
 20
-14.01105
 30
0.0
 10
-9.95673
 20
-14.01105
 30
0.0
 10
-9.93206
 20
-14.01105
 30
0.0
 10
-9.93206
 20
-14.01105
 30
0.0
 10
-9.93206
 20
-14.01105
 30
0.0
 10
-9.93206
 20
-14.01105
 30
0.0
 10
-9.93206
 20
-14.02236
 30
0.0
 10
-9.93206
 20
-14.02236
 30
0.0
 10
-9.93206
 20
-14.02236
 30
0.0
 10
-9.92834
 20
-14.01784
 30
0.0
 10
-9.92439
 20
-14.01453
 30
0.0
 10
-9.9202
 20
-14.01239
 30
0.0
 10
-9.9202
 20
-14.01239
 30
0.0
 10
-9.91602
 20
-14.01025
 30
0.0
 10
-9.91141
 20
-14.00919
 30
0.0
 10
-9.90635
 20
-14.00919
 30
0.0
 10
-9.90635
 20
-14.00919
 30
0.0
 10
-9.89744
 20
-14.00919
 30
0.0
 10
-9.89069
 20
-14.01192
 30
0.0
 10
-9.88605
 20
-14.0174
 30
0.0
 10
-9.88605
 20
-14.0174
 30
0.0
 10
-9.88144
 20
-14.02285
 30
0.0
 10
-9.87914
 20
-14.0308
 30
0.0
 10
-9.87914
 20
-14.04122
 30
0.0
  0
SPLINE
  5
75
330
1F
100
AcDbEntity
  8
Layer 1
 62
   250
100
AcDbSpline
210
0.0
220
0.0
230
1.0
 70
    11
 71
     3
 72
    76
 73
    72
 74
     0
 42
0.0000000001
 43
0.0000000001
 40
0.0
 40
0.0
 40
0.0
 40
0.0
 40
0.0555555555555556
 40
0.0555555555555556
 40
0.0555555555555556
 40
0.0555555555555556
 40
0.1111111111111111
 40
0.1111111111111111
 40
0.1111111111111111
 40
0.1111111111111111
 40
0.1666666666666667
 40
0.1666666666666667
 40
0.1666666666666667
 40
0.1666666666666667
 40
0.2222222222222222
 40
0.2222222222222222
 40
0.2222222222222222
 40
0.2222222222222222
 40
0.2777777777777778
 40
0.2777777777777778
 40
0.2777777777777778
 40
0.2777777777777778
 40
0.3333333333333334
 40
0.3333333333333334
 40
0.3333333333333334
 40
0.3333333333333334
 40
0.388888888888889
 40
0.388888888888889
 40
0.388888888888889
 40
0.388888888888889
 40
0.4444444444444445
 40
0.4444444444444445
 40
0.4444444444444445
 40
0.4444444444444445
 40
0.5000000000000001
 40
0.5000000000000001
 40
0.5000000000000001
 40
0.5000000000000001
 40
0.5555555555555557
 40
0.5555555555555557
 40
0.5555555555555557
 40
0.5555555555555557
 40
0.6111111111111113
 40
0.6111111111111113
 40
0.6111111111111113
 40
0.6111111111111113
 40
0.6666666666666669
 40
0.6666666666666669
 40
0.6666666666666669
 40
0.6666666666666669
 40
0.7222222222222224
 40
0.7222222222222224
 40
0.7222222222222224
 40
0.7222222222222224
 40
0.777777777777778
 40
0.777777777777778
 40
0.777777777777778
 40
0.777777777777778
 40
0.8333333333333336
 40
0.8333333333333336
 40
0.8333333333333336
 40
0.8333333333333336
 40
0.8888888888888892
 40
0.8888888888888892
 40
0.8888888888888892
 40
0.8888888888888892
 40
0.9444444444444448
 40
0.9444444444444448
 40
0.9444444444444448
 40
0.9444444444444448
 40
1.0
 40
1.0
 40
1.0
 40
1.0
 10
-9.80548
 20
-13.98099
 30
0.0
 10
-9.80548
 20
-13.98099
 30
0.0
 10
-9.80548
 20
-13.99717
 30
0.0
 10
-9.80548
 20
-13.99717
 30
0.0
 10
-9.80548
 20
-13.99717
 30
0.0
 10
-9.80548
 20
-13.99717
 30
0.0
 10
-9.81914
 20
-13.99717
 30
0.0
 10
-9.81914
 20
-13.99717
 30
0.0
 10
-9.81914
 20
-13.99717
 30
0.0
 10
-9.82262
 20
-13.99717
 30
0.0
 10
-9.82507
 20
-13.99781
 30
0.0
 10
-9.82643
 20
-13.99908
 30
0.0
 10
-9.82643
 20
-13.99908
 30
0.0
 10
-9.82782
 20
-14.00035
 30
0.0
 10
-9.8285
 20
-14.00253
 30
0.0
 10
-9.8285
 20
-14.00566
 30
0.0
 10
-9.8285
 20
-14.00566
 30
0.0
 10
-9.8285
 20
-14.00566
 30
0.0
 10
-9.8285
 20
-14.01105
 30
0.0
 10
-9.8285
 20
-14.01105
 30
0.0
 10
-9.8285
 20
-14.01105
 30
0.0
 10
-9.8285
 20
-14.01105
 30
0.0
 10
-9.80743
 20
-14.01105
 30
0.0
 10
-9.80743
 20
-14.01105
 30
0.0
 10
-9.80743
 20
-14.01105
 30
0.0
 10
-9.80743
 20
-14.01105
 30
0.0
 10
-9.80743
 20
-14.02869
 30
0.0
 10
-9.80743
 20
-14.02869
 30
0.0
 10
-9.80743
 20
-14.02869
 30
0.0
 10
-9.80743
 20
-14.02869
 30
0.0
 10
-9.8285
 20
-14.02869
 30
0.0
 10
-9.8285
 20
-14.02869
 30
0.0
 10
-9.8285
 20
-14.02869
 30
0.0
 10
-9.8285
 20
-14.02869
 30
0.0
 10
-9.8285
 20
-14.08821
 30
0.0
 10
-9.8285
 20
-14.08821
 30
0.0
 10
-9.8285
 20
-14.08821
 30
0.0
 10
-9.8285
 20
-14.08821
 30
0.0
 10
-9.85317
 20
-14.08821
 30
0.0
 10
-9.85317
 20
-14.08821
 30
0.0
 10
-9.85317
 20
-14.08821
 30
0.0
 10
-9.85317
 20
-14.08821
 30
0.0
 10
-9.85317
 20
-14.02869
 30
0.0
 10
-9.85317
 20
-14.02869
 30
0.0
 10
-9.85317
 20
-14.02869
 30
0.0
 10
-9.85317
 20
-14.02869
 30
0.0
 10
-9.86543
 20
-14.02869
 30
0.0
 10
-9.86543
 20
-14.02869
 30
0.0
 10
-9.86543
 20
-14.02869
 30
0.0
 10
-9.86543
 20
-14.02869
 30
0.0
 10
-9.86543
 20
-14.01105
 30
0.0
 10
-9.86543
 20
-14.01105
 30
0.0
 10
-9.86543
 20
-14.01105
 30
0.0
 10
-9.86543
 20
-14.01105
 30
0.0
 10
-9.85317
 20
-14.01105
 30
0.0
 10
-9.85317
 20
-14.01105
 30
0.0
 10
-9.85317
 20
-14.01105
 30
0.0
 10
-9.85317
 20
-14.01105
 30
0.0
 10
-9.85317
 20
-14.00566
 30
0.0
 10
-9.85317
 20
-14.00566
 30
0.0
 10
-9.85317
 20
-14.00566
 30
0.0
 10
-9.85317
 20
-13.99726
 30
0.0
 10
-9.85082
 20
-13.99103
 30
0.0
 10
-9.84614
 20
-13.98701
 30
0.0
 10
-9.84614
 20
-13.98701
 30
0.0
 10
-9.84146
 20
-13.98299
 30
0.0
 10
-9.83419
 20
-13.98099
 30
0.0
 10
-9.82436
 20
-13.98099
 30
0.0
 10
-9.82436
 20
-13.98099
 30
0.0
 10
-9.82436
 20
-13.98099
 30
0.0
 10
-9.80548
 20
-13.98099
 30
0.0
 10
-9.80548
 20
-13.98099
 30
0.0
  0
SPLINE
  5
76
330
1F
100
AcDbEntity
  8
Layer 1
 62
   250
100
AcDbSpline
210
0.0
220
0.0
230
1.0
 70
    11
 71
     3
 72
    76
 73
    72
 74
     0
 42
0.0000000001
 43
0.0000000001
 40
0.0
 40
0.0
 40
0.0
 40
0.0
 40
0.0555555555555556
 40
0.0555555555555556
 40
0.0555555555555556
 40
0.0555555555555556
 40
0.1111111111111111
 40
0.1111111111111111
 40
0.1111111111111111
 40
0.1111111111111111
 40
0.1666666666666667
 40
0.1666666666666667
 40
0.1666666666666667
 40
0.1666666666666667
 40
0.2222222222222222
 40
0.2222222222222222
 40
0.2222222222222222
 40
0.2222222222222222
 40
0.2777777777777778
 40
0.2777777777777778
 40
0.2777777777777778
 40
0.2777777777777778
 40
0.3333333333333334
 40
0.3333333333333334
 40
0.3333333333333334
 40
0.3333333333333334
 40
0.388888888888889
 40
0.388888888888889
 40
0.388888888888889
 40
0.388888888888889
 40
0.4444444444444445
 40
0.4444444444444445
 40
0.4444444444444445
 40
0.4444444444444445
 40
0.5000000000000001
 40
0.5000000000000001
 40
0.5000000000000001
 40
0.5000000000000001
 40
0.5555555555555557
 40
0.5555555555555557
 40
0.5555555555555557
 40
0.5555555555555557
 40
0.6111111111111113
 40
0.6111111111111113
 40
0.6111111111111113
 40
0.6111111111111113
 40
0.6666666666666669
 40
0.6666666666666669
 40
0.6666666666666669
 40
0.6666666666666669
 40
0.7222222222222224
 40
0.7222222222222224
 40
0.7222222222222224
 40
0.7222222222222224
 40
0.777777777777778
 40
0.777777777777778
 40
0.777777777777778
 40
0.777777777777778
 40
0.8333333333333336
 40
0.8333333333333336
 40
0.8333333333333336
 40
0.8333333333333336
 40
0.8888888888888892
 40
0.8888888888888892
 40
0.8888888888888892
 40
0.8888888888888892
 40
0.9444444444444448
 40
0.9444444444444448
 40
0.9444444444444448
 40
0.9444444444444448
 40
1.0
 40
1.0
 40
1.0
 40
1.0
 10
-11.30482
 20
-14.24682
 30
0.0
 10
-11.30968
 20
-14.24933
 30
0.0
 10
-11.31476
 20
-14.25124
 30
0.0
 10
-11.32006
 20
-14.25253
 30
0.0
 10
-11.32006
 20
-14.25253
 30
0.0
 10
-11.32532
 20
-14.25382
 30
0.0
 10
-11.33085
 20
-14.25446
 30
0.0
 10
-11.33659
 20
-14.25446
 30
0.0
 10
-11.33659
 20
-14.25446
 30
0.0
 10
-11.35371
 20
-14.25446
 30
0.0
 10
-11.36728
 20
-14.24966
 30
0.0
 10
-11.3773
 20
-14.24009
 30
0.0
 10
-11.3773
 20
-14.24009
 30
0.0
 10
-11.38732
 20
-14.23052
 30
0.0
 10
-11.39233
 20
-14.21754
 30
0.0
 10
-11.39233
 20
-14.20112
 30
0.0
 10
-11.39233
 20
-14.20112
 30
0.0
 10
-11.39233
 20
-14.18468
 30
0.0
 10
-11.38732
 20
-14.17167
 30
0.0
 10
-11.3773
 20
-14.1621
 30
0.0
 10
-11.3773
 20
-14.1621
 30
0.0
 10
-11.36728
 20
-14.15253
 30
0.0
 10
-11.35371
 20
-14.14773
 30
0.0
 10
-11.33659
 20
-14.14773
 30
0.0
 10
-11.33659
 20
-14.14773
 30
0.0
 10
-11.33085
 20
-14.14773
 30
0.0
 10
-11.32532
 20
-14.14837
 30
0.0
 10
-11.32006
 20
-14.14966
 30
0.0
 10
-11.32006
 20
-14.14966
 30
0.0
 10
-11.31476
 20
-14.15095
 30
0.0
 10
-11.30968
 20
-14.15286
 30
0.0
 10
-11.30482
 20
-14.15538
 30
0.0
 10
-11.30482
 20
-14.15538
 30
0.0
 10
-11.30482
 20
-14.15538
 30
0.0
 10
-11.30482
 20
-14.17666
 30
0.0
 10
-11.30482
 20
-14.17666
 30
0.0
 10
-11.30482
 20
-14.17666
 30
0.0
 10
-11.30973
 20
-14.1733
 30
0.0
 10
-11.31458
 20
-14.17085
 30
0.0
 10
-11.31935
 20
-14.1693
 30
0.0
 10
-11.31935
 20
-14.1693
 30
0.0
 10
-11.32412
 20
-14.16772
 30
0.0
 10
-11.32916
 20
-14.16695
 30
0.0
 10
-11.33445
 20
-14.16695
 30
0.0
 10
-11.33445
 20
-14.16695
 30
0.0
 10
-11.3439
 20
-14.16695
 30
0.0
 10
-11.35136
 20
-14.16998
 30
0.0
 10
-11.35677
 20
-14.17605
 30
0.0
 10
-11.35677
 20
-14.17605
 30
0.0
 10
-11.3622
 20
-14.18212
 30
0.0
 10
-11.36491
 20
-14.19047
 30
0.0
 10
-11.36491
 20
-14.20112
 30
0.0
 10
-11.36491
 20
-14.20112
 30
0.0
 10
-11.36491
 20
-14.21175
 30
0.0
 10
-11.3622
 20
-14.22008
 30
0.0
 10
-11.35677
 20
-14.22614
 30
0.0
 10
-11.35677
 20
-14.22614
 30
0.0
 10
-11.35136
 20
-14.23221
 30
0.0
 10
-11.3439
 20
-14.23524
 30
0.0
 10
-11.33445
 20
-14.23524
 30
0.0
 10
-11.33445
 20
-14.23524
 30
0.0
 10
-11.32916
 20
-14.23524
 30
0.0
 10
-11.32412
 20
-14.23447
 30
0.0
 10
-11.31935
 20
-14.23289
 30
0.0
 10
-11.31935
 20
-14.23289
 30
0.0
 10
-11.31458
 20
-14.23134
 30
0.0
 10
-11.30973
 20
-14.22889
 30
0.0
 10
-11.30482
 20
-14.22553
 30
0.0
 10
-11.30482
 20
-14.22553
 30
0.0
 10
-11.30482
 20
-14.22553
 30
0.0
 10
-11.30482
 20
-14.24682
 30
0.0
 10
-11.30482
 20
-14.24682
 30
0.0
  0
SPLINE
  5
77
330
1F
100
AcDbEntity
  8
Layer 1
 62
   250
100
AcDbSpline
210
0.0
220
0.0
230
1.0
 70
    11
 71
     3
 72
    36
 73
    32
 74
     0
 42
0.0000000001
 43
0.0000000001
 40
0.0
 40
0.0
 40
0.0
 40
0.0
 40
0.125
 40
0.125
 40
0.125
 40
0.125
 40
0.25
 40
0.25
 40
0.25
 40
0.25
 40
0.375
 40
0.375
 40
0.375
 40
0.375
 40
0.5
 40
0.5
 40
0.5
 40
0.5
 40
0.625
 40
0.625
 40
0.625
 40
0.625
 40
0.75
 40
0.75
 40
0.75
 40
0.75
 40
0.875
 40
0.875
 40
0.875
 40
0.875
 40
1.0
 40
1.0
 40
1.0
 40
1.0
 10
-11.22043
 20
-14.23374
 30
0.0
 10
-11.22043
 20
-14.23374
 30
0.0
 10
-11.26192
 20
-14.23374
 30
0.0
 10
-11.26192
 20
-14.23374
 30
0.0
 10
-11.26192
 20
-14.23374
 30
0.0
 10
-11.26192
 20
-14.23374
 30
0.0
 10
-11.26846
 20
-14.25246
 30
0.0
 10
-11.26846
 20
-14.25246
 30
0.0
 10
-11.26846
 20
-14.25246
 30
0.0
 10
-11.26846
 20
-14.25246
 30
0.0
 10
-11.29513
 20
-14.25246
 30
0.0
 10
-11.29513
 20
-14.25246
 30
0.0
 10
-11.29513
 20
-14.25246
 30
0.0
 10
-11.29513
 20
-14.25246
 30
0.0
 10
-11.25703
 20
-14.14959
 30
0.0
 10
-11.25703
 20
-14.14959
 30
0.0
 10
-11.25703
 20
-14.14959
 30
0.0
 10
-11.25703
 20
-14.14959
 30
0.0
 10
-11.2254
 20
-14.14959
 30
0.0
 10
-11.2254
 20
-14.14959
 30
0.0
 10
-11.2254
 20
-14.14959
 30
0.0
 10
-11.2254
 20
-14.14959
 30
0.0
 10
-11.1873
 20
-14.25246
 30
0.0
 10
-11.1873
 20
-14.25246
 30
0.0
 10
-11.1873
 20
-14.25246
 30
0.0
 10
-11.1873
 20
-14.25246
 30
0.0
 10
-11.21397
 20
-14.25246
 30
0.0
 10
-11.21397
 20
-14.25246
 30
0.0
 10
-11.21397
 20
-14.25246
 30
0.0
 10
-11.21397
 20
-14.25246
 30
0.0
 10
-11.22043
 20
-14.23374
 30
0.0
 10
-11.22043
 20
-14.23374
 30
0.0
  0
SPLINE
  5
78
330
1F
100
AcDbEntity
  8
Layer 1
 62
   250
100
AcDbSpline
210
0.0
220
0.0
230
1.0
 70
    11
 71
     3
 72
    16
 73
    12
 74
     0
 42
0.0000000001
 43
0.0000000001
 40
0.0
 40
0.0
 40
0.0
 40
0.0
 40
0.3333333333333333
 40
0.3333333333333333
 40
0.3333333333333333
 40
0.3333333333333333
 40
0.6666666666666666
 40
0.6666666666666666
 40
0.6666666666666666
 40
0.6666666666666666
 40
1.0
 40
1.0
 40
1.0
 40
1.0
 10
-11.25531
 20
-14.21464
 30
0.0
 10
-11.25531
 20
-14.21464
 30
0.0
 10
-11.22711
 20
-14.21464
 30
0.0
 10
-11.22711
 20
-14.21464
 30
0.0
 10
-11.22711
 20
-14.21464
 30
0.0
 10
-11.22711
 20
-14.21464
 30
0.0
 10
-11.24118
 20
-14.17372
 30
0.0
 10
-11.24118
 20
-14.17372
 30
0.0
 10
-11.24118
 20
-14.17372
 30
0.0
 10
-11.24118
 20
-14.17372
 30
0.0
 10
-11.25531
 20
-14.21464
 30
0.0
 10
-11.25531
 20
-14.21464
 30
0.0
  0
SPLINE
  5
79
330
1F
100
AcDbEntity
  8
Layer 1
 62
   250
100
AcDbSpline
210
0.0
220
0.0
230
1.0
 70
    11
 71
     3
 72
    40
 73
    36
 74
     0
 42
0.0000000001
 43
0.0000000001
 40
0.0
 40
0.0
 40
0.0
 40
0.0
 40
0.1111111111111111
 40
0.1111111111111111
 40
0.1111111111111111
 40
0.1111111111111111
 40
0.2222222222222222
 40
0.2222222222222222
 40
0.2222222222222222
 40
0.2222222222222222
 40
0.3333333333333333
 40
0.3333333333333333
 40
0.3333333333333333
 40
0.3333333333333333
 40
0.4444444444444444
 40
0.4444444444444444
 40
0.4444444444444444
 40
0.4444444444444444
 40
0.5555555555555556
 40
0.5555555555555556
 40
0.5555555555555556
 40
0.5555555555555556
 40
0.6666666666666667
 40
0.6666666666666667
 40
0.6666666666666667
 40
0.6666666666666667
 40
0.7777777777777779
 40
0.7777777777777779
 40
0.7777777777777779
 40
0.7777777777777779
 40
0.8888888888888891
 40
0.8888888888888891
 40
0.8888888888888891
 40
0.8888888888888891
 40
1.0
 40
1.0
 40
1.0
 40
1.0
 10
-11.17363
 20
-14.14959
 30
0.0
 10
-11.17363
 20
-14.14959
 30
0.0
 10
-11.12961
 20
-14.14959
 30
0.0
 10
-11.12961
 20
-14.14959
 30
0.0
 10
-11.12961
 20
-14.14959
 30
0.0
 10
-11.11651
 20
-14.14959
 30
0.0
 10
-11.10646
 20
-14.15251
 30
0.0
 10
-11.09945
 20
-14.15832
 30
0.0
 10
-11.09945
 20
-14.15832
 30
0.0
 10
-11.09245
 20
-14.16413
 30
0.0
 10
-11.08894
 20
-14.1724
 30
0.0
 10
-11.08894
 20
-14.18315
 30
0.0
 10
-11.08894
 20
-14.18315
 30
0.0
 10
-11.08894
 20
-14.19392
 30
0.0
 10
-11.09245
 20
-14.20222
 30
0.0
 10
-11.09945
 20
-14.20803
 30
0.0
 10
-11.09945
 20
-14.20803
 30
0.0
 10
-11.10646
 20
-14.21384
 30
0.0
 10
-11.11651
 20
-14.21676
 30
0.0
 10
-11.12961
 20
-14.21676
 30
0.0
 10
-11.12961
 20
-14.21676
 30
0.0
 10
-11.12961
 20
-14.21676
 30
0.0
 10
-11.1471
 20
-14.21676
 30
0.0
 10
-11.1471
 20
-14.21676
 30
0.0
 10
-11.1471
 20
-14.21676
 30
0.0
 10
-11.1471
 20
-14.21676
 30
0.0
 10
-11.1471
 20
-14.25246
 30
0.0
 10
-11.1471
 20
-14.25246
 30
0.0
 10
-11.1471
 20
-14.25246
 30
0.0
 10
-11.1471
 20
-14.25246
 30
0.0
 10
-11.17363
 20
-14.25246
 30
0.0
 10
-11.17363
 20
-14.25246
 30
0.0
 10
-11.17363
 20
-14.25246
 30
0.0
 10
-11.17363
 20
-14.25246
 30
0.0
 10
-11.17363
 20
-14.14959
 30
0.0
 10
-11.17363
 20
-14.14959
 30
0.0
  0
SPLINE
  5
7A
330
1F
100
AcDbEntity
  8
Layer 1
 62
   250
100
AcDbSpline
210
0.0
220
0.0
230
1.0
 70
    11
 71
     3
 72
    32
 73
    28
 74
     0
 42
0.0000000001
 43
0.0000000001
 40
0.0
 40
0.0
 40
0.0
 40
0.0
 40
0.1428571428571428
 40
0.1428571428571428
 40
0.1428571428571428
 40
0.1428571428571428
 40
0.2857142857142857
 40
0.2857142857142857
 40
0.2857142857142857
 40
0.2857142857142857
 40
0.4285714285714285
 40
0.4285714285714285
 40
0.4285714285714285
 40
0.4285714285714285
 40
0.5714285714285714
 40
0.5714285714285714
 40
0.5714285714285714
 40
0.5714285714285714
 40
0.7142857142857142
 40
0.7142857142857142
 40
0.7142857142857142
 40
0.7142857142857142
 40
0.857142857142857
 40
0.857142857142857
 40
0.857142857142857
 40
0.857142857142857
 40
1.0
 40
1.0
 40
1.0
 40
1.0
 10
-11.1471
 20
-14.16881
 30
0.0
 10
-11.1471
 20
-14.16881
 30
0.0
 10
-11.1471
 20
-14.19754
 30
0.0
 10
-11.1471
 20
-14.19754
 30
0.0
 10
-11.1471
 20
-14.19754
 30
0.0
 10
-11.1471
 20
-14.19754
 30
0.0
 10
-11.13243
 20
-14.19754
 30
0.0
 10
-11.13243
 20
-14.19754
 30
0.0
 10
-11.13243
 20
-14.19754
 30
0.0
 10
-11.12728
 20
-14.19754
 30
0.0
 10
-11.1233
 20
-14.1963
 30
0.0
 10
-11.1205
 20
-14.19378
 30
0.0
 10
-11.1205
 20
-14.19378
 30
0.0
 10
-11.1177
 20
-14.19129
 30
0.0
 10
-11.11629
 20
-14.18774
 30
0.0
 10
-11.11629
 20
-14.18315
 30
0.0
 10
-11.11629
 20
-14.18315
 30
0.0
 10
-11.11629
 20
-14.17854
 30
0.0
 10
-11.1177
 20
-14.17501
 30
0.0
 10
-11.1205
 20
-14.17252
 30
0.0
 10
-11.1205
 20
-14.17252
 30
0.0
 10
-11.1233
 20
-14.17005
 30
0.0
 10
-11.12728
 20
-14.16881
 30
0.0
 10
-11.13243
 20
-14.16881
 30
0.0
 10
-11.13243
 20
-14.16881
 30
0.0
 10
-11.13243
 20
-14.16881
 30
0.0
 10
-11.1471
 20
-14.16881
 30
0.0
 10
-11.1471
 20
-14.16881
 30
0.0
  0
SPLINE
  5
7B
330
1F
100
AcDbEntity
  8
Layer 1
 62
   250
100
AcDbSpline
210
0.0
220
0.0
230
1.0
 70
    11
 71
     3
 72
    36
 73
    32
 74
     0
 42
0.0000000001
 43
0.0000000001
 40
0.0
 40
0.0
 40
0.0
 40
0.0
 40
0.125
 40
0.125
 40
0.125
 40
0.125
 40
0.25
 40
0.25
 40
0.25
 40
0.25
 40
0.375
 40
0.375
 40
0.375
 40
0.375
 40
0.5
 40
0.5
 40
0.5
 40
0.5
 40
0.625
 40
0.625
 40
0.625
 40
0.625
 40
0.75
 40
0.75
 40
0.75
 40
0.75
 40
0.875
 40
0.875
 40
0.875
 40
0.875
 40
1.0
 40
1.0
 40
1.0
 40
1.0
 10
-11.0078
 20
-14.23374
 30
0.0
 10
-11.0078
 20
-14.23374
 30
0.0
 10
-11.04929
 20
-14.23374
 30
0.0
 10
-11.04929
 20
-14.23374
 30
0.0
 10
-11.04929
 20
-14.23374
 30
0.0
 10
-11.04929
 20
-14.23374
 30
0.0
 10
-11.05583
 20
-14.25246
 30
0.0
 10
-11.05583
 20
-14.25246
 30
0.0
 10
-11.05583
 20
-14.25246
 30
0.0
 10
-11.05583
 20
-14.25246
 30
0.0
 10
-11.0825
 20
-14.25246
 30
0.0
 10
-11.0825
 20
-14.25246
 30
0.0
 10
-11.0825
 20
-14.25246
 30
0.0
 10
-11.0825
 20
-14.25246
 30
0.0
 10
-11.0444
 20
-14.14959
 30
0.0
 10
-11.0444
 20
-14.14959
 30
0.0
 10
-11.0444
 20
-14.14959
 30
0.0
 10
-11.0444
 20
-14.14959
 30
0.0
 10
-11.01277
 20
-14.14959
 30
0.0
 10
-11.01277
 20
-14.14959
 30
0.0
 10
-11.01277
 20
-14.14959
 30
0.0
 10
-11.01277
 20
-14.14959
 30
0.0
 10
-10.97467
 20
-14.25246
 30
0.0
 10
-10.97467
 20
-14.25246
 30
0.0
 10
-10.97467
 20
-14.25246
 30
0.0
 10
-10.97467
 20
-14.25246
 30
0.0
 10
-11.00134
 20
-14.25246
 30
0.0
 10
-11.00134
 20
-14.25246
 30
0.0
 10
-11.00134
 20
-14.25246
 30
0.0
 10
-11.00134
 20
-14.25246
 30
0.0
 10
-11.0078
 20
-14.23374
 30
0.0
 10
-11.0078
 20
-14.23374
 30
0.0
  0
SPLINE
  5
7C
330
1F
100
AcDbEntity
  8
Layer 1
 62
   250
100
AcDbSpline
210
0.0
220
0.0
230
1.0
 70
    11
 71
     3
 72
    16
 73
    12
 74
     0
 42
0.0000000001
 43
0.0000000001
 40
0.0
 40
0.0
 40
0.0
 40
0.0
 40
0.3333333333333333
 40
0.3333333333333333
 40
0.3333333333333333
 40
0.3333333333333333
 40
0.6666666666666666
 40
0.6666666666666666
 40
0.6666666666666666
 40
0.6666666666666666
 40
1.0
 40
1.0
 40
1.0
 40
1.0
 10
-11.04268
 20
-14.21464
 30
0.0
 10
-11.04268
 20
-14.21464
 30
0.0
 10
-11.01448
 20
-14.21464
 30
0.0
 10
-11.01448
 20
-14.21464
 30
0.0
 10
-11.01448
 20
-14.21464
 30
0.0
 10
-11.01448
 20
-14.21464
 30
0.0
 10
-11.02855
 20
-14.17372
 30
0.0
 10
-11.02855
 20
-14.17372
 30
0.0
 10
-11.02855
 20
-14.17372
 30
0.0
 10
-11.02855
 20
-14.17372
 30
0.0
 10
-11.04268
 20
-14.21464
 30
0.0
 10
-11.04268
 20
-14.21464
 30
0.0
  0
SPLINE
  5
7D
330
1F
100
AcDbEntity
  8
Layer 1
 62
   250
100
AcDbSpline
210
0.0
220
0.0
230
1.0
 70
    11
 71
     3
 72
    76
 73
    72
 74
     0
 42
0.0000000001
 43
0.0000000001
 40
0.0
 40
0.0
 40
0.0
 40
0.0
 40
0.0555555555555556
 40
0.0555555555555556
 40
0.0555555555555556
 40
0.0555555555555556
 40
0.1111111111111111
 40
0.1111111111111111
 40
0.1111111111111111
 40
0.1111111111111111
 40
0.1666666666666667
 40
0.1666666666666667
 40
0.1666666666666667
 40
0.1666666666666667
 40
0.2222222222222222
 40
0.2222222222222222
 40
0.2222222222222222
 40
0.2222222222222222
 40
0.2777777777777778
 40
0.2777777777777778
 40
0.2777777777777778
 40
0.2777777777777778
 40
0.3333333333333334
 40
0.3333333333333334
 40
0.3333333333333334
 40
0.3333333333333334
 40
0.388888888888889
 40
0.388888888888889
 40
0.388888888888889
 40
0.388888888888889
 40
0.4444444444444445
 40
0.4444444444444445
 40
0.4444444444444445
 40
0.4444444444444445
 40
0.5000000000000001
 40
0.5000000000000001
 40
0.5000000000000001
 40
0.5000000000000001
 40
0.5555555555555557
 40
0.5555555555555557
 40
0.5555555555555557
 40
0.5555555555555557
 40
0.6111111111111113
 40
0.6111111111111113
 40
0.6111111111111113
 40
0.6111111111111113
 40
0.6666666666666669
 40
0.6666666666666669
 40
0.6666666666666669
 40
0.6666666666666669
 40
0.7222222222222224
 40
0.7222222222222224
 40
0.7222222222222224
 40
0.7222222222222224
 40
0.777777777777778
 40
0.777777777777778
 40
0.777777777777778
 40
0.777777777777778
 40
0.8333333333333336
 40
0.8333333333333336
 40
0.8333333333333336
 40
0.8333333333333336
 40
0.8888888888888892
 40
0.8888888888888892
 40
0.8888888888888892
 40
0.8888888888888892
 40
0.9444444444444448
 40
0.9444444444444448
 40
0.9444444444444448
 40
0.9444444444444448
 40
1.0
 40
1.0
 40
1.0
 40
1.0
 10
-10.87942
 20
-14.24682
 30
0.0
 10
-10.88428
 20
-14.24933
 30
0.0
 10
-10.88936
 20
-14.25124
 30
0.0
 10
-10.89466
 20
-14.25253
 30
0.0
 10
-10.89466
 20
-14.25253
 30
0.0
 10
-10.89992
 20
-14.25382
 30
0.0
 10
-10.90545
 20
-14.25446
 30
0.0
 10
-10.91119
 20
-14.25446
 30
0.0
 10
-10.91119
 20
-14.25446
 30
0.0
 10
-10.92831
 20
-14.25446
 30
0.0
 10
-10.94188
 20
-14.24966
 30
0.0
 10
-10.9519
 20
-14.24009
 30
0.0
 10
-10.9519
 20
-14.24009
 30
0.0
 10
-10.96192
 20
-14.23052
 30
0.0
 10
-10.96693
 20
-14.21754
 30
0.0
 10
-10.96693
 20
-14.20112
 30
0.0
 10
-10.96693
 20
-14.20112
 30
0.0
 10
-10.96693
 20
-14.18468
 30
0.0
 10
-10.96192
 20
-14.17167
 30
0.0
 10
-10.9519
 20
-14.1621
 30
0.0
 10
-10.9519
 20
-14.1621
 30
0.0
 10
-10.94188
 20
-14.15253
 30
0.0
 10
-10.92831
 20
-14.14773
 30
0.0
 10
-10.91119
 20
-14.14773
 30
0.0
 10
-10.91119
 20
-14.14773
 30
0.0
 10
-10.90545
 20
-14.14773
 30
0.0
 10
-10.89992
 20
-14.14837
 30
0.0
 10
-10.89466
 20
-14.14966
 30
0.0
 10
-10.89466
 20
-14.14966
 30
0.0
 10
-10.88936
 20
-14.15095
 30
0.0
 10
-10.88428
 20
-14.15286
 30
0.0
 10
-10.87942
 20
-14.15538
 30
0.0
 10
-10.87942
 20
-14.15538
 30
0.0
 10
-10.87942
 20
-14.15538
 30
0.0
 10
-10.87942
 20
-14.17666
 30
0.0
 10
-10.87942
 20
-14.17666
 30
0.0
 10
-10.87942
 20
-14.17666
 30
0.0
 10
-10.88433
 20
-14.1733
 30
0.0
 10
-10.88918
 20
-14.17085
 30
0.0
 10
-10.89395
 20
-14.1693
 30
0.0
 10
-10.89395
 20
-14.1693
 30
0.0
 10
-10.89872
 20
-14.16772
 30
0.0
 10
-10.90376
 20
-14.16695
 30
0.0
 10
-10.90905
 20
-14.16695
 30
0.0
 10
-10.90905
 20
-14.16695
 30
0.0
 10
-10.9185
 20
-14.16695
 30
0.0
 10
-10.92596
 20
-14.16998
 30
0.0
 10
-10.93137
 20
-14.17605
 30
0.0
 10
-10.93137
 20
-14.17605
 30
0.0
 10
-10.9368
 20
-14.18212
 30
0.0
 10
-10.93951
 20
-14.19047
 30
0.0
 10
-10.93951
 20
-14.20112
 30
0.0
 10
-10.93951
 20
-14.20112
 30
0.0
 10
-10.93951
 20
-14.21175
 30
0.0
 10
-10.9368
 20
-14.22008
 30
0.0
 10
-10.93137
 20
-14.22614
 30
0.0
 10
-10.93137
 20
-14.22614
 30
0.0
 10
-10.92596
 20
-14.23221
 30
0.0
 10
-10.9185
 20
-14.23524
 30
0.0
 10
-10.90905
 20
-14.23524
 30
0.0
 10
-10.90905
 20
-14.23524
 30
0.0
 10
-10.90376
 20
-14.23524
 30
0.0
 10
-10.89872
 20
-14.23447
 30
0.0
 10
-10.89395
 20
-14.23289
 30
0.0
 10
-10.89395
 20
-14.23289
 30
0.0
 10
-10.88918
 20
-14.23134
 30
0.0
 10
-10.88433
 20
-14.22889
 30
0.0
 10
-10.87942
 20
-14.22553
 30
0.0
 10
-10.87942
 20
-14.22553
 30
0.0
 10
-10.87942
 20
-14.22553
 30
0.0
 10
-10.87942
 20
-14.24682
 30
0.0
 10
-10.87942
 20
-14.24682
 30
0.0
  0
SPLINE
  5
7E
330
1F
100
AcDbEntity
  8
Layer 1
 62
   250
100
AcDbSpline
210
0.0
220
0.0
230
1.0
 70
    11
 71
     3
 72
    20
 73
    16
 74
     0
 42
0.0000000001
 43
0.0000000001
 40
0.0
 40
0.0
 40
0.0
 40
0.0
 40
0.25
 40
0.25
 40
0.25
 40
0.25
 40
0.5
 40
0.5
 40
0.5
 40
0.5
 40
0.75
 40
0.75
 40
0.75
 40
0.75
 40
1.0
 40
1.0
 40
1.0
 40
1.0
 10
-10.85745
 20
-14.14959
 30
0.0
 10
-10.85745
 20
-14.14959
 30
0.0
 10
-10.83092
 20
-14.14959
 30
0.0
 10
-10.83092
 20
-14.14959
 30
0.0
 10
-10.83092
 20
-14.14959
 30
0.0
 10
-10.83092
 20
-14.14959
 30
0.0
 10
-10.83092
 20
-14.25246
 30
0.0
 10
-10.83092
 20
-14.25246
 30
0.0
 10
-10.83092
 20
-14.25246
 30
0.0
 10
-10.83092
 20
-14.25246
 30
0.0
 10
-10.85745
 20
-14.25246
 30
0.0
 10
-10.85745
 20
-14.25246
 30
0.0
 10
-10.85745
 20
-14.25246
 30
0.0
 10
-10.85745
 20
-14.25246
 30
0.0
 10
-10.85745
 20
-14.14959
 30
0.0
 10
-10.85745
 20
-14.14959
 30
0.0
  0
SPLINE
  5
7F
330
1F
100
AcDbEntity
  8
Layer 1
 62
   250
100
AcDbSpline
210
0.0
220
0.0
230
1.0
 70
    11
 71
     3
 72
    36
 73
    32
 74
     0
 42
0.0000000001
 43
0.0000000001
 40
0.0
 40
0.0
 40
0.0
 40
0.0
 40
0.125
 40
0.125
 40
0.125
 40
0.125
 40
0.25
 40
0.25
 40
0.25
 40
0.25
 40
0.375
 40
0.375
 40
0.375
 40
0.375
 40
0.5
 40
0.5
 40
0.5
 40
0.5
 40
0.625
 40
0.625
 40
0.625
 40
0.625
 40
0.75
 40
0.75
 40
0.75
 40
0.75
 40
0.875
 40
0.875
 40
0.875
 40
0.875
 40
1.0
 40
1.0
 40
1.0
 40
1.0
 10
-10.81724
 20
-14.14959
 30
0.0
 10
-10.81724
 20
-14.14959
 30
0.0
 10
-10.72244
 20
-14.14959
 30
0.0
 10
-10.72244
 20
-14.14959
 30
0.0
 10
-10.72244
 20
-14.14959
 30
0.0
 10
-10.72244
 20
-14.14959
 30
0.0
 10
-10.72244
 20
-14.16965
 30
0.0
 10
-10.72244
 20
-14.16965
 30
0.0
 10
-10.72244
 20
-14.16965
 30
0.0
 10
-10.72244
 20
-14.16965
 30
0.0
 10
-10.75654
 20
-14.16965
 30
0.0
 10
-10.75654
 20
-14.16965
 30
0.0
 10
-10.75654
 20
-14.16965
 30
0.0
 10
-10.75654
 20
-14.16965
 30
0.0
 10
-10.75654
 20
-14.25246
 30
0.0
 10
-10.75654
 20
-14.25246
 30
0.0
 10
-10.75654
 20
-14.25246
 30
0.0
 10
-10.75654
 20
-14.25246
 30
0.0
 10
-10.78307
 20
-14.25246
 30
0.0
 10
-10.78307
 20
-14.25246
 30
0.0
 10
-10.78307
 20
-14.25246
 30
0.0
 10
-10.78307
 20
-14.25246
 30
0.0
 10
-10.78307
 20
-14.16965
 30
0.0
 10
-10.78307
 20
-14.16965
 30
0.0
 10
-10.78307
 20
-14.16965
 30
0.0
 10
-10.78307
 20
-14.16965
 30
0.0
 10
-10.81724
 20
-14.16965
 30
0.0
 10
-10.81724
 20
-14.16965
 30
0.0
 10
-10.81724
 20
-14.16965
 30
0.0
 10
-10.81724
 20
-14.16965
 30
0.0
 10
-10.81724
 20
-14.14959
 30
0.0
 10
-10.81724
 20
-14.14959
 30
0.0
  0
SPLINE
  5
80
330
1F
100
AcDbEntity
  8
Layer 1
 62
   250
100
AcDbSpline
210
0.0
220
0.0
230
1.0
 70
    11
 71
     3
 72
    36
 73
    32
 74
     0
 42
0.0000000001
 43
0.0000000001
 40
0.0
 40
0.0
 40
0.0
 40
0.0
 40
0.125
 40
0.125
 40
0.125
 40
0.125
 40
0.25
 40
0.25
 40
0.25
 40
0.25
 40
0.375
 40
0.375
 40
0.375
 40
0.375
 40
0.5
 40
0.5
 40
0.5
 40
0.5
 40
0.625
 40
0.625
 40
0.625
 40
0.625
 40
0.75
 40
0.75
 40
0.75
 40
0.75
 40
0.875
 40
0.875
 40
0.875
 40
0.875
 40
1.0
 40
1.0
 40
1.0
 40
1.0
 10
-10.66171
 20
-14.16695
 30
0.0
 10
-10.6698
 20
-14.16695
 30
0.0
 10
-10.67606
 20
-14.16993
 30
0.0
 10
-10.68053
 20
-14.17591
 30
0.0
 10
-10.68053
 20
-14.17591
 30
0.0
 10
-10.68497
 20
-14.18188
 30
0.0
 10
-10.68721
 20
-14.19028
 30
0.0
 10
-10.68721
 20
-14.20112
 30
0.0
 10
-10.68721
 20
-14.20112
 30
0.0
 10
-10.68721
 20
-14.21194
 30
0.0
 10
-10.68497
 20
-14.22031
 30
0.0
 10
-10.68053
 20
-14.22628
 30
0.0
 10
-10.68053
 20
-14.22628
 30
0.0
 10
-10.67606
 20
-14.23226
 30
0.0
 10
-10.6698
 20
-14.23524
 30
0.0
 10
-10.66171
 20
-14.23524
 30
0.0
 10
-10.66171
 20
-14.23524
 30
0.0
 10
-10.65357
 20
-14.23524
 30
0.0
 10
-10.6473
 20
-14.23226
 30
0.0
 10
-10.64283
 20
-14.22628
 30
0.0
 10
-10.64283
 20
-14.22628
 30
0.0
 10
-10.63838
 20
-14.22031
 30
0.0
 10
-10.63615
 20
-14.21194
 30
0.0
 10
-10.63615
 20
-14.20112
 30
0.0
 10
-10.63615
 20
-14.20112
 30
0.0
 10
-10.63615
 20
-14.19028
 30
0.0
 10
-10.63838
 20
-14.18188
 30
0.0
 10
-10.64283
 20
-14.17591
 30
0.0
 10
-10.64283
 20
-14.17591
 30
0.0
 10
-10.6473
 20
-14.16993
 30
0.0
 10
-10.65357
 20
-14.16695
 30
0.0
 10
-10.66171
 20
-14.16695
 30
0.0
  0
SPLINE
  5
81
330
1F
100
AcDbEntity
  8
Layer 1
 62
   250
100
AcDbSpline
210
0.0
220
0.0
230
1.0
 70
    11
 71
     3
 72
    36
 73
    32
 74
     0
 42
0.0000000001
 43
0.0000000001
 40
0.0
 40
0.0
 40
0.0
 40
0.0
 40
0.125
 40
0.125
 40
0.125
 40
0.125
 40
0.25
 40
0.25
 40
0.25
 40
0.25
 40
0.375
 40
0.375
 40
0.375
 40
0.375
 40
0.5
 40
0.5
 40
0.5
 40
0.5
 40
0.625
 40
0.625
 40
0.625
 40
0.625
 40
0.75
 40
0.75
 40
0.75
 40
0.75
 40
0.875
 40
0.875
 40
0.875
 40
0.875
 40
1.0
 40
1.0
 40
1.0
 40
1.0
 10
-10.66171
 20
-14.14773
 30
0.0
 10
-10.64518
 20
-14.14773
 30
0.0
 10
-10.63222
 20
-14.15246
 30
0.0
 10
-10.62286
 20
-14.16194
 30
0.0
 10
-10.62286
 20
-14.16194
 30
0.0
 10
-10.61348
 20
-14.17139
 30
0.0
 10
-10.6088
 20
-14.18444
 30
0.0
 10
-10.6088
 20
-14.20112
 30
0.0
 10
-10.6088
 20
-14.20112
 30
0.0
 10
-10.6088
 20
-14.21775
 30
0.0
 10
-10.61348
 20
-14.2308
 30
0.0
 10
-10.62286
 20
-14.24025
 30
0.0
 10
-10.62286
 20
-14.24025
 30
0.0
 10
-10.63222
 20
-14.24973
 30
0.0
 10
-10.64518
 20
-14.25446
 30
0.0
 10
-10.66171
 20
-14.25446
 30
0.0
 10
-10.66171
 20
-14.25446
 30
0.0
 10
-10.6782
 20
-14.25446
 30
0.0
 10
-10.69113
 20
-14.24973
 30
0.0
 10
-10.70054
 20
-14.24025
 30
0.0
 10
-10.70054
 20
-14.24025
 30
0.0
 10
-10.70992
 20
-14.2308
 30
0.0
 10
-10.71463
 20
-14.21775
 30
0.0
 10
-10.71463
 20
-14.20112
 30
0.0
 10
-10.71463
 20
-14.20112
 30
0.0
 10
-10.71463
 20
-14.18444
 30
0.0
 10
-10.70992
 20
-14.17139
 30
0.0
 10
-10.70054
 20
-14.16194
 30
0.0
 10
-10.70054
 20
-14.16194
 30
0.0
 10
-10.69113
 20
-14.15246
 30
0.0
 10
-10.6782
 20
-14.14773
 30
0.0
 10
-10.66171
 20
-14.14773
 30
0.0
  0
SPLINE
  5
82
330
1F
100
AcDbEntity
  8
Layer 1
 62
   250
100
AcDbSpline
210
0.0
220
0.0
230
1.0
 70
    11
 71
     3
 72
    32
 73
    28
 74
     0
 42
0.0000000001
 43
0.0000000001
 40
0.0
 40
0.0
 40
0.0
 40
0.0
 40
0.1428571428571428
 40
0.1428571428571428
 40
0.1428571428571428
 40
0.1428571428571428
 40
0.2857142857142857
 40
0.2857142857142857
 40
0.2857142857142857
 40
0.2857142857142857
 40
0.4285714285714285
 40
0.4285714285714285
 40
0.4285714285714285
 40
0.4285714285714285
 40
0.5714285714285714
 40
0.5714285714285714
 40
0.5714285714285714
 40
0.5714285714285714
 40
0.7142857142857142
 40
0.7142857142857142
 40
0.7142857142857142
 40
0.7142857142857142
 40
0.857142857142857
 40
0.857142857142857
 40
0.857142857142857
 40
0.857142857142857
 40
1.0
 40
1.0
 40
1.0
 40
1.0
 10
-10.55103
 20
-14.19522
 30
0.0
 10
-10.54548
 20
-14.19522
 30
0.0
 10
-10.54148
 20
-14.19418
 30
0.0
 10
-10.53908
 20
-14.19211
 30
0.0
 10
-10.53908
 20
-14.19211
 30
0.0
 10
-10.53666
 20
-14.19004
 30
0.0
 10
-10.53546
 20
-14.18663
 30
0.0
 10
-10.53546
 20
-14.1819
 30
0.0
 10
-10.53546
 20
-14.1819
 30
0.0
 10
-10.53546
 20
-14.17722
 30
0.0
 10
-10.53666
 20
-14.17386
 30
0.0
 10
-10.53908
 20
-14.17184
 30
0.0
 10
-10.53908
 20
-14.17184
 30
0.0
 10
-10.54148
 20
-14.16982
 30
0.0
 10
-10.54548
 20
-14.16881
 30
0.0
 10
-10.55103
 20
-14.16881
 30
0.0
 10
-10.55103
 20
-14.16881
 30
0.0
 10
-10.55103
 20
-14.16881
 30
0.0
 10
-10.5622
 20
-14.16881
 30
0.0
 10
-10.5622
 20
-14.16881
 30
0.0
 10
-10.5622
 20
-14.16881
 30
0.0
 10
-10.5622
 20
-14.16881
 30
0.0
 10
-10.5622
 20
-14.19522
 30
0.0
 10
-10.5622
 20
-14.19522
 30
0.0
 10
-10.5622
 20
-14.19522
 30
0.0
 10
-10.5622
 20
-14.19522
 30
0.0
 10
-10.55103
 20
-14.19522
 30
0.0
 10
-10.55103
 20
-14.19522
 30
0.0
  0
SPLINE
  5
83
330
1F
100
AcDbEntity
  8
Layer 1
 62
   250
100
AcDbSpline
210
0.0
220
0.0
230
1.0
 70
    11
 71
     3
 72
    68
 73
    64
 74
     0
 42
0.0000000001
 43
0.0000000001
 40
0.0
 40
0.0
 40
0.0
 40
0.0
 40
0.0625
 40
0.0625
 40
0.0625
 40
0.0625
 40
0.125
 40
0.125
 40
0.125
 40
0.125
 40
0.1875
 40
0.1875
 40
0.1875
 40
0.1875
 40
0.25
 40
0.25
 40
0.25
 40
0.25
 40
0.3125
 40
0.3125
 40
0.3125
 40
0.3125
 40
0.375
 40
0.375
 40
0.375
 40
0.375
 40
0.4375
 40
0.4375
 40
0.4375
 40
0.4375
 40
0.5
 40
0.5
 40
0.5
 40
0.5
 40
0.5625
 40
0.5625
 40
0.5625
 40
0.5625
 40
0.625
 40
0.625
 40
0.625
 40
0.625
 40
0.6875
 40
0.6875
 40
0.6875
 40
0.6875
 40
0.75
 40
0.75
 40
0.75
 40
0.75
 40
0.8125
 40
0.8125
 40
0.8125
 40
0.8125
 40
0.875
 40
0.875
 40
0.875
 40
0.875
 40
0.9375
 40
0.9375
 40
0.9375
 40
0.9375
 40
1.0
 40
1.0
 40
1.0
 40
1.0
 10
-10.5622
 20
-14.21354
 30
0.0
 10
-10.5622
 20
-14.21354
 30
0.0
 10
-10.5622
 20
-14.25246
 30
0.0
 10
-10.5622
 20
-14.25246
 30
0.0
 10
-10.5622
 20
-14.25246
 30
0.0
 10
-10.5622
 20
-14.25246
 30
0.0
 10
-10.58873
 20
-14.25246
 30
0.0
 10
-10.58873
 20
-14.25246
 30
0.0
 10
-10.58873
 20
-14.25246
 30
0.0
 10
-10.58873
 20
-14.25246
 30
0.0
 10
-10.58873
 20
-14.14959
 30
0.0
 10
-10.58873
 20
-14.14959
 30
0.0
 10
-10.58873
 20
-14.14959
 30
0.0
 10
-10.58873
 20
-14.14959
 30
0.0
 10
-10.54821
 20
-14.14959
 30
0.0
 10
-10.54821
 20
-14.14959
 30
0.0
 10
-10.54821
 20
-14.14959
 30
0.0
 10
-10.53466
 20
-14.14959
 30
0.0
 10
-10.52471
 20
-14.15187
 30
0.0
 10
-10.51841
 20
-14.15641
 30
0.0
 10
-10.51841
 20
-14.15641
 30
0.0
 10
-10.51209
 20
-14.16095
 30
0.0
 10
-10.50893
 20
-14.16815
 30
0.0
 10
-10.50893
 20
-14.17798
 30
0.0
 10
-10.50893
 20
-14.17798
 30
0.0
 10
-10.50893
 20
-14.18477
 30
0.0
 10
-10.51058
 20
-14.19037
 30
0.0
 10
-10.51385
 20
-14.19472
 30
0.0
 10
-10.51385
 20
-14.19472
 30
0.0
 10
-10.51714
 20
-14.1991
 30
0.0
 10
-10.5221
 20
-14.20232
 30
0.0
 10
-10.52871
 20
-14.20437
 30
0.0
 10
-10.52871
 20
-14.20437
 30
0.0
 10
-10.52509
 20
-14.20521
 30
0.0
 10
-10.52182
 20
-14.20707
 30
0.0
 10
-10.51895
 20
-14.20999
 30
0.0
 10
-10.51895
 20
-14.20999
 30
0.0
 10
-10.51608
 20
-14.2129
 30
0.0
 10
-10.51319
 20
-14.21732
 30
0.0
 10
-10.51025
 20
-14.22325
 30
0.0
 10
-10.51025
 20
-14.22325
 30
0.0
 10
-10.51025
 20
-14.22325
 30
0.0
 10
-10.49583
 20
-14.25246
 30
0.0
 10
-10.49583
 20
-14.25246
 30
0.0
 10
-10.49583
 20
-14.25246
 30
0.0
 10
-10.49583
 20
-14.25246
 30
0.0
 10
-10.5241
 20
-14.25246
 30
0.0
 10
-10.5241
 20
-14.25246
 30
0.0
 10
-10.5241
 20
-14.25246
 30
0.0
 10
-10.5241
 20
-14.25246
 30
0.0
 10
-10.53664
 20
-14.2269
 30
0.0
 10
-10.53664
 20
-14.2269
 30
0.0
 10
-10.53664
 20
-14.2269
 30
0.0
 10
-10.53915
 20
-14.22177
 30
0.0
 10
-10.54172
 20
-14.21824
 30
0.0
 10
-10.54433
 20
-14.21636
 30
0.0
 10
-10.54433
 20
-14.21636
 30
0.0
 10
-10.54692
 20
-14.21448
 30
0.0
 10
-10.55037
 20
-14.21354
 30
0.0
 10
-10.5547
 20
-14.21354
 30
0.0
 10
-10.5547
 20
-14.21354
 30
0.0
 10
-10.5547
 20
-14.21354
 30
0.0
 10
-10.5622
 20
-14.21354
 30
0.0
 10
-10.5622
 20
-14.21354
 30
0.0
  0
SPLINE
  5
84
330
1F
100
AcDbEntity
  8
Layer 1
 62
   250
100
AcDbSpline
210
0.0
220
0.0
230
1.0
 70
    11
 71
     3
 72
    44
 73
    40
 74
     0
 42
0.0000000001
 43
0.0000000001
 40
0.0
 40
0.0
 40
0.0
 40
0.0
 40
0.1
 40
0.1
 40
0.1
 40
0.1
 40
0.2
 40
0.2
 40
0.2
 40
0.2
 40
0.3
 40
0.3
 40
0.3
 40
0.3
 40
0.4
 40
0.4
 40
0.4
 40
0.4
 40
0.5
 40
0.5
 40
0.5
 40
0.5
 40
0.6
 40
0.6
 40
0.6
 40
0.6
 40
0.7
 40
0.7
 40
0.7
 40
0.7
 40
0.7999999999999999
 40
0.7999999999999999
 40
0.7999999999999999
 40
0.7999999999999999
 40
0.8999999999999999
 40
0.8999999999999999
 40
0.8999999999999999
 40
0.8999999999999999
 40
1.0
 40
1.0
 40
1.0
 40
1.0
 10
-10.39071
 20
-14.27106
 30
0.0
 10
-10.39071
 20
-14.27106
 30
0.0
 10
-10.41117
 20
-14.27106
 30
0.0
 10
-10.41117
 20
-14.27106
 30
0.0
 10
-10.41117
 20
-14.27106
 30
0.0
 10
-10.4182
 20
-14.25973
 30
0.0
 10
-10.4234
 20
-14.24893
 30
0.0
 10
-10.42674
 20
-14.2387
 30
0.0
 10
-10.42674
 20
-14.2387
 30
0.0
 10
-10.4301
 20
-14.22849
 30
0.0
 10
-10.43177
 20
-14.21836
 30
0.0
 10
-10.43177
 20
-14.20829
 30
0.0
 10
-10.43177
 20
-14.20829
 30
0.0
 10
-10.43177
 20
-14.19823
 30
0.0
 10
-10.43008
 20
-14.18804
 30
0.0
 10
-10.42672
 20
-14.17774
 30
0.0
 10
-10.42672
 20
-14.17774
 30
0.0
 10
-10.42333
 20
-14.16742
 30
0.0
 10
-10.41816
 20
-14.15665
 30
0.0
 10
-10.41117
 20
-14.14538
 30
0.0
 10
-10.41117
 20
-14.14538
 30
0.0
 10
-10.41117
 20
-14.14538
 30
0.0
 10
-10.39071
 20
-14.14538
 30
0.0
 10
-10.39071
 20
-14.14538
 30
0.0
 10
-10.39071
 20
-14.14538
 30
0.0
 10
-10.39659
 20
-14.15627
 30
0.0
 10
-10.40099
 20
-14.16692
 30
0.0
 10
-10.40393
 20
-14.17732
 30
0.0
 10
-10.40393
 20
-14.17732
 30
0.0
 10
-10.40687
 20
-14.18771
 30
0.0
 10
-10.40835
 20
-14.19799
 30
0.0
 10
-10.40835
 20
-14.20815
 30
0.0
 10
-10.40835
 20
-14.20815
 30
0.0
 10
-10.40835
 20
-14.21831
 30
0.0
 10
-10.40689
 20
-14.22859
 30
0.0
 10
-10.40398
 20
-14.23903
 30
0.0
 10
-10.40398
 20
-14.23903
 30
0.0
 10
-10.40106
 20
-14.24945
 30
0.0
 10
-10.39664
 20
-14.26013
 30
0.0
 10
-10.39071
 20
-14.27106
 30
0.0
  0
SPLINE
  5
85
330
1F
100
AcDbEntity
  8
Layer 1
 62
   250
100
AcDbSpline
210
0.0
220
0.0
230
1.0
 70
    11
 71
     3
 72
    76
 73
    72
 74
     0
 42
0.0000000001
 43
0.0000000001
 40
0.0
 40
0.0
 40
0.0
 40
0.0
 40
0.0555555555555556
 40
0.0555555555555556
 40
0.0555555555555556
 40
0.0555555555555556
 40
0.1111111111111111
 40
0.1111111111111111
 40
0.1111111111111111
 40
0.1111111111111111
 40
0.1666666666666667
 40
0.1666666666666667
 40
0.1666666666666667
 40
0.1666666666666667
 40
0.2222222222222222
 40
0.2222222222222222
 40
0.2222222222222222
 40
0.2222222222222222
 40
0.2777777777777778
 40
0.2777777777777778
 40
0.2777777777777778
 40
0.2777777777777778
 40
0.3333333333333334
 40
0.3333333333333334
 40
0.3333333333333334
 40
0.3333333333333334
 40
0.388888888888889
 40
0.388888888888889
 40
0.388888888888889
 40
0.388888888888889
 40
0.4444444444444445
 40
0.4444444444444445
 40
0.4444444444444445
 40
0.4444444444444445
 40
0.5000000000000001
 40
0.5000000000000001
 40
0.5000000000000001
 40
0.5000000000000001
 40
0.5555555555555557
 40
0.5555555555555557
 40
0.5555555555555557
 40
0.5555555555555557
 40
0.6111111111111113
 40
0.6111111111111113
 40
0.6111111111111113
 40
0.6111111111111113
 40
0.6666666666666669
 40
0.6666666666666669
 40
0.6666666666666669
 40
0.6666666666666669
 40
0.7222222222222224
 40
0.7222222222222224
 40
0.7222222222222224
 40
0.7222222222222224
 40
0.777777777777778
 40
0.777777777777778
 40
0.777777777777778
 40
0.777777777777778
 40
0.8333333333333336
 40
0.8333333333333336
 40
0.8333333333333336
 40
0.8333333333333336
 40
0.8888888888888892
 40
0.8888888888888892
 40
0.8888888888888892
 40
0.8888888888888892
 40
0.9444444444444448
 40
0.9444444444444448
 40
0.9444444444444448
 40
0.9444444444444448
 40
1.0
 40
1.0
 40
1.0
 40
1.0
 10
-10.28488
 20
-14.24682
 30
0.0
 10
-10.28974
 20
-14.24933
 30
0.0
 10
-10.29482
 20
-14.25124
 30
0.0
 10
-10.30012
 20
-14.25253
 30
0.0
 10
-10.30012
 20
-14.25253
 30
0.0
 10
-10.30538
 20
-14.25382
 30
0.0
 10
-10.31091
 20
-14.25446
 30
0.0
 10
-10.31665
 20
-14.25446
 30
0.0
 10
-10.31665
 20
-14.25446
 30
0.0
 10
-10.33377
 20
-14.25446
 30
0.0
 10
-10.34734
 20
-14.24966
 30
0.0
 10
-10.35736
 20
-14.24009
 30
0.0
 10
-10.35736
 20
-14.24009
 30
0.0
 10
-10.36738
 20
-14.23052
 30
0.0
 10
-10.37239
 20
-14.21754
 30
0.0
 10
-10.37239
 20
-14.20112
 30
0.0
 10
-10.37239
 20
-14.20112
 30
0.0
 10
-10.37239
 20
-14.18468
 30
0.0
 10
-10.36738
 20
-14.17167
 30
0.0
 10
-10.35736
 20
-14.1621
 30
0.0
 10
-10.35736
 20
-14.1621
 30
0.0
 10
-10.34734
 20
-14.15253
 30
0.0
 10
-10.33377
 20
-14.14773
 30
0.0
 10
-10.31665
 20
-14.14773
 30
0.0
 10
-10.31665
 20
-14.14773
 30
0.0
 10
-10.31091
 20
-14.14773
 30
0.0
 10
-10.30538
 20
-14.14837
 30
0.0
 10
-10.30012
 20
-14.14966
 30
0.0
 10
-10.30012
 20
-14.14966
 30
0.0
 10
-10.29482
 20
-14.15095
 30
0.0
 10
-10.28974
 20
-14.15286
 30
0.0
 10
-10.28488
 20
-14.15538
 30
0.0
 10
-10.28488
 20
-14.15538
 30
0.0
 10
-10.28488
 20
-14.15538
 30
0.0
 10
-10.28488
 20
-14.17666
 30
0.0
 10
-10.28488
 20
-14.17666
 30
0.0
 10
-10.28488
 20
-14.17666
 30
0.0
 10
-10.28979
 20
-14.1733
 30
0.0
 10
-10.29464
 20
-14.17085
 30
0.0
 10
-10.29941
 20
-14.1693
 30
0.0
 10
-10.29941
 20
-14.1693
 30
0.0
 10
-10.30418
 20
-14.16772
 30
0.0
 10
-10.30922
 20
-14.16695
 30
0.0
 10
-10.31451
 20
-14.16695
 30
0.0
 10
-10.31451
 20
-14.16695
 30
0.0
 10
-10.32396
 20
-14.16695
 30
0.0
 10
-10.33142
 20
-14.16998
 30
0.0
 10
-10.33683
 20
-14.17605
 30
0.0
 10
-10.33683
 20
-14.17605
 30
0.0
 10
-10.34226
 20
-14.18212
 30
0.0
 10
-10.34497
 20
-14.19047
 30
0.0
 10
-10.34497
 20
-14.20112
 30
0.0
 10
-10.34497
 20
-14.20112
 30
0.0
 10
-10.34497
 20
-14.21175
 30
0.0
 10
-10.34226
 20
-14.22008
 30
0.0
 10
-10.33683
 20
-14.22614
 30
0.0
 10
-10.33683
 20
-14.22614
 30
0.0
 10
-10.33142
 20
-14.23221
 30
0.0
 10
-10.32396
 20
-14.23524
 30
0.0
 10
-10.31451
 20
-14.23524
 30
0.0
 10
-10.31451
 20
-14.23524
 30
0.0
 10
-10.30922
 20
-14.23524
 30
0.0
 10
-10.30418
 20
-14.23447
 30
0.0
 10
-10.29941
 20
-14.23289
 30
0.0
 10
-10.29941
 20
-14.23289
 30
0.0
 10
-10.29464
 20
-14.23134
 30
0.0
 10
-10.28979
 20
-14.22889
 30
0.0
 10
-10.28488
 20
-14.22553
 30
0.0
 10
-10.28488
 20
-14.22553
 30
0.0
 10
-10.28488
 20
-14.22553
 30
0.0
 10
-10.28488
 20
-14.24682
 30
0.0
 10
-10.28488
 20
-14.24682
 30
0.0
  0
SPLINE
  5
86
330
1F
100
AcDbEntity
  8
Layer 1
 62
   250
100
AcDbSpline
210
0.0
220
0.0
230
1.0
 70
    11
 71
     3
 72
    52
 73
    48
 74
     0
 42
0.0000000001
 43
0.0000000001
 40
0.0
 40
0.0
 40
0.0
 40
0.0
 40
0.0833333333333333
 40
0.0833333333333333
 40
0.0833333333333333
 40
0.0833333333333333
 40
0.1666666666666667
 40
0.1666666666666667
 40
0.1666666666666667
 40
0.1666666666666667
 40
0.25
 40
0.25
 40
0.25
 40
0.25
 40
0.3333333333333333
 40
0.3333333333333333
 40
0.3333333333333333
 40
0.3333333333333333
 40
0.4166666666666666
 40
0.4166666666666666
 40
0.4166666666666666
 40
0.4166666666666666
 40
0.4999999999999999
 40
0.4999999999999999
 40
0.4999999999999999
 40
0.4999999999999999
 40
0.5833333333333333
 40
0.5833333333333333
 40
0.5833333333333333
 40
0.5833333333333333
 40
0.6666666666666666
 40
0.6666666666666666
 40
0.6666666666666666
 40
0.6666666666666666
 40
0.75
 40
0.75
 40
0.75
 40
0.75
 40
0.8333333333333334
 40
0.8333333333333334
 40
0.8333333333333334
 40
0.8333333333333334
 40
0.9166666666666667
 40
0.9166666666666667
 40
0.9166666666666667
 40
0.9166666666666667
 40
1.0
 40
1.0
 40
1.0
 40
1.0
 10
-10.26291
 20
-14.14959
 30
0.0
 10
-10.26291
 20
-14.14959
 30
0.0
 10
-10.19132
 20
-14.14959
 30
0.0
 10
-10.19132
 20
-14.14959
 30
0.0
 10
-10.19132
 20
-14.14959
 30
0.0
 10
-10.19132
 20
-14.14959
 30
0.0
 10
-10.19132
 20
-14.16965
 30
0.0
 10
-10.19132
 20
-14.16965
 30
0.0
 10
-10.19132
 20
-14.16965
 30
0.0
 10
-10.19132
 20
-14.16965
 30
0.0
 10
-10.23638
 20
-14.16965
 30
0.0
 10
-10.23638
 20
-14.16965
 30
0.0
 10
-10.23638
 20
-14.16965
 30
0.0
 10
-10.23638
 20
-14.16965
 30
0.0
 10
-10.23638
 20
-14.1888
 30
0.0
 10
-10.23638
 20
-14.1888
 30
0.0
 10
-10.23638
 20
-14.1888
 30
0.0
 10
-10.23638
 20
-14.1888
 30
0.0
 10
-10.19403
 20
-14.1888
 30
0.0
 10
-10.19403
 20
-14.1888
 30
0.0
 10
-10.19403
 20
-14.1888
 30
0.0
 10
-10.19403
 20
-14.1888
 30
0.0
 10
-10.19403
 20
-14.20886
 30
0.0
 10
-10.19403
 20
-14.20886
 30
0.0
 10
-10.19403
 20
-14.20886
 30
0.0
 10
-10.19403
 20
-14.20886
 30
0.0
 10
-10.23638
 20
-14.20886
 30
0.0
 10
-10.23638
 20
-14.20886
 30
0.0
 10
-10.23638
 20
-14.20886
 30
0.0
 10
-10.23638
 20
-14.20886
 30
0.0
 10
-10.23638
 20
-14.2324
 30
0.0
 10
-10.23638
 20
-14.2324
 30
0.0
 10
-10.23638
 20
-14.2324
 30
0.0
 10
-10.23638
 20
-14.2324
 30
0.0
 10
-10.18982
 20
-14.2324
 30
0.0
 10
-10.18982
 20
-14.2324
 30
0.0
 10
-10.18982
 20
-14.2324
 30
0.0
 10
-10.18982
 20
-14.2324
 30
0.0
 10
-10.18982
 20
-14.25246
 30
0.0
 10
-10.18982
 20
-14.25246
 30
0.0
 10
-10.18982
 20
-14.25246
 30
0.0
 10
-10.18982
 20
-14.25246
 30
0.0
 10
-10.26291
 20
-14.25246
 30
0.0
 10
-10.26291
 20
-14.25246
 30
0.0
 10
-10.26291
 20
-14.25246
 30
0.0
 10
-10.26291
 20
-14.25246
 30
0.0
 10
-10.26291
 20
-14.14959
 30
0.0
 10
-10.26291
 20
-14.14959
 30
0.0
  0
SPLINE
  5
87
330
1F
100
AcDbEntity
  8
Layer 1
 62
   250
100
AcDbSpline
210
0.0
220
0.0
230
1.0
 70
    11
 71
     3
 72
    32
 73
    28
 74
     0
 42
0.0000000001
 43
0.0000000001
 40
0.0
 40
0.0
 40
0.0
 40
0.0
 40
0.1428571428571428
 40
0.1428571428571428
 40
0.1428571428571428
 40
0.1428571428571428
 40
0.2857142857142857
 40
0.2857142857142857
 40
0.2857142857142857
 40
0.2857142857142857
 40
0.4285714285714285
 40
0.4285714285714285
 40
0.4285714285714285
 40
0.4285714285714285
 40
0.5714285714285714
 40
0.5714285714285714
 40
0.5714285714285714
 40
0.5714285714285714
 40
0.7142857142857142
 40
0.7142857142857142
 40
0.7142857142857142
 40
0.7142857142857142
 40
0.857142857142857
 40
0.857142857142857
 40
0.857142857142857
 40
0.857142857142857
 40
1.0
 40
1.0
 40
1.0
 40
1.0
 10
-10.12881
 20
-14.19522
 30
0.0
 10
-10.12326
 20
-14.19522
 30
0.0
 10
-10.11926
 20
-14.19418
 30
0.0
 10
-10.11686
 20
-14.19211
 30
0.0
 10
-10.11686
 20
-14.19211
 30
0.0
 10
-10.11444
 20
-14.19004
 30
0.0
 10
-10.11324
 20
-14.18663
 30
0.0
 10
-10.11324
 20
-14.1819
 30
0.0
 10
-10.11324
 20
-14.1819
 30
0.0
 10
-10.11324
 20
-14.17722
 30
0.0
 10
-10.11444
 20
-14.17386
 30
0.0
 10
-10.11686
 20
-14.17184
 30
0.0
 10
-10.11686
 20
-14.17184
 30
0.0
 10
-10.11926
 20
-14.16982
 30
0.0
 10
-10.12326
 20
-14.16881
 30
0.0
 10
-10.12881
 20
-14.16881
 30
0.0
 10
-10.12881
 20
-14.16881
 30
0.0
 10
-10.12881
 20
-14.16881
 30
0.0
 10
-10.13998
 20
-14.16881
 30
0.0
 10
-10.13998
 20
-14.16881
 30
0.0
 10
-10.13998
 20
-14.16881
 30
0.0
 10
-10.13998
 20
-14.16881
 30
0.0
 10
-10.13998
 20
-14.19522
 30
0.0
 10
-10.13998
 20
-14.19522
 30
0.0
 10
-10.13998
 20
-14.19522
 30
0.0
 10
-10.13998
 20
-14.19522
 30
0.0
 10
-10.12881
 20
-14.19522
 30
0.0
 10
-10.12881
 20
-14.19522
 30
0.0
  0
SPLINE
  5
88
330
1F
100
AcDbEntity
  8
Layer 1
 62
   250
100
AcDbSpline
210
0.0
220
0.0
230
1.0
 70
    11
 71
     3
 72
    68
 73
    64
 74
     0
 42
0.0000000001
 43
0.0000000001
 40
0.0
 40
0.0
 40
0.0
 40
0.0
 40
0.0625
 40
0.0625
 40
0.0625
 40
0.0625
 40
0.125
 40
0.125
 40
0.125
 40
0.125
 40
0.1875
 40
0.1875
 40
0.1875
 40
0.1875
 40
0.25
 40
0.25
 40
0.25
 40
0.25
 40
0.3125
 40
0.3125
 40
0.3125
 40
0.3125
 40
0.375
 40
0.375
 40
0.375
 40
0.375
 40
0.4375
 40
0.4375
 40
0.4375
 40
0.4375
 40
0.5
 40
0.5
 40
0.5
 40
0.5
 40
0.5625
 40
0.5625
 40
0.5625
 40
0.5625
 40
0.625
 40
0.625
 40
0.625
 40
0.625
 40
0.6875
 40
0.6875
 40
0.6875
 40
0.6875
 40
0.75
 40
0.75
 40
0.75
 40
0.75
 40
0.8125
 40
0.8125
 40
0.8125
 40
0.8125
 40
0.875
 40
0.875
 40
0.875
 40
0.875
 40
0.9375
 40
0.9375
 40
0.9375
 40
0.9375
 40
1.0
 40
1.0
 40
1.0
 40
1.0
 10
-10.13998
 20
-14.21354
 30
0.0
 10
-10.13998
 20
-14.21354
 30
0.0
 10
-10.13998
 20
-14.25246
 30
0.0
 10
-10.13998
 20
-14.25246
 30
0.0
 10
-10.13998
 20
-14.25246
 30
0.0
 10
-10.13998
 20
-14.25246
 30
0.0
 10
-10.16651
 20
-14.25246
 30
0.0
 10
-10.16651
 20
-14.25246
 30
0.0
 10
-10.16651
 20
-14.25246
 30
0.0
 10
-10.16651
 20
-14.25246
 30
0.0
 10
-10.16651
 20
-14.14959
 30
0.0
 10
-10.16651
 20
-14.14959
 30
0.0
 10
-10.16651
 20
-14.14959
 30
0.0
 10
-10.16651
 20
-14.14959
 30
0.0
 10
-10.12599
 20
-14.14959
 30
0.0
 10
-10.12599
 20
-14.14959
 30
0.0
 10
-10.12599
 20
-14.14959
 30
0.0
 10
-10.11244
 20
-14.14959
 30
0.0
 10
-10.10249
 20
-14.15187
 30
0.0
 10
-10.09619
 20
-14.15641
 30
0.0
 10
-10.09619
 20
-14.15641
 30
0.0
 10
-10.08987
 20
-14.16095
 30
0.0
 10
-10.08671
 20
-14.16815
 30
0.0
 10
-10.08671
 20
-14.17798
 30
0.0
 10
-10.08671
 20
-14.17798
 30
0.0
 10
-10.08671
 20
-14.18477
 30
0.0
 10
-10.08836
 20
-14.19037
 30
0.0
 10
-10.09163
 20
-14.19472
 30
0.0
 10
-10.09163
 20
-14.19472
 30
0.0
 10
-10.09492
 20
-14.1991
 30
0.0
 10
-10.09988
 20
-14.20232
 30
0.0
 10
-10.10649
 20
-14.20437
 30
0.0
 10
-10.10649
 20
-14.20437
 30
0.0
 10
-10.10287
 20
-14.20521
 30
0.0
 10
-10.0996
 20
-14.20707
 30
0.0
 10
-10.09673
 20
-14.20999
 30
0.0
 10
-10.09673
 20
-14.20999
 30
0.0
 10
-10.09386
 20
-14.2129
 30
0.0
 10
-10.09097
 20
-14.21732
 30
0.0
 10
-10.08803
 20
-14.22325
 30
0.0
 10
-10.08803
 20
-14.22325
 30
0.0
 10
-10.08803
 20
-14.22325
 30
0.0
 10
-10.07361
 20
-14.25246
 30
0.0
 10
-10.07361
 20
-14.25246
 30
0.0
 10
-10.07361
 20
-14.25246
 30
0.0
 10
-10.07361
 20
-14.25246
 30
0.0
 10
-10.10188
 20
-14.25246
 30
0.0
 10
-10.10188
 20
-14.25246
 30
0.0
 10
-10.10188
 20
-14.25246
 30
0.0
 10
-10.10188
 20
-14.25246
 30
0.0
 10
-10.11442
 20
-14.2269
 30
0.0
 10
-10.11442
 20
-14.2269
 30
0.0
 10
-10.11442
 20
-14.2269
 30
0.0
 10
-10.11693
 20
-14.22177
 30
0.0
 10
-10.1195
 20
-14.21824
 30
0.0
 10
-10.12211
 20
-14.21636
 30
0.0
 10
-10.12211
 20
-14.21636
 30
0.0
 10
-10.1247
 20
-14.21448
 30
0.0
 10
-10.12815
 20
-14.21354
 30
0.0
 10
-10.13248
 20
-14.21354
 30
0.0
 10
-10.13248
 20
-14.21354
 30
0.0
 10
-10.13248
 20
-14.21354
 30
0.0
 10
-10.13998
 20
-14.21354
 30
0.0
 10
-10.13998
 20
-14.21354
 30
0.0
  0
SPLINE
  5
89
330
1F
100
AcDbEntity
  8
Layer 1
 62
   250
100
AcDbSpline
210
0.0
220
0.0
230
1.0
 70
    11
 71
     3
 72
    36
 73
    32
 74
     0
 42
0.0000000001
 43
0.0000000001
 40
0.0
 40
0.0
 40
0.0
 40
0.0
 40
0.125
 40
0.125
 40
0.125
 40
0.125
 40
0.25
 40
0.25
 40
0.25
 40
0.25
 40
0.375
 40
0.375
 40
0.375
 40
0.375
 40
0.5
 40
0.5
 40
0.5
 40
0.5
 40
0.625
 40
0.625
 40
0.625
 40
0.625
 40
0.75
 40
0.75
 40
0.75
 40
0.75
 40
0.875
 40
0.875
 40
0.875
 40
0.875
 40
1.0
 40
1.0
 40
1.0
 40
1.0
 10
-9.99544
 20
-14.23374
 30
0.0
 10
-9.99544
 20
-14.23374
 30
0.0
 10
-10.03693
 20
-14.23374
 30
0.0
 10
-10.03693
 20
-14.23374
 30
0.0
 10
-10.03693
 20
-14.23374
 30
0.0
 10
-10.03693
 20
-14.23374
 30
0.0
 10
-10.04347
 20
-14.25246
 30
0.0
 10
-10.04347
 20
-14.25246
 30
0.0
 10
-10.04347
 20
-14.25246
 30
0.0
 10
-10.04347
 20
-14.25246
 30
0.0
 10
-10.07014
 20
-14.25246
 30
0.0
 10
-10.07014
 20
-14.25246
 30
0.0
 10
-10.07014
 20
-14.25246
 30
0.0
 10
-10.07014
 20
-14.25246
 30
0.0
 10
-10.03204
 20
-14.14959
 30
0.0
 10
-10.03204
 20
-14.14959
 30
0.0
 10
-10.03204
 20
-14.14959
 30
0.0
 10
-10.03204
 20
-14.14959
 30
0.0
 10
-10.00041
 20
-14.14959
 30
0.0
 10
-10.00041
 20
-14.14959
 30
0.0
 10
-10.00041
 20
-14.14959
 30
0.0
 10
-10.00041
 20
-14.14959
 30
0.0
 10
-9.96231
 20
-14.25246
 30
0.0
 10
-9.96231
 20
-14.25246
 30
0.0
 10
-9.96231
 20
-14.25246
 30
0.0
 10
-9.96231
 20
-14.25246
 30
0.0
 10
-9.98898
 20
-14.25246
 30
0.0
 10
-9.98898
 20
-14.25246
 30
0.0
 10
-9.98898
 20
-14.25246
 30
0.0
 10
-9.98898
 20
-14.25246
 30
0.0
 10
-9.99544
 20
-14.23374
 30
0.0
 10
-9.99544
 20
-14.23374
 30
0.0
  0
SPLINE
  5
8A
330
1F
100
AcDbEntity
  8
Layer 1
 62
   250
100
AcDbSpline
210
0.0
220
0.0
230
1.0
 70
    11
 71
     3
 72
    16
 73
    12
 74
     0
 42
0.0000000001
 43
0.0000000001
 40
0.0
 40
0.0
 40
0.0
 40
0.0
 40
0.3333333333333333
 40
0.3333333333333333
 40
0.3333333333333333
 40
0.3333333333333333
 40
0.6666666666666666
 40
0.6666666666666666
 40
0.6666666666666666
 40
0.6666666666666666
 40
1.0
 40
1.0
 40
1.0
 40
1.0
 10
-10.03032
 20
-14.21464
 30
0.0
 10
-10.03032
 20
-14.21464
 30
0.0
 10
-10.00212
 20
-14.21464
 30
0.0
 10
-10.00212
 20
-14.21464
 30
0.0
 10
-10.00212
 20
-14.21464
 30
0.0
 10
-10.00212
 20
-14.21464
 30
0.0
 10
-10.01619
 20
-14.17372
 30
0.0
 10
-10.01619
 20
-14.17372
 30
0.0
 10
-10.01619
 20
-14.17372
 30
0.0
 10
-10.01619
 20
-14.17372
 30
0.0
 10
-10.03032
 20
-14.21464
 30
0.0
 10
-10.03032
 20
-14.21464
 30
0.0
  0
SPLINE
  5
8B
330
1F
100
AcDbEntity
  8
Layer 1
 62
   250
100
AcDbSpline
210
0.0
220
0.0
230
1.0
 70
    11
 71
     3
 72
    56
 73
    52
 74
     0
 42
0.0000000001
 43
0.0000000001
 40
0.0
 40
0.0
 40
0.0
 40
0.0
 40
0.0769230769230769
 40
0.0769230769230769
 40
0.0769230769230769
 40
0.0769230769230769
 40
0.1538461538461539
 40
0.1538461538461539
 40
0.1538461538461539
 40
0.1538461538461539
 40
0.2307692307692308
 40
0.2307692307692308
 40
0.2307692307692308
 40
0.2307692307692308
 40
0.3076923076923077
 40
0.3076923076923077
 40
0.3076923076923077
 40
0.3076923076923077
 40
0.3846153846153846
 40
0.3846153846153846
 40
0.3846153846153846
 40
0.3846153846153846
 40
0.4615384615384616
 40
0.4615384615384616
 40
0.4615384615384616
 40
0.4615384615384616
 40
0.5384615384615385
 40
0.5384615384615385
 40
0.5384615384615385
 40
0.5384615384615385
 40
0.6153846153846154
 40
0.6153846153846154
 40
0.6153846153846154
 40
0.6153846153846154
 40
0.6923076923076923
 40
0.6923076923076923
 40
0.6923076923076923
 40
0.6923076923076923
 40
0.7692307692307692
 40
0.7692307692307692
 40
0.7692307692307692
 40
0.7692307692307692
 40
0.846153846153846
 40
0.846153846153846
 40
0.846153846153846
 40
0.846153846153846
 40
0.9230769230769229
 40
0.9230769230769229
 40
0.9230769230769229
 40
0.9230769230769229
 40
1.0
 40
1.0
 40
1.0
 40
1.0
 10
-9.94864
 20
-14.14959
 30
0.0
 10
-9.94864
 20
-14.14959
 30
0.0
 10
-9.91489
 20
-14.14959
 30
0.0
 10
-9.91489
 20
-14.14959
 30
0.0
 10
-9.91489
 20
-14.14959
 30
0.0
 10
-9.91489
 20
-14.14959
 30
0.0
 10
-9.89144
 20
-14.20465
 30
0.0
 10
-9.89144
 20
-14.20465
 30
0.0
 10
-9.89144
 20
-14.20465
 30
0.0
 10
-9.89144
 20
-14.20465
 30
0.0
 10
-9.86788
 20
-14.14959
 30
0.0
 10
-9.86788
 20
-14.14959
 30
0.0
 10
-9.86788
 20
-14.14959
 30
0.0
 10
-9.86788
 20
-14.14959
 30
0.0
 10
-9.8342
 20
-14.14959
 30
0.0
 10
-9.8342
 20
-14.14959
 30
0.0
 10
-9.8342
 20
-14.14959
 30
0.0
 10
-9.8342
 20
-14.14959
 30
0.0
 10
-9.8342
 20
-14.25246
 30
0.0
 10
-9.8342
 20
-14.25246
 30
0.0
 10
-9.8342
 20
-14.25246
 30
0.0
 10
-9.8342
 20
-14.25246
 30
0.0
 10
-9.85927
 20
-14.25246
 30
0.0
 10
-9.85927
 20
-14.25246
 30
0.0
 10
-9.85927
 20
-14.25246
 30
0.0
 10
-9.85927
 20
-14.25246
 30
0.0
 10
-9.85927
 20
-14.17722
 30
0.0
 10
-9.85927
 20
-14.17722
 30
0.0
 10
-9.85927
 20
-14.17722
 30
0.0
 10
-9.85927
 20
-14.17722
 30
0.0
 10
-9.88298
 20
-14.23268
 30
0.0
 10
-9.88298
 20
-14.23268
 30
0.0
 10
-9.88298
 20
-14.23268
 30
0.0
 10
-9.88298
 20
-14.23268
 30
0.0
 10
-9.89979
 20
-14.23268
 30
0.0
 10
-9.89979
 20
-14.23268
 30
0.0
 10
-9.89979
 20
-14.23268
 30
0.0
 10
-9.89979
 20
-14.23268
 30
0.0
 10
-9.9235
 20
-14.17722
 30
0.0
 10
-9.9235
 20
-14.17722
 30
0.0
 10
-9.9235
 20
-14.17722
 30
0.0
 10
-9.9235
 20
-14.17722
 30
0.0
 10
-9.9235
 20
-14.25246
 30
0.0
 10
-9.9235
 20
-14.25246
 30
0.0
 10
-9.9235
 20
-14.25246
 30
0.0
 10
-9.9235
 20
-14.25246
 30
0.0
 10
-9.94864
 20
-14.25246
 30
0.0
 10
-9.94864
 20
-14.25246
 30
0.0
 10
-9.94864
 20
-14.25246
 30
0.0
 10
-9.94864
 20
-14.25246
 30
0.0
 10
-9.94864
 20
-14.14959
 30
0.0
 10
-9.94864
 20
-14.14959
 30
0.0
  0
SPLINE
  5
8C
330
1F
100
AcDbEntity
  8
Layer 1
 62
   250
100
AcDbSpline
210
0.0
220
0.0
230
1.0
 70
    11
 71
     3
 72
    20
 73
    16
 74
     0
 42
0.0000000001
 43
0.0000000001
 40
0.0
 40
0.0
 40
0.0
 40
0.0
 40
0.25
 40
0.25
 40
0.25
 40
0.25
 40
0.5
 40
0.5
 40
0.5
 40
0.5
 40
0.75
 40
0.75
 40
0.75
 40
0.75
 40
1.0
 40
1.0
 40
1.0
 40
1.0
 10
-9.80821
 20
-14.14959
 30
0.0
 10
-9.80821
 20
-14.14959
 30
0.0
 10
-9.78168
 20
-14.14959
 30
0.0
 10
-9.78168
 20
-14.14959
 30
0.0
 10
-9.78168
 20
-14.14959
 30
0.0
 10
-9.78168
 20
-14.14959
 30
0.0
 10
-9.78168
 20
-14.25246
 30
0.0
 10
-9.78168
 20
-14.25246
 30
0.0
 10
-9.78168
 20
-14.25246
 30
0.0
 10
-9.78168
 20
-14.25246
 30
0.0
 10
-9.80821
 20
-14.25246
 30
0.0
 10
-9.80821
 20
-14.25246
 30
0.0
 10
-9.80821
 20
-14.25246
 30
0.0
 10
-9.80821
 20
-14.25246
 30
0.0
 10
-9.80821
 20
-14.14959
 30
0.0
 10
-9.80821
 20
-14.14959
 30
0.0
  0
SPLINE
  5
8D
330
1F
100
AcDbEntity
  8
Layer 1
 62
   250
100
AcDbSpline
210
0.0
220
0.0
230
1.0
 70
    11
 71
     3
 72
    76
 73
    72
 74
     0
 42
0.0000000001
 43
0.0000000001
 40
0.0
 40
0.0
 40
0.0
 40
0.0
 40
0.0555555555555556
 40
0.0555555555555556
 40
0.0555555555555556
 40
0.0555555555555556
 40
0.1111111111111111
 40
0.1111111111111111
 40
0.1111111111111111
 40
0.1111111111111111
 40
0.1666666666666667
 40
0.1666666666666667
 40
0.1666666666666667
 40
0.1666666666666667
 40
0.2222222222222222
 40
0.2222222222222222
 40
0.2222222222222222
 40
0.2222222222222222
 40
0.2777777777777778
 40
0.2777777777777778
 40
0.2777777777777778
 40
0.2777777777777778
 40
0.3333333333333334
 40
0.3333333333333334
 40
0.3333333333333334
 40
0.3333333333333334
 40
0.388888888888889
 40
0.388888888888889
 40
0.388888888888889
 40
0.388888888888889
 40
0.4444444444444445
 40
0.4444444444444445
 40
0.4444444444444445
 40
0.4444444444444445
 40
0.5000000000000001
 40
0.5000000000000001
 40
0.5000000000000001
 40
0.5000000000000001
 40
0.5555555555555557
 40
0.5555555555555557
 40
0.5555555555555557
 40
0.5555555555555557
 40
0.6111111111111113
 40
0.6111111111111113
 40
0.6111111111111113
 40
0.6111111111111113
 40
0.6666666666666669
 40
0.6666666666666669
 40
0.6666666666666669
 40
0.6666666666666669
 40
0.7222222222222224
 40
0.7222222222222224
 40
0.7222222222222224
 40
0.7222222222222224
 40
0.777777777777778
 40
0.777777777777778
 40
0.777777777777778
 40
0.777777777777778
 40
0.8333333333333336
 40
0.8333333333333336
 40
0.8333333333333336
 40
0.8333333333333336
 40
0.8888888888888892
 40
0.8888888888888892
 40
0.8888888888888892
 40
0.8888888888888892
 40
0.9444444444444448
 40
0.9444444444444448
 40
0.9444444444444448
 40
0.9444444444444448
 40
1.0
 40
1.0
 40
1.0
 40
1.0
 10
-9.67414
 20
-14.24682
 30
0.0
 10
-9.679
 20
-14.24933
 30
0.0
 10
-9.68408
 20
-14.25124
 30
0.0
 10
-9.68938
 20
-14.25253
 30
0.0
 10
-9.68938
 20
-14.25253
 30
0.0
 10
-9.69464
 20
-14.25382
 30
0.0
 10
-9.70017
 20
-14.25446
 30
0.0
 10
-9.70591
 20
-14.25446
 30
0.0
 10
-9.70591
 20
-14.25446
 30
0.0
 10
-9.72303
 20
-14.25446
 30
0.0
 10
-9.7366
 20
-14.24966
 30
0.0
 10
-9.74662
 20
-14.24009
 30
0.0
 10
-9.74662
 20
-14.24009
 30
0.0
 10
-9.75664
 20
-14.23052
 30
0.0
 10
-9.76165
 20
-14.21754
 30
0.0
 10
-9.76165
 20
-14.20112
 30
0.0
 10
-9.76165
 20
-14.20112
 30
0.0
 10
-9.76165
 20
-14.18468
 30
0.0
 10
-9.75664
 20
-14.17167
 30
0.0
 10
-9.74662
 20
-14.1621
 30
0.0
 10
-9.74662
 20
-14.1621
 30
0.0
 10
-9.7366
 20
-14.15253
 30
0.0
 10
-9.72303
 20
-14.14773
 30
0.0
 10
-9.70591
 20
-14.14773
 30
0.0
 10
-9.70591
 20
-14.14773
 30
0.0
 10
-9.70017
 20
-14.14773
 30
0.0
 10
-9.69464
 20
-14.14837
 30
0.0
 10
-9.68938
 20
-14.14966
 30
0.0
 10
-9.68938
 20
-14.14966
 30
0.0
 10
-9.68408
 20
-14.15095
 30
0.0
 10
-9.679
 20
-14.15286
 30
0.0
 10
-9.67414
 20
-14.15538
 30
0.0
 10
-9.67414
 20
-14.15538
 30
0.0
 10
-9.67414
 20
-14.15538
 30
0.0
 10
-9.67414
 20
-14.17666
 30
0.0
 10
-9.67414
 20
-14.17666
 30
0.0
 10
-9.67414
 20
-14.17666
 30
0.0
 10
-9.67905
 20
-14.1733
 30
0.0
 10
-9.6839
 20
-14.17085
 30
0.0
 10
-9.68867
 20
-14.1693
 30
0.0
 10
-9.68867
 20
-14.1693
 30
0.0
 10
-9.69344
 20
-14.16772
 30
0.0
 10
-9.69848
 20
-14.16695
 30
0.0
 10
-9.70377
 20
-14.16695
 30
0.0
 10
-9.70377
 20
-14.16695
 30
0.0
 10
-9.71322
 20
-14.16695
 30
0.0
 10
-9.72068
 20
-14.16998
 30
0.0
 10
-9.72609
 20
-14.17605
 30
0.0
 10
-9.72609
 20
-14.17605
 30
0.0
 10
-9.73152
 20
-14.18212
 30
0.0
 10
-9.73423
 20
-14.19047
 30
0.0
 10
-9.73423
 20
-14.20112
 30
0.0
 10
-9.73423
 20
-14.20112
 30
0.0
 10
-9.73423
 20
-14.21175
 30
0.0
 10
-9.73152
 20
-14.22008
 30
0.0
 10
-9.72609
 20
-14.22614
 30
0.0
 10
-9.72609
 20
-14.22614
 30
0.0
 10
-9.72068
 20
-14.23221
 30
0.0
 10
-9.71322
 20
-14.23524
 30
0.0
 10
-9.70377
 20
-14.23524
 30
0.0
 10
-9.70377
 20
-14.23524
 30
0.0
 10
-9.69848
 20
-14.23524
 30
0.0
 10
-9.69344
 20
-14.23447
 30
0.0
 10
-9.68867
 20
-14.23289
 30
0.0
 10
-9.68867
 20
-14.23289
 30
0.0
 10
-9.6839
 20
-14.23134
 30
0.0
 10
-9.67905
 20
-14.22889
 30
0.0
 10
-9.67414
 20
-14.22553
 30
0.0
 10
-9.67414
 20
-14.22553
 30
0.0
 10
-9.67414
 20
-14.22553
 30
0.0
 10
-9.67414
 20
-14.24682
 30
0.0
 10
-9.67414
 20
-14.24682
 30
0.0
  0
SPLINE
  5
8E
330
1F
100
AcDbEntity
  8
Layer 1
 62
   250
100
AcDbSpline
210
0.0
220
0.0
230
1.0
 70
    11
 71
     3
 72
    44
 73
    40
 74
     0
 42
0.0000000001
 43
0.0000000001
 40
0.0
 40
0.0
 40
0.0
 40
0.0
 40
0.1
 40
0.1
 40
0.1
 40
0.1
 40
0.2
 40
0.2
 40
0.2
 40
0.2
 40
0.3
 40
0.3
 40
0.3
 40
0.3
 40
0.4
 40
0.4
 40
0.4
 40
0.4
 40
0.5
 40
0.5
 40
0.5
 40
0.5
 40
0.6
 40
0.6
 40
0.6
 40
0.6
 40
0.7
 40
0.7
 40
0.7
 40
0.7
 40
0.7999999999999999
 40
0.7999999999999999
 40
0.7999999999999999
 40
0.7999999999999999
 40
0.8999999999999999
 40
0.8999999999999999
 40
0.8999999999999999
 40
0.8999999999999999
 40
1.0
 40
1.0
 40
1.0
 40
1.0
 10
-9.65384
 20
-14.27106
 30
0.0
 10
-9.64796
 20
-14.26013
 30
0.0
 10
-9.64354
 20
-14.24945
 30
0.0
 10
-9.6406
 20
-14.23903
 30
0.0
 10
-9.6406
 20
-14.23903
 30
0.0
 10
-9.63766
 20
-14.22859
 30
0.0
 10
-9.6362
 20
-14.21831
 30
0.0
 10
-9.6362
 20
-14.20815
 30
0.0
 10
-9.6362
 20
-14.20815
 30
0.0
 10
-9.6362
 20
-14.19799
 30
0.0
 10
-9.63766
 20
-14.18771
 30
0.0
 10
-9.6406
 20
-14.17732
 30
0.0
 10
-9.6406
 20
-14.17732
 30
0.0
 10
-9.64354
 20
-14.16692
 30
0.0
 10
-9.64796
 20
-14.15627
 30
0.0
 10
-9.65384
 20
-14.14538
 30
0.0
 10
-9.65384
 20
-14.14538
 30
0.0
 10
-9.65384
 20
-14.14538
 30
0.0
 10
-9.63338
 20
-14.14538
 30
0.0
 10
-9.63338
 20
-14.14538
 30
0.0
 10
-9.63338
 20
-14.14538
 30
0.0
 10
-9.6264
 20
-14.15665
 30
0.0
 10
-9.62122
 20
-14.16742
 30
0.0
 10
-9.61783
 20
-14.17774
 30
0.0
 10
-9.61783
 20
-14.17774
 30
0.0
 10
-9.61447
 20
-14.18804
 30
0.0
 10
-9.61278
 20
-14.19823
 30
0.0
 10
-9.61278
 20
-14.20829
 30
0.0
 10
-9.61278
 20
-14.20829
 30
0.0
 10
-9.61278
 20
-14.21836
 30
0.0
 10
-9.61445
 20
-14.22849
 30
0.0
 10
-9.61781
 20
-14.2387
 30
0.0
 10
-9.61781
 20
-14.2387
 30
0.0
 10
-9.62115
 20
-14.24893
 30
0.0
 10
-9.62635
 20
-14.25973
 30
0.0
 10
-9.63338
 20
-14.27106
 30
0.0
 10
-9.63338
 20
-14.27106
 30
0.0
 10
-9.63338
 20
-14.27106
 30
0.0
 10
-9.65384
 20
-14.27106
 30
0.0
 10
-9.65384
 20
-14.27106
 30
0.0
  0
SPLINE
  5
8F
330
1F
100
AcDbEntity
  8
Layer 1
 62
   250
100
AcDbSpline
210
0.0
220
0.0
230
1.0
 70
    11
 71
     3
 72
    80
 73
    76
 74
     0
 42
0.0000000001
 43
0.0000000001
 40
0.0
 40
0.0
 40
0.0
 40
0.0
 40
0.0526315789473684
 40
0.0526315789473684
 40
0.0526315789473684
 40
0.0526315789473684
 40
0.1052631578947368
 40
0.1052631578947368
 40
0.1052631578947368
 40
0.1052631578947368
 40
0.1578947368421053
 40
0.1578947368421053
 40
0.1578947368421053
 40
0.1578947368421053
 40
0.2105263157894737
 40
0.2105263157894737
 40
0.2105263157894737
 40
0.2105263157894737
 40
0.2631578947368421
 40
0.2631578947368421
 40
0.2631578947368421
 40
0.2631578947368421
 40
0.3157894736842105
 40
0.3157894736842105
 40
0.3157894736842105
 40
0.3157894736842105
 40
0.3684210526315789
 40
0.3684210526315789
 40
0.3684210526315789
 40
0.3684210526315789
 40
0.4210526315789473
 40
0.4210526315789473
 40
0.4210526315789473
 40
0.4210526315789473
 40
0.4736842105263158
 40
0.4736842105263158
 40
0.4736842105263158
 40
0.4736842105263158
 40
0.5263157894736842
 40
0.5263157894736842
 40
0.5263157894736842
 40
0.5263157894736842
 40
0.5789473684210527
 40
0.5789473684210527
 40
0.5789473684210527
 40
0.5789473684210527
 40
0.631578947368421
 40
0.631578947368421
 40
0.631578947368421
 40
0.631578947368421
 40
0.6842105263157894
 40
0.6842105263157894
 40
0.6842105263157894
 40
0.6842105263157894
 40
0.7368421052631577
 40
0.7368421052631577
 40
0.7368421052631577
 40
0.7368421052631577
 40
0.7894736842105261
 40
0.7894736842105261
 40
0.7894736842105261
 40
0.7894736842105261
 40
0.8421052631578945
 40
0.8421052631578945
 40
0.8421052631578945
 40
0.8421052631578945
 40
0.8947368421052628
 40
0.8947368421052628
 40
0.8947368421052628
 40
0.8947368421052628
 40
0.9473684210526312
 40
0.9473684210526312
 40
0.9473684210526312
 40
0.9473684210526312
 40
1.0
 40
1.0
 40
1.0
 40
1.0
 10
-10.61214
 20
-14.39721
 30
0.0
 10
-10.61214
 20
-14.39721
 30
0.0
 10
-10.56686
 20
-14.39721
 30
0.0
 10
-10.56686
 20
-14.39721
 30
0.0
 10
-10.56686
 20
-14.39721
 30
0.0
 10
-10.56686
 20
-14.39721
 30
0.0
 10
-10.56686
 20
-14.41671
 30
0.0
 10
-10.56686
 20
-14.41671
 30
0.0
 10
-10.56686
 20
-14.41671
 30
0.0
 10
-10.56686
 20
-14.41671
 30
0.0
 10
-10.64163
 20
-14.41671
 30
0.0
 10
-10.64163
 20
-14.41671
 30
0.0
 10
-10.64163
 20
-14.41671
 30
0.0
 10
-10.64163
 20
-14.41671
 30
0.0
 10
-10.64163
 20
-14.39721
 30
0.0
 10
-10.64163
 20
-14.39721
 30
0.0
 10
-10.64163
 20
-14.39721
 30
0.0
 10
-10.64163
 20
-14.39721
 30
0.0
 10
-10.60407
 20
-14.36408
 30
0.0
 10
-10.60407
 20
-14.36408
 30
0.0
 10
-10.60407
 20
-14.36408
 30
0.0
 10
-10.60071
 20
-14.36104
 30
0.0
 10
-10.59824
 20
-14.35808
 30
0.0
 10
-10.59664
 20
-14.35519
 30
0.0
 10
-10.59664
 20
-14.35519
 30
0.0
 10
-10.59502
 20
-14.35229
 30
0.0
 10
-10.59422
 20
-14.34928
 30
0.0
 10
-10.59422
 20
-14.34615
 30
0.0
 10
-10.59422
 20
-14.34615
 30
0.0
 10
-10.59422
 20
-14.34133
 30
0.0
 10
-10.59584
 20
-14.33745
 30
0.0
 10
-10.59908
 20
-14.33451
 30
0.0
 10
-10.59908
 20
-14.33451
 30
0.0
 10
-10.60231
 20
-14.33157
 30
0.0
 10
-10.60661
 20
-14.33012
 30
0.0
 10
-10.612
 20
-14.33012
 30
0.0
 10
-10.612
 20
-14.33012
 30
0.0
 10
-10.61613
 20
-14.33012
 30
0.0
 10
-10.62065
 20
-14.33101
 30
0.0
 10
-10.62557
 20
-14.33277
 30
0.0
 10
-10.62557
 20
-14.33277
 30
0.0
 10
-10.63048
 20
-14.33454
 30
0.0
 10
-10.63575
 20
-14.33717
 30
0.0
 10
-10.64135
 20
-14.34065
 30
0.0
 10
-10.64135
 20
-14.34065
 30
0.0
 10
-10.64135
 20
-14.34065
 30
0.0
 10
-10.64135
 20
-14.31805
 30
0.0
 10
-10.64135
 20
-14.31805
 30
0.0
 10
-10.64135
 20
-14.31805
 30
0.0
 10
-10.63537
 20
-14.31608
 30
0.0
 10
-10.62947
 20
-14.31457
 30
0.0
 10
-10.62364
 20
-14.31354
 30
0.0
 10
-10.62364
 20
-14.31354
 30
0.0
 10
-10.6178
 20
-14.3125
 30
0.0
 10
-10.61209
 20
-14.31198
 30
0.0
 10
-10.60647
 20
-14.31198
 30
0.0
 10
-10.60647
 20
-14.31198
 30
0.0
 10
-10.59417
 20
-14.31198
 30
0.0
 10
-10.5846
 20
-14.31469
 30
0.0
 10
-10.57778
 20
-14.32012
 30
0.0
 10
-10.57778
 20
-14.32012
 30
0.0
 10
-10.57096
 20
-14.32553
 30
0.0
 10
-10.56755
 20
-14.33308
 30
0.0
 10
-10.56755
 20
-14.34279
 30
0.0
 10
-10.56755
 20
-14.34279
 30
0.0
 10
-10.56755
 20
-14.34839
 30
0.0
 10
-10.569
 20
-14.35361
 30
0.0
 10
-10.5719
 20
-14.35846
 30
0.0
 10
-10.5719
 20
-14.35846
 30
0.0
 10
-10.57479
 20
-14.3633
 30
0.0
 10
-10.58088
 20
-14.36979
 30
0.0
 10
-10.59015
 20
-14.37793
 30
0.0
 10
-10.59015
 20
-14.37793
 30
0.0
 10
-10.59015
 20
-14.37793
 30
0.0
 10
-10.61214
 20
-14.39721
 30
0.0
 10
-10.61214
 20
-14.39721
 30
0.0
  0
SPLINE
  5
90
330
1F
100
AcDbEntity
  8
Layer 1
 62
   250
100
AcDbSpline
210
0.0
220
0.0
230
1.0
 70
    11
 71
     3
 72
    92
 73
    88
 74
     0
 42
0.0000000001
 43
0.0000000001
 40
0.0
 40
0.0
 40
0.0
 40
0.0
 40
0.0454545454545455
 40
0.0454545454545455
 40
0.0454545454545455
 40
0.0454545454545455
 40
0.0909090909090909
 40
0.0909090909090909
 40
0.0909090909090909
 40
0.0909090909090909
 40
0.1363636363636364
 40
0.1363636363636364
 40
0.1363636363636364
 40
0.1363636363636364
 40
0.1818181818181818
 40
0.1818181818181818
 40
0.1818181818181818
 40
0.1818181818181818
 40
0.2272727272727273
 40
0.2272727272727273
 40
0.2272727272727273
 40
0.2272727272727273
 40
0.2727272727272728
 40
0.2727272727272728
 40
0.2727272727272728
 40
0.2727272727272728
 40
0.3181818181818182
 40
0.3181818181818182
 40
0.3181818181818182
 40
0.3181818181818182
 40
0.3636363636363637
 40
0.3636363636363637
 40
0.3636363636363637
 40
0.3636363636363637
 40
0.4090909090909092
 40
0.4090909090909092
 40
0.4090909090909092
 40
0.4090909090909092
 40
0.4545454545454546
 40
0.4545454545454546
 40
0.4545454545454546
 40
0.4545454545454546
 40
0.5000000000000001
 40
0.5000000000000001
 40
0.5000000000000001
 40
0.5000000000000001
 40
0.5454545454545455
 40
0.5454545454545455
 40
0.5454545454545455
 40
0.5454545454545455
 40
0.5909090909090909
 40
0.5909090909090909
 40
0.5909090909090909
 40
0.5909090909090909
 40
0.6363636363636364
 40
0.6363636363636364
 40
0.6363636363636364
 40
0.6363636363636364
 40
0.6818181818181818
 40
0.6818181818181818
 40
0.6818181818181818
 40
0.6818181818181818
 40
0.7272727272727272
 40
0.7272727272727272
 40
0.7272727272727272
 40
0.7272727272727272
 40
0.7727272727272726
 40
0.7727272727272726
 40
0.7727272727272726
 40
0.7727272727272726
 40
0.818181818181818
 40
0.818181818181818
 40
0.818181818181818
 40
0.818181818181818
 40
0.8636363636363634
 40
0.8636363636363634
 40
0.8636363636363634
 40
0.8636363636363634
 40
0.9090909090909088
 40
0.9090909090909088
 40
0.9090909090909088
 40
0.9090909090909088
 40
0.9545454545454543
 40
0.9545454545454543
 40
0.9545454545454543
 40
0.9545454545454543
 40
1.0
 40
1.0
 40
1.0
 40
1.0
 10
-10.53965
 20
-14.31384
 30
0.0
 10
-10.53965
 20
-14.31384
 30
0.0
 10
-10.47371
 20
-14.31384
 30
0.0
 10
-10.47371
 20
-14.31384
 30
0.0
 10
-10.47371
 20
-14.31384
 30
0.0
 10
-10.47371
 20
-14.31384
 30
0.0
 10
-10.47371
 20
-14.33334
 30
0.0
 10
-10.47371
 20
-14.33334
 30
0.0
 10
-10.47371
 20
-14.33334
 30
0.0
 10
-10.47371
 20
-14.33334
 30
0.0
 10
-10.51851
 20
-14.33334
 30
0.0
 10
-10.51851
 20
-14.33334
 30
0.0
 10
-10.51851
 20
-14.33334
 30
0.0
 10
-10.51851
 20
-14.33334
 30
0.0
 10
-10.51851
 20
-14.34926
 30
0.0
 10
-10.51851
 20
-14.34926
 30
0.0
 10
-10.51851
 20
-14.34926
 30
0.0
 10
-10.51649
 20
-14.34872
 30
0.0
 10
-10.51446
 20
-14.3483
 30
0.0
 10
-10.51242
 20
-14.34799
 30
0.0
 10
-10.51242
 20
-14.34799
 30
0.0
 10
-10.51037
 20
-14.34768
 30
0.0
 10
-10.50823
 20
-14.34754
 30
0.0
 10
-10.50604
 20
-14.34754
 30
0.0
 10
-10.50604
 20
-14.34754
 30
0.0
 10
-10.49349
 20
-14.34754
 30
0.0
 10
-10.48373
 20
-14.35067
 30
0.0
 10
-10.47674
 20
-14.35695
 30
0.0
 10
-10.47674
 20
-14.35695
 30
0.0
 10
-10.46976
 20
-14.36321
 30
0.0
 10
-10.46628
 20
-14.37195
 30
0.0
 10
-10.46628
 20
-14.38315
 30
0.0
 10
-10.46628
 20
-14.38315
 30
0.0
 10
-10.46628
 20
-14.39427
 30
0.0
 10
-10.47009
 20
-14.40298
 30
0.0
 10
-10.47768
 20
-14.40928
 30
0.0
 10
-10.47768
 20
-14.40928
 30
0.0
 10
-10.48528
 20
-14.41556
 30
0.0
 10
-10.49584
 20
-14.41871
 30
0.0
 10
-10.50934
 20
-14.41871
 30
0.0
 10
-10.50934
 20
-14.41871
 30
0.0
 10
-10.51517
 20
-14.41871
 30
0.0
 10
-10.52096
 20
-14.41814
 30
0.0
 10
-10.52667
 20
-14.41702
 30
0.0
 10
-10.52667
 20
-14.41702
 30
0.0
 10
-10.53239
 20
-14.41589
 30
0.0
 10
-10.53808
 20
-14.41419
 30
0.0
 10
-10.54372
 20
-14.41189
 30
0.0
 10
-10.54372
 20
-14.41189
 30
0.0
 10
-10.54372
 20
-14.41189
 30
0.0
 10
-10.54372
 20
-14.391
 30
0.0
 10
-10.54372
 20
-14.391
 30
0.0
 10
-10.54372
 20
-14.391
 30
0.0
 10
-10.53812
 20
-14.39423
 30
0.0
 10
-10.53281
 20
-14.39663
 30
0.0
 10
-10.52778
 20
-14.39822
 30
0.0
 10
-10.52778
 20
-14.39822
 30
0.0
 10
-10.52274
 20
-14.39985
 30
0.0
 10
-10.51799
 20
-14.40065
 30
0.0
 10
-10.51355
 20
-14.40065
 30
0.0
 10
-10.51355
 20
-14.40065
 30
0.0
 10
-10.5071
 20
-14.40065
 30
0.0
 10
-10.50205
 20
-14.39907
 30
0.0
 10
-10.49835
 20
-14.39592
 30
0.0
 10
-10.49835
 20
-14.39592
 30
0.0
 10
-10.49466
 20
-14.39279
 30
0.0
 10
-10.4928
 20
-14.38854
 30
0.0
 10
-10.4928
 20
-14.38315
 30
0.0
 10
-10.4928
 20
-14.38315
 30
0.0
 10
-10.4928
 20
-14.37774
 30
0.0
 10
-10.49466
 20
-14.37348
 30
0.0
 10
-10.49835
 20
-14.37036
 30
0.0
 10
-10.49835
 20
-14.37036
 30
0.0
 10
-10.50205
 20
-14.36723
 30
0.0
 10
-10.5071
 20
-14.36568
 30
0.0
 10
-10.51355
 20
-14.36568
 30
0.0
 10
-10.51355
 20
-14.36568
 30
0.0
 10
-10.51736
 20
-14.36568
 30
0.0
 10
-10.52143
 20
-14.36617
 30
0.0
 10
-10.52573
 20
-14.36716
 30
0.0
 10
-10.52573
 20
-14.36716
 30
0.0
 10
-10.53006
 20
-14.36814
 30
0.0
 10
-10.53469
 20
-14.36967
 30
0.0
 10
-10.53965
 20
-14.37174
 30
0.0
 10
-10.53965
 20
-14.37174
 30
0.0
 10
-10.53965
 20
-14.37174
 30
0.0
 10
-10.53965
 20
-14.31384
 30
0.0
 10
-10.53965
 20
-14.31384
 30
0.0
  0
SPLINE
  5
91
330
1F
100
AcDbEntity
  8
Layer 1
 62
   250
100
AcDbSpline
210
0.0
220
0.0
230
1.0
 70
    11
 71
     3
 72
    32
 73
    28
 74
     0
 42
0.0000000001
 43
0.0000000001
 40
0.0
 40
0.0
 40
0.0
 40
0.0
 40
0.1428571428571428
 40
0.1428571428571428
 40
0.1428571428571428
 40
0.1428571428571428
 40
0.2857142857142857
 40
0.2857142857142857
 40
0.2857142857142857
 40
0.2857142857142857
 40
0.4285714285714285
 40
0.4285714285714285
 40
0.4285714285714285
 40
0.4285714285714285
 40
0.5714285714285714
 40
0.5714285714285714
 40
0.5714285714285714
 40
0.5714285714285714
 40
0.7142857142857142
 40
0.7142857142857142
 40
0.7142857142857142
 40
0.7142857142857142
 40
0.857142857142857
 40
0.857142857142857
 40
0.857142857142857
 40
0.857142857142857
 40
1.0
 40
1.0
 40
1.0
 40
1.0
 10
-10.45574
 20
-14.31384
 30
0.0
 10
-10.45574
 20
-14.31384
 30
0.0
 10
-10.42907
 20
-14.31384
 30
0.0
 10
-10.42907
 20
-14.31384
 30
0.0
 10
-10.42907
 20
-14.31384
 30
0.0
 10
-10.42907
 20
-14.31384
 30
0.0
 10
-10.40179
 20
-14.38976
 30
0.0
 10
-10.40179
 20
-14.38976
 30
0.0
 10
-10.40179
 20
-14.38976
 30
0.0
 10
-10.40179
 20
-14.38976
 30
0.0
 10
-10.37458
 20
-14.31384
 30
0.0
 10
-10.37458
 20
-14.31384
 30
0.0
 10
-10.37458
 20
-14.31384
 30
0.0
 10
-10.37458
 20
-14.31384
 30
0.0
 10
-10.34791
 20
-14.31384
 30
0.0
 10
-10.34791
 20
-14.31384
 30
0.0
 10
-10.34791
 20
-14.31384
 30
0.0
 10
-10.34791
 20
-14.31384
 30
0.0
 10
-10.38601
 20
-14.41671
 30
0.0
 10
-10.38601
 20
-14.41671
 30
0.0
 10
-10.38601
 20
-14.41671
 30
0.0
 10
-10.38601
 20
-14.41671
 30
0.0
 10
-10.41764
 20
-14.41671
 30
0.0
 10
-10.41764
 20
-14.41671
 30
0.0
 10
-10.41764
 20
-14.41671
 30
0.0
 10
-10.41764
 20
-14.41671
 30
0.0
 10
-10.45574
 20
-14.31384
 30
0.0
 10
-10.45574
 20
-14.31384
 30
0.0
  0
SPLINE
  5
92
330
1F
100
AcDbEntity
  8
Layer 1
 62
   250
100
AcDbSpline
210
0.0
220
0.0
230
1.0
 70
    11
 71
     3
 72
    36
 73
    32
 74
     0
 42
0.0000000001
 43
0.0000000001
 40
0.0
 40
0.0
 40
0.0
 40
0.0
 40
0.125
 40
0.125
 40
0.125
 40
0.125
 40
0.25
 40
0.25
 40
0.25
 40
0.25
 40
0.375
 40
0.375
 40
0.375
 40
0.375
 40
0.5
 40
0.5
 40
0.5
 40
0.5
 40
0.625
 40
0.625
 40
0.625
 40
0.625
 40
0.75
 40
0.75
 40
0.75
 40
0.75
 40
0.875
 40
0.875
 40
0.875
 40
0.875
 40
1.0
 40
1.0
 40
1.0
 40
1.0
 10
-10.92059
 20
-15.33523
 30
0.0
 10
-10.92516
 20
-15.33523
 30
0.0
 10
-10.92861
 20
-15.337
 30
0.0
 10
-10.93096
 20
-15.34055
 30
0.0
 10
-10.93096
 20
-15.34055
 30
0.0
 10
-10.93331
 20
-15.3441
 30
0.0
 10
-10.93448
 20
-15.34937
 30
0.0
 10
-10.93448
 20
-15.35632
 30
0.0
 10
-10.93448
 20
-15.35632
 30
0.0
 10
-10.93448
 20
-15.36325
 30
0.0
 10
-10.93331
 20
-15.3685
 30
0.0
 10
-10.93096
 20
-15.37207
 30
0.0
 10
-10.93096
 20
-15.37207
 30
0.0
 10
-10.92861
 20
-15.37564
 30
0.0
 10
-10.92516
 20
-15.37742
 30
0.0
 10
-10.92059
 20
-15.37742
 30
0.0
 10
-10.92059
 20
-15.37742
 30
0.0
 10
-10.91601
 20
-15.37742
 30
0.0
 10
-10.91254
 20
-15.37564
 30
0.0
 10
-10.91019
 20
-15.37207
 30
0.0
 10
-10.91019
 20
-15.37207
 30
0.0
 10
-10.90784
 20
-15.3685
 30
0.0
 10
-10.90668
 20
-15.36325
 30
0.0
 10
-10.90668
 20
-15.35632
 30
0.0
 10
-10.90668
 20
-15.35632
 30
0.0
 10
-10.90668
 20
-15.34937
 30
0.0
 10
-10.90784
 20
-15.3441
 30
0.0
 10
-10.91019
 20
-15.34055
 30
0.0
 10
-10.91019
 20
-15.34055
 30
0.0
 10
-10.91254
 20
-15.337
 30
0.0
 10
-10.91601
 20
-15.33523
 30
0.0
 10
-10.92059
 20
-15.33523
 30
0.0
  0
SPLINE
  5
93
330
1F
100
AcDbEntity
  8
Layer 1
 62
   250
100
AcDbSpline
210
0.0
220
0.0
230
1.0
 70
    11
 71
     3
 72
    36
 73
    32
 74
     0
 42
0.0000000001
 43
0.0000000001
 40
0.0
 40
0.0
 40
0.0
 40
0.0
 40
0.125
 40
0.125
 40
0.125
 40
0.125
 40
0.25
 40
0.25
 40
0.25
 40
0.25
 40
0.375
 40
0.375
 40
0.375
 40
0.375
 40
0.5
 40
0.5
 40
0.5
 40
0.5
 40
0.625
 40
0.625
 40
0.625
 40
0.625
 40
0.75
 40
0.75
 40
0.75
 40
0.75
 40
0.875
 40
0.875
 40
0.875
 40
0.875
 40
1.0
 40
1.0
 40
1.0
 40
1.0
 10
-10.92059
 20
-15.32761
 30
0.0
 10
-10.91301
 20
-15.32761
 30
0.0
 10
-10.90721
 20
-15.33006
 30
0.0
 10
-10.90319
 20
-15.33498
 30
0.0
 10
-10.90319
 20
-15.33498
 30
0.0
 10
-10.89917
 20
-15.3399
 30
0.0
 10
-10.89716
 20
-15.34702
 30
0.0
 10
-10.89716
 20
-15.35632
 30
0.0
 10
-10.89716
 20
-15.35632
 30
0.0
 10
-10.89716
 20
-15.36567
 30
0.0
 10
-10.89916
 20
-15.37279
 30
0.0
 10
-10.90316
 20
-15.37769
 30
0.0
 10
-10.90316
 20
-15.37769
 30
0.0
 10
-10.90718
 20
-15.38259
 30
0.0
 10
-10.91298
 20
-15.38504
 30
0.0
 10
-10.92059
 20
-15.38504
 30
0.0
 10
-10.92059
 20
-15.38504
 30
0.0
 10
-10.92819
 20
-15.38504
 30
0.0
 10
-10.93398
 20
-15.38259
 30
0.0
 10
-10.938
 20
-15.37769
 30
0.0
 10
-10.938
 20
-15.37769
 30
0.0
 10
-10.942
 20
-15.37279
 30
0.0
 10
-10.944
 20
-15.36567
 30
0.0
 10
-10.944
 20
-15.35632
 30
0.0
 10
-10.944
 20
-15.35632
 30
0.0
 10
-10.944
 20
-15.34702
 30
0.0
 10
-10.942
 20
-15.3399
 30
0.0
 10
-10.938
 20
-15.33498
 30
0.0
 10
-10.938
 20
-15.33498
 30
0.0
 10
-10.93398
 20
-15.33006
 30
0.0
 10
-10.92819
 20
-15.32761
 30
0.0
 10
-10.92059
 20
-15.32761
 30
0.0
  0
SPLINE
  5
94
330
1F
100
AcDbEntity
  8
Layer 1
 62
   250
100
AcDbSpline
210
0.0
220
0.0
230
1.0
 70
    11
 71
     3
 72
    36
 73
    32
 74
     0
 42
0.0000000001
 43
0.0000000001
 40
0.0
 40
0.0
 40
0.0
 40
0.0
 40
0.125
 40
0.125
 40
0.125
 40
0.125
 40
0.25
 40
0.25
 40
0.25
 40
0.25
 40
0.375
 40
0.375
 40
0.375
 40
0.375
 40
0.5
 40
0.5
 40
0.5
 40
0.5
 40
0.625
 40
0.625
 40
0.625
 40
0.625
 40
0.75
 40
0.75
 40
0.75
 40
0.75
 40
0.875
 40
0.875
 40
0.875
 40
0.875
 40
1.0
 40
1.0
 40
1.0
 40
1.0
 10
-10.86038
 20
-15.33523
 30
0.0
 10
-10.86495
 20
-15.33523
 30
0.0
 10
-10.8684
 20
-15.337
 30
0.0
 10
-10.87075
 20
-15.34055
 30
0.0
 10
-10.87075
 20
-15.34055
 30
0.0
 10
-10.8731
 20
-15.3441
 30
0.0
 10
-10.87427
 20
-15.34937
 30
0.0
 10
-10.87427
 20
-15.35632
 30
0.0
 10
-10.87427
 20
-15.35632
 30
0.0
 10
-10.87427
 20
-15.36325
 30
0.0
 10
-10.8731
 20
-15.3685
 30
0.0
 10
-10.87075
 20
-15.37207
 30
0.0
 10
-10.87075
 20
-15.37207
 30
0.0
 10
-10.8684
 20
-15.37564
 30
0.0
 10
-10.86495
 20
-15.37742
 30
0.0
 10
-10.86038
 20
-15.37742
 30
0.0
 10
-10.86038
 20
-15.37742
 30
0.0
 10
-10.8558
 20
-15.37742
 30
0.0
 10
-10.85233
 20
-15.37564
 30
0.0
 10
-10.84998
 20
-15.37207
 30
0.0
 10
-10.84998
 20
-15.37207
 30
0.0
 10
-10.84763
 20
-15.3685
 30
0.0
 10
-10.84647
 20
-15.36325
 30
0.0
 10
-10.84647
 20
-15.35632
 30
0.0
 10
-10.84647
 20
-15.35632
 30
0.0
 10
-10.84647
 20
-15.34937
 30
0.0
 10
-10.84763
 20
-15.3441
 30
0.0
 10
-10.84998
 20
-15.34055
 30
0.0
 10
-10.84998
 20
-15.34055
 30
0.0
 10
-10.85233
 20
-15.337
 30
0.0
 10
-10.8558
 20
-15.33523
 30
0.0
 10
-10.86038
 20
-15.33523
 30
0.0
  0
SPLINE
  5
95
330
1F
100
AcDbEntity
  8
Layer 1
 62
   250
100
AcDbSpline
210
0.0
220
0.0
230
1.0
 70
    11
 71
     3
 72
    36
 73
    32
 74
     0
 42
0.0000000001
 43
0.0000000001
 40
0.0
 40
0.0
 40
0.0
 40
0.0
 40
0.125
 40
0.125
 40
0.125
 40
0.125
 40
0.25
 40
0.25
 40
0.25
 40
0.25
 40
0.375
 40
0.375
 40
0.375
 40
0.375
 40
0.5
 40
0.5
 40
0.5
 40
0.5
 40
0.625
 40
0.625
 40
0.625
 40
0.625
 40
0.75
 40
0.75
 40
0.75
 40
0.75
 40
0.875
 40
0.875
 40
0.875
 40
0.875
 40
1.0
 40
1.0
 40
1.0
 40
1.0
 10
-10.86038
 20
-15.32761
 30
0.0
 10
-10.8528
 20
-15.32761
 30
0.0
 10
-10.847
 20
-15.33006
 30
0.0
 10
-10.84298
 20
-15.33498
 30
0.0
 10
-10.84298
 20
-15.33498
 30
0.0
 10
-10.83896
 20
-15.3399
 30
0.0
 10
-10.83695
 20
-15.34702
 30
0.0
 10
-10.83695
 20
-15.35632
 30
0.0
 10
-10.83695
 20
-15.35632
 30
0.0
 10
-10.83695
 20
-15.36567
 30
0.0
 10
-10.83895
 20
-15.37279
 30
0.0
 10
-10.84295
 20
-15.37769
 30
0.0
 10
-10.84295
 20
-15.37769
 30
0.0
 10
-10.84697
 20
-15.38259
 30
0.0
 10
-10.85277
 20
-15.38504
 30
0.0
 10
-10.86038
 20
-15.38504
 30
0.0
 10
-10.86038
 20
-15.38504
 30
0.0
 10
-10.86798
 20
-15.38504
 30
0.0
 10
-10.87377
 20
-15.38259
 30
0.0
 10
-10.87779
 20
-15.37769
 30
0.0
 10
-10.87779
 20
-15.37769
 30
0.0
 10
-10.88179
 20
-15.37279
 30
0.0
 10
-10.88379
 20
-15.36567
 30
0.0
 10
-10.88379
 20
-15.35632
 30
0.0
 10
-10.88379
 20
-15.35632
 30
0.0
 10
-10.88379
 20
-15.34702
 30
0.0
 10
-10.88179
 20
-15.3399
 30
0.0
 10
-10.87779
 20
-15.33498
 30
0.0
 10
-10.87779
 20
-15.33498
 30
0.0
 10
-10.87377
 20
-15.33006
 30
0.0
 10
-10.86798
 20
-15.32761
 30
0.0
 10
-10.86038
 20
-15.32761
 30
0.0
  0
SPLINE
  5
96
330
1F
100
AcDbEntity
  8
Layer 1
 62
   250
100
AcDbSpline
210
0.0
220
0.0
230
1.0
 70
    11
 71
     3
 72
   112
 73
   108
 74
     0
 42
0.0000000001
 43
0.0000000001
 40
0.0
 40
0.0
 40
0.0
 40
0.0
 40
0.037037037037037
 40
0.037037037037037
 40
0.037037037037037
 40
0.037037037037037
 40
0.0740740740740741
 40
0.0740740740740741
 40
0.0740740740740741
 40
0.0740740740740741
 40
0.1111111111111111
 40
0.1111111111111111
 40
0.1111111111111111
 40
0.1111111111111111
 40
0.1481481481481481
 40
0.1481481481481481
 40
0.1481481481481481
 40
0.1481481481481481
 40
0.1851851851851852
 40
0.1851851851851852
 40
0.1851851851851852
 40
0.1851851851851852
 40
0.2222222222222222
 40
0.2222222222222222
 40
0.2222222222222222
 40
0.2222222222222222
 40
0.2592592592592592
 40
0.2592592592592592
 40
0.2592592592592592
 40
0.2592592592592592
 40
0.2962962962962963
 40
0.2962962962962963
 40
0.2962962962962963
 40
0.2962962962962963
 40
0.3333333333333333
 40
0.3333333333333333
 40
0.3333333333333333
 40
0.3333333333333333
 40
0.3703703703703703
 40
0.3703703703703703
 40
0.3703703703703703
 40
0.3703703703703703
 40
0.4074074074074074
 40
0.4074074074074074
 40
0.4074074074074074
 40
0.4074074074074074
 40
0.4444444444444444
 40
0.4444444444444444
 40
0.4444444444444444
 40
0.4444444444444444
 40
0.4814814814814815
 40
0.4814814814814815
 40
0.4814814814814815
 40
0.4814814814814815
 40
0.5185185185185185
 40
0.5185185185185185
 40
0.5185185185185185
 40
0.5185185185185185
 40
0.5555555555555556
 40
0.5555555555555556
 40
0.5555555555555556
 40
0.5555555555555556
 40
0.5925925925925926
 40
0.5925925925925926
 40
0.5925925925925926
 40
0.5925925925925926
 40
0.6296296296296295
 40
0.6296296296296295
 40
0.6296296296296295
 40
0.6296296296296295
 40
0.6666666666666665
 40
0.6666666666666665
 40
0.6666666666666665
 40
0.6666666666666665
 40
0.7037037037037035
 40
0.7037037037037035
 40
0.7037037037037035
 40
0.7037037037037035
 40
0.7407407407407405
 40
0.7407407407407405
 40
0.7407407407407405
 40
0.7407407407407405
 40
0.7777777777777775
 40
0.7777777777777775
 40
0.7777777777777775
 40
0.7777777777777775
 40
0.8148148148148144
 40
0.8148148148148144
 40
0.8148148148148144
 40
0.8148148148148144
 40
0.8518518518518514
 40
0.8518518518518514
 40
0.8518518518518514
 40
0.8518518518518514
 40
0.8888888888888884
 40
0.8888888888888884
 40
0.8888888888888884
 40
0.8888888888888884
 40
0.9259259259259254
 40
0.9259259259259254
 40
0.9259259259259254
 40
0.9259259259259254
 40
0.9629629629629624
 40
0.9629629629629624
 40
0.9629629629629624
 40
0.9629629629629624
 40
1.0
 40
1.0
 40
1.0
 40
1.0
 10
-10.79726
 20
-15.3345
 30
0.0
 10
-10.79616
 20
-15.33215
 30
0.0
 10
-10.79474
 20
-15.33041
 30
0.0
 10
-10.79302
 20
-15.3293
 30
0.0
 10
-10.79302
 20
-15.3293
 30
0.0
 10
-10.79132
 20
-15.32818
 30
0.0
 10
-10.78926
 20
-15.32761
 30
0.0
 10
-10.78686
 20
-15.32761
 30
0.0
 10
-10.78686
 20
-15.32761
 30
0.0
 10
-10.78246
 20
-15.32761
 30
0.0
 10
-10.77935
 20
-15.32931
 30
0.0
 10
-10.77755
 20
-15.33271
 30
0.0
 10
-10.77755
 20
-15.33271
 30
0.0
 10
-10.77574
 20
-15.33612
 30
0.0
 10
-10.77484
 20
-15.34252
 30
0.0
 10
-10.77484
 20
-15.35193
 30
0.0
 10
-10.77484
 20
-15.35193
 30
0.0
 10
-10.77484
 20
-15.35193
 30
0.0
 10
-10.77484
 20
-15.38362
 30
0.0
 10
-10.77484
 20
-15.38362
 30
0.0
 10
-10.77484
 20
-15.38362
 30
0.0
 10
-10.77484
 20
-15.38362
 30
0.0
 10
-10.78304
 20
-15.38362
 30
0.0
 10
-10.78304
 20
-15.38362
 30
0.0
 10
-10.78304
 20
-15.38362
 30
0.0
 10
-10.78304
 20
-15.38362
 30
0.0
 10
-10.78304
 20
-15.35232
 30
0.0
 10
-10.78304
 20
-15.35232
 30
0.0
 10
-10.78304
 20
-15.35232
 30
0.0
 10
-10.78304
 20
-15.3446
 30
0.0
 10
-10.78347
 20
-15.33982
 30
0.0
 10
-10.78434
 20
-15.33793
 30
0.0
 10
-10.78434
 20
-15.33793
 30
0.0
 10
-10.78519
 20
-15.33607
 30
0.0
 10
-10.78677
 20
-15.33513
 30
0.0
 10
-10.78906
 20
-15.33513
 30
0.0
 10
-10.78906
 20
-15.33513
 30
0.0
 10
-10.79166
 20
-15.33513
 30
0.0
 10
-10.79344
 20
-15.33613
 30
0.0
 10
-10.79441
 20
-15.33813
 30
0.0
 10
-10.79441
 20
-15.33813
 30
0.0
 10
-10.79536
 20
-15.34013
 30
0.0
 10
-10.79584
 20
-15.34487
 30
0.0
 10
-10.79584
 20
-15.35232
 30
0.0
 10
-10.79584
 20
-15.35232
 30
0.0
 10
-10.79584
 20
-15.35232
 30
0.0
 10
-10.79584
 20
-15.38362
 30
0.0
 10
-10.79584
 20
-15.38362
 30
0.0
 10
-10.79584
 20
-15.38362
 30
0.0
 10
-10.79584
 20
-15.38362
 30
0.0
 10
-10.80404
 20
-15.38362
 30
0.0
 10
-10.80404
 20
-15.38362
 30
0.0
 10
-10.80404
 20
-15.38362
 30
0.0
 10
-10.80404
 20
-15.38362
 30
0.0
 10
-10.80404
 20
-15.35232
 30
0.0
 10
-10.80404
 20
-15.35232
 30
0.0
 10
-10.80404
 20
-15.35232
 30
0.0
 10
-10.80404
 20
-15.3445
 30
0.0
 10
-10.80451
 20
-15.33968
 30
0.0
 10
-10.80544
 20
-15.33787
 30
0.0
 10
-10.80544
 20
-15.33787
 30
0.0
 10
-10.80636
 20
-15.33605
 30
0.0
 10
-10.80802
 20
-15.33513
 30
0.0
 10
-10.81044
 20
-15.33513
 30
0.0
 10
-10.81044
 20
-15.33513
 30
0.0
 10
-10.81282
 20
-15.33513
 30
0.0
 10
-10.81448
 20
-15.33613
 30
0.0
 10
-10.81539
 20
-15.33813
 30
0.0
 10
-10.81539
 20
-15.33813
 30
0.0
 10
-10.81633
 20
-15.34013
 30
0.0
 10
-10.81679
 20
-15.34487
 30
0.0
 10
-10.81679
 20
-15.35232
 30
0.0
 10
-10.81679
 20
-15.35232
 30
0.0
 10
-10.81679
 20
-15.35232
 30
0.0
 10
-10.81679
 20
-15.38362
 30
0.0
 10
-10.81679
 20
-15.38362
 30
0.0
 10
-10.81679
 20
-15.38362
 30
0.0
 10
-10.81679
 20
-15.38362
 30
0.0
 10
-10.82494
 20
-15.38362
 30
0.0
 10
-10.82494
 20
-15.38362
 30
0.0
 10
-10.82494
 20
-15.38362
 30
0.0
 10
-10.82494
 20
-15.38362
 30
0.0
 10
-10.82494
 20
-15.32893
 30
0.0
 10
-10.82494
 20
-15.32893
 30
0.0
 10
-10.82494
 20
-15.32893
 30
0.0
 10
-10.82494
 20
-15.32893
 30
0.0
 10
-10.81679
 20
-15.32893
 30
0.0
 10
-10.81679
 20
-15.32893
 30
0.0
 10
-10.81679
 20
-15.32893
 30
0.0
 10
-10.81679
 20
-15.32893
 30
0.0
 10
-10.81679
 20
-15.33361
 30
0.0
 10
-10.81679
 20
-15.33361
 30
0.0
 10
-10.81679
 20
-15.33361
 30
0.0
 10
-10.81573
 20
-15.33166
 30
0.0
 10
-10.81438
 20
-15.33018
 30
0.0
 10
-10.81276
 20
-15.32915
 30
0.0
 10
-10.81276
 20
-15.32915
 30
0.0
 10
-10.81116
 20
-15.32813
 30
0.0
 10
-10.80932
 20
-15.32761
 30
0.0
 10
-10.80727
 20
-15.32761
 30
0.0
 10
-10.80727
 20
-15.32761
 30
0.0
 10
-10.80479
 20
-15.32761
 30
0.0
 10
-10.80274
 20
-15.32818
 30
0.0
 10
-10.80109
 20
-15.32931
 30
0.0
 10
-10.80109
 20
-15.32931
 30
0.0
 10
-10.79944
 20
-15.33046
 30
0.0
 10
-10.79817
 20
-15.33218
 30
0.0
 10
-10.79726
 20
-15.3345
 30
0.0
  0
SPLINE
  5
97
330
1F
100
AcDbEntity
  8
Layer 1
 62
   250
100
AcDbSpline
210
0.0
220
0.0
230
1.0
 70
    11
 71
     3
 72
    20
 73
    16
 74
     0
 42
0.0000000001
 43
0.0000000001
 40
0.0
 40
0.0
 40
0.0
 40
0.0
 40
0.25
 40
0.25
 40
0.25
 40
0.25
 40
0.5
 40
0.5
 40
0.5
 40
0.5
 40
0.75
 40
0.75
 40
0.75
 40
0.75
 40
1.0
 40
1.0
 40
1.0
 40
1.0
 10
-10.74616
 20
-15.36872
 30
0.0
 10
-10.74616
 20
-15.36872
 30
0.0
 10
-10.73386
 20
-15.36872
 30
0.0
 10
-10.73386
 20
-15.36872
 30
0.0
 10
-10.73386
 20
-15.36872
 30
0.0
 10
-10.73386
 20
-15.36872
 30
0.0
 10
-10.73386
 20
-15.38362
 30
0.0
 10
-10.73386
 20
-15.38362
 30
0.0
 10
-10.73386
 20
-15.38362
 30
0.0
 10
-10.73386
 20
-15.38362
 30
0.0
 10
-10.74616
 20
-15.38362
 30
0.0
 10
-10.74616
 20
-15.38362
 30
0.0
 10
-10.74616
 20
-15.38362
 30
0.0
 10
-10.74616
 20
-15.38362
 30
0.0
 10
-10.74616
 20
-15.36872
 30
0.0
 10
-10.74616
 20
-15.36872
 30
0.0
  0
SPLINE
  5
98
330
1F
100
AcDbEntity
  8
Layer 1
 62
   250
100
AcDbSpline
210
0.0
220
0.0
230
1.0
 70
    11
 71
     3
 72
    52
 73
    48
 74
     0
 42
0.0000000001
 43
0.0000000001
 40
0.0
 40
0.0
 40
0.0
 40
0.0
 40
0.0833333333333333
 40
0.0833333333333333
 40
0.0833333333333333
 40
0.0833333333333333
 40
0.1666666666666667
 40
0.1666666666666667
 40
0.1666666666666667
 40
0.1666666666666667
 40
0.25
 40
0.25
 40
0.25
 40
0.25
 40
0.3333333333333333
 40
0.3333333333333333
 40
0.3333333333333333
 40
0.3333333333333333
 40
0.4166666666666666
 40
0.4166666666666666
 40
0.4166666666666666
 40
0.4166666666666666
 40
0.4999999999999999
 40
0.4999999999999999
 40
0.4999999999999999
 40
0.4999999999999999
 40
0.5833333333333333
 40
0.5833333333333333
 40
0.5833333333333333
 40
0.5833333333333333
 40
0.6666666666666666
 40
0.6666666666666666
 40
0.6666666666666666
 40
0.6666666666666666
 40
0.75
 40
0.75
 40
0.75
 40
0.75
 40
0.8333333333333334
 40
0.8333333333333334
 40
0.8333333333333334
 40
0.8333333333333334
 40
0.9166666666666667
 40
0.9166666666666667
 40
0.9166666666666667
 40
0.9166666666666667
 40
1.0
 40
1.0
 40
1.0
 40
1.0
 10
-10.67864
 20
-15.3638
 30
0.0
 10
-10.67864
 20
-15.36784
 30
0.0
 10
-10.6779
 20
-15.37087
 30
0.0
 10
-10.67642
 20
-15.37292
 30
0.0
 10
-10.67642
 20
-15.37292
 30
0.0
 10
-10.67494
 20
-15.37497
 30
0.0
 10
-10.67275
 20
-15.376
 30
0.0
 10
-10.66985
 20
-15.376
 30
0.0
 10
-10.66985
 20
-15.376
 30
0.0
 10
-10.66985
 20
-15.376
 30
0.0
 10
-10.65935
 20
-15.376
 30
0.0
 10
-10.65935
 20
-15.376
 30
0.0
 10
-10.65935
 20
-15.376
 30
0.0
 10
-10.65935
 20
-15.376
 30
0.0
 10
-10.65935
 20
-15.38362
 30
0.0
 10
-10.65935
 20
-15.38362
 30
0.0
 10
-10.65935
 20
-15.38362
 30
0.0
 10
-10.65935
 20
-15.38362
 30
0.0
 10
-10.67072
 20
-15.38362
 30
0.0
 10
-10.67072
 20
-15.38362
 30
0.0
 10
-10.67072
 20
-15.38362
 30
0.0
 10
-10.6761
 20
-15.38362
 30
0.0
 10
-10.68025
 20
-15.38189
 30
0.0
 10
-10.6832
 20
-15.37844
 30
0.0
 10
-10.6832
 20
-15.37844
 30
0.0
 10
-10.68615
 20
-15.37499
 30
0.0
 10
-10.68762
 20
-15.3701
 30
0.0
 10
-10.68762
 20
-15.3638
 30
0.0
 10
-10.68762
 20
-15.3638
 30
0.0
 10
-10.68762
 20
-15.3638
 30
0.0
 10
-10.68762
 20
-15.31413
 30
0.0
 10
-10.68762
 20
-15.31413
 30
0.0
 10
-10.68762
 20
-15.31413
 30
0.0
 10
-10.68762
 20
-15.31413
 30
0.0
 10
-10.70202
 20
-15.31413
 30
0.0
 10
-10.70202
 20
-15.31413
 30
0.0
 10
-10.70202
 20
-15.31413
 30
0.0
 10
-10.70202
 20
-15.31413
 30
0.0
 10
-10.70202
 20
-15.3071
 30
0.0
 10
-10.70202
 20
-15.3071
 30
0.0
 10
-10.70202
 20
-15.3071
 30
0.0
 10
-10.70202
 20
-15.3071
 30
0.0
 10
-10.67864
 20
-15.3071
 30
0.0
 10
-10.67864
 20
-15.3071
 30
0.0
 10
-10.67864
 20
-15.3071
 30
0.0
 10
-10.67864
 20
-15.3071
 30
0.0
 10
-10.67864
 20
-15.3638
 30
0.0
 10
-10.67864
 20
-15.3638
 30
0.0
  0
SPLINE
  5
99
330
1F
100
AcDbEntity
  8
Layer 1
 62
   250
100
AcDbSpline
210
0.0
220
0.0
230
1.0
 70
    11
 71
     3
 72
    76
 73
    72
 74
     0
 42
0.0000000001
 43
0.0000000001
 40
0.0
 40
0.0
 40
0.0
 40
0.0
 40
0.0555555555555556
 40
0.0555555555555556
 40
0.0555555555555556
 40
0.0555555555555556
 40
0.1111111111111111
 40
0.1111111111111111
 40
0.1111111111111111
 40
0.1111111111111111
 40
0.1666666666666667
 40
0.1666666666666667
 40
0.1666666666666667
 40
0.1666666666666667
 40
0.2222222222222222
 40
0.2222222222222222
 40
0.2222222222222222
 40
0.2222222222222222
 40
0.2777777777777778
 40
0.2777777777777778
 40
0.2777777777777778
 40
0.2777777777777778
 40
0.3333333333333334
 40
0.3333333333333334
 40
0.3333333333333334
 40
0.3333333333333334
 40
0.388888888888889
 40
0.388888888888889
 40
0.388888888888889
 40
0.388888888888889
 40
0.4444444444444445
 40
0.4444444444444445
 40
0.4444444444444445
 40
0.4444444444444445
 40
0.5000000000000001
 40
0.5000000000000001
 40
0.5000000000000001
 40
0.5000000000000001
 40
0.5555555555555557
 40
0.5555555555555557
 40
0.5555555555555557
 40
0.5555555555555557
 40
0.6111111111111113
 40
0.6111111111111113
 40
0.6111111111111113
 40
0.6111111111111113
 40
0.6666666666666669
 40
0.6666666666666669
 40
0.6666666666666669
 40
0.6666666666666669
 40
0.7222222222222224
 40
0.7222222222222224
 40
0.7222222222222224
 40
0.7222222222222224
 40
0.777777777777778
 40
0.777777777777778
 40
0.777777777777778
 40
0.777777777777778
 40
0.8333333333333336
 40
0.8333333333333336
 40
0.8333333333333336
 40
0.8333333333333336
 40
0.8888888888888892
 40
0.8888888888888892
 40
0.8888888888888892
 40
0.8888888888888892
 40
0.9444444444444448
 40
0.9444444444444448
 40
0.9444444444444448
 40
0.9444444444444448
 40
1.0
 40
1.0
 40
1.0
 40
1.0
 10
-10.61964
 20
-15.3134
 30
0.0
 10
-10.61964
 20
-15.3134
 30
0.0
 10
-10.61964
 20
-15.32893
 30
0.0
 10
-10.61964
 20
-15.32893
 30
0.0
 10
-10.61964
 20
-15.32893
 30
0.0
 10
-10.61964
 20
-15.32893
 30
0.0
 10
-10.59922
 20
-15.32893
 30
0.0
 10
-10.59922
 20
-15.32893
 30
0.0
 10
-10.59922
 20
-15.32893
 30
0.0
 10
-10.59922
 20
-15.32893
 30
0.0
 10
-10.59922
 20
-15.33592
 30
0.0
 10
-10.59922
 20
-15.33592
 30
0.0
 10
-10.59922
 20
-15.33592
 30
0.0
 10
-10.59922
 20
-15.33592
 30
0.0
 10
-10.61964
 20
-15.33592
 30
0.0
 10
-10.61964
 20
-15.33592
 30
0.0
 10
-10.61964
 20
-15.33592
 30
0.0
 10
-10.61964
 20
-15.33592
 30
0.0
 10
-10.61964
 20
-15.3656
 30
0.0
 10
-10.61964
 20
-15.3656
 30
0.0
 10
-10.61964
 20
-15.3656
 30
0.0
 10
-10.61964
 20
-15.36964
 30
0.0
 10
-10.61888
 20
-15.37245
 30
0.0
 10
-10.61734
 20
-15.37404
 30
0.0
 10
-10.61734
 20
-15.37404
 30
0.0
 10
-10.61581
 20
-15.37564
 30
0.0
 10
-10.61314
 20
-15.37644
 30
0.0
 10
-10.60934
 20
-15.37644
 30
0.0
 10
-10.60934
 20
-15.37644
 30
0.0
 10
-10.60934
 20
-15.37644
 30
0.0
 10
-10.59922
 20
-15.37644
 30
0.0
 10
-10.59922
 20
-15.37644
 30
0.0
 10
-10.59922
 20
-15.37644
 30
0.0
 10
-10.59922
 20
-15.37644
 30
0.0
 10
-10.59922
 20
-15.38362
 30
0.0
 10
-10.59922
 20
-15.38362
 30
0.0
 10
-10.59922
 20
-15.38362
 30
0.0
 10
-10.59922
 20
-15.38362
 30
0.0
 10
-10.61021
 20
-15.38362
 30
0.0
 10
-10.61021
 20
-15.38362
 30
0.0
 10
-10.61021
 20
-15.38362
 30
0.0
 10
-10.61696
 20
-15.38362
 30
0.0
 10
-10.62171
 20
-15.38227
 30
0.0
 10
-10.62448
 20
-15.37957
 30
0.0
 10
-10.62448
 20
-15.37957
 30
0.0
 10
-10.62724
 20
-15.37687
 30
0.0
 10
-10.62863
 20
-15.3722
 30
0.0
 10
-10.62863
 20
-15.3656
 30
0.0
 10
-10.62863
 20
-15.3656
 30
0.0
 10
-10.62863
 20
-15.3656
 30
0.0
 10
-10.62863
 20
-15.33592
 30
0.0
 10
-10.62863
 20
-15.33592
 30
0.0
 10
-10.62863
 20
-15.33592
 30
0.0
 10
-10.62863
 20
-15.33592
 30
0.0
 10
-10.64323
 20
-15.33592
 30
0.0
 10
-10.64323
 20
-15.33592
 30
0.0
 10
-10.64323
 20
-15.33592
 30
0.0
 10
-10.64323
 20
-15.33592
 30
0.0
 10
-10.64323
 20
-15.32893
 30
0.0
 10
-10.64323
 20
-15.32893
 30
0.0
 10
-10.64323
 20
-15.32893
 30
0.0
 10
-10.64323
 20
-15.32893
 30
0.0
 10
-10.62863
 20
-15.32893
 30
0.0
 10
-10.62863
 20
-15.32893
 30
0.0
 10
-10.62863
 20
-15.32893
 30
0.0
 10
-10.62863
 20
-15.32893
 30
0.0
 10
-10.62863
 20
-15.3134
 30
0.0
 10
-10.62863
 20
-15.3134
 30
0.0
 10
-10.62863
 20
-15.3134
 30
0.0
 10
-10.62863
 20
-15.3134
 30
0.0
 10
-10.61964
 20
-15.3134
 30
0.0
 10
-10.61964
 20
-15.3134
 30
0.0
  0
SPLINE
  5
9A
330
1F
100
AcDbEntity
  8
Layer 1
 62
   250
100
AcDbSpline
210
0.0
220
0.0
230
1.0
 70
    11
 71
     3
 72
    20
 73
    16
 74
     0
 42
0.0000000001
 43
0.0000000001
 40
0.0
 40
0.0
 40
0.0
 40
0.0
 40
0.25
 40
0.25
 40
0.25
 40
0.25
 40
0.5
 40
0.5
 40
0.5
 40
0.5
 40
0.75
 40
0.75
 40
0.75
 40
0.75
 40
1.0
 40
1.0
 40
1.0
 40
1.0
 10
-10.546
 20
-15.31071
 30
0.0
 10
-10.546
 20
-15.31071
 30
0.0
 10
-10.53671
 20
-15.31071
 30
0.0
 10
-10.53671
 20
-15.31071
 30
0.0
 10
-10.53671
 20
-15.31071
 30
0.0
 10
-10.53671
 20
-15.31071
 30
0.0
 10
-10.5751
 20
-15.3929
 30
0.0
 10
-10.5751
 20
-15.3929
 30
0.0
 10
-10.5751
 20
-15.3929
 30
0.0
 10
-10.5751
 20
-15.3929
 30
0.0
 10
-10.58444
 20
-15.3929
 30
0.0
 10
-10.58444
 20
-15.3929
 30
0.0
 10
-10.58444
 20
-15.3929
 30
0.0
 10
-10.58444
 20
-15.3929
 30
0.0
 10
-10.546
 20
-15.31071
 30
0.0
 10
-10.546
 20
-15.31071
 30
0.0
  0
SPLINE
  5
9B
330
1F
100
AcDbEntity
  8
Layer 1
 62
   250
100
AcDbSpline
210
0.0
220
0.0
230
1.0
 70
    11
 71
     3
 72
    76
 73
    72
 74
     0
 42
0.0000000001
 43
0.0000000001
 40
0.0
 40
0.0
 40
0.0
 40
0.0
 40
0.0555555555555556
 40
0.0555555555555556
 40
0.0555555555555556
 40
0.0555555555555556
 40
0.1111111111111111
 40
0.1111111111111111
 40
0.1111111111111111
 40
0.1111111111111111
 40
0.1666666666666667
 40
0.1666666666666667
 40
0.1666666666666667
 40
0.1666666666666667
 40
0.2222222222222222
 40
0.2222222222222222
 40
0.2222222222222222
 40
0.2222222222222222
 40
0.2777777777777778
 40
0.2777777777777778
 40
0.2777777777777778
 40
0.2777777777777778
 40
0.3333333333333334
 40
0.3333333333333334
 40
0.3333333333333334
 40
0.3333333333333334
 40
0.388888888888889
 40
0.388888888888889
 40
0.388888888888889
 40
0.388888888888889
 40
0.4444444444444445
 40
0.4444444444444445
 40
0.4444444444444445
 40
0.4444444444444445
 40
0.5000000000000001
 40
0.5000000000000001
 40
0.5000000000000001
 40
0.5000000000000001
 40
0.5555555555555557
 40
0.5555555555555557
 40
0.5555555555555557
 40
0.5555555555555557
 40
0.6111111111111113
 40
0.6111111111111113
 40
0.6111111111111113
 40
0.6111111111111113
 40
0.6666666666666669
 40
0.6666666666666669
 40
0.6666666666666669
 40
0.6666666666666669
 40
0.7222222222222224
 40
0.7222222222222224
 40
0.7222222222222224
 40
0.7222222222222224
 40
0.777777777777778
 40
0.777777777777778
 40
0.777777777777778
 40
0.777777777777778
 40
0.8333333333333336
 40
0.8333333333333336
 40
0.8333333333333336
 40
0.8333333333333336
 40
0.8888888888888892
 40
0.8888888888888892
 40
0.8888888888888892
 40
0.8888888888888892
 40
0.9444444444444448
 40
0.9444444444444448
 40
0.9444444444444448
 40
0.9444444444444448
 40
1.0
 40
1.0
 40
1.0
 40
1.0
 10
-10.47642
 20
-15.38152
 30
0.0
 10
-10.4787
 20
-15.38269
 30
0.0
 10
-10.48109
 20
-15.38357
 30
0.0
 10
-10.48361
 20
-15.38415
 30
0.0
 10
-10.48361
 20
-15.38415
 30
0.0
 10
-10.48611
 20
-15.38474
 30
0.0
 10
-10.48874
 20
-15.38504
 30
0.0
 10
-10.49151
 20
-15.38504
 30
0.0
 10
-10.49151
 20
-15.38504
 30
0.0
 10
-10.50134
 20
-15.38504
 30
0.0
 10
-10.50886
 20
-15.3818
 30
0.0
 10
-10.51403
 20
-15.37532
 30
0.0
 10
-10.51403
 20
-15.37532
 30
0.0
 10
-10.51921
 20
-15.36884
 30
0.0
 10
-10.52179
 20
-15.35948
 30
0.0
 10
-10.52179
 20
-15.34723
 30
0.0
 10
-10.52179
 20
-15.34723
 30
0.0
 10
-10.52179
 20
-15.33497
 30
0.0
 10
-10.51921
 20
-15.3256
 30
0.0
 10
-10.51403
 20
-15.31911
 30
0.0
 10
-10.51403
 20
-15.31911
 30
0.0
 10
-10.50886
 20
-15.31263
 30
0.0
 10
-10.50134
 20
-15.3094
 30
0.0
 10
-10.49151
 20
-15.3094
 30
0.0
 10
-10.49151
 20
-15.3094
 30
0.0
 10
-10.48874
 20
-15.3094
 30
0.0
 10
-10.48609
 20
-15.3097
 30
0.0
 10
-10.48356
 20
-15.31028
 30
0.0
 10
-10.48356
 20
-15.31028
 30
0.0
 10
-10.48101
 20
-15.31086
 30
0.0
 10
-10.47864
 20
-15.31175
 30
0.0
 10
-10.47642
 20
-15.31291
 30
0.0
 10
-10.47642
 20
-15.31291
 30
0.0
 10
-10.47642
 20
-15.31291
 30
0.0
 10
-10.47642
 20
-15.32893
 30
0.0
 10
-10.47642
 20
-15.32893
 30
0.0
 10
-10.47642
 20
-15.32893
 30
0.0
 10
-10.47889
 20
-15.32665
 30
0.0
 10
-10.48131
 20
-15.32498
 30
0.0
 10
-10.48362
 20
-15.32391
 30
0.0
 10
-10.48362
 20
-15.32391
 30
0.0
 10
-10.48596
 20
-15.32286
 30
0.0
 10
-10.48836
 20
-15.32233
 30
0.0
 10
-10.49084
 20
-15.32233
 30
0.0
 10
-10.49084
 20
-15.32233
 30
0.0
 10
-10.49611
 20
-15.32233
 30
0.0
 10
-10.50009
 20
-15.32443
 30
0.0
 10
-10.50277
 20
-15.32861
 30
0.0
 10
-10.50277
 20
-15.32861
 30
0.0
 10
-10.50546
 20
-15.3328
 30
0.0
 10
-10.50681
 20
-15.339
 30
0.0
 10
-10.50681
 20
-15.34723
 30
0.0
 10
-10.50681
 20
-15.34723
 30
0.0
 10
-10.50681
 20
-15.35545
 30
0.0
 10
-10.50546
 20
-15.36163
 30
0.0
 10
-10.50277
 20
-15.36582
 30
0.0
 10
-10.50277
 20
-15.36582
 30
0.0
 10
-10.50009
 20
-15.37
 30
0.0
 10
-10.49611
 20
-15.3721
 30
0.0
 10
-10.49084
 20
-15.3721
 30
0.0
 10
-10.49084
 20
-15.3721
 30
0.0
 10
-10.48836
 20
-15.3721
 30
0.0
 10
-10.48596
 20
-15.37157
 30
0.0
 10
-10.48362
 20
-15.37052
 30
0.0
 10
-10.48362
 20
-15.37052
 30
0.0
 10
-10.48131
 20
-15.36945
 30
0.0
 10
-10.47889
 20
-15.36779
 30
0.0
 10
-10.47642
 20
-15.3655
 30
0.0
 10
-10.47642
 20
-15.3655
 30
0.0
 10
-10.47642
 20
-15.3655
 30
0.0
 10
-10.47642
 20
-15.38152
 30
0.0
 10
-10.47642
 20
-15.38152
 30
0.0
  0
SPLINE
  5
9C
330
1F
100
AcDbEntity
  8
Layer 1
 62
   250
100
AcDbSpline
210
0.0
220
0.0
230
1.0
 70
    11
 71
     3
 72
    16
 73
    12
 74
     0
 42
0.0000000001
 43
0.0000000001
 40
0.0
 40
0.0
 40
0.0
 40
0.0
 40
0.3333333333333333
 40
0.3333333333333333
 40
0.3333333333333333
 40
0.3333333333333333
 40
0.6666666666666666
 40
0.6666666666666666
 40
0.6666666666666666
 40
0.6666666666666666
 40
1.0
 40
1.0
 40
1.0
 40
1.0
 10
-10.4351
 20
-15.32673
 30
0.0
 10
-10.4351
 20
-15.32673
 30
0.0
 10
-10.45352
 20
-15.35553
 30
0.0
 10
-10.45352
 20
-15.35553
 30
0.0
 10
-10.45352
 20
-15.35553
 30
0.0
 10
-10.45352
 20
-15.35553
 30
0.0
 10
-10.4351
 20
-15.35553
 30
0.0
 10
-10.4351
 20
-15.35553
 30
0.0
 10
-10.4351
 20
-15.35553
 30
0.0
 10
-10.4351
 20
-15.35553
 30
0.0
 10
-10.4351
 20
-15.32673
 30
0.0
 10
-10.4351
 20
-15.32673
 30
0.0
  0
SPLINE
  5
9D
330
1F
100
AcDbEntity
  8
Layer 1
 62
   250
100
AcDbSpline
210
0.0
220
0.0
230
1.0
 70
    11
 71
     3
 72
    48
 73
    44
 74
     0
 42
0.0000000001
 43
0.0000000001
 40
0.0
 40
0.0
 40
0.0
 40
0.0
 40
0.0909090909090909
 40
0.0909090909090909
 40
0.0909090909090909
 40
0.0909090909090909
 40
0.1818181818181818
 40
0.1818181818181818
 40
0.1818181818181818
 40
0.1818181818181818
 40
0.2727272727272727
 40
0.2727272727272727
 40
0.2727272727272727
 40
0.2727272727272727
 40
0.3636363636363636
 40
0.3636363636363636
 40
0.3636363636363636
 40
0.3636363636363636
 40
0.4545454545454546
 40
0.4545454545454546
 40
0.4545454545454546
 40
0.4545454545454546
 40
0.5454545454545455
 40
0.5454545454545455
 40
0.5454545454545455
 40
0.5454545454545455
 40
0.6363636363636365
 40
0.6363636363636365
 40
0.6363636363636365
 40
0.6363636363636365
 40
0.7272727272727274
 40
0.7272727272727274
 40
0.7272727272727274
 40
0.7272727272727274
 40
0.8181818181818183
 40
0.8181818181818183
 40
0.8181818181818183
 40
0.8181818181818183
 40
0.9090909090909093
 40
0.9090909090909093
 40
0.9090909090909093
 40
0.9090909090909093
 40
1.0
 40
1.0
 40
1.0
 40
1.0
 10
-10.43636
 20
-15.31071
 30
0.0
 10
-10.43636
 20
-15.31071
 30
0.0
 10
-10.42128
 20
-15.31071
 30
0.0
 10
-10.42128
 20
-15.31071
 30
0.0
 10
-10.42128
 20
-15.31071
 30
0.0
 10
-10.42128
 20
-15.31071
 30
0.0
 10
-10.42128
 20
-15.35553
 30
0.0
 10
-10.42128
 20
-15.35553
 30
0.0
 10
-10.42128
 20
-15.35553
 30
0.0
 10
-10.42128
 20
-15.35553
 30
0.0
 10
-10.41328
 20
-15.35553
 30
0.0
 10
-10.41328
 20
-15.35553
 30
0.0
 10
-10.41328
 20
-15.35553
 30
0.0
 10
-10.41328
 20
-15.35553
 30
0.0
 10
-10.41328
 20
-15.36789
 30
0.0
 10
-10.41328
 20
-15.36789
 30
0.0
 10
-10.41328
 20
-15.36789
 30
0.0
 10
-10.41328
 20
-15.36789
 30
0.0
 10
-10.42128
 20
-15.36789
 30
0.0
 10
-10.42128
 20
-15.36789
 30
0.0
 10
-10.42128
 20
-15.36789
 30
0.0
 10
-10.42128
 20
-15.36789
 30
0.0
 10
-10.42128
 20
-15.38362
 30
0.0
 10
-10.42128
 20
-15.38362
 30
0.0
 10
-10.42128
 20
-15.38362
 30
0.0
 10
-10.42128
 20
-15.38362
 30
0.0
 10
-10.4351
 20
-15.38362
 30
0.0
 10
-10.4351
 20
-15.38362
 30
0.0
 10
-10.4351
 20
-15.38362
 30
0.0
 10
-10.4351
 20
-15.38362
 30
0.0
 10
-10.4351
 20
-15.36789
 30
0.0
 10
-10.4351
 20
-15.36789
 30
0.0
 10
-10.4351
 20
-15.36789
 30
0.0
 10
-10.4351
 20
-15.36789
 30
0.0
 10
-10.46402
 20
-15.36789
 30
0.0
 10
-10.46402
 20
-15.36789
 30
0.0
 10
-10.46402
 20
-15.36789
 30
0.0
 10
-10.46402
 20
-15.36789
 30
0.0
 10
-10.46402
 20
-15.35392
 30
0.0
 10
-10.46402
 20
-15.35392
 30
0.0
 10
-10.46402
 20
-15.35392
 30
0.0
 10
-10.46402
 20
-15.35392
 30
0.0
 10
-10.43636
 20
-15.31071
 30
0.0
 10
-10.43636
 20
-15.31071
 30
0.0
  0
SPLINE
  5
9E
330
1F
100
AcDbEntity
  8
Layer 1
 62
   250
100
AcDbSpline
210
0.0
220
0.0
230
1.0
 70
    11
 71
     3
 72
    88
 73
    84
 74
     0
 42
0.0000000001
 43
0.0000000001
 40
0.0
 40
0.0
 40
0.0
 40
0.0
 40
0.0476190476190476
 40
0.0476190476190476
 40
0.0476190476190476
 40
0.0476190476190476
 40
0.0952380952380952
 40
0.0952380952380952
 40
0.0952380952380952
 40
0.0952380952380952
 40
0.1428571428571428
 40
0.1428571428571428
 40
0.1428571428571428
 40
0.1428571428571428
 40
0.1904761904761905
 40
0.1904761904761905
 40
0.1904761904761905
 40
0.1904761904761905
 40
0.2380952380952381
 40
0.2380952380952381
 40
0.2380952380952381
 40
0.2380952380952381
 40
0.2857142857142857
 40
0.2857142857142857
 40
0.2857142857142857
 40
0.2857142857142857
 40
0.3333333333333333
 40
0.3333333333333333
 40
0.3333333333333333
 40
0.3333333333333333
 40
0.3809523809523809
 40
0.3809523809523809
 40
0.3809523809523809
 40
0.3809523809523809
 40
0.4285714285714285
 40
0.4285714285714285
 40
0.4285714285714285
 40
0.4285714285714285
 40
0.4761904761904762
 40
0.4761904761904762
 40
0.4761904761904762
 40
0.4761904761904762
 40
0.5238095238095237
 40
0.5238095238095237
 40
0.5238095238095237
 40
0.5238095238095237
 40
0.5714285714285714
 40
0.5714285714285714
 40
0.5714285714285714
 40
0.5714285714285714
 40
0.6190476190476191
 40
0.6190476190476191
 40
0.6190476190476191
 40
0.6190476190476191
 40
0.6666666666666667
 40
0.6666666666666667
 40
0.6666666666666667
 40
0.6666666666666667
 40
0.7142857142857144
 40
0.7142857142857144
 40
0.7142857142857144
 40
0.7142857142857144
 40
0.7619047619047621
 40
0.7619047619047621
 40
0.7619047619047621
 40
0.7619047619047621
 40
0.8095238095238098
 40
0.8095238095238098
 40
0.8095238095238098
 40
0.8095238095238098
 40
0.8571428571428574
 40
0.8571428571428574
 40
0.8571428571428574
 40
0.8571428571428574
 40
0.9047619047619051
 40
0.9047619047619051
 40
0.9047619047619051
 40
0.9047619047619051
 40
0.9523809523809528
 40
0.9523809523809528
 40
0.9523809523809528
 40
0.9523809523809528
 40
1.0
 40
1.0
 40
1.0
 40
1.0
 10
-10.3876
 20
-15.37092
 30
0.0
 10
-10.3876
 20
-15.37092
 30
0.0
 10
-10.35688
 20
-15.37092
 30
0.0
 10
-10.35688
 20
-15.37092
 30
0.0
 10
-10.35688
 20
-15.37092
 30
0.0
 10
-10.35688
 20
-15.37092
 30
0.0
 10
-10.35688
 20
-15.38362
 30
0.0
 10
-10.35688
 20
-15.38362
 30
0.0
 10
-10.35688
 20
-15.38362
 30
0.0
 10
-10.35688
 20
-15.38362
 30
0.0
 10
-10.40317
 20
-15.38362
 30
0.0
 10
-10.40317
 20
-15.38362
 30
0.0
 10
-10.40317
 20
-15.38362
 30
0.0
 10
-10.40317
 20
-15.38362
 30
0.0
 10
-10.40317
 20
-15.3713
 30
0.0
 10
-10.40317
 20
-15.3713
 30
0.0
 10
-10.40317
 20
-15.3713
 30
0.0
 10
-10.40317
 20
-15.3713
 30
0.0
 10
-10.39536
 20
-15.36302
 30
0.0
 10
-10.39536
 20
-15.36302
 30
0.0
 10
-10.39536
 20
-15.36302
 30
0.0
 10
-10.38609
 20
-15.35315
 30
0.0
 10
-10.38045
 20
-15.34708
 30
0.0
 10
-10.37847
 20
-15.3448
 30
0.0
 10
-10.37847
 20
-15.3448
 30
0.0
 10
-10.37604
 20
-15.342
 30
0.0
 10
-10.37427
 20
-15.33952
 30
0.0
 10
-10.3732
 20
-15.33735
 30
0.0
 10
-10.3732
 20
-15.33735
 30
0.0
 10
-10.37212
 20
-15.33518
 30
0.0
 10
-10.37159
 20
-15.33305
 30
0.0
 10
-10.37159
 20
-15.33093
 30
0.0
 10
-10.37159
 20
-15.33093
 30
0.0
 10
-10.37159
 20
-15.32768
 30
0.0
 10
-10.37257
 20
-15.32516
 30
0.0
 10
-10.37454
 20
-15.3234
 30
0.0
 10
-10.37454
 20
-15.3234
 30
0.0
 10
-10.3765
 20
-15.32161
 30
0.0
 10
-10.3793
 20
-15.32073
 30
0.0
 10
-10.3829
 20
-15.32073
 30
0.0
 10
-10.3829
 20
-15.32073
 30
0.0
 10
-10.38549
 20
-15.32073
 30
0.0
 10
-10.38837
 20
-15.32125
 30
0.0
 10
-10.39157
 20
-15.32226
 30
0.0
 10
-10.39157
 20
-15.32226
 30
0.0
 10
-10.39479
 20
-15.3233
 30
0.0
 10
-10.39812
 20
-15.32478
 30
0.0
 10
-10.40161
 20
-15.32673
 30
0.0
 10
-10.40161
 20
-15.32673
 30
0.0
 10
-10.40161
 20
-15.32673
 30
0.0
 10
-10.40161
 20
-15.3133
 30
0.0
 10
-10.40161
 20
-15.3133
 30
0.0
 10
-10.40161
 20
-15.3133
 30
0.0
 10
-10.39812
 20
-15.31203
 30
0.0
 10
-10.39472
 20
-15.31106
 30
0.0
 10
-10.39137
 20
-15.3104
 30
0.0
 10
-10.39137
 20
-15.3104
 30
0.0
 10
-10.38804
 20
-15.30973
 30
0.0
 10
-10.38484
 20
-15.3094
 30
0.0
 10
-10.38179
 20
-15.3094
 30
0.0
 10
-10.38179
 20
-15.3094
 30
0.0
 10
-10.37407
 20
-15.3094
 30
0.0
 10
-10.368
 20
-15.3112
 30
0.0
 10
-10.3636
 20
-15.3148
 30
0.0
 10
-10.3636
 20
-15.3148
 30
0.0
 10
-10.35919
 20
-15.31838
 30
0.0
 10
-10.35698
 20
-15.3233
 30
0.0
 10
-10.35698
 20
-15.32951
 30
0.0
 10
-10.35698
 20
-15.32951
 30
0.0
 10
-10.35698
 20
-15.33238
 30
0.0
 10
-10.35747
 20
-15.33507
 30
0.0
 10
-10.35842
 20
-15.33757
 30
0.0
 10
-10.35842
 20
-15.33757
 30
0.0
 10
-10.35939
 20
-15.34008
 30
0.0
 10
-10.36104
 20
-15.34287
 30
0.0
 10
-10.36339
 20
-15.34592
 30
0.0
 10
-10.36339
 20
-15.34592
 30
0.0
 10
-10.3651
 20
-15.34813
 30
0.0
 10
-10.36984
 20
-15.35312
 30
0.0
 10
-10.37759
 20
-15.36087
 30
0.0
 10
-10.37759
 20
-15.36087
 30
0.0
 10
-10.38179
 20
-15.36505
 30
0.0
 10
-10.38512
 20
-15.36842
 30
0.0
 10
-10.3876
 20
-15.37092
 30
0.0
  0
SPLINE
  5
9F
330
1F
100
AcDbEntity
  8
Layer 1
 62
   250
100
AcDbSpline
210
0.0
220
0.0
230
1.0
 70
    11
 71
     3
 72
    44
 73
    40
 74
     0
 42
0.0000000001
 43
0.0000000001
 40
0.0
 40
0.0
 40
0.0
 40
0.0
 40
0.1
 40
0.1
 40
0.1
 40
0.1
 40
0.2
 40
0.2
 40
0.2
 40
0.2
 40
0.3
 40
0.3
 40
0.3
 40
0.3
 40
0.4
 40
0.4
 40
0.4
 40
0.4
 40
0.5
 40
0.5
 40
0.5
 40
0.5
 40
0.6
 40
0.6
 40
0.6
 40
0.6
 40
0.7
 40
0.7
 40
0.7
 40
0.7
 40
0.7999999999999999
 40
0.7999999999999999
 40
0.7999999999999999
 40
0.7999999999999999
 40
0.8999999999999999
 40
0.8999999999999999
 40
0.8999999999999999
 40
0.8999999999999999
 40
1.0
 40
1.0
 40
1.0
 40
1.0
 10
-10.34276
 20
-15.31071
 30
0.0
 10
-10.34276
 20
-15.31071
 30
0.0
 10
-10.32728
 20
-15.31071
 30
0.0
 10
-10.32728
 20
-15.31071
 30
0.0
 10
-10.32728
 20
-15.31071
 30
0.0
 10
-10.32728
 20
-15.31071
 30
0.0
 10
-10.30698
 20
-15.3637
 30
0.0
 10
-10.30698
 20
-15.3637
 30
0.0
 10
-10.30698
 20
-15.3637
 30
0.0
 10
-10.30698
 20
-15.3637
 30
0.0
 10
-10.30698
 20
-15.31071
 30
0.0
 10
-10.30698
 20
-15.31071
 30
0.0
 10
-10.30698
 20
-15.31071
 30
0.0
 10
-10.30698
 20
-15.31071
 30
0.0
 10
-10.29427
 20
-15.31071
 30
0.0
 10
-10.29427
 20
-15.31071
 30
0.0
 10
-10.29427
 20
-15.31071
 30
0.0
 10
-10.29427
 20
-15.31071
 30
0.0
 10
-10.29427
 20
-15.38362
 30
0.0
 10
-10.29427
 20
-15.38362
 30
0.0
 10
-10.29427
 20
-15.38362
 30
0.0
 10
-10.29427
 20
-15.38362
 30
0.0
 10
-10.30966
 20
-15.38362
 30
0.0
 10
-10.30966
 20
-15.38362
 30
0.0
 10
-10.30966
 20
-15.38362
 30
0.0
 10
-10.30966
 20
-15.38362
 30
0.0
 10
-10.33006
 20
-15.33063
 30
0.0
 10
-10.33006
 20
-15.33063
 30
0.0
 10
-10.33006
 20
-15.33063
 30
0.0
 10
-10.33006
 20
-15.33063
 30
0.0
 10
-10.33006
 20
-15.38362
 30
0.0
 10
-10.33006
 20
-15.38362
 30
0.0
 10
-10.33006
 20
-15.38362
 30
0.0
 10
-10.33006
 20
-15.38362
 30
0.0
 10
-10.34276
 20
-15.38362
 30
0.0
 10
-10.34276
 20
-15.38362
 30
0.0
 10
-10.34276
 20
-15.38362
 30
0.0
 10
-10.34276
 20
-15.38362
 30
0.0
 10
-10.34276
 20
-15.31071
 30
0.0
 10
-10.34276
 20
-15.31071
 30
0.0
  0
SPLINE
  5
A0
330
1F
100
AcDbEntity
  8
Layer 1
 62
   250
100
AcDbSpline
210
0.0
220
0.0
230
1.0
 70
    11
 71
     3
 72
    36
 73
    32
 74
     0
 42
0.0000000001
 43
0.0000000001
 40
0.0
 40
0.0
 40
0.0
 40
0.0
 40
0.125
 40
0.125
 40
0.125
 40
0.125
 40
0.25
 40
0.25
 40
0.25
 40
0.25
 40
0.375
 40
0.375
 40
0.375
 40
0.375
 40
0.5
 40
0.5
 40
0.5
 40
0.5
 40
0.625
 40
0.625
 40
0.625
 40
0.625
 40
0.75
 40
0.75
 40
0.75
 40
0.75
 40
0.875
 40
0.875
 40
0.875
 40
0.875
 40
1.0
 40
1.0
 40
1.0
 40
1.0
 10
-10.26435
 20
-15.34723
 30
0.0
 10
-10.26435
 20
-15.34552
 30
0.0
 10
-10.26377
 20
-15.34407
 30
0.0
 10
-10.26258
 20
-15.3429
 30
0.0
 10
-10.26258
 20
-15.3429
 30
0.0
 10
-10.26142
 20
-15.34172
 30
0.0
 10
-10.25998
 20
-15.34113
 30
0.0
 10
-10.25828
 20
-15.34113
 30
0.0
 10
-10.25828
 20
-15.34113
 30
0.0
 10
-10.25657
 20
-15.34113
 30
0.0
 10
-10.25512
 20
-15.34172
 30
0.0
 10
-10.25395
 20
-15.3429
 30
0.0
 10
-10.25395
 20
-15.3429
 30
0.0
 10
-10.25277
 20
-15.34407
 30
0.0
 10
-10.25218
 20
-15.34552
 30
0.0
 10
-10.25218
 20
-15.34723
 30
0.0
 10
-10.25218
 20
-15.34723
 30
0.0
 10
-10.25218
 20
-15.34893
 30
0.0
 10
-10.25277
 20
-15.35037
 30
0.0
 10
-10.25395
 20
-15.35153
 30
0.0
 10
-10.25395
 20
-15.35153
 30
0.0
 10
-10.25512
 20
-15.35272
 30
0.0
 10
-10.25657
 20
-15.3533
 30
0.0
 10
-10.25828
 20
-15.3533
 30
0.0
 10
-10.25828
 20
-15.3533
 30
0.0
 10
-10.25998
 20
-15.3533
 30
0.0
 10
-10.26142
 20
-15.35272
 30
0.0
 10
-10.26258
 20
-15.35157
 30
0.0
 10
-10.26258
 20
-15.35157
 30
0.0
 10
-10.26377
 20
-15.35042
 30
0.0
 10
-10.26435
 20
-15.34897
 30
0.0
 10
-10.26435
 20
-15.34723
 30
0.0
  0
SPLINE
  5
A1
330
1F
100
AcDbEntity
  8
Layer 1
 62
   250
100
AcDbSpline
210
0.0
220
0.0
230
1.0
 70
    11
 71
     3
 72
    36
 73
    32
 74
     0
 42
0.0000000001
 43
0.0000000001
 40
0.0
 40
0.0
 40
0.0
 40
0.0
 40
0.125
 40
0.125
 40
0.125
 40
0.125
 40
0.25
 40
0.25
 40
0.25
 40
0.25
 40
0.375
 40
0.375
 40
0.375
 40
0.375
 40
0.5
 40
0.5
 40
0.5
 40
0.5
 40
0.625
 40
0.625
 40
0.625
 40
0.625
 40
0.75
 40
0.75
 40
0.75
 40
0.75
 40
0.875
 40
0.875
 40
0.875
 40
0.875
 40
1.0
 40
1.0
 40
1.0
 40
1.0
 10
-10.25828
 20
-15.3216
 30
0.0
 10
-10.26162
 20
-15.3216
 30
0.0
 10
-10.26403
 20
-15.32363
 30
0.0
 10
-10.26557
 20
-15.3277
 30
0.0
 10
-10.26557
 20
-15.3277
 30
0.0
 10
-10.2671
 20
-15.33178
 30
0.0
 10
-10.26787
 20
-15.33828
 30
0.0
 10
-10.26787
 20
-15.34723
 30
0.0
 10
-10.26787
 20
-15.34723
 30
0.0
 10
-10.26787
 20
-15.35617
 30
0.0
 10
-10.2671
 20
-15.36265
 30
0.0
 10
-10.26557
 20
-15.36673
 30
0.0
 10
-10.26557
 20
-15.36673
 30
0.0
 10
-10.26403
 20
-15.3708
 30
0.0
 10
-10.26162
 20
-15.37284
 30
0.0
 10
-10.25828
 20
-15.37284
 30
0.0
 10
-10.25828
 20
-15.37284
 30
0.0
 10
-10.25493
 20
-15.37284
 30
0.0
 10
-10.2525
 20
-15.3708
 30
0.0
 10
-10.25097
 20
-15.36673
 30
0.0
 10
-10.25097
 20
-15.36673
 30
0.0
 10
-10.24943
 20
-15.36265
 30
0.0
 10
-10.24867
 20
-15.35617
 30
0.0
 10
-10.24867
 20
-15.34723
 30
0.0
 10
-10.24867
 20
-15.34723
 30
0.0
 10
-10.24867
 20
-15.33828
 30
0.0
 10
-10.24943
 20
-15.33178
 30
0.0
 10
-10.25097
 20
-15.3277
 30
0.0
 10
-10.25097
 20
-15.3277
 30
0.0
 10
-10.2525
 20
-15.32363
 30
0.0
 10
-10.25493
 20
-15.3216
 30
0.0
 10
-10.25828
 20
-15.3216
 30
0.0
  0
SPLINE
  5
A2
330
1F
100
AcDbEntity
  8
Layer 1
 62
   250
100
AcDbSpline
210
0.0
220
0.0
230
1.0
 70
    11
 71
     3
 72
    36
 73
    32
 74
     0
 42
0.0000000001
 43
0.0000000001
 40
0.0
 40
0.0
 40
0.0
 40
0.0
 40
0.125
 40
0.125
 40
0.125
 40
0.125
 40
0.25
 40
0.25
 40
0.25
 40
0.25
 40
0.375
 40
0.375
 40
0.375
 40
0.375
 40
0.5
 40
0.5
 40
0.5
 40
0.5
 40
0.625
 40
0.625
 40
0.625
 40
0.625
 40
0.75
 40
0.75
 40
0.75
 40
0.75
 40
0.875
 40
0.875
 40
0.875
 40
0.875
 40
1.0
 40
1.0
 40
1.0
 40
1.0
 10
-10.28237
 20
-15.34723
 30
0.0
 10
-10.28237
 20
-15.33462
 30
0.0
 10
-10.28037
 20
-15.32515
 30
0.0
 10
-10.27637
 20
-15.31885
 30
0.0
 10
-10.27637
 20
-15.31885
 30
0.0
 10
-10.27235
 20
-15.31255
 30
0.0
 10
-10.26633
 20
-15.3094
 30
0.0
 10
-10.25828
 20
-15.3094
 30
0.0
 10
-10.25828
 20
-15.3094
 30
0.0
 10
-10.25022
 20
-15.3094
 30
0.0
 10
-10.24418
 20
-15.31253
 30
0.0
 10
-10.24017
 20
-15.31881
 30
0.0
 10
-10.24017
 20
-15.31881
 30
0.0
 10
-10.23616
 20
-15.3251
 30
0.0
 10
-10.23416
 20
-15.33458
 30
0.0
 10
-10.23416
 20
-15.34723
 30
0.0
 10
-10.23416
 20
-15.34723
 30
0.0
 10
-10.23416
 20
-15.35987
 30
0.0
 10
-10.23616
 20
-15.36934
 30
0.0
 10
-10.24017
 20
-15.37562
 30
0.0
 10
-10.24017
 20
-15.37562
 30
0.0
 10
-10.24418
 20
-15.3819
 30
0.0
 10
-10.25022
 20
-15.38504
 30
0.0
 10
-10.25828
 20
-15.38504
 30
0.0
 10
-10.25828
 20
-15.38504
 30
0.0
 10
-10.26633
 20
-15.38504
 30
0.0
 10
-10.27235
 20
-15.38189
 30
0.0
 10
-10.27637
 20
-15.37559
 30
0.0
 10
-10.27637
 20
-15.37559
 30
0.0
 10
-10.28037
 20
-15.36929
 30
0.0
 10
-10.28237
 20
-15.35983
 30
0.0
 10
-10.28237
 20
-15.34723
 30
0.0
  0
SPLINE
  5
A3
330
1F
100
AcDbEntity
  8
Layer 1
 62
   250
100
AcDbSpline
210
0.0
220
0.0
230
1.0
 70
    11
 71
     3
 72
    16
 73
    12
 74
     0
 42
0.0000000001
 43
0.0000000001
 40
0.0
 40
0.0
 40
0.0
 40
0.0
 40
0.3333333333333333
 40
0.3333333333333333
 40
0.3333333333333333
 40
0.3333333333333333
 40
0.6666666666666666
 40
0.6666666666666666
 40
0.6666666666666666
 40
0.6666666666666666
 40
1.0
 40
1.0
 40
1.0
 40
1.0
 10
-10.19426
 20
-15.32673
 30
0.0
 10
-10.19426
 20
-15.32673
 30
0.0
 10
-10.21268
 20
-15.35553
 30
0.0
 10
-10.21268
 20
-15.35553
 30
0.0
 10
-10.21268
 20
-15.35553
 30
0.0
 10
-10.21268
 20
-15.35553
 30
0.0
 10
-10.19426
 20
-15.35553
 30
0.0
 10
-10.19426
 20
-15.35553
 30
0.0
 10
-10.19426
 20
-15.35553
 30
0.0
 10
-10.19426
 20
-15.35553
 30
0.0
 10
-10.19426
 20
-15.32673
 30
0.0
 10
-10.19426
 20
-15.32673
 30
0.0
  0
SPLINE
  5
A4
330
1F
100
AcDbEntity
  8
Layer 1
 62
   250
100
AcDbSpline
210
0.0
220
0.0
230
1.0
 70
    11
 71
     3
 72
    48
 73
    44
 74
     0
 42
0.0000000001
 43
0.0000000001
 40
0.0
 40
0.0
 40
0.0
 40
0.0
 40
0.0909090909090909
 40
0.0909090909090909
 40
0.0909090909090909
 40
0.0909090909090909
 40
0.1818181818181818
 40
0.1818181818181818
 40
0.1818181818181818
 40
0.1818181818181818
 40
0.2727272727272727
 40
0.2727272727272727
 40
0.2727272727272727
 40
0.2727272727272727
 40
0.3636363636363636
 40
0.3636363636363636
 40
0.3636363636363636
 40
0.3636363636363636
 40
0.4545454545454546
 40
0.4545454545454546
 40
0.4545454545454546
 40
0.4545454545454546
 40
0.5454545454545455
 40
0.5454545454545455
 40
0.5454545454545455
 40
0.5454545454545455
 40
0.6363636363636365
 40
0.6363636363636365
 40
0.6363636363636365
 40
0.6363636363636365
 40
0.7272727272727274
 40
0.7272727272727274
 40
0.7272727272727274
 40
0.7272727272727274
 40
0.8181818181818183
 40
0.8181818181818183
 40
0.8181818181818183
 40
0.8181818181818183
 40
0.9090909090909093
 40
0.9090909090909093
 40
0.9090909090909093
 40
0.9090909090909093
 40
1.0
 40
1.0
 40
1.0
 40
1.0
 10
-10.19552
 20
-15.31071
 30
0.0
 10
-10.19552
 20
-15.31071
 30
0.0
 10
-10.18044
 20
-15.31071
 30
0.0
 10
-10.18044
 20
-15.31071
 30
0.0
 10
-10.18044
 20
-15.31071
 30
0.0
 10
-10.18044
 20
-15.31071
 30
0.0
 10
-10.18044
 20
-15.35553
 30
0.0
 10
-10.18044
 20
-15.35553
 30
0.0
 10
-10.18044
 20
-15.35553
 30
0.0
 10
-10.18044
 20
-15.35553
 30
0.0
 10
-10.17244
 20
-15.35553
 30
0.0
 10
-10.17244
 20
-15.35553
 30
0.0
 10
-10.17244
 20
-15.35553
 30
0.0
 10
-10.17244
 20
-15.35553
 30
0.0
 10
-10.17244
 20
-15.36789
 30
0.0
 10
-10.17244
 20
-15.36789
 30
0.0
 10
-10.17244
 20
-15.36789
 30
0.0
 10
-10.17244
 20
-15.36789
 30
0.0
 10
-10.18044
 20
-15.36789
 30
0.0
 10
-10.18044
 20
-15.36789
 30
0.0
 10
-10.18044
 20
-15.36789
 30
0.0
 10
-10.18044
 20
-15.36789
 30
0.0
 10
-10.18044
 20
-15.38362
 30
0.0
 10
-10.18044
 20
-15.38362
 30
0.0
 10
-10.18044
 20
-15.38362
 30
0.0
 10
-10.18044
 20
-15.38362
 30
0.0
 10
-10.19426
 20
-15.38362
 30
0.0
 10
-10.19426
 20
-15.38362
 30
0.0
 10
-10.19426
 20
-15.38362
 30
0.0
 10
-10.19426
 20
-15.38362
 30
0.0
 10
-10.19426
 20
-15.36789
 30
0.0
 10
-10.19426
 20
-15.36789
 30
0.0
 10
-10.19426
 20
-15.36789
 30
0.0
 10
-10.19426
 20
-15.36789
 30
0.0
 10
-10.22318
 20
-15.36789
 30
0.0
 10
-10.22318
 20
-15.36789
 30
0.0
 10
-10.22318
 20
-15.36789
 30
0.0
 10
-10.22318
 20
-15.36789
 30
0.0
 10
-10.22318
 20
-15.35392
 30
0.0
 10
-10.22318
 20
-15.35392
 30
0.0
 10
-10.22318
 20
-15.35392
 30
0.0
 10
-10.22318
 20
-15.35392
 30
0.0
 10
-10.19552
 20
-15.31071
 30
0.0
 10
-10.19552
 20
-15.31071
 30
0.0
  0
SPLINE
  5
A5
330
1F
100
AcDbEntity
  8
Layer 1
 62
   250
100
AcDbSpline
210
0.0
220
0.0
230
1.0
 70
    11
 71
     3
 72
    32
 73
    28
 74
     0
 42
0.0000000001
 43
0.0000000001
 40
0.0
 40
0.0
 40
0.0
 40
0.0
 40
0.1428571428571428
 40
0.1428571428571428
 40
0.1428571428571428
 40
0.1428571428571428
 40
0.2857142857142857
 40
0.2857142857142857
 40
0.2857142857142857
 40
0.2857142857142857
 40
0.4285714285714285
 40
0.4285714285714285
 40
0.4285714285714285
 40
0.4285714285714285
 40
0.5714285714285714
 40
0.5714285714285714
 40
0.5714285714285714
 40
0.5714285714285714
 40
0.7142857142857142
 40
0.7142857142857142
 40
0.7142857142857142
 40
0.7142857142857142
 40
0.857142857142857
 40
0.857142857142857
 40
0.857142857142857
 40
0.857142857142857
 40
1.0
 40
1.0
 40
1.0
 40
1.0
 10
-10.16135
 20
-15.31071
 30
0.0
 10
-10.16135
 20
-15.31071
 30
0.0
 10
-10.11524
 20
-15.31071
 30
0.0
 10
-10.11524
 20
-15.31071
 30
0.0
 10
-10.11524
 20
-15.31071
 30
0.0
 10
-10.11524
 20
-15.31071
 30
0.0
 10
-10.11524
 20
-15.32091
 30
0.0
 10
-10.11524
 20
-15.32091
 30
0.0
 10
-10.11524
 20
-15.32091
 30
0.0
 10
-10.11524
 20
-15.32091
 30
0.0
 10
-10.13996
 20
-15.38362
 30
0.0
 10
-10.13996
 20
-15.38362
 30
0.0
 10
-10.13996
 20
-15.38362
 30
0.0
 10
-10.13996
 20
-15.38362
 30
0.0
 10
-10.15467
 20
-15.38362
 30
0.0
 10
-10.15467
 20
-15.38362
 30
0.0
 10
-10.15467
 20
-15.38362
 30
0.0
 10
-10.15467
 20
-15.38362
 30
0.0
 10
-10.13093
 20
-15.32341
 30
0.0
 10
-10.13093
 20
-15.32341
 30
0.0
 10
-10.13093
 20
-15.32341
 30
0.0
 10
-10.13093
 20
-15.32341
 30
0.0
 10
-10.16135
 20
-15.32341
 30
0.0
 10
-10.16135
 20
-15.32341
 30
0.0
 10
-10.16135
 20
-15.32341
 30
0.0
 10
-10.16135
 20
-15.32341
 30
0.0
 10
-10.16135
 20
-15.31071
 30
0.0
 10
-10.16135
 20
-15.31071
 30
0.0
  0
SPLINE
  5
A6
330
1F
100
AcDbEntity
  8
Layer 1
 62
   250
100
AcDbSpline
210
0.0
220
0.0
230
1.0
 70
    11
 71
     3
 72
    16
 73
    12
 74
     0
 42
0.0000000001
 43
0.0000000001
 40
0.0
 40
0.0
 40
0.0
 40
0.0
 40
0.3333333333333333
 40
0.3333333333333333
 40
0.3333333333333333
 40
0.3333333333333333
 40
0.6666666666666666
 40
0.6666666666666666
 40
0.6666666666666666
 40
0.6666666666666666
 40
1.0
 40
1.0
 40
1.0
 40
1.0
 10
-10.07765
 20
-15.3239
 30
0.0
 10
-10.07765
 20
-15.3239
 30
0.0
 10
-10.08444
 20
-15.35373
 30
0.0
 10
-10.08444
 20
-15.35373
 30
0.0
 10
-10.08444
 20
-15.35373
 30
0.0
 10
-10.08444
 20
-15.35373
 30
0.0
 10
-10.07082
 20
-15.35373
 30
0.0
 10
-10.07082
 20
-15.35373
 30
0.0
 10
-10.07082
 20
-15.35373
 30
0.0
 10
-10.07082
 20
-15.35373
 30
0.0
 10
-10.07765
 20
-15.3239
 30
0.0
 10
-10.07765
 20
-15.3239
 30
0.0
  0
SPLINE
  5
A7
330
1F
100
AcDbEntity
  8
Layer 1
 62
   250
100
AcDbSpline
210
0.0
220
0.0
230
1.0
 70
    11
 71
     3
 72
    36
 73
    32
 74
     0
 42
0.0000000001
 43
0.0000000001
 40
0.0
 40
0.0
 40
0.0
 40
0.0
 40
0.125
 40
0.125
 40
0.125
 40
0.125
 40
0.25
 40
0.25
 40
0.25
 40
0.25
 40
0.375
 40
0.375
 40
0.375
 40
0.375
 40
0.5
 40
0.5
 40
0.5
 40
0.5
 40
0.625
 40
0.625
 40
0.625
 40
0.625
 40
0.75
 40
0.75
 40
0.75
 40
0.75
 40
0.875
 40
0.875
 40
0.875
 40
0.875
 40
1.0
 40
1.0
 40
1.0
 40
1.0
 10
-10.08644
 20
-15.31071
 30
0.0
 10
-10.08644
 20
-15.31071
 30
0.0
 10
-10.06882
 20
-15.31071
 30
0.0
 10
-10.06882
 20
-15.31071
 30
0.0
 10
-10.06882
 20
-15.31071
 30
0.0
 10
-10.06882
 20
-15.31071
 30
0.0
 10
-10.04913
 20
-15.38362
 30
0.0
 10
-10.04913
 20
-15.38362
 30
0.0
 10
-10.04913
 20
-15.38362
 30
0.0
 10
-10.04913
 20
-15.38362
 30
0.0
 10
-10.06354
 20
-15.38362
 30
0.0
 10
-10.06354
 20
-15.38362
 30
0.0
 10
-10.06354
 20
-15.38362
 30
0.0
 10
-10.06354
 20
-15.38362
 30
0.0
 10
-10.06804
 20
-15.3656
 30
0.0
 10
-10.06804
 20
-15.3656
 30
0.0
 10
-10.06804
 20
-15.3656
 30
0.0
 10
-10.06804
 20
-15.3656
 30
0.0
 10
-10.08732
 20
-15.3656
 30
0.0
 10
-10.08732
 20
-15.3656
 30
0.0
 10
-10.08732
 20
-15.3656
 30
0.0
 10
-10.08732
 20
-15.3656
 30
0.0
 10
-10.09172
 20
-15.38362
 30
0.0
 10
-10.09172
 20
-15.38362
 30
0.0
 10
-10.09172
 20
-15.38362
 30
0.0
 10
-10.09172
 20
-15.38362
 30
0.0
 10
-10.10612
 20
-15.38362
 30
0.0
 10
-10.10612
 20
-15.38362
 30
0.0
 10
-10.10612
 20
-15.38362
 30
0.0
 10
-10.10612
 20
-15.38362
 30
0.0
 10
-10.08644
 20
-15.31071
 30
0.0
 10
-10.08644
 20
-15.31071
 30
0.0
  0
ENDSEC
  0
SECTION
  2
OBJECTS
  0
DICTIONARY
  5
C
330
0
100
AcDbDictionary
281
     1
  3
ACAD_GROUP
350
D
  3
ACAD_LAYOUT
350
1A
  3
ACAD_MLEADERSTYLE
350
A9
  3
ACAD_MLINESTYLE
350
17
  3
ACAD_PLOTSETTINGS
350
19
  3
ACAD_PLOTSTYLENAME
350
E
  3
ACAD_SCALELIST
350
3B
  3
ACAD_TABLESTYLE
350
A8
  3
ACAD_VISUALSTYLE
350
2A
  0
DICTIONARY
  5
D
102
{ACAD_REACTORS
330
C
102
}
330
C
100
AcDbDictionary
281
     1
  0
DICTIONARY
  5
1A
102
{ACAD_REACTORS
330
C
102
}
330
C
100
AcDbDictionary
281
     1
  3
Layout1
350
1E
  3
Layout2
350
26
  3
Model
350
22
  0
DICTIONARY
  5
A9
102
{ACAD_REACTORS
330
C
102
}
330
C
100
AcDbDictionary
281
     1
  0
DICTIONARY
  5
17
102
{ACAD_REACTORS
330
C
102
}
330
C
100
AcDbDictionary
281
     1
  3
Standard
350
18
  0
DICTIONARY
  5
19
102
{ACAD_REACTORS
330
C
102
}
330
C
100
AcDbDictionary
281
     1
  0
ACDBDICTIONARYWDFLT
  5
E
102
{ACAD_REACTORS
330
C
102
}
330
C
100
AcDbDictionary
281
     1
  3
Normal
350
F
100
AcDbDictionaryWithDefault
340
F
  0
DICTIONARY
  5
3B
102
{ACAD_REACTORS
330
C
102
}
330
C
100
AcDbDictionary
281
     1
  3
A0
350
3C
  3
A1
350
3D
  3
A2
350
3E
  3
A3
350
3F
  3
A4
350
40
  3
A5
350
41
  3
A6
350
42
  3
A7
350
43
  3
A8
350
44
  3
A9
350
45
  3
B0
350
46
  3
B1
350
47
  3
B2
350
48
  3
B3
350
49
  3
B4
350
4A
  3
B5
350
4B
  3
B6
350
4C
  3
B7
350
4D
  3
B8
350
4E
  3
B9
350
4F
  3
C0
350
50
  3
C1
350
51
  3
C2
350
52
  3
C3
350
53
  3
C4
350
54
  3
C5
350
55
  3
C6
350
56
  3
C7
350
57
  3
C8
350
58
  3
C9
350
59
  3
D0
350
5A
  3
D1
350
5B
  3
D2
350
5C
  0
DICTIONARY
  5
A8
102
{ACAD_REACTORS
330
C
102
}
330
C
100
AcDbDictionary
281
     1
  0
DICTIONARY
  5
2A
102
{ACAD_REACTORS
330
C
102
}
330
C
100
AcDbDictionary
281
     1
  3
2dWireframe
350
2F
  3
3D Hidden
350
31
  3
3dWireframe
350
30
  3
Basic
350
32
  3
Brighten
350
36
  3
ColorChange
350
3A
  3
Conceptual
350
34
  3
Dim
350
35
  3
Facepattern
350
39
  3
Flat
350
2B
  3
FlatWithEdges
350
2C
  3
Gouraud
350
2D
  3
GouraudWithEdges
350
2E
  3
Linepattern
350
38
  3
Realistic
350
33
  3
Thicken
350
37
  0
LAYOUT
  5
1E
102
{ACAD_REACTORS
330
1A
102
}
330
1A
100
AcDbPlotSettings
  1

  2
none_device
  4

  6

 40
0.0
 41
0.0
 42
0.0
 43
0.0
 44
0.0
 45
0.0
 46
0.0
 47
0.0
 48
0.0
 49
0.0
140
0.0
141
0.0
142
1.0
143
1.0
 70
   688
 72
     0
 73
     0
 74
     5
  7

 75
    16
 76
     0
 77
     2
 78
   300
147
1.0
148
0.0
149
0.0
100
AcDbLayout
  1
Layout1
 70
     1
 71
     1
 10
0.0
 20
0.0
 11
12.0
 21
9.0
 12
0.0
 22
0.0
 32
0.0
 14
1.000000000000000E+20
 24
1.000000000000000E+20
 34
1.000000000000000E+20
 15
-1.000000000000000E+20
 25
-1.000000000000000E+20
 35
-1.000000000000000E+20
146
0.0
 13
0.0
 23
0.0
 33
0.0
 16
1.0
 26
0.0
 36
0.0
 17
0.0
 27
1.0
 37
0.0
 76
     0
330
1B
  0
LAYOUT
  5
26
102
{ACAD_REACTORS
330
1A
102
}
330
1A
100
AcDbPlotSettings
  1

  2
none_device
  4

  6

 40
0.0
 41
0.0
 42
0.0
 43
0.0
 44
0.0
 45
0.0
 46
0.0
 47
0.0
 48
0.0
 49
0.0
140
0.0
141
0.0
142
1.0
143
1.0
 70
   688
 72
     0
 73
     0
 74
     5
  7

 75
    16
 76
     0
 77
     2
 78
   300
147
1.0
148
0.0
149
0.0
100
AcDbLayout
  1
Layout2
 70
     1
 71
     2
 10
0.0
 20
0.0
 11
0.0
 21
0.0
 12
0.0
 22
0.0
 32
0.0
 14
0.0
 24
0.0
 34
0.0
 15
0.0
 25
0.0
 35
0.0
146
0.0
 13
0.0
 23
0.0
 33
0.0
 16
1.0
 26
0.0
 36
0.0
 17
0.0
 27
1.0
 37
0.0
 76
     0
330
23
  0
LAYOUT
  5
22
102
{ACAD_REACTORS
330
1A
102
}
330
1A
100
AcDbPlotSettings
  1

  2
none_device
  4

  6

 40
0.0
 41
0.0
 42
0.0
 43
0.0
 44
0.0
 45
0.0
 46
0.0
 47
0.0
 48
0.0
 49
0.0
140
0.0
141
0.0
142
1.0
143
1.0
 70
  1712
 72
     0
 73
     0
 74
     0
  7

 75
     0
 76
     0
 77
     2
 78
   300
147
1.0
148
0.0
149
0.0
100
AcDbLayout
  1
Model
 70
     1
 71
     0
 10
0.0
 20
0.0
 11
12.0
 21
9.0
 12
0.0
 22
0.0
 32
0.0
 14
-11.55271
 24
-15.85
 34
0.0
 15
-9.4473
 25
-13.85
 35
0.0
146
0.0
 13
0.0
 23
0.0
 33
0.0
 16
1.0
 26
0.0
 36
0.0
 17
0.0
 27
1.0
 37
0.0
 76
     0
330
1F
331
29
  0
MLINESTYLE
  5
18
102
{ACAD_REACTORS
330
17
102
}
330
17
100
AcDbMlineStyle
  2
Standard
 70
     0
  3

 62
   256
 51
90.0
 52
90.0
 71
     2
 49
0.5
 62
   256
  6
BYLAYER
 49
-0.5
 62
   256
  6
BYLAYER
  0
ACDBPLACEHOLDER
  5
F
102
{ACAD_REACTORS
330
E
102
}
330
E
  0
SCALE
  5
3C
102
{ACAD_REACTORS
330
3B
102
}
330
3B
100
AcDbScale
 70
     0
300
1:1
140
1.0
141
1.0
290
     1
  0
SCALE
  5
3D
102
{ACAD_REACTORS
330
3B
102
}
330
3B
100
AcDbScale
 70
     0
300
1:2
140
1.0
141
2.0
290
     0
  0
SCALE
  5
3E
102
{ACAD_REACTORS
330
3B
102
}
330
3B
100
AcDbScale
 70
     0
300
1:4
140
1.0
141
4.0
290
     0
  0
SCALE
  5
3F
102
{ACAD_REACTORS
330
3B
102
}
330
3B
100
AcDbScale
 70
     0
300
1:5
140
1.0
141
5.0
290
     0
  0
SCALE
  5
40
102
{ACAD_REACTORS
330
3B
102
}
330
3B
100
AcDbScale
 70
     0
300
1:8
140
1.0
141
8.0
290
     0
  0
SCALE
  5
41
102
{ACAD_REACTORS
330
3B
102
}
330
3B
100
AcDbScale
 70
     0
300
1:10
140
1.0
141
10.0
290
     0
  0
SCALE
  5
42
102
{ACAD_REACTORS
330
3B
102
}
330
3B
100
AcDbScale
 70
     0
300
1:16
140
1.0
141
16.0
290
     0
  0
SCALE
  5
43
102
{ACAD_REACTORS
330
3B
102
}
330
3B
100
AcDbScale
 70
     0
300
1:20
140
1.0
141
20.0
290
     0
  0
SCALE
  5
44
102
{ACAD_REACTORS
330
3B
102
}
330
3B
100
AcDbScale
 70
     0
300
1:30
140
1.0
141
30.0
290
     0
  0
SCALE
  5
45
102
{ACAD_REACTORS
330
3B
102
}
330
3B
100
AcDbScale
 70
     0
300
1:40
140
1.0
141
40.0
290
     0
  0
SCALE
  5
46
102
{ACAD_REACTORS
330
3B
102
}
330
3B
100
AcDbScale
 70
     0
300
1:50
140
1.0
141
50.0
290
     0
  0
SCALE
  5
47
102
{ACAD_REACTORS
330
3B
102
}
330
3B
100
AcDbScale
 70
     0
300
1:100
140
1.0
141
100.0
290
     0
  0
SCALE
  5
48
102
{ACAD_REACTORS
330
3B
102
}
330
3B
100
AcDbScale
 70
     0
300
2:1
140
2.0
141
1.0
290
     0
  0
SCALE
  5
49
102
{ACAD_REACTORS
330
3B
102
}
330
3B
100
AcDbScale
 70
     0
300
4:1
140
4.0
141
1.0
290
     0
  0
SCALE
  5
4A
102
{ACAD_REACTORS
330
3B
102
}
330
3B
100
AcDbScale
 70
     0
300
8:1
140
8.0
141
1.0
290
     0
  0
SCALE
  5
4B
102
{ACAD_REACTORS
330
3B
102
}
330
3B
100
AcDbScale
 70
     0
300
10:1
140
10.0
141
1.0
290
     0
  0
SCALE
  5
4C
102
{ACAD_REACTORS
330
3B
102
}
330
3B
100
AcDbScale
 70
     0
300
100:1
140
100.0
141
1.0
290
     0
  0
SCALE
  5
4D
102
{ACAD_REACTORS
330
3B
102
}
330
3B
100
AcDbScale
 70
     0
300
1/128" = 1'-0"
140
0.0078125
141
12.0
290
     0
  0
SCALE
  5
4E
102
{ACAD_REACTORS
330
3B
102
}
330
3B
100
AcDbScale
 70
     0
300
1/64" = 1'-0"
140
0.015625
141
12.0
290
     0
  0
SCALE
  5
4F
102
{ACAD_REACTORS
330
3B
102
}
330
3B
100
AcDbScale
 70
     0
300
1/32" = 1'-0"
140
0.03125
141
12.0
290
     0
  0
SCALE
  5
50
102
{ACAD_REACTORS
330
3B
102
}
330
3B
100
AcDbScale
 70
     0
300
1/16" = 1'-0"
140
0.0625
141
12.0
290
     0
  0
SCALE
  5
51
102
{ACAD_REACTORS
330
3B
102
}
330
3B
100
AcDbScale
 70
     0
300
3/32" = 1'-0"
140
0.09375
141
12.0
290
     0
  0
SCALE
  5
52
102
{ACAD_REACTORS
330
3B
102
}
330
3B
100
AcDbScale
 70
     0
300
1/8" = 1'-0"
140
0.125
141
12.0
290
     0
  0
SCALE
  5
53
102
{ACAD_REACTORS
330
3B
102
}
330
3B
100
AcDbScale
 70
     0
300
3/16" = 1'-0"
140
0.1875
141
12.0
290
     0
  0
SCALE
  5
54
102
{ACAD_REACTORS
330
3B
102
}
330
3B
100
AcDbScale
 70
     0
300
1/4" = 1'-0"
140
0.25
141
12.0
290
     0
  0
SCALE
  5
55
102
{ACAD_REACTORS
330
3B
102
}
330
3B
100
AcDbScale
 70
     0
300
3/8" = 1'-0"
140
0.375
141
12.0
290
     0
  0
SCALE
  5
56
102
{ACAD_REACTORS
330
3B
102
}
330
3B
100
AcDbScale
 70
     0
300
1/2" = 1'-0"
140
0.5
141
12.0
290
     0
  0
SCALE
  5
57
102
{ACAD_REACTORS
330
3B
102
}
330
3B
100
AcDbScale
 70
     0
300
3/4" = 1'-0"
140
0.75
141
12.0
290
     0
  0
SCALE
  5
58
102
{ACAD_REACTORS
330
3B
102
}
330
3B
100
AcDbScale
 70
     0
300
1" = 1'-0"
140
1.0
141
12.0
290
     0
  0
SCALE
  5
59
102
{ACAD_REACTORS
330
3B
102
}
330
3B
100
AcDbScale
 70
     0
300
1-1/2" = 1'-0"
140
1.5
141
12.0
290
     0
  0
SCALE
  5
5A
102
{ACAD_REACTORS
330
3B
102
}
330
3B
100
AcDbScale
 70
     0
300
3" = 1'-0"
140
3.0
141
12.0
290
     0
  0
SCALE
  5
5B
102
{ACAD_REACTORS
330
3B
102
}
330
3B
100
AcDbScale
 70
     0
300
6" = 1'-0"
140
6.0
141
12.0
290
     0
  0
SCALE
  5
5C
102
{ACAD_REACTORS
330
3B
102
}
330
3B
100
AcDbScale
 70
     0
300
1'-0" = 1'-0"
140
12.0
141
12.0
290
     0
  0
VISUALSTYLE
  5
2F
102
{ACAD_REACTORS
330
2A
102
}
330
2A
100
AcDbVisualStyle
  2
2dWireframe
 70
     4
 71
     0
 72
     2
 73
     0
 90
        0
 40
-0.6
 41
-30.0
 62
     5
 63
     7
421
 16777215
 74
     1
 91
        4
 64
     7
 65
   257
 75
     1
175
     1
 42
1.0
 92
        0
 66
   257
 43
1.0
 76
     1
 77
     6
 78
     2
 67
     7
 79
     5
170
     0
171
     0
290
     0
174
     0
 93
        1
 44
0.0
173
     0
291
     0
 45
0.0
  0
VISUALSTYLE
  5
31
102
{ACAD_REACTORS
330
2A
102
}
330
2A
100
AcDbVisualStyle
  2
3D Hidden
 70
     6
 71
     1
 72
     2
 73
     2
 90
        0
 40
-0.6
 41
-30.0
 62
     5
 63
     7
421
 16777215
 74
     2
 91
        2
 64
     7
 65
   257
 75
     2
175
     1
 42
40.0
 92
        0
 66
   257
 43
1.0
 76
     1
 77
     6
 78
     2
 67
     7
 79
     3
170
     0
171
     0
290
     0
174
     0
 93
        1
 44
0.0
173
     0
291
     0
 45
0.0
  0
VISUALSTYLE
  5
30
102
{ACAD_REACTORS
330
2A
102
}
330
2A
100
AcDbVisualStyle
  2
3dWireframe
 70
     5
 71
     0
 72
     2
 73
     0
 90
        0
 40
-0.6
 41
-30.0
 62
     5
 63
     7
421
 16777215
 74
     1
 91
        4
 64
     7
 65
   257
 75
     1
175
     1
 42
1.0
 92
        0
 66
   257
 43
1.0
 76
     1
 77
     6
 78
     2
 67
     7
 79
     5
170
     0
171
     0
290
     0
174
     0
 93
        1
 44
0.0
173
     0
291
     0
 45
0.0
  0
VISUALSTYLE
  5
32
102
{ACAD_REACTORS
330
2A
102
}
330
2A
100
AcDbVisualStyle
  2
Basic
 70
     7
 71
     1
 72
     0
 73
     1
 90
        0
 40
-0.6
 41
-30.0
 62
     5
 63
     7
421
 16777215
 74
     0
 91
        4
 64
     7
 65
   257
 75
     1
175
     1
 42
1.0
 92
        8
 66
     7
 43
1.0
 76
     1
 77
     6
 78
     2
 67
     7
 79
     5
170
     0
171
     0
290
     0
174
     0
 93
        1
 44
0.0
173
     0
291
     1
 45
0.0
  0
VISUALSTYLE
  5
36
102
{ACAD_REACTORS
330
2A
102
}
330
2A
100
AcDbVisualStyle
  2
Brighten
 70
    12
 71
     2
 72
     2
 73
     0
 90
        0
 40
-0.6
 41
-30.0
 62
     5
 63
     7
421
 16777215
 74
     1
 91
        4
 64
     7
 65
   257
 75
     1
175
     1
 42
1.0
 92
        8
 66
     7
 43
1.0
 76
     1
 77
     6
 78
     2
 67
     7
 79
     5
170
     0
171
     0
290
     0
174
     0
 93
        1
 44
50.0
173
     0
291
     1
 45
0.0
  0
VISUALSTYLE
  5
3A
102
{ACAD_REACTORS
330
2A
102
}
330
2A
100
AcDbVisualStyle
  2
ColorChange
 70
    16
 71
     2
 72
     2
 73
     3
 90
        0
 40
-0.6
 41
-30.0
 62
     5
 63
     8
421
  8421504
 74
     1
 91
        4
 64
     7
 65
   257
 75
     1
175
     1
 42
1.0
 92
        8
 66
     8
424
  8421504
 43
1.0
 76
     1
 77
     6
 78
     2
 67
     7
 79
     5
170
     0
171
     0
290
     0
174
     0
 93
        1
 44
0.0
173
     0
291
     1
 45
0.0
  0
VISUALSTYLE
  5
34
102
{ACAD_REACTORS
330
2A
102
}
330
2A
100
AcDbVisualStyle
  2
Conceptual
 70
     9
 71
     3
 72
     2
 73
     0
 90
        0
 40
-0.6
 41
-30.0
 62
     5
 63
     7
421
 16777215
 74
     2
 91
        2
 64
     7
 65
   257
 75
     1
175
     1
 42
40.0
 92
        8
 66
     7
 43
1.0
 76
     1
 77
     6
 78
     2
 67
     7
 79
     3
170
     0
171
     0
290
     0
174
     0
 93
        1
 44
0.0
173
     0
291
     0
 45
0.0
  0
VISUALSTYLE
  5
35
102
{ACAD_REACTORS
330
2A
102
}
330
2A
100
AcDbVisualStyle
  2
Dim
 70
    11
 71
     2
 72
     2
 73
     0
 90
        0
 40
-0.6
 41
-30.0
 62
     5
 63
     7
421
 16777215
 74
     1
 91
        4
 64
     7
 65
   257
 75
     1
175
     1
 42
1.0
 92
        8
 66
     7
 43
1.0
 76
     1
 77
     6
 78
     2
 67
     7
 79
     5
170
     0
171
     0
290
     0
174
     0
 93
        1
 44
-50.0
173
     0
291
     1
 45
0.0
  0
VISUALSTYLE
  5
39
102
{ACAD_REACTORS
330
2A
102
}
330
2A
100
AcDbVisualStyle
  2
Facepattern
 70
    15
 71
     2
 72
     2
 73
     0
 90
        0
 40
-0.6
 41
-30.0
 62
     5
 63
     7
421
 16777215
 74
     1
 91
        4
 64
     7
 65
   257
 75
     1
175
     1
 42
1.0
 92
        8
 66
     7
 43
1.0
 76
     1
 77
     6
 78
     2
 67
     7
 79
     5
170
     0
171
     0
290
     0
174
     0
 93
        1
 44
0.0
173
     0
291
     1
 45
0.0
  0
VISUALSTYLE
  5
2B
102
{ACAD_REACTORS
330
2A
102
}
330
2A
100
AcDbVisualStyle
  2
Flat
 70
     0
 71
     2
 72
     1
 73
     1
 90
        2
 40
-0.6
 41
30.0
 62
     5
 63
     7
421
 16777215
 74
     0
 91
        4
 64
     7
 65
   257
 75
     1
175
     1
 42
1.0
 92
        8
 66
     7
 43
1.0
 76
     1
 77
     6
 78
     2
 67
     7
 79
     5
170
     0
171
     0
290
     0
174
     0
 93
       13
 44
0.0
173
     0
291
     1
 45
0.0
  0
VISUALSTYLE
  5
2C
102
{ACAD_REACTORS
330
2A
102
}
330
2A
100
AcDbVisualStyle
  2
FlatWithEdges
 70
     1
 71
     2
 72
     1
 73
     1
 90
        2
 40
-0.6
 41
30.0
 62
     5
 63
     7
421
 16777215
 74
     1
 91
        4
 64
     7
 65
   257
 75
     1
175
     1
 42
1.0
 92
        0
 66
   257
 43
1.0
 76
     1
 77
     6
 78
     2
 67
     7
 79
     5
170
     0
171
     0
290
     0
174
     0
 93
       13
 44
0.0
173
     0
291
     1
 45
0.0
  0
VISUALSTYLE
  5
2D
102
{ACAD_REACTORS
330
2A
102
}
330
2A
100
AcDbVisualStyle
  2
Gouraud
 70
     2
 71
     2
 72
     2
 73
     1
 90
        2
 40
-0.6
 41
30.0
 62
     5
 63
     7
421
 16777215
 74
     0
 91
        4
 64
     7
 65
   257
 75
     1
175
     1
 42
1.0
 92
        0
 66
     7
 43
1.0
 76
     1
 77
     6
 78
     2
 67
     7
 79
     5
170
     0
171
     0
290
     0
174
     0
 93
       13
 44
0.0
173
     0
291
     1
 45
0.0
  0
VISUALSTYLE
  5
2E
102
{ACAD_REACTORS
330
2A
102
}
330
2A
100
AcDbVisualStyle
  2
GouraudWithEdges
 70
     3
 71
     2
 72
     2
 73
     1
 90
        2
 40
-0.6
 41
30.0
 62
     5
 63
     7
421
 16777215
 74
     1
 91
        4
 64
     7
 65
   257
 75
     1
175
     1
 42
1.0
 92
        0
 66
   257
 43
1.0
 76
     1
 77
     6
 78
     2
 67
     7
 79
     5
170
     0
171
     0
290
     0
174
     0
 93
       13
 44
0.0
173
     0
291
     1
 45
0.0
  0
VISUALSTYLE
  5
38
102
{ACAD_REACTORS
330
2A
102
}
330
2A
100
AcDbVisualStyle
  2
Linepattern
 70
    14
 71
     2
 72
     2
 73
     0
 90
        0
 40
-0.6
 41
-30.0
 62
     5
 63
     7
421
 16777215
 74
     1
 91
        4
 64
     7
 65
   257
 75
     7
175
     7
 42
1.0
 92
        8
 66
     7
 43
1.0
 76
     1
 77
     6
 78
     2
 67
     7
 79
     5
170
     0
171
     0
290
     0
174
     0
 93
        1
 44
0.0
173
     0
291
     1
 45
0.0
  0
VISUALSTYLE
  5
33
102
{ACAD_REACTORS
330
2A
102
}
330
2A
100
AcDbVisualStyle
  2
Realistic
 70
     8
 71
     2
 72
     2
 73
     0
 90
        0
 40
-0.6
 41
-30.0
 62
     5
 63
     7
421
 16777215
 74
     1
 91
        0
 64
     7
 65
   257
 75
     1
175
     1
 42
1.0
 92
        8
 66
     8
424
  7895160
 43
1.0
 76
     1
 77
     6
 78
     2
 67
     7
 79
     5
170
     0
171
     0
290
     0
174
     0
 93
       13
 44
0.0
173
     0
291
     0
 45
0.0
  0
VISUALSTYLE
  5
37
102
{ACAD_REACTORS
330
2A
102
}
330
2A
100
AcDbVisualStyle
  2
Thicken
 70
    13
 71
     2
 72
     2
 73
     0
 90
        0
 40
-0.6
 41
-30.0
 62
     5
 63
     7
421
 16777215
 74
     1
 91
        4
 64
     7
 65
   257
 75
     1
175
     1
 42
1.0
 92
       12
 66
     7
 43
1.0
 76
     1
 77
     6
 78
     2
 67
     7
 79
     5
170
     0
171
     0
290
     0
174
     0
 93
        1
 44
0.0
173
     0
291
     1
 45
0.0
  0
ENDSEC
  0
EOF
