  0
SECTION
  2
HEADER
  9
$ACADVER
  1
AC1021
  9
$ACADMAINTVER
 70
    25
  9
$DWGCODEPAGE
  3
ANSI_1252
  9
$INSBASE
 10
0.0
 20
0.0
 30
0.0
  9
$EXTMIN
 10
-11.7
 20
-16.05
 30
0.0
  9
$EXTMAX
 10
-9.3
 20
-13.65
 30
0.0
  9
$LIMMIN
 10
0.0
 20
0.0
  9
$LIMMAX
 10
12.0
 20
9.0
  9
$ORTHOMODE
 70
     0
  9
$REGENMODE
 70
     1
  9
$FILLMODE
 70
     1
  9
$QTEXTMODE
 70
     0
  9
$MIRRTEXT
 70
     1
  9
$LTSCALE
 40
1.0
  9
$ATTMODE
 70
     1
  9
$TEXTSIZE
 40
0.2
  9
$TRACEWID
 40
0.05
  9
$TEXTSTYLE
  7
Standard
  9
$CLAYER
  8
0
  9
$CELTYPE
  6
ByLayer
  9
$CECOLOR
 62
   256
  9
$CELTSCALE
 40
1.0
  9
$DISPSILH
 70
     0
  9
$DIMSCALE
 40
1.0
  9
$DIMASZ
 40
0.18
  9
$DIMEXO
 40
0.0625
  9
$DIMDLI
 40
0.38
  9
$DIMRND
 40
0.0
  9
$DIMDLE
 40
0.0
  9
$DIMEXE
 40
0.18
  9
$DIMTP
 40
0.0
  9
$DIMTM
 40
0.0
  9
$DIMTXT
 40
0.18
  9
$DIMCEN
 40
0.09
  9
$DIMTSZ
 40
0.0
  9
$DIMTOL
 70
     0
  9
$DIMLIM
 70
     0
  9
$DIMTIH
 70
     1
  9
$DIMTOH
 70
     1
  9
$DIMSE1
 70
     0
  9
$DIMSE2
 70
     0
  9
$DIMTAD
 70
     0
  9
$DIMZIN
 70
     0
  9
$DIMBLK
  1

  9
$DIMASO
 70
     1
  9
$DIMSHO
 70
     1
  9
$DIMPOST
  1

  9
$DIMAPOST
  1

  9
$DIMALT
 70
     0
  9
$DIMALTD
 70
     2
  9
$DIMALTF
 40
25.4
  9
$DIMLFAC
 40
1.0
  9
$DIMTOFL
 70
     0
  9
$DIMTVP
 40
0.0
  9
$DIMTIX
 70
     0
  9
$DIMSOXD
 70
     0
  9
$DIMSAH
 70
     0
  9
$DIMBLK1
  1

  9
$DIMBLK2
  1

  9
$DIMSTYLE
  2
Standard
  9
$DIMCLRD
 70
     0
  9
$DIMCLRE
 70
     0
  9
$DIMCLRT
 70
     0
  9
$DIMTFAC
 40
1.0
  9
$DIMGAP
 40
0.09
  9
$DIMJUST
 70
     0
  9
$DIMSD1
 70
     0
  9
$DIMSD2
 70
     0
  9
$DIMTOLJ
 70
     1
  9
$DIMTZIN
 70
     0
  9
$DIMALTZ
 70
     0
  9
$DIMALTTZ
 70
     0
  9
$DIMUPT
 70
     0
  9
$DIMDEC
 70
     4
  9
$DIMTDEC
 70
     4
  9
$DIMALTU
 70
     2
  9
$DIMALTTD
 70
     2
  9
$DIMTXSTY
  7
Standard
  9
$DIMAUNIT
 70
     0
  9
$DIMADEC
 70
     0
  9
$DIMALTRND
 40
0.0
  9
$DIMAZIN
 70
     0
  9
$DIMDSEP
 70
    46
  9
$DIMATFIT
 70
     3
  9
$DIMFRAC
 70
     0
  9
$DIMLDRBLK
  1

  9
$DIMLUNIT
 70
     2
  9
$DIMLWD
 70
    -2
  9
$DIMLWE
 70
    -2
  9
$DIMTMOVE
 70
     0
  9
$DIMFXL
 40
1.0
  9
$DIMFXLON
 70
     0
  9
$DIMJOGANG
 40
0.7853981633974483
  9
$DIMTFILL
 70
     0
  9
$DIMTFILLCLR
 70
     0
  9
$DIMARCSYM
 70
     0
  9
$DIMLTYPE
  6

  9
$DIMLTEX1
  6

  9
$DIMLTEX2
  6

  9
$LUNITS
 70
     2
  9
$LUPREC
 70
     4
  9
$SKETCHINC
 40
0.1
  9
$FILLETRAD
 40
0.5
  9
$AUNITS
 70
     0
  9
$AUPREC
 70
     0
  9
$MENU
  1
.
  9
$ELEVATION
 40
0.0
  9
$PELEVATION
 40
0.0
  9
$THICKNESS
 40
0.0
  9
$LIMCHECK
 70
     0
  9
$CHAMFERA
 40
0.5
  9
$CHAMFERB
 40
0.5
  9
$CHAMFERC
 40
1.0
  9
$CHAMFERD
 40
0.0
  9
$SKPOLY
 70
     0
  9
$TDCREATE
 40
2458675.609199525
  9
$TDUCREATE
 40
2458675.567532859
  9
$TDUPDATE
 40
2458675.609199537
  9
$TDUUPDATE
 40
2458675.56753287
  9
$TDINDWG
 40
0.0000000116
  9
$TDUSRTIMER
 40
0.0000000116
  9
$USRTIMER
 70
     1
  9
$ANGBASE
 50
0.0
  9
$ANGDIR
 70
     0
  9
$PDMODE
 70
     0
  9
$PDSIZE
 40
0.0
  9
$PLINEWID
 40
0.0
  9
$SPLFRAME
 70
     0
  9
$SPLINETYPE
 70
     6
  9
$SPLINESEGS
 70
     8
  9
$HANDSEED
  5
A3
  9
$SURFTAB1
 70
     6
  9
$SURFTAB2
 70
     6
  9
$SURFTYPE
 70
     6
  9
$SURFU
 70
     6
  9
$SURFV
 70
     6
  9
$UCSBASE
  2

  9
$UCSNAME
  2

  9
$UCSORG
 10
0.0
 20
0.0
 30
0.0
  9
$UCSXDIR
 10
1.0
 20
0.0
 30
0.0
  9
$UCSYDIR
 10
0.0
 20
1.0
 30
0.0
  9
$UCSORTHOREF
  2

  9
$UCSORTHOVIEW
 70
     0
  9
$UCSORGTOP
 10
0.0
 20
0.0
 30
0.0
  9
$UCSORGBOTTOM
 10
0.0
 20
0.0
 30
0.0
  9
$UCSORGLEFT
 10
0.0
 20
0.0
 30
0.0
  9
$UCSORGRIGHT
 10
0.0
 20
0.0
 30
0.0
  9
$UCSORGFRONT
 10
0.0
 20
0.0
 30
0.0
  9
$UCSORGBACK
 10
0.0
 20
0.0
 30
0.0
  9
$PUCSBASE
  2

  9
$PUCSNAME
  2

  9
$PUCSORG
 10
0.0
 20
0.0
 30
0.0
  9
$PUCSXDIR
 10
1.0
 20
0.0
 30
0.0
  9
$PUCSYDIR
 10
0.0
 20
1.0
 30
0.0
  9
$PUCSORTHOREF
  2

  9
$PUCSORTHOVIEW
 70
     0
  9
$PUCSORGTOP
 10
0.0
 20
0.0
 30
0.0
  9
$PUCSORGBOTTOM
 10
0.0
 20
0.0
 30
0.0
  9
$PUCSORGLEFT
 10
0.0
 20
0.0
 30
0.0
  9
$PUCSORGRIGHT
 10
0.0
 20
0.0
 30
0.0
  9
$PUCSORGFRONT
 10
0.0
 20
0.0
 30
0.0
  9
$PUCSORGBACK
 10
0.0
 20
0.0
 30
0.0
  9
$USERI1
 70
     0
  9
$USERI2
 70
     0
  9
$USERI3
 70
     0
  9
$USERI4
 70
     0
  9
$USERI5
 70
     0
  9
$USERR1
 40
0.0
  9
$USERR2
 40
0.0
  9
$USERR3
 40
0.0
  9
$USERR4
 40
0.0
  9
$USERR5
 40
0.0
  9
$WORLDVIEW
 70
     1
  9
$SHADEDGE
 70
     3
  9
$SHADEDIF
 70
    70
  9
$TILEMODE
 70
     1
  9
$MAXACTVP
 70
    64
  9
$PINSBASE
 10
0.0
 20
0.0
 30
0.0
  9
$PLIMCHECK
 70
     0
  9
$PEXTMIN
 10
1.000000000000000E+20
 20
1.000000000000000E+20
 30
1.000000000000000E+20
  9
$PEXTMAX
 10
-1.000000000000000E+20
 20
-1.000000000000000E+20
 30
-1.000000000000000E+20
  9
$PLIMMIN
 10
0.0
 20
0.0
  9
$PLIMMAX
 10
12.0
 20
9.0
  9
$UNITMODE
 70
     0
  9
$VISRETAIN
 70
     1
  9
$PLINEGEN
 70
     0
  9
$PSLTSCALE
 70
     1
  9
$TREEDEPTH
 70
  3020
  9
$CMLSTYLE
  2
Standard
  9
$CMLJUST
 70
     0
  9
$CMLSCALE
 40
1.0
  9
$PROXYGRAPHICS
 70
     1
  9
$MEASUREMENT
 70
     0
  9
$CELWEIGHT
370
    -1
  9
$ENDCAPS
280
     0
  9
$JOINSTYLE
280
     0
  9
$LWDISPLAY
290
     0
  9
$INSUNITS
 70
     5
  9
$HYPERLINKBASE
  1

  9
$STYLESHEET
  1

  9
$XEDIT
290
     1
  9
$CEPSNTYPE
380
     0
  9
$PSTYLEMODE
290
     1
  9
$FINGERPRINTGUID
  2
{1C54FB49-582E-44FF-809C-A5F257A1C5C5}
  9
$VERSIONGUID
  2
{FAEB1C32-E019-11D5-929B-00C0DF256EC4}
  9
$EXTNAMES
290
     1
  9
$PSVPSCALE
 40
0.0
  9
$OLESTARTUP
290
     0
  9
$SORTENTS
280
   127
  9
$INDEXCTL
280
     0
  9
$HIDETEXT
280
     1
  9
$XCLIPFRAME
290
     0
  9
$HALOGAP
280
     0
  9
$OBSCOLOR
 70
   257
  9
$OBSLTYPE
280
     0
  9
$INTERSECTIONDISPLAY
280
     0
  9
$INTERSECTIONCOLOR
 70
   257
  9
$DIMASSOC
280
     2
  9
$PROJECTNAME
  1

  9
$CAMERADISPLAY
290
     0
  9
$LENSLENGTH
 40
50.0
  9
$CAMERAHEIGHT
 40
0.0
  9
$STEPSPERSEC
 40
2.0
  9
$STEPSIZE
 40
6.0
  9
$3DDWFPREC
 40
2.0
  9
$PSOLWIDTH
 40
0.25
  9
$PSOLHEIGHT
 40
4.0
  9
$LOFTANG1
 40
1.570796326794897
  9
$LOFTANG2
 40
1.570796326794897
  9
$LOFTMAG1
 40
0.0
  9
$LOFTMAG2
 40
0.0
  9
$LOFTPARAM
 70
     7
  9
$LOFTNORMALS
280
     1
  9
$LATITUDE
 40
37.795
  9
$LONGITUDE
 40
-122.394
  9
$NORTHDIRECTION
 40
0.0
  9
$TIMEZONE
 70
 -8000
  9
$LIGHTGLYPHDISPLAY
280
     1
  9
$TILEMODELIGHTSYNCH
280
     1
  9
$SOLIDHIST
280
     1
  9
$SHOWHIST
280
     1
  9
$DWFFRAME
280
     2
  9
$DGNFRAME
280
     2
  9
$REALWORLDSCALE
290
     1
  9
$INTERFERECOLOR
 62
   256
  9
$CSHADOW
280
     0
  9
$SHADOWPLANELOCATION
 40
0.0
  0
ENDSEC
  0
SECTION
  2
CLASSES
  0
CLASS
  1
ACDBDICTIONARYWDFLT
  2
AcDbDictionaryWithDefault
  3
ObjectDBX Classes
 90
        0
 91
        3
280
     0
281
     0
  0
CLASS
  1
VISUALSTYLE
  2
AcDbVisualStyle
  3
ObjectDBX Classes
 90
     4095
 91
        3
280
     0
281
     0
  0
CLASS
  1
SCALE
  2
AcDbScale
  3
ObjectDBX Classes
 90
     1153
 91
        3
280
     0
281
     0
  0
ENDSEC
  0
SECTION
  2
TABLES
  0
TABLE
  2
VPORT
  5
8
330
0
100
AcDbSymbolTable
 70
     1
  0
VPORT
  5
29
330
8
100
AcDbSymbolTableRecord
100
AcDbViewportTableRecord
  2
*Active
 70
     0
 10
0.0
 20
0.0
 11
1.0
 21
1.0
 12
10.42990654205607
 22
4.5
 13
0.0
 23
0.0
 14
0.5
 24
0.5
 15
0.5
 25
0.5
 16
0.0
 26
0.0
 36
1.0
 17
0.0
 27
0.0
 37
0.0
 40
9.0
 41
1.972972972850329
 42
50.0
 43
0.0
 44
0.0
 50
0.0
 51
0.0
 71
     0
 72
   100
 73
     1
 74
     3
 75
     0
 76
     0
 77
     0
 78
     0
281
     0
 65
     1
110
0.0
120
0.0
130
0.0
111
1.0
121
0.0
131
0.0
112
0.0
122
1.0
132
0.0
 79
     0
146
0.0
 60
     3
 61
     5
292
     1
282
     1
141
0.0
142
0.0
 63
   256
  0
ENDTAB
  0
TABLE
  2
LTYPE
  5
5
330
0
100
AcDbSymbolTable
 70
     1
  0
LTYPE
  5
14
330
5
100
AcDbSymbolTableRecord
100
AcDbLinetypeTableRecord
  2
ByBlock
 70
     0
  3

 72
    65
 73
     0
 40
0.0
  0
LTYPE
  5
15
330
5
100
AcDbSymbolTableRecord
100
AcDbLinetypeTableRecord
  2
ByLayer
 70
     0
  3

 72
    65
 73
     0
 40
0.0
  0
LTYPE
  5
16
330
5
100
AcDbSymbolTableRecord
100
AcDbLinetypeTableRecord
  2
Continuous
 70
     0
  3
Solid line
 72
    65
 73
     0
 40
0.0
  0
ENDTAB
  0
TABLE
  2
LAYER
  5
2
330
0
100
AcDbSymbolTable
 70
     2
  0
LAYER
  5
10
330
2
100
AcDbSymbolTableRecord
100
AcDbLayerTableRecord
  2
0
 70
     0
 62
     7
  6
Continuous
370
    -3
390
F
347
0
  0
LAYER
  5
5E
330
2
100
AcDbSymbolTableRecord
100
AcDbLayerTableRecord
  2
Layer 1
 70
     0
 62
     7
  6
Continuous
370
    -3
390
F
347
0
  0
ENDTAB
  0
TABLE
  2
STYLE
  5
3
330
0
100
AcDbSymbolTable
 70
     1
  0
STYLE
  5
11
330
3
100
AcDbSymbolTableRecord
100
AcDbTextStyleTableRecord
  2
Standard
 70
     0
 40
0.0
 41
1.0
 50
0.0
 71
     0
 42
0.2
  3
txt
  4

  0
ENDTAB
  0
TABLE
  2
VIEW
  5
6
330
0
100
AcDbSymbolTable
 70
     0
  0
ENDTAB
  0
TABLE
  2
UCS
  5
7
330
0
100
AcDbSymbolTable
 70
     0
  0
ENDTAB
  0
TABLE
  2
APPID
  5
9
330
0
100
AcDbSymbolTable
 70
     2
  0
APPID
  5
12
330
9
100
AcDbSymbolTableRecord
100
AcDbRegAppTableRecord
  2
ACAD
 70
     0
  0
APPID
  5
5D
330
9
100
AcDbSymbolTableRecord
100
AcDbRegAppTableRecord
  2
ODA
 70
     0
  0
ENDTAB
  0
TABLE
  2
DIMSTYLE
  5
A
330
0
100
AcDbSymbolTable
 70
     1
100
AcDbDimStyleTable
  0
DIMSTYLE
105
27
330
A
100
AcDbSymbolTableRecord
100
AcDbDimStyleTableRecord
  2
Standard
 70
     0
340
11
  0
ENDTAB
  0
TABLE
  2
BLOCK_RECORD
  5
1
330
0
100
AcDbSymbolTable
 70
     1
  0
BLOCK_RECORD
  5
1F
330
1
100
AcDbSymbolTableRecord
100
AcDbBlockTableRecord
  2
*Model_Space
340
22
 70
     0
280
     1
281
     0
  0
BLOCK_RECORD
  5
1B
330
1
100
AcDbSymbolTableRecord
100
AcDbBlockTableRecord
  2
*Paper_Space
340
1E
 70
     0
280
     1
281
     0
  0
BLOCK_RECORD
  5
23
330
1
100
AcDbSymbolTableRecord
100
AcDbBlockTableRecord
  2
*Paper_Space0
340
26
 70
     0
280
     1
281
     0
  0
ENDTAB
  0
ENDSEC
  0
SECTION
  2
BLOCKS
  0
BLOCK
  5
20
330
1F
100
AcDbEntity
  8
0
100
AcDbBlockBegin
  2
*Model_Space
 70
     0
 10
0.0
 20
0.0
 30
0.0
  3
*Model_Space
  1

  0
ENDBLK
  5
21
330
1F
100
AcDbEntity
  8
0
100
AcDbBlockEnd
  0
BLOCK
  5
1C
330
1B
100
AcDbEntity
 67
     1
  8
0
100
AcDbBlockBegin
  2
*Paper_Space
 70
     0
 10
0.0
 20
0.0
 30
0.0
  3
*Paper_Space
  1

  0
ENDBLK
  5
1D
330
1B
100
AcDbEntity
 67
     1
  8
0
100
AcDbBlockEnd
  0
BLOCK
  5
24
330
23
100
AcDbEntity
  8
0
100
AcDbBlockBegin
  2
*Paper_Space0
 70
     0
 10
0.0
 20
0.0
 30
0.0
  3
*Paper_Space0
  1

  0
ENDBLK
  5
25
330
23
100
AcDbEntity
  8
0
100
AcDbBlockEnd
  0
ENDSEC
  0
SECTION
  2
ENTITIES
  0
LWPOLYLINE
  5
5F
330
1F
100
AcDbEntity
  8
Layer 1
 62
     7
100
AcDbPolyline
 90
        5
 70
     1
 43
0.0
 10
-11.7
 20
-16.05
 10
-9.3
 20
-16.05
 10
-9.3
 20
-13.65
 10
-11.7
 20
-13.65
 10
-11.7
 20
-16.05
  0
LWPOLYLINE
  5
60
330
1F
100
AcDbEntity
  8
Layer 1
 62
     7
370
     9
100
AcDbPolyline
 90
        5
 70
     1
 43
0.0
 10
-10.6524
 20
-15.20475
 10
-10.3476
 20
-15.20475
 10
-10.3476
 20
-15.05235
 10
-10.6524
 20
-15.05235
 10
-10.6524
 20
-15.20475
  0
LWPOLYLINE
  5
61
330
1F
100
AcDbEntity
  8
Layer 1
 62
     7
370
     9
100
AcDbPolyline
 90
        5
 70
     1
 43
0.0
 10
-10.605
 20
-15.20475
 10
-10.395
 20
-15.20475
 10
-10.395
 20
-15.05235
 10
-10.605
 20
-15.05235
 10
-10.605
 20
-15.20475
  0
SPLINE
  5
62
330
1F
100
AcDbEntity
  8
Layer 1
 62
   250
100
AcDbSpline
210
0.0
220
0.0
230
1.0
 70
    11
 71
     3
 72
   116
 73
   112
 74
     0
 42
0.0000000001
 43
0.0000000001
 40
0.0
 40
0.0
 40
0.0
 40
0.0
 40
0.0357142857142857
 40
0.0357142857142857
 40
0.0357142857142857
 40
0.0357142857142857
 40
0.0714285714285714
 40
0.0714285714285714
 40
0.0714285714285714
 40
0.0714285714285714
 40
0.1071428571428571
 40
0.1071428571428571
 40
0.1071428571428571
 40
0.1071428571428571
 40
0.1428571428571428
 40
0.1428571428571428
 40
0.1428571428571428
 40
0.1428571428571428
 40
0.1785714285714285
 40
0.1785714285714285
 40
0.1785714285714285
 40
0.1785714285714285
 40
0.2142857142857142
 40
0.2142857142857142
 40
0.2142857142857142
 40
0.2142857142857142
 40
0.2499999999999999
 40
0.2499999999999999
 40
0.2499999999999999
 40
0.2499999999999999
 40
0.2857142857142856
 40
0.2857142857142856
 40
0.2857142857142856
 40
0.2857142857142856
 40
0.3214285714285713
 40
0.3214285714285713
 40
0.3214285714285713
 40
0.3214285714285713
 40
0.357142857142857
 40
0.357142857142857
 40
0.357142857142857
 40
0.357142857142857
 40
0.3928571428571427
 40
0.3928571428571427
 40
0.3928571428571427
 40
0.3928571428571427
 40
0.4285714285714284
 40
0.4285714285714284
 40
0.4285714285714284
 40
0.4285714285714284
 40
0.4642857142857141
 40
0.4642857142857141
 40
0.4642857142857141
 40
0.4642857142857141
 40
0.4999999999999998
 40
0.4999999999999998
 40
0.4999999999999998
 40
0.4999999999999998
 40
0.5357142857142856
 40
0.5357142857142856
 40
0.5357142857142856
 40
0.5357142857142856
 40
0.5714285714285713
 40
0.5714285714285713
 40
0.5714285714285713
 40
0.5714285714285713
 40
0.607142857142857
 40
0.607142857142857
 40
0.607142857142857
 40
0.607142857142857
 40
0.6428571428571427
 40
0.6428571428571427
 40
0.6428571428571427
 40
0.6428571428571427
 40
0.6785714285714284
 40
0.6785714285714284
 40
0.6785714285714284
 40
0.6785714285714284
 40
0.7142857142857141
 40
0.7142857142857141
 40
0.7142857142857141
 40
0.7142857142857141
 40
0.7499999999999998
 40
0.7499999999999998
 40
0.7499999999999998
 40
0.7499999999999998
 40
0.7857142857142855
 40
0.7857142857142855
 40
0.7857142857142855
 40
0.7857142857142855
 40
0.8214285714285712
 40
0.8214285714285712
 40
0.8214285714285712
 40
0.8214285714285712
 40
0.8571428571428569
 40
0.8571428571428569
 40
0.8571428571428569
 40
0.8571428571428569
 40
0.8928571428571426
 40
0.8928571428571426
 40
0.8928571428571426
 40
0.8928571428571426
 40
0.9285714285714283
 40
0.9285714285714283
 40
0.9285714285714283
 40
0.9285714285714283
 40
0.964285714285714
 40
0.964285714285714
 40
0.964285714285714
 40
0.964285714285714
 40
1.0
 40
1.0
 40
1.0
 40
1.0
 10
-11.10871
 20
-14.31714
 30
0.0
 10
-11.10871
 20
-14.31714
 30
0.0
 10
-11.10871
 20
-14.33889
 30
0.0
 10
-11.10871
 20
-14.33889
 30
0.0
 10
-11.10871
 20
-14.33889
 30
0.0
 10
-11.11436
 20
-14.33637
 30
0.0
 10
-11.11988
 20
-14.33447
 30
0.0
 10
-11.12524
 20
-14.33318
 30
0.0
 10
-11.12524
 20
-14.33318
 30
0.0
 10
-11.13063
 20
-14.33188
 30
0.0
 10
-11.13571
 20
-14.33125
 30
0.0
 10
-11.14048
 20
-14.33125
 30
0.0
 10
-11.14048
 20
-14.33125
 30
0.0
 10
-11.14681
 20
-14.33125
 30
0.0
 10
-11.15151
 20
-14.33212
 30
0.0
 10
-11.15455
 20
-14.33386
 30
0.0
 10
-11.15455
 20
-14.33386
 30
0.0
 10
-11.15758
 20
-14.33562
 30
0.0
 10
-11.15909
 20
-14.33833
 30
0.0
 10
-11.15909
 20
-14.342
 30
0.0
 10
-11.15909
 20
-14.342
 30
0.0
 10
-11.15909
 20
-14.34475
 30
0.0
 10
-11.15808
 20
-14.34691
 30
0.0
 10
-11.15603
 20
-14.34844
 30
0.0
 10
-11.15603
 20
-14.34844
 30
0.0
 10
-11.15398
 20
-14.34997
 30
0.0
 10
-11.15027
 20
-14.35131
 30
0.0
 10
-11.14488
 20
-14.35241
 30
0.0
 10
-11.14488
 20
-14.35241
 30
0.0
 10
-11.14488
 20
-14.35241
 30
0.0
 10
-11.13359
 20
-14.35467
 30
0.0
 10
-11.13359
 20
-14.35467
 30
0.0
 10
-11.13359
 20
-14.35467
 30
0.0
 10
-11.12214
 20
-14.35698
 30
0.0
 10
-11.11403
 20
-14.36046
 30
0.0
 10
-11.10921
 20
-14.36516
 30
0.0
 10
-11.10921
 20
-14.36516
 30
0.0
 10
-11.10438
 20
-14.36984
 30
0.0
 10
-11.10196
 20
-14.3765
 30
0.0
 10
-11.10196
 20
-14.38513
 30
0.0
 10
-11.10196
 20
-14.38513
 30
0.0
 10
-11.10196
 20
-14.39649
 30
0.0
 10
-11.10532
 20
-14.40493
 30
0.0
 10
-11.11205
 20
-14.41046
 30
0.0
 10
-11.11205
 20
-14.41046
 30
0.0
 10
-11.11878
 20
-14.41598
 30
0.0
 10
-11.12905
 20
-14.41876
 30
0.0
 10
-11.14288
 20
-14.41876
 30
0.0
 10
-11.14288
 20
-14.41876
 30
0.0
 10
-11.14942
 20
-14.41876
 30
0.0
 10
-11.15596
 20
-14.41815
 30
0.0
 10
-11.16252
 20
-14.4169
 30
0.0
 10
-11.16252
 20
-14.4169
 30
0.0
 10
-11.16908
 20
-14.41565
 30
0.0
 10
-11.17567
 20
-14.41382
 30
0.0
 10
-11.18223
 20
-14.4114
 30
0.0
 10
-11.18223
 20
-14.4114
 30
0.0
 10
-11.18223
 20
-14.4114
 30
0.0
 10
-11.18223
 20
-14.38901
 30
0.0
 10
-11.18223
 20
-14.38901
 30
0.0
 10
-11.18223
 20
-14.38901
 30
0.0
 10
-11.17567
 20
-14.39249
 30
0.0
 10
-11.16932
 20
-14.39512
 30
0.0
 10
-11.16318
 20
-14.39689
 30
0.0
 10
-11.16318
 20
-14.39689
 30
0.0
 10
-11.15704
 20
-14.39865
 30
0.0
 10
-11.15114
 20
-14.39954
 30
0.0
 10
-11.14545
 20
-14.39954
 30
0.0
 10
-11.14545
 20
-14.39954
 30
0.0
 10
-11.13966
 20
-14.39954
 30
0.0
 10
-11.13522
 20
-14.39858
 30
0.0
 10
-11.13214
 20
-14.39665
 30
0.0
 10
-11.13214
 20
-14.39665
 30
0.0
 10
-11.12905
 20
-14.39472
 30
0.0
 10
-11.12753
 20
-14.39197
 30
0.0
 10
-11.12753
 20
-14.38837
 30
0.0
 10
-11.12753
 20
-14.38837
 30
0.0
 10
-11.12753
 20
-14.38517
 30
0.0
 10
-11.12856
 20
-14.38268
 30
0.0
 10
-11.13065
 20
-14.38094
 30
0.0
 10
-11.13065
 20
-14.38094
 30
0.0
 10
-11.13275
 20
-14.3792
 30
0.0
 10
-11.13691
 20
-14.37763
 30
0.0
 10
-11.14317
 20
-14.37626
 30
0.0
 10
-11.14317
 20
-14.37626
 30
0.0
 10
-11.14317
 20
-14.37626
 30
0.0
 10
-11.15344
 20
-14.37398
 30
0.0
 10
-11.15344
 20
-14.37398
 30
0.0
 10
-11.15344
 20
-14.37398
 30
0.0
 10
-11.16372
 20
-14.37177
 30
0.0
 10
-11.17125
 20
-14.36827
 30
0.0
 10
-11.176
 20
-14.36344
 30
0.0
 10
-11.176
 20
-14.36344
 30
0.0
 10
-11.18075
 20
-14.35862
 30
0.0
 10
-11.18312
 20
-14.35211
 30
0.0
 10
-11.18312
 20
-14.34395
 30
0.0
 10
-11.18312
 20
-14.34395
 30
0.0
 10
-11.18312
 20
-14.33369
 30
0.0
 10
-11.17981
 20
-14.32581
 30
0.0
 10
-11.1732
 20
-14.32031
 30
0.0
 10
-11.1732
 20
-14.32031
 30
0.0
 10
-11.16659
 20
-14.31478
 30
0.0
 10
-11.15709
 20
-14.31203
 30
0.0
 10
-11.14467
 20
-14.31203
 30
0.0
 10
-11.14467
 20
-14.31203
 30
0.0
 10
-11.13903
 20
-14.31203
 30
0.0
 10
-11.13322
 20
-14.31246
 30
0.0
 10
-11.12724
 20
-14.3133
 30
0.0
 10
-11.12724
 20
-14.3133
 30
0.0
 10
-11.12127
 20
-14.31415
 30
0.0
 10
-11.11509
 20
-14.31542
 30
0.0
 10
-11.10871
 20
-14.31714
 30
0.0
  0
SPLINE
  5
63
330
1F
100
AcDbEntity
  8
Layer 1
 62
   250
100
AcDbSpline
210
0.0
220
0.0
230
1.0
 70
    11
 71
     3
 72
    56
 73
    52
 74
     0
 42
0.0000000001
 43
0.0000000001
 40
0.0
 40
0.0
 40
0.0
 40
0.0
 40
0.0769230769230769
 40
0.0769230769230769
 40
0.0769230769230769
 40
0.0769230769230769
 40
0.1538461538461539
 40
0.1538461538461539
 40
0.1538461538461539
 40
0.1538461538461539
 40
0.2307692307692308
 40
0.2307692307692308
 40
0.2307692307692308
 40
0.2307692307692308
 40
0.3076923076923077
 40
0.3076923076923077
 40
0.3076923076923077
 40
0.3076923076923077
 40
0.3846153846153846
 40
0.3846153846153846
 40
0.3846153846153846
 40
0.3846153846153846
 40
0.4615384615384616
 40
0.4615384615384616
 40
0.4615384615384616
 40
0.4615384615384616
 40
0.5384615384615385
 40
0.5384615384615385
 40
0.5384615384615385
 40
0.5384615384615385
 40
0.6153846153846154
 40
0.6153846153846154
 40
0.6153846153846154
 40
0.6153846153846154
 40
0.6923076923076923
 40
0.6923076923076923
 40
0.6923076923076923
 40
0.6923076923076923
 40
0.7692307692307692
 40
0.7692307692307692
 40
0.7692307692307692
 40
0.7692307692307692
 40
0.846153846153846
 40
0.846153846153846
 40
0.846153846153846
 40
0.846153846153846
 40
0.9230769230769229
 40
0.9230769230769229
 40
0.9230769230769229
 40
0.9230769230769229
 40
1.0
 40
1.0
 40
1.0
 40
1.0
 10
-11.07868
 20
-14.31389
 30
0.0
 10
-11.07868
 20
-14.31389
 30
0.0
 10
-11.04493
 20
-14.31389
 30
0.0
 10
-11.04493
 20
-14.31389
 30
0.0
 10
-11.04493
 20
-14.31389
 30
0.0
 10
-11.04493
 20
-14.31389
 30
0.0
 10
-11.02148
 20
-14.36895
 30
0.0
 10
-11.02148
 20
-14.36895
 30
0.0
 10
-11.02148
 20
-14.36895
 30
0.0
 10
-11.02148
 20
-14.36895
 30
0.0
 10
-10.99792
 20
-14.31389
 30
0.0
 10
-10.99792
 20
-14.31389
 30
0.0
 10
-10.99792
 20
-14.31389
 30
0.0
 10
-10.99792
 20
-14.31389
 30
0.0
 10
-10.96424
 20
-14.31389
 30
0.0
 10
-10.96424
 20
-14.31389
 30
0.0
 10
-10.96424
 20
-14.31389
 30
0.0
 10
-10.96424
 20
-14.31389
 30
0.0
 10
-10.96424
 20
-14.41676
 30
0.0
 10
-10.96424
 20
-14.41676
 30
0.0
 10
-10.96424
 20
-14.41676
 30
0.0
 10
-10.96424
 20
-14.41676
 30
0.0
 10
-10.98931
 20
-14.41676
 30
0.0
 10
-10.98931
 20
-14.41676
 30
0.0
 10
-10.98931
 20
-14.41676
 30
0.0
 10
-10.98931
 20
-14.41676
 30
0.0
 10
-10.98931
 20
-14.34152
 30
0.0
 10
-10.98931
 20
-14.34152
 30
0.0
 10
-10.98931
 20
-14.34152
 30
0.0
 10
-10.98931
 20
-14.34152
 30
0.0
 10
-11.01302
 20
-14.39698
 30
0.0
 10
-11.01302
 20
-14.39698
 30
0.0
 10
-11.01302
 20
-14.39698
 30
0.0
 10
-11.01302
 20
-14.39698
 30
0.0
 10
-11.02983
 20
-14.39698
 30
0.0
 10
-11.02983
 20
-14.39698
 30
0.0
 10
-11.02983
 20
-14.39698
 30
0.0
 10
-11.02983
 20
-14.39698
 30
0.0
 10
-11.05354
 20
-14.34152
 30
0.0
 10
-11.05354
 20
-14.34152
 30
0.0
 10
-11.05354
 20
-14.34152
 30
0.0
 10
-11.05354
 20
-14.34152
 30
0.0
 10
-11.05354
 20
-14.41676
 30
0.0
 10
-11.05354
 20
-14.41676
 30
0.0
 10
-11.05354
 20
-14.41676
 30
0.0
 10
-11.05354
 20
-14.41676
 30
0.0
 10
-11.07868
 20
-14.41676
 30
0.0
 10
-11.07868
 20
-14.41676
 30
0.0
 10
-11.07868
 20
-14.41676
 30
0.0
 10
-11.07868
 20
-14.41676
 30
0.0
 10
-11.07868
 20
-14.31389
 30
0.0
 10
-11.07868
 20
-14.31389
 30
0.0
  0
SPLINE
  5
64
330
1F
100
AcDbEntity
  8
Layer 1
 62
   250
100
AcDbSpline
210
0.0
220
0.0
230
1.0
 70
    11
 71
     3
 72
    32
 73
    28
 74
     0
 42
0.0000000001
 43
0.0000000001
 40
0.0
 40
0.0
 40
0.0
 40
0.0
 40
0.1428571428571428
 40
0.1428571428571428
 40
0.1428571428571428
 40
0.1428571428571428
 40
0.2857142857142857
 40
0.2857142857142857
 40
0.2857142857142857
 40
0.2857142857142857
 40
0.4285714285714285
 40
0.4285714285714285
 40
0.4285714285714285
 40
0.4285714285714285
 40
0.5714285714285714
 40
0.5714285714285714
 40
0.5714285714285714
 40
0.5714285714285714
 40
0.7142857142857142
 40
0.7142857142857142
 40
0.7142857142857142
 40
0.7142857142857142
 40
0.857142857142857
 40
0.857142857142857
 40
0.857142857142857
 40
0.857142857142857
 40
1.0
 40
1.0
 40
1.0
 40
1.0
 10
-10.91172
 20
-14.33395
 30
0.0
 10
-10.91172
 20
-14.33395
 30
0.0
 10
-10.91172
 20
-14.3967
 30
0.0
 10
-10.91172
 20
-14.3967
 30
0.0
 10
-10.91172
 20
-14.3967
 30
0.0
 10
-10.91172
 20
-14.3967
 30
0.0
 10
-10.90222
 20
-14.3967
 30
0.0
 10
-10.90222
 20
-14.3967
 30
0.0
 10
-10.90222
 20
-14.3967
 30
0.0
 10
-10.89138
 20
-14.3967
 30
0.0
 10
-10.8831
 20
-14.39402
 30
0.0
 10
-10.87739
 20
-14.38863
 30
0.0
 10
-10.87739
 20
-14.38863
 30
0.0
 10
-10.87167
 20
-14.38327
 30
0.0
 10
-10.8688
 20
-14.37546
 30
0.0
 10
-10.8688
 20
-14.36523
 30
0.0
 10
-10.8688
 20
-14.36523
 30
0.0
 10
-10.8688
 20
-14.35502
 30
0.0
 10
-10.87165
 20
-14.34726
 30
0.0
 10
-10.87734
 20
-14.34195
 30
0.0
 10
-10.87734
 20
-14.34195
 30
0.0
 10
-10.88303
 20
-14.33661
 30
0.0
 10
-10.89133
 20
-14.33395
 30
0.0
 10
-10.90222
 20
-14.33395
 30
0.0
 10
-10.90222
 20
-14.33395
 30
0.0
 10
-10.90222
 20
-14.33395
 30
0.0
 10
-10.91172
 20
-14.33395
 30
0.0
 10
-10.91172
 20
-14.33395
 30
0.0
  0
SPLINE
  5
65
330
1F
100
AcDbEntity
  8
Layer 1
 62
   250
100
AcDbSpline
210
0.0
220
0.0
230
1.0
 70
    11
 71
     3
 72
    48
 73
    44
 74
     0
 42
0.0000000001
 43
0.0000000001
 40
0.0
 40
0.0
 40
0.0
 40
0.0
 40
0.0909090909090909
 40
0.0909090909090909
 40
0.0909090909090909
 40
0.0909090909090909
 40
0.1818181818181818
 40
0.1818181818181818
 40
0.1818181818181818
 40
0.1818181818181818
 40
0.2727272727272727
 40
0.2727272727272727
 40
0.2727272727272727
 40
0.2727272727272727
 40
0.3636363636363636
 40
0.3636363636363636
 40
0.3636363636363636
 40
0.3636363636363636
 40
0.4545454545454546
 40
0.4545454545454546
 40
0.4545454545454546
 40
0.4545454545454546
 40
0.5454545454545455
 40
0.5454545454545455
 40
0.5454545454545455
 40
0.5454545454545455
 40
0.6363636363636365
 40
0.6363636363636365
 40
0.6363636363636365
 40
0.6363636363636365
 40
0.7272727272727274
 40
0.7272727272727274
 40
0.7272727272727274
 40
0.7272727272727274
 40
0.8181818181818183
 40
0.8181818181818183
 40
0.8181818181818183
 40
0.8181818181818183
 40
0.9090909090909093
 40
0.9090909090909093
 40
0.9090909090909093
 40
0.9090909090909093
 40
1.0
 40
1.0
 40
1.0
 40
1.0
 10
-10.93825
 20
-14.31389
 30
0.0
 10
-10.93825
 20
-14.31389
 30
0.0
 10
-10.91026
 20
-14.31389
 30
0.0
 10
-10.91026
 20
-14.31389
 30
0.0
 10
-10.91026
 20
-14.31389
 30
0.0
 10
-10.89465
 20
-14.31389
 30
0.0
 10
-10.88303
 20
-14.315
 30
0.0
 10
-10.87539
 20
-14.31723
 30
0.0
 10
-10.87539
 20
-14.31723
 30
0.0
 10
-10.86774
 20
-14.31946
 30
0.0
 10
-10.86118
 20
-14.32323
 30
0.0
 10
-10.8557
 20
-14.32857
 30
0.0
 10
-10.8557
 20
-14.32857
 30
0.0
 10
-10.85088
 20
-14.3332
 30
0.0
 10
-10.84731
 20
-14.33856
 30
0.0
 10
-10.84495
 20
-14.34463
 30
0.0
 10
-10.84495
 20
-14.34463
 30
0.0
 10
-10.84263
 20
-14.35067
 30
0.0
 10
-10.84145
 20
-14.35754
 30
0.0
 10
-10.84145
 20
-14.36523
 30
0.0
 10
-10.84145
 20
-14.36523
 30
0.0
 10
-10.84145
 20
-14.37299
 30
0.0
 10
-10.84263
 20
-14.37991
 30
0.0
 10
-10.84495
 20
-14.386
 30
0.0
 10
-10.84495
 20
-14.386
 30
0.0
 10
-10.84731
 20
-14.39209
 30
0.0
 10
-10.85088
 20
-14.39745
 30
0.0
 10
-10.8557
 20
-14.40208
 30
0.0
 10
-10.8557
 20
-14.40208
 30
0.0
 10
-10.86123
 20
-14.40742
 30
0.0
 10
-10.86784
 20
-14.41119
 30
0.0
 10
-10.87555
 20
-14.41342
 30
0.0
 10
-10.87555
 20
-14.41342
 30
0.0
 10
-10.88327
 20
-14.41565
 30
0.0
 10
-10.89484
 20
-14.41676
 30
0.0
 10
-10.91026
 20
-14.41676
 30
0.0
 10
-10.91026
 20
-14.41676
 30
0.0
 10
-10.91026
 20
-14.41676
 30
0.0
 10
-10.93825
 20
-14.41676
 30
0.0
 10
-10.93825
 20
-14.41676
 30
0.0
 10
-10.93825
 20
-14.41676
 30
0.0
 10
-10.93825
 20
-14.41676
 30
0.0
 10
-10.93825
 20
-14.31389
 30
0.0
 10
-10.93825
 20
-14.31389
 30
0.0
  0
SPLINE
  5
66
330
1F
100
AcDbEntity
  8
Layer 1
 62
   250
100
AcDbSpline
210
0.0
220
0.0
230
1.0
 70
    11
 71
     3
 72
    44
 73
    40
 74
     0
 42
0.0000000001
 43
0.0000000001
 40
0.0
 40
0.0
 40
0.0
 40
0.0
 40
0.1
 40
0.1
 40
0.1
 40
0.1
 40
0.2
 40
0.2
 40
0.2
 40
0.2
 40
0.3
 40
0.3
 40
0.3
 40
0.3
 40
0.4
 40
0.4
 40
0.4
 40
0.4
 40
0.5
 40
0.5
 40
0.5
 40
0.5
 40
0.6
 40
0.6
 40
0.6
 40
0.6
 40
0.7
 40
0.7
 40
0.7
 40
0.7
 40
0.7999999999999999
 40
0.7999999999999999
 40
0.7999999999999999
 40
0.7999999999999999
 40
0.8999999999999999
 40
0.8999999999999999
 40
0.8999999999999999
 40
0.8999999999999999
 40
1.0
 40
1.0
 40
1.0
 40
1.0
 10
-10.73176
 20
-14.43536
 30
0.0
 10
-10.73176
 20
-14.43536
 30
0.0
 10
-10.75222
 20
-14.43536
 30
0.0
 10
-10.75222
 20
-14.43536
 30
0.0
 10
-10.75222
 20
-14.43536
 30
0.0
 10
-10.75925
 20
-14.42403
 30
0.0
 10
-10.76445
 20
-14.41323
 30
0.0
 10
-10.76779
 20
-14.403
 30
0.0
 10
-10.76779
 20
-14.403
 30
0.0
 10
-10.77115
 20
-14.39279
 30
0.0
 10
-10.77282
 20
-14.38266
 30
0.0
 10
-10.77282
 20
-14.37259
 30
0.0
 10
-10.77282
 20
-14.37259
 30
0.0
 10
-10.77282
 20
-14.36253
 30
0.0
 10
-10.77113
 20
-14.35234
 30
0.0
 10
-10.76777
 20
-14.34204
 30
0.0
 10
-10.76777
 20
-14.34204
 30
0.0
 10
-10.76438
 20
-14.33172
 30
0.0
 10
-10.75921
 20
-14.32095
 30
0.0
 10
-10.75222
 20
-14.30968
 30
0.0
 10
-10.75222
 20
-14.30968
 30
0.0
 10
-10.75222
 20
-14.30968
 30
0.0
 10
-10.73176
 20
-14.30968
 30
0.0
 10
-10.73176
 20
-14.30968
 30
0.0
 10
-10.73176
 20
-14.30968
 30
0.0
 10
-10.73764
 20
-14.32057
 30
0.0
 10
-10.74204
 20
-14.33122
 30
0.0
 10
-10.74498
 20
-14.34162
 30
0.0
 10
-10.74498
 20
-14.34162
 30
0.0
 10
-10.74792
 20
-14.35201
 30
0.0
 10
-10.7494
 20
-14.36229
 30
0.0
 10
-10.7494
 20
-14.37245
 30
0.0
 10
-10.7494
 20
-14.37245
 30
0.0
 10
-10.7494
 20
-14.38261
 30
0.0
 10
-10.74794
 20
-14.39289
 30
0.0
 10
-10.74503
 20
-14.40333
 30
0.0
 10
-10.74503
 20
-14.40333
 30
0.0
 10
-10.74211
 20
-14.41375
 30
0.0
 10
-10.73769
 20
-14.42443
 30
0.0
 10
-10.73176
 20
-14.43536
 30
0.0
  0
SPLINE
  5
67
330
1F
100
AcDbEntity
  8
Layer 1
 62
   250
100
AcDbSpline
210
0.0
220
0.0
230
1.0
 70
    11
 71
     3
 72
    48
 73
    44
 74
     0
 42
0.0000000001
 43
0.0000000001
 40
0.0
 40
0.0
 40
0.0
 40
0.0
 40
0.0909090909090909
 40
0.0909090909090909
 40
0.0909090909090909
 40
0.0909090909090909
 40
0.1818181818181818
 40
0.1818181818181818
 40
0.1818181818181818
 40
0.1818181818181818
 40
0.2727272727272727
 40
0.2727272727272727
 40
0.2727272727272727
 40
0.2727272727272727
 40
0.3636363636363636
 40
0.3636363636363636
 40
0.3636363636363636
 40
0.3636363636363636
 40
0.4545454545454546
 40
0.4545454545454546
 40
0.4545454545454546
 40
0.4545454545454546
 40
0.5454545454545455
 40
0.5454545454545455
 40
0.5454545454545455
 40
0.5454545454545455
 40
0.6363636363636365
 40
0.6363636363636365
 40
0.6363636363636365
 40
0.6363636363636365
 40
0.7272727272727274
 40
0.7272727272727274
 40
0.7272727272727274
 40
0.7272727272727274
 40
0.8181818181818183
 40
0.8181818181818183
 40
0.8181818181818183
 40
0.8181818181818183
 40
0.9090909090909093
 40
0.9090909090909093
 40
0.9090909090909093
 40
0.9090909090909093
 40
1.0
 40
1.0
 40
1.0
 40
1.0
 10
-10.70394
 20
-14.39844
 30
0.0
 10
-10.70394
 20
-14.39844
 30
0.0
 10
-10.68051
 20
-14.39844
 30
0.0
 10
-10.68051
 20
-14.39844
 30
0.0
 10
-10.68051
 20
-14.39844
 30
0.0
 10
-10.68051
 20
-14.39844
 30
0.0
 10
-10.68051
 20
-14.33195
 30
0.0
 10
-10.68051
 20
-14.33195
 30
0.0
 10
-10.68051
 20
-14.33195
 30
0.0
 10
-10.68051
 20
-14.33195
 30
0.0
 10
-10.70455
 20
-14.33692
 30
0.0
 10
-10.70455
 20
-14.33692
 30
0.0
 10
-10.70455
 20
-14.33692
 30
0.0
 10
-10.70455
 20
-14.33692
 30
0.0
 10
-10.70455
 20
-14.31885
 30
0.0
 10
-10.70455
 20
-14.31885
 30
0.0
 10
-10.70455
 20
-14.31885
 30
0.0
 10
-10.70455
 20
-14.31885
 30
0.0
 10
-10.68065
 20
-14.31389
 30
0.0
 10
-10.68065
 20
-14.31389
 30
0.0
 10
-10.68065
 20
-14.31389
 30
0.0
 10
-10.68065
 20
-14.31389
 30
0.0
 10
-10.65544
 20
-14.31389
 30
0.0
 10
-10.65544
 20
-14.31389
 30
0.0
 10
-10.65544
 20
-14.31389
 30
0.0
 10
-10.65544
 20
-14.31389
 30
0.0
 10
-10.65544
 20
-14.39844
 30
0.0
 10
-10.65544
 20
-14.39844
 30
0.0
 10
-10.65544
 20
-14.39844
 30
0.0
 10
-10.65544
 20
-14.39844
 30
0.0
 10
-10.63202
 20
-14.39844
 30
0.0
 10
-10.63202
 20
-14.39844
 30
0.0
 10
-10.63202
 20
-14.39844
 30
0.0
 10
-10.63202
 20
-14.39844
 30
0.0
 10
-10.63202
 20
-14.41676
 30
0.0
 10
-10.63202
 20
-14.41676
 30
0.0
 10
-10.63202
 20
-14.41676
 30
0.0
 10
-10.63202
 20
-14.41676
 30
0.0
 10
-10.70394
 20
-14.41676
 30
0.0
 10
-10.70394
 20
-14.41676
 30
0.0
 10
-10.70394
 20
-14.41676
 30
0.0
 10
-10.70394
 20
-14.41676
 30
0.0
 10
-10.70394
 20
-14.39844
 30
0.0
 10
-10.70394
 20
-14.39844
 30
0.0
  0
SPLINE
  5
68
330
1F
100
AcDbEntity
  8
Layer 1
 62
   250
100
AcDbSpline
210
0.0
220
0.0
230
1.0
 70
    11
 71
     3
 72
    80
 73
    76
 74
     0
 42
0.0000000001
 43
0.0000000001
 40
0.0
 40
0.0
 40
0.0
 40
0.0
 40
0.0526315789473684
 40
0.0526315789473684
 40
0.0526315789473684
 40
0.0526315789473684
 40
0.1052631578947368
 40
0.1052631578947368
 40
0.1052631578947368
 40
0.1052631578947368
 40
0.1578947368421053
 40
0.1578947368421053
 40
0.1578947368421053
 40
0.1578947368421053
 40
0.2105263157894737
 40
0.2105263157894737
 40
0.2105263157894737
 40
0.2105263157894737
 40
0.2631578947368421
 40
0.2631578947368421
 40
0.2631578947368421
 40
0.2631578947368421
 40
0.3157894736842105
 40
0.3157894736842105
 40
0.3157894736842105
 40
0.3157894736842105
 40
0.3684210526315789
 40
0.3684210526315789
 40
0.3684210526315789
 40
0.3684210526315789
 40
0.4210526315789473
 40
0.4210526315789473
 40
0.4210526315789473
 40
0.4210526315789473
 40
0.4736842105263158
 40
0.4736842105263158
 40
0.4736842105263158
 40
0.4736842105263158
 40
0.5263157894736842
 40
0.5263157894736842
 40
0.5263157894736842
 40
0.5263157894736842
 40
0.5789473684210527
 40
0.5789473684210527
 40
0.5789473684210527
 40
0.5789473684210527
 40
0.631578947368421
 40
0.631578947368421
 40
0.631578947368421
 40
0.631578947368421
 40
0.6842105263157894
 40
0.6842105263157894
 40
0.6842105263157894
 40
0.6842105263157894
 40
0.7368421052631577
 40
0.7368421052631577
 40
0.7368421052631577
 40
0.7368421052631577
 40
0.7894736842105261
 40
0.7894736842105261
 40
0.7894736842105261
 40
0.7894736842105261
 40
0.8421052631578945
 40
0.8421052631578945
 40
0.8421052631578945
 40
0.8421052631578945
 40
0.8947368421052628
 40
0.8947368421052628
 40
0.8947368421052628
 40
0.8947368421052628
 40
0.9473684210526312
 40
0.9473684210526312
 40
0.9473684210526312
 40
0.9473684210526312
 40
1.0
 40
1.0
 40
1.0
 40
1.0
 10
-10.58162
 20
-14.39726
 30
0.0
 10
-10.58162
 20
-14.39726
 30
0.0
 10
-10.53634
 20
-14.39726
 30
0.0
 10
-10.53634
 20
-14.39726
 30
0.0
 10
-10.53634
 20
-14.39726
 30
0.0
 10
-10.53634
 20
-14.39726
 30
0.0
 10
-10.53634
 20
-14.41676
 30
0.0
 10
-10.53634
 20
-14.41676
 30
0.0
 10
-10.53634
 20
-14.41676
 30
0.0
 10
-10.53634
 20
-14.41676
 30
0.0
 10
-10.61111
 20
-14.41676
 30
0.0
 10
-10.61111
 20
-14.41676
 30
0.0
 10
-10.61111
 20
-14.41676
 30
0.0
 10
-10.61111
 20
-14.41676
 30
0.0
 10
-10.61111
 20
-14.39726
 30
0.0
 10
-10.61111
 20
-14.39726
 30
0.0
 10
-10.61111
 20
-14.39726
 30
0.0
 10
-10.61111
 20
-14.39726
 30
0.0
 10
-10.57355
 20
-14.36413
 30
0.0
 10
-10.57355
 20
-14.36413
 30
0.0
 10
-10.57355
 20
-14.36413
 30
0.0
 10
-10.57019
 20
-14.36109
 30
0.0
 10
-10.56772
 20
-14.35813
 30
0.0
 10
-10.56612
 20
-14.35524
 30
0.0
 10
-10.56612
 20
-14.35524
 30
0.0
 10
-10.5645
 20
-14.35234
 30
0.0
 10
-10.5637
 20
-14.34933
 30
0.0
 10
-10.5637
 20
-14.3462
 30
0.0
 10
-10.5637
 20
-14.3462
 30
0.0
 10
-10.5637
 20
-14.34138
 30
0.0
 10
-10.56532
 20
-14.3375
 30
0.0
 10
-10.56856
 20
-14.33456
 30
0.0
 10
-10.56856
 20
-14.33456
 30
0.0
 10
-10.57179
 20
-14.33162
 30
0.0
 10
-10.57609
 20
-14.33017
 30
0.0
 10
-10.58148
 20
-14.33017
 30
0.0
 10
-10.58148
 20
-14.33017
 30
0.0
 10
-10.58561
 20
-14.33017
 30
0.0
 10
-10.59013
 20
-14.33106
 30
0.0
 10
-10.59505
 20
-14.33282
 30
0.0
 10
-10.59505
 20
-14.33282
 30
0.0
 10
-10.59996
 20
-14.33459
 30
0.0
 10
-10.60523
 20
-14.33722
 30
0.0
 10
-10.61083
 20
-14.3407
 30
0.0
 10
-10.61083
 20
-14.3407
 30
0.0
 10
-10.61083
 20
-14.3407
 30
0.0
 10
-10.61083
 20
-14.3181
 30
0.0
 10
-10.61083
 20
-14.3181
 30
0.0
 10
-10.61083
 20
-14.3181
 30
0.0
 10
-10.60485
 20
-14.31613
 30
0.0
 10
-10.59895
 20
-14.31462
 30
0.0
 10
-10.59312
 20
-14.31359
 30
0.0
 10
-10.59312
 20
-14.31359
 30
0.0
 10
-10.58728
 20
-14.31255
 30
0.0
 10
-10.58157
 20
-14.31203
 30
0.0
 10
-10.57595
 20
-14.31203
 30
0.0
 10
-10.57595
 20
-14.31203
 30
0.0
 10
-10.56365
 20
-14.31203
 30
0.0
 10
-10.55408
 20
-14.31474
 30
0.0
 10
-10.54726
 20
-14.32017
 30
0.0
 10
-10.54726
 20
-14.32017
 30
0.0
 10
-10.54044
 20
-14.32558
 30
0.0
 10
-10.53703
 20
-14.33313
 30
0.0
 10
-10.53703
 20
-14.34284
 30
0.0
 10
-10.53703
 20
-14.34284
 30
0.0
 10
-10.53703
 20
-14.34844
 30
0.0
 10
-10.53848
 20
-14.35366
 30
0.0
 10
-10.54138
 20
-14.35851
 30
0.0
 10
-10.54138
 20
-14.35851
 30
0.0
 10
-10.54427
 20
-14.36335
 30
0.0
 10
-10.55036
 20
-14.36984
 30
0.0
 10
-10.55963
 20
-14.37798
 30
0.0
 10
-10.55963
 20
-14.37798
 30
0.0
 10
-10.55963
 20
-14.37798
 30
0.0
 10
-10.58162
 20
-14.39726
 30
0.0
 10
-10.58162
 20
-14.39726
 30
0.0
  0
SPLINE
  5
69
330
1F
100
AcDbEntity
  8
Layer 1
 62
   250
100
AcDbSpline
210
0.0
220
0.0
230
1.0
 70
    11
 71
     3
 72
    36
 73
    32
 74
     0
 42
0.0000000001
 43
0.0000000001
 40
0.0
 40
0.0
 40
0.0
 40
0.0
 40
0.125
 40
0.125
 40
0.125
 40
0.125
 40
0.25
 40
0.25
 40
0.25
 40
0.25
 40
0.375
 40
0.375
 40
0.375
 40
0.375
 40
0.5
 40
0.5
 40
0.5
 40
0.5
 40
0.625
 40
0.625
 40
0.625
 40
0.625
 40
0.75
 40
0.75
 40
0.75
 40
0.75
 40
0.875
 40
0.875
 40
0.875
 40
0.875
 40
1.0
 40
1.0
 40
1.0
 40
1.0
 10
-10.45918
 20
-14.36523
 30
0.0
 10
-10.45918
 20
-14.35237
 30
0.0
 10
-10.46038
 20
-14.34331
 30
0.0
 10
-10.4628
 20
-14.33804
 30
0.0
 10
-10.4628
 20
-14.33804
 30
0.0
 10
-10.4652
 20
-14.3328
 30
0.0
 10
-10.46927
 20
-14.33017
 30
0.0
 10
-10.47496
 20
-14.33017
 30
0.0
 10
-10.47496
 20
-14.33017
 30
0.0
 10
-10.48065
 20
-14.33017
 30
0.0
 10
-10.48472
 20
-14.3328
 30
0.0
 10
-10.48717
 20
-14.33804
 30
0.0
 10
-10.48717
 20
-14.33804
 30
0.0
 10
-10.48959
 20
-14.34331
 30
0.0
 10
-10.49081
 20
-14.35237
 30
0.0
 10
-10.49081
 20
-14.36523
 30
0.0
 10
-10.49081
 20
-14.36523
 30
0.0
 10
-10.49081
 20
-14.37821
 30
0.0
 10
-10.48959
 20
-14.38739
 30
0.0
 10
-10.48717
 20
-14.3927
 30
0.0
 10
-10.48717
 20
-14.3927
 30
0.0
 10
-10.48472
 20
-14.39804
 30
0.0
 10
-10.48065
 20
-14.4007
 30
0.0
 10
-10.47496
 20
-14.4007
 30
0.0
 10
-10.47496
 20
-14.4007
 30
0.0
 10
-10.46932
 20
-14.4007
 30
0.0
 10
-10.46527
 20
-14.39804
 30
0.0
 10
-10.46282
 20
-14.3927
 30
0.0
 10
-10.46282
 20
-14.3927
 30
0.0
 10
-10.4604
 20
-14.38739
 30
0.0
 10
-10.45918
 20
-14.37821
 30
0.0
 10
-10.45918
 20
-14.36523
 30
0.0
  0
SPLINE
  5
6A
330
1F
100
AcDbEntity
  8
Layer 1
 62
   250
100
AcDbSpline
210
0.0
220
0.0
230
1.0
 70
    11
 71
     3
 72
    36
 73
    32
 74
     0
 42
0.0000000001
 43
0.0000000001
 40
0.0
 40
0.0
 40
0.0
 40
0.0
 40
0.125
 40
0.125
 40
0.125
 40
0.125
 40
0.25
 40
0.25
 40
0.25
 40
0.25
 40
0.375
 40
0.375
 40
0.375
 40
0.375
 40
0.5
 40
0.5
 40
0.5
 40
0.5
 40
0.625
 40
0.625
 40
0.625
 40
0.625
 40
0.75
 40
0.75
 40
0.75
 40
0.75
 40
0.875
 40
0.875
 40
0.875
 40
0.875
 40
1.0
 40
1.0
 40
1.0
 40
1.0
 10
-10.43265
 20
-14.36542
 30
0.0
 10
-10.43265
 20
-14.38247
 30
0.0
 10
-10.43632
 20
-14.39562
 30
0.0
 10
-10.44368
 20
-14.40488
 30
0.0
 10
-10.44368
 20
-14.40488
 30
0.0
 10
-10.45102
 20
-14.41413
 30
0.0
 10
-10.46146
 20
-14.41876
 30
0.0
 10
-10.47496
 20
-14.41876
 30
0.0
 10
-10.47496
 20
-14.41876
 30
0.0
 10
-10.48851
 20
-14.41876
 30
0.0
 10
-10.49897
 20
-14.41413
 30
0.0
 10
-10.50631
 20
-14.40488
 30
0.0
 10
-10.50631
 20
-14.40488
 30
0.0
 10
-10.51367
 20
-14.39562
 30
0.0
 10
-10.51734
 20
-14.38247
 30
0.0
 10
-10.51734
 20
-14.36542
 30
0.0
 10
-10.51734
 20
-14.36542
 30
0.0
 10
-10.51734
 20
-14.34835
 30
0.0
 10
-10.51367
 20
-14.33517
 30
0.0
 10
-10.50631
 20
-14.32591
 30
0.0
 10
-10.50631
 20
-14.32591
 30
0.0
 10
-10.49897
 20
-14.31667
 30
0.0
 10
-10.48851
 20
-14.31203
 30
0.0
 10
-10.47496
 20
-14.31203
 30
0.0
 10
-10.47496
 20
-14.31203
 30
0.0
 10
-10.46146
 20
-14.31203
 30
0.0
 10
-10.45102
 20
-14.31667
 30
0.0
 10
-10.44368
 20
-14.32591
 30
0.0
 10
-10.44368
 20
-14.32591
 30
0.0
 10
-10.43632
 20
-14.33517
 30
0.0
 10
-10.43265
 20
-14.34835
 30
0.0
 10
-10.43265
 20
-14.36542
 30
0.0
  0
SPLINE
  5
6B
330
1F
100
AcDbEntity
  8
Layer 1
 62
   250
100
AcDbSpline
210
0.0
220
0.0
230
1.0
 70
    11
 71
     3
 72
    36
 73
    32
 74
     0
 42
0.0000000001
 43
0.0000000001
 40
0.0
 40
0.0
 40
0.0
 40
0.0
 40
0.125
 40
0.125
 40
0.125
 40
0.125
 40
0.25
 40
0.25
 40
0.25
 40
0.25
 40
0.375
 40
0.375
 40
0.375
 40
0.375
 40
0.5
 40
0.5
 40
0.5
 40
0.5
 40
0.625
 40
0.625
 40
0.625
 40
0.625
 40
0.75
 40
0.75
 40
0.75
 40
0.75
 40
0.875
 40
0.875
 40
0.875
 40
0.875
 40
1.0
 40
1.0
 40
1.0
 40
1.0
 10
-10.37484
 20
-14.36598
 30
0.0
 10
-10.3795
 20
-14.36598
 30
0.0
 10
-10.38298
 20
-14.36749
 30
0.0
 10
-10.38528
 20
-14.3705
 30
0.0
 10
-10.38528
 20
-14.3705
 30
0.0
 10
-10.38761
 20
-14.37351
 30
0.0
 10
-10.38876
 20
-14.37803
 30
0.0
 10
-10.38876
 20
-14.38402
 30
0.0
 10
-10.38876
 20
-14.38402
 30
0.0
 10
-10.38876
 20
-14.39004
 30
0.0
 10
-10.38761
 20
-14.39456
 30
0.0
 10
-10.38528
 20
-14.39757
 30
0.0
 10
-10.38528
 20
-14.39757
 30
0.0
 10
-10.38298
 20
-14.40058
 30
0.0
 10
-10.3795
 20
-14.40208
 30
0.0
 10
-10.37484
 20
-14.40208
 30
0.0
 10
-10.37484
 20
-14.40208
 30
0.0
 10
-10.37016
 20
-14.40208
 30
0.0
 10
-10.36666
 20
-14.40058
 30
0.0
 10
-10.36435
 20
-14.39757
 30
0.0
 10
-10.36435
 20
-14.39757
 30
0.0
 10
-10.36202
 20
-14.39456
 30
0.0
 10
-10.36087
 20
-14.39004
 30
0.0
 10
-10.36087
 20
-14.38402
 30
0.0
 10
-10.36087
 20
-14.38402
 30
0.0
 10
-10.36087
 20
-14.37803
 30
0.0
 10
-10.36202
 20
-14.37351
 30
0.0
 10
-10.36435
 20
-14.3705
 30
0.0
 10
-10.36435
 20
-14.3705
 30
0.0
 10
-10.36666
 20
-14.36749
 30
0.0
 10
-10.37016
 20
-14.36598
 30
0.0
 10
-10.37484
 20
-14.36598
 30
0.0
  0
SPLINE
  5
6C
330
1F
100
AcDbEntity
  8
Layer 1
 62
   250
100
AcDbSpline
210
0.0
220
0.0
230
1.0
 70
    11
 71
     3
 72
    72
 73
    68
 74
     0
 42
0.0000000001
 43
0.0000000001
 40
0.0
 40
0.0
 40
0.0
 40
0.0
 40
0.0588235294117647
 40
0.0588235294117647
 40
0.0588235294117647
 40
0.0588235294117647
 40
0.1176470588235294
 40
0.1176470588235294
 40
0.1176470588235294
 40
0.1176470588235294
 40
0.1764705882352941
 40
0.1764705882352941
 40
0.1764705882352941
 40
0.1764705882352941
 40
0.2352941176470588
 40
0.2352941176470588
 40
0.2352941176470588
 40
0.2352941176470588
 40
0.2941176470588235
 40
0.2941176470588235
 40
0.2941176470588235
 40
0.2941176470588235
 40
0.3529411764705883
 40
0.3529411764705883
 40
0.3529411764705883
 40
0.3529411764705883
 40
0.411764705882353
 40
0.411764705882353
 40
0.411764705882353
 40
0.411764705882353
 40
0.4705882352941177
 40
0.4705882352941177
 40
0.4705882352941177
 40
0.4705882352941177
 40
0.5294117647058824
 40
0.5294117647058824
 40
0.5294117647058824
 40
0.5294117647058824
 40
0.5882352941176471
 40
0.5882352941176471
 40
0.5882352941176471
 40
0.5882352941176471
 40
0.6470588235294118
 40
0.6470588235294118
 40
0.6470588235294118
 40
0.6470588235294118
 40
0.7058823529411765
 40
0.7058823529411765
 40
0.7058823529411765
 40
0.7058823529411765
 40
0.7647058823529412
 40
0.7647058823529412
 40
0.7647058823529412
 40
0.7647058823529412
 40
0.823529411764706
 40
0.823529411764706
 40
0.823529411764706
 40
0.823529411764706
 40
0.8823529411764707
 40
0.8823529411764707
 40
0.8823529411764707
 40
0.8823529411764707
 40
0.9411764705882354
 40
0.9411764705882354
 40
0.9411764705882354
 40
0.9411764705882354
 40
1.0
 40
1.0
 40
1.0
 40
1.0
 10
-10.34206
 20
-14.31657
 30
0.0
 10
-10.34206
 20
-14.31657
 30
0.0
 10
-10.34206
 20
-14.3356
 30
0.0
 10
-10.34206
 20
-14.3356
 30
0.0
 10
-10.34206
 20
-14.3356
 30
0.0
 10
-10.34643
 20
-14.33353
 30
0.0
 10
-10.35052
 20
-14.332
 30
0.0
 10
-10.35438
 20
-14.33101
 30
0.0
 10
-10.35438
 20
-14.33101
 30
0.0
 10
-10.35824
 20
-14.33002
 30
0.0
 10
-10.36202
 20
-14.32953
 30
0.0
 10
-10.36569
 20
-14.32953
 30
0.0
 10
-10.36569
 20
-14.32953
 30
0.0
 10
-10.3736
 20
-14.32953
 30
0.0
 10
-10.37973
 20
-14.33172
 30
0.0
 10
-10.38415
 20
-14.33612
 30
0.0
 10
-10.38415
 20
-14.33612
 30
0.0
 10
-10.38855
 20
-14.34049
 30
0.0
 10
-10.39114
 20
-14.347
 30
0.0
 10
-10.39187
 20
-14.35564
 30
0.0
 10
-10.39187
 20
-14.35564
 30
0.0
 10
-10.38884
 20
-14.3534
 30
0.0
 10
-10.38554
 20
-14.35171
 30
0.0
 10
-10.38201
 20
-14.35058
 30
0.0
 10
-10.38201
 20
-14.35058
 30
0.0
 10
-10.37849
 20
-14.34945
 30
0.0
 10
-10.37463
 20
-14.34889
 30
0.0
 10
-10.37044
 20
-14.34889
 30
0.0
 10
-10.37044
 20
-14.34889
 30
0.0
 10
-10.35993
 20
-14.34889
 30
0.0
 10
-10.35144
 20
-14.35197
 30
0.0
 10
-10.345
 20
-14.35813
 30
0.0
 10
-10.345
 20
-14.35813
 30
0.0
 10
-10.33853
 20
-14.36427
 30
0.0
 10
-10.33531
 20
-14.37233
 30
0.0
 10
-10.33531
 20
-14.38231
 30
0.0
 10
-10.33531
 20
-14.38231
 30
0.0
 10
-10.33531
 20
-14.39334
 30
0.0
 10
-10.33891
 20
-14.40216
 30
0.0
 10
-10.34613
 20
-14.40881
 30
0.0
 10
-10.34613
 20
-14.40881
 30
0.0
 10
-10.35332
 20
-14.41544
 30
0.0
 10
-10.36301
 20
-14.41876
 30
0.0
 10
-10.37512
 20
-14.41876
 30
0.0
 10
-10.37512
 20
-14.41876
 30
0.0
 10
-10.38848
 20
-14.41876
 30
0.0
 10
-10.39883
 20
-14.41424
 30
0.0
 10
-10.40617
 20
-14.40521
 30
0.0
 10
-10.40617
 20
-14.40521
 30
0.0
 10
-10.41348
 20
-14.3962
 30
0.0
 10
-10.41715
 20
-14.38339
 30
0.0
 10
-10.41715
 20
-14.36681
 30
0.0
 10
-10.41715
 20
-14.36681
 30
0.0
 10
-10.41715
 20
-14.34983
 30
0.0
 10
-10.41287
 20
-14.33647
 30
0.0
 10
-10.40431
 20
-14.32676
 30
0.0
 10
-10.40431
 20
-14.32676
 30
0.0
 10
-10.39573
 20
-14.31704
 30
0.0
 10
-10.38399
 20
-14.31217
 30
0.0
 10
-10.36906
 20
-14.31217
 30
0.0
 10
-10.36906
 20
-14.31217
 30
0.0
 10
-10.36433
 20
-14.31217
 30
0.0
 10
-10.35974
 20
-14.31255
 30
0.0
 10
-10.35527
 20
-14.31328
 30
0.0
 10
-10.35527
 20
-14.31328
 30
0.0
 10
-10.35083
 20
-14.31401
 30
0.0
 10
-10.34643
 20
-14.31511
 30
0.0
 10
-10.34206
 20
-14.31657
 30
0.0
  0
SPLINE
  5
6D
330
1F
100
AcDbEntity
  8
Layer 1
 62
   250
100
AcDbSpline
210
0.0
220
0.0
230
1.0
 70
    11
 71
     3
 72
    44
 73
    40
 74
     0
 42
0.0000000001
 43
0.0000000001
 40
0.0
 40
0.0
 40
0.0
 40
0.0
 40
0.1
 40
0.1
 40
0.1
 40
0.1
 40
0.2
 40
0.2
 40
0.2
 40
0.2
 40
0.3
 40
0.3
 40
0.3
 40
0.3
 40
0.4
 40
0.4
 40
0.4
 40
0.4
 40
0.5
 40
0.5
 40
0.5
 40
0.5
 40
0.6
 40
0.6
 40
0.6
 40
0.6
 40
0.7
 40
0.7
 40
0.7
 40
0.7
 40
0.7999999999999999
 40
0.7999999999999999
 40
0.7999999999999999
 40
0.7999999999999999
 40
0.8999999999999999
 40
0.8999999999999999
 40
0.8999999999999999
 40
0.8999999999999999
 40
1.0
 40
1.0
 40
1.0
 40
1.0
 10
-10.31642
 20
-14.43536
 30
0.0
 10
-10.31054
 20
-14.42443
 30
0.0
 10
-10.30612
 20
-14.41375
 30
0.0
 10
-10.30318
 20
-14.40333
 30
0.0
 10
-10.30318
 20
-14.40333
 30
0.0
 10
-10.30024
 20
-14.39289
 30
0.0
 10
-10.29878
 20
-14.38261
 30
0.0
 10
-10.29878
 20
-14.37245
 30
0.0
 10
-10.29878
 20
-14.37245
 30
0.0
 10
-10.29878
 20
-14.36229
 30
0.0
 10
-10.30024
 20
-14.35201
 30
0.0
 10
-10.30318
 20
-14.34162
 30
0.0
 10
-10.30318
 20
-14.34162
 30
0.0
 10
-10.30612
 20
-14.33122
 30
0.0
 10
-10.31054
 20
-14.32057
 30
0.0
 10
-10.31642
 20
-14.30968
 30
0.0
 10
-10.31642
 20
-14.30968
 30
0.0
 10
-10.31642
 20
-14.30968
 30
0.0
 10
-10.29596
 20
-14.30968
 30
0.0
 10
-10.29596
 20
-14.30968
 30
0.0
 10
-10.29596
 20
-14.30968
 30
0.0
 10
-10.28898
 20
-14.32095
 30
0.0
 10
-10.2838
 20
-14.33172
 30
0.0
 10
-10.28041
 20
-14.34204
 30
0.0
 10
-10.28041
 20
-14.34204
 30
0.0
 10
-10.27705
 20
-14.35234
 30
0.0
 10
-10.27536
 20
-14.36253
 30
0.0
 10
-10.27536
 20
-14.37259
 30
0.0
 10
-10.27536
 20
-14.37259
 30
0.0
 10
-10.27536
 20
-14.38266
 30
0.0
 10
-10.27703
 20
-14.39279
 30
0.0
 10
-10.28039
 20
-14.403
 30
0.0
 10
-10.28039
 20
-14.403
 30
0.0
 10
-10.28373
 20
-14.41323
 30
0.0
 10
-10.28893
 20
-14.42403
 30
0.0
 10
-10.29596
 20
-14.43536
 30
0.0
 10
-10.29596
 20
-14.43536
 30
0.0
 10
-10.29596
 20
-14.43536
 30
0.0
 10
-10.31642
 20
-14.43536
 30
0.0
 10
-10.31642
 20
-14.43536
 30
0.0
  0
SPLINE
  5
6E
330
1F
100
AcDbEntity
  8
Layer 1
 62
   250
100
AcDbSpline
210
0.0
220
0.0
230
1.0
 70
    11
 71
     3
 72
    80
 73
    76
 74
     0
 42
0.0000000001
 43
0.0000000001
 40
0.0
 40
0.0
 40
0.0
 40
0.0
 40
0.0526315789473684
 40
0.0526315789473684
 40
0.0526315789473684
 40
0.0526315789473684
 40
0.1052631578947368
 40
0.1052631578947368
 40
0.1052631578947368
 40
0.1052631578947368
 40
0.1578947368421053
 40
0.1578947368421053
 40
0.1578947368421053
 40
0.1578947368421053
 40
0.2105263157894737
 40
0.2105263157894737
 40
0.2105263157894737
 40
0.2105263157894737
 40
0.2631578947368421
 40
0.2631578947368421
 40
0.2631578947368421
 40
0.2631578947368421
 40
0.3157894736842105
 40
0.3157894736842105
 40
0.3157894736842105
 40
0.3157894736842105
 40
0.3684210526315789
 40
0.3684210526315789
 40
0.3684210526315789
 40
0.3684210526315789
 40
0.4210526315789473
 40
0.4210526315789473
 40
0.4210526315789473
 40
0.4210526315789473
 40
0.4736842105263158
 40
0.4736842105263158
 40
0.4736842105263158
 40
0.4736842105263158
 40
0.5263157894736842
 40
0.5263157894736842
 40
0.5263157894736842
 40
0.5263157894736842
 40
0.5789473684210527
 40
0.5789473684210527
 40
0.5789473684210527
 40
0.5789473684210527
 40
0.631578947368421
 40
0.631578947368421
 40
0.631578947368421
 40
0.631578947368421
 40
0.6842105263157894
 40
0.6842105263157894
 40
0.6842105263157894
 40
0.6842105263157894
 40
0.7368421052631577
 40
0.7368421052631577
 40
0.7368421052631577
 40
0.7368421052631577
 40
0.7894736842105261
 40
0.7894736842105261
 40
0.7894736842105261
 40
0.7894736842105261
 40
0.8421052631578945
 40
0.8421052631578945
 40
0.8421052631578945
 40
0.8421052631578945
 40
0.8947368421052628
 40
0.8947368421052628
 40
0.8947368421052628
 40
0.8947368421052628
 40
0.9473684210526312
 40
0.9473684210526312
 40
0.9473684210526312
 40
0.9473684210526312
 40
1.0
 40
1.0
 40
1.0
 40
1.0
 10
-10.17343
 20
-14.39726
 30
0.0
 10
-10.17343
 20
-14.39726
 30
0.0
 10
-10.12815
 20
-14.39726
 30
0.0
 10
-10.12815
 20
-14.39726
 30
0.0
 10
-10.12815
 20
-14.39726
 30
0.0
 10
-10.12815
 20
-14.39726
 30
0.0
 10
-10.12815
 20
-14.41676
 30
0.0
 10
-10.12815
 20
-14.41676
 30
0.0
 10
-10.12815
 20
-14.41676
 30
0.0
 10
-10.12815
 20
-14.41676
 30
0.0
 10
-10.20292
 20
-14.41676
 30
0.0
 10
-10.20292
 20
-14.41676
 30
0.0
 10
-10.20292
 20
-14.41676
 30
0.0
 10
-10.20292
 20
-14.41676
 30
0.0
 10
-10.20292
 20
-14.39726
 30
0.0
 10
-10.20292
 20
-14.39726
 30
0.0
 10
-10.20292
 20
-14.39726
 30
0.0
 10
-10.20292
 20
-14.39726
 30
0.0
 10
-10.16536
 20
-14.36413
 30
0.0
 10
-10.16536
 20
-14.36413
 30
0.0
 10
-10.16536
 20
-14.36413
 30
0.0
 10
-10.162
 20
-14.36109
 30
0.0
 10
-10.15953
 20
-14.35813
 30
0.0
 10
-10.15793
 20
-14.35524
 30
0.0
 10
-10.15793
 20
-14.35524
 30
0.0
 10
-10.15631
 20
-14.35234
 30
0.0
 10
-10.15551
 20
-14.34933
 30
0.0
 10
-10.15551
 20
-14.3462
 30
0.0
 10
-10.15551
 20
-14.3462
 30
0.0
 10
-10.15551
 20
-14.34138
 30
0.0
 10
-10.15713
 20
-14.3375
 30
0.0
 10
-10.16037
 20
-14.33456
 30
0.0
 10
-10.16037
 20
-14.33456
 30
0.0
 10
-10.1636
 20
-14.33162
 30
0.0
 10
-10.1679
 20
-14.33017
 30
0.0
 10
-10.17329
 20
-14.33017
 30
0.0
 10
-10.17329
 20
-14.33017
 30
0.0
 10
-10.17742
 20
-14.33017
 30
0.0
 10
-10.18194
 20
-14.33106
 30
0.0
 10
-10.18686
 20
-14.33282
 30
0.0
 10
-10.18686
 20
-14.33282
 30
0.0
 10
-10.19177
 20
-14.33459
 30
0.0
 10
-10.19704
 20
-14.33722
 30
0.0
 10
-10.20264
 20
-14.3407
 30
0.0
 10
-10.20264
 20
-14.3407
 30
0.0
 10
-10.20264
 20
-14.3407
 30
0.0
 10
-10.20264
 20
-14.3181
 30
0.0
 10
-10.20264
 20
-14.3181
 30
0.0
 10
-10.20264
 20
-14.3181
 30
0.0
 10
-10.19666
 20
-14.31613
 30
0.0
 10
-10.19076
 20
-14.31462
 30
0.0
 10
-10.18493
 20
-14.31359
 30
0.0
 10
-10.18493
 20
-14.31359
 30
0.0
 10
-10.17909
 20
-14.31255
 30
0.0
 10
-10.17338
 20
-14.31203
 30
0.0
 10
-10.16776
 20
-14.31203
 30
0.0
 10
-10.16776
 20
-14.31203
 30
0.0
 10
-10.15546
 20
-14.31203
 30
0.0
 10
-10.14589
 20
-14.31474
 30
0.0
 10
-10.13907
 20
-14.32017
 30
0.0
 10
-10.13907
 20
-14.32017
 30
0.0
 10
-10.13225
 20
-14.32558
 30
0.0
 10
-10.12884
 20
-14.33313
 30
0.0
 10
-10.12884
 20
-14.34284
 30
0.0
 10
-10.12884
 20
-14.34284
 30
0.0
 10
-10.12884
 20
-14.34844
 30
0.0
 10
-10.13029
 20
-14.35366
 30
0.0
 10
-10.13319
 20
-14.35851
 30
0.0
 10
-10.13319
 20
-14.35851
 30
0.0
 10
-10.13608
 20
-14.36335
 30
0.0
 10
-10.14217
 20
-14.36984
 30
0.0
 10
-10.15144
 20
-14.37798
 30
0.0
 10
-10.15144
 20
-14.37798
 30
0.0
 10
-10.15144
 20
-14.37798
 30
0.0
 10
-10.17343
 20
-14.39726
 30
0.0
 10
-10.17343
 20
-14.39726
 30
0.0
  0
SPLINE
  5
6F
330
1F
100
AcDbEntity
  8
Layer 1
 62
   250
100
AcDbSpline
210
0.0
220
0.0
230
1.0
 70
    11
 71
     3
 72
    80
 73
    76
 74
     0
 42
0.0000000001
 43
0.0000000001
 40
0.0
 40
0.0
 40
0.0
 40
0.0
 40
0.0526315789473684
 40
0.0526315789473684
 40
0.0526315789473684
 40
0.0526315789473684
 40
0.1052631578947368
 40
0.1052631578947368
 40
0.1052631578947368
 40
0.1052631578947368
 40
0.1578947368421053
 40
0.1578947368421053
 40
0.1578947368421053
 40
0.1578947368421053
 40
0.2105263157894737
 40
0.2105263157894737
 40
0.2105263157894737
 40
0.2105263157894737
 40
0.2631578947368421
 40
0.2631578947368421
 40
0.2631578947368421
 40
0.2631578947368421
 40
0.3157894736842105
 40
0.3157894736842105
 40
0.3157894736842105
 40
0.3157894736842105
 40
0.3684210526315789
 40
0.3684210526315789
 40
0.3684210526315789
 40
0.3684210526315789
 40
0.4210526315789473
 40
0.4210526315789473
 40
0.4210526315789473
 40
0.4210526315789473
 40
0.4736842105263158
 40
0.4736842105263158
 40
0.4736842105263158
 40
0.4736842105263158
 40
0.5263157894736842
 40
0.5263157894736842
 40
0.5263157894736842
 40
0.5263157894736842
 40
0.5789473684210527
 40
0.5789473684210527
 40
0.5789473684210527
 40
0.5789473684210527
 40
0.631578947368421
 40
0.631578947368421
 40
0.631578947368421
 40
0.631578947368421
 40
0.6842105263157894
 40
0.6842105263157894
 40
0.6842105263157894
 40
0.6842105263157894
 40
0.7368421052631577
 40
0.7368421052631577
 40
0.7368421052631577
 40
0.7368421052631577
 40
0.7894736842105261
 40
0.7894736842105261
 40
0.7894736842105261
 40
0.7894736842105261
 40
0.8421052631578945
 40
0.8421052631578945
 40
0.8421052631578945
 40
0.8421052631578945
 40
0.8947368421052628
 40
0.8947368421052628
 40
0.8947368421052628
 40
0.8947368421052628
 40
0.9473684210526312
 40
0.9473684210526312
 40
0.9473684210526312
 40
0.9473684210526312
 40
1.0
 40
1.0
 40
1.0
 40
1.0
 10
-10.07524
 20
-14.39726
 30
0.0
 10
-10.07524
 20
-14.39726
 30
0.0
 10
-10.02996
 20
-14.39726
 30
0.0
 10
-10.02996
 20
-14.39726
 30
0.0
 10
-10.02996
 20
-14.39726
 30
0.0
 10
-10.02996
 20
-14.39726
 30
0.0
 10
-10.02996
 20
-14.41676
 30
0.0
 10
-10.02996
 20
-14.41676
 30
0.0
 10
-10.02996
 20
-14.41676
 30
0.0
 10
-10.02996
 20
-14.41676
 30
0.0
 10
-10.10473
 20
-14.41676
 30
0.0
 10
-10.10473
 20
-14.41676
 30
0.0
 10
-10.10473
 20
-14.41676
 30
0.0
 10
-10.10473
 20
-14.41676
 30
0.0
 10
-10.10473
 20
-14.39726
 30
0.0
 10
-10.10473
 20
-14.39726
 30
0.0
 10
-10.10473
 20
-14.39726
 30
0.0
 10
-10.10473
 20
-14.39726
 30
0.0
 10
-10.06717
 20
-14.36413
 30
0.0
 10
-10.06717
 20
-14.36413
 30
0.0
 10
-10.06717
 20
-14.36413
 30
0.0
 10
-10.06381
 20
-14.36109
 30
0.0
 10
-10.06134
 20
-14.35813
 30
0.0
 10
-10.05974
 20
-14.35524
 30
0.0
 10
-10.05974
 20
-14.35524
 30
0.0
 10
-10.05812
 20
-14.35234
 30
0.0
 10
-10.05732
 20
-14.34933
 30
0.0
 10
-10.05732
 20
-14.3462
 30
0.0
 10
-10.05732
 20
-14.3462
 30
0.0
 10
-10.05732
 20
-14.34138
 30
0.0
 10
-10.05894
 20
-14.3375
 30
0.0
 10
-10.06218
 20
-14.33456
 30
0.0
 10
-10.06218
 20
-14.33456
 30
0.0
 10
-10.06541
 20
-14.33162
 30
0.0
 10
-10.06971
 20
-14.33017
 30
0.0
 10
-10.0751
 20
-14.33017
 30
0.0
 10
-10.0751
 20
-14.33017
 30
0.0
 10
-10.07923
 20
-14.33017
 30
0.0
 10
-10.08375
 20
-14.33106
 30
0.0
 10
-10.08867
 20
-14.33282
 30
0.0
 10
-10.08867
 20
-14.33282
 30
0.0
 10
-10.09358
 20
-14.33459
 30
0.0
 10
-10.09885
 20
-14.33722
 30
0.0
 10
-10.10445
 20
-14.3407
 30
0.0
 10
-10.10445
 20
-14.3407
 30
0.0
 10
-10.10445
 20
-14.3407
 30
0.0
 10
-10.10445
 20
-14.3181
 30
0.0
 10
-10.10445
 20
-14.3181
 30
0.0
 10
-10.10445
 20
-14.3181
 30
0.0
 10
-10.09847
 20
-14.31613
 30
0.0
 10
-10.09257
 20
-14.31462
 30
0.0
 10
-10.08674
 20
-14.31359
 30
0.0
 10
-10.08674
 20
-14.31359
 30
0.0
 10
-10.0809
 20
-14.31255
 30
0.0
 10
-10.07519
 20
-14.31203
 30
0.0
 10
-10.06957
 20
-14.31203
 30
0.0
 10
-10.06957
 20
-14.31203
 30
0.0
 10
-10.05727
 20
-14.31203
 30
0.0
 10
-10.0477
 20
-14.31474
 30
0.0
 10
-10.04088
 20
-14.32017
 30
0.0
 10
-10.04088
 20
-14.32017
 30
0.0
 10
-10.03406
 20
-14.32558
 30
0.0
 10
-10.03065
 20
-14.33313
 30
0.0
 10
-10.03065
 20
-14.34284
 30
0.0
 10
-10.03065
 20
-14.34284
 30
0.0
 10
-10.03065
 20
-14.34844
 30
0.0
 10
-10.0321
 20
-14.35366
 30
0.0
 10
-10.035
 20
-14.35851
 30
0.0
 10
-10.035
 20
-14.35851
 30
0.0
 10
-10.03789
 20
-14.36335
 30
0.0
 10
-10.04398
 20
-14.36984
 30
0.0
 10
-10.05325
 20
-14.37798
 30
0.0
 10
-10.05325
 20
-14.37798
 30
0.0
 10
-10.05325
 20
-14.37798
 30
0.0
 10
-10.07524
 20
-14.39726
 30
0.0
 10
-10.07524
 20
-14.39726
 30
0.0
  0
SPLINE
  5
70
330
1F
100
AcDbEntity
  8
Layer 1
 62
   250
100
AcDbSpline
210
0.0
220
0.0
230
1.0
 70
    11
 71
     3
 72
    84
 73
    80
 74
     0
 42
0.0000000001
 43
0.0000000001
 40
0.0
 40
0.0
 40
0.0
 40
0.0
 40
0.05
 40
0.05
 40
0.05
 40
0.05
 40
0.1
 40
0.1
 40
0.1
 40
0.1
 40
0.15
 40
0.15
 40
0.15
 40
0.15
 40
0.2
 40
0.2
 40
0.2
 40
0.2
 40
0.25
 40
0.25
 40
0.25
 40
0.25
 40
0.3
 40
0.3
 40
0.3
 40
0.3
 40
0.35
 40
0.35
 40
0.35
 40
0.35
 40
0.4
 40
0.4
 40
0.4
 40
0.4
 40
0.45
 40
0.45
 40
0.45
 40
0.45
 40
0.4999999999999999
 40
0.4999999999999999
 40
0.4999999999999999
 40
0.4999999999999999
 40
0.5499999999999999
 40
0.5499999999999999
 40
0.5499999999999999
 40
0.5499999999999999
 40
0.6
 40
0.6
 40
0.6
 40
0.6
 40
0.65
 40
0.65
 40
0.65
 40
0.65
 40
0.7000000000000001
 40
0.7000000000000001
 40
0.7000000000000001
 40
0.7000000000000001
 40
0.7500000000000001
 40
0.7500000000000001
 40
0.7500000000000001
 40
0.7500000000000001
 40
0.8000000000000002
 40
0.8000000000000002
 40
0.8000000000000002
 40
0.8000000000000002
 40
0.8500000000000002
 40
0.8500000000000002
 40
0.8500000000000002
 40
0.8500000000000002
 40
0.9000000000000002
 40
0.9000000000000002
 40
0.9000000000000002
 40
0.9000000000000002
 40
0.9500000000000003
 40
0.9500000000000003
 40
0.9500000000000003
 40
0.9500000000000003
 40
1.0
 40
1.0
 40
1.0
 40
1.0
 10
-9.95755
 20
-14.38673
 30
0.0
 10
-9.95755
 20
-14.38673
 30
0.0
 10
-9.95755
 20
-14.3396
 30
0.0
 10
-9.95755
 20
-14.3396
 30
0.0
 10
-9.95755
 20
-14.3396
 30
0.0
 10
-9.95755
 20
-14.3396
 30
0.0
 10
-9.93274
 20
-14.3396
 30
0.0
 10
-9.93274
 20
-14.3396
 30
0.0
 10
-9.93274
 20
-14.3396
 30
0.0
 10
-9.93274
 20
-14.3396
 30
0.0
 10
-9.93274
 20
-14.34731
 30
0.0
 10
-9.93274
 20
-14.34731
 30
0.0
 10
-9.93274
 20
-14.34731
 30
0.0
 10
-9.93274
 20
-14.3515
 30
0.0
 10
-9.93276
 20
-14.35674
 30
0.0
 10
-9.93281
 20
-14.36304
 30
0.0
 10
-9.93281
 20
-14.36304
 30
0.0
 10
-9.93286
 20
-14.36937
 30
0.0
 10
-9.93288
 20
-14.37358
 30
0.0
 10
-9.93288
 20
-14.3757
 30
0.0
 10
-9.93288
 20
-14.3757
 30
0.0
 10
-9.93288
 20
-14.38191
 30
0.0
 10
-9.93271
 20
-14.38637
 30
0.0
 10
-9.93239
 20
-14.3891
 30
0.0
 10
-9.93239
 20
-14.3891
 30
0.0
 10
-9.93208
 20
-14.39183
 30
0.0
 10
-9.93152
 20
-14.39381
 30
0.0
 10
-9.93074
 20
-14.39505
 30
0.0
 10
-9.93074
 20
-14.39505
 30
0.0
 10
-9.92973
 20
-14.39668
 30
0.0
 10
-9.92841
 20
-14.3979
 30
0.0
 10
-9.92679
 20
-14.39877
 30
0.0
 10
-9.92679
 20
-14.39877
 30
0.0
 10
-9.92514
 20
-14.39964
 30
0.0
 10
-9.92328
 20
-14.40009
 30
0.0
 10
-9.92117
 20
-14.40009
 30
0.0
 10
-9.92117
 20
-14.40009
 30
0.0
 10
-9.91602
 20
-14.40009
 30
0.0
 10
-9.91197
 20
-14.39811
 30
0.0
 10
-9.90903
 20
-14.39416
 30
0.0
 10
-9.90903
 20
-14.39416
 30
0.0
 10
-9.90609
 20
-14.39021
 30
0.0
 10
-9.90463
 20
-14.38473
 30
0.0
 10
-9.90463
 20
-14.3777
 30
0.0
 10
-9.90463
 20
-14.3777
 30
0.0
 10
-9.90463
 20
-14.3777
 30
0.0
 10
-9.90463
 20
-14.3396
 30
0.0
 10
-9.90463
 20
-14.3396
 30
0.0
 10
-9.90463
 20
-14.3396
 30
0.0
 10
-9.90463
 20
-14.3396
 30
0.0
 10
-9.87996
 20
-14.3396
 30
0.0
 10
-9.87996
 20
-14.3396
 30
0.0
 10
-9.87996
 20
-14.3396
 30
0.0
 10
-9.87996
 20
-14.3396
 30
0.0
 10
-9.87996
 20
-14.41676
 30
0.0
 10
-9.87996
 20
-14.41676
 30
0.0
 10
-9.87996
 20
-14.41676
 30
0.0
 10
-9.87996
 20
-14.41676
 30
0.0
 10
-9.90463
 20
-14.41676
 30
0.0
 10
-9.90463
 20
-14.41676
 30
0.0
 10
-9.90463
 20
-14.41676
 30
0.0
 10
-9.90463
 20
-14.41676
 30
0.0
 10
-9.90463
 20
-14.40559
 30
0.0
 10
-9.90463
 20
-14.40559
 30
0.0
 10
-9.90463
 20
-14.40559
 30
0.0
 10
-9.90835
 20
-14.4101
 30
0.0
 10
-9.9123
 20
-14.41342
 30
0.0
 10
-9.91644
 20
-14.41556
 30
0.0
 10
-9.91644
 20
-14.41556
 30
0.0
 10
-9.9206
 20
-14.4177
 30
0.0
 10
-9.92519
 20
-14.41876
 30
0.0
 10
-9.9302
 20
-14.41876
 30
0.0
 10
-9.9302
 20
-14.41876
 30
0.0
 10
-9.93911
 20
-14.41876
 30
0.0
 10
-9.94588
 20
-14.41603
 30
0.0
 10
-9.95056
 20
-14.41055
 30
0.0
 10
-9.95056
 20
-14.41055
 30
0.0
 10
-9.95522
 20
-14.40509
 30
0.0
 10
-9.95755
 20
-14.39715
 30
0.0
 10
-9.95755
 20
-14.38673
 30
0.0
  0
SPLINE
  5
71
330
1F
100
AcDbEntity
  8
Layer 1
 62
   250
100
AcDbSpline
210
0.0
220
0.0
230
1.0
 70
    11
 71
     3
 72
    76
 73
    72
 74
     0
 42
0.0000000001
 43
0.0000000001
 40
0.0
 40
0.0
 40
0.0
 40
0.0
 40
0.0555555555555556
 40
0.0555555555555556
 40
0.0555555555555556
 40
0.0555555555555556
 40
0.1111111111111111
 40
0.1111111111111111
 40
0.1111111111111111
 40
0.1111111111111111
 40
0.1666666666666667
 40
0.1666666666666667
 40
0.1666666666666667
 40
0.1666666666666667
 40
0.2222222222222222
 40
0.2222222222222222
 40
0.2222222222222222
 40
0.2222222222222222
 40
0.2777777777777778
 40
0.2777777777777778
 40
0.2777777777777778
 40
0.2777777777777778
 40
0.3333333333333334
 40
0.3333333333333334
 40
0.3333333333333334
 40
0.3333333333333334
 40
0.388888888888889
 40
0.388888888888889
 40
0.388888888888889
 40
0.388888888888889
 40
0.4444444444444445
 40
0.4444444444444445
 40
0.4444444444444445
 40
0.4444444444444445
 40
0.5000000000000001
 40
0.5000000000000001
 40
0.5000000000000001
 40
0.5000000000000001
 40
0.5555555555555557
 40
0.5555555555555557
 40
0.5555555555555557
 40
0.5555555555555557
 40
0.6111111111111113
 40
0.6111111111111113
 40
0.6111111111111113
 40
0.6111111111111113
 40
0.6666666666666669
 40
0.6666666666666669
 40
0.6666666666666669
 40
0.6666666666666669
 40
0.7222222222222224
 40
0.7222222222222224
 40
0.7222222222222224
 40
0.7222222222222224
 40
0.777777777777778
 40
0.777777777777778
 40
0.777777777777778
 40
0.777777777777778
 40
0.8333333333333336
 40
0.8333333333333336
 40
0.8333333333333336
 40
0.8333333333333336
 40
0.8888888888888892
 40
0.8888888888888892
 40
0.8888888888888892
 40
0.8888888888888892
 40
0.9444444444444448
 40
0.9444444444444448
 40
0.9444444444444448
 40
0.9444444444444448
 40
1.0
 40
1.0
 40
1.0
 40
1.0
 10
-9.80548
 20
-14.30954
 30
0.0
 10
-9.80548
 20
-14.30954
 30
0.0
 10
-9.80548
 20
-14.32572
 30
0.0
 10
-9.80548
 20
-14.32572
 30
0.0
 10
-9.80548
 20
-14.32572
 30
0.0
 10
-9.80548
 20
-14.32572
 30
0.0
 10
-9.81914
 20
-14.32572
 30
0.0
 10
-9.81914
 20
-14.32572
 30
0.0
 10
-9.81914
 20
-14.32572
 30
0.0
 10
-9.82262
 20
-14.32572
 30
0.0
 10
-9.82507
 20
-14.32636
 30
0.0
 10
-9.82643
 20
-14.32763
 30
0.0
 10
-9.82643
 20
-14.32763
 30
0.0
 10
-9.82782
 20
-14.3289
 30
0.0
 10
-9.8285
 20
-14.33108
 30
0.0
 10
-9.8285
 20
-14.33421
 30
0.0
 10
-9.8285
 20
-14.33421
 30
0.0
 10
-9.8285
 20
-14.33421
 30
0.0
 10
-9.8285
 20
-14.3396
 30
0.0
 10
-9.8285
 20
-14.3396
 30
0.0
 10
-9.8285
 20
-14.3396
 30
0.0
 10
-9.8285
 20
-14.3396
 30
0.0
 10
-9.80743
 20
-14.3396
 30
0.0
 10
-9.80743
 20
-14.3396
 30
0.0
 10
-9.80743
 20
-14.3396
 30
0.0
 10
-9.80743
 20
-14.3396
 30
0.0
 10
-9.80743
 20
-14.35724
 30
0.0
 10
-9.80743
 20
-14.35724
 30
0.0
 10
-9.80743
 20
-14.35724
 30
0.0
 10
-9.80743
 20
-14.35724
 30
0.0
 10
-9.8285
 20
-14.35724
 30
0.0
 10
-9.8285
 20
-14.35724
 30
0.0
 10
-9.8285
 20
-14.35724
 30
0.0
 10
-9.8285
 20
-14.35724
 30
0.0
 10
-9.8285
 20
-14.41676
 30
0.0
 10
-9.8285
 20
-14.41676
 30
0.0
 10
-9.8285
 20
-14.41676
 30
0.0
 10
-9.8285
 20
-14.41676
 30
0.0
 10
-9.85317
 20
-14.41676
 30
0.0
 10
-9.85317
 20
-14.41676
 30
0.0
 10
-9.85317
 20
-14.41676
 30
0.0
 10
-9.85317
 20
-14.41676
 30
0.0
 10
-9.85317
 20
-14.35724
 30
0.0
 10
-9.85317
 20
-14.35724
 30
0.0
 10
-9.85317
 20
-14.35724
 30
0.0
 10
-9.85317
 20
-14.35724
 30
0.0
 10
-9.86543
 20
-14.35724
 30
0.0
 10
-9.86543
 20
-14.35724
 30
0.0
 10
-9.86543
 20
-14.35724
 30
0.0
 10
-9.86543
 20
-14.35724
 30
0.0
 10
-9.86543
 20
-14.3396
 30
0.0
 10
-9.86543
 20
-14.3396
 30
0.0
 10
-9.86543
 20
-14.3396
 30
0.0
 10
-9.86543
 20
-14.3396
 30
0.0
 10
-9.85317
 20
-14.3396
 30
0.0
 10
-9.85317
 20
-14.3396
 30
0.0
 10
-9.85317
 20
-14.3396
 30
0.0
 10
-9.85317
 20
-14.3396
 30
0.0
 10
-9.85317
 20
-14.33421
 30
0.0
 10
-9.85317
 20
-14.33421
 30
0.0
 10
-9.85317
 20
-14.33421
 30
0.0
 10
-9.85317
 20
-14.32581
 30
0.0
 10
-9.85082
 20
-14.31958
 30
0.0
 10
-9.84614
 20
-14.31556
 30
0.0
 10
-9.84614
 20
-14.31556
 30
0.0
 10
-9.84146
 20
-14.31154
 30
0.0
 10
-9.83419
 20
-14.30954
 30
0.0
 10
-9.82436
 20
-14.30954
 30
0.0
 10
-9.82436
 20
-14.30954
 30
0.0
 10
-9.82436
 20
-14.30954
 30
0.0
 10
-9.80548
 20
-14.30954
 30
0.0
 10
-9.80548
 20
-14.30954
 30
0.0
  0
SPLINE
  5
72
330
1F
100
AcDbEntity
  8
Layer 1
 62
   250
100
AcDbSpline
210
0.0
220
0.0
230
1.0
 70
    11
 71
     3
 72
    76
 73
    72
 74
     0
 42
0.0000000001
 43
0.0000000001
 40
0.0
 40
0.0
 40
0.0
 40
0.0
 40
0.0555555555555556
 40
0.0555555555555556
 40
0.0555555555555556
 40
0.0555555555555556
 40
0.1111111111111111
 40
0.1111111111111111
 40
0.1111111111111111
 40
0.1111111111111111
 40
0.1666666666666667
 40
0.1666666666666667
 40
0.1666666666666667
 40
0.1666666666666667
 40
0.2222222222222222
 40
0.2222222222222222
 40
0.2222222222222222
 40
0.2222222222222222
 40
0.2777777777777778
 40
0.2777777777777778
 40
0.2777777777777778
 40
0.2777777777777778
 40
0.3333333333333334
 40
0.3333333333333334
 40
0.3333333333333334
 40
0.3333333333333334
 40
0.388888888888889
 40
0.388888888888889
 40
0.388888888888889
 40
0.388888888888889
 40
0.4444444444444445
 40
0.4444444444444445
 40
0.4444444444444445
 40
0.4444444444444445
 40
0.5000000000000001
 40
0.5000000000000001
 40
0.5000000000000001
 40
0.5000000000000001
 40
0.5555555555555557
 40
0.5555555555555557
 40
0.5555555555555557
 40
0.5555555555555557
 40
0.6111111111111113
 40
0.6111111111111113
 40
0.6111111111111113
 40
0.6111111111111113
 40
0.6666666666666669
 40
0.6666666666666669
 40
0.6666666666666669
 40
0.6666666666666669
 40
0.7222222222222224
 40
0.7222222222222224
 40
0.7222222222222224
 40
0.7222222222222224
 40
0.777777777777778
 40
0.777777777777778
 40
0.777777777777778
 40
0.777777777777778
 40
0.8333333333333336
 40
0.8333333333333336
 40
0.8333333333333336
 40
0.8333333333333336
 40
0.8888888888888892
 40
0.8888888888888892
 40
0.8888888888888892
 40
0.8888888888888892
 40
0.9444444444444448
 40
0.9444444444444448
 40
0.9444444444444448
 40
0.9444444444444448
 40
1.0
 40
1.0
 40
1.0
 40
1.0
 10
-11.36471
 20
-14.57537
 30
0.0
 10
-11.36957
 20
-14.57788
 30
0.0
 10
-11.37465
 20
-14.57979
 30
0.0
 10
-11.37995
 20
-14.58108
 30
0.0
 10
-11.37995
 20
-14.58108
 30
0.0
 10
-11.38521
 20
-14.58237
 30
0.0
 10
-11.39074
 20
-14.58301
 30
0.0
 10
-11.39648
 20
-14.58301
 30
0.0
 10
-11.39648
 20
-14.58301
 30
0.0
 10
-11.4136
 20
-14.58301
 30
0.0
 10
-11.42717
 20
-14.57821
 30
0.0
 10
-11.43719
 20
-14.56864
 30
0.0
 10
-11.43719
 20
-14.56864
 30
0.0
 10
-11.44721
 20
-14.55907
 30
0.0
 10
-11.45222
 20
-14.54609
 30
0.0
 10
-11.45222
 20
-14.52967
 30
0.0
 10
-11.45222
 20
-14.52967
 30
0.0
 10
-11.45222
 20
-14.51323
 30
0.0
 10
-11.44721
 20
-14.50022
 30
0.0
 10
-11.43719
 20
-14.49065
 30
0.0
 10
-11.43719
 20
-14.49065
 30
0.0
 10
-11.42717
 20
-14.48108
 30
0.0
 10
-11.4136
 20
-14.47628
 30
0.0
 10
-11.39648
 20
-14.47628
 30
0.0
 10
-11.39648
 20
-14.47628
 30
0.0
 10
-11.39074
 20
-14.47628
 30
0.0
 10
-11.38521
 20
-14.47692
 30
0.0
 10
-11.37995
 20
-14.47821
 30
0.0
 10
-11.37995
 20
-14.47821
 30
0.0
 10
-11.37465
 20
-14.4795
 30
0.0
 10
-11.36957
 20
-14.48141
 30
0.0
 10
-11.36471
 20
-14.48393
 30
0.0
 10
-11.36471
 20
-14.48393
 30
0.0
 10
-11.36471
 20
-14.48393
 30
0.0
 10
-11.36471
 20
-14.50521
 30
0.0
 10
-11.36471
 20
-14.50521
 30
0.0
 10
-11.36471
 20
-14.50521
 30
0.0
 10
-11.36962
 20
-14.50185
 30
0.0
 10
-11.37447
 20
-14.4994
 30
0.0
 10
-11.37924
 20
-14.49785
 30
0.0
 10
-11.37924
 20
-14.49785
 30
0.0
 10
-11.38401
 20
-14.49627
 30
0.0
 10
-11.38905
 20
-14.4955
 30
0.0
 10
-11.39434
 20
-14.4955
 30
0.0
 10
-11.39434
 20
-14.4955
 30
0.0
 10
-11.40379
 20
-14.4955
 30
0.0
 10
-11.41125
 20
-14.49853
 30
0.0
 10
-11.41666
 20
-14.5046
 30
0.0
 10
-11.41666
 20
-14.5046
 30
0.0
 10
-11.42209
 20
-14.51067
 30
0.0
 10
-11.4248
 20
-14.51902
 30
0.0
 10
-11.4248
 20
-14.52967
 30
0.0
 10
-11.4248
 20
-14.52967
 30
0.0
 10
-11.4248
 20
-14.5403
 30
0.0
 10
-11.42209
 20
-14.54863
 30
0.0
 10
-11.41666
 20
-14.55469
 30
0.0
 10
-11.41666
 20
-14.55469
 30
0.0
 10
-11.41125
 20
-14.56076
 30
0.0
 10
-11.40379
 20
-14.56379
 30
0.0
 10
-11.39434
 20
-14.56379
 30
0.0
 10
-11.39434
 20
-14.56379
 30
0.0
 10
-11.38905
 20
-14.56379
 30
0.0
 10
-11.38401
 20
-14.56302
 30
0.0
 10
-11.37924
 20
-14.56144
 30
0.0
 10
-11.37924
 20
-14.56144
 30
0.0
 10
-11.37447
 20
-14.55989
 30
0.0
 10
-11.36962
 20
-14.55744
 30
0.0
 10
-11.36471
 20
-14.55408
 30
0.0
 10
-11.36471
 20
-14.55408
 30
0.0
 10
-11.36471
 20
-14.55408
 30
0.0
 10
-11.36471
 20
-14.57537
 30
0.0
 10
-11.36471
 20
-14.57537
 30
0.0
  0
SPLINE
  5
73
330
1F
100
AcDbEntity
  8
Layer 1
 62
   250
100
AcDbSpline
210
0.0
220
0.0
230
1.0
 70
    11
 71
     3
 72
    36
 73
    32
 74
     0
 42
0.0000000001
 43
0.0000000001
 40
0.0
 40
0.0
 40
0.0
 40
0.0
 40
0.125
 40
0.125
 40
0.125
 40
0.125
 40
0.25
 40
0.25
 40
0.25
 40
0.25
 40
0.375
 40
0.375
 40
0.375
 40
0.375
 40
0.5
 40
0.5
 40
0.5
 40
0.5
 40
0.625
 40
0.625
 40
0.625
 40
0.625
 40
0.75
 40
0.75
 40
0.75
 40
0.75
 40
0.875
 40
0.875
 40
0.875
 40
0.875
 40
1.0
 40
1.0
 40
1.0
 40
1.0
 10
-11.28032
 20
-14.56229
 30
0.0
 10
-11.28032
 20
-14.56229
 30
0.0
 10
-11.32181
 20
-14.56229
 30
0.0
 10
-11.32181
 20
-14.56229
 30
0.0
 10
-11.32181
 20
-14.56229
 30
0.0
 10
-11.32181
 20
-14.56229
 30
0.0
 10
-11.32835
 20
-14.58101
 30
0.0
 10
-11.32835
 20
-14.58101
 30
0.0
 10
-11.32835
 20
-14.58101
 30
0.0
 10
-11.32835
 20
-14.58101
 30
0.0
 10
-11.35502
 20
-14.58101
 30
0.0
 10
-11.35502
 20
-14.58101
 30
0.0
 10
-11.35502
 20
-14.58101
 30
0.0
 10
-11.35502
 20
-14.58101
 30
0.0
 10
-11.31692
 20
-14.47814
 30
0.0
 10
-11.31692
 20
-14.47814
 30
0.0
 10
-11.31692
 20
-14.47814
 30
0.0
 10
-11.31692
 20
-14.47814
 30
0.0
 10
-11.28529
 20
-14.47814
 30
0.0
 10
-11.28529
 20
-14.47814
 30
0.0
 10
-11.28529
 20
-14.47814
 30
0.0
 10
-11.28529
 20
-14.47814
 30
0.0
 10
-11.24719
 20
-14.58101
 30
0.0
 10
-11.24719
 20
-14.58101
 30
0.0
 10
-11.24719
 20
-14.58101
 30
0.0
 10
-11.24719
 20
-14.58101
 30
0.0
 10
-11.27386
 20
-14.58101
 30
0.0
 10
-11.27386
 20
-14.58101
 30
0.0
 10
-11.27386
 20
-14.58101
 30
0.0
 10
-11.27386
 20
-14.58101
 30
0.0
 10
-11.28032
 20
-14.56229
 30
0.0
 10
-11.28032
 20
-14.56229
 30
0.0
  0
SPLINE
  5
74
330
1F
100
AcDbEntity
  8
Layer 1
 62
   250
100
AcDbSpline
210
0.0
220
0.0
230
1.0
 70
    11
 71
     3
 72
    16
 73
    12
 74
     0
 42
0.0000000001
 43
0.0000000001
 40
0.0
 40
0.0
 40
0.0
 40
0.0
 40
0.3333333333333333
 40
0.3333333333333333
 40
0.3333333333333333
 40
0.3333333333333333
 40
0.6666666666666666
 40
0.6666666666666666
 40
0.6666666666666666
 40
0.6666666666666666
 40
1.0
 40
1.0
 40
1.0
 40
1.0
 10
-11.3152
 20
-14.54319
 30
0.0
 10
-11.3152
 20
-14.54319
 30
0.0
 10
-11.287
 20
-14.54319
 30
0.0
 10
-11.287
 20
-14.54319
 30
0.0
 10
-11.287
 20
-14.54319
 30
0.0
 10
-11.287
 20
-14.54319
 30
0.0
 10
-11.30107
 20
-14.50227
 30
0.0
 10
-11.30107
 20
-14.50227
 30
0.0
 10
-11.30107
 20
-14.50227
 30
0.0
 10
-11.30107
 20
-14.50227
 30
0.0
 10
-11.3152
 20
-14.54319
 30
0.0
 10
-11.3152
 20
-14.54319
 30
0.0
  0
SPLINE
  5
75
330
1F
100
AcDbEntity
  8
Layer 1
 62
   250
100
AcDbSpline
210
0.0
220
0.0
230
1.0
 70
    11
 71
     3
 72
    40
 73
    36
 74
     0
 42
0.0000000001
 43
0.0000000001
 40
0.0
 40
0.0
 40
0.0
 40
0.0
 40
0.1111111111111111
 40
0.1111111111111111
 40
0.1111111111111111
 40
0.1111111111111111
 40
0.2222222222222222
 40
0.2222222222222222
 40
0.2222222222222222
 40
0.2222222222222222
 40
0.3333333333333333
 40
0.3333333333333333
 40
0.3333333333333333
 40
0.3333333333333333
 40
0.4444444444444444
 40
0.4444444444444444
 40
0.4444444444444444
 40
0.4444444444444444
 40
0.5555555555555556
 40
0.5555555555555556
 40
0.5555555555555556
 40
0.5555555555555556
 40
0.6666666666666667
 40
0.6666666666666667
 40
0.6666666666666667
 40
0.6666666666666667
 40
0.7777777777777779
 40
0.7777777777777779
 40
0.7777777777777779
 40
0.7777777777777779
 40
0.8888888888888891
 40
0.8888888888888891
 40
0.8888888888888891
 40
0.8888888888888891
 40
1.0
 40
1.0
 40
1.0
 40
1.0
 10
-11.23352
 20
-14.47814
 30
0.0
 10
-11.23352
 20
-14.47814
 30
0.0
 10
-11.1895
 20
-14.47814
 30
0.0
 10
-11.1895
 20
-14.47814
 30
0.0
 10
-11.1895
 20
-14.47814
 30
0.0
 10
-11.1764
 20
-14.47814
 30
0.0
 10
-11.16635
 20
-14.48106
 30
0.0
 10
-11.15934
 20
-14.48687
 30
0.0
 10
-11.15934
 20
-14.48687
 30
0.0
 10
-11.15234
 20
-14.49268
 30
0.0
 10
-11.14883
 20
-14.50095
 30
0.0
 10
-11.14883
 20
-14.5117
 30
0.0
 10
-11.14883
 20
-14.5117
 30
0.0
 10
-11.14883
 20
-14.52247
 30
0.0
 10
-11.15234
 20
-14.53077
 30
0.0
 10
-11.15934
 20
-14.53658
 30
0.0
 10
-11.15934
 20
-14.53658
 30
0.0
 10
-11.16635
 20
-14.54239
 30
0.0
 10
-11.1764
 20
-14.54531
 30
0.0
 10
-11.1895
 20
-14.54531
 30
0.0
 10
-11.1895
 20
-14.54531
 30
0.0
 10
-11.1895
 20
-14.54531
 30
0.0
 10
-11.20699
 20
-14.54531
 30
0.0
 10
-11.20699
 20
-14.54531
 30
0.0
 10
-11.20699
 20
-14.54531
 30
0.0
 10
-11.20699
 20
-14.54531
 30
0.0
 10
-11.20699
 20
-14.58101
 30
0.0
 10
-11.20699
 20
-14.58101
 30
0.0
 10
-11.20699
 20
-14.58101
 30
0.0
 10
-11.20699
 20
-14.58101
 30
0.0
 10
-11.23352
 20
-14.58101
 30
0.0
 10
-11.23352
 20
-14.58101
 30
0.0
 10
-11.23352
 20
-14.58101
 30
0.0
 10
-11.23352
 20
-14.58101
 30
0.0
 10
-11.23352
 20
-14.47814
 30
0.0
 10
-11.23352
 20
-14.47814
 30
0.0
  0
SPLINE
  5
76
330
1F
100
AcDbEntity
  8
Layer 1
 62
   250
100
AcDbSpline
210
0.0
220
0.0
230
1.0
 70
    11
 71
     3
 72
    32
 73
    28
 74
     0
 42
0.0000000001
 43
0.0000000001
 40
0.0
 40
0.0
 40
0.0
 40
0.0
 40
0.1428571428571428
 40
0.1428571428571428
 40
0.1428571428571428
 40
0.1428571428571428
 40
0.2857142857142857
 40
0.2857142857142857
 40
0.2857142857142857
 40
0.2857142857142857
 40
0.4285714285714285
 40
0.4285714285714285
 40
0.4285714285714285
 40
0.4285714285714285
 40
0.5714285714285714
 40
0.5714285714285714
 40
0.5714285714285714
 40
0.5714285714285714
 40
0.7142857142857142
 40
0.7142857142857142
 40
0.7142857142857142
 40
0.7142857142857142
 40
0.857142857142857
 40
0.857142857142857
 40
0.857142857142857
 40
0.857142857142857
 40
1.0
 40
1.0
 40
1.0
 40
1.0
 10
-11.20699
 20
-14.49736
 30
0.0
 10
-11.20699
 20
-14.49736
 30
0.0
 10
-11.20699
 20
-14.52609
 30
0.0
 10
-11.20699
 20
-14.52609
 30
0.0
 10
-11.20699
 20
-14.52609
 30
0.0
 10
-11.20699
 20
-14.52609
 30
0.0
 10
-11.19232
 20
-14.52609
 30
0.0
 10
-11.19232
 20
-14.52609
 30
0.0
 10
-11.19232
 20
-14.52609
 30
0.0
 10
-11.18717
 20
-14.52609
 30
0.0
 10
-11.18319
 20
-14.52485
 30
0.0
 10
-11.18039
 20
-14.52233
 30
0.0
 10
-11.18039
 20
-14.52233
 30
0.0
 10
-11.17759
 20
-14.51984
 30
0.0
 10
-11.17618
 20
-14.51629
 30
0.0
 10
-11.17618
 20
-14.5117
 30
0.0
 10
-11.17618
 20
-14.5117
 30
0.0
 10
-11.17618
 20
-14.50709
 30
0.0
 10
-11.17759
 20
-14.50356
 30
0.0
 10
-11.18039
 20
-14.50107
 30
0.0
 10
-11.18039
 20
-14.50107
 30
0.0
 10
-11.18319
 20
-14.4986
 30
0.0
 10
-11.18717
 20
-14.49736
 30
0.0
 10
-11.19232
 20
-14.49736
 30
0.0
 10
-11.19232
 20
-14.49736
 30
0.0
 10
-11.19232
 20
-14.49736
 30
0.0
 10
-11.20699
 20
-14.49736
 30
0.0
 10
-11.20699
 20
-14.49736
 30
0.0
  0
SPLINE
  5
77
330
1F
100
AcDbEntity
  8
Layer 1
 62
   250
100
AcDbSpline
210
0.0
220
0.0
230
1.0
 70
    11
 71
     3
 72
    36
 73
    32
 74
     0
 42
0.0000000001
 43
0.0000000001
 40
0.0
 40
0.0
 40
0.0
 40
0.0
 40
0.125
 40
0.125
 40
0.125
 40
0.125
 40
0.25
 40
0.25
 40
0.25
 40
0.25
 40
0.375
 40
0.375
 40
0.375
 40
0.375
 40
0.5
 40
0.5
 40
0.5
 40
0.5
 40
0.625
 40
0.625
 40
0.625
 40
0.625
 40
0.75
 40
0.75
 40
0.75
 40
0.75
 40
0.875
 40
0.875
 40
0.875
 40
0.875
 40
1.0
 40
1.0
 40
1.0
 40
1.0
 10
-11.08065
 20
-14.56229
 30
0.0
 10
-11.08065
 20
-14.56229
 30
0.0
 10
-11.12214
 20
-14.56229
 30
0.0
 10
-11.12214
 20
-14.56229
 30
0.0
 10
-11.12214
 20
-14.56229
 30
0.0
 10
-11.12214
 20
-14.56229
 30
0.0
 10
-11.12868
 20
-14.58101
 30
0.0
 10
-11.12868
 20
-14.58101
 30
0.0
 10
-11.12868
 20
-14.58101
 30
0.0
 10
-11.12868
 20
-14.58101
 30
0.0
 10
-11.15535
 20
-14.58101
 30
0.0
 10
-11.15535
 20
-14.58101
 30
0.0
 10
-11.15535
 20
-14.58101
 30
0.0
 10
-11.15535
 20
-14.58101
 30
0.0
 10
-11.11725
 20
-14.47814
 30
0.0
 10
-11.11725
 20
-14.47814
 30
0.0
 10
-11.11725
 20
-14.47814
 30
0.0
 10
-11.11725
 20
-14.47814
 30
0.0
 10
-11.08562
 20
-14.47814
 30
0.0
 10
-11.08562
 20
-14.47814
 30
0.0
 10
-11.08562
 20
-14.47814
 30
0.0
 10
-11.08562
 20
-14.47814
 30
0.0
 10
-11.04752
 20
-14.58101
 30
0.0
 10
-11.04752
 20
-14.58101
 30
0.0
 10
-11.04752
 20
-14.58101
 30
0.0
 10
-11.04752
 20
-14.58101
 30
0.0
 10
-11.07419
 20
-14.58101
 30
0.0
 10
-11.07419
 20
-14.58101
 30
0.0
 10
-11.07419
 20
-14.58101
 30
0.0
 10
-11.07419
 20
-14.58101
 30
0.0
 10
-11.08065
 20
-14.56229
 30
0.0
 10
-11.08065
 20
-14.56229
 30
0.0
  0
SPLINE
  5
78
330
1F
100
AcDbEntity
  8
Layer 1
 62
   250
100
AcDbSpline
210
0.0
220
0.0
230
1.0
 70
    11
 71
     3
 72
    16
 73
    12
 74
     0
 42
0.0000000001
 43
0.0000000001
 40
0.0
 40
0.0
 40
0.0
 40
0.0
 40
0.3333333333333333
 40
0.3333333333333333
 40
0.3333333333333333
 40
0.3333333333333333
 40
0.6666666666666666
 40
0.6666666666666666
 40
0.6666666666666666
 40
0.6666666666666666
 40
1.0
 40
1.0
 40
1.0
 40
1.0
 10
-11.11553
 20
-14.54319
 30
0.0
 10
-11.11553
 20
-14.54319
 30
0.0
 10
-11.08733
 20
-14.54319
 30
0.0
 10
-11.08733
 20
-14.54319
 30
0.0
 10
-11.08733
 20
-14.54319
 30
0.0
 10
-11.08733
 20
-14.54319
 30
0.0
 10
-11.1014
 20
-14.50227
 30
0.0
 10
-11.1014
 20
-14.50227
 30
0.0
 10
-11.1014
 20
-14.50227
 30
0.0
 10
-11.1014
 20
-14.50227
 30
0.0
 10
-11.11553
 20
-14.54319
 30
0.0
 10
-11.11553
 20
-14.54319
 30
0.0
  0
SPLINE
  5
79
330
1F
100
AcDbEntity
  8
Layer 1
 62
   250
100
AcDbSpline
210
0.0
220
0.0
230
1.0
 70
    11
 71
     3
 72
    76
 73
    72
 74
     0
 42
0.0000000001
 43
0.0000000001
 40
0.0
 40
0.0
 40
0.0
 40
0.0
 40
0.0555555555555556
 40
0.0555555555555556
 40
0.0555555555555556
 40
0.0555555555555556
 40
0.1111111111111111
 40
0.1111111111111111
 40
0.1111111111111111
 40
0.1111111111111111
 40
0.1666666666666667
 40
0.1666666666666667
 40
0.1666666666666667
 40
0.1666666666666667
 40
0.2222222222222222
 40
0.2222222222222222
 40
0.2222222222222222
 40
0.2222222222222222
 40
0.2777777777777778
 40
0.2777777777777778
 40
0.2777777777777778
 40
0.2777777777777778
 40
0.3333333333333334
 40
0.3333333333333334
 40
0.3333333333333334
 40
0.3333333333333334
 40
0.388888888888889
 40
0.388888888888889
 40
0.388888888888889
 40
0.388888888888889
 40
0.4444444444444445
 40
0.4444444444444445
 40
0.4444444444444445
 40
0.4444444444444445
 40
0.5000000000000001
 40
0.5000000000000001
 40
0.5000000000000001
 40
0.5000000000000001
 40
0.5555555555555557
 40
0.5555555555555557
 40
0.5555555555555557
 40
0.5555555555555557
 40
0.6111111111111113
 40
0.6111111111111113
 40
0.6111111111111113
 40
0.6111111111111113
 40
0.6666666666666669
 40
0.6666666666666669
 40
0.6666666666666669
 40
0.6666666666666669
 40
0.7222222222222224
 40
0.7222222222222224
 40
0.7222222222222224
 40
0.7222222222222224
 40
0.777777777777778
 40
0.777777777777778
 40
0.777777777777778
 40
0.777777777777778
 40
0.8333333333333336
 40
0.8333333333333336
 40
0.8333333333333336
 40
0.8333333333333336
 40
0.8888888888888892
 40
0.8888888888888892
 40
0.8888888888888892
 40
0.8888888888888892
 40
0.9444444444444448
 40
0.9444444444444448
 40
0.9444444444444448
 40
0.9444444444444448
 40
1.0
 40
1.0
 40
1.0
 40
1.0
 10
-10.95227
 20
-14.57537
 30
0.0
 10
-10.95713
 20
-14.57788
 30
0.0
 10
-10.96221
 20
-14.57979
 30
0.0
 10
-10.96751
 20
-14.58108
 30
0.0
 10
-10.96751
 20
-14.58108
 30
0.0
 10
-10.97277
 20
-14.58237
 30
0.0
 10
-10.9783
 20
-14.58301
 30
0.0
 10
-10.98404
 20
-14.58301
 30
0.0
 10
-10.98404
 20
-14.58301
 30
0.0
 10
-11.00116
 20
-14.58301
 30
0.0
 10
-11.01473
 20
-14.57821
 30
0.0
 10
-11.02475
 20
-14.56864
 30
0.0
 10
-11.02475
 20
-14.56864
 30
0.0
 10
-11.03477
 20
-14.55907
 30
0.0
 10
-11.03978
 20
-14.54609
 30
0.0
 10
-11.03978
 20
-14.52967
 30
0.0
 10
-11.03978
 20
-14.52967
 30
0.0
 10
-11.03978
 20
-14.51323
 30
0.0
 10
-11.03477
 20
-14.50022
 30
0.0
 10
-11.02475
 20
-14.49065
 30
0.0
 10
-11.02475
 20
-14.49065
 30
0.0
 10
-11.01473
 20
-14.48108
 30
0.0
 10
-11.00116
 20
-14.47628
 30
0.0
 10
-10.98404
 20
-14.47628
 30
0.0
 10
-10.98404
 20
-14.47628
 30
0.0
 10
-10.9783
 20
-14.47628
 30
0.0
 10
-10.97277
 20
-14.47692
 30
0.0
 10
-10.96751
 20
-14.47821
 30
0.0
 10
-10.96751
 20
-14.47821
 30
0.0
 10
-10.96221
 20
-14.4795
 30
0.0
 10
-10.95713
 20
-14.48141
 30
0.0
 10
-10.95227
 20
-14.48393
 30
0.0
 10
-10.95227
 20
-14.48393
 30
0.0
 10
-10.95227
 20
-14.48393
 30
0.0
 10
-10.95227
 20
-14.50521
 30
0.0
 10
-10.95227
 20
-14.50521
 30
0.0
 10
-10.95227
 20
-14.50521
 30
0.0
 10
-10.95718
 20
-14.50185
 30
0.0
 10
-10.96203
 20
-14.4994
 30
0.0
 10
-10.9668
 20
-14.49785
 30
0.0
 10
-10.9668
 20
-14.49785
 30
0.0
 10
-10.97157
 20
-14.49627
 30
0.0
 10
-10.97661
 20
-14.4955
 30
0.0
 10
-10.9819
 20
-14.4955
 30
0.0
 10
-10.9819
 20
-14.4955
 30
0.0
 10
-10.99135
 20
-14.4955
 30
0.0
 10
-10.99881
 20
-14.49853
 30
0.0
 10
-11.00422
 20
-14.5046
 30
0.0
 10
-11.00422
 20
-14.5046
 30
0.0
 10
-11.00965
 20
-14.51067
 30
0.0
 10
-11.01236
 20
-14.51902
 30
0.0
 10
-11.01236
 20
-14.52967
 30
0.0
 10
-11.01236
 20
-14.52967
 30
0.0
 10
-11.01236
 20
-14.5403
 30
0.0
 10
-11.00965
 20
-14.54863
 30
0.0
 10
-11.00422
 20
-14.55469
 30
0.0
 10
-11.00422
 20
-14.55469
 30
0.0
 10
-10.99881
 20
-14.56076
 30
0.0
 10
-10.99135
 20
-14.56379
 30
0.0
 10
-10.9819
 20
-14.56379
 30
0.0
 10
-10.9819
 20
-14.56379
 30
0.0
 10
-10.97661
 20
-14.56379
 30
0.0
 10
-10.97157
 20
-14.56302
 30
0.0
 10
-10.9668
 20
-14.56144
 30
0.0
 10
-10.9668
 20
-14.56144
 30
0.0
 10
-10.96203
 20
-14.55989
 30
0.0
 10
-10.95718
 20
-14.55744
 30
0.0
 10
-10.95227
 20
-14.55408
 30
0.0
 10
-10.95227
 20
-14.55408
 30
0.0
 10
-10.95227
 20
-14.55408
 30
0.0
 10
-10.95227
 20
-14.57537
 30
0.0
 10
-10.95227
 20
-14.57537
 30
0.0
  0
SPLINE
  5
7A
330
1F
100
AcDbEntity
  8
Layer 1
 62
   250
100
AcDbSpline
210
0.0
220
0.0
230
1.0
 70
    11
 71
     3
 72
    20
 73
    16
 74
     0
 42
0.0000000001
 43
0.0000000001
 40
0.0
 40
0.0
 40
0.0
 40
0.0
 40
0.25
 40
0.25
 40
0.25
 40
0.25
 40
0.5
 40
0.5
 40
0.5
 40
0.5
 40
0.75
 40
0.75
 40
0.75
 40
0.75
 40
1.0
 40
1.0
 40
1.0
 40
1.0
 10
-10.9303
 20
-14.47814
 30
0.0
 10
-10.9303
 20
-14.47814
 30
0.0
 10
-10.90377
 20
-14.47814
 30
0.0
 10
-10.90377
 20
-14.47814
 30
0.0
 10
-10.90377
 20
-14.47814
 30
0.0
 10
-10.90377
 20
-14.47814
 30
0.0
 10
-10.90377
 20
-14.58101
 30
0.0
 10
-10.90377
 20
-14.58101
 30
0.0
 10
-10.90377
 20
-14.58101
 30
0.0
 10
-10.90377
 20
-14.58101
 30
0.0
 10
-10.9303
 20
-14.58101
 30
0.0
 10
-10.9303
 20
-14.58101
 30
0.0
 10
-10.9303
 20
-14.58101
 30
0.0
 10
-10.9303
 20
-14.58101
 30
0.0
 10
-10.9303
 20
-14.47814
 30
0.0
 10
-10.9303
 20
-14.47814
 30
0.0
  0
SPLINE
  5
7B
330
1F
100
AcDbEntity
  8
Layer 1
 62
   250
100
AcDbSpline
210
0.0
220
0.0
230
1.0
 70
    11
 71
     3
 72
    36
 73
    32
 74
     0
 42
0.0000000001
 43
0.0000000001
 40
0.0
 40
0.0
 40
0.0
 40
0.0
 40
0.125
 40
0.125
 40
0.125
 40
0.125
 40
0.25
 40
0.25
 40
0.25
 40
0.25
 40
0.375
 40
0.375
 40
0.375
 40
0.375
 40
0.5
 40
0.5
 40
0.5
 40
0.5
 40
0.625
 40
0.625
 40
0.625
 40
0.625
 40
0.75
 40
0.75
 40
0.75
 40
0.75
 40
0.875
 40
0.875
 40
0.875
 40
0.875
 40
1.0
 40
1.0
 40
1.0
 40
1.0
 10
-10.89009
 20
-14.47814
 30
0.0
 10
-10.89009
 20
-14.47814
 30
0.0
 10
-10.79529
 20
-14.47814
 30
0.0
 10
-10.79529
 20
-14.47814
 30
0.0
 10
-10.79529
 20
-14.47814
 30
0.0
 10
-10.79529
 20
-14.47814
 30
0.0
 10
-10.79529
 20
-14.4982
 30
0.0
 10
-10.79529
 20
-14.4982
 30
0.0
 10
-10.79529
 20
-14.4982
 30
0.0
 10
-10.79529
 20
-14.4982
 30
0.0
 10
-10.82939
 20
-14.4982
 30
0.0
 10
-10.82939
 20
-14.4982
 30
0.0
 10
-10.82939
 20
-14.4982
 30
0.0
 10
-10.82939
 20
-14.4982
 30
0.0
 10
-10.82939
 20
-14.58101
 30
0.0
 10
-10.82939
 20
-14.58101
 30
0.0
 10
-10.82939
 20
-14.58101
 30
0.0
 10
-10.82939
 20
-14.58101
 30
0.0
 10
-10.85592
 20
-14.58101
 30
0.0
 10
-10.85592
 20
-14.58101
 30
0.0
 10
-10.85592
 20
-14.58101
 30
0.0
 10
-10.85592
 20
-14.58101
 30
0.0
 10
-10.85592
 20
-14.4982
 30
0.0
 10
-10.85592
 20
-14.4982
 30
0.0
 10
-10.85592
 20
-14.4982
 30
0.0
 10
-10.85592
 20
-14.4982
 30
0.0
 10
-10.89009
 20
-14.4982
 30
0.0
 10
-10.89009
 20
-14.4982
 30
0.0
 10
-10.89009
 20
-14.4982
 30
0.0
 10
-10.89009
 20
-14.4982
 30
0.0
 10
-10.89009
 20
-14.47814
 30
0.0
 10
-10.89009
 20
-14.47814
 30
0.0
  0
SPLINE
  5
7C
330
1F
100
AcDbEntity
  8
Layer 1
 62
   250
100
AcDbSpline
210
0.0
220
0.0
230
1.0
 70
    11
 71
     3
 72
    36
 73
    32
 74
     0
 42
0.0000000001
 43
0.0000000001
 40
0.0
 40
0.0
 40
0.0
 40
0.0
 40
0.125
 40
0.125
 40
0.125
 40
0.125
 40
0.25
 40
0.25
 40
0.25
 40
0.25
 40
0.375
 40
0.375
 40
0.375
 40
0.375
 40
0.5
 40
0.5
 40
0.5
 40
0.5
 40
0.625
 40
0.625
 40
0.625
 40
0.625
 40
0.75
 40
0.75
 40
0.75
 40
0.75
 40
0.875
 40
0.875
 40
0.875
 40
0.875
 40
1.0
 40
1.0
 40
1.0
 40
1.0
 10
-10.73456
 20
-14.4955
 30
0.0
 10
-10.74265
 20
-14.4955
 30
0.0
 10
-10.74891
 20
-14.49848
 30
0.0
 10
-10.75338
 20
-14.50446
 30
0.0
 10
-10.75338
 20
-14.50446
 30
0.0
 10
-10.75782
 20
-14.51043
 30
0.0
 10
-10.76006
 20
-14.51883
 30
0.0
 10
-10.76006
 20
-14.52967
 30
0.0
 10
-10.76006
 20
-14.52967
 30
0.0
 10
-10.76006
 20
-14.54049
 30
0.0
 10
-10.75782
 20
-14.54886
 30
0.0
 10
-10.75338
 20
-14.55483
 30
0.0
 10
-10.75338
 20
-14.55483
 30
0.0
 10
-10.74891
 20
-14.56081
 30
0.0
 10
-10.74265
 20
-14.56379
 30
0.0
 10
-10.73456
 20
-14.56379
 30
0.0
 10
-10.73456
 20
-14.56379
 30
0.0
 10
-10.72642
 20
-14.56379
 30
0.0
 10
-10.72015
 20
-14.56081
 30
0.0
 10
-10.71568
 20
-14.55483
 30
0.0
 10
-10.71568
 20
-14.55483
 30
0.0
 10
-10.71123
 20
-14.54886
 30
0.0
 10
-10.709
 20
-14.54049
 30
0.0
 10
-10.709
 20
-14.52967
 30
0.0
 10
-10.709
 20
-14.52967
 30
0.0
 10
-10.709
 20
-14.51883
 30
0.0
 10
-10.71123
 20
-14.51043
 30
0.0
 10
-10.71568
 20
-14.50446
 30
0.0
 10
-10.71568
 20
-14.50446
 30
0.0
 10
-10.72015
 20
-14.49848
 30
0.0
 10
-10.72642
 20
-14.4955
 30
0.0
 10
-10.73456
 20
-14.4955
 30
0.0
  0
SPLINE
  5
7D
330
1F
100
AcDbEntity
  8
Layer 1
 62
   250
100
AcDbSpline
210
0.0
220
0.0
230
1.0
 70
    11
 71
     3
 72
    36
 73
    32
 74
     0
 42
0.0000000001
 43
0.0000000001
 40
0.0
 40
0.0
 40
0.0
 40
0.0
 40
0.125
 40
0.125
 40
0.125
 40
0.125
 40
0.25
 40
0.25
 40
0.25
 40
0.25
 40
0.375
 40
0.375
 40
0.375
 40
0.375
 40
0.5
 40
0.5
 40
0.5
 40
0.5
 40
0.625
 40
0.625
 40
0.625
 40
0.625
 40
0.75
 40
0.75
 40
0.75
 40
0.75
 40
0.875
 40
0.875
 40
0.875
 40
0.875
 40
1.0
 40
1.0
 40
1.0
 40
1.0
 10
-10.73456
 20
-14.47628
 30
0.0
 10
-10.71803
 20
-14.47628
 30
0.0
 10
-10.70507
 20
-14.48101
 30
0.0
 10
-10.69571
 20
-14.49049
 30
0.0
 10
-10.69571
 20
-14.49049
 30
0.0
 10
-10.68633
 20
-14.49994
 30
0.0
 10
-10.68165
 20
-14.51299
 30
0.0
 10
-10.68165
 20
-14.52967
 30
0.0
 10
-10.68165
 20
-14.52967
 30
0.0
 10
-10.68165
 20
-14.5463
 30
0.0
 10
-10.68633
 20
-14.55935
 30
0.0
 10
-10.69571
 20
-14.5688
 30
0.0
 10
-10.69571
 20
-14.5688
 30
0.0
 10
-10.70507
 20
-14.57828
 30
0.0
 10
-10.71803
 20
-14.58301
 30
0.0
 10
-10.73456
 20
-14.58301
 30
0.0
 10
-10.73456
 20
-14.58301
 30
0.0
 10
-10.75105
 20
-14.58301
 30
0.0
 10
-10.76398
 20
-14.57828
 30
0.0
 10
-10.77339
 20
-14.5688
 30
0.0
 10
-10.77339
 20
-14.5688
 30
0.0
 10
-10.78277
 20
-14.55935
 30
0.0
 10
-10.78748
 20
-14.5463
 30
0.0
 10
-10.78748
 20
-14.52967
 30
0.0
 10
-10.78748
 20
-14.52967
 30
0.0
 10
-10.78748
 20
-14.51299
 30
0.0
 10
-10.78277
 20
-14.49994
 30
0.0
 10
-10.77339
 20
-14.49049
 30
0.0
 10
-10.77339
 20
-14.49049
 30
0.0
 10
-10.76398
 20
-14.48101
 30
0.0
 10
-10.75105
 20
-14.47628
 30
0.0
 10
-10.73456
 20
-14.47628
 30
0.0
  0
SPLINE
  5
7E
330
1F
100
AcDbEntity
  8
Layer 1
 62
   250
100
AcDbSpline
210
0.0
220
0.0
230
1.0
 70
    11
 71
     3
 72
    32
 73
    28
 74
     0
 42
0.0000000001
 43
0.0000000001
 40
0.0
 40
0.0
 40
0.0
 40
0.0
 40
0.1428571428571428
 40
0.1428571428571428
 40
0.1428571428571428
 40
0.1428571428571428
 40
0.2857142857142857
 40
0.2857142857142857
 40
0.2857142857142857
 40
0.2857142857142857
 40
0.4285714285714285
 40
0.4285714285714285
 40
0.4285714285714285
 40
0.4285714285714285
 40
0.5714285714285714
 40
0.5714285714285714
 40
0.5714285714285714
 40
0.5714285714285714
 40
0.7142857142857142
 40
0.7142857142857142
 40
0.7142857142857142
 40
0.7142857142857142
 40
0.857142857142857
 40
0.857142857142857
 40
0.857142857142857
 40
0.857142857142857
 40
1.0
 40
1.0
 40
1.0
 40
1.0
 10
-10.62388
 20
-14.52377
 30
0.0
 10
-10.61833
 20
-14.52377
 30
0.0
 10
-10.61433
 20
-14.52273
 30
0.0
 10
-10.61193
 20
-14.52066
 30
0.0
 10
-10.61193
 20
-14.52066
 30
0.0
 10
-10.60951
 20
-14.51859
 30
0.0
 10
-10.60831
 20
-14.51518
 30
0.0
 10
-10.60831
 20
-14.51045
 30
0.0
 10
-10.60831
 20
-14.51045
 30
0.0
 10
-10.60831
 20
-14.50577
 30
0.0
 10
-10.60951
 20
-14.50241
 30
0.0
 10
-10.61193
 20
-14.50039
 30
0.0
 10
-10.61193
 20
-14.50039
 30
0.0
 10
-10.61433
 20
-14.49837
 30
0.0
 10
-10.61833
 20
-14.49736
 30
0.0
 10
-10.62388
 20
-14.49736
 30
0.0
 10
-10.62388
 20
-14.49736
 30
0.0
 10
-10.62388
 20
-14.49736
 30
0.0
 10
-10.63505
 20
-14.49736
 30
0.0
 10
-10.63505
 20
-14.49736
 30
0.0
 10
-10.63505
 20
-14.49736
 30
0.0
 10
-10.63505
 20
-14.49736
 30
0.0
 10
-10.63505
 20
-14.52377
 30
0.0
 10
-10.63505
 20
-14.52377
 30
0.0
 10
-10.63505
 20
-14.52377
 30
0.0
 10
-10.63505
 20
-14.52377
 30
0.0
 10
-10.62388
 20
-14.52377
 30
0.0
 10
-10.62388
 20
-14.52377
 30
0.0
  0
SPLINE
  5
7F
330
1F
100
AcDbEntity
  8
Layer 1
 62
   250
100
AcDbSpline
210
0.0
220
0.0
230
1.0
 70
    11
 71
     3
 72
    68
 73
    64
 74
     0
 42
0.0000000001
 43
0.0000000001
 40
0.0
 40
0.0
 40
0.0
 40
0.0
 40
0.0625
 40
0.0625
 40
0.0625
 40
0.0625
 40
0.125
 40
0.125
 40
0.125
 40
0.125
 40
0.1875
 40
0.1875
 40
0.1875
 40
0.1875
 40
0.25
 40
0.25
 40
0.25
 40
0.25
 40
0.3125
 40
0.3125
 40
0.3125
 40
0.3125
 40
0.375
 40
0.375
 40
0.375
 40
0.375
 40
0.4375
 40
0.4375
 40
0.4375
 40
0.4375
 40
0.5
 40
0.5
 40
0.5
 40
0.5
 40
0.5625
 40
0.5625
 40
0.5625
 40
0.5625
 40
0.625
 40
0.625
 40
0.625
 40
0.625
 40
0.6875
 40
0.6875
 40
0.6875
 40
0.6875
 40
0.75
 40
0.75
 40
0.75
 40
0.75
 40
0.8125
 40
0.8125
 40
0.8125
 40
0.8125
 40
0.875
 40
0.875
 40
0.875
 40
0.875
 40
0.9375
 40
0.9375
 40
0.9375
 40
0.9375
 40
1.0
 40
1.0
 40
1.0
 40
1.0
 10
-10.63505
 20
-14.54209
 30
0.0
 10
-10.63505
 20
-14.54209
 30
0.0
 10
-10.63505
 20
-14.58101
 30
0.0
 10
-10.63505
 20
-14.58101
 30
0.0
 10
-10.63505
 20
-14.58101
 30
0.0
 10
-10.63505
 20
-14.58101
 30
0.0
 10
-10.66158
 20
-14.58101
 30
0.0
 10
-10.66158
 20
-14.58101
 30
0.0
 10
-10.66158
 20
-14.58101
 30
0.0
 10
-10.66158
 20
-14.58101
 30
0.0
 10
-10.66158
 20
-14.47814
 30
0.0
 10
-10.66158
 20
-14.47814
 30
0.0
 10
-10.66158
 20
-14.47814
 30
0.0
 10
-10.66158
 20
-14.47814
 30
0.0
 10
-10.62106
 20
-14.47814
 30
0.0
 10
-10.62106
 20
-14.47814
 30
0.0
 10
-10.62106
 20
-14.47814
 30
0.0
 10
-10.60751
 20
-14.47814
 30
0.0
 10
-10.59756
 20
-14.48042
 30
0.0
 10
-10.59126
 20
-14.48496
 30
0.0
 10
-10.59126
 20
-14.48496
 30
0.0
 10
-10.58494
 20
-14.4895
 30
0.0
 10
-10.58178
 20
-14.4967
 30
0.0
 10
-10.58178
 20
-14.50653
 30
0.0
 10
-10.58178
 20
-14.50653
 30
0.0
 10
-10.58178
 20
-14.51332
 30
0.0
 10
-10.58343
 20
-14.51892
 30
0.0
 10
-10.5867
 20
-14.52327
 30
0.0
 10
-10.5867
 20
-14.52327
 30
0.0
 10
-10.58999
 20
-14.52765
 30
0.0
 10
-10.59495
 20
-14.53087
 30
0.0
 10
-10.60156
 20
-14.53292
 30
0.0
 10
-10.60156
 20
-14.53292
 30
0.0
 10
-10.59794
 20
-14.53376
 30
0.0
 10
-10.59467
 20
-14.53562
 30
0.0
 10
-10.5918
 20
-14.53854
 30
0.0
 10
-10.5918
 20
-14.53854
 30
0.0
 10
-10.58893
 20
-14.54145
 30
0.0
 10
-10.58604
 20
-14.54587
 30
0.0
 10
-10.5831
 20
-14.5518
 30
0.0
 10
-10.5831
 20
-14.5518
 30
0.0
 10
-10.5831
 20
-14.5518
 30
0.0
 10
-10.56868
 20
-14.58101
 30
0.0
 10
-10.56868
 20
-14.58101
 30
0.0
 10
-10.56868
 20
-14.58101
 30
0.0
 10
-10.56868
 20
-14.58101
 30
0.0
 10
-10.59695
 20
-14.58101
 30
0.0
 10
-10.59695
 20
-14.58101
 30
0.0
 10
-10.59695
 20
-14.58101
 30
0.0
 10
-10.59695
 20
-14.58101
 30
0.0
 10
-10.60949
 20
-14.55545
 30
0.0
 10
-10.60949
 20
-14.55545
 30
0.0
 10
-10.60949
 20
-14.55545
 30
0.0
 10
-10.612
 20
-14.55032
 30
0.0
 10
-10.61457
 20
-14.54679
 30
0.0
 10
-10.61718
 20
-14.54491
 30
0.0
 10
-10.61718
 20
-14.54491
 30
0.0
 10
-10.61977
 20
-14.54303
 30
0.0
 10
-10.62322
 20
-14.54209
 30
0.0
 10
-10.62755
 20
-14.54209
 30
0.0
 10
-10.62755
 20
-14.54209
 30
0.0
 10
-10.62755
 20
-14.54209
 30
0.0
 10
-10.63505
 20
-14.54209
 30
0.0
 10
-10.63505
 20
-14.54209
 30
0.0
  0
SPLINE
  5
80
330
1F
100
AcDbEntity
  8
Layer 1
 62
   250
100
AcDbSpline
210
0.0
220
0.0
230
1.0
 70
    11
 71
     3
 72
    44
 73
    40
 74
     0
 42
0.0000000001
 43
0.0000000001
 40
0.0
 40
0.0
 40
0.0
 40
0.0
 40
0.1
 40
0.1
 40
0.1
 40
0.1
 40
0.2
 40
0.2
 40
0.2
 40
0.2
 40
0.3
 40
0.3
 40
0.3
 40
0.3
 40
0.4
 40
0.4
 40
0.4
 40
0.4
 40
0.5
 40
0.5
 40
0.5
 40
0.5
 40
0.6
 40
0.6
 40
0.6
 40
0.6
 40
0.7
 40
0.7
 40
0.7
 40
0.7
 40
0.7999999999999999
 40
0.7999999999999999
 40
0.7999999999999999
 40
0.7999999999999999
 40
0.8999999999999999
 40
0.8999999999999999
 40
0.8999999999999999
 40
0.8999999999999999
 40
1.0
 40
1.0
 40
1.0
 40
1.0
 10
-10.46356
 20
-14.59961
 30
0.0
 10
-10.46356
 20
-14.59961
 30
0.0
 10
-10.48402
 20
-14.59961
 30
0.0
 10
-10.48402
 20
-14.59961
 30
0.0
 10
-10.48402
 20
-14.59961
 30
0.0
 10
-10.49105
 20
-14.58828
 30
0.0
 10
-10.49625
 20
-14.57748
 30
0.0
 10
-10.49959
 20
-14.56725
 30
0.0
 10
-10.49959
 20
-14.56725
 30
0.0
 10
-10.50295
 20
-14.55704
 30
0.0
 10
-10.50462
 20
-14.54691
 30
0.0
 10
-10.50462
 20
-14.53684
 30
0.0
 10
-10.50462
 20
-14.53684
 30
0.0
 10
-10.50462
 20
-14.52678
 30
0.0
 10
-10.50293
 20
-14.51659
 30
0.0
 10
-10.49957
 20
-14.50629
 30
0.0
 10
-10.49957
 20
-14.50629
 30
0.0
 10
-10.49618
 20
-14.49597
 30
0.0
 10
-10.49101
 20
-14.4852
 30
0.0
 10
-10.48402
 20
-14.47393
 30
0.0
 10
-10.48402
 20
-14.47393
 30
0.0
 10
-10.48402
 20
-14.47393
 30
0.0
 10
-10.46356
 20
-14.47393
 30
0.0
 10
-10.46356
 20
-14.47393
 30
0.0
 10
-10.46356
 20
-14.47393
 30
0.0
 10
-10.46944
 20
-14.48482
 30
0.0
 10
-10.47384
 20
-14.49547
 30
0.0
 10
-10.47678
 20
-14.50587
 30
0.0
 10
-10.47678
 20
-14.50587
 30
0.0
 10
-10.47972
 20
-14.51626
 30
0.0
 10
-10.4812
 20
-14.52654
 30
0.0
 10
-10.4812
 20
-14.5367
 30
0.0
 10
-10.4812
 20
-14.5367
 30
0.0
 10
-10.4812
 20
-14.54686
 30
0.0
 10
-10.47974
 20
-14.55714
 30
0.0
 10
-10.47683
 20
-14.56758
 30
0.0
 10
-10.47683
 20
-14.56758
 30
0.0
 10
-10.47391
 20
-14.578
 30
0.0
 10
-10.46949
 20
-14.58868
 30
0.0
 10
-10.46356
 20
-14.59961
 30
0.0
  0
SPLINE
  5
81
330
1F
100
AcDbEntity
  8
Layer 1
 62
   250
100
AcDbSpline
210
0.0
220
0.0
230
1.0
 70
    11
 71
     3
 72
    36
 73
    32
 74
     0
 42
0.0000000001
 43
0.0000000001
 40
0.0
 40
0.0
 40
0.0
 40
0.0
 40
0.125
 40
0.125
 40
0.125
 40
0.125
 40
0.25
 40
0.25
 40
0.25
 40
0.25
 40
0.375
 40
0.375
 40
0.375
 40
0.375
 40
0.5
 40
0.5
 40
0.5
 40
0.5
 40
0.625
 40
0.625
 40
0.625
 40
0.625
 40
0.75
 40
0.75
 40
0.75
 40
0.75
 40
0.875
 40
0.875
 40
0.875
 40
0.875
 40
1.0
 40
1.0
 40
1.0
 40
1.0
 10
-10.45159
 20
-14.47814
 30
0.0
 10
-10.45159
 20
-14.47814
 30
0.0
 10
-10.35679
 20
-14.47814
 30
0.0
 10
-10.35679
 20
-14.47814
 30
0.0
 10
-10.35679
 20
-14.47814
 30
0.0
 10
-10.35679
 20
-14.47814
 30
0.0
 10
-10.35679
 20
-14.4982
 30
0.0
 10
-10.35679
 20
-14.4982
 30
0.0
 10
-10.35679
 20
-14.4982
 30
0.0
 10
-10.35679
 20
-14.4982
 30
0.0
 10
-10.39089
 20
-14.4982
 30
0.0
 10
-10.39089
 20
-14.4982
 30
0.0
 10
-10.39089
 20
-14.4982
 30
0.0
 10
-10.39089
 20
-14.4982
 30
0.0
 10
-10.39089
 20
-14.58101
 30
0.0
 10
-10.39089
 20
-14.58101
 30
0.0
 10
-10.39089
 20
-14.58101
 30
0.0
 10
-10.39089
 20
-14.58101
 30
0.0
 10
-10.41742
 20
-14.58101
 30
0.0
 10
-10.41742
 20
-14.58101
 30
0.0
 10
-10.41742
 20
-14.58101
 30
0.0
 10
-10.41742
 20
-14.58101
 30
0.0
 10
-10.41742
 20
-14.4982
 30
0.0
 10
-10.41742
 20
-14.4982
 30
0.0
 10
-10.41742
 20
-14.4982
 30
0.0
 10
-10.41742
 20
-14.4982
 30
0.0
 10
-10.45159
 20
-14.4982
 30
0.0
 10
-10.45159
 20
-14.4982
 30
0.0
 10
-10.45159
 20
-14.4982
 30
0.0
 10
-10.45159
 20
-14.4982
 30
0.0
 10
-10.45159
 20
-14.47814
 30
0.0
 10
-10.45159
 20
-14.47814
 30
0.0
  0
SPLINE
  5
82
330
1F
100
AcDbEntity
  8
Layer 1
 62
   250
100
AcDbSpline
210
0.0
220
0.0
230
1.0
 70
    11
 71
     3
 72
    36
 73
    32
 74
     0
 42
0.0000000001
 43
0.0000000001
 40
0.0
 40
0.0
 40
0.0
 40
0.0
 40
0.125
 40
0.125
 40
0.125
 40
0.125
 40
0.25
 40
0.25
 40
0.25
 40
0.25
 40
0.375
 40
0.375
 40
0.375
 40
0.375
 40
0.5
 40
0.5
 40
0.5
 40
0.5
 40
0.625
 40
0.625
 40
0.625
 40
0.625
 40
0.75
 40
0.75
 40
0.75
 40
0.75
 40
0.875
 40
0.875
 40
0.875
 40
0.875
 40
1.0
 40
1.0
 40
1.0
 40
1.0
 10
-10.29159
 20
-14.56229
 30
0.0
 10
-10.29159
 20
-14.56229
 30
0.0
 10
-10.33308
 20
-14.56229
 30
0.0
 10
-10.33308
 20
-14.56229
 30
0.0
 10
-10.33308
 20
-14.56229
 30
0.0
 10
-10.33308
 20
-14.56229
 30
0.0
 10
-10.33962
 20
-14.58101
 30
0.0
 10
-10.33962
 20
-14.58101
 30
0.0
 10
-10.33962
 20
-14.58101
 30
0.0
 10
-10.33962
 20
-14.58101
 30
0.0
 10
-10.36629
 20
-14.58101
 30
0.0
 10
-10.36629
 20
-14.58101
 30
0.0
 10
-10.36629
 20
-14.58101
 30
0.0
 10
-10.36629
 20
-14.58101
 30
0.0
 10
-10.32819
 20
-14.47814
 30
0.0
 10
-10.32819
 20
-14.47814
 30
0.0
 10
-10.32819
 20
-14.47814
 30
0.0
 10
-10.32819
 20
-14.47814
 30
0.0
 10
-10.29656
 20
-14.47814
 30
0.0
 10
-10.29656
 20
-14.47814
 30
0.0
 10
-10.29656
 20
-14.47814
 30
0.0
 10
-10.29656
 20
-14.47814
 30
0.0
 10
-10.25846
 20
-14.58101
 30
0.0
 10
-10.25846
 20
-14.58101
 30
0.0
 10
-10.25846
 20
-14.58101
 30
0.0
 10
-10.25846
 20
-14.58101
 30
0.0
 10
-10.28513
 20
-14.58101
 30
0.0
 10
-10.28513
 20
-14.58101
 30
0.0
 10
-10.28513
 20
-14.58101
 30
0.0
 10
-10.28513
 20
-14.58101
 30
0.0
 10
-10.29159
 20
-14.56229
 30
0.0
 10
-10.29159
 20
-14.56229
 30
0.0
  0
SPLINE
  5
83
330
1F
100
AcDbEntity
  8
Layer 1
 62
   250
100
AcDbSpline
210
0.0
220
0.0
230
1.0
 70
    11
 71
     3
 72
    16
 73
    12
 74
     0
 42
0.0000000001
 43
0.0000000001
 40
0.0
 40
0.0
 40
0.0
 40
0.0
 40
0.3333333333333333
 40
0.3333333333333333
 40
0.3333333333333333
 40
0.3333333333333333
 40
0.6666666666666666
 40
0.6666666666666666
 40
0.6666666666666666
 40
0.6666666666666666
 40
1.0
 40
1.0
 40
1.0
 40
1.0
 10
-10.32647
 20
-14.54319
 30
0.0
 10
-10.32647
 20
-14.54319
 30
0.0
 10
-10.29827
 20
-14.54319
 30
0.0
 10
-10.29827
 20
-14.54319
 30
0.0
 10
-10.29827
 20
-14.54319
 30
0.0
 10
-10.29827
 20
-14.54319
 30
0.0
 10
-10.31234
 20
-14.50227
 30
0.0
 10
-10.31234
 20
-14.50227
 30
0.0
 10
-10.31234
 20
-14.50227
 30
0.0
 10
-10.31234
 20
-14.50227
 30
0.0
 10
-10.32647
 20
-14.54319
 30
0.0
 10
-10.32647
 20
-14.54319
 30
0.0
  0
SPLINE
  5
84
330
1F
100
AcDbEntity
  8
Layer 1
 62
   250
100
AcDbSpline
210
0.0
220
0.0
230
1.0
 70
    11
 71
     3
 72
    44
 73
    40
 74
     0
 42
0.0000000001
 43
0.0000000001
 40
0.0
 40
0.0
 40
0.0
 40
0.0
 40
0.1
 40
0.1
 40
0.1
 40
0.1
 40
0.2
 40
0.2
 40
0.2
 40
0.2
 40
0.3
 40
0.3
 40
0.3
 40
0.3
 40
0.4
 40
0.4
 40
0.4
 40
0.4
 40
0.5
 40
0.5
 40
0.5
 40
0.5
 40
0.6
 40
0.6
 40
0.6
 40
0.6
 40
0.7
 40
0.7
 40
0.7
 40
0.7
 40
0.7999999999999999
 40
0.7999999999999999
 40
0.7999999999999999
 40
0.7999999999999999
 40
0.8999999999999999
 40
0.8999999999999999
 40
0.8999999999999999
 40
0.8999999999999999
 40
1.0
 40
1.0
 40
1.0
 40
1.0
 10
-10.24479
 20
-14.47814
 30
0.0
 10
-10.24479
 20
-14.47814
 30
0.0
 10
-10.21516
 20
-14.47814
 30
0.0
 10
-10.21516
 20
-14.47814
 30
0.0
 10
-10.21516
 20
-14.47814
 30
0.0
 10
-10.21516
 20
-14.47814
 30
0.0
 10
-10.17774
 20
-14.5487
 30
0.0
 10
-10.17774
 20
-14.5487
 30
0.0
 10
-10.17774
 20
-14.5487
 30
0.0
 10
-10.17774
 20
-14.5487
 30
0.0
 10
-10.17774
 20
-14.47814
 30
0.0
 10
-10.17774
 20
-14.47814
 30
0.0
 10
-10.17774
 20
-14.47814
 30
0.0
 10
-10.17774
 20
-14.47814
 30
0.0
 10
-10.1526
 20
-14.47814
 30
0.0
 10
-10.1526
 20
-14.47814
 30
0.0
 10
-10.1526
 20
-14.47814
 30
0.0
 10
-10.1526
 20
-14.47814
 30
0.0
 10
-10.1526
 20
-14.58101
 30
0.0
 10
-10.1526
 20
-14.58101
 30
0.0
 10
-10.1526
 20
-14.58101
 30
0.0
 10
-10.1526
 20
-14.58101
 30
0.0
 10
-10.18223
 20
-14.58101
 30
0.0
 10
-10.18223
 20
-14.58101
 30
0.0
 10
-10.18223
 20
-14.58101
 30
0.0
 10
-10.18223
 20
-14.58101
 30
0.0
 10
-10.21965
 20
-14.51045
 30
0.0
 10
-10.21965
 20
-14.51045
 30
0.0
 10
-10.21965
 20
-14.51045
 30
0.0
 10
-10.21965
 20
-14.51045
 30
0.0
 10
-10.21965
 20
-14.58101
 30
0.0
 10
-10.21965
 20
-14.58101
 30
0.0
 10
-10.21965
 20
-14.58101
 30
0.0
 10
-10.21965
 20
-14.58101
 30
0.0
 10
-10.24479
 20
-14.58101
 30
0.0
 10
-10.24479
 20
-14.58101
 30
0.0
 10
-10.24479
 20
-14.58101
 30
0.0
 10
-10.24479
 20
-14.58101
 30
0.0
 10
-10.24479
 20
-14.47814
 30
0.0
 10
-10.24479
 20
-14.47814
 30
0.0
  0
SPLINE
  5
85
330
1F
100
AcDbEntity
  8
Layer 1
 62
   250
100
AcDbSpline
210
0.0
220
0.0
230
1.0
 70
    11
 71
     3
 72
    36
 73
    32
 74
     0
 42
0.0000000001
 43
0.0000000001
 40
0.0
 40
0.0
 40
0.0
 40
0.0
 40
0.125
 40
0.125
 40
0.125
 40
0.125
 40
0.25
 40
0.25
 40
0.25
 40
0.25
 40
0.375
 40
0.375
 40
0.375
 40
0.375
 40
0.5
 40
0.5
 40
0.5
 40
0.5
 40
0.625
 40
0.625
 40
0.625
 40
0.625
 40
0.75
 40
0.75
 40
0.75
 40
0.75
 40
0.875
 40
0.875
 40
0.875
 40
0.875
 40
1.0
 40
1.0
 40
1.0
 40
1.0
 10
-10.13898
 20
-14.47814
 30
0.0
 10
-10.13898
 20
-14.47814
 30
0.0
 10
-10.04418
 20
-14.47814
 30
0.0
 10
-10.04418
 20
-14.47814
 30
0.0
 10
-10.04418
 20
-14.47814
 30
0.0
 10
-10.04418
 20
-14.47814
 30
0.0
 10
-10.04418
 20
-14.4982
 30
0.0
 10
-10.04418
 20
-14.4982
 30
0.0
 10
-10.04418
 20
-14.4982
 30
0.0
 10
-10.04418
 20
-14.4982
 30
0.0
 10
-10.07828
 20
-14.4982
 30
0.0
 10
-10.07828
 20
-14.4982
 30
0.0
 10
-10.07828
 20
-14.4982
 30
0.0
 10
-10.07828
 20
-14.4982
 30
0.0
 10
-10.07828
 20
-14.58101
 30
0.0
 10
-10.07828
 20
-14.58101
 30
0.0
 10
-10.07828
 20
-14.58101
 30
0.0
 10
-10.07828
 20
-14.58101
 30
0.0
 10
-10.10481
 20
-14.58101
 30
0.0
 10
-10.10481
 20
-14.58101
 30
0.0
 10
-10.10481
 20
-14.58101
 30
0.0
 10
-10.10481
 20
-14.58101
 30
0.0
 10
-10.10481
 20
-14.4982
 30
0.0
 10
-10.10481
 20
-14.4982
 30
0.0
 10
-10.10481
 20
-14.4982
 30
0.0
 10
-10.10481
 20
-14.4982
 30
0.0
 10
-10.13898
 20
-14.4982
 30
0.0
 10
-10.13898
 20
-14.4982
 30
0.0
 10
-10.13898
 20
-14.4982
 30
0.0
 10
-10.13898
 20
-14.4982
 30
0.0
 10
-10.13898
 20
-14.47814
 30
0.0
 10
-10.13898
 20
-14.47814
 30
0.0
  0
SPLINE
  5
86
330
1F
100
AcDbEntity
  8
Layer 1
 62
   250
100
AcDbSpline
210
0.0
220
0.0
230
1.0
 70
    11
 71
     3
 72
    36
 73
    32
 74
     0
 42
0.0000000001
 43
0.0000000001
 40
0.0
 40
0.0
 40
0.0
 40
0.0
 40
0.125
 40
0.125
 40
0.125
 40
0.125
 40
0.25
 40
0.25
 40
0.25
 40
0.25
 40
0.375
 40
0.375
 40
0.375
 40
0.375
 40
0.5
 40
0.5
 40
0.5
 40
0.5
 40
0.625
 40
0.625
 40
0.625
 40
0.625
 40
0.75
 40
0.75
 40
0.75
 40
0.75
 40
0.875
 40
0.875
 40
0.875
 40
0.875
 40
1.0
 40
1.0
 40
1.0
 40
1.0
 10
-9.97898
 20
-14.56229
 30
0.0
 10
-9.97898
 20
-14.56229
 30
0.0
 10
-10.02047
 20
-14.56229
 30
0.0
 10
-10.02047
 20
-14.56229
 30
0.0
 10
-10.02047
 20
-14.56229
 30
0.0
 10
-10.02047
 20
-14.56229
 30
0.0
 10
-10.02701
 20
-14.58101
 30
0.0
 10
-10.02701
 20
-14.58101
 30
0.0
 10
-10.02701
 20
-14.58101
 30
0.0
 10
-10.02701
 20
-14.58101
 30
0.0
 10
-10.05368
 20
-14.58101
 30
0.0
 10
-10.05368
 20
-14.58101
 30
0.0
 10
-10.05368
 20
-14.58101
 30
0.0
 10
-10.05368
 20
-14.58101
 30
0.0
 10
-10.01558
 20
-14.47814
 30
0.0
 10
-10.01558
 20
-14.47814
 30
0.0
 10
-10.01558
 20
-14.47814
 30
0.0
 10
-10.01558
 20
-14.47814
 30
0.0
 10
-9.98395
 20
-14.47814
 30
0.0
 10
-9.98395
 20
-14.47814
 30
0.0
 10
-9.98395
 20
-14.47814
 30
0.0
 10
-9.98395
 20
-14.47814
 30
0.0
 10
-9.94585
 20
-14.58101
 30
0.0
 10
-9.94585
 20
-14.58101
 30
0.0
 10
-9.94585
 20
-14.58101
 30
0.0
 10
-9.94585
 20
-14.58101
 30
0.0
 10
-9.97252
 20
-14.58101
 30
0.0
 10
-9.97252
 20
-14.58101
 30
0.0
 10
-9.97252
 20
-14.58101
 30
0.0
 10
-9.97252
 20
-14.58101
 30
0.0
 10
-9.97898
 20
-14.56229
 30
0.0
 10
-9.97898
 20
-14.56229
 30
0.0
  0
SPLINE
  5
87
330
1F
100
AcDbEntity
  8
Layer 1
 62
   250
100
AcDbSpline
210
0.0
220
0.0
230
1.0
 70
    11
 71
     3
 72
    16
 73
    12
 74
     0
 42
0.0000000001
 43
0.0000000001
 40
0.0
 40
0.0
 40
0.0
 40
0.0
 40
0.3333333333333333
 40
0.3333333333333333
 40
0.3333333333333333
 40
0.3333333333333333
 40
0.6666666666666666
 40
0.6666666666666666
 40
0.6666666666666666
 40
0.6666666666666666
 40
1.0
 40
1.0
 40
1.0
 40
1.0
 10
-10.01386
 20
-14.54319
 30
0.0
 10
-10.01386
 20
-14.54319
 30
0.0
 10
-9.98566
 20
-14.54319
 30
0.0
 10
-9.98566
 20
-14.54319
 30
0.0
 10
-9.98566
 20
-14.54319
 30
0.0
 10
-9.98566
 20
-14.54319
 30
0.0
 10
-9.99973
 20
-14.50227
 30
0.0
 10
-9.99973
 20
-14.50227
 30
0.0
 10
-9.99973
 20
-14.50227
 30
0.0
 10
-9.99973
 20
-14.50227
 30
0.0
 10
-10.01386
 20
-14.54319
 30
0.0
 10
-10.01386
 20
-14.54319
 30
0.0
  0
SPLINE
  5
88
330
1F
100
AcDbEntity
  8
Layer 1
 62
   250
100
AcDbSpline
210
0.0
220
0.0
230
1.0
 70
    11
 71
     3
 72
    28
 73
    24
 74
     0
 42
0.0000000001
 43
0.0000000001
 40
0.0
 40
0.0
 40
0.0
 40
0.0
 40
0.1666666666666667
 40
0.1666666666666667
 40
0.1666666666666667
 40
0.1666666666666667
 40
0.3333333333333333
 40
0.3333333333333333
 40
0.3333333333333333
 40
0.3333333333333333
 40
0.5
 40
0.5
 40
0.5
 40
0.5
 40
0.6666666666666666
 40
0.6666666666666666
 40
0.6666666666666666
 40
0.6666666666666666
 40
0.8333333333333333
 40
0.8333333333333333
 40
0.8333333333333333
 40
0.8333333333333333
 40
1.0
 40
1.0
 40
1.0
 40
1.0
 10
-9.93218
 20
-14.47814
 30
0.0
 10
-9.93218
 20
-14.47814
 30
0.0
 10
-9.90565
 20
-14.47814
 30
0.0
 10
-9.90565
 20
-14.47814
 30
0.0
 10
-9.90565
 20
-14.47814
 30
0.0
 10
-9.90565
 20
-14.47814
 30
0.0
 10
-9.90565
 20
-14.56095
 30
0.0
 10
-9.90565
 20
-14.56095
 30
0.0
 10
-9.90565
 20
-14.56095
 30
0.0
 10
-9.90565
 20
-14.56095
 30
0.0
 10
-9.85909
 20
-14.56095
 30
0.0
 10
-9.85909
 20
-14.56095
 30
0.0
 10
-9.85909
 20
-14.56095
 30
0.0
 10
-9.85909
 20
-14.56095
 30
0.0
 10
-9.85909
 20
-14.58101
 30
0.0
 10
-9.85909
 20
-14.58101
 30
0.0
 10
-9.85909
 20
-14.58101
 30
0.0
 10
-9.85909
 20
-14.58101
 30
0.0
 10
-9.93218
 20
-14.58101
 30
0.0
 10
-9.93218
 20
-14.58101
 30
0.0
 10
-9.93218
 20
-14.58101
 30
0.0
 10
-9.93218
 20
-14.58101
 30
0.0
 10
-9.93218
 20
-14.47814
 30
0.0
 10
-9.93218
 20
-14.47814
 30
0.0
  0
SPLINE
  5
89
330
1F
100
AcDbEntity
  8
Layer 1
 62
   250
100
AcDbSpline
210
0.0
220
0.0
230
1.0
 70
    11
 71
     3
 72
    60
 73
    56
 74
     0
 42
0.0000000001
 43
0.0000000001
 40
0.0
 40
0.0
 40
0.0
 40
0.0
 40
0.0714285714285714
 40
0.0714285714285714
 40
0.0714285714285714
 40
0.0714285714285714
 40
0.1428571428571428
 40
0.1428571428571428
 40
0.1428571428571428
 40
0.1428571428571428
 40
0.2142857142857143
 40
0.2142857142857143
 40
0.2142857142857143
 40
0.2142857142857143
 40
0.2857142857142857
 40
0.2857142857142857
 40
0.2857142857142857
 40
0.2857142857142857
 40
0.3571428571428571
 40
0.3571428571428571
 40
0.3571428571428571
 40
0.3571428571428571
 40
0.4285714285714285
 40
0.4285714285714285
 40
0.4285714285714285
 40
0.4285714285714285
 40
0.4999999999999999
 40
0.4999999999999999
 40
0.4999999999999999
 40
0.4999999999999999
 40
0.5714285714285713
 40
0.5714285714285713
 40
0.5714285714285713
 40
0.5714285714285713
 40
0.6428571428571427
 40
0.6428571428571427
 40
0.6428571428571427
 40
0.6428571428571427
 40
0.7142857142857141
 40
0.7142857142857141
 40
0.7142857142857141
 40
0.7142857142857141
 40
0.7857142857142855
 40
0.7857142857142855
 40
0.7857142857142855
 40
0.7857142857142855
 40
0.8571428571428569
 40
0.8571428571428569
 40
0.8571428571428569
 40
0.8571428571428569
 40
0.9285714285714283
 40
0.9285714285714283
 40
0.9285714285714283
 40
0.9285714285714283
 40
1.0
 40
1.0
 40
1.0
 40
1.0
 10
-9.8473
 20
-14.47814
 30
0.0
 10
-9.8473
 20
-14.47814
 30
0.0
 10
-9.82077
 20
-14.47814
 30
0.0
 10
-9.82077
 20
-14.47814
 30
0.0
 10
-9.82077
 20
-14.47814
 30
0.0
 10
-9.82077
 20
-14.47814
 30
0.0
 10
-9.82077
 20
-14.53981
 30
0.0
 10
-9.82077
 20
-14.53981
 30
0.0
 10
-9.82077
 20
-14.53981
 30
0.0
 10
-9.82077
 20
-14.5483
 30
0.0
 10
-9.81939
 20
-14.55439
 30
0.0
 10
-9.81661
 20
-14.55803
 30
0.0
 10
-9.81661
 20
-14.55803
 30
0.0
 10
-9.81383
 20
-14.56168
 30
0.0
 10
-9.8093
 20
-14.56351
 30
0.0
 10
-9.80299
 20
-14.56351
 30
0.0
 10
-9.80299
 20
-14.56351
 30
0.0
 10
-9.79664
 20
-14.56351
 30
0.0
 10
-9.79208
 20
-14.56168
 30
0.0
 10
-9.78931
 20
-14.55803
 30
0.0
 10
-9.78931
 20
-14.55803
 30
0.0
 10
-9.78653
 20
-14.55439
 30
0.0
 10
-9.78514
 20
-14.5483
 30
0.0
 10
-9.78514
 20
-14.53981
 30
0.0
 10
-9.78514
 20
-14.53981
 30
0.0
 10
-9.78514
 20
-14.53981
 30
0.0
 10
-9.78514
 20
-14.47814
 30
0.0
 10
-9.78514
 20
-14.47814
 30
0.0
 10
-9.78514
 20
-14.47814
 30
0.0
 10
-9.78514
 20
-14.47814
 30
0.0
 10
-9.75861
 20
-14.47814
 30
0.0
 10
-9.75861
 20
-14.47814
 30
0.0
 10
-9.75861
 20
-14.47814
 30
0.0
 10
-9.75861
 20
-14.47814
 30
0.0
 10
-9.75861
 20
-14.53981
 30
0.0
 10
-9.75861
 20
-14.53981
 30
0.0
 10
-9.75861
 20
-14.53981
 30
0.0
 10
-9.75861
 20
-14.55436
 30
0.0
 10
-9.76226
 20
-14.56521
 30
0.0
 10
-9.76957
 20
-14.57233
 30
0.0
 10
-9.76957
 20
-14.57233
 30
0.0
 10
-9.77686
 20
-14.57946
 30
0.0
 10
-9.78801
 20
-14.58301
 30
0.0
 10
-9.80299
 20
-14.58301
 30
0.0
 10
-9.80299
 20
-14.58301
 30
0.0
 10
-9.81793
 20
-14.58301
 30
0.0
 10
-9.82905
 20
-14.57946
 30
0.0
 10
-9.83634
 20
-14.57233
 30
0.0
 10
-9.83634
 20
-14.57233
 30
0.0
 10
-9.84366
 20
-14.56521
 30
0.0
 10
-9.8473
 20
-14.55436
 30
0.0
 10
-9.8473
 20
-14.53981
 30
0.0
 10
-9.8473
 20
-14.53981
 30
0.0
 10
-9.8473
 20
-14.53981
 30
0.0
 10
-9.8473
 20
-14.47814
 30
0.0
 10
-9.8473
 20
-14.47814
 30
0.0
  0
SPLINE
  5
8A
330
1F
100
AcDbEntity
  8
Layer 1
 62
   250
100
AcDbSpline
210
0.0
220
0.0
230
1.0
 70
    11
 71
     3
 72
    56
 73
    52
 74
     0
 42
0.0000000001
 43
0.0000000001
 40
0.0
 40
0.0
 40
0.0
 40
0.0
 40
0.0769230769230769
 40
0.0769230769230769
 40
0.0769230769230769
 40
0.0769230769230769
 40
0.1538461538461539
 40
0.1538461538461539
 40
0.1538461538461539
 40
0.1538461538461539
 40
0.2307692307692308
 40
0.2307692307692308
 40
0.2307692307692308
 40
0.2307692307692308
 40
0.3076923076923077
 40
0.3076923076923077
 40
0.3076923076923077
 40
0.3076923076923077
 40
0.3846153846153846
 40
0.3846153846153846
 40
0.3846153846153846
 40
0.3846153846153846
 40
0.4615384615384616
 40
0.4615384615384616
 40
0.4615384615384616
 40
0.4615384615384616
 40
0.5384615384615385
 40
0.5384615384615385
 40
0.5384615384615385
 40
0.5384615384615385
 40
0.6153846153846154
 40
0.6153846153846154
 40
0.6153846153846154
 40
0.6153846153846154
 40
0.6923076923076923
 40
0.6923076923076923
 40
0.6923076923076923
 40
0.6923076923076923
 40
0.7692307692307692
 40
0.7692307692307692
 40
0.7692307692307692
 40
0.7692307692307692
 40
0.846153846153846
 40
0.846153846153846
 40
0.846153846153846
 40
0.846153846153846
 40
0.9230769230769229
 40
0.9230769230769229
 40
0.9230769230769229
 40
0.9230769230769229
 40
1.0
 40
1.0
 40
1.0
 40
1.0
 10
-9.73272
 20
-14.47814
 30
0.0
 10
-9.73272
 20
-14.47814
 30
0.0
 10
-9.69897
 20
-14.47814
 30
0.0
 10
-9.69897
 20
-14.47814
 30
0.0
 10
-9.69897
 20
-14.47814
 30
0.0
 10
-9.69897
 20
-14.47814
 30
0.0
 10
-9.67552
 20
-14.5332
 30
0.0
 10
-9.67552
 20
-14.5332
 30
0.0
 10
-9.67552
 20
-14.5332
 30
0.0
 10
-9.67552
 20
-14.5332
 30
0.0
 10
-9.65196
 20
-14.47814
 30
0.0
 10
-9.65196
 20
-14.47814
 30
0.0
 10
-9.65196
 20
-14.47814
 30
0.0
 10
-9.65196
 20
-14.47814
 30
0.0
 10
-9.61828
 20
-14.47814
 30
0.0
 10
-9.61828
 20
-14.47814
 30
0.0
 10
-9.61828
 20
-14.47814
 30
0.0
 10
-9.61828
 20
-14.47814
 30
0.0
 10
-9.61828
 20
-14.58101
 30
0.0
 10
-9.61828
 20
-14.58101
 30
0.0
 10
-9.61828
 20
-14.58101
 30
0.0
 10
-9.61828
 20
-14.58101
 30
0.0
 10
-9.64335
 20
-14.58101
 30
0.0
 10
-9.64335
 20
-14.58101
 30
0.0
 10
-9.64335
 20
-14.58101
 30
0.0
 10
-9.64335
 20
-14.58101
 30
0.0
 10
-9.64335
 20
-14.50577
 30
0.0
 10
-9.64335
 20
-14.50577
 30
0.0
 10
-9.64335
 20
-14.50577
 30
0.0
 10
-9.64335
 20
-14.50577
 30
0.0
 10
-9.66706
 20
-14.56123
 30
0.0
 10
-9.66706
 20
-14.56123
 30
0.0
 10
-9.66706
 20
-14.56123
 30
0.0
 10
-9.66706
 20
-14.56123
 30
0.0
 10
-9.68387
 20
-14.56123
 30
0.0
 10
-9.68387
 20
-14.56123
 30
0.0
 10
-9.68387
 20
-14.56123
 30
0.0
 10
-9.68387
 20
-14.56123
 30
0.0
 10
-9.70758
 20
-14.50577
 30
0.0
 10
-9.70758
 20
-14.50577
 30
0.0
 10
-9.70758
 20
-14.50577
 30
0.0
 10
-9.70758
 20
-14.50577
 30
0.0
 10
-9.70758
 20
-14.58101
 30
0.0
 10
-9.70758
 20
-14.58101
 30
0.0
 10
-9.70758
 20
-14.58101
 30
0.0
 10
-9.70758
 20
-14.58101
 30
0.0
 10
-9.73272
 20
-14.58101
 30
0.0
 10
-9.73272
 20
-14.58101
 30
0.0
 10
-9.73272
 20
-14.58101
 30
0.0
 10
-9.73272
 20
-14.58101
 30
0.0
 10
-9.73272
 20
-14.47814
 30
0.0
 10
-9.73272
 20
-14.47814
 30
0.0
  0
SPLINE
  5
8B
330
1F
100
AcDbEntity
  8
Layer 1
 62
   250
100
AcDbSpline
210
0.0
220
0.0
230
1.0
 70
    11
 71
     3
 72
    44
 73
    40
 74
     0
 42
0.0000000001
 43
0.0000000001
 40
0.0
 40
0.0
 40
0.0
 40
0.0
 40
0.1
 40
0.1
 40
0.1
 40
0.1
 40
0.2
 40
0.2
 40
0.2
 40
0.2
 40
0.3
 40
0.3
 40
0.3
 40
0.3
 40
0.4
 40
0.4
 40
0.4
 40
0.4
 40
0.5
 40
0.5
 40
0.5
 40
0.5
 40
0.6
 40
0.6
 40
0.6
 40
0.6
 40
0.7
 40
0.7
 40
0.7
 40
0.7
 40
0.7999999999999999
 40
0.7999999999999999
 40
0.7999999999999999
 40
0.7999999999999999
 40
0.8999999999999999
 40
0.8999999999999999
 40
0.8999999999999999
 40
0.8999999999999999
 40
1.0
 40
1.0
 40
1.0
 40
1.0
 10
-9.59396
 20
-14.59961
 30
0.0
 10
-9.58808
 20
-14.58868
 30
0.0
 10
-9.58366
 20
-14.578
 30
0.0
 10
-9.58072
 20
-14.56758
 30
0.0
 10
-9.58072
 20
-14.56758
 30
0.0
 10
-9.57778
 20
-14.55714
 30
0.0
 10
-9.57632
 20
-14.54686
 30
0.0
 10
-9.57632
 20
-14.5367
 30
0.0
 10
-9.57632
 20
-14.5367
 30
0.0
 10
-9.57632
 20
-14.52654
 30
0.0
 10
-9.57778
 20
-14.51626
 30
0.0
 10
-9.58072
 20
-14.50587
 30
0.0
 10
-9.58072
 20
-14.50587
 30
0.0
 10
-9.58366
 20
-14.49547
 30
0.0
 10
-9.58808
 20
-14.48482
 30
0.0
 10
-9.59396
 20
-14.47393
 30
0.0
 10
-9.59396
 20
-14.47393
 30
0.0
 10
-9.59396
 20
-14.47393
 30
0.0
 10
-9.5735
 20
-14.47393
 30
0.0
 10
-9.5735
 20
-14.47393
 30
0.0
 10
-9.5735
 20
-14.47393
 30
0.0
 10
-9.56652
 20
-14.4852
 30
0.0
 10
-9.56134
 20
-14.49597
 30
0.0
 10
-9.55795
 20
-14.50629
 30
0.0
 10
-9.55795
 20
-14.50629
 30
0.0
 10
-9.55459
 20
-14.51659
 30
0.0
 10
-9.5529
 20
-14.52678
 30
0.0
 10
-9.5529
 20
-14.53684
 30
0.0
 10
-9.5529
 20
-14.53684
 30
0.0
 10
-9.5529
 20
-14.54691
 30
0.0
 10
-9.55457
 20
-14.55704
 30
0.0
 10
-9.55793
 20
-14.56725
 30
0.0
 10
-9.55793
 20
-14.56725
 30
0.0
 10
-9.56127
 20
-14.57748
 30
0.0
 10
-9.56647
 20
-14.58828
 30
0.0
 10
-9.5735
 20
-14.59961
 30
0.0
 10
-9.5735
 20
-14.59961
 30
0.0
 10
-9.5735
 20
-14.59961
 30
0.0
 10
-9.59396
 20
-14.59961
 30
0.0
 10
-9.59396
 20
-14.59961
 30
0.0
  0
SPLINE
  5
8C
330
1F
100
AcDbEntity
  8
Layer 1
 62
   250
100
AcDbSpline
210
0.0
220
0.0
230
1.0
 70
    11
 71
     3
 72
    48
 73
    44
 74
     0
 42
0.0000000001
 43
0.0000000001
 40
0.0
 40
0.0
 40
0.0
 40
0.0
 40
0.0909090909090909
 40
0.0909090909090909
 40
0.0909090909090909
 40
0.0909090909090909
 40
0.1818181818181818
 40
0.1818181818181818
 40
0.1818181818181818
 40
0.1818181818181818
 40
0.2727272727272727
 40
0.2727272727272727
 40
0.2727272727272727
 40
0.2727272727272727
 40
0.3636363636363636
 40
0.3636363636363636
 40
0.3636363636363636
 40
0.3636363636363636
 40
0.4545454545454546
 40
0.4545454545454546
 40
0.4545454545454546
 40
0.4545454545454546
 40
0.5454545454545455
 40
0.5454545454545455
 40
0.5454545454545455
 40
0.5454545454545455
 40
0.6363636363636365
 40
0.6363636363636365
 40
0.6363636363636365
 40
0.6363636363636365
 40
0.7272727272727274
 40
0.7272727272727274
 40
0.7272727272727274
 40
0.7272727272727274
 40
0.8181818181818183
 40
0.8181818181818183
 40
0.8181818181818183
 40
0.8181818181818183
 40
0.9090909090909093
 40
0.9090909090909093
 40
0.9090909090909093
 40
0.9090909090909093
 40
1.0
 40
1.0
 40
1.0
 40
1.0
 10
-10.63627
 20
-14.72694
 30
0.0
 10
-10.63627
 20
-14.72694
 30
0.0
 10
-10.61284
 20
-14.72694
 30
0.0
 10
-10.61284
 20
-14.72694
 30
0.0
 10
-10.61284
 20
-14.72694
 30
0.0
 10
-10.61284
 20
-14.72694
 30
0.0
 10
-10.61284
 20
-14.66045
 30
0.0
 10
-10.61284
 20
-14.66045
 30
0.0
 10
-10.61284
 20
-14.66045
 30
0.0
 10
-10.61284
 20
-14.66045
 30
0.0
 10
-10.63688
 20
-14.66542
 30
0.0
 10
-10.63688
 20
-14.66542
 30
0.0
 10
-10.63688
 20
-14.66542
 30
0.0
 10
-10.63688
 20
-14.66542
 30
0.0
 10
-10.63688
 20
-14.64735
 30
0.0
 10
-10.63688
 20
-14.64735
 30
0.0
 10
-10.63688
 20
-14.64735
 30
0.0
 10
-10.63688
 20
-14.64735
 30
0.0
 10
-10.61298
 20
-14.64239
 30
0.0
 10
-10.61298
 20
-14.64239
 30
0.0
 10
-10.61298
 20
-14.64239
 30
0.0
 10
-10.61298
 20
-14.64239
 30
0.0
 10
-10.58777
 20
-14.64239
 30
0.0
 10
-10.58777
 20
-14.64239
 30
0.0
 10
-10.58777
 20
-14.64239
 30
0.0
 10
-10.58777
 20
-14.64239
 30
0.0
 10
-10.58777
 20
-14.72694
 30
0.0
 10
-10.58777
 20
-14.72694
 30
0.0
 10
-10.58777
 20
-14.72694
 30
0.0
 10
-10.58777
 20
-14.72694
 30
0.0
 10
-10.56435
 20
-14.72694
 30
0.0
 10
-10.56435
 20
-14.72694
 30
0.0
 10
-10.56435
 20
-14.72694
 30
0.0
 10
-10.56435
 20
-14.72694
 30
0.0
 10
-10.56435
 20
-14.74526
 30
0.0
 10
-10.56435
 20
-14.74526
 30
0.0
 10
-10.56435
 20
-14.74526
 30
0.0
 10
-10.56435
 20
-14.74526
 30
0.0
 10
-10.63627
 20
-14.74526
 30
0.0
 10
-10.63627
 20
-14.74526
 30
0.0
 10
-10.63627
 20
-14.74526
 30
0.0
 10
-10.63627
 20
-14.74526
 30
0.0
 10
-10.63627
 20
-14.72694
 30
0.0
 10
-10.63627
 20
-14.72694
 30
0.0
  0
SPLINE
  5
8D
330
1F
100
AcDbEntity
  8
Layer 1
 62
   250
100
AcDbSpline
210
0.0
220
0.0
230
1.0
 70
    11
 71
     3
 72
    36
 73
    32
 74
     0
 42
0.0000000001
 43
0.0000000001
 40
0.0
 40
0.0
 40
0.0
 40
0.0
 40
0.125
 40
0.125
 40
0.125
 40
0.125
 40
0.25
 40
0.25
 40
0.25
 40
0.25
 40
0.375
 40
0.375
 40
0.375
 40
0.375
 40
0.5
 40
0.5
 40
0.5
 40
0.5
 40
0.625
 40
0.625
 40
0.625
 40
0.625
 40
0.75
 40
0.75
 40
0.75
 40
0.75
 40
0.875
 40
0.875
 40
0.875
 40
0.875
 40
1.0
 40
1.0
 40
1.0
 40
1.0
 10
-10.4897
 20
-14.69373
 30
0.0
 10
-10.4897
 20
-14.68087
 30
0.0
 10
-10.4909
 20
-14.67181
 30
0.0
 10
-10.49332
 20
-14.66654
 30
0.0
 10
-10.49332
 20
-14.66654
 30
0.0
 10
-10.49572
 20
-14.6613
 30
0.0
 10
-10.49979
 20
-14.65867
 30
0.0
 10
-10.50548
 20
-14.65867
 30
0.0
 10
-10.50548
 20
-14.65867
 30
0.0
 10
-10.51117
 20
-14.65867
 30
0.0
 10
-10.51524
 20
-14.6613
 30
0.0
 10
-10.51769
 20
-14.66654
 30
0.0
 10
-10.51769
 20
-14.66654
 30
0.0
 10
-10.52011
 20
-14.67181
 30
0.0
 10
-10.52133
 20
-14.68087
 30
0.0
 10
-10.52133
 20
-14.69373
 30
0.0
 10
-10.52133
 20
-14.69373
 30
0.0
 10
-10.52133
 20
-14.70671
 30
0.0
 10
-10.52011
 20
-14.71589
 30
0.0
 10
-10.51769
 20
-14.7212
 30
0.0
 10
-10.51769
 20
-14.7212
 30
0.0
 10
-10.51524
 20
-14.72654
 30
0.0
 10
-10.51117
 20
-14.7292
 30
0.0
 10
-10.50548
 20
-14.7292
 30
0.0
 10
-10.50548
 20
-14.7292
 30
0.0
 10
-10.49984
 20
-14.7292
 30
0.0
 10
-10.49579
 20
-14.72654
 30
0.0
 10
-10.49334
 20
-14.7212
 30
0.0
 10
-10.49334
 20
-14.7212
 30
0.0
 10
-10.49092
 20
-14.71589
 30
0.0
 10
-10.4897
 20
-14.70671
 30
0.0
 10
-10.4897
 20
-14.69373
 30
0.0
  0
SPLINE
  5
8E
330
1F
100
AcDbEntity
  8
Layer 1
 62
   250
100
AcDbSpline
210
0.0
220
0.0
230
1.0
 70
    11
 71
     3
 72
    36
 73
    32
 74
     0
 42
0.0000000001
 43
0.0000000001
 40
0.0
 40
0.0
 40
0.0
 40
0.0
 40
0.125
 40
0.125
 40
0.125
 40
0.125
 40
0.25
 40
0.25
 40
0.25
 40
0.25
 40
0.375
 40
0.375
 40
0.375
 40
0.375
 40
0.5
 40
0.5
 40
0.5
 40
0.5
 40
0.625
 40
0.625
 40
0.625
 40
0.625
 40
0.75
 40
0.75
 40
0.75
 40
0.75
 40
0.875
 40
0.875
 40
0.875
 40
0.875
 40
1.0
 40
1.0
 40
1.0
 40
1.0
 10
-10.46317
 20
-14.69392
 30
0.0
 10
-10.46317
 20
-14.71097
 30
0.0
 10
-10.46684
 20
-14.72412
 30
0.0
 10
-10.4742
 20
-14.73338
 30
0.0
 10
-10.4742
 20
-14.73338
 30
0.0
 10
-10.48154
 20
-14.74263
 30
0.0
 10
-10.49198
 20
-14.74726
 30
0.0
 10
-10.50548
 20
-14.74726
 30
0.0
 10
-10.50548
 20
-14.74726
 30
0.0
 10
-10.51903
 20
-14.74726
 30
0.0
 10
-10.52949
 20
-14.74263
 30
0.0
 10
-10.53683
 20
-14.73338
 30
0.0
 10
-10.53683
 20
-14.73338
 30
0.0
 10
-10.54419
 20
-14.72412
 30
0.0
 10
-10.54786
 20
-14.71097
 30
0.0
 10
-10.54786
 20
-14.69392
 30
0.0
 10
-10.54786
 20
-14.69392
 30
0.0
 10
-10.54786
 20
-14.67685
 30
0.0
 10
-10.54419
 20
-14.66367
 30
0.0
 10
-10.53683
 20
-14.65441
 30
0.0
 10
-10.53683
 20
-14.65441
 30
0.0
 10
-10.52949
 20
-14.64517
 30
0.0
 10
-10.51903
 20
-14.64053
 30
0.0
 10
-10.50548
 20
-14.64053
 30
0.0
 10
-10.50548
 20
-14.64053
 30
0.0
 10
-10.49198
 20
-14.64053
 30
0.0
 10
-10.48154
 20
-14.64517
 30
0.0
 10
-10.4742
 20
-14.65441
 30
0.0
 10
-10.4742
 20
-14.65441
 30
0.0
 10
-10.46684
 20
-14.66367
 30
0.0
 10
-10.46317
 20
-14.67685
 30
0.0
 10
-10.46317
 20
-14.69392
 30
0.0
  0
SPLINE
  5
8F
330
1F
100
AcDbEntity
  8
Layer 1
 62
   250
100
AcDbSpline
210
0.0
220
0.0
230
1.0
 70
    11
 71
     3
 72
    32
 73
    28
 74
     0
 42
0.0000000001
 43
0.0000000001
 40
0.0
 40
0.0
 40
0.0
 40
0.0
 40
0.1428571428571428
 40
0.1428571428571428
 40
0.1428571428571428
 40
0.1428571428571428
 40
0.2857142857142857
 40
0.2857142857142857
 40
0.2857142857142857
 40
0.2857142857142857
 40
0.4285714285714285
 40
0.4285714285714285
 40
0.4285714285714285
 40
0.4285714285714285
 40
0.5714285714285714
 40
0.5714285714285714
 40
0.5714285714285714
 40
0.5714285714285714
 40
0.7142857142857142
 40
0.7142857142857142
 40
0.7142857142857142
 40
0.7142857142857142
 40
0.857142857142857
 40
0.857142857142857
 40
0.857142857142857
 40
0.857142857142857
 40
1.0
 40
1.0
 40
1.0
 40
1.0
 10
-10.45574
 20
-14.64239
 30
0.0
 10
-10.45574
 20
-14.64239
 30
0.0
 10
-10.42907
 20
-14.64239
 30
0.0
 10
-10.42907
 20
-14.64239
 30
0.0
 10
-10.42907
 20
-14.64239
 30
0.0
 10
-10.42907
 20
-14.64239
 30
0.0
 10
-10.40179
 20
-14.71831
 30
0.0
 10
-10.40179
 20
-14.71831
 30
0.0
 10
-10.40179
 20
-14.71831
 30
0.0
 10
-10.40179
 20
-14.71831
 30
0.0
 10
-10.37458
 20
-14.64239
 30
0.0
 10
-10.37458
 20
-14.64239
 30
0.0
 10
-10.37458
 20
-14.64239
 30
0.0
 10
-10.37458
 20
-14.64239
 30
0.0
 10
-10.34791
 20
-14.64239
 30
0.0
 10
-10.34791
 20
-14.64239
 30
0.0
 10
-10.34791
 20
-14.64239
 30
0.0
 10
-10.34791
 20
-14.64239
 30
0.0
 10
-10.38601
 20
-14.74526
 30
0.0
 10
-10.38601
 20
-14.74526
 30
0.0
 10
-10.38601
 20
-14.74526
 30
0.0
 10
-10.38601
 20
-14.74526
 30
0.0
 10
-10.41764
 20
-14.74526
 30
0.0
 10
-10.41764
 20
-14.74526
 30
0.0
 10
-10.41764
 20
-14.74526
 30
0.0
 10
-10.41764
 20
-14.74526
 30
0.0
 10
-10.45574
 20
-14.64239
 30
0.0
 10
-10.45574
 20
-14.64239
 30
0.0
  0
SPLINE
  5
90
330
1F
100
AcDbEntity
  8
Layer 1
 62
   250
100
AcDbSpline
210
0.0
220
0.0
230
1.0
 70
    11
 71
     3
 72
    36
 73
    32
 74
     0
 42
0.0000000001
 43
0.0000000001
 40
0.0
 40
0.0
 40
0.0
 40
0.0
 40
0.125
 40
0.125
 40
0.125
 40
0.125
 40
0.25
 40
0.25
 40
0.25
 40
0.25
 40
0.375
 40
0.375
 40
0.375
 40
0.375
 40
0.5
 40
0.5
 40
0.5
 40
0.5
 40
0.625
 40
0.625
 40
0.625
 40
0.625
 40
0.75
 40
0.75
 40
0.75
 40
0.75
 40
0.875
 40
0.875
 40
0.875
 40
0.875
 40
1.0
 40
1.0
 40
1.0
 40
1.0
 10
-10.85703
 20
-15.46378
 30
0.0
 10
-10.8616
 20
-15.46378
 30
0.0
 10
-10.86505
 20
-15.46555
 30
0.0
 10
-10.8674
 20
-15.4691
 30
0.0
 10
-10.8674
 20
-15.4691
 30
0.0
 10
-10.86975
 20
-15.47265
 30
0.0
 10
-10.87092
 20
-15.47792
 30
0.0
 10
-10.87092
 20
-15.48487
 30
0.0
 10
-10.87092
 20
-15.48487
 30
0.0
 10
-10.87092
 20
-15.4918
 30
0.0
 10
-10.86975
 20
-15.49705
 30
0.0
 10
-10.8674
 20
-15.50062
 30
0.0
 10
-10.8674
 20
-15.50062
 30
0.0
 10
-10.86505
 20
-15.50419
 30
0.0
 10
-10.8616
 20
-15.50597
 30
0.0
 10
-10.85703
 20
-15.50597
 30
0.0
 10
-10.85703
 20
-15.50597
 30
0.0
 10
-10.85245
 20
-15.50597
 30
0.0
 10
-10.84898
 20
-15.50419
 30
0.0
 10
-10.84663
 20
-15.50062
 30
0.0
 10
-10.84663
 20
-15.50062
 30
0.0
 10
-10.84428
 20
-15.49705
 30
0.0
 10
-10.84312
 20
-15.4918
 30
0.0
 10
-10.84312
 20
-15.48487
 30
0.0
 10
-10.84312
 20
-15.48487
 30
0.0
 10
-10.84312
 20
-15.47792
 30
0.0
 10
-10.84428
 20
-15.47265
 30
0.0
 10
-10.84663
 20
-15.4691
 30
0.0
 10
-10.84663
 20
-15.4691
 30
0.0
 10
-10.84898
 20
-15.46555
 30
0.0
 10
-10.85245
 20
-15.46378
 30
0.0
 10
-10.85703
 20
-15.46378
 30
0.0
  0
SPLINE
  5
91
330
1F
100
AcDbEntity
  8
Layer 1
 62
   250
100
AcDbSpline
210
0.0
220
0.0
230
1.0
 70
    11
 71
     3
 72
    36
 73
    32
 74
     0
 42
0.0000000001
 43
0.0000000001
 40
0.0
 40
0.0
 40
0.0
 40
0.0
 40
0.125
 40
0.125
 40
0.125
 40
0.125
 40
0.25
 40
0.25
 40
0.25
 40
0.25
 40
0.375
 40
0.375
 40
0.375
 40
0.375
 40
0.5
 40
0.5
 40
0.5
 40
0.5
 40
0.625
 40
0.625
 40
0.625
 40
0.625
 40
0.75
 40
0.75
 40
0.75
 40
0.75
 40
0.875
 40
0.875
 40
0.875
 40
0.875
 40
1.0
 40
1.0
 40
1.0
 40
1.0
 10
-10.85703
 20
-15.45616
 30
0.0
 10
-10.84945
 20
-15.45616
 30
0.0
 10
-10.84365
 20
-15.45861
 30
0.0
 10
-10.83963
 20
-15.46353
 30
0.0
 10
-10.83963
 20
-15.46353
 30
0.0
 10
-10.83561
 20
-15.46845
 30
0.0
 10
-10.8336
 20
-15.47557
 30
0.0
 10
-10.8336
 20
-15.48487
 30
0.0
 10
-10.8336
 20
-15.48487
 30
0.0
 10
-10.8336
 20
-15.49422
 30
0.0
 10
-10.8356
 20
-15.50134
 30
0.0
 10
-10.8396
 20
-15.50624
 30
0.0
 10
-10.8396
 20
-15.50624
 30
0.0
 10
-10.84362
 20
-15.51114
 30
0.0
 10
-10.84942
 20
-15.51359
 30
0.0
 10
-10.85703
 20
-15.51359
 30
0.0
 10
-10.85703
 20
-15.51359
 30
0.0
 10
-10.86463
 20
-15.51359
 30
0.0
 10
-10.87042
 20
-15.51114
 30
0.0
 10
-10.87444
 20
-15.50624
 30
0.0
 10
-10.87444
 20
-15.50624
 30
0.0
 10
-10.87844
 20
-15.50134
 30
0.0
 10
-10.88044
 20
-15.49422
 30
0.0
 10
-10.88044
 20
-15.48487
 30
0.0
 10
-10.88044
 20
-15.48487
 30
0.0
 10
-10.88044
 20
-15.47557
 30
0.0
 10
-10.87844
 20
-15.46845
 30
0.0
 10
-10.87444
 20
-15.46353
 30
0.0
 10
-10.87444
 20
-15.46353
 30
0.0
 10
-10.87042
 20
-15.45861
 30
0.0
 10
-10.86463
 20
-15.45616
 30
0.0
 10
-10.85703
 20
-15.45616
 30
0.0
  0
SPLINE
  5
92
330
1F
100
AcDbEntity
  8
Layer 1
 62
   250
100
AcDbSpline
210
0.0
220
0.0
230
1.0
 70
    11
 71
     3
 72
    36
 73
    32
 74
     0
 42
0.0000000001
 43
0.0000000001
 40
0.0
 40
0.0
 40
0.0
 40
0.0
 40
0.125
 40
0.125
 40
0.125
 40
0.125
 40
0.25
 40
0.25
 40
0.25
 40
0.25
 40
0.375
 40
0.375
 40
0.375
 40
0.375
 40
0.5
 40
0.5
 40
0.5
 40
0.5
 40
0.625
 40
0.625
 40
0.625
 40
0.625
 40
0.75
 40
0.75
 40
0.75
 40
0.75
 40
0.875
 40
0.875
 40
0.875
 40
0.875
 40
1.0
 40
1.0
 40
1.0
 40
1.0
 10
-10.79682
 20
-15.46378
 30
0.0
 10
-10.80139
 20
-15.46378
 30
0.0
 10
-10.80484
 20
-15.46555
 30
0.0
 10
-10.80719
 20
-15.4691
 30
0.0
 10
-10.80719
 20
-15.4691
 30
0.0
 10
-10.80954
 20
-15.47265
 30
0.0
 10
-10.81071
 20
-15.47792
 30
0.0
 10
-10.81071
 20
-15.48487
 30
0.0
 10
-10.81071
 20
-15.48487
 30
0.0
 10
-10.81071
 20
-15.4918
 30
0.0
 10
-10.80954
 20
-15.49705
 30
0.0
 10
-10.80719
 20
-15.50062
 30
0.0
 10
-10.80719
 20
-15.50062
 30
0.0
 10
-10.80484
 20
-15.50419
 30
0.0
 10
-10.80139
 20
-15.50597
 30
0.0
 10
-10.79682
 20
-15.50597
 30
0.0
 10
-10.79682
 20
-15.50597
 30
0.0
 10
-10.79224
 20
-15.50597
 30
0.0
 10
-10.78877
 20
-15.50419
 30
0.0
 10
-10.78642
 20
-15.50062
 30
0.0
 10
-10.78642
 20
-15.50062
 30
0.0
 10
-10.78407
 20
-15.49705
 30
0.0
 10
-10.78291
 20
-15.4918
 30
0.0
 10
-10.78291
 20
-15.48487
 30
0.0
 10
-10.78291
 20
-15.48487
 30
0.0
 10
-10.78291
 20
-15.47792
 30
0.0
 10
-10.78407
 20
-15.47265
 30
0.0
 10
-10.78642
 20
-15.4691
 30
0.0
 10
-10.78642
 20
-15.4691
 30
0.0
 10
-10.78877
 20
-15.46555
 30
0.0
 10
-10.79224
 20
-15.46378
 30
0.0
 10
-10.79682
 20
-15.46378
 30
0.0
  0
SPLINE
  5
93
330
1F
100
AcDbEntity
  8
Layer 1
 62
   250
100
AcDbSpline
210
0.0
220
0.0
230
1.0
 70
    11
 71
     3
 72
    36
 73
    32
 74
     0
 42
0.0000000001
 43
0.0000000001
 40
0.0
 40
0.0
 40
0.0
 40
0.0
 40
0.125
 40
0.125
 40
0.125
 40
0.125
 40
0.25
 40
0.25
 40
0.25
 40
0.25
 40
0.375
 40
0.375
 40
0.375
 40
0.375
 40
0.5
 40
0.5
 40
0.5
 40
0.5
 40
0.625
 40
0.625
 40
0.625
 40
0.625
 40
0.75
 40
0.75
 40
0.75
 40
0.75
 40
0.875
 40
0.875
 40
0.875
 40
0.875
 40
1.0
 40
1.0
 40
1.0
 40
1.0
 10
-10.79682
 20
-15.45616
 30
0.0
 10
-10.78924
 20
-15.45616
 30
0.0
 10
-10.78344
 20
-15.45861
 30
0.0
 10
-10.77942
 20
-15.46353
 30
0.0
 10
-10.77942
 20
-15.46353
 30
0.0
 10
-10.7754
 20
-15.46845
 30
0.0
 10
-10.77339
 20
-15.47557
 30
0.0
 10
-10.77339
 20
-15.48487
 30
0.0
 10
-10.77339
 20
-15.48487
 30
0.0
 10
-10.77339
 20
-15.49422
 30
0.0
 10
-10.77539
 20
-15.50134
 30
0.0
 10
-10.77939
 20
-15.50624
 30
0.0
 10
-10.77939
 20
-15.50624
 30
0.0
 10
-10.78341
 20
-15.51114
 30
0.0
 10
-10.78921
 20
-15.51359
 30
0.0
 10
-10.79682
 20
-15.51359
 30
0.0
 10
-10.79682
 20
-15.51359
 30
0.0
 10
-10.80442
 20
-15.51359
 30
0.0
 10
-10.81021
 20
-15.51114
 30
0.0
 10
-10.81423
 20
-15.50624
 30
0.0
 10
-10.81423
 20
-15.50624
 30
0.0
 10
-10.81823
 20
-15.50134
 30
0.0
 10
-10.82023
 20
-15.49422
 30
0.0
 10
-10.82023
 20
-15.48487
 30
0.0
 10
-10.82023
 20
-15.48487
 30
0.0
 10
-10.82023
 20
-15.47557
 30
0.0
 10
-10.81823
 20
-15.46845
 30
0.0
 10
-10.81423
 20
-15.46353
 30
0.0
 10
-10.81423
 20
-15.46353
 30
0.0
 10
-10.81021
 20
-15.45861
 30
0.0
 10
-10.80442
 20
-15.45616
 30
0.0
 10
-10.79682
 20
-15.45616
 30
0.0
  0
SPLINE
  5
94
330
1F
100
AcDbEntity
  8
Layer 1
 62
   250
100
AcDbSpline
210
0.0
220
0.0
230
1.0
 70
    11
 71
     3
 72
   112
 73
   108
 74
     0
 42
0.0000000001
 43
0.0000000001
 40
0.0
 40
0.0
 40
0.0
 40
0.0
 40
0.037037037037037
 40
0.037037037037037
 40
0.037037037037037
 40
0.037037037037037
 40
0.0740740740740741
 40
0.0740740740740741
 40
0.0740740740740741
 40
0.0740740740740741
 40
0.1111111111111111
 40
0.1111111111111111
 40
0.1111111111111111
 40
0.1111111111111111
 40
0.1481481481481481
 40
0.1481481481481481
 40
0.1481481481481481
 40
0.1481481481481481
 40
0.1851851851851852
 40
0.1851851851851852
 40
0.1851851851851852
 40
0.1851851851851852
 40
0.2222222222222222
 40
0.2222222222222222
 40
0.2222222222222222
 40
0.2222222222222222
 40
0.2592592592592592
 40
0.2592592592592592
 40
0.2592592592592592
 40
0.2592592592592592
 40
0.2962962962962963
 40
0.2962962962962963
 40
0.2962962962962963
 40
0.2962962962962963
 40
0.3333333333333333
 40
0.3333333333333333
 40
0.3333333333333333
 40
0.3333333333333333
 40
0.3703703703703703
 40
0.3703703703703703
 40
0.3703703703703703
 40
0.3703703703703703
 40
0.4074074074074074
 40
0.4074074074074074
 40
0.4074074074074074
 40
0.4074074074074074
 40
0.4444444444444444
 40
0.4444444444444444
 40
0.4444444444444444
 40
0.4444444444444444
 40
0.4814814814814815
 40
0.4814814814814815
 40
0.4814814814814815
 40
0.4814814814814815
 40
0.5185185185185185
 40
0.5185185185185185
 40
0.5185185185185185
 40
0.5185185185185185
 40
0.5555555555555556
 40
0.5555555555555556
 40
0.5555555555555556
 40
0.5555555555555556
 40
0.5925925925925926
 40
0.5925925925925926
 40
0.5925925925925926
 40
0.5925925925925926
 40
0.6296296296296295
 40
0.6296296296296295
 40
0.6296296296296295
 40
0.6296296296296295
 40
0.6666666666666665
 40
0.6666666666666665
 40
0.6666666666666665
 40
0.6666666666666665
 40
0.7037037037037035
 40
0.7037037037037035
 40
0.7037037037037035
 40
0.7037037037037035
 40
0.7407407407407405
 40
0.7407407407407405
 40
0.7407407407407405
 40
0.7407407407407405
 40
0.7777777777777775
 40
0.7777777777777775
 40
0.7777777777777775
 40
0.7777777777777775
 40
0.8148148148148144
 40
0.8148148148148144
 40
0.8148148148148144
 40
0.8148148148148144
 40
0.8518518518518514
 40
0.8518518518518514
 40
0.8518518518518514
 40
0.8518518518518514
 40
0.8888888888888884
 40
0.8888888888888884
 40
0.8888888888888884
 40
0.8888888888888884
 40
0.9259259259259254
 40
0.9259259259259254
 40
0.9259259259259254
 40
0.9259259259259254
 40
0.9629629629629624
 40
0.9629629629629624
 40
0.9629629629629624
 40
0.9629629629629624
 40
1.0
 40
1.0
 40
1.0
 40
1.0
 10
-10.7337
 20
-15.46305
 30
0.0
 10
-10.7326
 20
-15.4607
 30
0.0
 10
-10.73118
 20
-15.45896
 30
0.0
 10
-10.72946
 20
-15.45785
 30
0.0
 10
-10.72946
 20
-15.45785
 30
0.0
 10
-10.72776
 20
-15.45673
 30
0.0
 10
-10.7257
 20
-15.45616
 30
0.0
 10
-10.7233
 20
-15.45616
 30
0.0
 10
-10.7233
 20
-15.45616
 30
0.0
 10
-10.7189
 20
-15.45616
 30
0.0
 10
-10.71579
 20
-15.45786
 30
0.0
 10
-10.71399
 20
-15.46126
 30
0.0
 10
-10.71399
 20
-15.46126
 30
0.0
 10
-10.71218
 20
-15.46467
 30
0.0
 10
-10.71128
 20
-15.47107
 30
0.0
 10
-10.71128
 20
-15.48048
 30
0.0
 10
-10.71128
 20
-15.48048
 30
0.0
 10
-10.71128
 20
-15.48048
 30
0.0
 10
-10.71128
 20
-15.51217
 30
0.0
 10
-10.71128
 20
-15.51217
 30
0.0
 10
-10.71128
 20
-15.51217
 30
0.0
 10
-10.71128
 20
-15.51217
 30
0.0
 10
-10.71948
 20
-15.51217
 30
0.0
 10
-10.71948
 20
-15.51217
 30
0.0
 10
-10.71948
 20
-15.51217
 30
0.0
 10
-10.71948
 20
-15.51217
 30
0.0
 10
-10.71948
 20
-15.48087
 30
0.0
 10
-10.71948
 20
-15.48087
 30
0.0
 10
-10.71948
 20
-15.48087
 30
0.0
 10
-10.71948
 20
-15.47315
 30
0.0
 10
-10.71991
 20
-15.46837
 30
0.0
 10
-10.72078
 20
-15.46648
 30
0.0
 10
-10.72078
 20
-15.46648
 30
0.0
 10
-10.72163
 20
-15.46462
 30
0.0
 10
-10.72321
 20
-15.46368
 30
0.0
 10
-10.7255
 20
-15.46368
 30
0.0
 10
-10.7255
 20
-15.46368
 30
0.0
 10
-10.7281
 20
-15.46368
 30
0.0
 10
-10.72988
 20
-15.46468
 30
0.0
 10
-10.73085
 20
-15.46668
 30
0.0
 10
-10.73085
 20
-15.46668
 30
0.0
 10
-10.7318
 20
-15.46868
 30
0.0
 10
-10.73228
 20
-15.47342
 30
0.0
 10
-10.73228
 20
-15.48087
 30
0.0
 10
-10.73228
 20
-15.48087
 30
0.0
 10
-10.73228
 20
-15.48087
 30
0.0
 10
-10.73228
 20
-15.51217
 30
0.0
 10
-10.73228
 20
-15.51217
 30
0.0
 10
-10.73228
 20
-15.51217
 30
0.0
 10
-10.73228
 20
-15.51217
 30
0.0
 10
-10.74048
 20
-15.51217
 30
0.0
 10
-10.74048
 20
-15.51217
 30
0.0
 10
-10.74048
 20
-15.51217
 30
0.0
 10
-10.74048
 20
-15.51217
 30
0.0
 10
-10.74048
 20
-15.48087
 30
0.0
 10
-10.74048
 20
-15.48087
 30
0.0
 10
-10.74048
 20
-15.48087
 30
0.0
 10
-10.74048
 20
-15.47305
 30
0.0
 10
-10.74095
 20
-15.46823
 30
0.0
 10
-10.74188
 20
-15.46642
 30
0.0
 10
-10.74188
 20
-15.46642
 30
0.0
 10
-10.7428
 20
-15.4646
 30
0.0
 10
-10.74446
 20
-15.46368
 30
0.0
 10
-10.74688
 20
-15.46368
 30
0.0
 10
-10.74688
 20
-15.46368
 30
0.0
 10
-10.74926
 20
-15.46368
 30
0.0
 10
-10.75092
 20
-15.46468
 30
0.0
 10
-10.75183
 20
-15.46668
 30
0.0
 10
-10.75183
 20
-15.46668
 30
0.0
 10
-10.75277
 20
-15.46868
 30
0.0
 10
-10.75323
 20
-15.47342
 30
0.0
 10
-10.75323
 20
-15.48087
 30
0.0
 10
-10.75323
 20
-15.48087
 30
0.0
 10
-10.75323
 20
-15.48087
 30
0.0
 10
-10.75323
 20
-15.51217
 30
0.0
 10
-10.75323
 20
-15.51217
 30
0.0
 10
-10.75323
 20
-15.51217
 30
0.0
 10
-10.75323
 20
-15.51217
 30
0.0
 10
-10.76138
 20
-15.51217
 30
0.0
 10
-10.76138
 20
-15.51217
 30
0.0
 10
-10.76138
 20
-15.51217
 30
0.0
 10
-10.76138
 20
-15.51217
 30
0.0
 10
-10.76138
 20
-15.45748
 30
0.0
 10
-10.76138
 20
-15.45748
 30
0.0
 10
-10.76138
 20
-15.45748
 30
0.0
 10
-10.76138
 20
-15.45748
 30
0.0
 10
-10.75323
 20
-15.45748
 30
0.0
 10
-10.75323
 20
-15.45748
 30
0.0
 10
-10.75323
 20
-15.45748
 30
0.0
 10
-10.75323
 20
-15.45748
 30
0.0
 10
-10.75323
 20
-15.46216
 30
0.0
 10
-10.75323
 20
-15.46216
 30
0.0
 10
-10.75323
 20
-15.46216
 30
0.0
 10
-10.75217
 20
-15.46021
 30
0.0
 10
-10.75082
 20
-15.45873
 30
0.0
 10
-10.7492
 20
-15.4577
 30
0.0
 10
-10.7492
 20
-15.4577
 30
0.0
 10
-10.7476
 20
-15.45668
 30
0.0
 10
-10.74576
 20
-15.45616
 30
0.0
 10
-10.74371
 20
-15.45616
 30
0.0
 10
-10.74371
 20
-15.45616
 30
0.0
 10
-10.74123
 20
-15.45616
 30
0.0
 10
-10.73918
 20
-15.45673
 30
0.0
 10
-10.73753
 20
-15.45786
 30
0.0
 10
-10.73753
 20
-15.45786
 30
0.0
 10
-10.73588
 20
-15.45901
 30
0.0
 10
-10.73461
 20
-15.46073
 30
0.0
 10
-10.7337
 20
-15.46305
 30
0.0
  0
SPLINE
  5
95
330
1F
100
AcDbEntity
  8
Layer 1
 62
   250
100
AcDbSpline
210
0.0
220
0.0
230
1.0
 70
    11
 71
     3
 72
    20
 73
    16
 74
     0
 42
0.0000000001
 43
0.0000000001
 40
0.0
 40
0.0
 40
0.0
 40
0.0
 40
0.25
 40
0.25
 40
0.25
 40
0.25
 40
0.5
 40
0.5
 40
0.5
 40
0.5
 40
0.75
 40
0.75
 40
0.75
 40
0.75
 40
1.0
 40
1.0
 40
1.0
 40
1.0
 10
-10.6826
 20
-15.49727
 30
0.0
 10
-10.6826
 20
-15.49727
 30
0.0
 10
-10.6703
 20
-15.49727
 30
0.0
 10
-10.6703
 20
-15.49727
 30
0.0
 10
-10.6703
 20
-15.49727
 30
0.0
 10
-10.6703
 20
-15.49727
 30
0.0
 10
-10.6703
 20
-15.51217
 30
0.0
 10
-10.6703
 20
-15.51217
 30
0.0
 10
-10.6703
 20
-15.51217
 30
0.0
 10
-10.6703
 20
-15.51217
 30
0.0
 10
-10.6826
 20
-15.51217
 30
0.0
 10
-10.6826
 20
-15.51217
 30
0.0
 10
-10.6826
 20
-15.51217
 30
0.0
 10
-10.6826
 20
-15.51217
 30
0.0
 10
-10.6826
 20
-15.49727
 30
0.0
 10
-10.6826
 20
-15.49727
 30
0.0
  0
SPLINE
  5
96
330
1F
100
AcDbEntity
  8
Layer 1
 62
   250
100
AcDbSpline
210
0.0
220
0.0
230
1.0
 70
    11
 71
     3
 72
    52
 73
    48
 74
     0
 42
0.0000000001
 43
0.0000000001
 40
0.0
 40
0.0
 40
0.0
 40
0.0
 40
0.0833333333333333
 40
0.0833333333333333
 40
0.0833333333333333
 40
0.0833333333333333
 40
0.1666666666666667
 40
0.1666666666666667
 40
0.1666666666666667
 40
0.1666666666666667
 40
0.25
 40
0.25
 40
0.25
 40
0.25
 40
0.3333333333333333
 40
0.3333333333333333
 40
0.3333333333333333
 40
0.3333333333333333
 40
0.4166666666666666
 40
0.4166666666666666
 40
0.4166666666666666
 40
0.4166666666666666
 40
0.4999999999999999
 40
0.4999999999999999
 40
0.4999999999999999
 40
0.4999999999999999
 40
0.5833333333333333
 40
0.5833333333333333
 40
0.5833333333333333
 40
0.5833333333333333
 40
0.6666666666666666
 40
0.6666666666666666
 40
0.6666666666666666
 40
0.6666666666666666
 40
0.75
 40
0.75
 40
0.75
 40
0.75
 40
0.8333333333333334
 40
0.8333333333333334
 40
0.8333333333333334
 40
0.8333333333333334
 40
0.9166666666666667
 40
0.9166666666666667
 40
0.9166666666666667
 40
0.9166666666666667
 40
1.0
 40
1.0
 40
1.0
 40
1.0
 10
-10.61508
 20
-15.49235
 30
0.0
 10
-10.61508
 20
-15.49639
 30
0.0
 10
-10.61434
 20
-15.49942
 30
0.0
 10
-10.61286
 20
-15.50147
 30
0.0
 10
-10.61286
 20
-15.50147
 30
0.0
 10
-10.61138
 20
-15.50352
 30
0.0
 10
-10.60919
 20
-15.50455
 30
0.0
 10
-10.60629
 20
-15.50455
 30
0.0
 10
-10.60629
 20
-15.50455
 30
0.0
 10
-10.60629
 20
-15.50455
 30
0.0
 10
-10.59579
 20
-15.50455
 30
0.0
 10
-10.59579
 20
-15.50455
 30
0.0
 10
-10.59579
 20
-15.50455
 30
0.0
 10
-10.59579
 20
-15.50455
 30
0.0
 10
-10.59579
 20
-15.51217
 30
0.0
 10
-10.59579
 20
-15.51217
 30
0.0
 10
-10.59579
 20
-15.51217
 30
0.0
 10
-10.59579
 20
-15.51217
 30
0.0
 10
-10.60716
 20
-15.51217
 30
0.0
 10
-10.60716
 20
-15.51217
 30
0.0
 10
-10.60716
 20
-15.51217
 30
0.0
 10
-10.61254
 20
-15.51217
 30
0.0
 10
-10.61669
 20
-15.51044
 30
0.0
 10
-10.61964
 20
-15.50699
 30
0.0
 10
-10.61964
 20
-15.50699
 30
0.0
 10
-10.62259
 20
-15.50354
 30
0.0
 10
-10.62406
 20
-15.49865
 30
0.0
 10
-10.62406
 20
-15.49235
 30
0.0
 10
-10.62406
 20
-15.49235
 30
0.0
 10
-10.62406
 20
-15.49235
 30
0.0
 10
-10.62406
 20
-15.44268
 30
0.0
 10
-10.62406
 20
-15.44268
 30
0.0
 10
-10.62406
 20
-15.44268
 30
0.0
 10
-10.62406
 20
-15.44268
 30
0.0
 10
-10.63846
 20
-15.44268
 30
0.0
 10
-10.63846
 20
-15.44268
 30
0.0
 10
-10.63846
 20
-15.44268
 30
0.0
 10
-10.63846
 20
-15.44268
 30
0.0
 10
-10.63846
 20
-15.43565
 30
0.0
 10
-10.63846
 20
-15.43565
 30
0.0
 10
-10.63846
 20
-15.43565
 30
0.0
 10
-10.63846
 20
-15.43565
 30
0.0
 10
-10.61508
 20
-15.43565
 30
0.0
 10
-10.61508
 20
-15.43565
 30
0.0
 10
-10.61508
 20
-15.43565
 30
0.0
 10
-10.61508
 20
-15.43565
 30
0.0
 10
-10.61508
 20
-15.49235
 30
0.0
 10
-10.61508
 20
-15.49235
 30
0.0
  0
SPLINE
  5
97
330
1F
100
AcDbEntity
  8
Layer 1
 62
   250
100
AcDbSpline
210
0.0
220
0.0
230
1.0
 70
    11
 71
     3
 72
    76
 73
    72
 74
     0
 42
0.0000000001
 43
0.0000000001
 40
0.0
 40
0.0
 40
0.0
 40
0.0
 40
0.0555555555555556
 40
0.0555555555555556
 40
0.0555555555555556
 40
0.0555555555555556
 40
0.1111111111111111
 40
0.1111111111111111
 40
0.1111111111111111
 40
0.1111111111111111
 40
0.1666666666666667
 40
0.1666666666666667
 40
0.1666666666666667
 40
0.1666666666666667
 40
0.2222222222222222
 40
0.2222222222222222
 40
0.2222222222222222
 40
0.2222222222222222
 40
0.2777777777777778
 40
0.2777777777777778
 40
0.2777777777777778
 40
0.2777777777777778
 40
0.3333333333333334
 40
0.3333333333333334
 40
0.3333333333333334
 40
0.3333333333333334
 40
0.388888888888889
 40
0.388888888888889
 40
0.388888888888889
 40
0.388888888888889
 40
0.4444444444444445
 40
0.4444444444444445
 40
0.4444444444444445
 40
0.4444444444444445
 40
0.5000000000000001
 40
0.5000000000000001
 40
0.5000000000000001
 40
0.5000000000000001
 40
0.5555555555555557
 40
0.5555555555555557
 40
0.5555555555555557
 40
0.5555555555555557
 40
0.6111111111111113
 40
0.6111111111111113
 40
0.6111111111111113
 40
0.6111111111111113
 40
0.6666666666666669
 40
0.6666666666666669
 40
0.6666666666666669
 40
0.6666666666666669
 40
0.7222222222222224
 40
0.7222222222222224
 40
0.7222222222222224
 40
0.7222222222222224
 40
0.777777777777778
 40
0.777777777777778
 40
0.777777777777778
 40
0.777777777777778
 40
0.8333333333333336
 40
0.8333333333333336
 40
0.8333333333333336
 40
0.8333333333333336
 40
0.8888888888888892
 40
0.8888888888888892
 40
0.8888888888888892
 40
0.8888888888888892
 40
0.9444444444444448
 40
0.9444444444444448
 40
0.9444444444444448
 40
0.9444444444444448
 40
1.0
 40
1.0
 40
1.0
 40
1.0
 10
-10.55608
 20
-15.44195
 30
0.0
 10
-10.55608
 20
-15.44195
 30
0.0
 10
-10.55608
 20
-15.45748
 30
0.0
 10
-10.55608
 20
-15.45748
 30
0.0
 10
-10.55608
 20
-15.45748
 30
0.0
 10
-10.55608
 20
-15.45748
 30
0.0
 10
-10.53566
 20
-15.45748
 30
0.0
 10
-10.53566
 20
-15.45748
 30
0.0
 10
-10.53566
 20
-15.45748
 30
0.0
 10
-10.53566
 20
-15.45748
 30
0.0
 10
-10.53566
 20
-15.46447
 30
0.0
 10
-10.53566
 20
-15.46447
 30
0.0
 10
-10.53566
 20
-15.46447
 30
0.0
 10
-10.53566
 20
-15.46447
 30
0.0
 10
-10.55608
 20
-15.46447
 30
0.0
 10
-10.55608
 20
-15.46447
 30
0.0
 10
-10.55608
 20
-15.46447
 30
0.0
 10
-10.55608
 20
-15.46447
 30
0.0
 10
-10.55608
 20
-15.49415
 30
0.0
 10
-10.55608
 20
-15.49415
 30
0.0
 10
-10.55608
 20
-15.49415
 30
0.0
 10
-10.55608
 20
-15.49819
 30
0.0
 10
-10.55532
 20
-15.501
 30
0.0
 10
-10.55378
 20
-15.50259
 30
0.0
 10
-10.55378
 20
-15.50259
 30
0.0
 10
-10.55225
 20
-15.50419
 30
0.0
 10
-10.54958
 20
-15.50499
 30
0.0
 10
-10.54578
 20
-15.50499
 30
0.0
 10
-10.54578
 20
-15.50499
 30
0.0
 10
-10.54578
 20
-15.50499
 30
0.0
 10
-10.53566
 20
-15.50499
 30
0.0
 10
-10.53566
 20
-15.50499
 30
0.0
 10
-10.53566
 20
-15.50499
 30
0.0
 10
-10.53566
 20
-15.50499
 30
0.0
 10
-10.53566
 20
-15.51217
 30
0.0
 10
-10.53566
 20
-15.51217
 30
0.0
 10
-10.53566
 20
-15.51217
 30
0.0
 10
-10.53566
 20
-15.51217
 30
0.0
 10
-10.54665
 20
-15.51217
 30
0.0
 10
-10.54665
 20
-15.51217
 30
0.0
 10
-10.54665
 20
-15.51217
 30
0.0
 10
-10.5534
 20
-15.51217
 30
0.0
 10
-10.55815
 20
-15.51082
 30
0.0
 10
-10.56092
 20
-15.50812
 30
0.0
 10
-10.56092
 20
-15.50812
 30
0.0
 10
-10.56368
 20
-15.50542
 30
0.0
 10
-10.56507
 20
-15.50075
 30
0.0
 10
-10.56507
 20
-15.49415
 30
0.0
 10
-10.56507
 20
-15.49415
 30
0.0
 10
-10.56507
 20
-15.49415
 30
0.0
 10
-10.56507
 20
-15.46447
 30
0.0
 10
-10.56507
 20
-15.46447
 30
0.0
 10
-10.56507
 20
-15.46447
 30
0.0
 10
-10.56507
 20
-15.46447
 30
0.0
 10
-10.57967
 20
-15.46447
 30
0.0
 10
-10.57967
 20
-15.46447
 30
0.0
 10
-10.57967
 20
-15.46447
 30
0.0
 10
-10.57967
 20
-15.46447
 30
0.0
 10
-10.57967
 20
-15.45748
 30
0.0
 10
-10.57967
 20
-15.45748
 30
0.0
 10
-10.57967
 20
-15.45748
 30
0.0
 10
-10.57967
 20
-15.45748
 30
0.0
 10
-10.56507
 20
-15.45748
 30
0.0
 10
-10.56507
 20
-15.45748
 30
0.0
 10
-10.56507
 20
-15.45748
 30
0.0
 10
-10.56507
 20
-15.45748
 30
0.0
 10
-10.56507
 20
-15.44195
 30
0.0
 10
-10.56507
 20
-15.44195
 30
0.0
 10
-10.56507
 20
-15.44195
 30
0.0
 10
-10.56507
 20
-15.44195
 30
0.0
 10
-10.55608
 20
-15.44195
 30
0.0
 10
-10.55608
 20
-15.44195
 30
0.0
  0
SPLINE
  5
98
330
1F
100
AcDbEntity
  8
Layer 1
 62
   250
100
AcDbSpline
210
0.0
220
0.0
230
1.0
 70
    11
 71
     3
 72
    20
 73
    16
 74
     0
 42
0.0000000001
 43
0.0000000001
 40
0.0
 40
0.0
 40
0.0
 40
0.0
 40
0.25
 40
0.25
 40
0.25
 40
0.25
 40
0.5
 40
0.5
 40
0.5
 40
0.5
 40
0.75
 40
0.75
 40
0.75
 40
0.75
 40
1.0
 40
1.0
 40
1.0
 40
1.0
 10
-10.48244
 20
-15.43926
 30
0.0
 10
-10.48244
 20
-15.43926
 30
0.0
 10
-10.47315
 20
-15.43926
 30
0.0
 10
-10.47315
 20
-15.43926
 30
0.0
 10
-10.47315
 20
-15.43926
 30
0.0
 10
-10.47315
 20
-15.43926
 30
0.0
 10
-10.51154
 20
-15.52145
 30
0.0
 10
-10.51154
 20
-15.52145
 30
0.0
 10
-10.51154
 20
-15.52145
 30
0.0
 10
-10.51154
 20
-15.52145
 30
0.0
 10
-10.52088
 20
-15.52145
 30
0.0
 10
-10.52088
 20
-15.52145
 30
0.0
 10
-10.52088
 20
-15.52145
 30
0.0
 10
-10.52088
 20
-15.52145
 30
0.0
 10
-10.48244
 20
-15.43926
 30
0.0
 10
-10.48244
 20
-15.43926
 30
0.0
  0
SPLINE
  5
99
330
1F
100
AcDbEntity
  8
Layer 1
 62
   250
100
AcDbSpline
210
0.0
220
0.0
230
1.0
 70
    11
 71
     3
 72
    76
 73
    72
 74
     0
 42
0.0000000001
 43
0.0000000001
 40
0.0
 40
0.0
 40
0.0
 40
0.0
 40
0.0555555555555556
 40
0.0555555555555556
 40
0.0555555555555556
 40
0.0555555555555556
 40
0.1111111111111111
 40
0.1111111111111111
 40
0.1111111111111111
 40
0.1111111111111111
 40
0.1666666666666667
 40
0.1666666666666667
 40
0.1666666666666667
 40
0.1666666666666667
 40
0.2222222222222222
 40
0.2222222222222222
 40
0.2222222222222222
 40
0.2222222222222222
 40
0.2777777777777778
 40
0.2777777777777778
 40
0.2777777777777778
 40
0.2777777777777778
 40
0.3333333333333334
 40
0.3333333333333334
 40
0.3333333333333334
 40
0.3333333333333334
 40
0.388888888888889
 40
0.388888888888889
 40
0.388888888888889
 40
0.388888888888889
 40
0.4444444444444445
 40
0.4444444444444445
 40
0.4444444444444445
 40
0.4444444444444445
 40
0.5000000000000001
 40
0.5000000000000001
 40
0.5000000000000001
 40
0.5000000000000001
 40
0.5555555555555557
 40
0.5555555555555557
 40
0.5555555555555557
 40
0.5555555555555557
 40
0.6111111111111113
 40
0.6111111111111113
 40
0.6111111111111113
 40
0.6111111111111113
 40
0.6666666666666669
 40
0.6666666666666669
 40
0.6666666666666669
 40
0.6666666666666669
 40
0.7222222222222224
 40
0.7222222222222224
 40
0.7222222222222224
 40
0.7222222222222224
 40
0.777777777777778
 40
0.777777777777778
 40
0.777777777777778
 40
0.777777777777778
 40
0.8333333333333336
 40
0.8333333333333336
 40
0.8333333333333336
 40
0.8333333333333336
 40
0.8888888888888892
 40
0.8888888888888892
 40
0.8888888888888892
 40
0.8888888888888892
 40
0.9444444444444448
 40
0.9444444444444448
 40
0.9444444444444448
 40
0.9444444444444448
 40
1.0
 40
1.0
 40
1.0
 40
1.0
 10
-10.41286
 20
-15.51007
 30
0.0
 10
-10.41514
 20
-15.51124
 30
0.0
 10
-10.41753
 20
-15.51212
 30
0.0
 10
-10.42005
 20
-15.5127
 30
0.0
 10
-10.42005
 20
-15.5127
 30
0.0
 10
-10.42255
 20
-15.51329
 30
0.0
 10
-10.42518
 20
-15.51359
 30
0.0
 10
-10.42795
 20
-15.51359
 30
0.0
 10
-10.42795
 20
-15.51359
 30
0.0
 10
-10.43778
 20
-15.51359
 30
0.0
 10
-10.4453
 20
-15.51035
 30
0.0
 10
-10.45047
 20
-15.50387
 30
0.0
 10
-10.45047
 20
-15.50387
 30
0.0
 10
-10.45565
 20
-15.49739
 30
0.0
 10
-10.45823
 20
-15.48803
 30
0.0
 10
-10.45823
 20
-15.47578
 30
0.0
 10
-10.45823
 20
-15.47578
 30
0.0
 10
-10.45823
 20
-15.46352
 30
0.0
 10
-10.45565
 20
-15.45415
 30
0.0
 10
-10.45047
 20
-15.44766
 30
0.0
 10
-10.45047
 20
-15.44766
 30
0.0
 10
-10.4453
 20
-15.44118
 30
0.0
 10
-10.43778
 20
-15.43795
 30
0.0
 10
-10.42795
 20
-15.43795
 30
0.0
 10
-10.42795
 20
-15.43795
 30
0.0
 10
-10.42518
 20
-15.43795
 30
0.0
 10
-10.42253
 20
-15.43825
 30
0.0
 10
-10.42
 20
-15.43883
 30
0.0
 10
-10.42
 20
-15.43883
 30
0.0
 10
-10.41745
 20
-15.43941
 30
0.0
 10
-10.41508
 20
-15.4403
 30
0.0
 10
-10.41286
 20
-15.44146
 30
0.0
 10
-10.41286
 20
-15.44146
 30
0.0
 10
-10.41286
 20
-15.44146
 30
0.0
 10
-10.41286
 20
-15.45748
 30
0.0
 10
-10.41286
 20
-15.45748
 30
0.0
 10
-10.41286
 20
-15.45748
 30
0.0
 10
-10.41533
 20
-15.4552
 30
0.0
 10
-10.41775
 20
-15.45353
 30
0.0
 10
-10.42006
 20
-15.45246
 30
0.0
 10
-10.42006
 20
-15.45246
 30
0.0
 10
-10.4224
 20
-15.45141
 30
0.0
 10
-10.4248
 20
-15.45088
 30
0.0
 10
-10.42728
 20
-15.45088
 30
0.0
 10
-10.42728
 20
-15.45088
 30
0.0
 10
-10.43255
 20
-15.45088
 30
0.0
 10
-10.43653
 20
-15.45298
 30
0.0
 10
-10.43921
 20
-15.45716
 30
0.0
 10
-10.43921
 20
-15.45716
 30
0.0
 10
-10.4419
 20
-15.46135
 30
0.0
 10
-10.44325
 20
-15.46755
 30
0.0
 10
-10.44325
 20
-15.47578
 30
0.0
 10
-10.44325
 20
-15.47578
 30
0.0
 10
-10.44325
 20
-15.484
 30
0.0
 10
-10.4419
 20
-15.49018
 30
0.0
 10
-10.43921
 20
-15.49437
 30
0.0
 10
-10.43921
 20
-15.49437
 30
0.0
 10
-10.43653
 20
-15.49855
 30
0.0
 10
-10.43255
 20
-15.50065
 30
0.0
 10
-10.42728
 20
-15.50065
 30
0.0
 10
-10.42728
 20
-15.50065
 30
0.0
 10
-10.4248
 20
-15.50065
 30
0.0
 10
-10.4224
 20
-15.50012
 30
0.0
 10
-10.42006
 20
-15.49907
 30
0.0
 10
-10.42006
 20
-15.49907
 30
0.0
 10
-10.41775
 20
-15.498
 30
0.0
 10
-10.41533
 20
-15.49634
 30
0.0
 10
-10.41286
 20
-15.49405
 30
0.0
 10
-10.41286
 20
-15.49405
 30
0.0
 10
-10.41286
 20
-15.49405
 30
0.0
 10
-10.41286
 20
-15.51007
 30
0.0
 10
-10.41286
 20
-15.51007
 30
0.0
  0
SPLINE
  5
9A
330
1F
100
AcDbEntity
  8
Layer 1
 62
   250
100
AcDbSpline
210
0.0
220
0.0
230
1.0
 70
    11
 71
     3
 72
    48
 73
    44
 74
     0
 42
0.0000000001
 43
0.0000000001
 40
0.0
 40
0.0
 40
0.0
 40
0.0
 40
0.0909090909090909
 40
0.0909090909090909
 40
0.0909090909090909
 40
0.0909090909090909
 40
0.1818181818181818
 40
0.1818181818181818
 40
0.1818181818181818
 40
0.1818181818181818
 40
0.2727272727272727
 40
0.2727272727272727
 40
0.2727272727272727
 40
0.2727272727272727
 40
0.3636363636363636
 40
0.3636363636363636
 40
0.3636363636363636
 40
0.3636363636363636
 40
0.4545454545454546
 40
0.4545454545454546
 40
0.4545454545454546
 40
0.4545454545454546
 40
0.5454545454545455
 40
0.5454545454545455
 40
0.5454545454545455
 40
0.5454545454545455
 40
0.6363636363636365
 40
0.6363636363636365
 40
0.6363636363636365
 40
0.6363636363636365
 40
0.7272727272727274
 40
0.7272727272727274
 40
0.7272727272727274
 40
0.7272727272727274
 40
0.8181818181818183
 40
0.8181818181818183
 40
0.8181818181818183
 40
0.8181818181818183
 40
0.9090909090909093
 40
0.9090909090909093
 40
0.9090909090909093
 40
0.9090909090909093
 40
1.0
 40
1.0
 40
1.0
 40
1.0
 10
-10.39626
 20
-15.49947
 30
0.0
 10
-10.39626
 20
-15.49947
 30
0.0
 10
-10.38014
 20
-15.49947
 30
0.0
 10
-10.38014
 20
-15.49947
 30
0.0
 10
-10.38014
 20
-15.49947
 30
0.0
 10
-10.38014
 20
-15.49947
 30
0.0
 10
-10.38014
 20
-15.45215
 30
0.0
 10
-10.38014
 20
-15.45215
 30
0.0
 10
-10.38014
 20
-15.45215
 30
0.0
 10
-10.38014
 20
-15.45215
 30
0.0
 10
-10.39512
 20
-15.45586
 30
0.0
 10
-10.39512
 20
-15.45586
 30
0.0
 10
-10.39512
 20
-15.45586
 30
0.0
 10
-10.39512
 20
-15.45586
 30
0.0
 10
-10.39512
 20
-15.44288
 30
0.0
 10
-10.39512
 20
-15.44288
 30
0.0
 10
-10.39512
 20
-15.44288
 30
0.0
 10
-10.39512
 20
-15.44288
 30
0.0
 10
-10.38004
 20
-15.43926
 30
0.0
 10
-10.38004
 20
-15.43926
 30
0.0
 10
-10.38004
 20
-15.43926
 30
0.0
 10
-10.38004
 20
-15.43926
 30
0.0
 10
-10.36612
 20
-15.43926
 30
0.0
 10
-10.36612
 20
-15.43926
 30
0.0
 10
-10.36612
 20
-15.43926
 30
0.0
 10
-10.36612
 20
-15.43926
 30
0.0
 10
-10.36612
 20
-15.49947
 30
0.0
 10
-10.36612
 20
-15.49947
 30
0.0
 10
-10.36612
 20
-15.49947
 30
0.0
 10
-10.36612
 20
-15.49947
 30
0.0
 10
-10.35
 20
-15.49947
 30
0.0
 10
-10.35
 20
-15.49947
 30
0.0
 10
-10.35
 20
-15.49947
 30
0.0
 10
-10.35
 20
-15.49947
 30
0.0
 10
-10.35
 20
-15.51217
 30
0.0
 10
-10.35
 20
-15.51217
 30
0.0
 10
-10.35
 20
-15.51217
 30
0.0
 10
-10.35
 20
-15.51217
 30
0.0
 10
-10.39626
 20
-15.51217
 30
0.0
 10
-10.39626
 20
-15.51217
 30
0.0
 10
-10.39626
 20
-15.51217
 30
0.0
 10
-10.39626
 20
-15.51217
 30
0.0
 10
-10.39626
 20
-15.49947
 30
0.0
 10
-10.39626
 20
-15.49947
 30
0.0
  0
SPLINE
  5
9B
330
1F
100
AcDbEntity
  8
Layer 1
 62
   250
100
AcDbSpline
210
0.0
220
0.0
230
1.0
 70
    11
 71
     3
 72
    60
 73
    56
 74
     0
 42
0.0000000001
 43
0.0000000001
 40
0.0
 40
0.0
 40
0.0
 40
0.0
 40
0.0714285714285714
 40
0.0714285714285714
 40
0.0714285714285714
 40
0.0714285714285714
 40
0.1428571428571428
 40
0.1428571428571428
 40
0.1428571428571428
 40
0.1428571428571428
 40
0.2142857142857143
 40
0.2142857142857143
 40
0.2142857142857143
 40
0.2142857142857143
 40
0.2857142857142857
 40
0.2857142857142857
 40
0.2857142857142857
 40
0.2857142857142857
 40
0.3571428571428571
 40
0.3571428571428571
 40
0.3571428571428571
 40
0.3571428571428571
 40
0.4285714285714285
 40
0.4285714285714285
 40
0.4285714285714285
 40
0.4285714285714285
 40
0.4999999999999999
 40
0.4999999999999999
 40
0.4999999999999999
 40
0.4999999999999999
 40
0.5714285714285713
 40
0.5714285714285713
 40
0.5714285714285713
 40
0.5714285714285713
 40
0.6428571428571427
 40
0.6428571428571427
 40
0.6428571428571427
 40
0.6428571428571427
 40
0.7142857142857141
 40
0.7142857142857141
 40
0.7142857142857141
 40
0.7142857142857141
 40
0.7857142857142855
 40
0.7857142857142855
 40
0.7857142857142855
 40
0.7857142857142855
 40
0.8571428571428569
 40
0.8571428571428569
 40
0.8571428571428569
 40
0.8571428571428569
 40
0.9285714285714283
 40
0.9285714285714283
 40
0.9285714285714283
 40
0.9285714285714283
 40
1.0
 40
1.0
 40
1.0
 40
1.0
 10
-10.34005
 20
-15.48527
 30
0.0
 10
-10.34005
 20
-15.48527
 30
0.0
 10
-10.34005
 20
-15.43926
 30
0.0
 10
-10.34005
 20
-15.43926
 30
0.0
 10
-10.34005
 20
-15.43926
 30
0.0
 10
-10.34005
 20
-15.43926
 30
0.0
 10
-10.32564
 20
-15.43926
 30
0.0
 10
-10.32564
 20
-15.43926
 30
0.0
 10
-10.32564
 20
-15.43926
 30
0.0
 10
-10.32564
 20
-15.43926
 30
0.0
 10
-10.32564
 20
-15.48888
 30
0.0
 10
-10.32564
 20
-15.48888
 30
0.0
 10
-10.32564
 20
-15.48888
 30
0.0
 10
-10.32564
 20
-15.49253
 30
0.0
 10
-10.32471
 20
-15.49538
 30
0.0
 10
-10.32286
 20
-15.49745
 30
0.0
 10
-10.32286
 20
-15.49745
 30
0.0
 10
-10.32101
 20
-15.49952
 30
0.0
 10
-10.31843
 20
-15.50055
 30
0.0
 10
-10.31514
 20
-15.50055
 30
0.0
 10
-10.31514
 20
-15.50055
 30
0.0
 10
-10.31186
 20
-15.50055
 30
0.0
 10
-10.30928
 20
-15.49952
 30
0.0
 10
-10.30743
 20
-15.49745
 30
0.0
 10
-10.30743
 20
-15.49745
 30
0.0
 10
-10.30558
 20
-15.49538
 30
0.0
 10
-10.30464
 20
-15.49253
 30
0.0
 10
-10.30464
 20
-15.48888
 30
0.0
 10
-10.30464
 20
-15.48888
 30
0.0
 10
-10.30464
 20
-15.48888
 30
0.0
 10
-10.30464
 20
-15.43926
 30
0.0
 10
-10.30464
 20
-15.43926
 30
0.0
 10
-10.30464
 20
-15.43926
 30
0.0
 10
-10.30464
 20
-15.43926
 30
0.0
 10
-10.29024
 20
-15.43926
 30
0.0
 10
-10.29024
 20
-15.43926
 30
0.0
 10
-10.29024
 20
-15.43926
 30
0.0
 10
-10.29024
 20
-15.43926
 30
0.0
 10
-10.29024
 20
-15.48527
 30
0.0
 10
-10.29024
 20
-15.48527
 30
0.0
 10
-10.29024
 20
-15.48527
 30
0.0
 10
-10.29024
 20
-15.49517
 30
0.0
 10
-10.29221
 20
-15.50235
 30
0.0
 10
-10.29614
 20
-15.50685
 30
0.0
 10
-10.29614
 20
-15.50685
 30
0.0
 10
-10.30009
 20
-15.51134
 30
0.0
 10
-10.30643
 20
-15.51359
 30
0.0
 10
-10.31514
 20
-15.51359
 30
0.0
 10
-10.31514
 20
-15.51359
 30
0.0
 10
-10.32383
 20
-15.51359
 30
0.0
 10
-10.33016
 20
-15.51134
 30
0.0
 10
-10.33411
 20
-15.50685
 30
0.0
 10
-10.33411
 20
-15.50685
 30
0.0
 10
-10.33806
 20
-15.50235
 30
0.0
 10
-10.34005
 20
-15.49517
 30
0.0
 10
-10.34005
 20
-15.48527
 30
0.0
  0
SPLINE
  5
9C
330
1F
100
AcDbEntity
  8
Layer 1
 62
   250
100
AcDbSpline
210
0.0
220
0.0
230
1.0
 70
    11
 71
     3
 72
    36
 73
    32
 74
     0
 42
0.0000000001
 43
0.0000000001
 40
0.0
 40
0.0
 40
0.0
 40
0.0
 40
0.125
 40
0.125
 40
0.125
 40
0.125
 40
0.25
 40
0.25
 40
0.25
 40
0.25
 40
0.375
 40
0.375
 40
0.375
 40
0.375
 40
0.5
 40
0.5
 40
0.5
 40
0.5
 40
0.625
 40
0.625
 40
0.625
 40
0.625
 40
0.75
 40
0.75
 40
0.75
 40
0.75
 40
0.875
 40
0.875
 40
0.875
 40
0.875
 40
1.0
 40
1.0
 40
1.0
 40
1.0
 10
-10.261
 20
-15.47578
 30
0.0
 10
-10.261
 20
-15.47407
 30
0.0
 10
-10.26042
 20
-15.47262
 30
0.0
 10
-10.25923
 20
-15.47145
 30
0.0
 10
-10.25923
 20
-15.47145
 30
0.0
 10
-10.25807
 20
-15.47027
 30
0.0
 10
-10.25663
 20
-15.46968
 30
0.0
 10
-10.25493
 20
-15.46968
 30
0.0
 10
-10.25493
 20
-15.46968
 30
0.0
 10
-10.25322
 20
-15.46968
 30
0.0
 10
-10.25177
 20
-15.47027
 30
0.0
 10
-10.2506
 20
-15.47145
 30
0.0
 10
-10.2506
 20
-15.47145
 30
0.0
 10
-10.24942
 20
-15.47262
 30
0.0
 10
-10.24883
 20
-15.47407
 30
0.0
 10
-10.24883
 20
-15.47578
 30
0.0
 10
-10.24883
 20
-15.47578
 30
0.0
 10
-10.24883
 20
-15.47748
 30
0.0
 10
-10.24942
 20
-15.47892
 30
0.0
 10
-10.2506
 20
-15.48008
 30
0.0
 10
-10.2506
 20
-15.48008
 30
0.0
 10
-10.25177
 20
-15.48127
 30
0.0
 10
-10.25322
 20
-15.48185
 30
0.0
 10
-10.25493
 20
-15.48185
 30
0.0
 10
-10.25493
 20
-15.48185
 30
0.0
 10
-10.25663
 20
-15.48185
 30
0.0
 10
-10.25807
 20
-15.48127
 30
0.0
 10
-10.25923
 20
-15.48012
 30
0.0
 10
-10.25923
 20
-15.48012
 30
0.0
 10
-10.26042
 20
-15.47897
 30
0.0
 10
-10.261
 20
-15.47752
 30
0.0
 10
-10.261
 20
-15.47578
 30
0.0
  0
SPLINE
  5
9D
330
1F
100
AcDbEntity
  8
Layer 1
 62
   250
100
AcDbSpline
210
0.0
220
0.0
230
1.0
 70
    11
 71
     3
 72
    36
 73
    32
 74
     0
 42
0.0000000001
 43
0.0000000001
 40
0.0
 40
0.0
 40
0.0
 40
0.0
 40
0.125
 40
0.125
 40
0.125
 40
0.125
 40
0.25
 40
0.25
 40
0.25
 40
0.25
 40
0.375
 40
0.375
 40
0.375
 40
0.375
 40
0.5
 40
0.5
 40
0.5
 40
0.5
 40
0.625
 40
0.625
 40
0.625
 40
0.625
 40
0.75
 40
0.75
 40
0.75
 40
0.75
 40
0.875
 40
0.875
 40
0.875
 40
0.875
 40
1.0
 40
1.0
 40
1.0
 40
1.0
 10
-10.25493
 20
-15.45015
 30
0.0
 10
-10.25827
 20
-15.45015
 30
0.0
 10
-10.26068
 20
-15.45218
 30
0.0
 10
-10.26222
 20
-15.45625
 30
0.0
 10
-10.26222
 20
-15.45625
 30
0.0
 10
-10.26375
 20
-15.46033
 30
0.0
 10
-10.26452
 20
-15.46683
 30
0.0
 10
-10.26452
 20
-15.47578
 30
0.0
 10
-10.26452
 20
-15.47578
 30
0.0
 10
-10.26452
 20
-15.48472
 30
0.0
 10
-10.26375
 20
-15.4912
 30
0.0
 10
-10.26222
 20
-15.49528
 30
0.0
 10
-10.26222
 20
-15.49528
 30
0.0
 10
-10.26068
 20
-15.49935
 30
0.0
 10
-10.25827
 20
-15.50139
 30
0.0
 10
-10.25493
 20
-15.50139
 30
0.0
 10
-10.25493
 20
-15.50139
 30
0.0
 10
-10.25158
 20
-15.50139
 30
0.0
 10
-10.24915
 20
-15.49935
 30
0.0
 10
-10.24762
 20
-15.49528
 30
0.0
 10
-10.24762
 20
-15.49528
 30
0.0
 10
-10.24608
 20
-15.4912
 30
0.0
 10
-10.24532
 20
-15.48472
 30
0.0
 10
-10.24532
 20
-15.47578
 30
0.0
 10
-10.24532
 20
-15.47578
 30
0.0
 10
-10.24532
 20
-15.46683
 30
0.0
 10
-10.24608
 20
-15.46033
 30
0.0
 10
-10.24762
 20
-15.45625
 30
0.0
 10
-10.24762
 20
-15.45625
 30
0.0
 10
-10.24915
 20
-15.45218
 30
0.0
 10
-10.25158
 20
-15.45015
 30
0.0
 10
-10.25493
 20
-15.45015
 30
0.0
  0
SPLINE
  5
9E
330
1F
100
AcDbEntity
  8
Layer 1
 62
   250
100
AcDbSpline
210
0.0
220
0.0
230
1.0
 70
    11
 71
     3
 72
    36
 73
    32
 74
     0
 42
0.0000000001
 43
0.0000000001
 40
0.0
 40
0.0
 40
0.0
 40
0.0
 40
0.125
 40
0.125
 40
0.125
 40
0.125
 40
0.25
 40
0.25
 40
0.25
 40
0.25
 40
0.375
 40
0.375
 40
0.375
 40
0.375
 40
0.5
 40
0.5
 40
0.5
 40
0.5
 40
0.625
 40
0.625
 40
0.625
 40
0.625
 40
0.75
 40
0.75
 40
0.75
 40
0.75
 40
0.875
 40
0.875
 40
0.875
 40
0.875
 40
1.0
 40
1.0
 40
1.0
 40
1.0
 10
-10.27902
 20
-15.47578
 30
0.0
 10
-10.27902
 20
-15.46317
 30
0.0
 10
-10.27702
 20
-15.4537
 30
0.0
 10
-10.27302
 20
-15.4474
 30
0.0
 10
-10.27302
 20
-15.4474
 30
0.0
 10
-10.269
 20
-15.4411
 30
0.0
 10
-10.26298
 20
-15.43795
 30
0.0
 10
-10.25493
 20
-15.43795
 30
0.0
 10
-10.25493
 20
-15.43795
 30
0.0
 10
-10.24687
 20
-15.43795
 30
0.0
 10
-10.24083
 20
-15.44108
 30
0.0
 10
-10.23682
 20
-15.44736
 30
0.0
 10
-10.23682
 20
-15.44736
 30
0.0
 10
-10.23281
 20
-15.45365
 30
0.0
 10
-10.23081
 20
-15.46313
 30
0.0
 10
-10.23081
 20
-15.47578
 30
0.0
 10
-10.23081
 20
-15.47578
 30
0.0
 10
-10.23081
 20
-15.48842
 30
0.0
 10
-10.23281
 20
-15.49789
 30
0.0
 10
-10.23682
 20
-15.50417
 30
0.0
 10
-10.23682
 20
-15.50417
 30
0.0
 10
-10.24083
 20
-15.51045
 30
0.0
 10
-10.24687
 20
-15.51359
 30
0.0
 10
-10.25493
 20
-15.51359
 30
0.0
 10
-10.25493
 20
-15.51359
 30
0.0
 10
-10.26298
 20
-15.51359
 30
0.0
 10
-10.269
 20
-15.51044
 30
0.0
 10
-10.27302
 20
-15.50414
 30
0.0
 10
-10.27302
 20
-15.50414
 30
0.0
 10
-10.27702
 20
-15.49784
 30
0.0
 10
-10.27902
 20
-15.48838
 30
0.0
 10
-10.27902
 20
-15.47578
 30
0.0
  0
SPLINE
  5
9F
330
1F
100
AcDbEntity
  8
Layer 1
 62
   250
100
AcDbSpline
210
0.0
220
0.0
230
1.0
 70
    11
 71
     3
 72
    88
 73
    84
 74
     0
 42
0.0000000001
 43
0.0000000001
 40
0.0
 40
0.0
 40
0.0
 40
0.0
 40
0.0476190476190476
 40
0.0476190476190476
 40
0.0476190476190476
 40
0.0476190476190476
 40
0.0952380952380952
 40
0.0952380952380952
 40
0.0952380952380952
 40
0.0952380952380952
 40
0.1428571428571428
 40
0.1428571428571428
 40
0.1428571428571428
 40
0.1428571428571428
 40
0.1904761904761905
 40
0.1904761904761905
 40
0.1904761904761905
 40
0.1904761904761905
 40
0.2380952380952381
 40
0.2380952380952381
 40
0.2380952380952381
 40
0.2380952380952381
 40
0.2857142857142857
 40
0.2857142857142857
 40
0.2857142857142857
 40
0.2857142857142857
 40
0.3333333333333333
 40
0.3333333333333333
 40
0.3333333333333333
 40
0.3333333333333333
 40
0.3809523809523809
 40
0.3809523809523809
 40
0.3809523809523809
 40
0.3809523809523809
 40
0.4285714285714285
 40
0.4285714285714285
 40
0.4285714285714285
 40
0.4285714285714285
 40
0.4761904761904762
 40
0.4761904761904762
 40
0.4761904761904762
 40
0.4761904761904762
 40
0.5238095238095237
 40
0.5238095238095237
 40
0.5238095238095237
 40
0.5238095238095237
 40
0.5714285714285714
 40
0.5714285714285714
 40
0.5714285714285714
 40
0.5714285714285714
 40
0.6190476190476191
 40
0.6190476190476191
 40
0.6190476190476191
 40
0.6190476190476191
 40
0.6666666666666667
 40
0.6666666666666667
 40
0.6666666666666667
 40
0.6666666666666667
 40
0.7142857142857144
 40
0.7142857142857144
 40
0.7142857142857144
 40
0.7142857142857144
 40
0.7619047619047621
 40
0.7619047619047621
 40
0.7619047619047621
 40
0.7619047619047621
 40
0.8095238095238098
 40
0.8095238095238098
 40
0.8095238095238098
 40
0.8095238095238098
 40
0.8571428571428574
 40
0.8571428571428574
 40
0.8571428571428574
 40
0.8571428571428574
 40
0.9047619047619051
 40
0.9047619047619051
 40
0.9047619047619051
 40
0.9047619047619051
 40
0.9523809523809528
 40
0.9523809523809528
 40
0.9523809523809528
 40
0.9523809523809528
 40
1.0
 40
1.0
 40
1.0
 40
1.0
 10
-10.20362
 20
-15.49947
 30
0.0
 10
-10.20362
 20
-15.49947
 30
0.0
 10
-10.1729
 20
-15.49947
 30
0.0
 10
-10.1729
 20
-15.49947
 30
0.0
 10
-10.1729
 20
-15.49947
 30
0.0
 10
-10.1729
 20
-15.49947
 30
0.0
 10
-10.1729
 20
-15.51217
 30
0.0
 10
-10.1729
 20
-15.51217
 30
0.0
 10
-10.1729
 20
-15.51217
 30
0.0
 10
-10.1729
 20
-15.51217
 30
0.0
 10
-10.21919
 20
-15.51217
 30
0.0
 10
-10.21919
 20
-15.51217
 30
0.0
 10
-10.21919
 20
-15.51217
 30
0.0
 10
-10.21919
 20
-15.51217
 30
0.0
 10
-10.21919
 20
-15.49985
 30
0.0
 10
-10.21919
 20
-15.49985
 30
0.0
 10
-10.21919
 20
-15.49985
 30
0.0
 10
-10.21919
 20
-15.49985
 30
0.0
 10
-10.21138
 20
-15.49157
 30
0.0
 10
-10.21138
 20
-15.49157
 30
0.0
 10
-10.21138
 20
-15.49157
 30
0.0
 10
-10.20211
 20
-15.4817
 30
0.0
 10
-10.19647
 20
-15.47563
 30
0.0
 10
-10.19449
 20
-15.47335
 30
0.0
 10
-10.19449
 20
-15.47335
 30
0.0
 10
-10.19206
 20
-15.47055
 30
0.0
 10
-10.19029
 20
-15.46807
 30
0.0
 10
-10.18922
 20
-15.4659
 30
0.0
 10
-10.18922
 20
-15.4659
 30
0.0
 10
-10.18814
 20
-15.46373
 30
0.0
 10
-10.18761
 20
-15.4616
 30
0.0
 10
-10.18761
 20
-15.45948
 30
0.0
 10
-10.18761
 20
-15.45948
 30
0.0
 10
-10.18761
 20
-15.45623
 30
0.0
 10
-10.18859
 20
-15.45371
 30
0.0
 10
-10.19056
 20
-15.45195
 30
0.0
 10
-10.19056
 20
-15.45195
 30
0.0
 10
-10.19252
 20
-15.45016
 30
0.0
 10
-10.19532
 20
-15.44928
 30
0.0
 10
-10.19892
 20
-15.44928
 30
0.0
 10
-10.19892
 20
-15.44928
 30
0.0
 10
-10.20151
 20
-15.44928
 30
0.0
 10
-10.20439
 20
-15.4498
 30
0.0
 10
-10.20759
 20
-15.45081
 30
0.0
 10
-10.20759
 20
-15.45081
 30
0.0
 10
-10.21081
 20
-15.45185
 30
0.0
 10
-10.21414
 20
-15.45333
 30
0.0
 10
-10.21763
 20
-15.45528
 30
0.0
 10
-10.21763
 20
-15.45528
 30
0.0
 10
-10.21763
 20
-15.45528
 30
0.0
 10
-10.21763
 20
-15.44185
 30
0.0
 10
-10.21763
 20
-15.44185
 30
0.0
 10
-10.21763
 20
-15.44185
 30
0.0
 10
-10.21414
 20
-15.44058
 30
0.0
 10
-10.21074
 20
-15.43961
 30
0.0
 10
-10.20739
 20
-15.43895
 30
0.0
 10
-10.20739
 20
-15.43895
 30
0.0
 10
-10.20406
 20
-15.43828
 30
0.0
 10
-10.20086
 20
-15.43795
 30
0.0
 10
-10.19781
 20
-15.43795
 30
0.0
 10
-10.19781
 20
-15.43795
 30
0.0
 10
-10.19009
 20
-15.43795
 30
0.0
 10
-10.18402
 20
-15.43975
 30
0.0
 10
-10.17962
 20
-15.44335
 30
0.0
 10
-10.17962
 20
-15.44335
 30
0.0
 10
-10.17521
 20
-15.44693
 30
0.0
 10
-10.173
 20
-15.45185
 30
0.0
 10
-10.173
 20
-15.45806
 30
0.0
 10
-10.173
 20
-15.45806
 30
0.0
 10
-10.173
 20
-15.46093
 30
0.0
 10
-10.17349
 20
-15.46362
 30
0.0
 10
-10.17444
 20
-15.46612
 30
0.0
 10
-10.17444
 20
-15.46612
 30
0.0
 10
-10.17541
 20
-15.46863
 30
0.0
 10
-10.17706
 20
-15.47142
 30
0.0
 10
-10.17941
 20
-15.47447
 30
0.0
 10
-10.17941
 20
-15.47447
 30
0.0
 10
-10.18112
 20
-15.47668
 30
0.0
 10
-10.18586
 20
-15.48167
 30
0.0
 10
-10.19361
 20
-15.48942
 30
0.0
 10
-10.19361
 20
-15.48942
 30
0.0
 10
-10.19781
 20
-15.4936
 30
0.0
 10
-10.20114
 20
-15.49697
 30
0.0
 10
-10.20362
 20
-15.49947
 30
0.0
  0
SPLINE
  5
A0
330
1F
100
AcDbEntity
  8
Layer 1
 62
   250
100
AcDbSpline
210
0.0
220
0.0
230
1.0
 70
    11
 71
     3
 72
    88
 73
    84
 74
     0
 42
0.0000000001
 43
0.0000000001
 40
0.0
 40
0.0
 40
0.0
 40
0.0
 40
0.0476190476190476
 40
0.0476190476190476
 40
0.0476190476190476
 40
0.0476190476190476
 40
0.0952380952380952
 40
0.0952380952380952
 40
0.0952380952380952
 40
0.0952380952380952
 40
0.1428571428571428
 40
0.1428571428571428
 40
0.1428571428571428
 40
0.1428571428571428
 40
0.1904761904761905
 40
0.1904761904761905
 40
0.1904761904761905
 40
0.1904761904761905
 40
0.2380952380952381
 40
0.2380952380952381
 40
0.2380952380952381
 40
0.2380952380952381
 40
0.2857142857142857
 40
0.2857142857142857
 40
0.2857142857142857
 40
0.2857142857142857
 40
0.3333333333333333
 40
0.3333333333333333
 40
0.3333333333333333
 40
0.3333333333333333
 40
0.3809523809523809
 40
0.3809523809523809
 40
0.3809523809523809
 40
0.3809523809523809
 40
0.4285714285714285
 40
0.4285714285714285
 40
0.4285714285714285
 40
0.4285714285714285
 40
0.4761904761904762
 40
0.4761904761904762
 40
0.4761904761904762
 40
0.4761904761904762
 40
0.5238095238095237
 40
0.5238095238095237
 40
0.5238095238095237
 40
0.5238095238095237
 40
0.5714285714285714
 40
0.5714285714285714
 40
0.5714285714285714
 40
0.5714285714285714
 40
0.6190476190476191
 40
0.6190476190476191
 40
0.6190476190476191
 40
0.6190476190476191
 40
0.6666666666666667
 40
0.6666666666666667
 40
0.6666666666666667
 40
0.6666666666666667
 40
0.7142857142857144
 40
0.7142857142857144
 40
0.7142857142857144
 40
0.7142857142857144
 40
0.7619047619047621
 40
0.7619047619047621
 40
0.7619047619047621
 40
0.7619047619047621
 40
0.8095238095238098
 40
0.8095238095238098
 40
0.8095238095238098
 40
0.8095238095238098
 40
0.8571428571428574
 40
0.8571428571428574
 40
0.8571428571428574
 40
0.8571428571428574
 40
0.9047619047619051
 40
0.9047619047619051
 40
0.9047619047619051
 40
0.9047619047619051
 40
0.9523809523809528
 40
0.9523809523809528
 40
0.9523809523809528
 40
0.9523809523809528
 40
1.0
 40
1.0
 40
1.0
 40
1.0
 10
-10.14341
 20
-15.49947
 30
0.0
 10
-10.14341
 20
-15.49947
 30
0.0
 10
-10.11269
 20
-15.49947
 30
0.0
 10
-10.11269
 20
-15.49947
 30
0.0
 10
-10.11269
 20
-15.49947
 30
0.0
 10
-10.11269
 20
-15.49947
 30
0.0
 10
-10.11269
 20
-15.51217
 30
0.0
 10
-10.11269
 20
-15.51217
 30
0.0
 10
-10.11269
 20
-15.51217
 30
0.0
 10
-10.11269
 20
-15.51217
 30
0.0
 10
-10.15898
 20
-15.51217
 30
0.0
 10
-10.15898
 20
-15.51217
 30
0.0
 10
-10.15898
 20
-15.51217
 30
0.0
 10
-10.15898
 20
-15.51217
 30
0.0
 10
-10.15898
 20
-15.49985
 30
0.0
 10
-10.15898
 20
-15.49985
 30
0.0
 10
-10.15898
 20
-15.49985
 30
0.0
 10
-10.15898
 20
-15.49985
 30
0.0
 10
-10.15117
 20
-15.49157
 30
0.0
 10
-10.15117
 20
-15.49157
 30
0.0
 10
-10.15117
 20
-15.49157
 30
0.0
 10
-10.1419
 20
-15.4817
 30
0.0
 10
-10.13626
 20
-15.47563
 30
0.0
 10
-10.13428
 20
-15.47335
 30
0.0
 10
-10.13428
 20
-15.47335
 30
0.0
 10
-10.13185
 20
-15.47055
 30
0.0
 10
-10.13008
 20
-15.46807
 30
0.0
 10
-10.12901
 20
-15.4659
 30
0.0
 10
-10.12901
 20
-15.4659
 30
0.0
 10
-10.12793
 20
-15.46373
 30
0.0
 10
-10.1274
 20
-15.4616
 30
0.0
 10
-10.1274
 20
-15.45948
 30
0.0
 10
-10.1274
 20
-15.45948
 30
0.0
 10
-10.1274
 20
-15.45623
 30
0.0
 10
-10.12838
 20
-15.45371
 30
0.0
 10
-10.13035
 20
-15.45195
 30
0.0
 10
-10.13035
 20
-15.45195
 30
0.0
 10
-10.13231
 20
-15.45016
 30
0.0
 10
-10.13511
 20
-15.44928
 30
0.0
 10
-10.13871
 20
-15.44928
 30
0.0
 10
-10.13871
 20
-15.44928
 30
0.0
 10
-10.1413
 20
-15.44928
 30
0.0
 10
-10.14418
 20
-15.4498
 30
0.0
 10
-10.14738
 20
-15.45081
 30
0.0
 10
-10.14738
 20
-15.45081
 30
0.0
 10
-10.1506
 20
-15.45185
 30
0.0
 10
-10.15393
 20
-15.45333
 30
0.0
 10
-10.15742
 20
-15.45528
 30
0.0
 10
-10.15742
 20
-15.45528
 30
0.0
 10
-10.15742
 20
-15.45528
 30
0.0
 10
-10.15742
 20
-15.44185
 30
0.0
 10
-10.15742
 20
-15.44185
 30
0.0
 10
-10.15742
 20
-15.44185
 30
0.0
 10
-10.15393
 20
-15.44058
 30
0.0
 10
-10.15053
 20
-15.43961
 30
0.0
 10
-10.14718
 20
-15.43895
 30
0.0
 10
-10.14718
 20
-15.43895
 30
0.0
 10
-10.14385
 20
-15.43828
 30
0.0
 10
-10.14065
 20
-15.43795
 30
0.0
 10
-10.1376
 20
-15.43795
 30
0.0
 10
-10.1376
 20
-15.43795
 30
0.0
 10
-10.12988
 20
-15.43795
 30
0.0
 10
-10.12381
 20
-15.43975
 30
0.0
 10
-10.11941
 20
-15.44335
 30
0.0
 10
-10.11941
 20
-15.44335
 30
0.0
 10
-10.115
 20
-15.44693
 30
0.0
 10
-10.11279
 20
-15.45185
 30
0.0
 10
-10.11279
 20
-15.45806
 30
0.0
 10
-10.11279
 20
-15.45806
 30
0.0
 10
-10.11279
 20
-15.46093
 30
0.0
 10
-10.11328
 20
-15.46362
 30
0.0
 10
-10.11423
 20
-15.46612
 30
0.0
 10
-10.11423
 20
-15.46612
 30
0.0
 10
-10.1152
 20
-15.46863
 30
0.0
 10
-10.11685
 20
-15.47142
 30
0.0
 10
-10.1192
 20
-15.47447
 30
0.0
 10
-10.1192
 20
-15.47447
 30
0.0
 10
-10.12091
 20
-15.47668
 30
0.0
 10
-10.12565
 20
-15.48167
 30
0.0
 10
-10.1334
 20
-15.48942
 30
0.0
 10
-10.1334
 20
-15.48942
 30
0.0
 10
-10.1376
 20
-15.4936
 30
0.0
 10
-10.14093
 20
-15.49697
 30
0.0
 10
-10.14341
 20
-15.49947
 30
0.0
  0
ENDSEC
  0
SECTION
  2
OBJECTS
  0
DICTIONARY
  5
C
330
0
100
AcDbDictionary
281
     1
  3
ACAD_GROUP
350
D
  3
ACAD_LAYOUT
350
1A
  3
ACAD_MLEADERSTYLE
350
A2
  3
ACAD_MLINESTYLE
350
17
  3
ACAD_PLOTSETTINGS
350
19
  3
ACAD_PLOTSTYLENAME
350
E
  3
ACAD_SCALELIST
350
3B
  3
ACAD_TABLESTYLE
350
A1
  3
ACAD_VISUALSTYLE
350
2A
  0
DICTIONARY
  5
D
102
{ACAD_REACTORS
330
C
102
}
330
C
100
AcDbDictionary
281
     1
  0
DICTIONARY
  5
1A
102
{ACAD_REACTORS
330
C
102
}
330
C
100
AcDbDictionary
281
     1
  3
Layout1
350
1E
  3
Layout2
350
26
  3
Model
350
22
  0
DICTIONARY
  5
A2
102
{ACAD_REACTORS
330
C
102
}
330
C
100
AcDbDictionary
281
     1
  0
DICTIONARY
  5
17
102
{ACAD_REACTORS
330
C
102
}
330
C
100
AcDbDictionary
281
     1
  3
Standard
350
18
  0
DICTIONARY
  5
19
102
{ACAD_REACTORS
330
C
102
}
330
C
100
AcDbDictionary
281
     1
  0
ACDBDICTIONARYWDFLT
  5
E
102
{ACAD_REACTORS
330
C
102
}
330
C
100
AcDbDictionary
281
     1
  3
Normal
350
F
100
AcDbDictionaryWithDefault
340
F
  0
DICTIONARY
  5
3B
102
{ACAD_REACTORS
330
C
102
}
330
C
100
AcDbDictionary
281
     1
  3
A0
350
3C
  3
A1
350
3D
  3
A2
350
3E
  3
A3
350
3F
  3
A4
350
40
  3
A5
350
41
  3
A6
350
42
  3
A7
350
43
  3
A8
350
44
  3
A9
350
45
  3
B0
350
46
  3
B1
350
47
  3
B2
350
48
  3
B3
350
49
  3
B4
350
4A
  3
B5
350
4B
  3
B6
350
4C
  3
B7
350
4D
  3
B8
350
4E
  3
B9
350
4F
  3
C0
350
50
  3
C1
350
51
  3
C2
350
52
  3
C3
350
53
  3
C4
350
54
  3
C5
350
55
  3
C6
350
56
  3
C7
350
57
  3
C8
350
58
  3
C9
350
59
  3
D0
350
5A
  3
D1
350
5B
  3
D2
350
5C
  0
DICTIONARY
  5
A1
102
{ACAD_REACTORS
330
C
102
}
330
C
100
AcDbDictionary
281
     1
  0
DICTIONARY
  5
2A
102
{ACAD_REACTORS
330
C
102
}
330
C
100
AcDbDictionary
281
     1
  3
2dWireframe
350
2F
  3
3D Hidden
350
31
  3
3dWireframe
350
30
  3
Basic
350
32
  3
Brighten
350
36
  3
ColorChange
350
3A
  3
Conceptual
350
34
  3
Dim
350
35
  3
Facepattern
350
39
  3
Flat
350
2B
  3
FlatWithEdges
350
2C
  3
Gouraud
350
2D
  3
GouraudWithEdges
350
2E
  3
Linepattern
350
38
  3
Realistic
350
33
  3
Thicken
350
37
  0
LAYOUT
  5
1E
102
{ACAD_REACTORS
330
1A
102
}
330
1A
100
AcDbPlotSettings
  1

  2
none_device
  4

  6

 40
0.0
 41
0.0
 42
0.0
 43
0.0
 44
0.0
 45
0.0
 46
0.0
 47
0.0
 48
0.0
 49
0.0
140
0.0
141
0.0
142
1.0
143
1.0
 70
   688
 72
     0
 73
     0
 74
     5
  7

 75
    16
 76
     0
 77
     2
 78
   300
147
1.0
148
0.0
149
0.0
100
AcDbLayout
  1
Layout1
 70
     1
 71
     1
 10
0.0
 20
0.0
 11
12.0
 21
9.0
 12
0.0
 22
0.0
 32
0.0
 14
1.000000000000000E+20
 24
1.000000000000000E+20
 34
1.000000000000000E+20
 15
-1.000000000000000E+20
 25
-1.000000000000000E+20
 35
-1.000000000000000E+20
146
0.0
 13
0.0
 23
0.0
 33
0.0
 16
1.0
 26
0.0
 36
0.0
 17
0.0
 27
1.0
 37
0.0
 76
     0
330
1B
  0
LAYOUT
  5
26
102
{ACAD_REACTORS
330
1A
102
}
330
1A
100
AcDbPlotSettings
  1

  2
none_device
  4

  6

 40
0.0
 41
0.0
 42
0.0
 43
0.0
 44
0.0
 45
0.0
 46
0.0
 47
0.0
 48
0.0
 49
0.0
140
0.0
141
0.0
142
1.0
143
1.0
 70
   688
 72
     0
 73
     0
 74
     5
  7

 75
    16
 76
     0
 77
     2
 78
   300
147
1.0
148
0.0
149
0.0
100
AcDbLayout
  1
Layout2
 70
     1
 71
     2
 10
0.0
 20
0.0
 11
0.0
 21
0.0
 12
0.0
 22
0.0
 32
0.0
 14
0.0
 24
0.0
 34
0.0
 15
0.0
 25
0.0
 35
0.0
146
0.0
 13
0.0
 23
0.0
 33
0.0
 16
1.0
 26
0.0
 36
0.0
 17
0.0
 27
1.0
 37
0.0
 76
     0
330
23
  0
LAYOUT
  5
22
102
{ACAD_REACTORS
330
1A
102
}
330
1A
100
AcDbPlotSettings
  1

  2
none_device
  4

  6

 40
0.0
 41
0.0
 42
0.0
 43
0.0
 44
0.0
 45
0.0
 46
0.0
 47
0.0
 48
0.0
 49
0.0
140
0.0
141
0.0
142
1.0
143
1.0
 70
  1712
 72
     0
 73
     0
 74
     0
  7

 75
     0
 76
     0
 77
     2
 78
   300
147
1.0
148
0.0
149
0.0
100
AcDbLayout
  1
Model
 70
     1
 71
     0
 10
0.0
 20
0.0
 11
12.0
 21
9.0
 12
0.0
 22
0.0
 32
0.0
 14
-11.7
 24
-16.05
 34
0.0
 15
-9.3
 25
-13.65
 35
0.0
146
0.0
 13
0.0
 23
0.0
 33
0.0
 16
1.0
 26
0.0
 36
0.0
 17
0.0
 27
1.0
 37
0.0
 76
     0
330
1F
331
29
  0
MLINESTYLE
  5
18
102
{ACAD_REACTORS
330
17
102
}
330
17
100
AcDbMlineStyle
  2
Standard
 70
     0
  3

 62
   256
 51
90.0
 52
90.0
 71
     2
 49
0.5
 62
   256
  6
BYLAYER
 49
-0.5
 62
   256
  6
BYLAYER
  0
ACDBPLACEHOLDER
  5
F
102
{ACAD_REACTORS
330
E
102
}
330
E
  0
SCALE
  5
3C
102
{ACAD_REACTORS
330
3B
102
}
330
3B
100
AcDbScale
 70
     0
300
1:1
140
1.0
141
1.0
290
     1
  0
SCALE
  5
3D
102
{ACAD_REACTORS
330
3B
102
}
330
3B
100
AcDbScale
 70
     0
300
1:2
140
1.0
141
2.0
290
     0
  0
SCALE
  5
3E
102
{ACAD_REACTORS
330
3B
102
}
330
3B
100
AcDbScale
 70
     0
300
1:4
140
1.0
141
4.0
290
     0
  0
SCALE
  5
3F
102
{ACAD_REACTORS
330
3B
102
}
330
3B
100
AcDbScale
 70
     0
300
1:5
140
1.0
141
5.0
290
     0
  0
SCALE
  5
40
102
{ACAD_REACTORS
330
3B
102
}
330
3B
100
AcDbScale
 70
     0
300
1:8
140
1.0
141
8.0
290
     0
  0
SCALE
  5
41
102
{ACAD_REACTORS
330
3B
102
}
330
3B
100
AcDbScale
 70
     0
300
1:10
140
1.0
141
10.0
290
     0
  0
SCALE
  5
42
102
{ACAD_REACTORS
330
3B
102
}
330
3B
100
AcDbScale
 70
     0
300
1:16
140
1.0
141
16.0
290
     0
  0
SCALE
  5
43
102
{ACAD_REACTORS
330
3B
102
}
330
3B
100
AcDbScale
 70
     0
300
1:20
140
1.0
141
20.0
290
     0
  0
SCALE
  5
44
102
{ACAD_REACTORS
330
3B
102
}
330
3B
100
AcDbScale
 70
     0
300
1:30
140
1.0
141
30.0
290
     0
  0
SCALE
  5
45
102
{ACAD_REACTORS
330
3B
102
}
330
3B
100
AcDbScale
 70
     0
300
1:40
140
1.0
141
40.0
290
     0
  0
SCALE
  5
46
102
{ACAD_REACTORS
330
3B
102
}
330
3B
100
AcDbScale
 70
     0
300
1:50
140
1.0
141
50.0
290
     0
  0
SCALE
  5
47
102
{ACAD_REACTORS
330
3B
102
}
330
3B
100
AcDbScale
 70
     0
300
1:100
140
1.0
141
100.0
290
     0
  0
SCALE
  5
48
102
{ACAD_REACTORS
330
3B
102
}
330
3B
100
AcDbScale
 70
     0
300
2:1
140
2.0
141
1.0
290
     0
  0
SCALE
  5
49
102
{ACAD_REACTORS
330
3B
102
}
330
3B
100
AcDbScale
 70
     0
300
4:1
140
4.0
141
1.0
290
     0
  0
SCALE
  5
4A
102
{ACAD_REACTORS
330
3B
102
}
330
3B
100
AcDbScale
 70
     0
300
8:1
140
8.0
141
1.0
290
     0
  0
SCALE
  5
4B
102
{ACAD_REACTORS
330
3B
102
}
330
3B
100
AcDbScale
 70
     0
300
10:1
140
10.0
141
1.0
290
     0
  0
SCALE
  5
4C
102
{ACAD_REACTORS
330
3B
102
}
330
3B
100
AcDbScale
 70
     0
300
100:1
140
100.0
141
1.0
290
     0
  0
SCALE
  5
4D
102
{ACAD_REACTORS
330
3B
102
}
330
3B
100
AcDbScale
 70
     0
300
1/128" = 1'-0"
140
0.0078125
141
12.0
290
     0
  0
SCALE
  5
4E
102
{ACAD_REACTORS
330
3B
102
}
330
3B
100
AcDbScale
 70
     0
300
1/64" = 1'-0"
140
0.015625
141
12.0
290
     0
  0
SCALE
  5
4F
102
{ACAD_REACTORS
330
3B
102
}
330
3B
100
AcDbScale
 70
     0
300
1/32" = 1'-0"
140
0.03125
141
12.0
290
     0
  0
SCALE
  5
50
102
{ACAD_REACTORS
330
3B
102
}
330
3B
100
AcDbScale
 70
     0
300
1/16" = 1'-0"
140
0.0625
141
12.0
290
     0
  0
SCALE
  5
51
102
{ACAD_REACTORS
330
3B
102
}
330
3B
100
AcDbScale
 70
     0
300
3/32" = 1'-0"
140
0.09375
141
12.0
290
     0
  0
SCALE
  5
52
102
{ACAD_REACTORS
330
3B
102
}
330
3B
100
AcDbScale
 70
     0
300
1/8" = 1'-0"
140
0.125
141
12.0
290
     0
  0
SCALE
  5
53
102
{ACAD_REACTORS
330
3B
102
}
330
3B
100
AcDbScale
 70
     0
300
3/16" = 1'-0"
140
0.1875
141
12.0
290
     0
  0
SCALE
  5
54
102
{ACAD_REACTORS
330
3B
102
}
330
3B
100
AcDbScale
 70
     0
300
1/4" = 1'-0"
140
0.25
141
12.0
290
     0
  0
SCALE
  5
55
102
{ACAD_REACTORS
330
3B
102
}
330
3B
100
AcDbScale
 70
     0
300
3/8" = 1'-0"
140
0.375
141
12.0
290
     0
  0
SCALE
  5
56
102
{ACAD_REACTORS
330
3B
102
}
330
3B
100
AcDbScale
 70
     0
300
1/2" = 1'-0"
140
0.5
141
12.0
290
     0
  0
SCALE
  5
57
102
{ACAD_REACTORS
330
3B
102
}
330
3B
100
AcDbScale
 70
     0
300
3/4" = 1'-0"
140
0.75
141
12.0
290
     0
  0
SCALE
  5
58
102
{ACAD_REACTORS
330
3B
102
}
330
3B
100
AcDbScale
 70
     0
300
1" = 1'-0"
140
1.0
141
12.0
290
     0
  0
SCALE
  5
59
102
{ACAD_REACTORS
330
3B
102
}
330
3B
100
AcDbScale
 70
     0
300
1-1/2" = 1'-0"
140
1.5
141
12.0
290
     0
  0
SCALE
  5
5A
102
{ACAD_REACTORS
330
3B
102
}
330
3B
100
AcDbScale
 70
     0
300
3" = 1'-0"
140
3.0
141
12.0
290
     0
  0
SCALE
  5
5B
102
{ACAD_REACTORS
330
3B
102
}
330
3B
100
AcDbScale
 70
     0
300
6" = 1'-0"
140
6.0
141
12.0
290
     0
  0
SCALE
  5
5C
102
{ACAD_REACTORS
330
3B
102
}
330
3B
100
AcDbScale
 70
     0
300
1'-0" = 1'-0"
140
12.0
141
12.0
290
     0
  0
VISUALSTYLE
  5
2F
102
{ACAD_REACTORS
330
2A
102
}
330
2A
100
AcDbVisualStyle
  2
2dWireframe
 70
     4
 71
     0
 72
     2
 73
     0
 90
        0
 40
-0.6
 41
-30.0
 62
     5
 63
     7
421
 16777215
 74
     1
 91
        4
 64
     7
 65
   257
 75
     1
175
     1
 42
1.0
 92
        0
 66
   257
 43
1.0
 76
     1
 77
     6
 78
     2
 67
     7
 79
     5
170
     0
171
     0
290
     0
174
     0
 93
        1
 44
0.0
173
     0
291
     0
 45
0.0
  0
VISUALSTYLE
  5
31
102
{ACAD_REACTORS
330
2A
102
}
330
2A
100
AcDbVisualStyle
  2
3D Hidden
 70
     6
 71
     1
 72
     2
 73
     2
 90
        0
 40
-0.6
 41
-30.0
 62
     5
 63
     7
421
 16777215
 74
     2
 91
        2
 64
     7
 65
   257
 75
     2
175
     1
 42
40.0
 92
        0
 66
   257
 43
1.0
 76
     1
 77
     6
 78
     2
 67
     7
 79
     3
170
     0
171
     0
290
     0
174
     0
 93
        1
 44
0.0
173
     0
291
     0
 45
0.0
  0
VISUALSTYLE
  5
30
102
{ACAD_REACTORS
330
2A
102
}
330
2A
100
AcDbVisualStyle
  2
3dWireframe
 70
     5
 71
     0
 72
     2
 73
     0
 90
        0
 40
-0.6
 41
-30.0
 62
     5
 63
     7
421
 16777215
 74
     1
 91
        4
 64
     7
 65
   257
 75
     1
175
     1
 42
1.0
 92
        0
 66
   257
 43
1.0
 76
     1
 77
     6
 78
     2
 67
     7
 79
     5
170
     0
171
     0
290
     0
174
     0
 93
        1
 44
0.0
173
     0
291
     0
 45
0.0
  0
VISUALSTYLE
  5
32
102
{ACAD_REACTORS
330
2A
102
}
330
2A
100
AcDbVisualStyle
  2
Basic
 70
     7
 71
     1
 72
     0
 73
     1
 90
        0
 40
-0.6
 41
-30.0
 62
     5
 63
     7
421
 16777215
 74
     0
 91
        4
 64
     7
 65
   257
 75
     1
175
     1
 42
1.0
 92
        8
 66
     7
 43
1.0
 76
     1
 77
     6
 78
     2
 67
     7
 79
     5
170
     0
171
     0
290
     0
174
     0
 93
        1
 44
0.0
173
     0
291
     1
 45
0.0
  0
VISUALSTYLE
  5
36
102
{ACAD_REACTORS
330
2A
102
}
330
2A
100
AcDbVisualStyle
  2
Brighten
 70
    12
 71
     2
 72
     2
 73
     0
 90
        0
 40
-0.6
 41
-30.0
 62
     5
 63
     7
421
 16777215
 74
     1
 91
        4
 64
     7
 65
   257
 75
     1
175
     1
 42
1.0
 92
        8
 66
     7
 43
1.0
 76
     1
 77
     6
 78
     2
 67
     7
 79
     5
170
     0
171
     0
290
     0
174
     0
 93
        1
 44
50.0
173
     0
291
     1
 45
0.0
  0
VISUALSTYLE
  5
3A
102
{ACAD_REACTORS
330
2A
102
}
330
2A
100
AcDbVisualStyle
  2
ColorChange
 70
    16
 71
     2
 72
     2
 73
     3
 90
        0
 40
-0.6
 41
-30.0
 62
     5
 63
     8
421
  8421504
 74
     1
 91
        4
 64
     7
 65
   257
 75
     1
175
     1
 42
1.0
 92
        8
 66
     8
424
  8421504
 43
1.0
 76
     1
 77
     6
 78
     2
 67
     7
 79
     5
170
     0
171
     0
290
     0
174
     0
 93
        1
 44
0.0
173
     0
291
     1
 45
0.0
  0
VISUALSTYLE
  5
34
102
{ACAD_REACTORS
330
2A
102
}
330
2A
100
AcDbVisualStyle
  2
Conceptual
 70
     9
 71
     3
 72
     2
 73
     0
 90
        0
 40
-0.6
 41
-30.0
 62
     5
 63
     7
421
 16777215
 74
     2
 91
        2
 64
     7
 65
   257
 75
     1
175
     1
 42
40.0
 92
        8
 66
     7
 43
1.0
 76
     1
 77
     6
 78
     2
 67
     7
 79
     3
170
     0
171
     0
290
     0
174
     0
 93
        1
 44
0.0
173
     0
291
     0
 45
0.0
  0
VISUALSTYLE
  5
35
102
{ACAD_REACTORS
330
2A
102
}
330
2A
100
AcDbVisualStyle
  2
Dim
 70
    11
 71
     2
 72
     2
 73
     0
 90
        0
 40
-0.6
 41
-30.0
 62
     5
 63
     7
421
 16777215
 74
     1
 91
        4
 64
     7
 65
   257
 75
     1
175
     1
 42
1.0
 92
        8
 66
     7
 43
1.0
 76
     1
 77
     6
 78
     2
 67
     7
 79
     5
170
     0
171
     0
290
     0
174
     0
 93
        1
 44
-50.0
173
     0
291
     1
 45
0.0
  0
VISUALSTYLE
  5
39
102
{ACAD_REACTORS
330
2A
102
}
330
2A
100
AcDbVisualStyle
  2
Facepattern
 70
    15
 71
     2
 72
     2
 73
     0
 90
        0
 40
-0.6
 41
-30.0
 62
     5
 63
     7
421
 16777215
 74
     1
 91
        4
 64
     7
 65
   257
 75
     1
175
     1
 42
1.0
 92
        8
 66
     7
 43
1.0
 76
     1
 77
     6
 78
     2
 67
     7
 79
     5
170
     0
171
     0
290
     0
174
     0
 93
        1
 44
0.0
173
     0
291
     1
 45
0.0
  0
VISUALSTYLE
  5
2B
102
{ACAD_REACTORS
330
2A
102
}
330
2A
100
AcDbVisualStyle
  2
Flat
 70
     0
 71
     2
 72
     1
 73
     1
 90
        2
 40
-0.6
 41
30.0
 62
     5
 63
     7
421
 16777215
 74
     0
 91
        4
 64
     7
 65
   257
 75
     1
175
     1
 42
1.0
 92
        8
 66
     7
 43
1.0
 76
     1
 77
     6
 78
     2
 67
     7
 79
     5
170
     0
171
     0
290
     0
174
     0
 93
       13
 44
0.0
173
     0
291
     1
 45
0.0
  0
VISUALSTYLE
  5
2C
102
{ACAD_REACTORS
330
2A
102
}
330
2A
100
AcDbVisualStyle
  2
FlatWithEdges
 70
     1
 71
     2
 72
     1
 73
     1
 90
        2
 40
-0.6
 41
30.0
 62
     5
 63
     7
421
 16777215
 74
     1
 91
        4
 64
     7
 65
   257
 75
     1
175
     1
 42
1.0
 92
        0
 66
   257
 43
1.0
 76
     1
 77
     6
 78
     2
 67
     7
 79
     5
170
     0
171
     0
290
     0
174
     0
 93
       13
 44
0.0
173
     0
291
     1
 45
0.0
  0
VISUALSTYLE
  5
2D
102
{ACAD_REACTORS
330
2A
102
}
330
2A
100
AcDbVisualStyle
  2
Gouraud
 70
     2
 71
     2
 72
     2
 73
     1
 90
        2
 40
-0.6
 41
30.0
 62
     5
 63
     7
421
 16777215
 74
     0
 91
        4
 64
     7
 65
   257
 75
     1
175
     1
 42
1.0
 92
        0
 66
     7
 43
1.0
 76
     1
 77
     6
 78
     2
 67
     7
 79
     5
170
     0
171
     0
290
     0
174
     0
 93
       13
 44
0.0
173
     0
291
     1
 45
0.0
  0
VISUALSTYLE
  5
2E
102
{ACAD_REACTORS
330
2A
102
}
330
2A
100
AcDbVisualStyle
  2
GouraudWithEdges
 70
     3
 71
     2
 72
     2
 73
     1
 90
        2
 40
-0.6
 41
30.0
 62
     5
 63
     7
421
 16777215
 74
     1
 91
        4
 64
     7
 65
   257
 75
     1
175
     1
 42
1.0
 92
        0
 66
   257
 43
1.0
 76
     1
 77
     6
 78
     2
 67
     7
 79
     5
170
     0
171
     0
290
     0
174
     0
 93
       13
 44
0.0
173
     0
291
     1
 45
0.0
  0
VISUALSTYLE
  5
38
102
{ACAD_REACTORS
330
2A
102
}
330
2A
100
AcDbVisualStyle
  2
Linepattern
 70
    14
 71
     2
 72
     2
 73
     0
 90
        0
 40
-0.6
 41
-30.0
 62
     5
 63
     7
421
 16777215
 74
     1
 91
        4
 64
     7
 65
   257
 75
     7
175
     7
 42
1.0
 92
        8
 66
     7
 43
1.0
 76
     1
 77
     6
 78
     2
 67
     7
 79
     5
170
     0
171
     0
290
     0
174
     0
 93
        1
 44
0.0
173
     0
291
     1
 45
0.0
  0
VISUALSTYLE
  5
33
102
{ACAD_REACTORS
330
2A
102
}
330
2A
100
AcDbVisualStyle
  2
Realistic
 70
     8
 71
     2
 72
     2
 73
     0
 90
        0
 40
-0.6
 41
-30.0
 62
     5
 63
     7
421
 16777215
 74
     1
 91
        0
 64
     7
 65
   257
 75
     1
175
     1
 42
1.0
 92
        8
 66
     8
424
  7895160
 43
1.0
 76
     1
 77
     6
 78
     2
 67
     7
 79
     5
170
     0
171
     0
290
     0
174
     0
 93
       13
 44
0.0
173
     0
291
     0
 45
0.0
  0
VISUALSTYLE
  5
37
102
{ACAD_REACTORS
330
2A
102
}
330
2A
100
AcDbVisualStyle
  2
Thicken
 70
    13
 71
     2
 72
     2
 73
     0
 90
        0
 40
-0.6
 41
-30.0
 62
     5
 63
     7
421
 16777215
 74
     1
 91
        4
 64
     7
 65
   257
 75
     1
175
     1
 42
1.0
 92
       12
 66
     7
 43
1.0
 76
     1
 77
     6
 78
     2
 67
     7
 79
     5
170
     0
171
     0
290
     0
174
     0
 93
        1
 44
0.0
173
     0
291
     1
 45
0.0
  0
ENDSEC
  0
EOF
