  0
SECTION
  2
HEADER
  9
$ACADVER
  1
AC1014
  9
$ACADMAINTVER
 70
     9
  9
$DWGCODEPAGE
  3
ANSI_1252
  9
$INSBASE
 10
0.0
 20
0.0
 30
0.0
  9
$EXTMIN
 10
-115.0
 20
-152.429
 30
0.0
  9
$EXTMAX
 10
-95.0
 20
-139.0
 30
0.0
  9
$LIMMIN
 10
0.0
 20
0.0
  9
$LIMMAX
 10
12.0
 20
9.0
  9
$ORTHOMODE
 70
     0
  9
$REGENMODE
 70
     1
  9
$FILLMODE
 70
     1
  9
$QTEXTMODE
 70
     0
  9
$MIRRTEXT
 70
     1
  9
$DRAGMODE
 70
     2
  9
$LTSCALE
 40
1.0
  9
$OSMODE
 70
    37
  9
$ATTMODE
 70
     1
  9
$TEXTSIZE
 40
0.2
  9
$TRACEWID
 40
0.05
  9
$TEXTSTYLE
  7
STANDARD
  9
$CLAYER
  8
0
  9
$CELTYPE
  6
BYLAYER
  9
$CECOLOR
 62
   256
  9
$CELTSCALE
 40
1.0
  9
$DELOBJ
 70
     1
  9
$DISPSILH
 70
     0
  9
$DIMSCALE
 40
1.0
  9
$DIMASZ
 40
0.18
  9
$DIMEXO
 40
0.0625
  9
$DIMDLI
 40
0.38
  9
$DIMRND
 40
0.0
  9
$DIMDLE
 40
0.0
  9
$DIMEXE
 40
0.18
  9
$DIMTP
 40
0.0
  9
$DIMTM
 40
0.0
  9
$DIMTXT
 40
0.18
  9
$DIMCEN
 40
0.09
  9
$DIMTSZ
 40
0.0
  9
$DIMTOL
 70
     0
  9
$DIMLIM
 70
     0
  9
$DIMTIH
 70
     1
  9
$DIMTOH
 70
     1
  9
$DIMSE1
 70
     0
  9
$DIMSE2
 70
     0
  9
$DIMTAD
 70
     0
  9
$DIMZIN
 70
     0
  9
$DIMBLK
  1

  9
$DIMASO
 70
     1
  9
$DIMSHO
 70
     1
  9
$DIMPOST
  1

  9
$DIMAPOST
  1

  9
$DIMALT
 70
     0
  9
$DIMALTD
 70
     2
  9
$DIMALTF
 40
25.4
  9
$DIMLFAC
 40
1.0
  9
$DIMTOFL
 70
     0
  9
$DIMTVP
 40
0.0
  9
$DIMTIX
 70
     0
  9
$DIMSOXD
 70
     0
  9
$DIMSAH
 70
     0
  9
$DIMBLK1
  1

  9
$DIMBLK2
  1

  9
$DIMSTYLE
  2
STANDARD
  9
$DIMCLRD
 70
     0
  9
$DIMCLRE
 70
     0
  9
$DIMCLRT
 70
     0
  9
$DIMTFAC
 40
1.0
  9
$DIMGAP
 40
0.09
  9
$DIMJUST
 70
     0
  9
$DIMSD1
 70
     0
  9
$DIMSD2
 70
     0
  9
$DIMTOLJ
 70
     1
  9
$DIMTZIN
 70
     0
  9
$DIMALTZ
 70
     0
  9
$DIMALTTZ
 70
     0
  9
$DIMFIT
 70
     3
  9
$DIMUPT
 70
     0
  9
$DIMUNIT
 70
     2
  9
$DIMDEC
 70
     4
  9
$DIMTDEC
 70
     4
  9
$DIMALTU
 70
     2
  9
$DIMALTTD
 70
     2
  9
$DIMTXSTY
  7
STANDARD
  9
$DIMAUNIT
 70
     0
  9
$LUNITS
 70
     2
  9
$LUPREC
 70
     4
  9
$SKETCHINC
 40
0.1
  9
$FILLETRAD
 40
0.5
  9
$AUNITS
 70
     0
  9
$AUPREC
 70
     0
  9
$MENU
  1
.
  9
$ELEVATION
 40
0.0
  9
$PELEVATION
 40
0.0
  9
$THICKNESS
 40
0.0
  9
$LIMCHECK
 70
     0
  9
$CHAMFERA
 40
0.5
  9
$CHAMFERB
 40
0.5
  9
$CHAMFERC
 40
1.0
  9
$CHAMFERD
 40
0.0
  9
$SKPOLY
 70
     0
  9
$TDCREATE
 40
2458629.621488565
  9
$TDUPDATE
 40
2458629.621488576
  9
$TDINDWG
 40
0.0000000116
  9
$TDUSRTIMER
 40
0.0000000116
  9
$USRTIMER
 70
     1
  9
$ANGBASE
 50
0.0
  9
$ANGDIR
 70
     0
  9
$PDMODE
 70
     0
  9
$PDSIZE
 40
0.0
  9
$PLINEWID
 40
0.0
  9
$COORDS
 70
     1
  9
$SPLFRAME
 70
     0
  9
$SPLINETYPE
 70
     6
  9
$SPLINESEGS
 70
     8
  9
$ATTDIA
 70
     0
  9
$ATTREQ
 70
     1
  9
$HANDLING
 70
     1
  9
$HANDSEED
  5
B9
  9
$SURFTAB1
 70
     6
  9
$SURFTAB2
 70
     6
  9
$SURFTYPE
 70
     6
  9
$SURFU
 70
     6
  9
$SURFV
 70
     6
  9
$UCSNAME
  2

  9
$UCSORG
 10
0.0
 20
0.0
 30
0.0
  9
$UCSXDIR
 10
1.0
 20
0.0
 30
0.0
  9
$UCSYDIR
 10
0.0
 20
1.0
 30
0.0
  9
$PUCSNAME
  2

  9
$PUCSORG
 10
0.0
 20
0.0
 30
0.0
  9
$PUCSXDIR
 10
1.0
 20
0.0
 30
0.0
  9
$PUCSYDIR
 10
0.0
 20
1.0
 30
0.0
  9
$USERI1
 70
     0
  9
$USERI2
 70
     0
  9
$USERI3
 70
     0
  9
$USERI4
 70
     0
  9
$USERI5
 70
     0
  9
$USERR1
 40
0.0
  9
$USERR2
 40
0.0
  9
$USERR3
 40
0.0
  9
$USERR4
 40
0.0
  9
$USERR5
 40
0.0
  9
$WORLDVIEW
 70
     1
  9
$SHADEDGE
 70
     3
  9
$SHADEDIF
 70
    70
  9
$TILEMODE
 70
     1
  9
$MAXACTVP
 70
    64
  9
$PINSBASE
 10
0.0
 20
0.0
 30
0.0
  9
$PLIMCHECK
 70
     0
  9
$PEXTMIN
 10
1.000000000000000E+20
 20
1.000000000000000E+20
 30
1.000000000000000E+20
  9
$PEXTMAX
 10
-1.000000000000000E+20
 20
-1.000000000000000E+20
 30
-1.000000000000000E+20
  9
$PLIMMIN
 10
0.0
 20
0.0
  9
$PLIMMAX
 10
12.0
 20
9.0
  9
$UNITMODE
 70
     0
  9
$VISRETAIN
 70
     1
  9
$PLINEGEN
 70
     0
  9
$PSLTSCALE
 70
     1
  9
$TREEDEPTH
 70
  3020
  9
$PICKSTYLE
 70
     1
  9
$CMLSTYLE
  2
STANDARD
  9
$CMLJUST
 70
     0
  9
$CMLSCALE
 40
1.0
  9
$PROXYGRAPHICS
 70
     1
  9
$MEASUREMENT
 70
     0
  0
ENDSEC
  0
SECTION
  2
CLASSES
  0
CLASS
  1
ACDBDICTIONARYWDFLT
  2
AcDbDictionaryWithDefault
  3
ObjectDBX Classes
 90
        0
280
     0
281
     0
  0
CLASS
  1
VISUALSTYLE
  2
AcDbVisualStyle
  3
ObjectDBX Classes
 90
     4095
280
     0
281
     0
  0
CLASS
  1
SCALE
  2
AcDbScale
  3
ObjectDBX Classes
 90
     1153
280
     0
281
     0
  0
CLASS
  1
DICTIONARYVAR
  2
AcDbDictionaryVar
  3
ObjectDBX Classes
 90
        0
280
     0
281
     0
  0
CLASS
  1
XRECORD
  2
AcDbXrecord
  3
AutoCAD 2000
 90
        0
280
     0
281
     0
  0
CLASS
  1
LWPOLYLINE
  2
AcDbPolyline
  3
AutoCAD 2000
 90
        0
280
     0
281
     1
  0
CLASS
  1
HATCH
  2
AcDbHatch
  3
AutoCAD 2000
 90
        0
280
     0
281
     1
  0
CLASS
  1
ACDBPLACEHOLDER
  2
AcDbPlaceHolder
  3
ObjectDBX Classes
 90
        0
280
     0
281
     0
  0
CLASS
  1
LAYOUT
  2
AcDbLayout
  3
ObjectDBX Classes
 90
        0
280
     0
281
     0
  0
ENDSEC
  0
SECTION
  2
TABLES
  0
TABLE
  2
VPORT
  5
8
330
0
100
AcDbSymbolTable
 70
     1
  0
VPORT
  5
29
330
8
100
AcDbSymbolTableRecord
100
AcDbViewportTableRecord
  2
*ACTIVE
 70
     0
 10
0.0
 20
0.0
 11
1.0
 21
1.0
 12
10.42990654205607
 22
4.5
 13
0.0
 23
0.0
 14
0.5
 24
0.5
 15
0.5
 25
0.5
 16
0.0
 26
0.0
 36
1.0
 17
0.0
 27
0.0
 37
0.0
 40
9.0
 41
1.972972972850329
 42
50.0
 43
0.0
 44
0.0
 50
0.0
 51
0.0
 71
     0
 72
   100
 73
     1
 74
     3
 75
     0
 76
     0
 77
     0
 78
     0
  0
ENDTAB
  0
TABLE
  2
LTYPE
  5
5
330
0
100
AcDbSymbolTable
 70
     1
  0
LTYPE
  5
14
330
5
100
AcDbSymbolTableRecord
100
AcDbLinetypeTableRecord
  2
BYBLOCK
 70
     0
  3

 72
    65
 73
     0
 40
0.0
  0
LTYPE
  5
15
330
5
100
AcDbSymbolTableRecord
100
AcDbLinetypeTableRecord
  2
BYLAYER
 70
     0
  3

 72
    65
 73
     0
 40
0.0
  0
LTYPE
  5
16
330
5
100
AcDbSymbolTableRecord
100
AcDbLinetypeTableRecord
  2
CONTINUOUS
 70
     0
  3
Solid line
 72
    65
 73
     0
 40
0.0
  0
ENDTAB
  0
TABLE
  2
LAYER
  5
2
330
0
100
AcDbSymbolTable
 70
     2
  0
LAYER
  5
10
330
2
100
AcDbSymbolTableRecord
100
AcDbLayerTableRecord
  2
0
 70
     0
 62
     7
  6
CONTINUOUS
  0
LAYER
  5
5E
330
2
100
AcDbSymbolTableRecord
100
AcDbLayerTableRecord
  2
LAYER_1
 70
     0
 62
     7
  6
CONTINUOUS
  0
ENDTAB
  0
TABLE
  2
STYLE
  5
3
330
0
100
AcDbSymbolTable
 70
     1
  0
STYLE
  5
11
330
3
100
AcDbSymbolTableRecord
100
AcDbTextStyleTableRecord
  2
STANDARD
 70
     0
 40
0.0
 41
1.0
 50
0.0
 71
     0
 42
0.2
  3
txt
  4

  0
ENDTAB
  0
TABLE
  2
VIEW
  5
6
330
0
100
AcDbSymbolTable
 70
     0
  0
ENDTAB
  0
TABLE
  2
UCS
  5
7
330
0
100
AcDbSymbolTable
 70
     0
  0
ENDTAB
  0
TABLE
  2
APPID
  5
9
330
0
100
AcDbSymbolTable
 70
     2
  0
APPID
  5
12
330
9
100
AcDbSymbolTableRecord
100
AcDbRegAppTableRecord
  2
ACAD
 70
     0
  0
APPID
  5
5D
330
9
100
AcDbSymbolTableRecord
100
AcDbRegAppTableRecord
  2
ODA
 70
     0
  0
ENDTAB
  0
TABLE
  2
DIMSTYLE
  5
A
330
0
100
AcDbSymbolTable
 70
     1
  0
DIMSTYLE
105
27
330
A
100
AcDbSymbolTableRecord
100
AcDbDimStyleTableRecord
  2
STANDARD
 70
     0
  3

  4

  5

  6

  7

 40
1.0
 41
0.18
 42
0.0625
 43
0.38
 44
0.18
 45
0.0
 46
0.0
 47
0.0
 48
0.0
140
0.18
141
0.09
142
0.0
143
25.4
144
1.0
145
0.0
146
1.0
147
0.09
 71
     0
 72
     0
 73
     1
 74
     1
 75
     0
 76
     0
 77
     0
 78
     0
170
     0
171
     2
172
     0
173
     0
174
     0
175
     0
176
     0
177
     0
178
     0
270
     2
271
     4
272
     4
273
     2
274
     2
340
11
275
     0
280
     0
281
     0
282
     0
283
     1
284
     0
285
     0
286
     0
287
     3
288
     0
  0
ENDTAB
  0
TABLE
  2
BLOCK_RECORD
  5
1
330
0
100
AcDbSymbolTable
 70
     1
  0
BLOCK_RECORD
  5
1F
330
1
100
AcDbSymbolTableRecord
100
AcDbBlockTableRecord
  2
*MODEL_SPACE
  0
BLOCK_RECORD
  5
1B
330
1
100
AcDbSymbolTableRecord
100
AcDbBlockTableRecord
  2
*PAPER_SPACE
  0
ENDTAB
  0
ENDSEC
  0
SECTION
  2
BLOCKS
  0
BLOCK
  5
20
330
1F
100
AcDbEntity
  8
0
100
AcDbBlockBegin
  2
*MODEL_SPACE
 70
     0
 10
0.0
 20
0.0
 30
0.0
  3
*MODEL_SPACE
  1

  0
ENDBLK
  5
21
330
1F
100
AcDbEntity
  8
0
100
AcDbBlockEnd
  0
BLOCK
  5
1C
330
1B
100
AcDbEntity
 67
     1
  8
0
100
AcDbBlockBegin
  2
*PAPER_SPACE
 70
     0
 10
0.0
 20
0.0
 30
0.0
  3
*PAPER_SPACE
  1

  0
ENDBLK
  5
1D
330
1B
100
AcDbEntity
 67
     1
  8
0
100
AcDbBlockEnd
  0
ENDSEC
  0
SECTION
  2
ENTITIES
  0
LWPOLYLINE
  5
5F
330
1F
100
AcDbEntity
  8
LAYER_1
 62
     7
100
AcDbPolyline
 90
        5
 70
     1
 43
0.0
 10
-105.508
 20
-148.754
 10
-104.492
 20
-148.754
 10
-104.492
 20
-148.246
 10
-105.508
 20
-148.246
 10
-105.508
 20
-148.754
  0
LWPOLYLINE
  5
60
330
1F
100
AcDbEntity
  8
LAYER_1
 62
     7
100
AcDbPolyline
 90
        5
 70
     1
 43
0.0
 10
-105.35
 20
-148.754
 10
-104.65
 20
-148.754
 10
-104.65
 20
-148.246
 10
-105.35
 20
-148.246
 10
-105.35
 20
-148.754
  0
SPLINE
  5
61
330
1F
100
AcDbEntity
  8
LAYER_1
100
AcDbSpline
210
0.0
220
0.0
230
1.0
 70
    11
 71
     3
 72
   116
 73
   112
 74
     0
 42
0.0000000001
 43
0.0000000001
 40
0.0
 40
0.0
 40
0.0
 40
0.0
 40
0.0357142857142857
 40
0.0357142857142857
 40
0.0357142857142857
 40
0.0357142857142857
 40
0.0714285714285714
 40
0.0714285714285714
 40
0.0714285714285714
 40
0.0714285714285714
 40
0.1071428571428571
 40
0.1071428571428571
 40
0.1071428571428571
 40
0.1071428571428571
 40
0.1428571428571428
 40
0.1428571428571428
 40
0.1428571428571428
 40
0.1428571428571428
 40
0.1785714285714285
 40
0.1785714285714285
 40
0.1785714285714285
 40
0.1785714285714285
 40
0.2142857142857142
 40
0.2142857142857142
 40
0.2142857142857142
 40
0.2142857142857142
 40
0.2499999999999999
 40
0.2499999999999999
 40
0.2499999999999999
 40
0.2499999999999999
 40
0.2857142857142856
 40
0.2857142857142856
 40
0.2857142857142856
 40
0.2857142857142856
 40
0.3214285714285713
 40
0.3214285714285713
 40
0.3214285714285713
 40
0.3214285714285713
 40
0.357142857142857
 40
0.357142857142857
 40
0.357142857142857
 40
0.357142857142857
 40
0.3928571428571427
 40
0.3928571428571427
 40
0.3928571428571427
 40
0.3928571428571427
 40
0.4285714285714284
 40
0.4285714285714284
 40
0.4285714285714284
 40
0.4285714285714284
 40
0.4642857142857141
 40
0.4642857142857141
 40
0.4642857142857141
 40
0.4642857142857141
 40
0.4999999999999998
 40
0.4999999999999998
 40
0.4999999999999998
 40
0.4999999999999998
 40
0.5357142857142856
 40
0.5357142857142856
 40
0.5357142857142856
 40
0.5357142857142856
 40
0.5714285714285713
 40
0.5714285714285713
 40
0.5714285714285713
 40
0.5714285714285713
 40
0.607142857142857
 40
0.607142857142857
 40
0.607142857142857
 40
0.607142857142857
 40
0.6428571428571427
 40
0.6428571428571427
 40
0.6428571428571427
 40
0.6428571428571427
 40
0.6785714285714284
 40
0.6785714285714284
 40
0.6785714285714284
 40
0.6785714285714284
 40
0.7142857142857141
 40
0.7142857142857141
 40
0.7142857142857141
 40
0.7142857142857141
 40
0.7499999999999998
 40
0.7499999999999998
 40
0.7499999999999998
 40
0.7499999999999998
 40
0.7857142857142855
 40
0.7857142857142855
 40
0.7857142857142855
 40
0.7857142857142855
 40
0.8214285714285712
 40
0.8214285714285712
 40
0.8214285714285712
 40
0.8214285714285712
 40
0.8571428571428569
 40
0.8571428571428569
 40
0.8571428571428569
 40
0.8571428571428569
 40
0.8928571428571426
 40
0.8928571428571426
 40
0.8928571428571426
 40
0.8928571428571426
 40
0.9285714285714283
 40
0.9285714285714283
 40
0.9285714285714283
 40
0.9285714285714283
 40
0.964285714285714
 40
0.964285714285714
 40
0.964285714285714
 40
0.964285714285714
 40
1.0
 40
1.0
 40
1.0
 40
1.0
 10
-112.6613
 20
-142.0284
 30
0.0
 10
-112.6613
 20
-142.0284
 30
0.0
 10
-112.6613
 20
-142.2459
 30
0.0
 10
-112.6613
 20
-142.2459
 30
0.0
 10
-112.6613
 20
-142.2459
 30
0.0
 10
-112.7178
 20
-142.2207
 30
0.0
 10
-112.773
 20
-142.2017
 30
0.0
 10
-112.8266
 20
-142.1888
 30
0.0
 10
-112.8266
 20
-142.1888
 30
0.0
 10
-112.8805
 20
-142.1758
 30
0.0
 10
-112.9313
 20
-142.1695
 30
0.0
 10
-112.979
 20
-142.1695
 30
0.0
 10
-112.979
 20
-142.1695
 30
0.0
 10
-113.0423
 20
-142.1695
 30
0.0
 10
-113.0893
 20
-142.1782
 30
0.0
 10
-113.1197
 20
-142.1956
 30
0.0
 10
-113.1197
 20
-142.1956
 30
0.0
 10
-113.15
 20
-142.2132
 30
0.0
 10
-113.1651
 20
-142.2403
 30
0.0
 10
-113.1651
 20
-142.277
 30
0.0
 10
-113.1651
 20
-142.277
 30
0.0
 10
-113.1651
 20
-142.3045
 30
0.0
 10
-113.155
 20
-142.3261
 30
0.0
 10
-113.1345
 20
-142.3414
 30
0.0
 10
-113.1345
 20
-142.3414
 30
0.0
 10
-113.114
 20
-142.3567
 30
0.0
 10
-113.0769
 20
-142.3701
 30
0.0
 10
-113.023
 20
-142.3811
 30
0.0
 10
-113.023
 20
-142.3811
 30
0.0
 10
-113.023
 20
-142.3811
 30
0.0
 10
-112.9101
 20
-142.4037
 30
0.0
 10
-112.9101
 20
-142.4037
 30
0.0
 10
-112.9101
 20
-142.4037
 30
0.0
 10
-112.7956
 20
-142.4268
 30
0.0
 10
-112.7145
 20
-142.4616
 30
0.0
 10
-112.6663
 20
-142.5086
 30
0.0
 10
-112.6663
 20
-142.5086
 30
0.0
 10
-112.618
 20
-142.5554
 30
0.0
 10
-112.5938
 20
-142.622
 30
0.0
 10
-112.5938
 20
-142.7083
 30
0.0
 10
-112.5938
 20
-142.7083
 30
0.0
 10
-112.5938
 20
-142.8219
 30
0.0
 10
-112.6274
 20
-142.9063
 30
0.0
 10
-112.6947
 20
-142.9616
 30
0.0
 10
-112.6947
 20
-142.9616
 30
0.0
 10
-112.762
 20
-143.0168
 30
0.0
 10
-112.8647
 20
-143.0446
 30
0.0
 10
-113.003
 20
-143.0446
 30
0.0
 10
-113.003
 20
-143.0446
 30
0.0
 10
-113.0684
 20
-143.0446
 30
0.0
 10
-113.1338
 20
-143.0385
 30
0.0
 10
-113.1994
 20
-143.026
 30
0.0
 10
-113.1994
 20
-143.026
 30
0.0
 10
-113.265
 20
-143.0135
 30
0.0
 10
-113.3309
 20
-142.9952
 30
0.0
 10
-113.3965
 20
-142.971
 30
0.0
 10
-113.3965
 20
-142.971
 30
0.0
 10
-113.3965
 20
-142.971
 30
0.0
 10
-113.3965
 20
-142.7471
 30
0.0
 10
-113.3965
 20
-142.7471
 30
0.0
 10
-113.3965
 20
-142.7471
 30
0.0
 10
-113.3309
 20
-142.7819
 30
0.0
 10
-113.2674
 20
-142.8082
 30
0.0
 10
-113.206
 20
-142.8259
 30
0.0
 10
-113.206
 20
-142.8259
 30
0.0
 10
-113.1446
 20
-142.8435
 30
0.0
 10
-113.0856
 20
-142.8524
 30
0.0
 10
-113.0287
 20
-142.8524
 30
0.0
 10
-113.0287
 20
-142.8524
 30
0.0
 10
-112.9708
 20
-142.8524
 30
0.0
 10
-112.9264
 20
-142.8428
 30
0.0
 10
-112.8956
 20
-142.8235
 30
0.0
 10
-112.8956
 20
-142.8235
 30
0.0
 10
-112.8647
 20
-142.8042
 30
0.0
 10
-112.8495
 20
-142.7767
 30
0.0
 10
-112.8495
 20
-142.7407
 30
0.0
 10
-112.8495
 20
-142.7407
 30
0.0
 10
-112.8495
 20
-142.7087
 30
0.0
 10
-112.8598
 20
-142.6838
 30
0.0
 10
-112.8807
 20
-142.6664
 30
0.0
 10
-112.8807
 20
-142.6664
 30
0.0
 10
-112.9017
 20
-142.649
 30
0.0
 10
-112.9433
 20
-142.6333
 30
0.0
 10
-113.0059
 20
-142.6196
 30
0.0
 10
-113.0059
 20
-142.6196
 30
0.0
 10
-113.0059
 20
-142.6196
 30
0.0
 10
-113.1086
 20
-142.5968
 30
0.0
 10
-113.1086
 20
-142.5968
 30
0.0
 10
-113.1086
 20
-142.5968
 30
0.0
 10
-113.2114
 20
-142.5747
 30
0.0
 10
-113.2867
 20
-142.5397
 30
0.0
 10
-113.3342
 20
-142.4914
 30
0.0
 10
-113.3342
 20
-142.4914
 30
0.0
 10
-113.3817
 20
-142.4432
 30
0.0
 10
-113.4054
 20
-142.3781
 30
0.0
 10
-113.4054
 20
-142.2965
 30
0.0
 10
-113.4054
 20
-142.2965
 30
0.0
 10
-113.4054
 20
-142.1939
 30
0.0
 10
-113.3723
 20
-142.1151
 30
0.0
 10
-113.3062
 20
-142.0601
 30
0.0
 10
-113.3062
 20
-142.0601
 30
0.0
 10
-113.2401
 20
-142.0048
 30
0.0
 10
-113.1451
 20
-141.9773
 30
0.0
 10
-113.0209
 20
-141.9773
 30
0.0
 10
-113.0209
 20
-141.9773
 30
0.0
 10
-112.9645
 20
-141.9773
 30
0.0
 10
-112.9064
 20
-141.9816
 30
0.0
 10
-112.8466
 20
-141.99
 30
0.0
 10
-112.8466
 20
-141.99
 30
0.0
 10
-112.7869
 20
-141.9985
 30
0.0
 10
-112.7251
 20
-142.0112
 30
0.0
 10
-112.6613
 20
-142.0284
 30
0.0
  0
SPLINE
  5
62
330
1F
100
AcDbEntity
  8
LAYER_1
100
AcDbSpline
210
0.0
220
0.0
230
1.0
 70
    11
 71
     3
 72
    56
 73
    52
 74
     0
 42
0.0000000001
 43
0.0000000001
 40
0.0
 40
0.0
 40
0.0
 40
0.0
 40
0.0769230769230769
 40
0.0769230769230769
 40
0.0769230769230769
 40
0.0769230769230769
 40
0.1538461538461539
 40
0.1538461538461539
 40
0.1538461538461539
 40
0.1538461538461539
 40
0.2307692307692308
 40
0.2307692307692308
 40
0.2307692307692308
 40
0.2307692307692308
 40
0.3076923076923077
 40
0.3076923076923077
 40
0.3076923076923077
 40
0.3076923076923077
 40
0.3846153846153846
 40
0.3846153846153846
 40
0.3846153846153846
 40
0.3846153846153846
 40
0.4615384615384616
 40
0.4615384615384616
 40
0.4615384615384616
 40
0.4615384615384616
 40
0.5384615384615385
 40
0.5384615384615385
 40
0.5384615384615385
 40
0.5384615384615385
 40
0.6153846153846154
 40
0.6153846153846154
 40
0.6153846153846154
 40
0.6153846153846154
 40
0.6923076923076923
 40
0.6923076923076923
 40
0.6923076923076923
 40
0.6923076923076923
 40
0.7692307692307692
 40
0.7692307692307692
 40
0.7692307692307692
 40
0.7692307692307692
 40
0.846153846153846
 40
0.846153846153846
 40
0.846153846153846
 40
0.846153846153846
 40
0.9230769230769229
 40
0.9230769230769229
 40
0.9230769230769229
 40
0.9230769230769229
 40
1.0
 40
1.0
 40
1.0
 40
1.0
 10
-112.361
 20
-141.9959
 30
0.0
 10
-112.361
 20
-141.9959
 30
0.0
 10
-112.0235
 20
-141.9959
 30
0.0
 10
-112.0235
 20
-141.9959
 30
0.0
 10
-112.0235
 20
-141.9959
 30
0.0
 10
-112.0235
 20
-141.9959
 30
0.0
 10
-111.789
 20
-142.5465
 30
0.0
 10
-111.789
 20
-142.5465
 30
0.0
 10
-111.789
 20
-142.5465
 30
0.0
 10
-111.789
 20
-142.5465
 30
0.0
 10
-111.5534
 20
-141.9959
 30
0.0
 10
-111.5534
 20
-141.9959
 30
0.0
 10
-111.5534
 20
-141.9959
 30
0.0
 10
-111.5534
 20
-141.9959
 30
0.0
 10
-111.2166
 20
-141.9959
 30
0.0
 10
-111.2166
 20
-141.9959
 30
0.0
 10
-111.2166
 20
-141.9959
 30
0.0
 10
-111.2166
 20
-141.9959
 30
0.0
 10
-111.2166
 20
-143.0246
 30
0.0
 10
-111.2166
 20
-143.0246
 30
0.0
 10
-111.2166
 20
-143.0246
 30
0.0
 10
-111.2166
 20
-143.0246
 30
0.0
 10
-111.4673
 20
-143.0246
 30
0.0
 10
-111.4673
 20
-143.0246
 30
0.0
 10
-111.4673
 20
-143.0246
 30
0.0
 10
-111.4673
 20
-143.0246
 30
0.0
 10
-111.4673
 20
-142.2722
 30
0.0
 10
-111.4673
 20
-142.2722
 30
0.0
 10
-111.4673
 20
-142.2722
 30
0.0
 10
-111.4673
 20
-142.2722
 30
0.0
 10
-111.7044
 20
-142.8268
 30
0.0
 10
-111.7044
 20
-142.8268
 30
0.0
 10
-111.7044
 20
-142.8268
 30
0.0
 10
-111.7044
 20
-142.8268
 30
0.0
 10
-111.8725
 20
-142.8268
 30
0.0
 10
-111.8725
 20
-142.8268
 30
0.0
 10
-111.8725
 20
-142.8268
 30
0.0
 10
-111.8725
 20
-142.8268
 30
0.0
 10
-112.1096
 20
-142.2722
 30
0.0
 10
-112.1096
 20
-142.2722
 30
0.0
 10
-112.1096
 20
-142.2722
 30
0.0
 10
-112.1096
 20
-142.2722
 30
0.0
 10
-112.1096
 20
-143.0246
 30
0.0
 10
-112.1096
 20
-143.0246
 30
0.0
 10
-112.1096
 20
-143.0246
 30
0.0
 10
-112.1096
 20
-143.0246
 30
0.0
 10
-112.361
 20
-143.0246
 30
0.0
 10
-112.361
 20
-143.0246
 30
0.0
 10
-112.361
 20
-143.0246
 30
0.0
 10
-112.361
 20
-143.0246
 30
0.0
 10
-112.361
 20
-141.9959
 30
0.0
 10
-112.361
 20
-141.9959
 30
0.0
  0
SPLINE
  5
63
330
1F
100
AcDbEntity
  8
LAYER_1
100
AcDbSpline
210
0.0
220
0.0
230
1.0
 70
    11
 71
     3
 72
    32
 73
    28
 74
     0
 42
0.0000000001
 43
0.0000000001
 40
0.0
 40
0.0
 40
0.0
 40
0.0
 40
0.1428571428571428
 40
0.1428571428571428
 40
0.1428571428571428
 40
0.1428571428571428
 40
0.2857142857142857
 40
0.2857142857142857
 40
0.2857142857142857
 40
0.2857142857142857
 40
0.4285714285714285
 40
0.4285714285714285
 40
0.4285714285714285
 40
0.4285714285714285
 40
0.5714285714285714
 40
0.5714285714285714
 40
0.5714285714285714
 40
0.5714285714285714
 40
0.7142857142857142
 40
0.7142857142857142
 40
0.7142857142857142
 40
0.7142857142857142
 40
0.857142857142857
 40
0.857142857142857
 40
0.857142857142857
 40
0.857142857142857
 40
1.0
 40
1.0
 40
1.0
 40
1.0
 10
-110.6914
 20
-142.1965
 30
0.0
 10
-110.6914
 20
-142.1965
 30
0.0
 10
-110.6914
 20
-142.824
 30
0.0
 10
-110.6914
 20
-142.824
 30
0.0
 10
-110.6914
 20
-142.824
 30
0.0
 10
-110.6914
 20
-142.824
 30
0.0
 10
-110.5964
 20
-142.824
 30
0.0
 10
-110.5964
 20
-142.824
 30
0.0
 10
-110.5964
 20
-142.824
 30
0.0
 10
-110.488
 20
-142.824
 30
0.0
 10
-110.4052
 20
-142.7972
 30
0.0
 10
-110.3481
 20
-142.7433
 30
0.0
 10
-110.3481
 20
-142.7433
 30
0.0
 10
-110.2909
 20
-142.6897
 30
0.0
 10
-110.2622
 20
-142.6116
 30
0.0
 10
-110.2622
 20
-142.5093
 30
0.0
 10
-110.2622
 20
-142.5093
 30
0.0
 10
-110.2622
 20
-142.4072
 30
0.0
 10
-110.2907
 20
-142.3296
 30
0.0
 10
-110.3476
 20
-142.2765
 30
0.0
 10
-110.3476
 20
-142.2765
 30
0.0
 10
-110.4045
 20
-142.2231
 30
0.0
 10
-110.4875
 20
-142.1965
 30
0.0
 10
-110.5964
 20
-142.1965
 30
0.0
 10
-110.5964
 20
-142.1965
 30
0.0
 10
-110.5964
 20
-142.1965
 30
0.0
 10
-110.6914
 20
-142.1965
 30
0.0
 10
-110.6914
 20
-142.1965
 30
0.0
  0
SPLINE
  5
64
330
1F
100
AcDbEntity
  8
LAYER_1
100
AcDbSpline
210
0.0
220
0.0
230
1.0
 70
    11
 71
     3
 72
    48
 73
    44
 74
     0
 42
0.0000000001
 43
0.0000000001
 40
0.0
 40
0.0
 40
0.0
 40
0.0
 40
0.0909090909090909
 40
0.0909090909090909
 40
0.0909090909090909
 40
0.0909090909090909
 40
0.1818181818181818
 40
0.1818181818181818
 40
0.1818181818181818
 40
0.1818181818181818
 40
0.2727272727272727
 40
0.2727272727272727
 40
0.2727272727272727
 40
0.2727272727272727
 40
0.3636363636363636
 40
0.3636363636363636
 40
0.3636363636363636
 40
0.3636363636363636
 40
0.4545454545454546
 40
0.4545454545454546
 40
0.4545454545454546
 40
0.4545454545454546
 40
0.5454545454545455
 40
0.5454545454545455
 40
0.5454545454545455
 40
0.5454545454545455
 40
0.6363636363636365
 40
0.6363636363636365
 40
0.6363636363636365
 40
0.6363636363636365
 40
0.7272727272727274
 40
0.7272727272727274
 40
0.7272727272727274
 40
0.7272727272727274
 40
0.8181818181818183
 40
0.8181818181818183
 40
0.8181818181818183
 40
0.8181818181818183
 40
0.9090909090909093
 40
0.9090909090909093
 40
0.9090909090909093
 40
0.9090909090909093
 40
1.0
 40
1.0
 40
1.0
 40
1.0
 10
-110.9567
 20
-141.9959
 30
0.0
 10
-110.9567
 20
-141.9959
 30
0.0
 10
-110.6768
 20
-141.9959
 30
0.0
 10
-110.6768
 20
-141.9959
 30
0.0
 10
-110.6768
 20
-141.9959
 30
0.0
 10
-110.5207
 20
-141.9959
 30
0.0
 10
-110.4045
 20
-142.007
 30
0.0
 10
-110.3281
 20
-142.0293
 30
0.0
 10
-110.3281
 20
-142.0293
 30
0.0
 10
-110.2516
 20
-142.0516
 30
0.0
 10
-110.186
 20
-142.0893
 30
0.0
 10
-110.1312
 20
-142.1427
 30
0.0
 10
-110.1312
 20
-142.1427
 30
0.0
 10
-110.083
 20
-142.189
 30
0.0
 10
-110.0473
 20
-142.2426
 30
0.0
 10
-110.0237
 20
-142.3033
 30
0.0
 10
-110.0237
 20
-142.3033
 30
0.0
 10
-110.0005
 20
-142.3637
 30
0.0
 10
-109.9887
 20
-142.4324
 30
0.0
 10
-109.9887
 20
-142.5093
 30
0.0
 10
-109.9887
 20
-142.5093
 30
0.0
 10
-109.9887
 20
-142.5869
 30
0.0
 10
-110.0005
 20
-142.6561
 30
0.0
 10
-110.0237
 20
-142.717
 30
0.0
 10
-110.0237
 20
-142.717
 30
0.0
 10
-110.0473
 20
-142.7779
 30
0.0
 10
-110.083
 20
-142.8315
 30
0.0
 10
-110.1312
 20
-142.8778
 30
0.0
 10
-110.1312
 20
-142.8778
 30
0.0
 10
-110.1865
 20
-142.9312
 30
0.0
 10
-110.2526
 20
-142.9689
 30
0.0
 10
-110.3297
 20
-142.9912
 30
0.0
 10
-110.3297
 20
-142.9912
 30
0.0
 10
-110.4069
 20
-143.0135
 30
0.0
 10
-110.5226
 20
-143.0246
 30
0.0
 10
-110.6768
 20
-143.0246
 30
0.0
 10
-110.6768
 20
-143.0246
 30
0.0
 10
-110.6768
 20
-143.0246
 30
0.0
 10
-110.9567
 20
-143.0246
 30
0.0
 10
-110.9567
 20
-143.0246
 30
0.0
 10
-110.9567
 20
-143.0246
 30
0.0
 10
-110.9567
 20
-143.0246
 30
0.0
 10
-110.9567
 20
-141.9959
 30
0.0
 10
-110.9567
 20
-141.9959
 30
0.0
  0
SPLINE
  5
65
330
1F
100
AcDbEntity
  8
LAYER_1
100
AcDbSpline
210
0.0
220
0.0
230
1.0
 70
    11
 71
     3
 72
    44
 73
    40
 74
     0
 42
0.0000000001
 43
0.0000000001
 40
0.0
 40
0.0
 40
0.0
 40
0.0
 40
0.1
 40
0.1
 40
0.1
 40
0.1
 40
0.2
 40
0.2
 40
0.2
 40
0.2
 40
0.3
 40
0.3
 40
0.3
 40
0.3
 40
0.4
 40
0.4
 40
0.4
 40
0.4
 40
0.5
 40
0.5
 40
0.5
 40
0.5
 40
0.6
 40
0.6
 40
0.6
 40
0.6
 40
0.7
 40
0.7
 40
0.7
 40
0.7
 40
0.7999999999999999
 40
0.7999999999999999
 40
0.7999999999999999
 40
0.7999999999999999
 40
0.8999999999999999
 40
0.8999999999999999
 40
0.8999999999999999
 40
0.8999999999999999
 40
1.0
 40
1.0
 40
1.0
 40
1.0
 10
-108.8918
 20
-143.2106
 30
0.0
 10
-108.8918
 20
-143.2106
 30
0.0
 10
-109.0964
 20
-143.2106
 30
0.0
 10
-109.0964
 20
-143.2106
 30
0.0
 10
-109.0964
 20
-143.2106
 30
0.0
 10
-109.1667
 20
-143.0973
 30
0.0
 10
-109.2187
 20
-142.9893
 30
0.0
 10
-109.2521
 20
-142.887
 30
0.0
 10
-109.2521
 20
-142.887
 30
0.0
 10
-109.2857
 20
-142.7849
 30
0.0
 10
-109.3024
 20
-142.6836
 30
0.0
 10
-109.3024
 20
-142.5829
 30
0.0
 10
-109.3024
 20
-142.5829
 30
0.0
 10
-109.3024
 20
-142.4823
 30
0.0
 10
-109.2855
 20
-142.3804
 30
0.0
 10
-109.2519
 20
-142.2774
 30
0.0
 10
-109.2519
 20
-142.2774
 30
0.0
 10
-109.218
 20
-142.1742
 30
0.0
 10
-109.1663
 20
-142.0665
 30
0.0
 10
-109.0964
 20
-141.9538
 30
0.0
 10
-109.0964
 20
-141.9538
 30
0.0
 10
-109.0964
 20
-141.9538
 30
0.0
 10
-108.8918
 20
-141.9538
 30
0.0
 10
-108.8918
 20
-141.9538
 30
0.0
 10
-108.8918
 20
-141.9538
 30
0.0
 10
-108.9506
 20
-142.0627
 30
0.0
 10
-108.9946
 20
-142.1692
 30
0.0
 10
-109.024
 20
-142.2732
 30
0.0
 10
-109.024
 20
-142.2732
 30
0.0
 10
-109.0534
 20
-142.3771
 30
0.0
 10
-109.0682
 20
-142.4799
 30
0.0
 10
-109.0682
 20
-142.5815
 30
0.0
 10
-109.0682
 20
-142.5815
 30
0.0
 10
-109.0682
 20
-142.6831
 30
0.0
 10
-109.0536
 20
-142.7859
 30
0.0
 10
-109.0245
 20
-142.8903
 30
0.0
 10
-109.0245
 20
-142.8903
 30
0.0
 10
-108.9953
 20
-142.9945
 30
0.0
 10
-108.9511
 20
-143.1013
 30
0.0
 10
-108.8918
 20
-143.2106
 30
0.0
  0
SPLINE
  5
66
330
1F
100
AcDbEntity
  8
LAYER_1
100
AcDbSpline
210
0.0
220
0.0
230
1.0
 70
    11
 71
     3
 72
    36
 73
    32
 74
     0
 42
0.0000000001
 43
0.0000000001
 40
0.0
 40
0.0
 40
0.0
 40
0.0
 40
0.125
 40
0.125
 40
0.125
 40
0.125
 40
0.25
 40
0.25
 40
0.25
 40
0.25
 40
0.375
 40
0.375
 40
0.375
 40
0.375
 40
0.5
 40
0.5
 40
0.5
 40
0.5
 40
0.625
 40
0.625
 40
0.625
 40
0.625
 40
0.75
 40
0.75
 40
0.75
 40
0.75
 40
0.875
 40
0.875
 40
0.875
 40
0.875
 40
1.0
 40
1.0
 40
1.0
 40
1.0
 10
-108.1298
 20
-142.5093
 30
0.0
 10
-108.1298
 20
-142.3807
 30
0.0
 10
-108.1418
 20
-142.2901
 30
0.0
 10
-108.166
 20
-142.2374
 30
0.0
 10
-108.166
 20
-142.2374
 30
0.0
 10
-108.19
 20
-142.185
 30
0.0
 10
-108.2307
 20
-142.1587
 30
0.0
 10
-108.2876
 20
-142.1587
 30
0.0
 10
-108.2876
 20
-142.1587
 30
0.0
 10
-108.3445
 20
-142.1587
 30
0.0
 10
-108.3852
 20
-142.185
 30
0.0
 10
-108.4097
 20
-142.2374
 30
0.0
 10
-108.4097
 20
-142.2374
 30
0.0
 10
-108.4339
 20
-142.2901
 30
0.0
 10
-108.4461
 20
-142.3807
 30
0.0
 10
-108.4461
 20
-142.5093
 30
0.0
 10
-108.4461
 20
-142.5093
 30
0.0
 10
-108.4461
 20
-142.6391
 30
0.0
 10
-108.4339
 20
-142.7309
 30
0.0
 10
-108.4097
 20
-142.784
 30
0.0
 10
-108.4097
 20
-142.784
 30
0.0
 10
-108.3852
 20
-142.8374
 30
0.0
 10
-108.3445
 20
-142.864
 30
0.0
 10
-108.2876
 20
-142.864
 30
0.0
 10
-108.2876
 20
-142.864
 30
0.0
 10
-108.2312
 20
-142.864
 30
0.0
 10
-108.1907
 20
-142.8374
 30
0.0
 10
-108.1662
 20
-142.784
 30
0.0
 10
-108.1662
 20
-142.784
 30
0.0
 10
-108.142
 20
-142.7309
 30
0.0
 10
-108.1298
 20
-142.6391
 30
0.0
 10
-108.1298
 20
-142.5093
 30
0.0
  0
SPLINE
  5
67
330
1F
100
AcDbEntity
  8
LAYER_1
100
AcDbSpline
210
0.0
220
0.0
230
1.0
 70
    11
 71
     3
 72
    36
 73
    32
 74
     0
 42
0.0000000001
 43
0.0000000001
 40
0.0
 40
0.0
 40
0.0
 40
0.0
 40
0.125
 40
0.125
 40
0.125
 40
0.125
 40
0.25
 40
0.25
 40
0.25
 40
0.25
 40
0.375
 40
0.375
 40
0.375
 40
0.375
 40
0.5
 40
0.5
 40
0.5
 40
0.5
 40
0.625
 40
0.625
 40
0.625
 40
0.625
 40
0.75
 40
0.75
 40
0.75
 40
0.75
 40
0.875
 40
0.875
 40
0.875
 40
0.875
 40
1.0
 40
1.0
 40
1.0
 40
1.0
 10
-107.8645
 20
-142.5112
 30
0.0
 10
-107.8645
 20
-142.6817
 30
0.0
 10
-107.9012
 20
-142.8132
 30
0.0
 10
-107.9748
 20
-142.9058
 30
0.0
 10
-107.9748
 20
-142.9058
 30
0.0
 10
-108.0482
 20
-142.9983
 30
0.0
 10
-108.1526
 20
-143.0446
 30
0.0
 10
-108.2876
 20
-143.0446
 30
0.0
 10
-108.2876
 20
-143.0446
 30
0.0
 10
-108.4231
 20
-143.0446
 30
0.0
 10
-108.5277
 20
-142.9983
 30
0.0
 10
-108.6011
 20
-142.9058
 30
0.0
 10
-108.6011
 20
-142.9058
 30
0.0
 10
-108.6747
 20
-142.8132
 30
0.0
 10
-108.7114
 20
-142.6817
 30
0.0
 10
-108.7114
 20
-142.5112
 30
0.0
 10
-108.7114
 20
-142.5112
 30
0.0
 10
-108.7114
 20
-142.3405
 30
0.0
 10
-108.6747
 20
-142.2087
 30
0.0
 10
-108.6011
 20
-142.1161
 30
0.0
 10
-108.6011
 20
-142.1161
 30
0.0
 10
-108.5277
 20
-142.0237
 30
0.0
 10
-108.4231
 20
-141.9773
 30
0.0
 10
-108.2876
 20
-141.9773
 30
0.0
 10
-108.2876
 20
-141.9773
 30
0.0
 10
-108.1526
 20
-141.9773
 30
0.0
 10
-108.0482
 20
-142.0237
 30
0.0
 10
-107.9748
 20
-142.1161
 30
0.0
 10
-107.9748
 20
-142.1161
 30
0.0
 10
-107.9012
 20
-142.2087
 30
0.0
 10
-107.8645
 20
-142.3405
 30
0.0
 10
-107.8645
 20
-142.5112
 30
0.0
  0
SPLINE
  5
68
330
1F
100
AcDbEntity
  8
LAYER_1
100
AcDbSpline
210
0.0
220
0.0
230
1.0
 70
    11
 71
     3
 72
    16
 73
    12
 74
     0
 42
0.0000000001
 43
0.0000000001
 40
0.0
 40
0.0
 40
0.0
 40
0.0
 40
0.3333333333333333
 40
0.3333333333333333
 40
0.3333333333333333
 40
0.3333333333333333
 40
0.6666666666666666
 40
0.6666666666666666
 40
0.6666666666666666
 40
0.6666666666666666
 40
1.0
 40
1.0
 40
1.0
 40
1.0
 10
-107.2772
 20
-142.2144
 30
0.0
 10
-107.2772
 20
-142.2144
 30
0.0
 10
-107.5682
 20
-142.645
 30
0.0
 10
-107.5682
 20
-142.645
 30
0.0
 10
-107.5682
 20
-142.645
 30
0.0
 10
-107.5682
 20
-142.645
 30
0.0
 10
-107.2772
 20
-142.645
 30
0.0
 10
-107.2772
 20
-142.645
 30
0.0
 10
-107.2772
 20
-142.645
 30
0.0
 10
-107.2772
 20
-142.645
 30
0.0
 10
-107.2772
 20
-142.2144
 30
0.0
 10
-107.2772
 20
-142.2144
 30
0.0
  0
SPLINE
  5
69
330
1F
100
AcDbEntity
  8
LAYER_1
100
AcDbSpline
210
0.0
220
0.0
230
1.0
 70
    11
 71
     3
 72
    48
 73
    44
 74
     0
 42
0.0000000001
 43
0.0000000001
 40
0.0
 40
0.0
 40
0.0
 40
0.0
 40
0.0909090909090909
 40
0.0909090909090909
 40
0.0909090909090909
 40
0.0909090909090909
 40
0.1818181818181818
 40
0.1818181818181818
 40
0.1818181818181818
 40
0.1818181818181818
 40
0.2727272727272727
 40
0.2727272727272727
 40
0.2727272727272727
 40
0.2727272727272727
 40
0.3636363636363636
 40
0.3636363636363636
 40
0.3636363636363636
 40
0.3636363636363636
 40
0.4545454545454546
 40
0.4545454545454546
 40
0.4545454545454546
 40
0.4545454545454546
 40
0.5454545454545455
 40
0.5454545454545455
 40
0.5454545454545455
 40
0.5454545454545455
 40
0.6363636363636365
 40
0.6363636363636365
 40
0.6363636363636365
 40
0.6363636363636365
 40
0.7272727272727274
 40
0.7272727272727274
 40
0.7272727272727274
 40
0.7272727272727274
 40
0.8181818181818183
 40
0.8181818181818183
 40
0.8181818181818183
 40
0.8181818181818183
 40
0.9090909090909093
 40
0.9090909090909093
 40
0.9090909090909093
 40
0.9090909090909093
 40
1.0
 40
1.0
 40
1.0
 40
1.0
 10
-107.3215
 20
-141.9959
 30
0.0
 10
-107.3215
 20
-141.9959
 30
0.0
 10
-107.0265
 20
-141.9959
 30
0.0
 10
-107.0265
 20
-141.9959
 30
0.0
 10
-107.0265
 20
-141.9959
 30
0.0
 10
-107.0265
 20
-141.9959
 30
0.0
 10
-107.0265
 20
-142.645
 30
0.0
 10
-107.0265
 20
-142.645
 30
0.0
 10
-107.0265
 20
-142.645
 30
0.0
 10
-107.0265
 20
-142.645
 30
0.0
 10
-106.8798
 20
-142.645
 30
0.0
 10
-106.8798
 20
-142.645
 30
0.0
 10
-106.8798
 20
-142.645
 30
0.0
 10
-106.8798
 20
-142.645
 30
0.0
 10
-106.8798
 20
-142.8372
 30
0.0
 10
-106.8798
 20
-142.8372
 30
0.0
 10
-106.8798
 20
-142.8372
 30
0.0
 10
-106.8798
 20
-142.8372
 30
0.0
 10
-107.0265
 20
-142.8372
 30
0.0
 10
-107.0265
 20
-142.8372
 30
0.0
 10
-107.0265
 20
-142.8372
 30
0.0
 10
-107.0265
 20
-142.8372
 30
0.0
 10
-107.0265
 20
-143.0246
 30
0.0
 10
-107.0265
 20
-143.0246
 30
0.0
 10
-107.0265
 20
-143.0246
 30
0.0
 10
-107.0265
 20
-143.0246
 30
0.0
 10
-107.2772
 20
-143.0246
 30
0.0
 10
-107.2772
 20
-143.0246
 30
0.0
 10
-107.2772
 20
-143.0246
 30
0.0
 10
-107.2772
 20
-143.0246
 30
0.0
 10
-107.2772
 20
-142.8372
 30
0.0
 10
-107.2772
 20
-142.8372
 30
0.0
 10
-107.2772
 20
-142.8372
 30
0.0
 10
-107.2772
 20
-142.8372
 30
0.0
 10
-107.7335
 20
-142.8372
 30
0.0
 10
-107.7335
 20
-142.8372
 30
0.0
 10
-107.7335
 20
-142.8372
 30
0.0
 10
-107.7335
 20
-142.8372
 30
0.0
 10
-107.7335
 20
-142.6097
 30
0.0
 10
-107.7335
 20
-142.6097
 30
0.0
 10
-107.7335
 20
-142.6097
 30
0.0
 10
-107.7335
 20
-142.6097
 30
0.0
 10
-107.3215
 20
-141.9959
 30
0.0
 10
-107.3215
 20
-141.9959
 30
0.0
  0
SPLINE
  5
6A
330
1F
100
AcDbEntity
  8
LAYER_1
100
AcDbSpline
210
0.0
220
0.0
230
1.0
 70
    11
 71
     3
 72
    36
 73
    32
 74
     0
 42
0.0000000001
 43
0.0000000001
 40
0.0
 40
0.0
 40
0.0
 40
0.0
 40
0.125
 40
0.125
 40
0.125
 40
0.125
 40
0.25
 40
0.25
 40
0.25
 40
0.25
 40
0.375
 40
0.375
 40
0.375
 40
0.375
 40
0.5
 40
0.5
 40
0.5
 40
0.5
 40
0.625
 40
0.625
 40
0.625
 40
0.625
 40
0.75
 40
0.75
 40
0.75
 40
0.75
 40
0.875
 40
0.875
 40
0.875
 40
0.875
 40
1.0
 40
1.0
 40
1.0
 40
1.0
 10
-106.166
 20
-142.5093
 30
0.0
 10
-106.166
 20
-142.3807
 30
0.0
 10
-106.178
 20
-142.2901
 30
0.0
 10
-106.2022
 20
-142.2374
 30
0.0
 10
-106.2022
 20
-142.2374
 30
0.0
 10
-106.2262
 20
-142.185
 30
0.0
 10
-106.2669
 20
-142.1587
 30
0.0
 10
-106.3238
 20
-142.1587
 30
0.0
 10
-106.3238
 20
-142.1587
 30
0.0
 10
-106.3807
 20
-142.1587
 30
0.0
 10
-106.4214
 20
-142.185
 30
0.0
 10
-106.4459
 20
-142.2374
 30
0.0
 10
-106.4459
 20
-142.2374
 30
0.0
 10
-106.4701
 20
-142.2901
 30
0.0
 10
-106.4823
 20
-142.3807
 30
0.0
 10
-106.4823
 20
-142.5093
 30
0.0
 10
-106.4823
 20
-142.5093
 30
0.0
 10
-106.4823
 20
-142.6391
 30
0.0
 10
-106.4701
 20
-142.7309
 30
0.0
 10
-106.4459
 20
-142.784
 30
0.0
 10
-106.4459
 20
-142.784
 30
0.0
 10
-106.4214
 20
-142.8374
 30
0.0
 10
-106.3807
 20
-142.864
 30
0.0
 10
-106.3238
 20
-142.864
 30
0.0
 10
-106.3238
 20
-142.864
 30
0.0
 10
-106.2674
 20
-142.864
 30
0.0
 10
-106.2269
 20
-142.8374
 30
0.0
 10
-106.2024
 20
-142.784
 30
0.0
 10
-106.2024
 20
-142.784
 30
0.0
 10
-106.1782
 20
-142.7309
 30
0.0
 10
-106.166
 20
-142.6391
 30
0.0
 10
-106.166
 20
-142.5093
 30
0.0
  0
SPLINE
  5
6B
330
1F
100
AcDbEntity
  8
LAYER_1
100
AcDbSpline
210
0.0
220
0.0
230
1.0
 70
    11
 71
     3
 72
    36
 73
    32
 74
     0
 42
0.0000000001
 43
0.0000000001
 40
0.0
 40
0.0
 40
0.0
 40
0.0
 40
0.125
 40
0.125
 40
0.125
 40
0.125
 40
0.25
 40
0.25
 40
0.25
 40
0.25
 40
0.375
 40
0.375
 40
0.375
 40
0.375
 40
0.5
 40
0.5
 40
0.5
 40
0.5
 40
0.625
 40
0.625
 40
0.625
 40
0.625
 40
0.75
 40
0.75
 40
0.75
 40
0.75
 40
0.875
 40
0.875
 40
0.875
 40
0.875
 40
1.0
 40
1.0
 40
1.0
 40
1.0
 10
-105.9007
 20
-142.5112
 30
0.0
 10
-105.9007
 20
-142.6817
 30
0.0
 10
-105.9374
 20
-142.8132
 30
0.0
 10
-106.011
 20
-142.9058
 30
0.0
 10
-106.011
 20
-142.9058
 30
0.0
 10
-106.0844
 20
-142.9983
 30
0.0
 10
-106.1888
 20
-143.0446
 30
0.0
 10
-106.3238
 20
-143.0446
 30
0.0
 10
-106.3238
 20
-143.0446
 30
0.0
 10
-106.4593
 20
-143.0446
 30
0.0
 10
-106.5639
 20
-142.9983
 30
0.0
 10
-106.6373
 20
-142.9058
 30
0.0
 10
-106.6373
 20
-142.9058
 30
0.0
 10
-106.7109
 20
-142.8132
 30
0.0
 10
-106.7476
 20
-142.6817
 30
0.0
 10
-106.7476
 20
-142.5112
 30
0.0
 10
-106.7476
 20
-142.5112
 30
0.0
 10
-106.7476
 20
-142.3405
 30
0.0
 10
-106.7109
 20
-142.2087
 30
0.0
 10
-106.6373
 20
-142.1161
 30
0.0
 10
-106.6373
 20
-142.1161
 30
0.0
 10
-106.5639
 20
-142.0237
 30
0.0
 10
-106.4593
 20
-141.9773
 30
0.0
 10
-106.3238
 20
-141.9773
 30
0.0
 10
-106.3238
 20
-141.9773
 30
0.0
 10
-106.1888
 20
-141.9773
 30
0.0
 10
-106.0844
 20
-142.0237
 30
0.0
 10
-106.011
 20
-142.1161
 30
0.0
 10
-106.011
 20
-142.1161
 30
0.0
 10
-105.9374
 20
-142.2087
 30
0.0
 10
-105.9007
 20
-142.3405
 30
0.0
 10
-105.9007
 20
-142.5112
 30
0.0
  0
SPLINE
  5
6C
330
1F
100
AcDbEntity
  8
LAYER_1
100
AcDbSpline
210
0.0
220
0.0
230
1.0
 70
    11
 71
     3
 72
    80
 73
    76
 74
     0
 42
0.0000000001
 43
0.0000000001
 40
0.0
 40
0.0
 40
0.0
 40
0.0
 40
0.0526315789473684
 40
0.0526315789473684
 40
0.0526315789473684
 40
0.0526315789473684
 40
0.1052631578947368
 40
0.1052631578947368
 40
0.1052631578947368
 40
0.1052631578947368
 40
0.1578947368421053
 40
0.1578947368421053
 40
0.1578947368421053
 40
0.1578947368421053
 40
0.2105263157894737
 40
0.2105263157894737
 40
0.2105263157894737
 40
0.2105263157894737
 40
0.2631578947368421
 40
0.2631578947368421
 40
0.2631578947368421
 40
0.2631578947368421
 40
0.3157894736842105
 40
0.3157894736842105
 40
0.3157894736842105
 40
0.3157894736842105
 40
0.3684210526315789
 40
0.3684210526315789
 40
0.3684210526315789
 40
0.3684210526315789
 40
0.4210526315789473
 40
0.4210526315789473
 40
0.4210526315789473
 40
0.4210526315789473
 40
0.4736842105263158
 40
0.4736842105263158
 40
0.4736842105263158
 40
0.4736842105263158
 40
0.5263157894736842
 40
0.5263157894736842
 40
0.5263157894736842
 40
0.5263157894736842
 40
0.5789473684210527
 40
0.5789473684210527
 40
0.5789473684210527
 40
0.5789473684210527
 40
0.631578947368421
 40
0.631578947368421
 40
0.631578947368421
 40
0.631578947368421
 40
0.6842105263157894
 40
0.6842105263157894
 40
0.6842105263157894
 40
0.6842105263157894
 40
0.7368421052631577
 40
0.7368421052631577
 40
0.7368421052631577
 40
0.7368421052631577
 40
0.7894736842105261
 40
0.7894736842105261
 40
0.7894736842105261
 40
0.7894736842105261
 40
0.8421052631578945
 40
0.8421052631578945
 40
0.8421052631578945
 40
0.8421052631578945
 40
0.8947368421052628
 40
0.8947368421052628
 40
0.8947368421052628
 40
0.8947368421052628
 40
0.9473684210526312
 40
0.9473684210526312
 40
0.9473684210526312
 40
0.9473684210526312
 40
1.0
 40
1.0
 40
1.0
 40
1.0
 10
-105.4266
 20
-142.8296
 30
0.0
 10
-105.4266
 20
-142.8296
 30
0.0
 10
-104.9738
 20
-142.8296
 30
0.0
 10
-104.9738
 20
-142.8296
 30
0.0
 10
-104.9738
 20
-142.8296
 30
0.0
 10
-104.9738
 20
-142.8296
 30
0.0
 10
-104.9738
 20
-143.0246
 30
0.0
 10
-104.9738
 20
-143.0246
 30
0.0
 10
-104.9738
 20
-143.0246
 30
0.0
 10
-104.9738
 20
-143.0246
 30
0.0
 10
-105.7215
 20
-143.0246
 30
0.0
 10
-105.7215
 20
-143.0246
 30
0.0
 10
-105.7215
 20
-143.0246
 30
0.0
 10
-105.7215
 20
-143.0246
 30
0.0
 10
-105.7215
 20
-142.8296
 30
0.0
 10
-105.7215
 20
-142.8296
 30
0.0
 10
-105.7215
 20
-142.8296
 30
0.0
 10
-105.7215
 20
-142.8296
 30
0.0
 10
-105.3459
 20
-142.4983
 30
0.0
 10
-105.3459
 20
-142.4983
 30
0.0
 10
-105.3459
 20
-142.4983
 30
0.0
 10
-105.3123
 20
-142.4679
 30
0.0
 10
-105.2876
 20
-142.4383
 30
0.0
 10
-105.2716
 20
-142.4094
 30
0.0
 10
-105.2716
 20
-142.4094
 30
0.0
 10
-105.2554
 20
-142.3804
 30
0.0
 10
-105.2474
 20
-142.3503
 30
0.0
 10
-105.2474
 20
-142.319
 30
0.0
 10
-105.2474
 20
-142.319
 30
0.0
 10
-105.2474
 20
-142.2708
 30
0.0
 10
-105.2636
 20
-142.232
 30
0.0
 10
-105.296
 20
-142.2026
 30
0.0
 10
-105.296
 20
-142.2026
 30
0.0
 10
-105.3283
 20
-142.1732
 30
0.0
 10
-105.3713
 20
-142.1587
 30
0.0
 10
-105.4252
 20
-142.1587
 30
0.0
 10
-105.4252
 20
-142.1587
 30
0.0
 10
-105.4665
 20
-142.1587
 30
0.0
 10
-105.5117
 20
-142.1676
 30
0.0
 10
-105.5609
 20
-142.1852
 30
0.0
 10
-105.5609
 20
-142.1852
 30
0.0
 10
-105.61
 20
-142.2029
 30
0.0
 10
-105.6627
 20
-142.2292
 30
0.0
 10
-105.7187
 20
-142.264
 30
0.0
 10
-105.7187
 20
-142.264
 30
0.0
 10
-105.7187
 20
-142.264
 30
0.0
 10
-105.7187
 20
-142.038
 30
0.0
 10
-105.7187
 20
-142.038
 30
0.0
 10
-105.7187
 20
-142.038
 30
0.0
 10
-105.6589
 20
-142.0183
 30
0.0
 10
-105.5999
 20
-142.0032
 30
0.0
 10
-105.5416
 20
-141.9929
 30
0.0
 10
-105.5416
 20
-141.9929
 30
0.0
 10
-105.4832
 20
-141.9825
 30
0.0
 10
-105.4261
 20
-141.9773
 30
0.0
 10
-105.3699
 20
-141.9773
 30
0.0
 10
-105.3699
 20
-141.9773
 30
0.0
 10
-105.2469
 20
-141.9773
 30
0.0
 10
-105.1512
 20
-142.0044
 30
0.0
 10
-105.083
 20
-142.0587
 30
0.0
 10
-105.083
 20
-142.0587
 30
0.0
 10
-105.0148
 20
-142.1128
 30
0.0
 10
-104.9807
 20
-142.1883
 30
0.0
 10
-104.9807
 20
-142.2854
 30
0.0
 10
-104.9807
 20
-142.2854
 30
0.0
 10
-104.9807
 20
-142.3414
 30
0.0
 10
-104.9952
 20
-142.3936
 30
0.0
 10
-105.0242
 20
-142.4421
 30
0.0
 10
-105.0242
 20
-142.4421
 30
0.0
 10
-105.0531
 20
-142.4905
 30
0.0
 10
-105.114
 20
-142.5554
 30
0.0
 10
-105.2067
 20
-142.6368
 30
0.0
 10
-105.2067
 20
-142.6368
 30
0.0
 10
-105.2067
 20
-142.6368
 30
0.0
 10
-105.4266
 20
-142.8296
 30
0.0
 10
-105.4266
 20
-142.8296
 30
0.0
  0
SPLINE
  5
6D
330
1F
100
AcDbEntity
  8
LAYER_1
100
AcDbSpline
210
0.0
220
0.0
230
1.0
 70
    11
 71
     3
 72
    44
 73
    40
 74
     0
 42
0.0000000001
 43
0.0000000001
 40
0.0
 40
0.0
 40
0.0
 40
0.0
 40
0.1
 40
0.1
 40
0.1
 40
0.1
 40
0.2
 40
0.2
 40
0.2
 40
0.2
 40
0.3
 40
0.3
 40
0.3
 40
0.3
 40
0.4
 40
0.4
 40
0.4
 40
0.4
 40
0.5
 40
0.5
 40
0.5
 40
0.5
 40
0.6
 40
0.6
 40
0.6
 40
0.6
 40
0.7
 40
0.7
 40
0.7
 40
0.7
 40
0.7999999999999999
 40
0.7999999999999999
 40
0.7999999999999999
 40
0.7999999999999999
 40
0.8999999999999999
 40
0.8999999999999999
 40
0.8999999999999999
 40
0.8999999999999999
 40
1.0
 40
1.0
 40
1.0
 40
1.0
 10
-104.7384
 20
-143.2106
 30
0.0
 10
-104.6796
 20
-143.1013
 30
0.0
 10
-104.6354
 20
-142.9945
 30
0.0
 10
-104.606
 20
-142.8903
 30
0.0
 10
-104.606
 20
-142.8903
 30
0.0
 10
-104.5766
 20
-142.7859
 30
0.0
 10
-104.562
 20
-142.6831
 30
0.0
 10
-104.562
 20
-142.5815
 30
0.0
 10
-104.562
 20
-142.5815
 30
0.0
 10
-104.562
 20
-142.4799
 30
0.0
 10
-104.5766
 20
-142.3771
 30
0.0
 10
-104.606
 20
-142.2732
 30
0.0
 10
-104.606
 20
-142.2732
 30
0.0
 10
-104.6354
 20
-142.1692
 30
0.0
 10
-104.6796
 20
-142.0627
 30
0.0
 10
-104.7384
 20
-141.9538
 30
0.0
 10
-104.7384
 20
-141.9538
 30
0.0
 10
-104.7384
 20
-141.9538
 30
0.0
 10
-104.5338
 20
-141.9538
 30
0.0
 10
-104.5338
 20
-141.9538
 30
0.0
 10
-104.5338
 20
-141.9538
 30
0.0
 10
-104.464
 20
-142.0665
 30
0.0
 10
-104.4122
 20
-142.1742
 30
0.0
 10
-104.3783
 20
-142.2774
 30
0.0
 10
-104.3783
 20
-142.2774
 30
0.0
 10
-104.3447
 20
-142.3804
 30
0.0
 10
-104.3278
 20
-142.4823
 30
0.0
 10
-104.3278
 20
-142.5829
 30
0.0
 10
-104.3278
 20
-142.5829
 30
0.0
 10
-104.3278
 20
-142.6836
 30
0.0
 10
-104.3445
 20
-142.7849
 30
0.0
 10
-104.3781
 20
-142.887
 30
0.0
 10
-104.3781
 20
-142.887
 30
0.0
 10
-104.4115
 20
-142.9893
 30
0.0
 10
-104.4635
 20
-143.0973
 30
0.0
 10
-104.5338
 20
-143.2106
 30
0.0
 10
-104.5338
 20
-143.2106
 30
0.0
 10
-104.5338
 20
-143.2106
 30
0.0
 10
-104.7384
 20
-143.2106
 30
0.0
 10
-104.7384
 20
-143.2106
 30
0.0
  0
SPLINE
  5
6E
330
1F
100
AcDbEntity
  8
LAYER_1
100
AcDbSpline
210
0.0
220
0.0
230
1.0
 70
    11
 71
     3
 72
    48
 73
    44
 74
     0
 42
0.0000000001
 43
0.0000000001
 40
0.0
 40
0.0
 40
0.0
 40
0.0
 40
0.0909090909090909
 40
0.0909090909090909
 40
0.0909090909090909
 40
0.0909090909090909
 40
0.1818181818181818
 40
0.1818181818181818
 40
0.1818181818181818
 40
0.1818181818181818
 40
0.2727272727272727
 40
0.2727272727272727
 40
0.2727272727272727
 40
0.2727272727272727
 40
0.3636363636363636
 40
0.3636363636363636
 40
0.3636363636363636
 40
0.3636363636363636
 40
0.4545454545454546
 40
0.4545454545454546
 40
0.4545454545454546
 40
0.4545454545454546
 40
0.5454545454545455
 40
0.5454545454545455
 40
0.5454545454545455
 40
0.5454545454545455
 40
0.6363636363636365
 40
0.6363636363636365
 40
0.6363636363636365
 40
0.6363636363636365
 40
0.7272727272727274
 40
0.7272727272727274
 40
0.7272727272727274
 40
0.7272727272727274
 40
0.8181818181818183
 40
0.8181818181818183
 40
0.8181818181818183
 40
0.8181818181818183
 40
0.9090909090909093
 40
0.9090909090909093
 40
0.9090909090909093
 40
0.9090909090909093
 40
1.0
 40
1.0
 40
1.0
 40
1.0
 10
-103.5498
 20
-142.8414
 30
0.0
 10
-103.5498
 20
-142.8414
 30
0.0
 10
-103.3155
 20
-142.8414
 30
0.0
 10
-103.3155
 20
-142.8414
 30
0.0
 10
-103.3155
 20
-142.8414
 30
0.0
 10
-103.3155
 20
-142.8414
 30
0.0
 10
-103.3155
 20
-142.1765
 30
0.0
 10
-103.3155
 20
-142.1765
 30
0.0
 10
-103.3155
 20
-142.1765
 30
0.0
 10
-103.3155
 20
-142.1765
 30
0.0
 10
-103.5559
 20
-142.2262
 30
0.0
 10
-103.5559
 20
-142.2262
 30
0.0
 10
-103.5559
 20
-142.2262
 30
0.0
 10
-103.5559
 20
-142.2262
 30
0.0
 10
-103.5559
 20
-142.0455
 30
0.0
 10
-103.5559
 20
-142.0455
 30
0.0
 10
-103.5559
 20
-142.0455
 30
0.0
 10
-103.5559
 20
-142.0455
 30
0.0
 10
-103.3169
 20
-141.9959
 30
0.0
 10
-103.3169
 20
-141.9959
 30
0.0
 10
-103.3169
 20
-141.9959
 30
0.0
 10
-103.3169
 20
-141.9959
 30
0.0
 10
-103.0648
 20
-141.9959
 30
0.0
 10
-103.0648
 20
-141.9959
 30
0.0
 10
-103.0648
 20
-141.9959
 30
0.0
 10
-103.0648
 20
-141.9959
 30
0.0
 10
-103.0648
 20
-142.8414
 30
0.0
 10
-103.0648
 20
-142.8414
 30
0.0
 10
-103.0648
 20
-142.8414
 30
0.0
 10
-103.0648
 20
-142.8414
 30
0.0
 10
-102.8306
 20
-142.8414
 30
0.0
 10
-102.8306
 20
-142.8414
 30
0.0
 10
-102.8306
 20
-142.8414
 30
0.0
 10
-102.8306
 20
-142.8414
 30
0.0
 10
-102.8306
 20
-143.0246
 30
0.0
 10
-102.8306
 20
-143.0246
 30
0.0
 10
-102.8306
 20
-143.0246
 30
0.0
 10
-102.8306
 20
-143.0246
 30
0.0
 10
-103.5498
 20
-143.0246
 30
0.0
 10
-103.5498
 20
-143.0246
 30
0.0
 10
-103.5498
 20
-143.0246
 30
0.0
 10
-103.5498
 20
-143.0246
 30
0.0
 10
-103.5498
 20
-142.8414
 30
0.0
 10
-103.5498
 20
-142.8414
 30
0.0
  0
SPLINE
  5
6F
330
1F
100
AcDbEntity
  8
LAYER_1
100
AcDbSpline
210
0.0
220
0.0
230
1.0
 70
    11
 71
     3
 72
    36
 73
    32
 74
     0
 42
0.0000000001
 43
0.0000000001
 40
0.0
 40
0.0
 40
0.0
 40
0.0
 40
0.125
 40
0.125
 40
0.125
 40
0.125
 40
0.25
 40
0.25
 40
0.25
 40
0.25
 40
0.375
 40
0.375
 40
0.375
 40
0.375
 40
0.5
 40
0.5
 40
0.5
 40
0.5
 40
0.625
 40
0.625
 40
0.625
 40
0.625
 40
0.75
 40
0.75
 40
0.75
 40
0.75
 40
0.875
 40
0.875
 40
0.875
 40
0.875
 40
1.0
 40
1.0
 40
1.0
 40
1.0
 10
-102.0841
 20
-142.5093
 30
0.0
 10
-102.0841
 20
-142.3807
 30
0.0
 10
-102.0961
 20
-142.2901
 30
0.0
 10
-102.1203
 20
-142.2374
 30
0.0
 10
-102.1203
 20
-142.2374
 30
0.0
 10
-102.1443
 20
-142.185
 30
0.0
 10
-102.185
 20
-142.1587
 30
0.0
 10
-102.2419
 20
-142.1587
 30
0.0
 10
-102.2419
 20
-142.1587
 30
0.0
 10
-102.2988
 20
-142.1587
 30
0.0
 10
-102.3395
 20
-142.185
 30
0.0
 10
-102.364
 20
-142.2374
 30
0.0
 10
-102.364
 20
-142.2374
 30
0.0
 10
-102.3882
 20
-142.2901
 30
0.0
 10
-102.4004
 20
-142.3807
 30
0.0
 10
-102.4004
 20
-142.5093
 30
0.0
 10
-102.4004
 20
-142.5093
 30
0.0
 10
-102.4004
 20
-142.6391
 30
0.0
 10
-102.3882
 20
-142.7309
 30
0.0
 10
-102.364
 20
-142.784
 30
0.0
 10
-102.364
 20
-142.784
 30
0.0
 10
-102.3395
 20
-142.8374
 30
0.0
 10
-102.2988
 20
-142.864
 30
0.0
 10
-102.2419
 20
-142.864
 30
0.0
 10
-102.2419
 20
-142.864
 30
0.0
 10
-102.1855
 20
-142.864
 30
0.0
 10
-102.145
 20
-142.8374
 30
0.0
 10
-102.1205
 20
-142.784
 30
0.0
 10
-102.1205
 20
-142.784
 30
0.0
 10
-102.0963
 20
-142.7309
 30
0.0
 10
-102.0841
 20
-142.6391
 30
0.0
 10
-102.0841
 20
-142.5093
 30
0.0
  0
SPLINE
  5
70
330
1F
100
AcDbEntity
  8
LAYER_1
100
AcDbSpline
210
0.0
220
0.0
230
1.0
 70
    11
 71
     3
 72
    36
 73
    32
 74
     0
 42
0.0000000001
 43
0.0000000001
 40
0.0
 40
0.0
 40
0.0
 40
0.0
 40
0.125
 40
0.125
 40
0.125
 40
0.125
 40
0.25
 40
0.25
 40
0.25
 40
0.25
 40
0.375
 40
0.375
 40
0.375
 40
0.375
 40
0.5
 40
0.5
 40
0.5
 40
0.5
 40
0.625
 40
0.625
 40
0.625
 40
0.625
 40
0.75
 40
0.75
 40
0.75
 40
0.75
 40
0.875
 40
0.875
 40
0.875
 40
0.875
 40
1.0
 40
1.0
 40
1.0
 40
1.0
 10
-101.8188
 20
-142.5112
 30
0.0
 10
-101.8188
 20
-142.6817
 30
0.0
 10
-101.8555
 20
-142.8132
 30
0.0
 10
-101.9291
 20
-142.9058
 30
0.0
 10
-101.9291
 20
-142.9058
 30
0.0
 10
-102.0025
 20
-142.9983
 30
0.0
 10
-102.1069
 20
-143.0446
 30
0.0
 10
-102.2419
 20
-143.0446
 30
0.0
 10
-102.2419
 20
-143.0446
 30
0.0
 10
-102.3774
 20
-143.0446
 30
0.0
 10
-102.482
 20
-142.9983
 30
0.0
 10
-102.5554
 20
-142.9058
 30
0.0
 10
-102.5554
 20
-142.9058
 30
0.0
 10
-102.629
 20
-142.8132
 30
0.0
 10
-102.6657
 20
-142.6817
 30
0.0
 10
-102.6657
 20
-142.5112
 30
0.0
 10
-102.6657
 20
-142.5112
 30
0.0
 10
-102.6657
 20
-142.3405
 30
0.0
 10
-102.629
 20
-142.2087
 30
0.0
 10
-102.5554
 20
-142.1161
 30
0.0
 10
-102.5554
 20
-142.1161
 30
0.0
 10
-102.482
 20
-142.0237
 30
0.0
 10
-102.3774
 20
-141.9773
 30
0.0
 10
-102.2419
 20
-141.9773
 30
0.0
 10
-102.2419
 20
-141.9773
 30
0.0
 10
-102.1069
 20
-141.9773
 30
0.0
 10
-102.0025
 20
-142.0237
 30
0.0
 10
-101.9291
 20
-142.1161
 30
0.0
 10
-101.9291
 20
-142.1161
 30
0.0
 10
-101.8555
 20
-142.2087
 30
0.0
 10
-101.8188
 20
-142.3405
 30
0.0
 10
-101.8188
 20
-142.5112
 30
0.0
  0
SPLINE
  5
71
330
1F
100
AcDbEntity
  8
LAYER_1
100
AcDbSpline
210
0.0
220
0.0
230
1.0
 70
    11
 71
     3
 72
    36
 73
    32
 74
     0
 42
0.0000000001
 43
0.0000000001
 40
0.0
 40
0.0
 40
0.0
 40
0.0
 40
0.125
 40
0.125
 40
0.125
 40
0.125
 40
0.25
 40
0.25
 40
0.25
 40
0.25
 40
0.375
 40
0.375
 40
0.375
 40
0.375
 40
0.5
 40
0.5
 40
0.5
 40
0.5
 40
0.625
 40
0.625
 40
0.625
 40
0.625
 40
0.75
 40
0.75
 40
0.75
 40
0.75
 40
0.875
 40
0.875
 40
0.875
 40
0.875
 40
1.0
 40
1.0
 40
1.0
 40
1.0
 10
-101.1022
 20
-142.5093
 30
0.0
 10
-101.1022
 20
-142.3807
 30
0.0
 10
-101.1142
 20
-142.2901
 30
0.0
 10
-101.1384
 20
-142.2374
 30
0.0
 10
-101.1384
 20
-142.2374
 30
0.0
 10
-101.1624
 20
-142.185
 30
0.0
 10
-101.2031
 20
-142.1587
 30
0.0
 10
-101.26
 20
-142.1587
 30
0.0
 10
-101.26
 20
-142.1587
 30
0.0
 10
-101.3169
 20
-142.1587
 30
0.0
 10
-101.3576
 20
-142.185
 30
0.0
 10
-101.3821
 20
-142.2374
 30
0.0
 10
-101.3821
 20
-142.2374
 30
0.0
 10
-101.4063
 20
-142.2901
 30
0.0
 10
-101.4185
 20
-142.3807
 30
0.0
 10
-101.4185
 20
-142.5093
 30
0.0
 10
-101.4185
 20
-142.5093
 30
0.0
 10
-101.4185
 20
-142.6391
 30
0.0
 10
-101.4063
 20
-142.7309
 30
0.0
 10
-101.3821
 20
-142.784
 30
0.0
 10
-101.3821
 20
-142.784
 30
0.0
 10
-101.3576
 20
-142.8374
 30
0.0
 10
-101.3169
 20
-142.864
 30
0.0
 10
-101.26
 20
-142.864
 30
0.0
 10
-101.26
 20
-142.864
 30
0.0
 10
-101.2036
 20
-142.864
 30
0.0
 10
-101.1631
 20
-142.8374
 30
0.0
 10
-101.1386
 20
-142.784
 30
0.0
 10
-101.1386
 20
-142.784
 30
0.0
 10
-101.1144
 20
-142.7309
 30
0.0
 10
-101.1022
 20
-142.6391
 30
0.0
 10
-101.1022
 20
-142.5093
 30
0.0
  0
SPLINE
  5
72
330
1F
100
AcDbEntity
  8
LAYER_1
100
AcDbSpline
210
0.0
220
0.0
230
1.0
 70
    11
 71
     3
 72
    36
 73
    32
 74
     0
 42
0.0000000001
 43
0.0000000001
 40
0.0
 40
0.0
 40
0.0
 40
0.0
 40
0.125
 40
0.125
 40
0.125
 40
0.125
 40
0.25
 40
0.25
 40
0.25
 40
0.25
 40
0.375
 40
0.375
 40
0.375
 40
0.375
 40
0.5
 40
0.5
 40
0.5
 40
0.5
 40
0.625
 40
0.625
 40
0.625
 40
0.625
 40
0.75
 40
0.75
 40
0.75
 40
0.75
 40
0.875
 40
0.875
 40
0.875
 40
0.875
 40
1.0
 40
1.0
 40
1.0
 40
1.0
 10
-100.8369
 20
-142.5112
 30
0.0
 10
-100.8369
 20
-142.6817
 30
0.0
 10
-100.8736
 20
-142.8132
 30
0.0
 10
-100.9472
 20
-142.9058
 30
0.0
 10
-100.9472
 20
-142.9058
 30
0.0
 10
-101.0206
 20
-142.9983
 30
0.0
 10
-101.125
 20
-143.0446
 30
0.0
 10
-101.26
 20
-143.0446
 30
0.0
 10
-101.26
 20
-143.0446
 30
0.0
 10
-101.3955
 20
-143.0446
 30
0.0
 10
-101.5001
 20
-142.9983
 30
0.0
 10
-101.5735
 20
-142.9058
 30
0.0
 10
-101.5735
 20
-142.9058
 30
0.0
 10
-101.6471
 20
-142.8132
 30
0.0
 10
-101.6838
 20
-142.6817
 30
0.0
 10
-101.6838
 20
-142.5112
 30
0.0
 10
-101.6838
 20
-142.5112
 30
0.0
 10
-101.6838
 20
-142.3405
 30
0.0
 10
-101.6471
 20
-142.2087
 30
0.0
 10
-101.5735
 20
-142.1161
 30
0.0
 10
-101.5735
 20
-142.1161
 30
0.0
 10
-101.5001
 20
-142.0237
 30
0.0
 10
-101.3955
 20
-141.9773
 30
0.0
 10
-101.26
 20
-141.9773
 30
0.0
 10
-101.26
 20
-141.9773
 30
0.0
 10
-101.125
 20
-141.9773
 30
0.0
 10
-101.0206
 20
-142.0237
 30
0.0
 10
-100.9472
 20
-142.1161
 30
0.0
 10
-100.9472
 20
-142.1161
 30
0.0
 10
-100.8736
 20
-142.2087
 30
0.0
 10
-100.8369
 20
-142.3405
 30
0.0
 10
-100.8369
 20
-142.5112
 30
0.0
  0
SPLINE
  5
73
330
1F
100
AcDbEntity
  8
LAYER_1
100
AcDbSpline
210
0.0
220
0.0
230
1.0
 70
    11
 71
     3
 72
    36
 73
    32
 74
     0
 42
0.0000000001
 43
0.0000000001
 40
0.0
 40
0.0
 40
0.0
 40
0.0
 40
0.125
 40
0.125
 40
0.125
 40
0.125
 40
0.25
 40
0.25
 40
0.25
 40
0.25
 40
0.375
 40
0.375
 40
0.375
 40
0.375
 40
0.5
 40
0.5
 40
0.5
 40
0.5
 40
0.625
 40
0.625
 40
0.625
 40
0.625
 40
0.75
 40
0.75
 40
0.75
 40
0.75
 40
0.875
 40
0.875
 40
0.875
 40
0.875
 40
1.0
 40
1.0
 40
1.0
 40
1.0
 10
-99.6786
 20
-142.1695
 30
0.0
 10
-99.7595
 20
-142.1695
 30
0.0
 10
-99.8221
 20
-142.1993
 30
0.0
 10
-99.8668
 20
-142.2591
 30
0.0
 10
-99.8668
 20
-142.2591
 30
0.0
 10
-99.9112
 20
-142.3188
 30
0.0
 10
-99.9336
 20
-142.4028
 30
0.0
 10
-99.9336
 20
-142.5112
 30
0.0
 10
-99.9336
 20
-142.5112
 30
0.0
 10
-99.9336
 20
-142.6194
 30
0.0
 10
-99.9112
 20
-142.7031
 30
0.0
 10
-99.8668
 20
-142.7628
 30
0.0
 10
-99.8668
 20
-142.7628
 30
0.0
 10
-99.8221
 20
-142.8226
 30
0.0
 10
-99.7595
 20
-142.8524
 30
0.0
 10
-99.6786
 20
-142.8524
 30
0.0
 10
-99.6786
 20
-142.8524
 30
0.0
 10
-99.5972
 20
-142.8524
 30
0.0
 10
-99.5345
 20
-142.8226
 30
0.0
 10
-99.4898
 20
-142.7628
 30
0.0
 10
-99.4898
 20
-142.7628
 30
0.0
 10
-99.4453
 20
-142.7031
 30
0.0
 10
-99.423
 20
-142.6194
 30
0.0
 10
-99.423
 20
-142.5112
 30
0.0
 10
-99.423
 20
-142.5112
 30
0.0
 10
-99.423
 20
-142.4028
 30
0.0
 10
-99.4453
 20
-142.3188
 30
0.0
 10
-99.4898
 20
-142.2591
 30
0.0
 10
-99.4898
 20
-142.2591
 30
0.0
 10
-99.5345
 20
-142.1993
 30
0.0
 10
-99.5972
 20
-142.1695
 30
0.0
 10
-99.6786
 20
-142.1695
 30
0.0
  0
SPLINE
  5
74
330
1F
100
AcDbEntity
  8
LAYER_1
100
AcDbSpline
210
0.0
220
0.0
230
1.0
 70
    11
 71
     3
 72
    36
 73
    32
 74
     0
 42
0.0000000001
 43
0.0000000001
 40
0.0
 40
0.0
 40
0.0
 40
0.0
 40
0.125
 40
0.125
 40
0.125
 40
0.125
 40
0.25
 40
0.25
 40
0.25
 40
0.25
 40
0.375
 40
0.375
 40
0.375
 40
0.375
 40
0.5
 40
0.5
 40
0.5
 40
0.5
 40
0.625
 40
0.625
 40
0.625
 40
0.625
 40
0.75
 40
0.75
 40
0.75
 40
0.75
 40
0.875
 40
0.875
 40
0.875
 40
0.875
 40
1.0
 40
1.0
 40
1.0
 40
1.0
 10
-99.6786
 20
-141.9773
 30
0.0
 10
-99.5133
 20
-141.9773
 30
0.0
 10
-99.3837
 20
-142.0246
 30
0.0
 10
-99.2901
 20
-142.1194
 30
0.0
 10
-99.2901
 20
-142.1194
 30
0.0
 10
-99.1963
 20
-142.2139
 30
0.0
 10
-99.1495
 20
-142.3444
 30
0.0
 10
-99.1495
 20
-142.5112
 30
0.0
 10
-99.1495
 20
-142.5112
 30
0.0
 10
-99.1495
 20
-142.6775
 30
0.0
 10
-99.1963
 20
-142.808
 30
0.0
 10
-99.2901
 20
-142.9025
 30
0.0
 10
-99.2901
 20
-142.9025
 30
0.0
 10
-99.3837
 20
-142.9973
 30
0.0
 10
-99.5133
 20
-143.0446
 30
0.0
 10
-99.6786
 20
-143.0446
 30
0.0
 10
-99.6786
 20
-143.0446
 30
0.0
 10
-99.8435
 20
-143.0446
 30
0.0
 10
-99.9728
 20
-142.9973
 30
0.0
 10
-100.0669
 20
-142.9025
 30
0.0
 10
-100.0669
 20
-142.9025
 30
0.0
 10
-100.1607
 20
-142.808
 30
0.0
 10
-100.2078
 20
-142.6775
 30
0.0
 10
-100.2078
 20
-142.5112
 30
0.0
 10
-100.2078
 20
-142.5112
 30
0.0
 10
-100.2078
 20
-142.3444
 30
0.0
 10
-100.1607
 20
-142.2139
 30
0.0
 10
-100.0669
 20
-142.1194
 30
0.0
 10
-100.0669
 20
-142.1194
 30
0.0
 10
-99.9728
 20
-142.0246
 30
0.0
 10
-99.8435
 20
-141.9773
 30
0.0
 10
-99.6786
 20
-141.9773
 30
0.0
  0
SPLINE
  5
75
330
1F
100
AcDbEntity
  8
LAYER_1
100
AcDbSpline
210
0.0
220
0.0
230
1.0
 70
    11
 71
     3
 72
    52
 73
    48
 74
     0
 42
0.0000000001
 43
0.0000000001
 40
0.0
 40
0.0
 40
0.0
 40
0.0
 40
0.0833333333333333
 40
0.0833333333333333
 40
0.0833333333333333
 40
0.0833333333333333
 40
0.1666666666666667
 40
0.1666666666666667
 40
0.1666666666666667
 40
0.1666666666666667
 40
0.25
 40
0.25
 40
0.25
 40
0.25
 40
0.3333333333333333
 40
0.3333333333333333
 40
0.3333333333333333
 40
0.3333333333333333
 40
0.4166666666666666
 40
0.4166666666666666
 40
0.4166666666666666
 40
0.4166666666666666
 40
0.4999999999999999
 40
0.4999999999999999
 40
0.4999999999999999
 40
0.4999999999999999
 40
0.5833333333333333
 40
0.5833333333333333
 40
0.5833333333333333
 40
0.5833333333333333
 40
0.6666666666666666
 40
0.6666666666666666
 40
0.6666666666666666
 40
0.6666666666666666
 40
0.75
 40
0.75
 40
0.75
 40
0.75
 40
0.8333333333333334
 40
0.8333333333333334
 40
0.8333333333333334
 40
0.8333333333333334
 40
0.9166666666666667
 40
0.9166666666666667
 40
0.9166666666666667
 40
0.9166666666666667
 40
1.0
 40
1.0
 40
1.0
 40
1.0
 10
-98.9488
 20
-141.9959
 30
0.0
 10
-98.9488
 20
-141.9959
 30
0.0
 10
-98.6835
 20
-141.9959
 30
0.0
 10
-98.6835
 20
-141.9959
 30
0.0
 10
-98.6835
 20
-141.9959
 30
0.0
 10
-98.6835
 20
-141.9959
 30
0.0
 10
-98.6835
 20
-142.388
 30
0.0
 10
-98.6835
 20
-142.388
 30
0.0
 10
-98.6835
 20
-142.388
 30
0.0
 10
-98.6835
 20
-142.388
 30
0.0
 10
-98.2922
 20
-142.388
 30
0.0
 10
-98.2922
 20
-142.388
 30
0.0
 10
-98.2922
 20
-142.388
 30
0.0
 10
-98.2922
 20
-142.388
 30
0.0
 10
-98.2922
 20
-141.9959
 30
0.0
 10
-98.2922
 20
-141.9959
 30
0.0
 10
-98.2922
 20
-141.9959
 30
0.0
 10
-98.2922
 20
-141.9959
 30
0.0
 10
-98.0269
 20
-141.9959
 30
0.0
 10
-98.0269
 20
-141.9959
 30
0.0
 10
-98.0269
 20
-141.9959
 30
0.0
 10
-98.0269
 20
-141.9959
 30
0.0
 10
-98.0269
 20
-143.0246
 30
0.0
 10
-98.0269
 20
-143.0246
 30
0.0
 10
-98.0269
 20
-143.0246
 30
0.0
 10
-98.0269
 20
-143.0246
 30
0.0
 10
-98.2922
 20
-143.0246
 30
0.0
 10
-98.2922
 20
-143.0246
 30
0.0
 10
-98.2922
 20
-143.0246
 30
0.0
 10
-98.2922
 20
-143.0246
 30
0.0
 10
-98.2922
 20
-142.5886
 30
0.0
 10
-98.2922
 20
-142.5886
 30
0.0
 10
-98.2922
 20
-142.5886
 30
0.0
 10
-98.2922
 20
-142.5886
 30
0.0
 10
-98.6835
 20
-142.5886
 30
0.0
 10
-98.6835
 20
-142.5886
 30
0.0
 10
-98.6835
 20
-142.5886
 30
0.0
 10
-98.6835
 20
-142.5886
 30
0.0
 10
-98.6835
 20
-143.0246
 30
0.0
 10
-98.6835
 20
-143.0246
 30
0.0
 10
-98.6835
 20
-143.0246
 30
0.0
 10
-98.6835
 20
-143.0246
 30
0.0
 10
-98.9488
 20
-143.0246
 30
0.0
 10
-98.9488
 20
-143.0246
 30
0.0
 10
-98.9488
 20
-143.0246
 30
0.0
 10
-98.9488
 20
-143.0246
 30
0.0
 10
-98.9488
 20
-141.9959
 30
0.0
 10
-98.9488
 20
-141.9959
 30
0.0
  0
SPLINE
  5
76
330
1F
100
AcDbEntity
  8
LAYER_1
100
AcDbSpline
210
0.0
220
0.0
230
1.0
 70
    11
 71
     3
 72
    56
 73
    52
 74
     0
 42
0.0000000001
 43
0.0000000001
 40
0.0
 40
0.0
 40
0.0
 40
0.0
 40
0.0769230769230769
 40
0.0769230769230769
 40
0.0769230769230769
 40
0.0769230769230769
 40
0.1538461538461539
 40
0.1538461538461539
 40
0.1538461538461539
 40
0.1538461538461539
 40
0.2307692307692308
 40
0.2307692307692308
 40
0.2307692307692308
 40
0.2307692307692308
 40
0.3076923076923077
 40
0.3076923076923077
 40
0.3076923076923077
 40
0.3076923076923077
 40
0.3846153846153846
 40
0.3846153846153846
 40
0.3846153846153846
 40
0.3846153846153846
 40
0.4615384615384616
 40
0.4615384615384616
 40
0.4615384615384616
 40
0.4615384615384616
 40
0.5384615384615385
 40
0.5384615384615385
 40
0.5384615384615385
 40
0.5384615384615385
 40
0.6153846153846154
 40
0.6153846153846154
 40
0.6153846153846154
 40
0.6153846153846154
 40
0.6923076923076923
 40
0.6923076923076923
 40
0.6923076923076923
 40
0.6923076923076923
 40
0.7692307692307692
 40
0.7692307692307692
 40
0.7692307692307692
 40
0.7692307692307692
 40
0.846153846153846
 40
0.846153846153846
 40
0.846153846153846
 40
0.846153846153846
 40
0.9230769230769229
 40
0.9230769230769229
 40
0.9230769230769229
 40
0.9230769230769229
 40
1.0
 40
1.0
 40
1.0
 40
1.0
 10
-97.7679
 20
-141.9959
 30
0.0
 10
-97.7679
 20
-141.9959
 30
0.0
 10
-97.4304
 20
-141.9959
 30
0.0
 10
-97.4304
 20
-141.9959
 30
0.0
 10
-97.4304
 20
-141.9959
 30
0.0
 10
-97.4304
 20
-141.9959
 30
0.0
 10
-97.1959
 20
-142.5465
 30
0.0
 10
-97.1959
 20
-142.5465
 30
0.0
 10
-97.1959
 20
-142.5465
 30
0.0
 10
-97.1959
 20
-142.5465
 30
0.0
 10
-96.9603
 20
-141.9959
 30
0.0
 10
-96.9603
 20
-141.9959
 30
0.0
 10
-96.9603
 20
-141.9959
 30
0.0
 10
-96.9603
 20
-141.9959
 30
0.0
 10
-96.6235
 20
-141.9959
 30
0.0
 10
-96.6235
 20
-141.9959
 30
0.0
 10
-96.6235
 20
-141.9959
 30
0.0
 10
-96.6235
 20
-141.9959
 30
0.0
 10
-96.6235
 20
-143.0246
 30
0.0
 10
-96.6235
 20
-143.0246
 30
0.0
 10
-96.6235
 20
-143.0246
 30
0.0
 10
-96.6235
 20
-143.0246
 30
0.0
 10
-96.8742
 20
-143.0246
 30
0.0
 10
-96.8742
 20
-143.0246
 30
0.0
 10
-96.8742
 20
-143.0246
 30
0.0
 10
-96.8742
 20
-143.0246
 30
0.0
 10
-96.8742
 20
-142.2722
 30
0.0
 10
-96.8742
 20
-142.2722
 30
0.0
 10
-96.8742
 20
-142.2722
 30
0.0
 10
-96.8742
 20
-142.2722
 30
0.0
 10
-97.1113
 20
-142.8268
 30
0.0
 10
-97.1113
 20
-142.8268
 30
0.0
 10
-97.1113
 20
-142.8268
 30
0.0
 10
-97.1113
 20
-142.8268
 30
0.0
 10
-97.2794
 20
-142.8268
 30
0.0
 10
-97.2794
 20
-142.8268
 30
0.0
 10
-97.2794
 20
-142.8268
 30
0.0
 10
-97.2794
 20
-142.8268
 30
0.0
 10
-97.5165
 20
-142.2722
 30
0.0
 10
-97.5165
 20
-142.2722
 30
0.0
 10
-97.5165
 20
-142.2722
 30
0.0
 10
-97.5165
 20
-142.2722
 30
0.0
 10
-97.5165
 20
-143.0246
 30
0.0
 10
-97.5165
 20
-143.0246
 30
0.0
 10
-97.5165
 20
-143.0246
 30
0.0
 10
-97.5165
 20
-143.0246
 30
0.0
 10
-97.7679
 20
-143.0246
 30
0.0
 10
-97.7679
 20
-143.0246
 30
0.0
 10
-97.7679
 20
-143.0246
 30
0.0
 10
-97.7679
 20
-143.0246
 30
0.0
 10
-97.7679
 20
-141.9959
 30
0.0
 10
-97.7679
 20
-141.9959
 30
0.0
  0
SPLINE
  5
77
330
1F
100
AcDbEntity
  8
LAYER_1
100
AcDbSpline
210
0.0
220
0.0
230
1.0
 70
    11
 71
     3
 72
    32
 73
    28
 74
     0
 42
0.0000000001
 43
0.0000000001
 40
0.0
 40
0.0
 40
0.0
 40
0.0
 40
0.1428571428571428
 40
0.1428571428571428
 40
0.1428571428571428
 40
0.1428571428571428
 40
0.2857142857142857
 40
0.2857142857142857
 40
0.2857142857142857
 40
0.2857142857142857
 40
0.4285714285714285
 40
0.4285714285714285
 40
0.4285714285714285
 40
0.4285714285714285
 40
0.5714285714285714
 40
0.5714285714285714
 40
0.5714285714285714
 40
0.5714285714285714
 40
0.7142857142857142
 40
0.7142857142857142
 40
0.7142857142857142
 40
0.7142857142857142
 40
0.857142857142857
 40
0.857142857142857
 40
0.857142857142857
 40
0.857142857142857
 40
1.0
 40
1.0
 40
1.0
 40
1.0
 10
-108.4217
 20
-144.0947
 30
0.0
 10
-108.3662
 20
-144.0947
 30
0.0
 10
-108.3262
 20
-144.0843
 30
0.0
 10
-108.3022
 20
-144.0636
 30
0.0
 10
-108.3022
 20
-144.0636
 30
0.0
 10
-108.278
 20
-144.0429
 30
0.0
 10
-108.266
 20
-144.0088
 30
0.0
 10
-108.266
 20
-143.9615
 30
0.0
 10
-108.266
 20
-143.9615
 30
0.0
 10
-108.266
 20
-143.9147
 30
0.0
 10
-108.278
 20
-143.8811
 30
0.0
 10
-108.3022
 20
-143.8609
 30
0.0
 10
-108.3022
 20
-143.8609
 30
0.0
 10
-108.3262
 20
-143.8407
 30
0.0
 10
-108.3662
 20
-143.8306
 30
0.0
 10
-108.4217
 20
-143.8306
 30
0.0
 10
-108.4217
 20
-143.8306
 30
0.0
 10
-108.4217
 20
-143.8306
 30
0.0
 10
-108.5334
 20
-143.8306
 30
0.0
 10
-108.5334
 20
-143.8306
 30
0.0
 10
-108.5334
 20
-143.8306
 30
0.0
 10
-108.5334
 20
-143.8306
 30
0.0
 10
-108.5334
 20
-144.0947
 30
0.0
 10
-108.5334
 20
-144.0947
 30
0.0
 10
-108.5334
 20
-144.0947
 30
0.0
 10
-108.5334
 20
-144.0947
 30
0.0
 10
-108.4217
 20
-144.0947
 30
0.0
 10
-108.4217
 20
-144.0947
 30
0.0
  0
SPLINE
  5
78
330
1F
100
AcDbEntity
  8
LAYER_1
100
AcDbSpline
210
0.0
220
0.0
230
1.0
 70
    11
 71
     3
 72
    68
 73
    64
 74
     0
 42
0.0000000001
 43
0.0000000001
 40
0.0
 40
0.0
 40
0.0
 40
0.0
 40
0.0625
 40
0.0625
 40
0.0625
 40
0.0625
 40
0.125
 40
0.125
 40
0.125
 40
0.125
 40
0.1875
 40
0.1875
 40
0.1875
 40
0.1875
 40
0.25
 40
0.25
 40
0.25
 40
0.25
 40
0.3125
 40
0.3125
 40
0.3125
 40
0.3125
 40
0.375
 40
0.375
 40
0.375
 40
0.375
 40
0.4375
 40
0.4375
 40
0.4375
 40
0.4375
 40
0.5
 40
0.5
 40
0.5
 40
0.5
 40
0.5625
 40
0.5625
 40
0.5625
 40
0.5625
 40
0.625
 40
0.625
 40
0.625
 40
0.625
 40
0.6875
 40
0.6875
 40
0.6875
 40
0.6875
 40
0.75
 40
0.75
 40
0.75
 40
0.75
 40
0.8125
 40
0.8125
 40
0.8125
 40
0.8125
 40
0.875
 40
0.875
 40
0.875
 40
0.875
 40
0.9375
 40
0.9375
 40
0.9375
 40
0.9375
 40
1.0
 40
1.0
 40
1.0
 40
1.0
 10
-108.5334
 20
-144.2779
 30
0.0
 10
-108.5334
 20
-144.2779
 30
0.0
 10
-108.5334
 20
-144.6671
 30
0.0
 10
-108.5334
 20
-144.6671
 30
0.0
 10
-108.5334
 20
-144.6671
 30
0.0
 10
-108.5334
 20
-144.6671
 30
0.0
 10
-108.7987
 20
-144.6671
 30
0.0
 10
-108.7987
 20
-144.6671
 30
0.0
 10
-108.7987
 20
-144.6671
 30
0.0
 10
-108.7987
 20
-144.6671
 30
0.0
 10
-108.7987
 20
-143.6384
 30
0.0
 10
-108.7987
 20
-143.6384
 30
0.0
 10
-108.7987
 20
-143.6384
 30
0.0
 10
-108.7987
 20
-143.6384
 30
0.0
 10
-108.3935
 20
-143.6384
 30
0.0
 10
-108.3935
 20
-143.6384
 30
0.0
 10
-108.3935
 20
-143.6384
 30
0.0
 10
-108.258
 20
-143.6384
 30
0.0
 10
-108.1585
 20
-143.6612
 30
0.0
 10
-108.0955
 20
-143.7066
 30
0.0
 10
-108.0955
 20
-143.7066
 30
0.0
 10
-108.0323
 20
-143.752
 30
0.0
 10
-108.0007
 20
-143.824
 30
0.0
 10
-108.0007
 20
-143.9223
 30
0.0
 10
-108.0007
 20
-143.9223
 30
0.0
 10
-108.0007
 20
-143.9902
 30
0.0
 10
-108.0172
 20
-144.0462
 30
0.0
 10
-108.0499
 20
-144.0897
 30
0.0
 10
-108.0499
 20
-144.0897
 30
0.0
 10
-108.0828
 20
-144.1335
 30
0.0
 10
-108.1324
 20
-144.1657
 30
0.0
 10
-108.1985
 20
-144.1862
 30
0.0
 10
-108.1985
 20
-144.1862
 30
0.0
 10
-108.1623
 20
-144.1946
 30
0.0
 10
-108.1296
 20
-144.2132
 30
0.0
 10
-108.1009
 20
-144.2424
 30
0.0
 10
-108.1009
 20
-144.2424
 30
0.0
 10
-108.0722
 20
-144.2715
 30
0.0
 10
-108.0433
 20
-144.3157
 30
0.0
 10
-108.0139
 20
-144.375
 30
0.0
 10
-108.0139
 20
-144.375
 30
0.0
 10
-108.0139
 20
-144.375
 30
0.0
 10
-107.8697
 20
-144.6671
 30
0.0
 10
-107.8697
 20
-144.6671
 30
0.0
 10
-107.8697
 20
-144.6671
 30
0.0
 10
-107.8697
 20
-144.6671
 30
0.0
 10
-108.1524
 20
-144.6671
 30
0.0
 10
-108.1524
 20
-144.6671
 30
0.0
 10
-108.1524
 20
-144.6671
 30
0.0
 10
-108.1524
 20
-144.6671
 30
0.0
 10
-108.2778
 20
-144.4115
 30
0.0
 10
-108.2778
 20
-144.4115
 30
0.0
 10
-108.2778
 20
-144.4115
 30
0.0
 10
-108.3029
 20
-144.3602
 30
0.0
 10
-108.3286
 20
-144.3249
 30
0.0
 10
-108.3547
 20
-144.3061
 30
0.0
 10
-108.3547
 20
-144.3061
 30
0.0
 10
-108.3806
 20
-144.2873
 30
0.0
 10
-108.4151
 20
-144.2779
 30
0.0
 10
-108.4584
 20
-144.2779
 30
0.0
 10
-108.4584
 20
-144.2779
 30
0.0
 10
-108.4584
 20
-144.2779
 30
0.0
 10
-108.5334
 20
-144.2779
 30
0.0
 10
-108.5334
 20
-144.2779
 30
0.0
  0
SPLINE
  5
79
330
1F
100
AcDbEntity
  8
LAYER_1
100
AcDbSpline
210
0.0
220
0.0
230
1.0
 70
    11
 71
     3
 72
    52
 73
    48
 74
     0
 42
0.0000000001
 43
0.0000000001
 40
0.0
 40
0.0
 40
0.0
 40
0.0
 40
0.0833333333333333
 40
0.0833333333333333
 40
0.0833333333333333
 40
0.0833333333333333
 40
0.1666666666666667
 40
0.1666666666666667
 40
0.1666666666666667
 40
0.1666666666666667
 40
0.25
 40
0.25
 40
0.25
 40
0.25
 40
0.3333333333333333
 40
0.3333333333333333
 40
0.3333333333333333
 40
0.3333333333333333
 40
0.4166666666666666
 40
0.4166666666666666
 40
0.4166666666666666
 40
0.4166666666666666
 40
0.4999999999999999
 40
0.4999999999999999
 40
0.4999999999999999
 40
0.4999999999999999
 40
0.5833333333333333
 40
0.5833333333333333
 40
0.5833333333333333
 40
0.5833333333333333
 40
0.6666666666666666
 40
0.6666666666666666
 40
0.6666666666666666
 40
0.6666666666666666
 40
0.75
 40
0.75
 40
0.75
 40
0.75
 40
0.8333333333333334
 40
0.8333333333333334
 40
0.8333333333333334
 40
0.8333333333333334
 40
0.9166666666666667
 40
0.9166666666666667
 40
0.9166666666666667
 40
0.9166666666666667
 40
1.0
 40
1.0
 40
1.0
 40
1.0
 10
-107.7122
 20
-143.6384
 30
0.0
 10
-107.7122
 20
-143.6384
 30
0.0
 10
-106.9963
 20
-143.6384
 30
0.0
 10
-106.9963
 20
-143.6384
 30
0.0
 10
-106.9963
 20
-143.6384
 30
0.0
 10
-106.9963
 20
-143.6384
 30
0.0
 10
-106.9963
 20
-143.839
 30
0.0
 10
-106.9963
 20
-143.839
 30
0.0
 10
-106.9963
 20
-143.839
 30
0.0
 10
-106.9963
 20
-143.839
 30
0.0
 10
-107.4469
 20
-143.839
 30
0.0
 10
-107.4469
 20
-143.839
 30
0.0
 10
-107.4469
 20
-143.839
 30
0.0
 10
-107.4469
 20
-143.839
 30
0.0
 10
-107.4469
 20
-144.0305
 30
0.0
 10
-107.4469
 20
-144.0305
 30
0.0
 10
-107.4469
 20
-144.0305
 30
0.0
 10
-107.4469
 20
-144.0305
 30
0.0
 10
-107.0234
 20
-144.0305
 30
0.0
 10
-107.0234
 20
-144.0305
 30
0.0
 10
-107.0234
 20
-144.0305
 30
0.0
 10
-107.0234
 20
-144.0305
 30
0.0
 10
-107.0234
 20
-144.2311
 30
0.0
 10
-107.0234
 20
-144.2311
 30
0.0
 10
-107.0234
 20
-144.2311
 30
0.0
 10
-107.0234
 20
-144.2311
 30
0.0
 10
-107.4469
 20
-144.2311
 30
0.0
 10
-107.4469
 20
-144.2311
 30
0.0
 10
-107.4469
 20
-144.2311
 30
0.0
 10
-107.4469
 20
-144.2311
 30
0.0
 10
-107.4469
 20
-144.4665
 30
0.0
 10
-107.4469
 20
-144.4665
 30
0.0
 10
-107.4469
 20
-144.4665
 30
0.0
 10
-107.4469
 20
-144.4665
 30
0.0
 10
-106.9813
 20
-144.4665
 30
0.0
 10
-106.9813
 20
-144.4665
 30
0.0
 10
-106.9813
 20
-144.4665
 30
0.0
 10
-106.9813
 20
-144.4665
 30
0.0
 10
-106.9813
 20
-144.6671
 30
0.0
 10
-106.9813
 20
-144.6671
 30
0.0
 10
-106.9813
 20
-144.6671
 30
0.0
 10
-106.9813
 20
-144.6671
 30
0.0
 10
-107.7122
 20
-144.6671
 30
0.0
 10
-107.7122
 20
-144.6671
 30
0.0
 10
-107.7122
 20
-144.6671
 30
0.0
 10
-107.7122
 20
-144.6671
 30
0.0
 10
-107.7122
 20
-143.6384
 30
0.0
 10
-107.7122
 20
-143.6384
 30
0.0
  0
SPLINE
  5
7A
330
1F
100
AcDbEntity
  8
LAYER_1
100
AcDbSpline
210
0.0
220
0.0
230
1.0
 70
    11
 71
     3
 72
   116
 73
   112
 74
     0
 42
0.0000000001
 43
0.0000000001
 40
0.0
 40
0.0
 40
0.0
 40
0.0
 40
0.0357142857142857
 40
0.0357142857142857
 40
0.0357142857142857
 40
0.0357142857142857
 40
0.0714285714285714
 40
0.0714285714285714
 40
0.0714285714285714
 40
0.0714285714285714
 40
0.1071428571428571
 40
0.1071428571428571
 40
0.1071428571428571
 40
0.1071428571428571
 40
0.1428571428571428
 40
0.1428571428571428
 40
0.1428571428571428
 40
0.1428571428571428
 40
0.1785714285714285
 40
0.1785714285714285
 40
0.1785714285714285
 40
0.1785714285714285
 40
0.2142857142857142
 40
0.2142857142857142
 40
0.2142857142857142
 40
0.2142857142857142
 40
0.2499999999999999
 40
0.2499999999999999
 40
0.2499999999999999
 40
0.2499999999999999
 40
0.2857142857142856
 40
0.2857142857142856
 40
0.2857142857142856
 40
0.2857142857142856
 40
0.3214285714285713
 40
0.3214285714285713
 40
0.3214285714285713
 40
0.3214285714285713
 40
0.357142857142857
 40
0.357142857142857
 40
0.357142857142857
 40
0.357142857142857
 40
0.3928571428571427
 40
0.3928571428571427
 40
0.3928571428571427
 40
0.3928571428571427
 40
0.4285714285714284
 40
0.4285714285714284
 40
0.4285714285714284
 40
0.4285714285714284
 40
0.4642857142857141
 40
0.4642857142857141
 40
0.4642857142857141
 40
0.4642857142857141
 40
0.4999999999999998
 40
0.4999999999999998
 40
0.4999999999999998
 40
0.4999999999999998
 40
0.5357142857142856
 40
0.5357142857142856
 40
0.5357142857142856
 40
0.5357142857142856
 40
0.5714285714285713
 40
0.5714285714285713
 40
0.5714285714285713
 40
0.5714285714285713
 40
0.607142857142857
 40
0.607142857142857
 40
0.607142857142857
 40
0.607142857142857
 40
0.6428571428571427
 40
0.6428571428571427
 40
0.6428571428571427
 40
0.6428571428571427
 40
0.6785714285714284
 40
0.6785714285714284
 40
0.6785714285714284
 40
0.6785714285714284
 40
0.7142857142857141
 40
0.7142857142857141
 40
0.7142857142857141
 40
0.7142857142857141
 40
0.7499999999999998
 40
0.7499999999999998
 40
0.7499999999999998
 40
0.7499999999999998
 40
0.7857142857142855
 40
0.7857142857142855
 40
0.7857142857142855
 40
0.7857142857142855
 40
0.8214285714285712
 40
0.8214285714285712
 40
0.8214285714285712
 40
0.8214285714285712
 40
0.8571428571428569
 40
0.8571428571428569
 40
0.8571428571428569
 40
0.8571428571428569
 40
0.8928571428571426
 40
0.8928571428571426
 40
0.8928571428571426
 40
0.8928571428571426
 40
0.9285714285714283
 40
0.9285714285714283
 40
0.9285714285714283
 40
0.9285714285714283
 40
0.964285714285714
 40
0.964285714285714
 40
0.964285714285714
 40
0.964285714285714
 40
1.0
 40
1.0
 40
1.0
 40
1.0
 10
-106.0323
 20
-143.6709
 30
0.0
 10
-106.0323
 20
-143.6709
 30
0.0
 10
-106.0323
 20
-143.8884
 30
0.0
 10
-106.0323
 20
-143.8884
 30
0.0
 10
-106.0323
 20
-143.8884
 30
0.0
 10
-106.0888
 20
-143.8632
 30
0.0
 10
-106.144
 20
-143.8442
 30
0.0
 10
-106.1976
 20
-143.8313
 30
0.0
 10
-106.1976
 20
-143.8313
 30
0.0
 10
-106.2515
 20
-143.8183
 30
0.0
 10
-106.3023
 20
-143.812
 30
0.0
 10
-106.35
 20
-143.812
 30
0.0
 10
-106.35
 20
-143.812
 30
0.0
 10
-106.4133
 20
-143.812
 30
0.0
 10
-106.4603
 20
-143.8207
 30
0.0
 10
-106.4907
 20
-143.8381
 30
0.0
 10
-106.4907
 20
-143.8381
 30
0.0
 10
-106.521
 20
-143.8557
 30
0.0
 10
-106.5361
 20
-143.8828
 30
0.0
 10
-106.5361
 20
-143.9195
 30
0.0
 10
-106.5361
 20
-143.9195
 30
0.0
 10
-106.5361
 20
-143.947
 30
0.0
 10
-106.526
 20
-143.9686
 30
0.0
 10
-106.5055
 20
-143.9839
 30
0.0
 10
-106.5055
 20
-143.9839
 30
0.0
 10
-106.485
 20
-143.9992
 30
0.0
 10
-106.4479
 20
-144.0126
 30
0.0
 10
-106.394
 20
-144.0236
 30
0.0
 10
-106.394
 20
-144.0236
 30
0.0
 10
-106.394
 20
-144.0236
 30
0.0
 10
-106.2811
 20
-144.0462
 30
0.0
 10
-106.2811
 20
-144.0462
 30
0.0
 10
-106.2811
 20
-144.0462
 30
0.0
 10
-106.1666
 20
-144.0693
 30
0.0
 10
-106.0855
 20
-144.1041
 30
0.0
 10
-106.0373
 20
-144.1511
 30
0.0
 10
-106.0373
 20
-144.1511
 30
0.0
 10
-105.989
 20
-144.1979
 30
0.0
 10
-105.9648
 20
-144.2645
 30
0.0
 10
-105.9648
 20
-144.3508
 30
0.0
 10
-105.9648
 20
-144.3508
 30
0.0
 10
-105.9648
 20
-144.4644
 30
0.0
 10
-105.9984
 20
-144.5488
 30
0.0
 10
-106.0657
 20
-144.6041
 30
0.0
 10
-106.0657
 20
-144.6041
 30
0.0
 10
-106.133
 20
-144.6593
 30
0.0
 10
-106.2357
 20
-144.6871
 30
0.0
 10
-106.374
 20
-144.6871
 30
0.0
 10
-106.374
 20
-144.6871
 30
0.0
 10
-106.4394
 20
-144.6871
 30
0.0
 10
-106.5048
 20
-144.681
 30
0.0
 10
-106.5704
 20
-144.6685
 30
0.0
 10
-106.5704
 20
-144.6685
 30
0.0
 10
-106.636
 20
-144.656
 30
0.0
 10
-106.7019
 20
-144.6377
 30
0.0
 10
-106.7675
 20
-144.6135
 30
0.0
 10
-106.7675
 20
-144.6135
 30
0.0
 10
-106.7675
 20
-144.6135
 30
0.0
 10
-106.7675
 20
-144.3896
 30
0.0
 10
-106.7675
 20
-144.3896
 30
0.0
 10
-106.7675
 20
-144.3896
 30
0.0
 10
-106.7019
 20
-144.4244
 30
0.0
 10
-106.6384
 20
-144.4507
 30
0.0
 10
-106.577
 20
-144.4684
 30
0.0
 10
-106.577
 20
-144.4684
 30
0.0
 10
-106.5156
 20
-144.486
 30
0.0
 10
-106.4566
 20
-144.4949
 30
0.0
 10
-106.3997
 20
-144.4949
 30
0.0
 10
-106.3997
 20
-144.4949
 30
0.0
 10
-106.3418
 20
-144.4949
 30
0.0
 10
-106.2974
 20
-144.4853
 30
0.0
 10
-106.2666
 20
-144.466
 30
0.0
 10
-106.2666
 20
-144.466
 30
0.0
 10
-106.2357
 20
-144.4467
 30
0.0
 10
-106.2205
 20
-144.4192
 30
0.0
 10
-106.2205
 20
-144.3832
 30
0.0
 10
-106.2205
 20
-144.3832
 30
0.0
 10
-106.2205
 20
-144.3512
 30
0.0
 10
-106.2308
 20
-144.3263
 30
0.0
 10
-106.2517
 20
-144.3089
 30
0.0
 10
-106.2517
 20
-144.3089
 30
0.0
 10
-106.2727
 20
-144.2915
 30
0.0
 10
-106.3143
 20
-144.2758
 30
0.0
 10
-106.3769
 20
-144.2621
 30
0.0
 10
-106.3769
 20
-144.2621
 30
0.0
 10
-106.3769
 20
-144.2621
 30
0.0
 10
-106.4796
 20
-144.2393
 30
0.0
 10
-106.4796
 20
-144.2393
 30
0.0
 10
-106.4796
 20
-144.2393
 30
0.0
 10
-106.5824
 20
-144.2172
 30
0.0
 10
-106.6577
 20
-144.1822
 30
0.0
 10
-106.7052
 20
-144.1339
 30
0.0
 10
-106.7052
 20
-144.1339
 30
0.0
 10
-106.7527
 20
-144.0857
 30
0.0
 10
-106.7764
 20
-144.0206
 30
0.0
 10
-106.7764
 20
-143.939
 30
0.0
 10
-106.7764
 20
-143.939
 30
0.0
 10
-106.7764
 20
-143.8364
 30
0.0
 10
-106.7433
 20
-143.7576
 30
0.0
 10
-106.6772
 20
-143.7026
 30
0.0
 10
-106.6772
 20
-143.7026
 30
0.0
 10
-106.6111
 20
-143.6473
 30
0.0
 10
-106.5161
 20
-143.6198
 30
0.0
 10
-106.3919
 20
-143.6198
 30
0.0
 10
-106.3919
 20
-143.6198
 30
0.0
 10
-106.3355
 20
-143.6198
 30
0.0
 10
-106.2774
 20
-143.6241
 30
0.0
 10
-106.2176
 20
-143.6325
 30
0.0
 10
-106.2176
 20
-143.6325
 30
0.0
 10
-106.1579
 20
-143.641
 30
0.0
 10
-106.0961
 20
-143.6537
 30
0.0
 10
-106.0323
 20
-143.6709
 30
0.0
  0
SPLINE
  5
7B
330
1F
100
AcDbEntity
  8
LAYER_1
100
AcDbSpline
210
0.0
220
0.0
230
1.0
 70
    11
 71
     3
 72
    20
 73
    16
 74
     0
 42
0.0000000001
 43
0.0000000001
 40
0.0
 40
0.0
 40
0.0
 40
0.0
 40
0.25
 40
0.25
 40
0.25
 40
0.25
 40
0.5
 40
0.5
 40
0.5
 40
0.5
 40
0.75
 40
0.75
 40
0.75
 40
0.75
 40
1.0
 40
1.0
 40
1.0
 40
1.0
 10
-105.732
 20
-143.6384
 30
0.0
 10
-105.732
 20
-143.6384
 30
0.0
 10
-105.4667
 20
-143.6384
 30
0.0
 10
-105.4667
 20
-143.6384
 30
0.0
 10
-105.4667
 20
-143.6384
 30
0.0
 10
-105.4667
 20
-143.6384
 30
0.0
 10
-105.4667
 20
-144.6671
 30
0.0
 10
-105.4667
 20
-144.6671
 30
0.0
 10
-105.4667
 20
-144.6671
 30
0.0
 10
-105.4667
 20
-144.6671
 30
0.0
 10
-105.732
 20
-144.6671
 30
0.0
 10
-105.732
 20
-144.6671
 30
0.0
 10
-105.732
 20
-144.6671
 30
0.0
 10
-105.732
 20
-144.6671
 30
0.0
 10
-105.732
 20
-143.6384
 30
0.0
 10
-105.732
 20
-143.6384
 30
0.0
  0
SPLINE
  5
7C
330
1F
100
AcDbEntity
  8
LAYER_1
100
AcDbSpline
210
0.0
220
0.0
230
1.0
 70
    11
 71
     3
 72
   116
 73
   112
 74
     0
 42
0.0000000001
 43
0.0000000001
 40
0.0
 40
0.0
 40
0.0
 40
0.0
 40
0.0357142857142857
 40
0.0357142857142857
 40
0.0357142857142857
 40
0.0357142857142857
 40
0.0714285714285714
 40
0.0714285714285714
 40
0.0714285714285714
 40
0.0714285714285714
 40
0.1071428571428571
 40
0.1071428571428571
 40
0.1071428571428571
 40
0.1071428571428571
 40
0.1428571428571428
 40
0.1428571428571428
 40
0.1428571428571428
 40
0.1428571428571428
 40
0.1785714285714285
 40
0.1785714285714285
 40
0.1785714285714285
 40
0.1785714285714285
 40
0.2142857142857142
 40
0.2142857142857142
 40
0.2142857142857142
 40
0.2142857142857142
 40
0.2499999999999999
 40
0.2499999999999999
 40
0.2499999999999999
 40
0.2499999999999999
 40
0.2857142857142856
 40
0.2857142857142856
 40
0.2857142857142856
 40
0.2857142857142856
 40
0.3214285714285713
 40
0.3214285714285713
 40
0.3214285714285713
 40
0.3214285714285713
 40
0.357142857142857
 40
0.357142857142857
 40
0.357142857142857
 40
0.357142857142857
 40
0.3928571428571427
 40
0.3928571428571427
 40
0.3928571428571427
 40
0.3928571428571427
 40
0.4285714285714284
 40
0.4285714285714284
 40
0.4285714285714284
 40
0.4285714285714284
 40
0.4642857142857141
 40
0.4642857142857141
 40
0.4642857142857141
 40
0.4642857142857141
 40
0.4999999999999998
 40
0.4999999999999998
 40
0.4999999999999998
 40
0.4999999999999998
 40
0.5357142857142856
 40
0.5357142857142856
 40
0.5357142857142856
 40
0.5357142857142856
 40
0.5714285714285713
 40
0.5714285714285713
 40
0.5714285714285713
 40
0.5714285714285713
 40
0.607142857142857
 40
0.607142857142857
 40
0.607142857142857
 40
0.607142857142857
 40
0.6428571428571427
 40
0.6428571428571427
 40
0.6428571428571427
 40
0.6428571428571427
 40
0.6785714285714284
 40
0.6785714285714284
 40
0.6785714285714284
 40
0.6785714285714284
 40
0.7142857142857141
 40
0.7142857142857141
 40
0.7142857142857141
 40
0.7142857142857141
 40
0.7499999999999998
 40
0.7499999999999998
 40
0.7499999999999998
 40
0.7499999999999998
 40
0.7857142857142855
 40
0.7857142857142855
 40
0.7857142857142855
 40
0.7857142857142855
 40
0.8214285714285712
 40
0.8214285714285712
 40
0.8214285714285712
 40
0.8214285714285712
 40
0.8571428571428569
 40
0.8571428571428569
 40
0.8571428571428569
 40
0.8571428571428569
 40
0.8928571428571426
 40
0.8928571428571426
 40
0.8928571428571426
 40
0.8928571428571426
 40
0.9285714285714283
 40
0.9285714285714283
 40
0.9285714285714283
 40
0.9285714285714283
 40
0.964285714285714
 40
0.964285714285714
 40
0.964285714285714
 40
0.964285714285714
 40
1.0
 40
1.0
 40
1.0
 40
1.0
 10
-104.4912
 20
-143.6709
 30
0.0
 10
-104.4912
 20
-143.6709
 30
0.0
 10
-104.4912
 20
-143.8884
 30
0.0
 10
-104.4912
 20
-143.8884
 30
0.0
 10
-104.4912
 20
-143.8884
 30
0.0
 10
-104.5477
 20
-143.8632
 30
0.0
 10
-104.6029
 20
-143.8442
 30
0.0
 10
-104.6565
 20
-143.8313
 30
0.0
 10
-104.6565
 20
-143.8313
 30
0.0
 10
-104.7104
 20
-143.8183
 30
0.0
 10
-104.7612
 20
-143.812
 30
0.0
 10
-104.8089
 20
-143.812
 30
0.0
 10
-104.8089
 20
-143.812
 30
0.0
 10
-104.8722
 20
-143.812
 30
0.0
 10
-104.9192
 20
-143.8207
 30
0.0
 10
-104.9496
 20
-143.8381
 30
0.0
 10
-104.9496
 20
-143.8381
 30
0.0
 10
-104.9799
 20
-143.8557
 30
0.0
 10
-104.995
 20
-143.8828
 30
0.0
 10
-104.995
 20
-143.9195
 30
0.0
 10
-104.995
 20
-143.9195
 30
0.0
 10
-104.995
 20
-143.947
 30
0.0
 10
-104.9849
 20
-143.9686
 30
0.0
 10
-104.9644
 20
-143.9839
 30
0.0
 10
-104.9644
 20
-143.9839
 30
0.0
 10
-104.9439
 20
-143.9992
 30
0.0
 10
-104.9068
 20
-144.0126
 30
0.0
 10
-104.8529
 20
-144.0236
 30
0.0
 10
-104.8529
 20
-144.0236
 30
0.0
 10
-104.8529
 20
-144.0236
 30
0.0
 10
-104.74
 20
-144.0462
 30
0.0
 10
-104.74
 20
-144.0462
 30
0.0
 10
-104.74
 20
-144.0462
 30
0.0
 10
-104.6255
 20
-144.0693
 30
0.0
 10
-104.5444
 20
-144.1041
 30
0.0
 10
-104.4962
 20
-144.1511
 30
0.0
 10
-104.4962
 20
-144.1511
 30
0.0
 10
-104.4479
 20
-144.1979
 30
0.0
 10
-104.4237
 20
-144.2645
 30
0.0
 10
-104.4237
 20
-144.3508
 30
0.0
 10
-104.4237
 20
-144.3508
 30
0.0
 10
-104.4237
 20
-144.4644
 30
0.0
 10
-104.4573
 20
-144.5488
 30
0.0
 10
-104.5246
 20
-144.6041
 30
0.0
 10
-104.5246
 20
-144.6041
 30
0.0
 10
-104.5919
 20
-144.6593
 30
0.0
 10
-104.6946
 20
-144.6871
 30
0.0
 10
-104.8329
 20
-144.6871
 30
0.0
 10
-104.8329
 20
-144.6871
 30
0.0
 10
-104.8983
 20
-144.6871
 30
0.0
 10
-104.9637
 20
-144.681
 30
0.0
 10
-105.0293
 20
-144.6685
 30
0.0
 10
-105.0293
 20
-144.6685
 30
0.0
 10
-105.0949
 20
-144.656
 30
0.0
 10
-105.1608
 20
-144.6377
 30
0.0
 10
-105.2264
 20
-144.6135
 30
0.0
 10
-105.2264
 20
-144.6135
 30
0.0
 10
-105.2264
 20
-144.6135
 30
0.0
 10
-105.2264
 20
-144.3896
 30
0.0
 10
-105.2264
 20
-144.3896
 30
0.0
 10
-105.2264
 20
-144.3896
 30
0.0
 10
-105.1608
 20
-144.4244
 30
0.0
 10
-105.0973
 20
-144.4507
 30
0.0
 10
-105.0359
 20
-144.4684
 30
0.0
 10
-105.0359
 20
-144.4684
 30
0.0
 10
-104.9745
 20
-144.486
 30
0.0
 10
-104.9155
 20
-144.4949
 30
0.0
 10
-104.8586
 20
-144.4949
 30
0.0
 10
-104.8586
 20
-144.4949
 30
0.0
 10
-104.8007
 20
-144.4949
 30
0.0
 10
-104.7563
 20
-144.4853
 30
0.0
 10
-104.7255
 20
-144.466
 30
0.0
 10
-104.7255
 20
-144.466
 30
0.0
 10
-104.6946
 20
-144.4467
 30
0.0
 10
-104.6794
 20
-144.4192
 30
0.0
 10
-104.6794
 20
-144.3832
 30
0.0
 10
-104.6794
 20
-144.3832
 30
0.0
 10
-104.6794
 20
-144.3512
 30
0.0
 10
-104.6897
 20
-144.3263
 30
0.0
 10
-104.7106
 20
-144.3089
 30
0.0
 10
-104.7106
 20
-144.3089
 30
0.0
 10
-104.7316
 20
-144.2915
 30
0.0
 10
-104.7732
 20
-144.2758
 30
0.0
 10
-104.8358
 20
-144.2621
 30
0.0
 10
-104.8358
 20
-144.2621
 30
0.0
 10
-104.8358
 20
-144.2621
 30
0.0
 10
-104.9385
 20
-144.2393
 30
0.0
 10
-104.9385
 20
-144.2393
 30
0.0
 10
-104.9385
 20
-144.2393
 30
0.0
 10
-105.0413
 20
-144.2172
 30
0.0
 10
-105.1166
 20
-144.1822
 30
0.0
 10
-105.1641
 20
-144.1339
 30
0.0
 10
-105.1641
 20
-144.1339
 30
0.0
 10
-105.2116
 20
-144.0857
 30
0.0
 10
-105.2353
 20
-144.0206
 30
0.0
 10
-105.2353
 20
-143.939
 30
0.0
 10
-105.2353
 20
-143.939
 30
0.0
 10
-105.2353
 20
-143.8364
 30
0.0
 10
-105.2022
 20
-143.7576
 30
0.0
 10
-105.1361
 20
-143.7026
 30
0.0
 10
-105.1361
 20
-143.7026
 30
0.0
 10
-105.07
 20
-143.6473
 30
0.0
 10
-104.975
 20
-143.6198
 30
0.0
 10
-104.8508
 20
-143.6198
 30
0.0
 10
-104.8508
 20
-143.6198
 30
0.0
 10
-104.7944
 20
-143.6198
 30
0.0
 10
-104.7363
 20
-143.6241
 30
0.0
 10
-104.6765
 20
-143.6325
 30
0.0
 10
-104.6765
 20
-143.6325
 30
0.0
 10
-104.6168
 20
-143.641
 30
0.0
 10
-104.555
 20
-143.6537
 30
0.0
 10
-104.4912
 20
-143.6709
 30
0.0
  0
SPLINE
  5
7D
330
1F
100
AcDbEntity
  8
LAYER_1
100
AcDbSpline
210
0.0
220
0.0
230
1.0
 70
    11
 71
     3
 72
    36
 73
    32
 74
     0
 42
0.0000000001
 43
0.0000000001
 40
0.0
 40
0.0
 40
0.0
 40
0.0
 40
0.125
 40
0.125
 40
0.125
 40
0.125
 40
0.25
 40
0.25
 40
0.25
 40
0.25
 40
0.375
 40
0.375
 40
0.375
 40
0.375
 40
0.5
 40
0.5
 40
0.5
 40
0.5
 40
0.625
 40
0.625
 40
0.625
 40
0.625
 40
0.75
 40
0.75
 40
0.75
 40
0.75
 40
0.875
 40
0.875
 40
0.875
 40
0.875
 40
1.0
 40
1.0
 40
1.0
 40
1.0
 10
-104.3137
 20
-143.6384
 30
0.0
 10
-104.3137
 20
-143.6384
 30
0.0
 10
-103.3657
 20
-143.6384
 30
0.0
 10
-103.3657
 20
-143.6384
 30
0.0
 10
-103.3657
 20
-143.6384
 30
0.0
 10
-103.3657
 20
-143.6384
 30
0.0
 10
-103.3657
 20
-143.839
 30
0.0
 10
-103.3657
 20
-143.839
 30
0.0
 10
-103.3657
 20
-143.839
 30
0.0
 10
-103.3657
 20
-143.839
 30
0.0
 10
-103.7067
 20
-143.839
 30
0.0
 10
-103.7067
 20
-143.839
 30
0.0
 10
-103.7067
 20
-143.839
 30
0.0
 10
-103.7067
 20
-143.839
 30
0.0
 10
-103.7067
 20
-144.6671
 30
0.0
 10
-103.7067
 20
-144.6671
 30
0.0
 10
-103.7067
 20
-144.6671
 30
0.0
 10
-103.7067
 20
-144.6671
 30
0.0
 10
-103.972
 20
-144.6671
 30
0.0
 10
-103.972
 20
-144.6671
 30
0.0
 10
-103.972
 20
-144.6671
 30
0.0
 10
-103.972
 20
-144.6671
 30
0.0
 10
-103.972
 20
-143.839
 30
0.0
 10
-103.972
 20
-143.839
 30
0.0
 10
-103.972
 20
-143.839
 30
0.0
 10
-103.972
 20
-143.839
 30
0.0
 10
-104.3137
 20
-143.839
 30
0.0
 10
-104.3137
 20
-143.839
 30
0.0
 10
-104.3137
 20
-143.839
 30
0.0
 10
-104.3137
 20
-143.839
 30
0.0
 10
-104.3137
 20
-143.6384
 30
0.0
 10
-104.3137
 20
-143.6384
 30
0.0
  0
SPLINE
  5
7E
330
1F
100
AcDbEntity
  8
LAYER_1
100
AcDbSpline
210
0.0
220
0.0
230
1.0
 70
    11
 71
     3
 72
    36
 73
    32
 74
     0
 42
0.0000000001
 43
0.0000000001
 40
0.0
 40
0.0
 40
0.0
 40
0.0
 40
0.125
 40
0.125
 40
0.125
 40
0.125
 40
0.25
 40
0.25
 40
0.25
 40
0.25
 40
0.375
 40
0.375
 40
0.375
 40
0.375
 40
0.5
 40
0.5
 40
0.5
 40
0.5
 40
0.625
 40
0.625
 40
0.625
 40
0.625
 40
0.75
 40
0.75
 40
0.75
 40
0.75
 40
0.875
 40
0.875
 40
0.875
 40
0.875
 40
1.0
 40
1.0
 40
1.0
 40
1.0
 10
-102.7584
 20
-143.812
 30
0.0
 10
-102.8393
 20
-143.812
 30
0.0
 10
-102.9019
 20
-143.8418
 30
0.0
 10
-102.9466
 20
-143.9016
 30
0.0
 10
-102.9466
 20
-143.9016
 30
0.0
 10
-102.991
 20
-143.9613
 30
0.0
 10
-103.0134
 20
-144.0453
 30
0.0
 10
-103.0134
 20
-144.1537
 30
0.0
 10
-103.0134
 20
-144.1537
 30
0.0
 10
-103.0134
 20
-144.2619
 30
0.0
 10
-102.991
 20
-144.3456
 30
0.0
 10
-102.9466
 20
-144.4053
 30
0.0
 10
-102.9466
 20
-144.4053
 30
0.0
 10
-102.9019
 20
-144.4651
 30
0.0
 10
-102.8393
 20
-144.4949
 30
0.0
 10
-102.7584
 20
-144.4949
 30
0.0
 10
-102.7584
 20
-144.4949
 30
0.0
 10
-102.677
 20
-144.4949
 30
0.0
 10
-102.6143
 20
-144.4651
 30
0.0
 10
-102.5696
 20
-144.4053
 30
0.0
 10
-102.5696
 20
-144.4053
 30
0.0
 10
-102.5251
 20
-144.3456
 30
0.0
 10
-102.5028
 20
-144.2619
 30
0.0
 10
-102.5028
 20
-144.1537
 30
0.0
 10
-102.5028
 20
-144.1537
 30
0.0
 10
-102.5028
 20
-144.0453
 30
0.0
 10
-102.5251
 20
-143.9613
 30
0.0
 10
-102.5696
 20
-143.9016
 30
0.0
 10
-102.5696
 20
-143.9016
 30
0.0
 10
-102.6143
 20
-143.8418
 30
0.0
 10
-102.677
 20
-143.812
 30
0.0
 10
-102.7584
 20
-143.812
 30
0.0
  0
SPLINE
  5
7F
330
1F
100
AcDbEntity
  8
LAYER_1
100
AcDbSpline
210
0.0
220
0.0
230
1.0
 70
    11
 71
     3
 72
    36
 73
    32
 74
     0
 42
0.0000000001
 43
0.0000000001
 40
0.0
 40
0.0
 40
0.0
 40
0.0
 40
0.125
 40
0.125
 40
0.125
 40
0.125
 40
0.25
 40
0.25
 40
0.25
 40
0.25
 40
0.375
 40
0.375
 40
0.375
 40
0.375
 40
0.5
 40
0.5
 40
0.5
 40
0.5
 40
0.625
 40
0.625
 40
0.625
 40
0.625
 40
0.75
 40
0.75
 40
0.75
 40
0.75
 40
0.875
 40
0.875
 40
0.875
 40
0.875
 40
1.0
 40
1.0
 40
1.0
 40
1.0
 10
-102.7584
 20
-143.6198
 30
0.0
 10
-102.5931
 20
-143.6198
 30
0.0
 10
-102.4635
 20
-143.6671
 30
0.0
 10
-102.3699
 20
-143.7619
 30
0.0
 10
-102.3699
 20
-143.7619
 30
0.0
 10
-102.2761
 20
-143.8564
 30
0.0
 10
-102.2293
 20
-143.9869
 30
0.0
 10
-102.2293
 20
-144.1537
 30
0.0
 10
-102.2293
 20
-144.1537
 30
0.0
 10
-102.2293
 20
-144.32
 30
0.0
 10
-102.2761
 20
-144.4505
 30
0.0
 10
-102.3699
 20
-144.545
 30
0.0
 10
-102.3699
 20
-144.545
 30
0.0
 10
-102.4635
 20
-144.6398
 30
0.0
 10
-102.5931
 20
-144.6871
 30
0.0
 10
-102.7584
 20
-144.6871
 30
0.0
 10
-102.7584
 20
-144.6871
 30
0.0
 10
-102.9233
 20
-144.6871
 30
0.0
 10
-103.0526
 20
-144.6398
 30
0.0
 10
-103.1467
 20
-144.545
 30
0.0
 10
-103.1467
 20
-144.545
 30
0.0
 10
-103.2405
 20
-144.4505
 30
0.0
 10
-103.2876
 20
-144.32
 30
0.0
 10
-103.2876
 20
-144.1537
 30
0.0
 10
-103.2876
 20
-144.1537
 30
0.0
 10
-103.2876
 20
-143.9869
 30
0.0
 10
-103.2405
 20
-143.8564
 30
0.0
 10
-103.1467
 20
-143.7619
 30
0.0
 10
-103.1467
 20
-143.7619
 30
0.0
 10
-103.0526
 20
-143.6671
 30
0.0
 10
-102.9233
 20
-143.6198
 30
0.0
 10
-102.7584
 20
-143.6198
 30
0.0
  0
SPLINE
  5
80
330
1F
100
AcDbEntity
  8
LAYER_1
100
AcDbSpline
210
0.0
220
0.0
230
1.0
 70
    11
 71
     3
 72
    32
 73
    28
 74
     0
 42
0.0000000001
 43
0.0000000001
 40
0.0
 40
0.0
 40
0.0
 40
0.0
 40
0.1428571428571428
 40
0.1428571428571428
 40
0.1428571428571428
 40
0.1428571428571428
 40
0.2857142857142857
 40
0.2857142857142857
 40
0.2857142857142857
 40
0.2857142857142857
 40
0.4285714285714285
 40
0.4285714285714285
 40
0.4285714285714285
 40
0.4285714285714285
 40
0.5714285714285714
 40
0.5714285714285714
 40
0.5714285714285714
 40
0.5714285714285714
 40
0.7142857142857142
 40
0.7142857142857142
 40
0.7142857142857142
 40
0.7142857142857142
 40
0.857142857142857
 40
0.857142857142857
 40
0.857142857142857
 40
0.857142857142857
 40
1.0
 40
1.0
 40
1.0
 40
1.0
 10
-101.6516
 20
-144.0947
 30
0.0
 10
-101.5961
 20
-144.0947
 30
0.0
 10
-101.5561
 20
-144.0843
 30
0.0
 10
-101.5321
 20
-144.0636
 30
0.0
 10
-101.5321
 20
-144.0636
 30
0.0
 10
-101.5079
 20
-144.0429
 30
0.0
 10
-101.4959
 20
-144.0088
 30
0.0
 10
-101.4959
 20
-143.9615
 30
0.0
 10
-101.4959
 20
-143.9615
 30
0.0
 10
-101.4959
 20
-143.9147
 30
0.0
 10
-101.5079
 20
-143.8811
 30
0.0
 10
-101.5321
 20
-143.8609
 30
0.0
 10
-101.5321
 20
-143.8609
 30
0.0
 10
-101.5561
 20
-143.8407
 30
0.0
 10
-101.5961
 20
-143.8306
 30
0.0
 10
-101.6516
 20
-143.8306
 30
0.0
 10
-101.6516
 20
-143.8306
 30
0.0
 10
-101.6516
 20
-143.8306
 30
0.0
 10
-101.7633
 20
-143.8306
 30
0.0
 10
-101.7633
 20
-143.8306
 30
0.0
 10
-101.7633
 20
-143.8306
 30
0.0
 10
-101.7633
 20
-143.8306
 30
0.0
 10
-101.7633
 20
-144.0947
 30
0.0
 10
-101.7633
 20
-144.0947
 30
0.0
 10
-101.7633
 20
-144.0947
 30
0.0
 10
-101.7633
 20
-144.0947
 30
0.0
 10
-101.6516
 20
-144.0947
 30
0.0
 10
-101.6516
 20
-144.0947
 30
0.0
  0
SPLINE
  5
81
330
1F
100
AcDbEntity
  8
LAYER_1
100
AcDbSpline
210
0.0
220
0.0
230
1.0
 70
    11
 71
     3
 72
    68
 73
    64
 74
     0
 42
0.0000000001
 43
0.0000000001
 40
0.0
 40
0.0
 40
0.0
 40
0.0
 40
0.0625
 40
0.0625
 40
0.0625
 40
0.0625
 40
0.125
 40
0.125
 40
0.125
 40
0.125
 40
0.1875
 40
0.1875
 40
0.1875
 40
0.1875
 40
0.25
 40
0.25
 40
0.25
 40
0.25
 40
0.3125
 40
0.3125
 40
0.3125
 40
0.3125
 40
0.375
 40
0.375
 40
0.375
 40
0.375
 40
0.4375
 40
0.4375
 40
0.4375
 40
0.4375
 40
0.5
 40
0.5
 40
0.5
 40
0.5
 40
0.5625
 40
0.5625
 40
0.5625
 40
0.5625
 40
0.625
 40
0.625
 40
0.625
 40
0.625
 40
0.6875
 40
0.6875
 40
0.6875
 40
0.6875
 40
0.75
 40
0.75
 40
0.75
 40
0.75
 40
0.8125
 40
0.8125
 40
0.8125
 40
0.8125
 40
0.875
 40
0.875
 40
0.875
 40
0.875
 40
0.9375
 40
0.9375
 40
0.9375
 40
0.9375
 40
1.0
 40
1.0
 40
1.0
 40
1.0
 10
-101.7633
 20
-144.2779
 30
0.0
 10
-101.7633
 20
-144.2779
 30
0.0
 10
-101.7633
 20
-144.6671
 30
0.0
 10
-101.7633
 20
-144.6671
 30
0.0
 10
-101.7633
 20
-144.6671
 30
0.0
 10
-101.7633
 20
-144.6671
 30
0.0
 10
-102.0286
 20
-144.6671
 30
0.0
 10
-102.0286
 20
-144.6671
 30
0.0
 10
-102.0286
 20
-144.6671
 30
0.0
 10
-102.0286
 20
-144.6671
 30
0.0
 10
-102.0286
 20
-143.6384
 30
0.0
 10
-102.0286
 20
-143.6384
 30
0.0
 10
-102.0286
 20
-143.6384
 30
0.0
 10
-102.0286
 20
-143.6384
 30
0.0
 10
-101.6234
 20
-143.6384
 30
0.0
 10
-101.6234
 20
-143.6384
 30
0.0
 10
-101.6234
 20
-143.6384
 30
0.0
 10
-101.4879
 20
-143.6384
 30
0.0
 10
-101.3884
 20
-143.6612
 30
0.0
 10
-101.3254
 20
-143.7066
 30
0.0
 10
-101.3254
 20
-143.7066
 30
0.0
 10
-101.2622
 20
-143.752
 30
0.0
 10
-101.2306
 20
-143.824
 30
0.0
 10
-101.2306
 20
-143.9223
 30
0.0
 10
-101.2306
 20
-143.9223
 30
0.0
 10
-101.2306
 20
-143.9902
 30
0.0
 10
-101.2471
 20
-144.0462
 30
0.0
 10
-101.2798
 20
-144.0897
 30
0.0
 10
-101.2798
 20
-144.0897
 30
0.0
 10
-101.3127
 20
-144.1335
 30
0.0
 10
-101.3623
 20
-144.1657
 30
0.0
 10
-101.4284
 20
-144.1862
 30
0.0
 10
-101.4284
 20
-144.1862
 30
0.0
 10
-101.3922
 20
-144.1946
 30
0.0
 10
-101.3595
 20
-144.2132
 30
0.0
 10
-101.3308
 20
-144.2424
 30
0.0
 10
-101.3308
 20
-144.2424
 30
0.0
 10
-101.3021
 20
-144.2715
 30
0.0
 10
-101.2732
 20
-144.3157
 30
0.0
 10
-101.2438
 20
-144.375
 30
0.0
 10
-101.2438
 20
-144.375
 30
0.0
 10
-101.2438
 20
-144.375
 30
0.0
 10
-101.0996
 20
-144.6671
 30
0.0
 10
-101.0996
 20
-144.6671
 30
0.0
 10
-101.0996
 20
-144.6671
 30
0.0
 10
-101.0996
 20
-144.6671
 30
0.0
 10
-101.3823
 20
-144.6671
 30
0.0
 10
-101.3823
 20
-144.6671
 30
0.0
 10
-101.3823
 20
-144.6671
 30
0.0
 10
-101.3823
 20
-144.6671
 30
0.0
 10
-101.5077
 20
-144.4115
 30
0.0
 10
-101.5077
 20
-144.4115
 30
0.0
 10
-101.5077
 20
-144.4115
 30
0.0
 10
-101.5328
 20
-144.3602
 30
0.0
 10
-101.5585
 20
-144.3249
 30
0.0
 10
-101.5846
 20
-144.3061
 30
0.0
 10
-101.5846
 20
-144.3061
 30
0.0
 10
-101.6105
 20
-144.2873
 30
0.0
 10
-101.645
 20
-144.2779
 30
0.0
 10
-101.6883
 20
-144.2779
 30
0.0
 10
-101.6883
 20
-144.2779
 30
0.0
 10
-101.6883
 20
-144.2779
 30
0.0
 10
-101.7633
 20
-144.2779
 30
0.0
 10
-101.7633
 20
-144.2779
 30
0.0
  0
SPLINE
  5
82
330
1F
100
AcDbEntity
  8
LAYER_1
100
AcDbSpline
210
0.0
220
0.0
230
1.0
 70
    11
 71
     3
 72
    36
 73
    32
 74
     0
 42
0.0000000001
 43
0.0000000001
 40
0.0
 40
0.0
 40
0.0
 40
0.0
 40
0.125
 40
0.125
 40
0.125
 40
0.125
 40
0.25
 40
0.25
 40
0.25
 40
0.25
 40
0.375
 40
0.375
 40
0.375
 40
0.375
 40
0.5
 40
0.5
 40
0.5
 40
0.5
 40
0.625
 40
0.625
 40
0.625
 40
0.625
 40
0.75
 40
0.75
 40
0.75
 40
0.75
 40
0.875
 40
0.875
 40
0.875
 40
0.875
 40
1.0
 40
1.0
 40
1.0
 40
1.0
 10
-108.5788
 20
-151.8523
 30
0.0
 10
-108.6245
 20
-151.8523
 30
0.0
 10
-108.659
 20
-151.87
 30
0.0
 10
-108.6825
 20
-151.9055
 30
0.0
 10
-108.6825
 20
-151.9055
 30
0.0
 10
-108.706
 20
-151.941
 30
0.0
 10
-108.7177
 20
-151.9937
 30
0.0
 10
-108.7177
 20
-152.0632
 30
0.0
 10
-108.7177
 20
-152.0632
 30
0.0
 10
-108.7177
 20
-152.1325
 30
0.0
 10
-108.706
 20
-152.185
 30
0.0
 10
-108.6825
 20
-152.2207
 30
0.0
 10
-108.6825
 20
-152.2207
 30
0.0
 10
-108.659
 20
-152.2564
 30
0.0
 10
-108.6245
 20
-152.2742
 30
0.0
 10
-108.5788
 20
-152.2742
 30
0.0
 10
-108.5788
 20
-152.2742
 30
0.0
 10
-108.533
 20
-152.2742
 30
0.0
 10
-108.4983
 20
-152.2564
 30
0.0
 10
-108.4748
 20
-152.2207
 30
0.0
 10
-108.4748
 20
-152.2207
 30
0.0
 10
-108.4513
 20
-152.185
 30
0.0
 10
-108.4397
 20
-152.1325
 30
0.0
 10
-108.4397
 20
-152.0632
 30
0.0
 10
-108.4397
 20
-152.0632
 30
0.0
 10
-108.4397
 20
-151.9937
 30
0.0
 10
-108.4513
 20
-151.941
 30
0.0
 10
-108.4748
 20
-151.9055
 30
0.0
 10
-108.4748
 20
-151.9055
 30
0.0
 10
-108.4983
 20
-151.87
 30
0.0
 10
-108.533
 20
-151.8523
 30
0.0
 10
-108.5788
 20
-151.8523
 30
0.0
  0
SPLINE
  5
83
330
1F
100
AcDbEntity
  8
LAYER_1
100
AcDbSpline
210
0.0
220
0.0
230
1.0
 70
    11
 71
     3
 72
    36
 73
    32
 74
     0
 42
0.0000000001
 43
0.0000000001
 40
0.0
 40
0.0
 40
0.0
 40
0.0
 40
0.125
 40
0.125
 40
0.125
 40
0.125
 40
0.25
 40
0.25
 40
0.25
 40
0.25
 40
0.375
 40
0.375
 40
0.375
 40
0.375
 40
0.5
 40
0.5
 40
0.5
 40
0.5
 40
0.625
 40
0.625
 40
0.625
 40
0.625
 40
0.75
 40
0.75
 40
0.75
 40
0.75
 40
0.875
 40
0.875
 40
0.875
 40
0.875
 40
1.0
 40
1.0
 40
1.0
 40
1.0
 10
-108.5788
 20
-151.7761
 30
0.0
 10
-108.503
 20
-151.7761
 30
0.0
 10
-108.445
 20
-151.8006
 30
0.0
 10
-108.4048
 20
-151.8498
 30
0.0
 10
-108.4048
 20
-151.8498
 30
0.0
 10
-108.3646
 20
-151.899
 30
0.0
 10
-108.3445
 20
-151.9702
 30
0.0
 10
-108.3445
 20
-152.0632
 30
0.0
 10
-108.3445
 20
-152.0632
 30
0.0
 10
-108.3445
 20
-152.1567
 30
0.0
 10
-108.3645
 20
-152.2279
 30
0.0
 10
-108.4045
 20
-152.2769
 30
0.0
 10
-108.4045
 20
-152.2769
 30
0.0
 10
-108.4447
 20
-152.3259
 30
0.0
 10
-108.5027
 20
-152.3504
 30
0.0
 10
-108.5788
 20
-152.3504
 30
0.0
 10
-108.5788
 20
-152.3504
 30
0.0
 10
-108.6548
 20
-152.3504
 30
0.0
 10
-108.7127
 20
-152.3259
 30
0.0
 10
-108.7529
 20
-152.2769
 30
0.0
 10
-108.7529
 20
-152.2769
 30
0.0
 10
-108.7929
 20
-152.2279
 30
0.0
 10
-108.8129
 20
-152.1567
 30
0.0
 10
-108.8129
 20
-152.0632
 30
0.0
 10
-108.8129
 20
-152.0632
 30
0.0
 10
-108.8129
 20
-151.9702
 30
0.0
 10
-108.7929
 20
-151.899
 30
0.0
 10
-108.7529
 20
-151.8498
 30
0.0
 10
-108.7529
 20
-151.8498
 30
0.0
 10
-108.7127
 20
-151.8006
 30
0.0
 10
-108.6548
 20
-151.7761
 30
0.0
 10
-108.5788
 20
-151.7761
 30
0.0
  0
SPLINE
  5
84
330
1F
100
AcDbEntity
  8
LAYER_1
100
AcDbSpline
210
0.0
220
0.0
230
1.0
 70
    11
 71
     3
 72
    36
 73
    32
 74
     0
 42
0.0000000001
 43
0.0000000001
 40
0.0
 40
0.0
 40
0.0
 40
0.0
 40
0.125
 40
0.125
 40
0.125
 40
0.125
 40
0.25
 40
0.25
 40
0.25
 40
0.25
 40
0.375
 40
0.375
 40
0.375
 40
0.375
 40
0.5
 40
0.5
 40
0.5
 40
0.5
 40
0.625
 40
0.625
 40
0.625
 40
0.625
 40
0.75
 40
0.75
 40
0.75
 40
0.75
 40
0.875
 40
0.875
 40
0.875
 40
0.875
 40
1.0
 40
1.0
 40
1.0
 40
1.0
 10
-107.9767
 20
-151.8523
 30
0.0
 10
-108.0224
 20
-151.8523
 30
0.0
 10
-108.0569
 20
-151.87
 30
0.0
 10
-108.0804
 20
-151.9055
 30
0.0
 10
-108.0804
 20
-151.9055
 30
0.0
 10
-108.1039
 20
-151.941
 30
0.0
 10
-108.1156
 20
-151.9937
 30
0.0
 10
-108.1156
 20
-152.0632
 30
0.0
 10
-108.1156
 20
-152.0632
 30
0.0
 10
-108.1156
 20
-152.1325
 30
0.0
 10
-108.1039
 20
-152.185
 30
0.0
 10
-108.0804
 20
-152.2207
 30
0.0
 10
-108.0804
 20
-152.2207
 30
0.0
 10
-108.0569
 20
-152.2564
 30
0.0
 10
-108.0224
 20
-152.2742
 30
0.0
 10
-107.9767
 20
-152.2742
 30
0.0
 10
-107.9767
 20
-152.2742
 30
0.0
 10
-107.9309
 20
-152.2742
 30
0.0
 10
-107.8962
 20
-152.2564
 30
0.0
 10
-107.8727
 20
-152.2207
 30
0.0
 10
-107.8727
 20
-152.2207
 30
0.0
 10
-107.8492
 20
-152.185
 30
0.0
 10
-107.8376
 20
-152.1325
 30
0.0
 10
-107.8376
 20
-152.0632
 30
0.0
 10
-107.8376
 20
-152.0632
 30
0.0
 10
-107.8376
 20
-151.9937
 30
0.0
 10
-107.8492
 20
-151.941
 30
0.0
 10
-107.8727
 20
-151.9055
 30
0.0
 10
-107.8727
 20
-151.9055
 30
0.0
 10
-107.8962
 20
-151.87
 30
0.0
 10
-107.9309
 20
-151.8523
 30
0.0
 10
-107.9767
 20
-151.8523
 30
0.0
  0
SPLINE
  5
85
330
1F
100
AcDbEntity
  8
LAYER_1
100
AcDbSpline
210
0.0
220
0.0
230
1.0
 70
    11
 71
     3
 72
    36
 73
    32
 74
     0
 42
0.0000000001
 43
0.0000000001
 40
0.0
 40
0.0
 40
0.0
 40
0.0
 40
0.125
 40
0.125
 40
0.125
 40
0.125
 40
0.25
 40
0.25
 40
0.25
 40
0.25
 40
0.375
 40
0.375
 40
0.375
 40
0.375
 40
0.5
 40
0.5
 40
0.5
 40
0.5
 40
0.625
 40
0.625
 40
0.625
 40
0.625
 40
0.75
 40
0.75
 40
0.75
 40
0.75
 40
0.875
 40
0.875
 40
0.875
 40
0.875
 40
1.0
 40
1.0
 40
1.0
 40
1.0
 10
-107.9767
 20
-151.7761
 30
0.0
 10
-107.9009
 20
-151.7761
 30
0.0
 10
-107.8429
 20
-151.8006
 30
0.0
 10
-107.8027
 20
-151.8498
 30
0.0
 10
-107.8027
 20
-151.8498
 30
0.0
 10
-107.7625
 20
-151.899
 30
0.0
 10
-107.7424
 20
-151.9702
 30
0.0
 10
-107.7424
 20
-152.0632
 30
0.0
 10
-107.7424
 20
-152.0632
 30
0.0
 10
-107.7424
 20
-152.1567
 30
0.0
 10
-107.7624
 20
-152.2279
 30
0.0
 10
-107.8024
 20
-152.2769
 30
0.0
 10
-107.8024
 20
-152.2769
 30
0.0
 10
-107.8426
 20
-152.3259
 30
0.0
 10
-107.9006
 20
-152.3504
 30
0.0
 10
-107.9767
 20
-152.3504
 30
0.0
 10
-107.9767
 20
-152.3504
 30
0.0
 10
-108.0527
 20
-152.3504
 30
0.0
 10
-108.1106
 20
-152.3259
 30
0.0
 10
-108.1508
 20
-152.2769
 30
0.0
 10
-108.1508
 20
-152.2769
 30
0.0
 10
-108.1908
 20
-152.2279
 30
0.0
 10
-108.2108
 20
-152.1567
 30
0.0
 10
-108.2108
 20
-152.0632
 30
0.0
 10
-108.2108
 20
-152.0632
 30
0.0
 10
-108.2108
 20
-151.9702
 30
0.0
 10
-108.1908
 20
-151.899
 30
0.0
 10
-108.1508
 20
-151.8498
 30
0.0
 10
-108.1508
 20
-151.8498
 30
0.0
 10
-108.1106
 20
-151.8006
 30
0.0
 10
-108.0527
 20
-151.7761
 30
0.0
 10
-107.9767
 20
-151.7761
 30
0.0
  0
SPLINE
  5
86
330
1F
100
AcDbEntity
  8
LAYER_1
100
AcDbSpline
210
0.0
220
0.0
230
1.0
 70
    11
 71
     3
 72
   112
 73
   108
 74
     0
 42
0.0000000001
 43
0.0000000001
 40
0.0
 40
0.0
 40
0.0
 40
0.0
 40
0.037037037037037
 40
0.037037037037037
 40
0.037037037037037
 40
0.037037037037037
 40
0.0740740740740741
 40
0.0740740740740741
 40
0.0740740740740741
 40
0.0740740740740741
 40
0.1111111111111111
 40
0.1111111111111111
 40
0.1111111111111111
 40
0.1111111111111111
 40
0.1481481481481481
 40
0.1481481481481481
 40
0.1481481481481481
 40
0.1481481481481481
 40
0.1851851851851852
 40
0.1851851851851852
 40
0.1851851851851852
 40
0.1851851851851852
 40
0.2222222222222222
 40
0.2222222222222222
 40
0.2222222222222222
 40
0.2222222222222222
 40
0.2592592592592592
 40
0.2592592592592592
 40
0.2592592592592592
 40
0.2592592592592592
 40
0.2962962962962963
 40
0.2962962962962963
 40
0.2962962962962963
 40
0.2962962962962963
 40
0.3333333333333333
 40
0.3333333333333333
 40
0.3333333333333333
 40
0.3333333333333333
 40
0.3703703703703703
 40
0.3703703703703703
 40
0.3703703703703703
 40
0.3703703703703703
 40
0.4074074074074074
 40
0.4074074074074074
 40
0.4074074074074074
 40
0.4074074074074074
 40
0.4444444444444444
 40
0.4444444444444444
 40
0.4444444444444444
 40
0.4444444444444444
 40
0.4814814814814815
 40
0.4814814814814815
 40
0.4814814814814815
 40
0.4814814814814815
 40
0.5185185185185185
 40
0.5185185185185185
 40
0.5185185185185185
 40
0.5185185185185185
 40
0.5555555555555556
 40
0.5555555555555556
 40
0.5555555555555556
 40
0.5555555555555556
 40
0.5925925925925926
 40
0.5925925925925926
 40
0.5925925925925926
 40
0.5925925925925926
 40
0.6296296296296295
 40
0.6296296296296295
 40
0.6296296296296295
 40
0.6296296296296295
 40
0.6666666666666665
 40
0.6666666666666665
 40
0.6666666666666665
 40
0.6666666666666665
 40
0.7037037037037035
 40
0.7037037037037035
 40
0.7037037037037035
 40
0.7037037037037035
 40
0.7407407407407405
 40
0.7407407407407405
 40
0.7407407407407405
 40
0.7407407407407405
 40
0.7777777777777775
 40
0.7777777777777775
 40
0.7777777777777775
 40
0.7777777777777775
 40
0.8148148148148144
 40
0.8148148148148144
 40
0.8148148148148144
 40
0.8148148148148144
 40
0.8518518518518514
 40
0.8518518518518514
 40
0.8518518518518514
 40
0.8518518518518514
 40
0.8888888888888884
 40
0.8888888888888884
 40
0.8888888888888884
 40
0.8888888888888884
 40
0.9259259259259254
 40
0.9259259259259254
 40
0.9259259259259254
 40
0.9259259259259254
 40
0.9629629629629624
 40
0.9629629629629624
 40
0.9629629629629624
 40
0.9629629629629624
 40
1.0
 40
1.0
 40
1.0
 40
1.0
 10
-107.3455
 20
-151.845
 30
0.0
 10
-107.3345
 20
-151.8215
 30
0.0
 10
-107.3203
 20
-151.8041
 30
0.0
 10
-107.3031
 20
-151.793
 30
0.0
 10
-107.3031
 20
-151.793
 30
0.0
 10
-107.2861
 20
-151.7818
 30
0.0
 10
-107.2655
 20
-151.7761
 30
0.0
 10
-107.2415
 20
-151.7761
 30
0.0
 10
-107.2415
 20
-151.7761
 30
0.0
 10
-107.1975
 20
-151.7761
 30
0.0
 10
-107.1664
 20
-151.7931
 30
0.0
 10
-107.1484
 20
-151.8271
 30
0.0
 10
-107.1484
 20
-151.8271
 30
0.0
 10
-107.1303
 20
-151.8612
 30
0.0
 10
-107.1213
 20
-151.9252
 30
0.0
 10
-107.1213
 20
-152.0193
 30
0.0
 10
-107.1213
 20
-152.0193
 30
0.0
 10
-107.1213
 20
-152.0193
 30
0.0
 10
-107.1213
 20
-152.3362
 30
0.0
 10
-107.1213
 20
-152.3362
 30
0.0
 10
-107.1213
 20
-152.3362
 30
0.0
 10
-107.1213
 20
-152.3362
 30
0.0
 10
-107.2033
 20
-152.3362
 30
0.0
 10
-107.2033
 20
-152.3362
 30
0.0
 10
-107.2033
 20
-152.3362
 30
0.0
 10
-107.2033
 20
-152.3362
 30
0.0
 10
-107.2033
 20
-152.0232
 30
0.0
 10
-107.2033
 20
-152.0232
 30
0.0
 10
-107.2033
 20
-152.0232
 30
0.0
 10
-107.2033
 20
-151.946
 30
0.0
 10
-107.2076
 20
-151.8982
 30
0.0
 10
-107.2163
 20
-151.8793
 30
0.0
 10
-107.2163
 20
-151.8793
 30
0.0
 10
-107.2248
 20
-151.8607
 30
0.0
 10
-107.2406
 20
-151.8513
 30
0.0
 10
-107.2635
 20
-151.8513
 30
0.0
 10
-107.2635
 20
-151.8513
 30
0.0
 10
-107.2895
 20
-151.8513
 30
0.0
 10
-107.3073
 20
-151.8613
 30
0.0
 10
-107.317
 20
-151.8813
 30
0.0
 10
-107.317
 20
-151.8813
 30
0.0
 10
-107.3265
 20
-151.9013
 30
0.0
 10
-107.3313
 20
-151.9487
 30
0.0
 10
-107.3313
 20
-152.0232
 30
0.0
 10
-107.3313
 20
-152.0232
 30
0.0
 10
-107.3313
 20
-152.0232
 30
0.0
 10
-107.3313
 20
-152.3362
 30
0.0
 10
-107.3313
 20
-152.3362
 30
0.0
 10
-107.3313
 20
-152.3362
 30
0.0
 10
-107.3313
 20
-152.3362
 30
0.0
 10
-107.4133
 20
-152.3362
 30
0.0
 10
-107.4133
 20
-152.3362
 30
0.0
 10
-107.4133
 20
-152.3362
 30
0.0
 10
-107.4133
 20
-152.3362
 30
0.0
 10
-107.4133
 20
-152.0232
 30
0.0
 10
-107.4133
 20
-152.0232
 30
0.0
 10
-107.4133
 20
-152.0232
 30
0.0
 10
-107.4133
 20
-151.945
 30
0.0
 10
-107.418
 20
-151.8968
 30
0.0
 10
-107.4273
 20
-151.8787
 30
0.0
 10
-107.4273
 20
-151.8787
 30
0.0
 10
-107.4365
 20
-151.8605
 30
0.0
 10
-107.4531
 20
-151.8513
 30
0.0
 10
-107.4773
 20
-151.8513
 30
0.0
 10
-107.4773
 20
-151.8513
 30
0.0
 10
-107.5011
 20
-151.8513
 30
0.0
 10
-107.5177
 20
-151.8613
 30
0.0
 10
-107.5268
 20
-151.8813
 30
0.0
 10
-107.5268
 20
-151.8813
 30
0.0
 10
-107.5362
 20
-151.9013
 30
0.0
 10
-107.5408
 20
-151.9487
 30
0.0
 10
-107.5408
 20
-152.0232
 30
0.0
 10
-107.5408
 20
-152.0232
 30
0.0
 10
-107.5408
 20
-152.0232
 30
0.0
 10
-107.5408
 20
-152.3362
 30
0.0
 10
-107.5408
 20
-152.3362
 30
0.0
 10
-107.5408
 20
-152.3362
 30
0.0
 10
-107.5408
 20
-152.3362
 30
0.0
 10
-107.6223
 20
-152.3362
 30
0.0
 10
-107.6223
 20
-152.3362
 30
0.0
 10
-107.6223
 20
-152.3362
 30
0.0
 10
-107.6223
 20
-152.3362
 30
0.0
 10
-107.6223
 20
-151.7893
 30
0.0
 10
-107.6223
 20
-151.7893
 30
0.0
 10
-107.6223
 20
-151.7893
 30
0.0
 10
-107.6223
 20
-151.7893
 30
0.0
 10
-107.5408
 20
-151.7893
 30
0.0
 10
-107.5408
 20
-151.7893
 30
0.0
 10
-107.5408
 20
-151.7893
 30
0.0
 10
-107.5408
 20
-151.7893
 30
0.0
 10
-107.5408
 20
-151.8361
 30
0.0
 10
-107.5408
 20
-151.8361
 30
0.0
 10
-107.5408
 20
-151.8361
 30
0.0
 10
-107.5302
 20
-151.8166
 30
0.0
 10
-107.5167
 20
-151.8018
 30
0.0
 10
-107.5005
 20
-151.7915
 30
0.0
 10
-107.5005
 20
-151.7915
 30
0.0
 10
-107.4845
 20
-151.7813
 30
0.0
 10
-107.4661
 20
-151.7761
 30
0.0
 10
-107.4456
 20
-151.7761
 30
0.0
 10
-107.4456
 20
-151.7761
 30
0.0
 10
-107.4208
 20
-151.7761
 30
0.0
 10
-107.4003
 20
-151.7818
 30
0.0
 10
-107.3838
 20
-151.7931
 30
0.0
 10
-107.3838
 20
-151.7931
 30
0.0
 10
-107.3673
 20
-151.8046
 30
0.0
 10
-107.3546
 20
-151.8218
 30
0.0
 10
-107.3455
 20
-151.845
 30
0.0
  0
SPLINE
  5
87
330
1F
100
AcDbEntity
  8
LAYER_1
100
AcDbSpline
210
0.0
220
0.0
230
1.0
 70
    11
 71
     3
 72
    20
 73
    16
 74
     0
 42
0.0000000001
 43
0.0000000001
 40
0.0
 40
0.0
 40
0.0
 40
0.0
 40
0.25
 40
0.25
 40
0.25
 40
0.25
 40
0.5
 40
0.5
 40
0.5
 40
0.5
 40
0.75
 40
0.75
 40
0.75
 40
0.75
 40
1.0
 40
1.0
 40
1.0
 40
1.0
 10
-106.8345
 20
-152.1872
 30
0.0
 10
-106.8345
 20
-152.1872
 30
0.0
 10
-106.7115
 20
-152.1872
 30
0.0
 10
-106.7115
 20
-152.1872
 30
0.0
 10
-106.7115
 20
-152.1872
 30
0.0
 10
-106.7115
 20
-152.1872
 30
0.0
 10
-106.7115
 20
-152.3362
 30
0.0
 10
-106.7115
 20
-152.3362
 30
0.0
 10
-106.7115
 20
-152.3362
 30
0.0
 10
-106.7115
 20
-152.3362
 30
0.0
 10
-106.8345
 20
-152.3362
 30
0.0
 10
-106.8345
 20
-152.3362
 30
0.0
 10
-106.8345
 20
-152.3362
 30
0.0
 10
-106.8345
 20
-152.3362
 30
0.0
 10
-106.8345
 20
-152.1872
 30
0.0
 10
-106.8345
 20
-152.1872
 30
0.0
  0
SPLINE
  5
88
330
1F
100
AcDbEntity
  8
LAYER_1
100
AcDbSpline
210
0.0
220
0.0
230
1.0
 70
    11
 71
     3
 72
    52
 73
    48
 74
     0
 42
0.0000000001
 43
0.0000000001
 40
0.0
 40
0.0
 40
0.0
 40
0.0
 40
0.0833333333333333
 40
0.0833333333333333
 40
0.0833333333333333
 40
0.0833333333333333
 40
0.1666666666666667
 40
0.1666666666666667
 40
0.1666666666666667
 40
0.1666666666666667
 40
0.25
 40
0.25
 40
0.25
 40
0.25
 40
0.3333333333333333
 40
0.3333333333333333
 40
0.3333333333333333
 40
0.3333333333333333
 40
0.4166666666666666
 40
0.4166666666666666
 40
0.4166666666666666
 40
0.4166666666666666
 40
0.4999999999999999
 40
0.4999999999999999
 40
0.4999999999999999
 40
0.4999999999999999
 40
0.5833333333333333
 40
0.5833333333333333
 40
0.5833333333333333
 40
0.5833333333333333
 40
0.6666666666666666
 40
0.6666666666666666
 40
0.6666666666666666
 40
0.6666666666666666
 40
0.75
 40
0.75
 40
0.75
 40
0.75
 40
0.8333333333333334
 40
0.8333333333333334
 40
0.8333333333333334
 40
0.8333333333333334
 40
0.9166666666666667
 40
0.9166666666666667
 40
0.9166666666666667
 40
0.9166666666666667
 40
1.0
 40
1.0
 40
1.0
 40
1.0
 10
-106.1593
 20
-152.138
 30
0.0
 10
-106.1593
 20
-152.1784
 30
0.0
 10
-106.1519
 20
-152.2087
 30
0.0
 10
-106.1371
 20
-152.2292
 30
0.0
 10
-106.1371
 20
-152.2292
 30
0.0
 10
-106.1223
 20
-152.2497
 30
0.0
 10
-106.1004
 20
-152.26
 30
0.0
 10
-106.0714
 20
-152.26
 30
0.0
 10
-106.0714
 20
-152.26
 30
0.0
 10
-106.0714
 20
-152.26
 30
0.0
 10
-105.9664
 20
-152.26
 30
0.0
 10
-105.9664
 20
-152.26
 30
0.0
 10
-105.9664
 20
-152.26
 30
0.0
 10
-105.9664
 20
-152.26
 30
0.0
 10
-105.9664
 20
-152.3362
 30
0.0
 10
-105.9664
 20
-152.3362
 30
0.0
 10
-105.9664
 20
-152.3362
 30
0.0
 10
-105.9664
 20
-152.3362
 30
0.0
 10
-106.0801
 20
-152.3362
 30
0.0
 10
-106.0801
 20
-152.3362
 30
0.0
 10
-106.0801
 20
-152.3362
 30
0.0
 10
-106.1339
 20
-152.3362
 30
0.0
 10
-106.1754
 20
-152.3189
 30
0.0
 10
-106.2049
 20
-152.2844
 30
0.0
 10
-106.2049
 20
-152.2844
 30
0.0
 10
-106.2344
 20
-152.2499
 30
0.0
 10
-106.2491
 20
-152.201
 30
0.0
 10
-106.2491
 20
-152.138
 30
0.0
 10
-106.2491
 20
-152.138
 30
0.0
 10
-106.2491
 20
-152.138
 30
0.0
 10
-106.2491
 20
-151.6413
 30
0.0
 10
-106.2491
 20
-151.6413
 30
0.0
 10
-106.2491
 20
-151.6413
 30
0.0
 10
-106.2491
 20
-151.6413
 30
0.0
 10
-106.3931
 20
-151.6413
 30
0.0
 10
-106.3931
 20
-151.6413
 30
0.0
 10
-106.3931
 20
-151.6413
 30
0.0
 10
-106.3931
 20
-151.6413
 30
0.0
 10
-106.3931
 20
-151.571
 30
0.0
 10
-106.3931
 20
-151.571
 30
0.0
 10
-106.3931
 20
-151.571
 30
0.0
 10
-106.3931
 20
-151.571
 30
0.0
 10
-106.1593
 20
-151.571
 30
0.0
 10
-106.1593
 20
-151.571
 30
0.0
 10
-106.1593
 20
-151.571
 30
0.0
 10
-106.1593
 20
-151.571
 30
0.0
 10
-106.1593
 20
-152.138
 30
0.0
 10
-106.1593
 20
-152.138
 30
0.0
  0
SPLINE
  5
89
330
1F
100
AcDbEntity
  8
LAYER_1
100
AcDbSpline
210
0.0
220
0.0
230
1.0
 70
    11
 71
     3
 72
    76
 73
    72
 74
     0
 42
0.0000000001
 43
0.0000000001
 40
0.0
 40
0.0
 40
0.0
 40
0.0
 40
0.0555555555555556
 40
0.0555555555555556
 40
0.0555555555555556
 40
0.0555555555555556
 40
0.1111111111111111
 40
0.1111111111111111
 40
0.1111111111111111
 40
0.1111111111111111
 40
0.1666666666666667
 40
0.1666666666666667
 40
0.1666666666666667
 40
0.1666666666666667
 40
0.2222222222222222
 40
0.2222222222222222
 40
0.2222222222222222
 40
0.2222222222222222
 40
0.2777777777777778
 40
0.2777777777777778
 40
0.2777777777777778
 40
0.2777777777777778
 40
0.3333333333333334
 40
0.3333333333333334
 40
0.3333333333333334
 40
0.3333333333333334
 40
0.388888888888889
 40
0.388888888888889
 40
0.388888888888889
 40
0.388888888888889
 40
0.4444444444444445
 40
0.4444444444444445
 40
0.4444444444444445
 40
0.4444444444444445
 40
0.5000000000000001
 40
0.5000000000000001
 40
0.5000000000000001
 40
0.5000000000000001
 40
0.5555555555555557
 40
0.5555555555555557
 40
0.5555555555555557
 40
0.5555555555555557
 40
0.6111111111111113
 40
0.6111111111111113
 40
0.6111111111111113
 40
0.6111111111111113
 40
0.6666666666666669
 40
0.6666666666666669
 40
0.6666666666666669
 40
0.6666666666666669
 40
0.7222222222222224
 40
0.7222222222222224
 40
0.7222222222222224
 40
0.7222222222222224
 40
0.777777777777778
 40
0.777777777777778
 40
0.777777777777778
 40
0.777777777777778
 40
0.8333333333333336
 40
0.8333333333333336
 40
0.8333333333333336
 40
0.8333333333333336
 40
0.8888888888888892
 40
0.8888888888888892
 40
0.8888888888888892
 40
0.8888888888888892
 40
0.9444444444444448
 40
0.9444444444444448
 40
0.9444444444444448
 40
0.9444444444444448
 40
1.0
 40
1.0
 40
1.0
 40
1.0
 10
-105.5693
 20
-151.634
 30
0.0
 10
-105.5693
 20
-151.634
 30
0.0
 10
-105.5693
 20
-151.7893
 30
0.0
 10
-105.5693
 20
-151.7893
 30
0.0
 10
-105.5693
 20
-151.7893
 30
0.0
 10
-105.5693
 20
-151.7893
 30
0.0
 10
-105.3651
 20
-151.7893
 30
0.0
 10
-105.3651
 20
-151.7893
 30
0.0
 10
-105.3651
 20
-151.7893
 30
0.0
 10
-105.3651
 20
-151.7893
 30
0.0
 10
-105.3651
 20
-151.8592
 30
0.0
 10
-105.3651
 20
-151.8592
 30
0.0
 10
-105.3651
 20
-151.8592
 30
0.0
 10
-105.3651
 20
-151.8592
 30
0.0
 10
-105.5693
 20
-151.8592
 30
0.0
 10
-105.5693
 20
-151.8592
 30
0.0
 10
-105.5693
 20
-151.8592
 30
0.0
 10
-105.5693
 20
-151.8592
 30
0.0
 10
-105.5693
 20
-152.156
 30
0.0
 10
-105.5693
 20
-152.156
 30
0.0
 10
-105.5693
 20
-152.156
 30
0.0
 10
-105.5693
 20
-152.1964
 30
0.0
 10
-105.5617
 20
-152.2245
 30
0.0
 10
-105.5463
 20
-152.2404
 30
0.0
 10
-105.5463
 20
-152.2404
 30
0.0
 10
-105.531
 20
-152.2564
 30
0.0
 10
-105.5043
 20
-152.2644
 30
0.0
 10
-105.4663
 20
-152.2644
 30
0.0
 10
-105.4663
 20
-152.2644
 30
0.0
 10
-105.4663
 20
-152.2644
 30
0.0
 10
-105.3651
 20
-152.2644
 30
0.0
 10
-105.3651
 20
-152.2644
 30
0.0
 10
-105.3651
 20
-152.2644
 30
0.0
 10
-105.3651
 20
-152.2644
 30
0.0
 10
-105.3651
 20
-152.3362
 30
0.0
 10
-105.3651
 20
-152.3362
 30
0.0
 10
-105.3651
 20
-152.3362
 30
0.0
 10
-105.3651
 20
-152.3362
 30
0.0
 10
-105.475
 20
-152.3362
 30
0.0
 10
-105.475
 20
-152.3362
 30
0.0
 10
-105.475
 20
-152.3362
 30
0.0
 10
-105.5425
 20
-152.3362
 30
0.0
 10
-105.59
 20
-152.3227
 30
0.0
 10
-105.6177
 20
-152.2957
 30
0.0
 10
-105.6177
 20
-152.2957
 30
0.0
 10
-105.6453
 20
-152.2687
 30
0.0
 10
-105.6592
 20
-152.222
 30
0.0
 10
-105.6592
 20
-152.156
 30
0.0
 10
-105.6592
 20
-152.156
 30
0.0
 10
-105.6592
 20
-152.156
 30
0.0
 10
-105.6592
 20
-151.8592
 30
0.0
 10
-105.6592
 20
-151.8592
 30
0.0
 10
-105.6592
 20
-151.8592
 30
0.0
 10
-105.6592
 20
-151.8592
 30
0.0
 10
-105.8052
 20
-151.8592
 30
0.0
 10
-105.8052
 20
-151.8592
 30
0.0
 10
-105.8052
 20
-151.8592
 30
0.0
 10
-105.8052
 20
-151.8592
 30
0.0
 10
-105.8052
 20
-151.7893
 30
0.0
 10
-105.8052
 20
-151.7893
 30
0.0
 10
-105.8052
 20
-151.7893
 30
0.0
 10
-105.8052
 20
-151.7893
 30
0.0
 10
-105.6592
 20
-151.7893
 30
0.0
 10
-105.6592
 20
-151.7893
 30
0.0
 10
-105.6592
 20
-151.7893
 30
0.0
 10
-105.6592
 20
-151.7893
 30
0.0
 10
-105.6592
 20
-151.634
 30
0.0
 10
-105.6592
 20
-151.634
 30
0.0
 10
-105.6592
 20
-151.634
 30
0.0
 10
-105.6592
 20
-151.634
 30
0.0
 10
-105.5693
 20
-151.634
 30
0.0
 10
-105.5693
 20
-151.634
 30
0.0
  0
SPLINE
  5
8A
330
1F
100
AcDbEntity
  8
LAYER_1
100
AcDbSpline
210
0.0
220
0.0
230
1.0
 70
    11
 71
     3
 72
    20
 73
    16
 74
     0
 42
0.0000000001
 43
0.0000000001
 40
0.0
 40
0.0
 40
0.0
 40
0.0
 40
0.25
 40
0.25
 40
0.25
 40
0.25
 40
0.5
 40
0.5
 40
0.5
 40
0.5
 40
0.75
 40
0.75
 40
0.75
 40
0.75
 40
1.0
 40
1.0
 40
1.0
 40
1.0
 10
-104.8329
 20
-151.6071
 30
0.0
 10
-104.8329
 20
-151.6071
 30
0.0
 10
-104.74
 20
-151.6071
 30
0.0
 10
-104.74
 20
-151.6071
 30
0.0
 10
-104.74
 20
-151.6071
 30
0.0
 10
-104.74
 20
-151.6071
 30
0.0
 10
-105.1239
 20
-152.429
 30
0.0
 10
-105.1239
 20
-152.429
 30
0.0
 10
-105.1239
 20
-152.429
 30
0.0
 10
-105.1239
 20
-152.429
 30
0.0
 10
-105.2173
 20
-152.429
 30
0.0
 10
-105.2173
 20
-152.429
 30
0.0
 10
-105.2173
 20
-152.429
 30
0.0
 10
-105.2173
 20
-152.429
 30
0.0
 10
-104.8329
 20
-151.6071
 30
0.0
 10
-104.8329
 20
-151.6071
 30
0.0
  0
SPLINE
  5
8B
330
1F
100
AcDbEntity
  8
LAYER_1
100
AcDbSpline
210
0.0
220
0.0
230
1.0
 70
    11
 71
     3
 72
    68
 73
    64
 74
     0
 42
0.0000000001
 43
0.0000000001
 40
0.0
 40
0.0
 40
0.0
 40
0.0
 40
0.0625
 40
0.0625
 40
0.0625
 40
0.0625
 40
0.125
 40
0.125
 40
0.125
 40
0.125
 40
0.1875
 40
0.1875
 40
0.1875
 40
0.1875
 40
0.25
 40
0.25
 40
0.25
 40
0.25
 40
0.3125
 40
0.3125
 40
0.3125
 40
0.3125
 40
0.375
 40
0.375
 40
0.375
 40
0.375
 40
0.4375
 40
0.4375
 40
0.4375
 40
0.4375
 40
0.5
 40
0.5
 40
0.5
 40
0.5
 40
0.5625
 40
0.5625
 40
0.5625
 40
0.5625
 40
0.625
 40
0.625
 40
0.625
 40
0.625
 40
0.6875
 40
0.6875
 40
0.6875
 40
0.6875
 40
0.75
 40
0.75
 40
0.75
 40
0.75
 40
0.8125
 40
0.8125
 40
0.8125
 40
0.8125
 40
0.875
 40
0.875
 40
0.875
 40
0.875
 40
0.9375
 40
0.9375
 40
0.9375
 40
0.9375
 40
1.0
 40
1.0
 40
1.0
 40
1.0
 10
-104.271
 20
-151.992
 30
0.0
 10
-104.2566
 20
-151.9948
 30
0.0
 10
-104.2441
 20
-152.0017
 30
0.0
 10
-104.2336
 20
-152.0123
 30
0.0
 10
-104.2336
 20
-152.0123
 30
0.0
 10
-104.223
 20
-152.0228
 30
0.0
 10
-104.2101
 20
-152.0435
 30
0.0
 10
-104.1948
 20
-152.074
 30
0.0
 10
-104.1948
 20
-152.074
 30
0.0
 10
-104.1948
 20
-152.074
 30
0.0
 10
-104.0628
 20
-152.3362
 30
0.0
 10
-104.0628
 20
-152.3362
 30
0.0
 10
-104.0628
 20
-152.3362
 30
0.0
 10
-104.0628
 20
-152.3362
 30
0.0
 10
-104.2211
 20
-152.3362
 30
0.0
 10
-104.2211
 20
-152.3362
 30
0.0
 10
-104.2211
 20
-152.3362
 30
0.0
 10
-104.2211
 20
-152.3362
 30
0.0
 10
-104.309
 20
-152.1522
 30
0.0
 10
-104.309
 20
-152.1522
 30
0.0
 10
-104.309
 20
-152.1522
 30
0.0
 10
-104.3116
 20
-152.147
 30
0.0
 10
-104.3151
 20
-152.1398
 30
0.0
 10
-104.3193
 20
-152.1307
 30
0.0
 10
-104.3193
 20
-152.1307
 30
0.0
 10
-104.345
 20
-152.0757
 30
0.0
 10
-104.3753
 20
-152.0482
 30
0.0
 10
-104.4101
 20
-152.0482
 30
0.0
 10
-104.4101
 20
-152.0482
 30
0.0
 10
-104.4101
 20
-152.0482
 30
0.0
 10
-104.456
 20
-152.0482
 30
0.0
 10
-104.456
 20
-152.0482
 30
0.0
 10
-104.456
 20
-152.0482
 30
0.0
 10
-104.456
 20
-152.0482
 30
0.0
 10
-104.456
 20
-152.3362
 30
0.0
 10
-104.456
 20
-152.3362
 30
0.0
 10
-104.456
 20
-152.3362
 30
0.0
 10
-104.456
 20
-152.3362
 30
0.0
 10
-104.6
 20
-152.3362
 30
0.0
 10
-104.6
 20
-152.3362
 30
0.0
 10
-104.6
 20
-152.3362
 30
0.0
 10
-104.6
 20
-152.3362
 30
0.0
 10
-104.6
 20
-151.6071
 30
0.0
 10
-104.6
 20
-151.6071
 30
0.0
 10
-104.6
 20
-151.6071
 30
0.0
 10
-104.6
 20
-151.6071
 30
0.0
 10
-104.392
 20
-151.6071
 30
0.0
 10
-104.392
 20
-151.6071
 30
0.0
 10
-104.392
 20
-151.6071
 30
0.0
 10
-104.2983
 20
-151.6071
 30
0.0
 10
-104.231
 20
-151.6238
 30
0.0
 10
-104.1901
 20
-151.657
 30
0.0
 10
-104.1901
 20
-151.657
 30
0.0
 10
-104.1493
 20
-151.6901
 30
0.0
 10
-104.1288
 20
-151.7441
 30
0.0
 10
-104.1288
 20
-151.8191
 30
0.0
 10
-104.1288
 20
-151.8191
 30
0.0
 10
-104.1288
 20
-151.8692
 30
0.0
 10
-104.1409
 20
-151.9092
 30
0.0
 10
-104.1655
 20
-151.9388
 30
0.0
 10
-104.1655
 20
-151.9388
 30
0.0
 10
-104.1898
 20
-151.9683
 30
0.0
 10
-104.225
 20
-151.9862
 30
0.0
 10
-104.271
 20
-151.992
 30
0.0
  0
SPLINE
  5
8C
330
1F
100
AcDbEntity
  8
LAYER_1
100
AcDbSpline
210
0.0
220
0.0
230
1.0
 70
    11
 71
     3
 72
    32
 73
    28
 74
     0
 42
0.0000000001
 43
0.0000000001
 40
0.0
 40
0.0
 40
0.0
 40
0.0
 40
0.1428571428571428
 40
0.1428571428571428
 40
0.1428571428571428
 40
0.1428571428571428
 40
0.2857142857142857
 40
0.2857142857142857
 40
0.2857142857142857
 40
0.2857142857142857
 40
0.4285714285714285
 40
0.4285714285714285
 40
0.4285714285714285
 40
0.4285714285714285
 40
0.5714285714285714
 40
0.5714285714285714
 40
0.5714285714285714
 40
0.5714285714285714
 40
0.7142857142857142
 40
0.7142857142857142
 40
0.7142857142857142
 40
0.7142857142857142
 40
0.857142857142857
 40
0.857142857142857
 40
0.857142857142857
 40
0.857142857142857
 40
1.0
 40
1.0
 40
1.0
 40
1.0
 10
-104.456
 20
-151.7283
 30
0.0
 10
-104.456
 20
-151.7283
 30
0.0
 10
-104.456
 20
-151.927
 30
0.0
 10
-104.456
 20
-151.927
 30
0.0
 10
-104.456
 20
-151.927
 30
0.0
 10
-104.456
 20
-151.927
 30
0.0
 10
-104.3881
 20
-151.927
 30
0.0
 10
-104.3881
 20
-151.927
 30
0.0
 10
-104.3881
 20
-151.927
 30
0.0
 10
-104.3488
 20
-151.927
 30
0.0
 10
-104.3205
 20
-151.9193
 30
0.0
 10
-104.3035
 20
-151.9038
 30
0.0
 10
-104.3035
 20
-151.9038
 30
0.0
 10
-104.2863
 20
-151.8883
 30
0.0
 10
-104.2778
 20
-151.8628
 30
0.0
 10
-104.2778
 20
-151.8275
 30
0.0
 10
-104.2778
 20
-151.8275
 30
0.0
 10
-104.2778
 20
-151.792
 30
0.0
 10
-104.2863
 20
-151.7665
 30
0.0
 10
-104.3031
 20
-151.7513
 30
0.0
 10
-104.3031
 20
-151.7513
 30
0.0
 10
-104.3201
 20
-151.736
 30
0.0
 10
-104.3485
 20
-151.7283
 30
0.0
 10
-104.3881
 20
-151.7283
 30
0.0
 10
-104.3881
 20
-151.7283
 30
0.0
 10
-104.3881
 20
-151.7283
 30
0.0
 10
-104.456
 20
-151.7283
 30
0.0
 10
-104.456
 20
-151.7283
 30
0.0
  0
SPLINE
  5
8D
330
1F
100
AcDbEntity
  8
LAYER_1
100
AcDbSpline
210
0.0
220
0.0
230
1.0
 70
    11
 71
     3
 72
    16
 73
    12
 74
     0
 42
0.0000000001
 43
0.0000000001
 40
0.0
 40
0.0
 40
0.0
 40
0.0
 40
0.3333333333333333
 40
0.3333333333333333
 40
0.3333333333333333
 40
0.3333333333333333
 40
0.6666666666666666
 40
0.6666666666666666
 40
0.6666666666666666
 40
0.6666666666666666
 40
1.0
 40
1.0
 40
1.0
 40
1.0
 10
-103.7239
 20
-151.7673
 30
0.0
 10
-103.7239
 20
-151.7673
 30
0.0
 10
-103.9081
 20
-152.0553
 30
0.0
 10
-103.9081
 20
-152.0553
 30
0.0
 10
-103.9081
 20
-152.0553
 30
0.0
 10
-103.9081
 20
-152.0553
 30
0.0
 10
-103.7239
 20
-152.0553
 30
0.0
 10
-103.7239
 20
-152.0553
 30
0.0
 10
-103.7239
 20
-152.0553
 30
0.0
 10
-103.7239
 20
-152.0553
 30
0.0
 10
-103.7239
 20
-151.7673
 30
0.0
 10
-103.7239
 20
-151.7673
 30
0.0
  0
SPLINE
  5
8E
330
1F
100
AcDbEntity
  8
LAYER_1
100
AcDbSpline
210
0.0
220
0.0
230
1.0
 70
    11
 71
     3
 72
    48
 73
    44
 74
     0
 42
0.0000000001
 43
0.0000000001
 40
0.0
 40
0.0
 40
0.0
 40
0.0
 40
0.0909090909090909
 40
0.0909090909090909
 40
0.0909090909090909
 40
0.0909090909090909
 40
0.1818181818181818
 40
0.1818181818181818
 40
0.1818181818181818
 40
0.1818181818181818
 40
0.2727272727272727
 40
0.2727272727272727
 40
0.2727272727272727
 40
0.2727272727272727
 40
0.3636363636363636
 40
0.3636363636363636
 40
0.3636363636363636
 40
0.3636363636363636
 40
0.4545454545454546
 40
0.4545454545454546
 40
0.4545454545454546
 40
0.4545454545454546
 40
0.5454545454545455
 40
0.5454545454545455
 40
0.5454545454545455
 40
0.5454545454545455
 40
0.6363636363636365
 40
0.6363636363636365
 40
0.6363636363636365
 40
0.6363636363636365
 40
0.7272727272727274
 40
0.7272727272727274
 40
0.7272727272727274
 40
0.7272727272727274
 40
0.8181818181818183
 40
0.8181818181818183
 40
0.8181818181818183
 40
0.8181818181818183
 40
0.9090909090909093
 40
0.9090909090909093
 40
0.9090909090909093
 40
0.9090909090909093
 40
1.0
 40
1.0
 40
1.0
 40
1.0
 10
-103.7365
 20
-151.6071
 30
0.0
 10
-103.7365
 20
-151.6071
 30
0.0
 10
-103.5857
 20
-151.6071
 30
0.0
 10
-103.5857
 20
-151.6071
 30
0.0
 10
-103.5857
 20
-151.6071
 30
0.0
 10
-103.5857
 20
-151.6071
 30
0.0
 10
-103.5857
 20
-152.0553
 30
0.0
 10
-103.5857
 20
-152.0553
 30
0.0
 10
-103.5857
 20
-152.0553
 30
0.0
 10
-103.5857
 20
-152.0553
 30
0.0
 10
-103.5057
 20
-152.0553
 30
0.0
 10
-103.5057
 20
-152.0553
 30
0.0
 10
-103.5057
 20
-152.0553
 30
0.0
 10
-103.5057
 20
-152.0553
 30
0.0
 10
-103.5057
 20
-152.1789
 30
0.0
 10
-103.5057
 20
-152.1789
 30
0.0
 10
-103.5057
 20
-152.1789
 30
0.0
 10
-103.5057
 20
-152.1789
 30
0.0
 10
-103.5857
 20
-152.1789
 30
0.0
 10
-103.5857
 20
-152.1789
 30
0.0
 10
-103.5857
 20
-152.1789
 30
0.0
 10
-103.5857
 20
-152.1789
 30
0.0
 10
-103.5857
 20
-152.3362
 30
0.0
 10
-103.5857
 20
-152.3362
 30
0.0
 10
-103.5857
 20
-152.3362
 30
0.0
 10
-103.5857
 20
-152.3362
 30
0.0
 10
-103.7239
 20
-152.3362
 30
0.0
 10
-103.7239
 20
-152.3362
 30
0.0
 10
-103.7239
 20
-152.3362
 30
0.0
 10
-103.7239
 20
-152.3362
 30
0.0
 10
-103.7239
 20
-152.1789
 30
0.0
 10
-103.7239
 20
-152.1789
 30
0.0
 10
-103.7239
 20
-152.1789
 30
0.0
 10
-103.7239
 20
-152.1789
 30
0.0
 10
-104.0131
 20
-152.1789
 30
0.0
 10
-104.0131
 20
-152.1789
 30
0.0
 10
-104.0131
 20
-152.1789
 30
0.0
 10
-104.0131
 20
-152.1789
 30
0.0
 10
-104.0131
 20
-152.0392
 30
0.0
 10
-104.0131
 20
-152.0392
 30
0.0
 10
-104.0131
 20
-152.0392
 30
0.0
 10
-104.0131
 20
-152.0392
 30
0.0
 10
-103.7365
 20
-151.6071
 30
0.0
 10
-103.7365
 20
-151.6071
 30
0.0
  0
SPLINE
  5
8F
330
1F
100
AcDbEntity
  8
LAYER_1
100
AcDbSpline
210
0.0
220
0.0
230
1.0
 70
    11
 71
     3
 72
    88
 73
    84
 74
     0
 42
0.0000000001
 43
0.0000000001
 40
0.0
 40
0.0
 40
0.0
 40
0.0
 40
0.0476190476190476
 40
0.0476190476190476
 40
0.0476190476190476
 40
0.0476190476190476
 40
0.0952380952380952
 40
0.0952380952380952
 40
0.0952380952380952
 40
0.0952380952380952
 40
0.1428571428571428
 40
0.1428571428571428
 40
0.1428571428571428
 40
0.1428571428571428
 40
0.1904761904761905
 40
0.1904761904761905
 40
0.1904761904761905
 40
0.1904761904761905
 40
0.2380952380952381
 40
0.2380952380952381
 40
0.2380952380952381
 40
0.2380952380952381
 40
0.2857142857142857
 40
0.2857142857142857
 40
0.2857142857142857
 40
0.2857142857142857
 40
0.3333333333333333
 40
0.3333333333333333
 40
0.3333333333333333
 40
0.3333333333333333
 40
0.3809523809523809
 40
0.3809523809523809
 40
0.3809523809523809
 40
0.3809523809523809
 40
0.4285714285714285
 40
0.4285714285714285
 40
0.4285714285714285
 40
0.4285714285714285
 40
0.4761904761904762
 40
0.4761904761904762
 40
0.4761904761904762
 40
0.4761904761904762
 40
0.5238095238095237
 40
0.5238095238095237
 40
0.5238095238095237
 40
0.5238095238095237
 40
0.5714285714285714
 40
0.5714285714285714
 40
0.5714285714285714
 40
0.5714285714285714
 40
0.6190476190476191
 40
0.6190476190476191
 40
0.6190476190476191
 40
0.6190476190476191
 40
0.6666666666666667
 40
0.6666666666666667
 40
0.6666666666666667
 40
0.6666666666666667
 40
0.7142857142857144
 40
0.7142857142857144
 40
0.7142857142857144
 40
0.7142857142857144
 40
0.7619047619047621
 40
0.7619047619047621
 40
0.7619047619047621
 40
0.7619047619047621
 40
0.8095238095238098
 40
0.8095238095238098
 40
0.8095238095238098
 40
0.8095238095238098
 40
0.8571428571428574
 40
0.8571428571428574
 40
0.8571428571428574
 40
0.8571428571428574
 40
0.9047619047619051
 40
0.9047619047619051
 40
0.9047619047619051
 40
0.9047619047619051
 40
0.9523809523809528
 40
0.9523809523809528
 40
0.9523809523809528
 40
0.9523809523809528
 40
1.0
 40
1.0
 40
1.0
 40
1.0
 10
-103.2489
 20
-152.2092
 30
0.0
 10
-103.2489
 20
-152.2092
 30
0.0
 10
-102.9417
 20
-152.2092
 30
0.0
 10
-102.9417
 20
-152.2092
 30
0.0
 10
-102.9417
 20
-152.2092
 30
0.0
 10
-102.9417
 20
-152.2092
 30
0.0
 10
-102.9417
 20
-152.3362
 30
0.0
 10
-102.9417
 20
-152.3362
 30
0.0
 10
-102.9417
 20
-152.3362
 30
0.0
 10
-102.9417
 20
-152.3362
 30
0.0
 10
-103.4046
 20
-152.3362
 30
0.0
 10
-103.4046
 20
-152.3362
 30
0.0
 10
-103.4046
 20
-152.3362
 30
0.0
 10
-103.4046
 20
-152.3362
 30
0.0
 10
-103.4046
 20
-152.213
 30
0.0
 10
-103.4046
 20
-152.213
 30
0.0
 10
-103.4046
 20
-152.213
 30
0.0
 10
-103.4046
 20
-152.213
 30
0.0
 10
-103.3265
 20
-152.1302
 30
0.0
 10
-103.3265
 20
-152.1302
 30
0.0
 10
-103.3265
 20
-152.1302
 30
0.0
 10
-103.2338
 20
-152.0315
 30
0.0
 10
-103.1774
 20
-151.9708
 30
0.0
 10
-103.1576
 20
-151.948
 30
0.0
 10
-103.1576
 20
-151.948
 30
0.0
 10
-103.1333
 20
-151.92
 30
0.0
 10
-103.1156
 20
-151.8952
 30
0.0
 10
-103.1049
 20
-151.8735
 30
0.0
 10
-103.1049
 20
-151.8735
 30
0.0
 10
-103.0941
 20
-151.8518
 30
0.0
 10
-103.0888
 20
-151.8305
 30
0.0
 10
-103.0888
 20
-151.8093
 30
0.0
 10
-103.0888
 20
-151.8093
 30
0.0
 10
-103.0888
 20
-151.7768
 30
0.0
 10
-103.0986
 20
-151.7516
 30
0.0
 10
-103.1183
 20
-151.734
 30
0.0
 10
-103.1183
 20
-151.734
 30
0.0
 10
-103.1379
 20
-151.7161
 30
0.0
 10
-103.1659
 20
-151.7073
 30
0.0
 10
-103.2019
 20
-151.7073
 30
0.0
 10
-103.2019
 20
-151.7073
 30
0.0
 10
-103.2278
 20
-151.7073
 30
0.0
 10
-103.2566
 20
-151.7125
 30
0.0
 10
-103.2886
 20
-151.7226
 30
0.0
 10
-103.2886
 20
-151.7226
 30
0.0
 10
-103.3208
 20
-151.733
 30
0.0
 10
-103.3541
 20
-151.7478
 30
0.0
 10
-103.389
 20
-151.7673
 30
0.0
 10
-103.389
 20
-151.7673
 30
0.0
 10
-103.389
 20
-151.7673
 30
0.0
 10
-103.389
 20
-151.633
 30
0.0
 10
-103.389
 20
-151.633
 30
0.0
 10
-103.389
 20
-151.633
 30
0.0
 10
-103.3541
 20
-151.6203
 30
0.0
 10
-103.3201
 20
-151.6106
 30
0.0
 10
-103.2866
 20
-151.604
 30
0.0
 10
-103.2866
 20
-151.604
 30
0.0
 10
-103.2533
 20
-151.5973
 30
0.0
 10
-103.2213
 20
-151.594
 30
0.0
 10
-103.1908
 20
-151.594
 30
0.0
 10
-103.1908
 20
-151.594
 30
0.0
 10
-103.1136
 20
-151.594
 30
0.0
 10
-103.0529
 20
-151.612
 30
0.0
 10
-103.0089
 20
-151.648
 30
0.0
 10
-103.0089
 20
-151.648
 30
0.0
 10
-102.9648
 20
-151.6838
 30
0.0
 10
-102.9427
 20
-151.733
 30
0.0
 10
-102.9427
 20
-151.7951
 30
0.0
 10
-102.9427
 20
-151.7951
 30
0.0
 10
-102.9427
 20
-151.8238
 30
0.0
 10
-102.9476
 20
-151.8507
 30
0.0
 10
-102.9571
 20
-151.8757
 30
0.0
 10
-102.9571
 20
-151.8757
 30
0.0
 10
-102.9668
 20
-151.9008
 30
0.0
 10
-102.9833
 20
-151.9287
 30
0.0
 10
-103.0068
 20
-151.9592
 30
0.0
 10
-103.0068
 20
-151.9592
 30
0.0
 10
-103.0239
 20
-151.9813
 30
0.0
 10
-103.0713
 20
-152.0312
 30
0.0
 10
-103.1488
 20
-152.1087
 30
0.0
 10
-103.1488
 20
-152.1087
 30
0.0
 10
-103.1908
 20
-152.1505
 30
0.0
 10
-103.2241
 20
-152.1842
 30
0.0
 10
-103.2489
 20
-152.2092
 30
0.0
  0
SPLINE
  5
90
330
1F
100
AcDbEntity
  8
LAYER_1
100
AcDbSpline
210
0.0
220
0.0
230
1.0
 70
    11
 71
     3
 72
    48
 73
    44
 74
     0
 42
0.0000000001
 43
0.0000000001
 40
0.0
 40
0.0
 40
0.0
 40
0.0
 40
0.0909090909090909
 40
0.0909090909090909
 40
0.0909090909090909
 40
0.0909090909090909
 40
0.1818181818181818
 40
0.1818181818181818
 40
0.1818181818181818
 40
0.1818181818181818
 40
0.2727272727272727
 40
0.2727272727272727
 40
0.2727272727272727
 40
0.2727272727272727
 40
0.3636363636363636
 40
0.3636363636363636
 40
0.3636363636363636
 40
0.3636363636363636
 40
0.4545454545454546
 40
0.4545454545454546
 40
0.4545454545454546
 40
0.4545454545454546
 40
0.5454545454545455
 40
0.5454545454545455
 40
0.5454545454545455
 40
0.5454545454545455
 40
0.6363636363636365
 40
0.6363636363636365
 40
0.6363636363636365
 40
0.6363636363636365
 40
0.7272727272727274
 40
0.7272727272727274
 40
0.7272727272727274
 40
0.7272727272727274
 40
0.8181818181818183
 40
0.8181818181818183
 40
0.8181818181818183
 40
0.8181818181818183
 40
0.9090909090909093
 40
0.9090909090909093
 40
0.9090909090909093
 40
0.9090909090909093
 40
1.0
 40
1.0
 40
1.0
 40
1.0
 10
-102.7669
 20
-152.2092
 30
0.0
 10
-102.7669
 20
-152.2092
 30
0.0
 10
-102.6057
 20
-152.2092
 30
0.0
 10
-102.6057
 20
-152.2092
 30
0.0
 10
-102.6057
 20
-152.2092
 30
0.0
 10
-102.6057
 20
-152.2092
 30
0.0
 10
-102.6057
 20
-151.736
 30
0.0
 10
-102.6057
 20
-151.736
 30
0.0
 10
-102.6057
 20
-151.736
 30
0.0
 10
-102.6057
 20
-151.736
 30
0.0
 10
-102.7555
 20
-151.7731
 30
0.0
 10
-102.7555
 20
-151.7731
 30
0.0
 10
-102.7555
 20
-151.7731
 30
0.0
 10
-102.7555
 20
-151.7731
 30
0.0
 10
-102.7555
 20
-151.6433
 30
0.0
 10
-102.7555
 20
-151.6433
 30
0.0
 10
-102.7555
 20
-151.6433
 30
0.0
 10
-102.7555
 20
-151.6433
 30
0.0
 10
-102.6047
 20
-151.6071
 30
0.0
 10
-102.6047
 20
-151.6071
 30
0.0
 10
-102.6047
 20
-151.6071
 30
0.0
 10
-102.6047
 20
-151.6071
 30
0.0
 10
-102.4655
 20
-151.6071
 30
0.0
 10
-102.4655
 20
-151.6071
 30
0.0
 10
-102.4655
 20
-151.6071
 30
0.0
 10
-102.4655
 20
-151.6071
 30
0.0
 10
-102.4655
 20
-152.2092
 30
0.0
 10
-102.4655
 20
-152.2092
 30
0.0
 10
-102.4655
 20
-152.2092
 30
0.0
 10
-102.4655
 20
-152.2092
 30
0.0
 10
-102.3043
 20
-152.2092
 30
0.0
 10
-102.3043
 20
-152.2092
 30
0.0
 10
-102.3043
 20
-152.2092
 30
0.0
 10
-102.3043
 20
-152.2092
 30
0.0
 10
-102.3043
 20
-152.3362
 30
0.0
 10
-102.3043
 20
-152.3362
 30
0.0
 10
-102.3043
 20
-152.3362
 30
0.0
 10
-102.3043
 20
-152.3362
 30
0.0
 10
-102.7669
 20
-152.3362
 30
0.0
 10
-102.7669
 20
-152.3362
 30
0.0
 10
-102.7669
 20
-152.3362
 30
0.0
 10
-102.7669
 20
-152.3362
 30
0.0
 10
-102.7669
 20
-152.2092
 30
0.0
 10
-102.7669
 20
-152.2092
 30
0.0
  0
SPLINE
  5
91
330
1F
100
AcDbEntity
  8
LAYER_1
100
AcDbSpline
210
0.0
220
0.0
230
1.0
 70
    11
 71
     3
 72
    36
 73
    32
 74
     0
 42
0.0000000001
 43
0.0000000001
 40
0.0
 40
0.0
 40
0.0
 40
0.0
 40
0.125
 40
0.125
 40
0.125
 40
0.125
 40
0.25
 40
0.25
 40
0.25
 40
0.25
 40
0.375
 40
0.375
 40
0.375
 40
0.375
 40
0.5
 40
0.5
 40
0.5
 40
0.5
 40
0.625
 40
0.625
 40
0.625
 40
0.625
 40
0.75
 40
0.75
 40
0.75
 40
0.75
 40
0.875
 40
0.875
 40
0.875
 40
0.875
 40
1.0
 40
1.0
 40
1.0
 40
1.0
 10
-102.0164
 20
-151.9723
 30
0.0
 10
-102.0164
 20
-151.9552
 30
0.0
 10
-102.0106
 20
-151.9407
 30
0.0
 10
-101.9987
 20
-151.929
 30
0.0
 10
-101.9987
 20
-151.929
 30
0.0
 10
-101.9871
 20
-151.9172
 30
0.0
 10
-101.9727
 20
-151.9113
 30
0.0
 10
-101.9557
 20
-151.9113
 30
0.0
 10
-101.9557
 20
-151.9113
 30
0.0
 10
-101.9386
 20
-151.9113
 30
0.0
 10
-101.9241
 20
-151.9172
 30
0.0
 10
-101.9124
 20
-151.929
 30
0.0
 10
-101.9124
 20
-151.929
 30
0.0
 10
-101.9006
 20
-151.9407
 30
0.0
 10
-101.8947
 20
-151.9552
 30
0.0
 10
-101.8947
 20
-151.9723
 30
0.0
 10
-101.8947
 20
-151.9723
 30
0.0
 10
-101.8947
 20
-151.9893
 30
0.0
 10
-101.9006
 20
-152.0037
 30
0.0
 10
-101.9124
 20
-152.0153
 30
0.0
 10
-101.9124
 20
-152.0153
 30
0.0
 10
-101.9241
 20
-152.0272
 30
0.0
 10
-101.9386
 20
-152.033
 30
0.0
 10
-101.9557
 20
-152.033
 30
0.0
 10
-101.9557
 20
-152.033
 30
0.0
 10
-101.9727
 20
-152.033
 30
0.0
 10
-101.9871
 20
-152.0272
 30
0.0
 10
-101.9987
 20
-152.0157
 30
0.0
 10
-101.9987
 20
-152.0157
 30
0.0
 10
-102.0106
 20
-152.0042
 30
0.0
 10
-102.0164
 20
-151.9897
 30
0.0
 10
-102.0164
 20
-151.9723
 30
0.0
  0
SPLINE
  5
92
330
1F
100
AcDbEntity
  8
LAYER_1
100
AcDbSpline
210
0.0
220
0.0
230
1.0
 70
    11
 71
     3
 72
    36
 73
    32
 74
     0
 42
0.0000000001
 43
0.0000000001
 40
0.0
 40
0.0
 40
0.0
 40
0.0
 40
0.125
 40
0.125
 40
0.125
 40
0.125
 40
0.25
 40
0.25
 40
0.25
 40
0.25
 40
0.375
 40
0.375
 40
0.375
 40
0.375
 40
0.5
 40
0.5
 40
0.5
 40
0.5
 40
0.625
 40
0.625
 40
0.625
 40
0.625
 40
0.75
 40
0.75
 40
0.75
 40
0.75
 40
0.875
 40
0.875
 40
0.875
 40
0.875
 40
1.0
 40
1.0
 40
1.0
 40
1.0
 10
-101.9557
 20
-151.716
 30
0.0
 10
-101.9891
 20
-151.716
 30
0.0
 10
-102.0132
 20
-151.7363
 30
0.0
 10
-102.0286
 20
-151.777
 30
0.0
 10
-102.0286
 20
-151.777
 30
0.0
 10
-102.0439
 20
-151.8178
 30
0.0
 10
-102.0516
 20
-151.8828
 30
0.0
 10
-102.0516
 20
-151.9723
 30
0.0
 10
-102.0516
 20
-151.9723
 30
0.0
 10
-102.0516
 20
-152.0617
 30
0.0
 10
-102.0439
 20
-152.1265
 30
0.0
 10
-102.0286
 20
-152.1673
 30
0.0
 10
-102.0286
 20
-152.1673
 30
0.0
 10
-102.0132
 20
-152.208
 30
0.0
 10
-101.9891
 20
-152.2284
 30
0.0
 10
-101.9557
 20
-152.2284
 30
0.0
 10
-101.9557
 20
-152.2284
 30
0.0
 10
-101.9222
 20
-152.2284
 30
0.0
 10
-101.8979
 20
-152.208
 30
0.0
 10
-101.8826
 20
-152.1673
 30
0.0
 10
-101.8826
 20
-152.1673
 30
0.0
 10
-101.8672
 20
-152.1265
 30
0.0
 10
-101.8596
 20
-152.0617
 30
0.0
 10
-101.8596
 20
-151.9723
 30
0.0
 10
-101.8596
 20
-151.9723
 30
0.0
 10
-101.8596
 20
-151.8828
 30
0.0
 10
-101.8672
 20
-151.8178
 30
0.0
 10
-101.8826
 20
-151.777
 30
0.0
 10
-101.8826
 20
-151.777
 30
0.0
 10
-101.8979
 20
-151.7363
 30
0.0
 10
-101.9222
 20
-151.716
 30
0.0
 10
-101.9557
 20
-151.716
 30
0.0
  0
SPLINE
  5
93
330
1F
100
AcDbEntity
  8
LAYER_1
100
AcDbSpline
210
0.0
220
0.0
230
1.0
 70
    11
 71
     3
 72
    36
 73
    32
 74
     0
 42
0.0000000001
 43
0.0000000001
 40
0.0
 40
0.0
 40
0.0
 40
0.0
 40
0.125
 40
0.125
 40
0.125
 40
0.125
 40
0.25
 40
0.25
 40
0.25
 40
0.25
 40
0.375
 40
0.375
 40
0.375
 40
0.375
 40
0.5
 40
0.5
 40
0.5
 40
0.5
 40
0.625
 40
0.625
 40
0.625
 40
0.625
 40
0.75
 40
0.75
 40
0.75
 40
0.75
 40
0.875
 40
0.875
 40
0.875
 40
0.875
 40
1.0
 40
1.0
 40
1.0
 40
1.0
 10
-102.1966
 20
-151.9723
 30
0.0
 10
-102.1966
 20
-151.8462
 30
0.0
 10
-102.1766
 20
-151.7515
 30
0.0
 10
-102.1366
 20
-151.6885
 30
0.0
 10
-102.1366
 20
-151.6885
 30
0.0
 10
-102.0964
 20
-151.6255
 30
0.0
 10
-102.0362
 20
-151.594
 30
0.0
 10
-101.9557
 20
-151.594
 30
0.0
 10
-101.9557
 20
-151.594
 30
0.0
 10
-101.8751
 20
-151.594
 30
0.0
 10
-101.8147
 20
-151.6253
 30
0.0
 10
-101.7746
 20
-151.6881
 30
0.0
 10
-101.7746
 20
-151.6881
 30
0.0
 10
-101.7345
 20
-151.751
 30
0.0
 10
-101.7145
 20
-151.8458
 30
0.0
 10
-101.7145
 20
-151.9723
 30
0.0
 10
-101.7145
 20
-151.9723
 30
0.0
 10
-101.7145
 20
-152.0987
 30
0.0
 10
-101.7345
 20
-152.1934
 30
0.0
 10
-101.7746
 20
-152.2562
 30
0.0
 10
-101.7746
 20
-152.2562
 30
0.0
 10
-101.8147
 20
-152.319
 30
0.0
 10
-101.8751
 20
-152.3504
 30
0.0
 10
-101.9557
 20
-152.3504
 30
0.0
 10
-101.9557
 20
-152.3504
 30
0.0
 10
-102.0362
 20
-152.3504
 30
0.0
 10
-102.0964
 20
-152.3189
 30
0.0
 10
-102.1366
 20
-152.2559
 30
0.0
 10
-102.1366
 20
-152.2559
 30
0.0
 10
-102.1766
 20
-152.1929
 30
0.0
 10
-102.1966
 20
-152.0983
 30
0.0
 10
-102.1966
 20
-151.9723
 30
0.0
  0
SPLINE
  5
94
330
1F
100
AcDbEntity
  8
LAYER_1
100
AcDbSpline
210
0.0
220
0.0
230
1.0
 70
    11
 71
     3
 72
    48
 73
    44
 74
     0
 42
0.0000000001
 43
0.0000000001
 40
0.0
 40
0.0
 40
0.0
 40
0.0
 40
0.0909090909090909
 40
0.0909090909090909
 40
0.0909090909090909
 40
0.0909090909090909
 40
0.1818181818181818
 40
0.1818181818181818
 40
0.1818181818181818
 40
0.1818181818181818
 40
0.2727272727272727
 40
0.2727272727272727
 40
0.2727272727272727
 40
0.2727272727272727
 40
0.3636363636363636
 40
0.3636363636363636
 40
0.3636363636363636
 40
0.3636363636363636
 40
0.4545454545454546
 40
0.4545454545454546
 40
0.4545454545454546
 40
0.4545454545454546
 40
0.5454545454545455
 40
0.5454545454545455
 40
0.5454545454545455
 40
0.5454545454545455
 40
0.6363636363636365
 40
0.6363636363636365
 40
0.6363636363636365
 40
0.6363636363636365
 40
0.7272727272727274
 40
0.7272727272727274
 40
0.7272727272727274
 40
0.7272727272727274
 40
0.8181818181818183
 40
0.8181818181818183
 40
0.8181818181818183
 40
0.8181818181818183
 40
0.9090909090909093
 40
0.9090909090909093
 40
0.9090909090909093
 40
0.9090909090909093
 40
1.0
 40
1.0
 40
1.0
 40
1.0
 10
-101.5627
 20
-152.2092
 30
0.0
 10
-101.5627
 20
-152.2092
 30
0.0
 10
-101.4015
 20
-152.2092
 30
0.0
 10
-101.4015
 20
-152.2092
 30
0.0
 10
-101.4015
 20
-152.2092
 30
0.0
 10
-101.4015
 20
-152.2092
 30
0.0
 10
-101.4015
 20
-151.736
 30
0.0
 10
-101.4015
 20
-151.736
 30
0.0
 10
-101.4015
 20
-151.736
 30
0.0
 10
-101.4015
 20
-151.736
 30
0.0
 10
-101.5513
 20
-151.7731
 30
0.0
 10
-101.5513
 20
-151.7731
 30
0.0
 10
-101.5513
 20
-151.7731
 30
0.0
 10
-101.5513
 20
-151.7731
 30
0.0
 10
-101.5513
 20
-151.6433
 30
0.0
 10
-101.5513
 20
-151.6433
 30
0.0
 10
-101.5513
 20
-151.6433
 30
0.0
 10
-101.5513
 20
-151.6433
 30
0.0
 10
-101.4005
 20
-151.6071
 30
0.0
 10
-101.4005
 20
-151.6071
 30
0.0
 10
-101.4005
 20
-151.6071
 30
0.0
 10
-101.4005
 20
-151.6071
 30
0.0
 10
-101.2613
 20
-151.6071
 30
0.0
 10
-101.2613
 20
-151.6071
 30
0.0
 10
-101.2613
 20
-151.6071
 30
0.0
 10
-101.2613
 20
-151.6071
 30
0.0
 10
-101.2613
 20
-152.2092
 30
0.0
 10
-101.2613
 20
-152.2092
 30
0.0
 10
-101.2613
 20
-152.2092
 30
0.0
 10
-101.2613
 20
-152.2092
 30
0.0
 10
-101.1001
 20
-152.2092
 30
0.0
 10
-101.1001
 20
-152.2092
 30
0.0
 10
-101.1001
 20
-152.2092
 30
0.0
 10
-101.1001
 20
-152.2092
 30
0.0
 10
-101.1001
 20
-152.3362
 30
0.0
 10
-101.1001
 20
-152.3362
 30
0.0
 10
-101.1001
 20
-152.3362
 30
0.0
 10
-101.1001
 20
-152.3362
 30
0.0
 10
-101.5627
 20
-152.3362
 30
0.0
 10
-101.5627
 20
-152.3362
 30
0.0
 10
-101.5627
 20
-152.3362
 30
0.0
 10
-101.5627
 20
-152.3362
 30
0.0
 10
-101.5627
 20
-152.2092
 30
0.0
 10
-101.5627
 20
-152.2092
 30
0.0
  0
ENDSEC
  0
SECTION
  2
OBJECTS
  0
DICTIONARY
  5
C
330
0
100
AcDbDictionary
  3
ACAD_GROUP
350
D
  3
ACAD_LAYOUT
350
1A
  3
ACAD_MLEADERSTYLE
350
B8
  3
ACAD_MLINESTYLE
350
17
  3
ACAD_PLOTSETTINGS
350
19
  3
ACAD_SCALELIST
350
3B
  3
ACAD_TABLESTYLE
350
B7
  3
ACAD_VISUALSTYLE
350
2A
  3
ACDBHEADERROUNDTRIPXREC
350
95
  3
ACDBVARIABLEDICTIONARY
350
B5
  0
DICTIONARY
  5
D
102
{ACAD_REACTORS
330
C
102
}
330
C
100
AcDbDictionary
  0
DICTIONARY
  5
1A
102
{ACAD_REACTORS
330
C
102
}
330
C
100
AcDbDictionary
  0
DICTIONARY
  5
B8
102
{ACAD_REACTORS
330
C
102
}
330
C
100
AcDbDictionary
  0
DICTIONARY
  5
17
102
{ACAD_REACTORS
330
C
102
}
330
C
100
AcDbDictionary
  3
STANDARD
350
18
  0
DICTIONARY
  5
19
102
{ACAD_REACTORS
330
C
102
}
330
C
100
AcDbDictionary
  0
DICTIONARY
  5
3B
102
{ACAD_REACTORS
330
C
102
}
330
C
100
AcDbDictionary
  3
A0
350
3C
  3
A1
350
3D
  3
A2
350
3E
  3
A3
350
3F
  3
A4
350
40
  3
A5
350
41
  3
A6
350
42
  3
A7
350
43
  3
A8
350
44
  3
A9
350
45
  3
B0
350
46
  3
B1
350
47
  3
B2
350
48
  3
B3
350
49
  3
B4
350
4A
  3
B5
350
4B
  3
B6
350
4C
  3
B7
350
4D
  3
B8
350
4E
  3
B9
350
4F
  3
C0
350
50
  3
C1
350
51
  3
C2
350
52
  3
C3
350
53
  3
C4
350
54
  3
C5
350
55
  3
C6
350
56
  3
C7
350
57
  3
C8
350
58
  3
C9
350
59
  3
D0
350
5A
  3
D1
350
5B
  3
D2
350
5C
  0
DICTIONARY
  5
B7
102
{ACAD_REACTORS
330
C
102
}
330
C
100
AcDbDictionary
  0
DICTIONARY
  5
2A
102
{ACAD_REACTORS
330
C
102
}
330
C
100
AcDbDictionary
  3
2DWIREFRAME
350
2F
  3
3D_HIDDEN
350
31
  3
3DWIREFRAME
350
30
  3
BASIC
350
32
  3
BRIGHTEN
350
36
  3
COLORCHANGE
350
3A
  3
CONCEPTUAL
350
34
  3
DIM
350
35
  3
FACEPATTERN
350
39
  3
FLAT
350
2B
  3
FLATWITHEDGES
350
2C
  3
GOURAUD
350
2D
  3
GOURAUDWITHEDGES
350
2E
  3
LINEPATTERN
350
38
  3
REALISTIC
350
33
  3
THICKEN
350
37
  0
DICTIONARY
  5
95
102
{ACAD_REACTORS
330
C
102
}
330
C
100
AcDbDictionary
  3
CEPSNTYPE
350
9E
  3
DIMSTYLEDATA
350
B4
  3
FINGERPRINTGUID
350
9F
  3
HYPERLINKBASE
350
98
  3
INSUNITS
350
9D
  3
LAYOUTDICT
350
9A
  3
LWETCUNION
350
9C
  3
PLOTSETDICT
350
9B
  3
PSVPSCALE
350
A1
  3
PUCSBASE
350
A4
  3
PUCSORGBACK
350
AA
  3
PUCSORGBOTTOM
350
A6
  3
PUCSORGFRONT
350
A9
  3
PUCSORGLEFT
350
A7
  3
PUCSORGRIGHT
350
A8
  3
PUCSORGTOP
350
A5
  3
PUCSORTHOREF
350
A2
  3
PUCSORTHOVIEW
350
A3
  3
STYLESHEET
350
99
  3
TSTACKALIGN
350
96
  3
TSTACKSIZE
350
97
  3
UCSBASE
350
AD
  3
UCSORGBACK
350
B3
  3
UCSORGBOTTOM
350
AF
  3
UCSORGFRONT
350
B2
  3
UCSORGLEFT
350
B0
  3
UCSORGRIGHT
350
B1
  3
UCSORGTOP
350
AE
  3
UCSORTHOREF
350
AB
  3
UCSORTHOVIEW
350
AC
  3
VERSIONGUID
350
A0
  0
DICTIONARY
  5
B5
102
{ACAD_REACTORS
330
C
102
}
330
C
100
AcDbDictionary
  3
CANNOSCALE
350
B6
  0
MLINESTYLE
  5
18
102
{ACAD_REACTORS
330
17
102
}
330
17
100
AcDbMlineStyle
  2
Standard
 70
     0
  3

 62
   256
 51
90.0
 52
90.0
 71
     2
 49
0.5
 62
   256
  6
BYLAYER
 49
-0.5
 62
   256
  6
BYLAYER
  0
SCALE
  5
3C
102
{ACAD_REACTORS
330
3B
102
}
330
3B
100
AcDbScale
 70
     0
300
1:1
140
1.0
141
1.0
290
     1
  0
SCALE
  5
3D
102
{ACAD_REACTORS
330
3B
102
}
330
3B
100
AcDbScale
 70
     0
300
1:2
140
1.0
141
2.0
290
     0
  0
SCALE
  5
3E
102
{ACAD_REACTORS
330
3B
102
}
330
3B
100
AcDbScale
 70
     0
300
1:4
140
1.0
141
4.0
290
     0
  0
SCALE
  5
3F
102
{ACAD_REACTORS
330
3B
102
}
330
3B
100
AcDbScale
 70
     0
300
1:5
140
1.0
141
5.0
290
     0
  0
SCALE
  5
40
102
{ACAD_REACTORS
330
3B
102
}
330
3B
100
AcDbScale
 70
     0
300
1:8
140
1.0
141
8.0
290
     0
  0
SCALE
  5
41
102
{ACAD_REACTORS
330
3B
102
}
330
3B
100
AcDbScale
 70
     0
300
1:10
140
1.0
141
10.0
290
     0
  0
SCALE
  5
42
102
{ACAD_REACTORS
330
3B
102
}
330
3B
100
AcDbScale
 70
     0
300
1:16
140
1.0
141
16.0
290
     0
  0
SCALE
  5
43
102
{ACAD_REACTORS
330
3B
102
}
330
3B
100
AcDbScale
 70
     0
300
1:20
140
1.0
141
20.0
290
     0
  0
SCALE
  5
44
102
{ACAD_REACTORS
330
3B
102
}
330
3B
100
AcDbScale
 70
     0
300
1:30
140
1.0
141
30.0
290
     0
  0
SCALE
  5
45
102
{ACAD_REACTORS
330
3B
102
}
330
3B
100
AcDbScale
 70
     0
300
1:40
140
1.0
141
40.0
290
     0
  0
SCALE
  5
46
102
{ACAD_REACTORS
330
3B
102
}
330
3B
100
AcDbScale
 70
     0
300
1:50
140
1.0
141
50.0
290
     0
  0
SCALE
  5
47
102
{ACAD_REACTORS
330
3B
102
}
330
3B
100
AcDbScale
 70
     0
300
1:100
140
1.0
141
100.0
290
     0
  0
SCALE
  5
48
102
{ACAD_REACTORS
330
3B
102
}
330
3B
100
AcDbScale
 70
     0
300
2:1
140
2.0
141
1.0
290
     0
  0
SCALE
  5
49
102
{ACAD_REACTORS
330
3B
102
}
330
3B
100
AcDbScale
 70
     0
300
4:1
140
4.0
141
1.0
290
     0
  0
SCALE
  5
4A
102
{ACAD_REACTORS
330
3B
102
}
330
3B
100
AcDbScale
 70
     0
300
8:1
140
8.0
141
1.0
290
     0
  0
SCALE
  5
4B
102
{ACAD_REACTORS
330
3B
102
}
330
3B
100
AcDbScale
 70
     0
300
10:1
140
10.0
141
1.0
290
     0
  0
SCALE
  5
4C
102
{ACAD_REACTORS
330
3B
102
}
330
3B
100
AcDbScale
 70
     0
300
100:1
140
100.0
141
1.0
290
     0
  0
SCALE
  5
4D
102
{ACAD_REACTORS
330
3B
102
}
330
3B
100
AcDbScale
 70
     0
300
1/128" = 1'-0"
140
0.0078125
141
12.0
290
     0
  0
SCALE
  5
4E
102
{ACAD_REACTORS
330
3B
102
}
330
3B
100
AcDbScale
 70
     0
300
1/64" = 1'-0"
140
0.015625
141
12.0
290
     0
  0
SCALE
  5
4F
102
{ACAD_REACTORS
330
3B
102
}
330
3B
100
AcDbScale
 70
     0
300
1/32" = 1'-0"
140
0.03125
141
12.0
290
     0
  0
SCALE
  5
50
102
{ACAD_REACTORS
330
3B
102
}
330
3B
100
AcDbScale
 70
     0
300
1/16" = 1'-0"
140
0.0625
141
12.0
290
     0
  0
SCALE
  5
51
102
{ACAD_REACTORS
330
3B
102
}
330
3B
100
AcDbScale
 70
     0
300
3/32" = 1'-0"
140
0.09375
141
12.0
290
     0
  0
SCALE
  5
52
102
{ACAD_REACTORS
330
3B
102
}
330
3B
100
AcDbScale
 70
     0
300
1/8" = 1'-0"
140
0.125
141
12.0
290
     0
  0
SCALE
  5
53
102
{ACAD_REACTORS
330
3B
102
}
330
3B
100
AcDbScale
 70
     0
300
3/16" = 1'-0"
140
0.1875
141
12.0
290
     0
  0
SCALE
  5
54
102
{ACAD_REACTORS
330
3B
102
}
330
3B
100
AcDbScale
 70
     0
300
1/4" = 1'-0"
140
0.25
141
12.0
290
     0
  0
SCALE
  5
55
102
{ACAD_REACTORS
330
3B
102
}
330
3B
100
AcDbScale
 70
     0
300
3/8" = 1'-0"
140
0.375
141
12.0
290
     0
  0
SCALE
  5
56
102
{ACAD_REACTORS
330
3B
102
}
330
3B
100
AcDbScale
 70
     0
300
1/2" = 1'-0"
140
0.5
141
12.0
290
     0
  0
SCALE
  5
57
102
{ACAD_REACTORS
330
3B
102
}
330
3B
100
AcDbScale
 70
     0
300
3/4" = 1'-0"
140
0.75
141
12.0
290
     0
  0
SCALE
  5
58
102
{ACAD_REACTORS
330
3B
102
}
330
3B
100
AcDbScale
 70
     0
300
1" = 1'-0"
140
1.0
141
12.0
290
     0
  0
SCALE
  5
59
102
{ACAD_REACTORS
330
3B
102
}
330
3B
100
AcDbScale
 70
     0
300
1-1/2" = 1'-0"
140
1.5
141
12.0
290
     0
  0
SCALE
  5
5A
102
{ACAD_REACTORS
330
3B
102
}
330
3B
100
AcDbScale
 70
     0
300
3" = 1'-0"
140
3.0
141
12.0
290
     0
  0
SCALE
  5
5B
102
{ACAD_REACTORS
330
3B
102
}
330
3B
100
AcDbScale
 70
     0
300
6" = 1'-0"
140
6.0
141
12.0
290
     0
  0
SCALE
  5
5C
102
{ACAD_REACTORS
330
3B
102
}
330
3B
100
AcDbScale
 70
     0
300
1'-0" = 1'-0"
140
12.0
141
12.0
290
     0
  0
VISUALSTYLE
  5
2F
102
{ACAD_REACTORS
330
2A
102
}
330
2A
100
AcDbVisualStyle
  2
2dWireframe
 70
     4
 71
     0
 72
     2
 73
     0
 90
        0
 40
-0.6
 41
-30.0
 62
     5
 63
     7
 74
     1
 91
        4
 64
     7
 65
   257
 75
     1
175
     1
 42
1.0
 92
        0
 66
   257
 43
1.0
 76
     1
 77
     6
 78
     2
 67
     7
 79
     5
170
     0
171
     0
290
     0
174
     0
 93
        1
 44
0.0
173
     0
291
     0
 45
0.0
1001
ACAD
1000
AcDbSavedByObjectVersion
1070
     0
  0
VISUALSTYLE
  5
31
102
{ACAD_REACTORS
330
2A
102
}
330
2A
100
AcDbVisualStyle
  2
3D Hidden
 70
     6
 71
     1
 72
     2
 73
     2
 90
        0
 40
-0.6
 41
-30.0
 62
     5
 63
     7
 74
     2
 91
        2
 64
     7
 65
   257
 75
     2
175
     1
 42
40.0
 92
        0
 66
   257
 43
1.0
 76
     1
 77
     6
 78
     2
 67
     7
 79
     3
170
     0
171
     0
290
     0
174
     0
 93
        1
 44
0.0
173
     0
291
     0
 45
0.0
1001
ACAD
1000
AcDbSavedByObjectVersion
1070
     0
  0
VISUALSTYLE
  5
30
102
{ACAD_REACTORS
330
2A
102
}
330
2A
100
AcDbVisualStyle
  2
3dWireframe
 70
     5
 71
     0
 72
     2
 73
     0
 90
        0
 40
-0.6
 41
-30.0
 62
     5
 63
     7
 74
     1
 91
        4
 64
     7
 65
   257
 75
     1
175
     1
 42
1.0
 92
        0
 66
   257
 43
1.0
 76
     1
 77
     6
 78
     2
 67
     7
 79
     5
170
     0
171
     0
290
     0
174
     0
 93
        1
 44
0.0
173
     0
291
     0
 45
0.0
1001
ACAD
1000
AcDbSavedByObjectVersion
1070
     0
  0
VISUALSTYLE
  5
32
102
{ACAD_REACTORS
330
2A
102
}
330
2A
100
AcDbVisualStyle
  2
Basic
 70
     7
 71
     1
 72
     0
 73
     1
 90
        0
 40
-0.6
 41
-30.0
 62
     5
 63
     7
 74
     0
 91
        4
 64
     7
 65
   257
 75
     1
175
     1
 42
1.0
 92
        8
 66
     7
 43
1.0
 76
     1
 77
     6
 78
     2
 67
     7
 79
     5
170
     0
171
     0
290
     0
174
     0
 93
        1
 44
0.0
173
     0
291
     1
 45
0.0
1001
ACAD
1000
AcDbSavedByObjectVersion
1070
     0
  0
VISUALSTYLE
  5
36
102
{ACAD_REACTORS
330
2A
102
}
330
2A
100
AcDbVisualStyle
  2
Brighten
 70
    12
 71
     2
 72
     2
 73
     0
 90
        0
 40
-0.6
 41
-30.0
 62
     5
 63
     7
 74
     1
 91
        4
 64
     7
 65
   257
 75
     1
175
     1
 42
1.0
 92
        8
 66
     7
 43
1.0
 76
     1
 77
     6
 78
     2
 67
     7
 79
     5
170
     0
171
     0
290
     0
174
     0
 93
        1
 44
50.0
173
     0
291
     1
 45
0.0
1001
ACAD
1000
AcDbSavedByObjectVersion
1070
     0
  0
VISUALSTYLE
  5
3A
102
{ACAD_REACTORS
330
2A
102
}
330
2A
100
AcDbVisualStyle
  2
ColorChange
 70
    16
 71
     2
 72
     2
 73
     3
 90
        0
 40
-0.6
 41
-30.0
 62
     5
 63
     8
 74
     1
 91
        4
 64
     7
 65
   257
 75
     1
175
     1
 42
1.0
 92
        8
 66
     8
 43
1.0
 76
     1
 77
     6
 78
     2
 67
     7
 79
     5
170
     0
171
     0
290
     0
174
     0
 93
        1
 44
0.0
173
     0
291
     1
 45
0.0
1001
ACAD
1000
AcDbSavedByObjectVersion
1070
     0
  0
VISUALSTYLE
  5
34
102
{ACAD_REACTORS
330
2A
102
}
330
2A
100
AcDbVisualStyle
  2
Conceptual
 70
     9
 71
     3
 72
     2
 73
     0
 90
        0
 40
-0.6
 41
-30.0
 62
     5
 63
     7
 74
     2
 91
        2
 64
     7
 65
   257
 75
     1
175
     1
 42
40.0
 92
        8
 66
     7
 43
1.0
 76
     1
 77
     6
 78
     2
 67
     7
 79
     3
170
     0
171
     0
290
     0
174
     0
 93
        1
 44
0.0
173
     0
291
     0
 45
0.0
1001
ACAD
1000
AcDbSavedByObjectVersion
1070
     0
  0
VISUALSTYLE
  5
35
102
{ACAD_REACTORS
330
2A
102
}
330
2A
100
AcDbVisualStyle
  2
Dim
 70
    11
 71
     2
 72
     2
 73
     0
 90
        0
 40
-0.6
 41
-30.0
 62
     5
 63
     7
 74
     1
 91
        4
 64
     7
 65
   257
 75
     1
175
     1
 42
1.0
 92
        8
 66
     7
 43
1.0
 76
     1
 77
     6
 78
     2
 67
     7
 79
     5
170
     0
171
     0
290
     0
174
     0
 93
        1
 44
-50.0
173
     0
291
     1
 45
0.0
1001
ACAD
1000
AcDbSavedByObjectVersion
1070
     0
  0
VISUALSTYLE
  5
39
102
{ACAD_REACTORS
330
2A
102
}
330
2A
100
AcDbVisualStyle
  2
Facepattern
 70
    15
 71
     2
 72
     2
 73
     0
 90
        0
 40
-0.6
 41
-30.0
 62
     5
 63
     7
 74
     1
 91
        4
 64
     7
 65
   257
 75
     1
175
     1
 42
1.0
 92
        8
 66
     7
 43
1.0
 76
     1
 77
     6
 78
     2
 67
     7
 79
     5
170
     0
171
     0
290
     0
174
     0
 93
        1
 44
0.0
173
     0
291
     1
 45
0.0
1001
ACAD
1000
AcDbSavedByObjectVersion
1070
     0
  0
VISUALSTYLE
  5
2B
102
{ACAD_REACTORS
330
2A
102
}
330
2A
100
AcDbVisualStyle
  2
Flat
 70
     0
 71
     2
 72
     1
 73
     1
 90
        2
 40
-0.6
 41
30.0
 62
     5
 63
     7
 74
     0
 91
        4
 64
     7
 65
   257
 75
     1
175
     1
 42
1.0
 92
        8
 66
     7
 43
1.0
 76
     1
 77
     6
 78
     2
 67
     7
 79
     5
170
     0
171
     0
290
     0
174
     0
 93
       13
 44
0.0
173
     0
291
     1
 45
0.0
1001
ACAD
1000
AcDbSavedByObjectVersion
1070
     0
  0
VISUALSTYLE
  5
2C
102
{ACAD_REACTORS
330
2A
102
}
330
2A
100
AcDbVisualStyle
  2
FlatWithEdges
 70
     1
 71
     2
 72
     1
 73
     1
 90
        2
 40
-0.6
 41
30.0
 62
     5
 63
     7
 74
     1
 91
        4
 64
     7
 65
   257
 75
     1
175
     1
 42
1.0
 92
        0
 66
   257
 43
1.0
 76
     1
 77
     6
 78
     2
 67
     7
 79
     5
170
     0
171
     0
290
     0
174
     0
 93
       13
 44
0.0
173
     0
291
     1
 45
0.0
1001
ACAD
1000
AcDbSavedByObjectVersion
1070
     0
  0
VISUALSTYLE
  5
2D
102
{ACAD_REACTORS
330
2A
102
}
330
2A
100
AcDbVisualStyle
  2
Gouraud
 70
     2
 71
     2
 72
     2
 73
     1
 90
        2
 40
-0.6
 41
30.0
 62
     5
 63
     7
 74
     0
 91
        4
 64
     7
 65
   257
 75
     1
175
     1
 42
1.0
 92
        0
 66
     7
 43
1.0
 76
     1
 77
     6
 78
     2
 67
     7
 79
     5
170
     0
171
     0
290
     0
174
     0
 93
       13
 44
0.0
173
     0
291
     1
 45
0.0
1001
ACAD
1000
AcDbSavedByObjectVersion
1070
     0
  0
VISUALSTYLE
  5
2E
102
{ACAD_REACTORS
330
2A
102
}
330
2A
100
AcDbVisualStyle
  2
GouraudWithEdges
 70
     3
 71
     2
 72
     2
 73
     1
 90
        2
 40
-0.6
 41
30.0
 62
     5
 63
     7
 74
     1
 91
        4
 64
     7
 65
   257
 75
     1
175
     1
 42
1.0
 92
        0
 66
   257
 43
1.0
 76
     1
 77
     6
 78
     2
 67
     7
 79
     5
170
     0
171
     0
290
     0
174
     0
 93
       13
 44
0.0
173
     0
291
     1
 45
0.0
1001
ACAD
1000
AcDbSavedByObjectVersion
1070
     0
  0
VISUALSTYLE
  5
38
102
{ACAD_REACTORS
330
2A
102
}
330
2A
100
AcDbVisualStyle
  2
Linepattern
 70
    14
 71
     2
 72
     2
 73
     0
 90
        0
 40
-0.6
 41
-30.0
 62
     5
 63
     7
 74
     1
 91
        4
 64
     7
 65
   257
 75
     7
175
     7
 42
1.0
 92
        8
 66
     7
 43
1.0
 76
     1
 77
     6
 78
     2
 67
     7
 79
     5
170
     0
171
     0
290
     0
174
     0
 93
        1
 44
0.0
173
     0
291
     1
 45
0.0
1001
ACAD
1000
AcDbSavedByObjectVersion
1070
     0
  0
VISUALSTYLE
  5
33
102
{ACAD_REACTORS
330
2A
102
}
330
2A
100
AcDbVisualStyle
  2
Realistic
 70
     8
 71
     2
 72
     2
 73
     0
 90
        0
 40
-0.6
 41
-30.0
 62
     5
 63
     7
 74
     1
 91
        0
 64
     7
 65
   257
 75
     1
175
     1
 42
1.0
 92
        8
 66
     8
 43
1.0
 76
     1
 77
     6
 78
     2
 67
     7
 79
     5
170
     0
171
     0
290
     0
174
     0
 93
       13
 44
0.0
173
     0
291
     0
 45
0.0
1001
ACAD
1000
AcDbSavedByObjectVersion
1070
     0
  0
VISUALSTYLE
  5
37
102
{ACAD_REACTORS
330
2A
102
}
330
2A
100
AcDbVisualStyle
  2
Thicken
 70
    13
 71
     2
 72
     2
 73
     0
 90
        0
 40
-0.6
 41
-30.0
 62
     5
 63
     7
 74
     1
 91
        4
 64
     7
 65
   257
 75
     1
175
     1
 42
1.0
 92
       12
 66
     7
 43
1.0
 76
     1
 77
     6
 78
     2
 67
     7
 79
     5
170
     0
171
     0
290
     0
174
     0
 93
        1
 44
0.0
173
     0
291
     1
 45
0.0
1001
ACAD
1000
AcDbSavedByObjectVersion
1070
     0
  0
XRECORD
  5
9E
102
{ACAD_REACTORS
330
95
102
}
330
95
100
AcDbXrecord
 90
        0
  0
XRECORD
  5
B4
102
{ACAD_REACTORS
330
95
102
}
330
95
100
AcDbXrecord
1000
DSTYLE
1002
{
1070
   340
340
11
1002
}
  0
XRECORD
  5
9F
102
{ACAD_REACTORS
330
95
102
}
330
95
100
AcDbXrecord
  1
{35459D62-9A3F-49FA-9C17-426CE214E785}
  0
XRECORD
  5
98
102
{ACAD_REACTORS
330
95
102
}
330
95
100
AcDbXrecord
  1

  0
XRECORD
  5
9D
102
{ACAD_REACTORS
330
95
102
}
330
95
100
AcDbXrecord
 90
        4
  0
XRECORD
  5
9A
102
{ACAD_REACTORS
330
95
102
}
330
95
100
AcDbXrecord
340
1A
  0
XRECORD
  5
9C
102
{ACAD_REACTORS
330
95
102
}
330
95
100
AcDbXrecord
 90
    10781
  0
XRECORD
  5
9B
102
{ACAD_REACTORS
330
95
102
}
330
95
100
AcDbXrecord
340
19
  0
XRECORD
  5
A1
102
{ACAD_REACTORS
330
95
102
}
330
95
100
AcDbXrecord
 40
0.0
  0
XRECORD
  5
A4
102
{ACAD_REACTORS
330
95
102
}
330
95
100
AcDbXrecord
340
0
  0
XRECORD
  5
AA
102
{ACAD_REACTORS
330
95
102
}
330
95
100
AcDbXrecord
 10
0.0
 20
0.0
 30
0.0
  0
XRECORD
  5
A6
102
{ACAD_REACTORS
330
95
102
}
330
95
100
AcDbXrecord
 10
0.0
 20
0.0
 30
0.0
  0
XRECORD
  5
A9
102
{ACAD_REACTORS
330
95
102
}
330
95
100
AcDbXrecord
 10
0.0
 20
0.0
 30
0.0
  0
XRECORD
  5
A7
102
{ACAD_REACTORS
330
95
102
}
330
95
100
AcDbXrecord
 10
0.0
 20
0.0
 30
0.0
  0
XRECORD
  5
A8
102
{ACAD_REACTORS
330
95
102
}
330
95
100
AcDbXrecord
 10
0.0
 20
0.0
 30
0.0
  0
XRECORD
  5
A5
102
{ACAD_REACTORS
330
95
102
}
330
95
100
AcDbXrecord
 10
0.0
 20
0.0
 30
0.0
  0
XRECORD
  5
A2
102
{ACAD_REACTORS
330
95
102
}
330
95
100
AcDbXrecord
340
0
  0
XRECORD
  5
A3
102
{ACAD_REACTORS
330
95
102
}
330
95
100
AcDbXrecord
 70
     0
  0
XRECORD
  5
99
102
{ACAD_REACTORS
330
95
102
}
330
95
100
AcDbXrecord
  1

  0
XRECORD
  5
96
102
{ACAD_REACTORS
330
95
102
}
330
95
100
AcDbXrecord
 90
        1
  0
XRECORD
  5
97
102
{ACAD_REACTORS
330
95
102
}
330
95
100
AcDbXrecord
 90
       70
  0
XRECORD
  5
AD
102
{ACAD_REACTORS
330
95
102
}
330
95
100
AcDbXrecord
340
0
  0
XRECORD
  5
B3
102
{ACAD_REACTORS
330
95
102
}
330
95
100
AcDbXrecord
 10
0.0
 20
0.0
 30
0.0
  0
XRECORD
  5
AF
102
{ACAD_REACTORS
330
95
102
}
330
95
100
AcDbXrecord
 10
0.0
 20
0.0
 30
0.0
  0
XRECORD
  5
B2
102
{ACAD_REACTORS
330
95
102
}
330
95
100
AcDbXrecord
 10
0.0
 20
0.0
 30
0.0
  0
XRECORD
  5
B0
102
{ACAD_REACTORS
330
95
102
}
330
95
100
AcDbXrecord
 10
0.0
 20
0.0
 30
0.0
  0
XRECORD
  5
B1
102
{ACAD_REACTORS
330
95
102
}
330
95
100
AcDbXrecord
 10
0.0
 20
0.0
 30
0.0
  0
XRECORD
  5
AE
102
{ACAD_REACTORS
330
95
102
}
330
95
100
AcDbXrecord
 10
0.0
 20
0.0
 30
0.0
  0
XRECORD
  5
AB
102
{ACAD_REACTORS
330
95
102
}
330
95
100
AcDbXrecord
340
0
  0
XRECORD
  5
AC
102
{ACAD_REACTORS
330
95
102
}
330
95
100
AcDbXrecord
 70
     0
  0
XRECORD
  5
A0
102
{ACAD_REACTORS
330
95
102
}
330
95
100
AcDbXrecord
  1
{FAEB1C32-E019-11D5-929B-00C0DF256EC4}
  0
DICTIONARYVAR
  5
B6
102
{ACAD_REACTORS
330
B5
102
}
330
B5
100
DictionaryVariables
280
     0
  1
1:1
  0
ENDSEC
  0
EOF
