  0
SECTION
  2
HEADER
  9
$ACADVER
  1
AC1021
  9
$ACADMAINTVER
 70
    25
  9
$DWGCODEPAGE
  3
ANSI_1252
  9
$INSBASE
 10
0.0
 20
0.0
 30
0.0
  9
$EXTMIN
 10
-11.55271
 20
-15.90292
 30
0.0
  9
$EXTMAX
 10
-9.4473
 20
-13.85
 30
0.0
  9
$LIMMIN
 10
0.0
 20
0.0
  9
$LIMMAX
 10
12.0
 20
9.0
  9
$ORTHOMODE
 70
     0
  9
$REGENMODE
 70
     1
  9
$FILLMODE
 70
     1
  9
$QTEXTMODE
 70
     0
  9
$MIRRTEXT
 70
     1
  9
$LTSCALE
 40
1.0
  9
$ATTMODE
 70
     1
  9
$TEXTSIZE
 40
0.2
  9
$TRACEWID
 40
0.05
  9
$TEXTSTYLE
  7
Standard
  9
$CLAYER
  8
0
  9
$CELTYPE
  6
ByLayer
  9
$CECOLOR
 62
   256
  9
$CELTSCALE
 40
1.0
  9
$DISPSILH
 70
     0
  9
$DIMSCALE
 40
1.0
  9
$DIMASZ
 40
0.18
  9
$DIMEXO
 40
0.0625
  9
$DIMDLI
 40
0.38
  9
$DIMRND
 40
0.0
  9
$DIMDLE
 40
0.0
  9
$DIMEXE
 40
0.18
  9
$DIMTP
 40
0.0
  9
$DIMTM
 40
0.0
  9
$DIMTXT
 40
0.18
  9
$DIMCEN
 40
0.09
  9
$DIMTSZ
 40
0.0
  9
$DIMTOL
 70
     0
  9
$DIMLIM
 70
     0
  9
$DIMTIH
 70
     1
  9
$DIMTOH
 70
     1
  9
$DIMSE1
 70
     0
  9
$DIMSE2
 70
     0
  9
$DIMTAD
 70
     0
  9
$DIMZIN
 70
     0
  9
$DIMBLK
  1

  9
$DIMASO
 70
     1
  9
$DIMSHO
 70
     1
  9
$DIMPOST
  1

  9
$DIMAPOST
  1

  9
$DIMALT
 70
     0
  9
$DIMALTD
 70
     2
  9
$DIMALTF
 40
25.4
  9
$DIMLFAC
 40
1.0
  9
$DIMTOFL
 70
     0
  9
$DIMTVP
 40
0.0
  9
$DIMTIX
 70
     0
  9
$DIMSOXD
 70
     0
  9
$DIMSAH
 70
     0
  9
$DIMBLK1
  1

  9
$DIMBLK2
  1

  9
$DIMSTYLE
  2
Standard
  9
$DIMCLRD
 70
     0
  9
$DIMCLRE
 70
     0
  9
$DIMCLRT
 70
     0
  9
$DIMTFAC
 40
1.0
  9
$DIMGAP
 40
0.09
  9
$DIMJUST
 70
     0
  9
$DIMSD1
 70
     0
  9
$DIMSD2
 70
     0
  9
$DIMTOLJ
 70
     1
  9
$DIMTZIN
 70
     0
  9
$DIMALTZ
 70
     0
  9
$DIMALTTZ
 70
     0
  9
$DIMUPT
 70
     0
  9
$DIMDEC
 70
     4
  9
$DIMTDEC
 70
     4
  9
$DIMALTU
 70
     2
  9
$DIMALTTD
 70
     2
  9
$DIMTXSTY
  7
Standard
  9
$DIMAUNIT
 70
     0
  9
$DIMADEC
 70
     0
  9
$DIMALTRND
 40
0.0
  9
$DIMAZIN
 70
     0
  9
$DIMDSEP
 70
    46
  9
$DIMATFIT
 70
     3
  9
$DIMFRAC
 70
     0
  9
$DIMLDRBLK
  1

  9
$DIMLUNIT
 70
     2
  9
$DIMLWD
 70
    -2
  9
$DIMLWE
 70
    -2
  9
$DIMTMOVE
 70
     0
  9
$DIMFXL
 40
1.0
  9
$DIMFXLON
 70
     0
  9
$DIMJOGANG
 40
0.7853981633974483
  9
$DIMTFILL
 70
     0
  9
$DIMTFILLCLR
 70
     0
  9
$DIMARCSYM
 70
     0
  9
$DIMLTYPE
  6

  9
$DIMLTEX1
  6

  9
$DIMLTEX2
  6

  9
$LUNITS
 70
     2
  9
$LUPREC
 70
     4
  9
$SKETCHINC
 40
0.1
  9
$FILLETRAD
 40
0.5
  9
$AUNITS
 70
     0
  9
$AUPREC
 70
     0
  9
$MENU
  1
.
  9
$ELEVATION
 40
0.0
  9
$PELEVATION
 40
0.0
  9
$THICKNESS
 40
0.0
  9
$LIMCHECK
 70
     0
  9
$CHAMFERA
 40
0.5
  9
$CHAMFERB
 40
0.5
  9
$CHAMFERC
 40
1.0
  9
$CHAMFERD
 40
0.0
  9
$SKPOLY
 70
     0
  9
$TDCREATE
 40
2458462.831303901
  9
$TDUCREATE
 40
2458462.831303901
  9
$TDUPDATE
 40
2458462.831303912
  9
$TDUUPDATE
 40
2458462.831303912
  9
$TDINDWG
 40
0.0000000116
  9
$TDUSRTIMER
 40
0.0000000116
  9
$USRTIMER
 70
     1
  9
$ANGBASE
 50
0.0
  9
$ANGDIR
 70
     0
  9
$PDMODE
 70
     0
  9
$PDSIZE
 40
0.0
  9
$PLINEWID
 40
0.0
  9
$SPLFRAME
 70
     0
  9
$SPLINETYPE
 70
     6
  9
$SPLINESEGS
 70
     8
  9
$HANDSEED
  5
AF
  9
$SURFTAB1
 70
     6
  9
$SURFTAB2
 70
     6
  9
$SURFTYPE
 70
     6
  9
$SURFU
 70
     6
  9
$SURFV
 70
     6
  9
$UCSBASE
  2

  9
$UCSNAME
  2

  9
$UCSORG
 10
0.0
 20
0.0
 30
0.0
  9
$UCSXDIR
 10
1.0
 20
0.0
 30
0.0
  9
$UCSYDIR
 10
0.0
 20
1.0
 30
0.0
  9
$UCSORTHOREF
  2

  9
$UCSORTHOVIEW
 70
     0
  9
$UCSORGTOP
 10
0.0
 20
0.0
 30
0.0
  9
$UCSORGBOTTOM
 10
0.0
 20
0.0
 30
0.0
  9
$UCSORGLEFT
 10
0.0
 20
0.0
 30
0.0
  9
$UCSORGRIGHT
 10
0.0
 20
0.0
 30
0.0
  9
$UCSORGFRONT
 10
0.0
 20
0.0
 30
0.0
  9
$UCSORGBACK
 10
0.0
 20
0.0
 30
0.0
  9
$PUCSBASE
  2

  9
$PUCSNAME
  2

  9
$PUCSORG
 10
0.0
 20
0.0
 30
0.0
  9
$PUCSXDIR
 10
1.0
 20
0.0
 30
0.0
  9
$PUCSYDIR
 10
0.0
 20
1.0
 30
0.0
  9
$PUCSORTHOREF
  2

  9
$PUCSORTHOVIEW
 70
     0
  9
$PUCSORGTOP
 10
0.0
 20
0.0
 30
0.0
  9
$PUCSORGBOTTOM
 10
0.0
 20
0.0
 30
0.0
  9
$PUCSORGLEFT
 10
0.0
 20
0.0
 30
0.0
  9
$PUCSORGRIGHT
 10
0.0
 20
0.0
 30
0.0
  9
$PUCSORGFRONT
 10
0.0
 20
0.0
 30
0.0
  9
$PUCSORGBACK
 10
0.0
 20
0.0
 30
0.0
  9
$USERI1
 70
     0
  9
$USERI2
 70
     0
  9
$USERI3
 70
     0
  9
$USERI4
 70
     0
  9
$USERI5
 70
     0
  9
$USERR1
 40
0.0
  9
$USERR2
 40
0.0
  9
$USERR3
 40
0.0
  9
$USERR4
 40
0.0
  9
$USERR5
 40
0.0
  9
$WORLDVIEW
 70
     1
  9
$SHADEDGE
 70
     3
  9
$SHADEDIF
 70
    70
  9
$TILEMODE
 70
     1
  9
$MAXACTVP
 70
    64
  9
$PINSBASE
 10
0.0
 20
0.0
 30
0.0
  9
$PLIMCHECK
 70
     0
  9
$PEXTMIN
 10
1.000000000000000E+20
 20
1.000000000000000E+20
 30
1.000000000000000E+20
  9
$PEXTMAX
 10
-1.000000000000000E+20
 20
-1.000000000000000E+20
 30
-1.000000000000000E+20
  9
$PLIMMIN
 10
0.0
 20
0.0
  9
$PLIMMAX
 10
12.0
 20
9.0
  9
$UNITMODE
 70
     0
  9
$VISRETAIN
 70
     1
  9
$PLINEGEN
 70
     0
  9
$PSLTSCALE
 70
     1
  9
$TREEDEPTH
 70
  3020
  9
$CMLSTYLE
  2
Standard
  9
$CMLJUST
 70
     0
  9
$CMLSCALE
 40
1.0
  9
$PROXYGRAPHICS
 70
     1
  9
$MEASUREMENT
 70
     0
  9
$CELWEIGHT
370
    -1
  9
$ENDCAPS
280
     0
  9
$JOINSTYLE
280
     0
  9
$LWDISPLAY
290
     0
  9
$INSUNITS
 70
     5
  9
$HYPERLINKBASE
  1

  9
$STYLESHEET
  1

  9
$XEDIT
290
     1
  9
$CEPSNTYPE
380
     0
  9
$PSTYLEMODE
290
     1
  9
$FINGERPRINTGUID
  2
{8FB0C0E2-475D-426C-8458-D658C7D69065}
  9
$VERSIONGUID
  2
{FAEB1C32-E019-11D5-929B-00C0DF256EC4}
  9
$EXTNAMES
290
     1
  9
$PSVPSCALE
 40
0.0
  9
$OLESTARTUP
290
     0
  9
$SORTENTS
280
   127
  9
$INDEXCTL
280
     0
  9
$HIDETEXT
280
     1
  9
$XCLIPFRAME
290
     0
  9
$HALOGAP
280
     0
  9
$OBSCOLOR
 70
   257
  9
$OBSLTYPE
280
     0
  9
$INTERSECTIONDISPLAY
280
     0
  9
$INTERSECTIONCOLOR
 70
   257
  9
$DIMASSOC
280
     2
  9
$PROJECTNAME
  1

  9
$CAMERADISPLAY
290
     0
  9
$LENSLENGTH
 40
50.0
  9
$CAMERAHEIGHT
 40
0.0
  9
$STEPSPERSEC
 40
2.0
  9
$STEPSIZE
 40
6.0
  9
$3DDWFPREC
 40
2.0
  9
$PSOLWIDTH
 40
0.25
  9
$PSOLHEIGHT
 40
4.0
  9
$LOFTANG1
 40
1.570796326794897
  9
$LOFTANG2
 40
1.570796326794897
  9
$LOFTMAG1
 40
0.0
  9
$LOFTMAG2
 40
0.0
  9
$LOFTPARAM
 70
     7
  9
$LOFTNORMALS
280
     1
  9
$LATITUDE
 40
37.795
  9
$LONGITUDE
 40
-122.394
  9
$NORTHDIRECTION
 40
0.0
  9
$TIMEZONE
 70
 -8000
  9
$LIGHTGLYPHDISPLAY
280
     1
  9
$TILEMODELIGHTSYNCH
280
     1
  9
$SOLIDHIST
280
     1
  9
$SHOWHIST
280
     1
  9
$DWFFRAME
280
     2
  9
$DGNFRAME
280
     2
  9
$REALWORLDSCALE
290
     1
  9
$INTERFERECOLOR
 62
   256
  9
$CSHADOW
280
     0
  9
$SHADOWPLANELOCATION
 40
0.0
  0
ENDSEC
  0
SECTION
  2
CLASSES
  0
CLASS
  1
ACDBDICTIONARYWDFLT
  2
AcDbDictionaryWithDefault
  3
ObjectDBX Classes
 90
        0
 91
        3
280
     0
281
     0
  0
CLASS
  1
VISUALSTYLE
  2
AcDbVisualStyle
  3
ObjectDBX Classes
 90
     4095
 91
        3
280
     0
281
     0
  0
CLASS
  1
SCALE
  2
AcDbScale
  3
ObjectDBX Classes
 90
     1153
 91
        3
280
     0
281
     0
  0
ENDSEC
  0
SECTION
  2
TABLES
  0
TABLE
  2
VPORT
  5
8
330
0
100
AcDbSymbolTable
 70
     1
  0
VPORT
  5
29
330
8
100
AcDbSymbolTableRecord
100
AcDbViewportTableRecord
  2
*Active
 70
     0
 10
0.0
 20
0.0
 11
1.0
 21
1.0
 12
10.42990654205607
 22
4.5
 13
0.0
 23
0.0
 14
0.5
 24
0.5
 15
0.5
 25
0.5
 16
0.0
 26
0.0
 36
1.0
 17
0.0
 27
0.0
 37
0.0
 40
9.0
 41
1.972972972850329
 42
50.0
 43
0.0
 44
0.0
 50
0.0
 51
0.0
 71
     0
 72
   100
 73
     1
 74
     3
 75
     0
 76
     0
 77
     0
 78
     0
281
     0
 65
     1
110
0.0
120
0.0
130
0.0
111
1.0
121
0.0
131
0.0
112
0.0
122
1.0
132
0.0
 79
     0
146
0.0
 60
     3
 61
     5
292
     1
282
     1
141
0.0
142
0.0
 63
   256
  0
ENDTAB
  0
TABLE
  2
LTYPE
  5
5
330
0
100
AcDbSymbolTable
 70
     1
  0
LTYPE
  5
14
330
5
100
AcDbSymbolTableRecord
100
AcDbLinetypeTableRecord
  2
ByBlock
 70
     0
  3

 72
    65
 73
     0
 40
0.0
  0
LTYPE
  5
15
330
5
100
AcDbSymbolTableRecord
100
AcDbLinetypeTableRecord
  2
ByLayer
 70
     0
  3

 72
    65
 73
     0
 40
0.0
  0
LTYPE
  5
16
330
5
100
AcDbSymbolTableRecord
100
AcDbLinetypeTableRecord
  2
Continuous
 70
     0
  3
Solid line
 72
    65
 73
     0
 40
0.0
  0
ENDTAB
  0
TABLE
  2
LAYER
  5
2
330
0
100
AcDbSymbolTable
 70
     2
  0
LAYER
  5
10
330
2
100
AcDbSymbolTableRecord
100
AcDbLayerTableRecord
  2
0
 70
     0
 62
     7
  6
Continuous
370
    -3
390
F
347
0
  0
LAYER
  5
5E
330
2
100
AcDbSymbolTableRecord
100
AcDbLayerTableRecord
  2
Layer 1
 70
     0
 62
     7
  6
Continuous
370
    -3
390
F
347
0
  0
ENDTAB
  0
TABLE
  2
STYLE
  5
3
330
0
100
AcDbSymbolTable
 70
     1
  0
STYLE
  5
11
330
3
100
AcDbSymbolTableRecord
100
AcDbTextStyleTableRecord
  2
Standard
 70
     0
 40
0.0
 41
1.0
 50
0.0
 71
     0
 42
0.2
  3
txt
  4

  0
ENDTAB
  0
TABLE
  2
VIEW
  5
6
330
0
100
AcDbSymbolTable
 70
     0
  0
ENDTAB
  0
TABLE
  2
UCS
  5
7
330
0
100
AcDbSymbolTable
 70
     0
  0
ENDTAB
  0
TABLE
  2
APPID
  5
9
330
0
100
AcDbSymbolTable
 70
     2
  0
APPID
  5
12
330
9
100
AcDbSymbolTableRecord
100
AcDbRegAppTableRecord
  2
ACAD
 70
     0
  0
APPID
  5
5D
330
9
100
AcDbSymbolTableRecord
100
AcDbRegAppTableRecord
  2
ODA
 70
     0
  0
ENDTAB
  0
TABLE
  2
DIMSTYLE
  5
A
330
0
100
AcDbSymbolTable
 70
     1
100
AcDbDimStyleTable
  0
DIMSTYLE
105
27
330
A
100
AcDbSymbolTableRecord
100
AcDbDimStyleTableRecord
  2
Standard
 70
     0
340
11
  0
ENDTAB
  0
TABLE
  2
BLOCK_RECORD
  5
1
330
0
100
AcDbSymbolTable
 70
     1
  0
BLOCK_RECORD
  5
1F
330
1
100
AcDbSymbolTableRecord
100
AcDbBlockTableRecord
  2
*Model_Space
340
22
 70
     0
280
     1
281
     0
  0
BLOCK_RECORD
  5
1B
330
1
100
AcDbSymbolTableRecord
100
AcDbBlockTableRecord
  2
*Paper_Space
340
1E
 70
     0
280
     1
281
     0
  0
BLOCK_RECORD
  5
23
330
1
100
AcDbSymbolTableRecord
100
AcDbBlockTableRecord
  2
*Paper_Space0
340
26
 70
     0
280
     1
281
     0
  0
ENDTAB
  0
ENDSEC
  0
SECTION
  2
BLOCKS
  0
BLOCK
  5
20
330
1F
100
AcDbEntity
  8
0
100
AcDbBlockBegin
  2
*Model_Space
 70
     0
 10
0.0
 20
0.0
 30
0.0
  3
*Model_Space
  1

  0
ENDBLK
  5
21
330
1F
100
AcDbEntity
  8
0
100
AcDbBlockEnd
  0
BLOCK
  5
1C
330
1B
100
AcDbEntity
 67
     1
  8
0
100
AcDbBlockBegin
  2
*Paper_Space
 70
     0
 10
0.0
 20
0.0
 30
0.0
  3
*Paper_Space
  1

  0
ENDBLK
  5
1D
330
1B
100
AcDbEntity
 67
     1
  8
0
100
AcDbBlockEnd
  0
BLOCK
  5
24
330
23
100
AcDbEntity
  8
0
100
AcDbBlockBegin
  2
*Paper_Space0
 70
     0
 10
0.0
 20
0.0
 30
0.0
  3
*Paper_Space0
  1

  0
ENDBLK
  5
25
330
23
100
AcDbEntity
  8
0
100
AcDbBlockEnd
  0
ENDSEC
  0
SECTION
  2
ENTITIES
  0
SPLINE
  5
5F
330
1F
100
AcDbEntity
  8
Layer 1
 62
     7
100
AcDbSpline
210
0.0
220
0.0
230
1.0
 70
    11
 71
     3
 72
    20
 73
    16
 74
     0
 42
0.0000000001
 43
0.0000000001
 40
0.0
 40
0.0
 40
0.0
 40
0.0
 40
0.25
 40
0.25
 40
0.25
 40
0.25
 40
0.5
 40
0.5
 40
0.5
 40
0.5
 40
0.75
 40
0.75
 40
0.75
 40
0.75
 40
1.0
 40
1.0
 40
1.0
 40
1.0
 10
-11.5
 20
-13.85
 30
0.0
 10
-11.5
 20
-13.85
 30
0.0
 10
-9.5
 20
-13.85
 30
0.0
 10
-9.5
 20
-13.85
 30
0.0
 10
-9.5
 20
-13.85
 30
0.0
 10
-9.5
 20
-13.85
 30
0.0
 10
-9.5
 20
-15.85
 30
0.0
 10
-9.5
 20
-15.85
 30
0.0
 10
-9.5
 20
-15.85
 30
0.0
 10
-9.5
 20
-15.85
 30
0.0
 10
-11.5
 20
-15.85
 30
0.0
 10
-11.5
 20
-15.85
 30
0.0
 10
-11.5
 20
-15.85
 30
0.0
 10
-11.5
 20
-15.85
 30
0.0
 10
-11.5
 20
-13.85
 30
0.0
 10
-11.5
 20
-13.85
 30
0.0
  0
SPLINE
  5
60
330
1F
100
AcDbEntity
  8
Layer 1
 62
   250
370
   106
100
AcDbSpline
210
0.0
220
0.0
230
1.0
 70
    24
 71
     3
 72
     8
 73
     4
 74
     0
 42
0.0000000001
 43
0.0000000001
 40
0.0
 40
0.0
 40
0.0
 40
0.0
 40
1.0
 40
1.0
 40
1.0
 40
1.0
 10
-11.5
 20
-14.85
 30
0.0
 10
-11.5
 20
-14.85
 30
0.0
 10
-10.85001
 20
-14.84998
 30
0.0
 10
-10.85001
 20
-14.84998
 30
0.0
  0
SPLINE
  5
61
330
1F
100
AcDbEntity
  8
Layer 1
 62
   250
370
   106
100
AcDbSpline
210
0.0
220
0.0
230
1.0
 70
    24
 71
     3
 72
     8
 73
     4
 74
     0
 42
0.0000000001
 43
0.0000000001
 40
0.0
 40
0.0
 40
0.0
 40
0.0
 40
1.0
 40
1.0
 40
1.0
 40
1.0
 10
-10.15001
 20
-14.5
 30
0.0
 10
-10.15001
 20
-14.5
 30
0.0
 10
-10.15001
 20
-15.0
 30
0.0
 10
-10.15001
 20
-15.0
 30
0.0
  0
SPLINE
  5
62
330
1F
100
AcDbEntity
  8
Layer 1
 62
   250
370
   106
100
AcDbSpline
210
0.0
220
0.0
230
1.0
 70
    24
 71
     3
 72
     8
 73
     4
 74
     0
 42
0.0000000001
 43
0.0000000001
 40
0.0
 40
0.0
 40
0.0
 40
0.0
 40
1.0
 40
1.0
 40
1.0
 40
1.0
 10
-10.15
 20
-14.85
 30
0.0
 10
-10.15
 20
-14.85
 30
0.0
 10
-9.50001
 20
-14.84998
 30
0.0
 10
-9.50001
 20
-14.84998
 30
0.0
  0
SPLINE
  5
63
330
1F
100
AcDbEntity
  8
Layer 1
 62
   250
370
   106
100
AcDbSpline
210
0.0
220
0.0
230
1.0
 70
    24
 71
     3
 72
     8
 73
     4
 74
     0
 42
0.0000000001
 43
0.0000000001
 40
0.0
 40
0.0
 40
0.0
 40
0.0
 40
1.0
 40
1.0
 40
1.0
 40
1.0
 10
-10.85001
 20
-14.5
 30
0.0
 10
-10.85001
 20
-14.5
 30
0.0
 10
-10.85001
 20
-15.0
 30
0.0
 10
-10.85001
 20
-15.0
 30
0.0
  0
LWPOLYLINE
  5
64
330
1F
100
AcDbEntity
  8
Layer 1
 62
   250
370
   100
100
AcDbPolyline
 90
        5
 70
     1
 43
0.0
 10
-10.65001
 20
-15.00001
 10
-10.35001
 20
-15.00001
 10
-10.35001
 20
-14.50001
 10
-10.65001
 20
-14.50001
 10
-10.65001
 20
-15.00001
  0
SPLINE
  5
65
330
1F
100
AcDbEntity
  8
Layer 1
 62
   250
370
   106
100
AcDbSpline
210
0.0
220
0.0
230
1.0
 70
    24
 71
     3
 72
     8
 73
     4
 74
     0
 42
0.0000000001
 43
0.0000000001
 40
0.0
 40
0.0
 40
0.0
 40
0.0
 40
1.0
 40
1.0
 40
1.0
 40
1.0
 10
-11.175
 20
-15.19998
 30
0.0
 10
-11.175
 20
-15.19998
 30
0.0
 10
-11.17502
 20
-14.84999
 30
0.0
 10
-11.17502
 20
-14.84999
 30
0.0
  0
SPLINE
  5
66
330
1F
100
AcDbEntity
  8
Layer 1
 62
   250
370
   106
100
AcDbSpline
210
0.0
220
0.0
230
1.0
 70
    24
 71
     3
 72
     8
 73
     4
 74
     0
 42
0.0000000001
 43
0.0000000001
 40
0.0
 40
0.0
 40
0.0
 40
0.0
 40
1.0
 40
1.0
 40
1.0
 40
1.0
 10
-11.375
 20
-15.19998
 30
0.0
 10
-11.375
 20
-15.19998
 30
0.0
 10
-10.975
 20
-15.19998
 30
0.0
 10
-10.975
 20
-15.19998
 30
0.0
  0
SPLINE
  5
67
330
1F
100
AcDbEntity
  8
Layer 1
 62
   250
370
   106
100
AcDbSpline
210
0.0
220
0.0
230
1.0
 70
    24
 71
     3
 72
     8
 73
     4
 74
     0
 42
0.0000000001
 43
0.0000000001
 40
0.0
 40
0.0
 40
0.0
 40
0.0
 40
1.0
 40
1.0
 40
1.0
 40
1.0
 10
-11.375
 20
-15.39998
 30
0.0
 10
-11.375
 20
-15.39998
 30
0.0
 10
-10.975
 20
-15.39998
 30
0.0
 10
-10.975
 20
-15.39998
 30
0.0
  0
SPLINE
  5
68
330
1F
100
AcDbEntity
  8
Layer 1
 62
   250
370
   106
100
AcDbSpline
210
0.0
220
0.0
230
1.0
 70
    24
 71
     3
 72
     8
 73
     4
 74
     0
 42
0.0000000001
 43
0.0000000001
 40
0.0
 40
0.0
 40
0.0
 40
0.0
 40
1.0
 40
1.0
 40
1.0
 40
1.0
 10
-11.175
 20
-15.64998
 30
0.0
 10
-11.175
 20
-15.64998
 30
0.0
 10
-11.17502
 20
-15.39999
 30
0.0
 10
-11.17502
 20
-15.39999
 30
0.0
  0
SPLINE
  5
69
330
1F
100
AcDbEntity
  8
Layer 1
 62
   250
370
   106
100
AcDbSpline
210
0.0
220
0.0
230
1.0
 70
    24
 71
     3
 72
     8
 73
     4
 74
     0
 42
0.0000000001
 43
0.0000000001
 40
0.0
 40
0.0
 40
0.0
 40
0.0
 40
1.0
 40
1.0
 40
1.0
 40
1.0
 10
-9.825
 20
-15.19998
 30
0.0
 10
-9.825
 20
-15.19998
 30
0.0
 10
-9.82502
 20
-14.84999
 30
0.0
 10
-9.82502
 20
-14.84999
 30
0.0
  0
SPLINE
  5
6A
330
1F
100
AcDbEntity
  8
Layer 1
 62
   250
370
   106
100
AcDbSpline
210
0.0
220
0.0
230
1.0
 70
    24
 71
     3
 72
     8
 73
     4
 74
     0
 42
0.0000000001
 43
0.0000000001
 40
0.0
 40
0.0
 40
0.0
 40
0.0
 40
1.0
 40
1.0
 40
1.0
 40
1.0
 10
-10.025
 20
-15.19998
 30
0.0
 10
-10.025
 20
-15.19998
 30
0.0
 10
-9.625
 20
-15.19998
 30
0.0
 10
-9.625
 20
-15.19998
 30
0.0
  0
SPLINE
  5
6B
330
1F
100
AcDbEntity
  8
Layer 1
 62
   250
370
   106
100
AcDbSpline
210
0.0
220
0.0
230
1.0
 70
    24
 71
     3
 72
     8
 73
     4
 74
     0
 42
0.0000000001
 43
0.0000000001
 40
0.0
 40
0.0
 40
0.0
 40
0.0
 40
1.0
 40
1.0
 40
1.0
 40
1.0
 10
-10.025
 20
-15.39998
 30
0.0
 10
-10.025
 20
-15.39998
 30
0.0
 10
-9.625
 20
-15.39998
 30
0.0
 10
-9.625
 20
-15.39998
 30
0.0
  0
SPLINE
  5
6C
330
1F
100
AcDbEntity
  8
Layer 1
 62
   250
370
   106
100
AcDbSpline
210
0.0
220
0.0
230
1.0
 70
    24
 71
     3
 72
     8
 73
     4
 74
     0
 42
0.0000000001
 43
0.0000000001
 40
0.0
 40
0.0
 40
0.0
 40
0.0
 40
1.0
 40
1.0
 40
1.0
 40
1.0
 10
-9.825
 20
-15.64998
 30
0.0
 10
-9.825
 20
-15.64998
 30
0.0
 10
-9.82502
 20
-15.39999
 30
0.0
 10
-9.82502
 20
-15.39999
 30
0.0
  0
SPLINE
  5
6D
330
1F
100
AcDbEntity
  8
Layer 1
 62
   250
370
   106
100
AcDbSpline
210
0.0
220
0.0
230
1.0
 70
    24
 71
     3
 72
     8
 73
     4
 74
     0
 42
0.0000000001
 43
0.0000000001
 40
0.0
 40
0.0
 40
0.0
 40
0.0
 40
1.0
 40
1.0
 40
1.0
 40
1.0
 10
-11.175
 20
-15.64998
 30
0.0
 10
-11.175
 20
-15.64998
 30
0.0
 10
-9.82501
 20
-15.64998
 30
0.0
 10
-9.82501
 20
-15.64998
 30
0.0
  0
SPLINE
  5
6E
330
1F
100
AcDbEntity
  8
Layer 1
 62
   250
370
   106
100
AcDbSpline
210
0.0
220
0.0
230
1.0
 70
    24
 71
     3
 72
     8
 73
     4
 74
     0
 42
0.0000000001
 43
0.0000000001
 40
0.0
 40
0.0
 40
0.0
 40
0.0
 40
1.0
 40
1.0
 40
1.0
 40
1.0
 10
-10.48407
 20
-15.85
 30
0.0
 10
-10.48407
 20
-15.85
 30
0.0
 10
-10.48407
 20
-15.64998
 30
0.0
 10
-10.48407
 20
-15.64998
 30
0.0
  0
SPLINE
  5
6F
330
1F
100
AcDbEntity
  8
Layer 1
 62
   250
100
AcDbSpline
210
0.0
220
0.0
230
1.0
 70
    11
 71
     3
 72
   116
 73
   112
 74
     0
 42
0.0000000001
 43
0.0000000001
 40
0.0
 40
0.0
 40
0.0
 40
0.0
 40
0.0357142857142857
 40
0.0357142857142857
 40
0.0357142857142857
 40
0.0357142857142857
 40
0.0714285714285714
 40
0.0714285714285714
 40
0.0714285714285714
 40
0.0714285714285714
 40
0.1071428571428571
 40
0.1071428571428571
 40
0.1071428571428571
 40
0.1071428571428571
 40
0.1428571428571428
 40
0.1428571428571428
 40
0.1428571428571428
 40
0.1428571428571428
 40
0.1785714285714285
 40
0.1785714285714285
 40
0.1785714285714285
 40
0.1785714285714285
 40
0.2142857142857142
 40
0.2142857142857142
 40
0.2142857142857142
 40
0.2142857142857142
 40
0.2499999999999999
 40
0.2499999999999999
 40
0.2499999999999999
 40
0.2499999999999999
 40
0.2857142857142856
 40
0.2857142857142856
 40
0.2857142857142856
 40
0.2857142857142856
 40
0.3214285714285713
 40
0.3214285714285713
 40
0.3214285714285713
 40
0.3214285714285713
 40
0.357142857142857
 40
0.357142857142857
 40
0.357142857142857
 40
0.357142857142857
 40
0.3928571428571427
 40
0.3928571428571427
 40
0.3928571428571427
 40
0.3928571428571427
 40
0.4285714285714284
 40
0.4285714285714284
 40
0.4285714285714284
 40
0.4285714285714284
 40
0.4642857142857141
 40
0.4642857142857141
 40
0.4642857142857141
 40
0.4642857142857141
 40
0.4999999999999998
 40
0.4999999999999998
 40
0.4999999999999998
 40
0.4999999999999998
 40
0.5357142857142856
 40
0.5357142857142856
 40
0.5357142857142856
 40
0.5357142857142856
 40
0.5714285714285713
 40
0.5714285714285713
 40
0.5714285714285713
 40
0.5714285714285713
 40
0.607142857142857
 40
0.607142857142857
 40
0.607142857142857
 40
0.607142857142857
 40
0.6428571428571427
 40
0.6428571428571427
 40
0.6428571428571427
 40
0.6428571428571427
 40
0.6785714285714284
 40
0.6785714285714284
 40
0.6785714285714284
 40
0.6785714285714284
 40
0.7142857142857141
 40
0.7142857142857141
 40
0.7142857142857141
 40
0.7142857142857141
 40
0.7499999999999998
 40
0.7499999999999998
 40
0.7499999999999998
 40
0.7499999999999998
 40
0.7857142857142855
 40
0.7857142857142855
 40
0.7857142857142855
 40
0.7857142857142855
 40
0.8214285714285712
 40
0.8214285714285712
 40
0.8214285714285712
 40
0.8214285714285712
 40
0.8571428571428569
 40
0.8571428571428569
 40
0.8571428571428569
 40
0.8571428571428569
 40
0.8928571428571426
 40
0.8928571428571426
 40
0.8928571428571426
 40
0.8928571428571426
 40
0.9285714285714283
 40
0.9285714285714283
 40
0.9285714285714283
 40
0.9285714285714283
 40
0.964285714285714
 40
0.964285714285714
 40
0.964285714285714
 40
0.964285714285714
 40
1.0
 40
1.0
 40
1.0
 40
1.0
 10
-11.2375
 20
-14.15284
 30
0.0
 10
-11.2375
 20
-14.15284
 30
0.0
 10
-11.2375
 20
-14.17459
 30
0.0
 10
-11.2375
 20
-14.17459
 30
0.0
 10
-11.2375
 20
-14.17459
 30
0.0
 10
-11.24315
 20
-14.17207
 30
0.0
 10
-11.24867
 20
-14.17017
 30
0.0
 10
-11.25403
 20
-14.16888
 30
0.0
 10
-11.25403
 20
-14.16888
 30
0.0
 10
-11.25942
 20
-14.16758
 30
0.0
 10
-11.2645
 20
-14.16695
 30
0.0
 10
-11.26927
 20
-14.16695
 30
0.0
 10
-11.26927
 20
-14.16695
 30
0.0
 10
-11.2756
 20
-14.16695
 30
0.0
 10
-11.2803
 20
-14.16782
 30
0.0
 10
-11.28334
 20
-14.16956
 30
0.0
 10
-11.28334
 20
-14.16956
 30
0.0
 10
-11.28637
 20
-14.17132
 30
0.0
 10
-11.28788
 20
-14.17403
 30
0.0
 10
-11.28788
 20
-14.1777
 30
0.0
 10
-11.28788
 20
-14.1777
 30
0.0
 10
-11.28788
 20
-14.18045
 30
0.0
 10
-11.28687
 20
-14.18261
 30
0.0
 10
-11.28482
 20
-14.18414
 30
0.0
 10
-11.28482
 20
-14.18414
 30
0.0
 10
-11.28277
 20
-14.18567
 30
0.0
 10
-11.27906
 20
-14.18701
 30
0.0
 10
-11.27367
 20
-14.18811
 30
0.0
 10
-11.27367
 20
-14.18811
 30
0.0
 10
-11.27367
 20
-14.18811
 30
0.0
 10
-11.26238
 20
-14.19037
 30
0.0
 10
-11.26238
 20
-14.19037
 30
0.0
 10
-11.26238
 20
-14.19037
 30
0.0
 10
-11.25093
 20
-14.19268
 30
0.0
 10
-11.24282
 20
-14.19616
 30
0.0
 10
-11.238
 20
-14.20086
 30
0.0
 10
-11.238
 20
-14.20086
 30
0.0
 10
-11.23317
 20
-14.20554
 30
0.0
 10
-11.23075
 20
-14.2122
 30
0.0
 10
-11.23075
 20
-14.22083
 30
0.0
 10
-11.23075
 20
-14.22083
 30
0.0
 10
-11.23075
 20
-14.23219
 30
0.0
 10
-11.23411
 20
-14.24063
 30
0.0
 10
-11.24084
 20
-14.24616
 30
0.0
 10
-11.24084
 20
-14.24616
 30
0.0
 10
-11.24757
 20
-14.25168
 30
0.0
 10
-11.25784
 20
-14.25446
 30
0.0
 10
-11.27167
 20
-14.25446
 30
0.0
 10
-11.27167
 20
-14.25446
 30
0.0
 10
-11.27821
 20
-14.25446
 30
0.0
 10
-11.28475
 20
-14.25385
 30
0.0
 10
-11.29131
 20
-14.2526
 30
0.0
 10
-11.29131
 20
-14.2526
 30
0.0
 10
-11.29787
 20
-14.25135
 30
0.0
 10
-11.30446
 20
-14.24952
 30
0.0
 10
-11.31102
 20
-14.2471
 30
0.0
 10
-11.31102
 20
-14.2471
 30
0.0
 10
-11.31102
 20
-14.2471
 30
0.0
 10
-11.31102
 20
-14.22471
 30
0.0
 10
-11.31102
 20
-14.22471
 30
0.0
 10
-11.31102
 20
-14.22471
 30
0.0
 10
-11.30446
 20
-14.22819
 30
0.0
 10
-11.29811
 20
-14.23082
 30
0.0
 10
-11.29197
 20
-14.23259
 30
0.0
 10
-11.29197
 20
-14.23259
 30
0.0
 10
-11.28583
 20
-14.23435
 30
0.0
 10
-11.27993
 20
-14.23524
 30
0.0
 10
-11.27424
 20
-14.23524
 30
0.0
 10
-11.27424
 20
-14.23524
 30
0.0
 10
-11.26845
 20
-14.23524
 30
0.0
 10
-11.26401
 20
-14.23428
 30
0.0
 10
-11.26093
 20
-14.23235
 30
0.0
 10
-11.26093
 20
-14.23235
 30
0.0
 10
-11.25784
 20
-14.23042
 30
0.0
 10
-11.25632
 20
-14.22767
 30
0.0
 10
-11.25632
 20
-14.22407
 30
0.0
 10
-11.25632
 20
-14.22407
 30
0.0
 10
-11.25632
 20
-14.22087
 30
0.0
 10
-11.25735
 20
-14.21838
 30
0.0
 10
-11.25944
 20
-14.21664
 30
0.0
 10
-11.25944
 20
-14.21664
 30
0.0
 10
-11.26154
 20
-14.2149
 30
0.0
 10
-11.2657
 20
-14.21333
 30
0.0
 10
-11.27196
 20
-14.21196
 30
0.0
 10
-11.27196
 20
-14.21196
 30
0.0
 10
-11.27196
 20
-14.21196
 30
0.0
 10
-11.28223
 20
-14.20968
 30
0.0
 10
-11.28223
 20
-14.20968
 30
0.0
 10
-11.28223
 20
-14.20968
 30
0.0
 10
-11.29251
 20
-14.20747
 30
0.0
 10
-11.30004
 20
-14.20397
 30
0.0
 10
-11.30479
 20
-14.19914
 30
0.0
 10
-11.30479
 20
-14.19914
 30
0.0
 10
-11.30954
 20
-14.19432
 30
0.0
 10
-11.31191
 20
-14.18781
 30
0.0
 10
-11.31191
 20
-14.17965
 30
0.0
 10
-11.31191
 20
-14.17965
 30
0.0
 10
-11.31191
 20
-14.16939
 30
0.0
 10
-11.3086
 20
-14.16151
 30
0.0
 10
-11.30199
 20
-14.15601
 30
0.0
 10
-11.30199
 20
-14.15601
 30
0.0
 10
-11.29538
 20
-14.15048
 30
0.0
 10
-11.28588
 20
-14.14773
 30
0.0
 10
-11.27346
 20
-14.14773
 30
0.0
 10
-11.27346
 20
-14.14773
 30
0.0
 10
-11.26782
 20
-14.14773
 30
0.0
 10
-11.26201
 20
-14.14816
 30
0.0
 10
-11.25603
 20
-14.149
 30
0.0
 10
-11.25603
 20
-14.149
 30
0.0
 10
-11.25006
 20
-14.14985
 30
0.0
 10
-11.24388
 20
-14.15112
 30
0.0
 10
-11.2375
 20
-14.15284
 30
0.0
  0
SPLINE
  5
70
330
1F
100
AcDbEntity
  8
Layer 1
 62
   250
100
AcDbSpline
210
0.0
220
0.0
230
1.0
 70
    11
 71
     3
 72
    56
 73
    52
 74
     0
 42
0.0000000001
 43
0.0000000001
 40
0.0
 40
0.0
 40
0.0
 40
0.0
 40
0.0769230769230769
 40
0.0769230769230769
 40
0.0769230769230769
 40
0.0769230769230769
 40
0.1538461538461539
 40
0.1538461538461539
 40
0.1538461538461539
 40
0.1538461538461539
 40
0.2307692307692308
 40
0.2307692307692308
 40
0.2307692307692308
 40
0.2307692307692308
 40
0.3076923076923077
 40
0.3076923076923077
 40
0.3076923076923077
 40
0.3076923076923077
 40
0.3846153846153846
 40
0.3846153846153846
 40
0.3846153846153846
 40
0.3846153846153846
 40
0.4615384615384616
 40
0.4615384615384616
 40
0.4615384615384616
 40
0.4615384615384616
 40
0.5384615384615385
 40
0.5384615384615385
 40
0.5384615384615385
 40
0.5384615384615385
 40
0.6153846153846154
 40
0.6153846153846154
 40
0.6153846153846154
 40
0.6153846153846154
 40
0.6923076923076923
 40
0.6923076923076923
 40
0.6923076923076923
 40
0.6923076923076923
 40
0.7692307692307692
 40
0.7692307692307692
 40
0.7692307692307692
 40
0.7692307692307692
 40
0.846153846153846
 40
0.846153846153846
 40
0.846153846153846
 40
0.846153846153846
 40
0.9230769230769229
 40
0.9230769230769229
 40
0.9230769230769229
 40
0.9230769230769229
 40
1.0
 40
1.0
 40
1.0
 40
1.0
 10
-11.20747
 20
-14.14959
 30
0.0
 10
-11.20747
 20
-14.14959
 30
0.0
 10
-11.17372
 20
-14.14959
 30
0.0
 10
-11.17372
 20
-14.14959
 30
0.0
 10
-11.17372
 20
-14.14959
 30
0.0
 10
-11.17372
 20
-14.14959
 30
0.0
 10
-11.15027
 20
-14.20465
 30
0.0
 10
-11.15027
 20
-14.20465
 30
0.0
 10
-11.15027
 20
-14.20465
 30
0.0
 10
-11.15027
 20
-14.20465
 30
0.0
 10
-11.12671
 20
-14.14959
 30
0.0
 10
-11.12671
 20
-14.14959
 30
0.0
 10
-11.12671
 20
-14.14959
 30
0.0
 10
-11.12671
 20
-14.14959
 30
0.0
 10
-11.09303
 20
-14.14959
 30
0.0
 10
-11.09303
 20
-14.14959
 30
0.0
 10
-11.09303
 20
-14.14959
 30
0.0
 10
-11.09303
 20
-14.14959
 30
0.0
 10
-11.09303
 20
-14.25246
 30
0.0
 10
-11.09303
 20
-14.25246
 30
0.0
 10
-11.09303
 20
-14.25246
 30
0.0
 10
-11.09303
 20
-14.25246
 30
0.0
 10
-11.1181
 20
-14.25246
 30
0.0
 10
-11.1181
 20
-14.25246
 30
0.0
 10
-11.1181
 20
-14.25246
 30
0.0
 10
-11.1181
 20
-14.25246
 30
0.0
 10
-11.1181
 20
-14.17722
 30
0.0
 10
-11.1181
 20
-14.17722
 30
0.0
 10
-11.1181
 20
-14.17722
 30
0.0
 10
-11.1181
 20
-14.17722
 30
0.0
 10
-11.14181
 20
-14.23268
 30
0.0
 10
-11.14181
 20
-14.23268
 30
0.0
 10
-11.14181
 20
-14.23268
 30
0.0
 10
-11.14181
 20
-14.23268
 30
0.0
 10
-11.15862
 20
-14.23268
 30
0.0
 10
-11.15862
 20
-14.23268
 30
0.0
 10
-11.15862
 20
-14.23268
 30
0.0
 10
-11.15862
 20
-14.23268
 30
0.0
 10
-11.18233
 20
-14.17722
 30
0.0
 10
-11.18233
 20
-14.17722
 30
0.0
 10
-11.18233
 20
-14.17722
 30
0.0
 10
-11.18233
 20
-14.17722
 30
0.0
 10
-11.18233
 20
-14.25246
 30
0.0
 10
-11.18233
 20
-14.25246
 30
0.0
 10
-11.18233
 20
-14.25246
 30
0.0
 10
-11.18233
 20
-14.25246
 30
0.0
 10
-11.20747
 20
-14.25246
 30
0.0
 10
-11.20747
 20
-14.25246
 30
0.0
 10
-11.20747
 20
-14.25246
 30
0.0
 10
-11.20747
 20
-14.25246
 30
0.0
 10
-11.20747
 20
-14.14959
 30
0.0
 10
-11.20747
 20
-14.14959
 30
0.0
  0
SPLINE
  5
71
330
1F
100
AcDbEntity
  8
Layer 1
 62
   250
100
AcDbSpline
210
0.0
220
0.0
230
1.0
 70
    11
 71
     3
 72
    32
 73
    28
 74
     0
 42
0.0000000001
 43
0.0000000001
 40
0.0
 40
0.0
 40
0.0
 40
0.0
 40
0.1428571428571428
 40
0.1428571428571428
 40
0.1428571428571428
 40
0.1428571428571428
 40
0.2857142857142857
 40
0.2857142857142857
 40
0.2857142857142857
 40
0.2857142857142857
 40
0.4285714285714285
 40
0.4285714285714285
 40
0.4285714285714285
 40
0.4285714285714285
 40
0.5714285714285714
 40
0.5714285714285714
 40
0.5714285714285714
 40
0.5714285714285714
 40
0.7142857142857142
 40
0.7142857142857142
 40
0.7142857142857142
 40
0.7142857142857142
 40
0.857142857142857
 40
0.857142857142857
 40
0.857142857142857
 40
0.857142857142857
 40
1.0
 40
1.0
 40
1.0
 40
1.0
 10
-11.04051
 20
-14.16965
 30
0.0
 10
-11.04051
 20
-14.16965
 30
0.0
 10
-11.04051
 20
-14.2324
 30
0.0
 10
-11.04051
 20
-14.2324
 30
0.0
 10
-11.04051
 20
-14.2324
 30
0.0
 10
-11.04051
 20
-14.2324
 30
0.0
 10
-11.03101
 20
-14.2324
 30
0.0
 10
-11.03101
 20
-14.2324
 30
0.0
 10
-11.03101
 20
-14.2324
 30
0.0
 10
-11.02017
 20
-14.2324
 30
0.0
 10
-11.01189
 20
-14.22972
 30
0.0
 10
-11.00618
 20
-14.22433
 30
0.0
 10
-11.00618
 20
-14.22433
 30
0.0
 10
-11.00046
 20
-14.21897
 30
0.0
 10
-10.99759
 20
-14.21116
 30
0.0
 10
-10.99759
 20
-14.20093
 30
0.0
 10
-10.99759
 20
-14.20093
 30
0.0
 10
-10.99759
 20
-14.19072
 30
0.0
 10
-11.00044
 20
-14.18296
 30
0.0
 10
-11.00613
 20
-14.17765
 30
0.0
 10
-11.00613
 20
-14.17765
 30
0.0
 10
-11.01182
 20
-14.17231
 30
0.0
 10
-11.02012
 20
-14.16965
 30
0.0
 10
-11.03101
 20
-14.16965
 30
0.0
 10
-11.03101
 20
-14.16965
 30
0.0
 10
-11.03101
 20
-14.16965
 30
0.0
 10
-11.04051
 20
-14.16965
 30
0.0
 10
-11.04051
 20
-14.16965
 30
0.0
  0
SPLINE
  5
72
330
1F
100
AcDbEntity
  8
Layer 1
 62
   250
100
AcDbSpline
210
0.0
220
0.0
230
1.0
 70
    11
 71
     3
 72
    48
 73
    44
 74
     0
 42
0.0000000001
 43
0.0000000001
 40
0.0
 40
0.0
 40
0.0
 40
0.0
 40
0.0909090909090909
 40
0.0909090909090909
 40
0.0909090909090909
 40
0.0909090909090909
 40
0.1818181818181818
 40
0.1818181818181818
 40
0.1818181818181818
 40
0.1818181818181818
 40
0.2727272727272727
 40
0.2727272727272727
 40
0.2727272727272727
 40
0.2727272727272727
 40
0.3636363636363636
 40
0.3636363636363636
 40
0.3636363636363636
 40
0.3636363636363636
 40
0.4545454545454546
 40
0.4545454545454546
 40
0.4545454545454546
 40
0.4545454545454546
 40
0.5454545454545455
 40
0.5454545454545455
 40
0.5454545454545455
 40
0.5454545454545455
 40
0.6363636363636365
 40
0.6363636363636365
 40
0.6363636363636365
 40
0.6363636363636365
 40
0.7272727272727274
 40
0.7272727272727274
 40
0.7272727272727274
 40
0.7272727272727274
 40
0.8181818181818183
 40
0.8181818181818183
 40
0.8181818181818183
 40
0.8181818181818183
 40
0.9090909090909093
 40
0.9090909090909093
 40
0.9090909090909093
 40
0.9090909090909093
 40
1.0
 40
1.0
 40
1.0
 40
1.0
 10
-11.06704
 20
-14.14959
 30
0.0
 10
-11.06704
 20
-14.14959
 30
0.0
 10
-11.03905
 20
-14.14959
 30
0.0
 10
-11.03905
 20
-14.14959
 30
0.0
 10
-11.03905
 20
-14.14959
 30
0.0
 10
-11.02344
 20
-14.14959
 30
0.0
 10
-11.01182
 20
-14.1507
 30
0.0
 10
-11.00418
 20
-14.15293
 30
0.0
 10
-11.00418
 20
-14.15293
 30
0.0
 10
-10.99653
 20
-14.15516
 30
0.0
 10
-10.98997
 20
-14.15893
 30
0.0
 10
-10.98449
 20
-14.16427
 30
0.0
 10
-10.98449
 20
-14.16427
 30
0.0
 10
-10.97967
 20
-14.1689
 30
0.0
 10
-10.9761
 20
-14.17426
 30
0.0
 10
-10.97374
 20
-14.18033
 30
0.0
 10
-10.97374
 20
-14.18033
 30
0.0
 10
-10.97142
 20
-14.18637
 30
0.0
 10
-10.97024
 20
-14.19324
 30
0.0
 10
-10.97024
 20
-14.20093
 30
0.0
 10
-10.97024
 20
-14.20093
 30
0.0
 10
-10.97024
 20
-14.20869
 30
0.0
 10
-10.97142
 20
-14.21561
 30
0.0
 10
-10.97374
 20
-14.2217
 30
0.0
 10
-10.97374
 20
-14.2217
 30
0.0
 10
-10.9761
 20
-14.22779
 30
0.0
 10
-10.97967
 20
-14.23315
 30
0.0
 10
-10.98449
 20
-14.23778
 30
0.0
 10
-10.98449
 20
-14.23778
 30
0.0
 10
-10.99002
 20
-14.24312
 30
0.0
 10
-10.99663
 20
-14.24689
 30
0.0
 10
-11.00434
 20
-14.24912
 30
0.0
 10
-11.00434
 20
-14.24912
 30
0.0
 10
-11.01206
 20
-14.25135
 30
0.0
 10
-11.02363
 20
-14.25246
 30
0.0
 10
-11.03905
 20
-14.25246
 30
0.0
 10
-11.03905
 20
-14.25246
 30
0.0
 10
-11.03905
 20
-14.25246
 30
0.0
 10
-11.06704
 20
-14.25246
 30
0.0
 10
-11.06704
 20
-14.25246
 30
0.0
 10
-11.06704
 20
-14.25246
 30
0.0
 10
-11.06704
 20
-14.25246
 30
0.0
 10
-11.06704
 20
-14.14959
 30
0.0
 10
-11.06704
 20
-14.14959
 30
0.0
  0
SPLINE
  5
73
330
1F
100
AcDbEntity
  8
Layer 1
 62
   250
100
AcDbSpline
210
0.0
220
0.0
230
1.0
 70
    11
 71
     3
 72
    44
 73
    40
 74
     0
 42
0.0000000001
 43
0.0000000001
 40
0.0
 40
0.0
 40
0.0
 40
0.0
 40
0.1
 40
0.1
 40
0.1
 40
0.1
 40
0.2
 40
0.2
 40
0.2
 40
0.2
 40
0.3
 40
0.3
 40
0.3
 40
0.3
 40
0.4
 40
0.4
 40
0.4
 40
0.4
 40
0.5
 40
0.5
 40
0.5
 40
0.5
 40
0.6
 40
0.6
 40
0.6
 40
0.6
 40
0.7
 40
0.7
 40
0.7
 40
0.7
 40
0.7999999999999999
 40
0.7999999999999999
 40
0.7999999999999999
 40
0.7999999999999999
 40
0.8999999999999999
 40
0.8999999999999999
 40
0.8999999999999999
 40
0.8999999999999999
 40
1.0
 40
1.0
 40
1.0
 40
1.0
 10
-10.86055
 20
-14.27106
 30
0.0
 10
-10.86055
 20
-14.27106
 30
0.0
 10
-10.88101
 20
-14.27106
 30
0.0
 10
-10.88101
 20
-14.27106
 30
0.0
 10
-10.88101
 20
-14.27106
 30
0.0
 10
-10.88804
 20
-14.25973
 30
0.0
 10
-10.89324
 20
-14.24893
 30
0.0
 10
-10.89658
 20
-14.2387
 30
0.0
 10
-10.89658
 20
-14.2387
 30
0.0
 10
-10.89994
 20
-14.22849
 30
0.0
 10
-10.90161
 20
-14.21836
 30
0.0
 10
-10.90161
 20
-14.20829
 30
0.0
 10
-10.90161
 20
-14.20829
 30
0.0
 10
-10.90161
 20
-14.19823
 30
0.0
 10
-10.89992
 20
-14.18804
 30
0.0
 10
-10.89656
 20
-14.17774
 30
0.0
 10
-10.89656
 20
-14.17774
 30
0.0
 10
-10.89317
 20
-14.16742
 30
0.0
 10
-10.888
 20
-14.15665
 30
0.0
 10
-10.88101
 20
-14.14538
 30
0.0
 10
-10.88101
 20
-14.14538
 30
0.0
 10
-10.88101
 20
-14.14538
 30
0.0
 10
-10.86055
 20
-14.14538
 30
0.0
 10
-10.86055
 20
-14.14538
 30
0.0
 10
-10.86055
 20
-14.14538
 30
0.0
 10
-10.86643
 20
-14.15627
 30
0.0
 10
-10.87083
 20
-14.16692
 30
0.0
 10
-10.87377
 20
-14.17732
 30
0.0
 10
-10.87377
 20
-14.17732
 30
0.0
 10
-10.87671
 20
-14.18771
 30
0.0
 10
-10.87819
 20
-14.19799
 30
0.0
 10
-10.87819
 20
-14.20815
 30
0.0
 10
-10.87819
 20
-14.20815
 30
0.0
 10
-10.87819
 20
-14.21831
 30
0.0
 10
-10.87673
 20
-14.22859
 30
0.0
 10
-10.87382
 20
-14.23903
 30
0.0
 10
-10.87382
 20
-14.23903
 30
0.0
 10
-10.8709
 20
-14.24945
 30
0.0
 10
-10.86648
 20
-14.26013
 30
0.0
 10
-10.86055
 20
-14.27106
 30
0.0
  0
SPLINE
  5
74
330
1F
100
AcDbEntity
  8
Layer 1
 62
   250
100
AcDbSpline
210
0.0
220
0.0
230
1.0
 70
    11
 71
     3
 72
    48
 73
    44
 74
     0
 42
0.0000000001
 43
0.0000000001
 40
0.0
 40
0.0
 40
0.0
 40
0.0
 40
0.0909090909090909
 40
0.0909090909090909
 40
0.0909090909090909
 40
0.0909090909090909
 40
0.1818181818181818
 40
0.1818181818181818
 40
0.1818181818181818
 40
0.1818181818181818
 40
0.2727272727272727
 40
0.2727272727272727
 40
0.2727272727272727
 40
0.2727272727272727
 40
0.3636363636363636
 40
0.3636363636363636
 40
0.3636363636363636
 40
0.3636363636363636
 40
0.4545454545454546
 40
0.4545454545454546
 40
0.4545454545454546
 40
0.4545454545454546
 40
0.5454545454545455
 40
0.5454545454545455
 40
0.5454545454545455
 40
0.5454545454545455
 40
0.6363636363636365
 40
0.6363636363636365
 40
0.6363636363636365
 40
0.6363636363636365
 40
0.7272727272727274
 40
0.7272727272727274
 40
0.7272727272727274
 40
0.7272727272727274
 40
0.8181818181818183
 40
0.8181818181818183
 40
0.8181818181818183
 40
0.8181818181818183
 40
0.9090909090909093
 40
0.9090909090909093
 40
0.9090909090909093
 40
0.9090909090909093
 40
1.0
 40
1.0
 40
1.0
 40
1.0
 10
-10.83273
 20
-14.23414
 30
0.0
 10
-10.83273
 20
-14.23414
 30
0.0
 10
-10.8093
 20
-14.23414
 30
0.0
 10
-10.8093
 20
-14.23414
 30
0.0
 10
-10.8093
 20
-14.23414
 30
0.0
 10
-10.8093
 20
-14.23414
 30
0.0
 10
-10.8093
 20
-14.16765
 30
0.0
 10
-10.8093
 20
-14.16765
 30
0.0
 10
-10.8093
 20
-14.16765
 30
0.0
 10
-10.8093
 20
-14.16765
 30
0.0
 10
-10.83334
 20
-14.17262
 30
0.0
 10
-10.83334
 20
-14.17262
 30
0.0
 10
-10.83334
 20
-14.17262
 30
0.0
 10
-10.83334
 20
-14.17262
 30
0.0
 10
-10.83334
 20
-14.15455
 30
0.0
 10
-10.83334
 20
-14.15455
 30
0.0
 10
-10.83334
 20
-14.15455
 30
0.0
 10
-10.83334
 20
-14.15455
 30
0.0
 10
-10.80944
 20
-14.14959
 30
0.0
 10
-10.80944
 20
-14.14959
 30
0.0
 10
-10.80944
 20
-14.14959
 30
0.0
 10
-10.80944
 20
-14.14959
 30
0.0
 10
-10.78423
 20
-14.14959
 30
0.0
 10
-10.78423
 20
-14.14959
 30
0.0
 10
-10.78423
 20
-14.14959
 30
0.0
 10
-10.78423
 20
-14.14959
 30
0.0
 10
-10.78423
 20
-14.23414
 30
0.0
 10
-10.78423
 20
-14.23414
 30
0.0
 10
-10.78423
 20
-14.23414
 30
0.0
 10
-10.78423
 20
-14.23414
 30
0.0
 10
-10.76081
 20
-14.23414
 30
0.0
 10
-10.76081
 20
-14.23414
 30
0.0
 10
-10.76081
 20
-14.23414
 30
0.0
 10
-10.76081
 20
-14.23414
 30
0.0
 10
-10.76081
 20
-14.25246
 30
0.0
 10
-10.76081
 20
-14.25246
 30
0.0
 10
-10.76081
 20
-14.25246
 30
0.0
 10
-10.76081
 20
-14.25246
 30
0.0
 10
-10.83273
 20
-14.25246
 30
0.0
 10
-10.83273
 20
-14.25246
 30
0.0
 10
-10.83273
 20
-14.25246
 30
0.0
 10
-10.83273
 20
-14.25246
 30
0.0
 10
-10.83273
 20
-14.23414
 30
0.0
 10
-10.83273
 20
-14.23414
 30
0.0
  0
SPLINE
  5
75
330
1F
100
AcDbEntity
  8
Layer 1
 62
   250
100
AcDbSpline
210
0.0
220
0.0
230
1.0
 70
    11
 71
     3
 72
    80
 73
    76
 74
     0
 42
0.0000000001
 43
0.0000000001
 40
0.0
 40
0.0
 40
0.0
 40
0.0
 40
0.0526315789473684
 40
0.0526315789473684
 40
0.0526315789473684
 40
0.0526315789473684
 40
0.1052631578947368
 40
0.1052631578947368
 40
0.1052631578947368
 40
0.1052631578947368
 40
0.1578947368421053
 40
0.1578947368421053
 40
0.1578947368421053
 40
0.1578947368421053
 40
0.2105263157894737
 40
0.2105263157894737
 40
0.2105263157894737
 40
0.2105263157894737
 40
0.2631578947368421
 40
0.2631578947368421
 40
0.2631578947368421
 40
0.2631578947368421
 40
0.3157894736842105
 40
0.3157894736842105
 40
0.3157894736842105
 40
0.3157894736842105
 40
0.3684210526315789
 40
0.3684210526315789
 40
0.3684210526315789
 40
0.3684210526315789
 40
0.4210526315789473
 40
0.4210526315789473
 40
0.4210526315789473
 40
0.4210526315789473
 40
0.4736842105263158
 40
0.4736842105263158
 40
0.4736842105263158
 40
0.4736842105263158
 40
0.5263157894736842
 40
0.5263157894736842
 40
0.5263157894736842
 40
0.5263157894736842
 40
0.5789473684210527
 40
0.5789473684210527
 40
0.5789473684210527
 40
0.5789473684210527
 40
0.631578947368421
 40
0.631578947368421
 40
0.631578947368421
 40
0.631578947368421
 40
0.6842105263157894
 40
0.6842105263157894
 40
0.6842105263157894
 40
0.6842105263157894
 40
0.7368421052631577
 40
0.7368421052631577
 40
0.7368421052631577
 40
0.7368421052631577
 40
0.7894736842105261
 40
0.7894736842105261
 40
0.7894736842105261
 40
0.7894736842105261
 40
0.8421052631578945
 40
0.8421052631578945
 40
0.8421052631578945
 40
0.8421052631578945
 40
0.8947368421052628
 40
0.8947368421052628
 40
0.8947368421052628
 40
0.8947368421052628
 40
0.9473684210526312
 40
0.9473684210526312
 40
0.9473684210526312
 40
0.9473684210526312
 40
1.0
 40
1.0
 40
1.0
 40
1.0
 10
-10.71041
 20
-14.23296
 30
0.0
 10
-10.71041
 20
-14.23296
 30
0.0
 10
-10.66513
 20
-14.23296
 30
0.0
 10
-10.66513
 20
-14.23296
 30
0.0
 10
-10.66513
 20
-14.23296
 30
0.0
 10
-10.66513
 20
-14.23296
 30
0.0
 10
-10.66513
 20
-14.25246
 30
0.0
 10
-10.66513
 20
-14.25246
 30
0.0
 10
-10.66513
 20
-14.25246
 30
0.0
 10
-10.66513
 20
-14.25246
 30
0.0
 10
-10.7399
 20
-14.25246
 30
0.0
 10
-10.7399
 20
-14.25246
 30
0.0
 10
-10.7399
 20
-14.25246
 30
0.0
 10
-10.7399
 20
-14.25246
 30
0.0
 10
-10.7399
 20
-14.23296
 30
0.0
 10
-10.7399
 20
-14.23296
 30
0.0
 10
-10.7399
 20
-14.23296
 30
0.0
 10
-10.7399
 20
-14.23296
 30
0.0
 10
-10.70234
 20
-14.19983
 30
0.0
 10
-10.70234
 20
-14.19983
 30
0.0
 10
-10.70234
 20
-14.19983
 30
0.0
 10
-10.69898
 20
-14.19679
 30
0.0
 10
-10.69651
 20
-14.19383
 30
0.0
 10
-10.69491
 20
-14.19094
 30
0.0
 10
-10.69491
 20
-14.19094
 30
0.0
 10
-10.69329
 20
-14.18804
 30
0.0
 10
-10.69249
 20
-14.18503
 30
0.0
 10
-10.69249
 20
-14.1819
 30
0.0
 10
-10.69249
 20
-14.1819
 30
0.0
 10
-10.69249
 20
-14.17708
 30
0.0
 10
-10.69411
 20
-14.1732
 30
0.0
 10
-10.69735
 20
-14.17026
 30
0.0
 10
-10.69735
 20
-14.17026
 30
0.0
 10
-10.70058
 20
-14.16732
 30
0.0
 10
-10.70488
 20
-14.16587
 30
0.0
 10
-10.71027
 20
-14.16587
 30
0.0
 10
-10.71027
 20
-14.16587
 30
0.0
 10
-10.7144
 20
-14.16587
 30
0.0
 10
-10.71892
 20
-14.16676
 30
0.0
 10
-10.72384
 20
-14.16852
 30
0.0
 10
-10.72384
 20
-14.16852
 30
0.0
 10
-10.72875
 20
-14.17029
 30
0.0
 10
-10.73402
 20
-14.17292
 30
0.0
 10
-10.73962
 20
-14.1764
 30
0.0
 10
-10.73962
 20
-14.1764
 30
0.0
 10
-10.73962
 20
-14.1764
 30
0.0
 10
-10.73962
 20
-14.1538
 30
0.0
 10
-10.73962
 20
-14.1538
 30
0.0
 10
-10.73962
 20
-14.1538
 30
0.0
 10
-10.73364
 20
-14.15183
 30
0.0
 10
-10.72774
 20
-14.15032
 30
0.0
 10
-10.72191
 20
-14.14929
 30
0.0
 10
-10.72191
 20
-14.14929
 30
0.0
 10
-10.71607
 20
-14.14825
 30
0.0
 10
-10.71036
 20
-14.14773
 30
0.0
 10
-10.70474
 20
-14.14773
 30
0.0
 10
-10.70474
 20
-14.14773
 30
0.0
 10
-10.69244
 20
-14.14773
 30
0.0
 10
-10.68287
 20
-14.15044
 30
0.0
 10
-10.67605
 20
-14.15587
 30
0.0
 10
-10.67605
 20
-14.15587
 30
0.0
 10
-10.66923
 20
-14.16128
 30
0.0
 10
-10.66582
 20
-14.16883
 30
0.0
 10
-10.66582
 20
-14.17854
 30
0.0
 10
-10.66582
 20
-14.17854
 30
0.0
 10
-10.66582
 20
-14.18414
 30
0.0
 10
-10.66727
 20
-14.18936
 30
0.0
 10
-10.67017
 20
-14.19421
 30
0.0
 10
-10.67017
 20
-14.19421
 30
0.0
 10
-10.67306
 20
-14.19905
 30
0.0
 10
-10.67915
 20
-14.20554
 30
0.0
 10
-10.68842
 20
-14.21368
 30
0.0
 10
-10.68842
 20
-14.21368
 30
0.0
 10
-10.68842
 20
-14.21368
 30
0.0
 10
-10.71041
 20
-14.23296
 30
0.0
 10
-10.71041
 20
-14.23296
 30
0.0
  0
SPLINE
  5
76
330
1F
100
AcDbEntity
  8
Layer 1
 62
   250
100
AcDbSpline
210
0.0
220
0.0
230
1.0
 70
    11
 71
     3
 72
    36
 73
    32
 74
     0
 42
0.0000000001
 43
0.0000000001
 40
0.0
 40
0.0
 40
0.0
 40
0.0
 40
0.125
 40
0.125
 40
0.125
 40
0.125
 40
0.25
 40
0.25
 40
0.25
 40
0.25
 40
0.375
 40
0.375
 40
0.375
 40
0.375
 40
0.5
 40
0.5
 40
0.5
 40
0.5
 40
0.625
 40
0.625
 40
0.625
 40
0.625
 40
0.75
 40
0.75
 40
0.75
 40
0.75
 40
0.875
 40
0.875
 40
0.875
 40
0.875
 40
1.0
 40
1.0
 40
1.0
 40
1.0
 10
-10.58797
 20
-14.20093
 30
0.0
 10
-10.58797
 20
-14.18807
 30
0.0
 10
-10.58917
 20
-14.17901
 30
0.0
 10
-10.59159
 20
-14.17374
 30
0.0
 10
-10.59159
 20
-14.17374
 30
0.0
 10
-10.59399
 20
-14.1685
 30
0.0
 10
-10.59806
 20
-14.16587
 30
0.0
 10
-10.60375
 20
-14.16587
 30
0.0
 10
-10.60375
 20
-14.16587
 30
0.0
 10
-10.60944
 20
-14.16587
 30
0.0
 10
-10.61351
 20
-14.1685
 30
0.0
 10
-10.61596
 20
-14.17374
 30
0.0
 10
-10.61596
 20
-14.17374
 30
0.0
 10
-10.61838
 20
-14.17901
 30
0.0
 10
-10.6196
 20
-14.18807
 30
0.0
 10
-10.6196
 20
-14.20093
 30
0.0
 10
-10.6196
 20
-14.20093
 30
0.0
 10
-10.6196
 20
-14.21391
 30
0.0
 10
-10.61838
 20
-14.22309
 30
0.0
 10
-10.61596
 20
-14.2284
 30
0.0
 10
-10.61596
 20
-14.2284
 30
0.0
 10
-10.61351
 20
-14.23374
 30
0.0
 10
-10.60944
 20
-14.2364
 30
0.0
 10
-10.60375
 20
-14.2364
 30
0.0
 10
-10.60375
 20
-14.2364
 30
0.0
 10
-10.59811
 20
-14.2364
 30
0.0
 10
-10.59406
 20
-14.23374
 30
0.0
 10
-10.59161
 20
-14.2284
 30
0.0
 10
-10.59161
 20
-14.2284
 30
0.0
 10
-10.58919
 20
-14.22309
 30
0.0
 10
-10.58797
 20
-14.21391
 30
0.0
 10
-10.58797
 20
-14.20093
 30
0.0
  0
SPLINE
  5
77
330
1F
100
AcDbEntity
  8
Layer 1
 62
   250
100
AcDbSpline
210
0.0
220
0.0
230
1.0
 70
    11
 71
     3
 72
    36
 73
    32
 74
     0
 42
0.0000000001
 43
0.0000000001
 40
0.0
 40
0.0
 40
0.0
 40
0.0
 40
0.125
 40
0.125
 40
0.125
 40
0.125
 40
0.25
 40
0.25
 40
0.25
 40
0.25
 40
0.375
 40
0.375
 40
0.375
 40
0.375
 40
0.5
 40
0.5
 40
0.5
 40
0.5
 40
0.625
 40
0.625
 40
0.625
 40
0.625
 40
0.75
 40
0.75
 40
0.75
 40
0.75
 40
0.875
 40
0.875
 40
0.875
 40
0.875
 40
1.0
 40
1.0
 40
1.0
 40
1.0
 10
-10.56144
 20
-14.20112
 30
0.0
 10
-10.56144
 20
-14.21817
 30
0.0
 10
-10.56511
 20
-14.23132
 30
0.0
 10
-10.57247
 20
-14.24058
 30
0.0
 10
-10.57247
 20
-14.24058
 30
0.0
 10
-10.57981
 20
-14.24983
 30
0.0
 10
-10.59025
 20
-14.25446
 30
0.0
 10
-10.60375
 20
-14.25446
 30
0.0
 10
-10.60375
 20
-14.25446
 30
0.0
 10
-10.6173
 20
-14.25446
 30
0.0
 10
-10.62776
 20
-14.24983
 30
0.0
 10
-10.6351
 20
-14.24058
 30
0.0
 10
-10.6351
 20
-14.24058
 30
0.0
 10
-10.64246
 20
-14.23132
 30
0.0
 10
-10.64613
 20
-14.21817
 30
0.0
 10
-10.64613
 20
-14.20112
 30
0.0
 10
-10.64613
 20
-14.20112
 30
0.0
 10
-10.64613
 20
-14.18405
 30
0.0
 10
-10.64246
 20
-14.17087
 30
0.0
 10
-10.6351
 20
-14.16161
 30
0.0
 10
-10.6351
 20
-14.16161
 30
0.0
 10
-10.62776
 20
-14.15237
 30
0.0
 10
-10.6173
 20
-14.14773
 30
0.0
 10
-10.60375
 20
-14.14773
 30
0.0
 10
-10.60375
 20
-14.14773
 30
0.0
 10
-10.59025
 20
-14.14773
 30
0.0
 10
-10.57981
 20
-14.15237
 30
0.0
 10
-10.57247
 20
-14.16161
 30
0.0
 10
-10.57247
 20
-14.16161
 30
0.0
 10
-10.56511
 20
-14.17087
 30
0.0
 10
-10.56144
 20
-14.18405
 30
0.0
 10
-10.56144
 20
-14.20112
 30
0.0
  0
SPLINE
  5
78
330
1F
100
AcDbEntity
  8
Layer 1
 62
   250
100
AcDbSpline
210
0.0
220
0.0
230
1.0
 70
    11
 71
     3
 72
    36
 73
    32
 74
     0
 42
0.0000000001
 43
0.0000000001
 40
0.0
 40
0.0
 40
0.0
 40
0.0
 40
0.125
 40
0.125
 40
0.125
 40
0.125
 40
0.25
 40
0.25
 40
0.25
 40
0.25
 40
0.375
 40
0.375
 40
0.375
 40
0.375
 40
0.5
 40
0.5
 40
0.5
 40
0.5
 40
0.625
 40
0.625
 40
0.625
 40
0.625
 40
0.75
 40
0.75
 40
0.75
 40
0.75
 40
0.875
 40
0.875
 40
0.875
 40
0.875
 40
1.0
 40
1.0
 40
1.0
 40
1.0
 10
-10.50363
 20
-14.20168
 30
0.0
 10
-10.50829
 20
-14.20168
 30
0.0
 10
-10.51177
 20
-14.20319
 30
0.0
 10
-10.51407
 20
-14.2062
 30
0.0
 10
-10.51407
 20
-14.2062
 30
0.0
 10
-10.5164
 20
-14.20921
 30
0.0
 10
-10.51755
 20
-14.21373
 30
0.0
 10
-10.51755
 20
-14.21972
 30
0.0
 10
-10.51755
 20
-14.21972
 30
0.0
 10
-10.51755
 20
-14.22574
 30
0.0
 10
-10.5164
 20
-14.23026
 30
0.0
 10
-10.51407
 20
-14.23327
 30
0.0
 10
-10.51407
 20
-14.23327
 30
0.0
 10
-10.51177
 20
-14.23628
 30
0.0
 10
-10.50829
 20
-14.23778
 30
0.0
 10
-10.50363
 20
-14.23778
 30
0.0
 10
-10.50363
 20
-14.23778
 30
0.0
 10
-10.49895
 20
-14.23778
 30
0.0
 10
-10.49545
 20
-14.23628
 30
0.0
 10
-10.49314
 20
-14.23327
 30
0.0
 10
-10.49314
 20
-14.23327
 30
0.0
 10
-10.49081
 20
-14.23026
 30
0.0
 10
-10.48966
 20
-14.22574
 30
0.0
 10
-10.48966
 20
-14.21972
 30
0.0
 10
-10.48966
 20
-14.21972
 30
0.0
 10
-10.48966
 20
-14.21373
 30
0.0
 10
-10.49081
 20
-14.20921
 30
0.0
 10
-10.49314
 20
-14.2062
 30
0.0
 10
-10.49314
 20
-14.2062
 30
0.0
 10
-10.49545
 20
-14.20319
 30
0.0
 10
-10.49895
 20
-14.20168
 30
0.0
 10
-10.50363
 20
-14.20168
 30
0.0
  0
SPLINE
  5
79
330
1F
100
AcDbEntity
  8
Layer 1
 62
   250
100
AcDbSpline
210
0.0
220
0.0
230
1.0
 70
    11
 71
     3
 72
    72
 73
    68
 74
     0
 42
0.0000000001
 43
0.0000000001
 40
0.0
 40
0.0
 40
0.0
 40
0.0
 40
0.0588235294117647
 40
0.0588235294117647
 40
0.0588235294117647
 40
0.0588235294117647
 40
0.1176470588235294
 40
0.1176470588235294
 40
0.1176470588235294
 40
0.1176470588235294
 40
0.1764705882352941
 40
0.1764705882352941
 40
0.1764705882352941
 40
0.1764705882352941
 40
0.2352941176470588
 40
0.2352941176470588
 40
0.2352941176470588
 40
0.2352941176470588
 40
0.2941176470588235
 40
0.2941176470588235
 40
0.2941176470588235
 40
0.2941176470588235
 40
0.3529411764705883
 40
0.3529411764705883
 40
0.3529411764705883
 40
0.3529411764705883
 40
0.411764705882353
 40
0.411764705882353
 40
0.411764705882353
 40
0.411764705882353
 40
0.4705882352941177
 40
0.4705882352941177
 40
0.4705882352941177
 40
0.4705882352941177
 40
0.5294117647058824
 40
0.5294117647058824
 40
0.5294117647058824
 40
0.5294117647058824
 40
0.5882352941176471
 40
0.5882352941176471
 40
0.5882352941176471
 40
0.5882352941176471
 40
0.6470588235294118
 40
0.6470588235294118
 40
0.6470588235294118
 40
0.6470588235294118
 40
0.7058823529411765
 40
0.7058823529411765
 40
0.7058823529411765
 40
0.7058823529411765
 40
0.7647058823529412
 40
0.7647058823529412
 40
0.7647058823529412
 40
0.7647058823529412
 40
0.823529411764706
 40
0.823529411764706
 40
0.823529411764706
 40
0.823529411764706
 40
0.8823529411764707
 40
0.8823529411764707
 40
0.8823529411764707
 40
0.8823529411764707
 40
0.9411764705882354
 40
0.9411764705882354
 40
0.9411764705882354
 40
0.9411764705882354
 40
1.0
 40
1.0
 40
1.0
 40
1.0
 10
-10.47085
 20
-14.15227
 30
0.0
 10
-10.47085
 20
-14.15227
 30
0.0
 10
-10.47085
 20
-14.1713
 30
0.0
 10
-10.47085
 20
-14.1713
 30
0.0
 10
-10.47085
 20
-14.1713
 30
0.0
 10
-10.47522
 20
-14.16923
 30
0.0
 10
-10.47931
 20
-14.1677
 30
0.0
 10
-10.48317
 20
-14.16671
 30
0.0
 10
-10.48317
 20
-14.16671
 30
0.0
 10
-10.48703
 20
-14.16572
 30
0.0
 10
-10.49081
 20
-14.16523
 30
0.0
 10
-10.49448
 20
-14.16523
 30
0.0
 10
-10.49448
 20
-14.16523
 30
0.0
 10
-10.50239
 20
-14.16523
 30
0.0
 10
-10.50852
 20
-14.16742
 30
0.0
 10
-10.51294
 20
-14.17182
 30
0.0
 10
-10.51294
 20
-14.17182
 30
0.0
 10
-10.51734
 20
-14.17619
 30
0.0
 10
-10.51993
 20
-14.1827
 30
0.0
 10
-10.52066
 20
-14.19134
 30
0.0
 10
-10.52066
 20
-14.19134
 30
0.0
 10
-10.51763
 20
-14.1891
 30
0.0
 10
-10.51433
 20
-14.18741
 30
0.0
 10
-10.5108
 20
-14.18628
 30
0.0
 10
-10.5108
 20
-14.18628
 30
0.0
 10
-10.50728
 20
-14.18515
 30
0.0
 10
-10.50342
 20
-14.18459
 30
0.0
 10
-10.49923
 20
-14.18459
 30
0.0
 10
-10.49923
 20
-14.18459
 30
0.0
 10
-10.48872
 20
-14.18459
 30
0.0
 10
-10.48023
 20
-14.18767
 30
0.0
 10
-10.47379
 20
-14.19383
 30
0.0
 10
-10.47379
 20
-14.19383
 30
0.0
 10
-10.46732
 20
-14.19997
 30
0.0
 10
-10.4641
 20
-14.20803
 30
0.0
 10
-10.4641
 20
-14.21801
 30
0.0
 10
-10.4641
 20
-14.21801
 30
0.0
 10
-10.4641
 20
-14.22904
 30
0.0
 10
-10.4677
 20
-14.23786
 30
0.0
 10
-10.47492
 20
-14.24451
 30
0.0
 10
-10.47492
 20
-14.24451
 30
0.0
 10
-10.48211
 20
-14.25114
 30
0.0
 10
-10.4918
 20
-14.25446
 30
0.0
 10
-10.50391
 20
-14.25446
 30
0.0
 10
-10.50391
 20
-14.25446
 30
0.0
 10
-10.51727
 20
-14.25446
 30
0.0
 10
-10.52762
 20
-14.24994
 30
0.0
 10
-10.53496
 20
-14.24091
 30
0.0
 10
-10.53496
 20
-14.24091
 30
0.0
 10
-10.54227
 20
-14.2319
 30
0.0
 10
-10.54594
 20
-14.21909
 30
0.0
 10
-10.54594
 20
-14.20251
 30
0.0
 10
-10.54594
 20
-14.20251
 30
0.0
 10
-10.54594
 20
-14.18553
 30
0.0
 10
-10.54166
 20
-14.17217
 30
0.0
 10
-10.5331
 20
-14.16246
 30
0.0
 10
-10.5331
 20
-14.16246
 30
0.0
 10
-10.52452
 20
-14.15274
 30
0.0
 10
-10.51278
 20
-14.14787
 30
0.0
 10
-10.49785
 20
-14.14787
 30
0.0
 10
-10.49785
 20
-14.14787
 30
0.0
 10
-10.49312
 20
-14.14787
 30
0.0
 10
-10.48853
 20
-14.14825
 30
0.0
 10
-10.48406
 20
-14.14898
 30
0.0
 10
-10.48406
 20
-14.14898
 30
0.0
 10
-10.47962
 20
-14.14971
 30
0.0
 10
-10.47522
 20
-14.15081
 30
0.0
 10
-10.47085
 20
-14.15227
 30
0.0
  0
SPLINE
  5
7A
330
1F
100
AcDbEntity
  8
Layer 1
 62
   250
100
AcDbSpline
210
0.0
220
0.0
230
1.0
 70
    11
 71
     3
 72
    20
 73
    16
 74
     0
 42
0.0000000001
 43
0.0000000001
 40
0.0
 40
0.0
 40
0.0
 40
0.0
 40
0.25
 40
0.25
 40
0.25
 40
0.25
 40
0.5
 40
0.5
 40
0.5
 40
0.5
 40
0.75
 40
0.75
 40
0.75
 40
0.75
 40
1.0
 40
1.0
 40
1.0
 40
1.0
 10
-10.44886
 20
-14.20183
 30
0.0
 10
-10.44886
 20
-14.20183
 30
0.0
 10
-10.40558
 20
-14.20183
 30
0.0
 10
-10.40558
 20
-14.20183
 30
0.0
 10
-10.40558
 20
-14.20183
 30
0.0
 10
-10.40558
 20
-14.20183
 30
0.0
 10
-10.40558
 20
-14.22189
 30
0.0
 10
-10.40558
 20
-14.22189
 30
0.0
 10
-10.40558
 20
-14.22189
 30
0.0
 10
-10.40558
 20
-14.22189
 30
0.0
 10
-10.44886
 20
-14.22189
 30
0.0
 10
-10.44886
 20
-14.22189
 30
0.0
 10
-10.44886
 20
-14.22189
 30
0.0
 10
-10.44886
 20
-14.22189
 30
0.0
 10
-10.44886
 20
-14.20183
 30
0.0
 10
-10.44886
 20
-14.20183
 30
0.0
  0
SPLINE
  5
7B
330
1F
100
AcDbEntity
  8
Layer 1
 62
   250
100
AcDbSpline
210
0.0
220
0.0
230
1.0
 70
    11
 71
     3
 72
   120
 73
   116
 74
     0
 42
0.0000000001
 43
0.0000000001
 40
0.0
 40
0.0
 40
0.0
 40
0.0
 40
0.0344827586206897
 40
0.0344827586206897
 40
0.0344827586206897
 40
0.0344827586206897
 40
0.0689655172413793
 40
0.0689655172413793
 40
0.0689655172413793
 40
0.0689655172413793
 40
0.103448275862069
 40
0.103448275862069
 40
0.103448275862069
 40
0.103448275862069
 40
0.1379310344827586
 40
0.1379310344827586
 40
0.1379310344827586
 40
0.1379310344827586
 40
0.1724137931034483
 40
0.1724137931034483
 40
0.1724137931034483
 40
0.1724137931034483
 40
0.206896551724138
 40
0.206896551724138
 40
0.206896551724138
 40
0.206896551724138
 40
0.2413793103448276
 40
0.2413793103448276
 40
0.2413793103448276
 40
0.2413793103448276
 40
0.2758620689655173
 40
0.2758620689655173
 40
0.2758620689655173
 40
0.2758620689655173
 40
0.310344827586207
 40
0.310344827586207
 40
0.310344827586207
 40
0.310344827586207
 40
0.3448275862068966
 40
0.3448275862068966
 40
0.3448275862068966
 40
0.3448275862068966
 40
0.3793103448275863
 40
0.3793103448275863
 40
0.3793103448275863
 40
0.3793103448275863
 40
0.413793103448276
 40
0.413793103448276
 40
0.413793103448276
 40
0.413793103448276
 40
0.4482758620689656
 40
0.4482758620689656
 40
0.4482758620689656
 40
0.4482758620689656
 40
0.4827586206896553
 40
0.4827586206896553
 40
0.4827586206896553
 40
0.4827586206896553
 40
0.517241379310345
 40
0.517241379310345
 40
0.517241379310345
 40
0.517241379310345
 40
0.5517241379310346
 40
0.5517241379310346
 40
0.5517241379310346
 40
0.5517241379310346
 40
0.5862068965517242
 40
0.5862068965517242
 40
0.5862068965517242
 40
0.5862068965517242
 40
0.6206896551724138
 40
0.6206896551724138
 40
0.6206896551724138
 40
0.6206896551724138
 40
0.6551724137931034
 40
0.6551724137931034
 40
0.6551724137931034
 40
0.6551724137931034
 40
0.689655172413793
 40
0.689655172413793
 40
0.689655172413793
 40
0.689655172413793
 40
0.7241379310344827
 40
0.7241379310344827
 40
0.7241379310344827
 40
0.7241379310344827
 40
0.7586206896551723
 40
0.7586206896551723
 40
0.7586206896551723
 40
0.7586206896551723
 40
0.7931034482758619
 40
0.7931034482758619
 40
0.7931034482758619
 40
0.7931034482758619
 40
0.8275862068965515
 40
0.8275862068965515
 40
0.8275862068965515
 40
0.8275862068965515
 40
0.8620689655172411
 40
0.8620689655172411
 40
0.8620689655172411
 40
0.8620689655172411
 40
0.8965517241379307
 40
0.8965517241379307
 40
0.8965517241379307
 40
0.8965517241379307
 40
0.9310344827586203
 40
0.9310344827586203
 40
0.9310344827586203
 40
0.9310344827586203
 40
0.9655172413793099
 40
0.9655172413793099
 40
0.9655172413793099
 40
0.9655172413793099
 40
1.0
 40
1.0
 40
1.0
 40
1.0
 10
-10.33221
 20
-14.19698
 30
0.0
 10
-10.32529
 20
-14.19877
 30
0.0
 10
-10.32
 20
-14.2019
 30
0.0
 10
-10.3164
 20
-14.20632
 30
0.0
 10
-10.3164
 20
-14.20632
 30
0.0
 10
-10.3128
 20
-14.21076
 30
0.0
 10
-10.31099
 20
-14.21638
 30
0.0
 10
-10.31099
 20
-14.22323
 30
0.0
 10
-10.31099
 20
-14.22323
 30
0.0
 10
-10.31099
 20
-14.23343
 30
0.0
 10
-10.3149
 20
-14.24119
 30
0.0
 10
-10.3227
 20
-14.24651
 30
0.0
 10
-10.3227
 20
-14.24651
 30
0.0
 10
-10.33051
 20
-14.2518
 30
0.0
 10
-10.3419
 20
-14.25446
 30
0.0
 10
-10.35688
 20
-14.25446
 30
0.0
 10
-10.35688
 20
-14.25446
 30
0.0
 10
-10.36217
 20
-14.25446
 30
0.0
 10
-10.36746
 20
-14.25404
 30
0.0
 10
-10.37278
 20
-14.25319
 30
0.0
 10
-10.37278
 20
-14.25319
 30
0.0
 10
-10.37807
 20
-14.25234
 30
0.0
 10
-10.38331
 20
-14.25105
 30
0.0
 10
-10.38851
 20
-14.24936
 30
0.0
 10
-10.38851
 20
-14.24936
 30
0.0
 10
-10.38851
 20
-14.24936
 30
0.0
 10
-10.38851
 20
-14.22889
 30
0.0
 10
-10.38851
 20
-14.22889
 30
0.0
 10
-10.38851
 20
-14.22889
 30
0.0
 10
-10.38355
 20
-14.23136
 30
0.0
 10
-10.37863
 20
-14.23325
 30
0.0
 10
-10.37374
 20
-14.23452
 30
0.0
 10
-10.37374
 20
-14.23452
 30
0.0
 10
-10.36885
 20
-14.23576
 30
0.0
 10
-10.36403
 20
-14.2364
 30
0.0
 10
-10.3593
 20
-14.2364
 30
0.0
 10
-10.3593
 20
-14.2364
 30
0.0
 10
-10.35227
 20
-14.2364
 30
0.0
 10
-10.34688
 20
-14.23517
 30
0.0
 10
-10.34314
 20
-14.23275
 30
0.0
 10
-10.34314
 20
-14.23275
 30
0.0
 10
-10.3394
 20
-14.23031
 30
0.0
 10
-10.33752
 20
-14.22683
 30
0.0
 10
-10.33752
 20
-14.22226
 30
0.0
 10
-10.33752
 20
-14.22226
 30
0.0
 10
-10.33752
 20
-14.21758
 30
0.0
 10
-10.33945
 20
-14.21403
 30
0.0
 10
-10.34328
 20
-14.21163
 30
0.0
 10
-10.34328
 20
-14.21163
 30
0.0
 10
-10.34712
 20
-14.20921
 30
0.0
 10
-10.35278
 20
-14.20801
 30
0.0
 10
-10.36026
 20
-14.20801
 30
0.0
 10
-10.36026
 20
-14.20801
 30
0.0
 10
-10.36026
 20
-14.20801
 30
0.0
 10
-10.37087
 20
-14.20801
 30
0.0
 10
-10.37087
 20
-14.20801
 30
0.0
 10
-10.37087
 20
-14.20801
 30
0.0
 10
-10.37087
 20
-14.20801
 30
0.0
 10
-10.37087
 20
-14.19091
 30
0.0
 10
-10.37087
 20
-14.19091
 30
0.0
 10
-10.37087
 20
-14.19091
 30
0.0
 10
-10.37087
 20
-14.19091
 30
0.0
 10
-10.35972
 20
-14.19091
 30
0.0
 10
-10.35972
 20
-14.19091
 30
0.0
 10
-10.35972
 20
-14.19091
 30
0.0
 10
-10.35304
 20
-14.19091
 30
0.0
 10
-10.3481
 20
-14.18988
 30
0.0
 10
-10.34484
 20
-14.18778
 30
0.0
 10
-10.34484
 20
-14.18778
 30
0.0
 10
-10.34157
 20
-14.18569
 30
0.0
 10
-10.33994
 20
-14.18252
 30
0.0
 10
-10.33994
 20
-14.17826
 30
0.0
 10
-10.33994
 20
-14.17826
 30
0.0
 10
-10.33994
 20
-14.17431
 30
0.0
 10
-10.34152
 20
-14.17125
 30
0.0
 10
-10.34469
 20
-14.16911
 30
0.0
 10
-10.34469
 20
-14.16911
 30
0.0
 10
-10.34787
 20
-14.16695
 30
0.0
 10
-10.35234
 20
-14.16587
 30
0.0
 10
-10.35812
 20
-14.16587
 30
0.0
 10
-10.35812
 20
-14.16587
 30
0.0
 10
-10.3624
 20
-14.16587
 30
0.0
 10
-10.36671
 20
-14.16634
 30
0.0
 10
-10.37108
 20
-14.1673
 30
0.0
 10
-10.37108
 20
-14.1673
 30
0.0
 10
-10.37543
 20
-14.16826
 30
0.0
 10
-10.37976
 20
-14.1697
 30
0.0
 10
-10.38409
 20
-14.17158
 30
0.0
 10
-10.38409
 20
-14.17158
 30
0.0
 10
-10.38409
 20
-14.17158
 30
0.0
 10
-10.38409
 20
-14.15215
 30
0.0
 10
-10.38409
 20
-14.15215
 30
0.0
 10
-10.38409
 20
-14.15215
 30
0.0
 10
-10.37884
 20
-14.15067
 30
0.0
 10
-10.37367
 20
-14.14957
 30
0.0
 10
-10.36852
 20
-14.14884
 30
0.0
 10
-10.36852
 20
-14.14884
 30
0.0
 10
-10.36337
 20
-14.14811
 30
0.0
 10
-10.35834
 20
-14.14773
 30
0.0
 10
-10.35337
 20
-14.14773
 30
0.0
 10
-10.35337
 20
-14.14773
 30
0.0
 10
-10.34001
 20
-14.14773
 30
0.0
 10
-10.33
 20
-14.14992
 30
0.0
 10
-10.32336
 20
-14.15432
 30
0.0
 10
-10.32336
 20
-14.15432
 30
0.0
 10
-10.31673
 20
-14.15869
 30
0.0
 10
-10.31342
 20
-14.1653
 30
0.0
 10
-10.31342
 20
-14.17412
 30
0.0
 10
-10.31342
 20
-14.17412
 30
0.0
 10
-10.31342
 20
-14.18012
 30
0.0
 10
-10.31499
 20
-14.18506
 30
0.0
 10
-10.31817
 20
-14.18889
 30
0.0
 10
-10.31817
 20
-14.18889
 30
0.0
 10
-10.32134
 20
-14.19272
 30
0.0
 10
-10.32602
 20
-14.19543
 30
0.0
 10
-10.33221
 20
-14.19698
 30
0.0
  0
SPLINE
  5
7C
330
1F
100
AcDbEntity
  8
Layer 1
 62
   250
100
AcDbSpline
210
0.0
220
0.0
230
1.0
 70
    11
 71
     3
 72
    44
 73
    40
 74
     0
 42
0.0000000001
 43
0.0000000001
 40
0.0
 40
0.0
 40
0.0
 40
0.0
 40
0.1
 40
0.1
 40
0.1
 40
0.1
 40
0.2
 40
0.2
 40
0.2
 40
0.2
 40
0.3
 40
0.3
 40
0.3
 40
0.3
 40
0.4
 40
0.4
 40
0.4
 40
0.4
 40
0.5
 40
0.5
 40
0.5
 40
0.5
 40
0.6
 40
0.6
 40
0.6
 40
0.6
 40
0.7
 40
0.7
 40
0.7
 40
0.7
 40
0.7999999999999999
 40
0.7999999999999999
 40
0.7999999999999999
 40
0.7999999999999999
 40
0.8999999999999999
 40
0.8999999999999999
 40
0.8999999999999999
 40
0.8999999999999999
 40
1.0
 40
1.0
 40
1.0
 40
1.0
 10
-10.28846
 20
-14.27106
 30
0.0
 10
-10.28258
 20
-14.26013
 30
0.0
 10
-10.27816
 20
-14.24945
 30
0.0
 10
-10.27522
 20
-14.23903
 30
0.0
 10
-10.27522
 20
-14.23903
 30
0.0
 10
-10.27228
 20
-14.22859
 30
0.0
 10
-10.27082
 20
-14.21831
 30
0.0
 10
-10.27082
 20
-14.20815
 30
0.0
 10
-10.27082
 20
-14.20815
 30
0.0
 10
-10.27082
 20
-14.19799
 30
0.0
 10
-10.27228
 20
-14.18771
 30
0.0
 10
-10.27522
 20
-14.17732
 30
0.0
 10
-10.27522
 20
-14.17732
 30
0.0
 10
-10.27816
 20
-14.16692
 30
0.0
 10
-10.28258
 20
-14.15627
 30
0.0
 10
-10.28846
 20
-14.14538
 30
0.0
 10
-10.28846
 20
-14.14538
 30
0.0
 10
-10.28846
 20
-14.14538
 30
0.0
 10
-10.268
 20
-14.14538
 30
0.0
 10
-10.268
 20
-14.14538
 30
0.0
 10
-10.268
 20
-14.14538
 30
0.0
 10
-10.26102
 20
-14.15665
 30
0.0
 10
-10.25584
 20
-14.16742
 30
0.0
 10
-10.25245
 20
-14.17774
 30
0.0
 10
-10.25245
 20
-14.17774
 30
0.0
 10
-10.24909
 20
-14.18804
 30
0.0
 10
-10.2474
 20
-14.19823
 30
0.0
 10
-10.2474
 20
-14.20829
 30
0.0
 10
-10.2474
 20
-14.20829
 30
0.0
 10
-10.2474
 20
-14.21836
 30
0.0
 10
-10.24907
 20
-14.22849
 30
0.0
 10
-10.25243
 20
-14.2387
 30
0.0
 10
-10.25243
 20
-14.2387
 30
0.0
 10
-10.25577
 20
-14.24893
 30
0.0
 10
-10.26097
 20
-14.25973
 30
0.0
 10
-10.268
 20
-14.27106
 30
0.0
 10
-10.268
 20
-14.27106
 30
0.0
 10
-10.268
 20
-14.27106
 30
0.0
 10
-10.28846
 20
-14.27106
 30
0.0
 10
-10.28846
 20
-14.27106
 30
0.0
  0
SPLINE
  5
7D
330
1F
100
AcDbEntity
  8
Layer 1
 62
   250
100
AcDbSpline
210
0.0
220
0.0
230
1.0
 70
    11
 71
     3
 72
    36
 73
    32
 74
     0
 42
0.0000000001
 43
0.0000000001
 40
0.0
 40
0.0
 40
0.0
 40
0.0
 40
0.125
 40
0.125
 40
0.125
 40
0.125
 40
0.25
 40
0.25
 40
0.25
 40
0.25
 40
0.375
 40
0.375
 40
0.375
 40
0.375
 40
0.5
 40
0.5
 40
0.5
 40
0.5
 40
0.625
 40
0.625
 40
0.625
 40
0.625
 40
0.75
 40
0.75
 40
0.75
 40
0.75
 40
0.875
 40
0.875
 40
0.875
 40
0.875
 40
1.0
 40
1.0
 40
1.0
 40
1.0
 10
-10.137
 20
-14.20643
 30
0.0
 10
-10.14196
 20
-14.20643
 30
0.0
 10
-10.1458
 20
-14.2078
 30
0.0
 10
-10.14845
 20
-14.2105
 30
0.0
 10
-10.14845
 20
-14.2105
 30
0.0
 10
-10.15111
 20
-14.21321
 30
0.0
 10
-10.15245
 20
-14.21709
 30
0.0
 10
-10.15245
 20
-14.22214
 30
0.0
 10
-10.15245
 20
-14.22214
 30
0.0
 10
-10.15245
 20
-14.2272
 30
0.0
 10
-10.15111
 20
-14.23106
 30
0.0
 10
-10.14845
 20
-14.23376
 30
0.0
 10
-10.14845
 20
-14.23376
 30
0.0
 10
-10.1458
 20
-14.23644
 30
0.0
 10
-10.14196
 20
-14.23778
 30
0.0
 10
-10.137
 20
-14.23778
 30
0.0
 10
-10.137
 20
-14.23778
 30
0.0
 10
-10.13208
 20
-14.23778
 30
0.0
 10
-10.12832
 20
-14.23644
 30
0.0
 10
-10.12569
 20
-14.23376
 30
0.0
 10
-10.12569
 20
-14.23376
 30
0.0
 10
-10.12308
 20
-14.23106
 30
0.0
 10
-10.12176
 20
-14.2272
 30
0.0
 10
-10.12176
 20
-14.22214
 30
0.0
 10
-10.12176
 20
-14.22214
 30
0.0
 10
-10.12176
 20
-14.21704
 30
0.0
 10
-10.12308
 20
-14.21316
 30
0.0
 10
-10.12569
 20
-14.21046
 30
0.0
 10
-10.12569
 20
-14.21046
 30
0.0
 10
-10.12832
 20
-14.20778
 30
0.0
 10
-10.13208
 20
-14.20643
 30
0.0
 10
-10.137
 20
-14.20643
 30
0.0
  0
SPLINE
  5
7E
330
1F
100
AcDbEntity
  8
Layer 1
 62
   250
100
AcDbSpline
210
0.0
220
0.0
230
1.0
 70
    11
 71
     3
 72
    68
 73
    64
 74
     0
 42
0.0000000001
 43
0.0000000001
 40
0.0
 40
0.0
 40
0.0
 40
0.0
 40
0.0625
 40
0.0625
 40
0.0625
 40
0.0625
 40
0.125
 40
0.125
 40
0.125
 40
0.125
 40
0.1875
 40
0.1875
 40
0.1875
 40
0.1875
 40
0.25
 40
0.25
 40
0.25
 40
0.25
 40
0.3125
 40
0.3125
 40
0.3125
 40
0.3125
 40
0.375
 40
0.375
 40
0.375
 40
0.375
 40
0.4375
 40
0.4375
 40
0.4375
 40
0.4375
 40
0.5
 40
0.5
 40
0.5
 40
0.5
 40
0.5625
 40
0.5625
 40
0.5625
 40
0.5625
 40
0.625
 40
0.625
 40
0.625
 40
0.625
 40
0.6875
 40
0.6875
 40
0.6875
 40
0.6875
 40
0.75
 40
0.75
 40
0.75
 40
0.75
 40
0.8125
 40
0.8125
 40
0.8125
 40
0.8125
 40
0.875
 40
0.875
 40
0.875
 40
0.875
 40
0.9375
 40
0.9375
 40
0.9375
 40
0.9375
 40
1.0
 40
1.0
 40
1.0
 40
1.0
 10
-10.15638
 20
-14.19769
 30
0.0
 10
-10.16261
 20
-14.1958
 30
0.0
 10
-10.16732
 20
-14.19291
 30
0.0
 10
-10.17049
 20
-14.18901
 30
0.0
 10
-10.17049
 20
-14.18901
 30
0.0
 10
-10.17367
 20
-14.1851
 30
0.0
 10
-10.17524
 20
-14.18024
 30
0.0
 10
-10.17524
 20
-14.1744
 30
0.0
 10
-10.17524
 20
-14.1744
 30
0.0
 10
-10.17524
 20
-14.16572
 30
0.0
 10
-10.172
 20
-14.15909
 30
0.0
 10
-10.16553
 20
-14.15455
 30
0.0
 10
-10.16553
 20
-14.15455
 30
0.0
 10
-10.15906
 20
-14.15001
 30
0.0
 10
-10.14954
 20
-14.14773
 30
0.0
 10
-10.137
 20
-14.14773
 30
0.0
 10
-10.137
 20
-14.14773
 30
0.0
 10
-10.12456
 20
-14.14773
 30
0.0
 10
-10.11508
 20
-14.14999
 30
0.0
 10
-10.10861
 20
-14.15453
 30
0.0
 10
-10.10861
 20
-14.15453
 30
0.0
 10
-10.10215
 20
-14.15905
 30
0.0
 10
-10.0989
 20
-14.16568
 30
0.0
 10
-10.0989
 20
-14.1744
 30
0.0
 10
-10.0989
 20
-14.1744
 30
0.0
 10
-10.0989
 20
-14.18024
 30
0.0
 10
-10.1005
 20
-14.1851
 30
0.0
 10
-10.10367
 20
-14.18901
 30
0.0
 10
-10.10367
 20
-14.18901
 30
0.0
 10
-10.10687
 20
-14.19291
 30
0.0
 10
-10.1116
 20
-14.1958
 30
0.0
 10
-10.11783
 20
-14.19769
 30
0.0
 10
-10.11783
 20
-14.19769
 30
0.0
 10
-10.11085
 20
-14.19961
 30
0.0
 10
-10.10558
 20
-14.20274
 30
0.0
 10
-10.10203
 20
-14.20709
 30
0.0
 10
-10.10203
 20
-14.20709
 30
0.0
 10
-10.09848
 20
-14.21142
 30
0.0
 10
-10.09669
 20
-14.2169
 30
0.0
 10
-10.09669
 20
-14.22353
 30
0.0
 10
-10.09669
 20
-14.22353
 30
0.0
 10
-10.09669
 20
-14.23372
 30
0.0
 10
-10.10008
 20
-14.24143
 30
0.0
 10
-10.10685
 20
-14.24663
 30
0.0
 10
-10.10685
 20
-14.24663
 30
0.0
 10
-10.11362
 20
-14.25185
 30
0.0
 10
-10.12369
 20
-14.25446
 30
0.0
 10
-10.137
 20
-14.25446
 30
0.0
 10
-10.137
 20
-14.25446
 30
0.0
 10
-10.15038
 20
-14.25446
 30
0.0
 10
-10.16047
 20
-14.25185
 30
0.0
 10
-10.16729
 20
-14.24663
 30
0.0
 10
-10.16729
 20
-14.24663
 30
0.0
 10
-10.17411
 20
-14.24143
 30
0.0
 10
-10.17752
 20
-14.23372
 30
0.0
 10
-10.17752
 20
-14.22353
 30
0.0
 10
-10.17752
 20
-14.22353
 30
0.0
 10
-10.17752
 20
-14.2169
 30
0.0
 10
-10.17573
 20
-14.21142
 30
0.0
 10
-10.17218
 20
-14.20709
 30
0.0
 10
-10.17218
 20
-14.20709
 30
0.0
 10
-10.16863
 20
-14.20274
 30
0.0
 10
-10.16336
 20
-14.19961
 30
0.0
 10
-10.15638
 20
-14.19769
 30
0.0
  0
SPLINE
  5
7F
330
1F
100
AcDbEntity
  8
Layer 1
 62
   250
100
AcDbSpline
210
0.0
220
0.0
230
1.0
 70
    11
 71
     3
 72
    36
 73
    32
 74
     0
 42
0.0000000001
 43
0.0000000001
 40
0.0
 40
0.0
 40
0.0
 40
0.0
 40
0.125
 40
0.125
 40
0.125
 40
0.125
 40
0.25
 40
0.25
 40
0.25
 40
0.25
 40
0.375
 40
0.375
 40
0.375
 40
0.375
 40
0.5
 40
0.5
 40
0.5
 40
0.5
 40
0.625
 40
0.625
 40
0.625
 40
0.625
 40
0.75
 40
0.75
 40
0.75
 40
0.75
 40
0.875
 40
0.875
 40
0.875
 40
0.875
 40
1.0
 40
1.0
 40
1.0
 40
1.0
 10
-10.15017
 20
-14.17708
 30
0.0
 10
-10.15017
 20
-14.18118
 30
0.0
 10
-10.14904
 20
-14.18433
 30
0.0
 10
-10.14676
 20
-14.18651
 30
0.0
 10
-10.14676
 20
-14.18651
 30
0.0
 10
-10.14448
 20
-14.18873
 30
0.0
 10
-10.14123
 20
-14.18983
 30
0.0
 10
-10.137
 20
-14.18983
 30
0.0
 10
-10.137
 20
-14.18983
 30
0.0
 10
-10.13286
 20
-14.18983
 30
0.0
 10
-10.12966
 20
-14.18873
 30
0.0
 10
-10.12743
 20
-14.18651
 30
0.0
 10
-10.12743
 20
-14.18651
 30
0.0
 10
-10.12517
 20
-14.18433
 30
0.0
 10
-10.12404
 20
-14.18118
 30
0.0
 10
-10.12404
 20
-14.17708
 30
0.0
 10
-10.12404
 20
-14.17708
 30
0.0
 10
-10.12404
 20
-14.17299
 30
0.0
 10
-10.12517
 20
-14.16986
 30
0.0
 10
-10.12743
 20
-14.16768
 30
0.0
 10
-10.12743
 20
-14.16768
 30
0.0
 10
-10.12966
 20
-14.16549
 30
0.0
 10
-10.13286
 20
-14.16441
 30
0.0
 10
-10.137
 20
-14.16441
 30
0.0
 10
-10.137
 20
-14.16441
 30
0.0
 10
-10.14123
 20
-14.16441
 30
0.0
 10
-10.14448
 20
-14.16551
 30
0.0
 10
-10.14676
 20
-14.16772
 30
0.0
 10
-10.14676
 20
-14.16772
 30
0.0
 10
-10.14904
 20
-14.16991
 30
0.0
 10
-10.15017
 20
-14.17304
 30
0.0
 10
-10.15017
 20
-14.17708
 30
0.0
  0
SPLINE
  5
80
330
1F
100
AcDbEntity
  8
Layer 1
 62
   250
100
AcDbSpline
210
0.0
220
0.0
230
1.0
 70
    11
 71
     3
 72
    56
 73
    52
 74
     0
 42
0.0000000001
 43
0.0000000001
 40
0.0
 40
0.0
 40
0.0
 40
0.0
 40
0.0769230769230769
 40
0.0769230769230769
 40
0.0769230769230769
 40
0.0769230769230769
 40
0.1538461538461539
 40
0.1538461538461539
 40
0.1538461538461539
 40
0.1538461538461539
 40
0.2307692307692308
 40
0.2307692307692308
 40
0.2307692307692308
 40
0.2307692307692308
 40
0.3076923076923077
 40
0.3076923076923077
 40
0.3076923076923077
 40
0.3076923076923077
 40
0.3846153846153846
 40
0.3846153846153846
 40
0.3846153846153846
 40
0.3846153846153846
 40
0.4615384615384616
 40
0.4615384615384616
 40
0.4615384615384616
 40
0.4615384615384616
 40
0.5384615384615385
 40
0.5384615384615385
 40
0.5384615384615385
 40
0.5384615384615385
 40
0.6153846153846154
 40
0.6153846153846154
 40
0.6153846153846154
 40
0.6153846153846154
 40
0.6923076923076923
 40
0.6923076923076923
 40
0.6923076923076923
 40
0.6923076923076923
 40
0.7692307692307692
 40
0.7692307692307692
 40
0.7692307692307692
 40
0.7692307692307692
 40
0.846153846153846
 40
0.846153846153846
 40
0.846153846153846
 40
0.846153846153846
 40
0.9230769230769229
 40
0.9230769230769229
 40
0.9230769230769229
 40
0.9230769230769229
 40
1.0
 40
1.0
 40
1.0
 40
1.0
 10
-10.02585
 20
-14.14959
 30
0.0
 10
-10.02585
 20
-14.14959
 30
0.0
 10
-9.9921
 20
-14.14959
 30
0.0
 10
-9.9921
 20
-14.14959
 30
0.0
 10
-9.9921
 20
-14.14959
 30
0.0
 10
-9.9921
 20
-14.14959
 30
0.0
 10
-9.96865
 20
-14.20465
 30
0.0
 10
-9.96865
 20
-14.20465
 30
0.0
 10
-9.96865
 20
-14.20465
 30
0.0
 10
-9.96865
 20
-14.20465
 30
0.0
 10
-9.94509
 20
-14.14959
 30
0.0
 10
-9.94509
 20
-14.14959
 30
0.0
 10
-9.94509
 20
-14.14959
 30
0.0
 10
-9.94509
 20
-14.14959
 30
0.0
 10
-9.91141
 20
-14.14959
 30
0.0
 10
-9.91141
 20
-14.14959
 30
0.0
 10
-9.91141
 20
-14.14959
 30
0.0
 10
-9.91141
 20
-14.14959
 30
0.0
 10
-9.91141
 20
-14.25246
 30
0.0
 10
-9.91141
 20
-14.25246
 30
0.0
 10
-9.91141
 20
-14.25246
 30
0.0
 10
-9.91141
 20
-14.25246
 30
0.0
 10
-9.93648
 20
-14.25246
 30
0.0
 10
-9.93648
 20
-14.25246
 30
0.0
 10
-9.93648
 20
-14.25246
 30
0.0
 10
-9.93648
 20
-14.25246
 30
0.0
 10
-9.93648
 20
-14.17722
 30
0.0
 10
-9.93648
 20
-14.17722
 30
0.0
 10
-9.93648
 20
-14.17722
 30
0.0
 10
-9.93648
 20
-14.17722
 30
0.0
 10
-9.96019
 20
-14.23268
 30
0.0
 10
-9.96019
 20
-14.23268
 30
0.0
 10
-9.96019
 20
-14.23268
 30
0.0
 10
-9.96019
 20
-14.23268
 30
0.0
 10
-9.977
 20
-14.23268
 30
0.0
 10
-9.977
 20
-14.23268
 30
0.0
 10
-9.977
 20
-14.23268
 30
0.0
 10
-9.977
 20
-14.23268
 30
0.0
 10
-10.00071
 20
-14.17722
 30
0.0
 10
-10.00071
 20
-14.17722
 30
0.0
 10
-10.00071
 20
-14.17722
 30
0.0
 10
-10.00071
 20
-14.17722
 30
0.0
 10
-10.00071
 20
-14.25246
 30
0.0
 10
-10.00071
 20
-14.25246
 30
0.0
 10
-10.00071
 20
-14.25246
 30
0.0
 10
-10.00071
 20
-14.25246
 30
0.0
 10
-10.02585
 20
-14.25246
 30
0.0
 10
-10.02585
 20
-14.25246
 30
0.0
 10
-10.02585
 20
-14.25246
 30
0.0
 10
-10.02585
 20
-14.25246
 30
0.0
 10
-10.02585
 20
-14.14959
 30
0.0
 10
-10.02585
 20
-14.14959
 30
0.0
  0
SPLINE
  5
81
330
1F
100
AcDbEntity
  8
Layer 1
 62
   250
100
AcDbSpline
210
0.0
220
0.0
230
1.0
 70
    11
 71
     3
 72
    52
 73
    48
 74
     0
 42
0.0000000001
 43
0.0000000001
 40
0.0
 40
0.0
 40
0.0
 40
0.0
 40
0.0833333333333333
 40
0.0833333333333333
 40
0.0833333333333333
 40
0.0833333333333333
 40
0.1666666666666667
 40
0.1666666666666667
 40
0.1666666666666667
 40
0.1666666666666667
 40
0.25
 40
0.25
 40
0.25
 40
0.25
 40
0.3333333333333333
 40
0.3333333333333333
 40
0.3333333333333333
 40
0.3333333333333333
 40
0.4166666666666666
 40
0.4166666666666666
 40
0.4166666666666666
 40
0.4166666666666666
 40
0.4999999999999999
 40
0.4999999999999999
 40
0.4999999999999999
 40
0.4999999999999999
 40
0.5833333333333333
 40
0.5833333333333333
 40
0.5833333333333333
 40
0.5833333333333333
 40
0.6666666666666666
 40
0.6666666666666666
 40
0.6666666666666666
 40
0.6666666666666666
 40
0.75
 40
0.75
 40
0.75
 40
0.75
 40
0.8333333333333334
 40
0.8333333333333334
 40
0.8333333333333334
 40
0.8333333333333334
 40
0.9166666666666667
 40
0.9166666666666667
 40
0.9166666666666667
 40
0.9166666666666667
 40
1.0
 40
1.0
 40
1.0
 40
1.0
 10
-9.88542
 20
-14.14959
 30
0.0
 10
-9.88542
 20
-14.14959
 30
0.0
 10
-9.85889
 20
-14.14959
 30
0.0
 10
-9.85889
 20
-14.14959
 30
0.0
 10
-9.85889
 20
-14.14959
 30
0.0
 10
-9.85889
 20
-14.14959
 30
0.0
 10
-9.85889
 20
-14.1888
 30
0.0
 10
-9.85889
 20
-14.1888
 30
0.0
 10
-9.85889
 20
-14.1888
 30
0.0
 10
-9.85889
 20
-14.1888
 30
0.0
 10
-9.81976
 20
-14.1888
 30
0.0
 10
-9.81976
 20
-14.1888
 30
0.0
 10
-9.81976
 20
-14.1888
 30
0.0
 10
-9.81976
 20
-14.1888
 30
0.0
 10
-9.81976
 20
-14.14959
 30
0.0
 10
-9.81976
 20
-14.14959
 30
0.0
 10
-9.81976
 20
-14.14959
 30
0.0
 10
-9.81976
 20
-14.14959
 30
0.0
 10
-9.79323
 20
-14.14959
 30
0.0
 10
-9.79323
 20
-14.14959
 30
0.0
 10
-9.79323
 20
-14.14959
 30
0.0
 10
-9.79323
 20
-14.14959
 30
0.0
 10
-9.79323
 20
-14.25246
 30
0.0
 10
-9.79323
 20
-14.25246
 30
0.0
 10
-9.79323
 20
-14.25246
 30
0.0
 10
-9.79323
 20
-14.25246
 30
0.0
 10
-9.81976
 20
-14.25246
 30
0.0
 10
-9.81976
 20
-14.25246
 30
0.0
 10
-9.81976
 20
-14.25246
 30
0.0
 10
-9.81976
 20
-14.25246
 30
0.0
 10
-9.81976
 20
-14.20886
 30
0.0
 10
-9.81976
 20
-14.20886
 30
0.0
 10
-9.81976
 20
-14.20886
 30
0.0
 10
-9.81976
 20
-14.20886
 30
0.0
 10
-9.85889
 20
-14.20886
 30
0.0
 10
-9.85889
 20
-14.20886
 30
0.0
 10
-9.85889
 20
-14.20886
 30
0.0
 10
-9.85889
 20
-14.20886
 30
0.0
 10
-9.85889
 20
-14.25246
 30
0.0
 10
-9.85889
 20
-14.25246
 30
0.0
 10
-9.85889
 20
-14.25246
 30
0.0
 10
-9.85889
 20
-14.25246
 30
0.0
 10
-9.88542
 20
-14.25246
 30
0.0
 10
-9.88542
 20
-14.25246
 30
0.0
 10
-9.88542
 20
-14.25246
 30
0.0
 10
-9.88542
 20
-14.25246
 30
0.0
 10
-9.88542
 20
-14.14959
 30
0.0
 10
-9.88542
 20
-14.14959
 30
0.0
  0
SPLINE
  5
82
330
1F
100
AcDbEntity
  8
Layer 1
 62
   250
100
AcDbSpline
210
0.0
220
0.0
230
1.0
 70
    11
 71
     3
 72
    44
 73
    40
 74
     0
 42
0.0000000001
 43
0.0000000001
 40
0.0
 40
0.0
 40
0.0
 40
0.0
 40
0.1
 40
0.1
 40
0.1
 40
0.1
 40
0.2
 40
0.2
 40
0.2
 40
0.2
 40
0.3
 40
0.3
 40
0.3
 40
0.3
 40
0.4
 40
0.4
 40
0.4
 40
0.4
 40
0.5
 40
0.5
 40
0.5
 40
0.5
 40
0.6
 40
0.6
 40
0.6
 40
0.6
 40
0.7
 40
0.7
 40
0.7
 40
0.7
 40
0.7999999999999999
 40
0.7999999999999999
 40
0.7999999999999999
 40
0.7999999999999999
 40
0.8999999999999999
 40
0.8999999999999999
 40
0.8999999999999999
 40
0.8999999999999999
 40
1.0
 40
1.0
 40
1.0
 40
1.0
 10
-9.77236
 20
-14.14959
 30
0.0
 10
-9.77236
 20
-14.14959
 30
0.0
 10
-9.68586
 20
-14.14959
 30
0.0
 10
-9.68586
 20
-14.14959
 30
0.0
 10
-9.68586
 20
-14.14959
 30
0.0
 10
-9.68586
 20
-14.14959
 30
0.0
 10
-9.68586
 20
-14.16565
 30
0.0
 10
-9.68586
 20
-14.16565
 30
0.0
 10
-9.68586
 20
-14.16565
 30
0.0
 10
-9.68586
 20
-14.16565
 30
0.0
 10
-9.74106
 20
-14.2324
 30
0.0
 10
-9.74106
 20
-14.2324
 30
0.0
 10
-9.74106
 20
-14.2324
 30
0.0
 10
-9.74106
 20
-14.2324
 30
0.0
 10
-9.68429
 20
-14.2324
 30
0.0
 10
-9.68429
 20
-14.2324
 30
0.0
 10
-9.68429
 20
-14.2324
 30
0.0
 10
-9.68429
 20
-14.2324
 30
0.0
 10
-9.68429
 20
-14.25246
 30
0.0
 10
-9.68429
 20
-14.25246
 30
0.0
 10
-9.68429
 20
-14.25246
 30
0.0
 10
-9.68429
 20
-14.25246
 30
0.0
 10
-9.77394
 20
-14.25246
 30
0.0
 10
-9.77394
 20
-14.25246
 30
0.0
 10
-9.77394
 20
-14.25246
 30
0.0
 10
-9.77394
 20
-14.25246
 30
0.0
 10
-9.77394
 20
-14.2364
 30
0.0
 10
-9.77394
 20
-14.2364
 30
0.0
 10
-9.77394
 20
-14.2364
 30
0.0
 10
-9.77394
 20
-14.2364
 30
0.0
 10
-9.71874
 20
-14.16965
 30
0.0
 10
-9.71874
 20
-14.16965
 30
0.0
 10
-9.71874
 20
-14.16965
 30
0.0
 10
-9.71874
 20
-14.16965
 30
0.0
 10
-9.77236
 20
-14.16965
 30
0.0
 10
-9.77236
 20
-14.16965
 30
0.0
 10
-9.77236
 20
-14.16965
 30
0.0
 10
-9.77236
 20
-14.16965
 30
0.0
 10
-9.77236
 20
-14.14959
 30
0.0
 10
-9.77236
 20
-14.14959
 30
0.0
  0
SPLINE
  5
83
330
1F
100
AcDbEntity
  8
Layer 1
 62
   250
100
AcDbSpline
210
0.0
220
0.0
230
1.0
 70
    11
 71
     3
 72
    76
 73
    72
 74
     0
 42
0.0000000001
 43
0.0000000001
 40
0.0
 40
0.0
 40
0.0
 40
0.0
 40
0.0555555555555556
 40
0.0555555555555556
 40
0.0555555555555556
 40
0.0555555555555556
 40
0.1111111111111111
 40
0.1111111111111111
 40
0.1111111111111111
 40
0.1111111111111111
 40
0.1666666666666667
 40
0.1666666666666667
 40
0.1666666666666667
 40
0.1666666666666667
 40
0.2222222222222222
 40
0.2222222222222222
 40
0.2222222222222222
 40
0.2222222222222222
 40
0.2777777777777778
 40
0.2777777777777778
 40
0.2777777777777778
 40
0.2777777777777778
 40
0.3333333333333334
 40
0.3333333333333334
 40
0.3333333333333334
 40
0.3333333333333334
 40
0.388888888888889
 40
0.388888888888889
 40
0.388888888888889
 40
0.388888888888889
 40
0.4444444444444445
 40
0.4444444444444445
 40
0.4444444444444445
 40
0.4444444444444445
 40
0.5000000000000001
 40
0.5000000000000001
 40
0.5000000000000001
 40
0.5000000000000001
 40
0.5555555555555557
 40
0.5555555555555557
 40
0.5555555555555557
 40
0.5555555555555557
 40
0.6111111111111113
 40
0.6111111111111113
 40
0.6111111111111113
 40
0.6111111111111113
 40
0.6666666666666669
 40
0.6666666666666669
 40
0.6666666666666669
 40
0.6666666666666669
 40
0.7222222222222224
 40
0.7222222222222224
 40
0.7222222222222224
 40
0.7222222222222224
 40
0.777777777777778
 40
0.777777777777778
 40
0.777777777777778
 40
0.777777777777778
 40
0.8333333333333336
 40
0.8333333333333336
 40
0.8333333333333336
 40
0.8333333333333336
 40
0.8888888888888892
 40
0.8888888888888892
 40
0.8888888888888892
 40
0.8888888888888892
 40
0.9444444444444448
 40
0.9444444444444448
 40
0.9444444444444448
 40
0.9444444444444448
 40
1.0
 40
1.0
 40
1.0
 40
1.0
 10
-11.27659
 20
-14.41107
 30
0.0
 10
-11.28145
 20
-14.41358
 30
0.0
 10
-11.28653
 20
-14.41549
 30
0.0
 10
-11.29183
 20
-14.41678
 30
0.0
 10
-11.29183
 20
-14.41678
 30
0.0
 10
-11.29709
 20
-14.41807
 30
0.0
 10
-11.30262
 20
-14.41871
 30
0.0
 10
-11.30836
 20
-14.41871
 30
0.0
 10
-11.30836
 20
-14.41871
 30
0.0
 10
-11.32548
 20
-14.41871
 30
0.0
 10
-11.33905
 20
-14.41391
 30
0.0
 10
-11.34907
 20
-14.40434
 30
0.0
 10
-11.34907
 20
-14.40434
 30
0.0
 10
-11.35909
 20
-14.39477
 30
0.0
 10
-11.3641
 20
-14.38179
 30
0.0
 10
-11.3641
 20
-14.36537
 30
0.0
 10
-11.3641
 20
-14.36537
 30
0.0
 10
-11.3641
 20
-14.34893
 30
0.0
 10
-11.35909
 20
-14.33592
 30
0.0
 10
-11.34907
 20
-14.32635
 30
0.0
 10
-11.34907
 20
-14.32635
 30
0.0
 10
-11.33905
 20
-14.31678
 30
0.0
 10
-11.32548
 20
-14.31198
 30
0.0
 10
-11.30836
 20
-14.31198
 30
0.0
 10
-11.30836
 20
-14.31198
 30
0.0
 10
-11.30262
 20
-14.31198
 30
0.0
 10
-11.29709
 20
-14.31262
 30
0.0
 10
-11.29183
 20
-14.31391
 30
0.0
 10
-11.29183
 20
-14.31391
 30
0.0
 10
-11.28653
 20
-14.3152
 30
0.0
 10
-11.28145
 20
-14.31711
 30
0.0
 10
-11.27659
 20
-14.31963
 30
0.0
 10
-11.27659
 20
-14.31963
 30
0.0
 10
-11.27659
 20
-14.31963
 30
0.0
 10
-11.27659
 20
-14.34091
 30
0.0
 10
-11.27659
 20
-14.34091
 30
0.0
 10
-11.27659
 20
-14.34091
 30
0.0
 10
-11.2815
 20
-14.33755
 30
0.0
 10
-11.28635
 20
-14.3351
 30
0.0
 10
-11.29112
 20
-14.33355
 30
0.0
 10
-11.29112
 20
-14.33355
 30
0.0
 10
-11.29589
 20
-14.33197
 30
0.0
 10
-11.30093
 20
-14.3312
 30
0.0
 10
-11.30622
 20
-14.3312
 30
0.0
 10
-11.30622
 20
-14.3312
 30
0.0
 10
-11.31567
 20
-14.3312
 30
0.0
 10
-11.32313
 20
-14.33423
 30
0.0
 10
-11.32854
 20
-14.3403
 30
0.0
 10
-11.32854
 20
-14.3403
 30
0.0
 10
-11.33397
 20
-14.34637
 30
0.0
 10
-11.33668
 20
-14.35472
 30
0.0
 10
-11.33668
 20
-14.36537
 30
0.0
 10
-11.33668
 20
-14.36537
 30
0.0
 10
-11.33668
 20
-14.376
 30
0.0
 10
-11.33397
 20
-14.38433
 30
0.0
 10
-11.32854
 20
-14.39039
 30
0.0
 10
-11.32854
 20
-14.39039
 30
0.0
 10
-11.32313
 20
-14.39646
 30
0.0
 10
-11.31567
 20
-14.39949
 30
0.0
 10
-11.30622
 20
-14.39949
 30
0.0
 10
-11.30622
 20
-14.39949
 30
0.0
 10
-11.30093
 20
-14.39949
 30
0.0
 10
-11.29589
 20
-14.39872
 30
0.0
 10
-11.29112
 20
-14.39714
 30
0.0
 10
-11.29112
 20
-14.39714
 30
0.0
 10
-11.28635
 20
-14.39559
 30
0.0
 10
-11.2815
 20
-14.39314
 30
0.0
 10
-11.27659
 20
-14.38978
 30
0.0
 10
-11.27659
 20
-14.38978
 30
0.0
 10
-11.27659
 20
-14.38978
 30
0.0
 10
-11.27659
 20
-14.41107
 30
0.0
 10
-11.27659
 20
-14.41107
 30
0.0
  0
SPLINE
  5
84
330
1F
100
AcDbEntity
  8
Layer 1
 62
   250
100
AcDbSpline
210
0.0
220
0.0
230
1.0
 70
    11
 71
     3
 72
    52
 73
    48
 74
     0
 42
0.0000000001
 43
0.0000000001
 40
0.0
 40
0.0
 40
0.0
 40
0.0
 40
0.0833333333333333
 40
0.0833333333333333
 40
0.0833333333333333
 40
0.0833333333333333
 40
0.1666666666666667
 40
0.1666666666666667
 40
0.1666666666666667
 40
0.1666666666666667
 40
0.25
 40
0.25
 40
0.25
 40
0.25
 40
0.3333333333333333
 40
0.3333333333333333
 40
0.3333333333333333
 40
0.3333333333333333
 40
0.4166666666666666
 40
0.4166666666666666
 40
0.4166666666666666
 40
0.4166666666666666
 40
0.4999999999999999
 40
0.4999999999999999
 40
0.4999999999999999
 40
0.4999999999999999
 40
0.5833333333333333
 40
0.5833333333333333
 40
0.5833333333333333
 40
0.5833333333333333
 40
0.6666666666666666
 40
0.6666666666666666
 40
0.6666666666666666
 40
0.6666666666666666
 40
0.75
 40
0.75
 40
0.75
 40
0.75
 40
0.8333333333333334
 40
0.8333333333333334
 40
0.8333333333333334
 40
0.8333333333333334
 40
0.9166666666666667
 40
0.9166666666666667
 40
0.9166666666666667
 40
0.9166666666666667
 40
1.0
 40
1.0
 40
1.0
 40
1.0
 10
-11.25462
 20
-14.31384
 30
0.0
 10
-11.25462
 20
-14.31384
 30
0.0
 10
-11.18303
 20
-14.31384
 30
0.0
 10
-11.18303
 20
-14.31384
 30
0.0
 10
-11.18303
 20
-14.31384
 30
0.0
 10
-11.18303
 20
-14.31384
 30
0.0
 10
-11.18303
 20
-14.3339
 30
0.0
 10
-11.18303
 20
-14.3339
 30
0.0
 10
-11.18303
 20
-14.3339
 30
0.0
 10
-11.18303
 20
-14.3339
 30
0.0
 10
-11.22809
 20
-14.3339
 30
0.0
 10
-11.22809
 20
-14.3339
 30
0.0
 10
-11.22809
 20
-14.3339
 30
0.0
 10
-11.22809
 20
-14.3339
 30
0.0
 10
-11.22809
 20
-14.35305
 30
0.0
 10
-11.22809
 20
-14.35305
 30
0.0
 10
-11.22809
 20
-14.35305
 30
0.0
 10
-11.22809
 20
-14.35305
 30
0.0
 10
-11.18574
 20
-14.35305
 30
0.0
 10
-11.18574
 20
-14.35305
 30
0.0
 10
-11.18574
 20
-14.35305
 30
0.0
 10
-11.18574
 20
-14.35305
 30
0.0
 10
-11.18574
 20
-14.37311
 30
0.0
 10
-11.18574
 20
-14.37311
 30
0.0
 10
-11.18574
 20
-14.37311
 30
0.0
 10
-11.18574
 20
-14.37311
 30
0.0
 10
-11.22809
 20
-14.37311
 30
0.0
 10
-11.22809
 20
-14.37311
 30
0.0
 10
-11.22809
 20
-14.37311
 30
0.0
 10
-11.22809
 20
-14.37311
 30
0.0
 10
-11.22809
 20
-14.39665
 30
0.0
 10
-11.22809
 20
-14.39665
 30
0.0
 10
-11.22809
 20
-14.39665
 30
0.0
 10
-11.22809
 20
-14.39665
 30
0.0
 10
-11.18153
 20
-14.39665
 30
0.0
 10
-11.18153
 20
-14.39665
 30
0.0
 10
-11.18153
 20
-14.39665
 30
0.0
 10
-11.18153
 20
-14.39665
 30
0.0
 10
-11.18153
 20
-14.41671
 30
0.0
 10
-11.18153
 20
-14.41671
 30
0.0
 10
-11.18153
 20
-14.41671
 30
0.0
 10
-11.18153
 20
-14.41671
 30
0.0
 10
-11.25462
 20
-14.41671
 30
0.0
 10
-11.25462
 20
-14.41671
 30
0.0
 10
-11.25462
 20
-14.41671
 30
0.0
 10
-11.25462
 20
-14.41671
 30
0.0
 10
-11.25462
 20
-14.31384
 30
0.0
 10
-11.25462
 20
-14.31384
 30
0.0
  0
SPLINE
  5
85
330
1F
100
AcDbEntity
  8
Layer 1
 62
   250
100
AcDbSpline
210
0.0
220
0.0
230
1.0
 70
    11
 71
     3
 72
    32
 73
    28
 74
     0
 42
0.0000000001
 43
0.0000000001
 40
0.0
 40
0.0
 40
0.0
 40
0.0
 40
0.1428571428571428
 40
0.1428571428571428
 40
0.1428571428571428
 40
0.1428571428571428
 40
0.2857142857142857
 40
0.2857142857142857
 40
0.2857142857142857
 40
0.2857142857142857
 40
0.4285714285714285
 40
0.4285714285714285
 40
0.4285714285714285
 40
0.4285714285714285
 40
0.5714285714285714
 40
0.5714285714285714
 40
0.5714285714285714
 40
0.5714285714285714
 40
0.7142857142857142
 40
0.7142857142857142
 40
0.7142857142857142
 40
0.7142857142857142
 40
0.857142857142857
 40
0.857142857142857
 40
0.857142857142857
 40
0.857142857142857
 40
1.0
 40
1.0
 40
1.0
 40
1.0
 10
-11.12052
 20
-14.35947
 30
0.0
 10
-11.11497
 20
-14.35947
 30
0.0
 10
-11.11097
 20
-14.35843
 30
0.0
 10
-11.10857
 20
-14.35636
 30
0.0
 10
-11.10857
 20
-14.35636
 30
0.0
 10
-11.10615
 20
-14.35429
 30
0.0
 10
-11.10495
 20
-14.35088
 30
0.0
 10
-11.10495
 20
-14.34615
 30
0.0
 10
-11.10495
 20
-14.34615
 30
0.0
 10
-11.10495
 20
-14.34147
 30
0.0
 10
-11.10615
 20
-14.33811
 30
0.0
 10
-11.10857
 20
-14.33609
 30
0.0
 10
-11.10857
 20
-14.33609
 30
0.0
 10
-11.11097
 20
-14.33407
 30
0.0
 10
-11.11497
 20
-14.33306
 30
0.0
 10
-11.12052
 20
-14.33306
 30
0.0
 10
-11.12052
 20
-14.33306
 30
0.0
 10
-11.12052
 20
-14.33306
 30
0.0
 10
-11.13169
 20
-14.33306
 30
0.0
 10
-11.13169
 20
-14.33306
 30
0.0
 10
-11.13169
 20
-14.33306
 30
0.0
 10
-11.13169
 20
-14.33306
 30
0.0
 10
-11.13169
 20
-14.35947
 30
0.0
 10
-11.13169
 20
-14.35947
 30
0.0
 10
-11.13169
 20
-14.35947
 30
0.0
 10
-11.13169
 20
-14.35947
 30
0.0
 10
-11.12052
 20
-14.35947
 30
0.0
 10
-11.12052
 20
-14.35947
 30
0.0
  0
SPLINE
  5
86
330
1F
100
AcDbEntity
  8
Layer 1
 62
   250
100
AcDbSpline
210
0.0
220
0.0
230
1.0
 70
    11
 71
     3
 72
    68
 73
    64
 74
     0
 42
0.0000000001
 43
0.0000000001
 40
0.0
 40
0.0
 40
0.0
 40
0.0
 40
0.0625
 40
0.0625
 40
0.0625
 40
0.0625
 40
0.125
 40
0.125
 40
0.125
 40
0.125
 40
0.1875
 40
0.1875
 40
0.1875
 40
0.1875
 40
0.25
 40
0.25
 40
0.25
 40
0.25
 40
0.3125
 40
0.3125
 40
0.3125
 40
0.3125
 40
0.375
 40
0.375
 40
0.375
 40
0.375
 40
0.4375
 40
0.4375
 40
0.4375
 40
0.4375
 40
0.5
 40
0.5
 40
0.5
 40
0.5
 40
0.5625
 40
0.5625
 40
0.5625
 40
0.5625
 40
0.625
 40
0.625
 40
0.625
 40
0.625
 40
0.6875
 40
0.6875
 40
0.6875
 40
0.6875
 40
0.75
 40
0.75
 40
0.75
 40
0.75
 40
0.8125
 40
0.8125
 40
0.8125
 40
0.8125
 40
0.875
 40
0.875
 40
0.875
 40
0.875
 40
0.9375
 40
0.9375
 40
0.9375
 40
0.9375
 40
1.0
 40
1.0
 40
1.0
 40
1.0
 10
-11.13169
 20
-14.37779
 30
0.0
 10
-11.13169
 20
-14.37779
 30
0.0
 10
-11.13169
 20
-14.41671
 30
0.0
 10
-11.13169
 20
-14.41671
 30
0.0
 10
-11.13169
 20
-14.41671
 30
0.0
 10
-11.13169
 20
-14.41671
 30
0.0
 10
-11.15822
 20
-14.41671
 30
0.0
 10
-11.15822
 20
-14.41671
 30
0.0
 10
-11.15822
 20
-14.41671
 30
0.0
 10
-11.15822
 20
-14.41671
 30
0.0
 10
-11.15822
 20
-14.31384
 30
0.0
 10
-11.15822
 20
-14.31384
 30
0.0
 10
-11.15822
 20
-14.31384
 30
0.0
 10
-11.15822
 20
-14.31384
 30
0.0
 10
-11.1177
 20
-14.31384
 30
0.0
 10
-11.1177
 20
-14.31384
 30
0.0
 10
-11.1177
 20
-14.31384
 30
0.0
 10
-11.10415
 20
-14.31384
 30
0.0
 10
-11.0942
 20
-14.31612
 30
0.0
 10
-11.0879
 20
-14.32066
 30
0.0
 10
-11.0879
 20
-14.32066
 30
0.0
 10
-11.08158
 20
-14.3252
 30
0.0
 10
-11.07842
 20
-14.3324
 30
0.0
 10
-11.07842
 20
-14.34223
 30
0.0
 10
-11.07842
 20
-14.34223
 30
0.0
 10
-11.07842
 20
-14.34902
 30
0.0
 10
-11.08007
 20
-14.35462
 30
0.0
 10
-11.08334
 20
-14.35897
 30
0.0
 10
-11.08334
 20
-14.35897
 30
0.0
 10
-11.08663
 20
-14.36335
 30
0.0
 10
-11.09159
 20
-14.36657
 30
0.0
 10
-11.0982
 20
-14.36862
 30
0.0
 10
-11.0982
 20
-14.36862
 30
0.0
 10
-11.09458
 20
-14.36946
 30
0.0
 10
-11.09131
 20
-14.37132
 30
0.0
 10
-11.08844
 20
-14.37424
 30
0.0
 10
-11.08844
 20
-14.37424
 30
0.0
 10
-11.08557
 20
-14.37715
 30
0.0
 10
-11.08268
 20
-14.38157
 30
0.0
 10
-11.07974
 20
-14.3875
 30
0.0
 10
-11.07974
 20
-14.3875
 30
0.0
 10
-11.07974
 20
-14.3875
 30
0.0
 10
-11.06532
 20
-14.41671
 30
0.0
 10
-11.06532
 20
-14.41671
 30
0.0
 10
-11.06532
 20
-14.41671
 30
0.0
 10
-11.06532
 20
-14.41671
 30
0.0
 10
-11.09359
 20
-14.41671
 30
0.0
 10
-11.09359
 20
-14.41671
 30
0.0
 10
-11.09359
 20
-14.41671
 30
0.0
 10
-11.09359
 20
-14.41671
 30
0.0
 10
-11.10613
 20
-14.39115
 30
0.0
 10
-11.10613
 20
-14.39115
 30
0.0
 10
-11.10613
 20
-14.39115
 30
0.0
 10
-11.10864
 20
-14.38602
 30
0.0
 10
-11.11121
 20
-14.38249
 30
0.0
 10
-11.11382
 20
-14.38061
 30
0.0
 10
-11.11382
 20
-14.38061
 30
0.0
 10
-11.11641
 20
-14.37873
 30
0.0
 10
-11.11986
 20
-14.37779
 30
0.0
 10
-11.12419
 20
-14.37779
 30
0.0
 10
-11.12419
 20
-14.37779
 30
0.0
 10
-11.12419
 20
-14.37779
 30
0.0
 10
-11.13169
 20
-14.37779
 30
0.0
 10
-11.13169
 20
-14.37779
 30
0.0
  0
SPLINE
  5
87
330
1F
100
AcDbEntity
  8
Layer 1
 62
   250
100
AcDbSpline
210
0.0
220
0.0
230
1.0
 70
    11
 71
     3
 72
    36
 73
    32
 74
     0
 42
0.0000000001
 43
0.0000000001
 40
0.0
 40
0.0
 40
0.0
 40
0.0
 40
0.125
 40
0.125
 40
0.125
 40
0.125
 40
0.25
 40
0.25
 40
0.25
 40
0.25
 40
0.375
 40
0.375
 40
0.375
 40
0.375
 40
0.5
 40
0.5
 40
0.5
 40
0.5
 40
0.625
 40
0.625
 40
0.625
 40
0.625
 40
0.75
 40
0.75
 40
0.75
 40
0.75
 40
0.875
 40
0.875
 40
0.875
 40
0.875
 40
1.0
 40
1.0
 40
1.0
 40
1.0
 10
-10.98715
 20
-14.39799
 30
0.0
 10
-10.98715
 20
-14.39799
 30
0.0
 10
-11.02864
 20
-14.39799
 30
0.0
 10
-11.02864
 20
-14.39799
 30
0.0
 10
-11.02864
 20
-14.39799
 30
0.0
 10
-11.02864
 20
-14.39799
 30
0.0
 10
-11.03518
 20
-14.41671
 30
0.0
 10
-11.03518
 20
-14.41671
 30
0.0
 10
-11.03518
 20
-14.41671
 30
0.0
 10
-11.03518
 20
-14.41671
 30
0.0
 10
-11.06185
 20
-14.41671
 30
0.0
 10
-11.06185
 20
-14.41671
 30
0.0
 10
-11.06185
 20
-14.41671
 30
0.0
 10
-11.06185
 20
-14.41671
 30
0.0
 10
-11.02375
 20
-14.31384
 30
0.0
 10
-11.02375
 20
-14.31384
 30
0.0
 10
-11.02375
 20
-14.31384
 30
0.0
 10
-11.02375
 20
-14.31384
 30
0.0
 10
-10.99212
 20
-14.31384
 30
0.0
 10
-10.99212
 20
-14.31384
 30
0.0
 10
-10.99212
 20
-14.31384
 30
0.0
 10
-10.99212
 20
-14.31384
 30
0.0
 10
-10.95402
 20
-14.41671
 30
0.0
 10
-10.95402
 20
-14.41671
 30
0.0
 10
-10.95402
 20
-14.41671
 30
0.0
 10
-10.95402
 20
-14.41671
 30
0.0
 10
-10.98069
 20
-14.41671
 30
0.0
 10
-10.98069
 20
-14.41671
 30
0.0
 10
-10.98069
 20
-14.41671
 30
0.0
 10
-10.98069
 20
-14.41671
 30
0.0
 10
-10.98715
 20
-14.39799
 30
0.0
 10
-10.98715
 20
-14.39799
 30
0.0
  0
SPLINE
  5
88
330
1F
100
AcDbEntity
  8
Layer 1
 62
   250
100
AcDbSpline
210
0.0
220
0.0
230
1.0
 70
    11
 71
     3
 72
    16
 73
    12
 74
     0
 42
0.0000000001
 43
0.0000000001
 40
0.0
 40
0.0
 40
0.0
 40
0.0
 40
0.3333333333333333
 40
0.3333333333333333
 40
0.3333333333333333
 40
0.3333333333333333
 40
0.6666666666666666
 40
0.6666666666666666
 40
0.6666666666666666
 40
0.6666666666666666
 40
1.0
 40
1.0
 40
1.0
 40
1.0
 10
-11.02203
 20
-14.37889
 30
0.0
 10
-11.02203
 20
-14.37889
 30
0.0
 10
-10.99383
 20
-14.37889
 30
0.0
 10
-10.99383
 20
-14.37889
 30
0.0
 10
-10.99383
 20
-14.37889
 30
0.0
 10
-10.99383
 20
-14.37889
 30
0.0
 10
-11.0079
 20
-14.33797
 30
0.0
 10
-11.0079
 20
-14.33797
 30
0.0
 10
-11.0079
 20
-14.33797
 30
0.0
 10
-11.0079
 20
-14.33797
 30
0.0
 10
-11.02203
 20
-14.37889
 30
0.0
 10
-11.02203
 20
-14.37889
 30
0.0
  0
SPLINE
  5
89
330
1F
100
AcDbEntity
  8
Layer 1
 62
   250
100
AcDbSpline
210
0.0
220
0.0
230
1.0
 70
    11
 71
     3
 72
    56
 73
    52
 74
     0
 42
0.0000000001
 43
0.0000000001
 40
0.0
 40
0.0
 40
0.0
 40
0.0
 40
0.0769230769230769
 40
0.0769230769230769
 40
0.0769230769230769
 40
0.0769230769230769
 40
0.1538461538461539
 40
0.1538461538461539
 40
0.1538461538461539
 40
0.1538461538461539
 40
0.2307692307692308
 40
0.2307692307692308
 40
0.2307692307692308
 40
0.2307692307692308
 40
0.3076923076923077
 40
0.3076923076923077
 40
0.3076923076923077
 40
0.3076923076923077
 40
0.3846153846153846
 40
0.3846153846153846
 40
0.3846153846153846
 40
0.3846153846153846
 40
0.4615384615384616
 40
0.4615384615384616
 40
0.4615384615384616
 40
0.4615384615384616
 40
0.5384615384615385
 40
0.5384615384615385
 40
0.5384615384615385
 40
0.5384615384615385
 40
0.6153846153846154
 40
0.6153846153846154
 40
0.6153846153846154
 40
0.6153846153846154
 40
0.6923076923076923
 40
0.6923076923076923
 40
0.6923076923076923
 40
0.6923076923076923
 40
0.7692307692307692
 40
0.7692307692307692
 40
0.7692307692307692
 40
0.7692307692307692
 40
0.846153846153846
 40
0.846153846153846
 40
0.846153846153846
 40
0.846153846153846
 40
0.9230769230769229
 40
0.9230769230769229
 40
0.9230769230769229
 40
0.9230769230769229
 40
1.0
 40
1.0
 40
1.0
 40
1.0
 10
-10.94035
 20
-14.31384
 30
0.0
 10
-10.94035
 20
-14.31384
 30
0.0
 10
-10.9066
 20
-14.31384
 30
0.0
 10
-10.9066
 20
-14.31384
 30
0.0
 10
-10.9066
 20
-14.31384
 30
0.0
 10
-10.9066
 20
-14.31384
 30
0.0
 10
-10.88315
 20
-14.3689
 30
0.0
 10
-10.88315
 20
-14.3689
 30
0.0
 10
-10.88315
 20
-14.3689
 30
0.0
 10
-10.88315
 20
-14.3689
 30
0.0
 10
-10.85959
 20
-14.31384
 30
0.0
 10
-10.85959
 20
-14.31384
 30
0.0
 10
-10.85959
 20
-14.31384
 30
0.0
 10
-10.85959
 20
-14.31384
 30
0.0
 10
-10.82591
 20
-14.31384
 30
0.0
 10
-10.82591
 20
-14.31384
 30
0.0
 10
-10.82591
 20
-14.31384
 30
0.0
 10
-10.82591
 20
-14.31384
 30
0.0
 10
-10.82591
 20
-14.41671
 30
0.0
 10
-10.82591
 20
-14.41671
 30
0.0
 10
-10.82591
 20
-14.41671
 30
0.0
 10
-10.82591
 20
-14.41671
 30
0.0
 10
-10.85098
 20
-14.41671
 30
0.0
 10
-10.85098
 20
-14.41671
 30
0.0
 10
-10.85098
 20
-14.41671
 30
0.0
 10
-10.85098
 20
-14.41671
 30
0.0
 10
-10.85098
 20
-14.34147
 30
0.0
 10
-10.85098
 20
-14.34147
 30
0.0
 10
-10.85098
 20
-14.34147
 30
0.0
 10
-10.85098
 20
-14.34147
 30
0.0
 10
-10.87469
 20
-14.39693
 30
0.0
 10
-10.87469
 20
-14.39693
 30
0.0
 10
-10.87469
 20
-14.39693
 30
0.0
 10
-10.87469
 20
-14.39693
 30
0.0
 10
-10.8915
 20
-14.39693
 30
0.0
 10
-10.8915
 20
-14.39693
 30
0.0
 10
-10.8915
 20
-14.39693
 30
0.0
 10
-10.8915
 20
-14.39693
 30
0.0
 10
-10.91521
 20
-14.34147
 30
0.0
 10
-10.91521
 20
-14.34147
 30
0.0
 10
-10.91521
 20
-14.34147
 30
0.0
 10
-10.91521
 20
-14.34147
 30
0.0
 10
-10.91521
 20
-14.41671
 30
0.0
 10
-10.91521
 20
-14.41671
 30
0.0
 10
-10.91521
 20
-14.41671
 30
0.0
 10
-10.91521
 20
-14.41671
 30
0.0
 10
-10.94035
 20
-14.41671
 30
0.0
 10
-10.94035
 20
-14.41671
 30
0.0
 10
-10.94035
 20
-14.41671
 30
0.0
 10
-10.94035
 20
-14.41671
 30
0.0
 10
-10.94035
 20
-14.31384
 30
0.0
 10
-10.94035
 20
-14.31384
 30
0.0
  0
SPLINE
  5
8A
330
1F
100
AcDbEntity
  8
Layer 1
 62
   250
100
AcDbSpline
210
0.0
220
0.0
230
1.0
 70
    11
 71
     3
 72
    20
 73
    16
 74
     0
 42
0.0000000001
 43
0.0000000001
 40
0.0
 40
0.0
 40
0.0
 40
0.0
 40
0.25
 40
0.25
 40
0.25
 40
0.25
 40
0.5
 40
0.5
 40
0.5
 40
0.5
 40
0.75
 40
0.75
 40
0.75
 40
0.75
 40
1.0
 40
1.0
 40
1.0
 40
1.0
 10
-10.79992
 20
-14.31384
 30
0.0
 10
-10.79992
 20
-14.31384
 30
0.0
 10
-10.77339
 20
-14.31384
 30
0.0
 10
-10.77339
 20
-14.31384
 30
0.0
 10
-10.77339
 20
-14.31384
 30
0.0
 10
-10.77339
 20
-14.31384
 30
0.0
 10
-10.77339
 20
-14.41671
 30
0.0
 10
-10.77339
 20
-14.41671
 30
0.0
 10
-10.77339
 20
-14.41671
 30
0.0
 10
-10.77339
 20
-14.41671
 30
0.0
 10
-10.79992
 20
-14.41671
 30
0.0
 10
-10.79992
 20
-14.41671
 30
0.0
 10
-10.79992
 20
-14.41671
 30
0.0
 10
-10.79992
 20
-14.41671
 30
0.0
 10
-10.79992
 20
-14.31384
 30
0.0
 10
-10.79992
 20
-14.31384
 30
0.0
  0
SPLINE
  5
8B
330
1F
100
AcDbEntity
  8
Layer 1
 62
   250
100
AcDbSpline
210
0.0
220
0.0
230
1.0
 70
    11
 71
     3
 72
    76
 73
    72
 74
     0
 42
0.0000000001
 43
0.0000000001
 40
0.0
 40
0.0
 40
0.0
 40
0.0
 40
0.0555555555555556
 40
0.0555555555555556
 40
0.0555555555555556
 40
0.0555555555555556
 40
0.1111111111111111
 40
0.1111111111111111
 40
0.1111111111111111
 40
0.1111111111111111
 40
0.1666666666666667
 40
0.1666666666666667
 40
0.1666666666666667
 40
0.1666666666666667
 40
0.2222222222222222
 40
0.2222222222222222
 40
0.2222222222222222
 40
0.2222222222222222
 40
0.2777777777777778
 40
0.2777777777777778
 40
0.2777777777777778
 40
0.2777777777777778
 40
0.3333333333333334
 40
0.3333333333333334
 40
0.3333333333333334
 40
0.3333333333333334
 40
0.388888888888889
 40
0.388888888888889
 40
0.388888888888889
 40
0.388888888888889
 40
0.4444444444444445
 40
0.4444444444444445
 40
0.4444444444444445
 40
0.4444444444444445
 40
0.5000000000000001
 40
0.5000000000000001
 40
0.5000000000000001
 40
0.5000000000000001
 40
0.5555555555555557
 40
0.5555555555555557
 40
0.5555555555555557
 40
0.5555555555555557
 40
0.6111111111111113
 40
0.6111111111111113
 40
0.6111111111111113
 40
0.6111111111111113
 40
0.6666666666666669
 40
0.6666666666666669
 40
0.6666666666666669
 40
0.6666666666666669
 40
0.7222222222222224
 40
0.7222222222222224
 40
0.7222222222222224
 40
0.7222222222222224
 40
0.777777777777778
 40
0.777777777777778
 40
0.777777777777778
 40
0.777777777777778
 40
0.8333333333333336
 40
0.8333333333333336
 40
0.8333333333333336
 40
0.8333333333333336
 40
0.8888888888888892
 40
0.8888888888888892
 40
0.8888888888888892
 40
0.8888888888888892
 40
0.9444444444444448
 40
0.9444444444444448
 40
0.9444444444444448
 40
0.9444444444444448
 40
1.0
 40
1.0
 40
1.0
 40
1.0
 10
-10.66585
 20
-14.41107
 30
0.0
 10
-10.67071
 20
-14.41358
 30
0.0
 10
-10.67579
 20
-14.41549
 30
0.0
 10
-10.68109
 20
-14.41678
 30
0.0
 10
-10.68109
 20
-14.41678
 30
0.0
 10
-10.68635
 20
-14.41807
 30
0.0
 10
-10.69188
 20
-14.41871
 30
0.0
 10
-10.69762
 20
-14.41871
 30
0.0
 10
-10.69762
 20
-14.41871
 30
0.0
 10
-10.71474
 20
-14.41871
 30
0.0
 10
-10.72831
 20
-14.41391
 30
0.0
 10
-10.73833
 20
-14.40434
 30
0.0
 10
-10.73833
 20
-14.40434
 30
0.0
 10
-10.74835
 20
-14.39477
 30
0.0
 10
-10.75336
 20
-14.38179
 30
0.0
 10
-10.75336
 20
-14.36537
 30
0.0
 10
-10.75336
 20
-14.36537
 30
0.0
 10
-10.75336
 20
-14.34893
 30
0.0
 10
-10.74835
 20
-14.33592
 30
0.0
 10
-10.73833
 20
-14.32635
 30
0.0
 10
-10.73833
 20
-14.32635
 30
0.0
 10
-10.72831
 20
-14.31678
 30
0.0
 10
-10.71474
 20
-14.31198
 30
0.0
 10
-10.69762
 20
-14.31198
 30
0.0
 10
-10.69762
 20
-14.31198
 30
0.0
 10
-10.69188
 20
-14.31198
 30
0.0
 10
-10.68635
 20
-14.31262
 30
0.0
 10
-10.68109
 20
-14.31391
 30
0.0
 10
-10.68109
 20
-14.31391
 30
0.0
 10
-10.67579
 20
-14.3152
 30
0.0
 10
-10.67071
 20
-14.31711
 30
0.0
 10
-10.66585
 20
-14.31963
 30
0.0
 10
-10.66585
 20
-14.31963
 30
0.0
 10
-10.66585
 20
-14.31963
 30
0.0
 10
-10.66585
 20
-14.34091
 30
0.0
 10
-10.66585
 20
-14.34091
 30
0.0
 10
-10.66585
 20
-14.34091
 30
0.0
 10
-10.67076
 20
-14.33755
 30
0.0
 10
-10.67561
 20
-14.3351
 30
0.0
 10
-10.68038
 20
-14.33355
 30
0.0
 10
-10.68038
 20
-14.33355
 30
0.0
 10
-10.68515
 20
-14.33197
 30
0.0
 10
-10.69019
 20
-14.3312
 30
0.0
 10
-10.69548
 20
-14.3312
 30
0.0
 10
-10.69548
 20
-14.3312
 30
0.0
 10
-10.70493
 20
-14.3312
 30
0.0
 10
-10.71239
 20
-14.33423
 30
0.0
 10
-10.7178
 20
-14.3403
 30
0.0
 10
-10.7178
 20
-14.3403
 30
0.0
 10
-10.72323
 20
-14.34637
 30
0.0
 10
-10.72594
 20
-14.35472
 30
0.0
 10
-10.72594
 20
-14.36537
 30
0.0
 10
-10.72594
 20
-14.36537
 30
0.0
 10
-10.72594
 20
-14.376
 30
0.0
 10
-10.72323
 20
-14.38433
 30
0.0
 10
-10.7178
 20
-14.39039
 30
0.0
 10
-10.7178
 20
-14.39039
 30
0.0
 10
-10.71239
 20
-14.39646
 30
0.0
 10
-10.70493
 20
-14.39949
 30
0.0
 10
-10.69548
 20
-14.39949
 30
0.0
 10
-10.69548
 20
-14.39949
 30
0.0
 10
-10.69019
 20
-14.39949
 30
0.0
 10
-10.68515
 20
-14.39872
 30
0.0
 10
-10.68038
 20
-14.39714
 30
0.0
 10
-10.68038
 20
-14.39714
 30
0.0
 10
-10.67561
 20
-14.39559
 30
0.0
 10
-10.67076
 20
-14.39314
 30
0.0
 10
-10.66585
 20
-14.38978
 30
0.0
 10
-10.66585
 20
-14.38978
 30
0.0
 10
-10.66585
 20
-14.38978
 30
0.0
 10
-10.66585
 20
-14.41107
 30
0.0
 10
-10.66585
 20
-14.41107
 30
0.0
  0
SPLINE
  5
8C
330
1F
100
AcDbEntity
  8
Layer 1
 62
   250
100
AcDbSpline
210
0.0
220
0.0
230
1.0
 70
    11
 71
     3
 72
    32
 73
    28
 74
     0
 42
0.0000000001
 43
0.0000000001
 40
0.0
 40
0.0
 40
0.0
 40
0.0
 40
0.1428571428571428
 40
0.1428571428571428
 40
0.1428571428571428
 40
0.1428571428571428
 40
0.2857142857142857
 40
0.2857142857142857
 40
0.2857142857142857
 40
0.2857142857142857
 40
0.4285714285714285
 40
0.4285714285714285
 40
0.4285714285714285
 40
0.4285714285714285
 40
0.5714285714285714
 40
0.5714285714285714
 40
0.5714285714285714
 40
0.5714285714285714
 40
0.7142857142857142
 40
0.7142857142857142
 40
0.7142857142857142
 40
0.7142857142857142
 40
0.857142857142857
 40
0.857142857142857
 40
0.857142857142857
 40
0.857142857142857
 40
1.0
 40
1.0
 40
1.0
 40
1.0
 10
-10.55705
 20
-14.35947
 30
0.0
 10
-10.5515
 20
-14.35947
 30
0.0
 10
-10.5475
 20
-14.35843
 30
0.0
 10
-10.5451
 20
-14.35636
 30
0.0
 10
-10.5451
 20
-14.35636
 30
0.0
 10
-10.54268
 20
-14.35429
 30
0.0
 10
-10.54148
 20
-14.35088
 30
0.0
 10
-10.54148
 20
-14.34615
 30
0.0
 10
-10.54148
 20
-14.34615
 30
0.0
 10
-10.54148
 20
-14.34147
 30
0.0
 10
-10.54268
 20
-14.33811
 30
0.0
 10
-10.5451
 20
-14.33609
 30
0.0
 10
-10.5451
 20
-14.33609
 30
0.0
 10
-10.5475
 20
-14.33407
 30
0.0
 10
-10.5515
 20
-14.33306
 30
0.0
 10
-10.55705
 20
-14.33306
 30
0.0
 10
-10.55705
 20
-14.33306
 30
0.0
 10
-10.55705
 20
-14.33306
 30
0.0
 10
-10.56822
 20
-14.33306
 30
0.0
 10
-10.56822
 20
-14.33306
 30
0.0
 10
-10.56822
 20
-14.33306
 30
0.0
 10
-10.56822
 20
-14.33306
 30
0.0
 10
-10.56822
 20
-14.35947
 30
0.0
 10
-10.56822
 20
-14.35947
 30
0.0
 10
-10.56822
 20
-14.35947
 30
0.0
 10
-10.56822
 20
-14.35947
 30
0.0
 10
-10.55705
 20
-14.35947
 30
0.0
 10
-10.55705
 20
-14.35947
 30
0.0
  0
SPLINE
  5
8D
330
1F
100
AcDbEntity
  8
Layer 1
 62
   250
100
AcDbSpline
210
0.0
220
0.0
230
1.0
 70
    11
 71
     3
 72
    68
 73
    64
 74
     0
 42
0.0000000001
 43
0.0000000001
 40
0.0
 40
0.0
 40
0.0
 40
0.0
 40
0.0625
 40
0.0625
 40
0.0625
 40
0.0625
 40
0.125
 40
0.125
 40
0.125
 40
0.125
 40
0.1875
 40
0.1875
 40
0.1875
 40
0.1875
 40
0.25
 40
0.25
 40
0.25
 40
0.25
 40
0.3125
 40
0.3125
 40
0.3125
 40
0.3125
 40
0.375
 40
0.375
 40
0.375
 40
0.375
 40
0.4375
 40
0.4375
 40
0.4375
 40
0.4375
 40
0.5
 40
0.5
 40
0.5
 40
0.5
 40
0.5625
 40
0.5625
 40
0.5625
 40
0.5625
 40
0.625
 40
0.625
 40
0.625
 40
0.625
 40
0.6875
 40
0.6875
 40
0.6875
 40
0.6875
 40
0.75
 40
0.75
 40
0.75
 40
0.75
 40
0.8125
 40
0.8125
 40
0.8125
 40
0.8125
 40
0.875
 40
0.875
 40
0.875
 40
0.875
 40
0.9375
 40
0.9375
 40
0.9375
 40
0.9375
 40
1.0
 40
1.0
 40
1.0
 40
1.0
 10
-10.56822
 20
-14.37779
 30
0.0
 10
-10.56822
 20
-14.37779
 30
0.0
 10
-10.56822
 20
-14.41671
 30
0.0
 10
-10.56822
 20
-14.41671
 30
0.0
 10
-10.56822
 20
-14.41671
 30
0.0
 10
-10.56822
 20
-14.41671
 30
0.0
 10
-10.59475
 20
-14.41671
 30
0.0
 10
-10.59475
 20
-14.41671
 30
0.0
 10
-10.59475
 20
-14.41671
 30
0.0
 10
-10.59475
 20
-14.41671
 30
0.0
 10
-10.59475
 20
-14.31384
 30
0.0
 10
-10.59475
 20
-14.31384
 30
0.0
 10
-10.59475
 20
-14.31384
 30
0.0
 10
-10.59475
 20
-14.31384
 30
0.0
 10
-10.55423
 20
-14.31384
 30
0.0
 10
-10.55423
 20
-14.31384
 30
0.0
 10
-10.55423
 20
-14.31384
 30
0.0
 10
-10.54068
 20
-14.31384
 30
0.0
 10
-10.53073
 20
-14.31612
 30
0.0
 10
-10.52443
 20
-14.32066
 30
0.0
 10
-10.52443
 20
-14.32066
 30
0.0
 10
-10.51811
 20
-14.3252
 30
0.0
 10
-10.51495
 20
-14.3324
 30
0.0
 10
-10.51495
 20
-14.34223
 30
0.0
 10
-10.51495
 20
-14.34223
 30
0.0
 10
-10.51495
 20
-14.34902
 30
0.0
 10
-10.5166
 20
-14.35462
 30
0.0
 10
-10.51987
 20
-14.35897
 30
0.0
 10
-10.51987
 20
-14.35897
 30
0.0
 10
-10.52316
 20
-14.36335
 30
0.0
 10
-10.52812
 20
-14.36657
 30
0.0
 10
-10.53473
 20
-14.36862
 30
0.0
 10
-10.53473
 20
-14.36862
 30
0.0
 10
-10.53111
 20
-14.36946
 30
0.0
 10
-10.52784
 20
-14.37132
 30
0.0
 10
-10.52497
 20
-14.37424
 30
0.0
 10
-10.52497
 20
-14.37424
 30
0.0
 10
-10.5221
 20
-14.37715
 30
0.0
 10
-10.51921
 20
-14.38157
 30
0.0
 10
-10.51627
 20
-14.3875
 30
0.0
 10
-10.51627
 20
-14.3875
 30
0.0
 10
-10.51627
 20
-14.3875
 30
0.0
 10
-10.50185
 20
-14.41671
 30
0.0
 10
-10.50185
 20
-14.41671
 30
0.0
 10
-10.50185
 20
-14.41671
 30
0.0
 10
-10.50185
 20
-14.41671
 30
0.0
 10
-10.53012
 20
-14.41671
 30
0.0
 10
-10.53012
 20
-14.41671
 30
0.0
 10
-10.53012
 20
-14.41671
 30
0.0
 10
-10.53012
 20
-14.41671
 30
0.0
 10
-10.54266
 20
-14.39115
 30
0.0
 10
-10.54266
 20
-14.39115
 30
0.0
 10
-10.54266
 20
-14.39115
 30
0.0
 10
-10.54517
 20
-14.38602
 30
0.0
 10
-10.54774
 20
-14.38249
 30
0.0
 10
-10.55035
 20
-14.38061
 30
0.0
 10
-10.55035
 20
-14.38061
 30
0.0
 10
-10.55294
 20
-14.37873
 30
0.0
 10
-10.55639
 20
-14.37779
 30
0.0
 10
-10.56072
 20
-14.37779
 30
0.0
 10
-10.56072
 20
-14.37779
 30
0.0
 10
-10.56072
 20
-14.37779
 30
0.0
 10
-10.56822
 20
-14.37779
 30
0.0
 10
-10.56822
 20
-14.37779
 30
0.0
  0
SPLINE
  5
8E
330
1F
100
AcDbEntity
  8
Layer 1
 62
   250
100
AcDbSpline
210
0.0
220
0.0
230
1.0
 70
    11
 71
     3
 72
    52
 73
    48
 74
     0
 42
0.0000000001
 43
0.0000000001
 40
0.0
 40
0.0
 40
0.0
 40
0.0
 40
0.0833333333333333
 40
0.0833333333333333
 40
0.0833333333333333
 40
0.0833333333333333
 40
0.1666666666666667
 40
0.1666666666666667
 40
0.1666666666666667
 40
0.1666666666666667
 40
0.25
 40
0.25
 40
0.25
 40
0.25
 40
0.3333333333333333
 40
0.3333333333333333
 40
0.3333333333333333
 40
0.3333333333333333
 40
0.4166666666666666
 40
0.4166666666666666
 40
0.4166666666666666
 40
0.4166666666666666
 40
0.4999999999999999
 40
0.4999999999999999
 40
0.4999999999999999
 40
0.4999999999999999
 40
0.5833333333333333
 40
0.5833333333333333
 40
0.5833333333333333
 40
0.5833333333333333
 40
0.6666666666666666
 40
0.6666666666666666
 40
0.6666666666666666
 40
0.6666666666666666
 40
0.75
 40
0.75
 40
0.75
 40
0.75
 40
0.8333333333333334
 40
0.8333333333333334
 40
0.8333333333333334
 40
0.8333333333333334
 40
0.9166666666666667
 40
0.9166666666666667
 40
0.9166666666666667
 40
0.9166666666666667
 40
1.0
 40
1.0
 40
1.0
 40
1.0
 10
-10.4861
 20
-14.31384
 30
0.0
 10
-10.4861
 20
-14.31384
 30
0.0
 10
-10.41451
 20
-14.31384
 30
0.0
 10
-10.41451
 20
-14.31384
 30
0.0
 10
-10.41451
 20
-14.31384
 30
0.0
 10
-10.41451
 20
-14.31384
 30
0.0
 10
-10.41451
 20
-14.3339
 30
0.0
 10
-10.41451
 20
-14.3339
 30
0.0
 10
-10.41451
 20
-14.3339
 30
0.0
 10
-10.41451
 20
-14.3339
 30
0.0
 10
-10.45957
 20
-14.3339
 30
0.0
 10
-10.45957
 20
-14.3339
 30
0.0
 10
-10.45957
 20
-14.3339
 30
0.0
 10
-10.45957
 20
-14.3339
 30
0.0
 10
-10.45957
 20
-14.35305
 30
0.0
 10
-10.45957
 20
-14.35305
 30
0.0
 10
-10.45957
 20
-14.35305
 30
0.0
 10
-10.45957
 20
-14.35305
 30
0.0
 10
-10.41722
 20
-14.35305
 30
0.0
 10
-10.41722
 20
-14.35305
 30
0.0
 10
-10.41722
 20
-14.35305
 30
0.0
 10
-10.41722
 20
-14.35305
 30
0.0
 10
-10.41722
 20
-14.37311
 30
0.0
 10
-10.41722
 20
-14.37311
 30
0.0
 10
-10.41722
 20
-14.37311
 30
0.0
 10
-10.41722
 20
-14.37311
 30
0.0
 10
-10.45957
 20
-14.37311
 30
0.0
 10
-10.45957
 20
-14.37311
 30
0.0
 10
-10.45957
 20
-14.37311
 30
0.0
 10
-10.45957
 20
-14.37311
 30
0.0
 10
-10.45957
 20
-14.39665
 30
0.0
 10
-10.45957
 20
-14.39665
 30
0.0
 10
-10.45957
 20
-14.39665
 30
0.0
 10
-10.45957
 20
-14.39665
 30
0.0
 10
-10.41301
 20
-14.39665
 30
0.0
 10
-10.41301
 20
-14.39665
 30
0.0
 10
-10.41301
 20
-14.39665
 30
0.0
 10
-10.41301
 20
-14.39665
 30
0.0
 10
-10.41301
 20
-14.41671
 30
0.0
 10
-10.41301
 20
-14.41671
 30
0.0
 10
-10.41301
 20
-14.41671
 30
0.0
 10
-10.41301
 20
-14.41671
 30
0.0
 10
-10.4861
 20
-14.41671
 30
0.0
 10
-10.4861
 20
-14.41671
 30
0.0
 10
-10.4861
 20
-14.41671
 30
0.0
 10
-10.4861
 20
-14.41671
 30
0.0
 10
-10.4861
 20
-14.31384
 30
0.0
 10
-10.4861
 20
-14.31384
 30
0.0
  0
SPLINE
  5
8F
330
1F
100
AcDbEntity
  8
Layer 1
 62
   250
100
AcDbSpline
210
0.0
220
0.0
230
1.0
 70
    11
 71
     3
 72
   116
 73
   112
 74
     0
 42
0.0000000001
 43
0.0000000001
 40
0.0
 40
0.0
 40
0.0
 40
0.0
 40
0.0357142857142857
 40
0.0357142857142857
 40
0.0357142857142857
 40
0.0357142857142857
 40
0.0714285714285714
 40
0.0714285714285714
 40
0.0714285714285714
 40
0.0714285714285714
 40
0.1071428571428571
 40
0.1071428571428571
 40
0.1071428571428571
 40
0.1071428571428571
 40
0.1428571428571428
 40
0.1428571428571428
 40
0.1428571428571428
 40
0.1428571428571428
 40
0.1785714285714285
 40
0.1785714285714285
 40
0.1785714285714285
 40
0.1785714285714285
 40
0.2142857142857142
 40
0.2142857142857142
 40
0.2142857142857142
 40
0.2142857142857142
 40
0.2499999999999999
 40
0.2499999999999999
 40
0.2499999999999999
 40
0.2499999999999999
 40
0.2857142857142856
 40
0.2857142857142856
 40
0.2857142857142856
 40
0.2857142857142856
 40
0.3214285714285713
 40
0.3214285714285713
 40
0.3214285714285713
 40
0.3214285714285713
 40
0.357142857142857
 40
0.357142857142857
 40
0.357142857142857
 40
0.357142857142857
 40
0.3928571428571427
 40
0.3928571428571427
 40
0.3928571428571427
 40
0.3928571428571427
 40
0.4285714285714284
 40
0.4285714285714284
 40
0.4285714285714284
 40
0.4285714285714284
 40
0.4642857142857141
 40
0.4642857142857141
 40
0.4642857142857141
 40
0.4642857142857141
 40
0.4999999999999998
 40
0.4999999999999998
 40
0.4999999999999998
 40
0.4999999999999998
 40
0.5357142857142856
 40
0.5357142857142856
 40
0.5357142857142856
 40
0.5357142857142856
 40
0.5714285714285713
 40
0.5714285714285713
 40
0.5714285714285713
 40
0.5714285714285713
 40
0.607142857142857
 40
0.607142857142857
 40
0.607142857142857
 40
0.607142857142857
 40
0.6428571428571427
 40
0.6428571428571427
 40
0.6428571428571427
 40
0.6428571428571427
 40
0.6785714285714284
 40
0.6785714285714284
 40
0.6785714285714284
 40
0.6785714285714284
 40
0.7142857142857141
 40
0.7142857142857141
 40
0.7142857142857141
 40
0.7142857142857141
 40
0.7499999999999998
 40
0.7499999999999998
 40
0.7499999999999998
 40
0.7499999999999998
 40
0.7857142857142855
 40
0.7857142857142855
 40
0.7857142857142855
 40
0.7857142857142855
 40
0.8214285714285712
 40
0.8214285714285712
 40
0.8214285714285712
 40
0.8214285714285712
 40
0.8571428571428569
 40
0.8571428571428569
 40
0.8571428571428569
 40
0.8571428571428569
 40
0.8928571428571426
 40
0.8928571428571426
 40
0.8928571428571426
 40
0.8928571428571426
 40
0.9285714285714283
 40
0.9285714285714283
 40
0.9285714285714283
 40
0.9285714285714283
 40
0.964285714285714
 40
0.964285714285714
 40
0.964285714285714
 40
0.964285714285714
 40
1.0
 40
1.0
 40
1.0
 40
1.0
 10
-10.31811
 20
-14.31709
 30
0.0
 10
-10.31811
 20
-14.31709
 30
0.0
 10
-10.31811
 20
-14.33884
 30
0.0
 10
-10.31811
 20
-14.33884
 30
0.0
 10
-10.31811
 20
-14.33884
 30
0.0
 10
-10.32376
 20
-14.33632
 30
0.0
 10
-10.32928
 20
-14.33442
 30
0.0
 10
-10.33464
 20
-14.33313
 30
0.0
 10
-10.33464
 20
-14.33313
 30
0.0
 10
-10.34003
 20
-14.33183
 30
0.0
 10
-10.34511
 20
-14.3312
 30
0.0
 10
-10.34988
 20
-14.3312
 30
0.0
 10
-10.34988
 20
-14.3312
 30
0.0
 10
-10.35621
 20
-14.3312
 30
0.0
 10
-10.36091
 20
-14.33207
 30
0.0
 10
-10.36395
 20
-14.33381
 30
0.0
 10
-10.36395
 20
-14.33381
 30
0.0
 10
-10.36698
 20
-14.33557
 30
0.0
 10
-10.36849
 20
-14.33828
 30
0.0
 10
-10.36849
 20
-14.34195
 30
0.0
 10
-10.36849
 20
-14.34195
 30
0.0
 10
-10.36849
 20
-14.3447
 30
0.0
 10
-10.36748
 20
-14.34686
 30
0.0
 10
-10.36543
 20
-14.34839
 30
0.0
 10
-10.36543
 20
-14.34839
 30
0.0
 10
-10.36338
 20
-14.34992
 30
0.0
 10
-10.35967
 20
-14.35126
 30
0.0
 10
-10.35428
 20
-14.35236
 30
0.0
 10
-10.35428
 20
-14.35236
 30
0.0
 10
-10.35428
 20
-14.35236
 30
0.0
 10
-10.34299
 20
-14.35462
 30
0.0
 10
-10.34299
 20
-14.35462
 30
0.0
 10
-10.34299
 20
-14.35462
 30
0.0
 10
-10.33154
 20
-14.35693
 30
0.0
 10
-10.32343
 20
-14.36041
 30
0.0
 10
-10.31861
 20
-14.36511
 30
0.0
 10
-10.31861
 20
-14.36511
 30
0.0
 10
-10.31378
 20
-14.36979
 30
0.0
 10
-10.31136
 20
-14.37645
 30
0.0
 10
-10.31136
 20
-14.38508
 30
0.0
 10
-10.31136
 20
-14.38508
 30
0.0
 10
-10.31136
 20
-14.39644
 30
0.0
 10
-10.31472
 20
-14.40488
 30
0.0
 10
-10.32145
 20
-14.41041
 30
0.0
 10
-10.32145
 20
-14.41041
 30
0.0
 10
-10.32818
 20
-14.41593
 30
0.0
 10
-10.33845
 20
-14.41871
 30
0.0
 10
-10.35228
 20
-14.41871
 30
0.0
 10
-10.35228
 20
-14.41871
 30
0.0
 10
-10.35882
 20
-14.41871
 30
0.0
 10
-10.36536
 20
-14.4181
 30
0.0
 10
-10.37192
 20
-14.41685
 30
0.0
 10
-10.37192
 20
-14.41685
 30
0.0
 10
-10.37848
 20
-14.4156
 30
0.0
 10
-10.38507
 20
-14.41377
 30
0.0
 10
-10.39163
 20
-14.41135
 30
0.0
 10
-10.39163
 20
-14.41135
 30
0.0
 10
-10.39163
 20
-14.41135
 30
0.0
 10
-10.39163
 20
-14.38896
 30
0.0
 10
-10.39163
 20
-14.38896
 30
0.0
 10
-10.39163
 20
-14.38896
 30
0.0
 10
-10.38507
 20
-14.39244
 30
0.0
 10
-10.37872
 20
-14.39507
 30
0.0
 10
-10.37258
 20
-14.39684
 30
0.0
 10
-10.37258
 20
-14.39684
 30
0.0
 10
-10.36644
 20
-14.3986
 30
0.0
 10
-10.36054
 20
-14.39949
 30
0.0
 10
-10.35485
 20
-14.39949
 30
0.0
 10
-10.35485
 20
-14.39949
 30
0.0
 10
-10.34906
 20
-14.39949
 30
0.0
 10
-10.34462
 20
-14.39853
 30
0.0
 10
-10.34154
 20
-14.3966
 30
0.0
 10
-10.34154
 20
-14.3966
 30
0.0
 10
-10.33845
 20
-14.39467
 30
0.0
 10
-10.33693
 20
-14.39192
 30
0.0
 10
-10.33693
 20
-14.38832
 30
0.0
 10
-10.33693
 20
-14.38832
 30
0.0
 10
-10.33693
 20
-14.38512
 30
0.0
 10
-10.33796
 20
-14.38263
 30
0.0
 10
-10.34005
 20
-14.38089
 30
0.0
 10
-10.34005
 20
-14.38089
 30
0.0
 10
-10.34215
 20
-14.37915
 30
0.0
 10
-10.34631
 20
-14.37758
 30
0.0
 10
-10.35257
 20
-14.37621
 30
0.0
 10
-10.35257
 20
-14.37621
 30
0.0
 10
-10.35257
 20
-14.37621
 30
0.0
 10
-10.36284
 20
-14.37393
 30
0.0
 10
-10.36284
 20
-14.37393
 30
0.0
 10
-10.36284
 20
-14.37393
 30
0.0
 10
-10.37312
 20
-14.37172
 30
0.0
 10
-10.38065
 20
-14.36822
 30
0.0
 10
-10.3854
 20
-14.36339
 30
0.0
 10
-10.3854
 20
-14.36339
 30
0.0
 10
-10.39015
 20
-14.35857
 30
0.0
 10
-10.39252
 20
-14.35206
 30
0.0
 10
-10.39252
 20
-14.3439
 30
0.0
 10
-10.39252
 20
-14.3439
 30
0.0
 10
-10.39252
 20
-14.33364
 30
0.0
 10
-10.38921
 20
-14.32576
 30
0.0
 10
-10.3826
 20
-14.32026
 30
0.0
 10
-10.3826
 20
-14.32026
 30
0.0
 10
-10.37599
 20
-14.31473
 30
0.0
 10
-10.36649
 20
-14.31198
 30
0.0
 10
-10.35407
 20
-14.31198
 30
0.0
 10
-10.35407
 20
-14.31198
 30
0.0
 10
-10.34843
 20
-14.31198
 30
0.0
 10
-10.34262
 20
-14.31241
 30
0.0
 10
-10.33664
 20
-14.31325
 30
0.0
 10
-10.33664
 20
-14.31325
 30
0.0
 10
-10.33067
 20
-14.3141
 30
0.0
 10
-10.32449
 20
-14.31537
 30
0.0
 10
-10.31811
 20
-14.31709
 30
0.0
  0
SPLINE
  5
90
330
1F
100
AcDbEntity
  8
Layer 1
 62
   250
100
AcDbSpline
210
0.0
220
0.0
230
1.0
 70
    11
 71
     3
 72
    36
 73
    32
 74
     0
 42
0.0000000001
 43
0.0000000001
 40
0.0
 40
0.0
 40
0.0
 40
0.0
 40
0.125
 40
0.125
 40
0.125
 40
0.125
 40
0.25
 40
0.25
 40
0.25
 40
0.25
 40
0.375
 40
0.375
 40
0.375
 40
0.375
 40
0.5
 40
0.5
 40
0.5
 40
0.5
 40
0.625
 40
0.625
 40
0.625
 40
0.625
 40
0.75
 40
0.75
 40
0.75
 40
0.75
 40
0.875
 40
0.875
 40
0.875
 40
0.875
 40
1.0
 40
1.0
 40
1.0
 40
1.0
 10
-10.24109
 20
-14.3312
 30
0.0
 10
-10.24918
 20
-14.3312
 30
0.0
 10
-10.25544
 20
-14.33418
 30
0.0
 10
-10.25991
 20
-14.34016
 30
0.0
 10
-10.25991
 20
-14.34016
 30
0.0
 10
-10.26435
 20
-14.34613
 30
0.0
 10
-10.26659
 20
-14.35453
 30
0.0
 10
-10.26659
 20
-14.36537
 30
0.0
 10
-10.26659
 20
-14.36537
 30
0.0
 10
-10.26659
 20
-14.37619
 30
0.0
 10
-10.26435
 20
-14.38456
 30
0.0
 10
-10.25991
 20
-14.39053
 30
0.0
 10
-10.25991
 20
-14.39053
 30
0.0
 10
-10.25544
 20
-14.39651
 30
0.0
 10
-10.24918
 20
-14.39949
 30
0.0
 10
-10.24109
 20
-14.39949
 30
0.0
 10
-10.24109
 20
-14.39949
 30
0.0
 10
-10.23295
 20
-14.39949
 30
0.0
 10
-10.22668
 20
-14.39651
 30
0.0
 10
-10.22221
 20
-14.39053
 30
0.0
 10
-10.22221
 20
-14.39053
 30
0.0
 10
-10.21776
 20
-14.38456
 30
0.0
 10
-10.21553
 20
-14.37619
 30
0.0
 10
-10.21553
 20
-14.36537
 30
0.0
 10
-10.21553
 20
-14.36537
 30
0.0
 10
-10.21553
 20
-14.35453
 30
0.0
 10
-10.21776
 20
-14.34613
 30
0.0
 10
-10.22221
 20
-14.34016
 30
0.0
 10
-10.22221
 20
-14.34016
 30
0.0
 10
-10.22668
 20
-14.33418
 30
0.0
 10
-10.23295
 20
-14.3312
 30
0.0
 10
-10.24109
 20
-14.3312
 30
0.0
  0
SPLINE
  5
91
330
1F
100
AcDbEntity
  8
Layer 1
 62
   250
100
AcDbSpline
210
0.0
220
0.0
230
1.0
 70
    11
 71
     3
 72
    36
 73
    32
 74
     0
 42
0.0000000001
 43
0.0000000001
 40
0.0
 40
0.0
 40
0.0
 40
0.0
 40
0.125
 40
0.125
 40
0.125
 40
0.125
 40
0.25
 40
0.25
 40
0.25
 40
0.25
 40
0.375
 40
0.375
 40
0.375
 40
0.375
 40
0.5
 40
0.5
 40
0.5
 40
0.5
 40
0.625
 40
0.625
 40
0.625
 40
0.625
 40
0.75
 40
0.75
 40
0.75
 40
0.75
 40
0.875
 40
0.875
 40
0.875
 40
0.875
 40
1.0
 40
1.0
 40
1.0
 40
1.0
 10
-10.24109
 20
-14.31198
 30
0.0
 10
-10.22456
 20
-14.31198
 30
0.0
 10
-10.2116
 20
-14.31671
 30
0.0
 10
-10.20224
 20
-14.32619
 30
0.0
 10
-10.20224
 20
-14.32619
 30
0.0
 10
-10.19286
 20
-14.33564
 30
0.0
 10
-10.18818
 20
-14.34869
 30
0.0
 10
-10.18818
 20
-14.36537
 30
0.0
 10
-10.18818
 20
-14.36537
 30
0.0
 10
-10.18818
 20
-14.382
 30
0.0
 10
-10.19286
 20
-14.39505
 30
0.0
 10
-10.20224
 20
-14.4045
 30
0.0
 10
-10.20224
 20
-14.4045
 30
0.0
 10
-10.2116
 20
-14.41398
 30
0.0
 10
-10.22456
 20
-14.41871
 30
0.0
 10
-10.24109
 20
-14.41871
 30
0.0
 10
-10.24109
 20
-14.41871
 30
0.0
 10
-10.25758
 20
-14.41871
 30
0.0
 10
-10.27051
 20
-14.41398
 30
0.0
 10
-10.27992
 20
-14.4045
 30
0.0
 10
-10.27992
 20
-14.4045
 30
0.0
 10
-10.2893
 20
-14.39505
 30
0.0
 10
-10.29401
 20
-14.382
 30
0.0
 10
-10.29401
 20
-14.36537
 30
0.0
 10
-10.29401
 20
-14.36537
 30
0.0
 10
-10.29401
 20
-14.34869
 30
0.0
 10
-10.2893
 20
-14.33564
 30
0.0
 10
-10.27992
 20
-14.32619
 30
0.0
 10
-10.27992
 20
-14.32619
 30
0.0
 10
-10.27051
 20
-14.31671
 30
0.0
 10
-10.25758
 20
-14.31198
 30
0.0
 10
-10.24109
 20
-14.31198
 30
0.0
  0
SPLINE
  5
92
330
1F
100
AcDbEntity
  8
Layer 1
 62
   250
100
AcDbSpline
210
0.0
220
0.0
230
1.0
 70
    11
 71
     3
 72
    44
 73
    40
 74
     0
 42
0.0000000001
 43
0.0000000001
 40
0.0
 40
0.0
 40
0.0
 40
0.0
 40
0.1
 40
0.1
 40
0.1
 40
0.1
 40
0.2
 40
0.2
 40
0.2
 40
0.2
 40
0.3
 40
0.3
 40
0.3
 40
0.3
 40
0.4
 40
0.4
 40
0.4
 40
0.4
 40
0.5
 40
0.5
 40
0.5
 40
0.5
 40
0.6
 40
0.6
 40
0.6
 40
0.6
 40
0.7
 40
0.7
 40
0.7
 40
0.7
 40
0.7999999999999999
 40
0.7999999999999999
 40
0.7999999999999999
 40
0.7999999999999999
 40
0.8999999999999999
 40
0.8999999999999999
 40
0.8999999999999999
 40
0.8999999999999999
 40
1.0
 40
1.0
 40
1.0
 40
1.0
 10
-10.16811
 20
-14.31384
 30
0.0
 10
-10.16811
 20
-14.31384
 30
0.0
 10
-10.13848
 20
-14.31384
 30
0.0
 10
-10.13848
 20
-14.31384
 30
0.0
 10
-10.13848
 20
-14.31384
 30
0.0
 10
-10.13848
 20
-14.31384
 30
0.0
 10
-10.10106
 20
-14.3844
 30
0.0
 10
-10.10106
 20
-14.3844
 30
0.0
 10
-10.10106
 20
-14.3844
 30
0.0
 10
-10.10106
 20
-14.3844
 30
0.0
 10
-10.10106
 20
-14.31384
 30
0.0
 10
-10.10106
 20
-14.31384
 30
0.0
 10
-10.10106
 20
-14.31384
 30
0.0
 10
-10.10106
 20
-14.31384
 30
0.0
 10
-10.07592
 20
-14.31384
 30
0.0
 10
-10.07592
 20
-14.31384
 30
0.0
 10
-10.07592
 20
-14.31384
 30
0.0
 10
-10.07592
 20
-14.31384
 30
0.0
 10
-10.07592
 20
-14.41671
 30
0.0
 10
-10.07592
 20
-14.41671
 30
0.0
 10
-10.07592
 20
-14.41671
 30
0.0
 10
-10.07592
 20
-14.41671
 30
0.0
 10
-10.10555
 20
-14.41671
 30
0.0
 10
-10.10555
 20
-14.41671
 30
0.0
 10
-10.10555
 20
-14.41671
 30
0.0
 10
-10.10555
 20
-14.41671
 30
0.0
 10
-10.14297
 20
-14.34615
 30
0.0
 10
-10.14297
 20
-14.34615
 30
0.0
 10
-10.14297
 20
-14.34615
 30
0.0
 10
-10.14297
 20
-14.34615
 30
0.0
 10
-10.14297
 20
-14.41671
 30
0.0
 10
-10.14297
 20
-14.41671
 30
0.0
 10
-10.14297
 20
-14.41671
 30
0.0
 10
-10.14297
 20
-14.41671
 30
0.0
 10
-10.16811
 20
-14.41671
 30
0.0
 10
-10.16811
 20
-14.41671
 30
0.0
 10
-10.16811
 20
-14.41671
 30
0.0
 10
-10.16811
 20
-14.41671
 30
0.0
 10
-10.16811
 20
-14.31384
 30
0.0
 10
-10.16811
 20
-14.31384
 30
0.0
  0
SPLINE
  5
93
330
1F
100
AcDbEntity
  8
Layer 1
 62
   250
100
AcDbSpline
210
0.0
220
0.0
230
1.0
 70
    11
 71
     3
 72
    36
 73
    32
 74
     0
 42
0.0000000001
 43
0.0000000001
 40
0.0
 40
0.0
 40
0.0
 40
0.0
 40
0.125
 40
0.125
 40
0.125
 40
0.125
 40
0.25
 40
0.25
 40
0.25
 40
0.25
 40
0.375
 40
0.375
 40
0.375
 40
0.375
 40
0.5
 40
0.5
 40
0.5
 40
0.5
 40
0.625
 40
0.625
 40
0.625
 40
0.625
 40
0.75
 40
0.75
 40
0.75
 40
0.75
 40
0.875
 40
0.875
 40
0.875
 40
0.875
 40
1.0
 40
1.0
 40
1.0
 40
1.0
 10
-9.9876
 20
-14.39799
 30
0.0
 10
-9.9876
 20
-14.39799
 30
0.0
 10
-10.02909
 20
-14.39799
 30
0.0
 10
-10.02909
 20
-14.39799
 30
0.0
 10
-10.02909
 20
-14.39799
 30
0.0
 10
-10.02909
 20
-14.39799
 30
0.0
 10
-10.03563
 20
-14.41671
 30
0.0
 10
-10.03563
 20
-14.41671
 30
0.0
 10
-10.03563
 20
-14.41671
 30
0.0
 10
-10.03563
 20
-14.41671
 30
0.0
 10
-10.0623
 20
-14.41671
 30
0.0
 10
-10.0623
 20
-14.41671
 30
0.0
 10
-10.0623
 20
-14.41671
 30
0.0
 10
-10.0623
 20
-14.41671
 30
0.0
 10
-10.0242
 20
-14.31384
 30
0.0
 10
-10.0242
 20
-14.31384
 30
0.0
 10
-10.0242
 20
-14.31384
 30
0.0
 10
-10.0242
 20
-14.31384
 30
0.0
 10
-9.99257
 20
-14.31384
 30
0.0
 10
-9.99257
 20
-14.31384
 30
0.0
 10
-9.99257
 20
-14.31384
 30
0.0
 10
-9.99257
 20
-14.31384
 30
0.0
 10
-9.95447
 20
-14.41671
 30
0.0
 10
-9.95447
 20
-14.41671
 30
0.0
 10
-9.95447
 20
-14.41671
 30
0.0
 10
-9.95447
 20
-14.41671
 30
0.0
 10
-9.98114
 20
-14.41671
 30
0.0
 10
-9.98114
 20
-14.41671
 30
0.0
 10
-9.98114
 20
-14.41671
 30
0.0
 10
-9.98114
 20
-14.41671
 30
0.0
 10
-9.9876
 20
-14.39799
 30
0.0
 10
-9.9876
 20
-14.39799
 30
0.0
  0
SPLINE
  5
94
330
1F
100
AcDbEntity
  8
Layer 1
 62
   250
100
AcDbSpline
210
0.0
220
0.0
230
1.0
 70
    11
 71
     3
 72
    16
 73
    12
 74
     0
 42
0.0000000001
 43
0.0000000001
 40
0.0
 40
0.0
 40
0.0
 40
0.0
 40
0.3333333333333333
 40
0.3333333333333333
 40
0.3333333333333333
 40
0.3333333333333333
 40
0.6666666666666666
 40
0.6666666666666666
 40
0.6666666666666666
 40
0.6666666666666666
 40
1.0
 40
1.0
 40
1.0
 40
1.0
 10
-10.02248
 20
-14.37889
 30
0.0
 10
-10.02248
 20
-14.37889
 30
0.0
 10
-9.99428
 20
-14.37889
 30
0.0
 10
-9.99428
 20
-14.37889
 30
0.0
 10
-9.99428
 20
-14.37889
 30
0.0
 10
-9.99428
 20
-14.37889
 30
0.0
 10
-10.00835
 20
-14.33797
 30
0.0
 10
-10.00835
 20
-14.33797
 30
0.0
 10
-10.00835
 20
-14.33797
 30
0.0
 10
-10.00835
 20
-14.33797
 30
0.0
 10
-10.02248
 20
-14.37889
 30
0.0
 10
-10.02248
 20
-14.37889
 30
0.0
  0
SPLINE
  5
95
330
1F
100
AcDbEntity
  8
Layer 1
 62
   250
100
AcDbSpline
210
0.0
220
0.0
230
1.0
 70
    11
 71
     3
 72
    36
 73
    32
 74
     0
 42
0.0000000001
 43
0.0000000001
 40
0.0
 40
0.0
 40
0.0
 40
0.0
 40
0.125
 40
0.125
 40
0.125
 40
0.125
 40
0.25
 40
0.25
 40
0.25
 40
0.25
 40
0.375
 40
0.375
 40
0.375
 40
0.375
 40
0.5
 40
0.5
 40
0.5
 40
0.5
 40
0.625
 40
0.625
 40
0.625
 40
0.625
 40
0.75
 40
0.75
 40
0.75
 40
0.75
 40
0.875
 40
0.875
 40
0.875
 40
0.875
 40
1.0
 40
1.0
 40
1.0
 40
1.0
 10
-9.95308
 20
-14.31384
 30
0.0
 10
-9.95308
 20
-14.31384
 30
0.0
 10
-9.85828
 20
-14.31384
 30
0.0
 10
-9.85828
 20
-14.31384
 30
0.0
 10
-9.85828
 20
-14.31384
 30
0.0
 10
-9.85828
 20
-14.31384
 30
0.0
 10
-9.85828
 20
-14.3339
 30
0.0
 10
-9.85828
 20
-14.3339
 30
0.0
 10
-9.85828
 20
-14.3339
 30
0.0
 10
-9.85828
 20
-14.3339
 30
0.0
 10
-9.89238
 20
-14.3339
 30
0.0
 10
-9.89238
 20
-14.3339
 30
0.0
 10
-9.89238
 20
-14.3339
 30
0.0
 10
-9.89238
 20
-14.3339
 30
0.0
 10
-9.89238
 20
-14.41671
 30
0.0
 10
-9.89238
 20
-14.41671
 30
0.0
 10
-9.89238
 20
-14.41671
 30
0.0
 10
-9.89238
 20
-14.41671
 30
0.0
 10
-9.91891
 20
-14.41671
 30
0.0
 10
-9.91891
 20
-14.41671
 30
0.0
 10
-9.91891
 20
-14.41671
 30
0.0
 10
-9.91891
 20
-14.41671
 30
0.0
 10
-9.91891
 20
-14.3339
 30
0.0
 10
-9.91891
 20
-14.3339
 30
0.0
 10
-9.91891
 20
-14.3339
 30
0.0
 10
-9.91891
 20
-14.3339
 30
0.0
 10
-9.95308
 20
-14.3339
 30
0.0
 10
-9.95308
 20
-14.3339
 30
0.0
 10
-9.95308
 20
-14.3339
 30
0.0
 10
-9.95308
 20
-14.3339
 30
0.0
 10
-9.95308
 20
-14.31384
 30
0.0
 10
-9.95308
 20
-14.31384
 30
0.0
  0
SPLINE
  5
96
330
1F
100
AcDbEntity
  8
Layer 1
 62
   250
100
AcDbSpline
210
0.0
220
0.0
230
1.0
 70
    11
 71
     3
 72
    36
 73
    32
 74
     0
 42
0.0000000001
 43
0.0000000001
 40
0.0
 40
0.0
 40
0.0
 40
0.0
 40
0.125
 40
0.125
 40
0.125
 40
0.125
 40
0.25
 40
0.25
 40
0.25
 40
0.25
 40
0.375
 40
0.375
 40
0.375
 40
0.375
 40
0.5
 40
0.5
 40
0.5
 40
0.5
 40
0.625
 40
0.625
 40
0.625
 40
0.625
 40
0.75
 40
0.75
 40
0.75
 40
0.75
 40
0.875
 40
0.875
 40
0.875
 40
0.875
 40
1.0
 40
1.0
 40
1.0
 40
1.0
 10
-9.79755
 20
-14.3312
 30
0.0
 10
-9.80564
 20
-14.3312
 30
0.0
 10
-9.8119
 20
-14.33418
 30
0.0
 10
-9.81637
 20
-14.34016
 30
0.0
 10
-9.81637
 20
-14.34016
 30
0.0
 10
-9.82081
 20
-14.34613
 30
0.0
 10
-9.82305
 20
-14.35453
 30
0.0
 10
-9.82305
 20
-14.36537
 30
0.0
 10
-9.82305
 20
-14.36537
 30
0.0
 10
-9.82305
 20
-14.37619
 30
0.0
 10
-9.82081
 20
-14.38456
 30
0.0
 10
-9.81637
 20
-14.39053
 30
0.0
 10
-9.81637
 20
-14.39053
 30
0.0
 10
-9.8119
 20
-14.39651
 30
0.0
 10
-9.80564
 20
-14.39949
 30
0.0
 10
-9.79755
 20
-14.39949
 30
0.0
 10
-9.79755
 20
-14.39949
 30
0.0
 10
-9.78941
 20
-14.39949
 30
0.0
 10
-9.78314
 20
-14.39651
 30
0.0
 10
-9.77867
 20
-14.39053
 30
0.0
 10
-9.77867
 20
-14.39053
 30
0.0
 10
-9.77422
 20
-14.38456
 30
0.0
 10
-9.77199
 20
-14.37619
 30
0.0
 10
-9.77199
 20
-14.36537
 30
0.0
 10
-9.77199
 20
-14.36537
 30
0.0
 10
-9.77199
 20
-14.35453
 30
0.0
 10
-9.77422
 20
-14.34613
 30
0.0
 10
-9.77867
 20
-14.34016
 30
0.0
 10
-9.77867
 20
-14.34016
 30
0.0
 10
-9.78314
 20
-14.33418
 30
0.0
 10
-9.78941
 20
-14.3312
 30
0.0
 10
-9.79755
 20
-14.3312
 30
0.0
  0
SPLINE
  5
97
330
1F
100
AcDbEntity
  8
Layer 1
 62
   250
100
AcDbSpline
210
0.0
220
0.0
230
1.0
 70
    11
 71
     3
 72
    36
 73
    32
 74
     0
 42
0.0000000001
 43
0.0000000001
 40
0.0
 40
0.0
 40
0.0
 40
0.0
 40
0.125
 40
0.125
 40
0.125
 40
0.125
 40
0.25
 40
0.25
 40
0.25
 40
0.25
 40
0.375
 40
0.375
 40
0.375
 40
0.375
 40
0.5
 40
0.5
 40
0.5
 40
0.5
 40
0.625
 40
0.625
 40
0.625
 40
0.625
 40
0.75
 40
0.75
 40
0.75
 40
0.75
 40
0.875
 40
0.875
 40
0.875
 40
0.875
 40
1.0
 40
1.0
 40
1.0
 40
1.0
 10
-9.79755
 20
-14.31198
 30
0.0
 10
-9.78102
 20
-14.31198
 30
0.0
 10
-9.76806
 20
-14.31671
 30
0.0
 10
-9.7587
 20
-14.32619
 30
0.0
 10
-9.7587
 20
-14.32619
 30
0.0
 10
-9.74932
 20
-14.33564
 30
0.0
 10
-9.74464
 20
-14.34869
 30
0.0
 10
-9.74464
 20
-14.36537
 30
0.0
 10
-9.74464
 20
-14.36537
 30
0.0
 10
-9.74464
 20
-14.382
 30
0.0
 10
-9.74932
 20
-14.39505
 30
0.0
 10
-9.7587
 20
-14.4045
 30
0.0
 10
-9.7587
 20
-14.4045
 30
0.0
 10
-9.76806
 20
-14.41398
 30
0.0
 10
-9.78102
 20
-14.41871
 30
0.0
 10
-9.79755
 20
-14.41871
 30
0.0
 10
-9.79755
 20
-14.41871
 30
0.0
 10
-9.81404
 20
-14.41871
 30
0.0
 10
-9.82697
 20
-14.41398
 30
0.0
 10
-9.83638
 20
-14.4045
 30
0.0
 10
-9.83638
 20
-14.4045
 30
0.0
 10
-9.84576
 20
-14.39505
 30
0.0
 10
-9.85047
 20
-14.382
 30
0.0
 10
-9.85047
 20
-14.36537
 30
0.0
 10
-9.85047
 20
-14.36537
 30
0.0
 10
-9.85047
 20
-14.34869
 30
0.0
 10
-9.84576
 20
-14.33564
 30
0.0
 10
-9.83638
 20
-14.32619
 30
0.0
 10
-9.83638
 20
-14.32619
 30
0.0
 10
-9.82697
 20
-14.31671
 30
0.0
 10
-9.81404
 20
-14.31198
 30
0.0
 10
-9.79755
 20
-14.31198
 30
0.0
  0
SPLINE
  5
98
330
1F
100
AcDbEntity
  8
Layer 1
 62
   250
100
AcDbSpline
210
0.0
220
0.0
230
1.0
 70
    11
 71
     3
 72
    32
 73
    28
 74
     0
 42
0.0000000001
 43
0.0000000001
 40
0.0
 40
0.0
 40
0.0
 40
0.0
 40
0.1428571428571428
 40
0.1428571428571428
 40
0.1428571428571428
 40
0.1428571428571428
 40
0.2857142857142857
 40
0.2857142857142857
 40
0.2857142857142857
 40
0.2857142857142857
 40
0.4285714285714285
 40
0.4285714285714285
 40
0.4285714285714285
 40
0.4285714285714285
 40
0.5714285714285714
 40
0.5714285714285714
 40
0.5714285714285714
 40
0.5714285714285714
 40
0.7142857142857142
 40
0.7142857142857142
 40
0.7142857142857142
 40
0.7142857142857142
 40
0.857142857142857
 40
0.857142857142857
 40
0.857142857142857
 40
0.857142857142857
 40
1.0
 40
1.0
 40
1.0
 40
1.0
 10
-9.68687
 20
-14.35947
 30
0.0
 10
-9.68132
 20
-14.35947
 30
0.0
 10
-9.67732
 20
-14.35843
 30
0.0
 10
-9.67492
 20
-14.35636
 30
0.0
 10
-9.67492
 20
-14.35636
 30
0.0
 10
-9.6725
 20
-14.35429
 30
0.0
 10
-9.6713
 20
-14.35088
 30
0.0
 10
-9.6713
 20
-14.34615
 30
0.0
 10
-9.6713
 20
-14.34615
 30
0.0
 10
-9.6713
 20
-14.34147
 30
0.0
 10
-9.6725
 20
-14.33811
 30
0.0
 10
-9.67492
 20
-14.33609
 30
0.0
 10
-9.67492
 20
-14.33609
 30
0.0
 10
-9.67732
 20
-14.33407
 30
0.0
 10
-9.68132
 20
-14.33306
 30
0.0
 10
-9.68687
 20
-14.33306
 30
0.0
 10
-9.68687
 20
-14.33306
 30
0.0
 10
-9.68687
 20
-14.33306
 30
0.0
 10
-9.69804
 20
-14.33306
 30
0.0
 10
-9.69804
 20
-14.33306
 30
0.0
 10
-9.69804
 20
-14.33306
 30
0.0
 10
-9.69804
 20
-14.33306
 30
0.0
 10
-9.69804
 20
-14.35947
 30
0.0
 10
-9.69804
 20
-14.35947
 30
0.0
 10
-9.69804
 20
-14.35947
 30
0.0
 10
-9.69804
 20
-14.35947
 30
0.0
 10
-9.68687
 20
-14.35947
 30
0.0
 10
-9.68687
 20
-14.35947
 30
0.0
  0
SPLINE
  5
99
330
1F
100
AcDbEntity
  8
Layer 1
 62
   250
100
AcDbSpline
210
0.0
220
0.0
230
1.0
 70
    11
 71
     3
 72
    68
 73
    64
 74
     0
 42
0.0000000001
 43
0.0000000001
 40
0.0
 40
0.0
 40
0.0
 40
0.0
 40
0.0625
 40
0.0625
 40
0.0625
 40
0.0625
 40
0.125
 40
0.125
 40
0.125
 40
0.125
 40
0.1875
 40
0.1875
 40
0.1875
 40
0.1875
 40
0.25
 40
0.25
 40
0.25
 40
0.25
 40
0.3125
 40
0.3125
 40
0.3125
 40
0.3125
 40
0.375
 40
0.375
 40
0.375
 40
0.375
 40
0.4375
 40
0.4375
 40
0.4375
 40
0.4375
 40
0.5
 40
0.5
 40
0.5
 40
0.5
 40
0.5625
 40
0.5625
 40
0.5625
 40
0.5625
 40
0.625
 40
0.625
 40
0.625
 40
0.625
 40
0.6875
 40
0.6875
 40
0.6875
 40
0.6875
 40
0.75
 40
0.75
 40
0.75
 40
0.75
 40
0.8125
 40
0.8125
 40
0.8125
 40
0.8125
 40
0.875
 40
0.875
 40
0.875
 40
0.875
 40
0.9375
 40
0.9375
 40
0.9375
 40
0.9375
 40
1.0
 40
1.0
 40
1.0
 40
1.0
 10
-9.69804
 20
-14.37779
 30
0.0
 10
-9.69804
 20
-14.37779
 30
0.0
 10
-9.69804
 20
-14.41671
 30
0.0
 10
-9.69804
 20
-14.41671
 30
0.0
 10
-9.69804
 20
-14.41671
 30
0.0
 10
-9.69804
 20
-14.41671
 30
0.0
 10
-9.72457
 20
-14.41671
 30
0.0
 10
-9.72457
 20
-14.41671
 30
0.0
 10
-9.72457
 20
-14.41671
 30
0.0
 10
-9.72457
 20
-14.41671
 30
0.0
 10
-9.72457
 20
-14.31384
 30
0.0
 10
-9.72457
 20
-14.31384
 30
0.0
 10
-9.72457
 20
-14.31384
 30
0.0
 10
-9.72457
 20
-14.31384
 30
0.0
 10
-9.68405
 20
-14.31384
 30
0.0
 10
-9.68405
 20
-14.31384
 30
0.0
 10
-9.68405
 20
-14.31384
 30
0.0
 10
-9.6705
 20
-14.31384
 30
0.0
 10
-9.66055
 20
-14.31612
 30
0.0
 10
-9.65425
 20
-14.32066
 30
0.0
 10
-9.65425
 20
-14.32066
 30
0.0
 10
-9.64793
 20
-14.3252
 30
0.0
 10
-9.64477
 20
-14.3324
 30
0.0
 10
-9.64477
 20
-14.34223
 30
0.0
 10
-9.64477
 20
-14.34223
 30
0.0
 10
-9.64477
 20
-14.34902
 30
0.0
 10
-9.64642
 20
-14.35462
 30
0.0
 10
-9.64969
 20
-14.35897
 30
0.0
 10
-9.64969
 20
-14.35897
 30
0.0
 10
-9.65298
 20
-14.36335
 30
0.0
 10
-9.65794
 20
-14.36657
 30
0.0
 10
-9.66455
 20
-14.36862
 30
0.0
 10
-9.66455
 20
-14.36862
 30
0.0
 10
-9.66093
 20
-14.36946
 30
0.0
 10
-9.65766
 20
-14.37132
 30
0.0
 10
-9.65479
 20
-14.37424
 30
0.0
 10
-9.65479
 20
-14.37424
 30
0.0
 10
-9.65192
 20
-14.37715
 30
0.0
 10
-9.64903
 20
-14.38157
 30
0.0
 10
-9.64609
 20
-14.3875
 30
0.0
 10
-9.64609
 20
-14.3875
 30
0.0
 10
-9.64609
 20
-14.3875
 30
0.0
 10
-9.63167
 20
-14.41671
 30
0.0
 10
-9.63167
 20
-14.41671
 30
0.0
 10
-9.63167
 20
-14.41671
 30
0.0
 10
-9.63167
 20
-14.41671
 30
0.0
 10
-9.65994
 20
-14.41671
 30
0.0
 10
-9.65994
 20
-14.41671
 30
0.0
 10
-9.65994
 20
-14.41671
 30
0.0
 10
-9.65994
 20
-14.41671
 30
0.0
 10
-9.67248
 20
-14.39115
 30
0.0
 10
-9.67248
 20
-14.39115
 30
0.0
 10
-9.67248
 20
-14.39115
 30
0.0
 10
-9.67499
 20
-14.38602
 30
0.0
 10
-9.67756
 20
-14.38249
 30
0.0
 10
-9.68017
 20
-14.38061
 30
0.0
 10
-9.68017
 20
-14.38061
 30
0.0
 10
-9.68276
 20
-14.37873
 30
0.0
 10
-9.68621
 20
-14.37779
 30
0.0
 10
-9.69054
 20
-14.37779
 30
0.0
 10
-9.69054
 20
-14.37779
 30
0.0
 10
-9.69054
 20
-14.37779
 30
0.0
 10
-9.69804
 20
-14.37779
 30
0.0
 10
-9.69804
 20
-14.37779
 30
0.0
  0
SPLINE
  5
9A
330
1F
100
AcDbEntity
  8
Layer 1
 62
   250
100
AcDbSpline
210
0.0
220
0.0
230
1.0
 70
    11
 71
     3
 72
    36
 73
    32
 74
     0
 42
0.0000000001
 43
0.0000000001
 40
0.0
 40
0.0
 40
0.0
 40
0.0
 40
0.125
 40
0.125
 40
0.125
 40
0.125
 40
0.25
 40
0.25
 40
0.25
 40
0.25
 40
0.375
 40
0.375
 40
0.375
 40
0.375
 40
0.5
 40
0.5
 40
0.5
 40
0.5
 40
0.625
 40
0.625
 40
0.625
 40
0.625
 40
0.75
 40
0.75
 40
0.75
 40
0.75
 40
0.875
 40
0.875
 40
0.875
 40
0.875
 40
1.0
 40
1.0
 40
1.0
 40
1.0
 10
-10.85808
 20
-15.33523
 30
0.0
 10
-10.86265
 20
-15.33523
 30
0.0
 10
-10.8661
 20
-15.337
 30
0.0
 10
-10.86845
 20
-15.34055
 30
0.0
 10
-10.86845
 20
-15.34055
 30
0.0
 10
-10.8708
 20
-15.3441
 30
0.0
 10
-10.87197
 20
-15.34937
 30
0.0
 10
-10.87197
 20
-15.35632
 30
0.0
 10
-10.87197
 20
-15.35632
 30
0.0
 10
-10.87197
 20
-15.36325
 30
0.0
 10
-10.8708
 20
-15.3685
 30
0.0
 10
-10.86845
 20
-15.37207
 30
0.0
 10
-10.86845
 20
-15.37207
 30
0.0
 10
-10.8661
 20
-15.37564
 30
0.0
 10
-10.86265
 20
-15.37742
 30
0.0
 10
-10.85808
 20
-15.37742
 30
0.0
 10
-10.85808
 20
-15.37742
 30
0.0
 10
-10.8535
 20
-15.37742
 30
0.0
 10
-10.85003
 20
-15.37564
 30
0.0
 10
-10.84768
 20
-15.37207
 30
0.0
 10
-10.84768
 20
-15.37207
 30
0.0
 10
-10.84533
 20
-15.3685
 30
0.0
 10
-10.84417
 20
-15.36325
 30
0.0
 10
-10.84417
 20
-15.35632
 30
0.0
 10
-10.84417
 20
-15.35632
 30
0.0
 10
-10.84417
 20
-15.34937
 30
0.0
 10
-10.84533
 20
-15.3441
 30
0.0
 10
-10.84768
 20
-15.34055
 30
0.0
 10
-10.84768
 20
-15.34055
 30
0.0
 10
-10.85003
 20
-15.337
 30
0.0
 10
-10.8535
 20
-15.33523
 30
0.0
 10
-10.85808
 20
-15.33523
 30
0.0
  0
SPLINE
  5
9B
330
1F
100
AcDbEntity
  8
Layer 1
 62
   250
100
AcDbSpline
210
0.0
220
0.0
230
1.0
 70
    11
 71
     3
 72
    36
 73
    32
 74
     0
 42
0.0000000001
 43
0.0000000001
 40
0.0
 40
0.0
 40
0.0
 40
0.0
 40
0.125
 40
0.125
 40
0.125
 40
0.125
 40
0.25
 40
0.25
 40
0.25
 40
0.25
 40
0.375
 40
0.375
 40
0.375
 40
0.375
 40
0.5
 40
0.5
 40
0.5
 40
0.5
 40
0.625
 40
0.625
 40
0.625
 40
0.625
 40
0.75
 40
0.75
 40
0.75
 40
0.75
 40
0.875
 40
0.875
 40
0.875
 40
0.875
 40
1.0
 40
1.0
 40
1.0
 40
1.0
 10
-10.85808
 20
-15.32761
 30
0.0
 10
-10.8505
 20
-15.32761
 30
0.0
 10
-10.8447
 20
-15.33006
 30
0.0
 10
-10.84068
 20
-15.33498
 30
0.0
 10
-10.84068
 20
-15.33498
 30
0.0
 10
-10.83666
 20
-15.3399
 30
0.0
 10
-10.83465
 20
-15.34702
 30
0.0
 10
-10.83465
 20
-15.35632
 30
0.0
 10
-10.83465
 20
-15.35632
 30
0.0
 10
-10.83465
 20
-15.36567
 30
0.0
 10
-10.83665
 20
-15.37279
 30
0.0
 10
-10.84065
 20
-15.37769
 30
0.0
 10
-10.84065
 20
-15.37769
 30
0.0
 10
-10.84467
 20
-15.38259
 30
0.0
 10
-10.85047
 20
-15.38504
 30
0.0
 10
-10.85808
 20
-15.38504
 30
0.0
 10
-10.85808
 20
-15.38504
 30
0.0
 10
-10.86568
 20
-15.38504
 30
0.0
 10
-10.87147
 20
-15.38259
 30
0.0
 10
-10.87549
 20
-15.37769
 30
0.0
 10
-10.87549
 20
-15.37769
 30
0.0
 10
-10.87949
 20
-15.37279
 30
0.0
 10
-10.88149
 20
-15.36567
 30
0.0
 10
-10.88149
 20
-15.35632
 30
0.0
 10
-10.88149
 20
-15.35632
 30
0.0
 10
-10.88149
 20
-15.34702
 30
0.0
 10
-10.87949
 20
-15.3399
 30
0.0
 10
-10.87549
 20
-15.33498
 30
0.0
 10
-10.87549
 20
-15.33498
 30
0.0
 10
-10.87147
 20
-15.33006
 30
0.0
 10
-10.86568
 20
-15.32761
 30
0.0
 10
-10.85808
 20
-15.32761
 30
0.0
  0
SPLINE
  5
9C
330
1F
100
AcDbEntity
  8
Layer 1
 62
   250
100
AcDbSpline
210
0.0
220
0.0
230
1.0
 70
    11
 71
     3
 72
    36
 73
    32
 74
     0
 42
0.0000000001
 43
0.0000000001
 40
0.0
 40
0.0
 40
0.0
 40
0.0
 40
0.125
 40
0.125
 40
0.125
 40
0.125
 40
0.25
 40
0.25
 40
0.25
 40
0.25
 40
0.375
 40
0.375
 40
0.375
 40
0.375
 40
0.5
 40
0.5
 40
0.5
 40
0.5
 40
0.625
 40
0.625
 40
0.625
 40
0.625
 40
0.75
 40
0.75
 40
0.75
 40
0.75
 40
0.875
 40
0.875
 40
0.875
 40
0.875
 40
1.0
 40
1.0
 40
1.0
 40
1.0
 10
-10.79787
 20
-15.33523
 30
0.0
 10
-10.80244
 20
-15.33523
 30
0.0
 10
-10.80589
 20
-15.337
 30
0.0
 10
-10.80824
 20
-15.34055
 30
0.0
 10
-10.80824
 20
-15.34055
 30
0.0
 10
-10.81059
 20
-15.3441
 30
0.0
 10
-10.81176
 20
-15.34937
 30
0.0
 10
-10.81176
 20
-15.35632
 30
0.0
 10
-10.81176
 20
-15.35632
 30
0.0
 10
-10.81176
 20
-15.36325
 30
0.0
 10
-10.81059
 20
-15.3685
 30
0.0
 10
-10.80824
 20
-15.37207
 30
0.0
 10
-10.80824
 20
-15.37207
 30
0.0
 10
-10.80589
 20
-15.37564
 30
0.0
 10
-10.80244
 20
-15.37742
 30
0.0
 10
-10.79787
 20
-15.37742
 30
0.0
 10
-10.79787
 20
-15.37742
 30
0.0
 10
-10.79329
 20
-15.37742
 30
0.0
 10
-10.78982
 20
-15.37564
 30
0.0
 10
-10.78747
 20
-15.37207
 30
0.0
 10
-10.78747
 20
-15.37207
 30
0.0
 10
-10.78512
 20
-15.3685
 30
0.0
 10
-10.78396
 20
-15.36325
 30
0.0
 10
-10.78396
 20
-15.35632
 30
0.0
 10
-10.78396
 20
-15.35632
 30
0.0
 10
-10.78396
 20
-15.34937
 30
0.0
 10
-10.78512
 20
-15.3441
 30
0.0
 10
-10.78747
 20
-15.34055
 30
0.0
 10
-10.78747
 20
-15.34055
 30
0.0
 10
-10.78982
 20
-15.337
 30
0.0
 10
-10.79329
 20
-15.33523
 30
0.0
 10
-10.79787
 20
-15.33523
 30
0.0
  0
SPLINE
  5
9D
330
1F
100
AcDbEntity
  8
Layer 1
 62
   250
100
AcDbSpline
210
0.0
220
0.0
230
1.0
 70
    11
 71
     3
 72
    36
 73
    32
 74
     0
 42
0.0000000001
 43
0.0000000001
 40
0.0
 40
0.0
 40
0.0
 40
0.0
 40
0.125
 40
0.125
 40
0.125
 40
0.125
 40
0.25
 40
0.25
 40
0.25
 40
0.25
 40
0.375
 40
0.375
 40
0.375
 40
0.375
 40
0.5
 40
0.5
 40
0.5
 40
0.5
 40
0.625
 40
0.625
 40
0.625
 40
0.625
 40
0.75
 40
0.75
 40
0.75
 40
0.75
 40
0.875
 40
0.875
 40
0.875
 40
0.875
 40
1.0
 40
1.0
 40
1.0
 40
1.0
 10
-10.79787
 20
-15.32761
 30
0.0
 10
-10.79029
 20
-15.32761
 30
0.0
 10
-10.78449
 20
-15.33006
 30
0.0
 10
-10.78047
 20
-15.33498
 30
0.0
 10
-10.78047
 20
-15.33498
 30
0.0
 10
-10.77645
 20
-15.3399
 30
0.0
 10
-10.77444
 20
-15.34702
 30
0.0
 10
-10.77444
 20
-15.35632
 30
0.0
 10
-10.77444
 20
-15.35632
 30
0.0
 10
-10.77444
 20
-15.36567
 30
0.0
 10
-10.77644
 20
-15.37279
 30
0.0
 10
-10.78044
 20
-15.37769
 30
0.0
 10
-10.78044
 20
-15.37769
 30
0.0
 10
-10.78446
 20
-15.38259
 30
0.0
 10
-10.79026
 20
-15.38504
 30
0.0
 10
-10.79787
 20
-15.38504
 30
0.0
 10
-10.79787
 20
-15.38504
 30
0.0
 10
-10.80547
 20
-15.38504
 30
0.0
 10
-10.81126
 20
-15.38259
 30
0.0
 10
-10.81528
 20
-15.37769
 30
0.0
 10
-10.81528
 20
-15.37769
 30
0.0
 10
-10.81928
 20
-15.37279
 30
0.0
 10
-10.82128
 20
-15.36567
 30
0.0
 10
-10.82128
 20
-15.35632
 30
0.0
 10
-10.82128
 20
-15.35632
 30
0.0
 10
-10.82128
 20
-15.34702
 30
0.0
 10
-10.81928
 20
-15.3399
 30
0.0
 10
-10.81528
 20
-15.33498
 30
0.0
 10
-10.81528
 20
-15.33498
 30
0.0
 10
-10.81126
 20
-15.33006
 30
0.0
 10
-10.80547
 20
-15.32761
 30
0.0
 10
-10.79787
 20
-15.32761
 30
0.0
  0
SPLINE
  5
9E
330
1F
100
AcDbEntity
  8
Layer 1
 62
   250
100
AcDbSpline
210
0.0
220
0.0
230
1.0
 70
    11
 71
     3
 72
   112
 73
   108
 74
     0
 42
0.0000000001
 43
0.0000000001
 40
0.0
 40
0.0
 40
0.0
 40
0.0
 40
0.037037037037037
 40
0.037037037037037
 40
0.037037037037037
 40
0.037037037037037
 40
0.0740740740740741
 40
0.0740740740740741
 40
0.0740740740740741
 40
0.0740740740740741
 40
0.1111111111111111
 40
0.1111111111111111
 40
0.1111111111111111
 40
0.1111111111111111
 40
0.1481481481481481
 40
0.1481481481481481
 40
0.1481481481481481
 40
0.1481481481481481
 40
0.1851851851851852
 40
0.1851851851851852
 40
0.1851851851851852
 40
0.1851851851851852
 40
0.2222222222222222
 40
0.2222222222222222
 40
0.2222222222222222
 40
0.2222222222222222
 40
0.2592592592592592
 40
0.2592592592592592
 40
0.2592592592592592
 40
0.2592592592592592
 40
0.2962962962962963
 40
0.2962962962962963
 40
0.2962962962962963
 40
0.2962962962962963
 40
0.3333333333333333
 40
0.3333333333333333
 40
0.3333333333333333
 40
0.3333333333333333
 40
0.3703703703703703
 40
0.3703703703703703
 40
0.3703703703703703
 40
0.3703703703703703
 40
0.4074074074074074
 40
0.4074074074074074
 40
0.4074074074074074
 40
0.4074074074074074
 40
0.4444444444444444
 40
0.4444444444444444
 40
0.4444444444444444
 40
0.4444444444444444
 40
0.4814814814814815
 40
0.4814814814814815
 40
0.4814814814814815
 40
0.4814814814814815
 40
0.5185185185185185
 40
0.5185185185185185
 40
0.5185185185185185
 40
0.5185185185185185
 40
0.5555555555555556
 40
0.5555555555555556
 40
0.5555555555555556
 40
0.5555555555555556
 40
0.5925925925925926
 40
0.5925925925925926
 40
0.5925925925925926
 40
0.5925925925925926
 40
0.6296296296296295
 40
0.6296296296296295
 40
0.6296296296296295
 40
0.6296296296296295
 40
0.6666666666666665
 40
0.6666666666666665
 40
0.6666666666666665
 40
0.6666666666666665
 40
0.7037037037037035
 40
0.7037037037037035
 40
0.7037037037037035
 40
0.7037037037037035
 40
0.7407407407407405
 40
0.7407407407407405
 40
0.7407407407407405
 40
0.7407407407407405
 40
0.7777777777777775
 40
0.7777777777777775
 40
0.7777777777777775
 40
0.7777777777777775
 40
0.8148148148148144
 40
0.8148148148148144
 40
0.8148148148148144
 40
0.8148148148148144
 40
0.8518518518518514
 40
0.8518518518518514
 40
0.8518518518518514
 40
0.8518518518518514
 40
0.8888888888888884
 40
0.8888888888888884
 40
0.8888888888888884
 40
0.8888888888888884
 40
0.9259259259259254
 40
0.9259259259259254
 40
0.9259259259259254
 40
0.9259259259259254
 40
0.9629629629629624
 40
0.9629629629629624
 40
0.9629629629629624
 40
0.9629629629629624
 40
1.0
 40
1.0
 40
1.0
 40
1.0
 10
-10.73475
 20
-15.3345
 30
0.0
 10
-10.73365
 20
-15.33215
 30
0.0
 10
-10.73223
 20
-15.33041
 30
0.0
 10
-10.73051
 20
-15.3293
 30
0.0
 10
-10.73051
 20
-15.3293
 30
0.0
 10
-10.72881
 20
-15.32818
 30
0.0
 10
-10.72675
 20
-15.32761
 30
0.0
 10
-10.72435
 20
-15.32761
 30
0.0
 10
-10.72435
 20
-15.32761
 30
0.0
 10
-10.71995
 20
-15.32761
 30
0.0
 10
-10.71684
 20
-15.32931
 30
0.0
 10
-10.71504
 20
-15.33271
 30
0.0
 10
-10.71504
 20
-15.33271
 30
0.0
 10
-10.71323
 20
-15.33612
 30
0.0
 10
-10.71233
 20
-15.34252
 30
0.0
 10
-10.71233
 20
-15.35193
 30
0.0
 10
-10.71233
 20
-15.35193
 30
0.0
 10
-10.71233
 20
-15.35193
 30
0.0
 10
-10.71233
 20
-15.38362
 30
0.0
 10
-10.71233
 20
-15.38362
 30
0.0
 10
-10.71233
 20
-15.38362
 30
0.0
 10
-10.71233
 20
-15.38362
 30
0.0
 10
-10.72053
 20
-15.38362
 30
0.0
 10
-10.72053
 20
-15.38362
 30
0.0
 10
-10.72053
 20
-15.38362
 30
0.0
 10
-10.72053
 20
-15.38362
 30
0.0
 10
-10.72053
 20
-15.35232
 30
0.0
 10
-10.72053
 20
-15.35232
 30
0.0
 10
-10.72053
 20
-15.35232
 30
0.0
 10
-10.72053
 20
-15.3446
 30
0.0
 10
-10.72096
 20
-15.33982
 30
0.0
 10
-10.72183
 20
-15.33793
 30
0.0
 10
-10.72183
 20
-15.33793
 30
0.0
 10
-10.72268
 20
-15.33607
 30
0.0
 10
-10.72426
 20
-15.33513
 30
0.0
 10
-10.72655
 20
-15.33513
 30
0.0
 10
-10.72655
 20
-15.33513
 30
0.0
 10
-10.72915
 20
-15.33513
 30
0.0
 10
-10.73093
 20
-15.33613
 30
0.0
 10
-10.7319
 20
-15.33813
 30
0.0
 10
-10.7319
 20
-15.33813
 30
0.0
 10
-10.73285
 20
-15.34013
 30
0.0
 10
-10.73333
 20
-15.34487
 30
0.0
 10
-10.73333
 20
-15.35232
 30
0.0
 10
-10.73333
 20
-15.35232
 30
0.0
 10
-10.73333
 20
-15.35232
 30
0.0
 10
-10.73333
 20
-15.38362
 30
0.0
 10
-10.73333
 20
-15.38362
 30
0.0
 10
-10.73333
 20
-15.38362
 30
0.0
 10
-10.73333
 20
-15.38362
 30
0.0
 10
-10.74153
 20
-15.38362
 30
0.0
 10
-10.74153
 20
-15.38362
 30
0.0
 10
-10.74153
 20
-15.38362
 30
0.0
 10
-10.74153
 20
-15.38362
 30
0.0
 10
-10.74153
 20
-15.35232
 30
0.0
 10
-10.74153
 20
-15.35232
 30
0.0
 10
-10.74153
 20
-15.35232
 30
0.0
 10
-10.74153
 20
-15.3445
 30
0.0
 10
-10.742
 20
-15.33968
 30
0.0
 10
-10.74293
 20
-15.33787
 30
0.0
 10
-10.74293
 20
-15.33787
 30
0.0
 10
-10.74385
 20
-15.33605
 30
0.0
 10
-10.74551
 20
-15.33513
 30
0.0
 10
-10.74793
 20
-15.33513
 30
0.0
 10
-10.74793
 20
-15.33513
 30
0.0
 10
-10.75031
 20
-15.33513
 30
0.0
 10
-10.75197
 20
-15.33613
 30
0.0
 10
-10.75288
 20
-15.33813
 30
0.0
 10
-10.75288
 20
-15.33813
 30
0.0
 10
-10.75382
 20
-15.34013
 30
0.0
 10
-10.75428
 20
-15.34487
 30
0.0
 10
-10.75428
 20
-15.35232
 30
0.0
 10
-10.75428
 20
-15.35232
 30
0.0
 10
-10.75428
 20
-15.35232
 30
0.0
 10
-10.75428
 20
-15.38362
 30
0.0
 10
-10.75428
 20
-15.38362
 30
0.0
 10
-10.75428
 20
-15.38362
 30
0.0
 10
-10.75428
 20
-15.38362
 30
0.0
 10
-10.76243
 20
-15.38362
 30
0.0
 10
-10.76243
 20
-15.38362
 30
0.0
 10
-10.76243
 20
-15.38362
 30
0.0
 10
-10.76243
 20
-15.38362
 30
0.0
 10
-10.76243
 20
-15.32893
 30
0.0
 10
-10.76243
 20
-15.32893
 30
0.0
 10
-10.76243
 20
-15.32893
 30
0.0
 10
-10.76243
 20
-15.32893
 30
0.0
 10
-10.75428
 20
-15.32893
 30
0.0
 10
-10.75428
 20
-15.32893
 30
0.0
 10
-10.75428
 20
-15.32893
 30
0.0
 10
-10.75428
 20
-15.32893
 30
0.0
 10
-10.75428
 20
-15.33361
 30
0.0
 10
-10.75428
 20
-15.33361
 30
0.0
 10
-10.75428
 20
-15.33361
 30
0.0
 10
-10.75322
 20
-15.33166
 30
0.0
 10
-10.75187
 20
-15.33018
 30
0.0
 10
-10.75025
 20
-15.32915
 30
0.0
 10
-10.75025
 20
-15.32915
 30
0.0
 10
-10.74865
 20
-15.32813
 30
0.0
 10
-10.74681
 20
-15.32761
 30
0.0
 10
-10.74476
 20
-15.32761
 30
0.0
 10
-10.74476
 20
-15.32761
 30
0.0
 10
-10.74228
 20
-15.32761
 30
0.0
 10
-10.74023
 20
-15.32818
 30
0.0
 10
-10.73858
 20
-15.32931
 30
0.0
 10
-10.73858
 20
-15.32931
 30
0.0
 10
-10.73693
 20
-15.33046
 30
0.0
 10
-10.73566
 20
-15.33218
 30
0.0
 10
-10.73475
 20
-15.3345
 30
0.0
  0
SPLINE
  5
9F
330
1F
100
AcDbEntity
  8
Layer 1
 62
   250
100
AcDbSpline
210
0.0
220
0.0
230
1.0
 70
    11
 71
     3
 72
    20
 73
    16
 74
     0
 42
0.0000000001
 43
0.0000000001
 40
0.0
 40
0.0
 40
0.0
 40
0.0
 40
0.25
 40
0.25
 40
0.25
 40
0.25
 40
0.5
 40
0.5
 40
0.5
 40
0.5
 40
0.75
 40
0.75
 40
0.75
 40
0.75
 40
1.0
 40
1.0
 40
1.0
 40
1.0
 10
-10.68365
 20
-15.36872
 30
0.0
 10
-10.68365
 20
-15.36872
 30
0.0
 10
-10.67135
 20
-15.36872
 30
0.0
 10
-10.67135
 20
-15.36872
 30
0.0
 10
-10.67135
 20
-15.36872
 30
0.0
 10
-10.67135
 20
-15.36872
 30
0.0
 10
-10.67135
 20
-15.38362
 30
0.0
 10
-10.67135
 20
-15.38362
 30
0.0
 10
-10.67135
 20
-15.38362
 30
0.0
 10
-10.67135
 20
-15.38362
 30
0.0
 10
-10.68365
 20
-15.38362
 30
0.0
 10
-10.68365
 20
-15.38362
 30
0.0
 10
-10.68365
 20
-15.38362
 30
0.0
 10
-10.68365
 20
-15.38362
 30
0.0
 10
-10.68365
 20
-15.36872
 30
0.0
 10
-10.68365
 20
-15.36872
 30
0.0
  0
SPLINE
  5
A0
330
1F
100
AcDbEntity
  8
Layer 1
 62
   250
100
AcDbSpline
210
0.0
220
0.0
230
1.0
 70
    11
 71
     3
 72
    52
 73
    48
 74
     0
 42
0.0000000001
 43
0.0000000001
 40
0.0
 40
0.0
 40
0.0
 40
0.0
 40
0.0833333333333333
 40
0.0833333333333333
 40
0.0833333333333333
 40
0.0833333333333333
 40
0.1666666666666667
 40
0.1666666666666667
 40
0.1666666666666667
 40
0.1666666666666667
 40
0.25
 40
0.25
 40
0.25
 40
0.25
 40
0.3333333333333333
 40
0.3333333333333333
 40
0.3333333333333333
 40
0.3333333333333333
 40
0.4166666666666666
 40
0.4166666666666666
 40
0.4166666666666666
 40
0.4166666666666666
 40
0.4999999999999999
 40
0.4999999999999999
 40
0.4999999999999999
 40
0.4999999999999999
 40
0.5833333333333333
 40
0.5833333333333333
 40
0.5833333333333333
 40
0.5833333333333333
 40
0.6666666666666666
 40
0.6666666666666666
 40
0.6666666666666666
 40
0.6666666666666666
 40
0.75
 40
0.75
 40
0.75
 40
0.75
 40
0.8333333333333334
 40
0.8333333333333334
 40
0.8333333333333334
 40
0.8333333333333334
 40
0.9166666666666667
 40
0.9166666666666667
 40
0.9166666666666667
 40
0.9166666666666667
 40
1.0
 40
1.0
 40
1.0
 40
1.0
 10
-10.61613
 20
-15.3638
 30
0.0
 10
-10.61613
 20
-15.36784
 30
0.0
 10
-10.61539
 20
-15.37087
 30
0.0
 10
-10.61391
 20
-15.37292
 30
0.0
 10
-10.61391
 20
-15.37292
 30
0.0
 10
-10.61243
 20
-15.37497
 30
0.0
 10
-10.61024
 20
-15.376
 30
0.0
 10
-10.60734
 20
-15.376
 30
0.0
 10
-10.60734
 20
-15.376
 30
0.0
 10
-10.60734
 20
-15.376
 30
0.0
 10
-10.59684
 20
-15.376
 30
0.0
 10
-10.59684
 20
-15.376
 30
0.0
 10
-10.59684
 20
-15.376
 30
0.0
 10
-10.59684
 20
-15.376
 30
0.0
 10
-10.59684
 20
-15.38362
 30
0.0
 10
-10.59684
 20
-15.38362
 30
0.0
 10
-10.59684
 20
-15.38362
 30
0.0
 10
-10.59684
 20
-15.38362
 30
0.0
 10
-10.60821
 20
-15.38362
 30
0.0
 10
-10.60821
 20
-15.38362
 30
0.0
 10
-10.60821
 20
-15.38362
 30
0.0
 10
-10.61359
 20
-15.38362
 30
0.0
 10
-10.61774
 20
-15.38189
 30
0.0
 10
-10.62069
 20
-15.37844
 30
0.0
 10
-10.62069
 20
-15.37844
 30
0.0
 10
-10.62364
 20
-15.37499
 30
0.0
 10
-10.62511
 20
-15.3701
 30
0.0
 10
-10.62511
 20
-15.3638
 30
0.0
 10
-10.62511
 20
-15.3638
 30
0.0
 10
-10.62511
 20
-15.3638
 30
0.0
 10
-10.62511
 20
-15.31413
 30
0.0
 10
-10.62511
 20
-15.31413
 30
0.0
 10
-10.62511
 20
-15.31413
 30
0.0
 10
-10.62511
 20
-15.31413
 30
0.0
 10
-10.63951
 20
-15.31413
 30
0.0
 10
-10.63951
 20
-15.31413
 30
0.0
 10
-10.63951
 20
-15.31413
 30
0.0
 10
-10.63951
 20
-15.31413
 30
0.0
 10
-10.63951
 20
-15.3071
 30
0.0
 10
-10.63951
 20
-15.3071
 30
0.0
 10
-10.63951
 20
-15.3071
 30
0.0
 10
-10.63951
 20
-15.3071
 30
0.0
 10
-10.61613
 20
-15.3071
 30
0.0
 10
-10.61613
 20
-15.3071
 30
0.0
 10
-10.61613
 20
-15.3071
 30
0.0
 10
-10.61613
 20
-15.3071
 30
0.0
 10
-10.61613
 20
-15.3638
 30
0.0
 10
-10.61613
 20
-15.3638
 30
0.0
  0
SPLINE
  5
A1
330
1F
100
AcDbEntity
  8
Layer 1
 62
   250
100
AcDbSpline
210
0.0
220
0.0
230
1.0
 70
    11
 71
     3
 72
    76
 73
    72
 74
     0
 42
0.0000000001
 43
0.0000000001
 40
0.0
 40
0.0
 40
0.0
 40
0.0
 40
0.0555555555555556
 40
0.0555555555555556
 40
0.0555555555555556
 40
0.0555555555555556
 40
0.1111111111111111
 40
0.1111111111111111
 40
0.1111111111111111
 40
0.1111111111111111
 40
0.1666666666666667
 40
0.1666666666666667
 40
0.1666666666666667
 40
0.1666666666666667
 40
0.2222222222222222
 40
0.2222222222222222
 40
0.2222222222222222
 40
0.2222222222222222
 40
0.2777777777777778
 40
0.2777777777777778
 40
0.2777777777777778
 40
0.2777777777777778
 40
0.3333333333333334
 40
0.3333333333333334
 40
0.3333333333333334
 40
0.3333333333333334
 40
0.388888888888889
 40
0.388888888888889
 40
0.388888888888889
 40
0.388888888888889
 40
0.4444444444444445
 40
0.4444444444444445
 40
0.4444444444444445
 40
0.4444444444444445
 40
0.5000000000000001
 40
0.5000000000000001
 40
0.5000000000000001
 40
0.5000000000000001
 40
0.5555555555555557
 40
0.5555555555555557
 40
0.5555555555555557
 40
0.5555555555555557
 40
0.6111111111111113
 40
0.6111111111111113
 40
0.6111111111111113
 40
0.6111111111111113
 40
0.6666666666666669
 40
0.6666666666666669
 40
0.6666666666666669
 40
0.6666666666666669
 40
0.7222222222222224
 40
0.7222222222222224
 40
0.7222222222222224
 40
0.7222222222222224
 40
0.777777777777778
 40
0.777777777777778
 40
0.777777777777778
 40
0.777777777777778
 40
0.8333333333333336
 40
0.8333333333333336
 40
0.8333333333333336
 40
0.8333333333333336
 40
0.8888888888888892
 40
0.8888888888888892
 40
0.8888888888888892
 40
0.8888888888888892
 40
0.9444444444444448
 40
0.9444444444444448
 40
0.9444444444444448
 40
0.9444444444444448
 40
1.0
 40
1.0
 40
1.0
 40
1.0
 10
-10.55713
 20
-15.3134
 30
0.0
 10
-10.55713
 20
-15.3134
 30
0.0
 10
-10.55713
 20
-15.32893
 30
0.0
 10
-10.55713
 20
-15.32893
 30
0.0
 10
-10.55713
 20
-15.32893
 30
0.0
 10
-10.55713
 20
-15.32893
 30
0.0
 10
-10.53671
 20
-15.32893
 30
0.0
 10
-10.53671
 20
-15.32893
 30
0.0
 10
-10.53671
 20
-15.32893
 30
0.0
 10
-10.53671
 20
-15.32893
 30
0.0
 10
-10.53671
 20
-15.33592
 30
0.0
 10
-10.53671
 20
-15.33592
 30
0.0
 10
-10.53671
 20
-15.33592
 30
0.0
 10
-10.53671
 20
-15.33592
 30
0.0
 10
-10.55713
 20
-15.33592
 30
0.0
 10
-10.55713
 20
-15.33592
 30
0.0
 10
-10.55713
 20
-15.33592
 30
0.0
 10
-10.55713
 20
-15.33592
 30
0.0
 10
-10.55713
 20
-15.3656
 30
0.0
 10
-10.55713
 20
-15.3656
 30
0.0
 10
-10.55713
 20
-15.3656
 30
0.0
 10
-10.55713
 20
-15.36964
 30
0.0
 10
-10.55637
 20
-15.37245
 30
0.0
 10
-10.55483
 20
-15.37404
 30
0.0
 10
-10.55483
 20
-15.37404
 30
0.0
 10
-10.5533
 20
-15.37564
 30
0.0
 10
-10.55063
 20
-15.37644
 30
0.0
 10
-10.54683
 20
-15.37644
 30
0.0
 10
-10.54683
 20
-15.37644
 30
0.0
 10
-10.54683
 20
-15.37644
 30
0.0
 10
-10.53671
 20
-15.37644
 30
0.0
 10
-10.53671
 20
-15.37644
 30
0.0
 10
-10.53671
 20
-15.37644
 30
0.0
 10
-10.53671
 20
-15.37644
 30
0.0
 10
-10.53671
 20
-15.38362
 30
0.0
 10
-10.53671
 20
-15.38362
 30
0.0
 10
-10.53671
 20
-15.38362
 30
0.0
 10
-10.53671
 20
-15.38362
 30
0.0
 10
-10.5477
 20
-15.38362
 30
0.0
 10
-10.5477
 20
-15.38362
 30
0.0
 10
-10.5477
 20
-15.38362
 30
0.0
 10
-10.55445
 20
-15.38362
 30
0.0
 10
-10.5592
 20
-15.38227
 30
0.0
 10
-10.56197
 20
-15.37957
 30
0.0
 10
-10.56197
 20
-15.37957
 30
0.0
 10
-10.56473
 20
-15.37687
 30
0.0
 10
-10.56612
 20
-15.3722
 30
0.0
 10
-10.56612
 20
-15.3656
 30
0.0
 10
-10.56612
 20
-15.3656
 30
0.0
 10
-10.56612
 20
-15.3656
 30
0.0
 10
-10.56612
 20
-15.33592
 30
0.0
 10
-10.56612
 20
-15.33592
 30
0.0
 10
-10.56612
 20
-15.33592
 30
0.0
 10
-10.56612
 20
-15.33592
 30
0.0
 10
-10.58072
 20
-15.33592
 30
0.0
 10
-10.58072
 20
-15.33592
 30
0.0
 10
-10.58072
 20
-15.33592
 30
0.0
 10
-10.58072
 20
-15.33592
 30
0.0
 10
-10.58072
 20
-15.32893
 30
0.0
 10
-10.58072
 20
-15.32893
 30
0.0
 10
-10.58072
 20
-15.32893
 30
0.0
 10
-10.58072
 20
-15.32893
 30
0.0
 10
-10.56612
 20
-15.32893
 30
0.0
 10
-10.56612
 20
-15.32893
 30
0.0
 10
-10.56612
 20
-15.32893
 30
0.0
 10
-10.56612
 20
-15.32893
 30
0.0
 10
-10.56612
 20
-15.3134
 30
0.0
 10
-10.56612
 20
-15.3134
 30
0.0
 10
-10.56612
 20
-15.3134
 30
0.0
 10
-10.56612
 20
-15.3134
 30
0.0
 10
-10.55713
 20
-15.3134
 30
0.0
 10
-10.55713
 20
-15.3134
 30
0.0
  0
SPLINE
  5
A2
330
1F
100
AcDbEntity
  8
Layer 1
 62
   250
100
AcDbSpline
210
0.0
220
0.0
230
1.0
 70
    11
 71
     3
 72
    20
 73
    16
 74
     0
 42
0.0000000001
 43
0.0000000001
 40
0.0
 40
0.0
 40
0.0
 40
0.0
 40
0.25
 40
0.25
 40
0.25
 40
0.25
 40
0.5
 40
0.5
 40
0.5
 40
0.5
 40
0.75
 40
0.75
 40
0.75
 40
0.75
 40
1.0
 40
1.0
 40
1.0
 40
1.0
 10
-10.48349
 20
-15.31071
 30
0.0
 10
-10.48349
 20
-15.31071
 30
0.0
 10
-10.4742
 20
-15.31071
 30
0.0
 10
-10.4742
 20
-15.31071
 30
0.0
 10
-10.4742
 20
-15.31071
 30
0.0
 10
-10.4742
 20
-15.31071
 30
0.0
 10
-10.51259
 20
-15.3929
 30
0.0
 10
-10.51259
 20
-15.3929
 30
0.0
 10
-10.51259
 20
-15.3929
 30
0.0
 10
-10.51259
 20
-15.3929
 30
0.0
 10
-10.52193
 20
-15.3929
 30
0.0
 10
-10.52193
 20
-15.3929
 30
0.0
 10
-10.52193
 20
-15.3929
 30
0.0
 10
-10.52193
 20
-15.3929
 30
0.0
 10
-10.48349
 20
-15.31071
 30
0.0
 10
-10.48349
 20
-15.31071
 30
0.0
  0
SPLINE
  5
A3
330
1F
100
AcDbEntity
  8
Layer 1
 62
   250
100
AcDbSpline
210
0.0
220
0.0
230
1.0
 70
    11
 71
     3
 72
    76
 73
    72
 74
     0
 42
0.0000000001
 43
0.0000000001
 40
0.0
 40
0.0
 40
0.0
 40
0.0
 40
0.0555555555555556
 40
0.0555555555555556
 40
0.0555555555555556
 40
0.0555555555555556
 40
0.1111111111111111
 40
0.1111111111111111
 40
0.1111111111111111
 40
0.1111111111111111
 40
0.1666666666666667
 40
0.1666666666666667
 40
0.1666666666666667
 40
0.1666666666666667
 40
0.2222222222222222
 40
0.2222222222222222
 40
0.2222222222222222
 40
0.2222222222222222
 40
0.2777777777777778
 40
0.2777777777777778
 40
0.2777777777777778
 40
0.2777777777777778
 40
0.3333333333333334
 40
0.3333333333333334
 40
0.3333333333333334
 40
0.3333333333333334
 40
0.388888888888889
 40
0.388888888888889
 40
0.388888888888889
 40
0.388888888888889
 40
0.4444444444444445
 40
0.4444444444444445
 40
0.4444444444444445
 40
0.4444444444444445
 40
0.5000000000000001
 40
0.5000000000000001
 40
0.5000000000000001
 40
0.5000000000000001
 40
0.5555555555555557
 40
0.5555555555555557
 40
0.5555555555555557
 40
0.5555555555555557
 40
0.6111111111111113
 40
0.6111111111111113
 40
0.6111111111111113
 40
0.6111111111111113
 40
0.6666666666666669
 40
0.6666666666666669
 40
0.6666666666666669
 40
0.6666666666666669
 40
0.7222222222222224
 40
0.7222222222222224
 40
0.7222222222222224
 40
0.7222222222222224
 40
0.777777777777778
 40
0.777777777777778
 40
0.777777777777778
 40
0.777777777777778
 40
0.8333333333333336
 40
0.8333333333333336
 40
0.8333333333333336
 40
0.8333333333333336
 40
0.8888888888888892
 40
0.8888888888888892
 40
0.8888888888888892
 40
0.8888888888888892
 40
0.9444444444444448
 40
0.9444444444444448
 40
0.9444444444444448
 40
0.9444444444444448
 40
1.0
 40
1.0
 40
1.0
 40
1.0
 10
-10.41391
 20
-15.38152
 30
0.0
 10
-10.41619
 20
-15.38269
 30
0.0
 10
-10.41858
 20
-15.38357
 30
0.0
 10
-10.4211
 20
-15.38415
 30
0.0
 10
-10.4211
 20
-15.38415
 30
0.0
 10
-10.4236
 20
-15.38474
 30
0.0
 10
-10.42623
 20
-15.38504
 30
0.0
 10
-10.429
 20
-15.38504
 30
0.0
 10
-10.429
 20
-15.38504
 30
0.0
 10
-10.43883
 20
-15.38504
 30
0.0
 10
-10.44635
 20
-15.3818
 30
0.0
 10
-10.45152
 20
-15.37532
 30
0.0
 10
-10.45152
 20
-15.37532
 30
0.0
 10
-10.4567
 20
-15.36884
 30
0.0
 10
-10.45928
 20
-15.35948
 30
0.0
 10
-10.45928
 20
-15.34723
 30
0.0
 10
-10.45928
 20
-15.34723
 30
0.0
 10
-10.45928
 20
-15.33497
 30
0.0
 10
-10.4567
 20
-15.3256
 30
0.0
 10
-10.45152
 20
-15.31911
 30
0.0
 10
-10.45152
 20
-15.31911
 30
0.0
 10
-10.44635
 20
-15.31263
 30
0.0
 10
-10.43883
 20
-15.3094
 30
0.0
 10
-10.429
 20
-15.3094
 30
0.0
 10
-10.429
 20
-15.3094
 30
0.0
 10
-10.42623
 20
-15.3094
 30
0.0
 10
-10.42358
 20
-15.3097
 30
0.0
 10
-10.42105
 20
-15.31028
 30
0.0
 10
-10.42105
 20
-15.31028
 30
0.0
 10
-10.4185
 20
-15.31086
 30
0.0
 10
-10.41613
 20
-15.31175
 30
0.0
 10
-10.41391
 20
-15.31291
 30
0.0
 10
-10.41391
 20
-15.31291
 30
0.0
 10
-10.41391
 20
-15.31291
 30
0.0
 10
-10.41391
 20
-15.32893
 30
0.0
 10
-10.41391
 20
-15.32893
 30
0.0
 10
-10.41391
 20
-15.32893
 30
0.0
 10
-10.41638
 20
-15.32665
 30
0.0
 10
-10.4188
 20
-15.32498
 30
0.0
 10
-10.42111
 20
-15.32391
 30
0.0
 10
-10.42111
 20
-15.32391
 30
0.0
 10
-10.42345
 20
-15.32286
 30
0.0
 10
-10.42585
 20
-15.32233
 30
0.0
 10
-10.42833
 20
-15.32233
 30
0.0
 10
-10.42833
 20
-15.32233
 30
0.0
 10
-10.4336
 20
-15.32233
 30
0.0
 10
-10.43758
 20
-15.32443
 30
0.0
 10
-10.44026
 20
-15.32861
 30
0.0
 10
-10.44026
 20
-15.32861
 30
0.0
 10
-10.44295
 20
-15.3328
 30
0.0
 10
-10.4443
 20
-15.339
 30
0.0
 10
-10.4443
 20
-15.34723
 30
0.0
 10
-10.4443
 20
-15.34723
 30
0.0
 10
-10.4443
 20
-15.35545
 30
0.0
 10
-10.44295
 20
-15.36163
 30
0.0
 10
-10.44026
 20
-15.36582
 30
0.0
 10
-10.44026
 20
-15.36582
 30
0.0
 10
-10.43758
 20
-15.37
 30
0.0
 10
-10.4336
 20
-15.3721
 30
0.0
 10
-10.42833
 20
-15.3721
 30
0.0
 10
-10.42833
 20
-15.3721
 30
0.0
 10
-10.42585
 20
-15.3721
 30
0.0
 10
-10.42345
 20
-15.37157
 30
0.0
 10
-10.42111
 20
-15.37052
 30
0.0
 10
-10.42111
 20
-15.37052
 30
0.0
 10
-10.4188
 20
-15.36945
 30
0.0
 10
-10.41638
 20
-15.36779
 30
0.0
 10
-10.41391
 20
-15.3655
 30
0.0
 10
-10.41391
 20
-15.3655
 30
0.0
 10
-10.41391
 20
-15.3655
 30
0.0
 10
-10.41391
 20
-15.38152
 30
0.0
 10
-10.41391
 20
-15.38152
 30
0.0
  0
SPLINE
  5
A4
330
1F
100
AcDbEntity
  8
Layer 1
 62
   250
100
AcDbSpline
210
0.0
220
0.0
230
1.0
 70
    11
 71
     3
 72
    68
 73
    64
 74
     0
 42
0.0000000001
 43
0.0000000001
 40
0.0
 40
0.0
 40
0.0
 40
0.0
 40
0.0625
 40
0.0625
 40
0.0625
 40
0.0625
 40
0.125
 40
0.125
 40
0.125
 40
0.125
 40
0.1875
 40
0.1875
 40
0.1875
 40
0.1875
 40
0.25
 40
0.25
 40
0.25
 40
0.25
 40
0.3125
 40
0.3125
 40
0.3125
 40
0.3125
 40
0.375
 40
0.375
 40
0.375
 40
0.375
 40
0.4375
 40
0.4375
 40
0.4375
 40
0.4375
 40
0.5
 40
0.5
 40
0.5
 40
0.5
 40
0.5625
 40
0.5625
 40
0.5625
 40
0.5625
 40
0.625
 40
0.625
 40
0.625
 40
0.625
 40
0.6875
 40
0.6875
 40
0.6875
 40
0.6875
 40
0.75
 40
0.75
 40
0.75
 40
0.75
 40
0.8125
 40
0.8125
 40
0.8125
 40
0.8125
 40
0.875
 40
0.875
 40
0.875
 40
0.875
 40
0.9375
 40
0.9375
 40
0.9375
 40
0.9375
 40
1.0
 40
1.0
 40
1.0
 40
1.0
 10
-10.36709
 20
-15.3492
 30
0.0
 10
-10.36565
 20
-15.34948
 30
0.0
 10
-10.3644
 20
-15.35017
 30
0.0
 10
-10.36335
 20
-15.35123
 30
0.0
 10
-10.36335
 20
-15.35123
 30
0.0
 10
-10.36229
 20
-15.35228
 30
0.0
 10
-10.361
 20
-15.35435
 30
0.0
 10
-10.35947
 20
-15.3574
 30
0.0
 10
-10.35947
 20
-15.3574
 30
0.0
 10
-10.35947
 20
-15.3574
 30
0.0
 10
-10.34627
 20
-15.38362
 30
0.0
 10
-10.34627
 20
-15.38362
 30
0.0
 10
-10.34627
 20
-15.38362
 30
0.0
 10
-10.34627
 20
-15.38362
 30
0.0
 10
-10.3621
 20
-15.38362
 30
0.0
 10
-10.3621
 20
-15.38362
 30
0.0
 10
-10.3621
 20
-15.38362
 30
0.0
 10
-10.3621
 20
-15.38362
 30
0.0
 10
-10.37089
 20
-15.36522
 30
0.0
 10
-10.37089
 20
-15.36522
 30
0.0
 10
-10.37089
 20
-15.36522
 30
0.0
 10
-10.37115
 20
-15.3647
 30
0.0
 10
-10.3715
 20
-15.36398
 30
0.0
 10
-10.37192
 20
-15.36307
 30
0.0
 10
-10.37192
 20
-15.36307
 30
0.0
 10
-10.37449
 20
-15.35757
 30
0.0
 10
-10.37752
 20
-15.35482
 30
0.0
 10
-10.381
 20
-15.35482
 30
0.0
 10
-10.381
 20
-15.35482
 30
0.0
 10
-10.381
 20
-15.35482
 30
0.0
 10
-10.38559
 20
-15.35482
 30
0.0
 10
-10.38559
 20
-15.35482
 30
0.0
 10
-10.38559
 20
-15.35482
 30
0.0
 10
-10.38559
 20
-15.35482
 30
0.0
 10
-10.38559
 20
-15.38362
 30
0.0
 10
-10.38559
 20
-15.38362
 30
0.0
 10
-10.38559
 20
-15.38362
 30
0.0
 10
-10.38559
 20
-15.38362
 30
0.0
 10
-10.39999
 20
-15.38362
 30
0.0
 10
-10.39999
 20
-15.38362
 30
0.0
 10
-10.39999
 20
-15.38362
 30
0.0
 10
-10.39999
 20
-15.38362
 30
0.0
 10
-10.39999
 20
-15.31071
 30
0.0
 10
-10.39999
 20
-15.31071
 30
0.0
 10
-10.39999
 20
-15.31071
 30
0.0
 10
-10.39999
 20
-15.31071
 30
0.0
 10
-10.37919
 20
-15.31071
 30
0.0
 10
-10.37919
 20
-15.31071
 30
0.0
 10
-10.37919
 20
-15.31071
 30
0.0
 10
-10.36982
 20
-15.31071
 30
0.0
 10
-10.36309
 20
-15.31238
 30
0.0
 10
-10.359
 20
-15.3157
 30
0.0
 10
-10.359
 20
-15.3157
 30
0.0
 10
-10.35492
 20
-15.31901
 30
0.0
 10
-10.35287
 20
-15.32441
 30
0.0
 10
-10.35287
 20
-15.33191
 30
0.0
 10
-10.35287
 20
-15.33191
 30
0.0
 10
-10.35287
 20
-15.33692
 30
0.0
 10
-10.35408
 20
-15.34092
 30
0.0
 10
-10.35654
 20
-15.34388
 30
0.0
 10
-10.35654
 20
-15.34388
 30
0.0
 10
-10.35897
 20
-15.34683
 30
0.0
 10
-10.36249
 20
-15.34862
 30
0.0
 10
-10.36709
 20
-15.3492
 30
0.0
  0
SPLINE
  5
A5
330
1F
100
AcDbEntity
  8
Layer 1
 62
   250
100
AcDbSpline
210
0.0
220
0.0
230
1.0
 70
    11
 71
     3
 72
    32
 73
    28
 74
     0
 42
0.0000000001
 43
0.0000000001
 40
0.0
 40
0.0
 40
0.0
 40
0.0
 40
0.1428571428571428
 40
0.1428571428571428
 40
0.1428571428571428
 40
0.1428571428571428
 40
0.2857142857142857
 40
0.2857142857142857
 40
0.2857142857142857
 40
0.2857142857142857
 40
0.4285714285714285
 40
0.4285714285714285
 40
0.4285714285714285
 40
0.4285714285714285
 40
0.5714285714285714
 40
0.5714285714285714
 40
0.5714285714285714
 40
0.5714285714285714
 40
0.7142857142857142
 40
0.7142857142857142
 40
0.7142857142857142
 40
0.7142857142857142
 40
0.857142857142857
 40
0.857142857142857
 40
0.857142857142857
 40
0.857142857142857
 40
1.0
 40
1.0
 40
1.0
 40
1.0
 10
-10.38559
 20
-15.32283
 30
0.0
 10
-10.38559
 20
-15.32283
 30
0.0
 10
-10.38559
 20
-15.3427
 30
0.0
 10
-10.38559
 20
-15.3427
 30
0.0
 10
-10.38559
 20
-15.3427
 30
0.0
 10
-10.38559
 20
-15.3427
 30
0.0
 10
-10.3788
 20
-15.3427
 30
0.0
 10
-10.3788
 20
-15.3427
 30
0.0
 10
-10.3788
 20
-15.3427
 30
0.0
 10
-10.37487
 20
-15.3427
 30
0.0
 10
-10.37204
 20
-15.34193
 30
0.0
 10
-10.37034
 20
-15.34038
 30
0.0
 10
-10.37034
 20
-15.34038
 30
0.0
 10
-10.36862
 20
-15.33883
 30
0.0
 10
-10.36777
 20
-15.33628
 30
0.0
 10
-10.36777
 20
-15.33275
 30
0.0
 10
-10.36777
 20
-15.33275
 30
0.0
 10
-10.36777
 20
-15.3292
 30
0.0
 10
-10.36862
 20
-15.32665
 30
0.0
 10
-10.3703
 20
-15.32513
 30
0.0
 10
-10.3703
 20
-15.32513
 30
0.0
 10
-10.372
 20
-15.3236
 30
0.0
 10
-10.37484
 20
-15.32283
 30
0.0
 10
-10.3788
 20
-15.32283
 30
0.0
 10
-10.3788
 20
-15.32283
 30
0.0
 10
-10.3788
 20
-15.32283
 30
0.0
 10
-10.38559
 20
-15.32283
 30
0.0
 10
-10.38559
 20
-15.32283
 30
0.0
  0
SPLINE
  5
A6
330
1F
100
AcDbEntity
  8
Layer 1
 62
   250
100
AcDbSpline
210
0.0
220
0.0
230
1.0
 70
    11
 71
     3
 72
    48
 73
    44
 74
     0
 42
0.0000000001
 43
0.0000000001
 40
0.0
 40
0.0
 40
0.0
 40
0.0
 40
0.0909090909090909
 40
0.0909090909090909
 40
0.0909090909090909
 40
0.0909090909090909
 40
0.1818181818181818
 40
0.1818181818181818
 40
0.1818181818181818
 40
0.1818181818181818
 40
0.2727272727272727
 40
0.2727272727272727
 40
0.2727272727272727
 40
0.2727272727272727
 40
0.3636363636363636
 40
0.3636363636363636
 40
0.3636363636363636
 40
0.3636363636363636
 40
0.4545454545454546
 40
0.4545454545454546
 40
0.4545454545454546
 40
0.4545454545454546
 40
0.5454545454545455
 40
0.5454545454545455
 40
0.5454545454545455
 40
0.5454545454545455
 40
0.6363636363636365
 40
0.6363636363636365
 40
0.6363636363636365
 40
0.6363636363636365
 40
0.7272727272727274
 40
0.7272727272727274
 40
0.7272727272727274
 40
0.7272727272727274
 40
0.8181818181818183
 40
0.8181818181818183
 40
0.8181818181818183
 40
0.8181818181818183
 40
0.9090909090909093
 40
0.9090909090909093
 40
0.9090909090909093
 40
0.9090909090909093
 40
1.0
 40
1.0
 40
1.0
 40
1.0
 10
-10.3371
 20
-15.37092
 30
0.0
 10
-10.3371
 20
-15.37092
 30
0.0
 10
-10.32098
 20
-15.37092
 30
0.0
 10
-10.32098
 20
-15.37092
 30
0.0
 10
-10.32098
 20
-15.37092
 30
0.0
 10
-10.32098
 20
-15.37092
 30
0.0
 10
-10.32098
 20
-15.3236
 30
0.0
 10
-10.32098
 20
-15.3236
 30
0.0
 10
-10.32098
 20
-15.3236
 30
0.0
 10
-10.32098
 20
-15.3236
 30
0.0
 10
-10.33596
 20
-15.32731
 30
0.0
 10
-10.33596
 20
-15.32731
 30
0.0
 10
-10.33596
 20
-15.32731
 30
0.0
 10
-10.33596
 20
-15.32731
 30
0.0
 10
-10.33596
 20
-15.31433
 30
0.0
 10
-10.33596
 20
-15.31433
 30
0.0
 10
-10.33596
 20
-15.31433
 30
0.0
 10
-10.33596
 20
-15.31433
 30
0.0
 10
-10.32088
 20
-15.31071
 30
0.0
 10
-10.32088
 20
-15.31071
 30
0.0
 10
-10.32088
 20
-15.31071
 30
0.0
 10
-10.32088
 20
-15.31071
 30
0.0
 10
-10.30696
 20
-15.31071
 30
0.0
 10
-10.30696
 20
-15.31071
 30
0.0
 10
-10.30696
 20
-15.31071
 30
0.0
 10
-10.30696
 20
-15.31071
 30
0.0
 10
-10.30696
 20
-15.37092
 30
0.0
 10
-10.30696
 20
-15.37092
 30
0.0
 10
-10.30696
 20
-15.37092
 30
0.0
 10
-10.30696
 20
-15.37092
 30
0.0
 10
-10.29084
 20
-15.37092
 30
0.0
 10
-10.29084
 20
-15.37092
 30
0.0
 10
-10.29084
 20
-15.37092
 30
0.0
 10
-10.29084
 20
-15.37092
 30
0.0
 10
-10.29084
 20
-15.38362
 30
0.0
 10
-10.29084
 20
-15.38362
 30
0.0
 10
-10.29084
 20
-15.38362
 30
0.0
 10
-10.29084
 20
-15.38362
 30
0.0
 10
-10.3371
 20
-15.38362
 30
0.0
 10
-10.3371
 20
-15.38362
 30
0.0
 10
-10.3371
 20
-15.38362
 30
0.0
 10
-10.3371
 20
-15.38362
 30
0.0
 10
-10.3371
 20
-15.37092
 30
0.0
 10
-10.3371
 20
-15.37092
 30
0.0
  0
SPLINE
  5
A7
330
1F
100
AcDbEntity
  8
Layer 1
 62
   250
100
AcDbSpline
210
0.0
220
0.0
230
1.0
 70
    11
 71
     3
 72
    36
 73
    32
 74
     0
 42
0.0000000001
 43
0.0000000001
 40
0.0
 40
0.0
 40
0.0
 40
0.0
 40
0.125
 40
0.125
 40
0.125
 40
0.125
 40
0.25
 40
0.25
 40
0.25
 40
0.25
 40
0.375
 40
0.375
 40
0.375
 40
0.375
 40
0.5
 40
0.5
 40
0.5
 40
0.5
 40
0.625
 40
0.625
 40
0.625
 40
0.625
 40
0.75
 40
0.75
 40
0.75
 40
0.75
 40
0.875
 40
0.875
 40
0.875
 40
0.875
 40
1.0
 40
1.0
 40
1.0
 40
1.0
 10
-10.25467
 20
-15.34708
 30
0.0
 10
-10.25778
 20
-15.34708
 30
0.0
 10
-10.26017
 20
-15.34822
 30
0.0
 10
-10.26182
 20
-15.35048
 30
0.0
 10
-10.26182
 20
-15.35048
 30
0.0
 10
-10.26347
 20
-15.35275
 30
0.0
 10
-10.26428
 20
-15.35602
 30
0.0
 10
-10.26428
 20
-15.36032
 30
0.0
 10
-10.26428
 20
-15.36032
 30
0.0
 10
-10.26428
 20
-15.36458
 30
0.0
 10
-10.26347
 20
-15.36785
 30
0.0
 10
-10.26182
 20
-15.37012
 30
0.0
 10
-10.26182
 20
-15.37012
 30
0.0
 10
-10.26017
 20
-15.37239
 30
0.0
 10
-10.25778
 20
-15.37352
 30
0.0
 10
-10.25467
 20
-15.37352
 30
0.0
 10
-10.25467
 20
-15.37352
 30
0.0
 10
-10.25153
 20
-15.37352
 30
0.0
 10
-10.24913
 20
-15.37239
 30
0.0
 10
-10.24747
 20
-15.37012
 30
0.0
 10
-10.24747
 20
-15.37012
 30
0.0
 10
-10.24578
 20
-15.36785
 30
0.0
 10
-10.24495
 20
-15.36458
 30
0.0
 10
-10.24495
 20
-15.36032
 30
0.0
 10
-10.24495
 20
-15.36032
 30
0.0
 10
-10.24495
 20
-15.35605
 30
0.0
 10
-10.24578
 20
-15.35278
 30
0.0
 10
-10.24747
 20
-15.3505
 30
0.0
 10
-10.24747
 20
-15.3505
 30
0.0
 10
-10.24913
 20
-15.34822
 30
0.0
 10
-10.25153
 20
-15.34708
 30
0.0
 10
-10.25467
 20
-15.34708
 30
0.0
  0
SPLINE
  5
A8
330
1F
100
AcDbEntity
  8
Layer 1
 62
   250
100
AcDbSpline
210
0.0
220
0.0
230
1.0
 70
    11
 71
     3
 72
    72
 73
    68
 74
     0
 42
0.0000000001
 43
0.0000000001
 40
0.0
 40
0.0
 40
0.0
 40
0.0
 40
0.0588235294117647
 40
0.0588235294117647
 40
0.0588235294117647
 40
0.0588235294117647
 40
0.1176470588235294
 40
0.1176470588235294
 40
0.1176470588235294
 40
0.1176470588235294
 40
0.1764705882352941
 40
0.1764705882352941
 40
0.1764705882352941
 40
0.1764705882352941
 40
0.2352941176470588
 40
0.2352941176470588
 40
0.2352941176470588
 40
0.2352941176470588
 40
0.2941176470588235
 40
0.2941176470588235
 40
0.2941176470588235
 40
0.2941176470588235
 40
0.3529411764705883
 40
0.3529411764705883
 40
0.3529411764705883
 40
0.3529411764705883
 40
0.411764705882353
 40
0.411764705882353
 40
0.411764705882353
 40
0.411764705882353
 40
0.4705882352941177
 40
0.4705882352941177
 40
0.4705882352941177
 40
0.4705882352941177
 40
0.5294117647058824
 40
0.5294117647058824
 40
0.5294117647058824
 40
0.5294117647058824
 40
0.5882352941176471
 40
0.5882352941176471
 40
0.5882352941176471
 40
0.5882352941176471
 40
0.6470588235294118
 40
0.6470588235294118
 40
0.6470588235294118
 40
0.6470588235294118
 40
0.7058823529411765
 40
0.7058823529411765
 40
0.7058823529411765
 40
0.7058823529411765
 40
0.7647058823529412
 40
0.7647058823529412
 40
0.7647058823529412
 40
0.7647058823529412
 40
0.823529411764706
 40
0.823529411764706
 40
0.823529411764706
 40
0.823529411764706
 40
0.8823529411764707
 40
0.8823529411764707
 40
0.8823529411764707
 40
0.8823529411764707
 40
0.9411764705882354
 40
0.9411764705882354
 40
0.9411764705882354
 40
0.9411764705882354
 40
1.0
 40
1.0
 40
1.0
 40
1.0
 10
-10.23578
 20
-15.31243
 30
0.0
 10
-10.23578
 20
-15.31243
 30
0.0
 10
-10.23578
 20
-15.32551
 30
0.0
 10
-10.23578
 20
-15.32551
 30
0.0
 10
-10.23578
 20
-15.32551
 30
0.0
 10
-10.23835
 20
-15.32405
 30
0.0
 10
-10.24082
 20
-15.32295
 30
0.0
 10
-10.24318
 20
-15.32221
 30
0.0
 10
-10.24318
 20
-15.32221
 30
0.0
 10
-10.24553
 20
-15.32148
 30
0.0
 10
-10.2478
 20
-15.32111
 30
0.0
 10
-10.24998
 20
-15.32111
 30
0.0
 10
-10.24998
 20
-15.32111
 30
0.0
 10
-10.25518
 20
-15.32111
 30
0.0
 10
-10.25915
 20
-15.32286
 30
0.0
 10
-10.26187
 20
-15.32636
 30
0.0
 10
-10.26187
 20
-15.32636
 30
0.0
 10
-10.26458
 20
-15.32986
 30
0.0
 10
-10.266
 20
-15.33503
 30
0.0
 10
-10.26613
 20
-15.34187
 30
0.0
 10
-10.26613
 20
-15.34187
 30
0.0
 10
-10.2646
 20
-15.33975
 30
0.0
 10
-10.26265
 20
-15.33817
 30
0.0
 10
-10.26028
 20
-15.3371
 30
0.0
 10
-10.26028
 20
-15.3371
 30
0.0
 10
-10.2579
 20
-15.33605
 30
0.0
 10
-10.2551
 20
-15.33552
 30
0.0
 10
-10.25188
 20
-15.33552
 30
0.0
 10
-10.25188
 20
-15.33552
 30
0.0
 10
-10.2453
 20
-15.33552
 30
0.0
 10
-10.24023
 20
-15.3376
 30
0.0
 10
-10.23665
 20
-15.34175
 30
0.0
 10
-10.23665
 20
-15.34175
 30
0.0
 10
-10.23306
 20
-15.3459
 30
0.0
 10
-10.23128
 20
-15.35178
 30
0.0
 10
-10.23128
 20
-15.3594
 30
0.0
 10
-10.23128
 20
-15.3594
 30
0.0
 10
-10.23128
 20
-15.36757
 30
0.0
 10
-10.2333
 20
-15.3739
 30
0.0
 10
-10.23732
 20
-15.3784
 30
0.0
 10
-10.23732
 20
-15.3784
 30
0.0
 10
-10.24133
 20
-15.38289
 30
0.0
 10
-10.24698
 20
-15.38514
 30
0.0
 10
-10.25428
 20
-15.38514
 30
0.0
 10
-10.25428
 20
-15.38514
 30
0.0
 10
-10.26317
 20
-15.38514
 30
0.0
 10
-10.26962
 20
-15.38215
 30
0.0
 10
-10.27364
 20
-15.3762
 30
0.0
 10
-10.27364
 20
-15.3762
 30
0.0
 10
-10.27765
 20
-15.37024
 30
0.0
 10
-10.27967
 20
-15.36062
 30
0.0
 10
-10.27967
 20
-15.34733
 30
0.0
 10
-10.27967
 20
-15.34733
 30
0.0
 10
-10.27967
 20
-15.33472
 30
0.0
 10
-10.27722
 20
-15.32525
 30
0.0
 10
-10.2723
 20
-15.31895
 30
0.0
 10
-10.2723
 20
-15.31895
 30
0.0
 10
-10.26738
 20
-15.31265
 30
0.0
 10
-10.26002
 20
-15.3095
 30
0.0
 10
-10.25018
 20
-15.3095
 30
0.0
 10
-10.25018
 20
-15.3095
 30
0.0
 10
-10.2479
 20
-15.3095
 30
0.0
 10
-10.24555
 20
-15.30975
 30
0.0
 10
-10.24313
 20
-15.31023
 30
0.0
 10
-10.24313
 20
-15.31023
 30
0.0
 10
-10.2407
 20
-15.31071
 30
0.0
 10
-10.23825
 20
-15.31145
 30
0.0
 10
-10.23578
 20
-15.31243
 30
0.0
  0
SPLINE
  5
A9
330
1F
100
AcDbEntity
  8
Layer 1
 62
   250
100
AcDbSpline
210
0.0
220
0.0
230
1.0
 70
    11
 71
     3
 72
   120
 73
   116
 74
     0
 42
0.0000000001
 43
0.0000000001
 40
0.0
 40
0.0
 40
0.0
 40
0.0
 40
0.0344827586206897
 40
0.0344827586206897
 40
0.0344827586206897
 40
0.0344827586206897
 40
0.0689655172413793
 40
0.0689655172413793
 40
0.0689655172413793
 40
0.0689655172413793
 40
0.103448275862069
 40
0.103448275862069
 40
0.103448275862069
 40
0.103448275862069
 40
0.1379310344827586
 40
0.1379310344827586
 40
0.1379310344827586
 40
0.1379310344827586
 40
0.1724137931034483
 40
0.1724137931034483
 40
0.1724137931034483
 40
0.1724137931034483
 40
0.206896551724138
 40
0.206896551724138
 40
0.206896551724138
 40
0.206896551724138
 40
0.2413793103448276
 40
0.2413793103448276
 40
0.2413793103448276
 40
0.2413793103448276
 40
0.2758620689655173
 40
0.2758620689655173
 40
0.2758620689655173
 40
0.2758620689655173
 40
0.310344827586207
 40
0.310344827586207
 40
0.310344827586207
 40
0.310344827586207
 40
0.3448275862068966
 40
0.3448275862068966
 40
0.3448275862068966
 40
0.3448275862068966
 40
0.3793103448275863
 40
0.3793103448275863
 40
0.3793103448275863
 40
0.3793103448275863
 40
0.413793103448276
 40
0.413793103448276
 40
0.413793103448276
 40
0.413793103448276
 40
0.4482758620689656
 40
0.4482758620689656
 40
0.4482758620689656
 40
0.4482758620689656
 40
0.4827586206896553
 40
0.4827586206896553
 40
0.4827586206896553
 40
0.4827586206896553
 40
0.517241379310345
 40
0.517241379310345
 40
0.517241379310345
 40
0.517241379310345
 40
0.5517241379310346
 40
0.5517241379310346
 40
0.5517241379310346
 40
0.5517241379310346
 40
0.5862068965517242
 40
0.5862068965517242
 40
0.5862068965517242
 40
0.5862068965517242
 40
0.6206896551724138
 40
0.6206896551724138
 40
0.6206896551724138
 40
0.6206896551724138
 40
0.6551724137931034
 40
0.6551724137931034
 40
0.6551724137931034
 40
0.6551724137931034
 40
0.689655172413793
 40
0.689655172413793
 40
0.689655172413793
 40
0.689655172413793
 40
0.7241379310344827
 40
0.7241379310344827
 40
0.7241379310344827
 40
0.7241379310344827
 40
0.7586206896551723
 40
0.7586206896551723
 40
0.7586206896551723
 40
0.7586206896551723
 40
0.7931034482758619
 40
0.7931034482758619
 40
0.7931034482758619
 40
0.7931034482758619
 40
0.8275862068965515
 40
0.8275862068965515
 40
0.8275862068965515
 40
0.8275862068965515
 40
0.8620689655172411
 40
0.8620689655172411
 40
0.8620689655172411
 40
0.8620689655172411
 40
0.8965517241379307
 40
0.8965517241379307
 40
0.8965517241379307
 40
0.8965517241379307
 40
0.9310344827586203
 40
0.9310344827586203
 40
0.9310344827586203
 40
0.9310344827586203
 40
0.9655172413793099
 40
0.9655172413793099
 40
0.9655172413793099
 40
0.9655172413793099
 40
1.0
 40
1.0
 40
1.0
 40
1.0
 10
-10.19906
 20
-15.351
 30
0.0
 10
-10.19906
 20
-15.351
 30
0.0
 10
-10.20677
 20
-15.351
 30
0.0
 10
-10.20677
 20
-15.351
 30
0.0
 10
-10.20677
 20
-15.351
 30
0.0
 10
-10.20677
 20
-15.351
 30
0.0
 10
-10.20677
 20
-15.3383
 30
0.0
 10
-10.20677
 20
-15.3383
 30
0.0
 10
-10.20677
 20
-15.3383
 30
0.0
 10
-10.20677
 20
-15.3383
 30
0.0
 10
-10.19906
 20
-15.3383
 30
0.0
 10
-10.19906
 20
-15.3383
 30
0.0
 10
-10.19906
 20
-15.3383
 30
0.0
 10
-10.19549
 20
-15.3383
 30
0.0
 10
-10.19271
 20
-15.3376
 30
0.0
 10
-10.19074
 20
-15.33618
 30
0.0
 10
-10.19074
 20
-15.33618
 30
0.0
 10
-10.18877
 20
-15.33477
 30
0.0
 10
-10.18779
 20
-15.33276
 30
0.0
 10
-10.18779
 20
-15.3302
 30
0.0
 10
-10.18779
 20
-15.3302
 30
0.0
 10
-10.18779
 20
-15.3275
 30
0.0
 10
-10.18877
 20
-15.32538
 30
0.0
 10
-10.19074
 20
-15.32386
 30
0.0
 10
-10.19074
 20
-15.32386
 30
0.0
 10
-10.19271
 20
-15.32235
 30
0.0
 10
-10.19549
 20
-15.3216
 30
0.0
 10
-10.19906
 20
-15.3216
 30
0.0
 10
-10.19906
 20
-15.3216
 30
0.0
 10
-10.20179
 20
-15.3216
 30
0.0
 10
-10.20472
 20
-15.32195
 30
0.0
 10
-10.20784
 20
-15.32263
 30
0.0
 10
-10.20784
 20
-15.32263
 30
0.0
 10
-10.21098
 20
-15.32331
 30
0.0
 10
-10.21421
 20
-15.32431
 30
0.0
 10
-10.21756
 20
-15.32561
 30
0.0
 10
-10.21756
 20
-15.32561
 30
0.0
 10
-10.21756
 20
-15.32561
 30
0.0
 10
-10.21756
 20
-15.31253
 30
0.0
 10
-10.21756
 20
-15.31253
 30
0.0
 10
-10.21756
 20
-15.31253
 30
0.0
 10
-10.21421
 20
-15.31151
 30
0.0
 10
-10.21091
 20
-15.31075
 30
0.0
 10
-10.20766
 20
-15.3102
 30
0.0
 10
-10.20766
 20
-15.3102
 30
0.0
 10
-10.20439
 20
-15.30966
 30
0.0
 10
-10.20127
 20
-15.3094
 30
0.0
 10
-10.19827
 20
-15.3094
 30
0.0
 10
-10.19827
 20
-15.3094
 30
0.0
 10
-10.19059
 20
-15.3094
 30
0.0
 10
-10.18461
 20
-15.31108
 30
0.0
 10
-10.18032
 20
-15.31443
 30
0.0
 10
-10.18032
 20
-15.31443
 30
0.0
 10
-10.17602
 20
-15.31778
 30
0.0
 10
-10.17387
 20
-15.3224
 30
0.0
 10
-10.17387
 20
-15.3283
 30
0.0
 10
-10.17387
 20
-15.3283
 30
0.0
 10
-10.17387
 20
-15.33261
 30
0.0
 10
-10.1751
 20
-15.33617
 30
0.0
 10
-10.17759
 20
-15.33892
 30
0.0
 10
-10.17759
 20
-15.33892
 30
0.0
 10
-10.18006
 20
-15.34167
 30
0.0
 10
-10.18359
 20
-15.34347
 30
0.0
 10
-10.18817
 20
-15.3443
 30
0.0
 10
-10.18817
 20
-15.3443
 30
0.0
 10
-10.18297
 20
-15.34522
 30
0.0
 10
-10.17899
 20
-15.3473
 30
0.0
 10
-10.17626
 20
-15.35053
 30
0.0
 10
-10.17626
 20
-15.35053
 30
0.0
 10
-10.17352
 20
-15.35377
 30
0.0
 10
-10.17215
 20
-15.35803
 30
0.0
 10
-10.17215
 20
-15.3633
 30
0.0
 10
-10.17215
 20
-15.3633
 30
0.0
 10
-10.17215
 20
-15.37037
 30
0.0
 10
-10.17442
 20
-15.37575
 30
0.0
 10
-10.17894
 20
-15.37947
 30
0.0
 10
-10.17894
 20
-15.37947
 30
0.0
 10
-10.18347
 20
-15.38319
 30
0.0
 10
-10.19004
 20
-15.38504
 30
0.0
 10
-10.19867
 20
-15.38504
 30
0.0
 10
-10.19867
 20
-15.38504
 30
0.0
 10
-10.20234
 20
-15.38504
 30
0.0
 10
-10.20596
 20
-15.38472
 30
0.0
 10
-10.20953
 20
-15.3841
 30
0.0
 10
-10.20953
 20
-15.3841
 30
0.0
 10
-10.21309
 20
-15.38349
 30
0.0
 10
-10.21651
 20
-15.38259
 30
0.0
 10
-10.21976
 20
-15.38142
 30
0.0
 10
-10.21976
 20
-15.38142
 30
0.0
 10
-10.21976
 20
-15.38142
 30
0.0
 10
-10.21976
 20
-15.36804
 30
0.0
 10
-10.21976
 20
-15.36804
 30
0.0
 10
-10.21976
 20
-15.36804
 30
0.0
 10
-10.21669
 20
-15.36957
 30
0.0
 10
-10.21339
 20
-15.37074
 30
0.0
 10
-10.20984
 20
-15.37154
 30
0.0
 10
-10.20984
 20
-15.37154
 30
0.0
 10
-10.20631
 20
-15.37234
 30
0.0
 10
-10.20257
 20
-15.37274
 30
0.0
 10
-10.19867
 20
-15.37274
 30
0.0
 10
-10.19867
 20
-15.37274
 30
0.0
 10
-10.19476
 20
-15.37274
 30
0.0
 10
-10.19167
 20
-15.37184
 30
0.0
 10
-10.18939
 20
-15.37002
 30
0.0
 10
-10.18939
 20
-15.37002
 30
0.0
 10
-10.18711
 20
-15.36822
 30
0.0
 10
-10.18597
 20
-15.36578
 30
0.0
 10
-10.18597
 20
-15.36272
 30
0.0
 10
-10.18597
 20
-15.36272
 30
0.0
 10
-10.18597
 20
-15.35898
 30
0.0
 10
-10.18711
 20
-15.35608
 30
0.0
 10
-10.18939
 20
-15.35405
 30
0.0
 10
-10.18939
 20
-15.35405
 30
0.0
 10
-10.19167
 20
-15.35202
 30
0.0
 10
-10.19489
 20
-15.351
 30
0.0
 10
-10.19906
 20
-15.351
 30
0.0
  0
SPLINE
  5
AA
330
1F
100
AcDbEntity
  8
Layer 1
 62
   250
100
AcDbSpline
210
0.0
220
0.0
230
1.0
 70
    11
 71
     3
 72
    36
 73
    32
 74
     0
 42
0.0000000001
 43
0.0000000001
 40
0.0
 40
0.0
 40
0.0
 40
0.0
 40
0.125
 40
0.125
 40
0.125
 40
0.125
 40
0.25
 40
0.25
 40
0.25
 40
0.25
 40
0.375
 40
0.375
 40
0.375
 40
0.375
 40
0.5
 40
0.5
 40
0.5
 40
0.5
 40
0.625
 40
0.625
 40
0.625
 40
0.625
 40
0.75
 40
0.75
 40
0.75
 40
0.75
 40
0.875
 40
0.875
 40
0.875
 40
0.875
 40
1.0
 40
1.0
 40
1.0
 40
1.0
 10
-10.13556
 20
-15.35108
 30
0.0
 10
-10.1388
 20
-15.35108
 30
0.0
 10
-10.1414
 20
-15.3521
 30
0.0
 10
-10.14338
 20
-15.35413
 30
0.0
 10
-10.14338
 20
-15.35413
 30
0.0
 10
-10.14536
 20
-15.35617
 30
0.0
 10
-10.14636
 20
-15.35887
 30
0.0
 10
-10.14636
 20
-15.36223
 30
0.0
 10
-10.14636
 20
-15.36223
 30
0.0
 10
-10.14636
 20
-15.36558
 30
0.0
 10
-10.14536
 20
-15.36829
 30
0.0
 10
-10.14338
 20
-15.37034
 30
0.0
 10
-10.14338
 20
-15.37034
 30
0.0
 10
-10.1414
 20
-15.37239
 30
0.0
 10
-10.1388
 20
-15.37342
 30
0.0
 10
-10.13556
 20
-15.37342
 30
0.0
 10
-10.13556
 20
-15.37342
 30
0.0
 10
-10.13235
 20
-15.37342
 30
0.0
 10
-10.12973
 20
-15.37237
 30
0.0
 10
-10.12773
 20
-15.37029
 30
0.0
 10
-10.12773
 20
-15.37029
 30
0.0
 10
-10.12573
 20
-15.3682
 30
0.0
 10
-10.12473
 20
-15.36552
 30
0.0
 10
-10.12473
 20
-15.36223
 30
0.0
 10
-10.12473
 20
-15.36223
 30
0.0
 10
-10.12473
 20
-15.35887
 30
0.0
 10
-10.12573
 20
-15.35617
 30
0.0
 10
-10.12771
 20
-15.35413
 30
0.0
 10
-10.12771
 20
-15.35413
 30
0.0
 10
-10.1297
 20
-15.3521
 30
0.0
 10
-10.13231
 20
-15.35108
 30
0.0
 10
-10.13556
 20
-15.35108
 30
0.0
  0
SPLINE
  5
AB
330
1F
100
AcDbEntity
  8
Layer 1
 62
   250
100
AcDbSpline
210
0.0
220
0.0
230
1.0
 70
    11
 71
     3
 72
    68
 73
    64
 74
     0
 42
0.0000000001
 43
0.0000000001
 40
0.0
 40
0.0
 40
0.0
 40
0.0
 40
0.0625
 40
0.0625
 40
0.0625
 40
0.0625
 40
0.125
 40
0.125
 40
0.125
 40
0.125
 40
0.1875
 40
0.1875
 40
0.1875
 40
0.1875
 40
0.25
 40
0.25
 40
0.25
 40
0.25
 40
0.3125
 40
0.3125
 40
0.3125
 40
0.3125
 40
0.375
 40
0.375
 40
0.375
 40
0.375
 40
0.4375
 40
0.4375
 40
0.4375
 40
0.4375
 40
0.5
 40
0.5
 40
0.5
 40
0.5
 40
0.5625
 40
0.5625
 40
0.5625
 40
0.5625
 40
0.625
 40
0.625
 40
0.625
 40
0.625
 40
0.6875
 40
0.6875
 40
0.6875
 40
0.6875
 40
0.75
 40
0.75
 40
0.75
 40
0.75
 40
0.8125
 40
0.8125
 40
0.8125
 40
0.8125
 40
0.875
 40
0.875
 40
0.875
 40
0.875
 40
0.9375
 40
0.9375
 40
0.9375
 40
0.9375
 40
1.0
 40
1.0
 40
1.0
 40
1.0
 10
-10.14626
 20
-15.34498
 30
0.0
 10
-10.14995
 20
-15.34372
 30
0.0
 10
-10.15275
 20
-15.34172
 30
0.0
 10
-10.15467
 20
-15.339
 30
0.0
 10
-10.15467
 20
-15.339
 30
0.0
 10
-10.15658
 20
-15.33628
 30
0.0
 10
-10.15755
 20
-15.33296
 30
0.0
 10
-10.15755
 20
-15.32901
 30
0.0
 10
-10.15755
 20
-15.32901
 30
0.0
 10
-10.15755
 20
-15.32296
 30
0.0
 10
-10.15558
 20
-15.31818
 30
0.0
 10
-10.15163
 20
-15.31466
 30
0.0
 10
-10.15163
 20
-15.31466
 30
0.0
 10
-10.1477
 20
-15.31115
 30
0.0
 10
-10.14235
 20
-15.3094
 30
0.0
 10
-10.13556
 20
-15.3094
 30
0.0
 10
-10.13556
 20
-15.3094
 30
0.0
 10
-10.12876
 20
-15.3094
 30
0.0
 10
-10.1234
 20
-15.31115
 30
0.0
 10
-10.11946
 20
-15.31466
 30
0.0
 10
-10.11946
 20
-15.31466
 30
0.0
 10
-10.11551
 20
-15.31818
 30
0.0
 10
-10.11354
 20
-15.32296
 30
0.0
 10
-10.11354
 20
-15.32901
 30
0.0
 10
-10.11354
 20
-15.32901
 30
0.0
 10
-10.11354
 20
-15.33293
 30
0.0
 10
-10.11449
 20
-15.33623
 30
0.0
 10
-10.11638
 20
-15.33895
 30
0.0
 10
-10.11638
 20
-15.33895
 30
0.0
 10
-10.11826
 20
-15.34167
 30
0.0
 10
-10.12101
 20
-15.34368
 30
0.0
 10
-10.12463
 20
-15.34498
 30
0.0
 10
-10.12463
 20
-15.34498
 30
0.0
 10
-10.1206
 20
-15.34622
 30
0.0
 10
-10.11745
 20
-15.34843
 30
0.0
 10
-10.11516
 20
-15.35163
 30
0.0
 10
-10.11516
 20
-15.35163
 30
0.0
 10
-10.11288
 20
-15.35482
 30
0.0
 10
-10.11174
 20
-15.35865
 30
0.0
 10
-10.11174
 20
-15.3631
 30
0.0
 10
-10.11174
 20
-15.3631
 30
0.0
 10
-10.11174
 20
-15.3701
 30
0.0
 10
-10.11381
 20
-15.37552
 30
0.0
 10
-10.11795
 20
-15.37932
 30
0.0
 10
-10.11795
 20
-15.37932
 30
0.0
 10
-10.12208
 20
-15.38314
 30
0.0
 10
-10.12796
 20
-15.38504
 30
0.0
 10
-10.13556
 20
-15.38504
 30
0.0
 10
-10.13556
 20
-15.38504
 30
0.0
 10
-10.14315
 20
-15.38504
 30
0.0
 10
-10.14902
 20
-15.38314
 30
0.0
 10
-10.15315
 20
-15.37932
 30
0.0
 10
-10.15315
 20
-15.37932
 30
0.0
 10
-10.15728
 20
-15.37552
 30
0.0
 10
-10.15935
 20
-15.3701
 30
0.0
 10
-10.15935
 20
-15.3631
 30
0.0
 10
-10.15935
 20
-15.3631
 30
0.0
 10
-10.15935
 20
-15.35862
 30
0.0
 10
-10.1582
 20
-15.35477
 30
0.0
 10
-10.15588
 20
-15.35158
 30
0.0
 10
-10.15588
 20
-15.35158
 30
0.0
 10
-10.15357
 20
-15.34838
 30
0.0
 10
-10.15037
 20
-15.34618
 30
0.0
 10
-10.14626
 20
-15.34498
 30
0.0
  0
SPLINE
  5
AC
330
1F
100
AcDbEntity
  8
Layer 1
 62
   250
100
AcDbSpline
210
0.0
220
0.0
230
1.0
 70
    11
 71
     3
 72
    36
 73
    32
 74
     0
 42
0.0000000001
 43
0.0000000001
 40
0.0
 40
0.0
 40
0.0
 40
0.0
 40
0.125
 40
0.125
 40
0.125
 40
0.125
 40
0.25
 40
0.25
 40
0.25
 40
0.25
 40
0.375
 40
0.375
 40
0.375
 40
0.375
 40
0.5
 40
0.5
 40
0.5
 40
0.5
 40
0.625
 40
0.625
 40
0.625
 40
0.625
 40
0.75
 40
0.75
 40
0.75
 40
0.75
 40
0.875
 40
0.875
 40
0.875
 40
0.875
 40
1.0
 40
1.0
 40
1.0
 40
1.0
 10
-10.14475
 20
-15.3302
 30
0.0
 10
-10.14475
 20
-15.33305
 30
0.0
 10
-10.14393
 20
-15.33533
 30
0.0
 10
-10.14228
 20
-15.337
 30
0.0
 10
-10.14228
 20
-15.337
 30
0.0
 10
-10.14065
 20
-15.33868
 30
0.0
 10
-10.1384
 20
-15.33952
 30
0.0
 10
-10.13556
 20
-15.33952
 30
0.0
 10
-10.13556
 20
-15.33952
 30
0.0
 10
-10.13271
 20
-15.33952
 30
0.0
 10
-10.13045
 20
-15.33868
 30
0.0
 10
-10.12881
 20
-15.337
 30
0.0
 10
-10.12881
 20
-15.337
 30
0.0
 10
-10.12716
 20
-15.33533
 30
0.0
 10
-10.12635
 20
-15.33305
 30
0.0
 10
-10.12635
 20
-15.3302
 30
0.0
 10
-10.12635
 20
-15.3302
 30
0.0
 10
-10.12635
 20
-15.32736
 30
0.0
 10
-10.12716
 20
-15.32513
 30
0.0
 10
-10.12881
 20
-15.32348
 30
0.0
 10
-10.12881
 20
-15.32348
 30
0.0
 10
-10.13045
 20
-15.32183
 30
0.0
 10
-10.13271
 20
-15.32101
 30
0.0
 10
-10.13556
 20
-15.32101
 30
0.0
 10
-10.13556
 20
-15.32101
 30
0.0
 10
-10.13836
 20
-15.32101
 30
0.0
 10
-10.1406
 20
-15.32185
 30
0.0
 10
-10.14226
 20
-15.3235
 30
0.0
 10
-10.14226
 20
-15.3235
 30
0.0
 10
-10.14391
 20
-15.32516
 30
0.0
 10
-10.14475
 20
-15.3274
 30
0.0
 10
-10.14475
 20
-15.3302
 30
0.0
  0
ENDSEC
  0
SECTION
  2
OBJECTS
  0
DICTIONARY
  5
C
330
0
100
AcDbDictionary
281
     1
  3
ACAD_GROUP
350
D
  3
ACAD_LAYOUT
350
1A
  3
ACAD_MLEADERSTYLE
350
AE
  3
ACAD_MLINESTYLE
350
17
  3
ACAD_PLOTSETTINGS
350
19
  3
ACAD_PLOTSTYLENAME
350
E
  3
ACAD_SCALELIST
350
3B
  3
ACAD_TABLESTYLE
350
AD
  3
ACAD_VISUALSTYLE
350
2A
  0
DICTIONARY
  5
D
102
{ACAD_REACTORS
330
C
102
}
330
C
100
AcDbDictionary
281
     1
  0
DICTIONARY
  5
1A
102
{ACAD_REACTORS
330
C
102
}
330
C
100
AcDbDictionary
281
     1
  3
Layout1
350
1E
  3
Layout2
350
26
  3
Model
350
22
  0
DICTIONARY
  5
AE
102
{ACAD_REACTORS
330
C
102
}
330
C
100
AcDbDictionary
281
     1
  0
DICTIONARY
  5
17
102
{ACAD_REACTORS
330
C
102
}
330
C
100
AcDbDictionary
281
     1
  3
Standard
350
18
  0
DICTIONARY
  5
19
102
{ACAD_REACTORS
330
C
102
}
330
C
100
AcDbDictionary
281
     1
  0
ACDBDICTIONARYWDFLT
  5
E
102
{ACAD_REACTORS
330
C
102
}
330
C
100
AcDbDictionary
281
     1
  3
Normal
350
F
100
AcDbDictionaryWithDefault
340
F
  0
DICTIONARY
  5
3B
102
{ACAD_REACTORS
330
C
102
}
330
C
100
AcDbDictionary
281
     1
  3
A0
350
3C
  3
A1
350
3D
  3
A2
350
3E
  3
A3
350
3F
  3
A4
350
40
  3
A5
350
41
  3
A6
350
42
  3
A7
350
43
  3
A8
350
44
  3
A9
350
45
  3
B0
350
46
  3
B1
350
47
  3
B2
350
48
  3
B3
350
49
  3
B4
350
4A
  3
B5
350
4B
  3
B6
350
4C
  3
B7
350
4D
  3
B8
350
4E
  3
B9
350
4F
  3
C0
350
50
  3
C1
350
51
  3
C2
350
52
  3
C3
350
53
  3
C4
350
54
  3
C5
350
55
  3
C6
350
56
  3
C7
350
57
  3
C8
350
58
  3
C9
350
59
  3
D0
350
5A
  3
D1
350
5B
  3
D2
350
5C
  0
DICTIONARY
  5
AD
102
{ACAD_REACTORS
330
C
102
}
330
C
100
AcDbDictionary
281
     1
  0
DICTIONARY
  5
2A
102
{ACAD_REACTORS
330
C
102
}
330
C
100
AcDbDictionary
281
     1
  3
2dWireframe
350
2F
  3
3D Hidden
350
31
  3
3dWireframe
350
30
  3
Basic
350
32
  3
Brighten
350
36
  3
ColorChange
350
3A
  3
Conceptual
350
34
  3
Dim
350
35
  3
Facepattern
350
39
  3
Flat
350
2B
  3
FlatWithEdges
350
2C
  3
Gouraud
350
2D
  3
GouraudWithEdges
350
2E
  3
Linepattern
350
38
  3
Realistic
350
33
  3
Thicken
350
37
  0
LAYOUT
  5
1E
102
{ACAD_REACTORS
330
1A
102
}
330
1A
100
AcDbPlotSettings
  1

  2
none_device
  4

  6

 40
0.0
 41
0.0
 42
0.0
 43
0.0
 44
0.0
 45
0.0
 46
0.0
 47
0.0
 48
0.0
 49
0.0
140
0.0
141
0.0
142
1.0
143
1.0
 70
   688
 72
     0
 73
     0
 74
     5
  7

 75
    16
 76
     0
 77
     2
 78
   300
147
1.0
148
0.0
149
0.0
100
AcDbLayout
  1
Layout1
 70
     1
 71
     1
 10
0.0
 20
0.0
 11
12.0
 21
9.0
 12
0.0
 22
0.0
 32
0.0
 14
1.000000000000000E+20
 24
1.000000000000000E+20
 34
1.000000000000000E+20
 15
-1.000000000000000E+20
 25
-1.000000000000000E+20
 35
-1.000000000000000E+20
146
0.0
 13
0.0
 23
0.0
 33
0.0
 16
1.0
 26
0.0
 36
0.0
 17
0.0
 27
1.0
 37
0.0
 76
     0
330
1B
  0
LAYOUT
  5
26
102
{ACAD_REACTORS
330
1A
102
}
330
1A
100
AcDbPlotSettings
  1

  2
none_device
  4

  6

 40
0.0
 41
0.0
 42
0.0
 43
0.0
 44
0.0
 45
0.0
 46
0.0
 47
0.0
 48
0.0
 49
0.0
140
0.0
141
0.0
142
1.0
143
1.0
 70
   688
 72
     0
 73
     0
 74
     5
  7

 75
    16
 76
     0
 77
     2
 78
   300
147
1.0
148
0.0
149
0.0
100
AcDbLayout
  1
Layout2
 70
     1
 71
     2
 10
0.0
 20
0.0
 11
0.0
 21
0.0
 12
0.0
 22
0.0
 32
0.0
 14
0.0
 24
0.0
 34
0.0
 15
0.0
 25
0.0
 35
0.0
146
0.0
 13
0.0
 23
0.0
 33
0.0
 16
1.0
 26
0.0
 36
0.0
 17
0.0
 27
1.0
 37
0.0
 76
     0
330
23
  0
LAYOUT
  5
22
102
{ACAD_REACTORS
330
1A
102
}
330
1A
100
AcDbPlotSettings
  1

  2
none_device
  4

  6

 40
0.0
 41
0.0
 42
0.0
 43
0.0
 44
0.0
 45
0.0
 46
0.0
 47
0.0
 48
0.0
 49
0.0
140
0.0
141
0.0
142
1.0
143
1.0
 70
  1712
 72
     0
 73
     0
 74
     0
  7

 75
     0
 76
     0
 77
     2
 78
   300
147
1.0
148
0.0
149
0.0
100
AcDbLayout
  1
Model
 70
     1
 71
     0
 10
0.0
 20
0.0
 11
12.0
 21
9.0
 12
0.0
 22
0.0
 32
0.0
 14
-11.55271
 24
-15.90292
 34
0.0
 15
-9.4473
 25
-13.85
 35
0.0
146
0.0
 13
0.0
 23
0.0
 33
0.0
 16
1.0
 26
0.0
 36
0.0
 17
0.0
 27
1.0
 37
0.0
 76
     0
330
1F
331
29
  0
MLINESTYLE
  5
18
102
{ACAD_REACTORS
330
17
102
}
330
17
100
AcDbMlineStyle
  2
Standard
 70
     0
  3

 62
   256
 51
90.0
 52
90.0
 71
     2
 49
0.5
 62
   256
  6
BYLAYER
 49
-0.5
 62
   256
  6
BYLAYER
  0
ACDBPLACEHOLDER
  5
F
102
{ACAD_REACTORS
330
E
102
}
330
E
  0
SCALE
  5
3C
102
{ACAD_REACTORS
330
3B
102
}
330
3B
100
AcDbScale
 70
     0
300
1:1
140
1.0
141
1.0
290
     1
  0
SCALE
  5
3D
102
{ACAD_REACTORS
330
3B
102
}
330
3B
100
AcDbScale
 70
     0
300
1:2
140
1.0
141
2.0
290
     0
  0
SCALE
  5
3E
102
{ACAD_REACTORS
330
3B
102
}
330
3B
100
AcDbScale
 70
     0
300
1:4
140
1.0
141
4.0
290
     0
  0
SCALE
  5
3F
102
{ACAD_REACTORS
330
3B
102
}
330
3B
100
AcDbScale
 70
     0
300
1:5
140
1.0
141
5.0
290
     0
  0
SCALE
  5
40
102
{ACAD_REACTORS
330
3B
102
}
330
3B
100
AcDbScale
 70
     0
300
1:8
140
1.0
141
8.0
290
     0
  0
SCALE
  5
41
102
{ACAD_REACTORS
330
3B
102
}
330
3B
100
AcDbScale
 70
     0
300
1:10
140
1.0
141
10.0
290
     0
  0
SCALE
  5
42
102
{ACAD_REACTORS
330
3B
102
}
330
3B
100
AcDbScale
 70
     0
300
1:16
140
1.0
141
16.0
290
     0
  0
SCALE
  5
43
102
{ACAD_REACTORS
330
3B
102
}
330
3B
100
AcDbScale
 70
     0
300
1:20
140
1.0
141
20.0
290
     0
  0
SCALE
  5
44
102
{ACAD_REACTORS
330
3B
102
}
330
3B
100
AcDbScale
 70
     0
300
1:30
140
1.0
141
30.0
290
     0
  0
SCALE
  5
45
102
{ACAD_REACTORS
330
3B
102
}
330
3B
100
AcDbScale
 70
     0
300
1:40
140
1.0
141
40.0
290
     0
  0
SCALE
  5
46
102
{ACAD_REACTORS
330
3B
102
}
330
3B
100
AcDbScale
 70
     0
300
1:50
140
1.0
141
50.0
290
     0
  0
SCALE
  5
47
102
{ACAD_REACTORS
330
3B
102
}
330
3B
100
AcDbScale
 70
     0
300
1:100
140
1.0
141
100.0
290
     0
  0
SCALE
  5
48
102
{ACAD_REACTORS
330
3B
102
}
330
3B
100
AcDbScale
 70
     0
300
2:1
140
2.0
141
1.0
290
     0
  0
SCALE
  5
49
102
{ACAD_REACTORS
330
3B
102
}
330
3B
100
AcDbScale
 70
     0
300
4:1
140
4.0
141
1.0
290
     0
  0
SCALE
  5
4A
102
{ACAD_REACTORS
330
3B
102
}
330
3B
100
AcDbScale
 70
     0
300
8:1
140
8.0
141
1.0
290
     0
  0
SCALE
  5
4B
102
{ACAD_REACTORS
330
3B
102
}
330
3B
100
AcDbScale
 70
     0
300
10:1
140
10.0
141
1.0
290
     0
  0
SCALE
  5
4C
102
{ACAD_REACTORS
330
3B
102
}
330
3B
100
AcDbScale
 70
     0
300
100:1
140
100.0
141
1.0
290
     0
  0
SCALE
  5
4D
102
{ACAD_REACTORS
330
3B
102
}
330
3B
100
AcDbScale
 70
     0
300
1/128" = 1'-0"
140
0.0078125
141
12.0
290
     0
  0
SCALE
  5
4E
102
{ACAD_REACTORS
330
3B
102
}
330
3B
100
AcDbScale
 70
     0
300
1/64" = 1'-0"
140
0.015625
141
12.0
290
     0
  0
SCALE
  5
4F
102
{ACAD_REACTORS
330
3B
102
}
330
3B
100
AcDbScale
 70
     0
300
1/32" = 1'-0"
140
0.03125
141
12.0
290
     0
  0
SCALE
  5
50
102
{ACAD_REACTORS
330
3B
102
}
330
3B
100
AcDbScale
 70
     0
300
1/16" = 1'-0"
140
0.0625
141
12.0
290
     0
  0
SCALE
  5
51
102
{ACAD_REACTORS
330
3B
102
}
330
3B
100
AcDbScale
 70
     0
300
3/32" = 1'-0"
140
0.09375
141
12.0
290
     0
  0
SCALE
  5
52
102
{ACAD_REACTORS
330
3B
102
}
330
3B
100
AcDbScale
 70
     0
300
1/8" = 1'-0"
140
0.125
141
12.0
290
     0
  0
SCALE
  5
53
102
{ACAD_REACTORS
330
3B
102
}
330
3B
100
AcDbScale
 70
     0
300
3/16" = 1'-0"
140
0.1875
141
12.0
290
     0
  0
SCALE
  5
54
102
{ACAD_REACTORS
330
3B
102
}
330
3B
100
AcDbScale
 70
     0
300
1/4" = 1'-0"
140
0.25
141
12.0
290
     0
  0
SCALE
  5
55
102
{ACAD_REACTORS
330
3B
102
}
330
3B
100
AcDbScale
 70
     0
300
3/8" = 1'-0"
140
0.375
141
12.0
290
     0
  0
SCALE
  5
56
102
{ACAD_REACTORS
330
3B
102
}
330
3B
100
AcDbScale
 70
     0
300
1/2" = 1'-0"
140
0.5
141
12.0
290
     0
  0
SCALE
  5
57
102
{ACAD_REACTORS
330
3B
102
}
330
3B
100
AcDbScale
 70
     0
300
3/4" = 1'-0"
140
0.75
141
12.0
290
     0
  0
SCALE
  5
58
102
{ACAD_REACTORS
330
3B
102
}
330
3B
100
AcDbScale
 70
     0
300
1" = 1'-0"
140
1.0
141
12.0
290
     0
  0
SCALE
  5
59
102
{ACAD_REACTORS
330
3B
102
}
330
3B
100
AcDbScale
 70
     0
300
1-1/2" = 1'-0"
140
1.5
141
12.0
290
     0
  0
SCALE
  5
5A
102
{ACAD_REACTORS
330
3B
102
}
330
3B
100
AcDbScale
 70
     0
300
3" = 1'-0"
140
3.0
141
12.0
290
     0
  0
SCALE
  5
5B
102
{ACAD_REACTORS
330
3B
102
}
330
3B
100
AcDbScale
 70
     0
300
6" = 1'-0"
140
6.0
141
12.0
290
     0
  0
SCALE
  5
5C
102
{ACAD_REACTORS
330
3B
102
}
330
3B
100
AcDbScale
 70
     0
300
1'-0" = 1'-0"
140
12.0
141
12.0
290
     0
  0
VISUALSTYLE
  5
2F
102
{ACAD_REACTORS
330
2A
102
}
330
2A
100
AcDbVisualStyle
  2
2dWireframe
 70
     4
 71
     0
 72
     2
 73
     0
 90
        0
 40
-0.6
 41
-30.0
 62
     5
 63
     7
421
 16777215
 74
     1
 91
        4
 64
     7
 65
   257
 75
     1
175
     1
 42
1.0
 92
        0
 66
   257
 43
1.0
 76
     1
 77
     6
 78
     2
 67
     7
 79
     5
170
     0
171
     0
290
     0
174
     0
 93
        1
 44
0.0
173
     0
291
     0
 45
0.0
  0
VISUALSTYLE
  5
31
102
{ACAD_REACTORS
330
2A
102
}
330
2A
100
AcDbVisualStyle
  2
3D Hidden
 70
     6
 71
     1
 72
     2
 73
     2
 90
        0
 40
-0.6
 41
-30.0
 62
     5
 63
     7
421
 16777215
 74
     2
 91
        2
 64
     7
 65
   257
 75
     2
175
     1
 42
40.0
 92
        0
 66
   257
 43
1.0
 76
     1
 77
     6
 78
     2
 67
     7
 79
     3
170
     0
171
     0
290
     0
174
     0
 93
        1
 44
0.0
173
     0
291
     0
 45
0.0
  0
VISUALSTYLE
  5
30
102
{ACAD_REACTORS
330
2A
102
}
330
2A
100
AcDbVisualStyle
  2
3dWireframe
 70
     5
 71
     0
 72
     2
 73
     0
 90
        0
 40
-0.6
 41
-30.0
 62
     5
 63
     7
421
 16777215
 74
     1
 91
        4
 64
     7
 65
   257
 75
     1
175
     1
 42
1.0
 92
        0
 66
   257
 43
1.0
 76
     1
 77
     6
 78
     2
 67
     7
 79
     5
170
     0
171
     0
290
     0
174
     0
 93
        1
 44
0.0
173
     0
291
     0
 45
0.0
  0
VISUALSTYLE
  5
32
102
{ACAD_REACTORS
330
2A
102
}
330
2A
100
AcDbVisualStyle
  2
Basic
 70
     7
 71
     1
 72
     0
 73
     1
 90
        0
 40
-0.6
 41
-30.0
 62
     5
 63
     7
421
 16777215
 74
     0
 91
        4
 64
     7
 65
   257
 75
     1
175
     1
 42
1.0
 92
        8
 66
     7
 43
1.0
 76
     1
 77
     6
 78
     2
 67
     7
 79
     5
170
     0
171
     0
290
     0
174
     0
 93
        1
 44
0.0
173
     0
291
     1
 45
0.0
  0
VISUALSTYLE
  5
36
102
{ACAD_REACTORS
330
2A
102
}
330
2A
100
AcDbVisualStyle
  2
Brighten
 70
    12
 71
     2
 72
     2
 73
     0
 90
        0
 40
-0.6
 41
-30.0
 62
     5
 63
     7
421
 16777215
 74
     1
 91
        4
 64
     7
 65
   257
 75
     1
175
     1
 42
1.0
 92
        8
 66
     7
 43
1.0
 76
     1
 77
     6
 78
     2
 67
     7
 79
     5
170
     0
171
     0
290
     0
174
     0
 93
        1
 44
50.0
173
     0
291
     1
 45
0.0
  0
VISUALSTYLE
  5
3A
102
{ACAD_REACTORS
330
2A
102
}
330
2A
100
AcDbVisualStyle
  2
ColorChange
 70
    16
 71
     2
 72
     2
 73
     3
 90
        0
 40
-0.6
 41
-30.0
 62
     5
 63
     8
421
  8421504
 74
     1
 91
        4
 64
     7
 65
   257
 75
     1
175
     1
 42
1.0
 92
        8
 66
     8
424
  8421504
 43
1.0
 76
     1
 77
     6
 78
     2
 67
     7
 79
     5
170
     0
171
     0
290
     0
174
     0
 93
        1
 44
0.0
173
     0
291
     1
 45
0.0
  0
VISUALSTYLE
  5
34
102
{ACAD_REACTORS
330
2A
102
}
330
2A
100
AcDbVisualStyle
  2
Conceptual
 70
     9
 71
     3
 72
     2
 73
     0
 90
        0
 40
-0.6
 41
-30.0
 62
     5
 63
     7
421
 16777215
 74
     2
 91
        2
 64
     7
 65
   257
 75
     1
175
     1
 42
40.0
 92
        8
 66
     7
 43
1.0
 76
     1
 77
     6
 78
     2
 67
     7
 79
     3
170
     0
171
     0
290
     0
174
     0
 93
        1
 44
0.0
173
     0
291
     0
 45
0.0
  0
VISUALSTYLE
  5
35
102
{ACAD_REACTORS
330
2A
102
}
330
2A
100
AcDbVisualStyle
  2
Dim
 70
    11
 71
     2
 72
     2
 73
     0
 90
        0
 40
-0.6
 41
-30.0
 62
     5
 63
     7
421
 16777215
 74
     1
 91
        4
 64
     7
 65
   257
 75
     1
175
     1
 42
1.0
 92
        8
 66
     7
 43
1.0
 76
     1
 77
     6
 78
     2
 67
     7
 79
     5
170
     0
171
     0
290
     0
174
     0
 93
        1
 44
-50.0
173
     0
291
     1
 45
0.0
  0
VISUALSTYLE
  5
39
102
{ACAD_REACTORS
330
2A
102
}
330
2A
100
AcDbVisualStyle
  2
Facepattern
 70
    15
 71
     2
 72
     2
 73
     0
 90
        0
 40
-0.6
 41
-30.0
 62
     5
 63
     7
421
 16777215
 74
     1
 91
        4
 64
     7
 65
   257
 75
     1
175
     1
 42
1.0
 92
        8
 66
     7
 43
1.0
 76
     1
 77
     6
 78
     2
 67
     7
 79
     5
170
     0
171
     0
290
     0
174
     0
 93
        1
 44
0.0
173
     0
291
     1
 45
0.0
  0
VISUALSTYLE
  5
2B
102
{ACAD_REACTORS
330
2A
102
}
330
2A
100
AcDbVisualStyle
  2
Flat
 70
     0
 71
     2
 72
     1
 73
     1
 90
        2
 40
-0.6
 41
30.0
 62
     5
 63
     7
421
 16777215
 74
     0
 91
        4
 64
     7
 65
   257
 75
     1
175
     1
 42
1.0
 92
        8
 66
     7
 43
1.0
 76
     1
 77
     6
 78
     2
 67
     7
 79
     5
170
     0
171
     0
290
     0
174
     0
 93
       13
 44
0.0
173
     0
291
     1
 45
0.0
  0
VISUALSTYLE
  5
2C
102
{ACAD_REACTORS
330
2A
102
}
330
2A
100
AcDbVisualStyle
  2
FlatWithEdges
 70
     1
 71
     2
 72
     1
 73
     1
 90
        2
 40
-0.6
 41
30.0
 62
     5
 63
     7
421
 16777215
 74
     1
 91
        4
 64
     7
 65
   257
 75
     1
175
     1
 42
1.0
 92
        0
 66
   257
 43
1.0
 76
     1
 77
     6
 78
     2
 67
     7
 79
     5
170
     0
171
     0
290
     0
174
     0
 93
       13
 44
0.0
173
     0
291
     1
 45
0.0
  0
VISUALSTYLE
  5
2D
102
{ACAD_REACTORS
330
2A
102
}
330
2A
100
AcDbVisualStyle
  2
Gouraud
 70
     2
 71
     2
 72
     2
 73
     1
 90
        2
 40
-0.6
 41
30.0
 62
     5
 63
     7
421
 16777215
 74
     0
 91
        4
 64
     7
 65
   257
 75
     1
175
     1
 42
1.0
 92
        0
 66
     7
 43
1.0
 76
     1
 77
     6
 78
     2
 67
     7
 79
     5
170
     0
171
     0
290
     0
174
     0
 93
       13
 44
0.0
173
     0
291
     1
 45
0.0
  0
VISUALSTYLE
  5
2E
102
{ACAD_REACTORS
330
2A
102
}
330
2A
100
AcDbVisualStyle
  2
GouraudWithEdges
 70
     3
 71
     2
 72
     2
 73
     1
 90
        2
 40
-0.6
 41
30.0
 62
     5
 63
     7
421
 16777215
 74
     1
 91
        4
 64
     7
 65
   257
 75
     1
175
     1
 42
1.0
 92
        0
 66
   257
 43
1.0
 76
     1
 77
     6
 78
     2
 67
     7
 79
     5
170
     0
171
     0
290
     0
174
     0
 93
       13
 44
0.0
173
     0
291
     1
 45
0.0
  0
VISUALSTYLE
  5
38
102
{ACAD_REACTORS
330
2A
102
}
330
2A
100
AcDbVisualStyle
  2
Linepattern
 70
    14
 71
     2
 72
     2
 73
     0
 90
        0
 40
-0.6
 41
-30.0
 62
     5
 63
     7
421
 16777215
 74
     1
 91
        4
 64
     7
 65
   257
 75
     7
175
     7
 42
1.0
 92
        8
 66
     7
 43
1.0
 76
     1
 77
     6
 78
     2
 67
     7
 79
     5
170
     0
171
     0
290
     0
174
     0
 93
        1
 44
0.0
173
     0
291
     1
 45
0.0
  0
VISUALSTYLE
  5
33
102
{ACAD_REACTORS
330
2A
102
}
330
2A
100
AcDbVisualStyle
  2
Realistic
 70
     8
 71
     2
 72
     2
 73
     0
 90
        0
 40
-0.6
 41
-30.0
 62
     5
 63
     7
421
 16777215
 74
     1
 91
        0
 64
     7
 65
   257
 75
     1
175
     1
 42
1.0
 92
        8
 66
     8
424
  7895160
 43
1.0
 76
     1
 77
     6
 78
     2
 67
     7
 79
     5
170
     0
171
     0
290
     0
174
     0
 93
       13
 44
0.0
173
     0
291
     0
 45
0.0
  0
VISUALSTYLE
  5
37
102
{ACAD_REACTORS
330
2A
102
}
330
2A
100
AcDbVisualStyle
  2
Thicken
 70
    13
 71
     2
 72
     2
 73
     0
 90
        0
 40
-0.6
 41
-30.0
 62
     5
 63
     7
421
 16777215
 74
     1
 91
        4
 64
     7
 65
   257
 75
     1
175
     1
 42
1.0
 92
       12
 66
     7
 43
1.0
 76
     1
 77
     6
 78
     2
 67
     7
 79
     5
170
     0
171
     0
290
     0
174
     0
 93
        1
 44
0.0
173
     0
291
     1
 45
0.0
  0
ENDSEC
  0
EOF
