  0
SECTION
  2
HEADER
  9
$ACADVER
  1
AC1021
  9
$ACADMAINTVER
 70
    25
  9
$DWGCODEPAGE
  3
ANSI_1252
  9
$INSBASE
 10
0.0
 20
0.0
 30
0.0
  9
$EXTMIN
 10
-10.585
 20
-14.895
 30
0.0
  9
$EXTMAX
 10
-10.415
 20
-14.805
 30
0.0
  9
$LIMMIN
 10
0.0
 20
0.0
  9
$LIMMAX
 10
12.0
 20
9.0
  9
$ORTHOMODE
 70
     0
  9
$REGENMODE
 70
     1
  9
$FILLMODE
 70
     1
  9
$QTEXTMODE
 70
     0
  9
$MIRRTEXT
 70
     1
  9
$LTSCALE
 40
1.0
  9
$ATTMODE
 70
     1
  9
$TEXTSIZE
 40
0.2
  9
$TRACEWID
 40
0.05
  9
$TEXTSTYLE
  7
Standard
  9
$CLAYER
  8
0
  9
$CELTYPE
  6
ByLayer
  9
$CECOLOR
 62
   256
  9
$CELTSCALE
 40
1.0
  9
$DISPSILH
 70
     0
  9
$DIMSCALE
 40
1.0
  9
$DIMASZ
 40
0.18
  9
$DIMEXO
 40
0.0625
  9
$DIMDLI
 40
0.38
  9
$DIMRND
 40
0.0
  9
$DIMDLE
 40
0.0
  9
$DIMEXE
 40
0.18
  9
$DIMTP
 40
0.0
  9
$DIMTM
 40
0.0
  9
$DIMTXT
 40
0.18
  9
$DIMCEN
 40
0.09
  9
$DIMTSZ
 40
0.0
  9
$DIMTOL
 70
     0
  9
$DIMLIM
 70
     0
  9
$DIMTIH
 70
     1
  9
$DIMTOH
 70
     1
  9
$DIMSE1
 70
     0
  9
$DIMSE2
 70
     0
  9
$DIMTAD
 70
     0
  9
$DIMZIN
 70
     0
  9
$DIMBLK
  1

  9
$DIMASO
 70
     1
  9
$DIMSHO
 70
     1
  9
$DIMPOST
  1

  9
$DIMAPOST
  1

  9
$DIMALT
 70
     0
  9
$DIMALTD
 70
     2
  9
$DIMALTF
 40
25.4
  9
$DIMLFAC
 40
1.0
  9
$DIMTOFL
 70
     0
  9
$DIMTVP
 40
0.0
  9
$DIMTIX
 70
     0
  9
$DIMSOXD
 70
     0
  9
$DIMSAH
 70
     0
  9
$DIMBLK1
  1

  9
$DIMBLK2
  1

  9
$DIMSTYLE
  2
Standard
  9
$DIMCLRD
 70
     0
  9
$DIMCLRE
 70
     0
  9
$DIMCLRT
 70
     0
  9
$DIMTFAC
 40
1.0
  9
$DIMGAP
 40
0.09
  9
$DIMJUST
 70
     0
  9
$DIMSD1
 70
     0
  9
$DIMSD2
 70
     0
  9
$DIMTOLJ
 70
     1
  9
$DIMTZIN
 70
     0
  9
$DIMALTZ
 70
     0
  9
$DIMALTTZ
 70
     0
  9
$DIMUPT
 70
     0
  9
$DIMDEC
 70
     4
  9
$DIMTDEC
 70
     4
  9
$DIMALTU
 70
     2
  9
$DIMALTTD
 70
     2
  9
$DIMTXSTY
  7
Standard
  9
$DIMAUNIT
 70
     0
  9
$DIMADEC
 70
     0
  9
$DIMALTRND
 40
0.0
  9
$DIMAZIN
 70
     0
  9
$DIMDSEP
 70
    46
  9
$DIMATFIT
 70
     3
  9
$DIMFRAC
 70
     0
  9
$DIMLDRBLK
  1

  9
$DIMLUNIT
 70
     2
  9
$DIMLWD
 70
    -2
  9
$DIMLWE
 70
    -2
  9
$DIMTMOVE
 70
     0
  9
$DIMFXL
 40
1.0
  9
$DIMFXLON
 70
     0
  9
$DIMJOGANG
 40
0.7853981633974483
  9
$DIMTFILL
 70
     0
  9
$DIMTFILLCLR
 70
     0
  9
$DIMARCSYM
 70
     0
  9
$DIMLTYPE
  6

  9
$DIMLTEX1
  6

  9
$DIMLTEX2
  6

  9
$LUNITS
 70
     2
  9
$LUPREC
 70
     4
  9
$SKETCHINC
 40
0.1
  9
$FILLETRAD
 40
0.5
  9
$AUNITS
 70
     0
  9
$AUPREC
 70
     0
  9
$MENU
  1
.
  9
$ELEVATION
 40
0.0
  9
$PELEVATION
 40
0.0
  9
$THICKNESS
 40
0.0
  9
$LIMCHECK
 70
     0
  9
$CHAMFERA
 40
0.5
  9
$CHAMFERB
 40
0.5
  9
$CHAMFERC
 40
1.0
  9
$CHAMFERD
 40
0.0
  9
$SKPOLY
 70
     0
  9
$TDCREATE
 40
2458639.883190347
  9
$TDUCREATE
 40
2458639.84152368
  9
$TDUPDATE
 40
2458639.883190359
  9
$TDUUPDATE
 40
2458639.841523692
  9
$TDINDWG
 40
0.0000000116
  9
$TDUSRTIMER
 40
0.0000000116
  9
$USRTIMER
 70
     1
  9
$ANGBASE
 50
0.0
  9
$ANGDIR
 70
     0
  9
$PDMODE
 70
     0
  9
$PDSIZE
 40
0.0
  9
$PLINEWID
 40
0.0
  9
$SPLFRAME
 70
     0
  9
$SPLINETYPE
 70
     6
  9
$SPLINESEGS
 70
     8
  9
$HANDSEED
  5
74
  9
$SURFTAB1
 70
     6
  9
$SURFTAB2
 70
     6
  9
$SURFTYPE
 70
     6
  9
$SURFU
 70
     6
  9
$SURFV
 70
     6
  9
$UCSBASE
  2

  9
$UCSNAME
  2

  9
$UCSORG
 10
0.0
 20
0.0
 30
0.0
  9
$UCSXDIR
 10
1.0
 20
0.0
 30
0.0
  9
$UCSYDIR
 10
0.0
 20
1.0
 30
0.0
  9
$UCSORTHOREF
  2

  9
$UCSORTHOVIEW
 70
     0
  9
$UCSORGTOP
 10
0.0
 20
0.0
 30
0.0
  9
$UCSORGBOTTOM
 10
0.0
 20
0.0
 30
0.0
  9
$UCSORGLEFT
 10
0.0
 20
0.0
 30
0.0
  9
$UCSORGRIGHT
 10
0.0
 20
0.0
 30
0.0
  9
$UCSORGFRONT
 10
0.0
 20
0.0
 30
0.0
  9
$UCSORGBACK
 10
0.0
 20
0.0
 30
0.0
  9
$PUCSBASE
  2

  9
$PUCSNAME
  2

  9
$PUCSORG
 10
0.0
 20
0.0
 30
0.0
  9
$PUCSXDIR
 10
1.0
 20
0.0
 30
0.0
  9
$PUCSYDIR
 10
0.0
 20
1.0
 30
0.0
  9
$PUCSORTHOREF
  2

  9
$PUCSORTHOVIEW
 70
     0
  9
$PUCSORGTOP
 10
0.0
 20
0.0
 30
0.0
  9
$PUCSORGBOTTOM
 10
0.0
 20
0.0
 30
0.0
  9
$PUCSORGLEFT
 10
0.0
 20
0.0
 30
0.0
  9
$PUCSORGRIGHT
 10
0.0
 20
0.0
 30
0.0
  9
$PUCSORGFRONT
 10
0.0
 20
0.0
 30
0.0
  9
$PUCSORGBACK
 10
0.0
 20
0.0
 30
0.0
  9
$USERI1
 70
     0
  9
$USERI2
 70
     0
  9
$USERI3
 70
     0
  9
$USERI4
 70
     0
  9
$USERI5
 70
     0
  9
$USERR1
 40
0.0
  9
$USERR2
 40
0.0
  9
$USERR3
 40
0.0
  9
$USERR4
 40
0.0
  9
$USERR5
 40
0.0
  9
$WORLDVIEW
 70
     1
  9
$SHADEDGE
 70
     3
  9
$SHADEDIF
 70
    70
  9
$TILEMODE
 70
     1
  9
$MAXACTVP
 70
    64
  9
$PINSBASE
 10
0.0
 20
0.0
 30
0.0
  9
$PLIMCHECK
 70
     0
  9
$PEXTMIN
 10
1.000000000000000E+20
 20
1.000000000000000E+20
 30
1.000000000000000E+20
  9
$PEXTMAX
 10
-1.000000000000000E+20
 20
-1.000000000000000E+20
 30
-1.000000000000000E+20
  9
$PLIMMIN
 10
0.0
 20
0.0
  9
$PLIMMAX
 10
12.0
 20
9.0
  9
$UNITMODE
 70
     0
  9
$VISRETAIN
 70
     1
  9
$PLINEGEN
 70
     0
  9
$PSLTSCALE
 70
     1
  9
$TREEDEPTH
 70
  3020
  9
$CMLSTYLE
  2
Standard
  9
$CMLJUST
 70
     0
  9
$CMLSCALE
 40
1.0
  9
$PROXYGRAPHICS
 70
     1
  9
$MEASUREMENT
 70
     0
  9
$CELWEIGHT
370
    -1
  9
$ENDCAPS
280
     0
  9
$JOINSTYLE
280
     0
  9
$LWDISPLAY
290
     0
  9
$INSUNITS
 70
     5
  9
$HYPERLINKBASE
  1

  9
$STYLESHEET
  1

  9
$XEDIT
290
     1
  9
$CEPSNTYPE
380
     0
  9
$PSTYLEMODE
290
     1
  9
$FINGERPRINTGUID
  2
{2D4ACC83-875F-4758-9301-59011C31F1C6}
  9
$VERSIONGUID
  2
{FAEB1C32-E019-11D5-929B-00C0DF256EC4}
  9
$EXTNAMES
290
     1
  9
$PSVPSCALE
 40
0.0
  9
$OLESTARTUP
290
     0
  9
$SORTENTS
280
   127
  9
$INDEXCTL
280
     0
  9
$HIDETEXT
280
     1
  9
$XCLIPFRAME
290
     0
  9
$HALOGAP
280
     0
  9
$OBSCOLOR
 70
   257
  9
$OBSLTYPE
280
     0
  9
$INTERSECTIONDISPLAY
280
     0
  9
$INTERSECTIONCOLOR
 70
   257
  9
$DIMASSOC
280
     2
  9
$PROJECTNAME
  1

  9
$CAMERADISPLAY
290
     0
  9
$LENSLENGTH
 40
50.0
  9
$CAMERAHEIGHT
 40
0.0
  9
$STEPSPERSEC
 40
2.0
  9
$STEPSIZE
 40
6.0
  9
$3DDWFPREC
 40
2.0
  9
$PSOLWIDTH
 40
0.25
  9
$PSOLHEIGHT
 40
4.0
  9
$LOFTANG1
 40
1.570796326794897
  9
$LOFTANG2
 40
1.570796326794897
  9
$LOFTMAG1
 40
0.0
  9
$LOFTMAG2
 40
0.0
  9
$LOFTPARAM
 70
     7
  9
$LOFTNORMALS
280
     1
  9
$LATITUDE
 40
37.795
  9
$LONGITUDE
 40
-122.394
  9
$NORTHDIRECTION
 40
0.0
  9
$TIMEZONE
 70
 -8000
  9
$LIGHTGLYPHDISPLAY
280
     1
  9
$TILEMODELIGHTSYNCH
280
     1
  9
$SOLIDHIST
280
     1
  9
$SHOWHIST
280
     1
  9
$DWFFRAME
280
     2
  9
$DGNFRAME
280
     2
  9
$REALWORLDSCALE
290
     1
  9
$INTERFERECOLOR
 62
   256
  9
$CSHADOW
280
     0
  9
$SHADOWPLANELOCATION
 40
0.0
  0
ENDSEC
  0
SECTION
  2
CLASSES
  0
CLASS
  1
ACDBDICTIONARYWDFLT
  2
AcDbDictionaryWithDefault
  3
ObjectDBX Classes
 90
        0
 91
        3
280
     0
281
     0
  0
CLASS
  1
VISUALSTYLE
  2
AcDbVisualStyle
  3
ObjectDBX Classes
 90
     4095
 91
        3
280
     0
281
     0
  0
CLASS
  1
SCALE
  2
AcDbScale
  3
ObjectDBX Classes
 90
     1153
 91
        3
280
     0
281
     0
  0
ENDSEC
  0
SECTION
  2
TABLES
  0
TABLE
  2
VPORT
  5
8
330
0
100
AcDbSymbolTable
 70
     1
  0
VPORT
  5
29
330
8
100
AcDbSymbolTableRecord
100
AcDbViewportTableRecord
  2
*Active
 70
     0
 10
0.0
 20
0.0
 11
1.0
 21
1.0
 12
10.42990654205607
 22
4.5
 13
0.0
 23
0.0
 14
0.5
 24
0.5
 15
0.5
 25
0.5
 16
0.0
 26
0.0
 36
1.0
 17
0.0
 27
0.0
 37
0.0
 40
9.0
 41
1.972972972850329
 42
50.0
 43
0.0
 44
0.0
 50
0.0
 51
0.0
 71
     0
 72
   100
 73
     1
 74
     3
 75
     0
 76
     0
 77
     0
 78
     0
281
     0
 65
     1
110
0.0
120
0.0
130
0.0
111
1.0
121
0.0
131
0.0
112
0.0
122
1.0
132
0.0
 79
     0
146
0.0
 60
     3
 61
     5
292
     1
282
     1
141
0.0
142
0.0
 63
   256
  0
ENDTAB
  0
TABLE
  2
LTYPE
  5
5
330
0
100
AcDbSymbolTable
 70
     1
  0
LTYPE
  5
14
330
5
100
AcDbSymbolTableRecord
100
AcDbLinetypeTableRecord
  2
ByBlock
 70
     0
  3

 72
    65
 73
     0
 40
0.0
  0
LTYPE
  5
15
330
5
100
AcDbSymbolTableRecord
100
AcDbLinetypeTableRecord
  2
ByLayer
 70
     0
  3

 72
    65
 73
     0
 40
0.0
  0
LTYPE
  5
16
330
5
100
AcDbSymbolTableRecord
100
AcDbLinetypeTableRecord
  2
Continuous
 70
     0
  3
Solid line
 72
    65
 73
     0
 40
0.0
  0
ENDTAB
  0
TABLE
  2
LAYER
  5
2
330
0
100
AcDbSymbolTable
 70
     2
  0
LAYER
  5
10
330
2
100
AcDbSymbolTableRecord
100
AcDbLayerTableRecord
  2
0
 70
     0
 62
     7
  6
Continuous
370
    -3
390
F
347
0
  0
LAYER
  5
5E
330
2
100
AcDbSymbolTableRecord
100
AcDbLayerTableRecord
  2
Layer 1
 70
     0
 62
     7
  6
Continuous
370
    -3
390
F
347
0
  0
ENDTAB
  0
TABLE
  2
STYLE
  5
3
330
0
100
AcDbSymbolTable
 70
     1
  0
STYLE
  5
11
330
3
100
AcDbSymbolTableRecord
100
AcDbTextStyleTableRecord
  2
Standard
 70
     0
 40
0.0
 41
1.0
 50
0.0
 71
     0
 42
0.2
  3
txt
  4

  0
ENDTAB
  0
TABLE
  2
VIEW
  5
6
330
0
100
AcDbSymbolTable
 70
     0
  0
ENDTAB
  0
TABLE
  2
UCS
  5
7
330
0
100
AcDbSymbolTable
 70
     0
  0
ENDTAB
  0
TABLE
  2
APPID
  5
9
330
0
100
AcDbSymbolTable
 70
     2
  0
APPID
  5
12
330
9
100
AcDbSymbolTableRecord
100
AcDbRegAppTableRecord
  2
ACAD
 70
     0
  0
APPID
  5
5D
330
9
100
AcDbSymbolTableRecord
100
AcDbRegAppTableRecord
  2
ODA
 70
     0
  0
ENDTAB
  0
TABLE
  2
DIMSTYLE
  5
A
330
0
100
AcDbSymbolTable
 70
     1
100
AcDbDimStyleTable
  0
DIMSTYLE
105
27
330
A
100
AcDbSymbolTableRecord
100
AcDbDimStyleTableRecord
  2
Standard
 70
     0
340
11
  0
ENDTAB
  0
TABLE
  2
BLOCK_RECORD
  5
1
330
0
100
AcDbSymbolTable
 70
     1
  0
BLOCK_RECORD
  5
1F
330
1
100
AcDbSymbolTableRecord
100
AcDbBlockTableRecord
  2
*Model_Space
340
22
 70
     0
280
     1
281
     0
  0
BLOCK_RECORD
  5
1B
330
1
100
AcDbSymbolTableRecord
100
AcDbBlockTableRecord
  2
*Paper_Space
340
1E
 70
     0
280
     1
281
     0
  0
BLOCK_RECORD
  5
23
330
1
100
AcDbSymbolTableRecord
100
AcDbBlockTableRecord
  2
*Paper_Space0
340
26
 70
     0
280
     1
281
     0
  0
ENDTAB
  0
ENDSEC
  0
SECTION
  2
BLOCKS
  0
BLOCK
  5
20
330
1F
100
AcDbEntity
  8
0
100
AcDbBlockBegin
  2
*Model_Space
 70
     0
 10
0.0
 20
0.0
 30
0.0
  3
*Model_Space
  1

  0
ENDBLK
  5
21
330
1F
100
AcDbEntity
  8
0
100
AcDbBlockEnd
  0
BLOCK
  5
1C
330
1B
100
AcDbEntity
 67
     1
  8
0
100
AcDbBlockBegin
  2
*Paper_Space
 70
     0
 10
0.0
 20
0.0
 30
0.0
  3
*Paper_Space
  1

  0
ENDBLK
  5
1D
330
1B
100
AcDbEntity
 67
     1
  8
0
100
AcDbBlockEnd
  0
BLOCK
  5
24
330
23
100
AcDbEntity
  8
0
100
AcDbBlockBegin
  2
*Paper_Space0
 70
     0
 10
0.0
 20
0.0
 30
0.0
  3
*Paper_Space0
  1

  0
ENDBLK
  5
25
330
23
100
AcDbEntity
  8
0
100
AcDbBlockEnd
  0
ENDSEC
  0
SECTION
  2
ENTITIES
  0
LWPOLYLINE
  5
5F
330
1F
100
AcDbEntity
  8
Layer 1
 62
     7
370
     9
100
AcDbPolyline
 90
        5
 70
     1
 43
0.0
 10
-10.58
 20
-14.89
 10
-10.42
 20
-14.89
 10
-10.42
 20
-14.81
 10
-10.58
 20
-14.81
 10
-10.58
 20
-14.89
  0
LWPOLYLINE
  5
60
330
1F
100
AcDbEntity
  8
Layer 1
 62
     7
370
     9
100
AcDbPolyline
 90
        5
 70
     1
 43
0.0
 10
-10.555
 20
-14.89
 10
-10.445
 20
-14.89
 10
-10.445
 20
-14.81
 10
-10.555
 20
-14.81
 10
-10.555
 20
-14.89
  0
SPLINE
  5
61
330
1F
100
AcDbEntity
  8
Layer 1
 62
   250
100
AcDbSpline
210
0.0
220
0.0
230
1.0
 70
    11
 71
     3
 72
    36
 73
    32
 74
     0
 42
0.0000000001
 43
0.0000000001
 40
0.0
 40
0.0
 40
0.0
 40
0.0
 40
0.125
 40
0.125
 40
0.125
 40
0.125
 40
0.25
 40
0.25
 40
0.25
 40
0.25
 40
0.375
 40
0.375
 40
0.375
 40
0.375
 40
0.5
 40
0.5
 40
0.5
 40
0.5
 40
0.625
 40
0.625
 40
0.625
 40
0.625
 40
0.75
 40
0.75
 40
0.75
 40
0.75
 40
0.875
 40
0.875
 40
0.875
 40
0.875
 40
1.0
 40
1.0
 40
1.0
 40
1.0
 10
-10.5312
 20
-14.8341
 30
0.0
 10
-10.53201
 20
-14.8341
 30
0.0
 10
-10.53262
 20
-14.83441
 30
0.0
 10
-10.53303
 20
-14.83503
 30
0.0
 10
-10.53303
 20
-14.83503
 30
0.0
 10
-10.53345
 20
-14.83566
 30
0.0
 10
-10.53365
 20
-14.83659
 30
0.0
 10
-10.53365
 20
-14.83781
 30
0.0
 10
-10.53365
 20
-14.83781
 30
0.0
 10
-10.53365
 20
-14.83904
 30
0.0
 10
-10.53345
 20
-14.83996
 30
0.0
 10
-10.53303
 20
-14.84059
 30
0.0
 10
-10.53303
 20
-14.84059
 30
0.0
 10
-10.53262
 20
-14.84122
 30
0.0
 10
-10.53201
 20
-14.84154
 30
0.0
 10
-10.5312
 20
-14.84154
 30
0.0
 10
-10.5312
 20
-14.84154
 30
0.0
 10
-10.53039
 20
-14.84154
 30
0.0
 10
-10.52978
 20
-14.84122
 30
0.0
 10
-10.52937
 20
-14.84059
 30
0.0
 10
-10.52937
 20
-14.84059
 30
0.0
 10
-10.52895
 20
-14.83996
 30
0.0
 10
-10.52875
 20
-14.83904
 30
0.0
 10
-10.52875
 20
-14.83781
 30
0.0
 10
-10.52875
 20
-14.83781
 30
0.0
 10
-10.52875
 20
-14.83659
 30
0.0
 10
-10.52895
 20
-14.83566
 30
0.0
 10
-10.52937
 20
-14.83503
 30
0.0
 10
-10.52937
 20
-14.83503
 30
0.0
 10
-10.52978
 20
-14.83441
 30
0.0
 10
-10.53039
 20
-14.8341
 30
0.0
 10
-10.5312
 20
-14.8341
 30
0.0
  0
SPLINE
  5
62
330
1F
100
AcDbEntity
  8
Layer 1
 62
   250
100
AcDbSpline
210
0.0
220
0.0
230
1.0
 70
    11
 71
     3
 72
    36
 73
    32
 74
     0
 42
0.0000000001
 43
0.0000000001
 40
0.0
 40
0.0
 40
0.0
 40
0.0
 40
0.125
 40
0.125
 40
0.125
 40
0.125
 40
0.25
 40
0.25
 40
0.25
 40
0.25
 40
0.375
 40
0.375
 40
0.375
 40
0.375
 40
0.5
 40
0.5
 40
0.5
 40
0.5
 40
0.625
 40
0.625
 40
0.625
 40
0.625
 40
0.75
 40
0.75
 40
0.75
 40
0.75
 40
0.875
 40
0.875
 40
0.875
 40
0.875
 40
1.0
 40
1.0
 40
1.0
 40
1.0
 10
-10.5312
 20
-14.83275
 30
0.0
 10
-10.52987
 20
-14.83275
 30
0.0
 10
-10.52884
 20
-14.83318
 30
0.0
 10
-10.52813
 20
-14.83405
 30
0.0
 10
-10.52813
 20
-14.83405
 30
0.0
 10
-10.52743
 20
-14.83492
 30
0.0
 10
-10.52707
 20
-14.83617
 30
0.0
 10
-10.52707
 20
-14.83781
 30
0.0
 10
-10.52707
 20
-14.83781
 30
0.0
 10
-10.52707
 20
-14.83946
 30
0.0
 10
-10.52742
 20
-14.84072
 30
0.0
 10
-10.52813
 20
-14.84158
 30
0.0
 10
-10.52813
 20
-14.84158
 30
0.0
 10
-10.52884
 20
-14.84245
 30
0.0
 10
-10.52986
 20
-14.84288
 30
0.0
 10
-10.5312
 20
-14.84288
 30
0.0
 10
-10.5312
 20
-14.84288
 30
0.0
 10
-10.53254
 20
-14.84288
 30
0.0
 10
-10.53356
 20
-14.84245
 30
0.0
 10
-10.53427
 20
-14.84158
 30
0.0
 10
-10.53427
 20
-14.84158
 30
0.0
 10
-10.53498
 20
-14.84072
 30
0.0
 10
-10.53533
 20
-14.83946
 30
0.0
 10
-10.53533
 20
-14.83781
 30
0.0
 10
-10.53533
 20
-14.83781
 30
0.0
 10
-10.53533
 20
-14.83617
 30
0.0
 10
-10.53498
 20
-14.83492
 30
0.0
 10
-10.53427
 20
-14.83405
 30
0.0
 10
-10.53427
 20
-14.83405
 30
0.0
 10
-10.53356
 20
-14.83318
 30
0.0
 10
-10.53254
 20
-14.83275
 30
0.0
 10
-10.5312
 20
-14.83275
 30
0.0
  0
SPLINE
  5
63
330
1F
100
AcDbEntity
  8
Layer 1
 62
   250
100
AcDbSpline
210
0.0
220
0.0
230
1.0
 70
    11
 71
     3
 72
    36
 73
    32
 74
     0
 42
0.0000000001
 43
0.0000000001
 40
0.0
 40
0.0
 40
0.0
 40
0.0
 40
0.125
 40
0.125
 40
0.125
 40
0.125
 40
0.25
 40
0.25
 40
0.25
 40
0.25
 40
0.375
 40
0.375
 40
0.375
 40
0.375
 40
0.5
 40
0.5
 40
0.5
 40
0.5
 40
0.625
 40
0.625
 40
0.625
 40
0.625
 40
0.75
 40
0.75
 40
0.75
 40
0.75
 40
0.875
 40
0.875
 40
0.875
 40
0.875
 40
1.0
 40
1.0
 40
1.0
 40
1.0
 10
-10.52058
 20
-14.8341
 30
0.0
 10
-10.52139
 20
-14.8341
 30
0.0
 10
-10.522
 20
-14.83441
 30
0.0
 10
-10.52241
 20
-14.83503
 30
0.0
 10
-10.52241
 20
-14.83503
 30
0.0
 10
-10.52283
 20
-14.83566
 30
0.0
 10
-10.52303
 20
-14.83659
 30
0.0
 10
-10.52303
 20
-14.83781
 30
0.0
 10
-10.52303
 20
-14.83781
 30
0.0
 10
-10.52303
 20
-14.83904
 30
0.0
 10
-10.52283
 20
-14.83996
 30
0.0
 10
-10.52241
 20
-14.84059
 30
0.0
 10
-10.52241
 20
-14.84059
 30
0.0
 10
-10.522
 20
-14.84122
 30
0.0
 10
-10.52139
 20
-14.84154
 30
0.0
 10
-10.52058
 20
-14.84154
 30
0.0
 10
-10.52058
 20
-14.84154
 30
0.0
 10
-10.51977
 20
-14.84154
 30
0.0
 10
-10.51916
 20
-14.84122
 30
0.0
 10
-10.51875
 20
-14.84059
 30
0.0
 10
-10.51875
 20
-14.84059
 30
0.0
 10
-10.51833
 20
-14.83996
 30
0.0
 10
-10.51813
 20
-14.83904
 30
0.0
 10
-10.51813
 20
-14.83781
 30
0.0
 10
-10.51813
 20
-14.83781
 30
0.0
 10
-10.51813
 20
-14.83659
 30
0.0
 10
-10.51833
 20
-14.83566
 30
0.0
 10
-10.51875
 20
-14.83503
 30
0.0
 10
-10.51875
 20
-14.83503
 30
0.0
 10
-10.51916
 20
-14.83441
 30
0.0
 10
-10.51977
 20
-14.8341
 30
0.0
 10
-10.52058
 20
-14.8341
 30
0.0
  0
SPLINE
  5
64
330
1F
100
AcDbEntity
  8
Layer 1
 62
   250
100
AcDbSpline
210
0.0
220
0.0
230
1.0
 70
    11
 71
     3
 72
    36
 73
    32
 74
     0
 42
0.0000000001
 43
0.0000000001
 40
0.0
 40
0.0
 40
0.0
 40
0.0
 40
0.125
 40
0.125
 40
0.125
 40
0.125
 40
0.25
 40
0.25
 40
0.25
 40
0.25
 40
0.375
 40
0.375
 40
0.375
 40
0.375
 40
0.5
 40
0.5
 40
0.5
 40
0.5
 40
0.625
 40
0.625
 40
0.625
 40
0.625
 40
0.75
 40
0.75
 40
0.75
 40
0.75
 40
0.875
 40
0.875
 40
0.875
 40
0.875
 40
1.0
 40
1.0
 40
1.0
 40
1.0
 10
-10.52058
 20
-14.83275
 30
0.0
 10
-10.51925
 20
-14.83275
 30
0.0
 10
-10.51822
 20
-14.83318
 30
0.0
 10
-10.51751
 20
-14.83405
 30
0.0
 10
-10.51751
 20
-14.83405
 30
0.0
 10
-10.51681
 20
-14.83492
 30
0.0
 10
-10.51645
 20
-14.83617
 30
0.0
 10
-10.51645
 20
-14.83781
 30
0.0
 10
-10.51645
 20
-14.83781
 30
0.0
 10
-10.51645
 20
-14.83946
 30
0.0
 10
-10.5168
 20
-14.84072
 30
0.0
 10
-10.51751
 20
-14.84158
 30
0.0
 10
-10.51751
 20
-14.84158
 30
0.0
 10
-10.51822
 20
-14.84245
 30
0.0
 10
-10.51924
 20
-14.84288
 30
0.0
 10
-10.52058
 20
-14.84288
 30
0.0
 10
-10.52058
 20
-14.84288
 30
0.0
 10
-10.52192
 20
-14.84288
 30
0.0
 10
-10.52294
 20
-14.84245
 30
0.0
 10
-10.52365
 20
-14.84158
 30
0.0
 10
-10.52365
 20
-14.84158
 30
0.0
 10
-10.52436
 20
-14.84072
 30
0.0
 10
-10.52471
 20
-14.83946
 30
0.0
 10
-10.52471
 20
-14.83781
 30
0.0
 10
-10.52471
 20
-14.83781
 30
0.0
 10
-10.52471
 20
-14.83617
 30
0.0
 10
-10.52436
 20
-14.83492
 30
0.0
 10
-10.52365
 20
-14.83405
 30
0.0
 10
-10.52365
 20
-14.83405
 30
0.0
 10
-10.52294
 20
-14.83318
 30
0.0
 10
-10.52192
 20
-14.83275
 30
0.0
 10
-10.52058
 20
-14.83275
 30
0.0
  0
SPLINE
  5
65
330
1F
100
AcDbEntity
  8
Layer 1
 62
   250
100
AcDbSpline
210
0.0
220
0.0
230
1.0
 70
    11
 71
     3
 72
   112
 73
   108
 74
     0
 42
0.0000000001
 43
0.0000000001
 40
0.0
 40
0.0
 40
0.0
 40
0.0
 40
0.037037037037037
 40
0.037037037037037
 40
0.037037037037037
 40
0.037037037037037
 40
0.0740740740740741
 40
0.0740740740740741
 40
0.0740740740740741
 40
0.0740740740740741
 40
0.1111111111111111
 40
0.1111111111111111
 40
0.1111111111111111
 40
0.1111111111111111
 40
0.1481481481481481
 40
0.1481481481481481
 40
0.1481481481481481
 40
0.1481481481481481
 40
0.1851851851851852
 40
0.1851851851851852
 40
0.1851851851851852
 40
0.1851851851851852
 40
0.2222222222222222
 40
0.2222222222222222
 40
0.2222222222222222
 40
0.2222222222222222
 40
0.2592592592592592
 40
0.2592592592592592
 40
0.2592592592592592
 40
0.2592592592592592
 40
0.2962962962962963
 40
0.2962962962962963
 40
0.2962962962962963
 40
0.2962962962962963
 40
0.3333333333333333
 40
0.3333333333333333
 40
0.3333333333333333
 40
0.3333333333333333
 40
0.3703703703703703
 40
0.3703703703703703
 40
0.3703703703703703
 40
0.3703703703703703
 40
0.4074074074074074
 40
0.4074074074074074
 40
0.4074074074074074
 40
0.4074074074074074
 40
0.4444444444444444
 40
0.4444444444444444
 40
0.4444444444444444
 40
0.4444444444444444
 40
0.4814814814814815
 40
0.4814814814814815
 40
0.4814814814814815
 40
0.4814814814814815
 40
0.5185185185185185
 40
0.5185185185185185
 40
0.5185185185185185
 40
0.5185185185185185
 40
0.5555555555555556
 40
0.5555555555555556
 40
0.5555555555555556
 40
0.5555555555555556
 40
0.5925925925925926
 40
0.5925925925925926
 40
0.5925925925925926
 40
0.5925925925925926
 40
0.6296296296296295
 40
0.6296296296296295
 40
0.6296296296296295
 40
0.6296296296296295
 40
0.6666666666666665
 40
0.6666666666666665
 40
0.6666666666666665
 40
0.6666666666666665
 40
0.7037037037037035
 40
0.7037037037037035
 40
0.7037037037037035
 40
0.7037037037037035
 40
0.7407407407407405
 40
0.7407407407407405
 40
0.7407407407407405
 40
0.7407407407407405
 40
0.7777777777777775
 40
0.7777777777777775
 40
0.7777777777777775
 40
0.7777777777777775
 40
0.8148148148148144
 40
0.8148148148148144
 40
0.8148148148148144
 40
0.8148148148148144
 40
0.8518518518518514
 40
0.8518518518518514
 40
0.8518518518518514
 40
0.8518518518518514
 40
0.8888888888888884
 40
0.8888888888888884
 40
0.8888888888888884
 40
0.8888888888888884
 40
0.9259259259259254
 40
0.9259259259259254
 40
0.9259259259259254
 40
0.9259259259259254
 40
0.9629629629629624
 40
0.9629629629629624
 40
0.9629629629629624
 40
0.9629629629629624
 40
1.0
 40
1.0
 40
1.0
 40
1.0
 10
-10.50945
 20
-14.83397
 30
0.0
 10
-10.50925
 20
-14.83355
 30
0.0
 10
-10.509
 20
-14.83325
 30
0.0
 10
-10.5087
 20
-14.83305
 30
0.0
 10
-10.5087
 20
-14.83305
 30
0.0
 10
-10.5084
 20
-14.83285
 30
0.0
 10
-10.50804
 20
-14.83275
 30
0.0
 10
-10.50761
 20
-14.83275
 30
0.0
 10
-10.50761
 20
-14.83275
 30
0.0
 10
-10.50684
 20
-14.83275
 30
0.0
 10
-10.50629
 20
-14.83305
 30
0.0
 10
-10.50597
 20
-14.83365
 30
0.0
 10
-10.50597
 20
-14.83365
 30
0.0
 10
-10.50565
 20
-14.83425
 30
0.0
 10
-10.50549
 20
-14.83538
 30
0.0
 10
-10.50549
 20
-14.83704
 30
0.0
 10
-10.50549
 20
-14.83704
 30
0.0
 10
-10.50549
 20
-14.83704
 30
0.0
 10
-10.50549
 20
-14.84263
 30
0.0
 10
-10.50549
 20
-14.84263
 30
0.0
 10
-10.50549
 20
-14.84263
 30
0.0
 10
-10.50549
 20
-14.84263
 30
0.0
 10
-10.50694
 20
-14.84263
 30
0.0
 10
-10.50694
 20
-14.84263
 30
0.0
 10
-10.50694
 20
-14.84263
 30
0.0
 10
-10.50694
 20
-14.84263
 30
0.0
 10
-10.50694
 20
-14.83711
 30
0.0
 10
-10.50694
 20
-14.83711
 30
0.0
 10
-10.50694
 20
-14.83711
 30
0.0
 10
-10.50694
 20
-14.83575
 30
0.0
 10
-10.50702
 20
-14.8349
 30
0.0
 10
-10.50717
 20
-14.83457
 30
0.0
 10
-10.50717
 20
-14.83457
 30
0.0
 10
-10.50732
 20
-14.83424
 30
0.0
 10
-10.5076
 20
-14.83408
 30
0.0
 10
-10.508
 20
-14.83408
 30
0.0
 10
-10.508
 20
-14.83408
 30
0.0
 10
-10.50846
 20
-14.83408
 30
0.0
 10
-10.50878
 20
-14.83425
 30
0.0
 10
-10.50895
 20
-14.83461
 30
0.0
 10
-10.50895
 20
-14.83461
 30
0.0
 10
-10.50911
 20
-14.83496
 30
0.0
 10
-10.5092
 20
-14.83579
 30
0.0
 10
-10.5092
 20
-14.83711
 30
0.0
 10
-10.5092
 20
-14.83711
 30
0.0
 10
-10.5092
 20
-14.83711
 30
0.0
 10
-10.5092
 20
-14.84263
 30
0.0
 10
-10.5092
 20
-14.84263
 30
0.0
 10
-10.5092
 20
-14.84263
 30
0.0
 10
-10.5092
 20
-14.84263
 30
0.0
 10
-10.51065
 20
-14.84263
 30
0.0
 10
-10.51065
 20
-14.84263
 30
0.0
 10
-10.51065
 20
-14.84263
 30
0.0
 10
-10.51065
 20
-14.84263
 30
0.0
 10
-10.51065
 20
-14.83711
 30
0.0
 10
-10.51065
 20
-14.83711
 30
0.0
 10
-10.51065
 20
-14.83711
 30
0.0
 10
-10.51065
 20
-14.83573
 30
0.0
 10
-10.51073
 20
-14.83488
 30
0.0
 10
-10.51089
 20
-14.83456
 30
0.0
 10
-10.51089
 20
-14.83456
 30
0.0
 10
-10.51105
 20
-14.83424
 30
0.0
 10
-10.51135
 20
-14.83408
 30
0.0
 10
-10.51177
 20
-14.83408
 30
0.0
 10
-10.51177
 20
-14.83408
 30
0.0
 10
-10.51219
 20
-14.83408
 30
0.0
 10
-10.51249
 20
-14.83425
 30
0.0
 10
-10.51265
 20
-14.83461
 30
0.0
 10
-10.51265
 20
-14.83461
 30
0.0
 10
-10.51281
 20
-14.83496
 30
0.0
 10
-10.51289
 20
-14.83579
 30
0.0
 10
-10.51289
 20
-14.83711
 30
0.0
 10
-10.51289
 20
-14.83711
 30
0.0
 10
-10.51289
 20
-14.83711
 30
0.0
 10
-10.51289
 20
-14.84263
 30
0.0
 10
-10.51289
 20
-14.84263
 30
0.0
 10
-10.51289
 20
-14.84263
 30
0.0
 10
-10.51289
 20
-14.84263
 30
0.0
 10
-10.51433
 20
-14.84263
 30
0.0
 10
-10.51433
 20
-14.84263
 30
0.0
 10
-10.51433
 20
-14.84263
 30
0.0
 10
-10.51433
 20
-14.84263
 30
0.0
 10
-10.51433
 20
-14.83298
 30
0.0
 10
-10.51433
 20
-14.83298
 30
0.0
 10
-10.51433
 20
-14.83298
 30
0.0
 10
-10.51433
 20
-14.83298
 30
0.0
 10
-10.51289
 20
-14.83298
 30
0.0
 10
-10.51289
 20
-14.83298
 30
0.0
 10
-10.51289
 20
-14.83298
 30
0.0
 10
-10.51289
 20
-14.83298
 30
0.0
 10
-10.51289
 20
-14.83381
 30
0.0
 10
-10.51289
 20
-14.83381
 30
0.0
 10
-10.51289
 20
-14.83381
 30
0.0
 10
-10.51271
 20
-14.83347
 30
0.0
 10
-10.51247
 20
-14.8332
 30
0.0
 10
-10.51218
 20
-14.83302
 30
0.0
 10
-10.51218
 20
-14.83302
 30
0.0
 10
-10.5119
 20
-14.83284
 30
0.0
 10
-10.51158
 20
-14.83275
 30
0.0
 10
-10.51122
 20
-14.83275
 30
0.0
 10
-10.51122
 20
-14.83275
 30
0.0
 10
-10.51078
 20
-14.83275
 30
0.0
 10
-10.51042
 20
-14.83285
 30
0.0
 10
-10.51012
 20
-14.83305
 30
0.0
 10
-10.51012
 20
-14.83305
 30
0.0
 10
-10.50983
 20
-14.83325
 30
0.0
 10
-10.50961
 20
-14.83356
 30
0.0
 10
-10.50945
 20
-14.83397
 30
0.0
  0
SPLINE
  5
66
330
1F
100
AcDbEntity
  8
Layer 1
 62
   250
100
AcDbSpline
210
0.0
220
0.0
230
1.0
 70
    11
 71
     3
 72
    20
 73
    16
 74
     0
 42
0.0000000001
 43
0.0000000001
 40
0.0
 40
0.0
 40
0.0
 40
0.0
 40
0.25
 40
0.25
 40
0.25
 40
0.25
 40
0.5
 40
0.5
 40
0.5
 40
0.5
 40
0.75
 40
0.75
 40
0.75
 40
0.75
 40
1.0
 40
1.0
 40
1.0
 40
1.0
 10
-10.50044
 20
-14.84
 30
0.0
 10
-10.50044
 20
-14.84
 30
0.0
 10
-10.49827
 20
-14.84
 30
0.0
 10
-10.49827
 20
-14.84
 30
0.0
 10
-10.49827
 20
-14.84
 30
0.0
 10
-10.49827
 20
-14.84
 30
0.0
 10
-10.49827
 20
-14.84263
 30
0.0
 10
-10.49827
 20
-14.84263
 30
0.0
 10
-10.49827
 20
-14.84263
 30
0.0
 10
-10.49827
 20
-14.84263
 30
0.0
 10
-10.50044
 20
-14.84263
 30
0.0
 10
-10.50044
 20
-14.84263
 30
0.0
 10
-10.50044
 20
-14.84263
 30
0.0
 10
-10.50044
 20
-14.84263
 30
0.0
 10
-10.50044
 20
-14.84
 30
0.0
 10
-10.50044
 20
-14.84
 30
0.0
  0
SPLINE
  5
67
330
1F
100
AcDbEntity
  8
Layer 1
 62
   250
100
AcDbSpline
210
0.0
220
0.0
230
1.0
 70
    11
 71
     3
 72
    52
 73
    48
 74
     0
 42
0.0000000001
 43
0.0000000001
 40
0.0
 40
0.0
 40
0.0
 40
0.0
 40
0.0833333333333333
 40
0.0833333333333333
 40
0.0833333333333333
 40
0.0833333333333333
 40
0.1666666666666667
 40
0.1666666666666667
 40
0.1666666666666667
 40
0.1666666666666667
 40
0.25
 40
0.25
 40
0.25
 40
0.25
 40
0.3333333333333333
 40
0.3333333333333333
 40
0.3333333333333333
 40
0.3333333333333333
 40
0.4166666666666666
 40
0.4166666666666666
 40
0.4166666666666666
 40
0.4166666666666666
 40
0.4999999999999999
 40
0.4999999999999999
 40
0.4999999999999999
 40
0.4999999999999999
 40
0.5833333333333333
 40
0.5833333333333333
 40
0.5833333333333333
 40
0.5833333333333333
 40
0.6666666666666666
 40
0.6666666666666666
 40
0.6666666666666666
 40
0.6666666666666666
 40
0.75
 40
0.75
 40
0.75
 40
0.75
 40
0.8333333333333334
 40
0.8333333333333334
 40
0.8333333333333334
 40
0.8333333333333334
 40
0.9166666666666667
 40
0.9166666666666667
 40
0.9166666666666667
 40
0.9166666666666667
 40
1.0
 40
1.0
 40
1.0
 40
1.0
 10
-10.48853
 20
-14.83913
 30
0.0
 10
-10.48853
 20
-14.83985
 30
0.0
 10
-10.4884
 20
-14.84038
 30
0.0
 10
-10.48814
 20
-14.84074
 30
0.0
 10
-10.48814
 20
-14.84074
 30
0.0
 10
-10.48787
 20
-14.8411
 30
0.0
 10
-10.48749
 20
-14.84129
 30
0.0
 10
-10.48698
 20
-14.84129
 30
0.0
 10
-10.48698
 20
-14.84129
 30
0.0
 10
-10.48698
 20
-14.84129
 30
0.0
 10
-10.48512
 20
-14.84129
 30
0.0
 10
-10.48512
 20
-14.84129
 30
0.0
 10
-10.48512
 20
-14.84129
 30
0.0
 10
-10.48512
 20
-14.84129
 30
0.0
 10
-10.48512
 20
-14.84263
 30
0.0
 10
-10.48512
 20
-14.84263
 30
0.0
 10
-10.48512
 20
-14.84263
 30
0.0
 10
-10.48512
 20
-14.84263
 30
0.0
 10
-10.48713
 20
-14.84263
 30
0.0
 10
-10.48713
 20
-14.84263
 30
0.0
 10
-10.48713
 20
-14.84263
 30
0.0
 10
-10.48808
 20
-14.84263
 30
0.0
 10
-10.48881
 20
-14.84232
 30
0.0
 10
-10.48933
 20
-14.84172
 30
0.0
 10
-10.48933
 20
-14.84172
 30
0.0
 10
-10.48985
 20
-14.84111
 30
0.0
 10
-10.49011
 20
-14.84025
 30
0.0
 10
-10.49011
 20
-14.83913
 30
0.0
 10
-10.49011
 20
-14.83913
 30
0.0
 10
-10.49011
 20
-14.83913
 30
0.0
 10
-10.49011
 20
-14.83037
 30
0.0
 10
-10.49011
 20
-14.83037
 30
0.0
 10
-10.49011
 20
-14.83037
 30
0.0
 10
-10.49011
 20
-14.83037
 30
0.0
 10
-10.49265
 20
-14.83037
 30
0.0
 10
-10.49265
 20
-14.83037
 30
0.0
 10
-10.49265
 20
-14.83037
 30
0.0
 10
-10.49265
 20
-14.83037
 30
0.0
 10
-10.49265
 20
-14.82913
 30
0.0
 10
-10.49265
 20
-14.82913
 30
0.0
 10
-10.49265
 20
-14.82913
 30
0.0
 10
-10.49265
 20
-14.82913
 30
0.0
 10
-10.48853
 20
-14.82913
 30
0.0
 10
-10.48853
 20
-14.82913
 30
0.0
 10
-10.48853
 20
-14.82913
 30
0.0
 10
-10.48853
 20
-14.82913
 30
0.0
 10
-10.48853
 20
-14.83913
 30
0.0
 10
-10.48853
 20
-14.83913
 30
0.0
  0
SPLINE
  5
68
330
1F
100
AcDbEntity
  8
Layer 1
 62
   250
100
AcDbSpline
210
0.0
220
0.0
230
1.0
 70
    11
 71
     3
 72
    76
 73
    72
 74
     0
 42
0.0000000001
 43
0.0000000001
 40
0.0
 40
0.0
 40
0.0
 40
0.0
 40
0.0555555555555556
 40
0.0555555555555556
 40
0.0555555555555556
 40
0.0555555555555556
 40
0.1111111111111111
 40
0.1111111111111111
 40
0.1111111111111111
 40
0.1111111111111111
 40
0.1666666666666667
 40
0.1666666666666667
 40
0.1666666666666667
 40
0.1666666666666667
 40
0.2222222222222222
 40
0.2222222222222222
 40
0.2222222222222222
 40
0.2222222222222222
 40
0.2777777777777778
 40
0.2777777777777778
 40
0.2777777777777778
 40
0.2777777777777778
 40
0.3333333333333334
 40
0.3333333333333334
 40
0.3333333333333334
 40
0.3333333333333334
 40
0.388888888888889
 40
0.388888888888889
 40
0.388888888888889
 40
0.388888888888889
 40
0.4444444444444445
 40
0.4444444444444445
 40
0.4444444444444445
 40
0.4444444444444445
 40
0.5000000000000001
 40
0.5000000000000001
 40
0.5000000000000001
 40
0.5000000000000001
 40
0.5555555555555557
 40
0.5555555555555557
 40
0.5555555555555557
 40
0.5555555555555557
 40
0.6111111111111113
 40
0.6111111111111113
 40
0.6111111111111113
 40
0.6111111111111113
 40
0.6666666666666669
 40
0.6666666666666669
 40
0.6666666666666669
 40
0.6666666666666669
 40
0.7222222222222224
 40
0.7222222222222224
 40
0.7222222222222224
 40
0.7222222222222224
 40
0.777777777777778
 40
0.777777777777778
 40
0.777777777777778
 40
0.777777777777778
 40
0.8333333333333336
 40
0.8333333333333336
 40
0.8333333333333336
 40
0.8333333333333336
 40
0.8888888888888892
 40
0.8888888888888892
 40
0.8888888888888892
 40
0.8888888888888892
 40
0.9444444444444448
 40
0.9444444444444448
 40
0.9444444444444448
 40
0.9444444444444448
 40
1.0
 40
1.0
 40
1.0
 40
1.0
 10
-10.47812
 20
-14.83024
 30
0.0
 10
-10.47812
 20
-14.83024
 30
0.0
 10
-10.47812
 20
-14.83298
 30
0.0
 10
-10.47812
 20
-14.83298
 30
0.0
 10
-10.47812
 20
-14.83298
 30
0.0
 10
-10.47812
 20
-14.83298
 30
0.0
 10
-10.47452
 20
-14.83298
 30
0.0
 10
-10.47452
 20
-14.83298
 30
0.0
 10
-10.47452
 20
-14.83298
 30
0.0
 10
-10.47452
 20
-14.83298
 30
0.0
 10
-10.47452
 20
-14.83422
 30
0.0
 10
-10.47452
 20
-14.83422
 30
0.0
 10
-10.47452
 20
-14.83422
 30
0.0
 10
-10.47452
 20
-14.83422
 30
0.0
 10
-10.47812
 20
-14.83422
 30
0.0
 10
-10.47812
 20
-14.83422
 30
0.0
 10
-10.47812
 20
-14.83422
 30
0.0
 10
-10.47812
 20
-14.83422
 30
0.0
 10
-10.47812
 20
-14.83945
 30
0.0
 10
-10.47812
 20
-14.83945
 30
0.0
 10
-10.47812
 20
-14.83945
 30
0.0
 10
-10.47812
 20
-14.84016
 30
0.0
 10
-10.47799
 20
-14.84066
 30
0.0
 10
-10.47772
 20
-14.84094
 30
0.0
 10
-10.47772
 20
-14.84094
 30
0.0
 10
-10.47744
 20
-14.84122
 30
0.0
 10
-10.47697
 20
-14.84136
 30
0.0
 10
-10.4763
 20
-14.84136
 30
0.0
 10
-10.4763
 20
-14.84136
 30
0.0
 10
-10.4763
 20
-14.84136
 30
0.0
 10
-10.47452
 20
-14.84136
 30
0.0
 10
-10.47452
 20
-14.84136
 30
0.0
 10
-10.47452
 20
-14.84136
 30
0.0
 10
-10.47452
 20
-14.84136
 30
0.0
 10
-10.47452
 20
-14.84263
 30
0.0
 10
-10.47452
 20
-14.84263
 30
0.0
 10
-10.47452
 20
-14.84263
 30
0.0
 10
-10.47452
 20
-14.84263
 30
0.0
 10
-10.47646
 20
-14.84263
 30
0.0
 10
-10.47646
 20
-14.84263
 30
0.0
 10
-10.47646
 20
-14.84263
 30
0.0
 10
-10.47765
 20
-14.84263
 30
0.0
 10
-10.47849
 20
-14.84239
 30
0.0
 10
-10.47897
 20
-14.84192
 30
0.0
 10
-10.47897
 20
-14.84192
 30
0.0
 10
-10.47946
 20
-14.84144
 30
0.0
 10
-10.47971
 20
-14.84062
 30
0.0
 10
-10.47971
 20
-14.83945
 30
0.0
 10
-10.47971
 20
-14.83945
 30
0.0
 10
-10.47971
 20
-14.83945
 30
0.0
 10
-10.47971
 20
-14.83422
 30
0.0
 10
-10.47971
 20
-14.83422
 30
0.0
 10
-10.47971
 20
-14.83422
 30
0.0
 10
-10.47971
 20
-14.83422
 30
0.0
 10
-10.48228
 20
-14.83422
 30
0.0
 10
-10.48228
 20
-14.83422
 30
0.0
 10
-10.48228
 20
-14.83422
 30
0.0
 10
-10.48228
 20
-14.83422
 30
0.0
 10
-10.48228
 20
-14.83298
 30
0.0
 10
-10.48228
 20
-14.83298
 30
0.0
 10
-10.48228
 20
-14.83298
 30
0.0
 10
-10.48228
 20
-14.83298
 30
0.0
 10
-10.47971
 20
-14.83298
 30
0.0
 10
-10.47971
 20
-14.83298
 30
0.0
 10
-10.47971
 20
-14.83298
 30
0.0
 10
-10.47971
 20
-14.83298
 30
0.0
 10
-10.47971
 20
-14.83024
 30
0.0
 10
-10.47971
 20
-14.83024
 30
0.0
 10
-10.47971
 20
-14.83024
 30
0.0
 10
-10.47971
 20
-14.83024
 30
0.0
 10
-10.47812
 20
-14.83024
 30
0.0
 10
-10.47812
 20
-14.83024
 30
0.0
  0
SPLINE
  5
69
330
1F
100
AcDbEntity
  8
Layer 1
 62
   250
100
AcDbSpline
210
0.0
220
0.0
230
1.0
 70
    11
 71
     3
 72
    20
 73
    16
 74
     0
 42
0.0000000001
 43
0.0000000001
 40
0.0
 40
0.0
 40
0.0
 40
0.0
 40
0.25
 40
0.25
 40
0.25
 40
0.25
 40
0.5
 40
0.5
 40
0.5
 40
0.5
 40
0.75
 40
0.75
 40
0.75
 40
0.75
 40
1.0
 40
1.0
 40
1.0
 40
1.0
 10
-10.46513
 20
-14.82977
 30
0.0
 10
-10.46513
 20
-14.82977
 30
0.0
 10
-10.46349
 20
-14.82977
 30
0.0
 10
-10.46349
 20
-14.82977
 30
0.0
 10
-10.46349
 20
-14.82977
 30
0.0
 10
-10.46349
 20
-14.82977
 30
0.0
 10
-10.47026
 20
-14.84427
 30
0.0
 10
-10.47026
 20
-14.84427
 30
0.0
 10
-10.47026
 20
-14.84427
 30
0.0
 10
-10.47026
 20
-14.84427
 30
0.0
 10
-10.47191
 20
-14.84427
 30
0.0
 10
-10.47191
 20
-14.84427
 30
0.0
 10
-10.47191
 20
-14.84427
 30
0.0
 10
-10.47191
 20
-14.84427
 30
0.0
 10
-10.46513
 20
-14.82977
 30
0.0
 10
-10.46513
 20
-14.82977
 30
0.0
  0
SPLINE
  5
6A
330
1F
100
AcDbEntity
  8
Layer 1
 62
   250
100
AcDbSpline
210
0.0
220
0.0
230
1.0
 70
    11
 71
     3
 72
    68
 73
    64
 74
     0
 42
0.0000000001
 43
0.0000000001
 40
0.0
 40
0.0
 40
0.0
 40
0.0
 40
0.0625
 40
0.0625
 40
0.0625
 40
0.0625
 40
0.125
 40
0.125
 40
0.125
 40
0.125
 40
0.1875
 40
0.1875
 40
0.1875
 40
0.1875
 40
0.25
 40
0.25
 40
0.25
 40
0.25
 40
0.3125
 40
0.3125
 40
0.3125
 40
0.3125
 40
0.375
 40
0.375
 40
0.375
 40
0.375
 40
0.4375
 40
0.4375
 40
0.4375
 40
0.4375
 40
0.5
 40
0.5
 40
0.5
 40
0.5
 40
0.5625
 40
0.5625
 40
0.5625
 40
0.5625
 40
0.625
 40
0.625
 40
0.625
 40
0.625
 40
0.6875
 40
0.6875
 40
0.6875
 40
0.6875
 40
0.75
 40
0.75
 40
0.75
 40
0.75
 40
0.8125
 40
0.8125
 40
0.8125
 40
0.8125
 40
0.875
 40
0.875
 40
0.875
 40
0.875
 40
0.9375
 40
0.9375
 40
0.9375
 40
0.9375
 40
1.0
 40
1.0
 40
1.0
 40
1.0
 10
-10.51918
 20
-14.86363
 30
0.0
 10
-10.51893
 20
-14.86368
 30
0.0
 10
-10.51871
 20
-14.8638
 30
0.0
 10
-10.51852
 20
-14.86399
 30
0.0
 10
-10.51852
 20
-14.86399
 30
0.0
 10
-10.51833
 20
-14.86417
 30
0.0
 10
-10.51811
 20
-14.86454
 30
0.0
 10
-10.51784
 20
-14.86508
 30
0.0
 10
-10.51784
 20
-14.86508
 30
0.0
 10
-10.51784
 20
-14.86508
 30
0.0
 10
-10.51551
 20
-14.8697
 30
0.0
 10
-10.51551
 20
-14.8697
 30
0.0
 10
-10.51551
 20
-14.8697
 30
0.0
 10
-10.51551
 20
-14.8697
 30
0.0
 10
-10.5183
 20
-14.8697
 30
0.0
 10
-10.5183
 20
-14.8697
 30
0.0
 10
-10.5183
 20
-14.8697
 30
0.0
 10
-10.5183
 20
-14.8697
 30
0.0
 10
-10.51985
 20
-14.86645
 30
0.0
 10
-10.51985
 20
-14.86645
 30
0.0
 10
-10.51985
 20
-14.86645
 30
0.0
 10
-10.5199
 20
-14.86636
 30
0.0
 10
-10.51996
 20
-14.86624
 30
0.0
 10
-10.52003
 20
-14.86607
 30
0.0
 10
-10.52003
 20
-14.86607
 30
0.0
 10
-10.52049
 20
-14.8651
 30
0.0
 10
-10.52102
 20
-14.86462
 30
0.0
 10
-10.52163
 20
-14.86462
 30
0.0
 10
-10.52163
 20
-14.86462
 30
0.0
 10
-10.52163
 20
-14.86462
 30
0.0
 10
-10.52244
 20
-14.86462
 30
0.0
 10
-10.52244
 20
-14.86462
 30
0.0
 10
-10.52244
 20
-14.86462
 30
0.0
 10
-10.52244
 20
-14.86462
 30
0.0
 10
-10.52244
 20
-14.8697
 30
0.0
 10
-10.52244
 20
-14.8697
 30
0.0
 10
-10.52244
 20
-14.8697
 30
0.0
 10
-10.52244
 20
-14.8697
 30
0.0
 10
-10.52498
 20
-14.8697
 30
0.0
 10
-10.52498
 20
-14.8697
 30
0.0
 10
-10.52498
 20
-14.8697
 30
0.0
 10
-10.52498
 20
-14.8697
 30
0.0
 10
-10.52498
 20
-14.85684
 30
0.0
 10
-10.52498
 20
-14.85684
 30
0.0
 10
-10.52498
 20
-14.85684
 30
0.0
 10
-10.52498
 20
-14.85684
 30
0.0
 10
-10.52131
 20
-14.85684
 30
0.0
 10
-10.52131
 20
-14.85684
 30
0.0
 10
-10.52131
 20
-14.85684
 30
0.0
 10
-10.51966
 20
-14.85684
 30
0.0
 10
-10.51847
 20
-14.85713
 30
0.0
 10
-10.51775
 20
-14.85772
 30
0.0
 10
-10.51775
 20
-14.85772
 30
0.0
 10
-10.51703
 20
-14.8583
 30
0.0
 10
-10.51667
 20
-14.85926
 30
0.0
 10
-10.51667
 20
-14.86058
 30
0.0
 10
-10.51667
 20
-14.86058
 30
0.0
 10
-10.51667
 20
-14.86146
 30
0.0
 10
-10.51689
 20
-14.86217
 30
0.0
 10
-10.51732
 20
-14.86269
 30
0.0
 10
-10.51732
 20
-14.86269
 30
0.0
 10
-10.51775
 20
-14.86321
 30
0.0
 10
-10.51837
 20
-14.86353
 30
0.0
 10
-10.51918
 20
-14.86363
 30
0.0
  0
SPLINE
  5
6B
330
1F
100
AcDbEntity
  8
Layer 1
 62
   250
100
AcDbSpline
210
0.0
220
0.0
230
1.0
 70
    11
 71
     3
 72
    32
 73
    28
 74
     0
 42
0.0000000001
 43
0.0000000001
 40
0.0
 40
0.0
 40
0.0
 40
0.0
 40
0.1428571428571428
 40
0.1428571428571428
 40
0.1428571428571428
 40
0.1428571428571428
 40
0.2857142857142857
 40
0.2857142857142857
 40
0.2857142857142857
 40
0.2857142857142857
 40
0.4285714285714285
 40
0.4285714285714285
 40
0.4285714285714285
 40
0.4285714285714285
 40
0.5714285714285714
 40
0.5714285714285714
 40
0.5714285714285714
 40
0.5714285714285714
 40
0.7142857142857142
 40
0.7142857142857142
 40
0.7142857142857142
 40
0.7142857142857142
 40
0.857142857142857
 40
0.857142857142857
 40
0.857142857142857
 40
0.857142857142857
 40
1.0
 40
1.0
 40
1.0
 40
1.0
 10
-10.52244
 20
-14.85898
 30
0.0
 10
-10.52244
 20
-14.85898
 30
0.0
 10
-10.52244
 20
-14.86248
 30
0.0
 10
-10.52244
 20
-14.86248
 30
0.0
 10
-10.52244
 20
-14.86248
 30
0.0
 10
-10.52244
 20
-14.86248
 30
0.0
 10
-10.52125
 20
-14.86248
 30
0.0
 10
-10.52125
 20
-14.86248
 30
0.0
 10
-10.52125
 20
-14.86248
 30
0.0
 10
-10.52055
 20
-14.86248
 30
0.0
 10
-10.52005
 20
-14.86235
 30
0.0
 10
-10.51975
 20
-14.86207
 30
0.0
 10
-10.51975
 20
-14.86207
 30
0.0
 10
-10.51945
 20
-14.8618
 30
0.0
 10
-10.5193
 20
-14.86135
 30
0.0
 10
-10.5193
 20
-14.86073
 30
0.0
 10
-10.5193
 20
-14.86073
 30
0.0
 10
-10.5193
 20
-14.8601
 30
0.0
 10
-10.51945
 20
-14.85965
 30
0.0
 10
-10.51975
 20
-14.85938
 30
0.0
 10
-10.51975
 20
-14.85938
 30
0.0
 10
-10.52005
 20
-14.85911
 30
0.0
 10
-10.52055
 20
-14.85898
 30
0.0
 10
-10.52125
 20
-14.85898
 30
0.0
 10
-10.52125
 20
-14.85898
 30
0.0
 10
-10.52125
 20
-14.85898
 30
0.0
 10
-10.52244
 20
-14.85898
 30
0.0
 10
-10.52244
 20
-14.85898
 30
0.0
  0
SPLINE
  5
6C
330
1F
100
AcDbEntity
  8
Layer 1
 62
   250
100
AcDbSpline
210
0.0
220
0.0
230
1.0
 70
    11
 71
     3
 72
    36
 73
    32
 74
     0
 42
0.0000000001
 43
0.0000000001
 40
0.0
 40
0.0
 40
0.0
 40
0.0
 40
0.125
 40
0.125
 40
0.125
 40
0.125
 40
0.25
 40
0.25
 40
0.25
 40
0.25
 40
0.375
 40
0.375
 40
0.375
 40
0.375
 40
0.5
 40
0.5
 40
0.5
 40
0.5
 40
0.625
 40
0.625
 40
0.625
 40
0.625
 40
0.75
 40
0.75
 40
0.75
 40
0.75
 40
0.875
 40
0.875
 40
0.875
 40
0.875
 40
1.0
 40
1.0
 40
1.0
 40
1.0
 10
-10.50997
 20
-14.86326
 30
0.0
 10
-10.51052
 20
-14.86326
 30
0.0
 10
-10.51094
 20
-14.86346
 30
0.0
 10
-10.51123
 20
-14.86386
 30
0.0
 10
-10.51123
 20
-14.86386
 30
0.0
 10
-10.51152
 20
-14.86426
 30
0.0
 10
-10.51167
 20
-14.86483
 30
0.0
 10
-10.51167
 20
-14.86559
 30
0.0
 10
-10.51167
 20
-14.86559
 30
0.0
 10
-10.51167
 20
-14.86634
 30
0.0
 10
-10.51152
 20
-14.86692
 30
0.0
 10
-10.51123
 20
-14.86732
 30
0.0
 10
-10.51123
 20
-14.86732
 30
0.0
 10
-10.51094
 20
-14.86772
 30
0.0
 10
-10.51052
 20
-14.86792
 30
0.0
 10
-10.50997
 20
-14.86792
 30
0.0
 10
-10.50997
 20
-14.86792
 30
0.0
 10
-10.50942
 20
-14.86792
 30
0.0
 10
-10.50899
 20
-14.86772
 30
0.0
 10
-10.5087
 20
-14.86732
 30
0.0
 10
-10.5087
 20
-14.86732
 30
0.0
 10
-10.5084
 20
-14.86692
 30
0.0
 10
-10.50826
 20
-14.86634
 30
0.0
 10
-10.50826
 20
-14.86559
 30
0.0
 10
-10.50826
 20
-14.86559
 30
0.0
 10
-10.50826
 20
-14.86484
 30
0.0
 10
-10.5084
 20
-14.86426
 30
0.0
 10
-10.5087
 20
-14.86386
 30
0.0
 10
-10.5087
 20
-14.86386
 30
0.0
 10
-10.50899
 20
-14.86346
 30
0.0
 10
-10.50942
 20
-14.86326
 30
0.0
 10
-10.50997
 20
-14.86326
 30
0.0
  0
SPLINE
  5
6D
330
1F
100
AcDbEntity
  8
Layer 1
 62
   250
100
AcDbSpline
210
0.0
220
0.0
230
1.0
 70
    11
 71
     3
 72
    72
 73
    68
 74
     0
 42
0.0000000001
 43
0.0000000001
 40
0.0
 40
0.0
 40
0.0
 40
0.0
 40
0.0588235294117647
 40
0.0588235294117647
 40
0.0588235294117647
 40
0.0588235294117647
 40
0.1176470588235294
 40
0.1176470588235294
 40
0.1176470588235294
 40
0.1176470588235294
 40
0.1764705882352941
 40
0.1764705882352941
 40
0.1764705882352941
 40
0.1764705882352941
 40
0.2352941176470588
 40
0.2352941176470588
 40
0.2352941176470588
 40
0.2352941176470588
 40
0.2941176470588235
 40
0.2941176470588235
 40
0.2941176470588235
 40
0.2941176470588235
 40
0.3529411764705883
 40
0.3529411764705883
 40
0.3529411764705883
 40
0.3529411764705883
 40
0.411764705882353
 40
0.411764705882353
 40
0.411764705882353
 40
0.411764705882353
 40
0.4705882352941177
 40
0.4705882352941177
 40
0.4705882352941177
 40
0.4705882352941177
 40
0.5294117647058824
 40
0.5294117647058824
 40
0.5294117647058824
 40
0.5294117647058824
 40
0.5882352941176471
 40
0.5882352941176471
 40
0.5882352941176471
 40
0.5882352941176471
 40
0.6470588235294118
 40
0.6470588235294118
 40
0.6470588235294118
 40
0.6470588235294118
 40
0.7058823529411765
 40
0.7058823529411765
 40
0.7058823529411765
 40
0.7058823529411765
 40
0.7647058823529412
 40
0.7647058823529412
 40
0.7647058823529412
 40
0.7647058823529412
 40
0.823529411764706
 40
0.823529411764706
 40
0.823529411764706
 40
0.823529411764706
 40
0.8823529411764707
 40
0.8823529411764707
 40
0.8823529411764707
 40
0.8823529411764707
 40
0.9411764705882354
 40
0.9411764705882354
 40
0.9411764705882354
 40
0.9411764705882354
 40
1.0
 40
1.0
 40
1.0
 40
1.0
 10
-10.50664
 20
-14.85714
 30
0.0
 10
-10.50664
 20
-14.85714
 30
0.0
 10
-10.50664
 20
-14.85945
 30
0.0
 10
-10.50664
 20
-14.85945
 30
0.0
 10
-10.50664
 20
-14.85945
 30
0.0
 10
-10.50709
 20
-14.85919
 30
0.0
 10
-10.50753
 20
-14.859
 30
0.0
 10
-10.50795
 20
-14.85887
 30
0.0
 10
-10.50795
 20
-14.85887
 30
0.0
 10
-10.50836
 20
-14.85874
 30
0.0
 10
-10.50876
 20
-14.85867
 30
0.0
 10
-10.50914
 20
-14.85867
 30
0.0
 10
-10.50914
 20
-14.85867
 30
0.0
 10
-10.51006
 20
-14.85867
 30
0.0
 10
-10.51076
 20
-14.85898
 30
0.0
 10
-10.51124
 20
-14.8596
 30
0.0
 10
-10.51124
 20
-14.8596
 30
0.0
 10
-10.51172
 20
-14.86022
 30
0.0
 10
-10.51197
 20
-14.86113
 30
0.0
 10
-10.51199
 20
-14.86234
 30
0.0
 10
-10.51199
 20
-14.86234
 30
0.0
 10
-10.51172
 20
-14.86196
 30
0.0
 10
-10.51138
 20
-14.86168
 30
0.0
 10
-10.51096
 20
-14.86149
 30
0.0
 10
-10.51096
 20
-14.86149
 30
0.0
 10
-10.51054
 20
-14.86131
 30
0.0
 10
-10.51005
 20
-14.86122
 30
0.0
 10
-10.50948
 20
-14.86122
 30
0.0
 10
-10.50948
 20
-14.86122
 30
0.0
 10
-10.50832
 20
-14.86122
 30
0.0
 10
-10.50742
 20
-14.86158
 30
0.0
 10
-10.50679
 20
-14.86231
 30
0.0
 10
-10.50679
 20
-14.86231
 30
0.0
 10
-10.50616
 20
-14.86305
 30
0.0
 10
-10.50585
 20
-14.86408
 30
0.0
 10
-10.50585
 20
-14.86543
 30
0.0
 10
-10.50585
 20
-14.86543
 30
0.0
 10
-10.50585
 20
-14.86687
 30
0.0
 10
-10.5062
 20
-14.86799
 30
0.0
 10
-10.50691
 20
-14.86878
 30
0.0
 10
-10.50691
 20
-14.86878
 30
0.0
 10
-10.50762
 20
-14.86957
 30
0.0
 10
-10.50862
 20
-14.86997
 30
0.0
 10
-10.5099
 20
-14.86997
 30
0.0
 10
-10.5099
 20
-14.86997
 30
0.0
 10
-10.51147
 20
-14.86997
 30
0.0
 10
-10.51261
 20
-14.86944
 30
0.0
 10
-10.51332
 20
-14.86839
 30
0.0
 10
-10.51332
 20
-14.86839
 30
0.0
 10
-10.51403
 20
-14.86734
 30
0.0
 10
-10.51438
 20
-14.86564
 30
0.0
 10
-10.51438
 20
-14.8633
 30
0.0
 10
-10.51438
 20
-14.8633
 30
0.0
 10
-10.51438
 20
-14.86107
 30
0.0
 10
-10.51395
 20
-14.8594
 30
0.0
 10
-10.51308
 20
-14.85829
 30
0.0
 10
-10.51308
 20
-14.85829
 30
0.0
 10
-10.51221
 20
-14.85718
 30
0.0
 10
-10.51091
 20
-14.85663
 30
0.0
 10
-10.50918
 20
-14.85663
 30
0.0
 10
-10.50918
 20
-14.85663
 30
0.0
 10
-10.50878
 20
-14.85663
 30
0.0
 10
-10.50836
 20
-14.85667
 30
0.0
 10
-10.50794
 20
-14.85676
 30
0.0
 10
-10.50794
 20
-14.85676
 30
0.0
 10
-10.50751
 20
-14.85684
 30
0.0
 10
-10.50708
 20
-14.85697
 30
0.0
 10
-10.50664
 20
-14.85714
 30
0.0
  0
SPLINE
  5
6E
330
1F
100
AcDbEntity
  8
Layer 1
 62
   250
100
AcDbSpline
210
0.0
220
0.0
230
1.0
 70
    11
 71
     3
 72
    92
 73
    88
 74
     0
 42
0.0000000001
 43
0.0000000001
 40
0.0
 40
0.0
 40
0.0
 40
0.0
 40
0.0454545454545455
 40
0.0454545454545455
 40
0.0454545454545455
 40
0.0454545454545455
 40
0.0909090909090909
 40
0.0909090909090909
 40
0.0909090909090909
 40
0.0909090909090909
 40
0.1363636363636364
 40
0.1363636363636364
 40
0.1363636363636364
 40
0.1363636363636364
 40
0.1818181818181818
 40
0.1818181818181818
 40
0.1818181818181818
 40
0.1818181818181818
 40
0.2272727272727273
 40
0.2272727272727273
 40
0.2272727272727273
 40
0.2272727272727273
 40
0.2727272727272728
 40
0.2727272727272728
 40
0.2727272727272728
 40
0.2727272727272728
 40
0.3181818181818182
 40
0.3181818181818182
 40
0.3181818181818182
 40
0.3181818181818182
 40
0.3636363636363637
 40
0.3636363636363637
 40
0.3636363636363637
 40
0.3636363636363637
 40
0.4090909090909092
 40
0.4090909090909092
 40
0.4090909090909092
 40
0.4090909090909092
 40
0.4545454545454546
 40
0.4545454545454546
 40
0.4545454545454546
 40
0.4545454545454546
 40
0.5000000000000001
 40
0.5000000000000001
 40
0.5000000000000001
 40
0.5000000000000001
 40
0.5454545454545455
 40
0.5454545454545455
 40
0.5454545454545455
 40
0.5454545454545455
 40
0.5909090909090909
 40
0.5909090909090909
 40
0.5909090909090909
 40
0.5909090909090909
 40
0.6363636363636364
 40
0.6363636363636364
 40
0.6363636363636364
 40
0.6363636363636364
 40
0.6818181818181818
 40
0.6818181818181818
 40
0.6818181818181818
 40
0.6818181818181818
 40
0.7272727272727272
 40
0.7272727272727272
 40
0.7272727272727272
 40
0.7272727272727272
 40
0.7727272727272726
 40
0.7727272727272726
 40
0.7727272727272726
 40
0.7727272727272726
 40
0.818181818181818
 40
0.818181818181818
 40
0.818181818181818
 40
0.818181818181818
 40
0.8636363636363634
 40
0.8636363636363634
 40
0.8636363636363634
 40
0.8636363636363634
 40
0.9090909090909088
 40
0.9090909090909088
 40
0.9090909090909088
 40
0.9090909090909088
 40
0.9545454545454543
 40
0.9545454545454543
 40
0.9545454545454543
 40
0.9545454545454543
 40
1.0
 40
1.0
 40
1.0
 40
1.0
 10
-10.50323
 20
-14.85684
 30
0.0
 10
-10.50323
 20
-14.85684
 30
0.0
 10
-10.49624
 20
-14.85684
 30
0.0
 10
-10.49624
 20
-14.85684
 30
0.0
 10
-10.49624
 20
-14.85684
 30
0.0
 10
-10.49624
 20
-14.85684
 30
0.0
 10
-10.49624
 20
-14.85908
 30
0.0
 10
-10.49624
 20
-14.85908
 30
0.0
 10
-10.49624
 20
-14.85908
 30
0.0
 10
-10.49624
 20
-14.85908
 30
0.0
 10
-10.50117
 20
-14.85908
 30
0.0
 10
-10.50117
 20
-14.85908
 30
0.0
 10
-10.50117
 20
-14.85908
 30
0.0
 10
-10.50117
 20
-14.85908
 30
0.0
 10
-10.50117
 20
-14.86147
 30
0.0
 10
-10.50117
 20
-14.86147
 30
0.0
 10
-10.50117
 20
-14.86147
 30
0.0
 10
-10.50097
 20
-14.86139
 30
0.0
 10
-10.50074
 20
-14.86133
 30
0.0
 10
-10.50051
 20
-14.86129
 30
0.0
 10
-10.50051
 20
-14.86129
 30
0.0
 10
-10.50027
 20
-14.86125
 30
0.0
 10
-10.50002
 20
-14.86123
 30
0.0
 10
-10.49976
 20
-14.86123
 30
0.0
 10
-10.49976
 20
-14.86123
 30
0.0
 10
-10.49848
 20
-14.86123
 30
0.0
 10
-10.49745
 20
-14.86164
 30
0.0
 10
-10.49666
 20
-14.86244
 30
0.0
 10
-10.49666
 20
-14.86244
 30
0.0
 10
-10.49586
 20
-14.86324
 30
0.0
 10
-10.49547
 20
-14.86429
 30
0.0
 10
-10.49547
 20
-14.86558
 30
0.0
 10
-10.49547
 20
-14.86558
 30
0.0
 10
-10.49547
 20
-14.86692
 30
0.0
 10
-10.4959
 20
-14.86799
 30
0.0
 10
-10.49676
 20
-14.86877
 30
0.0
 10
-10.49676
 20
-14.86877
 30
0.0
 10
-10.49761
 20
-14.86956
 30
0.0
 10
-10.49878
 20
-14.86995
 30
0.0
 10
-10.50027
 20
-14.86995
 30
0.0
 10
-10.50027
 20
-14.86995
 30
0.0
 10
-10.50082
 20
-14.86995
 30
0.0
 10
-10.50137
 20
-14.8699
 30
0.0
 10
-10.50194
 20
-14.86981
 30
0.0
 10
-10.50194
 20
-14.86981
 30
0.0
 10
-10.5025
 20
-14.86972
 30
0.0
 10
-10.50307
 20
-14.86958
 30
0.0
 10
-10.50366
 20
-14.8694
 30
0.0
 10
-10.50366
 20
-14.8694
 30
0.0
 10
-10.50366
 20
-14.8694
 30
0.0
 10
-10.50366
 20
-14.86711
 30
0.0
 10
-10.50366
 20
-14.86711
 30
0.0
 10
-10.50366
 20
-14.86711
 30
0.0
 10
-10.50318
 20
-14.86734
 30
0.0
 10
-10.50269
 20
-14.86752
 30
0.0
 10
-10.50219
 20
-14.86764
 30
0.0
 10
-10.50219
 20
-14.86764
 30
0.0
 10
-10.50169
 20
-14.86775
 30
0.0
 10
-10.50118
 20
-14.86781
 30
0.0
 10
-10.50068
 20
-14.86781
 30
0.0
 10
-10.50068
 20
-14.86781
 30
0.0
 10
-10.49978
 20
-14.86781
 30
0.0
 10
-10.4991
 20
-14.86762
 30
0.0
 10
-10.49864
 20
-14.86724
 30
0.0
 10
-10.49864
 20
-14.86724
 30
0.0
 10
-10.49817
 20
-14.86686
 30
0.0
 10
-10.49794
 20
-14.8663
 30
0.0
 10
-10.49794
 20
-14.86558
 30
0.0
 10
-10.49794
 20
-14.86558
 30
0.0
 10
-10.49794
 20
-14.8649
 30
0.0
 10
-10.49817
 20
-14.86436
 30
0.0
 10
-10.49863
 20
-14.86396
 30
0.0
 10
-10.49863
 20
-14.86396
 30
0.0
 10
-10.4991
 20
-14.86356
 30
0.0
 10
-10.49971
 20
-14.86335
 30
0.0
 10
-10.50048
 20
-14.86335
 30
0.0
 10
-10.50048
 20
-14.86335
 30
0.0
 10
-10.50094
 20
-14.86335
 30
0.0
 10
-10.50139
 20
-14.86341
 30
0.0
 10
-10.50185
 20
-14.86352
 30
0.0
 10
-10.50185
 20
-14.86352
 30
0.0
 10
-10.5023
 20
-14.86363
 30
0.0
 10
-10.50276
 20
-14.8638
 30
0.0
 10
-10.50323
 20
-14.86403
 30
0.0
 10
-10.50323
 20
-14.86403
 30
0.0
 10
-10.50323
 20
-14.86403
 30
0.0
 10
-10.50323
 20
-14.85684
 30
0.0
 10
-10.50323
 20
-14.85684
 30
0.0
  0
SPLINE
  5
6F
330
1F
100
AcDbEntity
  8
Layer 1
 62
   250
100
AcDbSpline
210
0.0
220
0.0
230
1.0
 70
    11
 71
     3
 72
    36
 73
    32
 74
     0
 42
0.0000000001
 43
0.0000000001
 40
0.0
 40
0.0
 40
0.0
 40
0.0
 40
0.125
 40
0.125
 40
0.125
 40
0.125
 40
0.25
 40
0.25
 40
0.25
 40
0.25
 40
0.375
 40
0.375
 40
0.375
 40
0.375
 40
0.5
 40
0.5
 40
0.5
 40
0.5
 40
0.625
 40
0.625
 40
0.625
 40
0.625
 40
0.75
 40
0.75
 40
0.75
 40
0.75
 40
0.875
 40
0.875
 40
0.875
 40
0.875
 40
1.0
 40
1.0
 40
1.0
 40
1.0
 10
-10.48873
 20
-14.86326
 30
0.0
 10
-10.48928
 20
-14.86326
 30
0.0
 10
-10.4897
 20
-14.86346
 30
0.0
 10
-10.48999
 20
-14.86386
 30
0.0
 10
-10.48999
 20
-14.86386
 30
0.0
 10
-10.49028
 20
-14.86426
 30
0.0
 10
-10.49043
 20
-14.86483
 30
0.0
 10
-10.49043
 20
-14.86559
 30
0.0
 10
-10.49043
 20
-14.86559
 30
0.0
 10
-10.49043
 20
-14.86634
 30
0.0
 10
-10.49028
 20
-14.86692
 30
0.0
 10
-10.48999
 20
-14.86732
 30
0.0
 10
-10.48999
 20
-14.86732
 30
0.0
 10
-10.4897
 20
-14.86772
 30
0.0
 10
-10.48928
 20
-14.86792
 30
0.0
 10
-10.48873
 20
-14.86792
 30
0.0
 10
-10.48873
 20
-14.86792
 30
0.0
 10
-10.48818
 20
-14.86792
 30
0.0
 10
-10.48775
 20
-14.86772
 30
0.0
 10
-10.48746
 20
-14.86732
 30
0.0
 10
-10.48746
 20
-14.86732
 30
0.0
 10
-10.48716
 20
-14.86692
 30
0.0
 10
-10.48702
 20
-14.86634
 30
0.0
 10
-10.48702
 20
-14.86559
 30
0.0
 10
-10.48702
 20
-14.86559
 30
0.0
 10
-10.48702
 20
-14.86484
 30
0.0
 10
-10.48716
 20
-14.86426
 30
0.0
 10
-10.48746
 20
-14.86386
 30
0.0
 10
-10.48746
 20
-14.86386
 30
0.0
 10
-10.48775
 20
-14.86346
 30
0.0
 10
-10.48818
 20
-14.86326
 30
0.0
 10
-10.48873
 20
-14.86326
 30
0.0
  0
SPLINE
  5
70
330
1F
100
AcDbEntity
  8
Layer 1
 62
   250
100
AcDbSpline
210
0.0
220
0.0
230
1.0
 70
    11
 71
     3
 72
    72
 73
    68
 74
     0
 42
0.0000000001
 43
0.0000000001
 40
0.0
 40
0.0
 40
0.0
 40
0.0
 40
0.0588235294117647
 40
0.0588235294117647
 40
0.0588235294117647
 40
0.0588235294117647
 40
0.1176470588235294
 40
0.1176470588235294
 40
0.1176470588235294
 40
0.1176470588235294
 40
0.1764705882352941
 40
0.1764705882352941
 40
0.1764705882352941
 40
0.1764705882352941
 40
0.2352941176470588
 40
0.2352941176470588
 40
0.2352941176470588
 40
0.2352941176470588
 40
0.2941176470588235
 40
0.2941176470588235
 40
0.2941176470588235
 40
0.2941176470588235
 40
0.3529411764705883
 40
0.3529411764705883
 40
0.3529411764705883
 40
0.3529411764705883
 40
0.411764705882353
 40
0.411764705882353
 40
0.411764705882353
 40
0.411764705882353
 40
0.4705882352941177
 40
0.4705882352941177
 40
0.4705882352941177
 40
0.4705882352941177
 40
0.5294117647058824
 40
0.5294117647058824
 40
0.5294117647058824
 40
0.5294117647058824
 40
0.5882352941176471
 40
0.5882352941176471
 40
0.5882352941176471
 40
0.5882352941176471
 40
0.6470588235294118
 40
0.6470588235294118
 40
0.6470588235294118
 40
0.6470588235294118
 40
0.7058823529411765
 40
0.7058823529411765
 40
0.7058823529411765
 40
0.7058823529411765
 40
0.7647058823529412
 40
0.7647058823529412
 40
0.7647058823529412
 40
0.7647058823529412
 40
0.823529411764706
 40
0.823529411764706
 40
0.823529411764706
 40
0.823529411764706
 40
0.8823529411764707
 40
0.8823529411764707
 40
0.8823529411764707
 40
0.8823529411764707
 40
0.9411764705882354
 40
0.9411764705882354
 40
0.9411764705882354
 40
0.9411764705882354
 40
1.0
 40
1.0
 40
1.0
 40
1.0
 10
-10.4854
 20
-14.85714
 30
0.0
 10
-10.4854
 20
-14.85714
 30
0.0
 10
-10.4854
 20
-14.85945
 30
0.0
 10
-10.4854
 20
-14.85945
 30
0.0
 10
-10.4854
 20
-14.85945
 30
0.0
 10
-10.48585
 20
-14.85919
 30
0.0
 10
-10.48629
 20
-14.859
 30
0.0
 10
-10.48671
 20
-14.85887
 30
0.0
 10
-10.48671
 20
-14.85887
 30
0.0
 10
-10.48712
 20
-14.85874
 30
0.0
 10
-10.48752
 20
-14.85867
 30
0.0
 10
-10.4879
 20
-14.85867
 30
0.0
 10
-10.4879
 20
-14.85867
 30
0.0
 10
-10.48882
 20
-14.85867
 30
0.0
 10
-10.48952
 20
-14.85898
 30
0.0
 10
-10.49
 20
-14.8596
 30
0.0
 10
-10.49
 20
-14.8596
 30
0.0
 10
-10.49048
 20
-14.86022
 30
0.0
 10
-10.49073
 20
-14.86113
 30
0.0
 10
-10.49075
 20
-14.86234
 30
0.0
 10
-10.49075
 20
-14.86234
 30
0.0
 10
-10.49048
 20
-14.86196
 30
0.0
 10
-10.49014
 20
-14.86168
 30
0.0
 10
-10.48972
 20
-14.86149
 30
0.0
 10
-10.48972
 20
-14.86149
 30
0.0
 10
-10.4893
 20
-14.86131
 30
0.0
 10
-10.48881
 20
-14.86122
 30
0.0
 10
-10.48824
 20
-14.86122
 30
0.0
 10
-10.48824
 20
-14.86122
 30
0.0
 10
-10.48708
 20
-14.86122
 30
0.0
 10
-10.48618
 20
-14.86158
 30
0.0
 10
-10.48555
 20
-14.86231
 30
0.0
 10
-10.48555
 20
-14.86231
 30
0.0
 10
-10.48492
 20
-14.86305
 30
0.0
 10
-10.48461
 20
-14.86408
 30
0.0
 10
-10.48461
 20
-14.86543
 30
0.0
 10
-10.48461
 20
-14.86543
 30
0.0
 10
-10.48461
 20
-14.86687
 30
0.0
 10
-10.48496
 20
-14.86799
 30
0.0
 10
-10.48567
 20
-14.86878
 30
0.0
 10
-10.48567
 20
-14.86878
 30
0.0
 10
-10.48638
 20
-14.86957
 30
0.0
 10
-10.48738
 20
-14.86997
 30
0.0
 10
-10.48866
 20
-14.86997
 30
0.0
 10
-10.48866
 20
-14.86997
 30
0.0
 10
-10.49023
 20
-14.86997
 30
0.0
 10
-10.49137
 20
-14.86944
 30
0.0
 10
-10.49208
 20
-14.86839
 30
0.0
 10
-10.49208
 20
-14.86839
 30
0.0
 10
-10.49279
 20
-14.86734
 30
0.0
 10
-10.49314
 20
-14.86564
 30
0.0
 10
-10.49314
 20
-14.8633
 30
0.0
 10
-10.49314
 20
-14.8633
 30
0.0
 10
-10.49314
 20
-14.86107
 30
0.0
 10
-10.49271
 20
-14.8594
 30
0.0
 10
-10.49184
 20
-14.85829
 30
0.0
 10
-10.49184
 20
-14.85829
 30
0.0
 10
-10.49097
 20
-14.85718
 30
0.0
 10
-10.48967
 20
-14.85663
 30
0.0
 10
-10.48794
 20
-14.85663
 30
0.0
 10
-10.48794
 20
-14.85663
 30
0.0
 10
-10.48754
 20
-14.85663
 30
0.0
 10
-10.48712
 20
-14.85667
 30
0.0
 10
-10.4867
 20
-14.85676
 30
0.0
 10
-10.4867
 20
-14.85676
 30
0.0
 10
-10.48627
 20
-14.85684
 30
0.0
 10
-10.48584
 20
-14.85697
 30
0.0
 10
-10.4854
 20
-14.85714
 30
0.0
  0
SPLINE
  5
71
330
1F
100
AcDbEntity
  8
Layer 1
 62
   250
100
AcDbSpline
210
0.0
220
0.0
230
1.0
 70
    11
 71
     3
 72
    48
 73
    44
 74
     0
 42
0.0000000001
 43
0.0000000001
 40
0.0
 40
0.0
 40
0.0
 40
0.0
 40
0.0909090909090909
 40
0.0909090909090909
 40
0.0909090909090909
 40
0.0909090909090909
 40
0.1818181818181818
 40
0.1818181818181818
 40
0.1818181818181818
 40
0.1818181818181818
 40
0.2727272727272727
 40
0.2727272727272727
 40
0.2727272727272727
 40
0.2727272727272727
 40
0.3636363636363636
 40
0.3636363636363636
 40
0.3636363636363636
 40
0.3636363636363636
 40
0.4545454545454546
 40
0.4545454545454546
 40
0.4545454545454546
 40
0.4545454545454546
 40
0.5454545454545455
 40
0.5454545454545455
 40
0.5454545454545455
 40
0.5454545454545455
 40
0.6363636363636365
 40
0.6363636363636365
 40
0.6363636363636365
 40
0.6363636363636365
 40
0.7272727272727274
 40
0.7272727272727274
 40
0.7272727272727274
 40
0.7272727272727274
 40
0.8181818181818183
 40
0.8181818181818183
 40
0.8181818181818183
 40
0.8181818181818183
 40
0.9090909090909093
 40
0.9090909090909093
 40
0.9090909090909093
 40
0.9090909090909093
 40
1.0
 40
1.0
 40
1.0
 40
1.0
 10
-10.48203
 20
-14.86746
 30
0.0
 10
-10.48203
 20
-14.86746
 30
0.0
 10
-10.47919
 20
-14.86746
 30
0.0
 10
-10.47919
 20
-14.86746
 30
0.0
 10
-10.47919
 20
-14.86746
 30
0.0
 10
-10.47919
 20
-14.86746
 30
0.0
 10
-10.47919
 20
-14.85911
 30
0.0
 10
-10.47919
 20
-14.85911
 30
0.0
 10
-10.47919
 20
-14.85911
 30
0.0
 10
-10.47919
 20
-14.85911
 30
0.0
 10
-10.48183
 20
-14.85977
 30
0.0
 10
-10.48183
 20
-14.85977
 30
0.0
 10
-10.48183
 20
-14.85977
 30
0.0
 10
-10.48183
 20
-14.85977
 30
0.0
 10
-10.48183
 20
-14.85748
 30
0.0
 10
-10.48183
 20
-14.85748
 30
0.0
 10
-10.48183
 20
-14.85748
 30
0.0
 10
-10.48183
 20
-14.85748
 30
0.0
 10
-10.47917
 20
-14.85684
 30
0.0
 10
-10.47917
 20
-14.85684
 30
0.0
 10
-10.47917
 20
-14.85684
 30
0.0
 10
-10.47917
 20
-14.85684
 30
0.0
 10
-10.47671
 20
-14.85684
 30
0.0
 10
-10.47671
 20
-14.85684
 30
0.0
 10
-10.47671
 20
-14.85684
 30
0.0
 10
-10.47671
 20
-14.85684
 30
0.0
 10
-10.47671
 20
-14.86746
 30
0.0
 10
-10.47671
 20
-14.86746
 30
0.0
 10
-10.47671
 20
-14.86746
 30
0.0
 10
-10.47671
 20
-14.86746
 30
0.0
 10
-10.47387
 20
-14.86746
 30
0.0
 10
-10.47387
 20
-14.86746
 30
0.0
 10
-10.47387
 20
-14.86746
 30
0.0
 10
-10.47387
 20
-14.86746
 30
0.0
 10
-10.47387
 20
-14.8697
 30
0.0
 10
-10.47387
 20
-14.8697
 30
0.0
 10
-10.47387
 20
-14.8697
 30
0.0
 10
-10.47387
 20
-14.8697
 30
0.0
 10
-10.48203
 20
-14.8697
 30
0.0
 10
-10.48203
 20
-14.8697
 30
0.0
 10
-10.48203
 20
-14.8697
 30
0.0
 10
-10.48203
 20
-14.8697
 30
0.0
 10
-10.48203
 20
-14.86746
 30
0.0
 10
-10.48203
 20
-14.86746
 30
0.0
  0
ENDSEC
  0
SECTION
  2
OBJECTS
  0
DICTIONARY
  5
C
330
0
100
AcDbDictionary
281
     1
  3
ACAD_GROUP
350
D
  3
ACAD_LAYOUT
350
1A
  3
ACAD_MLEADERSTYLE
350
73
  3
ACAD_MLINESTYLE
350
17
  3
ACAD_PLOTSETTINGS
350
19
  3
ACAD_PLOTSTYLENAME
350
E
  3
ACAD_SCALELIST
350
3B
  3
ACAD_TABLESTYLE
350
72
  3
ACAD_VISUALSTYLE
350
2A
  0
DICTIONARY
  5
D
102
{ACAD_REACTORS
330
C
102
}
330
C
100
AcDbDictionary
281
     1
  0
DICTIONARY
  5
1A
102
{ACAD_REACTORS
330
C
102
}
330
C
100
AcDbDictionary
281
     1
  3
Layout1
350
1E
  3
Layout2
350
26
  3
Model
350
22
  0
DICTIONARY
  5
73
102
{ACAD_REACTORS
330
C
102
}
330
C
100
AcDbDictionary
281
     1
  0
DICTIONARY
  5
17
102
{ACAD_REACTORS
330
C
102
}
330
C
100
AcDbDictionary
281
     1
  3
Standard
350
18
  0
DICTIONARY
  5
19
102
{ACAD_REACTORS
330
C
102
}
330
C
100
AcDbDictionary
281
     1
  0
ACDBDICTIONARYWDFLT
  5
E
102
{ACAD_REACTORS
330
C
102
}
330
C
100
AcDbDictionary
281
     1
  3
Normal
350
F
100
AcDbDictionaryWithDefault
340
F
  0
DICTIONARY
  5
3B
102
{ACAD_REACTORS
330
C
102
}
330
C
100
AcDbDictionary
281
     1
  3
A0
350
3C
  3
A1
350
3D
  3
A2
350
3E
  3
A3
350
3F
  3
A4
350
40
  3
A5
350
41
  3
A6
350
42
  3
A7
350
43
  3
A8
350
44
  3
A9
350
45
  3
B0
350
46
  3
B1
350
47
  3
B2
350
48
  3
B3
350
49
  3
B4
350
4A
  3
B5
350
4B
  3
B6
350
4C
  3
B7
350
4D
  3
B8
350
4E
  3
B9
350
4F
  3
C0
350
50
  3
C1
350
51
  3
C2
350
52
  3
C3
350
53
  3
C4
350
54
  3
C5
350
55
  3
C6
350
56
  3
C7
350
57
  3
C8
350
58
  3
C9
350
59
  3
D0
350
5A
  3
D1
350
5B
  3
D2
350
5C
  0
DICTIONARY
  5
72
102
{ACAD_REACTORS
330
C
102
}
330
C
100
AcDbDictionary
281
     1
  0
DICTIONARY
  5
2A
102
{ACAD_REACTORS
330
C
102
}
330
C
100
AcDbDictionary
281
     1
  3
2dWireframe
350
2F
  3
3D Hidden
350
31
  3
3dWireframe
350
30
  3
Basic
350
32
  3
Brighten
350
36
  3
ColorChange
350
3A
  3
Conceptual
350
34
  3
Dim
350
35
  3
Facepattern
350
39
  3
Flat
350
2B
  3
FlatWithEdges
350
2C
  3
Gouraud
350
2D
  3
GouraudWithEdges
350
2E
  3
Linepattern
350
38
  3
Realistic
350
33
  3
Thicken
350
37
  0
LAYOUT
  5
1E
102
{ACAD_REACTORS
330
1A
102
}
330
1A
100
AcDbPlotSettings
  1

  2
none_device
  4

  6

 40
0.0
 41
0.0
 42
0.0
 43
0.0
 44
0.0
 45
0.0
 46
0.0
 47
0.0
 48
0.0
 49
0.0
140
0.0
141
0.0
142
1.0
143
1.0
 70
   688
 72
     0
 73
     0
 74
     5
  7

 75
    16
 76
     0
 77
     2
 78
   300
147
1.0
148
0.0
149
0.0
100
AcDbLayout
  1
Layout1
 70
     1
 71
     1
 10
0.0
 20
0.0
 11
12.0
 21
9.0
 12
0.0
 22
0.0
 32
0.0
 14
1.000000000000000E+20
 24
1.000000000000000E+20
 34
1.000000000000000E+20
 15
-1.000000000000000E+20
 25
-1.000000000000000E+20
 35
-1.000000000000000E+20
146
0.0
 13
0.0
 23
0.0
 33
0.0
 16
1.0
 26
0.0
 36
0.0
 17
0.0
 27
1.0
 37
0.0
 76
     0
330
1B
  0
LAYOUT
  5
26
102
{ACAD_REACTORS
330
1A
102
}
330
1A
100
AcDbPlotSettings
  1

  2
none_device
  4

  6

 40
0.0
 41
0.0
 42
0.0
 43
0.0
 44
0.0
 45
0.0
 46
0.0
 47
0.0
 48
0.0
 49
0.0
140
0.0
141
0.0
142
1.0
143
1.0
 70
   688
 72
     0
 73
     0
 74
     5
  7

 75
    16
 76
     0
 77
     2
 78
   300
147
1.0
148
0.0
149
0.0
100
AcDbLayout
  1
Layout2
 70
     1
 71
     2
 10
0.0
 20
0.0
 11
0.0
 21
0.0
 12
0.0
 22
0.0
 32
0.0
 14
0.0
 24
0.0
 34
0.0
 15
0.0
 25
0.0
 35
0.0
146
0.0
 13
0.0
 23
0.0
 33
0.0
 16
1.0
 26
0.0
 36
0.0
 17
0.0
 27
1.0
 37
0.0
 76
     0
330
23
  0
LAYOUT
  5
22
102
{ACAD_REACTORS
330
1A
102
}
330
1A
100
AcDbPlotSettings
  1

  2
none_device
  4

  6

 40
0.0
 41
0.0
 42
0.0
 43
0.0
 44
0.0
 45
0.0
 46
0.0
 47
0.0
 48
0.0
 49
0.0
140
0.0
141
0.0
142
1.0
143
1.0
 70
  1712
 72
     0
 73
     0
 74
     0
  7

 75
     0
 76
     0
 77
     2
 78
   300
147
1.0
148
0.0
149
0.0
100
AcDbLayout
  1
Model
 70
     1
 71
     0
 10
0.0
 20
0.0
 11
12.0
 21
9.0
 12
0.0
 22
0.0
 32
0.0
 14
-10.585
 24
-14.895
 34
0.0
 15
-10.415
 25
-14.805
 35
0.0
146
0.0
 13
0.0
 23
0.0
 33
0.0
 16
1.0
 26
0.0
 36
0.0
 17
0.0
 27
1.0
 37
0.0
 76
     0
330
1F
331
29
  0
MLINESTYLE
  5
18
102
{ACAD_REACTORS
330
17
102
}
330
17
100
AcDbMlineStyle
  2
Standard
 70
     0
  3

 62
   256
 51
90.0
 52
90.0
 71
     2
 49
0.5
 62
   256
  6
BYLAYER
 49
-0.5
 62
   256
  6
BYLAYER
  0
ACDBPLACEHOLDER
  5
F
102
{ACAD_REACTORS
330
E
102
}
330
E
  0
SCALE
  5
3C
102
{ACAD_REACTORS
330
3B
102
}
330
3B
100
AcDbScale
 70
     0
300
1:1
140
1.0
141
1.0
290
     1
  0
SCALE
  5
3D
102
{ACAD_REACTORS
330
3B
102
}
330
3B
100
AcDbScale
 70
     0
300
1:2
140
1.0
141
2.0
290
     0
  0
SCALE
  5
3E
102
{ACAD_REACTORS
330
3B
102
}
330
3B
100
AcDbScale
 70
     0
300
1:4
140
1.0
141
4.0
290
     0
  0
SCALE
  5
3F
102
{ACAD_REACTORS
330
3B
102
}
330
3B
100
AcDbScale
 70
     0
300
1:5
140
1.0
141
5.0
290
     0
  0
SCALE
  5
40
102
{ACAD_REACTORS
330
3B
102
}
330
3B
100
AcDbScale
 70
     0
300
1:8
140
1.0
141
8.0
290
     0
  0
SCALE
  5
41
102
{ACAD_REACTORS
330
3B
102
}
330
3B
100
AcDbScale
 70
     0
300
1:10
140
1.0
141
10.0
290
     0
  0
SCALE
  5
42
102
{ACAD_REACTORS
330
3B
102
}
330
3B
100
AcDbScale
 70
     0
300
1:16
140
1.0
141
16.0
290
     0
  0
SCALE
  5
43
102
{ACAD_REACTORS
330
3B
102
}
330
3B
100
AcDbScale
 70
     0
300
1:20
140
1.0
141
20.0
290
     0
  0
SCALE
  5
44
102
{ACAD_REACTORS
330
3B
102
}
330
3B
100
AcDbScale
 70
     0
300
1:30
140
1.0
141
30.0
290
     0
  0
SCALE
  5
45
102
{ACAD_REACTORS
330
3B
102
}
330
3B
100
AcDbScale
 70
     0
300
1:40
140
1.0
141
40.0
290
     0
  0
SCALE
  5
46
102
{ACAD_REACTORS
330
3B
102
}
330
3B
100
AcDbScale
 70
     0
300
1:50
140
1.0
141
50.0
290
     0
  0
SCALE
  5
47
102
{ACAD_REACTORS
330
3B
102
}
330
3B
100
AcDbScale
 70
     0
300
1:100
140
1.0
141
100.0
290
     0
  0
SCALE
  5
48
102
{ACAD_REACTORS
330
3B
102
}
330
3B
100
AcDbScale
 70
     0
300
2:1
140
2.0
141
1.0
290
     0
  0
SCALE
  5
49
102
{ACAD_REACTORS
330
3B
102
}
330
3B
100
AcDbScale
 70
     0
300
4:1
140
4.0
141
1.0
290
     0
  0
SCALE
  5
4A
102
{ACAD_REACTORS
330
3B
102
}
330
3B
100
AcDbScale
 70
     0
300
8:1
140
8.0
141
1.0
290
     0
  0
SCALE
  5
4B
102
{ACAD_REACTORS
330
3B
102
}
330
3B
100
AcDbScale
 70
     0
300
10:1
140
10.0
141
1.0
290
     0
  0
SCALE
  5
4C
102
{ACAD_REACTORS
330
3B
102
}
330
3B
100
AcDbScale
 70
     0
300
100:1
140
100.0
141
1.0
290
     0
  0
SCALE
  5
4D
102
{ACAD_REACTORS
330
3B
102
}
330
3B
100
AcDbScale
 70
     0
300
1/128" = 1'-0"
140
0.0078125
141
12.0
290
     0
  0
SCALE
  5
4E
102
{ACAD_REACTORS
330
3B
102
}
330
3B
100
AcDbScale
 70
     0
300
1/64" = 1'-0"
140
0.015625
141
12.0
290
     0
  0
SCALE
  5
4F
102
{ACAD_REACTORS
330
3B
102
}
330
3B
100
AcDbScale
 70
     0
300
1/32" = 1'-0"
140
0.03125
141
12.0
290
     0
  0
SCALE
  5
50
102
{ACAD_REACTORS
330
3B
102
}
330
3B
100
AcDbScale
 70
     0
300
1/16" = 1'-0"
140
0.0625
141
12.0
290
     0
  0
SCALE
  5
51
102
{ACAD_REACTORS
330
3B
102
}
330
3B
100
AcDbScale
 70
     0
300
3/32" = 1'-0"
140
0.09375
141
12.0
290
     0
  0
SCALE
  5
52
102
{ACAD_REACTORS
330
3B
102
}
330
3B
100
AcDbScale
 70
     0
300
1/8" = 1'-0"
140
0.125
141
12.0
290
     0
  0
SCALE
  5
53
102
{ACAD_REACTORS
330
3B
102
}
330
3B
100
AcDbScale
 70
     0
300
3/16" = 1'-0"
140
0.1875
141
12.0
290
     0
  0
SCALE
  5
54
102
{ACAD_REACTORS
330
3B
102
}
330
3B
100
AcDbScale
 70
     0
300
1/4" = 1'-0"
140
0.25
141
12.0
290
     0
  0
SCALE
  5
55
102
{ACAD_REACTORS
330
3B
102
}
330
3B
100
AcDbScale
 70
     0
300
3/8" = 1'-0"
140
0.375
141
12.0
290
     0
  0
SCALE
  5
56
102
{ACAD_REACTORS
330
3B
102
}
330
3B
100
AcDbScale
 70
     0
300
1/2" = 1'-0"
140
0.5
141
12.0
290
     0
  0
SCALE
  5
57
102
{ACAD_REACTORS
330
3B
102
}
330
3B
100
AcDbScale
 70
     0
300
3/4" = 1'-0"
140
0.75
141
12.0
290
     0
  0
SCALE
  5
58
102
{ACAD_REACTORS
330
3B
102
}
330
3B
100
AcDbScale
 70
     0
300
1" = 1'-0"
140
1.0
141
12.0
290
     0
  0
SCALE
  5
59
102
{ACAD_REACTORS
330
3B
102
}
330
3B
100
AcDbScale
 70
     0
300
1-1/2" = 1'-0"
140
1.5
141
12.0
290
     0
  0
SCALE
  5
5A
102
{ACAD_REACTORS
330
3B
102
}
330
3B
100
AcDbScale
 70
     0
300
3" = 1'-0"
140
3.0
141
12.0
290
     0
  0
SCALE
  5
5B
102
{ACAD_REACTORS
330
3B
102
}
330
3B
100
AcDbScale
 70
     0
300
6" = 1'-0"
140
6.0
141
12.0
290
     0
  0
SCALE
  5
5C
102
{ACAD_REACTORS
330
3B
102
}
330
3B
100
AcDbScale
 70
     0
300
1'-0" = 1'-0"
140
12.0
141
12.0
290
     0
  0
VISUALSTYLE
  5
2F
102
{ACAD_REACTORS
330
2A
102
}
330
2A
100
AcDbVisualStyle
  2
2dWireframe
 70
     4
 71
     0
 72
     2
 73
     0
 90
        0
 40
-0.6
 41
-30.0
 62
     5
 63
     7
421
 16777215
 74
     1
 91
        4
 64
     7
 65
   257
 75
     1
175
     1
 42
1.0
 92
        0
 66
   257
 43
1.0
 76
     1
 77
     6
 78
     2
 67
     7
 79
     5
170
     0
171
     0
290
     0
174
     0
 93
        1
 44
0.0
173
     0
291
     0
 45
0.0
  0
VISUALSTYLE
  5
31
102
{ACAD_REACTORS
330
2A
102
}
330
2A
100
AcDbVisualStyle
  2
3D Hidden
 70
     6
 71
     1
 72
     2
 73
     2
 90
        0
 40
-0.6
 41
-30.0
 62
     5
 63
     7
421
 16777215
 74
     2
 91
        2
 64
     7
 65
   257
 75
     2
175
     1
 42
40.0
 92
        0
 66
   257
 43
1.0
 76
     1
 77
     6
 78
     2
 67
     7
 79
     3
170
     0
171
     0
290
     0
174
     0
 93
        1
 44
0.0
173
     0
291
     0
 45
0.0
  0
VISUALSTYLE
  5
30
102
{ACAD_REACTORS
330
2A
102
}
330
2A
100
AcDbVisualStyle
  2
3dWireframe
 70
     5
 71
     0
 72
     2
 73
     0
 90
        0
 40
-0.6
 41
-30.0
 62
     5
 63
     7
421
 16777215
 74
     1
 91
        4
 64
     7
 65
   257
 75
     1
175
     1
 42
1.0
 92
        0
 66
   257
 43
1.0
 76
     1
 77
     6
 78
     2
 67
     7
 79
     5
170
     0
171
     0
290
     0
174
     0
 93
        1
 44
0.0
173
     0
291
     0
 45
0.0
  0
VISUALSTYLE
  5
32
102
{ACAD_REACTORS
330
2A
102
}
330
2A
100
AcDbVisualStyle
  2
Basic
 70
     7
 71
     1
 72
     0
 73
     1
 90
        0
 40
-0.6
 41
-30.0
 62
     5
 63
     7
421
 16777215
 74
     0
 91
        4
 64
     7
 65
   257
 75
     1
175
     1
 42
1.0
 92
        8
 66
     7
 43
1.0
 76
     1
 77
     6
 78
     2
 67
     7
 79
     5
170
     0
171
     0
290
     0
174
     0
 93
        1
 44
0.0
173
     0
291
     1
 45
0.0
  0
VISUALSTYLE
  5
36
102
{ACAD_REACTORS
330
2A
102
}
330
2A
100
AcDbVisualStyle
  2
Brighten
 70
    12
 71
     2
 72
     2
 73
     0
 90
        0
 40
-0.6
 41
-30.0
 62
     5
 63
     7
421
 16777215
 74
     1
 91
        4
 64
     7
 65
   257
 75
     1
175
     1
 42
1.0
 92
        8
 66
     7
 43
1.0
 76
     1
 77
     6
 78
     2
 67
     7
 79
     5
170
     0
171
     0
290
     0
174
     0
 93
        1
 44
50.0
173
     0
291
     1
 45
0.0
  0
VISUALSTYLE
  5
3A
102
{ACAD_REACTORS
330
2A
102
}
330
2A
100
AcDbVisualStyle
  2
ColorChange
 70
    16
 71
     2
 72
     2
 73
     3
 90
        0
 40
-0.6
 41
-30.0
 62
     5
 63
     8
421
  8421504
 74
     1
 91
        4
 64
     7
 65
   257
 75
     1
175
     1
 42
1.0
 92
        8
 66
     8
424
  8421504
 43
1.0
 76
     1
 77
     6
 78
     2
 67
     7
 79
     5
170
     0
171
     0
290
     0
174
     0
 93
        1
 44
0.0
173
     0
291
     1
 45
0.0
  0
VISUALSTYLE
  5
34
102
{ACAD_REACTORS
330
2A
102
}
330
2A
100
AcDbVisualStyle
  2
Conceptual
 70
     9
 71
     3
 72
     2
 73
     0
 90
        0
 40
-0.6
 41
-30.0
 62
     5
 63
     7
421
 16777215
 74
     2
 91
        2
 64
     7
 65
   257
 75
     1
175
     1
 42
40.0
 92
        8
 66
     7
 43
1.0
 76
     1
 77
     6
 78
     2
 67
     7
 79
     3
170
     0
171
     0
290
     0
174
     0
 93
        1
 44
0.0
173
     0
291
     0
 45
0.0
  0
VISUALSTYLE
  5
35
102
{ACAD_REACTORS
330
2A
102
}
330
2A
100
AcDbVisualStyle
  2
Dim
 70
    11
 71
     2
 72
     2
 73
     0
 90
        0
 40
-0.6
 41
-30.0
 62
     5
 63
     7
421
 16777215
 74
     1
 91
        4
 64
     7
 65
   257
 75
     1
175
     1
 42
1.0
 92
        8
 66
     7
 43
1.0
 76
     1
 77
     6
 78
     2
 67
     7
 79
     5
170
     0
171
     0
290
     0
174
     0
 93
        1
 44
-50.0
173
     0
291
     1
 45
0.0
  0
VISUALSTYLE
  5
39
102
{ACAD_REACTORS
330
2A
102
}
330
2A
100
AcDbVisualStyle
  2
Facepattern
 70
    15
 71
     2
 72
     2
 73
     0
 90
        0
 40
-0.6
 41
-30.0
 62
     5
 63
     7
421
 16777215
 74
     1
 91
        4
 64
     7
 65
   257
 75
     1
175
     1
 42
1.0
 92
        8
 66
     7
 43
1.0
 76
     1
 77
     6
 78
     2
 67
     7
 79
     5
170
     0
171
     0
290
     0
174
     0
 93
        1
 44
0.0
173
     0
291
     1
 45
0.0
  0
VISUALSTYLE
  5
2B
102
{ACAD_REACTORS
330
2A
102
}
330
2A
100
AcDbVisualStyle
  2
Flat
 70
     0
 71
     2
 72
     1
 73
     1
 90
        2
 40
-0.6
 41
30.0
 62
     5
 63
     7
421
 16777215
 74
     0
 91
        4
 64
     7
 65
   257
 75
     1
175
     1
 42
1.0
 92
        8
 66
     7
 43
1.0
 76
     1
 77
     6
 78
     2
 67
     7
 79
     5
170
     0
171
     0
290
     0
174
     0
 93
       13
 44
0.0
173
     0
291
     1
 45
0.0
  0
VISUALSTYLE
  5
2C
102
{ACAD_REACTORS
330
2A
102
}
330
2A
100
AcDbVisualStyle
  2
FlatWithEdges
 70
     1
 71
     2
 72
     1
 73
     1
 90
        2
 40
-0.6
 41
30.0
 62
     5
 63
     7
421
 16777215
 74
     1
 91
        4
 64
     7
 65
   257
 75
     1
175
     1
 42
1.0
 92
        0
 66
   257
 43
1.0
 76
     1
 77
     6
 78
     2
 67
     7
 79
     5
170
     0
171
     0
290
     0
174
     0
 93
       13
 44
0.0
173
     0
291
     1
 45
0.0
  0
VISUALSTYLE
  5
2D
102
{ACAD_REACTORS
330
2A
102
}
330
2A
100
AcDbVisualStyle
  2
Gouraud
 70
     2
 71
     2
 72
     2
 73
     1
 90
        2
 40
-0.6
 41
30.0
 62
     5
 63
     7
421
 16777215
 74
     0
 91
        4
 64
     7
 65
   257
 75
     1
175
     1
 42
1.0
 92
        0
 66
     7
 43
1.0
 76
     1
 77
     6
 78
     2
 67
     7
 79
     5
170
     0
171
     0
290
     0
174
     0
 93
       13
 44
0.0
173
     0
291
     1
 45
0.0
  0
VISUALSTYLE
  5
2E
102
{ACAD_REACTORS
330
2A
102
}
330
2A
100
AcDbVisualStyle
  2
GouraudWithEdges
 70
     3
 71
     2
 72
     2
 73
     1
 90
        2
 40
-0.6
 41
30.0
 62
     5
 63
     7
421
 16777215
 74
     1
 91
        4
 64
     7
 65
   257
 75
     1
175
     1
 42
1.0
 92
        0
 66
   257
 43
1.0
 76
     1
 77
     6
 78
     2
 67
     7
 79
     5
170
     0
171
     0
290
     0
174
     0
 93
       13
 44
0.0
173
     0
291
     1
 45
0.0
  0
VISUALSTYLE
  5
38
102
{ACAD_REACTORS
330
2A
102
}
330
2A
100
AcDbVisualStyle
  2
Linepattern
 70
    14
 71
     2
 72
     2
 73
     0
 90
        0
 40
-0.6
 41
-30.0
 62
     5
 63
     7
421
 16777215
 74
     1
 91
        4
 64
     7
 65
   257
 75
     7
175
     7
 42
1.0
 92
        8
 66
     7
 43
1.0
 76
     1
 77
     6
 78
     2
 67
     7
 79
     5
170
     0
171
     0
290
     0
174
     0
 93
        1
 44
0.0
173
     0
291
     1
 45
0.0
  0
VISUALSTYLE
  5
33
102
{ACAD_REACTORS
330
2A
102
}
330
2A
100
AcDbVisualStyle
  2
Realistic
 70
     8
 71
     2
 72
     2
 73
     0
 90
        0
 40
-0.6
 41
-30.0
 62
     5
 63
     7
421
 16777215
 74
     1
 91
        0
 64
     7
 65
   257
 75
     1
175
     1
 42
1.0
 92
        8
 66
     8
424
  7895160
 43
1.0
 76
     1
 77
     6
 78
     2
 67
     7
 79
     5
170
     0
171
     0
290
     0
174
     0
 93
       13
 44
0.0
173
     0
291
     0
 45
0.0
  0
VISUALSTYLE
  5
37
102
{ACAD_REACTORS
330
2A
102
}
330
2A
100
AcDbVisualStyle
  2
Thicken
 70
    13
 71
     2
 72
     2
 73
     0
 90
        0
 40
-0.6
 41
-30.0
 62
     5
 63
     7
421
 16777215
 74
     1
 91
        4
 64
     7
 65
   257
 75
     1
175
     1
 42
1.0
 92
       12
 66
     7
 43
1.0
 76
     1
 77
     6
 78
     2
 67
     7
 79
     5
170
     0
171
     0
290
     0
174
     0
 93
        1
 44
0.0
173
     0
291
     1
 45
0.0
  0
ENDSEC
  0
EOF
