  0
SECTION
  2
HEADER
  9
$ACADVER
  1
AC1021
  9
$ACADMAINTVER
 70
    25
  9
$DWGCODEPAGE
  3
ANSI_1252
  9
$INSBASE
 10
0.0
 20
0.0
 30
0.0
  9
$EXTMIN
 10
-11.7
 20
-16.05
 30
0.0
  9
$EXTMAX
 10
-9.3
 20
-13.65
 30
0.0
  9
$LIMMIN
 10
0.0
 20
0.0
  9
$LIMMAX
 10
12.0
 20
9.0
  9
$ORTHOMODE
 70
     0
  9
$REGENMODE
 70
     1
  9
$FILLMODE
 70
     1
  9
$QTEXTMODE
 70
     0
  9
$MIRRTEXT
 70
     1
  9
$LTSCALE
 40
1.0
  9
$ATTMODE
 70
     1
  9
$TEXTSIZE
 40
0.2
  9
$TRACEWID
 40
0.05
  9
$TEXTSTYLE
  7
Standard
  9
$CLAYER
  8
0
  9
$CELTYPE
  6
ByLayer
  9
$CECOLOR
 62
   256
  9
$CELTSCALE
 40
1.0
  9
$DISPSILH
 70
     0
  9
$DIMSCALE
 40
1.0
  9
$DIMASZ
 40
0.18
  9
$DIMEXO
 40
0.0625
  9
$DIMDLI
 40
0.38
  9
$DIMRND
 40
0.0
  9
$DIMDLE
 40
0.0
  9
$DIMEXE
 40
0.18
  9
$DIMTP
 40
0.0
  9
$DIMTM
 40
0.0
  9
$DIMTXT
 40
0.18
  9
$DIMCEN
 40
0.09
  9
$DIMTSZ
 40
0.0
  9
$DIMTOL
 70
     0
  9
$DIMLIM
 70
     0
  9
$DIMTIH
 70
     1
  9
$DIMTOH
 70
     1
  9
$DIMSE1
 70
     0
  9
$DIMSE2
 70
     0
  9
$DIMTAD
 70
     0
  9
$DIMZIN
 70
     0
  9
$DIMBLK
  1

  9
$DIMASO
 70
     1
  9
$DIMSHO
 70
     1
  9
$DIMPOST
  1

  9
$DIMAPOST
  1

  9
$DIMALT
 70
     0
  9
$DIMALTD
 70
     2
  9
$DIMALTF
 40
25.4
  9
$DIMLFAC
 40
1.0
  9
$DIMTOFL
 70
     0
  9
$DIMTVP
 40
0.0
  9
$DIMTIX
 70
     0
  9
$DIMSOXD
 70
     0
  9
$DIMSAH
 70
     0
  9
$DIMBLK1
  1

  9
$DIMBLK2
  1

  9
$DIMSTYLE
  2
Standard
  9
$DIMCLRD
 70
     0
  9
$DIMCLRE
 70
     0
  9
$DIMCLRT
 70
     0
  9
$DIMTFAC
 40
1.0
  9
$DIMGAP
 40
0.09
  9
$DIMJUST
 70
     0
  9
$DIMSD1
 70
     0
  9
$DIMSD2
 70
     0
  9
$DIMTOLJ
 70
     1
  9
$DIMTZIN
 70
     0
  9
$DIMALTZ
 70
     0
  9
$DIMALTTZ
 70
     0
  9
$DIMUPT
 70
     0
  9
$DIMDEC
 70
     4
  9
$DIMTDEC
 70
     4
  9
$DIMALTU
 70
     2
  9
$DIMALTTD
 70
     2
  9
$DIMTXSTY
  7
Standard
  9
$DIMAUNIT
 70
     0
  9
$DIMADEC
 70
     0
  9
$DIMALTRND
 40
0.0
  9
$DIMAZIN
 70
     0
  9
$DIMDSEP
 70
    46
  9
$DIMATFIT
 70
     3
  9
$DIMFRAC
 70
     0
  9
$DIMLDRBLK
  1

  9
$DIMLUNIT
 70
     2
  9
$DIMLWD
 70
    -2
  9
$DIMLWE
 70
    -2
  9
$DIMTMOVE
 70
     0
  9
$DIMFXL
 40
1.0
  9
$DIMFXLON
 70
     0
  9
$DIMJOGANG
 40
0.7853981633974483
  9
$DIMTFILL
 70
     0
  9
$DIMTFILLCLR
 70
     0
  9
$DIMARCSYM
 70
     0
  9
$DIMLTYPE
  6

  9
$DIMLTEX1
  6

  9
$DIMLTEX2
  6

  9
$LUNITS
 70
     2
  9
$LUPREC
 70
     4
  9
$SKETCHINC
 40
0.1
  9
$FILLETRAD
 40
0.5
  9
$AUNITS
 70
     0
  9
$AUPREC
 70
     0
  9
$MENU
  1
.
  9
$ELEVATION
 40
0.0
  9
$PELEVATION
 40
0.0
  9
$THICKNESS
 40
0.0
  9
$LIMCHECK
 70
     0
  9
$CHAMFERA
 40
0.5
  9
$CHAMFERB
 40
0.5
  9
$CHAMFERC
 40
1.0
  9
$CHAMFERD
 40
0.0
  9
$SKPOLY
 70
     0
  9
$TDCREATE
 40
2458684.830998947
  9
$TDUCREATE
 40
2458684.78933228
  9
$TDUPDATE
 40
2458684.830998959
  9
$TDUUPDATE
 40
2458684.789332292
  9
$TDINDWG
 40
0.0000000116
  9
$TDUSRTIMER
 40
0.0000000116
  9
$USRTIMER
 70
     1
  9
$ANGBASE
 50
0.0
  9
$ANGDIR
 70
     0
  9
$PDMODE
 70
     0
  9
$PDSIZE
 40
0.0
  9
$PLINEWID
 40
0.0
  9
$SPLFRAME
 70
     0
  9
$SPLINETYPE
 70
     6
  9
$SPLINESEGS
 70
     8
  9
$HANDSEED
  5
A4
  9
$SURFTAB1
 70
     6
  9
$SURFTAB2
 70
     6
  9
$SURFTYPE
 70
     6
  9
$SURFU
 70
     6
  9
$SURFV
 70
     6
  9
$UCSBASE
  2

  9
$UCSNAME
  2

  9
$UCSORG
 10
0.0
 20
0.0
 30
0.0
  9
$UCSXDIR
 10
1.0
 20
0.0
 30
0.0
  9
$UCSYDIR
 10
0.0
 20
1.0
 30
0.0
  9
$UCSORTHOREF
  2

  9
$UCSORTHOVIEW
 70
     0
  9
$UCSORGTOP
 10
0.0
 20
0.0
 30
0.0
  9
$UCSORGBOTTOM
 10
0.0
 20
0.0
 30
0.0
  9
$UCSORGLEFT
 10
0.0
 20
0.0
 30
0.0
  9
$UCSORGRIGHT
 10
0.0
 20
0.0
 30
0.0
  9
$UCSORGFRONT
 10
0.0
 20
0.0
 30
0.0
  9
$UCSORGBACK
 10
0.0
 20
0.0
 30
0.0
  9
$PUCSBASE
  2

  9
$PUCSNAME
  2

  9
$PUCSORG
 10
0.0
 20
0.0
 30
0.0
  9
$PUCSXDIR
 10
1.0
 20
0.0
 30
0.0
  9
$PUCSYDIR
 10
0.0
 20
1.0
 30
0.0
  9
$PUCSORTHOREF
  2

  9
$PUCSORTHOVIEW
 70
     0
  9
$PUCSORGTOP
 10
0.0
 20
0.0
 30
0.0
  9
$PUCSORGBOTTOM
 10
0.0
 20
0.0
 30
0.0
  9
$PUCSORGLEFT
 10
0.0
 20
0.0
 30
0.0
  9
$PUCSORGRIGHT
 10
0.0
 20
0.0
 30
0.0
  9
$PUCSORGFRONT
 10
0.0
 20
0.0
 30
0.0
  9
$PUCSORGBACK
 10
0.0
 20
0.0
 30
0.0
  9
$USERI1
 70
     0
  9
$USERI2
 70
     0
  9
$USERI3
 70
     0
  9
$USERI4
 70
     0
  9
$USERI5
 70
     0
  9
$USERR1
 40
0.0
  9
$USERR2
 40
0.0
  9
$USERR3
 40
0.0
  9
$USERR4
 40
0.0
  9
$USERR5
 40
0.0
  9
$WORLDVIEW
 70
     1
  9
$SHADEDGE
 70
     3
  9
$SHADEDIF
 70
    70
  9
$TILEMODE
 70
     1
  9
$MAXACTVP
 70
    64
  9
$PINSBASE
 10
0.0
 20
0.0
 30
0.0
  9
$PLIMCHECK
 70
     0
  9
$PEXTMIN
 10
1.000000000000000E+20
 20
1.000000000000000E+20
 30
1.000000000000000E+20
  9
$PEXTMAX
 10
-1.000000000000000E+20
 20
-1.000000000000000E+20
 30
-1.000000000000000E+20
  9
$PLIMMIN
 10
0.0
 20
0.0
  9
$PLIMMAX
 10
12.0
 20
9.0
  9
$UNITMODE
 70
     0
  9
$VISRETAIN
 70
     1
  9
$PLINEGEN
 70
     0
  9
$PSLTSCALE
 70
     1
  9
$TREEDEPTH
 70
  3020
  9
$CMLSTYLE
  2
Standard
  9
$CMLJUST
 70
     0
  9
$CMLSCALE
 40
1.0
  9
$PROXYGRAPHICS
 70
     1
  9
$MEASUREMENT
 70
     0
  9
$CELWEIGHT
370
    -1
  9
$ENDCAPS
280
     0
  9
$JOINSTYLE
280
     0
  9
$LWDISPLAY
290
     0
  9
$INSUNITS
 70
     5
  9
$HYPERLINKBASE
  1

  9
$STYLESHEET
  1

  9
$XEDIT
290
     1
  9
$CEPSNTYPE
380
     0
  9
$PSTYLEMODE
290
     1
  9
$FINGERPRINTGUID
  2
{1B570DFB-083C-40B6-869A-8527894CAA78}
  9
$VERSIONGUID
  2
{FAEB1C32-E019-11D5-929B-00C0DF256EC4}
  9
$EXTNAMES
290
     1
  9
$PSVPSCALE
 40
0.0
  9
$OLESTARTUP
290
     0
  9
$SORTENTS
280
   127
  9
$INDEXCTL
280
     0
  9
$HIDETEXT
280
     1
  9
$XCLIPFRAME
290
     0
  9
$HALOGAP
280
     0
  9
$OBSCOLOR
 70
   257
  9
$OBSLTYPE
280
     0
  9
$INTERSECTIONDISPLAY
280
     0
  9
$INTERSECTIONCOLOR
 70
   257
  9
$DIMASSOC
280
     2
  9
$PROJECTNAME
  1

  9
$CAMERADISPLAY
290
     0
  9
$LENSLENGTH
 40
50.0
  9
$CAMERAHEIGHT
 40
0.0
  9
$STEPSPERSEC
 40
2.0
  9
$STEPSIZE
 40
6.0
  9
$3DDWFPREC
 40
2.0
  9
$PSOLWIDTH
 40
0.25
  9
$PSOLHEIGHT
 40
4.0
  9
$LOFTANG1
 40
1.570796326794897
  9
$LOFTANG2
 40
1.570796326794897
  9
$LOFTMAG1
 40
0.0
  9
$LOFTMAG2
 40
0.0
  9
$LOFTPARAM
 70
     7
  9
$LOFTNORMALS
280
     1
  9
$LATITUDE
 40
37.795
  9
$LONGITUDE
 40
-122.394
  9
$NORTHDIRECTION
 40
0.0
  9
$TIMEZONE
 70
 -8000
  9
$LIGHTGLYPHDISPLAY
280
     1
  9
$TILEMODELIGHTSYNCH
280
     1
  9
$SOLIDHIST
280
     1
  9
$SHOWHIST
280
     1
  9
$DWFFRAME
280
     2
  9
$DGNFRAME
280
     2
  9
$REALWORLDSCALE
290
     1
  9
$INTERFERECOLOR
 62
   256
  9
$CSHADOW
280
     0
  9
$SHADOWPLANELOCATION
 40
0.0
  0
ENDSEC
  0
SECTION
  2
CLASSES
  0
CLASS
  1
ACDBDICTIONARYWDFLT
  2
AcDbDictionaryWithDefault
  3
ObjectDBX Classes
 90
        0
 91
        3
280
     0
281
     0
  0
CLASS
  1
VISUALSTYLE
  2
AcDbVisualStyle
  3
ObjectDBX Classes
 90
     4095
 91
        3
280
     0
281
     0
  0
CLASS
  1
SCALE
  2
AcDbScale
  3
ObjectDBX Classes
 90
     1153
 91
        3
280
     0
281
     0
  0
ENDSEC
  0
SECTION
  2
TABLES
  0
TABLE
  2
VPORT
  5
8
330
0
100
AcDbSymbolTable
 70
     1
  0
VPORT
  5
29
330
8
100
AcDbSymbolTableRecord
100
AcDbViewportTableRecord
  2
*Active
 70
     0
 10
0.0
 20
0.0
 11
1.0
 21
1.0
 12
10.42990654205607
 22
4.5
 13
0.0
 23
0.0
 14
0.5
 24
0.5
 15
0.5
 25
0.5
 16
0.0
 26
0.0
 36
1.0
 17
0.0
 27
0.0
 37
0.0
 40
9.0
 41
1.972972972850329
 42
50.0
 43
0.0
 44
0.0
 50
0.0
 51
0.0
 71
     0
 72
   100
 73
     1
 74
     3
 75
     0
 76
     0
 77
     0
 78
     0
281
     0
 65
     1
110
0.0
120
0.0
130
0.0
111
1.0
121
0.0
131
0.0
112
0.0
122
1.0
132
0.0
 79
     0
146
0.0
 60
     3
 61
     5
292
     1
282
     1
141
0.0
142
0.0
 63
   256
  0
ENDTAB
  0
TABLE
  2
LTYPE
  5
5
330
0
100
AcDbSymbolTable
 70
     1
  0
LTYPE
  5
14
330
5
100
AcDbSymbolTableRecord
100
AcDbLinetypeTableRecord
  2
ByBlock
 70
     0
  3

 72
    65
 73
     0
 40
0.0
  0
LTYPE
  5
15
330
5
100
AcDbSymbolTableRecord
100
AcDbLinetypeTableRecord
  2
ByLayer
 70
     0
  3

 72
    65
 73
     0
 40
0.0
  0
LTYPE
  5
16
330
5
100
AcDbSymbolTableRecord
100
AcDbLinetypeTableRecord
  2
Continuous
 70
     0
  3
Solid line
 72
    65
 73
     0
 40
0.0
  0
ENDTAB
  0
TABLE
  2
LAYER
  5
2
330
0
100
AcDbSymbolTable
 70
     2
  0
LAYER
  5
10
330
2
100
AcDbSymbolTableRecord
100
AcDbLayerTableRecord
  2
0
 70
     0
 62
     7
  6
Continuous
370
    -3
390
F
347
0
  0
LAYER
  5
5E
330
2
100
AcDbSymbolTableRecord
100
AcDbLayerTableRecord
  2
Layer 1
 70
     0
 62
     7
  6
Continuous
370
    -3
390
F
347
0
  0
ENDTAB
  0
TABLE
  2
STYLE
  5
3
330
0
100
AcDbSymbolTable
 70
     1
  0
STYLE
  5
11
330
3
100
AcDbSymbolTableRecord
100
AcDbTextStyleTableRecord
  2
Standard
 70
     0
 40
0.0
 41
1.0
 50
0.0
 71
     0
 42
0.2
  3
txt
  4

  0
ENDTAB
  0
TABLE
  2
VIEW
  5
6
330
0
100
AcDbSymbolTable
 70
     0
  0
ENDTAB
  0
TABLE
  2
UCS
  5
7
330
0
100
AcDbSymbolTable
 70
     0
  0
ENDTAB
  0
TABLE
  2
APPID
  5
9
330
0
100
AcDbSymbolTable
 70
     2
  0
APPID
  5
12
330
9
100
AcDbSymbolTableRecord
100
AcDbRegAppTableRecord
  2
ACAD
 70
     0
  0
APPID
  5
5D
330
9
100
AcDbSymbolTableRecord
100
AcDbRegAppTableRecord
  2
ODA
 70
     0
  0
ENDTAB
  0
TABLE
  2
DIMSTYLE
  5
A
330
0
100
AcDbSymbolTable
 70
     1
100
AcDbDimStyleTable
  0
DIMSTYLE
105
27
330
A
100
AcDbSymbolTableRecord
100
AcDbDimStyleTableRecord
  2
Standard
 70
     0
340
11
  0
ENDTAB
  0
TABLE
  2
BLOCK_RECORD
  5
1
330
0
100
AcDbSymbolTable
 70
     1
  0
BLOCK_RECORD
  5
1F
330
1
100
AcDbSymbolTableRecord
100
AcDbBlockTableRecord
  2
*Model_Space
340
22
 70
     0
280
     1
281
     0
  0
BLOCK_RECORD
  5
1B
330
1
100
AcDbSymbolTableRecord
100
AcDbBlockTableRecord
  2
*Paper_Space
340
1E
 70
     0
280
     1
281
     0
  0
BLOCK_RECORD
  5
23
330
1
100
AcDbSymbolTableRecord
100
AcDbBlockTableRecord
  2
*Paper_Space0
340
26
 70
     0
280
     1
281
     0
  0
ENDTAB
  0
ENDSEC
  0
SECTION
  2
BLOCKS
  0
BLOCK
  5
20
330
1F
100
AcDbEntity
  8
0
100
AcDbBlockBegin
  2
*Model_Space
 70
     0
 10
0.0
 20
0.0
 30
0.0
  3
*Model_Space
  1

  0
ENDBLK
  5
21
330
1F
100
AcDbEntity
  8
0
100
AcDbBlockEnd
  0
BLOCK
  5
1C
330
1B
100
AcDbEntity
 67
     1
  8
0
100
AcDbBlockBegin
  2
*Paper_Space
 70
     0
 10
0.0
 20
0.0
 30
0.0
  3
*Paper_Space
  1

  0
ENDBLK
  5
1D
330
1B
100
AcDbEntity
 67
     1
  8
0
100
AcDbBlockEnd
  0
BLOCK
  5
24
330
23
100
AcDbEntity
  8
0
100
AcDbBlockBegin
  2
*Paper_Space0
 70
     0
 10
0.0
 20
0.0
 30
0.0
  3
*Paper_Space0
  1

  0
ENDBLK
  5
25
330
23
100
AcDbEntity
  8
0
100
AcDbBlockEnd
  0
ENDSEC
  0
SECTION
  2
ENTITIES
  0
LWPOLYLINE
  5
5F
330
1F
100
AcDbEntity
  8
Layer 1
 62
     7
100
AcDbPolyline
 90
        5
 70
     1
 43
0.0
 10
-11.7
 20
-16.05
 10
-9.3
 20
-16.05
 10
-9.3
 20
-13.65
 10
-11.7
 20
-13.65
 10
-11.7
 20
-16.05
  0
LWPOLYLINE
  5
60
330
1F
100
AcDbEntity
  8
Layer 1
 62
     7
370
     9
100
AcDbPolyline
 90
        5
 70
     1
 43
0.0
 10
-10.5508
 20
-15.15395
 10
-10.4492
 20
-15.15395
 10
-10.4492
 20
-15.10315
 10
-10.5508
 20
-15.10315
 10
-10.5508
 20
-15.15395
  0
LWPOLYLINE
  5
61
330
1F
100
AcDbEntity
  8
Layer 1
 62
     7
370
     9
100
AcDbPolyline
 90
        5
 70
     1
 43
0.0
 10
-10.535
 20
-15.15395
 10
-10.465
 20
-15.15395
 10
-10.465
 20
-15.10315
 10
-10.535
 20
-15.10315
 10
-10.535
 20
-15.15395
  0
SPLINE
  5
62
330
1F
100
AcDbEntity
  8
Layer 1
 62
   250
100
AcDbSpline
210
0.0
220
0.0
230
1.0
 70
    11
 71
     3
 72
   116
 73
   112
 74
     0
 42
0.0000000001
 43
0.0000000001
 40
0.0
 40
0.0
 40
0.0
 40
0.0
 40
0.0357142857142857
 40
0.0357142857142857
 40
0.0357142857142857
 40
0.0357142857142857
 40
0.0714285714285714
 40
0.0714285714285714
 40
0.0714285714285714
 40
0.0714285714285714
 40
0.1071428571428571
 40
0.1071428571428571
 40
0.1071428571428571
 40
0.1071428571428571
 40
0.1428571428571428
 40
0.1428571428571428
 40
0.1428571428571428
 40
0.1428571428571428
 40
0.1785714285714285
 40
0.1785714285714285
 40
0.1785714285714285
 40
0.1785714285714285
 40
0.2142857142857142
 40
0.2142857142857142
 40
0.2142857142857142
 40
0.2142857142857142
 40
0.2499999999999999
 40
0.2499999999999999
 40
0.2499999999999999
 40
0.2499999999999999
 40
0.2857142857142856
 40
0.2857142857142856
 40
0.2857142857142856
 40
0.2857142857142856
 40
0.3214285714285713
 40
0.3214285714285713
 40
0.3214285714285713
 40
0.3214285714285713
 40
0.357142857142857
 40
0.357142857142857
 40
0.357142857142857
 40
0.357142857142857
 40
0.3928571428571427
 40
0.3928571428571427
 40
0.3928571428571427
 40
0.3928571428571427
 40
0.4285714285714284
 40
0.4285714285714284
 40
0.4285714285714284
 40
0.4285714285714284
 40
0.4642857142857141
 40
0.4642857142857141
 40
0.4642857142857141
 40
0.4642857142857141
 40
0.4999999999999998
 40
0.4999999999999998
 40
0.4999999999999998
 40
0.4999999999999998
 40
0.5357142857142856
 40
0.5357142857142856
 40
0.5357142857142856
 40
0.5357142857142856
 40
0.5714285714285713
 40
0.5714285714285713
 40
0.5714285714285713
 40
0.5714285714285713
 40
0.607142857142857
 40
0.607142857142857
 40
0.607142857142857
 40
0.607142857142857
 40
0.6428571428571427
 40
0.6428571428571427
 40
0.6428571428571427
 40
0.6428571428571427
 40
0.6785714285714284
 40
0.6785714285714284
 40
0.6785714285714284
 40
0.6785714285714284
 40
0.7142857142857141
 40
0.7142857142857141
 40
0.7142857142857141
 40
0.7142857142857141
 40
0.7499999999999998
 40
0.7499999999999998
 40
0.7499999999999998
 40
0.7499999999999998
 40
0.7857142857142855
 40
0.7857142857142855
 40
0.7857142857142855
 40
0.7857142857142855
 40
0.8214285714285712
 40
0.8214285714285712
 40
0.8214285714285712
 40
0.8214285714285712
 40
0.8571428571428569
 40
0.8571428571428569
 40
0.8571428571428569
 40
0.8571428571428569
 40
0.8928571428571426
 40
0.8928571428571426
 40
0.8928571428571426
 40
0.8928571428571426
 40
0.9285714285714283
 40
0.9285714285714283
 40
0.9285714285714283
 40
0.9285714285714283
 40
0.964285714285714
 40
0.964285714285714
 40
0.964285714285714
 40
0.964285714285714
 40
1.0
 40
1.0
 40
1.0
 40
1.0
 10
-11.13551
 20
-14.48139
 30
0.0
 10
-11.13551
 20
-14.48139
 30
0.0
 10
-11.13551
 20
-14.50314
 30
0.0
 10
-11.13551
 20
-14.50314
 30
0.0
 10
-11.13551
 20
-14.50314
 30
0.0
 10
-11.14116
 20
-14.50062
 30
0.0
 10
-11.14668
 20
-14.49872
 30
0.0
 10
-11.15204
 20
-14.49743
 30
0.0
 10
-11.15204
 20
-14.49743
 30
0.0
 10
-11.15743
 20
-14.49613
 30
0.0
 10
-11.16251
 20
-14.4955
 30
0.0
 10
-11.16728
 20
-14.4955
 30
0.0
 10
-11.16728
 20
-14.4955
 30
0.0
 10
-11.17361
 20
-14.4955
 30
0.0
 10
-11.17831
 20
-14.49637
 30
0.0
 10
-11.18135
 20
-14.49811
 30
0.0
 10
-11.18135
 20
-14.49811
 30
0.0
 10
-11.18438
 20
-14.49987
 30
0.0
 10
-11.18589
 20
-14.50258
 30
0.0
 10
-11.18589
 20
-14.50625
 30
0.0
 10
-11.18589
 20
-14.50625
 30
0.0
 10
-11.18589
 20
-14.509
 30
0.0
 10
-11.18488
 20
-14.51116
 30
0.0
 10
-11.18283
 20
-14.51269
 30
0.0
 10
-11.18283
 20
-14.51269
 30
0.0
 10
-11.18078
 20
-14.51422
 30
0.0
 10
-11.17707
 20
-14.51556
 30
0.0
 10
-11.17168
 20
-14.51666
 30
0.0
 10
-11.17168
 20
-14.51666
 30
0.0
 10
-11.17168
 20
-14.51666
 30
0.0
 10
-11.16039
 20
-14.51892
 30
0.0
 10
-11.16039
 20
-14.51892
 30
0.0
 10
-11.16039
 20
-14.51892
 30
0.0
 10
-11.14894
 20
-14.52123
 30
0.0
 10
-11.14083
 20
-14.52471
 30
0.0
 10
-11.13601
 20
-14.52941
 30
0.0
 10
-11.13601
 20
-14.52941
 30
0.0
 10
-11.13118
 20
-14.53409
 30
0.0
 10
-11.12876
 20
-14.54075
 30
0.0
 10
-11.12876
 20
-14.54938
 30
0.0
 10
-11.12876
 20
-14.54938
 30
0.0
 10
-11.12876
 20
-14.56074
 30
0.0
 10
-11.13212
 20
-14.56918
 30
0.0
 10
-11.13885
 20
-14.57471
 30
0.0
 10
-11.13885
 20
-14.57471
 30
0.0
 10
-11.14558
 20
-14.58023
 30
0.0
 10
-11.15585
 20
-14.58301
 30
0.0
 10
-11.16968
 20
-14.58301
 30
0.0
 10
-11.16968
 20
-14.58301
 30
0.0
 10
-11.17622
 20
-14.58301
 30
0.0
 10
-11.18276
 20
-14.5824
 30
0.0
 10
-11.18932
 20
-14.58115
 30
0.0
 10
-11.18932
 20
-14.58115
 30
0.0
 10
-11.19588
 20
-14.5799
 30
0.0
 10
-11.20247
 20
-14.57807
 30
0.0
 10
-11.20903
 20
-14.57565
 30
0.0
 10
-11.20903
 20
-14.57565
 30
0.0
 10
-11.20903
 20
-14.57565
 30
0.0
 10
-11.20903
 20
-14.55326
 30
0.0
 10
-11.20903
 20
-14.55326
 30
0.0
 10
-11.20903
 20
-14.55326
 30
0.0
 10
-11.20247
 20
-14.55674
 30
0.0
 10
-11.19612
 20
-14.55937
 30
0.0
 10
-11.18998
 20
-14.56114
 30
0.0
 10
-11.18998
 20
-14.56114
 30
0.0
 10
-11.18384
 20
-14.5629
 30
0.0
 10
-11.17794
 20
-14.56379
 30
0.0
 10
-11.17225
 20
-14.56379
 30
0.0
 10
-11.17225
 20
-14.56379
 30
0.0
 10
-11.16646
 20
-14.56379
 30
0.0
 10
-11.16202
 20
-14.56283
 30
0.0
 10
-11.15894
 20
-14.5609
 30
0.0
 10
-11.15894
 20
-14.5609
 30
0.0
 10
-11.15585
 20
-14.55897
 30
0.0
 10
-11.15433
 20
-14.55622
 30
0.0
 10
-11.15433
 20
-14.55262
 30
0.0
 10
-11.15433
 20
-14.55262
 30
0.0
 10
-11.15433
 20
-14.54942
 30
0.0
 10
-11.15536
 20
-14.54693
 30
0.0
 10
-11.15745
 20
-14.54519
 30
0.0
 10
-11.15745
 20
-14.54519
 30
0.0
 10
-11.15955
 20
-14.54345
 30
0.0
 10
-11.16371
 20
-14.54188
 30
0.0
 10
-11.16997
 20
-14.54051
 30
0.0
 10
-11.16997
 20
-14.54051
 30
0.0
 10
-11.16997
 20
-14.54051
 30
0.0
 10
-11.18024
 20
-14.53823
 30
0.0
 10
-11.18024
 20
-14.53823
 30
0.0
 10
-11.18024
 20
-14.53823
 30
0.0
 10
-11.19052
 20
-14.53602
 30
0.0
 10
-11.19805
 20
-14.53252
 30
0.0
 10
-11.2028
 20
-14.52769
 30
0.0
 10
-11.2028
 20
-14.52769
 30
0.0
 10
-11.20755
 20
-14.52287
 30
0.0
 10
-11.20992
 20
-14.51636
 30
0.0
 10
-11.20992
 20
-14.5082
 30
0.0
 10
-11.20992
 20
-14.5082
 30
0.0
 10
-11.20992
 20
-14.49794
 30
0.0
 10
-11.20661
 20
-14.49006
 30
0.0
 10
-11.2
 20
-14.48456
 30
0.0
 10
-11.2
 20
-14.48456
 30
0.0
 10
-11.19339
 20
-14.47903
 30
0.0
 10
-11.18389
 20
-14.47628
 30
0.0
 10
-11.17147
 20
-14.47628
 30
0.0
 10
-11.17147
 20
-14.47628
 30
0.0
 10
-11.16583
 20
-14.47628
 30
0.0
 10
-11.16002
 20
-14.47671
 30
0.0
 10
-11.15404
 20
-14.47755
 30
0.0
 10
-11.15404
 20
-14.47755
 30
0.0
 10
-11.14807
 20
-14.4784
 30
0.0
 10
-11.14189
 20
-14.47967
 30
0.0
 10
-11.13551
 20
-14.48139
 30
0.0
  0
SPLINE
  5
63
330
1F
100
AcDbEntity
  8
Layer 1
 62
   250
100
AcDbSpline
210
0.0
220
0.0
230
1.0
 70
    11
 71
     3
 72
    56
 73
    52
 74
     0
 42
0.0000000001
 43
0.0000000001
 40
0.0
 40
0.0
 40
0.0
 40
0.0
 40
0.0769230769230769
 40
0.0769230769230769
 40
0.0769230769230769
 40
0.0769230769230769
 40
0.1538461538461539
 40
0.1538461538461539
 40
0.1538461538461539
 40
0.1538461538461539
 40
0.2307692307692308
 40
0.2307692307692308
 40
0.2307692307692308
 40
0.2307692307692308
 40
0.3076923076923077
 40
0.3076923076923077
 40
0.3076923076923077
 40
0.3076923076923077
 40
0.3846153846153846
 40
0.3846153846153846
 40
0.3846153846153846
 40
0.3846153846153846
 40
0.4615384615384616
 40
0.4615384615384616
 40
0.4615384615384616
 40
0.4615384615384616
 40
0.5384615384615385
 40
0.5384615384615385
 40
0.5384615384615385
 40
0.5384615384615385
 40
0.6153846153846154
 40
0.6153846153846154
 40
0.6153846153846154
 40
0.6153846153846154
 40
0.6923076923076923
 40
0.6923076923076923
 40
0.6923076923076923
 40
0.6923076923076923
 40
0.7692307692307692
 40
0.7692307692307692
 40
0.7692307692307692
 40
0.7692307692307692
 40
0.846153846153846
 40
0.846153846153846
 40
0.846153846153846
 40
0.846153846153846
 40
0.9230769230769229
 40
0.9230769230769229
 40
0.9230769230769229
 40
0.9230769230769229
 40
1.0
 40
1.0
 40
1.0
 40
1.0
 10
-11.10548
 20
-14.47814
 30
0.0
 10
-11.10548
 20
-14.47814
 30
0.0
 10
-11.07173
 20
-14.47814
 30
0.0
 10
-11.07173
 20
-14.47814
 30
0.0
 10
-11.07173
 20
-14.47814
 30
0.0
 10
-11.07173
 20
-14.47814
 30
0.0
 10
-11.04828
 20
-14.5332
 30
0.0
 10
-11.04828
 20
-14.5332
 30
0.0
 10
-11.04828
 20
-14.5332
 30
0.0
 10
-11.04828
 20
-14.5332
 30
0.0
 10
-11.02472
 20
-14.47814
 30
0.0
 10
-11.02472
 20
-14.47814
 30
0.0
 10
-11.02472
 20
-14.47814
 30
0.0
 10
-11.02472
 20
-14.47814
 30
0.0
 10
-10.99104
 20
-14.47814
 30
0.0
 10
-10.99104
 20
-14.47814
 30
0.0
 10
-10.99104
 20
-14.47814
 30
0.0
 10
-10.99104
 20
-14.47814
 30
0.0
 10
-10.99104
 20
-14.58101
 30
0.0
 10
-10.99104
 20
-14.58101
 30
0.0
 10
-10.99104
 20
-14.58101
 30
0.0
 10
-10.99104
 20
-14.58101
 30
0.0
 10
-11.01611
 20
-14.58101
 30
0.0
 10
-11.01611
 20
-14.58101
 30
0.0
 10
-11.01611
 20
-14.58101
 30
0.0
 10
-11.01611
 20
-14.58101
 30
0.0
 10
-11.01611
 20
-14.50577
 30
0.0
 10
-11.01611
 20
-14.50577
 30
0.0
 10
-11.01611
 20
-14.50577
 30
0.0
 10
-11.01611
 20
-14.50577
 30
0.0
 10
-11.03982
 20
-14.56123
 30
0.0
 10
-11.03982
 20
-14.56123
 30
0.0
 10
-11.03982
 20
-14.56123
 30
0.0
 10
-11.03982
 20
-14.56123
 30
0.0
 10
-11.05663
 20
-14.56123
 30
0.0
 10
-11.05663
 20
-14.56123
 30
0.0
 10
-11.05663
 20
-14.56123
 30
0.0
 10
-11.05663
 20
-14.56123
 30
0.0
 10
-11.08034
 20
-14.50577
 30
0.0
 10
-11.08034
 20
-14.50577
 30
0.0
 10
-11.08034
 20
-14.50577
 30
0.0
 10
-11.08034
 20
-14.50577
 30
0.0
 10
-11.08034
 20
-14.58101
 30
0.0
 10
-11.08034
 20
-14.58101
 30
0.0
 10
-11.08034
 20
-14.58101
 30
0.0
 10
-11.08034
 20
-14.58101
 30
0.0
 10
-11.10548
 20
-14.58101
 30
0.0
 10
-11.10548
 20
-14.58101
 30
0.0
 10
-11.10548
 20
-14.58101
 30
0.0
 10
-11.10548
 20
-14.58101
 30
0.0
 10
-11.10548
 20
-14.47814
 30
0.0
 10
-11.10548
 20
-14.47814
 30
0.0
  0
SPLINE
  5
64
330
1F
100
AcDbEntity
  8
Layer 1
 62
   250
100
AcDbSpline
210
0.0
220
0.0
230
1.0
 70
    11
 71
     3
 72
    32
 73
    28
 74
     0
 42
0.0000000001
 43
0.0000000001
 40
0.0
 40
0.0
 40
0.0
 40
0.0
 40
0.1428571428571428
 40
0.1428571428571428
 40
0.1428571428571428
 40
0.1428571428571428
 40
0.2857142857142857
 40
0.2857142857142857
 40
0.2857142857142857
 40
0.2857142857142857
 40
0.4285714285714285
 40
0.4285714285714285
 40
0.4285714285714285
 40
0.4285714285714285
 40
0.5714285714285714
 40
0.5714285714285714
 40
0.5714285714285714
 40
0.5714285714285714
 40
0.7142857142857142
 40
0.7142857142857142
 40
0.7142857142857142
 40
0.7142857142857142
 40
0.857142857142857
 40
0.857142857142857
 40
0.857142857142857
 40
0.857142857142857
 40
1.0
 40
1.0
 40
1.0
 40
1.0
 10
-10.93852
 20
-14.4982
 30
0.0
 10
-10.93852
 20
-14.4982
 30
0.0
 10
-10.93852
 20
-14.56095
 30
0.0
 10
-10.93852
 20
-14.56095
 30
0.0
 10
-10.93852
 20
-14.56095
 30
0.0
 10
-10.93852
 20
-14.56095
 30
0.0
 10
-10.92902
 20
-14.56095
 30
0.0
 10
-10.92902
 20
-14.56095
 30
0.0
 10
-10.92902
 20
-14.56095
 30
0.0
 10
-10.91818
 20
-14.56095
 30
0.0
 10
-10.9099
 20
-14.55827
 30
0.0
 10
-10.90419
 20
-14.55288
 30
0.0
 10
-10.90419
 20
-14.55288
 30
0.0
 10
-10.89847
 20
-14.54752
 30
0.0
 10
-10.8956
 20
-14.53971
 30
0.0
 10
-10.8956
 20
-14.52948
 30
0.0
 10
-10.8956
 20
-14.52948
 30
0.0
 10
-10.8956
 20
-14.51927
 30
0.0
 10
-10.89845
 20
-14.51151
 30
0.0
 10
-10.90414
 20
-14.5062
 30
0.0
 10
-10.90414
 20
-14.5062
 30
0.0
 10
-10.90983
 20
-14.50086
 30
0.0
 10
-10.91813
 20
-14.4982
 30
0.0
 10
-10.92902
 20
-14.4982
 30
0.0
 10
-10.92902
 20
-14.4982
 30
0.0
 10
-10.92902
 20
-14.4982
 30
0.0
 10
-10.93852
 20
-14.4982
 30
0.0
 10
-10.93852
 20
-14.4982
 30
0.0
  0
SPLINE
  5
65
330
1F
100
AcDbEntity
  8
Layer 1
 62
   250
100
AcDbSpline
210
0.0
220
0.0
230
1.0
 70
    11
 71
     3
 72
    48
 73
    44
 74
     0
 42
0.0000000001
 43
0.0000000001
 40
0.0
 40
0.0
 40
0.0
 40
0.0
 40
0.0909090909090909
 40
0.0909090909090909
 40
0.0909090909090909
 40
0.0909090909090909
 40
0.1818181818181818
 40
0.1818181818181818
 40
0.1818181818181818
 40
0.1818181818181818
 40
0.2727272727272727
 40
0.2727272727272727
 40
0.2727272727272727
 40
0.2727272727272727
 40
0.3636363636363636
 40
0.3636363636363636
 40
0.3636363636363636
 40
0.3636363636363636
 40
0.4545454545454546
 40
0.4545454545454546
 40
0.4545454545454546
 40
0.4545454545454546
 40
0.5454545454545455
 40
0.5454545454545455
 40
0.5454545454545455
 40
0.5454545454545455
 40
0.6363636363636365
 40
0.6363636363636365
 40
0.6363636363636365
 40
0.6363636363636365
 40
0.7272727272727274
 40
0.7272727272727274
 40
0.7272727272727274
 40
0.7272727272727274
 40
0.8181818181818183
 40
0.8181818181818183
 40
0.8181818181818183
 40
0.8181818181818183
 40
0.9090909090909093
 40
0.9090909090909093
 40
0.9090909090909093
 40
0.9090909090909093
 40
1.0
 40
1.0
 40
1.0
 40
1.0
 10
-10.96505
 20
-14.47814
 30
0.0
 10
-10.96505
 20
-14.47814
 30
0.0
 10
-10.93706
 20
-14.47814
 30
0.0
 10
-10.93706
 20
-14.47814
 30
0.0
 10
-10.93706
 20
-14.47814
 30
0.0
 10
-10.92145
 20
-14.47814
 30
0.0
 10
-10.90983
 20
-14.47925
 30
0.0
 10
-10.90219
 20
-14.48148
 30
0.0
 10
-10.90219
 20
-14.48148
 30
0.0
 10
-10.89454
 20
-14.48371
 30
0.0
 10
-10.88798
 20
-14.48748
 30
0.0
 10
-10.8825
 20
-14.49282
 30
0.0
 10
-10.8825
 20
-14.49282
 30
0.0
 10
-10.87768
 20
-14.49745
 30
0.0
 10
-10.87411
 20
-14.50281
 30
0.0
 10
-10.87175
 20
-14.50888
 30
0.0
 10
-10.87175
 20
-14.50888
 30
0.0
 10
-10.86943
 20
-14.51492
 30
0.0
 10
-10.86825
 20
-14.52179
 30
0.0
 10
-10.86825
 20
-14.52948
 30
0.0
 10
-10.86825
 20
-14.52948
 30
0.0
 10
-10.86825
 20
-14.53724
 30
0.0
 10
-10.86943
 20
-14.54416
 30
0.0
 10
-10.87175
 20
-14.55025
 30
0.0
 10
-10.87175
 20
-14.55025
 30
0.0
 10
-10.87411
 20
-14.55634
 30
0.0
 10
-10.87768
 20
-14.5617
 30
0.0
 10
-10.8825
 20
-14.56633
 30
0.0
 10
-10.8825
 20
-14.56633
 30
0.0
 10
-10.88803
 20
-14.57167
 30
0.0
 10
-10.89464
 20
-14.57544
 30
0.0
 10
-10.90235
 20
-14.57767
 30
0.0
 10
-10.90235
 20
-14.57767
 30
0.0
 10
-10.91007
 20
-14.5799
 30
0.0
 10
-10.92164
 20
-14.58101
 30
0.0
 10
-10.93706
 20
-14.58101
 30
0.0
 10
-10.93706
 20
-14.58101
 30
0.0
 10
-10.93706
 20
-14.58101
 30
0.0
 10
-10.96505
 20
-14.58101
 30
0.0
 10
-10.96505
 20
-14.58101
 30
0.0
 10
-10.96505
 20
-14.58101
 30
0.0
 10
-10.96505
 20
-14.58101
 30
0.0
 10
-10.96505
 20
-14.47814
 30
0.0
 10
-10.96505
 20
-14.47814
 30
0.0
  0
SPLINE
  5
66
330
1F
100
AcDbEntity
  8
Layer 1
 62
   250
100
AcDbSpline
210
0.0
220
0.0
230
1.0
 70
    11
 71
     3
 72
    44
 73
    40
 74
     0
 42
0.0000000001
 43
0.0000000001
 40
0.0
 40
0.0
 40
0.0
 40
0.0
 40
0.1
 40
0.1
 40
0.1
 40
0.1
 40
0.2
 40
0.2
 40
0.2
 40
0.2
 40
0.3
 40
0.3
 40
0.3
 40
0.3
 40
0.4
 40
0.4
 40
0.4
 40
0.4
 40
0.5
 40
0.5
 40
0.5
 40
0.5
 40
0.6
 40
0.6
 40
0.6
 40
0.6
 40
0.7
 40
0.7
 40
0.7
 40
0.7
 40
0.7999999999999999
 40
0.7999999999999999
 40
0.7999999999999999
 40
0.7999999999999999
 40
0.8999999999999999
 40
0.8999999999999999
 40
0.8999999999999999
 40
0.8999999999999999
 40
1.0
 40
1.0
 40
1.0
 40
1.0
 10
-10.75856
 20
-14.59961
 30
0.0
 10
-10.75856
 20
-14.59961
 30
0.0
 10
-10.77902
 20
-14.59961
 30
0.0
 10
-10.77902
 20
-14.59961
 30
0.0
 10
-10.77902
 20
-14.59961
 30
0.0
 10
-10.78605
 20
-14.58828
 30
0.0
 10
-10.79125
 20
-14.57748
 30
0.0
 10
-10.79459
 20
-14.56725
 30
0.0
 10
-10.79459
 20
-14.56725
 30
0.0
 10
-10.79795
 20
-14.55704
 30
0.0
 10
-10.79962
 20
-14.54691
 30
0.0
 10
-10.79962
 20
-14.53684
 30
0.0
 10
-10.79962
 20
-14.53684
 30
0.0
 10
-10.79962
 20
-14.52678
 30
0.0
 10
-10.79793
 20
-14.51659
 30
0.0
 10
-10.79457
 20
-14.50629
 30
0.0
 10
-10.79457
 20
-14.50629
 30
0.0
 10
-10.79118
 20
-14.49597
 30
0.0
 10
-10.78601
 20
-14.4852
 30
0.0
 10
-10.77902
 20
-14.47393
 30
0.0
 10
-10.77902
 20
-14.47393
 30
0.0
 10
-10.77902
 20
-14.47393
 30
0.0
 10
-10.75856
 20
-14.47393
 30
0.0
 10
-10.75856
 20
-14.47393
 30
0.0
 10
-10.75856
 20
-14.47393
 30
0.0
 10
-10.76444
 20
-14.48482
 30
0.0
 10
-10.76884
 20
-14.49547
 30
0.0
 10
-10.77178
 20
-14.50587
 30
0.0
 10
-10.77178
 20
-14.50587
 30
0.0
 10
-10.77472
 20
-14.51626
 30
0.0
 10
-10.7762
 20
-14.52654
 30
0.0
 10
-10.7762
 20
-14.5367
 30
0.0
 10
-10.7762
 20
-14.5367
 30
0.0
 10
-10.7762
 20
-14.54686
 30
0.0
 10
-10.77474
 20
-14.55714
 30
0.0
 10
-10.77183
 20
-14.56758
 30
0.0
 10
-10.77183
 20
-14.56758
 30
0.0
 10
-10.76891
 20
-14.578
 30
0.0
 10
-10.76449
 20
-14.58868
 30
0.0
 10
-10.75856
 20
-14.59961
 30
0.0
  0
SPLINE
  5
67
330
1F
100
AcDbEntity
  8
Layer 1
 62
   250
100
AcDbSpline
210
0.0
220
0.0
230
1.0
 70
    11
 71
     3
 72
    36
 73
    32
 74
     0
 42
0.0000000001
 43
0.0000000001
 40
0.0
 40
0.0
 40
0.0
 40
0.0
 40
0.125
 40
0.125
 40
0.125
 40
0.125
 40
0.25
 40
0.25
 40
0.25
 40
0.25
 40
0.375
 40
0.375
 40
0.375
 40
0.375
 40
0.5
 40
0.5
 40
0.5
 40
0.5
 40
0.625
 40
0.625
 40
0.625
 40
0.625
 40
0.75
 40
0.75
 40
0.75
 40
0.75
 40
0.875
 40
0.875
 40
0.875
 40
0.875
 40
1.0
 40
1.0
 40
1.0
 40
1.0
 10
-10.68236
 20
-14.52948
 30
0.0
 10
-10.68236
 20
-14.51662
 30
0.0
 10
-10.68356
 20
-14.50756
 30
0.0
 10
-10.68598
 20
-14.50229
 30
0.0
 10
-10.68598
 20
-14.50229
 30
0.0
 10
-10.68838
 20
-14.49705
 30
0.0
 10
-10.69245
 20
-14.49442
 30
0.0
 10
-10.69814
 20
-14.49442
 30
0.0
 10
-10.69814
 20
-14.49442
 30
0.0
 10
-10.70383
 20
-14.49442
 30
0.0
 10
-10.7079
 20
-14.49705
 30
0.0
 10
-10.71035
 20
-14.50229
 30
0.0
 10
-10.71035
 20
-14.50229
 30
0.0
 10
-10.71277
 20
-14.50756
 30
0.0
 10
-10.71399
 20
-14.51662
 30
0.0
 10
-10.71399
 20
-14.52948
 30
0.0
 10
-10.71399
 20
-14.52948
 30
0.0
 10
-10.71399
 20
-14.54246
 30
0.0
 10
-10.71277
 20
-14.55164
 30
0.0
 10
-10.71035
 20
-14.55695
 30
0.0
 10
-10.71035
 20
-14.55695
 30
0.0
 10
-10.7079
 20
-14.56229
 30
0.0
 10
-10.70383
 20
-14.56495
 30
0.0
 10
-10.69814
 20
-14.56495
 30
0.0
 10
-10.69814
 20
-14.56495
 30
0.0
 10
-10.6925
 20
-14.56495
 30
0.0
 10
-10.68845
 20
-14.56229
 30
0.0
 10
-10.686
 20
-14.55695
 30
0.0
 10
-10.686
 20
-14.55695
 30
0.0
 10
-10.68358
 20
-14.55164
 30
0.0
 10
-10.68236
 20
-14.54246
 30
0.0
 10
-10.68236
 20
-14.52948
 30
0.0
  0
SPLINE
  5
68
330
1F
100
AcDbEntity
  8
Layer 1
 62
   250
100
AcDbSpline
210
0.0
220
0.0
230
1.0
 70
    11
 71
     3
 72
    36
 73
    32
 74
     0
 42
0.0000000001
 43
0.0000000001
 40
0.0
 40
0.0
 40
0.0
 40
0.0
 40
0.125
 40
0.125
 40
0.125
 40
0.125
 40
0.25
 40
0.25
 40
0.25
 40
0.25
 40
0.375
 40
0.375
 40
0.375
 40
0.375
 40
0.5
 40
0.5
 40
0.5
 40
0.5
 40
0.625
 40
0.625
 40
0.625
 40
0.625
 40
0.75
 40
0.75
 40
0.75
 40
0.75
 40
0.875
 40
0.875
 40
0.875
 40
0.875
 40
1.0
 40
1.0
 40
1.0
 40
1.0
 10
-10.65583
 20
-14.52967
 30
0.0
 10
-10.65583
 20
-14.54672
 30
0.0
 10
-10.6595
 20
-14.55987
 30
0.0
 10
-10.66686
 20
-14.56913
 30
0.0
 10
-10.66686
 20
-14.56913
 30
0.0
 10
-10.6742
 20
-14.57838
 30
0.0
 10
-10.68464
 20
-14.58301
 30
0.0
 10
-10.69814
 20
-14.58301
 30
0.0
 10
-10.69814
 20
-14.58301
 30
0.0
 10
-10.71169
 20
-14.58301
 30
0.0
 10
-10.72215
 20
-14.57838
 30
0.0
 10
-10.72949
 20
-14.56913
 30
0.0
 10
-10.72949
 20
-14.56913
 30
0.0
 10
-10.73685
 20
-14.55987
 30
0.0
 10
-10.74052
 20
-14.54672
 30
0.0
 10
-10.74052
 20
-14.52967
 30
0.0
 10
-10.74052
 20
-14.52967
 30
0.0
 10
-10.74052
 20
-14.5126
 30
0.0
 10
-10.73685
 20
-14.49942
 30
0.0
 10
-10.72949
 20
-14.49016
 30
0.0
 10
-10.72949
 20
-14.49016
 30
0.0
 10
-10.72215
 20
-14.48092
 30
0.0
 10
-10.71169
 20
-14.47628
 30
0.0
 10
-10.69814
 20
-14.47628
 30
0.0
 10
-10.69814
 20
-14.47628
 30
0.0
 10
-10.68464
 20
-14.47628
 30
0.0
 10
-10.6742
 20
-14.48092
 30
0.0
 10
-10.66686
 20
-14.49016
 30
0.0
 10
-10.66686
 20
-14.49016
 30
0.0
 10
-10.6595
 20
-14.49942
 30
0.0
 10
-10.65583
 20
-14.5126
 30
0.0
 10
-10.65583
 20
-14.52967
 30
0.0
  0
SPLINE
  5
69
330
1F
100
AcDbEntity
  8
Layer 1
 62
   250
100
AcDbSpline
210
0.0
220
0.0
230
1.0
 70
    11
 71
     3
 72
    16
 73
    12
 74
     0
 42
0.0000000001
 43
0.0000000001
 40
0.0
 40
0.0
 40
0.0
 40
0.0
 40
0.3333333333333333
 40
0.3333333333333333
 40
0.3333333333333333
 40
0.3333333333333333
 40
0.6666666666666666
 40
0.6666666666666666
 40
0.6666666666666666
 40
0.6666666666666666
 40
1.0
 40
1.0
 40
1.0
 40
1.0
 10
-10.5971
 20
-14.49999
 30
0.0
 10
-10.5971
 20
-14.49999
 30
0.0
 10
-10.6262
 20
-14.54305
 30
0.0
 10
-10.6262
 20
-14.54305
 30
0.0
 10
-10.6262
 20
-14.54305
 30
0.0
 10
-10.6262
 20
-14.54305
 30
0.0
 10
-10.5971
 20
-14.54305
 30
0.0
 10
-10.5971
 20
-14.54305
 30
0.0
 10
-10.5971
 20
-14.54305
 30
0.0
 10
-10.5971
 20
-14.54305
 30
0.0
 10
-10.5971
 20
-14.49999
 30
0.0
 10
-10.5971
 20
-14.49999
 30
0.0
  0
SPLINE
  5
6A
330
1F
100
AcDbEntity
  8
Layer 1
 62
   250
100
AcDbSpline
210
0.0
220
0.0
230
1.0
 70
    11
 71
     3
 72
    48
 73
    44
 74
     0
 42
0.0000000001
 43
0.0000000001
 40
0.0
 40
0.0
 40
0.0
 40
0.0
 40
0.0909090909090909
 40
0.0909090909090909
 40
0.0909090909090909
 40
0.0909090909090909
 40
0.1818181818181818
 40
0.1818181818181818
 40
0.1818181818181818
 40
0.1818181818181818
 40
0.2727272727272727
 40
0.2727272727272727
 40
0.2727272727272727
 40
0.2727272727272727
 40
0.3636363636363636
 40
0.3636363636363636
 40
0.3636363636363636
 40
0.3636363636363636
 40
0.4545454545454546
 40
0.4545454545454546
 40
0.4545454545454546
 40
0.4545454545454546
 40
0.5454545454545455
 40
0.5454545454545455
 40
0.5454545454545455
 40
0.5454545454545455
 40
0.6363636363636365
 40
0.6363636363636365
 40
0.6363636363636365
 40
0.6363636363636365
 40
0.7272727272727274
 40
0.7272727272727274
 40
0.7272727272727274
 40
0.7272727272727274
 40
0.8181818181818183
 40
0.8181818181818183
 40
0.8181818181818183
 40
0.8181818181818183
 40
0.9090909090909093
 40
0.9090909090909093
 40
0.9090909090909093
 40
0.9090909090909093
 40
1.0
 40
1.0
 40
1.0
 40
1.0
 10
-10.60153
 20
-14.47814
 30
0.0
 10
-10.60153
 20
-14.47814
 30
0.0
 10
-10.57203
 20
-14.47814
 30
0.0
 10
-10.57203
 20
-14.47814
 30
0.0
 10
-10.57203
 20
-14.47814
 30
0.0
 10
-10.57203
 20
-14.47814
 30
0.0
 10
-10.57203
 20
-14.54305
 30
0.0
 10
-10.57203
 20
-14.54305
 30
0.0
 10
-10.57203
 20
-14.54305
 30
0.0
 10
-10.57203
 20
-14.54305
 30
0.0
 10
-10.55736
 20
-14.54305
 30
0.0
 10
-10.55736
 20
-14.54305
 30
0.0
 10
-10.55736
 20
-14.54305
 30
0.0
 10
-10.55736
 20
-14.54305
 30
0.0
 10
-10.55736
 20
-14.56227
 30
0.0
 10
-10.55736
 20
-14.56227
 30
0.0
 10
-10.55736
 20
-14.56227
 30
0.0
 10
-10.55736
 20
-14.56227
 30
0.0
 10
-10.57203
 20
-14.56227
 30
0.0
 10
-10.57203
 20
-14.56227
 30
0.0
 10
-10.57203
 20
-14.56227
 30
0.0
 10
-10.57203
 20
-14.56227
 30
0.0
 10
-10.57203
 20
-14.58101
 30
0.0
 10
-10.57203
 20
-14.58101
 30
0.0
 10
-10.57203
 20
-14.58101
 30
0.0
 10
-10.57203
 20
-14.58101
 30
0.0
 10
-10.5971
 20
-14.58101
 30
0.0
 10
-10.5971
 20
-14.58101
 30
0.0
 10
-10.5971
 20
-14.58101
 30
0.0
 10
-10.5971
 20
-14.58101
 30
0.0
 10
-10.5971
 20
-14.56227
 30
0.0
 10
-10.5971
 20
-14.56227
 30
0.0
 10
-10.5971
 20
-14.56227
 30
0.0
 10
-10.5971
 20
-14.56227
 30
0.0
 10
-10.64273
 20
-14.56227
 30
0.0
 10
-10.64273
 20
-14.56227
 30
0.0
 10
-10.64273
 20
-14.56227
 30
0.0
 10
-10.64273
 20
-14.56227
 30
0.0
 10
-10.64273
 20
-14.53952
 30
0.0
 10
-10.64273
 20
-14.53952
 30
0.0
 10
-10.64273
 20
-14.53952
 30
0.0
 10
-10.64273
 20
-14.53952
 30
0.0
 10
-10.60153
 20
-14.47814
 30
0.0
 10
-10.60153
 20
-14.47814
 30
0.0
  0
SPLINE
  5
6B
330
1F
100
AcDbEntity
  8
Layer 1
 62
   250
100
AcDbSpline
210
0.0
220
0.0
230
1.0
 70
    11
 71
     3
 72
    36
 73
    32
 74
     0
 42
0.0000000001
 43
0.0000000001
 40
0.0
 40
0.0
 40
0.0
 40
0.0
 40
0.125
 40
0.125
 40
0.125
 40
0.125
 40
0.25
 40
0.25
 40
0.25
 40
0.25
 40
0.375
 40
0.375
 40
0.375
 40
0.375
 40
0.5
 40
0.5
 40
0.5
 40
0.5
 40
0.625
 40
0.625
 40
0.625
 40
0.625
 40
0.75
 40
0.75
 40
0.75
 40
0.75
 40
0.875
 40
0.875
 40
0.875
 40
0.875
 40
1.0
 40
1.0
 40
1.0
 40
1.0
 10
-10.48598
 20
-14.52948
 30
0.0
 10
-10.48598
 20
-14.51662
 30
0.0
 10
-10.48718
 20
-14.50756
 30
0.0
 10
-10.4896
 20
-14.50229
 30
0.0
 10
-10.4896
 20
-14.50229
 30
0.0
 10
-10.492
 20
-14.49705
 30
0.0
 10
-10.49607
 20
-14.49442
 30
0.0
 10
-10.50176
 20
-14.49442
 30
0.0
 10
-10.50176
 20
-14.49442
 30
0.0
 10
-10.50745
 20
-14.49442
 30
0.0
 10
-10.51152
 20
-14.49705
 30
0.0
 10
-10.51397
 20
-14.50229
 30
0.0
 10
-10.51397
 20
-14.50229
 30
0.0
 10
-10.51639
 20
-14.50756
 30
0.0
 10
-10.51761
 20
-14.51662
 30
0.0
 10
-10.51761
 20
-14.52948
 30
0.0
 10
-10.51761
 20
-14.52948
 30
0.0
 10
-10.51761
 20
-14.54246
 30
0.0
 10
-10.51639
 20
-14.55164
 30
0.0
 10
-10.51397
 20
-14.55695
 30
0.0
 10
-10.51397
 20
-14.55695
 30
0.0
 10
-10.51152
 20
-14.56229
 30
0.0
 10
-10.50745
 20
-14.56495
 30
0.0
 10
-10.50176
 20
-14.56495
 30
0.0
 10
-10.50176
 20
-14.56495
 30
0.0
 10
-10.49612
 20
-14.56495
 30
0.0
 10
-10.49207
 20
-14.56229
 30
0.0
 10
-10.48962
 20
-14.55695
 30
0.0
 10
-10.48962
 20
-14.55695
 30
0.0
 10
-10.4872
 20
-14.55164
 30
0.0
 10
-10.48598
 20
-14.54246
 30
0.0
 10
-10.48598
 20
-14.52948
 30
0.0
  0
SPLINE
  5
6C
330
1F
100
AcDbEntity
  8
Layer 1
 62
   250
100
AcDbSpline
210
0.0
220
0.0
230
1.0
 70
    11
 71
     3
 72
    36
 73
    32
 74
     0
 42
0.0000000001
 43
0.0000000001
 40
0.0
 40
0.0
 40
0.0
 40
0.0
 40
0.125
 40
0.125
 40
0.125
 40
0.125
 40
0.25
 40
0.25
 40
0.25
 40
0.25
 40
0.375
 40
0.375
 40
0.375
 40
0.375
 40
0.5
 40
0.5
 40
0.5
 40
0.5
 40
0.625
 40
0.625
 40
0.625
 40
0.625
 40
0.75
 40
0.75
 40
0.75
 40
0.75
 40
0.875
 40
0.875
 40
0.875
 40
0.875
 40
1.0
 40
1.0
 40
1.0
 40
1.0
 10
-10.45945
 20
-14.52967
 30
0.0
 10
-10.45945
 20
-14.54672
 30
0.0
 10
-10.46312
 20
-14.55987
 30
0.0
 10
-10.47048
 20
-14.56913
 30
0.0
 10
-10.47048
 20
-14.56913
 30
0.0
 10
-10.47782
 20
-14.57838
 30
0.0
 10
-10.48826
 20
-14.58301
 30
0.0
 10
-10.50176
 20
-14.58301
 30
0.0
 10
-10.50176
 20
-14.58301
 30
0.0
 10
-10.51531
 20
-14.58301
 30
0.0
 10
-10.52577
 20
-14.57838
 30
0.0
 10
-10.53311
 20
-14.56913
 30
0.0
 10
-10.53311
 20
-14.56913
 30
0.0
 10
-10.54047
 20
-14.55987
 30
0.0
 10
-10.54414
 20
-14.54672
 30
0.0
 10
-10.54414
 20
-14.52967
 30
0.0
 10
-10.54414
 20
-14.52967
 30
0.0
 10
-10.54414
 20
-14.5126
 30
0.0
 10
-10.54047
 20
-14.49942
 30
0.0
 10
-10.53311
 20
-14.49016
 30
0.0
 10
-10.53311
 20
-14.49016
 30
0.0
 10
-10.52577
 20
-14.48092
 30
0.0
 10
-10.51531
 20
-14.47628
 30
0.0
 10
-10.50176
 20
-14.47628
 30
0.0
 10
-10.50176
 20
-14.47628
 30
0.0
 10
-10.48826
 20
-14.47628
 30
0.0
 10
-10.47782
 20
-14.48092
 30
0.0
 10
-10.47048
 20
-14.49016
 30
0.0
 10
-10.47048
 20
-14.49016
 30
0.0
 10
-10.46312
 20
-14.49942
 30
0.0
 10
-10.45945
 20
-14.5126
 30
0.0
 10
-10.45945
 20
-14.52967
 30
0.0
  0
SPLINE
  5
6D
330
1F
100
AcDbEntity
  8
Layer 1
 62
   250
100
AcDbSpline
210
0.0
220
0.0
230
1.0
 70
    11
 71
     3
 72
    80
 73
    76
 74
     0
 42
0.0000000001
 43
0.0000000001
 40
0.0
 40
0.0
 40
0.0
 40
0.0
 40
0.0526315789473684
 40
0.0526315789473684
 40
0.0526315789473684
 40
0.0526315789473684
 40
0.1052631578947368
 40
0.1052631578947368
 40
0.1052631578947368
 40
0.1052631578947368
 40
0.1578947368421053
 40
0.1578947368421053
 40
0.1578947368421053
 40
0.1578947368421053
 40
0.2105263157894737
 40
0.2105263157894737
 40
0.2105263157894737
 40
0.2105263157894737
 40
0.2631578947368421
 40
0.2631578947368421
 40
0.2631578947368421
 40
0.2631578947368421
 40
0.3157894736842105
 40
0.3157894736842105
 40
0.3157894736842105
 40
0.3157894736842105
 40
0.3684210526315789
 40
0.3684210526315789
 40
0.3684210526315789
 40
0.3684210526315789
 40
0.4210526315789473
 40
0.4210526315789473
 40
0.4210526315789473
 40
0.4210526315789473
 40
0.4736842105263158
 40
0.4736842105263158
 40
0.4736842105263158
 40
0.4736842105263158
 40
0.5263157894736842
 40
0.5263157894736842
 40
0.5263157894736842
 40
0.5263157894736842
 40
0.5789473684210527
 40
0.5789473684210527
 40
0.5789473684210527
 40
0.5789473684210527
 40
0.631578947368421
 40
0.631578947368421
 40
0.631578947368421
 40
0.631578947368421
 40
0.6842105263157894
 40
0.6842105263157894
 40
0.6842105263157894
 40
0.6842105263157894
 40
0.7368421052631577
 40
0.7368421052631577
 40
0.7368421052631577
 40
0.7368421052631577
 40
0.7894736842105261
 40
0.7894736842105261
 40
0.7894736842105261
 40
0.7894736842105261
 40
0.8421052631578945
 40
0.8421052631578945
 40
0.8421052631578945
 40
0.8421052631578945
 40
0.8947368421052628
 40
0.8947368421052628
 40
0.8947368421052628
 40
0.8947368421052628
 40
0.9473684210526312
 40
0.9473684210526312
 40
0.9473684210526312
 40
0.9473684210526312
 40
1.0
 40
1.0
 40
1.0
 40
1.0
 10
-10.41204
 20
-14.56151
 30
0.0
 10
-10.41204
 20
-14.56151
 30
0.0
 10
-10.36676
 20
-14.56151
 30
0.0
 10
-10.36676
 20
-14.56151
 30
0.0
 10
-10.36676
 20
-14.56151
 30
0.0
 10
-10.36676
 20
-14.56151
 30
0.0
 10
-10.36676
 20
-14.58101
 30
0.0
 10
-10.36676
 20
-14.58101
 30
0.0
 10
-10.36676
 20
-14.58101
 30
0.0
 10
-10.36676
 20
-14.58101
 30
0.0
 10
-10.44153
 20
-14.58101
 30
0.0
 10
-10.44153
 20
-14.58101
 30
0.0
 10
-10.44153
 20
-14.58101
 30
0.0
 10
-10.44153
 20
-14.58101
 30
0.0
 10
-10.44153
 20
-14.56151
 30
0.0
 10
-10.44153
 20
-14.56151
 30
0.0
 10
-10.44153
 20
-14.56151
 30
0.0
 10
-10.44153
 20
-14.56151
 30
0.0
 10
-10.40397
 20
-14.52838
 30
0.0
 10
-10.40397
 20
-14.52838
 30
0.0
 10
-10.40397
 20
-14.52838
 30
0.0
 10
-10.40061
 20
-14.52534
 30
0.0
 10
-10.39814
 20
-14.52238
 30
0.0
 10
-10.39654
 20
-14.51949
 30
0.0
 10
-10.39654
 20
-14.51949
 30
0.0
 10
-10.39492
 20
-14.51659
 30
0.0
 10
-10.39412
 20
-14.51358
 30
0.0
 10
-10.39412
 20
-14.51045
 30
0.0
 10
-10.39412
 20
-14.51045
 30
0.0
 10
-10.39412
 20
-14.50563
 30
0.0
 10
-10.39574
 20
-14.50175
 30
0.0
 10
-10.39898
 20
-14.49881
 30
0.0
 10
-10.39898
 20
-14.49881
 30
0.0
 10
-10.40221
 20
-14.49587
 30
0.0
 10
-10.40651
 20
-14.49442
 30
0.0
 10
-10.4119
 20
-14.49442
 30
0.0
 10
-10.4119
 20
-14.49442
 30
0.0
 10
-10.41603
 20
-14.49442
 30
0.0
 10
-10.42055
 20
-14.49531
 30
0.0
 10
-10.42547
 20
-14.49707
 30
0.0
 10
-10.42547
 20
-14.49707
 30
0.0
 10
-10.43038
 20
-14.49884
 30
0.0
 10
-10.43565
 20
-14.50147
 30
0.0
 10
-10.44125
 20
-14.50495
 30
0.0
 10
-10.44125
 20
-14.50495
 30
0.0
 10
-10.44125
 20
-14.50495
 30
0.0
 10
-10.44125
 20
-14.48235
 30
0.0
 10
-10.44125
 20
-14.48235
 30
0.0
 10
-10.44125
 20
-14.48235
 30
0.0
 10
-10.43527
 20
-14.48038
 30
0.0
 10
-10.42937
 20
-14.47887
 30
0.0
 10
-10.42354
 20
-14.47784
 30
0.0
 10
-10.42354
 20
-14.47784
 30
0.0
 10
-10.4177
 20
-14.4768
 30
0.0
 10
-10.41199
 20
-14.47628
 30
0.0
 10
-10.40637
 20
-14.47628
 30
0.0
 10
-10.40637
 20
-14.47628
 30
0.0
 10
-10.39407
 20
-14.47628
 30
0.0
 10
-10.3845
 20
-14.47899
 30
0.0
 10
-10.37768
 20
-14.48442
 30
0.0
 10
-10.37768
 20
-14.48442
 30
0.0
 10
-10.37086
 20
-14.48983
 30
0.0
 10
-10.36745
 20
-14.49738
 30
0.0
 10
-10.36745
 20
-14.50709
 30
0.0
 10
-10.36745
 20
-14.50709
 30
0.0
 10
-10.36745
 20
-14.51269
 30
0.0
 10
-10.3689
 20
-14.51791
 30
0.0
 10
-10.3718
 20
-14.52276
 30
0.0
 10
-10.3718
 20
-14.52276
 30
0.0
 10
-10.37469
 20
-14.5276
 30
0.0
 10
-10.38078
 20
-14.53409
 30
0.0
 10
-10.39005
 20
-14.54223
 30
0.0
 10
-10.39005
 20
-14.54223
 30
0.0
 10
-10.39005
 20
-14.54223
 30
0.0
 10
-10.41204
 20
-14.56151
 30
0.0
 10
-10.41204
 20
-14.56151
 30
0.0
  0
SPLINE
  5
6E
330
1F
100
AcDbEntity
  8
Layer 1
 62
   250
100
AcDbSpline
210
0.0
220
0.0
230
1.0
 70
    11
 71
     3
 72
    44
 73
    40
 74
     0
 42
0.0000000001
 43
0.0000000001
 40
0.0
 40
0.0
 40
0.0
 40
0.0
 40
0.1
 40
0.1
 40
0.1
 40
0.1
 40
0.2
 40
0.2
 40
0.2
 40
0.2
 40
0.3
 40
0.3
 40
0.3
 40
0.3
 40
0.4
 40
0.4
 40
0.4
 40
0.4
 40
0.5
 40
0.5
 40
0.5
 40
0.5
 40
0.6
 40
0.6
 40
0.6
 40
0.6
 40
0.7
 40
0.7
 40
0.7
 40
0.7
 40
0.7999999999999999
 40
0.7999999999999999
 40
0.7999999999999999
 40
0.7999999999999999
 40
0.8999999999999999
 40
0.8999999999999999
 40
0.8999999999999999
 40
0.8999999999999999
 40
1.0
 40
1.0
 40
1.0
 40
1.0
 10
-10.34322
 20
-14.59961
 30
0.0
 10
-10.33734
 20
-14.58868
 30
0.0
 10
-10.33292
 20
-14.578
 30
0.0
 10
-10.32998
 20
-14.56758
 30
0.0
 10
-10.32998
 20
-14.56758
 30
0.0
 10
-10.32704
 20
-14.55714
 30
0.0
 10
-10.32558
 20
-14.54686
 30
0.0
 10
-10.32558
 20
-14.5367
 30
0.0
 10
-10.32558
 20
-14.5367
 30
0.0
 10
-10.32558
 20
-14.52654
 30
0.0
 10
-10.32704
 20
-14.51626
 30
0.0
 10
-10.32998
 20
-14.50587
 30
0.0
 10
-10.32998
 20
-14.50587
 30
0.0
 10
-10.33292
 20
-14.49547
 30
0.0
 10
-10.33734
 20
-14.48482
 30
0.0
 10
-10.34322
 20
-14.47393
 30
0.0
 10
-10.34322
 20
-14.47393
 30
0.0
 10
-10.34322
 20
-14.47393
 30
0.0
 10
-10.32276
 20
-14.47393
 30
0.0
 10
-10.32276
 20
-14.47393
 30
0.0
 10
-10.32276
 20
-14.47393
 30
0.0
 10
-10.31578
 20
-14.4852
 30
0.0
 10
-10.3106
 20
-14.49597
 30
0.0
 10
-10.30721
 20
-14.50629
 30
0.0
 10
-10.30721
 20
-14.50629
 30
0.0
 10
-10.30385
 20
-14.51659
 30
0.0
 10
-10.30216
 20
-14.52678
 30
0.0
 10
-10.30216
 20
-14.53684
 30
0.0
 10
-10.30216
 20
-14.53684
 30
0.0
 10
-10.30216
 20
-14.54691
 30
0.0
 10
-10.30383
 20
-14.55704
 30
0.0
 10
-10.30719
 20
-14.56725
 30
0.0
 10
-10.30719
 20
-14.56725
 30
0.0
 10
-10.31053
 20
-14.57748
 30
0.0
 10
-10.31573
 20
-14.58828
 30
0.0
 10
-10.32276
 20
-14.59961
 30
0.0
 10
-10.32276
 20
-14.59961
 30
0.0
 10
-10.32276
 20
-14.59961
 30
0.0
 10
-10.34322
 20
-14.59961
 30
0.0
 10
-10.34322
 20
-14.59961
 30
0.0
  0
SPLINE
  5
6F
330
1F
100
AcDbEntity
  8
Layer 1
 62
   250
100
AcDbSpline
210
0.0
220
0.0
230
1.0
 70
    11
 71
     3
 72
    80
 73
    76
 74
     0
 42
0.0000000001
 43
0.0000000001
 40
0.0
 40
0.0
 40
0.0
 40
0.0
 40
0.0526315789473684
 40
0.0526315789473684
 40
0.0526315789473684
 40
0.0526315789473684
 40
0.1052631578947368
 40
0.1052631578947368
 40
0.1052631578947368
 40
0.1052631578947368
 40
0.1578947368421053
 40
0.1578947368421053
 40
0.1578947368421053
 40
0.1578947368421053
 40
0.2105263157894737
 40
0.2105263157894737
 40
0.2105263157894737
 40
0.2105263157894737
 40
0.2631578947368421
 40
0.2631578947368421
 40
0.2631578947368421
 40
0.2631578947368421
 40
0.3157894736842105
 40
0.3157894736842105
 40
0.3157894736842105
 40
0.3157894736842105
 40
0.3684210526315789
 40
0.3684210526315789
 40
0.3684210526315789
 40
0.3684210526315789
 40
0.4210526315789473
 40
0.4210526315789473
 40
0.4210526315789473
 40
0.4210526315789473
 40
0.4736842105263158
 40
0.4736842105263158
 40
0.4736842105263158
 40
0.4736842105263158
 40
0.5263157894736842
 40
0.5263157894736842
 40
0.5263157894736842
 40
0.5263157894736842
 40
0.5789473684210527
 40
0.5789473684210527
 40
0.5789473684210527
 40
0.5789473684210527
 40
0.631578947368421
 40
0.631578947368421
 40
0.631578947368421
 40
0.631578947368421
 40
0.6842105263157894
 40
0.6842105263157894
 40
0.6842105263157894
 40
0.6842105263157894
 40
0.7368421052631577
 40
0.7368421052631577
 40
0.7368421052631577
 40
0.7368421052631577
 40
0.7894736842105261
 40
0.7894736842105261
 40
0.7894736842105261
 40
0.7894736842105261
 40
0.8421052631578945
 40
0.8421052631578945
 40
0.8421052631578945
 40
0.8421052631578945
 40
0.8947368421052628
 40
0.8947368421052628
 40
0.8947368421052628
 40
0.8947368421052628
 40
0.9473684210526312
 40
0.9473684210526312
 40
0.9473684210526312
 40
0.9473684210526312
 40
1.0
 40
1.0
 40
1.0
 40
1.0
 10
-10.20023
 20
-14.56151
 30
0.0
 10
-10.20023
 20
-14.56151
 30
0.0
 10
-10.15495
 20
-14.56151
 30
0.0
 10
-10.15495
 20
-14.56151
 30
0.0
 10
-10.15495
 20
-14.56151
 30
0.0
 10
-10.15495
 20
-14.56151
 30
0.0
 10
-10.15495
 20
-14.58101
 30
0.0
 10
-10.15495
 20
-14.58101
 30
0.0
 10
-10.15495
 20
-14.58101
 30
0.0
 10
-10.15495
 20
-14.58101
 30
0.0
 10
-10.22972
 20
-14.58101
 30
0.0
 10
-10.22972
 20
-14.58101
 30
0.0
 10
-10.22972
 20
-14.58101
 30
0.0
 10
-10.22972
 20
-14.58101
 30
0.0
 10
-10.22972
 20
-14.56151
 30
0.0
 10
-10.22972
 20
-14.56151
 30
0.0
 10
-10.22972
 20
-14.56151
 30
0.0
 10
-10.22972
 20
-14.56151
 30
0.0
 10
-10.19216
 20
-14.52838
 30
0.0
 10
-10.19216
 20
-14.52838
 30
0.0
 10
-10.19216
 20
-14.52838
 30
0.0
 10
-10.1888
 20
-14.52534
 30
0.0
 10
-10.18633
 20
-14.52238
 30
0.0
 10
-10.18473
 20
-14.51949
 30
0.0
 10
-10.18473
 20
-14.51949
 30
0.0
 10
-10.18311
 20
-14.51659
 30
0.0
 10
-10.18231
 20
-14.51358
 30
0.0
 10
-10.18231
 20
-14.51045
 30
0.0
 10
-10.18231
 20
-14.51045
 30
0.0
 10
-10.18231
 20
-14.50563
 30
0.0
 10
-10.18393
 20
-14.50175
 30
0.0
 10
-10.18717
 20
-14.49881
 30
0.0
 10
-10.18717
 20
-14.49881
 30
0.0
 10
-10.1904
 20
-14.49587
 30
0.0
 10
-10.1947
 20
-14.49442
 30
0.0
 10
-10.20009
 20
-14.49442
 30
0.0
 10
-10.20009
 20
-14.49442
 30
0.0
 10
-10.20422
 20
-14.49442
 30
0.0
 10
-10.20874
 20
-14.49531
 30
0.0
 10
-10.21366
 20
-14.49707
 30
0.0
 10
-10.21366
 20
-14.49707
 30
0.0
 10
-10.21857
 20
-14.49884
 30
0.0
 10
-10.22384
 20
-14.50147
 30
0.0
 10
-10.22944
 20
-14.50495
 30
0.0
 10
-10.22944
 20
-14.50495
 30
0.0
 10
-10.22944
 20
-14.50495
 30
0.0
 10
-10.22944
 20
-14.48235
 30
0.0
 10
-10.22944
 20
-14.48235
 30
0.0
 10
-10.22944
 20
-14.48235
 30
0.0
 10
-10.22346
 20
-14.48038
 30
0.0
 10
-10.21756
 20
-14.47887
 30
0.0
 10
-10.21173
 20
-14.47784
 30
0.0
 10
-10.21173
 20
-14.47784
 30
0.0
 10
-10.20589
 20
-14.4768
 30
0.0
 10
-10.20018
 20
-14.47628
 30
0.0
 10
-10.19456
 20
-14.47628
 30
0.0
 10
-10.19456
 20
-14.47628
 30
0.0
 10
-10.18226
 20
-14.47628
 30
0.0
 10
-10.17269
 20
-14.47899
 30
0.0
 10
-10.16587
 20
-14.48442
 30
0.0
 10
-10.16587
 20
-14.48442
 30
0.0
 10
-10.15905
 20
-14.48983
 30
0.0
 10
-10.15564
 20
-14.49738
 30
0.0
 10
-10.15564
 20
-14.50709
 30
0.0
 10
-10.15564
 20
-14.50709
 30
0.0
 10
-10.15564
 20
-14.51269
 30
0.0
 10
-10.15709
 20
-14.51791
 30
0.0
 10
-10.15999
 20
-14.52276
 30
0.0
 10
-10.15999
 20
-14.52276
 30
0.0
 10
-10.16288
 20
-14.5276
 30
0.0
 10
-10.16897
 20
-14.53409
 30
0.0
 10
-10.17824
 20
-14.54223
 30
0.0
 10
-10.17824
 20
-14.54223
 30
0.0
 10
-10.17824
 20
-14.54223
 30
0.0
 10
-10.20023
 20
-14.56151
 30
0.0
 10
-10.20023
 20
-14.56151
 30
0.0
  0
SPLINE
  5
70
330
1F
100
AcDbEntity
  8
Layer 1
 62
   250
100
AcDbSpline
210
0.0
220
0.0
230
1.0
 70
    11
 71
     3
 72
    20
 73
    16
 74
     0
 42
0.0000000001
 43
0.0000000001
 40
0.0
 40
0.0
 40
0.0
 40
0.0
 40
0.25
 40
0.25
 40
0.25
 40
0.25
 40
0.5
 40
0.5
 40
0.5
 40
0.5
 40
0.75
 40
0.75
 40
0.75
 40
0.75
 40
1.0
 40
1.0
 40
1.0
 40
1.0
 10
-10.12831
 20
-14.55434
 30
0.0
 10
-10.12831
 20
-14.55434
 30
0.0
 10
-10.10349
 20
-14.55434
 30
0.0
 10
-10.10349
 20
-14.55434
 30
0.0
 10
-10.10349
 20
-14.55434
 30
0.0
 10
-10.10349
 20
-14.55434
 30
0.0
 10
-10.10349
 20
-14.58101
 30
0.0
 10
-10.10349
 20
-14.58101
 30
0.0
 10
-10.10349
 20
-14.58101
 30
0.0
 10
-10.10349
 20
-14.58101
 30
0.0
 10
-10.12831
 20
-14.58101
 30
0.0
 10
-10.12831
 20
-14.58101
 30
0.0
 10
-10.12831
 20
-14.58101
 30
0.0
 10
-10.12831
 20
-14.58101
 30
0.0
 10
-10.12831
 20
-14.55434
 30
0.0
 10
-10.12831
 20
-14.55434
 30
0.0
  0
SPLINE
  5
71
330
1F
100
AcDbEntity
  8
Layer 1
 62
   250
100
AcDbSpline
210
0.0
220
0.0
230
1.0
 70
    11
 71
     3
 72
    80
 73
    76
 74
     0
 42
0.0000000001
 43
0.0000000001
 40
0.0
 40
0.0
 40
0.0
 40
0.0
 40
0.0526315789473684
 40
0.0526315789473684
 40
0.0526315789473684
 40
0.0526315789473684
 40
0.1052631578947368
 40
0.1052631578947368
 40
0.1052631578947368
 40
0.1052631578947368
 40
0.1578947368421053
 40
0.1578947368421053
 40
0.1578947368421053
 40
0.1578947368421053
 40
0.2105263157894737
 40
0.2105263157894737
 40
0.2105263157894737
 40
0.2105263157894737
 40
0.2631578947368421
 40
0.2631578947368421
 40
0.2631578947368421
 40
0.2631578947368421
 40
0.3157894736842105
 40
0.3157894736842105
 40
0.3157894736842105
 40
0.3157894736842105
 40
0.3684210526315789
 40
0.3684210526315789
 40
0.3684210526315789
 40
0.3684210526315789
 40
0.4210526315789473
 40
0.4210526315789473
 40
0.4210526315789473
 40
0.4210526315789473
 40
0.4736842105263158
 40
0.4736842105263158
 40
0.4736842105263158
 40
0.4736842105263158
 40
0.5263157894736842
 40
0.5263157894736842
 40
0.5263157894736842
 40
0.5263157894736842
 40
0.5789473684210527
 40
0.5789473684210527
 40
0.5789473684210527
 40
0.5789473684210527
 40
0.631578947368421
 40
0.631578947368421
 40
0.631578947368421
 40
0.631578947368421
 40
0.6842105263157894
 40
0.6842105263157894
 40
0.6842105263157894
 40
0.6842105263157894
 40
0.7368421052631577
 40
0.7368421052631577
 40
0.7368421052631577
 40
0.7368421052631577
 40
0.7894736842105261
 40
0.7894736842105261
 40
0.7894736842105261
 40
0.7894736842105261
 40
0.8421052631578945
 40
0.8421052631578945
 40
0.8421052631578945
 40
0.8421052631578945
 40
0.8947368421052628
 40
0.8947368421052628
 40
0.8947368421052628
 40
0.8947368421052628
 40
0.9473684210526312
 40
0.9473684210526312
 40
0.9473684210526312
 40
0.9473684210526312
 40
1.0
 40
1.0
 40
1.0
 40
1.0
 10
-10.04844
 20
-14.56151
 30
0.0
 10
-10.04844
 20
-14.56151
 30
0.0
 10
-10.00316
 20
-14.56151
 30
0.0
 10
-10.00316
 20
-14.56151
 30
0.0
 10
-10.00316
 20
-14.56151
 30
0.0
 10
-10.00316
 20
-14.56151
 30
0.0
 10
-10.00316
 20
-14.58101
 30
0.0
 10
-10.00316
 20
-14.58101
 30
0.0
 10
-10.00316
 20
-14.58101
 30
0.0
 10
-10.00316
 20
-14.58101
 30
0.0
 10
-10.07793
 20
-14.58101
 30
0.0
 10
-10.07793
 20
-14.58101
 30
0.0
 10
-10.07793
 20
-14.58101
 30
0.0
 10
-10.07793
 20
-14.58101
 30
0.0
 10
-10.07793
 20
-14.56151
 30
0.0
 10
-10.07793
 20
-14.56151
 30
0.0
 10
-10.07793
 20
-14.56151
 30
0.0
 10
-10.07793
 20
-14.56151
 30
0.0
 10
-10.04037
 20
-14.52838
 30
0.0
 10
-10.04037
 20
-14.52838
 30
0.0
 10
-10.04037
 20
-14.52838
 30
0.0
 10
-10.03701
 20
-14.52534
 30
0.0
 10
-10.03454
 20
-14.52238
 30
0.0
 10
-10.03294
 20
-14.51949
 30
0.0
 10
-10.03294
 20
-14.51949
 30
0.0
 10
-10.03132
 20
-14.51659
 30
0.0
 10
-10.03052
 20
-14.51358
 30
0.0
 10
-10.03052
 20
-14.51045
 30
0.0
 10
-10.03052
 20
-14.51045
 30
0.0
 10
-10.03052
 20
-14.50563
 30
0.0
 10
-10.03214
 20
-14.50175
 30
0.0
 10
-10.03538
 20
-14.49881
 30
0.0
 10
-10.03538
 20
-14.49881
 30
0.0
 10
-10.03861
 20
-14.49587
 30
0.0
 10
-10.04291
 20
-14.49442
 30
0.0
 10
-10.0483
 20
-14.49442
 30
0.0
 10
-10.0483
 20
-14.49442
 30
0.0
 10
-10.05243
 20
-14.49442
 30
0.0
 10
-10.05695
 20
-14.49531
 30
0.0
 10
-10.06187
 20
-14.49707
 30
0.0
 10
-10.06187
 20
-14.49707
 30
0.0
 10
-10.06678
 20
-14.49884
 30
0.0
 10
-10.07205
 20
-14.50147
 30
0.0
 10
-10.07765
 20
-14.50495
 30
0.0
 10
-10.07765
 20
-14.50495
 30
0.0
 10
-10.07765
 20
-14.50495
 30
0.0
 10
-10.07765
 20
-14.48235
 30
0.0
 10
-10.07765
 20
-14.48235
 30
0.0
 10
-10.07765
 20
-14.48235
 30
0.0
 10
-10.07167
 20
-14.48038
 30
0.0
 10
-10.06577
 20
-14.47887
 30
0.0
 10
-10.05994
 20
-14.47784
 30
0.0
 10
-10.05994
 20
-14.47784
 30
0.0
 10
-10.0541
 20
-14.4768
 30
0.0
 10
-10.04839
 20
-14.47628
 30
0.0
 10
-10.04277
 20
-14.47628
 30
0.0
 10
-10.04277
 20
-14.47628
 30
0.0
 10
-10.03047
 20
-14.47628
 30
0.0
 10
-10.0209
 20
-14.47899
 30
0.0
 10
-10.01408
 20
-14.48442
 30
0.0
 10
-10.01408
 20
-14.48442
 30
0.0
 10
-10.00726
 20
-14.48983
 30
0.0
 10
-10.00385
 20
-14.49738
 30
0.0
 10
-10.00385
 20
-14.50709
 30
0.0
 10
-10.00385
 20
-14.50709
 30
0.0
 10
-10.00385
 20
-14.51269
 30
0.0
 10
-10.0053
 20
-14.51791
 30
0.0
 10
-10.0082
 20
-14.52276
 30
0.0
 10
-10.0082
 20
-14.52276
 30
0.0
 10
-10.01109
 20
-14.5276
 30
0.0
 10
-10.01718
 20
-14.53409
 30
0.0
 10
-10.02645
 20
-14.54223
 30
0.0
 10
-10.02645
 20
-14.54223
 30
0.0
 10
-10.02645
 20
-14.54223
 30
0.0
 10
-10.04844
 20
-14.56151
 30
0.0
 10
-10.04844
 20
-14.56151
 30
0.0
  0
SPLINE
  5
72
330
1F
100
AcDbEntity
  8
Layer 1
 62
   250
100
AcDbSpline
210
0.0
220
0.0
230
1.0
 70
    11
 71
     3
 72
    80
 73
    76
 74
     0
 42
0.0000000001
 43
0.0000000001
 40
0.0
 40
0.0
 40
0.0
 40
0.0
 40
0.0526315789473684
 40
0.0526315789473684
 40
0.0526315789473684
 40
0.0526315789473684
 40
0.1052631578947368
 40
0.1052631578947368
 40
0.1052631578947368
 40
0.1052631578947368
 40
0.1578947368421053
 40
0.1578947368421053
 40
0.1578947368421053
 40
0.1578947368421053
 40
0.2105263157894737
 40
0.2105263157894737
 40
0.2105263157894737
 40
0.2105263157894737
 40
0.2631578947368421
 40
0.2631578947368421
 40
0.2631578947368421
 40
0.2631578947368421
 40
0.3157894736842105
 40
0.3157894736842105
 40
0.3157894736842105
 40
0.3157894736842105
 40
0.3684210526315789
 40
0.3684210526315789
 40
0.3684210526315789
 40
0.3684210526315789
 40
0.4210526315789473
 40
0.4210526315789473
 40
0.4210526315789473
 40
0.4210526315789473
 40
0.4736842105263158
 40
0.4736842105263158
 40
0.4736842105263158
 40
0.4736842105263158
 40
0.5263157894736842
 40
0.5263157894736842
 40
0.5263157894736842
 40
0.5263157894736842
 40
0.5789473684210527
 40
0.5789473684210527
 40
0.5789473684210527
 40
0.5789473684210527
 40
0.631578947368421
 40
0.631578947368421
 40
0.631578947368421
 40
0.631578947368421
 40
0.6842105263157894
 40
0.6842105263157894
 40
0.6842105263157894
 40
0.6842105263157894
 40
0.7368421052631577
 40
0.7368421052631577
 40
0.7368421052631577
 40
0.7368421052631577
 40
0.7894736842105261
 40
0.7894736842105261
 40
0.7894736842105261
 40
0.7894736842105261
 40
0.8421052631578945
 40
0.8421052631578945
 40
0.8421052631578945
 40
0.8421052631578945
 40
0.8947368421052628
 40
0.8947368421052628
 40
0.8947368421052628
 40
0.8947368421052628
 40
0.9473684210526312
 40
0.9473684210526312
 40
0.9473684210526312
 40
0.9473684210526312
 40
1.0
 40
1.0
 40
1.0
 40
1.0
 10
-9.85234
 20
-14.53402
 30
0.0
 10
-9.85234
 20
-14.53402
 30
0.0
 10
-9.85234
 20
-14.58101
 30
0.0
 10
-9.85234
 20
-14.58101
 30
0.0
 10
-9.85234
 20
-14.58101
 30
0.0
 10
-9.85234
 20
-14.58101
 30
0.0
 10
-9.87715
 20
-14.58101
 30
0.0
 10
-9.87715
 20
-14.58101
 30
0.0
 10
-9.87715
 20
-14.58101
 30
0.0
 10
-9.87715
 20
-14.58101
 30
0.0
 10
-9.87715
 20
-14.57337
 30
0.0
 10
-9.87715
 20
-14.57337
 30
0.0
 10
-9.87715
 20
-14.57337
 30
0.0
 10
-9.87715
 20
-14.57337
 30
0.0
 10
-9.87715
 20
-14.54505
 30
0.0
 10
-9.87715
 20
-14.54505
 30
0.0
 10
-9.87715
 20
-14.54505
 30
0.0
 10
-9.87715
 20
-14.53839
 30
0.0
 10
-9.87729
 20
-14.53379
 30
0.0
 10
-9.8776
 20
-14.53127
 30
0.0
 10
-9.8776
 20
-14.53127
 30
0.0
 10
-9.8779
 20
-14.52875
 30
0.0
 10
-9.87842
 20
-14.52689
 30
0.0
 10
-9.87915
 20
-14.52569
 30
0.0
 10
-9.87915
 20
-14.52569
 30
0.0
 10
-9.88011
 20
-14.52407
 30
0.0
 10
-9.88143
 20
-14.52283
 30
0.0
 10
-9.88308
 20
-14.52193
 30
0.0
 10
-9.88308
 20
-14.52193
 30
0.0
 10
-9.88472
 20
-14.52104
 30
0.0
 10
-9.88661
 20
-14.52059
 30
0.0
 10
-9.88872
 20
-14.52059
 30
0.0
 10
-9.88872
 20
-14.52059
 30
0.0
 10
-9.89387
 20
-14.52059
 30
0.0
 10
-9.89792
 20
-14.52257
 30
0.0
 10
-9.90086
 20
-14.52654
 30
0.0
 10
-9.90086
 20
-14.52654
 30
0.0
 10
-9.9038
 20
-14.53052
 30
0.0
 10
-9.90526
 20
-14.53602
 30
0.0
 10
-9.90526
 20
-14.54305
 30
0.0
 10
-9.90526
 20
-14.54305
 30
0.0
 10
-9.90526
 20
-14.54305
 30
0.0
 10
-9.90526
 20
-14.58101
 30
0.0
 10
-9.90526
 20
-14.58101
 30
0.0
 10
-9.90526
 20
-14.58101
 30
0.0
 10
-9.90526
 20
-14.58101
 30
0.0
 10
-9.92993
 20
-14.58101
 30
0.0
 10
-9.92993
 20
-14.58101
 30
0.0
 10
-9.92993
 20
-14.58101
 30
0.0
 10
-9.92993
 20
-14.58101
 30
0.0
 10
-9.92993
 20
-14.50385
 30
0.0
 10
-9.92993
 20
-14.50385
 30
0.0
 10
-9.92993
 20
-14.50385
 30
0.0
 10
-9.92993
 20
-14.50385
 30
0.0
 10
-9.90526
 20
-14.50385
 30
0.0
 10
-9.90526
 20
-14.50385
 30
0.0
 10
-9.90526
 20
-14.50385
 30
0.0
 10
-9.90526
 20
-14.50385
 30
0.0
 10
-9.90526
 20
-14.51516
 30
0.0
 10
-9.90526
 20
-14.51516
 30
0.0
 10
-9.90526
 20
-14.51516
 30
0.0
 10
-9.90154
 20
-14.51064
 30
0.0
 10
-9.89759
 20
-14.50733
 30
0.0
 10
-9.8934
 20
-14.50519
 30
0.0
 10
-9.8934
 20
-14.50519
 30
0.0
 10
-9.88922
 20
-14.50305
 30
0.0
 10
-9.88461
 20
-14.50199
 30
0.0
 10
-9.87955
 20
-14.50199
 30
0.0
 10
-9.87955
 20
-14.50199
 30
0.0
 10
-9.87064
 20
-14.50199
 30
0.0
 10
-9.86389
 20
-14.50472
 30
0.0
 10
-9.85925
 20
-14.5102
 30
0.0
 10
-9.85925
 20
-14.5102
 30
0.0
 10
-9.85464
 20
-14.51565
 30
0.0
 10
-9.85234
 20
-14.5236
 30
0.0
 10
-9.85234
 20
-14.53402
 30
0.0
  0
SPLINE
  5
73
330
1F
100
AcDbEntity
  8
Layer 1
 62
   250
100
AcDbSpline
210
0.0
220
0.0
230
1.0
 70
    11
 71
     3
 72
    76
 73
    72
 74
     0
 42
0.0000000001
 43
0.0000000001
 40
0.0
 40
0.0
 40
0.0
 40
0.0
 40
0.0555555555555556
 40
0.0555555555555556
 40
0.0555555555555556
 40
0.0555555555555556
 40
0.1111111111111111
 40
0.1111111111111111
 40
0.1111111111111111
 40
0.1111111111111111
 40
0.1666666666666667
 40
0.1666666666666667
 40
0.1666666666666667
 40
0.1666666666666667
 40
0.2222222222222222
 40
0.2222222222222222
 40
0.2222222222222222
 40
0.2222222222222222
 40
0.2777777777777778
 40
0.2777777777777778
 40
0.2777777777777778
 40
0.2777777777777778
 40
0.3333333333333334
 40
0.3333333333333334
 40
0.3333333333333334
 40
0.3333333333333334
 40
0.388888888888889
 40
0.388888888888889
 40
0.388888888888889
 40
0.388888888888889
 40
0.4444444444444445
 40
0.4444444444444445
 40
0.4444444444444445
 40
0.4444444444444445
 40
0.5000000000000001
 40
0.5000000000000001
 40
0.5000000000000001
 40
0.5000000000000001
 40
0.5555555555555557
 40
0.5555555555555557
 40
0.5555555555555557
 40
0.5555555555555557
 40
0.6111111111111113
 40
0.6111111111111113
 40
0.6111111111111113
 40
0.6111111111111113
 40
0.6666666666666669
 40
0.6666666666666669
 40
0.6666666666666669
 40
0.6666666666666669
 40
0.7222222222222224
 40
0.7222222222222224
 40
0.7222222222222224
 40
0.7222222222222224
 40
0.777777777777778
 40
0.777777777777778
 40
0.777777777777778
 40
0.777777777777778
 40
0.8333333333333336
 40
0.8333333333333336
 40
0.8333333333333336
 40
0.8333333333333336
 40
0.8888888888888892
 40
0.8888888888888892
 40
0.8888888888888892
 40
0.8888888888888892
 40
0.9444444444444448
 40
0.9444444444444448
 40
0.9444444444444448
 40
0.9444444444444448
 40
1.0
 40
1.0
 40
1.0
 40
1.0
 10
-9.77868
 20
-14.47379
 30
0.0
 10
-9.77868
 20
-14.47379
 30
0.0
 10
-9.77868
 20
-14.48997
 30
0.0
 10
-9.77868
 20
-14.48997
 30
0.0
 10
-9.77868
 20
-14.48997
 30
0.0
 10
-9.77868
 20
-14.48997
 30
0.0
 10
-9.79234
 20
-14.48997
 30
0.0
 10
-9.79234
 20
-14.48997
 30
0.0
 10
-9.79234
 20
-14.48997
 30
0.0
 10
-9.79582
 20
-14.48997
 30
0.0
 10
-9.79827
 20
-14.49061
 30
0.0
 10
-9.79963
 20
-14.49188
 30
0.0
 10
-9.79963
 20
-14.49188
 30
0.0
 10
-9.80102
 20
-14.49315
 30
0.0
 10
-9.8017
 20
-14.49533
 30
0.0
 10
-9.8017
 20
-14.49846
 30
0.0
 10
-9.8017
 20
-14.49846
 30
0.0
 10
-9.8017
 20
-14.49846
 30
0.0
 10
-9.8017
 20
-14.50385
 30
0.0
 10
-9.8017
 20
-14.50385
 30
0.0
 10
-9.8017
 20
-14.50385
 30
0.0
 10
-9.8017
 20
-14.50385
 30
0.0
 10
-9.78063
 20
-14.50385
 30
0.0
 10
-9.78063
 20
-14.50385
 30
0.0
 10
-9.78063
 20
-14.50385
 30
0.0
 10
-9.78063
 20
-14.50385
 30
0.0
 10
-9.78063
 20
-14.52149
 30
0.0
 10
-9.78063
 20
-14.52149
 30
0.0
 10
-9.78063
 20
-14.52149
 30
0.0
 10
-9.78063
 20
-14.52149
 30
0.0
 10
-9.8017
 20
-14.52149
 30
0.0
 10
-9.8017
 20
-14.52149
 30
0.0
 10
-9.8017
 20
-14.52149
 30
0.0
 10
-9.8017
 20
-14.52149
 30
0.0
 10
-9.8017
 20
-14.58101
 30
0.0
 10
-9.8017
 20
-14.58101
 30
0.0
 10
-9.8017
 20
-14.58101
 30
0.0
 10
-9.8017
 20
-14.58101
 30
0.0
 10
-9.82637
 20
-14.58101
 30
0.0
 10
-9.82637
 20
-14.58101
 30
0.0
 10
-9.82637
 20
-14.58101
 30
0.0
 10
-9.82637
 20
-14.58101
 30
0.0
 10
-9.82637
 20
-14.52149
 30
0.0
 10
-9.82637
 20
-14.52149
 30
0.0
 10
-9.82637
 20
-14.52149
 30
0.0
 10
-9.82637
 20
-14.52149
 30
0.0
 10
-9.83863
 20
-14.52149
 30
0.0
 10
-9.83863
 20
-14.52149
 30
0.0
 10
-9.83863
 20
-14.52149
 30
0.0
 10
-9.83863
 20
-14.52149
 30
0.0
 10
-9.83863
 20
-14.50385
 30
0.0
 10
-9.83863
 20
-14.50385
 30
0.0
 10
-9.83863
 20
-14.50385
 30
0.0
 10
-9.83863
 20
-14.50385
 30
0.0
 10
-9.82637
 20
-14.50385
 30
0.0
 10
-9.82637
 20
-14.50385
 30
0.0
 10
-9.82637
 20
-14.50385
 30
0.0
 10
-9.82637
 20
-14.50385
 30
0.0
 10
-9.82637
 20
-14.49846
 30
0.0
 10
-9.82637
 20
-14.49846
 30
0.0
 10
-9.82637
 20
-14.49846
 30
0.0
 10
-9.82637
 20
-14.49006
 30
0.0
 10
-9.82402
 20
-14.48383
 30
0.0
 10
-9.81934
 20
-14.47981
 30
0.0
 10
-9.81934
 20
-14.47981
 30
0.0
 10
-9.81466
 20
-14.47579
 30
0.0
 10
-9.80739
 20
-14.47379
 30
0.0
 10
-9.79756
 20
-14.47379
 30
0.0
 10
-9.79756
 20
-14.47379
 30
0.0
 10
-9.79756
 20
-14.47379
 30
0.0
 10
-9.77868
 20
-14.47379
 30
0.0
 10
-9.77868
 20
-14.47379
 30
0.0
  0
SPLINE
  5
74
330
1F
100
AcDbEntity
  8
Layer 1
 62
   250
100
AcDbSpline
210
0.0
220
0.0
230
1.0
 70
    11
 71
     3
 72
    76
 73
    72
 74
     0
 42
0.0000000001
 43
0.0000000001
 40
0.0
 40
0.0
 40
0.0
 40
0.0
 40
0.0555555555555556
 40
0.0555555555555556
 40
0.0555555555555556
 40
0.0555555555555556
 40
0.1111111111111111
 40
0.1111111111111111
 40
0.1111111111111111
 40
0.1111111111111111
 40
0.1666666666666667
 40
0.1666666666666667
 40
0.1666666666666667
 40
0.1666666666666667
 40
0.2222222222222222
 40
0.2222222222222222
 40
0.2222222222222222
 40
0.2222222222222222
 40
0.2777777777777778
 40
0.2777777777777778
 40
0.2777777777777778
 40
0.2777777777777778
 40
0.3333333333333334
 40
0.3333333333333334
 40
0.3333333333333334
 40
0.3333333333333334
 40
0.388888888888889
 40
0.388888888888889
 40
0.388888888888889
 40
0.388888888888889
 40
0.4444444444444445
 40
0.4444444444444445
 40
0.4444444444444445
 40
0.4444444444444445
 40
0.5000000000000001
 40
0.5000000000000001
 40
0.5000000000000001
 40
0.5000000000000001
 40
0.5555555555555557
 40
0.5555555555555557
 40
0.5555555555555557
 40
0.5555555555555557
 40
0.6111111111111113
 40
0.6111111111111113
 40
0.6111111111111113
 40
0.6111111111111113
 40
0.6666666666666669
 40
0.6666666666666669
 40
0.6666666666666669
 40
0.6666666666666669
 40
0.7222222222222224
 40
0.7222222222222224
 40
0.7222222222222224
 40
0.7222222222222224
 40
0.777777777777778
 40
0.777777777777778
 40
0.777777777777778
 40
0.777777777777778
 40
0.8333333333333336
 40
0.8333333333333336
 40
0.8333333333333336
 40
0.8333333333333336
 40
0.8888888888888892
 40
0.8888888888888892
 40
0.8888888888888892
 40
0.8888888888888892
 40
0.9444444444444448
 40
0.9444444444444448
 40
0.9444444444444448
 40
0.9444444444444448
 40
1.0
 40
1.0
 40
1.0
 40
1.0
 10
-11.29834
 20
-14.73962
 30
0.0
 10
-11.3032
 20
-14.74213
 30
0.0
 10
-11.30828
 20
-14.74404
 30
0.0
 10
-11.31358
 20
-14.74533
 30
0.0
 10
-11.31358
 20
-14.74533
 30
0.0
 10
-11.31884
 20
-14.74662
 30
0.0
 10
-11.32437
 20
-14.74726
 30
0.0
 10
-11.33011
 20
-14.74726
 30
0.0
 10
-11.33011
 20
-14.74726
 30
0.0
 10
-11.34723
 20
-14.74726
 30
0.0
 10
-11.3608
 20
-14.74246
 30
0.0
 10
-11.37082
 20
-14.73289
 30
0.0
 10
-11.37082
 20
-14.73289
 30
0.0
 10
-11.38084
 20
-14.72332
 30
0.0
 10
-11.38585
 20
-14.71034
 30
0.0
 10
-11.38585
 20
-14.69392
 30
0.0
 10
-11.38585
 20
-14.69392
 30
0.0
 10
-11.38585
 20
-14.67748
 30
0.0
 10
-11.38084
 20
-14.66447
 30
0.0
 10
-11.37082
 20
-14.6549
 30
0.0
 10
-11.37082
 20
-14.6549
 30
0.0
 10
-11.3608
 20
-14.64533
 30
0.0
 10
-11.34723
 20
-14.64053
 30
0.0
 10
-11.33011
 20
-14.64053
 30
0.0
 10
-11.33011
 20
-14.64053
 30
0.0
 10
-11.32437
 20
-14.64053
 30
0.0
 10
-11.31884
 20
-14.64117
 30
0.0
 10
-11.31358
 20
-14.64246
 30
0.0
 10
-11.31358
 20
-14.64246
 30
0.0
 10
-11.30828
 20
-14.64375
 30
0.0
 10
-11.3032
 20
-14.64566
 30
0.0
 10
-11.29834
 20
-14.64818
 30
0.0
 10
-11.29834
 20
-14.64818
 30
0.0
 10
-11.29834
 20
-14.64818
 30
0.0
 10
-11.29834
 20
-14.66946
 30
0.0
 10
-11.29834
 20
-14.66946
 30
0.0
 10
-11.29834
 20
-14.66946
 30
0.0
 10
-11.30325
 20
-14.6661
 30
0.0
 10
-11.3081
 20
-14.66365
 30
0.0
 10
-11.31287
 20
-14.6621
 30
0.0
 10
-11.31287
 20
-14.6621
 30
0.0
 10
-11.31764
 20
-14.66052
 30
0.0
 10
-11.32268
 20
-14.65975
 30
0.0
 10
-11.32797
 20
-14.65975
 30
0.0
 10
-11.32797
 20
-14.65975
 30
0.0
 10
-11.33742
 20
-14.65975
 30
0.0
 10
-11.34488
 20
-14.66278
 30
0.0
 10
-11.35029
 20
-14.66885
 30
0.0
 10
-11.35029
 20
-14.66885
 30
0.0
 10
-11.35572
 20
-14.67492
 30
0.0
 10
-11.35843
 20
-14.68327
 30
0.0
 10
-11.35843
 20
-14.69392
 30
0.0
 10
-11.35843
 20
-14.69392
 30
0.0
 10
-11.35843
 20
-14.70455
 30
0.0
 10
-11.35572
 20
-14.71288
 30
0.0
 10
-11.35029
 20
-14.71894
 30
0.0
 10
-11.35029
 20
-14.71894
 30
0.0
 10
-11.34488
 20
-14.72501
 30
0.0
 10
-11.33742
 20
-14.72804
 30
0.0
 10
-11.32797
 20
-14.72804
 30
0.0
 10
-11.32797
 20
-14.72804
 30
0.0
 10
-11.32268
 20
-14.72804
 30
0.0
 10
-11.31764
 20
-14.72727
 30
0.0
 10
-11.31287
 20
-14.72569
 30
0.0
 10
-11.31287
 20
-14.72569
 30
0.0
 10
-11.3081
 20
-14.72414
 30
0.0
 10
-11.30325
 20
-14.72169
 30
0.0
 10
-11.29834
 20
-14.71833
 30
0.0
 10
-11.29834
 20
-14.71833
 30
0.0
 10
-11.29834
 20
-14.71833
 30
0.0
 10
-11.29834
 20
-14.73962
 30
0.0
 10
-11.29834
 20
-14.73962
 30
0.0
  0
SPLINE
  5
75
330
1F
100
AcDbEntity
  8
Layer 1
 62
   250
100
AcDbSpline
210
0.0
220
0.0
230
1.0
 70
    11
 71
     3
 72
    36
 73
    32
 74
     0
 42
0.0000000001
 43
0.0000000001
 40
0.0
 40
0.0
 40
0.0
 40
0.0
 40
0.125
 40
0.125
 40
0.125
 40
0.125
 40
0.25
 40
0.25
 40
0.25
 40
0.25
 40
0.375
 40
0.375
 40
0.375
 40
0.375
 40
0.5
 40
0.5
 40
0.5
 40
0.5
 40
0.625
 40
0.625
 40
0.625
 40
0.625
 40
0.75
 40
0.75
 40
0.75
 40
0.75
 40
0.875
 40
0.875
 40
0.875
 40
0.875
 40
1.0
 40
1.0
 40
1.0
 40
1.0
 10
-11.21395
 20
-14.72654
 30
0.0
 10
-11.21395
 20
-14.72654
 30
0.0
 10
-11.25544
 20
-14.72654
 30
0.0
 10
-11.25544
 20
-14.72654
 30
0.0
 10
-11.25544
 20
-14.72654
 30
0.0
 10
-11.25544
 20
-14.72654
 30
0.0
 10
-11.26198
 20
-14.74526
 30
0.0
 10
-11.26198
 20
-14.74526
 30
0.0
 10
-11.26198
 20
-14.74526
 30
0.0
 10
-11.26198
 20
-14.74526
 30
0.0
 10
-11.28865
 20
-14.74526
 30
0.0
 10
-11.28865
 20
-14.74526
 30
0.0
 10
-11.28865
 20
-14.74526
 30
0.0
 10
-11.28865
 20
-14.74526
 30
0.0
 10
-11.25055
 20
-14.64239
 30
0.0
 10
-11.25055
 20
-14.64239
 30
0.0
 10
-11.25055
 20
-14.64239
 30
0.0
 10
-11.25055
 20
-14.64239
 30
0.0
 10
-11.21892
 20
-14.64239
 30
0.0
 10
-11.21892
 20
-14.64239
 30
0.0
 10
-11.21892
 20
-14.64239
 30
0.0
 10
-11.21892
 20
-14.64239
 30
0.0
 10
-11.18082
 20
-14.74526
 30
0.0
 10
-11.18082
 20
-14.74526
 30
0.0
 10
-11.18082
 20
-14.74526
 30
0.0
 10
-11.18082
 20
-14.74526
 30
0.0
 10
-11.20749
 20
-14.74526
 30
0.0
 10
-11.20749
 20
-14.74526
 30
0.0
 10
-11.20749
 20
-14.74526
 30
0.0
 10
-11.20749
 20
-14.74526
 30
0.0
 10
-11.21395
 20
-14.72654
 30
0.0
 10
-11.21395
 20
-14.72654
 30
0.0
  0
SPLINE
  5
76
330
1F
100
AcDbEntity
  8
Layer 1
 62
   250
100
AcDbSpline
210
0.0
220
0.0
230
1.0
 70
    11
 71
     3
 72
    16
 73
    12
 74
     0
 42
0.0000000001
 43
0.0000000001
 40
0.0
 40
0.0
 40
0.0
 40
0.0
 40
0.3333333333333333
 40
0.3333333333333333
 40
0.3333333333333333
 40
0.3333333333333333
 40
0.6666666666666666
 40
0.6666666666666666
 40
0.6666666666666666
 40
0.6666666666666666
 40
1.0
 40
1.0
 40
1.0
 40
1.0
 10
-11.24883
 20
-14.70744
 30
0.0
 10
-11.24883
 20
-14.70744
 30
0.0
 10
-11.22063
 20
-14.70744
 30
0.0
 10
-11.22063
 20
-14.70744
 30
0.0
 10
-11.22063
 20
-14.70744
 30
0.0
 10
-11.22063
 20
-14.70744
 30
0.0
 10
-11.2347
 20
-14.66652
 30
0.0
 10
-11.2347
 20
-14.66652
 30
0.0
 10
-11.2347
 20
-14.66652
 30
0.0
 10
-11.2347
 20
-14.66652
 30
0.0
 10
-11.24883
 20
-14.70744
 30
0.0
 10
-11.24883
 20
-14.70744
 30
0.0
  0
SPLINE
  5
77
330
1F
100
AcDbEntity
  8
Layer 1
 62
   250
100
AcDbSpline
210
0.0
220
0.0
230
1.0
 70
    11
 71
     3
 72
    40
 73
    36
 74
     0
 42
0.0000000001
 43
0.0000000001
 40
0.0
 40
0.0
 40
0.0
 40
0.0
 40
0.1111111111111111
 40
0.1111111111111111
 40
0.1111111111111111
 40
0.1111111111111111
 40
0.2222222222222222
 40
0.2222222222222222
 40
0.2222222222222222
 40
0.2222222222222222
 40
0.3333333333333333
 40
0.3333333333333333
 40
0.3333333333333333
 40
0.3333333333333333
 40
0.4444444444444444
 40
0.4444444444444444
 40
0.4444444444444444
 40
0.4444444444444444
 40
0.5555555555555556
 40
0.5555555555555556
 40
0.5555555555555556
 40
0.5555555555555556
 40
0.6666666666666667
 40
0.6666666666666667
 40
0.6666666666666667
 40
0.6666666666666667
 40
0.7777777777777779
 40
0.7777777777777779
 40
0.7777777777777779
 40
0.7777777777777779
 40
0.8888888888888891
 40
0.8888888888888891
 40
0.8888888888888891
 40
0.8888888888888891
 40
1.0
 40
1.0
 40
1.0
 40
1.0
 10
-11.16715
 20
-14.64239
 30
0.0
 10
-11.16715
 20
-14.64239
 30
0.0
 10
-11.12313
 20
-14.64239
 30
0.0
 10
-11.12313
 20
-14.64239
 30
0.0
 10
-11.12313
 20
-14.64239
 30
0.0
 10
-11.11003
 20
-14.64239
 30
0.0
 10
-11.09998
 20
-14.64531
 30
0.0
 10
-11.09297
 20
-14.65112
 30
0.0
 10
-11.09297
 20
-14.65112
 30
0.0
 10
-11.08597
 20
-14.65693
 30
0.0
 10
-11.08246
 20
-14.6652
 30
0.0
 10
-11.08246
 20
-14.67595
 30
0.0
 10
-11.08246
 20
-14.67595
 30
0.0
 10
-11.08246
 20
-14.68672
 30
0.0
 10
-11.08597
 20
-14.69502
 30
0.0
 10
-11.09297
 20
-14.70083
 30
0.0
 10
-11.09297
 20
-14.70083
 30
0.0
 10
-11.09998
 20
-14.70664
 30
0.0
 10
-11.11003
 20
-14.70956
 30
0.0
 10
-11.12313
 20
-14.70956
 30
0.0
 10
-11.12313
 20
-14.70956
 30
0.0
 10
-11.12313
 20
-14.70956
 30
0.0
 10
-11.14062
 20
-14.70956
 30
0.0
 10
-11.14062
 20
-14.70956
 30
0.0
 10
-11.14062
 20
-14.70956
 30
0.0
 10
-11.14062
 20
-14.70956
 30
0.0
 10
-11.14062
 20
-14.74526
 30
0.0
 10
-11.14062
 20
-14.74526
 30
0.0
 10
-11.14062
 20
-14.74526
 30
0.0
 10
-11.14062
 20
-14.74526
 30
0.0
 10
-11.16715
 20
-14.74526
 30
0.0
 10
-11.16715
 20
-14.74526
 30
0.0
 10
-11.16715
 20
-14.74526
 30
0.0
 10
-11.16715
 20
-14.74526
 30
0.0
 10
-11.16715
 20
-14.64239
 30
0.0
 10
-11.16715
 20
-14.64239
 30
0.0
  0
SPLINE
  5
78
330
1F
100
AcDbEntity
  8
Layer 1
 62
   250
100
AcDbSpline
210
0.0
220
0.0
230
1.0
 70
    11
 71
     3
 72
    32
 73
    28
 74
     0
 42
0.0000000001
 43
0.0000000001
 40
0.0
 40
0.0
 40
0.0
 40
0.0
 40
0.1428571428571428
 40
0.1428571428571428
 40
0.1428571428571428
 40
0.1428571428571428
 40
0.2857142857142857
 40
0.2857142857142857
 40
0.2857142857142857
 40
0.2857142857142857
 40
0.4285714285714285
 40
0.4285714285714285
 40
0.4285714285714285
 40
0.4285714285714285
 40
0.5714285714285714
 40
0.5714285714285714
 40
0.5714285714285714
 40
0.5714285714285714
 40
0.7142857142857142
 40
0.7142857142857142
 40
0.7142857142857142
 40
0.7142857142857142
 40
0.857142857142857
 40
0.857142857142857
 40
0.857142857142857
 40
0.857142857142857
 40
1.0
 40
1.0
 40
1.0
 40
1.0
 10
-11.14062
 20
-14.66161
 30
0.0
 10
-11.14062
 20
-14.66161
 30
0.0
 10
-11.14062
 20
-14.69034
 30
0.0
 10
-11.14062
 20
-14.69034
 30
0.0
 10
-11.14062
 20
-14.69034
 30
0.0
 10
-11.14062
 20
-14.69034
 30
0.0
 10
-11.12595
 20
-14.69034
 30
0.0
 10
-11.12595
 20
-14.69034
 30
0.0
 10
-11.12595
 20
-14.69034
 30
0.0
 10
-11.1208
 20
-14.69034
 30
0.0
 10
-11.11682
 20
-14.6891
 30
0.0
 10
-11.11402
 20
-14.68658
 30
0.0
 10
-11.11402
 20
-14.68658
 30
0.0
 10
-11.11122
 20
-14.68409
 30
0.0
 10
-11.10981
 20
-14.68054
 30
0.0
 10
-11.10981
 20
-14.67595
 30
0.0
 10
-11.10981
 20
-14.67595
 30
0.0
 10
-11.10981
 20
-14.67134
 30
0.0
 10
-11.11122
 20
-14.66781
 30
0.0
 10
-11.11402
 20
-14.66532
 30
0.0
 10
-11.11402
 20
-14.66532
 30
0.0
 10
-11.11682
 20
-14.66285
 30
0.0
 10
-11.1208
 20
-14.66161
 30
0.0
 10
-11.12595
 20
-14.66161
 30
0.0
 10
-11.12595
 20
-14.66161
 30
0.0
 10
-11.12595
 20
-14.66161
 30
0.0
 10
-11.14062
 20
-14.66161
 30
0.0
 10
-11.14062
 20
-14.66161
 30
0.0
  0
SPLINE
  5
79
330
1F
100
AcDbEntity
  8
Layer 1
 62
   250
100
AcDbSpline
210
0.0
220
0.0
230
1.0
 70
    11
 71
     3
 72
    36
 73
    32
 74
     0
 42
0.0000000001
 43
0.0000000001
 40
0.0
 40
0.0
 40
0.0
 40
0.0
 40
0.125
 40
0.125
 40
0.125
 40
0.125
 40
0.25
 40
0.25
 40
0.25
 40
0.25
 40
0.375
 40
0.375
 40
0.375
 40
0.375
 40
0.5
 40
0.5
 40
0.5
 40
0.5
 40
0.625
 40
0.625
 40
0.625
 40
0.625
 40
0.75
 40
0.75
 40
0.75
 40
0.75
 40
0.875
 40
0.875
 40
0.875
 40
0.875
 40
1.0
 40
1.0
 40
1.0
 40
1.0
 10
-11.01428
 20
-14.72654
 30
0.0
 10
-11.01428
 20
-14.72654
 30
0.0
 10
-11.05577
 20
-14.72654
 30
0.0
 10
-11.05577
 20
-14.72654
 30
0.0
 10
-11.05577
 20
-14.72654
 30
0.0
 10
-11.05577
 20
-14.72654
 30
0.0
 10
-11.06231
 20
-14.74526
 30
0.0
 10
-11.06231
 20
-14.74526
 30
0.0
 10
-11.06231
 20
-14.74526
 30
0.0
 10
-11.06231
 20
-14.74526
 30
0.0
 10
-11.08898
 20
-14.74526
 30
0.0
 10
-11.08898
 20
-14.74526
 30
0.0
 10
-11.08898
 20
-14.74526
 30
0.0
 10
-11.08898
 20
-14.74526
 30
0.0
 10
-11.05088
 20
-14.64239
 30
0.0
 10
-11.05088
 20
-14.64239
 30
0.0
 10
-11.05088
 20
-14.64239
 30
0.0
 10
-11.05088
 20
-14.64239
 30
0.0
 10
-11.01925
 20
-14.64239
 30
0.0
 10
-11.01925
 20
-14.64239
 30
0.0
 10
-11.01925
 20
-14.64239
 30
0.0
 10
-11.01925
 20
-14.64239
 30
0.0
 10
-10.98115
 20
-14.74526
 30
0.0
 10
-10.98115
 20
-14.74526
 30
0.0
 10
-10.98115
 20
-14.74526
 30
0.0
 10
-10.98115
 20
-14.74526
 30
0.0
 10
-11.00782
 20
-14.74526
 30
0.0
 10
-11.00782
 20
-14.74526
 30
0.0
 10
-11.00782
 20
-14.74526
 30
0.0
 10
-11.00782
 20
-14.74526
 30
0.0
 10
-11.01428
 20
-14.72654
 30
0.0
 10
-11.01428
 20
-14.72654
 30
0.0
  0
SPLINE
  5
7A
330
1F
100
AcDbEntity
  8
Layer 1
 62
   250
100
AcDbSpline
210
0.0
220
0.0
230
1.0
 70
    11
 71
     3
 72
    16
 73
    12
 74
     0
 42
0.0000000001
 43
0.0000000001
 40
0.0
 40
0.0
 40
0.0
 40
0.0
 40
0.3333333333333333
 40
0.3333333333333333
 40
0.3333333333333333
 40
0.3333333333333333
 40
0.6666666666666666
 40
0.6666666666666666
 40
0.6666666666666666
 40
0.6666666666666666
 40
1.0
 40
1.0
 40
1.0
 40
1.0
 10
-11.04916
 20
-14.70744
 30
0.0
 10
-11.04916
 20
-14.70744
 30
0.0
 10
-11.02096
 20
-14.70744
 30
0.0
 10
-11.02096
 20
-14.70744
 30
0.0
 10
-11.02096
 20
-14.70744
 30
0.0
 10
-11.02096
 20
-14.70744
 30
0.0
 10
-11.03503
 20
-14.66652
 30
0.0
 10
-11.03503
 20
-14.66652
 30
0.0
 10
-11.03503
 20
-14.66652
 30
0.0
 10
-11.03503
 20
-14.66652
 30
0.0
 10
-11.04916
 20
-14.70744
 30
0.0
 10
-11.04916
 20
-14.70744
 30
0.0
  0
SPLINE
  5
7B
330
1F
100
AcDbEntity
  8
Layer 1
 62
   250
100
AcDbSpline
210
0.0
220
0.0
230
1.0
 70
    11
 71
     3
 72
    76
 73
    72
 74
     0
 42
0.0000000001
 43
0.0000000001
 40
0.0
 40
0.0
 40
0.0
 40
0.0
 40
0.0555555555555556
 40
0.0555555555555556
 40
0.0555555555555556
 40
0.0555555555555556
 40
0.1111111111111111
 40
0.1111111111111111
 40
0.1111111111111111
 40
0.1111111111111111
 40
0.1666666666666667
 40
0.1666666666666667
 40
0.1666666666666667
 40
0.1666666666666667
 40
0.2222222222222222
 40
0.2222222222222222
 40
0.2222222222222222
 40
0.2222222222222222
 40
0.2777777777777778
 40
0.2777777777777778
 40
0.2777777777777778
 40
0.2777777777777778
 40
0.3333333333333334
 40
0.3333333333333334
 40
0.3333333333333334
 40
0.3333333333333334
 40
0.388888888888889
 40
0.388888888888889
 40
0.388888888888889
 40
0.388888888888889
 40
0.4444444444444445
 40
0.4444444444444445
 40
0.4444444444444445
 40
0.4444444444444445
 40
0.5000000000000001
 40
0.5000000000000001
 40
0.5000000000000001
 40
0.5000000000000001
 40
0.5555555555555557
 40
0.5555555555555557
 40
0.5555555555555557
 40
0.5555555555555557
 40
0.6111111111111113
 40
0.6111111111111113
 40
0.6111111111111113
 40
0.6111111111111113
 40
0.6666666666666669
 40
0.6666666666666669
 40
0.6666666666666669
 40
0.6666666666666669
 40
0.7222222222222224
 40
0.7222222222222224
 40
0.7222222222222224
 40
0.7222222222222224
 40
0.777777777777778
 40
0.777777777777778
 40
0.777777777777778
 40
0.777777777777778
 40
0.8333333333333336
 40
0.8333333333333336
 40
0.8333333333333336
 40
0.8333333333333336
 40
0.8888888888888892
 40
0.8888888888888892
 40
0.8888888888888892
 40
0.8888888888888892
 40
0.9444444444444448
 40
0.9444444444444448
 40
0.9444444444444448
 40
0.9444444444444448
 40
1.0
 40
1.0
 40
1.0
 40
1.0
 10
-10.8859
 20
-14.73962
 30
0.0
 10
-10.89076
 20
-14.74213
 30
0.0
 10
-10.89584
 20
-14.74404
 30
0.0
 10
-10.90114
 20
-14.74533
 30
0.0
 10
-10.90114
 20
-14.74533
 30
0.0
 10
-10.9064
 20
-14.74662
 30
0.0
 10
-10.91193
 20
-14.74726
 30
0.0
 10
-10.91767
 20
-14.74726
 30
0.0
 10
-10.91767
 20
-14.74726
 30
0.0
 10
-10.93479
 20
-14.74726
 30
0.0
 10
-10.94836
 20
-14.74246
 30
0.0
 10
-10.95838
 20
-14.73289
 30
0.0
 10
-10.95838
 20
-14.73289
 30
0.0
 10
-10.9684
 20
-14.72332
 30
0.0
 10
-10.97341
 20
-14.71034
 30
0.0
 10
-10.97341
 20
-14.69392
 30
0.0
 10
-10.97341
 20
-14.69392
 30
0.0
 10
-10.97341
 20
-14.67748
 30
0.0
 10
-10.9684
 20
-14.66447
 30
0.0
 10
-10.95838
 20
-14.6549
 30
0.0
 10
-10.95838
 20
-14.6549
 30
0.0
 10
-10.94836
 20
-14.64533
 30
0.0
 10
-10.93479
 20
-14.64053
 30
0.0
 10
-10.91767
 20
-14.64053
 30
0.0
 10
-10.91767
 20
-14.64053
 30
0.0
 10
-10.91193
 20
-14.64053
 30
0.0
 10
-10.9064
 20
-14.64117
 30
0.0
 10
-10.90114
 20
-14.64246
 30
0.0
 10
-10.90114
 20
-14.64246
 30
0.0
 10
-10.89584
 20
-14.64375
 30
0.0
 10
-10.89076
 20
-14.64566
 30
0.0
 10
-10.8859
 20
-14.64818
 30
0.0
 10
-10.8859
 20
-14.64818
 30
0.0
 10
-10.8859
 20
-14.64818
 30
0.0
 10
-10.8859
 20
-14.66946
 30
0.0
 10
-10.8859
 20
-14.66946
 30
0.0
 10
-10.8859
 20
-14.66946
 30
0.0
 10
-10.89081
 20
-14.6661
 30
0.0
 10
-10.89566
 20
-14.66365
 30
0.0
 10
-10.90043
 20
-14.6621
 30
0.0
 10
-10.90043
 20
-14.6621
 30
0.0
 10
-10.9052
 20
-14.66052
 30
0.0
 10
-10.91024
 20
-14.65975
 30
0.0
 10
-10.91553
 20
-14.65975
 30
0.0
 10
-10.91553
 20
-14.65975
 30
0.0
 10
-10.92498
 20
-14.65975
 30
0.0
 10
-10.93244
 20
-14.66278
 30
0.0
 10
-10.93785
 20
-14.66885
 30
0.0
 10
-10.93785
 20
-14.66885
 30
0.0
 10
-10.94328
 20
-14.67492
 30
0.0
 10
-10.94599
 20
-14.68327
 30
0.0
 10
-10.94599
 20
-14.69392
 30
0.0
 10
-10.94599
 20
-14.69392
 30
0.0
 10
-10.94599
 20
-14.70455
 30
0.0
 10
-10.94328
 20
-14.71288
 30
0.0
 10
-10.93785
 20
-14.71894
 30
0.0
 10
-10.93785
 20
-14.71894
 30
0.0
 10
-10.93244
 20
-14.72501
 30
0.0
 10
-10.92498
 20
-14.72804
 30
0.0
 10
-10.91553
 20
-14.72804
 30
0.0
 10
-10.91553
 20
-14.72804
 30
0.0
 10
-10.91024
 20
-14.72804
 30
0.0
 10
-10.9052
 20
-14.72727
 30
0.0
 10
-10.90043
 20
-14.72569
 30
0.0
 10
-10.90043
 20
-14.72569
 30
0.0
 10
-10.89566
 20
-14.72414
 30
0.0
 10
-10.89081
 20
-14.72169
 30
0.0
 10
-10.8859
 20
-14.71833
 30
0.0
 10
-10.8859
 20
-14.71833
 30
0.0
 10
-10.8859
 20
-14.71833
 30
0.0
 10
-10.8859
 20
-14.73962
 30
0.0
 10
-10.8859
 20
-14.73962
 30
0.0
  0
SPLINE
  5
7C
330
1F
100
AcDbEntity
  8
Layer 1
 62
   250
100
AcDbSpline
210
0.0
220
0.0
230
1.0
 70
    11
 71
     3
 72
    20
 73
    16
 74
     0
 42
0.0000000001
 43
0.0000000001
 40
0.0
 40
0.0
 40
0.0
 40
0.0
 40
0.25
 40
0.25
 40
0.25
 40
0.25
 40
0.5
 40
0.5
 40
0.5
 40
0.5
 40
0.75
 40
0.75
 40
0.75
 40
0.75
 40
1.0
 40
1.0
 40
1.0
 40
1.0
 10
-10.86393
 20
-14.64239
 30
0.0
 10
-10.86393
 20
-14.64239
 30
0.0
 10
-10.8374
 20
-14.64239
 30
0.0
 10
-10.8374
 20
-14.64239
 30
0.0
 10
-10.8374
 20
-14.64239
 30
0.0
 10
-10.8374
 20
-14.64239
 30
0.0
 10
-10.8374
 20
-14.74526
 30
0.0
 10
-10.8374
 20
-14.74526
 30
0.0
 10
-10.8374
 20
-14.74526
 30
0.0
 10
-10.8374
 20
-14.74526
 30
0.0
 10
-10.86393
 20
-14.74526
 30
0.0
 10
-10.86393
 20
-14.74526
 30
0.0
 10
-10.86393
 20
-14.74526
 30
0.0
 10
-10.86393
 20
-14.74526
 30
0.0
 10
-10.86393
 20
-14.64239
 30
0.0
 10
-10.86393
 20
-14.64239
 30
0.0
  0
SPLINE
  5
7D
330
1F
100
AcDbEntity
  8
Layer 1
 62
   250
100
AcDbSpline
210
0.0
220
0.0
230
1.0
 70
    11
 71
     3
 72
    36
 73
    32
 74
     0
 42
0.0000000001
 43
0.0000000001
 40
0.0
 40
0.0
 40
0.0
 40
0.0
 40
0.125
 40
0.125
 40
0.125
 40
0.125
 40
0.25
 40
0.25
 40
0.25
 40
0.25
 40
0.375
 40
0.375
 40
0.375
 40
0.375
 40
0.5
 40
0.5
 40
0.5
 40
0.5
 40
0.625
 40
0.625
 40
0.625
 40
0.625
 40
0.75
 40
0.75
 40
0.75
 40
0.75
 40
0.875
 40
0.875
 40
0.875
 40
0.875
 40
1.0
 40
1.0
 40
1.0
 40
1.0
 10
-10.82372
 20
-14.64239
 30
0.0
 10
-10.82372
 20
-14.64239
 30
0.0
 10
-10.72892
 20
-14.64239
 30
0.0
 10
-10.72892
 20
-14.64239
 30
0.0
 10
-10.72892
 20
-14.64239
 30
0.0
 10
-10.72892
 20
-14.64239
 30
0.0
 10
-10.72892
 20
-14.66245
 30
0.0
 10
-10.72892
 20
-14.66245
 30
0.0
 10
-10.72892
 20
-14.66245
 30
0.0
 10
-10.72892
 20
-14.66245
 30
0.0
 10
-10.76302
 20
-14.66245
 30
0.0
 10
-10.76302
 20
-14.66245
 30
0.0
 10
-10.76302
 20
-14.66245
 30
0.0
 10
-10.76302
 20
-14.66245
 30
0.0
 10
-10.76302
 20
-14.74526
 30
0.0
 10
-10.76302
 20
-14.74526
 30
0.0
 10
-10.76302
 20
-14.74526
 30
0.0
 10
-10.76302
 20
-14.74526
 30
0.0
 10
-10.78955
 20
-14.74526
 30
0.0
 10
-10.78955
 20
-14.74526
 30
0.0
 10
-10.78955
 20
-14.74526
 30
0.0
 10
-10.78955
 20
-14.74526
 30
0.0
 10
-10.78955
 20
-14.66245
 30
0.0
 10
-10.78955
 20
-14.66245
 30
0.0
 10
-10.78955
 20
-14.66245
 30
0.0
 10
-10.78955
 20
-14.66245
 30
0.0
 10
-10.82372
 20
-14.66245
 30
0.0
 10
-10.82372
 20
-14.66245
 30
0.0
 10
-10.82372
 20
-14.66245
 30
0.0
 10
-10.82372
 20
-14.66245
 30
0.0
 10
-10.82372
 20
-14.64239
 30
0.0
 10
-10.82372
 20
-14.64239
 30
0.0
  0
SPLINE
  5
7E
330
1F
100
AcDbEntity
  8
Layer 1
 62
   250
100
AcDbSpline
210
0.0
220
0.0
230
1.0
 70
    11
 71
     3
 72
    36
 73
    32
 74
     0
 42
0.0000000001
 43
0.0000000001
 40
0.0
 40
0.0
 40
0.0
 40
0.0
 40
0.125
 40
0.125
 40
0.125
 40
0.125
 40
0.25
 40
0.25
 40
0.25
 40
0.25
 40
0.375
 40
0.375
 40
0.375
 40
0.375
 40
0.5
 40
0.5
 40
0.5
 40
0.5
 40
0.625
 40
0.625
 40
0.625
 40
0.625
 40
0.75
 40
0.75
 40
0.75
 40
0.75
 40
0.875
 40
0.875
 40
0.875
 40
0.875
 40
1.0
 40
1.0
 40
1.0
 40
1.0
 10
-10.66819
 20
-14.65975
 30
0.0
 10
-10.67628
 20
-14.65975
 30
0.0
 10
-10.68254
 20
-14.66273
 30
0.0
 10
-10.68701
 20
-14.66871
 30
0.0
 10
-10.68701
 20
-14.66871
 30
0.0
 10
-10.69145
 20
-14.67468
 30
0.0
 10
-10.69369
 20
-14.68308
 30
0.0
 10
-10.69369
 20
-14.69392
 30
0.0
 10
-10.69369
 20
-14.69392
 30
0.0
 10
-10.69369
 20
-14.70474
 30
0.0
 10
-10.69145
 20
-14.71311
 30
0.0
 10
-10.68701
 20
-14.71908
 30
0.0
 10
-10.68701
 20
-14.71908
 30
0.0
 10
-10.68254
 20
-14.72506
 30
0.0
 10
-10.67628
 20
-14.72804
 30
0.0
 10
-10.66819
 20
-14.72804
 30
0.0
 10
-10.66819
 20
-14.72804
 30
0.0
 10
-10.66005
 20
-14.72804
 30
0.0
 10
-10.65378
 20
-14.72506
 30
0.0
 10
-10.64931
 20
-14.71908
 30
0.0
 10
-10.64931
 20
-14.71908
 30
0.0
 10
-10.64486
 20
-14.71311
 30
0.0
 10
-10.64263
 20
-14.70474
 30
0.0
 10
-10.64263
 20
-14.69392
 30
0.0
 10
-10.64263
 20
-14.69392
 30
0.0
 10
-10.64263
 20
-14.68308
 30
0.0
 10
-10.64486
 20
-14.67468
 30
0.0
 10
-10.64931
 20
-14.66871
 30
0.0
 10
-10.64931
 20
-14.66871
 30
0.0
 10
-10.65378
 20
-14.66273
 30
0.0
 10
-10.66005
 20
-14.65975
 30
0.0
 10
-10.66819
 20
-14.65975
 30
0.0
  0
SPLINE
  5
7F
330
1F
100
AcDbEntity
  8
Layer 1
 62
   250
100
AcDbSpline
210
0.0
220
0.0
230
1.0
 70
    11
 71
     3
 72
    36
 73
    32
 74
     0
 42
0.0000000001
 43
0.0000000001
 40
0.0
 40
0.0
 40
0.0
 40
0.0
 40
0.125
 40
0.125
 40
0.125
 40
0.125
 40
0.25
 40
0.25
 40
0.25
 40
0.25
 40
0.375
 40
0.375
 40
0.375
 40
0.375
 40
0.5
 40
0.5
 40
0.5
 40
0.5
 40
0.625
 40
0.625
 40
0.625
 40
0.625
 40
0.75
 40
0.75
 40
0.75
 40
0.75
 40
0.875
 40
0.875
 40
0.875
 40
0.875
 40
1.0
 40
1.0
 40
1.0
 40
1.0
 10
-10.66819
 20
-14.64053
 30
0.0
 10
-10.65166
 20
-14.64053
 30
0.0
 10
-10.6387
 20
-14.64526
 30
0.0
 10
-10.62934
 20
-14.65474
 30
0.0
 10
-10.62934
 20
-14.65474
 30
0.0
 10
-10.61996
 20
-14.66419
 30
0.0
 10
-10.61528
 20
-14.67724
 30
0.0
 10
-10.61528
 20
-14.69392
 30
0.0
 10
-10.61528
 20
-14.69392
 30
0.0
 10
-10.61528
 20
-14.71055
 30
0.0
 10
-10.61996
 20
-14.7236
 30
0.0
 10
-10.62934
 20
-14.73305
 30
0.0
 10
-10.62934
 20
-14.73305
 30
0.0
 10
-10.6387
 20
-14.74253
 30
0.0
 10
-10.65166
 20
-14.74726
 30
0.0
 10
-10.66819
 20
-14.74726
 30
0.0
 10
-10.66819
 20
-14.74726
 30
0.0
 10
-10.68468
 20
-14.74726
 30
0.0
 10
-10.69761
 20
-14.74253
 30
0.0
 10
-10.70702
 20
-14.73305
 30
0.0
 10
-10.70702
 20
-14.73305
 30
0.0
 10
-10.7164
 20
-14.7236
 30
0.0
 10
-10.72111
 20
-14.71055
 30
0.0
 10
-10.72111
 20
-14.69392
 30
0.0
 10
-10.72111
 20
-14.69392
 30
0.0
 10
-10.72111
 20
-14.67724
 30
0.0
 10
-10.7164
 20
-14.66419
 30
0.0
 10
-10.70702
 20
-14.65474
 30
0.0
 10
-10.70702
 20
-14.65474
 30
0.0
 10
-10.69761
 20
-14.64526
 30
0.0
 10
-10.68468
 20
-14.64053
 30
0.0
 10
-10.66819
 20
-14.64053
 30
0.0
  0
SPLINE
  5
80
330
1F
100
AcDbEntity
  8
Layer 1
 62
   250
100
AcDbSpline
210
0.0
220
0.0
230
1.0
 70
    11
 71
     3
 72
    32
 73
    28
 74
     0
 42
0.0000000001
 43
0.0000000001
 40
0.0
 40
0.0
 40
0.0
 40
0.0
 40
0.1428571428571428
 40
0.1428571428571428
 40
0.1428571428571428
 40
0.1428571428571428
 40
0.2857142857142857
 40
0.2857142857142857
 40
0.2857142857142857
 40
0.2857142857142857
 40
0.4285714285714285
 40
0.4285714285714285
 40
0.4285714285714285
 40
0.4285714285714285
 40
0.5714285714285714
 40
0.5714285714285714
 40
0.5714285714285714
 40
0.5714285714285714
 40
0.7142857142857142
 40
0.7142857142857142
 40
0.7142857142857142
 40
0.7142857142857142
 40
0.857142857142857
 40
0.857142857142857
 40
0.857142857142857
 40
0.857142857142857
 40
1.0
 40
1.0
 40
1.0
 40
1.0
 10
-10.55751
 20
-14.68802
 30
0.0
 10
-10.55196
 20
-14.68802
 30
0.0
 10
-10.54796
 20
-14.68698
 30
0.0
 10
-10.54556
 20
-14.68491
 30
0.0
 10
-10.54556
 20
-14.68491
 30
0.0
 10
-10.54314
 20
-14.68284
 30
0.0
 10
-10.54194
 20
-14.67943
 30
0.0
 10
-10.54194
 20
-14.6747
 30
0.0
 10
-10.54194
 20
-14.6747
 30
0.0
 10
-10.54194
 20
-14.67002
 30
0.0
 10
-10.54314
 20
-14.66666
 30
0.0
 10
-10.54556
 20
-14.66464
 30
0.0
 10
-10.54556
 20
-14.66464
 30
0.0
 10
-10.54796
 20
-14.66262
 30
0.0
 10
-10.55196
 20
-14.66161
 30
0.0
 10
-10.55751
 20
-14.66161
 30
0.0
 10
-10.55751
 20
-14.66161
 30
0.0
 10
-10.55751
 20
-14.66161
 30
0.0
 10
-10.56868
 20
-14.66161
 30
0.0
 10
-10.56868
 20
-14.66161
 30
0.0
 10
-10.56868
 20
-14.66161
 30
0.0
 10
-10.56868
 20
-14.66161
 30
0.0
 10
-10.56868
 20
-14.68802
 30
0.0
 10
-10.56868
 20
-14.68802
 30
0.0
 10
-10.56868
 20
-14.68802
 30
0.0
 10
-10.56868
 20
-14.68802
 30
0.0
 10
-10.55751
 20
-14.68802
 30
0.0
 10
-10.55751
 20
-14.68802
 30
0.0
  0
SPLINE
  5
81
330
1F
100
AcDbEntity
  8
Layer 1
 62
   250
100
AcDbSpline
210
0.0
220
0.0
230
1.0
 70
    11
 71
     3
 72
    68
 73
    64
 74
     0
 42
0.0000000001
 43
0.0000000001
 40
0.0
 40
0.0
 40
0.0
 40
0.0
 40
0.0625
 40
0.0625
 40
0.0625
 40
0.0625
 40
0.125
 40
0.125
 40
0.125
 40
0.125
 40
0.1875
 40
0.1875
 40
0.1875
 40
0.1875
 40
0.25
 40
0.25
 40
0.25
 40
0.25
 40
0.3125
 40
0.3125
 40
0.3125
 40
0.3125
 40
0.375
 40
0.375
 40
0.375
 40
0.375
 40
0.4375
 40
0.4375
 40
0.4375
 40
0.4375
 40
0.5
 40
0.5
 40
0.5
 40
0.5
 40
0.5625
 40
0.5625
 40
0.5625
 40
0.5625
 40
0.625
 40
0.625
 40
0.625
 40
0.625
 40
0.6875
 40
0.6875
 40
0.6875
 40
0.6875
 40
0.75
 40
0.75
 40
0.75
 40
0.75
 40
0.8125
 40
0.8125
 40
0.8125
 40
0.8125
 40
0.875
 40
0.875
 40
0.875
 40
0.875
 40
0.9375
 40
0.9375
 40
0.9375
 40
0.9375
 40
1.0
 40
1.0
 40
1.0
 40
1.0
 10
-10.56868
 20
-14.70634
 30
0.0
 10
-10.56868
 20
-14.70634
 30
0.0
 10
-10.56868
 20
-14.74526
 30
0.0
 10
-10.56868
 20
-14.74526
 30
0.0
 10
-10.56868
 20
-14.74526
 30
0.0
 10
-10.56868
 20
-14.74526
 30
0.0
 10
-10.59521
 20
-14.74526
 30
0.0
 10
-10.59521
 20
-14.74526
 30
0.0
 10
-10.59521
 20
-14.74526
 30
0.0
 10
-10.59521
 20
-14.74526
 30
0.0
 10
-10.59521
 20
-14.64239
 30
0.0
 10
-10.59521
 20
-14.64239
 30
0.0
 10
-10.59521
 20
-14.64239
 30
0.0
 10
-10.59521
 20
-14.64239
 30
0.0
 10
-10.55469
 20
-14.64239
 30
0.0
 10
-10.55469
 20
-14.64239
 30
0.0
 10
-10.55469
 20
-14.64239
 30
0.0
 10
-10.54114
 20
-14.64239
 30
0.0
 10
-10.53119
 20
-14.64467
 30
0.0
 10
-10.52489
 20
-14.64921
 30
0.0
 10
-10.52489
 20
-14.64921
 30
0.0
 10
-10.51857
 20
-14.65375
 30
0.0
 10
-10.51541
 20
-14.66095
 30
0.0
 10
-10.51541
 20
-14.67078
 30
0.0
 10
-10.51541
 20
-14.67078
 30
0.0
 10
-10.51541
 20
-14.67757
 30
0.0
 10
-10.51706
 20
-14.68317
 30
0.0
 10
-10.52033
 20
-14.68752
 30
0.0
 10
-10.52033
 20
-14.68752
 30
0.0
 10
-10.52362
 20
-14.6919
 30
0.0
 10
-10.52858
 20
-14.69512
 30
0.0
 10
-10.53519
 20
-14.69717
 30
0.0
 10
-10.53519
 20
-14.69717
 30
0.0
 10
-10.53157
 20
-14.69801
 30
0.0
 10
-10.5283
 20
-14.69987
 30
0.0
 10
-10.52543
 20
-14.70279
 30
0.0
 10
-10.52543
 20
-14.70279
 30
0.0
 10
-10.52256
 20
-14.7057
 30
0.0
 10
-10.51967
 20
-14.71012
 30
0.0
 10
-10.51673
 20
-14.71605
 30
0.0
 10
-10.51673
 20
-14.71605
 30
0.0
 10
-10.51673
 20
-14.71605
 30
0.0
 10
-10.50231
 20
-14.74526
 30
0.0
 10
-10.50231
 20
-14.74526
 30
0.0
 10
-10.50231
 20
-14.74526
 30
0.0
 10
-10.50231
 20
-14.74526
 30
0.0
 10
-10.53058
 20
-14.74526
 30
0.0
 10
-10.53058
 20
-14.74526
 30
0.0
 10
-10.53058
 20
-14.74526
 30
0.0
 10
-10.53058
 20
-14.74526
 30
0.0
 10
-10.54312
 20
-14.7197
 30
0.0
 10
-10.54312
 20
-14.7197
 30
0.0
 10
-10.54312
 20
-14.7197
 30
0.0
 10
-10.54563
 20
-14.71457
 30
0.0
 10
-10.5482
 20
-14.71104
 30
0.0
 10
-10.55081
 20
-14.70916
 30
0.0
 10
-10.55081
 20
-14.70916
 30
0.0
 10
-10.5534
 20
-14.70728
 30
0.0
 10
-10.55685
 20
-14.70634
 30
0.0
 10
-10.56118
 20
-14.70634
 30
0.0
 10
-10.56118
 20
-14.70634
 30
0.0
 10
-10.56118
 20
-14.70634
 30
0.0
 10
-10.56868
 20
-14.70634
 30
0.0
 10
-10.56868
 20
-14.70634
 30
0.0
  0
SPLINE
  5
82
330
1F
100
AcDbEntity
  8
Layer 1
 62
   250
100
AcDbSpline
210
0.0
220
0.0
230
1.0
 70
    11
 71
     3
 72
    44
 73
    40
 74
     0
 42
0.0000000001
 43
0.0000000001
 40
0.0
 40
0.0
 40
0.0
 40
0.0
 40
0.1
 40
0.1
 40
0.1
 40
0.1
 40
0.2
 40
0.2
 40
0.2
 40
0.2
 40
0.3
 40
0.3
 40
0.3
 40
0.3
 40
0.4
 40
0.4
 40
0.4
 40
0.4
 40
0.5
 40
0.5
 40
0.5
 40
0.5
 40
0.6
 40
0.6
 40
0.6
 40
0.6
 40
0.7
 40
0.7
 40
0.7
 40
0.7
 40
0.7999999999999999
 40
0.7999999999999999
 40
0.7999999999999999
 40
0.7999999999999999
 40
0.8999999999999999
 40
0.8999999999999999
 40
0.8999999999999999
 40
0.8999999999999999
 40
1.0
 40
1.0
 40
1.0
 40
1.0
 10
-10.39719
 20
-14.76386
 30
0.0
 10
-10.39719
 20
-14.76386
 30
0.0
 10
-10.41765
 20
-14.76386
 30
0.0
 10
-10.41765
 20
-14.76386
 30
0.0
 10
-10.41765
 20
-14.76386
 30
0.0
 10
-10.42468
 20
-14.75253
 30
0.0
 10
-10.42988
 20
-14.74173
 30
0.0
 10
-10.43322
 20
-14.7315
 30
0.0
 10
-10.43322
 20
-14.7315
 30
0.0
 10
-10.43658
 20
-14.72129
 30
0.0
 10
-10.43825
 20
-14.71116
 30
0.0
 10
-10.43825
 20
-14.70109
 30
0.0
 10
-10.43825
 20
-14.70109
 30
0.0
 10
-10.43825
 20
-14.69103
 30
0.0
 10
-10.43656
 20
-14.68084
 30
0.0
 10
-10.4332
 20
-14.67054
 30
0.0
 10
-10.4332
 20
-14.67054
 30
0.0
 10
-10.42981
 20
-14.66022
 30
0.0
 10
-10.42464
 20
-14.64945
 30
0.0
 10
-10.41765
 20
-14.63818
 30
0.0
 10
-10.41765
 20
-14.63818
 30
0.0
 10
-10.41765
 20
-14.63818
 30
0.0
 10
-10.39719
 20
-14.63818
 30
0.0
 10
-10.39719
 20
-14.63818
 30
0.0
 10
-10.39719
 20
-14.63818
 30
0.0
 10
-10.40307
 20
-14.64907
 30
0.0
 10
-10.40747
 20
-14.65972
 30
0.0
 10
-10.41041
 20
-14.67012
 30
0.0
 10
-10.41041
 20
-14.67012
 30
0.0
 10
-10.41335
 20
-14.68051
 30
0.0
 10
-10.41483
 20
-14.69079
 30
0.0
 10
-10.41483
 20
-14.70095
 30
0.0
 10
-10.41483
 20
-14.70095
 30
0.0
 10
-10.41483
 20
-14.71111
 30
0.0
 10
-10.41337
 20
-14.72139
 30
0.0
 10
-10.41046
 20
-14.73183
 30
0.0
 10
-10.41046
 20
-14.73183
 30
0.0
 10
-10.40754
 20
-14.74225
 30
0.0
 10
-10.40312
 20
-14.75293
 30
0.0
 10
-10.39719
 20
-14.76386
 30
0.0
  0
SPLINE
  5
83
330
1F
100
AcDbEntity
  8
Layer 1
 62
   250
100
AcDbSpline
210
0.0
220
0.0
230
1.0
 70
    11
 71
     3
 72
    76
 73
    72
 74
     0
 42
0.0000000001
 43
0.0000000001
 40
0.0
 40
0.0
 40
0.0
 40
0.0
 40
0.0555555555555556
 40
0.0555555555555556
 40
0.0555555555555556
 40
0.0555555555555556
 40
0.1111111111111111
 40
0.1111111111111111
 40
0.1111111111111111
 40
0.1111111111111111
 40
0.1666666666666667
 40
0.1666666666666667
 40
0.1666666666666667
 40
0.1666666666666667
 40
0.2222222222222222
 40
0.2222222222222222
 40
0.2222222222222222
 40
0.2222222222222222
 40
0.2777777777777778
 40
0.2777777777777778
 40
0.2777777777777778
 40
0.2777777777777778
 40
0.3333333333333334
 40
0.3333333333333334
 40
0.3333333333333334
 40
0.3333333333333334
 40
0.388888888888889
 40
0.388888888888889
 40
0.388888888888889
 40
0.388888888888889
 40
0.4444444444444445
 40
0.4444444444444445
 40
0.4444444444444445
 40
0.4444444444444445
 40
0.5000000000000001
 40
0.5000000000000001
 40
0.5000000000000001
 40
0.5000000000000001
 40
0.5555555555555557
 40
0.5555555555555557
 40
0.5555555555555557
 40
0.5555555555555557
 40
0.6111111111111113
 40
0.6111111111111113
 40
0.6111111111111113
 40
0.6111111111111113
 40
0.6666666666666669
 40
0.6666666666666669
 40
0.6666666666666669
 40
0.6666666666666669
 40
0.7222222222222224
 40
0.7222222222222224
 40
0.7222222222222224
 40
0.7222222222222224
 40
0.777777777777778
 40
0.777777777777778
 40
0.777777777777778
 40
0.777777777777778
 40
0.8333333333333336
 40
0.8333333333333336
 40
0.8333333333333336
 40
0.8333333333333336
 40
0.8888888888888892
 40
0.8888888888888892
 40
0.8888888888888892
 40
0.8888888888888892
 40
0.9444444444444448
 40
0.9444444444444448
 40
0.9444444444444448
 40
0.9444444444444448
 40
1.0
 40
1.0
 40
1.0
 40
1.0
 10
-10.29136
 20
-14.73962
 30
0.0
 10
-10.29622
 20
-14.74213
 30
0.0
 10
-10.3013
 20
-14.74404
 30
0.0
 10
-10.3066
 20
-14.74533
 30
0.0
 10
-10.3066
 20
-14.74533
 30
0.0
 10
-10.31186
 20
-14.74662
 30
0.0
 10
-10.31739
 20
-14.74726
 30
0.0
 10
-10.32313
 20
-14.74726
 30
0.0
 10
-10.32313
 20
-14.74726
 30
0.0
 10
-10.34025
 20
-14.74726
 30
0.0
 10
-10.35382
 20
-14.74246
 30
0.0
 10
-10.36384
 20
-14.73289
 30
0.0
 10
-10.36384
 20
-14.73289
 30
0.0
 10
-10.37386
 20
-14.72332
 30
0.0
 10
-10.37887
 20
-14.71034
 30
0.0
 10
-10.37887
 20
-14.69392
 30
0.0
 10
-10.37887
 20
-14.69392
 30
0.0
 10
-10.37887
 20
-14.67748
 30
0.0
 10
-10.37386
 20
-14.66447
 30
0.0
 10
-10.36384
 20
-14.6549
 30
0.0
 10
-10.36384
 20
-14.6549
 30
0.0
 10
-10.35382
 20
-14.64533
 30
0.0
 10
-10.34025
 20
-14.64053
 30
0.0
 10
-10.32313
 20
-14.64053
 30
0.0
 10
-10.32313
 20
-14.64053
 30
0.0
 10
-10.31739
 20
-14.64053
 30
0.0
 10
-10.31186
 20
-14.64117
 30
0.0
 10
-10.3066
 20
-14.64246
 30
0.0
 10
-10.3066
 20
-14.64246
 30
0.0
 10
-10.3013
 20
-14.64375
 30
0.0
 10
-10.29622
 20
-14.64566
 30
0.0
 10
-10.29136
 20
-14.64818
 30
0.0
 10
-10.29136
 20
-14.64818
 30
0.0
 10
-10.29136
 20
-14.64818
 30
0.0
 10
-10.29136
 20
-14.66946
 30
0.0
 10
-10.29136
 20
-14.66946
 30
0.0
 10
-10.29136
 20
-14.66946
 30
0.0
 10
-10.29627
 20
-14.6661
 30
0.0
 10
-10.30112
 20
-14.66365
 30
0.0
 10
-10.30589
 20
-14.6621
 30
0.0
 10
-10.30589
 20
-14.6621
 30
0.0
 10
-10.31066
 20
-14.66052
 30
0.0
 10
-10.3157
 20
-14.65975
 30
0.0
 10
-10.32099
 20
-14.65975
 30
0.0
 10
-10.32099
 20
-14.65975
 30
0.0
 10
-10.33044
 20
-14.65975
 30
0.0
 10
-10.3379
 20
-14.66278
 30
0.0
 10
-10.34331
 20
-14.66885
 30
0.0
 10
-10.34331
 20
-14.66885
 30
0.0
 10
-10.34874
 20
-14.67492
 30
0.0
 10
-10.35145
 20
-14.68327
 30
0.0
 10
-10.35145
 20
-14.69392
 30
0.0
 10
-10.35145
 20
-14.69392
 30
0.0
 10
-10.35145
 20
-14.70455
 30
0.0
 10
-10.34874
 20
-14.71288
 30
0.0
 10
-10.34331
 20
-14.71894
 30
0.0
 10
-10.34331
 20
-14.71894
 30
0.0
 10
-10.3379
 20
-14.72501
 30
0.0
 10
-10.33044
 20
-14.72804
 30
0.0
 10
-10.32099
 20
-14.72804
 30
0.0
 10
-10.32099
 20
-14.72804
 30
0.0
 10
-10.3157
 20
-14.72804
 30
0.0
 10
-10.31066
 20
-14.72727
 30
0.0
 10
-10.30589
 20
-14.72569
 30
0.0
 10
-10.30589
 20
-14.72569
 30
0.0
 10
-10.30112
 20
-14.72414
 30
0.0
 10
-10.29627
 20
-14.72169
 30
0.0
 10
-10.29136
 20
-14.71833
 30
0.0
 10
-10.29136
 20
-14.71833
 30
0.0
 10
-10.29136
 20
-14.71833
 30
0.0
 10
-10.29136
 20
-14.73962
 30
0.0
 10
-10.29136
 20
-14.73962
 30
0.0
  0
SPLINE
  5
84
330
1F
100
AcDbEntity
  8
Layer 1
 62
   250
100
AcDbSpline
210
0.0
220
0.0
230
1.0
 70
    11
 71
     3
 72
    52
 73
    48
 74
     0
 42
0.0000000001
 43
0.0000000001
 40
0.0
 40
0.0
 40
0.0
 40
0.0
 40
0.0833333333333333
 40
0.0833333333333333
 40
0.0833333333333333
 40
0.0833333333333333
 40
0.1666666666666667
 40
0.1666666666666667
 40
0.1666666666666667
 40
0.1666666666666667
 40
0.25
 40
0.25
 40
0.25
 40
0.25
 40
0.3333333333333333
 40
0.3333333333333333
 40
0.3333333333333333
 40
0.3333333333333333
 40
0.4166666666666666
 40
0.4166666666666666
 40
0.4166666666666666
 40
0.4166666666666666
 40
0.4999999999999999
 40
0.4999999999999999
 40
0.4999999999999999
 40
0.4999999999999999
 40
0.5833333333333333
 40
0.5833333333333333
 40
0.5833333333333333
 40
0.5833333333333333
 40
0.6666666666666666
 40
0.6666666666666666
 40
0.6666666666666666
 40
0.6666666666666666
 40
0.75
 40
0.75
 40
0.75
 40
0.75
 40
0.8333333333333334
 40
0.8333333333333334
 40
0.8333333333333334
 40
0.8333333333333334
 40
0.9166666666666667
 40
0.9166666666666667
 40
0.9166666666666667
 40
0.9166666666666667
 40
1.0
 40
1.0
 40
1.0
 40
1.0
 10
-10.26939
 20
-14.64239
 30
0.0
 10
-10.26939
 20
-14.64239
 30
0.0
 10
-10.1978
 20
-14.64239
 30
0.0
 10
-10.1978
 20
-14.64239
 30
0.0
 10
-10.1978
 20
-14.64239
 30
0.0
 10
-10.1978
 20
-14.64239
 30
0.0
 10
-10.1978
 20
-14.66245
 30
0.0
 10
-10.1978
 20
-14.66245
 30
0.0
 10
-10.1978
 20
-14.66245
 30
0.0
 10
-10.1978
 20
-14.66245
 30
0.0
 10
-10.24286
 20
-14.66245
 30
0.0
 10
-10.24286
 20
-14.66245
 30
0.0
 10
-10.24286
 20
-14.66245
 30
0.0
 10
-10.24286
 20
-14.66245
 30
0.0
 10
-10.24286
 20
-14.6816
 30
0.0
 10
-10.24286
 20
-14.6816
 30
0.0
 10
-10.24286
 20
-14.6816
 30
0.0
 10
-10.24286
 20
-14.6816
 30
0.0
 10
-10.20051
 20
-14.6816
 30
0.0
 10
-10.20051
 20
-14.6816
 30
0.0
 10
-10.20051
 20
-14.6816
 30
0.0
 10
-10.20051
 20
-14.6816
 30
0.0
 10
-10.20051
 20
-14.70166
 30
0.0
 10
-10.20051
 20
-14.70166
 30
0.0
 10
-10.20051
 20
-14.70166
 30
0.0
 10
-10.20051
 20
-14.70166
 30
0.0
 10
-10.24286
 20
-14.70166
 30
0.0
 10
-10.24286
 20
-14.70166
 30
0.0
 10
-10.24286
 20
-14.70166
 30
0.0
 10
-10.24286
 20
-14.70166
 30
0.0
 10
-10.24286
 20
-14.7252
 30
0.0
 10
-10.24286
 20
-14.7252
 30
0.0
 10
-10.24286
 20
-14.7252
 30
0.0
 10
-10.24286
 20
-14.7252
 30
0.0
 10
-10.1963
 20
-14.7252
 30
0.0
 10
-10.1963
 20
-14.7252
 30
0.0
 10
-10.1963
 20
-14.7252
 30
0.0
 10
-10.1963
 20
-14.7252
 30
0.0
 10
-10.1963
 20
-14.74526
 30
0.0
 10
-10.1963
 20
-14.74526
 30
0.0
 10
-10.1963
 20
-14.74526
 30
0.0
 10
-10.1963
 20
-14.74526
 30
0.0
 10
-10.26939
 20
-14.74526
 30
0.0
 10
-10.26939
 20
-14.74526
 30
0.0
 10
-10.26939
 20
-14.74526
 30
0.0
 10
-10.26939
 20
-14.74526
 30
0.0
 10
-10.26939
 20
-14.64239
 30
0.0
 10
-10.26939
 20
-14.64239
 30
0.0
  0
SPLINE
  5
85
330
1F
100
AcDbEntity
  8
Layer 1
 62
   250
100
AcDbSpline
210
0.0
220
0.0
230
1.0
 70
    11
 71
     3
 72
    32
 73
    28
 74
     0
 42
0.0000000001
 43
0.0000000001
 40
0.0
 40
0.0
 40
0.0
 40
0.0
 40
0.1428571428571428
 40
0.1428571428571428
 40
0.1428571428571428
 40
0.1428571428571428
 40
0.2857142857142857
 40
0.2857142857142857
 40
0.2857142857142857
 40
0.2857142857142857
 40
0.4285714285714285
 40
0.4285714285714285
 40
0.4285714285714285
 40
0.4285714285714285
 40
0.5714285714285714
 40
0.5714285714285714
 40
0.5714285714285714
 40
0.5714285714285714
 40
0.7142857142857142
 40
0.7142857142857142
 40
0.7142857142857142
 40
0.7142857142857142
 40
0.857142857142857
 40
0.857142857142857
 40
0.857142857142857
 40
0.857142857142857
 40
1.0
 40
1.0
 40
1.0
 40
1.0
 10
-10.13529
 20
-14.68802
 30
0.0
 10
-10.12974
 20
-14.68802
 30
0.0
 10
-10.12574
 20
-14.68698
 30
0.0
 10
-10.12334
 20
-14.68491
 30
0.0
 10
-10.12334
 20
-14.68491
 30
0.0
 10
-10.12092
 20
-14.68284
 30
0.0
 10
-10.11972
 20
-14.67943
 30
0.0
 10
-10.11972
 20
-14.6747
 30
0.0
 10
-10.11972
 20
-14.6747
 30
0.0
 10
-10.11972
 20
-14.67002
 30
0.0
 10
-10.12092
 20
-14.66666
 30
0.0
 10
-10.12334
 20
-14.66464
 30
0.0
 10
-10.12334
 20
-14.66464
 30
0.0
 10
-10.12574
 20
-14.66262
 30
0.0
 10
-10.12974
 20
-14.66161
 30
0.0
 10
-10.13529
 20
-14.66161
 30
0.0
 10
-10.13529
 20
-14.66161
 30
0.0
 10
-10.13529
 20
-14.66161
 30
0.0
 10
-10.14646
 20
-14.66161
 30
0.0
 10
-10.14646
 20
-14.66161
 30
0.0
 10
-10.14646
 20
-14.66161
 30
0.0
 10
-10.14646
 20
-14.66161
 30
0.0
 10
-10.14646
 20
-14.68802
 30
0.0
 10
-10.14646
 20
-14.68802
 30
0.0
 10
-10.14646
 20
-14.68802
 30
0.0
 10
-10.14646
 20
-14.68802
 30
0.0
 10
-10.13529
 20
-14.68802
 30
0.0
 10
-10.13529
 20
-14.68802
 30
0.0
  0
SPLINE
  5
86
330
1F
100
AcDbEntity
  8
Layer 1
 62
   250
100
AcDbSpline
210
0.0
220
0.0
230
1.0
 70
    11
 71
     3
 72
    68
 73
    64
 74
     0
 42
0.0000000001
 43
0.0000000001
 40
0.0
 40
0.0
 40
0.0
 40
0.0
 40
0.0625
 40
0.0625
 40
0.0625
 40
0.0625
 40
0.125
 40
0.125
 40
0.125
 40
0.125
 40
0.1875
 40
0.1875
 40
0.1875
 40
0.1875
 40
0.25
 40
0.25
 40
0.25
 40
0.25
 40
0.3125
 40
0.3125
 40
0.3125
 40
0.3125
 40
0.375
 40
0.375
 40
0.375
 40
0.375
 40
0.4375
 40
0.4375
 40
0.4375
 40
0.4375
 40
0.5
 40
0.5
 40
0.5
 40
0.5
 40
0.5625
 40
0.5625
 40
0.5625
 40
0.5625
 40
0.625
 40
0.625
 40
0.625
 40
0.625
 40
0.6875
 40
0.6875
 40
0.6875
 40
0.6875
 40
0.75
 40
0.75
 40
0.75
 40
0.75
 40
0.8125
 40
0.8125
 40
0.8125
 40
0.8125
 40
0.875
 40
0.875
 40
0.875
 40
0.875
 40
0.9375
 40
0.9375
 40
0.9375
 40
0.9375
 40
1.0
 40
1.0
 40
1.0
 40
1.0
 10
-10.14646
 20
-14.70634
 30
0.0
 10
-10.14646
 20
-14.70634
 30
0.0
 10
-10.14646
 20
-14.74526
 30
0.0
 10
-10.14646
 20
-14.74526
 30
0.0
 10
-10.14646
 20
-14.74526
 30
0.0
 10
-10.14646
 20
-14.74526
 30
0.0
 10
-10.17299
 20
-14.74526
 30
0.0
 10
-10.17299
 20
-14.74526
 30
0.0
 10
-10.17299
 20
-14.74526
 30
0.0
 10
-10.17299
 20
-14.74526
 30
0.0
 10
-10.17299
 20
-14.64239
 30
0.0
 10
-10.17299
 20
-14.64239
 30
0.0
 10
-10.17299
 20
-14.64239
 30
0.0
 10
-10.17299
 20
-14.64239
 30
0.0
 10
-10.13247
 20
-14.64239
 30
0.0
 10
-10.13247
 20
-14.64239
 30
0.0
 10
-10.13247
 20
-14.64239
 30
0.0
 10
-10.11892
 20
-14.64239
 30
0.0
 10
-10.10897
 20
-14.64467
 30
0.0
 10
-10.10267
 20
-14.64921
 30
0.0
 10
-10.10267
 20
-14.64921
 30
0.0
 10
-10.09635
 20
-14.65375
 30
0.0
 10
-10.09319
 20
-14.66095
 30
0.0
 10
-10.09319
 20
-14.67078
 30
0.0
 10
-10.09319
 20
-14.67078
 30
0.0
 10
-10.09319
 20
-14.67757
 30
0.0
 10
-10.09484
 20
-14.68317
 30
0.0
 10
-10.09811
 20
-14.68752
 30
0.0
 10
-10.09811
 20
-14.68752
 30
0.0
 10
-10.1014
 20
-14.6919
 30
0.0
 10
-10.10636
 20
-14.69512
 30
0.0
 10
-10.11297
 20
-14.69717
 30
0.0
 10
-10.11297
 20
-14.69717
 30
0.0
 10
-10.10935
 20
-14.69801
 30
0.0
 10
-10.10608
 20
-14.69987
 30
0.0
 10
-10.10321
 20
-14.70279
 30
0.0
 10
-10.10321
 20
-14.70279
 30
0.0
 10
-10.10034
 20
-14.7057
 30
0.0
 10
-10.09745
 20
-14.71012
 30
0.0
 10
-10.09451
 20
-14.71605
 30
0.0
 10
-10.09451
 20
-14.71605
 30
0.0
 10
-10.09451
 20
-14.71605
 30
0.0
 10
-10.08009
 20
-14.74526
 30
0.0
 10
-10.08009
 20
-14.74526
 30
0.0
 10
-10.08009
 20
-14.74526
 30
0.0
 10
-10.08009
 20
-14.74526
 30
0.0
 10
-10.10836
 20
-14.74526
 30
0.0
 10
-10.10836
 20
-14.74526
 30
0.0
 10
-10.10836
 20
-14.74526
 30
0.0
 10
-10.10836
 20
-14.74526
 30
0.0
 10
-10.1209
 20
-14.7197
 30
0.0
 10
-10.1209
 20
-14.7197
 30
0.0
 10
-10.1209
 20
-14.7197
 30
0.0
 10
-10.12341
 20
-14.71457
 30
0.0
 10
-10.12598
 20
-14.71104
 30
0.0
 10
-10.12859
 20
-14.70916
 30
0.0
 10
-10.12859
 20
-14.70916
 30
0.0
 10
-10.13118
 20
-14.70728
 30
0.0
 10
-10.13463
 20
-14.70634
 30
0.0
 10
-10.13896
 20
-14.70634
 30
0.0
 10
-10.13896
 20
-14.70634
 30
0.0
 10
-10.13896
 20
-14.70634
 30
0.0
 10
-10.14646
 20
-14.70634
 30
0.0
 10
-10.14646
 20
-14.70634
 30
0.0
  0
SPLINE
  5
87
330
1F
100
AcDbEntity
  8
Layer 1
 62
   250
100
AcDbSpline
210
0.0
220
0.0
230
1.0
 70
    11
 71
     3
 72
    36
 73
    32
 74
     0
 42
0.0000000001
 43
0.0000000001
 40
0.0
 40
0.0
 40
0.0
 40
0.0
 40
0.125
 40
0.125
 40
0.125
 40
0.125
 40
0.25
 40
0.25
 40
0.25
 40
0.25
 40
0.375
 40
0.375
 40
0.375
 40
0.375
 40
0.5
 40
0.5
 40
0.5
 40
0.5
 40
0.625
 40
0.625
 40
0.625
 40
0.625
 40
0.75
 40
0.75
 40
0.75
 40
0.75
 40
0.875
 40
0.875
 40
0.875
 40
0.875
 40
1.0
 40
1.0
 40
1.0
 40
1.0
 10
-10.00192
 20
-14.72654
 30
0.0
 10
-10.00192
 20
-14.72654
 30
0.0
 10
-10.04341
 20
-14.72654
 30
0.0
 10
-10.04341
 20
-14.72654
 30
0.0
 10
-10.04341
 20
-14.72654
 30
0.0
 10
-10.04341
 20
-14.72654
 30
0.0
 10
-10.04995
 20
-14.74526
 30
0.0
 10
-10.04995
 20
-14.74526
 30
0.0
 10
-10.04995
 20
-14.74526
 30
0.0
 10
-10.04995
 20
-14.74526
 30
0.0
 10
-10.07662
 20
-14.74526
 30
0.0
 10
-10.07662
 20
-14.74526
 30
0.0
 10
-10.07662
 20
-14.74526
 30
0.0
 10
-10.07662
 20
-14.74526
 30
0.0
 10
-10.03852
 20
-14.64239
 30
0.0
 10
-10.03852
 20
-14.64239
 30
0.0
 10
-10.03852
 20
-14.64239
 30
0.0
 10
-10.03852
 20
-14.64239
 30
0.0
 10
-10.00689
 20
-14.64239
 30
0.0
 10
-10.00689
 20
-14.64239
 30
0.0
 10
-10.00689
 20
-14.64239
 30
0.0
 10
-10.00689
 20
-14.64239
 30
0.0
 10
-9.96879
 20
-14.74526
 30
0.0
 10
-9.96879
 20
-14.74526
 30
0.0
 10
-9.96879
 20
-14.74526
 30
0.0
 10
-9.96879
 20
-14.74526
 30
0.0
 10
-9.99546
 20
-14.74526
 30
0.0
 10
-9.99546
 20
-14.74526
 30
0.0
 10
-9.99546
 20
-14.74526
 30
0.0
 10
-9.99546
 20
-14.74526
 30
0.0
 10
-10.00192
 20
-14.72654
 30
0.0
 10
-10.00192
 20
-14.72654
 30
0.0
  0
SPLINE
  5
88
330
1F
100
AcDbEntity
  8
Layer 1
 62
   250
100
AcDbSpline
210
0.0
220
0.0
230
1.0
 70
    11
 71
     3
 72
    16
 73
    12
 74
     0
 42
0.0000000001
 43
0.0000000001
 40
0.0
 40
0.0
 40
0.0
 40
0.0
 40
0.3333333333333333
 40
0.3333333333333333
 40
0.3333333333333333
 40
0.3333333333333333
 40
0.6666666666666666
 40
0.6666666666666666
 40
0.6666666666666666
 40
0.6666666666666666
 40
1.0
 40
1.0
 40
1.0
 40
1.0
 10
-10.0368
 20
-14.70744
 30
0.0
 10
-10.0368
 20
-14.70744
 30
0.0
 10
-10.0086
 20
-14.70744
 30
0.0
 10
-10.0086
 20
-14.70744
 30
0.0
 10
-10.0086
 20
-14.70744
 30
0.0
 10
-10.0086
 20
-14.70744
 30
0.0
 10
-10.02267
 20
-14.66652
 30
0.0
 10
-10.02267
 20
-14.66652
 30
0.0
 10
-10.02267
 20
-14.66652
 30
0.0
 10
-10.02267
 20
-14.66652
 30
0.0
 10
-10.0368
 20
-14.70744
 30
0.0
 10
-10.0368
 20
-14.70744
 30
0.0
  0
SPLINE
  5
89
330
1F
100
AcDbEntity
  8
Layer 1
 62
   250
100
AcDbSpline
210
0.0
220
0.0
230
1.0
 70
    11
 71
     3
 72
    56
 73
    52
 74
     0
 42
0.0000000001
 43
0.0000000001
 40
0.0
 40
0.0
 40
0.0
 40
0.0
 40
0.0769230769230769
 40
0.0769230769230769
 40
0.0769230769230769
 40
0.0769230769230769
 40
0.1538461538461539
 40
0.1538461538461539
 40
0.1538461538461539
 40
0.1538461538461539
 40
0.2307692307692308
 40
0.2307692307692308
 40
0.2307692307692308
 40
0.2307692307692308
 40
0.3076923076923077
 40
0.3076923076923077
 40
0.3076923076923077
 40
0.3076923076923077
 40
0.3846153846153846
 40
0.3846153846153846
 40
0.3846153846153846
 40
0.3846153846153846
 40
0.4615384615384616
 40
0.4615384615384616
 40
0.4615384615384616
 40
0.4615384615384616
 40
0.5384615384615385
 40
0.5384615384615385
 40
0.5384615384615385
 40
0.5384615384615385
 40
0.6153846153846154
 40
0.6153846153846154
 40
0.6153846153846154
 40
0.6153846153846154
 40
0.6923076923076923
 40
0.6923076923076923
 40
0.6923076923076923
 40
0.6923076923076923
 40
0.7692307692307692
 40
0.7692307692307692
 40
0.7692307692307692
 40
0.7692307692307692
 40
0.846153846153846
 40
0.846153846153846
 40
0.846153846153846
 40
0.846153846153846
 40
0.9230769230769229
 40
0.9230769230769229
 40
0.9230769230769229
 40
0.9230769230769229
 40
1.0
 40
1.0
 40
1.0
 40
1.0
 10
-9.95512
 20
-14.64239
 30
0.0
 10
-9.95512
 20
-14.64239
 30
0.0
 10
-9.92137
 20
-14.64239
 30
0.0
 10
-9.92137
 20
-14.64239
 30
0.0
 10
-9.92137
 20
-14.64239
 30
0.0
 10
-9.92137
 20
-14.64239
 30
0.0
 10
-9.89792
 20
-14.69745
 30
0.0
 10
-9.89792
 20
-14.69745
 30
0.0
 10
-9.89792
 20
-14.69745
 30
0.0
 10
-9.89792
 20
-14.69745
 30
0.0
 10
-9.87436
 20
-14.64239
 30
0.0
 10
-9.87436
 20
-14.64239
 30
0.0
 10
-9.87436
 20
-14.64239
 30
0.0
 10
-9.87436
 20
-14.64239
 30
0.0
 10
-9.84068
 20
-14.64239
 30
0.0
 10
-9.84068
 20
-14.64239
 30
0.0
 10
-9.84068
 20
-14.64239
 30
0.0
 10
-9.84068
 20
-14.64239
 30
0.0
 10
-9.84068
 20
-14.74526
 30
0.0
 10
-9.84068
 20
-14.74526
 30
0.0
 10
-9.84068
 20
-14.74526
 30
0.0
 10
-9.84068
 20
-14.74526
 30
0.0
 10
-9.86575
 20
-14.74526
 30
0.0
 10
-9.86575
 20
-14.74526
 30
0.0
 10
-9.86575
 20
-14.74526
 30
0.0
 10
-9.86575
 20
-14.74526
 30
0.0
 10
-9.86575
 20
-14.67002
 30
0.0
 10
-9.86575
 20
-14.67002
 30
0.0
 10
-9.86575
 20
-14.67002
 30
0.0
 10
-9.86575
 20
-14.67002
 30
0.0
 10
-9.88946
 20
-14.72548
 30
0.0
 10
-9.88946
 20
-14.72548
 30
0.0
 10
-9.88946
 20
-14.72548
 30
0.0
 10
-9.88946
 20
-14.72548
 30
0.0
 10
-9.90627
 20
-14.72548
 30
0.0
 10
-9.90627
 20
-14.72548
 30
0.0
 10
-9.90627
 20
-14.72548
 30
0.0
 10
-9.90627
 20
-14.72548
 30
0.0
 10
-9.92998
 20
-14.67002
 30
0.0
 10
-9.92998
 20
-14.67002
 30
0.0
 10
-9.92998
 20
-14.67002
 30
0.0
 10
-9.92998
 20
-14.67002
 30
0.0
 10
-9.92998
 20
-14.74526
 30
0.0
 10
-9.92998
 20
-14.74526
 30
0.0
 10
-9.92998
 20
-14.74526
 30
0.0
 10
-9.92998
 20
-14.74526
 30
0.0
 10
-9.95512
 20
-14.74526
 30
0.0
 10
-9.95512
 20
-14.74526
 30
0.0
 10
-9.95512
 20
-14.74526
 30
0.0
 10
-9.95512
 20
-14.74526
 30
0.0
 10
-9.95512
 20
-14.64239
 30
0.0
 10
-9.95512
 20
-14.64239
 30
0.0
  0
SPLINE
  5
8A
330
1F
100
AcDbEntity
  8
Layer 1
 62
   250
100
AcDbSpline
210
0.0
220
0.0
230
1.0
 70
    11
 71
     3
 72
    20
 73
    16
 74
     0
 42
0.0000000001
 43
0.0000000001
 40
0.0
 40
0.0
 40
0.0
 40
0.0
 40
0.25
 40
0.25
 40
0.25
 40
0.25
 40
0.5
 40
0.5
 40
0.5
 40
0.5
 40
0.75
 40
0.75
 40
0.75
 40
0.75
 40
1.0
 40
1.0
 40
1.0
 40
1.0
 10
-9.81469
 20
-14.64239
 30
0.0
 10
-9.81469
 20
-14.64239
 30
0.0
 10
-9.78816
 20
-14.64239
 30
0.0
 10
-9.78816
 20
-14.64239
 30
0.0
 10
-9.78816
 20
-14.64239
 30
0.0
 10
-9.78816
 20
-14.64239
 30
0.0
 10
-9.78816
 20
-14.74526
 30
0.0
 10
-9.78816
 20
-14.74526
 30
0.0
 10
-9.78816
 20
-14.74526
 30
0.0
 10
-9.78816
 20
-14.74526
 30
0.0
 10
-9.81469
 20
-14.74526
 30
0.0
 10
-9.81469
 20
-14.74526
 30
0.0
 10
-9.81469
 20
-14.74526
 30
0.0
 10
-9.81469
 20
-14.74526
 30
0.0
 10
-9.81469
 20
-14.64239
 30
0.0
 10
-9.81469
 20
-14.64239
 30
0.0
  0
SPLINE
  5
8B
330
1F
100
AcDbEntity
  8
Layer 1
 62
   250
100
AcDbSpline
210
0.0
220
0.0
230
1.0
 70
    11
 71
     3
 72
    76
 73
    72
 74
     0
 42
0.0000000001
 43
0.0000000001
 40
0.0
 40
0.0
 40
0.0
 40
0.0
 40
0.0555555555555556
 40
0.0555555555555556
 40
0.0555555555555556
 40
0.0555555555555556
 40
0.1111111111111111
 40
0.1111111111111111
 40
0.1111111111111111
 40
0.1111111111111111
 40
0.1666666666666667
 40
0.1666666666666667
 40
0.1666666666666667
 40
0.1666666666666667
 40
0.2222222222222222
 40
0.2222222222222222
 40
0.2222222222222222
 40
0.2222222222222222
 40
0.2777777777777778
 40
0.2777777777777778
 40
0.2777777777777778
 40
0.2777777777777778
 40
0.3333333333333334
 40
0.3333333333333334
 40
0.3333333333333334
 40
0.3333333333333334
 40
0.388888888888889
 40
0.388888888888889
 40
0.388888888888889
 40
0.388888888888889
 40
0.4444444444444445
 40
0.4444444444444445
 40
0.4444444444444445
 40
0.4444444444444445
 40
0.5000000000000001
 40
0.5000000000000001
 40
0.5000000000000001
 40
0.5000000000000001
 40
0.5555555555555557
 40
0.5555555555555557
 40
0.5555555555555557
 40
0.5555555555555557
 40
0.6111111111111113
 40
0.6111111111111113
 40
0.6111111111111113
 40
0.6111111111111113
 40
0.6666666666666669
 40
0.6666666666666669
 40
0.6666666666666669
 40
0.6666666666666669
 40
0.7222222222222224
 40
0.7222222222222224
 40
0.7222222222222224
 40
0.7222222222222224
 40
0.777777777777778
 40
0.777777777777778
 40
0.777777777777778
 40
0.777777777777778
 40
0.8333333333333336
 40
0.8333333333333336
 40
0.8333333333333336
 40
0.8333333333333336
 40
0.8888888888888892
 40
0.8888888888888892
 40
0.8888888888888892
 40
0.8888888888888892
 40
0.9444444444444448
 40
0.9444444444444448
 40
0.9444444444444448
 40
0.9444444444444448
 40
1.0
 40
1.0
 40
1.0
 40
1.0
 10
-9.68062
 20
-14.73962
 30
0.0
 10
-9.68548
 20
-14.74213
 30
0.0
 10
-9.69056
 20
-14.74404
 30
0.0
 10
-9.69586
 20
-14.74533
 30
0.0
 10
-9.69586
 20
-14.74533
 30
0.0
 10
-9.70112
 20
-14.74662
 30
0.0
 10
-9.70665
 20
-14.74726
 30
0.0
 10
-9.71239
 20
-14.74726
 30
0.0
 10
-9.71239
 20
-14.74726
 30
0.0
 10
-9.72951
 20
-14.74726
 30
0.0
 10
-9.74308
 20
-14.74246
 30
0.0
 10
-9.7531
 20
-14.73289
 30
0.0
 10
-9.7531
 20
-14.73289
 30
0.0
 10
-9.76312
 20
-14.72332
 30
0.0
 10
-9.76813
 20
-14.71034
 30
0.0
 10
-9.76813
 20
-14.69392
 30
0.0
 10
-9.76813
 20
-14.69392
 30
0.0
 10
-9.76813
 20
-14.67748
 30
0.0
 10
-9.76312
 20
-14.66447
 30
0.0
 10
-9.7531
 20
-14.6549
 30
0.0
 10
-9.7531
 20
-14.6549
 30
0.0
 10
-9.74308
 20
-14.64533
 30
0.0
 10
-9.72951
 20
-14.64053
 30
0.0
 10
-9.71239
 20
-14.64053
 30
0.0
 10
-9.71239
 20
-14.64053
 30
0.0
 10
-9.70665
 20
-14.64053
 30
0.0
 10
-9.70112
 20
-14.64117
 30
0.0
 10
-9.69586
 20
-14.64246
 30
0.0
 10
-9.69586
 20
-14.64246
 30
0.0
 10
-9.69056
 20
-14.64375
 30
0.0
 10
-9.68548
 20
-14.64566
 30
0.0
 10
-9.68062
 20
-14.64818
 30
0.0
 10
-9.68062
 20
-14.64818
 30
0.0
 10
-9.68062
 20
-14.64818
 30
0.0
 10
-9.68062
 20
-14.66946
 30
0.0
 10
-9.68062
 20
-14.66946
 30
0.0
 10
-9.68062
 20
-14.66946
 30
0.0
 10
-9.68553
 20
-14.6661
 30
0.0
 10
-9.69038
 20
-14.66365
 30
0.0
 10
-9.69515
 20
-14.6621
 30
0.0
 10
-9.69515
 20
-14.6621
 30
0.0
 10
-9.69992
 20
-14.66052
 30
0.0
 10
-9.70496
 20
-14.65975
 30
0.0
 10
-9.71025
 20
-14.65975
 30
0.0
 10
-9.71025
 20
-14.65975
 30
0.0
 10
-9.7197
 20
-14.65975
 30
0.0
 10
-9.72716
 20
-14.66278
 30
0.0
 10
-9.73257
 20
-14.66885
 30
0.0
 10
-9.73257
 20
-14.66885
 30
0.0
 10
-9.738
 20
-14.67492
 30
0.0
 10
-9.74071
 20
-14.68327
 30
0.0
 10
-9.74071
 20
-14.69392
 30
0.0
 10
-9.74071
 20
-14.69392
 30
0.0
 10
-9.74071
 20
-14.70455
 30
0.0
 10
-9.738
 20
-14.71288
 30
0.0
 10
-9.73257
 20
-14.71894
 30
0.0
 10
-9.73257
 20
-14.71894
 30
0.0
 10
-9.72716
 20
-14.72501
 30
0.0
 10
-9.7197
 20
-14.72804
 30
0.0
 10
-9.71025
 20
-14.72804
 30
0.0
 10
-9.71025
 20
-14.72804
 30
0.0
 10
-9.70496
 20
-14.72804
 30
0.0
 10
-9.69992
 20
-14.72727
 30
0.0
 10
-9.69515
 20
-14.72569
 30
0.0
 10
-9.69515
 20
-14.72569
 30
0.0
 10
-9.69038
 20
-14.72414
 30
0.0
 10
-9.68553
 20
-14.72169
 30
0.0
 10
-9.68062
 20
-14.71833
 30
0.0
 10
-9.68062
 20
-14.71833
 30
0.0
 10
-9.68062
 20
-14.71833
 30
0.0
 10
-9.68062
 20
-14.73962
 30
0.0
 10
-9.68062
 20
-14.73962
 30
0.0
  0
SPLINE
  5
8C
330
1F
100
AcDbEntity
  8
Layer 1
 62
   250
100
AcDbSpline
210
0.0
220
0.0
230
1.0
 70
    11
 71
     3
 72
    44
 73
    40
 74
     0
 42
0.0000000001
 43
0.0000000001
 40
0.0
 40
0.0
 40
0.0
 40
0.0
 40
0.1
 40
0.1
 40
0.1
 40
0.1
 40
0.2
 40
0.2
 40
0.2
 40
0.2
 40
0.3
 40
0.3
 40
0.3
 40
0.3
 40
0.4
 40
0.4
 40
0.4
 40
0.4
 40
0.5
 40
0.5
 40
0.5
 40
0.5
 40
0.6
 40
0.6
 40
0.6
 40
0.6
 40
0.7
 40
0.7
 40
0.7
 40
0.7
 40
0.7999999999999999
 40
0.7999999999999999
 40
0.7999999999999999
 40
0.7999999999999999
 40
0.8999999999999999
 40
0.8999999999999999
 40
0.8999999999999999
 40
0.8999999999999999
 40
1.0
 40
1.0
 40
1.0
 40
1.0
 10
-9.66032
 20
-14.76386
 30
0.0
 10
-9.65444
 20
-14.75293
 30
0.0
 10
-9.65002
 20
-14.74225
 30
0.0
 10
-9.64708
 20
-14.73183
 30
0.0
 10
-9.64708
 20
-14.73183
 30
0.0
 10
-9.64414
 20
-14.72139
 30
0.0
 10
-9.64268
 20
-14.71111
 30
0.0
 10
-9.64268
 20
-14.70095
 30
0.0
 10
-9.64268
 20
-14.70095
 30
0.0
 10
-9.64268
 20
-14.69079
 30
0.0
 10
-9.64414
 20
-14.68051
 30
0.0
 10
-9.64708
 20
-14.67012
 30
0.0
 10
-9.64708
 20
-14.67012
 30
0.0
 10
-9.65002
 20
-14.65972
 30
0.0
 10
-9.65444
 20
-14.64907
 30
0.0
 10
-9.66032
 20
-14.63818
 30
0.0
 10
-9.66032
 20
-14.63818
 30
0.0
 10
-9.66032
 20
-14.63818
 30
0.0
 10
-9.63986
 20
-14.63818
 30
0.0
 10
-9.63986
 20
-14.63818
 30
0.0
 10
-9.63986
 20
-14.63818
 30
0.0
 10
-9.63288
 20
-14.64945
 30
0.0
 10
-9.6277
 20
-14.66022
 30
0.0
 10
-9.62431
 20
-14.67054
 30
0.0
 10
-9.62431
 20
-14.67054
 30
0.0
 10
-9.62095
 20
-14.68084
 30
0.0
 10
-9.61926
 20
-14.69103
 30
0.0
 10
-9.61926
 20
-14.70109
 30
0.0
 10
-9.61926
 20
-14.70109
 30
0.0
 10
-9.61926
 20
-14.71116
 30
0.0
 10
-9.62093
 20
-14.72129
 30
0.0
 10
-9.62429
 20
-14.7315
 30
0.0
 10
-9.62429
 20
-14.7315
 30
0.0
 10
-9.62763
 20
-14.74173
 30
0.0
 10
-9.63283
 20
-14.75253
 30
0.0
 10
-9.63986
 20
-14.76386
 30
0.0
 10
-9.63986
 20
-14.76386
 30
0.0
 10
-9.63986
 20
-14.76386
 30
0.0
 10
-9.66032
 20
-14.76386
 30
0.0
 10
-9.66032
 20
-14.76386
 30
0.0
  0
SPLINE
  5
8D
330
1F
100
AcDbEntity
  8
Layer 1
 62
   250
100
AcDbSpline
210
0.0
220
0.0
230
1.0
 70
    11
 71
     3
 72
    36
 73
    32
 74
     0
 42
0.0000000001
 43
0.0000000001
 40
0.0
 40
0.0
 40
0.0
 40
0.0
 40
0.125
 40
0.125
 40
0.125
 40
0.125
 40
0.25
 40
0.25
 40
0.25
 40
0.25
 40
0.375
 40
0.375
 40
0.375
 40
0.375
 40
0.5
 40
0.5
 40
0.5
 40
0.5
 40
0.625
 40
0.625
 40
0.625
 40
0.625
 40
0.75
 40
0.75
 40
0.75
 40
0.75
 40
0.875
 40
0.875
 40
0.875
 40
0.875
 40
1.0
 40
1.0
 40
1.0
 40
1.0
 10
-10.88713
 20
-15.46378
 30
0.0
 10
-10.8917
 20
-15.46378
 30
0.0
 10
-10.89515
 20
-15.46555
 30
0.0
 10
-10.8975
 20
-15.4691
 30
0.0
 10
-10.8975
 20
-15.4691
 30
0.0
 10
-10.89985
 20
-15.47265
 30
0.0
 10
-10.90102
 20
-15.47792
 30
0.0
 10
-10.90102
 20
-15.48487
 30
0.0
 10
-10.90102
 20
-15.48487
 30
0.0
 10
-10.90102
 20
-15.4918
 30
0.0
 10
-10.89985
 20
-15.49705
 30
0.0
 10
-10.8975
 20
-15.50062
 30
0.0
 10
-10.8975
 20
-15.50062
 30
0.0
 10
-10.89515
 20
-15.50419
 30
0.0
 10
-10.8917
 20
-15.50597
 30
0.0
 10
-10.88713
 20
-15.50597
 30
0.0
 10
-10.88713
 20
-15.50597
 30
0.0
 10
-10.88255
 20
-15.50597
 30
0.0
 10
-10.87908
 20
-15.50419
 30
0.0
 10
-10.87673
 20
-15.50062
 30
0.0
 10
-10.87673
 20
-15.50062
 30
0.0
 10
-10.87438
 20
-15.49705
 30
0.0
 10
-10.87322
 20
-15.4918
 30
0.0
 10
-10.87322
 20
-15.48487
 30
0.0
 10
-10.87322
 20
-15.48487
 30
0.0
 10
-10.87322
 20
-15.47792
 30
0.0
 10
-10.87438
 20
-15.47265
 30
0.0
 10
-10.87673
 20
-15.4691
 30
0.0
 10
-10.87673
 20
-15.4691
 30
0.0
 10
-10.87908
 20
-15.46555
 30
0.0
 10
-10.88255
 20
-15.46378
 30
0.0
 10
-10.88713
 20
-15.46378
 30
0.0
  0
SPLINE
  5
8E
330
1F
100
AcDbEntity
  8
Layer 1
 62
   250
100
AcDbSpline
210
0.0
220
0.0
230
1.0
 70
    11
 71
     3
 72
    36
 73
    32
 74
     0
 42
0.0000000001
 43
0.0000000001
 40
0.0
 40
0.0
 40
0.0
 40
0.0
 40
0.125
 40
0.125
 40
0.125
 40
0.125
 40
0.25
 40
0.25
 40
0.25
 40
0.25
 40
0.375
 40
0.375
 40
0.375
 40
0.375
 40
0.5
 40
0.5
 40
0.5
 40
0.5
 40
0.625
 40
0.625
 40
0.625
 40
0.625
 40
0.75
 40
0.75
 40
0.75
 40
0.75
 40
0.875
 40
0.875
 40
0.875
 40
0.875
 40
1.0
 40
1.0
 40
1.0
 40
1.0
 10
-10.88713
 20
-15.45616
 30
0.0
 10
-10.87955
 20
-15.45616
 30
0.0
 10
-10.87375
 20
-15.45861
 30
0.0
 10
-10.86973
 20
-15.46353
 30
0.0
 10
-10.86973
 20
-15.46353
 30
0.0
 10
-10.86571
 20
-15.46845
 30
0.0
 10
-10.8637
 20
-15.47557
 30
0.0
 10
-10.8637
 20
-15.48487
 30
0.0
 10
-10.8637
 20
-15.48487
 30
0.0
 10
-10.8637
 20
-15.49422
 30
0.0
 10
-10.8657
 20
-15.50134
 30
0.0
 10
-10.8697
 20
-15.50624
 30
0.0
 10
-10.8697
 20
-15.50624
 30
0.0
 10
-10.87372
 20
-15.51114
 30
0.0
 10
-10.87952
 20
-15.51359
 30
0.0
 10
-10.88713
 20
-15.51359
 30
0.0
 10
-10.88713
 20
-15.51359
 30
0.0
 10
-10.89473
 20
-15.51359
 30
0.0
 10
-10.90052
 20
-15.51114
 30
0.0
 10
-10.90454
 20
-15.50624
 30
0.0
 10
-10.90454
 20
-15.50624
 30
0.0
 10
-10.90854
 20
-15.50134
 30
0.0
 10
-10.91054
 20
-15.49422
 30
0.0
 10
-10.91054
 20
-15.48487
 30
0.0
 10
-10.91054
 20
-15.48487
 30
0.0
 10
-10.91054
 20
-15.47557
 30
0.0
 10
-10.90854
 20
-15.46845
 30
0.0
 10
-10.90454
 20
-15.46353
 30
0.0
 10
-10.90454
 20
-15.46353
 30
0.0
 10
-10.90052
 20
-15.45861
 30
0.0
 10
-10.89473
 20
-15.45616
 30
0.0
 10
-10.88713
 20
-15.45616
 30
0.0
  0
SPLINE
  5
8F
330
1F
100
AcDbEntity
  8
Layer 1
 62
   250
100
AcDbSpline
210
0.0
220
0.0
230
1.0
 70
    11
 71
     3
 72
    36
 73
    32
 74
     0
 42
0.0000000001
 43
0.0000000001
 40
0.0
 40
0.0
 40
0.0
 40
0.0
 40
0.125
 40
0.125
 40
0.125
 40
0.125
 40
0.25
 40
0.25
 40
0.25
 40
0.25
 40
0.375
 40
0.375
 40
0.375
 40
0.375
 40
0.5
 40
0.5
 40
0.5
 40
0.5
 40
0.625
 40
0.625
 40
0.625
 40
0.625
 40
0.75
 40
0.75
 40
0.75
 40
0.75
 40
0.875
 40
0.875
 40
0.875
 40
0.875
 40
1.0
 40
1.0
 40
1.0
 40
1.0
 10
-10.82692
 20
-15.46378
 30
0.0
 10
-10.83149
 20
-15.46378
 30
0.0
 10
-10.83494
 20
-15.46555
 30
0.0
 10
-10.83729
 20
-15.4691
 30
0.0
 10
-10.83729
 20
-15.4691
 30
0.0
 10
-10.83964
 20
-15.47265
 30
0.0
 10
-10.84081
 20
-15.47792
 30
0.0
 10
-10.84081
 20
-15.48487
 30
0.0
 10
-10.84081
 20
-15.48487
 30
0.0
 10
-10.84081
 20
-15.4918
 30
0.0
 10
-10.83964
 20
-15.49705
 30
0.0
 10
-10.83729
 20
-15.50062
 30
0.0
 10
-10.83729
 20
-15.50062
 30
0.0
 10
-10.83494
 20
-15.50419
 30
0.0
 10
-10.83149
 20
-15.50597
 30
0.0
 10
-10.82692
 20
-15.50597
 30
0.0
 10
-10.82692
 20
-15.50597
 30
0.0
 10
-10.82234
 20
-15.50597
 30
0.0
 10
-10.81887
 20
-15.50419
 30
0.0
 10
-10.81652
 20
-15.50062
 30
0.0
 10
-10.81652
 20
-15.50062
 30
0.0
 10
-10.81417
 20
-15.49705
 30
0.0
 10
-10.81301
 20
-15.4918
 30
0.0
 10
-10.81301
 20
-15.48487
 30
0.0
 10
-10.81301
 20
-15.48487
 30
0.0
 10
-10.81301
 20
-15.47792
 30
0.0
 10
-10.81417
 20
-15.47265
 30
0.0
 10
-10.81652
 20
-15.4691
 30
0.0
 10
-10.81652
 20
-15.4691
 30
0.0
 10
-10.81887
 20
-15.46555
 30
0.0
 10
-10.82234
 20
-15.46378
 30
0.0
 10
-10.82692
 20
-15.46378
 30
0.0
  0
SPLINE
  5
90
330
1F
100
AcDbEntity
  8
Layer 1
 62
   250
100
AcDbSpline
210
0.0
220
0.0
230
1.0
 70
    11
 71
     3
 72
    36
 73
    32
 74
     0
 42
0.0000000001
 43
0.0000000001
 40
0.0
 40
0.0
 40
0.0
 40
0.0
 40
0.125
 40
0.125
 40
0.125
 40
0.125
 40
0.25
 40
0.25
 40
0.25
 40
0.25
 40
0.375
 40
0.375
 40
0.375
 40
0.375
 40
0.5
 40
0.5
 40
0.5
 40
0.5
 40
0.625
 40
0.625
 40
0.625
 40
0.625
 40
0.75
 40
0.75
 40
0.75
 40
0.75
 40
0.875
 40
0.875
 40
0.875
 40
0.875
 40
1.0
 40
1.0
 40
1.0
 40
1.0
 10
-10.82692
 20
-15.45616
 30
0.0
 10
-10.81934
 20
-15.45616
 30
0.0
 10
-10.81354
 20
-15.45861
 30
0.0
 10
-10.80952
 20
-15.46353
 30
0.0
 10
-10.80952
 20
-15.46353
 30
0.0
 10
-10.8055
 20
-15.46845
 30
0.0
 10
-10.80349
 20
-15.47557
 30
0.0
 10
-10.80349
 20
-15.48487
 30
0.0
 10
-10.80349
 20
-15.48487
 30
0.0
 10
-10.80349
 20
-15.49422
 30
0.0
 10
-10.80549
 20
-15.50134
 30
0.0
 10
-10.80949
 20
-15.50624
 30
0.0
 10
-10.80949
 20
-15.50624
 30
0.0
 10
-10.81351
 20
-15.51114
 30
0.0
 10
-10.81931
 20
-15.51359
 30
0.0
 10
-10.82692
 20
-15.51359
 30
0.0
 10
-10.82692
 20
-15.51359
 30
0.0
 10
-10.83452
 20
-15.51359
 30
0.0
 10
-10.84031
 20
-15.51114
 30
0.0
 10
-10.84433
 20
-15.50624
 30
0.0
 10
-10.84433
 20
-15.50624
 30
0.0
 10
-10.84833
 20
-15.50134
 30
0.0
 10
-10.85033
 20
-15.49422
 30
0.0
 10
-10.85033
 20
-15.48487
 30
0.0
 10
-10.85033
 20
-15.48487
 30
0.0
 10
-10.85033
 20
-15.47557
 30
0.0
 10
-10.84833
 20
-15.46845
 30
0.0
 10
-10.84433
 20
-15.46353
 30
0.0
 10
-10.84433
 20
-15.46353
 30
0.0
 10
-10.84031
 20
-15.45861
 30
0.0
 10
-10.83452
 20
-15.45616
 30
0.0
 10
-10.82692
 20
-15.45616
 30
0.0
  0
SPLINE
  5
91
330
1F
100
AcDbEntity
  8
Layer 1
 62
   250
100
AcDbSpline
210
0.0
220
0.0
230
1.0
 70
    11
 71
     3
 72
   112
 73
   108
 74
     0
 42
0.0000000001
 43
0.0000000001
 40
0.0
 40
0.0
 40
0.0
 40
0.0
 40
0.037037037037037
 40
0.037037037037037
 40
0.037037037037037
 40
0.037037037037037
 40
0.0740740740740741
 40
0.0740740740740741
 40
0.0740740740740741
 40
0.0740740740740741
 40
0.1111111111111111
 40
0.1111111111111111
 40
0.1111111111111111
 40
0.1111111111111111
 40
0.1481481481481481
 40
0.1481481481481481
 40
0.1481481481481481
 40
0.1481481481481481
 40
0.1851851851851852
 40
0.1851851851851852
 40
0.1851851851851852
 40
0.1851851851851852
 40
0.2222222222222222
 40
0.2222222222222222
 40
0.2222222222222222
 40
0.2222222222222222
 40
0.2592592592592592
 40
0.2592592592592592
 40
0.2592592592592592
 40
0.2592592592592592
 40
0.2962962962962963
 40
0.2962962962962963
 40
0.2962962962962963
 40
0.2962962962962963
 40
0.3333333333333333
 40
0.3333333333333333
 40
0.3333333333333333
 40
0.3333333333333333
 40
0.3703703703703703
 40
0.3703703703703703
 40
0.3703703703703703
 40
0.3703703703703703
 40
0.4074074074074074
 40
0.4074074074074074
 40
0.4074074074074074
 40
0.4074074074074074
 40
0.4444444444444444
 40
0.4444444444444444
 40
0.4444444444444444
 40
0.4444444444444444
 40
0.4814814814814815
 40
0.4814814814814815
 40
0.4814814814814815
 40
0.4814814814814815
 40
0.5185185185185185
 40
0.5185185185185185
 40
0.5185185185185185
 40
0.5185185185185185
 40
0.5555555555555556
 40
0.5555555555555556
 40
0.5555555555555556
 40
0.5555555555555556
 40
0.5925925925925926
 40
0.5925925925925926
 40
0.5925925925925926
 40
0.5925925925925926
 40
0.6296296296296295
 40
0.6296296296296295
 40
0.6296296296296295
 40
0.6296296296296295
 40
0.6666666666666665
 40
0.6666666666666665
 40
0.6666666666666665
 40
0.6666666666666665
 40
0.7037037037037035
 40
0.7037037037037035
 40
0.7037037037037035
 40
0.7037037037037035
 40
0.7407407407407405
 40
0.7407407407407405
 40
0.7407407407407405
 40
0.7407407407407405
 40
0.7777777777777775
 40
0.7777777777777775
 40
0.7777777777777775
 40
0.7777777777777775
 40
0.8148148148148144
 40
0.8148148148148144
 40
0.8148148148148144
 40
0.8148148148148144
 40
0.8518518518518514
 40
0.8518518518518514
 40
0.8518518518518514
 40
0.8518518518518514
 40
0.8888888888888884
 40
0.8888888888888884
 40
0.8888888888888884
 40
0.8888888888888884
 40
0.9259259259259254
 40
0.9259259259259254
 40
0.9259259259259254
 40
0.9259259259259254
 40
0.9629629629629624
 40
0.9629629629629624
 40
0.9629629629629624
 40
0.9629629629629624
 40
1.0
 40
1.0
 40
1.0
 40
1.0
 10
-10.7638
 20
-15.46305
 30
0.0
 10
-10.7627
 20
-15.4607
 30
0.0
 10
-10.76128
 20
-15.45896
 30
0.0
 10
-10.75956
 20
-15.45785
 30
0.0
 10
-10.75956
 20
-15.45785
 30
0.0
 10
-10.75786
 20
-15.45673
 30
0.0
 10
-10.7558
 20
-15.45616
 30
0.0
 10
-10.7534
 20
-15.45616
 30
0.0
 10
-10.7534
 20
-15.45616
 30
0.0
 10
-10.749
 20
-15.45616
 30
0.0
 10
-10.74589
 20
-15.45786
 30
0.0
 10
-10.74409
 20
-15.46126
 30
0.0
 10
-10.74409
 20
-15.46126
 30
0.0
 10
-10.74228
 20
-15.46467
 30
0.0
 10
-10.74138
 20
-15.47107
 30
0.0
 10
-10.74138
 20
-15.48048
 30
0.0
 10
-10.74138
 20
-15.48048
 30
0.0
 10
-10.74138
 20
-15.48048
 30
0.0
 10
-10.74138
 20
-15.51217
 30
0.0
 10
-10.74138
 20
-15.51217
 30
0.0
 10
-10.74138
 20
-15.51217
 30
0.0
 10
-10.74138
 20
-15.51217
 30
0.0
 10
-10.74958
 20
-15.51217
 30
0.0
 10
-10.74958
 20
-15.51217
 30
0.0
 10
-10.74958
 20
-15.51217
 30
0.0
 10
-10.74958
 20
-15.51217
 30
0.0
 10
-10.74958
 20
-15.48087
 30
0.0
 10
-10.74958
 20
-15.48087
 30
0.0
 10
-10.74958
 20
-15.48087
 30
0.0
 10
-10.74958
 20
-15.47315
 30
0.0
 10
-10.75001
 20
-15.46837
 30
0.0
 10
-10.75088
 20
-15.46648
 30
0.0
 10
-10.75088
 20
-15.46648
 30
0.0
 10
-10.75173
 20
-15.46462
 30
0.0
 10
-10.75331
 20
-15.46368
 30
0.0
 10
-10.7556
 20
-15.46368
 30
0.0
 10
-10.7556
 20
-15.46368
 30
0.0
 10
-10.7582
 20
-15.46368
 30
0.0
 10
-10.75998
 20
-15.46468
 30
0.0
 10
-10.76095
 20
-15.46668
 30
0.0
 10
-10.76095
 20
-15.46668
 30
0.0
 10
-10.7619
 20
-15.46868
 30
0.0
 10
-10.76238
 20
-15.47342
 30
0.0
 10
-10.76238
 20
-15.48087
 30
0.0
 10
-10.76238
 20
-15.48087
 30
0.0
 10
-10.76238
 20
-15.48087
 30
0.0
 10
-10.76238
 20
-15.51217
 30
0.0
 10
-10.76238
 20
-15.51217
 30
0.0
 10
-10.76238
 20
-15.51217
 30
0.0
 10
-10.76238
 20
-15.51217
 30
0.0
 10
-10.77058
 20
-15.51217
 30
0.0
 10
-10.77058
 20
-15.51217
 30
0.0
 10
-10.77058
 20
-15.51217
 30
0.0
 10
-10.77058
 20
-15.51217
 30
0.0
 10
-10.77058
 20
-15.48087
 30
0.0
 10
-10.77058
 20
-15.48087
 30
0.0
 10
-10.77058
 20
-15.48087
 30
0.0
 10
-10.77058
 20
-15.47305
 30
0.0
 10
-10.77105
 20
-15.46823
 30
0.0
 10
-10.77198
 20
-15.46642
 30
0.0
 10
-10.77198
 20
-15.46642
 30
0.0
 10
-10.7729
 20
-15.4646
 30
0.0
 10
-10.77456
 20
-15.46368
 30
0.0
 10
-10.77698
 20
-15.46368
 30
0.0
 10
-10.77698
 20
-15.46368
 30
0.0
 10
-10.77936
 20
-15.46368
 30
0.0
 10
-10.78102
 20
-15.46468
 30
0.0
 10
-10.78193
 20
-15.46668
 30
0.0
 10
-10.78193
 20
-15.46668
 30
0.0
 10
-10.78287
 20
-15.46868
 30
0.0
 10
-10.78333
 20
-15.47342
 30
0.0
 10
-10.78333
 20
-15.48087
 30
0.0
 10
-10.78333
 20
-15.48087
 30
0.0
 10
-10.78333
 20
-15.48087
 30
0.0
 10
-10.78333
 20
-15.51217
 30
0.0
 10
-10.78333
 20
-15.51217
 30
0.0
 10
-10.78333
 20
-15.51217
 30
0.0
 10
-10.78333
 20
-15.51217
 30
0.0
 10
-10.79148
 20
-15.51217
 30
0.0
 10
-10.79148
 20
-15.51217
 30
0.0
 10
-10.79148
 20
-15.51217
 30
0.0
 10
-10.79148
 20
-15.51217
 30
0.0
 10
-10.79148
 20
-15.45748
 30
0.0
 10
-10.79148
 20
-15.45748
 30
0.0
 10
-10.79148
 20
-15.45748
 30
0.0
 10
-10.79148
 20
-15.45748
 30
0.0
 10
-10.78333
 20
-15.45748
 30
0.0
 10
-10.78333
 20
-15.45748
 30
0.0
 10
-10.78333
 20
-15.45748
 30
0.0
 10
-10.78333
 20
-15.45748
 30
0.0
 10
-10.78333
 20
-15.46216
 30
0.0
 10
-10.78333
 20
-15.46216
 30
0.0
 10
-10.78333
 20
-15.46216
 30
0.0
 10
-10.78227
 20
-15.46021
 30
0.0
 10
-10.78092
 20
-15.45873
 30
0.0
 10
-10.7793
 20
-15.4577
 30
0.0
 10
-10.7793
 20
-15.4577
 30
0.0
 10
-10.7777
 20
-15.45668
 30
0.0
 10
-10.77586
 20
-15.45616
 30
0.0
 10
-10.77381
 20
-15.45616
 30
0.0
 10
-10.77381
 20
-15.45616
 30
0.0
 10
-10.77133
 20
-15.45616
 30
0.0
 10
-10.76928
 20
-15.45673
 30
0.0
 10
-10.76763
 20
-15.45786
 30
0.0
 10
-10.76763
 20
-15.45786
 30
0.0
 10
-10.76598
 20
-15.45901
 30
0.0
 10
-10.76471
 20
-15.46073
 30
0.0
 10
-10.7638
 20
-15.46305
 30
0.0
  0
SPLINE
  5
92
330
1F
100
AcDbEntity
  8
Layer 1
 62
   250
100
AcDbSpline
210
0.0
220
0.0
230
1.0
 70
    11
 71
     3
 72
    20
 73
    16
 74
     0
 42
0.0000000001
 43
0.0000000001
 40
0.0
 40
0.0
 40
0.0
 40
0.0
 40
0.25
 40
0.25
 40
0.25
 40
0.25
 40
0.5
 40
0.5
 40
0.5
 40
0.5
 40
0.75
 40
0.75
 40
0.75
 40
0.75
 40
1.0
 40
1.0
 40
1.0
 40
1.0
 10
-10.7127
 20
-15.49727
 30
0.0
 10
-10.7127
 20
-15.49727
 30
0.0
 10
-10.7004
 20
-15.49727
 30
0.0
 10
-10.7004
 20
-15.49727
 30
0.0
 10
-10.7004
 20
-15.49727
 30
0.0
 10
-10.7004
 20
-15.49727
 30
0.0
 10
-10.7004
 20
-15.51217
 30
0.0
 10
-10.7004
 20
-15.51217
 30
0.0
 10
-10.7004
 20
-15.51217
 30
0.0
 10
-10.7004
 20
-15.51217
 30
0.0
 10
-10.7127
 20
-15.51217
 30
0.0
 10
-10.7127
 20
-15.51217
 30
0.0
 10
-10.7127
 20
-15.51217
 30
0.0
 10
-10.7127
 20
-15.51217
 30
0.0
 10
-10.7127
 20
-15.49727
 30
0.0
 10
-10.7127
 20
-15.49727
 30
0.0
  0
SPLINE
  5
93
330
1F
100
AcDbEntity
  8
Layer 1
 62
   250
100
AcDbSpline
210
0.0
220
0.0
230
1.0
 70
    11
 71
     3
 72
    52
 73
    48
 74
     0
 42
0.0000000001
 43
0.0000000001
 40
0.0
 40
0.0
 40
0.0
 40
0.0
 40
0.0833333333333333
 40
0.0833333333333333
 40
0.0833333333333333
 40
0.0833333333333333
 40
0.1666666666666667
 40
0.1666666666666667
 40
0.1666666666666667
 40
0.1666666666666667
 40
0.25
 40
0.25
 40
0.25
 40
0.25
 40
0.3333333333333333
 40
0.3333333333333333
 40
0.3333333333333333
 40
0.3333333333333333
 40
0.4166666666666666
 40
0.4166666666666666
 40
0.4166666666666666
 40
0.4166666666666666
 40
0.4999999999999999
 40
0.4999999999999999
 40
0.4999999999999999
 40
0.4999999999999999
 40
0.5833333333333333
 40
0.5833333333333333
 40
0.5833333333333333
 40
0.5833333333333333
 40
0.6666666666666666
 40
0.6666666666666666
 40
0.6666666666666666
 40
0.6666666666666666
 40
0.75
 40
0.75
 40
0.75
 40
0.75
 40
0.8333333333333334
 40
0.8333333333333334
 40
0.8333333333333334
 40
0.8333333333333334
 40
0.9166666666666667
 40
0.9166666666666667
 40
0.9166666666666667
 40
0.9166666666666667
 40
1.0
 40
1.0
 40
1.0
 40
1.0
 10
-10.64518
 20
-15.49235
 30
0.0
 10
-10.64518
 20
-15.49639
 30
0.0
 10
-10.64444
 20
-15.49942
 30
0.0
 10
-10.64296
 20
-15.50147
 30
0.0
 10
-10.64296
 20
-15.50147
 30
0.0
 10
-10.64148
 20
-15.50352
 30
0.0
 10
-10.63929
 20
-15.50455
 30
0.0
 10
-10.63639
 20
-15.50455
 30
0.0
 10
-10.63639
 20
-15.50455
 30
0.0
 10
-10.63639
 20
-15.50455
 30
0.0
 10
-10.62589
 20
-15.50455
 30
0.0
 10
-10.62589
 20
-15.50455
 30
0.0
 10
-10.62589
 20
-15.50455
 30
0.0
 10
-10.62589
 20
-15.50455
 30
0.0
 10
-10.62589
 20
-15.51217
 30
0.0
 10
-10.62589
 20
-15.51217
 30
0.0
 10
-10.62589
 20
-15.51217
 30
0.0
 10
-10.62589
 20
-15.51217
 30
0.0
 10
-10.63726
 20
-15.51217
 30
0.0
 10
-10.63726
 20
-15.51217
 30
0.0
 10
-10.63726
 20
-15.51217
 30
0.0
 10
-10.64264
 20
-15.51217
 30
0.0
 10
-10.64679
 20
-15.51044
 30
0.0
 10
-10.64974
 20
-15.50699
 30
0.0
 10
-10.64974
 20
-15.50699
 30
0.0
 10
-10.65269
 20
-15.50354
 30
0.0
 10
-10.65416
 20
-15.49865
 30
0.0
 10
-10.65416
 20
-15.49235
 30
0.0
 10
-10.65416
 20
-15.49235
 30
0.0
 10
-10.65416
 20
-15.49235
 30
0.0
 10
-10.65416
 20
-15.44268
 30
0.0
 10
-10.65416
 20
-15.44268
 30
0.0
 10
-10.65416
 20
-15.44268
 30
0.0
 10
-10.65416
 20
-15.44268
 30
0.0
 10
-10.66856
 20
-15.44268
 30
0.0
 10
-10.66856
 20
-15.44268
 30
0.0
 10
-10.66856
 20
-15.44268
 30
0.0
 10
-10.66856
 20
-15.44268
 30
0.0
 10
-10.66856
 20
-15.43565
 30
0.0
 10
-10.66856
 20
-15.43565
 30
0.0
 10
-10.66856
 20
-15.43565
 30
0.0
 10
-10.66856
 20
-15.43565
 30
0.0
 10
-10.64518
 20
-15.43565
 30
0.0
 10
-10.64518
 20
-15.43565
 30
0.0
 10
-10.64518
 20
-15.43565
 30
0.0
 10
-10.64518
 20
-15.43565
 30
0.0
 10
-10.64518
 20
-15.49235
 30
0.0
 10
-10.64518
 20
-15.49235
 30
0.0
  0
SPLINE
  5
94
330
1F
100
AcDbEntity
  8
Layer 1
 62
   250
100
AcDbSpline
210
0.0
220
0.0
230
1.0
 70
    11
 71
     3
 72
    76
 73
    72
 74
     0
 42
0.0000000001
 43
0.0000000001
 40
0.0
 40
0.0
 40
0.0
 40
0.0
 40
0.0555555555555556
 40
0.0555555555555556
 40
0.0555555555555556
 40
0.0555555555555556
 40
0.1111111111111111
 40
0.1111111111111111
 40
0.1111111111111111
 40
0.1111111111111111
 40
0.1666666666666667
 40
0.1666666666666667
 40
0.1666666666666667
 40
0.1666666666666667
 40
0.2222222222222222
 40
0.2222222222222222
 40
0.2222222222222222
 40
0.2222222222222222
 40
0.2777777777777778
 40
0.2777777777777778
 40
0.2777777777777778
 40
0.2777777777777778
 40
0.3333333333333334
 40
0.3333333333333334
 40
0.3333333333333334
 40
0.3333333333333334
 40
0.388888888888889
 40
0.388888888888889
 40
0.388888888888889
 40
0.388888888888889
 40
0.4444444444444445
 40
0.4444444444444445
 40
0.4444444444444445
 40
0.4444444444444445
 40
0.5000000000000001
 40
0.5000000000000001
 40
0.5000000000000001
 40
0.5000000000000001
 40
0.5555555555555557
 40
0.5555555555555557
 40
0.5555555555555557
 40
0.5555555555555557
 40
0.6111111111111113
 40
0.6111111111111113
 40
0.6111111111111113
 40
0.6111111111111113
 40
0.6666666666666669
 40
0.6666666666666669
 40
0.6666666666666669
 40
0.6666666666666669
 40
0.7222222222222224
 40
0.7222222222222224
 40
0.7222222222222224
 40
0.7222222222222224
 40
0.777777777777778
 40
0.777777777777778
 40
0.777777777777778
 40
0.777777777777778
 40
0.8333333333333336
 40
0.8333333333333336
 40
0.8333333333333336
 40
0.8333333333333336
 40
0.8888888888888892
 40
0.8888888888888892
 40
0.8888888888888892
 40
0.8888888888888892
 40
0.9444444444444448
 40
0.9444444444444448
 40
0.9444444444444448
 40
0.9444444444444448
 40
1.0
 40
1.0
 40
1.0
 40
1.0
 10
-10.58618
 20
-15.44195
 30
0.0
 10
-10.58618
 20
-15.44195
 30
0.0
 10
-10.58618
 20
-15.45748
 30
0.0
 10
-10.58618
 20
-15.45748
 30
0.0
 10
-10.58618
 20
-15.45748
 30
0.0
 10
-10.58618
 20
-15.45748
 30
0.0
 10
-10.56576
 20
-15.45748
 30
0.0
 10
-10.56576
 20
-15.45748
 30
0.0
 10
-10.56576
 20
-15.45748
 30
0.0
 10
-10.56576
 20
-15.45748
 30
0.0
 10
-10.56576
 20
-15.46447
 30
0.0
 10
-10.56576
 20
-15.46447
 30
0.0
 10
-10.56576
 20
-15.46447
 30
0.0
 10
-10.56576
 20
-15.46447
 30
0.0
 10
-10.58618
 20
-15.46447
 30
0.0
 10
-10.58618
 20
-15.46447
 30
0.0
 10
-10.58618
 20
-15.46447
 30
0.0
 10
-10.58618
 20
-15.46447
 30
0.0
 10
-10.58618
 20
-15.49415
 30
0.0
 10
-10.58618
 20
-15.49415
 30
0.0
 10
-10.58618
 20
-15.49415
 30
0.0
 10
-10.58618
 20
-15.49819
 30
0.0
 10
-10.58542
 20
-15.501
 30
0.0
 10
-10.58388
 20
-15.50259
 30
0.0
 10
-10.58388
 20
-15.50259
 30
0.0
 10
-10.58235
 20
-15.50419
 30
0.0
 10
-10.57968
 20
-15.50499
 30
0.0
 10
-10.57588
 20
-15.50499
 30
0.0
 10
-10.57588
 20
-15.50499
 30
0.0
 10
-10.57588
 20
-15.50499
 30
0.0
 10
-10.56576
 20
-15.50499
 30
0.0
 10
-10.56576
 20
-15.50499
 30
0.0
 10
-10.56576
 20
-15.50499
 30
0.0
 10
-10.56576
 20
-15.50499
 30
0.0
 10
-10.56576
 20
-15.51217
 30
0.0
 10
-10.56576
 20
-15.51217
 30
0.0
 10
-10.56576
 20
-15.51217
 30
0.0
 10
-10.56576
 20
-15.51217
 30
0.0
 10
-10.57675
 20
-15.51217
 30
0.0
 10
-10.57675
 20
-15.51217
 30
0.0
 10
-10.57675
 20
-15.51217
 30
0.0
 10
-10.5835
 20
-15.51217
 30
0.0
 10
-10.58825
 20
-15.51082
 30
0.0
 10
-10.59102
 20
-15.50812
 30
0.0
 10
-10.59102
 20
-15.50812
 30
0.0
 10
-10.59378
 20
-15.50542
 30
0.0
 10
-10.59517
 20
-15.50075
 30
0.0
 10
-10.59517
 20
-15.49415
 30
0.0
 10
-10.59517
 20
-15.49415
 30
0.0
 10
-10.59517
 20
-15.49415
 30
0.0
 10
-10.59517
 20
-15.46447
 30
0.0
 10
-10.59517
 20
-15.46447
 30
0.0
 10
-10.59517
 20
-15.46447
 30
0.0
 10
-10.59517
 20
-15.46447
 30
0.0
 10
-10.60977
 20
-15.46447
 30
0.0
 10
-10.60977
 20
-15.46447
 30
0.0
 10
-10.60977
 20
-15.46447
 30
0.0
 10
-10.60977
 20
-15.46447
 30
0.0
 10
-10.60977
 20
-15.45748
 30
0.0
 10
-10.60977
 20
-15.45748
 30
0.0
 10
-10.60977
 20
-15.45748
 30
0.0
 10
-10.60977
 20
-15.45748
 30
0.0
 10
-10.59517
 20
-15.45748
 30
0.0
 10
-10.59517
 20
-15.45748
 30
0.0
 10
-10.59517
 20
-15.45748
 30
0.0
 10
-10.59517
 20
-15.45748
 30
0.0
 10
-10.59517
 20
-15.44195
 30
0.0
 10
-10.59517
 20
-15.44195
 30
0.0
 10
-10.59517
 20
-15.44195
 30
0.0
 10
-10.59517
 20
-15.44195
 30
0.0
 10
-10.58618
 20
-15.44195
 30
0.0
 10
-10.58618
 20
-15.44195
 30
0.0
  0
SPLINE
  5
95
330
1F
100
AcDbEntity
  8
Layer 1
 62
   250
100
AcDbSpline
210
0.0
220
0.0
230
1.0
 70
    11
 71
     3
 72
    20
 73
    16
 74
     0
 42
0.0000000001
 43
0.0000000001
 40
0.0
 40
0.0
 40
0.0
 40
0.0
 40
0.25
 40
0.25
 40
0.25
 40
0.25
 40
0.5
 40
0.5
 40
0.5
 40
0.5
 40
0.75
 40
0.75
 40
0.75
 40
0.75
 40
1.0
 40
1.0
 40
1.0
 40
1.0
 10
-10.51254
 20
-15.43926
 30
0.0
 10
-10.51254
 20
-15.43926
 30
0.0
 10
-10.50325
 20
-15.43926
 30
0.0
 10
-10.50325
 20
-15.43926
 30
0.0
 10
-10.50325
 20
-15.43926
 30
0.0
 10
-10.50325
 20
-15.43926
 30
0.0
 10
-10.54164
 20
-15.52145
 30
0.0
 10
-10.54164
 20
-15.52145
 30
0.0
 10
-10.54164
 20
-15.52145
 30
0.0
 10
-10.54164
 20
-15.52145
 30
0.0
 10
-10.55098
 20
-15.52145
 30
0.0
 10
-10.55098
 20
-15.52145
 30
0.0
 10
-10.55098
 20
-15.52145
 30
0.0
 10
-10.55098
 20
-15.52145
 30
0.0
 10
-10.51254
 20
-15.43926
 30
0.0
 10
-10.51254
 20
-15.43926
 30
0.0
  0
SPLINE
  5
96
330
1F
100
AcDbEntity
  8
Layer 1
 62
   250
100
AcDbSpline
210
0.0
220
0.0
230
1.0
 70
    11
 71
     3
 72
    76
 73
    72
 74
     0
 42
0.0000000001
 43
0.0000000001
 40
0.0
 40
0.0
 40
0.0
 40
0.0
 40
0.0555555555555556
 40
0.0555555555555556
 40
0.0555555555555556
 40
0.0555555555555556
 40
0.1111111111111111
 40
0.1111111111111111
 40
0.1111111111111111
 40
0.1111111111111111
 40
0.1666666666666667
 40
0.1666666666666667
 40
0.1666666666666667
 40
0.1666666666666667
 40
0.2222222222222222
 40
0.2222222222222222
 40
0.2222222222222222
 40
0.2222222222222222
 40
0.2777777777777778
 40
0.2777777777777778
 40
0.2777777777777778
 40
0.2777777777777778
 40
0.3333333333333334
 40
0.3333333333333334
 40
0.3333333333333334
 40
0.3333333333333334
 40
0.388888888888889
 40
0.388888888888889
 40
0.388888888888889
 40
0.388888888888889
 40
0.4444444444444445
 40
0.4444444444444445
 40
0.4444444444444445
 40
0.4444444444444445
 40
0.5000000000000001
 40
0.5000000000000001
 40
0.5000000000000001
 40
0.5000000000000001
 40
0.5555555555555557
 40
0.5555555555555557
 40
0.5555555555555557
 40
0.5555555555555557
 40
0.6111111111111113
 40
0.6111111111111113
 40
0.6111111111111113
 40
0.6111111111111113
 40
0.6666666666666669
 40
0.6666666666666669
 40
0.6666666666666669
 40
0.6666666666666669
 40
0.7222222222222224
 40
0.7222222222222224
 40
0.7222222222222224
 40
0.7222222222222224
 40
0.777777777777778
 40
0.777777777777778
 40
0.777777777777778
 40
0.777777777777778
 40
0.8333333333333336
 40
0.8333333333333336
 40
0.8333333333333336
 40
0.8333333333333336
 40
0.8888888888888892
 40
0.8888888888888892
 40
0.8888888888888892
 40
0.8888888888888892
 40
0.9444444444444448
 40
0.9444444444444448
 40
0.9444444444444448
 40
0.9444444444444448
 40
1.0
 40
1.0
 40
1.0
 40
1.0
 10
-10.44296
 20
-15.51007
 30
0.0
 10
-10.44524
 20
-15.51124
 30
0.0
 10
-10.44763
 20
-15.51212
 30
0.0
 10
-10.45015
 20
-15.5127
 30
0.0
 10
-10.45015
 20
-15.5127
 30
0.0
 10
-10.45265
 20
-15.51329
 30
0.0
 10
-10.45528
 20
-15.51359
 30
0.0
 10
-10.45805
 20
-15.51359
 30
0.0
 10
-10.45805
 20
-15.51359
 30
0.0
 10
-10.46788
 20
-15.51359
 30
0.0
 10
-10.4754
 20
-15.51035
 30
0.0
 10
-10.48057
 20
-15.50387
 30
0.0
 10
-10.48057
 20
-15.50387
 30
0.0
 10
-10.48575
 20
-15.49739
 30
0.0
 10
-10.48833
 20
-15.48803
 30
0.0
 10
-10.48833
 20
-15.47578
 30
0.0
 10
-10.48833
 20
-15.47578
 30
0.0
 10
-10.48833
 20
-15.46352
 30
0.0
 10
-10.48575
 20
-15.45415
 30
0.0
 10
-10.48057
 20
-15.44766
 30
0.0
 10
-10.48057
 20
-15.44766
 30
0.0
 10
-10.4754
 20
-15.44118
 30
0.0
 10
-10.46788
 20
-15.43795
 30
0.0
 10
-10.45805
 20
-15.43795
 30
0.0
 10
-10.45805
 20
-15.43795
 30
0.0
 10
-10.45528
 20
-15.43795
 30
0.0
 10
-10.45263
 20
-15.43825
 30
0.0
 10
-10.4501
 20
-15.43883
 30
0.0
 10
-10.4501
 20
-15.43883
 30
0.0
 10
-10.44755
 20
-15.43941
 30
0.0
 10
-10.44518
 20
-15.4403
 30
0.0
 10
-10.44296
 20
-15.44146
 30
0.0
 10
-10.44296
 20
-15.44146
 30
0.0
 10
-10.44296
 20
-15.44146
 30
0.0
 10
-10.44296
 20
-15.45748
 30
0.0
 10
-10.44296
 20
-15.45748
 30
0.0
 10
-10.44296
 20
-15.45748
 30
0.0
 10
-10.44543
 20
-15.4552
 30
0.0
 10
-10.44785
 20
-15.45353
 30
0.0
 10
-10.45016
 20
-15.45246
 30
0.0
 10
-10.45016
 20
-15.45246
 30
0.0
 10
-10.4525
 20
-15.45141
 30
0.0
 10
-10.4549
 20
-15.45088
 30
0.0
 10
-10.45738
 20
-15.45088
 30
0.0
 10
-10.45738
 20
-15.45088
 30
0.0
 10
-10.46265
 20
-15.45088
 30
0.0
 10
-10.46663
 20
-15.45298
 30
0.0
 10
-10.46931
 20
-15.45716
 30
0.0
 10
-10.46931
 20
-15.45716
 30
0.0
 10
-10.472
 20
-15.46135
 30
0.0
 10
-10.47335
 20
-15.46755
 30
0.0
 10
-10.47335
 20
-15.47578
 30
0.0
 10
-10.47335
 20
-15.47578
 30
0.0
 10
-10.47335
 20
-15.484
 30
0.0
 10
-10.472
 20
-15.49018
 30
0.0
 10
-10.46931
 20
-15.49437
 30
0.0
 10
-10.46931
 20
-15.49437
 30
0.0
 10
-10.46663
 20
-15.49855
 30
0.0
 10
-10.46265
 20
-15.50065
 30
0.0
 10
-10.45738
 20
-15.50065
 30
0.0
 10
-10.45738
 20
-15.50065
 30
0.0
 10
-10.4549
 20
-15.50065
 30
0.0
 10
-10.4525
 20
-15.50012
 30
0.0
 10
-10.45016
 20
-15.49907
 30
0.0
 10
-10.45016
 20
-15.49907
 30
0.0
 10
-10.44785
 20
-15.498
 30
0.0
 10
-10.44543
 20
-15.49634
 30
0.0
 10
-10.44296
 20
-15.49405
 30
0.0
 10
-10.44296
 20
-15.49405
 30
0.0
 10
-10.44296
 20
-15.49405
 30
0.0
 10
-10.44296
 20
-15.51007
 30
0.0
 10
-10.44296
 20
-15.51007
 30
0.0
  0
SPLINE
  5
97
330
1F
100
AcDbEntity
  8
Layer 1
 62
   250
100
AcDbSpline
210
0.0
220
0.0
230
1.0
 70
    11
 71
     3
 72
    16
 73
    12
 74
     0
 42
0.0000000001
 43
0.0000000001
 40
0.0
 40
0.0
 40
0.0
 40
0.0
 40
0.3333333333333333
 40
0.3333333333333333
 40
0.3333333333333333
 40
0.3333333333333333
 40
0.6666666666666666
 40
0.6666666666666666
 40
0.6666666666666666
 40
0.6666666666666666
 40
1.0
 40
1.0
 40
1.0
 40
1.0
 10
-10.40164
 20
-15.45528
 30
0.0
 10
-10.40164
 20
-15.45528
 30
0.0
 10
-10.42006
 20
-15.48408
 30
0.0
 10
-10.42006
 20
-15.48408
 30
0.0
 10
-10.42006
 20
-15.48408
 30
0.0
 10
-10.42006
 20
-15.48408
 30
0.0
 10
-10.40164
 20
-15.48408
 30
0.0
 10
-10.40164
 20
-15.48408
 30
0.0
 10
-10.40164
 20
-15.48408
 30
0.0
 10
-10.40164
 20
-15.48408
 30
0.0
 10
-10.40164
 20
-15.45528
 30
0.0
 10
-10.40164
 20
-15.45528
 30
0.0
  0
SPLINE
  5
98
330
1F
100
AcDbEntity
  8
Layer 1
 62
   250
100
AcDbSpline
210
0.0
220
0.0
230
1.0
 70
    11
 71
     3
 72
    48
 73
    44
 74
     0
 42
0.0000000001
 43
0.0000000001
 40
0.0
 40
0.0
 40
0.0
 40
0.0
 40
0.0909090909090909
 40
0.0909090909090909
 40
0.0909090909090909
 40
0.0909090909090909
 40
0.1818181818181818
 40
0.1818181818181818
 40
0.1818181818181818
 40
0.1818181818181818
 40
0.2727272727272727
 40
0.2727272727272727
 40
0.2727272727272727
 40
0.2727272727272727
 40
0.3636363636363636
 40
0.3636363636363636
 40
0.3636363636363636
 40
0.3636363636363636
 40
0.4545454545454546
 40
0.4545454545454546
 40
0.4545454545454546
 40
0.4545454545454546
 40
0.5454545454545455
 40
0.5454545454545455
 40
0.5454545454545455
 40
0.5454545454545455
 40
0.6363636363636365
 40
0.6363636363636365
 40
0.6363636363636365
 40
0.6363636363636365
 40
0.7272727272727274
 40
0.7272727272727274
 40
0.7272727272727274
 40
0.7272727272727274
 40
0.8181818181818183
 40
0.8181818181818183
 40
0.8181818181818183
 40
0.8181818181818183
 40
0.9090909090909093
 40
0.9090909090909093
 40
0.9090909090909093
 40
0.9090909090909093
 40
1.0
 40
1.0
 40
1.0
 40
1.0
 10
-10.4029
 20
-15.43926
 30
0.0
 10
-10.4029
 20
-15.43926
 30
0.0
 10
-10.38782
 20
-15.43926
 30
0.0
 10
-10.38782
 20
-15.43926
 30
0.0
 10
-10.38782
 20
-15.43926
 30
0.0
 10
-10.38782
 20
-15.43926
 30
0.0
 10
-10.38782
 20
-15.48408
 30
0.0
 10
-10.38782
 20
-15.48408
 30
0.0
 10
-10.38782
 20
-15.48408
 30
0.0
 10
-10.38782
 20
-15.48408
 30
0.0
 10
-10.37982
 20
-15.48408
 30
0.0
 10
-10.37982
 20
-15.48408
 30
0.0
 10
-10.37982
 20
-15.48408
 30
0.0
 10
-10.37982
 20
-15.48408
 30
0.0
 10
-10.37982
 20
-15.49644
 30
0.0
 10
-10.37982
 20
-15.49644
 30
0.0
 10
-10.37982
 20
-15.49644
 30
0.0
 10
-10.37982
 20
-15.49644
 30
0.0
 10
-10.38782
 20
-15.49644
 30
0.0
 10
-10.38782
 20
-15.49644
 30
0.0
 10
-10.38782
 20
-15.49644
 30
0.0
 10
-10.38782
 20
-15.49644
 30
0.0
 10
-10.38782
 20
-15.51217
 30
0.0
 10
-10.38782
 20
-15.51217
 30
0.0
 10
-10.38782
 20
-15.51217
 30
0.0
 10
-10.38782
 20
-15.51217
 30
0.0
 10
-10.40164
 20
-15.51217
 30
0.0
 10
-10.40164
 20
-15.51217
 30
0.0
 10
-10.40164
 20
-15.51217
 30
0.0
 10
-10.40164
 20
-15.51217
 30
0.0
 10
-10.40164
 20
-15.49644
 30
0.0
 10
-10.40164
 20
-15.49644
 30
0.0
 10
-10.40164
 20
-15.49644
 30
0.0
 10
-10.40164
 20
-15.49644
 30
0.0
 10
-10.43056
 20
-15.49644
 30
0.0
 10
-10.43056
 20
-15.49644
 30
0.0
 10
-10.43056
 20
-15.49644
 30
0.0
 10
-10.43056
 20
-15.49644
 30
0.0
 10
-10.43056
 20
-15.48247
 30
0.0
 10
-10.43056
 20
-15.48247
 30
0.0
 10
-10.43056
 20
-15.48247
 30
0.0
 10
-10.43056
 20
-15.48247
 30
0.0
 10
-10.4029
 20
-15.43926
 30
0.0
 10
-10.4029
 20
-15.43926
 30
0.0
  0
SPLINE
  5
99
330
1F
100
AcDbEntity
  8
Layer 1
 62
   250
100
AcDbSpline
210
0.0
220
0.0
230
1.0
 70
    11
 71
     3
 72
    88
 73
    84
 74
     0
 42
0.0000000001
 43
0.0000000001
 40
0.0
 40
0.0
 40
0.0
 40
0.0
 40
0.0476190476190476
 40
0.0476190476190476
 40
0.0476190476190476
 40
0.0476190476190476
 40
0.0952380952380952
 40
0.0952380952380952
 40
0.0952380952380952
 40
0.0952380952380952
 40
0.1428571428571428
 40
0.1428571428571428
 40
0.1428571428571428
 40
0.1428571428571428
 40
0.1904761904761905
 40
0.1904761904761905
 40
0.1904761904761905
 40
0.1904761904761905
 40
0.2380952380952381
 40
0.2380952380952381
 40
0.2380952380952381
 40
0.2380952380952381
 40
0.2857142857142857
 40
0.2857142857142857
 40
0.2857142857142857
 40
0.2857142857142857
 40
0.3333333333333333
 40
0.3333333333333333
 40
0.3333333333333333
 40
0.3333333333333333
 40
0.3809523809523809
 40
0.3809523809523809
 40
0.3809523809523809
 40
0.3809523809523809
 40
0.4285714285714285
 40
0.4285714285714285
 40
0.4285714285714285
 40
0.4285714285714285
 40
0.4761904761904762
 40
0.4761904761904762
 40
0.4761904761904762
 40
0.4761904761904762
 40
0.5238095238095237
 40
0.5238095238095237
 40
0.5238095238095237
 40
0.5238095238095237
 40
0.5714285714285714
 40
0.5714285714285714
 40
0.5714285714285714
 40
0.5714285714285714
 40
0.6190476190476191
 40
0.6190476190476191
 40
0.6190476190476191
 40
0.6190476190476191
 40
0.6666666666666667
 40
0.6666666666666667
 40
0.6666666666666667
 40
0.6666666666666667
 40
0.7142857142857144
 40
0.7142857142857144
 40
0.7142857142857144
 40
0.7142857142857144
 40
0.7619047619047621
 40
0.7619047619047621
 40
0.7619047619047621
 40
0.7619047619047621
 40
0.8095238095238098
 40
0.8095238095238098
 40
0.8095238095238098
 40
0.8095238095238098
 40
0.8571428571428574
 40
0.8571428571428574
 40
0.8571428571428574
 40
0.8571428571428574
 40
0.9047619047619051
 40
0.9047619047619051
 40
0.9047619047619051
 40
0.9047619047619051
 40
0.9523809523809528
 40
0.9523809523809528
 40
0.9523809523809528
 40
0.9523809523809528
 40
1.0
 40
1.0
 40
1.0
 40
1.0
 10
-10.35414
 20
-15.49947
 30
0.0
 10
-10.35414
 20
-15.49947
 30
0.0
 10
-10.32342
 20
-15.49947
 30
0.0
 10
-10.32342
 20
-15.49947
 30
0.0
 10
-10.32342
 20
-15.49947
 30
0.0
 10
-10.32342
 20
-15.49947
 30
0.0
 10
-10.32342
 20
-15.51217
 30
0.0
 10
-10.32342
 20
-15.51217
 30
0.0
 10
-10.32342
 20
-15.51217
 30
0.0
 10
-10.32342
 20
-15.51217
 30
0.0
 10
-10.36971
 20
-15.51217
 30
0.0
 10
-10.36971
 20
-15.51217
 30
0.0
 10
-10.36971
 20
-15.51217
 30
0.0
 10
-10.36971
 20
-15.51217
 30
0.0
 10
-10.36971
 20
-15.49985
 30
0.0
 10
-10.36971
 20
-15.49985
 30
0.0
 10
-10.36971
 20
-15.49985
 30
0.0
 10
-10.36971
 20
-15.49985
 30
0.0
 10
-10.3619
 20
-15.49157
 30
0.0
 10
-10.3619
 20
-15.49157
 30
0.0
 10
-10.3619
 20
-15.49157
 30
0.0
 10
-10.35263
 20
-15.4817
 30
0.0
 10
-10.34699
 20
-15.47563
 30
0.0
 10
-10.34501
 20
-15.47335
 30
0.0
 10
-10.34501
 20
-15.47335
 30
0.0
 10
-10.34258
 20
-15.47055
 30
0.0
 10
-10.34081
 20
-15.46807
 30
0.0
 10
-10.33974
 20
-15.4659
 30
0.0
 10
-10.33974
 20
-15.4659
 30
0.0
 10
-10.33866
 20
-15.46373
 30
0.0
 10
-10.33813
 20
-15.4616
 30
0.0
 10
-10.33813
 20
-15.45948
 30
0.0
 10
-10.33813
 20
-15.45948
 30
0.0
 10
-10.33813
 20
-15.45623
 30
0.0
 10
-10.33911
 20
-15.45371
 30
0.0
 10
-10.34108
 20
-15.45195
 30
0.0
 10
-10.34108
 20
-15.45195
 30
0.0
 10
-10.34304
 20
-15.45016
 30
0.0
 10
-10.34584
 20
-15.44928
 30
0.0
 10
-10.34944
 20
-15.44928
 30
0.0
 10
-10.34944
 20
-15.44928
 30
0.0
 10
-10.35203
 20
-15.44928
 30
0.0
 10
-10.35491
 20
-15.4498
 30
0.0
 10
-10.35811
 20
-15.45081
 30
0.0
 10
-10.35811
 20
-15.45081
 30
0.0
 10
-10.36133
 20
-15.45185
 30
0.0
 10
-10.36466
 20
-15.45333
 30
0.0
 10
-10.36815
 20
-15.45528
 30
0.0
 10
-10.36815
 20
-15.45528
 30
0.0
 10
-10.36815
 20
-15.45528
 30
0.0
 10
-10.36815
 20
-15.44185
 30
0.0
 10
-10.36815
 20
-15.44185
 30
0.0
 10
-10.36815
 20
-15.44185
 30
0.0
 10
-10.36466
 20
-15.44058
 30
0.0
 10
-10.36126
 20
-15.43961
 30
0.0
 10
-10.35791
 20
-15.43895
 30
0.0
 10
-10.35791
 20
-15.43895
 30
0.0
 10
-10.35458
 20
-15.43828
 30
0.0
 10
-10.35138
 20
-15.43795
 30
0.0
 10
-10.34833
 20
-15.43795
 30
0.0
 10
-10.34833
 20
-15.43795
 30
0.0
 10
-10.34061
 20
-15.43795
 30
0.0
 10
-10.33454
 20
-15.43975
 30
0.0
 10
-10.33014
 20
-15.44335
 30
0.0
 10
-10.33014
 20
-15.44335
 30
0.0
 10
-10.32573
 20
-15.44693
 30
0.0
 10
-10.32352
 20
-15.45185
 30
0.0
 10
-10.32352
 20
-15.45806
 30
0.0
 10
-10.32352
 20
-15.45806
 30
0.0
 10
-10.32352
 20
-15.46093
 30
0.0
 10
-10.32401
 20
-15.46362
 30
0.0
 10
-10.32496
 20
-15.46612
 30
0.0
 10
-10.32496
 20
-15.46612
 30
0.0
 10
-10.32593
 20
-15.46863
 30
0.0
 10
-10.32758
 20
-15.47142
 30
0.0
 10
-10.32993
 20
-15.47447
 30
0.0
 10
-10.32993
 20
-15.47447
 30
0.0
 10
-10.33164
 20
-15.47668
 30
0.0
 10
-10.33638
 20
-15.48167
 30
0.0
 10
-10.34413
 20
-15.48942
 30
0.0
 10
-10.34413
 20
-15.48942
 30
0.0
 10
-10.34833
 20
-15.4936
 30
0.0
 10
-10.35166
 20
-15.49697
 30
0.0
 10
-10.35414
 20
-15.49947
 30
0.0
  0
SPLINE
  5
9A
330
1F
100
AcDbEntity
  8
Layer 1
 62
   250
100
AcDbSpline
210
0.0
220
0.0
230
1.0
 70
    11
 71
     3
 72
    44
 73
    40
 74
     0
 42
0.0000000001
 43
0.0000000001
 40
0.0
 40
0.0
 40
0.0
 40
0.0
 40
0.1
 40
0.1
 40
0.1
 40
0.1
 40
0.2
 40
0.2
 40
0.2
 40
0.2
 40
0.3
 40
0.3
 40
0.3
 40
0.3
 40
0.4
 40
0.4
 40
0.4
 40
0.4
 40
0.5
 40
0.5
 40
0.5
 40
0.5
 40
0.6
 40
0.6
 40
0.6
 40
0.6
 40
0.7
 40
0.7
 40
0.7
 40
0.7
 40
0.7999999999999999
 40
0.7999999999999999
 40
0.7999999999999999
 40
0.7999999999999999
 40
0.8999999999999999
 40
0.8999999999999999
 40
0.8999999999999999
 40
0.8999999999999999
 40
1.0
 40
1.0
 40
1.0
 40
1.0
 10
-10.3093
 20
-15.43926
 30
0.0
 10
-10.3093
 20
-15.43926
 30
0.0
 10
-10.29382
 20
-15.43926
 30
0.0
 10
-10.29382
 20
-15.43926
 30
0.0
 10
-10.29382
 20
-15.43926
 30
0.0
 10
-10.29382
 20
-15.43926
 30
0.0
 10
-10.27352
 20
-15.49225
 30
0.0
 10
-10.27352
 20
-15.49225
 30
0.0
 10
-10.27352
 20
-15.49225
 30
0.0
 10
-10.27352
 20
-15.49225
 30
0.0
 10
-10.27352
 20
-15.43926
 30
0.0
 10
-10.27352
 20
-15.43926
 30
0.0
 10
-10.27352
 20
-15.43926
 30
0.0
 10
-10.27352
 20
-15.43926
 30
0.0
 10
-10.26081
 20
-15.43926
 30
0.0
 10
-10.26081
 20
-15.43926
 30
0.0
 10
-10.26081
 20
-15.43926
 30
0.0
 10
-10.26081
 20
-15.43926
 30
0.0
 10
-10.26081
 20
-15.51217
 30
0.0
 10
-10.26081
 20
-15.51217
 30
0.0
 10
-10.26081
 20
-15.51217
 30
0.0
 10
-10.26081
 20
-15.51217
 30
0.0
 10
-10.2762
 20
-15.51217
 30
0.0
 10
-10.2762
 20
-15.51217
 30
0.0
 10
-10.2762
 20
-15.51217
 30
0.0
 10
-10.2762
 20
-15.51217
 30
0.0
 10
-10.2966
 20
-15.45918
 30
0.0
 10
-10.2966
 20
-15.45918
 30
0.0
 10
-10.2966
 20
-15.45918
 30
0.0
 10
-10.2966
 20
-15.45918
 30
0.0
 10
-10.2966
 20
-15.51217
 30
0.0
 10
-10.2966
 20
-15.51217
 30
0.0
 10
-10.2966
 20
-15.51217
 30
0.0
 10
-10.2966
 20
-15.51217
 30
0.0
 10
-10.3093
 20
-15.51217
 30
0.0
 10
-10.3093
 20
-15.51217
 30
0.0
 10
-10.3093
 20
-15.51217
 30
0.0
 10
-10.3093
 20
-15.51217
 30
0.0
 10
-10.3093
 20
-15.43926
 30
0.0
 10
-10.3093
 20
-15.43926
 30
0.0
  0
SPLINE
  5
9B
330
1F
100
AcDbEntity
  8
Layer 1
 62
   250
100
AcDbSpline
210
0.0
220
0.0
230
1.0
 70
    11
 71
     3
 72
    36
 73
    32
 74
     0
 42
0.0000000001
 43
0.0000000001
 40
0.0
 40
0.0
 40
0.0
 40
0.0
 40
0.125
 40
0.125
 40
0.125
 40
0.125
 40
0.25
 40
0.25
 40
0.25
 40
0.25
 40
0.375
 40
0.375
 40
0.375
 40
0.375
 40
0.5
 40
0.5
 40
0.5
 40
0.5
 40
0.625
 40
0.625
 40
0.625
 40
0.625
 40
0.75
 40
0.75
 40
0.75
 40
0.75
 40
0.875
 40
0.875
 40
0.875
 40
0.875
 40
1.0
 40
1.0
 40
1.0
 40
1.0
 10
-10.23089
 20
-15.47578
 30
0.0
 10
-10.23089
 20
-15.47407
 30
0.0
 10
-10.23031
 20
-15.47262
 30
0.0
 10
-10.22912
 20
-15.47145
 30
0.0
 10
-10.22912
 20
-15.47145
 30
0.0
 10
-10.22796
 20
-15.47027
 30
0.0
 10
-10.22652
 20
-15.46968
 30
0.0
 10
-10.22482
 20
-15.46968
 30
0.0
 10
-10.22482
 20
-15.46968
 30
0.0
 10
-10.22311
 20
-15.46968
 30
0.0
 10
-10.22166
 20
-15.47027
 30
0.0
 10
-10.22049
 20
-15.47145
 30
0.0
 10
-10.22049
 20
-15.47145
 30
0.0
 10
-10.21931
 20
-15.47262
 30
0.0
 10
-10.21872
 20
-15.47407
 30
0.0
 10
-10.21872
 20
-15.47578
 30
0.0
 10
-10.21872
 20
-15.47578
 30
0.0
 10
-10.21872
 20
-15.47748
 30
0.0
 10
-10.21931
 20
-15.47892
 30
0.0
 10
-10.22049
 20
-15.48008
 30
0.0
 10
-10.22049
 20
-15.48008
 30
0.0
 10
-10.22166
 20
-15.48127
 30
0.0
 10
-10.22311
 20
-15.48185
 30
0.0
 10
-10.22482
 20
-15.48185
 30
0.0
 10
-10.22482
 20
-15.48185
 30
0.0
 10
-10.22652
 20
-15.48185
 30
0.0
 10
-10.22796
 20
-15.48127
 30
0.0
 10
-10.22912
 20
-15.48012
 30
0.0
 10
-10.22912
 20
-15.48012
 30
0.0
 10
-10.23031
 20
-15.47897
 30
0.0
 10
-10.23089
 20
-15.47752
 30
0.0
 10
-10.23089
 20
-15.47578
 30
0.0
  0
SPLINE
  5
9C
330
1F
100
AcDbEntity
  8
Layer 1
 62
   250
100
AcDbSpline
210
0.0
220
0.0
230
1.0
 70
    11
 71
     3
 72
    36
 73
    32
 74
     0
 42
0.0000000001
 43
0.0000000001
 40
0.0
 40
0.0
 40
0.0
 40
0.0
 40
0.125
 40
0.125
 40
0.125
 40
0.125
 40
0.25
 40
0.25
 40
0.25
 40
0.25
 40
0.375
 40
0.375
 40
0.375
 40
0.375
 40
0.5
 40
0.5
 40
0.5
 40
0.5
 40
0.625
 40
0.625
 40
0.625
 40
0.625
 40
0.75
 40
0.75
 40
0.75
 40
0.75
 40
0.875
 40
0.875
 40
0.875
 40
0.875
 40
1.0
 40
1.0
 40
1.0
 40
1.0
 10
-10.22482
 20
-15.45015
 30
0.0
 10
-10.22816
 20
-15.45015
 30
0.0
 10
-10.23057
 20
-15.45218
 30
0.0
 10
-10.23211
 20
-15.45625
 30
0.0
 10
-10.23211
 20
-15.45625
 30
0.0
 10
-10.23364
 20
-15.46033
 30
0.0
 10
-10.23441
 20
-15.46683
 30
0.0
 10
-10.23441
 20
-15.47578
 30
0.0
 10
-10.23441
 20
-15.47578
 30
0.0
 10
-10.23441
 20
-15.48472
 30
0.0
 10
-10.23364
 20
-15.4912
 30
0.0
 10
-10.23211
 20
-15.49528
 30
0.0
 10
-10.23211
 20
-15.49528
 30
0.0
 10
-10.23057
 20
-15.49935
 30
0.0
 10
-10.22816
 20
-15.50139
 30
0.0
 10
-10.22482
 20
-15.50139
 30
0.0
 10
-10.22482
 20
-15.50139
 30
0.0
 10
-10.22147
 20
-15.50139
 30
0.0
 10
-10.21904
 20
-15.49935
 30
0.0
 10
-10.21751
 20
-15.49528
 30
0.0
 10
-10.21751
 20
-15.49528
 30
0.0
 10
-10.21597
 20
-15.4912
 30
0.0
 10
-10.21521
 20
-15.48472
 30
0.0
 10
-10.21521
 20
-15.47578
 30
0.0
 10
-10.21521
 20
-15.47578
 30
0.0
 10
-10.21521
 20
-15.46683
 30
0.0
 10
-10.21597
 20
-15.46033
 30
0.0
 10
-10.21751
 20
-15.45625
 30
0.0
 10
-10.21751
 20
-15.45625
 30
0.0
 10
-10.21904
 20
-15.45218
 30
0.0
 10
-10.22147
 20
-15.45015
 30
0.0
 10
-10.22482
 20
-15.45015
 30
0.0
  0
SPLINE
  5
9D
330
1F
100
AcDbEntity
  8
Layer 1
 62
   250
100
AcDbSpline
210
0.0
220
0.0
230
1.0
 70
    11
 71
     3
 72
    36
 73
    32
 74
     0
 42
0.0000000001
 43
0.0000000001
 40
0.0
 40
0.0
 40
0.0
 40
0.0
 40
0.125
 40
0.125
 40
0.125
 40
0.125
 40
0.25
 40
0.25
 40
0.25
 40
0.25
 40
0.375
 40
0.375
 40
0.375
 40
0.375
 40
0.5
 40
0.5
 40
0.5
 40
0.5
 40
0.625
 40
0.625
 40
0.625
 40
0.625
 40
0.75
 40
0.75
 40
0.75
 40
0.75
 40
0.875
 40
0.875
 40
0.875
 40
0.875
 40
1.0
 40
1.0
 40
1.0
 40
1.0
 10
-10.24891
 20
-15.47578
 30
0.0
 10
-10.24891
 20
-15.46317
 30
0.0
 10
-10.24691
 20
-15.4537
 30
0.0
 10
-10.24291
 20
-15.4474
 30
0.0
 10
-10.24291
 20
-15.4474
 30
0.0
 10
-10.23889
 20
-15.4411
 30
0.0
 10
-10.23287
 20
-15.43795
 30
0.0
 10
-10.22482
 20
-15.43795
 30
0.0
 10
-10.22482
 20
-15.43795
 30
0.0
 10
-10.21676
 20
-15.43795
 30
0.0
 10
-10.21072
 20
-15.44108
 30
0.0
 10
-10.20671
 20
-15.44736
 30
0.0
 10
-10.20671
 20
-15.44736
 30
0.0
 10
-10.2027
 20
-15.45365
 30
0.0
 10
-10.2007
 20
-15.46313
 30
0.0
 10
-10.2007
 20
-15.47578
 30
0.0
 10
-10.2007
 20
-15.47578
 30
0.0
 10
-10.2007
 20
-15.48842
 30
0.0
 10
-10.2027
 20
-15.49789
 30
0.0
 10
-10.20671
 20
-15.50417
 30
0.0
 10
-10.20671
 20
-15.50417
 30
0.0
 10
-10.21072
 20
-15.51045
 30
0.0
 10
-10.21676
 20
-15.51359
 30
0.0
 10
-10.22482
 20
-15.51359
 30
0.0
 10
-10.22482
 20
-15.51359
 30
0.0
 10
-10.23287
 20
-15.51359
 30
0.0
 10
-10.23889
 20
-15.51044
 30
0.0
 10
-10.24291
 20
-15.50414
 30
0.0
 10
-10.24291
 20
-15.50414
 30
0.0
 10
-10.24691
 20
-15.49784
 30
0.0
 10
-10.24891
 20
-15.48838
 30
0.0
 10
-10.24891
 20
-15.47578
 30
0.0
  0
SPLINE
  5
9E
330
1F
100
AcDbEntity
  8
Layer 1
 62
   250
100
AcDbSpline
210
0.0
220
0.0
230
1.0
 70
    11
 71
     3
 72
    36
 73
    32
 74
     0
 42
0.0000000001
 43
0.0000000001
 40
0.0
 40
0.0
 40
0.0
 40
0.0
 40
0.125
 40
0.125
 40
0.125
 40
0.125
 40
0.25
 40
0.25
 40
0.25
 40
0.25
 40
0.375
 40
0.375
 40
0.375
 40
0.375
 40
0.5
 40
0.5
 40
0.5
 40
0.5
 40
0.625
 40
0.625
 40
0.625
 40
0.625
 40
0.75
 40
0.75
 40
0.75
 40
0.75
 40
0.875
 40
0.875
 40
0.875
 40
0.875
 40
1.0
 40
1.0
 40
1.0
 40
1.0
 10
-10.17068
 20
-15.47578
 30
0.0
 10
-10.17068
 20
-15.47407
 30
0.0
 10
-10.1701
 20
-15.47262
 30
0.0
 10
-10.16891
 20
-15.47145
 30
0.0
 10
-10.16891
 20
-15.47145
 30
0.0
 10
-10.16775
 20
-15.47027
 30
0.0
 10
-10.16631
 20
-15.46968
 30
0.0
 10
-10.16461
 20
-15.46968
 30
0.0
 10
-10.16461
 20
-15.46968
 30
0.0
 10
-10.1629
 20
-15.46968
 30
0.0
 10
-10.16145
 20
-15.47027
 30
0.0
 10
-10.16028
 20
-15.47145
 30
0.0
 10
-10.16028
 20
-15.47145
 30
0.0
 10
-10.1591
 20
-15.47262
 30
0.0
 10
-10.15851
 20
-15.47407
 30
0.0
 10
-10.15851
 20
-15.47578
 30
0.0
 10
-10.15851
 20
-15.47578
 30
0.0
 10
-10.15851
 20
-15.47748
 30
0.0
 10
-10.1591
 20
-15.47892
 30
0.0
 10
-10.16028
 20
-15.48008
 30
0.0
 10
-10.16028
 20
-15.48008
 30
0.0
 10
-10.16145
 20
-15.48127
 30
0.0
 10
-10.1629
 20
-15.48185
 30
0.0
 10
-10.16461
 20
-15.48185
 30
0.0
 10
-10.16461
 20
-15.48185
 30
0.0
 10
-10.16631
 20
-15.48185
 30
0.0
 10
-10.16775
 20
-15.48127
 30
0.0
 10
-10.16891
 20
-15.48012
 30
0.0
 10
-10.16891
 20
-15.48012
 30
0.0
 10
-10.1701
 20
-15.47897
 30
0.0
 10
-10.17068
 20
-15.47752
 30
0.0
 10
-10.17068
 20
-15.47578
 30
0.0
  0
SPLINE
  5
9F
330
1F
100
AcDbEntity
  8
Layer 1
 62
   250
100
AcDbSpline
210
0.0
220
0.0
230
1.0
 70
    11
 71
     3
 72
    36
 73
    32
 74
     0
 42
0.0000000001
 43
0.0000000001
 40
0.0
 40
0.0
 40
0.0
 40
0.0
 40
0.125
 40
0.125
 40
0.125
 40
0.125
 40
0.25
 40
0.25
 40
0.25
 40
0.25
 40
0.375
 40
0.375
 40
0.375
 40
0.375
 40
0.5
 40
0.5
 40
0.5
 40
0.5
 40
0.625
 40
0.625
 40
0.625
 40
0.625
 40
0.75
 40
0.75
 40
0.75
 40
0.75
 40
0.875
 40
0.875
 40
0.875
 40
0.875
 40
1.0
 40
1.0
 40
1.0
 40
1.0
 10
-10.16461
 20
-15.45015
 30
0.0
 10
-10.16795
 20
-15.45015
 30
0.0
 10
-10.17036
 20
-15.45218
 30
0.0
 10
-10.1719
 20
-15.45625
 30
0.0
 10
-10.1719
 20
-15.45625
 30
0.0
 10
-10.17343
 20
-15.46033
 30
0.0
 10
-10.1742
 20
-15.46683
 30
0.0
 10
-10.1742
 20
-15.47578
 30
0.0
 10
-10.1742
 20
-15.47578
 30
0.0
 10
-10.1742
 20
-15.48472
 30
0.0
 10
-10.17343
 20
-15.4912
 30
0.0
 10
-10.1719
 20
-15.49528
 30
0.0
 10
-10.1719
 20
-15.49528
 30
0.0
 10
-10.17036
 20
-15.49935
 30
0.0
 10
-10.16795
 20
-15.50139
 30
0.0
 10
-10.16461
 20
-15.50139
 30
0.0
 10
-10.16461
 20
-15.50139
 30
0.0
 10
-10.16126
 20
-15.50139
 30
0.0
 10
-10.15883
 20
-15.49935
 30
0.0
 10
-10.1573
 20
-15.49528
 30
0.0
 10
-10.1573
 20
-15.49528
 30
0.0
 10
-10.15576
 20
-15.4912
 30
0.0
 10
-10.155
 20
-15.48472
 30
0.0
 10
-10.155
 20
-15.47578
 30
0.0
 10
-10.155
 20
-15.47578
 30
0.0
 10
-10.155
 20
-15.46683
 30
0.0
 10
-10.15576
 20
-15.46033
 30
0.0
 10
-10.1573
 20
-15.45625
 30
0.0
 10
-10.1573
 20
-15.45625
 30
0.0
 10
-10.15883
 20
-15.45218
 30
0.0
 10
-10.16126
 20
-15.45015
 30
0.0
 10
-10.16461
 20
-15.45015
 30
0.0
  0
SPLINE
  5
A0
330
1F
100
AcDbEntity
  8
Layer 1
 62
   250
100
AcDbSpline
210
0.0
220
0.0
230
1.0
 70
    11
 71
     3
 72
    36
 73
    32
 74
     0
 42
0.0000000001
 43
0.0000000001
 40
0.0
 40
0.0
 40
0.0
 40
0.0
 40
0.125
 40
0.125
 40
0.125
 40
0.125
 40
0.25
 40
0.25
 40
0.25
 40
0.25
 40
0.375
 40
0.375
 40
0.375
 40
0.375
 40
0.5
 40
0.5
 40
0.5
 40
0.5
 40
0.625
 40
0.625
 40
0.625
 40
0.625
 40
0.75
 40
0.75
 40
0.75
 40
0.75
 40
0.875
 40
0.875
 40
0.875
 40
0.875
 40
1.0
 40
1.0
 40
1.0
 40
1.0
 10
-10.1887
 20
-15.47578
 30
0.0
 10
-10.1887
 20
-15.46317
 30
0.0
 10
-10.1867
 20
-15.4537
 30
0.0
 10
-10.1827
 20
-15.4474
 30
0.0
 10
-10.1827
 20
-15.4474
 30
0.0
 10
-10.17868
 20
-15.4411
 30
0.0
 10
-10.17266
 20
-15.43795
 30
0.0
 10
-10.16461
 20
-15.43795
 30
0.0
 10
-10.16461
 20
-15.43795
 30
0.0
 10
-10.15655
 20
-15.43795
 30
0.0
 10
-10.15051
 20
-15.44108
 30
0.0
 10
-10.1465
 20
-15.44736
 30
0.0
 10
-10.1465
 20
-15.44736
 30
0.0
 10
-10.14249
 20
-15.45365
 30
0.0
 10
-10.14049
 20
-15.46313
 30
0.0
 10
-10.14049
 20
-15.47578
 30
0.0
 10
-10.14049
 20
-15.47578
 30
0.0
 10
-10.14049
 20
-15.48842
 30
0.0
 10
-10.14249
 20
-15.49789
 30
0.0
 10
-10.1465
 20
-15.50417
 30
0.0
 10
-10.1465
 20
-15.50417
 30
0.0
 10
-10.15051
 20
-15.51045
 30
0.0
 10
-10.15655
 20
-15.51359
 30
0.0
 10
-10.16461
 20
-15.51359
 30
0.0
 10
-10.16461
 20
-15.51359
 30
0.0
 10
-10.17266
 20
-15.51359
 30
0.0
 10
-10.17868
 20
-15.51044
 30
0.0
 10
-10.1827
 20
-15.50414
 30
0.0
 10
-10.1827
 20
-15.50414
 30
0.0
 10
-10.1867
 20
-15.49784
 30
0.0
 10
-10.1887
 20
-15.48838
 30
0.0
 10
-10.1887
 20
-15.47578
 30
0.0
  0
SPLINE
  5
A1
330
1F
100
AcDbEntity
  8
Layer 1
 62
   250
100
AcDbSpline
210
0.0
220
0.0
230
1.0
 70
    11
 71
     3
 72
    88
 73
    84
 74
     0
 42
0.0000000001
 43
0.0000000001
 40
0.0
 40
0.0
 40
0.0
 40
0.0
 40
0.0476190476190476
 40
0.0476190476190476
 40
0.0476190476190476
 40
0.0476190476190476
 40
0.0952380952380952
 40
0.0952380952380952
 40
0.0952380952380952
 40
0.0952380952380952
 40
0.1428571428571428
 40
0.1428571428571428
 40
0.1428571428571428
 40
0.1428571428571428
 40
0.1904761904761905
 40
0.1904761904761905
 40
0.1904761904761905
 40
0.1904761904761905
 40
0.2380952380952381
 40
0.2380952380952381
 40
0.2380952380952381
 40
0.2380952380952381
 40
0.2857142857142857
 40
0.2857142857142857
 40
0.2857142857142857
 40
0.2857142857142857
 40
0.3333333333333333
 40
0.3333333333333333
 40
0.3333333333333333
 40
0.3333333333333333
 40
0.3809523809523809
 40
0.3809523809523809
 40
0.3809523809523809
 40
0.3809523809523809
 40
0.4285714285714285
 40
0.4285714285714285
 40
0.4285714285714285
 40
0.4285714285714285
 40
0.4761904761904762
 40
0.4761904761904762
 40
0.4761904761904762
 40
0.4761904761904762
 40
0.5238095238095237
 40
0.5238095238095237
 40
0.5238095238095237
 40
0.5238095238095237
 40
0.5714285714285714
 40
0.5714285714285714
 40
0.5714285714285714
 40
0.5714285714285714
 40
0.6190476190476191
 40
0.6190476190476191
 40
0.6190476190476191
 40
0.6190476190476191
 40
0.6666666666666667
 40
0.6666666666666667
 40
0.6666666666666667
 40
0.6666666666666667
 40
0.7142857142857144
 40
0.7142857142857144
 40
0.7142857142857144
 40
0.7142857142857144
 40
0.7619047619047621
 40
0.7619047619047621
 40
0.7619047619047621
 40
0.7619047619047621
 40
0.8095238095238098
 40
0.8095238095238098
 40
0.8095238095238098
 40
0.8095238095238098
 40
0.8571428571428574
 40
0.8571428571428574
 40
0.8571428571428574
 40
0.8571428571428574
 40
0.9047619047619051
 40
0.9047619047619051
 40
0.9047619047619051
 40
0.9047619047619051
 40
0.9523809523809528
 40
0.9523809523809528
 40
0.9523809523809528
 40
0.9523809523809528
 40
1.0
 40
1.0
 40
1.0
 40
1.0
 10
-10.1133
 20
-15.49947
 30
0.0
 10
-10.1133
 20
-15.49947
 30
0.0
 10
-10.08258
 20
-15.49947
 30
0.0
 10
-10.08258
 20
-15.49947
 30
0.0
 10
-10.08258
 20
-15.49947
 30
0.0
 10
-10.08258
 20
-15.49947
 30
0.0
 10
-10.08258
 20
-15.51217
 30
0.0
 10
-10.08258
 20
-15.51217
 30
0.0
 10
-10.08258
 20
-15.51217
 30
0.0
 10
-10.08258
 20
-15.51217
 30
0.0
 10
-10.12887
 20
-15.51217
 30
0.0
 10
-10.12887
 20
-15.51217
 30
0.0
 10
-10.12887
 20
-15.51217
 30
0.0
 10
-10.12887
 20
-15.51217
 30
0.0
 10
-10.12887
 20
-15.49985
 30
0.0
 10
-10.12887
 20
-15.49985
 30
0.0
 10
-10.12887
 20
-15.49985
 30
0.0
 10
-10.12887
 20
-15.49985
 30
0.0
 10
-10.12106
 20
-15.49157
 30
0.0
 10
-10.12106
 20
-15.49157
 30
0.0
 10
-10.12106
 20
-15.49157
 30
0.0
 10
-10.11179
 20
-15.4817
 30
0.0
 10
-10.10615
 20
-15.47563
 30
0.0
 10
-10.10417
 20
-15.47335
 30
0.0
 10
-10.10417
 20
-15.47335
 30
0.0
 10
-10.10174
 20
-15.47055
 30
0.0
 10
-10.09997
 20
-15.46807
 30
0.0
 10
-10.0989
 20
-15.4659
 30
0.0
 10
-10.0989
 20
-15.4659
 30
0.0
 10
-10.09782
 20
-15.46373
 30
0.0
 10
-10.09729
 20
-15.4616
 30
0.0
 10
-10.09729
 20
-15.45948
 30
0.0
 10
-10.09729
 20
-15.45948
 30
0.0
 10
-10.09729
 20
-15.45623
 30
0.0
 10
-10.09827
 20
-15.45371
 30
0.0
 10
-10.10024
 20
-15.45195
 30
0.0
 10
-10.10024
 20
-15.45195
 30
0.0
 10
-10.1022
 20
-15.45016
 30
0.0
 10
-10.105
 20
-15.44928
 30
0.0
 10
-10.1086
 20
-15.44928
 30
0.0
 10
-10.1086
 20
-15.44928
 30
0.0
 10
-10.11119
 20
-15.44928
 30
0.0
 10
-10.11407
 20
-15.4498
 30
0.0
 10
-10.11727
 20
-15.45081
 30
0.0
 10
-10.11727
 20
-15.45081
 30
0.0
 10
-10.12049
 20
-15.45185
 30
0.0
 10
-10.12382
 20
-15.45333
 30
0.0
 10
-10.12731
 20
-15.45528
 30
0.0
 10
-10.12731
 20
-15.45528
 30
0.0
 10
-10.12731
 20
-15.45528
 30
0.0
 10
-10.12731
 20
-15.44185
 30
0.0
 10
-10.12731
 20
-15.44185
 30
0.0
 10
-10.12731
 20
-15.44185
 30
0.0
 10
-10.12382
 20
-15.44058
 30
0.0
 10
-10.12042
 20
-15.43961
 30
0.0
 10
-10.11707
 20
-15.43895
 30
0.0
 10
-10.11707
 20
-15.43895
 30
0.0
 10
-10.11374
 20
-15.43828
 30
0.0
 10
-10.11054
 20
-15.43795
 30
0.0
 10
-10.10749
 20
-15.43795
 30
0.0
 10
-10.10749
 20
-15.43795
 30
0.0
 10
-10.09977
 20
-15.43795
 30
0.0
 10
-10.0937
 20
-15.43975
 30
0.0
 10
-10.0893
 20
-15.44335
 30
0.0
 10
-10.0893
 20
-15.44335
 30
0.0
 10
-10.08489
 20
-15.44693
 30
0.0
 10
-10.08268
 20
-15.45185
 30
0.0
 10
-10.08268
 20
-15.45806
 30
0.0
 10
-10.08268
 20
-15.45806
 30
0.0
 10
-10.08268
 20
-15.46093
 30
0.0
 10
-10.08317
 20
-15.46362
 30
0.0
 10
-10.08412
 20
-15.46612
 30
0.0
 10
-10.08412
 20
-15.46612
 30
0.0
 10
-10.08509
 20
-15.46863
 30
0.0
 10
-10.08674
 20
-15.47142
 30
0.0
 10
-10.08909
 20
-15.47447
 30
0.0
 10
-10.08909
 20
-15.47447
 30
0.0
 10
-10.0908
 20
-15.47668
 30
0.0
 10
-10.09554
 20
-15.48167
 30
0.0
 10
-10.10329
 20
-15.48942
 30
0.0
 10
-10.10329
 20
-15.48942
 30
0.0
 10
-10.10749
 20
-15.4936
 30
0.0
 10
-10.11082
 20
-15.49697
 30
0.0
 10
-10.1133
 20
-15.49947
 30
0.0
  0
ENDSEC
  0
SECTION
  2
OBJECTS
  0
DICTIONARY
  5
C
330
0
100
AcDbDictionary
281
     1
  3
ACAD_GROUP
350
D
  3
ACAD_LAYOUT
350
1A
  3
ACAD_MLEADERSTYLE
350
A3
  3
ACAD_MLINESTYLE
350
17
  3
ACAD_PLOTSETTINGS
350
19
  3
ACAD_PLOTSTYLENAME
350
E
  3
ACAD_SCALELIST
350
3B
  3
ACAD_TABLESTYLE
350
A2
  3
ACAD_VISUALSTYLE
350
2A
  0
DICTIONARY
  5
D
102
{ACAD_REACTORS
330
C
102
}
330
C
100
AcDbDictionary
281
     1
  0
DICTIONARY
  5
1A
102
{ACAD_REACTORS
330
C
102
}
330
C
100
AcDbDictionary
281
     1
  3
Layout1
350
1E
  3
Layout2
350
26
  3
Model
350
22
  0
DICTIONARY
  5
A3
102
{ACAD_REACTORS
330
C
102
}
330
C
100
AcDbDictionary
281
     1
  0
DICTIONARY
  5
17
102
{ACAD_REACTORS
330
C
102
}
330
C
100
AcDbDictionary
281
     1
  3
Standard
350
18
  0
DICTIONARY
  5
19
102
{ACAD_REACTORS
330
C
102
}
330
C
100
AcDbDictionary
281
     1
  0
ACDBDICTIONARYWDFLT
  5
E
102
{ACAD_REACTORS
330
C
102
}
330
C
100
AcDbDictionary
281
     1
  3
Normal
350
F
100
AcDbDictionaryWithDefault
340
F
  0
DICTIONARY
  5
3B
102
{ACAD_REACTORS
330
C
102
}
330
C
100
AcDbDictionary
281
     1
  3
A0
350
3C
  3
A1
350
3D
  3
A2
350
3E
  3
A3
350
3F
  3
A4
350
40
  3
A5
350
41
  3
A6
350
42
  3
A7
350
43
  3
A8
350
44
  3
A9
350
45
  3
B0
350
46
  3
B1
350
47
  3
B2
350
48
  3
B3
350
49
  3
B4
350
4A
  3
B5
350
4B
  3
B6
350
4C
  3
B7
350
4D
  3
B8
350
4E
  3
B9
350
4F
  3
C0
350
50
  3
C1
350
51
  3
C2
350
52
  3
C3
350
53
  3
C4
350
54
  3
C5
350
55
  3
C6
350
56
  3
C7
350
57
  3
C8
350
58
  3
C9
350
59
  3
D0
350
5A
  3
D1
350
5B
  3
D2
350
5C
  0
DICTIONARY
  5
A2
102
{ACAD_REACTORS
330
C
102
}
330
C
100
AcDbDictionary
281
     1
  0
DICTIONARY
  5
2A
102
{ACAD_REACTORS
330
C
102
}
330
C
100
AcDbDictionary
281
     1
  3
2dWireframe
350
2F
  3
3D Hidden
350
31
  3
3dWireframe
350
30
  3
Basic
350
32
  3
Brighten
350
36
  3
ColorChange
350
3A
  3
Conceptual
350
34
  3
Dim
350
35
  3
Facepattern
350
39
  3
Flat
350
2B
  3
FlatWithEdges
350
2C
  3
Gouraud
350
2D
  3
GouraudWithEdges
350
2E
  3
Linepattern
350
38
  3
Realistic
350
33
  3
Thicken
350
37
  0
LAYOUT
  5
1E
102
{ACAD_REACTORS
330
1A
102
}
330
1A
100
AcDbPlotSettings
  1

  2
none_device
  4

  6

 40
0.0
 41
0.0
 42
0.0
 43
0.0
 44
0.0
 45
0.0
 46
0.0
 47
0.0
 48
0.0
 49
0.0
140
0.0
141
0.0
142
1.0
143
1.0
 70
   688
 72
     0
 73
     0
 74
     5
  7

 75
    16
 76
     0
 77
     2
 78
   300
147
1.0
148
0.0
149
0.0
100
AcDbLayout
  1
Layout1
 70
     1
 71
     1
 10
0.0
 20
0.0
 11
12.0
 21
9.0
 12
0.0
 22
0.0
 32
0.0
 14
1.000000000000000E+20
 24
1.000000000000000E+20
 34
1.000000000000000E+20
 15
-1.000000000000000E+20
 25
-1.000000000000000E+20
 35
-1.000000000000000E+20
146
0.0
 13
0.0
 23
0.0
 33
0.0
 16
1.0
 26
0.0
 36
0.0
 17
0.0
 27
1.0
 37
0.0
 76
     0
330
1B
  0
LAYOUT
  5
26
102
{ACAD_REACTORS
330
1A
102
}
330
1A
100
AcDbPlotSettings
  1

  2
none_device
  4

  6

 40
0.0
 41
0.0
 42
0.0
 43
0.0
 44
0.0
 45
0.0
 46
0.0
 47
0.0
 48
0.0
 49
0.0
140
0.0
141
0.0
142
1.0
143
1.0
 70
   688
 72
     0
 73
     0
 74
     5
  7

 75
    16
 76
     0
 77
     2
 78
   300
147
1.0
148
0.0
149
0.0
100
AcDbLayout
  1
Layout2
 70
     1
 71
     2
 10
0.0
 20
0.0
 11
0.0
 21
0.0
 12
0.0
 22
0.0
 32
0.0
 14
0.0
 24
0.0
 34
0.0
 15
0.0
 25
0.0
 35
0.0
146
0.0
 13
0.0
 23
0.0
 33
0.0
 16
1.0
 26
0.0
 36
0.0
 17
0.0
 27
1.0
 37
0.0
 76
     0
330
23
  0
LAYOUT
  5
22
102
{ACAD_REACTORS
330
1A
102
}
330
1A
100
AcDbPlotSettings
  1

  2
none_device
  4

  6

 40
0.0
 41
0.0
 42
0.0
 43
0.0
 44
0.0
 45
0.0
 46
0.0
 47
0.0
 48
0.0
 49
0.0
140
0.0
141
0.0
142
1.0
143
1.0
 70
  1712
 72
     0
 73
     0
 74
     0
  7

 75
     0
 76
     0
 77
     2
 78
   300
147
1.0
148
0.0
149
0.0
100
AcDbLayout
  1
Model
 70
     1
 71
     0
 10
0.0
 20
0.0
 11
12.0
 21
9.0
 12
0.0
 22
0.0
 32
0.0
 14
-11.7
 24
-16.05
 34
0.0
 15
-9.3
 25
-13.65
 35
0.0
146
0.0
 13
0.0
 23
0.0
 33
0.0
 16
1.0
 26
0.0
 36
0.0
 17
0.0
 27
1.0
 37
0.0
 76
     0
330
1F
331
29
  0
MLINESTYLE
  5
18
102
{ACAD_REACTORS
330
17
102
}
330
17
100
AcDbMlineStyle
  2
Standard
 70
     0
  3

 62
   256
 51
90.0
 52
90.0
 71
     2
 49
0.5
 62
   256
  6
BYLAYER
 49
-0.5
 62
   256
  6
BYLAYER
  0
ACDBPLACEHOLDER
  5
F
102
{ACAD_REACTORS
330
E
102
}
330
E
  0
SCALE
  5
3C
102
{ACAD_REACTORS
330
3B
102
}
330
3B
100
AcDbScale
 70
     0
300
1:1
140
1.0
141
1.0
290
     1
  0
SCALE
  5
3D
102
{ACAD_REACTORS
330
3B
102
}
330
3B
100
AcDbScale
 70
     0
300
1:2
140
1.0
141
2.0
290
     0
  0
SCALE
  5
3E
102
{ACAD_REACTORS
330
3B
102
}
330
3B
100
AcDbScale
 70
     0
300
1:4
140
1.0
141
4.0
290
     0
  0
SCALE
  5
3F
102
{ACAD_REACTORS
330
3B
102
}
330
3B
100
AcDbScale
 70
     0
300
1:5
140
1.0
141
5.0
290
     0
  0
SCALE
  5
40
102
{ACAD_REACTORS
330
3B
102
}
330
3B
100
AcDbScale
 70
     0
300
1:8
140
1.0
141
8.0
290
     0
  0
SCALE
  5
41
102
{ACAD_REACTORS
330
3B
102
}
330
3B
100
AcDbScale
 70
     0
300
1:10
140
1.0
141
10.0
290
     0
  0
SCALE
  5
42
102
{ACAD_REACTORS
330
3B
102
}
330
3B
100
AcDbScale
 70
     0
300
1:16
140
1.0
141
16.0
290
     0
  0
SCALE
  5
43
102
{ACAD_REACTORS
330
3B
102
}
330
3B
100
AcDbScale
 70
     0
300
1:20
140
1.0
141
20.0
290
     0
  0
SCALE
  5
44
102
{ACAD_REACTORS
330
3B
102
}
330
3B
100
AcDbScale
 70
     0
300
1:30
140
1.0
141
30.0
290
     0
  0
SCALE
  5
45
102
{ACAD_REACTORS
330
3B
102
}
330
3B
100
AcDbScale
 70
     0
300
1:40
140
1.0
141
40.0
290
     0
  0
SCALE
  5
46
102
{ACAD_REACTORS
330
3B
102
}
330
3B
100
AcDbScale
 70
     0
300
1:50
140
1.0
141
50.0
290
     0
  0
SCALE
  5
47
102
{ACAD_REACTORS
330
3B
102
}
330
3B
100
AcDbScale
 70
     0
300
1:100
140
1.0
141
100.0
290
     0
  0
SCALE
  5
48
102
{ACAD_REACTORS
330
3B
102
}
330
3B
100
AcDbScale
 70
     0
300
2:1
140
2.0
141
1.0
290
     0
  0
SCALE
  5
49
102
{ACAD_REACTORS
330
3B
102
}
330
3B
100
AcDbScale
 70
     0
300
4:1
140
4.0
141
1.0
290
     0
  0
SCALE
  5
4A
102
{ACAD_REACTORS
330
3B
102
}
330
3B
100
AcDbScale
 70
     0
300
8:1
140
8.0
141
1.0
290
     0
  0
SCALE
  5
4B
102
{ACAD_REACTORS
330
3B
102
}
330
3B
100
AcDbScale
 70
     0
300
10:1
140
10.0
141
1.0
290
     0
  0
SCALE
  5
4C
102
{ACAD_REACTORS
330
3B
102
}
330
3B
100
AcDbScale
 70
     0
300
100:1
140
100.0
141
1.0
290
     0
  0
SCALE
  5
4D
102
{ACAD_REACTORS
330
3B
102
}
330
3B
100
AcDbScale
 70
     0
300
1/128" = 1'-0"
140
0.0078125
141
12.0
290
     0
  0
SCALE
  5
4E
102
{ACAD_REACTORS
330
3B
102
}
330
3B
100
AcDbScale
 70
     0
300
1/64" = 1'-0"
140
0.015625
141
12.0
290
     0
  0
SCALE
  5
4F
102
{ACAD_REACTORS
330
3B
102
}
330
3B
100
AcDbScale
 70
     0
300
1/32" = 1'-0"
140
0.03125
141
12.0
290
     0
  0
SCALE
  5
50
102
{ACAD_REACTORS
330
3B
102
}
330
3B
100
AcDbScale
 70
     0
300
1/16" = 1'-0"
140
0.0625
141
12.0
290
     0
  0
SCALE
  5
51
102
{ACAD_REACTORS
330
3B
102
}
330
3B
100
AcDbScale
 70
     0
300
3/32" = 1'-0"
140
0.09375
141
12.0
290
     0
  0
SCALE
  5
52
102
{ACAD_REACTORS
330
3B
102
}
330
3B
100
AcDbScale
 70
     0
300
1/8" = 1'-0"
140
0.125
141
12.0
290
     0
  0
SCALE
  5
53
102
{ACAD_REACTORS
330
3B
102
}
330
3B
100
AcDbScale
 70
     0
300
3/16" = 1'-0"
140
0.1875
141
12.0
290
     0
  0
SCALE
  5
54
102
{ACAD_REACTORS
330
3B
102
}
330
3B
100
AcDbScale
 70
     0
300
1/4" = 1'-0"
140
0.25
141
12.0
290
     0
  0
SCALE
  5
55
102
{ACAD_REACTORS
330
3B
102
}
330
3B
100
AcDbScale
 70
     0
300
3/8" = 1'-0"
140
0.375
141
12.0
290
     0
  0
SCALE
  5
56
102
{ACAD_REACTORS
330
3B
102
}
330
3B
100
AcDbScale
 70
     0
300
1/2" = 1'-0"
140
0.5
141
12.0
290
     0
  0
SCALE
  5
57
102
{ACAD_REACTORS
330
3B
102
}
330
3B
100
AcDbScale
 70
     0
300
3/4" = 1'-0"
140
0.75
141
12.0
290
     0
  0
SCALE
  5
58
102
{ACAD_REACTORS
330
3B
102
}
330
3B
100
AcDbScale
 70
     0
300
1" = 1'-0"
140
1.0
141
12.0
290
     0
  0
SCALE
  5
59
102
{ACAD_REACTORS
330
3B
102
}
330
3B
100
AcDbScale
 70
     0
300
1-1/2" = 1'-0"
140
1.5
141
12.0
290
     0
  0
SCALE
  5
5A
102
{ACAD_REACTORS
330
3B
102
}
330
3B
100
AcDbScale
 70
     0
300
3" = 1'-0"
140
3.0
141
12.0
290
     0
  0
SCALE
  5
5B
102
{ACAD_REACTORS
330
3B
102
}
330
3B
100
AcDbScale
 70
     0
300
6" = 1'-0"
140
6.0
141
12.0
290
     0
  0
SCALE
  5
5C
102
{ACAD_REACTORS
330
3B
102
}
330
3B
100
AcDbScale
 70
     0
300
1'-0" = 1'-0"
140
12.0
141
12.0
290
     0
  0
VISUALSTYLE
  5
2F
102
{ACAD_REACTORS
330
2A
102
}
330
2A
100
AcDbVisualStyle
  2
2dWireframe
 70
     4
 71
     0
 72
     2
 73
     0
 90
        0
 40
-0.6
 41
-30.0
 62
     5
 63
     7
421
 16777215
 74
     1
 91
        4
 64
     7
 65
   257
 75
     1
175
     1
 42
1.0
 92
        0
 66
   257
 43
1.0
 76
     1
 77
     6
 78
     2
 67
     7
 79
     5
170
     0
171
     0
290
     0
174
     0
 93
        1
 44
0.0
173
     0
291
     0
 45
0.0
  0
VISUALSTYLE
  5
31
102
{ACAD_REACTORS
330
2A
102
}
330
2A
100
AcDbVisualStyle
  2
3D Hidden
 70
     6
 71
     1
 72
     2
 73
     2
 90
        0
 40
-0.6
 41
-30.0
 62
     5
 63
     7
421
 16777215
 74
     2
 91
        2
 64
     7
 65
   257
 75
     2
175
     1
 42
40.0
 92
        0
 66
   257
 43
1.0
 76
     1
 77
     6
 78
     2
 67
     7
 79
     3
170
     0
171
     0
290
     0
174
     0
 93
        1
 44
0.0
173
     0
291
     0
 45
0.0
  0
VISUALSTYLE
  5
30
102
{ACAD_REACTORS
330
2A
102
}
330
2A
100
AcDbVisualStyle
  2
3dWireframe
 70
     5
 71
     0
 72
     2
 73
     0
 90
        0
 40
-0.6
 41
-30.0
 62
     5
 63
     7
421
 16777215
 74
     1
 91
        4
 64
     7
 65
   257
 75
     1
175
     1
 42
1.0
 92
        0
 66
   257
 43
1.0
 76
     1
 77
     6
 78
     2
 67
     7
 79
     5
170
     0
171
     0
290
     0
174
     0
 93
        1
 44
0.0
173
     0
291
     0
 45
0.0
  0
VISUALSTYLE
  5
32
102
{ACAD_REACTORS
330
2A
102
}
330
2A
100
AcDbVisualStyle
  2
Basic
 70
     7
 71
     1
 72
     0
 73
     1
 90
        0
 40
-0.6
 41
-30.0
 62
     5
 63
     7
421
 16777215
 74
     0
 91
        4
 64
     7
 65
   257
 75
     1
175
     1
 42
1.0
 92
        8
 66
     7
 43
1.0
 76
     1
 77
     6
 78
     2
 67
     7
 79
     5
170
     0
171
     0
290
     0
174
     0
 93
        1
 44
0.0
173
     0
291
     1
 45
0.0
  0
VISUALSTYLE
  5
36
102
{ACAD_REACTORS
330
2A
102
}
330
2A
100
AcDbVisualStyle
  2
Brighten
 70
    12
 71
     2
 72
     2
 73
     0
 90
        0
 40
-0.6
 41
-30.0
 62
     5
 63
     7
421
 16777215
 74
     1
 91
        4
 64
     7
 65
   257
 75
     1
175
     1
 42
1.0
 92
        8
 66
     7
 43
1.0
 76
     1
 77
     6
 78
     2
 67
     7
 79
     5
170
     0
171
     0
290
     0
174
     0
 93
        1
 44
50.0
173
     0
291
     1
 45
0.0
  0
VISUALSTYLE
  5
3A
102
{ACAD_REACTORS
330
2A
102
}
330
2A
100
AcDbVisualStyle
  2
ColorChange
 70
    16
 71
     2
 72
     2
 73
     3
 90
        0
 40
-0.6
 41
-30.0
 62
     5
 63
     8
421
  8421504
 74
     1
 91
        4
 64
     7
 65
   257
 75
     1
175
     1
 42
1.0
 92
        8
 66
     8
424
  8421504
 43
1.0
 76
     1
 77
     6
 78
     2
 67
     7
 79
     5
170
     0
171
     0
290
     0
174
     0
 93
        1
 44
0.0
173
     0
291
     1
 45
0.0
  0
VISUALSTYLE
  5
34
102
{ACAD_REACTORS
330
2A
102
}
330
2A
100
AcDbVisualStyle
  2
Conceptual
 70
     9
 71
     3
 72
     2
 73
     0
 90
        0
 40
-0.6
 41
-30.0
 62
     5
 63
     7
421
 16777215
 74
     2
 91
        2
 64
     7
 65
   257
 75
     1
175
     1
 42
40.0
 92
        8
 66
     7
 43
1.0
 76
     1
 77
     6
 78
     2
 67
     7
 79
     3
170
     0
171
     0
290
     0
174
     0
 93
        1
 44
0.0
173
     0
291
     0
 45
0.0
  0
VISUALSTYLE
  5
35
102
{ACAD_REACTORS
330
2A
102
}
330
2A
100
AcDbVisualStyle
  2
Dim
 70
    11
 71
     2
 72
     2
 73
     0
 90
        0
 40
-0.6
 41
-30.0
 62
     5
 63
     7
421
 16777215
 74
     1
 91
        4
 64
     7
 65
   257
 75
     1
175
     1
 42
1.0
 92
        8
 66
     7
 43
1.0
 76
     1
 77
     6
 78
     2
 67
     7
 79
     5
170
     0
171
     0
290
     0
174
     0
 93
        1
 44
-50.0
173
     0
291
     1
 45
0.0
  0
VISUALSTYLE
  5
39
102
{ACAD_REACTORS
330
2A
102
}
330
2A
100
AcDbVisualStyle
  2
Facepattern
 70
    15
 71
     2
 72
     2
 73
     0
 90
        0
 40
-0.6
 41
-30.0
 62
     5
 63
     7
421
 16777215
 74
     1
 91
        4
 64
     7
 65
   257
 75
     1
175
     1
 42
1.0
 92
        8
 66
     7
 43
1.0
 76
     1
 77
     6
 78
     2
 67
     7
 79
     5
170
     0
171
     0
290
     0
174
     0
 93
        1
 44
0.0
173
     0
291
     1
 45
0.0
  0
VISUALSTYLE
  5
2B
102
{ACAD_REACTORS
330
2A
102
}
330
2A
100
AcDbVisualStyle
  2
Flat
 70
     0
 71
     2
 72
     1
 73
     1
 90
        2
 40
-0.6
 41
30.0
 62
     5
 63
     7
421
 16777215
 74
     0
 91
        4
 64
     7
 65
   257
 75
     1
175
     1
 42
1.0
 92
        8
 66
     7
 43
1.0
 76
     1
 77
     6
 78
     2
 67
     7
 79
     5
170
     0
171
     0
290
     0
174
     0
 93
       13
 44
0.0
173
     0
291
     1
 45
0.0
  0
VISUALSTYLE
  5
2C
102
{ACAD_REACTORS
330
2A
102
}
330
2A
100
AcDbVisualStyle
  2
FlatWithEdges
 70
     1
 71
     2
 72
     1
 73
     1
 90
        2
 40
-0.6
 41
30.0
 62
     5
 63
     7
421
 16777215
 74
     1
 91
        4
 64
     7
 65
   257
 75
     1
175
     1
 42
1.0
 92
        0
 66
   257
 43
1.0
 76
     1
 77
     6
 78
     2
 67
     7
 79
     5
170
     0
171
     0
290
     0
174
     0
 93
       13
 44
0.0
173
     0
291
     1
 45
0.0
  0
VISUALSTYLE
  5
2D
102
{ACAD_REACTORS
330
2A
102
}
330
2A
100
AcDbVisualStyle
  2
Gouraud
 70
     2
 71
     2
 72
     2
 73
     1
 90
        2
 40
-0.6
 41
30.0
 62
     5
 63
     7
421
 16777215
 74
     0
 91
        4
 64
     7
 65
   257
 75
     1
175
     1
 42
1.0
 92
        0
 66
     7
 43
1.0
 76
     1
 77
     6
 78
     2
 67
     7
 79
     5
170
     0
171
     0
290
     0
174
     0
 93
       13
 44
0.0
173
     0
291
     1
 45
0.0
  0
VISUALSTYLE
  5
2E
102
{ACAD_REACTORS
330
2A
102
}
330
2A
100
AcDbVisualStyle
  2
GouraudWithEdges
 70
     3
 71
     2
 72
     2
 73
     1
 90
        2
 40
-0.6
 41
30.0
 62
     5
 63
     7
421
 16777215
 74
     1
 91
        4
 64
     7
 65
   257
 75
     1
175
     1
 42
1.0
 92
        0
 66
   257
 43
1.0
 76
     1
 77
     6
 78
     2
 67
     7
 79
     5
170
     0
171
     0
290
     0
174
     0
 93
       13
 44
0.0
173
     0
291
     1
 45
0.0
  0
VISUALSTYLE
  5
38
102
{ACAD_REACTORS
330
2A
102
}
330
2A
100
AcDbVisualStyle
  2
Linepattern
 70
    14
 71
     2
 72
     2
 73
     0
 90
        0
 40
-0.6
 41
-30.0
 62
     5
 63
     7
421
 16777215
 74
     1
 91
        4
 64
     7
 65
   257
 75
     7
175
     7
 42
1.0
 92
        8
 66
     7
 43
1.0
 76
     1
 77
     6
 78
     2
 67
     7
 79
     5
170
     0
171
     0
290
     0
174
     0
 93
        1
 44
0.0
173
     0
291
     1
 45
0.0
  0
VISUALSTYLE
  5
33
102
{ACAD_REACTORS
330
2A
102
}
330
2A
100
AcDbVisualStyle
  2
Realistic
 70
     8
 71
     2
 72
     2
 73
     0
 90
        0
 40
-0.6
 41
-30.0
 62
     5
 63
     7
421
 16777215
 74
     1
 91
        0
 64
     7
 65
   257
 75
     1
175
     1
 42
1.0
 92
        8
 66
     8
424
  7895160
 43
1.0
 76
     1
 77
     6
 78
     2
 67
     7
 79
     5
170
     0
171
     0
290
     0
174
     0
 93
       13
 44
0.0
173
     0
291
     0
 45
0.0
  0
VISUALSTYLE
  5
37
102
{ACAD_REACTORS
330
2A
102
}
330
2A
100
AcDbVisualStyle
  2
Thicken
 70
    13
 71
     2
 72
     2
 73
     0
 90
        0
 40
-0.6
 41
-30.0
 62
     5
 63
     7
421
 16777215
 74
     1
 91
        4
 64
     7
 65
   257
 75
     1
175
     1
 42
1.0
 92
       12
 66
     7
 43
1.0
 76
     1
 77
     6
 78
     2
 67
     7
 79
     5
170
     0
171
     0
290
     0
174
     0
 93
        1
 44
0.0
173
     0
291
     1
 45
0.0
  0
ENDSEC
  0
EOF
