  0
SECTION
  2
HEADER
  9
$ACADVER
  1
AC1021
  9
$ACADMAINTVER
 70
    25
  9
$DWGCODEPAGE
  3
ANSI_1252
  9
$INSBASE
 10
0.0
 20
0.0
 30
0.0
  9
$EXTMIN
 10
-11.7
 20
-16.05
 30
0.0
  9
$EXTMAX
 10
-9.3
 20
-13.65
 30
0.0
  9
$LIMMIN
 10
0.0
 20
0.0
  9
$LIMMAX
 10
12.0
 20
9.0
  9
$ORTHOMODE
 70
     0
  9
$REGENMODE
 70
     1
  9
$FILLMODE
 70
     1
  9
$QTEXTMODE
 70
     0
  9
$MIRRTEXT
 70
     1
  9
$LTSCALE
 40
1.0
  9
$ATTMODE
 70
     1
  9
$TEXTSIZE
 40
0.2
  9
$TRACEWID
 40
0.05
  9
$TEXTSTYLE
  7
Standard
  9
$CLAYER
  8
0
  9
$CELTYPE
  6
ByLayer
  9
$CECOLOR
 62
   256
  9
$CELTSCALE
 40
1.0
  9
$DISPSILH
 70
     0
  9
$DIMSCALE
 40
1.0
  9
$DIMASZ
 40
0.18
  9
$DIMEXO
 40
0.0625
  9
$DIMDLI
 40
0.38
  9
$DIMRND
 40
0.0
  9
$DIMDLE
 40
0.0
  9
$DIMEXE
 40
0.18
  9
$DIMTP
 40
0.0
  9
$DIMTM
 40
0.0
  9
$DIMTXT
 40
0.18
  9
$DIMCEN
 40
0.09
  9
$DIMTSZ
 40
0.0
  9
$DIMTOL
 70
     0
  9
$DIMLIM
 70
     0
  9
$DIMTIH
 70
     1
  9
$DIMTOH
 70
     1
  9
$DIMSE1
 70
     0
  9
$DIMSE2
 70
     0
  9
$DIMTAD
 70
     0
  9
$DIMZIN
 70
     0
  9
$DIMBLK
  1

  9
$DIMASO
 70
     1
  9
$DIMSHO
 70
     1
  9
$DIMPOST
  1

  9
$DIMAPOST
  1

  9
$DIMALT
 70
     0
  9
$DIMALTD
 70
     2
  9
$DIMALTF
 40
25.4
  9
$DIMLFAC
 40
1.0
  9
$DIMTOFL
 70
     0
  9
$DIMTVP
 40
0.0
  9
$DIMTIX
 70
     0
  9
$DIMSOXD
 70
     0
  9
$DIMSAH
 70
     0
  9
$DIMBLK1
  1

  9
$DIMBLK2
  1

  9
$DIMSTYLE
  2
Standard
  9
$DIMCLRD
 70
     0
  9
$DIMCLRE
 70
     0
  9
$DIMCLRT
 70
     0
  9
$DIMTFAC
 40
1.0
  9
$DIMGAP
 40
0.09
  9
$DIMJUST
 70
     0
  9
$DIMSD1
 70
     0
  9
$DIMSD2
 70
     0
  9
$DIMTOLJ
 70
     1
  9
$DIMTZIN
 70
     0
  9
$DIMALTZ
 70
     0
  9
$DIMALTTZ
 70
     0
  9
$DIMUPT
 70
     0
  9
$DIMDEC
 70
     4
  9
$DIMTDEC
 70
     4
  9
$DIMALTU
 70
     2
  9
$DIMALTTD
 70
     2
  9
$DIMTXSTY
  7
Standard
  9
$DIMAUNIT
 70
     0
  9
$DIMADEC
 70
     0
  9
$DIMALTRND
 40
0.0
  9
$DIMAZIN
 70
     0
  9
$DIMDSEP
 70
    46
  9
$DIMATFIT
 70
     3
  9
$DIMFRAC
 70
     0
  9
$DIMLDRBLK
  1

  9
$DIMLUNIT
 70
     2
  9
$DIMLWD
 70
    -2
  9
$DIMLWE
 70
    -2
  9
$DIMTMOVE
 70
     0
  9
$DIMFXL
 40
1.0
  9
$DIMFXLON
 70
     0
  9
$DIMJOGANG
 40
0.7853981633974483
  9
$DIMTFILL
 70
     0
  9
$DIMTFILLCLR
 70
     0
  9
$DIMARCSYM
 70
     0
  9
$DIMLTYPE
  6

  9
$DIMLTEX1
  6

  9
$DIMLTEX2
  6

  9
$LUNITS
 70
     2
  9
$LUPREC
 70
     4
  9
$SKETCHINC
 40
0.1
  9
$FILLETRAD
 40
0.5
  9
$AUNITS
 70
     0
  9
$AUPREC
 70
     0
  9
$MENU
  1
.
  9
$ELEVATION
 40
0.0
  9
$PELEVATION
 40
0.0
  9
$THICKNESS
 40
0.0
  9
$LIMCHECK
 70
     0
  9
$CHAMFERA
 40
0.5
  9
$CHAMFERB
 40
0.5
  9
$CHAMFERC
 40
1.0
  9
$CHAMFERD
 40
0.0
  9
$SKPOLY
 70
     0
  9
$TDCREATE
 40
2458675.033534306
  9
$TDUCREATE
 40
2458674.991867639
  9
$TDUPDATE
 40
2458675.033534317
  9
$TDUUPDATE
 40
2458674.99186765
  9
$TDINDWG
 40
0.0000000116
  9
$TDUSRTIMER
 40
0.0000000116
  9
$USRTIMER
 70
     1
  9
$ANGBASE
 50
0.0
  9
$ANGDIR
 70
     0
  9
$PDMODE
 70
     0
  9
$PDSIZE
 40
0.0
  9
$PLINEWID
 40
0.0
  9
$SPLFRAME
 70
     0
  9
$SPLINETYPE
 70
     6
  9
$SPLINESEGS
 70
     8
  9
$HANDSEED
  5
9B
  9
$SURFTAB1
 70
     6
  9
$SURFTAB2
 70
     6
  9
$SURFTYPE
 70
     6
  9
$SURFU
 70
     6
  9
$SURFV
 70
     6
  9
$UCSBASE
  2

  9
$UCSNAME
  2

  9
$UCSORG
 10
0.0
 20
0.0
 30
0.0
  9
$UCSXDIR
 10
1.0
 20
0.0
 30
0.0
  9
$UCSYDIR
 10
0.0
 20
1.0
 30
0.0
  9
$UCSORTHOREF
  2

  9
$UCSORTHOVIEW
 70
     0
  9
$UCSORGTOP
 10
0.0
 20
0.0
 30
0.0
  9
$UCSORGBOTTOM
 10
0.0
 20
0.0
 30
0.0
  9
$UCSORGLEFT
 10
0.0
 20
0.0
 30
0.0
  9
$UCSORGRIGHT
 10
0.0
 20
0.0
 30
0.0
  9
$UCSORGFRONT
 10
0.0
 20
0.0
 30
0.0
  9
$UCSORGBACK
 10
0.0
 20
0.0
 30
0.0
  9
$PUCSBASE
  2

  9
$PUCSNAME
  2

  9
$PUCSORG
 10
0.0
 20
0.0
 30
0.0
  9
$PUCSXDIR
 10
1.0
 20
0.0
 30
0.0
  9
$PUCSYDIR
 10
0.0
 20
1.0
 30
0.0
  9
$PUCSORTHOREF
  2

  9
$PUCSORTHOVIEW
 70
     0
  9
$PUCSORGTOP
 10
0.0
 20
0.0
 30
0.0
  9
$PUCSORGBOTTOM
 10
0.0
 20
0.0
 30
0.0
  9
$PUCSORGLEFT
 10
0.0
 20
0.0
 30
0.0
  9
$PUCSORGRIGHT
 10
0.0
 20
0.0
 30
0.0
  9
$PUCSORGFRONT
 10
0.0
 20
0.0
 30
0.0
  9
$PUCSORGBACK
 10
0.0
 20
0.0
 30
0.0
  9
$USERI1
 70
     0
  9
$USERI2
 70
     0
  9
$USERI3
 70
     0
  9
$USERI4
 70
     0
  9
$USERI5
 70
     0
  9
$USERR1
 40
0.0
  9
$USERR2
 40
0.0
  9
$USERR3
 40
0.0
  9
$USERR4
 40
0.0
  9
$USERR5
 40
0.0
  9
$WORLDVIEW
 70
     1
  9
$SHADEDGE
 70
     3
  9
$SHADEDIF
 70
    70
  9
$TILEMODE
 70
     1
  9
$MAXACTVP
 70
    64
  9
$PINSBASE
 10
0.0
 20
0.0
 30
0.0
  9
$PLIMCHECK
 70
     0
  9
$PEXTMIN
 10
1.000000000000000E+20
 20
1.000000000000000E+20
 30
1.000000000000000E+20
  9
$PEXTMAX
 10
-1.000000000000000E+20
 20
-1.000000000000000E+20
 30
-1.000000000000000E+20
  9
$PLIMMIN
 10
0.0
 20
0.0
  9
$PLIMMAX
 10
12.0
 20
9.0
  9
$UNITMODE
 70
     0
  9
$VISRETAIN
 70
     1
  9
$PLINEGEN
 70
     0
  9
$PSLTSCALE
 70
     1
  9
$TREEDEPTH
 70
  3020
  9
$CMLSTYLE
  2
Standard
  9
$CMLJUST
 70
     0
  9
$CMLSCALE
 40
1.0
  9
$PROXYGRAPHICS
 70
     1
  9
$MEASUREMENT
 70
     0
  9
$CELWEIGHT
370
    -1
  9
$ENDCAPS
280
     0
  9
$JOINSTYLE
280
     0
  9
$LWDISPLAY
290
     0
  9
$INSUNITS
 70
     5
  9
$HYPERLINKBASE
  1

  9
$STYLESHEET
  1

  9
$XEDIT
290
     1
  9
$CEPSNTYPE
380
     0
  9
$PSTYLEMODE
290
     1
  9
$FINGERPRINTGUID
  2
{4BE86ED8-7791-42F7-9C4C-0EF40C45CFD1}
  9
$VERSIONGUID
  2
{FAEB1C32-E019-11D5-929B-00C0DF256EC4}
  9
$EXTNAMES
290
     1
  9
$PSVPSCALE
 40
0.0
  9
$OLESTARTUP
290
     0
  9
$SORTENTS
280
   127
  9
$INDEXCTL
280
     0
  9
$HIDETEXT
280
     1
  9
$XCLIPFRAME
290
     0
  9
$HALOGAP
280
     0
  9
$OBSCOLOR
 70
   257
  9
$OBSLTYPE
280
     0
  9
$INTERSECTIONDISPLAY
280
     0
  9
$INTERSECTIONCOLOR
 70
   257
  9
$DIMASSOC
280
     2
  9
$PROJECTNAME
  1

  9
$CAMERADISPLAY
290
     0
  9
$LENSLENGTH
 40
50.0
  9
$CAMERAHEIGHT
 40
0.0
  9
$STEPSPERSEC
 40
2.0
  9
$STEPSIZE
 40
6.0
  9
$3DDWFPREC
 40
2.0
  9
$PSOLWIDTH
 40
0.25
  9
$PSOLHEIGHT
 40
4.0
  9
$LOFTANG1
 40
1.570796326794897
  9
$LOFTANG2
 40
1.570796326794897
  9
$LOFTMAG1
 40
0.0
  9
$LOFTMAG2
 40
0.0
  9
$LOFTPARAM
 70
     7
  9
$LOFTNORMALS
280
     1
  9
$LATITUDE
 40
37.795
  9
$LONGITUDE
 40
-122.394
  9
$NORTHDIRECTION
 40
0.0
  9
$TIMEZONE
 70
 -8000
  9
$LIGHTGLYPHDISPLAY
280
     1
  9
$TILEMODELIGHTSYNCH
280
     1
  9
$SOLIDHIST
280
     1
  9
$SHOWHIST
280
     1
  9
$DWFFRAME
280
     2
  9
$DGNFRAME
280
     2
  9
$REALWORLDSCALE
290
     1
  9
$INTERFERECOLOR
 62
   256
  9
$CSHADOW
280
     0
  9
$SHADOWPLANELOCATION
 40
0.0
  0
ENDSEC
  0
SECTION
  2
CLASSES
  0
CLASS
  1
ACDBDICTIONARYWDFLT
  2
AcDbDictionaryWithDefault
  3
ObjectDBX Classes
 90
        0
 91
        3
280
     0
281
     0
  0
CLASS
  1
VISUALSTYLE
  2
AcDbVisualStyle
  3
ObjectDBX Classes
 90
     4095
 91
        3
280
     0
281
     0
  0
CLASS
  1
SCALE
  2
AcDbScale
  3
ObjectDBX Classes
 90
     1153
 91
        3
280
     0
281
     0
  0
ENDSEC
  0
SECTION
  2
TABLES
  0
TABLE
  2
VPORT
  5
8
330
0
100
AcDbSymbolTable
 70
     1
  0
VPORT
  5
29
330
8
100
AcDbSymbolTableRecord
100
AcDbViewportTableRecord
  2
*Active
 70
     0
 10
0.0
 20
0.0
 11
1.0
 21
1.0
 12
10.42990654205607
 22
4.5
 13
0.0
 23
0.0
 14
0.5
 24
0.5
 15
0.5
 25
0.5
 16
0.0
 26
0.0
 36
1.0
 17
0.0
 27
0.0
 37
0.0
 40
9.0
 41
1.972972972850329
 42
50.0
 43
0.0
 44
0.0
 50
0.0
 51
0.0
 71
     0
 72
   100
 73
     1
 74
     3
 75
     0
 76
     0
 77
     0
 78
     0
281
     0
 65
     1
110
0.0
120
0.0
130
0.0
111
1.0
121
0.0
131
0.0
112
0.0
122
1.0
132
0.0
 79
     0
146
0.0
 60
     3
 61
     5
292
     1
282
     1
141
0.0
142
0.0
 63
   256
  0
ENDTAB
  0
TABLE
  2
LTYPE
  5
5
330
0
100
AcDbSymbolTable
 70
     1
  0
LTYPE
  5
14
330
5
100
AcDbSymbolTableRecord
100
AcDbLinetypeTableRecord
  2
ByBlock
 70
     0
  3

 72
    65
 73
     0
 40
0.0
  0
LTYPE
  5
15
330
5
100
AcDbSymbolTableRecord
100
AcDbLinetypeTableRecord
  2
ByLayer
 70
     0
  3

 72
    65
 73
     0
 40
0.0
  0
LTYPE
  5
16
330
5
100
AcDbSymbolTableRecord
100
AcDbLinetypeTableRecord
  2
Continuous
 70
     0
  3
Solid line
 72
    65
 73
     0
 40
0.0
  0
ENDTAB
  0
TABLE
  2
LAYER
  5
2
330
0
100
AcDbSymbolTable
 70
     2
  0
LAYER
  5
10
330
2
100
AcDbSymbolTableRecord
100
AcDbLayerTableRecord
  2
0
 70
     0
 62
     7
  6
Continuous
370
    -3
390
F
347
0
  0
LAYER
  5
5E
330
2
100
AcDbSymbolTableRecord
100
AcDbLayerTableRecord
  2
Layer 1
 70
     0
 62
     7
  6
Continuous
370
    -3
390
F
347
0
  0
ENDTAB
  0
TABLE
  2
STYLE
  5
3
330
0
100
AcDbSymbolTable
 70
     1
  0
STYLE
  5
11
330
3
100
AcDbSymbolTableRecord
100
AcDbTextStyleTableRecord
  2
Standard
 70
     0
 40
0.0
 41
1.0
 50
0.0
 71
     0
 42
0.2
  3
txt
  4

  0
ENDTAB
  0
TABLE
  2
VIEW
  5
6
330
0
100
AcDbSymbolTable
 70
     0
  0
ENDTAB
  0
TABLE
  2
UCS
  5
7
330
0
100
AcDbSymbolTable
 70
     0
  0
ENDTAB
  0
TABLE
  2
APPID
  5
9
330
0
100
AcDbSymbolTable
 70
     2
  0
APPID
  5
12
330
9
100
AcDbSymbolTableRecord
100
AcDbRegAppTableRecord
  2
ACAD
 70
     0
  0
APPID
  5
5D
330
9
100
AcDbSymbolTableRecord
100
AcDbRegAppTableRecord
  2
ODA
 70
     0
  0
ENDTAB
  0
TABLE
  2
DIMSTYLE
  5
A
330
0
100
AcDbSymbolTable
 70
     1
100
AcDbDimStyleTable
  0
DIMSTYLE
105
27
330
A
100
AcDbSymbolTableRecord
100
AcDbDimStyleTableRecord
  2
Standard
 70
     0
340
11
  0
ENDTAB
  0
TABLE
  2
BLOCK_RECORD
  5
1
330
0
100
AcDbSymbolTable
 70
     1
  0
BLOCK_RECORD
  5
1F
330
1
100
AcDbSymbolTableRecord
100
AcDbBlockTableRecord
  2
*Model_Space
340
22
 70
     0
280
     1
281
     0
  0
BLOCK_RECORD
  5
1B
330
1
100
AcDbSymbolTableRecord
100
AcDbBlockTableRecord
  2
*Paper_Space
340
1E
 70
     0
280
     1
281
     0
  0
BLOCK_RECORD
  5
23
330
1
100
AcDbSymbolTableRecord
100
AcDbBlockTableRecord
  2
*Paper_Space0
340
26
 70
     0
280
     1
281
     0
  0
ENDTAB
  0
ENDSEC
  0
SECTION
  2
BLOCKS
  0
BLOCK
  5
20
330
1F
100
AcDbEntity
  8
0
100
AcDbBlockBegin
  2
*Model_Space
 70
     0
 10
0.0
 20
0.0
 30
0.0
  3
*Model_Space
  1

  0
ENDBLK
  5
21
330
1F
100
AcDbEntity
  8
0
100
AcDbBlockEnd
  0
BLOCK
  5
1C
330
1B
100
AcDbEntity
 67
     1
  8
0
100
AcDbBlockBegin
  2
*Paper_Space
 70
     0
 10
0.0
 20
0.0
 30
0.0
  3
*Paper_Space
  1

  0
ENDBLK
  5
1D
330
1B
100
AcDbEntity
 67
     1
  8
0
100
AcDbBlockEnd
  0
BLOCK
  5
24
330
23
100
AcDbEntity
  8
0
100
AcDbBlockBegin
  2
*Paper_Space0
 70
     0
 10
0.0
 20
0.0
 30
0.0
  3
*Paper_Space0
  1

  0
ENDBLK
  5
25
330
23
100
AcDbEntity
  8
0
100
AcDbBlockEnd
  0
ENDSEC
  0
SECTION
  2
ENTITIES
  0
LWPOLYLINE
  5
5F
330
1F
100
AcDbEntity
  8
Layer 1
 62
     7
100
AcDbPolyline
 90
        5
 70
     1
 43
0.0
 10
-11.7
 20
-16.05
 10
-9.3
 20
-16.05
 10
-9.3
 20
-13.65
 10
-11.7
 20
-13.65
 10
-11.7
 20
-16.05
  0
LWPOLYLINE
  5
60
330
1F
100
AcDbEntity
  8
Layer 1
 62
     7
370
     9
100
AcDbPolyline
 90
        5
 70
     1
 43
0.0
 10
-10.6524
 20
-15.20475
 10
-10.3476
 20
-15.20475
 10
-10.3476
 20
-15.05235
 10
-10.6524
 20
-15.05235
 10
-10.6524
 20
-15.20475
  0
LWPOLYLINE
  5
61
330
1F
100
AcDbEntity
  8
Layer 1
 62
     7
370
     9
100
AcDbPolyline
 90
        5
 70
     1
 43
0.0
 10
-10.605
 20
-15.20475
 10
-10.395
 20
-15.20475
 10
-10.395
 20
-15.05235
 10
-10.605
 20
-15.05235
 10
-10.605
 20
-15.20475
  0
SPLINE
  5
62
330
1F
100
AcDbEntity
  8
Layer 1
 62
   250
100
AcDbSpline
210
0.0
220
0.0
230
1.0
 70
    11
 71
     3
 72
   116
 73
   112
 74
     0
 42
0.0000000001
 43
0.0000000001
 40
0.0
 40
0.0
 40
0.0
 40
0.0
 40
0.0357142857142857
 40
0.0357142857142857
 40
0.0357142857142857
 40
0.0357142857142857
 40
0.0714285714285714
 40
0.0714285714285714
 40
0.0714285714285714
 40
0.0714285714285714
 40
0.1071428571428571
 40
0.1071428571428571
 40
0.1071428571428571
 40
0.1071428571428571
 40
0.1428571428571428
 40
0.1428571428571428
 40
0.1428571428571428
 40
0.1428571428571428
 40
0.1785714285714285
 40
0.1785714285714285
 40
0.1785714285714285
 40
0.1785714285714285
 40
0.2142857142857142
 40
0.2142857142857142
 40
0.2142857142857142
 40
0.2142857142857142
 40
0.2499999999999999
 40
0.2499999999999999
 40
0.2499999999999999
 40
0.2499999999999999
 40
0.2857142857142856
 40
0.2857142857142856
 40
0.2857142857142856
 40
0.2857142857142856
 40
0.3214285714285713
 40
0.3214285714285713
 40
0.3214285714285713
 40
0.3214285714285713
 40
0.357142857142857
 40
0.357142857142857
 40
0.357142857142857
 40
0.357142857142857
 40
0.3928571428571427
 40
0.3928571428571427
 40
0.3928571428571427
 40
0.3928571428571427
 40
0.4285714285714284
 40
0.4285714285714284
 40
0.4285714285714284
 40
0.4285714285714284
 40
0.4642857142857141
 40
0.4642857142857141
 40
0.4642857142857141
 40
0.4642857142857141
 40
0.4999999999999998
 40
0.4999999999999998
 40
0.4999999999999998
 40
0.4999999999999998
 40
0.5357142857142856
 40
0.5357142857142856
 40
0.5357142857142856
 40
0.5357142857142856
 40
0.5714285714285713
 40
0.5714285714285713
 40
0.5714285714285713
 40
0.5714285714285713
 40
0.607142857142857
 40
0.607142857142857
 40
0.607142857142857
 40
0.607142857142857
 40
0.6428571428571427
 40
0.6428571428571427
 40
0.6428571428571427
 40
0.6428571428571427
 40
0.6785714285714284
 40
0.6785714285714284
 40
0.6785714285714284
 40
0.6785714285714284
 40
0.7142857142857141
 40
0.7142857142857141
 40
0.7142857142857141
 40
0.7142857142857141
 40
0.7499999999999998
 40
0.7499999999999998
 40
0.7499999999999998
 40
0.7499999999999998
 40
0.7857142857142855
 40
0.7857142857142855
 40
0.7857142857142855
 40
0.7857142857142855
 40
0.8214285714285712
 40
0.8214285714285712
 40
0.8214285714285712
 40
0.8214285714285712
 40
0.8571428571428569
 40
0.8571428571428569
 40
0.8571428571428569
 40
0.8571428571428569
 40
0.8928571428571426
 40
0.8928571428571426
 40
0.8928571428571426
 40
0.8928571428571426
 40
0.9285714285714283
 40
0.9285714285714283
 40
0.9285714285714283
 40
0.9285714285714283
 40
0.964285714285714
 40
0.964285714285714
 40
0.964285714285714
 40
0.964285714285714
 40
1.0
 40
1.0
 40
1.0
 40
1.0
 10
-11.20171
 20
-14.48139
 30
0.0
 10
-11.20171
 20
-14.48139
 30
0.0
 10
-11.20171
 20
-14.50314
 30
0.0
 10
-11.20171
 20
-14.50314
 30
0.0
 10
-11.20171
 20
-14.50314
 30
0.0
 10
-11.20736
 20
-14.50062
 30
0.0
 10
-11.21288
 20
-14.49872
 30
0.0
 10
-11.21824
 20
-14.49743
 30
0.0
 10
-11.21824
 20
-14.49743
 30
0.0
 10
-11.22363
 20
-14.49613
 30
0.0
 10
-11.22871
 20
-14.4955
 30
0.0
 10
-11.23348
 20
-14.4955
 30
0.0
 10
-11.23348
 20
-14.4955
 30
0.0
 10
-11.23981
 20
-14.4955
 30
0.0
 10
-11.24451
 20
-14.49637
 30
0.0
 10
-11.24755
 20
-14.49811
 30
0.0
 10
-11.24755
 20
-14.49811
 30
0.0
 10
-11.25058
 20
-14.49987
 30
0.0
 10
-11.25209
 20
-14.50258
 30
0.0
 10
-11.25209
 20
-14.50625
 30
0.0
 10
-11.25209
 20
-14.50625
 30
0.0
 10
-11.25209
 20
-14.509
 30
0.0
 10
-11.25108
 20
-14.51116
 30
0.0
 10
-11.24903
 20
-14.51269
 30
0.0
 10
-11.24903
 20
-14.51269
 30
0.0
 10
-11.24698
 20
-14.51422
 30
0.0
 10
-11.24327
 20
-14.51556
 30
0.0
 10
-11.23788
 20
-14.51666
 30
0.0
 10
-11.23788
 20
-14.51666
 30
0.0
 10
-11.23788
 20
-14.51666
 30
0.0
 10
-11.22659
 20
-14.51892
 30
0.0
 10
-11.22659
 20
-14.51892
 30
0.0
 10
-11.22659
 20
-14.51892
 30
0.0
 10
-11.21514
 20
-14.52123
 30
0.0
 10
-11.20703
 20
-14.52471
 30
0.0
 10
-11.20221
 20
-14.52941
 30
0.0
 10
-11.20221
 20
-14.52941
 30
0.0
 10
-11.19738
 20
-14.53409
 30
0.0
 10
-11.19496
 20
-14.54075
 30
0.0
 10
-11.19496
 20
-14.54938
 30
0.0
 10
-11.19496
 20
-14.54938
 30
0.0
 10
-11.19496
 20
-14.56074
 30
0.0
 10
-11.19832
 20
-14.56918
 30
0.0
 10
-11.20505
 20
-14.57471
 30
0.0
 10
-11.20505
 20
-14.57471
 30
0.0
 10
-11.21178
 20
-14.58023
 30
0.0
 10
-11.22205
 20
-14.58301
 30
0.0
 10
-11.23588
 20
-14.58301
 30
0.0
 10
-11.23588
 20
-14.58301
 30
0.0
 10
-11.24242
 20
-14.58301
 30
0.0
 10
-11.24896
 20
-14.5824
 30
0.0
 10
-11.25552
 20
-14.58115
 30
0.0
 10
-11.25552
 20
-14.58115
 30
0.0
 10
-11.26208
 20
-14.5799
 30
0.0
 10
-11.26867
 20
-14.57807
 30
0.0
 10
-11.27523
 20
-14.57565
 30
0.0
 10
-11.27523
 20
-14.57565
 30
0.0
 10
-11.27523
 20
-14.57565
 30
0.0
 10
-11.27523
 20
-14.55326
 30
0.0
 10
-11.27523
 20
-14.55326
 30
0.0
 10
-11.27523
 20
-14.55326
 30
0.0
 10
-11.26867
 20
-14.55674
 30
0.0
 10
-11.26232
 20
-14.55937
 30
0.0
 10
-11.25618
 20
-14.56114
 30
0.0
 10
-11.25618
 20
-14.56114
 30
0.0
 10
-11.25004
 20
-14.5629
 30
0.0
 10
-11.24414
 20
-14.56379
 30
0.0
 10
-11.23845
 20
-14.56379
 30
0.0
 10
-11.23845
 20
-14.56379
 30
0.0
 10
-11.23266
 20
-14.56379
 30
0.0
 10
-11.22822
 20
-14.56283
 30
0.0
 10
-11.22514
 20
-14.5609
 30
0.0
 10
-11.22514
 20
-14.5609
 30
0.0
 10
-11.22205
 20
-14.55897
 30
0.0
 10
-11.22053
 20
-14.55622
 30
0.0
 10
-11.22053
 20
-14.55262
 30
0.0
 10
-11.22053
 20
-14.55262
 30
0.0
 10
-11.22053
 20
-14.54942
 30
0.0
 10
-11.22156
 20
-14.54693
 30
0.0
 10
-11.22365
 20
-14.54519
 30
0.0
 10
-11.22365
 20
-14.54519
 30
0.0
 10
-11.22575
 20
-14.54345
 30
0.0
 10
-11.22991
 20
-14.54188
 30
0.0
 10
-11.23617
 20
-14.54051
 30
0.0
 10
-11.23617
 20
-14.54051
 30
0.0
 10
-11.23617
 20
-14.54051
 30
0.0
 10
-11.24644
 20
-14.53823
 30
0.0
 10
-11.24644
 20
-14.53823
 30
0.0
 10
-11.24644
 20
-14.53823
 30
0.0
 10
-11.25672
 20
-14.53602
 30
0.0
 10
-11.26425
 20
-14.53252
 30
0.0
 10
-11.269
 20
-14.52769
 30
0.0
 10
-11.269
 20
-14.52769
 30
0.0
 10
-11.27375
 20
-14.52287
 30
0.0
 10
-11.27612
 20
-14.51636
 30
0.0
 10
-11.27612
 20
-14.5082
 30
0.0
 10
-11.27612
 20
-14.5082
 30
0.0
 10
-11.27612
 20
-14.49794
 30
0.0
 10
-11.27281
 20
-14.49006
 30
0.0
 10
-11.2662
 20
-14.48456
 30
0.0
 10
-11.2662
 20
-14.48456
 30
0.0
 10
-11.25959
 20
-14.47903
 30
0.0
 10
-11.25009
 20
-14.47628
 30
0.0
 10
-11.23767
 20
-14.47628
 30
0.0
 10
-11.23767
 20
-14.47628
 30
0.0
 10
-11.23203
 20
-14.47628
 30
0.0
 10
-11.22622
 20
-14.47671
 30
0.0
 10
-11.22024
 20
-14.47755
 30
0.0
 10
-11.22024
 20
-14.47755
 30
0.0
 10
-11.21427
 20
-14.4784
 30
0.0
 10
-11.20809
 20
-14.47967
 30
0.0
 10
-11.20171
 20
-14.48139
 30
0.0
  0
SPLINE
  5
63
330
1F
100
AcDbEntity
  8
Layer 1
 62
   250
100
AcDbSpline
210
0.0
220
0.0
230
1.0
 70
    11
 71
     3
 72
    56
 73
    52
 74
     0
 42
0.0000000001
 43
0.0000000001
 40
0.0
 40
0.0
 40
0.0
 40
0.0
 40
0.0769230769230769
 40
0.0769230769230769
 40
0.0769230769230769
 40
0.0769230769230769
 40
0.1538461538461539
 40
0.1538461538461539
 40
0.1538461538461539
 40
0.1538461538461539
 40
0.2307692307692308
 40
0.2307692307692308
 40
0.2307692307692308
 40
0.2307692307692308
 40
0.3076923076923077
 40
0.3076923076923077
 40
0.3076923076923077
 40
0.3076923076923077
 40
0.3846153846153846
 40
0.3846153846153846
 40
0.3846153846153846
 40
0.3846153846153846
 40
0.4615384615384616
 40
0.4615384615384616
 40
0.4615384615384616
 40
0.4615384615384616
 40
0.5384615384615385
 40
0.5384615384615385
 40
0.5384615384615385
 40
0.5384615384615385
 40
0.6153846153846154
 40
0.6153846153846154
 40
0.6153846153846154
 40
0.6153846153846154
 40
0.6923076923076923
 40
0.6923076923076923
 40
0.6923076923076923
 40
0.6923076923076923
 40
0.7692307692307692
 40
0.7692307692307692
 40
0.7692307692307692
 40
0.7692307692307692
 40
0.846153846153846
 40
0.846153846153846
 40
0.846153846153846
 40
0.846153846153846
 40
0.9230769230769229
 40
0.9230769230769229
 40
0.9230769230769229
 40
0.9230769230769229
 40
1.0
 40
1.0
 40
1.0
 40
1.0
 10
-11.17168
 20
-14.47814
 30
0.0
 10
-11.17168
 20
-14.47814
 30
0.0
 10
-11.13793
 20
-14.47814
 30
0.0
 10
-11.13793
 20
-14.47814
 30
0.0
 10
-11.13793
 20
-14.47814
 30
0.0
 10
-11.13793
 20
-14.47814
 30
0.0
 10
-11.11448
 20
-14.5332
 30
0.0
 10
-11.11448
 20
-14.5332
 30
0.0
 10
-11.11448
 20
-14.5332
 30
0.0
 10
-11.11448
 20
-14.5332
 30
0.0
 10
-11.09092
 20
-14.47814
 30
0.0
 10
-11.09092
 20
-14.47814
 30
0.0
 10
-11.09092
 20
-14.47814
 30
0.0
 10
-11.09092
 20
-14.47814
 30
0.0
 10
-11.05724
 20
-14.47814
 30
0.0
 10
-11.05724
 20
-14.47814
 30
0.0
 10
-11.05724
 20
-14.47814
 30
0.0
 10
-11.05724
 20
-14.47814
 30
0.0
 10
-11.05724
 20
-14.58101
 30
0.0
 10
-11.05724
 20
-14.58101
 30
0.0
 10
-11.05724
 20
-14.58101
 30
0.0
 10
-11.05724
 20
-14.58101
 30
0.0
 10
-11.08231
 20
-14.58101
 30
0.0
 10
-11.08231
 20
-14.58101
 30
0.0
 10
-11.08231
 20
-14.58101
 30
0.0
 10
-11.08231
 20
-14.58101
 30
0.0
 10
-11.08231
 20
-14.50577
 30
0.0
 10
-11.08231
 20
-14.50577
 30
0.0
 10
-11.08231
 20
-14.50577
 30
0.0
 10
-11.08231
 20
-14.50577
 30
0.0
 10
-11.10602
 20
-14.56123
 30
0.0
 10
-11.10602
 20
-14.56123
 30
0.0
 10
-11.10602
 20
-14.56123
 30
0.0
 10
-11.10602
 20
-14.56123
 30
0.0
 10
-11.12283
 20
-14.56123
 30
0.0
 10
-11.12283
 20
-14.56123
 30
0.0
 10
-11.12283
 20
-14.56123
 30
0.0
 10
-11.12283
 20
-14.56123
 30
0.0
 10
-11.14654
 20
-14.50577
 30
0.0
 10
-11.14654
 20
-14.50577
 30
0.0
 10
-11.14654
 20
-14.50577
 30
0.0
 10
-11.14654
 20
-14.50577
 30
0.0
 10
-11.14654
 20
-14.58101
 30
0.0
 10
-11.14654
 20
-14.58101
 30
0.0
 10
-11.14654
 20
-14.58101
 30
0.0
 10
-11.14654
 20
-14.58101
 30
0.0
 10
-11.17168
 20
-14.58101
 30
0.0
 10
-11.17168
 20
-14.58101
 30
0.0
 10
-11.17168
 20
-14.58101
 30
0.0
 10
-11.17168
 20
-14.58101
 30
0.0
 10
-11.17168
 20
-14.47814
 30
0.0
 10
-11.17168
 20
-14.47814
 30
0.0
  0
SPLINE
  5
64
330
1F
100
AcDbEntity
  8
Layer 1
 62
   250
100
AcDbSpline
210
0.0
220
0.0
230
1.0
 70
    11
 71
     3
 72
    32
 73
    28
 74
     0
 42
0.0000000001
 43
0.0000000001
 40
0.0
 40
0.0
 40
0.0
 40
0.0
 40
0.1428571428571428
 40
0.1428571428571428
 40
0.1428571428571428
 40
0.1428571428571428
 40
0.2857142857142857
 40
0.2857142857142857
 40
0.2857142857142857
 40
0.2857142857142857
 40
0.4285714285714285
 40
0.4285714285714285
 40
0.4285714285714285
 40
0.4285714285714285
 40
0.5714285714285714
 40
0.5714285714285714
 40
0.5714285714285714
 40
0.5714285714285714
 40
0.7142857142857142
 40
0.7142857142857142
 40
0.7142857142857142
 40
0.7142857142857142
 40
0.857142857142857
 40
0.857142857142857
 40
0.857142857142857
 40
0.857142857142857
 40
1.0
 40
1.0
 40
1.0
 40
1.0
 10
-11.00472
 20
-14.4982
 30
0.0
 10
-11.00472
 20
-14.4982
 30
0.0
 10
-11.00472
 20
-14.56095
 30
0.0
 10
-11.00472
 20
-14.56095
 30
0.0
 10
-11.00472
 20
-14.56095
 30
0.0
 10
-11.00472
 20
-14.56095
 30
0.0
 10
-10.99522
 20
-14.56095
 30
0.0
 10
-10.99522
 20
-14.56095
 30
0.0
 10
-10.99522
 20
-14.56095
 30
0.0
 10
-10.98438
 20
-14.56095
 30
0.0
 10
-10.9761
 20
-14.55827
 30
0.0
 10
-10.97039
 20
-14.55288
 30
0.0
 10
-10.97039
 20
-14.55288
 30
0.0
 10
-10.96467
 20
-14.54752
 30
0.0
 10
-10.9618
 20
-14.53971
 30
0.0
 10
-10.9618
 20
-14.52948
 30
0.0
 10
-10.9618
 20
-14.52948
 30
0.0
 10
-10.9618
 20
-14.51927
 30
0.0
 10
-10.96465
 20
-14.51151
 30
0.0
 10
-10.97034
 20
-14.5062
 30
0.0
 10
-10.97034
 20
-14.5062
 30
0.0
 10
-10.97603
 20
-14.50086
 30
0.0
 10
-10.98433
 20
-14.4982
 30
0.0
 10
-10.99522
 20
-14.4982
 30
0.0
 10
-10.99522
 20
-14.4982
 30
0.0
 10
-10.99522
 20
-14.4982
 30
0.0
 10
-11.00472
 20
-14.4982
 30
0.0
 10
-11.00472
 20
-14.4982
 30
0.0
  0
SPLINE
  5
65
330
1F
100
AcDbEntity
  8
Layer 1
 62
   250
100
AcDbSpline
210
0.0
220
0.0
230
1.0
 70
    11
 71
     3
 72
    48
 73
    44
 74
     0
 42
0.0000000001
 43
0.0000000001
 40
0.0
 40
0.0
 40
0.0
 40
0.0
 40
0.0909090909090909
 40
0.0909090909090909
 40
0.0909090909090909
 40
0.0909090909090909
 40
0.1818181818181818
 40
0.1818181818181818
 40
0.1818181818181818
 40
0.1818181818181818
 40
0.2727272727272727
 40
0.2727272727272727
 40
0.2727272727272727
 40
0.2727272727272727
 40
0.3636363636363636
 40
0.3636363636363636
 40
0.3636363636363636
 40
0.3636363636363636
 40
0.4545454545454546
 40
0.4545454545454546
 40
0.4545454545454546
 40
0.4545454545454546
 40
0.5454545454545455
 40
0.5454545454545455
 40
0.5454545454545455
 40
0.5454545454545455
 40
0.6363636363636365
 40
0.6363636363636365
 40
0.6363636363636365
 40
0.6363636363636365
 40
0.7272727272727274
 40
0.7272727272727274
 40
0.7272727272727274
 40
0.7272727272727274
 40
0.8181818181818183
 40
0.8181818181818183
 40
0.8181818181818183
 40
0.8181818181818183
 40
0.9090909090909093
 40
0.9090909090909093
 40
0.9090909090909093
 40
0.9090909090909093
 40
1.0
 40
1.0
 40
1.0
 40
1.0
 10
-11.03125
 20
-14.47814
 30
0.0
 10
-11.03125
 20
-14.47814
 30
0.0
 10
-11.00326
 20
-14.47814
 30
0.0
 10
-11.00326
 20
-14.47814
 30
0.0
 10
-11.00326
 20
-14.47814
 30
0.0
 10
-10.98765
 20
-14.47814
 30
0.0
 10
-10.97603
 20
-14.47925
 30
0.0
 10
-10.96839
 20
-14.48148
 30
0.0
 10
-10.96839
 20
-14.48148
 30
0.0
 10
-10.96074
 20
-14.48371
 30
0.0
 10
-10.95418
 20
-14.48748
 30
0.0
 10
-10.9487
 20
-14.49282
 30
0.0
 10
-10.9487
 20
-14.49282
 30
0.0
 10
-10.94388
 20
-14.49745
 30
0.0
 10
-10.94031
 20
-14.50281
 30
0.0
 10
-10.93795
 20
-14.50888
 30
0.0
 10
-10.93795
 20
-14.50888
 30
0.0
 10
-10.93563
 20
-14.51492
 30
0.0
 10
-10.93445
 20
-14.52179
 30
0.0
 10
-10.93445
 20
-14.52948
 30
0.0
 10
-10.93445
 20
-14.52948
 30
0.0
 10
-10.93445
 20
-14.53724
 30
0.0
 10
-10.93563
 20
-14.54416
 30
0.0
 10
-10.93795
 20
-14.55025
 30
0.0
 10
-10.93795
 20
-14.55025
 30
0.0
 10
-10.94031
 20
-14.55634
 30
0.0
 10
-10.94388
 20
-14.5617
 30
0.0
 10
-10.9487
 20
-14.56633
 30
0.0
 10
-10.9487
 20
-14.56633
 30
0.0
 10
-10.95423
 20
-14.57167
 30
0.0
 10
-10.96084
 20
-14.57544
 30
0.0
 10
-10.96855
 20
-14.57767
 30
0.0
 10
-10.96855
 20
-14.57767
 30
0.0
 10
-10.97627
 20
-14.5799
 30
0.0
 10
-10.98784
 20
-14.58101
 30
0.0
 10
-11.00326
 20
-14.58101
 30
0.0
 10
-11.00326
 20
-14.58101
 30
0.0
 10
-11.00326
 20
-14.58101
 30
0.0
 10
-11.03125
 20
-14.58101
 30
0.0
 10
-11.03125
 20
-14.58101
 30
0.0
 10
-11.03125
 20
-14.58101
 30
0.0
 10
-11.03125
 20
-14.58101
 30
0.0
 10
-11.03125
 20
-14.47814
 30
0.0
 10
-11.03125
 20
-14.47814
 30
0.0
  0
SPLINE
  5
66
330
1F
100
AcDbEntity
  8
Layer 1
 62
   250
100
AcDbSpline
210
0.0
220
0.0
230
1.0
 70
    11
 71
     3
 72
    44
 73
    40
 74
     0
 42
0.0000000001
 43
0.0000000001
 40
0.0
 40
0.0
 40
0.0
 40
0.0
 40
0.1
 40
0.1
 40
0.1
 40
0.1
 40
0.2
 40
0.2
 40
0.2
 40
0.2
 40
0.3
 40
0.3
 40
0.3
 40
0.3
 40
0.4
 40
0.4
 40
0.4
 40
0.4
 40
0.5
 40
0.5
 40
0.5
 40
0.5
 40
0.6
 40
0.6
 40
0.6
 40
0.6
 40
0.7
 40
0.7
 40
0.7
 40
0.7
 40
0.7999999999999999
 40
0.7999999999999999
 40
0.7999999999999999
 40
0.7999999999999999
 40
0.8999999999999999
 40
0.8999999999999999
 40
0.8999999999999999
 40
0.8999999999999999
 40
1.0
 40
1.0
 40
1.0
 40
1.0
 10
-10.82476
 20
-14.59961
 30
0.0
 10
-10.82476
 20
-14.59961
 30
0.0
 10
-10.84522
 20
-14.59961
 30
0.0
 10
-10.84522
 20
-14.59961
 30
0.0
 10
-10.84522
 20
-14.59961
 30
0.0
 10
-10.85225
 20
-14.58828
 30
0.0
 10
-10.85745
 20
-14.57748
 30
0.0
 10
-10.86079
 20
-14.56725
 30
0.0
 10
-10.86079
 20
-14.56725
 30
0.0
 10
-10.86415
 20
-14.55704
 30
0.0
 10
-10.86582
 20
-14.54691
 30
0.0
 10
-10.86582
 20
-14.53684
 30
0.0
 10
-10.86582
 20
-14.53684
 30
0.0
 10
-10.86582
 20
-14.52678
 30
0.0
 10
-10.86413
 20
-14.51659
 30
0.0
 10
-10.86077
 20
-14.50629
 30
0.0
 10
-10.86077
 20
-14.50629
 30
0.0
 10
-10.85738
 20
-14.49597
 30
0.0
 10
-10.85221
 20
-14.4852
 30
0.0
 10
-10.84522
 20
-14.47393
 30
0.0
 10
-10.84522
 20
-14.47393
 30
0.0
 10
-10.84522
 20
-14.47393
 30
0.0
 10
-10.82476
 20
-14.47393
 30
0.0
 10
-10.82476
 20
-14.47393
 30
0.0
 10
-10.82476
 20
-14.47393
 30
0.0
 10
-10.83064
 20
-14.48482
 30
0.0
 10
-10.83504
 20
-14.49547
 30
0.0
 10
-10.83798
 20
-14.50587
 30
0.0
 10
-10.83798
 20
-14.50587
 30
0.0
 10
-10.84092
 20
-14.51626
 30
0.0
 10
-10.8424
 20
-14.52654
 30
0.0
 10
-10.8424
 20
-14.5367
 30
0.0
 10
-10.8424
 20
-14.5367
 30
0.0
 10
-10.8424
 20
-14.54686
 30
0.0
 10
-10.84094
 20
-14.55714
 30
0.0
 10
-10.83803
 20
-14.56758
 30
0.0
 10
-10.83803
 20
-14.56758
 30
0.0
 10
-10.83511
 20
-14.578
 30
0.0
 10
-10.83069
 20
-14.58868
 30
0.0
 10
-10.82476
 20
-14.59961
 30
0.0
  0
SPLINE
  5
67
330
1F
100
AcDbEntity
  8
Layer 1
 62
   250
100
AcDbSpline
210
0.0
220
0.0
230
1.0
 70
    11
 71
     3
 72
    48
 73
    44
 74
     0
 42
0.0000000001
 43
0.0000000001
 40
0.0
 40
0.0
 40
0.0
 40
0.0
 40
0.0909090909090909
 40
0.0909090909090909
 40
0.0909090909090909
 40
0.0909090909090909
 40
0.1818181818181818
 40
0.1818181818181818
 40
0.1818181818181818
 40
0.1818181818181818
 40
0.2727272727272727
 40
0.2727272727272727
 40
0.2727272727272727
 40
0.2727272727272727
 40
0.3636363636363636
 40
0.3636363636363636
 40
0.3636363636363636
 40
0.3636363636363636
 40
0.4545454545454546
 40
0.4545454545454546
 40
0.4545454545454546
 40
0.4545454545454546
 40
0.5454545454545455
 40
0.5454545454545455
 40
0.5454545454545455
 40
0.5454545454545455
 40
0.6363636363636365
 40
0.6363636363636365
 40
0.6363636363636365
 40
0.6363636363636365
 40
0.7272727272727274
 40
0.7272727272727274
 40
0.7272727272727274
 40
0.7272727272727274
 40
0.8181818181818183
 40
0.8181818181818183
 40
0.8181818181818183
 40
0.8181818181818183
 40
0.9090909090909093
 40
0.9090909090909093
 40
0.9090909090909093
 40
0.9090909090909093
 40
1.0
 40
1.0
 40
1.0
 40
1.0
 10
-10.79694
 20
-14.56269
 30
0.0
 10
-10.79694
 20
-14.56269
 30
0.0
 10
-10.77351
 20
-14.56269
 30
0.0
 10
-10.77351
 20
-14.56269
 30
0.0
 10
-10.77351
 20
-14.56269
 30
0.0
 10
-10.77351
 20
-14.56269
 30
0.0
 10
-10.77351
 20
-14.4962
 30
0.0
 10
-10.77351
 20
-14.4962
 30
0.0
 10
-10.77351
 20
-14.4962
 30
0.0
 10
-10.77351
 20
-14.4962
 30
0.0
 10
-10.79755
 20
-14.50117
 30
0.0
 10
-10.79755
 20
-14.50117
 30
0.0
 10
-10.79755
 20
-14.50117
 30
0.0
 10
-10.79755
 20
-14.50117
 30
0.0
 10
-10.79755
 20
-14.4831
 30
0.0
 10
-10.79755
 20
-14.4831
 30
0.0
 10
-10.79755
 20
-14.4831
 30
0.0
 10
-10.79755
 20
-14.4831
 30
0.0
 10
-10.77365
 20
-14.47814
 30
0.0
 10
-10.77365
 20
-14.47814
 30
0.0
 10
-10.77365
 20
-14.47814
 30
0.0
 10
-10.77365
 20
-14.47814
 30
0.0
 10
-10.74844
 20
-14.47814
 30
0.0
 10
-10.74844
 20
-14.47814
 30
0.0
 10
-10.74844
 20
-14.47814
 30
0.0
 10
-10.74844
 20
-14.47814
 30
0.0
 10
-10.74844
 20
-14.56269
 30
0.0
 10
-10.74844
 20
-14.56269
 30
0.0
 10
-10.74844
 20
-14.56269
 30
0.0
 10
-10.74844
 20
-14.56269
 30
0.0
 10
-10.72502
 20
-14.56269
 30
0.0
 10
-10.72502
 20
-14.56269
 30
0.0
 10
-10.72502
 20
-14.56269
 30
0.0
 10
-10.72502
 20
-14.56269
 30
0.0
 10
-10.72502
 20
-14.58101
 30
0.0
 10
-10.72502
 20
-14.58101
 30
0.0
 10
-10.72502
 20
-14.58101
 30
0.0
 10
-10.72502
 20
-14.58101
 30
0.0
 10
-10.79694
 20
-14.58101
 30
0.0
 10
-10.79694
 20
-14.58101
 30
0.0
 10
-10.79694
 20
-14.58101
 30
0.0
 10
-10.79694
 20
-14.58101
 30
0.0
 10
-10.79694
 20
-14.56269
 30
0.0
 10
-10.79694
 20
-14.56269
 30
0.0
  0
SPLINE
  5
68
330
1F
100
AcDbEntity
  8
Layer 1
 62
   250
100
AcDbSpline
210
0.0
220
0.0
230
1.0
 70
    11
 71
     3
 72
    80
 73
    76
 74
     0
 42
0.0000000001
 43
0.0000000001
 40
0.0
 40
0.0
 40
0.0
 40
0.0
 40
0.0526315789473684
 40
0.0526315789473684
 40
0.0526315789473684
 40
0.0526315789473684
 40
0.1052631578947368
 40
0.1052631578947368
 40
0.1052631578947368
 40
0.1052631578947368
 40
0.1578947368421053
 40
0.1578947368421053
 40
0.1578947368421053
 40
0.1578947368421053
 40
0.2105263157894737
 40
0.2105263157894737
 40
0.2105263157894737
 40
0.2105263157894737
 40
0.2631578947368421
 40
0.2631578947368421
 40
0.2631578947368421
 40
0.2631578947368421
 40
0.3157894736842105
 40
0.3157894736842105
 40
0.3157894736842105
 40
0.3157894736842105
 40
0.3684210526315789
 40
0.3684210526315789
 40
0.3684210526315789
 40
0.3684210526315789
 40
0.4210526315789473
 40
0.4210526315789473
 40
0.4210526315789473
 40
0.4210526315789473
 40
0.4736842105263158
 40
0.4736842105263158
 40
0.4736842105263158
 40
0.4736842105263158
 40
0.5263157894736842
 40
0.5263157894736842
 40
0.5263157894736842
 40
0.5263157894736842
 40
0.5789473684210527
 40
0.5789473684210527
 40
0.5789473684210527
 40
0.5789473684210527
 40
0.631578947368421
 40
0.631578947368421
 40
0.631578947368421
 40
0.631578947368421
 40
0.6842105263157894
 40
0.6842105263157894
 40
0.6842105263157894
 40
0.6842105263157894
 40
0.7368421052631577
 40
0.7368421052631577
 40
0.7368421052631577
 40
0.7368421052631577
 40
0.7894736842105261
 40
0.7894736842105261
 40
0.7894736842105261
 40
0.7894736842105261
 40
0.8421052631578945
 40
0.8421052631578945
 40
0.8421052631578945
 40
0.8421052631578945
 40
0.8947368421052628
 40
0.8947368421052628
 40
0.8947368421052628
 40
0.8947368421052628
 40
0.9473684210526312
 40
0.9473684210526312
 40
0.9473684210526312
 40
0.9473684210526312
 40
1.0
 40
1.0
 40
1.0
 40
1.0
 10
-10.67462
 20
-14.56151
 30
0.0
 10
-10.67462
 20
-14.56151
 30
0.0
 10
-10.62934
 20
-14.56151
 30
0.0
 10
-10.62934
 20
-14.56151
 30
0.0
 10
-10.62934
 20
-14.56151
 30
0.0
 10
-10.62934
 20
-14.56151
 30
0.0
 10
-10.62934
 20
-14.58101
 30
0.0
 10
-10.62934
 20
-14.58101
 30
0.0
 10
-10.62934
 20
-14.58101
 30
0.0
 10
-10.62934
 20
-14.58101
 30
0.0
 10
-10.70411
 20
-14.58101
 30
0.0
 10
-10.70411
 20
-14.58101
 30
0.0
 10
-10.70411
 20
-14.58101
 30
0.0
 10
-10.70411
 20
-14.58101
 30
0.0
 10
-10.70411
 20
-14.56151
 30
0.0
 10
-10.70411
 20
-14.56151
 30
0.0
 10
-10.70411
 20
-14.56151
 30
0.0
 10
-10.70411
 20
-14.56151
 30
0.0
 10
-10.66655
 20
-14.52838
 30
0.0
 10
-10.66655
 20
-14.52838
 30
0.0
 10
-10.66655
 20
-14.52838
 30
0.0
 10
-10.66319
 20
-14.52534
 30
0.0
 10
-10.66072
 20
-14.52238
 30
0.0
 10
-10.65912
 20
-14.51949
 30
0.0
 10
-10.65912
 20
-14.51949
 30
0.0
 10
-10.6575
 20
-14.51659
 30
0.0
 10
-10.6567
 20
-14.51358
 30
0.0
 10
-10.6567
 20
-14.51045
 30
0.0
 10
-10.6567
 20
-14.51045
 30
0.0
 10
-10.6567
 20
-14.50563
 30
0.0
 10
-10.65832
 20
-14.50175
 30
0.0
 10
-10.66156
 20
-14.49881
 30
0.0
 10
-10.66156
 20
-14.49881
 30
0.0
 10
-10.66479
 20
-14.49587
 30
0.0
 10
-10.66909
 20
-14.49442
 30
0.0
 10
-10.67448
 20
-14.49442
 30
0.0
 10
-10.67448
 20
-14.49442
 30
0.0
 10
-10.67861
 20
-14.49442
 30
0.0
 10
-10.68313
 20
-14.49531
 30
0.0
 10
-10.68805
 20
-14.49707
 30
0.0
 10
-10.68805
 20
-14.49707
 30
0.0
 10
-10.69296
 20
-14.49884
 30
0.0
 10
-10.69823
 20
-14.50147
 30
0.0
 10
-10.70383
 20
-14.50495
 30
0.0
 10
-10.70383
 20
-14.50495
 30
0.0
 10
-10.70383
 20
-14.50495
 30
0.0
 10
-10.70383
 20
-14.48235
 30
0.0
 10
-10.70383
 20
-14.48235
 30
0.0
 10
-10.70383
 20
-14.48235
 30
0.0
 10
-10.69785
 20
-14.48038
 30
0.0
 10
-10.69195
 20
-14.47887
 30
0.0
 10
-10.68612
 20
-14.47784
 30
0.0
 10
-10.68612
 20
-14.47784
 30
0.0
 10
-10.68028
 20
-14.4768
 30
0.0
 10
-10.67457
 20
-14.47628
 30
0.0
 10
-10.66895
 20
-14.47628
 30
0.0
 10
-10.66895
 20
-14.47628
 30
0.0
 10
-10.65665
 20
-14.47628
 30
0.0
 10
-10.64708
 20
-14.47899
 30
0.0
 10
-10.64026
 20
-14.48442
 30
0.0
 10
-10.64026
 20
-14.48442
 30
0.0
 10
-10.63344
 20
-14.48983
 30
0.0
 10
-10.63003
 20
-14.49738
 30
0.0
 10
-10.63003
 20
-14.50709
 30
0.0
 10
-10.63003
 20
-14.50709
 30
0.0
 10
-10.63003
 20
-14.51269
 30
0.0
 10
-10.63148
 20
-14.51791
 30
0.0
 10
-10.63438
 20
-14.52276
 30
0.0
 10
-10.63438
 20
-14.52276
 30
0.0
 10
-10.63727
 20
-14.5276
 30
0.0
 10
-10.64336
 20
-14.53409
 30
0.0
 10
-10.65263
 20
-14.54223
 30
0.0
 10
-10.65263
 20
-14.54223
 30
0.0
 10
-10.65263
 20
-14.54223
 30
0.0
 10
-10.67462
 20
-14.56151
 30
0.0
 10
-10.67462
 20
-14.56151
 30
0.0
  0
SPLINE
  5
69
330
1F
100
AcDbEntity
  8
Layer 1
 62
   250
100
AcDbSpline
210
0.0
220
0.0
230
1.0
 70
    11
 71
     3
 72
    36
 73
    32
 74
     0
 42
0.0000000001
 43
0.0000000001
 40
0.0
 40
0.0
 40
0.0
 40
0.0
 40
0.125
 40
0.125
 40
0.125
 40
0.125
 40
0.25
 40
0.25
 40
0.25
 40
0.25
 40
0.375
 40
0.375
 40
0.375
 40
0.375
 40
0.5
 40
0.5
 40
0.5
 40
0.5
 40
0.625
 40
0.625
 40
0.625
 40
0.625
 40
0.75
 40
0.75
 40
0.75
 40
0.75
 40
0.875
 40
0.875
 40
0.875
 40
0.875
 40
1.0
 40
1.0
 40
1.0
 40
1.0
 10
-10.55218
 20
-14.52948
 30
0.0
 10
-10.55218
 20
-14.51662
 30
0.0
 10
-10.55338
 20
-14.50756
 30
0.0
 10
-10.5558
 20
-14.50229
 30
0.0
 10
-10.5558
 20
-14.50229
 30
0.0
 10
-10.5582
 20
-14.49705
 30
0.0
 10
-10.56227
 20
-14.49442
 30
0.0
 10
-10.56796
 20
-14.49442
 30
0.0
 10
-10.56796
 20
-14.49442
 30
0.0
 10
-10.57365
 20
-14.49442
 30
0.0
 10
-10.57772
 20
-14.49705
 30
0.0
 10
-10.58017
 20
-14.50229
 30
0.0
 10
-10.58017
 20
-14.50229
 30
0.0
 10
-10.58259
 20
-14.50756
 30
0.0
 10
-10.58381
 20
-14.51662
 30
0.0
 10
-10.58381
 20
-14.52948
 30
0.0
 10
-10.58381
 20
-14.52948
 30
0.0
 10
-10.58381
 20
-14.54246
 30
0.0
 10
-10.58259
 20
-14.55164
 30
0.0
 10
-10.58017
 20
-14.55695
 30
0.0
 10
-10.58017
 20
-14.55695
 30
0.0
 10
-10.57772
 20
-14.56229
 30
0.0
 10
-10.57365
 20
-14.56495
 30
0.0
 10
-10.56796
 20
-14.56495
 30
0.0
 10
-10.56796
 20
-14.56495
 30
0.0
 10
-10.56232
 20
-14.56495
 30
0.0
 10
-10.55827
 20
-14.56229
 30
0.0
 10
-10.55582
 20
-14.55695
 30
0.0
 10
-10.55582
 20
-14.55695
 30
0.0
 10
-10.5534
 20
-14.55164
 30
0.0
 10
-10.55218
 20
-14.54246
 30
0.0
 10
-10.55218
 20
-14.52948
 30
0.0
  0
SPLINE
  5
6A
330
1F
100
AcDbEntity
  8
Layer 1
 62
   250
100
AcDbSpline
210
0.0
220
0.0
230
1.0
 70
    11
 71
     3
 72
    36
 73
    32
 74
     0
 42
0.0000000001
 43
0.0000000001
 40
0.0
 40
0.0
 40
0.0
 40
0.0
 40
0.125
 40
0.125
 40
0.125
 40
0.125
 40
0.25
 40
0.25
 40
0.25
 40
0.25
 40
0.375
 40
0.375
 40
0.375
 40
0.375
 40
0.5
 40
0.5
 40
0.5
 40
0.5
 40
0.625
 40
0.625
 40
0.625
 40
0.625
 40
0.75
 40
0.75
 40
0.75
 40
0.75
 40
0.875
 40
0.875
 40
0.875
 40
0.875
 40
1.0
 40
1.0
 40
1.0
 40
1.0
 10
-10.52565
 20
-14.52967
 30
0.0
 10
-10.52565
 20
-14.54672
 30
0.0
 10
-10.52932
 20
-14.55987
 30
0.0
 10
-10.53668
 20
-14.56913
 30
0.0
 10
-10.53668
 20
-14.56913
 30
0.0
 10
-10.54402
 20
-14.57838
 30
0.0
 10
-10.55446
 20
-14.58301
 30
0.0
 10
-10.56796
 20
-14.58301
 30
0.0
 10
-10.56796
 20
-14.58301
 30
0.0
 10
-10.58151
 20
-14.58301
 30
0.0
 10
-10.59197
 20
-14.57838
 30
0.0
 10
-10.59931
 20
-14.56913
 30
0.0
 10
-10.59931
 20
-14.56913
 30
0.0
 10
-10.60667
 20
-14.55987
 30
0.0
 10
-10.61034
 20
-14.54672
 30
0.0
 10
-10.61034
 20
-14.52967
 30
0.0
 10
-10.61034
 20
-14.52967
 30
0.0
 10
-10.61034
 20
-14.5126
 30
0.0
 10
-10.60667
 20
-14.49942
 30
0.0
 10
-10.59931
 20
-14.49016
 30
0.0
 10
-10.59931
 20
-14.49016
 30
0.0
 10
-10.59197
 20
-14.48092
 30
0.0
 10
-10.58151
 20
-14.47628
 30
0.0
 10
-10.56796
 20
-14.47628
 30
0.0
 10
-10.56796
 20
-14.47628
 30
0.0
 10
-10.55446
 20
-14.47628
 30
0.0
 10
-10.54402
 20
-14.48092
 30
0.0
 10
-10.53668
 20
-14.49016
 30
0.0
 10
-10.53668
 20
-14.49016
 30
0.0
 10
-10.52932
 20
-14.49942
 30
0.0
 10
-10.52565
 20
-14.5126
 30
0.0
 10
-10.52565
 20
-14.52967
 30
0.0
  0
SPLINE
  5
6B
330
1F
100
AcDbEntity
  8
Layer 1
 62
   250
100
AcDbSpline
210
0.0
220
0.0
230
1.0
 70
    11
 71
     3
 72
    36
 73
    32
 74
     0
 42
0.0000000001
 43
0.0000000001
 40
0.0
 40
0.0
 40
0.0
 40
0.0
 40
0.125
 40
0.125
 40
0.125
 40
0.125
 40
0.25
 40
0.25
 40
0.25
 40
0.25
 40
0.375
 40
0.375
 40
0.375
 40
0.375
 40
0.5
 40
0.5
 40
0.5
 40
0.5
 40
0.625
 40
0.625
 40
0.625
 40
0.625
 40
0.75
 40
0.75
 40
0.75
 40
0.75
 40
0.875
 40
0.875
 40
0.875
 40
0.875
 40
1.0
 40
1.0
 40
1.0
 40
1.0
 10
-10.46784
 20
-14.53023
 30
0.0
 10
-10.4725
 20
-14.53023
 30
0.0
 10
-10.47598
 20
-14.53174
 30
0.0
 10
-10.47828
 20
-14.53475
 30
0.0
 10
-10.47828
 20
-14.53475
 30
0.0
 10
-10.48061
 20
-14.53776
 30
0.0
 10
-10.48176
 20
-14.54228
 30
0.0
 10
-10.48176
 20
-14.54827
 30
0.0
 10
-10.48176
 20
-14.54827
 30
0.0
 10
-10.48176
 20
-14.55429
 30
0.0
 10
-10.48061
 20
-14.55881
 30
0.0
 10
-10.47828
 20
-14.56182
 30
0.0
 10
-10.47828
 20
-14.56182
 30
0.0
 10
-10.47598
 20
-14.56483
 30
0.0
 10
-10.4725
 20
-14.56633
 30
0.0
 10
-10.46784
 20
-14.56633
 30
0.0
 10
-10.46784
 20
-14.56633
 30
0.0
 10
-10.46316
 20
-14.56633
 30
0.0
 10
-10.45966
 20
-14.56483
 30
0.0
 10
-10.45735
 20
-14.56182
 30
0.0
 10
-10.45735
 20
-14.56182
 30
0.0
 10
-10.45502
 20
-14.55881
 30
0.0
 10
-10.45387
 20
-14.55429
 30
0.0
 10
-10.45387
 20
-14.54827
 30
0.0
 10
-10.45387
 20
-14.54827
 30
0.0
 10
-10.45387
 20
-14.54228
 30
0.0
 10
-10.45502
 20
-14.53776
 30
0.0
 10
-10.45735
 20
-14.53475
 30
0.0
 10
-10.45735
 20
-14.53475
 30
0.0
 10
-10.45966
 20
-14.53174
 30
0.0
 10
-10.46316
 20
-14.53023
 30
0.0
 10
-10.46784
 20
-14.53023
 30
0.0
  0
SPLINE
  5
6C
330
1F
100
AcDbEntity
  8
Layer 1
 62
   250
100
AcDbSpline
210
0.0
220
0.0
230
1.0
 70
    11
 71
     3
 72
    72
 73
    68
 74
     0
 42
0.0000000001
 43
0.0000000001
 40
0.0
 40
0.0
 40
0.0
 40
0.0
 40
0.0588235294117647
 40
0.0588235294117647
 40
0.0588235294117647
 40
0.0588235294117647
 40
0.1176470588235294
 40
0.1176470588235294
 40
0.1176470588235294
 40
0.1176470588235294
 40
0.1764705882352941
 40
0.1764705882352941
 40
0.1764705882352941
 40
0.1764705882352941
 40
0.2352941176470588
 40
0.2352941176470588
 40
0.2352941176470588
 40
0.2352941176470588
 40
0.2941176470588235
 40
0.2941176470588235
 40
0.2941176470588235
 40
0.2941176470588235
 40
0.3529411764705883
 40
0.3529411764705883
 40
0.3529411764705883
 40
0.3529411764705883
 40
0.411764705882353
 40
0.411764705882353
 40
0.411764705882353
 40
0.411764705882353
 40
0.4705882352941177
 40
0.4705882352941177
 40
0.4705882352941177
 40
0.4705882352941177
 40
0.5294117647058824
 40
0.5294117647058824
 40
0.5294117647058824
 40
0.5294117647058824
 40
0.5882352941176471
 40
0.5882352941176471
 40
0.5882352941176471
 40
0.5882352941176471
 40
0.6470588235294118
 40
0.6470588235294118
 40
0.6470588235294118
 40
0.6470588235294118
 40
0.7058823529411765
 40
0.7058823529411765
 40
0.7058823529411765
 40
0.7058823529411765
 40
0.7647058823529412
 40
0.7647058823529412
 40
0.7647058823529412
 40
0.7647058823529412
 40
0.823529411764706
 40
0.823529411764706
 40
0.823529411764706
 40
0.823529411764706
 40
0.8823529411764707
 40
0.8823529411764707
 40
0.8823529411764707
 40
0.8823529411764707
 40
0.9411764705882354
 40
0.9411764705882354
 40
0.9411764705882354
 40
0.9411764705882354
 40
1.0
 40
1.0
 40
1.0
 40
1.0
 10
-10.43506
 20
-14.48082
 30
0.0
 10
-10.43506
 20
-14.48082
 30
0.0
 10
-10.43506
 20
-14.49985
 30
0.0
 10
-10.43506
 20
-14.49985
 30
0.0
 10
-10.43506
 20
-14.49985
 30
0.0
 10
-10.43943
 20
-14.49778
 30
0.0
 10
-10.44352
 20
-14.49625
 30
0.0
 10
-10.44738
 20
-14.49526
 30
0.0
 10
-10.44738
 20
-14.49526
 30
0.0
 10
-10.45124
 20
-14.49427
 30
0.0
 10
-10.45502
 20
-14.49378
 30
0.0
 10
-10.45869
 20
-14.49378
 30
0.0
 10
-10.45869
 20
-14.49378
 30
0.0
 10
-10.4666
 20
-14.49378
 30
0.0
 10
-10.47273
 20
-14.49597
 30
0.0
 10
-10.47715
 20
-14.50037
 30
0.0
 10
-10.47715
 20
-14.50037
 30
0.0
 10
-10.48155
 20
-14.50474
 30
0.0
 10
-10.48414
 20
-14.51125
 30
0.0
 10
-10.48487
 20
-14.51989
 30
0.0
 10
-10.48487
 20
-14.51989
 30
0.0
 10
-10.48184
 20
-14.51765
 30
0.0
 10
-10.47854
 20
-14.51596
 30
0.0
 10
-10.47501
 20
-14.51483
 30
0.0
 10
-10.47501
 20
-14.51483
 30
0.0
 10
-10.47149
 20
-14.5137
 30
0.0
 10
-10.46763
 20
-14.51314
 30
0.0
 10
-10.46344
 20
-14.51314
 30
0.0
 10
-10.46344
 20
-14.51314
 30
0.0
 10
-10.45293
 20
-14.51314
 30
0.0
 10
-10.44444
 20
-14.51622
 30
0.0
 10
-10.438
 20
-14.52238
 30
0.0
 10
-10.438
 20
-14.52238
 30
0.0
 10
-10.43153
 20
-14.52852
 30
0.0
 10
-10.42831
 20
-14.53658
 30
0.0
 10
-10.42831
 20
-14.54656
 30
0.0
 10
-10.42831
 20
-14.54656
 30
0.0
 10
-10.42831
 20
-14.55759
 30
0.0
 10
-10.43191
 20
-14.56641
 30
0.0
 10
-10.43913
 20
-14.57306
 30
0.0
 10
-10.43913
 20
-14.57306
 30
0.0
 10
-10.44632
 20
-14.57969
 30
0.0
 10
-10.45601
 20
-14.58301
 30
0.0
 10
-10.46812
 20
-14.58301
 30
0.0
 10
-10.46812
 20
-14.58301
 30
0.0
 10
-10.48148
 20
-14.58301
 30
0.0
 10
-10.49183
 20
-14.57849
 30
0.0
 10
-10.49917
 20
-14.56946
 30
0.0
 10
-10.49917
 20
-14.56946
 30
0.0
 10
-10.50648
 20
-14.56045
 30
0.0
 10
-10.51015
 20
-14.54764
 30
0.0
 10
-10.51015
 20
-14.53106
 30
0.0
 10
-10.51015
 20
-14.53106
 30
0.0
 10
-10.51015
 20
-14.51408
 30
0.0
 10
-10.50587
 20
-14.50072
 30
0.0
 10
-10.49731
 20
-14.49101
 30
0.0
 10
-10.49731
 20
-14.49101
 30
0.0
 10
-10.48873
 20
-14.48129
 30
0.0
 10
-10.47699
 20
-14.47642
 30
0.0
 10
-10.46206
 20
-14.47642
 30
0.0
 10
-10.46206
 20
-14.47642
 30
0.0
 10
-10.45733
 20
-14.47642
 30
0.0
 10
-10.45274
 20
-14.4768
 30
0.0
 10
-10.44827
 20
-14.47753
 30
0.0
 10
-10.44827
 20
-14.47753
 30
0.0
 10
-10.44383
 20
-14.47826
 30
0.0
 10
-10.43943
 20
-14.47936
 30
0.0
 10
-10.43506
 20
-14.48082
 30
0.0
  0
SPLINE
  5
6D
330
1F
100
AcDbEntity
  8
Layer 1
 62
   250
100
AcDbSpline
210
0.0
220
0.0
230
1.0
 70
    11
 71
     3
 72
    44
 73
    40
 74
     0
 42
0.0000000001
 43
0.0000000001
 40
0.0
 40
0.0
 40
0.0
 40
0.0
 40
0.1
 40
0.1
 40
0.1
 40
0.1
 40
0.2
 40
0.2
 40
0.2
 40
0.2
 40
0.3
 40
0.3
 40
0.3
 40
0.3
 40
0.4
 40
0.4
 40
0.4
 40
0.4
 40
0.5
 40
0.5
 40
0.5
 40
0.5
 40
0.6
 40
0.6
 40
0.6
 40
0.6
 40
0.7
 40
0.7
 40
0.7
 40
0.7
 40
0.7999999999999999
 40
0.7999999999999999
 40
0.7999999999999999
 40
0.7999999999999999
 40
0.8999999999999999
 40
0.8999999999999999
 40
0.8999999999999999
 40
0.8999999999999999
 40
1.0
 40
1.0
 40
1.0
 40
1.0
 10
-10.40942
 20
-14.59961
 30
0.0
 10
-10.40354
 20
-14.58868
 30
0.0
 10
-10.39912
 20
-14.578
 30
0.0
 10
-10.39618
 20
-14.56758
 30
0.0
 10
-10.39618
 20
-14.56758
 30
0.0
 10
-10.39324
 20
-14.55714
 30
0.0
 10
-10.39178
 20
-14.54686
 30
0.0
 10
-10.39178
 20
-14.5367
 30
0.0
 10
-10.39178
 20
-14.5367
 30
0.0
 10
-10.39178
 20
-14.52654
 30
0.0
 10
-10.39324
 20
-14.51626
 30
0.0
 10
-10.39618
 20
-14.50587
 30
0.0
 10
-10.39618
 20
-14.50587
 30
0.0
 10
-10.39912
 20
-14.49547
 30
0.0
 10
-10.40354
 20
-14.48482
 30
0.0
 10
-10.40942
 20
-14.47393
 30
0.0
 10
-10.40942
 20
-14.47393
 30
0.0
 10
-10.40942
 20
-14.47393
 30
0.0
 10
-10.38896
 20
-14.47393
 30
0.0
 10
-10.38896
 20
-14.47393
 30
0.0
 10
-10.38896
 20
-14.47393
 30
0.0
 10
-10.38198
 20
-14.4852
 30
0.0
 10
-10.3768
 20
-14.49597
 30
0.0
 10
-10.37341
 20
-14.50629
 30
0.0
 10
-10.37341
 20
-14.50629
 30
0.0
 10
-10.37005
 20
-14.51659
 30
0.0
 10
-10.36836
 20
-14.52678
 30
0.0
 10
-10.36836
 20
-14.53684
 30
0.0
 10
-10.36836
 20
-14.53684
 30
0.0
 10
-10.36836
 20
-14.54691
 30
0.0
 10
-10.37003
 20
-14.55704
 30
0.0
 10
-10.37339
 20
-14.56725
 30
0.0
 10
-10.37339
 20
-14.56725
 30
0.0
 10
-10.37673
 20
-14.57748
 30
0.0
 10
-10.38193
 20
-14.58828
 30
0.0
 10
-10.38896
 20
-14.59961
 30
0.0
 10
-10.38896
 20
-14.59961
 30
0.0
 10
-10.38896
 20
-14.59961
 30
0.0
 10
-10.40942
 20
-14.59961
 30
0.0
 10
-10.40942
 20
-14.59961
 30
0.0
  0
SPLINE
  5
6E
330
1F
100
AcDbEntity
  8
Layer 1
 62
   250
100
AcDbSpline
210
0.0
220
0.0
230
1.0
 70
    11
 71
     3
 72
    92
 73
    88
 74
     0
 42
0.0000000001
 43
0.0000000001
 40
0.0
 40
0.0
 40
0.0
 40
0.0
 40
0.0454545454545455
 40
0.0454545454545455
 40
0.0454545454545455
 40
0.0454545454545455
 40
0.0909090909090909
 40
0.0909090909090909
 40
0.0909090909090909
 40
0.0909090909090909
 40
0.1363636363636364
 40
0.1363636363636364
 40
0.1363636363636364
 40
0.1363636363636364
 40
0.1818181818181818
 40
0.1818181818181818
 40
0.1818181818181818
 40
0.1818181818181818
 40
0.2272727272727273
 40
0.2272727272727273
 40
0.2272727272727273
 40
0.2272727272727273
 40
0.2727272727272728
 40
0.2727272727272728
 40
0.2727272727272728
 40
0.2727272727272728
 40
0.3181818181818182
 40
0.3181818181818182
 40
0.3181818181818182
 40
0.3181818181818182
 40
0.3636363636363637
 40
0.3636363636363637
 40
0.3636363636363637
 40
0.3636363636363637
 40
0.4090909090909092
 40
0.4090909090909092
 40
0.4090909090909092
 40
0.4090909090909092
 40
0.4545454545454546
 40
0.4545454545454546
 40
0.4545454545454546
 40
0.4545454545454546
 40
0.5000000000000001
 40
0.5000000000000001
 40
0.5000000000000001
 40
0.5000000000000001
 40
0.5454545454545455
 40
0.5454545454545455
 40
0.5454545454545455
 40
0.5454545454545455
 40
0.5909090909090909
 40
0.5909090909090909
 40
0.5909090909090909
 40
0.5909090909090909
 40
0.6363636363636364
 40
0.6363636363636364
 40
0.6363636363636364
 40
0.6363636363636364
 40
0.6818181818181818
 40
0.6818181818181818
 40
0.6818181818181818
 40
0.6818181818181818
 40
0.7272727272727272
 40
0.7272727272727272
 40
0.7272727272727272
 40
0.7272727272727272
 40
0.7727272727272726
 40
0.7727272727272726
 40
0.7727272727272726
 40
0.7727272727272726
 40
0.818181818181818
 40
0.818181818181818
 40
0.818181818181818
 40
0.818181818181818
 40
0.8636363636363634
 40
0.8636363636363634
 40
0.8636363636363634
 40
0.8636363636363634
 40
0.9090909090909088
 40
0.9090909090909088
 40
0.9090909090909088
 40
0.9090909090909088
 40
0.9545454545454543
 40
0.9545454545454543
 40
0.9545454545454543
 40
0.9545454545454543
 40
1.0
 40
1.0
 40
1.0
 40
1.0
 10
-10.29213
 20
-14.47814
 30
0.0
 10
-10.29213
 20
-14.47814
 30
0.0
 10
-10.22619
 20
-14.47814
 30
0.0
 10
-10.22619
 20
-14.47814
 30
0.0
 10
-10.22619
 20
-14.47814
 30
0.0
 10
-10.22619
 20
-14.47814
 30
0.0
 10
-10.22619
 20
-14.49764
 30
0.0
 10
-10.22619
 20
-14.49764
 30
0.0
 10
-10.22619
 20
-14.49764
 30
0.0
 10
-10.22619
 20
-14.49764
 30
0.0
 10
-10.27099
 20
-14.49764
 30
0.0
 10
-10.27099
 20
-14.49764
 30
0.0
 10
-10.27099
 20
-14.49764
 30
0.0
 10
-10.27099
 20
-14.49764
 30
0.0
 10
-10.27099
 20
-14.51356
 30
0.0
 10
-10.27099
 20
-14.51356
 30
0.0
 10
-10.27099
 20
-14.51356
 30
0.0
 10
-10.26897
 20
-14.51302
 30
0.0
 10
-10.26694
 20
-14.5126
 30
0.0
 10
-10.2649
 20
-14.51229
 30
0.0
 10
-10.2649
 20
-14.51229
 30
0.0
 10
-10.26285
 20
-14.51198
 30
0.0
 10
-10.26071
 20
-14.51184
 30
0.0
 10
-10.25852
 20
-14.51184
 30
0.0
 10
-10.25852
 20
-14.51184
 30
0.0
 10
-10.24597
 20
-14.51184
 30
0.0
 10
-10.23621
 20
-14.51497
 30
0.0
 10
-10.22922
 20
-14.52125
 30
0.0
 10
-10.22922
 20
-14.52125
 30
0.0
 10
-10.22224
 20
-14.52751
 30
0.0
 10
-10.21876
 20
-14.53625
 30
0.0
 10
-10.21876
 20
-14.54745
 30
0.0
 10
-10.21876
 20
-14.54745
 30
0.0
 10
-10.21876
 20
-14.55857
 30
0.0
 10
-10.22257
 20
-14.56728
 30
0.0
 10
-10.23016
 20
-14.57358
 30
0.0
 10
-10.23016
 20
-14.57358
 30
0.0
 10
-10.23776
 20
-14.57986
 30
0.0
 10
-10.24832
 20
-14.58301
 30
0.0
 10
-10.26182
 20
-14.58301
 30
0.0
 10
-10.26182
 20
-14.58301
 30
0.0
 10
-10.26765
 20
-14.58301
 30
0.0
 10
-10.27344
 20
-14.58244
 30
0.0
 10
-10.27915
 20
-14.58132
 30
0.0
 10
-10.27915
 20
-14.58132
 30
0.0
 10
-10.28487
 20
-14.58019
 30
0.0
 10
-10.29056
 20
-14.57849
 30
0.0
 10
-10.2962
 20
-14.57619
 30
0.0
 10
-10.2962
 20
-14.57619
 30
0.0
 10
-10.2962
 20
-14.57619
 30
0.0
 10
-10.2962
 20
-14.5553
 30
0.0
 10
-10.2962
 20
-14.5553
 30
0.0
 10
-10.2962
 20
-14.5553
 30
0.0
 10
-10.2906
 20
-14.55853
 30
0.0
 10
-10.28529
 20
-14.56093
 30
0.0
 10
-10.28026
 20
-14.56252
 30
0.0
 10
-10.28026
 20
-14.56252
 30
0.0
 10
-10.27522
 20
-14.56415
 30
0.0
 10
-10.27047
 20
-14.56495
 30
0.0
 10
-10.26603
 20
-14.56495
 30
0.0
 10
-10.26603
 20
-14.56495
 30
0.0
 10
-10.25958
 20
-14.56495
 30
0.0
 10
-10.25453
 20
-14.56337
 30
0.0
 10
-10.25083
 20
-14.56022
 30
0.0
 10
-10.25083
 20
-14.56022
 30
0.0
 10
-10.24714
 20
-14.55709
 30
0.0
 10
-10.24528
 20
-14.55284
 30
0.0
 10
-10.24528
 20
-14.54745
 30
0.0
 10
-10.24528
 20
-14.54745
 30
0.0
 10
-10.24528
 20
-14.54204
 30
0.0
 10
-10.24714
 20
-14.53778
 30
0.0
 10
-10.25083
 20
-14.53466
 30
0.0
 10
-10.25083
 20
-14.53466
 30
0.0
 10
-10.25453
 20
-14.53153
 30
0.0
 10
-10.25958
 20
-14.52998
 30
0.0
 10
-10.26603
 20
-14.52998
 30
0.0
 10
-10.26603
 20
-14.52998
 30
0.0
 10
-10.26984
 20
-14.52998
 30
0.0
 10
-10.27391
 20
-14.53047
 30
0.0
 10
-10.27821
 20
-14.53146
 30
0.0
 10
-10.27821
 20
-14.53146
 30
0.0
 10
-10.28254
 20
-14.53244
 30
0.0
 10
-10.28717
 20
-14.53397
 30
0.0
 10
-10.29213
 20
-14.53604
 30
0.0
 10
-10.29213
 20
-14.53604
 30
0.0
 10
-10.29213
 20
-14.53604
 30
0.0
 10
-10.29213
 20
-14.47814
 30
0.0
 10
-10.29213
 20
-14.47814
 30
0.0
  0
SPLINE
  5
6F
330
1F
100
AcDbEntity
  8
Layer 1
 62
   250
100
AcDbSpline
210
0.0
220
0.0
230
1.0
 70
    11
 71
     3
 72
    36
 73
    32
 74
     0
 42
0.0000000001
 43
0.0000000001
 40
0.0
 40
0.0
 40
0.0
 40
0.0
 40
0.125
 40
0.125
 40
0.125
 40
0.125
 40
0.25
 40
0.25
 40
0.25
 40
0.25
 40
0.375
 40
0.375
 40
0.375
 40
0.375
 40
0.5
 40
0.5
 40
0.5
 40
0.5
 40
0.625
 40
0.625
 40
0.625
 40
0.625
 40
0.75
 40
0.75
 40
0.75
 40
0.75
 40
0.875
 40
0.875
 40
0.875
 40
0.875
 40
1.0
 40
1.0
 40
1.0
 40
1.0
 10
-10.14399
 20
-14.52948
 30
0.0
 10
-10.14399
 20
-14.51662
 30
0.0
 10
-10.14519
 20
-14.50756
 30
0.0
 10
-10.14761
 20
-14.50229
 30
0.0
 10
-10.14761
 20
-14.50229
 30
0.0
 10
-10.15001
 20
-14.49705
 30
0.0
 10
-10.15408
 20
-14.49442
 30
0.0
 10
-10.15977
 20
-14.49442
 30
0.0
 10
-10.15977
 20
-14.49442
 30
0.0
 10
-10.16546
 20
-14.49442
 30
0.0
 10
-10.16953
 20
-14.49705
 30
0.0
 10
-10.17198
 20
-14.50229
 30
0.0
 10
-10.17198
 20
-14.50229
 30
0.0
 10
-10.1744
 20
-14.50756
 30
0.0
 10
-10.17562
 20
-14.51662
 30
0.0
 10
-10.17562
 20
-14.52948
 30
0.0
 10
-10.17562
 20
-14.52948
 30
0.0
 10
-10.17562
 20
-14.54246
 30
0.0
 10
-10.1744
 20
-14.55164
 30
0.0
 10
-10.17198
 20
-14.55695
 30
0.0
 10
-10.17198
 20
-14.55695
 30
0.0
 10
-10.16953
 20
-14.56229
 30
0.0
 10
-10.16546
 20
-14.56495
 30
0.0
 10
-10.15977
 20
-14.56495
 30
0.0
 10
-10.15977
 20
-14.56495
 30
0.0
 10
-10.15413
 20
-14.56495
 30
0.0
 10
-10.15008
 20
-14.56229
 30
0.0
 10
-10.14763
 20
-14.55695
 30
0.0
 10
-10.14763
 20
-14.55695
 30
0.0
 10
-10.14521
 20
-14.55164
 30
0.0
 10
-10.14399
 20
-14.54246
 30
0.0
 10
-10.14399
 20
-14.52948
 30
0.0
  0
SPLINE
  5
70
330
1F
100
AcDbEntity
  8
Layer 1
 62
   250
100
AcDbSpline
210
0.0
220
0.0
230
1.0
 70
    11
 71
     3
 72
    36
 73
    32
 74
     0
 42
0.0000000001
 43
0.0000000001
 40
0.0
 40
0.0
 40
0.0
 40
0.0
 40
0.125
 40
0.125
 40
0.125
 40
0.125
 40
0.25
 40
0.25
 40
0.25
 40
0.25
 40
0.375
 40
0.375
 40
0.375
 40
0.375
 40
0.5
 40
0.5
 40
0.5
 40
0.5
 40
0.625
 40
0.625
 40
0.625
 40
0.625
 40
0.75
 40
0.75
 40
0.75
 40
0.75
 40
0.875
 40
0.875
 40
0.875
 40
0.875
 40
1.0
 40
1.0
 40
1.0
 40
1.0
 10
-10.11746
 20
-14.52967
 30
0.0
 10
-10.11746
 20
-14.54672
 30
0.0
 10
-10.12113
 20
-14.55987
 30
0.0
 10
-10.12849
 20
-14.56913
 30
0.0
 10
-10.12849
 20
-14.56913
 30
0.0
 10
-10.13583
 20
-14.57838
 30
0.0
 10
-10.14627
 20
-14.58301
 30
0.0
 10
-10.15977
 20
-14.58301
 30
0.0
 10
-10.15977
 20
-14.58301
 30
0.0
 10
-10.17332
 20
-14.58301
 30
0.0
 10
-10.18378
 20
-14.57838
 30
0.0
 10
-10.19112
 20
-14.56913
 30
0.0
 10
-10.19112
 20
-14.56913
 30
0.0
 10
-10.19848
 20
-14.55987
 30
0.0
 10
-10.20215
 20
-14.54672
 30
0.0
 10
-10.20215
 20
-14.52967
 30
0.0
 10
-10.20215
 20
-14.52967
 30
0.0
 10
-10.20215
 20
-14.5126
 30
0.0
 10
-10.19848
 20
-14.49942
 30
0.0
 10
-10.19112
 20
-14.49016
 30
0.0
 10
-10.19112
 20
-14.49016
 30
0.0
 10
-10.18378
 20
-14.48092
 30
0.0
 10
-10.17332
 20
-14.47628
 30
0.0
 10
-10.15977
 20
-14.47628
 30
0.0
 10
-10.15977
 20
-14.47628
 30
0.0
 10
-10.14627
 20
-14.47628
 30
0.0
 10
-10.13583
 20
-14.48092
 30
0.0
 10
-10.12849
 20
-14.49016
 30
0.0
 10
-10.12849
 20
-14.49016
 30
0.0
 10
-10.12113
 20
-14.49942
 30
0.0
 10
-10.11746
 20
-14.5126
 30
0.0
 10
-10.11746
 20
-14.52967
 30
0.0
  0
SPLINE
  5
71
330
1F
100
AcDbEntity
  8
Layer 1
 62
   250
100
AcDbSpline
210
0.0
220
0.0
230
1.0
 70
    11
 71
     3
 72
    36
 73
    32
 74
     0
 42
0.0000000001
 43
0.0000000001
 40
0.0
 40
0.0
 40
0.0
 40
0.0
 40
0.125
 40
0.125
 40
0.125
 40
0.125
 40
0.25
 40
0.25
 40
0.25
 40
0.25
 40
0.375
 40
0.375
 40
0.375
 40
0.375
 40
0.5
 40
0.5
 40
0.5
 40
0.5
 40
0.625
 40
0.625
 40
0.625
 40
0.625
 40
0.75
 40
0.75
 40
0.75
 40
0.75
 40
0.875
 40
0.875
 40
0.875
 40
0.875
 40
1.0
 40
1.0
 40
1.0
 40
1.0
 10
-10.0458
 20
-14.52948
 30
0.0
 10
-10.0458
 20
-14.51662
 30
0.0
 10
-10.047
 20
-14.50756
 30
0.0
 10
-10.04942
 20
-14.50229
 30
0.0
 10
-10.04942
 20
-14.50229
 30
0.0
 10
-10.05182
 20
-14.49705
 30
0.0
 10
-10.05589
 20
-14.49442
 30
0.0
 10
-10.06158
 20
-14.49442
 30
0.0
 10
-10.06158
 20
-14.49442
 30
0.0
 10
-10.06727
 20
-14.49442
 30
0.0
 10
-10.07134
 20
-14.49705
 30
0.0
 10
-10.07379
 20
-14.50229
 30
0.0
 10
-10.07379
 20
-14.50229
 30
0.0
 10
-10.07621
 20
-14.50756
 30
0.0
 10
-10.07743
 20
-14.51662
 30
0.0
 10
-10.07743
 20
-14.52948
 30
0.0
 10
-10.07743
 20
-14.52948
 30
0.0
 10
-10.07743
 20
-14.54246
 30
0.0
 10
-10.07621
 20
-14.55164
 30
0.0
 10
-10.07379
 20
-14.55695
 30
0.0
 10
-10.07379
 20
-14.55695
 30
0.0
 10
-10.07134
 20
-14.56229
 30
0.0
 10
-10.06727
 20
-14.56495
 30
0.0
 10
-10.06158
 20
-14.56495
 30
0.0
 10
-10.06158
 20
-14.56495
 30
0.0
 10
-10.05594
 20
-14.56495
 30
0.0
 10
-10.05189
 20
-14.56229
 30
0.0
 10
-10.04944
 20
-14.55695
 30
0.0
 10
-10.04944
 20
-14.55695
 30
0.0
 10
-10.04702
 20
-14.55164
 30
0.0
 10
-10.0458
 20
-14.54246
 30
0.0
 10
-10.0458
 20
-14.52948
 30
0.0
  0
SPLINE
  5
72
330
1F
100
AcDbEntity
  8
Layer 1
 62
   250
100
AcDbSpline
210
0.0
220
0.0
230
1.0
 70
    11
 71
     3
 72
    36
 73
    32
 74
     0
 42
0.0000000001
 43
0.0000000001
 40
0.0
 40
0.0
 40
0.0
 40
0.0
 40
0.125
 40
0.125
 40
0.125
 40
0.125
 40
0.25
 40
0.25
 40
0.25
 40
0.25
 40
0.375
 40
0.375
 40
0.375
 40
0.375
 40
0.5
 40
0.5
 40
0.5
 40
0.5
 40
0.625
 40
0.625
 40
0.625
 40
0.625
 40
0.75
 40
0.75
 40
0.75
 40
0.75
 40
0.875
 40
0.875
 40
0.875
 40
0.875
 40
1.0
 40
1.0
 40
1.0
 40
1.0
 10
-10.01927
 20
-14.52967
 30
0.0
 10
-10.01927
 20
-14.54672
 30
0.0
 10
-10.02294
 20
-14.55987
 30
0.0
 10
-10.0303
 20
-14.56913
 30
0.0
 10
-10.0303
 20
-14.56913
 30
0.0
 10
-10.03764
 20
-14.57838
 30
0.0
 10
-10.04808
 20
-14.58301
 30
0.0
 10
-10.06158
 20
-14.58301
 30
0.0
 10
-10.06158
 20
-14.58301
 30
0.0
 10
-10.07513
 20
-14.58301
 30
0.0
 10
-10.08559
 20
-14.57838
 30
0.0
 10
-10.09293
 20
-14.56913
 30
0.0
 10
-10.09293
 20
-14.56913
 30
0.0
 10
-10.10029
 20
-14.55987
 30
0.0
 10
-10.10396
 20
-14.54672
 30
0.0
 10
-10.10396
 20
-14.52967
 30
0.0
 10
-10.10396
 20
-14.52967
 30
0.0
 10
-10.10396
 20
-14.5126
 30
0.0
 10
-10.10029
 20
-14.49942
 30
0.0
 10
-10.09293
 20
-14.49016
 30
0.0
 10
-10.09293
 20
-14.49016
 30
0.0
 10
-10.08559
 20
-14.48092
 30
0.0
 10
-10.07513
 20
-14.47628
 30
0.0
 10
-10.06158
 20
-14.47628
 30
0.0
 10
-10.06158
 20
-14.47628
 30
0.0
 10
-10.04808
 20
-14.47628
 30
0.0
 10
-10.03764
 20
-14.48092
 30
0.0
 10
-10.0303
 20
-14.49016
 30
0.0
 10
-10.0303
 20
-14.49016
 30
0.0
 10
-10.02294
 20
-14.49942
 30
0.0
 10
-10.01927
 20
-14.5126
 30
0.0
 10
-10.01927
 20
-14.52967
 30
0.0
  0
SPLINE
  5
73
330
1F
100
AcDbEntity
  8
Layer 1
 62
   250
100
AcDbSpline
210
0.0
220
0.0
230
1.0
 70
    11
 71
     3
 72
    56
 73
    52
 74
     0
 42
0.0000000001
 43
0.0000000001
 40
0.0
 40
0.0
 40
0.0
 40
0.0
 40
0.0769230769230769
 40
0.0769230769230769
 40
0.0769230769230769
 40
0.0769230769230769
 40
0.1538461538461539
 40
0.1538461538461539
 40
0.1538461538461539
 40
0.1538461538461539
 40
0.2307692307692308
 40
0.2307692307692308
 40
0.2307692307692308
 40
0.2307692307692308
 40
0.3076923076923077
 40
0.3076923076923077
 40
0.3076923076923077
 40
0.3076923076923077
 40
0.3846153846153846
 40
0.3846153846153846
 40
0.3846153846153846
 40
0.3846153846153846
 40
0.4615384615384616
 40
0.4615384615384616
 40
0.4615384615384616
 40
0.4615384615384616
 40
0.5384615384615385
 40
0.5384615384615385
 40
0.5384615384615385
 40
0.5384615384615385
 40
0.6153846153846154
 40
0.6153846153846154
 40
0.6153846153846154
 40
0.6153846153846154
 40
0.6923076923076923
 40
0.6923076923076923
 40
0.6923076923076923
 40
0.6923076923076923
 40
0.7692307692307692
 40
0.7692307692307692
 40
0.7692307692307692
 40
0.7692307692307692
 40
0.846153846153846
 40
0.846153846153846
 40
0.846153846153846
 40
0.846153846153846
 40
0.9230769230769229
 40
0.9230769230769229
 40
0.9230769230769229
 40
0.9230769230769229
 40
1.0
 40
1.0
 40
1.0
 40
1.0
 10
-9.95043
 20
-14.47814
 30
0.0
 10
-9.95043
 20
-14.47814
 30
0.0
 10
-9.91668
 20
-14.47814
 30
0.0
 10
-9.91668
 20
-14.47814
 30
0.0
 10
-9.91668
 20
-14.47814
 30
0.0
 10
-9.91668
 20
-14.47814
 30
0.0
 10
-9.89323
 20
-14.5332
 30
0.0
 10
-9.89323
 20
-14.5332
 30
0.0
 10
-9.89323
 20
-14.5332
 30
0.0
 10
-9.89323
 20
-14.5332
 30
0.0
 10
-9.86967
 20
-14.47814
 30
0.0
 10
-9.86967
 20
-14.47814
 30
0.0
 10
-9.86967
 20
-14.47814
 30
0.0
 10
-9.86967
 20
-14.47814
 30
0.0
 10
-9.83599
 20
-14.47814
 30
0.0
 10
-9.83599
 20
-14.47814
 30
0.0
 10
-9.83599
 20
-14.47814
 30
0.0
 10
-9.83599
 20
-14.47814
 30
0.0
 10
-9.83599
 20
-14.58101
 30
0.0
 10
-9.83599
 20
-14.58101
 30
0.0
 10
-9.83599
 20
-14.58101
 30
0.0
 10
-9.83599
 20
-14.58101
 30
0.0
 10
-9.86106
 20
-14.58101
 30
0.0
 10
-9.86106
 20
-14.58101
 30
0.0
 10
-9.86106
 20
-14.58101
 30
0.0
 10
-9.86106
 20
-14.58101
 30
0.0
 10
-9.86106
 20
-14.50577
 30
0.0
 10
-9.86106
 20
-14.50577
 30
0.0
 10
-9.86106
 20
-14.50577
 30
0.0
 10
-9.86106
 20
-14.50577
 30
0.0
 10
-9.88477
 20
-14.56123
 30
0.0
 10
-9.88477
 20
-14.56123
 30
0.0
 10
-9.88477
 20
-14.56123
 30
0.0
 10
-9.88477
 20
-14.56123
 30
0.0
 10
-9.90158
 20
-14.56123
 30
0.0
 10
-9.90158
 20
-14.56123
 30
0.0
 10
-9.90158
 20
-14.56123
 30
0.0
 10
-9.90158
 20
-14.56123
 30
0.0
 10
-9.92529
 20
-14.50577
 30
0.0
 10
-9.92529
 20
-14.50577
 30
0.0
 10
-9.92529
 20
-14.50577
 30
0.0
 10
-9.92529
 20
-14.50577
 30
0.0
 10
-9.92529
 20
-14.58101
 30
0.0
 10
-9.92529
 20
-14.58101
 30
0.0
 10
-9.92529
 20
-14.58101
 30
0.0
 10
-9.92529
 20
-14.58101
 30
0.0
 10
-9.95043
 20
-14.58101
 30
0.0
 10
-9.95043
 20
-14.58101
 30
0.0
 10
-9.95043
 20
-14.58101
 30
0.0
 10
-9.95043
 20
-14.58101
 30
0.0
 10
-9.95043
 20
-14.47814
 30
0.0
 10
-9.95043
 20
-14.47814
 30
0.0
  0
SPLINE
  5
74
330
1F
100
AcDbEntity
  8
Layer 1
 62
   250
100
AcDbSpline
210
0.0
220
0.0
230
1.0
 70
    11
 71
     3
 72
    36
 73
    32
 74
     0
 42
0.0000000001
 43
0.0000000001
 40
0.0
 40
0.0
 40
0.0
 40
0.0
 40
0.125
 40
0.125
 40
0.125
 40
0.125
 40
0.25
 40
0.25
 40
0.25
 40
0.25
 40
0.375
 40
0.375
 40
0.375
 40
0.375
 40
0.5
 40
0.5
 40
0.5
 40
0.5
 40
0.625
 40
0.625
 40
0.625
 40
0.625
 40
0.75
 40
0.75
 40
0.75
 40
0.75
 40
0.875
 40
0.875
 40
0.875
 40
0.875
 40
1.0
 40
1.0
 40
1.0
 40
1.0
 10
-9.74758
 20
-14.56229
 30
0.0
 10
-9.74758
 20
-14.56229
 30
0.0
 10
-9.78907
 20
-14.56229
 30
0.0
 10
-9.78907
 20
-14.56229
 30
0.0
 10
-9.78907
 20
-14.56229
 30
0.0
 10
-9.78907
 20
-14.56229
 30
0.0
 10
-9.79561
 20
-14.58101
 30
0.0
 10
-9.79561
 20
-14.58101
 30
0.0
 10
-9.79561
 20
-14.58101
 30
0.0
 10
-9.79561
 20
-14.58101
 30
0.0
 10
-9.82228
 20
-14.58101
 30
0.0
 10
-9.82228
 20
-14.58101
 30
0.0
 10
-9.82228
 20
-14.58101
 30
0.0
 10
-9.82228
 20
-14.58101
 30
0.0
 10
-9.78418
 20
-14.47814
 30
0.0
 10
-9.78418
 20
-14.47814
 30
0.0
 10
-9.78418
 20
-14.47814
 30
0.0
 10
-9.78418
 20
-14.47814
 30
0.0
 10
-9.75255
 20
-14.47814
 30
0.0
 10
-9.75255
 20
-14.47814
 30
0.0
 10
-9.75255
 20
-14.47814
 30
0.0
 10
-9.75255
 20
-14.47814
 30
0.0
 10
-9.71445
 20
-14.58101
 30
0.0
 10
-9.71445
 20
-14.58101
 30
0.0
 10
-9.71445
 20
-14.58101
 30
0.0
 10
-9.71445
 20
-14.58101
 30
0.0
 10
-9.74112
 20
-14.58101
 30
0.0
 10
-9.74112
 20
-14.58101
 30
0.0
 10
-9.74112
 20
-14.58101
 30
0.0
 10
-9.74112
 20
-14.58101
 30
0.0
 10
-9.74758
 20
-14.56229
 30
0.0
 10
-9.74758
 20
-14.56229
 30
0.0
  0
SPLINE
  5
75
330
1F
100
AcDbEntity
  8
Layer 1
 62
   250
100
AcDbSpline
210
0.0
220
0.0
230
1.0
 70
    11
 71
     3
 72
    16
 73
    12
 74
     0
 42
0.0000000001
 43
0.0000000001
 40
0.0
 40
0.0
 40
0.0
 40
0.0
 40
0.3333333333333333
 40
0.3333333333333333
 40
0.3333333333333333
 40
0.3333333333333333
 40
0.6666666666666666
 40
0.6666666666666666
 40
0.6666666666666666
 40
0.6666666666666666
 40
1.0
 40
1.0
 40
1.0
 40
1.0
 10
-9.78246
 20
-14.54319
 30
0.0
 10
-9.78246
 20
-14.54319
 30
0.0
 10
-9.75426
 20
-14.54319
 30
0.0
 10
-9.75426
 20
-14.54319
 30
0.0
 10
-9.75426
 20
-14.54319
 30
0.0
 10
-9.75426
 20
-14.54319
 30
0.0
 10
-9.76833
 20
-14.50227
 30
0.0
 10
-9.76833
 20
-14.50227
 30
0.0
 10
-9.76833
 20
-14.50227
 30
0.0
 10
-9.76833
 20
-14.50227
 30
0.0
 10
-9.78246
 20
-14.54319
 30
0.0
 10
-9.78246
 20
-14.54319
 30
0.0
  0
SPLINE
  5
76
330
1F
100
AcDbEntity
  8
Layer 1
 62
   250
100
AcDbSpline
210
0.0
220
0.0
230
1.0
 70
    11
 71
     3
 72
    32
 73
    28
 74
     0
 42
0.0000000001
 43
0.0000000001
 40
0.0
 40
0.0
 40
0.0
 40
0.0
 40
0.1428571428571428
 40
0.1428571428571428
 40
0.1428571428571428
 40
0.1428571428571428
 40
0.2857142857142857
 40
0.2857142857142857
 40
0.2857142857142857
 40
0.2857142857142857
 40
0.4285714285714285
 40
0.4285714285714285
 40
0.4285714285714285
 40
0.4285714285714285
 40
0.5714285714285714
 40
0.5714285714285714
 40
0.5714285714285714
 40
0.5714285714285714
 40
0.7142857142857142
 40
0.7142857142857142
 40
0.7142857142857142
 40
0.7142857142857142
 40
0.857142857142857
 40
0.857142857142857
 40
0.857142857142857
 40
0.857142857142857
 40
1.0
 40
1.0
 40
1.0
 40
1.0
 10
-11.12413
 20
-14.68802
 30
0.0
 10
-11.11858
 20
-14.68802
 30
0.0
 10
-11.11458
 20
-14.68698
 30
0.0
 10
-11.11218
 20
-14.68491
 30
0.0
 10
-11.11218
 20
-14.68491
 30
0.0
 10
-11.10976
 20
-14.68284
 30
0.0
 10
-11.10856
 20
-14.67943
 30
0.0
 10
-11.10856
 20
-14.6747
 30
0.0
 10
-11.10856
 20
-14.6747
 30
0.0
 10
-11.10856
 20
-14.67002
 30
0.0
 10
-11.10976
 20
-14.66666
 30
0.0
 10
-11.11218
 20
-14.66464
 30
0.0
 10
-11.11218
 20
-14.66464
 30
0.0
 10
-11.11458
 20
-14.66262
 30
0.0
 10
-11.11858
 20
-14.66161
 30
0.0
 10
-11.12413
 20
-14.66161
 30
0.0
 10
-11.12413
 20
-14.66161
 30
0.0
 10
-11.12413
 20
-14.66161
 30
0.0
 10
-11.1353
 20
-14.66161
 30
0.0
 10
-11.1353
 20
-14.66161
 30
0.0
 10
-11.1353
 20
-14.66161
 30
0.0
 10
-11.1353
 20
-14.66161
 30
0.0
 10
-11.1353
 20
-14.68802
 30
0.0
 10
-11.1353
 20
-14.68802
 30
0.0
 10
-11.1353
 20
-14.68802
 30
0.0
 10
-11.1353
 20
-14.68802
 30
0.0
 10
-11.12413
 20
-14.68802
 30
0.0
 10
-11.12413
 20
-14.68802
 30
0.0
  0
SPLINE
  5
77
330
1F
100
AcDbEntity
  8
Layer 1
 62
   250
100
AcDbSpline
210
0.0
220
0.0
230
1.0
 70
    11
 71
     3
 72
    68
 73
    64
 74
     0
 42
0.0000000001
 43
0.0000000001
 40
0.0
 40
0.0
 40
0.0
 40
0.0
 40
0.0625
 40
0.0625
 40
0.0625
 40
0.0625
 40
0.125
 40
0.125
 40
0.125
 40
0.125
 40
0.1875
 40
0.1875
 40
0.1875
 40
0.1875
 40
0.25
 40
0.25
 40
0.25
 40
0.25
 40
0.3125
 40
0.3125
 40
0.3125
 40
0.3125
 40
0.375
 40
0.375
 40
0.375
 40
0.375
 40
0.4375
 40
0.4375
 40
0.4375
 40
0.4375
 40
0.5
 40
0.5
 40
0.5
 40
0.5
 40
0.5625
 40
0.5625
 40
0.5625
 40
0.5625
 40
0.625
 40
0.625
 40
0.625
 40
0.625
 40
0.6875
 40
0.6875
 40
0.6875
 40
0.6875
 40
0.75
 40
0.75
 40
0.75
 40
0.75
 40
0.8125
 40
0.8125
 40
0.8125
 40
0.8125
 40
0.875
 40
0.875
 40
0.875
 40
0.875
 40
0.9375
 40
0.9375
 40
0.9375
 40
0.9375
 40
1.0
 40
1.0
 40
1.0
 40
1.0
 10
-11.1353
 20
-14.70634
 30
0.0
 10
-11.1353
 20
-14.70634
 30
0.0
 10
-11.1353
 20
-14.74526
 30
0.0
 10
-11.1353
 20
-14.74526
 30
0.0
 10
-11.1353
 20
-14.74526
 30
0.0
 10
-11.1353
 20
-14.74526
 30
0.0
 10
-11.16183
 20
-14.74526
 30
0.0
 10
-11.16183
 20
-14.74526
 30
0.0
 10
-11.16183
 20
-14.74526
 30
0.0
 10
-11.16183
 20
-14.74526
 30
0.0
 10
-11.16183
 20
-14.64239
 30
0.0
 10
-11.16183
 20
-14.64239
 30
0.0
 10
-11.16183
 20
-14.64239
 30
0.0
 10
-11.16183
 20
-14.64239
 30
0.0
 10
-11.12131
 20
-14.64239
 30
0.0
 10
-11.12131
 20
-14.64239
 30
0.0
 10
-11.12131
 20
-14.64239
 30
0.0
 10
-11.10776
 20
-14.64239
 30
0.0
 10
-11.09781
 20
-14.64467
 30
0.0
 10
-11.09151
 20
-14.64921
 30
0.0
 10
-11.09151
 20
-14.64921
 30
0.0
 10
-11.08519
 20
-14.65375
 30
0.0
 10
-11.08203
 20
-14.66095
 30
0.0
 10
-11.08203
 20
-14.67078
 30
0.0
 10
-11.08203
 20
-14.67078
 30
0.0
 10
-11.08203
 20
-14.67757
 30
0.0
 10
-11.08368
 20
-14.68317
 30
0.0
 10
-11.08695
 20
-14.68752
 30
0.0
 10
-11.08695
 20
-14.68752
 30
0.0
 10
-11.09024
 20
-14.6919
 30
0.0
 10
-11.0952
 20
-14.69512
 30
0.0
 10
-11.10181
 20
-14.69717
 30
0.0
 10
-11.10181
 20
-14.69717
 30
0.0
 10
-11.09819
 20
-14.69801
 30
0.0
 10
-11.09492
 20
-14.69987
 30
0.0
 10
-11.09205
 20
-14.70279
 30
0.0
 10
-11.09205
 20
-14.70279
 30
0.0
 10
-11.08918
 20
-14.7057
 30
0.0
 10
-11.08629
 20
-14.71012
 30
0.0
 10
-11.08335
 20
-14.71605
 30
0.0
 10
-11.08335
 20
-14.71605
 30
0.0
 10
-11.08335
 20
-14.71605
 30
0.0
 10
-11.06893
 20
-14.74526
 30
0.0
 10
-11.06893
 20
-14.74526
 30
0.0
 10
-11.06893
 20
-14.74526
 30
0.0
 10
-11.06893
 20
-14.74526
 30
0.0
 10
-11.0972
 20
-14.74526
 30
0.0
 10
-11.0972
 20
-14.74526
 30
0.0
 10
-11.0972
 20
-14.74526
 30
0.0
 10
-11.0972
 20
-14.74526
 30
0.0
 10
-11.10974
 20
-14.7197
 30
0.0
 10
-11.10974
 20
-14.7197
 30
0.0
 10
-11.10974
 20
-14.7197
 30
0.0
 10
-11.11225
 20
-14.71457
 30
0.0
 10
-11.11482
 20
-14.71104
 30
0.0
 10
-11.11743
 20
-14.70916
 30
0.0
 10
-11.11743
 20
-14.70916
 30
0.0
 10
-11.12002
 20
-14.70728
 30
0.0
 10
-11.12347
 20
-14.70634
 30
0.0
 10
-11.1278
 20
-14.70634
 30
0.0
 10
-11.1278
 20
-14.70634
 30
0.0
 10
-11.1278
 20
-14.70634
 30
0.0
 10
-11.1353
 20
-14.70634
 30
0.0
 10
-11.1353
 20
-14.70634
 30
0.0
  0
SPLINE
  5
78
330
1F
100
AcDbEntity
  8
Layer 1
 62
   250
100
AcDbSpline
210
0.0
220
0.0
230
1.0
 70
    11
 71
     3
 72
    52
 73
    48
 74
     0
 42
0.0000000001
 43
0.0000000001
 40
0.0
 40
0.0
 40
0.0
 40
0.0
 40
0.0833333333333333
 40
0.0833333333333333
 40
0.0833333333333333
 40
0.0833333333333333
 40
0.1666666666666667
 40
0.1666666666666667
 40
0.1666666666666667
 40
0.1666666666666667
 40
0.25
 40
0.25
 40
0.25
 40
0.25
 40
0.3333333333333333
 40
0.3333333333333333
 40
0.3333333333333333
 40
0.3333333333333333
 40
0.4166666666666666
 40
0.4166666666666666
 40
0.4166666666666666
 40
0.4166666666666666
 40
0.4999999999999999
 40
0.4999999999999999
 40
0.4999999999999999
 40
0.4999999999999999
 40
0.5833333333333333
 40
0.5833333333333333
 40
0.5833333333333333
 40
0.5833333333333333
 40
0.6666666666666666
 40
0.6666666666666666
 40
0.6666666666666666
 40
0.6666666666666666
 40
0.75
 40
0.75
 40
0.75
 40
0.75
 40
0.8333333333333334
 40
0.8333333333333334
 40
0.8333333333333334
 40
0.8333333333333334
 40
0.9166666666666667
 40
0.9166666666666667
 40
0.9166666666666667
 40
0.9166666666666667
 40
1.0
 40
1.0
 40
1.0
 40
1.0
 10
-11.05318
 20
-14.64239
 30
0.0
 10
-11.05318
 20
-14.64239
 30
0.0
 10
-10.98159
 20
-14.64239
 30
0.0
 10
-10.98159
 20
-14.64239
 30
0.0
 10
-10.98159
 20
-14.64239
 30
0.0
 10
-10.98159
 20
-14.64239
 30
0.0
 10
-10.98159
 20
-14.66245
 30
0.0
 10
-10.98159
 20
-14.66245
 30
0.0
 10
-10.98159
 20
-14.66245
 30
0.0
 10
-10.98159
 20
-14.66245
 30
0.0
 10
-11.02665
 20
-14.66245
 30
0.0
 10
-11.02665
 20
-14.66245
 30
0.0
 10
-11.02665
 20
-14.66245
 30
0.0
 10
-11.02665
 20
-14.66245
 30
0.0
 10
-11.02665
 20
-14.6816
 30
0.0
 10
-11.02665
 20
-14.6816
 30
0.0
 10
-11.02665
 20
-14.6816
 30
0.0
 10
-11.02665
 20
-14.6816
 30
0.0
 10
-10.9843
 20
-14.6816
 30
0.0
 10
-10.9843
 20
-14.6816
 30
0.0
 10
-10.9843
 20
-14.6816
 30
0.0
 10
-10.9843
 20
-14.6816
 30
0.0
 10
-10.9843
 20
-14.70166
 30
0.0
 10
-10.9843
 20
-14.70166
 30
0.0
 10
-10.9843
 20
-14.70166
 30
0.0
 10
-10.9843
 20
-14.70166
 30
0.0
 10
-11.02665
 20
-14.70166
 30
0.0
 10
-11.02665
 20
-14.70166
 30
0.0
 10
-11.02665
 20
-14.70166
 30
0.0
 10
-11.02665
 20
-14.70166
 30
0.0
 10
-11.02665
 20
-14.7252
 30
0.0
 10
-11.02665
 20
-14.7252
 30
0.0
 10
-11.02665
 20
-14.7252
 30
0.0
 10
-11.02665
 20
-14.7252
 30
0.0
 10
-10.98009
 20
-14.7252
 30
0.0
 10
-10.98009
 20
-14.7252
 30
0.0
 10
-10.98009
 20
-14.7252
 30
0.0
 10
-10.98009
 20
-14.7252
 30
0.0
 10
-10.98009
 20
-14.74526
 30
0.0
 10
-10.98009
 20
-14.74526
 30
0.0
 10
-10.98009
 20
-14.74526
 30
0.0
 10
-10.98009
 20
-14.74526
 30
0.0
 10
-11.05318
 20
-14.74526
 30
0.0
 10
-11.05318
 20
-14.74526
 30
0.0
 10
-11.05318
 20
-14.74526
 30
0.0
 10
-11.05318
 20
-14.74526
 30
0.0
 10
-11.05318
 20
-14.64239
 30
0.0
 10
-11.05318
 20
-14.64239
 30
0.0
  0
SPLINE
  5
79
330
1F
100
AcDbEntity
  8
Layer 1
 62
   250
100
AcDbSpline
210
0.0
220
0.0
230
1.0
 70
    11
 71
     3
 72
   116
 73
   112
 74
     0
 42
0.0000000001
 43
0.0000000001
 40
0.0
 40
0.0
 40
0.0
 40
0.0
 40
0.0357142857142857
 40
0.0357142857142857
 40
0.0357142857142857
 40
0.0357142857142857
 40
0.0714285714285714
 40
0.0714285714285714
 40
0.0714285714285714
 40
0.0714285714285714
 40
0.1071428571428571
 40
0.1071428571428571
 40
0.1071428571428571
 40
0.1071428571428571
 40
0.1428571428571428
 40
0.1428571428571428
 40
0.1428571428571428
 40
0.1428571428571428
 40
0.1785714285714285
 40
0.1785714285714285
 40
0.1785714285714285
 40
0.1785714285714285
 40
0.2142857142857142
 40
0.2142857142857142
 40
0.2142857142857142
 40
0.2142857142857142
 40
0.2499999999999999
 40
0.2499999999999999
 40
0.2499999999999999
 40
0.2499999999999999
 40
0.2857142857142856
 40
0.2857142857142856
 40
0.2857142857142856
 40
0.2857142857142856
 40
0.3214285714285713
 40
0.3214285714285713
 40
0.3214285714285713
 40
0.3214285714285713
 40
0.357142857142857
 40
0.357142857142857
 40
0.357142857142857
 40
0.357142857142857
 40
0.3928571428571427
 40
0.3928571428571427
 40
0.3928571428571427
 40
0.3928571428571427
 40
0.4285714285714284
 40
0.4285714285714284
 40
0.4285714285714284
 40
0.4285714285714284
 40
0.4642857142857141
 40
0.4642857142857141
 40
0.4642857142857141
 40
0.4642857142857141
 40
0.4999999999999998
 40
0.4999999999999998
 40
0.4999999999999998
 40
0.4999999999999998
 40
0.5357142857142856
 40
0.5357142857142856
 40
0.5357142857142856
 40
0.5357142857142856
 40
0.5714285714285713
 40
0.5714285714285713
 40
0.5714285714285713
 40
0.5714285714285713
 40
0.607142857142857
 40
0.607142857142857
 40
0.607142857142857
 40
0.607142857142857
 40
0.6428571428571427
 40
0.6428571428571427
 40
0.6428571428571427
 40
0.6428571428571427
 40
0.6785714285714284
 40
0.6785714285714284
 40
0.6785714285714284
 40
0.6785714285714284
 40
0.7142857142857141
 40
0.7142857142857141
 40
0.7142857142857141
 40
0.7142857142857141
 40
0.7499999999999998
 40
0.7499999999999998
 40
0.7499999999999998
 40
0.7499999999999998
 40
0.7857142857142855
 40
0.7857142857142855
 40
0.7857142857142855
 40
0.7857142857142855
 40
0.8214285714285712
 40
0.8214285714285712
 40
0.8214285714285712
 40
0.8214285714285712
 40
0.8571428571428569
 40
0.8571428571428569
 40
0.8571428571428569
 40
0.8571428571428569
 40
0.8928571428571426
 40
0.8928571428571426
 40
0.8928571428571426
 40
0.8928571428571426
 40
0.9285714285714283
 40
0.9285714285714283
 40
0.9285714285714283
 40
0.9285714285714283
 40
0.964285714285714
 40
0.964285714285714
 40
0.964285714285714
 40
0.964285714285714
 40
1.0
 40
1.0
 40
1.0
 40
1.0
 10
-10.88519
 20
-14.64564
 30
0.0
 10
-10.88519
 20
-14.64564
 30
0.0
 10
-10.88519
 20
-14.66739
 30
0.0
 10
-10.88519
 20
-14.66739
 30
0.0
 10
-10.88519
 20
-14.66739
 30
0.0
 10
-10.89084
 20
-14.66487
 30
0.0
 10
-10.89636
 20
-14.66297
 30
0.0
 10
-10.90172
 20
-14.66168
 30
0.0
 10
-10.90172
 20
-14.66168
 30
0.0
 10
-10.90711
 20
-14.66038
 30
0.0
 10
-10.91219
 20
-14.65975
 30
0.0
 10
-10.91696
 20
-14.65975
 30
0.0
 10
-10.91696
 20
-14.65975
 30
0.0
 10
-10.92329
 20
-14.65975
 30
0.0
 10
-10.92799
 20
-14.66062
 30
0.0
 10
-10.93103
 20
-14.66236
 30
0.0
 10
-10.93103
 20
-14.66236
 30
0.0
 10
-10.93406
 20
-14.66412
 30
0.0
 10
-10.93557
 20
-14.66683
 30
0.0
 10
-10.93557
 20
-14.6705
 30
0.0
 10
-10.93557
 20
-14.6705
 30
0.0
 10
-10.93557
 20
-14.67325
 30
0.0
 10
-10.93456
 20
-14.67541
 30
0.0
 10
-10.93251
 20
-14.67694
 30
0.0
 10
-10.93251
 20
-14.67694
 30
0.0
 10
-10.93046
 20
-14.67847
 30
0.0
 10
-10.92675
 20
-14.67981
 30
0.0
 10
-10.92136
 20
-14.68091
 30
0.0
 10
-10.92136
 20
-14.68091
 30
0.0
 10
-10.92136
 20
-14.68091
 30
0.0
 10
-10.91007
 20
-14.68317
 30
0.0
 10
-10.91007
 20
-14.68317
 30
0.0
 10
-10.91007
 20
-14.68317
 30
0.0
 10
-10.89862
 20
-14.68548
 30
0.0
 10
-10.89051
 20
-14.68896
 30
0.0
 10
-10.88569
 20
-14.69366
 30
0.0
 10
-10.88569
 20
-14.69366
 30
0.0
 10
-10.88086
 20
-14.69834
 30
0.0
 10
-10.87844
 20
-14.705
 30
0.0
 10
-10.87844
 20
-14.71363
 30
0.0
 10
-10.87844
 20
-14.71363
 30
0.0
 10
-10.87844
 20
-14.72499
 30
0.0
 10
-10.8818
 20
-14.73343
 30
0.0
 10
-10.88853
 20
-14.73896
 30
0.0
 10
-10.88853
 20
-14.73896
 30
0.0
 10
-10.89526
 20
-14.74448
 30
0.0
 10
-10.90553
 20
-14.74726
 30
0.0
 10
-10.91936
 20
-14.74726
 30
0.0
 10
-10.91936
 20
-14.74726
 30
0.0
 10
-10.9259
 20
-14.74726
 30
0.0
 10
-10.93244
 20
-14.74665
 30
0.0
 10
-10.939
 20
-14.7454
 30
0.0
 10
-10.939
 20
-14.7454
 30
0.0
 10
-10.94556
 20
-14.74415
 30
0.0
 10
-10.95215
 20
-14.74232
 30
0.0
 10
-10.95871
 20
-14.7399
 30
0.0
 10
-10.95871
 20
-14.7399
 30
0.0
 10
-10.95871
 20
-14.7399
 30
0.0
 10
-10.95871
 20
-14.71751
 30
0.0
 10
-10.95871
 20
-14.71751
 30
0.0
 10
-10.95871
 20
-14.71751
 30
0.0
 10
-10.95215
 20
-14.72099
 30
0.0
 10
-10.9458
 20
-14.72362
 30
0.0
 10
-10.93966
 20
-14.72539
 30
0.0
 10
-10.93966
 20
-14.72539
 30
0.0
 10
-10.93352
 20
-14.72715
 30
0.0
 10
-10.92762
 20
-14.72804
 30
0.0
 10
-10.92193
 20
-14.72804
 30
0.0
 10
-10.92193
 20
-14.72804
 30
0.0
 10
-10.91614
 20
-14.72804
 30
0.0
 10
-10.9117
 20
-14.72708
 30
0.0
 10
-10.90862
 20
-14.72515
 30
0.0
 10
-10.90862
 20
-14.72515
 30
0.0
 10
-10.90553
 20
-14.72322
 30
0.0
 10
-10.90401
 20
-14.72047
 30
0.0
 10
-10.90401
 20
-14.71687
 30
0.0
 10
-10.90401
 20
-14.71687
 30
0.0
 10
-10.90401
 20
-14.71367
 30
0.0
 10
-10.90504
 20
-14.71118
 30
0.0
 10
-10.90713
 20
-14.70944
 30
0.0
 10
-10.90713
 20
-14.70944
 30
0.0
 10
-10.90923
 20
-14.7077
 30
0.0
 10
-10.91339
 20
-14.70613
 30
0.0
 10
-10.91965
 20
-14.70476
 30
0.0
 10
-10.91965
 20
-14.70476
 30
0.0
 10
-10.91965
 20
-14.70476
 30
0.0
 10
-10.92992
 20
-14.70248
 30
0.0
 10
-10.92992
 20
-14.70248
 30
0.0
 10
-10.92992
 20
-14.70248
 30
0.0
 10
-10.9402
 20
-14.70027
 30
0.0
 10
-10.94773
 20
-14.69677
 30
0.0
 10
-10.95248
 20
-14.69194
 30
0.0
 10
-10.95248
 20
-14.69194
 30
0.0
 10
-10.95723
 20
-14.68712
 30
0.0
 10
-10.9596
 20
-14.68061
 30
0.0
 10
-10.9596
 20
-14.67245
 30
0.0
 10
-10.9596
 20
-14.67245
 30
0.0
 10
-10.9596
 20
-14.66219
 30
0.0
 10
-10.95629
 20
-14.65431
 30
0.0
 10
-10.94968
 20
-14.64881
 30
0.0
 10
-10.94968
 20
-14.64881
 30
0.0
 10
-10.94307
 20
-14.64328
 30
0.0
 10
-10.93357
 20
-14.64053
 30
0.0
 10
-10.92115
 20
-14.64053
 30
0.0
 10
-10.92115
 20
-14.64053
 30
0.0
 10
-10.91551
 20
-14.64053
 30
0.0
 10
-10.9097
 20
-14.64096
 30
0.0
 10
-10.90372
 20
-14.6418
 30
0.0
 10
-10.90372
 20
-14.6418
 30
0.0
 10
-10.89775
 20
-14.64265
 30
0.0
 10
-10.89157
 20
-14.64392
 30
0.0
 10
-10.88519
 20
-14.64564
 30
0.0
  0
SPLINE
  5
7A
330
1F
100
AcDbEntity
  8
Layer 1
 62
   250
100
AcDbSpline
210
0.0
220
0.0
230
1.0
 70
    11
 71
     3
 72
    52
 73
    48
 74
     0
 42
0.0000000001
 43
0.0000000001
 40
0.0
 40
0.0
 40
0.0
 40
0.0
 40
0.0833333333333333
 40
0.0833333333333333
 40
0.0833333333333333
 40
0.0833333333333333
 40
0.1666666666666667
 40
0.1666666666666667
 40
0.1666666666666667
 40
0.1666666666666667
 40
0.25
 40
0.25
 40
0.25
 40
0.25
 40
0.3333333333333333
 40
0.3333333333333333
 40
0.3333333333333333
 40
0.3333333333333333
 40
0.4166666666666666
 40
0.4166666666666666
 40
0.4166666666666666
 40
0.4166666666666666
 40
0.4999999999999999
 40
0.4999999999999999
 40
0.4999999999999999
 40
0.4999999999999999
 40
0.5833333333333333
 40
0.5833333333333333
 40
0.5833333333333333
 40
0.5833333333333333
 40
0.6666666666666666
 40
0.6666666666666666
 40
0.6666666666666666
 40
0.6666666666666666
 40
0.75
 40
0.75
 40
0.75
 40
0.75
 40
0.8333333333333334
 40
0.8333333333333334
 40
0.8333333333333334
 40
0.8333333333333334
 40
0.9166666666666667
 40
0.9166666666666667
 40
0.9166666666666667
 40
0.9166666666666667
 40
1.0
 40
1.0
 40
1.0
 40
1.0
 10
-10.85516
 20
-14.64239
 30
0.0
 10
-10.85516
 20
-14.64239
 30
0.0
 10
-10.78357
 20
-14.64239
 30
0.0
 10
-10.78357
 20
-14.64239
 30
0.0
 10
-10.78357
 20
-14.64239
 30
0.0
 10
-10.78357
 20
-14.64239
 30
0.0
 10
-10.78357
 20
-14.66245
 30
0.0
 10
-10.78357
 20
-14.66245
 30
0.0
 10
-10.78357
 20
-14.66245
 30
0.0
 10
-10.78357
 20
-14.66245
 30
0.0
 10
-10.82863
 20
-14.66245
 30
0.0
 10
-10.82863
 20
-14.66245
 30
0.0
 10
-10.82863
 20
-14.66245
 30
0.0
 10
-10.82863
 20
-14.66245
 30
0.0
 10
-10.82863
 20
-14.6816
 30
0.0
 10
-10.82863
 20
-14.6816
 30
0.0
 10
-10.82863
 20
-14.6816
 30
0.0
 10
-10.82863
 20
-14.6816
 30
0.0
 10
-10.78628
 20
-14.6816
 30
0.0
 10
-10.78628
 20
-14.6816
 30
0.0
 10
-10.78628
 20
-14.6816
 30
0.0
 10
-10.78628
 20
-14.6816
 30
0.0
 10
-10.78628
 20
-14.70166
 30
0.0
 10
-10.78628
 20
-14.70166
 30
0.0
 10
-10.78628
 20
-14.70166
 30
0.0
 10
-10.78628
 20
-14.70166
 30
0.0
 10
-10.82863
 20
-14.70166
 30
0.0
 10
-10.82863
 20
-14.70166
 30
0.0
 10
-10.82863
 20
-14.70166
 30
0.0
 10
-10.82863
 20
-14.70166
 30
0.0
 10
-10.82863
 20
-14.7252
 30
0.0
 10
-10.82863
 20
-14.7252
 30
0.0
 10
-10.82863
 20
-14.7252
 30
0.0
 10
-10.82863
 20
-14.7252
 30
0.0
 10
-10.78207
 20
-14.7252
 30
0.0
 10
-10.78207
 20
-14.7252
 30
0.0
 10
-10.78207
 20
-14.7252
 30
0.0
 10
-10.78207
 20
-14.7252
 30
0.0
 10
-10.78207
 20
-14.74526
 30
0.0
 10
-10.78207
 20
-14.74526
 30
0.0
 10
-10.78207
 20
-14.74526
 30
0.0
 10
-10.78207
 20
-14.74526
 30
0.0
 10
-10.85516
 20
-14.74526
 30
0.0
 10
-10.85516
 20
-14.74526
 30
0.0
 10
-10.85516
 20
-14.74526
 30
0.0
 10
-10.85516
 20
-14.74526
 30
0.0
 10
-10.85516
 20
-14.64239
 30
0.0
 10
-10.85516
 20
-14.64239
 30
0.0
  0
SPLINE
  5
7B
330
1F
100
AcDbEntity
  8
Layer 1
 62
   250
100
AcDbSpline
210
0.0
220
0.0
230
1.0
 70
    11
 71
     3
 72
    36
 73
    32
 74
     0
 42
0.0000000001
 43
0.0000000001
 40
0.0
 40
0.0
 40
0.0
 40
0.0
 40
0.125
 40
0.125
 40
0.125
 40
0.125
 40
0.25
 40
0.25
 40
0.25
 40
0.25
 40
0.375
 40
0.375
 40
0.375
 40
0.375
 40
0.5
 40
0.5
 40
0.5
 40
0.5
 40
0.625
 40
0.625
 40
0.625
 40
0.625
 40
0.75
 40
0.75
 40
0.75
 40
0.75
 40
0.875
 40
0.875
 40
0.875
 40
0.875
 40
1.0
 40
1.0
 40
1.0
 40
1.0
 10
-10.77104
 20
-14.64239
 30
0.0
 10
-10.77104
 20
-14.64239
 30
0.0
 10
-10.67624
 20
-14.64239
 30
0.0
 10
-10.67624
 20
-14.64239
 30
0.0
 10
-10.67624
 20
-14.64239
 30
0.0
 10
-10.67624
 20
-14.64239
 30
0.0
 10
-10.67624
 20
-14.66245
 30
0.0
 10
-10.67624
 20
-14.66245
 30
0.0
 10
-10.67624
 20
-14.66245
 30
0.0
 10
-10.67624
 20
-14.66245
 30
0.0
 10
-10.71034
 20
-14.66245
 30
0.0
 10
-10.71034
 20
-14.66245
 30
0.0
 10
-10.71034
 20
-14.66245
 30
0.0
 10
-10.71034
 20
-14.66245
 30
0.0
 10
-10.71034
 20
-14.74526
 30
0.0
 10
-10.71034
 20
-14.74526
 30
0.0
 10
-10.71034
 20
-14.74526
 30
0.0
 10
-10.71034
 20
-14.74526
 30
0.0
 10
-10.73687
 20
-14.74526
 30
0.0
 10
-10.73687
 20
-14.74526
 30
0.0
 10
-10.73687
 20
-14.74526
 30
0.0
 10
-10.73687
 20
-14.74526
 30
0.0
 10
-10.73687
 20
-14.66245
 30
0.0
 10
-10.73687
 20
-14.66245
 30
0.0
 10
-10.73687
 20
-14.66245
 30
0.0
 10
-10.73687
 20
-14.66245
 30
0.0
 10
-10.77104
 20
-14.66245
 30
0.0
 10
-10.77104
 20
-14.66245
 30
0.0
 10
-10.77104
 20
-14.66245
 30
0.0
 10
-10.77104
 20
-14.66245
 30
0.0
 10
-10.77104
 20
-14.64239
 30
0.0
 10
-10.77104
 20
-14.64239
 30
0.0
  0
SPLINE
  5
7C
330
1F
100
AcDbEntity
  8
Layer 1
 62
   250
100
AcDbSpline
210
0.0
220
0.0
230
1.0
 70
    11
 71
     3
 72
    36
 73
    32
 74
     0
 42
0.0000000001
 43
0.0000000001
 40
0.0
 40
0.0
 40
0.0
 40
0.0
 40
0.125
 40
0.125
 40
0.125
 40
0.125
 40
0.25
 40
0.25
 40
0.25
 40
0.25
 40
0.375
 40
0.375
 40
0.375
 40
0.375
 40
0.5
 40
0.5
 40
0.5
 40
0.5
 40
0.625
 40
0.625
 40
0.625
 40
0.625
 40
0.75
 40
0.75
 40
0.75
 40
0.75
 40
0.875
 40
0.875
 40
0.875
 40
0.875
 40
1.0
 40
1.0
 40
1.0
 40
1.0
 10
-10.61104
 20
-14.72654
 30
0.0
 10
-10.61104
 20
-14.72654
 30
0.0
 10
-10.65253
 20
-14.72654
 30
0.0
 10
-10.65253
 20
-14.72654
 30
0.0
 10
-10.65253
 20
-14.72654
 30
0.0
 10
-10.65253
 20
-14.72654
 30
0.0
 10
-10.65907
 20
-14.74526
 30
0.0
 10
-10.65907
 20
-14.74526
 30
0.0
 10
-10.65907
 20
-14.74526
 30
0.0
 10
-10.65907
 20
-14.74526
 30
0.0
 10
-10.68574
 20
-14.74526
 30
0.0
 10
-10.68574
 20
-14.74526
 30
0.0
 10
-10.68574
 20
-14.74526
 30
0.0
 10
-10.68574
 20
-14.74526
 30
0.0
 10
-10.64764
 20
-14.64239
 30
0.0
 10
-10.64764
 20
-14.64239
 30
0.0
 10
-10.64764
 20
-14.64239
 30
0.0
 10
-10.64764
 20
-14.64239
 30
0.0
 10
-10.61601
 20
-14.64239
 30
0.0
 10
-10.61601
 20
-14.64239
 30
0.0
 10
-10.61601
 20
-14.64239
 30
0.0
 10
-10.61601
 20
-14.64239
 30
0.0
 10
-10.57791
 20
-14.74526
 30
0.0
 10
-10.57791
 20
-14.74526
 30
0.0
 10
-10.57791
 20
-14.74526
 30
0.0
 10
-10.57791
 20
-14.74526
 30
0.0
 10
-10.60458
 20
-14.74526
 30
0.0
 10
-10.60458
 20
-14.74526
 30
0.0
 10
-10.60458
 20
-14.74526
 30
0.0
 10
-10.60458
 20
-14.74526
 30
0.0
 10
-10.61104
 20
-14.72654
 30
0.0
 10
-10.61104
 20
-14.72654
 30
0.0
  0
SPLINE
  5
7D
330
1F
100
AcDbEntity
  8
Layer 1
 62
   250
100
AcDbSpline
210
0.0
220
0.0
230
1.0
 70
    11
 71
     3
 72
    16
 73
    12
 74
     0
 42
0.0000000001
 43
0.0000000001
 40
0.0
 40
0.0
 40
0.0
 40
0.0
 40
0.3333333333333333
 40
0.3333333333333333
 40
0.3333333333333333
 40
0.3333333333333333
 40
0.6666666666666666
 40
0.6666666666666666
 40
0.6666666666666666
 40
0.6666666666666666
 40
1.0
 40
1.0
 40
1.0
 40
1.0
 10
-10.64592
 20
-14.70744
 30
0.0
 10
-10.64592
 20
-14.70744
 30
0.0
 10
-10.61772
 20
-14.70744
 30
0.0
 10
-10.61772
 20
-14.70744
 30
0.0
 10
-10.61772
 20
-14.70744
 30
0.0
 10
-10.61772
 20
-14.70744
 30
0.0
 10
-10.63179
 20
-14.66652
 30
0.0
 10
-10.63179
 20
-14.66652
 30
0.0
 10
-10.63179
 20
-14.66652
 30
0.0
 10
-10.63179
 20
-14.66652
 30
0.0
 10
-10.64592
 20
-14.70744
 30
0.0
 10
-10.64592
 20
-14.70744
 30
0.0
  0
SPLINE
  5
7E
330
1F
100
AcDbEntity
  8
Layer 1
 62
   250
100
AcDbSpline
210
0.0
220
0.0
230
1.0
 70
    11
 71
     3
 72
    32
 73
    28
 74
     0
 42
0.0000000001
 43
0.0000000001
 40
0.0
 40
0.0
 40
0.0
 40
0.0
 40
0.1428571428571428
 40
0.1428571428571428
 40
0.1428571428571428
 40
0.1428571428571428
 40
0.2857142857142857
 40
0.2857142857142857
 40
0.2857142857142857
 40
0.2857142857142857
 40
0.4285714285714285
 40
0.4285714285714285
 40
0.4285714285714285
 40
0.4285714285714285
 40
0.5714285714285714
 40
0.5714285714285714
 40
0.5714285714285714
 40
0.5714285714285714
 40
0.7142857142857142
 40
0.7142857142857142
 40
0.7142857142857142
 40
0.7142857142857142
 40
0.857142857142857
 40
0.857142857142857
 40
0.857142857142857
 40
0.857142857142857
 40
1.0
 40
1.0
 40
1.0
 40
1.0
 10
-10.52304
 20
-14.68221
 30
0.0
 10
-10.51885
 20
-14.68221
 30
0.0
 10
-10.51568
 20
-14.68129
 30
0.0
 10
-10.51354
 20
-14.67946
 30
0.0
 10
-10.51354
 20
-14.67946
 30
0.0
 10
-10.51137
 20
-14.67762
 30
0.0
 10
-10.51029
 20
-14.67492
 30
0.0
 10
-10.51029
 20
-14.67132
 30
0.0
 10
-10.51029
 20
-14.67132
 30
0.0
 10
-10.51029
 20
-14.66779
 30
0.0
 10
-10.51137
 20
-14.66511
 30
0.0
 10
-10.51354
 20
-14.66325
 30
0.0
 10
-10.51354
 20
-14.66325
 30
0.0
 10
-10.51568
 20
-14.66139
 30
0.0
 10
-10.51885
 20
-14.66045
 30
0.0
 10
-10.52304
 20
-14.66045
 30
0.0
 10
-10.52304
 20
-14.66045
 30
0.0
 10
-10.52304
 20
-14.66045
 30
0.0
 10
-10.53771
 20
-14.66045
 30
0.0
 10
-10.53771
 20
-14.66045
 30
0.0
 10
-10.53771
 20
-14.66045
 30
0.0
 10
-10.53771
 20
-14.66045
 30
0.0
 10
-10.53771
 20
-14.68221
 30
0.0
 10
-10.53771
 20
-14.68221
 30
0.0
 10
-10.53771
 20
-14.68221
 30
0.0
 10
-10.53771
 20
-14.68221
 30
0.0
 10
-10.52304
 20
-14.68221
 30
0.0
 10
-10.52304
 20
-14.68221
 30
0.0
  0
SPLINE
  5
7F
330
1F
100
AcDbEntity
  8
Layer 1
 62
   250
100
AcDbSpline
210
0.0
220
0.0
230
1.0
 70
    11
 71
     3
 72
    32
 73
    28
 74
     0
 42
0.0000000001
 43
0.0000000001
 40
0.0
 40
0.0
 40
0.0
 40
0.0
 40
0.1428571428571428
 40
0.1428571428571428
 40
0.1428571428571428
 40
0.1428571428571428
 40
0.2857142857142857
 40
0.2857142857142857
 40
0.2857142857142857
 40
0.2857142857142857
 40
0.4285714285714285
 40
0.4285714285714285
 40
0.4285714285714285
 40
0.4285714285714285
 40
0.5714285714285714
 40
0.5714285714285714
 40
0.5714285714285714
 40
0.5714285714285714
 40
0.7142857142857142
 40
0.7142857142857142
 40
0.7142857142857142
 40
0.7142857142857142
 40
0.857142857142857
 40
0.857142857142857
 40
0.857142857142857
 40
0.857142857142857
 40
1.0
 40
1.0
 40
1.0
 40
1.0
 10
-10.52214
 20
-14.7272
 30
0.0
 10
-10.5168
 20
-14.7272
 30
0.0
 10
-10.51281
 20
-14.72607
 30
0.0
 10
-10.5101
 20
-14.72383
 30
0.0
 10
-10.5101
 20
-14.72383
 30
0.0
 10
-10.50742
 20
-14.72158
 30
0.0
 10
-10.50608
 20
-14.71817
 30
0.0
 10
-10.50608
 20
-14.71363
 30
0.0
 10
-10.50608
 20
-14.71363
 30
0.0
 10
-10.50608
 20
-14.70918
 30
0.0
 10
-10.50742
 20
-14.70584
 30
0.0
 10
-10.51008
 20
-14.70361
 30
0.0
 10
-10.51008
 20
-14.70361
 30
0.0
 10
-10.51274
 20
-14.70137
 30
0.0
 10
-10.51676
 20
-14.70027
 30
0.0
 10
-10.52214
 20
-14.70027
 30
0.0
 10
-10.52214
 20
-14.70027
 30
0.0
 10
-10.52214
 20
-14.70027
 30
0.0
 10
-10.53771
 20
-14.70027
 30
0.0
 10
-10.53771
 20
-14.70027
 30
0.0
 10
-10.53771
 20
-14.70027
 30
0.0
 10
-10.53771
 20
-14.70027
 30
0.0
 10
-10.53771
 20
-14.7272
 30
0.0
 10
-10.53771
 20
-14.7272
 30
0.0
 10
-10.53771
 20
-14.7272
 30
0.0
 10
-10.53771
 20
-14.7272
 30
0.0
 10
-10.52214
 20
-14.7272
 30
0.0
 10
-10.52214
 20
-14.7272
 30
0.0
  0
SPLINE
  5
80
330
1F
100
AcDbEntity
  8
Layer 1
 62
   250
100
AcDbSpline
210
0.0
220
0.0
230
1.0
 70
    11
 71
     3
 72
    48
 73
    44
 74
     0
 42
0.0000000001
 43
0.0000000001
 40
0.0
 40
0.0
 40
0.0
 40
0.0
 40
0.0909090909090909
 40
0.0909090909090909
 40
0.0909090909090909
 40
0.0909090909090909
 40
0.1818181818181818
 40
0.1818181818181818
 40
0.1818181818181818
 40
0.1818181818181818
 40
0.2727272727272727
 40
0.2727272727272727
 40
0.2727272727272727
 40
0.2727272727272727
 40
0.3636363636363636
 40
0.3636363636363636
 40
0.3636363636363636
 40
0.3636363636363636
 40
0.4545454545454546
 40
0.4545454545454546
 40
0.4545454545454546
 40
0.4545454545454546
 40
0.5454545454545455
 40
0.5454545454545455
 40
0.5454545454545455
 40
0.5454545454545455
 40
0.6363636363636365
 40
0.6363636363636365
 40
0.6363636363636365
 40
0.6363636363636365
 40
0.7272727272727274
 40
0.7272727272727274
 40
0.7272727272727274
 40
0.7272727272727274
 40
0.8181818181818183
 40
0.8181818181818183
 40
0.8181818181818183
 40
0.8181818181818183
 40
0.9090909090909093
 40
0.9090909090909093
 40
0.9090909090909093
 40
0.9090909090909093
 40
1.0
 40
1.0
 40
1.0
 40
1.0
 10
-10.49747
 20
-14.6902
 30
0.0
 10
-10.49178
 20
-14.69185
 30
0.0
 10
-10.48736
 20
-14.69491
 30
0.0
 10
-10.48423
 20
-14.69938
 30
0.0
 10
-10.48423
 20
-14.69938
 30
0.0
 10
-10.4811
 20
-14.70382
 30
0.0
 10
-10.47955
 20
-14.7093
 30
0.0
 10
-10.47955
 20
-14.71577
 30
0.0
 10
-10.47955
 20
-14.71577
 30
0.0
 10
-10.47955
 20
-14.72569
 30
0.0
 10
-10.48292
 20
-14.73308
 30
0.0
 10
-10.48962
 20
-14.73795
 30
0.0
 10
-10.48962
 20
-14.73795
 30
0.0
 10
-10.49632
 20
-14.74281
 30
0.0
 10
-10.50653
 20
-14.74526
 30
0.0
 10
-10.52022
 20
-14.74526
 30
0.0
 10
-10.52022
 20
-14.74526
 30
0.0
 10
-10.52022
 20
-14.74526
 30
0.0
 10
-10.56424
 20
-14.74526
 30
0.0
 10
-10.56424
 20
-14.74526
 30
0.0
 10
-10.56424
 20
-14.74526
 30
0.0
 10
-10.56424
 20
-14.74526
 30
0.0
 10
-10.56424
 20
-14.64239
 30
0.0
 10
-10.56424
 20
-14.64239
 30
0.0
 10
-10.56424
 20
-14.64239
 30
0.0
 10
-10.56424
 20
-14.64239
 30
0.0
 10
-10.52442
 20
-14.64239
 30
0.0
 10
-10.52442
 20
-14.64239
 30
0.0
 10
-10.52442
 20
-14.64239
 30
0.0
 10
-10.51013
 20
-14.64239
 30
0.0
 10
-10.49978
 20
-14.64455
 30
0.0
 10
-10.49338
 20
-14.64886
 30
0.0
 10
-10.49338
 20
-14.64886
 30
0.0
 10
-10.48696
 20
-14.65319
 30
0.0
 10
-10.48376
 20
-14.6601
 30
0.0
 10
-10.48376
 20
-14.6696
 30
0.0
 10
-10.48376
 20
-14.6696
 30
0.0
 10
-10.48376
 20
-14.67461
 30
0.0
 10
-10.48494
 20
-14.67887
 30
0.0
 10
-10.48727
 20
-14.6824
 30
0.0
 10
-10.48727
 20
-14.6824
 30
0.0
 10
-10.48962
 20
-14.6859
 30
0.0
 10
-10.493
 20
-14.68851
 30
0.0
 10
-10.49747
 20
-14.6902
 30
0.0
  0
SPLINE
  5
81
330
1F
100
AcDbEntity
  8
Layer 1
 62
   250
100
AcDbSpline
210
0.0
220
0.0
230
1.0
 70
    11
 71
     3
 72
    28
 73
    24
 74
     0
 42
0.0000000001
 43
0.0000000001
 40
0.0
 40
0.0
 40
0.0
 40
0.0
 40
0.1666666666666667
 40
0.1666666666666667
 40
0.1666666666666667
 40
0.1666666666666667
 40
0.3333333333333333
 40
0.3333333333333333
 40
0.3333333333333333
 40
0.3333333333333333
 40
0.5
 40
0.5
 40
0.5
 40
0.5
 40
0.6666666666666666
 40
0.6666666666666666
 40
0.6666666666666666
 40
0.6666666666666666
 40
0.8333333333333333
 40
0.8333333333333333
 40
0.8333333333333333
 40
0.8333333333333333
 40
1.0
 40
1.0
 40
1.0
 40
1.0
 10
-10.45669
 20
-14.64239
 30
0.0
 10
-10.45669
 20
-14.64239
 30
0.0
 10
-10.43016
 20
-14.64239
 30
0.0
 10
-10.43016
 20
-14.64239
 30
0.0
 10
-10.43016
 20
-14.64239
 30
0.0
 10
-10.43016
 20
-14.64239
 30
0.0
 10
-10.43016
 20
-14.7252
 30
0.0
 10
-10.43016
 20
-14.7252
 30
0.0
 10
-10.43016
 20
-14.7252
 30
0.0
 10
-10.43016
 20
-14.7252
 30
0.0
 10
-10.3836
 20
-14.7252
 30
0.0
 10
-10.3836
 20
-14.7252
 30
0.0
 10
-10.3836
 20
-14.7252
 30
0.0
 10
-10.3836
 20
-14.7252
 30
0.0
 10
-10.3836
 20
-14.74526
 30
0.0
 10
-10.3836
 20
-14.74526
 30
0.0
 10
-10.3836
 20
-14.74526
 30
0.0
 10
-10.3836
 20
-14.74526
 30
0.0
 10
-10.45669
 20
-14.74526
 30
0.0
 10
-10.45669
 20
-14.74526
 30
0.0
 10
-10.45669
 20
-14.74526
 30
0.0
 10
-10.45669
 20
-14.74526
 30
0.0
 10
-10.45669
 20
-14.64239
 30
0.0
 10
-10.45669
 20
-14.64239
 30
0.0
  0
SPLINE
  5
82
330
1F
100
AcDbEntity
  8
Layer 1
 62
   250
100
AcDbSpline
210
0.0
220
0.0
230
1.0
 70
    11
 71
     3
 72
    52
 73
    48
 74
     0
 42
0.0000000001
 43
0.0000000001
 40
0.0
 40
0.0
 40
0.0
 40
0.0
 40
0.0833333333333333
 40
0.0833333333333333
 40
0.0833333333333333
 40
0.0833333333333333
 40
0.1666666666666667
 40
0.1666666666666667
 40
0.1666666666666667
 40
0.1666666666666667
 40
0.25
 40
0.25
 40
0.25
 40
0.25
 40
0.3333333333333333
 40
0.3333333333333333
 40
0.3333333333333333
 40
0.3333333333333333
 40
0.4166666666666666
 40
0.4166666666666666
 40
0.4166666666666666
 40
0.4166666666666666
 40
0.4999999999999999
 40
0.4999999999999999
 40
0.4999999999999999
 40
0.4999999999999999
 40
0.5833333333333333
 40
0.5833333333333333
 40
0.5833333333333333
 40
0.5833333333333333
 40
0.6666666666666666
 40
0.6666666666666666
 40
0.6666666666666666
 40
0.6666666666666666
 40
0.75
 40
0.75
 40
0.75
 40
0.75
 40
0.8333333333333334
 40
0.8333333333333334
 40
0.8333333333333334
 40
0.8333333333333334
 40
0.9166666666666667
 40
0.9166666666666667
 40
0.9166666666666667
 40
0.9166666666666667
 40
1.0
 40
1.0
 40
1.0
 40
1.0
 10
-10.36678
 20
-14.64239
 30
0.0
 10
-10.36678
 20
-14.64239
 30
0.0
 10
-10.29519
 20
-14.64239
 30
0.0
 10
-10.29519
 20
-14.64239
 30
0.0
 10
-10.29519
 20
-14.64239
 30
0.0
 10
-10.29519
 20
-14.64239
 30
0.0
 10
-10.29519
 20
-14.66245
 30
0.0
 10
-10.29519
 20
-14.66245
 30
0.0
 10
-10.29519
 20
-14.66245
 30
0.0
 10
-10.29519
 20
-14.66245
 30
0.0
 10
-10.34025
 20
-14.66245
 30
0.0
 10
-10.34025
 20
-14.66245
 30
0.0
 10
-10.34025
 20
-14.66245
 30
0.0
 10
-10.34025
 20
-14.66245
 30
0.0
 10
-10.34025
 20
-14.6816
 30
0.0
 10
-10.34025
 20
-14.6816
 30
0.0
 10
-10.34025
 20
-14.6816
 30
0.0
 10
-10.34025
 20
-14.6816
 30
0.0
 10
-10.2979
 20
-14.6816
 30
0.0
 10
-10.2979
 20
-14.6816
 30
0.0
 10
-10.2979
 20
-14.6816
 30
0.0
 10
-10.2979
 20
-14.6816
 30
0.0
 10
-10.2979
 20
-14.70166
 30
0.0
 10
-10.2979
 20
-14.70166
 30
0.0
 10
-10.2979
 20
-14.70166
 30
0.0
 10
-10.2979
 20
-14.70166
 30
0.0
 10
-10.34025
 20
-14.70166
 30
0.0
 10
-10.34025
 20
-14.70166
 30
0.0
 10
-10.34025
 20
-14.70166
 30
0.0
 10
-10.34025
 20
-14.70166
 30
0.0
 10
-10.34025
 20
-14.7252
 30
0.0
 10
-10.34025
 20
-14.7252
 30
0.0
 10
-10.34025
 20
-14.7252
 30
0.0
 10
-10.34025
 20
-14.7252
 30
0.0
 10
-10.29369
 20
-14.7252
 30
0.0
 10
-10.29369
 20
-14.7252
 30
0.0
 10
-10.29369
 20
-14.7252
 30
0.0
 10
-10.29369
 20
-14.7252
 30
0.0
 10
-10.29369
 20
-14.74526
 30
0.0
 10
-10.29369
 20
-14.74526
 30
0.0
 10
-10.29369
 20
-14.74526
 30
0.0
 10
-10.29369
 20
-14.74526
 30
0.0
 10
-10.36678
 20
-14.74526
 30
0.0
 10
-10.36678
 20
-14.74526
 30
0.0
 10
-10.36678
 20
-14.74526
 30
0.0
 10
-10.36678
 20
-14.74526
 30
0.0
 10
-10.36678
 20
-14.64239
 30
0.0
 10
-10.36678
 20
-14.64239
 30
0.0
  0
SPLINE
  5
83
330
1F
100
AcDbEntity
  8
Layer 1
 62
   250
100
AcDbSpline
210
0.0
220
0.0
230
1.0
 70
    11
 71
     3
 72
    44
 73
    40
 74
     0
 42
0.0000000001
 43
0.0000000001
 40
0.0
 40
0.0
 40
0.0
 40
0.0
 40
0.1
 40
0.1
 40
0.1
 40
0.1
 40
0.2
 40
0.2
 40
0.2
 40
0.2
 40
0.3
 40
0.3
 40
0.3
 40
0.3
 40
0.4
 40
0.4
 40
0.4
 40
0.4
 40
0.5
 40
0.5
 40
0.5
 40
0.5
 40
0.6
 40
0.6
 40
0.6
 40
0.6
 40
0.7
 40
0.7
 40
0.7
 40
0.7
 40
0.7999999999999999
 40
0.7999999999999999
 40
0.7999999999999999
 40
0.7999999999999999
 40
0.8999999999999999
 40
0.8999999999999999
 40
0.8999999999999999
 40
0.8999999999999999
 40
1.0
 40
1.0
 40
1.0
 40
1.0
 10
-10.22125
 20
-14.64239
 30
0.0
 10
-10.22125
 20
-14.64239
 30
0.0
 10
-10.14966
 20
-14.64239
 30
0.0
 10
-10.14966
 20
-14.64239
 30
0.0
 10
-10.14966
 20
-14.64239
 30
0.0
 10
-10.14966
 20
-14.64239
 30
0.0
 10
-10.14966
 20
-14.66245
 30
0.0
 10
-10.14966
 20
-14.66245
 30
0.0
 10
-10.14966
 20
-14.66245
 30
0.0
 10
-10.14966
 20
-14.66245
 30
0.0
 10
-10.19472
 20
-14.66245
 30
0.0
 10
-10.19472
 20
-14.66245
 30
0.0
 10
-10.19472
 20
-14.66245
 30
0.0
 10
-10.19472
 20
-14.66245
 30
0.0
 10
-10.19472
 20
-14.6816
 30
0.0
 10
-10.19472
 20
-14.6816
 30
0.0
 10
-10.19472
 20
-14.6816
 30
0.0
 10
-10.19472
 20
-14.6816
 30
0.0
 10
-10.15234
 20
-14.6816
 30
0.0
 10
-10.15234
 20
-14.6816
 30
0.0
 10
-10.15234
 20
-14.6816
 30
0.0
 10
-10.15234
 20
-14.6816
 30
0.0
 10
-10.15234
 20
-14.70166
 30
0.0
 10
-10.15234
 20
-14.70166
 30
0.0
 10
-10.15234
 20
-14.70166
 30
0.0
 10
-10.15234
 20
-14.70166
 30
0.0
 10
-10.19472
 20
-14.70166
 30
0.0
 10
-10.19472
 20
-14.70166
 30
0.0
 10
-10.19472
 20
-14.70166
 30
0.0
 10
-10.19472
 20
-14.70166
 30
0.0
 10
-10.19472
 20
-14.74526
 30
0.0
 10
-10.19472
 20
-14.74526
 30
0.0
 10
-10.19472
 20
-14.74526
 30
0.0
 10
-10.19472
 20
-14.74526
 30
0.0
 10
-10.22125
 20
-14.74526
 30
0.0
 10
-10.22125
 20
-14.74526
 30
0.0
 10
-10.22125
 20
-14.74526
 30
0.0
 10
-10.22125
 20
-14.74526
 30
0.0
 10
-10.22125
 20
-14.64239
 30
0.0
 10
-10.22125
 20
-14.64239
 30
0.0
  0
SPLINE
  5
84
330
1F
100
AcDbEntity
  8
Layer 1
 62
   250
100
AcDbSpline
210
0.0
220
0.0
230
1.0
 70
    11
 71
     3
 72
    60
 73
    56
 74
     0
 42
0.0000000001
 43
0.0000000001
 40
0.0
 40
0.0
 40
0.0
 40
0.0
 40
0.0714285714285714
 40
0.0714285714285714
 40
0.0714285714285714
 40
0.0714285714285714
 40
0.1428571428571428
 40
0.1428571428571428
 40
0.1428571428571428
 40
0.1428571428571428
 40
0.2142857142857143
 40
0.2142857142857143
 40
0.2142857142857143
 40
0.2142857142857143
 40
0.2857142857142857
 40
0.2857142857142857
 40
0.2857142857142857
 40
0.2857142857142857
 40
0.3571428571428571
 40
0.3571428571428571
 40
0.3571428571428571
 40
0.3571428571428571
 40
0.4285714285714285
 40
0.4285714285714285
 40
0.4285714285714285
 40
0.4285714285714285
 40
0.4999999999999999
 40
0.4999999999999999
 40
0.4999999999999999
 40
0.4999999999999999
 40
0.5714285714285713
 40
0.5714285714285713
 40
0.5714285714285713
 40
0.5714285714285713
 40
0.6428571428571427
 40
0.6428571428571427
 40
0.6428571428571427
 40
0.6428571428571427
 40
0.7142857142857141
 40
0.7142857142857141
 40
0.7142857142857141
 40
0.7142857142857141
 40
0.7857142857142855
 40
0.7857142857142855
 40
0.7857142857142855
 40
0.7857142857142855
 40
0.8571428571428569
 40
0.8571428571428569
 40
0.8571428571428569
 40
0.8571428571428569
 40
0.9285714285714283
 40
0.9285714285714283
 40
0.9285714285714283
 40
0.9285714285714283
 40
1.0
 40
1.0
 40
1.0
 40
1.0
 10
-10.12485
 20
-14.64239
 30
0.0
 10
-10.12485
 20
-14.64239
 30
0.0
 10
-10.09832
 20
-14.64239
 30
0.0
 10
-10.09832
 20
-14.64239
 30
0.0
 10
-10.09832
 20
-14.64239
 30
0.0
 10
-10.09832
 20
-14.64239
 30
0.0
 10
-10.09832
 20
-14.70406
 30
0.0
 10
-10.09832
 20
-14.70406
 30
0.0
 10
-10.09832
 20
-14.70406
 30
0.0
 10
-10.09832
 20
-14.71255
 30
0.0
 10
-10.09694
 20
-14.71864
 30
0.0
 10
-10.09416
 20
-14.72228
 30
0.0
 10
-10.09416
 20
-14.72228
 30
0.0
 10
-10.09138
 20
-14.72593
 30
0.0
 10
-10.08685
 20
-14.72776
 30
0.0
 10
-10.08054
 20
-14.72776
 30
0.0
 10
-10.08054
 20
-14.72776
 30
0.0
 10
-10.07419
 20
-14.72776
 30
0.0
 10
-10.06963
 20
-14.72593
 30
0.0
 10
-10.06686
 20
-14.72228
 30
0.0
 10
-10.06686
 20
-14.72228
 30
0.0
 10
-10.06408
 20
-14.71864
 30
0.0
 10
-10.06269
 20
-14.71255
 30
0.0
 10
-10.06269
 20
-14.70406
 30
0.0
 10
-10.06269
 20
-14.70406
 30
0.0
 10
-10.06269
 20
-14.70406
 30
0.0
 10
-10.06269
 20
-14.64239
 30
0.0
 10
-10.06269
 20
-14.64239
 30
0.0
 10
-10.06269
 20
-14.64239
 30
0.0
 10
-10.06269
 20
-14.64239
 30
0.0
 10
-10.03616
 20
-14.64239
 30
0.0
 10
-10.03616
 20
-14.64239
 30
0.0
 10
-10.03616
 20
-14.64239
 30
0.0
 10
-10.03616
 20
-14.64239
 30
0.0
 10
-10.03616
 20
-14.70406
 30
0.0
 10
-10.03616
 20
-14.70406
 30
0.0
 10
-10.03616
 20
-14.70406
 30
0.0
 10
-10.03616
 20
-14.71861
 30
0.0
 10
-10.03981
 20
-14.72946
 30
0.0
 10
-10.04712
 20
-14.73658
 30
0.0
 10
-10.04712
 20
-14.73658
 30
0.0
 10
-10.05441
 20
-14.74371
 30
0.0
 10
-10.06556
 20
-14.74726
 30
0.0
 10
-10.08054
 20
-14.74726
 30
0.0
 10
-10.08054
 20
-14.74726
 30
0.0
 10
-10.09548
 20
-14.74726
 30
0.0
 10
-10.1066
 20
-14.74371
 30
0.0
 10
-10.11389
 20
-14.73658
 30
0.0
 10
-10.11389
 20
-14.73658
 30
0.0
 10
-10.12121
 20
-14.72946
 30
0.0
 10
-10.12485
 20
-14.71861
 30
0.0
 10
-10.12485
 20
-14.70406
 30
0.0
 10
-10.12485
 20
-14.70406
 30
0.0
 10
-10.12485
 20
-14.70406
 30
0.0
 10
-10.12485
 20
-14.64239
 30
0.0
 10
-10.12485
 20
-14.64239
 30
0.0
  0
SPLINE
  5
85
330
1F
100
AcDbEntity
  8
Layer 1
 62
   250
100
AcDbSpline
210
0.0
220
0.0
230
1.0
 70
    11
 71
     3
 72
   116
 73
   112
 74
     0
 42
0.0000000001
 43
0.0000000001
 40
0.0
 40
0.0
 40
0.0
 40
0.0
 40
0.0357142857142857
 40
0.0357142857142857
 40
0.0357142857142857
 40
0.0357142857142857
 40
0.0714285714285714
 40
0.0714285714285714
 40
0.0714285714285714
 40
0.0714285714285714
 40
0.1071428571428571
 40
0.1071428571428571
 40
0.1071428571428571
 40
0.1071428571428571
 40
0.1428571428571428
 40
0.1428571428571428
 40
0.1428571428571428
 40
0.1428571428571428
 40
0.1785714285714285
 40
0.1785714285714285
 40
0.1785714285714285
 40
0.1785714285714285
 40
0.2142857142857142
 40
0.2142857142857142
 40
0.2142857142857142
 40
0.2142857142857142
 40
0.2499999999999999
 40
0.2499999999999999
 40
0.2499999999999999
 40
0.2499999999999999
 40
0.2857142857142856
 40
0.2857142857142856
 40
0.2857142857142856
 40
0.2857142857142856
 40
0.3214285714285713
 40
0.3214285714285713
 40
0.3214285714285713
 40
0.3214285714285713
 40
0.357142857142857
 40
0.357142857142857
 40
0.357142857142857
 40
0.357142857142857
 40
0.3928571428571427
 40
0.3928571428571427
 40
0.3928571428571427
 40
0.3928571428571427
 40
0.4285714285714284
 40
0.4285714285714284
 40
0.4285714285714284
 40
0.4285714285714284
 40
0.4642857142857141
 40
0.4642857142857141
 40
0.4642857142857141
 40
0.4642857142857141
 40
0.4999999999999998
 40
0.4999999999999998
 40
0.4999999999999998
 40
0.4999999999999998
 40
0.5357142857142856
 40
0.5357142857142856
 40
0.5357142857142856
 40
0.5357142857142856
 40
0.5714285714285713
 40
0.5714285714285713
 40
0.5714285714285713
 40
0.5714285714285713
 40
0.607142857142857
 40
0.607142857142857
 40
0.607142857142857
 40
0.607142857142857
 40
0.6428571428571427
 40
0.6428571428571427
 40
0.6428571428571427
 40
0.6428571428571427
 40
0.6785714285714284
 40
0.6785714285714284
 40
0.6785714285714284
 40
0.6785714285714284
 40
0.7142857142857141
 40
0.7142857142857141
 40
0.7142857142857141
 40
0.7142857142857141
 40
0.7499999999999998
 40
0.7499999999999998
 40
0.7499999999999998
 40
0.7499999999999998
 40
0.7857142857142855
 40
0.7857142857142855
 40
0.7857142857142855
 40
0.7857142857142855
 40
0.8214285714285712
 40
0.8214285714285712
 40
0.8214285714285712
 40
0.8214285714285712
 40
0.8571428571428569
 40
0.8571428571428569
 40
0.8571428571428569
 40
0.8571428571428569
 40
0.8928571428571426
 40
0.8928571428571426
 40
0.8928571428571426
 40
0.8928571428571426
 40
0.9285714285714283
 40
0.9285714285714283
 40
0.9285714285714283
 40
0.9285714285714283
 40
0.964285714285714
 40
0.964285714285714
 40
0.964285714285714
 40
0.964285714285714
 40
1.0
 40
1.0
 40
1.0
 40
1.0
 10
-9.93868
 20
-14.64564
 30
0.0
 10
-9.93868
 20
-14.64564
 30
0.0
 10
-9.93868
 20
-14.66739
 30
0.0
 10
-9.93868
 20
-14.66739
 30
0.0
 10
-9.93868
 20
-14.66739
 30
0.0
 10
-9.94433
 20
-14.66487
 30
0.0
 10
-9.94985
 20
-14.66297
 30
0.0
 10
-9.95521
 20
-14.66168
 30
0.0
 10
-9.95521
 20
-14.66168
 30
0.0
 10
-9.9606
 20
-14.66038
 30
0.0
 10
-9.96568
 20
-14.65975
 30
0.0
 10
-9.97045
 20
-14.65975
 30
0.0
 10
-9.97045
 20
-14.65975
 30
0.0
 10
-9.97678
 20
-14.65975
 30
0.0
 10
-9.98148
 20
-14.66062
 30
0.0
 10
-9.98452
 20
-14.66236
 30
0.0
 10
-9.98452
 20
-14.66236
 30
0.0
 10
-9.98755
 20
-14.66412
 30
0.0
 10
-9.98906
 20
-14.66683
 30
0.0
 10
-9.98906
 20
-14.6705
 30
0.0
 10
-9.98906
 20
-14.6705
 30
0.0
 10
-9.98906
 20
-14.67325
 30
0.0
 10
-9.98805
 20
-14.67541
 30
0.0
 10
-9.986
 20
-14.67694
 30
0.0
 10
-9.986
 20
-14.67694
 30
0.0
 10
-9.98395
 20
-14.67847
 30
0.0
 10
-9.98024
 20
-14.67981
 30
0.0
 10
-9.97485
 20
-14.68091
 30
0.0
 10
-9.97485
 20
-14.68091
 30
0.0
 10
-9.97485
 20
-14.68091
 30
0.0
 10
-9.96356
 20
-14.68317
 30
0.0
 10
-9.96356
 20
-14.68317
 30
0.0
 10
-9.96356
 20
-14.68317
 30
0.0
 10
-9.95211
 20
-14.68548
 30
0.0
 10
-9.944
 20
-14.68896
 30
0.0
 10
-9.93918
 20
-14.69366
 30
0.0
 10
-9.93918
 20
-14.69366
 30
0.0
 10
-9.93435
 20
-14.69834
 30
0.0
 10
-9.93193
 20
-14.705
 30
0.0
 10
-9.93193
 20
-14.71363
 30
0.0
 10
-9.93193
 20
-14.71363
 30
0.0
 10
-9.93193
 20
-14.72499
 30
0.0
 10
-9.93529
 20
-14.73343
 30
0.0
 10
-9.94202
 20
-14.73896
 30
0.0
 10
-9.94202
 20
-14.73896
 30
0.0
 10
-9.94875
 20
-14.74448
 30
0.0
 10
-9.95902
 20
-14.74726
 30
0.0
 10
-9.97285
 20
-14.74726
 30
0.0
 10
-9.97285
 20
-14.74726
 30
0.0
 10
-9.97939
 20
-14.74726
 30
0.0
 10
-9.98593
 20
-14.74665
 30
0.0
 10
-9.99249
 20
-14.7454
 30
0.0
 10
-9.99249
 20
-14.7454
 30
0.0
 10
-9.99905
 20
-14.74415
 30
0.0
 10
-10.00564
 20
-14.74232
 30
0.0
 10
-10.0122
 20
-14.7399
 30
0.0
 10
-10.0122
 20
-14.7399
 30
0.0
 10
-10.0122
 20
-14.7399
 30
0.0
 10
-10.0122
 20
-14.71751
 30
0.0
 10
-10.0122
 20
-14.71751
 30
0.0
 10
-10.0122
 20
-14.71751
 30
0.0
 10
-10.00564
 20
-14.72099
 30
0.0
 10
-9.99929
 20
-14.72362
 30
0.0
 10
-9.99315
 20
-14.72539
 30
0.0
 10
-9.99315
 20
-14.72539
 30
0.0
 10
-9.98701
 20
-14.72715
 30
0.0
 10
-9.98111
 20
-14.72804
 30
0.0
 10
-9.97542
 20
-14.72804
 30
0.0
 10
-9.97542
 20
-14.72804
 30
0.0
 10
-9.96963
 20
-14.72804
 30
0.0
 10
-9.96519
 20
-14.72708
 30
0.0
 10
-9.96211
 20
-14.72515
 30
0.0
 10
-9.96211
 20
-14.72515
 30
0.0
 10
-9.95902
 20
-14.72322
 30
0.0
 10
-9.9575
 20
-14.72047
 30
0.0
 10
-9.9575
 20
-14.71687
 30
0.0
 10
-9.9575
 20
-14.71687
 30
0.0
 10
-9.9575
 20
-14.71367
 30
0.0
 10
-9.95853
 20
-14.71118
 30
0.0
 10
-9.96062
 20
-14.70944
 30
0.0
 10
-9.96062
 20
-14.70944
 30
0.0
 10
-9.96272
 20
-14.7077
 30
0.0
 10
-9.96688
 20
-14.70613
 30
0.0
 10
-9.97314
 20
-14.70476
 30
0.0
 10
-9.97314
 20
-14.70476
 30
0.0
 10
-9.97314
 20
-14.70476
 30
0.0
 10
-9.98341
 20
-14.70248
 30
0.0
 10
-9.98341
 20
-14.70248
 30
0.0
 10
-9.98341
 20
-14.70248
 30
0.0
 10
-9.99369
 20
-14.70027
 30
0.0
 10
-10.00122
 20
-14.69677
 30
0.0
 10
-10.00597
 20
-14.69194
 30
0.0
 10
-10.00597
 20
-14.69194
 30
0.0
 10
-10.01072
 20
-14.68712
 30
0.0
 10
-10.01309
 20
-14.68061
 30
0.0
 10
-10.01309
 20
-14.67245
 30
0.0
 10
-10.01309
 20
-14.67245
 30
0.0
 10
-10.01309
 20
-14.66219
 30
0.0
 10
-10.00978
 20
-14.65431
 30
0.0
 10
-10.00317
 20
-14.64881
 30
0.0
 10
-10.00317
 20
-14.64881
 30
0.0
 10
-9.99656
 20
-14.64328
 30
0.0
 10
-9.98706
 20
-14.64053
 30
0.0
 10
-9.97464
 20
-14.64053
 30
0.0
 10
-9.97464
 20
-14.64053
 30
0.0
 10
-9.969
 20
-14.64053
 30
0.0
 10
-9.96319
 20
-14.64096
 30
0.0
 10
-9.95721
 20
-14.6418
 30
0.0
 10
-9.95721
 20
-14.6418
 30
0.0
 10
-9.95124
 20
-14.64265
 30
0.0
 10
-9.94506
 20
-14.64392
 30
0.0
 10
-9.93868
 20
-14.64564
 30
0.0
  0
SPLINE
  5
86
330
1F
100
AcDbEntity
  8
Layer 1
 62
   250
100
AcDbSpline
210
0.0
220
0.0
230
1.0
 70
    11
 71
     3
 72
    52
 73
    48
 74
     0
 42
0.0000000001
 43
0.0000000001
 40
0.0
 40
0.0
 40
0.0
 40
0.0
 40
0.0833333333333333
 40
0.0833333333333333
 40
0.0833333333333333
 40
0.0833333333333333
 40
0.1666666666666667
 40
0.1666666666666667
 40
0.1666666666666667
 40
0.1666666666666667
 40
0.25
 40
0.25
 40
0.25
 40
0.25
 40
0.3333333333333333
 40
0.3333333333333333
 40
0.3333333333333333
 40
0.3333333333333333
 40
0.4166666666666666
 40
0.4166666666666666
 40
0.4166666666666666
 40
0.4166666666666666
 40
0.4999999999999999
 40
0.4999999999999999
 40
0.4999999999999999
 40
0.4999999999999999
 40
0.5833333333333333
 40
0.5833333333333333
 40
0.5833333333333333
 40
0.5833333333333333
 40
0.6666666666666666
 40
0.6666666666666666
 40
0.6666666666666666
 40
0.6666666666666666
 40
0.75
 40
0.75
 40
0.75
 40
0.75
 40
0.8333333333333334
 40
0.8333333333333334
 40
0.8333333333333334
 40
0.8333333333333334
 40
0.9166666666666667
 40
0.9166666666666667
 40
0.9166666666666667
 40
0.9166666666666667
 40
1.0
 40
1.0
 40
1.0
 40
1.0
 10
-9.90865
 20
-14.64239
 30
0.0
 10
-9.90865
 20
-14.64239
 30
0.0
 10
-9.83706
 20
-14.64239
 30
0.0
 10
-9.83706
 20
-14.64239
 30
0.0
 10
-9.83706
 20
-14.64239
 30
0.0
 10
-9.83706
 20
-14.64239
 30
0.0
 10
-9.83706
 20
-14.66245
 30
0.0
 10
-9.83706
 20
-14.66245
 30
0.0
 10
-9.83706
 20
-14.66245
 30
0.0
 10
-9.83706
 20
-14.66245
 30
0.0
 10
-9.88212
 20
-14.66245
 30
0.0
 10
-9.88212
 20
-14.66245
 30
0.0
 10
-9.88212
 20
-14.66245
 30
0.0
 10
-9.88212
 20
-14.66245
 30
0.0
 10
-9.88212
 20
-14.6816
 30
0.0
 10
-9.88212
 20
-14.6816
 30
0.0
 10
-9.88212
 20
-14.6816
 30
0.0
 10
-9.88212
 20
-14.6816
 30
0.0
 10
-9.83977
 20
-14.6816
 30
0.0
 10
-9.83977
 20
-14.6816
 30
0.0
 10
-9.83977
 20
-14.6816
 30
0.0
 10
-9.83977
 20
-14.6816
 30
0.0
 10
-9.83977
 20
-14.70166
 30
0.0
 10
-9.83977
 20
-14.70166
 30
0.0
 10
-9.83977
 20
-14.70166
 30
0.0
 10
-9.83977
 20
-14.70166
 30
0.0
 10
-9.88212
 20
-14.70166
 30
0.0
 10
-9.88212
 20
-14.70166
 30
0.0
 10
-9.88212
 20
-14.70166
 30
0.0
 10
-9.88212
 20
-14.70166
 30
0.0
 10
-9.88212
 20
-14.7252
 30
0.0
 10
-9.88212
 20
-14.7252
 30
0.0
 10
-9.88212
 20
-14.7252
 30
0.0
 10
-9.88212
 20
-14.7252
 30
0.0
 10
-9.83556
 20
-14.7252
 30
0.0
 10
-9.83556
 20
-14.7252
 30
0.0
 10
-9.83556
 20
-14.7252
 30
0.0
 10
-9.83556
 20
-14.7252
 30
0.0
 10
-9.83556
 20
-14.74526
 30
0.0
 10
-9.83556
 20
-14.74526
 30
0.0
 10
-9.83556
 20
-14.74526
 30
0.0
 10
-9.83556
 20
-14.74526
 30
0.0
 10
-9.90865
 20
-14.74526
 30
0.0
 10
-9.90865
 20
-14.74526
 30
0.0
 10
-9.90865
 20
-14.74526
 30
0.0
 10
-9.90865
 20
-14.74526
 30
0.0
 10
-9.90865
 20
-14.64239
 30
0.0
 10
-9.90865
 20
-14.64239
 30
0.0
  0
SPLINE
  5
87
330
1F
100
AcDbEntity
  8
Layer 1
 62
   250
100
AcDbSpline
210
0.0
220
0.0
230
1.0
 70
    11
 71
     3
 72
    36
 73
    32
 74
     0
 42
0.0000000001
 43
0.0000000001
 40
0.0
 40
0.0
 40
0.0
 40
0.0
 40
0.125
 40
0.125
 40
0.125
 40
0.125
 40
0.25
 40
0.25
 40
0.25
 40
0.25
 40
0.375
 40
0.375
 40
0.375
 40
0.375
 40
0.5
 40
0.5
 40
0.5
 40
0.5
 40
0.625
 40
0.625
 40
0.625
 40
0.625
 40
0.75
 40
0.75
 40
0.75
 40
0.75
 40
0.875
 40
0.875
 40
0.875
 40
0.875
 40
1.0
 40
1.0
 40
1.0
 40
1.0
 10
-10.85728
 20
-15.46378
 30
0.0
 10
-10.86185
 20
-15.46378
 30
0.0
 10
-10.8653
 20
-15.46555
 30
0.0
 10
-10.86765
 20
-15.4691
 30
0.0
 10
-10.86765
 20
-15.4691
 30
0.0
 10
-10.87
 20
-15.47265
 30
0.0
 10
-10.87117
 20
-15.47792
 30
0.0
 10
-10.87117
 20
-15.48487
 30
0.0
 10
-10.87117
 20
-15.48487
 30
0.0
 10
-10.87117
 20
-15.4918
 30
0.0
 10
-10.87
 20
-15.49705
 30
0.0
 10
-10.86765
 20
-15.50062
 30
0.0
 10
-10.86765
 20
-15.50062
 30
0.0
 10
-10.8653
 20
-15.50419
 30
0.0
 10
-10.86185
 20
-15.50597
 30
0.0
 10
-10.85728
 20
-15.50597
 30
0.0
 10
-10.85728
 20
-15.50597
 30
0.0
 10
-10.8527
 20
-15.50597
 30
0.0
 10
-10.84923
 20
-15.50419
 30
0.0
 10
-10.84688
 20
-15.50062
 30
0.0
 10
-10.84688
 20
-15.50062
 30
0.0
 10
-10.84453
 20
-15.49705
 30
0.0
 10
-10.84337
 20
-15.4918
 30
0.0
 10
-10.84337
 20
-15.48487
 30
0.0
 10
-10.84337
 20
-15.48487
 30
0.0
 10
-10.84337
 20
-15.47792
 30
0.0
 10
-10.84453
 20
-15.47265
 30
0.0
 10
-10.84688
 20
-15.4691
 30
0.0
 10
-10.84688
 20
-15.4691
 30
0.0
 10
-10.84923
 20
-15.46555
 30
0.0
 10
-10.8527
 20
-15.46378
 30
0.0
 10
-10.85728
 20
-15.46378
 30
0.0
  0
SPLINE
  5
88
330
1F
100
AcDbEntity
  8
Layer 1
 62
   250
100
AcDbSpline
210
0.0
220
0.0
230
1.0
 70
    11
 71
     3
 72
    36
 73
    32
 74
     0
 42
0.0000000001
 43
0.0000000001
 40
0.0
 40
0.0
 40
0.0
 40
0.0
 40
0.125
 40
0.125
 40
0.125
 40
0.125
 40
0.25
 40
0.25
 40
0.25
 40
0.25
 40
0.375
 40
0.375
 40
0.375
 40
0.375
 40
0.5
 40
0.5
 40
0.5
 40
0.5
 40
0.625
 40
0.625
 40
0.625
 40
0.625
 40
0.75
 40
0.75
 40
0.75
 40
0.75
 40
0.875
 40
0.875
 40
0.875
 40
0.875
 40
1.0
 40
1.0
 40
1.0
 40
1.0
 10
-10.85728
 20
-15.45616
 30
0.0
 10
-10.8497
 20
-15.45616
 30
0.0
 10
-10.8439
 20
-15.45861
 30
0.0
 10
-10.83988
 20
-15.46353
 30
0.0
 10
-10.83988
 20
-15.46353
 30
0.0
 10
-10.83586
 20
-15.46845
 30
0.0
 10
-10.83385
 20
-15.47557
 30
0.0
 10
-10.83385
 20
-15.48487
 30
0.0
 10
-10.83385
 20
-15.48487
 30
0.0
 10
-10.83385
 20
-15.49422
 30
0.0
 10
-10.83585
 20
-15.50134
 30
0.0
 10
-10.83985
 20
-15.50624
 30
0.0
 10
-10.83985
 20
-15.50624
 30
0.0
 10
-10.84387
 20
-15.51114
 30
0.0
 10
-10.84967
 20
-15.51359
 30
0.0
 10
-10.85728
 20
-15.51359
 30
0.0
 10
-10.85728
 20
-15.51359
 30
0.0
 10
-10.86488
 20
-15.51359
 30
0.0
 10
-10.87067
 20
-15.51114
 30
0.0
 10
-10.87469
 20
-15.50624
 30
0.0
 10
-10.87469
 20
-15.50624
 30
0.0
 10
-10.87869
 20
-15.50134
 30
0.0
 10
-10.88069
 20
-15.49422
 30
0.0
 10
-10.88069
 20
-15.48487
 30
0.0
 10
-10.88069
 20
-15.48487
 30
0.0
 10
-10.88069
 20
-15.47557
 30
0.0
 10
-10.87869
 20
-15.46845
 30
0.0
 10
-10.87469
 20
-15.46353
 30
0.0
 10
-10.87469
 20
-15.46353
 30
0.0
 10
-10.87067
 20
-15.45861
 30
0.0
 10
-10.86488
 20
-15.45616
 30
0.0
 10
-10.85728
 20
-15.45616
 30
0.0
  0
SPLINE
  5
89
330
1F
100
AcDbEntity
  8
Layer 1
 62
   250
100
AcDbSpline
210
0.0
220
0.0
230
1.0
 70
    11
 71
     3
 72
    36
 73
    32
 74
     0
 42
0.0000000001
 43
0.0000000001
 40
0.0
 40
0.0
 40
0.0
 40
0.0
 40
0.125
 40
0.125
 40
0.125
 40
0.125
 40
0.25
 40
0.25
 40
0.25
 40
0.25
 40
0.375
 40
0.375
 40
0.375
 40
0.375
 40
0.5
 40
0.5
 40
0.5
 40
0.5
 40
0.625
 40
0.625
 40
0.625
 40
0.625
 40
0.75
 40
0.75
 40
0.75
 40
0.75
 40
0.875
 40
0.875
 40
0.875
 40
0.875
 40
1.0
 40
1.0
 40
1.0
 40
1.0
 10
-10.79707
 20
-15.46378
 30
0.0
 10
-10.80164
 20
-15.46378
 30
0.0
 10
-10.80509
 20
-15.46555
 30
0.0
 10
-10.80744
 20
-15.4691
 30
0.0
 10
-10.80744
 20
-15.4691
 30
0.0
 10
-10.80979
 20
-15.47265
 30
0.0
 10
-10.81096
 20
-15.47792
 30
0.0
 10
-10.81096
 20
-15.48487
 30
0.0
 10
-10.81096
 20
-15.48487
 30
0.0
 10
-10.81096
 20
-15.4918
 30
0.0
 10
-10.80979
 20
-15.49705
 30
0.0
 10
-10.80744
 20
-15.50062
 30
0.0
 10
-10.80744
 20
-15.50062
 30
0.0
 10
-10.80509
 20
-15.50419
 30
0.0
 10
-10.80164
 20
-15.50597
 30
0.0
 10
-10.79707
 20
-15.50597
 30
0.0
 10
-10.79707
 20
-15.50597
 30
0.0
 10
-10.79249
 20
-15.50597
 30
0.0
 10
-10.78902
 20
-15.50419
 30
0.0
 10
-10.78667
 20
-15.50062
 30
0.0
 10
-10.78667
 20
-15.50062
 30
0.0
 10
-10.78432
 20
-15.49705
 30
0.0
 10
-10.78316
 20
-15.4918
 30
0.0
 10
-10.78316
 20
-15.48487
 30
0.0
 10
-10.78316
 20
-15.48487
 30
0.0
 10
-10.78316
 20
-15.47792
 30
0.0
 10
-10.78432
 20
-15.47265
 30
0.0
 10
-10.78667
 20
-15.4691
 30
0.0
 10
-10.78667
 20
-15.4691
 30
0.0
 10
-10.78902
 20
-15.46555
 30
0.0
 10
-10.79249
 20
-15.46378
 30
0.0
 10
-10.79707
 20
-15.46378
 30
0.0
  0
SPLINE
  5
8A
330
1F
100
AcDbEntity
  8
Layer 1
 62
   250
100
AcDbSpline
210
0.0
220
0.0
230
1.0
 70
    11
 71
     3
 72
    36
 73
    32
 74
     0
 42
0.0000000001
 43
0.0000000001
 40
0.0
 40
0.0
 40
0.0
 40
0.0
 40
0.125
 40
0.125
 40
0.125
 40
0.125
 40
0.25
 40
0.25
 40
0.25
 40
0.25
 40
0.375
 40
0.375
 40
0.375
 40
0.375
 40
0.5
 40
0.5
 40
0.5
 40
0.5
 40
0.625
 40
0.625
 40
0.625
 40
0.625
 40
0.75
 40
0.75
 40
0.75
 40
0.75
 40
0.875
 40
0.875
 40
0.875
 40
0.875
 40
1.0
 40
1.0
 40
1.0
 40
1.0
 10
-10.79707
 20
-15.45616
 30
0.0
 10
-10.78949
 20
-15.45616
 30
0.0
 10
-10.78369
 20
-15.45861
 30
0.0
 10
-10.77967
 20
-15.46353
 30
0.0
 10
-10.77967
 20
-15.46353
 30
0.0
 10
-10.77565
 20
-15.46845
 30
0.0
 10
-10.77364
 20
-15.47557
 30
0.0
 10
-10.77364
 20
-15.48487
 30
0.0
 10
-10.77364
 20
-15.48487
 30
0.0
 10
-10.77364
 20
-15.49422
 30
0.0
 10
-10.77564
 20
-15.50134
 30
0.0
 10
-10.77964
 20
-15.50624
 30
0.0
 10
-10.77964
 20
-15.50624
 30
0.0
 10
-10.78366
 20
-15.51114
 30
0.0
 10
-10.78946
 20
-15.51359
 30
0.0
 10
-10.79707
 20
-15.51359
 30
0.0
 10
-10.79707
 20
-15.51359
 30
0.0
 10
-10.80467
 20
-15.51359
 30
0.0
 10
-10.81046
 20
-15.51114
 30
0.0
 10
-10.81448
 20
-15.50624
 30
0.0
 10
-10.81448
 20
-15.50624
 30
0.0
 10
-10.81848
 20
-15.50134
 30
0.0
 10
-10.82048
 20
-15.49422
 30
0.0
 10
-10.82048
 20
-15.48487
 30
0.0
 10
-10.82048
 20
-15.48487
 30
0.0
 10
-10.82048
 20
-15.47557
 30
0.0
 10
-10.81848
 20
-15.46845
 30
0.0
 10
-10.81448
 20
-15.46353
 30
0.0
 10
-10.81448
 20
-15.46353
 30
0.0
 10
-10.81046
 20
-15.45861
 30
0.0
 10
-10.80467
 20
-15.45616
 30
0.0
 10
-10.79707
 20
-15.45616
 30
0.0
  0
SPLINE
  5
8B
330
1F
100
AcDbEntity
  8
Layer 1
 62
   250
100
AcDbSpline
210
0.0
220
0.0
230
1.0
 70
    11
 71
     3
 72
   112
 73
   108
 74
     0
 42
0.0000000001
 43
0.0000000001
 40
0.0
 40
0.0
 40
0.0
 40
0.0
 40
0.037037037037037
 40
0.037037037037037
 40
0.037037037037037
 40
0.037037037037037
 40
0.0740740740740741
 40
0.0740740740740741
 40
0.0740740740740741
 40
0.0740740740740741
 40
0.1111111111111111
 40
0.1111111111111111
 40
0.1111111111111111
 40
0.1111111111111111
 40
0.1481481481481481
 40
0.1481481481481481
 40
0.1481481481481481
 40
0.1481481481481481
 40
0.1851851851851852
 40
0.1851851851851852
 40
0.1851851851851852
 40
0.1851851851851852
 40
0.2222222222222222
 40
0.2222222222222222
 40
0.2222222222222222
 40
0.2222222222222222
 40
0.2592592592592592
 40
0.2592592592592592
 40
0.2592592592592592
 40
0.2592592592592592
 40
0.2962962962962963
 40
0.2962962962962963
 40
0.2962962962962963
 40
0.2962962962962963
 40
0.3333333333333333
 40
0.3333333333333333
 40
0.3333333333333333
 40
0.3333333333333333
 40
0.3703703703703703
 40
0.3703703703703703
 40
0.3703703703703703
 40
0.3703703703703703
 40
0.4074074074074074
 40
0.4074074074074074
 40
0.4074074074074074
 40
0.4074074074074074
 40
0.4444444444444444
 40
0.4444444444444444
 40
0.4444444444444444
 40
0.4444444444444444
 40
0.4814814814814815
 40
0.4814814814814815
 40
0.4814814814814815
 40
0.4814814814814815
 40
0.5185185185185185
 40
0.5185185185185185
 40
0.5185185185185185
 40
0.5185185185185185
 40
0.5555555555555556
 40
0.5555555555555556
 40
0.5555555555555556
 40
0.5555555555555556
 40
0.5925925925925926
 40
0.5925925925925926
 40
0.5925925925925926
 40
0.5925925925925926
 40
0.6296296296296295
 40
0.6296296296296295
 40
0.6296296296296295
 40
0.6296296296296295
 40
0.6666666666666665
 40
0.6666666666666665
 40
0.6666666666666665
 40
0.6666666666666665
 40
0.7037037037037035
 40
0.7037037037037035
 40
0.7037037037037035
 40
0.7037037037037035
 40
0.7407407407407405
 40
0.7407407407407405
 40
0.7407407407407405
 40
0.7407407407407405
 40
0.7777777777777775
 40
0.7777777777777775
 40
0.7777777777777775
 40
0.7777777777777775
 40
0.8148148148148144
 40
0.8148148148148144
 40
0.8148148148148144
 40
0.8148148148148144
 40
0.8518518518518514
 40
0.8518518518518514
 40
0.8518518518518514
 40
0.8518518518518514
 40
0.8888888888888884
 40
0.8888888888888884
 40
0.8888888888888884
 40
0.8888888888888884
 40
0.9259259259259254
 40
0.9259259259259254
 40
0.9259259259259254
 40
0.9259259259259254
 40
0.9629629629629624
 40
0.9629629629629624
 40
0.9629629629629624
 40
0.9629629629629624
 40
1.0
 40
1.0
 40
1.0
 40
1.0
 10
-10.73395
 20
-15.46305
 30
0.0
 10
-10.73285
 20
-15.4607
 30
0.0
 10
-10.73143
 20
-15.45896
 30
0.0
 10
-10.72971
 20
-15.45785
 30
0.0
 10
-10.72971
 20
-15.45785
 30
0.0
 10
-10.72801
 20
-15.45673
 30
0.0
 10
-10.72595
 20
-15.45616
 30
0.0
 10
-10.72355
 20
-15.45616
 30
0.0
 10
-10.72355
 20
-15.45616
 30
0.0
 10
-10.71915
 20
-15.45616
 30
0.0
 10
-10.71604
 20
-15.45786
 30
0.0
 10
-10.71424
 20
-15.46126
 30
0.0
 10
-10.71424
 20
-15.46126
 30
0.0
 10
-10.71243
 20
-15.46467
 30
0.0
 10
-10.71153
 20
-15.47107
 30
0.0
 10
-10.71153
 20
-15.48048
 30
0.0
 10
-10.71153
 20
-15.48048
 30
0.0
 10
-10.71153
 20
-15.48048
 30
0.0
 10
-10.71153
 20
-15.51217
 30
0.0
 10
-10.71153
 20
-15.51217
 30
0.0
 10
-10.71153
 20
-15.51217
 30
0.0
 10
-10.71153
 20
-15.51217
 30
0.0
 10
-10.71973
 20
-15.51217
 30
0.0
 10
-10.71973
 20
-15.51217
 30
0.0
 10
-10.71973
 20
-15.51217
 30
0.0
 10
-10.71973
 20
-15.51217
 30
0.0
 10
-10.71973
 20
-15.48087
 30
0.0
 10
-10.71973
 20
-15.48087
 30
0.0
 10
-10.71973
 20
-15.48087
 30
0.0
 10
-10.71973
 20
-15.47315
 30
0.0
 10
-10.72016
 20
-15.46837
 30
0.0
 10
-10.72103
 20
-15.46648
 30
0.0
 10
-10.72103
 20
-15.46648
 30
0.0
 10
-10.72188
 20
-15.46462
 30
0.0
 10
-10.72346
 20
-15.46368
 30
0.0
 10
-10.72575
 20
-15.46368
 30
0.0
 10
-10.72575
 20
-15.46368
 30
0.0
 10
-10.72835
 20
-15.46368
 30
0.0
 10
-10.73013
 20
-15.46468
 30
0.0
 10
-10.7311
 20
-15.46668
 30
0.0
 10
-10.7311
 20
-15.46668
 30
0.0
 10
-10.73205
 20
-15.46868
 30
0.0
 10
-10.73253
 20
-15.47342
 30
0.0
 10
-10.73253
 20
-15.48087
 30
0.0
 10
-10.73253
 20
-15.48087
 30
0.0
 10
-10.73253
 20
-15.48087
 30
0.0
 10
-10.73253
 20
-15.51217
 30
0.0
 10
-10.73253
 20
-15.51217
 30
0.0
 10
-10.73253
 20
-15.51217
 30
0.0
 10
-10.73253
 20
-15.51217
 30
0.0
 10
-10.74073
 20
-15.51217
 30
0.0
 10
-10.74073
 20
-15.51217
 30
0.0
 10
-10.74073
 20
-15.51217
 30
0.0
 10
-10.74073
 20
-15.51217
 30
0.0
 10
-10.74073
 20
-15.48087
 30
0.0
 10
-10.74073
 20
-15.48087
 30
0.0
 10
-10.74073
 20
-15.48087
 30
0.0
 10
-10.74073
 20
-15.47305
 30
0.0
 10
-10.7412
 20
-15.46823
 30
0.0
 10
-10.74213
 20
-15.46642
 30
0.0
 10
-10.74213
 20
-15.46642
 30
0.0
 10
-10.74305
 20
-15.4646
 30
0.0
 10
-10.74471
 20
-15.46368
 30
0.0
 10
-10.74713
 20
-15.46368
 30
0.0
 10
-10.74713
 20
-15.46368
 30
0.0
 10
-10.74951
 20
-15.46368
 30
0.0
 10
-10.75117
 20
-15.46468
 30
0.0
 10
-10.75208
 20
-15.46668
 30
0.0
 10
-10.75208
 20
-15.46668
 30
0.0
 10
-10.75302
 20
-15.46868
 30
0.0
 10
-10.75348
 20
-15.47342
 30
0.0
 10
-10.75348
 20
-15.48087
 30
0.0
 10
-10.75348
 20
-15.48087
 30
0.0
 10
-10.75348
 20
-15.48087
 30
0.0
 10
-10.75348
 20
-15.51217
 30
0.0
 10
-10.75348
 20
-15.51217
 30
0.0
 10
-10.75348
 20
-15.51217
 30
0.0
 10
-10.75348
 20
-15.51217
 30
0.0
 10
-10.76163
 20
-15.51217
 30
0.0
 10
-10.76163
 20
-15.51217
 30
0.0
 10
-10.76163
 20
-15.51217
 30
0.0
 10
-10.76163
 20
-15.51217
 30
0.0
 10
-10.76163
 20
-15.45748
 30
0.0
 10
-10.76163
 20
-15.45748
 30
0.0
 10
-10.76163
 20
-15.45748
 30
0.0
 10
-10.76163
 20
-15.45748
 30
0.0
 10
-10.75348
 20
-15.45748
 30
0.0
 10
-10.75348
 20
-15.45748
 30
0.0
 10
-10.75348
 20
-15.45748
 30
0.0
 10
-10.75348
 20
-15.45748
 30
0.0
 10
-10.75348
 20
-15.46216
 30
0.0
 10
-10.75348
 20
-15.46216
 30
0.0
 10
-10.75348
 20
-15.46216
 30
0.0
 10
-10.75242
 20
-15.46021
 30
0.0
 10
-10.75107
 20
-15.45873
 30
0.0
 10
-10.74945
 20
-15.4577
 30
0.0
 10
-10.74945
 20
-15.4577
 30
0.0
 10
-10.74785
 20
-15.45668
 30
0.0
 10
-10.74601
 20
-15.45616
 30
0.0
 10
-10.74396
 20
-15.45616
 30
0.0
 10
-10.74396
 20
-15.45616
 30
0.0
 10
-10.74148
 20
-15.45616
 30
0.0
 10
-10.73943
 20
-15.45673
 30
0.0
 10
-10.73778
 20
-15.45786
 30
0.0
 10
-10.73778
 20
-15.45786
 30
0.0
 10
-10.73613
 20
-15.45901
 30
0.0
 10
-10.73486
 20
-15.46073
 30
0.0
 10
-10.73395
 20
-15.46305
 30
0.0
  0
SPLINE
  5
8C
330
1F
100
AcDbEntity
  8
Layer 1
 62
   250
100
AcDbSpline
210
0.0
220
0.0
230
1.0
 70
    11
 71
     3
 72
    20
 73
    16
 74
     0
 42
0.0000000001
 43
0.0000000001
 40
0.0
 40
0.0
 40
0.0
 40
0.0
 40
0.25
 40
0.25
 40
0.25
 40
0.25
 40
0.5
 40
0.5
 40
0.5
 40
0.5
 40
0.75
 40
0.75
 40
0.75
 40
0.75
 40
1.0
 40
1.0
 40
1.0
 40
1.0
 10
-10.68285
 20
-15.49727
 30
0.0
 10
-10.68285
 20
-15.49727
 30
0.0
 10
-10.67055
 20
-15.49727
 30
0.0
 10
-10.67055
 20
-15.49727
 30
0.0
 10
-10.67055
 20
-15.49727
 30
0.0
 10
-10.67055
 20
-15.49727
 30
0.0
 10
-10.67055
 20
-15.51217
 30
0.0
 10
-10.67055
 20
-15.51217
 30
0.0
 10
-10.67055
 20
-15.51217
 30
0.0
 10
-10.67055
 20
-15.51217
 30
0.0
 10
-10.68285
 20
-15.51217
 30
0.0
 10
-10.68285
 20
-15.51217
 30
0.0
 10
-10.68285
 20
-15.51217
 30
0.0
 10
-10.68285
 20
-15.51217
 30
0.0
 10
-10.68285
 20
-15.49727
 30
0.0
 10
-10.68285
 20
-15.49727
 30
0.0
  0
SPLINE
  5
8D
330
1F
100
AcDbEntity
  8
Layer 1
 62
   250
100
AcDbSpline
210
0.0
220
0.0
230
1.0
 70
    11
 71
     3
 72
    52
 73
    48
 74
     0
 42
0.0000000001
 43
0.0000000001
 40
0.0
 40
0.0
 40
0.0
 40
0.0
 40
0.0833333333333333
 40
0.0833333333333333
 40
0.0833333333333333
 40
0.0833333333333333
 40
0.1666666666666667
 40
0.1666666666666667
 40
0.1666666666666667
 40
0.1666666666666667
 40
0.25
 40
0.25
 40
0.25
 40
0.25
 40
0.3333333333333333
 40
0.3333333333333333
 40
0.3333333333333333
 40
0.3333333333333333
 40
0.4166666666666666
 40
0.4166666666666666
 40
0.4166666666666666
 40
0.4166666666666666
 40
0.4999999999999999
 40
0.4999999999999999
 40
0.4999999999999999
 40
0.4999999999999999
 40
0.5833333333333333
 40
0.5833333333333333
 40
0.5833333333333333
 40
0.5833333333333333
 40
0.6666666666666666
 40
0.6666666666666666
 40
0.6666666666666666
 40
0.6666666666666666
 40
0.75
 40
0.75
 40
0.75
 40
0.75
 40
0.8333333333333334
 40
0.8333333333333334
 40
0.8333333333333334
 40
0.8333333333333334
 40
0.9166666666666667
 40
0.9166666666666667
 40
0.9166666666666667
 40
0.9166666666666667
 40
1.0
 40
1.0
 40
1.0
 40
1.0
 10
-10.61533
 20
-15.49235
 30
0.0
 10
-10.61533
 20
-15.49639
 30
0.0
 10
-10.61459
 20
-15.49942
 30
0.0
 10
-10.61311
 20
-15.50147
 30
0.0
 10
-10.61311
 20
-15.50147
 30
0.0
 10
-10.61163
 20
-15.50352
 30
0.0
 10
-10.60944
 20
-15.50455
 30
0.0
 10
-10.60654
 20
-15.50455
 30
0.0
 10
-10.60654
 20
-15.50455
 30
0.0
 10
-10.60654
 20
-15.50455
 30
0.0
 10
-10.59604
 20
-15.50455
 30
0.0
 10
-10.59604
 20
-15.50455
 30
0.0
 10
-10.59604
 20
-15.50455
 30
0.0
 10
-10.59604
 20
-15.50455
 30
0.0
 10
-10.59604
 20
-15.51217
 30
0.0
 10
-10.59604
 20
-15.51217
 30
0.0
 10
-10.59604
 20
-15.51217
 30
0.0
 10
-10.59604
 20
-15.51217
 30
0.0
 10
-10.60741
 20
-15.51217
 30
0.0
 10
-10.60741
 20
-15.51217
 30
0.0
 10
-10.60741
 20
-15.51217
 30
0.0
 10
-10.61279
 20
-15.51217
 30
0.0
 10
-10.61694
 20
-15.51044
 30
0.0
 10
-10.61989
 20
-15.50699
 30
0.0
 10
-10.61989
 20
-15.50699
 30
0.0
 10
-10.62284
 20
-15.50354
 30
0.0
 10
-10.62431
 20
-15.49865
 30
0.0
 10
-10.62431
 20
-15.49235
 30
0.0
 10
-10.62431
 20
-15.49235
 30
0.0
 10
-10.62431
 20
-15.49235
 30
0.0
 10
-10.62431
 20
-15.44268
 30
0.0
 10
-10.62431
 20
-15.44268
 30
0.0
 10
-10.62431
 20
-15.44268
 30
0.0
 10
-10.62431
 20
-15.44268
 30
0.0
 10
-10.63871
 20
-15.44268
 30
0.0
 10
-10.63871
 20
-15.44268
 30
0.0
 10
-10.63871
 20
-15.44268
 30
0.0
 10
-10.63871
 20
-15.44268
 30
0.0
 10
-10.63871
 20
-15.43565
 30
0.0
 10
-10.63871
 20
-15.43565
 30
0.0
 10
-10.63871
 20
-15.43565
 30
0.0
 10
-10.63871
 20
-15.43565
 30
0.0
 10
-10.61533
 20
-15.43565
 30
0.0
 10
-10.61533
 20
-15.43565
 30
0.0
 10
-10.61533
 20
-15.43565
 30
0.0
 10
-10.61533
 20
-15.43565
 30
0.0
 10
-10.61533
 20
-15.49235
 30
0.0
 10
-10.61533
 20
-15.49235
 30
0.0
  0
SPLINE
  5
8E
330
1F
100
AcDbEntity
  8
Layer 1
 62
   250
100
AcDbSpline
210
0.0
220
0.0
230
1.0
 70
    11
 71
     3
 72
    76
 73
    72
 74
     0
 42
0.0000000001
 43
0.0000000001
 40
0.0
 40
0.0
 40
0.0
 40
0.0
 40
0.0555555555555556
 40
0.0555555555555556
 40
0.0555555555555556
 40
0.0555555555555556
 40
0.1111111111111111
 40
0.1111111111111111
 40
0.1111111111111111
 40
0.1111111111111111
 40
0.1666666666666667
 40
0.1666666666666667
 40
0.1666666666666667
 40
0.1666666666666667
 40
0.2222222222222222
 40
0.2222222222222222
 40
0.2222222222222222
 40
0.2222222222222222
 40
0.2777777777777778
 40
0.2777777777777778
 40
0.2777777777777778
 40
0.2777777777777778
 40
0.3333333333333334
 40
0.3333333333333334
 40
0.3333333333333334
 40
0.3333333333333334
 40
0.388888888888889
 40
0.388888888888889
 40
0.388888888888889
 40
0.388888888888889
 40
0.4444444444444445
 40
0.4444444444444445
 40
0.4444444444444445
 40
0.4444444444444445
 40
0.5000000000000001
 40
0.5000000000000001
 40
0.5000000000000001
 40
0.5000000000000001
 40
0.5555555555555557
 40
0.5555555555555557
 40
0.5555555555555557
 40
0.5555555555555557
 40
0.6111111111111113
 40
0.6111111111111113
 40
0.6111111111111113
 40
0.6111111111111113
 40
0.6666666666666669
 40
0.6666666666666669
 40
0.6666666666666669
 40
0.6666666666666669
 40
0.7222222222222224
 40
0.7222222222222224
 40
0.7222222222222224
 40
0.7222222222222224
 40
0.777777777777778
 40
0.777777777777778
 40
0.777777777777778
 40
0.777777777777778
 40
0.8333333333333336
 40
0.8333333333333336
 40
0.8333333333333336
 40
0.8333333333333336
 40
0.8888888888888892
 40
0.8888888888888892
 40
0.8888888888888892
 40
0.8888888888888892
 40
0.9444444444444448
 40
0.9444444444444448
 40
0.9444444444444448
 40
0.9444444444444448
 40
1.0
 40
1.0
 40
1.0
 40
1.0
 10
-10.55633
 20
-15.44195
 30
0.0
 10
-10.55633
 20
-15.44195
 30
0.0
 10
-10.55633
 20
-15.45748
 30
0.0
 10
-10.55633
 20
-15.45748
 30
0.0
 10
-10.55633
 20
-15.45748
 30
0.0
 10
-10.55633
 20
-15.45748
 30
0.0
 10
-10.53591
 20
-15.45748
 30
0.0
 10
-10.53591
 20
-15.45748
 30
0.0
 10
-10.53591
 20
-15.45748
 30
0.0
 10
-10.53591
 20
-15.45748
 30
0.0
 10
-10.53591
 20
-15.46447
 30
0.0
 10
-10.53591
 20
-15.46447
 30
0.0
 10
-10.53591
 20
-15.46447
 30
0.0
 10
-10.53591
 20
-15.46447
 30
0.0
 10
-10.55633
 20
-15.46447
 30
0.0
 10
-10.55633
 20
-15.46447
 30
0.0
 10
-10.55633
 20
-15.46447
 30
0.0
 10
-10.55633
 20
-15.46447
 30
0.0
 10
-10.55633
 20
-15.49415
 30
0.0
 10
-10.55633
 20
-15.49415
 30
0.0
 10
-10.55633
 20
-15.49415
 30
0.0
 10
-10.55633
 20
-15.49819
 30
0.0
 10
-10.55557
 20
-15.501
 30
0.0
 10
-10.55403
 20
-15.50259
 30
0.0
 10
-10.55403
 20
-15.50259
 30
0.0
 10
-10.5525
 20
-15.50419
 30
0.0
 10
-10.54983
 20
-15.50499
 30
0.0
 10
-10.54603
 20
-15.50499
 30
0.0
 10
-10.54603
 20
-15.50499
 30
0.0
 10
-10.54603
 20
-15.50499
 30
0.0
 10
-10.53591
 20
-15.50499
 30
0.0
 10
-10.53591
 20
-15.50499
 30
0.0
 10
-10.53591
 20
-15.50499
 30
0.0
 10
-10.53591
 20
-15.50499
 30
0.0
 10
-10.53591
 20
-15.51217
 30
0.0
 10
-10.53591
 20
-15.51217
 30
0.0
 10
-10.53591
 20
-15.51217
 30
0.0
 10
-10.53591
 20
-15.51217
 30
0.0
 10
-10.5469
 20
-15.51217
 30
0.0
 10
-10.5469
 20
-15.51217
 30
0.0
 10
-10.5469
 20
-15.51217
 30
0.0
 10
-10.55365
 20
-15.51217
 30
0.0
 10
-10.5584
 20
-15.51082
 30
0.0
 10
-10.56117
 20
-15.50812
 30
0.0
 10
-10.56117
 20
-15.50812
 30
0.0
 10
-10.56393
 20
-15.50542
 30
0.0
 10
-10.56532
 20
-15.50075
 30
0.0
 10
-10.56532
 20
-15.49415
 30
0.0
 10
-10.56532
 20
-15.49415
 30
0.0
 10
-10.56532
 20
-15.49415
 30
0.0
 10
-10.56532
 20
-15.46447
 30
0.0
 10
-10.56532
 20
-15.46447
 30
0.0
 10
-10.56532
 20
-15.46447
 30
0.0
 10
-10.56532
 20
-15.46447
 30
0.0
 10
-10.57992
 20
-15.46447
 30
0.0
 10
-10.57992
 20
-15.46447
 30
0.0
 10
-10.57992
 20
-15.46447
 30
0.0
 10
-10.57992
 20
-15.46447
 30
0.0
 10
-10.57992
 20
-15.45748
 30
0.0
 10
-10.57992
 20
-15.45748
 30
0.0
 10
-10.57992
 20
-15.45748
 30
0.0
 10
-10.57992
 20
-15.45748
 30
0.0
 10
-10.56532
 20
-15.45748
 30
0.0
 10
-10.56532
 20
-15.45748
 30
0.0
 10
-10.56532
 20
-15.45748
 30
0.0
 10
-10.56532
 20
-15.45748
 30
0.0
 10
-10.56532
 20
-15.44195
 30
0.0
 10
-10.56532
 20
-15.44195
 30
0.0
 10
-10.56532
 20
-15.44195
 30
0.0
 10
-10.56532
 20
-15.44195
 30
0.0
 10
-10.55633
 20
-15.44195
 30
0.0
 10
-10.55633
 20
-15.44195
 30
0.0
  0
SPLINE
  5
8F
330
1F
100
AcDbEntity
  8
Layer 1
 62
   250
100
AcDbSpline
210
0.0
220
0.0
230
1.0
 70
    11
 71
     3
 72
    20
 73
    16
 74
     0
 42
0.0000000001
 43
0.0000000001
 40
0.0
 40
0.0
 40
0.0
 40
0.0
 40
0.25
 40
0.25
 40
0.25
 40
0.25
 40
0.5
 40
0.5
 40
0.5
 40
0.5
 40
0.75
 40
0.75
 40
0.75
 40
0.75
 40
1.0
 40
1.0
 40
1.0
 40
1.0
 10
-10.48269
 20
-15.43926
 30
0.0
 10
-10.48269
 20
-15.43926
 30
0.0
 10
-10.4734
 20
-15.43926
 30
0.0
 10
-10.4734
 20
-15.43926
 30
0.0
 10
-10.4734
 20
-15.43926
 30
0.0
 10
-10.4734
 20
-15.43926
 30
0.0
 10
-10.51179
 20
-15.52145
 30
0.0
 10
-10.51179
 20
-15.52145
 30
0.0
 10
-10.51179
 20
-15.52145
 30
0.0
 10
-10.51179
 20
-15.52145
 30
0.0
 10
-10.52113
 20
-15.52145
 30
0.0
 10
-10.52113
 20
-15.52145
 30
0.0
 10
-10.52113
 20
-15.52145
 30
0.0
 10
-10.52113
 20
-15.52145
 30
0.0
 10
-10.48269
 20
-15.43926
 30
0.0
 10
-10.48269
 20
-15.43926
 30
0.0
  0
SPLINE
  5
90
330
1F
100
AcDbEntity
  8
Layer 1
 62
   250
100
AcDbSpline
210
0.0
220
0.0
230
1.0
 70
    11
 71
     3
 72
    68
 73
    64
 74
     0
 42
0.0000000001
 43
0.0000000001
 40
0.0
 40
0.0
 40
0.0
 40
0.0
 40
0.0625
 40
0.0625
 40
0.0625
 40
0.0625
 40
0.125
 40
0.125
 40
0.125
 40
0.125
 40
0.1875
 40
0.1875
 40
0.1875
 40
0.1875
 40
0.25
 40
0.25
 40
0.25
 40
0.25
 40
0.3125
 40
0.3125
 40
0.3125
 40
0.3125
 40
0.375
 40
0.375
 40
0.375
 40
0.375
 40
0.4375
 40
0.4375
 40
0.4375
 40
0.4375
 40
0.5
 40
0.5
 40
0.5
 40
0.5
 40
0.5625
 40
0.5625
 40
0.5625
 40
0.5625
 40
0.625
 40
0.625
 40
0.625
 40
0.625
 40
0.6875
 40
0.6875
 40
0.6875
 40
0.6875
 40
0.75
 40
0.75
 40
0.75
 40
0.75
 40
0.8125
 40
0.8125
 40
0.8125
 40
0.8125
 40
0.875
 40
0.875
 40
0.875
 40
0.875
 40
0.9375
 40
0.9375
 40
0.9375
 40
0.9375
 40
1.0
 40
1.0
 40
1.0
 40
1.0
 10
-10.4265
 20
-15.47775
 30
0.0
 10
-10.42506
 20
-15.47803
 30
0.0
 10
-10.42381
 20
-15.47872
 30
0.0
 10
-10.42276
 20
-15.47978
 30
0.0
 10
-10.42276
 20
-15.47978
 30
0.0
 10
-10.4217
 20
-15.48083
 30
0.0
 10
-10.42041
 20
-15.4829
 30
0.0
 10
-10.41888
 20
-15.48595
 30
0.0
 10
-10.41888
 20
-15.48595
 30
0.0
 10
-10.41888
 20
-15.48595
 30
0.0
 10
-10.40568
 20
-15.51217
 30
0.0
 10
-10.40568
 20
-15.51217
 30
0.0
 10
-10.40568
 20
-15.51217
 30
0.0
 10
-10.40568
 20
-15.51217
 30
0.0
 10
-10.42151
 20
-15.51217
 30
0.0
 10
-10.42151
 20
-15.51217
 30
0.0
 10
-10.42151
 20
-15.51217
 30
0.0
 10
-10.42151
 20
-15.51217
 30
0.0
 10
-10.4303
 20
-15.49377
 30
0.0
 10
-10.4303
 20
-15.49377
 30
0.0
 10
-10.4303
 20
-15.49377
 30
0.0
 10
-10.43056
 20
-15.49325
 30
0.0
 10
-10.43091
 20
-15.49253
 30
0.0
 10
-10.43133
 20
-15.49162
 30
0.0
 10
-10.43133
 20
-15.49162
 30
0.0
 10
-10.4339
 20
-15.48612
 30
0.0
 10
-10.43693
 20
-15.48337
 30
0.0
 10
-10.44041
 20
-15.48337
 30
0.0
 10
-10.44041
 20
-15.48337
 30
0.0
 10
-10.44041
 20
-15.48337
 30
0.0
 10
-10.445
 20
-15.48337
 30
0.0
 10
-10.445
 20
-15.48337
 30
0.0
 10
-10.445
 20
-15.48337
 30
0.0
 10
-10.445
 20
-15.48337
 30
0.0
 10
-10.445
 20
-15.51217
 30
0.0
 10
-10.445
 20
-15.51217
 30
0.0
 10
-10.445
 20
-15.51217
 30
0.0
 10
-10.445
 20
-15.51217
 30
0.0
 10
-10.4594
 20
-15.51217
 30
0.0
 10
-10.4594
 20
-15.51217
 30
0.0
 10
-10.4594
 20
-15.51217
 30
0.0
 10
-10.4594
 20
-15.51217
 30
0.0
 10
-10.4594
 20
-15.43926
 30
0.0
 10
-10.4594
 20
-15.43926
 30
0.0
 10
-10.4594
 20
-15.43926
 30
0.0
 10
-10.4594
 20
-15.43926
 30
0.0
 10
-10.4386
 20
-15.43926
 30
0.0
 10
-10.4386
 20
-15.43926
 30
0.0
 10
-10.4386
 20
-15.43926
 30
0.0
 10
-10.42923
 20
-15.43926
 30
0.0
 10
-10.4225
 20
-15.44093
 30
0.0
 10
-10.41841
 20
-15.44425
 30
0.0
 10
-10.41841
 20
-15.44425
 30
0.0
 10
-10.41433
 20
-15.44756
 30
0.0
 10
-10.41228
 20
-15.45296
 30
0.0
 10
-10.41228
 20
-15.46046
 30
0.0
 10
-10.41228
 20
-15.46046
 30
0.0
 10
-10.41228
 20
-15.46547
 30
0.0
 10
-10.41349
 20
-15.46947
 30
0.0
 10
-10.41595
 20
-15.47243
 30
0.0
 10
-10.41595
 20
-15.47243
 30
0.0
 10
-10.41838
 20
-15.47538
 30
0.0
 10
-10.4219
 20
-15.47717
 30
0.0
 10
-10.4265
 20
-15.47775
 30
0.0
  0
SPLINE
  5
91
330
1F
100
AcDbEntity
  8
Layer 1
 62
   250
100
AcDbSpline
210
0.0
220
0.0
230
1.0
 70
    11
 71
     3
 72
    32
 73
    28
 74
     0
 42
0.0000000001
 43
0.0000000001
 40
0.0
 40
0.0
 40
0.0
 40
0.0
 40
0.1428571428571428
 40
0.1428571428571428
 40
0.1428571428571428
 40
0.1428571428571428
 40
0.2857142857142857
 40
0.2857142857142857
 40
0.2857142857142857
 40
0.2857142857142857
 40
0.4285714285714285
 40
0.4285714285714285
 40
0.4285714285714285
 40
0.4285714285714285
 40
0.5714285714285714
 40
0.5714285714285714
 40
0.5714285714285714
 40
0.5714285714285714
 40
0.7142857142857142
 40
0.7142857142857142
 40
0.7142857142857142
 40
0.7142857142857142
 40
0.857142857142857
 40
0.857142857142857
 40
0.857142857142857
 40
0.857142857142857
 40
1.0
 40
1.0
 40
1.0
 40
1.0
 10
-10.445
 20
-15.45138
 30
0.0
 10
-10.445
 20
-15.45138
 30
0.0
 10
-10.445
 20
-15.47125
 30
0.0
 10
-10.445
 20
-15.47125
 30
0.0
 10
-10.445
 20
-15.47125
 30
0.0
 10
-10.445
 20
-15.47125
 30
0.0
 10
-10.43821
 20
-15.47125
 30
0.0
 10
-10.43821
 20
-15.47125
 30
0.0
 10
-10.43821
 20
-15.47125
 30
0.0
 10
-10.43428
 20
-15.47125
 30
0.0
 10
-10.43145
 20
-15.47048
 30
0.0
 10
-10.42975
 20
-15.46893
 30
0.0
 10
-10.42975
 20
-15.46893
 30
0.0
 10
-10.42803
 20
-15.46738
 30
0.0
 10
-10.42718
 20
-15.46483
 30
0.0
 10
-10.42718
 20
-15.4613
 30
0.0
 10
-10.42718
 20
-15.4613
 30
0.0
 10
-10.42718
 20
-15.45775
 30
0.0
 10
-10.42803
 20
-15.4552
 30
0.0
 10
-10.42971
 20
-15.45368
 30
0.0
 10
-10.42971
 20
-15.45368
 30
0.0
 10
-10.43141
 20
-15.45215
 30
0.0
 10
-10.43425
 20
-15.45138
 30
0.0
 10
-10.43821
 20
-15.45138
 30
0.0
 10
-10.43821
 20
-15.45138
 30
0.0
 10
-10.43821
 20
-15.45138
 30
0.0
 10
-10.445
 20
-15.45138
 30
0.0
 10
-10.445
 20
-15.45138
 30
0.0
  0
SPLINE
  5
92
330
1F
100
AcDbEntity
  8
Layer 1
 62
   250
100
AcDbSpline
210
0.0
220
0.0
230
1.0
 70
    11
 71
     3
 72
    44
 73
    40
 74
     0
 42
0.0000000001
 43
0.0000000001
 40
0.0
 40
0.0
 40
0.0
 40
0.0
 40
0.1
 40
0.1
 40
0.1
 40
0.1
 40
0.2
 40
0.2
 40
0.2
 40
0.2
 40
0.3
 40
0.3
 40
0.3
 40
0.3
 40
0.4
 40
0.4
 40
0.4
 40
0.4
 40
0.5
 40
0.5
 40
0.5
 40
0.5
 40
0.6
 40
0.6
 40
0.6
 40
0.6
 40
0.7
 40
0.7
 40
0.7
 40
0.7
 40
0.7999999999999999
 40
0.7999999999999999
 40
0.7999999999999999
 40
0.7999999999999999
 40
0.8999999999999999
 40
0.8999999999999999
 40
0.8999999999999999
 40
0.8999999999999999
 40
1.0
 40
1.0
 40
1.0
 40
1.0
 10
-10.35138
 20
-15.45196
 30
0.0
 10
-10.35138
 20
-15.45196
 30
0.0
 10
-10.3824
 20
-15.45196
 30
0.0
 10
-10.3824
 20
-15.45196
 30
0.0
 10
-10.3824
 20
-15.45196
 30
0.0
 10
-10.3824
 20
-15.45196
 30
0.0
 10
-10.3824
 20
-15.46768
 30
0.0
 10
-10.3824
 20
-15.46768
 30
0.0
 10
-10.3824
 20
-15.46768
 30
0.0
 10
-10.3824
 20
-15.46768
 30
0.0
 10
-10.35417
 20
-15.46768
 30
0.0
 10
-10.35417
 20
-15.46768
 30
0.0
 10
-10.35417
 20
-15.46768
 30
0.0
 10
-10.35417
 20
-15.46768
 30
0.0
 10
-10.35417
 20
-15.48038
 30
0.0
 10
-10.35417
 20
-15.48038
 30
0.0
 10
-10.35417
 20
-15.48038
 30
0.0
 10
-10.35417
 20
-15.48038
 30
0.0
 10
-10.3824
 20
-15.48038
 30
0.0
 10
-10.3824
 20
-15.48038
 30
0.0
 10
-10.3824
 20
-15.48038
 30
0.0
 10
-10.3824
 20
-15.48038
 30
0.0
 10
-10.3824
 20
-15.51217
 30
0.0
 10
-10.3824
 20
-15.51217
 30
0.0
 10
-10.3824
 20
-15.51217
 30
0.0
 10
-10.3824
 20
-15.51217
 30
0.0
 10
-10.39681
 20
-15.51217
 30
0.0
 10
-10.39681
 20
-15.51217
 30
0.0
 10
-10.39681
 20
-15.51217
 30
0.0
 10
-10.39681
 20
-15.51217
 30
0.0
 10
-10.39681
 20
-15.43926
 30
0.0
 10
-10.39681
 20
-15.43926
 30
0.0
 10
-10.39681
 20
-15.43926
 30
0.0
 10
-10.39681
 20
-15.43926
 30
0.0
 10
-10.35138
 20
-15.43926
 30
0.0
 10
-10.35138
 20
-15.43926
 30
0.0
 10
-10.35138
 20
-15.43926
 30
0.0
 10
-10.35138
 20
-15.43926
 30
0.0
 10
-10.35138
 20
-15.45196
 30
0.0
 10
-10.35138
 20
-15.45196
 30
0.0
  0
SPLINE
  5
93
330
1F
100
AcDbEntity
  8
Layer 1
 62
   250
100
AcDbSpline
210
0.0
220
0.0
230
1.0
 70
    11
 71
     3
 72
    48
 73
    44
 74
     0
 42
0.0000000001
 43
0.0000000001
 40
0.0
 40
0.0
 40
0.0
 40
0.0
 40
0.0909090909090909
 40
0.0909090909090909
 40
0.0909090909090909
 40
0.0909090909090909
 40
0.1818181818181818
 40
0.1818181818181818
 40
0.1818181818181818
 40
0.1818181818181818
 40
0.2727272727272727
 40
0.2727272727272727
 40
0.2727272727272727
 40
0.2727272727272727
 40
0.3636363636363636
 40
0.3636363636363636
 40
0.3636363636363636
 40
0.3636363636363636
 40
0.4545454545454546
 40
0.4545454545454546
 40
0.4545454545454546
 40
0.4545454545454546
 40
0.5454545454545455
 40
0.5454545454545455
 40
0.5454545454545455
 40
0.5454545454545455
 40
0.6363636363636365
 40
0.6363636363636365
 40
0.6363636363636365
 40
0.6363636363636365
 40
0.7272727272727274
 40
0.7272727272727274
 40
0.7272727272727274
 40
0.7272727272727274
 40
0.8181818181818183
 40
0.8181818181818183
 40
0.8181818181818183
 40
0.8181818181818183
 40
0.9090909090909093
 40
0.9090909090909093
 40
0.9090909090909093
 40
0.9090909090909093
 40
1.0
 40
1.0
 40
1.0
 40
1.0
 10
-10.3363
 20
-15.49947
 30
0.0
 10
-10.3363
 20
-15.49947
 30
0.0
 10
-10.32018
 20
-15.49947
 30
0.0
 10
-10.32018
 20
-15.49947
 30
0.0
 10
-10.32018
 20
-15.49947
 30
0.0
 10
-10.32018
 20
-15.49947
 30
0.0
 10
-10.32018
 20
-15.45215
 30
0.0
 10
-10.32018
 20
-15.45215
 30
0.0
 10
-10.32018
 20
-15.45215
 30
0.0
 10
-10.32018
 20
-15.45215
 30
0.0
 10
-10.33516
 20
-15.45586
 30
0.0
 10
-10.33516
 20
-15.45586
 30
0.0
 10
-10.33516
 20
-15.45586
 30
0.0
 10
-10.33516
 20
-15.45586
 30
0.0
 10
-10.33516
 20
-15.44288
 30
0.0
 10
-10.33516
 20
-15.44288
 30
0.0
 10
-10.33516
 20
-15.44288
 30
0.0
 10
-10.33516
 20
-15.44288
 30
0.0
 10
-10.32008
 20
-15.43926
 30
0.0
 10
-10.32008
 20
-15.43926
 30
0.0
 10
-10.32008
 20
-15.43926
 30
0.0
 10
-10.32008
 20
-15.43926
 30
0.0
 10
-10.30616
 20
-15.43926
 30
0.0
 10
-10.30616
 20
-15.43926
 30
0.0
 10
-10.30616
 20
-15.43926
 30
0.0
 10
-10.30616
 20
-15.43926
 30
0.0
 10
-10.30616
 20
-15.49947
 30
0.0
 10
-10.30616
 20
-15.49947
 30
0.0
 10
-10.30616
 20
-15.49947
 30
0.0
 10
-10.30616
 20
-15.49947
 30
0.0
 10
-10.29004
 20
-15.49947
 30
0.0
 10
-10.29004
 20
-15.49947
 30
0.0
 10
-10.29004
 20
-15.49947
 30
0.0
 10
-10.29004
 20
-15.49947
 30
0.0
 10
-10.29004
 20
-15.51217
 30
0.0
 10
-10.29004
 20
-15.51217
 30
0.0
 10
-10.29004
 20
-15.51217
 30
0.0
 10
-10.29004
 20
-15.51217
 30
0.0
 10
-10.3363
 20
-15.51217
 30
0.0
 10
-10.3363
 20
-15.51217
 30
0.0
 10
-10.3363
 20
-15.51217
 30
0.0
 10
-10.3363
 20
-15.51217
 30
0.0
 10
-10.3363
 20
-15.49947
 30
0.0
 10
-10.3363
 20
-15.49947
 30
0.0
  0
SPLINE
  5
94
330
1F
100
AcDbEntity
  8
Layer 1
 62
   250
100
AcDbSpline
210
0.0
220
0.0
230
1.0
 70
    11
 71
     3
 72
    88
 73
    84
 74
     0
 42
0.0000000001
 43
0.0000000001
 40
0.0
 40
0.0
 40
0.0
 40
0.0
 40
0.0476190476190476
 40
0.0476190476190476
 40
0.0476190476190476
 40
0.0476190476190476
 40
0.0952380952380952
 40
0.0952380952380952
 40
0.0952380952380952
 40
0.0952380952380952
 40
0.1428571428571428
 40
0.1428571428571428
 40
0.1428571428571428
 40
0.1428571428571428
 40
0.1904761904761905
 40
0.1904761904761905
 40
0.1904761904761905
 40
0.1904761904761905
 40
0.2380952380952381
 40
0.2380952380952381
 40
0.2380952380952381
 40
0.2380952380952381
 40
0.2857142857142857
 40
0.2857142857142857
 40
0.2857142857142857
 40
0.2857142857142857
 40
0.3333333333333333
 40
0.3333333333333333
 40
0.3333333333333333
 40
0.3333333333333333
 40
0.3809523809523809
 40
0.3809523809523809
 40
0.3809523809523809
 40
0.3809523809523809
 40
0.4285714285714285
 40
0.4285714285714285
 40
0.4285714285714285
 40
0.4285714285714285
 40
0.4761904761904762
 40
0.4761904761904762
 40
0.4761904761904762
 40
0.4761904761904762
 40
0.5238095238095237
 40
0.5238095238095237
 40
0.5238095238095237
 40
0.5238095238095237
 40
0.5714285714285714
 40
0.5714285714285714
 40
0.5714285714285714
 40
0.5714285714285714
 40
0.6190476190476191
 40
0.6190476190476191
 40
0.6190476190476191
 40
0.6190476190476191
 40
0.6666666666666667
 40
0.6666666666666667
 40
0.6666666666666667
 40
0.6666666666666667
 40
0.7142857142857144
 40
0.7142857142857144
 40
0.7142857142857144
 40
0.7142857142857144
 40
0.7619047619047621
 40
0.7619047619047621
 40
0.7619047619047621
 40
0.7619047619047621
 40
0.8095238095238098
 40
0.8095238095238098
 40
0.8095238095238098
 40
0.8095238095238098
 40
0.8571428571428574
 40
0.8571428571428574
 40
0.8571428571428574
 40
0.8571428571428574
 40
0.9047619047619051
 40
0.9047619047619051
 40
0.9047619047619051
 40
0.9047619047619051
 40
0.9523809523809528
 40
0.9523809523809528
 40
0.9523809523809528
 40
0.9523809523809528
 40
1.0
 40
1.0
 40
1.0
 40
1.0
 10
-10.26408
 20
-15.49947
 30
0.0
 10
-10.26408
 20
-15.49947
 30
0.0
 10
-10.23336
 20
-15.49947
 30
0.0
 10
-10.23336
 20
-15.49947
 30
0.0
 10
-10.23336
 20
-15.49947
 30
0.0
 10
-10.23336
 20
-15.49947
 30
0.0
 10
-10.23336
 20
-15.51217
 30
0.0
 10
-10.23336
 20
-15.51217
 30
0.0
 10
-10.23336
 20
-15.51217
 30
0.0
 10
-10.23336
 20
-15.51217
 30
0.0
 10
-10.27965
 20
-15.51217
 30
0.0
 10
-10.27965
 20
-15.51217
 30
0.0
 10
-10.27965
 20
-15.51217
 30
0.0
 10
-10.27965
 20
-15.51217
 30
0.0
 10
-10.27965
 20
-15.49985
 30
0.0
 10
-10.27965
 20
-15.49985
 30
0.0
 10
-10.27965
 20
-15.49985
 30
0.0
 10
-10.27965
 20
-15.49985
 30
0.0
 10
-10.27184
 20
-15.49157
 30
0.0
 10
-10.27184
 20
-15.49157
 30
0.0
 10
-10.27184
 20
-15.49157
 30
0.0
 10
-10.26257
 20
-15.4817
 30
0.0
 10
-10.25693
 20
-15.47563
 30
0.0
 10
-10.25495
 20
-15.47335
 30
0.0
 10
-10.25495
 20
-15.47335
 30
0.0
 10
-10.25252
 20
-15.47055
 30
0.0
 10
-10.25075
 20
-15.46807
 30
0.0
 10
-10.24968
 20
-15.4659
 30
0.0
 10
-10.24968
 20
-15.4659
 30
0.0
 10
-10.2486
 20
-15.46373
 30
0.0
 10
-10.24807
 20
-15.4616
 30
0.0
 10
-10.24807
 20
-15.45948
 30
0.0
 10
-10.24807
 20
-15.45948
 30
0.0
 10
-10.24807
 20
-15.45623
 30
0.0
 10
-10.24905
 20
-15.45371
 30
0.0
 10
-10.25102
 20
-15.45195
 30
0.0
 10
-10.25102
 20
-15.45195
 30
0.0
 10
-10.25298
 20
-15.45016
 30
0.0
 10
-10.25578
 20
-15.44928
 30
0.0
 10
-10.25938
 20
-15.44928
 30
0.0
 10
-10.25938
 20
-15.44928
 30
0.0
 10
-10.26197
 20
-15.44928
 30
0.0
 10
-10.26485
 20
-15.4498
 30
0.0
 10
-10.26805
 20
-15.45081
 30
0.0
 10
-10.26805
 20
-15.45081
 30
0.0
 10
-10.27127
 20
-15.45185
 30
0.0
 10
-10.2746
 20
-15.45333
 30
0.0
 10
-10.27809
 20
-15.45528
 30
0.0
 10
-10.27809
 20
-15.45528
 30
0.0
 10
-10.27809
 20
-15.45528
 30
0.0
 10
-10.27809
 20
-15.44185
 30
0.0
 10
-10.27809
 20
-15.44185
 30
0.0
 10
-10.27809
 20
-15.44185
 30
0.0
 10
-10.2746
 20
-15.44058
 30
0.0
 10
-10.2712
 20
-15.43961
 30
0.0
 10
-10.26785
 20
-15.43895
 30
0.0
 10
-10.26785
 20
-15.43895
 30
0.0
 10
-10.26452
 20
-15.43828
 30
0.0
 10
-10.26132
 20
-15.43795
 30
0.0
 10
-10.25827
 20
-15.43795
 30
0.0
 10
-10.25827
 20
-15.43795
 30
0.0
 10
-10.25055
 20
-15.43795
 30
0.0
 10
-10.24448
 20
-15.43975
 30
0.0
 10
-10.24008
 20
-15.44335
 30
0.0
 10
-10.24008
 20
-15.44335
 30
0.0
 10
-10.23567
 20
-15.44693
 30
0.0
 10
-10.23346
 20
-15.45185
 30
0.0
 10
-10.23346
 20
-15.45806
 30
0.0
 10
-10.23346
 20
-15.45806
 30
0.0
 10
-10.23346
 20
-15.46093
 30
0.0
 10
-10.23395
 20
-15.46362
 30
0.0
 10
-10.2349
 20
-15.46612
 30
0.0
 10
-10.2349
 20
-15.46612
 30
0.0
 10
-10.23587
 20
-15.46863
 30
0.0
 10
-10.23752
 20
-15.47142
 30
0.0
 10
-10.23987
 20
-15.47447
 30
0.0
 10
-10.23987
 20
-15.47447
 30
0.0
 10
-10.24158
 20
-15.47668
 30
0.0
 10
-10.24632
 20
-15.48167
 30
0.0
 10
-10.25407
 20
-15.48942
 30
0.0
 10
-10.25407
 20
-15.48942
 30
0.0
 10
-10.25827
 20
-15.4936
 30
0.0
 10
-10.2616
 20
-15.49697
 30
0.0
 10
-10.26408
 20
-15.49947
 30
0.0
  0
SPLINE
  5
95
330
1F
100
AcDbEntity
  8
Layer 1
 62
   250
100
AcDbSpline
210
0.0
220
0.0
230
1.0
 70
    11
 71
     3
 72
    36
 73
    32
 74
     0
 42
0.0000000001
 43
0.0000000001
 40
0.0
 40
0.0
 40
0.0
 40
0.0
 40
0.125
 40
0.125
 40
0.125
 40
0.125
 40
0.25
 40
0.25
 40
0.25
 40
0.25
 40
0.375
 40
0.375
 40
0.375
 40
0.375
 40
0.5
 40
0.5
 40
0.5
 40
0.5
 40
0.625
 40
0.625
 40
0.625
 40
0.625
 40
0.75
 40
0.75
 40
0.75
 40
0.75
 40
0.875
 40
0.875
 40
0.875
 40
0.875
 40
1.0
 40
1.0
 40
1.0
 40
1.0
 10
-10.20104
 20
-15.47578
 30
0.0
 10
-10.20104
 20
-15.47407
 30
0.0
 10
-10.20046
 20
-15.47262
 30
0.0
 10
-10.19927
 20
-15.47145
 30
0.0
 10
-10.19927
 20
-15.47145
 30
0.0
 10
-10.19811
 20
-15.47027
 30
0.0
 10
-10.19667
 20
-15.46968
 30
0.0
 10
-10.19497
 20
-15.46968
 30
0.0
 10
-10.19497
 20
-15.46968
 30
0.0
 10
-10.19326
 20
-15.46968
 30
0.0
 10
-10.19181
 20
-15.47027
 30
0.0
 10
-10.19064
 20
-15.47145
 30
0.0
 10
-10.19064
 20
-15.47145
 30
0.0
 10
-10.18946
 20
-15.47262
 30
0.0
 10
-10.18887
 20
-15.47407
 30
0.0
 10
-10.18887
 20
-15.47578
 30
0.0
 10
-10.18887
 20
-15.47578
 30
0.0
 10
-10.18887
 20
-15.47748
 30
0.0
 10
-10.18946
 20
-15.47892
 30
0.0
 10
-10.19064
 20
-15.48008
 30
0.0
 10
-10.19064
 20
-15.48008
 30
0.0
 10
-10.19181
 20
-15.48127
 30
0.0
 10
-10.19326
 20
-15.48185
 30
0.0
 10
-10.19497
 20
-15.48185
 30
0.0
 10
-10.19497
 20
-15.48185
 30
0.0
 10
-10.19667
 20
-15.48185
 30
0.0
 10
-10.19811
 20
-15.48127
 30
0.0
 10
-10.19927
 20
-15.48012
 30
0.0
 10
-10.19927
 20
-15.48012
 30
0.0
 10
-10.20046
 20
-15.47897
 30
0.0
 10
-10.20104
 20
-15.47752
 30
0.0
 10
-10.20104
 20
-15.47578
 30
0.0
  0
SPLINE
  5
96
330
1F
100
AcDbEntity
  8
Layer 1
 62
   250
100
AcDbSpline
210
0.0
220
0.0
230
1.0
 70
    11
 71
     3
 72
    36
 73
    32
 74
     0
 42
0.0000000001
 43
0.0000000001
 40
0.0
 40
0.0
 40
0.0
 40
0.0
 40
0.125
 40
0.125
 40
0.125
 40
0.125
 40
0.25
 40
0.25
 40
0.25
 40
0.25
 40
0.375
 40
0.375
 40
0.375
 40
0.375
 40
0.5
 40
0.5
 40
0.5
 40
0.5
 40
0.625
 40
0.625
 40
0.625
 40
0.625
 40
0.75
 40
0.75
 40
0.75
 40
0.75
 40
0.875
 40
0.875
 40
0.875
 40
0.875
 40
1.0
 40
1.0
 40
1.0
 40
1.0
 10
-10.19497
 20
-15.45015
 30
0.0
 10
-10.19831
 20
-15.45015
 30
0.0
 10
-10.20072
 20
-15.45218
 30
0.0
 10
-10.20226
 20
-15.45625
 30
0.0
 10
-10.20226
 20
-15.45625
 30
0.0
 10
-10.20379
 20
-15.46033
 30
0.0
 10
-10.20456
 20
-15.46683
 30
0.0
 10
-10.20456
 20
-15.47578
 30
0.0
 10
-10.20456
 20
-15.47578
 30
0.0
 10
-10.20456
 20
-15.48472
 30
0.0
 10
-10.20379
 20
-15.4912
 30
0.0
 10
-10.20226
 20
-15.49528
 30
0.0
 10
-10.20226
 20
-15.49528
 30
0.0
 10
-10.20072
 20
-15.49935
 30
0.0
 10
-10.19831
 20
-15.50139
 30
0.0
 10
-10.19497
 20
-15.50139
 30
0.0
 10
-10.19497
 20
-15.50139
 30
0.0
 10
-10.19162
 20
-15.50139
 30
0.0
 10
-10.18919
 20
-15.49935
 30
0.0
 10
-10.18766
 20
-15.49528
 30
0.0
 10
-10.18766
 20
-15.49528
 30
0.0
 10
-10.18612
 20
-15.4912
 30
0.0
 10
-10.18536
 20
-15.48472
 30
0.0
 10
-10.18536
 20
-15.47578
 30
0.0
 10
-10.18536
 20
-15.47578
 30
0.0
 10
-10.18536
 20
-15.46683
 30
0.0
 10
-10.18612
 20
-15.46033
 30
0.0
 10
-10.18766
 20
-15.45625
 30
0.0
 10
-10.18766
 20
-15.45625
 30
0.0
 10
-10.18919
 20
-15.45218
 30
0.0
 10
-10.19162
 20
-15.45015
 30
0.0
 10
-10.19497
 20
-15.45015
 30
0.0
  0
SPLINE
  5
97
330
1F
100
AcDbEntity
  8
Layer 1
 62
   250
100
AcDbSpline
210
0.0
220
0.0
230
1.0
 70
    11
 71
     3
 72
    36
 73
    32
 74
     0
 42
0.0000000001
 43
0.0000000001
 40
0.0
 40
0.0
 40
0.0
 40
0.0
 40
0.125
 40
0.125
 40
0.125
 40
0.125
 40
0.25
 40
0.25
 40
0.25
 40
0.25
 40
0.375
 40
0.375
 40
0.375
 40
0.375
 40
0.5
 40
0.5
 40
0.5
 40
0.5
 40
0.625
 40
0.625
 40
0.625
 40
0.625
 40
0.75
 40
0.75
 40
0.75
 40
0.75
 40
0.875
 40
0.875
 40
0.875
 40
0.875
 40
1.0
 40
1.0
 40
1.0
 40
1.0
 10
-10.21906
 20
-15.47578
 30
0.0
 10
-10.21906
 20
-15.46317
 30
0.0
 10
-10.21706
 20
-15.4537
 30
0.0
 10
-10.21306
 20
-15.4474
 30
0.0
 10
-10.21306
 20
-15.4474
 30
0.0
 10
-10.20904
 20
-15.4411
 30
0.0
 10
-10.20302
 20
-15.43795
 30
0.0
 10
-10.19497
 20
-15.43795
 30
0.0
 10
-10.19497
 20
-15.43795
 30
0.0
 10
-10.18691
 20
-15.43795
 30
0.0
 10
-10.18087
 20
-15.44108
 30
0.0
 10
-10.17686
 20
-15.44736
 30
0.0
 10
-10.17686
 20
-15.44736
 30
0.0
 10
-10.17285
 20
-15.45365
 30
0.0
 10
-10.17085
 20
-15.46313
 30
0.0
 10
-10.17085
 20
-15.47578
 30
0.0
 10
-10.17085
 20
-15.47578
 30
0.0
 10
-10.17085
 20
-15.48842
 30
0.0
 10
-10.17285
 20
-15.49789
 30
0.0
 10
-10.17686
 20
-15.50417
 30
0.0
 10
-10.17686
 20
-15.50417
 30
0.0
 10
-10.18087
 20
-15.51045
 30
0.0
 10
-10.18691
 20
-15.51359
 30
0.0
 10
-10.19497
 20
-15.51359
 30
0.0
 10
-10.19497
 20
-15.51359
 30
0.0
 10
-10.20302
 20
-15.51359
 30
0.0
 10
-10.20904
 20
-15.51044
 30
0.0
 10
-10.21306
 20
-15.50414
 30
0.0
 10
-10.21306
 20
-15.50414
 30
0.0
 10
-10.21706
 20
-15.49784
 30
0.0
 10
-10.21906
 20
-15.48838
 30
0.0
 10
-10.21906
 20
-15.47578
 30
0.0
  0
SPLINE
  5
98
330
1F
100
AcDbEntity
  8
Layer 1
 62
   250
100
AcDbSpline
210
0.0
220
0.0
230
1.0
 70
    11
 71
     3
 72
    92
 73
    88
 74
     0
 42
0.0000000001
 43
0.0000000001
 40
0.0
 40
0.0
 40
0.0
 40
0.0
 40
0.0454545454545455
 40
0.0454545454545455
 40
0.0454545454545455
 40
0.0454545454545455
 40
0.0909090909090909
 40
0.0909090909090909
 40
0.0909090909090909
 40
0.0909090909090909
 40
0.1363636363636364
 40
0.1363636363636364
 40
0.1363636363636364
 40
0.1363636363636364
 40
0.1818181818181818
 40
0.1818181818181818
 40
0.1818181818181818
 40
0.1818181818181818
 40
0.2272727272727273
 40
0.2272727272727273
 40
0.2272727272727273
 40
0.2272727272727273
 40
0.2727272727272728
 40
0.2727272727272728
 40
0.2727272727272728
 40
0.2727272727272728
 40
0.3181818181818182
 40
0.3181818181818182
 40
0.3181818181818182
 40
0.3181818181818182
 40
0.3636363636363637
 40
0.3636363636363637
 40
0.3636363636363637
 40
0.3636363636363637
 40
0.4090909090909092
 40
0.4090909090909092
 40
0.4090909090909092
 40
0.4090909090909092
 40
0.4545454545454546
 40
0.4545454545454546
 40
0.4545454545454546
 40
0.4545454545454546
 40
0.5000000000000001
 40
0.5000000000000001
 40
0.5000000000000001
 40
0.5000000000000001
 40
0.5454545454545455
 40
0.5454545454545455
 40
0.5454545454545455
 40
0.5454545454545455
 40
0.5909090909090909
 40
0.5909090909090909
 40
0.5909090909090909
 40
0.5909090909090909
 40
0.6363636363636364
 40
0.6363636363636364
 40
0.6363636363636364
 40
0.6363636363636364
 40
0.6818181818181818
 40
0.6818181818181818
 40
0.6818181818181818
 40
0.6818181818181818
 40
0.7272727272727272
 40
0.7272727272727272
 40
0.7272727272727272
 40
0.7272727272727272
 40
0.7727272727272726
 40
0.7727272727272726
 40
0.7727272727272726
 40
0.7727272727272726
 40
0.818181818181818
 40
0.818181818181818
 40
0.818181818181818
 40
0.818181818181818
 40
0.8636363636363634
 40
0.8636363636363634
 40
0.8636363636363634
 40
0.8636363636363634
 40
0.9090909090909088
 40
0.9090909090909088
 40
0.9090909090909088
 40
0.9090909090909088
 40
0.9545454545454543
 40
0.9545454545454543
 40
0.9545454545454543
 40
0.9545454545454543
 40
1.0
 40
1.0
 40
1.0
 40
1.0
 10
-10.15543
 20
-15.43926
 30
0.0
 10
-10.15543
 20
-15.43926
 30
0.0
 10
-10.11583
 20
-15.43926
 30
0.0
 10
-10.11583
 20
-15.43926
 30
0.0
 10
-10.11583
 20
-15.43926
 30
0.0
 10
-10.11583
 20
-15.43926
 30
0.0
 10
-10.11583
 20
-15.45196
 30
0.0
 10
-10.11583
 20
-15.45196
 30
0.0
 10
-10.11583
 20
-15.45196
 30
0.0
 10
-10.11583
 20
-15.45196
 30
0.0
 10
-10.14376
 20
-15.45196
 30
0.0
 10
-10.14376
 20
-15.45196
 30
0.0
 10
-10.14376
 20
-15.45196
 30
0.0
 10
-10.14376
 20
-15.45196
 30
0.0
 10
-10.14376
 20
-15.46548
 30
0.0
 10
-10.14376
 20
-15.46548
 30
0.0
 10
-10.14376
 20
-15.46548
 30
0.0
 10
-10.1426
 20
-15.46503
 30
0.0
 10
-10.14133
 20
-15.4647
 30
0.0
 10
-10.14
 20
-15.46448
 30
0.0
 10
-10.14
 20
-15.46448
 30
0.0
 10
-10.13866
 20
-15.46427
 30
0.0
 10
-10.13725
 20
-15.46417
 30
0.0
 10
-10.13575
 20
-15.46417
 30
0.0
 10
-10.13575
 20
-15.46417
 30
0.0
 10
-10.12853
 20
-15.46417
 30
0.0
 10
-10.12266
 20
-15.46645
 30
0.0
 10
-10.11816
 20
-15.471
 30
0.0
 10
-10.11816
 20
-15.471
 30
0.0
 10
-10.11368
 20
-15.47557
 30
0.0
 10
-10.11143
 20
-15.48148
 30
0.0
 10
-10.11143
 20
-15.48878
 30
0.0
 10
-10.11143
 20
-15.48878
 30
0.0
 10
-10.11143
 20
-15.49644
 30
0.0
 10
-10.11386
 20
-15.50247
 30
0.0
 10
-10.11873
 20
-15.50692
 30
0.0
 10
-10.11873
 20
-15.50692
 30
0.0
 10
-10.1236
 20
-15.51137
 30
0.0
 10
-10.13023
 20
-15.51359
 30
0.0
 10
-10.13863
 20
-15.51359
 30
0.0
 10
-10.13863
 20
-15.51359
 30
0.0
 10
-10.14175
 20
-15.51359
 30
0.0
 10
-10.14491
 20
-15.51332
 30
0.0
 10
-10.1481
 20
-15.5128
 30
0.0
 10
-10.1481
 20
-15.5128
 30
0.0
 10
-10.15128
 20
-15.51229
 30
0.0
 10
-10.15455
 20
-15.5115
 30
0.0
 10
-10.15787
 20
-15.51045
 30
0.0
 10
-10.15787
 20
-15.51045
 30
0.0
 10
-10.15787
 20
-15.51045
 30
0.0
 10
-10.15787
 20
-15.49747
 30
0.0
 10
-10.15787
 20
-15.49747
 30
0.0
 10
-10.15787
 20
-15.49747
 30
0.0
 10
-10.15517
 20
-15.4988
 30
0.0
 10
-10.15238
 20
-15.4998
 30
0.0
 10
-10.14955
 20
-15.50047
 30
0.0
 10
-10.14955
 20
-15.50047
 30
0.0
 10
-10.1467
 20
-15.50114
 30
0.0
 10
-10.14383
 20
-15.50147
 30
0.0
 10
-10.14096
 20
-15.50147
 30
0.0
 10
-10.14096
 20
-15.50147
 30
0.0
 10
-10.1359
 20
-15.50147
 30
0.0
 10
-10.13203
 20
-15.50039
 30
0.0
 10
-10.1294
 20
-15.49822
 30
0.0
 10
-10.1294
 20
-15.49822
 30
0.0
 10
-10.12676
 20
-15.49605
 30
0.0
 10
-10.12545
 20
-15.49292
 30
0.0
 10
-10.12545
 20
-15.48878
 30
0.0
 10
-10.12545
 20
-15.48878
 30
0.0
 10
-10.12545
 20
-15.48497
 30
0.0
 10
-10.12676
 20
-15.48192
 30
0.0
 10
-10.12938
 20
-15.47962
 30
0.0
 10
-10.12938
 20
-15.47962
 30
0.0
 10
-10.132
 20
-15.47733
 30
0.0
 10
-10.1355
 20
-15.47618
 30
0.0
 10
-10.13985
 20
-15.47618
 30
0.0
 10
-10.13985
 20
-15.47618
 30
0.0
 10
-10.14243
 20
-15.47618
 30
0.0
 10
-10.145
 20
-15.4765
 30
0.0
 10
-10.1476
 20
-15.47713
 30
0.0
 10
-10.1476
 20
-15.47713
 30
0.0
 10
-10.15018
 20
-15.47777
 30
0.0
 10
-10.1528
 20
-15.47873
 30
0.0
 10
-10.15543
 20
-15.48
 30
0.0
 10
-10.15543
 20
-15.48
 30
0.0
 10
-10.15543
 20
-15.48
 30
0.0
 10
-10.15543
 20
-15.43926
 30
0.0
 10
-10.15543
 20
-15.43926
 30
0.0
  0
ENDSEC
  0
SECTION
  2
OBJECTS
  0
DICTIONARY
  5
C
330
0
100
AcDbDictionary
281
     1
  3
ACAD_GROUP
350
D
  3
ACAD_LAYOUT
350
1A
  3
ACAD_MLEADERSTYLE
350
9A
  3
ACAD_MLINESTYLE
350
17
  3
ACAD_PLOTSETTINGS
350
19
  3
ACAD_PLOTSTYLENAME
350
E
  3
ACAD_SCALELIST
350
3B
  3
ACAD_TABLESTYLE
350
99
  3
ACAD_VISUALSTYLE
350
2A
  0
DICTIONARY
  5
D
102
{ACAD_REACTORS
330
C
102
}
330
C
100
AcDbDictionary
281
     1
  0
DICTIONARY
  5
1A
102
{ACAD_REACTORS
330
C
102
}
330
C
100
AcDbDictionary
281
     1
  3
Layout1
350
1E
  3
Layout2
350
26
  3
Model
350
22
  0
DICTIONARY
  5
9A
102
{ACAD_REACTORS
330
C
102
}
330
C
100
AcDbDictionary
281
     1
  0
DICTIONARY
  5
17
102
{ACAD_REACTORS
330
C
102
}
330
C
100
AcDbDictionary
281
     1
  3
Standard
350
18
  0
DICTIONARY
  5
19
102
{ACAD_REACTORS
330
C
102
}
330
C
100
AcDbDictionary
281
     1
  0
ACDBDICTIONARYWDFLT
  5
E
102
{ACAD_REACTORS
330
C
102
}
330
C
100
AcDbDictionary
281
     1
  3
Normal
350
F
100
AcDbDictionaryWithDefault
340
F
  0
DICTIONARY
  5
3B
102
{ACAD_REACTORS
330
C
102
}
330
C
100
AcDbDictionary
281
     1
  3
A0
350
3C
  3
A1
350
3D
  3
A2
350
3E
  3
A3
350
3F
  3
A4
350
40
  3
A5
350
41
  3
A6
350
42
  3
A7
350
43
  3
A8
350
44
  3
A9
350
45
  3
B0
350
46
  3
B1
350
47
  3
B2
350
48
  3
B3
350
49
  3
B4
350
4A
  3
B5
350
4B
  3
B6
350
4C
  3
B7
350
4D
  3
B8
350
4E
  3
B9
350
4F
  3
C0
350
50
  3
C1
350
51
  3
C2
350
52
  3
C3
350
53
  3
C4
350
54
  3
C5
350
55
  3
C6
350
56
  3
C7
350
57
  3
C8
350
58
  3
C9
350
59
  3
D0
350
5A
  3
D1
350
5B
  3
D2
350
5C
  0
DICTIONARY
  5
99
102
{ACAD_REACTORS
330
C
102
}
330
C
100
AcDbDictionary
281
     1
  0
DICTIONARY
  5
2A
102
{ACAD_REACTORS
330
C
102
}
330
C
100
AcDbDictionary
281
     1
  3
2dWireframe
350
2F
  3
3D Hidden
350
31
  3
3dWireframe
350
30
  3
Basic
350
32
  3
Brighten
350
36
  3
ColorChange
350
3A
  3
Conceptual
350
34
  3
Dim
350
35
  3
Facepattern
350
39
  3
Flat
350
2B
  3
FlatWithEdges
350
2C
  3
Gouraud
350
2D
  3
GouraudWithEdges
350
2E
  3
Linepattern
350
38
  3
Realistic
350
33
  3
Thicken
350
37
  0
LAYOUT
  5
1E
102
{ACAD_REACTORS
330
1A
102
}
330
1A
100
AcDbPlotSettings
  1

  2
none_device
  4

  6

 40
0.0
 41
0.0
 42
0.0
 43
0.0
 44
0.0
 45
0.0
 46
0.0
 47
0.0
 48
0.0
 49
0.0
140
0.0
141
0.0
142
1.0
143
1.0
 70
   688
 72
     0
 73
     0
 74
     5
  7

 75
    16
 76
     0
 77
     2
 78
   300
147
1.0
148
0.0
149
0.0
100
AcDbLayout
  1
Layout1
 70
     1
 71
     1
 10
0.0
 20
0.0
 11
12.0
 21
9.0
 12
0.0
 22
0.0
 32
0.0
 14
1.000000000000000E+20
 24
1.000000000000000E+20
 34
1.000000000000000E+20
 15
-1.000000000000000E+20
 25
-1.000000000000000E+20
 35
-1.000000000000000E+20
146
0.0
 13
0.0
 23
0.0
 33
0.0
 16
1.0
 26
0.0
 36
0.0
 17
0.0
 27
1.0
 37
0.0
 76
     0
330
1B
  0
LAYOUT
  5
26
102
{ACAD_REACTORS
330
1A
102
}
330
1A
100
AcDbPlotSettings
  1

  2
none_device
  4

  6

 40
0.0
 41
0.0
 42
0.0
 43
0.0
 44
0.0
 45
0.0
 46
0.0
 47
0.0
 48
0.0
 49
0.0
140
0.0
141
0.0
142
1.0
143
1.0
 70
   688
 72
     0
 73
     0
 74
     5
  7

 75
    16
 76
     0
 77
     2
 78
   300
147
1.0
148
0.0
149
0.0
100
AcDbLayout
  1
Layout2
 70
     1
 71
     2
 10
0.0
 20
0.0
 11
0.0
 21
0.0
 12
0.0
 22
0.0
 32
0.0
 14
0.0
 24
0.0
 34
0.0
 15
0.0
 25
0.0
 35
0.0
146
0.0
 13
0.0
 23
0.0
 33
0.0
 16
1.0
 26
0.0
 36
0.0
 17
0.0
 27
1.0
 37
0.0
 76
     0
330
23
  0
LAYOUT
  5
22
102
{ACAD_REACTORS
330
1A
102
}
330
1A
100
AcDbPlotSettings
  1

  2
none_device
  4

  6

 40
0.0
 41
0.0
 42
0.0
 43
0.0
 44
0.0
 45
0.0
 46
0.0
 47
0.0
 48
0.0
 49
0.0
140
0.0
141
0.0
142
1.0
143
1.0
 70
  1712
 72
     0
 73
     0
 74
     0
  7

 75
     0
 76
     0
 77
     2
 78
   300
147
1.0
148
0.0
149
0.0
100
AcDbLayout
  1
Model
 70
     1
 71
     0
 10
0.0
 20
0.0
 11
12.0
 21
9.0
 12
0.0
 22
0.0
 32
0.0
 14
-11.7
 24
-16.05
 34
0.0
 15
-9.3
 25
-13.65
 35
0.0
146
0.0
 13
0.0
 23
0.0
 33
0.0
 16
1.0
 26
0.0
 36
0.0
 17
0.0
 27
1.0
 37
0.0
 76
     0
330
1F
331
29
  0
MLINESTYLE
  5
18
102
{ACAD_REACTORS
330
17
102
}
330
17
100
AcDbMlineStyle
  2
Standard
 70
     0
  3

 62
   256
 51
90.0
 52
90.0
 71
     2
 49
0.5
 62
   256
  6
BYLAYER
 49
-0.5
 62
   256
  6
BYLAYER
  0
ACDBPLACEHOLDER
  5
F
102
{ACAD_REACTORS
330
E
102
}
330
E
  0
SCALE
  5
3C
102
{ACAD_REACTORS
330
3B
102
}
330
3B
100
AcDbScale
 70
     0
300
1:1
140
1.0
141
1.0
290
     1
  0
SCALE
  5
3D
102
{ACAD_REACTORS
330
3B
102
}
330
3B
100
AcDbScale
 70
     0
300
1:2
140
1.0
141
2.0
290
     0
  0
SCALE
  5
3E
102
{ACAD_REACTORS
330
3B
102
}
330
3B
100
AcDbScale
 70
     0
300
1:4
140
1.0
141
4.0
290
     0
  0
SCALE
  5
3F
102
{ACAD_REACTORS
330
3B
102
}
330
3B
100
AcDbScale
 70
     0
300
1:5
140
1.0
141
5.0
290
     0
  0
SCALE
  5
40
102
{ACAD_REACTORS
330
3B
102
}
330
3B
100
AcDbScale
 70
     0
300
1:8
140
1.0
141
8.0
290
     0
  0
SCALE
  5
41
102
{ACAD_REACTORS
330
3B
102
}
330
3B
100
AcDbScale
 70
     0
300
1:10
140
1.0
141
10.0
290
     0
  0
SCALE
  5
42
102
{ACAD_REACTORS
330
3B
102
}
330
3B
100
AcDbScale
 70
     0
300
1:16
140
1.0
141
16.0
290
     0
  0
SCALE
  5
43
102
{ACAD_REACTORS
330
3B
102
}
330
3B
100
AcDbScale
 70
     0
300
1:20
140
1.0
141
20.0
290
     0
  0
SCALE
  5
44
102
{ACAD_REACTORS
330
3B
102
}
330
3B
100
AcDbScale
 70
     0
300
1:30
140
1.0
141
30.0
290
     0
  0
SCALE
  5
45
102
{ACAD_REACTORS
330
3B
102
}
330
3B
100
AcDbScale
 70
     0
300
1:40
140
1.0
141
40.0
290
     0
  0
SCALE
  5
46
102
{ACAD_REACTORS
330
3B
102
}
330
3B
100
AcDbScale
 70
     0
300
1:50
140
1.0
141
50.0
290
     0
  0
SCALE
  5
47
102
{ACAD_REACTORS
330
3B
102
}
330
3B
100
AcDbScale
 70
     0
300
1:100
140
1.0
141
100.0
290
     0
  0
SCALE
  5
48
102
{ACAD_REACTORS
330
3B
102
}
330
3B
100
AcDbScale
 70
     0
300
2:1
140
2.0
141
1.0
290
     0
  0
SCALE
  5
49
102
{ACAD_REACTORS
330
3B
102
}
330
3B
100
AcDbScale
 70
     0
300
4:1
140
4.0
141
1.0
290
     0
  0
SCALE
  5
4A
102
{ACAD_REACTORS
330
3B
102
}
330
3B
100
AcDbScale
 70
     0
300
8:1
140
8.0
141
1.0
290
     0
  0
SCALE
  5
4B
102
{ACAD_REACTORS
330
3B
102
}
330
3B
100
AcDbScale
 70
     0
300
10:1
140
10.0
141
1.0
290
     0
  0
SCALE
  5
4C
102
{ACAD_REACTORS
330
3B
102
}
330
3B
100
AcDbScale
 70
     0
300
100:1
140
100.0
141
1.0
290
     0
  0
SCALE
  5
4D
102
{ACAD_REACTORS
330
3B
102
}
330
3B
100
AcDbScale
 70
     0
300
1/128" = 1'-0"
140
0.0078125
141
12.0
290
     0
  0
SCALE
  5
4E
102
{ACAD_REACTORS
330
3B
102
}
330
3B
100
AcDbScale
 70
     0
300
1/64" = 1'-0"
140
0.015625
141
12.0
290
     0
  0
SCALE
  5
4F
102
{ACAD_REACTORS
330
3B
102
}
330
3B
100
AcDbScale
 70
     0
300
1/32" = 1'-0"
140
0.03125
141
12.0
290
     0
  0
SCALE
  5
50
102
{ACAD_REACTORS
330
3B
102
}
330
3B
100
AcDbScale
 70
     0
300
1/16" = 1'-0"
140
0.0625
141
12.0
290
     0
  0
SCALE
  5
51
102
{ACAD_REACTORS
330
3B
102
}
330
3B
100
AcDbScale
 70
     0
300
3/32" = 1'-0"
140
0.09375
141
12.0
290
     0
  0
SCALE
  5
52
102
{ACAD_REACTORS
330
3B
102
}
330
3B
100
AcDbScale
 70
     0
300
1/8" = 1'-0"
140
0.125
141
12.0
290
     0
  0
SCALE
  5
53
102
{ACAD_REACTORS
330
3B
102
}
330
3B
100
AcDbScale
 70
     0
300
3/16" = 1'-0"
140
0.1875
141
12.0
290
     0
  0
SCALE
  5
54
102
{ACAD_REACTORS
330
3B
102
}
330
3B
100
AcDbScale
 70
     0
300
1/4" = 1'-0"
140
0.25
141
12.0
290
     0
  0
SCALE
  5
55
102
{ACAD_REACTORS
330
3B
102
}
330
3B
100
AcDbScale
 70
     0
300
3/8" = 1'-0"
140
0.375
141
12.0
290
     0
  0
SCALE
  5
56
102
{ACAD_REACTORS
330
3B
102
}
330
3B
100
AcDbScale
 70
     0
300
1/2" = 1'-0"
140
0.5
141
12.0
290
     0
  0
SCALE
  5
57
102
{ACAD_REACTORS
330
3B
102
}
330
3B
100
AcDbScale
 70
     0
300
3/4" = 1'-0"
140
0.75
141
12.0
290
     0
  0
SCALE
  5
58
102
{ACAD_REACTORS
330
3B
102
}
330
3B
100
AcDbScale
 70
     0
300
1" = 1'-0"
140
1.0
141
12.0
290
     0
  0
SCALE
  5
59
102
{ACAD_REACTORS
330
3B
102
}
330
3B
100
AcDbScale
 70
     0
300
1-1/2" = 1'-0"
140
1.5
141
12.0
290
     0
  0
SCALE
  5
5A
102
{ACAD_REACTORS
330
3B
102
}
330
3B
100
AcDbScale
 70
     0
300
3" = 1'-0"
140
3.0
141
12.0
290
     0
  0
SCALE
  5
5B
102
{ACAD_REACTORS
330
3B
102
}
330
3B
100
AcDbScale
 70
     0
300
6" = 1'-0"
140
6.0
141
12.0
290
     0
  0
SCALE
  5
5C
102
{ACAD_REACTORS
330
3B
102
}
330
3B
100
AcDbScale
 70
     0
300
1'-0" = 1'-0"
140
12.0
141
12.0
290
     0
  0
VISUALSTYLE
  5
2F
102
{ACAD_REACTORS
330
2A
102
}
330
2A
100
AcDbVisualStyle
  2
2dWireframe
 70
     4
 71
     0
 72
     2
 73
     0
 90
        0
 40
-0.6
 41
-30.0
 62
     5
 63
     7
421
 16777215
 74
     1
 91
        4
 64
     7
 65
   257
 75
     1
175
     1
 42
1.0
 92
        0
 66
   257
 43
1.0
 76
     1
 77
     6
 78
     2
 67
     7
 79
     5
170
     0
171
     0
290
     0
174
     0
 93
        1
 44
0.0
173
     0
291
     0
 45
0.0
  0
VISUALSTYLE
  5
31
102
{ACAD_REACTORS
330
2A
102
}
330
2A
100
AcDbVisualStyle
  2
3D Hidden
 70
     6
 71
     1
 72
     2
 73
     2
 90
        0
 40
-0.6
 41
-30.0
 62
     5
 63
     7
421
 16777215
 74
     2
 91
        2
 64
     7
 65
   257
 75
     2
175
     1
 42
40.0
 92
        0
 66
   257
 43
1.0
 76
     1
 77
     6
 78
     2
 67
     7
 79
     3
170
     0
171
     0
290
     0
174
     0
 93
        1
 44
0.0
173
     0
291
     0
 45
0.0
  0
VISUALSTYLE
  5
30
102
{ACAD_REACTORS
330
2A
102
}
330
2A
100
AcDbVisualStyle
  2
3dWireframe
 70
     5
 71
     0
 72
     2
 73
     0
 90
        0
 40
-0.6
 41
-30.0
 62
     5
 63
     7
421
 16777215
 74
     1
 91
        4
 64
     7
 65
   257
 75
     1
175
     1
 42
1.0
 92
        0
 66
   257
 43
1.0
 76
     1
 77
     6
 78
     2
 67
     7
 79
     5
170
     0
171
     0
290
     0
174
     0
 93
        1
 44
0.0
173
     0
291
     0
 45
0.0
  0
VISUALSTYLE
  5
32
102
{ACAD_REACTORS
330
2A
102
}
330
2A
100
AcDbVisualStyle
  2
Basic
 70
     7
 71
     1
 72
     0
 73
     1
 90
        0
 40
-0.6
 41
-30.0
 62
     5
 63
     7
421
 16777215
 74
     0
 91
        4
 64
     7
 65
   257
 75
     1
175
     1
 42
1.0
 92
        8
 66
     7
 43
1.0
 76
     1
 77
     6
 78
     2
 67
     7
 79
     5
170
     0
171
     0
290
     0
174
     0
 93
        1
 44
0.0
173
     0
291
     1
 45
0.0
  0
VISUALSTYLE
  5
36
102
{ACAD_REACTORS
330
2A
102
}
330
2A
100
AcDbVisualStyle
  2
Brighten
 70
    12
 71
     2
 72
     2
 73
     0
 90
        0
 40
-0.6
 41
-30.0
 62
     5
 63
     7
421
 16777215
 74
     1
 91
        4
 64
     7
 65
   257
 75
     1
175
     1
 42
1.0
 92
        8
 66
     7
 43
1.0
 76
     1
 77
     6
 78
     2
 67
     7
 79
     5
170
     0
171
     0
290
     0
174
     0
 93
        1
 44
50.0
173
     0
291
     1
 45
0.0
  0
VISUALSTYLE
  5
3A
102
{ACAD_REACTORS
330
2A
102
}
330
2A
100
AcDbVisualStyle
  2
ColorChange
 70
    16
 71
     2
 72
     2
 73
     3
 90
        0
 40
-0.6
 41
-30.0
 62
     5
 63
     8
421
  8421504
 74
     1
 91
        4
 64
     7
 65
   257
 75
     1
175
     1
 42
1.0
 92
        8
 66
     8
424
  8421504
 43
1.0
 76
     1
 77
     6
 78
     2
 67
     7
 79
     5
170
     0
171
     0
290
     0
174
     0
 93
        1
 44
0.0
173
     0
291
     1
 45
0.0
  0
VISUALSTYLE
  5
34
102
{ACAD_REACTORS
330
2A
102
}
330
2A
100
AcDbVisualStyle
  2
Conceptual
 70
     9
 71
     3
 72
     2
 73
     0
 90
        0
 40
-0.6
 41
-30.0
 62
     5
 63
     7
421
 16777215
 74
     2
 91
        2
 64
     7
 65
   257
 75
     1
175
     1
 42
40.0
 92
        8
 66
     7
 43
1.0
 76
     1
 77
     6
 78
     2
 67
     7
 79
     3
170
     0
171
     0
290
     0
174
     0
 93
        1
 44
0.0
173
     0
291
     0
 45
0.0
  0
VISUALSTYLE
  5
35
102
{ACAD_REACTORS
330
2A
102
}
330
2A
100
AcDbVisualStyle
  2
Dim
 70
    11
 71
     2
 72
     2
 73
     0
 90
        0
 40
-0.6
 41
-30.0
 62
     5
 63
     7
421
 16777215
 74
     1
 91
        4
 64
     7
 65
   257
 75
     1
175
     1
 42
1.0
 92
        8
 66
     7
 43
1.0
 76
     1
 77
     6
 78
     2
 67
     7
 79
     5
170
     0
171
     0
290
     0
174
     0
 93
        1
 44
-50.0
173
     0
291
     1
 45
0.0
  0
VISUALSTYLE
  5
39
102
{ACAD_REACTORS
330
2A
102
}
330
2A
100
AcDbVisualStyle
  2
Facepattern
 70
    15
 71
     2
 72
     2
 73
     0
 90
        0
 40
-0.6
 41
-30.0
 62
     5
 63
     7
421
 16777215
 74
     1
 91
        4
 64
     7
 65
   257
 75
     1
175
     1
 42
1.0
 92
        8
 66
     7
 43
1.0
 76
     1
 77
     6
 78
     2
 67
     7
 79
     5
170
     0
171
     0
290
     0
174
     0
 93
        1
 44
0.0
173
     0
291
     1
 45
0.0
  0
VISUALSTYLE
  5
2B
102
{ACAD_REACTORS
330
2A
102
}
330
2A
100
AcDbVisualStyle
  2
Flat
 70
     0
 71
     2
 72
     1
 73
     1
 90
        2
 40
-0.6
 41
30.0
 62
     5
 63
     7
421
 16777215
 74
     0
 91
        4
 64
     7
 65
   257
 75
     1
175
     1
 42
1.0
 92
        8
 66
     7
 43
1.0
 76
     1
 77
     6
 78
     2
 67
     7
 79
     5
170
     0
171
     0
290
     0
174
     0
 93
       13
 44
0.0
173
     0
291
     1
 45
0.0
  0
VISUALSTYLE
  5
2C
102
{ACAD_REACTORS
330
2A
102
}
330
2A
100
AcDbVisualStyle
  2
FlatWithEdges
 70
     1
 71
     2
 72
     1
 73
     1
 90
        2
 40
-0.6
 41
30.0
 62
     5
 63
     7
421
 16777215
 74
     1
 91
        4
 64
     7
 65
   257
 75
     1
175
     1
 42
1.0
 92
        0
 66
   257
 43
1.0
 76
     1
 77
     6
 78
     2
 67
     7
 79
     5
170
     0
171
     0
290
     0
174
     0
 93
       13
 44
0.0
173
     0
291
     1
 45
0.0
  0
VISUALSTYLE
  5
2D
102
{ACAD_REACTORS
330
2A
102
}
330
2A
100
AcDbVisualStyle
  2
Gouraud
 70
     2
 71
     2
 72
     2
 73
     1
 90
        2
 40
-0.6
 41
30.0
 62
     5
 63
     7
421
 16777215
 74
     0
 91
        4
 64
     7
 65
   257
 75
     1
175
     1
 42
1.0
 92
        0
 66
     7
 43
1.0
 76
     1
 77
     6
 78
     2
 67
     7
 79
     5
170
     0
171
     0
290
     0
174
     0
 93
       13
 44
0.0
173
     0
291
     1
 45
0.0
  0
VISUALSTYLE
  5
2E
102
{ACAD_REACTORS
330
2A
102
}
330
2A
100
AcDbVisualStyle
  2
GouraudWithEdges
 70
     3
 71
     2
 72
     2
 73
     1
 90
        2
 40
-0.6
 41
30.0
 62
     5
 63
     7
421
 16777215
 74
     1
 91
        4
 64
     7
 65
   257
 75
     1
175
     1
 42
1.0
 92
        0
 66
   257
 43
1.0
 76
     1
 77
     6
 78
     2
 67
     7
 79
     5
170
     0
171
     0
290
     0
174
     0
 93
       13
 44
0.0
173
     0
291
     1
 45
0.0
  0
VISUALSTYLE
  5
38
102
{ACAD_REACTORS
330
2A
102
}
330
2A
100
AcDbVisualStyle
  2
Linepattern
 70
    14
 71
     2
 72
     2
 73
     0
 90
        0
 40
-0.6
 41
-30.0
 62
     5
 63
     7
421
 16777215
 74
     1
 91
        4
 64
     7
 65
   257
 75
     7
175
     7
 42
1.0
 92
        8
 66
     7
 43
1.0
 76
     1
 77
     6
 78
     2
 67
     7
 79
     5
170
     0
171
     0
290
     0
174
     0
 93
        1
 44
0.0
173
     0
291
     1
 45
0.0
  0
VISUALSTYLE
  5
33
102
{ACAD_REACTORS
330
2A
102
}
330
2A
100
AcDbVisualStyle
  2
Realistic
 70
     8
 71
     2
 72
     2
 73
     0
 90
        0
 40
-0.6
 41
-30.0
 62
     5
 63
     7
421
 16777215
 74
     1
 91
        0
 64
     7
 65
   257
 75
     1
175
     1
 42
1.0
 92
        8
 66
     8
424
  7895160
 43
1.0
 76
     1
 77
     6
 78
     2
 67
     7
 79
     5
170
     0
171
     0
290
     0
174
     0
 93
       13
 44
0.0
173
     0
291
     0
 45
0.0
  0
VISUALSTYLE
  5
37
102
{ACAD_REACTORS
330
2A
102
}
330
2A
100
AcDbVisualStyle
  2
Thicken
 70
    13
 71
     2
 72
     2
 73
     0
 90
        0
 40
-0.6
 41
-30.0
 62
     5
 63
     7
421
 16777215
 74
     1
 91
        4
 64
     7
 65
   257
 75
     1
175
     1
 42
1.0
 92
       12
 66
     7
 43
1.0
 76
     1
 77
     6
 78
     2
 67
     7
 79
     5
170
     0
171
     0
290
     0
174
     0
 93
        1
 44
0.0
173
     0
291
     1
 45
0.0
  0
ENDSEC
  0
EOF
