  0
SECTION
  2
HEADER
  9
$ACADVER
  1
AC1021
  9
$ACADMAINTVER
 70
    25
  9
$DWGCODEPAGE
  3
ANSI_1252
  9
$INSBASE
 10
0.0
 20
0.0
 30
0.0
  9
$EXTMIN
 10
-10.975
 20
-15.39604
 30
0.0
  9
$EXTMAX
 10
-10.025
 20
-14.24713
 30
0.0
  9
$LIMMIN
 10
0.0
 20
0.0
  9
$LIMMAX
 10
12.0
 20
9.0
  9
$ORTHOMODE
 70
     0
  9
$REGENMODE
 70
     1
  9
$FILLMODE
 70
     1
  9
$QTEXTMODE
 70
     0
  9
$MIRRTEXT
 70
     1
  9
$LTSCALE
 40
1.0
  9
$ATTMODE
 70
     1
  9
$TEXTSIZE
 40
0.2
  9
$TRACEWID
 40
0.05
  9
$TEXTSTYLE
  7
Standard
  9
$CLAYER
  8
0
  9
$CELTYPE
  6
ByLayer
  9
$CECOLOR
 62
   256
  9
$CELTSCALE
 40
1.0
  9
$DISPSILH
 70
     0
  9
$DIMSCALE
 40
1.0
  9
$DIMASZ
 40
0.18
  9
$DIMEXO
 40
0.0625
  9
$DIMDLI
 40
0.38
  9
$DIMRND
 40
0.0
  9
$DIMDLE
 40
0.0
  9
$DIMEXE
 40
0.18
  9
$DIMTP
 40
0.0
  9
$DIMTM
 40
0.0
  9
$DIMTXT
 40
0.18
  9
$DIMCEN
 40
0.09
  9
$DIMTSZ
 40
0.0
  9
$DIMTOL
 70
     0
  9
$DIMLIM
 70
     0
  9
$DIMTIH
 70
     1
  9
$DIMTOH
 70
     1
  9
$DIMSE1
 70
     0
  9
$DIMSE2
 70
     0
  9
$DIMTAD
 70
     0
  9
$DIMZIN
 70
     0
  9
$DIMBLK
  1

  9
$DIMASO
 70
     1
  9
$DIMSHO
 70
     1
  9
$DIMPOST
  1

  9
$DIMAPOST
  1

  9
$DIMALT
 70
     0
  9
$DIMALTD
 70
     2
  9
$DIMALTF
 40
25.4
  9
$DIMLFAC
 40
1.0
  9
$DIMTOFL
 70
     0
  9
$DIMTVP
 40
0.0
  9
$DIMTIX
 70
     0
  9
$DIMSOXD
 70
     0
  9
$DIMSAH
 70
     0
  9
$DIMBLK1
  1

  9
$DIMBLK2
  1

  9
$DIMSTYLE
  2
Standard
  9
$DIMCLRD
 70
     0
  9
$DIMCLRE
 70
     0
  9
$DIMCLRT
 70
     0
  9
$DIMTFAC
 40
1.0
  9
$DIMGAP
 40
0.09
  9
$DIMJUST
 70
     0
  9
$DIMSD1
 70
     0
  9
$DIMSD2
 70
     0
  9
$DIMTOLJ
 70
     1
  9
$DIMTZIN
 70
     0
  9
$DIMALTZ
 70
     0
  9
$DIMALTTZ
 70
     0
  9
$DIMUPT
 70
     0
  9
$DIMDEC
 70
     4
  9
$DIMTDEC
 70
     4
  9
$DIMALTU
 70
     2
  9
$DIMALTTD
 70
     2
  9
$DIMTXSTY
  7
Standard
  9
$DIMAUNIT
 70
     0
  9
$DIMADEC
 70
     0
  9
$DIMALTRND
 40
0.0
  9
$DIMAZIN
 70
     0
  9
$DIMDSEP
 70
    46
  9
$DIMATFIT
 70
     3
  9
$DIMFRAC
 70
     0
  9
$DIMLDRBLK
  1

  9
$DIMLUNIT
 70
     2
  9
$DIMLWD
 70
    -2
  9
$DIMLWE
 70
    -2
  9
$DIMTMOVE
 70
     0
  9
$DIMFXL
 40
1.0
  9
$DIMFXLON
 70
     0
  9
$DIMJOGANG
 40
0.7853981633974483
  9
$DIMTFILL
 70
     0
  9
$DIMTFILLCLR
 70
     0
  9
$DIMARCSYM
 70
     0
  9
$DIMLTYPE
  6

  9
$DIMLTEX1
  6

  9
$DIMLTEX2
  6

  9
$LUNITS
 70
     2
  9
$LUPREC
 70
     4
  9
$SKETCHINC
 40
0.1
  9
$FILLETRAD
 40
0.5
  9
$AUNITS
 70
     0
  9
$AUPREC
 70
     0
  9
$MENU
  1
.
  9
$ELEVATION
 40
0.0
  9
$PELEVATION
 40
0.0
  9
$THICKNESS
 40
0.0
  9
$LIMCHECK
 70
     0
  9
$CHAMFERA
 40
0.5
  9
$CHAMFERB
 40
0.5
  9
$CHAMFERC
 40
1.0
  9
$CHAMFERD
 40
0.0
  9
$SKPOLY
 70
     0
  9
$TDCREATE
 40
2458454.482996273
  9
$TDUCREATE
 40
2458454.482996273
  9
$TDUPDATE
 40
2458454.482996284
  9
$TDUUPDATE
 40
2458454.482996284
  9
$TDINDWG
 40
0.0000000116
  9
$TDUSRTIMER
 40
0.0000000116
  9
$USRTIMER
 70
     1
  9
$ANGBASE
 50
0.0
  9
$ANGDIR
 70
     0
  9
$PDMODE
 70
     0
  9
$PDSIZE
 40
0.0
  9
$PLINEWID
 40
0.0
  9
$SPLFRAME
 70
     0
  9
$SPLINETYPE
 70
     6
  9
$SPLINESEGS
 70
     8
  9
$HANDSEED
  5
88
  9
$SURFTAB1
 70
     6
  9
$SURFTAB2
 70
     6
  9
$SURFTYPE
 70
     6
  9
$SURFU
 70
     6
  9
$SURFV
 70
     6
  9
$UCSBASE
  2

  9
$UCSNAME
  2

  9
$UCSORG
 10
0.0
 20
0.0
 30
0.0
  9
$UCSXDIR
 10
1.0
 20
0.0
 30
0.0
  9
$UCSYDIR
 10
0.0
 20
1.0
 30
0.0
  9
$UCSORTHOREF
  2

  9
$UCSORTHOVIEW
 70
     0
  9
$UCSORGTOP
 10
0.0
 20
0.0
 30
0.0
  9
$UCSORGBOTTOM
 10
0.0
 20
0.0
 30
0.0
  9
$UCSORGLEFT
 10
0.0
 20
0.0
 30
0.0
  9
$UCSORGRIGHT
 10
0.0
 20
0.0
 30
0.0
  9
$UCSORGFRONT
 10
0.0
 20
0.0
 30
0.0
  9
$UCSORGBACK
 10
0.0
 20
0.0
 30
0.0
  9
$PUCSBASE
  2

  9
$PUCSNAME
  2

  9
$PUCSORG
 10
0.0
 20
0.0
 30
0.0
  9
$PUCSXDIR
 10
1.0
 20
0.0
 30
0.0
  9
$PUCSYDIR
 10
0.0
 20
1.0
 30
0.0
  9
$PUCSORTHOREF
  2

  9
$PUCSORTHOVIEW
 70
     0
  9
$PUCSORGTOP
 10
0.0
 20
0.0
 30
0.0
  9
$PUCSORGBOTTOM
 10
0.0
 20
0.0
 30
0.0
  9
$PUCSORGLEFT
 10
0.0
 20
0.0
 30
0.0
  9
$PUCSORGRIGHT
 10
0.0
 20
0.0
 30
0.0
  9
$PUCSORGFRONT
 10
0.0
 20
0.0
 30
0.0
  9
$PUCSORGBACK
 10
0.0
 20
0.0
 30
0.0
  9
$USERI1
 70
     0
  9
$USERI2
 70
     0
  9
$USERI3
 70
     0
  9
$USERI4
 70
     0
  9
$USERI5
 70
     0
  9
$USERR1
 40
0.0
  9
$USERR2
 40
0.0
  9
$USERR3
 40
0.0
  9
$USERR4
 40
0.0
  9
$USERR5
 40
0.0
  9
$WORLDVIEW
 70
     1
  9
$SHADEDGE
 70
     3
  9
$SHADEDIF
 70
    70
  9
$TILEMODE
 70
     1
  9
$MAXACTVP
 70
    64
  9
$PINSBASE
 10
0.0
 20
0.0
 30
0.0
  9
$PLIMCHECK
 70
     0
  9
$PEXTMIN
 10
1.000000000000000E+20
 20
1.000000000000000E+20
 30
1.000000000000000E+20
  9
$PEXTMAX
 10
-1.000000000000000E+20
 20
-1.000000000000000E+20
 30
-1.000000000000000E+20
  9
$PLIMMIN
 10
0.0
 20
0.0
  9
$PLIMMAX
 10
12.0
 20
9.0
  9
$UNITMODE
 70
     0
  9
$VISRETAIN
 70
     1
  9
$PLINEGEN
 70
     0
  9
$PSLTSCALE
 70
     1
  9
$TREEDEPTH
 70
  3020
  9
$CMLSTYLE
  2
Standard
  9
$CMLJUST
 70
     0
  9
$CMLSCALE
 40
1.0
  9
$PROXYGRAPHICS
 70
     1
  9
$MEASUREMENT
 70
     0
  9
$CELWEIGHT
370
    -1
  9
$ENDCAPS
280
     0
  9
$JOINSTYLE
280
     0
  9
$LWDISPLAY
290
     0
  9
$INSUNITS
 70
     5
  9
$HYPERLINKBASE
  1

  9
$STYLESHEET
  1

  9
$XEDIT
290
     1
  9
$CEPSNTYPE
380
     0
  9
$PSTYLEMODE
290
     1
  9
$FINGERPRINTGUID
  2
{3E6BE373-8FB5-4F63-A06E-0E4FFF50A8BF}
  9
$VERSIONGUID
  2
{FAEB1C32-E019-11D5-929B-00C0DF256EC4}
  9
$EXTNAMES
290
     1
  9
$PSVPSCALE
 40
0.0
  9
$OLESTARTUP
290
     0
  9
$SORTENTS
280
   127
  9
$INDEXCTL
280
     0
  9
$HIDETEXT
280
     1
  9
$XCLIPFRAME
290
     0
  9
$HALOGAP
280
     0
  9
$OBSCOLOR
 70
   257
  9
$OBSLTYPE
280
     0
  9
$INTERSECTIONDISPLAY
280
     0
  9
$INTERSECTIONCOLOR
 70
   257
  9
$DIMASSOC
280
     2
  9
$PROJECTNAME
  1

  9
$CAMERADISPLAY
290
     0
  9
$LENSLENGTH
 40
50.0
  9
$CAMERAHEIGHT
 40
0.0
  9
$STEPSPERSEC
 40
2.0
  9
$STEPSIZE
 40
6.0
  9
$3DDWFPREC
 40
2.0
  9
$PSOLWIDTH
 40
0.25
  9
$PSOLHEIGHT
 40
4.0
  9
$LOFTANG1
 40
1.570796326794897
  9
$LOFTANG2
 40
1.570796326794897
  9
$LOFTMAG1
 40
0.0
  9
$LOFTMAG2
 40
0.0
  9
$LOFTPARAM
 70
     7
  9
$LOFTNORMALS
280
     1
  9
$LATITUDE
 40
37.795
  9
$LONGITUDE
 40
-122.394
  9
$NORTHDIRECTION
 40
0.0
  9
$TIMEZONE
 70
 -8000
  9
$LIGHTGLYPHDISPLAY
280
     1
  9
$TILEMODELIGHTSYNCH
280
     1
  9
$SOLIDHIST
280
     1
  9
$SHOWHIST
280
     1
  9
$DWFFRAME
280
     2
  9
$DGNFRAME
280
     2
  9
$REALWORLDSCALE
290
     1
  9
$INTERFERECOLOR
 62
   256
  9
$CSHADOW
280
     0
  9
$SHADOWPLANELOCATION
 40
0.0
  0
ENDSEC
  0
SECTION
  2
CLASSES
  0
CLASS
  1
ACDBDICTIONARYWDFLT
  2
AcDbDictionaryWithDefault
  3
ObjectDBX Classes
 90
        0
 91
        3
280
     0
281
     0
  0
CLASS
  1
VISUALSTYLE
  2
AcDbVisualStyle
  3
ObjectDBX Classes
 90
     4095
 91
        3
280
     0
281
     0
  0
CLASS
  1
SCALE
  2
AcDbScale
  3
ObjectDBX Classes
 90
     1153
 91
        3
280
     0
281
     0
  0
ENDSEC
  0
SECTION
  2
TABLES
  0
TABLE
  2
VPORT
  5
8
330
0
100
AcDbSymbolTable
 70
     1
  0
VPORT
  5
29
330
8
100
AcDbSymbolTableRecord
100
AcDbViewportTableRecord
  2
*Active
 70
     0
 10
0.0
 20
0.0
 11
1.0
 21
1.0
 12
10.42990654205607
 22
4.5
 13
0.0
 23
0.0
 14
0.5
 24
0.5
 15
0.5
 25
0.5
 16
0.0
 26
0.0
 36
1.0
 17
0.0
 27
0.0
 37
0.0
 40
9.0
 41
1.972972972850329
 42
50.0
 43
0.0
 44
0.0
 50
0.0
 51
0.0
 71
     0
 72
   100
 73
     1
 74
     3
 75
     0
 76
     0
 77
     0
 78
     0
281
     0
 65
     1
110
0.0
120
0.0
130
0.0
111
1.0
121
0.0
131
0.0
112
0.0
122
1.0
132
0.0
 79
     0
146
0.0
 60
     3
 61
     5
292
     1
282
     1
141
0.0
142
0.0
 63
   256
  0
ENDTAB
  0
TABLE
  2
LTYPE
  5
5
330
0
100
AcDbSymbolTable
 70
     1
  0
LTYPE
  5
14
330
5
100
AcDbSymbolTableRecord
100
AcDbLinetypeTableRecord
  2
ByBlock
 70
     0
  3

 72
    65
 73
     0
 40
0.0
  0
LTYPE
  5
15
330
5
100
AcDbSymbolTableRecord
100
AcDbLinetypeTableRecord
  2
ByLayer
 70
     0
  3

 72
    65
 73
     0
 40
0.0
  0
LTYPE
  5
16
330
5
100
AcDbSymbolTableRecord
100
AcDbLinetypeTableRecord
  2
Continuous
 70
     0
  3
Solid line
 72
    65
 73
     0
 40
0.0
  0
ENDTAB
  0
TABLE
  2
LAYER
  5
2
330
0
100
AcDbSymbolTable
 70
     2
  0
LAYER
  5
10
330
2
100
AcDbSymbolTableRecord
100
AcDbLayerTableRecord
  2
0
 70
     0
 62
     7
  6
Continuous
370
    -3
390
F
347
0
  0
LAYER
  5
5E
330
2
100
AcDbSymbolTableRecord
100
AcDbLayerTableRecord
  2
Layer 1
 70
     0
 62
     7
  6
Continuous
370
    -3
390
F
347
0
  0
ENDTAB
  0
TABLE
  2
STYLE
  5
3
330
0
100
AcDbSymbolTable
 70
     1
  0
STYLE
  5
11
330
3
100
AcDbSymbolTableRecord
100
AcDbTextStyleTableRecord
  2
Standard
 70
     0
 40
0.0
 41
1.0
 50
0.0
 71
     0
 42
0.2
  3
txt
  4

  0
ENDTAB
  0
TABLE
  2
VIEW
  5
6
330
0
100
AcDbSymbolTable
 70
     0
  0
ENDTAB
  0
TABLE
  2
UCS
  5
7
330
0
100
AcDbSymbolTable
 70
     0
  0
ENDTAB
  0
TABLE
  2
APPID
  5
9
330
0
100
AcDbSymbolTable
 70
     2
  0
APPID
  5
12
330
9
100
AcDbSymbolTableRecord
100
AcDbRegAppTableRecord
  2
ACAD
 70
     0
  0
APPID
  5
5D
330
9
100
AcDbSymbolTableRecord
100
AcDbRegAppTableRecord
  2
ODA
 70
     0
  0
ENDTAB
  0
TABLE
  2
DIMSTYLE
  5
A
330
0
100
AcDbSymbolTable
 70
     1
100
AcDbDimStyleTable
  0
DIMSTYLE
105
27
330
A
100
AcDbSymbolTableRecord
100
AcDbDimStyleTableRecord
  2
Standard
 70
     0
340
11
  0
ENDTAB
  0
TABLE
  2
BLOCK_RECORD
  5
1
330
0
100
AcDbSymbolTable
 70
     1
  0
BLOCK_RECORD
  5
1F
330
1
100
AcDbSymbolTableRecord
100
AcDbBlockTableRecord
  2
*Model_Space
340
22
 70
     0
280
     1
281
     0
  0
BLOCK_RECORD
  5
1B
330
1
100
AcDbSymbolTableRecord
100
AcDbBlockTableRecord
  2
*Paper_Space
340
1E
 70
     0
280
     1
281
     0
  0
BLOCK_RECORD
  5
23
330
1
100
AcDbSymbolTableRecord
100
AcDbBlockTableRecord
  2
*Paper_Space0
340
26
 70
     0
280
     1
281
     0
  0
ENDTAB
  0
ENDSEC
  0
SECTION
  2
BLOCKS
  0
BLOCK
  5
20
330
1F
100
AcDbEntity
  8
0
100
AcDbBlockBegin
  2
*Model_Space
 70
     0
 10
0.0
 20
0.0
 30
0.0
  3
*Model_Space
  1

  0
ENDBLK
  5
21
330
1F
100
AcDbEntity
  8
0
100
AcDbBlockEnd
  0
BLOCK
  5
1C
330
1B
100
AcDbEntity
 67
     1
  8
0
100
AcDbBlockBegin
  2
*Paper_Space
 70
     0
 10
0.0
 20
0.0
 30
0.0
  3
*Paper_Space
  1

  0
ENDBLK
  5
1D
330
1B
100
AcDbEntity
 67
     1
  8
0
100
AcDbBlockEnd
  0
BLOCK
  5
24
330
23
100
AcDbEntity
  8
0
100
AcDbBlockBegin
  2
*Paper_Space0
 70
     0
 10
0.0
 20
0.0
 30
0.0
  3
*Paper_Space0
  1

  0
ENDBLK
  5
25
330
23
100
AcDbEntity
  8
0
100
AcDbBlockEnd
  0
ENDSEC
  0
SECTION
  2
ENTITIES
  0
LWPOLYLINE
  5
5F
330
1F
100
AcDbEntity
  8
Layer 1
 62
     7
370
    50
100
AcDbPolyline
 90
        5
 70
     1
 43
0.0
 10
-10.81
 20
-15.16
 10
-10.19
 20
-15.16
 10
-10.19
 20
-14.54
 10
-10.81
 20
-14.54
 10
-10.81
 20
-15.16
  0
ELLIPSE
  5
60
330
1F
100
AcDbEntity
  8
Layer 1
 62
     7
370
    50
100
AcDbEllipse
 10
-10.5
 20
-14.85
 30
0.0
 11
0.0
 21
0.175
 31
0.0
210
0.0
220
0.0
230
1.0
 40
1.0
 41
0.0
 42
6.283185307179586
  0
ELLIPSE
  5
61
330
1F
100
AcDbEntity
  8
Layer 1
 62
     7
370
    50
100
AcDbEllipse
 10
-10.285
 20
-14.635
 30
0.0
 11
0.0
 21
0.0375
 31
0.0
210
0.0
220
0.0
230
1.0
 40
1.0
 41
0.0
 42
6.283185307179586
  0
ELLIPSE
  5
62
330
1F
100
AcDbEntity
  8
Layer 1
 62
     7
370
    50
100
AcDbEllipse
 10
-10.715
 20
-15.065
 30
0.0
 11
0.0
 21
0.0375
 31
0.0
210
0.0
220
0.0
230
1.0
 40
1.0
 41
0.0
 42
6.283185307179586
  0
ELLIPSE
  5
63
330
1F
100
AcDbEntity
  8
Layer 1
 62
     7
370
    50
100
AcDbEllipse
 10
-10.285
 20
-15.065
 30
0.0
 11
0.0
 21
0.0375
 31
0.0
210
0.0
220
0.0
230
1.0
 40
1.0
 41
0.0
 42
6.283185307179586
  0
ELLIPSE
  5
64
330
1F
100
AcDbEntity
  8
Layer 1
 62
     7
370
    50
100
AcDbEllipse
 10
-10.715
 20
-14.635
 30
0.0
 11
0.0
 21
0.0375
 31
0.0
210
0.0
220
0.0
230
1.0
 40
1.0
 41
0.0
 42
6.283185307179586
  0
LWPOLYLINE
  5
65
330
1F
100
AcDbEntity
  8
Layer 1
 62
     7
370
    50
100
AcDbPolyline
 90
        5
 70
     1
 43
0.0
 10
-10.19
 20
-14.66
 10
-10.05
 20
-14.66
 10
-10.05
 20
-14.59
 10
-10.19
 20
-14.59
 10
-10.19
 20
-14.66
  0
LWPOLYLINE
  5
66
330
1F
100
AcDbEntity
  8
Layer 1
 62
     7
370
    50
100
AcDbPolyline
 90
        5
 70
     1
 43
0.0
 10
-10.95
 20
-15.11
 10
-10.81
 20
-15.11
 10
-10.81
 20
-15.04
 10
-10.95
 20
-15.04
 10
-10.95
 20
-15.11
  0
LWPOLYLINE
  5
67
330
1F
100
AcDbEntity
  8
Layer 1
 62
     7
370
    50
100
AcDbPolyline
 90
        5
 70
     1
 43
0.0
 10
-10.95
 20
-14.66
 10
-10.81
 20
-14.66
 10
-10.81
 20
-14.59
 10
-10.95
 20
-14.59
 10
-10.95
 20
-14.66
  0
LWPOLYLINE
  5
68
330
1F
100
AcDbEntity
  8
Layer 1
 62
     7
370
    50
100
AcDbPolyline
 90
        5
 70
     1
 43
0.0
 10
-10.19
 20
-15.11
 10
-10.05
 20
-15.11
 10
-10.05
 20
-15.04
 10
-10.19
 20
-15.04
 10
-10.19
 20
-15.11
  0
SPLINE
  5
69
330
1F
100
AcDbEntity
  8
Layer 1
 62
   250
100
AcDbSpline
210
0.0
220
0.0
230
1.0
 70
    11
 71
     3
 72
    44
 73
    40
 74
     0
 42
0.0000000001
 43
0.0000000001
 40
0.0
 40
0.0
 40
0.0
 40
0.0
 40
0.1
 40
0.1
 40
0.1
 40
0.1
 40
0.2
 40
0.2
 40
0.2
 40
0.2
 40
0.3
 40
0.3
 40
0.3
 40
0.3
 40
0.4
 40
0.4
 40
0.4
 40
0.4
 40
0.5
 40
0.5
 40
0.5
 40
0.5
 40
0.6
 40
0.6
 40
0.6
 40
0.6
 40
0.7
 40
0.7
 40
0.7
 40
0.7
 40
0.7999999999999999
 40
0.7999999999999999
 40
0.7999999999999999
 40
0.7999999999999999
 40
0.8999999999999999
 40
0.8999999999999999
 40
0.8999999999999999
 40
0.8999999999999999
 40
1.0
 40
1.0
 40
1.0
 40
1.0
 10
-10.83376
 20
-14.24713
 30
0.0
 10
-10.83376
 20
-14.24713
 30
0.0
 10
-10.81501
 20
-14.24713
 30
0.0
 10
-10.81501
 20
-14.24713
 30
0.0
 10
-10.81501
 20
-14.24713
 30
0.0
 10
-10.81501
 20
-14.24713
 30
0.0
 10
-10.76939
 20
-14.33318
 30
0.0
 10
-10.76939
 20
-14.33318
 30
0.0
 10
-10.76939
 20
-14.33318
 30
0.0
 10
-10.76939
 20
-14.33318
 30
0.0
 10
-10.76939
 20
-14.24713
 30
0.0
 10
-10.76939
 20
-14.24713
 30
0.0
 10
-10.76939
 20
-14.24713
 30
0.0
 10
-10.76939
 20
-14.24713
 30
0.0
 10
-10.75589
 20
-14.24713
 30
0.0
 10
-10.75589
 20
-14.24713
 30
0.0
 10
-10.75589
 20
-14.24713
 30
0.0
 10
-10.75589
 20
-14.24713
 30
0.0
 10
-10.75589
 20
-14.35
 30
0.0
 10
-10.75589
 20
-14.35
 30
0.0
 10
-10.75589
 20
-14.35
 30
0.0
 10
-10.75589
 20
-14.35
 30
0.0
 10
-10.77463
 20
-14.35
 30
0.0
 10
-10.77463
 20
-14.35
 30
0.0
 10
-10.77463
 20
-14.35
 30
0.0
 10
-10.77463
 20
-14.35
 30
0.0
 10
-10.82026
 20
-14.26395
 30
0.0
 10
-10.82026
 20
-14.26395
 30
0.0
 10
-10.82026
 20
-14.26395
 30
0.0
 10
-10.82026
 20
-14.26395
 30
0.0
 10
-10.82026
 20
-14.35
 30
0.0
 10
-10.82026
 20
-14.35
 30
0.0
 10
-10.82026
 20
-14.35
 30
0.0
 10
-10.82026
 20
-14.35
 30
0.0
 10
-10.83376
 20
-14.35
 30
0.0
 10
-10.83376
 20
-14.35
 30
0.0
 10
-10.83376
 20
-14.35
 30
0.0
 10
-10.83376
 20
-14.35
 30
0.0
 10
-10.83376
 20
-14.24713
 30
0.0
 10
-10.83376
 20
-14.24713
 30
0.0
  0
SPLINE
  5
6A
330
1F
100
AcDbEntity
  8
Layer 1
 62
   250
100
AcDbSpline
210
0.0
220
0.0
230
1.0
 70
    11
 71
     3
 72
    16
 73
    12
 74
     0
 42
0.0000000001
 43
0.0000000001
 40
0.0
 40
0.0
 40
0.0
 40
0.0
 40
0.3333333333333333
 40
0.3333333333333333
 40
0.3333333333333333
 40
0.3333333333333333
 40
0.6666666666666666
 40
0.6666666666666666
 40
0.6666666666666666
 40
0.6666666666666666
 40
1.0
 40
1.0
 40
1.0
 40
1.0
 10
-10.69382
 20
-14.26084
 30
0.0
 10
-10.69382
 20
-14.26084
 30
0.0
 10
-10.71271
 20
-14.31204
 30
0.0
 10
-10.71271
 20
-14.31204
 30
0.0
 10
-10.71271
 20
-14.31204
 30
0.0
 10
-10.71271
 20
-14.31204
 30
0.0
 10
-10.67487
 20
-14.31204
 30
0.0
 10
-10.67487
 20
-14.31204
 30
0.0
 10
-10.67487
 20
-14.31204
 30
0.0
 10
-10.67487
 20
-14.31204
 30
0.0
 10
-10.69382
 20
-14.26084
 30
0.0
 10
-10.69382
 20
-14.26084
 30
0.0
  0
SPLINE
  5
6B
330
1F
100
AcDbEntity
  8
Layer 1
 62
   250
100
AcDbSpline
210
0.0
220
0.0
230
1.0
 70
    11
 71
     3
 72
    36
 73
    32
 74
     0
 42
0.0000000001
 43
0.0000000001
 40
0.0
 40
0.0
 40
0.0
 40
0.0
 40
0.125
 40
0.125
 40
0.125
 40
0.125
 40
0.25
 40
0.25
 40
0.25
 40
0.25
 40
0.375
 40
0.375
 40
0.375
 40
0.375
 40
0.5
 40
0.5
 40
0.5
 40
0.5
 40
0.625
 40
0.625
 40
0.625
 40
0.625
 40
0.75
 40
0.75
 40
0.75
 40
0.75
 40
0.875
 40
0.875
 40
0.875
 40
0.875
 40
1.0
 40
1.0
 40
1.0
 40
1.0
 10
-10.70168
 20
-14.24713
 30
0.0
 10
-10.70168
 20
-14.24713
 30
0.0
 10
-10.6859
 20
-14.24713
 30
0.0
 10
-10.6859
 20
-14.24713
 30
0.0
 10
-10.6859
 20
-14.24713
 30
0.0
 10
-10.6859
 20
-14.24713
 30
0.0
 10
-10.64669
 20
-14.35
 30
0.0
 10
-10.64669
 20
-14.35
 30
0.0
 10
-10.64669
 20
-14.35
 30
0.0
 10
-10.64669
 20
-14.35
 30
0.0
 10
-10.66116
 20
-14.35
 30
0.0
 10
-10.66116
 20
-14.35
 30
0.0
 10
-10.66116
 20
-14.35
 30
0.0
 10
-10.66116
 20
-14.35
 30
0.0
 10
-10.67054
 20
-14.32361
 30
0.0
 10
-10.67054
 20
-14.32361
 30
0.0
 10
-10.67054
 20
-14.32361
 30
0.0
 10
-10.67054
 20
-14.32361
 30
0.0
 10
-10.7169
 20
-14.32361
 30
0.0
 10
-10.7169
 20
-14.32361
 30
0.0
 10
-10.7169
 20
-14.32361
 30
0.0
 10
-10.7169
 20
-14.32361
 30
0.0
 10
-10.72628
 20
-14.35
 30
0.0
 10
-10.72628
 20
-14.35
 30
0.0
 10
-10.72628
 20
-14.35
 30
0.0
 10
-10.72628
 20
-14.35
 30
0.0
 10
-10.74095
 20
-14.35
 30
0.0
 10
-10.74095
 20
-14.35
 30
0.0
 10
-10.74095
 20
-14.35
 30
0.0
 10
-10.74095
 20
-14.35
 30
0.0
 10
-10.70168
 20
-14.24713
 30
0.0
 10
-10.70168
 20
-14.24713
 30
0.0
  0
SPLINE
  5
6C
330
1F
100
AcDbEntity
  8
Layer 1
 62
   250
100
AcDbSpline
210
0.0
220
0.0
230
1.0
 70
    11
 71
     3
 72
    56
 73
    52
 74
     0
 42
0.0000000001
 43
0.0000000001
 40
0.0
 40
0.0
 40
0.0
 40
0.0
 40
0.0769230769230769
 40
0.0769230769230769
 40
0.0769230769230769
 40
0.0769230769230769
 40
0.1538461538461539
 40
0.1538461538461539
 40
0.1538461538461539
 40
0.1538461538461539
 40
0.2307692307692308
 40
0.2307692307692308
 40
0.2307692307692308
 40
0.2307692307692308
 40
0.3076923076923077
 40
0.3076923076923077
 40
0.3076923076923077
 40
0.3076923076923077
 40
0.3846153846153846
 40
0.3846153846153846
 40
0.3846153846153846
 40
0.3846153846153846
 40
0.4615384615384616
 40
0.4615384615384616
 40
0.4615384615384616
 40
0.4615384615384616
 40
0.5384615384615385
 40
0.5384615384615385
 40
0.5384615384615385
 40
0.5384615384615385
 40
0.6153846153846154
 40
0.6153846153846154
 40
0.6153846153846154
 40
0.6153846153846154
 40
0.6923076923076923
 40
0.6923076923076923
 40
0.6923076923076923
 40
0.6923076923076923
 40
0.7692307692307692
 40
0.7692307692307692
 40
0.7692307692307692
 40
0.7692307692307692
 40
0.846153846153846
 40
0.846153846153846
 40
0.846153846153846
 40
0.846153846153846
 40
0.9230769230769229
 40
0.9230769230769229
 40
0.9230769230769229
 40
0.9230769230769229
 40
1.0
 40
1.0
 40
1.0
 40
1.0
 10
-10.63167
 20
-14.24713
 30
0.0
 10
-10.63167
 20
-14.24713
 30
0.0
 10
-10.61092
 20
-14.24713
 30
0.0
 10
-10.61092
 20
-14.24713
 30
0.0
 10
-10.61092
 20
-14.24713
 30
0.0
 10
-10.61092
 20
-14.24713
 30
0.0
 10
-10.58468
 20
-14.31712
 30
0.0
 10
-10.58468
 20
-14.31712
 30
0.0
 10
-10.58468
 20
-14.31712
 30
0.0
 10
-10.58468
 20
-14.31712
 30
0.0
 10
-10.55829
 20
-14.24713
 30
0.0
 10
-10.55829
 20
-14.24713
 30
0.0
 10
-10.55829
 20
-14.24713
 30
0.0
 10
-10.55829
 20
-14.24713
 30
0.0
 10
-10.53755
 20
-14.24713
 30
0.0
 10
-10.53755
 20
-14.24713
 30
0.0
 10
-10.53755
 20
-14.24713
 30
0.0
 10
-10.53755
 20
-14.24713
 30
0.0
 10
-10.53755
 20
-14.35
 30
0.0
 10
-10.53755
 20
-14.35
 30
0.0
 10
-10.53755
 20
-14.35
 30
0.0
 10
-10.53755
 20
-14.35
 30
0.0
 10
-10.55112
 20
-14.35
 30
0.0
 10
-10.55112
 20
-14.35
 30
0.0
 10
-10.55112
 20
-14.35
 30
0.0
 10
-10.55112
 20
-14.35
 30
0.0
 10
-10.55112
 20
-14.25967
 30
0.0
 10
-10.55112
 20
-14.25967
 30
0.0
 10
-10.55112
 20
-14.25967
 30
0.0
 10
-10.55112
 20
-14.25967
 30
0.0
 10
-10.57765
 20
-14.33022
 30
0.0
 10
-10.57765
 20
-14.33022
 30
0.0
 10
-10.57765
 20
-14.33022
 30
0.0
 10
-10.57765
 20
-14.33022
 30
0.0
 10
-10.59164
 20
-14.33022
 30
0.0
 10
-10.59164
 20
-14.33022
 30
0.0
 10
-10.59164
 20
-14.33022
 30
0.0
 10
-10.59164
 20
-14.33022
 30
0.0
 10
-10.61817
 20
-14.25967
 30
0.0
 10
-10.61817
 20
-14.25967
 30
0.0
 10
-10.61817
 20
-14.25967
 30
0.0
 10
-10.61817
 20
-14.25967
 30
0.0
 10
-10.61817
 20
-14.35
 30
0.0
 10
-10.61817
 20
-14.35
 30
0.0
 10
-10.61817
 20
-14.35
 30
0.0
 10
-10.61817
 20
-14.35
 30
0.0
 10
-10.63167
 20
-14.35
 30
0.0
 10
-10.63167
 20
-14.35
 30
0.0
 10
-10.63167
 20
-14.35
 30
0.0
 10
-10.63167
 20
-14.35
 30
0.0
 10
-10.63167
 20
-14.24713
 30
0.0
 10
-10.63167
 20
-14.24713
 30
0.0
  0
SPLINE
  5
6D
330
1F
100
AcDbEntity
  8
Layer 1
 62
   250
100
AcDbSpline
210
0.0
220
0.0
230
1.0
 70
    11
 71
     3
 72
    52
 73
    48
 74
     0
 42
0.0000000001
 43
0.0000000001
 40
0.0
 40
0.0
 40
0.0
 40
0.0
 40
0.0833333333333333
 40
0.0833333333333333
 40
0.0833333333333333
 40
0.0833333333333333
 40
0.1666666666666667
 40
0.1666666666666667
 40
0.1666666666666667
 40
0.1666666666666667
 40
0.25
 40
0.25
 40
0.25
 40
0.25
 40
0.3333333333333333
 40
0.3333333333333333
 40
0.3333333333333333
 40
0.3333333333333333
 40
0.4166666666666666
 40
0.4166666666666666
 40
0.4166666666666666
 40
0.4166666666666666
 40
0.4999999999999999
 40
0.4999999999999999
 40
0.4999999999999999
 40
0.4999999999999999
 40
0.5833333333333333
 40
0.5833333333333333
 40
0.5833333333333333
 40
0.5833333333333333
 40
0.6666666666666666
 40
0.6666666666666666
 40
0.6666666666666666
 40
0.6666666666666666
 40
0.75
 40
0.75
 40
0.75
 40
0.75
 40
0.8333333333333334
 40
0.8333333333333334
 40
0.8333333333333334
 40
0.8333333333333334
 40
0.9166666666666667
 40
0.9166666666666667
 40
0.9166666666666667
 40
0.9166666666666667
 40
1.0
 40
1.0
 40
1.0
 40
1.0
 10
-10.50992
 20
-14.24713
 30
0.0
 10
-10.50992
 20
-14.24713
 30
0.0
 10
-10.44489
 20
-14.24713
 30
0.0
 10
-10.44489
 20
-14.24713
 30
0.0
 10
-10.44489
 20
-14.24713
 30
0.0
 10
-10.44489
 20
-14.24713
 30
0.0
 10
-10.44489
 20
-14.25884
 30
0.0
 10
-10.44489
 20
-14.25884
 30
0.0
 10
-10.44489
 20
-14.25884
 30
0.0
 10
-10.44489
 20
-14.25884
 30
0.0
 10
-10.49599
 20
-14.25884
 30
0.0
 10
-10.49599
 20
-14.25884
 30
0.0
 10
-10.49599
 20
-14.25884
 30
0.0
 10
-10.49599
 20
-14.25884
 30
0.0
 10
-10.49599
 20
-14.2893
 30
0.0
 10
-10.49599
 20
-14.2893
 30
0.0
 10
-10.49599
 20
-14.2893
 30
0.0
 10
-10.49599
 20
-14.2893
 30
0.0
 10
-10.44703
 20
-14.2893
 30
0.0
 10
-10.44703
 20
-14.2893
 30
0.0
 10
-10.44703
 20
-14.2893
 30
0.0
 10
-10.44703
 20
-14.2893
 30
0.0
 10
-10.44703
 20
-14.30101
 30
0.0
 10
-10.44703
 20
-14.30101
 30
0.0
 10
-10.44703
 20
-14.30101
 30
0.0
 10
-10.44703
 20
-14.30101
 30
0.0
 10
-10.49599
 20
-14.30101
 30
0.0
 10
-10.49599
 20
-14.30101
 30
0.0
 10
-10.49599
 20
-14.30101
 30
0.0
 10
-10.49599
 20
-14.30101
 30
0.0
 10
-10.49599
 20
-14.33829
 30
0.0
 10
-10.49599
 20
-14.33829
 30
0.0
 10
-10.49599
 20
-14.33829
 30
0.0
 10
-10.49599
 20
-14.33829
 30
0.0
 10
-10.44364
 20
-14.33829
 30
0.0
 10
-10.44364
 20
-14.33829
 30
0.0
 10
-10.44364
 20
-14.33829
 30
0.0
 10
-10.44364
 20
-14.33829
 30
0.0
 10
-10.44364
 20
-14.35
 30
0.0
 10
-10.44364
 20
-14.35
 30
0.0
 10
-10.44364
 20
-14.35
 30
0.0
 10
-10.44364
 20
-14.35
 30
0.0
 10
-10.50992
 20
-14.35
 30
0.0
 10
-10.50992
 20
-14.35
 30
0.0
 10
-10.50992
 20
-14.35
 30
0.0
 10
-10.50992
 20
-14.35
 30
0.0
 10
-10.50992
 20
-14.24713
 30
0.0
 10
-10.50992
 20
-14.24713
 30
0.0
  0
SPLINE
  5
6E
330
1F
100
AcDbEntity
  8
Layer 1
 62
   250
100
AcDbSpline
210
0.0
220
0.0
230
1.0
 70
    11
 71
     3
 72
    36
 73
    32
 74
     0
 42
0.0000000001
 43
0.0000000001
 40
0.0
 40
0.0
 40
0.0
 40
0.0
 40
0.125
 40
0.125
 40
0.125
 40
0.125
 40
0.25
 40
0.25
 40
0.25
 40
0.25
 40
0.375
 40
0.375
 40
0.375
 40
0.375
 40
0.5
 40
0.5
 40
0.5
 40
0.5
 40
0.625
 40
0.625
 40
0.625
 40
0.625
 40
0.75
 40
0.75
 40
0.75
 40
0.75
 40
0.875
 40
0.875
 40
0.875
 40
0.875
 40
1.0
 40
1.0
 40
1.0
 40
1.0
 10
-10.38209
 20
-14.31301
 30
0.0
 10
-10.38209
 20
-14.31957
 30
0.0
 10
-10.38047
 20
-14.32472
 30
0.0
 10
-10.3772
 20
-14.32846
 30
0.0
 10
-10.3772
 20
-14.32846
 30
0.0
 10
-10.37393
 20
-14.3322
 30
0.0
 10
-10.36946
 20
-14.33408
 30
0.0
 10
-10.36377
 20
-14.33408
 30
0.0
 10
-10.36377
 20
-14.33408
 30
0.0
 10
-10.3581
 20
-14.33408
 30
0.0
 10
-10.35366
 20
-14.3322
 30
0.0
 10
-10.35044
 20
-14.32843
 30
0.0
 10
-10.35044
 20
-14.32843
 30
0.0
 10
-10.34719
 20
-14.32467
 30
0.0
 10
-10.34557
 20
-14.31952
 30
0.0
 10
-10.34557
 20
-14.31301
 30
0.0
 10
-10.34557
 20
-14.31301
 30
0.0
 10
-10.34557
 20
-14.30656
 30
0.0
 10
-10.34722
 20
-14.30146
 30
0.0
 10
-10.35053
 20
-14.29767
 30
0.0
 10
-10.35053
 20
-14.29767
 30
0.0
 10
-10.35385
 20
-14.29389
 30
0.0
 10
-10.35829
 20
-14.29198
 30
0.0
 10
-10.36389
 20
-14.29198
 30
0.0
 10
-10.36389
 20
-14.29198
 30
0.0
 10
-10.36946
 20
-14.29198
 30
0.0
 10
-10.37389
 20
-14.29386
 30
0.0
 10
-10.37715
 20
-14.29762
 30
0.0
 10
-10.37715
 20
-14.29762
 30
0.0
 10
-10.38045
 20
-14.30139
 30
0.0
 10
-10.38209
 20
-14.30651
 30
0.0
 10
-10.38209
 20
-14.31301
 30
0.0
  0
SPLINE
  5
6F
330
1F
100
AcDbEntity
  8
Layer 1
 62
   250
100
AcDbSpline
210
0.0
220
0.0
230
1.0
 70
    11
 71
     3
 72
   184
 73
   180
 74
     0
 42
0.0000000001
 43
0.0000000001
 40
0.0
 40
0.0
 40
0.0
 40
0.0
 40
0.0222222222222222
 40
0.0222222222222222
 40
0.0222222222222222
 40
0.0222222222222222
 40
0.0444444444444444
 40
0.0444444444444444
 40
0.0444444444444444
 40
0.0444444444444444
 40
0.0666666666666667
 40
0.0666666666666667
 40
0.0666666666666667
 40
0.0666666666666667
 40
0.0888888888888889
 40
0.0888888888888889
 40
0.0888888888888889
 40
0.0888888888888889
 40
0.1111111111111111
 40
0.1111111111111111
 40
0.1111111111111111
 40
0.1111111111111111
 40
0.1333333333333333
 40
0.1333333333333333
 40
0.1333333333333333
 40
0.1333333333333333
 40
0.1555555555555556
 40
0.1555555555555556
 40
0.1555555555555556
 40
0.1555555555555556
 40
0.1777777777777778
 40
0.1777777777777778
 40
0.1777777777777778
 40
0.1777777777777778
 40
0.2
 40
0.2
 40
0.2
 40
0.2
 40
0.2222222222222222
 40
0.2222222222222222
 40
0.2222222222222222
 40
0.2222222222222222
 40
0.2444444444444445
 40
0.2444444444444445
 40
0.2444444444444445
 40
0.2444444444444445
 40
0.2666666666666667
 40
0.2666666666666667
 40
0.2666666666666667
 40
0.2666666666666667
 40
0.2888888888888889
 40
0.2888888888888889
 40
0.2888888888888889
 40
0.2888888888888889
 40
0.3111111111111111
 40
0.3111111111111111
 40
0.3111111111111111
 40
0.3111111111111111
 40
0.3333333333333333
 40
0.3333333333333333
 40
0.3333333333333333
 40
0.3333333333333333
 40
0.3555555555555555
 40
0.3555555555555555
 40
0.3555555555555555
 40
0.3555555555555555
 40
0.3777777777777777
 40
0.3777777777777777
 40
0.3777777777777777
 40
0.3777777777777777
 40
0.3999999999999999
 40
0.3999999999999999
 40
0.3999999999999999
 40
0.3999999999999999
 40
0.4222222222222221
 40
0.4222222222222221
 40
0.4222222222222221
 40
0.4222222222222221
 40
0.4444444444444443
 40
0.4444444444444443
 40
0.4444444444444443
 40
0.4444444444444443
 40
0.4666666666666665
 40
0.4666666666666665
 40
0.4666666666666665
 40
0.4666666666666665
 40
0.4888888888888887
 40
0.4888888888888887
 40
0.4888888888888887
 40
0.4888888888888887
 40
0.5111111111111108
 40
0.5111111111111108
 40
0.5111111111111108
 40
0.5111111111111108
 40
0.5333333333333331
 40
0.5333333333333331
 40
0.5333333333333331
 40
0.5333333333333331
 40
0.5555555555555554
 40
0.5555555555555554
 40
0.5555555555555554
 40
0.5555555555555554
 40
0.5777777777777776
 40
0.5777777777777776
 40
0.5777777777777776
 40
0.5777777777777776
 40
0.5999999999999999
 40
0.5999999999999999
 40
0.5999999999999999
 40
0.5999999999999999
 40
0.6222222222222221
 40
0.6222222222222221
 40
0.6222222222222221
 40
0.6222222222222221
 40
0.6444444444444444
 40
0.6444444444444444
 40
0.6444444444444444
 40
0.6444444444444444
 40
0.6666666666666666
 40
0.6666666666666666
 40
0.6666666666666666
 40
0.6666666666666666
 40
0.6888888888888889
 40
0.6888888888888889
 40
0.6888888888888889
 40
0.6888888888888889
 40
0.7111111111111111
 40
0.7111111111111111
 40
0.7111111111111111
 40
0.7111111111111111
 40
0.7333333333333334
 40
0.7333333333333334
 40
0.7333333333333334
 40
0.7333333333333334
 40
0.7555555555555556
 40
0.7555555555555556
 40
0.7555555555555556
 40
0.7555555555555556
 40
0.7777777777777779
 40
0.7777777777777779
 40
0.7777777777777779
 40
0.7777777777777779
 40
0.8000000000000002
 40
0.8000000000000002
 40
0.8000000000000002
 40
0.8000000000000002
 40
0.8222222222222224
 40
0.8222222222222224
 40
0.8222222222222224
 40
0.8222222222222224
 40
0.8444444444444447
 40
0.8444444444444447
 40
0.8444444444444447
 40
0.8444444444444447
 40
0.8666666666666669
 40
0.8666666666666669
 40
0.8666666666666669
 40
0.8666666666666669
 40
0.8888888888888892
 40
0.8888888888888892
 40
0.8888888888888892
 40
0.8888888888888892
 40
0.9111111111111114
 40
0.9111111111111114
 40
0.9111111111111114
 40
0.9111111111111114
 40
0.9333333333333337
 40
0.9333333333333337
 40
0.9333333333333337
 40
0.9333333333333337
 40
0.9555555555555559
 40
0.9555555555555559
 40
0.9555555555555559
 40
0.9555555555555559
 40
0.9777777777777782
 40
0.9777777777777782
 40
0.9777777777777782
 40
0.9777777777777782
 40
1.0
 40
1.0
 40
1.0
 40
1.0
 10
-10.34453
 20
-14.33358
 30
0.0
 10
-10.34729
 20
-14.33714
 30
0.0
 10
-10.35046
 20
-14.33975
 30
0.0
 10
-10.35401
 20
-14.34142
 30
0.0
 10
-10.35401
 20
-14.34142
 30
0.0
 10
-10.35756
 20
-14.34309
 30
0.0
 10
-10.36173
 20
-14.34393
 30
0.0
 10
-10.36645
 20
-14.34393
 30
0.0
 10
-10.36645
 20
-14.34393
 30
0.0
 10
-10.37436
 20
-14.34393
 30
0.0
 10
-10.38078
 20
-14.34106
 30
0.0
 10
-10.38572
 20
-14.33535
 30
0.0
 10
-10.38572
 20
-14.33535
 30
0.0
 10
-10.39065
 20
-14.32963
 30
0.0
 10
-10.39312
 20
-14.32218
 30
0.0
 10
-10.39312
 20
-14.31298
 30
0.0
 10
-10.39312
 20
-14.31298
 30
0.0
 10
-10.39312
 20
-14.30381
 30
0.0
 10
-10.39065
 20
-14.29633
 30
0.0
 10
-10.38569
 20
-14.29059
 30
0.0
 10
-10.38569
 20
-14.29059
 30
0.0
 10
-10.38073
 20
-14.28485
 30
0.0
 10
-10.37431
 20
-14.28198
 30
0.0
 10
-10.36645
 20
-14.28198
 30
0.0
 10
-10.36645
 20
-14.28198
 30
0.0
 10
-10.36173
 20
-14.28198
 30
0.0
 10
-10.35756
 20
-14.28286
 30
0.0
 10
-10.35397
 20
-14.28457
 30
0.0
 10
-10.35397
 20
-14.28457
 30
0.0
 10
-10.35039
 20
-14.28629
 30
0.0
 10
-10.34724
 20
-14.2889
 30
0.0
 10
-10.34453
 20
-14.2924
 30
0.0
 10
-10.34453
 20
-14.2924
 30
0.0
 10
-10.34453
 20
-14.2924
 30
0.0
 10
-10.34453
 20
-14.28337
 30
0.0
 10
-10.34453
 20
-14.28337
 30
0.0
 10
-10.34453
 20
-14.28337
 30
0.0
 10
-10.34453
 20
-14.28337
 30
0.0
 10
-10.33468
 20
-14.28337
 30
0.0
 10
-10.33468
 20
-14.28337
 30
0.0
 10
-10.33468
 20
-14.28337
 30
0.0
 10
-10.33468
 20
-14.28337
 30
0.0
 10
-10.33468
 20
-14.33408
 30
0.0
 10
-10.33468
 20
-14.33408
 30
0.0
 10
-10.33468
 20
-14.33408
 30
0.0
 10
-10.32798
 20
-14.33307
 30
0.0
 10
-10.32273
 20
-14.33001
 30
0.0
 10
-10.31895
 20
-14.32488
 30
0.0
 10
-10.31895
 20
-14.32488
 30
0.0
 10
-10.31516
 20
-14.31976
 30
0.0
 10
-10.31326
 20
-14.31312
 30
0.0
 10
-10.31326
 20
-14.30501
 30
0.0
 10
-10.31326
 20
-14.30501
 30
0.0
 10
-10.31326
 20
-14.30009
 30
0.0
 10
-10.31398
 20
-14.29546
 30
0.0
 10
-10.31542
 20
-14.29116
 30
0.0
 10
-10.31542
 20
-14.29116
 30
0.0
 10
-10.31688
 20
-14.28683
 30
0.0
 10
-10.31906
 20
-14.28283
 30
0.0
 10
-10.322
 20
-14.27916
 30
0.0
 10
-10.322
 20
-14.27916
 30
0.0
 10
-10.32678
 20
-14.27314
 30
0.0
 10
-10.33261
 20
-14.26853
 30
0.0
 10
-10.33948
 20
-14.26536
 30
0.0
 10
-10.33948
 20
-14.26536
 30
0.0
 10
-10.34635
 20
-14.26216
 30
0.0
 10
-10.35382
 20
-14.26056
 30
0.0
 10
-10.36191
 20
-14.26056
 30
0.0
 10
-10.36191
 20
-14.26056
 30
0.0
 10
-10.36756
 20
-14.26056
 30
0.0
 10
-10.37297
 20
-14.26131
 30
0.0
 10
-10.37817
 20
-14.26279
 30
0.0
 10
-10.37817
 20
-14.26279
 30
0.0
 10
-10.38336
 20
-14.2643
 30
0.0
 10
-10.38816
 20
-14.26651
 30
0.0
 10
-10.39256
 20
-14.26945
 30
0.0
 10
-10.39256
 20
-14.26945
 30
0.0
 10
-10.39978
 20
-14.27413
 30
0.0
 10
-10.40542
 20
-14.28027
 30
0.0
 10
-10.40949
 20
-14.28789
 30
0.0
 10
-10.40949
 20
-14.28789
 30
0.0
 10
-10.41356
 20
-14.29548
 30
0.0
 10
-10.41558
 20
-14.30372
 30
0.0
 10
-10.41558
 20
-14.31258
 30
0.0
 10
-10.41558
 20
-14.31258
 30
0.0
 10
-10.41558
 20
-14.3199
 30
0.0
 10
-10.41427
 20
-14.32674
 30
0.0
 10
-10.41163
 20
-14.33311
 30
0.0
 10
-10.41163
 20
-14.33311
 30
0.0
 10
-10.40898
 20
-14.33951
 30
0.0
 10
-10.40517
 20
-14.34513
 30
0.0
 10
-10.40016
 20
-14.35
 30
0.0
 10
-10.40016
 20
-14.35
 30
0.0
 10
-10.39533
 20
-14.35477
 30
0.0
 10
-10.38974
 20
-14.35842
 30
0.0
 10
-10.38341
 20
-14.36091
 30
0.0
 10
-10.38341
 20
-14.36091
 30
0.0
 10
-10.37706
 20
-14.36343
 30
0.0
 10
-10.37029
 20
-14.36468
 30
0.0
 10
-10.36307
 20
-14.36468
 30
0.0
 10
-10.36307
 20
-14.36468
 30
0.0
 10
-10.35714
 20
-14.36468
 30
0.0
 10
-10.35133
 20
-14.36369
 30
0.0
 10
-10.34559
 20
-14.36169
 30
0.0
 10
-10.34559
 20
-14.36169
 30
0.0
 10
-10.33988
 20
-14.35969
 30
0.0
 10
-10.33463
 20
-14.35682
 30
0.0
 10
-10.32986
 20
-14.3531
 30
0.0
 10
-10.32986
 20
-14.3531
 30
0.0
 10
-10.32986
 20
-14.3531
 30
0.0
 10
-10.32365
 20
-14.36075
 30
0.0
 10
-10.32365
 20
-14.36075
 30
0.0
 10
-10.32365
 20
-14.36075
 30
0.0
 10
-10.32939
 20
-14.36519
 30
0.0
 10
-10.33567
 20
-14.36863
 30
0.0
 10
-10.34244
 20
-14.37098
 30
0.0
 10
-10.34244
 20
-14.37098
 30
0.0
 10
-10.34921
 20
-14.37335
 30
0.0
 10
-10.35608
 20
-14.37453
 30
0.0
 10
-10.36307
 20
-14.37453
 30
0.0
 10
-10.36307
 20
-14.37453
 30
0.0
 10
-10.37158
 20
-14.37453
 30
0.0
 10
-10.37958
 20
-14.37302
 30
0.0
 10
-10.38713
 20
-14.37001
 30
0.0
 10
-10.38713
 20
-14.37001
 30
0.0
 10
-10.39465
 20
-14.367
 30
0.0
 10
-10.40136
 20
-14.36263
 30
0.0
 10
-10.40723
 20
-14.35689
 30
0.0
 10
-10.40723
 20
-14.35689
 30
0.0
 10
-10.41311
 20
-14.35115
 30
0.0
 10
-10.41761
 20
-14.3445
 30
0.0
 10
-10.42069
 20
-14.33695
 30
0.0
 10
-10.42069
 20
-14.33695
 30
0.0
 10
-10.42377
 20
-14.32937
 30
0.0
 10
-10.4253
 20
-14.32126
 30
0.0
 10
-10.4253
 20
-14.31258
 30
0.0
 10
-10.4253
 20
-14.31258
 30
0.0
 10
-10.4253
 20
-14.30421
 30
0.0
 10
-10.42374
 20
-14.29626
 30
0.0
 10
-10.42062
 20
-14.28866
 30
0.0
 10
-10.42062
 20
-14.28866
 30
0.0
 10
-10.41749
 20
-14.28109
 30
0.0
 10
-10.41302
 20
-14.27444
 30
0.0
 10
-10.40723
 20
-14.2687
 30
0.0
 10
-10.40723
 20
-14.2687
 30
0.0
 10
-10.40131
 20
-14.26286
 30
0.0
 10
-10.39446
 20
-14.2584
 30
0.0
 10
-10.3867
 20
-14.25529
 30
0.0
 10
-10.3867
 20
-14.25529
 30
0.0
 10
-10.37894
 20
-14.25219
 30
0.0
 10
-10.37071
 20
-14.25064
 30
0.0
 10
-10.36203
 20
-14.25064
 30
0.0
 10
-10.36203
 20
-14.25064
 30
0.0
 10
-10.3523
 20
-14.25064
 30
0.0
 10
-10.34326
 20
-14.25263
 30
0.0
 10
-10.33492
 20
-14.25663
 30
0.0
 10
-10.33492
 20
-14.25663
 30
0.0
 10
-10.32659
 20
-14.26063
 30
0.0
 10
-10.31958
 20
-14.2663
 30
0.0
 10
-10.31394
 20
-14.27366
 30
0.0
 10
-10.31394
 20
-14.27366
 30
0.0
 10
-10.3105
 20
-14.27815
 30
0.0
 10
-10.30787
 20
-14.28304
 30
0.0
 10
-10.30606
 20
-14.28833
 30
0.0
 10
-10.30606
 20
-14.28833
 30
0.0
 10
-10.30425
 20
-14.2936
 30
0.0
 10
-10.30333
 20
-14.29908
 30
0.0
 10
-10.30333
 20
-14.30473
 30
0.0
 10
-10.30333
 20
-14.30473
 30
0.0
 10
-10.30333
 20
-14.31682
 30
0.0
 10
-10.30698
 20
-14.32634
 30
0.0
 10
-10.31429
 20
-14.33333
 30
0.0
 10
-10.31429
 20
-14.33333
 30
0.0
 10
-10.32158
 20
-14.34031
 30
0.0
 10
-10.33167
 20
-14.34393
 30
0.0
 10
-10.34453
 20
-14.34421
 30
0.0
 10
-10.34453
 20
-14.34421
 30
0.0
 10
-10.34453
 20
-14.34421
 30
0.0
 10
-10.34453
 20
-14.33358
 30
0.0
 10
-10.34453
 20
-14.33358
 30
0.0
  0
SPLINE
  5
70
330
1F
100
AcDbEntity
  8
Layer 1
 62
   250
100
AcDbSpline
210
0.0
220
0.0
230
1.0
 70
    11
 71
     3
 72
    36
 73
    32
 74
     0
 42
0.0000000001
 43
0.0000000001
 40
0.0
 40
0.0
 40
0.0
 40
0.0
 40
0.125
 40
0.125
 40
0.125
 40
0.125
 40
0.25
 40
0.25
 40
0.25
 40
0.25
 40
0.375
 40
0.375
 40
0.375
 40
0.375
 40
0.5
 40
0.5
 40
0.5
 40
0.5
 40
0.625
 40
0.625
 40
0.625
 40
0.625
 40
0.75
 40
0.75
 40
0.75
 40
0.75
 40
0.875
 40
0.875
 40
0.875
 40
0.875
 40
1.0
 40
1.0
 40
1.0
 40
1.0
 10
-10.24098
 20
-14.31301
 30
0.0
 10
-10.24098
 20
-14.31957
 30
0.0
 10
-10.23936
 20
-14.32472
 30
0.0
 10
-10.23609
 20
-14.32846
 30
0.0
 10
-10.23609
 20
-14.32846
 30
0.0
 10
-10.23282
 20
-14.3322
 30
0.0
 10
-10.22835
 20
-14.33408
 30
0.0
 10
-10.22266
 20
-14.33408
 30
0.0
 10
-10.22266
 20
-14.33408
 30
0.0
 10
-10.21699
 20
-14.33408
 30
0.0
 10
-10.21255
 20
-14.3322
 30
0.0
 10
-10.20933
 20
-14.32843
 30
0.0
 10
-10.20933
 20
-14.32843
 30
0.0
 10
-10.20608
 20
-14.32467
 30
0.0
 10
-10.20446
 20
-14.31952
 30
0.0
 10
-10.20446
 20
-14.31301
 30
0.0
 10
-10.20446
 20
-14.31301
 30
0.0
 10
-10.20446
 20
-14.30656
 30
0.0
 10
-10.20611
 20
-14.30146
 30
0.0
 10
-10.20942
 20
-14.29767
 30
0.0
 10
-10.20942
 20
-14.29767
 30
0.0
 10
-10.21274
 20
-14.29389
 30
0.0
 10
-10.21718
 20
-14.29198
 30
0.0
 10
-10.22278
 20
-14.29198
 30
0.0
 10
-10.22278
 20
-14.29198
 30
0.0
 10
-10.22835
 20
-14.29198
 30
0.0
 10
-10.23278
 20
-14.29386
 30
0.0
 10
-10.23604
 20
-14.29762
 30
0.0
 10
-10.23604
 20
-14.29762
 30
0.0
 10
-10.23934
 20
-14.30139
 30
0.0
 10
-10.24098
 20
-14.30651
 30
0.0
 10
-10.24098
 20
-14.31301
 30
0.0
  0
SPLINE
  5
71
330
1F
100
AcDbEntity
  8
Layer 1
 62
   250
100
AcDbSpline
210
0.0
220
0.0
230
1.0
 70
    11
 71
     3
 72
   184
 73
   180
 74
     0
 42
0.0000000001
 43
0.0000000001
 40
0.0
 40
0.0
 40
0.0
 40
0.0
 40
0.0222222222222222
 40
0.0222222222222222
 40
0.0222222222222222
 40
0.0222222222222222
 40
0.0444444444444444
 40
0.0444444444444444
 40
0.0444444444444444
 40
0.0444444444444444
 40
0.0666666666666667
 40
0.0666666666666667
 40
0.0666666666666667
 40
0.0666666666666667
 40
0.0888888888888889
 40
0.0888888888888889
 40
0.0888888888888889
 40
0.0888888888888889
 40
0.1111111111111111
 40
0.1111111111111111
 40
0.1111111111111111
 40
0.1111111111111111
 40
0.1333333333333333
 40
0.1333333333333333
 40
0.1333333333333333
 40
0.1333333333333333
 40
0.1555555555555556
 40
0.1555555555555556
 40
0.1555555555555556
 40
0.1555555555555556
 40
0.1777777777777778
 40
0.1777777777777778
 40
0.1777777777777778
 40
0.1777777777777778
 40
0.2
 40
0.2
 40
0.2
 40
0.2
 40
0.2222222222222222
 40
0.2222222222222222
 40
0.2222222222222222
 40
0.2222222222222222
 40
0.2444444444444445
 40
0.2444444444444445
 40
0.2444444444444445
 40
0.2444444444444445
 40
0.2666666666666667
 40
0.2666666666666667
 40
0.2666666666666667
 40
0.2666666666666667
 40
0.2888888888888889
 40
0.2888888888888889
 40
0.2888888888888889
 40
0.2888888888888889
 40
0.3111111111111111
 40
0.3111111111111111
 40
0.3111111111111111
 40
0.3111111111111111
 40
0.3333333333333333
 40
0.3333333333333333
 40
0.3333333333333333
 40
0.3333333333333333
 40
0.3555555555555555
 40
0.3555555555555555
 40
0.3555555555555555
 40
0.3555555555555555
 40
0.3777777777777777
 40
0.3777777777777777
 40
0.3777777777777777
 40
0.3777777777777777
 40
0.3999999999999999
 40
0.3999999999999999
 40
0.3999999999999999
 40
0.3999999999999999
 40
0.4222222222222221
 40
0.4222222222222221
 40
0.4222222222222221
 40
0.4222222222222221
 40
0.4444444444444443
 40
0.4444444444444443
 40
0.4444444444444443
 40
0.4444444444444443
 40
0.4666666666666665
 40
0.4666666666666665
 40
0.4666666666666665
 40
0.4666666666666665
 40
0.4888888888888887
 40
0.4888888888888887
 40
0.4888888888888887
 40
0.4888888888888887
 40
0.5111111111111108
 40
0.5111111111111108
 40
0.5111111111111108
 40
0.5111111111111108
 40
0.5333333333333331
 40
0.5333333333333331
 40
0.5333333333333331
 40
0.5333333333333331
 40
0.5555555555555554
 40
0.5555555555555554
 40
0.5555555555555554
 40
0.5555555555555554
 40
0.5777777777777776
 40
0.5777777777777776
 40
0.5777777777777776
 40
0.5777777777777776
 40
0.5999999999999999
 40
0.5999999999999999
 40
0.5999999999999999
 40
0.5999999999999999
 40
0.6222222222222221
 40
0.6222222222222221
 40
0.6222222222222221
 40
0.6222222222222221
 40
0.6444444444444444
 40
0.6444444444444444
 40
0.6444444444444444
 40
0.6444444444444444
 40
0.6666666666666666
 40
0.6666666666666666
 40
0.6666666666666666
 40
0.6666666666666666
 40
0.6888888888888889
 40
0.6888888888888889
 40
0.6888888888888889
 40
0.6888888888888889
 40
0.7111111111111111
 40
0.7111111111111111
 40
0.7111111111111111
 40
0.7111111111111111
 40
0.7333333333333334
 40
0.7333333333333334
 40
0.7333333333333334
 40
0.7333333333333334
 40
0.7555555555555556
 40
0.7555555555555556
 40
0.7555555555555556
 40
0.7555555555555556
 40
0.7777777777777779
 40
0.7777777777777779
 40
0.7777777777777779
 40
0.7777777777777779
 40
0.8000000000000002
 40
0.8000000000000002
 40
0.8000000000000002
 40
0.8000000000000002
 40
0.8222222222222224
 40
0.8222222222222224
 40
0.8222222222222224
 40
0.8222222222222224
 40
0.8444444444444447
 40
0.8444444444444447
 40
0.8444444444444447
 40
0.8444444444444447
 40
0.8666666666666669
 40
0.8666666666666669
 40
0.8666666666666669
 40
0.8666666666666669
 40
0.8888888888888892
 40
0.8888888888888892
 40
0.8888888888888892
 40
0.8888888888888892
 40
0.9111111111111114
 40
0.9111111111111114
 40
0.9111111111111114
 40
0.9111111111111114
 40
0.9333333333333337
 40
0.9333333333333337
 40
0.9333333333333337
 40
0.9333333333333337
 40
0.9555555555555559
 40
0.9555555555555559
 40
0.9555555555555559
 40
0.9555555555555559
 40
0.9777777777777782
 40
0.9777777777777782
 40
0.9777777777777782
 40
0.9777777777777782
 40
1.0
 40
1.0
 40
1.0
 40
1.0
 10
-10.20342
 20
-14.33358
 30
0.0
 10
-10.20618
 20
-14.33714
 30
0.0
 10
-10.20935
 20
-14.33975
 30
0.0
 10
-10.2129
 20
-14.34142
 30
0.0
 10
-10.2129
 20
-14.34142
 30
0.0
 10
-10.21645
 20
-14.34309
 30
0.0
 10
-10.22062
 20
-14.34393
 30
0.0
 10
-10.22534
 20
-14.34393
 30
0.0
 10
-10.22534
 20
-14.34393
 30
0.0
 10
-10.23325
 20
-14.34393
 30
0.0
 10
-10.23967
 20
-14.34106
 30
0.0
 10
-10.24461
 20
-14.33535
 30
0.0
 10
-10.24461
 20
-14.33535
 30
0.0
 10
-10.24954
 20
-14.32963
 30
0.0
 10
-10.25201
 20
-14.32218
 30
0.0
 10
-10.25201
 20
-14.31298
 30
0.0
 10
-10.25201
 20
-14.31298
 30
0.0
 10
-10.25201
 20
-14.30381
 30
0.0
 10
-10.24954
 20
-14.29633
 30
0.0
 10
-10.24458
 20
-14.29059
 30
0.0
 10
-10.24458
 20
-14.29059
 30
0.0
 10
-10.23962
 20
-14.28485
 30
0.0
 10
-10.2332
 20
-14.28198
 30
0.0
 10
-10.22534
 20
-14.28198
 30
0.0
 10
-10.22534
 20
-14.28198
 30
0.0
 10
-10.22062
 20
-14.28198
 30
0.0
 10
-10.21645
 20
-14.28286
 30
0.0
 10
-10.21286
 20
-14.28457
 30
0.0
 10
-10.21286
 20
-14.28457
 30
0.0
 10
-10.20928
 20
-14.28629
 30
0.0
 10
-10.20613
 20
-14.2889
 30
0.0
 10
-10.20342
 20
-14.2924
 30
0.0
 10
-10.20342
 20
-14.2924
 30
0.0
 10
-10.20342
 20
-14.2924
 30
0.0
 10
-10.20342
 20
-14.28337
 30
0.0
 10
-10.20342
 20
-14.28337
 30
0.0
 10
-10.20342
 20
-14.28337
 30
0.0
 10
-10.20342
 20
-14.28337
 30
0.0
 10
-10.19357
 20
-14.28337
 30
0.0
 10
-10.19357
 20
-14.28337
 30
0.0
 10
-10.19357
 20
-14.28337
 30
0.0
 10
-10.19357
 20
-14.28337
 30
0.0
 10
-10.19357
 20
-14.33408
 30
0.0
 10
-10.19357
 20
-14.33408
 30
0.0
 10
-10.19357
 20
-14.33408
 30
0.0
 10
-10.18687
 20
-14.33307
 30
0.0
 10
-10.18162
 20
-14.33001
 30
0.0
 10
-10.17784
 20
-14.32488
 30
0.0
 10
-10.17784
 20
-14.32488
 30
0.0
 10
-10.17405
 20
-14.31976
 30
0.0
 10
-10.17215
 20
-14.31312
 30
0.0
 10
-10.17215
 20
-14.30501
 30
0.0
 10
-10.17215
 20
-14.30501
 30
0.0
 10
-10.17215
 20
-14.30009
 30
0.0
 10
-10.17287
 20
-14.29546
 30
0.0
 10
-10.17431
 20
-14.29116
 30
0.0
 10
-10.17431
 20
-14.29116
 30
0.0
 10
-10.17577
 20
-14.28683
 30
0.0
 10
-10.17795
 20
-14.28283
 30
0.0
 10
-10.18089
 20
-14.27916
 30
0.0
 10
-10.18089
 20
-14.27916
 30
0.0
 10
-10.18567
 20
-14.27314
 30
0.0
 10
-10.1915
 20
-14.26853
 30
0.0
 10
-10.19837
 20
-14.26536
 30
0.0
 10
-10.19837
 20
-14.26536
 30
0.0
 10
-10.20524
 20
-14.26216
 30
0.0
 10
-10.21271
 20
-14.26056
 30
0.0
 10
-10.2208
 20
-14.26056
 30
0.0
 10
-10.2208
 20
-14.26056
 30
0.0
 10
-10.22645
 20
-14.26056
 30
0.0
 10
-10.23186
 20
-14.26131
 30
0.0
 10
-10.23706
 20
-14.26279
 30
0.0
 10
-10.23706
 20
-14.26279
 30
0.0
 10
-10.24225
 20
-14.2643
 30
0.0
 10
-10.24705
 20
-14.26651
 30
0.0
 10
-10.25145
 20
-14.26945
 30
0.0
 10
-10.25145
 20
-14.26945
 30
0.0
 10
-10.25867
 20
-14.27413
 30
0.0
 10
-10.26431
 20
-14.28027
 30
0.0
 10
-10.26838
 20
-14.28789
 30
0.0
 10
-10.26838
 20
-14.28789
 30
0.0
 10
-10.27245
 20
-14.29548
 30
0.0
 10
-10.27447
 20
-14.30372
 30
0.0
 10
-10.27447
 20
-14.31258
 30
0.0
 10
-10.27447
 20
-14.31258
 30
0.0
 10
-10.27447
 20
-14.3199
 30
0.0
 10
-10.27316
 20
-14.32674
 30
0.0
 10
-10.27052
 20
-14.33311
 30
0.0
 10
-10.27052
 20
-14.33311
 30
0.0
 10
-10.26787
 20
-14.33951
 30
0.0
 10
-10.26406
 20
-14.34513
 30
0.0
 10
-10.25905
 20
-14.35
 30
0.0
 10
-10.25905
 20
-14.35
 30
0.0
 10
-10.25422
 20
-14.35477
 30
0.0
 10
-10.24863
 20
-14.35842
 30
0.0
 10
-10.2423
 20
-14.36091
 30
0.0
 10
-10.2423
 20
-14.36091
 30
0.0
 10
-10.23595
 20
-14.36343
 30
0.0
 10
-10.22918
 20
-14.36468
 30
0.0
 10
-10.22196
 20
-14.36468
 30
0.0
 10
-10.22196
 20
-14.36468
 30
0.0
 10
-10.21603
 20
-14.36468
 30
0.0
 10
-10.21022
 20
-14.36369
 30
0.0
 10
-10.20448
 20
-14.36169
 30
0.0
 10
-10.20448
 20
-14.36169
 30
0.0
 10
-10.19877
 20
-14.35969
 30
0.0
 10
-10.19352
 20
-14.35682
 30
0.0
 10
-10.18875
 20
-14.3531
 30
0.0
 10
-10.18875
 20
-14.3531
 30
0.0
 10
-10.18875
 20
-14.3531
 30
0.0
 10
-10.18254
 20
-14.36075
 30
0.0
 10
-10.18254
 20
-14.36075
 30
0.0
 10
-10.18254
 20
-14.36075
 30
0.0
 10
-10.18828
 20
-14.36519
 30
0.0
 10
-10.19456
 20
-14.36863
 30
0.0
 10
-10.20133
 20
-14.37098
 30
0.0
 10
-10.20133
 20
-14.37098
 30
0.0
 10
-10.2081
 20
-14.37335
 30
0.0
 10
-10.21497
 20
-14.37453
 30
0.0
 10
-10.22196
 20
-14.37453
 30
0.0
 10
-10.22196
 20
-14.37453
 30
0.0
 10
-10.23047
 20
-14.37453
 30
0.0
 10
-10.23847
 20
-14.37302
 30
0.0
 10
-10.24602
 20
-14.37001
 30
0.0
 10
-10.24602
 20
-14.37001
 30
0.0
 10
-10.25354
 20
-14.367
 30
0.0
 10
-10.26025
 20
-14.36263
 30
0.0
 10
-10.26612
 20
-14.35689
 30
0.0
 10
-10.26612
 20
-14.35689
 30
0.0
 10
-10.272
 20
-14.35115
 30
0.0
 10
-10.2765
 20
-14.3445
 30
0.0
 10
-10.27958
 20
-14.33695
 30
0.0
 10
-10.27958
 20
-14.33695
 30
0.0
 10
-10.28266
 20
-14.32937
 30
0.0
 10
-10.28419
 20
-14.32126
 30
0.0
 10
-10.28419
 20
-14.31258
 30
0.0
 10
-10.28419
 20
-14.31258
 30
0.0
 10
-10.28419
 20
-14.30421
 30
0.0
 10
-10.28263
 20
-14.29626
 30
0.0
 10
-10.27951
 20
-14.28866
 30
0.0
 10
-10.27951
 20
-14.28866
 30
0.0
 10
-10.27638
 20
-14.28109
 30
0.0
 10
-10.27191
 20
-14.27444
 30
0.0
 10
-10.26612
 20
-14.2687
 30
0.0
 10
-10.26612
 20
-14.2687
 30
0.0
 10
-10.2602
 20
-14.26286
 30
0.0
 10
-10.25335
 20
-14.2584
 30
0.0
 10
-10.24559
 20
-14.25529
 30
0.0
 10
-10.24559
 20
-14.25529
 30
0.0
 10
-10.23783
 20
-14.25219
 30
0.0
 10
-10.2296
 20
-14.25064
 30
0.0
 10
-10.22092
 20
-14.25064
 30
0.0
 10
-10.22092
 20
-14.25064
 30
0.0
 10
-10.21119
 20
-14.25064
 30
0.0
 10
-10.20215
 20
-14.25263
 30
0.0
 10
-10.19381
 20
-14.25663
 30
0.0
 10
-10.19381
 20
-14.25663
 30
0.0
 10
-10.18548
 20
-14.26063
 30
0.0
 10
-10.17847
 20
-14.2663
 30
0.0
 10
-10.17283
 20
-14.27366
 30
0.0
 10
-10.17283
 20
-14.27366
 30
0.0
 10
-10.16939
 20
-14.27815
 30
0.0
 10
-10.16676
 20
-14.28304
 30
0.0
 10
-10.16495
 20
-14.28833
 30
0.0
 10
-10.16495
 20
-14.28833
 30
0.0
 10
-10.16314
 20
-14.2936
 30
0.0
 10
-10.16222
 20
-14.29908
 30
0.0
 10
-10.16222
 20
-14.30473
 30
0.0
 10
-10.16222
 20
-14.30473
 30
0.0
 10
-10.16222
 20
-14.31682
 30
0.0
 10
-10.16587
 20
-14.32634
 30
0.0
 10
-10.17318
 20
-14.33333
 30
0.0
 10
-10.17318
 20
-14.33333
 30
0.0
 10
-10.18047
 20
-14.34031
 30
0.0
 10
-10.19056
 20
-14.34393
 30
0.0
 10
-10.20342
 20
-14.34421
 30
0.0
 10
-10.20342
 20
-14.34421
 30
0.0
 10
-10.20342
 20
-14.34421
 30
0.0
 10
-10.20342
 20
-14.33358
 30
0.0
 10
-10.20342
 20
-14.33358
 30
0.0
  0
SPLINE
  5
72
330
1F
100
AcDbEntity
  8
Layer 1
 62
   250
100
AcDbSpline
210
0.0
220
0.0
230
1.0
 70
    11
 71
     3
 72
    36
 73
    32
 74
     0
 42
0.0000000001
 43
0.0000000001
 40
0.0
 40
0.0
 40
0.0
 40
0.0
 40
0.125
 40
0.125
 40
0.125
 40
0.125
 40
0.25
 40
0.25
 40
0.25
 40
0.25
 40
0.375
 40
0.375
 40
0.375
 40
0.375
 40
0.5
 40
0.5
 40
0.5
 40
0.5
 40
0.625
 40
0.625
 40
0.625
 40
0.625
 40
0.75
 40
0.75
 40
0.75
 40
0.75
 40
0.875
 40
0.875
 40
0.875
 40
0.875
 40
1.0
 40
1.0
 40
1.0
 40
1.0
 10
-10.89004
 20
-15.33208
 30
0.0
 10
-10.89461
 20
-15.33208
 30
0.0
 10
-10.89806
 20
-15.33385
 30
0.0
 10
-10.90041
 20
-15.3374
 30
0.0
 10
-10.90041
 20
-15.3374
 30
0.0
 10
-10.90276
 20
-15.34095
 30
0.0
 10
-10.90393
 20
-15.34622
 30
0.0
 10
-10.90393
 20
-15.35317
 30
0.0
 10
-10.90393
 20
-15.35317
 30
0.0
 10
-10.90393
 20
-15.3601
 30
0.0
 10
-10.90276
 20
-15.36535
 30
0.0
 10
-10.90041
 20
-15.36892
 30
0.0
 10
-10.90041
 20
-15.36892
 30
0.0
 10
-10.89806
 20
-15.37249
 30
0.0
 10
-10.89461
 20
-15.37427
 30
0.0
 10
-10.89004
 20
-15.37427
 30
0.0
 10
-10.89004
 20
-15.37427
 30
0.0
 10
-10.88546
 20
-15.37427
 30
0.0
 10
-10.88199
 20
-15.37249
 30
0.0
 10
-10.87964
 20
-15.36892
 30
0.0
 10
-10.87964
 20
-15.36892
 30
0.0
 10
-10.87729
 20
-15.36535
 30
0.0
 10
-10.87613
 20
-15.3601
 30
0.0
 10
-10.87613
 20
-15.35317
 30
0.0
 10
-10.87613
 20
-15.35317
 30
0.0
 10
-10.87613
 20
-15.34622
 30
0.0
 10
-10.87729
 20
-15.34095
 30
0.0
 10
-10.87964
 20
-15.3374
 30
0.0
 10
-10.87964
 20
-15.3374
 30
0.0
 10
-10.88199
 20
-15.33385
 30
0.0
 10
-10.88546
 20
-15.33208
 30
0.0
 10
-10.89004
 20
-15.33208
 30
0.0
  0
SPLINE
  5
73
330
1F
100
AcDbEntity
  8
Layer 1
 62
   250
100
AcDbSpline
210
0.0
220
0.0
230
1.0
 70
    11
 71
     3
 72
    36
 73
    32
 74
     0
 42
0.0000000001
 43
0.0000000001
 40
0.0
 40
0.0
 40
0.0
 40
0.0
 40
0.125
 40
0.125
 40
0.125
 40
0.125
 40
0.25
 40
0.25
 40
0.25
 40
0.25
 40
0.375
 40
0.375
 40
0.375
 40
0.375
 40
0.5
 40
0.5
 40
0.5
 40
0.5
 40
0.625
 40
0.625
 40
0.625
 40
0.625
 40
0.75
 40
0.75
 40
0.75
 40
0.75
 40
0.875
 40
0.875
 40
0.875
 40
0.875
 40
1.0
 40
1.0
 40
1.0
 40
1.0
 10
-10.89004
 20
-15.32446
 30
0.0
 10
-10.88246
 20
-15.32446
 30
0.0
 10
-10.87666
 20
-15.32691
 30
0.0
 10
-10.87264
 20
-15.33183
 30
0.0
 10
-10.87264
 20
-15.33183
 30
0.0
 10
-10.86862
 20
-15.33675
 30
0.0
 10
-10.86661
 20
-15.34387
 30
0.0
 10
-10.86661
 20
-15.35317
 30
0.0
 10
-10.86661
 20
-15.35317
 30
0.0
 10
-10.86661
 20
-15.36252
 30
0.0
 10
-10.86861
 20
-15.36964
 30
0.0
 10
-10.87261
 20
-15.37454
 30
0.0
 10
-10.87261
 20
-15.37454
 30
0.0
 10
-10.87663
 20
-15.37944
 30
0.0
 10
-10.88243
 20
-15.38189
 30
0.0
 10
-10.89004
 20
-15.38189
 30
0.0
 10
-10.89004
 20
-15.38189
 30
0.0
 10
-10.89764
 20
-15.38189
 30
0.0
 10
-10.90343
 20
-15.37944
 30
0.0
 10
-10.90745
 20
-15.37454
 30
0.0
 10
-10.90745
 20
-15.37454
 30
0.0
 10
-10.91145
 20
-15.36964
 30
0.0
 10
-10.91345
 20
-15.36252
 30
0.0
 10
-10.91345
 20
-15.35317
 30
0.0
 10
-10.91345
 20
-15.35317
 30
0.0
 10
-10.91345
 20
-15.34387
 30
0.0
 10
-10.91145
 20
-15.33675
 30
0.0
 10
-10.90745
 20
-15.33183
 30
0.0
 10
-10.90745
 20
-15.33183
 30
0.0
 10
-10.90343
 20
-15.32691
 30
0.0
 10
-10.89764
 20
-15.32446
 30
0.0
 10
-10.89004
 20
-15.32446
 30
0.0
  0
SPLINE
  5
74
330
1F
100
AcDbEntity
  8
Layer 1
 62
   250
100
AcDbSpline
210
0.0
220
0.0
230
1.0
 70
    11
 71
     3
 72
    36
 73
    32
 74
     0
 42
0.0000000001
 43
0.0000000001
 40
0.0
 40
0.0
 40
0.0
 40
0.0
 40
0.125
 40
0.125
 40
0.125
 40
0.125
 40
0.25
 40
0.25
 40
0.25
 40
0.25
 40
0.375
 40
0.375
 40
0.375
 40
0.375
 40
0.5
 40
0.5
 40
0.5
 40
0.5
 40
0.625
 40
0.625
 40
0.625
 40
0.625
 40
0.75
 40
0.75
 40
0.75
 40
0.75
 40
0.875
 40
0.875
 40
0.875
 40
0.875
 40
1.0
 40
1.0
 40
1.0
 40
1.0
 10
-10.82983
 20
-15.33208
 30
0.0
 10
-10.8344
 20
-15.33208
 30
0.0
 10
-10.83785
 20
-15.33385
 30
0.0
 10
-10.8402
 20
-15.3374
 30
0.0
 10
-10.8402
 20
-15.3374
 30
0.0
 10
-10.84255
 20
-15.34095
 30
0.0
 10
-10.84372
 20
-15.34622
 30
0.0
 10
-10.84372
 20
-15.35317
 30
0.0
 10
-10.84372
 20
-15.35317
 30
0.0
 10
-10.84372
 20
-15.3601
 30
0.0
 10
-10.84255
 20
-15.36535
 30
0.0
 10
-10.8402
 20
-15.36892
 30
0.0
 10
-10.8402
 20
-15.36892
 30
0.0
 10
-10.83785
 20
-15.37249
 30
0.0
 10
-10.8344
 20
-15.37427
 30
0.0
 10
-10.82983
 20
-15.37427
 30
0.0
 10
-10.82983
 20
-15.37427
 30
0.0
 10
-10.82525
 20
-15.37427
 30
0.0
 10
-10.82178
 20
-15.37249
 30
0.0
 10
-10.81943
 20
-15.36892
 30
0.0
 10
-10.81943
 20
-15.36892
 30
0.0
 10
-10.81708
 20
-15.36535
 30
0.0
 10
-10.81592
 20
-15.3601
 30
0.0
 10
-10.81592
 20
-15.35317
 30
0.0
 10
-10.81592
 20
-15.35317
 30
0.0
 10
-10.81592
 20
-15.34622
 30
0.0
 10
-10.81708
 20
-15.34095
 30
0.0
 10
-10.81943
 20
-15.3374
 30
0.0
 10
-10.81943
 20
-15.3374
 30
0.0
 10
-10.82178
 20
-15.33385
 30
0.0
 10
-10.82525
 20
-15.33208
 30
0.0
 10
-10.82983
 20
-15.33208
 30
0.0
  0
SPLINE
  5
75
330
1F
100
AcDbEntity
  8
Layer 1
 62
   250
100
AcDbSpline
210
0.0
220
0.0
230
1.0
 70
    11
 71
     3
 72
    36
 73
    32
 74
     0
 42
0.0000000001
 43
0.0000000001
 40
0.0
 40
0.0
 40
0.0
 40
0.0
 40
0.125
 40
0.125
 40
0.125
 40
0.125
 40
0.25
 40
0.25
 40
0.25
 40
0.25
 40
0.375
 40
0.375
 40
0.375
 40
0.375
 40
0.5
 40
0.5
 40
0.5
 40
0.5
 40
0.625
 40
0.625
 40
0.625
 40
0.625
 40
0.75
 40
0.75
 40
0.75
 40
0.75
 40
0.875
 40
0.875
 40
0.875
 40
0.875
 40
1.0
 40
1.0
 40
1.0
 40
1.0
 10
-10.82983
 20
-15.32446
 30
0.0
 10
-10.82225
 20
-15.32446
 30
0.0
 10
-10.81645
 20
-15.32691
 30
0.0
 10
-10.81243
 20
-15.33183
 30
0.0
 10
-10.81243
 20
-15.33183
 30
0.0
 10
-10.80841
 20
-15.33675
 30
0.0
 10
-10.8064
 20
-15.34387
 30
0.0
 10
-10.8064
 20
-15.35317
 30
0.0
 10
-10.8064
 20
-15.35317
 30
0.0
 10
-10.8064
 20
-15.36252
 30
0.0
 10
-10.8084
 20
-15.36964
 30
0.0
 10
-10.8124
 20
-15.37454
 30
0.0
 10
-10.8124
 20
-15.37454
 30
0.0
 10
-10.81642
 20
-15.37944
 30
0.0
 10
-10.82222
 20
-15.38189
 30
0.0
 10
-10.82983
 20
-15.38189
 30
0.0
 10
-10.82983
 20
-15.38189
 30
0.0
 10
-10.83743
 20
-15.38189
 30
0.0
 10
-10.84322
 20
-15.37944
 30
0.0
 10
-10.84724
 20
-15.37454
 30
0.0
 10
-10.84724
 20
-15.37454
 30
0.0
 10
-10.85124
 20
-15.36964
 30
0.0
 10
-10.85324
 20
-15.36252
 30
0.0
 10
-10.85324
 20
-15.35317
 30
0.0
 10
-10.85324
 20
-15.35317
 30
0.0
 10
-10.85324
 20
-15.34387
 30
0.0
 10
-10.85124
 20
-15.33675
 30
0.0
 10
-10.84724
 20
-15.33183
 30
0.0
 10
-10.84724
 20
-15.33183
 30
0.0
 10
-10.84322
 20
-15.32691
 30
0.0
 10
-10.83743
 20
-15.32446
 30
0.0
 10
-10.82983
 20
-15.32446
 30
0.0
  0
SPLINE
  5
76
330
1F
100
AcDbEntity
  8
Layer 1
 62
   250
100
AcDbSpline
210
0.0
220
0.0
230
1.0
 70
    11
 71
     3
 72
   112
 73
   108
 74
     0
 42
0.0000000001
 43
0.0000000001
 40
0.0
 40
0.0
 40
0.0
 40
0.0
 40
0.037037037037037
 40
0.037037037037037
 40
0.037037037037037
 40
0.037037037037037
 40
0.0740740740740741
 40
0.0740740740740741
 40
0.0740740740740741
 40
0.0740740740740741
 40
0.1111111111111111
 40
0.1111111111111111
 40
0.1111111111111111
 40
0.1111111111111111
 40
0.1481481481481481
 40
0.1481481481481481
 40
0.1481481481481481
 40
0.1481481481481481
 40
0.1851851851851852
 40
0.1851851851851852
 40
0.1851851851851852
 40
0.1851851851851852
 40
0.2222222222222222
 40
0.2222222222222222
 40
0.2222222222222222
 40
0.2222222222222222
 40
0.2592592592592592
 40
0.2592592592592592
 40
0.2592592592592592
 40
0.2592592592592592
 40
0.2962962962962963
 40
0.2962962962962963
 40
0.2962962962962963
 40
0.2962962962962963
 40
0.3333333333333333
 40
0.3333333333333333
 40
0.3333333333333333
 40
0.3333333333333333
 40
0.3703703703703703
 40
0.3703703703703703
 40
0.3703703703703703
 40
0.3703703703703703
 40
0.4074074074074074
 40
0.4074074074074074
 40
0.4074074074074074
 40
0.4074074074074074
 40
0.4444444444444444
 40
0.4444444444444444
 40
0.4444444444444444
 40
0.4444444444444444
 40
0.4814814814814815
 40
0.4814814814814815
 40
0.4814814814814815
 40
0.4814814814814815
 40
0.5185185185185185
 40
0.5185185185185185
 40
0.5185185185185185
 40
0.5185185185185185
 40
0.5555555555555556
 40
0.5555555555555556
 40
0.5555555555555556
 40
0.5555555555555556
 40
0.5925925925925926
 40
0.5925925925925926
 40
0.5925925925925926
 40
0.5925925925925926
 40
0.6296296296296295
 40
0.6296296296296295
 40
0.6296296296296295
 40
0.6296296296296295
 40
0.6666666666666665
 40
0.6666666666666665
 40
0.6666666666666665
 40
0.6666666666666665
 40
0.7037037037037035
 40
0.7037037037037035
 40
0.7037037037037035
 40
0.7037037037037035
 40
0.7407407407407405
 40
0.7407407407407405
 40
0.7407407407407405
 40
0.7407407407407405
 40
0.7777777777777775
 40
0.7777777777777775
 40
0.7777777777777775
 40
0.7777777777777775
 40
0.8148148148148144
 40
0.8148148148148144
 40
0.8148148148148144
 40
0.8148148148148144
 40
0.8518518518518514
 40
0.8518518518518514
 40
0.8518518518518514
 40
0.8518518518518514
 40
0.8888888888888884
 40
0.8888888888888884
 40
0.8888888888888884
 40
0.8888888888888884
 40
0.9259259259259254
 40
0.9259259259259254
 40
0.9259259259259254
 40
0.9259259259259254
 40
0.9629629629629624
 40
0.9629629629629624
 40
0.9629629629629624
 40
0.9629629629629624
 40
1.0
 40
1.0
 40
1.0
 40
1.0
 10
-10.76671
 20
-15.33135
 30
0.0
 10
-10.76561
 20
-15.329
 30
0.0
 10
-10.76419
 20
-15.32726
 30
0.0
 10
-10.76247
 20
-15.32615
 30
0.0
 10
-10.76247
 20
-15.32615
 30
0.0
 10
-10.76077
 20
-15.32503
 30
0.0
 10
-10.75871
 20
-15.32446
 30
0.0
 10
-10.75631
 20
-15.32446
 30
0.0
 10
-10.75631
 20
-15.32446
 30
0.0
 10
-10.75191
 20
-15.32446
 30
0.0
 10
-10.7488
 20
-15.32616
 30
0.0
 10
-10.747
 20
-15.32956
 30
0.0
 10
-10.747
 20
-15.32956
 30
0.0
 10
-10.74519
 20
-15.33297
 30
0.0
 10
-10.74429
 20
-15.33937
 30
0.0
 10
-10.74429
 20
-15.34878
 30
0.0
 10
-10.74429
 20
-15.34878
 30
0.0
 10
-10.74429
 20
-15.34878
 30
0.0
 10
-10.74429
 20
-15.38047
 30
0.0
 10
-10.74429
 20
-15.38047
 30
0.0
 10
-10.74429
 20
-15.38047
 30
0.0
 10
-10.74429
 20
-15.38047
 30
0.0
 10
-10.75249
 20
-15.38047
 30
0.0
 10
-10.75249
 20
-15.38047
 30
0.0
 10
-10.75249
 20
-15.38047
 30
0.0
 10
-10.75249
 20
-15.38047
 30
0.0
 10
-10.75249
 20
-15.34917
 30
0.0
 10
-10.75249
 20
-15.34917
 30
0.0
 10
-10.75249
 20
-15.34917
 30
0.0
 10
-10.75249
 20
-15.34145
 30
0.0
 10
-10.75292
 20
-15.33667
 30
0.0
 10
-10.75379
 20
-15.33478
 30
0.0
 10
-10.75379
 20
-15.33478
 30
0.0
 10
-10.75464
 20
-15.33292
 30
0.0
 10
-10.75622
 20
-15.33198
 30
0.0
 10
-10.75851
 20
-15.33198
 30
0.0
 10
-10.75851
 20
-15.33198
 30
0.0
 10
-10.76111
 20
-15.33198
 30
0.0
 10
-10.76289
 20
-15.33298
 30
0.0
 10
-10.76386
 20
-15.33498
 30
0.0
 10
-10.76386
 20
-15.33498
 30
0.0
 10
-10.76481
 20
-15.33698
 30
0.0
 10
-10.76529
 20
-15.34172
 30
0.0
 10
-10.76529
 20
-15.34917
 30
0.0
 10
-10.76529
 20
-15.34917
 30
0.0
 10
-10.76529
 20
-15.34917
 30
0.0
 10
-10.76529
 20
-15.38047
 30
0.0
 10
-10.76529
 20
-15.38047
 30
0.0
 10
-10.76529
 20
-15.38047
 30
0.0
 10
-10.76529
 20
-15.38047
 30
0.0
 10
-10.77349
 20
-15.38047
 30
0.0
 10
-10.77349
 20
-15.38047
 30
0.0
 10
-10.77349
 20
-15.38047
 30
0.0
 10
-10.77349
 20
-15.38047
 30
0.0
 10
-10.77349
 20
-15.34917
 30
0.0
 10
-10.77349
 20
-15.34917
 30
0.0
 10
-10.77349
 20
-15.34917
 30
0.0
 10
-10.77349
 20
-15.34135
 30
0.0
 10
-10.77396
 20
-15.33653
 30
0.0
 10
-10.77489
 20
-15.33472
 30
0.0
 10
-10.77489
 20
-15.33472
 30
0.0
 10
-10.77581
 20
-15.3329
 30
0.0
 10
-10.77747
 20
-15.33198
 30
0.0
 10
-10.77989
 20
-15.33198
 30
0.0
 10
-10.77989
 20
-15.33198
 30
0.0
 10
-10.78227
 20
-15.33198
 30
0.0
 10
-10.78393
 20
-15.33298
 30
0.0
 10
-10.78484
 20
-15.33498
 30
0.0
 10
-10.78484
 20
-15.33498
 30
0.0
 10
-10.78578
 20
-15.33698
 30
0.0
 10
-10.78624
 20
-15.34172
 30
0.0
 10
-10.78624
 20
-15.34917
 30
0.0
 10
-10.78624
 20
-15.34917
 30
0.0
 10
-10.78624
 20
-15.34917
 30
0.0
 10
-10.78624
 20
-15.38047
 30
0.0
 10
-10.78624
 20
-15.38047
 30
0.0
 10
-10.78624
 20
-15.38047
 30
0.0
 10
-10.78624
 20
-15.38047
 30
0.0
 10
-10.79439
 20
-15.38047
 30
0.0
 10
-10.79439
 20
-15.38047
 30
0.0
 10
-10.79439
 20
-15.38047
 30
0.0
 10
-10.79439
 20
-15.38047
 30
0.0
 10
-10.79439
 20
-15.32578
 30
0.0
 10
-10.79439
 20
-15.32578
 30
0.0
 10
-10.79439
 20
-15.32578
 30
0.0
 10
-10.79439
 20
-15.32578
 30
0.0
 10
-10.78624
 20
-15.32578
 30
0.0
 10
-10.78624
 20
-15.32578
 30
0.0
 10
-10.78624
 20
-15.32578
 30
0.0
 10
-10.78624
 20
-15.32578
 30
0.0
 10
-10.78624
 20
-15.33046
 30
0.0
 10
-10.78624
 20
-15.33046
 30
0.0
 10
-10.78624
 20
-15.33046
 30
0.0
 10
-10.78518
 20
-15.32851
 30
0.0
 10
-10.78383
 20
-15.32703
 30
0.0
 10
-10.78221
 20
-15.326
 30
0.0
 10
-10.78221
 20
-15.326
 30
0.0
 10
-10.78061
 20
-15.32498
 30
0.0
 10
-10.77877
 20
-15.32446
 30
0.0
 10
-10.77672
 20
-15.32446
 30
0.0
 10
-10.77672
 20
-15.32446
 30
0.0
 10
-10.77424
 20
-15.32446
 30
0.0
 10
-10.77219
 20
-15.32503
 30
0.0
 10
-10.77054
 20
-15.32616
 30
0.0
 10
-10.77054
 20
-15.32616
 30
0.0
 10
-10.76889
 20
-15.32731
 30
0.0
 10
-10.76762
 20
-15.32903
 30
0.0
 10
-10.76671
 20
-15.33135
 30
0.0
  0
SPLINE
  5
77
330
1F
100
AcDbEntity
  8
Layer 1
 62
   250
100
AcDbSpline
210
0.0
220
0.0
230
1.0
 70
    11
 71
     3
 72
    20
 73
    16
 74
     0
 42
0.0000000001
 43
0.0000000001
 40
0.0
 40
0.0
 40
0.0
 40
0.0
 40
0.25
 40
0.25
 40
0.25
 40
0.25
 40
0.5
 40
0.5
 40
0.5
 40
0.5
 40
0.75
 40
0.75
 40
0.75
 40
0.75
 40
1.0
 40
1.0
 40
1.0
 40
1.0
 10
-10.71561
 20
-15.36557
 30
0.0
 10
-10.71561
 20
-15.36557
 30
0.0
 10
-10.70331
 20
-15.36557
 30
0.0
 10
-10.70331
 20
-15.36557
 30
0.0
 10
-10.70331
 20
-15.36557
 30
0.0
 10
-10.70331
 20
-15.36557
 30
0.0
 10
-10.70331
 20
-15.38047
 30
0.0
 10
-10.70331
 20
-15.38047
 30
0.0
 10
-10.70331
 20
-15.38047
 30
0.0
 10
-10.70331
 20
-15.38047
 30
0.0
 10
-10.71561
 20
-15.38047
 30
0.0
 10
-10.71561
 20
-15.38047
 30
0.0
 10
-10.71561
 20
-15.38047
 30
0.0
 10
-10.71561
 20
-15.38047
 30
0.0
 10
-10.71561
 20
-15.36557
 30
0.0
 10
-10.71561
 20
-15.36557
 30
0.0
  0
SPLINE
  5
78
330
1F
100
AcDbEntity
  8
Layer 1
 62
   250
100
AcDbSpline
210
0.0
220
0.0
230
1.0
 70
    11
 71
     3
 72
    52
 73
    48
 74
     0
 42
0.0000000001
 43
0.0000000001
 40
0.0
 40
0.0
 40
0.0
 40
0.0
 40
0.0833333333333333
 40
0.0833333333333333
 40
0.0833333333333333
 40
0.0833333333333333
 40
0.1666666666666667
 40
0.1666666666666667
 40
0.1666666666666667
 40
0.1666666666666667
 40
0.25
 40
0.25
 40
0.25
 40
0.25
 40
0.3333333333333333
 40
0.3333333333333333
 40
0.3333333333333333
 40
0.3333333333333333
 40
0.4166666666666666
 40
0.4166666666666666
 40
0.4166666666666666
 40
0.4166666666666666
 40
0.4999999999999999
 40
0.4999999999999999
 40
0.4999999999999999
 40
0.4999999999999999
 40
0.5833333333333333
 40
0.5833333333333333
 40
0.5833333333333333
 40
0.5833333333333333
 40
0.6666666666666666
 40
0.6666666666666666
 40
0.6666666666666666
 40
0.6666666666666666
 40
0.75
 40
0.75
 40
0.75
 40
0.75
 40
0.8333333333333334
 40
0.8333333333333334
 40
0.8333333333333334
 40
0.8333333333333334
 40
0.9166666666666667
 40
0.9166666666666667
 40
0.9166666666666667
 40
0.9166666666666667
 40
1.0
 40
1.0
 40
1.0
 40
1.0
 10
-10.64809
 20
-15.36065
 30
0.0
 10
-10.64809
 20
-15.36469
 30
0.0
 10
-10.64735
 20
-15.36772
 30
0.0
 10
-10.64587
 20
-15.36977
 30
0.0
 10
-10.64587
 20
-15.36977
 30
0.0
 10
-10.64439
 20
-15.37182
 30
0.0
 10
-10.6422
 20
-15.37285
 30
0.0
 10
-10.6393
 20
-15.37285
 30
0.0
 10
-10.6393
 20
-15.37285
 30
0.0
 10
-10.6393
 20
-15.37285
 30
0.0
 10
-10.6288
 20
-15.37285
 30
0.0
 10
-10.6288
 20
-15.37285
 30
0.0
 10
-10.6288
 20
-15.37285
 30
0.0
 10
-10.6288
 20
-15.37285
 30
0.0
 10
-10.6288
 20
-15.38047
 30
0.0
 10
-10.6288
 20
-15.38047
 30
0.0
 10
-10.6288
 20
-15.38047
 30
0.0
 10
-10.6288
 20
-15.38047
 30
0.0
 10
-10.64017
 20
-15.38047
 30
0.0
 10
-10.64017
 20
-15.38047
 30
0.0
 10
-10.64017
 20
-15.38047
 30
0.0
 10
-10.64555
 20
-15.38047
 30
0.0
 10
-10.6497
 20
-15.37874
 30
0.0
 10
-10.65265
 20
-15.37529
 30
0.0
 10
-10.65265
 20
-15.37529
 30
0.0
 10
-10.6556
 20
-15.37184
 30
0.0
 10
-10.65707
 20
-15.36695
 30
0.0
 10
-10.65707
 20
-15.36065
 30
0.0
 10
-10.65707
 20
-15.36065
 30
0.0
 10
-10.65707
 20
-15.36065
 30
0.0
 10
-10.65707
 20
-15.31098
 30
0.0
 10
-10.65707
 20
-15.31098
 30
0.0
 10
-10.65707
 20
-15.31098
 30
0.0
 10
-10.65707
 20
-15.31098
 30
0.0
 10
-10.67147
 20
-15.31098
 30
0.0
 10
-10.67147
 20
-15.31098
 30
0.0
 10
-10.67147
 20
-15.31098
 30
0.0
 10
-10.67147
 20
-15.31098
 30
0.0
 10
-10.67147
 20
-15.30395
 30
0.0
 10
-10.67147
 20
-15.30395
 30
0.0
 10
-10.67147
 20
-15.30395
 30
0.0
 10
-10.67147
 20
-15.30395
 30
0.0
 10
-10.64809
 20
-15.30395
 30
0.0
 10
-10.64809
 20
-15.30395
 30
0.0
 10
-10.64809
 20
-15.30395
 30
0.0
 10
-10.64809
 20
-15.30395
 30
0.0
 10
-10.64809
 20
-15.36065
 30
0.0
 10
-10.64809
 20
-15.36065
 30
0.0
  0
SPLINE
  5
79
330
1F
100
AcDbEntity
  8
Layer 1
 62
   250
100
AcDbSpline
210
0.0
220
0.0
230
1.0
 70
    11
 71
     3
 72
    76
 73
    72
 74
     0
 42
0.0000000001
 43
0.0000000001
 40
0.0
 40
0.0
 40
0.0
 40
0.0
 40
0.0555555555555556
 40
0.0555555555555556
 40
0.0555555555555556
 40
0.0555555555555556
 40
0.1111111111111111
 40
0.1111111111111111
 40
0.1111111111111111
 40
0.1111111111111111
 40
0.1666666666666667
 40
0.1666666666666667
 40
0.1666666666666667
 40
0.1666666666666667
 40
0.2222222222222222
 40
0.2222222222222222
 40
0.2222222222222222
 40
0.2222222222222222
 40
0.2777777777777778
 40
0.2777777777777778
 40
0.2777777777777778
 40
0.2777777777777778
 40
0.3333333333333334
 40
0.3333333333333334
 40
0.3333333333333334
 40
0.3333333333333334
 40
0.388888888888889
 40
0.388888888888889
 40
0.388888888888889
 40
0.388888888888889
 40
0.4444444444444445
 40
0.4444444444444445
 40
0.4444444444444445
 40
0.4444444444444445
 40
0.5000000000000001
 40
0.5000000000000001
 40
0.5000000000000001
 40
0.5000000000000001
 40
0.5555555555555557
 40
0.5555555555555557
 40
0.5555555555555557
 40
0.5555555555555557
 40
0.6111111111111113
 40
0.6111111111111113
 40
0.6111111111111113
 40
0.6111111111111113
 40
0.6666666666666669
 40
0.6666666666666669
 40
0.6666666666666669
 40
0.6666666666666669
 40
0.7222222222222224
 40
0.7222222222222224
 40
0.7222222222222224
 40
0.7222222222222224
 40
0.777777777777778
 40
0.777777777777778
 40
0.777777777777778
 40
0.777777777777778
 40
0.8333333333333336
 40
0.8333333333333336
 40
0.8333333333333336
 40
0.8333333333333336
 40
0.8888888888888892
 40
0.8888888888888892
 40
0.8888888888888892
 40
0.8888888888888892
 40
0.9444444444444448
 40
0.9444444444444448
 40
0.9444444444444448
 40
0.9444444444444448
 40
1.0
 40
1.0
 40
1.0
 40
1.0
 10
-10.58539
 20
-15.31025
 30
0.0
 10
-10.58539
 20
-15.31025
 30
0.0
 10
-10.58539
 20
-15.32578
 30
0.0
 10
-10.58539
 20
-15.32578
 30
0.0
 10
-10.58539
 20
-15.32578
 30
0.0
 10
-10.58539
 20
-15.32578
 30
0.0
 10
-10.56669
 20
-15.32578
 30
0.0
 10
-10.56669
 20
-15.32578
 30
0.0
 10
-10.56669
 20
-15.32578
 30
0.0
 10
-10.56669
 20
-15.32578
 30
0.0
 10
-10.56669
 20
-15.33677
 30
0.0
 10
-10.56669
 20
-15.33677
 30
0.0
 10
-10.56669
 20
-15.33677
 30
0.0
 10
-10.56669
 20
-15.33677
 30
0.0
 10
-10.58539
 20
-15.33677
 30
0.0
 10
-10.58539
 20
-15.33677
 30
0.0
 10
-10.58539
 20
-15.33677
 30
0.0
 10
-10.58539
 20
-15.33677
 30
0.0
 10
-10.58539
 20
-15.36265
 30
0.0
 10
-10.58539
 20
-15.36265
 30
0.0
 10
-10.58539
 20
-15.36265
 30
0.0
 10
-10.58539
 20
-15.36509
 30
0.0
 10
-10.58479
 20
-15.36684
 30
0.0
 10
-10.58361
 20
-15.3679
 30
0.0
 10
-10.58361
 20
-15.3679
 30
0.0
 10
-10.58243
 20
-15.36895
 30
0.0
 10
-10.58044
 20
-15.36949
 30
0.0
 10
-10.57768
 20
-15.36949
 30
0.0
 10
-10.57768
 20
-15.36949
 30
0.0
 10
-10.57768
 20
-15.36949
 30
0.0
 10
-10.56669
 20
-15.36949
 30
0.0
 10
-10.56669
 20
-15.36949
 30
0.0
 10
-10.56669
 20
-15.36949
 30
0.0
 10
-10.56669
 20
-15.36949
 30
0.0
 10
-10.56669
 20
-15.38047
 30
0.0
 10
-10.56669
 20
-15.38047
 30
0.0
 10
-10.56669
 20
-15.38047
 30
0.0
 10
-10.56669
 20
-15.38047
 30
0.0
 10
-10.57871
 20
-15.38047
 30
0.0
 10
-10.57871
 20
-15.38047
 30
0.0
 10
-10.57871
 20
-15.38047
 30
0.0
 10
-10.58691
 20
-15.38047
 30
0.0
 10
-10.59246
 20
-15.37915
 30
0.0
 10
-10.59534
 20
-15.37654
 30
0.0
 10
-10.59534
 20
-15.37654
 30
0.0
 10
-10.59824
 20
-15.37392
 30
0.0
 10
-10.59969
 20
-15.36907
 30
0.0
 10
-10.59969
 20
-15.36197
 30
0.0
 10
-10.59969
 20
-15.36197
 30
0.0
 10
-10.59969
 20
-15.36197
 30
0.0
 10
-10.59969
 20
-15.33677
 30
0.0
 10
-10.59969
 20
-15.33677
 30
0.0
 10
-10.59969
 20
-15.33677
 30
0.0
 10
-10.59969
 20
-15.33677
 30
0.0
 10
-10.61366
 20
-15.33677
 30
0.0
 10
-10.61366
 20
-15.33677
 30
0.0
 10
-10.61366
 20
-15.33677
 30
0.0
 10
-10.61366
 20
-15.33677
 30
0.0
 10
-10.61366
 20
-15.32578
 30
0.0
 10
-10.61366
 20
-15.32578
 30
0.0
 10
-10.61366
 20
-15.32578
 30
0.0
 10
-10.61366
 20
-15.32578
 30
0.0
 10
-10.59969
 20
-15.32578
 30
0.0
 10
-10.59969
 20
-15.32578
 30
0.0
 10
-10.59969
 20
-15.32578
 30
0.0
 10
-10.59969
 20
-15.32578
 30
0.0
 10
-10.59969
 20
-15.31025
 30
0.0
 10
-10.59969
 20
-15.31025
 30
0.0
 10
-10.59969
 20
-15.31025
 30
0.0
 10
-10.59969
 20
-15.31025
 30
0.0
 10
-10.58539
 20
-15.31025
 30
0.0
 10
-10.58539
 20
-15.31025
 30
0.0
  0
SPLINE
  5
7A
330
1F
100
AcDbEntity
  8
Layer 1
 62
   250
100
AcDbSpline
210
0.0
220
0.0
230
1.0
 70
    11
 71
     3
 72
    20
 73
    16
 74
     0
 42
0.0000000001
 43
0.0000000001
 40
0.0
 40
0.0
 40
0.0
 40
0.0
 40
0.25
 40
0.25
 40
0.25
 40
0.25
 40
0.5
 40
0.5
 40
0.5
 40
0.5
 40
0.75
 40
0.75
 40
0.75
 40
0.75
 40
1.0
 40
1.0
 40
1.0
 40
1.0
 10
-10.51497
 20
-15.30756
 30
0.0
 10
-10.51497
 20
-15.30756
 30
0.0
 10
-10.50418
 20
-15.30756
 30
0.0
 10
-10.50418
 20
-15.30756
 30
0.0
 10
-10.50418
 20
-15.30756
 30
0.0
 10
-10.50418
 20
-15.30756
 30
0.0
 10
-10.54257
 20
-15.38975
 30
0.0
 10
-10.54257
 20
-15.38975
 30
0.0
 10
-10.54257
 20
-15.38975
 30
0.0
 10
-10.54257
 20
-15.38975
 30
0.0
 10
-10.55335
 20
-15.38975
 30
0.0
 10
-10.55335
 20
-15.38975
 30
0.0
 10
-10.55335
 20
-15.38975
 30
0.0
 10
-10.55335
 20
-15.38975
 30
0.0
 10
-10.51497
 20
-15.30756
 30
0.0
 10
-10.51497
 20
-15.30756
 30
0.0
  0
SPLINE
  5
7B
330
1F
100
AcDbEntity
  8
Layer 1
 62
   250
100
AcDbSpline
210
0.0
220
0.0
230
1.0
 70
    11
 71
     3
 72
    68
 73
    64
 74
     0
 42
0.0000000001
 43
0.0000000001
 40
0.0
 40
0.0
 40
0.0
 40
0.0
 40
0.0625
 40
0.0625
 40
0.0625
 40
0.0625
 40
0.125
 40
0.125
 40
0.125
 40
0.125
 40
0.1875
 40
0.1875
 40
0.1875
 40
0.1875
 40
0.25
 40
0.25
 40
0.25
 40
0.25
 40
0.3125
 40
0.3125
 40
0.3125
 40
0.3125
 40
0.375
 40
0.375
 40
0.375
 40
0.375
 40
0.4375
 40
0.4375
 40
0.4375
 40
0.4375
 40
0.5
 40
0.5
 40
0.5
 40
0.5
 40
0.5625
 40
0.5625
 40
0.5625
 40
0.5625
 40
0.625
 40
0.625
 40
0.625
 40
0.625
 40
0.6875
 40
0.6875
 40
0.6875
 40
0.6875
 40
0.75
 40
0.75
 40
0.75
 40
0.75
 40
0.8125
 40
0.8125
 40
0.8125
 40
0.8125
 40
0.875
 40
0.875
 40
0.875
 40
0.875
 40
0.9375
 40
0.9375
 40
0.9375
 40
0.9375
 40
1.0
 40
1.0
 40
1.0
 40
1.0
 10
-10.44635
 20
-15.34497
 30
0.0
 10
-10.44635
 20
-15.34497
 30
0.0
 10
-10.44635
 20
-15.38047
 30
0.0
 10
-10.44635
 20
-15.38047
 30
0.0
 10
-10.44635
 20
-15.38047
 30
0.0
 10
-10.44635
 20
-15.38047
 30
0.0
 10
-10.46057
 20
-15.38047
 30
0.0
 10
-10.46057
 20
-15.38047
 30
0.0
 10
-10.46057
 20
-15.38047
 30
0.0
 10
-10.46057
 20
-15.38047
 30
0.0
 10
-10.46057
 20
-15.34717
 30
0.0
 10
-10.46057
 20
-15.34717
 30
0.0
 10
-10.46057
 20
-15.34717
 30
0.0
 10
-10.46057
 20
-15.34323
 30
0.0
 10
-10.46114
 20
-15.34042
 30
0.0
 10
-10.46226
 20
-15.33872
 30
0.0
 10
-10.46226
 20
-15.33872
 30
0.0
 10
-10.46337
 20
-15.33703
 30
0.0
 10
-10.46521
 20
-15.33618
 30
0.0
 10
-10.46774
 20
-15.33618
 30
0.0
 10
-10.46774
 20
-15.33618
 30
0.0
 10
-10.47034
 20
-15.33618
 30
0.0
 10
-10.47237
 20
-15.33733
 30
0.0
 10
-10.47384
 20
-15.33963
 30
0.0
 10
-10.47384
 20
-15.33963
 30
0.0
 10
-10.47531
 20
-15.34192
 30
0.0
 10
-10.47604
 20
-15.3451
 30
0.0
 10
-10.47604
 20
-15.34917
 30
0.0
 10
-10.47604
 20
-15.34917
 30
0.0
 10
-10.47604
 20
-15.34917
 30
0.0
 10
-10.47604
 20
-15.38047
 30
0.0
 10
-10.47604
 20
-15.38047
 30
0.0
 10
-10.47604
 20
-15.38047
 30
0.0
 10
-10.47604
 20
-15.38047
 30
0.0
 10
-10.49026
 20
-15.38047
 30
0.0
 10
-10.49026
 20
-15.38047
 30
0.0
 10
-10.49026
 20
-15.38047
 30
0.0
 10
-10.49026
 20
-15.38047
 30
0.0
 10
-10.49026
 20
-15.30448
 30
0.0
 10
-10.49026
 20
-15.30448
 30
0.0
 10
-10.49026
 20
-15.30448
 30
0.0
 10
-10.49026
 20
-15.30448
 30
0.0
 10
-10.47604
 20
-15.30448
 30
0.0
 10
-10.47604
 20
-15.30448
 30
0.0
 10
-10.47604
 20
-15.30448
 30
0.0
 10
-10.47604
 20
-15.30448
 30
0.0
 10
-10.47604
 20
-15.33398
 30
0.0
 10
-10.47604
 20
-15.33398
 30
0.0
 10
-10.47604
 20
-15.33398
 30
0.0
 10
-10.47502
 20
-15.33097
 30
0.0
 10
-10.47331
 20
-15.32861
 30
0.0
 10
-10.47086
 20
-15.32695
 30
0.0
 10
-10.47086
 20
-15.32695
 30
0.0
 10
-10.46842
 20
-15.3253
 30
0.0
 10
-10.46547
 20
-15.32446
 30
0.0
 10
-10.46202
 20
-15.32446
 30
0.0
 10
-10.46202
 20
-15.32446
 30
0.0
 10
-10.45686
 20
-15.32446
 30
0.0
 10
-10.45294
 20
-15.32618
 30
0.0
 10
-10.45031
 20
-15.32961
 30
0.0
 10
-10.45031
 20
-15.32961
 30
0.0
 10
-10.44767
 20
-15.33305
 30
0.0
 10
-10.44635
 20
-15.33817
 30
0.0
 10
-10.44635
 20
-15.34497
 30
0.0
  0
SPLINE
  5
7C
330
1F
100
AcDbEntity
  8
Layer 1
 62
   250
100
AcDbSpline
210
0.0
220
0.0
230
1.0
 70
    11
 71
     3
 72
    64
 73
    60
 74
     0
 42
0.0000000001
 43
0.0000000001
 40
0.0
 40
0.0
 40
0.0
 40
0.0
 40
0.0666666666666667
 40
0.0666666666666667
 40
0.0666666666666667
 40
0.0666666666666667
 40
0.1333333333333333
 40
0.1333333333333333
 40
0.1333333333333333
 40
0.1333333333333333
 40
0.2
 40
0.2
 40
0.2
 40
0.2
 40
0.2666666666666667
 40
0.2666666666666667
 40
0.2666666666666667
 40
0.2666666666666667
 40
0.3333333333333333
 40
0.3333333333333333
 40
0.3333333333333333
 40
0.3333333333333333
 40
0.4
 40
0.4
 40
0.4
 40
0.4
 40
0.4666666666666666
 40
0.4666666666666666
 40
0.4666666666666666
 40
0.4666666666666666
 40
0.5333333333333333
 40
0.5333333333333333
 40
0.5333333333333333
 40
0.5333333333333333
 40
0.6
 40
0.6
 40
0.6
 40
0.6
 40
0.6666666666666666
 40
0.6666666666666666
 40
0.6666666666666666
 40
0.6666666666666666
 40
0.7333333333333333
 40
0.7333333333333333
 40
0.7333333333333333
 40
0.7333333333333333
 40
0.7999999999999999
 40
0.7999999999999999
 40
0.7999999999999999
 40
0.7999999999999999
 40
0.8666666666666666
 40
0.8666666666666666
 40
0.8666666666666666
 40
0.8666666666666666
 40
0.9333333333333332
 40
0.9333333333333332
 40
0.9333333333333332
 40
0.9333333333333332
 40
1.0
 40
1.0
 40
1.0
 40
1.0
 10
-10.38463
 20
-15.37779
 30
0.0
 10
-10.38794
 20
-15.37915
 30
0.0
 10
-10.39133
 20
-15.38017
 30
0.0
 10
-10.39478
 20
-15.38085
 30
0.0
 10
-10.39478
 20
-15.38085
 30
0.0
 10
-10.39823
 20
-15.38154
 30
0.0
 10
-10.40188
 20
-15.38189
 30
0.0
 10
-10.40573
 20
-15.38189
 30
0.0
 10
-10.40573
 20
-15.38189
 30
0.0
 10
-10.41486
 20
-15.38189
 30
0.0
 10
-10.42187
 20
-15.37944
 30
0.0
 10
-10.4267
 20
-15.37454
 30
0.0
 10
-10.4267
 20
-15.37454
 30
0.0
 10
-10.43153
 20
-15.36964
 30
0.0
 10
-10.43395
 20
-15.36258
 30
0.0
 10
-10.43395
 20
-15.35337
 30
0.0
 10
-10.43395
 20
-15.35337
 30
0.0
 10
-10.43395
 20
-15.34445
 30
0.0
 10
-10.43162
 20
-15.3374
 30
0.0
 10
-10.42697
 20
-15.33223
 30
0.0
 10
-10.42697
 20
-15.33223
 30
0.0
 10
-10.42232
 20
-15.32705
 30
0.0
 10
-10.41596
 20
-15.32446
 30
0.0
 10
-10.40791
 20
-15.32446
 30
0.0
 10
-10.40791
 20
-15.32446
 30
0.0
 10
-10.39981
 20
-15.32446
 30
0.0
 10
-10.39351
 20
-15.32686
 30
0.0
 10
-10.38905
 20
-15.33167
 30
0.0
 10
-10.38905
 20
-15.33167
 30
0.0
 10
-10.38456
 20
-15.33647
 30
0.0
 10
-10.38233
 20
-15.34323
 30
0.0
 10
-10.38233
 20
-15.35195
 30
0.0
 10
-10.38233
 20
-15.35195
 30
0.0
 10
-10.38233
 20
-15.35195
 30
0.0
 10
-10.38233
 20
-15.35777
 30
0.0
 10
-10.38233
 20
-15.35777
 30
0.0
 10
-10.38233
 20
-15.35777
 30
0.0
 10
-10.38233
 20
-15.35777
 30
0.0
 10
-10.4194
 20
-15.35777
 30
0.0
 10
-10.4194
 20
-15.35777
 30
0.0
 10
-10.4194
 20
-15.35777
 30
0.0
 10
-10.41936
 20
-15.36207
 30
0.0
 10
-10.4181
 20
-15.36527
 30
0.0
 10
-10.41558
 20
-15.36739
 30
0.0
 10
-10.41558
 20
-15.36739
 30
0.0
 10
-10.41308
 20
-15.3695
 30
0.0
 10
-10.40933
 20
-15.37055
 30
0.0
 10
-10.40436
 20
-15.37055
 30
0.0
 10
-10.40436
 20
-15.37055
 30
0.0
 10
-10.40106
 20
-15.37055
 30
0.0
 10
-10.39783
 20
-15.37009
 30
0.0
 10
-10.39465
 20
-15.36914
 30
0.0
 10
-10.39465
 20
-15.36914
 30
0.0
 10
-10.39145
 20
-15.3682
 30
0.0
 10
-10.38811
 20
-15.3667
 30
0.0
 10
-10.38463
 20
-15.36465
 30
0.0
 10
-10.38463
 20
-15.36465
 30
0.0
 10
-10.38463
 20
-15.36465
 30
0.0
 10
-10.38463
 20
-15.37779
 30
0.0
 10
-10.38463
 20
-15.37779
 30
0.0
  0
SPLINE
  5
7D
330
1F
100
AcDbEntity
  8
Layer 1
 62
   250
100
AcDbSpline
210
0.0
220
0.0
230
1.0
 70
    11
 71
     3
 72
    24
 73
    20
 74
     0
 42
0.0000000001
 43
0.0000000001
 40
0.0
 40
0.0
 40
0.0
 40
0.0
 40
0.2
 40
0.2
 40
0.2
 40
0.2
 40
0.4
 40
0.4
 40
0.4
 40
0.4
 40
0.6000000000000001
 40
0.6000000000000001
 40
0.6000000000000001
 40
0.6000000000000001
 40
0.8
 40
0.8
 40
0.8
 40
0.8
 40
1.0
 40
1.0
 40
1.0
 40
1.0
 10
-10.39673
 20
-15.34702
 30
0.0
 10
-10.3968
 20
-15.34325
 30
0.0
 10
-10.39776
 20
-15.34038
 30
0.0
 10
-10.39963
 20
-15.33845
 30
0.0
 10
-10.39963
 20
-15.33845
 30
0.0
 10
-10.40151
 20
-15.33652
 30
0.0
 10
-10.40426
 20
-15.33555
 30
0.0
 10
-10.40791
 20
-15.33555
 30
0.0
 10
-10.40791
 20
-15.33555
 30
0.0
 10
-10.4112
 20
-15.33555
 30
0.0
 10
-10.41383
 20
-15.33655
 30
0.0
 10
-10.41578
 20
-15.33855
 30
0.0
 10
-10.41578
 20
-15.33855
 30
0.0
 10
-10.41773
 20
-15.34055
 30
0.0
 10
-10.4189
 20
-15.34338
 30
0.0
 10
-10.41925
 20
-15.34707
 30
0.0
 10
-10.41925
 20
-15.34707
 30
0.0
 10
-10.41925
 20
-15.34707
 30
0.0
 10
-10.39673
 20
-15.34702
 30
0.0
 10
-10.39673
 20
-15.34702
 30
0.0
  0
SPLINE
  5
7E
330
1F
100
AcDbEntity
  8
Layer 1
 62
   250
100
AcDbSpline
210
0.0
220
0.0
230
1.0
 70
    11
 71
     3
 72
    52
 73
    48
 74
     0
 42
0.0000000001
 43
0.0000000001
 40
0.0
 40
0.0
 40
0.0
 40
0.0
 40
0.0833333333333333
 40
0.0833333333333333
 40
0.0833333333333333
 40
0.0833333333333333
 40
0.1666666666666667
 40
0.1666666666666667
 40
0.1666666666666667
 40
0.1666666666666667
 40
0.25
 40
0.25
 40
0.25
 40
0.25
 40
0.3333333333333333
 40
0.3333333333333333
 40
0.3333333333333333
 40
0.3333333333333333
 40
0.4166666666666666
 40
0.4166666666666666
 40
0.4166666666666666
 40
0.4166666666666666
 40
0.4999999999999999
 40
0.4999999999999999
 40
0.4999999999999999
 40
0.4999999999999999
 40
0.5833333333333333
 40
0.5833333333333333
 40
0.5833333333333333
 40
0.5833333333333333
 40
0.6666666666666666
 40
0.6666666666666666
 40
0.6666666666666666
 40
0.6666666666666666
 40
0.75
 40
0.75
 40
0.75
 40
0.75
 40
0.8333333333333334
 40
0.8333333333333334
 40
0.8333333333333334
 40
0.8333333333333334
 40
0.9166666666666667
 40
0.9166666666666667
 40
0.9166666666666667
 40
0.9166666666666667
 40
1.0
 40
1.0
 40
1.0
 40
1.0
 10
-10.32233
 20
-15.32578
 30
0.0
 10
-10.32233
 20
-15.32578
 30
0.0
 10
-10.34074
 20
-15.35195
 30
0.0
 10
-10.34074
 20
-15.35195
 30
0.0
 10
-10.34074
 20
-15.35195
 30
0.0
 10
-10.34074
 20
-15.35195
 30
0.0
 10
-10.32072
 20
-15.38047
 30
0.0
 10
-10.32072
 20
-15.38047
 30
0.0
 10
-10.32072
 20
-15.38047
 30
0.0
 10
-10.32072
 20
-15.38047
 30
0.0
 10
-10.33742
 20
-15.38047
 30
0.0
 10
-10.33742
 20
-15.38047
 30
0.0
 10
-10.33742
 20
-15.38047
 30
0.0
 10
-10.33742
 20
-15.38047
 30
0.0
 10
-10.34815
 20
-15.36207
 30
0.0
 10
-10.34815
 20
-15.36207
 30
0.0
 10
-10.34815
 20
-15.36207
 30
0.0
 10
-10.34815
 20
-15.36207
 30
0.0
 10
-10.35885
 20
-15.38047
 30
0.0
 10
-10.35885
 20
-15.38047
 30
0.0
 10
-10.35885
 20
-15.38047
 30
0.0
 10
-10.35885
 20
-15.38047
 30
0.0
 10
-10.37556
 20
-15.38047
 30
0.0
 10
-10.37556
 20
-15.38047
 30
0.0
 10
-10.37556
 20
-15.38047
 30
0.0
 10
-10.37556
 20
-15.38047
 30
0.0
 10
-10.35534
 20
-15.35195
 30
0.0
 10
-10.35534
 20
-15.35195
 30
0.0
 10
-10.35534
 20
-15.35195
 30
0.0
 10
-10.35534
 20
-15.35195
 30
0.0
 10
-10.37394
 20
-15.32578
 30
0.0
 10
-10.37394
 20
-15.32578
 30
0.0
 10
-10.37394
 20
-15.32578
 30
0.0
 10
-10.37394
 20
-15.32578
 30
0.0
 10
-10.35724
 20
-15.32578
 30
0.0
 10
-10.35724
 20
-15.32578
 30
0.0
 10
-10.35724
 20
-15.32578
 30
0.0
 10
-10.35724
 20
-15.32578
 30
0.0
 10
-10.34815
 20
-15.34208
 30
0.0
 10
-10.34815
 20
-15.34208
 30
0.0
 10
-10.34815
 20
-15.34208
 30
0.0
 10
-10.34815
 20
-15.34208
 30
0.0
 10
-10.33904
 20
-15.32578
 30
0.0
 10
-10.33904
 20
-15.32578
 30
0.0
 10
-10.33904
 20
-15.32578
 30
0.0
 10
-10.33904
 20
-15.32578
 30
0.0
 10
-10.32233
 20
-15.32578
 30
0.0
 10
-10.32233
 20
-15.32578
 30
0.0
  0
SPLINE
  5
7F
330
1F
100
AcDbEntity
  8
Layer 1
 62
   250
100
AcDbSpline
210
0.0
220
0.0
230
1.0
 70
    11
 71
     3
 72
    52
 73
    48
 74
     0
 42
0.0000000001
 43
0.0000000001
 40
0.0
 40
0.0
 40
0.0
 40
0.0
 40
0.0833333333333333
 40
0.0833333333333333
 40
0.0833333333333333
 40
0.0833333333333333
 40
0.1666666666666667
 40
0.1666666666666667
 40
0.1666666666666667
 40
0.1666666666666667
 40
0.25
 40
0.25
 40
0.25
 40
0.25
 40
0.3333333333333333
 40
0.3333333333333333
 40
0.3333333333333333
 40
0.3333333333333333
 40
0.4166666666666666
 40
0.4166666666666666
 40
0.4166666666666666
 40
0.4166666666666666
 40
0.4999999999999999
 40
0.4999999999999999
 40
0.4999999999999999
 40
0.4999999999999999
 40
0.5833333333333333
 40
0.5833333333333333
 40
0.5833333333333333
 40
0.5833333333333333
 40
0.6666666666666666
 40
0.6666666666666666
 40
0.6666666666666666
 40
0.6666666666666666
 40
0.75
 40
0.75
 40
0.75
 40
0.75
 40
0.8333333333333334
 40
0.8333333333333334
 40
0.8333333333333334
 40
0.8333333333333334
 40
0.9166666666666667
 40
0.9166666666666667
 40
0.9166666666666667
 40
0.9166666666666667
 40
1.0
 40
1.0
 40
1.0
 40
1.0
 10
-10.30963
 20
-15.32026
 30
0.0
 10
-10.30963
 20
-15.32026
 30
0.0
 10
-10.30963
 20
-15.30756
 30
0.0
 10
-10.30963
 20
-15.30756
 30
0.0
 10
-10.30963
 20
-15.30756
 30
0.0
 10
-10.30963
 20
-15.30756
 30
0.0
 10
-10.26622
 20
-15.30756
 30
0.0
 10
-10.26622
 20
-15.30756
 30
0.0
 10
-10.26622
 20
-15.30756
 30
0.0
 10
-10.26622
 20
-15.30756
 30
0.0
 10
-10.26622
 20
-15.32026
 30
0.0
 10
-10.26622
 20
-15.32026
 30
0.0
 10
-10.26622
 20
-15.32026
 30
0.0
 10
-10.26622
 20
-15.32026
 30
0.0
 10
-10.28073
 20
-15.32026
 30
0.0
 10
-10.28073
 20
-15.32026
 30
0.0
 10
-10.28073
 20
-15.32026
 30
0.0
 10
-10.28073
 20
-15.32026
 30
0.0
 10
-10.28073
 20
-15.36777
 30
0.0
 10
-10.28073
 20
-15.36777
 30
0.0
 10
-10.28073
 20
-15.36777
 30
0.0
 10
-10.28073
 20
-15.36777
 30
0.0
 10
-10.26622
 20
-15.36777
 30
0.0
 10
-10.26622
 20
-15.36777
 30
0.0
 10
-10.26622
 20
-15.36777
 30
0.0
 10
-10.26622
 20
-15.36777
 30
0.0
 10
-10.26622
 20
-15.38047
 30
0.0
 10
-10.26622
 20
-15.38047
 30
0.0
 10
-10.26622
 20
-15.38047
 30
0.0
 10
-10.26622
 20
-15.38047
 30
0.0
 10
-10.30963
 20
-15.38047
 30
0.0
 10
-10.30963
 20
-15.38047
 30
0.0
 10
-10.30963
 20
-15.38047
 30
0.0
 10
-10.30963
 20
-15.38047
 30
0.0
 10
-10.30963
 20
-15.36777
 30
0.0
 10
-10.30963
 20
-15.36777
 30
0.0
 10
-10.30963
 20
-15.36777
 30
0.0
 10
-10.30963
 20
-15.36777
 30
0.0
 10
-10.29513
 20
-15.36777
 30
0.0
 10
-10.29513
 20
-15.36777
 30
0.0
 10
-10.29513
 20
-15.36777
 30
0.0
 10
-10.29513
 20
-15.36777
 30
0.0
 10
-10.29513
 20
-15.32026
 30
0.0
 10
-10.29513
 20
-15.32026
 30
0.0
 10
-10.29513
 20
-15.32026
 30
0.0
 10
-10.29513
 20
-15.32026
 30
0.0
 10
-10.30963
 20
-15.32026
 30
0.0
 10
-10.30963
 20
-15.32026
 30
0.0
  0
SPLINE
  5
80
330
1F
100
AcDbEntity
  8
Layer 1
 62
   250
100
AcDbSpline
210
0.0
220
0.0
230
1.0
 70
    11
 71
     3
 72
    32
 73
    28
 74
     0
 42
0.0000000001
 43
0.0000000001
 40
0.0
 40
0.0
 40
0.0
 40
0.0
 40
0.1428571428571428
 40
0.1428571428571428
 40
0.1428571428571428
 40
0.1428571428571428
 40
0.2857142857142857
 40
0.2857142857142857
 40
0.2857142857142857
 40
0.2857142857142857
 40
0.4285714285714285
 40
0.4285714285714285
 40
0.4285714285714285
 40
0.4285714285714285
 40
0.5714285714285714
 40
0.5714285714285714
 40
0.5714285714285714
 40
0.5714285714285714
 40
0.7142857142857142
 40
0.7142857142857142
 40
0.7142857142857142
 40
0.7142857142857142
 40
0.857142857142857
 40
0.857142857142857
 40
0.857142857142857
 40
0.857142857142857
 40
1.0
 40
1.0
 40
1.0
 40
1.0
 10
-10.23673
 20
-15.32055
 30
0.0
 10
-10.23673
 20
-15.32055
 30
0.0
 10
-10.23673
 20
-15.36749
 30
0.0
 10
-10.23673
 20
-15.36749
 30
0.0
 10
-10.23673
 20
-15.36749
 30
0.0
 10
-10.23673
 20
-15.36749
 30
0.0
 10
-10.23283
 20
-15.36749
 30
0.0
 10
-10.23283
 20
-15.36749
 30
0.0
 10
-10.23283
 20
-15.36749
 30
0.0
 10
-10.22717
 20
-15.36749
 30
0.0
 10
-10.22312
 20
-15.3657
 30
0.0
 10
-10.22072
 20
-15.36213
 30
0.0
 10
-10.22072
 20
-15.36213
 30
0.0
 10
-10.2183
 20
-15.35857
 30
0.0
 10
-10.2171
 20
-15.3525
 30
0.0
 10
-10.2171
 20
-15.34395
 30
0.0
 10
-10.2171
 20
-15.34395
 30
0.0
 10
-10.2171
 20
-15.33545
 30
0.0
 10
-10.2183
 20
-15.32941
 30
0.0
 10
-10.22072
 20
-15.32586
 30
0.0
 10
-10.22072
 20
-15.32586
 30
0.0
 10
-10.22312
 20
-15.32231
 30
0.0
 10
-10.22717
 20
-15.32055
 30
0.0
 10
-10.23283
 20
-15.32055
 30
0.0
 10
-10.23283
 20
-15.32055
 30
0.0
 10
-10.23283
 20
-15.32055
 30
0.0
 10
-10.23673
 20
-15.32055
 30
0.0
 10
-10.23673
 20
-15.32055
 30
0.0
  0
SPLINE
  5
81
330
1F
100
AcDbEntity
  8
Layer 1
 62
   250
100
AcDbSpline
210
0.0
220
0.0
230
1.0
 70
    11
 71
     3
 72
    32
 73
    28
 74
     0
 42
0.0000000001
 43
0.0000000001
 40
0.0
 40
0.0
 40
0.0
 40
0.0
 40
0.1428571428571428
 40
0.1428571428571428
 40
0.1428571428571428
 40
0.1428571428571428
 40
0.2857142857142857
 40
0.2857142857142857
 40
0.2857142857142857
 40
0.2857142857142857
 40
0.4285714285714285
 40
0.4285714285714285
 40
0.4285714285714285
 40
0.4285714285714285
 40
0.5714285714285714
 40
0.5714285714285714
 40
0.5714285714285714
 40
0.5714285714285714
 40
0.7142857142857142
 40
0.7142857142857142
 40
0.7142857142857142
 40
0.7142857142857142
 40
0.857142857142857
 40
0.857142857142857
 40
0.857142857142857
 40
0.857142857142857
 40
1.0
 40
1.0
 40
1.0
 40
1.0
 10
-10.25114
 20
-15.30756
 30
0.0
 10
-10.25114
 20
-15.30756
 30
0.0
 10
-10.2357
 20
-15.30756
 30
0.0
 10
-10.2357
 20
-15.30756
 30
0.0
 10
-10.2357
 20
-15.30756
 30
0.0
 10
-10.2238
 20
-15.30756
 30
0.0
 10
-10.21522
 20
-15.3104
 30
0.0
 10
-10.20998
 20
-15.31608
 30
0.0
 10
-10.20998
 20
-15.31608
 30
0.0
 10
-10.20473
 20
-15.32176
 30
0.0
 10
-10.20211
 20
-15.33105
 30
0.0
 10
-10.20211
 20
-15.34395
 30
0.0
 10
-10.20211
 20
-15.34395
 30
0.0
 10
-10.20211
 20
-15.35687
 30
0.0
 10
-10.20473
 20
-15.36619
 30
0.0
 10
-10.20998
 20
-15.3719
 30
0.0
 10
-10.20998
 20
-15.3719
 30
0.0
 10
-10.21522
 20
-15.37762
 30
0.0
 10
-10.2238
 20
-15.38047
 30
0.0
 10
-10.2357
 20
-15.38047
 30
0.0
 10
-10.2357
 20
-15.38047
 30
0.0
 10
-10.2357
 20
-15.38047
 30
0.0
 10
-10.25114
 20
-15.38047
 30
0.0
 10
-10.25114
 20
-15.38047
 30
0.0
 10
-10.25114
 20
-15.38047
 30
0.0
 10
-10.25114
 20
-15.38047
 30
0.0
 10
-10.25114
 20
-15.30756
 30
0.0
 10
-10.25114
 20
-15.30756
 30
0.0
  0
SPLINE
  5
82
330
1F
100
AcDbEntity
  8
Layer 1
 62
   250
100
AcDbSpline
210
0.0
220
0.0
230
1.0
 70
    11
 71
     3
 72
    36
 73
    32
 74
     0
 42
0.0000000001
 43
0.0000000001
 40
0.0
 40
0.0
 40
0.0
 40
0.0
 40
0.125
 40
0.125
 40
0.125
 40
0.125
 40
0.25
 40
0.25
 40
0.25
 40
0.25
 40
0.375
 40
0.375
 40
0.375
 40
0.375
 40
0.5
 40
0.5
 40
0.5
 40
0.5
 40
0.625
 40
0.625
 40
0.625
 40
0.625
 40
0.75
 40
0.75
 40
0.75
 40
0.75
 40
0.875
 40
0.875
 40
0.875
 40
0.875
 40
1.0
 40
1.0
 40
1.0
 40
1.0
 10
-10.15009
 20
-15.35385
 30
0.0
 10
-10.15009
 20
-15.35017
 30
0.0
 10
-10.15092
 20
-15.34728
 30
0.0
 10
-10.15259
 20
-15.3452
 30
0.0
 10
-10.15259
 20
-15.3452
 30
0.0
 10
-10.15424
 20
-15.34312
 30
0.0
 10
-10.15652
 20
-15.34208
 30
0.0
 10
-10.15942
 20
-15.34208
 30
0.0
 10
-10.15942
 20
-15.34208
 30
0.0
 10
-10.16232
 20
-15.34208
 30
0.0
 10
-10.16459
 20
-15.34312
 30
0.0
 10
-10.16624
 20
-15.3452
 30
0.0
 10
-10.16624
 20
-15.3452
 30
0.0
 10
-10.16789
 20
-15.34728
 30
0.0
 10
-10.16871
 20
-15.35017
 30
0.0
 10
-10.16871
 20
-15.35385
 30
0.0
 10
-10.16871
 20
-15.35385
 30
0.0
 10
-10.16871
 20
-15.35755
 30
0.0
 10
-10.16789
 20
-15.36045
 30
0.0
 10
-10.16624
 20
-15.36253
 30
0.0
 10
-10.16624
 20
-15.36253
 30
0.0
 10
-10.16459
 20
-15.36462
 30
0.0
 10
-10.16232
 20
-15.36565
 30
0.0
 10
-10.15942
 20
-15.36565
 30
0.0
 10
-10.15942
 20
-15.36565
 30
0.0
 10
-10.15652
 20
-15.36565
 30
0.0
 10
-10.15424
 20
-15.36462
 30
0.0
 10
-10.15259
 20
-15.36253
 30
0.0
 10
-10.15259
 20
-15.36253
 30
0.0
 10
-10.15092
 20
-15.36045
 30
0.0
 10
-10.15009
 20
-15.35755
 30
0.0
 10
-10.15009
 20
-15.35385
 30
0.0
  0
SPLINE
  5
83
330
1F
100
AcDbEntity
  8
Layer 1
 62
   250
100
AcDbSpline
210
0.0
220
0.0
230
1.0
 70
    11
 71
     3
 72
   120
 73
   116
 74
     0
 42
0.0000000001
 43
0.0000000001
 40
0.0
 40
0.0
 40
0.0
 40
0.0
 40
0.0344827586206897
 40
0.0344827586206897
 40
0.0344827586206897
 40
0.0344827586206897
 40
0.0689655172413793
 40
0.0689655172413793
 40
0.0689655172413793
 40
0.0689655172413793
 40
0.103448275862069
 40
0.103448275862069
 40
0.103448275862069
 40
0.103448275862069
 40
0.1379310344827586
 40
0.1379310344827586
 40
0.1379310344827586
 40
0.1379310344827586
 40
0.1724137931034483
 40
0.1724137931034483
 40
0.1724137931034483
 40
0.1724137931034483
 40
0.206896551724138
 40
0.206896551724138
 40
0.206896551724138
 40
0.206896551724138
 40
0.2413793103448276
 40
0.2413793103448276
 40
0.2413793103448276
 40
0.2413793103448276
 40
0.2758620689655173
 40
0.2758620689655173
 40
0.2758620689655173
 40
0.2758620689655173
 40
0.310344827586207
 40
0.310344827586207
 40
0.310344827586207
 40
0.310344827586207
 40
0.3448275862068966
 40
0.3448275862068966
 40
0.3448275862068966
 40
0.3448275862068966
 40
0.3793103448275863
 40
0.3793103448275863
 40
0.3793103448275863
 40
0.3793103448275863
 40
0.413793103448276
 40
0.413793103448276
 40
0.413793103448276
 40
0.413793103448276
 40
0.4482758620689656
 40
0.4482758620689656
 40
0.4482758620689656
 40
0.4482758620689656
 40
0.4827586206896553
 40
0.4827586206896553
 40
0.4827586206896553
 40
0.4827586206896553
 40
0.517241379310345
 40
0.517241379310345
 40
0.517241379310345
 40
0.517241379310345
 40
0.5517241379310346
 40
0.5517241379310346
 40
0.5517241379310346
 40
0.5517241379310346
 40
0.5862068965517242
 40
0.5862068965517242
 40
0.5862068965517242
 40
0.5862068965517242
 40
0.6206896551724138
 40
0.6206896551724138
 40
0.6206896551724138
 40
0.6206896551724138
 40
0.6551724137931034
 40
0.6551724137931034
 40
0.6551724137931034
 40
0.6551724137931034
 40
0.689655172413793
 40
0.689655172413793
 40
0.689655172413793
 40
0.689655172413793
 40
0.7241379310344827
 40
0.7241379310344827
 40
0.7241379310344827
 40
0.7241379310344827
 40
0.7586206896551723
 40
0.7586206896551723
 40
0.7586206896551723
 40
0.7586206896551723
 40
0.7931034482758619
 40
0.7931034482758619
 40
0.7931034482758619
 40
0.7931034482758619
 40
0.8275862068965515
 40
0.8275862068965515
 40
0.8275862068965515
 40
0.8275862068965515
 40
0.8620689655172411
 40
0.8620689655172411
 40
0.8620689655172411
 40
0.8620689655172411
 40
0.8965517241379307
 40
0.8965517241379307
 40
0.8965517241379307
 40
0.8965517241379307
 40
0.9310344827586203
 40
0.9310344827586203
 40
0.9310344827586203
 40
0.9310344827586203
 40
0.9655172413793099
 40
0.9655172413793099
 40
0.9655172413793099
 40
0.9655172413793099
 40
1.0
 40
1.0
 40
1.0
 40
1.0
 10
-10.141
 20
-15.37385
 30
0.0
 10
-10.141
 20
-15.37385
 30
0.0
 10
-10.15057
 20
-15.37385
 30
0.0
 10
-10.15057
 20
-15.37385
 30
0.0
 10
-10.15057
 20
-15.37385
 30
0.0
 10
-10.15057
 20
-15.37385
 30
0.0
 10
-10.15057
 20
-15.36985
 30
0.0
 10
-10.15057
 20
-15.36985
 30
0.0
 10
-10.15057
 20
-15.36985
 30
0.0
 10
-10.15181
 20
-15.37157
 30
0.0
 10
-10.15327
 20
-15.37284
 30
0.0
 10
-10.15494
 20
-15.37364
 30
0.0
 10
-10.15494
 20
-15.37364
 30
0.0
 10
-10.15662
 20
-15.37444
 30
0.0
 10
-10.15864
 20
-15.37484
 30
0.0
 10
-10.16097
 20
-15.37484
 30
0.0
 10
-10.16097
 20
-15.37484
 30
0.0
 10
-10.16632
 20
-15.37484
 30
0.0
 10
-10.17062
 20
-15.37292
 30
0.0
 10
-10.17389
 20
-15.36907
 30
0.0
 10
-10.17389
 20
-15.36907
 30
0.0
 10
-10.17717
 20
-15.36524
 30
0.0
 10
-10.17881
 20
-15.36015
 30
0.0
 10
-10.17881
 20
-15.35385
 30
0.0
 10
-10.17881
 20
-15.35385
 30
0.0
 10
-10.17881
 20
-15.34757
 30
0.0
 10
-10.17717
 20
-15.34252
 30
0.0
 10
-10.17392
 20
-15.33868
 30
0.0
 10
-10.17392
 20
-15.33868
 30
0.0
 10
-10.17067
 20
-15.33487
 30
0.0
 10
-10.16636
 20
-15.33295
 30
0.0
 10
-10.16097
 20
-15.33295
 30
0.0
 10
-10.16097
 20
-15.33295
 30
0.0
 10
-10.15867
 20
-15.33295
 30
0.0
 10
-10.15662
 20
-15.33335
 30
0.0
 10
-10.15487
 20
-15.33415
 30
0.0
 10
-10.15487
 20
-15.33415
 30
0.0
 10
-10.15311
 20
-15.33495
 30
0.0
 10
-10.15167
 20
-15.33612
 30
0.0
 10
-10.15057
 20
-15.33763
 30
0.0
 10
-10.15057
 20
-15.33763
 30
0.0
 10
-10.15057
 20
-15.33763
 30
0.0
 10
-10.15057
 20
-15.33563
 30
0.0
 10
-10.15057
 20
-15.33563
 30
0.0
 10
-10.15057
 20
-15.33563
 30
0.0
 10
-10.15057
 20
-15.33122
 30
0.0
 10
-10.15179
 20
-15.32778
 30
0.0
 10
-10.15421
 20
-15.32538
 30
0.0
 10
-10.15421
 20
-15.32538
 30
0.0
 10
-10.15664
 20
-15.32296
 30
0.0
 10
-10.16009
 20
-15.32176
 30
0.0
 10
-10.16459
 20
-15.32176
 30
0.0
 10
-10.16459
 20
-15.32176
 30
0.0
 10
-10.17136
 20
-15.32176
 30
0.0
 10
-10.17689
 20
-15.32475
 30
0.0
 10
-10.18118
 20
-15.3307
 30
0.0
 10
-10.18118
 20
-15.3307
 30
0.0
 10
-10.18546
 20
-15.33665
 30
0.0
 10
-10.18759
 20
-15.3444
 30
0.0
 10
-10.18759
 20
-15.35393
 30
0.0
 10
-10.18759
 20
-15.35393
 30
0.0
 10
-10.18759
 20
-15.36394
 30
0.0
 10
-10.18513
 20
-15.37189
 30
0.0
 10
-10.18017
 20
-15.37779
 30
0.0
 10
-10.18017
 20
-15.37779
 30
0.0
 10
-10.17522
 20
-15.3837
 30
0.0
 10
-10.16862
 20
-15.38665
 30
0.0
 10
-10.16039
 20
-15.38665
 30
0.0
 10
-10.16039
 20
-15.38665
 30
0.0
 10
-10.15779
 20
-15.38665
 30
0.0
 10
-10.15527
 20
-15.38627
 30
0.0
 10
-10.15282
 20
-15.3855
 30
0.0
 10
-10.15282
 20
-15.3855
 30
0.0
 10
-10.15039
 20
-15.38474
 30
0.0
 10
-10.14804
 20
-15.3836
 30
0.0
 10
-10.14579
 20
-15.38207
 30
0.0
 10
-10.14579
 20
-15.38207
 30
0.0
 10
-10.14579
 20
-15.38207
 30
0.0
 10
-10.1413
 20
-15.39065
 30
0.0
 10
-10.1413
 20
-15.39065
 30
0.0
 10
-10.1413
 20
-15.39065
 30
0.0
 10
-10.14394
 20
-15.39245
 30
0.0
 10
-10.1468
 20
-15.3938
 30
0.0
 10
-10.14992
 20
-15.39469
 30
0.0
 10
-10.14992
 20
-15.39469
 30
0.0
 10
-10.15302
 20
-15.39559
 30
0.0
 10
-10.15636
 20
-15.39604
 30
0.0
 10
-10.15991
 20
-15.39604
 30
0.0
 10
-10.15991
 20
-15.39604
 30
0.0
 10
-10.17129
 20
-15.39604
 30
0.0
 10
-10.18037
 20
-15.39224
 30
0.0
 10
-10.18716
 20
-15.38465
 30
0.0
 10
-10.18716
 20
-15.38465
 30
0.0
 10
-10.19393
 20
-15.37707
 30
0.0
 10
-10.19731
 20
-15.36684
 30
0.0
 10
-10.19731
 20
-15.35395
 30
0.0
 10
-10.19731
 20
-15.35395
 30
0.0
 10
-10.19731
 20
-15.34135
 30
0.0
 10
-10.19426
 20
-15.33127
 30
0.0
 10
-10.18818
 20
-15.3237
 30
0.0
 10
-10.18818
 20
-15.3237
 30
0.0
 10
-10.18209
 20
-15.31613
 30
0.0
 10
-10.17402
 20
-15.31235
 30
0.0
 10
-10.16401
 20
-15.31235
 30
0.0
 10
-10.16401
 20
-15.31235
 30
0.0
 10
-10.15691
 20
-15.31235
 30
0.0
 10
-10.15131
 20
-15.31448
 30
0.0
 10
-10.14719
 20
-15.31876
 30
0.0
 10
-10.14719
 20
-15.31876
 30
0.0
 10
-10.14307
 20
-15.32305
 30
0.0
 10
-10.141
 20
-15.32888
 30
0.0
 10
-10.141
 20
-15.33627
 30
0.0
 10
-10.141
 20
-15.33627
 30
0.0
 10
-10.141
 20
-15.33627
 30
0.0
 10
-10.141
 20
-15.37385
 30
0.0
 10
-10.141
 20
-15.37385
 30
0.0
  0
SPLINE
  5
84
330
1F
100
AcDbEntity
  8
Layer 1
 62
   250
100
AcDbSpline
210
0.0
220
0.0
230
1.0
 70
    11
 71
     3
 72
    36
 73
    32
 74
     0
 42
0.0000000001
 43
0.0000000001
 40
0.0
 40
0.0
 40
0.0
 40
0.0
 40
0.125
 40
0.125
 40
0.125
 40
0.125
 40
0.25
 40
0.25
 40
0.25
 40
0.25
 40
0.375
 40
0.375
 40
0.375
 40
0.375
 40
0.5
 40
0.5
 40
0.5
 40
0.5
 40
0.625
 40
0.625
 40
0.625
 40
0.625
 40
0.75
 40
0.75
 40
0.75
 40
0.75
 40
0.875
 40
0.875
 40
0.875
 40
0.875
 40
1.0
 40
1.0
 40
1.0
 40
1.0
 10
-10.08988
 20
-15.35385
 30
0.0
 10
-10.08988
 20
-15.35017
 30
0.0
 10
-10.09071
 20
-15.34728
 30
0.0
 10
-10.09238
 20
-15.3452
 30
0.0
 10
-10.09238
 20
-15.3452
 30
0.0
 10
-10.09403
 20
-15.34312
 30
0.0
 10
-10.09631
 20
-15.34208
 30
0.0
 10
-10.09921
 20
-15.34208
 30
0.0
 10
-10.09921
 20
-15.34208
 30
0.0
 10
-10.10211
 20
-15.34208
 30
0.0
 10
-10.10438
 20
-15.34312
 30
0.0
 10
-10.10603
 20
-15.3452
 30
0.0
 10
-10.10603
 20
-15.3452
 30
0.0
 10
-10.10768
 20
-15.34728
 30
0.0
 10
-10.1085
 20
-15.35017
 30
0.0
 10
-10.1085
 20
-15.35385
 30
0.0
 10
-10.1085
 20
-15.35385
 30
0.0
 10
-10.1085
 20
-15.35755
 30
0.0
 10
-10.10768
 20
-15.36045
 30
0.0
 10
-10.10603
 20
-15.36253
 30
0.0
 10
-10.10603
 20
-15.36253
 30
0.0
 10
-10.10438
 20
-15.36462
 30
0.0
 10
-10.10211
 20
-15.36565
 30
0.0
 10
-10.09921
 20
-15.36565
 30
0.0
 10
-10.09921
 20
-15.36565
 30
0.0
 10
-10.09631
 20
-15.36565
 30
0.0
 10
-10.09403
 20
-15.36462
 30
0.0
 10
-10.09238
 20
-15.36253
 30
0.0
 10
-10.09238
 20
-15.36253
 30
0.0
 10
-10.09071
 20
-15.36045
 30
0.0
 10
-10.08988
 20
-15.35755
 30
0.0
 10
-10.08988
 20
-15.35385
 30
0.0
  0
SPLINE
  5
85
330
1F
100
AcDbEntity
  8
Layer 1
 62
   250
100
AcDbSpline
210
0.0
220
0.0
230
1.0
 70
    11
 71
     3
 72
   120
 73
   116
 74
     0
 42
0.0000000001
 43
0.0000000001
 40
0.0
 40
0.0
 40
0.0
 40
0.0
 40
0.0344827586206897
 40
0.0344827586206897
 40
0.0344827586206897
 40
0.0344827586206897
 40
0.0689655172413793
 40
0.0689655172413793
 40
0.0689655172413793
 40
0.0689655172413793
 40
0.103448275862069
 40
0.103448275862069
 40
0.103448275862069
 40
0.103448275862069
 40
0.1379310344827586
 40
0.1379310344827586
 40
0.1379310344827586
 40
0.1379310344827586
 40
0.1724137931034483
 40
0.1724137931034483
 40
0.1724137931034483
 40
0.1724137931034483
 40
0.206896551724138
 40
0.206896551724138
 40
0.206896551724138
 40
0.206896551724138
 40
0.2413793103448276
 40
0.2413793103448276
 40
0.2413793103448276
 40
0.2413793103448276
 40
0.2758620689655173
 40
0.2758620689655173
 40
0.2758620689655173
 40
0.2758620689655173
 40
0.310344827586207
 40
0.310344827586207
 40
0.310344827586207
 40
0.310344827586207
 40
0.3448275862068966
 40
0.3448275862068966
 40
0.3448275862068966
 40
0.3448275862068966
 40
0.3793103448275863
 40
0.3793103448275863
 40
0.3793103448275863
 40
0.3793103448275863
 40
0.413793103448276
 40
0.413793103448276
 40
0.413793103448276
 40
0.413793103448276
 40
0.4482758620689656
 40
0.4482758620689656
 40
0.4482758620689656
 40
0.4482758620689656
 40
0.4827586206896553
 40
0.4827586206896553
 40
0.4827586206896553
 40
0.4827586206896553
 40
0.517241379310345
 40
0.517241379310345
 40
0.517241379310345
 40
0.517241379310345
 40
0.5517241379310346
 40
0.5517241379310346
 40
0.5517241379310346
 40
0.5517241379310346
 40
0.5862068965517242
 40
0.5862068965517242
 40
0.5862068965517242
 40
0.5862068965517242
 40
0.6206896551724138
 40
0.6206896551724138
 40
0.6206896551724138
 40
0.6206896551724138
 40
0.6551724137931034
 40
0.6551724137931034
 40
0.6551724137931034
 40
0.6551724137931034
 40
0.689655172413793
 40
0.689655172413793
 40
0.689655172413793
 40
0.689655172413793
 40
0.7241379310344827
 40
0.7241379310344827
 40
0.7241379310344827
 40
0.7241379310344827
 40
0.7586206896551723
 40
0.7586206896551723
 40
0.7586206896551723
 40
0.7586206896551723
 40
0.7931034482758619
 40
0.7931034482758619
 40
0.7931034482758619
 40
0.7931034482758619
 40
0.8275862068965515
 40
0.8275862068965515
 40
0.8275862068965515
 40
0.8275862068965515
 40
0.8620689655172411
 40
0.8620689655172411
 40
0.8620689655172411
 40
0.8620689655172411
 40
0.8965517241379307
 40
0.8965517241379307
 40
0.8965517241379307
 40
0.8965517241379307
 40
0.9310344827586203
 40
0.9310344827586203
 40
0.9310344827586203
 40
0.9310344827586203
 40
0.9655172413793099
 40
0.9655172413793099
 40
0.9655172413793099
 40
0.9655172413793099
 40
1.0
 40
1.0
 40
1.0
 40
1.0
 10
-10.08079
 20
-15.37385
 30
0.0
 10
-10.08079
 20
-15.37385
 30
0.0
 10
-10.09036
 20
-15.37385
 30
0.0
 10
-10.09036
 20
-15.37385
 30
0.0
 10
-10.09036
 20
-15.37385
 30
0.0
 10
-10.09036
 20
-15.37385
 30
0.0
 10
-10.09036
 20
-15.36985
 30
0.0
 10
-10.09036
 20
-15.36985
 30
0.0
 10
-10.09036
 20
-15.36985
 30
0.0
 10
-10.0916
 20
-15.37157
 30
0.0
 10
-10.09306
 20
-15.37284
 30
0.0
 10
-10.09473
 20
-15.37364
 30
0.0
 10
-10.09473
 20
-15.37364
 30
0.0
 10
-10.09641
 20
-15.37444
 30
0.0
 10
-10.09843
 20
-15.37484
 30
0.0
 10
-10.10076
 20
-15.37484
 30
0.0
 10
-10.10076
 20
-15.37484
 30
0.0
 10
-10.10611
 20
-15.37484
 30
0.0
 10
-10.11041
 20
-15.37292
 30
0.0
 10
-10.11368
 20
-15.36907
 30
0.0
 10
-10.11368
 20
-15.36907
 30
0.0
 10
-10.11696
 20
-15.36524
 30
0.0
 10
-10.1186
 20
-15.36015
 30
0.0
 10
-10.1186
 20
-15.35385
 30
0.0
 10
-10.1186
 20
-15.35385
 30
0.0
 10
-10.1186
 20
-15.34757
 30
0.0
 10
-10.11696
 20
-15.34252
 30
0.0
 10
-10.11371
 20
-15.33868
 30
0.0
 10
-10.11371
 20
-15.33868
 30
0.0
 10
-10.11046
 20
-15.33487
 30
0.0
 10
-10.10615
 20
-15.33295
 30
0.0
 10
-10.10076
 20
-15.33295
 30
0.0
 10
-10.10076
 20
-15.33295
 30
0.0
 10
-10.09846
 20
-15.33295
 30
0.0
 10
-10.09641
 20
-15.33335
 30
0.0
 10
-10.09466
 20
-15.33415
 30
0.0
 10
-10.09466
 20
-15.33415
 30
0.0
 10
-10.0929
 20
-15.33495
 30
0.0
 10
-10.09146
 20
-15.33612
 30
0.0
 10
-10.09036
 20
-15.33763
 30
0.0
 10
-10.09036
 20
-15.33763
 30
0.0
 10
-10.09036
 20
-15.33763
 30
0.0
 10
-10.09036
 20
-15.33563
 30
0.0
 10
-10.09036
 20
-15.33563
 30
0.0
 10
-10.09036
 20
-15.33563
 30
0.0
 10
-10.09036
 20
-15.33122
 30
0.0
 10
-10.09158
 20
-15.32778
 30
0.0
 10
-10.094
 20
-15.32538
 30
0.0
 10
-10.094
 20
-15.32538
 30
0.0
 10
-10.09643
 20
-15.32296
 30
0.0
 10
-10.09988
 20
-15.32176
 30
0.0
 10
-10.10438
 20
-15.32176
 30
0.0
 10
-10.10438
 20
-15.32176
 30
0.0
 10
-10.11115
 20
-15.32176
 30
0.0
 10
-10.11668
 20
-15.32475
 30
0.0
 10
-10.12097
 20
-15.3307
 30
0.0
 10
-10.12097
 20
-15.3307
 30
0.0
 10
-10.12525
 20
-15.33665
 30
0.0
 10
-10.12738
 20
-15.3444
 30
0.0
 10
-10.12738
 20
-15.35393
 30
0.0
 10
-10.12738
 20
-15.35393
 30
0.0
 10
-10.12738
 20
-15.36394
 30
0.0
 10
-10.12492
 20
-15.37189
 30
0.0
 10
-10.11996
 20
-15.37779
 30
0.0
 10
-10.11996
 20
-15.37779
 30
0.0
 10
-10.11501
 20
-15.3837
 30
0.0
 10
-10.10841
 20
-15.38665
 30
0.0
 10
-10.10018
 20
-15.38665
 30
0.0
 10
-10.10018
 20
-15.38665
 30
0.0
 10
-10.09758
 20
-15.38665
 30
0.0
 10
-10.09506
 20
-15.38627
 30
0.0
 10
-10.09261
 20
-15.3855
 30
0.0
 10
-10.09261
 20
-15.3855
 30
0.0
 10
-10.09018
 20
-15.38474
 30
0.0
 10
-10.08783
 20
-15.3836
 30
0.0
 10
-10.08558
 20
-15.38207
 30
0.0
 10
-10.08558
 20
-15.38207
 30
0.0
 10
-10.08558
 20
-15.38207
 30
0.0
 10
-10.08109
 20
-15.39065
 30
0.0
 10
-10.08109
 20
-15.39065
 30
0.0
 10
-10.08109
 20
-15.39065
 30
0.0
 10
-10.08373
 20
-15.39245
 30
0.0
 10
-10.08659
 20
-15.3938
 30
0.0
 10
-10.08971
 20
-15.39469
 30
0.0
 10
-10.08971
 20
-15.39469
 30
0.0
 10
-10.09281
 20
-15.39559
 30
0.0
 10
-10.09615
 20
-15.39604
 30
0.0
 10
-10.0997
 20
-15.39604
 30
0.0
 10
-10.0997
 20
-15.39604
 30
0.0
 10
-10.11108
 20
-15.39604
 30
0.0
 10
-10.12016
 20
-15.39224
 30
0.0
 10
-10.12695
 20
-15.38465
 30
0.0
 10
-10.12695
 20
-15.38465
 30
0.0
 10
-10.13372
 20
-15.37707
 30
0.0
 10
-10.1371
 20
-15.36684
 30
0.0
 10
-10.1371
 20
-15.35395
 30
0.0
 10
-10.1371
 20
-15.35395
 30
0.0
 10
-10.1371
 20
-15.34135
 30
0.0
 10
-10.13405
 20
-15.33127
 30
0.0
 10
-10.12797
 20
-15.3237
 30
0.0
 10
-10.12797
 20
-15.3237
 30
0.0
 10
-10.12188
 20
-15.31613
 30
0.0
 10
-10.11381
 20
-15.31235
 30
0.0
 10
-10.1038
 20
-15.31235
 30
0.0
 10
-10.1038
 20
-15.31235
 30
0.0
 10
-10.0967
 20
-15.31235
 30
0.0
 10
-10.0911
 20
-15.31448
 30
0.0
 10
-10.08698
 20
-15.31876
 30
0.0
 10
-10.08698
 20
-15.31876
 30
0.0
 10
-10.08286
 20
-15.32305
 30
0.0
 10
-10.08079
 20
-15.32888
 30
0.0
 10
-10.08079
 20
-15.33627
 30
0.0
 10
-10.08079
 20
-15.33627
 30
0.0
 10
-10.08079
 20
-15.33627
 30
0.0
 10
-10.08079
 20
-15.37385
 30
0.0
 10
-10.08079
 20
-15.37385
 30
0.0
  0
ENDSEC
  0
SECTION
  2
OBJECTS
  0
DICTIONARY
  5
C
330
0
100
AcDbDictionary
281
     1
  3
ACAD_GROUP
350
D
  3
ACAD_LAYOUT
350
1A
  3
ACAD_MLEADERSTYLE
350
87
  3
ACAD_MLINESTYLE
350
17
  3
ACAD_PLOTSETTINGS
350
19
  3
ACAD_PLOTSTYLENAME
350
E
  3
ACAD_SCALELIST
350
3B
  3
ACAD_TABLESTYLE
350
86
  3
ACAD_VISUALSTYLE
350
2A
  0
DICTIONARY
  5
D
102
{ACAD_REACTORS
330
C
102
}
330
C
100
AcDbDictionary
281
     1
  0
DICTIONARY
  5
1A
102
{ACAD_REACTORS
330
C
102
}
330
C
100
AcDbDictionary
281
     1
  3
Layout1
350
1E
  3
Layout2
350
26
  3
Model
350
22
  0
DICTIONARY
  5
87
102
{ACAD_REACTORS
330
C
102
}
330
C
100
AcDbDictionary
281
     1
  0
DICTIONARY
  5
17
102
{ACAD_REACTORS
330
C
102
}
330
C
100
AcDbDictionary
281
     1
  3
Standard
350
18
  0
DICTIONARY
  5
19
102
{ACAD_REACTORS
330
C
102
}
330
C
100
AcDbDictionary
281
     1
  0
ACDBDICTIONARYWDFLT
  5
E
102
{ACAD_REACTORS
330
C
102
}
330
C
100
AcDbDictionary
281
     1
  3
Normal
350
F
100
AcDbDictionaryWithDefault
340
F
  0
DICTIONARY
  5
3B
102
{ACAD_REACTORS
330
C
102
}
330
C
100
AcDbDictionary
281
     1
  3
A0
350
3C
  3
A1
350
3D
  3
A2
350
3E
  3
A3
350
3F
  3
A4
350
40
  3
A5
350
41
  3
A6
350
42
  3
A7
350
43
  3
A8
350
44
  3
A9
350
45
  3
B0
350
46
  3
B1
350
47
  3
B2
350
48
  3
B3
350
49
  3
B4
350
4A
  3
B5
350
4B
  3
B6
350
4C
  3
B7
350
4D
  3
B8
350
4E
  3
B9
350
4F
  3
C0
350
50
  3
C1
350
51
  3
C2
350
52
  3
C3
350
53
  3
C4
350
54
  3
C5
350
55
  3
C6
350
56
  3
C7
350
57
  3
C8
350
58
  3
C9
350
59
  3
D0
350
5A
  3
D1
350
5B
  3
D2
350
5C
  0
DICTIONARY
  5
86
102
{ACAD_REACTORS
330
C
102
}
330
C
100
AcDbDictionary
281
     1
  0
DICTIONARY
  5
2A
102
{ACAD_REACTORS
330
C
102
}
330
C
100
AcDbDictionary
281
     1
  3
2dWireframe
350
2F
  3
3D Hidden
350
31
  3
3dWireframe
350
30
  3
Basic
350
32
  3
Brighten
350
36
  3
ColorChange
350
3A
  3
Conceptual
350
34
  3
Dim
350
35
  3
Facepattern
350
39
  3
Flat
350
2B
  3
FlatWithEdges
350
2C
  3
Gouraud
350
2D
  3
GouraudWithEdges
350
2E
  3
Linepattern
350
38
  3
Realistic
350
33
  3
Thicken
350
37
  0
LAYOUT
  5
1E
102
{ACAD_REACTORS
330
1A
102
}
330
1A
100
AcDbPlotSettings
  1

  2
none_device
  4

  6

 40
0.0
 41
0.0
 42
0.0
 43
0.0
 44
0.0
 45
0.0
 46
0.0
 47
0.0
 48
0.0
 49
0.0
140
0.0
141
0.0
142
1.0
143
1.0
 70
   688
 72
     0
 73
     0
 74
     5
  7

 75
    16
 76
     0
 77
     2
 78
   300
147
1.0
148
0.0
149
0.0
100
AcDbLayout
  1
Layout1
 70
     1
 71
     1
 10
0.0
 20
0.0
 11
12.0
 21
9.0
 12
0.0
 22
0.0
 32
0.0
 14
1.000000000000000E+20
 24
1.000000000000000E+20
 34
1.000000000000000E+20
 15
-1.000000000000000E+20
 25
-1.000000000000000E+20
 35
-1.000000000000000E+20
146
0.0
 13
0.0
 23
0.0
 33
0.0
 16
1.0
 26
0.0
 36
0.0
 17
0.0
 27
1.0
 37
0.0
 76
     0
330
1B
  0
LAYOUT
  5
26
102
{ACAD_REACTORS
330
1A
102
}
330
1A
100
AcDbPlotSettings
  1

  2
none_device
  4

  6

 40
0.0
 41
0.0
 42
0.0
 43
0.0
 44
0.0
 45
0.0
 46
0.0
 47
0.0
 48
0.0
 49
0.0
140
0.0
141
0.0
142
1.0
143
1.0
 70
   688
 72
     0
 73
     0
 74
     5
  7

 75
    16
 76
     0
 77
     2
 78
   300
147
1.0
148
0.0
149
0.0
100
AcDbLayout
  1
Layout2
 70
     1
 71
     2
 10
0.0
 20
0.0
 11
0.0
 21
0.0
 12
0.0
 22
0.0
 32
0.0
 14
0.0
 24
0.0
 34
0.0
 15
0.0
 25
0.0
 35
0.0
146
0.0
 13
0.0
 23
0.0
 33
0.0
 16
1.0
 26
0.0
 36
0.0
 17
0.0
 27
1.0
 37
0.0
 76
     0
330
23
  0
LAYOUT
  5
22
102
{ACAD_REACTORS
330
1A
102
}
330
1A
100
AcDbPlotSettings
  1

  2
none_device
  4

  6

 40
0.0
 41
0.0
 42
0.0
 43
0.0
 44
0.0
 45
0.0
 46
0.0
 47
0.0
 48
0.0
 49
0.0
140
0.0
141
0.0
142
1.0
143
1.0
 70
  1712
 72
     0
 73
     0
 74
     0
  7

 75
     0
 76
     0
 77
     2
 78
   300
147
1.0
148
0.0
149
0.0
100
AcDbLayout
  1
Model
 70
     1
 71
     0
 10
0.0
 20
0.0
 11
12.0
 21
9.0
 12
0.0
 22
0.0
 32
0.0
 14
-10.975
 24
-15.39604
 34
0.0
 15
-10.025
 25
-14.24713
 35
0.0
146
0.0
 13
0.0
 23
0.0
 33
0.0
 16
1.0
 26
0.0
 36
0.0
 17
0.0
 27
1.0
 37
0.0
 76
     0
330
1F
331
29
  0
MLINESTYLE
  5
18
102
{ACAD_REACTORS
330
17
102
}
330
17
100
AcDbMlineStyle
  2
Standard
 70
     0
  3

 62
   256
 51
90.0
 52
90.0
 71
     2
 49
0.5
 62
   256
  6
BYLAYER
 49
-0.5
 62
   256
  6
BYLAYER
  0
ACDBPLACEHOLDER
  5
F
102
{ACAD_REACTORS
330
E
102
}
330
E
  0
SCALE
  5
3C
102
{ACAD_REACTORS
330
3B
102
}
330
3B
100
AcDbScale
 70
     0
300
1:1
140
1.0
141
1.0
290
     1
  0
SCALE
  5
3D
102
{ACAD_REACTORS
330
3B
102
}
330
3B
100
AcDbScale
 70
     0
300
1:2
140
1.0
141
2.0
290
     0
  0
SCALE
  5
3E
102
{ACAD_REACTORS
330
3B
102
}
330
3B
100
AcDbScale
 70
     0
300
1:4
140
1.0
141
4.0
290
     0
  0
SCALE
  5
3F
102
{ACAD_REACTORS
330
3B
102
}
330
3B
100
AcDbScale
 70
     0
300
1:5
140
1.0
141
5.0
290
     0
  0
SCALE
  5
40
102
{ACAD_REACTORS
330
3B
102
}
330
3B
100
AcDbScale
 70
     0
300
1:8
140
1.0
141
8.0
290
     0
  0
SCALE
  5
41
102
{ACAD_REACTORS
330
3B
102
}
330
3B
100
AcDbScale
 70
     0
300
1:10
140
1.0
141
10.0
290
     0
  0
SCALE
  5
42
102
{ACAD_REACTORS
330
3B
102
}
330
3B
100
AcDbScale
 70
     0
300
1:16
140
1.0
141
16.0
290
     0
  0
SCALE
  5
43
102
{ACAD_REACTORS
330
3B
102
}
330
3B
100
AcDbScale
 70
     0
300
1:20
140
1.0
141
20.0
290
     0
  0
SCALE
  5
44
102
{ACAD_REACTORS
330
3B
102
}
330
3B
100
AcDbScale
 70
     0
300
1:30
140
1.0
141
30.0
290
     0
  0
SCALE
  5
45
102
{ACAD_REACTORS
330
3B
102
}
330
3B
100
AcDbScale
 70
     0
300
1:40
140
1.0
141
40.0
290
     0
  0
SCALE
  5
46
102
{ACAD_REACTORS
330
3B
102
}
330
3B
100
AcDbScale
 70
     0
300
1:50
140
1.0
141
50.0
290
     0
  0
SCALE
  5
47
102
{ACAD_REACTORS
330
3B
102
}
330
3B
100
AcDbScale
 70
     0
300
1:100
140
1.0
141
100.0
290
     0
  0
SCALE
  5
48
102
{ACAD_REACTORS
330
3B
102
}
330
3B
100
AcDbScale
 70
     0
300
2:1
140
2.0
141
1.0
290
     0
  0
SCALE
  5
49
102
{ACAD_REACTORS
330
3B
102
}
330
3B
100
AcDbScale
 70
     0
300
4:1
140
4.0
141
1.0
290
     0
  0
SCALE
  5
4A
102
{ACAD_REACTORS
330
3B
102
}
330
3B
100
AcDbScale
 70
     0
300
8:1
140
8.0
141
1.0
290
     0
  0
SCALE
  5
4B
102
{ACAD_REACTORS
330
3B
102
}
330
3B
100
AcDbScale
 70
     0
300
10:1
140
10.0
141
1.0
290
     0
  0
SCALE
  5
4C
102
{ACAD_REACTORS
330
3B
102
}
330
3B
100
AcDbScale
 70
     0
300
100:1
140
100.0
141
1.0
290
     0
  0
SCALE
  5
4D
102
{ACAD_REACTORS
330
3B
102
}
330
3B
100
AcDbScale
 70
     0
300
1/128" = 1'-0"
140
0.0078125
141
12.0
290
     0
  0
SCALE
  5
4E
102
{ACAD_REACTORS
330
3B
102
}
330
3B
100
AcDbScale
 70
     0
300
1/64" = 1'-0"
140
0.015625
141
12.0
290
     0
  0
SCALE
  5
4F
102
{ACAD_REACTORS
330
3B
102
}
330
3B
100
AcDbScale
 70
     0
300
1/32" = 1'-0"
140
0.03125
141
12.0
290
     0
  0
SCALE
  5
50
102
{ACAD_REACTORS
330
3B
102
}
330
3B
100
AcDbScale
 70
     0
300
1/16" = 1'-0"
140
0.0625
141
12.0
290
     0
  0
SCALE
  5
51
102
{ACAD_REACTORS
330
3B
102
}
330
3B
100
AcDbScale
 70
     0
300
3/32" = 1'-0"
140
0.09375
141
12.0
290
     0
  0
SCALE
  5
52
102
{ACAD_REACTORS
330
3B
102
}
330
3B
100
AcDbScale
 70
     0
300
1/8" = 1'-0"
140
0.125
141
12.0
290
     0
  0
SCALE
  5
53
102
{ACAD_REACTORS
330
3B
102
}
330
3B
100
AcDbScale
 70
     0
300
3/16" = 1'-0"
140
0.1875
141
12.0
290
     0
  0
SCALE
  5
54
102
{ACAD_REACTORS
330
3B
102
}
330
3B
100
AcDbScale
 70
     0
300
1/4" = 1'-0"
140
0.25
141
12.0
290
     0
  0
SCALE
  5
55
102
{ACAD_REACTORS
330
3B
102
}
330
3B
100
AcDbScale
 70
     0
300
3/8" = 1'-0"
140
0.375
141
12.0
290
     0
  0
SCALE
  5
56
102
{ACAD_REACTORS
330
3B
102
}
330
3B
100
AcDbScale
 70
     0
300
1/2" = 1'-0"
140
0.5
141
12.0
290
     0
  0
SCALE
  5
57
102
{ACAD_REACTORS
330
3B
102
}
330
3B
100
AcDbScale
 70
     0
300
3/4" = 1'-0"
140
0.75
141
12.0
290
     0
  0
SCALE
  5
58
102
{ACAD_REACTORS
330
3B
102
}
330
3B
100
AcDbScale
 70
     0
300
1" = 1'-0"
140
1.0
141
12.0
290
     0
  0
SCALE
  5
59
102
{ACAD_REACTORS
330
3B
102
}
330
3B
100
AcDbScale
 70
     0
300
1-1/2" = 1'-0"
140
1.5
141
12.0
290
     0
  0
SCALE
  5
5A
102
{ACAD_REACTORS
330
3B
102
}
330
3B
100
AcDbScale
 70
     0
300
3" = 1'-0"
140
3.0
141
12.0
290
     0
  0
SCALE
  5
5B
102
{ACAD_REACTORS
330
3B
102
}
330
3B
100
AcDbScale
 70
     0
300
6" = 1'-0"
140
6.0
141
12.0
290
     0
  0
SCALE
  5
5C
102
{ACAD_REACTORS
330
3B
102
}
330
3B
100
AcDbScale
 70
     0
300
1'-0" = 1'-0"
140
12.0
141
12.0
290
     0
  0
VISUALSTYLE
  5
2F
102
{ACAD_REACTORS
330
2A
102
}
330
2A
100
AcDbVisualStyle
  2
2dWireframe
 70
     4
 71
     0
 72
     2
 73
     0
 90
        0
 40
-0.6
 41
-30.0
 62
     5
 63
     7
421
 16777215
 74
     1
 91
        4
 64
     7
 65
   257
 75
     1
175
     1
 42
1.0
 92
        0
 66
   257
 43
1.0
 76
     1
 77
     6
 78
     2
 67
     7
 79
     5
170
     0
171
     0
290
     0
174
     0
 93
        1
 44
0.0
173
     0
291
     0
 45
0.0
  0
VISUALSTYLE
  5
31
102
{ACAD_REACTORS
330
2A
102
}
330
2A
100
AcDbVisualStyle
  2
3D Hidden
 70
     6
 71
     1
 72
     2
 73
     2
 90
        0
 40
-0.6
 41
-30.0
 62
     5
 63
     7
421
 16777215
 74
     2
 91
        2
 64
     7
 65
   257
 75
     2
175
     1
 42
40.0
 92
        0
 66
   257
 43
1.0
 76
     1
 77
     6
 78
     2
 67
     7
 79
     3
170
     0
171
     0
290
     0
174
     0
 93
        1
 44
0.0
173
     0
291
     0
 45
0.0
  0
VISUALSTYLE
  5
30
102
{ACAD_REACTORS
330
2A
102
}
330
2A
100
AcDbVisualStyle
  2
3dWireframe
 70
     5
 71
     0
 72
     2
 73
     0
 90
        0
 40
-0.6
 41
-30.0
 62
     5
 63
     7
421
 16777215
 74
     1
 91
        4
 64
     7
 65
   257
 75
     1
175
     1
 42
1.0
 92
        0
 66
   257
 43
1.0
 76
     1
 77
     6
 78
     2
 67
     7
 79
     5
170
     0
171
     0
290
     0
174
     0
 93
        1
 44
0.0
173
     0
291
     0
 45
0.0
  0
VISUALSTYLE
  5
32
102
{ACAD_REACTORS
330
2A
102
}
330
2A
100
AcDbVisualStyle
  2
Basic
 70
     7
 71
     1
 72
     0
 73
     1
 90
        0
 40
-0.6
 41
-30.0
 62
     5
 63
     7
421
 16777215
 74
     0
 91
        4
 64
     7
 65
   257
 75
     1
175
     1
 42
1.0
 92
        8
 66
     7
 43
1.0
 76
     1
 77
     6
 78
     2
 67
     7
 79
     5
170
     0
171
     0
290
     0
174
     0
 93
        1
 44
0.0
173
     0
291
     1
 45
0.0
  0
VISUALSTYLE
  5
36
102
{ACAD_REACTORS
330
2A
102
}
330
2A
100
AcDbVisualStyle
  2
Brighten
 70
    12
 71
     2
 72
     2
 73
     0
 90
        0
 40
-0.6
 41
-30.0
 62
     5
 63
     7
421
 16777215
 74
     1
 91
        4
 64
     7
 65
   257
 75
     1
175
     1
 42
1.0
 92
        8
 66
     7
 43
1.0
 76
     1
 77
     6
 78
     2
 67
     7
 79
     5
170
     0
171
     0
290
     0
174
     0
 93
        1
 44
50.0
173
     0
291
     1
 45
0.0
  0
VISUALSTYLE
  5
3A
102
{ACAD_REACTORS
330
2A
102
}
330
2A
100
AcDbVisualStyle
  2
ColorChange
 70
    16
 71
     2
 72
     2
 73
     3
 90
        0
 40
-0.6
 41
-30.0
 62
     5
 63
     8
421
  8421504
 74
     1
 91
        4
 64
     7
 65
   257
 75
     1
175
     1
 42
1.0
 92
        8
 66
     8
424
  8421504
 43
1.0
 76
     1
 77
     6
 78
     2
 67
     7
 79
     5
170
     0
171
     0
290
     0
174
     0
 93
        1
 44
0.0
173
     0
291
     1
 45
0.0
  0
VISUALSTYLE
  5
34
102
{ACAD_REACTORS
330
2A
102
}
330
2A
100
AcDbVisualStyle
  2
Conceptual
 70
     9
 71
     3
 72
     2
 73
     0
 90
        0
 40
-0.6
 41
-30.0
 62
     5
 63
     7
421
 16777215
 74
     2
 91
        2
 64
     7
 65
   257
 75
     1
175
     1
 42
40.0
 92
        8
 66
     7
 43
1.0
 76
     1
 77
     6
 78
     2
 67
     7
 79
     3
170
     0
171
     0
290
     0
174
     0
 93
        1
 44
0.0
173
     0
291
     0
 45
0.0
  0
VISUALSTYLE
  5
35
102
{ACAD_REACTORS
330
2A
102
}
330
2A
100
AcDbVisualStyle
  2
Dim
 70
    11
 71
     2
 72
     2
 73
     0
 90
        0
 40
-0.6
 41
-30.0
 62
     5
 63
     7
421
 16777215
 74
     1
 91
        4
 64
     7
 65
   257
 75
     1
175
     1
 42
1.0
 92
        8
 66
     7
 43
1.0
 76
     1
 77
     6
 78
     2
 67
     7
 79
     5
170
     0
171
     0
290
     0
174
     0
 93
        1
 44
-50.0
173
     0
291
     1
 45
0.0
  0
VISUALSTYLE
  5
39
102
{ACAD_REACTORS
330
2A
102
}
330
2A
100
AcDbVisualStyle
  2
Facepattern
 70
    15
 71
     2
 72
     2
 73
     0
 90
        0
 40
-0.6
 41
-30.0
 62
     5
 63
     7
421
 16777215
 74
     1
 91
        4
 64
     7
 65
   257
 75
     1
175
     1
 42
1.0
 92
        8
 66
     7
 43
1.0
 76
     1
 77
     6
 78
     2
 67
     7
 79
     5
170
     0
171
     0
290
     0
174
     0
 93
        1
 44
0.0
173
     0
291
     1
 45
0.0
  0
VISUALSTYLE
  5
2B
102
{ACAD_REACTORS
330
2A
102
}
330
2A
100
AcDbVisualStyle
  2
Flat
 70
     0
 71
     2
 72
     1
 73
     1
 90
        2
 40
-0.6
 41
30.0
 62
     5
 63
     7
421
 16777215
 74
     0
 91
        4
 64
     7
 65
   257
 75
     1
175
     1
 42
1.0
 92
        8
 66
     7
 43
1.0
 76
     1
 77
     6
 78
     2
 67
     7
 79
     5
170
     0
171
     0
290
     0
174
     0
 93
       13
 44
0.0
173
     0
291
     1
 45
0.0
  0
VISUALSTYLE
  5
2C
102
{ACAD_REACTORS
330
2A
102
}
330
2A
100
AcDbVisualStyle
  2
FlatWithEdges
 70
     1
 71
     2
 72
     1
 73
     1
 90
        2
 40
-0.6
 41
30.0
 62
     5
 63
     7
421
 16777215
 74
     1
 91
        4
 64
     7
 65
   257
 75
     1
175
     1
 42
1.0
 92
        0
 66
   257
 43
1.0
 76
     1
 77
     6
 78
     2
 67
     7
 79
     5
170
     0
171
     0
290
     0
174
     0
 93
       13
 44
0.0
173
     0
291
     1
 45
0.0
  0
VISUALSTYLE
  5
2D
102
{ACAD_REACTORS
330
2A
102
}
330
2A
100
AcDbVisualStyle
  2
Gouraud
 70
     2
 71
     2
 72
     2
 73
     1
 90
        2
 40
-0.6
 41
30.0
 62
     5
 63
     7
421
 16777215
 74
     0
 91
        4
 64
     7
 65
   257
 75
     1
175
     1
 42
1.0
 92
        0
 66
     7
 43
1.0
 76
     1
 77
     6
 78
     2
 67
     7
 79
     5
170
     0
171
     0
290
     0
174
     0
 93
       13
 44
0.0
173
     0
291
     1
 45
0.0
  0
VISUALSTYLE
  5
2E
102
{ACAD_REACTORS
330
2A
102
}
330
2A
100
AcDbVisualStyle
  2
GouraudWithEdges
 70
     3
 71
     2
 72
     2
 73
     1
 90
        2
 40
-0.6
 41
30.0
 62
     5
 63
     7
421
 16777215
 74
     1
 91
        4
 64
     7
 65
   257
 75
     1
175
     1
 42
1.0
 92
        0
 66
   257
 43
1.0
 76
     1
 77
     6
 78
     2
 67
     7
 79
     5
170
     0
171
     0
290
     0
174
     0
 93
       13
 44
0.0
173
     0
291
     1
 45
0.0
  0
VISUALSTYLE
  5
38
102
{ACAD_REACTORS
330
2A
102
}
330
2A
100
AcDbVisualStyle
  2
Linepattern
 70
    14
 71
     2
 72
     2
 73
     0
 90
        0
 40
-0.6
 41
-30.0
 62
     5
 63
     7
421
 16777215
 74
     1
 91
        4
 64
     7
 65
   257
 75
     7
175
     7
 42
1.0
 92
        8
 66
     7
 43
1.0
 76
     1
 77
     6
 78
     2
 67
     7
 79
     5
170
     0
171
     0
290
     0
174
     0
 93
        1
 44
0.0
173
     0
291
     1
 45
0.0
  0
VISUALSTYLE
  5
33
102
{ACAD_REACTORS
330
2A
102
}
330
2A
100
AcDbVisualStyle
  2
Realistic
 70
     8
 71
     2
 72
     2
 73
     0
 90
        0
 40
-0.6
 41
-30.0
 62
     5
 63
     7
421
 16777215
 74
     1
 91
        0
 64
     7
 65
   257
 75
     1
175
     1
 42
1.0
 92
        8
 66
     8
424
  7895160
 43
1.0
 76
     1
 77
     6
 78
     2
 67
     7
 79
     5
170
     0
171
     0
290
     0
174
     0
 93
       13
 44
0.0
173
     0
291
     0
 45
0.0
  0
VISUALSTYLE
  5
37
102
{ACAD_REACTORS
330
2A
102
}
330
2A
100
AcDbVisualStyle
  2
Thicken
 70
    13
 71
     2
 72
     2
 73
     0
 90
        0
 40
-0.6
 41
-30.0
 62
     5
 63
     7
421
 16777215
 74
     1
 91
        4
 64
     7
 65
   257
 75
     1
175
     1
 42
1.0
 92
       12
 66
     7
 43
1.0
 76
     1
 77
     6
 78
     2
 67
     7
 79
     5
170
     0
171
     0
290
     0
174
     0
 93
        1
 44
0.0
173
     0
291
     1
 45
0.0
  0
ENDSEC
  0
EOF
