  0
SECTION
  2
HEADER
  9
$ACADVER
  1
AC1021
  9
$ACADMAINTVER
 70
    25
  9
$DWGCODEPAGE
  3
ANSI_1252
  9
$INSBASE
 10
0.0
 20
0.0
 30
0.0
  9
$EXTMIN
 10
-11.05479
 20
-14.98553
 30
0.0
  9
$EXTMAX
 10
-9.94521
 20
-13.89817
 30
0.0
  9
$LIMMIN
 10
0.0
 20
0.0
  9
$LIMMAX
 10
12.0
 20
9.0
  9
$ORTHOMODE
 70
     0
  9
$REGENMODE
 70
     1
  9
$FILLMODE
 70
     1
  9
$QTEXTMODE
 70
     0
  9
$MIRRTEXT
 70
     1
  9
$LTSCALE
 40
1.0
  9
$ATTMODE
 70
     1
  9
$TEXTSIZE
 40
0.2
  9
$TRACEWID
 40
0.05
  9
$TEXTSTYLE
  7
Standard
  9
$CLAYER
  8
0
  9
$CELTYPE
  6
ByLayer
  9
$CECOLOR
 62
   256
  9
$CELTSCALE
 40
1.0
  9
$DISPSILH
 70
     0
  9
$DIMSCALE
 40
1.0
  9
$DIMASZ
 40
0.18
  9
$DIMEXO
 40
0.0625
  9
$DIMDLI
 40
0.38
  9
$DIMRND
 40
0.0
  9
$DIMDLE
 40
0.0
  9
$DIMEXE
 40
0.18
  9
$DIMTP
 40
0.0
  9
$DIMTM
 40
0.0
  9
$DIMTXT
 40
0.18
  9
$DIMCEN
 40
0.09
  9
$DIMTSZ
 40
0.0
  9
$DIMTOL
 70
     0
  9
$DIMLIM
 70
     0
  9
$DIMTIH
 70
     1
  9
$DIMTOH
 70
     1
  9
$DIMSE1
 70
     0
  9
$DIMSE2
 70
     0
  9
$DIMTAD
 70
     0
  9
$DIMZIN
 70
     0
  9
$DIMBLK
  1

  9
$DIMASO
 70
     1
  9
$DIMSHO
 70
     1
  9
$DIMPOST
  1

  9
$DIMAPOST
  1

  9
$DIMALT
 70
     0
  9
$DIMALTD
 70
     2
  9
$DIMALTF
 40
25.4
  9
$DIMLFAC
 40
1.0
  9
$DIMTOFL
 70
     0
  9
$DIMTVP
 40
0.0
  9
$DIMTIX
 70
     0
  9
$DIMSOXD
 70
     0
  9
$DIMSAH
 70
     0
  9
$DIMBLK1
  1

  9
$DIMBLK2
  1

  9
$DIMSTYLE
  2
Standard
  9
$DIMCLRD
 70
     0
  9
$DIMCLRE
 70
     0
  9
$DIMCLRT
 70
     0
  9
$DIMTFAC
 40
1.0
  9
$DIMGAP
 40
0.09
  9
$DIMJUST
 70
     0
  9
$DIMSD1
 70
     0
  9
$DIMSD2
 70
     0
  9
$DIMTOLJ
 70
     1
  9
$DIMTZIN
 70
     0
  9
$DIMALTZ
 70
     0
  9
$DIMALTTZ
 70
     0
  9
$DIMUPT
 70
     0
  9
$DIMDEC
 70
     4
  9
$DIMTDEC
 70
     4
  9
$DIMALTU
 70
     2
  9
$DIMALTTD
 70
     2
  9
$DIMTXSTY
  7
Standard
  9
$DIMAUNIT
 70
     0
  9
$DIMADEC
 70
     0
  9
$DIMALTRND
 40
0.0
  9
$DIMAZIN
 70
     0
  9
$DIMDSEP
 70
    46
  9
$DIMATFIT
 70
     3
  9
$DIMFRAC
 70
     0
  9
$DIMLDRBLK
  1

  9
$DIMLUNIT
 70
     2
  9
$DIMLWD
 70
    -2
  9
$DIMLWE
 70
    -2
  9
$DIMTMOVE
 70
     0
  9
$DIMFXL
 40
1.0
  9
$DIMFXLON
 70
     0
  9
$DIMJOGANG
 40
0.7853981633974483
  9
$DIMTFILL
 70
     0
  9
$DIMTFILLCLR
 70
     0
  9
$DIMARCSYM
 70
     0
  9
$DIMLTYPE
  6

  9
$DIMLTEX1
  6

  9
$DIMLTEX2
  6

  9
$LUNITS
 70
     2
  9
$LUPREC
 70
     4
  9
$SKETCHINC
 40
0.1
  9
$FILLETRAD
 40
0.5
  9
$AUNITS
 70
     0
  9
$AUPREC
 70
     0
  9
$MENU
  1
.
  9
$ELEVATION
 40
0.0
  9
$PELEVATION
 40
0.0
  9
$THICKNESS
 40
0.0
  9
$LIMCHECK
 70
     0
  9
$CHAMFERA
 40
0.5
  9
$CHAMFERB
 40
0.5
  9
$CHAMFERC
 40
1.0
  9
$CHAMFERD
 40
0.0
  9
$SKPOLY
 70
     0
  9
$TDCREATE
 40
2457068.607671354
  9
$TDUCREATE
 40
2457068.607671354
  9
$TDUPDATE
 40
2457068.607671366
  9
$TDUUPDATE
 40
2457068.607671366
  9
$TDINDWG
 40
0.0000000116
  9
$TDUSRTIMER
 40
0.0000000116
  9
$USRTIMER
 70
     1
  9
$ANGBASE
 50
0.0
  9
$ANGDIR
 70
     0
  9
$PDMODE
 70
     0
  9
$PDSIZE
 40
0.0
  9
$PLINEWID
 40
0.0
  9
$SPLFRAME
 70
     0
  9
$SPLINETYPE
 70
     6
  9
$SPLINESEGS
 70
     8
  9
$HANDSEED
  5
97
  9
$SURFTAB1
 70
     6
  9
$SURFTAB2
 70
     6
  9
$SURFTYPE
 70
     6
  9
$SURFU
 70
     6
  9
$SURFV
 70
     6
  9
$UCSBASE
  2

  9
$UCSNAME
  2

  9
$UCSORG
 10
0.0
 20
0.0
 30
0.0
  9
$UCSXDIR
 10
1.0
 20
0.0
 30
0.0
  9
$UCSYDIR
 10
0.0
 20
1.0
 30
0.0
  9
$UCSORTHOREF
  2

  9
$UCSORTHOVIEW
 70
     0
  9
$UCSORGTOP
 10
0.0
 20
0.0
 30
0.0
  9
$UCSORGBOTTOM
 10
0.0
 20
0.0
 30
0.0
  9
$UCSORGLEFT
 10
0.0
 20
0.0
 30
0.0
  9
$UCSORGRIGHT
 10
0.0
 20
0.0
 30
0.0
  9
$UCSORGFRONT
 10
0.0
 20
0.0
 30
0.0
  9
$UCSORGBACK
 10
0.0
 20
0.0
 30
0.0
  9
$PUCSBASE
  2

  9
$PUCSNAME
  2

  9
$PUCSORG
 10
0.0
 20
0.0
 30
0.0
  9
$PUCSXDIR
 10
1.0
 20
0.0
 30
0.0
  9
$PUCSYDIR
 10
0.0
 20
1.0
 30
0.0
  9
$PUCSORTHOREF
  2

  9
$PUCSORTHOVIEW
 70
     0
  9
$PUCSORGTOP
 10
0.0
 20
0.0
 30
0.0
  9
$PUCSORGBOTTOM
 10
0.0
 20
0.0
 30
0.0
  9
$PUCSORGLEFT
 10
0.0
 20
0.0
 30
0.0
  9
$PUCSORGRIGHT
 10
0.0
 20
0.0
 30
0.0
  9
$PUCSORGFRONT
 10
0.0
 20
0.0
 30
0.0
  9
$PUCSORGBACK
 10
0.0
 20
0.0
 30
0.0
  9
$USERI1
 70
     0
  9
$USERI2
 70
     0
  9
$USERI3
 70
     0
  9
$USERI4
 70
     0
  9
$USERI5
 70
     0
  9
$USERR1
 40
0.0
  9
$USERR2
 40
0.0
  9
$USERR3
 40
0.0
  9
$USERR4
 40
0.0
  9
$USERR5
 40
0.0
  9
$WORLDVIEW
 70
     1
  9
$SHADEDGE
 70
     3
  9
$SHADEDIF
 70
    70
  9
$TILEMODE
 70
     1
  9
$MAXACTVP
 70
    64
  9
$PINSBASE
 10
0.0
 20
0.0
 30
0.0
  9
$PLIMCHECK
 70
     0
  9
$PEXTMIN
 10
1.000000000000000E+20
 20
1.000000000000000E+20
 30
1.000000000000000E+20
  9
$PEXTMAX
 10
-1.000000000000000E+20
 20
-1.000000000000000E+20
 30
-1.000000000000000E+20
  9
$PLIMMIN
 10
0.0
 20
0.0
  9
$PLIMMAX
 10
12.0
 20
9.0
  9
$UNITMODE
 70
     0
  9
$VISRETAIN
 70
     1
  9
$PLINEGEN
 70
     0
  9
$PSLTSCALE
 70
     1
  9
$TREEDEPTH
 70
  3020
  9
$CMLSTYLE
  2
Standard
  9
$CMLJUST
 70
     0
  9
$CMLSCALE
 40
1.0
  9
$PROXYGRAPHICS
 70
     1
  9
$MEASUREMENT
 70
     0
  9
$CELWEIGHT
370
    -1
  9
$ENDCAPS
280
     0
  9
$JOINSTYLE
280
     0
  9
$LWDISPLAY
290
     0
  9
$INSUNITS
 70
     5
  9
$HYPERLINKBASE
  1

  9
$STYLESHEET
  1

  9
$XEDIT
290
     1
  9
$CEPSNTYPE
380
     0
  9
$PSTYLEMODE
290
     1
  9
$FINGERPRINTGUID
  2
{0BBFC4B8-81E4-4150-91B2-472F70A632C9}
  9
$VERSIONGUID
  2
{FAEB1C32-E019-11D5-929B-00C0DF256EC4}
  9
$EXTNAMES
290
     1
  9
$PSVPSCALE
 40
0.0
  9
$OLESTARTUP
290
     0
  9
$SORTENTS
280
   127
  9
$INDEXCTL
280
     0
  9
$HIDETEXT
280
     1
  9
$XCLIPFRAME
290
     0
  9
$HALOGAP
280
     0
  9
$OBSCOLOR
 70
   257
  9
$OBSLTYPE
280
     0
  9
$INTERSECTIONDISPLAY
280
     0
  9
$INTERSECTIONCOLOR
 70
   257
  9
$DIMASSOC
280
     2
  9
$PROJECTNAME
  1

  9
$CAMERADISPLAY
290
     0
  9
$LENSLENGTH
 40
50.0
  9
$CAMERAHEIGHT
 40
0.0
  9
$STEPSPERSEC
 40
2.0
  9
$STEPSIZE
 40
6.0
  9
$3DDWFPREC
 40
2.0
  9
$PSOLWIDTH
 40
0.25
  9
$PSOLHEIGHT
 40
4.0
  9
$LOFTANG1
 40
1.570796326794897
  9
$LOFTANG2
 40
1.570796326794897
  9
$LOFTMAG1
 40
0.0
  9
$LOFTMAG2
 40
0.0
  9
$LOFTPARAM
 70
     7
  9
$LOFTNORMALS
280
     1
  9
$LATITUDE
 40
37.795
  9
$LONGITUDE
 40
-122.394
  9
$NORTHDIRECTION
 40
0.0
  9
$TIMEZONE
 70
 -8000
  9
$LIGHTGLYPHDISPLAY
280
     1
  9
$TILEMODELIGHTSYNCH
280
     1
  9
$SOLIDHIST
280
     1
  9
$SHOWHIST
280
     1
  9
$DWFFRAME
280
     2
  9
$DGNFRAME
280
     2
  9
$REALWORLDSCALE
290
     1
  9
$INTERFERECOLOR
 62
   256
  9
$CSHADOW
280
     0
  9
$SHADOWPLANELOCATION
 40
0.0
  0
ENDSEC
  0
SECTION
  2
CLASSES
  0
CLASS
  1
ACDBDICTIONARYWDFLT
  2
AcDbDictionaryWithDefault
  3
ObjectDBX Classes
 90
        0
 91
        3
280
     0
281
     0
  0
CLASS
  1
VISUALSTYLE
  2
AcDbVisualStyle
  3
ObjectDBX Classes
 90
     4095
 91
        3
280
     0
281
     0
  0
CLASS
  1
SCALE
  2
AcDbScale
  3
ObjectDBX Classes
 90
     1153
 91
        3
280
     0
281
     0
  0
ENDSEC
  0
SECTION
  2
TABLES
  0
TABLE
  2
VPORT
  5
8
330
0
100
AcDbSymbolTable
 70
     1
  0
VPORT
  5
29
330
8
100
AcDbSymbolTableRecord
100
AcDbViewportTableRecord
  2
*Active
 70
     0
 10
0.0
 20
0.0
 11
1.0
 21
1.0
 12
10.42990654205607
 22
4.5
 13
0.0
 23
0.0
 14
0.5
 24
0.5
 15
0.5
 25
0.5
 16
0.0
 26
0.0
 36
1.0
 17
0.0
 27
0.0
 37
0.0
 40
9.0
 41
1.972972972850329
 42
50.0
 43
0.0
 44
0.0
 50
0.0
 51
0.0
 71
     0
 72
   100
 73
     1
 74
     3
 75
     0
 76
     0
 77
     0
 78
     0
281
     0
 65
     1
110
0.0
120
0.0
130
0.0
111
1.0
121
0.0
131
0.0
112
0.0
122
1.0
132
0.0
 79
     0
146
0.0
 60
     3
 61
     5
292
     1
282
     1
141
0.0
142
0.0
 63
   256
  0
ENDTAB
  0
TABLE
  2
LTYPE
  5
5
330
0
100
AcDbSymbolTable
 70
     1
  0
LTYPE
  5
14
330
5
100
AcDbSymbolTableRecord
100
AcDbLinetypeTableRecord
  2
ByBlock
 70
     0
  3

 72
    65
 73
     0
 40
0.0
  0
LTYPE
  5
15
330
5
100
AcDbSymbolTableRecord
100
AcDbLinetypeTableRecord
  2
ByLayer
 70
     0
  3

 72
    65
 73
     0
 40
0.0
  0
LTYPE
  5
16
330
5
100
AcDbSymbolTableRecord
100
AcDbLinetypeTableRecord
  2
Continuous
 70
     0
  3
Solid line
 72
    65
 73
     0
 40
0.0
  0
ENDTAB
  0
TABLE
  2
LAYER
  5
2
330
0
100
AcDbSymbolTable
 70
     2
  0
LAYER
  5
10
330
2
100
AcDbSymbolTableRecord
100
AcDbLayerTableRecord
  2
0
 70
     0
 62
     7
  6
Continuous
370
    -3
390
F
347
0
  0
LAYER
  5
5E
330
2
100
AcDbSymbolTableRecord
100
AcDbLayerTableRecord
  2
Layer 1
 70
     0
 62
     7
  6
Continuous
370
    -3
390
F
347
0
  0
ENDTAB
  0
TABLE
  2
STYLE
  5
3
330
0
100
AcDbSymbolTable
 70
     1
  0
STYLE
  5
11
330
3
100
AcDbSymbolTableRecord
100
AcDbTextStyleTableRecord
  2
Standard
 70
     0
 40
0.0
 41
1.0
 50
0.0
 71
     0
 42
0.2
  3
txt
  4

  0
ENDTAB
  0
TABLE
  2
VIEW
  5
6
330
0
100
AcDbSymbolTable
 70
     0
  0
ENDTAB
  0
TABLE
  2
UCS
  5
7
330
0
100
AcDbSymbolTable
 70
     0
  0
ENDTAB
  0
TABLE
  2
APPID
  5
9
330
0
100
AcDbSymbolTable
 70
     2
  0
APPID
  5
12
330
9
100
AcDbSymbolTableRecord
100
AcDbRegAppTableRecord
  2
ACAD
 70
     0
  0
APPID
  5
5D
330
9
100
AcDbSymbolTableRecord
100
AcDbRegAppTableRecord
  2
ODA
 70
     0
  0
ENDTAB
  0
TABLE
  2
DIMSTYLE
  5
A
330
0
100
AcDbSymbolTable
 70
     1
100
AcDbDimStyleTable
  0
DIMSTYLE
105
27
330
A
100
AcDbSymbolTableRecord
100
AcDbDimStyleTableRecord
  2
Standard
 70
     0
340
11
  0
ENDTAB
  0
TABLE
  2
BLOCK_RECORD
  5
1
330
0
100
AcDbSymbolTable
 70
     1
  0
BLOCK_RECORD
  5
1F
330
1
100
AcDbSymbolTableRecord
100
AcDbBlockTableRecord
  2
*Model_Space
340
22
 70
     0
280
     1
281
     0
  0
BLOCK_RECORD
  5
1B
330
1
100
AcDbSymbolTableRecord
100
AcDbBlockTableRecord
  2
*Paper_Space
340
1E
 70
     0
280
     1
281
     0
  0
BLOCK_RECORD
  5
23
330
1
100
AcDbSymbolTableRecord
100
AcDbBlockTableRecord
  2
*Paper_Space0
340
26
 70
     0
280
     1
281
     0
  0
ENDTAB
  0
ENDSEC
  0
SECTION
  2
BLOCKS
  0
BLOCK
  5
20
330
1F
100
AcDbEntity
  8
0
100
AcDbBlockBegin
  2
*Model_Space
 70
     0
 10
0.0
 20
0.0
 30
0.0
  3
*Model_Space
  1

  0
ENDBLK
  5
21
330
1F
100
AcDbEntity
  8
0
100
AcDbBlockEnd
  0
BLOCK
  5
1C
330
1B
100
AcDbEntity
 67
     1
  8
0
100
AcDbBlockBegin
  2
*Paper_Space
 70
     0
 10
0.0
 20
0.0
 30
0.0
  3
*Paper_Space
  1

  0
ENDBLK
  5
1D
330
1B
100
AcDbEntity
 67
     1
  8
0
100
AcDbBlockEnd
  0
BLOCK
  5
24
330
23
100
AcDbEntity
  8
0
100
AcDbBlockBegin
  2
*Paper_Space0
 70
     0
 10
0.0
 20
0.0
 30
0.0
  3
*Paper_Space0
  1

  0
ENDBLK
  5
25
330
23
100
AcDbEntity
  8
0
100
AcDbBlockEnd
  0
ENDSEC
  0
SECTION
  2
ENTITIES
  0
SPLINE
  5
5F
330
1F
100
AcDbEntity
  8
Layer 1
 62
     7
370
    35
100
AcDbSpline
210
0.0
220
0.0
230
1.0
 70
    11
 71
     3
 72
    36
 73
    32
 74
     0
 42
0.0000000001
 43
0.0000000001
 40
0.0
 40
0.0
 40
0.0
 40
0.0
 40
0.125
 40
0.125
 40
0.125
 40
0.125
 40
0.25
 40
0.25
 40
0.25
 40
0.25
 40
0.375
 40
0.375
 40
0.375
 40
0.375
 40
0.5
 40
0.5
 40
0.5
 40
0.5
 40
0.625
 40
0.625
 40
0.625
 40
0.625
 40
0.75
 40
0.75
 40
0.75
 40
0.75
 40
0.875
 40
0.875
 40
0.875
 40
0.875
 40
1.0
 40
1.0
 40
1.0
 40
1.0
 10
-10.3218
 20
-14.73501
 30
0.0
 10
-10.47001
 20
-14.76837
 30
0.0
 10
-10.52992
 20
-14.76818
 30
0.0
 10
-10.6782
 20
-14.73501
 30
0.0
 10
-10.6782
 20
-14.73501
 30
0.0
 10
-10.75162
 20
-14.71858
 30
0.0
 10
-10.815
 20
-14.77438
 30
0.0
 10
-10.815
 20
-14.82241
 30
0.0
 10
-10.815
 20
-14.82241
 30
0.0
 10
-10.815
 20
-14.82241
 30
0.0
 10
-10.815
 20
-14.87761
 30
0.0
 10
-10.815
 20
-14.87761
 30
0.0
 10
-10.815
 20
-14.87761
 30
0.0
 10
-10.815
 20
-14.92562
 30
0.0
 10
-10.75154
 20
-14.98152
 30
0.0
 10
-10.6782
 20
-14.96501
 30
0.0
 10
-10.6782
 20
-14.96501
 30
0.0
 10
-10.53
 20
-14.93165
 30
0.0
 10
-10.47006
 20
-14.9318
 30
0.0
 10
-10.3218
 20
-14.96501
 30
0.0
 10
-10.3218
 20
-14.96501
 30
0.0
 10
-10.24844
 20
-14.98143
 30
0.0
 10
-10.185
 20
-14.92568
 30
0.0
 10
-10.185
 20
-14.87761
 30
0.0
 10
-10.185
 20
-14.87761
 30
0.0
 10
-10.185
 20
-14.87761
 30
0.0
 10
-10.185
 20
-14.82241
 30
0.0
 10
-10.185
 20
-14.82241
 30
0.0
 10
-10.185
 20
-14.82241
 30
0.0
 10
-10.185
 20
-14.77434
 30
0.0
 10
-10.2484
 20
-14.71849
 30
0.0
 10
-10.3218
 20
-14.73501
 30
0.0
  0
SPLINE
  5
60
330
1F
100
AcDbEntity
  8
Layer 1
 62
     2
370
    35
100
AcDbSpline
210
0.0
220
0.0
230
1.0
 70
    24
 71
     3
 72
     8
 73
     4
 74
     0
 42
0.0000000001
 43
0.0000000001
 40
0.0
 40
0.0
 40
0.0
 40
0.0
 40
1.0
 40
1.0
 40
1.0
 40
1.0
 10
-10.6782
 20
-14.73501
 30
0.0
 10
-10.6782
 20
-14.73501
 30
0.0
 10
-10.6782
 20
-14.96501
 30
0.0
 10
-10.6782
 20
-14.96501
 30
0.0
  0
SPLINE
  5
61
330
1F
100
AcDbEntity
  8
Layer 1
 62
   235
370
    35
100
AcDbSpline
210
0.0
220
0.0
230
1.0
 70
    24
 71
     3
 72
     8
 73
     4
 74
     0
 42
0.0000000001
 43
0.0000000001
 40
0.0
 40
0.0
 40
0.0
 40
0.0
 40
1.0
 40
1.0
 40
1.0
 40
1.0
 10
-10.5782
 20
-14.75501
 30
0.0
 10
-10.5782
 20
-14.75501
 30
0.0
 10
-10.5782
 20
-14.94251
 30
0.0
 10
-10.5782
 20
-14.94251
 30
0.0
  0
SPLINE
  5
62
330
1F
100
AcDbEntity
  8
Layer 1
 62
    22
370
    35
100
AcDbSpline
210
0.0
220
0.0
230
1.0
 70
    24
 71
     3
 72
     8
 73
     4
 74
     0
 42
0.0000000001
 43
0.0000000001
 40
0.0
 40
0.0
 40
0.0
 40
0.0
 40
1.0
 40
1.0
 40
1.0
 40
1.0
 10
-10.4782
 20
-14.76251
 30
0.0
 10
-10.4782
 20
-14.76251
 30
0.0
 10
-10.4782
 20
-14.93751
 30
0.0
 10
-10.4782
 20
-14.93751
 30
0.0
  0
SPLINE
  5
63
330
1F
100
AcDbEntity
  8
Layer 1
 62
    33
370
    35
100
AcDbSpline
210
0.0
220
0.0
230
1.0
 70
    24
 71
     3
 72
     8
 73
     4
 74
     0
 42
0.0000000001
 43
0.0000000001
 40
0.0
 40
0.0
 40
0.0
 40
0.0
 40
1.0
 40
1.0
 40
1.0
 40
1.0
 10
-10.2882
 20
-14.73501
 30
0.0
 10
-10.2882
 20
-14.73501
 30
0.0
 10
-10.2882
 20
-14.96501
 30
0.0
 10
-10.2882
 20
-14.96501
 30
0.0
  0
SPLINE
  5
64
330
1F
100
AcDbEntity
  8
Layer 1
 62
   250
370
    35
100
AcDbSpline
210
0.0
220
0.0
230
1.0
 70
    11
 71
     3
 72
    36
 73
    32
 74
     0
 42
0.0000000001
 43
0.0000000001
 40
0.0
 40
0.0
 40
0.0
 40
0.0
 40
0.125
 40
0.125
 40
0.125
 40
0.125
 40
0.25
 40
0.25
 40
0.25
 40
0.25
 40
0.375
 40
0.375
 40
0.375
 40
0.375
 40
0.5
 40
0.5
 40
0.5
 40
0.5
 40
0.625
 40
0.625
 40
0.625
 40
0.625
 40
0.75
 40
0.75
 40
0.75
 40
0.75
 40
0.875
 40
0.875
 40
0.875
 40
0.875
 40
1.0
 40
1.0
 40
1.0
 40
1.0
 10
-10.3218
 20
-14.73501
 30
0.0
 10
-10.47001
 20
-14.76837
 30
0.0
 10
-10.52992
 20
-14.76818
 30
0.0
 10
-10.6782
 20
-14.73501
 30
0.0
 10
-10.6782
 20
-14.73501
 30
0.0
 10
-10.75162
 20
-14.71858
 30
0.0
 10
-10.815
 20
-14.77438
 30
0.0
 10
-10.815
 20
-14.82241
 30
0.0
 10
-10.815
 20
-14.82241
 30
0.0
 10
-10.815
 20
-14.82241
 30
0.0
 10
-10.815
 20
-14.87761
 30
0.0
 10
-10.815
 20
-14.87761
 30
0.0
 10
-10.815
 20
-14.87761
 30
0.0
 10
-10.815
 20
-14.92562
 30
0.0
 10
-10.75154
 20
-14.98152
 30
0.0
 10
-10.6782
 20
-14.96501
 30
0.0
 10
-10.6782
 20
-14.96501
 30
0.0
 10
-10.53
 20
-14.93165
 30
0.0
 10
-10.47006
 20
-14.9318
 30
0.0
 10
-10.3218
 20
-14.96501
 30
0.0
 10
-10.3218
 20
-14.96501
 30
0.0
 10
-10.24844
 20
-14.98143
 30
0.0
 10
-10.185
 20
-14.92568
 30
0.0
 10
-10.185
 20
-14.87761
 30
0.0
 10
-10.185
 20
-14.87761
 30
0.0
 10
-10.185
 20
-14.87761
 30
0.0
 10
-10.185
 20
-14.82241
 30
0.0
 10
-10.185
 20
-14.82241
 30
0.0
 10
-10.185
 20
-14.82241
 30
0.0
 10
-10.185
 20
-14.77434
 30
0.0
 10
-10.2484
 20
-14.71849
 30
0.0
 10
-10.3218
 20
-14.73501
 30
0.0
  0
SPLINE
  5
65
330
1F
100
AcDbEntity
  8
Layer 1
 62
   250
370
    35
100
AcDbSpline
210
0.0
220
0.0
230
1.0
 70
    24
 71
     3
 72
     8
 73
     4
 74
     0
 42
0.0000000001
 43
0.0000000001
 40
0.0
 40
0.0
 40
0.0
 40
0.0
 40
1.0
 40
1.0
 40
1.0
 40
1.0
 10
-10.815
 20
-14.85
 30
0.0
 10
-10.815
 20
-14.85
 30
0.0
 10
-10.881
 20
-14.85
 30
0.0
 10
-10.881
 20
-14.85
 30
0.0
  0
SPLINE
  5
66
330
1F
100
AcDbEntity
  8
Layer 1
 62
   250
370
    35
100
AcDbSpline
210
0.0
220
0.0
230
1.0
 70
    24
 71
     3
 72
     8
 73
     4
 74
     0
 42
0.0000000001
 43
0.0000000001
 40
0.0
 40
0.0
 40
0.0
 40
0.0
 40
1.0
 40
1.0
 40
1.0
 40
1.0
 10
-10.185
 20
-14.85
 30
0.0
 10
-10.185
 20
-14.85
 30
0.0
 10
-10.119
 20
-14.85
 30
0.0
 10
-10.119
 20
-14.85
 30
0.0
  0
SPLINE
  5
67
330
1F
100
AcDbEntity
  8
Layer 1
 62
   250
100
AcDbSpline
210
0.0
220
0.0
230
1.0
 70
    11
 71
     3
 72
    48
 73
    44
 74
     0
 42
0.0000000001
 43
0.0000000001
 40
0.0
 40
0.0
 40
0.0
 40
0.0
 40
0.0909090909090909
 40
0.0909090909090909
 40
0.0909090909090909
 40
0.0909090909090909
 40
0.1818181818181818
 40
0.1818181818181818
 40
0.1818181818181818
 40
0.1818181818181818
 40
0.2727272727272727
 40
0.2727272727272727
 40
0.2727272727272727
 40
0.2727272727272727
 40
0.3636363636363636
 40
0.3636363636363636
 40
0.3636363636363636
 40
0.3636363636363636
 40
0.4545454545454546
 40
0.4545454545454546
 40
0.4545454545454546
 40
0.4545454545454546
 40
0.5454545454545455
 40
0.5454545454545455
 40
0.5454545454545455
 40
0.5454545454545455
 40
0.6363636363636365
 40
0.6363636363636365
 40
0.6363636363636365
 40
0.6363636363636365
 40
0.7272727272727274
 40
0.7272727272727274
 40
0.7272727272727274
 40
0.7272727272727274
 40
0.8181818181818183
 40
0.8181818181818183
 40
0.8181818181818183
 40
0.8181818181818183
 40
0.9090909090909093
 40
0.9090909090909093
 40
0.9090909090909093
 40
0.9090909090909093
 40
1.0
 40
1.0
 40
1.0
 40
1.0
 10
-11.00921
 20
-14.018
 30
0.0
 10
-11.00921
 20
-14.018
 30
0.0
 10
-10.97601
 20
-14.018
 30
0.0
 10
-10.97601
 20
-14.018
 30
0.0
 10
-10.97601
 20
-14.018
 30
0.0
 10
-10.97601
 20
-14.018
 30
0.0
 10
-10.97601
 20
-13.92377
 30
0.0
 10
-10.97601
 20
-13.92377
 30
0.0
 10
-10.97601
 20
-13.92377
 30
0.0
 10
-10.97601
 20
-13.92377
 30
0.0
 10
-11.01007
 20
-13.9308
 30
0.0
 10
-11.01007
 20
-13.9308
 30
0.0
 10
-11.01007
 20
-13.9308
 30
0.0
 10
-11.01007
 20
-13.9308
 30
0.0
 10
-11.01007
 20
-13.9052
 30
0.0
 10
-11.01007
 20
-13.9052
 30
0.0
 10
-11.01007
 20
-13.9052
 30
0.0
 10
-11.01007
 20
-13.9052
 30
0.0
 10
-10.97621
 20
-13.89817
 30
0.0
 10
-10.97621
 20
-13.89817
 30
0.0
 10
-10.97621
 20
-13.89817
 30
0.0
 10
-10.97621
 20
-13.89817
 30
0.0
 10
-10.94047
 20
-13.89817
 30
0.0
 10
-10.94047
 20
-13.89817
 30
0.0
 10
-10.94047
 20
-13.89817
 30
0.0
 10
-10.94047
 20
-13.89817
 30
0.0
 10
-10.94047
 20
-14.018
 30
0.0
 10
-10.94047
 20
-14.018
 30
0.0
 10
-10.94047
 20
-14.018
 30
0.0
 10
-10.94047
 20
-14.018
 30
0.0
 10
-10.90727
 20
-14.018
 30
0.0
 10
-10.90727
 20
-14.018
 30
0.0
 10
-10.90727
 20
-14.018
 30
0.0
 10
-10.90727
 20
-14.018
 30
0.0
 10
-10.90727
 20
-14.04397
 30
0.0
 10
-10.90727
 20
-14.04397
 30
0.0
 10
-10.90727
 20
-14.04397
 30
0.0
 10
-10.90727
 20
-14.04397
 30
0.0
 10
-11.00921
 20
-14.04397
 30
0.0
 10
-11.00921
 20
-14.04397
 30
0.0
 10
-11.00921
 20
-14.04397
 30
0.0
 10
-11.00921
 20
-14.04397
 30
0.0
 10
-11.00921
 20
-14.018
 30
0.0
 10
-11.00921
 20
-14.018
 30
0.0
  0
SPLINE
  5
68
330
1F
100
AcDbEntity
  8
Layer 1
 62
   250
100
AcDbSpline
210
0.0
220
0.0
230
1.0
 70
    11
 71
     3
 72
    20
 73
    16
 74
     0
 42
0.0000000001
 43
0.0000000001
 40
0.0
 40
0.0
 40
0.0
 40
0.0
 40
0.25
 40
0.25
 40
0.25
 40
0.25
 40
0.5
 40
0.5
 40
0.5
 40
0.5
 40
0.75
 40
0.75
 40
0.75
 40
0.75
 40
1.0
 40
1.0
 40
1.0
 40
1.0
 10
-10.8421
 20
-13.89817
 30
0.0
 10
-10.8421
 20
-13.89817
 30
0.0
 10
-10.82044
 20
-13.89817
 30
0.0
 10
-10.82044
 20
-13.89817
 30
0.0
 10
-10.82044
 20
-13.89817
 30
0.0
 10
-10.82044
 20
-13.89817
 30
0.0
 10
-10.8719
 20
-14.06254
 30
0.0
 10
-10.8719
 20
-14.06254
 30
0.0
 10
-10.8719
 20
-14.06254
 30
0.0
 10
-10.8719
 20
-14.06254
 30
0.0
 10
-10.89347
 20
-14.06254
 30
0.0
 10
-10.89347
 20
-14.06254
 30
0.0
 10
-10.89347
 20
-14.06254
 30
0.0
 10
-10.89347
 20
-14.06254
 30
0.0
 10
-10.8421
 20
-13.89817
 30
0.0
 10
-10.8421
 20
-13.89817
 30
0.0
  0
SPLINE
  5
69
330
1F
100
AcDbEntity
  8
Layer 1
 62
   250
100
AcDbSpline
210
0.0
220
0.0
230
1.0
 70
    11
 71
     3
 72
    16
 73
    12
 74
     0
 42
0.0000000001
 43
0.0000000001
 40
0.0
 40
0.0
 40
0.0
 40
0.0
 40
0.3333333333333333
 40
0.3333333333333333
 40
0.3333333333333333
 40
0.3333333333333333
 40
0.6666666666666666
 40
0.6666666666666666
 40
0.6666666666666666
 40
0.6666666666666666
 40
1.0
 40
1.0
 40
1.0
 40
1.0
 10
-10.74677
 20
-13.92914
 30
0.0
 10
-10.74677
 20
-13.92914
 30
0.0
 10
-10.78801
 20
-13.99017
 30
0.0
 10
-10.78801
 20
-13.99017
 30
0.0
 10
-10.78801
 20
-13.99017
 30
0.0
 10
-10.78801
 20
-13.99017
 30
0.0
 10
-10.74677
 20
-13.99017
 30
0.0
 10
-10.74677
 20
-13.99017
 30
0.0
 10
-10.74677
 20
-13.99017
 30
0.0
 10
-10.74677
 20
-13.99017
 30
0.0
 10
-10.74677
 20
-13.92914
 30
0.0
 10
-10.74677
 20
-13.92914
 30
0.0
  0
SPLINE
  5
6A
330
1F
100
AcDbEntity
  8
Layer 1
 62
   250
100
AcDbSpline
210
0.0
220
0.0
230
1.0
 70
    11
 71
     3
 72
    48
 73
    44
 74
     0
 42
0.0000000001
 43
0.0000000001
 40
0.0
 40
0.0
 40
0.0
 40
0.0
 40
0.0909090909090909
 40
0.0909090909090909
 40
0.0909090909090909
 40
0.0909090909090909
 40
0.1818181818181818
 40
0.1818181818181818
 40
0.1818181818181818
 40
0.1818181818181818
 40
0.2727272727272727
 40
0.2727272727272727
 40
0.2727272727272727
 40
0.2727272727272727
 40
0.3636363636363636
 40
0.3636363636363636
 40
0.3636363636363636
 40
0.3636363636363636
 40
0.4545454545454546
 40
0.4545454545454546
 40
0.4545454545454546
 40
0.4545454545454546
 40
0.5454545454545455
 40
0.5454545454545455
 40
0.5454545454545455
 40
0.5454545454545455
 40
0.6363636363636365
 40
0.6363636363636365
 40
0.6363636363636365
 40
0.6363636363636365
 40
0.7272727272727274
 40
0.7272727272727274
 40
0.7272727272727274
 40
0.7272727272727274
 40
0.8181818181818183
 40
0.8181818181818183
 40
0.8181818181818183
 40
0.8181818181818183
 40
0.9090909090909093
 40
0.9090909090909093
 40
0.9090909090909093
 40
0.9090909090909093
 40
1.0
 40
1.0
 40
1.0
 40
1.0
 10
-10.75304
 20
-13.89817
 30
0.0
 10
-10.75304
 20
-13.89817
 30
0.0
 10
-10.71124
 20
-13.89817
 30
0.0
 10
-10.71124
 20
-13.89817
 30
0.0
 10
-10.71124
 20
-13.89817
 30
0.0
 10
-10.71124
 20
-13.89817
 30
0.0
 10
-10.71124
 20
-13.99017
 30
0.0
 10
-10.71124
 20
-13.99017
 30
0.0
 10
-10.71124
 20
-13.99017
 30
0.0
 10
-10.71124
 20
-13.99017
 30
0.0
 10
-10.69044
 20
-13.99017
 30
0.0
 10
-10.69044
 20
-13.99017
 30
0.0
 10
-10.69044
 20
-13.99017
 30
0.0
 10
-10.69044
 20
-13.99017
 30
0.0
 10
-10.69044
 20
-14.0174
 30
0.0
 10
-10.69044
 20
-14.0174
 30
0.0
 10
-10.69044
 20
-14.0174
 30
0.0
 10
-10.69044
 20
-14.0174
 30
0.0
 10
-10.71124
 20
-14.0174
 30
0.0
 10
-10.71124
 20
-14.0174
 30
0.0
 10
-10.71124
 20
-14.0174
 30
0.0
 10
-10.71124
 20
-14.0174
 30
0.0
 10
-10.71124
 20
-14.04397
 30
0.0
 10
-10.71124
 20
-14.04397
 30
0.0
 10
-10.71124
 20
-14.04397
 30
0.0
 10
-10.71124
 20
-14.04397
 30
0.0
 10
-10.74677
 20
-14.04397
 30
0.0
 10
-10.74677
 20
-14.04397
 30
0.0
 10
-10.74677
 20
-14.04397
 30
0.0
 10
-10.74677
 20
-14.04397
 30
0.0
 10
-10.74677
 20
-14.0174
 30
0.0
 10
-10.74677
 20
-14.0174
 30
0.0
 10
-10.74677
 20
-14.0174
 30
0.0
 10
-10.74677
 20
-14.0174
 30
0.0
 10
-10.81144
 20
-14.0174
 30
0.0
 10
-10.81144
 20
-14.0174
 30
0.0
 10
-10.81144
 20
-14.0174
 30
0.0
 10
-10.81144
 20
-14.0174
 30
0.0
 10
-10.81144
 20
-13.98517
 30
0.0
 10
-10.81144
 20
-13.98517
 30
0.0
 10
-10.81144
 20
-13.98517
 30
0.0
 10
-10.81144
 20
-13.98517
 30
0.0
 10
-10.75304
 20
-13.89817
 30
0.0
 10
-10.75304
 20
-13.89817
 30
0.0
  0
SPLINE
  5
6B
330
1F
100
AcDbEntity
  8
Layer 1
 62
   250
100
AcDbSpline
210
0.0
220
0.0
230
1.0
 70
    11
 71
     3
 72
    56
 73
    52
 74
     0
 42
0.0000000001
 43
0.0000000001
 40
0.0
 40
0.0
 40
0.0
 40
0.0
 40
0.0769230769230769
 40
0.0769230769230769
 40
0.0769230769230769
 40
0.0769230769230769
 40
0.1538461538461539
 40
0.1538461538461539
 40
0.1538461538461539
 40
0.1538461538461539
 40
0.2307692307692308
 40
0.2307692307692308
 40
0.2307692307692308
 40
0.2307692307692308
 40
0.3076923076923077
 40
0.3076923076923077
 40
0.3076923076923077
 40
0.3076923076923077
 40
0.3846153846153846
 40
0.3846153846153846
 40
0.3846153846153846
 40
0.3846153846153846
 40
0.4615384615384616
 40
0.4615384615384616
 40
0.4615384615384616
 40
0.4615384615384616
 40
0.5384615384615385
 40
0.5384615384615385
 40
0.5384615384615385
 40
0.5384615384615385
 40
0.6153846153846154
 40
0.6153846153846154
 40
0.6153846153846154
 40
0.6153846153846154
 40
0.6923076923076923
 40
0.6923076923076923
 40
0.6923076923076923
 40
0.6923076923076923
 40
0.7692307692307692
 40
0.7692307692307692
 40
0.7692307692307692
 40
0.7692307692307692
 40
0.846153846153846
 40
0.846153846153846
 40
0.846153846153846
 40
0.846153846153846
 40
0.9230769230769229
 40
0.9230769230769229
 40
0.9230769230769229
 40
0.9230769230769229
 40
1.0
 40
1.0
 40
1.0
 40
1.0
 10
-10.60567
 20
-13.89817
 30
0.0
 10
-10.60567
 20
-13.89817
 30
0.0
 10
-10.56964
 20
-13.89817
 30
0.0
 10
-10.56964
 20
-13.89817
 30
0.0
 10
-10.56964
 20
-13.89817
 30
0.0
 10
-10.56964
 20
-13.89817
 30
0.0
 10
-10.54444
 20
-14.00414
 30
0.0
 10
-10.54444
 20
-14.00414
 30
0.0
 10
-10.54444
 20
-14.00414
 30
0.0
 10
-10.54444
 20
-14.00414
 30
0.0
 10
-10.51944
 20
-13.89817
 30
0.0
 10
-10.51944
 20
-13.89817
 30
0.0
 10
-10.51944
 20
-13.89817
 30
0.0
 10
-10.51944
 20
-13.89817
 30
0.0
 10
-10.48321
 20
-13.89817
 30
0.0
 10
-10.48321
 20
-13.89817
 30
0.0
 10
-10.48321
 20
-13.89817
 30
0.0
 10
-10.48321
 20
-13.89817
 30
0.0
 10
-10.45821
 20
-14.00414
 30
0.0
 10
-10.45821
 20
-14.00414
 30
0.0
 10
-10.45821
 20
-14.00414
 30
0.0
 10
-10.45821
 20
-14.00414
 30
0.0
 10
-10.43301
 20
-13.89817
 30
0.0
 10
-10.43301
 20
-13.89817
 30
0.0
 10
-10.43301
 20
-13.89817
 30
0.0
 10
-10.43301
 20
-13.89817
 30
0.0
 10
-10.39727
 20
-13.89817
 30
0.0
 10
-10.39727
 20
-13.89817
 30
0.0
 10
-10.39727
 20
-13.89817
 30
0.0
 10
-10.39727
 20
-13.89817
 30
0.0
 10
-10.43164
 20
-14.04397
 30
0.0
 10
-10.43164
 20
-14.04397
 30
0.0
 10
-10.43164
 20
-14.04397
 30
0.0
 10
-10.43164
 20
-14.04397
 30
0.0
 10
-10.47501
 20
-14.04397
 30
0.0
 10
-10.47501
 20
-14.04397
 30
0.0
 10
-10.47501
 20
-14.04397
 30
0.0
 10
-10.47501
 20
-14.04397
 30
0.0
 10
-10.50147
 20
-13.93314
 30
0.0
 10
-10.50147
 20
-13.93314
 30
0.0
 10
-10.50147
 20
-13.93314
 30
0.0
 10
-10.50147
 20
-13.93314
 30
0.0
 10
-10.52764
 20
-14.04397
 30
0.0
 10
-10.52764
 20
-14.04397
 30
0.0
 10
-10.52764
 20
-14.04397
 30
0.0
 10
-10.52764
 20
-14.04397
 30
0.0
 10
-10.57101
 20
-14.04397
 30
0.0
 10
-10.57101
 20
-14.04397
 30
0.0
 10
-10.57101
 20
-14.04397
 30
0.0
 10
-10.57101
 20
-14.04397
 30
0.0
 10
-10.60567
 20
-13.89817
 30
0.0
 10
-10.60567
 20
-13.89817
 30
0.0
  0
SPLINE
  5
6C
330
1F
100
AcDbEntity
  8
Layer 1
 62
   250
100
AcDbSpline
210
0.0
220
0.0
230
1.0
 70
    11
 71
     3
 72
    36
 73
    32
 74
     0
 42
0.0000000001
 43
0.0000000001
 40
0.0
 40
0.0
 40
0.0
 40
0.0
 40
0.125
 40
0.125
 40
0.125
 40
0.125
 40
0.25
 40
0.25
 40
0.25
 40
0.25
 40
0.375
 40
0.375
 40
0.375
 40
0.375
 40
0.5
 40
0.5
 40
0.5
 40
0.5
 40
0.625
 40
0.625
 40
0.625
 40
0.625
 40
0.75
 40
0.75
 40
0.75
 40
0.75
 40
0.875
 40
0.875
 40
0.875
 40
0.875
 40
1.0
 40
1.0
 40
1.0
 40
1.0
 10
-10.28421
 20
-14.01744
 30
0.0
 10
-10.28421
 20
-14.01744
 30
0.0
 10
-10.34301
 20
-14.01744
 30
0.0
 10
-10.34301
 20
-14.01744
 30
0.0
 10
-10.34301
 20
-14.01744
 30
0.0
 10
-10.34301
 20
-14.01744
 30
0.0
 10
-10.35227
 20
-14.04397
 30
0.0
 10
-10.35227
 20
-14.04397
 30
0.0
 10
-10.35227
 20
-14.04397
 30
0.0
 10
-10.35227
 20
-14.04397
 30
0.0
 10
-10.39007
 20
-14.04397
 30
0.0
 10
-10.39007
 20
-14.04397
 30
0.0
 10
-10.39007
 20
-14.04397
 30
0.0
 10
-10.39007
 20
-14.04397
 30
0.0
 10
-10.33607
 20
-13.89817
 30
0.0
 10
-10.33607
 20
-13.89817
 30
0.0
 10
-10.33607
 20
-13.89817
 30
0.0
 10
-10.33607
 20
-13.89817
 30
0.0
 10
-10.29124
 20
-13.89817
 30
0.0
 10
-10.29124
 20
-13.89817
 30
0.0
 10
-10.29124
 20
-13.89817
 30
0.0
 10
-10.29124
 20
-13.89817
 30
0.0
 10
-10.23724
 20
-14.04397
 30
0.0
 10
-10.23724
 20
-14.04397
 30
0.0
 10
-10.23724
 20
-14.04397
 30
0.0
 10
-10.23724
 20
-14.04397
 30
0.0
 10
-10.27504
 20
-14.04397
 30
0.0
 10
-10.27504
 20
-14.04397
 30
0.0
 10
-10.27504
 20
-14.04397
 30
0.0
 10
-10.27504
 20
-14.04397
 30
0.0
 10
-10.28421
 20
-14.01744
 30
0.0
 10
-10.28421
 20
-14.01744
 30
0.0
  0
SPLINE
  5
6D
330
1F
100
AcDbEntity
  8
Layer 1
 62
   250
100
AcDbSpline
210
0.0
220
0.0
230
1.0
 70
    11
 71
     3
 72
    16
 73
    12
 74
     0
 42
0.0000000001
 43
0.0000000001
 40
0.0
 40
0.0
 40
0.0
 40
0.0
 40
0.3333333333333333
 40
0.3333333333333333
 40
0.3333333333333333
 40
0.3333333333333333
 40
0.6666666666666666
 40
0.6666666666666666
 40
0.6666666666666666
 40
0.6666666666666666
 40
1.0
 40
1.0
 40
1.0
 40
1.0
 10
-10.33364
 20
-13.99037
 30
0.0
 10
-10.33364
 20
-13.99037
 30
0.0
 10
-10.29367
 20
-13.99037
 30
0.0
 10
-10.29367
 20
-13.99037
 30
0.0
 10
-10.29367
 20
-13.99037
 30
0.0
 10
-10.29367
 20
-13.99037
 30
0.0
 10
-10.31361
 20
-13.93237
 30
0.0
 10
-10.31361
 20
-13.93237
 30
0.0
 10
-10.31361
 20
-13.93237
 30
0.0
 10
-10.31361
 20
-13.93237
 30
0.0
 10
-10.33364
 20
-13.99037
 30
0.0
 10
-10.33364
 20
-13.99037
 30
0.0
  0
SPLINE
  5
6E
330
1F
100
AcDbEntity
  8
Layer 1
 62
   250
100
AcDbSpline
210
0.0
220
0.0
230
1.0
 70
    11
 71
     3
 72
    36
 73
    32
 74
     0
 42
0.0000000001
 43
0.0000000001
 40
0.0
 40
0.0
 40
0.0
 40
0.0
 40
0.125
 40
0.125
 40
0.125
 40
0.125
 40
0.25
 40
0.25
 40
0.25
 40
0.25
 40
0.375
 40
0.375
 40
0.375
 40
0.375
 40
0.5
 40
0.5
 40
0.5
 40
0.5
 40
0.625
 40
0.625
 40
0.625
 40
0.625
 40
0.75
 40
0.75
 40
0.75
 40
0.75
 40
0.875
 40
0.875
 40
0.875
 40
0.875
 40
1.0
 40
1.0
 40
1.0
 40
1.0
 10
-10.23527
 20
-13.89817
 30
0.0
 10
-10.23527
 20
-13.89817
 30
0.0
 10
-10.10091
 20
-13.89817
 30
0.0
 10
-10.10091
 20
-13.89817
 30
0.0
 10
-10.10091
 20
-13.89817
 30
0.0
 10
-10.10091
 20
-13.89817
 30
0.0
 10
-10.10091
 20
-13.9266
 30
0.0
 10
-10.10091
 20
-13.9266
 30
0.0
 10
-10.10091
 20
-13.9266
 30
0.0
 10
-10.10091
 20
-13.9266
 30
0.0
 10
-10.14924
 20
-13.9266
 30
0.0
 10
-10.14924
 20
-13.9266
 30
0.0
 10
-10.14924
 20
-13.9266
 30
0.0
 10
-10.14924
 20
-13.9266
 30
0.0
 10
-10.14924
 20
-14.04397
 30
0.0
 10
-10.14924
 20
-14.04397
 30
0.0
 10
-10.14924
 20
-14.04397
 30
0.0
 10
-10.14924
 20
-14.04397
 30
0.0
 10
-10.18684
 20
-14.04397
 30
0.0
 10
-10.18684
 20
-14.04397
 30
0.0
 10
-10.18684
 20
-14.04397
 30
0.0
 10
-10.18684
 20
-14.04397
 30
0.0
 10
-10.18684
 20
-13.9266
 30
0.0
 10
-10.18684
 20
-13.9266
 30
0.0
 10
-10.18684
 20
-13.9266
 30
0.0
 10
-10.18684
 20
-13.9266
 30
0.0
 10
-10.23527
 20
-13.9266
 30
0.0
 10
-10.23527
 20
-13.9266
 30
0.0
 10
-10.23527
 20
-13.9266
 30
0.0
 10
-10.23527
 20
-13.9266
 30
0.0
 10
-10.23527
 20
-13.89817
 30
0.0
 10
-10.23527
 20
-13.89817
 30
0.0
  0
SPLINE
  5
6F
330
1F
100
AcDbEntity
  8
Layer 1
 62
   250
100
AcDbSpline
210
0.0
220
0.0
230
1.0
 70
    11
 71
     3
 72
    36
 73
    32
 74
     0
 42
0.0000000001
 43
0.0000000001
 40
0.0
 40
0.0
 40
0.0
 40
0.0
 40
0.125
 40
0.125
 40
0.125
 40
0.125
 40
0.25
 40
0.25
 40
0.25
 40
0.25
 40
0.375
 40
0.375
 40
0.375
 40
0.375
 40
0.5
 40
0.5
 40
0.5
 40
0.5
 40
0.625
 40
0.625
 40
0.625
 40
0.625
 40
0.75
 40
0.75
 40
0.75
 40
0.75
 40
0.875
 40
0.875
 40
0.875
 40
0.875
 40
1.0
 40
1.0
 40
1.0
 40
1.0
 10
-10.09884
 20
-13.89817
 30
0.0
 10
-10.09884
 20
-13.89817
 30
0.0
 10
-9.96448
 20
-13.89817
 30
0.0
 10
-9.96448
 20
-13.89817
 30
0.0
 10
-9.96448
 20
-13.89817
 30
0.0
 10
-9.96448
 20
-13.89817
 30
0.0
 10
-9.96448
 20
-13.9266
 30
0.0
 10
-9.96448
 20
-13.9266
 30
0.0
 10
-9.96448
 20
-13.9266
 30
0.0
 10
-9.96448
 20
-13.9266
 30
0.0
 10
-10.01281
 20
-13.9266
 30
0.0
 10
-10.01281
 20
-13.9266
 30
0.0
 10
-10.01281
 20
-13.9266
 30
0.0
 10
-10.01281
 20
-13.9266
 30
0.0
 10
-10.01281
 20
-14.04397
 30
0.0
 10
-10.01281
 20
-14.04397
 30
0.0
 10
-10.01281
 20
-14.04397
 30
0.0
 10
-10.01281
 20
-14.04397
 30
0.0
 10
-10.05041
 20
-14.04397
 30
0.0
 10
-10.05041
 20
-14.04397
 30
0.0
 10
-10.05041
 20
-14.04397
 30
0.0
 10
-10.05041
 20
-14.04397
 30
0.0
 10
-10.05041
 20
-13.9266
 30
0.0
 10
-10.05041
 20
-13.9266
 30
0.0
 10
-10.05041
 20
-13.9266
 30
0.0
 10
-10.05041
 20
-13.9266
 30
0.0
 10
-10.09884
 20
-13.9266
 30
0.0
 10
-10.09884
 20
-13.9266
 30
0.0
 10
-10.09884
 20
-13.9266
 30
0.0
 10
-10.09884
 20
-13.9266
 30
0.0
 10
-10.09884
 20
-13.89817
 30
0.0
 10
-10.09884
 20
-13.89817
 30
0.0
  0
SPLINE
  5
70
330
1F
100
AcDbEntity
  8
Layer 1
 62
   250
100
AcDbSpline
210
0.0
220
0.0
230
1.0
 70
    11
 71
     3
 72
    16
 73
    12
 74
     0
 42
0.0000000001
 43
0.0000000001
 40
0.0
 40
0.0
 40
0.0
 40
0.0
 40
0.3333333333333333
 40
0.3333333333333333
 40
0.3333333333333333
 40
0.3333333333333333
 40
0.6666666666666666
 40
0.6666666666666666
 40
0.6666666666666666
 40
0.6666666666666666
 40
1.0
 40
1.0
 40
1.0
 40
1.0
 10
-10.97103
 20
-14.16194
 30
0.0
 10
-10.97103
 20
-14.16194
 30
0.0
 10
-11.01227
 20
-14.22297
 30
0.0
 10
-11.01227
 20
-14.22297
 30
0.0
 10
-11.01227
 20
-14.22297
 30
0.0
 10
-11.01227
 20
-14.22297
 30
0.0
 10
-10.97103
 20
-14.22297
 30
0.0
 10
-10.97103
 20
-14.22297
 30
0.0
 10
-10.97103
 20
-14.22297
 30
0.0
 10
-10.97103
 20
-14.22297
 30
0.0
 10
-10.97103
 20
-14.16194
 30
0.0
 10
-10.97103
 20
-14.16194
 30
0.0
  0
SPLINE
  5
71
330
1F
100
AcDbEntity
  8
Layer 1
 62
   250
100
AcDbSpline
210
0.0
220
0.0
230
1.0
 70
    11
 71
     3
 72
    48
 73
    44
 74
     0
 42
0.0000000001
 43
0.0000000001
 40
0.0
 40
0.0
 40
0.0
 40
0.0
 40
0.0909090909090909
 40
0.0909090909090909
 40
0.0909090909090909
 40
0.0909090909090909
 40
0.1818181818181818
 40
0.1818181818181818
 40
0.1818181818181818
 40
0.1818181818181818
 40
0.2727272727272727
 40
0.2727272727272727
 40
0.2727272727272727
 40
0.2727272727272727
 40
0.3636363636363636
 40
0.3636363636363636
 40
0.3636363636363636
 40
0.3636363636363636
 40
0.4545454545454546
 40
0.4545454545454546
 40
0.4545454545454546
 40
0.4545454545454546
 40
0.5454545454545455
 40
0.5454545454545455
 40
0.5454545454545455
 40
0.5454545454545455
 40
0.6363636363636365
 40
0.6363636363636365
 40
0.6363636363636365
 40
0.6363636363636365
 40
0.7272727272727274
 40
0.7272727272727274
 40
0.7272727272727274
 40
0.7272727272727274
 40
0.8181818181818183
 40
0.8181818181818183
 40
0.8181818181818183
 40
0.8181818181818183
 40
0.9090909090909093
 40
0.9090909090909093
 40
0.9090909090909093
 40
0.9090909090909093
 40
1.0
 40
1.0
 40
1.0
 40
1.0
 10
-10.9773
 20
-14.13097
 30
0.0
 10
-10.9773
 20
-14.13097
 30
0.0
 10
-10.9355
 20
-14.13097
 30
0.0
 10
-10.9355
 20
-14.13097
 30
0.0
 10
-10.9355
 20
-14.13097
 30
0.0
 10
-10.9355
 20
-14.13097
 30
0.0
 10
-10.9355
 20
-14.22297
 30
0.0
 10
-10.9355
 20
-14.22297
 30
0.0
 10
-10.9355
 20
-14.22297
 30
0.0
 10
-10.9355
 20
-14.22297
 30
0.0
 10
-10.9147
 20
-14.22297
 30
0.0
 10
-10.9147
 20
-14.22297
 30
0.0
 10
-10.9147
 20
-14.22297
 30
0.0
 10
-10.9147
 20
-14.22297
 30
0.0
 10
-10.9147
 20
-14.2502
 30
0.0
 10
-10.9147
 20
-14.2502
 30
0.0
 10
-10.9147
 20
-14.2502
 30
0.0
 10
-10.9147
 20
-14.2502
 30
0.0
 10
-10.9355
 20
-14.2502
 30
0.0
 10
-10.9355
 20
-14.2502
 30
0.0
 10
-10.9355
 20
-14.2502
 30
0.0
 10
-10.9355
 20
-14.2502
 30
0.0
 10
-10.9355
 20
-14.27677
 30
0.0
 10
-10.9355
 20
-14.27677
 30
0.0
 10
-10.9355
 20
-14.27677
 30
0.0
 10
-10.9355
 20
-14.27677
 30
0.0
 10
-10.97103
 20
-14.27677
 30
0.0
 10
-10.97103
 20
-14.27677
 30
0.0
 10
-10.97103
 20
-14.27677
 30
0.0
 10
-10.97103
 20
-14.27677
 30
0.0
 10
-10.97103
 20
-14.2502
 30
0.0
 10
-10.97103
 20
-14.2502
 30
0.0
 10
-10.97103
 20
-14.2502
 30
0.0
 10
-10.97103
 20
-14.2502
 30
0.0
 10
-11.0357
 20
-14.2502
 30
0.0
 10
-11.0357
 20
-14.2502
 30
0.0
 10
-11.0357
 20
-14.2502
 30
0.0
 10
-11.0357
 20
-14.2502
 30
0.0
 10
-11.0357
 20
-14.21797
 30
0.0
 10
-11.0357
 20
-14.21797
 30
0.0
 10
-11.0357
 20
-14.21797
 30
0.0
 10
-11.0357
 20
-14.21797
 30
0.0
 10
-10.9773
 20
-14.13097
 30
0.0
 10
-10.9773
 20
-14.13097
 30
0.0
  0
SPLINE
  5
72
330
1F
100
AcDbEntity
  8
Layer 1
 62
   250
100
AcDbSpline
210
0.0
220
0.0
230
1.0
 70
    11
 71
     3
 72
    20
 73
    16
 74
     0
 42
0.0000000001
 43
0.0000000001
 40
0.0
 40
0.0
 40
0.0
 40
0.0
 40
0.25
 40
0.25
 40
0.25
 40
0.25
 40
0.5
 40
0.5
 40
0.5
 40
0.5
 40
0.75
 40
0.75
 40
0.75
 40
0.75
 40
1.0
 40
1.0
 40
1.0
 40
1.0
 10
-10.88513
 20
-14.23897
 30
0.0
 10
-10.88513
 20
-14.23897
 30
0.0
 10
-10.84996
 20
-14.23897
 30
0.0
 10
-10.84996
 20
-14.23897
 30
0.0
 10
-10.84996
 20
-14.23897
 30
0.0
 10
-10.84996
 20
-14.23897
 30
0.0
 10
-10.84996
 20
-14.27677
 30
0.0
 10
-10.84996
 20
-14.27677
 30
0.0
 10
-10.84996
 20
-14.27677
 30
0.0
 10
-10.84996
 20
-14.27677
 30
0.0
 10
-10.88513
 20
-14.27677
 30
0.0
 10
-10.88513
 20
-14.27677
 30
0.0
 10
-10.88513
 20
-14.27677
 30
0.0
 10
-10.88513
 20
-14.27677
 30
0.0
 10
-10.88513
 20
-14.23897
 30
0.0
 10
-10.88513
 20
-14.23897
 30
0.0
  0
SPLINE
  5
73
330
1F
100
AcDbEntity
  8
Layer 1
 62
   250
100
AcDbSpline
210
0.0
220
0.0
230
1.0
 70
    11
 71
     3
 72
    32
 73
    28
 74
     0
 42
0.0000000001
 43
0.0000000001
 40
0.0
 40
0.0
 40
0.0
 40
0.0
 40
0.1428571428571428
 40
0.1428571428571428
 40
0.1428571428571428
 40
0.1428571428571428
 40
0.2857142857142857
 40
0.2857142857142857
 40
0.2857142857142857
 40
0.2857142857142857
 40
0.4285714285714285
 40
0.4285714285714285
 40
0.4285714285714285
 40
0.4285714285714285
 40
0.5714285714285714
 40
0.5714285714285714
 40
0.5714285714285714
 40
0.5714285714285714
 40
0.7142857142857142
 40
0.7142857142857142
 40
0.7142857142857142
 40
0.7142857142857142
 40
0.857142857142857
 40
0.857142857142857
 40
0.857142857142857
 40
0.857142857142857
 40
1.0
 40
1.0
 40
1.0
 40
1.0
 10
-10.81619
 20
-14.13097
 30
0.0
 10
-10.81619
 20
-14.13097
 30
0.0
 10
-10.70633
 20
-14.13097
 30
0.0
 10
-10.70633
 20
-14.13097
 30
0.0
 10
-10.70633
 20
-14.13097
 30
0.0
 10
-10.70633
 20
-14.13097
 30
0.0
 10
-10.70633
 20
-14.15217
 30
0.0
 10
-10.70633
 20
-14.15217
 30
0.0
 10
-10.70633
 20
-14.15217
 30
0.0
 10
-10.70633
 20
-14.15217
 30
0.0
 10
-10.76316
 20
-14.27677
 30
0.0
 10
-10.76316
 20
-14.27677
 30
0.0
 10
-10.76316
 20
-14.27677
 30
0.0
 10
-10.76316
 20
-14.27677
 30
0.0
 10
-10.79979
 20
-14.27677
 30
0.0
 10
-10.79979
 20
-14.27677
 30
0.0
 10
-10.79979
 20
-14.27677
 30
0.0
 10
-10.79979
 20
-14.27677
 30
0.0
 10
-10.74596
 20
-14.1586
 30
0.0
 10
-10.74596
 20
-14.1586
 30
0.0
 10
-10.74596
 20
-14.1586
 30
0.0
 10
-10.74596
 20
-14.1586
 30
0.0
 10
-10.81619
 20
-14.1586
 30
0.0
 10
-10.81619
 20
-14.1586
 30
0.0
 10
-10.81619
 20
-14.1586
 30
0.0
 10
-10.81619
 20
-14.1586
 30
0.0
 10
-10.81619
 20
-14.13097
 30
0.0
 10
-10.81619
 20
-14.13097
 30
0.0
  0
SPLINE
  5
74
330
1F
100
AcDbEntity
  8
Layer 1
 62
   250
100
AcDbSpline
210
0.0
220
0.0
230
1.0
 70
    11
 71
     3
 72
    48
 73
    44
 74
     0
 42
0.0000000001
 43
0.0000000001
 40
0.0
 40
0.0
 40
0.0
 40
0.0
 40
0.0909090909090909
 40
0.0909090909090909
 40
0.0909090909090909
 40
0.0909090909090909
 40
0.1818181818181818
 40
0.1818181818181818
 40
0.1818181818181818
 40
0.1818181818181818
 40
0.2727272727272727
 40
0.2727272727272727
 40
0.2727272727272727
 40
0.2727272727272727
 40
0.3636363636363636
 40
0.3636363636363636
 40
0.3636363636363636
 40
0.3636363636363636
 40
0.4545454545454546
 40
0.4545454545454546
 40
0.4545454545454546
 40
0.4545454545454546
 40
0.5454545454545455
 40
0.5454545454545455
 40
0.5454545454545455
 40
0.5454545454545455
 40
0.6363636363636365
 40
0.6363636363636365
 40
0.6363636363636365
 40
0.6363636363636365
 40
0.7272727272727274
 40
0.7272727272727274
 40
0.7272727272727274
 40
0.7272727272727274
 40
0.8181818181818183
 40
0.8181818181818183
 40
0.8181818181818183
 40
0.8181818181818183
 40
0.9090909090909093
 40
0.9090909090909093
 40
0.9090909090909093
 40
0.9090909090909093
 40
1.0
 40
1.0
 40
1.0
 40
1.0
 10
-10.67359
 20
-14.1248
 30
0.0
 10
-10.67359
 20
-14.1248
 30
0.0
 10
-10.63862
 20
-14.1248
 30
0.0
 10
-10.63862
 20
-14.1248
 30
0.0
 10
-10.63862
 20
-14.1248
 30
0.0
 10
-10.63862
 20
-14.1248
 30
0.0
 10
-10.63862
 20
-14.20754
 30
0.0
 10
-10.63862
 20
-14.20754
 30
0.0
 10
-10.63862
 20
-14.20754
 30
0.0
 10
-10.63862
 20
-14.20754
 30
0.0
 10
-10.59839
 20
-14.1674
 30
0.0
 10
-10.59839
 20
-14.1674
 30
0.0
 10
-10.59839
 20
-14.1674
 30
0.0
 10
-10.59839
 20
-14.1674
 30
0.0
 10
-10.55776
 20
-14.1674
 30
0.0
 10
-10.55776
 20
-14.1674
 30
0.0
 10
-10.55776
 20
-14.1674
 30
0.0
 10
-10.55776
 20
-14.1674
 30
0.0
 10
-10.61119
 20
-14.2176
 30
0.0
 10
-10.61119
 20
-14.2176
 30
0.0
 10
-10.61119
 20
-14.2176
 30
0.0
 10
-10.61119
 20
-14.2176
 30
0.0
 10
-10.55356
 20
-14.27677
 30
0.0
 10
-10.55356
 20
-14.27677
 30
0.0
 10
-10.55356
 20
-14.27677
 30
0.0
 10
-10.55356
 20
-14.27677
 30
0.0
 10
-10.59596
 20
-14.27677
 30
0.0
 10
-10.59596
 20
-14.27677
 30
0.0
 10
-10.59596
 20
-14.27677
 30
0.0
 10
-10.59596
 20
-14.27677
 30
0.0
 10
-10.63862
 20
-14.23117
 30
0.0
 10
-10.63862
 20
-14.23117
 30
0.0
 10
-10.63862
 20
-14.23117
 30
0.0
 10
-10.63862
 20
-14.23117
 30
0.0
 10
-10.63862
 20
-14.27677
 30
0.0
 10
-10.63862
 20
-14.27677
 30
0.0
 10
-10.63862
 20
-14.27677
 30
0.0
 10
-10.63862
 20
-14.27677
 30
0.0
 10
-10.67359
 20
-14.27677
 30
0.0
 10
-10.67359
 20
-14.27677
 30
0.0
 10
-10.67359
 20
-14.27677
 30
0.0
 10
-10.67359
 20
-14.27677
 30
0.0
 10
-10.67359
 20
-14.1248
 30
0.0
 10
-10.67359
 20
-14.1248
 30
0.0
  0
SPLINE
  5
75
330
1F
100
AcDbEntity
  8
Layer 1
 62
   250
100
AcDbSpline
210
0.0
220
0.0
230
1.0
 70
    11
 71
     3
 72
    36
 73
    32
 74
     0
 42
0.0000000001
 43
0.0000000001
 40
0.0
 40
0.0
 40
0.0
 40
0.0
 40
0.125
 40
0.125
 40
0.125
 40
0.125
 40
0.25
 40
0.25
 40
0.25
 40
0.25
 40
0.375
 40
0.375
 40
0.375
 40
0.375
 40
0.5
 40
0.5
 40
0.5
 40
0.5
 40
0.625
 40
0.625
 40
0.625
 40
0.625
 40
0.75
 40
0.75
 40
0.75
 40
0.75
 40
0.875
 40
0.875
 40
0.875
 40
0.875
 40
1.0
 40
1.0
 40
1.0
 40
1.0
 10
-10.40279
 20
-14.15557
 30
0.0
 10
-10.41426
 20
-14.15557
 30
0.0
 10
-10.42313
 20
-14.1598
 30
0.0
 10
-10.42946
 20
-14.16827
 30
0.0
 10
-10.42946
 20
-14.16827
 30
0.0
 10
-10.43576
 20
-14.17674
 30
0.0
 10
-10.43893
 20
-14.18864
 30
0.0
 10
-10.43893
 20
-14.204
 30
0.0
 10
-10.43893
 20
-14.204
 30
0.0
 10
-10.43893
 20
-14.21934
 30
0.0
 10
-10.43576
 20
-14.2312
 30
0.0
 10
-10.42946
 20
-14.23967
 30
0.0
 10
-10.42946
 20
-14.23967
 30
0.0
 10
-10.42313
 20
-14.24814
 30
0.0
 10
-10.41426
 20
-14.25237
 30
0.0
 10
-10.40279
 20
-14.25237
 30
0.0
 10
-10.40279
 20
-14.25237
 30
0.0
 10
-10.39126
 20
-14.25237
 30
0.0
 10
-10.38236
 20
-14.24814
 30
0.0
 10
-10.37603
 20
-14.23967
 30
0.0
 10
-10.37603
 20
-14.23967
 30
0.0
 10
-10.36973
 20
-14.2312
 30
0.0
 10
-10.36656
 20
-14.21934
 30
0.0
 10
-10.36656
 20
-14.204
 30
0.0
 10
-10.36656
 20
-14.204
 30
0.0
 10
-10.36656
 20
-14.18864
 30
0.0
 10
-10.36973
 20
-14.17674
 30
0.0
 10
-10.37603
 20
-14.16827
 30
0.0
 10
-10.37603
 20
-14.16827
 30
0.0
 10
-10.38236
 20
-14.1598
 30
0.0
 10
-10.39126
 20
-14.15557
 30
0.0
 10
-10.40279
 20
-14.15557
 30
0.0
  0
SPLINE
  5
76
330
1F
100
AcDbEntity
  8
Layer 1
 62
   250
100
AcDbSpline
210
0.0
220
0.0
230
1.0
 70
    11
 71
     3
 72
    36
 73
    32
 74
     0
 42
0.0000000001
 43
0.0000000001
 40
0.0
 40
0.0
 40
0.0
 40
0.0
 40
0.125
 40
0.125
 40
0.125
 40
0.125
 40
0.25
 40
0.25
 40
0.25
 40
0.25
 40
0.375
 40
0.375
 40
0.375
 40
0.375
 40
0.5
 40
0.5
 40
0.5
 40
0.5
 40
0.625
 40
0.625
 40
0.625
 40
0.625
 40
0.75
 40
0.75
 40
0.75
 40
0.75
 40
0.875
 40
0.875
 40
0.875
 40
0.875
 40
1.0
 40
1.0
 40
1.0
 40
1.0
 10
-10.40279
 20
-14.12834
 30
0.0
 10
-10.37936
 20
-14.12834
 30
0.0
 10
-10.36099
 20
-14.13504
 30
0.0
 10
-10.34773
 20
-14.14847
 30
0.0
 10
-10.34773
 20
-14.14847
 30
0.0
 10
-10.33443
 20
-14.16187
 30
0.0
 10
-10.32779
 20
-14.18037
 30
0.0
 10
-10.32779
 20
-14.204
 30
0.0
 10
-10.32779
 20
-14.204
 30
0.0
 10
-10.32779
 20
-14.22757
 30
0.0
 10
-10.33443
 20
-14.24607
 30
0.0
 10
-10.34773
 20
-14.25947
 30
0.0
 10
-10.34773
 20
-14.25947
 30
0.0
 10
-10.36099
 20
-14.2729
 30
0.0
 10
-10.37936
 20
-14.2796
 30
0.0
 10
-10.40279
 20
-14.2796
 30
0.0
 10
-10.40279
 20
-14.2796
 30
0.0
 10
-10.42616
 20
-14.2796
 30
0.0
 10
-10.44449
 20
-14.2729
 30
0.0
 10
-10.45783
 20
-14.25947
 30
0.0
 10
-10.45783
 20
-14.25947
 30
0.0
 10
-10.47113
 20
-14.24607
 30
0.0
 10
-10.47779
 20
-14.22757
 30
0.0
 10
-10.47779
 20
-14.204
 30
0.0
 10
-10.47779
 20
-14.204
 30
0.0
 10
-10.47779
 20
-14.18037
 30
0.0
 10
-10.47113
 20
-14.16187
 30
0.0
 10
-10.45783
 20
-14.14847
 30
0.0
 10
-10.45783
 20
-14.14847
 30
0.0
 10
-10.44449
 20
-14.13504
 30
0.0
 10
-10.42616
 20
-14.12834
 30
0.0
 10
-10.40279
 20
-14.12834
 30
0.0
  0
SPLINE
  5
77
330
1F
100
AcDbEntity
  8
Layer 1
 62
   250
100
AcDbSpline
210
0.0
220
0.0
230
1.0
 70
    11
 71
     3
 72
    52
 73
    48
 74
     0
 42
0.0000000001
 43
0.0000000001
 40
0.0
 40
0.0
 40
0.0
 40
0.0
 40
0.0833333333333333
 40
0.0833333333333333
 40
0.0833333333333333
 40
0.0833333333333333
 40
0.1666666666666667
 40
0.1666666666666667
 40
0.1666666666666667
 40
0.1666666666666667
 40
0.25
 40
0.25
 40
0.25
 40
0.25
 40
0.3333333333333333
 40
0.3333333333333333
 40
0.3333333333333333
 40
0.3333333333333333
 40
0.4166666666666666
 40
0.4166666666666666
 40
0.4166666666666666
 40
0.4166666666666666
 40
0.4999999999999999
 40
0.4999999999999999
 40
0.4999999999999999
 40
0.4999999999999999
 40
0.5833333333333333
 40
0.5833333333333333
 40
0.5833333333333333
 40
0.5833333333333333
 40
0.6666666666666666
 40
0.6666666666666666
 40
0.6666666666666666
 40
0.6666666666666666
 40
0.75
 40
0.75
 40
0.75
 40
0.75
 40
0.8333333333333334
 40
0.8333333333333334
 40
0.8333333333333334
 40
0.8333333333333334
 40
0.9166666666666667
 40
0.9166666666666667
 40
0.9166666666666667
 40
0.9166666666666667
 40
1.0
 40
1.0
 40
1.0
 40
1.0
 10
-10.29936
 20
-14.13097
 30
0.0
 10
-10.29936
 20
-14.13097
 30
0.0
 10
-10.26176
 20
-14.13097
 30
0.0
 10
-10.26176
 20
-14.13097
 30
0.0
 10
-10.26176
 20
-14.13097
 30
0.0
 10
-10.26176
 20
-14.13097
 30
0.0
 10
-10.26176
 20
-14.18654
 30
0.0
 10
-10.26176
 20
-14.18654
 30
0.0
 10
-10.26176
 20
-14.18654
 30
0.0
 10
-10.26176
 20
-14.18654
 30
0.0
 10
-10.2063
 20
-14.18654
 30
0.0
 10
-10.2063
 20
-14.18654
 30
0.0
 10
-10.2063
 20
-14.18654
 30
0.0
 10
-10.2063
 20
-14.18654
 30
0.0
 10
-10.2063
 20
-14.13097
 30
0.0
 10
-10.2063
 20
-14.13097
 30
0.0
 10
-10.2063
 20
-14.13097
 30
0.0
 10
-10.2063
 20
-14.13097
 30
0.0
 10
-10.1687
 20
-14.13097
 30
0.0
 10
-10.1687
 20
-14.13097
 30
0.0
 10
-10.1687
 20
-14.13097
 30
0.0
 10
-10.1687
 20
-14.13097
 30
0.0
 10
-10.1687
 20
-14.27677
 30
0.0
 10
-10.1687
 20
-14.27677
 30
0.0
 10
-10.1687
 20
-14.27677
 30
0.0
 10
-10.1687
 20
-14.27677
 30
0.0
 10
-10.2063
 20
-14.27677
 30
0.0
 10
-10.2063
 20
-14.27677
 30
0.0
 10
-10.2063
 20
-14.27677
 30
0.0
 10
-10.2063
 20
-14.27677
 30
0.0
 10
-10.2063
 20
-14.21497
 30
0.0
 10
-10.2063
 20
-14.21497
 30
0.0
 10
-10.2063
 20
-14.21497
 30
0.0
 10
-10.2063
 20
-14.21497
 30
0.0
 10
-10.26176
 20
-14.21497
 30
0.0
 10
-10.26176
 20
-14.21497
 30
0.0
 10
-10.26176
 20
-14.21497
 30
0.0
 10
-10.26176
 20
-14.21497
 30
0.0
 10
-10.26176
 20
-14.27677
 30
0.0
 10
-10.26176
 20
-14.27677
 30
0.0
 10
-10.26176
 20
-14.27677
 30
0.0
 10
-10.26176
 20
-14.27677
 30
0.0
 10
-10.29936
 20
-14.27677
 30
0.0
 10
-10.29936
 20
-14.27677
 30
0.0
 10
-10.29936
 20
-14.27677
 30
0.0
 10
-10.29936
 20
-14.27677
 30
0.0
 10
-10.29936
 20
-14.13097
 30
0.0
 10
-10.29936
 20
-14.13097
 30
0.0
  0
SPLINE
  5
78
330
1F
100
AcDbEntity
  8
Layer 1
 62
   250
100
AcDbSpline
210
0.0
220
0.0
230
1.0
 70
    11
 71
     3
 72
    56
 73
    52
 74
     0
 42
0.0000000001
 43
0.0000000001
 40
0.0
 40
0.0
 40
0.0
 40
0.0
 40
0.0769230769230769
 40
0.0769230769230769
 40
0.0769230769230769
 40
0.0769230769230769
 40
0.1538461538461539
 40
0.1538461538461539
 40
0.1538461538461539
 40
0.1538461538461539
 40
0.2307692307692308
 40
0.2307692307692308
 40
0.2307692307692308
 40
0.2307692307692308
 40
0.3076923076923077
 40
0.3076923076923077
 40
0.3076923076923077
 40
0.3076923076923077
 40
0.3846153846153846
 40
0.3846153846153846
 40
0.3846153846153846
 40
0.3846153846153846
 40
0.4615384615384616
 40
0.4615384615384616
 40
0.4615384615384616
 40
0.4615384615384616
 40
0.5384615384615385
 40
0.5384615384615385
 40
0.5384615384615385
 40
0.5384615384615385
 40
0.6153846153846154
 40
0.6153846153846154
 40
0.6153846153846154
 40
0.6153846153846154
 40
0.6923076923076923
 40
0.6923076923076923
 40
0.6923076923076923
 40
0.6923076923076923
 40
0.7692307692307692
 40
0.7692307692307692
 40
0.7692307692307692
 40
0.7692307692307692
 40
0.846153846153846
 40
0.846153846153846
 40
0.846153846153846
 40
0.846153846153846
 40
0.9230769230769229
 40
0.9230769230769229
 40
0.9230769230769229
 40
0.9230769230769229
 40
1.0
 40
1.0
 40
1.0
 40
1.0
 10
-10.13199
 20
-14.13097
 30
0.0
 10
-10.13199
 20
-14.13097
 30
0.0
 10
-10.08416
 20
-14.13097
 30
0.0
 10
-10.08416
 20
-14.13097
 30
0.0
 10
-10.08416
 20
-14.13097
 30
0.0
 10
-10.08416
 20
-14.13097
 30
0.0
 10
-10.05093
 20
-14.209
 30
0.0
 10
-10.05093
 20
-14.209
 30
0.0
 10
-10.05093
 20
-14.209
 30
0.0
 10
-10.05093
 20
-14.209
 30
0.0
 10
-10.01753
 20
-14.13097
 30
0.0
 10
-10.01753
 20
-14.13097
 30
0.0
 10
-10.01753
 20
-14.13097
 30
0.0
 10
-10.01753
 20
-14.13097
 30
0.0
 10
-9.96979
 20
-14.13097
 30
0.0
 10
-9.96979
 20
-14.13097
 30
0.0
 10
-9.96979
 20
-14.13097
 30
0.0
 10
-9.96979
 20
-14.13097
 30
0.0
 10
-9.96979
 20
-14.27677
 30
0.0
 10
-9.96979
 20
-14.27677
 30
0.0
 10
-9.96979
 20
-14.27677
 30
0.0
 10
-9.96979
 20
-14.27677
 30
0.0
 10
-10.00533
 20
-14.27677
 30
0.0
 10
-10.00533
 20
-14.27677
 30
0.0
 10
-10.00533
 20
-14.27677
 30
0.0
 10
-10.00533
 20
-14.27677
 30
0.0
 10
-10.00533
 20
-14.17014
 30
0.0
 10
-10.00533
 20
-14.17014
 30
0.0
 10
-10.00533
 20
-14.17014
 30
0.0
 10
-10.00533
 20
-14.17014
 30
0.0
 10
-10.03893
 20
-14.24874
 30
0.0
 10
-10.03893
 20
-14.24874
 30
0.0
 10
-10.03893
 20
-14.24874
 30
0.0
 10
-10.03893
 20
-14.24874
 30
0.0
 10
-10.06276
 20
-14.24874
 30
0.0
 10
-10.06276
 20
-14.24874
 30
0.0
 10
-10.06276
 20
-14.24874
 30
0.0
 10
-10.06276
 20
-14.24874
 30
0.0
 10
-10.09636
 20
-14.17014
 30
0.0
 10
-10.09636
 20
-14.17014
 30
0.0
 10
-10.09636
 20
-14.17014
 30
0.0
 10
-10.09636
 20
-14.17014
 30
0.0
 10
-10.09636
 20
-14.27677
 30
0.0
 10
-10.09636
 20
-14.27677
 30
0.0
 10
-10.09636
 20
-14.27677
 30
0.0
 10
-10.09636
 20
-14.27677
 30
0.0
 10
-10.13199
 20
-14.27677
 30
0.0
 10
-10.13199
 20
-14.27677
 30
0.0
 10
-10.13199
 20
-14.27677
 30
0.0
 10
-10.13199
 20
-14.27677
 30
0.0
 10
-10.13199
 20
-14.13097
 30
0.0
 10
-10.13199
 20
-14.13097
 30
0.0
  0
SPLINE
  5
79
330
1F
100
AcDbEntity
  8
Layer 1
 62
   250
100
AcDbSpline
210
0.0
220
0.0
230
1.0
 70
    11
 71
     3
 72
    32
 73
    28
 74
     0
 42
0.0000000001
 43
0.0000000001
 40
0.0
 40
0.0
 40
0.0
 40
0.0
 40
0.1428571428571428
 40
0.1428571428571428
 40
0.1428571428571428
 40
0.1428571428571428
 40
0.2857142857142857
 40
0.2857142857142857
 40
0.2857142857142857
 40
0.2857142857142857
 40
0.4285714285714285
 40
0.4285714285714285
 40
0.4285714285714285
 40
0.4285714285714285
 40
0.5714285714285714
 40
0.5714285714285714
 40
0.5714285714285714
 40
0.5714285714285714
 40
0.7142857142857142
 40
0.7142857142857142
 40
0.7142857142857142
 40
0.7142857142857142
 40
0.857142857142857
 40
0.857142857142857
 40
0.857142857142857
 40
0.857142857142857
 40
1.0
 40
1.0
 40
1.0
 40
1.0
 10
-10.98299
 20
-14.42844
 30
0.0
 10
-10.97512
 20
-14.42844
 30
0.0
 10
-10.96946
 20
-14.42697
 30
0.0
 10
-10.96606
 20
-14.42404
 30
0.0
 10
-10.96606
 20
-14.42404
 30
0.0
 10
-10.96262
 20
-14.4211
 30
0.0
 10
-10.96092
 20
-14.41627
 30
0.0
 10
-10.96092
 20
-14.40957
 30
0.0
 10
-10.96092
 20
-14.40957
 30
0.0
 10
-10.96092
 20
-14.40294
 30
0.0
 10
-10.96262
 20
-14.39817
 30
0.0
 10
-10.96606
 20
-14.3953
 30
0.0
 10
-10.96606
 20
-14.3953
 30
0.0
 10
-10.96946
 20
-14.39244
 30
0.0
 10
-10.97512
 20
-14.391
 30
0.0
 10
-10.98299
 20
-14.391
 30
0.0
 10
-10.98299
 20
-14.391
 30
0.0
 10
-10.98299
 20
-14.391
 30
0.0
 10
-10.99882
 20
-14.391
 30
0.0
 10
-10.99882
 20
-14.391
 30
0.0
 10
-10.99882
 20
-14.391
 30
0.0
 10
-10.99882
 20
-14.391
 30
0.0
 10
-10.99882
 20
-14.42844
 30
0.0
 10
-10.99882
 20
-14.42844
 30
0.0
 10
-10.99882
 20
-14.42844
 30
0.0
 10
-10.99882
 20
-14.42844
 30
0.0
 10
-10.98299
 20
-14.42844
 30
0.0
 10
-10.98299
 20
-14.42844
 30
0.0
  0
SPLINE
  5
7A
330
1F
100
AcDbEntity
  8
Layer 1
 62
   250
100
AcDbSpline
210
0.0
220
0.0
230
1.0
 70
    11
 71
     3
 72
    68
 73
    64
 74
     0
 42
0.0000000001
 43
0.0000000001
 40
0.0
 40
0.0
 40
0.0
 40
0.0
 40
0.0625
 40
0.0625
 40
0.0625
 40
0.0625
 40
0.125
 40
0.125
 40
0.125
 40
0.125
 40
0.1875
 40
0.1875
 40
0.1875
 40
0.1875
 40
0.25
 40
0.25
 40
0.25
 40
0.25
 40
0.3125
 40
0.3125
 40
0.3125
 40
0.3125
 40
0.375
 40
0.375
 40
0.375
 40
0.375
 40
0.4375
 40
0.4375
 40
0.4375
 40
0.4375
 40
0.5
 40
0.5
 40
0.5
 40
0.5
 40
0.5625
 40
0.5625
 40
0.5625
 40
0.5625
 40
0.625
 40
0.625
 40
0.625
 40
0.625
 40
0.6875
 40
0.6875
 40
0.6875
 40
0.6875
 40
0.75
 40
0.75
 40
0.75
 40
0.75
 40
0.8125
 40
0.8125
 40
0.8125
 40
0.8125
 40
0.875
 40
0.875
 40
0.875
 40
0.875
 40
0.9375
 40
0.9375
 40
0.9375
 40
0.9375
 40
1.0
 40
1.0
 40
1.0
 40
1.0
 10
-10.99882
 20
-14.4544
 30
0.0
 10
-10.99882
 20
-14.4544
 30
0.0
 10
-10.99882
 20
-14.50957
 30
0.0
 10
-10.99882
 20
-14.50957
 30
0.0
 10
-10.99882
 20
-14.50957
 30
0.0
 10
-10.99882
 20
-14.50957
 30
0.0
 10
-11.03642
 20
-14.50957
 30
0.0
 10
-11.03642
 20
-14.50957
 30
0.0
 10
-11.03642
 20
-14.50957
 30
0.0
 10
-11.03642
 20
-14.50957
 30
0.0
 10
-11.03642
 20
-14.36377
 30
0.0
 10
-11.03642
 20
-14.36377
 30
0.0
 10
-11.03642
 20
-14.36377
 30
0.0
 10
-11.03642
 20
-14.36377
 30
0.0
 10
-10.97899
 20
-14.36377
 30
0.0
 10
-10.97899
 20
-14.36377
 30
0.0
 10
-10.97899
 20
-14.36377
 30
0.0
 10
-10.95979
 20
-14.36377
 30
0.0
 10
-10.94569
 20
-14.367
 30
0.0
 10
-10.93676
 20
-14.37344
 30
0.0
 10
-10.93676
 20
-14.37344
 30
0.0
 10
-10.92779
 20
-14.37987
 30
0.0
 10
-10.92332
 20
-14.39007
 30
0.0
 10
-10.92332
 20
-14.404
 30
0.0
 10
-10.92332
 20
-14.404
 30
0.0
 10
-10.92332
 20
-14.41364
 30
0.0
 10
-10.92566
 20
-14.42157
 30
0.0
 10
-10.93029
 20
-14.42774
 30
0.0
 10
-10.93029
 20
-14.42774
 30
0.0
 10
-10.93496
 20
-14.43394
 30
0.0
 10
-10.94199
 20
-14.4385
 30
0.0
 10
-10.95136
 20
-14.4414
 30
0.0
 10
-10.95136
 20
-14.4414
 30
0.0
 10
-10.94622
 20
-14.4426
 30
0.0
 10
-10.94159
 20
-14.44524
 30
0.0
 10
-10.93752
 20
-14.44937
 30
0.0
 10
-10.93752
 20
-14.44937
 30
0.0
 10
-10.93346
 20
-14.4535
 30
0.0
 10
-10.92936
 20
-14.45977
 30
0.0
 10
-10.92519
 20
-14.46817
 30
0.0
 10
-10.92519
 20
-14.46817
 30
0.0
 10
-10.92519
 20
-14.46817
 30
0.0
 10
-10.90476
 20
-14.50957
 30
0.0
 10
-10.90476
 20
-14.50957
 30
0.0
 10
-10.90476
 20
-14.50957
 30
0.0
 10
-10.90476
 20
-14.50957
 30
0.0
 10
-10.94482
 20
-14.50957
 30
0.0
 10
-10.94482
 20
-14.50957
 30
0.0
 10
-10.94482
 20
-14.50957
 30
0.0
 10
-10.94482
 20
-14.50957
 30
0.0
 10
-10.96259
 20
-14.47334
 30
0.0
 10
-10.96259
 20
-14.47334
 30
0.0
 10
-10.96259
 20
-14.47334
 30
0.0
 10
-10.96616
 20
-14.46607
 30
0.0
 10
-10.96979
 20
-14.46107
 30
0.0
 10
-10.97349
 20
-14.4584
 30
0.0
 10
-10.97349
 20
-14.4584
 30
0.0
 10
-10.97716
 20
-14.45574
 30
0.0
 10
-10.98206
 20
-14.4544
 30
0.0
 10
-10.98819
 20
-14.4544
 30
0.0
 10
-10.98819
 20
-14.4544
 30
0.0
 10
-10.98819
 20
-14.4544
 30
0.0
 10
-10.99882
 20
-14.4544
 30
0.0
 10
-10.99882
 20
-14.4544
 30
0.0
  0
SPLINE
  5
7B
330
1F
100
AcDbEntity
  8
Layer 1
 62
   250
100
AcDbSpline
210
0.0
220
0.0
230
1.0
 70
    11
 71
     3
 72
    52
 73
    48
 74
     0
 42
0.0000000001
 43
0.0000000001
 40
0.0
 40
0.0
 40
0.0
 40
0.0
 40
0.0833333333333333
 40
0.0833333333333333
 40
0.0833333333333333
 40
0.0833333333333333
 40
0.1666666666666667
 40
0.1666666666666667
 40
0.1666666666666667
 40
0.1666666666666667
 40
0.25
 40
0.25
 40
0.25
 40
0.25
 40
0.3333333333333333
 40
0.3333333333333333
 40
0.3333333333333333
 40
0.3333333333333333
 40
0.4166666666666666
 40
0.4166666666666666
 40
0.4166666666666666
 40
0.4166666666666666
 40
0.4999999999999999
 40
0.4999999999999999
 40
0.4999999999999999
 40
0.4999999999999999
 40
0.5833333333333333
 40
0.5833333333333333
 40
0.5833333333333333
 40
0.5833333333333333
 40
0.6666666666666666
 40
0.6666666666666666
 40
0.6666666666666666
 40
0.6666666666666666
 40
0.75
 40
0.75
 40
0.75
 40
0.75
 40
0.8333333333333334
 40
0.8333333333333334
 40
0.8333333333333334
 40
0.8333333333333334
 40
0.9166666666666667
 40
0.9166666666666667
 40
0.9166666666666667
 40
0.9166666666666667
 40
1.0
 40
1.0
 40
1.0
 40
1.0
 10
-10.88242
 20
-14.36377
 30
0.0
 10
-10.88242
 20
-14.36377
 30
0.0
 10
-10.78096
 20
-14.36377
 30
0.0
 10
-10.78096
 20
-14.36377
 30
0.0
 10
-10.78096
 20
-14.36377
 30
0.0
 10
-10.78096
 20
-14.36377
 30
0.0
 10
-10.78096
 20
-14.3922
 30
0.0
 10
-10.78096
 20
-14.3922
 30
0.0
 10
-10.78096
 20
-14.3922
 30
0.0
 10
-10.78096
 20
-14.3922
 30
0.0
 10
-10.84482
 20
-14.3922
 30
0.0
 10
-10.84482
 20
-14.3922
 30
0.0
 10
-10.84482
 20
-14.3922
 30
0.0
 10
-10.84482
 20
-14.3922
 30
0.0
 10
-10.84482
 20
-14.41934
 30
0.0
 10
-10.84482
 20
-14.41934
 30
0.0
 10
-10.84482
 20
-14.41934
 30
0.0
 10
-10.84482
 20
-14.41934
 30
0.0
 10
-10.78479
 20
-14.41934
 30
0.0
 10
-10.78479
 20
-14.41934
 30
0.0
 10
-10.78479
 20
-14.41934
 30
0.0
 10
-10.78479
 20
-14.41934
 30
0.0
 10
-10.78479
 20
-14.44777
 30
0.0
 10
-10.78479
 20
-14.44777
 30
0.0
 10
-10.78479
 20
-14.44777
 30
0.0
 10
-10.78479
 20
-14.44777
 30
0.0
 10
-10.84482
 20
-14.44777
 30
0.0
 10
-10.84482
 20
-14.44777
 30
0.0
 10
-10.84482
 20
-14.44777
 30
0.0
 10
-10.84482
 20
-14.44777
 30
0.0
 10
-10.84482
 20
-14.48114
 30
0.0
 10
-10.84482
 20
-14.48114
 30
0.0
 10
-10.84482
 20
-14.48114
 30
0.0
 10
-10.84482
 20
-14.48114
 30
0.0
 10
-10.77882
 20
-14.48114
 30
0.0
 10
-10.77882
 20
-14.48114
 30
0.0
 10
-10.77882
 20
-14.48114
 30
0.0
 10
-10.77882
 20
-14.48114
 30
0.0
 10
-10.77882
 20
-14.50957
 30
0.0
 10
-10.77882
 20
-14.50957
 30
0.0
 10
-10.77882
 20
-14.50957
 30
0.0
 10
-10.77882
 20
-14.50957
 30
0.0
 10
-10.88242
 20
-14.50957
 30
0.0
 10
-10.88242
 20
-14.50957
 30
0.0
 10
-10.88242
 20
-14.50957
 30
0.0
 10
-10.88242
 20
-14.50957
 30
0.0
 10
-10.88242
 20
-14.36377
 30
0.0
 10
-10.88242
 20
-14.36377
 30
0.0
  0
SPLINE
  5
7C
330
1F
100
AcDbEntity
  8
Layer 1
 62
   250
100
AcDbSpline
210
0.0
220
0.0
230
1.0
 70
    11
 71
     3
 72
   116
 73
   112
 74
     0
 42
0.0000000001
 43
0.0000000001
 40
0.0
 40
0.0
 40
0.0
 40
0.0
 40
0.0357142857142857
 40
0.0357142857142857
 40
0.0357142857142857
 40
0.0357142857142857
 40
0.0714285714285714
 40
0.0714285714285714
 40
0.0714285714285714
 40
0.0714285714285714
 40
0.1071428571428571
 40
0.1071428571428571
 40
0.1071428571428571
 40
0.1071428571428571
 40
0.1428571428571428
 40
0.1428571428571428
 40
0.1428571428571428
 40
0.1428571428571428
 40
0.1785714285714285
 40
0.1785714285714285
 40
0.1785714285714285
 40
0.1785714285714285
 40
0.2142857142857142
 40
0.2142857142857142
 40
0.2142857142857142
 40
0.2142857142857142
 40
0.2499999999999999
 40
0.2499999999999999
 40
0.2499999999999999
 40
0.2499999999999999
 40
0.2857142857142856
 40
0.2857142857142856
 40
0.2857142857142856
 40
0.2857142857142856
 40
0.3214285714285713
 40
0.3214285714285713
 40
0.3214285714285713
 40
0.3214285714285713
 40
0.357142857142857
 40
0.357142857142857
 40
0.357142857142857
 40
0.357142857142857
 40
0.3928571428571427
 40
0.3928571428571427
 40
0.3928571428571427
 40
0.3928571428571427
 40
0.4285714285714284
 40
0.4285714285714284
 40
0.4285714285714284
 40
0.4285714285714284
 40
0.4642857142857141
 40
0.4642857142857141
 40
0.4642857142857141
 40
0.4642857142857141
 40
0.4999999999999998
 40
0.4999999999999998
 40
0.4999999999999998
 40
0.4999999999999998
 40
0.5357142857142856
 40
0.5357142857142856
 40
0.5357142857142856
 40
0.5357142857142856
 40
0.5714285714285713
 40
0.5714285714285713
 40
0.5714285714285713
 40
0.5714285714285713
 40
0.607142857142857
 40
0.607142857142857
 40
0.607142857142857
 40
0.607142857142857
 40
0.6428571428571427
 40
0.6428571428571427
 40
0.6428571428571427
 40
0.6428571428571427
 40
0.6785714285714284
 40
0.6785714285714284
 40
0.6785714285714284
 40
0.6785714285714284
 40
0.7142857142857141
 40
0.7142857142857141
 40
0.7142857142857141
 40
0.7142857142857141
 40
0.7499999999999998
 40
0.7499999999999998
 40
0.7499999999999998
 40
0.7499999999999998
 40
0.7857142857142855
 40
0.7857142857142855
 40
0.7857142857142855
 40
0.7857142857142855
 40
0.8214285714285712
 40
0.8214285714285712
 40
0.8214285714285712
 40
0.8214285714285712
 40
0.8571428571428569
 40
0.8571428571428569
 40
0.8571428571428569
 40
0.8571428571428569
 40
0.8928571428571426
 40
0.8928571428571426
 40
0.8928571428571426
 40
0.8928571428571426
 40
0.9285714285714283
 40
0.9285714285714283
 40
0.9285714285714283
 40
0.9285714285714283
 40
0.964285714285714
 40
0.964285714285714
 40
0.964285714285714
 40
0.964285714285714
 40
1.0
 40
1.0
 40
1.0
 40
1.0
 10
-10.64433
 20
-14.36837
 30
0.0
 10
-10.64433
 20
-14.36837
 30
0.0
 10
-10.64433
 20
-14.3992
 30
0.0
 10
-10.64433
 20
-14.3992
 30
0.0
 10
-10.64433
 20
-14.3992
 30
0.0
 10
-10.65233
 20
-14.39564
 30
0.0
 10
-10.66016
 20
-14.39294
 30
0.0
 10
-10.66776
 20
-14.3911
 30
0.0
 10
-10.66776
 20
-14.3911
 30
0.0
 10
-10.67539
 20
-14.38927
 30
0.0
 10
-10.68259
 20
-14.38837
 30
0.0
 10
-10.68936
 20
-14.38837
 30
0.0
 10
-10.68936
 20
-14.38837
 30
0.0
 10
-10.69833
 20
-14.38837
 30
0.0
 10
-10.70499
 20
-14.3896
 30
0.0
 10
-10.70929
 20
-14.39207
 30
0.0
 10
-10.70929
 20
-14.39207
 30
0.0
 10
-10.71359
 20
-14.39457
 30
0.0
 10
-10.71573
 20
-14.3984
 30
0.0
 10
-10.71573
 20
-14.4036
 30
0.0
 10
-10.71573
 20
-14.4036
 30
0.0
 10
-10.71573
 20
-14.4075
 30
0.0
 10
-10.71429
 20
-14.41057
 30
0.0
 10
-10.71139
 20
-14.41274
 30
0.0
 10
-10.71139
 20
-14.41274
 30
0.0
 10
-10.70849
 20
-14.4149
 30
0.0
 10
-10.70323
 20
-14.4168
 30
0.0
 10
-10.69559
 20
-14.41837
 30
0.0
 10
-10.69559
 20
-14.41837
 30
0.0
 10
-10.69559
 20
-14.41837
 30
0.0
 10
-10.67959
 20
-14.42157
 30
0.0
 10
-10.67959
 20
-14.42157
 30
0.0
 10
-10.67959
 20
-14.42157
 30
0.0
 10
-10.66336
 20
-14.42484
 30
0.0
 10
-10.65186
 20
-14.42977
 30
0.0
 10
-10.64503
 20
-14.43644
 30
0.0
 10
-10.64503
 20
-14.43644
 30
0.0
 10
-10.63819
 20
-14.44307
 30
0.0
 10
-10.63476
 20
-14.4525
 30
0.0
 10
-10.63476
 20
-14.46474
 30
0.0
 10
-10.63476
 20
-14.46474
 30
0.0
 10
-10.63476
 20
-14.48084
 30
0.0
 10
-10.63953
 20
-14.4928
 30
0.0
 10
-10.64906
 20
-14.50064
 30
0.0
 10
-10.64906
 20
-14.50064
 30
0.0
 10
-10.65859
 20
-14.50847
 30
0.0
 10
-10.67316
 20
-14.5124
 30
0.0
 10
-10.69276
 20
-14.5124
 30
0.0
 10
-10.69276
 20
-14.5124
 30
0.0
 10
-10.70203
 20
-14.5124
 30
0.0
 10
-10.71129
 20
-14.51154
 30
0.0
 10
-10.72059
 20
-14.50977
 30
0.0
 10
-10.72059
 20
-14.50977
 30
0.0
 10
-10.72989
 20
-14.508
 30
0.0
 10
-10.73923
 20
-14.5054
 30
0.0
 10
-10.74853
 20
-14.50197
 30
0.0
 10
-10.74853
 20
-14.50197
 30
0.0
 10
-10.74853
 20
-14.50197
 30
0.0
 10
-10.74853
 20
-14.47024
 30
0.0
 10
-10.74853
 20
-14.47024
 30
0.0
 10
-10.74853
 20
-14.47024
 30
0.0
 10
-10.73923
 20
-14.47517
 30
0.0
 10
-10.73023
 20
-14.4789
 30
0.0
 10
-10.72153
 20
-14.4814
 30
0.0
 10
-10.72153
 20
-14.4814
 30
0.0
 10
-10.71283
 20
-14.4839
 30
0.0
 10
-10.70446
 20
-14.48517
 30
0.0
 10
-10.69639
 20
-14.48517
 30
0.0
 10
-10.69639
 20
-14.48517
 30
0.0
 10
-10.68819
 20
-14.48517
 30
0.0
 10
-10.68189
 20
-14.4838
 30
0.0
 10
-10.67753
 20
-14.48107
 30
0.0
 10
-10.67753
 20
-14.48107
 30
0.0
 10
-10.67316
 20
-14.47834
 30
0.0
 10
-10.67099
 20
-14.47444
 30
0.0
 10
-10.67099
 20
-14.46934
 30
0.0
 10
-10.67099
 20
-14.46934
 30
0.0
 10
-10.67099
 20
-14.4648
 30
0.0
 10
-10.67246
 20
-14.46127
 30
0.0
 10
-10.67543
 20
-14.4588
 30
0.0
 10
-10.67543
 20
-14.4588
 30
0.0
 10
-10.67839
 20
-14.45634
 30
0.0
 10
-10.68429
 20
-14.4541
 30
0.0
 10
-10.69316
 20
-14.45217
 30
0.0
 10
-10.69316
 20
-14.45217
 30
0.0
 10
-10.69316
 20
-14.45217
 30
0.0
 10
-10.70773
 20
-14.44894
 30
0.0
 10
-10.70773
 20
-14.44894
 30
0.0
 10
-10.70773
 20
-14.44894
 30
0.0
 10
-10.72229
 20
-14.4458
 30
0.0
 10
-10.73296
 20
-14.44084
 30
0.0
 10
-10.73969
 20
-14.434
 30
0.0
 10
-10.73969
 20
-14.434
 30
0.0
 10
-10.74643
 20
-14.42717
 30
0.0
 10
-10.74979
 20
-14.41794
 30
0.0
 10
-10.74979
 20
-14.40637
 30
0.0
 10
-10.74979
 20
-14.40637
 30
0.0
 10
-10.74979
 20
-14.39184
 30
0.0
 10
-10.74509
 20
-14.38067
 30
0.0
 10
-10.73573
 20
-14.37287
 30
0.0
 10
-10.73573
 20
-14.37287
 30
0.0
 10
-10.72636
 20
-14.36504
 30
0.0
 10
-10.71289
 20
-14.36114
 30
0.0
 10
-10.69529
 20
-14.36114
 30
0.0
 10
-10.69529
 20
-14.36114
 30
0.0
 10
-10.68729
 20
-14.36114
 30
0.0
 10
-10.67906
 20
-14.36174
 30
0.0
 10
-10.67059
 20
-14.36294
 30
0.0
 10
-10.67059
 20
-14.36294
 30
0.0
 10
-10.66213
 20
-14.36414
 30
0.0
 10
-10.65336
 20
-14.36594
 30
0.0
 10
-10.64433
 20
-14.36837
 30
0.0
  0
SPLINE
  5
7D
330
1F
100
AcDbEntity
  8
Layer 1
 62
   250
100
AcDbSpline
210
0.0
220
0.0
230
1.0
 70
    11
 71
     3
 72
    20
 73
    16
 74
     0
 42
0.0000000001
 43
0.0000000001
 40
0.0
 40
0.0
 40
0.0
 40
0.0
 40
0.25
 40
0.25
 40
0.25
 40
0.25
 40
0.5
 40
0.5
 40
0.5
 40
0.5
 40
0.75
 40
0.75
 40
0.75
 40
0.75
 40
1.0
 40
1.0
 40
1.0
 40
1.0
 10
-10.60176
 20
-14.36377
 30
0.0
 10
-10.60176
 20
-14.36377
 30
0.0
 10
-10.56416
 20
-14.36377
 30
0.0
 10
-10.56416
 20
-14.36377
 30
0.0
 10
-10.56416
 20
-14.36377
 30
0.0
 10
-10.56416
 20
-14.36377
 30
0.0
 10
-10.56416
 20
-14.50957
 30
0.0
 10
-10.56416
 20
-14.50957
 30
0.0
 10
-10.56416
 20
-14.50957
 30
0.0
 10
-10.56416
 20
-14.50957
 30
0.0
 10
-10.60176
 20
-14.50957
 30
0.0
 10
-10.60176
 20
-14.50957
 30
0.0
 10
-10.60176
 20
-14.50957
 30
0.0
 10
-10.60176
 20
-14.50957
 30
0.0
 10
-10.60176
 20
-14.36377
 30
0.0
 10
-10.60176
 20
-14.36377
 30
0.0
  0
SPLINE
  5
7E
330
1F
100
AcDbEntity
  8
Layer 1
 62
   250
100
AcDbSpline
210
0.0
220
0.0
230
1.0
 70
    11
 71
     3
 72
   116
 73
   112
 74
     0
 42
0.0000000001
 43
0.0000000001
 40
0.0
 40
0.0
 40
0.0
 40
0.0
 40
0.0357142857142857
 40
0.0357142857142857
 40
0.0357142857142857
 40
0.0357142857142857
 40
0.0714285714285714
 40
0.0714285714285714
 40
0.0714285714285714
 40
0.0714285714285714
 40
0.1071428571428571
 40
0.1071428571428571
 40
0.1071428571428571
 40
0.1071428571428571
 40
0.1428571428571428
 40
0.1428571428571428
 40
0.1428571428571428
 40
0.1428571428571428
 40
0.1785714285714285
 40
0.1785714285714285
 40
0.1785714285714285
 40
0.1785714285714285
 40
0.2142857142857142
 40
0.2142857142857142
 40
0.2142857142857142
 40
0.2142857142857142
 40
0.2499999999999999
 40
0.2499999999999999
 40
0.2499999999999999
 40
0.2499999999999999
 40
0.2857142857142856
 40
0.2857142857142856
 40
0.2857142857142856
 40
0.2857142857142856
 40
0.3214285714285713
 40
0.3214285714285713
 40
0.3214285714285713
 40
0.3214285714285713
 40
0.357142857142857
 40
0.357142857142857
 40
0.357142857142857
 40
0.357142857142857
 40
0.3928571428571427
 40
0.3928571428571427
 40
0.3928571428571427
 40
0.3928571428571427
 40
0.4285714285714284
 40
0.4285714285714284
 40
0.4285714285714284
 40
0.4285714285714284
 40
0.4642857142857141
 40
0.4642857142857141
 40
0.4642857142857141
 40
0.4642857142857141
 40
0.4999999999999998
 40
0.4999999999999998
 40
0.4999999999999998
 40
0.4999999999999998
 40
0.5357142857142856
 40
0.5357142857142856
 40
0.5357142857142856
 40
0.5357142857142856
 40
0.5714285714285713
 40
0.5714285714285713
 40
0.5714285714285713
 40
0.5714285714285713
 40
0.607142857142857
 40
0.607142857142857
 40
0.607142857142857
 40
0.607142857142857
 40
0.6428571428571427
 40
0.6428571428571427
 40
0.6428571428571427
 40
0.6428571428571427
 40
0.6785714285714284
 40
0.6785714285714284
 40
0.6785714285714284
 40
0.6785714285714284
 40
0.7142857142857141
 40
0.7142857142857141
 40
0.7142857142857141
 40
0.7142857142857141
 40
0.7499999999999998
 40
0.7499999999999998
 40
0.7499999999999998
 40
0.7499999999999998
 40
0.7857142857142855
 40
0.7857142857142855
 40
0.7857142857142855
 40
0.7857142857142855
 40
0.8214285714285712
 40
0.8214285714285712
 40
0.8214285714285712
 40
0.8214285714285712
 40
0.8571428571428569
 40
0.8571428571428569
 40
0.8571428571428569
 40
0.8571428571428569
 40
0.8928571428571426
 40
0.8928571428571426
 40
0.8928571428571426
 40
0.8928571428571426
 40
0.9285714285714283
 40
0.9285714285714283
 40
0.9285714285714283
 40
0.9285714285714283
 40
0.964285714285714
 40
0.964285714285714
 40
0.964285714285714
 40
0.964285714285714
 40
1.0
 40
1.0
 40
1.0
 40
1.0
 10
-10.4259
 20
-14.36837
 30
0.0
 10
-10.4259
 20
-14.36837
 30
0.0
 10
-10.4259
 20
-14.3992
 30
0.0
 10
-10.4259
 20
-14.3992
 30
0.0
 10
-10.4259
 20
-14.3992
 30
0.0
 10
-10.4339
 20
-14.39564
 30
0.0
 10
-10.44173
 20
-14.39294
 30
0.0
 10
-10.44933
 20
-14.3911
 30
0.0
 10
-10.44933
 20
-14.3911
 30
0.0
 10
-10.45696
 20
-14.38927
 30
0.0
 10
-10.46416
 20
-14.38837
 30
0.0
 10
-10.47093
 20
-14.38837
 30
0.0
 10
-10.47093
 20
-14.38837
 30
0.0
 10
-10.4799
 20
-14.38837
 30
0.0
 10
-10.48656
 20
-14.3896
 30
0.0
 10
-10.49086
 20
-14.39207
 30
0.0
 10
-10.49086
 20
-14.39207
 30
0.0
 10
-10.49516
 20
-14.39457
 30
0.0
 10
-10.4973
 20
-14.3984
 30
0.0
 10
-10.4973
 20
-14.4036
 30
0.0
 10
-10.4973
 20
-14.4036
 30
0.0
 10
-10.4973
 20
-14.4075
 30
0.0
 10
-10.49586
 20
-14.41057
 30
0.0
 10
-10.49296
 20
-14.41274
 30
0.0
 10
-10.49296
 20
-14.41274
 30
0.0
 10
-10.49006
 20
-14.4149
 30
0.0
 10
-10.4848
 20
-14.4168
 30
0.0
 10
-10.47716
 20
-14.41837
 30
0.0
 10
-10.47716
 20
-14.41837
 30
0.0
 10
-10.47716
 20
-14.41837
 30
0.0
 10
-10.46116
 20
-14.42157
 30
0.0
 10
-10.46116
 20
-14.42157
 30
0.0
 10
-10.46116
 20
-14.42157
 30
0.0
 10
-10.44493
 20
-14.42484
 30
0.0
 10
-10.43343
 20
-14.42977
 30
0.0
 10
-10.4266
 20
-14.43644
 30
0.0
 10
-10.4266
 20
-14.43644
 30
0.0
 10
-10.41976
 20
-14.44307
 30
0.0
 10
-10.41633
 20
-14.4525
 30
0.0
 10
-10.41633
 20
-14.46474
 30
0.0
 10
-10.41633
 20
-14.46474
 30
0.0
 10
-10.41633
 20
-14.48084
 30
0.0
 10
-10.4211
 20
-14.4928
 30
0.0
 10
-10.43063
 20
-14.50064
 30
0.0
 10
-10.43063
 20
-14.50064
 30
0.0
 10
-10.44016
 20
-14.50847
 30
0.0
 10
-10.45473
 20
-14.5124
 30
0.0
 10
-10.47433
 20
-14.5124
 30
0.0
 10
-10.47433
 20
-14.5124
 30
0.0
 10
-10.4836
 20
-14.5124
 30
0.0
 10
-10.49286
 20
-14.51154
 30
0.0
 10
-10.50216
 20
-14.50977
 30
0.0
 10
-10.50216
 20
-14.50977
 30
0.0
 10
-10.51146
 20
-14.508
 30
0.0
 10
-10.5208
 20
-14.5054
 30
0.0
 10
-10.5301
 20
-14.50197
 30
0.0
 10
-10.5301
 20
-14.50197
 30
0.0
 10
-10.5301
 20
-14.50197
 30
0.0
 10
-10.5301
 20
-14.47024
 30
0.0
 10
-10.5301
 20
-14.47024
 30
0.0
 10
-10.5301
 20
-14.47024
 30
0.0
 10
-10.5208
 20
-14.47517
 30
0.0
 10
-10.5118
 20
-14.4789
 30
0.0
 10
-10.5031
 20
-14.4814
 30
0.0
 10
-10.5031
 20
-14.4814
 30
0.0
 10
-10.4944
 20
-14.4839
 30
0.0
 10
-10.48603
 20
-14.48517
 30
0.0
 10
-10.47796
 20
-14.48517
 30
0.0
 10
-10.47796
 20
-14.48517
 30
0.0
 10
-10.46976
 20
-14.48517
 30
0.0
 10
-10.46346
 20
-14.4838
 30
0.0
 10
-10.4591
 20
-14.48107
 30
0.0
 10
-10.4591
 20
-14.48107
 30
0.0
 10
-10.45473
 20
-14.47834
 30
0.0
 10
-10.45256
 20
-14.47444
 30
0.0
 10
-10.45256
 20
-14.46934
 30
0.0
 10
-10.45256
 20
-14.46934
 30
0.0
 10
-10.45256
 20
-14.4648
 30
0.0
 10
-10.45403
 20
-14.46127
 30
0.0
 10
-10.457
 20
-14.4588
 30
0.0
 10
-10.457
 20
-14.4588
 30
0.0
 10
-10.45996
 20
-14.45634
 30
0.0
 10
-10.46586
 20
-14.4541
 30
0.0
 10
-10.47473
 20
-14.45217
 30
0.0
 10
-10.47473
 20
-14.45217
 30
0.0
 10
-10.47473
 20
-14.45217
 30
0.0
 10
-10.4893
 20
-14.44894
 30
0.0
 10
-10.4893
 20
-14.44894
 30
0.0
 10
-10.4893
 20
-14.44894
 30
0.0
 10
-10.50386
 20
-14.4458
 30
0.0
 10
-10.51453
 20
-14.44084
 30
0.0
 10
-10.52126
 20
-14.434
 30
0.0
 10
-10.52126
 20
-14.434
 30
0.0
 10
-10.528
 20
-14.42717
 30
0.0
 10
-10.53136
 20
-14.41794
 30
0.0
 10
-10.53136
 20
-14.40637
 30
0.0
 10
-10.53136
 20
-14.40637
 30
0.0
 10
-10.53136
 20
-14.39184
 30
0.0
 10
-10.52666
 20
-14.38067
 30
0.0
 10
-10.5173
 20
-14.37287
 30
0.0
 10
-10.5173
 20
-14.37287
 30
0.0
 10
-10.50793
 20
-14.36504
 30
0.0
 10
-10.49446
 20
-14.36114
 30
0.0
 10
-10.47686
 20
-14.36114
 30
0.0
 10
-10.47686
 20
-14.36114
 30
0.0
 10
-10.46886
 20
-14.36114
 30
0.0
 10
-10.46063
 20
-14.36174
 30
0.0
 10
-10.45216
 20
-14.36294
 30
0.0
 10
-10.45216
 20
-14.36294
 30
0.0
 10
-10.4437
 20
-14.36414
 30
0.0
 10
-10.43493
 20
-14.36594
 30
0.0
 10
-10.4259
 20
-14.36837
 30
0.0
  0
SPLINE
  5
7F
330
1F
100
AcDbEntity
  8
Layer 1
 62
   250
100
AcDbSpline
210
0.0
220
0.0
230
1.0
 70
    11
 71
     3
 72
    36
 73
    32
 74
     0
 42
0.0000000001
 43
0.0000000001
 40
0.0
 40
0.0
 40
0.0
 40
0.0
 40
0.125
 40
0.125
 40
0.125
 40
0.125
 40
0.25
 40
0.25
 40
0.25
 40
0.25
 40
0.375
 40
0.375
 40
0.375
 40
0.375
 40
0.5
 40
0.5
 40
0.5
 40
0.5
 40
0.625
 40
0.625
 40
0.625
 40
0.625
 40
0.75
 40
0.75
 40
0.75
 40
0.75
 40
0.875
 40
0.875
 40
0.875
 40
0.875
 40
1.0
 40
1.0
 40
1.0
 40
1.0
 10
-10.40073
 20
-14.36377
 30
0.0
 10
-10.40073
 20
-14.36377
 30
0.0
 10
-10.26637
 20
-14.36377
 30
0.0
 10
-10.26637
 20
-14.36377
 30
0.0
 10
-10.26637
 20
-14.36377
 30
0.0
 10
-10.26637
 20
-14.36377
 30
0.0
 10
-10.26637
 20
-14.3922
 30
0.0
 10
-10.26637
 20
-14.3922
 30
0.0
 10
-10.26637
 20
-14.3922
 30
0.0
 10
-10.26637
 20
-14.3922
 30
0.0
 10
-10.3147
 20
-14.3922
 30
0.0
 10
-10.3147
 20
-14.3922
 30
0.0
 10
-10.3147
 20
-14.3922
 30
0.0
 10
-10.3147
 20
-14.3922
 30
0.0
 10
-10.3147
 20
-14.50957
 30
0.0
 10
-10.3147
 20
-14.50957
 30
0.0
 10
-10.3147
 20
-14.50957
 30
0.0
 10
-10.3147
 20
-14.50957
 30
0.0
 10
-10.3523
 20
-14.50957
 30
0.0
 10
-10.3523
 20
-14.50957
 30
0.0
 10
-10.3523
 20
-14.50957
 30
0.0
 10
-10.3523
 20
-14.50957
 30
0.0
 10
-10.3523
 20
-14.3922
 30
0.0
 10
-10.3523
 20
-14.3922
 30
0.0
 10
-10.3523
 20
-14.3922
 30
0.0
 10
-10.3523
 20
-14.3922
 30
0.0
 10
-10.40073
 20
-14.3922
 30
0.0
 10
-10.40073
 20
-14.3922
 30
0.0
 10
-10.40073
 20
-14.3922
 30
0.0
 10
-10.40073
 20
-14.3922
 30
0.0
 10
-10.40073
 20
-14.36377
 30
0.0
 10
-10.40073
 20
-14.36377
 30
0.0
  0
SPLINE
  5
80
330
1F
100
AcDbEntity
  8
Layer 1
 62
   250
100
AcDbSpline
210
0.0
220
0.0
230
1.0
 70
    11
 71
     3
 72
    36
 73
    32
 74
     0
 42
0.0000000001
 43
0.0000000001
 40
0.0
 40
0.0
 40
0.0
 40
0.0
 40
0.125
 40
0.125
 40
0.125
 40
0.125
 40
0.25
 40
0.25
 40
0.25
 40
0.25
 40
0.375
 40
0.375
 40
0.375
 40
0.375
 40
0.5
 40
0.5
 40
0.5
 40
0.5
 40
0.625
 40
0.625
 40
0.625
 40
0.625
 40
0.75
 40
0.75
 40
0.75
 40
0.75
 40
0.875
 40
0.875
 40
0.875
 40
0.875
 40
1.0
 40
1.0
 40
1.0
 40
1.0
 10
-10.1803
 20
-14.38837
 30
0.0
 10
-10.19177
 20
-14.38837
 30
0.0
 10
-10.20064
 20
-14.3926
 30
0.0
 10
-10.20697
 20
-14.40107
 30
0.0
 10
-10.20697
 20
-14.40107
 30
0.0
 10
-10.21327
 20
-14.40954
 30
0.0
 10
-10.21644
 20
-14.42144
 30
0.0
 10
-10.21644
 20
-14.4368
 30
0.0
 10
-10.21644
 20
-14.4368
 30
0.0
 10
-10.21644
 20
-14.45214
 30
0.0
 10
-10.21327
 20
-14.464
 30
0.0
 10
-10.20697
 20
-14.47247
 30
0.0
 10
-10.20697
 20
-14.47247
 30
0.0
 10
-10.20064
 20
-14.48094
 30
0.0
 10
-10.19177
 20
-14.48517
 30
0.0
 10
-10.1803
 20
-14.48517
 30
0.0
 10
-10.1803
 20
-14.48517
 30
0.0
 10
-10.16877
 20
-14.48517
 30
0.0
 10
-10.15987
 20
-14.48094
 30
0.0
 10
-10.15354
 20
-14.47247
 30
0.0
 10
-10.15354
 20
-14.47247
 30
0.0
 10
-10.14724
 20
-14.464
 30
0.0
 10
-10.14407
 20
-14.45214
 30
0.0
 10
-10.14407
 20
-14.4368
 30
0.0
 10
-10.14407
 20
-14.4368
 30
0.0
 10
-10.14407
 20
-14.42144
 30
0.0
 10
-10.14724
 20
-14.40954
 30
0.0
 10
-10.15354
 20
-14.40107
 30
0.0
 10
-10.15354
 20
-14.40107
 30
0.0
 10
-10.15987
 20
-14.3926
 30
0.0
 10
-10.16877
 20
-14.38837
 30
0.0
 10
-10.1803
 20
-14.38837
 30
0.0
  0
SPLINE
  5
81
330
1F
100
AcDbEntity
  8
Layer 1
 62
   250
100
AcDbSpline
210
0.0
220
0.0
230
1.0
 70
    11
 71
     3
 72
    36
 73
    32
 74
     0
 42
0.0000000001
 43
0.0000000001
 40
0.0
 40
0.0
 40
0.0
 40
0.0
 40
0.125
 40
0.125
 40
0.125
 40
0.125
 40
0.25
 40
0.25
 40
0.25
 40
0.25
 40
0.375
 40
0.375
 40
0.375
 40
0.375
 40
0.5
 40
0.5
 40
0.5
 40
0.5
 40
0.625
 40
0.625
 40
0.625
 40
0.625
 40
0.75
 40
0.75
 40
0.75
 40
0.75
 40
0.875
 40
0.875
 40
0.875
 40
0.875
 40
1.0
 40
1.0
 40
1.0
 40
1.0
 10
-10.1803
 20
-14.36114
 30
0.0
 10
-10.15687
 20
-14.36114
 30
0.0
 10
-10.1385
 20
-14.36784
 30
0.0
 10
-10.12524
 20
-14.38127
 30
0.0
 10
-10.12524
 20
-14.38127
 30
0.0
 10
-10.11194
 20
-14.39467
 30
0.0
 10
-10.1053
 20
-14.41317
 30
0.0
 10
-10.1053
 20
-14.4368
 30
0.0
 10
-10.1053
 20
-14.4368
 30
0.0
 10
-10.1053
 20
-14.46037
 30
0.0
 10
-10.11194
 20
-14.47887
 30
0.0
 10
-10.12524
 20
-14.49227
 30
0.0
 10
-10.12524
 20
-14.49227
 30
0.0
 10
-10.1385
 20
-14.5057
 30
0.0
 10
-10.15687
 20
-14.5124
 30
0.0
 10
-10.1803
 20
-14.5124
 30
0.0
 10
-10.1803
 20
-14.5124
 30
0.0
 10
-10.20367
 20
-14.5124
 30
0.0
 10
-10.222
 20
-14.5057
 30
0.0
 10
-10.23534
 20
-14.49227
 30
0.0
 10
-10.23534
 20
-14.49227
 30
0.0
 10
-10.24864
 20
-14.47887
 30
0.0
 10
-10.2553
 20
-14.46037
 30
0.0
 10
-10.2553
 20
-14.4368
 30
0.0
 10
-10.2553
 20
-14.4368
 30
0.0
 10
-10.2553
 20
-14.41317
 30
0.0
 10
-10.24864
 20
-14.39467
 30
0.0
 10
-10.23534
 20
-14.38127
 30
0.0
 10
-10.23534
 20
-14.38127
 30
0.0
 10
-10.222
 20
-14.36784
 30
0.0
 10
-10.20367
 20
-14.36114
 30
0.0
 10
-10.1803
 20
-14.36114
 30
0.0
  0
SPLINE
  5
82
330
1F
100
AcDbEntity
  8
Layer 1
 62
   250
100
AcDbSpline
210
0.0
220
0.0
230
1.0
 70
    11
 71
     3
 72
    32
 73
    28
 74
     0
 42
0.0000000001
 43
0.0000000001
 40
0.0
 40
0.0
 40
0.0
 40
0.0
 40
0.1428571428571428
 40
0.1428571428571428
 40
0.1428571428571428
 40
0.1428571428571428
 40
0.2857142857142857
 40
0.2857142857142857
 40
0.2857142857142857
 40
0.2857142857142857
 40
0.4285714285714285
 40
0.4285714285714285
 40
0.4285714285714285
 40
0.4285714285714285
 40
0.5714285714285714
 40
0.5714285714285714
 40
0.5714285714285714
 40
0.5714285714285714
 40
0.7142857142857142
 40
0.7142857142857142
 40
0.7142857142857142
 40
0.7142857142857142
 40
0.857142857142857
 40
0.857142857142857
 40
0.857142857142857
 40
0.857142857142857
 40
1.0
 40
1.0
 40
1.0
 40
1.0
 10
-10.02344
 20
-14.42844
 30
0.0
 10
-10.01557
 20
-14.42844
 30
0.0
 10
-10.00991
 20
-14.42697
 30
0.0
 10
-10.00651
 20
-14.42404
 30
0.0
 10
-10.00651
 20
-14.42404
 30
0.0
 10
-10.00307
 20
-14.4211
 30
0.0
 10
-10.00137
 20
-14.41627
 30
0.0
 10
-10.00137
 20
-14.40957
 30
0.0
 10
-10.00137
 20
-14.40957
 30
0.0
 10
-10.00137
 20
-14.40294
 30
0.0
 10
-10.00307
 20
-14.39817
 30
0.0
 10
-10.00651
 20
-14.3953
 30
0.0
 10
-10.00651
 20
-14.3953
 30
0.0
 10
-10.00991
 20
-14.39244
 30
0.0
 10
-10.01557
 20
-14.391
 30
0.0
 10
-10.02344
 20
-14.391
 30
0.0
 10
-10.02344
 20
-14.391
 30
0.0
 10
-10.02344
 20
-14.391
 30
0.0
 10
-10.03927
 20
-14.391
 30
0.0
 10
-10.03927
 20
-14.391
 30
0.0
 10
-10.03927
 20
-14.391
 30
0.0
 10
-10.03927
 20
-14.391
 30
0.0
 10
-10.03927
 20
-14.42844
 30
0.0
 10
-10.03927
 20
-14.42844
 30
0.0
 10
-10.03927
 20
-14.42844
 30
0.0
 10
-10.03927
 20
-14.42844
 30
0.0
 10
-10.02344
 20
-14.42844
 30
0.0
 10
-10.02344
 20
-14.42844
 30
0.0
  0
SPLINE
  5
83
330
1F
100
AcDbEntity
  8
Layer 1
 62
   250
100
AcDbSpline
210
0.0
220
0.0
230
1.0
 70
    11
 71
     3
 72
    68
 73
    64
 74
     0
 42
0.0000000001
 43
0.0000000001
 40
0.0
 40
0.0
 40
0.0
 40
0.0
 40
0.0625
 40
0.0625
 40
0.0625
 40
0.0625
 40
0.125
 40
0.125
 40
0.125
 40
0.125
 40
0.1875
 40
0.1875
 40
0.1875
 40
0.1875
 40
0.25
 40
0.25
 40
0.25
 40
0.25
 40
0.3125
 40
0.3125
 40
0.3125
 40
0.3125
 40
0.375
 40
0.375
 40
0.375
 40
0.375
 40
0.4375
 40
0.4375
 40
0.4375
 40
0.4375
 40
0.5
 40
0.5
 40
0.5
 40
0.5
 40
0.5625
 40
0.5625
 40
0.5625
 40
0.5625
 40
0.625
 40
0.625
 40
0.625
 40
0.625
 40
0.6875
 40
0.6875
 40
0.6875
 40
0.6875
 40
0.75
 40
0.75
 40
0.75
 40
0.75
 40
0.8125
 40
0.8125
 40
0.8125
 40
0.8125
 40
0.875
 40
0.875
 40
0.875
 40
0.875
 40
0.9375
 40
0.9375
 40
0.9375
 40
0.9375
 40
1.0
 40
1.0
 40
1.0
 40
1.0
 10
-10.03927
 20
-14.4544
 30
0.0
 10
-10.03927
 20
-14.4544
 30
0.0
 10
-10.03927
 20
-14.50957
 30
0.0
 10
-10.03927
 20
-14.50957
 30
0.0
 10
-10.03927
 20
-14.50957
 30
0.0
 10
-10.03927
 20
-14.50957
 30
0.0
 10
-10.07687
 20
-14.50957
 30
0.0
 10
-10.07687
 20
-14.50957
 30
0.0
 10
-10.07687
 20
-14.50957
 30
0.0
 10
-10.07687
 20
-14.50957
 30
0.0
 10
-10.07687
 20
-14.36377
 30
0.0
 10
-10.07687
 20
-14.36377
 30
0.0
 10
-10.07687
 20
-14.36377
 30
0.0
 10
-10.07687
 20
-14.36377
 30
0.0
 10
-10.01944
 20
-14.36377
 30
0.0
 10
-10.01944
 20
-14.36377
 30
0.0
 10
-10.01944
 20
-14.36377
 30
0.0
 10
-10.00024
 20
-14.36377
 30
0.0
 10
-9.98614
 20
-14.367
 30
0.0
 10
-9.97721
 20
-14.37344
 30
0.0
 10
-9.97721
 20
-14.37344
 30
0.0
 10
-9.96824
 20
-14.37987
 30
0.0
 10
-9.96377
 20
-14.39007
 30
0.0
 10
-9.96377
 20
-14.404
 30
0.0
 10
-9.96377
 20
-14.404
 30
0.0
 10
-9.96377
 20
-14.41364
 30
0.0
 10
-9.96611
 20
-14.42157
 30
0.0
 10
-9.97074
 20
-14.42774
 30
0.0
 10
-9.97074
 20
-14.42774
 30
0.0
 10
-9.97541
 20
-14.43394
 30
0.0
 10
-9.98244
 20
-14.4385
 30
0.0
 10
-9.99181
 20
-14.4414
 30
0.0
 10
-9.99181
 20
-14.4414
 30
0.0
 10
-9.98667
 20
-14.4426
 30
0.0
 10
-9.98204
 20
-14.44524
 30
0.0
 10
-9.97797
 20
-14.44937
 30
0.0
 10
-9.97797
 20
-14.44937
 30
0.0
 10
-9.97391
 20
-14.4535
 30
0.0
 10
-9.96981
 20
-14.45977
 30
0.0
 10
-9.96564
 20
-14.46817
 30
0.0
 10
-9.96564
 20
-14.46817
 30
0.0
 10
-9.96564
 20
-14.46817
 30
0.0
 10
-9.94521
 20
-14.50957
 30
0.0
 10
-9.94521
 20
-14.50957
 30
0.0
 10
-9.94521
 20
-14.50957
 30
0.0
 10
-9.94521
 20
-14.50957
 30
0.0
 10
-9.98527
 20
-14.50957
 30
0.0
 10
-9.98527
 20
-14.50957
 30
0.0
 10
-9.98527
 20
-14.50957
 30
0.0
 10
-9.98527
 20
-14.50957
 30
0.0
 10
-10.00304
 20
-14.47334
 30
0.0
 10
-10.00304
 20
-14.47334
 30
0.0
 10
-10.00304
 20
-14.47334
 30
0.0
 10
-10.00661
 20
-14.46607
 30
0.0
 10
-10.01024
 20
-14.46107
 30
0.0
 10
-10.01394
 20
-14.4584
 30
0.0
 10
-10.01394
 20
-14.4584
 30
0.0
 10
-10.01761
 20
-14.45574
 30
0.0
 10
-10.02251
 20
-14.4544
 30
0.0
 10
-10.02864
 20
-14.4544
 30
0.0
 10
-10.02864
 20
-14.4544
 30
0.0
 10
-10.02864
 20
-14.4544
 30
0.0
 10
-10.03927
 20
-14.4544
 30
0.0
 10
-10.03927
 20
-14.4544
 30
0.0
  0
SPLINE
  5
84
330
1F
100
AcDbEntity
  8
Layer 1
 62
   250
100
AcDbSpline
210
0.0
220
0.0
230
1.0
 70
    11
 71
     3
 72
    36
 73
    32
 74
     0
 42
0.0000000001
 43
0.0000000001
 40
0.0
 40
0.0
 40
0.0
 40
0.0
 40
0.125
 40
0.125
 40
0.125
 40
0.125
 40
0.25
 40
0.25
 40
0.25
 40
0.25
 40
0.375
 40
0.375
 40
0.375
 40
0.375
 40
0.5
 40
0.5
 40
0.5
 40
0.5
 40
0.625
 40
0.625
 40
0.625
 40
0.625
 40
0.75
 40
0.75
 40
0.75
 40
0.75
 40
0.875
 40
0.875
 40
0.875
 40
0.875
 40
1.0
 40
1.0
 40
1.0
 40
1.0
 10
-10.82913
 20
-14.60118
 30
0.0
 10
-10.83369
 20
-14.60118
 30
0.0
 10
-10.83714
 20
-14.60294
 30
0.0
 10
-10.83949
 20
-14.60649
 30
0.0
 10
-10.83949
 20
-14.60649
 30
0.0
 10
-10.84184
 20
-14.61004
 30
0.0
 10
-10.84301
 20
-14.61531
 30
0.0
 10
-10.84301
 20
-14.62226
 30
0.0
 10
-10.84301
 20
-14.62226
 30
0.0
 10
-10.84301
 20
-14.62919
 30
0.0
 10
-10.84184
 20
-14.63444
 30
0.0
 10
-10.83949
 20
-14.63801
 30
0.0
 10
-10.83949
 20
-14.63801
 30
0.0
 10
-10.83714
 20
-14.64158
 30
0.0
 10
-10.83369
 20
-14.64336
 30
0.0
 10
-10.82913
 20
-14.64336
 30
0.0
 10
-10.82913
 20
-14.64336
 30
0.0
 10
-10.82454
 20
-14.64336
 30
0.0
 10
-10.82108
 20
-14.64158
 30
0.0
 10
-10.81873
 20
-14.63801
 30
0.0
 10
-10.81873
 20
-14.63801
 30
0.0
 10
-10.81638
 20
-14.63444
 30
0.0
 10
-10.81521
 20
-14.62919
 30
0.0
 10
-10.81521
 20
-14.62226
 30
0.0
 10
-10.81521
 20
-14.62226
 30
0.0
 10
-10.81521
 20
-14.61531
 30
0.0
 10
-10.81638
 20
-14.61004
 30
0.0
 10
-10.81873
 20
-14.60649
 30
0.0
 10
-10.81873
 20
-14.60649
 30
0.0
 10
-10.82108
 20
-14.60294
 30
0.0
 10
-10.82454
 20
-14.60118
 30
0.0
 10
-10.82913
 20
-14.60118
 30
0.0
  0
SPLINE
  5
85
330
1F
100
AcDbEntity
  8
Layer 1
 62
   250
100
AcDbSpline
210
0.0
220
0.0
230
1.0
 70
    11
 71
     3
 72
    36
 73
    32
 74
     0
 42
0.0000000001
 43
0.0000000001
 40
0.0
 40
0.0
 40
0.0
 40
0.0
 40
0.125
 40
0.125
 40
0.125
 40
0.125
 40
0.25
 40
0.25
 40
0.25
 40
0.25
 40
0.375
 40
0.375
 40
0.375
 40
0.375
 40
0.5
 40
0.5
 40
0.5
 40
0.5
 40
0.625
 40
0.625
 40
0.625
 40
0.625
 40
0.75
 40
0.75
 40
0.75
 40
0.75
 40
0.875
 40
0.875
 40
0.875
 40
0.875
 40
1.0
 40
1.0
 40
1.0
 40
1.0
 10
-10.82913
 20
-14.59356
 30
0.0
 10
-10.82154
 20
-14.59356
 30
0.0
 10
-10.81574
 20
-14.59601
 30
0.0
 10
-10.81173
 20
-14.60093
 30
0.0
 10
-10.81173
 20
-14.60093
 30
0.0
 10
-10.80771
 20
-14.60584
 30
0.0
 10
-10.80569
 20
-14.61296
 30
0.0
 10
-10.80569
 20
-14.62226
 30
0.0
 10
-10.80569
 20
-14.62226
 30
0.0
 10
-10.80569
 20
-14.63161
 30
0.0
 10
-10.80769
 20
-14.63873
 30
0.0
 10
-10.81169
 20
-14.64363
 30
0.0
 10
-10.81169
 20
-14.64363
 30
0.0
 10
-10.81571
 20
-14.64853
 30
0.0
 10
-10.82151
 20
-14.65098
 30
0.0
 10
-10.82913
 20
-14.65098
 30
0.0
 10
-10.82913
 20
-14.65098
 30
0.0
 10
-10.83673
 20
-14.65098
 30
0.0
 10
-10.84251
 20
-14.64853
 30
0.0
 10
-10.84653
 20
-14.64363
 30
0.0
 10
-10.84653
 20
-14.64363
 30
0.0
 10
-10.85053
 20
-14.63873
 30
0.0
 10
-10.85253
 20
-14.63161
 30
0.0
 10
-10.85253
 20
-14.62226
 30
0.0
 10
-10.85253
 20
-14.62226
 30
0.0
 10
-10.85253
 20
-14.61296
 30
0.0
 10
-10.85053
 20
-14.60584
 30
0.0
 10
-10.84653
 20
-14.60093
 30
0.0
 10
-10.84653
 20
-14.60093
 30
0.0
 10
-10.84251
 20
-14.59601
 30
0.0
 10
-10.83673
 20
-14.59356
 30
0.0
 10
-10.82913
 20
-14.59356
 30
0.0
  0
SPLINE
  5
86
330
1F
100
AcDbEntity
  8
Layer 1
 62
   250
100
AcDbSpline
210
0.0
220
0.0
230
1.0
 70
    11
 71
     3
 72
    36
 73
    32
 74
     0
 42
0.0000000001
 43
0.0000000001
 40
0.0
 40
0.0
 40
0.0
 40
0.0
 40
0.125
 40
0.125
 40
0.125
 40
0.125
 40
0.25
 40
0.25
 40
0.25
 40
0.25
 40
0.375
 40
0.375
 40
0.375
 40
0.375
 40
0.5
 40
0.5
 40
0.5
 40
0.5
 40
0.625
 40
0.625
 40
0.625
 40
0.625
 40
0.75
 40
0.75
 40
0.75
 40
0.75
 40
0.875
 40
0.875
 40
0.875
 40
0.875
 40
1.0
 40
1.0
 40
1.0
 40
1.0
 10
-10.76893
 20
-14.60118
 30
0.0
 10
-10.77349
 20
-14.60118
 30
0.0
 10
-10.77694
 20
-14.60294
 30
0.0
 10
-10.77929
 20
-14.60649
 30
0.0
 10
-10.77929
 20
-14.60649
 30
0.0
 10
-10.78164
 20
-14.61004
 30
0.0
 10
-10.78281
 20
-14.61531
 30
0.0
 10
-10.78281
 20
-14.62226
 30
0.0
 10
-10.78281
 20
-14.62226
 30
0.0
 10
-10.78281
 20
-14.62919
 30
0.0
 10
-10.78164
 20
-14.63444
 30
0.0
 10
-10.77929
 20
-14.63801
 30
0.0
 10
-10.77929
 20
-14.63801
 30
0.0
 10
-10.77694
 20
-14.64158
 30
0.0
 10
-10.77349
 20
-14.64336
 30
0.0
 10
-10.76893
 20
-14.64336
 30
0.0
 10
-10.76893
 20
-14.64336
 30
0.0
 10
-10.76434
 20
-14.64336
 30
0.0
 10
-10.76088
 20
-14.64158
 30
0.0
 10
-10.75853
 20
-14.63801
 30
0.0
 10
-10.75853
 20
-14.63801
 30
0.0
 10
-10.75618
 20
-14.63444
 30
0.0
 10
-10.75501
 20
-14.62919
 30
0.0
 10
-10.75501
 20
-14.62226
 30
0.0
 10
-10.75501
 20
-14.62226
 30
0.0
 10
-10.75501
 20
-14.61531
 30
0.0
 10
-10.75618
 20
-14.61004
 30
0.0
 10
-10.75853
 20
-14.60649
 30
0.0
 10
-10.75853
 20
-14.60649
 30
0.0
 10
-10.76088
 20
-14.60294
 30
0.0
 10
-10.76434
 20
-14.60118
 30
0.0
 10
-10.76893
 20
-14.60118
 30
0.0
  0
SPLINE
  5
87
330
1F
100
AcDbEntity
  8
Layer 1
 62
   250
100
AcDbSpline
210
0.0
220
0.0
230
1.0
 70
    11
 71
     3
 72
    36
 73
    32
 74
     0
 42
0.0000000001
 43
0.0000000001
 40
0.0
 40
0.0
 40
0.0
 40
0.0
 40
0.125
 40
0.125
 40
0.125
 40
0.125
 40
0.25
 40
0.25
 40
0.25
 40
0.25
 40
0.375
 40
0.375
 40
0.375
 40
0.375
 40
0.5
 40
0.5
 40
0.5
 40
0.5
 40
0.625
 40
0.625
 40
0.625
 40
0.625
 40
0.75
 40
0.75
 40
0.75
 40
0.75
 40
0.875
 40
0.875
 40
0.875
 40
0.875
 40
1.0
 40
1.0
 40
1.0
 40
1.0
 10
-10.76893
 20
-14.59356
 30
0.0
 10
-10.76134
 20
-14.59356
 30
0.0
 10
-10.75554
 20
-14.59601
 30
0.0
 10
-10.75153
 20
-14.60093
 30
0.0
 10
-10.75153
 20
-14.60093
 30
0.0
 10
-10.74751
 20
-14.60584
 30
0.0
 10
-10.74549
 20
-14.61296
 30
0.0
 10
-10.74549
 20
-14.62226
 30
0.0
 10
-10.74549
 20
-14.62226
 30
0.0
 10
-10.74549
 20
-14.63161
 30
0.0
 10
-10.74749
 20
-14.63873
 30
0.0
 10
-10.75149
 20
-14.64363
 30
0.0
 10
-10.75149
 20
-14.64363
 30
0.0
 10
-10.75551
 20
-14.64853
 30
0.0
 10
-10.76131
 20
-14.65098
 30
0.0
 10
-10.76893
 20
-14.65098
 30
0.0
 10
-10.76893
 20
-14.65098
 30
0.0
 10
-10.77653
 20
-14.65098
 30
0.0
 10
-10.78231
 20
-14.64853
 30
0.0
 10
-10.78633
 20
-14.64363
 30
0.0
 10
-10.78633
 20
-14.64363
 30
0.0
 10
-10.79033
 20
-14.63873
 30
0.0
 10
-10.79233
 20
-14.63161
 30
0.0
 10
-10.79233
 20
-14.62226
 30
0.0
 10
-10.79233
 20
-14.62226
 30
0.0
 10
-10.79233
 20
-14.61296
 30
0.0
 10
-10.79033
 20
-14.60584
 30
0.0
 10
-10.78633
 20
-14.60093
 30
0.0
 10
-10.78633
 20
-14.60093
 30
0.0
 10
-10.78231
 20
-14.59601
 30
0.0
 10
-10.77653
 20
-14.59356
 30
0.0
 10
-10.76893
 20
-14.59356
 30
0.0
  0
SPLINE
  5
88
330
1F
100
AcDbEntity
  8
Layer 1
 62
   250
100
AcDbSpline
210
0.0
220
0.0
230
1.0
 70
    11
 71
     3
 72
   112
 73
   108
 74
     0
 42
0.0000000001
 43
0.0000000001
 40
0.0
 40
0.0
 40
0.0
 40
0.0
 40
0.037037037037037
 40
0.037037037037037
 40
0.037037037037037
 40
0.037037037037037
 40
0.0740740740740741
 40
0.0740740740740741
 40
0.0740740740740741
 40
0.0740740740740741
 40
0.1111111111111111
 40
0.1111111111111111
 40
0.1111111111111111
 40
0.1111111111111111
 40
0.1481481481481481
 40
0.1481481481481481
 40
0.1481481481481481
 40
0.1481481481481481
 40
0.1851851851851852
 40
0.1851851851851852
 40
0.1851851851851852
 40
0.1851851851851852
 40
0.2222222222222222
 40
0.2222222222222222
 40
0.2222222222222222
 40
0.2222222222222222
 40
0.2592592592592592
 40
0.2592592592592592
 40
0.2592592592592592
 40
0.2592592592592592
 40
0.2962962962962963
 40
0.2962962962962963
 40
0.2962962962962963
 40
0.2962962962962963
 40
0.3333333333333333
 40
0.3333333333333333
 40
0.3333333333333333
 40
0.3333333333333333
 40
0.3703703703703703
 40
0.3703703703703703
 40
0.3703703703703703
 40
0.3703703703703703
 40
0.4074074074074074
 40
0.4074074074074074
 40
0.4074074074074074
 40
0.4074074074074074
 40
0.4444444444444444
 40
0.4444444444444444
 40
0.4444444444444444
 40
0.4444444444444444
 40
0.4814814814814815
 40
0.4814814814814815
 40
0.4814814814814815
 40
0.4814814814814815
 40
0.5185185185185185
 40
0.5185185185185185
 40
0.5185185185185185
 40
0.5185185185185185
 40
0.5555555555555556
 40
0.5555555555555556
 40
0.5555555555555556
 40
0.5555555555555556
 40
0.5925925925925926
 40
0.5925925925925926
 40
0.5925925925925926
 40
0.5925925925925926
 40
0.6296296296296295
 40
0.6296296296296295
 40
0.6296296296296295
 40
0.6296296296296295
 40
0.6666666666666665
 40
0.6666666666666665
 40
0.6666666666666665
 40
0.6666666666666665
 40
0.7037037037037035
 40
0.7037037037037035
 40
0.7037037037037035
 40
0.7037037037037035
 40
0.7407407407407405
 40
0.7407407407407405
 40
0.7407407407407405
 40
0.7407407407407405
 40
0.7777777777777775
 40
0.7777777777777775
 40
0.7777777777777775
 40
0.7777777777777775
 40
0.8148148148148144
 40
0.8148148148148144
 40
0.8148148148148144
 40
0.8148148148148144
 40
0.8518518518518514
 40
0.8518518518518514
 40
0.8518518518518514
 40
0.8518518518518514
 40
0.8888888888888884
 40
0.8888888888888884
 40
0.8888888888888884
 40
0.8888888888888884
 40
0.9259259259259254
 40
0.9259259259259254
 40
0.9259259259259254
 40
0.9259259259259254
 40
0.9629629629629624
 40
0.9629629629629624
 40
0.9629629629629624
 40
0.9629629629629624
 40
1.0
 40
1.0
 40
1.0
 40
1.0
 10
-10.70581
 20
-14.60044
 30
0.0
 10
-10.70471
 20
-14.59809
 30
0.0
 10
-10.70329
 20
-14.59636
 30
0.0
 10
-10.70158
 20
-14.59524
 30
0.0
 10
-10.70158
 20
-14.59524
 30
0.0
 10
-10.69988
 20
-14.59413
 30
0.0
 10
-10.69781
 20
-14.59356
 30
0.0
 10
-10.69541
 20
-14.59356
 30
0.0
 10
-10.69541
 20
-14.59356
 30
0.0
 10
-10.69101
 20
-14.59356
 30
0.0
 10
-10.68791
 20
-14.59526
 30
0.0
 10
-10.68611
 20
-14.59866
 30
0.0
 10
-10.68611
 20
-14.59866
 30
0.0
 10
-10.68429
 20
-14.60206
 30
0.0
 10
-10.68339
 20
-14.60846
 30
0.0
 10
-10.68339
 20
-14.61788
 30
0.0
 10
-10.68339
 20
-14.61788
 30
0.0
 10
-10.68339
 20
-14.61788
 30
0.0
 10
-10.68339
 20
-14.64956
 30
0.0
 10
-10.68339
 20
-14.64956
 30
0.0
 10
-10.68339
 20
-14.64956
 30
0.0
 10
-10.68339
 20
-14.64956
 30
0.0
 10
-10.69159
 20
-14.64956
 30
0.0
 10
-10.69159
 20
-14.64956
 30
0.0
 10
-10.69159
 20
-14.64956
 30
0.0
 10
-10.69159
 20
-14.64956
 30
0.0
 10
-10.69159
 20
-14.61826
 30
0.0
 10
-10.69159
 20
-14.61826
 30
0.0
 10
-10.69159
 20
-14.61826
 30
0.0
 10
-10.69159
 20
-14.61054
 30
0.0
 10
-10.69203
 20
-14.60576
 30
0.0
 10
-10.69289
 20
-14.60388
 30
0.0
 10
-10.69289
 20
-14.60388
 30
0.0
 10
-10.69374
 20
-14.60201
 30
0.0
 10
-10.69533
 20
-14.60108
 30
0.0
 10
-10.69761
 20
-14.60108
 30
0.0
 10
-10.69761
 20
-14.60108
 30
0.0
 10
-10.70021
 20
-14.60108
 30
0.0
 10
-10.70199
 20
-14.60208
 30
0.0
 10
-10.70296
 20
-14.60408
 30
0.0
 10
-10.70296
 20
-14.60408
 30
0.0
 10
-10.70391
 20
-14.60608
 30
0.0
 10
-10.70439
 20
-14.61081
 30
0.0
 10
-10.70439
 20
-14.61826
 30
0.0
 10
-10.70439
 20
-14.61826
 30
0.0
 10
-10.70439
 20
-14.61826
 30
0.0
 10
-10.70439
 20
-14.64956
 30
0.0
 10
-10.70439
 20
-14.64956
 30
0.0
 10
-10.70439
 20
-14.64956
 30
0.0
 10
-10.70439
 20
-14.64956
 30
0.0
 10
-10.71259
 20
-14.64956
 30
0.0
 10
-10.71259
 20
-14.64956
 30
0.0
 10
-10.71259
 20
-14.64956
 30
0.0
 10
-10.71259
 20
-14.64956
 30
0.0
 10
-10.71259
 20
-14.61826
 30
0.0
 10
-10.71259
 20
-14.61826
 30
0.0
 10
-10.71259
 20
-14.61826
 30
0.0
 10
-10.71259
 20
-14.61044
 30
0.0
 10
-10.71306
 20
-14.60563
 30
0.0
 10
-10.71399
 20
-14.60381
 30
0.0
 10
-10.71399
 20
-14.60381
 30
0.0
 10
-10.71491
 20
-14.60199
 30
0.0
 10
-10.71658
 20
-14.60108
 30
0.0
 10
-10.71899
 20
-14.60108
 30
0.0
 10
-10.71899
 20
-14.60108
 30
0.0
 10
-10.72138
 20
-14.60108
 30
0.0
 10
-10.72303
 20
-14.60208
 30
0.0
 10
-10.72394
 20
-14.60408
 30
0.0
 10
-10.72394
 20
-14.60408
 30
0.0
 10
-10.72488
 20
-14.60608
 30
0.0
 10
-10.72534
 20
-14.61081
 30
0.0
 10
-10.72534
 20
-14.61826
 30
0.0
 10
-10.72534
 20
-14.61826
 30
0.0
 10
-10.72534
 20
-14.61826
 30
0.0
 10
-10.72534
 20
-14.64956
 30
0.0
 10
-10.72534
 20
-14.64956
 30
0.0
 10
-10.72534
 20
-14.64956
 30
0.0
 10
-10.72534
 20
-14.64956
 30
0.0
 10
-10.73349
 20
-14.64956
 30
0.0
 10
-10.73349
 20
-14.64956
 30
0.0
 10
-10.73349
 20
-14.64956
 30
0.0
 10
-10.73349
 20
-14.64956
 30
0.0
 10
-10.73349
 20
-14.59488
 30
0.0
 10
-10.73349
 20
-14.59488
 30
0.0
 10
-10.73349
 20
-14.59488
 30
0.0
 10
-10.73349
 20
-14.59488
 30
0.0
 10
-10.72534
 20
-14.59488
 30
0.0
 10
-10.72534
 20
-14.59488
 30
0.0
 10
-10.72534
 20
-14.59488
 30
0.0
 10
-10.72534
 20
-14.59488
 30
0.0
 10
-10.72534
 20
-14.59956
 30
0.0
 10
-10.72534
 20
-14.59956
 30
0.0
 10
-10.72534
 20
-14.59956
 30
0.0
 10
-10.72428
 20
-14.59761
 30
0.0
 10
-10.72293
 20
-14.59613
 30
0.0
 10
-10.72131
 20
-14.59509
 30
0.0
 10
-10.72131
 20
-14.59509
 30
0.0
 10
-10.71971
 20
-14.59408
 30
0.0
 10
-10.71788
 20
-14.59356
 30
0.0
 10
-10.71583
 20
-14.59356
 30
0.0
 10
-10.71583
 20
-14.59356
 30
0.0
 10
-10.71334
 20
-14.59356
 30
0.0
 10
-10.71129
 20
-14.59413
 30
0.0
 10
-10.70964
 20
-14.59526
 30
0.0
 10
-10.70964
 20
-14.59526
 30
0.0
 10
-10.70799
 20
-14.59641
 30
0.0
 10
-10.70673
 20
-14.59813
 30
0.0
 10
-10.70581
 20
-14.60044
 30
0.0
  0
SPLINE
  5
89
330
1F
100
AcDbEntity
  8
Layer 1
 62
   250
100
AcDbSpline
210
0.0
220
0.0
230
1.0
 70
    11
 71
     3
 72
    20
 73
    16
 74
     0
 42
0.0000000001
 43
0.0000000001
 40
0.0
 40
0.0
 40
0.0
 40
0.0
 40
0.25
 40
0.25
 40
0.25
 40
0.25
 40
0.5
 40
0.5
 40
0.5
 40
0.5
 40
0.75
 40
0.75
 40
0.75
 40
0.75
 40
1.0
 40
1.0
 40
1.0
 40
1.0
 10
-10.65473
 20
-14.63466
 30
0.0
 10
-10.65473
 20
-14.63466
 30
0.0
 10
-10.64243
 20
-14.63466
 30
0.0
 10
-10.64243
 20
-14.63466
 30
0.0
 10
-10.64243
 20
-14.63466
 30
0.0
 10
-10.64243
 20
-14.63466
 30
0.0
 10
-10.64243
 20
-14.64956
 30
0.0
 10
-10.64243
 20
-14.64956
 30
0.0
 10
-10.64243
 20
-14.64956
 30
0.0
 10
-10.64243
 20
-14.64956
 30
0.0
 10
-10.65473
 20
-14.64956
 30
0.0
 10
-10.65473
 20
-14.64956
 30
0.0
 10
-10.65473
 20
-14.64956
 30
0.0
 10
-10.65473
 20
-14.64956
 30
0.0
 10
-10.65473
 20
-14.63466
 30
0.0
 10
-10.65473
 20
-14.63466
 30
0.0
  0
SPLINE
  5
8A
330
1F
100
AcDbEntity
  8
Layer 1
 62
   250
100
AcDbSpline
210
0.0
220
0.0
230
1.0
 70
    11
 71
     3
 72
    52
 73
    48
 74
     0
 42
0.0000000001
 43
0.0000000001
 40
0.0
 40
0.0
 40
0.0
 40
0.0
 40
0.0833333333333333
 40
0.0833333333333333
 40
0.0833333333333333
 40
0.0833333333333333
 40
0.1666666666666667
 40
0.1666666666666667
 40
0.1666666666666667
 40
0.1666666666666667
 40
0.25
 40
0.25
 40
0.25
 40
0.25
 40
0.3333333333333333
 40
0.3333333333333333
 40
0.3333333333333333
 40
0.3333333333333333
 40
0.4166666666666666
 40
0.4166666666666666
 40
0.4166666666666666
 40
0.4166666666666666
 40
0.4999999999999999
 40
0.4999999999999999
 40
0.4999999999999999
 40
0.4999999999999999
 40
0.5833333333333333
 40
0.5833333333333333
 40
0.5833333333333333
 40
0.5833333333333333
 40
0.6666666666666666
 40
0.6666666666666666
 40
0.6666666666666666
 40
0.6666666666666666
 40
0.75
 40
0.75
 40
0.75
 40
0.75
 40
0.8333333333333334
 40
0.8333333333333334
 40
0.8333333333333334
 40
0.8333333333333334
 40
0.9166666666666667
 40
0.9166666666666667
 40
0.9166666666666667
 40
0.9166666666666667
 40
1.0
 40
1.0
 40
1.0
 40
1.0
 10
-10.58721
 20
-14.62974
 30
0.0
 10
-10.58721
 20
-14.63378
 30
0.0
 10
-10.58648
 20
-14.63681
 30
0.0
 10
-10.58499
 20
-14.63886
 30
0.0
 10
-10.58499
 20
-14.63886
 30
0.0
 10
-10.58351
 20
-14.64091
 30
0.0
 10
-10.58133
 20
-14.64194
 30
0.0
 10
-10.57843
 20
-14.64194
 30
0.0
 10
-10.57843
 20
-14.64194
 30
0.0
 10
-10.57843
 20
-14.64194
 30
0.0
 10
-10.56793
 20
-14.64194
 30
0.0
 10
-10.56793
 20
-14.64194
 30
0.0
 10
-10.56793
 20
-14.64194
 30
0.0
 10
-10.56793
 20
-14.64194
 30
0.0
 10
-10.56793
 20
-14.64956
 30
0.0
 10
-10.56793
 20
-14.64956
 30
0.0
 10
-10.56793
 20
-14.64956
 30
0.0
 10
-10.56793
 20
-14.64956
 30
0.0
 10
-10.57929
 20
-14.64956
 30
0.0
 10
-10.57929
 20
-14.64956
 30
0.0
 10
-10.57929
 20
-14.64956
 30
0.0
 10
-10.58468
 20
-14.64956
 30
0.0
 10
-10.58883
 20
-14.64783
 30
0.0
 10
-10.59178
 20
-14.64438
 30
0.0
 10
-10.59178
 20
-14.64438
 30
0.0
 10
-10.59473
 20
-14.64093
 30
0.0
 10
-10.59619
 20
-14.63604
 30
0.0
 10
-10.59619
 20
-14.62974
 30
0.0
 10
-10.59619
 20
-14.62974
 30
0.0
 10
-10.59619
 20
-14.62974
 30
0.0
 10
-10.59619
 20
-14.58008
 30
0.0
 10
-10.59619
 20
-14.58008
 30
0.0
 10
-10.59619
 20
-14.58008
 30
0.0
 10
-10.59619
 20
-14.58008
 30
0.0
 10
-10.61059
 20
-14.58008
 30
0.0
 10
-10.61059
 20
-14.58008
 30
0.0
 10
-10.61059
 20
-14.58008
 30
0.0
 10
-10.61059
 20
-14.58008
 30
0.0
 10
-10.61059
 20
-14.57304
 30
0.0
 10
-10.61059
 20
-14.57304
 30
0.0
 10
-10.61059
 20
-14.57304
 30
0.0
 10
-10.61059
 20
-14.57304
 30
0.0
 10
-10.58721
 20
-14.57304
 30
0.0
 10
-10.58721
 20
-14.57304
 30
0.0
 10
-10.58721
 20
-14.57304
 30
0.0
 10
-10.58721
 20
-14.57304
 30
0.0
 10
-10.58721
 20
-14.62974
 30
0.0
 10
-10.58721
 20
-14.62974
 30
0.0
  0
SPLINE
  5
8B
330
1F
100
AcDbEntity
  8
Layer 1
 62
   250
100
AcDbSpline
210
0.0
220
0.0
230
1.0
 70
    11
 71
     3
 72
    76
 73
    72
 74
     0
 42
0.0000000001
 43
0.0000000001
 40
0.0
 40
0.0
 40
0.0
 40
0.0
 40
0.0555555555555556
 40
0.0555555555555556
 40
0.0555555555555556
 40
0.0555555555555556
 40
0.1111111111111111
 40
0.1111111111111111
 40
0.1111111111111111
 40
0.1111111111111111
 40
0.1666666666666667
 40
0.1666666666666667
 40
0.1666666666666667
 40
0.1666666666666667
 40
0.2222222222222222
 40
0.2222222222222222
 40
0.2222222222222222
 40
0.2222222222222222
 40
0.2777777777777778
 40
0.2777777777777778
 40
0.2777777777777778
 40
0.2777777777777778
 40
0.3333333333333334
 40
0.3333333333333334
 40
0.3333333333333334
 40
0.3333333333333334
 40
0.388888888888889
 40
0.388888888888889
 40
0.388888888888889
 40
0.388888888888889
 40
0.4444444444444445
 40
0.4444444444444445
 40
0.4444444444444445
 40
0.4444444444444445
 40
0.5000000000000001
 40
0.5000000000000001
 40
0.5000000000000001
 40
0.5000000000000001
 40
0.5555555555555557
 40
0.5555555555555557
 40
0.5555555555555557
 40
0.5555555555555557
 40
0.6111111111111113
 40
0.6111111111111113
 40
0.6111111111111113
 40
0.6111111111111113
 40
0.6666666666666669
 40
0.6666666666666669
 40
0.6666666666666669
 40
0.6666666666666669
 40
0.7222222222222224
 40
0.7222222222222224
 40
0.7222222222222224
 40
0.7222222222222224
 40
0.777777777777778
 40
0.777777777777778
 40
0.777777777777778
 40
0.777777777777778
 40
0.8333333333333336
 40
0.8333333333333336
 40
0.8333333333333336
 40
0.8333333333333336
 40
0.8888888888888892
 40
0.8888888888888892
 40
0.8888888888888892
 40
0.8888888888888892
 40
0.9444444444444448
 40
0.9444444444444448
 40
0.9444444444444448
 40
0.9444444444444448
 40
1.0
 40
1.0
 40
1.0
 40
1.0
 10
-10.52823
 20
-14.57934
 30
0.0
 10
-10.52823
 20
-14.57934
 30
0.0
 10
-10.52823
 20
-14.59488
 30
0.0
 10
-10.52823
 20
-14.59488
 30
0.0
 10
-10.52823
 20
-14.59488
 30
0.0
 10
-10.52823
 20
-14.59488
 30
0.0
 10
-10.50781
 20
-14.59488
 30
0.0
 10
-10.50781
 20
-14.59488
 30
0.0
 10
-10.50781
 20
-14.59488
 30
0.0
 10
-10.50781
 20
-14.59488
 30
0.0
 10
-10.50781
 20
-14.60186
 30
0.0
 10
-10.50781
 20
-14.60186
 30
0.0
 10
-10.50781
 20
-14.60186
 30
0.0
 10
-10.50781
 20
-14.60186
 30
0.0
 10
-10.52823
 20
-14.60186
 30
0.0
 10
-10.52823
 20
-14.60186
 30
0.0
 10
-10.52823
 20
-14.60186
 30
0.0
 10
-10.52823
 20
-14.60186
 30
0.0
 10
-10.52823
 20
-14.63154
 30
0.0
 10
-10.52823
 20
-14.63154
 30
0.0
 10
-10.52823
 20
-14.63154
 30
0.0
 10
-10.52823
 20
-14.63558
 30
0.0
 10
-10.52746
 20
-14.63839
 30
0.0
 10
-10.52593
 20
-14.63998
 30
0.0
 10
-10.52593
 20
-14.63998
 30
0.0
 10
-10.52439
 20
-14.64158
 30
0.0
 10
-10.52173
 20
-14.64238
 30
0.0
 10
-10.51793
 20
-14.64238
 30
0.0
 10
-10.51793
 20
-14.64238
 30
0.0
 10
-10.51793
 20
-14.64238
 30
0.0
 10
-10.50781
 20
-14.64238
 30
0.0
 10
-10.50781
 20
-14.64238
 30
0.0
 10
-10.50781
 20
-14.64238
 30
0.0
 10
-10.50781
 20
-14.64238
 30
0.0
 10
-10.50781
 20
-14.64956
 30
0.0
 10
-10.50781
 20
-14.64956
 30
0.0
 10
-10.50781
 20
-14.64956
 30
0.0
 10
-10.50781
 20
-14.64956
 30
0.0
 10
-10.51879
 20
-14.64956
 30
0.0
 10
-10.51879
 20
-14.64956
 30
0.0
 10
-10.51879
 20
-14.64956
 30
0.0
 10
-10.52554
 20
-14.64956
 30
0.0
 10
-10.53029
 20
-14.64821
 30
0.0
 10
-10.53306
 20
-14.64551
 30
0.0
 10
-10.53306
 20
-14.64551
 30
0.0
 10
-10.53583
 20
-14.64281
 30
0.0
 10
-10.53721
 20
-14.63814
 30
0.0
 10
-10.53721
 20
-14.63154
 30
0.0
 10
-10.53721
 20
-14.63154
 30
0.0
 10
-10.53721
 20
-14.63154
 30
0.0
 10
-10.53721
 20
-14.60186
 30
0.0
 10
-10.53721
 20
-14.60186
 30
0.0
 10
-10.53721
 20
-14.60186
 30
0.0
 10
-10.53721
 20
-14.60186
 30
0.0
 10
-10.55181
 20
-14.60186
 30
0.0
 10
-10.55181
 20
-14.60186
 30
0.0
 10
-10.55181
 20
-14.60186
 30
0.0
 10
-10.55181
 20
-14.60186
 30
0.0
 10
-10.55181
 20
-14.59488
 30
0.0
 10
-10.55181
 20
-14.59488
 30
0.0
 10
-10.55181
 20
-14.59488
 30
0.0
 10
-10.55181
 20
-14.59488
 30
0.0
 10
-10.53721
 20
-14.59488
 30
0.0
 10
-10.53721
 20
-14.59488
 30
0.0
 10
-10.53721
 20
-14.59488
 30
0.0
 10
-10.53721
 20
-14.59488
 30
0.0
 10
-10.53721
 20
-14.57934
 30
0.0
 10
-10.53721
 20
-14.57934
 30
0.0
 10
-10.53721
 20
-14.57934
 30
0.0
 10
-10.53721
 20
-14.57934
 30
0.0
 10
-10.52823
 20
-14.57934
 30
0.0
 10
-10.52823
 20
-14.57934
 30
0.0
  0
SPLINE
  5
8C
330
1F
100
AcDbEntity
  8
Layer 1
 62
   250
100
AcDbSpline
210
0.0
220
0.0
230
1.0
 70
    11
 71
     3
 72
    20
 73
    16
 74
     0
 42
0.0000000001
 43
0.0000000001
 40
0.0
 40
0.0
 40
0.0
 40
0.0
 40
0.25
 40
0.25
 40
0.25
 40
0.25
 40
0.5
 40
0.5
 40
0.5
 40
0.5
 40
0.75
 40
0.75
 40
0.75
 40
0.75
 40
1.0
 40
1.0
 40
1.0
 40
1.0
 10
-10.45459
 20
-14.57666
 30
0.0
 10
-10.45459
 20
-14.57666
 30
0.0
 10
-10.44531
 20
-14.57666
 30
0.0
 10
-10.44531
 20
-14.57666
 30
0.0
 10
-10.44531
 20
-14.57666
 30
0.0
 10
-10.44531
 20
-14.57666
 30
0.0
 10
-10.48369
 20
-14.65884
 30
0.0
 10
-10.48369
 20
-14.65884
 30
0.0
 10
-10.48369
 20
-14.65884
 30
0.0
 10
-10.48369
 20
-14.65884
 30
0.0
 10
-10.49303
 20
-14.65884
 30
0.0
 10
-10.49303
 20
-14.65884
 30
0.0
 10
-10.49303
 20
-14.65884
 30
0.0
 10
-10.49303
 20
-14.65884
 30
0.0
 10
-10.45459
 20
-14.57666
 30
0.0
 10
-10.45459
 20
-14.57666
 30
0.0
  0
SPLINE
  5
8D
330
1F
100
AcDbEntity
  8
Layer 1
 62
   250
100
AcDbSpline
210
0.0
220
0.0
230
1.0
 70
    11
 71
     3
 72
    68
 73
    64
 74
     0
 42
0.0000000001
 43
0.0000000001
 40
0.0
 40
0.0
 40
0.0
 40
0.0
 40
0.0625
 40
0.0625
 40
0.0625
 40
0.0625
 40
0.125
 40
0.125
 40
0.125
 40
0.125
 40
0.1875
 40
0.1875
 40
0.1875
 40
0.1875
 40
0.25
 40
0.25
 40
0.25
 40
0.25
 40
0.3125
 40
0.3125
 40
0.3125
 40
0.3125
 40
0.375
 40
0.375
 40
0.375
 40
0.375
 40
0.4375
 40
0.4375
 40
0.4375
 40
0.4375
 40
0.5
 40
0.5
 40
0.5
 40
0.5
 40
0.5625
 40
0.5625
 40
0.5625
 40
0.5625
 40
0.625
 40
0.625
 40
0.625
 40
0.625
 40
0.6875
 40
0.6875
 40
0.6875
 40
0.6875
 40
0.75
 40
0.75
 40
0.75
 40
0.75
 40
0.8125
 40
0.8125
 40
0.8125
 40
0.8125
 40
0.875
 40
0.875
 40
0.875
 40
0.875
 40
0.9375
 40
0.9375
 40
0.9375
 40
0.9375
 40
1.0
 40
1.0
 40
1.0
 40
1.0
 10
-10.39841
 20
-14.61514
 30
0.0
 10
-10.39698
 20
-14.61543
 30
0.0
 10
-10.39573
 20
-14.61611
 30
0.0
 10
-10.39468
 20
-14.61718
 30
0.0
 10
-10.39468
 20
-14.61718
 30
0.0
 10
-10.39361
 20
-14.61823
 30
0.0
 10
-10.39233
 20
-14.62029
 30
0.0
 10
-10.39079
 20
-14.62334
 30
0.0
 10
-10.39079
 20
-14.62334
 30
0.0
 10
-10.39079
 20
-14.62334
 30
0.0
 10
-10.37759
 20
-14.64956
 30
0.0
 10
-10.37759
 20
-14.64956
 30
0.0
 10
-10.37759
 20
-14.64956
 30
0.0
 10
-10.37759
 20
-14.64956
 30
0.0
 10
-10.39343
 20
-14.64956
 30
0.0
 10
-10.39343
 20
-14.64956
 30
0.0
 10
-10.39343
 20
-14.64956
 30
0.0
 10
-10.39343
 20
-14.64956
 30
0.0
 10
-10.40221
 20
-14.63116
 30
0.0
 10
-10.40221
 20
-14.63116
 30
0.0
 10
-10.40221
 20
-14.63116
 30
0.0
 10
-10.40248
 20
-14.63064
 30
0.0
 10
-10.40283
 20
-14.62993
 30
0.0
 10
-10.40324
 20
-14.62901
 30
0.0
 10
-10.40324
 20
-14.62901
 30
0.0
 10
-10.40581
 20
-14.62351
 30
0.0
 10
-10.40884
 20
-14.62076
 30
0.0
 10
-10.41233
 20
-14.62076
 30
0.0
 10
-10.41233
 20
-14.62076
 30
0.0
 10
-10.41233
 20
-14.62076
 30
0.0
 10
-10.41691
 20
-14.62076
 30
0.0
 10
-10.41691
 20
-14.62076
 30
0.0
 10
-10.41691
 20
-14.62076
 30
0.0
 10
-10.41691
 20
-14.62076
 30
0.0
 10
-10.41691
 20
-14.64956
 30
0.0
 10
-10.41691
 20
-14.64956
 30
0.0
 10
-10.41691
 20
-14.64956
 30
0.0
 10
-10.41691
 20
-14.64956
 30
0.0
 10
-10.43131
 20
-14.64956
 30
0.0
 10
-10.43131
 20
-14.64956
 30
0.0
 10
-10.43131
 20
-14.64956
 30
0.0
 10
-10.43131
 20
-14.64956
 30
0.0
 10
-10.43131
 20
-14.57666
 30
0.0
 10
-10.43131
 20
-14.57666
 30
0.0
 10
-10.43131
 20
-14.57666
 30
0.0
 10
-10.43131
 20
-14.57666
 30
0.0
 10
-10.41051
 20
-14.57666
 30
0.0
 10
-10.41051
 20
-14.57666
 30
0.0
 10
-10.41051
 20
-14.57666
 30
0.0
 10
-10.40114
 20
-14.57666
 30
0.0
 10
-10.39441
 20
-14.57833
 30
0.0
 10
-10.39033
 20
-14.58164
 30
0.0
 10
-10.39033
 20
-14.58164
 30
0.0
 10
-10.38624
 20
-14.58496
 30
0.0
 10
-10.38419
 20
-14.59036
 30
0.0
 10
-10.38419
 20
-14.59786
 30
0.0
 10
-10.38419
 20
-14.59786
 30
0.0
 10
-10.38419
 20
-14.60286
 30
0.0
 10
-10.38541
 20
-14.60686
 30
0.0
 10
-10.38786
 20
-14.60983
 30
0.0
 10
-10.38786
 20
-14.60983
 30
0.0
 10
-10.39029
 20
-14.61278
 30
0.0
 10
-10.39381
 20
-14.61456
 30
0.0
 10
-10.39841
 20
-14.61514
 30
0.0
  0
SPLINE
  5
8E
330
1F
100
AcDbEntity
  8
Layer 1
 62
   250
100
AcDbSpline
210
0.0
220
0.0
230
1.0
 70
    11
 71
     3
 72
    32
 73
    28
 74
     0
 42
0.0000000001
 43
0.0000000001
 40
0.0
 40
0.0
 40
0.0
 40
0.0
 40
0.1428571428571428
 40
0.1428571428571428
 40
0.1428571428571428
 40
0.1428571428571428
 40
0.2857142857142857
 40
0.2857142857142857
 40
0.2857142857142857
 40
0.2857142857142857
 40
0.4285714285714285
 40
0.4285714285714285
 40
0.4285714285714285
 40
0.4285714285714285
 40
0.5714285714285714
 40
0.5714285714285714
 40
0.5714285714285714
 40
0.5714285714285714
 40
0.7142857142857142
 40
0.7142857142857142
 40
0.7142857142857142
 40
0.7142857142857142
 40
0.857142857142857
 40
0.857142857142857
 40
0.857142857142857
 40
0.857142857142857
 40
1.0
 40
1.0
 40
1.0
 40
1.0
 10
-10.41691
 20
-14.58878
 30
0.0
 10
-10.41691
 20
-14.58878
 30
0.0
 10
-10.41691
 20
-14.60864
 30
0.0
 10
-10.41691
 20
-14.60864
 30
0.0
 10
-10.41691
 20
-14.60864
 30
0.0
 10
-10.41691
 20
-14.60864
 30
0.0
 10
-10.41013
 20
-14.60864
 30
0.0
 10
-10.41013
 20
-14.60864
 30
0.0
 10
-10.41013
 20
-14.60864
 30
0.0
 10
-10.40619
 20
-14.60864
 30
0.0
 10
-10.40336
 20
-14.60788
 30
0.0
 10
-10.40166
 20
-14.60633
 30
0.0
 10
-10.40166
 20
-14.60633
 30
0.0
 10
-10.39994
 20
-14.60478
 30
0.0
 10
-10.39909
 20
-14.60223
 30
0.0
 10
-10.39909
 20
-14.59869
 30
0.0
 10
-10.39909
 20
-14.59869
 30
0.0
 10
-10.39909
 20
-14.59514
 30
0.0
 10
-10.39994
 20
-14.59259
 30
0.0
 10
-10.40163
 20
-14.59108
 30
0.0
 10
-10.40163
 20
-14.59108
 30
0.0
 10
-10.40333
 20
-14.58954
 30
0.0
 10
-10.40616
 20
-14.58878
 30
0.0
 10
-10.41013
 20
-14.58878
 30
0.0
 10
-10.41013
 20
-14.58878
 30
0.0
 10
-10.41013
 20
-14.58878
 30
0.0
 10
-10.41691
 20
-14.58878
 30
0.0
 10
-10.41691
 20
-14.58878
 30
0.0
  0
SPLINE
  5
8F
330
1F
100
AcDbEntity
  8
Layer 1
 62
   250
100
AcDbSpline
210
0.0
220
0.0
230
1.0
 70
    11
 71
     3
 72
    16
 73
    12
 74
     0
 42
0.0000000001
 43
0.0000000001
 40
0.0
 40
0.0
 40
0.0
 40
0.0
 40
0.3333333333333333
 40
0.3333333333333333
 40
0.3333333333333333
 40
0.3333333333333333
 40
0.6666666666666666
 40
0.6666666666666666
 40
0.6666666666666666
 40
0.6666666666666666
 40
1.0
 40
1.0
 40
1.0
 40
1.0
 10
-10.34371
 20
-14.59268
 30
0.0
 10
-10.34371
 20
-14.59268
 30
0.0
 10
-10.36213
 20
-14.62148
 30
0.0
 10
-10.36213
 20
-14.62148
 30
0.0
 10
-10.36213
 20
-14.62148
 30
0.0
 10
-10.36213
 20
-14.62148
 30
0.0
 10
-10.34371
 20
-14.62148
 30
0.0
 10
-10.34371
 20
-14.62148
 30
0.0
 10
-10.34371
 20
-14.62148
 30
0.0
 10
-10.34371
 20
-14.62148
 30
0.0
 10
-10.34371
 20
-14.59268
 30
0.0
 10
-10.34371
 20
-14.59268
 30
0.0
  0
SPLINE
  5
90
330
1F
100
AcDbEntity
  8
Layer 1
 62
   250
100
AcDbSpline
210
0.0
220
0.0
230
1.0
 70
    11
 71
     3
 72
    48
 73
    44
 74
     0
 42
0.0000000001
 43
0.0000000001
 40
0.0
 40
0.0
 40
0.0
 40
0.0
 40
0.0909090909090909
 40
0.0909090909090909
 40
0.0909090909090909
 40
0.0909090909090909
 40
0.1818181818181818
 40
0.1818181818181818
 40
0.1818181818181818
 40
0.1818181818181818
 40
0.2727272727272727
 40
0.2727272727272727
 40
0.2727272727272727
 40
0.2727272727272727
 40
0.3636363636363636
 40
0.3636363636363636
 40
0.3636363636363636
 40
0.3636363636363636
 40
0.4545454545454546
 40
0.4545454545454546
 40
0.4545454545454546
 40
0.4545454545454546
 40
0.5454545454545455
 40
0.5454545454545455
 40
0.5454545454545455
 40
0.5454545454545455
 40
0.6363636363636365
 40
0.6363636363636365
 40
0.6363636363636365
 40
0.6363636363636365
 40
0.7272727272727274
 40
0.7272727272727274
 40
0.7272727272727274
 40
0.7272727272727274
 40
0.8181818181818183
 40
0.8181818181818183
 40
0.8181818181818183
 40
0.8181818181818183
 40
0.9090909090909093
 40
0.9090909090909093
 40
0.9090909090909093
 40
0.9090909090909093
 40
1.0
 40
1.0
 40
1.0
 40
1.0
 10
-10.34498
 20
-14.57666
 30
0.0
 10
-10.34498
 20
-14.57666
 30
0.0
 10
-10.32989
 20
-14.57666
 30
0.0
 10
-10.32989
 20
-14.57666
 30
0.0
 10
-10.32989
 20
-14.57666
 30
0.0
 10
-10.32989
 20
-14.57666
 30
0.0
 10
-10.32989
 20
-14.62148
 30
0.0
 10
-10.32989
 20
-14.62148
 30
0.0
 10
-10.32989
 20
-14.62148
 30
0.0
 10
-10.32989
 20
-14.62148
 30
0.0
 10
-10.32189
 20
-14.62148
 30
0.0
 10
-10.32189
 20
-14.62148
 30
0.0
 10
-10.32189
 20
-14.62148
 30
0.0
 10
-10.32189
 20
-14.62148
 30
0.0
 10
-10.32189
 20
-14.63383
 30
0.0
 10
-10.32189
 20
-14.63383
 30
0.0
 10
-10.32189
 20
-14.63383
 30
0.0
 10
-10.32189
 20
-14.63383
 30
0.0
 10
-10.32989
 20
-14.63383
 30
0.0
 10
-10.32989
 20
-14.63383
 30
0.0
 10
-10.32989
 20
-14.63383
 30
0.0
 10
-10.32989
 20
-14.63383
 30
0.0
 10
-10.32989
 20
-14.64956
 30
0.0
 10
-10.32989
 20
-14.64956
 30
0.0
 10
-10.32989
 20
-14.64956
 30
0.0
 10
-10.32989
 20
-14.64956
 30
0.0
 10
-10.34371
 20
-14.64956
 30
0.0
 10
-10.34371
 20
-14.64956
 30
0.0
 10
-10.34371
 20
-14.64956
 30
0.0
 10
-10.34371
 20
-14.64956
 30
0.0
 10
-10.34371
 20
-14.63383
 30
0.0
 10
-10.34371
 20
-14.63383
 30
0.0
 10
-10.34371
 20
-14.63383
 30
0.0
 10
-10.34371
 20
-14.63383
 30
0.0
 10
-10.37263
 20
-14.63383
 30
0.0
 10
-10.37263
 20
-14.63383
 30
0.0
 10
-10.37263
 20
-14.63383
 30
0.0
 10
-10.37263
 20
-14.63383
 30
0.0
 10
-10.37263
 20
-14.61986
 30
0.0
 10
-10.37263
 20
-14.61986
 30
0.0
 10
-10.37263
 20
-14.61986
 30
0.0
 10
-10.37263
 20
-14.61986
 30
0.0
 10
-10.34498
 20
-14.57666
 30
0.0
 10
-10.34498
 20
-14.57666
 30
0.0
  0
SPLINE
  5
91
330
1F
100
AcDbEntity
  8
Layer 1
 62
   250
100
AcDbSpline
210
0.0
220
0.0
230
1.0
 70
    11
 71
     3
 72
    16
 73
    12
 74
     0
 42
0.0000000001
 43
0.0000000001
 40
0.0
 40
0.0
 40
0.0
 40
0.0
 40
0.3333333333333333
 40
0.3333333333333333
 40
0.3333333333333333
 40
0.3333333333333333
 40
0.6666666666666666
 40
0.6666666666666666
 40
0.6666666666666666
 40
0.6666666666666666
 40
1.0
 40
1.0
 40
1.0
 40
1.0
 10
-10.28351
 20
-14.59268
 30
0.0
 10
-10.28351
 20
-14.59268
 30
0.0
 10
-10.30193
 20
-14.62148
 30
0.0
 10
-10.30193
 20
-14.62148
 30
0.0
 10
-10.30193
 20
-14.62148
 30
0.0
 10
-10.30193
 20
-14.62148
 30
0.0
 10
-10.28351
 20
-14.62148
 30
0.0
 10
-10.28351
 20
-14.62148
 30
0.0
 10
-10.28351
 20
-14.62148
 30
0.0
 10
-10.28351
 20
-14.62148
 30
0.0
 10
-10.28351
 20
-14.59268
 30
0.0
 10
-10.28351
 20
-14.59268
 30
0.0
  0
SPLINE
  5
92
330
1F
100
AcDbEntity
  8
Layer 1
 62
   250
100
AcDbSpline
210
0.0
220
0.0
230
1.0
 70
    11
 71
     3
 72
    48
 73
    44
 74
     0
 42
0.0000000001
 43
0.0000000001
 40
0.0
 40
0.0
 40
0.0
 40
0.0
 40
0.0909090909090909
 40
0.0909090909090909
 40
0.0909090909090909
 40
0.0909090909090909
 40
0.1818181818181818
 40
0.1818181818181818
 40
0.1818181818181818
 40
0.1818181818181818
 40
0.2727272727272727
 40
0.2727272727272727
 40
0.2727272727272727
 40
0.2727272727272727
 40
0.3636363636363636
 40
0.3636363636363636
 40
0.3636363636363636
 40
0.3636363636363636
 40
0.4545454545454546
 40
0.4545454545454546
 40
0.4545454545454546
 40
0.4545454545454546
 40
0.5454545454545455
 40
0.5454545454545455
 40
0.5454545454545455
 40
0.5454545454545455
 40
0.6363636363636365
 40
0.6363636363636365
 40
0.6363636363636365
 40
0.6363636363636365
 40
0.7272727272727274
 40
0.7272727272727274
 40
0.7272727272727274
 40
0.7272727272727274
 40
0.8181818181818183
 40
0.8181818181818183
 40
0.8181818181818183
 40
0.8181818181818183
 40
0.9090909090909093
 40
0.9090909090909093
 40
0.9090909090909093
 40
0.9090909090909093
 40
1.0
 40
1.0
 40
1.0
 40
1.0
 10
-10.28478
 20
-14.57666
 30
0.0
 10
-10.28478
 20
-14.57666
 30
0.0
 10
-10.26969
 20
-14.57666
 30
0.0
 10
-10.26969
 20
-14.57666
 30
0.0
 10
-10.26969
 20
-14.57666
 30
0.0
 10
-10.26969
 20
-14.57666
 30
0.0
 10
-10.26969
 20
-14.62148
 30
0.0
 10
-10.26969
 20
-14.62148
 30
0.0
 10
-10.26969
 20
-14.62148
 30
0.0
 10
-10.26969
 20
-14.62148
 30
0.0
 10
-10.26169
 20
-14.62148
 30
0.0
 10
-10.26169
 20
-14.62148
 30
0.0
 10
-10.26169
 20
-14.62148
 30
0.0
 10
-10.26169
 20
-14.62148
 30
0.0
 10
-10.26169
 20
-14.63383
 30
0.0
 10
-10.26169
 20
-14.63383
 30
0.0
 10
-10.26169
 20
-14.63383
 30
0.0
 10
-10.26169
 20
-14.63383
 30
0.0
 10
-10.26969
 20
-14.63383
 30
0.0
 10
-10.26969
 20
-14.63383
 30
0.0
 10
-10.26969
 20
-14.63383
 30
0.0
 10
-10.26969
 20
-14.63383
 30
0.0
 10
-10.26969
 20
-14.64956
 30
0.0
 10
-10.26969
 20
-14.64956
 30
0.0
 10
-10.26969
 20
-14.64956
 30
0.0
 10
-10.26969
 20
-14.64956
 30
0.0
 10
-10.28351
 20
-14.64956
 30
0.0
 10
-10.28351
 20
-14.64956
 30
0.0
 10
-10.28351
 20
-14.64956
 30
0.0
 10
-10.28351
 20
-14.64956
 30
0.0
 10
-10.28351
 20
-14.63383
 30
0.0
 10
-10.28351
 20
-14.63383
 30
0.0
 10
-10.28351
 20
-14.63383
 30
0.0
 10
-10.28351
 20
-14.63383
 30
0.0
 10
-10.31243
 20
-14.63383
 30
0.0
 10
-10.31243
 20
-14.63383
 30
0.0
 10
-10.31243
 20
-14.63383
 30
0.0
 10
-10.31243
 20
-14.63383
 30
0.0
 10
-10.31243
 20
-14.61986
 30
0.0
 10
-10.31243
 20
-14.61986
 30
0.0
 10
-10.31243
 20
-14.61986
 30
0.0
 10
-10.31243
 20
-14.61986
 30
0.0
 10
-10.28478
 20
-14.57666
 30
0.0
 10
-10.28478
 20
-14.57666
 30
0.0
  0
SPLINE
  5
93
330
1F
100
AcDbEntity
  8
Layer 1
 62
   250
100
AcDbSpline
210
0.0
220
0.0
230
1.0
 70
    11
 71
     3
 72
    32
 73
    28
 74
     0
 42
0.0000000001
 43
0.0000000001
 40
0.0
 40
0.0
 40
0.0
 40
0.0
 40
0.1428571428571428
 40
0.1428571428571428
 40
0.1428571428571428
 40
0.1428571428571428
 40
0.2857142857142857
 40
0.2857142857142857
 40
0.2857142857142857
 40
0.2857142857142857
 40
0.4285714285714285
 40
0.4285714285714285
 40
0.4285714285714285
 40
0.4285714285714285
 40
0.5714285714285714
 40
0.5714285714285714
 40
0.5714285714285714
 40
0.5714285714285714
 40
0.7142857142857142
 40
0.7142857142857142
 40
0.7142857142857142
 40
0.7142857142857142
 40
0.857142857142857
 40
0.857142857142857
 40
0.857142857142857
 40
0.857142857142857
 40
1.0
 40
1.0
 40
1.0
 40
1.0
 10
-10.25061
 20
-14.57666
 30
0.0
 10
-10.25061
 20
-14.57666
 30
0.0
 10
-10.20451
 20
-14.57666
 30
0.0
 10
-10.20451
 20
-14.57666
 30
0.0
 10
-10.20451
 20
-14.57666
 30
0.0
 10
-10.20451
 20
-14.57666
 30
0.0
 10
-10.20451
 20
-14.58686
 30
0.0
 10
-10.20451
 20
-14.58686
 30
0.0
 10
-10.20451
 20
-14.58686
 30
0.0
 10
-10.20451
 20
-14.58686
 30
0.0
 10
-10.22923
 20
-14.64956
 30
0.0
 10
-10.22923
 20
-14.64956
 30
0.0
 10
-10.22923
 20
-14.64956
 30
0.0
 10
-10.22923
 20
-14.64956
 30
0.0
 10
-10.24393
 20
-14.64956
 30
0.0
 10
-10.24393
 20
-14.64956
 30
0.0
 10
-10.24393
 20
-14.64956
 30
0.0
 10
-10.24393
 20
-14.64956
 30
0.0
 10
-10.22019
 20
-14.58936
 30
0.0
 10
-10.22019
 20
-14.58936
 30
0.0
 10
-10.22019
 20
-14.58936
 30
0.0
 10
-10.22019
 20
-14.58936
 30
0.0
 10
-10.25061
 20
-14.58936
 30
0.0
 10
-10.25061
 20
-14.58936
 30
0.0
 10
-10.25061
 20
-14.58936
 30
0.0
 10
-10.25061
 20
-14.58936
 30
0.0
 10
-10.25061
 20
-14.57666
 30
0.0
 10
-10.25061
 20
-14.57666
 30
0.0
  0
SPLINE
  5
94
330
1F
100
AcDbEntity
  8
Layer 1
 62
   250
100
AcDbSpline
210
0.0
220
0.0
230
1.0
 70
    11
 71
     3
 72
    88
 73
    84
 74
     0
 42
0.0000000001
 43
0.0000000001
 40
0.0
 40
0.0
 40
0.0
 40
0.0
 40
0.0476190476190476
 40
0.0476190476190476
 40
0.0476190476190476
 40
0.0476190476190476
 40
0.0952380952380952
 40
0.0952380952380952
 40
0.0952380952380952
 40
0.0952380952380952
 40
0.1428571428571428
 40
0.1428571428571428
 40
0.1428571428571428
 40
0.1428571428571428
 40
0.1904761904761905
 40
0.1904761904761905
 40
0.1904761904761905
 40
0.1904761904761905
 40
0.2380952380952381
 40
0.2380952380952381
 40
0.2380952380952381
 40
0.2380952380952381
 40
0.2857142857142857
 40
0.2857142857142857
 40
0.2857142857142857
 40
0.2857142857142857
 40
0.3333333333333333
 40
0.3333333333333333
 40
0.3333333333333333
 40
0.3333333333333333
 40
0.3809523809523809
 40
0.3809523809523809
 40
0.3809523809523809
 40
0.3809523809523809
 40
0.4285714285714285
 40
0.4285714285714285
 40
0.4285714285714285
 40
0.4285714285714285
 40
0.4761904761904762
 40
0.4761904761904762
 40
0.4761904761904762
 40
0.4761904761904762
 40
0.5238095238095237
 40
0.5238095238095237
 40
0.5238095238095237
 40
0.5238095238095237
 40
0.5714285714285714
 40
0.5714285714285714
 40
0.5714285714285714
 40
0.5714285714285714
 40
0.6190476190476191
 40
0.6190476190476191
 40
0.6190476190476191
 40
0.6190476190476191
 40
0.6666666666666667
 40
0.6666666666666667
 40
0.6666666666666667
 40
0.6666666666666667
 40
0.7142857142857144
 40
0.7142857142857144
 40
0.7142857142857144
 40
0.7142857142857144
 40
0.7619047619047621
 40
0.7619047619047621
 40
0.7619047619047621
 40
0.7619047619047621
 40
0.8095238095238098
 40
0.8095238095238098
 40
0.8095238095238098
 40
0.8095238095238098
 40
0.8571428571428574
 40
0.8571428571428574
 40
0.8571428571428574
 40
0.8571428571428574
 40
0.9047619047619051
 40
0.9047619047619051
 40
0.9047619047619051
 40
0.9047619047619051
 40
0.9523809523809528
 40
0.9523809523809528
 40
0.9523809523809528
 40
0.9523809523809528
 40
1.0
 40
1.0
 40
1.0
 40
1.0
 10
-10.17583
 20
-14.63686
 30
0.0
 10
-10.17583
 20
-14.63686
 30
0.0
 10
-10.14511
 20
-14.63686
 30
0.0
 10
-10.14511
 20
-14.63686
 30
0.0
 10
-10.14511
 20
-14.63686
 30
0.0
 10
-10.14511
 20
-14.63686
 30
0.0
 10
-10.14511
 20
-14.64956
 30
0.0
 10
-10.14511
 20
-14.64956
 30
0.0
 10
-10.14511
 20
-14.64956
 30
0.0
 10
-10.14511
 20
-14.64956
 30
0.0
 10
-10.19139
 20
-14.64956
 30
0.0
 10
-10.19139
 20
-14.64956
 30
0.0
 10
-10.19139
 20
-14.64956
 30
0.0
 10
-10.19139
 20
-14.64956
 30
0.0
 10
-10.19139
 20
-14.63724
 30
0.0
 10
-10.19139
 20
-14.63724
 30
0.0
 10
-10.19139
 20
-14.63724
 30
0.0
 10
-10.19139
 20
-14.63724
 30
0.0
 10
-10.18358
 20
-14.62896
 30
0.0
 10
-10.18358
 20
-14.62896
 30
0.0
 10
-10.18358
 20
-14.62896
 30
0.0
 10
-10.17431
 20
-14.61909
 30
0.0
 10
-10.16868
 20
-14.61303
 30
0.0
 10
-10.16669
 20
-14.61074
 30
0.0
 10
-10.16669
 20
-14.61074
 30
0.0
 10
-10.16426
 20
-14.60794
 30
0.0
 10
-10.16249
 20
-14.60546
 30
0.0
 10
-10.16143
 20
-14.60329
 30
0.0
 10
-10.16143
 20
-14.60329
 30
0.0
 10
-10.16034
 20
-14.60113
 30
0.0
 10
-10.15981
 20
-14.59899
 30
0.0
 10
-10.15981
 20
-14.59688
 30
0.0
 10
-10.15981
 20
-14.59688
 30
0.0
 10
-10.15981
 20
-14.59363
 30
0.0
 10
-10.16079
 20
-14.59111
 30
0.0
 10
-10.16276
 20
-14.58934
 30
0.0
 10
-10.16276
 20
-14.58934
 30
0.0
 10
-10.16473
 20
-14.58756
 30
0.0
 10
-10.16753
 20
-14.58668
 30
0.0
 10
-10.17113
 20
-14.58668
 30
0.0
 10
-10.17113
 20
-14.58668
 30
0.0
 10
-10.17371
 20
-14.58668
 30
0.0
 10
-10.17659
 20
-14.58719
 30
0.0
 10
-10.17979
 20
-14.58821
 30
0.0
 10
-10.17979
 20
-14.58821
 30
0.0
 10
-10.18301
 20
-14.58924
 30
0.0
 10
-10.18634
 20
-14.59073
 30
0.0
 10
-10.18983
 20
-14.59268
 30
0.0
 10
-10.18983
 20
-14.59268
 30
0.0
 10
-10.18983
 20
-14.59268
 30
0.0
 10
-10.18983
 20
-14.57924
 30
0.0
 10
-10.18983
 20
-14.57924
 30
0.0
 10
-10.18983
 20
-14.57924
 30
0.0
 10
-10.18634
 20
-14.57798
 30
0.0
 10
-10.18294
 20
-14.57701
 30
0.0
 10
-10.17959
 20
-14.57634
 30
0.0
 10
-10.17959
 20
-14.57634
 30
0.0
 10
-10.17626
 20
-14.57568
 30
0.0
 10
-10.17306
 20
-14.57534
 30
0.0
 10
-10.17001
 20
-14.57534
 30
0.0
 10
-10.17001
 20
-14.57534
 30
0.0
 10
-10.16229
 20
-14.57534
 30
0.0
 10
-10.15623
 20
-14.57714
 30
0.0
 10
-10.15183
 20
-14.58074
 30
0.0
 10
-10.15183
 20
-14.58074
 30
0.0
 10
-10.14741
 20
-14.58433
 30
0.0
 10
-10.14521
 20
-14.58924
 30
0.0
 10
-10.14521
 20
-14.59546
 30
0.0
 10
-10.14521
 20
-14.59546
 30
0.0
 10
-10.14521
 20
-14.59833
 30
0.0
 10
-10.14569
 20
-14.60101
 30
0.0
 10
-10.14664
 20
-14.60351
 30
0.0
 10
-10.14664
 20
-14.60351
 30
0.0
 10
-10.14761
 20
-14.60603
 30
0.0
 10
-10.14926
 20
-14.60881
 30
0.0
 10
-10.15161
 20
-14.61186
 30
0.0
 10
-10.15161
 20
-14.61186
 30
0.0
 10
-10.15333
 20
-14.61408
 30
0.0
 10
-10.15806
 20
-14.61906
 30
0.0
 10
-10.16581
 20
-14.62681
 30
0.0
 10
-10.16581
 20
-14.62681
 30
0.0
 10
-10.17001
 20
-14.63099
 30
0.0
 10
-10.17334
 20
-14.63436
 30
0.0
 10
-10.17583
 20
-14.63686
 30
0.0
  0
ENDSEC
  0
SECTION
  2
OBJECTS
  0
DICTIONARY
  5
C
330
0
100
AcDbDictionary
281
     1
  3
ACAD_GROUP
350
D
  3
ACAD_LAYOUT
350
1A
  3
ACAD_MLEADERSTYLE
350
96
  3
ACAD_MLINESTYLE
350
17
  3
ACAD_PLOTSETTINGS
350
19
  3
ACAD_PLOTSTYLENAME
350
E
  3
ACAD_SCALELIST
350
3B
  3
ACAD_TABLESTYLE
350
95
  3
ACAD_VISUALSTYLE
350
2A
  0
DICTIONARY
  5
D
102
{ACAD_REACTORS
330
C
102
}
330
C
100
AcDbDictionary
281
     1
  0
DICTIONARY
  5
1A
102
{ACAD_REACTORS
330
C
102
}
330
C
100
AcDbDictionary
281
     1
  3
Layout1
350
1E
  3
Layout2
350
26
  3
Model
350
22
  0
DICTIONARY
  5
96
102
{ACAD_REACTORS
330
C
102
}
330
C
100
AcDbDictionary
281
     1
  0
DICTIONARY
  5
17
102
{ACAD_REACTORS
330
C
102
}
330
C
100
AcDbDictionary
281
     1
  3
Standard
350
18
  0
DICTIONARY
  5
19
102
{ACAD_REACTORS
330
C
102
}
330
C
100
AcDbDictionary
281
     1
  0
ACDBDICTIONARYWDFLT
  5
E
102
{ACAD_REACTORS
330
C
102
}
330
C
100
AcDbDictionary
281
     1
  3
Normal
350
F
100
AcDbDictionaryWithDefault
340
F
  0
DICTIONARY
  5
3B
102
{ACAD_REACTORS
330
C
102
}
330
C
100
AcDbDictionary
281
     1
  3
A0
350
3C
  3
A1
350
3D
  3
A2
350
3E
  3
A3
350
3F
  3
A4
350
40
  3
A5
350
41
  3
A6
350
42
  3
A7
350
43
  3
A8
350
44
  3
A9
350
45
  3
B0
350
46
  3
B1
350
47
  3
B2
350
48
  3
B3
350
49
  3
B4
350
4A
  3
B5
350
4B
  3
B6
350
4C
  3
B7
350
4D
  3
B8
350
4E
  3
B9
350
4F
  3
C0
350
50
  3
C1
350
51
  3
C2
350
52
  3
C3
350
53
  3
C4
350
54
  3
C5
350
55
  3
C6
350
56
  3
C7
350
57
  3
C8
350
58
  3
C9
350
59
  3
D0
350
5A
  3
D1
350
5B
  3
D2
350
5C
  0
DICTIONARY
  5
95
102
{ACAD_REACTORS
330
C
102
}
330
C
100
AcDbDictionary
281
     1
  0
DICTIONARY
  5
2A
102
{ACAD_REACTORS
330
C
102
}
330
C
100
AcDbDictionary
281
     1
  3
2dWireframe
350
2F
  3
3D Hidden
350
31
  3
3dWireframe
350
30
  3
Basic
350
32
  3
Brighten
350
36
  3
ColorChange
350
3A
  3
Conceptual
350
34
  3
Dim
350
35
  3
Facepattern
350
39
  3
Flat
350
2B
  3
FlatWithEdges
350
2C
  3
Gouraud
350
2D
  3
GouraudWithEdges
350
2E
  3
Linepattern
350
38
  3
Realistic
350
33
  3
Thicken
350
37
  0
LAYOUT
  5
1E
102
{ACAD_REACTORS
330
1A
102
}
330
1A
100
AcDbPlotSettings
  1

  2
none_device
  4

  6

 40
0.0
 41
0.0
 42
0.0
 43
0.0
 44
0.0
 45
0.0
 46
0.0
 47
0.0
 48
0.0
 49
0.0
140
0.0
141
0.0
142
1.0
143
1.0
 70
   688
 72
     0
 73
     0
 74
     5
  7

 75
    16
 76
     0
 77
     2
 78
   300
147
1.0
148
0.0
149
0.0
100
AcDbLayout
  1
Layout1
 70
     1
 71
     1
 10
0.0
 20
0.0
 11
12.0
 21
9.0
 12
0.0
 22
0.0
 32
0.0
 14
1.000000000000000E+20
 24
1.000000000000000E+20
 34
1.000000000000000E+20
 15
-1.000000000000000E+20
 25
-1.000000000000000E+20
 35
-1.000000000000000E+20
146
0.0
 13
0.0
 23
0.0
 33
0.0
 16
1.0
 26
0.0
 36
0.0
 17
0.0
 27
1.0
 37
0.0
 76
     0
330
1B
  0
LAYOUT
  5
26
102
{ACAD_REACTORS
330
1A
102
}
330
1A
100
AcDbPlotSettings
  1

  2
none_device
  4

  6

 40
0.0
 41
0.0
 42
0.0
 43
0.0
 44
0.0
 45
0.0
 46
0.0
 47
0.0
 48
0.0
 49
0.0
140
0.0
141
0.0
142
1.0
143
1.0
 70
   688
 72
     0
 73
     0
 74
     5
  7

 75
    16
 76
     0
 77
     2
 78
   300
147
1.0
148
0.0
149
0.0
100
AcDbLayout
  1
Layout2
 70
     1
 71
     2
 10
0.0
 20
0.0
 11
0.0
 21
0.0
 12
0.0
 22
0.0
 32
0.0
 14
0.0
 24
0.0
 34
0.0
 15
0.0
 25
0.0
 35
0.0
146
0.0
 13
0.0
 23
0.0
 33
0.0
 16
1.0
 26
0.0
 36
0.0
 17
0.0
 27
1.0
 37
0.0
 76
     0
330
23
  0
LAYOUT
  5
22
102
{ACAD_REACTORS
330
1A
102
}
330
1A
100
AcDbPlotSettings
  1

  2
none_device
  4

  6

 40
0.0
 41
0.0
 42
0.0
 43
0.0
 44
0.0
 45
0.0
 46
0.0
 47
0.0
 48
0.0
 49
0.0
140
0.0
141
0.0
142
1.0
143
1.0
 70
  1712
 72
     0
 73
     0
 74
     0
  7

 75
     0
 76
     0
 77
     2
 78
   300
147
1.0
148
0.0
149
0.0
100
AcDbLayout
  1
Model
 70
     1
 71
     0
 10
0.0
 20
0.0
 11
12.0
 21
9.0
 12
0.0
 22
0.0
 32
0.0
 14
-11.05479
 24
-14.98553
 34
0.0
 15
-9.94521
 25
-13.89817
 35
0.0
146
0.0
 13
0.0
 23
0.0
 33
0.0
 16
1.0
 26
0.0
 36
0.0
 17
0.0
 27
1.0
 37
0.0
 76
     0
330
1F
331
29
  0
MLINESTYLE
  5
18
102
{ACAD_REACTORS
330
17
102
}
330
17
100
AcDbMlineStyle
  2
Standard
 70
     0
  3

 62
   256
 51
90.0
 52
90.0
 71
     2
 49
0.5
 62
   256
  6
BYLAYER
 49
-0.5
 62
   256
  6
BYLAYER
  0
ACDBPLACEHOLDER
  5
F
102
{ACAD_REACTORS
330
E
102
}
330
E
  0
SCALE
  5
3C
102
{ACAD_REACTORS
330
3B
102
}
330
3B
100
AcDbScale
 70
     0
300
1:1
140
1.0
141
1.0
290
     1
  0
SCALE
  5
3D
102
{ACAD_REACTORS
330
3B
102
}
330
3B
100
AcDbScale
 70
     0
300
1:2
140
1.0
141
2.0
290
     0
  0
SCALE
  5
3E
102
{ACAD_REACTORS
330
3B
102
}
330
3B
100
AcDbScale
 70
     0
300
1:4
140
1.0
141
4.0
290
     0
  0
SCALE
  5
3F
102
{ACAD_REACTORS
330
3B
102
}
330
3B
100
AcDbScale
 70
     0
300
1:5
140
1.0
141
5.0
290
     0
  0
SCALE
  5
40
102
{ACAD_REACTORS
330
3B
102
}
330
3B
100
AcDbScale
 70
     0
300
1:8
140
1.0
141
8.0
290
     0
  0
SCALE
  5
41
102
{ACAD_REACTORS
330
3B
102
}
330
3B
100
AcDbScale
 70
     0
300
1:10
140
1.0
141
10.0
290
     0
  0
SCALE
  5
42
102
{ACAD_REACTORS
330
3B
102
}
330
3B
100
AcDbScale
 70
     0
300
1:16
140
1.0
141
16.0
290
     0
  0
SCALE
  5
43
102
{ACAD_REACTORS
330
3B
102
}
330
3B
100
AcDbScale
 70
     0
300
1:20
140
1.0
141
20.0
290
     0
  0
SCALE
  5
44
102
{ACAD_REACTORS
330
3B
102
}
330
3B
100
AcDbScale
 70
     0
300
1:30
140
1.0
141
30.0
290
     0
  0
SCALE
  5
45
102
{ACAD_REACTORS
330
3B
102
}
330
3B
100
AcDbScale
 70
     0
300
1:40
140
1.0
141
40.0
290
     0
  0
SCALE
  5
46
102
{ACAD_REACTORS
330
3B
102
}
330
3B
100
AcDbScale
 70
     0
300
1:50
140
1.0
141
50.0
290
     0
  0
SCALE
  5
47
102
{ACAD_REACTORS
330
3B
102
}
330
3B
100
AcDbScale
 70
     0
300
1:100
140
1.0
141
100.0
290
     0
  0
SCALE
  5
48
102
{ACAD_REACTORS
330
3B
102
}
330
3B
100
AcDbScale
 70
     0
300
2:1
140
2.0
141
1.0
290
     0
  0
SCALE
  5
49
102
{ACAD_REACTORS
330
3B
102
}
330
3B
100
AcDbScale
 70
     0
300
4:1
140
4.0
141
1.0
290
     0
  0
SCALE
  5
4A
102
{ACAD_REACTORS
330
3B
102
}
330
3B
100
AcDbScale
 70
     0
300
8:1
140
8.0
141
1.0
290
     0
  0
SCALE
  5
4B
102
{ACAD_REACTORS
330
3B
102
}
330
3B
100
AcDbScale
 70
     0
300
10:1
140
10.0
141
1.0
290
     0
  0
SCALE
  5
4C
102
{ACAD_REACTORS
330
3B
102
}
330
3B
100
AcDbScale
 70
     0
300
100:1
140
100.0
141
1.0
290
     0
  0
SCALE
  5
4D
102
{ACAD_REACTORS
330
3B
102
}
330
3B
100
AcDbScale
 70
     0
300
1/128" = 1'-0"
140
0.0078125
141
12.0
290
     0
  0
SCALE
  5
4E
102
{ACAD_REACTORS
330
3B
102
}
330
3B
100
AcDbScale
 70
     0
300
1/64" = 1'-0"
140
0.015625
141
12.0
290
     0
  0
SCALE
  5
4F
102
{ACAD_REACTORS
330
3B
102
}
330
3B
100
AcDbScale
 70
     0
300
1/32" = 1'-0"
140
0.03125
141
12.0
290
     0
  0
SCALE
  5
50
102
{ACAD_REACTORS
330
3B
102
}
330
3B
100
AcDbScale
 70
     0
300
1/16" = 1'-0"
140
0.0625
141
12.0
290
     0
  0
SCALE
  5
51
102
{ACAD_REACTORS
330
3B
102
}
330
3B
100
AcDbScale
 70
     0
300
3/32" = 1'-0"
140
0.09375
141
12.0
290
     0
  0
SCALE
  5
52
102
{ACAD_REACTORS
330
3B
102
}
330
3B
100
AcDbScale
 70
     0
300
1/8" = 1'-0"
140
0.125
141
12.0
290
     0
  0
SCALE
  5
53
102
{ACAD_REACTORS
330
3B
102
}
330
3B
100
AcDbScale
 70
     0
300
3/16" = 1'-0"
140
0.1875
141
12.0
290
     0
  0
SCALE
  5
54
102
{ACAD_REACTORS
330
3B
102
}
330
3B
100
AcDbScale
 70
     0
300
1/4" = 1'-0"
140
0.25
141
12.0
290
     0
  0
SCALE
  5
55
102
{ACAD_REACTORS
330
3B
102
}
330
3B
100
AcDbScale
 70
     0
300
3/8" = 1'-0"
140
0.375
141
12.0
290
     0
  0
SCALE
  5
56
102
{ACAD_REACTORS
330
3B
102
}
330
3B
100
AcDbScale
 70
     0
300
1/2" = 1'-0"
140
0.5
141
12.0
290
     0
  0
SCALE
  5
57
102
{ACAD_REACTORS
330
3B
102
}
330
3B
100
AcDbScale
 70
     0
300
3/4" = 1'-0"
140
0.75
141
12.0
290
     0
  0
SCALE
  5
58
102
{ACAD_REACTORS
330
3B
102
}
330
3B
100
AcDbScale
 70
     0
300
1" = 1'-0"
140
1.0
141
12.0
290
     0
  0
SCALE
  5
59
102
{ACAD_REACTORS
330
3B
102
}
330
3B
100
AcDbScale
 70
     0
300
1-1/2" = 1'-0"
140
1.5
141
12.0
290
     0
  0
SCALE
  5
5A
102
{ACAD_REACTORS
330
3B
102
}
330
3B
100
AcDbScale
 70
     0
300
3" = 1'-0"
140
3.0
141
12.0
290
     0
  0
SCALE
  5
5B
102
{ACAD_REACTORS
330
3B
102
}
330
3B
100
AcDbScale
 70
     0
300
6" = 1'-0"
140
6.0
141
12.0
290
     0
  0
SCALE
  5
5C
102
{ACAD_REACTORS
330
3B
102
}
330
3B
100
AcDbScale
 70
     0
300
1'-0" = 1'-0"
140
12.0
141
12.0
290
     0
  0
VISUALSTYLE
  5
2F
102
{ACAD_REACTORS
330
2A
102
}
330
2A
100
AcDbVisualStyle
  2
2dWireframe
 70
     4
 71
     0
 72
     2
 73
     0
 90
        0
 40
-0.6
 41
-30.0
 62
     5
 63
     7
421
 16777215
 74
     1
 91
        4
 64
     7
 65
   257
 75
     1
175
     1
 42
1.0
 92
        0
 66
   257
 43
1.0
 76
     1
 77
     6
 78
     2
 67
     7
 79
     5
170
     0
171
     0
290
     0
174
     0
 93
        1
 44
0.0
173
     0
291
     0
 45
0.0
  0
VISUALSTYLE
  5
31
102
{ACAD_REACTORS
330
2A
102
}
330
2A
100
AcDbVisualStyle
  2
3D Hidden
 70
     6
 71
     1
 72
     2
 73
     2
 90
        0
 40
-0.6
 41
-30.0
 62
     5
 63
     7
421
 16777215
 74
     2
 91
        2
 64
     7
 65
   257
 75
     2
175
     1
 42
40.0
 92
        0
 66
   257
 43
1.0
 76
     1
 77
     6
 78
     2
 67
     7
 79
     3
170
     0
171
     0
290
     0
174
     0
 93
        1
 44
0.0
173
     0
291
     0
 45
0.0
  0
VISUALSTYLE
  5
30
102
{ACAD_REACTORS
330
2A
102
}
330
2A
100
AcDbVisualStyle
  2
3dWireframe
 70
     5
 71
     0
 72
     2
 73
     0
 90
        0
 40
-0.6
 41
-30.0
 62
     5
 63
     7
421
 16777215
 74
     1
 91
        4
 64
     7
 65
   257
 75
     1
175
     1
 42
1.0
 92
        0
 66
   257
 43
1.0
 76
     1
 77
     6
 78
     2
 67
     7
 79
     5
170
     0
171
     0
290
     0
174
     0
 93
        1
 44
0.0
173
     0
291
     0
 45
0.0
  0
VISUALSTYLE
  5
32
102
{ACAD_REACTORS
330
2A
102
}
330
2A
100
AcDbVisualStyle
  2
Basic
 70
     7
 71
     1
 72
     0
 73
     1
 90
        0
 40
-0.6
 41
-30.0
 62
     5
 63
     7
421
 16777215
 74
     0
 91
        4
 64
     7
 65
   257
 75
     1
175
     1
 42
1.0
 92
        8
 66
     7
 43
1.0
 76
     1
 77
     6
 78
     2
 67
     7
 79
     5
170
     0
171
     0
290
     0
174
     0
 93
        1
 44
0.0
173
     0
291
     1
 45
0.0
  0
VISUALSTYLE
  5
36
102
{ACAD_REACTORS
330
2A
102
}
330
2A
100
AcDbVisualStyle
  2
Brighten
 70
    12
 71
     2
 72
     2
 73
     0
 90
        0
 40
-0.6
 41
-30.0
 62
     5
 63
     7
421
 16777215
 74
     1
 91
        4
 64
     7
 65
   257
 75
     1
175
     1
 42
1.0
 92
        8
 66
     7
 43
1.0
 76
     1
 77
     6
 78
     2
 67
     7
 79
     5
170
     0
171
     0
290
     0
174
     0
 93
        1
 44
50.0
173
     0
291
     1
 45
0.0
  0
VISUALSTYLE
  5
3A
102
{ACAD_REACTORS
330
2A
102
}
330
2A
100
AcDbVisualStyle
  2
ColorChange
 70
    16
 71
     2
 72
     2
 73
     3
 90
        0
 40
-0.6
 41
-30.0
 62
     5
 63
     8
421
  8421504
 74
     1
 91
        4
 64
     7
 65
   257
 75
     1
175
     1
 42
1.0
 92
        8
 66
     8
424
  8421504
 43
1.0
 76
     1
 77
     6
 78
     2
 67
     7
 79
     5
170
     0
171
     0
290
     0
174
     0
 93
        1
 44
0.0
173
     0
291
     1
 45
0.0
  0
VISUALSTYLE
  5
34
102
{ACAD_REACTORS
330
2A
102
}
330
2A
100
AcDbVisualStyle
  2
Conceptual
 70
     9
 71
     3
 72
     2
 73
     0
 90
        0
 40
-0.6
 41
-30.0
 62
     5
 63
     7
421
 16777215
 74
     2
 91
        2
 64
     7
 65
   257
 75
     1
175
     1
 42
40.0
 92
        8
 66
     7
 43
1.0
 76
     1
 77
     6
 78
     2
 67
     7
 79
     3
170
     0
171
     0
290
     0
174
     0
 93
        1
 44
0.0
173
     0
291
     0
 45
0.0
  0
VISUALSTYLE
  5
35
102
{ACAD_REACTORS
330
2A
102
}
330
2A
100
AcDbVisualStyle
  2
Dim
 70
    11
 71
     2
 72
     2
 73
     0
 90
        0
 40
-0.6
 41
-30.0
 62
     5
 63
     7
421
 16777215
 74
     1
 91
        4
 64
     7
 65
   257
 75
     1
175
     1
 42
1.0
 92
        8
 66
     7
 43
1.0
 76
     1
 77
     6
 78
     2
 67
     7
 79
     5
170
     0
171
     0
290
     0
174
     0
 93
        1
 44
-50.0
173
     0
291
     1
 45
0.0
  0
VISUALSTYLE
  5
39
102
{ACAD_REACTORS
330
2A
102
}
330
2A
100
AcDbVisualStyle
  2
Facepattern
 70
    15
 71
     2
 72
     2
 73
     0
 90
        0
 40
-0.6
 41
-30.0
 62
     5
 63
     7
421
 16777215
 74
     1
 91
        4
 64
     7
 65
   257
 75
     1
175
     1
 42
1.0
 92
        8
 66
     7
 43
1.0
 76
     1
 77
     6
 78
     2
 67
     7
 79
     5
170
     0
171
     0
290
     0
174
     0
 93
        1
 44
0.0
173
     0
291
     1
 45
0.0
  0
VISUALSTYLE
  5
2B
102
{ACAD_REACTORS
330
2A
102
}
330
2A
100
AcDbVisualStyle
  2
Flat
 70
     0
 71
     2
 72
     1
 73
     1
 90
        2
 40
-0.6
 41
30.0
 62
     5
 63
     7
421
 16777215
 74
     0
 91
        4
 64
     7
 65
   257
 75
     1
175
     1
 42
1.0
 92
        8
 66
     7
 43
1.0
 76
     1
 77
     6
 78
     2
 67
     7
 79
     5
170
     0
171
     0
290
     0
174
     0
 93
       13
 44
0.0
173
     0
291
     1
 45
0.0
  0
VISUALSTYLE
  5
2C
102
{ACAD_REACTORS
330
2A
102
}
330
2A
100
AcDbVisualStyle
  2
FlatWithEdges
 70
     1
 71
     2
 72
     1
 73
     1
 90
        2
 40
-0.6
 41
30.0
 62
     5
 63
     7
421
 16777215
 74
     1
 91
        4
 64
     7
 65
   257
 75
     1
175
     1
 42
1.0
 92
        0
 66
   257
 43
1.0
 76
     1
 77
     6
 78
     2
 67
     7
 79
     5
170
     0
171
     0
290
     0
174
     0
 93
       13
 44
0.0
173
     0
291
     1
 45
0.0
  0
VISUALSTYLE
  5
2D
102
{ACAD_REACTORS
330
2A
102
}
330
2A
100
AcDbVisualStyle
  2
Gouraud
 70
     2
 71
     2
 72
     2
 73
     1
 90
        2
 40
-0.6
 41
30.0
 62
     5
 63
     7
421
 16777215
 74
     0
 91
        4
 64
     7
 65
   257
 75
     1
175
     1
 42
1.0
 92
        0
 66
     7
 43
1.0
 76
     1
 77
     6
 78
     2
 67
     7
 79
     5
170
     0
171
     0
290
     0
174
     0
 93
       13
 44
0.0
173
     0
291
     1
 45
0.0
  0
VISUALSTYLE
  5
2E
102
{ACAD_REACTORS
330
2A
102
}
330
2A
100
AcDbVisualStyle
  2
GouraudWithEdges
 70
     3
 71
     2
 72
     2
 73
     1
 90
        2
 40
-0.6
 41
30.0
 62
     5
 63
     7
421
 16777215
 74
     1
 91
        4
 64
     7
 65
   257
 75
     1
175
     1
 42
1.0
 92
        0
 66
   257
 43
1.0
 76
     1
 77
     6
 78
     2
 67
     7
 79
     5
170
     0
171
     0
290
     0
174
     0
 93
       13
 44
0.0
173
     0
291
     1
 45
0.0
  0
VISUALSTYLE
  5
38
102
{ACAD_REACTORS
330
2A
102
}
330
2A
100
AcDbVisualStyle
  2
Linepattern
 70
    14
 71
     2
 72
     2
 73
     0
 90
        0
 40
-0.6
 41
-30.0
 62
     5
 63
     7
421
 16777215
 74
     1
 91
        4
 64
     7
 65
   257
 75
     7
175
     7
 42
1.0
 92
        8
 66
     7
 43
1.0
 76
     1
 77
     6
 78
     2
 67
     7
 79
     5
170
     0
171
     0
290
     0
174
     0
 93
        1
 44
0.0
173
     0
291
     1
 45
0.0
  0
VISUALSTYLE
  5
33
102
{ACAD_REACTORS
330
2A
102
}
330
2A
100
AcDbVisualStyle
  2
Realistic
 70
     8
 71
     2
 72
     2
 73
     0
 90
        0
 40
-0.6
 41
-30.0
 62
     5
 63
     7
421
 16777215
 74
     1
 91
        0
 64
     7
 65
   257
 75
     1
175
     1
 42
1.0
 92
        8
 66
     8
424
  7895160
 43
1.0
 76
     1
 77
     6
 78
     2
 67
     7
 79
     5
170
     0
171
     0
290
     0
174
     0
 93
       13
 44
0.0
173
     0
291
     0
 45
0.0
  0
VISUALSTYLE
  5
37
102
{ACAD_REACTORS
330
2A
102
}
330
2A
100
AcDbVisualStyle
  2
Thicken
 70
    13
 71
     2
 72
     2
 73
     0
 90
        0
 40
-0.6
 41
-30.0
 62
     5
 63
     7
421
 16777215
 74
     1
 91
        4
 64
     7
 65
   257
 75
     1
175
     1
 42
1.0
 92
       12
 66
     7
 43
1.0
 76
     1
 77
     6
 78
     2
 67
     7
 79
     5
170
     0
171
     0
290
     0
174
     0
 93
        1
 44
0.0
173
     0
291
     1
 45
0.0
  0
ENDSEC
  0
EOF
