  0
SECTION
  2
HEADER
  9
$ACADVER
  1
AC1021
  9
$ACADMAINTVER
 70
    25
  9
$DWGCODEPAGE
  3
ANSI_1252
  9
$INSBASE
 10
0.0
 20
0.0
 30
0.0
  9
$EXTMIN
 10
-10.83
 20
-15.18
 30
0.0
  9
$EXTMAX
 10
-10.17
 20
-14.52
 30
0.0
  9
$LIMMIN
 10
0.0
 20
0.0
  9
$LIMMAX
 10
12.0
 20
9.0
  9
$ORTHOMODE
 70
     0
  9
$REGENMODE
 70
     1
  9
$FILLMODE
 70
     1
  9
$QTEXTMODE
 70
     0
  9
$MIRRTEXT
 70
     1
  9
$LTSCALE
 40
1.0
  9
$ATTMODE
 70
     1
  9
$TEXTSIZE
 40
0.2
  9
$TRACEWID
 40
0.05
  9
$TEXTSTYLE
  7
Standard
  9
$CLAYER
  8
0
  9
$CELTYPE
  6
ByLayer
  9
$CECOLOR
 62
   256
  9
$CELTSCALE
 40
1.0
  9
$DISPSILH
 70
     0
  9
$DIMSCALE
 40
1.0
  9
$DIMASZ
 40
0.18
  9
$DIMEXO
 40
0.0625
  9
$DIMDLI
 40
0.38
  9
$DIMRND
 40
0.0
  9
$DIMDLE
 40
0.0
  9
$DIMEXE
 40
0.18
  9
$DIMTP
 40
0.0
  9
$DIMTM
 40
0.0
  9
$DIMTXT
 40
0.18
  9
$DIMCEN
 40
0.09
  9
$DIMTSZ
 40
0.0
  9
$DIMTOL
 70
     0
  9
$DIMLIM
 70
     0
  9
$DIMTIH
 70
     1
  9
$DIMTOH
 70
     1
  9
$DIMSE1
 70
     0
  9
$DIMSE2
 70
     0
  9
$DIMTAD
 70
     0
  9
$DIMZIN
 70
     0
  9
$DIMBLK
  1

  9
$DIMASO
 70
     1
  9
$DIMSHO
 70
     1
  9
$DIMPOST
  1

  9
$DIMAPOST
  1

  9
$DIMALT
 70
     0
  9
$DIMALTD
 70
     2
  9
$DIMALTF
 40
25.4
  9
$DIMLFAC
 40
1.0
  9
$DIMTOFL
 70
     0
  9
$DIMTVP
 40
0.0
  9
$DIMTIX
 70
     0
  9
$DIMSOXD
 70
     0
  9
$DIMSAH
 70
     0
  9
$DIMBLK1
  1

  9
$DIMBLK2
  1

  9
$DIMSTYLE
  2
Standard
  9
$DIMCLRD
 70
     0
  9
$DIMCLRE
 70
     0
  9
$DIMCLRT
 70
     0
  9
$DIMTFAC
 40
1.0
  9
$DIMGAP
 40
0.09
  9
$DIMJUST
 70
     0
  9
$DIMSD1
 70
     0
  9
$DIMSD2
 70
     0
  9
$DIMTOLJ
 70
     1
  9
$DIMTZIN
 70
     0
  9
$DIMALTZ
 70
     0
  9
$DIMALTTZ
 70
     0
  9
$DIMUPT
 70
     0
  9
$DIMDEC
 70
     4
  9
$DIMTDEC
 70
     4
  9
$DIMALTU
 70
     2
  9
$DIMALTTD
 70
     2
  9
$DIMTXSTY
  7
Standard
  9
$DIMAUNIT
 70
     0
  9
$DIMADEC
 70
     0
  9
$DIMALTRND
 40
0.0
  9
$DIMAZIN
 70
     0
  9
$DIMDSEP
 70
    46
  9
$DIMATFIT
 70
     3
  9
$DIMFRAC
 70
     0
  9
$DIMLDRBLK
  1

  9
$DIMLUNIT
 70
     2
  9
$DIMLWD
 70
    -2
  9
$DIMLWE
 70
    -2
  9
$DIMTMOVE
 70
     0
  9
$DIMFXL
 40
1.0
  9
$DIMFXLON
 70
     0
  9
$DIMJOGANG
 40
0.7853981633974483
  9
$DIMTFILL
 70
     0
  9
$DIMTFILLCLR
 70
     0
  9
$DIMARCSYM
 70
     0
  9
$DIMLTYPE
  6

  9
$DIMLTEX1
  6

  9
$DIMLTEX2
  6

  9
$LUNITS
 70
     2
  9
$LUPREC
 70
     4
  9
$SKETCHINC
 40
0.1
  9
$FILLETRAD
 40
0.5
  9
$AUNITS
 70
     0
  9
$AUPREC
 70
     0
  9
$MENU
  1
.
  9
$ELEVATION
 40
0.0
  9
$PELEVATION
 40
0.0
  9
$THICKNESS
 40
0.0
  9
$LIMCHECK
 70
     0
  9
$CHAMFERA
 40
0.5
  9
$CHAMFERB
 40
0.5
  9
$CHAMFERC
 40
1.0
  9
$CHAMFERD
 40
0.0
  9
$SKPOLY
 70
     0
  9
$TDCREATE
 40
2457049.712665451
  9
$TDUCREATE
 40
2457049.712665451
  9
$TDUPDATE
 40
2457049.712665463
  9
$TDUUPDATE
 40
2457049.712665463
  9
$TDINDWG
 40
0.0000000116
  9
$TDUSRTIMER
 40
0.0000000116
  9
$USRTIMER
 70
     1
  9
$ANGBASE
 50
0.0
  9
$ANGDIR
 70
     0
  9
$PDMODE
 70
     0
  9
$PDSIZE
 40
0.0
  9
$PLINEWID
 40
0.0
  9
$SPLFRAME
 70
     0
  9
$SPLINETYPE
 70
     6
  9
$SPLINESEGS
 70
     8
  9
$HANDSEED
  5
99
  9
$SURFTAB1
 70
     6
  9
$SURFTAB2
 70
     6
  9
$SURFTYPE
 70
     6
  9
$SURFU
 70
     6
  9
$SURFV
 70
     6
  9
$UCSBASE
  2

  9
$UCSNAME
  2

  9
$UCSORG
 10
0.0
 20
0.0
 30
0.0
  9
$UCSXDIR
 10
1.0
 20
0.0
 30
0.0
  9
$UCSYDIR
 10
0.0
 20
1.0
 30
0.0
  9
$UCSORTHOREF
  2

  9
$UCSORTHOVIEW
 70
     0
  9
$UCSORGTOP
 10
0.0
 20
0.0
 30
0.0
  9
$UCSORGBOTTOM
 10
0.0
 20
0.0
 30
0.0
  9
$UCSORGLEFT
 10
0.0
 20
0.0
 30
0.0
  9
$UCSORGRIGHT
 10
0.0
 20
0.0
 30
0.0
  9
$UCSORGFRONT
 10
0.0
 20
0.0
 30
0.0
  9
$UCSORGBACK
 10
0.0
 20
0.0
 30
0.0
  9
$PUCSBASE
  2

  9
$PUCSNAME
  2

  9
$PUCSORG
 10
0.0
 20
0.0
 30
0.0
  9
$PUCSXDIR
 10
1.0
 20
0.0
 30
0.0
  9
$PUCSYDIR
 10
0.0
 20
1.0
 30
0.0
  9
$PUCSORTHOREF
  2

  9
$PUCSORTHOVIEW
 70
     0
  9
$PUCSORGTOP
 10
0.0
 20
0.0
 30
0.0
  9
$PUCSORGBOTTOM
 10
0.0
 20
0.0
 30
0.0
  9
$PUCSORGLEFT
 10
0.0
 20
0.0
 30
0.0
  9
$PUCSORGRIGHT
 10
0.0
 20
0.0
 30
0.0
  9
$PUCSORGFRONT
 10
0.0
 20
0.0
 30
0.0
  9
$PUCSORGBACK
 10
0.0
 20
0.0
 30
0.0
  9
$USERI1
 70
     0
  9
$USERI2
 70
     0
  9
$USERI3
 70
     0
  9
$USERI4
 70
     0
  9
$USERI5
 70
     0
  9
$USERR1
 40
0.0
  9
$USERR2
 40
0.0
  9
$USERR3
 40
0.0
  9
$USERR4
 40
0.0
  9
$USERR5
 40
0.0
  9
$WORLDVIEW
 70
     1
  9
$SHADEDGE
 70
     3
  9
$SHADEDIF
 70
    70
  9
$TILEMODE
 70
     1
  9
$MAXACTVP
 70
    64
  9
$PINSBASE
 10
0.0
 20
0.0
 30
0.0
  9
$PLIMCHECK
 70
     0
  9
$PEXTMIN
 10
1.000000000000000E+20
 20
1.000000000000000E+20
 30
1.000000000000000E+20
  9
$PEXTMAX
 10
-1.000000000000000E+20
 20
-1.000000000000000E+20
 30
-1.000000000000000E+20
  9
$PLIMMIN
 10
0.0
 20
0.0
  9
$PLIMMAX
 10
12.0
 20
9.0
  9
$UNITMODE
 70
     0
  9
$VISRETAIN
 70
     1
  9
$PLINEGEN
 70
     0
  9
$PSLTSCALE
 70
     1
  9
$TREEDEPTH
 70
  3020
  9
$CMLSTYLE
  2
Standard
  9
$CMLJUST
 70
     0
  9
$CMLSCALE
 40
1.0
  9
$PROXYGRAPHICS
 70
     1
  9
$MEASUREMENT
 70
     0
  9
$CELWEIGHT
370
    -1
  9
$ENDCAPS
280
     0
  9
$JOINSTYLE
280
     0
  9
$LWDISPLAY
290
     0
  9
$INSUNITS
 70
     5
  9
$HYPERLINKBASE
  1

  9
$STYLESHEET
  1

  9
$XEDIT
290
     1
  9
$CEPSNTYPE
380
     0
  9
$PSTYLEMODE
290
     1
  9
$FINGERPRINTGUID
  2
{83F1898E-E992-492D-8FE6-6893B073914A}
  9
$VERSIONGUID
  2
{FAEB1C32-E019-11D5-929B-00C0DF256EC4}
  9
$EXTNAMES
290
     1
  9
$PSVPSCALE
 40
0.0
  9
$OLESTARTUP
290
     0
  9
$SORTENTS
280
   127
  9
$INDEXCTL
280
     0
  9
$HIDETEXT
280
     1
  9
$XCLIPFRAME
290
     0
  9
$HALOGAP
280
     0
  9
$OBSCOLOR
 70
   257
  9
$OBSLTYPE
280
     0
  9
$INTERSECTIONDISPLAY
280
     0
  9
$INTERSECTIONCOLOR
 70
   257
  9
$DIMASSOC
280
     2
  9
$PROJECTNAME
  1

  9
$CAMERADISPLAY
290
     0
  9
$LENSLENGTH
 40
50.0
  9
$CAMERAHEIGHT
 40
0.0
  9
$STEPSPERSEC
 40
2.0
  9
$STEPSIZE
 40
6.0
  9
$3DDWFPREC
 40
2.0
  9
$PSOLWIDTH
 40
0.25
  9
$PSOLHEIGHT
 40
4.0
  9
$LOFTANG1
 40
1.570796326794897
  9
$LOFTANG2
 40
1.570796326794897
  9
$LOFTMAG1
 40
0.0
  9
$LOFTMAG2
 40
0.0
  9
$LOFTPARAM
 70
     7
  9
$LOFTNORMALS
280
     1
  9
$LATITUDE
 40
37.795
  9
$LONGITUDE
 40
-122.394
  9
$NORTHDIRECTION
 40
0.0
  9
$TIMEZONE
 70
 -8000
  9
$LIGHTGLYPHDISPLAY
280
     1
  9
$TILEMODELIGHTSYNCH
280
     1
  9
$SOLIDHIST
280
     1
  9
$SHOWHIST
280
     1
  9
$DWFFRAME
280
     2
  9
$DGNFRAME
280
     2
  9
$REALWORLDSCALE
290
     1
  9
$INTERFERECOLOR
 62
   256
  9
$CSHADOW
280
     0
  9
$SHADOWPLANELOCATION
 40
0.0
  0
ENDSEC
  0
SECTION
  2
CLASSES
  0
CLASS
  1
ACDBDICTIONARYWDFLT
  2
AcDbDictionaryWithDefault
  3
ObjectDBX Classes
 90
        0
 91
        3
280
     0
281
     0
  0
CLASS
  1
VISUALSTYLE
  2
AcDbVisualStyle
  3
ObjectDBX Classes
 90
     4095
 91
        3
280
     0
281
     0
  0
CLASS
  1
SCALE
  2
AcDbScale
  3
ObjectDBX Classes
 90
     1153
 91
        3
280
     0
281
     0
  0
ENDSEC
  0
SECTION
  2
TABLES
  0
TABLE
  2
VPORT
  5
8
330
0
100
AcDbSymbolTable
 70
     1
  0
VPORT
  5
29
330
8
100
AcDbSymbolTableRecord
100
AcDbViewportTableRecord
  2
*Active
 70
     0
 10
0.0
 20
0.0
 11
1.0
 21
1.0
 12
10.42990654205607
 22
4.5
 13
0.0
 23
0.0
 14
0.5
 24
0.5
 15
0.5
 25
0.5
 16
0.0
 26
0.0
 36
1.0
 17
0.0
 27
0.0
 37
0.0
 40
9.0
 41
1.972972972850329
 42
50.0
 43
0.0
 44
0.0
 50
0.0
 51
0.0
 71
     0
 72
   100
 73
     1
 74
     3
 75
     0
 76
     0
 77
     0
 78
     0
281
     0
 65
     1
110
0.0
120
0.0
130
0.0
111
1.0
121
0.0
131
0.0
112
0.0
122
1.0
132
0.0
 79
     0
146
0.0
 60
     3
 61
     5
292
     1
282
     1
141
0.0
142
0.0
 63
   256
  0
ENDTAB
  0
TABLE
  2
LTYPE
  5
5
330
0
100
AcDbSymbolTable
 70
     1
  0
LTYPE
  5
14
330
5
100
AcDbSymbolTableRecord
100
AcDbLinetypeTableRecord
  2
ByBlock
 70
     0
  3

 72
    65
 73
     0
 40
0.0
  0
LTYPE
  5
15
330
5
100
AcDbSymbolTableRecord
100
AcDbLinetypeTableRecord
  2
ByLayer
 70
     0
  3

 72
    65
 73
     0
 40
0.0
  0
LTYPE
  5
16
330
5
100
AcDbSymbolTableRecord
100
AcDbLinetypeTableRecord
  2
Continuous
 70
     0
  3
Solid line
 72
    65
 73
     0
 40
0.0
  0
ENDTAB
  0
TABLE
  2
LAYER
  5
2
330
0
100
AcDbSymbolTable
 70
     2
  0
LAYER
  5
10
330
2
100
AcDbSymbolTableRecord
100
AcDbLayerTableRecord
  2
0
 70
     0
 62
     7
  6
Continuous
370
    -3
390
F
347
0
  0
LAYER
  5
5E
330
2
100
AcDbSymbolTableRecord
100
AcDbLayerTableRecord
  2
Layer 1
 70
     0
 62
     7
  6
Continuous
370
    -3
390
F
347
0
  0
ENDTAB
  0
TABLE
  2
STYLE
  5
3
330
0
100
AcDbSymbolTable
 70
     1
  0
STYLE
  5
11
330
3
100
AcDbSymbolTableRecord
100
AcDbTextStyleTableRecord
  2
Standard
 70
     0
 40
0.0
 41
1.0
 50
0.0
 71
     0
 42
0.2
  3
txt
  4

  0
ENDTAB
  0
TABLE
  2
VIEW
  5
6
330
0
100
AcDbSymbolTable
 70
     0
  0
ENDTAB
  0
TABLE
  2
UCS
  5
7
330
0
100
AcDbSymbolTable
 70
     0
  0
ENDTAB
  0
TABLE
  2
APPID
  5
9
330
0
100
AcDbSymbolTable
 70
     2
  0
APPID
  5
12
330
9
100
AcDbSymbolTableRecord
100
AcDbRegAppTableRecord
  2
ACAD
 70
     0
  0
APPID
  5
5D
330
9
100
AcDbSymbolTableRecord
100
AcDbRegAppTableRecord
  2
ODA
 70
     0
  0
ENDTAB
  0
TABLE
  2
DIMSTYLE
  5
A
330
0
100
AcDbSymbolTable
 70
     1
100
AcDbDimStyleTable
  0
DIMSTYLE
105
27
330
A
100
AcDbSymbolTableRecord
100
AcDbDimStyleTableRecord
  2
Standard
 70
     0
340
11
  0
ENDTAB
  0
TABLE
  2
BLOCK_RECORD
  5
1
330
0
100
AcDbSymbolTable
 70
     1
  0
BLOCK_RECORD
  5
1F
330
1
100
AcDbSymbolTableRecord
100
AcDbBlockTableRecord
  2
*Model_Space
340
22
 70
     0
280
     1
281
     0
  0
BLOCK_RECORD
  5
1B
330
1
100
AcDbSymbolTableRecord
100
AcDbBlockTableRecord
  2
*Paper_Space
340
1E
 70
     0
280
     1
281
     0
  0
BLOCK_RECORD
  5
23
330
1
100
AcDbSymbolTableRecord
100
AcDbBlockTableRecord
  2
*Paper_Space0
340
26
 70
     0
280
     1
281
     0
  0
ENDTAB
  0
ENDSEC
  0
SECTION
  2
BLOCKS
  0
BLOCK
  5
20
330
1F
100
AcDbEntity
  8
0
100
AcDbBlockBegin
  2
*Model_Space
 70
     0
 10
0.0
 20
0.0
 30
0.0
  3
*Model_Space
  1

  0
ENDBLK
  5
21
330
1F
100
AcDbEntity
  8
0
100
AcDbBlockEnd
  0
BLOCK
  5
1C
330
1B
100
AcDbEntity
 67
     1
  8
0
100
AcDbBlockBegin
  2
*Paper_Space
 70
     0
 10
0.0
 20
0.0
 30
0.0
  3
*Paper_Space
  1

  0
ENDBLK
  5
1D
330
1B
100
AcDbEntity
 67
     1
  8
0
100
AcDbBlockEnd
  0
BLOCK
  5
24
330
23
100
AcDbEntity
  8
0
100
AcDbBlockBegin
  2
*Paper_Space0
 70
     0
 10
0.0
 20
0.0
 30
0.0
  3
*Paper_Space0
  1

  0
ENDBLK
  5
25
330
23
100
AcDbEntity
  8
0
100
AcDbBlockEnd
  0
ENDSEC
  0
SECTION
  2
ENTITIES
  0
SPLINE
  5
5F
330
1F
100
AcDbEntity
  8
Layer 1
 62
   250
370
     9
100
AcDbSpline
210
0.0
220
0.0
230
1.0
 70
    11
 71
     3
 72
    20
 73
    16
 74
     0
 42
0.0000000001
 43
0.0000000001
 40
0.0
 40
0.0
 40
0.0
 40
0.0
 40
0.25
 40
0.25
 40
0.25
 40
0.25
 40
0.5
 40
0.5
 40
0.5
 40
0.5
 40
0.75
 40
0.75
 40
0.75
 40
0.75
 40
1.0
 40
1.0
 40
1.0
 40
1.0
 10
-10.825
 20
-15.025
 30
0.0
 10
-10.825
 20
-15.025
 30
0.0
 10
-10.825
 20
-14.675
 30
0.0
 10
-10.825
 20
-14.675
 30
0.0
 10
-10.825
 20
-14.675
 30
0.0
 10
-10.825
 20
-14.675
 30
0.0
 10
-10.175
 20
-14.675
 30
0.0
 10
-10.175
 20
-14.675
 30
0.0
 10
-10.175
 20
-14.675
 30
0.0
 10
-10.175
 20
-14.675
 30
0.0
 10
-10.175
 20
-15.025
 30
0.0
 10
-10.175
 20
-15.025
 30
0.0
 10
-10.175
 20
-15.025
 30
0.0
 10
-10.175
 20
-15.025
 30
0.0
 10
-10.825
 20
-15.025
 30
0.0
 10
-10.825
 20
-15.025
 30
0.0
  0
SPLINE
  5
60
330
1F
100
AcDbEntity
  8
Layer 1
 62
   250
100
AcDbSpline
210
0.0
220
0.0
230
1.0
 70
    11
 71
     3
 72
    36
 73
    32
 74
     0
 42
0.0000000001
 43
0.0000000001
 40
0.0
 40
0.0
 40
0.0
 40
0.0
 40
0.125
 40
0.125
 40
0.125
 40
0.125
 40
0.25
 40
0.25
 40
0.25
 40
0.25
 40
0.375
 40
0.375
 40
0.375
 40
0.375
 40
0.5
 40
0.5
 40
0.5
 40
0.5
 40
0.625
 40
0.625
 40
0.625
 40
0.625
 40
0.75
 40
0.75
 40
0.75
 40
0.75
 40
0.875
 40
0.875
 40
0.875
 40
0.875
 40
1.0
 40
1.0
 40
1.0
 40
1.0
 10
-10.68064
 20
-14.77952
 30
0.0
 10
-10.68531
 20
-14.77952
 30
0.0
 10
-10.68883
 20
-14.78133
 30
0.0
 10
-10.69123
 20
-14.78495
 30
0.0
 10
-10.69123
 20
-14.78495
 30
0.0
 10
-10.69363
 20
-14.78858
 30
0.0
 10
-10.69482
 20
-14.79396
 30
0.0
 10
-10.69482
 20
-14.80106
 30
0.0
 10
-10.69482
 20
-14.80106
 30
0.0
 10
-10.69482
 20
-14.80814
 30
0.0
 10
-10.69363
 20
-14.8135
 30
0.0
 10
-10.69123
 20
-14.81714
 30
0.0
 10
-10.69123
 20
-14.81714
 30
0.0
 10
-10.68883
 20
-14.82079
 30
0.0
 10
-10.68531
 20
-14.82261
 30
0.0
 10
-10.68064
 20
-14.82261
 30
0.0
 10
-10.68064
 20
-14.82261
 30
0.0
 10
-10.67596
 20
-14.82261
 30
0.0
 10
-10.67242
 20
-14.82079
 30
0.0
 10
-10.67002
 20
-14.81714
 30
0.0
 10
-10.67002
 20
-14.81714
 30
0.0
 10
-10.66762
 20
-14.8135
 30
0.0
 10
-10.66643
 20
-14.80814
 30
0.0
 10
-10.66643
 20
-14.80106
 30
0.0
 10
-10.66643
 20
-14.80106
 30
0.0
 10
-10.66643
 20
-14.79396
 30
0.0
 10
-10.66762
 20
-14.78858
 30
0.0
 10
-10.67002
 20
-14.78495
 30
0.0
 10
-10.67002
 20
-14.78495
 30
0.0
 10
-10.67242
 20
-14.78133
 30
0.0
 10
-10.67596
 20
-14.77952
 30
0.0
 10
-10.68064
 20
-14.77952
 30
0.0
  0
SPLINE
  5
61
330
1F
100
AcDbEntity
  8
Layer 1
 62
   250
100
AcDbSpline
210
0.0
220
0.0
230
1.0
 70
    11
 71
     3
 72
    36
 73
    32
 74
     0
 42
0.0000000001
 43
0.0000000001
 40
0.0
 40
0.0
 40
0.0
 40
0.0
 40
0.125
 40
0.125
 40
0.125
 40
0.125
 40
0.25
 40
0.25
 40
0.25
 40
0.25
 40
0.375
 40
0.375
 40
0.375
 40
0.375
 40
0.5
 40
0.5
 40
0.5
 40
0.5
 40
0.625
 40
0.625
 40
0.625
 40
0.625
 40
0.75
 40
0.75
 40
0.75
 40
0.75
 40
0.875
 40
0.875
 40
0.875
 40
0.875
 40
1.0
 40
1.0
 40
1.0
 40
1.0
 10
-10.68064
 20
-14.77174
 30
0.0
 10
-10.6729
 20
-14.77174
 30
0.0
 10
-10.66697
 20
-14.77424
 30
0.0
 10
-10.66287
 20
-14.77927
 30
0.0
 10
-10.66287
 20
-14.77927
 30
0.0
 10
-10.65877
 20
-14.78429
 30
0.0
 10
-10.65671
 20
-14.79156
 30
0.0
 10
-10.65671
 20
-14.80106
 30
0.0
 10
-10.65671
 20
-14.80106
 30
0.0
 10
-10.65671
 20
-14.81061
 30
0.0
 10
-10.65875
 20
-14.81787
 30
0.0
 10
-10.66284
 20
-14.82288
 30
0.0
 10
-10.66284
 20
-14.82288
 30
0.0
 10
-10.66694
 20
-14.82788
 30
0.0
 10
-10.67286
 20
-14.83039
 30
0.0
 10
-10.68064
 20
-14.83039
 30
0.0
 10
-10.68064
 20
-14.83039
 30
0.0
 10
-10.68841
 20
-14.83039
 30
0.0
 10
-10.69431
 20
-14.82788
 30
0.0
 10
-10.69842
 20
-14.82288
 30
0.0
 10
-10.69842
 20
-14.82288
 30
0.0
 10
-10.7025
 20
-14.81787
 30
0.0
 10
-10.70454
 20
-14.81061
 30
0.0
 10
-10.70454
 20
-14.80106
 30
0.0
 10
-10.70454
 20
-14.80106
 30
0.0
 10
-10.70454
 20
-14.79156
 30
0.0
 10
-10.7025
 20
-14.78429
 30
0.0
 10
-10.69842
 20
-14.77927
 30
0.0
 10
-10.69842
 20
-14.77927
 30
0.0
 10
-10.69431
 20
-14.77424
 30
0.0
 10
-10.68841
 20
-14.77174
 30
0.0
 10
-10.68064
 20
-14.77174
 30
0.0
  0
SPLINE
  5
62
330
1F
100
AcDbEntity
  8
Layer 1
 62
   250
100
AcDbSpline
210
0.0
220
0.0
230
1.0
 70
    11
 71
     3
 72
    36
 73
    32
 74
     0
 42
0.0000000001
 43
0.0000000001
 40
0.0
 40
0.0
 40
0.0
 40
0.0
 40
0.125
 40
0.125
 40
0.125
 40
0.125
 40
0.25
 40
0.25
 40
0.25
 40
0.25
 40
0.375
 40
0.375
 40
0.375
 40
0.375
 40
0.5
 40
0.5
 40
0.5
 40
0.5
 40
0.625
 40
0.625
 40
0.625
 40
0.625
 40
0.75
 40
0.75
 40
0.75
 40
0.75
 40
0.875
 40
0.875
 40
0.875
 40
0.875
 40
1.0
 40
1.0
 40
1.0
 40
1.0
 10
-10.61915
 20
-14.77952
 30
0.0
 10
-10.62382
 20
-14.77952
 30
0.0
 10
-10.62734
 20
-14.78133
 30
0.0
 10
-10.62974
 20
-14.78495
 30
0.0
 10
-10.62974
 20
-14.78495
 30
0.0
 10
-10.63214
 20
-14.78858
 30
0.0
 10
-10.63333
 20
-14.79396
 30
0.0
 10
-10.63333
 20
-14.80106
 30
0.0
 10
-10.63333
 20
-14.80106
 30
0.0
 10
-10.63333
 20
-14.80814
 30
0.0
 10
-10.63214
 20
-14.8135
 30
0.0
 10
-10.62974
 20
-14.81714
 30
0.0
 10
-10.62974
 20
-14.81714
 30
0.0
 10
-10.62734
 20
-14.82079
 30
0.0
 10
-10.62382
 20
-14.82261
 30
0.0
 10
-10.61915
 20
-14.82261
 30
0.0
 10
-10.61915
 20
-14.82261
 30
0.0
 10
-10.61447
 20
-14.82261
 30
0.0
 10
-10.61093
 20
-14.82079
 30
0.0
 10
-10.60853
 20
-14.81714
 30
0.0
 10
-10.60853
 20
-14.81714
 30
0.0
 10
-10.60613
 20
-14.8135
 30
0.0
 10
-10.60494
 20
-14.80814
 30
0.0
 10
-10.60494
 20
-14.80106
 30
0.0
 10
-10.60494
 20
-14.80106
 30
0.0
 10
-10.60494
 20
-14.79396
 30
0.0
 10
-10.60613
 20
-14.78858
 30
0.0
 10
-10.60853
 20
-14.78495
 30
0.0
 10
-10.60853
 20
-14.78495
 30
0.0
 10
-10.61093
 20
-14.78133
 30
0.0
 10
-10.61447
 20
-14.77952
 30
0.0
 10
-10.61915
 20
-14.77952
 30
0.0
  0
SPLINE
  5
63
330
1F
100
AcDbEntity
  8
Layer 1
 62
   250
100
AcDbSpline
210
0.0
220
0.0
230
1.0
 70
    11
 71
     3
 72
    36
 73
    32
 74
     0
 42
0.0000000001
 43
0.0000000001
 40
0.0
 40
0.0
 40
0.0
 40
0.0
 40
0.125
 40
0.125
 40
0.125
 40
0.125
 40
0.25
 40
0.25
 40
0.25
 40
0.25
 40
0.375
 40
0.375
 40
0.375
 40
0.375
 40
0.5
 40
0.5
 40
0.5
 40
0.5
 40
0.625
 40
0.625
 40
0.625
 40
0.625
 40
0.75
 40
0.75
 40
0.75
 40
0.75
 40
0.875
 40
0.875
 40
0.875
 40
0.875
 40
1.0
 40
1.0
 40
1.0
 40
1.0
 10
-10.61915
 20
-14.77174
 30
0.0
 10
-10.61141
 20
-14.77174
 30
0.0
 10
-10.60548
 20
-14.77424
 30
0.0
 10
-10.60138
 20
-14.77927
 30
0.0
 10
-10.60138
 20
-14.77927
 30
0.0
 10
-10.59728
 20
-14.78429
 30
0.0
 10
-10.59522
 20
-14.79156
 30
0.0
 10
-10.59522
 20
-14.80106
 30
0.0
 10
-10.59522
 20
-14.80106
 30
0.0
 10
-10.59522
 20
-14.81061
 30
0.0
 10
-10.59726
 20
-14.81787
 30
0.0
 10
-10.60135
 20
-14.82288
 30
0.0
 10
-10.60135
 20
-14.82288
 30
0.0
 10
-10.60545
 20
-14.82788
 30
0.0
 10
-10.61137
 20
-14.83039
 30
0.0
 10
-10.61915
 20
-14.83039
 30
0.0
 10
-10.61915
 20
-14.83039
 30
0.0
 10
-10.62692
 20
-14.83039
 30
0.0
 10
-10.63282
 20
-14.82788
 30
0.0
 10
-10.63693
 20
-14.82288
 30
0.0
 10
-10.63693
 20
-14.82288
 30
0.0
 10
-10.64101
 20
-14.81787
 30
0.0
 10
-10.64305
 20
-14.81061
 30
0.0
 10
-10.64305
 20
-14.80106
 30
0.0
 10
-10.64305
 20
-14.80106
 30
0.0
 10
-10.64305
 20
-14.79156
 30
0.0
 10
-10.64101
 20
-14.78429
 30
0.0
 10
-10.63693
 20
-14.77927
 30
0.0
 10
-10.63693
 20
-14.77927
 30
0.0
 10
-10.63282
 20
-14.77424
 30
0.0
 10
-10.62692
 20
-14.77174
 30
0.0
 10
-10.61915
 20
-14.77174
 30
0.0
  0
SPLINE
  5
64
330
1F
100
AcDbEntity
  8
Layer 1
 62
   250
100
AcDbSpline
210
0.0
220
0.0
230
1.0
 70
    11
 71
     3
 72
   112
 73
   108
 74
     0
 42
0.0000000001
 43
0.0000000001
 40
0.0
 40
0.0
 40
0.0
 40
0.0
 40
0.037037037037037
 40
0.037037037037037
 40
0.037037037037037
 40
0.037037037037037
 40
0.0740740740740741
 40
0.0740740740740741
 40
0.0740740740740741
 40
0.0740740740740741
 40
0.1111111111111111
 40
0.1111111111111111
 40
0.1111111111111111
 40
0.1111111111111111
 40
0.1481481481481481
 40
0.1481481481481481
 40
0.1481481481481481
 40
0.1481481481481481
 40
0.1851851851851852
 40
0.1851851851851852
 40
0.1851851851851852
 40
0.1851851851851852
 40
0.2222222222222222
 40
0.2222222222222222
 40
0.2222222222222222
 40
0.2222222222222222
 40
0.2592592592592592
 40
0.2592592592592592
 40
0.2592592592592592
 40
0.2592592592592592
 40
0.2962962962962963
 40
0.2962962962962963
 40
0.2962962962962963
 40
0.2962962962962963
 40
0.3333333333333333
 40
0.3333333333333333
 40
0.3333333333333333
 40
0.3333333333333333
 40
0.3703703703703703
 40
0.3703703703703703
 40
0.3703703703703703
 40
0.3703703703703703
 40
0.4074074074074074
 40
0.4074074074074074
 40
0.4074074074074074
 40
0.4074074074074074
 40
0.4444444444444444
 40
0.4444444444444444
 40
0.4444444444444444
 40
0.4444444444444444
 40
0.4814814814814815
 40
0.4814814814814815
 40
0.4814814814814815
 40
0.4814814814814815
 40
0.5185185185185185
 40
0.5185185185185185
 40
0.5185185185185185
 40
0.5185185185185185
 40
0.5555555555555556
 40
0.5555555555555556
 40
0.5555555555555556
 40
0.5555555555555556
 40
0.5925925925925926
 40
0.5925925925925926
 40
0.5925925925925926
 40
0.5925925925925926
 40
0.6296296296296295
 40
0.6296296296296295
 40
0.6296296296296295
 40
0.6296296296296295
 40
0.6666666666666665
 40
0.6666666666666665
 40
0.6666666666666665
 40
0.6666666666666665
 40
0.7037037037037035
 40
0.7037037037037035
 40
0.7037037037037035
 40
0.7037037037037035
 40
0.7407407407407405
 40
0.7407407407407405
 40
0.7407407407407405
 40
0.7407407407407405
 40
0.7777777777777775
 40
0.7777777777777775
 40
0.7777777777777775
 40
0.7777777777777775
 40
0.8148148148148144
 40
0.8148148148148144
 40
0.8148148148148144
 40
0.8148148148148144
 40
0.8518518518518514
 40
0.8518518518518514
 40
0.8518518518518514
 40
0.8518518518518514
 40
0.8888888888888884
 40
0.8888888888888884
 40
0.8888888888888884
 40
0.8888888888888884
 40
0.9259259259259254
 40
0.9259259259259254
 40
0.9259259259259254
 40
0.9259259259259254
 40
0.9629629629629624
 40
0.9629629629629624
 40
0.9629629629629624
 40
0.9629629629629624
 40
1.0
 40
1.0
 40
1.0
 40
1.0
 10
-10.55468
 20
-14.77877
 30
0.0
 10
-10.55356
 20
-14.77637
 30
0.0
 10
-10.55211
 20
-14.7746
 30
0.0
 10
-10.55036
 20
-14.77346
 30
0.0
 10
-10.55036
 20
-14.77346
 30
0.0
 10
-10.54862
 20
-14.77232
 30
0.0
 10
-10.54651
 20
-14.77174
 30
0.0
 10
-10.54406
 20
-14.77174
 30
0.0
 10
-10.54406
 20
-14.77174
 30
0.0
 10
-10.53957
 20
-14.77174
 30
0.0
 10
-10.5364
 20
-14.77348
 30
0.0
 10
-10.53456
 20
-14.77695
 30
0.0
 10
-10.53456
 20
-14.77695
 30
0.0
 10
-10.53271
 20
-14.78042
 30
0.0
 10
-10.53179
 20
-14.78696
 30
0.0
 10
-10.53179
 20
-14.79658
 30
0.0
 10
-10.53179
 20
-14.79658
 30
0.0
 10
-10.53179
 20
-14.79658
 30
0.0
 10
-10.53179
 20
-14.82894
 30
0.0
 10
-10.53179
 20
-14.82894
 30
0.0
 10
-10.53179
 20
-14.82894
 30
0.0
 10
-10.53179
 20
-14.82894
 30
0.0
 10
-10.54016
 20
-14.82894
 30
0.0
 10
-10.54016
 20
-14.82894
 30
0.0
 10
-10.54016
 20
-14.82894
 30
0.0
 10
-10.54016
 20
-14.82894
 30
0.0
 10
-10.54016
 20
-14.79697
 30
0.0
 10
-10.54016
 20
-14.79697
 30
0.0
 10
-10.54016
 20
-14.79697
 30
0.0
 10
-10.54016
 20
-14.78909
 30
0.0
 10
-10.54061
 20
-14.7842
 30
0.0
 10
-10.54149
 20
-14.78228
 30
0.0
 10
-10.54149
 20
-14.78228
 30
0.0
 10
-10.54236
 20
-14.78037
 30
0.0
 10
-10.54398
 20
-14.77942
 30
0.0
 10
-10.54631
 20
-14.77942
 30
0.0
 10
-10.54631
 20
-14.77942
 30
0.0
 10
-10.54896
 20
-14.77942
 30
0.0
 10
-10.55079
 20
-14.78044
 30
0.0
 10
-10.55177
 20
-14.78248
 30
0.0
 10
-10.55177
 20
-14.78248
 30
0.0
 10
-10.55274
 20
-14.78453
 30
0.0
 10
-10.55324
 20
-14.78936
 30
0.0
 10
-10.55324
 20
-14.79697
 30
0.0
 10
-10.55324
 20
-14.79697
 30
0.0
 10
-10.55324
 20
-14.79697
 30
0.0
 10
-10.55324
 20
-14.82894
 30
0.0
 10
-10.55324
 20
-14.82894
 30
0.0
 10
-10.55324
 20
-14.82894
 30
0.0
 10
-10.55324
 20
-14.82894
 30
0.0
 10
-10.56161
 20
-14.82894
 30
0.0
 10
-10.56161
 20
-14.82894
 30
0.0
 10
-10.56161
 20
-14.82894
 30
0.0
 10
-10.56161
 20
-14.82894
 30
0.0
 10
-10.56161
 20
-14.79697
 30
0.0
 10
-10.56161
 20
-14.79697
 30
0.0
 10
-10.56161
 20
-14.79697
 30
0.0
 10
-10.56161
 20
-14.78899
 30
0.0
 10
-10.56209
 20
-14.78407
 30
0.0
 10
-10.56304
 20
-14.78221
 30
0.0
 10
-10.56304
 20
-14.78221
 30
0.0
 10
-10.56398
 20
-14.78036
 30
0.0
 10
-10.56568
 20
-14.77942
 30
0.0
 10
-10.56815
 20
-14.77942
 30
0.0
 10
-10.56815
 20
-14.77942
 30
0.0
 10
-10.57058
 20
-14.77942
 30
0.0
 10
-10.57227
 20
-14.78044
 30
0.0
 10
-10.57321
 20
-14.78248
 30
0.0
 10
-10.57321
 20
-14.78248
 30
0.0
 10
-10.57416
 20
-14.78453
 30
0.0
 10
-10.57464
 20
-14.78936
 30
0.0
 10
-10.57464
 20
-14.79697
 30
0.0
 10
-10.57464
 20
-14.79697
 30
0.0
 10
-10.57464
 20
-14.79697
 30
0.0
 10
-10.57464
 20
-14.82894
 30
0.0
 10
-10.57464
 20
-14.82894
 30
0.0
 10
-10.57464
 20
-14.82894
 30
0.0
 10
-10.57464
 20
-14.82894
 30
0.0
 10
-10.58296
 20
-14.82894
 30
0.0
 10
-10.58296
 20
-14.82894
 30
0.0
 10
-10.58296
 20
-14.82894
 30
0.0
 10
-10.58296
 20
-14.82894
 30
0.0
 10
-10.58296
 20
-14.77309
 30
0.0
 10
-10.58296
 20
-14.77309
 30
0.0
 10
-10.58296
 20
-14.77309
 30
0.0
 10
-10.58296
 20
-14.77309
 30
0.0
 10
-10.57464
 20
-14.77309
 30
0.0
 10
-10.57464
 20
-14.77309
 30
0.0
 10
-10.57464
 20
-14.77309
 30
0.0
 10
-10.57464
 20
-14.77309
 30
0.0
 10
-10.57464
 20
-14.77787
 30
0.0
 10
-10.57464
 20
-14.77787
 30
0.0
 10
-10.57464
 20
-14.77787
 30
0.0
 10
-10.57355
 20
-14.77588
 30
0.0
 10
-10.57217
 20
-14.77436
 30
0.0
 10
-10.57052
 20
-14.77331
 30
0.0
 10
-10.57052
 20
-14.77331
 30
0.0
 10
-10.56888
 20
-14.77227
 30
0.0
 10
-10.56701
 20
-14.77174
 30
0.0
 10
-10.56491
 20
-14.77174
 30
0.0
 10
-10.56491
 20
-14.77174
 30
0.0
 10
-10.56238
 20
-14.77174
 30
0.0
 10
-10.56028
 20
-14.77232
 30
0.0
 10
-10.5586
 20
-14.77348
 30
0.0
 10
-10.5586
 20
-14.77348
 30
0.0
 10
-10.55691
 20
-14.77465
 30
0.0
 10
-10.55562
 20
-14.77641
 30
0.0
 10
-10.55468
 20
-14.77877
 30
0.0
  0
SPLINE
  5
65
330
1F
100
AcDbEntity
  8
Layer 1
 62
   250
100
AcDbSpline
210
0.0
220
0.0
230
1.0
 70
    11
 71
     3
 72
    20
 73
    16
 74
     0
 42
0.0000000001
 43
0.0000000001
 40
0.0
 40
0.0
 40
0.0
 40
0.0
 40
0.25
 40
0.25
 40
0.25
 40
0.25
 40
0.5
 40
0.5
 40
0.5
 40
0.5
 40
0.75
 40
0.75
 40
0.75
 40
0.75
 40
1.0
 40
1.0
 40
1.0
 40
1.0
 10
-10.50251
 20
-14.81372
 30
0.0
 10
-10.50251
 20
-14.81372
 30
0.0
 10
-10.48994
 20
-14.81372
 30
0.0
 10
-10.48994
 20
-14.81372
 30
0.0
 10
-10.48994
 20
-14.81372
 30
0.0
 10
-10.48994
 20
-14.81372
 30
0.0
 10
-10.48994
 20
-14.82894
 30
0.0
 10
-10.48994
 20
-14.82894
 30
0.0
 10
-10.48994
 20
-14.82894
 30
0.0
 10
-10.48994
 20
-14.82894
 30
0.0
 10
-10.50251
 20
-14.82894
 30
0.0
 10
-10.50251
 20
-14.82894
 30
0.0
 10
-10.50251
 20
-14.82894
 30
0.0
 10
-10.50251
 20
-14.82894
 30
0.0
 10
-10.50251
 20
-14.81372
 30
0.0
 10
-10.50251
 20
-14.81372
 30
0.0
  0
SPLINE
  5
66
330
1F
100
AcDbEntity
  8
Layer 1
 62
   250
100
AcDbSpline
210
0.0
220
0.0
230
1.0
 70
    11
 71
     3
 72
    52
 73
    48
 74
     0
 42
0.0000000001
 43
0.0000000001
 40
0.0
 40
0.0
 40
0.0
 40
0.0
 40
0.0833333333333333
 40
0.0833333333333333
 40
0.0833333333333333
 40
0.0833333333333333
 40
0.1666666666666667
 40
0.1666666666666667
 40
0.1666666666666667
 40
0.1666666666666667
 40
0.25
 40
0.25
 40
0.25
 40
0.25
 40
0.3333333333333333
 40
0.3333333333333333
 40
0.3333333333333333
 40
0.3333333333333333
 40
0.4166666666666666
 40
0.4166666666666666
 40
0.4166666666666666
 40
0.4166666666666666
 40
0.4999999999999999
 40
0.4999999999999999
 40
0.4999999999999999
 40
0.4999999999999999
 40
0.5833333333333333
 40
0.5833333333333333
 40
0.5833333333333333
 40
0.5833333333333333
 40
0.6666666666666666
 40
0.6666666666666666
 40
0.6666666666666666
 40
0.6666666666666666
 40
0.75
 40
0.75
 40
0.75
 40
0.75
 40
0.8333333333333334
 40
0.8333333333333334
 40
0.8333333333333334
 40
0.8333333333333334
 40
0.9166666666666667
 40
0.9166666666666667
 40
0.9166666666666667
 40
0.9166666666666667
 40
1.0
 40
1.0
 40
1.0
 40
1.0
 10
-10.43354
 20
-14.8087
 30
0.0
 10
-10.43354
 20
-14.81282
 30
0.0
 10
-10.43279
 20
-14.81592
 30
0.0
 10
-10.43128
 20
-14.81801
 30
0.0
 10
-10.43128
 20
-14.81801
 30
0.0
 10
-10.42976
 20
-14.8201
 30
0.0
 10
-10.42753
 20
-14.82116
 30
0.0
 10
-10.42457
 20
-14.82116
 30
0.0
 10
-10.42457
 20
-14.82116
 30
0.0
 10
-10.42457
 20
-14.82116
 30
0.0
 10
-10.41385
 20
-14.82116
 30
0.0
 10
-10.41385
 20
-14.82116
 30
0.0
 10
-10.41385
 20
-14.82116
 30
0.0
 10
-10.41385
 20
-14.82116
 30
0.0
 10
-10.41385
 20
-14.82894
 30
0.0
 10
-10.41385
 20
-14.82894
 30
0.0
 10
-10.41385
 20
-14.82894
 30
0.0
 10
-10.41385
 20
-14.82894
 30
0.0
 10
-10.42546
 20
-14.82894
 30
0.0
 10
-10.42546
 20
-14.82894
 30
0.0
 10
-10.42546
 20
-14.82894
 30
0.0
 10
-10.43095
 20
-14.82894
 30
0.0
 10
-10.43519
 20
-14.82717
 30
0.0
 10
-10.43821
 20
-14.82365
 30
0.0
 10
-10.43821
 20
-14.82365
 30
0.0
 10
-10.44122
 20
-14.82012
 30
0.0
 10
-10.44272
 20
-14.81513
 30
0.0
 10
-10.44272
 20
-14.8087
 30
0.0
 10
-10.44272
 20
-14.8087
 30
0.0
 10
-10.44272
 20
-14.8087
 30
0.0
 10
-10.44272
 20
-14.75797
 30
0.0
 10
-10.44272
 20
-14.75797
 30
0.0
 10
-10.44272
 20
-14.75797
 30
0.0
 10
-10.44272
 20
-14.75797
 30
0.0
 10
-10.45743
 20
-14.75797
 30
0.0
 10
-10.45743
 20
-14.75797
 30
0.0
 10
-10.45743
 20
-14.75797
 30
0.0
 10
-10.45743
 20
-14.75797
 30
0.0
 10
-10.45743
 20
-14.75079
 30
0.0
 10
-10.45743
 20
-14.75079
 30
0.0
 10
-10.45743
 20
-14.75079
 30
0.0
 10
-10.45743
 20
-14.75079
 30
0.0
 10
-10.43354
 20
-14.75079
 30
0.0
 10
-10.43354
 20
-14.75079
 30
0.0
 10
-10.43354
 20
-14.75079
 30
0.0
 10
-10.43354
 20
-14.75079
 30
0.0
 10
-10.43354
 20
-14.8087
 30
0.0
 10
-10.43354
 20
-14.8087
 30
0.0
  0
SPLINE
  5
67
330
1F
100
AcDbEntity
  8
Layer 1
 62
   250
100
AcDbSpline
210
0.0
220
0.0
230
1.0
 70
    11
 71
     3
 72
    76
 73
    72
 74
     0
 42
0.0000000001
 43
0.0000000001
 40
0.0
 40
0.0
 40
0.0
 40
0.0
 40
0.0555555555555556
 40
0.0555555555555556
 40
0.0555555555555556
 40
0.0555555555555556
 40
0.1111111111111111
 40
0.1111111111111111
 40
0.1111111111111111
 40
0.1111111111111111
 40
0.1666666666666667
 40
0.1666666666666667
 40
0.1666666666666667
 40
0.1666666666666667
 40
0.2222222222222222
 40
0.2222222222222222
 40
0.2222222222222222
 40
0.2222222222222222
 40
0.2777777777777778
 40
0.2777777777777778
 40
0.2777777777777778
 40
0.2777777777777778
 40
0.3333333333333334
 40
0.3333333333333334
 40
0.3333333333333334
 40
0.3333333333333334
 40
0.388888888888889
 40
0.388888888888889
 40
0.388888888888889
 40
0.388888888888889
 40
0.4444444444444445
 40
0.4444444444444445
 40
0.4444444444444445
 40
0.4444444444444445
 40
0.5000000000000001
 40
0.5000000000000001
 40
0.5000000000000001
 40
0.5000000000000001
 40
0.5555555555555557
 40
0.5555555555555557
 40
0.5555555555555557
 40
0.5555555555555557
 40
0.6111111111111113
 40
0.6111111111111113
 40
0.6111111111111113
 40
0.6111111111111113
 40
0.6666666666666669
 40
0.6666666666666669
 40
0.6666666666666669
 40
0.6666666666666669
 40
0.7222222222222224
 40
0.7222222222222224
 40
0.7222222222222224
 40
0.7222222222222224
 40
0.777777777777778
 40
0.777777777777778
 40
0.777777777777778
 40
0.777777777777778
 40
0.8333333333333336
 40
0.8333333333333336
 40
0.8333333333333336
 40
0.8333333333333336
 40
0.8888888888888892
 40
0.8888888888888892
 40
0.8888888888888892
 40
0.8888888888888892
 40
0.9444444444444448
 40
0.9444444444444448
 40
0.9444444444444448
 40
0.9444444444444448
 40
1.0
 40
1.0
 40
1.0
 40
1.0
 10
-10.3733
 20
-14.75722
 30
0.0
 10
-10.3733
 20
-14.75722
 30
0.0
 10
-10.3733
 20
-14.77309
 30
0.0
 10
-10.3733
 20
-14.77309
 30
0.0
 10
-10.3733
 20
-14.77309
 30
0.0
 10
-10.3733
 20
-14.77309
 30
0.0
 10
-10.35244
 20
-14.77309
 30
0.0
 10
-10.35244
 20
-14.77309
 30
0.0
 10
-10.35244
 20
-14.77309
 30
0.0
 10
-10.35244
 20
-14.77309
 30
0.0
 10
-10.35244
 20
-14.78022
 30
0.0
 10
-10.35244
 20
-14.78022
 30
0.0
 10
-10.35244
 20
-14.78022
 30
0.0
 10
-10.35244
 20
-14.78022
 30
0.0
 10
-10.3733
 20
-14.78022
 30
0.0
 10
-10.3733
 20
-14.78022
 30
0.0
 10
-10.3733
 20
-14.78022
 30
0.0
 10
-10.3733
 20
-14.78022
 30
0.0
 10
-10.3733
 20
-14.81054
 30
0.0
 10
-10.3733
 20
-14.81054
 30
0.0
 10
-10.3733
 20
-14.81054
 30
0.0
 10
-10.3733
 20
-14.81466
 30
0.0
 10
-10.37251
 20
-14.81753
 30
0.0
 10
-10.37095
 20
-14.81915
 30
0.0
 10
-10.37095
 20
-14.81915
 30
0.0
 10
-10.36938
 20
-14.82079
 30
0.0
 10
-10.36666
 20
-14.8216
 30
0.0
 10
-10.36277
 20
-14.8216
 30
0.0
 10
-10.36277
 20
-14.8216
 30
0.0
 10
-10.36277
 20
-14.8216
 30
0.0
 10
-10.35244
 20
-14.8216
 30
0.0
 10
-10.35244
 20
-14.8216
 30
0.0
 10
-10.35244
 20
-14.8216
 30
0.0
 10
-10.35244
 20
-14.8216
 30
0.0
 10
-10.35244
 20
-14.82894
 30
0.0
 10
-10.35244
 20
-14.82894
 30
0.0
 10
-10.35244
 20
-14.82894
 30
0.0
 10
-10.35244
 20
-14.82894
 30
0.0
 10
-10.36366
 20
-14.82894
 30
0.0
 10
-10.36366
 20
-14.82894
 30
0.0
 10
-10.36366
 20
-14.82894
 30
0.0
 10
-10.37055
 20
-14.82894
 30
0.0
 10
-10.37541
 20
-14.82756
 30
0.0
 10
-10.37823
 20
-14.8248
 30
0.0
 10
-10.37823
 20
-14.8248
 30
0.0
 10
-10.38106
 20
-14.82205
 30
0.0
 10
-10.38247
 20
-14.81728
 30
0.0
 10
-10.38247
 20
-14.81054
 30
0.0
 10
-10.38247
 20
-14.81054
 30
0.0
 10
-10.38247
 20
-14.81054
 30
0.0
 10
-10.38247
 20
-14.78022
 30
0.0
 10
-10.38247
 20
-14.78022
 30
0.0
 10
-10.38247
 20
-14.78022
 30
0.0
 10
-10.38247
 20
-14.78022
 30
0.0
 10
-10.39738
 20
-14.78022
 30
0.0
 10
-10.39738
 20
-14.78022
 30
0.0
 10
-10.39738
 20
-14.78022
 30
0.0
 10
-10.39738
 20
-14.78022
 30
0.0
 10
-10.39738
 20
-14.77309
 30
0.0
 10
-10.39738
 20
-14.77309
 30
0.0
 10
-10.39738
 20
-14.77309
 30
0.0
 10
-10.39738
 20
-14.77309
 30
0.0
 10
-10.38247
 20
-14.77309
 30
0.0
 10
-10.38247
 20
-14.77309
 30
0.0
 10
-10.38247
 20
-14.77309
 30
0.0
 10
-10.38247
 20
-14.77309
 30
0.0
 10
-10.38247
 20
-14.75722
 30
0.0
 10
-10.38247
 20
-14.75722
 30
0.0
 10
-10.38247
 20
-14.75722
 30
0.0
 10
-10.38247
 20
-14.75722
 30
0.0
 10
-10.3733
 20
-14.75722
 30
0.0
 10
-10.3733
 20
-14.75722
 30
0.0
  0
SPLINE
  5
68
330
1F
100
AcDbEntity
  8
Layer 1
 62
   250
100
AcDbSpline
210
0.0
220
0.0
230
1.0
 70
    11
 71
     3
 72
    20
 73
    16
 74
     0
 42
0.0000000001
 43
0.0000000001
 40
0.0
 40
0.0
 40
0.0
 40
0.0
 40
0.25
 40
0.25
 40
0.25
 40
0.25
 40
0.5
 40
0.5
 40
0.5
 40
0.5
 40
0.75
 40
0.75
 40
0.75
 40
0.75
 40
1.0
 40
1.0
 40
1.0
 40
1.0
 10
-10.29808
 20
-14.75448
 30
0.0
 10
-10.29808
 20
-14.75448
 30
0.0
 10
-10.2886
 20
-14.75448
 30
0.0
 10
-10.2886
 20
-14.75448
 30
0.0
 10
-10.2886
 20
-14.75448
 30
0.0
 10
-10.2886
 20
-14.75448
 30
0.0
 10
-10.32781
 20
-14.83842
 30
0.0
 10
-10.32781
 20
-14.83842
 30
0.0
 10
-10.32781
 20
-14.83842
 30
0.0
 10
-10.32781
 20
-14.83842
 30
0.0
 10
-10.33734
 20
-14.83842
 30
0.0
 10
-10.33734
 20
-14.83842
 30
0.0
 10
-10.33734
 20
-14.83842
 30
0.0
 10
-10.33734
 20
-14.83842
 30
0.0
 10
-10.29808
 20
-14.75448
 30
0.0
 10
-10.29808
 20
-14.75448
 30
0.0
  0
SPLINE
  5
69
330
1F
100
AcDbEntity
  8
Layer 1
 62
   250
100
AcDbSpline
210
0.0
220
0.0
230
1.0
 70
    11
 71
     3
 72
    32
 73
    28
 74
     0
 42
0.0000000001
 43
0.0000000001
 40
0.0
 40
0.0
 40
0.0
 40
0.0
 40
0.1428571428571428
 40
0.1428571428571428
 40
0.1428571428571428
 40
0.1428571428571428
 40
0.2857142857142857
 40
0.2857142857142857
 40
0.2857142857142857
 40
0.2857142857142857
 40
0.4285714285714285
 40
0.4285714285714285
 40
0.4285714285714285
 40
0.4285714285714285
 40
0.5714285714285714
 40
0.5714285714285714
 40
0.5714285714285714
 40
0.5714285714285714
 40
0.7142857142857142
 40
0.7142857142857142
 40
0.7142857142857142
 40
0.7142857142857142
 40
0.857142857142857
 40
0.857142857142857
 40
0.857142857142857
 40
0.857142857142857
 40
1.0
 40
1.0
 40
1.0
 40
1.0
 10
-10.64989
 20
-14.93556
 30
0.0
 10
-10.64989
 20
-14.93556
 30
0.0
 10
-10.63678
 20
-14.87337
 30
0.0
 10
-10.63678
 20
-14.87337
 30
0.0
 10
-10.63678
 20
-14.87337
 30
0.0
 10
-10.63678
 20
-14.87337
 30
0.0
 10
-10.62197
 20
-14.87337
 30
0.0
 10
-10.62197
 20
-14.87337
 30
0.0
 10
-10.62197
 20
-14.87337
 30
0.0
 10
-10.62197
 20
-14.87337
 30
0.0
 10
-10.63968
 20
-14.94783
 30
0.0
 10
-10.63968
 20
-14.94783
 30
0.0
 10
-10.63968
 20
-14.94783
 30
0.0
 10
-10.63968
 20
-14.94783
 30
0.0
 10
-10.66007
 20
-14.94783
 30
0.0
 10
-10.66007
 20
-14.94783
 30
0.0
 10
-10.66007
 20
-14.94783
 30
0.0
 10
-10.66007
 20
-14.94783
 30
0.0
 10
-10.67778
 20
-14.87337
 30
0.0
 10
-10.67778
 20
-14.87337
 30
0.0
 10
-10.67778
 20
-14.87337
 30
0.0
 10
-10.67778
 20
-14.87337
 30
0.0
 10
-10.66297
 20
-14.87337
 30
0.0
 10
-10.66297
 20
-14.87337
 30
0.0
 10
-10.66297
 20
-14.87337
 30
0.0
 10
-10.66297
 20
-14.87337
 30
0.0
 10
-10.64989
 20
-14.93556
 30
0.0
 10
-10.64989
 20
-14.93556
 30
0.0
  0
SPLINE
  5
6A
330
1F
100
AcDbEntity
  8
Layer 1
 62
   250
100
AcDbSpline
210
0.0
220
0.0
230
1.0
 70
    11
 71
     3
 72
   116
 73
   112
 74
     0
 42
0.0000000001
 43
0.0000000001
 40
0.0
 40
0.0
 40
0.0
 40
0.0
 40
0.0357142857142857
 40
0.0357142857142857
 40
0.0357142857142857
 40
0.0357142857142857
 40
0.0714285714285714
 40
0.0714285714285714
 40
0.0714285714285714
 40
0.0714285714285714
 40
0.1071428571428571
 40
0.1071428571428571
 40
0.1071428571428571
 40
0.1071428571428571
 40
0.1428571428571428
 40
0.1428571428571428
 40
0.1428571428571428
 40
0.1428571428571428
 40
0.1785714285714285
 40
0.1785714285714285
 40
0.1785714285714285
 40
0.1785714285714285
 40
0.2142857142857142
 40
0.2142857142857142
 40
0.2142857142857142
 40
0.2142857142857142
 40
0.2499999999999999
 40
0.2499999999999999
 40
0.2499999999999999
 40
0.2499999999999999
 40
0.2857142857142856
 40
0.2857142857142856
 40
0.2857142857142856
 40
0.2857142857142856
 40
0.3214285714285713
 40
0.3214285714285713
 40
0.3214285714285713
 40
0.3214285714285713
 40
0.357142857142857
 40
0.357142857142857
 40
0.357142857142857
 40
0.357142857142857
 40
0.3928571428571427
 40
0.3928571428571427
 40
0.3928571428571427
 40
0.3928571428571427
 40
0.4285714285714284
 40
0.4285714285714284
 40
0.4285714285714284
 40
0.4285714285714284
 40
0.4642857142857141
 40
0.4642857142857141
 40
0.4642857142857141
 40
0.4642857142857141
 40
0.4999999999999998
 40
0.4999999999999998
 40
0.4999999999999998
 40
0.4999999999999998
 40
0.5357142857142856
 40
0.5357142857142856
 40
0.5357142857142856
 40
0.5357142857142856
 40
0.5714285714285713
 40
0.5714285714285713
 40
0.5714285714285713
 40
0.5714285714285713
 40
0.607142857142857
 40
0.607142857142857
 40
0.607142857142857
 40
0.607142857142857
 40
0.6428571428571427
 40
0.6428571428571427
 40
0.6428571428571427
 40
0.6428571428571427
 40
0.6785714285714284
 40
0.6785714285714284
 40
0.6785714285714284
 40
0.6785714285714284
 40
0.7142857142857141
 40
0.7142857142857141
 40
0.7142857142857141
 40
0.7142857142857141
 40
0.7499999999999998
 40
0.7499999999999998
 40
0.7499999999999998
 40
0.7499999999999998
 40
0.7857142857142855
 40
0.7857142857142855
 40
0.7857142857142855
 40
0.7857142857142855
 40
0.8214285714285712
 40
0.8214285714285712
 40
0.8214285714285712
 40
0.8214285714285712
 40
0.8571428571428569
 40
0.8571428571428569
 40
0.8571428571428569
 40
0.8571428571428569
 40
0.8928571428571426
 40
0.8928571428571426
 40
0.8928571428571426
 40
0.8928571428571426
 40
0.9285714285714283
 40
0.9285714285714283
 40
0.9285714285714283
 40
0.9285714285714283
 40
0.964285714285714
 40
0.964285714285714
 40
0.964285714285714
 40
0.964285714285714
 40
1.0
 40
1.0
 40
1.0
 40
1.0
 10
-10.5937
 20
-14.91516
 30
0.0
 10
-10.6011
 20
-14.91234
 30
0.0
 10
-10.60612
 20
-14.90936
 30
0.0
 10
-10.60876
 20
-14.90626
 30
0.0
 10
-10.60876
 20
-14.90626
 30
0.0
 10
-10.61138
 20
-14.90314
 30
0.0
 10
-10.6127
 20
-14.89897
 30
0.0
 10
-10.6127
 20
-14.89371
 30
0.0
 10
-10.6127
 20
-14.89371
 30
0.0
 10
-10.6127
 20
-14.88697
 30
0.0
 10
-10.61053
 20
-14.88166
 30
0.0
 10
-10.60621
 20
-14.87781
 30
0.0
 10
-10.60621
 20
-14.87781
 30
0.0
 10
-10.60189
 20
-14.87395
 30
0.0
 10
-10.59596
 20
-14.87203
 30
0.0
 10
-10.5884
 20
-14.87203
 30
0.0
 10
-10.5884
 20
-14.87203
 30
0.0
 10
-10.58498
 20
-14.87203
 30
0.0
 10
-10.58156
 20
-14.87242
 30
0.0
 10
-10.57814
 20
-14.8732
 30
0.0
 10
-10.57814
 20
-14.8732
 30
0.0
 10
-10.5747
 20
-14.87398
 30
0.0
 10
-10.57131
 20
-14.87512
 30
0.0
 10
-10.56796
 20
-14.87666
 30
0.0
 10
-10.56796
 20
-14.87666
 30
0.0
 10
-10.56796
 20
-14.87666
 30
0.0
 10
-10.56796
 20
-14.89102
 30
0.0
 10
-10.56796
 20
-14.89102
 30
0.0
 10
-10.56796
 20
-14.89102
 30
0.0
 10
-10.57112
 20
-14.88879
 30
0.0
 10
-10.57432
 20
-14.88711
 30
0.0
 10
-10.57758
 20
-14.88593
 30
0.0
 10
-10.57758
 20
-14.88593
 30
0.0
 10
-10.58084
 20
-14.88478
 30
0.0
 10
-10.58406
 20
-14.8842
 30
0.0
 10
-10.58726
 20
-14.8842
 30
0.0
 10
-10.58726
 20
-14.8842
 30
0.0
 10
-10.59082
 20
-14.8842
 30
0.0
 10
-10.59354
 20
-14.88491
 30
0.0
 10
-10.59543
 20
-14.88634
 30
0.0
 10
-10.59543
 20
-14.88634
 30
0.0
 10
-10.59732
 20
-14.88777
 30
0.0
 10
-10.59828
 20
-14.88981
 30
0.0
 10
-10.59828
 20
-14.89247
 30
0.0
 10
-10.59828
 20
-14.89247
 30
0.0
 10
-10.59828
 20
-14.89453
 30
0.0
 10
-10.59758
 20
-14.89623
 30
0.0
 10
-10.5962
 20
-14.89758
 30
0.0
 10
-10.5962
 20
-14.89758
 30
0.0
 10
-10.59482
 20
-14.89892
 30
0.0
 10
-10.59194
 20
-14.90042
 30
0.0
 10
-10.58755
 20
-14.90204
 30
0.0
 10
-10.58755
 20
-14.90204
 30
0.0
 10
-10.58755
 20
-14.90204
 30
0.0
 10
-10.58122
 20
-14.90444
 30
0.0
 10
-10.58122
 20
-14.90444
 30
0.0
 10
-10.58122
 20
-14.90444
 30
0.0
 10
-10.57524
 20
-14.90663
 30
0.0
 10
-10.57083
 20
-14.90954
 30
0.0
 10
-10.56801
 20
-14.91317
 30
0.0
 10
-10.56801
 20
-14.91317
 30
0.0
 10
-10.56518
 20
-14.9168
 30
0.0
 10
-10.56377
 20
-14.92136
 30
0.0
 10
-10.56377
 20
-14.92687
 30
0.0
 10
-10.56377
 20
-14.92687
 30
0.0
 10
-10.56377
 20
-14.9344
 30
0.0
 10
-10.56598
 20
-14.94
 30
0.0
 10
-10.57043
 20
-14.94371
 30
0.0
 10
-10.57043
 20
-14.94371
 30
0.0
 10
-10.57487
 20
-14.94742
 30
0.0
 10
-10.58158
 20
-14.94928
 30
0.0
 10
-10.59055
 20
-14.94928
 30
0.0
 10
-10.59055
 20
-14.94928
 30
0.0
 10
-10.59424
 20
-14.94928
 30
0.0
 10
-10.59794
 20
-14.94883
 30
0.0
 10
-10.60165
 20
-14.94795
 30
0.0
 10
-10.60165
 20
-14.94795
 30
0.0
 10
-10.60534
 20
-14.94706
 30
0.0
 10
-10.60893
 20
-14.94577
 30
0.0
 10
-10.61239
 20
-14.94403
 30
0.0
 10
-10.61239
 20
-14.94403
 30
0.0
 10
-10.61239
 20
-14.94403
 30
0.0
 10
-10.61239
 20
-14.92881
 30
0.0
 10
-10.61239
 20
-14.92881
 30
0.0
 10
-10.61239
 20
-14.92881
 30
0.0
 10
-10.60847
 20
-14.93161
 30
0.0
 10
-10.60466
 20
-14.9337
 30
0.0
 10
-10.601
 20
-14.93506
 30
0.0
 10
-10.601
 20
-14.93506
 30
0.0
 10
-10.59732
 20
-14.93642
 30
0.0
 10
-10.5937
 20
-14.93711
 30
0.0
 10
-10.59011
 20
-14.93711
 30
0.0
 10
-10.59011
 20
-14.93711
 30
0.0
 10
-10.58648
 20
-14.93711
 30
0.0
 10
-10.58367
 20
-14.93629
 30
0.0
 10
-10.58168
 20
-14.93464
 30
0.0
 10
-10.58168
 20
-14.93464
 30
0.0
 10
-10.57969
 20
-14.93299
 30
0.0
 10
-10.57868
 20
-14.93069
 30
0.0
 10
-10.57868
 20
-14.92773
 30
0.0
 10
-10.57868
 20
-14.92773
 30
0.0
 10
-10.57868
 20
-14.9255
 30
0.0
 10
-10.57935
 20
-14.92354
 30
0.0
 10
-10.58067
 20
-14.92187
 30
0.0
 10
-10.58067
 20
-14.92187
 30
0.0
 10
-10.582
 20
-14.92018
 30
0.0
 10
-10.58393
 20
-14.91886
 30
0.0
 10
-10.58646
 20
-14.9179
 30
0.0
 10
-10.58646
 20
-14.9179
 30
0.0
 10
-10.58646
 20
-14.9179
 30
0.0
 10
-10.5937
 20
-14.91516
 30
0.0
 10
-10.5937
 20
-14.91516
 30
0.0
  0
SPLINE
  5
6B
330
1F
100
AcDbEntity
  8
Layer 1
 62
   250
100
AcDbSpline
210
0.0
220
0.0
230
1.0
 70
    11
 71
     3
 72
   116
 73
   112
 74
     0
 42
0.0000000001
 43
0.0000000001
 40
0.0
 40
0.0
 40
0.0
 40
0.0
 40
0.0357142857142857
 40
0.0357142857142857
 40
0.0357142857142857
 40
0.0357142857142857
 40
0.0714285714285714
 40
0.0714285714285714
 40
0.0714285714285714
 40
0.0714285714285714
 40
0.1071428571428571
 40
0.1071428571428571
 40
0.1071428571428571
 40
0.1071428571428571
 40
0.1428571428571428
 40
0.1428571428571428
 40
0.1428571428571428
 40
0.1428571428571428
 40
0.1785714285714285
 40
0.1785714285714285
 40
0.1785714285714285
 40
0.1785714285714285
 40
0.2142857142857142
 40
0.2142857142857142
 40
0.2142857142857142
 40
0.2142857142857142
 40
0.2499999999999999
 40
0.2499999999999999
 40
0.2499999999999999
 40
0.2499999999999999
 40
0.2857142857142856
 40
0.2857142857142856
 40
0.2857142857142856
 40
0.2857142857142856
 40
0.3214285714285713
 40
0.3214285714285713
 40
0.3214285714285713
 40
0.3214285714285713
 40
0.357142857142857
 40
0.357142857142857
 40
0.357142857142857
 40
0.357142857142857
 40
0.3928571428571427
 40
0.3928571428571427
 40
0.3928571428571427
 40
0.3928571428571427
 40
0.4285714285714284
 40
0.4285714285714284
 40
0.4285714285714284
 40
0.4285714285714284
 40
0.4642857142857141
 40
0.4642857142857141
 40
0.4642857142857141
 40
0.4642857142857141
 40
0.4999999999999998
 40
0.4999999999999998
 40
0.4999999999999998
 40
0.4999999999999998
 40
0.5357142857142856
 40
0.5357142857142856
 40
0.5357142857142856
 40
0.5357142857142856
 40
0.5714285714285713
 40
0.5714285714285713
 40
0.5714285714285713
 40
0.5714285714285713
 40
0.607142857142857
 40
0.607142857142857
 40
0.607142857142857
 40
0.607142857142857
 40
0.6428571428571427
 40
0.6428571428571427
 40
0.6428571428571427
 40
0.6428571428571427
 40
0.6785714285714284
 40
0.6785714285714284
 40
0.6785714285714284
 40
0.6785714285714284
 40
0.7142857142857141
 40
0.7142857142857141
 40
0.7142857142857141
 40
0.7142857142857141
 40
0.7499999999999998
 40
0.7499999999999998
 40
0.7499999999999998
 40
0.7499999999999998
 40
0.7857142857142855
 40
0.7857142857142855
 40
0.7857142857142855
 40
0.7857142857142855
 40
0.8214285714285712
 40
0.8214285714285712
 40
0.8214285714285712
 40
0.8214285714285712
 40
0.8571428571428569
 40
0.8571428571428569
 40
0.8571428571428569
 40
0.8571428571428569
 40
0.8928571428571426
 40
0.8928571428571426
 40
0.8928571428571426
 40
0.8928571428571426
 40
0.9285714285714283
 40
0.9285714285714283
 40
0.9285714285714283
 40
0.9285714285714283
 40
0.964285714285714
 40
0.964285714285714
 40
0.964285714285714
 40
0.964285714285714
 40
1.0
 40
1.0
 40
1.0
 40
1.0
 10
-10.53221
 20
-14.91516
 30
0.0
 10
-10.53961
 20
-14.91234
 30
0.0
 10
-10.54463
 20
-14.90936
 30
0.0
 10
-10.54727
 20
-14.90626
 30
0.0
 10
-10.54727
 20
-14.90626
 30
0.0
 10
-10.54989
 20
-14.90314
 30
0.0
 10
-10.55121
 20
-14.89897
 30
0.0
 10
-10.55121
 20
-14.89371
 30
0.0
 10
-10.55121
 20
-14.89371
 30
0.0
 10
-10.55121
 20
-14.88697
 30
0.0
 10
-10.54904
 20
-14.88166
 30
0.0
 10
-10.54472
 20
-14.87781
 30
0.0
 10
-10.54472
 20
-14.87781
 30
0.0
 10
-10.5404
 20
-14.87395
 30
0.0
 10
-10.53447
 20
-14.87203
 30
0.0
 10
-10.52691
 20
-14.87203
 30
0.0
 10
-10.52691
 20
-14.87203
 30
0.0
 10
-10.52349
 20
-14.87203
 30
0.0
 10
-10.52007
 20
-14.87242
 30
0.0
 10
-10.51665
 20
-14.8732
 30
0.0
 10
-10.51665
 20
-14.8732
 30
0.0
 10
-10.51321
 20
-14.87398
 30
0.0
 10
-10.50982
 20
-14.87512
 30
0.0
 10
-10.50647
 20
-14.87666
 30
0.0
 10
-10.50647
 20
-14.87666
 30
0.0
 10
-10.50647
 20
-14.87666
 30
0.0
 10
-10.50647
 20
-14.89102
 30
0.0
 10
-10.50647
 20
-14.89102
 30
0.0
 10
-10.50647
 20
-14.89102
 30
0.0
 10
-10.50963
 20
-14.88879
 30
0.0
 10
-10.51283
 20
-14.88711
 30
0.0
 10
-10.51609
 20
-14.88593
 30
0.0
 10
-10.51609
 20
-14.88593
 30
0.0
 10
-10.51935
 20
-14.88478
 30
0.0
 10
-10.52257
 20
-14.8842
 30
0.0
 10
-10.52577
 20
-14.8842
 30
0.0
 10
-10.52577
 20
-14.8842
 30
0.0
 10
-10.52933
 20
-14.8842
 30
0.0
 10
-10.53205
 20
-14.88491
 30
0.0
 10
-10.53394
 20
-14.88634
 30
0.0
 10
-10.53394
 20
-14.88634
 30
0.0
 10
-10.53583
 20
-14.88777
 30
0.0
 10
-10.53679
 20
-14.88981
 30
0.0
 10
-10.53679
 20
-14.89247
 30
0.0
 10
-10.53679
 20
-14.89247
 30
0.0
 10
-10.53679
 20
-14.89453
 30
0.0
 10
-10.53609
 20
-14.89623
 30
0.0
 10
-10.53471
 20
-14.89758
 30
0.0
 10
-10.53471
 20
-14.89758
 30
0.0
 10
-10.53333
 20
-14.89892
 30
0.0
 10
-10.53045
 20
-14.90042
 30
0.0
 10
-10.52606
 20
-14.90204
 30
0.0
 10
-10.52606
 20
-14.90204
 30
0.0
 10
-10.52606
 20
-14.90204
 30
0.0
 10
-10.51973
 20
-14.90444
 30
0.0
 10
-10.51973
 20
-14.90444
 30
0.0
 10
-10.51973
 20
-14.90444
 30
0.0
 10
-10.51375
 20
-14.90663
 30
0.0
 10
-10.50934
 20
-14.90954
 30
0.0
 10
-10.50652
 20
-14.91317
 30
0.0
 10
-10.50652
 20
-14.91317
 30
0.0
 10
-10.50369
 20
-14.9168
 30
0.0
 10
-10.50228
 20
-14.92136
 30
0.0
 10
-10.50228
 20
-14.92687
 30
0.0
 10
-10.50228
 20
-14.92687
 30
0.0
 10
-10.50228
 20
-14.9344
 30
0.0
 10
-10.50449
 20
-14.94
 30
0.0
 10
-10.50894
 20
-14.94371
 30
0.0
 10
-10.50894
 20
-14.94371
 30
0.0
 10
-10.51338
 20
-14.94742
 30
0.0
 10
-10.52009
 20
-14.94928
 30
0.0
 10
-10.52906
 20
-14.94928
 30
0.0
 10
-10.52906
 20
-14.94928
 30
0.0
 10
-10.53275
 20
-14.94928
 30
0.0
 10
-10.53645
 20
-14.94883
 30
0.0
 10
-10.54016
 20
-14.94795
 30
0.0
 10
-10.54016
 20
-14.94795
 30
0.0
 10
-10.54385
 20
-14.94706
 30
0.0
 10
-10.54744
 20
-14.94577
 30
0.0
 10
-10.5509
 20
-14.94403
 30
0.0
 10
-10.5509
 20
-14.94403
 30
0.0
 10
-10.5509
 20
-14.94403
 30
0.0
 10
-10.5509
 20
-14.92881
 30
0.0
 10
-10.5509
 20
-14.92881
 30
0.0
 10
-10.5509
 20
-14.92881
 30
0.0
 10
-10.54698
 20
-14.93161
 30
0.0
 10
-10.54317
 20
-14.9337
 30
0.0
 10
-10.53951
 20
-14.93506
 30
0.0
 10
-10.53951
 20
-14.93506
 30
0.0
 10
-10.53583
 20
-14.93642
 30
0.0
 10
-10.53221
 20
-14.93711
 30
0.0
 10
-10.52862
 20
-14.93711
 30
0.0
 10
-10.52862
 20
-14.93711
 30
0.0
 10
-10.52499
 20
-14.93711
 30
0.0
 10
-10.52218
 20
-14.93629
 30
0.0
 10
-10.52019
 20
-14.93464
 30
0.0
 10
-10.52019
 20
-14.93464
 30
0.0
 10
-10.5182
 20
-14.93299
 30
0.0
 10
-10.51719
 20
-14.93069
 30
0.0
 10
-10.51719
 20
-14.92773
 30
0.0
 10
-10.51719
 20
-14.92773
 30
0.0
 10
-10.51719
 20
-14.9255
 30
0.0
 10
-10.51786
 20
-14.92354
 30
0.0
 10
-10.51918
 20
-14.92187
 30
0.0
 10
-10.51918
 20
-14.92187
 30
0.0
 10
-10.52051
 20
-14.92018
 30
0.0
 10
-10.52244
 20
-14.91886
 30
0.0
 10
-10.52497
 20
-14.9179
 30
0.0
 10
-10.52497
 20
-14.9179
 30
0.0
 10
-10.52497
 20
-14.9179
 30
0.0
 10
-10.53221
 20
-14.91516
 30
0.0
 10
-10.53221
 20
-14.91516
 30
0.0
  0
SPLINE
  5
6C
330
1F
100
AcDbEntity
  8
Layer 1
 62
   250
100
AcDbSpline
210
0.0
220
0.0
230
1.0
 70
    11
 71
     3
 72
   120
 73
   116
 74
     0
 42
0.0000000001
 43
0.0000000001
 40
0.0
 40
0.0
 40
0.0
 40
0.0
 40
0.0344827586206897
 40
0.0344827586206897
 40
0.0344827586206897
 40
0.0344827586206897
 40
0.0689655172413793
 40
0.0689655172413793
 40
0.0689655172413793
 40
0.0689655172413793
 40
0.103448275862069
 40
0.103448275862069
 40
0.103448275862069
 40
0.103448275862069
 40
0.1379310344827586
 40
0.1379310344827586
 40
0.1379310344827586
 40
0.1379310344827586
 40
0.1724137931034483
 40
0.1724137931034483
 40
0.1724137931034483
 40
0.1724137931034483
 40
0.206896551724138
 40
0.206896551724138
 40
0.206896551724138
 40
0.206896551724138
 40
0.2413793103448276
 40
0.2413793103448276
 40
0.2413793103448276
 40
0.2413793103448276
 40
0.2758620689655173
 40
0.2758620689655173
 40
0.2758620689655173
 40
0.2758620689655173
 40
0.310344827586207
 40
0.310344827586207
 40
0.310344827586207
 40
0.310344827586207
 40
0.3448275862068966
 40
0.3448275862068966
 40
0.3448275862068966
 40
0.3448275862068966
 40
0.3793103448275863
 40
0.3793103448275863
 40
0.3793103448275863
 40
0.3793103448275863
 40
0.413793103448276
 40
0.413793103448276
 40
0.413793103448276
 40
0.413793103448276
 40
0.4482758620689656
 40
0.4482758620689656
 40
0.4482758620689656
 40
0.4482758620689656
 40
0.4827586206896553
 40
0.4827586206896553
 40
0.4827586206896553
 40
0.4827586206896553
 40
0.517241379310345
 40
0.517241379310345
 40
0.517241379310345
 40
0.517241379310345
 40
0.5517241379310346
 40
0.5517241379310346
 40
0.5517241379310346
 40
0.5517241379310346
 40
0.5862068965517242
 40
0.5862068965517242
 40
0.5862068965517242
 40
0.5862068965517242
 40
0.6206896551724138
 40
0.6206896551724138
 40
0.6206896551724138
 40
0.6206896551724138
 40
0.6551724137931034
 40
0.6551724137931034
 40
0.6551724137931034
 40
0.6551724137931034
 40
0.689655172413793
 40
0.689655172413793
 40
0.689655172413793
 40
0.689655172413793
 40
0.7241379310344827
 40
0.7241379310344827
 40
0.7241379310344827
 40
0.7241379310344827
 40
0.7586206896551723
 40
0.7586206896551723
 40
0.7586206896551723
 40
0.7586206896551723
 40
0.7931034482758619
 40
0.7931034482758619
 40
0.7931034482758619
 40
0.7931034482758619
 40
0.8275862068965515
 40
0.8275862068965515
 40
0.8275862068965515
 40
0.8275862068965515
 40
0.8620689655172411
 40
0.8620689655172411
 40
0.8620689655172411
 40
0.8620689655172411
 40
0.8965517241379307
 40
0.8965517241379307
 40
0.8965517241379307
 40
0.8965517241379307
 40
0.9310344827586203
 40
0.9310344827586203
 40
0.9310344827586203
 40
0.9310344827586203
 40
0.9655172413793099
 40
0.9655172413793099
 40
0.9655172413793099
 40
0.9655172413793099
 40
1.0
 40
1.0
 40
1.0
 40
1.0
 10
-10.46878
 20
-14.91452
 30
0.0
 10
-10.46878
 20
-14.91452
 30
0.0
 10
-10.47666
 20
-14.91452
 30
0.0
 10
-10.47666
 20
-14.91452
 30
0.0
 10
-10.47666
 20
-14.91452
 30
0.0
 10
-10.47666
 20
-14.91452
 30
0.0
 10
-10.47666
 20
-14.90154
 30
0.0
 10
-10.47666
 20
-14.90154
 30
0.0
 10
-10.47666
 20
-14.90154
 30
0.0
 10
-10.47666
 20
-14.90154
 30
0.0
 10
-10.46878
 20
-14.90154
 30
0.0
 10
-10.46878
 20
-14.90154
 30
0.0
 10
-10.46878
 20
-14.90154
 30
0.0
 10
-10.46513
 20
-14.90154
 30
0.0
 10
-10.46229
 20
-14.90083
 30
0.0
 10
-10.46028
 20
-14.89938
 30
0.0
 10
-10.46028
 20
-14.89938
 30
0.0
 10
-10.45827
 20
-14.89793
 30
0.0
 10
-10.45727
 20
-14.89589
 30
0.0
 10
-10.45727
 20
-14.89327
 30
0.0
 10
-10.45727
 20
-14.89327
 30
0.0
 10
-10.45727
 20
-14.89051
 30
0.0
 10
-10.45827
 20
-14.88835
 30
0.0
 10
-10.46028
 20
-14.8868
 30
0.0
 10
-10.46028
 20
-14.8868
 30
0.0
 10
-10.46229
 20
-14.88525
 30
0.0
 10
-10.46513
 20
-14.88449
 30
0.0
 10
-10.46878
 20
-14.88449
 30
0.0
 10
-10.46878
 20
-14.88449
 30
0.0
 10
-10.47157
 20
-14.88449
 30
0.0
 10
-10.47456
 20
-14.88484
 30
0.0
 10
-10.47775
 20
-14.88554
 30
0.0
 10
-10.47775
 20
-14.88554
 30
0.0
 10
-10.48095
 20
-14.88624
 30
0.0
 10
-10.48425
 20
-14.88726
 30
0.0
 10
-10.48767
 20
-14.88859
 30
0.0
 10
-10.48767
 20
-14.88859
 30
0.0
 10
-10.48767
 20
-14.88859
 30
0.0
 10
-10.48767
 20
-14.87523
 30
0.0
 10
-10.48767
 20
-14.87523
 30
0.0
 10
-10.48767
 20
-14.87523
 30
0.0
 10
-10.48425
 20
-14.87419
 30
0.0
 10
-10.48088
 20
-14.8734
 30
0.0
 10
-10.47756
 20
-14.87284
 30
0.0
 10
-10.47756
 20
-14.87284
 30
0.0
 10
-10.47422
 20
-14.8723
 30
0.0
 10
-10.47104
 20
-14.87203
 30
0.0
 10
-10.46798
 20
-14.87203
 30
0.0
 10
-10.46798
 20
-14.87203
 30
0.0
 10
-10.46013
 20
-14.87203
 30
0.0
 10
-10.45402
 20
-14.87374
 30
0.0
 10
-10.44964
 20
-14.87717
 30
0.0
 10
-10.44964
 20
-14.87717
 30
0.0
 10
-10.44525
 20
-14.88059
 30
0.0
 10
-10.44305
 20
-14.8853
 30
0.0
 10
-10.44305
 20
-14.89133
 30
0.0
 10
-10.44305
 20
-14.89133
 30
0.0
 10
-10.44305
 20
-14.89574
 30
0.0
 10
-10.44431
 20
-14.89936
 30
0.0
 10
-10.44685
 20
-14.90217
 30
0.0
 10
-10.44685
 20
-14.90217
 30
0.0
 10
-10.44937
 20
-14.90498
 30
0.0
 10
-10.45298
 20
-14.90682
 30
0.0
 10
-10.45766
 20
-14.90767
 30
0.0
 10
-10.45766
 20
-14.90767
 30
0.0
 10
-10.45235
 20
-14.90861
 30
0.0
 10
-10.44828
 20
-14.91074
 30
0.0
 10
-10.44549
 20
-14.91404
 30
0.0
 10
-10.44549
 20
-14.91404
 30
0.0
 10
-10.4427
 20
-14.91734
 30
0.0
 10
-10.4413
 20
-14.9217
 30
0.0
 10
-10.4413
 20
-14.92708
 30
0.0
 10
-10.4413
 20
-14.92708
 30
0.0
 10
-10.4413
 20
-14.9343
 30
0.0
 10
-10.44362
 20
-14.93979
 30
0.0
 10
-10.44823
 20
-14.94359
 30
0.0
 10
-10.44823
 20
-14.94359
 30
0.0
 10
-10.45286
 20
-14.94739
 30
0.0
 10
-10.45957
 20
-14.94928
 30
0.0
 10
-10.46838
 20
-14.94928
 30
0.0
 10
-10.46838
 20
-14.94928
 30
0.0
 10
-10.47213
 20
-14.94928
 30
0.0
 10
-10.47582
 20
-14.94895
 30
0.0
 10
-10.47947
 20
-14.94832
 30
0.0
 10
-10.47947
 20
-14.94832
 30
0.0
 10
-10.48311
 20
-14.94769
 30
0.0
 10
-10.4866
 20
-14.94677
 30
0.0
 10
-10.48992
 20
-14.94558
 30
0.0
 10
-10.48992
 20
-14.94558
 30
0.0
 10
-10.48992
 20
-14.94558
 30
0.0
 10
-10.48992
 20
-14.93191
 30
0.0
 10
-10.48992
 20
-14.93191
 30
0.0
 10
-10.48992
 20
-14.93191
 30
0.0
 10
-10.48679
 20
-14.93348
 30
0.0
 10
-10.48342
 20
-14.93467
 30
0.0
 10
-10.47979
 20
-14.93549
 30
0.0
 10
-10.47979
 20
-14.93549
 30
0.0
 10
-10.47618
 20
-14.93631
 30
0.0
 10
-10.47237
 20
-14.93671
 30
0.0
 10
-10.46838
 20
-14.93671
 30
0.0
 10
-10.46838
 20
-14.93671
 30
0.0
 10
-10.46438
 20
-14.93671
 30
0.0
 10
-10.46124
 20
-14.93579
 30
0.0
 10
-10.4589
 20
-14.93394
 30
0.0
 10
-10.4589
 20
-14.93394
 30
0.0
 10
-10.45657
 20
-14.9321
 30
0.0
 10
-10.45541
 20
-14.92962
 30
0.0
 10
-10.45541
 20
-14.92648
 30
0.0
 10
-10.45541
 20
-14.92648
 30
0.0
 10
-10.45541
 20
-14.92267
 30
0.0
 10
-10.45657
 20
-14.91971
 30
0.0
 10
-10.4589
 20
-14.91763
 30
0.0
 10
-10.4589
 20
-14.91763
 30
0.0
 10
-10.46124
 20
-14.91555
 30
0.0
 10
-10.46452
 20
-14.91452
 30
0.0
 10
-10.46878
 20
-14.91452
 30
0.0
  0
SPLINE
  5
6D
330
1F
100
AcDbEntity
  8
Layer 1
 62
   250
100
AcDbSpline
210
0.0
220
0.0
230
1.0
 70
    11
 71
     3
 72
    36
 73
    32
 74
     0
 42
0.0000000001
 43
0.0000000001
 40
0.0
 40
0.0
 40
0.0
 40
0.0
 40
0.125
 40
0.125
 40
0.125
 40
0.125
 40
0.25
 40
0.25
 40
0.25
 40
0.25
 40
0.375
 40
0.375
 40
0.375
 40
0.375
 40
0.5
 40
0.5
 40
0.5
 40
0.5
 40
0.625
 40
0.625
 40
0.625
 40
0.625
 40
0.75
 40
0.75
 40
0.75
 40
0.75
 40
0.875
 40
0.875
 40
0.875
 40
0.875
 40
1.0
 40
1.0
 40
1.0
 40
1.0
 10
-10.41013
 20
-14.91067
 30
0.0
 10
-10.41013
 20
-14.90891
 30
0.0
 10
-10.40953
 20
-14.90743
 30
0.0
 10
-10.40832
 20
-14.90624
 30
0.0
 10
-10.40832
 20
-14.90624
 30
0.0
 10
-10.40713
 20
-14.90503
 30
0.0
 10
-10.40567
 20
-14.90444
 30
0.0
 10
-10.40393
 20
-14.90444
 30
0.0
 10
-10.40393
 20
-14.90444
 30
0.0
 10
-10.40218
 20
-14.90444
 30
0.0
 10
-10.4007
 20
-14.90503
 30
0.0
 10
-10.39951
 20
-14.90624
 30
0.0
 10
-10.39951
 20
-14.90624
 30
0.0
 10
-10.3983
 20
-14.90743
 30
0.0
 10
-10.3977
 20
-14.90891
 30
0.0
 10
-10.3977
 20
-14.91067
 30
0.0
 10
-10.3977
 20
-14.91067
 30
0.0
 10
-10.3977
 20
-14.9124
 30
0.0
 10
-10.3983
 20
-14.91387
 30
0.0
 10
-10.39951
 20
-14.91506
 30
0.0
 10
-10.39951
 20
-14.91506
 30
0.0
 10
-10.4007
 20
-14.91627
 30
0.0
 10
-10.40218
 20
-14.91686
 30
0.0
 10
-10.40393
 20
-14.91686
 30
0.0
 10
-10.40393
 20
-14.91686
 30
0.0
 10
-10.40567
 20
-14.91686
 30
0.0
 10
-10.40713
 20
-14.91627
 30
0.0
 10
-10.40832
 20
-14.91509
 30
0.0
 10
-10.40832
 20
-14.91509
 30
0.0
 10
-10.40953
 20
-14.91392
 30
0.0
 10
-10.41013
 20
-14.91244
 30
0.0
 10
-10.41013
 20
-14.91067
 30
0.0
  0
SPLINE
  5
6E
330
1F
100
AcDbEntity
  8
Layer 1
 62
   250
100
AcDbSpline
210
0.0
220
0.0
230
1.0
 70
    11
 71
     3
 72
    36
 73
    32
 74
     0
 42
0.0000000001
 43
0.0000000001
 40
0.0
 40
0.0
 40
0.0
 40
0.0
 40
0.125
 40
0.125
 40
0.125
 40
0.125
 40
0.25
 40
0.25
 40
0.25
 40
0.25
 40
0.375
 40
0.375
 40
0.375
 40
0.375
 40
0.5
 40
0.5
 40
0.5
 40
0.5
 40
0.625
 40
0.625
 40
0.625
 40
0.625
 40
0.75
 40
0.75
 40
0.75
 40
0.75
 40
0.875
 40
0.875
 40
0.875
 40
0.875
 40
1.0
 40
1.0
 40
1.0
 40
1.0
 10
-10.40393
 20
-14.88449
 30
0.0
 10
-10.40734
 20
-14.88449
 30
0.0
 10
-10.40981
 20
-14.88656
 30
0.0
 10
-10.41137
 20
-14.89072
 30
0.0
 10
-10.41137
 20
-14.89072
 30
0.0
 10
-10.41294
 20
-14.89489
 30
0.0
 10
-10.41372
 20
-14.90153
 30
0.0
 10
-10.41372
 20
-14.91067
 30
0.0
 10
-10.41372
 20
-14.91067
 30
0.0
 10
-10.41372
 20
-14.91979
 30
0.0
 10
-10.41294
 20
-14.92641
 30
0.0
 10
-10.41137
 20
-14.93059
 30
0.0
 10
-10.41137
 20
-14.93059
 30
0.0
 10
-10.40981
 20
-14.93474
 30
0.0
 10
-10.40734
 20
-14.93682
 30
0.0
 10
-10.40393
 20
-14.93682
 30
0.0
 10
-10.40393
 20
-14.93682
 30
0.0
 10
-10.40051
 20
-14.93682
 30
0.0
 10
-10.39803
 20
-14.93474
 30
0.0
 10
-10.39646
 20
-14.93059
 30
0.0
 10
-10.39646
 20
-14.93059
 30
0.0
 10
-10.39489
 20
-14.92641
 30
0.0
 10
-10.39411
 20
-14.91979
 30
0.0
 10
-10.39411
 20
-14.91067
 30
0.0
 10
-10.39411
 20
-14.91067
 30
0.0
 10
-10.39411
 20
-14.90153
 30
0.0
 10
-10.39489
 20
-14.89489
 30
0.0
 10
-10.39646
 20
-14.89072
 30
0.0
 10
-10.39646
 20
-14.89072
 30
0.0
 10
-10.39803
 20
-14.88656
 30
0.0
 10
-10.40051
 20
-14.88449
 30
0.0
 10
-10.40393
 20
-14.88449
 30
0.0
  0
SPLINE
  5
6F
330
1F
100
AcDbEntity
  8
Layer 1
 62
   250
100
AcDbSpline
210
0.0
220
0.0
230
1.0
 70
    11
 71
     3
 72
    36
 73
    32
 74
     0
 42
0.0000000001
 43
0.0000000001
 40
0.0
 40
0.0
 40
0.0
 40
0.0
 40
0.125
 40
0.125
 40
0.125
 40
0.125
 40
0.25
 40
0.25
 40
0.25
 40
0.25
 40
0.375
 40
0.375
 40
0.375
 40
0.375
 40
0.5
 40
0.5
 40
0.5
 40
0.5
 40
0.625
 40
0.625
 40
0.625
 40
0.625
 40
0.75
 40
0.75
 40
0.75
 40
0.75
 40
0.875
 40
0.875
 40
0.875
 40
0.875
 40
1.0
 40
1.0
 40
1.0
 40
1.0
 10
-10.42853
 20
-14.91067
 30
0.0
 10
-10.42853
 20
-14.89778
 30
0.0
 10
-10.42649
 20
-14.88811
 30
0.0
 10
-10.4224
 20
-14.88168
 30
0.0
 10
-10.4224
 20
-14.88168
 30
0.0
 10
-10.4183
 20
-14.87524
 30
0.0
 10
-10.41216
 20
-14.87203
 30
0.0
 10
-10.40393
 20
-14.87203
 30
0.0
 10
-10.40393
 20
-14.87203
 30
0.0
 10
-10.39569
 20
-14.87203
 30
0.0
 10
-10.38953
 20
-14.87523
 30
0.0
 10
-10.38543
 20
-14.88164
 30
0.0
 10
-10.38543
 20
-14.88164
 30
0.0
 10
-10.38134
 20
-14.88806
 30
0.0
 10
-10.3793
 20
-14.89775
 30
0.0
 10
-10.3793
 20
-14.91067
 30
0.0
 10
-10.3793
 20
-14.91067
 30
0.0
 10
-10.3793
 20
-14.92357
 30
0.0
 10
-10.38134
 20
-14.93324
 30
0.0
 10
-10.38543
 20
-14.93966
 30
0.0
 10
-10.38543
 20
-14.93966
 30
0.0
 10
-10.38953
 20
-14.94608
 30
0.0
 10
-10.39569
 20
-14.94928
 30
0.0
 10
-10.40393
 20
-14.94928
 30
0.0
 10
-10.40393
 20
-14.94928
 30
0.0
 10
-10.41216
 20
-14.94928
 30
0.0
 10
-10.4183
 20
-14.94606
 30
0.0
 10
-10.4224
 20
-14.93962
 30
0.0
 10
-10.4224
 20
-14.93962
 30
0.0
 10
-10.42649
 20
-14.93319
 30
0.0
 10
-10.42853
 20
-14.92354
 30
0.0
 10
-10.42853
 20
-14.91067
 30
0.0
  0
SPLINE
  5
70
330
1F
100
AcDbEntity
  8
Layer 1
 62
   250
100
AcDbSpline
210
0.0
220
0.0
230
1.0
 70
    11
 71
     3
 72
    92
 73
    88
 74
     0
 42
0.0000000001
 43
0.0000000001
 40
0.0
 40
0.0
 40
0.0
 40
0.0
 40
0.0454545454545455
 40
0.0454545454545455
 40
0.0454545454545455
 40
0.0454545454545455
 40
0.0909090909090909
 40
0.0909090909090909
 40
0.0909090909090909
 40
0.0909090909090909
 40
0.1363636363636364
 40
0.1363636363636364
 40
0.1363636363636364
 40
0.1363636363636364
 40
0.1818181818181818
 40
0.1818181818181818
 40
0.1818181818181818
 40
0.1818181818181818
 40
0.2272727272727273
 40
0.2272727272727273
 40
0.2272727272727273
 40
0.2272727272727273
 40
0.2727272727272728
 40
0.2727272727272728
 40
0.2727272727272728
 40
0.2727272727272728
 40
0.3181818181818182
 40
0.3181818181818182
 40
0.3181818181818182
 40
0.3181818181818182
 40
0.3636363636363637
 40
0.3636363636363637
 40
0.3636363636363637
 40
0.3636363636363637
 40
0.4090909090909092
 40
0.4090909090909092
 40
0.4090909090909092
 40
0.4090909090909092
 40
0.4545454545454546
 40
0.4545454545454546
 40
0.4545454545454546
 40
0.4545454545454546
 40
0.5000000000000001
 40
0.5000000000000001
 40
0.5000000000000001
 40
0.5000000000000001
 40
0.5454545454545455
 40
0.5454545454545455
 40
0.5454545454545455
 40
0.5454545454545455
 40
0.5909090909090909
 40
0.5909090909090909
 40
0.5909090909090909
 40
0.5909090909090909
 40
0.6363636363636364
 40
0.6363636363636364
 40
0.6363636363636364
 40
0.6363636363636364
 40
0.6818181818181818
 40
0.6818181818181818
 40
0.6818181818181818
 40
0.6818181818181818
 40
0.7272727272727272
 40
0.7272727272727272
 40
0.7272727272727272
 40
0.7272727272727272
 40
0.7727272727272726
 40
0.7727272727272726
 40
0.7727272727272726
 40
0.7727272727272726
 40
0.818181818181818
 40
0.818181818181818
 40
0.818181818181818
 40
0.818181818181818
 40
0.8636363636363634
 40
0.8636363636363634
 40
0.8636363636363634
 40
0.8636363636363634
 40
0.9090909090909088
 40
0.9090909090909088
 40
0.9090909090909088
 40
0.9090909090909088
 40
0.9545454545454543
 40
0.9545454545454543
 40
0.9545454545454543
 40
0.9545454545454543
 40
1.0
 40
1.0
 40
1.0
 40
1.0
 10
-10.36355
 20
-14.87337
 30
0.0
 10
-10.36355
 20
-14.87337
 30
0.0
 10
-10.3231
 20
-14.87337
 30
0.0
 10
-10.3231
 20
-14.87337
 30
0.0
 10
-10.3231
 20
-14.87337
 30
0.0
 10
-10.3231
 20
-14.87337
 30
0.0
 10
-10.3231
 20
-14.88634
 30
0.0
 10
-10.3231
 20
-14.88634
 30
0.0
 10
-10.3231
 20
-14.88634
 30
0.0
 10
-10.3231
 20
-14.88634
 30
0.0
 10
-10.35164
 20
-14.88634
 30
0.0
 10
-10.35164
 20
-14.88634
 30
0.0
 10
-10.35164
 20
-14.88634
 30
0.0
 10
-10.35164
 20
-14.88634
 30
0.0
 10
-10.35164
 20
-14.90015
 30
0.0
 10
-10.35164
 20
-14.90015
 30
0.0
 10
-10.35164
 20
-14.90015
 30
0.0
 10
-10.35044
 20
-14.89969
 30
0.0
 10
-10.34915
 20
-14.89935
 30
0.0
 10
-10.34779
 20
-14.89913
 30
0.0
 10
-10.34779
 20
-14.89913
 30
0.0
 10
-10.34643
 20
-14.8989
 30
0.0
 10
-10.34498
 20
-14.8988
 30
0.0
 10
-10.34345
 20
-14.8988
 30
0.0
 10
-10.34345
 20
-14.8988
 30
0.0
 10
-10.33608
 20
-14.8988
 30
0.0
 10
-10.33008
 20
-14.90113
 30
0.0
 10
-10.32549
 20
-14.90578
 30
0.0
 10
-10.32549
 20
-14.90578
 30
0.0
 10
-10.32091
 20
-14.91045
 30
0.0
 10
-10.31861
 20
-14.91649
 30
0.0
 10
-10.31861
 20
-14.92395
 30
0.0
 10
-10.31861
 20
-14.92395
 30
0.0
 10
-10.31861
 20
-14.93176
 30
0.0
 10
-10.3211
 20
-14.93792
 30
0.0
 10
-10.32607
 20
-14.94247
 30
0.0
 10
-10.32607
 20
-14.94247
 30
0.0
 10
-10.33104
 20
-14.94701
 30
0.0
 10
-10.33781
 20
-14.94928
 30
0.0
 10
-10.34639
 20
-14.94928
 30
0.0
 10
-10.34639
 20
-14.94928
 30
0.0
 10
-10.34958
 20
-14.94928
 30
0.0
 10
-10.35281
 20
-14.949
 30
0.0
 10
-10.35606
 20
-14.94848
 30
0.0
 10
-10.35606
 20
-14.94848
 30
0.0
 10
-10.35931
 20
-14.94795
 30
0.0
 10
-10.36265
 20
-14.94715
 30
0.0
 10
-10.36604
 20
-14.94608
 30
0.0
 10
-10.36604
 20
-14.94608
 30
0.0
 10
-10.36604
 20
-14.94608
 30
0.0
 10
-10.36604
 20
-14.93282
 30
0.0
 10
-10.36604
 20
-14.93282
 30
0.0
 10
-10.36604
 20
-14.93282
 30
0.0
 10
-10.36328
 20
-14.93418
 30
0.0
 10
-10.36044
 20
-14.9352
 30
0.0
 10
-10.35754
 20
-14.93588
 30
0.0
 10
-10.35754
 20
-14.93588
 30
0.0
 10
-10.35463
 20
-14.93656
 30
0.0
 10
-10.3517
 20
-14.9369
 30
0.0
 10
-10.34878
 20
-14.9369
 30
0.0
 10
-10.34878
 20
-14.9369
 30
0.0
 10
-10.3436
 20
-14.9369
 30
0.0
 10
-10.33965
 20
-14.93579
 30
0.0
 10
-10.33696
 20
-14.93358
 30
0.0
 10
-10.33696
 20
-14.93358
 30
0.0
 10
-10.33427
 20
-14.93137
 30
0.0
 10
-10.33293
 20
-14.92817
 30
0.0
 10
-10.33293
 20
-14.92395
 30
0.0
 10
-10.33293
 20
-14.92395
 30
0.0
 10
-10.33293
 20
-14.92005
 30
0.0
 10
-10.33427
 20
-14.91693
 30
0.0
 10
-10.33694
 20
-14.91458
 30
0.0
 10
-10.33694
 20
-14.91458
 30
0.0
 10
-10.33962
 20
-14.91225
 30
0.0
 10
-10.34319
 20
-14.91108
 30
0.0
 10
-10.34764
 20
-14.91108
 30
0.0
 10
-10.34764
 20
-14.91108
 30
0.0
 10
-10.35027
 20
-14.91108
 30
0.0
 10
-10.3529
 20
-14.9114
 30
0.0
 10
-10.35555
 20
-14.91205
 30
0.0
 10
-10.35555
 20
-14.91205
 30
0.0
 10
-10.35819
 20
-14.91269
 30
0.0
 10
-10.36086
 20
-14.91368
 30
0.0
 10
-10.36355
 20
-14.91497
 30
0.0
 10
-10.36355
 20
-14.91497
 30
0.0
 10
-10.36355
 20
-14.91497
 30
0.0
 10
-10.36355
 20
-14.87337
 30
0.0
 10
-10.36355
 20
-14.87337
 30
0.0
  0
SPLINE
  5
71
330
1F
100
AcDbEntity
  8
Layer 1
 62
     7
370
    20
100
AcDbSpline
210
0.0
220
0.0
230
1.0
 70
    11
 71
     3
 72
    36
 73
    32
 74
     0
 42
0.0000000001
 43
0.0000000001
 40
0.0
 40
0.0
 40
0.0
 40
0.0
 40
0.125
 40
0.125
 40
0.125
 40
0.125
 40
0.25
 40
0.25
 40
0.25
 40
0.25
 40
0.375
 40
0.375
 40
0.375
 40
0.375
 40
0.5
 40
0.5
 40
0.5
 40
0.5
 40
0.625
 40
0.625
 40
0.625
 40
0.625
 40
0.75
 40
0.75
 40
0.75
 40
0.75
 40
0.875
 40
0.875
 40
0.875
 40
0.875
 40
1.0
 40
1.0
 40
1.0
 40
1.0
 10
-10.68064
 20
-14.77952
 30
0.0
 10
-10.68531
 20
-14.77952
 30
0.0
 10
-10.68883
 20
-14.78133
 30
0.0
 10
-10.69123
 20
-14.78495
 30
0.0
 10
-10.69123
 20
-14.78495
 30
0.0
 10
-10.69363
 20
-14.78858
 30
0.0
 10
-10.69482
 20
-14.79396
 30
0.0
 10
-10.69482
 20
-14.80106
 30
0.0
 10
-10.69482
 20
-14.80106
 30
0.0
 10
-10.69482
 20
-14.80814
 30
0.0
 10
-10.69363
 20
-14.8135
 30
0.0
 10
-10.69123
 20
-14.81714
 30
0.0
 10
-10.69123
 20
-14.81714
 30
0.0
 10
-10.68883
 20
-14.82079
 30
0.0
 10
-10.68531
 20
-14.82261
 30
0.0
 10
-10.68064
 20
-14.82261
 30
0.0
 10
-10.68064
 20
-14.82261
 30
0.0
 10
-10.67596
 20
-14.82261
 30
0.0
 10
-10.67242
 20
-14.82079
 30
0.0
 10
-10.67002
 20
-14.81714
 30
0.0
 10
-10.67002
 20
-14.81714
 30
0.0
 10
-10.66762
 20
-14.8135
 30
0.0
 10
-10.66643
 20
-14.80814
 30
0.0
 10
-10.66643
 20
-14.80106
 30
0.0
 10
-10.66643
 20
-14.80106
 30
0.0
 10
-10.66643
 20
-14.79396
 30
0.0
 10
-10.66762
 20
-14.78858
 30
0.0
 10
-10.67002
 20
-14.78495
 30
0.0
 10
-10.67002
 20
-14.78495
 30
0.0
 10
-10.67242
 20
-14.78133
 30
0.0
 10
-10.67596
 20
-14.77952
 30
0.0
 10
-10.68064
 20
-14.77952
 30
0.0
  0
SPLINE
  5
72
330
1F
100
AcDbEntity
  8
Layer 1
 62
     7
370
    20
100
AcDbSpline
210
0.0
220
0.0
230
1.0
 70
    11
 71
     3
 72
    36
 73
    32
 74
     0
 42
0.0000000001
 43
0.0000000001
 40
0.0
 40
0.0
 40
0.0
 40
0.0
 40
0.125
 40
0.125
 40
0.125
 40
0.125
 40
0.25
 40
0.25
 40
0.25
 40
0.25
 40
0.375
 40
0.375
 40
0.375
 40
0.375
 40
0.5
 40
0.5
 40
0.5
 40
0.5
 40
0.625
 40
0.625
 40
0.625
 40
0.625
 40
0.75
 40
0.75
 40
0.75
 40
0.75
 40
0.875
 40
0.875
 40
0.875
 40
0.875
 40
1.0
 40
1.0
 40
1.0
 40
1.0
 10
-10.68064
 20
-14.77174
 30
0.0
 10
-10.6729
 20
-14.77174
 30
0.0
 10
-10.66697
 20
-14.77424
 30
0.0
 10
-10.66287
 20
-14.77927
 30
0.0
 10
-10.66287
 20
-14.77927
 30
0.0
 10
-10.65877
 20
-14.78429
 30
0.0
 10
-10.65671
 20
-14.79156
 30
0.0
 10
-10.65671
 20
-14.80106
 30
0.0
 10
-10.65671
 20
-14.80106
 30
0.0
 10
-10.65671
 20
-14.81061
 30
0.0
 10
-10.65875
 20
-14.81787
 30
0.0
 10
-10.66284
 20
-14.82288
 30
0.0
 10
-10.66284
 20
-14.82288
 30
0.0
 10
-10.66694
 20
-14.82788
 30
0.0
 10
-10.67286
 20
-14.83039
 30
0.0
 10
-10.68064
 20
-14.83039
 30
0.0
 10
-10.68064
 20
-14.83039
 30
0.0
 10
-10.68841
 20
-14.83039
 30
0.0
 10
-10.69431
 20
-14.82788
 30
0.0
 10
-10.69842
 20
-14.82288
 30
0.0
 10
-10.69842
 20
-14.82288
 30
0.0
 10
-10.7025
 20
-14.81787
 30
0.0
 10
-10.70454
 20
-14.81061
 30
0.0
 10
-10.70454
 20
-14.80106
 30
0.0
 10
-10.70454
 20
-14.80106
 30
0.0
 10
-10.70454
 20
-14.79156
 30
0.0
 10
-10.7025
 20
-14.78429
 30
0.0
 10
-10.69842
 20
-14.77927
 30
0.0
 10
-10.69842
 20
-14.77927
 30
0.0
 10
-10.69431
 20
-14.77424
 30
0.0
 10
-10.68841
 20
-14.77174
 30
0.0
 10
-10.68064
 20
-14.77174
 30
0.0
  0
SPLINE
  5
73
330
1F
100
AcDbEntity
  8
Layer 1
 62
     7
370
    20
100
AcDbSpline
210
0.0
220
0.0
230
1.0
 70
    11
 71
     3
 72
    36
 73
    32
 74
     0
 42
0.0000000001
 43
0.0000000001
 40
0.0
 40
0.0
 40
0.0
 40
0.0
 40
0.125
 40
0.125
 40
0.125
 40
0.125
 40
0.25
 40
0.25
 40
0.25
 40
0.25
 40
0.375
 40
0.375
 40
0.375
 40
0.375
 40
0.5
 40
0.5
 40
0.5
 40
0.5
 40
0.625
 40
0.625
 40
0.625
 40
0.625
 40
0.75
 40
0.75
 40
0.75
 40
0.75
 40
0.875
 40
0.875
 40
0.875
 40
0.875
 40
1.0
 40
1.0
 40
1.0
 40
1.0
 10
-10.61915
 20
-14.77952
 30
0.0
 10
-10.62382
 20
-14.77952
 30
0.0
 10
-10.62734
 20
-14.78133
 30
0.0
 10
-10.62974
 20
-14.78495
 30
0.0
 10
-10.62974
 20
-14.78495
 30
0.0
 10
-10.63214
 20
-14.78858
 30
0.0
 10
-10.63333
 20
-14.79396
 30
0.0
 10
-10.63333
 20
-14.80106
 30
0.0
 10
-10.63333
 20
-14.80106
 30
0.0
 10
-10.63333
 20
-14.80814
 30
0.0
 10
-10.63214
 20
-14.8135
 30
0.0
 10
-10.62974
 20
-14.81714
 30
0.0
 10
-10.62974
 20
-14.81714
 30
0.0
 10
-10.62734
 20
-14.82079
 30
0.0
 10
-10.62382
 20
-14.82261
 30
0.0
 10
-10.61915
 20
-14.82261
 30
0.0
 10
-10.61915
 20
-14.82261
 30
0.0
 10
-10.61447
 20
-14.82261
 30
0.0
 10
-10.61093
 20
-14.82079
 30
0.0
 10
-10.60853
 20
-14.81714
 30
0.0
 10
-10.60853
 20
-14.81714
 30
0.0
 10
-10.60613
 20
-14.8135
 30
0.0
 10
-10.60494
 20
-14.80814
 30
0.0
 10
-10.60494
 20
-14.80106
 30
0.0
 10
-10.60494
 20
-14.80106
 30
0.0
 10
-10.60494
 20
-14.79396
 30
0.0
 10
-10.60613
 20
-14.78858
 30
0.0
 10
-10.60853
 20
-14.78495
 30
0.0
 10
-10.60853
 20
-14.78495
 30
0.0
 10
-10.61093
 20
-14.78133
 30
0.0
 10
-10.61447
 20
-14.77952
 30
0.0
 10
-10.61915
 20
-14.77952
 30
0.0
  0
SPLINE
  5
74
330
1F
100
AcDbEntity
  8
Layer 1
 62
     7
370
    20
100
AcDbSpline
210
0.0
220
0.0
230
1.0
 70
    11
 71
     3
 72
    36
 73
    32
 74
     0
 42
0.0000000001
 43
0.0000000001
 40
0.0
 40
0.0
 40
0.0
 40
0.0
 40
0.125
 40
0.125
 40
0.125
 40
0.125
 40
0.25
 40
0.25
 40
0.25
 40
0.25
 40
0.375
 40
0.375
 40
0.375
 40
0.375
 40
0.5
 40
0.5
 40
0.5
 40
0.5
 40
0.625
 40
0.625
 40
0.625
 40
0.625
 40
0.75
 40
0.75
 40
0.75
 40
0.75
 40
0.875
 40
0.875
 40
0.875
 40
0.875
 40
1.0
 40
1.0
 40
1.0
 40
1.0
 10
-10.61915
 20
-14.77174
 30
0.0
 10
-10.61141
 20
-14.77174
 30
0.0
 10
-10.60548
 20
-14.77424
 30
0.0
 10
-10.60138
 20
-14.77927
 30
0.0
 10
-10.60138
 20
-14.77927
 30
0.0
 10
-10.59728
 20
-14.78429
 30
0.0
 10
-10.59522
 20
-14.79156
 30
0.0
 10
-10.59522
 20
-14.80106
 30
0.0
 10
-10.59522
 20
-14.80106
 30
0.0
 10
-10.59522
 20
-14.81061
 30
0.0
 10
-10.59726
 20
-14.81787
 30
0.0
 10
-10.60135
 20
-14.82288
 30
0.0
 10
-10.60135
 20
-14.82288
 30
0.0
 10
-10.60545
 20
-14.82788
 30
0.0
 10
-10.61137
 20
-14.83039
 30
0.0
 10
-10.61915
 20
-14.83039
 30
0.0
 10
-10.61915
 20
-14.83039
 30
0.0
 10
-10.62692
 20
-14.83039
 30
0.0
 10
-10.63282
 20
-14.82788
 30
0.0
 10
-10.63693
 20
-14.82288
 30
0.0
 10
-10.63693
 20
-14.82288
 30
0.0
 10
-10.64101
 20
-14.81787
 30
0.0
 10
-10.64305
 20
-14.81061
 30
0.0
 10
-10.64305
 20
-14.80106
 30
0.0
 10
-10.64305
 20
-14.80106
 30
0.0
 10
-10.64305
 20
-14.79156
 30
0.0
 10
-10.64101
 20
-14.78429
 30
0.0
 10
-10.63693
 20
-14.77927
 30
0.0
 10
-10.63693
 20
-14.77927
 30
0.0
 10
-10.63282
 20
-14.77424
 30
0.0
 10
-10.62692
 20
-14.77174
 30
0.0
 10
-10.61915
 20
-14.77174
 30
0.0
  0
SPLINE
  5
75
330
1F
100
AcDbEntity
  8
Layer 1
 62
     7
370
    20
100
AcDbSpline
210
0.0
220
0.0
230
1.0
 70
    11
 71
     3
 72
   112
 73
   108
 74
     0
 42
0.0000000001
 43
0.0000000001
 40
0.0
 40
0.0
 40
0.0
 40
0.0
 40
0.037037037037037
 40
0.037037037037037
 40
0.037037037037037
 40
0.037037037037037
 40
0.0740740740740741
 40
0.0740740740740741
 40
0.0740740740740741
 40
0.0740740740740741
 40
0.1111111111111111
 40
0.1111111111111111
 40
0.1111111111111111
 40
0.1111111111111111
 40
0.1481481481481481
 40
0.1481481481481481
 40
0.1481481481481481
 40
0.1481481481481481
 40
0.1851851851851852
 40
0.1851851851851852
 40
0.1851851851851852
 40
0.1851851851851852
 40
0.2222222222222222
 40
0.2222222222222222
 40
0.2222222222222222
 40
0.2222222222222222
 40
0.2592592592592592
 40
0.2592592592592592
 40
0.2592592592592592
 40
0.2592592592592592
 40
0.2962962962962963
 40
0.2962962962962963
 40
0.2962962962962963
 40
0.2962962962962963
 40
0.3333333333333333
 40
0.3333333333333333
 40
0.3333333333333333
 40
0.3333333333333333
 40
0.3703703703703703
 40
0.3703703703703703
 40
0.3703703703703703
 40
0.3703703703703703
 40
0.4074074074074074
 40
0.4074074074074074
 40
0.4074074074074074
 40
0.4074074074074074
 40
0.4444444444444444
 40
0.4444444444444444
 40
0.4444444444444444
 40
0.4444444444444444
 40
0.4814814814814815
 40
0.4814814814814815
 40
0.4814814814814815
 40
0.4814814814814815
 40
0.5185185185185185
 40
0.5185185185185185
 40
0.5185185185185185
 40
0.5185185185185185
 40
0.5555555555555556
 40
0.5555555555555556
 40
0.5555555555555556
 40
0.5555555555555556
 40
0.5925925925925926
 40
0.5925925925925926
 40
0.5925925925925926
 40
0.5925925925925926
 40
0.6296296296296295
 40
0.6296296296296295
 40
0.6296296296296295
 40
0.6296296296296295
 40
0.6666666666666665
 40
0.6666666666666665
 40
0.6666666666666665
 40
0.6666666666666665
 40
0.7037037037037035
 40
0.7037037037037035
 40
0.7037037037037035
 40
0.7037037037037035
 40
0.7407407407407405
 40
0.7407407407407405
 40
0.7407407407407405
 40
0.7407407407407405
 40
0.7777777777777775
 40
0.7777777777777775
 40
0.7777777777777775
 40
0.7777777777777775
 40
0.8148148148148144
 40
0.8148148148148144
 40
0.8148148148148144
 40
0.8148148148148144
 40
0.8518518518518514
 40
0.8518518518518514
 40
0.8518518518518514
 40
0.8518518518518514
 40
0.8888888888888884
 40
0.8888888888888884
 40
0.8888888888888884
 40
0.8888888888888884
 40
0.9259259259259254
 40
0.9259259259259254
 40
0.9259259259259254
 40
0.9259259259259254
 40
0.9629629629629624
 40
0.9629629629629624
 40
0.9629629629629624
 40
0.9629629629629624
 40
1.0
 40
1.0
 40
1.0
 40
1.0
 10
-10.55468
 20
-14.77877
 30
0.0
 10
-10.55356
 20
-14.77637
 30
0.0
 10
-10.55211
 20
-14.7746
 30
0.0
 10
-10.55036
 20
-14.77346
 30
0.0
 10
-10.55036
 20
-14.77346
 30
0.0
 10
-10.54862
 20
-14.77232
 30
0.0
 10
-10.54651
 20
-14.77174
 30
0.0
 10
-10.54406
 20
-14.77174
 30
0.0
 10
-10.54406
 20
-14.77174
 30
0.0
 10
-10.53957
 20
-14.77174
 30
0.0
 10
-10.5364
 20
-14.77348
 30
0.0
 10
-10.53456
 20
-14.77695
 30
0.0
 10
-10.53456
 20
-14.77695
 30
0.0
 10
-10.53271
 20
-14.78042
 30
0.0
 10
-10.53179
 20
-14.78696
 30
0.0
 10
-10.53179
 20
-14.79658
 30
0.0
 10
-10.53179
 20
-14.79658
 30
0.0
 10
-10.53179
 20
-14.79658
 30
0.0
 10
-10.53179
 20
-14.82894
 30
0.0
 10
-10.53179
 20
-14.82894
 30
0.0
 10
-10.53179
 20
-14.82894
 30
0.0
 10
-10.53179
 20
-14.82894
 30
0.0
 10
-10.54016
 20
-14.82894
 30
0.0
 10
-10.54016
 20
-14.82894
 30
0.0
 10
-10.54016
 20
-14.82894
 30
0.0
 10
-10.54016
 20
-14.82894
 30
0.0
 10
-10.54016
 20
-14.79697
 30
0.0
 10
-10.54016
 20
-14.79697
 30
0.0
 10
-10.54016
 20
-14.79697
 30
0.0
 10
-10.54016
 20
-14.78909
 30
0.0
 10
-10.54061
 20
-14.7842
 30
0.0
 10
-10.54149
 20
-14.78228
 30
0.0
 10
-10.54149
 20
-14.78228
 30
0.0
 10
-10.54236
 20
-14.78037
 30
0.0
 10
-10.54398
 20
-14.77942
 30
0.0
 10
-10.54631
 20
-14.77942
 30
0.0
 10
-10.54631
 20
-14.77942
 30
0.0
 10
-10.54896
 20
-14.77942
 30
0.0
 10
-10.55079
 20
-14.78044
 30
0.0
 10
-10.55177
 20
-14.78248
 30
0.0
 10
-10.55177
 20
-14.78248
 30
0.0
 10
-10.55274
 20
-14.78453
 30
0.0
 10
-10.55324
 20
-14.78936
 30
0.0
 10
-10.55324
 20
-14.79697
 30
0.0
 10
-10.55324
 20
-14.79697
 30
0.0
 10
-10.55324
 20
-14.79697
 30
0.0
 10
-10.55324
 20
-14.82894
 30
0.0
 10
-10.55324
 20
-14.82894
 30
0.0
 10
-10.55324
 20
-14.82894
 30
0.0
 10
-10.55324
 20
-14.82894
 30
0.0
 10
-10.56161
 20
-14.82894
 30
0.0
 10
-10.56161
 20
-14.82894
 30
0.0
 10
-10.56161
 20
-14.82894
 30
0.0
 10
-10.56161
 20
-14.82894
 30
0.0
 10
-10.56161
 20
-14.79697
 30
0.0
 10
-10.56161
 20
-14.79697
 30
0.0
 10
-10.56161
 20
-14.79697
 30
0.0
 10
-10.56161
 20
-14.78899
 30
0.0
 10
-10.56209
 20
-14.78407
 30
0.0
 10
-10.56304
 20
-14.78221
 30
0.0
 10
-10.56304
 20
-14.78221
 30
0.0
 10
-10.56398
 20
-14.78036
 30
0.0
 10
-10.56568
 20
-14.77942
 30
0.0
 10
-10.56815
 20
-14.77942
 30
0.0
 10
-10.56815
 20
-14.77942
 30
0.0
 10
-10.57058
 20
-14.77942
 30
0.0
 10
-10.57227
 20
-14.78044
 30
0.0
 10
-10.57321
 20
-14.78248
 30
0.0
 10
-10.57321
 20
-14.78248
 30
0.0
 10
-10.57416
 20
-14.78453
 30
0.0
 10
-10.57464
 20
-14.78936
 30
0.0
 10
-10.57464
 20
-14.79697
 30
0.0
 10
-10.57464
 20
-14.79697
 30
0.0
 10
-10.57464
 20
-14.79697
 30
0.0
 10
-10.57464
 20
-14.82894
 30
0.0
 10
-10.57464
 20
-14.82894
 30
0.0
 10
-10.57464
 20
-14.82894
 30
0.0
 10
-10.57464
 20
-14.82894
 30
0.0
 10
-10.58296
 20
-14.82894
 30
0.0
 10
-10.58296
 20
-14.82894
 30
0.0
 10
-10.58296
 20
-14.82894
 30
0.0
 10
-10.58296
 20
-14.82894
 30
0.0
 10
-10.58296
 20
-14.77309
 30
0.0
 10
-10.58296
 20
-14.77309
 30
0.0
 10
-10.58296
 20
-14.77309
 30
0.0
 10
-10.58296
 20
-14.77309
 30
0.0
 10
-10.57464
 20
-14.77309
 30
0.0
 10
-10.57464
 20
-14.77309
 30
0.0
 10
-10.57464
 20
-14.77309
 30
0.0
 10
-10.57464
 20
-14.77309
 30
0.0
 10
-10.57464
 20
-14.77787
 30
0.0
 10
-10.57464
 20
-14.77787
 30
0.0
 10
-10.57464
 20
-14.77787
 30
0.0
 10
-10.57355
 20
-14.77588
 30
0.0
 10
-10.57217
 20
-14.77436
 30
0.0
 10
-10.57052
 20
-14.77331
 30
0.0
 10
-10.57052
 20
-14.77331
 30
0.0
 10
-10.56888
 20
-14.77227
 30
0.0
 10
-10.56701
 20
-14.77174
 30
0.0
 10
-10.56491
 20
-14.77174
 30
0.0
 10
-10.56491
 20
-14.77174
 30
0.0
 10
-10.56238
 20
-14.77174
 30
0.0
 10
-10.56028
 20
-14.77232
 30
0.0
 10
-10.5586
 20
-14.77348
 30
0.0
 10
-10.5586
 20
-14.77348
 30
0.0
 10
-10.55691
 20
-14.77465
 30
0.0
 10
-10.55562
 20
-14.77641
 30
0.0
 10
-10.55468
 20
-14.77877
 30
0.0
  0
SPLINE
  5
76
330
1F
100
AcDbEntity
  8
Layer 1
 62
     7
370
    20
100
AcDbSpline
210
0.0
220
0.0
230
1.0
 70
    11
 71
     3
 72
    20
 73
    16
 74
     0
 42
0.0000000001
 43
0.0000000001
 40
0.0
 40
0.0
 40
0.0
 40
0.0
 40
0.25
 40
0.25
 40
0.25
 40
0.25
 40
0.5
 40
0.5
 40
0.5
 40
0.5
 40
0.75
 40
0.75
 40
0.75
 40
0.75
 40
1.0
 40
1.0
 40
1.0
 40
1.0
 10
-10.50251
 20
-14.81372
 30
0.0
 10
-10.50251
 20
-14.81372
 30
0.0
 10
-10.48994
 20
-14.81372
 30
0.0
 10
-10.48994
 20
-14.81372
 30
0.0
 10
-10.48994
 20
-14.81372
 30
0.0
 10
-10.48994
 20
-14.81372
 30
0.0
 10
-10.48994
 20
-14.82894
 30
0.0
 10
-10.48994
 20
-14.82894
 30
0.0
 10
-10.48994
 20
-14.82894
 30
0.0
 10
-10.48994
 20
-14.82894
 30
0.0
 10
-10.50251
 20
-14.82894
 30
0.0
 10
-10.50251
 20
-14.82894
 30
0.0
 10
-10.50251
 20
-14.82894
 30
0.0
 10
-10.50251
 20
-14.82894
 30
0.0
 10
-10.50251
 20
-14.81372
 30
0.0
 10
-10.50251
 20
-14.81372
 30
0.0
  0
SPLINE
  5
77
330
1F
100
AcDbEntity
  8
Layer 1
 62
     7
370
    20
100
AcDbSpline
210
0.0
220
0.0
230
1.0
 70
    11
 71
     3
 72
    52
 73
    48
 74
     0
 42
0.0000000001
 43
0.0000000001
 40
0.0
 40
0.0
 40
0.0
 40
0.0
 40
0.0833333333333333
 40
0.0833333333333333
 40
0.0833333333333333
 40
0.0833333333333333
 40
0.1666666666666667
 40
0.1666666666666667
 40
0.1666666666666667
 40
0.1666666666666667
 40
0.25
 40
0.25
 40
0.25
 40
0.25
 40
0.3333333333333333
 40
0.3333333333333333
 40
0.3333333333333333
 40
0.3333333333333333
 40
0.4166666666666666
 40
0.4166666666666666
 40
0.4166666666666666
 40
0.4166666666666666
 40
0.4999999999999999
 40
0.4999999999999999
 40
0.4999999999999999
 40
0.4999999999999999
 40
0.5833333333333333
 40
0.5833333333333333
 40
0.5833333333333333
 40
0.5833333333333333
 40
0.6666666666666666
 40
0.6666666666666666
 40
0.6666666666666666
 40
0.6666666666666666
 40
0.75
 40
0.75
 40
0.75
 40
0.75
 40
0.8333333333333334
 40
0.8333333333333334
 40
0.8333333333333334
 40
0.8333333333333334
 40
0.9166666666666667
 40
0.9166666666666667
 40
0.9166666666666667
 40
0.9166666666666667
 40
1.0
 40
1.0
 40
1.0
 40
1.0
 10
-10.43354
 20
-14.8087
 30
0.0
 10
-10.43354
 20
-14.81282
 30
0.0
 10
-10.43279
 20
-14.81592
 30
0.0
 10
-10.43128
 20
-14.81801
 30
0.0
 10
-10.43128
 20
-14.81801
 30
0.0
 10
-10.42976
 20
-14.8201
 30
0.0
 10
-10.42753
 20
-14.82116
 30
0.0
 10
-10.42457
 20
-14.82116
 30
0.0
 10
-10.42457
 20
-14.82116
 30
0.0
 10
-10.42457
 20
-14.82116
 30
0.0
 10
-10.41385
 20
-14.82116
 30
0.0
 10
-10.41385
 20
-14.82116
 30
0.0
 10
-10.41385
 20
-14.82116
 30
0.0
 10
-10.41385
 20
-14.82116
 30
0.0
 10
-10.41385
 20
-14.82894
 30
0.0
 10
-10.41385
 20
-14.82894
 30
0.0
 10
-10.41385
 20
-14.82894
 30
0.0
 10
-10.41385
 20
-14.82894
 30
0.0
 10
-10.42546
 20
-14.82894
 30
0.0
 10
-10.42546
 20
-14.82894
 30
0.0
 10
-10.42546
 20
-14.82894
 30
0.0
 10
-10.43095
 20
-14.82894
 30
0.0
 10
-10.43519
 20
-14.82717
 30
0.0
 10
-10.43821
 20
-14.82365
 30
0.0
 10
-10.43821
 20
-14.82365
 30
0.0
 10
-10.44122
 20
-14.82012
 30
0.0
 10
-10.44272
 20
-14.81513
 30
0.0
 10
-10.44272
 20
-14.8087
 30
0.0
 10
-10.44272
 20
-14.8087
 30
0.0
 10
-10.44272
 20
-14.8087
 30
0.0
 10
-10.44272
 20
-14.75797
 30
0.0
 10
-10.44272
 20
-14.75797
 30
0.0
 10
-10.44272
 20
-14.75797
 30
0.0
 10
-10.44272
 20
-14.75797
 30
0.0
 10
-10.45743
 20
-14.75797
 30
0.0
 10
-10.45743
 20
-14.75797
 30
0.0
 10
-10.45743
 20
-14.75797
 30
0.0
 10
-10.45743
 20
-14.75797
 30
0.0
 10
-10.45743
 20
-14.75079
 30
0.0
 10
-10.45743
 20
-14.75079
 30
0.0
 10
-10.45743
 20
-14.75079
 30
0.0
 10
-10.45743
 20
-14.75079
 30
0.0
 10
-10.43354
 20
-14.75079
 30
0.0
 10
-10.43354
 20
-14.75079
 30
0.0
 10
-10.43354
 20
-14.75079
 30
0.0
 10
-10.43354
 20
-14.75079
 30
0.0
 10
-10.43354
 20
-14.8087
 30
0.0
 10
-10.43354
 20
-14.8087
 30
0.0
  0
SPLINE
  5
78
330
1F
100
AcDbEntity
  8
Layer 1
 62
     7
370
    20
100
AcDbSpline
210
0.0
220
0.0
230
1.0
 70
    11
 71
     3
 72
    76
 73
    72
 74
     0
 42
0.0000000001
 43
0.0000000001
 40
0.0
 40
0.0
 40
0.0
 40
0.0
 40
0.0555555555555556
 40
0.0555555555555556
 40
0.0555555555555556
 40
0.0555555555555556
 40
0.1111111111111111
 40
0.1111111111111111
 40
0.1111111111111111
 40
0.1111111111111111
 40
0.1666666666666667
 40
0.1666666666666667
 40
0.1666666666666667
 40
0.1666666666666667
 40
0.2222222222222222
 40
0.2222222222222222
 40
0.2222222222222222
 40
0.2222222222222222
 40
0.2777777777777778
 40
0.2777777777777778
 40
0.2777777777777778
 40
0.2777777777777778
 40
0.3333333333333334
 40
0.3333333333333334
 40
0.3333333333333334
 40
0.3333333333333334
 40
0.388888888888889
 40
0.388888888888889
 40
0.388888888888889
 40
0.388888888888889
 40
0.4444444444444445
 40
0.4444444444444445
 40
0.4444444444444445
 40
0.4444444444444445
 40
0.5000000000000001
 40
0.5000000000000001
 40
0.5000000000000001
 40
0.5000000000000001
 40
0.5555555555555557
 40
0.5555555555555557
 40
0.5555555555555557
 40
0.5555555555555557
 40
0.6111111111111113
 40
0.6111111111111113
 40
0.6111111111111113
 40
0.6111111111111113
 40
0.6666666666666669
 40
0.6666666666666669
 40
0.6666666666666669
 40
0.6666666666666669
 40
0.7222222222222224
 40
0.7222222222222224
 40
0.7222222222222224
 40
0.7222222222222224
 40
0.777777777777778
 40
0.777777777777778
 40
0.777777777777778
 40
0.777777777777778
 40
0.8333333333333336
 40
0.8333333333333336
 40
0.8333333333333336
 40
0.8333333333333336
 40
0.8888888888888892
 40
0.8888888888888892
 40
0.8888888888888892
 40
0.8888888888888892
 40
0.9444444444444448
 40
0.9444444444444448
 40
0.9444444444444448
 40
0.9444444444444448
 40
1.0
 40
1.0
 40
1.0
 40
1.0
 10
-10.3733
 20
-14.75722
 30
0.0
 10
-10.3733
 20
-14.75722
 30
0.0
 10
-10.3733
 20
-14.77309
 30
0.0
 10
-10.3733
 20
-14.77309
 30
0.0
 10
-10.3733
 20
-14.77309
 30
0.0
 10
-10.3733
 20
-14.77309
 30
0.0
 10
-10.35244
 20
-14.77309
 30
0.0
 10
-10.35244
 20
-14.77309
 30
0.0
 10
-10.35244
 20
-14.77309
 30
0.0
 10
-10.35244
 20
-14.77309
 30
0.0
 10
-10.35244
 20
-14.78022
 30
0.0
 10
-10.35244
 20
-14.78022
 30
0.0
 10
-10.35244
 20
-14.78022
 30
0.0
 10
-10.35244
 20
-14.78022
 30
0.0
 10
-10.3733
 20
-14.78022
 30
0.0
 10
-10.3733
 20
-14.78022
 30
0.0
 10
-10.3733
 20
-14.78022
 30
0.0
 10
-10.3733
 20
-14.78022
 30
0.0
 10
-10.3733
 20
-14.81054
 30
0.0
 10
-10.3733
 20
-14.81054
 30
0.0
 10
-10.3733
 20
-14.81054
 30
0.0
 10
-10.3733
 20
-14.81466
 30
0.0
 10
-10.37251
 20
-14.81753
 30
0.0
 10
-10.37095
 20
-14.81915
 30
0.0
 10
-10.37095
 20
-14.81915
 30
0.0
 10
-10.36938
 20
-14.82079
 30
0.0
 10
-10.36666
 20
-14.8216
 30
0.0
 10
-10.36277
 20
-14.8216
 30
0.0
 10
-10.36277
 20
-14.8216
 30
0.0
 10
-10.36277
 20
-14.8216
 30
0.0
 10
-10.35244
 20
-14.8216
 30
0.0
 10
-10.35244
 20
-14.8216
 30
0.0
 10
-10.35244
 20
-14.8216
 30
0.0
 10
-10.35244
 20
-14.8216
 30
0.0
 10
-10.35244
 20
-14.82894
 30
0.0
 10
-10.35244
 20
-14.82894
 30
0.0
 10
-10.35244
 20
-14.82894
 30
0.0
 10
-10.35244
 20
-14.82894
 30
0.0
 10
-10.36366
 20
-14.82894
 30
0.0
 10
-10.36366
 20
-14.82894
 30
0.0
 10
-10.36366
 20
-14.82894
 30
0.0
 10
-10.37055
 20
-14.82894
 30
0.0
 10
-10.37541
 20
-14.82756
 30
0.0
 10
-10.37823
 20
-14.8248
 30
0.0
 10
-10.37823
 20
-14.8248
 30
0.0
 10
-10.38106
 20
-14.82205
 30
0.0
 10
-10.38247
 20
-14.81728
 30
0.0
 10
-10.38247
 20
-14.81054
 30
0.0
 10
-10.38247
 20
-14.81054
 30
0.0
 10
-10.38247
 20
-14.81054
 30
0.0
 10
-10.38247
 20
-14.78022
 30
0.0
 10
-10.38247
 20
-14.78022
 30
0.0
 10
-10.38247
 20
-14.78022
 30
0.0
 10
-10.38247
 20
-14.78022
 30
0.0
 10
-10.39738
 20
-14.78022
 30
0.0
 10
-10.39738
 20
-14.78022
 30
0.0
 10
-10.39738
 20
-14.78022
 30
0.0
 10
-10.39738
 20
-14.78022
 30
0.0
 10
-10.39738
 20
-14.77309
 30
0.0
 10
-10.39738
 20
-14.77309
 30
0.0
 10
-10.39738
 20
-14.77309
 30
0.0
 10
-10.39738
 20
-14.77309
 30
0.0
 10
-10.38247
 20
-14.77309
 30
0.0
 10
-10.38247
 20
-14.77309
 30
0.0
 10
-10.38247
 20
-14.77309
 30
0.0
 10
-10.38247
 20
-14.77309
 30
0.0
 10
-10.38247
 20
-14.75722
 30
0.0
 10
-10.38247
 20
-14.75722
 30
0.0
 10
-10.38247
 20
-14.75722
 30
0.0
 10
-10.38247
 20
-14.75722
 30
0.0
 10
-10.3733
 20
-14.75722
 30
0.0
 10
-10.3733
 20
-14.75722
 30
0.0
  0
SPLINE
  5
79
330
1F
100
AcDbEntity
  8
Layer 1
 62
     7
370
    20
100
AcDbSpline
210
0.0
220
0.0
230
1.0
 70
    11
 71
     3
 72
    20
 73
    16
 74
     0
 42
0.0000000001
 43
0.0000000001
 40
0.0
 40
0.0
 40
0.0
 40
0.0
 40
0.25
 40
0.25
 40
0.25
 40
0.25
 40
0.5
 40
0.5
 40
0.5
 40
0.5
 40
0.75
 40
0.75
 40
0.75
 40
0.75
 40
1.0
 40
1.0
 40
1.0
 40
1.0
 10
-10.29808
 20
-14.75448
 30
0.0
 10
-10.29808
 20
-14.75448
 30
0.0
 10
-10.2886
 20
-14.75448
 30
0.0
 10
-10.2886
 20
-14.75448
 30
0.0
 10
-10.2886
 20
-14.75448
 30
0.0
 10
-10.2886
 20
-14.75448
 30
0.0
 10
-10.32781
 20
-14.83842
 30
0.0
 10
-10.32781
 20
-14.83842
 30
0.0
 10
-10.32781
 20
-14.83842
 30
0.0
 10
-10.32781
 20
-14.83842
 30
0.0
 10
-10.33734
 20
-14.83842
 30
0.0
 10
-10.33734
 20
-14.83842
 30
0.0
 10
-10.33734
 20
-14.83842
 30
0.0
 10
-10.33734
 20
-14.83842
 30
0.0
 10
-10.29808
 20
-14.75448
 30
0.0
 10
-10.29808
 20
-14.75448
 30
0.0
  0
SPLINE
  5
7A
330
1F
100
AcDbEntity
  8
Layer 1
 62
     7
370
    20
100
AcDbSpline
210
0.0
220
0.0
230
1.0
 70
    11
 71
     3
 72
    32
 73
    28
 74
     0
 42
0.0000000001
 43
0.0000000001
 40
0.0
 40
0.0
 40
0.0
 40
0.0
 40
0.1428571428571428
 40
0.1428571428571428
 40
0.1428571428571428
 40
0.1428571428571428
 40
0.2857142857142857
 40
0.2857142857142857
 40
0.2857142857142857
 40
0.2857142857142857
 40
0.4285714285714285
 40
0.4285714285714285
 40
0.4285714285714285
 40
0.4285714285714285
 40
0.5714285714285714
 40
0.5714285714285714
 40
0.5714285714285714
 40
0.5714285714285714
 40
0.7142857142857142
 40
0.7142857142857142
 40
0.7142857142857142
 40
0.7142857142857142
 40
0.857142857142857
 40
0.857142857142857
 40
0.857142857142857
 40
0.857142857142857
 40
1.0
 40
1.0
 40
1.0
 40
1.0
 10
-10.64989
 20
-14.93556
 30
0.0
 10
-10.64989
 20
-14.93556
 30
0.0
 10
-10.63678
 20
-14.87337
 30
0.0
 10
-10.63678
 20
-14.87337
 30
0.0
 10
-10.63678
 20
-14.87337
 30
0.0
 10
-10.63678
 20
-14.87337
 30
0.0
 10
-10.62197
 20
-14.87337
 30
0.0
 10
-10.62197
 20
-14.87337
 30
0.0
 10
-10.62197
 20
-14.87337
 30
0.0
 10
-10.62197
 20
-14.87337
 30
0.0
 10
-10.63968
 20
-14.94783
 30
0.0
 10
-10.63968
 20
-14.94783
 30
0.0
 10
-10.63968
 20
-14.94783
 30
0.0
 10
-10.63968
 20
-14.94783
 30
0.0
 10
-10.66007
 20
-14.94783
 30
0.0
 10
-10.66007
 20
-14.94783
 30
0.0
 10
-10.66007
 20
-14.94783
 30
0.0
 10
-10.66007
 20
-14.94783
 30
0.0
 10
-10.67778
 20
-14.87337
 30
0.0
 10
-10.67778
 20
-14.87337
 30
0.0
 10
-10.67778
 20
-14.87337
 30
0.0
 10
-10.67778
 20
-14.87337
 30
0.0
 10
-10.66297
 20
-14.87337
 30
0.0
 10
-10.66297
 20
-14.87337
 30
0.0
 10
-10.66297
 20
-14.87337
 30
0.0
 10
-10.66297
 20
-14.87337
 30
0.0
 10
-10.64989
 20
-14.93556
 30
0.0
 10
-10.64989
 20
-14.93556
 30
0.0
  0
SPLINE
  5
7B
330
1F
100
AcDbEntity
  8
Layer 1
 62
     7
370
    20
100
AcDbSpline
210
0.0
220
0.0
230
1.0
 70
    11
 71
     3
 72
   116
 73
   112
 74
     0
 42
0.0000000001
 43
0.0000000001
 40
0.0
 40
0.0
 40
0.0
 40
0.0
 40
0.0357142857142857
 40
0.0357142857142857
 40
0.0357142857142857
 40
0.0357142857142857
 40
0.0714285714285714
 40
0.0714285714285714
 40
0.0714285714285714
 40
0.0714285714285714
 40
0.1071428571428571
 40
0.1071428571428571
 40
0.1071428571428571
 40
0.1071428571428571
 40
0.1428571428571428
 40
0.1428571428571428
 40
0.1428571428571428
 40
0.1428571428571428
 40
0.1785714285714285
 40
0.1785714285714285
 40
0.1785714285714285
 40
0.1785714285714285
 40
0.2142857142857142
 40
0.2142857142857142
 40
0.2142857142857142
 40
0.2142857142857142
 40
0.2499999999999999
 40
0.2499999999999999
 40
0.2499999999999999
 40
0.2499999999999999
 40
0.2857142857142856
 40
0.2857142857142856
 40
0.2857142857142856
 40
0.2857142857142856
 40
0.3214285714285713
 40
0.3214285714285713
 40
0.3214285714285713
 40
0.3214285714285713
 40
0.357142857142857
 40
0.357142857142857
 40
0.357142857142857
 40
0.357142857142857
 40
0.3928571428571427
 40
0.3928571428571427
 40
0.3928571428571427
 40
0.3928571428571427
 40
0.4285714285714284
 40
0.4285714285714284
 40
0.4285714285714284
 40
0.4285714285714284
 40
0.4642857142857141
 40
0.4642857142857141
 40
0.4642857142857141
 40
0.4642857142857141
 40
0.4999999999999998
 40
0.4999999999999998
 40
0.4999999999999998
 40
0.4999999999999998
 40
0.5357142857142856
 40
0.5357142857142856
 40
0.5357142857142856
 40
0.5357142857142856
 40
0.5714285714285713
 40
0.5714285714285713
 40
0.5714285714285713
 40
0.5714285714285713
 40
0.607142857142857
 40
0.607142857142857
 40
0.607142857142857
 40
0.607142857142857
 40
0.6428571428571427
 40
0.6428571428571427
 40
0.6428571428571427
 40
0.6428571428571427
 40
0.6785714285714284
 40
0.6785714285714284
 40
0.6785714285714284
 40
0.6785714285714284
 40
0.7142857142857141
 40
0.7142857142857141
 40
0.7142857142857141
 40
0.7142857142857141
 40
0.7499999999999998
 40
0.7499999999999998
 40
0.7499999999999998
 40
0.7499999999999998
 40
0.7857142857142855
 40
0.7857142857142855
 40
0.7857142857142855
 40
0.7857142857142855
 40
0.8214285714285712
 40
0.8214285714285712
 40
0.8214285714285712
 40
0.8214285714285712
 40
0.8571428571428569
 40
0.8571428571428569
 40
0.8571428571428569
 40
0.8571428571428569
 40
0.8928571428571426
 40
0.8928571428571426
 40
0.8928571428571426
 40
0.8928571428571426
 40
0.9285714285714283
 40
0.9285714285714283
 40
0.9285714285714283
 40
0.9285714285714283
 40
0.964285714285714
 40
0.964285714285714
 40
0.964285714285714
 40
0.964285714285714
 40
1.0
 40
1.0
 40
1.0
 40
1.0
 10
-10.5937
 20
-14.91516
 30
0.0
 10
-10.6011
 20
-14.91234
 30
0.0
 10
-10.60612
 20
-14.90936
 30
0.0
 10
-10.60876
 20
-14.90626
 30
0.0
 10
-10.60876
 20
-14.90626
 30
0.0
 10
-10.61138
 20
-14.90314
 30
0.0
 10
-10.6127
 20
-14.89897
 30
0.0
 10
-10.6127
 20
-14.89371
 30
0.0
 10
-10.6127
 20
-14.89371
 30
0.0
 10
-10.6127
 20
-14.88697
 30
0.0
 10
-10.61053
 20
-14.88166
 30
0.0
 10
-10.60621
 20
-14.87781
 30
0.0
 10
-10.60621
 20
-14.87781
 30
0.0
 10
-10.60189
 20
-14.87395
 30
0.0
 10
-10.59596
 20
-14.87203
 30
0.0
 10
-10.5884
 20
-14.87203
 30
0.0
 10
-10.5884
 20
-14.87203
 30
0.0
 10
-10.58498
 20
-14.87203
 30
0.0
 10
-10.58156
 20
-14.87242
 30
0.0
 10
-10.57814
 20
-14.8732
 30
0.0
 10
-10.57814
 20
-14.8732
 30
0.0
 10
-10.5747
 20
-14.87398
 30
0.0
 10
-10.57131
 20
-14.87512
 30
0.0
 10
-10.56796
 20
-14.87666
 30
0.0
 10
-10.56796
 20
-14.87666
 30
0.0
 10
-10.56796
 20
-14.87666
 30
0.0
 10
-10.56796
 20
-14.89102
 30
0.0
 10
-10.56796
 20
-14.89102
 30
0.0
 10
-10.56796
 20
-14.89102
 30
0.0
 10
-10.57112
 20
-14.88879
 30
0.0
 10
-10.57432
 20
-14.88711
 30
0.0
 10
-10.57758
 20
-14.88593
 30
0.0
 10
-10.57758
 20
-14.88593
 30
0.0
 10
-10.58084
 20
-14.88478
 30
0.0
 10
-10.58406
 20
-14.8842
 30
0.0
 10
-10.58726
 20
-14.8842
 30
0.0
 10
-10.58726
 20
-14.8842
 30
0.0
 10
-10.59082
 20
-14.8842
 30
0.0
 10
-10.59354
 20
-14.88491
 30
0.0
 10
-10.59543
 20
-14.88634
 30
0.0
 10
-10.59543
 20
-14.88634
 30
0.0
 10
-10.59732
 20
-14.88777
 30
0.0
 10
-10.59828
 20
-14.88981
 30
0.0
 10
-10.59828
 20
-14.89247
 30
0.0
 10
-10.59828
 20
-14.89247
 30
0.0
 10
-10.59828
 20
-14.89453
 30
0.0
 10
-10.59758
 20
-14.89623
 30
0.0
 10
-10.5962
 20
-14.89758
 30
0.0
 10
-10.5962
 20
-14.89758
 30
0.0
 10
-10.59482
 20
-14.89892
 30
0.0
 10
-10.59194
 20
-14.90042
 30
0.0
 10
-10.58755
 20
-14.90204
 30
0.0
 10
-10.58755
 20
-14.90204
 30
0.0
 10
-10.58755
 20
-14.90204
 30
0.0
 10
-10.58122
 20
-14.90444
 30
0.0
 10
-10.58122
 20
-14.90444
 30
0.0
 10
-10.58122
 20
-14.90444
 30
0.0
 10
-10.57524
 20
-14.90663
 30
0.0
 10
-10.57083
 20
-14.90954
 30
0.0
 10
-10.56801
 20
-14.91317
 30
0.0
 10
-10.56801
 20
-14.91317
 30
0.0
 10
-10.56518
 20
-14.9168
 30
0.0
 10
-10.56377
 20
-14.92136
 30
0.0
 10
-10.56377
 20
-14.92687
 30
0.0
 10
-10.56377
 20
-14.92687
 30
0.0
 10
-10.56377
 20
-14.9344
 30
0.0
 10
-10.56598
 20
-14.94
 30
0.0
 10
-10.57043
 20
-14.94371
 30
0.0
 10
-10.57043
 20
-14.94371
 30
0.0
 10
-10.57487
 20
-14.94742
 30
0.0
 10
-10.58158
 20
-14.94928
 30
0.0
 10
-10.59055
 20
-14.94928
 30
0.0
 10
-10.59055
 20
-14.94928
 30
0.0
 10
-10.59424
 20
-14.94928
 30
0.0
 10
-10.59794
 20
-14.94883
 30
0.0
 10
-10.60165
 20
-14.94795
 30
0.0
 10
-10.60165
 20
-14.94795
 30
0.0
 10
-10.60534
 20
-14.94706
 30
0.0
 10
-10.60893
 20
-14.94577
 30
0.0
 10
-10.61239
 20
-14.94403
 30
0.0
 10
-10.61239
 20
-14.94403
 30
0.0
 10
-10.61239
 20
-14.94403
 30
0.0
 10
-10.61239
 20
-14.92881
 30
0.0
 10
-10.61239
 20
-14.92881
 30
0.0
 10
-10.61239
 20
-14.92881
 30
0.0
 10
-10.60847
 20
-14.93161
 30
0.0
 10
-10.60466
 20
-14.9337
 30
0.0
 10
-10.601
 20
-14.93506
 30
0.0
 10
-10.601
 20
-14.93506
 30
0.0
 10
-10.59732
 20
-14.93642
 30
0.0
 10
-10.5937
 20
-14.93711
 30
0.0
 10
-10.59011
 20
-14.93711
 30
0.0
 10
-10.59011
 20
-14.93711
 30
0.0
 10
-10.58648
 20
-14.93711
 30
0.0
 10
-10.58367
 20
-14.93629
 30
0.0
 10
-10.58168
 20
-14.93464
 30
0.0
 10
-10.58168
 20
-14.93464
 30
0.0
 10
-10.57969
 20
-14.93299
 30
0.0
 10
-10.57868
 20
-14.93069
 30
0.0
 10
-10.57868
 20
-14.92773
 30
0.0
 10
-10.57868
 20
-14.92773
 30
0.0
 10
-10.57868
 20
-14.9255
 30
0.0
 10
-10.57935
 20
-14.92354
 30
0.0
 10
-10.58067
 20
-14.92187
 30
0.0
 10
-10.58067
 20
-14.92187
 30
0.0
 10
-10.582
 20
-14.92018
 30
0.0
 10
-10.58393
 20
-14.91886
 30
0.0
 10
-10.58646
 20
-14.9179
 30
0.0
 10
-10.58646
 20
-14.9179
 30
0.0
 10
-10.58646
 20
-14.9179
 30
0.0
 10
-10.5937
 20
-14.91516
 30
0.0
 10
-10.5937
 20
-14.91516
 30
0.0
  0
SPLINE
  5
7C
330
1F
100
AcDbEntity
  8
Layer 1
 62
     7
370
    20
100
AcDbSpline
210
0.0
220
0.0
230
1.0
 70
    11
 71
     3
 72
   116
 73
   112
 74
     0
 42
0.0000000001
 43
0.0000000001
 40
0.0
 40
0.0
 40
0.0
 40
0.0
 40
0.0357142857142857
 40
0.0357142857142857
 40
0.0357142857142857
 40
0.0357142857142857
 40
0.0714285714285714
 40
0.0714285714285714
 40
0.0714285714285714
 40
0.0714285714285714
 40
0.1071428571428571
 40
0.1071428571428571
 40
0.1071428571428571
 40
0.1071428571428571
 40
0.1428571428571428
 40
0.1428571428571428
 40
0.1428571428571428
 40
0.1428571428571428
 40
0.1785714285714285
 40
0.1785714285714285
 40
0.1785714285714285
 40
0.1785714285714285
 40
0.2142857142857142
 40
0.2142857142857142
 40
0.2142857142857142
 40
0.2142857142857142
 40
0.2499999999999999
 40
0.2499999999999999
 40
0.2499999999999999
 40
0.2499999999999999
 40
0.2857142857142856
 40
0.2857142857142856
 40
0.2857142857142856
 40
0.2857142857142856
 40
0.3214285714285713
 40
0.3214285714285713
 40
0.3214285714285713
 40
0.3214285714285713
 40
0.357142857142857
 40
0.357142857142857
 40
0.357142857142857
 40
0.357142857142857
 40
0.3928571428571427
 40
0.3928571428571427
 40
0.3928571428571427
 40
0.3928571428571427
 40
0.4285714285714284
 40
0.4285714285714284
 40
0.4285714285714284
 40
0.4285714285714284
 40
0.4642857142857141
 40
0.4642857142857141
 40
0.4642857142857141
 40
0.4642857142857141
 40
0.4999999999999998
 40
0.4999999999999998
 40
0.4999999999999998
 40
0.4999999999999998
 40
0.5357142857142856
 40
0.5357142857142856
 40
0.5357142857142856
 40
0.5357142857142856
 40
0.5714285714285713
 40
0.5714285714285713
 40
0.5714285714285713
 40
0.5714285714285713
 40
0.607142857142857
 40
0.607142857142857
 40
0.607142857142857
 40
0.607142857142857
 40
0.6428571428571427
 40
0.6428571428571427
 40
0.6428571428571427
 40
0.6428571428571427
 40
0.6785714285714284
 40
0.6785714285714284
 40
0.6785714285714284
 40
0.6785714285714284
 40
0.7142857142857141
 40
0.7142857142857141
 40
0.7142857142857141
 40
0.7142857142857141
 40
0.7499999999999998
 40
0.7499999999999998
 40
0.7499999999999998
 40
0.7499999999999998
 40
0.7857142857142855
 40
0.7857142857142855
 40
0.7857142857142855
 40
0.7857142857142855
 40
0.8214285714285712
 40
0.8214285714285712
 40
0.8214285714285712
 40
0.8214285714285712
 40
0.8571428571428569
 40
0.8571428571428569
 40
0.8571428571428569
 40
0.8571428571428569
 40
0.8928571428571426
 40
0.8928571428571426
 40
0.8928571428571426
 40
0.8928571428571426
 40
0.9285714285714283
 40
0.9285714285714283
 40
0.9285714285714283
 40
0.9285714285714283
 40
0.964285714285714
 40
0.964285714285714
 40
0.964285714285714
 40
0.964285714285714
 40
1.0
 40
1.0
 40
1.0
 40
1.0
 10
-10.53221
 20
-14.91516
 30
0.0
 10
-10.53961
 20
-14.91234
 30
0.0
 10
-10.54463
 20
-14.90936
 30
0.0
 10
-10.54727
 20
-14.90626
 30
0.0
 10
-10.54727
 20
-14.90626
 30
0.0
 10
-10.54989
 20
-14.90314
 30
0.0
 10
-10.55121
 20
-14.89897
 30
0.0
 10
-10.55121
 20
-14.89371
 30
0.0
 10
-10.55121
 20
-14.89371
 30
0.0
 10
-10.55121
 20
-14.88697
 30
0.0
 10
-10.54904
 20
-14.88166
 30
0.0
 10
-10.54472
 20
-14.87781
 30
0.0
 10
-10.54472
 20
-14.87781
 30
0.0
 10
-10.5404
 20
-14.87395
 30
0.0
 10
-10.53447
 20
-14.87203
 30
0.0
 10
-10.52691
 20
-14.87203
 30
0.0
 10
-10.52691
 20
-14.87203
 30
0.0
 10
-10.52349
 20
-14.87203
 30
0.0
 10
-10.52007
 20
-14.87242
 30
0.0
 10
-10.51665
 20
-14.8732
 30
0.0
 10
-10.51665
 20
-14.8732
 30
0.0
 10
-10.51321
 20
-14.87398
 30
0.0
 10
-10.50982
 20
-14.87512
 30
0.0
 10
-10.50647
 20
-14.87666
 30
0.0
 10
-10.50647
 20
-14.87666
 30
0.0
 10
-10.50647
 20
-14.87666
 30
0.0
 10
-10.50647
 20
-14.89102
 30
0.0
 10
-10.50647
 20
-14.89102
 30
0.0
 10
-10.50647
 20
-14.89102
 30
0.0
 10
-10.50963
 20
-14.88879
 30
0.0
 10
-10.51283
 20
-14.88711
 30
0.0
 10
-10.51609
 20
-14.88593
 30
0.0
 10
-10.51609
 20
-14.88593
 30
0.0
 10
-10.51935
 20
-14.88478
 30
0.0
 10
-10.52257
 20
-14.8842
 30
0.0
 10
-10.52577
 20
-14.8842
 30
0.0
 10
-10.52577
 20
-14.8842
 30
0.0
 10
-10.52933
 20
-14.8842
 30
0.0
 10
-10.53205
 20
-14.88491
 30
0.0
 10
-10.53394
 20
-14.88634
 30
0.0
 10
-10.53394
 20
-14.88634
 30
0.0
 10
-10.53583
 20
-14.88777
 30
0.0
 10
-10.53679
 20
-14.88981
 30
0.0
 10
-10.53679
 20
-14.89247
 30
0.0
 10
-10.53679
 20
-14.89247
 30
0.0
 10
-10.53679
 20
-14.89453
 30
0.0
 10
-10.53609
 20
-14.89623
 30
0.0
 10
-10.53471
 20
-14.89758
 30
0.0
 10
-10.53471
 20
-14.89758
 30
0.0
 10
-10.53333
 20
-14.89892
 30
0.0
 10
-10.53045
 20
-14.90042
 30
0.0
 10
-10.52606
 20
-14.90204
 30
0.0
 10
-10.52606
 20
-14.90204
 30
0.0
 10
-10.52606
 20
-14.90204
 30
0.0
 10
-10.51973
 20
-14.90444
 30
0.0
 10
-10.51973
 20
-14.90444
 30
0.0
 10
-10.51973
 20
-14.90444
 30
0.0
 10
-10.51375
 20
-14.90663
 30
0.0
 10
-10.50934
 20
-14.90954
 30
0.0
 10
-10.50652
 20
-14.91317
 30
0.0
 10
-10.50652
 20
-14.91317
 30
0.0
 10
-10.50369
 20
-14.9168
 30
0.0
 10
-10.50228
 20
-14.92136
 30
0.0
 10
-10.50228
 20
-14.92687
 30
0.0
 10
-10.50228
 20
-14.92687
 30
0.0
 10
-10.50228
 20
-14.9344
 30
0.0
 10
-10.50449
 20
-14.94
 30
0.0
 10
-10.50894
 20
-14.94371
 30
0.0
 10
-10.50894
 20
-14.94371
 30
0.0
 10
-10.51338
 20
-14.94742
 30
0.0
 10
-10.52009
 20
-14.94928
 30
0.0
 10
-10.52906
 20
-14.94928
 30
0.0
 10
-10.52906
 20
-14.94928
 30
0.0
 10
-10.53275
 20
-14.94928
 30
0.0
 10
-10.53645
 20
-14.94883
 30
0.0
 10
-10.54016
 20
-14.94795
 30
0.0
 10
-10.54016
 20
-14.94795
 30
0.0
 10
-10.54385
 20
-14.94706
 30
0.0
 10
-10.54744
 20
-14.94577
 30
0.0
 10
-10.5509
 20
-14.94403
 30
0.0
 10
-10.5509
 20
-14.94403
 30
0.0
 10
-10.5509
 20
-14.94403
 30
0.0
 10
-10.5509
 20
-14.92881
 30
0.0
 10
-10.5509
 20
-14.92881
 30
0.0
 10
-10.5509
 20
-14.92881
 30
0.0
 10
-10.54698
 20
-14.93161
 30
0.0
 10
-10.54317
 20
-14.9337
 30
0.0
 10
-10.53951
 20
-14.93506
 30
0.0
 10
-10.53951
 20
-14.93506
 30
0.0
 10
-10.53583
 20
-14.93642
 30
0.0
 10
-10.53221
 20
-14.93711
 30
0.0
 10
-10.52862
 20
-14.93711
 30
0.0
 10
-10.52862
 20
-14.93711
 30
0.0
 10
-10.52499
 20
-14.93711
 30
0.0
 10
-10.52218
 20
-14.93629
 30
0.0
 10
-10.52019
 20
-14.93464
 30
0.0
 10
-10.52019
 20
-14.93464
 30
0.0
 10
-10.5182
 20
-14.93299
 30
0.0
 10
-10.51719
 20
-14.93069
 30
0.0
 10
-10.51719
 20
-14.92773
 30
0.0
 10
-10.51719
 20
-14.92773
 30
0.0
 10
-10.51719
 20
-14.9255
 30
0.0
 10
-10.51786
 20
-14.92354
 30
0.0
 10
-10.51918
 20
-14.92187
 30
0.0
 10
-10.51918
 20
-14.92187
 30
0.0
 10
-10.52051
 20
-14.92018
 30
0.0
 10
-10.52244
 20
-14.91886
 30
0.0
 10
-10.52497
 20
-14.9179
 30
0.0
 10
-10.52497
 20
-14.9179
 30
0.0
 10
-10.52497
 20
-14.9179
 30
0.0
 10
-10.53221
 20
-14.91516
 30
0.0
 10
-10.53221
 20
-14.91516
 30
0.0
  0
SPLINE
  5
7D
330
1F
100
AcDbEntity
  8
Layer 1
 62
     7
370
    20
100
AcDbSpline
210
0.0
220
0.0
230
1.0
 70
    11
 71
     3
 72
   120
 73
   116
 74
     0
 42
0.0000000001
 43
0.0000000001
 40
0.0
 40
0.0
 40
0.0
 40
0.0
 40
0.0344827586206897
 40
0.0344827586206897
 40
0.0344827586206897
 40
0.0344827586206897
 40
0.0689655172413793
 40
0.0689655172413793
 40
0.0689655172413793
 40
0.0689655172413793
 40
0.103448275862069
 40
0.103448275862069
 40
0.103448275862069
 40
0.103448275862069
 40
0.1379310344827586
 40
0.1379310344827586
 40
0.1379310344827586
 40
0.1379310344827586
 40
0.1724137931034483
 40
0.1724137931034483
 40
0.1724137931034483
 40
0.1724137931034483
 40
0.206896551724138
 40
0.206896551724138
 40
0.206896551724138
 40
0.206896551724138
 40
0.2413793103448276
 40
0.2413793103448276
 40
0.2413793103448276
 40
0.2413793103448276
 40
0.2758620689655173
 40
0.2758620689655173
 40
0.2758620689655173
 40
0.2758620689655173
 40
0.310344827586207
 40
0.310344827586207
 40
0.310344827586207
 40
0.310344827586207
 40
0.3448275862068966
 40
0.3448275862068966
 40
0.3448275862068966
 40
0.3448275862068966
 40
0.3793103448275863
 40
0.3793103448275863
 40
0.3793103448275863
 40
0.3793103448275863
 40
0.413793103448276
 40
0.413793103448276
 40
0.413793103448276
 40
0.413793103448276
 40
0.4482758620689656
 40
0.4482758620689656
 40
0.4482758620689656
 40
0.4482758620689656
 40
0.4827586206896553
 40
0.4827586206896553
 40
0.4827586206896553
 40
0.4827586206896553
 40
0.517241379310345
 40
0.517241379310345
 40
0.517241379310345
 40
0.517241379310345
 40
0.5517241379310346
 40
0.5517241379310346
 40
0.5517241379310346
 40
0.5517241379310346
 40
0.5862068965517242
 40
0.5862068965517242
 40
0.5862068965517242
 40
0.5862068965517242
 40
0.6206896551724138
 40
0.6206896551724138
 40
0.6206896551724138
 40
0.6206896551724138
 40
0.6551724137931034
 40
0.6551724137931034
 40
0.6551724137931034
 40
0.6551724137931034
 40
0.689655172413793
 40
0.689655172413793
 40
0.689655172413793
 40
0.689655172413793
 40
0.7241379310344827
 40
0.7241379310344827
 40
0.7241379310344827
 40
0.7241379310344827
 40
0.7586206896551723
 40
0.7586206896551723
 40
0.7586206896551723
 40
0.7586206896551723
 40
0.7931034482758619
 40
0.7931034482758619
 40
0.7931034482758619
 40
0.7931034482758619
 40
0.8275862068965515
 40
0.8275862068965515
 40
0.8275862068965515
 40
0.8275862068965515
 40
0.8620689655172411
 40
0.8620689655172411
 40
0.8620689655172411
 40
0.8620689655172411
 40
0.8965517241379307
 40
0.8965517241379307
 40
0.8965517241379307
 40
0.8965517241379307
 40
0.9310344827586203
 40
0.9310344827586203
 40
0.9310344827586203
 40
0.9310344827586203
 40
0.9655172413793099
 40
0.9655172413793099
 40
0.9655172413793099
 40
0.9655172413793099
 40
1.0
 40
1.0
 40
1.0
 40
1.0
 10
-10.46878
 20
-14.91452
 30
0.0
 10
-10.46878
 20
-14.91452
 30
0.0
 10
-10.47666
 20
-14.91452
 30
0.0
 10
-10.47666
 20
-14.91452
 30
0.0
 10
-10.47666
 20
-14.91452
 30
0.0
 10
-10.47666
 20
-14.91452
 30
0.0
 10
-10.47666
 20
-14.90154
 30
0.0
 10
-10.47666
 20
-14.90154
 30
0.0
 10
-10.47666
 20
-14.90154
 30
0.0
 10
-10.47666
 20
-14.90154
 30
0.0
 10
-10.46878
 20
-14.90154
 30
0.0
 10
-10.46878
 20
-14.90154
 30
0.0
 10
-10.46878
 20
-14.90154
 30
0.0
 10
-10.46513
 20
-14.90154
 30
0.0
 10
-10.46229
 20
-14.90083
 30
0.0
 10
-10.46028
 20
-14.89938
 30
0.0
 10
-10.46028
 20
-14.89938
 30
0.0
 10
-10.45827
 20
-14.89793
 30
0.0
 10
-10.45727
 20
-14.89589
 30
0.0
 10
-10.45727
 20
-14.89327
 30
0.0
 10
-10.45727
 20
-14.89327
 30
0.0
 10
-10.45727
 20
-14.89051
 30
0.0
 10
-10.45827
 20
-14.88835
 30
0.0
 10
-10.46028
 20
-14.8868
 30
0.0
 10
-10.46028
 20
-14.8868
 30
0.0
 10
-10.46229
 20
-14.88525
 30
0.0
 10
-10.46513
 20
-14.88449
 30
0.0
 10
-10.46878
 20
-14.88449
 30
0.0
 10
-10.46878
 20
-14.88449
 30
0.0
 10
-10.47157
 20
-14.88449
 30
0.0
 10
-10.47456
 20
-14.88484
 30
0.0
 10
-10.47775
 20
-14.88554
 30
0.0
 10
-10.47775
 20
-14.88554
 30
0.0
 10
-10.48095
 20
-14.88624
 30
0.0
 10
-10.48425
 20
-14.88726
 30
0.0
 10
-10.48767
 20
-14.88859
 30
0.0
 10
-10.48767
 20
-14.88859
 30
0.0
 10
-10.48767
 20
-14.88859
 30
0.0
 10
-10.48767
 20
-14.87523
 30
0.0
 10
-10.48767
 20
-14.87523
 30
0.0
 10
-10.48767
 20
-14.87523
 30
0.0
 10
-10.48425
 20
-14.87419
 30
0.0
 10
-10.48088
 20
-14.8734
 30
0.0
 10
-10.47756
 20
-14.87284
 30
0.0
 10
-10.47756
 20
-14.87284
 30
0.0
 10
-10.47422
 20
-14.8723
 30
0.0
 10
-10.47104
 20
-14.87203
 30
0.0
 10
-10.46798
 20
-14.87203
 30
0.0
 10
-10.46798
 20
-14.87203
 30
0.0
 10
-10.46013
 20
-14.87203
 30
0.0
 10
-10.45402
 20
-14.87374
 30
0.0
 10
-10.44964
 20
-14.87717
 30
0.0
 10
-10.44964
 20
-14.87717
 30
0.0
 10
-10.44525
 20
-14.88059
 30
0.0
 10
-10.44305
 20
-14.8853
 30
0.0
 10
-10.44305
 20
-14.89133
 30
0.0
 10
-10.44305
 20
-14.89133
 30
0.0
 10
-10.44305
 20
-14.89574
 30
0.0
 10
-10.44431
 20
-14.89936
 30
0.0
 10
-10.44685
 20
-14.90217
 30
0.0
 10
-10.44685
 20
-14.90217
 30
0.0
 10
-10.44937
 20
-14.90498
 30
0.0
 10
-10.45298
 20
-14.90682
 30
0.0
 10
-10.45766
 20
-14.90767
 30
0.0
 10
-10.45766
 20
-14.90767
 30
0.0
 10
-10.45235
 20
-14.90861
 30
0.0
 10
-10.44828
 20
-14.91074
 30
0.0
 10
-10.44549
 20
-14.91404
 30
0.0
 10
-10.44549
 20
-14.91404
 30
0.0
 10
-10.4427
 20
-14.91734
 30
0.0
 10
-10.4413
 20
-14.9217
 30
0.0
 10
-10.4413
 20
-14.92708
 30
0.0
 10
-10.4413
 20
-14.92708
 30
0.0
 10
-10.4413
 20
-14.9343
 30
0.0
 10
-10.44362
 20
-14.93979
 30
0.0
 10
-10.44823
 20
-14.94359
 30
0.0
 10
-10.44823
 20
-14.94359
 30
0.0
 10
-10.45286
 20
-14.94739
 30
0.0
 10
-10.45957
 20
-14.94928
 30
0.0
 10
-10.46838
 20
-14.94928
 30
0.0
 10
-10.46838
 20
-14.94928
 30
0.0
 10
-10.47213
 20
-14.94928
 30
0.0
 10
-10.47582
 20
-14.94895
 30
0.0
 10
-10.47947
 20
-14.94832
 30
0.0
 10
-10.47947
 20
-14.94832
 30
0.0
 10
-10.48311
 20
-14.94769
 30
0.0
 10
-10.4866
 20
-14.94677
 30
0.0
 10
-10.48992
 20
-14.94558
 30
0.0
 10
-10.48992
 20
-14.94558
 30
0.0
 10
-10.48992
 20
-14.94558
 30
0.0
 10
-10.48992
 20
-14.93191
 30
0.0
 10
-10.48992
 20
-14.93191
 30
0.0
 10
-10.48992
 20
-14.93191
 30
0.0
 10
-10.48679
 20
-14.93348
 30
0.0
 10
-10.48342
 20
-14.93467
 30
0.0
 10
-10.47979
 20
-14.93549
 30
0.0
 10
-10.47979
 20
-14.93549
 30
0.0
 10
-10.47618
 20
-14.93631
 30
0.0
 10
-10.47237
 20
-14.93671
 30
0.0
 10
-10.46838
 20
-14.93671
 30
0.0
 10
-10.46838
 20
-14.93671
 30
0.0
 10
-10.46438
 20
-14.93671
 30
0.0
 10
-10.46124
 20
-14.93579
 30
0.0
 10
-10.4589
 20
-14.93394
 30
0.0
 10
-10.4589
 20
-14.93394
 30
0.0
 10
-10.45657
 20
-14.9321
 30
0.0
 10
-10.45541
 20
-14.92962
 30
0.0
 10
-10.45541
 20
-14.92648
 30
0.0
 10
-10.45541
 20
-14.92648
 30
0.0
 10
-10.45541
 20
-14.92267
 30
0.0
 10
-10.45657
 20
-14.91971
 30
0.0
 10
-10.4589
 20
-14.91763
 30
0.0
 10
-10.4589
 20
-14.91763
 30
0.0
 10
-10.46124
 20
-14.91555
 30
0.0
 10
-10.46452
 20
-14.91452
 30
0.0
 10
-10.46878
 20
-14.91452
 30
0.0
  0
SPLINE
  5
7E
330
1F
100
AcDbEntity
  8
Layer 1
 62
     7
370
    20
100
AcDbSpline
210
0.0
220
0.0
230
1.0
 70
    11
 71
     3
 72
    36
 73
    32
 74
     0
 42
0.0000000001
 43
0.0000000001
 40
0.0
 40
0.0
 40
0.0
 40
0.0
 40
0.125
 40
0.125
 40
0.125
 40
0.125
 40
0.25
 40
0.25
 40
0.25
 40
0.25
 40
0.375
 40
0.375
 40
0.375
 40
0.375
 40
0.5
 40
0.5
 40
0.5
 40
0.5
 40
0.625
 40
0.625
 40
0.625
 40
0.625
 40
0.75
 40
0.75
 40
0.75
 40
0.75
 40
0.875
 40
0.875
 40
0.875
 40
0.875
 40
1.0
 40
1.0
 40
1.0
 40
1.0
 10
-10.41013
 20
-14.91067
 30
0.0
 10
-10.41013
 20
-14.90891
 30
0.0
 10
-10.40953
 20
-14.90743
 30
0.0
 10
-10.40832
 20
-14.90624
 30
0.0
 10
-10.40832
 20
-14.90624
 30
0.0
 10
-10.40713
 20
-14.90503
 30
0.0
 10
-10.40567
 20
-14.90444
 30
0.0
 10
-10.40393
 20
-14.90444
 30
0.0
 10
-10.40393
 20
-14.90444
 30
0.0
 10
-10.40218
 20
-14.90444
 30
0.0
 10
-10.4007
 20
-14.90503
 30
0.0
 10
-10.39951
 20
-14.90624
 30
0.0
 10
-10.39951
 20
-14.90624
 30
0.0
 10
-10.3983
 20
-14.90743
 30
0.0
 10
-10.3977
 20
-14.90891
 30
0.0
 10
-10.3977
 20
-14.91067
 30
0.0
 10
-10.3977
 20
-14.91067
 30
0.0
 10
-10.3977
 20
-14.9124
 30
0.0
 10
-10.3983
 20
-14.91387
 30
0.0
 10
-10.39951
 20
-14.91506
 30
0.0
 10
-10.39951
 20
-14.91506
 30
0.0
 10
-10.4007
 20
-14.91627
 30
0.0
 10
-10.40218
 20
-14.91686
 30
0.0
 10
-10.40393
 20
-14.91686
 30
0.0
 10
-10.40393
 20
-14.91686
 30
0.0
 10
-10.40567
 20
-14.91686
 30
0.0
 10
-10.40713
 20
-14.91627
 30
0.0
 10
-10.40832
 20
-14.91509
 30
0.0
 10
-10.40832
 20
-14.91509
 30
0.0
 10
-10.40953
 20
-14.91392
 30
0.0
 10
-10.41013
 20
-14.91244
 30
0.0
 10
-10.41013
 20
-14.91067
 30
0.0
  0
SPLINE
  5
7F
330
1F
100
AcDbEntity
  8
Layer 1
 62
     7
370
    20
100
AcDbSpline
210
0.0
220
0.0
230
1.0
 70
    11
 71
     3
 72
    36
 73
    32
 74
     0
 42
0.0000000001
 43
0.0000000001
 40
0.0
 40
0.0
 40
0.0
 40
0.0
 40
0.125
 40
0.125
 40
0.125
 40
0.125
 40
0.25
 40
0.25
 40
0.25
 40
0.25
 40
0.375
 40
0.375
 40
0.375
 40
0.375
 40
0.5
 40
0.5
 40
0.5
 40
0.5
 40
0.625
 40
0.625
 40
0.625
 40
0.625
 40
0.75
 40
0.75
 40
0.75
 40
0.75
 40
0.875
 40
0.875
 40
0.875
 40
0.875
 40
1.0
 40
1.0
 40
1.0
 40
1.0
 10
-10.40393
 20
-14.88449
 30
0.0
 10
-10.40734
 20
-14.88449
 30
0.0
 10
-10.40981
 20
-14.88656
 30
0.0
 10
-10.41137
 20
-14.89072
 30
0.0
 10
-10.41137
 20
-14.89072
 30
0.0
 10
-10.41294
 20
-14.89489
 30
0.0
 10
-10.41372
 20
-14.90153
 30
0.0
 10
-10.41372
 20
-14.91067
 30
0.0
 10
-10.41372
 20
-14.91067
 30
0.0
 10
-10.41372
 20
-14.91979
 30
0.0
 10
-10.41294
 20
-14.92641
 30
0.0
 10
-10.41137
 20
-14.93059
 30
0.0
 10
-10.41137
 20
-14.93059
 30
0.0
 10
-10.40981
 20
-14.93474
 30
0.0
 10
-10.40734
 20
-14.93682
 30
0.0
 10
-10.40393
 20
-14.93682
 30
0.0
 10
-10.40393
 20
-14.93682
 30
0.0
 10
-10.40051
 20
-14.93682
 30
0.0
 10
-10.39803
 20
-14.93474
 30
0.0
 10
-10.39646
 20
-14.93059
 30
0.0
 10
-10.39646
 20
-14.93059
 30
0.0
 10
-10.39489
 20
-14.92641
 30
0.0
 10
-10.39411
 20
-14.91979
 30
0.0
 10
-10.39411
 20
-14.91067
 30
0.0
 10
-10.39411
 20
-14.91067
 30
0.0
 10
-10.39411
 20
-14.90153
 30
0.0
 10
-10.39489
 20
-14.89489
 30
0.0
 10
-10.39646
 20
-14.89072
 30
0.0
 10
-10.39646
 20
-14.89072
 30
0.0
 10
-10.39803
 20
-14.88656
 30
0.0
 10
-10.40051
 20
-14.88449
 30
0.0
 10
-10.40393
 20
-14.88449
 30
0.0
  0
SPLINE
  5
80
330
1F
100
AcDbEntity
  8
Layer 1
 62
     7
370
    20
100
AcDbSpline
210
0.0
220
0.0
230
1.0
 70
    11
 71
     3
 72
    36
 73
    32
 74
     0
 42
0.0000000001
 43
0.0000000001
 40
0.0
 40
0.0
 40
0.0
 40
0.0
 40
0.125
 40
0.125
 40
0.125
 40
0.125
 40
0.25
 40
0.25
 40
0.25
 40
0.25
 40
0.375
 40
0.375
 40
0.375
 40
0.375
 40
0.5
 40
0.5
 40
0.5
 40
0.5
 40
0.625
 40
0.625
 40
0.625
 40
0.625
 40
0.75
 40
0.75
 40
0.75
 40
0.75
 40
0.875
 40
0.875
 40
0.875
 40
0.875
 40
1.0
 40
1.0
 40
1.0
 40
1.0
 10
-10.42853
 20
-14.91067
 30
0.0
 10
-10.42853
 20
-14.89778
 30
0.0
 10
-10.42649
 20
-14.88811
 30
0.0
 10
-10.4224
 20
-14.88168
 30
0.0
 10
-10.4224
 20
-14.88168
 30
0.0
 10
-10.4183
 20
-14.87524
 30
0.0
 10
-10.41216
 20
-14.87203
 30
0.0
 10
-10.40393
 20
-14.87203
 30
0.0
 10
-10.40393
 20
-14.87203
 30
0.0
 10
-10.39569
 20
-14.87203
 30
0.0
 10
-10.38953
 20
-14.87523
 30
0.0
 10
-10.38543
 20
-14.88164
 30
0.0
 10
-10.38543
 20
-14.88164
 30
0.0
 10
-10.38134
 20
-14.88806
 30
0.0
 10
-10.3793
 20
-14.89775
 30
0.0
 10
-10.3793
 20
-14.91067
 30
0.0
 10
-10.3793
 20
-14.91067
 30
0.0
 10
-10.3793
 20
-14.92357
 30
0.0
 10
-10.38134
 20
-14.93324
 30
0.0
 10
-10.38543
 20
-14.93966
 30
0.0
 10
-10.38543
 20
-14.93966
 30
0.0
 10
-10.38953
 20
-14.94608
 30
0.0
 10
-10.39569
 20
-14.94928
 30
0.0
 10
-10.40393
 20
-14.94928
 30
0.0
 10
-10.40393
 20
-14.94928
 30
0.0
 10
-10.41216
 20
-14.94928
 30
0.0
 10
-10.4183
 20
-14.94606
 30
0.0
 10
-10.4224
 20
-14.93962
 30
0.0
 10
-10.4224
 20
-14.93962
 30
0.0
 10
-10.42649
 20
-14.93319
 30
0.0
 10
-10.42853
 20
-14.92354
 30
0.0
 10
-10.42853
 20
-14.91067
 30
0.0
  0
SPLINE
  5
81
330
1F
100
AcDbEntity
  8
Layer 1
 62
     7
370
    20
100
AcDbSpline
210
0.0
220
0.0
230
1.0
 70
    11
 71
     3
 72
    92
 73
    88
 74
     0
 42
0.0000000001
 43
0.0000000001
 40
0.0
 40
0.0
 40
0.0
 40
0.0
 40
0.0454545454545455
 40
0.0454545454545455
 40
0.0454545454545455
 40
0.0454545454545455
 40
0.0909090909090909
 40
0.0909090909090909
 40
0.0909090909090909
 40
0.0909090909090909
 40
0.1363636363636364
 40
0.1363636363636364
 40
0.1363636363636364
 40
0.1363636363636364
 40
0.1818181818181818
 40
0.1818181818181818
 40
0.1818181818181818
 40
0.1818181818181818
 40
0.2272727272727273
 40
0.2272727272727273
 40
0.2272727272727273
 40
0.2272727272727273
 40
0.2727272727272728
 40
0.2727272727272728
 40
0.2727272727272728
 40
0.2727272727272728
 40
0.3181818181818182
 40
0.3181818181818182
 40
0.3181818181818182
 40
0.3181818181818182
 40
0.3636363636363637
 40
0.3636363636363637
 40
0.3636363636363637
 40
0.3636363636363637
 40
0.4090909090909092
 40
0.4090909090909092
 40
0.4090909090909092
 40
0.4090909090909092
 40
0.4545454545454546
 40
0.4545454545454546
 40
0.4545454545454546
 40
0.4545454545454546
 40
0.5000000000000001
 40
0.5000000000000001
 40
0.5000000000000001
 40
0.5000000000000001
 40
0.5454545454545455
 40
0.5454545454545455
 40
0.5454545454545455
 40
0.5454545454545455
 40
0.5909090909090909
 40
0.5909090909090909
 40
0.5909090909090909
 40
0.5909090909090909
 40
0.6363636363636364
 40
0.6363636363636364
 40
0.6363636363636364
 40
0.6363636363636364
 40
0.6818181818181818
 40
0.6818181818181818
 40
0.6818181818181818
 40
0.6818181818181818
 40
0.7272727272727272
 40
0.7272727272727272
 40
0.7272727272727272
 40
0.7272727272727272
 40
0.7727272727272726
 40
0.7727272727272726
 40
0.7727272727272726
 40
0.7727272727272726
 40
0.818181818181818
 40
0.818181818181818
 40
0.818181818181818
 40
0.818181818181818
 40
0.8636363636363634
 40
0.8636363636363634
 40
0.8636363636363634
 40
0.8636363636363634
 40
0.9090909090909088
 40
0.9090909090909088
 40
0.9090909090909088
 40
0.9090909090909088
 40
0.9545454545454543
 40
0.9545454545454543
 40
0.9545454545454543
 40
0.9545454545454543
 40
1.0
 40
1.0
 40
1.0
 40
1.0
 10
-10.36355
 20
-14.87337
 30
0.0
 10
-10.36355
 20
-14.87337
 30
0.0
 10
-10.3231
 20
-14.87337
 30
0.0
 10
-10.3231
 20
-14.87337
 30
0.0
 10
-10.3231
 20
-14.87337
 30
0.0
 10
-10.3231
 20
-14.87337
 30
0.0
 10
-10.3231
 20
-14.88634
 30
0.0
 10
-10.3231
 20
-14.88634
 30
0.0
 10
-10.3231
 20
-14.88634
 30
0.0
 10
-10.3231
 20
-14.88634
 30
0.0
 10
-10.35164
 20
-14.88634
 30
0.0
 10
-10.35164
 20
-14.88634
 30
0.0
 10
-10.35164
 20
-14.88634
 30
0.0
 10
-10.35164
 20
-14.88634
 30
0.0
 10
-10.35164
 20
-14.90015
 30
0.0
 10
-10.35164
 20
-14.90015
 30
0.0
 10
-10.35164
 20
-14.90015
 30
0.0
 10
-10.35044
 20
-14.89969
 30
0.0
 10
-10.34915
 20
-14.89935
 30
0.0
 10
-10.34779
 20
-14.89913
 30
0.0
 10
-10.34779
 20
-14.89913
 30
0.0
 10
-10.34643
 20
-14.8989
 30
0.0
 10
-10.34498
 20
-14.8988
 30
0.0
 10
-10.34345
 20
-14.8988
 30
0.0
 10
-10.34345
 20
-14.8988
 30
0.0
 10
-10.33608
 20
-14.8988
 30
0.0
 10
-10.33008
 20
-14.90113
 30
0.0
 10
-10.32549
 20
-14.90578
 30
0.0
 10
-10.32549
 20
-14.90578
 30
0.0
 10
-10.32091
 20
-14.91045
 30
0.0
 10
-10.31861
 20
-14.91649
 30
0.0
 10
-10.31861
 20
-14.92395
 30
0.0
 10
-10.31861
 20
-14.92395
 30
0.0
 10
-10.31861
 20
-14.93176
 30
0.0
 10
-10.3211
 20
-14.93792
 30
0.0
 10
-10.32607
 20
-14.94247
 30
0.0
 10
-10.32607
 20
-14.94247
 30
0.0
 10
-10.33104
 20
-14.94701
 30
0.0
 10
-10.33781
 20
-14.94928
 30
0.0
 10
-10.34639
 20
-14.94928
 30
0.0
 10
-10.34639
 20
-14.94928
 30
0.0
 10
-10.34958
 20
-14.94928
 30
0.0
 10
-10.35281
 20
-14.949
 30
0.0
 10
-10.35606
 20
-14.94848
 30
0.0
 10
-10.35606
 20
-14.94848
 30
0.0
 10
-10.35931
 20
-14.94795
 30
0.0
 10
-10.36265
 20
-14.94715
 30
0.0
 10
-10.36604
 20
-14.94608
 30
0.0
 10
-10.36604
 20
-14.94608
 30
0.0
 10
-10.36604
 20
-14.94608
 30
0.0
 10
-10.36604
 20
-14.93282
 30
0.0
 10
-10.36604
 20
-14.93282
 30
0.0
 10
-10.36604
 20
-14.93282
 30
0.0
 10
-10.36328
 20
-14.93418
 30
0.0
 10
-10.36044
 20
-14.9352
 30
0.0
 10
-10.35754
 20
-14.93588
 30
0.0
 10
-10.35754
 20
-14.93588
 30
0.0
 10
-10.35463
 20
-14.93656
 30
0.0
 10
-10.3517
 20
-14.9369
 30
0.0
 10
-10.34878
 20
-14.9369
 30
0.0
 10
-10.34878
 20
-14.9369
 30
0.0
 10
-10.3436
 20
-14.9369
 30
0.0
 10
-10.33965
 20
-14.93579
 30
0.0
 10
-10.33696
 20
-14.93358
 30
0.0
 10
-10.33696
 20
-14.93358
 30
0.0
 10
-10.33427
 20
-14.93137
 30
0.0
 10
-10.33293
 20
-14.92817
 30
0.0
 10
-10.33293
 20
-14.92395
 30
0.0
 10
-10.33293
 20
-14.92395
 30
0.0
 10
-10.33293
 20
-14.92005
 30
0.0
 10
-10.33427
 20
-14.91693
 30
0.0
 10
-10.33694
 20
-14.91458
 30
0.0
 10
-10.33694
 20
-14.91458
 30
0.0
 10
-10.33962
 20
-14.91225
 30
0.0
 10
-10.34319
 20
-14.91108
 30
0.0
 10
-10.34764
 20
-14.91108
 30
0.0
 10
-10.34764
 20
-14.91108
 30
0.0
 10
-10.35027
 20
-14.91108
 30
0.0
 10
-10.3529
 20
-14.9114
 30
0.0
 10
-10.35555
 20
-14.91205
 30
0.0
 10
-10.35555
 20
-14.91205
 30
0.0
 10
-10.35819
 20
-14.91269
 30
0.0
 10
-10.36086
 20
-14.91368
 30
0.0
 10
-10.36355
 20
-14.91497
 30
0.0
 10
-10.36355
 20
-14.91497
 30
0.0
 10
-10.36355
 20
-14.91497
 30
0.0
 10
-10.36355
 20
-14.87337
 30
0.0
 10
-10.36355
 20
-14.87337
 30
0.0
  0
SPLINE
  5
82
330
1F
100
AcDbEntity
  8
Layer 1
 62
   250
100
AcDbSpline
210
0.0
220
0.0
230
1.0
 70
    11
 71
     3
 72
    36
 73
    32
 74
     0
 42
0.0000000001
 43
0.0000000001
 40
0.0
 40
0.0
 40
0.0
 40
0.0
 40
0.125
 40
0.125
 40
0.125
 40
0.125
 40
0.25
 40
0.25
 40
0.25
 40
0.25
 40
0.375
 40
0.375
 40
0.375
 40
0.375
 40
0.5
 40
0.5
 40
0.5
 40
0.5
 40
0.625
 40
0.625
 40
0.625
 40
0.625
 40
0.75
 40
0.75
 40
0.75
 40
0.75
 40
0.875
 40
0.875
 40
0.875
 40
0.875
 40
1.0
 40
1.0
 40
1.0
 40
1.0
 10
-10.68064
 20
-14.77952
 30
0.0
 10
-10.68531
 20
-14.77952
 30
0.0
 10
-10.68883
 20
-14.78133
 30
0.0
 10
-10.69123
 20
-14.78495
 30
0.0
 10
-10.69123
 20
-14.78495
 30
0.0
 10
-10.69363
 20
-14.78858
 30
0.0
 10
-10.69482
 20
-14.79396
 30
0.0
 10
-10.69482
 20
-14.80106
 30
0.0
 10
-10.69482
 20
-14.80106
 30
0.0
 10
-10.69482
 20
-14.80814
 30
0.0
 10
-10.69363
 20
-14.8135
 30
0.0
 10
-10.69123
 20
-14.81714
 30
0.0
 10
-10.69123
 20
-14.81714
 30
0.0
 10
-10.68883
 20
-14.82079
 30
0.0
 10
-10.68531
 20
-14.82261
 30
0.0
 10
-10.68064
 20
-14.82261
 30
0.0
 10
-10.68064
 20
-14.82261
 30
0.0
 10
-10.67596
 20
-14.82261
 30
0.0
 10
-10.67242
 20
-14.82079
 30
0.0
 10
-10.67002
 20
-14.81714
 30
0.0
 10
-10.67002
 20
-14.81714
 30
0.0
 10
-10.66762
 20
-14.8135
 30
0.0
 10
-10.66643
 20
-14.80814
 30
0.0
 10
-10.66643
 20
-14.80106
 30
0.0
 10
-10.66643
 20
-14.80106
 30
0.0
 10
-10.66643
 20
-14.79396
 30
0.0
 10
-10.66762
 20
-14.78858
 30
0.0
 10
-10.67002
 20
-14.78495
 30
0.0
 10
-10.67002
 20
-14.78495
 30
0.0
 10
-10.67242
 20
-14.78133
 30
0.0
 10
-10.67596
 20
-14.77952
 30
0.0
 10
-10.68064
 20
-14.77952
 30
0.0
  0
SPLINE
  5
83
330
1F
100
AcDbEntity
  8
Layer 1
 62
   250
100
AcDbSpline
210
0.0
220
0.0
230
1.0
 70
    11
 71
     3
 72
    36
 73
    32
 74
     0
 42
0.0000000001
 43
0.0000000001
 40
0.0
 40
0.0
 40
0.0
 40
0.0
 40
0.125
 40
0.125
 40
0.125
 40
0.125
 40
0.25
 40
0.25
 40
0.25
 40
0.25
 40
0.375
 40
0.375
 40
0.375
 40
0.375
 40
0.5
 40
0.5
 40
0.5
 40
0.5
 40
0.625
 40
0.625
 40
0.625
 40
0.625
 40
0.75
 40
0.75
 40
0.75
 40
0.75
 40
0.875
 40
0.875
 40
0.875
 40
0.875
 40
1.0
 40
1.0
 40
1.0
 40
1.0
 10
-10.68064
 20
-14.77174
 30
0.0
 10
-10.6729
 20
-14.77174
 30
0.0
 10
-10.66697
 20
-14.77424
 30
0.0
 10
-10.66287
 20
-14.77927
 30
0.0
 10
-10.66287
 20
-14.77927
 30
0.0
 10
-10.65877
 20
-14.78429
 30
0.0
 10
-10.65671
 20
-14.79156
 30
0.0
 10
-10.65671
 20
-14.80106
 30
0.0
 10
-10.65671
 20
-14.80106
 30
0.0
 10
-10.65671
 20
-14.81061
 30
0.0
 10
-10.65875
 20
-14.81787
 30
0.0
 10
-10.66284
 20
-14.82288
 30
0.0
 10
-10.66284
 20
-14.82288
 30
0.0
 10
-10.66694
 20
-14.82788
 30
0.0
 10
-10.67286
 20
-14.83039
 30
0.0
 10
-10.68064
 20
-14.83039
 30
0.0
 10
-10.68064
 20
-14.83039
 30
0.0
 10
-10.68841
 20
-14.83039
 30
0.0
 10
-10.69431
 20
-14.82788
 30
0.0
 10
-10.69842
 20
-14.82288
 30
0.0
 10
-10.69842
 20
-14.82288
 30
0.0
 10
-10.7025
 20
-14.81787
 30
0.0
 10
-10.70454
 20
-14.81061
 30
0.0
 10
-10.70454
 20
-14.80106
 30
0.0
 10
-10.70454
 20
-14.80106
 30
0.0
 10
-10.70454
 20
-14.79156
 30
0.0
 10
-10.7025
 20
-14.78429
 30
0.0
 10
-10.69842
 20
-14.77927
 30
0.0
 10
-10.69842
 20
-14.77927
 30
0.0
 10
-10.69431
 20
-14.77424
 30
0.0
 10
-10.68841
 20
-14.77174
 30
0.0
 10
-10.68064
 20
-14.77174
 30
0.0
  0
SPLINE
  5
84
330
1F
100
AcDbEntity
  8
Layer 1
 62
   250
100
AcDbSpline
210
0.0
220
0.0
230
1.0
 70
    11
 71
     3
 72
    36
 73
    32
 74
     0
 42
0.0000000001
 43
0.0000000001
 40
0.0
 40
0.0
 40
0.0
 40
0.0
 40
0.125
 40
0.125
 40
0.125
 40
0.125
 40
0.25
 40
0.25
 40
0.25
 40
0.25
 40
0.375
 40
0.375
 40
0.375
 40
0.375
 40
0.5
 40
0.5
 40
0.5
 40
0.5
 40
0.625
 40
0.625
 40
0.625
 40
0.625
 40
0.75
 40
0.75
 40
0.75
 40
0.75
 40
0.875
 40
0.875
 40
0.875
 40
0.875
 40
1.0
 40
1.0
 40
1.0
 40
1.0
 10
-10.61915
 20
-14.77952
 30
0.0
 10
-10.62382
 20
-14.77952
 30
0.0
 10
-10.62734
 20
-14.78133
 30
0.0
 10
-10.62974
 20
-14.78495
 30
0.0
 10
-10.62974
 20
-14.78495
 30
0.0
 10
-10.63214
 20
-14.78858
 30
0.0
 10
-10.63333
 20
-14.79396
 30
0.0
 10
-10.63333
 20
-14.80106
 30
0.0
 10
-10.63333
 20
-14.80106
 30
0.0
 10
-10.63333
 20
-14.80814
 30
0.0
 10
-10.63214
 20
-14.8135
 30
0.0
 10
-10.62974
 20
-14.81714
 30
0.0
 10
-10.62974
 20
-14.81714
 30
0.0
 10
-10.62734
 20
-14.82079
 30
0.0
 10
-10.62382
 20
-14.82261
 30
0.0
 10
-10.61915
 20
-14.82261
 30
0.0
 10
-10.61915
 20
-14.82261
 30
0.0
 10
-10.61447
 20
-14.82261
 30
0.0
 10
-10.61093
 20
-14.82079
 30
0.0
 10
-10.60853
 20
-14.81714
 30
0.0
 10
-10.60853
 20
-14.81714
 30
0.0
 10
-10.60613
 20
-14.8135
 30
0.0
 10
-10.60494
 20
-14.80814
 30
0.0
 10
-10.60494
 20
-14.80106
 30
0.0
 10
-10.60494
 20
-14.80106
 30
0.0
 10
-10.60494
 20
-14.79396
 30
0.0
 10
-10.60613
 20
-14.78858
 30
0.0
 10
-10.60853
 20
-14.78495
 30
0.0
 10
-10.60853
 20
-14.78495
 30
0.0
 10
-10.61093
 20
-14.78133
 30
0.0
 10
-10.61447
 20
-14.77952
 30
0.0
 10
-10.61915
 20
-14.77952
 30
0.0
  0
SPLINE
  5
85
330
1F
100
AcDbEntity
  8
Layer 1
 62
   250
100
AcDbSpline
210
0.0
220
0.0
230
1.0
 70
    11
 71
     3
 72
    36
 73
    32
 74
     0
 42
0.0000000001
 43
0.0000000001
 40
0.0
 40
0.0
 40
0.0
 40
0.0
 40
0.125
 40
0.125
 40
0.125
 40
0.125
 40
0.25
 40
0.25
 40
0.25
 40
0.25
 40
0.375
 40
0.375
 40
0.375
 40
0.375
 40
0.5
 40
0.5
 40
0.5
 40
0.5
 40
0.625
 40
0.625
 40
0.625
 40
0.625
 40
0.75
 40
0.75
 40
0.75
 40
0.75
 40
0.875
 40
0.875
 40
0.875
 40
0.875
 40
1.0
 40
1.0
 40
1.0
 40
1.0
 10
-10.61915
 20
-14.77174
 30
0.0
 10
-10.61141
 20
-14.77174
 30
0.0
 10
-10.60548
 20
-14.77424
 30
0.0
 10
-10.60138
 20
-14.77927
 30
0.0
 10
-10.60138
 20
-14.77927
 30
0.0
 10
-10.59728
 20
-14.78429
 30
0.0
 10
-10.59522
 20
-14.79156
 30
0.0
 10
-10.59522
 20
-14.80106
 30
0.0
 10
-10.59522
 20
-14.80106
 30
0.0
 10
-10.59522
 20
-14.81061
 30
0.0
 10
-10.59726
 20
-14.81787
 30
0.0
 10
-10.60135
 20
-14.82288
 30
0.0
 10
-10.60135
 20
-14.82288
 30
0.0
 10
-10.60545
 20
-14.82788
 30
0.0
 10
-10.61137
 20
-14.83039
 30
0.0
 10
-10.61915
 20
-14.83039
 30
0.0
 10
-10.61915
 20
-14.83039
 30
0.0
 10
-10.62692
 20
-14.83039
 30
0.0
 10
-10.63282
 20
-14.82788
 30
0.0
 10
-10.63693
 20
-14.82288
 30
0.0
 10
-10.63693
 20
-14.82288
 30
0.0
 10
-10.64101
 20
-14.81787
 30
0.0
 10
-10.64305
 20
-14.81061
 30
0.0
 10
-10.64305
 20
-14.80106
 30
0.0
 10
-10.64305
 20
-14.80106
 30
0.0
 10
-10.64305
 20
-14.79156
 30
0.0
 10
-10.64101
 20
-14.78429
 30
0.0
 10
-10.63693
 20
-14.77927
 30
0.0
 10
-10.63693
 20
-14.77927
 30
0.0
 10
-10.63282
 20
-14.77424
 30
0.0
 10
-10.62692
 20
-14.77174
 30
0.0
 10
-10.61915
 20
-14.77174
 30
0.0
  0
SPLINE
  5
86
330
1F
100
AcDbEntity
  8
Layer 1
 62
   250
100
AcDbSpline
210
0.0
220
0.0
230
1.0
 70
    11
 71
     3
 72
   112
 73
   108
 74
     0
 42
0.0000000001
 43
0.0000000001
 40
0.0
 40
0.0
 40
0.0
 40
0.0
 40
0.037037037037037
 40
0.037037037037037
 40
0.037037037037037
 40
0.037037037037037
 40
0.0740740740740741
 40
0.0740740740740741
 40
0.0740740740740741
 40
0.0740740740740741
 40
0.1111111111111111
 40
0.1111111111111111
 40
0.1111111111111111
 40
0.1111111111111111
 40
0.1481481481481481
 40
0.1481481481481481
 40
0.1481481481481481
 40
0.1481481481481481
 40
0.1851851851851852
 40
0.1851851851851852
 40
0.1851851851851852
 40
0.1851851851851852
 40
0.2222222222222222
 40
0.2222222222222222
 40
0.2222222222222222
 40
0.2222222222222222
 40
0.2592592592592592
 40
0.2592592592592592
 40
0.2592592592592592
 40
0.2592592592592592
 40
0.2962962962962963
 40
0.2962962962962963
 40
0.2962962962962963
 40
0.2962962962962963
 40
0.3333333333333333
 40
0.3333333333333333
 40
0.3333333333333333
 40
0.3333333333333333
 40
0.3703703703703703
 40
0.3703703703703703
 40
0.3703703703703703
 40
0.3703703703703703
 40
0.4074074074074074
 40
0.4074074074074074
 40
0.4074074074074074
 40
0.4074074074074074
 40
0.4444444444444444
 40
0.4444444444444444
 40
0.4444444444444444
 40
0.4444444444444444
 40
0.4814814814814815
 40
0.4814814814814815
 40
0.4814814814814815
 40
0.4814814814814815
 40
0.5185185185185185
 40
0.5185185185185185
 40
0.5185185185185185
 40
0.5185185185185185
 40
0.5555555555555556
 40
0.5555555555555556
 40
0.5555555555555556
 40
0.5555555555555556
 40
0.5925925925925926
 40
0.5925925925925926
 40
0.5925925925925926
 40
0.5925925925925926
 40
0.6296296296296295
 40
0.6296296296296295
 40
0.6296296296296295
 40
0.6296296296296295
 40
0.6666666666666665
 40
0.6666666666666665
 40
0.6666666666666665
 40
0.6666666666666665
 40
0.7037037037037035
 40
0.7037037037037035
 40
0.7037037037037035
 40
0.7037037037037035
 40
0.7407407407407405
 40
0.7407407407407405
 40
0.7407407407407405
 40
0.7407407407407405
 40
0.7777777777777775
 40
0.7777777777777775
 40
0.7777777777777775
 40
0.7777777777777775
 40
0.8148148148148144
 40
0.8148148148148144
 40
0.8148148148148144
 40
0.8148148148148144
 40
0.8518518518518514
 40
0.8518518518518514
 40
0.8518518518518514
 40
0.8518518518518514
 40
0.8888888888888884
 40
0.8888888888888884
 40
0.8888888888888884
 40
0.8888888888888884
 40
0.9259259259259254
 40
0.9259259259259254
 40
0.9259259259259254
 40
0.9259259259259254
 40
0.9629629629629624
 40
0.9629629629629624
 40
0.9629629629629624
 40
0.9629629629629624
 40
1.0
 40
1.0
 40
1.0
 40
1.0
 10
-10.55468
 20
-14.77877
 30
0.0
 10
-10.55356
 20
-14.77637
 30
0.0
 10
-10.55211
 20
-14.7746
 30
0.0
 10
-10.55036
 20
-14.77346
 30
0.0
 10
-10.55036
 20
-14.77346
 30
0.0
 10
-10.54862
 20
-14.77232
 30
0.0
 10
-10.54651
 20
-14.77174
 30
0.0
 10
-10.54406
 20
-14.77174
 30
0.0
 10
-10.54406
 20
-14.77174
 30
0.0
 10
-10.53957
 20
-14.77174
 30
0.0
 10
-10.5364
 20
-14.77348
 30
0.0
 10
-10.53456
 20
-14.77695
 30
0.0
 10
-10.53456
 20
-14.77695
 30
0.0
 10
-10.53271
 20
-14.78042
 30
0.0
 10
-10.53179
 20
-14.78696
 30
0.0
 10
-10.53179
 20
-14.79658
 30
0.0
 10
-10.53179
 20
-14.79658
 30
0.0
 10
-10.53179
 20
-14.79658
 30
0.0
 10
-10.53179
 20
-14.82894
 30
0.0
 10
-10.53179
 20
-14.82894
 30
0.0
 10
-10.53179
 20
-14.82894
 30
0.0
 10
-10.53179
 20
-14.82894
 30
0.0
 10
-10.54016
 20
-14.82894
 30
0.0
 10
-10.54016
 20
-14.82894
 30
0.0
 10
-10.54016
 20
-14.82894
 30
0.0
 10
-10.54016
 20
-14.82894
 30
0.0
 10
-10.54016
 20
-14.79697
 30
0.0
 10
-10.54016
 20
-14.79697
 30
0.0
 10
-10.54016
 20
-14.79697
 30
0.0
 10
-10.54016
 20
-14.78909
 30
0.0
 10
-10.54061
 20
-14.7842
 30
0.0
 10
-10.54149
 20
-14.78228
 30
0.0
 10
-10.54149
 20
-14.78228
 30
0.0
 10
-10.54236
 20
-14.78037
 30
0.0
 10
-10.54398
 20
-14.77942
 30
0.0
 10
-10.54631
 20
-14.77942
 30
0.0
 10
-10.54631
 20
-14.77942
 30
0.0
 10
-10.54896
 20
-14.77942
 30
0.0
 10
-10.55079
 20
-14.78044
 30
0.0
 10
-10.55177
 20
-14.78248
 30
0.0
 10
-10.55177
 20
-14.78248
 30
0.0
 10
-10.55274
 20
-14.78453
 30
0.0
 10
-10.55324
 20
-14.78936
 30
0.0
 10
-10.55324
 20
-14.79697
 30
0.0
 10
-10.55324
 20
-14.79697
 30
0.0
 10
-10.55324
 20
-14.79697
 30
0.0
 10
-10.55324
 20
-14.82894
 30
0.0
 10
-10.55324
 20
-14.82894
 30
0.0
 10
-10.55324
 20
-14.82894
 30
0.0
 10
-10.55324
 20
-14.82894
 30
0.0
 10
-10.56161
 20
-14.82894
 30
0.0
 10
-10.56161
 20
-14.82894
 30
0.0
 10
-10.56161
 20
-14.82894
 30
0.0
 10
-10.56161
 20
-14.82894
 30
0.0
 10
-10.56161
 20
-14.79697
 30
0.0
 10
-10.56161
 20
-14.79697
 30
0.0
 10
-10.56161
 20
-14.79697
 30
0.0
 10
-10.56161
 20
-14.78899
 30
0.0
 10
-10.56209
 20
-14.78407
 30
0.0
 10
-10.56304
 20
-14.78221
 30
0.0
 10
-10.56304
 20
-14.78221
 30
0.0
 10
-10.56398
 20
-14.78036
 30
0.0
 10
-10.56568
 20
-14.77942
 30
0.0
 10
-10.56815
 20
-14.77942
 30
0.0
 10
-10.56815
 20
-14.77942
 30
0.0
 10
-10.57058
 20
-14.77942
 30
0.0
 10
-10.57227
 20
-14.78044
 30
0.0
 10
-10.57321
 20
-14.78248
 30
0.0
 10
-10.57321
 20
-14.78248
 30
0.0
 10
-10.57416
 20
-14.78453
 30
0.0
 10
-10.57464
 20
-14.78936
 30
0.0
 10
-10.57464
 20
-14.79697
 30
0.0
 10
-10.57464
 20
-14.79697
 30
0.0
 10
-10.57464
 20
-14.79697
 30
0.0
 10
-10.57464
 20
-14.82894
 30
0.0
 10
-10.57464
 20
-14.82894
 30
0.0
 10
-10.57464
 20
-14.82894
 30
0.0
 10
-10.57464
 20
-14.82894
 30
0.0
 10
-10.58296
 20
-14.82894
 30
0.0
 10
-10.58296
 20
-14.82894
 30
0.0
 10
-10.58296
 20
-14.82894
 30
0.0
 10
-10.58296
 20
-14.82894
 30
0.0
 10
-10.58296
 20
-14.77309
 30
0.0
 10
-10.58296
 20
-14.77309
 30
0.0
 10
-10.58296
 20
-14.77309
 30
0.0
 10
-10.58296
 20
-14.77309
 30
0.0
 10
-10.57464
 20
-14.77309
 30
0.0
 10
-10.57464
 20
-14.77309
 30
0.0
 10
-10.57464
 20
-14.77309
 30
0.0
 10
-10.57464
 20
-14.77309
 30
0.0
 10
-10.57464
 20
-14.77787
 30
0.0
 10
-10.57464
 20
-14.77787
 30
0.0
 10
-10.57464
 20
-14.77787
 30
0.0
 10
-10.57355
 20
-14.77588
 30
0.0
 10
-10.57217
 20
-14.77436
 30
0.0
 10
-10.57052
 20
-14.77331
 30
0.0
 10
-10.57052
 20
-14.77331
 30
0.0
 10
-10.56888
 20
-14.77227
 30
0.0
 10
-10.56701
 20
-14.77174
 30
0.0
 10
-10.56491
 20
-14.77174
 30
0.0
 10
-10.56491
 20
-14.77174
 30
0.0
 10
-10.56238
 20
-14.77174
 30
0.0
 10
-10.56028
 20
-14.77232
 30
0.0
 10
-10.5586
 20
-14.77348
 30
0.0
 10
-10.5586
 20
-14.77348
 30
0.0
 10
-10.55691
 20
-14.77465
 30
0.0
 10
-10.55562
 20
-14.77641
 30
0.0
 10
-10.55468
 20
-14.77877
 30
0.0
  0
SPLINE
  5
87
330
1F
100
AcDbEntity
  8
Layer 1
 62
   250
100
AcDbSpline
210
0.0
220
0.0
230
1.0
 70
    11
 71
     3
 72
    20
 73
    16
 74
     0
 42
0.0000000001
 43
0.0000000001
 40
0.0
 40
0.0
 40
0.0
 40
0.0
 40
0.25
 40
0.25
 40
0.25
 40
0.25
 40
0.5
 40
0.5
 40
0.5
 40
0.5
 40
0.75
 40
0.75
 40
0.75
 40
0.75
 40
1.0
 40
1.0
 40
1.0
 40
1.0
 10
-10.50251
 20
-14.81372
 30
0.0
 10
-10.50251
 20
-14.81372
 30
0.0
 10
-10.48994
 20
-14.81372
 30
0.0
 10
-10.48994
 20
-14.81372
 30
0.0
 10
-10.48994
 20
-14.81372
 30
0.0
 10
-10.48994
 20
-14.81372
 30
0.0
 10
-10.48994
 20
-14.82894
 30
0.0
 10
-10.48994
 20
-14.82894
 30
0.0
 10
-10.48994
 20
-14.82894
 30
0.0
 10
-10.48994
 20
-14.82894
 30
0.0
 10
-10.50251
 20
-14.82894
 30
0.0
 10
-10.50251
 20
-14.82894
 30
0.0
 10
-10.50251
 20
-14.82894
 30
0.0
 10
-10.50251
 20
-14.82894
 30
0.0
 10
-10.50251
 20
-14.81372
 30
0.0
 10
-10.50251
 20
-14.81372
 30
0.0
  0
SPLINE
  5
88
330
1F
100
AcDbEntity
  8
Layer 1
 62
   250
100
AcDbSpline
210
0.0
220
0.0
230
1.0
 70
    11
 71
     3
 72
    52
 73
    48
 74
     0
 42
0.0000000001
 43
0.0000000001
 40
0.0
 40
0.0
 40
0.0
 40
0.0
 40
0.0833333333333333
 40
0.0833333333333333
 40
0.0833333333333333
 40
0.0833333333333333
 40
0.1666666666666667
 40
0.1666666666666667
 40
0.1666666666666667
 40
0.1666666666666667
 40
0.25
 40
0.25
 40
0.25
 40
0.25
 40
0.3333333333333333
 40
0.3333333333333333
 40
0.3333333333333333
 40
0.3333333333333333
 40
0.4166666666666666
 40
0.4166666666666666
 40
0.4166666666666666
 40
0.4166666666666666
 40
0.4999999999999999
 40
0.4999999999999999
 40
0.4999999999999999
 40
0.4999999999999999
 40
0.5833333333333333
 40
0.5833333333333333
 40
0.5833333333333333
 40
0.5833333333333333
 40
0.6666666666666666
 40
0.6666666666666666
 40
0.6666666666666666
 40
0.6666666666666666
 40
0.75
 40
0.75
 40
0.75
 40
0.75
 40
0.8333333333333334
 40
0.8333333333333334
 40
0.8333333333333334
 40
0.8333333333333334
 40
0.9166666666666667
 40
0.9166666666666667
 40
0.9166666666666667
 40
0.9166666666666667
 40
1.0
 40
1.0
 40
1.0
 40
1.0
 10
-10.43354
 20
-14.8087
 30
0.0
 10
-10.43354
 20
-14.81282
 30
0.0
 10
-10.43279
 20
-14.81592
 30
0.0
 10
-10.43128
 20
-14.81801
 30
0.0
 10
-10.43128
 20
-14.81801
 30
0.0
 10
-10.42976
 20
-14.8201
 30
0.0
 10
-10.42753
 20
-14.82116
 30
0.0
 10
-10.42457
 20
-14.82116
 30
0.0
 10
-10.42457
 20
-14.82116
 30
0.0
 10
-10.42457
 20
-14.82116
 30
0.0
 10
-10.41385
 20
-14.82116
 30
0.0
 10
-10.41385
 20
-14.82116
 30
0.0
 10
-10.41385
 20
-14.82116
 30
0.0
 10
-10.41385
 20
-14.82116
 30
0.0
 10
-10.41385
 20
-14.82894
 30
0.0
 10
-10.41385
 20
-14.82894
 30
0.0
 10
-10.41385
 20
-14.82894
 30
0.0
 10
-10.41385
 20
-14.82894
 30
0.0
 10
-10.42546
 20
-14.82894
 30
0.0
 10
-10.42546
 20
-14.82894
 30
0.0
 10
-10.42546
 20
-14.82894
 30
0.0
 10
-10.43095
 20
-14.82894
 30
0.0
 10
-10.43519
 20
-14.82717
 30
0.0
 10
-10.43821
 20
-14.82365
 30
0.0
 10
-10.43821
 20
-14.82365
 30
0.0
 10
-10.44122
 20
-14.82012
 30
0.0
 10
-10.44272
 20
-14.81513
 30
0.0
 10
-10.44272
 20
-14.8087
 30
0.0
 10
-10.44272
 20
-14.8087
 30
0.0
 10
-10.44272
 20
-14.8087
 30
0.0
 10
-10.44272
 20
-14.75797
 30
0.0
 10
-10.44272
 20
-14.75797
 30
0.0
 10
-10.44272
 20
-14.75797
 30
0.0
 10
-10.44272
 20
-14.75797
 30
0.0
 10
-10.45743
 20
-14.75797
 30
0.0
 10
-10.45743
 20
-14.75797
 30
0.0
 10
-10.45743
 20
-14.75797
 30
0.0
 10
-10.45743
 20
-14.75797
 30
0.0
 10
-10.45743
 20
-14.75079
 30
0.0
 10
-10.45743
 20
-14.75079
 30
0.0
 10
-10.45743
 20
-14.75079
 30
0.0
 10
-10.45743
 20
-14.75079
 30
0.0
 10
-10.43354
 20
-14.75079
 30
0.0
 10
-10.43354
 20
-14.75079
 30
0.0
 10
-10.43354
 20
-14.75079
 30
0.0
 10
-10.43354
 20
-14.75079
 30
0.0
 10
-10.43354
 20
-14.8087
 30
0.0
 10
-10.43354
 20
-14.8087
 30
0.0
  0
SPLINE
  5
89
330
1F
100
AcDbEntity
  8
Layer 1
 62
   250
100
AcDbSpline
210
0.0
220
0.0
230
1.0
 70
    11
 71
     3
 72
    76
 73
    72
 74
     0
 42
0.0000000001
 43
0.0000000001
 40
0.0
 40
0.0
 40
0.0
 40
0.0
 40
0.0555555555555556
 40
0.0555555555555556
 40
0.0555555555555556
 40
0.0555555555555556
 40
0.1111111111111111
 40
0.1111111111111111
 40
0.1111111111111111
 40
0.1111111111111111
 40
0.1666666666666667
 40
0.1666666666666667
 40
0.1666666666666667
 40
0.1666666666666667
 40
0.2222222222222222
 40
0.2222222222222222
 40
0.2222222222222222
 40
0.2222222222222222
 40
0.2777777777777778
 40
0.2777777777777778
 40
0.2777777777777778
 40
0.2777777777777778
 40
0.3333333333333334
 40
0.3333333333333334
 40
0.3333333333333334
 40
0.3333333333333334
 40
0.388888888888889
 40
0.388888888888889
 40
0.388888888888889
 40
0.388888888888889
 40
0.4444444444444445
 40
0.4444444444444445
 40
0.4444444444444445
 40
0.4444444444444445
 40
0.5000000000000001
 40
0.5000000000000001
 40
0.5000000000000001
 40
0.5000000000000001
 40
0.5555555555555557
 40
0.5555555555555557
 40
0.5555555555555557
 40
0.5555555555555557
 40
0.6111111111111113
 40
0.6111111111111113
 40
0.6111111111111113
 40
0.6111111111111113
 40
0.6666666666666669
 40
0.6666666666666669
 40
0.6666666666666669
 40
0.6666666666666669
 40
0.7222222222222224
 40
0.7222222222222224
 40
0.7222222222222224
 40
0.7222222222222224
 40
0.777777777777778
 40
0.777777777777778
 40
0.777777777777778
 40
0.777777777777778
 40
0.8333333333333336
 40
0.8333333333333336
 40
0.8333333333333336
 40
0.8333333333333336
 40
0.8888888888888892
 40
0.8888888888888892
 40
0.8888888888888892
 40
0.8888888888888892
 40
0.9444444444444448
 40
0.9444444444444448
 40
0.9444444444444448
 40
0.9444444444444448
 40
1.0
 40
1.0
 40
1.0
 40
1.0
 10
-10.3733
 20
-14.75722
 30
0.0
 10
-10.3733
 20
-14.75722
 30
0.0
 10
-10.3733
 20
-14.77309
 30
0.0
 10
-10.3733
 20
-14.77309
 30
0.0
 10
-10.3733
 20
-14.77309
 30
0.0
 10
-10.3733
 20
-14.77309
 30
0.0
 10
-10.35244
 20
-14.77309
 30
0.0
 10
-10.35244
 20
-14.77309
 30
0.0
 10
-10.35244
 20
-14.77309
 30
0.0
 10
-10.35244
 20
-14.77309
 30
0.0
 10
-10.35244
 20
-14.78022
 30
0.0
 10
-10.35244
 20
-14.78022
 30
0.0
 10
-10.35244
 20
-14.78022
 30
0.0
 10
-10.35244
 20
-14.78022
 30
0.0
 10
-10.3733
 20
-14.78022
 30
0.0
 10
-10.3733
 20
-14.78022
 30
0.0
 10
-10.3733
 20
-14.78022
 30
0.0
 10
-10.3733
 20
-14.78022
 30
0.0
 10
-10.3733
 20
-14.81054
 30
0.0
 10
-10.3733
 20
-14.81054
 30
0.0
 10
-10.3733
 20
-14.81054
 30
0.0
 10
-10.3733
 20
-14.81466
 30
0.0
 10
-10.37251
 20
-14.81753
 30
0.0
 10
-10.37095
 20
-14.81915
 30
0.0
 10
-10.37095
 20
-14.81915
 30
0.0
 10
-10.36938
 20
-14.82079
 30
0.0
 10
-10.36666
 20
-14.8216
 30
0.0
 10
-10.36277
 20
-14.8216
 30
0.0
 10
-10.36277
 20
-14.8216
 30
0.0
 10
-10.36277
 20
-14.8216
 30
0.0
 10
-10.35244
 20
-14.8216
 30
0.0
 10
-10.35244
 20
-14.8216
 30
0.0
 10
-10.35244
 20
-14.8216
 30
0.0
 10
-10.35244
 20
-14.8216
 30
0.0
 10
-10.35244
 20
-14.82894
 30
0.0
 10
-10.35244
 20
-14.82894
 30
0.0
 10
-10.35244
 20
-14.82894
 30
0.0
 10
-10.35244
 20
-14.82894
 30
0.0
 10
-10.36366
 20
-14.82894
 30
0.0
 10
-10.36366
 20
-14.82894
 30
0.0
 10
-10.36366
 20
-14.82894
 30
0.0
 10
-10.37055
 20
-14.82894
 30
0.0
 10
-10.37541
 20
-14.82756
 30
0.0
 10
-10.37823
 20
-14.8248
 30
0.0
 10
-10.37823
 20
-14.8248
 30
0.0
 10
-10.38106
 20
-14.82205
 30
0.0
 10
-10.38247
 20
-14.81728
 30
0.0
 10
-10.38247
 20
-14.81054
 30
0.0
 10
-10.38247
 20
-14.81054
 30
0.0
 10
-10.38247
 20
-14.81054
 30
0.0
 10
-10.38247
 20
-14.78022
 30
0.0
 10
-10.38247
 20
-14.78022
 30
0.0
 10
-10.38247
 20
-14.78022
 30
0.0
 10
-10.38247
 20
-14.78022
 30
0.0
 10
-10.39738
 20
-14.78022
 30
0.0
 10
-10.39738
 20
-14.78022
 30
0.0
 10
-10.39738
 20
-14.78022
 30
0.0
 10
-10.39738
 20
-14.78022
 30
0.0
 10
-10.39738
 20
-14.77309
 30
0.0
 10
-10.39738
 20
-14.77309
 30
0.0
 10
-10.39738
 20
-14.77309
 30
0.0
 10
-10.39738
 20
-14.77309
 30
0.0
 10
-10.38247
 20
-14.77309
 30
0.0
 10
-10.38247
 20
-14.77309
 30
0.0
 10
-10.38247
 20
-14.77309
 30
0.0
 10
-10.38247
 20
-14.77309
 30
0.0
 10
-10.38247
 20
-14.75722
 30
0.0
 10
-10.38247
 20
-14.75722
 30
0.0
 10
-10.38247
 20
-14.75722
 30
0.0
 10
-10.38247
 20
-14.75722
 30
0.0
 10
-10.3733
 20
-14.75722
 30
0.0
 10
-10.3733
 20
-14.75722
 30
0.0
  0
SPLINE
  5
8A
330
1F
100
AcDbEntity
  8
Layer 1
 62
   250
100
AcDbSpline
210
0.0
220
0.0
230
1.0
 70
    11
 71
     3
 72
    20
 73
    16
 74
     0
 42
0.0000000001
 43
0.0000000001
 40
0.0
 40
0.0
 40
0.0
 40
0.0
 40
0.25
 40
0.25
 40
0.25
 40
0.25
 40
0.5
 40
0.5
 40
0.5
 40
0.5
 40
0.75
 40
0.75
 40
0.75
 40
0.75
 40
1.0
 40
1.0
 40
1.0
 40
1.0
 10
-10.29808
 20
-14.75448
 30
0.0
 10
-10.29808
 20
-14.75448
 30
0.0
 10
-10.2886
 20
-14.75448
 30
0.0
 10
-10.2886
 20
-14.75448
 30
0.0
 10
-10.2886
 20
-14.75448
 30
0.0
 10
-10.2886
 20
-14.75448
 30
0.0
 10
-10.32781
 20
-14.83842
 30
0.0
 10
-10.32781
 20
-14.83842
 30
0.0
 10
-10.32781
 20
-14.83842
 30
0.0
 10
-10.32781
 20
-14.83842
 30
0.0
 10
-10.33734
 20
-14.83842
 30
0.0
 10
-10.33734
 20
-14.83842
 30
0.0
 10
-10.33734
 20
-14.83842
 30
0.0
 10
-10.33734
 20
-14.83842
 30
0.0
 10
-10.29808
 20
-14.75448
 30
0.0
 10
-10.29808
 20
-14.75448
 30
0.0
  0
SPLINE
  5
8B
330
1F
100
AcDbEntity
  8
Layer 1
 62
   250
100
AcDbSpline
210
0.0
220
0.0
230
1.0
 70
    11
 71
     3
 72
    32
 73
    28
 74
     0
 42
0.0000000001
 43
0.0000000001
 40
0.0
 40
0.0
 40
0.0
 40
0.0
 40
0.1428571428571428
 40
0.1428571428571428
 40
0.1428571428571428
 40
0.1428571428571428
 40
0.2857142857142857
 40
0.2857142857142857
 40
0.2857142857142857
 40
0.2857142857142857
 40
0.4285714285714285
 40
0.4285714285714285
 40
0.4285714285714285
 40
0.4285714285714285
 40
0.5714285714285714
 40
0.5714285714285714
 40
0.5714285714285714
 40
0.5714285714285714
 40
0.7142857142857142
 40
0.7142857142857142
 40
0.7142857142857142
 40
0.7142857142857142
 40
0.857142857142857
 40
0.857142857142857
 40
0.857142857142857
 40
0.857142857142857
 40
1.0
 40
1.0
 40
1.0
 40
1.0
 10
-10.64989
 20
-14.93556
 30
0.0
 10
-10.64989
 20
-14.93556
 30
0.0
 10
-10.63678
 20
-14.87337
 30
0.0
 10
-10.63678
 20
-14.87337
 30
0.0
 10
-10.63678
 20
-14.87337
 30
0.0
 10
-10.63678
 20
-14.87337
 30
0.0
 10
-10.62197
 20
-14.87337
 30
0.0
 10
-10.62197
 20
-14.87337
 30
0.0
 10
-10.62197
 20
-14.87337
 30
0.0
 10
-10.62197
 20
-14.87337
 30
0.0
 10
-10.63968
 20
-14.94783
 30
0.0
 10
-10.63968
 20
-14.94783
 30
0.0
 10
-10.63968
 20
-14.94783
 30
0.0
 10
-10.63968
 20
-14.94783
 30
0.0
 10
-10.66007
 20
-14.94783
 30
0.0
 10
-10.66007
 20
-14.94783
 30
0.0
 10
-10.66007
 20
-14.94783
 30
0.0
 10
-10.66007
 20
-14.94783
 30
0.0
 10
-10.67778
 20
-14.87337
 30
0.0
 10
-10.67778
 20
-14.87337
 30
0.0
 10
-10.67778
 20
-14.87337
 30
0.0
 10
-10.67778
 20
-14.87337
 30
0.0
 10
-10.66297
 20
-14.87337
 30
0.0
 10
-10.66297
 20
-14.87337
 30
0.0
 10
-10.66297
 20
-14.87337
 30
0.0
 10
-10.66297
 20
-14.87337
 30
0.0
 10
-10.64989
 20
-14.93556
 30
0.0
 10
-10.64989
 20
-14.93556
 30
0.0
  0
SPLINE
  5
8C
330
1F
100
AcDbEntity
  8
Layer 1
 62
   250
100
AcDbSpline
210
0.0
220
0.0
230
1.0
 70
    11
 71
     3
 72
   116
 73
   112
 74
     0
 42
0.0000000001
 43
0.0000000001
 40
0.0
 40
0.0
 40
0.0
 40
0.0
 40
0.0357142857142857
 40
0.0357142857142857
 40
0.0357142857142857
 40
0.0357142857142857
 40
0.0714285714285714
 40
0.0714285714285714
 40
0.0714285714285714
 40
0.0714285714285714
 40
0.1071428571428571
 40
0.1071428571428571
 40
0.1071428571428571
 40
0.1071428571428571
 40
0.1428571428571428
 40
0.1428571428571428
 40
0.1428571428571428
 40
0.1428571428571428
 40
0.1785714285714285
 40
0.1785714285714285
 40
0.1785714285714285
 40
0.1785714285714285
 40
0.2142857142857142
 40
0.2142857142857142
 40
0.2142857142857142
 40
0.2142857142857142
 40
0.2499999999999999
 40
0.2499999999999999
 40
0.2499999999999999
 40
0.2499999999999999
 40
0.2857142857142856
 40
0.2857142857142856
 40
0.2857142857142856
 40
0.2857142857142856
 40
0.3214285714285713
 40
0.3214285714285713
 40
0.3214285714285713
 40
0.3214285714285713
 40
0.357142857142857
 40
0.357142857142857
 40
0.357142857142857
 40
0.357142857142857
 40
0.3928571428571427
 40
0.3928571428571427
 40
0.3928571428571427
 40
0.3928571428571427
 40
0.4285714285714284
 40
0.4285714285714284
 40
0.4285714285714284
 40
0.4285714285714284
 40
0.4642857142857141
 40
0.4642857142857141
 40
0.4642857142857141
 40
0.4642857142857141
 40
0.4999999999999998
 40
0.4999999999999998
 40
0.4999999999999998
 40
0.4999999999999998
 40
0.5357142857142856
 40
0.5357142857142856
 40
0.5357142857142856
 40
0.5357142857142856
 40
0.5714285714285713
 40
0.5714285714285713
 40
0.5714285714285713
 40
0.5714285714285713
 40
0.607142857142857
 40
0.607142857142857
 40
0.607142857142857
 40
0.607142857142857
 40
0.6428571428571427
 40
0.6428571428571427
 40
0.6428571428571427
 40
0.6428571428571427
 40
0.6785714285714284
 40
0.6785714285714284
 40
0.6785714285714284
 40
0.6785714285714284
 40
0.7142857142857141
 40
0.7142857142857141
 40
0.7142857142857141
 40
0.7142857142857141
 40
0.7499999999999998
 40
0.7499999999999998
 40
0.7499999999999998
 40
0.7499999999999998
 40
0.7857142857142855
 40
0.7857142857142855
 40
0.7857142857142855
 40
0.7857142857142855
 40
0.8214285714285712
 40
0.8214285714285712
 40
0.8214285714285712
 40
0.8214285714285712
 40
0.8571428571428569
 40
0.8571428571428569
 40
0.8571428571428569
 40
0.8571428571428569
 40
0.8928571428571426
 40
0.8928571428571426
 40
0.8928571428571426
 40
0.8928571428571426
 40
0.9285714285714283
 40
0.9285714285714283
 40
0.9285714285714283
 40
0.9285714285714283
 40
0.964285714285714
 40
0.964285714285714
 40
0.964285714285714
 40
0.964285714285714
 40
1.0
 40
1.0
 40
1.0
 40
1.0
 10
-10.5937
 20
-14.91516
 30
0.0
 10
-10.6011
 20
-14.91234
 30
0.0
 10
-10.60612
 20
-14.90936
 30
0.0
 10
-10.60876
 20
-14.90626
 30
0.0
 10
-10.60876
 20
-14.90626
 30
0.0
 10
-10.61138
 20
-14.90314
 30
0.0
 10
-10.6127
 20
-14.89897
 30
0.0
 10
-10.6127
 20
-14.89371
 30
0.0
 10
-10.6127
 20
-14.89371
 30
0.0
 10
-10.6127
 20
-14.88697
 30
0.0
 10
-10.61053
 20
-14.88166
 30
0.0
 10
-10.60621
 20
-14.87781
 30
0.0
 10
-10.60621
 20
-14.87781
 30
0.0
 10
-10.60189
 20
-14.87395
 30
0.0
 10
-10.59596
 20
-14.87203
 30
0.0
 10
-10.5884
 20
-14.87203
 30
0.0
 10
-10.5884
 20
-14.87203
 30
0.0
 10
-10.58498
 20
-14.87203
 30
0.0
 10
-10.58156
 20
-14.87242
 30
0.0
 10
-10.57814
 20
-14.8732
 30
0.0
 10
-10.57814
 20
-14.8732
 30
0.0
 10
-10.5747
 20
-14.87398
 30
0.0
 10
-10.57131
 20
-14.87512
 30
0.0
 10
-10.56796
 20
-14.87666
 30
0.0
 10
-10.56796
 20
-14.87666
 30
0.0
 10
-10.56796
 20
-14.87666
 30
0.0
 10
-10.56796
 20
-14.89102
 30
0.0
 10
-10.56796
 20
-14.89102
 30
0.0
 10
-10.56796
 20
-14.89102
 30
0.0
 10
-10.57112
 20
-14.88879
 30
0.0
 10
-10.57432
 20
-14.88711
 30
0.0
 10
-10.57758
 20
-14.88593
 30
0.0
 10
-10.57758
 20
-14.88593
 30
0.0
 10
-10.58084
 20
-14.88478
 30
0.0
 10
-10.58406
 20
-14.8842
 30
0.0
 10
-10.58726
 20
-14.8842
 30
0.0
 10
-10.58726
 20
-14.8842
 30
0.0
 10
-10.59082
 20
-14.8842
 30
0.0
 10
-10.59354
 20
-14.88491
 30
0.0
 10
-10.59543
 20
-14.88634
 30
0.0
 10
-10.59543
 20
-14.88634
 30
0.0
 10
-10.59732
 20
-14.88777
 30
0.0
 10
-10.59828
 20
-14.88981
 30
0.0
 10
-10.59828
 20
-14.89247
 30
0.0
 10
-10.59828
 20
-14.89247
 30
0.0
 10
-10.59828
 20
-14.89453
 30
0.0
 10
-10.59758
 20
-14.89623
 30
0.0
 10
-10.5962
 20
-14.89758
 30
0.0
 10
-10.5962
 20
-14.89758
 30
0.0
 10
-10.59482
 20
-14.89892
 30
0.0
 10
-10.59194
 20
-14.90042
 30
0.0
 10
-10.58755
 20
-14.90204
 30
0.0
 10
-10.58755
 20
-14.90204
 30
0.0
 10
-10.58755
 20
-14.90204
 30
0.0
 10
-10.58122
 20
-14.90444
 30
0.0
 10
-10.58122
 20
-14.90444
 30
0.0
 10
-10.58122
 20
-14.90444
 30
0.0
 10
-10.57524
 20
-14.90663
 30
0.0
 10
-10.57083
 20
-14.90954
 30
0.0
 10
-10.56801
 20
-14.91317
 30
0.0
 10
-10.56801
 20
-14.91317
 30
0.0
 10
-10.56518
 20
-14.9168
 30
0.0
 10
-10.56377
 20
-14.92136
 30
0.0
 10
-10.56377
 20
-14.92687
 30
0.0
 10
-10.56377
 20
-14.92687
 30
0.0
 10
-10.56377
 20
-14.9344
 30
0.0
 10
-10.56598
 20
-14.94
 30
0.0
 10
-10.57043
 20
-14.94371
 30
0.0
 10
-10.57043
 20
-14.94371
 30
0.0
 10
-10.57487
 20
-14.94742
 30
0.0
 10
-10.58158
 20
-14.94928
 30
0.0
 10
-10.59055
 20
-14.94928
 30
0.0
 10
-10.59055
 20
-14.94928
 30
0.0
 10
-10.59424
 20
-14.94928
 30
0.0
 10
-10.59794
 20
-14.94883
 30
0.0
 10
-10.60165
 20
-14.94795
 30
0.0
 10
-10.60165
 20
-14.94795
 30
0.0
 10
-10.60534
 20
-14.94706
 30
0.0
 10
-10.60893
 20
-14.94577
 30
0.0
 10
-10.61239
 20
-14.94403
 30
0.0
 10
-10.61239
 20
-14.94403
 30
0.0
 10
-10.61239
 20
-14.94403
 30
0.0
 10
-10.61239
 20
-14.92881
 30
0.0
 10
-10.61239
 20
-14.92881
 30
0.0
 10
-10.61239
 20
-14.92881
 30
0.0
 10
-10.60847
 20
-14.93161
 30
0.0
 10
-10.60466
 20
-14.9337
 30
0.0
 10
-10.601
 20
-14.93506
 30
0.0
 10
-10.601
 20
-14.93506
 30
0.0
 10
-10.59732
 20
-14.93642
 30
0.0
 10
-10.5937
 20
-14.93711
 30
0.0
 10
-10.59011
 20
-14.93711
 30
0.0
 10
-10.59011
 20
-14.93711
 30
0.0
 10
-10.58648
 20
-14.93711
 30
0.0
 10
-10.58367
 20
-14.93629
 30
0.0
 10
-10.58168
 20
-14.93464
 30
0.0
 10
-10.58168
 20
-14.93464
 30
0.0
 10
-10.57969
 20
-14.93299
 30
0.0
 10
-10.57868
 20
-14.93069
 30
0.0
 10
-10.57868
 20
-14.92773
 30
0.0
 10
-10.57868
 20
-14.92773
 30
0.0
 10
-10.57868
 20
-14.9255
 30
0.0
 10
-10.57935
 20
-14.92354
 30
0.0
 10
-10.58067
 20
-14.92187
 30
0.0
 10
-10.58067
 20
-14.92187
 30
0.0
 10
-10.582
 20
-14.92018
 30
0.0
 10
-10.58393
 20
-14.91886
 30
0.0
 10
-10.58646
 20
-14.9179
 30
0.0
 10
-10.58646
 20
-14.9179
 30
0.0
 10
-10.58646
 20
-14.9179
 30
0.0
 10
-10.5937
 20
-14.91516
 30
0.0
 10
-10.5937
 20
-14.91516
 30
0.0
  0
SPLINE
  5
8D
330
1F
100
AcDbEntity
  8
Layer 1
 62
   250
100
AcDbSpline
210
0.0
220
0.0
230
1.0
 70
    11
 71
     3
 72
   116
 73
   112
 74
     0
 42
0.0000000001
 43
0.0000000001
 40
0.0
 40
0.0
 40
0.0
 40
0.0
 40
0.0357142857142857
 40
0.0357142857142857
 40
0.0357142857142857
 40
0.0357142857142857
 40
0.0714285714285714
 40
0.0714285714285714
 40
0.0714285714285714
 40
0.0714285714285714
 40
0.1071428571428571
 40
0.1071428571428571
 40
0.1071428571428571
 40
0.1071428571428571
 40
0.1428571428571428
 40
0.1428571428571428
 40
0.1428571428571428
 40
0.1428571428571428
 40
0.1785714285714285
 40
0.1785714285714285
 40
0.1785714285714285
 40
0.1785714285714285
 40
0.2142857142857142
 40
0.2142857142857142
 40
0.2142857142857142
 40
0.2142857142857142
 40
0.2499999999999999
 40
0.2499999999999999
 40
0.2499999999999999
 40
0.2499999999999999
 40
0.2857142857142856
 40
0.2857142857142856
 40
0.2857142857142856
 40
0.2857142857142856
 40
0.3214285714285713
 40
0.3214285714285713
 40
0.3214285714285713
 40
0.3214285714285713
 40
0.357142857142857
 40
0.357142857142857
 40
0.357142857142857
 40
0.357142857142857
 40
0.3928571428571427
 40
0.3928571428571427
 40
0.3928571428571427
 40
0.3928571428571427
 40
0.4285714285714284
 40
0.4285714285714284
 40
0.4285714285714284
 40
0.4285714285714284
 40
0.4642857142857141
 40
0.4642857142857141
 40
0.4642857142857141
 40
0.4642857142857141
 40
0.4999999999999998
 40
0.4999999999999998
 40
0.4999999999999998
 40
0.4999999999999998
 40
0.5357142857142856
 40
0.5357142857142856
 40
0.5357142857142856
 40
0.5357142857142856
 40
0.5714285714285713
 40
0.5714285714285713
 40
0.5714285714285713
 40
0.5714285714285713
 40
0.607142857142857
 40
0.607142857142857
 40
0.607142857142857
 40
0.607142857142857
 40
0.6428571428571427
 40
0.6428571428571427
 40
0.6428571428571427
 40
0.6428571428571427
 40
0.6785714285714284
 40
0.6785714285714284
 40
0.6785714285714284
 40
0.6785714285714284
 40
0.7142857142857141
 40
0.7142857142857141
 40
0.7142857142857141
 40
0.7142857142857141
 40
0.7499999999999998
 40
0.7499999999999998
 40
0.7499999999999998
 40
0.7499999999999998
 40
0.7857142857142855
 40
0.7857142857142855
 40
0.7857142857142855
 40
0.7857142857142855
 40
0.8214285714285712
 40
0.8214285714285712
 40
0.8214285714285712
 40
0.8214285714285712
 40
0.8571428571428569
 40
0.8571428571428569
 40
0.8571428571428569
 40
0.8571428571428569
 40
0.8928571428571426
 40
0.8928571428571426
 40
0.8928571428571426
 40
0.8928571428571426
 40
0.9285714285714283
 40
0.9285714285714283
 40
0.9285714285714283
 40
0.9285714285714283
 40
0.964285714285714
 40
0.964285714285714
 40
0.964285714285714
 40
0.964285714285714
 40
1.0
 40
1.0
 40
1.0
 40
1.0
 10
-10.53221
 20
-14.91516
 30
0.0
 10
-10.53961
 20
-14.91234
 30
0.0
 10
-10.54463
 20
-14.90936
 30
0.0
 10
-10.54727
 20
-14.90626
 30
0.0
 10
-10.54727
 20
-14.90626
 30
0.0
 10
-10.54989
 20
-14.90314
 30
0.0
 10
-10.55121
 20
-14.89897
 30
0.0
 10
-10.55121
 20
-14.89371
 30
0.0
 10
-10.55121
 20
-14.89371
 30
0.0
 10
-10.55121
 20
-14.88697
 30
0.0
 10
-10.54904
 20
-14.88166
 30
0.0
 10
-10.54472
 20
-14.87781
 30
0.0
 10
-10.54472
 20
-14.87781
 30
0.0
 10
-10.5404
 20
-14.87395
 30
0.0
 10
-10.53447
 20
-14.87203
 30
0.0
 10
-10.52691
 20
-14.87203
 30
0.0
 10
-10.52691
 20
-14.87203
 30
0.0
 10
-10.52349
 20
-14.87203
 30
0.0
 10
-10.52007
 20
-14.87242
 30
0.0
 10
-10.51665
 20
-14.8732
 30
0.0
 10
-10.51665
 20
-14.8732
 30
0.0
 10
-10.51321
 20
-14.87398
 30
0.0
 10
-10.50982
 20
-14.87512
 30
0.0
 10
-10.50647
 20
-14.87666
 30
0.0
 10
-10.50647
 20
-14.87666
 30
0.0
 10
-10.50647
 20
-14.87666
 30
0.0
 10
-10.50647
 20
-14.89102
 30
0.0
 10
-10.50647
 20
-14.89102
 30
0.0
 10
-10.50647
 20
-14.89102
 30
0.0
 10
-10.50963
 20
-14.88879
 30
0.0
 10
-10.51283
 20
-14.88711
 30
0.0
 10
-10.51609
 20
-14.88593
 30
0.0
 10
-10.51609
 20
-14.88593
 30
0.0
 10
-10.51935
 20
-14.88478
 30
0.0
 10
-10.52257
 20
-14.8842
 30
0.0
 10
-10.52577
 20
-14.8842
 30
0.0
 10
-10.52577
 20
-14.8842
 30
0.0
 10
-10.52933
 20
-14.8842
 30
0.0
 10
-10.53205
 20
-14.88491
 30
0.0
 10
-10.53394
 20
-14.88634
 30
0.0
 10
-10.53394
 20
-14.88634
 30
0.0
 10
-10.53583
 20
-14.88777
 30
0.0
 10
-10.53679
 20
-14.88981
 30
0.0
 10
-10.53679
 20
-14.89247
 30
0.0
 10
-10.53679
 20
-14.89247
 30
0.0
 10
-10.53679
 20
-14.89453
 30
0.0
 10
-10.53609
 20
-14.89623
 30
0.0
 10
-10.53471
 20
-14.89758
 30
0.0
 10
-10.53471
 20
-14.89758
 30
0.0
 10
-10.53333
 20
-14.89892
 30
0.0
 10
-10.53045
 20
-14.90042
 30
0.0
 10
-10.52606
 20
-14.90204
 30
0.0
 10
-10.52606
 20
-14.90204
 30
0.0
 10
-10.52606
 20
-14.90204
 30
0.0
 10
-10.51973
 20
-14.90444
 30
0.0
 10
-10.51973
 20
-14.90444
 30
0.0
 10
-10.51973
 20
-14.90444
 30
0.0
 10
-10.51375
 20
-14.90663
 30
0.0
 10
-10.50934
 20
-14.90954
 30
0.0
 10
-10.50652
 20
-14.91317
 30
0.0
 10
-10.50652
 20
-14.91317
 30
0.0
 10
-10.50369
 20
-14.9168
 30
0.0
 10
-10.50228
 20
-14.92136
 30
0.0
 10
-10.50228
 20
-14.92687
 30
0.0
 10
-10.50228
 20
-14.92687
 30
0.0
 10
-10.50228
 20
-14.9344
 30
0.0
 10
-10.50449
 20
-14.94
 30
0.0
 10
-10.50894
 20
-14.94371
 30
0.0
 10
-10.50894
 20
-14.94371
 30
0.0
 10
-10.51338
 20
-14.94742
 30
0.0
 10
-10.52009
 20
-14.94928
 30
0.0
 10
-10.52906
 20
-14.94928
 30
0.0
 10
-10.52906
 20
-14.94928
 30
0.0
 10
-10.53275
 20
-14.94928
 30
0.0
 10
-10.53645
 20
-14.94883
 30
0.0
 10
-10.54016
 20
-14.94795
 30
0.0
 10
-10.54016
 20
-14.94795
 30
0.0
 10
-10.54385
 20
-14.94706
 30
0.0
 10
-10.54744
 20
-14.94577
 30
0.0
 10
-10.5509
 20
-14.94403
 30
0.0
 10
-10.5509
 20
-14.94403
 30
0.0
 10
-10.5509
 20
-14.94403
 30
0.0
 10
-10.5509
 20
-14.92881
 30
0.0
 10
-10.5509
 20
-14.92881
 30
0.0
 10
-10.5509
 20
-14.92881
 30
0.0
 10
-10.54698
 20
-14.93161
 30
0.0
 10
-10.54317
 20
-14.9337
 30
0.0
 10
-10.53951
 20
-14.93506
 30
0.0
 10
-10.53951
 20
-14.93506
 30
0.0
 10
-10.53583
 20
-14.93642
 30
0.0
 10
-10.53221
 20
-14.93711
 30
0.0
 10
-10.52862
 20
-14.93711
 30
0.0
 10
-10.52862
 20
-14.93711
 30
0.0
 10
-10.52499
 20
-14.93711
 30
0.0
 10
-10.52218
 20
-14.93629
 30
0.0
 10
-10.52019
 20
-14.93464
 30
0.0
 10
-10.52019
 20
-14.93464
 30
0.0
 10
-10.5182
 20
-14.93299
 30
0.0
 10
-10.51719
 20
-14.93069
 30
0.0
 10
-10.51719
 20
-14.92773
 30
0.0
 10
-10.51719
 20
-14.92773
 30
0.0
 10
-10.51719
 20
-14.9255
 30
0.0
 10
-10.51786
 20
-14.92354
 30
0.0
 10
-10.51918
 20
-14.92187
 30
0.0
 10
-10.51918
 20
-14.92187
 30
0.0
 10
-10.52051
 20
-14.92018
 30
0.0
 10
-10.52244
 20
-14.91886
 30
0.0
 10
-10.52497
 20
-14.9179
 30
0.0
 10
-10.52497
 20
-14.9179
 30
0.0
 10
-10.52497
 20
-14.9179
 30
0.0
 10
-10.53221
 20
-14.91516
 30
0.0
 10
-10.53221
 20
-14.91516
 30
0.0
  0
SPLINE
  5
8E
330
1F
100
AcDbEntity
  8
Layer 1
 62
   250
100
AcDbSpline
210
0.0
220
0.0
230
1.0
 70
    11
 71
     3
 72
   120
 73
   116
 74
     0
 42
0.0000000001
 43
0.0000000001
 40
0.0
 40
0.0
 40
0.0
 40
0.0
 40
0.0344827586206897
 40
0.0344827586206897
 40
0.0344827586206897
 40
0.0344827586206897
 40
0.0689655172413793
 40
0.0689655172413793
 40
0.0689655172413793
 40
0.0689655172413793
 40
0.103448275862069
 40
0.103448275862069
 40
0.103448275862069
 40
0.103448275862069
 40
0.1379310344827586
 40
0.1379310344827586
 40
0.1379310344827586
 40
0.1379310344827586
 40
0.1724137931034483
 40
0.1724137931034483
 40
0.1724137931034483
 40
0.1724137931034483
 40
0.206896551724138
 40
0.206896551724138
 40
0.206896551724138
 40
0.206896551724138
 40
0.2413793103448276
 40
0.2413793103448276
 40
0.2413793103448276
 40
0.2413793103448276
 40
0.2758620689655173
 40
0.2758620689655173
 40
0.2758620689655173
 40
0.2758620689655173
 40
0.310344827586207
 40
0.310344827586207
 40
0.310344827586207
 40
0.310344827586207
 40
0.3448275862068966
 40
0.3448275862068966
 40
0.3448275862068966
 40
0.3448275862068966
 40
0.3793103448275863
 40
0.3793103448275863
 40
0.3793103448275863
 40
0.3793103448275863
 40
0.413793103448276
 40
0.413793103448276
 40
0.413793103448276
 40
0.413793103448276
 40
0.4482758620689656
 40
0.4482758620689656
 40
0.4482758620689656
 40
0.4482758620689656
 40
0.4827586206896553
 40
0.4827586206896553
 40
0.4827586206896553
 40
0.4827586206896553
 40
0.517241379310345
 40
0.517241379310345
 40
0.517241379310345
 40
0.517241379310345
 40
0.5517241379310346
 40
0.5517241379310346
 40
0.5517241379310346
 40
0.5517241379310346
 40
0.5862068965517242
 40
0.5862068965517242
 40
0.5862068965517242
 40
0.5862068965517242
 40
0.6206896551724138
 40
0.6206896551724138
 40
0.6206896551724138
 40
0.6206896551724138
 40
0.6551724137931034
 40
0.6551724137931034
 40
0.6551724137931034
 40
0.6551724137931034
 40
0.689655172413793
 40
0.689655172413793
 40
0.689655172413793
 40
0.689655172413793
 40
0.7241379310344827
 40
0.7241379310344827
 40
0.7241379310344827
 40
0.7241379310344827
 40
0.7586206896551723
 40
0.7586206896551723
 40
0.7586206896551723
 40
0.7586206896551723
 40
0.7931034482758619
 40
0.7931034482758619
 40
0.7931034482758619
 40
0.7931034482758619
 40
0.8275862068965515
 40
0.8275862068965515
 40
0.8275862068965515
 40
0.8275862068965515
 40
0.8620689655172411
 40
0.8620689655172411
 40
0.8620689655172411
 40
0.8620689655172411
 40
0.8965517241379307
 40
0.8965517241379307
 40
0.8965517241379307
 40
0.8965517241379307
 40
0.9310344827586203
 40
0.9310344827586203
 40
0.9310344827586203
 40
0.9310344827586203
 40
0.9655172413793099
 40
0.9655172413793099
 40
0.9655172413793099
 40
0.9655172413793099
 40
1.0
 40
1.0
 40
1.0
 40
1.0
 10
-10.46878
 20
-14.91452
 30
0.0
 10
-10.46878
 20
-14.91452
 30
0.0
 10
-10.47666
 20
-14.91452
 30
0.0
 10
-10.47666
 20
-14.91452
 30
0.0
 10
-10.47666
 20
-14.91452
 30
0.0
 10
-10.47666
 20
-14.91452
 30
0.0
 10
-10.47666
 20
-14.90154
 30
0.0
 10
-10.47666
 20
-14.90154
 30
0.0
 10
-10.47666
 20
-14.90154
 30
0.0
 10
-10.47666
 20
-14.90154
 30
0.0
 10
-10.46878
 20
-14.90154
 30
0.0
 10
-10.46878
 20
-14.90154
 30
0.0
 10
-10.46878
 20
-14.90154
 30
0.0
 10
-10.46513
 20
-14.90154
 30
0.0
 10
-10.46229
 20
-14.90083
 30
0.0
 10
-10.46028
 20
-14.89938
 30
0.0
 10
-10.46028
 20
-14.89938
 30
0.0
 10
-10.45827
 20
-14.89793
 30
0.0
 10
-10.45727
 20
-14.89589
 30
0.0
 10
-10.45727
 20
-14.89327
 30
0.0
 10
-10.45727
 20
-14.89327
 30
0.0
 10
-10.45727
 20
-14.89051
 30
0.0
 10
-10.45827
 20
-14.88835
 30
0.0
 10
-10.46028
 20
-14.8868
 30
0.0
 10
-10.46028
 20
-14.8868
 30
0.0
 10
-10.46229
 20
-14.88525
 30
0.0
 10
-10.46513
 20
-14.88449
 30
0.0
 10
-10.46878
 20
-14.88449
 30
0.0
 10
-10.46878
 20
-14.88449
 30
0.0
 10
-10.47157
 20
-14.88449
 30
0.0
 10
-10.47456
 20
-14.88484
 30
0.0
 10
-10.47775
 20
-14.88554
 30
0.0
 10
-10.47775
 20
-14.88554
 30
0.0
 10
-10.48095
 20
-14.88624
 30
0.0
 10
-10.48425
 20
-14.88726
 30
0.0
 10
-10.48767
 20
-14.88859
 30
0.0
 10
-10.48767
 20
-14.88859
 30
0.0
 10
-10.48767
 20
-14.88859
 30
0.0
 10
-10.48767
 20
-14.87523
 30
0.0
 10
-10.48767
 20
-14.87523
 30
0.0
 10
-10.48767
 20
-14.87523
 30
0.0
 10
-10.48425
 20
-14.87419
 30
0.0
 10
-10.48088
 20
-14.8734
 30
0.0
 10
-10.47756
 20
-14.87284
 30
0.0
 10
-10.47756
 20
-14.87284
 30
0.0
 10
-10.47422
 20
-14.8723
 30
0.0
 10
-10.47104
 20
-14.87203
 30
0.0
 10
-10.46798
 20
-14.87203
 30
0.0
 10
-10.46798
 20
-14.87203
 30
0.0
 10
-10.46013
 20
-14.87203
 30
0.0
 10
-10.45402
 20
-14.87374
 30
0.0
 10
-10.44964
 20
-14.87717
 30
0.0
 10
-10.44964
 20
-14.87717
 30
0.0
 10
-10.44525
 20
-14.88059
 30
0.0
 10
-10.44305
 20
-14.8853
 30
0.0
 10
-10.44305
 20
-14.89133
 30
0.0
 10
-10.44305
 20
-14.89133
 30
0.0
 10
-10.44305
 20
-14.89574
 30
0.0
 10
-10.44431
 20
-14.89936
 30
0.0
 10
-10.44685
 20
-14.90217
 30
0.0
 10
-10.44685
 20
-14.90217
 30
0.0
 10
-10.44937
 20
-14.90498
 30
0.0
 10
-10.45298
 20
-14.90682
 30
0.0
 10
-10.45766
 20
-14.90767
 30
0.0
 10
-10.45766
 20
-14.90767
 30
0.0
 10
-10.45235
 20
-14.90861
 30
0.0
 10
-10.44828
 20
-14.91074
 30
0.0
 10
-10.44549
 20
-14.91404
 30
0.0
 10
-10.44549
 20
-14.91404
 30
0.0
 10
-10.4427
 20
-14.91734
 30
0.0
 10
-10.4413
 20
-14.9217
 30
0.0
 10
-10.4413
 20
-14.92708
 30
0.0
 10
-10.4413
 20
-14.92708
 30
0.0
 10
-10.4413
 20
-14.9343
 30
0.0
 10
-10.44362
 20
-14.93979
 30
0.0
 10
-10.44823
 20
-14.94359
 30
0.0
 10
-10.44823
 20
-14.94359
 30
0.0
 10
-10.45286
 20
-14.94739
 30
0.0
 10
-10.45957
 20
-14.94928
 30
0.0
 10
-10.46838
 20
-14.94928
 30
0.0
 10
-10.46838
 20
-14.94928
 30
0.0
 10
-10.47213
 20
-14.94928
 30
0.0
 10
-10.47582
 20
-14.94895
 30
0.0
 10
-10.47947
 20
-14.94832
 30
0.0
 10
-10.47947
 20
-14.94832
 30
0.0
 10
-10.48311
 20
-14.94769
 30
0.0
 10
-10.4866
 20
-14.94677
 30
0.0
 10
-10.48992
 20
-14.94558
 30
0.0
 10
-10.48992
 20
-14.94558
 30
0.0
 10
-10.48992
 20
-14.94558
 30
0.0
 10
-10.48992
 20
-14.93191
 30
0.0
 10
-10.48992
 20
-14.93191
 30
0.0
 10
-10.48992
 20
-14.93191
 30
0.0
 10
-10.48679
 20
-14.93348
 30
0.0
 10
-10.48342
 20
-14.93467
 30
0.0
 10
-10.47979
 20
-14.93549
 30
0.0
 10
-10.47979
 20
-14.93549
 30
0.0
 10
-10.47618
 20
-14.93631
 30
0.0
 10
-10.47237
 20
-14.93671
 30
0.0
 10
-10.46838
 20
-14.93671
 30
0.0
 10
-10.46838
 20
-14.93671
 30
0.0
 10
-10.46438
 20
-14.93671
 30
0.0
 10
-10.46124
 20
-14.93579
 30
0.0
 10
-10.4589
 20
-14.93394
 30
0.0
 10
-10.4589
 20
-14.93394
 30
0.0
 10
-10.45657
 20
-14.9321
 30
0.0
 10
-10.45541
 20
-14.92962
 30
0.0
 10
-10.45541
 20
-14.92648
 30
0.0
 10
-10.45541
 20
-14.92648
 30
0.0
 10
-10.45541
 20
-14.92267
 30
0.0
 10
-10.45657
 20
-14.91971
 30
0.0
 10
-10.4589
 20
-14.91763
 30
0.0
 10
-10.4589
 20
-14.91763
 30
0.0
 10
-10.46124
 20
-14.91555
 30
0.0
 10
-10.46452
 20
-14.91452
 30
0.0
 10
-10.46878
 20
-14.91452
 30
0.0
  0
SPLINE
  5
8F
330
1F
100
AcDbEntity
  8
Layer 1
 62
   250
100
AcDbSpline
210
0.0
220
0.0
230
1.0
 70
    11
 71
     3
 72
    36
 73
    32
 74
     0
 42
0.0000000001
 43
0.0000000001
 40
0.0
 40
0.0
 40
0.0
 40
0.0
 40
0.125
 40
0.125
 40
0.125
 40
0.125
 40
0.25
 40
0.25
 40
0.25
 40
0.25
 40
0.375
 40
0.375
 40
0.375
 40
0.375
 40
0.5
 40
0.5
 40
0.5
 40
0.5
 40
0.625
 40
0.625
 40
0.625
 40
0.625
 40
0.75
 40
0.75
 40
0.75
 40
0.75
 40
0.875
 40
0.875
 40
0.875
 40
0.875
 40
1.0
 40
1.0
 40
1.0
 40
1.0
 10
-10.41013
 20
-14.91067
 30
0.0
 10
-10.41013
 20
-14.90891
 30
0.0
 10
-10.40953
 20
-14.90743
 30
0.0
 10
-10.40832
 20
-14.90624
 30
0.0
 10
-10.40832
 20
-14.90624
 30
0.0
 10
-10.40713
 20
-14.90503
 30
0.0
 10
-10.40567
 20
-14.90444
 30
0.0
 10
-10.40393
 20
-14.90444
 30
0.0
 10
-10.40393
 20
-14.90444
 30
0.0
 10
-10.40218
 20
-14.90444
 30
0.0
 10
-10.4007
 20
-14.90503
 30
0.0
 10
-10.39951
 20
-14.90624
 30
0.0
 10
-10.39951
 20
-14.90624
 30
0.0
 10
-10.3983
 20
-14.90743
 30
0.0
 10
-10.3977
 20
-14.90891
 30
0.0
 10
-10.3977
 20
-14.91067
 30
0.0
 10
-10.3977
 20
-14.91067
 30
0.0
 10
-10.3977
 20
-14.9124
 30
0.0
 10
-10.3983
 20
-14.91387
 30
0.0
 10
-10.39951
 20
-14.91506
 30
0.0
 10
-10.39951
 20
-14.91506
 30
0.0
 10
-10.4007
 20
-14.91627
 30
0.0
 10
-10.40218
 20
-14.91686
 30
0.0
 10
-10.40393
 20
-14.91686
 30
0.0
 10
-10.40393
 20
-14.91686
 30
0.0
 10
-10.40567
 20
-14.91686
 30
0.0
 10
-10.40713
 20
-14.91627
 30
0.0
 10
-10.40832
 20
-14.91509
 30
0.0
 10
-10.40832
 20
-14.91509
 30
0.0
 10
-10.40953
 20
-14.91392
 30
0.0
 10
-10.41013
 20
-14.91244
 30
0.0
 10
-10.41013
 20
-14.91067
 30
0.0
  0
SPLINE
  5
90
330
1F
100
AcDbEntity
  8
Layer 1
 62
   250
100
AcDbSpline
210
0.0
220
0.0
230
1.0
 70
    11
 71
     3
 72
    36
 73
    32
 74
     0
 42
0.0000000001
 43
0.0000000001
 40
0.0
 40
0.0
 40
0.0
 40
0.0
 40
0.125
 40
0.125
 40
0.125
 40
0.125
 40
0.25
 40
0.25
 40
0.25
 40
0.25
 40
0.375
 40
0.375
 40
0.375
 40
0.375
 40
0.5
 40
0.5
 40
0.5
 40
0.5
 40
0.625
 40
0.625
 40
0.625
 40
0.625
 40
0.75
 40
0.75
 40
0.75
 40
0.75
 40
0.875
 40
0.875
 40
0.875
 40
0.875
 40
1.0
 40
1.0
 40
1.0
 40
1.0
 10
-10.40393
 20
-14.88449
 30
0.0
 10
-10.40734
 20
-14.88449
 30
0.0
 10
-10.40981
 20
-14.88656
 30
0.0
 10
-10.41137
 20
-14.89072
 30
0.0
 10
-10.41137
 20
-14.89072
 30
0.0
 10
-10.41294
 20
-14.89489
 30
0.0
 10
-10.41372
 20
-14.90153
 30
0.0
 10
-10.41372
 20
-14.91067
 30
0.0
 10
-10.41372
 20
-14.91067
 30
0.0
 10
-10.41372
 20
-14.91979
 30
0.0
 10
-10.41294
 20
-14.92641
 30
0.0
 10
-10.41137
 20
-14.93059
 30
0.0
 10
-10.41137
 20
-14.93059
 30
0.0
 10
-10.40981
 20
-14.93474
 30
0.0
 10
-10.40734
 20
-14.93682
 30
0.0
 10
-10.40393
 20
-14.93682
 30
0.0
 10
-10.40393
 20
-14.93682
 30
0.0
 10
-10.40051
 20
-14.93682
 30
0.0
 10
-10.39803
 20
-14.93474
 30
0.0
 10
-10.39646
 20
-14.93059
 30
0.0
 10
-10.39646
 20
-14.93059
 30
0.0
 10
-10.39489
 20
-14.92641
 30
0.0
 10
-10.39411
 20
-14.91979
 30
0.0
 10
-10.39411
 20
-14.91067
 30
0.0
 10
-10.39411
 20
-14.91067
 30
0.0
 10
-10.39411
 20
-14.90153
 30
0.0
 10
-10.39489
 20
-14.89489
 30
0.0
 10
-10.39646
 20
-14.89072
 30
0.0
 10
-10.39646
 20
-14.89072
 30
0.0
 10
-10.39803
 20
-14.88656
 30
0.0
 10
-10.40051
 20
-14.88449
 30
0.0
 10
-10.40393
 20
-14.88449
 30
0.0
  0
SPLINE
  5
91
330
1F
100
AcDbEntity
  8
Layer 1
 62
   250
100
AcDbSpline
210
0.0
220
0.0
230
1.0
 70
    11
 71
     3
 72
    36
 73
    32
 74
     0
 42
0.0000000001
 43
0.0000000001
 40
0.0
 40
0.0
 40
0.0
 40
0.0
 40
0.125
 40
0.125
 40
0.125
 40
0.125
 40
0.25
 40
0.25
 40
0.25
 40
0.25
 40
0.375
 40
0.375
 40
0.375
 40
0.375
 40
0.5
 40
0.5
 40
0.5
 40
0.5
 40
0.625
 40
0.625
 40
0.625
 40
0.625
 40
0.75
 40
0.75
 40
0.75
 40
0.75
 40
0.875
 40
0.875
 40
0.875
 40
0.875
 40
1.0
 40
1.0
 40
1.0
 40
1.0
 10
-10.42853
 20
-14.91067
 30
0.0
 10
-10.42853
 20
-14.89778
 30
0.0
 10
-10.42649
 20
-14.88811
 30
0.0
 10
-10.4224
 20
-14.88168
 30
0.0
 10
-10.4224
 20
-14.88168
 30
0.0
 10
-10.4183
 20
-14.87524
 30
0.0
 10
-10.41216
 20
-14.87203
 30
0.0
 10
-10.40393
 20
-14.87203
 30
0.0
 10
-10.40393
 20
-14.87203
 30
0.0
 10
-10.39569
 20
-14.87203
 30
0.0
 10
-10.38953
 20
-14.87523
 30
0.0
 10
-10.38543
 20
-14.88164
 30
0.0
 10
-10.38543
 20
-14.88164
 30
0.0
 10
-10.38134
 20
-14.88806
 30
0.0
 10
-10.3793
 20
-14.89775
 30
0.0
 10
-10.3793
 20
-14.91067
 30
0.0
 10
-10.3793
 20
-14.91067
 30
0.0
 10
-10.3793
 20
-14.92357
 30
0.0
 10
-10.38134
 20
-14.93324
 30
0.0
 10
-10.38543
 20
-14.93966
 30
0.0
 10
-10.38543
 20
-14.93966
 30
0.0
 10
-10.38953
 20
-14.94608
 30
0.0
 10
-10.39569
 20
-14.94928
 30
0.0
 10
-10.40393
 20
-14.94928
 30
0.0
 10
-10.40393
 20
-14.94928
 30
0.0
 10
-10.41216
 20
-14.94928
 30
0.0
 10
-10.4183
 20
-14.94606
 30
0.0
 10
-10.4224
 20
-14.93962
 30
0.0
 10
-10.4224
 20
-14.93962
 30
0.0
 10
-10.42649
 20
-14.93319
 30
0.0
 10
-10.42853
 20
-14.92354
 30
0.0
 10
-10.42853
 20
-14.91067
 30
0.0
  0
SPLINE
  5
92
330
1F
100
AcDbEntity
  8
Layer 1
 62
   250
100
AcDbSpline
210
0.0
220
0.0
230
1.0
 70
    11
 71
     3
 72
    92
 73
    88
 74
     0
 42
0.0000000001
 43
0.0000000001
 40
0.0
 40
0.0
 40
0.0
 40
0.0
 40
0.0454545454545455
 40
0.0454545454545455
 40
0.0454545454545455
 40
0.0454545454545455
 40
0.0909090909090909
 40
0.0909090909090909
 40
0.0909090909090909
 40
0.0909090909090909
 40
0.1363636363636364
 40
0.1363636363636364
 40
0.1363636363636364
 40
0.1363636363636364
 40
0.1818181818181818
 40
0.1818181818181818
 40
0.1818181818181818
 40
0.1818181818181818
 40
0.2272727272727273
 40
0.2272727272727273
 40
0.2272727272727273
 40
0.2272727272727273
 40
0.2727272727272728
 40
0.2727272727272728
 40
0.2727272727272728
 40
0.2727272727272728
 40
0.3181818181818182
 40
0.3181818181818182
 40
0.3181818181818182
 40
0.3181818181818182
 40
0.3636363636363637
 40
0.3636363636363637
 40
0.3636363636363637
 40
0.3636363636363637
 40
0.4090909090909092
 40
0.4090909090909092
 40
0.4090909090909092
 40
0.4090909090909092
 40
0.4545454545454546
 40
0.4545454545454546
 40
0.4545454545454546
 40
0.4545454545454546
 40
0.5000000000000001
 40
0.5000000000000001
 40
0.5000000000000001
 40
0.5000000000000001
 40
0.5454545454545455
 40
0.5454545454545455
 40
0.5454545454545455
 40
0.5454545454545455
 40
0.5909090909090909
 40
0.5909090909090909
 40
0.5909090909090909
 40
0.5909090909090909
 40
0.6363636363636364
 40
0.6363636363636364
 40
0.6363636363636364
 40
0.6363636363636364
 40
0.6818181818181818
 40
0.6818181818181818
 40
0.6818181818181818
 40
0.6818181818181818
 40
0.7272727272727272
 40
0.7272727272727272
 40
0.7272727272727272
 40
0.7272727272727272
 40
0.7727272727272726
 40
0.7727272727272726
 40
0.7727272727272726
 40
0.7727272727272726
 40
0.818181818181818
 40
0.818181818181818
 40
0.818181818181818
 40
0.818181818181818
 40
0.8636363636363634
 40
0.8636363636363634
 40
0.8636363636363634
 40
0.8636363636363634
 40
0.9090909090909088
 40
0.9090909090909088
 40
0.9090909090909088
 40
0.9090909090909088
 40
0.9545454545454543
 40
0.9545454545454543
 40
0.9545454545454543
 40
0.9545454545454543
 40
1.0
 40
1.0
 40
1.0
 40
1.0
 10
-10.36355
 20
-14.87337
 30
0.0
 10
-10.36355
 20
-14.87337
 30
0.0
 10
-10.3231
 20
-14.87337
 30
0.0
 10
-10.3231
 20
-14.87337
 30
0.0
 10
-10.3231
 20
-14.87337
 30
0.0
 10
-10.3231
 20
-14.87337
 30
0.0
 10
-10.3231
 20
-14.88634
 30
0.0
 10
-10.3231
 20
-14.88634
 30
0.0
 10
-10.3231
 20
-14.88634
 30
0.0
 10
-10.3231
 20
-14.88634
 30
0.0
 10
-10.35164
 20
-14.88634
 30
0.0
 10
-10.35164
 20
-14.88634
 30
0.0
 10
-10.35164
 20
-14.88634
 30
0.0
 10
-10.35164
 20
-14.88634
 30
0.0
 10
-10.35164
 20
-14.90015
 30
0.0
 10
-10.35164
 20
-14.90015
 30
0.0
 10
-10.35164
 20
-14.90015
 30
0.0
 10
-10.35044
 20
-14.89969
 30
0.0
 10
-10.34915
 20
-14.89935
 30
0.0
 10
-10.34779
 20
-14.89913
 30
0.0
 10
-10.34779
 20
-14.89913
 30
0.0
 10
-10.34643
 20
-14.8989
 30
0.0
 10
-10.34498
 20
-14.8988
 30
0.0
 10
-10.34345
 20
-14.8988
 30
0.0
 10
-10.34345
 20
-14.8988
 30
0.0
 10
-10.33608
 20
-14.8988
 30
0.0
 10
-10.33008
 20
-14.90113
 30
0.0
 10
-10.32549
 20
-14.90578
 30
0.0
 10
-10.32549
 20
-14.90578
 30
0.0
 10
-10.32091
 20
-14.91045
 30
0.0
 10
-10.31861
 20
-14.91649
 30
0.0
 10
-10.31861
 20
-14.92395
 30
0.0
 10
-10.31861
 20
-14.92395
 30
0.0
 10
-10.31861
 20
-14.93176
 30
0.0
 10
-10.3211
 20
-14.93792
 30
0.0
 10
-10.32607
 20
-14.94247
 30
0.0
 10
-10.32607
 20
-14.94247
 30
0.0
 10
-10.33104
 20
-14.94701
 30
0.0
 10
-10.33781
 20
-14.94928
 30
0.0
 10
-10.34639
 20
-14.94928
 30
0.0
 10
-10.34639
 20
-14.94928
 30
0.0
 10
-10.34958
 20
-14.94928
 30
0.0
 10
-10.35281
 20
-14.949
 30
0.0
 10
-10.35606
 20
-14.94848
 30
0.0
 10
-10.35606
 20
-14.94848
 30
0.0
 10
-10.35931
 20
-14.94795
 30
0.0
 10
-10.36265
 20
-14.94715
 30
0.0
 10
-10.36604
 20
-14.94608
 30
0.0
 10
-10.36604
 20
-14.94608
 30
0.0
 10
-10.36604
 20
-14.94608
 30
0.0
 10
-10.36604
 20
-14.93282
 30
0.0
 10
-10.36604
 20
-14.93282
 30
0.0
 10
-10.36604
 20
-14.93282
 30
0.0
 10
-10.36328
 20
-14.93418
 30
0.0
 10
-10.36044
 20
-14.9352
 30
0.0
 10
-10.35754
 20
-14.93588
 30
0.0
 10
-10.35754
 20
-14.93588
 30
0.0
 10
-10.35463
 20
-14.93656
 30
0.0
 10
-10.3517
 20
-14.9369
 30
0.0
 10
-10.34878
 20
-14.9369
 30
0.0
 10
-10.34878
 20
-14.9369
 30
0.0
 10
-10.3436
 20
-14.9369
 30
0.0
 10
-10.33965
 20
-14.93579
 30
0.0
 10
-10.33696
 20
-14.93358
 30
0.0
 10
-10.33696
 20
-14.93358
 30
0.0
 10
-10.33427
 20
-14.93137
 30
0.0
 10
-10.33293
 20
-14.92817
 30
0.0
 10
-10.33293
 20
-14.92395
 30
0.0
 10
-10.33293
 20
-14.92395
 30
0.0
 10
-10.33293
 20
-14.92005
 30
0.0
 10
-10.33427
 20
-14.91693
 30
0.0
 10
-10.33694
 20
-14.91458
 30
0.0
 10
-10.33694
 20
-14.91458
 30
0.0
 10
-10.33962
 20
-14.91225
 30
0.0
 10
-10.34319
 20
-14.91108
 30
0.0
 10
-10.34764
 20
-14.91108
 30
0.0
 10
-10.34764
 20
-14.91108
 30
0.0
 10
-10.35027
 20
-14.91108
 30
0.0
 10
-10.3529
 20
-14.9114
 30
0.0
 10
-10.35555
 20
-14.91205
 30
0.0
 10
-10.35555
 20
-14.91205
 30
0.0
 10
-10.35819
 20
-14.91269
 30
0.0
 10
-10.36086
 20
-14.91368
 30
0.0
 10
-10.36355
 20
-14.91497
 30
0.0
 10
-10.36355
 20
-14.91497
 30
0.0
 10
-10.36355
 20
-14.91497
 30
0.0
 10
-10.36355
 20
-14.87337
 30
0.0
 10
-10.36355
 20
-14.87337
 30
0.0
  0
SPLINE
  5
93
330
1F
100
AcDbEntity
  8
Layer 1
 62
     7
370
     9
100
AcDbSpline
210
0.0
220
0.0
230
1.0
 70
    11
 71
     3
 72
    20
 73
    16
 74
     0
 42
0.0000000001
 43
0.0000000001
 40
0.0
 40
0.0
 40
0.0
 40
0.0
 40
0.25
 40
0.25
 40
0.25
 40
0.25
 40
0.5
 40
0.5
 40
0.5
 40
0.5
 40
0.75
 40
0.75
 40
0.75
 40
0.75
 40
1.0
 40
1.0
 40
1.0
 40
1.0
 10
-10.5375
 20
-15.175
 30
0.0
 10
-10.5375
 20
-15.175
 30
0.0
 10
-10.5375
 20
-15.025
 30
0.0
 10
-10.5375
 20
-15.025
 30
0.0
 10
-10.5375
 20
-15.025
 30
0.0
 10
-10.5375
 20
-15.025
 30
0.0
 10
-10.4625
 20
-15.025
 30
0.0
 10
-10.4625
 20
-15.025
 30
0.0
 10
-10.4625
 20
-15.025
 30
0.0
 10
-10.4625
 20
-15.025
 30
0.0
 10
-10.4625
 20
-15.175
 30
0.0
 10
-10.4625
 20
-15.175
 30
0.0
 10
-10.4625
 20
-15.175
 30
0.0
 10
-10.4625
 20
-15.175
 30
0.0
 10
-10.5375
 20
-15.175
 30
0.0
 10
-10.5375
 20
-15.175
 30
0.0
  0
SPLINE
  5
94
330
1F
100
AcDbEntity
  8
Layer 1
 62
     7
370
     9
100
AcDbSpline
210
0.0
220
0.0
230
1.0
 70
    11
 71
     3
 72
    20
 73
    16
 74
     0
 42
0.0000000001
 43
0.0000000001
 40
0.0
 40
0.0
 40
0.0
 40
0.0
 40
0.25
 40
0.25
 40
0.25
 40
0.25
 40
0.5
 40
0.5
 40
0.5
 40
0.5
 40
0.75
 40
0.75
 40
0.75
 40
0.75
 40
1.0
 40
1.0
 40
1.0
 40
1.0
 10
-10.65
 20
-14.675
 30
0.0
 10
-10.65
 20
-14.675
 30
0.0
 10
-10.65
 20
-14.525
 30
0.0
 10
-10.65
 20
-14.525
 30
0.0
 10
-10.65
 20
-14.525
 30
0.0
 10
-10.65
 20
-14.525
 30
0.0
 10
-10.35
 20
-14.525
 30
0.0
 10
-10.35
 20
-14.525
 30
0.0
 10
-10.35
 20
-14.525
 30
0.0
 10
-10.35
 20
-14.525
 30
0.0
 10
-10.35
 20
-14.675
 30
0.0
 10
-10.35
 20
-14.675
 30
0.0
 10
-10.35
 20
-14.675
 30
0.0
 10
-10.35
 20
-14.675
 30
0.0
 10
-10.65
 20
-14.675
 30
0.0
 10
-10.65
 20
-14.675
 30
0.0
  0
SPLINE
  5
95
330
1F
100
AcDbEntity
  8
Layer 1
 62
     7
370
     9
100
AcDbSpline
210
0.0
220
0.0
230
1.0
 70
    11
 71
     3
 72
    20
 73
    16
 74
     0
 42
0.0000000001
 43
0.0000000001
 40
0.0
 40
0.0
 40
0.0
 40
0.0
 40
0.25
 40
0.25
 40
0.25
 40
0.25
 40
0.5
 40
0.5
 40
0.5
 40
0.5
 40
0.75
 40
0.75
 40
0.75
 40
0.75
 40
1.0
 40
1.0
 40
1.0
 40
1.0
 10
-10.7675
 20
-15.175
 30
0.0
 10
-10.7675
 20
-15.175
 30
0.0
 10
-10.7675
 20
-15.025
 30
0.0
 10
-10.7675
 20
-15.025
 30
0.0
 10
-10.7675
 20
-15.025
 30
0.0
 10
-10.7675
 20
-15.025
 30
0.0
 10
-10.6925
 20
-15.025
 30
0.0
 10
-10.6925
 20
-15.025
 30
0.0
 10
-10.6925
 20
-15.025
 30
0.0
 10
-10.6925
 20
-15.025
 30
0.0
 10
-10.6925
 20
-15.175
 30
0.0
 10
-10.6925
 20
-15.175
 30
0.0
 10
-10.6925
 20
-15.175
 30
0.0
 10
-10.6925
 20
-15.175
 30
0.0
 10
-10.7675
 20
-15.175
 30
0.0
 10
-10.7675
 20
-15.175
 30
0.0
  0
SPLINE
  5
96
330
1F
100
AcDbEntity
  8
Layer 1
 62
     7
370
     9
100
AcDbSpline
210
0.0
220
0.0
230
1.0
 70
    11
 71
     3
 72
    20
 73
    16
 74
     0
 42
0.0000000001
 43
0.0000000001
 40
0.0
 40
0.0
 40
0.0
 40
0.0
 40
0.25
 40
0.25
 40
0.25
 40
0.25
 40
0.5
 40
0.5
 40
0.5
 40
0.5
 40
0.75
 40
0.75
 40
0.75
 40
0.75
 40
1.0
 40
1.0
 40
1.0
 40
1.0
 10
-10.3075
 20
-15.175
 30
0.0
 10
-10.3075
 20
-15.175
 30
0.0
 10
-10.3075
 20
-15.025
 30
0.0
 10
-10.3075
 20
-15.025
 30
0.0
 10
-10.3075
 20
-15.025
 30
0.0
 10
-10.3075
 20
-15.025
 30
0.0
 10
-10.2325
 20
-15.025
 30
0.0
 10
-10.2325
 20
-15.025
 30
0.0
 10
-10.2325
 20
-15.025
 30
0.0
 10
-10.2325
 20
-15.025
 30
0.0
 10
-10.2325
 20
-15.175
 30
0.0
 10
-10.2325
 20
-15.175
 30
0.0
 10
-10.2325
 20
-15.175
 30
0.0
 10
-10.2325
 20
-15.175
 30
0.0
 10
-10.3075
 20
-15.175
 30
0.0
 10
-10.3075
 20
-15.175
 30
0.0
  0
ENDSEC
  0
SECTION
  2
OBJECTS
  0
DICTIONARY
  5
C
330
0
100
AcDbDictionary
281
     1
  3
ACAD_GROUP
350
D
  3
ACAD_LAYOUT
350
1A
  3
ACAD_MLEADERSTYLE
350
98
  3
ACAD_MLINESTYLE
350
17
  3
ACAD_PLOTSETTINGS
350
19
  3
ACAD_PLOTSTYLENAME
350
E
  3
ACAD_SCALELIST
350
3B
  3
ACAD_TABLESTYLE
350
97
  3
ACAD_VISUALSTYLE
350
2A
  0
DICTIONARY
  5
D
102
{ACAD_REACTORS
330
C
102
}
330
C
100
AcDbDictionary
281
     1
  0
DICTIONARY
  5
1A
102
{ACAD_REACTORS
330
C
102
}
330
C
100
AcDbDictionary
281
     1
  3
Layout1
350
1E
  3
Layout2
350
26
  3
Model
350
22
  0
DICTIONARY
  5
98
102
{ACAD_REACTORS
330
C
102
}
330
C
100
AcDbDictionary
281
     1
  0
DICTIONARY
  5
17
102
{ACAD_REACTORS
330
C
102
}
330
C
100
AcDbDictionary
281
     1
  3
Standard
350
18
  0
DICTIONARY
  5
19
102
{ACAD_REACTORS
330
C
102
}
330
C
100
AcDbDictionary
281
     1
  0
ACDBDICTIONARYWDFLT
  5
E
102
{ACAD_REACTORS
330
C
102
}
330
C
100
AcDbDictionary
281
     1
  3
Normal
350
F
100
AcDbDictionaryWithDefault
340
F
  0
DICTIONARY
  5
3B
102
{ACAD_REACTORS
330
C
102
}
330
C
100
AcDbDictionary
281
     1
  3
A0
350
3C
  3
A1
350
3D
  3
A2
350
3E
  3
A3
350
3F
  3
A4
350
40
  3
A5
350
41
  3
A6
350
42
  3
A7
350
43
  3
A8
350
44
  3
A9
350
45
  3
B0
350
46
  3
B1
350
47
  3
B2
350
48
  3
B3
350
49
  3
B4
350
4A
  3
B5
350
4B
  3
B6
350
4C
  3
B7
350
4D
  3
B8
350
4E
  3
B9
350
4F
  3
C0
350
50
  3
C1
350
51
  3
C2
350
52
  3
C3
350
53
  3
C4
350
54
  3
C5
350
55
  3
C6
350
56
  3
C7
350
57
  3
C8
350
58
  3
C9
350
59
  3
D0
350
5A
  3
D1
350
5B
  3
D2
350
5C
  0
DICTIONARY
  5
97
102
{ACAD_REACTORS
330
C
102
}
330
C
100
AcDbDictionary
281
     1
  0
DICTIONARY
  5
2A
102
{ACAD_REACTORS
330
C
102
}
330
C
100
AcDbDictionary
281
     1
  3
2dWireframe
350
2F
  3
3D Hidden
350
31
  3
3dWireframe
350
30
  3
Basic
350
32
  3
Brighten
350
36
  3
ColorChange
350
3A
  3
Conceptual
350
34
  3
Dim
350
35
  3
Facepattern
350
39
  3
Flat
350
2B
  3
FlatWithEdges
350
2C
  3
Gouraud
350
2D
  3
GouraudWithEdges
350
2E
  3
Linepattern
350
38
  3
Realistic
350
33
  3
Thicken
350
37
  0
LAYOUT
  5
1E
102
{ACAD_REACTORS
330
1A
102
}
330
1A
100
AcDbPlotSettings
  1

  2
none_device
  4

  6

 40
0.0
 41
0.0
 42
0.0
 43
0.0
 44
0.0
 45
0.0
 46
0.0
 47
0.0
 48
0.0
 49
0.0
140
0.0
141
0.0
142
1.0
143
1.0
 70
   688
 72
     0
 73
     0
 74
     5
  7

 75
    16
 76
     0
 77
     2
 78
   300
147
1.0
148
0.0
149
0.0
100
AcDbLayout
  1
Layout1
 70
     1
 71
     1
 10
0.0
 20
0.0
 11
12.0
 21
9.0
 12
0.0
 22
0.0
 32
0.0
 14
1.000000000000000E+20
 24
1.000000000000000E+20
 34
1.000000000000000E+20
 15
-1.000000000000000E+20
 25
-1.000000000000000E+20
 35
-1.000000000000000E+20
146
0.0
 13
0.0
 23
0.0
 33
0.0
 16
1.0
 26
0.0
 36
0.0
 17
0.0
 27
1.0
 37
0.0
 76
     0
330
1B
  0
LAYOUT
  5
26
102
{ACAD_REACTORS
330
1A
102
}
330
1A
100
AcDbPlotSettings
  1

  2
none_device
  4

  6

 40
0.0
 41
0.0
 42
0.0
 43
0.0
 44
0.0
 45
0.0
 46
0.0
 47
0.0
 48
0.0
 49
0.0
140
0.0
141
0.0
142
1.0
143
1.0
 70
   688
 72
     0
 73
     0
 74
     5
  7

 75
    16
 76
     0
 77
     2
 78
   300
147
1.0
148
0.0
149
0.0
100
AcDbLayout
  1
Layout2
 70
     1
 71
     2
 10
0.0
 20
0.0
 11
0.0
 21
0.0
 12
0.0
 22
0.0
 32
0.0
 14
0.0
 24
0.0
 34
0.0
 15
0.0
 25
0.0
 35
0.0
146
0.0
 13
0.0
 23
0.0
 33
0.0
 16
1.0
 26
0.0
 36
0.0
 17
0.0
 27
1.0
 37
0.0
 76
     0
330
23
  0
LAYOUT
  5
22
102
{ACAD_REACTORS
330
1A
102
}
330
1A
100
AcDbPlotSettings
  1

  2
none_device
  4

  6

 40
0.0
 41
0.0
 42
0.0
 43
0.0
 44
0.0
 45
0.0
 46
0.0
 47
0.0
 48
0.0
 49
0.0
140
0.0
141
0.0
142
1.0
143
1.0
 70
  1712
 72
     0
 73
     0
 74
     0
  7

 75
     0
 76
     0
 77
     2
 78
   300
147
1.0
148
0.0
149
0.0
100
AcDbLayout
  1
Model
 70
     1
 71
     0
 10
0.0
 20
0.0
 11
12.0
 21
9.0
 12
0.0
 22
0.0
 32
0.0
 14
-10.83
 24
-15.18
 34
0.0
 15
-10.17
 25
-14.52
 35
0.0
146
0.0
 13
0.0
 23
0.0
 33
0.0
 16
1.0
 26
0.0
 36
0.0
 17
0.0
 27
1.0
 37
0.0
 76
     0
330
1F
331
29
  0
MLINESTYLE
  5
18
102
{ACAD_REACTORS
330
17
102
}
330
17
100
AcDbMlineStyle
  2
Standard
 70
     0
  3

 62
   256
 51
90.0
 52
90.0
 71
     2
 49
0.5
 62
   256
  6
BYLAYER
 49
-0.5
 62
   256
  6
BYLAYER
  0
ACDBPLACEHOLDER
  5
F
102
{ACAD_REACTORS
330
E
102
}
330
E
  0
SCALE
  5
3C
102
{ACAD_REACTORS
330
3B
102
}
330
3B
100
AcDbScale
 70
     0
300
1:1
140
1.0
141
1.0
290
     1
  0
SCALE
  5
3D
102
{ACAD_REACTORS
330
3B
102
}
330
3B
100
AcDbScale
 70
     0
300
1:2
140
1.0
141
2.0
290
     0
  0
SCALE
  5
3E
102
{ACAD_REACTORS
330
3B
102
}
330
3B
100
AcDbScale
 70
     0
300
1:4
140
1.0
141
4.0
290
     0
  0
SCALE
  5
3F
102
{ACAD_REACTORS
330
3B
102
}
330
3B
100
AcDbScale
 70
     0
300
1:5
140
1.0
141
5.0
290
     0
  0
SCALE
  5
40
102
{ACAD_REACTORS
330
3B
102
}
330
3B
100
AcDbScale
 70
     0
300
1:8
140
1.0
141
8.0
290
     0
  0
SCALE
  5
41
102
{ACAD_REACTORS
330
3B
102
}
330
3B
100
AcDbScale
 70
     0
300
1:10
140
1.0
141
10.0
290
     0
  0
SCALE
  5
42
102
{ACAD_REACTORS
330
3B
102
}
330
3B
100
AcDbScale
 70
     0
300
1:16
140
1.0
141
16.0
290
     0
  0
SCALE
  5
43
102
{ACAD_REACTORS
330
3B
102
}
330
3B
100
AcDbScale
 70
     0
300
1:20
140
1.0
141
20.0
290
     0
  0
SCALE
  5
44
102
{ACAD_REACTORS
330
3B
102
}
330
3B
100
AcDbScale
 70
     0
300
1:30
140
1.0
141
30.0
290
     0
  0
SCALE
  5
45
102
{ACAD_REACTORS
330
3B
102
}
330
3B
100
AcDbScale
 70
     0
300
1:40
140
1.0
141
40.0
290
     0
  0
SCALE
  5
46
102
{ACAD_REACTORS
330
3B
102
}
330
3B
100
AcDbScale
 70
     0
300
1:50
140
1.0
141
50.0
290
     0
  0
SCALE
  5
47
102
{ACAD_REACTORS
330
3B
102
}
330
3B
100
AcDbScale
 70
     0
300
1:100
140
1.0
141
100.0
290
     0
  0
SCALE
  5
48
102
{ACAD_REACTORS
330
3B
102
}
330
3B
100
AcDbScale
 70
     0
300
2:1
140
2.0
141
1.0
290
     0
  0
SCALE
  5
49
102
{ACAD_REACTORS
330
3B
102
}
330
3B
100
AcDbScale
 70
     0
300
4:1
140
4.0
141
1.0
290
     0
  0
SCALE
  5
4A
102
{ACAD_REACTORS
330
3B
102
}
330
3B
100
AcDbScale
 70
     0
300
8:1
140
8.0
141
1.0
290
     0
  0
SCALE
  5
4B
102
{ACAD_REACTORS
330
3B
102
}
330
3B
100
AcDbScale
 70
     0
300
10:1
140
10.0
141
1.0
290
     0
  0
SCALE
  5
4C
102
{ACAD_REACTORS
330
3B
102
}
330
3B
100
AcDbScale
 70
     0
300
100:1
140
100.0
141
1.0
290
     0
  0
SCALE
  5
4D
102
{ACAD_REACTORS
330
3B
102
}
330
3B
100
AcDbScale
 70
     0
300
1/128" = 1'-0"
140
0.0078125
141
12.0
290
     0
  0
SCALE
  5
4E
102
{ACAD_REACTORS
330
3B
102
}
330
3B
100
AcDbScale
 70
     0
300
1/64" = 1'-0"
140
0.015625
141
12.0
290
     0
  0
SCALE
  5
4F
102
{ACAD_REACTORS
330
3B
102
}
330
3B
100
AcDbScale
 70
     0
300
1/32" = 1'-0"
140
0.03125
141
12.0
290
     0
  0
SCALE
  5
50
102
{ACAD_REACTORS
330
3B
102
}
330
3B
100
AcDbScale
 70
     0
300
1/16" = 1'-0"
140
0.0625
141
12.0
290
     0
  0
SCALE
  5
51
102
{ACAD_REACTORS
330
3B
102
}
330
3B
100
AcDbScale
 70
     0
300
3/32" = 1'-0"
140
0.09375
141
12.0
290
     0
  0
SCALE
  5
52
102
{ACAD_REACTORS
330
3B
102
}
330
3B
100
AcDbScale
 70
     0
300
1/8" = 1'-0"
140
0.125
141
12.0
290
     0
  0
SCALE
  5
53
102
{ACAD_REACTORS
330
3B
102
}
330
3B
100
AcDbScale
 70
     0
300
3/16" = 1'-0"
140
0.1875
141
12.0
290
     0
  0
SCALE
  5
54
102
{ACAD_REACTORS
330
3B
102
}
330
3B
100
AcDbScale
 70
     0
300
1/4" = 1'-0"
140
0.25
141
12.0
290
     0
  0
SCALE
  5
55
102
{ACAD_REACTORS
330
3B
102
}
330
3B
100
AcDbScale
 70
     0
300
3/8" = 1'-0"
140
0.375
141
12.0
290
     0
  0
SCALE
  5
56
102
{ACAD_REACTORS
330
3B
102
}
330
3B
100
AcDbScale
 70
     0
300
1/2" = 1'-0"
140
0.5
141
12.0
290
     0
  0
SCALE
  5
57
102
{ACAD_REACTORS
330
3B
102
}
330
3B
100
AcDbScale
 70
     0
300
3/4" = 1'-0"
140
0.75
141
12.0
290
     0
  0
SCALE
  5
58
102
{ACAD_REACTORS
330
3B
102
}
330
3B
100
AcDbScale
 70
     0
300
1" = 1'-0"
140
1.0
141
12.0
290
     0
  0
SCALE
  5
59
102
{ACAD_REACTORS
330
3B
102
}
330
3B
100
AcDbScale
 70
     0
300
1-1/2" = 1'-0"
140
1.5
141
12.0
290
     0
  0
SCALE
  5
5A
102
{ACAD_REACTORS
330
3B
102
}
330
3B
100
AcDbScale
 70
     0
300
3" = 1'-0"
140
3.0
141
12.0
290
     0
  0
SCALE
  5
5B
102
{ACAD_REACTORS
330
3B
102
}
330
3B
100
AcDbScale
 70
     0
300
6" = 1'-0"
140
6.0
141
12.0
290
     0
  0
SCALE
  5
5C
102
{ACAD_REACTORS
330
3B
102
}
330
3B
100
AcDbScale
 70
     0
300
1'-0" = 1'-0"
140
12.0
141
12.0
290
     0
  0
VISUALSTYLE
  5
2F
102
{ACAD_REACTORS
330
2A
102
}
330
2A
100
AcDbVisualStyle
  2
2dWireframe
 70
     4
 71
     0
 72
     2
 73
     0
 90
        0
 40
-0.6
 41
-30.0
 62
     5
 63
     7
421
 16777215
 74
     1
 91
        4
 64
     7
 65
   257
 75
     1
175
     1
 42
1.0
 92
        0
 66
   257
 43
1.0
 76
     1
 77
     6
 78
     2
 67
     7
 79
     5
170
     0
171
     0
290
     0
174
     0
 93
        1
 44
0.0
173
     0
291
     0
 45
0.0
  0
VISUALSTYLE
  5
31
102
{ACAD_REACTORS
330
2A
102
}
330
2A
100
AcDbVisualStyle
  2
3D Hidden
 70
     6
 71
     1
 72
     2
 73
     2
 90
        0
 40
-0.6
 41
-30.0
 62
     5
 63
     7
421
 16777215
 74
     2
 91
        2
 64
     7
 65
   257
 75
     2
175
     1
 42
40.0
 92
        0
 66
   257
 43
1.0
 76
     1
 77
     6
 78
     2
 67
     7
 79
     3
170
     0
171
     0
290
     0
174
     0
 93
        1
 44
0.0
173
     0
291
     0
 45
0.0
  0
VISUALSTYLE
  5
30
102
{ACAD_REACTORS
330
2A
102
}
330
2A
100
AcDbVisualStyle
  2
3dWireframe
 70
     5
 71
     0
 72
     2
 73
     0
 90
        0
 40
-0.6
 41
-30.0
 62
     5
 63
     7
421
 16777215
 74
     1
 91
        4
 64
     7
 65
   257
 75
     1
175
     1
 42
1.0
 92
        0
 66
   257
 43
1.0
 76
     1
 77
     6
 78
     2
 67
     7
 79
     5
170
     0
171
     0
290
     0
174
     0
 93
        1
 44
0.0
173
     0
291
     0
 45
0.0
  0
VISUALSTYLE
  5
32
102
{ACAD_REACTORS
330
2A
102
}
330
2A
100
AcDbVisualStyle
  2
Basic
 70
     7
 71
     1
 72
     0
 73
     1
 90
        0
 40
-0.6
 41
-30.0
 62
     5
 63
     7
421
 16777215
 74
     0
 91
        4
 64
     7
 65
   257
 75
     1
175
     1
 42
1.0
 92
        8
 66
     7
 43
1.0
 76
     1
 77
     6
 78
     2
 67
     7
 79
     5
170
     0
171
     0
290
     0
174
     0
 93
        1
 44
0.0
173
     0
291
     1
 45
0.0
  0
VISUALSTYLE
  5
36
102
{ACAD_REACTORS
330
2A
102
}
330
2A
100
AcDbVisualStyle
  2
Brighten
 70
    12
 71
     2
 72
     2
 73
     0
 90
        0
 40
-0.6
 41
-30.0
 62
     5
 63
     7
421
 16777215
 74
     1
 91
        4
 64
     7
 65
   257
 75
     1
175
     1
 42
1.0
 92
        8
 66
     7
 43
1.0
 76
     1
 77
     6
 78
     2
 67
     7
 79
     5
170
     0
171
     0
290
     0
174
     0
 93
        1
 44
50.0
173
     0
291
     1
 45
0.0
  0
VISUALSTYLE
  5
3A
102
{ACAD_REACTORS
330
2A
102
}
330
2A
100
AcDbVisualStyle
  2
ColorChange
 70
    16
 71
     2
 72
     2
 73
     3
 90
        0
 40
-0.6
 41
-30.0
 62
     5
 63
     8
421
  8421504
 74
     1
 91
        4
 64
     7
 65
   257
 75
     1
175
     1
 42
1.0
 92
        8
 66
     8
424
  8421504
 43
1.0
 76
     1
 77
     6
 78
     2
 67
     7
 79
     5
170
     0
171
     0
290
     0
174
     0
 93
        1
 44
0.0
173
     0
291
     1
 45
0.0
  0
VISUALSTYLE
  5
34
102
{ACAD_REACTORS
330
2A
102
}
330
2A
100
AcDbVisualStyle
  2
Conceptual
 70
     9
 71
     3
 72
     2
 73
     0
 90
        0
 40
-0.6
 41
-30.0
 62
     5
 63
     7
421
 16777215
 74
     2
 91
        2
 64
     7
 65
   257
 75
     1
175
     1
 42
40.0
 92
        8
 66
     7
 43
1.0
 76
     1
 77
     6
 78
     2
 67
     7
 79
     3
170
     0
171
     0
290
     0
174
     0
 93
        1
 44
0.0
173
     0
291
     0
 45
0.0
  0
VISUALSTYLE
  5
35
102
{ACAD_REACTORS
330
2A
102
}
330
2A
100
AcDbVisualStyle
  2
Dim
 70
    11
 71
     2
 72
     2
 73
     0
 90
        0
 40
-0.6
 41
-30.0
 62
     5
 63
     7
421
 16777215
 74
     1
 91
        4
 64
     7
 65
   257
 75
     1
175
     1
 42
1.0
 92
        8
 66
     7
 43
1.0
 76
     1
 77
     6
 78
     2
 67
     7
 79
     5
170
     0
171
     0
290
     0
174
     0
 93
        1
 44
-50.0
173
     0
291
     1
 45
0.0
  0
VISUALSTYLE
  5
39
102
{ACAD_REACTORS
330
2A
102
}
330
2A
100
AcDbVisualStyle
  2
Facepattern
 70
    15
 71
     2
 72
     2
 73
     0
 90
        0
 40
-0.6
 41
-30.0
 62
     5
 63
     7
421
 16777215
 74
     1
 91
        4
 64
     7
 65
   257
 75
     1
175
     1
 42
1.0
 92
        8
 66
     7
 43
1.0
 76
     1
 77
     6
 78
     2
 67
     7
 79
     5
170
     0
171
     0
290
     0
174
     0
 93
        1
 44
0.0
173
     0
291
     1
 45
0.0
  0
VISUALSTYLE
  5
2B
102
{ACAD_REACTORS
330
2A
102
}
330
2A
100
AcDbVisualStyle
  2
Flat
 70
     0
 71
     2
 72
     1
 73
     1
 90
        2
 40
-0.6
 41
30.0
 62
     5
 63
     7
421
 16777215
 74
     0
 91
        4
 64
     7
 65
   257
 75
     1
175
     1
 42
1.0
 92
        8
 66
     7
 43
1.0
 76
     1
 77
     6
 78
     2
 67
     7
 79
     5
170
     0
171
     0
290
     0
174
     0
 93
       13
 44
0.0
173
     0
291
     1
 45
0.0
  0
VISUALSTYLE
  5
2C
102
{ACAD_REACTORS
330
2A
102
}
330
2A
100
AcDbVisualStyle
  2
FlatWithEdges
 70
     1
 71
     2
 72
     1
 73
     1
 90
        2
 40
-0.6
 41
30.0
 62
     5
 63
     7
421
 16777215
 74
     1
 91
        4
 64
     7
 65
   257
 75
     1
175
     1
 42
1.0
 92
        0
 66
   257
 43
1.0
 76
     1
 77
     6
 78
     2
 67
     7
 79
     5
170
     0
171
     0
290
     0
174
     0
 93
       13
 44
0.0
173
     0
291
     1
 45
0.0
  0
VISUALSTYLE
  5
2D
102
{ACAD_REACTORS
330
2A
102
}
330
2A
100
AcDbVisualStyle
  2
Gouraud
 70
     2
 71
     2
 72
     2
 73
     1
 90
        2
 40
-0.6
 41
30.0
 62
     5
 63
     7
421
 16777215
 74
     0
 91
        4
 64
     7
 65
   257
 75
     1
175
     1
 42
1.0
 92
        0
 66
     7
 43
1.0
 76
     1
 77
     6
 78
     2
 67
     7
 79
     5
170
     0
171
     0
290
     0
174
     0
 93
       13
 44
0.0
173
     0
291
     1
 45
0.0
  0
VISUALSTYLE
  5
2E
102
{ACAD_REACTORS
330
2A
102
}
330
2A
100
AcDbVisualStyle
  2
GouraudWithEdges
 70
     3
 71
     2
 72
     2
 73
     1
 90
        2
 40
-0.6
 41
30.0
 62
     5
 63
     7
421
 16777215
 74
     1
 91
        4
 64
     7
 65
   257
 75
     1
175
     1
 42
1.0
 92
        0
 66
   257
 43
1.0
 76
     1
 77
     6
 78
     2
 67
     7
 79
     5
170
     0
171
     0
290
     0
174
     0
 93
       13
 44
0.0
173
     0
291
     1
 45
0.0
  0
VISUALSTYLE
  5
38
102
{ACAD_REACTORS
330
2A
102
}
330
2A
100
AcDbVisualStyle
  2
Linepattern
 70
    14
 71
     2
 72
     2
 73
     0
 90
        0
 40
-0.6
 41
-30.0
 62
     5
 63
     7
421
 16777215
 74
     1
 91
        4
 64
     7
 65
   257
 75
     7
175
     7
 42
1.0
 92
        8
 66
     7
 43
1.0
 76
     1
 77
     6
 78
     2
 67
     7
 79
     5
170
     0
171
     0
290
     0
174
     0
 93
        1
 44
0.0
173
     0
291
     1
 45
0.0
  0
VISUALSTYLE
  5
33
102
{ACAD_REACTORS
330
2A
102
}
330
2A
100
AcDbVisualStyle
  2
Realistic
 70
     8
 71
     2
 72
     2
 73
     0
 90
        0
 40
-0.6
 41
-30.0
 62
     5
 63
     7
421
 16777215
 74
     1
 91
        0
 64
     7
 65
   257
 75
     1
175
     1
 42
1.0
 92
        8
 66
     8
424
  7895160
 43
1.0
 76
     1
 77
     6
 78
     2
 67
     7
 79
     5
170
     0
171
     0
290
     0
174
     0
 93
       13
 44
0.0
173
     0
291
     0
 45
0.0
  0
VISUALSTYLE
  5
37
102
{ACAD_REACTORS
330
2A
102
}
330
2A
100
AcDbVisualStyle
  2
Thicken
 70
    13
 71
     2
 72
     2
 73
     0
 90
        0
 40
-0.6
 41
-30.0
 62
     5
 63
     7
421
 16777215
 74
     1
 91
        4
 64
     7
 65
   257
 75
     1
175
     1
 42
1.0
 92
       12
 66
     7
 43
1.0
 76
     1
 77
     6
 78
     2
 67
     7
 79
     5
170
     0
171
     0
290
     0
174
     0
 93
        1
 44
0.0
173
     0
291
     1
 45
0.0
  0
ENDSEC
  0
EOF
