  0
SECTION
  2
HEADER
  9
$ACADVER
  1
AC1021
  9
$ACADMAINTVER
 70
    25
  9
$DWGCODEPAGE
  3
ANSI_1252
  9
$INSBASE
 10
0.0
 20
0.0
 30
0.0
  9
$EXTMIN
 10
-11.7
 20
-16.05
 30
0.0
  9
$EXTMAX
 10
-9.3
 20
-13.65
 30
0.0
  9
$LIMMIN
 10
0.0
 20
0.0
  9
$LIMMAX
 10
12.0
 20
9.0
  9
$ORTHOMODE
 70
     0
  9
$REGENMODE
 70
     1
  9
$FILLMODE
 70
     1
  9
$QTEXTMODE
 70
     0
  9
$MIRRTEXT
 70
     1
  9
$LTSCALE
 40
1.0
  9
$ATTMODE
 70
     1
  9
$TEXTSIZE
 40
0.2
  9
$TRACEWID
 40
0.05
  9
$TEXTSTYLE
  7
Standard
  9
$CLAYER
  8
0
  9
$CELTYPE
  6
ByLayer
  9
$CECOLOR
 62
   256
  9
$CELTSCALE
 40
1.0
  9
$DISPSILH
 70
     0
  9
$DIMSCALE
 40
1.0
  9
$DIMASZ
 40
0.18
  9
$DIMEXO
 40
0.0625
  9
$DIMDLI
 40
0.38
  9
$DIMRND
 40
0.0
  9
$DIMDLE
 40
0.0
  9
$DIMEXE
 40
0.18
  9
$DIMTP
 40
0.0
  9
$DIMTM
 40
0.0
  9
$DIMTXT
 40
0.18
  9
$DIMCEN
 40
0.09
  9
$DIMTSZ
 40
0.0
  9
$DIMTOL
 70
     0
  9
$DIMLIM
 70
     0
  9
$DIMTIH
 70
     1
  9
$DIMTOH
 70
     1
  9
$DIMSE1
 70
     0
  9
$DIMSE2
 70
     0
  9
$DIMTAD
 70
     0
  9
$DIMZIN
 70
     0
  9
$DIMBLK
  1

  9
$DIMASO
 70
     1
  9
$DIMSHO
 70
     1
  9
$DIMPOST
  1

  9
$DIMAPOST
  1

  9
$DIMALT
 70
     0
  9
$DIMALTD
 70
     2
  9
$DIMALTF
 40
25.4
  9
$DIMLFAC
 40
1.0
  9
$DIMTOFL
 70
     0
  9
$DIMTVP
 40
0.0
  9
$DIMTIX
 70
     0
  9
$DIMSOXD
 70
     0
  9
$DIMSAH
 70
     0
  9
$DIMBLK1
  1

  9
$DIMBLK2
  1

  9
$DIMSTYLE
  2
Standard
  9
$DIMCLRD
 70
     0
  9
$DIMCLRE
 70
     0
  9
$DIMCLRT
 70
     0
  9
$DIMTFAC
 40
1.0
  9
$DIMGAP
 40
0.09
  9
$DIMJUST
 70
     0
  9
$DIMSD1
 70
     0
  9
$DIMSD2
 70
     0
  9
$DIMTOLJ
 70
     1
  9
$DIMTZIN
 70
     0
  9
$DIMALTZ
 70
     0
  9
$DIMALTTZ
 70
     0
  9
$DIMUPT
 70
     0
  9
$DIMDEC
 70
     4
  9
$DIMTDEC
 70
     4
  9
$DIMALTU
 70
     2
  9
$DIMALTTD
 70
     2
  9
$DIMTXSTY
  7
Standard
  9
$DIMAUNIT
 70
     0
  9
$DIMADEC
 70
     0
  9
$DIMALTRND
 40
0.0
  9
$DIMAZIN
 70
     0
  9
$DIMDSEP
 70
    46
  9
$DIMATFIT
 70
     3
  9
$DIMFRAC
 70
     0
  9
$DIMLDRBLK
  1

  9
$DIMLUNIT
 70
     2
  9
$DIMLWD
 70
    -2
  9
$DIMLWE
 70
    -2
  9
$DIMTMOVE
 70
     0
  9
$DIMFXL
 40
1.0
  9
$DIMFXLON
 70
     0
  9
$DIMJOGANG
 40
0.7853981633974483
  9
$DIMTFILL
 70
     0
  9
$DIMTFILLCLR
 70
     0
  9
$DIMARCSYM
 70
     0
  9
$DIMLTYPE
  6

  9
$DIMLTEX1
  6

  9
$DIMLTEX2
  6

  9
$LUNITS
 70
     2
  9
$LUPREC
 70
     4
  9
$SKETCHINC
 40
0.1
  9
$FILLETRAD
 40
0.5
  9
$AUNITS
 70
     0
  9
$AUPREC
 70
     0
  9
$MENU
  1
.
  9
$ELEVATION
 40
0.0
  9
$PELEVATION
 40
0.0
  9
$THICKNESS
 40
0.0
  9
$LIMCHECK
 70
     0
  9
$CHAMFERA
 40
0.5
  9
$CHAMFERB
 40
0.5
  9
$CHAMFERC
 40
1.0
  9
$CHAMFERD
 40
0.0
  9
$SKPOLY
 70
     0
  9
$TDCREATE
 40
2458649.843113831
  9
$TDUCREATE
 40
2458649.801447164
  9
$TDUPDATE
 40
2458649.843113842
  9
$TDUUPDATE
 40
2458649.801447176
  9
$TDINDWG
 40
0.0000000116
  9
$TDUSRTIMER
 40
0.0000000116
  9
$USRTIMER
 70
     1
  9
$ANGBASE
 50
0.0
  9
$ANGDIR
 70
     0
  9
$PDMODE
 70
     0
  9
$PDSIZE
 40
0.0
  9
$PLINEWID
 40
0.0
  9
$SPLFRAME
 70
     0
  9
$SPLINETYPE
 70
     6
  9
$SPLINESEGS
 70
     8
  9
$HANDSEED
  5
99
  9
$SURFTAB1
 70
     6
  9
$SURFTAB2
 70
     6
  9
$SURFTYPE
 70
     6
  9
$SURFU
 70
     6
  9
$SURFV
 70
     6
  9
$UCSBASE
  2

  9
$UCSNAME
  2

  9
$UCSORG
 10
0.0
 20
0.0
 30
0.0
  9
$UCSXDIR
 10
1.0
 20
0.0
 30
0.0
  9
$UCSYDIR
 10
0.0
 20
1.0
 30
0.0
  9
$UCSORTHOREF
  2

  9
$UCSORTHOVIEW
 70
     0
  9
$UCSORGTOP
 10
0.0
 20
0.0
 30
0.0
  9
$UCSORGBOTTOM
 10
0.0
 20
0.0
 30
0.0
  9
$UCSORGLEFT
 10
0.0
 20
0.0
 30
0.0
  9
$UCSORGRIGHT
 10
0.0
 20
0.0
 30
0.0
  9
$UCSORGFRONT
 10
0.0
 20
0.0
 30
0.0
  9
$UCSORGBACK
 10
0.0
 20
0.0
 30
0.0
  9
$PUCSBASE
  2

  9
$PUCSNAME
  2

  9
$PUCSORG
 10
0.0
 20
0.0
 30
0.0
  9
$PUCSXDIR
 10
1.0
 20
0.0
 30
0.0
  9
$PUCSYDIR
 10
0.0
 20
1.0
 30
0.0
  9
$PUCSORTHOREF
  2

  9
$PUCSORTHOVIEW
 70
     0
  9
$PUCSORGTOP
 10
0.0
 20
0.0
 30
0.0
  9
$PUCSORGBOTTOM
 10
0.0
 20
0.0
 30
0.0
  9
$PUCSORGLEFT
 10
0.0
 20
0.0
 30
0.0
  9
$PUCSORGRIGHT
 10
0.0
 20
0.0
 30
0.0
  9
$PUCSORGFRONT
 10
0.0
 20
0.0
 30
0.0
  9
$PUCSORGBACK
 10
0.0
 20
0.0
 30
0.0
  9
$USERI1
 70
     0
  9
$USERI2
 70
     0
  9
$USERI3
 70
     0
  9
$USERI4
 70
     0
  9
$USERI5
 70
     0
  9
$USERR1
 40
0.0
  9
$USERR2
 40
0.0
  9
$USERR3
 40
0.0
  9
$USERR4
 40
0.0
  9
$USERR5
 40
0.0
  9
$WORLDVIEW
 70
     1
  9
$SHADEDGE
 70
     3
  9
$SHADEDIF
 70
    70
  9
$TILEMODE
 70
     1
  9
$MAXACTVP
 70
    64
  9
$PINSBASE
 10
0.0
 20
0.0
 30
0.0
  9
$PLIMCHECK
 70
     0
  9
$PEXTMIN
 10
1.000000000000000E+20
 20
1.000000000000000E+20
 30
1.000000000000000E+20
  9
$PEXTMAX
 10
-1.000000000000000E+20
 20
-1.000000000000000E+20
 30
-1.000000000000000E+20
  9
$PLIMMIN
 10
0.0
 20
0.0
  9
$PLIMMAX
 10
12.0
 20
9.0
  9
$UNITMODE
 70
     0
  9
$VISRETAIN
 70
     1
  9
$PLINEGEN
 70
     0
  9
$PSLTSCALE
 70
     1
  9
$TREEDEPTH
 70
  3020
  9
$CMLSTYLE
  2
Standard
  9
$CMLJUST
 70
     0
  9
$CMLSCALE
 40
1.0
  9
$PROXYGRAPHICS
 70
     1
  9
$MEASUREMENT
 70
     0
  9
$CELWEIGHT
370
    -1
  9
$ENDCAPS
280
     0
  9
$JOINSTYLE
280
     0
  9
$LWDISPLAY
290
     0
  9
$INSUNITS
 70
     5
  9
$HYPERLINKBASE
  1

  9
$STYLESHEET
  1

  9
$XEDIT
290
     1
  9
$CEPSNTYPE
380
     0
  9
$PSTYLEMODE
290
     1
  9
$FINGERPRINTGUID
  2
{A930FA6A-C5CA-45B5-AE2F-C23753AFF7D6}
  9
$VERSIONGUID
  2
{FAEB1C32-E019-11D5-929B-00C0DF256EC4}
  9
$EXTNAMES
290
     1
  9
$PSVPSCALE
 40
0.0
  9
$OLESTARTUP
290
     0
  9
$SORTENTS
280
   127
  9
$INDEXCTL
280
     0
  9
$HIDETEXT
280
     1
  9
$XCLIPFRAME
290
     0
  9
$HALOGAP
280
     0
  9
$OBSCOLOR
 70
   257
  9
$OBSLTYPE
280
     0
  9
$INTERSECTIONDISPLAY
280
     0
  9
$INTERSECTIONCOLOR
 70
   257
  9
$DIMASSOC
280
     2
  9
$PROJECTNAME
  1

  9
$CAMERADISPLAY
290
     0
  9
$LENSLENGTH
 40
50.0
  9
$CAMERAHEIGHT
 40
0.0
  9
$STEPSPERSEC
 40
2.0
  9
$STEPSIZE
 40
6.0
  9
$3DDWFPREC
 40
2.0
  9
$PSOLWIDTH
 40
0.25
  9
$PSOLHEIGHT
 40
4.0
  9
$LOFTANG1
 40
1.570796326794897
  9
$LOFTANG2
 40
1.570796326794897
  9
$LOFTMAG1
 40
0.0
  9
$LOFTMAG2
 40
0.0
  9
$LOFTPARAM
 70
     7
  9
$LOFTNORMALS
280
     1
  9
$LATITUDE
 40
37.795
  9
$LONGITUDE
 40
-122.394
  9
$NORTHDIRECTION
 40
0.0
  9
$TIMEZONE
 70
 -8000
  9
$LIGHTGLYPHDISPLAY
280
     1
  9
$TILEMODELIGHTSYNCH
280
     1
  9
$SOLIDHIST
280
     1
  9
$SHOWHIST
280
     1
  9
$DWFFRAME
280
     2
  9
$DGNFRAME
280
     2
  9
$REALWORLDSCALE
290
     1
  9
$INTERFERECOLOR
 62
   256
  9
$CSHADOW
280
     0
  9
$SHADOWPLANELOCATION
 40
0.0
  0
ENDSEC
  0
SECTION
  2
CLASSES
  0
CLASS
  1
ACDBDICTIONARYWDFLT
  2
AcDbDictionaryWithDefault
  3
ObjectDBX Classes
 90
        0
 91
        3
280
     0
281
     0
  0
CLASS
  1
VISUALSTYLE
  2
AcDbVisualStyle
  3
ObjectDBX Classes
 90
     4095
 91
        3
280
     0
281
     0
  0
CLASS
  1
SCALE
  2
AcDbScale
  3
ObjectDBX Classes
 90
     1153
 91
        3
280
     0
281
     0
  0
ENDSEC
  0
SECTION
  2
TABLES
  0
TABLE
  2
VPORT
  5
8
330
0
100
AcDbSymbolTable
 70
     1
  0
VPORT
  5
29
330
8
100
AcDbSymbolTableRecord
100
AcDbViewportTableRecord
  2
*Active
 70
     0
 10
0.0
 20
0.0
 11
1.0
 21
1.0
 12
10.42990654205607
 22
4.5
 13
0.0
 23
0.0
 14
0.5
 24
0.5
 15
0.5
 25
0.5
 16
0.0
 26
0.0
 36
1.0
 17
0.0
 27
0.0
 37
0.0
 40
9.0
 41
1.972972972850329
 42
50.0
 43
0.0
 44
0.0
 50
0.0
 51
0.0
 71
     0
 72
   100
 73
     1
 74
     3
 75
     0
 76
     0
 77
     0
 78
     0
281
     0
 65
     1
110
0.0
120
0.0
130
0.0
111
1.0
121
0.0
131
0.0
112
0.0
122
1.0
132
0.0
 79
     0
146
0.0
 60
     3
 61
     5
292
     1
282
     1
141
0.0
142
0.0
 63
   256
  0
ENDTAB
  0
TABLE
  2
LTYPE
  5
5
330
0
100
AcDbSymbolTable
 70
     1
  0
LTYPE
  5
14
330
5
100
AcDbSymbolTableRecord
100
AcDbLinetypeTableRecord
  2
ByBlock
 70
     0
  3

 72
    65
 73
     0
 40
0.0
  0
LTYPE
  5
15
330
5
100
AcDbSymbolTableRecord
100
AcDbLinetypeTableRecord
  2
ByLayer
 70
     0
  3

 72
    65
 73
     0
 40
0.0
  0
LTYPE
  5
16
330
5
100
AcDbSymbolTableRecord
100
AcDbLinetypeTableRecord
  2
Continuous
 70
     0
  3
Solid line
 72
    65
 73
     0
 40
0.0
  0
ENDTAB
  0
TABLE
  2
LAYER
  5
2
330
0
100
AcDbSymbolTable
 70
     2
  0
LAYER
  5
10
330
2
100
AcDbSymbolTableRecord
100
AcDbLayerTableRecord
  2
0
 70
     0
 62
     7
  6
Continuous
370
    -3
390
F
347
0
  0
LAYER
  5
5E
330
2
100
AcDbSymbolTableRecord
100
AcDbLayerTableRecord
  2
Layer 1
 70
     0
 62
     7
  6
Continuous
370
    -3
390
F
347
0
  0
ENDTAB
  0
TABLE
  2
STYLE
  5
3
330
0
100
AcDbSymbolTable
 70
     1
  0
STYLE
  5
11
330
3
100
AcDbSymbolTableRecord
100
AcDbTextStyleTableRecord
  2
Standard
 70
     0
 40
0.0
 41
1.0
 50
0.0
 71
     0
 42
0.2
  3
txt
  4

  0
ENDTAB
  0
TABLE
  2
VIEW
  5
6
330
0
100
AcDbSymbolTable
 70
     0
  0
ENDTAB
  0
TABLE
  2
UCS
  5
7
330
0
100
AcDbSymbolTable
 70
     0
  0
ENDTAB
  0
TABLE
  2
APPID
  5
9
330
0
100
AcDbSymbolTable
 70
     2
  0
APPID
  5
12
330
9
100
AcDbSymbolTableRecord
100
AcDbRegAppTableRecord
  2
ACAD
 70
     0
  0
APPID
  5
5D
330
9
100
AcDbSymbolTableRecord
100
AcDbRegAppTableRecord
  2
ODA
 70
     0
  0
ENDTAB
  0
TABLE
  2
DIMSTYLE
  5
A
330
0
100
AcDbSymbolTable
 70
     1
100
AcDbDimStyleTable
  0
DIMSTYLE
105
27
330
A
100
AcDbSymbolTableRecord
100
AcDbDimStyleTableRecord
  2
Standard
 70
     0
340
11
  0
ENDTAB
  0
TABLE
  2
BLOCK_RECORD
  5
1
330
0
100
AcDbSymbolTable
 70
     1
  0
BLOCK_RECORD
  5
1F
330
1
100
AcDbSymbolTableRecord
100
AcDbBlockTableRecord
  2
*Model_Space
340
22
 70
     0
280
     1
281
     0
  0
BLOCK_RECORD
  5
1B
330
1
100
AcDbSymbolTableRecord
100
AcDbBlockTableRecord
  2
*Paper_Space
340
1E
 70
     0
280
     1
281
     0
  0
BLOCK_RECORD
  5
23
330
1
100
AcDbSymbolTableRecord
100
AcDbBlockTableRecord
  2
*Paper_Space0
340
26
 70
     0
280
     1
281
     0
  0
ENDTAB
  0
ENDSEC
  0
SECTION
  2
BLOCKS
  0
BLOCK
  5
20
330
1F
100
AcDbEntity
  8
0
100
AcDbBlockBegin
  2
*Model_Space
 70
     0
 10
0.0
 20
0.0
 30
0.0
  3
*Model_Space
  1

  0
ENDBLK
  5
21
330
1F
100
AcDbEntity
  8
0
100
AcDbBlockEnd
  0
BLOCK
  5
1C
330
1B
100
AcDbEntity
 67
     1
  8
0
100
AcDbBlockBegin
  2
*Paper_Space
 70
     0
 10
0.0
 20
0.0
 30
0.0
  3
*Paper_Space
  1

  0
ENDBLK
  5
1D
330
1B
100
AcDbEntity
 67
     1
  8
0
100
AcDbBlockEnd
  0
BLOCK
  5
24
330
23
100
AcDbEntity
  8
0
100
AcDbBlockBegin
  2
*Paper_Space0
 70
     0
 10
0.0
 20
0.0
 30
0.0
  3
*Paper_Space0
  1

  0
ENDBLK
  5
25
330
23
100
AcDbEntity
  8
0
100
AcDbBlockEnd
  0
ENDSEC
  0
SECTION
  2
ENTITIES
  0
LWPOLYLINE
  5
5F
330
1F
100
AcDbEntity
  8
Layer 1
 62
     7
100
AcDbPolyline
 90
        5
 70
     1
 43
0.0
 10
-11.7
 20
-16.05
 10
-9.3
 20
-16.05
 10
-9.3
 20
-13.65
 10
-11.7
 20
-13.65
 10
-11.7
 20
-16.05
  0
LWPOLYLINE
  5
60
330
1F
100
AcDbEntity
  8
Layer 1
 62
     7
370
     9
100
AcDbPolyline
 90
        5
 70
     1
 43
0.0
 10
-10.58
 20
-15.16855
 10
-10.42
 20
-15.16855
 10
-10.42
 20
-15.08855
 10
-10.58
 20
-15.08855
 10
-10.58
 20
-15.16855
  0
LWPOLYLINE
  5
61
330
1F
100
AcDbEntity
  8
Layer 1
 62
     7
370
     9
100
AcDbPolyline
 90
        5
 70
     1
 43
0.0
 10
-10.555
 20
-15.16855
 10
-10.445
 20
-15.16855
 10
-10.445
 20
-15.08855
 10
-10.555
 20
-15.08855
 10
-10.555
 20
-15.16855
  0
SPLINE
  5
62
330
1F
100
AcDbEntity
  8
Layer 1
 62
   250
100
AcDbSpline
210
0.0
220
0.0
230
1.0
 70
    11
 71
     3
 72
   116
 73
   112
 74
     0
 42
0.0000000001
 43
0.0000000001
 40
0.0
 40
0.0
 40
0.0
 40
0.0
 40
0.0357142857142857
 40
0.0357142857142857
 40
0.0357142857142857
 40
0.0357142857142857
 40
0.0714285714285714
 40
0.0714285714285714
 40
0.0714285714285714
 40
0.0714285714285714
 40
0.1071428571428571
 40
0.1071428571428571
 40
0.1071428571428571
 40
0.1071428571428571
 40
0.1428571428571428
 40
0.1428571428571428
 40
0.1428571428571428
 40
0.1428571428571428
 40
0.1785714285714285
 40
0.1785714285714285
 40
0.1785714285714285
 40
0.1785714285714285
 40
0.2142857142857142
 40
0.2142857142857142
 40
0.2142857142857142
 40
0.2142857142857142
 40
0.2499999999999999
 40
0.2499999999999999
 40
0.2499999999999999
 40
0.2499999999999999
 40
0.2857142857142856
 40
0.2857142857142856
 40
0.2857142857142856
 40
0.2857142857142856
 40
0.3214285714285713
 40
0.3214285714285713
 40
0.3214285714285713
 40
0.3214285714285713
 40
0.357142857142857
 40
0.357142857142857
 40
0.357142857142857
 40
0.357142857142857
 40
0.3928571428571427
 40
0.3928571428571427
 40
0.3928571428571427
 40
0.3928571428571427
 40
0.4285714285714284
 40
0.4285714285714284
 40
0.4285714285714284
 40
0.4285714285714284
 40
0.4642857142857141
 40
0.4642857142857141
 40
0.4642857142857141
 40
0.4642857142857141
 40
0.4999999999999998
 40
0.4999999999999998
 40
0.4999999999999998
 40
0.4999999999999998
 40
0.5357142857142856
 40
0.5357142857142856
 40
0.5357142857142856
 40
0.5357142857142856
 40
0.5714285714285713
 40
0.5714285714285713
 40
0.5714285714285713
 40
0.5714285714285713
 40
0.607142857142857
 40
0.607142857142857
 40
0.607142857142857
 40
0.607142857142857
 40
0.6428571428571427
 40
0.6428571428571427
 40
0.6428571428571427
 40
0.6428571428571427
 40
0.6785714285714284
 40
0.6785714285714284
 40
0.6785714285714284
 40
0.6785714285714284
 40
0.7142857142857141
 40
0.7142857142857141
 40
0.7142857142857141
 40
0.7142857142857141
 40
0.7499999999999998
 40
0.7499999999999998
 40
0.7499999999999998
 40
0.7499999999999998
 40
0.7857142857142855
 40
0.7857142857142855
 40
0.7857142857142855
 40
0.7857142857142855
 40
0.8214285714285712
 40
0.8214285714285712
 40
0.8214285714285712
 40
0.8214285714285712
 40
0.8571428571428569
 40
0.8571428571428569
 40
0.8571428571428569
 40
0.8571428571428569
 40
0.8928571428571426
 40
0.8928571428571426
 40
0.8928571428571426
 40
0.8928571428571426
 40
0.9285714285714283
 40
0.9285714285714283
 40
0.9285714285714283
 40
0.9285714285714283
 40
0.964285714285714
 40
0.964285714285714
 40
0.964285714285714
 40
0.964285714285714
 40
1.0
 40
1.0
 40
1.0
 40
1.0
 10
-11.24384
 20
-14.48139
 30
0.0
 10
-11.24384
 20
-14.48139
 30
0.0
 10
-11.24384
 20
-14.50314
 30
0.0
 10
-11.24384
 20
-14.50314
 30
0.0
 10
-11.24384
 20
-14.50314
 30
0.0
 10
-11.24949
 20
-14.50062
 30
0.0
 10
-11.25501
 20
-14.49872
 30
0.0
 10
-11.26037
 20
-14.49743
 30
0.0
 10
-11.26037
 20
-14.49743
 30
0.0
 10
-11.26576
 20
-14.49613
 30
0.0
 10
-11.27084
 20
-14.4955
 30
0.0
 10
-11.27561
 20
-14.4955
 30
0.0
 10
-11.27561
 20
-14.4955
 30
0.0
 10
-11.28194
 20
-14.4955
 30
0.0
 10
-11.28664
 20
-14.49637
 30
0.0
 10
-11.28968
 20
-14.49811
 30
0.0
 10
-11.28968
 20
-14.49811
 30
0.0
 10
-11.29271
 20
-14.49987
 30
0.0
 10
-11.29422
 20
-14.50258
 30
0.0
 10
-11.29422
 20
-14.50625
 30
0.0
 10
-11.29422
 20
-14.50625
 30
0.0
 10
-11.29422
 20
-14.509
 30
0.0
 10
-11.29321
 20
-14.51116
 30
0.0
 10
-11.29116
 20
-14.51269
 30
0.0
 10
-11.29116
 20
-14.51269
 30
0.0
 10
-11.28911
 20
-14.51422
 30
0.0
 10
-11.2854
 20
-14.51556
 30
0.0
 10
-11.28001
 20
-14.51666
 30
0.0
 10
-11.28001
 20
-14.51666
 30
0.0
 10
-11.28001
 20
-14.51666
 30
0.0
 10
-11.26872
 20
-14.51892
 30
0.0
 10
-11.26872
 20
-14.51892
 30
0.0
 10
-11.26872
 20
-14.51892
 30
0.0
 10
-11.25727
 20
-14.52123
 30
0.0
 10
-11.24916
 20
-14.52471
 30
0.0
 10
-11.24434
 20
-14.52941
 30
0.0
 10
-11.24434
 20
-14.52941
 30
0.0
 10
-11.23951
 20
-14.53409
 30
0.0
 10
-11.23709
 20
-14.54075
 30
0.0
 10
-11.23709
 20
-14.54938
 30
0.0
 10
-11.23709
 20
-14.54938
 30
0.0
 10
-11.23709
 20
-14.56074
 30
0.0
 10
-11.24045
 20
-14.56918
 30
0.0
 10
-11.24718
 20
-14.57471
 30
0.0
 10
-11.24718
 20
-14.57471
 30
0.0
 10
-11.25391
 20
-14.58023
 30
0.0
 10
-11.26418
 20
-14.58301
 30
0.0
 10
-11.27801
 20
-14.58301
 30
0.0
 10
-11.27801
 20
-14.58301
 30
0.0
 10
-11.28455
 20
-14.58301
 30
0.0
 10
-11.29109
 20
-14.5824
 30
0.0
 10
-11.29765
 20
-14.58115
 30
0.0
 10
-11.29765
 20
-14.58115
 30
0.0
 10
-11.30421
 20
-14.5799
 30
0.0
 10
-11.3108
 20
-14.57807
 30
0.0
 10
-11.31736
 20
-14.57565
 30
0.0
 10
-11.31736
 20
-14.57565
 30
0.0
 10
-11.31736
 20
-14.57565
 30
0.0
 10
-11.31736
 20
-14.55326
 30
0.0
 10
-11.31736
 20
-14.55326
 30
0.0
 10
-11.31736
 20
-14.55326
 30
0.0
 10
-11.3108
 20
-14.55674
 30
0.0
 10
-11.30445
 20
-14.55937
 30
0.0
 10
-11.29831
 20
-14.56114
 30
0.0
 10
-11.29831
 20
-14.56114
 30
0.0
 10
-11.29217
 20
-14.5629
 30
0.0
 10
-11.28627
 20
-14.56379
 30
0.0
 10
-11.28058
 20
-14.56379
 30
0.0
 10
-11.28058
 20
-14.56379
 30
0.0
 10
-11.27479
 20
-14.56379
 30
0.0
 10
-11.27035
 20
-14.56283
 30
0.0
 10
-11.26727
 20
-14.5609
 30
0.0
 10
-11.26727
 20
-14.5609
 30
0.0
 10
-11.26418
 20
-14.55897
 30
0.0
 10
-11.26266
 20
-14.55622
 30
0.0
 10
-11.26266
 20
-14.55262
 30
0.0
 10
-11.26266
 20
-14.55262
 30
0.0
 10
-11.26266
 20
-14.54942
 30
0.0
 10
-11.26369
 20
-14.54693
 30
0.0
 10
-11.26578
 20
-14.54519
 30
0.0
 10
-11.26578
 20
-14.54519
 30
0.0
 10
-11.26788
 20
-14.54345
 30
0.0
 10
-11.27204
 20
-14.54188
 30
0.0
 10
-11.2783
 20
-14.54051
 30
0.0
 10
-11.2783
 20
-14.54051
 30
0.0
 10
-11.2783
 20
-14.54051
 30
0.0
 10
-11.28857
 20
-14.53823
 30
0.0
 10
-11.28857
 20
-14.53823
 30
0.0
 10
-11.28857
 20
-14.53823
 30
0.0
 10
-11.29885
 20
-14.53602
 30
0.0
 10
-11.30638
 20
-14.53252
 30
0.0
 10
-11.31113
 20
-14.52769
 30
0.0
 10
-11.31113
 20
-14.52769
 30
0.0
 10
-11.31588
 20
-14.52287
 30
0.0
 10
-11.31825
 20
-14.51636
 30
0.0
 10
-11.31825
 20
-14.5082
 30
0.0
 10
-11.31825
 20
-14.5082
 30
0.0
 10
-11.31825
 20
-14.49794
 30
0.0
 10
-11.31494
 20
-14.49006
 30
0.0
 10
-11.30833
 20
-14.48456
 30
0.0
 10
-11.30833
 20
-14.48456
 30
0.0
 10
-11.30172
 20
-14.47903
 30
0.0
 10
-11.29222
 20
-14.47628
 30
0.0
 10
-11.2798
 20
-14.47628
 30
0.0
 10
-11.2798
 20
-14.47628
 30
0.0
 10
-11.27416
 20
-14.47628
 30
0.0
 10
-11.26835
 20
-14.47671
 30
0.0
 10
-11.26237
 20
-14.47755
 30
0.0
 10
-11.26237
 20
-14.47755
 30
0.0
 10
-11.2564
 20
-14.4784
 30
0.0
 10
-11.25022
 20
-14.47967
 30
0.0
 10
-11.24384
 20
-14.48139
 30
0.0
  0
SPLINE
  5
63
330
1F
100
AcDbEntity
  8
Layer 1
 62
   250
100
AcDbSpline
210
0.0
220
0.0
230
1.0
 70
    11
 71
     3
 72
    56
 73
    52
 74
     0
 42
0.0000000001
 43
0.0000000001
 40
0.0
 40
0.0
 40
0.0
 40
0.0
 40
0.0769230769230769
 40
0.0769230769230769
 40
0.0769230769230769
 40
0.0769230769230769
 40
0.1538461538461539
 40
0.1538461538461539
 40
0.1538461538461539
 40
0.1538461538461539
 40
0.2307692307692308
 40
0.2307692307692308
 40
0.2307692307692308
 40
0.2307692307692308
 40
0.3076923076923077
 40
0.3076923076923077
 40
0.3076923076923077
 40
0.3076923076923077
 40
0.3846153846153846
 40
0.3846153846153846
 40
0.3846153846153846
 40
0.3846153846153846
 40
0.4615384615384616
 40
0.4615384615384616
 40
0.4615384615384616
 40
0.4615384615384616
 40
0.5384615384615385
 40
0.5384615384615385
 40
0.5384615384615385
 40
0.5384615384615385
 40
0.6153846153846154
 40
0.6153846153846154
 40
0.6153846153846154
 40
0.6153846153846154
 40
0.6923076923076923
 40
0.6923076923076923
 40
0.6923076923076923
 40
0.6923076923076923
 40
0.7692307692307692
 40
0.7692307692307692
 40
0.7692307692307692
 40
0.7692307692307692
 40
0.846153846153846
 40
0.846153846153846
 40
0.846153846153846
 40
0.846153846153846
 40
0.9230769230769229
 40
0.9230769230769229
 40
0.9230769230769229
 40
0.9230769230769229
 40
1.0
 40
1.0
 40
1.0
 40
1.0
 10
-11.21381
 20
-14.47814
 30
0.0
 10
-11.21381
 20
-14.47814
 30
0.0
 10
-11.18006
 20
-14.47814
 30
0.0
 10
-11.18006
 20
-14.47814
 30
0.0
 10
-11.18006
 20
-14.47814
 30
0.0
 10
-11.18006
 20
-14.47814
 30
0.0
 10
-11.15661
 20
-14.5332
 30
0.0
 10
-11.15661
 20
-14.5332
 30
0.0
 10
-11.15661
 20
-14.5332
 30
0.0
 10
-11.15661
 20
-14.5332
 30
0.0
 10
-11.13305
 20
-14.47814
 30
0.0
 10
-11.13305
 20
-14.47814
 30
0.0
 10
-11.13305
 20
-14.47814
 30
0.0
 10
-11.13305
 20
-14.47814
 30
0.0
 10
-11.09937
 20
-14.47814
 30
0.0
 10
-11.09937
 20
-14.47814
 30
0.0
 10
-11.09937
 20
-14.47814
 30
0.0
 10
-11.09937
 20
-14.47814
 30
0.0
 10
-11.09937
 20
-14.58101
 30
0.0
 10
-11.09937
 20
-14.58101
 30
0.0
 10
-11.09937
 20
-14.58101
 30
0.0
 10
-11.09937
 20
-14.58101
 30
0.0
 10
-11.12444
 20
-14.58101
 30
0.0
 10
-11.12444
 20
-14.58101
 30
0.0
 10
-11.12444
 20
-14.58101
 30
0.0
 10
-11.12444
 20
-14.58101
 30
0.0
 10
-11.12444
 20
-14.50577
 30
0.0
 10
-11.12444
 20
-14.50577
 30
0.0
 10
-11.12444
 20
-14.50577
 30
0.0
 10
-11.12444
 20
-14.50577
 30
0.0
 10
-11.14815
 20
-14.56123
 30
0.0
 10
-11.14815
 20
-14.56123
 30
0.0
 10
-11.14815
 20
-14.56123
 30
0.0
 10
-11.14815
 20
-14.56123
 30
0.0
 10
-11.16496
 20
-14.56123
 30
0.0
 10
-11.16496
 20
-14.56123
 30
0.0
 10
-11.16496
 20
-14.56123
 30
0.0
 10
-11.16496
 20
-14.56123
 30
0.0
 10
-11.18867
 20
-14.50577
 30
0.0
 10
-11.18867
 20
-14.50577
 30
0.0
 10
-11.18867
 20
-14.50577
 30
0.0
 10
-11.18867
 20
-14.50577
 30
0.0
 10
-11.18867
 20
-14.58101
 30
0.0
 10
-11.18867
 20
-14.58101
 30
0.0
 10
-11.18867
 20
-14.58101
 30
0.0
 10
-11.18867
 20
-14.58101
 30
0.0
 10
-11.21381
 20
-14.58101
 30
0.0
 10
-11.21381
 20
-14.58101
 30
0.0
 10
-11.21381
 20
-14.58101
 30
0.0
 10
-11.21381
 20
-14.58101
 30
0.0
 10
-11.21381
 20
-14.47814
 30
0.0
 10
-11.21381
 20
-14.47814
 30
0.0
  0
SPLINE
  5
64
330
1F
100
AcDbEntity
  8
Layer 1
 62
   250
100
AcDbSpline
210
0.0
220
0.0
230
1.0
 70
    11
 71
     3
 72
    32
 73
    28
 74
     0
 42
0.0000000001
 43
0.0000000001
 40
0.0
 40
0.0
 40
0.0
 40
0.0
 40
0.1428571428571428
 40
0.1428571428571428
 40
0.1428571428571428
 40
0.1428571428571428
 40
0.2857142857142857
 40
0.2857142857142857
 40
0.2857142857142857
 40
0.2857142857142857
 40
0.4285714285714285
 40
0.4285714285714285
 40
0.4285714285714285
 40
0.4285714285714285
 40
0.5714285714285714
 40
0.5714285714285714
 40
0.5714285714285714
 40
0.5714285714285714
 40
0.7142857142857142
 40
0.7142857142857142
 40
0.7142857142857142
 40
0.7142857142857142
 40
0.857142857142857
 40
0.857142857142857
 40
0.857142857142857
 40
0.857142857142857
 40
1.0
 40
1.0
 40
1.0
 40
1.0
 10
-11.04685
 20
-14.4982
 30
0.0
 10
-11.04685
 20
-14.4982
 30
0.0
 10
-11.04685
 20
-14.56095
 30
0.0
 10
-11.04685
 20
-14.56095
 30
0.0
 10
-11.04685
 20
-14.56095
 30
0.0
 10
-11.04685
 20
-14.56095
 30
0.0
 10
-11.03735
 20
-14.56095
 30
0.0
 10
-11.03735
 20
-14.56095
 30
0.0
 10
-11.03735
 20
-14.56095
 30
0.0
 10
-11.02651
 20
-14.56095
 30
0.0
 10
-11.01823
 20
-14.55827
 30
0.0
 10
-11.01252
 20
-14.55288
 30
0.0
 10
-11.01252
 20
-14.55288
 30
0.0
 10
-11.0068
 20
-14.54752
 30
0.0
 10
-11.00393
 20
-14.53971
 30
0.0
 10
-11.00393
 20
-14.52948
 30
0.0
 10
-11.00393
 20
-14.52948
 30
0.0
 10
-11.00393
 20
-14.51927
 30
0.0
 10
-11.00678
 20
-14.51151
 30
0.0
 10
-11.01247
 20
-14.5062
 30
0.0
 10
-11.01247
 20
-14.5062
 30
0.0
 10
-11.01816
 20
-14.50086
 30
0.0
 10
-11.02646
 20
-14.4982
 30
0.0
 10
-11.03735
 20
-14.4982
 30
0.0
 10
-11.03735
 20
-14.4982
 30
0.0
 10
-11.03735
 20
-14.4982
 30
0.0
 10
-11.04685
 20
-14.4982
 30
0.0
 10
-11.04685
 20
-14.4982
 30
0.0
  0
SPLINE
  5
65
330
1F
100
AcDbEntity
  8
Layer 1
 62
   250
100
AcDbSpline
210
0.0
220
0.0
230
1.0
 70
    11
 71
     3
 72
    48
 73
    44
 74
     0
 42
0.0000000001
 43
0.0000000001
 40
0.0
 40
0.0
 40
0.0
 40
0.0
 40
0.0909090909090909
 40
0.0909090909090909
 40
0.0909090909090909
 40
0.0909090909090909
 40
0.1818181818181818
 40
0.1818181818181818
 40
0.1818181818181818
 40
0.1818181818181818
 40
0.2727272727272727
 40
0.2727272727272727
 40
0.2727272727272727
 40
0.2727272727272727
 40
0.3636363636363636
 40
0.3636363636363636
 40
0.3636363636363636
 40
0.3636363636363636
 40
0.4545454545454546
 40
0.4545454545454546
 40
0.4545454545454546
 40
0.4545454545454546
 40
0.5454545454545455
 40
0.5454545454545455
 40
0.5454545454545455
 40
0.5454545454545455
 40
0.6363636363636365
 40
0.6363636363636365
 40
0.6363636363636365
 40
0.6363636363636365
 40
0.7272727272727274
 40
0.7272727272727274
 40
0.7272727272727274
 40
0.7272727272727274
 40
0.8181818181818183
 40
0.8181818181818183
 40
0.8181818181818183
 40
0.8181818181818183
 40
0.9090909090909093
 40
0.9090909090909093
 40
0.9090909090909093
 40
0.9090909090909093
 40
1.0
 40
1.0
 40
1.0
 40
1.0
 10
-11.07338
 20
-14.47814
 30
0.0
 10
-11.07338
 20
-14.47814
 30
0.0
 10
-11.04539
 20
-14.47814
 30
0.0
 10
-11.04539
 20
-14.47814
 30
0.0
 10
-11.04539
 20
-14.47814
 30
0.0
 10
-11.02978
 20
-14.47814
 30
0.0
 10
-11.01816
 20
-14.47925
 30
0.0
 10
-11.01052
 20
-14.48148
 30
0.0
 10
-11.01052
 20
-14.48148
 30
0.0
 10
-11.00287
 20
-14.48371
 30
0.0
 10
-10.99631
 20
-14.48748
 30
0.0
 10
-10.99083
 20
-14.49282
 30
0.0
 10
-10.99083
 20
-14.49282
 30
0.0
 10
-10.98601
 20
-14.49745
 30
0.0
 10
-10.98244
 20
-14.50281
 30
0.0
 10
-10.98008
 20
-14.50888
 30
0.0
 10
-10.98008
 20
-14.50888
 30
0.0
 10
-10.97776
 20
-14.51492
 30
0.0
 10
-10.97658
 20
-14.52179
 30
0.0
 10
-10.97658
 20
-14.52948
 30
0.0
 10
-10.97658
 20
-14.52948
 30
0.0
 10
-10.97658
 20
-14.53724
 30
0.0
 10
-10.97776
 20
-14.54416
 30
0.0
 10
-10.98008
 20
-14.55025
 30
0.0
 10
-10.98008
 20
-14.55025
 30
0.0
 10
-10.98244
 20
-14.55634
 30
0.0
 10
-10.98601
 20
-14.5617
 30
0.0
 10
-10.99083
 20
-14.56633
 30
0.0
 10
-10.99083
 20
-14.56633
 30
0.0
 10
-10.99636
 20
-14.57167
 30
0.0
 10
-11.00297
 20
-14.57544
 30
0.0
 10
-11.01068
 20
-14.57767
 30
0.0
 10
-11.01068
 20
-14.57767
 30
0.0
 10
-11.0184
 20
-14.5799
 30
0.0
 10
-11.02997
 20
-14.58101
 30
0.0
 10
-11.04539
 20
-14.58101
 30
0.0
 10
-11.04539
 20
-14.58101
 30
0.0
 10
-11.04539
 20
-14.58101
 30
0.0
 10
-11.07338
 20
-14.58101
 30
0.0
 10
-11.07338
 20
-14.58101
 30
0.0
 10
-11.07338
 20
-14.58101
 30
0.0
 10
-11.07338
 20
-14.58101
 30
0.0
 10
-11.07338
 20
-14.47814
 30
0.0
 10
-11.07338
 20
-14.47814
 30
0.0
  0
SPLINE
  5
66
330
1F
100
AcDbEntity
  8
Layer 1
 62
   250
100
AcDbSpline
210
0.0
220
0.0
230
1.0
 70
    11
 71
     3
 72
    44
 73
    40
 74
     0
 42
0.0000000001
 43
0.0000000001
 40
0.0
 40
0.0
 40
0.0
 40
0.0
 40
0.1
 40
0.1
 40
0.1
 40
0.1
 40
0.2
 40
0.2
 40
0.2
 40
0.2
 40
0.3
 40
0.3
 40
0.3
 40
0.3
 40
0.4
 40
0.4
 40
0.4
 40
0.4
 40
0.5
 40
0.5
 40
0.5
 40
0.5
 40
0.6
 40
0.6
 40
0.6
 40
0.6
 40
0.7
 40
0.7
 40
0.7
 40
0.7
 40
0.7999999999999999
 40
0.7999999999999999
 40
0.7999999999999999
 40
0.7999999999999999
 40
0.8999999999999999
 40
0.8999999999999999
 40
0.8999999999999999
 40
0.8999999999999999
 40
1.0
 40
1.0
 40
1.0
 40
1.0
 10
-10.86689
 20
-14.59961
 30
0.0
 10
-10.86689
 20
-14.59961
 30
0.0
 10
-10.88735
 20
-14.59961
 30
0.0
 10
-10.88735
 20
-14.59961
 30
0.0
 10
-10.88735
 20
-14.59961
 30
0.0
 10
-10.89438
 20
-14.58828
 30
0.0
 10
-10.89958
 20
-14.57748
 30
0.0
 10
-10.90292
 20
-14.56725
 30
0.0
 10
-10.90292
 20
-14.56725
 30
0.0
 10
-10.90628
 20
-14.55704
 30
0.0
 10
-10.90795
 20
-14.54691
 30
0.0
 10
-10.90795
 20
-14.53684
 30
0.0
 10
-10.90795
 20
-14.53684
 30
0.0
 10
-10.90795
 20
-14.52678
 30
0.0
 10
-10.90626
 20
-14.51659
 30
0.0
 10
-10.9029
 20
-14.50629
 30
0.0
 10
-10.9029
 20
-14.50629
 30
0.0
 10
-10.89951
 20
-14.49597
 30
0.0
 10
-10.89434
 20
-14.4852
 30
0.0
 10
-10.88735
 20
-14.47393
 30
0.0
 10
-10.88735
 20
-14.47393
 30
0.0
 10
-10.88735
 20
-14.47393
 30
0.0
 10
-10.86689
 20
-14.47393
 30
0.0
 10
-10.86689
 20
-14.47393
 30
0.0
 10
-10.86689
 20
-14.47393
 30
0.0
 10
-10.87277
 20
-14.48482
 30
0.0
 10
-10.87717
 20
-14.49547
 30
0.0
 10
-10.88011
 20
-14.50587
 30
0.0
 10
-10.88011
 20
-14.50587
 30
0.0
 10
-10.88305
 20
-14.51626
 30
0.0
 10
-10.88453
 20
-14.52654
 30
0.0
 10
-10.88453
 20
-14.5367
 30
0.0
 10
-10.88453
 20
-14.5367
 30
0.0
 10
-10.88453
 20
-14.54686
 30
0.0
 10
-10.88307
 20
-14.55714
 30
0.0
 10
-10.88016
 20
-14.56758
 30
0.0
 10
-10.88016
 20
-14.56758
 30
0.0
 10
-10.87724
 20
-14.578
 30
0.0
 10
-10.87282
 20
-14.58868
 30
0.0
 10
-10.86689
 20
-14.59961
 30
0.0
  0
SPLINE
  5
67
330
1F
100
AcDbEntity
  8
Layer 1
 62
   250
100
AcDbSpline
210
0.0
220
0.0
230
1.0
 70
    11
 71
     3
 72
    36
 73
    32
 74
     0
 42
0.0000000001
 43
0.0000000001
 40
0.0
 40
0.0
 40
0.0
 40
0.0
 40
0.125
 40
0.125
 40
0.125
 40
0.125
 40
0.25
 40
0.25
 40
0.25
 40
0.25
 40
0.375
 40
0.375
 40
0.375
 40
0.375
 40
0.5
 40
0.5
 40
0.5
 40
0.5
 40
0.625
 40
0.625
 40
0.625
 40
0.625
 40
0.75
 40
0.75
 40
0.75
 40
0.75
 40
0.875
 40
0.875
 40
0.875
 40
0.875
 40
1.0
 40
1.0
 40
1.0
 40
1.0
 10
-10.79069
 20
-14.52948
 30
0.0
 10
-10.79069
 20
-14.51662
 30
0.0
 10
-10.79189
 20
-14.50756
 30
0.0
 10
-10.79431
 20
-14.50229
 30
0.0
 10
-10.79431
 20
-14.50229
 30
0.0
 10
-10.79671
 20
-14.49705
 30
0.0
 10
-10.80078
 20
-14.49442
 30
0.0
 10
-10.80647
 20
-14.49442
 30
0.0
 10
-10.80647
 20
-14.49442
 30
0.0
 10
-10.81216
 20
-14.49442
 30
0.0
 10
-10.81623
 20
-14.49705
 30
0.0
 10
-10.81868
 20
-14.50229
 30
0.0
 10
-10.81868
 20
-14.50229
 30
0.0
 10
-10.8211
 20
-14.50756
 30
0.0
 10
-10.82232
 20
-14.51662
 30
0.0
 10
-10.82232
 20
-14.52948
 30
0.0
 10
-10.82232
 20
-14.52948
 30
0.0
 10
-10.82232
 20
-14.54246
 30
0.0
 10
-10.8211
 20
-14.55164
 30
0.0
 10
-10.81868
 20
-14.55695
 30
0.0
 10
-10.81868
 20
-14.55695
 30
0.0
 10
-10.81623
 20
-14.56229
 30
0.0
 10
-10.81216
 20
-14.56495
 30
0.0
 10
-10.80647
 20
-14.56495
 30
0.0
 10
-10.80647
 20
-14.56495
 30
0.0
 10
-10.80083
 20
-14.56495
 30
0.0
 10
-10.79678
 20
-14.56229
 30
0.0
 10
-10.79433
 20
-14.55695
 30
0.0
 10
-10.79433
 20
-14.55695
 30
0.0
 10
-10.79191
 20
-14.55164
 30
0.0
 10
-10.79069
 20
-14.54246
 30
0.0
 10
-10.79069
 20
-14.52948
 30
0.0
  0
SPLINE
  5
68
330
1F
100
AcDbEntity
  8
Layer 1
 62
   250
100
AcDbSpline
210
0.0
220
0.0
230
1.0
 70
    11
 71
     3
 72
    36
 73
    32
 74
     0
 42
0.0000000001
 43
0.0000000001
 40
0.0
 40
0.0
 40
0.0
 40
0.0
 40
0.125
 40
0.125
 40
0.125
 40
0.125
 40
0.25
 40
0.25
 40
0.25
 40
0.25
 40
0.375
 40
0.375
 40
0.375
 40
0.375
 40
0.5
 40
0.5
 40
0.5
 40
0.5
 40
0.625
 40
0.625
 40
0.625
 40
0.625
 40
0.75
 40
0.75
 40
0.75
 40
0.75
 40
0.875
 40
0.875
 40
0.875
 40
0.875
 40
1.0
 40
1.0
 40
1.0
 40
1.0
 10
-10.76416
 20
-14.52967
 30
0.0
 10
-10.76416
 20
-14.54672
 30
0.0
 10
-10.76783
 20
-14.55987
 30
0.0
 10
-10.77519
 20
-14.56913
 30
0.0
 10
-10.77519
 20
-14.56913
 30
0.0
 10
-10.78253
 20
-14.57838
 30
0.0
 10
-10.79297
 20
-14.58301
 30
0.0
 10
-10.80647
 20
-14.58301
 30
0.0
 10
-10.80647
 20
-14.58301
 30
0.0
 10
-10.82002
 20
-14.58301
 30
0.0
 10
-10.83048
 20
-14.57838
 30
0.0
 10
-10.83782
 20
-14.56913
 30
0.0
 10
-10.83782
 20
-14.56913
 30
0.0
 10
-10.84518
 20
-14.55987
 30
0.0
 10
-10.84885
 20
-14.54672
 30
0.0
 10
-10.84885
 20
-14.52967
 30
0.0
 10
-10.84885
 20
-14.52967
 30
0.0
 10
-10.84885
 20
-14.5126
 30
0.0
 10
-10.84518
 20
-14.49942
 30
0.0
 10
-10.83782
 20
-14.49016
 30
0.0
 10
-10.83782
 20
-14.49016
 30
0.0
 10
-10.83048
 20
-14.48092
 30
0.0
 10
-10.82002
 20
-14.47628
 30
0.0
 10
-10.80647
 20
-14.47628
 30
0.0
 10
-10.80647
 20
-14.47628
 30
0.0
 10
-10.79297
 20
-14.47628
 30
0.0
 10
-10.78253
 20
-14.48092
 30
0.0
 10
-10.77519
 20
-14.49016
 30
0.0
 10
-10.77519
 20
-14.49016
 30
0.0
 10
-10.76783
 20
-14.49942
 30
0.0
 10
-10.76416
 20
-14.5126
 30
0.0
 10
-10.76416
 20
-14.52967
 30
0.0
  0
SPLINE
  5
69
330
1F
100
AcDbEntity
  8
Layer 1
 62
   250
100
AcDbSpline
210
0.0
220
0.0
230
1.0
 70
    11
 71
     3
 72
    36
 73
    32
 74
     0
 42
0.0000000001
 43
0.0000000001
 40
0.0
 40
0.0
 40
0.0
 40
0.0
 40
0.125
 40
0.125
 40
0.125
 40
0.125
 40
0.25
 40
0.25
 40
0.25
 40
0.25
 40
0.375
 40
0.375
 40
0.375
 40
0.375
 40
0.5
 40
0.5
 40
0.5
 40
0.5
 40
0.625
 40
0.625
 40
0.625
 40
0.625
 40
0.75
 40
0.75
 40
0.75
 40
0.75
 40
0.875
 40
0.875
 40
0.875
 40
0.875
 40
1.0
 40
1.0
 40
1.0
 40
1.0
 10
-10.70635
 20
-14.53023
 30
0.0
 10
-10.71101
 20
-14.53023
 30
0.0
 10
-10.71449
 20
-14.53174
 30
0.0
 10
-10.71679
 20
-14.53475
 30
0.0
 10
-10.71679
 20
-14.53475
 30
0.0
 10
-10.71912
 20
-14.53776
 30
0.0
 10
-10.72027
 20
-14.54228
 30
0.0
 10
-10.72027
 20
-14.54827
 30
0.0
 10
-10.72027
 20
-14.54827
 30
0.0
 10
-10.72027
 20
-14.55429
 30
0.0
 10
-10.71912
 20
-14.55881
 30
0.0
 10
-10.71679
 20
-14.56182
 30
0.0
 10
-10.71679
 20
-14.56182
 30
0.0
 10
-10.71449
 20
-14.56483
 30
0.0
 10
-10.71101
 20
-14.56633
 30
0.0
 10
-10.70635
 20
-14.56633
 30
0.0
 10
-10.70635
 20
-14.56633
 30
0.0
 10
-10.70167
 20
-14.56633
 30
0.0
 10
-10.69817
 20
-14.56483
 30
0.0
 10
-10.69586
 20
-14.56182
 30
0.0
 10
-10.69586
 20
-14.56182
 30
0.0
 10
-10.69353
 20
-14.55881
 30
0.0
 10
-10.69238
 20
-14.55429
 30
0.0
 10
-10.69238
 20
-14.54827
 30
0.0
 10
-10.69238
 20
-14.54827
 30
0.0
 10
-10.69238
 20
-14.54228
 30
0.0
 10
-10.69353
 20
-14.53776
 30
0.0
 10
-10.69586
 20
-14.53475
 30
0.0
 10
-10.69586
 20
-14.53475
 30
0.0
 10
-10.69817
 20
-14.53174
 30
0.0
 10
-10.70167
 20
-14.53023
 30
0.0
 10
-10.70635
 20
-14.53023
 30
0.0
  0
SPLINE
  5
6A
330
1F
100
AcDbEntity
  8
Layer 1
 62
   250
100
AcDbSpline
210
0.0
220
0.0
230
1.0
 70
    11
 71
     3
 72
    72
 73
    68
 74
     0
 42
0.0000000001
 43
0.0000000001
 40
0.0
 40
0.0
 40
0.0
 40
0.0
 40
0.0588235294117647
 40
0.0588235294117647
 40
0.0588235294117647
 40
0.0588235294117647
 40
0.1176470588235294
 40
0.1176470588235294
 40
0.1176470588235294
 40
0.1176470588235294
 40
0.1764705882352941
 40
0.1764705882352941
 40
0.1764705882352941
 40
0.1764705882352941
 40
0.2352941176470588
 40
0.2352941176470588
 40
0.2352941176470588
 40
0.2352941176470588
 40
0.2941176470588235
 40
0.2941176470588235
 40
0.2941176470588235
 40
0.2941176470588235
 40
0.3529411764705883
 40
0.3529411764705883
 40
0.3529411764705883
 40
0.3529411764705883
 40
0.411764705882353
 40
0.411764705882353
 40
0.411764705882353
 40
0.411764705882353
 40
0.4705882352941177
 40
0.4705882352941177
 40
0.4705882352941177
 40
0.4705882352941177
 40
0.5294117647058824
 40
0.5294117647058824
 40
0.5294117647058824
 40
0.5294117647058824
 40
0.5882352941176471
 40
0.5882352941176471
 40
0.5882352941176471
 40
0.5882352941176471
 40
0.6470588235294118
 40
0.6470588235294118
 40
0.6470588235294118
 40
0.6470588235294118
 40
0.7058823529411765
 40
0.7058823529411765
 40
0.7058823529411765
 40
0.7058823529411765
 40
0.7647058823529412
 40
0.7647058823529412
 40
0.7647058823529412
 40
0.7647058823529412
 40
0.823529411764706
 40
0.823529411764706
 40
0.823529411764706
 40
0.823529411764706
 40
0.8823529411764707
 40
0.8823529411764707
 40
0.8823529411764707
 40
0.8823529411764707
 40
0.9411764705882354
 40
0.9411764705882354
 40
0.9411764705882354
 40
0.9411764705882354
 40
1.0
 40
1.0
 40
1.0
 40
1.0
 10
-10.67357
 20
-14.48082
 30
0.0
 10
-10.67357
 20
-14.48082
 30
0.0
 10
-10.67357
 20
-14.49985
 30
0.0
 10
-10.67357
 20
-14.49985
 30
0.0
 10
-10.67357
 20
-14.49985
 30
0.0
 10
-10.67794
 20
-14.49778
 30
0.0
 10
-10.68203
 20
-14.49625
 30
0.0
 10
-10.68589
 20
-14.49526
 30
0.0
 10
-10.68589
 20
-14.49526
 30
0.0
 10
-10.68975
 20
-14.49427
 30
0.0
 10
-10.69353
 20
-14.49378
 30
0.0
 10
-10.6972
 20
-14.49378
 30
0.0
 10
-10.6972
 20
-14.49378
 30
0.0
 10
-10.70511
 20
-14.49378
 30
0.0
 10
-10.71124
 20
-14.49597
 30
0.0
 10
-10.71566
 20
-14.50037
 30
0.0
 10
-10.71566
 20
-14.50037
 30
0.0
 10
-10.72006
 20
-14.50474
 30
0.0
 10
-10.72265
 20
-14.51125
 30
0.0
 10
-10.72338
 20
-14.51989
 30
0.0
 10
-10.72338
 20
-14.51989
 30
0.0
 10
-10.72035
 20
-14.51765
 30
0.0
 10
-10.71705
 20
-14.51596
 30
0.0
 10
-10.71352
 20
-14.51483
 30
0.0
 10
-10.71352
 20
-14.51483
 30
0.0
 10
-10.71
 20
-14.5137
 30
0.0
 10
-10.70614
 20
-14.51314
 30
0.0
 10
-10.70195
 20
-14.51314
 30
0.0
 10
-10.70195
 20
-14.51314
 30
0.0
 10
-10.69144
 20
-14.51314
 30
0.0
 10
-10.68295
 20
-14.51622
 30
0.0
 10
-10.67651
 20
-14.52238
 30
0.0
 10
-10.67651
 20
-14.52238
 30
0.0
 10
-10.67004
 20
-14.52852
 30
0.0
 10
-10.66682
 20
-14.53658
 30
0.0
 10
-10.66682
 20
-14.54656
 30
0.0
 10
-10.66682
 20
-14.54656
 30
0.0
 10
-10.66682
 20
-14.55759
 30
0.0
 10
-10.67042
 20
-14.56641
 30
0.0
 10
-10.67764
 20
-14.57306
 30
0.0
 10
-10.67764
 20
-14.57306
 30
0.0
 10
-10.68483
 20
-14.57969
 30
0.0
 10
-10.69452
 20
-14.58301
 30
0.0
 10
-10.70663
 20
-14.58301
 30
0.0
 10
-10.70663
 20
-14.58301
 30
0.0
 10
-10.71999
 20
-14.58301
 30
0.0
 10
-10.73034
 20
-14.57849
 30
0.0
 10
-10.73768
 20
-14.56946
 30
0.0
 10
-10.73768
 20
-14.56946
 30
0.0
 10
-10.74499
 20
-14.56045
 30
0.0
 10
-10.74866
 20
-14.54764
 30
0.0
 10
-10.74866
 20
-14.53106
 30
0.0
 10
-10.74866
 20
-14.53106
 30
0.0
 10
-10.74866
 20
-14.51408
 30
0.0
 10
-10.74438
 20
-14.50072
 30
0.0
 10
-10.73582
 20
-14.49101
 30
0.0
 10
-10.73582
 20
-14.49101
 30
0.0
 10
-10.72724
 20
-14.48129
 30
0.0
 10
-10.7155
 20
-14.47642
 30
0.0
 10
-10.70057
 20
-14.47642
 30
0.0
 10
-10.70057
 20
-14.47642
 30
0.0
 10
-10.69584
 20
-14.47642
 30
0.0
 10
-10.69125
 20
-14.4768
 30
0.0
 10
-10.68678
 20
-14.47753
 30
0.0
 10
-10.68678
 20
-14.47753
 30
0.0
 10
-10.68234
 20
-14.47826
 30
0.0
 10
-10.67794
 20
-14.47936
 30
0.0
 10
-10.67357
 20
-14.48082
 30
0.0
  0
SPLINE
  5
6B
330
1F
100
AcDbEntity
  8
Layer 1
 62
   250
100
AcDbSpline
210
0.0
220
0.0
230
1.0
 70
    11
 71
     3
 72
    36
 73
    32
 74
     0
 42
0.0000000001
 43
0.0000000001
 40
0.0
 40
0.0
 40
0.0
 40
0.0
 40
0.125
 40
0.125
 40
0.125
 40
0.125
 40
0.25
 40
0.25
 40
0.25
 40
0.25
 40
0.375
 40
0.375
 40
0.375
 40
0.375
 40
0.5
 40
0.5
 40
0.5
 40
0.5
 40
0.625
 40
0.625
 40
0.625
 40
0.625
 40
0.75
 40
0.75
 40
0.75
 40
0.75
 40
0.875
 40
0.875
 40
0.875
 40
0.875
 40
1.0
 40
1.0
 40
1.0
 40
1.0
 10
-10.59431
 20
-14.52948
 30
0.0
 10
-10.59431
 20
-14.51662
 30
0.0
 10
-10.59551
 20
-14.50756
 30
0.0
 10
-10.59793
 20
-14.50229
 30
0.0
 10
-10.59793
 20
-14.50229
 30
0.0
 10
-10.60033
 20
-14.49705
 30
0.0
 10
-10.6044
 20
-14.49442
 30
0.0
 10
-10.61009
 20
-14.49442
 30
0.0
 10
-10.61009
 20
-14.49442
 30
0.0
 10
-10.61578
 20
-14.49442
 30
0.0
 10
-10.61985
 20
-14.49705
 30
0.0
 10
-10.6223
 20
-14.50229
 30
0.0
 10
-10.6223
 20
-14.50229
 30
0.0
 10
-10.62472
 20
-14.50756
 30
0.0
 10
-10.62594
 20
-14.51662
 30
0.0
 10
-10.62594
 20
-14.52948
 30
0.0
 10
-10.62594
 20
-14.52948
 30
0.0
 10
-10.62594
 20
-14.54246
 30
0.0
 10
-10.62472
 20
-14.55164
 30
0.0
 10
-10.6223
 20
-14.55695
 30
0.0
 10
-10.6223
 20
-14.55695
 30
0.0
 10
-10.61985
 20
-14.56229
 30
0.0
 10
-10.61578
 20
-14.56495
 30
0.0
 10
-10.61009
 20
-14.56495
 30
0.0
 10
-10.61009
 20
-14.56495
 30
0.0
 10
-10.60445
 20
-14.56495
 30
0.0
 10
-10.6004
 20
-14.56229
 30
0.0
 10
-10.59795
 20
-14.55695
 30
0.0
 10
-10.59795
 20
-14.55695
 30
0.0
 10
-10.59553
 20
-14.55164
 30
0.0
 10
-10.59431
 20
-14.54246
 30
0.0
 10
-10.59431
 20
-14.52948
 30
0.0
  0
SPLINE
  5
6C
330
1F
100
AcDbEntity
  8
Layer 1
 62
   250
100
AcDbSpline
210
0.0
220
0.0
230
1.0
 70
    11
 71
     3
 72
    36
 73
    32
 74
     0
 42
0.0000000001
 43
0.0000000001
 40
0.0
 40
0.0
 40
0.0
 40
0.0
 40
0.125
 40
0.125
 40
0.125
 40
0.125
 40
0.25
 40
0.25
 40
0.25
 40
0.25
 40
0.375
 40
0.375
 40
0.375
 40
0.375
 40
0.5
 40
0.5
 40
0.5
 40
0.5
 40
0.625
 40
0.625
 40
0.625
 40
0.625
 40
0.75
 40
0.75
 40
0.75
 40
0.75
 40
0.875
 40
0.875
 40
0.875
 40
0.875
 40
1.0
 40
1.0
 40
1.0
 40
1.0
 10
-10.56778
 20
-14.52967
 30
0.0
 10
-10.56778
 20
-14.54672
 30
0.0
 10
-10.57145
 20
-14.55987
 30
0.0
 10
-10.57881
 20
-14.56913
 30
0.0
 10
-10.57881
 20
-14.56913
 30
0.0
 10
-10.58615
 20
-14.57838
 30
0.0
 10
-10.59659
 20
-14.58301
 30
0.0
 10
-10.61009
 20
-14.58301
 30
0.0
 10
-10.61009
 20
-14.58301
 30
0.0
 10
-10.62364
 20
-14.58301
 30
0.0
 10
-10.6341
 20
-14.57838
 30
0.0
 10
-10.64144
 20
-14.56913
 30
0.0
 10
-10.64144
 20
-14.56913
 30
0.0
 10
-10.6488
 20
-14.55987
 30
0.0
 10
-10.65247
 20
-14.54672
 30
0.0
 10
-10.65247
 20
-14.52967
 30
0.0
 10
-10.65247
 20
-14.52967
 30
0.0
 10
-10.65247
 20
-14.5126
 30
0.0
 10
-10.6488
 20
-14.49942
 30
0.0
 10
-10.64144
 20
-14.49016
 30
0.0
 10
-10.64144
 20
-14.49016
 30
0.0
 10
-10.6341
 20
-14.48092
 30
0.0
 10
-10.62364
 20
-14.47628
 30
0.0
 10
-10.61009
 20
-14.47628
 30
0.0
 10
-10.61009
 20
-14.47628
 30
0.0
 10
-10.59659
 20
-14.47628
 30
0.0
 10
-10.58615
 20
-14.48092
 30
0.0
 10
-10.57881
 20
-14.49016
 30
0.0
 10
-10.57881
 20
-14.49016
 30
0.0
 10
-10.57145
 20
-14.49942
 30
0.0
 10
-10.56778
 20
-14.5126
 30
0.0
 10
-10.56778
 20
-14.52967
 30
0.0
  0
SPLINE
  5
6D
330
1F
100
AcDbEntity
  8
Layer 1
 62
   250
100
AcDbSpline
210
0.0
220
0.0
230
1.0
 70
    11
 71
     3
 72
   120
 73
   116
 74
     0
 42
0.0000000001
 43
0.0000000001
 40
0.0
 40
0.0
 40
0.0
 40
0.0
 40
0.0344827586206897
 40
0.0344827586206897
 40
0.0344827586206897
 40
0.0344827586206897
 40
0.0689655172413793
 40
0.0689655172413793
 40
0.0689655172413793
 40
0.0689655172413793
 40
0.103448275862069
 40
0.103448275862069
 40
0.103448275862069
 40
0.103448275862069
 40
0.1379310344827586
 40
0.1379310344827586
 40
0.1379310344827586
 40
0.1379310344827586
 40
0.1724137931034483
 40
0.1724137931034483
 40
0.1724137931034483
 40
0.1724137931034483
 40
0.206896551724138
 40
0.206896551724138
 40
0.206896551724138
 40
0.206896551724138
 40
0.2413793103448276
 40
0.2413793103448276
 40
0.2413793103448276
 40
0.2413793103448276
 40
0.2758620689655173
 40
0.2758620689655173
 40
0.2758620689655173
 40
0.2758620689655173
 40
0.310344827586207
 40
0.310344827586207
 40
0.310344827586207
 40
0.310344827586207
 40
0.3448275862068966
 40
0.3448275862068966
 40
0.3448275862068966
 40
0.3448275862068966
 40
0.3793103448275863
 40
0.3793103448275863
 40
0.3793103448275863
 40
0.3793103448275863
 40
0.413793103448276
 40
0.413793103448276
 40
0.413793103448276
 40
0.413793103448276
 40
0.4482758620689656
 40
0.4482758620689656
 40
0.4482758620689656
 40
0.4482758620689656
 40
0.4827586206896553
 40
0.4827586206896553
 40
0.4827586206896553
 40
0.4827586206896553
 40
0.517241379310345
 40
0.517241379310345
 40
0.517241379310345
 40
0.517241379310345
 40
0.5517241379310346
 40
0.5517241379310346
 40
0.5517241379310346
 40
0.5517241379310346
 40
0.5862068965517242
 40
0.5862068965517242
 40
0.5862068965517242
 40
0.5862068965517242
 40
0.6206896551724138
 40
0.6206896551724138
 40
0.6206896551724138
 40
0.6206896551724138
 40
0.6551724137931034
 40
0.6551724137931034
 40
0.6551724137931034
 40
0.6551724137931034
 40
0.689655172413793
 40
0.689655172413793
 40
0.689655172413793
 40
0.689655172413793
 40
0.7241379310344827
 40
0.7241379310344827
 40
0.7241379310344827
 40
0.7241379310344827
 40
0.7586206896551723
 40
0.7586206896551723
 40
0.7586206896551723
 40
0.7586206896551723
 40
0.7931034482758619
 40
0.7931034482758619
 40
0.7931034482758619
 40
0.7931034482758619
 40
0.8275862068965515
 40
0.8275862068965515
 40
0.8275862068965515
 40
0.8275862068965515
 40
0.8620689655172411
 40
0.8620689655172411
 40
0.8620689655172411
 40
0.8620689655172411
 40
0.8965517241379307
 40
0.8965517241379307
 40
0.8965517241379307
 40
0.8965517241379307
 40
0.9310344827586203
 40
0.9310344827586203
 40
0.9310344827586203
 40
0.9310344827586203
 40
0.9655172413793099
 40
0.9655172413793099
 40
0.9655172413793099
 40
0.9655172413793099
 40
1.0
 40
1.0
 40
1.0
 40
1.0
 10
-10.4953
 20
-14.52553
 30
0.0
 10
-10.48838
 20
-14.52732
 30
0.0
 10
-10.48309
 20
-14.53045
 30
0.0
 10
-10.47949
 20
-14.53487
 30
0.0
 10
-10.47949
 20
-14.53487
 30
0.0
 10
-10.47589
 20
-14.53931
 30
0.0
 10
-10.47408
 20
-14.54493
 30
0.0
 10
-10.47408
 20
-14.55178
 30
0.0
 10
-10.47408
 20
-14.55178
 30
0.0
 10
-10.47408
 20
-14.56198
 30
0.0
 10
-10.47799
 20
-14.56974
 30
0.0
 10
-10.48579
 20
-14.57506
 30
0.0
 10
-10.48579
 20
-14.57506
 30
0.0
 10
-10.4936
 20
-14.58035
 30
0.0
 10
-10.50499
 20
-14.58301
 30
0.0
 10
-10.51997
 20
-14.58301
 30
0.0
 10
-10.51997
 20
-14.58301
 30
0.0
 10
-10.52526
 20
-14.58301
 30
0.0
 10
-10.53055
 20
-14.58259
 30
0.0
 10
-10.53587
 20
-14.58174
 30
0.0
 10
-10.53587
 20
-14.58174
 30
0.0
 10
-10.54116
 20
-14.58089
 30
0.0
 10
-10.5464
 20
-14.5796
 30
0.0
 10
-10.5516
 20
-14.57791
 30
0.0
 10
-10.5516
 20
-14.57791
 30
0.0
 10
-10.5516
 20
-14.57791
 30
0.0
 10
-10.5516
 20
-14.55744
 30
0.0
 10
-10.5516
 20
-14.55744
 30
0.0
 10
-10.5516
 20
-14.55744
 30
0.0
 10
-10.54664
 20
-14.55991
 30
0.0
 10
-10.54172
 20
-14.5618
 30
0.0
 10
-10.53683
 20
-14.56307
 30
0.0
 10
-10.53683
 20
-14.56307
 30
0.0
 10
-10.53194
 20
-14.56431
 30
0.0
 10
-10.52712
 20
-14.56495
 30
0.0
 10
-10.52239
 20
-14.56495
 30
0.0
 10
-10.52239
 20
-14.56495
 30
0.0
 10
-10.51536
 20
-14.56495
 30
0.0
 10
-10.50997
 20
-14.56372
 30
0.0
 10
-10.50623
 20
-14.5613
 30
0.0
 10
-10.50623
 20
-14.5613
 30
0.0
 10
-10.50249
 20
-14.55886
 30
0.0
 10
-10.50061
 20
-14.55538
 30
0.0
 10
-10.50061
 20
-14.55081
 30
0.0
 10
-10.50061
 20
-14.55081
 30
0.0
 10
-10.50061
 20
-14.54613
 30
0.0
 10
-10.50254
 20
-14.54258
 30
0.0
 10
-10.50637
 20
-14.54018
 30
0.0
 10
-10.50637
 20
-14.54018
 30
0.0
 10
-10.51021
 20
-14.53776
 30
0.0
 10
-10.51587
 20
-14.53656
 30
0.0
 10
-10.52335
 20
-14.53656
 30
0.0
 10
-10.52335
 20
-14.53656
 30
0.0
 10
-10.52335
 20
-14.53656
 30
0.0
 10
-10.53396
 20
-14.53656
 30
0.0
 10
-10.53396
 20
-14.53656
 30
0.0
 10
-10.53396
 20
-14.53656
 30
0.0
 10
-10.53396
 20
-14.53656
 30
0.0
 10
-10.53396
 20
-14.51946
 30
0.0
 10
-10.53396
 20
-14.51946
 30
0.0
 10
-10.53396
 20
-14.51946
 30
0.0
 10
-10.53396
 20
-14.51946
 30
0.0
 10
-10.52281
 20
-14.51946
 30
0.0
 10
-10.52281
 20
-14.51946
 30
0.0
 10
-10.52281
 20
-14.51946
 30
0.0
 10
-10.51613
 20
-14.51946
 30
0.0
 10
-10.51119
 20
-14.51843
 30
0.0
 10
-10.50793
 20
-14.51633
 30
0.0
 10
-10.50793
 20
-14.51633
 30
0.0
 10
-10.50466
 20
-14.51424
 30
0.0
 10
-10.50303
 20
-14.51107
 30
0.0
 10
-10.50303
 20
-14.50681
 30
0.0
 10
-10.50303
 20
-14.50681
 30
0.0
 10
-10.50303
 20
-14.50286
 30
0.0
 10
-10.50461
 20
-14.4998
 30
0.0
 10
-10.50778
 20
-14.49766
 30
0.0
 10
-10.50778
 20
-14.49766
 30
0.0
 10
-10.51096
 20
-14.4955
 30
0.0
 10
-10.51543
 20
-14.49442
 30
0.0
 10
-10.52121
 20
-14.49442
 30
0.0
 10
-10.52121
 20
-14.49442
 30
0.0
 10
-10.52549
 20
-14.49442
 30
0.0
 10
-10.5298
 20
-14.49489
 30
0.0
 10
-10.53417
 20
-14.49585
 30
0.0
 10
-10.53417
 20
-14.49585
 30
0.0
 10
-10.53852
 20
-14.49681
 30
0.0
 10
-10.54285
 20
-14.49825
 30
0.0
 10
-10.54718
 20
-14.50013
 30
0.0
 10
-10.54718
 20
-14.50013
 30
0.0
 10
-10.54718
 20
-14.50013
 30
0.0
 10
-10.54718
 20
-14.4807
 30
0.0
 10
-10.54718
 20
-14.4807
 30
0.0
 10
-10.54718
 20
-14.4807
 30
0.0
 10
-10.54193
 20
-14.47922
 30
0.0
 10
-10.53676
 20
-14.47812
 30
0.0
 10
-10.53161
 20
-14.47739
 30
0.0
 10
-10.53161
 20
-14.47739
 30
0.0
 10
-10.52646
 20
-14.47666
 30
0.0
 10
-10.52143
 20
-14.47628
 30
0.0
 10
-10.51646
 20
-14.47628
 30
0.0
 10
-10.51646
 20
-14.47628
 30
0.0
 10
-10.5031
 20
-14.47628
 30
0.0
 10
-10.49309
 20
-14.47847
 30
0.0
 10
-10.48645
 20
-14.48287
 30
0.0
 10
-10.48645
 20
-14.48287
 30
0.0
 10
-10.47982
 20
-14.48724
 30
0.0
 10
-10.47651
 20
-14.49385
 30
0.0
 10
-10.47651
 20
-14.50267
 30
0.0
 10
-10.47651
 20
-14.50267
 30
0.0
 10
-10.47651
 20
-14.50867
 30
0.0
 10
-10.47808
 20
-14.51361
 30
0.0
 10
-10.48126
 20
-14.51744
 30
0.0
 10
-10.48126
 20
-14.51744
 30
0.0
 10
-10.48443
 20
-14.52127
 30
0.0
 10
-10.48911
 20
-14.52398
 30
0.0
 10
-10.4953
 20
-14.52553
 30
0.0
  0
SPLINE
  5
6E
330
1F
100
AcDbEntity
  8
Layer 1
 62
   250
100
AcDbSpline
210
0.0
220
0.0
230
1.0
 70
    11
 71
     3
 72
    44
 73
    40
 74
     0
 42
0.0000000001
 43
0.0000000001
 40
0.0
 40
0.0
 40
0.0
 40
0.0
 40
0.1
 40
0.1
 40
0.1
 40
0.1
 40
0.2
 40
0.2
 40
0.2
 40
0.2
 40
0.3
 40
0.3
 40
0.3
 40
0.3
 40
0.4
 40
0.4
 40
0.4
 40
0.4
 40
0.5
 40
0.5
 40
0.5
 40
0.5
 40
0.6
 40
0.6
 40
0.6
 40
0.6
 40
0.7
 40
0.7
 40
0.7
 40
0.7
 40
0.7999999999999999
 40
0.7999999999999999
 40
0.7999999999999999
 40
0.7999999999999999
 40
0.8999999999999999
 40
0.8999999999999999
 40
0.8999999999999999
 40
0.8999999999999999
 40
1.0
 40
1.0
 40
1.0
 40
1.0
 10
-10.45155
 20
-14.59961
 30
0.0
 10
-10.44567
 20
-14.58868
 30
0.0
 10
-10.44125
 20
-14.578
 30
0.0
 10
-10.43831
 20
-14.56758
 30
0.0
 10
-10.43831
 20
-14.56758
 30
0.0
 10
-10.43537
 20
-14.55714
 30
0.0
 10
-10.43391
 20
-14.54686
 30
0.0
 10
-10.43391
 20
-14.5367
 30
0.0
 10
-10.43391
 20
-14.5367
 30
0.0
 10
-10.43391
 20
-14.52654
 30
0.0
 10
-10.43537
 20
-14.51626
 30
0.0
 10
-10.43831
 20
-14.50587
 30
0.0
 10
-10.43831
 20
-14.50587
 30
0.0
 10
-10.44125
 20
-14.49547
 30
0.0
 10
-10.44567
 20
-14.48482
 30
0.0
 10
-10.45155
 20
-14.47393
 30
0.0
 10
-10.45155
 20
-14.47393
 30
0.0
 10
-10.45155
 20
-14.47393
 30
0.0
 10
-10.43109
 20
-14.47393
 30
0.0
 10
-10.43109
 20
-14.47393
 30
0.0
 10
-10.43109
 20
-14.47393
 30
0.0
 10
-10.42411
 20
-14.4852
 30
0.0
 10
-10.41893
 20
-14.49597
 30
0.0
 10
-10.41554
 20
-14.50629
 30
0.0
 10
-10.41554
 20
-14.50629
 30
0.0
 10
-10.41218
 20
-14.51659
 30
0.0
 10
-10.41049
 20
-14.52678
 30
0.0
 10
-10.41049
 20
-14.53684
 30
0.0
 10
-10.41049
 20
-14.53684
 30
0.0
 10
-10.41049
 20
-14.54691
 30
0.0
 10
-10.41216
 20
-14.55704
 30
0.0
 10
-10.41552
 20
-14.56725
 30
0.0
 10
-10.41552
 20
-14.56725
 30
0.0
 10
-10.41886
 20
-14.57748
 30
0.0
 10
-10.42406
 20
-14.58828
 30
0.0
 10
-10.43109
 20
-14.59961
 30
0.0
 10
-10.43109
 20
-14.59961
 30
0.0
 10
-10.43109
 20
-14.59961
 30
0.0
 10
-10.45155
 20
-14.59961
 30
0.0
 10
-10.45155
 20
-14.59961
 30
0.0
  0
SPLINE
  5
6F
330
1F
100
AcDbEntity
  8
Layer 1
 62
   250
100
AcDbSpline
210
0.0
220
0.0
230
1.0
 70
    11
 71
     3
 72
    80
 73
    76
 74
     0
 42
0.0000000001
 43
0.0000000001
 40
0.0
 40
0.0
 40
0.0
 40
0.0
 40
0.0526315789473684
 40
0.0526315789473684
 40
0.0526315789473684
 40
0.0526315789473684
 40
0.1052631578947368
 40
0.1052631578947368
 40
0.1052631578947368
 40
0.1052631578947368
 40
0.1578947368421053
 40
0.1578947368421053
 40
0.1578947368421053
 40
0.1578947368421053
 40
0.2105263157894737
 40
0.2105263157894737
 40
0.2105263157894737
 40
0.2105263157894737
 40
0.2631578947368421
 40
0.2631578947368421
 40
0.2631578947368421
 40
0.2631578947368421
 40
0.3157894736842105
 40
0.3157894736842105
 40
0.3157894736842105
 40
0.3157894736842105
 40
0.3684210526315789
 40
0.3684210526315789
 40
0.3684210526315789
 40
0.3684210526315789
 40
0.4210526315789473
 40
0.4210526315789473
 40
0.4210526315789473
 40
0.4210526315789473
 40
0.4736842105263158
 40
0.4736842105263158
 40
0.4736842105263158
 40
0.4736842105263158
 40
0.5263157894736842
 40
0.5263157894736842
 40
0.5263157894736842
 40
0.5263157894736842
 40
0.5789473684210527
 40
0.5789473684210527
 40
0.5789473684210527
 40
0.5789473684210527
 40
0.631578947368421
 40
0.631578947368421
 40
0.631578947368421
 40
0.631578947368421
 40
0.6842105263157894
 40
0.6842105263157894
 40
0.6842105263157894
 40
0.6842105263157894
 40
0.7368421052631577
 40
0.7368421052631577
 40
0.7368421052631577
 40
0.7368421052631577
 40
0.7894736842105261
 40
0.7894736842105261
 40
0.7894736842105261
 40
0.7894736842105261
 40
0.8421052631578945
 40
0.8421052631578945
 40
0.8421052631578945
 40
0.8421052631578945
 40
0.8947368421052628
 40
0.8947368421052628
 40
0.8947368421052628
 40
0.8947368421052628
 40
0.9473684210526312
 40
0.9473684210526312
 40
0.9473684210526312
 40
0.9473684210526312
 40
1.0
 40
1.0
 40
1.0
 40
1.0
 10
-10.30856
 20
-14.56151
 30
0.0
 10
-10.30856
 20
-14.56151
 30
0.0
 10
-10.26328
 20
-14.56151
 30
0.0
 10
-10.26328
 20
-14.56151
 30
0.0
 10
-10.26328
 20
-14.56151
 30
0.0
 10
-10.26328
 20
-14.56151
 30
0.0
 10
-10.26328
 20
-14.58101
 30
0.0
 10
-10.26328
 20
-14.58101
 30
0.0
 10
-10.26328
 20
-14.58101
 30
0.0
 10
-10.26328
 20
-14.58101
 30
0.0
 10
-10.33805
 20
-14.58101
 30
0.0
 10
-10.33805
 20
-14.58101
 30
0.0
 10
-10.33805
 20
-14.58101
 30
0.0
 10
-10.33805
 20
-14.58101
 30
0.0
 10
-10.33805
 20
-14.56151
 30
0.0
 10
-10.33805
 20
-14.56151
 30
0.0
 10
-10.33805
 20
-14.56151
 30
0.0
 10
-10.33805
 20
-14.56151
 30
0.0
 10
-10.30049
 20
-14.52838
 30
0.0
 10
-10.30049
 20
-14.52838
 30
0.0
 10
-10.30049
 20
-14.52838
 30
0.0
 10
-10.29713
 20
-14.52534
 30
0.0
 10
-10.29466
 20
-14.52238
 30
0.0
 10
-10.29306
 20
-14.51949
 30
0.0
 10
-10.29306
 20
-14.51949
 30
0.0
 10
-10.29144
 20
-14.51659
 30
0.0
 10
-10.29064
 20
-14.51358
 30
0.0
 10
-10.29064
 20
-14.51045
 30
0.0
 10
-10.29064
 20
-14.51045
 30
0.0
 10
-10.29064
 20
-14.50563
 30
0.0
 10
-10.29226
 20
-14.50175
 30
0.0
 10
-10.2955
 20
-14.49881
 30
0.0
 10
-10.2955
 20
-14.49881
 30
0.0
 10
-10.29873
 20
-14.49587
 30
0.0
 10
-10.30303
 20
-14.49442
 30
0.0
 10
-10.30842
 20
-14.49442
 30
0.0
 10
-10.30842
 20
-14.49442
 30
0.0
 10
-10.31255
 20
-14.49442
 30
0.0
 10
-10.31707
 20
-14.49531
 30
0.0
 10
-10.32199
 20
-14.49707
 30
0.0
 10
-10.32199
 20
-14.49707
 30
0.0
 10
-10.3269
 20
-14.49884
 30
0.0
 10
-10.33217
 20
-14.50147
 30
0.0
 10
-10.33777
 20
-14.50495
 30
0.0
 10
-10.33777
 20
-14.50495
 30
0.0
 10
-10.33777
 20
-14.50495
 30
0.0
 10
-10.33777
 20
-14.48235
 30
0.0
 10
-10.33777
 20
-14.48235
 30
0.0
 10
-10.33777
 20
-14.48235
 30
0.0
 10
-10.33179
 20
-14.48038
 30
0.0
 10
-10.32589
 20
-14.47887
 30
0.0
 10
-10.32006
 20
-14.47784
 30
0.0
 10
-10.32006
 20
-14.47784
 30
0.0
 10
-10.31422
 20
-14.4768
 30
0.0
 10
-10.30851
 20
-14.47628
 30
0.0
 10
-10.30289
 20
-14.47628
 30
0.0
 10
-10.30289
 20
-14.47628
 30
0.0
 10
-10.29059
 20
-14.47628
 30
0.0
 10
-10.28102
 20
-14.47899
 30
0.0
 10
-10.2742
 20
-14.48442
 30
0.0
 10
-10.2742
 20
-14.48442
 30
0.0
 10
-10.26738
 20
-14.48983
 30
0.0
 10
-10.26397
 20
-14.49738
 30
0.0
 10
-10.26397
 20
-14.50709
 30
0.0
 10
-10.26397
 20
-14.50709
 30
0.0
 10
-10.26397
 20
-14.51269
 30
0.0
 10
-10.26542
 20
-14.51791
 30
0.0
 10
-10.26832
 20
-14.52276
 30
0.0
 10
-10.26832
 20
-14.52276
 30
0.0
 10
-10.27121
 20
-14.5276
 30
0.0
 10
-10.2773
 20
-14.53409
 30
0.0
 10
-10.28657
 20
-14.54223
 30
0.0
 10
-10.28657
 20
-14.54223
 30
0.0
 10
-10.28657
 20
-14.54223
 30
0.0
 10
-10.30856
 20
-14.56151
 30
0.0
 10
-10.30856
 20
-14.56151
 30
0.0
  0
SPLINE
  5
70
330
1F
100
AcDbEntity
  8
Layer 1
 62
   250
100
AcDbSpline
210
0.0
220
0.0
230
1.0
 70
    11
 71
     3
 72
    20
 73
    16
 74
     0
 42
0.0000000001
 43
0.0000000001
 40
0.0
 40
0.0
 40
0.0
 40
0.0
 40
0.25
 40
0.25
 40
0.25
 40
0.25
 40
0.5
 40
0.5
 40
0.5
 40
0.5
 40
0.75
 40
0.75
 40
0.75
 40
0.75
 40
1.0
 40
1.0
 40
1.0
 40
1.0
 10
-10.23664
 20
-14.55434
 30
0.0
 10
-10.23664
 20
-14.55434
 30
0.0
 10
-10.21182
 20
-14.55434
 30
0.0
 10
-10.21182
 20
-14.55434
 30
0.0
 10
-10.21182
 20
-14.55434
 30
0.0
 10
-10.21182
 20
-14.55434
 30
0.0
 10
-10.21182
 20
-14.58101
 30
0.0
 10
-10.21182
 20
-14.58101
 30
0.0
 10
-10.21182
 20
-14.58101
 30
0.0
 10
-10.21182
 20
-14.58101
 30
0.0
 10
-10.23664
 20
-14.58101
 30
0.0
 10
-10.23664
 20
-14.58101
 30
0.0
 10
-10.23664
 20
-14.58101
 30
0.0
 10
-10.23664
 20
-14.58101
 30
0.0
 10
-10.23664
 20
-14.55434
 30
0.0
 10
-10.23664
 20
-14.55434
 30
0.0
  0
SPLINE
  5
71
330
1F
100
AcDbEntity
  8
Layer 1
 62
   250
100
AcDbSpline
210
0.0
220
0.0
230
1.0
 70
    11
 71
     3
 72
    80
 73
    76
 74
     0
 42
0.0000000001
 43
0.0000000001
 40
0.0
 40
0.0
 40
0.0
 40
0.0
 40
0.0526315789473684
 40
0.0526315789473684
 40
0.0526315789473684
 40
0.0526315789473684
 40
0.1052631578947368
 40
0.1052631578947368
 40
0.1052631578947368
 40
0.1052631578947368
 40
0.1578947368421053
 40
0.1578947368421053
 40
0.1578947368421053
 40
0.1578947368421053
 40
0.2105263157894737
 40
0.2105263157894737
 40
0.2105263157894737
 40
0.2105263157894737
 40
0.2631578947368421
 40
0.2631578947368421
 40
0.2631578947368421
 40
0.2631578947368421
 40
0.3157894736842105
 40
0.3157894736842105
 40
0.3157894736842105
 40
0.3157894736842105
 40
0.3684210526315789
 40
0.3684210526315789
 40
0.3684210526315789
 40
0.3684210526315789
 40
0.4210526315789473
 40
0.4210526315789473
 40
0.4210526315789473
 40
0.4210526315789473
 40
0.4736842105263158
 40
0.4736842105263158
 40
0.4736842105263158
 40
0.4736842105263158
 40
0.5263157894736842
 40
0.5263157894736842
 40
0.5263157894736842
 40
0.5263157894736842
 40
0.5789473684210527
 40
0.5789473684210527
 40
0.5789473684210527
 40
0.5789473684210527
 40
0.631578947368421
 40
0.631578947368421
 40
0.631578947368421
 40
0.631578947368421
 40
0.6842105263157894
 40
0.6842105263157894
 40
0.6842105263157894
 40
0.6842105263157894
 40
0.7368421052631577
 40
0.7368421052631577
 40
0.7368421052631577
 40
0.7368421052631577
 40
0.7894736842105261
 40
0.7894736842105261
 40
0.7894736842105261
 40
0.7894736842105261
 40
0.8421052631578945
 40
0.8421052631578945
 40
0.8421052631578945
 40
0.8421052631578945
 40
0.8947368421052628
 40
0.8947368421052628
 40
0.8947368421052628
 40
0.8947368421052628
 40
0.9473684210526312
 40
0.9473684210526312
 40
0.9473684210526312
 40
0.9473684210526312
 40
1.0
 40
1.0
 40
1.0
 40
1.0
 10
-10.15677
 20
-14.56151
 30
0.0
 10
-10.15677
 20
-14.56151
 30
0.0
 10
-10.11149
 20
-14.56151
 30
0.0
 10
-10.11149
 20
-14.56151
 30
0.0
 10
-10.11149
 20
-14.56151
 30
0.0
 10
-10.11149
 20
-14.56151
 30
0.0
 10
-10.11149
 20
-14.58101
 30
0.0
 10
-10.11149
 20
-14.58101
 30
0.0
 10
-10.11149
 20
-14.58101
 30
0.0
 10
-10.11149
 20
-14.58101
 30
0.0
 10
-10.18626
 20
-14.58101
 30
0.0
 10
-10.18626
 20
-14.58101
 30
0.0
 10
-10.18626
 20
-14.58101
 30
0.0
 10
-10.18626
 20
-14.58101
 30
0.0
 10
-10.18626
 20
-14.56151
 30
0.0
 10
-10.18626
 20
-14.56151
 30
0.0
 10
-10.18626
 20
-14.56151
 30
0.0
 10
-10.18626
 20
-14.56151
 30
0.0
 10
-10.1487
 20
-14.52838
 30
0.0
 10
-10.1487
 20
-14.52838
 30
0.0
 10
-10.1487
 20
-14.52838
 30
0.0
 10
-10.14534
 20
-14.52534
 30
0.0
 10
-10.14287
 20
-14.52238
 30
0.0
 10
-10.14127
 20
-14.51949
 30
0.0
 10
-10.14127
 20
-14.51949
 30
0.0
 10
-10.13965
 20
-14.51659
 30
0.0
 10
-10.13885
 20
-14.51358
 30
0.0
 10
-10.13885
 20
-14.51045
 30
0.0
 10
-10.13885
 20
-14.51045
 30
0.0
 10
-10.13885
 20
-14.50563
 30
0.0
 10
-10.14047
 20
-14.50175
 30
0.0
 10
-10.14371
 20
-14.49881
 30
0.0
 10
-10.14371
 20
-14.49881
 30
0.0
 10
-10.14694
 20
-14.49587
 30
0.0
 10
-10.15124
 20
-14.49442
 30
0.0
 10
-10.15663
 20
-14.49442
 30
0.0
 10
-10.15663
 20
-14.49442
 30
0.0
 10
-10.16076
 20
-14.49442
 30
0.0
 10
-10.16528
 20
-14.49531
 30
0.0
 10
-10.1702
 20
-14.49707
 30
0.0
 10
-10.1702
 20
-14.49707
 30
0.0
 10
-10.17511
 20
-14.49884
 30
0.0
 10
-10.18038
 20
-14.50147
 30
0.0
 10
-10.18598
 20
-14.50495
 30
0.0
 10
-10.18598
 20
-14.50495
 30
0.0
 10
-10.18598
 20
-14.50495
 30
0.0
 10
-10.18598
 20
-14.48235
 30
0.0
 10
-10.18598
 20
-14.48235
 30
0.0
 10
-10.18598
 20
-14.48235
 30
0.0
 10
-10.18
 20
-14.48038
 30
0.0
 10
-10.1741
 20
-14.47887
 30
0.0
 10
-10.16827
 20
-14.47784
 30
0.0
 10
-10.16827
 20
-14.47784
 30
0.0
 10
-10.16243
 20
-14.4768
 30
0.0
 10
-10.15672
 20
-14.47628
 30
0.0
 10
-10.1511
 20
-14.47628
 30
0.0
 10
-10.1511
 20
-14.47628
 30
0.0
 10
-10.1388
 20
-14.47628
 30
0.0
 10
-10.12923
 20
-14.47899
 30
0.0
 10
-10.12241
 20
-14.48442
 30
0.0
 10
-10.12241
 20
-14.48442
 30
0.0
 10
-10.11559
 20
-14.48983
 30
0.0
 10
-10.11218
 20
-14.49738
 30
0.0
 10
-10.11218
 20
-14.50709
 30
0.0
 10
-10.11218
 20
-14.50709
 30
0.0
 10
-10.11218
 20
-14.51269
 30
0.0
 10
-10.11363
 20
-14.51791
 30
0.0
 10
-10.11653
 20
-14.52276
 30
0.0
 10
-10.11653
 20
-14.52276
 30
0.0
 10
-10.11942
 20
-14.5276
 30
0.0
 10
-10.12551
 20
-14.53409
 30
0.0
 10
-10.13478
 20
-14.54223
 30
0.0
 10
-10.13478
 20
-14.54223
 30
0.0
 10
-10.13478
 20
-14.54223
 30
0.0
 10
-10.15677
 20
-14.56151
 30
0.0
 10
-10.15677
 20
-14.56151
 30
0.0
  0
SPLINE
  5
72
330
1F
100
AcDbEntity
  8
Layer 1
 62
   250
100
AcDbSpline
210
0.0
220
0.0
230
1.0
 70
    11
 71
     3
 72
    36
 73
    32
 74
     0
 42
0.0000000001
 43
0.0000000001
 40
0.0
 40
0.0
 40
0.0
 40
0.0
 40
0.125
 40
0.125
 40
0.125
 40
0.125
 40
0.25
 40
0.25
 40
0.25
 40
0.25
 40
0.375
 40
0.375
 40
0.375
 40
0.375
 40
0.5
 40
0.5
 40
0.5
 40
0.5
 40
0.625
 40
0.625
 40
0.625
 40
0.625
 40
0.75
 40
0.75
 40
0.75
 40
0.75
 40
0.875
 40
0.875
 40
0.875
 40
0.875
 40
1.0
 40
1.0
 40
1.0
 40
1.0
 10
-9.99016
 20
-14.4955
 30
0.0
 10
-9.99825
 20
-14.4955
 30
0.0
 10
-10.00451
 20
-14.49848
 30
0.0
 10
-10.00898
 20
-14.50446
 30
0.0
 10
-10.00898
 20
-14.50446
 30
0.0
 10
-10.01342
 20
-14.51043
 30
0.0
 10
-10.01566
 20
-14.51883
 30
0.0
 10
-10.01566
 20
-14.52967
 30
0.0
 10
-10.01566
 20
-14.52967
 30
0.0
 10
-10.01566
 20
-14.54049
 30
0.0
 10
-10.01342
 20
-14.54886
 30
0.0
 10
-10.00898
 20
-14.55483
 30
0.0
 10
-10.00898
 20
-14.55483
 30
0.0
 10
-10.00451
 20
-14.56081
 30
0.0
 10
-9.99825
 20
-14.56379
 30
0.0
 10
-9.99016
 20
-14.56379
 30
0.0
 10
-9.99016
 20
-14.56379
 30
0.0
 10
-9.98202
 20
-14.56379
 30
0.0
 10
-9.97575
 20
-14.56081
 30
0.0
 10
-9.97128
 20
-14.55483
 30
0.0
 10
-9.97128
 20
-14.55483
 30
0.0
 10
-9.96683
 20
-14.54886
 30
0.0
 10
-9.9646
 20
-14.54049
 30
0.0
 10
-9.9646
 20
-14.52967
 30
0.0
 10
-9.9646
 20
-14.52967
 30
0.0
 10
-9.9646
 20
-14.51883
 30
0.0
 10
-9.96683
 20
-14.51043
 30
0.0
 10
-9.97128
 20
-14.50446
 30
0.0
 10
-9.97128
 20
-14.50446
 30
0.0
 10
-9.97575
 20
-14.49848
 30
0.0
 10
-9.98202
 20
-14.4955
 30
0.0
 10
-9.99016
 20
-14.4955
 30
0.0
  0
SPLINE
  5
73
330
1F
100
AcDbEntity
  8
Layer 1
 62
   250
100
AcDbSpline
210
0.0
220
0.0
230
1.0
 70
    11
 71
     3
 72
    36
 73
    32
 74
     0
 42
0.0000000001
 43
0.0000000001
 40
0.0
 40
0.0
 40
0.0
 40
0.0
 40
0.125
 40
0.125
 40
0.125
 40
0.125
 40
0.25
 40
0.25
 40
0.25
 40
0.25
 40
0.375
 40
0.375
 40
0.375
 40
0.375
 40
0.5
 40
0.5
 40
0.5
 40
0.5
 40
0.625
 40
0.625
 40
0.625
 40
0.625
 40
0.75
 40
0.75
 40
0.75
 40
0.75
 40
0.875
 40
0.875
 40
0.875
 40
0.875
 40
1.0
 40
1.0
 40
1.0
 40
1.0
 10
-9.99016
 20
-14.47628
 30
0.0
 10
-9.97363
 20
-14.47628
 30
0.0
 10
-9.96067
 20
-14.48101
 30
0.0
 10
-9.95131
 20
-14.49049
 30
0.0
 10
-9.95131
 20
-14.49049
 30
0.0
 10
-9.94193
 20
-14.49994
 30
0.0
 10
-9.93725
 20
-14.51299
 30
0.0
 10
-9.93725
 20
-14.52967
 30
0.0
 10
-9.93725
 20
-14.52967
 30
0.0
 10
-9.93725
 20
-14.5463
 30
0.0
 10
-9.94193
 20
-14.55935
 30
0.0
 10
-9.95131
 20
-14.5688
 30
0.0
 10
-9.95131
 20
-14.5688
 30
0.0
 10
-9.96067
 20
-14.57828
 30
0.0
 10
-9.97363
 20
-14.58301
 30
0.0
 10
-9.99016
 20
-14.58301
 30
0.0
 10
-9.99016
 20
-14.58301
 30
0.0
 10
-10.00665
 20
-14.58301
 30
0.0
 10
-10.01958
 20
-14.57828
 30
0.0
 10
-10.02899
 20
-14.5688
 30
0.0
 10
-10.02899
 20
-14.5688
 30
0.0
 10
-10.03837
 20
-14.55935
 30
0.0
 10
-10.04308
 20
-14.5463
 30
0.0
 10
-10.04308
 20
-14.52967
 30
0.0
 10
-10.04308
 20
-14.52967
 30
0.0
 10
-10.04308
 20
-14.51299
 30
0.0
 10
-10.03837
 20
-14.49994
 30
0.0
 10
-10.02899
 20
-14.49049
 30
0.0
 10
-10.02899
 20
-14.49049
 30
0.0
 10
-10.01958
 20
-14.48101
 30
0.0
 10
-10.00665
 20
-14.47628
 30
0.0
 10
-9.99016
 20
-14.47628
 30
0.0
  0
SPLINE
  5
74
330
1F
100
AcDbEntity
  8
Layer 1
 62
   250
100
AcDbSpline
210
0.0
220
0.0
230
1.0
 70
    11
 71
     3
 72
    52
 73
    48
 74
     0
 42
0.0000000001
 43
0.0000000001
 40
0.0
 40
0.0
 40
0.0
 40
0.0
 40
0.0833333333333333
 40
0.0833333333333333
 40
0.0833333333333333
 40
0.0833333333333333
 40
0.1666666666666667
 40
0.1666666666666667
 40
0.1666666666666667
 40
0.1666666666666667
 40
0.25
 40
0.25
 40
0.25
 40
0.25
 40
0.3333333333333333
 40
0.3333333333333333
 40
0.3333333333333333
 40
0.3333333333333333
 40
0.4166666666666666
 40
0.4166666666666666
 40
0.4166666666666666
 40
0.4166666666666666
 40
0.4999999999999999
 40
0.4999999999999999
 40
0.4999999999999999
 40
0.4999999999999999
 40
0.5833333333333333
 40
0.5833333333333333
 40
0.5833333333333333
 40
0.5833333333333333
 40
0.6666666666666666
 40
0.6666666666666666
 40
0.6666666666666666
 40
0.6666666666666666
 40
0.75
 40
0.75
 40
0.75
 40
0.75
 40
0.8333333333333334
 40
0.8333333333333334
 40
0.8333333333333334
 40
0.8333333333333334
 40
0.9166666666666667
 40
0.9166666666666667
 40
0.9166666666666667
 40
0.9166666666666667
 40
1.0
 40
1.0
 40
1.0
 40
1.0
 10
-9.91718
 20
-14.47814
 30
0.0
 10
-9.91718
 20
-14.47814
 30
0.0
 10
-9.89065
 20
-14.47814
 30
0.0
 10
-9.89065
 20
-14.47814
 30
0.0
 10
-9.89065
 20
-14.47814
 30
0.0
 10
-9.89065
 20
-14.47814
 30
0.0
 10
-9.89065
 20
-14.51735
 30
0.0
 10
-9.89065
 20
-14.51735
 30
0.0
 10
-9.89065
 20
-14.51735
 30
0.0
 10
-9.89065
 20
-14.51735
 30
0.0
 10
-9.85152
 20
-14.51735
 30
0.0
 10
-9.85152
 20
-14.51735
 30
0.0
 10
-9.85152
 20
-14.51735
 30
0.0
 10
-9.85152
 20
-14.51735
 30
0.0
 10
-9.85152
 20
-14.47814
 30
0.0
 10
-9.85152
 20
-14.47814
 30
0.0
 10
-9.85152
 20
-14.47814
 30
0.0
 10
-9.85152
 20
-14.47814
 30
0.0
 10
-9.82499
 20
-14.47814
 30
0.0
 10
-9.82499
 20
-14.47814
 30
0.0
 10
-9.82499
 20
-14.47814
 30
0.0
 10
-9.82499
 20
-14.47814
 30
0.0
 10
-9.82499
 20
-14.58101
 30
0.0
 10
-9.82499
 20
-14.58101
 30
0.0
 10
-9.82499
 20
-14.58101
 30
0.0
 10
-9.82499
 20
-14.58101
 30
0.0
 10
-9.85152
 20
-14.58101
 30
0.0
 10
-9.85152
 20
-14.58101
 30
0.0
 10
-9.85152
 20
-14.58101
 30
0.0
 10
-9.85152
 20
-14.58101
 30
0.0
 10
-9.85152
 20
-14.53741
 30
0.0
 10
-9.85152
 20
-14.53741
 30
0.0
 10
-9.85152
 20
-14.53741
 30
0.0
 10
-9.85152
 20
-14.53741
 30
0.0
 10
-9.89065
 20
-14.53741
 30
0.0
 10
-9.89065
 20
-14.53741
 30
0.0
 10
-9.89065
 20
-14.53741
 30
0.0
 10
-9.89065
 20
-14.53741
 30
0.0
 10
-9.89065
 20
-14.58101
 30
0.0
 10
-9.89065
 20
-14.58101
 30
0.0
 10
-9.89065
 20
-14.58101
 30
0.0
 10
-9.89065
 20
-14.58101
 30
0.0
 10
-9.91718
 20
-14.58101
 30
0.0
 10
-9.91718
 20
-14.58101
 30
0.0
 10
-9.91718
 20
-14.58101
 30
0.0
 10
-9.91718
 20
-14.58101
 30
0.0
 10
-9.91718
 20
-14.47814
 30
0.0
 10
-9.91718
 20
-14.47814
 30
0.0
  0
SPLINE
  5
75
330
1F
100
AcDbEntity
  8
Layer 1
 62
   250
100
AcDbSpline
210
0.0
220
0.0
230
1.0
 70
    11
 71
     3
 72
    56
 73
    52
 74
     0
 42
0.0000000001
 43
0.0000000001
 40
0.0
 40
0.0
 40
0.0
 40
0.0
 40
0.0769230769230769
 40
0.0769230769230769
 40
0.0769230769230769
 40
0.0769230769230769
 40
0.1538461538461539
 40
0.1538461538461539
 40
0.1538461538461539
 40
0.1538461538461539
 40
0.2307692307692308
 40
0.2307692307692308
 40
0.2307692307692308
 40
0.2307692307692308
 40
0.3076923076923077
 40
0.3076923076923077
 40
0.3076923076923077
 40
0.3076923076923077
 40
0.3846153846153846
 40
0.3846153846153846
 40
0.3846153846153846
 40
0.3846153846153846
 40
0.4615384615384616
 40
0.4615384615384616
 40
0.4615384615384616
 40
0.4615384615384616
 40
0.5384615384615385
 40
0.5384615384615385
 40
0.5384615384615385
 40
0.5384615384615385
 40
0.6153846153846154
 40
0.6153846153846154
 40
0.6153846153846154
 40
0.6153846153846154
 40
0.6923076923076923
 40
0.6923076923076923
 40
0.6923076923076923
 40
0.6923076923076923
 40
0.7692307692307692
 40
0.7692307692307692
 40
0.7692307692307692
 40
0.7692307692307692
 40
0.846153846153846
 40
0.846153846153846
 40
0.846153846153846
 40
0.846153846153846
 40
0.9230769230769229
 40
0.9230769230769229
 40
0.9230769230769229
 40
0.9230769230769229
 40
1.0
 40
1.0
 40
1.0
 40
1.0
 10
-9.79909
 20
-14.47814
 30
0.0
 10
-9.79909
 20
-14.47814
 30
0.0
 10
-9.76534
 20
-14.47814
 30
0.0
 10
-9.76534
 20
-14.47814
 30
0.0
 10
-9.76534
 20
-14.47814
 30
0.0
 10
-9.76534
 20
-14.47814
 30
0.0
 10
-9.74189
 20
-14.5332
 30
0.0
 10
-9.74189
 20
-14.5332
 30
0.0
 10
-9.74189
 20
-14.5332
 30
0.0
 10
-9.74189
 20
-14.5332
 30
0.0
 10
-9.71833
 20
-14.47814
 30
0.0
 10
-9.71833
 20
-14.47814
 30
0.0
 10
-9.71833
 20
-14.47814
 30
0.0
 10
-9.71833
 20
-14.47814
 30
0.0
 10
-9.68465
 20
-14.47814
 30
0.0
 10
-9.68465
 20
-14.47814
 30
0.0
 10
-9.68465
 20
-14.47814
 30
0.0
 10
-9.68465
 20
-14.47814
 30
0.0
 10
-9.68465
 20
-14.58101
 30
0.0
 10
-9.68465
 20
-14.58101
 30
0.0
 10
-9.68465
 20
-14.58101
 30
0.0
 10
-9.68465
 20
-14.58101
 30
0.0
 10
-9.70972
 20
-14.58101
 30
0.0
 10
-9.70972
 20
-14.58101
 30
0.0
 10
-9.70972
 20
-14.58101
 30
0.0
 10
-9.70972
 20
-14.58101
 30
0.0
 10
-9.70972
 20
-14.50577
 30
0.0
 10
-9.70972
 20
-14.50577
 30
0.0
 10
-9.70972
 20
-14.50577
 30
0.0
 10
-9.70972
 20
-14.50577
 30
0.0
 10
-9.73343
 20
-14.56123
 30
0.0
 10
-9.73343
 20
-14.56123
 30
0.0
 10
-9.73343
 20
-14.56123
 30
0.0
 10
-9.73343
 20
-14.56123
 30
0.0
 10
-9.75024
 20
-14.56123
 30
0.0
 10
-9.75024
 20
-14.56123
 30
0.0
 10
-9.75024
 20
-14.56123
 30
0.0
 10
-9.75024
 20
-14.56123
 30
0.0
 10
-9.77395
 20
-14.50577
 30
0.0
 10
-9.77395
 20
-14.50577
 30
0.0
 10
-9.77395
 20
-14.50577
 30
0.0
 10
-9.77395
 20
-14.50577
 30
0.0
 10
-9.77395
 20
-14.58101
 30
0.0
 10
-9.77395
 20
-14.58101
 30
0.0
 10
-9.77395
 20
-14.58101
 30
0.0
 10
-9.77395
 20
-14.58101
 30
0.0
 10
-9.79909
 20
-14.58101
 30
0.0
 10
-9.79909
 20
-14.58101
 30
0.0
 10
-9.79909
 20
-14.58101
 30
0.0
 10
-9.79909
 20
-14.58101
 30
0.0
 10
-9.79909
 20
-14.47814
 30
0.0
 10
-9.79909
 20
-14.47814
 30
0.0
  0
SPLINE
  5
76
330
1F
100
AcDbEntity
  8
Layer 1
 62
   250
100
AcDbSpline
210
0.0
220
0.0
230
1.0
 70
    11
 71
     3
 72
    32
 73
    28
 74
     0
 42
0.0000000001
 43
0.0000000001
 40
0.0
 40
0.0
 40
0.0
 40
0.0
 40
0.1428571428571428
 40
0.1428571428571428
 40
0.1428571428571428
 40
0.1428571428571428
 40
0.2857142857142857
 40
0.2857142857142857
 40
0.2857142857142857
 40
0.2857142857142857
 40
0.4285714285714285
 40
0.4285714285714285
 40
0.4285714285714285
 40
0.4285714285714285
 40
0.5714285714285714
 40
0.5714285714285714
 40
0.5714285714285714
 40
0.5714285714285714
 40
0.7142857142857142
 40
0.7142857142857142
 40
0.7142857142857142
 40
0.7142857142857142
 40
0.857142857142857
 40
0.857142857142857
 40
0.857142857142857
 40
0.857142857142857
 40
1.0
 40
1.0
 40
1.0
 40
1.0
 10
-10.98653
 20
-14.68802
 30
0.0
 10
-10.98098
 20
-14.68802
 30
0.0
 10
-10.97698
 20
-14.68698
 30
0.0
 10
-10.97458
 20
-14.68491
 30
0.0
 10
-10.97458
 20
-14.68491
 30
0.0
 10
-10.97216
 20
-14.68284
 30
0.0
 10
-10.97096
 20
-14.67943
 30
0.0
 10
-10.97096
 20
-14.6747
 30
0.0
 10
-10.97096
 20
-14.6747
 30
0.0
 10
-10.97096
 20
-14.67002
 30
0.0
 10
-10.97216
 20
-14.66666
 30
0.0
 10
-10.97458
 20
-14.66464
 30
0.0
 10
-10.97458
 20
-14.66464
 30
0.0
 10
-10.97698
 20
-14.66262
 30
0.0
 10
-10.98098
 20
-14.66161
 30
0.0
 10
-10.98653
 20
-14.66161
 30
0.0
 10
-10.98653
 20
-14.66161
 30
0.0
 10
-10.98653
 20
-14.66161
 30
0.0
 10
-10.9977
 20
-14.66161
 30
0.0
 10
-10.9977
 20
-14.66161
 30
0.0
 10
-10.9977
 20
-14.66161
 30
0.0
 10
-10.9977
 20
-14.66161
 30
0.0
 10
-10.9977
 20
-14.68802
 30
0.0
 10
-10.9977
 20
-14.68802
 30
0.0
 10
-10.9977
 20
-14.68802
 30
0.0
 10
-10.9977
 20
-14.68802
 30
0.0
 10
-10.98653
 20
-14.68802
 30
0.0
 10
-10.98653
 20
-14.68802
 30
0.0
  0
SPLINE
  5
77
330
1F
100
AcDbEntity
  8
Layer 1
 62
   250
100
AcDbSpline
210
0.0
220
0.0
230
1.0
 70
    11
 71
     3
 72
    68
 73
    64
 74
     0
 42
0.0000000001
 43
0.0000000001
 40
0.0
 40
0.0
 40
0.0
 40
0.0
 40
0.0625
 40
0.0625
 40
0.0625
 40
0.0625
 40
0.125
 40
0.125
 40
0.125
 40
0.125
 40
0.1875
 40
0.1875
 40
0.1875
 40
0.1875
 40
0.25
 40
0.25
 40
0.25
 40
0.25
 40
0.3125
 40
0.3125
 40
0.3125
 40
0.3125
 40
0.375
 40
0.375
 40
0.375
 40
0.375
 40
0.4375
 40
0.4375
 40
0.4375
 40
0.4375
 40
0.5
 40
0.5
 40
0.5
 40
0.5
 40
0.5625
 40
0.5625
 40
0.5625
 40
0.5625
 40
0.625
 40
0.625
 40
0.625
 40
0.625
 40
0.6875
 40
0.6875
 40
0.6875
 40
0.6875
 40
0.75
 40
0.75
 40
0.75
 40
0.75
 40
0.8125
 40
0.8125
 40
0.8125
 40
0.8125
 40
0.875
 40
0.875
 40
0.875
 40
0.875
 40
0.9375
 40
0.9375
 40
0.9375
 40
0.9375
 40
1.0
 40
1.0
 40
1.0
 40
1.0
 10
-10.9977
 20
-14.70634
 30
0.0
 10
-10.9977
 20
-14.70634
 30
0.0
 10
-10.9977
 20
-14.74526
 30
0.0
 10
-10.9977
 20
-14.74526
 30
0.0
 10
-10.9977
 20
-14.74526
 30
0.0
 10
-10.9977
 20
-14.74526
 30
0.0
 10
-11.02423
 20
-14.74526
 30
0.0
 10
-11.02423
 20
-14.74526
 30
0.0
 10
-11.02423
 20
-14.74526
 30
0.0
 10
-11.02423
 20
-14.74526
 30
0.0
 10
-11.02423
 20
-14.64239
 30
0.0
 10
-11.02423
 20
-14.64239
 30
0.0
 10
-11.02423
 20
-14.64239
 30
0.0
 10
-11.02423
 20
-14.64239
 30
0.0
 10
-10.98371
 20
-14.64239
 30
0.0
 10
-10.98371
 20
-14.64239
 30
0.0
 10
-10.98371
 20
-14.64239
 30
0.0
 10
-10.97016
 20
-14.64239
 30
0.0
 10
-10.96021
 20
-14.64467
 30
0.0
 10
-10.95391
 20
-14.64921
 30
0.0
 10
-10.95391
 20
-14.64921
 30
0.0
 10
-10.94759
 20
-14.65375
 30
0.0
 10
-10.94443
 20
-14.66095
 30
0.0
 10
-10.94443
 20
-14.67078
 30
0.0
 10
-10.94443
 20
-14.67078
 30
0.0
 10
-10.94443
 20
-14.67757
 30
0.0
 10
-10.94608
 20
-14.68317
 30
0.0
 10
-10.94935
 20
-14.68752
 30
0.0
 10
-10.94935
 20
-14.68752
 30
0.0
 10
-10.95264
 20
-14.6919
 30
0.0
 10
-10.9576
 20
-14.69512
 30
0.0
 10
-10.96421
 20
-14.69717
 30
0.0
 10
-10.96421
 20
-14.69717
 30
0.0
 10
-10.96059
 20
-14.69801
 30
0.0
 10
-10.95732
 20
-14.69987
 30
0.0
 10
-10.95445
 20
-14.70279
 30
0.0
 10
-10.95445
 20
-14.70279
 30
0.0
 10
-10.95158
 20
-14.7057
 30
0.0
 10
-10.94869
 20
-14.71012
 30
0.0
 10
-10.94575
 20
-14.71605
 30
0.0
 10
-10.94575
 20
-14.71605
 30
0.0
 10
-10.94575
 20
-14.71605
 30
0.0
 10
-10.93133
 20
-14.74526
 30
0.0
 10
-10.93133
 20
-14.74526
 30
0.0
 10
-10.93133
 20
-14.74526
 30
0.0
 10
-10.93133
 20
-14.74526
 30
0.0
 10
-10.9596
 20
-14.74526
 30
0.0
 10
-10.9596
 20
-14.74526
 30
0.0
 10
-10.9596
 20
-14.74526
 30
0.0
 10
-10.9596
 20
-14.74526
 30
0.0
 10
-10.97214
 20
-14.7197
 30
0.0
 10
-10.97214
 20
-14.7197
 30
0.0
 10
-10.97214
 20
-14.7197
 30
0.0
 10
-10.97465
 20
-14.71457
 30
0.0
 10
-10.97722
 20
-14.71104
 30
0.0
 10
-10.97983
 20
-14.70916
 30
0.0
 10
-10.97983
 20
-14.70916
 30
0.0
 10
-10.98242
 20
-14.70728
 30
0.0
 10
-10.98587
 20
-14.70634
 30
0.0
 10
-10.9902
 20
-14.70634
 30
0.0
 10
-10.9902
 20
-14.70634
 30
0.0
 10
-10.9902
 20
-14.70634
 30
0.0
 10
-10.9977
 20
-14.70634
 30
0.0
 10
-10.9977
 20
-14.70634
 30
0.0
  0
SPLINE
  5
78
330
1F
100
AcDbEntity
  8
Layer 1
 62
   250
100
AcDbSpline
210
0.0
220
0.0
230
1.0
 70
    11
 71
     3
 72
    52
 73
    48
 74
     0
 42
0.0000000001
 43
0.0000000001
 40
0.0
 40
0.0
 40
0.0
 40
0.0
 40
0.0833333333333333
 40
0.0833333333333333
 40
0.0833333333333333
 40
0.0833333333333333
 40
0.1666666666666667
 40
0.1666666666666667
 40
0.1666666666666667
 40
0.1666666666666667
 40
0.25
 40
0.25
 40
0.25
 40
0.25
 40
0.3333333333333333
 40
0.3333333333333333
 40
0.3333333333333333
 40
0.3333333333333333
 40
0.4166666666666666
 40
0.4166666666666666
 40
0.4166666666666666
 40
0.4166666666666666
 40
0.4999999999999999
 40
0.4999999999999999
 40
0.4999999999999999
 40
0.4999999999999999
 40
0.5833333333333333
 40
0.5833333333333333
 40
0.5833333333333333
 40
0.5833333333333333
 40
0.6666666666666666
 40
0.6666666666666666
 40
0.6666666666666666
 40
0.6666666666666666
 40
0.75
 40
0.75
 40
0.75
 40
0.75
 40
0.8333333333333334
 40
0.8333333333333334
 40
0.8333333333333334
 40
0.8333333333333334
 40
0.9166666666666667
 40
0.9166666666666667
 40
0.9166666666666667
 40
0.9166666666666667
 40
1.0
 40
1.0
 40
1.0
 40
1.0
 10
-10.91558
 20
-14.64239
 30
0.0
 10
-10.91558
 20
-14.64239
 30
0.0
 10
-10.84399
 20
-14.64239
 30
0.0
 10
-10.84399
 20
-14.64239
 30
0.0
 10
-10.84399
 20
-14.64239
 30
0.0
 10
-10.84399
 20
-14.64239
 30
0.0
 10
-10.84399
 20
-14.66245
 30
0.0
 10
-10.84399
 20
-14.66245
 30
0.0
 10
-10.84399
 20
-14.66245
 30
0.0
 10
-10.84399
 20
-14.66245
 30
0.0
 10
-10.88905
 20
-14.66245
 30
0.0
 10
-10.88905
 20
-14.66245
 30
0.0
 10
-10.88905
 20
-14.66245
 30
0.0
 10
-10.88905
 20
-14.66245
 30
0.0
 10
-10.88905
 20
-14.6816
 30
0.0
 10
-10.88905
 20
-14.6816
 30
0.0
 10
-10.88905
 20
-14.6816
 30
0.0
 10
-10.88905
 20
-14.6816
 30
0.0
 10
-10.8467
 20
-14.6816
 30
0.0
 10
-10.8467
 20
-14.6816
 30
0.0
 10
-10.8467
 20
-14.6816
 30
0.0
 10
-10.8467
 20
-14.6816
 30
0.0
 10
-10.8467
 20
-14.70166
 30
0.0
 10
-10.8467
 20
-14.70166
 30
0.0
 10
-10.8467
 20
-14.70166
 30
0.0
 10
-10.8467
 20
-14.70166
 30
0.0
 10
-10.88905
 20
-14.70166
 30
0.0
 10
-10.88905
 20
-14.70166
 30
0.0
 10
-10.88905
 20
-14.70166
 30
0.0
 10
-10.88905
 20
-14.70166
 30
0.0
 10
-10.88905
 20
-14.7252
 30
0.0
 10
-10.88905
 20
-14.7252
 30
0.0
 10
-10.88905
 20
-14.7252
 30
0.0
 10
-10.88905
 20
-14.7252
 30
0.0
 10
-10.84249
 20
-14.7252
 30
0.0
 10
-10.84249
 20
-14.7252
 30
0.0
 10
-10.84249
 20
-14.7252
 30
0.0
 10
-10.84249
 20
-14.7252
 30
0.0
 10
-10.84249
 20
-14.74526
 30
0.0
 10
-10.84249
 20
-14.74526
 30
0.0
 10
-10.84249
 20
-14.74526
 30
0.0
 10
-10.84249
 20
-14.74526
 30
0.0
 10
-10.91558
 20
-14.74526
 30
0.0
 10
-10.91558
 20
-14.74526
 30
0.0
 10
-10.91558
 20
-14.74526
 30
0.0
 10
-10.91558
 20
-14.74526
 30
0.0
 10
-10.91558
 20
-14.64239
 30
0.0
 10
-10.91558
 20
-14.64239
 30
0.0
  0
SPLINE
  5
79
330
1F
100
AcDbEntity
  8
Layer 1
 62
   250
100
AcDbSpline
210
0.0
220
0.0
230
1.0
 70
    11
 71
     3
 72
   116
 73
   112
 74
     0
 42
0.0000000001
 43
0.0000000001
 40
0.0
 40
0.0
 40
0.0
 40
0.0
 40
0.0357142857142857
 40
0.0357142857142857
 40
0.0357142857142857
 40
0.0357142857142857
 40
0.0714285714285714
 40
0.0714285714285714
 40
0.0714285714285714
 40
0.0714285714285714
 40
0.1071428571428571
 40
0.1071428571428571
 40
0.1071428571428571
 40
0.1071428571428571
 40
0.1428571428571428
 40
0.1428571428571428
 40
0.1428571428571428
 40
0.1428571428571428
 40
0.1785714285714285
 40
0.1785714285714285
 40
0.1785714285714285
 40
0.1785714285714285
 40
0.2142857142857142
 40
0.2142857142857142
 40
0.2142857142857142
 40
0.2142857142857142
 40
0.2499999999999999
 40
0.2499999999999999
 40
0.2499999999999999
 40
0.2499999999999999
 40
0.2857142857142856
 40
0.2857142857142856
 40
0.2857142857142856
 40
0.2857142857142856
 40
0.3214285714285713
 40
0.3214285714285713
 40
0.3214285714285713
 40
0.3214285714285713
 40
0.357142857142857
 40
0.357142857142857
 40
0.357142857142857
 40
0.357142857142857
 40
0.3928571428571427
 40
0.3928571428571427
 40
0.3928571428571427
 40
0.3928571428571427
 40
0.4285714285714284
 40
0.4285714285714284
 40
0.4285714285714284
 40
0.4285714285714284
 40
0.4642857142857141
 40
0.4642857142857141
 40
0.4642857142857141
 40
0.4642857142857141
 40
0.4999999999999998
 40
0.4999999999999998
 40
0.4999999999999998
 40
0.4999999999999998
 40
0.5357142857142856
 40
0.5357142857142856
 40
0.5357142857142856
 40
0.5357142857142856
 40
0.5714285714285713
 40
0.5714285714285713
 40
0.5714285714285713
 40
0.5714285714285713
 40
0.607142857142857
 40
0.607142857142857
 40
0.607142857142857
 40
0.607142857142857
 40
0.6428571428571427
 40
0.6428571428571427
 40
0.6428571428571427
 40
0.6428571428571427
 40
0.6785714285714284
 40
0.6785714285714284
 40
0.6785714285714284
 40
0.6785714285714284
 40
0.7142857142857141
 40
0.7142857142857141
 40
0.7142857142857141
 40
0.7142857142857141
 40
0.7499999999999998
 40
0.7499999999999998
 40
0.7499999999999998
 40
0.7499999999999998
 40
0.7857142857142855
 40
0.7857142857142855
 40
0.7857142857142855
 40
0.7857142857142855
 40
0.8214285714285712
 40
0.8214285714285712
 40
0.8214285714285712
 40
0.8214285714285712
 40
0.8571428571428569
 40
0.8571428571428569
 40
0.8571428571428569
 40
0.8571428571428569
 40
0.8928571428571426
 40
0.8928571428571426
 40
0.8928571428571426
 40
0.8928571428571426
 40
0.9285714285714283
 40
0.9285714285714283
 40
0.9285714285714283
 40
0.9285714285714283
 40
0.964285714285714
 40
0.964285714285714
 40
0.964285714285714
 40
0.964285714285714
 40
1.0
 40
1.0
 40
1.0
 40
1.0
 10
-10.74759
 20
-14.64564
 30
0.0
 10
-10.74759
 20
-14.64564
 30
0.0
 10
-10.74759
 20
-14.66739
 30
0.0
 10
-10.74759
 20
-14.66739
 30
0.0
 10
-10.74759
 20
-14.66739
 30
0.0
 10
-10.75324
 20
-14.66487
 30
0.0
 10
-10.75876
 20
-14.66297
 30
0.0
 10
-10.76412
 20
-14.66168
 30
0.0
 10
-10.76412
 20
-14.66168
 30
0.0
 10
-10.76951
 20
-14.66038
 30
0.0
 10
-10.77459
 20
-14.65975
 30
0.0
 10
-10.77936
 20
-14.65975
 30
0.0
 10
-10.77936
 20
-14.65975
 30
0.0
 10
-10.78569
 20
-14.65975
 30
0.0
 10
-10.79039
 20
-14.66062
 30
0.0
 10
-10.79343
 20
-14.66236
 30
0.0
 10
-10.79343
 20
-14.66236
 30
0.0
 10
-10.79646
 20
-14.66412
 30
0.0
 10
-10.79797
 20
-14.66683
 30
0.0
 10
-10.79797
 20
-14.6705
 30
0.0
 10
-10.79797
 20
-14.6705
 30
0.0
 10
-10.79797
 20
-14.67325
 30
0.0
 10
-10.79696
 20
-14.67541
 30
0.0
 10
-10.79491
 20
-14.67694
 30
0.0
 10
-10.79491
 20
-14.67694
 30
0.0
 10
-10.79286
 20
-14.67847
 30
0.0
 10
-10.78915
 20
-14.67981
 30
0.0
 10
-10.78376
 20
-14.68091
 30
0.0
 10
-10.78376
 20
-14.68091
 30
0.0
 10
-10.78376
 20
-14.68091
 30
0.0
 10
-10.77247
 20
-14.68317
 30
0.0
 10
-10.77247
 20
-14.68317
 30
0.0
 10
-10.77247
 20
-14.68317
 30
0.0
 10
-10.76102
 20
-14.68548
 30
0.0
 10
-10.75291
 20
-14.68896
 30
0.0
 10
-10.74809
 20
-14.69366
 30
0.0
 10
-10.74809
 20
-14.69366
 30
0.0
 10
-10.74326
 20
-14.69834
 30
0.0
 10
-10.74084
 20
-14.705
 30
0.0
 10
-10.74084
 20
-14.71363
 30
0.0
 10
-10.74084
 20
-14.71363
 30
0.0
 10
-10.74084
 20
-14.72499
 30
0.0
 10
-10.7442
 20
-14.73343
 30
0.0
 10
-10.75093
 20
-14.73896
 30
0.0
 10
-10.75093
 20
-14.73896
 30
0.0
 10
-10.75766
 20
-14.74448
 30
0.0
 10
-10.76793
 20
-14.74726
 30
0.0
 10
-10.78176
 20
-14.74726
 30
0.0
 10
-10.78176
 20
-14.74726
 30
0.0
 10
-10.7883
 20
-14.74726
 30
0.0
 10
-10.79484
 20
-14.74665
 30
0.0
 10
-10.8014
 20
-14.7454
 30
0.0
 10
-10.8014
 20
-14.7454
 30
0.0
 10
-10.80796
 20
-14.74415
 30
0.0
 10
-10.81455
 20
-14.74232
 30
0.0
 10
-10.82111
 20
-14.7399
 30
0.0
 10
-10.82111
 20
-14.7399
 30
0.0
 10
-10.82111
 20
-14.7399
 30
0.0
 10
-10.82111
 20
-14.71751
 30
0.0
 10
-10.82111
 20
-14.71751
 30
0.0
 10
-10.82111
 20
-14.71751
 30
0.0
 10
-10.81455
 20
-14.72099
 30
0.0
 10
-10.8082
 20
-14.72362
 30
0.0
 10
-10.80206
 20
-14.72539
 30
0.0
 10
-10.80206
 20
-14.72539
 30
0.0
 10
-10.79592
 20
-14.72715
 30
0.0
 10
-10.79002
 20
-14.72804
 30
0.0
 10
-10.78433
 20
-14.72804
 30
0.0
 10
-10.78433
 20
-14.72804
 30
0.0
 10
-10.77854
 20
-14.72804
 30
0.0
 10
-10.7741
 20
-14.72708
 30
0.0
 10
-10.77102
 20
-14.72515
 30
0.0
 10
-10.77102
 20
-14.72515
 30
0.0
 10
-10.76793
 20
-14.72322
 30
0.0
 10
-10.76641
 20
-14.72047
 30
0.0
 10
-10.76641
 20
-14.71687
 30
0.0
 10
-10.76641
 20
-14.71687
 30
0.0
 10
-10.76641
 20
-14.71367
 30
0.0
 10
-10.76744
 20
-14.71118
 30
0.0
 10
-10.76953
 20
-14.70944
 30
0.0
 10
-10.76953
 20
-14.70944
 30
0.0
 10
-10.77163
 20
-14.7077
 30
0.0
 10
-10.77579
 20
-14.70613
 30
0.0
 10
-10.78205
 20
-14.70476
 30
0.0
 10
-10.78205
 20
-14.70476
 30
0.0
 10
-10.78205
 20
-14.70476
 30
0.0
 10
-10.79232
 20
-14.70248
 30
0.0
 10
-10.79232
 20
-14.70248
 30
0.0
 10
-10.79232
 20
-14.70248
 30
0.0
 10
-10.8026
 20
-14.70027
 30
0.0
 10
-10.81013
 20
-14.69677
 30
0.0
 10
-10.81488
 20
-14.69194
 30
0.0
 10
-10.81488
 20
-14.69194
 30
0.0
 10
-10.81963
 20
-14.68712
 30
0.0
 10
-10.822
 20
-14.68061
 30
0.0
 10
-10.822
 20
-14.67245
 30
0.0
 10
-10.822
 20
-14.67245
 30
0.0
 10
-10.822
 20
-14.66219
 30
0.0
 10
-10.81869
 20
-14.65431
 30
0.0
 10
-10.81208
 20
-14.64881
 30
0.0
 10
-10.81208
 20
-14.64881
 30
0.0
 10
-10.80547
 20
-14.64328
 30
0.0
 10
-10.79597
 20
-14.64053
 30
0.0
 10
-10.78355
 20
-14.64053
 30
0.0
 10
-10.78355
 20
-14.64053
 30
0.0
 10
-10.77791
 20
-14.64053
 30
0.0
 10
-10.7721
 20
-14.64096
 30
0.0
 10
-10.76612
 20
-14.6418
 30
0.0
 10
-10.76612
 20
-14.6418
 30
0.0
 10
-10.76015
 20
-14.64265
 30
0.0
 10
-10.75397
 20
-14.64392
 30
0.0
 10
-10.74759
 20
-14.64564
 30
0.0
  0
SPLINE
  5
7A
330
1F
100
AcDbEntity
  8
Layer 1
 62
   250
100
AcDbSpline
210
0.0
220
0.0
230
1.0
 70
    11
 71
     3
 72
    20
 73
    16
 74
     0
 42
0.0000000001
 43
0.0000000001
 40
0.0
 40
0.0
 40
0.0
 40
0.0
 40
0.25
 40
0.25
 40
0.25
 40
0.25
 40
0.5
 40
0.5
 40
0.5
 40
0.5
 40
0.75
 40
0.75
 40
0.75
 40
0.75
 40
1.0
 40
1.0
 40
1.0
 40
1.0
 10
-10.71756
 20
-14.64239
 30
0.0
 10
-10.71756
 20
-14.64239
 30
0.0
 10
-10.69103
 20
-14.64239
 30
0.0
 10
-10.69103
 20
-14.64239
 30
0.0
 10
-10.69103
 20
-14.64239
 30
0.0
 10
-10.69103
 20
-14.64239
 30
0.0
 10
-10.69103
 20
-14.74526
 30
0.0
 10
-10.69103
 20
-14.74526
 30
0.0
 10
-10.69103
 20
-14.74526
 30
0.0
 10
-10.69103
 20
-14.74526
 30
0.0
 10
-10.71756
 20
-14.74526
 30
0.0
 10
-10.71756
 20
-14.74526
 30
0.0
 10
-10.71756
 20
-14.74526
 30
0.0
 10
-10.71756
 20
-14.74526
 30
0.0
 10
-10.71756
 20
-14.64239
 30
0.0
 10
-10.71756
 20
-14.64239
 30
0.0
  0
SPLINE
  5
7B
330
1F
100
AcDbEntity
  8
Layer 1
 62
   250
100
AcDbSpline
210
0.0
220
0.0
230
1.0
 70
    11
 71
     3
 72
   116
 73
   112
 74
     0
 42
0.0000000001
 43
0.0000000001
 40
0.0
 40
0.0
 40
0.0
 40
0.0
 40
0.0357142857142857
 40
0.0357142857142857
 40
0.0357142857142857
 40
0.0357142857142857
 40
0.0714285714285714
 40
0.0714285714285714
 40
0.0714285714285714
 40
0.0714285714285714
 40
0.1071428571428571
 40
0.1071428571428571
 40
0.1071428571428571
 40
0.1071428571428571
 40
0.1428571428571428
 40
0.1428571428571428
 40
0.1428571428571428
 40
0.1428571428571428
 40
0.1785714285714285
 40
0.1785714285714285
 40
0.1785714285714285
 40
0.1785714285714285
 40
0.2142857142857142
 40
0.2142857142857142
 40
0.2142857142857142
 40
0.2142857142857142
 40
0.2499999999999999
 40
0.2499999999999999
 40
0.2499999999999999
 40
0.2499999999999999
 40
0.2857142857142856
 40
0.2857142857142856
 40
0.2857142857142856
 40
0.2857142857142856
 40
0.3214285714285713
 40
0.3214285714285713
 40
0.3214285714285713
 40
0.3214285714285713
 40
0.357142857142857
 40
0.357142857142857
 40
0.357142857142857
 40
0.357142857142857
 40
0.3928571428571427
 40
0.3928571428571427
 40
0.3928571428571427
 40
0.3928571428571427
 40
0.4285714285714284
 40
0.4285714285714284
 40
0.4285714285714284
 40
0.4285714285714284
 40
0.4642857142857141
 40
0.4642857142857141
 40
0.4642857142857141
 40
0.4642857142857141
 40
0.4999999999999998
 40
0.4999999999999998
 40
0.4999999999999998
 40
0.4999999999999998
 40
0.5357142857142856
 40
0.5357142857142856
 40
0.5357142857142856
 40
0.5357142857142856
 40
0.5714285714285713
 40
0.5714285714285713
 40
0.5714285714285713
 40
0.5714285714285713
 40
0.607142857142857
 40
0.607142857142857
 40
0.607142857142857
 40
0.607142857142857
 40
0.6428571428571427
 40
0.6428571428571427
 40
0.6428571428571427
 40
0.6428571428571427
 40
0.6785714285714284
 40
0.6785714285714284
 40
0.6785714285714284
 40
0.6785714285714284
 40
0.7142857142857141
 40
0.7142857142857141
 40
0.7142857142857141
 40
0.7142857142857141
 40
0.7499999999999998
 40
0.7499999999999998
 40
0.7499999999999998
 40
0.7499999999999998
 40
0.7857142857142855
 40
0.7857142857142855
 40
0.7857142857142855
 40
0.7857142857142855
 40
0.8214285714285712
 40
0.8214285714285712
 40
0.8214285714285712
 40
0.8214285714285712
 40
0.8571428571428569
 40
0.8571428571428569
 40
0.8571428571428569
 40
0.8571428571428569
 40
0.8928571428571426
 40
0.8928571428571426
 40
0.8928571428571426
 40
0.8928571428571426
 40
0.9285714285714283
 40
0.9285714285714283
 40
0.9285714285714283
 40
0.9285714285714283
 40
0.964285714285714
 40
0.964285714285714
 40
0.964285714285714
 40
0.964285714285714
 40
1.0
 40
1.0
 40
1.0
 40
1.0
 10
-10.59348
 20
-14.64564
 30
0.0
 10
-10.59348
 20
-14.64564
 30
0.0
 10
-10.59348
 20
-14.66739
 30
0.0
 10
-10.59348
 20
-14.66739
 30
0.0
 10
-10.59348
 20
-14.66739
 30
0.0
 10
-10.59913
 20
-14.66487
 30
0.0
 10
-10.60465
 20
-14.66297
 30
0.0
 10
-10.61001
 20
-14.66168
 30
0.0
 10
-10.61001
 20
-14.66168
 30
0.0
 10
-10.6154
 20
-14.66038
 30
0.0
 10
-10.62048
 20
-14.65975
 30
0.0
 10
-10.62525
 20
-14.65975
 30
0.0
 10
-10.62525
 20
-14.65975
 30
0.0
 10
-10.63158
 20
-14.65975
 30
0.0
 10
-10.63628
 20
-14.66062
 30
0.0
 10
-10.63932
 20
-14.66236
 30
0.0
 10
-10.63932
 20
-14.66236
 30
0.0
 10
-10.64235
 20
-14.66412
 30
0.0
 10
-10.64386
 20
-14.66683
 30
0.0
 10
-10.64386
 20
-14.6705
 30
0.0
 10
-10.64386
 20
-14.6705
 30
0.0
 10
-10.64386
 20
-14.67325
 30
0.0
 10
-10.64285
 20
-14.67541
 30
0.0
 10
-10.6408
 20
-14.67694
 30
0.0
 10
-10.6408
 20
-14.67694
 30
0.0
 10
-10.63875
 20
-14.67847
 30
0.0
 10
-10.63504
 20
-14.67981
 30
0.0
 10
-10.62965
 20
-14.68091
 30
0.0
 10
-10.62965
 20
-14.68091
 30
0.0
 10
-10.62965
 20
-14.68091
 30
0.0
 10
-10.61836
 20
-14.68317
 30
0.0
 10
-10.61836
 20
-14.68317
 30
0.0
 10
-10.61836
 20
-14.68317
 30
0.0
 10
-10.60691
 20
-14.68548
 30
0.0
 10
-10.5988
 20
-14.68896
 30
0.0
 10
-10.59398
 20
-14.69366
 30
0.0
 10
-10.59398
 20
-14.69366
 30
0.0
 10
-10.58915
 20
-14.69834
 30
0.0
 10
-10.58673
 20
-14.705
 30
0.0
 10
-10.58673
 20
-14.71363
 30
0.0
 10
-10.58673
 20
-14.71363
 30
0.0
 10
-10.58673
 20
-14.72499
 30
0.0
 10
-10.59009
 20
-14.73343
 30
0.0
 10
-10.59682
 20
-14.73896
 30
0.0
 10
-10.59682
 20
-14.73896
 30
0.0
 10
-10.60355
 20
-14.74448
 30
0.0
 10
-10.61382
 20
-14.74726
 30
0.0
 10
-10.62765
 20
-14.74726
 30
0.0
 10
-10.62765
 20
-14.74726
 30
0.0
 10
-10.63419
 20
-14.74726
 30
0.0
 10
-10.64073
 20
-14.74665
 30
0.0
 10
-10.64729
 20
-14.7454
 30
0.0
 10
-10.64729
 20
-14.7454
 30
0.0
 10
-10.65385
 20
-14.74415
 30
0.0
 10
-10.66044
 20
-14.74232
 30
0.0
 10
-10.667
 20
-14.7399
 30
0.0
 10
-10.667
 20
-14.7399
 30
0.0
 10
-10.667
 20
-14.7399
 30
0.0
 10
-10.667
 20
-14.71751
 30
0.0
 10
-10.667
 20
-14.71751
 30
0.0
 10
-10.667
 20
-14.71751
 30
0.0
 10
-10.66044
 20
-14.72099
 30
0.0
 10
-10.65409
 20
-14.72362
 30
0.0
 10
-10.64795
 20
-14.72539
 30
0.0
 10
-10.64795
 20
-14.72539
 30
0.0
 10
-10.64181
 20
-14.72715
 30
0.0
 10
-10.63591
 20
-14.72804
 30
0.0
 10
-10.63022
 20
-14.72804
 30
0.0
 10
-10.63022
 20
-14.72804
 30
0.0
 10
-10.62443
 20
-14.72804
 30
0.0
 10
-10.61999
 20
-14.72708
 30
0.0
 10
-10.61691
 20
-14.72515
 30
0.0
 10
-10.61691
 20
-14.72515
 30
0.0
 10
-10.61382
 20
-14.72322
 30
0.0
 10
-10.6123
 20
-14.72047
 30
0.0
 10
-10.6123
 20
-14.71687
 30
0.0
 10
-10.6123
 20
-14.71687
 30
0.0
 10
-10.6123
 20
-14.71367
 30
0.0
 10
-10.61333
 20
-14.71118
 30
0.0
 10
-10.61542
 20
-14.70944
 30
0.0
 10
-10.61542
 20
-14.70944
 30
0.0
 10
-10.61752
 20
-14.7077
 30
0.0
 10
-10.62168
 20
-14.70613
 30
0.0
 10
-10.62794
 20
-14.70476
 30
0.0
 10
-10.62794
 20
-14.70476
 30
0.0
 10
-10.62794
 20
-14.70476
 30
0.0
 10
-10.63821
 20
-14.70248
 30
0.0
 10
-10.63821
 20
-14.70248
 30
0.0
 10
-10.63821
 20
-14.70248
 30
0.0
 10
-10.64849
 20
-14.70027
 30
0.0
 10
-10.65602
 20
-14.69677
 30
0.0
 10
-10.66077
 20
-14.69194
 30
0.0
 10
-10.66077
 20
-14.69194
 30
0.0
 10
-10.66552
 20
-14.68712
 30
0.0
 10
-10.66789
 20
-14.68061
 30
0.0
 10
-10.66789
 20
-14.67245
 30
0.0
 10
-10.66789
 20
-14.67245
 30
0.0
 10
-10.66789
 20
-14.66219
 30
0.0
 10
-10.66458
 20
-14.65431
 30
0.0
 10
-10.65797
 20
-14.64881
 30
0.0
 10
-10.65797
 20
-14.64881
 30
0.0
 10
-10.65136
 20
-14.64328
 30
0.0
 10
-10.64186
 20
-14.64053
 30
0.0
 10
-10.62944
 20
-14.64053
 30
0.0
 10
-10.62944
 20
-14.64053
 30
0.0
 10
-10.6238
 20
-14.64053
 30
0.0
 10
-10.61799
 20
-14.64096
 30
0.0
 10
-10.61201
 20
-14.6418
 30
0.0
 10
-10.61201
 20
-14.6418
 30
0.0
 10
-10.60604
 20
-14.64265
 30
0.0
 10
-10.59986
 20
-14.64392
 30
0.0
 10
-10.59348
 20
-14.64564
 30
0.0
  0
SPLINE
  5
7C
330
1F
100
AcDbEntity
  8
Layer 1
 62
   250
100
AcDbSpline
210
0.0
220
0.0
230
1.0
 70
    11
 71
     3
 72
    36
 73
    32
 74
     0
 42
0.0000000001
 43
0.0000000001
 40
0.0
 40
0.0
 40
0.0
 40
0.0
 40
0.125
 40
0.125
 40
0.125
 40
0.125
 40
0.25
 40
0.25
 40
0.25
 40
0.25
 40
0.375
 40
0.375
 40
0.375
 40
0.375
 40
0.5
 40
0.5
 40
0.5
 40
0.5
 40
0.625
 40
0.625
 40
0.625
 40
0.625
 40
0.75
 40
0.75
 40
0.75
 40
0.75
 40
0.875
 40
0.875
 40
0.875
 40
0.875
 40
1.0
 40
1.0
 40
1.0
 40
1.0
 10
-10.57573
 20
-14.64239
 30
0.0
 10
-10.57573
 20
-14.64239
 30
0.0
 10
-10.48093
 20
-14.64239
 30
0.0
 10
-10.48093
 20
-14.64239
 30
0.0
 10
-10.48093
 20
-14.64239
 30
0.0
 10
-10.48093
 20
-14.64239
 30
0.0
 10
-10.48093
 20
-14.66245
 30
0.0
 10
-10.48093
 20
-14.66245
 30
0.0
 10
-10.48093
 20
-14.66245
 30
0.0
 10
-10.48093
 20
-14.66245
 30
0.0
 10
-10.51503
 20
-14.66245
 30
0.0
 10
-10.51503
 20
-14.66245
 30
0.0
 10
-10.51503
 20
-14.66245
 30
0.0
 10
-10.51503
 20
-14.66245
 30
0.0
 10
-10.51503
 20
-14.74526
 30
0.0
 10
-10.51503
 20
-14.74526
 30
0.0
 10
-10.51503
 20
-14.74526
 30
0.0
 10
-10.51503
 20
-14.74526
 30
0.0
 10
-10.54156
 20
-14.74526
 30
0.0
 10
-10.54156
 20
-14.74526
 30
0.0
 10
-10.54156
 20
-14.74526
 30
0.0
 10
-10.54156
 20
-14.74526
 30
0.0
 10
-10.54156
 20
-14.66245
 30
0.0
 10
-10.54156
 20
-14.66245
 30
0.0
 10
-10.54156
 20
-14.66245
 30
0.0
 10
-10.54156
 20
-14.66245
 30
0.0
 10
-10.57573
 20
-14.66245
 30
0.0
 10
-10.57573
 20
-14.66245
 30
0.0
 10
-10.57573
 20
-14.66245
 30
0.0
 10
-10.57573
 20
-14.66245
 30
0.0
 10
-10.57573
 20
-14.64239
 30
0.0
 10
-10.57573
 20
-14.64239
 30
0.0
  0
SPLINE
  5
7D
330
1F
100
AcDbEntity
  8
Layer 1
 62
   250
100
AcDbSpline
210
0.0
220
0.0
230
1.0
 70
    11
 71
     3
 72
    36
 73
    32
 74
     0
 42
0.0000000001
 43
0.0000000001
 40
0.0
 40
0.0
 40
0.0
 40
0.0
 40
0.125
 40
0.125
 40
0.125
 40
0.125
 40
0.25
 40
0.25
 40
0.25
 40
0.25
 40
0.375
 40
0.375
 40
0.375
 40
0.375
 40
0.5
 40
0.5
 40
0.5
 40
0.5
 40
0.625
 40
0.625
 40
0.625
 40
0.625
 40
0.75
 40
0.75
 40
0.75
 40
0.75
 40
0.875
 40
0.875
 40
0.875
 40
0.875
 40
1.0
 40
1.0
 40
1.0
 40
1.0
 10
-10.4202
 20
-14.65975
 30
0.0
 10
-10.42829
 20
-14.65975
 30
0.0
 10
-10.43455
 20
-14.66273
 30
0.0
 10
-10.43902
 20
-14.66871
 30
0.0
 10
-10.43902
 20
-14.66871
 30
0.0
 10
-10.44346
 20
-14.67468
 30
0.0
 10
-10.4457
 20
-14.68308
 30
0.0
 10
-10.4457
 20
-14.69392
 30
0.0
 10
-10.4457
 20
-14.69392
 30
0.0
 10
-10.4457
 20
-14.70474
 30
0.0
 10
-10.44346
 20
-14.71311
 30
0.0
 10
-10.43902
 20
-14.71908
 30
0.0
 10
-10.43902
 20
-14.71908
 30
0.0
 10
-10.43455
 20
-14.72506
 30
0.0
 10
-10.42829
 20
-14.72804
 30
0.0
 10
-10.4202
 20
-14.72804
 30
0.0
 10
-10.4202
 20
-14.72804
 30
0.0
 10
-10.41206
 20
-14.72804
 30
0.0
 10
-10.40579
 20
-14.72506
 30
0.0
 10
-10.40132
 20
-14.71908
 30
0.0
 10
-10.40132
 20
-14.71908
 30
0.0
 10
-10.39687
 20
-14.71311
 30
0.0
 10
-10.39464
 20
-14.70474
 30
0.0
 10
-10.39464
 20
-14.69392
 30
0.0
 10
-10.39464
 20
-14.69392
 30
0.0
 10
-10.39464
 20
-14.68308
 30
0.0
 10
-10.39687
 20
-14.67468
 30
0.0
 10
-10.40132
 20
-14.66871
 30
0.0
 10
-10.40132
 20
-14.66871
 30
0.0
 10
-10.40579
 20
-14.66273
 30
0.0
 10
-10.41206
 20
-14.65975
 30
0.0
 10
-10.4202
 20
-14.65975
 30
0.0
  0
SPLINE
  5
7E
330
1F
100
AcDbEntity
  8
Layer 1
 62
   250
100
AcDbSpline
210
0.0
220
0.0
230
1.0
 70
    11
 71
     3
 72
    36
 73
    32
 74
     0
 42
0.0000000001
 43
0.0000000001
 40
0.0
 40
0.0
 40
0.0
 40
0.0
 40
0.125
 40
0.125
 40
0.125
 40
0.125
 40
0.25
 40
0.25
 40
0.25
 40
0.25
 40
0.375
 40
0.375
 40
0.375
 40
0.375
 40
0.5
 40
0.5
 40
0.5
 40
0.5
 40
0.625
 40
0.625
 40
0.625
 40
0.625
 40
0.75
 40
0.75
 40
0.75
 40
0.75
 40
0.875
 40
0.875
 40
0.875
 40
0.875
 40
1.0
 40
1.0
 40
1.0
 40
1.0
 10
-10.4202
 20
-14.64053
 30
0.0
 10
-10.40367
 20
-14.64053
 30
0.0
 10
-10.39071
 20
-14.64526
 30
0.0
 10
-10.38135
 20
-14.65474
 30
0.0
 10
-10.38135
 20
-14.65474
 30
0.0
 10
-10.37197
 20
-14.66419
 30
0.0
 10
-10.36729
 20
-14.67724
 30
0.0
 10
-10.36729
 20
-14.69392
 30
0.0
 10
-10.36729
 20
-14.69392
 30
0.0
 10
-10.36729
 20
-14.71055
 30
0.0
 10
-10.37197
 20
-14.7236
 30
0.0
 10
-10.38135
 20
-14.73305
 30
0.0
 10
-10.38135
 20
-14.73305
 30
0.0
 10
-10.39071
 20
-14.74253
 30
0.0
 10
-10.40367
 20
-14.74726
 30
0.0
 10
-10.4202
 20
-14.74726
 30
0.0
 10
-10.4202
 20
-14.74726
 30
0.0
 10
-10.43669
 20
-14.74726
 30
0.0
 10
-10.44962
 20
-14.74253
 30
0.0
 10
-10.45903
 20
-14.73305
 30
0.0
 10
-10.45903
 20
-14.73305
 30
0.0
 10
-10.46841
 20
-14.7236
 30
0.0
 10
-10.47312
 20
-14.71055
 30
0.0
 10
-10.47312
 20
-14.69392
 30
0.0
 10
-10.47312
 20
-14.69392
 30
0.0
 10
-10.47312
 20
-14.67724
 30
0.0
 10
-10.46841
 20
-14.66419
 30
0.0
 10
-10.45903
 20
-14.65474
 30
0.0
 10
-10.45903
 20
-14.65474
 30
0.0
 10
-10.44962
 20
-14.64526
 30
0.0
 10
-10.43669
 20
-14.64053
 30
0.0
 10
-10.4202
 20
-14.64053
 30
0.0
  0
SPLINE
  5
7F
330
1F
100
AcDbEntity
  8
Layer 1
 62
   250
100
AcDbSpline
210
0.0
220
0.0
230
1.0
 70
    11
 71
     3
 72
    32
 73
    28
 74
     0
 42
0.0000000001
 43
0.0000000001
 40
0.0
 40
0.0
 40
0.0
 40
0.0
 40
0.1428571428571428
 40
0.1428571428571428
 40
0.1428571428571428
 40
0.1428571428571428
 40
0.2857142857142857
 40
0.2857142857142857
 40
0.2857142857142857
 40
0.2857142857142857
 40
0.4285714285714285
 40
0.4285714285714285
 40
0.4285714285714285
 40
0.4285714285714285
 40
0.5714285714285714
 40
0.5714285714285714
 40
0.5714285714285714
 40
0.5714285714285714
 40
0.7142857142857142
 40
0.7142857142857142
 40
0.7142857142857142
 40
0.7142857142857142
 40
0.857142857142857
 40
0.857142857142857
 40
0.857142857142857
 40
0.857142857142857
 40
1.0
 40
1.0
 40
1.0
 40
1.0
 10
-10.30952
 20
-14.68802
 30
0.0
 10
-10.30397
 20
-14.68802
 30
0.0
 10
-10.29997
 20
-14.68698
 30
0.0
 10
-10.29757
 20
-14.68491
 30
0.0
 10
-10.29757
 20
-14.68491
 30
0.0
 10
-10.29515
 20
-14.68284
 30
0.0
 10
-10.29395
 20
-14.67943
 30
0.0
 10
-10.29395
 20
-14.6747
 30
0.0
 10
-10.29395
 20
-14.6747
 30
0.0
 10
-10.29395
 20
-14.67002
 30
0.0
 10
-10.29515
 20
-14.66666
 30
0.0
 10
-10.29757
 20
-14.66464
 30
0.0
 10
-10.29757
 20
-14.66464
 30
0.0
 10
-10.29997
 20
-14.66262
 30
0.0
 10
-10.30397
 20
-14.66161
 30
0.0
 10
-10.30952
 20
-14.66161
 30
0.0
 10
-10.30952
 20
-14.66161
 30
0.0
 10
-10.30952
 20
-14.66161
 30
0.0
 10
-10.32069
 20
-14.66161
 30
0.0
 10
-10.32069
 20
-14.66161
 30
0.0
 10
-10.32069
 20
-14.66161
 30
0.0
 10
-10.32069
 20
-14.66161
 30
0.0
 10
-10.32069
 20
-14.68802
 30
0.0
 10
-10.32069
 20
-14.68802
 30
0.0
 10
-10.32069
 20
-14.68802
 30
0.0
 10
-10.32069
 20
-14.68802
 30
0.0
 10
-10.30952
 20
-14.68802
 30
0.0
 10
-10.30952
 20
-14.68802
 30
0.0
  0
SPLINE
  5
80
330
1F
100
AcDbEntity
  8
Layer 1
 62
   250
100
AcDbSpline
210
0.0
220
0.0
230
1.0
 70
    11
 71
     3
 72
    68
 73
    64
 74
     0
 42
0.0000000001
 43
0.0000000001
 40
0.0
 40
0.0
 40
0.0
 40
0.0
 40
0.0625
 40
0.0625
 40
0.0625
 40
0.0625
 40
0.125
 40
0.125
 40
0.125
 40
0.125
 40
0.1875
 40
0.1875
 40
0.1875
 40
0.1875
 40
0.25
 40
0.25
 40
0.25
 40
0.25
 40
0.3125
 40
0.3125
 40
0.3125
 40
0.3125
 40
0.375
 40
0.375
 40
0.375
 40
0.375
 40
0.4375
 40
0.4375
 40
0.4375
 40
0.4375
 40
0.5
 40
0.5
 40
0.5
 40
0.5
 40
0.5625
 40
0.5625
 40
0.5625
 40
0.5625
 40
0.625
 40
0.625
 40
0.625
 40
0.625
 40
0.6875
 40
0.6875
 40
0.6875
 40
0.6875
 40
0.75
 40
0.75
 40
0.75
 40
0.75
 40
0.8125
 40
0.8125
 40
0.8125
 40
0.8125
 40
0.875
 40
0.875
 40
0.875
 40
0.875
 40
0.9375
 40
0.9375
 40
0.9375
 40
0.9375
 40
1.0
 40
1.0
 40
1.0
 40
1.0
 10
-10.32069
 20
-14.70634
 30
0.0
 10
-10.32069
 20
-14.70634
 30
0.0
 10
-10.32069
 20
-14.74526
 30
0.0
 10
-10.32069
 20
-14.74526
 30
0.0
 10
-10.32069
 20
-14.74526
 30
0.0
 10
-10.32069
 20
-14.74526
 30
0.0
 10
-10.34722
 20
-14.74526
 30
0.0
 10
-10.34722
 20
-14.74526
 30
0.0
 10
-10.34722
 20
-14.74526
 30
0.0
 10
-10.34722
 20
-14.74526
 30
0.0
 10
-10.34722
 20
-14.64239
 30
0.0
 10
-10.34722
 20
-14.64239
 30
0.0
 10
-10.34722
 20
-14.64239
 30
0.0
 10
-10.34722
 20
-14.64239
 30
0.0
 10
-10.3067
 20
-14.64239
 30
0.0
 10
-10.3067
 20
-14.64239
 30
0.0
 10
-10.3067
 20
-14.64239
 30
0.0
 10
-10.29315
 20
-14.64239
 30
0.0
 10
-10.2832
 20
-14.64467
 30
0.0
 10
-10.2769
 20
-14.64921
 30
0.0
 10
-10.2769
 20
-14.64921
 30
0.0
 10
-10.27058
 20
-14.65375
 30
0.0
 10
-10.26742
 20
-14.66095
 30
0.0
 10
-10.26742
 20
-14.67078
 30
0.0
 10
-10.26742
 20
-14.67078
 30
0.0
 10
-10.26742
 20
-14.67757
 30
0.0
 10
-10.26907
 20
-14.68317
 30
0.0
 10
-10.27234
 20
-14.68752
 30
0.0
 10
-10.27234
 20
-14.68752
 30
0.0
 10
-10.27563
 20
-14.6919
 30
0.0
 10
-10.28059
 20
-14.69512
 30
0.0
 10
-10.2872
 20
-14.69717
 30
0.0
 10
-10.2872
 20
-14.69717
 30
0.0
 10
-10.28358
 20
-14.69801
 30
0.0
 10
-10.28031
 20
-14.69987
 30
0.0
 10
-10.27744
 20
-14.70279
 30
0.0
 10
-10.27744
 20
-14.70279
 30
0.0
 10
-10.27457
 20
-14.7057
 30
0.0
 10
-10.27168
 20
-14.71012
 30
0.0
 10
-10.26874
 20
-14.71605
 30
0.0
 10
-10.26874
 20
-14.71605
 30
0.0
 10
-10.26874
 20
-14.71605
 30
0.0
 10
-10.25432
 20
-14.74526
 30
0.0
 10
-10.25432
 20
-14.74526
 30
0.0
 10
-10.25432
 20
-14.74526
 30
0.0
 10
-10.25432
 20
-14.74526
 30
0.0
 10
-10.28259
 20
-14.74526
 30
0.0
 10
-10.28259
 20
-14.74526
 30
0.0
 10
-10.28259
 20
-14.74526
 30
0.0
 10
-10.28259
 20
-14.74526
 30
0.0
 10
-10.29513
 20
-14.7197
 30
0.0
 10
-10.29513
 20
-14.7197
 30
0.0
 10
-10.29513
 20
-14.7197
 30
0.0
 10
-10.29764
 20
-14.71457
 30
0.0
 10
-10.30021
 20
-14.71104
 30
0.0
 10
-10.30282
 20
-14.70916
 30
0.0
 10
-10.30282
 20
-14.70916
 30
0.0
 10
-10.30541
 20
-14.70728
 30
0.0
 10
-10.30886
 20
-14.70634
 30
0.0
 10
-10.31319
 20
-14.70634
 30
0.0
 10
-10.31319
 20
-14.70634
 30
0.0
 10
-10.31319
 20
-14.70634
 30
0.0
 10
-10.32069
 20
-14.70634
 30
0.0
 10
-10.32069
 20
-14.70634
 30
0.0
  0
SPLINE
  5
81
330
1F
100
AcDbEntity
  8
Layer 1
 62
   250
100
AcDbSpline
210
0.0
220
0.0
230
1.0
 70
    11
 71
     3
 72
    48
 73
    44
 74
     0
 42
0.0000000001
 43
0.0000000001
 40
0.0
 40
0.0
 40
0.0
 40
0.0
 40
0.0909090909090909
 40
0.0909090909090909
 40
0.0909090909090909
 40
0.0909090909090909
 40
0.1818181818181818
 40
0.1818181818181818
 40
0.1818181818181818
 40
0.1818181818181818
 40
0.2727272727272727
 40
0.2727272727272727
 40
0.2727272727272727
 40
0.2727272727272727
 40
0.3636363636363636
 40
0.3636363636363636
 40
0.3636363636363636
 40
0.3636363636363636
 40
0.4545454545454546
 40
0.4545454545454546
 40
0.4545454545454546
 40
0.4545454545454546
 40
0.5454545454545455
 40
0.5454545454545455
 40
0.5454545454545455
 40
0.5454545454545455
 40
0.6363636363636365
 40
0.6363636363636365
 40
0.6363636363636365
 40
0.6363636363636365
 40
0.7272727272727274
 40
0.7272727272727274
 40
0.7272727272727274
 40
0.7272727272727274
 40
0.8181818181818183
 40
0.8181818181818183
 40
0.8181818181818183
 40
0.8181818181818183
 40
0.9090909090909093
 40
0.9090909090909093
 40
0.9090909090909093
 40
0.9090909090909093
 40
1.0
 40
1.0
 40
1.0
 40
1.0
 10
-10.18587
 20
-14.72694
 30
0.0
 10
-10.18587
 20
-14.72694
 30
0.0
 10
-10.16244
 20
-14.72694
 30
0.0
 10
-10.16244
 20
-14.72694
 30
0.0
 10
-10.16244
 20
-14.72694
 30
0.0
 10
-10.16244
 20
-14.72694
 30
0.0
 10
-10.16244
 20
-14.66045
 30
0.0
 10
-10.16244
 20
-14.66045
 30
0.0
 10
-10.16244
 20
-14.66045
 30
0.0
 10
-10.16244
 20
-14.66045
 30
0.0
 10
-10.18648
 20
-14.66542
 30
0.0
 10
-10.18648
 20
-14.66542
 30
0.0
 10
-10.18648
 20
-14.66542
 30
0.0
 10
-10.18648
 20
-14.66542
 30
0.0
 10
-10.18648
 20
-14.64735
 30
0.0
 10
-10.18648
 20
-14.64735
 30
0.0
 10
-10.18648
 20
-14.64735
 30
0.0
 10
-10.18648
 20
-14.64735
 30
0.0
 10
-10.16258
 20
-14.64239
 30
0.0
 10
-10.16258
 20
-14.64239
 30
0.0
 10
-10.16258
 20
-14.64239
 30
0.0
 10
-10.16258
 20
-14.64239
 30
0.0
 10
-10.13737
 20
-14.64239
 30
0.0
 10
-10.13737
 20
-14.64239
 30
0.0
 10
-10.13737
 20
-14.64239
 30
0.0
 10
-10.13737
 20
-14.64239
 30
0.0
 10
-10.13737
 20
-14.72694
 30
0.0
 10
-10.13737
 20
-14.72694
 30
0.0
 10
-10.13737
 20
-14.72694
 30
0.0
 10
-10.13737
 20
-14.72694
 30
0.0
 10
-10.11395
 20
-14.72694
 30
0.0
 10
-10.11395
 20
-14.72694
 30
0.0
 10
-10.11395
 20
-14.72694
 30
0.0
 10
-10.11395
 20
-14.72694
 30
0.0
 10
-10.11395
 20
-14.74526
 30
0.0
 10
-10.11395
 20
-14.74526
 30
0.0
 10
-10.11395
 20
-14.74526
 30
0.0
 10
-10.11395
 20
-14.74526
 30
0.0
 10
-10.18587
 20
-14.74526
 30
0.0
 10
-10.18587
 20
-14.74526
 30
0.0
 10
-10.18587
 20
-14.74526
 30
0.0
 10
-10.18587
 20
-14.74526
 30
0.0
 10
-10.18587
 20
-14.72694
 30
0.0
 10
-10.18587
 20
-14.72694
 30
0.0
  0
SPLINE
  5
82
330
1F
100
AcDbEntity
  8
Layer 1
 62
   250
100
AcDbSpline
210
0.0
220
0.0
230
1.0
 70
    11
 71
     3
 72
    36
 73
    32
 74
     0
 42
0.0000000001
 43
0.0000000001
 40
0.0
 40
0.0
 40
0.0
 40
0.0
 40
0.125
 40
0.125
 40
0.125
 40
0.125
 40
0.25
 40
0.25
 40
0.25
 40
0.25
 40
0.375
 40
0.375
 40
0.375
 40
0.375
 40
0.5
 40
0.5
 40
0.5
 40
0.5
 40
0.625
 40
0.625
 40
0.625
 40
0.625
 40
0.75
 40
0.75
 40
0.75
 40
0.75
 40
0.875
 40
0.875
 40
0.875
 40
0.875
 40
1.0
 40
1.0
 40
1.0
 40
1.0
 10
-9.99487
 20
-14.70281
 30
0.0
 10
-9.99814
 20
-14.70281
 30
0.0
 10
-10.00066
 20
-14.70422
 30
0.0
 10
-10.00247
 20
-14.70704
 30
0.0
 10
-10.00247
 20
-14.70704
 30
0.0
 10
-10.00426
 20
-14.70986
 30
0.0
 10
-10.00515
 20
-14.71391
 30
0.0
 10
-10.00515
 20
-14.71915
 30
0.0
 10
-10.00515
 20
-14.71915
 30
0.0
 10
-10.00515
 20
-14.72442
 30
0.0
 10
-10.00426
 20
-14.72849
 30
0.0
 10
-10.00249
 20
-14.73131
 30
0.0
 10
-10.00249
 20
-14.73131
 30
0.0
 10
-10.00073
 20
-14.73414
 30
0.0
 10
-9.99819
 20
-14.73555
 30
0.0
 10
-9.99487
 20
-14.73555
 30
0.0
 10
-9.99487
 20
-14.73555
 30
0.0
 10
-9.99156
 20
-14.73555
 30
0.0
 10
-9.98904
 20
-14.73414
 30
0.0
 10
-9.98728
 20
-14.73131
 30
0.0
 10
-9.98728
 20
-14.73131
 30
0.0
 10
-9.98554
 20
-14.72849
 30
0.0
 10
-9.98467
 20
-14.72442
 30
0.0
 10
-9.98467
 20
-14.71915
 30
0.0
 10
-9.98467
 20
-14.71915
 30
0.0
 10
-9.98467
 20
-14.71391
 30
0.0
 10
-9.98556
 20
-14.70986
 30
0.0
 10
-9.98732
 20
-14.70704
 30
0.0
 10
-9.98732
 20
-14.70704
 30
0.0
 10
-9.98909
 20
-14.70422
 30
0.0
 10
-9.9916
 20
-14.70281
 30
0.0
 10
-9.99487
 20
-14.70281
 30
0.0
  0
SPLINE
  5
83
330
1F
100
AcDbEntity
  8
Layer 1
 62
   250
100
AcDbSpline
210
0.0
220
0.0
230
1.0
 70
    11
 71
     3
 72
    36
 73
    32
 74
     0
 42
0.0000000001
 43
0.0000000001
 40
0.0
 40
0.0
 40
0.0
 40
0.0
 40
0.125
 40
0.125
 40
0.125
 40
0.125
 40
0.25
 40
0.25
 40
0.25
 40
0.25
 40
0.375
 40
0.375
 40
0.375
 40
0.375
 40
0.5
 40
0.5
 40
0.5
 40
0.5
 40
0.625
 40
0.625
 40
0.625
 40
0.625
 40
0.75
 40
0.75
 40
0.75
 40
0.75
 40
0.875
 40
0.875
 40
0.875
 40
0.875
 40
1.0
 40
1.0
 40
1.0
 40
1.0
 10
-9.99487
 20
-14.69124
 30
0.0
 10
-9.98634
 20
-14.69124
 30
0.0
 10
-9.97961
 20
-14.69371
 30
0.0
 10
-9.97469
 20
-14.69867
 30
0.0
 10
-9.97469
 20
-14.69867
 30
0.0
 10
-9.96978
 20
-14.70363
 30
0.0
 10
-9.96731
 20
-14.71045
 30
0.0
 10
-9.96731
 20
-14.71915
 30
0.0
 10
-9.96731
 20
-14.71915
 30
0.0
 10
-9.96731
 20
-14.72783
 30
0.0
 10
-9.96978
 20
-14.73468
 30
0.0
 10
-9.97469
 20
-14.73971
 30
0.0
 10
-9.97469
 20
-14.73971
 30
0.0
 10
-9.97961
 20
-14.74474
 30
0.0
 10
-9.98634
 20
-14.74726
 30
0.0
 10
-9.99487
 20
-14.74726
 30
0.0
 10
-9.99487
 20
-14.74726
 30
0.0
 10
-10.00341
 20
-14.74726
 30
0.0
 10
-10.01016
 20
-14.74474
 30
0.0
 10
-10.0151
 20
-14.73971
 30
0.0
 10
-10.0151
 20
-14.73971
 30
0.0
 10
-10.02004
 20
-14.73468
 30
0.0
 10
-10.02251
 20
-14.72783
 30
0.0
 10
-10.02251
 20
-14.71915
 30
0.0
 10
-10.02251
 20
-14.71915
 30
0.0
 10
-10.02251
 20
-14.7105
 30
0.0
 10
-10.02004
 20
-14.7037
 30
0.0
 10
-10.0151
 20
-14.69872
 30
0.0
 10
-10.0151
 20
-14.69872
 30
0.0
 10
-10.01016
 20
-14.69373
 30
0.0
 10
-10.00341
 20
-14.69124
 30
0.0
 10
-9.99487
 20
-14.69124
 30
0.0
  0
SPLINE
  5
84
330
1F
100
AcDbEntity
  8
Layer 1
 62
   250
100
AcDbSpline
210
0.0
220
0.0
230
1.0
 70
    11
 71
     3
 72
    20
 73
    16
 74
     0
 42
0.0000000001
 43
0.0000000001
 40
0.0
 40
0.0
 40
0.0
 40
0.0
 40
0.25
 40
0.25
 40
0.25
 40
0.25
 40
0.5
 40
0.5
 40
0.5
 40
0.5
 40
0.75
 40
0.75
 40
0.75
 40
0.75
 40
1.0
 40
1.0
 40
1.0
 40
1.0
 10
-10.05804
 20
-14.74726
 30
0.0
 10
-10.05804
 20
-14.74726
 30
0.0
 10
-10.07326
 20
-14.74726
 30
0.0
 10
-10.07326
 20
-14.74726
 30
0.0
 10
-10.07326
 20
-14.74726
 30
0.0
 10
-10.07326
 20
-14.74726
 30
0.0
 10
-10.00898
 20
-14.64053
 30
0.0
 10
-10.00898
 20
-14.64053
 30
0.0
 10
-10.00898
 20
-14.64053
 30
0.0
 10
-10.00898
 20
-14.64053
 30
0.0
 10
-9.9937
 20
-14.64053
 30
0.0
 10
-9.9937
 20
-14.64053
 30
0.0
 10
-9.9937
 20
-14.64053
 30
0.0
 10
-9.9937
 20
-14.64053
 30
0.0
 10
-10.05804
 20
-14.74726
 30
0.0
 10
-10.05804
 20
-14.74726
 30
0.0
  0
SPLINE
  5
85
330
1F
100
AcDbEntity
  8
Layer 1
 62
   250
100
AcDbSpline
210
0.0
220
0.0
230
1.0
 70
    11
 71
     3
 72
    36
 73
    32
 74
     0
 42
0.0000000001
 43
0.0000000001
 40
0.0
 40
0.0
 40
0.0
 40
0.0
 40
0.125
 40
0.125
 40
0.125
 40
0.125
 40
0.25
 40
0.25
 40
0.25
 40
0.25
 40
0.375
 40
0.375
 40
0.375
 40
0.375
 40
0.5
 40
0.5
 40
0.5
 40
0.5
 40
0.625
 40
0.625
 40
0.625
 40
0.625
 40
0.75
 40
0.75
 40
0.75
 40
0.75
 40
0.875
 40
0.875
 40
0.875
 40
0.875
 40
1.0
 40
1.0
 40
1.0
 40
1.0
 10
-10.07218
 20
-14.64053
 30
0.0
 10
-10.06364
 20
-14.64053
 30
0.0
 10
-10.05691
 20
-14.64303
 30
0.0
 10
-10.05202
 20
-14.64801
 30
0.0
 10
-10.05202
 20
-14.64801
 30
0.0
 10
-10.04713
 20
-14.653
 30
0.0
 10
-10.04469
 20
-14.65982
 30
0.0
 10
-10.04469
 20
-14.66852
 30
0.0
 10
-10.04469
 20
-14.66852
 30
0.0
 10
-10.04469
 20
-14.6772
 30
0.0
 10
-10.04713
 20
-14.68404
 30
0.0
 10
-10.05202
 20
-14.68905
 30
0.0
 10
-10.05202
 20
-14.68905
 30
0.0
 10
-10.05691
 20
-14.69406
 30
0.0
 10
-10.06364
 20
-14.69655
 30
0.0
 10
-10.07218
 20
-14.69655
 30
0.0
 10
-10.07218
 20
-14.69655
 30
0.0
 10
-10.08072
 20
-14.69655
 30
0.0
 10
-10.08744
 20
-14.69406
 30
0.0
 10
-10.09233
 20
-14.68905
 30
0.0
 10
-10.09233
 20
-14.68905
 30
0.0
 10
-10.09723
 20
-14.68404
 30
0.0
 10
-10.09967
 20
-14.6772
 30
0.0
 10
-10.09967
 20
-14.66852
 30
0.0
 10
-10.09967
 20
-14.66852
 30
0.0
 10
-10.09967
 20
-14.65982
 30
0.0
 10
-10.09723
 20
-14.653
 30
0.0
 10
-10.09233
 20
-14.64801
 30
0.0
 10
-10.09233
 20
-14.64801
 30
0.0
 10
-10.08744
 20
-14.64303
 30
0.0
 10
-10.08072
 20
-14.64053
 30
0.0
 10
-10.07218
 20
-14.64053
 30
0.0
  0
SPLINE
  5
86
330
1F
100
AcDbEntity
  8
Layer 1
 62
   250
100
AcDbSpline
210
0.0
220
0.0
230
1.0
 70
    11
 71
     3
 72
    36
 73
    32
 74
     0
 42
0.0000000001
 43
0.0000000001
 40
0.0
 40
0.0
 40
0.0
 40
0.0
 40
0.125
 40
0.125
 40
0.125
 40
0.125
 40
0.25
 40
0.25
 40
0.25
 40
0.25
 40
0.375
 40
0.375
 40
0.375
 40
0.375
 40
0.5
 40
0.5
 40
0.5
 40
0.5
 40
0.625
 40
0.625
 40
0.625
 40
0.625
 40
0.75
 40
0.75
 40
0.75
 40
0.75
 40
0.875
 40
0.875
 40
0.875
 40
0.875
 40
1.0
 40
1.0
 40
1.0
 40
1.0
 10
-10.07218
 20
-14.6521
 30
0.0
 10
-10.07547
 20
-14.6521
 30
0.0
 10
-10.07803
 20
-14.65354
 30
0.0
 10
-10.07982
 20
-14.65638
 30
0.0
 10
-10.07982
 20
-14.65638
 30
0.0
 10
-10.08161
 20
-14.65923
 30
0.0
 10
-10.0825
 20
-14.66328
 30
0.0
 10
-10.0825
 20
-14.66852
 30
0.0
 10
-10.0825
 20
-14.66852
 30
0.0
 10
-10.0825
 20
-14.67379
 30
0.0
 10
-10.08161
 20
-14.67788
 30
0.0
 10
-10.07982
 20
-14.68075
 30
0.0
 10
-10.07982
 20
-14.68075
 30
0.0
 10
-10.07803
 20
-14.68362
 30
0.0
 10
-10.07547
 20
-14.68505
 30
0.0
 10
-10.07218
 20
-14.68505
 30
0.0
 10
-10.07218
 20
-14.68505
 30
0.0
 10
-10.06886
 20
-14.68505
 30
0.0
 10
-10.06632
 20
-14.68362
 30
0.0
 10
-10.06456
 20
-14.68075
 30
0.0
 10
-10.06456
 20
-14.68075
 30
0.0
 10
-10.06279
 20
-14.67788
 30
0.0
 10
-10.0619
 20
-14.67379
 30
0.0
 10
-10.0619
 20
-14.66852
 30
0.0
 10
-10.0619
 20
-14.66852
 30
0.0
 10
-10.0619
 20
-14.66328
 30
0.0
 10
-10.06279
 20
-14.65923
 30
0.0
 10
-10.06458
 20
-14.65638
 30
0.0
 10
-10.06458
 20
-14.65638
 30
0.0
 10
-10.06637
 20
-14.65354
 30
0.0
 10
-10.06891
 20
-14.6521
 30
0.0
 10
-10.07218
 20
-14.6521
 30
0.0
  0
SPLINE
  5
87
330
1F
100
AcDbEntity
  8
Layer 1
 62
   250
100
AcDbSpline
210
0.0
220
0.0
230
1.0
 70
    11
 71
     3
 72
    36
 73
    32
 74
     0
 42
0.0000000001
 43
0.0000000001
 40
0.0
 40
0.0
 40
0.0
 40
0.0
 40
0.125
 40
0.125
 40
0.125
 40
0.125
 40
0.25
 40
0.25
 40
0.25
 40
0.25
 40
0.375
 40
0.375
 40
0.375
 40
0.375
 40
0.5
 40
0.5
 40
0.5
 40
0.5
 40
0.625
 40
0.625
 40
0.625
 40
0.625
 40
0.75
 40
0.75
 40
0.75
 40
0.75
 40
0.875
 40
0.875
 40
0.875
 40
0.875
 40
1.0
 40
1.0
 40
1.0
 40
1.0
 10
-10.83071
 20
-15.46378
 30
0.0
 10
-10.83528
 20
-15.46378
 30
0.0
 10
-10.83873
 20
-15.46555
 30
0.0
 10
-10.84108
 20
-15.4691
 30
0.0
 10
-10.84108
 20
-15.4691
 30
0.0
 10
-10.84343
 20
-15.47265
 30
0.0
 10
-10.8446
 20
-15.47792
 30
0.0
 10
-10.8446
 20
-15.48487
 30
0.0
 10
-10.8446
 20
-15.48487
 30
0.0
 10
-10.8446
 20
-15.4918
 30
0.0
 10
-10.84343
 20
-15.49705
 30
0.0
 10
-10.84108
 20
-15.50062
 30
0.0
 10
-10.84108
 20
-15.50062
 30
0.0
 10
-10.83873
 20
-15.50419
 30
0.0
 10
-10.83528
 20
-15.50597
 30
0.0
 10
-10.83071
 20
-15.50597
 30
0.0
 10
-10.83071
 20
-15.50597
 30
0.0
 10
-10.82613
 20
-15.50597
 30
0.0
 10
-10.82266
 20
-15.50419
 30
0.0
 10
-10.82031
 20
-15.50062
 30
0.0
 10
-10.82031
 20
-15.50062
 30
0.0
 10
-10.81796
 20
-15.49705
 30
0.0
 10
-10.8168
 20
-15.4918
 30
0.0
 10
-10.8168
 20
-15.48487
 30
0.0
 10
-10.8168
 20
-15.48487
 30
0.0
 10
-10.8168
 20
-15.47792
 30
0.0
 10
-10.81796
 20
-15.47265
 30
0.0
 10
-10.82031
 20
-15.4691
 30
0.0
 10
-10.82031
 20
-15.4691
 30
0.0
 10
-10.82266
 20
-15.46555
 30
0.0
 10
-10.82613
 20
-15.46378
 30
0.0
 10
-10.83071
 20
-15.46378
 30
0.0
  0
SPLINE
  5
88
330
1F
100
AcDbEntity
  8
Layer 1
 62
   250
100
AcDbSpline
210
0.0
220
0.0
230
1.0
 70
    11
 71
     3
 72
    36
 73
    32
 74
     0
 42
0.0000000001
 43
0.0000000001
 40
0.0
 40
0.0
 40
0.0
 40
0.0
 40
0.125
 40
0.125
 40
0.125
 40
0.125
 40
0.25
 40
0.25
 40
0.25
 40
0.25
 40
0.375
 40
0.375
 40
0.375
 40
0.375
 40
0.5
 40
0.5
 40
0.5
 40
0.5
 40
0.625
 40
0.625
 40
0.625
 40
0.625
 40
0.75
 40
0.75
 40
0.75
 40
0.75
 40
0.875
 40
0.875
 40
0.875
 40
0.875
 40
1.0
 40
1.0
 40
1.0
 40
1.0
 10
-10.83071
 20
-15.45616
 30
0.0
 10
-10.82313
 20
-15.45616
 30
0.0
 10
-10.81733
 20
-15.45861
 30
0.0
 10
-10.81331
 20
-15.46353
 30
0.0
 10
-10.81331
 20
-15.46353
 30
0.0
 10
-10.80929
 20
-15.46845
 30
0.0
 10
-10.80728
 20
-15.47557
 30
0.0
 10
-10.80728
 20
-15.48487
 30
0.0
 10
-10.80728
 20
-15.48487
 30
0.0
 10
-10.80728
 20
-15.49422
 30
0.0
 10
-10.80928
 20
-15.50134
 30
0.0
 10
-10.81328
 20
-15.50624
 30
0.0
 10
-10.81328
 20
-15.50624
 30
0.0
 10
-10.8173
 20
-15.51114
 30
0.0
 10
-10.8231
 20
-15.51359
 30
0.0
 10
-10.83071
 20
-15.51359
 30
0.0
 10
-10.83071
 20
-15.51359
 30
0.0
 10
-10.83831
 20
-15.51359
 30
0.0
 10
-10.8441
 20
-15.51114
 30
0.0
 10
-10.84812
 20
-15.50624
 30
0.0
 10
-10.84812
 20
-15.50624
 30
0.0
 10
-10.85212
 20
-15.50134
 30
0.0
 10
-10.85412
 20
-15.49422
 30
0.0
 10
-10.85412
 20
-15.48487
 30
0.0
 10
-10.85412
 20
-15.48487
 30
0.0
 10
-10.85412
 20
-15.47557
 30
0.0
 10
-10.85212
 20
-15.46845
 30
0.0
 10
-10.84812
 20
-15.46353
 30
0.0
 10
-10.84812
 20
-15.46353
 30
0.0
 10
-10.8441
 20
-15.45861
 30
0.0
 10
-10.83831
 20
-15.45616
 30
0.0
 10
-10.83071
 20
-15.45616
 30
0.0
  0
SPLINE
  5
89
330
1F
100
AcDbEntity
  8
Layer 1
 62
   250
100
AcDbSpline
210
0.0
220
0.0
230
1.0
 70
    11
 71
     3
 72
    36
 73
    32
 74
     0
 42
0.0000000001
 43
0.0000000001
 40
0.0
 40
0.0
 40
0.0
 40
0.0
 40
0.125
 40
0.125
 40
0.125
 40
0.125
 40
0.25
 40
0.25
 40
0.25
 40
0.25
 40
0.375
 40
0.375
 40
0.375
 40
0.375
 40
0.5
 40
0.5
 40
0.5
 40
0.5
 40
0.625
 40
0.625
 40
0.625
 40
0.625
 40
0.75
 40
0.75
 40
0.75
 40
0.75
 40
0.875
 40
0.875
 40
0.875
 40
0.875
 40
1.0
 40
1.0
 40
1.0
 40
1.0
 10
-10.7705
 20
-15.46378
 30
0.0
 10
-10.77507
 20
-15.46378
 30
0.0
 10
-10.77852
 20
-15.46555
 30
0.0
 10
-10.78087
 20
-15.4691
 30
0.0
 10
-10.78087
 20
-15.4691
 30
0.0
 10
-10.78322
 20
-15.47265
 30
0.0
 10
-10.78439
 20
-15.47792
 30
0.0
 10
-10.78439
 20
-15.48487
 30
0.0
 10
-10.78439
 20
-15.48487
 30
0.0
 10
-10.78439
 20
-15.4918
 30
0.0
 10
-10.78322
 20
-15.49705
 30
0.0
 10
-10.78087
 20
-15.50062
 30
0.0
 10
-10.78087
 20
-15.50062
 30
0.0
 10
-10.77852
 20
-15.50419
 30
0.0
 10
-10.77507
 20
-15.50597
 30
0.0
 10
-10.7705
 20
-15.50597
 30
0.0
 10
-10.7705
 20
-15.50597
 30
0.0
 10
-10.76592
 20
-15.50597
 30
0.0
 10
-10.76245
 20
-15.50419
 30
0.0
 10
-10.7601
 20
-15.50062
 30
0.0
 10
-10.7601
 20
-15.50062
 30
0.0
 10
-10.75775
 20
-15.49705
 30
0.0
 10
-10.75659
 20
-15.4918
 30
0.0
 10
-10.75659
 20
-15.48487
 30
0.0
 10
-10.75659
 20
-15.48487
 30
0.0
 10
-10.75659
 20
-15.47792
 30
0.0
 10
-10.75775
 20
-15.47265
 30
0.0
 10
-10.7601
 20
-15.4691
 30
0.0
 10
-10.7601
 20
-15.4691
 30
0.0
 10
-10.76245
 20
-15.46555
 30
0.0
 10
-10.76592
 20
-15.46378
 30
0.0
 10
-10.7705
 20
-15.46378
 30
0.0
  0
SPLINE
  5
8A
330
1F
100
AcDbEntity
  8
Layer 1
 62
   250
100
AcDbSpline
210
0.0
220
0.0
230
1.0
 70
    11
 71
     3
 72
    36
 73
    32
 74
     0
 42
0.0000000001
 43
0.0000000001
 40
0.0
 40
0.0
 40
0.0
 40
0.0
 40
0.125
 40
0.125
 40
0.125
 40
0.125
 40
0.25
 40
0.25
 40
0.25
 40
0.25
 40
0.375
 40
0.375
 40
0.375
 40
0.375
 40
0.5
 40
0.5
 40
0.5
 40
0.5
 40
0.625
 40
0.625
 40
0.625
 40
0.625
 40
0.75
 40
0.75
 40
0.75
 40
0.75
 40
0.875
 40
0.875
 40
0.875
 40
0.875
 40
1.0
 40
1.0
 40
1.0
 40
1.0
 10
-10.7705
 20
-15.45616
 30
0.0
 10
-10.76292
 20
-15.45616
 30
0.0
 10
-10.75712
 20
-15.45861
 30
0.0
 10
-10.7531
 20
-15.46353
 30
0.0
 10
-10.7531
 20
-15.46353
 30
0.0
 10
-10.74908
 20
-15.46845
 30
0.0
 10
-10.74707
 20
-15.47557
 30
0.0
 10
-10.74707
 20
-15.48487
 30
0.0
 10
-10.74707
 20
-15.48487
 30
0.0
 10
-10.74707
 20
-15.49422
 30
0.0
 10
-10.74907
 20
-15.50134
 30
0.0
 10
-10.75307
 20
-15.50624
 30
0.0
 10
-10.75307
 20
-15.50624
 30
0.0
 10
-10.75709
 20
-15.51114
 30
0.0
 10
-10.76289
 20
-15.51359
 30
0.0
 10
-10.7705
 20
-15.51359
 30
0.0
 10
-10.7705
 20
-15.51359
 30
0.0
 10
-10.7781
 20
-15.51359
 30
0.0
 10
-10.78389
 20
-15.51114
 30
0.0
 10
-10.78791
 20
-15.50624
 30
0.0
 10
-10.78791
 20
-15.50624
 30
0.0
 10
-10.79191
 20
-15.50134
 30
0.0
 10
-10.79391
 20
-15.49422
 30
0.0
 10
-10.79391
 20
-15.48487
 30
0.0
 10
-10.79391
 20
-15.48487
 30
0.0
 10
-10.79391
 20
-15.47557
 30
0.0
 10
-10.79191
 20
-15.46845
 30
0.0
 10
-10.78791
 20
-15.46353
 30
0.0
 10
-10.78791
 20
-15.46353
 30
0.0
 10
-10.78389
 20
-15.45861
 30
0.0
 10
-10.7781
 20
-15.45616
 30
0.0
 10
-10.7705
 20
-15.45616
 30
0.0
  0
SPLINE
  5
8B
330
1F
100
AcDbEntity
  8
Layer 1
 62
   250
100
AcDbSpline
210
0.0
220
0.0
230
1.0
 70
    11
 71
     3
 72
   112
 73
   108
 74
     0
 42
0.0000000001
 43
0.0000000001
 40
0.0
 40
0.0
 40
0.0
 40
0.0
 40
0.037037037037037
 40
0.037037037037037
 40
0.037037037037037
 40
0.037037037037037
 40
0.0740740740740741
 40
0.0740740740740741
 40
0.0740740740740741
 40
0.0740740740740741
 40
0.1111111111111111
 40
0.1111111111111111
 40
0.1111111111111111
 40
0.1111111111111111
 40
0.1481481481481481
 40
0.1481481481481481
 40
0.1481481481481481
 40
0.1481481481481481
 40
0.1851851851851852
 40
0.1851851851851852
 40
0.1851851851851852
 40
0.1851851851851852
 40
0.2222222222222222
 40
0.2222222222222222
 40
0.2222222222222222
 40
0.2222222222222222
 40
0.2592592592592592
 40
0.2592592592592592
 40
0.2592592592592592
 40
0.2592592592592592
 40
0.2962962962962963
 40
0.2962962962962963
 40
0.2962962962962963
 40
0.2962962962962963
 40
0.3333333333333333
 40
0.3333333333333333
 40
0.3333333333333333
 40
0.3333333333333333
 40
0.3703703703703703
 40
0.3703703703703703
 40
0.3703703703703703
 40
0.3703703703703703
 40
0.4074074074074074
 40
0.4074074074074074
 40
0.4074074074074074
 40
0.4074074074074074
 40
0.4444444444444444
 40
0.4444444444444444
 40
0.4444444444444444
 40
0.4444444444444444
 40
0.4814814814814815
 40
0.4814814814814815
 40
0.4814814814814815
 40
0.4814814814814815
 40
0.5185185185185185
 40
0.5185185185185185
 40
0.5185185185185185
 40
0.5185185185185185
 40
0.5555555555555556
 40
0.5555555555555556
 40
0.5555555555555556
 40
0.5555555555555556
 40
0.5925925925925926
 40
0.5925925925925926
 40
0.5925925925925926
 40
0.5925925925925926
 40
0.6296296296296295
 40
0.6296296296296295
 40
0.6296296296296295
 40
0.6296296296296295
 40
0.6666666666666665
 40
0.6666666666666665
 40
0.6666666666666665
 40
0.6666666666666665
 40
0.7037037037037035
 40
0.7037037037037035
 40
0.7037037037037035
 40
0.7037037037037035
 40
0.7407407407407405
 40
0.7407407407407405
 40
0.7407407407407405
 40
0.7407407407407405
 40
0.7777777777777775
 40
0.7777777777777775
 40
0.7777777777777775
 40
0.7777777777777775
 40
0.8148148148148144
 40
0.8148148148148144
 40
0.8148148148148144
 40
0.8148148148148144
 40
0.8518518518518514
 40
0.8518518518518514
 40
0.8518518518518514
 40
0.8518518518518514
 40
0.8888888888888884
 40
0.8888888888888884
 40
0.8888888888888884
 40
0.8888888888888884
 40
0.9259259259259254
 40
0.9259259259259254
 40
0.9259259259259254
 40
0.9259259259259254
 40
0.9629629629629624
 40
0.9629629629629624
 40
0.9629629629629624
 40
0.9629629629629624
 40
1.0
 40
1.0
 40
1.0
 40
1.0
 10
-10.70738
 20
-15.46305
 30
0.0
 10
-10.70628
 20
-15.4607
 30
0.0
 10
-10.70486
 20
-15.45896
 30
0.0
 10
-10.70314
 20
-15.45785
 30
0.0
 10
-10.70314
 20
-15.45785
 30
0.0
 10
-10.70144
 20
-15.45673
 30
0.0
 10
-10.69938
 20
-15.45616
 30
0.0
 10
-10.69698
 20
-15.45616
 30
0.0
 10
-10.69698
 20
-15.45616
 30
0.0
 10
-10.69258
 20
-15.45616
 30
0.0
 10
-10.68947
 20
-15.45786
 30
0.0
 10
-10.68767
 20
-15.46126
 30
0.0
 10
-10.68767
 20
-15.46126
 30
0.0
 10
-10.68586
 20
-15.46467
 30
0.0
 10
-10.68496
 20
-15.47107
 30
0.0
 10
-10.68496
 20
-15.48048
 30
0.0
 10
-10.68496
 20
-15.48048
 30
0.0
 10
-10.68496
 20
-15.48048
 30
0.0
 10
-10.68496
 20
-15.51217
 30
0.0
 10
-10.68496
 20
-15.51217
 30
0.0
 10
-10.68496
 20
-15.51217
 30
0.0
 10
-10.68496
 20
-15.51217
 30
0.0
 10
-10.69316
 20
-15.51217
 30
0.0
 10
-10.69316
 20
-15.51217
 30
0.0
 10
-10.69316
 20
-15.51217
 30
0.0
 10
-10.69316
 20
-15.51217
 30
0.0
 10
-10.69316
 20
-15.48087
 30
0.0
 10
-10.69316
 20
-15.48087
 30
0.0
 10
-10.69316
 20
-15.48087
 30
0.0
 10
-10.69316
 20
-15.47315
 30
0.0
 10
-10.69359
 20
-15.46837
 30
0.0
 10
-10.69446
 20
-15.46648
 30
0.0
 10
-10.69446
 20
-15.46648
 30
0.0
 10
-10.69531
 20
-15.46462
 30
0.0
 10
-10.69689
 20
-15.46368
 30
0.0
 10
-10.69918
 20
-15.46368
 30
0.0
 10
-10.69918
 20
-15.46368
 30
0.0
 10
-10.70178
 20
-15.46368
 30
0.0
 10
-10.70356
 20
-15.46468
 30
0.0
 10
-10.70453
 20
-15.46668
 30
0.0
 10
-10.70453
 20
-15.46668
 30
0.0
 10
-10.70548
 20
-15.46868
 30
0.0
 10
-10.70596
 20
-15.47342
 30
0.0
 10
-10.70596
 20
-15.48087
 30
0.0
 10
-10.70596
 20
-15.48087
 30
0.0
 10
-10.70596
 20
-15.48087
 30
0.0
 10
-10.70596
 20
-15.51217
 30
0.0
 10
-10.70596
 20
-15.51217
 30
0.0
 10
-10.70596
 20
-15.51217
 30
0.0
 10
-10.70596
 20
-15.51217
 30
0.0
 10
-10.71416
 20
-15.51217
 30
0.0
 10
-10.71416
 20
-15.51217
 30
0.0
 10
-10.71416
 20
-15.51217
 30
0.0
 10
-10.71416
 20
-15.51217
 30
0.0
 10
-10.71416
 20
-15.48087
 30
0.0
 10
-10.71416
 20
-15.48087
 30
0.0
 10
-10.71416
 20
-15.48087
 30
0.0
 10
-10.71416
 20
-15.47305
 30
0.0
 10
-10.71463
 20
-15.46823
 30
0.0
 10
-10.71556
 20
-15.46642
 30
0.0
 10
-10.71556
 20
-15.46642
 30
0.0
 10
-10.71648
 20
-15.4646
 30
0.0
 10
-10.71814
 20
-15.46368
 30
0.0
 10
-10.72056
 20
-15.46368
 30
0.0
 10
-10.72056
 20
-15.46368
 30
0.0
 10
-10.72294
 20
-15.46368
 30
0.0
 10
-10.7246
 20
-15.46468
 30
0.0
 10
-10.72551
 20
-15.46668
 30
0.0
 10
-10.72551
 20
-15.46668
 30
0.0
 10
-10.72645
 20
-15.46868
 30
0.0
 10
-10.72691
 20
-15.47342
 30
0.0
 10
-10.72691
 20
-15.48087
 30
0.0
 10
-10.72691
 20
-15.48087
 30
0.0
 10
-10.72691
 20
-15.48087
 30
0.0
 10
-10.72691
 20
-15.51217
 30
0.0
 10
-10.72691
 20
-15.51217
 30
0.0
 10
-10.72691
 20
-15.51217
 30
0.0
 10
-10.72691
 20
-15.51217
 30
0.0
 10
-10.73506
 20
-15.51217
 30
0.0
 10
-10.73506
 20
-15.51217
 30
0.0
 10
-10.73506
 20
-15.51217
 30
0.0
 10
-10.73506
 20
-15.51217
 30
0.0
 10
-10.73506
 20
-15.45748
 30
0.0
 10
-10.73506
 20
-15.45748
 30
0.0
 10
-10.73506
 20
-15.45748
 30
0.0
 10
-10.73506
 20
-15.45748
 30
0.0
 10
-10.72691
 20
-15.45748
 30
0.0
 10
-10.72691
 20
-15.45748
 30
0.0
 10
-10.72691
 20
-15.45748
 30
0.0
 10
-10.72691
 20
-15.45748
 30
0.0
 10
-10.72691
 20
-15.46216
 30
0.0
 10
-10.72691
 20
-15.46216
 30
0.0
 10
-10.72691
 20
-15.46216
 30
0.0
 10
-10.72585
 20
-15.46021
 30
0.0
 10
-10.7245
 20
-15.45873
 30
0.0
 10
-10.72288
 20
-15.4577
 30
0.0
 10
-10.72288
 20
-15.4577
 30
0.0
 10
-10.72128
 20
-15.45668
 30
0.0
 10
-10.71944
 20
-15.45616
 30
0.0
 10
-10.71739
 20
-15.45616
 30
0.0
 10
-10.71739
 20
-15.45616
 30
0.0
 10
-10.71491
 20
-15.45616
 30
0.0
 10
-10.71286
 20
-15.45673
 30
0.0
 10
-10.71121
 20
-15.45786
 30
0.0
 10
-10.71121
 20
-15.45786
 30
0.0
 10
-10.70956
 20
-15.45901
 30
0.0
 10
-10.70829
 20
-15.46073
 30
0.0
 10
-10.70738
 20
-15.46305
 30
0.0
  0
SPLINE
  5
8C
330
1F
100
AcDbEntity
  8
Layer 1
 62
   250
100
AcDbSpline
210
0.0
220
0.0
230
1.0
 70
    11
 71
     3
 72
    20
 73
    16
 74
     0
 42
0.0000000001
 43
0.0000000001
 40
0.0
 40
0.0
 40
0.0
 40
0.0
 40
0.25
 40
0.25
 40
0.25
 40
0.25
 40
0.5
 40
0.5
 40
0.5
 40
0.5
 40
0.75
 40
0.75
 40
0.75
 40
0.75
 40
1.0
 40
1.0
 40
1.0
 40
1.0
 10
-10.65628
 20
-15.49727
 30
0.0
 10
-10.65628
 20
-15.49727
 30
0.0
 10
-10.64398
 20
-15.49727
 30
0.0
 10
-10.64398
 20
-15.49727
 30
0.0
 10
-10.64398
 20
-15.49727
 30
0.0
 10
-10.64398
 20
-15.49727
 30
0.0
 10
-10.64398
 20
-15.51217
 30
0.0
 10
-10.64398
 20
-15.51217
 30
0.0
 10
-10.64398
 20
-15.51217
 30
0.0
 10
-10.64398
 20
-15.51217
 30
0.0
 10
-10.65628
 20
-15.51217
 30
0.0
 10
-10.65628
 20
-15.51217
 30
0.0
 10
-10.65628
 20
-15.51217
 30
0.0
 10
-10.65628
 20
-15.51217
 30
0.0
 10
-10.65628
 20
-15.49727
 30
0.0
 10
-10.65628
 20
-15.49727
 30
0.0
  0
SPLINE
  5
8D
330
1F
100
AcDbEntity
  8
Layer 1
 62
   250
100
AcDbSpline
210
0.0
220
0.0
230
1.0
 70
    11
 71
     3
 72
    52
 73
    48
 74
     0
 42
0.0000000001
 43
0.0000000001
 40
0.0
 40
0.0
 40
0.0
 40
0.0
 40
0.0833333333333333
 40
0.0833333333333333
 40
0.0833333333333333
 40
0.0833333333333333
 40
0.1666666666666667
 40
0.1666666666666667
 40
0.1666666666666667
 40
0.1666666666666667
 40
0.25
 40
0.25
 40
0.25
 40
0.25
 40
0.3333333333333333
 40
0.3333333333333333
 40
0.3333333333333333
 40
0.3333333333333333
 40
0.4166666666666666
 40
0.4166666666666666
 40
0.4166666666666666
 40
0.4166666666666666
 40
0.4999999999999999
 40
0.4999999999999999
 40
0.4999999999999999
 40
0.4999999999999999
 40
0.5833333333333333
 40
0.5833333333333333
 40
0.5833333333333333
 40
0.5833333333333333
 40
0.6666666666666666
 40
0.6666666666666666
 40
0.6666666666666666
 40
0.6666666666666666
 40
0.75
 40
0.75
 40
0.75
 40
0.75
 40
0.8333333333333334
 40
0.8333333333333334
 40
0.8333333333333334
 40
0.8333333333333334
 40
0.9166666666666667
 40
0.9166666666666667
 40
0.9166666666666667
 40
0.9166666666666667
 40
1.0
 40
1.0
 40
1.0
 40
1.0
 10
-10.58876
 20
-15.49235
 30
0.0
 10
-10.58876
 20
-15.49639
 30
0.0
 10
-10.58802
 20
-15.49942
 30
0.0
 10
-10.58654
 20
-15.50147
 30
0.0
 10
-10.58654
 20
-15.50147
 30
0.0
 10
-10.58506
 20
-15.50352
 30
0.0
 10
-10.58287
 20
-15.50455
 30
0.0
 10
-10.57997
 20
-15.50455
 30
0.0
 10
-10.57997
 20
-15.50455
 30
0.0
 10
-10.57997
 20
-15.50455
 30
0.0
 10
-10.56947
 20
-15.50455
 30
0.0
 10
-10.56947
 20
-15.50455
 30
0.0
 10
-10.56947
 20
-15.50455
 30
0.0
 10
-10.56947
 20
-15.50455
 30
0.0
 10
-10.56947
 20
-15.51217
 30
0.0
 10
-10.56947
 20
-15.51217
 30
0.0
 10
-10.56947
 20
-15.51217
 30
0.0
 10
-10.56947
 20
-15.51217
 30
0.0
 10
-10.58084
 20
-15.51217
 30
0.0
 10
-10.58084
 20
-15.51217
 30
0.0
 10
-10.58084
 20
-15.51217
 30
0.0
 10
-10.58622
 20
-15.51217
 30
0.0
 10
-10.59037
 20
-15.51044
 30
0.0
 10
-10.59332
 20
-15.50699
 30
0.0
 10
-10.59332
 20
-15.50699
 30
0.0
 10
-10.59627
 20
-15.50354
 30
0.0
 10
-10.59774
 20
-15.49865
 30
0.0
 10
-10.59774
 20
-15.49235
 30
0.0
 10
-10.59774
 20
-15.49235
 30
0.0
 10
-10.59774
 20
-15.49235
 30
0.0
 10
-10.59774
 20
-15.44268
 30
0.0
 10
-10.59774
 20
-15.44268
 30
0.0
 10
-10.59774
 20
-15.44268
 30
0.0
 10
-10.59774
 20
-15.44268
 30
0.0
 10
-10.61214
 20
-15.44268
 30
0.0
 10
-10.61214
 20
-15.44268
 30
0.0
 10
-10.61214
 20
-15.44268
 30
0.0
 10
-10.61214
 20
-15.44268
 30
0.0
 10
-10.61214
 20
-15.43565
 30
0.0
 10
-10.61214
 20
-15.43565
 30
0.0
 10
-10.61214
 20
-15.43565
 30
0.0
 10
-10.61214
 20
-15.43565
 30
0.0
 10
-10.58876
 20
-15.43565
 30
0.0
 10
-10.58876
 20
-15.43565
 30
0.0
 10
-10.58876
 20
-15.43565
 30
0.0
 10
-10.58876
 20
-15.43565
 30
0.0
 10
-10.58876
 20
-15.49235
 30
0.0
 10
-10.58876
 20
-15.49235
 30
0.0
  0
SPLINE
  5
8E
330
1F
100
AcDbEntity
  8
Layer 1
 62
   250
100
AcDbSpline
210
0.0
220
0.0
230
1.0
 70
    11
 71
     3
 72
    76
 73
    72
 74
     0
 42
0.0000000001
 43
0.0000000001
 40
0.0
 40
0.0
 40
0.0
 40
0.0
 40
0.0555555555555556
 40
0.0555555555555556
 40
0.0555555555555556
 40
0.0555555555555556
 40
0.1111111111111111
 40
0.1111111111111111
 40
0.1111111111111111
 40
0.1111111111111111
 40
0.1666666666666667
 40
0.1666666666666667
 40
0.1666666666666667
 40
0.1666666666666667
 40
0.2222222222222222
 40
0.2222222222222222
 40
0.2222222222222222
 40
0.2222222222222222
 40
0.2777777777777778
 40
0.2777777777777778
 40
0.2777777777777778
 40
0.2777777777777778
 40
0.3333333333333334
 40
0.3333333333333334
 40
0.3333333333333334
 40
0.3333333333333334
 40
0.388888888888889
 40
0.388888888888889
 40
0.388888888888889
 40
0.388888888888889
 40
0.4444444444444445
 40
0.4444444444444445
 40
0.4444444444444445
 40
0.4444444444444445
 40
0.5000000000000001
 40
0.5000000000000001
 40
0.5000000000000001
 40
0.5000000000000001
 40
0.5555555555555557
 40
0.5555555555555557
 40
0.5555555555555557
 40
0.5555555555555557
 40
0.6111111111111113
 40
0.6111111111111113
 40
0.6111111111111113
 40
0.6111111111111113
 40
0.6666666666666669
 40
0.6666666666666669
 40
0.6666666666666669
 40
0.6666666666666669
 40
0.7222222222222224
 40
0.7222222222222224
 40
0.7222222222222224
 40
0.7222222222222224
 40
0.777777777777778
 40
0.777777777777778
 40
0.777777777777778
 40
0.777777777777778
 40
0.8333333333333336
 40
0.8333333333333336
 40
0.8333333333333336
 40
0.8333333333333336
 40
0.8888888888888892
 40
0.8888888888888892
 40
0.8888888888888892
 40
0.8888888888888892
 40
0.9444444444444448
 40
0.9444444444444448
 40
0.9444444444444448
 40
0.9444444444444448
 40
1.0
 40
1.0
 40
1.0
 40
1.0
 10
-10.52976
 20
-15.44195
 30
0.0
 10
-10.52976
 20
-15.44195
 30
0.0
 10
-10.52976
 20
-15.45748
 30
0.0
 10
-10.52976
 20
-15.45748
 30
0.0
 10
-10.52976
 20
-15.45748
 30
0.0
 10
-10.52976
 20
-15.45748
 30
0.0
 10
-10.50934
 20
-15.45748
 30
0.0
 10
-10.50934
 20
-15.45748
 30
0.0
 10
-10.50934
 20
-15.45748
 30
0.0
 10
-10.50934
 20
-15.45748
 30
0.0
 10
-10.50934
 20
-15.46447
 30
0.0
 10
-10.50934
 20
-15.46447
 30
0.0
 10
-10.50934
 20
-15.46447
 30
0.0
 10
-10.50934
 20
-15.46447
 30
0.0
 10
-10.52976
 20
-15.46447
 30
0.0
 10
-10.52976
 20
-15.46447
 30
0.0
 10
-10.52976
 20
-15.46447
 30
0.0
 10
-10.52976
 20
-15.46447
 30
0.0
 10
-10.52976
 20
-15.49415
 30
0.0
 10
-10.52976
 20
-15.49415
 30
0.0
 10
-10.52976
 20
-15.49415
 30
0.0
 10
-10.52976
 20
-15.49819
 30
0.0
 10
-10.529
 20
-15.501
 30
0.0
 10
-10.52746
 20
-15.50259
 30
0.0
 10
-10.52746
 20
-15.50259
 30
0.0
 10
-10.52593
 20
-15.50419
 30
0.0
 10
-10.52326
 20
-15.50499
 30
0.0
 10
-10.51946
 20
-15.50499
 30
0.0
 10
-10.51946
 20
-15.50499
 30
0.0
 10
-10.51946
 20
-15.50499
 30
0.0
 10
-10.50934
 20
-15.50499
 30
0.0
 10
-10.50934
 20
-15.50499
 30
0.0
 10
-10.50934
 20
-15.50499
 30
0.0
 10
-10.50934
 20
-15.50499
 30
0.0
 10
-10.50934
 20
-15.51217
 30
0.0
 10
-10.50934
 20
-15.51217
 30
0.0
 10
-10.50934
 20
-15.51217
 30
0.0
 10
-10.50934
 20
-15.51217
 30
0.0
 10
-10.52033
 20
-15.51217
 30
0.0
 10
-10.52033
 20
-15.51217
 30
0.0
 10
-10.52033
 20
-15.51217
 30
0.0
 10
-10.52708
 20
-15.51217
 30
0.0
 10
-10.53183
 20
-15.51082
 30
0.0
 10
-10.5346
 20
-15.50812
 30
0.0
 10
-10.5346
 20
-15.50812
 30
0.0
 10
-10.53736
 20
-15.50542
 30
0.0
 10
-10.53875
 20
-15.50075
 30
0.0
 10
-10.53875
 20
-15.49415
 30
0.0
 10
-10.53875
 20
-15.49415
 30
0.0
 10
-10.53875
 20
-15.49415
 30
0.0
 10
-10.53875
 20
-15.46447
 30
0.0
 10
-10.53875
 20
-15.46447
 30
0.0
 10
-10.53875
 20
-15.46447
 30
0.0
 10
-10.53875
 20
-15.46447
 30
0.0
 10
-10.55335
 20
-15.46447
 30
0.0
 10
-10.55335
 20
-15.46447
 30
0.0
 10
-10.55335
 20
-15.46447
 30
0.0
 10
-10.55335
 20
-15.46447
 30
0.0
 10
-10.55335
 20
-15.45748
 30
0.0
 10
-10.55335
 20
-15.45748
 30
0.0
 10
-10.55335
 20
-15.45748
 30
0.0
 10
-10.55335
 20
-15.45748
 30
0.0
 10
-10.53875
 20
-15.45748
 30
0.0
 10
-10.53875
 20
-15.45748
 30
0.0
 10
-10.53875
 20
-15.45748
 30
0.0
 10
-10.53875
 20
-15.45748
 30
0.0
 10
-10.53875
 20
-15.44195
 30
0.0
 10
-10.53875
 20
-15.44195
 30
0.0
 10
-10.53875
 20
-15.44195
 30
0.0
 10
-10.53875
 20
-15.44195
 30
0.0
 10
-10.52976
 20
-15.44195
 30
0.0
 10
-10.52976
 20
-15.44195
 30
0.0
  0
SPLINE
  5
8F
330
1F
100
AcDbEntity
  8
Layer 1
 62
   250
100
AcDbSpline
210
0.0
220
0.0
230
1.0
 70
    11
 71
     3
 72
    20
 73
    16
 74
     0
 42
0.0000000001
 43
0.0000000001
 40
0.0
 40
0.0
 40
0.0
 40
0.0
 40
0.25
 40
0.25
 40
0.25
 40
0.25
 40
0.5
 40
0.5
 40
0.5
 40
0.5
 40
0.75
 40
0.75
 40
0.75
 40
0.75
 40
1.0
 40
1.0
 40
1.0
 40
1.0
 10
-10.45612
 20
-15.43926
 30
0.0
 10
-10.45612
 20
-15.43926
 30
0.0
 10
-10.44683
 20
-15.43926
 30
0.0
 10
-10.44683
 20
-15.43926
 30
0.0
 10
-10.44683
 20
-15.43926
 30
0.0
 10
-10.44683
 20
-15.43926
 30
0.0
 10
-10.48522
 20
-15.52145
 30
0.0
 10
-10.48522
 20
-15.52145
 30
0.0
 10
-10.48522
 20
-15.52145
 30
0.0
 10
-10.48522
 20
-15.52145
 30
0.0
 10
-10.49456
 20
-15.52145
 30
0.0
 10
-10.49456
 20
-15.52145
 30
0.0
 10
-10.49456
 20
-15.52145
 30
0.0
 10
-10.49456
 20
-15.52145
 30
0.0
 10
-10.45612
 20
-15.43926
 30
0.0
 10
-10.45612
 20
-15.43926
 30
0.0
  0
SPLINE
  5
90
330
1F
100
AcDbEntity
  8
Layer 1
 62
   250
100
AcDbSpline
210
0.0
220
0.0
230
1.0
 70
    11
 71
     3
 72
    68
 73
    64
 74
     0
 42
0.0000000001
 43
0.0000000001
 40
0.0
 40
0.0
 40
0.0
 40
0.0
 40
0.0625
 40
0.0625
 40
0.0625
 40
0.0625
 40
0.125
 40
0.125
 40
0.125
 40
0.125
 40
0.1875
 40
0.1875
 40
0.1875
 40
0.1875
 40
0.25
 40
0.25
 40
0.25
 40
0.25
 40
0.3125
 40
0.3125
 40
0.3125
 40
0.3125
 40
0.375
 40
0.375
 40
0.375
 40
0.375
 40
0.4375
 40
0.4375
 40
0.4375
 40
0.4375
 40
0.5
 40
0.5
 40
0.5
 40
0.5
 40
0.5625
 40
0.5625
 40
0.5625
 40
0.5625
 40
0.625
 40
0.625
 40
0.625
 40
0.625
 40
0.6875
 40
0.6875
 40
0.6875
 40
0.6875
 40
0.75
 40
0.75
 40
0.75
 40
0.75
 40
0.8125
 40
0.8125
 40
0.8125
 40
0.8125
 40
0.875
 40
0.875
 40
0.875
 40
0.875
 40
0.9375
 40
0.9375
 40
0.9375
 40
0.9375
 40
1.0
 40
1.0
 40
1.0
 40
1.0
 10
-10.39993
 20
-15.47775
 30
0.0
 10
-10.39849
 20
-15.47803
 30
0.0
 10
-10.39724
 20
-15.47872
 30
0.0
 10
-10.39619
 20
-15.47978
 30
0.0
 10
-10.39619
 20
-15.47978
 30
0.0
 10
-10.39513
 20
-15.48083
 30
0.0
 10
-10.39384
 20
-15.4829
 30
0.0
 10
-10.39231
 20
-15.48595
 30
0.0
 10
-10.39231
 20
-15.48595
 30
0.0
 10
-10.39231
 20
-15.48595
 30
0.0
 10
-10.37911
 20
-15.51217
 30
0.0
 10
-10.37911
 20
-15.51217
 30
0.0
 10
-10.37911
 20
-15.51217
 30
0.0
 10
-10.37911
 20
-15.51217
 30
0.0
 10
-10.39494
 20
-15.51217
 30
0.0
 10
-10.39494
 20
-15.51217
 30
0.0
 10
-10.39494
 20
-15.51217
 30
0.0
 10
-10.39494
 20
-15.51217
 30
0.0
 10
-10.40373
 20
-15.49377
 30
0.0
 10
-10.40373
 20
-15.49377
 30
0.0
 10
-10.40373
 20
-15.49377
 30
0.0
 10
-10.40399
 20
-15.49325
 30
0.0
 10
-10.40434
 20
-15.49253
 30
0.0
 10
-10.40476
 20
-15.49162
 30
0.0
 10
-10.40476
 20
-15.49162
 30
0.0
 10
-10.40733
 20
-15.48612
 30
0.0
 10
-10.41036
 20
-15.48337
 30
0.0
 10
-10.41384
 20
-15.48337
 30
0.0
 10
-10.41384
 20
-15.48337
 30
0.0
 10
-10.41384
 20
-15.48337
 30
0.0
 10
-10.41843
 20
-15.48337
 30
0.0
 10
-10.41843
 20
-15.48337
 30
0.0
 10
-10.41843
 20
-15.48337
 30
0.0
 10
-10.41843
 20
-15.48337
 30
0.0
 10
-10.41843
 20
-15.51217
 30
0.0
 10
-10.41843
 20
-15.51217
 30
0.0
 10
-10.41843
 20
-15.51217
 30
0.0
 10
-10.41843
 20
-15.51217
 30
0.0
 10
-10.43283
 20
-15.51217
 30
0.0
 10
-10.43283
 20
-15.51217
 30
0.0
 10
-10.43283
 20
-15.51217
 30
0.0
 10
-10.43283
 20
-15.51217
 30
0.0
 10
-10.43283
 20
-15.43926
 30
0.0
 10
-10.43283
 20
-15.43926
 30
0.0
 10
-10.43283
 20
-15.43926
 30
0.0
 10
-10.43283
 20
-15.43926
 30
0.0
 10
-10.41203
 20
-15.43926
 30
0.0
 10
-10.41203
 20
-15.43926
 30
0.0
 10
-10.41203
 20
-15.43926
 30
0.0
 10
-10.40266
 20
-15.43926
 30
0.0
 10
-10.39593
 20
-15.44093
 30
0.0
 10
-10.39184
 20
-15.44425
 30
0.0
 10
-10.39184
 20
-15.44425
 30
0.0
 10
-10.38776
 20
-15.44756
 30
0.0
 10
-10.38571
 20
-15.45296
 30
0.0
 10
-10.38571
 20
-15.46046
 30
0.0
 10
-10.38571
 20
-15.46046
 30
0.0
 10
-10.38571
 20
-15.46547
 30
0.0
 10
-10.38692
 20
-15.46947
 30
0.0
 10
-10.38938
 20
-15.47243
 30
0.0
 10
-10.38938
 20
-15.47243
 30
0.0
 10
-10.39181
 20
-15.47538
 30
0.0
 10
-10.39533
 20
-15.47717
 30
0.0
 10
-10.39993
 20
-15.47775
 30
0.0
  0
SPLINE
  5
91
330
1F
100
AcDbEntity
  8
Layer 1
 62
   250
100
AcDbSpline
210
0.0
220
0.0
230
1.0
 70
    11
 71
     3
 72
    32
 73
    28
 74
     0
 42
0.0000000001
 43
0.0000000001
 40
0.0
 40
0.0
 40
0.0
 40
0.0
 40
0.1428571428571428
 40
0.1428571428571428
 40
0.1428571428571428
 40
0.1428571428571428
 40
0.2857142857142857
 40
0.2857142857142857
 40
0.2857142857142857
 40
0.2857142857142857
 40
0.4285714285714285
 40
0.4285714285714285
 40
0.4285714285714285
 40
0.4285714285714285
 40
0.5714285714285714
 40
0.5714285714285714
 40
0.5714285714285714
 40
0.5714285714285714
 40
0.7142857142857142
 40
0.7142857142857142
 40
0.7142857142857142
 40
0.7142857142857142
 40
0.857142857142857
 40
0.857142857142857
 40
0.857142857142857
 40
0.857142857142857
 40
1.0
 40
1.0
 40
1.0
 40
1.0
 10
-10.41843
 20
-15.45138
 30
0.0
 10
-10.41843
 20
-15.45138
 30
0.0
 10
-10.41843
 20
-15.47125
 30
0.0
 10
-10.41843
 20
-15.47125
 30
0.0
 10
-10.41843
 20
-15.47125
 30
0.0
 10
-10.41843
 20
-15.47125
 30
0.0
 10
-10.41164
 20
-15.47125
 30
0.0
 10
-10.41164
 20
-15.47125
 30
0.0
 10
-10.41164
 20
-15.47125
 30
0.0
 10
-10.40771
 20
-15.47125
 30
0.0
 10
-10.40488
 20
-15.47048
 30
0.0
 10
-10.40318
 20
-15.46893
 30
0.0
 10
-10.40318
 20
-15.46893
 30
0.0
 10
-10.40146
 20
-15.46738
 30
0.0
 10
-10.40061
 20
-15.46483
 30
0.0
 10
-10.40061
 20
-15.4613
 30
0.0
 10
-10.40061
 20
-15.4613
 30
0.0
 10
-10.40061
 20
-15.45775
 30
0.0
 10
-10.40146
 20
-15.4552
 30
0.0
 10
-10.40314
 20
-15.45368
 30
0.0
 10
-10.40314
 20
-15.45368
 30
0.0
 10
-10.40484
 20
-15.45215
 30
0.0
 10
-10.40768
 20
-15.45138
 30
0.0
 10
-10.41164
 20
-15.45138
 30
0.0
 10
-10.41164
 20
-15.45138
 30
0.0
 10
-10.41164
 20
-15.45138
 30
0.0
 10
-10.41843
 20
-15.45138
 30
0.0
 10
-10.41843
 20
-15.45138
 30
0.0
  0
SPLINE
  5
92
330
1F
100
AcDbEntity
  8
Layer 1
 62
   250
100
AcDbSpline
210
0.0
220
0.0
230
1.0
 70
    11
 71
     3
 72
    36
 73
    32
 74
     0
 42
0.0000000001
 43
0.0000000001
 40
0.0
 40
0.0
 40
0.0
 40
0.0
 40
0.125
 40
0.125
 40
0.125
 40
0.125
 40
0.25
 40
0.25
 40
0.25
 40
0.25
 40
0.375
 40
0.375
 40
0.375
 40
0.375
 40
0.5
 40
0.5
 40
0.5
 40
0.5
 40
0.625
 40
0.625
 40
0.625
 40
0.625
 40
0.75
 40
0.75
 40
0.75
 40
0.75
 40
0.875
 40
0.875
 40
0.875
 40
0.875
 40
1.0
 40
1.0
 40
1.0
 40
1.0
 10
-10.34772
 20
-15.47563
 30
0.0
 10
-10.35083
 20
-15.47563
 30
0.0
 10
-10.35322
 20
-15.47677
 30
0.0
 10
-10.35487
 20
-15.47903
 30
0.0
 10
-10.35487
 20
-15.47903
 30
0.0
 10
-10.35652
 20
-15.4813
 30
0.0
 10
-10.35733
 20
-15.48457
 30
0.0
 10
-10.35733
 20
-15.48887
 30
0.0
 10
-10.35733
 20
-15.48887
 30
0.0
 10
-10.35733
 20
-15.49313
 30
0.0
 10
-10.35652
 20
-15.4964
 30
0.0
 10
-10.35487
 20
-15.49867
 30
0.0
 10
-10.35487
 20
-15.49867
 30
0.0
 10
-10.35322
 20
-15.50094
 30
0.0
 10
-10.35083
 20
-15.50207
 30
0.0
 10
-10.34772
 20
-15.50207
 30
0.0
 10
-10.34772
 20
-15.50207
 30
0.0
 10
-10.34458
 20
-15.50207
 30
0.0
 10
-10.34218
 20
-15.50094
 30
0.0
 10
-10.34052
 20
-15.49867
 30
0.0
 10
-10.34052
 20
-15.49867
 30
0.0
 10
-10.33883
 20
-15.4964
 30
0.0
 10
-10.338
 20
-15.49313
 30
0.0
 10
-10.338
 20
-15.48887
 30
0.0
 10
-10.338
 20
-15.48887
 30
0.0
 10
-10.338
 20
-15.4846
 30
0.0
 10
-10.33883
 20
-15.48133
 30
0.0
 10
-10.34052
 20
-15.47905
 30
0.0
 10
-10.34052
 20
-15.47905
 30
0.0
 10
-10.34218
 20
-15.47677
 30
0.0
 10
-10.34458
 20
-15.47563
 30
0.0
 10
-10.34772
 20
-15.47563
 30
0.0
  0
SPLINE
  5
93
330
1F
100
AcDbEntity
  8
Layer 1
 62
   250
100
AcDbSpline
210
0.0
220
0.0
230
1.0
 70
    11
 71
     3
 72
    72
 73
    68
 74
     0
 42
0.0000000001
 43
0.0000000001
 40
0.0
 40
0.0
 40
0.0
 40
0.0
 40
0.0588235294117647
 40
0.0588235294117647
 40
0.0588235294117647
 40
0.0588235294117647
 40
0.1176470588235294
 40
0.1176470588235294
 40
0.1176470588235294
 40
0.1176470588235294
 40
0.1764705882352941
 40
0.1764705882352941
 40
0.1764705882352941
 40
0.1764705882352941
 40
0.2352941176470588
 40
0.2352941176470588
 40
0.2352941176470588
 40
0.2352941176470588
 40
0.2941176470588235
 40
0.2941176470588235
 40
0.2941176470588235
 40
0.2941176470588235
 40
0.3529411764705883
 40
0.3529411764705883
 40
0.3529411764705883
 40
0.3529411764705883
 40
0.411764705882353
 40
0.411764705882353
 40
0.411764705882353
 40
0.411764705882353
 40
0.4705882352941177
 40
0.4705882352941177
 40
0.4705882352941177
 40
0.4705882352941177
 40
0.5294117647058824
 40
0.5294117647058824
 40
0.5294117647058824
 40
0.5294117647058824
 40
0.5882352941176471
 40
0.5882352941176471
 40
0.5882352941176471
 40
0.5882352941176471
 40
0.6470588235294118
 40
0.6470588235294118
 40
0.6470588235294118
 40
0.6470588235294118
 40
0.7058823529411765
 40
0.7058823529411765
 40
0.7058823529411765
 40
0.7058823529411765
 40
0.7647058823529412
 40
0.7647058823529412
 40
0.7647058823529412
 40
0.7647058823529412
 40
0.823529411764706
 40
0.823529411764706
 40
0.823529411764706
 40
0.823529411764706
 40
0.8823529411764707
 40
0.8823529411764707
 40
0.8823529411764707
 40
0.8823529411764707
 40
0.9411764705882354
 40
0.9411764705882354
 40
0.9411764705882354
 40
0.9411764705882354
 40
1.0
 40
1.0
 40
1.0
 40
1.0
 10
-10.32883
 20
-15.44098
 30
0.0
 10
-10.32883
 20
-15.44098
 30
0.0
 10
-10.32883
 20
-15.45406
 30
0.0
 10
-10.32883
 20
-15.45406
 30
0.0
 10
-10.32883
 20
-15.45406
 30
0.0
 10
-10.3314
 20
-15.4526
 30
0.0
 10
-10.33387
 20
-15.4515
 30
0.0
 10
-10.33623
 20
-15.45076
 30
0.0
 10
-10.33623
 20
-15.45076
 30
0.0
 10
-10.33858
 20
-15.45003
 30
0.0
 10
-10.34085
 20
-15.44966
 30
0.0
 10
-10.34303
 20
-15.44966
 30
0.0
 10
-10.34303
 20
-15.44966
 30
0.0
 10
-10.34823
 20
-15.44966
 30
0.0
 10
-10.3522
 20
-15.45141
 30
0.0
 10
-10.35492
 20
-15.45491
 30
0.0
 10
-10.35492
 20
-15.45491
 30
0.0
 10
-10.35763
 20
-15.45841
 30
0.0
 10
-10.35905
 20
-15.46358
 30
0.0
 10
-10.35918
 20
-15.47042
 30
0.0
 10
-10.35918
 20
-15.47042
 30
0.0
 10
-10.35765
 20
-15.4683
 30
0.0
 10
-10.3557
 20
-15.46672
 30
0.0
 10
-10.35333
 20
-15.46565
 30
0.0
 10
-10.35333
 20
-15.46565
 30
0.0
 10
-10.35095
 20
-15.4646
 30
0.0
 10
-10.34815
 20
-15.46407
 30
0.0
 10
-10.34493
 20
-15.46407
 30
0.0
 10
-10.34493
 20
-15.46407
 30
0.0
 10
-10.33835
 20
-15.46407
 30
0.0
 10
-10.33328
 20
-15.46615
 30
0.0
 10
-10.3297
 20
-15.4703
 30
0.0
 10
-10.3297
 20
-15.4703
 30
0.0
 10
-10.32611
 20
-15.47445
 30
0.0
 10
-10.32433
 20
-15.48033
 30
0.0
 10
-10.32433
 20
-15.48795
 30
0.0
 10
-10.32433
 20
-15.48795
 30
0.0
 10
-10.32433
 20
-15.49612
 30
0.0
 10
-10.32635
 20
-15.50245
 30
0.0
 10
-10.33037
 20
-15.50695
 30
0.0
 10
-10.33037
 20
-15.50695
 30
0.0
 10
-10.33438
 20
-15.51144
 30
0.0
 10
-10.34003
 20
-15.51369
 30
0.0
 10
-10.34733
 20
-15.51369
 30
0.0
 10
-10.34733
 20
-15.51369
 30
0.0
 10
-10.35622
 20
-15.51369
 30
0.0
 10
-10.36267
 20
-15.5107
 30
0.0
 10
-10.36669
 20
-15.50475
 30
0.0
 10
-10.36669
 20
-15.50475
 30
0.0
 10
-10.3707
 20
-15.49879
 30
0.0
 10
-10.37272
 20
-15.48917
 30
0.0
 10
-10.37272
 20
-15.47588
 30
0.0
 10
-10.37272
 20
-15.47588
 30
0.0
 10
-10.37272
 20
-15.46327
 30
0.0
 10
-10.37027
 20
-15.4538
 30
0.0
 10
-10.36535
 20
-15.4475
 30
0.0
 10
-10.36535
 20
-15.4475
 30
0.0
 10
-10.36043
 20
-15.4412
 30
0.0
 10
-10.35307
 20
-15.43805
 30
0.0
 10
-10.34323
 20
-15.43805
 30
0.0
 10
-10.34323
 20
-15.43805
 30
0.0
 10
-10.34095
 20
-15.43805
 30
0.0
 10
-10.3386
 20
-15.4383
 30
0.0
 10
-10.33618
 20
-15.43878
 30
0.0
 10
-10.33618
 20
-15.43878
 30
0.0
 10
-10.33375
 20
-15.43926
 30
0.0
 10
-10.3313
 20
-15.44
 30
0.0
 10
-10.32883
 20
-15.44098
 30
0.0
  0
SPLINE
  5
94
330
1F
100
AcDbEntity
  8
Layer 1
 62
   250
100
AcDbSpline
210
0.0
220
0.0
230
1.0
 70
    11
 71
     3
 72
    88
 73
    84
 74
     0
 42
0.0000000001
 43
0.0000000001
 40
0.0
 40
0.0
 40
0.0
 40
0.0
 40
0.0476190476190476
 40
0.0476190476190476
 40
0.0476190476190476
 40
0.0476190476190476
 40
0.0952380952380952
 40
0.0952380952380952
 40
0.0952380952380952
 40
0.0952380952380952
 40
0.1428571428571428
 40
0.1428571428571428
 40
0.1428571428571428
 40
0.1428571428571428
 40
0.1904761904761905
 40
0.1904761904761905
 40
0.1904761904761905
 40
0.1904761904761905
 40
0.2380952380952381
 40
0.2380952380952381
 40
0.2380952380952381
 40
0.2380952380952381
 40
0.2857142857142857
 40
0.2857142857142857
 40
0.2857142857142857
 40
0.2857142857142857
 40
0.3333333333333333
 40
0.3333333333333333
 40
0.3333333333333333
 40
0.3333333333333333
 40
0.3809523809523809
 40
0.3809523809523809
 40
0.3809523809523809
 40
0.3809523809523809
 40
0.4285714285714285
 40
0.4285714285714285
 40
0.4285714285714285
 40
0.4285714285714285
 40
0.4761904761904762
 40
0.4761904761904762
 40
0.4761904761904762
 40
0.4761904761904762
 40
0.5238095238095237
 40
0.5238095238095237
 40
0.5238095238095237
 40
0.5238095238095237
 40
0.5714285714285714
 40
0.5714285714285714
 40
0.5714285714285714
 40
0.5714285714285714
 40
0.6190476190476191
 40
0.6190476190476191
 40
0.6190476190476191
 40
0.6190476190476191
 40
0.6666666666666667
 40
0.6666666666666667
 40
0.6666666666666667
 40
0.6666666666666667
 40
0.7142857142857144
 40
0.7142857142857144
 40
0.7142857142857144
 40
0.7142857142857144
 40
0.7619047619047621
 40
0.7619047619047621
 40
0.7619047619047621
 40
0.7619047619047621
 40
0.8095238095238098
 40
0.8095238095238098
 40
0.8095238095238098
 40
0.8095238095238098
 40
0.8571428571428574
 40
0.8571428571428574
 40
0.8571428571428574
 40
0.8571428571428574
 40
0.9047619047619051
 40
0.9047619047619051
 40
0.9047619047619051
 40
0.9047619047619051
 40
0.9523809523809528
 40
0.9523809523809528
 40
0.9523809523809528
 40
0.9523809523809528
 40
1.0
 40
1.0
 40
1.0
 40
1.0
 10
-10.29772
 20
-15.49947
 30
0.0
 10
-10.29772
 20
-15.49947
 30
0.0
 10
-10.267
 20
-15.49947
 30
0.0
 10
-10.267
 20
-15.49947
 30
0.0
 10
-10.267
 20
-15.49947
 30
0.0
 10
-10.267
 20
-15.49947
 30
0.0
 10
-10.267
 20
-15.51217
 30
0.0
 10
-10.267
 20
-15.51217
 30
0.0
 10
-10.267
 20
-15.51217
 30
0.0
 10
-10.267
 20
-15.51217
 30
0.0
 10
-10.31329
 20
-15.51217
 30
0.0
 10
-10.31329
 20
-15.51217
 30
0.0
 10
-10.31329
 20
-15.51217
 30
0.0
 10
-10.31329
 20
-15.51217
 30
0.0
 10
-10.31329
 20
-15.49985
 30
0.0
 10
-10.31329
 20
-15.49985
 30
0.0
 10
-10.31329
 20
-15.49985
 30
0.0
 10
-10.31329
 20
-15.49985
 30
0.0
 10
-10.30548
 20
-15.49157
 30
0.0
 10
-10.30548
 20
-15.49157
 30
0.0
 10
-10.30548
 20
-15.49157
 30
0.0
 10
-10.29621
 20
-15.4817
 30
0.0
 10
-10.29057
 20
-15.47563
 30
0.0
 10
-10.28859
 20
-15.47335
 30
0.0
 10
-10.28859
 20
-15.47335
 30
0.0
 10
-10.28616
 20
-15.47055
 30
0.0
 10
-10.28439
 20
-15.46807
 30
0.0
 10
-10.28332
 20
-15.4659
 30
0.0
 10
-10.28332
 20
-15.4659
 30
0.0
 10
-10.28224
 20
-15.46373
 30
0.0
 10
-10.28171
 20
-15.4616
 30
0.0
 10
-10.28171
 20
-15.45948
 30
0.0
 10
-10.28171
 20
-15.45948
 30
0.0
 10
-10.28171
 20
-15.45623
 30
0.0
 10
-10.28269
 20
-15.45371
 30
0.0
 10
-10.28466
 20
-15.45195
 30
0.0
 10
-10.28466
 20
-15.45195
 30
0.0
 10
-10.28662
 20
-15.45016
 30
0.0
 10
-10.28942
 20
-15.44928
 30
0.0
 10
-10.29302
 20
-15.44928
 30
0.0
 10
-10.29302
 20
-15.44928
 30
0.0
 10
-10.29561
 20
-15.44928
 30
0.0
 10
-10.29849
 20
-15.4498
 30
0.0
 10
-10.30169
 20
-15.45081
 30
0.0
 10
-10.30169
 20
-15.45081
 30
0.0
 10
-10.30491
 20
-15.45185
 30
0.0
 10
-10.30824
 20
-15.45333
 30
0.0
 10
-10.31173
 20
-15.45528
 30
0.0
 10
-10.31173
 20
-15.45528
 30
0.0
 10
-10.31173
 20
-15.45528
 30
0.0
 10
-10.31173
 20
-15.44185
 30
0.0
 10
-10.31173
 20
-15.44185
 30
0.0
 10
-10.31173
 20
-15.44185
 30
0.0
 10
-10.30824
 20
-15.44058
 30
0.0
 10
-10.30484
 20
-15.43961
 30
0.0
 10
-10.30149
 20
-15.43895
 30
0.0
 10
-10.30149
 20
-15.43895
 30
0.0
 10
-10.29816
 20
-15.43828
 30
0.0
 10
-10.29496
 20
-15.43795
 30
0.0
 10
-10.29191
 20
-15.43795
 30
0.0
 10
-10.29191
 20
-15.43795
 30
0.0
 10
-10.28419
 20
-15.43795
 30
0.0
 10
-10.27812
 20
-15.43975
 30
0.0
 10
-10.27372
 20
-15.44335
 30
0.0
 10
-10.27372
 20
-15.44335
 30
0.0
 10
-10.26931
 20
-15.44693
 30
0.0
 10
-10.2671
 20
-15.45185
 30
0.0
 10
-10.2671
 20
-15.45806
 30
0.0
 10
-10.2671
 20
-15.45806
 30
0.0
 10
-10.2671
 20
-15.46093
 30
0.0
 10
-10.26759
 20
-15.46362
 30
0.0
 10
-10.26854
 20
-15.46612
 30
0.0
 10
-10.26854
 20
-15.46612
 30
0.0
 10
-10.26951
 20
-15.46863
 30
0.0
 10
-10.27116
 20
-15.47142
 30
0.0
 10
-10.27351
 20
-15.47447
 30
0.0
 10
-10.27351
 20
-15.47447
 30
0.0
 10
-10.27522
 20
-15.47668
 30
0.0
 10
-10.27996
 20
-15.48167
 30
0.0
 10
-10.28771
 20
-15.48942
 30
0.0
 10
-10.28771
 20
-15.48942
 30
0.0
 10
-10.29191
 20
-15.4936
 30
0.0
 10
-10.29524
 20
-15.49697
 30
0.0
 10
-10.29772
 20
-15.49947
 30
0.0
  0
SPLINE
  5
95
330
1F
100
AcDbEntity
  8
Layer 1
 62
   250
100
AcDbSpline
210
0.0
220
0.0
230
1.0
 70
    11
 71
     3
 72
    88
 73
    84
 74
     0
 42
0.0000000001
 43
0.0000000001
 40
0.0
 40
0.0
 40
0.0
 40
0.0
 40
0.0476190476190476
 40
0.0476190476190476
 40
0.0476190476190476
 40
0.0476190476190476
 40
0.0952380952380952
 40
0.0952380952380952
 40
0.0952380952380952
 40
0.0952380952380952
 40
0.1428571428571428
 40
0.1428571428571428
 40
0.1428571428571428
 40
0.1428571428571428
 40
0.1904761904761905
 40
0.1904761904761905
 40
0.1904761904761905
 40
0.1904761904761905
 40
0.2380952380952381
 40
0.2380952380952381
 40
0.2380952380952381
 40
0.2380952380952381
 40
0.2857142857142857
 40
0.2857142857142857
 40
0.2857142857142857
 40
0.2857142857142857
 40
0.3333333333333333
 40
0.3333333333333333
 40
0.3333333333333333
 40
0.3333333333333333
 40
0.3809523809523809
 40
0.3809523809523809
 40
0.3809523809523809
 40
0.3809523809523809
 40
0.4285714285714285
 40
0.4285714285714285
 40
0.4285714285714285
 40
0.4285714285714285
 40
0.4761904761904762
 40
0.4761904761904762
 40
0.4761904761904762
 40
0.4761904761904762
 40
0.5238095238095237
 40
0.5238095238095237
 40
0.5238095238095237
 40
0.5238095238095237
 40
0.5714285714285714
 40
0.5714285714285714
 40
0.5714285714285714
 40
0.5714285714285714
 40
0.6190476190476191
 40
0.6190476190476191
 40
0.6190476190476191
 40
0.6190476190476191
 40
0.6666666666666667
 40
0.6666666666666667
 40
0.6666666666666667
 40
0.6666666666666667
 40
0.7142857142857144
 40
0.7142857142857144
 40
0.7142857142857144
 40
0.7142857142857144
 40
0.7619047619047621
 40
0.7619047619047621
 40
0.7619047619047621
 40
0.7619047619047621
 40
0.8095238095238098
 40
0.8095238095238098
 40
0.8095238095238098
 40
0.8095238095238098
 40
0.8571428571428574
 40
0.8571428571428574
 40
0.8571428571428574
 40
0.8571428571428574
 40
0.9047619047619051
 40
0.9047619047619051
 40
0.9047619047619051
 40
0.9047619047619051
 40
0.9523809523809528
 40
0.9523809523809528
 40
0.9523809523809528
 40
0.9523809523809528
 40
1.0
 40
1.0
 40
1.0
 40
1.0
 10
-10.23751
 20
-15.49947
 30
0.0
 10
-10.23751
 20
-15.49947
 30
0.0
 10
-10.20679
 20
-15.49947
 30
0.0
 10
-10.20679
 20
-15.49947
 30
0.0
 10
-10.20679
 20
-15.49947
 30
0.0
 10
-10.20679
 20
-15.49947
 30
0.0
 10
-10.20679
 20
-15.51217
 30
0.0
 10
-10.20679
 20
-15.51217
 30
0.0
 10
-10.20679
 20
-15.51217
 30
0.0
 10
-10.20679
 20
-15.51217
 30
0.0
 10
-10.25308
 20
-15.51217
 30
0.0
 10
-10.25308
 20
-15.51217
 30
0.0
 10
-10.25308
 20
-15.51217
 30
0.0
 10
-10.25308
 20
-15.51217
 30
0.0
 10
-10.25308
 20
-15.49985
 30
0.0
 10
-10.25308
 20
-15.49985
 30
0.0
 10
-10.25308
 20
-15.49985
 30
0.0
 10
-10.25308
 20
-15.49985
 30
0.0
 10
-10.24527
 20
-15.49157
 30
0.0
 10
-10.24527
 20
-15.49157
 30
0.0
 10
-10.24527
 20
-15.49157
 30
0.0
 10
-10.236
 20
-15.4817
 30
0.0
 10
-10.23036
 20
-15.47563
 30
0.0
 10
-10.22838
 20
-15.47335
 30
0.0
 10
-10.22838
 20
-15.47335
 30
0.0
 10
-10.22595
 20
-15.47055
 30
0.0
 10
-10.22418
 20
-15.46807
 30
0.0
 10
-10.22311
 20
-15.4659
 30
0.0
 10
-10.22311
 20
-15.4659
 30
0.0
 10
-10.22203
 20
-15.46373
 30
0.0
 10
-10.2215
 20
-15.4616
 30
0.0
 10
-10.2215
 20
-15.45948
 30
0.0
 10
-10.2215
 20
-15.45948
 30
0.0
 10
-10.2215
 20
-15.45623
 30
0.0
 10
-10.22248
 20
-15.45371
 30
0.0
 10
-10.22445
 20
-15.45195
 30
0.0
 10
-10.22445
 20
-15.45195
 30
0.0
 10
-10.22641
 20
-15.45016
 30
0.0
 10
-10.22921
 20
-15.44928
 30
0.0
 10
-10.23281
 20
-15.44928
 30
0.0
 10
-10.23281
 20
-15.44928
 30
0.0
 10
-10.2354
 20
-15.44928
 30
0.0
 10
-10.23828
 20
-15.4498
 30
0.0
 10
-10.24148
 20
-15.45081
 30
0.0
 10
-10.24148
 20
-15.45081
 30
0.0
 10
-10.2447
 20
-15.45185
 30
0.0
 10
-10.24803
 20
-15.45333
 30
0.0
 10
-10.25152
 20
-15.45528
 30
0.0
 10
-10.25152
 20
-15.45528
 30
0.0
 10
-10.25152
 20
-15.45528
 30
0.0
 10
-10.25152
 20
-15.44185
 30
0.0
 10
-10.25152
 20
-15.44185
 30
0.0
 10
-10.25152
 20
-15.44185
 30
0.0
 10
-10.24803
 20
-15.44058
 30
0.0
 10
-10.24463
 20
-15.43961
 30
0.0
 10
-10.24128
 20
-15.43895
 30
0.0
 10
-10.24128
 20
-15.43895
 30
0.0
 10
-10.23795
 20
-15.43828
 30
0.0
 10
-10.23475
 20
-15.43795
 30
0.0
 10
-10.2317
 20
-15.43795
 30
0.0
 10
-10.2317
 20
-15.43795
 30
0.0
 10
-10.22398
 20
-15.43795
 30
0.0
 10
-10.21791
 20
-15.43975
 30
0.0
 10
-10.21351
 20
-15.44335
 30
0.0
 10
-10.21351
 20
-15.44335
 30
0.0
 10
-10.2091
 20
-15.44693
 30
0.0
 10
-10.20689
 20
-15.45185
 30
0.0
 10
-10.20689
 20
-15.45806
 30
0.0
 10
-10.20689
 20
-15.45806
 30
0.0
 10
-10.20689
 20
-15.46093
 30
0.0
 10
-10.20738
 20
-15.46362
 30
0.0
 10
-10.20833
 20
-15.46612
 30
0.0
 10
-10.20833
 20
-15.46612
 30
0.0
 10
-10.2093
 20
-15.46863
 30
0.0
 10
-10.21095
 20
-15.47142
 30
0.0
 10
-10.2133
 20
-15.47447
 30
0.0
 10
-10.2133
 20
-15.47447
 30
0.0
 10
-10.21501
 20
-15.47668
 30
0.0
 10
-10.21975
 20
-15.48167
 30
0.0
 10
-10.2275
 20
-15.48942
 30
0.0
 10
-10.2275
 20
-15.48942
 30
0.0
 10
-10.2317
 20
-15.4936
 30
0.0
 10
-10.23503
 20
-15.49697
 30
0.0
 10
-10.23751
 20
-15.49947
 30
0.0
  0
SPLINE
  5
96
330
1F
100
AcDbEntity
  8
Layer 1
 62
   250
100
AcDbSpline
210
0.0
220
0.0
230
1.0
 70
    11
 71
     3
 72
    52
 73
    48
 74
     0
 42
0.0000000001
 43
0.0000000001
 40
0.0
 40
0.0
 40
0.0
 40
0.0
 40
0.0833333333333333
 40
0.0833333333333333
 40
0.0833333333333333
 40
0.0833333333333333
 40
0.1666666666666667
 40
0.1666666666666667
 40
0.1666666666666667
 40
0.1666666666666667
 40
0.25
 40
0.25
 40
0.25
 40
0.25
 40
0.3333333333333333
 40
0.3333333333333333
 40
0.3333333333333333
 40
0.3333333333333333
 40
0.4166666666666666
 40
0.4166666666666666
 40
0.4166666666666666
 40
0.4166666666666666
 40
0.4999999999999999
 40
0.4999999999999999
 40
0.4999999999999999
 40
0.4999999999999999
 40
0.5833333333333333
 40
0.5833333333333333
 40
0.5833333333333333
 40
0.5833333333333333
 40
0.6666666666666666
 40
0.6666666666666666
 40
0.6666666666666666
 40
0.6666666666666666
 40
0.75
 40
0.75
 40
0.75
 40
0.75
 40
0.8333333333333334
 40
0.8333333333333334
 40
0.8333333333333334
 40
0.8333333333333334
 40
0.9166666666666667
 40
0.9166666666666667
 40
0.9166666666666667
 40
0.9166666666666667
 40
1.0
 40
1.0
 40
1.0
 40
1.0
 10
-10.1396
 20
-15.51217
 30
0.0
 10
-10.1396
 20
-15.51217
 30
0.0
 10
-10.15449
 20
-15.51217
 30
0.0
 10
-10.15449
 20
-15.51217
 30
0.0
 10
-10.15449
 20
-15.51217
 30
0.0
 10
-10.15449
 20
-15.51217
 30
0.0
 10
-10.1684
 20
-15.48805
 30
0.0
 10
-10.1684
 20
-15.48805
 30
0.0
 10
-10.1684
 20
-15.48805
 30
0.0
 10
-10.1684
 20
-15.48805
 30
0.0
 10
-10.18229
 20
-15.51217
 30
0.0
 10
-10.18229
 20
-15.51217
 30
0.0
 10
-10.18229
 20
-15.51217
 30
0.0
 10
-10.18229
 20
-15.51217
 30
0.0
 10
-10.19717
 20
-15.51217
 30
0.0
 10
-10.19717
 20
-15.51217
 30
0.0
 10
-10.19717
 20
-15.51217
 30
0.0
 10
-10.19717
 20
-15.51217
 30
0.0
 10
-10.17579
 20
-15.47515
 30
0.0
 10
-10.17579
 20
-15.47515
 30
0.0
 10
-10.17579
 20
-15.47515
 30
0.0
 10
-10.17579
 20
-15.47515
 30
0.0
 10
-10.19659
 20
-15.43926
 30
0.0
 10
-10.19659
 20
-15.43926
 30
0.0
 10
-10.19659
 20
-15.43926
 30
0.0
 10
-10.19659
 20
-15.43926
 30
0.0
 10
-10.18169
 20
-15.43926
 30
0.0
 10
-10.18169
 20
-15.43926
 30
0.0
 10
-10.18169
 20
-15.43926
 30
0.0
 10
-10.18169
 20
-15.43926
 30
0.0
 10
-10.1684
 20
-15.46247
 30
0.0
 10
-10.1684
 20
-15.46247
 30
0.0
 10
-10.1684
 20
-15.46247
 30
0.0
 10
-10.1684
 20
-15.46247
 30
0.0
 10
-10.15509
 20
-15.43926
 30
0.0
 10
-10.15509
 20
-15.43926
 30
0.0
 10
-10.15509
 20
-15.43926
 30
0.0
 10
-10.15509
 20
-15.43926
 30
0.0
 10
-10.14018
 20
-15.43926
 30
0.0
 10
-10.14018
 20
-15.43926
 30
0.0
 10
-10.14018
 20
-15.43926
 30
0.0
 10
-10.14018
 20
-15.43926
 30
0.0
 10
-10.16089
 20
-15.47515
 30
0.0
 10
-10.16089
 20
-15.47515
 30
0.0
 10
-10.16089
 20
-15.47515
 30
0.0
 10
-10.16089
 20
-15.47515
 30
0.0
 10
-10.1396
 20
-15.51217
 30
0.0
 10
-10.1396
 20
-15.51217
 30
0.0
  0
ENDSEC
  0
SECTION
  2
OBJECTS
  0
DICTIONARY
  5
C
330
0
100
AcDbDictionary
281
     1
  3
ACAD_GROUP
350
D
  3
ACAD_LAYOUT
350
1A
  3
ACAD_MLEADERSTYLE
350
98
  3
ACAD_MLINESTYLE
350
17
  3
ACAD_PLOTSETTINGS
350
19
  3
ACAD_PLOTSTYLENAME
350
E
  3
ACAD_SCALELIST
350
3B
  3
ACAD_TABLESTYLE
350
97
  3
ACAD_VISUALSTYLE
350
2A
  0
DICTIONARY
  5
D
102
{ACAD_REACTORS
330
C
102
}
330
C
100
AcDbDictionary
281
     1
  0
DICTIONARY
  5
1A
102
{ACAD_REACTORS
330
C
102
}
330
C
100
AcDbDictionary
281
     1
  3
Layout1
350
1E
  3
Layout2
350
26
  3
Model
350
22
  0
DICTIONARY
  5
98
102
{ACAD_REACTORS
330
C
102
}
330
C
100
AcDbDictionary
281
     1
  0
DICTIONARY
  5
17
102
{ACAD_REACTORS
330
C
102
}
330
C
100
AcDbDictionary
281
     1
  3
Standard
350
18
  0
DICTIONARY
  5
19
102
{ACAD_REACTORS
330
C
102
}
330
C
100
AcDbDictionary
281
     1
  0
ACDBDICTIONARYWDFLT
  5
E
102
{ACAD_REACTORS
330
C
102
}
330
C
100
AcDbDictionary
281
     1
  3
Normal
350
F
100
AcDbDictionaryWithDefault
340
F
  0
DICTIONARY
  5
3B
102
{ACAD_REACTORS
330
C
102
}
330
C
100
AcDbDictionary
281
     1
  3
A0
350
3C
  3
A1
350
3D
  3
A2
350
3E
  3
A3
350
3F
  3
A4
350
40
  3
A5
350
41
  3
A6
350
42
  3
A7
350
43
  3
A8
350
44
  3
A9
350
45
  3
B0
350
46
  3
B1
350
47
  3
B2
350
48
  3
B3
350
49
  3
B4
350
4A
  3
B5
350
4B
  3
B6
350
4C
  3
B7
350
4D
  3
B8
350
4E
  3
B9
350
4F
  3
C0
350
50
  3
C1
350
51
  3
C2
350
52
  3
C3
350
53
  3
C4
350
54
  3
C5
350
55
  3
C6
350
56
  3
C7
350
57
  3
C8
350
58
  3
C9
350
59
  3
D0
350
5A
  3
D1
350
5B
  3
D2
350
5C
  0
DICTIONARY
  5
97
102
{ACAD_REACTORS
330
C
102
}
330
C
100
AcDbDictionary
281
     1
  0
DICTIONARY
  5
2A
102
{ACAD_REACTORS
330
C
102
}
330
C
100
AcDbDictionary
281
     1
  3
2dWireframe
350
2F
  3
3D Hidden
350
31
  3
3dWireframe
350
30
  3
Basic
350
32
  3
Brighten
350
36
  3
ColorChange
350
3A
  3
Conceptual
350
34
  3
Dim
350
35
  3
Facepattern
350
39
  3
Flat
350
2B
  3
FlatWithEdges
350
2C
  3
Gouraud
350
2D
  3
GouraudWithEdges
350
2E
  3
Linepattern
350
38
  3
Realistic
350
33
  3
Thicken
350
37
  0
LAYOUT
  5
1E
102
{ACAD_REACTORS
330
1A
102
}
330
1A
100
AcDbPlotSettings
  1

  2
none_device
  4

  6

 40
0.0
 41
0.0
 42
0.0
 43
0.0
 44
0.0
 45
0.0
 46
0.0
 47
0.0
 48
0.0
 49
0.0
140
0.0
141
0.0
142
1.0
143
1.0
 70
   688
 72
     0
 73
     0
 74
     5
  7

 75
    16
 76
     0
 77
     2
 78
   300
147
1.0
148
0.0
149
0.0
100
AcDbLayout
  1
Layout1
 70
     1
 71
     1
 10
0.0
 20
0.0
 11
12.0
 21
9.0
 12
0.0
 22
0.0
 32
0.0
 14
1.000000000000000E+20
 24
1.000000000000000E+20
 34
1.000000000000000E+20
 15
-1.000000000000000E+20
 25
-1.000000000000000E+20
 35
-1.000000000000000E+20
146
0.0
 13
0.0
 23
0.0
 33
0.0
 16
1.0
 26
0.0
 36
0.0
 17
0.0
 27
1.0
 37
0.0
 76
     0
330
1B
  0
LAYOUT
  5
26
102
{ACAD_REACTORS
330
1A
102
}
330
1A
100
AcDbPlotSettings
  1

  2
none_device
  4

  6

 40
0.0
 41
0.0
 42
0.0
 43
0.0
 44
0.0
 45
0.0
 46
0.0
 47
0.0
 48
0.0
 49
0.0
140
0.0
141
0.0
142
1.0
143
1.0
 70
   688
 72
     0
 73
     0
 74
     5
  7

 75
    16
 76
     0
 77
     2
 78
   300
147
1.0
148
0.0
149
0.0
100
AcDbLayout
  1
Layout2
 70
     1
 71
     2
 10
0.0
 20
0.0
 11
0.0
 21
0.0
 12
0.0
 22
0.0
 32
0.0
 14
0.0
 24
0.0
 34
0.0
 15
0.0
 25
0.0
 35
0.0
146
0.0
 13
0.0
 23
0.0
 33
0.0
 16
1.0
 26
0.0
 36
0.0
 17
0.0
 27
1.0
 37
0.0
 76
     0
330
23
  0
LAYOUT
  5
22
102
{ACAD_REACTORS
330
1A
102
}
330
1A
100
AcDbPlotSettings
  1

  2
none_device
  4

  6

 40
0.0
 41
0.0
 42
0.0
 43
0.0
 44
0.0
 45
0.0
 46
0.0
 47
0.0
 48
0.0
 49
0.0
140
0.0
141
0.0
142
1.0
143
1.0
 70
  1712
 72
     0
 73
     0
 74
     0
  7

 75
     0
 76
     0
 77
     2
 78
   300
147
1.0
148
0.0
149
0.0
100
AcDbLayout
  1
Model
 70
     1
 71
     0
 10
0.0
 20
0.0
 11
12.0
 21
9.0
 12
0.0
 22
0.0
 32
0.0
 14
-11.7
 24
-16.05
 34
0.0
 15
-9.3
 25
-13.65
 35
0.0
146
0.0
 13
0.0
 23
0.0
 33
0.0
 16
1.0
 26
0.0
 36
0.0
 17
0.0
 27
1.0
 37
0.0
 76
     0
330
1F
331
29
  0
MLINESTYLE
  5
18
102
{ACAD_REACTORS
330
17
102
}
330
17
100
AcDbMlineStyle
  2
Standard
 70
     0
  3

 62
   256
 51
90.0
 52
90.0
 71
     2
 49
0.5
 62
   256
  6
BYLAYER
 49
-0.5
 62
   256
  6
BYLAYER
  0
ACDBPLACEHOLDER
  5
F
102
{ACAD_REACTORS
330
E
102
}
330
E
  0
SCALE
  5
3C
102
{ACAD_REACTORS
330
3B
102
}
330
3B
100
AcDbScale
 70
     0
300
1:1
140
1.0
141
1.0
290
     1
  0
SCALE
  5
3D
102
{ACAD_REACTORS
330
3B
102
}
330
3B
100
AcDbScale
 70
     0
300
1:2
140
1.0
141
2.0
290
     0
  0
SCALE
  5
3E
102
{ACAD_REACTORS
330
3B
102
}
330
3B
100
AcDbScale
 70
     0
300
1:4
140
1.0
141
4.0
290
     0
  0
SCALE
  5
3F
102
{ACAD_REACTORS
330
3B
102
}
330
3B
100
AcDbScale
 70
     0
300
1:5
140
1.0
141
5.0
290
     0
  0
SCALE
  5
40
102
{ACAD_REACTORS
330
3B
102
}
330
3B
100
AcDbScale
 70
     0
300
1:8
140
1.0
141
8.0
290
     0
  0
SCALE
  5
41
102
{ACAD_REACTORS
330
3B
102
}
330
3B
100
AcDbScale
 70
     0
300
1:10
140
1.0
141
10.0
290
     0
  0
SCALE
  5
42
102
{ACAD_REACTORS
330
3B
102
}
330
3B
100
AcDbScale
 70
     0
300
1:16
140
1.0
141
16.0
290
     0
  0
SCALE
  5
43
102
{ACAD_REACTORS
330
3B
102
}
330
3B
100
AcDbScale
 70
     0
300
1:20
140
1.0
141
20.0
290
     0
  0
SCALE
  5
44
102
{ACAD_REACTORS
330
3B
102
}
330
3B
100
AcDbScale
 70
     0
300
1:30
140
1.0
141
30.0
290
     0
  0
SCALE
  5
45
102
{ACAD_REACTORS
330
3B
102
}
330
3B
100
AcDbScale
 70
     0
300
1:40
140
1.0
141
40.0
290
     0
  0
SCALE
  5
46
102
{ACAD_REACTORS
330
3B
102
}
330
3B
100
AcDbScale
 70
     0
300
1:50
140
1.0
141
50.0
290
     0
  0
SCALE
  5
47
102
{ACAD_REACTORS
330
3B
102
}
330
3B
100
AcDbScale
 70
     0
300
1:100
140
1.0
141
100.0
290
     0
  0
SCALE
  5
48
102
{ACAD_REACTORS
330
3B
102
}
330
3B
100
AcDbScale
 70
     0
300
2:1
140
2.0
141
1.0
290
     0
  0
SCALE
  5
49
102
{ACAD_REACTORS
330
3B
102
}
330
3B
100
AcDbScale
 70
     0
300
4:1
140
4.0
141
1.0
290
     0
  0
SCALE
  5
4A
102
{ACAD_REACTORS
330
3B
102
}
330
3B
100
AcDbScale
 70
     0
300
8:1
140
8.0
141
1.0
290
     0
  0
SCALE
  5
4B
102
{ACAD_REACTORS
330
3B
102
}
330
3B
100
AcDbScale
 70
     0
300
10:1
140
10.0
141
1.0
290
     0
  0
SCALE
  5
4C
102
{ACAD_REACTORS
330
3B
102
}
330
3B
100
AcDbScale
 70
     0
300
100:1
140
100.0
141
1.0
290
     0
  0
SCALE
  5
4D
102
{ACAD_REACTORS
330
3B
102
}
330
3B
100
AcDbScale
 70
     0
300
1/128" = 1'-0"
140
0.0078125
141
12.0
290
     0
  0
SCALE
  5
4E
102
{ACAD_REACTORS
330
3B
102
}
330
3B
100
AcDbScale
 70
     0
300
1/64" = 1'-0"
140
0.015625
141
12.0
290
     0
  0
SCALE
  5
4F
102
{ACAD_REACTORS
330
3B
102
}
330
3B
100
AcDbScale
 70
     0
300
1/32" = 1'-0"
140
0.03125
141
12.0
290
     0
  0
SCALE
  5
50
102
{ACAD_REACTORS
330
3B
102
}
330
3B
100
AcDbScale
 70
     0
300
1/16" = 1'-0"
140
0.0625
141
12.0
290
     0
  0
SCALE
  5
51
102
{ACAD_REACTORS
330
3B
102
}
330
3B
100
AcDbScale
 70
     0
300
3/32" = 1'-0"
140
0.09375
141
12.0
290
     0
  0
SCALE
  5
52
102
{ACAD_REACTORS
330
3B
102
}
330
3B
100
AcDbScale
 70
     0
300
1/8" = 1'-0"
140
0.125
141
12.0
290
     0
  0
SCALE
  5
53
102
{ACAD_REACTORS
330
3B
102
}
330
3B
100
AcDbScale
 70
     0
300
3/16" = 1'-0"
140
0.1875
141
12.0
290
     0
  0
SCALE
  5
54
102
{ACAD_REACTORS
330
3B
102
}
330
3B
100
AcDbScale
 70
     0
300
1/4" = 1'-0"
140
0.25
141
12.0
290
     0
  0
SCALE
  5
55
102
{ACAD_REACTORS
330
3B
102
}
330
3B
100
AcDbScale
 70
     0
300
3/8" = 1'-0"
140
0.375
141
12.0
290
     0
  0
SCALE
  5
56
102
{ACAD_REACTORS
330
3B
102
}
330
3B
100
AcDbScale
 70
     0
300
1/2" = 1'-0"
140
0.5
141
12.0
290
     0
  0
SCALE
  5
57
102
{ACAD_REACTORS
330
3B
102
}
330
3B
100
AcDbScale
 70
     0
300
3/4" = 1'-0"
140
0.75
141
12.0
290
     0
  0
SCALE
  5
58
102
{ACAD_REACTORS
330
3B
102
}
330
3B
100
AcDbScale
 70
     0
300
1" = 1'-0"
140
1.0
141
12.0
290
     0
  0
SCALE
  5
59
102
{ACAD_REACTORS
330
3B
102
}
330
3B
100
AcDbScale
 70
     0
300
1-1/2" = 1'-0"
140
1.5
141
12.0
290
     0
  0
SCALE
  5
5A
102
{ACAD_REACTORS
330
3B
102
}
330
3B
100
AcDbScale
 70
     0
300
3" = 1'-0"
140
3.0
141
12.0
290
     0
  0
SCALE
  5
5B
102
{ACAD_REACTORS
330
3B
102
}
330
3B
100
AcDbScale
 70
     0
300
6" = 1'-0"
140
6.0
141
12.0
290
     0
  0
SCALE
  5
5C
102
{ACAD_REACTORS
330
3B
102
}
330
3B
100
AcDbScale
 70
     0
300
1'-0" = 1'-0"
140
12.0
141
12.0
290
     0
  0
VISUALSTYLE
  5
2F
102
{ACAD_REACTORS
330
2A
102
}
330
2A
100
AcDbVisualStyle
  2
2dWireframe
 70
     4
 71
     0
 72
     2
 73
     0
 90
        0
 40
-0.6
 41
-30.0
 62
     5
 63
     7
421
 16777215
 74
     1
 91
        4
 64
     7
 65
   257
 75
     1
175
     1
 42
1.0
 92
        0
 66
   257
 43
1.0
 76
     1
 77
     6
 78
     2
 67
     7
 79
     5
170
     0
171
     0
290
     0
174
     0
 93
        1
 44
0.0
173
     0
291
     0
 45
0.0
  0
VISUALSTYLE
  5
31
102
{ACAD_REACTORS
330
2A
102
}
330
2A
100
AcDbVisualStyle
  2
3D Hidden
 70
     6
 71
     1
 72
     2
 73
     2
 90
        0
 40
-0.6
 41
-30.0
 62
     5
 63
     7
421
 16777215
 74
     2
 91
        2
 64
     7
 65
   257
 75
     2
175
     1
 42
40.0
 92
        0
 66
   257
 43
1.0
 76
     1
 77
     6
 78
     2
 67
     7
 79
     3
170
     0
171
     0
290
     0
174
     0
 93
        1
 44
0.0
173
     0
291
     0
 45
0.0
  0
VISUALSTYLE
  5
30
102
{ACAD_REACTORS
330
2A
102
}
330
2A
100
AcDbVisualStyle
  2
3dWireframe
 70
     5
 71
     0
 72
     2
 73
     0
 90
        0
 40
-0.6
 41
-30.0
 62
     5
 63
     7
421
 16777215
 74
     1
 91
        4
 64
     7
 65
   257
 75
     1
175
     1
 42
1.0
 92
        0
 66
   257
 43
1.0
 76
     1
 77
     6
 78
     2
 67
     7
 79
     5
170
     0
171
     0
290
     0
174
     0
 93
        1
 44
0.0
173
     0
291
     0
 45
0.0
  0
VISUALSTYLE
  5
32
102
{ACAD_REACTORS
330
2A
102
}
330
2A
100
AcDbVisualStyle
  2
Basic
 70
     7
 71
     1
 72
     0
 73
     1
 90
        0
 40
-0.6
 41
-30.0
 62
     5
 63
     7
421
 16777215
 74
     0
 91
        4
 64
     7
 65
   257
 75
     1
175
     1
 42
1.0
 92
        8
 66
     7
 43
1.0
 76
     1
 77
     6
 78
     2
 67
     7
 79
     5
170
     0
171
     0
290
     0
174
     0
 93
        1
 44
0.0
173
     0
291
     1
 45
0.0
  0
VISUALSTYLE
  5
36
102
{ACAD_REACTORS
330
2A
102
}
330
2A
100
AcDbVisualStyle
  2
Brighten
 70
    12
 71
     2
 72
     2
 73
     0
 90
        0
 40
-0.6
 41
-30.0
 62
     5
 63
     7
421
 16777215
 74
     1
 91
        4
 64
     7
 65
   257
 75
     1
175
     1
 42
1.0
 92
        8
 66
     7
 43
1.0
 76
     1
 77
     6
 78
     2
 67
     7
 79
     5
170
     0
171
     0
290
     0
174
     0
 93
        1
 44
50.0
173
     0
291
     1
 45
0.0
  0
VISUALSTYLE
  5
3A
102
{ACAD_REACTORS
330
2A
102
}
330
2A
100
AcDbVisualStyle
  2
ColorChange
 70
    16
 71
     2
 72
     2
 73
     3
 90
        0
 40
-0.6
 41
-30.0
 62
     5
 63
     8
421
  8421504
 74
     1
 91
        4
 64
     7
 65
   257
 75
     1
175
     1
 42
1.0
 92
        8
 66
     8
424
  8421504
 43
1.0
 76
     1
 77
     6
 78
     2
 67
     7
 79
     5
170
     0
171
     0
290
     0
174
     0
 93
        1
 44
0.0
173
     0
291
     1
 45
0.0
  0
VISUALSTYLE
  5
34
102
{ACAD_REACTORS
330
2A
102
}
330
2A
100
AcDbVisualStyle
  2
Conceptual
 70
     9
 71
     3
 72
     2
 73
     0
 90
        0
 40
-0.6
 41
-30.0
 62
     5
 63
     7
421
 16777215
 74
     2
 91
        2
 64
     7
 65
   257
 75
     1
175
     1
 42
40.0
 92
        8
 66
     7
 43
1.0
 76
     1
 77
     6
 78
     2
 67
     7
 79
     3
170
     0
171
     0
290
     0
174
     0
 93
        1
 44
0.0
173
     0
291
     0
 45
0.0
  0
VISUALSTYLE
  5
35
102
{ACAD_REACTORS
330
2A
102
}
330
2A
100
AcDbVisualStyle
  2
Dim
 70
    11
 71
     2
 72
     2
 73
     0
 90
        0
 40
-0.6
 41
-30.0
 62
     5
 63
     7
421
 16777215
 74
     1
 91
        4
 64
     7
 65
   257
 75
     1
175
     1
 42
1.0
 92
        8
 66
     7
 43
1.0
 76
     1
 77
     6
 78
     2
 67
     7
 79
     5
170
     0
171
     0
290
     0
174
     0
 93
        1
 44
-50.0
173
     0
291
     1
 45
0.0
  0
VISUALSTYLE
  5
39
102
{ACAD_REACTORS
330
2A
102
}
330
2A
100
AcDbVisualStyle
  2
Facepattern
 70
    15
 71
     2
 72
     2
 73
     0
 90
        0
 40
-0.6
 41
-30.0
 62
     5
 63
     7
421
 16777215
 74
     1
 91
        4
 64
     7
 65
   257
 75
     1
175
     1
 42
1.0
 92
        8
 66
     7
 43
1.0
 76
     1
 77
     6
 78
     2
 67
     7
 79
     5
170
     0
171
     0
290
     0
174
     0
 93
        1
 44
0.0
173
     0
291
     1
 45
0.0
  0
VISUALSTYLE
  5
2B
102
{ACAD_REACTORS
330
2A
102
}
330
2A
100
AcDbVisualStyle
  2
Flat
 70
     0
 71
     2
 72
     1
 73
     1
 90
        2
 40
-0.6
 41
30.0
 62
     5
 63
     7
421
 16777215
 74
     0
 91
        4
 64
     7
 65
   257
 75
     1
175
     1
 42
1.0
 92
        8
 66
     7
 43
1.0
 76
     1
 77
     6
 78
     2
 67
     7
 79
     5
170
     0
171
     0
290
     0
174
     0
 93
       13
 44
0.0
173
     0
291
     1
 45
0.0
  0
VISUALSTYLE
  5
2C
102
{ACAD_REACTORS
330
2A
102
}
330
2A
100
AcDbVisualStyle
  2
FlatWithEdges
 70
     1
 71
     2
 72
     1
 73
     1
 90
        2
 40
-0.6
 41
30.0
 62
     5
 63
     7
421
 16777215
 74
     1
 91
        4
 64
     7
 65
   257
 75
     1
175
     1
 42
1.0
 92
        0
 66
   257
 43
1.0
 76
     1
 77
     6
 78
     2
 67
     7
 79
     5
170
     0
171
     0
290
     0
174
     0
 93
       13
 44
0.0
173
     0
291
     1
 45
0.0
  0
VISUALSTYLE
  5
2D
102
{ACAD_REACTORS
330
2A
102
}
330
2A
100
AcDbVisualStyle
  2
Gouraud
 70
     2
 71
     2
 72
     2
 73
     1
 90
        2
 40
-0.6
 41
30.0
 62
     5
 63
     7
421
 16777215
 74
     0
 91
        4
 64
     7
 65
   257
 75
     1
175
     1
 42
1.0
 92
        0
 66
     7
 43
1.0
 76
     1
 77
     6
 78
     2
 67
     7
 79
     5
170
     0
171
     0
290
     0
174
     0
 93
       13
 44
0.0
173
     0
291
     1
 45
0.0
  0
VISUALSTYLE
  5
2E
102
{ACAD_REACTORS
330
2A
102
}
330
2A
100
AcDbVisualStyle
  2
GouraudWithEdges
 70
     3
 71
     2
 72
     2
 73
     1
 90
        2
 40
-0.6
 41
30.0
 62
     5
 63
     7
421
 16777215
 74
     1
 91
        4
 64
     7
 65
   257
 75
     1
175
     1
 42
1.0
 92
        0
 66
   257
 43
1.0
 76
     1
 77
     6
 78
     2
 67
     7
 79
     5
170
     0
171
     0
290
     0
174
     0
 93
       13
 44
0.0
173
     0
291
     1
 45
0.0
  0
VISUALSTYLE
  5
38
102
{ACAD_REACTORS
330
2A
102
}
330
2A
100
AcDbVisualStyle
  2
Linepattern
 70
    14
 71
     2
 72
     2
 73
     0
 90
        0
 40
-0.6
 41
-30.0
 62
     5
 63
     7
421
 16777215
 74
     1
 91
        4
 64
     7
 65
   257
 75
     7
175
     7
 42
1.0
 92
        8
 66
     7
 43
1.0
 76
     1
 77
     6
 78
     2
 67
     7
 79
     5
170
     0
171
     0
290
     0
174
     0
 93
        1
 44
0.0
173
     0
291
     1
 45
0.0
  0
VISUALSTYLE
  5
33
102
{ACAD_REACTORS
330
2A
102
}
330
2A
100
AcDbVisualStyle
  2
Realistic
 70
     8
 71
     2
 72
     2
 73
     0
 90
        0
 40
-0.6
 41
-30.0
 62
     5
 63
     7
421
 16777215
 74
     1
 91
        0
 64
     7
 65
   257
 75
     1
175
     1
 42
1.0
 92
        8
 66
     8
424
  7895160
 43
1.0
 76
     1
 77
     6
 78
     2
 67
     7
 79
     5
170
     0
171
     0
290
     0
174
     0
 93
       13
 44
0.0
173
     0
291
     0
 45
0.0
  0
VISUALSTYLE
  5
37
102
{ACAD_REACTORS
330
2A
102
}
330
2A
100
AcDbVisualStyle
  2
Thicken
 70
    13
 71
     2
 72
     2
 73
     0
 90
        0
 40
-0.6
 41
-30.0
 62
     5
 63
     7
421
 16777215
 74
     1
 91
        4
 64
     7
 65
   257
 75
     1
175
     1
 42
1.0
 92
       12
 66
     7
 43
1.0
 76
     1
 77
     6
 78
     2
 67
     7
 79
     5
170
     0
171
     0
290
     0
174
     0
 93
        1
 44
0.0
173
     0
291
     1
 45
0.0
  0
ENDSEC
  0
EOF
