  0
SECTION
  2
HEADER
  9
$ACADVER
  1
AC1021
  9
$ACADMAINTVER
 70
    25
  9
$DWGCODEPAGE
  3
ANSI_1252
  9
$INSBASE
 10
0.0
 20
0.0
 30
0.0
  9
$EXTMIN
 10
-11.5
 20
-17.85
 30
0.0
  9
$EXTMAX
 10
-9.45
 20
-9.85
 30
0.0
  9
$LIMMIN
 10
0.0
 20
0.0
  9
$LIMMAX
 10
12.0
 20
9.0
  9
$ORTHOMODE
 70
     0
  9
$REGENMODE
 70
     1
  9
$FILLMODE
 70
     1
  9
$QTEXTMODE
 70
     0
  9
$MIRRTEXT
 70
     1
  9
$LTSCALE
 40
1.0
  9
$ATTMODE
 70
     1
  9
$TEXTSIZE
 40
0.2
  9
$TRACEWID
 40
0.05
  9
$TEXTSTYLE
  7
Standard
  9
$CLAYER
  8
0
  9
$CELTYPE
  6
ByLayer
  9
$CECOLOR
 62
   256
  9
$CELTSCALE
 40
1.0
  9
$DISPSILH
 70
     0
  9
$DIMSCALE
 40
1.0
  9
$DIMASZ
 40
0.18
  9
$DIMEXO
 40
0.0625
  9
$DIMDLI
 40
0.38
  9
$DIMRND
 40
0.0
  9
$DIMDLE
 40
0.0
  9
$DIMEXE
 40
0.18
  9
$DIMTP
 40
0.0
  9
$DIMTM
 40
0.0
  9
$DIMTXT
 40
0.18
  9
$DIMCEN
 40
0.09
  9
$DIMTSZ
 40
0.0
  9
$DIMTOL
 70
     0
  9
$DIMLIM
 70
     0
  9
$DIMTIH
 70
     1
  9
$DIMTOH
 70
     1
  9
$DIMSE1
 70
     0
  9
$DIMSE2
 70
     0
  9
$DIMTAD
 70
     0
  9
$DIMZIN
 70
     0
  9
$DIMBLK
  1

  9
$DIMASO
 70
     1
  9
$DIMSHO
 70
     1
  9
$DIMPOST
  1

  9
$DIMAPOST
  1

  9
$DIMALT
 70
     0
  9
$DIMALTD
 70
     2
  9
$DIMALTF
 40
25.4
  9
$DIMLFAC
 40
1.0
  9
$DIMTOFL
 70
     0
  9
$DIMTVP
 40
0.0
  9
$DIMTIX
 70
     0
  9
$DIMSOXD
 70
     0
  9
$DIMSAH
 70
     0
  9
$DIMBLK1
  1

  9
$DIMBLK2
  1

  9
$DIMSTYLE
  2
Standard
  9
$DIMCLRD
 70
     0
  9
$DIMCLRE
 70
     0
  9
$DIMCLRT
 70
     0
  9
$DIMTFAC
 40
1.0
  9
$DIMGAP
 40
0.09
  9
$DIMJUST
 70
     0
  9
$DIMSD1
 70
     0
  9
$DIMSD2
 70
     0
  9
$DIMTOLJ
 70
     1
  9
$DIMTZIN
 70
     0
  9
$DIMALTZ
 70
     0
  9
$DIMALTTZ
 70
     0
  9
$DIMUPT
 70
     0
  9
$DIMDEC
 70
     4
  9
$DIMTDEC
 70
     4
  9
$DIMALTU
 70
     2
  9
$DIMALTTD
 70
     2
  9
$DIMTXSTY
  7
Standard
  9
$DIMAUNIT
 70
     0
  9
$DIMADEC
 70
     0
  9
$DIMALTRND
 40
0.0
  9
$DIMAZIN
 70
     0
  9
$DIMDSEP
 70
    46
  9
$DIMATFIT
 70
     3
  9
$DIMFRAC
 70
     0
  9
$DIMLDRBLK
  1

  9
$DIMLUNIT
 70
     2
  9
$DIMLWD
 70
    -2
  9
$DIMLWE
 70
    -2
  9
$DIMTMOVE
 70
     0
  9
$DIMFXL
 40
1.0
  9
$DIMFXLON
 70
     0
  9
$DIMJOGANG
 40
0.7853981633974483
  9
$DIMTFILL
 70
     0
  9
$DIMTFILLCLR
 70
     0
  9
$DIMARCSYM
 70
     0
  9
$DIMLTYPE
  6

  9
$DIMLTEX1
  6

  9
$DIMLTEX2
  6

  9
$LUNITS
 70
     2
  9
$LUPREC
 70
     4
  9
$SKETCHINC
 40
0.1
  9
$FILLETRAD
 40
0.5
  9
$AUNITS
 70
     0
  9
$AUPREC
 70
     0
  9
$MENU
  1
.
  9
$ELEVATION
 40
0.0
  9
$PELEVATION
 40
0.0
  9
$THICKNESS
 40
0.0
  9
$LIMCHECK
 70
     0
  9
$CHAMFERA
 40
0.5
  9
$CHAMFERB
 40
0.5
  9
$CHAMFERC
 40
1.0
  9
$CHAMFERD
 40
0.0
  9
$SKPOLY
 70
     0
  9
$TDCREATE
 40
2458467.393664792
  9
$TDUCREATE
 40
2458467.393664792
  9
$TDUPDATE
 40
2458467.393664803
  9
$TDUUPDATE
 40
2458467.393664803
  9
$TDINDWG
 40
0.0000000116
  9
$TDUSRTIMER
 40
0.0000000116
  9
$USRTIMER
 70
     1
  9
$ANGBASE
 50
0.0
  9
$ANGDIR
 70
     0
  9
$PDMODE
 70
     0
  9
$PDSIZE
 40
0.0
  9
$PLINEWID
 40
0.0
  9
$SPLFRAME
 70
     0
  9
$SPLINETYPE
 70
     6
  9
$SPLINESEGS
 70
     8
  9
$HANDSEED
  5
A5
  9
$SURFTAB1
 70
     6
  9
$SURFTAB2
 70
     6
  9
$SURFTYPE
 70
     6
  9
$SURFU
 70
     6
  9
$SURFV
 70
     6
  9
$UCSBASE
  2

  9
$UCSNAME
  2

  9
$UCSORG
 10
0.0
 20
0.0
 30
0.0
  9
$UCSXDIR
 10
1.0
 20
0.0
 30
0.0
  9
$UCSYDIR
 10
0.0
 20
1.0
 30
0.0
  9
$UCSORTHOREF
  2

  9
$UCSORTHOVIEW
 70
     0
  9
$UCSORGTOP
 10
0.0
 20
0.0
 30
0.0
  9
$UCSORGBOTTOM
 10
0.0
 20
0.0
 30
0.0
  9
$UCSORGLEFT
 10
0.0
 20
0.0
 30
0.0
  9
$UCSORGRIGHT
 10
0.0
 20
0.0
 30
0.0
  9
$UCSORGFRONT
 10
0.0
 20
0.0
 30
0.0
  9
$UCSORGBACK
 10
0.0
 20
0.0
 30
0.0
  9
$PUCSBASE
  2

  9
$PUCSNAME
  2

  9
$PUCSORG
 10
0.0
 20
0.0
 30
0.0
  9
$PUCSXDIR
 10
1.0
 20
0.0
 30
0.0
  9
$PUCSYDIR
 10
0.0
 20
1.0
 30
0.0
  9
$PUCSORTHOREF
  2

  9
$PUCSORTHOVIEW
 70
     0
  9
$PUCSORGTOP
 10
0.0
 20
0.0
 30
0.0
  9
$PUCSORGBOTTOM
 10
0.0
 20
0.0
 30
0.0
  9
$PUCSORGLEFT
 10
0.0
 20
0.0
 30
0.0
  9
$PUCSORGRIGHT
 10
0.0
 20
0.0
 30
0.0
  9
$PUCSORGFRONT
 10
0.0
 20
0.0
 30
0.0
  9
$PUCSORGBACK
 10
0.0
 20
0.0
 30
0.0
  9
$USERI1
 70
     0
  9
$USERI2
 70
     0
  9
$USERI3
 70
     0
  9
$USERI4
 70
     0
  9
$USERI5
 70
     0
  9
$USERR1
 40
0.0
  9
$USERR2
 40
0.0
  9
$USERR3
 40
0.0
  9
$USERR4
 40
0.0
  9
$USERR5
 40
0.0
  9
$WORLDVIEW
 70
     1
  9
$SHADEDGE
 70
     3
  9
$SHADEDIF
 70
    70
  9
$TILEMODE
 70
     1
  9
$MAXACTVP
 70
    64
  9
$PINSBASE
 10
0.0
 20
0.0
 30
0.0
  9
$PLIMCHECK
 70
     0
  9
$PEXTMIN
 10
1.000000000000000E+20
 20
1.000000000000000E+20
 30
1.000000000000000E+20
  9
$PEXTMAX
 10
-1.000000000000000E+20
 20
-1.000000000000000E+20
 30
-1.000000000000000E+20
  9
$PLIMMIN
 10
0.0
 20
0.0
  9
$PLIMMAX
 10
12.0
 20
9.0
  9
$UNITMODE
 70
     0
  9
$VISRETAIN
 70
     1
  9
$PLINEGEN
 70
     0
  9
$PSLTSCALE
 70
     1
  9
$TREEDEPTH
 70
  3020
  9
$CMLSTYLE
  2
Standard
  9
$CMLJUST
 70
     0
  9
$CMLSCALE
 40
1.0
  9
$PROXYGRAPHICS
 70
     1
  9
$MEASUREMENT
 70
     0
  9
$CELWEIGHT
370
    -1
  9
$ENDCAPS
280
     0
  9
$JOINSTYLE
280
     0
  9
$LWDISPLAY
290
     0
  9
$INSUNITS
 70
     5
  9
$HYPERLINKBASE
  1

  9
$STYLESHEET
  1

  9
$XEDIT
290
     1
  9
$CEPSNTYPE
380
     0
  9
$PSTYLEMODE
290
     1
  9
$FINGERPRINTGUID
  2
{DE9560FE-792E-4BE9-9370-C08C31652349}
  9
$VERSIONGUID
  2
{FAEB1C32-E019-11D5-929B-00C0DF256EC4}
  9
$EXTNAMES
290
     1
  9
$PSVPSCALE
 40
0.0
  9
$OLESTARTUP
290
     0
  9
$SORTENTS
280
   127
  9
$INDEXCTL
280
     0
  9
$HIDETEXT
280
     1
  9
$XCLIPFRAME
290
     0
  9
$HALOGAP
280
     0
  9
$OBSCOLOR
 70
   257
  9
$OBSLTYPE
280
     0
  9
$INTERSECTIONDISPLAY
280
     0
  9
$INTERSECTIONCOLOR
 70
   257
  9
$DIMASSOC
280
     2
  9
$PROJECTNAME
  1

  9
$CAMERADISPLAY
290
     0
  9
$LENSLENGTH
 40
50.0
  9
$CAMERAHEIGHT
 40
0.0
  9
$STEPSPERSEC
 40
2.0
  9
$STEPSIZE
 40
6.0
  9
$3DDWFPREC
 40
2.0
  9
$PSOLWIDTH
 40
0.25
  9
$PSOLHEIGHT
 40
4.0
  9
$LOFTANG1
 40
1.570796326794897
  9
$LOFTANG2
 40
1.570796326794897
  9
$LOFTMAG1
 40
0.0
  9
$LOFTMAG2
 40
0.0
  9
$LOFTPARAM
 70
     7
  9
$LOFTNORMALS
280
     1
  9
$LATITUDE
 40
37.795
  9
$LONGITUDE
 40
-122.394
  9
$NORTHDIRECTION
 40
0.0
  9
$TIMEZONE
 70
 -8000
  9
$LIGHTGLYPHDISPLAY
280
     1
  9
$TILEMODELIGHTSYNCH
280
     1
  9
$SOLIDHIST
280
     1
  9
$SHOWHIST
280
     1
  9
$DWFFRAME
280
     2
  9
$DGNFRAME
280
     2
  9
$REALWORLDSCALE
290
     1
  9
$INTERFERECOLOR
 62
   256
  9
$CSHADOW
280
     0
  9
$SHADOWPLANELOCATION
 40
0.0
  0
ENDSEC
  0
SECTION
  2
CLASSES
  0
CLASS
  1
ACDBDICTIONARYWDFLT
  2
AcDbDictionaryWithDefault
  3
ObjectDBX Classes
 90
        0
 91
        3
280
     0
281
     0
  0
CLASS
  1
VISUALSTYLE
  2
AcDbVisualStyle
  3
ObjectDBX Classes
 90
     4095
 91
        3
280
     0
281
     0
  0
CLASS
  1
SCALE
  2
AcDbScale
  3
ObjectDBX Classes
 90
     1153
 91
        3
280
     0
281
     0
  0
ENDSEC
  0
SECTION
  2
TABLES
  0
TABLE
  2
VPORT
  5
8
330
0
100
AcDbSymbolTable
 70
     1
  0
VPORT
  5
29
330
8
100
AcDbSymbolTableRecord
100
AcDbViewportTableRecord
  2
*Active
 70
     0
 10
0.0
 20
0.0
 11
1.0
 21
1.0
 12
10.42990654205607
 22
4.5
 13
0.0
 23
0.0
 14
0.5
 24
0.5
 15
0.5
 25
0.5
 16
0.0
 26
0.0
 36
1.0
 17
0.0
 27
0.0
 37
0.0
 40
9.0
 41
1.972972972850329
 42
50.0
 43
0.0
 44
0.0
 50
0.0
 51
0.0
 71
     0
 72
   100
 73
     1
 74
     3
 75
     0
 76
     0
 77
     0
 78
     0
281
     0
 65
     1
110
0.0
120
0.0
130
0.0
111
1.0
121
0.0
131
0.0
112
0.0
122
1.0
132
0.0
 79
     0
146
0.0
 60
     3
 61
     5
292
     1
282
     1
141
0.0
142
0.0
 63
   256
  0
ENDTAB
  0
TABLE
  2
LTYPE
  5
5
330
0
100
AcDbSymbolTable
 70
     1
  0
LTYPE
  5
14
330
5
100
AcDbSymbolTableRecord
100
AcDbLinetypeTableRecord
  2
ByBlock
 70
     0
  3

 72
    65
 73
     0
 40
0.0
  0
LTYPE
  5
15
330
5
100
AcDbSymbolTableRecord
100
AcDbLinetypeTableRecord
  2
ByLayer
 70
     0
  3

 72
    65
 73
     0
 40
0.0
  0
LTYPE
  5
16
330
5
100
AcDbSymbolTableRecord
100
AcDbLinetypeTableRecord
  2
Continuous
 70
     0
  3
Solid line
 72
    65
 73
     0
 40
0.0
  0
ENDTAB
  0
TABLE
  2
LAYER
  5
2
330
0
100
AcDbSymbolTable
 70
     2
  0
LAYER
  5
10
330
2
100
AcDbSymbolTableRecord
100
AcDbLayerTableRecord
  2
0
 70
     0
 62
     7
  6
Continuous
370
    -3
390
F
347
0
  0
LAYER
  5
5E
330
2
100
AcDbSymbolTableRecord
100
AcDbLayerTableRecord
  2
Layer 1
 70
     0
 62
     7
  6
Continuous
370
    -3
390
F
347
0
  0
ENDTAB
  0
TABLE
  2
STYLE
  5
3
330
0
100
AcDbSymbolTable
 70
     1
  0
STYLE
  5
11
330
3
100
AcDbSymbolTableRecord
100
AcDbTextStyleTableRecord
  2
Standard
 70
     0
 40
0.0
 41
1.0
 50
0.0
 71
     0
 42
0.2
  3
txt
  4

  0
ENDTAB
  0
TABLE
  2
VIEW
  5
6
330
0
100
AcDbSymbolTable
 70
     0
  0
ENDTAB
  0
TABLE
  2
UCS
  5
7
330
0
100
AcDbSymbolTable
 70
     0
  0
ENDTAB
  0
TABLE
  2
APPID
  5
9
330
0
100
AcDbSymbolTable
 70
     2
  0
APPID
  5
12
330
9
100
AcDbSymbolTableRecord
100
AcDbRegAppTableRecord
  2
ACAD
 70
     0
  0
APPID
  5
5D
330
9
100
AcDbSymbolTableRecord
100
AcDbRegAppTableRecord
  2
ODA
 70
     0
  0
ENDTAB
  0
TABLE
  2
DIMSTYLE
  5
A
330
0
100
AcDbSymbolTable
 70
     1
100
AcDbDimStyleTable
  0
DIMSTYLE
105
27
330
A
100
AcDbSymbolTableRecord
100
AcDbDimStyleTableRecord
  2
Standard
 70
     0
340
11
  0
ENDTAB
  0
TABLE
  2
BLOCK_RECORD
  5
1
330
0
100
AcDbSymbolTable
 70
     1
  0
BLOCK_RECORD
  5
1F
330
1
100
AcDbSymbolTableRecord
100
AcDbBlockTableRecord
  2
*Model_Space
340
22
 70
     0
280
     1
281
     0
  0
BLOCK_RECORD
  5
1B
330
1
100
AcDbSymbolTableRecord
100
AcDbBlockTableRecord
  2
*Paper_Space
340
1E
 70
     0
280
     1
281
     0
  0
BLOCK_RECORD
  5
23
330
1
100
AcDbSymbolTableRecord
100
AcDbBlockTableRecord
  2
*Paper_Space0
340
26
 70
     0
280
     1
281
     0
  0
ENDTAB
  0
ENDSEC
  0
SECTION
  2
BLOCKS
  0
BLOCK
  5
20
330
1F
100
AcDbEntity
  8
0
100
AcDbBlockBegin
  2
*Model_Space
 70
     0
 10
0.0
 20
0.0
 30
0.0
  3
*Model_Space
  1

  0
ENDBLK
  5
21
330
1F
100
AcDbEntity
  8
0
100
AcDbBlockEnd
  0
BLOCK
  5
1C
330
1B
100
AcDbEntity
 67
     1
  8
0
100
AcDbBlockBegin
  2
*Paper_Space
 70
     0
 10
0.0
 20
0.0
 30
0.0
  3
*Paper_Space
  1

  0
ENDBLK
  5
1D
330
1B
100
AcDbEntity
 67
     1
  8
0
100
AcDbBlockEnd
  0
BLOCK
  5
24
330
23
100
AcDbEntity
  8
0
100
AcDbBlockBegin
  2
*Paper_Space0
 70
     0
 10
0.0
 20
0.0
 30
0.0
  3
*Paper_Space0
  1

  0
ENDBLK
  5
25
330
23
100
AcDbEntity
  8
0
100
AcDbBlockEnd
  0
ENDSEC
  0
SECTION
  2
ENTITIES
  0
LWPOLYLINE
  5
5F
330
1F
100
AcDbEntity
  8
Layer 1
 62
     7
100
AcDbPolyline
 90
        5
 70
     1
 43
0.0
 10
-11.5
 20
-17.85
 10
-9.5
 20
-17.85
 10
-9.5
 20
-9.85
 10
-11.5
 20
-9.85
 10
-11.5
 20
-17.85
  0
LWPOLYLINE
  5
60
330
1F
100
AcDbEntity
  8
Layer 1
 62
     7
370
   100
100
AcDbPolyline
 90
        5
 70
     1
 43
0.0
 10
-11.3
 20
-17.35
 10
-10.0
 20
-17.35
 10
-10.0
 20
-12.35
 10
-11.3
 20
-12.35
 10
-11.3
 20
-17.35
  0
SPLINE
  5
61
330
1F
100
AcDbEntity
  8
Layer 1
 62
   250
370
   100
100
AcDbSpline
210
0.0
220
0.0
230
1.0
 70
    24
 71
     3
 72
     8
 73
     4
 74
     0
 42
0.0000000001
 43
0.0000000001
 40
0.0
 40
0.0
 40
0.0
 40
0.0
 40
1.0
 40
1.0
 40
1.0
 40
1.0
 10
-10.0
 20
-12.85
 30
0.0
 10
-10.0
 20
-12.85
 30
0.0
 10
-9.5
 20
-12.85
 30
0.0
 10
-9.5
 20
-12.85
 30
0.0
  0
SPLINE
  5
62
330
1F
100
AcDbEntity
  8
Layer 1
 62
   250
370
   100
100
AcDbSpline
210
0.0
220
0.0
230
1.0
 70
    24
 71
     3
 72
     8
 73
     4
 74
     0
 42
0.0000000001
 43
0.0000000001
 40
0.0
 40
0.0
 40
0.0
 40
0.0
 40
1.0
 40
1.0
 40
1.0
 40
1.0
 10
-10.0
 20
-13.85
 30
0.0
 10
-10.0
 20
-13.85
 30
0.0
 10
-9.5
 20
-13.85
 30
0.0
 10
-9.5
 20
-13.85
 30
0.0
  0
SPLINE
  5
63
330
1F
100
AcDbEntity
  8
Layer 1
 62
   250
370
   100
100
AcDbSpline
210
0.0
220
0.0
230
1.0
 70
    24
 71
     3
 72
     8
 73
     4
 74
     0
 42
0.0000000001
 43
0.0000000001
 40
0.0
 40
0.0
 40
0.0
 40
0.0
 40
1.0
 40
1.0
 40
1.0
 40
1.0
 10
-10.0
 20
-14.85
 30
0.0
 10
-10.0
 20
-14.85
 30
0.0
 10
-9.5
 20
-14.85
 30
0.0
 10
-9.5
 20
-14.85
 30
0.0
  0
SPLINE
  5
64
330
1F
100
AcDbEntity
  8
Layer 1
 62
   250
370
   100
100
AcDbSpline
210
0.0
220
0.0
230
1.0
 70
    24
 71
     3
 72
     8
 73
     4
 74
     0
 42
0.0000000001
 43
0.0000000001
 40
0.0
 40
0.0
 40
0.0
 40
0.0
 40
1.0
 40
1.0
 40
1.0
 40
1.0
 10
-10.0
 20
-15.85
 30
0.0
 10
-10.0
 20
-15.85
 30
0.0
 10
-9.5
 20
-15.85
 30
0.0
 10
-9.5
 20
-15.85
 30
0.0
  0
SPLINE
  5
65
330
1F
100
AcDbEntity
  8
Layer 1
 62
   250
370
   100
100
AcDbSpline
210
0.0
220
0.0
230
1.0
 70
    24
 71
     3
 72
     8
 73
     4
 74
     0
 42
0.0000000001
 43
0.0000000001
 40
0.0
 40
0.0
 40
0.0
 40
0.0
 40
1.0
 40
1.0
 40
1.0
 40
1.0
 10
-10.0
 20
-16.85
 30
0.0
 10
-10.0
 20
-16.85
 30
0.0
 10
-9.5
 20
-16.85
 30
0.0
 10
-9.5
 20
-16.85
 30
0.0
  0
SPLINE
  5
66
330
1F
100
AcDbEntity
  8
Layer 1
 62
   250
100
AcDbSpline
210
0.0
220
0.0
230
1.0
 70
    11
 71
     3
 72
    32
 73
    28
 74
     0
 42
0.0000000001
 43
0.0000000001
 40
0.0
 40
0.0
 40
0.0
 40
0.0
 40
0.1428571428571428
 40
0.1428571428571428
 40
0.1428571428571428
 40
0.1428571428571428
 40
0.2857142857142857
 40
0.2857142857142857
 40
0.2857142857142857
 40
0.2857142857142857
 40
0.4285714285714285
 40
0.4285714285714285
 40
0.4285714285714285
 40
0.4285714285714285
 40
0.5714285714285714
 40
0.5714285714285714
 40
0.5714285714285714
 40
0.5714285714285714
 40
0.7142857142857142
 40
0.7142857142857142
 40
0.7142857142857142
 40
0.7142857142857142
 40
0.857142857142857
 40
0.857142857142857
 40
0.857142857142857
 40
0.857142857142857
 40
1.0
 40
1.0
 40
1.0
 40
1.0
 10
-10.45533
 20
-12.81994
 30
0.0
 10
-10.45533
 20
-12.81994
 30
0.0
 10
-10.45533
 20
-12.84632
 30
0.0
 10
-10.45533
 20
-12.84632
 30
0.0
 10
-10.45533
 20
-12.84632
 30
0.0
 10
-10.45533
 20
-12.84632
 30
0.0
 10
-10.44802
 20
-12.84632
 30
0.0
 10
-10.44802
 20
-12.84632
 30
0.0
 10
-10.44802
 20
-12.84632
 30
0.0
 10
-10.4422
 20
-12.84632
 30
0.0
 10
-10.4381
 20
-12.84533
 30
0.0
 10
-10.43576
 20
-12.84338
 30
0.0
 10
-10.43576
 20
-12.84338
 30
0.0
 10
-10.43339
 20
-12.8414
 30
0.0
 10
-10.43222
 20
-12.83799
 30
0.0
 10
-10.43222
 20
-12.83313
 30
0.0
 10
-10.43222
 20
-12.83313
 30
0.0
 10
-10.43222
 20
-12.82828
 30
0.0
 10
-10.43339
 20
-12.82486
 30
0.0
 10
-10.43576
 20
-12.82288
 30
0.0
 10
-10.43576
 20
-12.82288
 30
0.0
 10
-10.4381
 20
-12.82093
 30
0.0
 10
-10.4422
 20
-12.81994
 30
0.0
 10
-10.44802
 20
-12.81994
 30
0.0
 10
-10.44802
 20
-12.81994
 30
0.0
 10
-10.44802
 20
-12.81994
 30
0.0
 10
-10.45533
 20
-12.81994
 30
0.0
 10
-10.45533
 20
-12.81994
 30
0.0
  0
SPLINE
  5
67
330
1F
100
AcDbEntity
  8
Layer 1
 62
   250
100
AcDbSpline
210
0.0
220
0.0
230
1.0
 70
    11
 71
     3
 72
    40
 73
    36
 74
     0
 42
0.0000000001
 43
0.0000000001
 40
0.0
 40
0.0
 40
0.0
 40
0.0
 40
0.1111111111111111
 40
0.1111111111111111
 40
0.1111111111111111
 40
0.1111111111111111
 40
0.2222222222222222
 40
0.2222222222222222
 40
0.2222222222222222
 40
0.2222222222222222
 40
0.3333333333333333
 40
0.3333333333333333
 40
0.3333333333333333
 40
0.3333333333333333
 40
0.4444444444444444
 40
0.4444444444444444
 40
0.4444444444444444
 40
0.4444444444444444
 40
0.5555555555555556
 40
0.5555555555555556
 40
0.5555555555555556
 40
0.5555555555555556
 40
0.6666666666666667
 40
0.6666666666666667
 40
0.6666666666666667
 40
0.6666666666666667
 40
0.7777777777777779
 40
0.7777777777777779
 40
0.7777777777777779
 40
0.7777777777777779
 40
0.8888888888888891
 40
0.8888888888888891
 40
0.8888888888888891
 40
0.8888888888888891
 40
1.0
 40
1.0
 40
1.0
 40
1.0
 10
-10.47311
 20
-12.80498
 30
0.0
 10
-10.47311
 20
-12.80498
 30
0.0
 10
-10.44868
 20
-12.80498
 30
0.0
 10
-10.44868
 20
-12.80498
 30
0.0
 10
-10.44868
 20
-12.80498
 30
0.0
 10
-10.43627
 20
-12.80498
 30
0.0
 10
-10.42734
 20
-12.80718
 30
0.0
 10
-10.42189
 20
-12.81161
 30
0.0
 10
-10.42189
 20
-12.81161
 30
0.0
 10
-10.41643
 20
-12.81603
 30
0.0
 10
-10.41372
 20
-12.82321
 30
0.0
 10
-10.41372
 20
-12.83313
 30
0.0
 10
-10.41372
 20
-12.83313
 30
0.0
 10
-10.41372
 20
-12.84305
 30
0.0
 10
-10.41643
 20
-12.85023
 30
0.0
 10
-10.42189
 20
-12.85466
 30
0.0
 10
-10.42189
 20
-12.85466
 30
0.0
 10
-10.42734
 20
-12.85908
 30
0.0
 10
-10.43627
 20
-12.86128
 30
0.0
 10
-10.44868
 20
-12.86128
 30
0.0
 10
-10.44868
 20
-12.86128
 30
0.0
 10
-10.44868
 20
-12.86128
 30
0.0
 10
-10.45533
 20
-12.86128
 30
0.0
 10
-10.45533
 20
-12.86128
 30
0.0
 10
-10.45533
 20
-12.86128
 30
0.0
 10
-10.45533
 20
-12.86128
 30
0.0
 10
-10.45533
 20
-12.89499
 30
0.0
 10
-10.45533
 20
-12.89499
 30
0.0
 10
-10.45533
 20
-12.89499
 30
0.0
 10
-10.45533
 20
-12.89499
 30
0.0
 10
-10.47311
 20
-12.89499
 30
0.0
 10
-10.47311
 20
-12.89499
 30
0.0
 10
-10.47311
 20
-12.89499
 30
0.0
 10
-10.47311
 20
-12.89499
 30
0.0
 10
-10.47311
 20
-12.80498
 30
0.0
 10
-10.47311
 20
-12.80498
 30
0.0
  0
SPLINE
  5
68
330
1F
100
AcDbEntity
  8
Layer 1
 62
   250
100
AcDbSpline
210
0.0
220
0.0
230
1.0
 70
    11
 71
     3
 72
    52
 73
    48
 74
     0
 42
0.0000000001
 43
0.0000000001
 40
0.0
 40
0.0
 40
0.0
 40
0.0
 40
0.0833333333333333
 40
0.0833333333333333
 40
0.0833333333333333
 40
0.0833333333333333
 40
0.1666666666666667
 40
0.1666666666666667
 40
0.1666666666666667
 40
0.1666666666666667
 40
0.25
 40
0.25
 40
0.25
 40
0.25
 40
0.3333333333333333
 40
0.3333333333333333
 40
0.3333333333333333
 40
0.3333333333333333
 40
0.4166666666666666
 40
0.4166666666666666
 40
0.4166666666666666
 40
0.4166666666666666
 40
0.4999999999999999
 40
0.4999999999999999
 40
0.4999999999999999
 40
0.4999999999999999
 40
0.5833333333333333
 40
0.5833333333333333
 40
0.5833333333333333
 40
0.5833333333333333
 40
0.6666666666666666
 40
0.6666666666666666
 40
0.6666666666666666
 40
0.6666666666666666
 40
0.75
 40
0.75
 40
0.75
 40
0.75
 40
0.8333333333333334
 40
0.8333333333333334
 40
0.8333333333333334
 40
0.8333333333333334
 40
0.9166666666666667
 40
0.9166666666666667
 40
0.9166666666666667
 40
0.9166666666666667
 40
1.0
 40
1.0
 40
1.0
 40
1.0
 10
-10.39818
 20
-12.82066
 30
0.0
 10
-10.39818
 20
-12.82066
 30
0.0
 10
-10.39818
 20
-12.80498
 30
0.0
 10
-10.39818
 20
-12.80498
 30
0.0
 10
-10.39818
 20
-12.80498
 30
0.0
 10
-10.39818
 20
-12.80498
 30
0.0
 10
-10.34459
 20
-12.80498
 30
0.0
 10
-10.34459
 20
-12.80498
 30
0.0
 10
-10.34459
 20
-12.80498
 30
0.0
 10
-10.34459
 20
-12.80498
 30
0.0
 10
-10.34459
 20
-12.82066
 30
0.0
 10
-10.34459
 20
-12.82066
 30
0.0
 10
-10.34459
 20
-12.82066
 30
0.0
 10
-10.34459
 20
-12.82066
 30
0.0
 10
-10.3625
 20
-12.82066
 30
0.0
 10
-10.3625
 20
-12.82066
 30
0.0
 10
-10.3625
 20
-12.82066
 30
0.0
 10
-10.3625
 20
-12.82066
 30
0.0
 10
-10.3625
 20
-12.87931
 30
0.0
 10
-10.3625
 20
-12.87931
 30
0.0
 10
-10.3625
 20
-12.87931
 30
0.0
 10
-10.3625
 20
-12.87931
 30
0.0
 10
-10.34459
 20
-12.87931
 30
0.0
 10
-10.34459
 20
-12.87931
 30
0.0
 10
-10.34459
 20
-12.87931
 30
0.0
 10
-10.34459
 20
-12.87931
 30
0.0
 10
-10.34459
 20
-12.89499
 30
0.0
 10
-10.34459
 20
-12.89499
 30
0.0
 10
-10.34459
 20
-12.89499
 30
0.0
 10
-10.34459
 20
-12.89499
 30
0.0
 10
-10.39818
 20
-12.89499
 30
0.0
 10
-10.39818
 20
-12.89499
 30
0.0
 10
-10.39818
 20
-12.89499
 30
0.0
 10
-10.39818
 20
-12.89499
 30
0.0
 10
-10.39818
 20
-12.87931
 30
0.0
 10
-10.39818
 20
-12.87931
 30
0.0
 10
-10.39818
 20
-12.87931
 30
0.0
 10
-10.39818
 20
-12.87931
 30
0.0
 10
-10.38028
 20
-12.87931
 30
0.0
 10
-10.38028
 20
-12.87931
 30
0.0
 10
-10.38028
 20
-12.87931
 30
0.0
 10
-10.38028
 20
-12.87931
 30
0.0
 10
-10.38028
 20
-12.82066
 30
0.0
 10
-10.38028
 20
-12.82066
 30
0.0
 10
-10.38028
 20
-12.82066
 30
0.0
 10
-10.38028
 20
-12.82066
 30
0.0
 10
-10.39818
 20
-12.82066
 30
0.0
 10
-10.39818
 20
-12.82066
 30
0.0
  0
SPLINE
  5
69
330
1F
100
AcDbEntity
  8
Layer 1
 62
   250
100
AcDbSpline
210
0.0
220
0.0
230
1.0
 70
    11
 71
     3
 72
    44
 73
    40
 74
     0
 42
0.0000000001
 43
0.0000000001
 40
0.0
 40
0.0
 40
0.0
 40
0.0
 40
0.1
 40
0.1
 40
0.1
 40
0.1
 40
0.2
 40
0.2
 40
0.2
 40
0.2
 40
0.3
 40
0.3
 40
0.3
 40
0.3
 40
0.4
 40
0.4
 40
0.4
 40
0.4
 40
0.5
 40
0.5
 40
0.5
 40
0.5
 40
0.6
 40
0.6
 40
0.6
 40
0.6
 40
0.7
 40
0.7
 40
0.7
 40
0.7
 40
0.7999999999999999
 40
0.7999999999999999
 40
0.7999999999999999
 40
0.7999999999999999
 40
0.8999999999999999
 40
0.8999999999999999
 40
0.8999999999999999
 40
0.8999999999999999
 40
1.0
 40
1.0
 40
1.0
 40
1.0
 10
-10.32704
 20
-12.80498
 30
0.0
 10
-10.32704
 20
-12.80498
 30
0.0
 10
-10.30792
 20
-12.80498
 30
0.0
 10
-10.30792
 20
-12.80498
 30
0.0
 10
-10.30792
 20
-12.80498
 30
0.0
 10
-10.30792
 20
-12.80498
 30
0.0
 10
-10.28286
 20
-12.8704
 30
0.0
 10
-10.28286
 20
-12.8704
 30
0.0
 10
-10.28286
 20
-12.8704
 30
0.0
 10
-10.28286
 20
-12.8704
 30
0.0
 10
-10.28286
 20
-12.80498
 30
0.0
 10
-10.28286
 20
-12.80498
 30
0.0
 10
-10.28286
 20
-12.80498
 30
0.0
 10
-10.28286
 20
-12.80498
 30
0.0
 10
-10.26718
 20
-12.80498
 30
0.0
 10
-10.26718
 20
-12.80498
 30
0.0
 10
-10.26718
 20
-12.80498
 30
0.0
 10
-10.26718
 20
-12.80498
 30
0.0
 10
-10.26718
 20
-12.89499
 30
0.0
 10
-10.26718
 20
-12.89499
 30
0.0
 10
-10.26718
 20
-12.89499
 30
0.0
 10
-10.26718
 20
-12.89499
 30
0.0
 10
-10.28617
 20
-12.89499
 30
0.0
 10
-10.28617
 20
-12.89499
 30
0.0
 10
-10.28617
 20
-12.89499
 30
0.0
 10
-10.28617
 20
-12.89499
 30
0.0
 10
-10.31136
 20
-12.82957
 30
0.0
 10
-10.31136
 20
-12.82957
 30
0.0
 10
-10.31136
 20
-12.82957
 30
0.0
 10
-10.31136
 20
-12.82957
 30
0.0
 10
-10.31136
 20
-12.89499
 30
0.0
 10
-10.31136
 20
-12.89499
 30
0.0
 10
-10.31136
 20
-12.89499
 30
0.0
 10
-10.31136
 20
-12.89499
 30
0.0
 10
-10.32704
 20
-12.89499
 30
0.0
 10
-10.32704
 20
-12.89499
 30
0.0
 10
-10.32704
 20
-12.89499
 30
0.0
 10
-10.32704
 20
-12.89499
 30
0.0
 10
-10.32704
 20
-12.80498
 30
0.0
 10
-10.32704
 20
-12.80498
 30
0.0
  0
SPLINE
  5
6A
330
1F
100
AcDbEntity
  8
Layer 1
 62
   250
100
AcDbSpline
210
0.0
220
0.0
230
1.0
 70
    11
 71
     3
 72
    48
 73
    44
 74
     0
 42
0.0000000001
 43
0.0000000001
 40
0.0
 40
0.0
 40
0.0
 40
0.0
 40
0.0909090909090909
 40
0.0909090909090909
 40
0.0909090909090909
 40
0.0909090909090909
 40
0.1818181818181818
 40
0.1818181818181818
 40
0.1818181818181818
 40
0.1818181818181818
 40
0.2727272727272727
 40
0.2727272727272727
 40
0.2727272727272727
 40
0.2727272727272727
 40
0.3636363636363636
 40
0.3636363636363636
 40
0.3636363636363636
 40
0.3636363636363636
 40
0.4545454545454546
 40
0.4545454545454546
 40
0.4545454545454546
 40
0.4545454545454546
 40
0.5454545454545455
 40
0.5454545454545455
 40
0.5454545454545455
 40
0.5454545454545455
 40
0.6363636363636365
 40
0.6363636363636365
 40
0.6363636363636365
 40
0.6363636363636365
 40
0.7272727272727274
 40
0.7272727272727274
 40
0.7272727272727274
 40
0.7272727272727274
 40
0.8181818181818183
 40
0.8181818181818183
 40
0.8181818181818183
 40
0.8181818181818183
 40
0.9090909090909093
 40
0.9090909090909093
 40
0.9090909090909093
 40
0.9090909090909093
 40
1.0
 40
1.0
 40
1.0
 40
1.0
 10
-10.17422
 20
-12.87931
 30
0.0
 10
-10.17422
 20
-12.87931
 30
0.0
 10
-10.15432
 20
-12.87931
 30
0.0
 10
-10.15432
 20
-12.87931
 30
0.0
 10
-10.15432
 20
-12.87931
 30
0.0
 10
-10.15432
 20
-12.87931
 30
0.0
 10
-10.15432
 20
-12.82089
 30
0.0
 10
-10.15432
 20
-12.82089
 30
0.0
 10
-10.15432
 20
-12.82089
 30
0.0
 10
-10.15432
 20
-12.82089
 30
0.0
 10
-10.17282
 20
-12.82548
 30
0.0
 10
-10.17282
 20
-12.82548
 30
0.0
 10
-10.17282
 20
-12.82548
 30
0.0
 10
-10.17282
 20
-12.82548
 30
0.0
 10
-10.17282
 20
-12.80945
 30
0.0
 10
-10.17282
 20
-12.80945
 30
0.0
 10
-10.17282
 20
-12.80945
 30
0.0
 10
-10.17282
 20
-12.80945
 30
0.0
 10
-10.1542
 20
-12.80498
 30
0.0
 10
-10.1542
 20
-12.80498
 30
0.0
 10
-10.1542
 20
-12.80498
 30
0.0
 10
-10.1542
 20
-12.80498
 30
0.0
 10
-10.13702
 20
-12.80498
 30
0.0
 10
-10.13702
 20
-12.80498
 30
0.0
 10
-10.13702
 20
-12.80498
 30
0.0
 10
-10.13702
 20
-12.80498
 30
0.0
 10
-10.13702
 20
-12.87931
 30
0.0
 10
-10.13702
 20
-12.87931
 30
0.0
 10
-10.13702
 20
-12.87931
 30
0.0
 10
-10.13702
 20
-12.87931
 30
0.0
 10
-10.11712
 20
-12.87931
 30
0.0
 10
-10.11712
 20
-12.87931
 30
0.0
 10
-10.11712
 20
-12.87931
 30
0.0
 10
-10.11712
 20
-12.87931
 30
0.0
 10
-10.11712
 20
-12.89499
 30
0.0
 10
-10.11712
 20
-12.89499
 30
0.0
 10
-10.11712
 20
-12.89499
 30
0.0
 10
-10.11712
 20
-12.89499
 30
0.0
 10
-10.17422
 20
-12.89499
 30
0.0
 10
-10.17422
 20
-12.89499
 30
0.0
 10
-10.17422
 20
-12.89499
 30
0.0
 10
-10.17422
 20
-12.89499
 30
0.0
 10
-10.17422
 20
-12.87931
 30
0.0
 10
-10.17422
 20
-12.87931
 30
0.0
  0
SPLINE
  5
6B
330
1F
100
AcDbEntity
  8
Layer 1
 62
   250
100
AcDbSpline
210
0.0
220
0.0
230
1.0
 70
    11
 71
     3
 72
    32
 73
    28
 74
     0
 42
0.0000000001
 43
0.0000000001
 40
0.0
 40
0.0
 40
0.0
 40
0.0
 40
0.1428571428571428
 40
0.1428571428571428
 40
0.1428571428571428
 40
0.1428571428571428
 40
0.2857142857142857
 40
0.2857142857142857
 40
0.2857142857142857
 40
0.2857142857142857
 40
0.4285714285714285
 40
0.4285714285714285
 40
0.4285714285714285
 40
0.4285714285714285
 40
0.5714285714285714
 40
0.5714285714285714
 40
0.5714285714285714
 40
0.5714285714285714
 40
0.7142857142857142
 40
0.7142857142857142
 40
0.7142857142857142
 40
0.7142857142857142
 40
0.857142857142857
 40
0.857142857142857
 40
0.857142857142857
 40
0.857142857142857
 40
1.0
 40
1.0
 40
1.0
 40
1.0
 10
-10.45315
 20
-13.82077
 30
0.0
 10
-10.45315
 20
-13.82077
 30
0.0
 10
-10.45315
 20
-13.84715
 30
0.0
 10
-10.45315
 20
-13.84715
 30
0.0
 10
-10.45315
 20
-13.84715
 30
0.0
 10
-10.45315
 20
-13.84715
 30
0.0
 10
-10.44584
 20
-13.84715
 30
0.0
 10
-10.44584
 20
-13.84715
 30
0.0
 10
-10.44584
 20
-13.84715
 30
0.0
 10
-10.44002
 20
-13.84715
 30
0.0
 10
-10.43592
 20
-13.84616
 30
0.0
 10
-10.43358
 20
-13.84421
 30
0.0
 10
-10.43358
 20
-13.84421
 30
0.0
 10
-10.43121
 20
-13.84223
 30
0.0
 10
-10.43004
 20
-13.83882
 30
0.0
 10
-10.43004
 20
-13.83396
 30
0.0
 10
-10.43004
 20
-13.83396
 30
0.0
 10
-10.43004
 20
-13.82911
 30
0.0
 10
-10.43121
 20
-13.82569
 30
0.0
 10
-10.43358
 20
-13.82371
 30
0.0
 10
-10.43358
 20
-13.82371
 30
0.0
 10
-10.43592
 20
-13.82176
 30
0.0
 10
-10.44002
 20
-13.82077
 30
0.0
 10
-10.44584
 20
-13.82077
 30
0.0
 10
-10.44584
 20
-13.82077
 30
0.0
 10
-10.44584
 20
-13.82077
 30
0.0
 10
-10.45315
 20
-13.82077
 30
0.0
 10
-10.45315
 20
-13.82077
 30
0.0
  0
SPLINE
  5
6C
330
1F
100
AcDbEntity
  8
Layer 1
 62
   250
100
AcDbSpline
210
0.0
220
0.0
230
1.0
 70
    11
 71
     3
 72
    40
 73
    36
 74
     0
 42
0.0000000001
 43
0.0000000001
 40
0.0
 40
0.0
 40
0.0
 40
0.0
 40
0.1111111111111111
 40
0.1111111111111111
 40
0.1111111111111111
 40
0.1111111111111111
 40
0.2222222222222222
 40
0.2222222222222222
 40
0.2222222222222222
 40
0.2222222222222222
 40
0.3333333333333333
 40
0.3333333333333333
 40
0.3333333333333333
 40
0.3333333333333333
 40
0.4444444444444444
 40
0.4444444444444444
 40
0.4444444444444444
 40
0.4444444444444444
 40
0.5555555555555556
 40
0.5555555555555556
 40
0.5555555555555556
 40
0.5555555555555556
 40
0.6666666666666667
 40
0.6666666666666667
 40
0.6666666666666667
 40
0.6666666666666667
 40
0.7777777777777779
 40
0.7777777777777779
 40
0.7777777777777779
 40
0.7777777777777779
 40
0.8888888888888891
 40
0.8888888888888891
 40
0.8888888888888891
 40
0.8888888888888891
 40
1.0
 40
1.0
 40
1.0
 40
1.0
 10
-10.47093
 20
-13.80581
 30
0.0
 10
-10.47093
 20
-13.80581
 30
0.0
 10
-10.4465
 20
-13.80581
 30
0.0
 10
-10.4465
 20
-13.80581
 30
0.0
 10
-10.4465
 20
-13.80581
 30
0.0
 10
-10.43409
 20
-13.80581
 30
0.0
 10
-10.42516
 20
-13.80801
 30
0.0
 10
-10.41971
 20
-13.81244
 30
0.0
 10
-10.41971
 20
-13.81244
 30
0.0
 10
-10.41425
 20
-13.81686
 30
0.0
 10
-10.41154
 20
-13.82404
 30
0.0
 10
-10.41154
 20
-13.83396
 30
0.0
 10
-10.41154
 20
-13.83396
 30
0.0
 10
-10.41154
 20
-13.84388
 30
0.0
 10
-10.41425
 20
-13.85106
 30
0.0
 10
-10.41971
 20
-13.85549
 30
0.0
 10
-10.41971
 20
-13.85549
 30
0.0
 10
-10.42516
 20
-13.85991
 30
0.0
 10
-10.43409
 20
-13.86211
 30
0.0
 10
-10.4465
 20
-13.86211
 30
0.0
 10
-10.4465
 20
-13.86211
 30
0.0
 10
-10.4465
 20
-13.86211
 30
0.0
 10
-10.45315
 20
-13.86211
 30
0.0
 10
-10.45315
 20
-13.86211
 30
0.0
 10
-10.45315
 20
-13.86211
 30
0.0
 10
-10.45315
 20
-13.86211
 30
0.0
 10
-10.45315
 20
-13.89582
 30
0.0
 10
-10.45315
 20
-13.89582
 30
0.0
 10
-10.45315
 20
-13.89582
 30
0.0
 10
-10.45315
 20
-13.89582
 30
0.0
 10
-10.47093
 20
-13.89582
 30
0.0
 10
-10.47093
 20
-13.89582
 30
0.0
 10
-10.47093
 20
-13.89582
 30
0.0
 10
-10.47093
 20
-13.89582
 30
0.0
 10
-10.47093
 20
-13.80581
 30
0.0
 10
-10.47093
 20
-13.80581
 30
0.0
  0
SPLINE
  5
6D
330
1F
100
AcDbEntity
  8
Layer 1
 62
   250
100
AcDbSpline
210
0.0
220
0.0
230
1.0
 70
    11
 71
     3
 72
    52
 73
    48
 74
     0
 42
0.0000000001
 43
0.0000000001
 40
0.0
 40
0.0
 40
0.0
 40
0.0
 40
0.0833333333333333
 40
0.0833333333333333
 40
0.0833333333333333
 40
0.0833333333333333
 40
0.1666666666666667
 40
0.1666666666666667
 40
0.1666666666666667
 40
0.1666666666666667
 40
0.25
 40
0.25
 40
0.25
 40
0.25
 40
0.3333333333333333
 40
0.3333333333333333
 40
0.3333333333333333
 40
0.3333333333333333
 40
0.4166666666666666
 40
0.4166666666666666
 40
0.4166666666666666
 40
0.4166666666666666
 40
0.4999999999999999
 40
0.4999999999999999
 40
0.4999999999999999
 40
0.4999999999999999
 40
0.5833333333333333
 40
0.5833333333333333
 40
0.5833333333333333
 40
0.5833333333333333
 40
0.6666666666666666
 40
0.6666666666666666
 40
0.6666666666666666
 40
0.6666666666666666
 40
0.75
 40
0.75
 40
0.75
 40
0.75
 40
0.8333333333333334
 40
0.8333333333333334
 40
0.8333333333333334
 40
0.8333333333333334
 40
0.9166666666666667
 40
0.9166666666666667
 40
0.9166666666666667
 40
0.9166666666666667
 40
1.0
 40
1.0
 40
1.0
 40
1.0
 10
-10.396
 20
-13.82149
 30
0.0
 10
-10.396
 20
-13.82149
 30
0.0
 10
-10.396
 20
-13.80581
 30
0.0
 10
-10.396
 20
-13.80581
 30
0.0
 10
-10.396
 20
-13.80581
 30
0.0
 10
-10.396
 20
-13.80581
 30
0.0
 10
-10.34241
 20
-13.80581
 30
0.0
 10
-10.34241
 20
-13.80581
 30
0.0
 10
-10.34241
 20
-13.80581
 30
0.0
 10
-10.34241
 20
-13.80581
 30
0.0
 10
-10.34241
 20
-13.82149
 30
0.0
 10
-10.34241
 20
-13.82149
 30
0.0
 10
-10.34241
 20
-13.82149
 30
0.0
 10
-10.34241
 20
-13.82149
 30
0.0
 10
-10.36032
 20
-13.82149
 30
0.0
 10
-10.36032
 20
-13.82149
 30
0.0
 10
-10.36032
 20
-13.82149
 30
0.0
 10
-10.36032
 20
-13.82149
 30
0.0
 10
-10.36032
 20
-13.88014
 30
0.0
 10
-10.36032
 20
-13.88014
 30
0.0
 10
-10.36032
 20
-13.88014
 30
0.0
 10
-10.36032
 20
-13.88014
 30
0.0
 10
-10.34241
 20
-13.88014
 30
0.0
 10
-10.34241
 20
-13.88014
 30
0.0
 10
-10.34241
 20
-13.88014
 30
0.0
 10
-10.34241
 20
-13.88014
 30
0.0
 10
-10.34241
 20
-13.89582
 30
0.0
 10
-10.34241
 20
-13.89582
 30
0.0
 10
-10.34241
 20
-13.89582
 30
0.0
 10
-10.34241
 20
-13.89582
 30
0.0
 10
-10.396
 20
-13.89582
 30
0.0
 10
-10.396
 20
-13.89582
 30
0.0
 10
-10.396
 20
-13.89582
 30
0.0
 10
-10.396
 20
-13.89582
 30
0.0
 10
-10.396
 20
-13.88014
 30
0.0
 10
-10.396
 20
-13.88014
 30
0.0
 10
-10.396
 20
-13.88014
 30
0.0
 10
-10.396
 20
-13.88014
 30
0.0
 10
-10.3781
 20
-13.88014
 30
0.0
 10
-10.3781
 20
-13.88014
 30
0.0
 10
-10.3781
 20
-13.88014
 30
0.0
 10
-10.3781
 20
-13.88014
 30
0.0
 10
-10.3781
 20
-13.82149
 30
0.0
 10
-10.3781
 20
-13.82149
 30
0.0
 10
-10.3781
 20
-13.82149
 30
0.0
 10
-10.3781
 20
-13.82149
 30
0.0
 10
-10.396
 20
-13.82149
 30
0.0
 10
-10.396
 20
-13.82149
 30
0.0
  0
SPLINE
  5
6E
330
1F
100
AcDbEntity
  8
Layer 1
 62
   250
100
AcDbSpline
210
0.0
220
0.0
230
1.0
 70
    11
 71
     3
 72
    44
 73
    40
 74
     0
 42
0.0000000001
 43
0.0000000001
 40
0.0
 40
0.0
 40
0.0
 40
0.0
 40
0.1
 40
0.1
 40
0.1
 40
0.1
 40
0.2
 40
0.2
 40
0.2
 40
0.2
 40
0.3
 40
0.3
 40
0.3
 40
0.3
 40
0.4
 40
0.4
 40
0.4
 40
0.4
 40
0.5
 40
0.5
 40
0.5
 40
0.5
 40
0.6
 40
0.6
 40
0.6
 40
0.6
 40
0.7
 40
0.7
 40
0.7
 40
0.7
 40
0.7999999999999999
 40
0.7999999999999999
 40
0.7999999999999999
 40
0.7999999999999999
 40
0.8999999999999999
 40
0.8999999999999999
 40
0.8999999999999999
 40
0.8999999999999999
 40
1.0
 40
1.0
 40
1.0
 40
1.0
 10
-10.32486
 20
-13.80581
 30
0.0
 10
-10.32486
 20
-13.80581
 30
0.0
 10
-10.30574
 20
-13.80581
 30
0.0
 10
-10.30574
 20
-13.80581
 30
0.0
 10
-10.30574
 20
-13.80581
 30
0.0
 10
-10.30574
 20
-13.80581
 30
0.0
 10
-10.28068
 20
-13.87123
 30
0.0
 10
-10.28068
 20
-13.87123
 30
0.0
 10
-10.28068
 20
-13.87123
 30
0.0
 10
-10.28068
 20
-13.87123
 30
0.0
 10
-10.28068
 20
-13.80581
 30
0.0
 10
-10.28068
 20
-13.80581
 30
0.0
 10
-10.28068
 20
-13.80581
 30
0.0
 10
-10.28068
 20
-13.80581
 30
0.0
 10
-10.265
 20
-13.80581
 30
0.0
 10
-10.265
 20
-13.80581
 30
0.0
 10
-10.265
 20
-13.80581
 30
0.0
 10
-10.265
 20
-13.80581
 30
0.0
 10
-10.265
 20
-13.89582
 30
0.0
 10
-10.265
 20
-13.89582
 30
0.0
 10
-10.265
 20
-13.89582
 30
0.0
 10
-10.265
 20
-13.89582
 30
0.0
 10
-10.28399
 20
-13.89582
 30
0.0
 10
-10.28399
 20
-13.89582
 30
0.0
 10
-10.28399
 20
-13.89582
 30
0.0
 10
-10.28399
 20
-13.89582
 30
0.0
 10
-10.30918
 20
-13.8304
 30
0.0
 10
-10.30918
 20
-13.8304
 30
0.0
 10
-10.30918
 20
-13.8304
 30
0.0
 10
-10.30918
 20
-13.8304
 30
0.0
 10
-10.30918
 20
-13.89582
 30
0.0
 10
-10.30918
 20
-13.89582
 30
0.0
 10
-10.30918
 20
-13.89582
 30
0.0
 10
-10.30918
 20
-13.89582
 30
0.0
 10
-10.32486
 20
-13.89582
 30
0.0
 10
-10.32486
 20
-13.89582
 30
0.0
 10
-10.32486
 20
-13.89582
 30
0.0
 10
-10.32486
 20
-13.89582
 30
0.0
 10
-10.32486
 20
-13.80581
 30
0.0
 10
-10.32486
 20
-13.80581
 30
0.0
  0
SPLINE
  5
6F
330
1F
100
AcDbEntity
  8
Layer 1
 62
   250
100
AcDbSpline
210
0.0
220
0.0
230
1.0
 70
    11
 71
     3
 72
    88
 73
    84
 74
     0
 42
0.0000000001
 43
0.0000000001
 40
0.0
 40
0.0
 40
0.0
 40
0.0
 40
0.0476190476190476
 40
0.0476190476190476
 40
0.0476190476190476
 40
0.0476190476190476
 40
0.0952380952380952
 40
0.0952380952380952
 40
0.0952380952380952
 40
0.0952380952380952
 40
0.1428571428571428
 40
0.1428571428571428
 40
0.1428571428571428
 40
0.1428571428571428
 40
0.1904761904761905
 40
0.1904761904761905
 40
0.1904761904761905
 40
0.1904761904761905
 40
0.2380952380952381
 40
0.2380952380952381
 40
0.2380952380952381
 40
0.2380952380952381
 40
0.2857142857142857
 40
0.2857142857142857
 40
0.2857142857142857
 40
0.2857142857142857
 40
0.3333333333333333
 40
0.3333333333333333
 40
0.3333333333333333
 40
0.3333333333333333
 40
0.3809523809523809
 40
0.3809523809523809
 40
0.3809523809523809
 40
0.3809523809523809
 40
0.4285714285714285
 40
0.4285714285714285
 40
0.4285714285714285
 40
0.4285714285714285
 40
0.4761904761904762
 40
0.4761904761904762
 40
0.4761904761904762
 40
0.4761904761904762
 40
0.5238095238095237
 40
0.5238095238095237
 40
0.5238095238095237
 40
0.5238095238095237
 40
0.5714285714285714
 40
0.5714285714285714
 40
0.5714285714285714
 40
0.5714285714285714
 40
0.6190476190476191
 40
0.6190476190476191
 40
0.6190476190476191
 40
0.6190476190476191
 40
0.6666666666666667
 40
0.6666666666666667
 40
0.6666666666666667
 40
0.6666666666666667
 40
0.7142857142857144
 40
0.7142857142857144
 40
0.7142857142857144
 40
0.7142857142857144
 40
0.7619047619047621
 40
0.7619047619047621
 40
0.7619047619047621
 40
0.7619047619047621
 40
0.8095238095238098
 40
0.8095238095238098
 40
0.8095238095238098
 40
0.8095238095238098
 40
0.8571428571428574
 40
0.8571428571428574
 40
0.8571428571428574
 40
0.8571428571428574
 40
0.9047619047619051
 40
0.9047619047619051
 40
0.9047619047619051
 40
0.9047619047619051
 40
0.9523809523809528
 40
0.9523809523809528
 40
0.9523809523809528
 40
0.9523809523809528
 40
1.0
 40
1.0
 40
1.0
 40
1.0
 10
-10.15722
 20
-13.88014
 30
0.0
 10
-10.15722
 20
-13.88014
 30
0.0
 10
-10.1193
 20
-13.88014
 30
0.0
 10
-10.1193
 20
-13.88014
 30
0.0
 10
-10.1193
 20
-13.88014
 30
0.0
 10
-10.1193
 20
-13.88014
 30
0.0
 10
-10.1193
 20
-13.89582
 30
0.0
 10
-10.1193
 20
-13.89582
 30
0.0
 10
-10.1193
 20
-13.89582
 30
0.0
 10
-10.1193
 20
-13.89582
 30
0.0
 10
-10.17645
 20
-13.89582
 30
0.0
 10
-10.17645
 20
-13.89582
 30
0.0
 10
-10.17645
 20
-13.89582
 30
0.0
 10
-10.17645
 20
-13.89582
 30
0.0
 10
-10.17645
 20
-13.88061
 30
0.0
 10
-10.17645
 20
-13.88061
 30
0.0
 10
-10.17645
 20
-13.88061
 30
0.0
 10
-10.17645
 20
-13.88061
 30
0.0
 10
-10.16679
 20
-13.87039
 30
0.0
 10
-10.16679
 20
-13.87039
 30
0.0
 10
-10.16679
 20
-13.87039
 30
0.0
 10
-10.15535
 20
-13.8582
 30
0.0
 10
-10.1484
 20
-13.85071
 30
0.0
 10
-10.14595
 20
-13.84789
 30
0.0
 10
-10.14595
 20
-13.84789
 30
0.0
 10
-10.14294
 20
-13.84444
 30
0.0
 10
-10.14076
 20
-13.84137
 30
0.0
 10
-10.13945
 20
-13.83869
 30
0.0
 10
-10.13945
 20
-13.83869
 30
0.0
 10
-10.13811
 20
-13.83602
 30
0.0
 10
-10.13745
 20
-13.83339
 30
0.0
 10
-10.13745
 20
-13.83077
 30
0.0
 10
-10.13745
 20
-13.83077
 30
0.0
 10
-10.13745
 20
-13.82676
 30
0.0
 10
-10.13866
 20
-13.82365
 30
0.0
 10
-10.14109
 20
-13.82147
 30
0.0
 10
-10.14109
 20
-13.82147
 30
0.0
 10
-10.14352
 20
-13.81927
 30
0.0
 10
-10.14698
 20
-13.81818
 30
0.0
 10
-10.15142
 20
-13.81818
 30
0.0
 10
-10.15142
 20
-13.81818
 30
0.0
 10
-10.15461
 20
-13.81818
 30
0.0
 10
-10.15817
 20
-13.81882
 30
0.0
 10
-10.16212
 20
-13.82007
 30
0.0
 10
-10.16212
 20
-13.82007
 30
0.0
 10
-10.16609
 20
-13.82135
 30
0.0
 10
-10.17021
 20
-13.82318
 30
0.0
 10
-10.17451
 20
-13.82559
 30
0.0
 10
-10.17451
 20
-13.82559
 30
0.0
 10
-10.17451
 20
-13.82559
 30
0.0
 10
-10.17451
 20
-13.809
 30
0.0
 10
-10.17451
 20
-13.809
 30
0.0
 10
-10.17451
 20
-13.809
 30
0.0
 10
-10.17021
 20
-13.80744
 30
0.0
 10
-10.16601
 20
-13.80624
 30
0.0
 10
-10.16188
 20
-13.80542
 30
0.0
 10
-10.16188
 20
-13.80542
 30
0.0
 10
-10.15776
 20
-13.8046
 30
0.0
 10
-10.15381
 20
-13.80418
 30
0.0
 10
-10.15004
 20
-13.80418
 30
0.0
 10
-10.15004
 20
-13.80418
 30
0.0
 10
-10.14052
 20
-13.80418
 30
0.0
 10
-10.13302
 20
-13.80641
 30
0.0
 10
-10.12759
 20
-13.81085
 30
0.0
 10
-10.12759
 20
-13.81085
 30
0.0
 10
-10.12214
 20
-13.81528
 30
0.0
 10
-10.11942
 20
-13.82135
 30
0.0
 10
-10.11942
 20
-13.82902
 30
0.0
 10
-10.11942
 20
-13.82902
 30
0.0
 10
-10.11942
 20
-13.83256
 30
0.0
 10
-10.12002
 20
-13.83588
 30
0.0
 10
-10.12119
 20
-13.83896
 30
0.0
 10
-10.12119
 20
-13.83896
 30
0.0
 10
-10.12239
 20
-13.84207
 30
0.0
 10
-10.12442
 20
-13.84551
 30
0.0
 10
-10.12732
 20
-13.84927
 30
0.0
 10
-10.12732
 20
-13.84927
 30
0.0
 10
-10.12944
 20
-13.85201
 30
0.0
 10
-10.13529
 20
-13.85816
 30
0.0
 10
-10.14486
 20
-13.86773
 30
0.0
 10
-10.14486
 20
-13.86773
 30
0.0
 10
-10.15004
 20
-13.8729
 30
0.0
 10
-10.15416
 20
-13.87705
 30
0.0
 10
-10.15722
 20
-13.88014
 30
0.0
  0
SPLINE
  5
70
330
1F
100
AcDbEntity
  8
Layer 1
 62
   250
100
AcDbSpline
210
0.0
220
0.0
230
1.0
 70
    11
 71
     3
 72
    32
 73
    28
 74
     0
 42
0.0000000001
 43
0.0000000001
 40
0.0
 40
0.0
 40
0.0
 40
0.0
 40
0.1428571428571428
 40
0.1428571428571428
 40
0.1428571428571428
 40
0.1428571428571428
 40
0.2857142857142857
 40
0.2857142857142857
 40
0.2857142857142857
 40
0.2857142857142857
 40
0.4285714285714285
 40
0.4285714285714285
 40
0.4285714285714285
 40
0.4285714285714285
 40
0.5714285714285714
 40
0.5714285714285714
 40
0.5714285714285714
 40
0.5714285714285714
 40
0.7142857142857142
 40
0.7142857142857142
 40
0.7142857142857142
 40
0.7142857142857142
 40
0.857142857142857
 40
0.857142857142857
 40
0.857142857142857
 40
0.857142857142857
 40
1.0
 40
1.0
 40
1.0
 40
1.0
 10
-10.45426
 20
-14.81988
 30
0.0
 10
-10.45426
 20
-14.81988
 30
0.0
 10
-10.45426
 20
-14.84626
 30
0.0
 10
-10.45426
 20
-14.84626
 30
0.0
 10
-10.45426
 20
-14.84626
 30
0.0
 10
-10.45426
 20
-14.84626
 30
0.0
 10
-10.44695
 20
-14.84626
 30
0.0
 10
-10.44695
 20
-14.84626
 30
0.0
 10
-10.44695
 20
-14.84626
 30
0.0
 10
-10.44113
 20
-14.84626
 30
0.0
 10
-10.43703
 20
-14.84527
 30
0.0
 10
-10.43469
 20
-14.84332
 30
0.0
 10
-10.43469
 20
-14.84332
 30
0.0
 10
-10.43232
 20
-14.84134
 30
0.0
 10
-10.43115
 20
-14.83793
 30
0.0
 10
-10.43115
 20
-14.83307
 30
0.0
 10
-10.43115
 20
-14.83307
 30
0.0
 10
-10.43115
 20
-14.82822
 30
0.0
 10
-10.43232
 20
-14.8248
 30
0.0
 10
-10.43469
 20
-14.82282
 30
0.0
 10
-10.43469
 20
-14.82282
 30
0.0
 10
-10.43703
 20
-14.82087
 30
0.0
 10
-10.44113
 20
-14.81988
 30
0.0
 10
-10.44695
 20
-14.81988
 30
0.0
 10
-10.44695
 20
-14.81988
 30
0.0
 10
-10.44695
 20
-14.81988
 30
0.0
 10
-10.45426
 20
-14.81988
 30
0.0
 10
-10.45426
 20
-14.81988
 30
0.0
  0
SPLINE
  5
71
330
1F
100
AcDbEntity
  8
Layer 1
 62
   250
100
AcDbSpline
210
0.0
220
0.0
230
1.0
 70
    11
 71
     3
 72
    40
 73
    36
 74
     0
 42
0.0000000001
 43
0.0000000001
 40
0.0
 40
0.0
 40
0.0
 40
0.0
 40
0.1111111111111111
 40
0.1111111111111111
 40
0.1111111111111111
 40
0.1111111111111111
 40
0.2222222222222222
 40
0.2222222222222222
 40
0.2222222222222222
 40
0.2222222222222222
 40
0.3333333333333333
 40
0.3333333333333333
 40
0.3333333333333333
 40
0.3333333333333333
 40
0.4444444444444444
 40
0.4444444444444444
 40
0.4444444444444444
 40
0.4444444444444444
 40
0.5555555555555556
 40
0.5555555555555556
 40
0.5555555555555556
 40
0.5555555555555556
 40
0.6666666666666667
 40
0.6666666666666667
 40
0.6666666666666667
 40
0.6666666666666667
 40
0.7777777777777779
 40
0.7777777777777779
 40
0.7777777777777779
 40
0.7777777777777779
 40
0.8888888888888891
 40
0.8888888888888891
 40
0.8888888888888891
 40
0.8888888888888891
 40
1.0
 40
1.0
 40
1.0
 40
1.0
 10
-10.47204
 20
-14.80492
 30
0.0
 10
-10.47204
 20
-14.80492
 30
0.0
 10
-10.44761
 20
-14.80492
 30
0.0
 10
-10.44761
 20
-14.80492
 30
0.0
 10
-10.44761
 20
-14.80492
 30
0.0
 10
-10.4352
 20
-14.80492
 30
0.0
 10
-10.42627
 20
-14.80712
 30
0.0
 10
-10.42082
 20
-14.81155
 30
0.0
 10
-10.42082
 20
-14.81155
 30
0.0
 10
-10.41536
 20
-14.81597
 30
0.0
 10
-10.41265
 20
-14.82315
 30
0.0
 10
-10.41265
 20
-14.83307
 30
0.0
 10
-10.41265
 20
-14.83307
 30
0.0
 10
-10.41265
 20
-14.84299
 30
0.0
 10
-10.41536
 20
-14.85017
 30
0.0
 10
-10.42082
 20
-14.8546
 30
0.0
 10
-10.42082
 20
-14.8546
 30
0.0
 10
-10.42627
 20
-14.85902
 30
0.0
 10
-10.4352
 20
-14.86122
 30
0.0
 10
-10.44761
 20
-14.86122
 30
0.0
 10
-10.44761
 20
-14.86122
 30
0.0
 10
-10.44761
 20
-14.86122
 30
0.0
 10
-10.45426
 20
-14.86122
 30
0.0
 10
-10.45426
 20
-14.86122
 30
0.0
 10
-10.45426
 20
-14.86122
 30
0.0
 10
-10.45426
 20
-14.86122
 30
0.0
 10
-10.45426
 20
-14.89493
 30
0.0
 10
-10.45426
 20
-14.89493
 30
0.0
 10
-10.45426
 20
-14.89493
 30
0.0
 10
-10.45426
 20
-14.89493
 30
0.0
 10
-10.47204
 20
-14.89493
 30
0.0
 10
-10.47204
 20
-14.89493
 30
0.0
 10
-10.47204
 20
-14.89493
 30
0.0
 10
-10.47204
 20
-14.89493
 30
0.0
 10
-10.47204
 20
-14.80492
 30
0.0
 10
-10.47204
 20
-14.80492
 30
0.0
  0
SPLINE
  5
72
330
1F
100
AcDbEntity
  8
Layer 1
 62
   250
100
AcDbSpline
210
0.0
220
0.0
230
1.0
 70
    11
 71
     3
 72
    52
 73
    48
 74
     0
 42
0.0000000001
 43
0.0000000001
 40
0.0
 40
0.0
 40
0.0
 40
0.0
 40
0.0833333333333333
 40
0.0833333333333333
 40
0.0833333333333333
 40
0.0833333333333333
 40
0.1666666666666667
 40
0.1666666666666667
 40
0.1666666666666667
 40
0.1666666666666667
 40
0.25
 40
0.25
 40
0.25
 40
0.25
 40
0.3333333333333333
 40
0.3333333333333333
 40
0.3333333333333333
 40
0.3333333333333333
 40
0.4166666666666666
 40
0.4166666666666666
 40
0.4166666666666666
 40
0.4166666666666666
 40
0.4999999999999999
 40
0.4999999999999999
 40
0.4999999999999999
 40
0.4999999999999999
 40
0.5833333333333333
 40
0.5833333333333333
 40
0.5833333333333333
 40
0.5833333333333333
 40
0.6666666666666666
 40
0.6666666666666666
 40
0.6666666666666666
 40
0.6666666666666666
 40
0.75
 40
0.75
 40
0.75
 40
0.75
 40
0.8333333333333334
 40
0.8333333333333334
 40
0.8333333333333334
 40
0.8333333333333334
 40
0.9166666666666667
 40
0.9166666666666667
 40
0.9166666666666667
 40
0.9166666666666667
 40
1.0
 40
1.0
 40
1.0
 40
1.0
 10
-10.39711
 20
-14.8206
 30
0.0
 10
-10.39711
 20
-14.8206
 30
0.0
 10
-10.39711
 20
-14.80492
 30
0.0
 10
-10.39711
 20
-14.80492
 30
0.0
 10
-10.39711
 20
-14.80492
 30
0.0
 10
-10.39711
 20
-14.80492
 30
0.0
 10
-10.34352
 20
-14.80492
 30
0.0
 10
-10.34352
 20
-14.80492
 30
0.0
 10
-10.34352
 20
-14.80492
 30
0.0
 10
-10.34352
 20
-14.80492
 30
0.0
 10
-10.34352
 20
-14.8206
 30
0.0
 10
-10.34352
 20
-14.8206
 30
0.0
 10
-10.34352
 20
-14.8206
 30
0.0
 10
-10.34352
 20
-14.8206
 30
0.0
 10
-10.36143
 20
-14.8206
 30
0.0
 10
-10.36143
 20
-14.8206
 30
0.0
 10
-10.36143
 20
-14.8206
 30
0.0
 10
-10.36143
 20
-14.8206
 30
0.0
 10
-10.36143
 20
-14.87925
 30
0.0
 10
-10.36143
 20
-14.87925
 30
0.0
 10
-10.36143
 20
-14.87925
 30
0.0
 10
-10.36143
 20
-14.87925
 30
0.0
 10
-10.34352
 20
-14.87925
 30
0.0
 10
-10.34352
 20
-14.87925
 30
0.0
 10
-10.34352
 20
-14.87925
 30
0.0
 10
-10.34352
 20
-14.87925
 30
0.0
 10
-10.34352
 20
-14.89493
 30
0.0
 10
-10.34352
 20
-14.89493
 30
0.0
 10
-10.34352
 20
-14.89493
 30
0.0
 10
-10.34352
 20
-14.89493
 30
0.0
 10
-10.39711
 20
-14.89493
 30
0.0
 10
-10.39711
 20
-14.89493
 30
0.0
 10
-10.39711
 20
-14.89493
 30
0.0
 10
-10.39711
 20
-14.89493
 30
0.0
 10
-10.39711
 20
-14.87925
 30
0.0
 10
-10.39711
 20
-14.87925
 30
0.0
 10
-10.39711
 20
-14.87925
 30
0.0
 10
-10.39711
 20
-14.87925
 30
0.0
 10
-10.37921
 20
-14.87925
 30
0.0
 10
-10.37921
 20
-14.87925
 30
0.0
 10
-10.37921
 20
-14.87925
 30
0.0
 10
-10.37921
 20
-14.87925
 30
0.0
 10
-10.37921
 20
-14.8206
 30
0.0
 10
-10.37921
 20
-14.8206
 30
0.0
 10
-10.37921
 20
-14.8206
 30
0.0
 10
-10.37921
 20
-14.8206
 30
0.0
 10
-10.39711
 20
-14.8206
 30
0.0
 10
-10.39711
 20
-14.8206
 30
0.0
  0
SPLINE
  5
73
330
1F
100
AcDbEntity
  8
Layer 1
 62
   250
100
AcDbSpline
210
0.0
220
0.0
230
1.0
 70
    11
 71
     3
 72
    44
 73
    40
 74
     0
 42
0.0000000001
 43
0.0000000001
 40
0.0
 40
0.0
 40
0.0
 40
0.0
 40
0.1
 40
0.1
 40
0.1
 40
0.1
 40
0.2
 40
0.2
 40
0.2
 40
0.2
 40
0.3
 40
0.3
 40
0.3
 40
0.3
 40
0.4
 40
0.4
 40
0.4
 40
0.4
 40
0.5
 40
0.5
 40
0.5
 40
0.5
 40
0.6
 40
0.6
 40
0.6
 40
0.6
 40
0.7
 40
0.7
 40
0.7
 40
0.7
 40
0.7999999999999999
 40
0.7999999999999999
 40
0.7999999999999999
 40
0.7999999999999999
 40
0.8999999999999999
 40
0.8999999999999999
 40
0.8999999999999999
 40
0.8999999999999999
 40
1.0
 40
1.0
 40
1.0
 40
1.0
 10
-10.32597
 20
-14.80492
 30
0.0
 10
-10.32597
 20
-14.80492
 30
0.0
 10
-10.30685
 20
-14.80492
 30
0.0
 10
-10.30685
 20
-14.80492
 30
0.0
 10
-10.30685
 20
-14.80492
 30
0.0
 10
-10.30685
 20
-14.80492
 30
0.0
 10
-10.28179
 20
-14.87034
 30
0.0
 10
-10.28179
 20
-14.87034
 30
0.0
 10
-10.28179
 20
-14.87034
 30
0.0
 10
-10.28179
 20
-14.87034
 30
0.0
 10
-10.28179
 20
-14.80492
 30
0.0
 10
-10.28179
 20
-14.80492
 30
0.0
 10
-10.28179
 20
-14.80492
 30
0.0
 10
-10.28179
 20
-14.80492
 30
0.0
 10
-10.26611
 20
-14.80492
 30
0.0
 10
-10.26611
 20
-14.80492
 30
0.0
 10
-10.26611
 20
-14.80492
 30
0.0
 10
-10.26611
 20
-14.80492
 30
0.0
 10
-10.26611
 20
-14.89493
 30
0.0
 10
-10.26611
 20
-14.89493
 30
0.0
 10
-10.26611
 20
-14.89493
 30
0.0
 10
-10.26611
 20
-14.89493
 30
0.0
 10
-10.2851
 20
-14.89493
 30
0.0
 10
-10.2851
 20
-14.89493
 30
0.0
 10
-10.2851
 20
-14.89493
 30
0.0
 10
-10.2851
 20
-14.89493
 30
0.0
 10
-10.31029
 20
-14.82951
 30
0.0
 10
-10.31029
 20
-14.82951
 30
0.0
 10
-10.31029
 20
-14.82951
 30
0.0
 10
-10.31029
 20
-14.82951
 30
0.0
 10
-10.31029
 20
-14.89493
 30
0.0
 10
-10.31029
 20
-14.89493
 30
0.0
 10
-10.31029
 20
-14.89493
 30
0.0
 10
-10.31029
 20
-14.89493
 30
0.0
 10
-10.32597
 20
-14.89493
 30
0.0
 10
-10.32597
 20
-14.89493
 30
0.0
 10
-10.32597
 20
-14.89493
 30
0.0
 10
-10.32597
 20
-14.89493
 30
0.0
 10
-10.32597
 20
-14.80492
 30
0.0
 10
-10.32597
 20
-14.80492
 30
0.0
  0
SPLINE
  5
74
330
1F
100
AcDbEntity
  8
Layer 1
 62
   250
100
AcDbSpline
210
0.0
220
0.0
230
1.0
 70
    11
 71
     3
 72
   120
 73
   116
 74
     0
 42
0.0000000001
 43
0.0000000001
 40
0.0
 40
0.0
 40
0.0
 40
0.0
 40
0.0344827586206897
 40
0.0344827586206897
 40
0.0344827586206897
 40
0.0344827586206897
 40
0.0689655172413793
 40
0.0689655172413793
 40
0.0689655172413793
 40
0.0689655172413793
 40
0.103448275862069
 40
0.103448275862069
 40
0.103448275862069
 40
0.103448275862069
 40
0.1379310344827586
 40
0.1379310344827586
 40
0.1379310344827586
 40
0.1379310344827586
 40
0.1724137931034483
 40
0.1724137931034483
 40
0.1724137931034483
 40
0.1724137931034483
 40
0.206896551724138
 40
0.206896551724138
 40
0.206896551724138
 40
0.206896551724138
 40
0.2413793103448276
 40
0.2413793103448276
 40
0.2413793103448276
 40
0.2413793103448276
 40
0.2758620689655173
 40
0.2758620689655173
 40
0.2758620689655173
 40
0.2758620689655173
 40
0.310344827586207
 40
0.310344827586207
 40
0.310344827586207
 40
0.310344827586207
 40
0.3448275862068966
 40
0.3448275862068966
 40
0.3448275862068966
 40
0.3448275862068966
 40
0.3793103448275863
 40
0.3793103448275863
 40
0.3793103448275863
 40
0.3793103448275863
 40
0.413793103448276
 40
0.413793103448276
 40
0.413793103448276
 40
0.413793103448276
 40
0.4482758620689656
 40
0.4482758620689656
 40
0.4482758620689656
 40
0.4482758620689656
 40
0.4827586206896553
 40
0.4827586206896553
 40
0.4827586206896553
 40
0.4827586206896553
 40
0.517241379310345
 40
0.517241379310345
 40
0.517241379310345
 40
0.517241379310345
 40
0.5517241379310346
 40
0.5517241379310346
 40
0.5517241379310346
 40
0.5517241379310346
 40
0.5862068965517242
 40
0.5862068965517242
 40
0.5862068965517242
 40
0.5862068965517242
 40
0.6206896551724138
 40
0.6206896551724138
 40
0.6206896551724138
 40
0.6206896551724138
 40
0.6551724137931034
 40
0.6551724137931034
 40
0.6551724137931034
 40
0.6551724137931034
 40
0.689655172413793
 40
0.689655172413793
 40
0.689655172413793
 40
0.689655172413793
 40
0.7241379310344827
 40
0.7241379310344827
 40
0.7241379310344827
 40
0.7241379310344827
 40
0.7586206896551723
 40
0.7586206896551723
 40
0.7586206896551723
 40
0.7586206896551723
 40
0.7931034482758619
 40
0.7931034482758619
 40
0.7931034482758619
 40
0.7931034482758619
 40
0.8275862068965515
 40
0.8275862068965515
 40
0.8275862068965515
 40
0.8275862068965515
 40
0.8620689655172411
 40
0.8620689655172411
 40
0.8620689655172411
 40
0.8620689655172411
 40
0.8965517241379307
 40
0.8965517241379307
 40
0.8965517241379307
 40
0.8965517241379307
 40
0.9310344827586203
 40
0.9310344827586203
 40
0.9310344827586203
 40
0.9310344827586203
 40
0.9655172413793099
 40
0.9655172413793099
 40
0.9655172413793099
 40
0.9655172413793099
 40
1.0
 40
1.0
 40
1.0
 40
1.0
 10
-10.1514
 20
-14.85466
 30
0.0
 10
-10.1514
 20
-14.85466
 30
0.0
 10
-10.16093
 20
-14.85466
 30
0.0
 10
-10.16093
 20
-14.85466
 30
0.0
 10
-10.16093
 20
-14.85466
 30
0.0
 10
-10.16093
 20
-14.85466
 30
0.0
 10
-10.16093
 20
-14.83898
 30
0.0
 10
-10.16093
 20
-14.83898
 30
0.0
 10
-10.16093
 20
-14.83898
 30
0.0
 10
-10.16093
 20
-14.83898
 30
0.0
 10
-10.1514
 20
-14.83898
 30
0.0
 10
-10.1514
 20
-14.83898
 30
0.0
 10
-10.1514
 20
-14.83898
 30
0.0
 10
-10.147
 20
-14.83898
 30
0.0
 10
-10.14356
 20
-14.83811
 30
0.0
 10
-10.14113
 20
-14.83636
 30
0.0
 10
-10.14113
 20
-14.83636
 30
0.0
 10
-10.1387
 20
-14.83461
 30
0.0
 10
-10.13749
 20
-14.83215
 30
0.0
 10
-10.13749
 20
-14.82898
 30
0.0
 10
-10.13749
 20
-14.82898
 30
0.0
 10
-10.13749
 20
-14.82564
 30
0.0
 10
-10.1387
 20
-14.82303
 30
0.0
 10
-10.14113
 20
-14.82116
 30
0.0
 10
-10.14113
 20
-14.82116
 30
0.0
 10
-10.14356
 20
-14.81928
 30
0.0
 10
-10.147
 20
-14.81836
 30
0.0
 10
-10.1514
 20
-14.81836
 30
0.0
 10
-10.1514
 20
-14.81836
 30
0.0
 10
-10.15477
 20
-14.81836
 30
0.0
 10
-10.1584
 20
-14.81879
 30
0.0
 10
-10.16224
 20
-14.81963
 30
0.0
 10
-10.16224
 20
-14.81963
 30
0.0
 10
-10.16611
 20
-14.82048
 30
0.0
 10
-10.17011
 20
-14.82171
 30
0.0
 10
-10.17424
 20
-14.82332
 30
0.0
 10
-10.17424
 20
-14.82332
 30
0.0
 10
-10.17424
 20
-14.82332
 30
0.0
 10
-10.17424
 20
-14.80716
 30
0.0
 10
-10.17424
 20
-14.80716
 30
0.0
 10
-10.17424
 20
-14.80716
 30
0.0
 10
-10.17011
 20
-14.80591
 30
0.0
 10
-10.16603
 20
-14.80496
 30
0.0
 10
-10.16202
 20
-14.80428
 30
0.0
 10
-10.16202
 20
-14.80428
 30
0.0
 10
-10.15799
 20
-14.80362
 30
0.0
 10
-10.15414
 20
-14.80329
 30
0.0
 10
-10.15043
 20
-14.80329
 30
0.0
 10
-10.15043
 20
-14.80329
 30
0.0
 10
-10.14095
 20
-14.80329
 30
0.0
 10
-10.13356
 20
-14.80537
 30
0.0
 10
-10.12827
 20
-14.80951
 30
0.0
 10
-10.12827
 20
-14.80951
 30
0.0
 10
-10.12296
 20
-14.81365
 30
0.0
 10
-10.12031
 20
-14.81935
 30
0.0
 10
-10.12031
 20
-14.82663
 30
0.0
 10
-10.12031
 20
-14.82663
 30
0.0
 10
-10.12031
 20
-14.83196
 30
0.0
 10
-10.12183
 20
-14.83634
 30
0.0
 10
-10.1249
 20
-14.83974
 30
0.0
 10
-10.1249
 20
-14.83974
 30
0.0
 10
-10.12794
 20
-14.84313
 30
0.0
 10
-10.1323
 20
-14.84536
 30
0.0
 10
-10.13796
 20
-14.84639
 30
0.0
 10
-10.13796
 20
-14.84639
 30
0.0
 10
-10.13154
 20
-14.84752
 30
0.0
 10
-10.12662
 20
-14.85009
 30
0.0
 10
-10.12325
 20
-14.85408
 30
0.0
 10
-10.12325
 20
-14.85408
 30
0.0
 10
-10.11987
 20
-14.85807
 30
0.0
 10
-10.11819
 20
-14.86334
 30
0.0
 10
-10.11819
 20
-14.86985
 30
0.0
 10
-10.11819
 20
-14.86985
 30
0.0
 10
-10.11819
 20
-14.87857
 30
0.0
 10
-10.12099
 20
-14.88522
 30
0.0
 10
-10.12656
 20
-14.88981
 30
0.0
 10
-10.12656
 20
-14.88981
 30
0.0
 10
-10.13216
 20
-14.89439
 30
0.0
 10
-10.14027
 20
-14.89668
 30
0.0
 10
-10.15093
 20
-14.89668
 30
0.0
 10
-10.15093
 20
-14.89668
 30
0.0
 10
-10.15545
 20
-14.89668
 30
0.0
 10
-10.15992
 20
-14.89629
 30
0.0
 10
-10.16432
 20
-14.89553
 30
0.0
 10
-10.16432
 20
-14.89553
 30
0.0
 10
-10.16873
 20
-14.89477
 30
0.0
 10
-10.17295
 20
-14.89365
 30
0.0
 10
-10.17696
 20
-14.89221
 30
0.0
 10
-10.17696
 20
-14.89221
 30
0.0
 10
-10.17696
 20
-14.89221
 30
0.0
 10
-10.17696
 20
-14.87569
 30
0.0
 10
-10.17696
 20
-14.87569
 30
0.0
 10
-10.17696
 20
-14.87569
 30
0.0
 10
-10.17317
 20
-14.87758
 30
0.0
 10
-10.1691
 20
-14.87902
 30
0.0
 10
-10.16471
 20
-14.88001
 30
0.0
 10
-10.16471
 20
-14.88001
 30
0.0
 10
-10.16035
 20
-14.881
 30
0.0
 10
-10.15574
 20
-14.88149
 30
0.0
 10
-10.15093
 20
-14.88149
 30
0.0
 10
-10.15093
 20
-14.88149
 30
0.0
 10
-10.14609
 20
-14.88149
 30
0.0
 10
-10.14228
 20
-14.88038
 30
0.0
 10
-10.13946
 20
-14.87814
 30
0.0
 10
-10.13946
 20
-14.87814
 30
0.0
 10
-10.13665
 20
-14.87592
 30
0.0
 10
-10.13525
 20
-14.87291
 30
0.0
 10
-10.13525
 20
-14.86912
 30
0.0
 10
-10.13525
 20
-14.86912
 30
0.0
 10
-10.13525
 20
-14.86452
 30
0.0
 10
-10.13665
 20
-14.86093
 30
0.0
 10
-10.13946
 20
-14.85842
 30
0.0
 10
-10.13946
 20
-14.85842
 30
0.0
 10
-10.14228
 20
-14.85591
 30
0.0
 10
-10.14626
 20
-14.85466
 30
0.0
 10
-10.1514
 20
-14.85466
 30
0.0
  0
SPLINE
  5
75
330
1F
100
AcDbEntity
  8
Layer 1
 62
   250
100
AcDbSpline
210
0.0
220
0.0
230
1.0
 70
    11
 71
     3
 72
    32
 73
    28
 74
     0
 42
0.0000000001
 43
0.0000000001
 40
0.0
 40
0.0
 40
0.0
 40
0.0
 40
0.1428571428571428
 40
0.1428571428571428
 40
0.1428571428571428
 40
0.1428571428571428
 40
0.2857142857142857
 40
0.2857142857142857
 40
0.2857142857142857
 40
0.2857142857142857
 40
0.4285714285714285
 40
0.4285714285714285
 40
0.4285714285714285
 40
0.4285714285714285
 40
0.5714285714285714
 40
0.5714285714285714
 40
0.5714285714285714
 40
0.5714285714285714
 40
0.7142857142857142
 40
0.7142857142857142
 40
0.7142857142857142
 40
0.7142857142857142
 40
0.857142857142857
 40
0.857142857142857
 40
0.857142857142857
 40
0.857142857142857
 40
1.0
 40
1.0
 40
1.0
 40
1.0
 10
-10.45551
 20
-15.81994
 30
0.0
 10
-10.45551
 20
-15.81994
 30
0.0
 10
-10.45551
 20
-15.84632
 30
0.0
 10
-10.45551
 20
-15.84632
 30
0.0
 10
-10.45551
 20
-15.84632
 30
0.0
 10
-10.45551
 20
-15.84632
 30
0.0
 10
-10.4482
 20
-15.84632
 30
0.0
 10
-10.4482
 20
-15.84632
 30
0.0
 10
-10.4482
 20
-15.84632
 30
0.0
 10
-10.44238
 20
-15.84632
 30
0.0
 10
-10.43828
 20
-15.84533
 30
0.0
 10
-10.43594
 20
-15.84338
 30
0.0
 10
-10.43594
 20
-15.84338
 30
0.0
 10
-10.43357
 20
-15.8414
 30
0.0
 10
-10.4324
 20
-15.83799
 30
0.0
 10
-10.4324
 20
-15.83313
 30
0.0
 10
-10.4324
 20
-15.83313
 30
0.0
 10
-10.4324
 20
-15.82828
 30
0.0
 10
-10.43357
 20
-15.82486
 30
0.0
 10
-10.43594
 20
-15.82288
 30
0.0
 10
-10.43594
 20
-15.82288
 30
0.0
 10
-10.43828
 20
-15.82093
 30
0.0
 10
-10.44238
 20
-15.81994
 30
0.0
 10
-10.4482
 20
-15.81994
 30
0.0
 10
-10.4482
 20
-15.81994
 30
0.0
 10
-10.4482
 20
-15.81994
 30
0.0
 10
-10.45551
 20
-15.81994
 30
0.0
 10
-10.45551
 20
-15.81994
 30
0.0
  0
SPLINE
  5
76
330
1F
100
AcDbEntity
  8
Layer 1
 62
   250
100
AcDbSpline
210
0.0
220
0.0
230
1.0
 70
    11
 71
     3
 72
    40
 73
    36
 74
     0
 42
0.0000000001
 43
0.0000000001
 40
0.0
 40
0.0
 40
0.0
 40
0.0
 40
0.1111111111111111
 40
0.1111111111111111
 40
0.1111111111111111
 40
0.1111111111111111
 40
0.2222222222222222
 40
0.2222222222222222
 40
0.2222222222222222
 40
0.2222222222222222
 40
0.3333333333333333
 40
0.3333333333333333
 40
0.3333333333333333
 40
0.3333333333333333
 40
0.4444444444444444
 40
0.4444444444444444
 40
0.4444444444444444
 40
0.4444444444444444
 40
0.5555555555555556
 40
0.5555555555555556
 40
0.5555555555555556
 40
0.5555555555555556
 40
0.6666666666666667
 40
0.6666666666666667
 40
0.6666666666666667
 40
0.6666666666666667
 40
0.7777777777777779
 40
0.7777777777777779
 40
0.7777777777777779
 40
0.7777777777777779
 40
0.8888888888888891
 40
0.8888888888888891
 40
0.8888888888888891
 40
0.8888888888888891
 40
1.0
 40
1.0
 40
1.0
 40
1.0
 10
-10.47329
 20
-15.80498
 30
0.0
 10
-10.47329
 20
-15.80498
 30
0.0
 10
-10.44886
 20
-15.80498
 30
0.0
 10
-10.44886
 20
-15.80498
 30
0.0
 10
-10.44886
 20
-15.80498
 30
0.0
 10
-10.43645
 20
-15.80498
 30
0.0
 10
-10.42752
 20
-15.80718
 30
0.0
 10
-10.42207
 20
-15.81161
 30
0.0
 10
-10.42207
 20
-15.81161
 30
0.0
 10
-10.41661
 20
-15.81603
 30
0.0
 10
-10.4139
 20
-15.82321
 30
0.0
 10
-10.4139
 20
-15.83313
 30
0.0
 10
-10.4139
 20
-15.83313
 30
0.0
 10
-10.4139
 20
-15.84305
 30
0.0
 10
-10.41661
 20
-15.85023
 30
0.0
 10
-10.42207
 20
-15.85466
 30
0.0
 10
-10.42207
 20
-15.85466
 30
0.0
 10
-10.42752
 20
-15.85908
 30
0.0
 10
-10.43645
 20
-15.86128
 30
0.0
 10
-10.44886
 20
-15.86128
 30
0.0
 10
-10.44886
 20
-15.86128
 30
0.0
 10
-10.44886
 20
-15.86128
 30
0.0
 10
-10.45551
 20
-15.86128
 30
0.0
 10
-10.45551
 20
-15.86128
 30
0.0
 10
-10.45551
 20
-15.86128
 30
0.0
 10
-10.45551
 20
-15.86128
 30
0.0
 10
-10.45551
 20
-15.89499
 30
0.0
 10
-10.45551
 20
-15.89499
 30
0.0
 10
-10.45551
 20
-15.89499
 30
0.0
 10
-10.45551
 20
-15.89499
 30
0.0
 10
-10.47329
 20
-15.89499
 30
0.0
 10
-10.47329
 20
-15.89499
 30
0.0
 10
-10.47329
 20
-15.89499
 30
0.0
 10
-10.47329
 20
-15.89499
 30
0.0
 10
-10.47329
 20
-15.80498
 30
0.0
 10
-10.47329
 20
-15.80498
 30
0.0
  0
SPLINE
  5
77
330
1F
100
AcDbEntity
  8
Layer 1
 62
   250
100
AcDbSpline
210
0.0
220
0.0
230
1.0
 70
    11
 71
     3
 72
    52
 73
    48
 74
     0
 42
0.0000000001
 43
0.0000000001
 40
0.0
 40
0.0
 40
0.0
 40
0.0
 40
0.0833333333333333
 40
0.0833333333333333
 40
0.0833333333333333
 40
0.0833333333333333
 40
0.1666666666666667
 40
0.1666666666666667
 40
0.1666666666666667
 40
0.1666666666666667
 40
0.25
 40
0.25
 40
0.25
 40
0.25
 40
0.3333333333333333
 40
0.3333333333333333
 40
0.3333333333333333
 40
0.3333333333333333
 40
0.4166666666666666
 40
0.4166666666666666
 40
0.4166666666666666
 40
0.4166666666666666
 40
0.4999999999999999
 40
0.4999999999999999
 40
0.4999999999999999
 40
0.4999999999999999
 40
0.5833333333333333
 40
0.5833333333333333
 40
0.5833333333333333
 40
0.5833333333333333
 40
0.6666666666666666
 40
0.6666666666666666
 40
0.6666666666666666
 40
0.6666666666666666
 40
0.75
 40
0.75
 40
0.75
 40
0.75
 40
0.8333333333333334
 40
0.8333333333333334
 40
0.8333333333333334
 40
0.8333333333333334
 40
0.9166666666666667
 40
0.9166666666666667
 40
0.9166666666666667
 40
0.9166666666666667
 40
1.0
 40
1.0
 40
1.0
 40
1.0
 10
-10.39836
 20
-15.82066
 30
0.0
 10
-10.39836
 20
-15.82066
 30
0.0
 10
-10.39836
 20
-15.80498
 30
0.0
 10
-10.39836
 20
-15.80498
 30
0.0
 10
-10.39836
 20
-15.80498
 30
0.0
 10
-10.39836
 20
-15.80498
 30
0.0
 10
-10.34477
 20
-15.80498
 30
0.0
 10
-10.34477
 20
-15.80498
 30
0.0
 10
-10.34477
 20
-15.80498
 30
0.0
 10
-10.34477
 20
-15.80498
 30
0.0
 10
-10.34477
 20
-15.82066
 30
0.0
 10
-10.34477
 20
-15.82066
 30
0.0
 10
-10.34477
 20
-15.82066
 30
0.0
 10
-10.34477
 20
-15.82066
 30
0.0
 10
-10.36268
 20
-15.82066
 30
0.0
 10
-10.36268
 20
-15.82066
 30
0.0
 10
-10.36268
 20
-15.82066
 30
0.0
 10
-10.36268
 20
-15.82066
 30
0.0
 10
-10.36268
 20
-15.87931
 30
0.0
 10
-10.36268
 20
-15.87931
 30
0.0
 10
-10.36268
 20
-15.87931
 30
0.0
 10
-10.36268
 20
-15.87931
 30
0.0
 10
-10.34477
 20
-15.87931
 30
0.0
 10
-10.34477
 20
-15.87931
 30
0.0
 10
-10.34477
 20
-15.87931
 30
0.0
 10
-10.34477
 20
-15.87931
 30
0.0
 10
-10.34477
 20
-15.89499
 30
0.0
 10
-10.34477
 20
-15.89499
 30
0.0
 10
-10.34477
 20
-15.89499
 30
0.0
 10
-10.34477
 20
-15.89499
 30
0.0
 10
-10.39836
 20
-15.89499
 30
0.0
 10
-10.39836
 20
-15.89499
 30
0.0
 10
-10.39836
 20
-15.89499
 30
0.0
 10
-10.39836
 20
-15.89499
 30
0.0
 10
-10.39836
 20
-15.87931
 30
0.0
 10
-10.39836
 20
-15.87931
 30
0.0
 10
-10.39836
 20
-15.87931
 30
0.0
 10
-10.39836
 20
-15.87931
 30
0.0
 10
-10.38046
 20
-15.87931
 30
0.0
 10
-10.38046
 20
-15.87931
 30
0.0
 10
-10.38046
 20
-15.87931
 30
0.0
 10
-10.38046
 20
-15.87931
 30
0.0
 10
-10.38046
 20
-15.82066
 30
0.0
 10
-10.38046
 20
-15.82066
 30
0.0
 10
-10.38046
 20
-15.82066
 30
0.0
 10
-10.38046
 20
-15.82066
 30
0.0
 10
-10.39836
 20
-15.82066
 30
0.0
 10
-10.39836
 20
-15.82066
 30
0.0
  0
SPLINE
  5
78
330
1F
100
AcDbEntity
  8
Layer 1
 62
   250
100
AcDbSpline
210
0.0
220
0.0
230
1.0
 70
    11
 71
     3
 72
    44
 73
    40
 74
     0
 42
0.0000000001
 43
0.0000000001
 40
0.0
 40
0.0
 40
0.0
 40
0.0
 40
0.1
 40
0.1
 40
0.1
 40
0.1
 40
0.2
 40
0.2
 40
0.2
 40
0.2
 40
0.3
 40
0.3
 40
0.3
 40
0.3
 40
0.4
 40
0.4
 40
0.4
 40
0.4
 40
0.5
 40
0.5
 40
0.5
 40
0.5
 40
0.6
 40
0.6
 40
0.6
 40
0.6
 40
0.7
 40
0.7
 40
0.7
 40
0.7
 40
0.7999999999999999
 40
0.7999999999999999
 40
0.7999999999999999
 40
0.7999999999999999
 40
0.8999999999999999
 40
0.8999999999999999
 40
0.8999999999999999
 40
0.8999999999999999
 40
1.0
 40
1.0
 40
1.0
 40
1.0
 10
-10.32722
 20
-15.80498
 30
0.0
 10
-10.32722
 20
-15.80498
 30
0.0
 10
-10.3081
 20
-15.80498
 30
0.0
 10
-10.3081
 20
-15.80498
 30
0.0
 10
-10.3081
 20
-15.80498
 30
0.0
 10
-10.3081
 20
-15.80498
 30
0.0
 10
-10.28304
 20
-15.8704
 30
0.0
 10
-10.28304
 20
-15.8704
 30
0.0
 10
-10.28304
 20
-15.8704
 30
0.0
 10
-10.28304
 20
-15.8704
 30
0.0
 10
-10.28304
 20
-15.80498
 30
0.0
 10
-10.28304
 20
-15.80498
 30
0.0
 10
-10.28304
 20
-15.80498
 30
0.0
 10
-10.28304
 20
-15.80498
 30
0.0
 10
-10.26736
 20
-15.80498
 30
0.0
 10
-10.26736
 20
-15.80498
 30
0.0
 10
-10.26736
 20
-15.80498
 30
0.0
 10
-10.26736
 20
-15.80498
 30
0.0
 10
-10.26736
 20
-15.89499
 30
0.0
 10
-10.26736
 20
-15.89499
 30
0.0
 10
-10.26736
 20
-15.89499
 30
0.0
 10
-10.26736
 20
-15.89499
 30
0.0
 10
-10.28635
 20
-15.89499
 30
0.0
 10
-10.28635
 20
-15.89499
 30
0.0
 10
-10.28635
 20
-15.89499
 30
0.0
 10
-10.28635
 20
-15.89499
 30
0.0
 10
-10.31154
 20
-15.82957
 30
0.0
 10
-10.31154
 20
-15.82957
 30
0.0
 10
-10.31154
 20
-15.82957
 30
0.0
 10
-10.31154
 20
-15.82957
 30
0.0
 10
-10.31154
 20
-15.89499
 30
0.0
 10
-10.31154
 20
-15.89499
 30
0.0
 10
-10.31154
 20
-15.89499
 30
0.0
 10
-10.31154
 20
-15.89499
 30
0.0
 10
-10.32722
 20
-15.89499
 30
0.0
 10
-10.32722
 20
-15.89499
 30
0.0
 10
-10.32722
 20
-15.89499
 30
0.0
 10
-10.32722
 20
-15.89499
 30
0.0
 10
-10.32722
 20
-15.80498
 30
0.0
 10
-10.32722
 20
-15.80498
 30
0.0
  0
SPLINE
  5
79
330
1F
100
AcDbEntity
  8
Layer 1
 62
   250
100
AcDbSpline
210
0.0
220
0.0
230
1.0
 70
    11
 71
     3
 72
    16
 73
    12
 74
     0
 42
0.0000000001
 43
0.0000000001
 40
0.0
 40
0.0
 40
0.0
 40
0.0
 40
0.3333333333333333
 40
0.3333333333333333
 40
0.3333333333333333
 40
0.3333333333333333
 40
0.6666666666666666
 40
0.6666666666666666
 40
0.6666666666666666
 40
0.6666666666666666
 40
1.0
 40
1.0
 40
1.0
 40
1.0
 10
-10.14388
 20
-15.82476
 30
0.0
 10
-10.14388
 20
-15.82476
 30
0.0
 10
-10.16662
 20
-15.86032
 30
0.0
 10
-10.16662
 20
-15.86032
 30
0.0
 10
-10.16662
 20
-15.86032
 30
0.0
 10
-10.16662
 20
-15.86032
 30
0.0
 10
-10.14388
 20
-15.86032
 30
0.0
 10
-10.14388
 20
-15.86032
 30
0.0
 10
-10.14388
 20
-15.86032
 30
0.0
 10
-10.14388
 20
-15.86032
 30
0.0
 10
-10.14388
 20
-15.82476
 30
0.0
 10
-10.14388
 20
-15.82476
 30
0.0
  0
SPLINE
  5
7A
330
1F
100
AcDbEntity
  8
Layer 1
 62
   250
100
AcDbSpline
210
0.0
220
0.0
230
1.0
 70
    11
 71
     3
 72
    48
 73
    44
 74
     0
 42
0.0000000001
 43
0.0000000001
 40
0.0
 40
0.0
 40
0.0
 40
0.0
 40
0.0909090909090909
 40
0.0909090909090909
 40
0.0909090909090909
 40
0.0909090909090909
 40
0.1818181818181818
 40
0.1818181818181818
 40
0.1818181818181818
 40
0.1818181818181818
 40
0.2727272727272727
 40
0.2727272727272727
 40
0.2727272727272727
 40
0.2727272727272727
 40
0.3636363636363636
 40
0.3636363636363636
 40
0.3636363636363636
 40
0.3636363636363636
 40
0.4545454545454546
 40
0.4545454545454546
 40
0.4545454545454546
 40
0.4545454545454546
 40
0.5454545454545455
 40
0.5454545454545455
 40
0.5454545454545455
 40
0.5454545454545455
 40
0.6363636363636365
 40
0.6363636363636365
 40
0.6363636363636365
 40
0.6363636363636365
 40
0.7272727272727274
 40
0.7272727272727274
 40
0.7272727272727274
 40
0.7272727272727274
 40
0.8181818181818183
 40
0.8181818181818183
 40
0.8181818181818183
 40
0.8181818181818183
 40
0.9090909090909093
 40
0.9090909090909093
 40
0.9090909090909093
 40
0.9090909090909093
 40
1.0
 40
1.0
 40
1.0
 40
1.0
 10
-10.14545
 20
-15.80498
 30
0.0
 10
-10.14545
 20
-15.80498
 30
0.0
 10
-10.12682
 20
-15.80498
 30
0.0
 10
-10.12682
 20
-15.80498
 30
0.0
 10
-10.12682
 20
-15.80498
 30
0.0
 10
-10.12682
 20
-15.80498
 30
0.0
 10
-10.12682
 20
-15.86032
 30
0.0
 10
-10.12682
 20
-15.86032
 30
0.0
 10
-10.12682
 20
-15.86032
 30
0.0
 10
-10.12682
 20
-15.86032
 30
0.0
 10
-10.11695
 20
-15.86032
 30
0.0
 10
-10.11695
 20
-15.86032
 30
0.0
 10
-10.11695
 20
-15.86032
 30
0.0
 10
-10.11695
 20
-15.86032
 30
0.0
 10
-10.11695
 20
-15.87556
 30
0.0
 10
-10.11695
 20
-15.87556
 30
0.0
 10
-10.11695
 20
-15.87556
 30
0.0
 10
-10.11695
 20
-15.87556
 30
0.0
 10
-10.12682
 20
-15.87556
 30
0.0
 10
-10.12682
 20
-15.87556
 30
0.0
 10
-10.12682
 20
-15.87556
 30
0.0
 10
-10.12682
 20
-15.87556
 30
0.0
 10
-10.12682
 20
-15.89499
 30
0.0
 10
-10.12682
 20
-15.89499
 30
0.0
 10
-10.12682
 20
-15.89499
 30
0.0
 10
-10.12682
 20
-15.89499
 30
0.0
 10
-10.14388
 20
-15.89499
 30
0.0
 10
-10.14388
 20
-15.89499
 30
0.0
 10
-10.14388
 20
-15.89499
 30
0.0
 10
-10.14388
 20
-15.89499
 30
0.0
 10
-10.14388
 20
-15.87556
 30
0.0
 10
-10.14388
 20
-15.87556
 30
0.0
 10
-10.14388
 20
-15.87556
 30
0.0
 10
-10.14388
 20
-15.87556
 30
0.0
 10
-10.17959
 20
-15.87556
 30
0.0
 10
-10.17959
 20
-15.87556
 30
0.0
 10
-10.17959
 20
-15.87556
 30
0.0
 10
-10.17959
 20
-15.87556
 30
0.0
 10
-10.17959
 20
-15.85832
 30
0.0
 10
-10.17959
 20
-15.85832
 30
0.0
 10
-10.17959
 20
-15.85832
 30
0.0
 10
-10.17959
 20
-15.85832
 30
0.0
 10
-10.14545
 20
-15.80498
 30
0.0
 10
-10.14545
 20
-15.80498
 30
0.0
  0
SPLINE
  5
7B
330
1F
100
AcDbEntity
  8
Layer 1
 62
   250
100
AcDbSpline
210
0.0
220
0.0
230
1.0
 70
    11
 71
     3
 72
    32
 73
    28
 74
     0
 42
0.0000000001
 43
0.0000000001
 40
0.0
 40
0.0
 40
0.0
 40
0.0
 40
0.1428571428571428
 40
0.1428571428571428
 40
0.1428571428571428
 40
0.1428571428571428
 40
0.2857142857142857
 40
0.2857142857142857
 40
0.2857142857142857
 40
0.2857142857142857
 40
0.4285714285714285
 40
0.4285714285714285
 40
0.4285714285714285
 40
0.4285714285714285
 40
0.5714285714285714
 40
0.5714285714285714
 40
0.5714285714285714
 40
0.5714285714285714
 40
0.7142857142857142
 40
0.7142857142857142
 40
0.7142857142857142
 40
0.7142857142857142
 40
0.857142857142857
 40
0.857142857142857
 40
0.857142857142857
 40
0.857142857142857
 40
1.0
 40
1.0
 40
1.0
 40
1.0
 10
-10.45409
 20
-16.81908
 30
0.0
 10
-10.45409
 20
-16.81908
 30
0.0
 10
-10.45409
 20
-16.84546
 30
0.0
 10
-10.45409
 20
-16.84546
 30
0.0
 10
-10.45409
 20
-16.84546
 30
0.0
 10
-10.45409
 20
-16.84546
 30
0.0
 10
-10.44678
 20
-16.84546
 30
0.0
 10
-10.44678
 20
-16.84546
 30
0.0
 10
-10.44678
 20
-16.84546
 30
0.0
 10
-10.44096
 20
-16.84546
 30
0.0
 10
-10.43686
 20
-16.84447
 30
0.0
 10
-10.43452
 20
-16.84252
 30
0.0
 10
-10.43452
 20
-16.84252
 30
0.0
 10
-10.43215
 20
-16.84054
 30
0.0
 10
-10.43098
 20
-16.83713
 30
0.0
 10
-10.43098
 20
-16.83227
 30
0.0
 10
-10.43098
 20
-16.83227
 30
0.0
 10
-10.43098
 20
-16.82742
 30
0.0
 10
-10.43215
 20
-16.824
 30
0.0
 10
-10.43452
 20
-16.82202
 30
0.0
 10
-10.43452
 20
-16.82202
 30
0.0
 10
-10.43686
 20
-16.82007
 30
0.0
 10
-10.44096
 20
-16.81908
 30
0.0
 10
-10.44678
 20
-16.81908
 30
0.0
 10
-10.44678
 20
-16.81908
 30
0.0
 10
-10.44678
 20
-16.81908
 30
0.0
 10
-10.45409
 20
-16.81908
 30
0.0
 10
-10.45409
 20
-16.81908
 30
0.0
  0
SPLINE
  5
7C
330
1F
100
AcDbEntity
  8
Layer 1
 62
   250
100
AcDbSpline
210
0.0
220
0.0
230
1.0
 70
    11
 71
     3
 72
    40
 73
    36
 74
     0
 42
0.0000000001
 43
0.0000000001
 40
0.0
 40
0.0
 40
0.0
 40
0.0
 40
0.1111111111111111
 40
0.1111111111111111
 40
0.1111111111111111
 40
0.1111111111111111
 40
0.2222222222222222
 40
0.2222222222222222
 40
0.2222222222222222
 40
0.2222222222222222
 40
0.3333333333333333
 40
0.3333333333333333
 40
0.3333333333333333
 40
0.3333333333333333
 40
0.4444444444444444
 40
0.4444444444444444
 40
0.4444444444444444
 40
0.4444444444444444
 40
0.5555555555555556
 40
0.5555555555555556
 40
0.5555555555555556
 40
0.5555555555555556
 40
0.6666666666666667
 40
0.6666666666666667
 40
0.6666666666666667
 40
0.6666666666666667
 40
0.7777777777777779
 40
0.7777777777777779
 40
0.7777777777777779
 40
0.7777777777777779
 40
0.8888888888888891
 40
0.8888888888888891
 40
0.8888888888888891
 40
0.8888888888888891
 40
1.0
 40
1.0
 40
1.0
 40
1.0
 10
-10.47187
 20
-16.80412
 30
0.0
 10
-10.47187
 20
-16.80412
 30
0.0
 10
-10.44744
 20
-16.80412
 30
0.0
 10
-10.44744
 20
-16.80412
 30
0.0
 10
-10.44744
 20
-16.80412
 30
0.0
 10
-10.43503
 20
-16.80412
 30
0.0
 10
-10.4261
 20
-16.80632
 30
0.0
 10
-10.42065
 20
-16.81075
 30
0.0
 10
-10.42065
 20
-16.81075
 30
0.0
 10
-10.41519
 20
-16.81517
 30
0.0
 10
-10.41248
 20
-16.82235
 30
0.0
 10
-10.41248
 20
-16.83227
 30
0.0
 10
-10.41248
 20
-16.83227
 30
0.0
 10
-10.41248
 20
-16.84219
 30
0.0
 10
-10.41519
 20
-16.84937
 30
0.0
 10
-10.42065
 20
-16.8538
 30
0.0
 10
-10.42065
 20
-16.8538
 30
0.0
 10
-10.4261
 20
-16.85822
 30
0.0
 10
-10.43503
 20
-16.86042
 30
0.0
 10
-10.44744
 20
-16.86042
 30
0.0
 10
-10.44744
 20
-16.86042
 30
0.0
 10
-10.44744
 20
-16.86042
 30
0.0
 10
-10.45409
 20
-16.86042
 30
0.0
 10
-10.45409
 20
-16.86042
 30
0.0
 10
-10.45409
 20
-16.86042
 30
0.0
 10
-10.45409
 20
-16.86042
 30
0.0
 10
-10.45409
 20
-16.89413
 30
0.0
 10
-10.45409
 20
-16.89413
 30
0.0
 10
-10.45409
 20
-16.89413
 30
0.0
 10
-10.45409
 20
-16.89413
 30
0.0
 10
-10.47187
 20
-16.89413
 30
0.0
 10
-10.47187
 20
-16.89413
 30
0.0
 10
-10.47187
 20
-16.89413
 30
0.0
 10
-10.47187
 20
-16.89413
 30
0.0
 10
-10.47187
 20
-16.80412
 30
0.0
 10
-10.47187
 20
-16.80412
 30
0.0
  0
SPLINE
  5
7D
330
1F
100
AcDbEntity
  8
Layer 1
 62
   250
100
AcDbSpline
210
0.0
220
0.0
230
1.0
 70
    11
 71
     3
 72
    52
 73
    48
 74
     0
 42
0.0000000001
 43
0.0000000001
 40
0.0
 40
0.0
 40
0.0
 40
0.0
 40
0.0833333333333333
 40
0.0833333333333333
 40
0.0833333333333333
 40
0.0833333333333333
 40
0.1666666666666667
 40
0.1666666666666667
 40
0.1666666666666667
 40
0.1666666666666667
 40
0.25
 40
0.25
 40
0.25
 40
0.25
 40
0.3333333333333333
 40
0.3333333333333333
 40
0.3333333333333333
 40
0.3333333333333333
 40
0.4166666666666666
 40
0.4166666666666666
 40
0.4166666666666666
 40
0.4166666666666666
 40
0.4999999999999999
 40
0.4999999999999999
 40
0.4999999999999999
 40
0.4999999999999999
 40
0.5833333333333333
 40
0.5833333333333333
 40
0.5833333333333333
 40
0.5833333333333333
 40
0.6666666666666666
 40
0.6666666666666666
 40
0.6666666666666666
 40
0.6666666666666666
 40
0.75
 40
0.75
 40
0.75
 40
0.75
 40
0.8333333333333334
 40
0.8333333333333334
 40
0.8333333333333334
 40
0.8333333333333334
 40
0.9166666666666667
 40
0.9166666666666667
 40
0.9166666666666667
 40
0.9166666666666667
 40
1.0
 40
1.0
 40
1.0
 40
1.0
 10
-10.39694
 20
-16.8198
 30
0.0
 10
-10.39694
 20
-16.8198
 30
0.0
 10
-10.39694
 20
-16.80412
 30
0.0
 10
-10.39694
 20
-16.80412
 30
0.0
 10
-10.39694
 20
-16.80412
 30
0.0
 10
-10.39694
 20
-16.80412
 30
0.0
 10
-10.34335
 20
-16.80412
 30
0.0
 10
-10.34335
 20
-16.80412
 30
0.0
 10
-10.34335
 20
-16.80412
 30
0.0
 10
-10.34335
 20
-16.80412
 30
0.0
 10
-10.34335
 20
-16.8198
 30
0.0
 10
-10.34335
 20
-16.8198
 30
0.0
 10
-10.34335
 20
-16.8198
 30
0.0
 10
-10.34335
 20
-16.8198
 30
0.0
 10
-10.36126
 20
-16.8198
 30
0.0
 10
-10.36126
 20
-16.8198
 30
0.0
 10
-10.36126
 20
-16.8198
 30
0.0
 10
-10.36126
 20
-16.8198
 30
0.0
 10
-10.36126
 20
-16.87845
 30
0.0
 10
-10.36126
 20
-16.87845
 30
0.0
 10
-10.36126
 20
-16.87845
 30
0.0
 10
-10.36126
 20
-16.87845
 30
0.0
 10
-10.34335
 20
-16.87845
 30
0.0
 10
-10.34335
 20
-16.87845
 30
0.0
 10
-10.34335
 20
-16.87845
 30
0.0
 10
-10.34335
 20
-16.87845
 30
0.0
 10
-10.34335
 20
-16.89413
 30
0.0
 10
-10.34335
 20
-16.89413
 30
0.0
 10
-10.34335
 20
-16.89413
 30
0.0
 10
-10.34335
 20
-16.89413
 30
0.0
 10
-10.39694
 20
-16.89413
 30
0.0
 10
-10.39694
 20
-16.89413
 30
0.0
 10
-10.39694
 20
-16.89413
 30
0.0
 10
-10.39694
 20
-16.89413
 30
0.0
 10
-10.39694
 20
-16.87845
 30
0.0
 10
-10.39694
 20
-16.87845
 30
0.0
 10
-10.39694
 20
-16.87845
 30
0.0
 10
-10.39694
 20
-16.87845
 30
0.0
 10
-10.37904
 20
-16.87845
 30
0.0
 10
-10.37904
 20
-16.87845
 30
0.0
 10
-10.37904
 20
-16.87845
 30
0.0
 10
-10.37904
 20
-16.87845
 30
0.0
 10
-10.37904
 20
-16.8198
 30
0.0
 10
-10.37904
 20
-16.8198
 30
0.0
 10
-10.37904
 20
-16.8198
 30
0.0
 10
-10.37904
 20
-16.8198
 30
0.0
 10
-10.39694
 20
-16.8198
 30
0.0
 10
-10.39694
 20
-16.8198
 30
0.0
  0
SPLINE
  5
7E
330
1F
100
AcDbEntity
  8
Layer 1
 62
   250
100
AcDbSpline
210
0.0
220
0.0
230
1.0
 70
    11
 71
     3
 72
    44
 73
    40
 74
     0
 42
0.0000000001
 43
0.0000000001
 40
0.0
 40
0.0
 40
0.0
 40
0.0
 40
0.1
 40
0.1
 40
0.1
 40
0.1
 40
0.2
 40
0.2
 40
0.2
 40
0.2
 40
0.3
 40
0.3
 40
0.3
 40
0.3
 40
0.4
 40
0.4
 40
0.4
 40
0.4
 40
0.5
 40
0.5
 40
0.5
 40
0.5
 40
0.6
 40
0.6
 40
0.6
 40
0.6
 40
0.7
 40
0.7
 40
0.7
 40
0.7
 40
0.7999999999999999
 40
0.7999999999999999
 40
0.7999999999999999
 40
0.7999999999999999
 40
0.8999999999999999
 40
0.8999999999999999
 40
0.8999999999999999
 40
0.8999999999999999
 40
1.0
 40
1.0
 40
1.0
 40
1.0
 10
-10.3258
 20
-16.80412
 30
0.0
 10
-10.3258
 20
-16.80412
 30
0.0
 10
-10.30668
 20
-16.80412
 30
0.0
 10
-10.30668
 20
-16.80412
 30
0.0
 10
-10.30668
 20
-16.80412
 30
0.0
 10
-10.30668
 20
-16.80412
 30
0.0
 10
-10.28162
 20
-16.86954
 30
0.0
 10
-10.28162
 20
-16.86954
 30
0.0
 10
-10.28162
 20
-16.86954
 30
0.0
 10
-10.28162
 20
-16.86954
 30
0.0
 10
-10.28162
 20
-16.80412
 30
0.0
 10
-10.28162
 20
-16.80412
 30
0.0
 10
-10.28162
 20
-16.80412
 30
0.0
 10
-10.28162
 20
-16.80412
 30
0.0
 10
-10.26594
 20
-16.80412
 30
0.0
 10
-10.26594
 20
-16.80412
 30
0.0
 10
-10.26594
 20
-16.80412
 30
0.0
 10
-10.26594
 20
-16.80412
 30
0.0
 10
-10.26594
 20
-16.89413
 30
0.0
 10
-10.26594
 20
-16.89413
 30
0.0
 10
-10.26594
 20
-16.89413
 30
0.0
 10
-10.26594
 20
-16.89413
 30
0.0
 10
-10.28493
 20
-16.89413
 30
0.0
 10
-10.28493
 20
-16.89413
 30
0.0
 10
-10.28493
 20
-16.89413
 30
0.0
 10
-10.28493
 20
-16.89413
 30
0.0
 10
-10.31012
 20
-16.82871
 30
0.0
 10
-10.31012
 20
-16.82871
 30
0.0
 10
-10.31012
 20
-16.82871
 30
0.0
 10
-10.31012
 20
-16.82871
 30
0.0
 10
-10.31012
 20
-16.89413
 30
0.0
 10
-10.31012
 20
-16.89413
 30
0.0
 10
-10.31012
 20
-16.89413
 30
0.0
 10
-10.31012
 20
-16.89413
 30
0.0
 10
-10.3258
 20
-16.89413
 30
0.0
 10
-10.3258
 20
-16.89413
 30
0.0
 10
-10.3258
 20
-16.89413
 30
0.0
 10
-10.3258
 20
-16.89413
 30
0.0
 10
-10.3258
 20
-16.80412
 30
0.0
 10
-10.3258
 20
-16.80412
 30
0.0
  0
SPLINE
  5
7F
330
1F
100
AcDbEntity
  8
Layer 1
 62
   250
100
AcDbSpline
210
0.0
220
0.0
230
1.0
 70
    11
 71
     3
 72
    92
 73
    88
 74
     0
 42
0.0000000001
 43
0.0000000001
 40
0.0
 40
0.0
 40
0.0
 40
0.0
 40
0.0454545454545455
 40
0.0454545454545455
 40
0.0454545454545455
 40
0.0454545454545455
 40
0.0909090909090909
 40
0.0909090909090909
 40
0.0909090909090909
 40
0.0909090909090909
 40
0.1363636363636364
 40
0.1363636363636364
 40
0.1363636363636364
 40
0.1363636363636364
 40
0.1818181818181818
 40
0.1818181818181818
 40
0.1818181818181818
 40
0.1818181818181818
 40
0.2272727272727273
 40
0.2272727272727273
 40
0.2272727272727273
 40
0.2272727272727273
 40
0.2727272727272728
 40
0.2727272727272728
 40
0.2727272727272728
 40
0.2727272727272728
 40
0.3181818181818182
 40
0.3181818181818182
 40
0.3181818181818182
 40
0.3181818181818182
 40
0.3636363636363637
 40
0.3636363636363637
 40
0.3636363636363637
 40
0.3636363636363637
 40
0.4090909090909092
 40
0.4090909090909092
 40
0.4090909090909092
 40
0.4090909090909092
 40
0.4545454545454546
 40
0.4545454545454546
 40
0.4545454545454546
 40
0.4545454545454546
 40
0.5000000000000001
 40
0.5000000000000001
 40
0.5000000000000001
 40
0.5000000000000001
 40
0.5454545454545455
 40
0.5454545454545455
 40
0.5454545454545455
 40
0.5454545454545455
 40
0.5909090909090909
 40
0.5909090909090909
 40
0.5909090909090909
 40
0.5909090909090909
 40
0.6363636363636364
 40
0.6363636363636364
 40
0.6363636363636364
 40
0.6363636363636364
 40
0.6818181818181818
 40
0.6818181818181818
 40
0.6818181818181818
 40
0.6818181818181818
 40
0.7272727272727272
 40
0.7272727272727272
 40
0.7272727272727272
 40
0.7272727272727272
 40
0.7727272727272726
 40
0.7727272727272726
 40
0.7727272727272726
 40
0.7727272727272726
 40
0.818181818181818
 40
0.818181818181818
 40
0.818181818181818
 40
0.818181818181818
 40
0.8636363636363634
 40
0.8636363636363634
 40
0.8636363636363634
 40
0.8636363636363634
 40
0.9090909090909088
 40
0.9090909090909088
 40
0.9090909090909088
 40
0.9090909090909088
 40
0.9545454545454543
 40
0.9545454545454543
 40
0.9545454545454543
 40
0.9545454545454543
 40
1.0
 40
1.0
 40
1.0
 40
1.0
 10
-10.17269
 20
-16.80412
 30
0.0
 10
-10.17269
 20
-16.80412
 30
0.0
 10
-10.1238
 20
-16.80412
 30
0.0
 10
-10.1238
 20
-16.80412
 30
0.0
 10
-10.1238
 20
-16.80412
 30
0.0
 10
-10.1238
 20
-16.80412
 30
0.0
 10
-10.1238
 20
-16.8198
 30
0.0
 10
-10.1238
 20
-16.8198
 30
0.0
 10
-10.1238
 20
-16.8198
 30
0.0
 10
-10.1238
 20
-16.8198
 30
0.0
 10
-10.15829
 20
-16.8198
 30
0.0
 10
-10.15829
 20
-16.8198
 30
0.0
 10
-10.15829
 20
-16.8198
 30
0.0
 10
-10.15829
 20
-16.8198
 30
0.0
 10
-10.15829
 20
-16.83649
 30
0.0
 10
-10.15829
 20
-16.83649
 30
0.0
 10
-10.15829
 20
-16.83649
 30
0.0
 10
-10.15685
 20
-16.83593
 30
0.0
 10
-10.15528
 20
-16.83552
 30
0.0
 10
-10.15364
 20
-16.83526
 30
0.0
 10
-10.15364
 20
-16.83526
 30
0.0
 10
-10.15199
 20
-16.83499
 30
0.0
 10
-10.15024
 20
-16.83486
 30
0.0
 10
-10.14839
 20
-16.83486
 30
0.0
 10
-10.14839
 20
-16.83486
 30
0.0
 10
-10.13948
 20
-16.83486
 30
0.0
 10
-10.13224
 20
-16.83768
 30
0.0
 10
-10.12668
 20
-16.8433
 30
0.0
 10
-10.12668
 20
-16.8433
 30
0.0
 10
-10.12114
 20
-16.84894
 30
0.0
 10
-10.11837
 20
-16.85625
 30
0.0
 10
-10.11837
 20
-16.86526
 30
0.0
 10
-10.11837
 20
-16.86526
 30
0.0
 10
-10.11837
 20
-16.8747
 30
0.0
 10
-10.12137
 20
-16.88215
 30
0.0
 10
-10.12738
 20
-16.88765
 30
0.0
 10
-10.12738
 20
-16.88765
 30
0.0
 10
-10.13339
 20
-16.89314
 30
0.0
 10
-10.14158
 20
-16.89588
 30
0.0
 10
-10.15195
 20
-16.89588
 30
0.0
 10
-10.15195
 20
-16.89588
 30
0.0
 10
-10.1558
 20
-16.89588
 30
0.0
 10
-10.15971
 20
-16.89555
 30
0.0
 10
-10.16364
 20
-16.89491
 30
0.0
 10
-10.16364
 20
-16.89491
 30
0.0
 10
-10.16757
 20
-16.89427
 30
0.0
 10
-10.1716
 20
-16.89331
 30
0.0
 10
-10.1757
 20
-16.89201
 30
0.0
 10
-10.1757
 20
-16.89201
 30
0.0
 10
-10.1757
 20
-16.89201
 30
0.0
 10
-10.1757
 20
-16.87598
 30
0.0
 10
-10.1757
 20
-16.87598
 30
0.0
 10
-10.1757
 20
-16.87598
 30
0.0
 10
-10.17236
 20
-16.87763
 30
0.0
 10
-10.16893
 20
-16.87886
 30
0.0
 10
-10.16543
 20
-16.87968
 30
0.0
 10
-10.16543
 20
-16.87968
 30
0.0
 10
-10.16191
 20
-16.88051
 30
0.0
 10
-10.15837
 20
-16.88092
 30
0.0
 10
-10.15483
 20
-16.88092
 30
0.0
 10
-10.15483
 20
-16.88092
 30
0.0
 10
-10.14858
 20
-16.88092
 30
0.0
 10
-10.1438
 20
-16.87958
 30
0.0
 10
-10.14055
 20
-16.87691
 30
0.0
 10
-10.14055
 20
-16.87691
 30
0.0
 10
-10.1373
 20
-16.87423
 30
0.0
 10
-10.13567
 20
-16.87036
 30
0.0
 10
-10.13567
 20
-16.86526
 30
0.0
 10
-10.13567
 20
-16.86526
 30
0.0
 10
-10.13567
 20
-16.86055
 30
0.0
 10
-10.1373
 20
-16.85678
 30
0.0
 10
-10.14053
 20
-16.85394
 30
0.0
 10
-10.14053
 20
-16.85394
 30
0.0
 10
-10.14376
 20
-16.85112
 30
0.0
 10
-10.14808
 20
-16.8497
 30
0.0
 10
-10.15345
 20
-16.8497
 30
0.0
 10
-10.15345
 20
-16.8497
 30
0.0
 10
-10.15664
 20
-16.8497
 30
0.0
 10
-10.15981
 20
-16.85009
 30
0.0
 10
-10.16302
 20
-16.85087
 30
0.0
 10
-10.16302
 20
-16.85087
 30
0.0
 10
-10.16621
 20
-16.85166
 30
0.0
 10
-10.16944
 20
-16.85285
 30
0.0
 10
-10.17269
 20
-16.85441
 30
0.0
 10
-10.17269
 20
-16.85441
 30
0.0
 10
-10.17269
 20
-16.85441
 30
0.0
 10
-10.17269
 20
-16.80412
 30
0.0
 10
-10.17269
 20
-16.80412
 30
0.0
  0
SPLINE
  5
80
330
1F
100
AcDbEntity
  8
Layer 1
 62
   250
100
AcDbSpline
210
0.0
220
0.0
230
1.0
 70
    11
 71
     3
 72
    36
 73
    32
 74
     0
 42
0.0000000001
 43
0.0000000001
 40
0.0
 40
0.0
 40
0.0
 40
0.0
 40
0.125
 40
0.125
 40
0.125
 40
0.125
 40
0.25
 40
0.25
 40
0.25
 40
0.25
 40
0.375
 40
0.375
 40
0.375
 40
0.375
 40
0.5
 40
0.5
 40
0.5
 40
0.5
 40
0.625
 40
0.625
 40
0.625
 40
0.625
 40
0.75
 40
0.75
 40
0.75
 40
0.75
 40
0.875
 40
0.875
 40
0.875
 40
0.875
 40
1.0
 40
1.0
 40
1.0
 40
1.0
 10
-10.82957
 20
-16.98177
 30
0.0
 10
-10.8352
 20
-16.98177
 30
0.0
 10
-10.83946
 20
-16.98395
 30
0.0
 10
-10.84237
 20
-16.98834
 30
0.0
 10
-10.84237
 20
-16.98834
 30
0.0
 10
-10.84527
 20
-16.99272
 30
0.0
 10
-10.84671
 20
-16.99922
 30
0.0
 10
-10.84671
 20
-17.0078
 30
0.0
 10
-10.84671
 20
-17.0078
 30
0.0
 10
-10.84671
 20
-17.01636
 30
0.0
 10
-10.84527
 20
-17.02285
 30
0.0
 10
-10.84237
 20
-17.02725
 30
0.0
 10
-10.84237
 20
-17.02725
 30
0.0
 10
-10.83946
 20
-17.03165
 30
0.0
 10
-10.8352
 20
-17.03385
 30
0.0
 10
-10.82957
 20
-17.03385
 30
0.0
 10
-10.82957
 20
-17.03385
 30
0.0
 10
-10.82391
 20
-17.03385
 30
0.0
 10
-10.81963
 20
-17.03165
 30
0.0
 10
-10.81673
 20
-17.02725
 30
0.0
 10
-10.81673
 20
-17.02725
 30
0.0
 10
-10.81382
 20
-17.02285
 30
0.0
 10
-10.81238
 20
-17.01636
 30
0.0
 10
-10.81238
 20
-17.0078
 30
0.0
 10
-10.81238
 20
-17.0078
 30
0.0
 10
-10.81238
 20
-16.99922
 30
0.0
 10
-10.81382
 20
-16.99272
 30
0.0
 10
-10.81673
 20
-16.98834
 30
0.0
 10
-10.81673
 20
-16.98834
 30
0.0
 10
-10.81963
 20
-16.98395
 30
0.0
 10
-10.82391
 20
-16.98177
 30
0.0
 10
-10.82957
 20
-16.98177
 30
0.0
  0
SPLINE
  5
81
330
1F
100
AcDbEntity
  8
Layer 1
 62
   250
100
AcDbSpline
210
0.0
220
0.0
230
1.0
 70
    11
 71
     3
 72
    36
 73
    32
 74
     0
 42
0.0000000001
 43
0.0000000001
 40
0.0
 40
0.0
 40
0.0
 40
0.0
 40
0.125
 40
0.125
 40
0.125
 40
0.125
 40
0.25
 40
0.25
 40
0.25
 40
0.25
 40
0.375
 40
0.375
 40
0.375
 40
0.375
 40
0.5
 40
0.5
 40
0.5
 40
0.5
 40
0.625
 40
0.625
 40
0.625
 40
0.625
 40
0.75
 40
0.75
 40
0.75
 40
0.75
 40
0.875
 40
0.875
 40
0.875
 40
0.875
 40
1.0
 40
1.0
 40
1.0
 40
1.0
 10
-10.82957
 20
-16.97237
 30
0.0
 10
-10.8202
 20
-16.97237
 30
0.0
 10
-10.81304
 20
-16.97539
 30
0.0
 10
-10.80808
 20
-16.98146
 30
0.0
 10
-10.80808
 20
-16.98146
 30
0.0
 10
-10.80312
 20
-16.98753
 30
0.0
 10
-10.80063
 20
-16.99632
 30
0.0
 10
-10.80063
 20
-17.0078
 30
0.0
 10
-10.80063
 20
-17.0078
 30
0.0
 10
-10.80063
 20
-17.01935
 30
0.0
 10
-10.8031
 20
-17.02813
 30
0.0
 10
-10.80804
 20
-17.03418
 30
0.0
 10
-10.80804
 20
-17.03418
 30
0.0
 10
-10.813
 20
-17.04023
 30
0.0
 10
-10.82016
 20
-17.04326
 30
0.0
 10
-10.82957
 20
-17.04326
 30
0.0
 10
-10.82957
 20
-17.04326
 30
0.0
 10
-10.83895
 20
-17.04326
 30
0.0
 10
-10.84609
 20
-17.04023
 30
0.0
 10
-10.85105
 20
-17.03418
 30
0.0
 10
-10.85105
 20
-17.03418
 30
0.0
 10
-10.85599
 20
-17.02813
 30
0.0
 10
-10.85846
 20
-17.01935
 30
0.0
 10
-10.85846
 20
-17.0078
 30
0.0
 10
-10.85846
 20
-17.0078
 30
0.0
 10
-10.85846
 20
-16.99632
 30
0.0
 10
-10.85599
 20
-16.98753
 30
0.0
 10
-10.85105
 20
-16.98146
 30
0.0
 10
-10.85105
 20
-16.98146
 30
0.0
 10
-10.84609
 20
-16.97539
 30
0.0
 10
-10.83895
 20
-16.97237
 30
0.0
 10
-10.82957
 20
-16.97237
 30
0.0
  0
SPLINE
  5
82
330
1F
100
AcDbEntity
  8
Layer 1
 62
   250
100
AcDbSpline
210
0.0
220
0.0
230
1.0
 70
    11
 71
     3
 72
    36
 73
    32
 74
     0
 42
0.0000000001
 43
0.0000000001
 40
0.0
 40
0.0
 40
0.0
 40
0.0
 40
0.125
 40
0.125
 40
0.125
 40
0.125
 40
0.25
 40
0.25
 40
0.25
 40
0.25
 40
0.375
 40
0.375
 40
0.375
 40
0.375
 40
0.5
 40
0.5
 40
0.5
 40
0.5
 40
0.625
 40
0.625
 40
0.625
 40
0.625
 40
0.75
 40
0.75
 40
0.75
 40
0.75
 40
0.875
 40
0.875
 40
0.875
 40
0.875
 40
1.0
 40
1.0
 40
1.0
 40
1.0
 10
-10.75524
 20
-16.98177
 30
0.0
 10
-10.76087
 20
-16.98177
 30
0.0
 10
-10.76513
 20
-16.98395
 30
0.0
 10
-10.76804
 20
-16.98834
 30
0.0
 10
-10.76804
 20
-16.98834
 30
0.0
 10
-10.77094
 20
-16.99272
 30
0.0
 10
-10.77238
 20
-16.99922
 30
0.0
 10
-10.77238
 20
-17.0078
 30
0.0
 10
-10.77238
 20
-17.0078
 30
0.0
 10
-10.77238
 20
-17.01636
 30
0.0
 10
-10.77094
 20
-17.02285
 30
0.0
 10
-10.76804
 20
-17.02725
 30
0.0
 10
-10.76804
 20
-17.02725
 30
0.0
 10
-10.76513
 20
-17.03165
 30
0.0
 10
-10.76087
 20
-17.03385
 30
0.0
 10
-10.75524
 20
-17.03385
 30
0.0
 10
-10.75524
 20
-17.03385
 30
0.0
 10
-10.74958
 20
-17.03385
 30
0.0
 10
-10.7453
 20
-17.03165
 30
0.0
 10
-10.7424
 20
-17.02725
 30
0.0
 10
-10.7424
 20
-17.02725
 30
0.0
 10
-10.73949
 20
-17.02285
 30
0.0
 10
-10.73805
 20
-17.01636
 30
0.0
 10
-10.73805
 20
-17.0078
 30
0.0
 10
-10.73805
 20
-17.0078
 30
0.0
 10
-10.73805
 20
-16.99922
 30
0.0
 10
-10.73949
 20
-16.99272
 30
0.0
 10
-10.7424
 20
-16.98834
 30
0.0
 10
-10.7424
 20
-16.98834
 30
0.0
 10
-10.7453
 20
-16.98395
 30
0.0
 10
-10.74958
 20
-16.98177
 30
0.0
 10
-10.75524
 20
-16.98177
 30
0.0
  0
SPLINE
  5
83
330
1F
100
AcDbEntity
  8
Layer 1
 62
   250
100
AcDbSpline
210
0.0
220
0.0
230
1.0
 70
    11
 71
     3
 72
    36
 73
    32
 74
     0
 42
0.0000000001
 43
0.0000000001
 40
0.0
 40
0.0
 40
0.0
 40
0.0
 40
0.125
 40
0.125
 40
0.125
 40
0.125
 40
0.25
 40
0.25
 40
0.25
 40
0.25
 40
0.375
 40
0.375
 40
0.375
 40
0.375
 40
0.5
 40
0.5
 40
0.5
 40
0.5
 40
0.625
 40
0.625
 40
0.625
 40
0.625
 40
0.75
 40
0.75
 40
0.75
 40
0.75
 40
0.875
 40
0.875
 40
0.875
 40
0.875
 40
1.0
 40
1.0
 40
1.0
 40
1.0
 10
-10.75524
 20
-16.97237
 30
0.0
 10
-10.74587
 20
-16.97237
 30
0.0
 10
-10.73871
 20
-16.97539
 30
0.0
 10
-10.73375
 20
-16.98146
 30
0.0
 10
-10.73375
 20
-16.98146
 30
0.0
 10
-10.72879
 20
-16.98753
 30
0.0
 10
-10.7263
 20
-16.99632
 30
0.0
 10
-10.7263
 20
-17.0078
 30
0.0
 10
-10.7263
 20
-17.0078
 30
0.0
 10
-10.7263
 20
-17.01935
 30
0.0
 10
-10.72877
 20
-17.02813
 30
0.0
 10
-10.73371
 20
-17.03418
 30
0.0
 10
-10.73371
 20
-17.03418
 30
0.0
 10
-10.73867
 20
-17.04023
 30
0.0
 10
-10.74583
 20
-17.04326
 30
0.0
 10
-10.75524
 20
-17.04326
 30
0.0
 10
-10.75524
 20
-17.04326
 30
0.0
 10
-10.76462
 20
-17.04326
 30
0.0
 10
-10.77176
 20
-17.04023
 30
0.0
 10
-10.77672
 20
-17.03418
 30
0.0
 10
-10.77672
 20
-17.03418
 30
0.0
 10
-10.78166
 20
-17.02813
 30
0.0
 10
-10.78413
 20
-17.01935
 30
0.0
 10
-10.78413
 20
-17.0078
 30
0.0
 10
-10.78413
 20
-17.0078
 30
0.0
 10
-10.78413
 20
-16.99632
 30
0.0
 10
-10.78166
 20
-16.98753
 30
0.0
 10
-10.77672
 20
-16.98146
 30
0.0
 10
-10.77672
 20
-16.98146
 30
0.0
 10
-10.77176
 20
-16.97539
 30
0.0
 10
-10.76462
 20
-16.97237
 30
0.0
 10
-10.75524
 20
-16.97237
 30
0.0
  0
SPLINE
  5
84
330
1F
100
AcDbEntity
  8
Layer 1
 62
   250
100
AcDbSpline
210
0.0
220
0.0
230
1.0
 70
    11
 71
     3
 72
   112
 73
   108
 74
     0
 42
0.0000000001
 43
0.0000000001
 40
0.0
 40
0.0
 40
0.0
 40
0.0
 40
0.037037037037037
 40
0.037037037037037
 40
0.037037037037037
 40
0.037037037037037
 40
0.0740740740740741
 40
0.0740740740740741
 40
0.0740740740740741
 40
0.0740740740740741
 40
0.1111111111111111
 40
0.1111111111111111
 40
0.1111111111111111
 40
0.1111111111111111
 40
0.1481481481481481
 40
0.1481481481481481
 40
0.1481481481481481
 40
0.1481481481481481
 40
0.1851851851851852
 40
0.1851851851851852
 40
0.1851851851851852
 40
0.1851851851851852
 40
0.2222222222222222
 40
0.2222222222222222
 40
0.2222222222222222
 40
0.2222222222222222
 40
0.2592592592592592
 40
0.2592592592592592
 40
0.2592592592592592
 40
0.2592592592592592
 40
0.2962962962962963
 40
0.2962962962962963
 40
0.2962962962962963
 40
0.2962962962962963
 40
0.3333333333333333
 40
0.3333333333333333
 40
0.3333333333333333
 40
0.3333333333333333
 40
0.3703703703703703
 40
0.3703703703703703
 40
0.3703703703703703
 40
0.3703703703703703
 40
0.4074074074074074
 40
0.4074074074074074
 40
0.4074074074074074
 40
0.4074074074074074
 40
0.4444444444444444
 40
0.4444444444444444
 40
0.4444444444444444
 40
0.4444444444444444
 40
0.4814814814814815
 40
0.4814814814814815
 40
0.4814814814814815
 40
0.4814814814814815
 40
0.5185185185185185
 40
0.5185185185185185
 40
0.5185185185185185
 40
0.5185185185185185
 40
0.5555555555555556
 40
0.5555555555555556
 40
0.5555555555555556
 40
0.5555555555555556
 40
0.5925925925925926
 40
0.5925925925925926
 40
0.5925925925925926
 40
0.5925925925925926
 40
0.6296296296296295
 40
0.6296296296296295
 40
0.6296296296296295
 40
0.6296296296296295
 40
0.6666666666666665
 40
0.6666666666666665
 40
0.6666666666666665
 40
0.6666666666666665
 40
0.7037037037037035
 40
0.7037037037037035
 40
0.7037037037037035
 40
0.7037037037037035
 40
0.7407407407407405
 40
0.7407407407407405
 40
0.7407407407407405
 40
0.7407407407407405
 40
0.7777777777777775
 40
0.7777777777777775
 40
0.7777777777777775
 40
0.7777777777777775
 40
0.8148148148148144
 40
0.8148148148148144
 40
0.8148148148148144
 40
0.8148148148148144
 40
0.8518518518518514
 40
0.8518518518518514
 40
0.8518518518518514
 40
0.8518518518518514
 40
0.8888888888888884
 40
0.8888888888888884
 40
0.8888888888888884
 40
0.8888888888888884
 40
0.9259259259259254
 40
0.9259259259259254
 40
0.9259259259259254
 40
0.9259259259259254
 40
0.9629629629629624
 40
0.9629629629629624
 40
0.9629629629629624
 40
0.9629629629629624
 40
1.0
 40
1.0
 40
1.0
 40
1.0
 10
-10.6773
 20
-16.98087
 30
0.0
 10
-10.67595
 20
-16.97796
 30
0.0
 10
-10.6742
 20
-16.97582
 30
0.0
 10
-10.67208
 20
-16.97445
 30
0.0
 10
-10.67208
 20
-16.97445
 30
0.0
 10
-10.66998
 20
-16.97307
 30
0.0
 10
-10.66743
 20
-16.97237
 30
0.0
 10
-10.66446
 20
-16.97237
 30
0.0
 10
-10.66446
 20
-16.97237
 30
0.0
 10
-10.65903
 20
-16.97237
 30
0.0
 10
-10.6552
 20
-16.97447
 30
0.0
 10
-10.65298
 20
-16.97866
 30
0.0
 10
-10.65298
 20
-16.97866
 30
0.0
 10
-10.65074
 20
-16.98286
 30
0.0
 10
-10.64963
 20
-16.99076
 30
0.0
 10
-10.64963
 20
-17.00239
 30
0.0
 10
-10.64963
 20
-17.00239
 30
0.0
 10
-10.64963
 20
-17.00239
 30
0.0
 10
-10.64963
 20
-17.04151
 30
0.0
 10
-10.64963
 20
-17.04151
 30
0.0
 10
-10.64963
 20
-17.04151
 30
0.0
 10
-10.64963
 20
-17.04151
 30
0.0
 10
-10.65975
 20
-17.04151
 30
0.0
 10
-10.65975
 20
-17.04151
 30
0.0
 10
-10.65975
 20
-17.04151
 30
0.0
 10
-10.65975
 20
-17.04151
 30
0.0
 10
-10.65975
 20
-17.00286
 30
0.0
 10
-10.65975
 20
-17.00286
 30
0.0
 10
-10.65975
 20
-17.00286
 30
0.0
 10
-10.65975
 20
-16.99334
 30
0.0
 10
-10.66029
 20
-16.98743
 30
0.0
 10
-10.66136
 20
-16.9851
 30
0.0
 10
-10.66136
 20
-16.9851
 30
0.0
 10
-10.66241
 20
-16.9828
 30
0.0
 10
-10.66436
 20
-16.98165
 30
0.0
 10
-10.66718
 20
-16.98165
 30
0.0
 10
-10.66718
 20
-16.98165
 30
0.0
 10
-10.67039
 20
-16.98165
 30
0.0
 10
-10.67259
 20
-16.98288
 30
0.0
 10
-10.67379
 20
-16.98535
 30
0.0
 10
-10.67379
 20
-16.98535
 30
0.0
 10
-10.67496
 20
-16.98782
 30
0.0
 10
-10.67556
 20
-16.99367
 30
0.0
 10
-10.67556
 20
-17.00286
 30
0.0
 10
-10.67556
 20
-17.00286
 30
0.0
 10
-10.67556
 20
-17.00286
 30
0.0
 10
-10.67556
 20
-17.04151
 30
0.0
 10
-10.67556
 20
-17.04151
 30
0.0
 10
-10.67556
 20
-17.04151
 30
0.0
 10
-10.67556
 20
-17.04151
 30
0.0
 10
-10.68568
 20
-17.04151
 30
0.0
 10
-10.68568
 20
-17.04151
 30
0.0
 10
-10.68568
 20
-17.04151
 30
0.0
 10
-10.68568
 20
-17.04151
 30
0.0
 10
-10.68568
 20
-17.00286
 30
0.0
 10
-10.68568
 20
-17.00286
 30
0.0
 10
-10.68568
 20
-17.00286
 30
0.0
 10
-10.68568
 20
-16.99321
 30
0.0
 10
-10.68626
 20
-16.98727
 30
0.0
 10
-10.68741
 20
-16.98502
 30
0.0
 10
-10.68741
 20
-16.98502
 30
0.0
 10
-10.68854
 20
-16.98278
 30
0.0
 10
-10.6906
 20
-16.98165
 30
0.0
 10
-10.69358
 20
-16.98165
 30
0.0
 10
-10.69358
 20
-16.98165
 30
0.0
 10
-10.69653
 20
-16.98165
 30
0.0
 10
-10.69856
 20
-16.98288
 30
0.0
 10
-10.69969
 20
-16.98535
 30
0.0
 10
-10.69969
 20
-16.98535
 30
0.0
 10
-10.70085
 20
-16.98782
 30
0.0
 10
-10.70142
 20
-16.99367
 30
0.0
 10
-10.70142
 20
-17.00286
 30
0.0
 10
-10.70142
 20
-17.00286
 30
0.0
 10
-10.70142
 20
-17.00286
 30
0.0
 10
-10.70142
 20
-17.04151
 30
0.0
 10
-10.70142
 20
-17.04151
 30
0.0
 10
-10.70142
 20
-17.04151
 30
0.0
 10
-10.70142
 20
-17.04151
 30
0.0
 10
-10.71149
 20
-17.04151
 30
0.0
 10
-10.71149
 20
-17.04151
 30
0.0
 10
-10.71149
 20
-17.04151
 30
0.0
 10
-10.71149
 20
-17.04151
 30
0.0
 10
-10.71149
 20
-16.97399
 30
0.0
 10
-10.71149
 20
-16.97399
 30
0.0
 10
-10.71149
 20
-16.97399
 30
0.0
 10
-10.71149
 20
-16.97399
 30
0.0
 10
-10.70142
 20
-16.97399
 30
0.0
 10
-10.70142
 20
-16.97399
 30
0.0
 10
-10.70142
 20
-16.97399
 30
0.0
 10
-10.70142
 20
-16.97399
 30
0.0
 10
-10.70142
 20
-16.97977
 30
0.0
 10
-10.70142
 20
-16.97977
 30
0.0
 10
-10.70142
 20
-16.97977
 30
0.0
 10
-10.70011
 20
-16.97737
 30
0.0
 10
-10.69844
 20
-16.97554
 30
0.0
 10
-10.69644
 20
-16.97426
 30
0.0
 10
-10.69644
 20
-16.97426
 30
0.0
 10
-10.69447
 20
-16.973
 30
0.0
 10
-10.6922
 20
-16.97237
 30
0.0
 10
-10.68967
 20
-16.97237
 30
0.0
 10
-10.68967
 20
-16.97237
 30
0.0
 10
-10.68661
 20
-16.97237
 30
0.0
 10
-10.68408
 20
-16.97307
 30
0.0
 10
-10.68204
 20
-16.97447
 30
0.0
 10
-10.68204
 20
-16.97447
 30
0.0
 10
-10.68
 20
-16.97589
 30
0.0
 10
-10.67844
 20
-16.97801
 30
0.0
 10
-10.6773
 20
-16.98087
 30
0.0
  0
SPLINE
  5
85
330
1F
100
AcDbEntity
  8
Layer 1
 62
   250
100
AcDbSpline
210
0.0
220
0.0
230
1.0
 70
    11
 71
     3
 72
    20
 73
    16
 74
     0
 42
0.0000000001
 43
0.0000000001
 40
0.0
 40
0.0
 40
0.0
 40
0.0
 40
0.25
 40
0.25
 40
0.25
 40
0.25
 40
0.5
 40
0.5
 40
0.5
 40
0.5
 40
0.75
 40
0.75
 40
0.75
 40
0.75
 40
1.0
 40
1.0
 40
1.0
 40
1.0
 10
-10.61423
 20
-17.02311
 30
0.0
 10
-10.61423
 20
-17.02311
 30
0.0
 10
-10.59904
 20
-17.02311
 30
0.0
 10
-10.59904
 20
-17.02311
 30
0.0
 10
-10.59904
 20
-17.02311
 30
0.0
 10
-10.59904
 20
-17.02311
 30
0.0
 10
-10.59904
 20
-17.04151
 30
0.0
 10
-10.59904
 20
-17.04151
 30
0.0
 10
-10.59904
 20
-17.04151
 30
0.0
 10
-10.59904
 20
-17.04151
 30
0.0
 10
-10.61423
 20
-17.04151
 30
0.0
 10
-10.61423
 20
-17.04151
 30
0.0
 10
-10.61423
 20
-17.04151
 30
0.0
 10
-10.61423
 20
-17.04151
 30
0.0
 10
-10.61423
 20
-17.02311
 30
0.0
 10
-10.61423
 20
-17.02311
 30
0.0
  0
SPLINE
  5
86
330
1F
100
AcDbEntity
  8
Layer 1
 62
   250
100
AcDbSpline
210
0.0
220
0.0
230
1.0
 70
    11
 71
     3
 72
    52
 73
    48
 74
     0
 42
0.0000000001
 43
0.0000000001
 40
0.0
 40
0.0
 40
0.0
 40
0.0
 40
0.0833333333333333
 40
0.0833333333333333
 40
0.0833333333333333
 40
0.0833333333333333
 40
0.1666666666666667
 40
0.1666666666666667
 40
0.1666666666666667
 40
0.1666666666666667
 40
0.25
 40
0.25
 40
0.25
 40
0.25
 40
0.3333333333333333
 40
0.3333333333333333
 40
0.3333333333333333
 40
0.3333333333333333
 40
0.4166666666666666
 40
0.4166666666666666
 40
0.4166666666666666
 40
0.4166666666666666
 40
0.4999999999999999
 40
0.4999999999999999
 40
0.4999999999999999
 40
0.4999999999999999
 40
0.5833333333333333
 40
0.5833333333333333
 40
0.5833333333333333
 40
0.5833333333333333
 40
0.6666666666666666
 40
0.6666666666666666
 40
0.6666666666666666
 40
0.6666666666666666
 40
0.75
 40
0.75
 40
0.75
 40
0.75
 40
0.8333333333333334
 40
0.8333333333333334
 40
0.8333333333333334
 40
0.8333333333333334
 40
0.9166666666666667
 40
0.9166666666666667
 40
0.9166666666666667
 40
0.9166666666666667
 40
1.0
 40
1.0
 40
1.0
 40
1.0
 10
-10.53087
 20
-17.01704
 30
0.0
 10
-10.53087
 20
-17.02202
 30
0.0
 10
-10.52996
 20
-17.02577
 30
0.0
 10
-10.52813
 20
-17.0283
 30
0.0
 10
-10.52813
 20
-17.0283
 30
0.0
 10
-10.5263
 20
-17.03083
 30
0.0
 10
-10.5236
 20
-17.03211
 30
0.0
 10
-10.52002
 20
-17.03211
 30
0.0
 10
-10.52002
 20
-17.03211
 30
0.0
 10
-10.52002
 20
-17.03211
 30
0.0
 10
-10.50706
 20
-17.03211
 30
0.0
 10
-10.50706
 20
-17.03211
 30
0.0
 10
-10.50706
 20
-17.03211
 30
0.0
 10
-10.50706
 20
-17.03211
 30
0.0
 10
-10.50706
 20
-17.04151
 30
0.0
 10
-10.50706
 20
-17.04151
 30
0.0
 10
-10.50706
 20
-17.04151
 30
0.0
 10
-10.50706
 20
-17.04151
 30
0.0
 10
-10.52109
 20
-17.04151
 30
0.0
 10
-10.52109
 20
-17.04151
 30
0.0
 10
-10.52109
 20
-17.04151
 30
0.0
 10
-10.52774
 20
-17.04151
 30
0.0
 10
-10.53286
 20
-17.03937
 30
0.0
 10
-10.53651
 20
-17.03511
 30
0.0
 10
-10.53651
 20
-17.03511
 30
0.0
 10
-10.54015
 20
-17.03085
 30
0.0
 10
-10.54196
 20
-17.02482
 30
0.0
 10
-10.54196
 20
-17.01704
 30
0.0
 10
-10.54196
 20
-17.01704
 30
0.0
 10
-10.54196
 20
-17.01704
 30
0.0
 10
-10.54196
 20
-16.95572
 30
0.0
 10
-10.54196
 20
-16.95572
 30
0.0
 10
-10.54196
 20
-16.95572
 30
0.0
 10
-10.54196
 20
-16.95572
 30
0.0
 10
-10.55974
 20
-16.95572
 30
0.0
 10
-10.55974
 20
-16.95572
 30
0.0
 10
-10.55974
 20
-16.95572
 30
0.0
 10
-10.55974
 20
-16.95572
 30
0.0
 10
-10.55974
 20
-16.94703
 30
0.0
 10
-10.55974
 20
-16.94703
 30
0.0
 10
-10.55974
 20
-16.94703
 30
0.0
 10
-10.55974
 20
-16.94703
 30
0.0
 10
-10.53087
 20
-16.94703
 30
0.0
 10
-10.53087
 20
-16.94703
 30
0.0
 10
-10.53087
 20
-16.94703
 30
0.0
 10
-10.53087
 20
-16.94703
 30
0.0
 10
-10.53087
 20
-17.01704
 30
0.0
 10
-10.53087
 20
-17.01704
 30
0.0
  0
SPLINE
  5
87
330
1F
100
AcDbEntity
  8
Layer 1
 62
   250
100
AcDbSpline
210
0.0
220
0.0
230
1.0
 70
    11
 71
     3
 72
    76
 73
    72
 74
     0
 42
0.0000000001
 43
0.0000000001
 40
0.0
 40
0.0
 40
0.0
 40
0.0
 40
0.0555555555555556
 40
0.0555555555555556
 40
0.0555555555555556
 40
0.0555555555555556
 40
0.1111111111111111
 40
0.1111111111111111
 40
0.1111111111111111
 40
0.1111111111111111
 40
0.1666666666666667
 40
0.1666666666666667
 40
0.1666666666666667
 40
0.1666666666666667
 40
0.2222222222222222
 40
0.2222222222222222
 40
0.2222222222222222
 40
0.2222222222222222
 40
0.2777777777777778
 40
0.2777777777777778
 40
0.2777777777777778
 40
0.2777777777777778
 40
0.3333333333333334
 40
0.3333333333333334
 40
0.3333333333333334
 40
0.3333333333333334
 40
0.388888888888889
 40
0.388888888888889
 40
0.388888888888889
 40
0.388888888888889
 40
0.4444444444444445
 40
0.4444444444444445
 40
0.4444444444444445
 40
0.4444444444444445
 40
0.5000000000000001
 40
0.5000000000000001
 40
0.5000000000000001
 40
0.5000000000000001
 40
0.5555555555555557
 40
0.5555555555555557
 40
0.5555555555555557
 40
0.5555555555555557
 40
0.6111111111111113
 40
0.6111111111111113
 40
0.6111111111111113
 40
0.6111111111111113
 40
0.6666666666666669
 40
0.6666666666666669
 40
0.6666666666666669
 40
0.6666666666666669
 40
0.7222222222222224
 40
0.7222222222222224
 40
0.7222222222222224
 40
0.7222222222222224
 40
0.777777777777778
 40
0.777777777777778
 40
0.777777777777778
 40
0.777777777777778
 40
0.8333333333333336
 40
0.8333333333333336
 40
0.8333333333333336
 40
0.8333333333333336
 40
0.8888888888888892
 40
0.8888888888888892
 40
0.8888888888888892
 40
0.8888888888888892
 40
0.9444444444444448
 40
0.9444444444444448
 40
0.9444444444444448
 40
0.9444444444444448
 40
1.0
 40
1.0
 40
1.0
 40
1.0
 10
-10.45804
 20
-16.95481
 30
0.0
 10
-10.45804
 20
-16.95481
 30
0.0
 10
-10.45804
 20
-16.97399
 30
0.0
 10
-10.45804
 20
-16.97399
 30
0.0
 10
-10.45804
 20
-16.97399
 30
0.0
 10
-10.45804
 20
-16.97399
 30
0.0
 10
-10.43283
 20
-16.97399
 30
0.0
 10
-10.43283
 20
-16.97399
 30
0.0
 10
-10.43283
 20
-16.97399
 30
0.0
 10
-10.43283
 20
-16.97399
 30
0.0
 10
-10.43283
 20
-16.98261
 30
0.0
 10
-10.43283
 20
-16.98261
 30
0.0
 10
-10.43283
 20
-16.98261
 30
0.0
 10
-10.43283
 20
-16.98261
 30
0.0
 10
-10.45804
 20
-16.98261
 30
0.0
 10
-10.45804
 20
-16.98261
 30
0.0
 10
-10.45804
 20
-16.98261
 30
0.0
 10
-10.45804
 20
-16.98261
 30
0.0
 10
-10.45804
 20
-17.01926
 30
0.0
 10
-10.45804
 20
-17.01926
 30
0.0
 10
-10.45804
 20
-17.01926
 30
0.0
 10
-10.45804
 20
-17.02424
 30
0.0
 10
-10.45709
 20
-17.02772
 30
0.0
 10
-10.4552
 20
-17.02968
 30
0.0
 10
-10.4552
 20
-17.02968
 30
0.0
 10
-10.45331
 20
-17.03165
 30
0.0
 10
-10.45001
 20
-17.03264
 30
0.0
 10
-10.44532
 20
-17.03264
 30
0.0
 10
-10.44532
 20
-17.03264
 30
0.0
 10
-10.44532
 20
-17.03264
 30
0.0
 10
-10.43283
 20
-17.03264
 30
0.0
 10
-10.43283
 20
-17.03264
 30
0.0
 10
-10.43283
 20
-17.03264
 30
0.0
 10
-10.43283
 20
-17.03264
 30
0.0
 10
-10.43283
 20
-17.04151
 30
0.0
 10
-10.43283
 20
-17.04151
 30
0.0
 10
-10.43283
 20
-17.04151
 30
0.0
 10
-10.43283
 20
-17.04151
 30
0.0
 10
-10.44639
 20
-17.04151
 30
0.0
 10
-10.44639
 20
-17.04151
 30
0.0
 10
-10.44639
 20
-17.04151
 30
0.0
 10
-10.45473
 20
-17.04151
 30
0.0
 10
-10.46059
 20
-17.03984
 30
0.0
 10
-10.46401
 20
-17.03651
 30
0.0
 10
-10.46401
 20
-17.03651
 30
0.0
 10
-10.46742
 20
-17.03318
 30
0.0
 10
-10.46913
 20
-17.02741
 30
0.0
 10
-10.46913
 20
-17.01926
 30
0.0
 10
-10.46913
 20
-17.01926
 30
0.0
 10
-10.46913
 20
-17.01926
 30
0.0
 10
-10.46913
 20
-16.98261
 30
0.0
 10
-10.46913
 20
-16.98261
 30
0.0
 10
-10.46913
 20
-16.98261
 30
0.0
 10
-10.46913
 20
-16.98261
 30
0.0
 10
-10.48716
 20
-16.98261
 30
0.0
 10
-10.48716
 20
-16.98261
 30
0.0
 10
-10.48716
 20
-16.98261
 30
0.0
 10
-10.48716
 20
-16.98261
 30
0.0
 10
-10.48716
 20
-16.97399
 30
0.0
 10
-10.48716
 20
-16.97399
 30
0.0
 10
-10.48716
 20
-16.97399
 30
0.0
 10
-10.48716
 20
-16.97399
 30
0.0
 10
-10.46913
 20
-16.97399
 30
0.0
 10
-10.46913
 20
-16.97399
 30
0.0
 10
-10.46913
 20
-16.97399
 30
0.0
 10
-10.46913
 20
-16.97399
 30
0.0
 10
-10.46913
 20
-16.95481
 30
0.0
 10
-10.46913
 20
-16.95481
 30
0.0
 10
-10.46913
 20
-16.95481
 30
0.0
 10
-10.46913
 20
-16.95481
 30
0.0
 10
-10.45804
 20
-16.95481
 30
0.0
 10
-10.45804
 20
-16.95481
 30
0.0
  0
SPLINE
  5
88
330
1F
100
AcDbEntity
  8
Layer 1
 62
   250
100
AcDbSpline
210
0.0
220
0.0
230
1.0
 70
    11
 71
     3
 72
    20
 73
    16
 74
     0
 42
0.0000000001
 43
0.0000000001
 40
0.0
 40
0.0
 40
0.0
 40
0.0
 40
0.25
 40
0.25
 40
0.25
 40
0.25
 40
0.5
 40
0.5
 40
0.5
 40
0.5
 40
0.75
 40
0.75
 40
0.75
 40
0.75
 40
1.0
 40
1.0
 40
1.0
 40
1.0
 10
-10.36712
 20
-16.9515
 30
0.0
 10
-10.36712
 20
-16.9515
 30
0.0
 10
-10.35566
 20
-16.9515
 30
0.0
 10
-10.35566
 20
-16.9515
 30
0.0
 10
-10.35566
 20
-16.9515
 30
0.0
 10
-10.35566
 20
-16.9515
 30
0.0
 10
-10.40305
 20
-17.05297
 30
0.0
 10
-10.40305
 20
-17.05297
 30
0.0
 10
-10.40305
 20
-17.05297
 30
0.0
 10
-10.40305
 20
-17.05297
 30
0.0
 10
-10.41458
 20
-17.05297
 30
0.0
 10
-10.41458
 20
-17.05297
 30
0.0
 10
-10.41458
 20
-17.05297
 30
0.0
 10
-10.41458
 20
-17.05297
 30
0.0
 10
-10.36712
 20
-16.9515
 30
0.0
 10
-10.36712
 20
-16.9515
 30
0.0
  0
SPLINE
  5
89
330
1F
100
AcDbEntity
  8
Layer 1
 62
   250
100
AcDbSpline
210
0.0
220
0.0
230
1.0
 70
    11
 71
     3
 72
    52
 73
    48
 74
     0
 42
0.0000000001
 43
0.0000000001
 40
0.0
 40
0.0
 40
0.0
 40
0.0
 40
0.0833333333333333
 40
0.0833333333333333
 40
0.0833333333333333
 40
0.0833333333333333
 40
0.1666666666666667
 40
0.1666666666666667
 40
0.1666666666666667
 40
0.1666666666666667
 40
0.25
 40
0.25
 40
0.25
 40
0.25
 40
0.3333333333333333
 40
0.3333333333333333
 40
0.3333333333333333
 40
0.3333333333333333
 40
0.4166666666666666
 40
0.4166666666666666
 40
0.4166666666666666
 40
0.4166666666666666
 40
0.4999999999999999
 40
0.4999999999999999
 40
0.4999999999999999
 40
0.4999999999999999
 40
0.5833333333333333
 40
0.5833333333333333
 40
0.5833333333333333
 40
0.5833333333333333
 40
0.6666666666666666
 40
0.6666666666666666
 40
0.6666666666666666
 40
0.6666666666666666
 40
0.75
 40
0.75
 40
0.75
 40
0.75
 40
0.8333333333333334
 40
0.8333333333333334
 40
0.8333333333333334
 40
0.8333333333333334
 40
0.9166666666666667
 40
0.9166666666666667
 40
0.9166666666666667
 40
0.9166666666666667
 40
1.0
 40
1.0
 40
1.0
 40
1.0
 10
-10.33815
 20
-16.9515
 30
0.0
 10
-10.33815
 20
-16.9515
 30
0.0
 10
-10.32037
 20
-16.9515
 30
0.0
 10
-10.32037
 20
-16.9515
 30
0.0
 10
-10.32037
 20
-16.9515
 30
0.0
 10
-10.32037
 20
-16.9515
 30
0.0
 10
-10.32037
 20
-16.9858
 30
0.0
 10
-10.32037
 20
-16.9858
 30
0.0
 10
-10.32037
 20
-16.9858
 30
0.0
 10
-10.32037
 20
-16.9858
 30
0.0
 10
-10.2981
 20
-16.9858
 30
0.0
 10
-10.2981
 20
-16.9858
 30
0.0
 10
-10.2981
 20
-16.9858
 30
0.0
 10
-10.2981
 20
-16.9858
 30
0.0
 10
-10.2981
 20
-16.9515
 30
0.0
 10
-10.2981
 20
-16.9515
 30
0.0
 10
-10.2981
 20
-16.9515
 30
0.0
 10
-10.2981
 20
-16.9515
 30
0.0
 10
-10.28032
 20
-16.9515
 30
0.0
 10
-10.28032
 20
-16.9515
 30
0.0
 10
-10.28032
 20
-16.9515
 30
0.0
 10
-10.28032
 20
-16.9515
 30
0.0
 10
-10.28032
 20
-17.04151
 30
0.0
 10
-10.28032
 20
-17.04151
 30
0.0
 10
-10.28032
 20
-17.04151
 30
0.0
 10
-10.28032
 20
-17.04151
 30
0.0
 10
-10.2981
 20
-17.04151
 30
0.0
 10
-10.2981
 20
-17.04151
 30
0.0
 10
-10.2981
 20
-17.04151
 30
0.0
 10
-10.2981
 20
-17.04151
 30
0.0
 10
-10.2981
 20
-17.00149
 30
0.0
 10
-10.2981
 20
-17.00149
 30
0.0
 10
-10.2981
 20
-17.00149
 30
0.0
 10
-10.2981
 20
-17.00149
 30
0.0
 10
-10.32037
 20
-17.00149
 30
0.0
 10
-10.32037
 20
-17.00149
 30
0.0
 10
-10.32037
 20
-17.00149
 30
0.0
 10
-10.32037
 20
-17.00149
 30
0.0
 10
-10.32037
 20
-17.04151
 30
0.0
 10
-10.32037
 20
-17.04151
 30
0.0
 10
-10.32037
 20
-17.04151
 30
0.0
 10
-10.32037
 20
-17.04151
 30
0.0
 10
-10.33815
 20
-17.04151
 30
0.0
 10
-10.33815
 20
-17.04151
 30
0.0
 10
-10.33815
 20
-17.04151
 30
0.0
 10
-10.33815
 20
-17.04151
 30
0.0
 10
-10.33815
 20
-16.9515
 30
0.0
 10
-10.33815
 20
-16.9515
 30
0.0
  0
SPLINE
  5
8A
330
1F
100
AcDbEntity
  8
Layer 1
 62
   250
100
AcDbSpline
210
0.0
220
0.0
230
1.0
 70
    11
 71
     3
 72
    36
 73
    32
 74
     0
 42
0.0000000001
 43
0.0000000001
 40
0.0
 40
0.0
 40
0.0
 40
0.0
 40
0.125
 40
0.125
 40
0.125
 40
0.125
 40
0.25
 40
0.25
 40
0.25
 40
0.25
 40
0.375
 40
0.375
 40
0.375
 40
0.375
 40
0.5
 40
0.5
 40
0.5
 40
0.5
 40
0.625
 40
0.625
 40
0.625
 40
0.625
 40
0.75
 40
0.75
 40
0.75
 40
0.75
 40
0.875
 40
0.875
 40
0.875
 40
0.875
 40
1.0
 40
1.0
 40
1.0
 40
1.0
 10
-10.24242
 20
-16.99659
 30
0.0
 10
-10.24242
 20
-16.99447
 30
0.0
 10
-10.2417
 20
-16.99268
 30
0.0
 10
-10.24024
 20
-16.99124
 30
0.0
 10
-10.24024
 20
-16.99124
 30
0.0
 10
-10.23879
 20
-16.98978
 30
0.0
 10
-10.23703
 20
-16.98906
 30
0.0
 10
-10.23493
 20
-16.98906
 30
0.0
 10
-10.23493
 20
-16.98906
 30
0.0
 10
-10.23281
 20
-16.98906
 30
0.0
 10
-10.23102
 20
-16.98978
 30
0.0
 10
-10.22958
 20
-16.99124
 30
0.0
 10
-10.22958
 20
-16.99124
 30
0.0
 10
-10.22811
 20
-16.99268
 30
0.0
 10
-10.22739
 20
-16.99447
 30
0.0
 10
-10.22739
 20
-16.99659
 30
0.0
 10
-10.22739
 20
-16.99659
 30
0.0
 10
-10.22739
 20
-16.99869
 30
0.0
 10
-10.22811
 20
-17.00046
 30
0.0
 10
-10.22958
 20
-17.0019
 30
0.0
 10
-10.22958
 20
-17.0019
 30
0.0
 10
-10.23102
 20
-17.00336
 30
0.0
 10
-10.23281
 20
-17.00408
 30
0.0
 10
-10.23493
 20
-17.00408
 30
0.0
 10
-10.23493
 20
-17.00408
 30
0.0
 10
-10.23703
 20
-17.00408
 30
0.0
 10
-10.23879
 20
-17.00336
 30
0.0
 10
-10.24024
 20
-17.00194
 30
0.0
 10
-10.24024
 20
-17.00194
 30
0.0
 10
-10.2417
 20
-17.00052
 30
0.0
 10
-10.24242
 20
-16.99873
 30
0.0
 10
-10.24242
 20
-16.99659
 30
0.0
  0
SPLINE
  5
8B
330
1F
100
AcDbEntity
  8
Layer 1
 62
   250
100
AcDbSpline
210
0.0
220
0.0
230
1.0
 70
    11
 71
     3
 72
    36
 73
    32
 74
     0
 42
0.0000000001
 43
0.0000000001
 40
0.0
 40
0.0
 40
0.0
 40
0.0
 40
0.125
 40
0.125
 40
0.125
 40
0.125
 40
0.25
 40
0.25
 40
0.25
 40
0.25
 40
0.375
 40
0.375
 40
0.375
 40
0.375
 40
0.5
 40
0.5
 40
0.5
 40
0.5
 40
0.625
 40
0.625
 40
0.625
 40
0.625
 40
0.75
 40
0.75
 40
0.75
 40
0.75
 40
0.875
 40
0.875
 40
0.875
 40
0.875
 40
1.0
 40
1.0
 40
1.0
 40
1.0
 10
-10.23493
 20
-16.96494
 30
0.0
 10
-10.23904
 20
-16.96494
 30
0.0
 10
-10.24203
 20
-16.96745
 30
0.0
 10
-10.24392
 20
-16.97247
 30
0.0
 10
-10.24392
 20
-16.97247
 30
0.0
 10
-10.24581
 20
-16.97751
 30
0.0
 10
-10.24676
 20
-16.98554
 30
0.0
 10
-10.24676
 20
-16.99659
 30
0.0
 10
-10.24676
 20
-16.99659
 30
0.0
 10
-10.24676
 20
-17.00762
 30
0.0
 10
-10.24581
 20
-17.01562
 30
0.0
 10
-10.24392
 20
-17.02066
 30
0.0
 10
-10.24392
 20
-17.02066
 30
0.0
 10
-10.24203
 20
-17.02569
 30
0.0
 10
-10.23904
 20
-17.0282
 30
0.0
 10
-10.23493
 20
-17.0282
 30
0.0
 10
-10.23493
 20
-17.0282
 30
0.0
 10
-10.23079
 20
-17.0282
 30
0.0
 10
-10.22779
 20
-17.02569
 30
0.0
 10
-10.22589
 20
-17.02066
 30
0.0
 10
-10.22589
 20
-17.02066
 30
0.0
 10
-10.224
 20
-17.01562
 30
0.0
 10
-10.22305
 20
-17.00762
 30
0.0
 10
-10.22305
 20
-16.99659
 30
0.0
 10
-10.22305
 20
-16.99659
 30
0.0
 10
-10.22305
 20
-16.98554
 30
0.0
 10
-10.224
 20
-16.97751
 30
0.0
 10
-10.22589
 20
-16.97247
 30
0.0
 10
-10.22589
 20
-16.97247
 30
0.0
 10
-10.22779
 20
-16.96745
 30
0.0
 10
-10.23079
 20
-16.96494
 30
0.0
 10
-10.23493
 20
-16.96494
 30
0.0
  0
SPLINE
  5
8C
330
1F
100
AcDbEntity
  8
Layer 1
 62
   250
100
AcDbSpline
210
0.0
220
0.0
230
1.0
 70
    11
 71
     3
 72
    36
 73
    32
 74
     0
 42
0.0000000001
 43
0.0000000001
 40
0.0
 40
0.0
 40
0.0
 40
0.0
 40
0.125
 40
0.125
 40
0.125
 40
0.125
 40
0.25
 40
0.25
 40
0.25
 40
0.25
 40
0.375
 40
0.375
 40
0.375
 40
0.375
 40
0.5
 40
0.5
 40
0.5
 40
0.5
 40
0.625
 40
0.625
 40
0.625
 40
0.625
 40
0.75
 40
0.75
 40
0.75
 40
0.75
 40
0.875
 40
0.875
 40
0.875
 40
0.875
 40
1.0
 40
1.0
 40
1.0
 40
1.0
 10
-10.26466
 20
-16.99659
 30
0.0
 10
-10.26466
 20
-16.98101
 30
0.0
 10
-10.26219
 20
-16.96932
 30
0.0
 10
-10.25725
 20
-16.96154
 30
0.0
 10
-10.25725
 20
-16.96154
 30
0.0
 10
-10.25229
 20
-16.95376
 30
0.0
 10
-10.24487
 20
-16.94987
 30
0.0
 10
-10.23493
 20
-16.94987
 30
0.0
 10
-10.23493
 20
-16.94987
 30
0.0
 10
-10.22497
 20
-16.94987
 30
0.0
 10
-10.21752
 20
-16.95374
 30
0.0
 10
-10.21256
 20
-16.9615
 30
0.0
 10
-10.21256
 20
-16.9615
 30
0.0
 10
-10.20762
 20
-16.96926
 30
0.0
 10
-10.20515
 20
-16.98097
 30
0.0
 10
-10.20515
 20
-16.99659
 30
0.0
 10
-10.20515
 20
-16.99659
 30
0.0
 10
-10.20515
 20
-17.01219
 30
0.0
 10
-10.20762
 20
-17.02387
 30
0.0
 10
-10.21256
 20
-17.03163
 30
0.0
 10
-10.21256
 20
-17.03163
 30
0.0
 10
-10.21752
 20
-17.03939
 30
0.0
 10
-10.22497
 20
-17.04326
 30
0.0
 10
-10.23493
 20
-17.04326
 30
0.0
 10
-10.23493
 20
-17.04326
 30
0.0
 10
-10.24487
 20
-17.04326
 30
0.0
 10
-10.25229
 20
-17.03937
 30
0.0
 10
-10.25725
 20
-17.03159
 30
0.0
 10
-10.25725
 20
-17.03159
 30
0.0
 10
-10.26219
 20
-17.02381
 30
0.0
 10
-10.26466
 20
-17.01214
 30
0.0
 10
-10.26466
 20
-16.99659
 30
0.0
  0
SPLINE
  5
8D
330
1F
100
AcDbEntity
  8
Layer 1
 62
   250
100
AcDbSpline
210
0.0
220
0.0
230
1.0
 70
    11
 71
     3
 72
    92
 73
    88
 74
     0
 42
0.0000000001
 43
0.0000000001
 40
0.0
 40
0.0
 40
0.0
 40
0.0
 40
0.0454545454545455
 40
0.0454545454545455
 40
0.0454545454545455
 40
0.0454545454545455
 40
0.0909090909090909
 40
0.0909090909090909
 40
0.0909090909090909
 40
0.0909090909090909
 40
0.1363636363636364
 40
0.1363636363636364
 40
0.1363636363636364
 40
0.1363636363636364
 40
0.1818181818181818
 40
0.1818181818181818
 40
0.1818181818181818
 40
0.1818181818181818
 40
0.2272727272727273
 40
0.2272727272727273
 40
0.2272727272727273
 40
0.2272727272727273
 40
0.2727272727272728
 40
0.2727272727272728
 40
0.2727272727272728
 40
0.2727272727272728
 40
0.3181818181818182
 40
0.3181818181818182
 40
0.3181818181818182
 40
0.3181818181818182
 40
0.3636363636363637
 40
0.3636363636363637
 40
0.3636363636363637
 40
0.3636363636363637
 40
0.4090909090909092
 40
0.4090909090909092
 40
0.4090909090909092
 40
0.4090909090909092
 40
0.4545454545454546
 40
0.4545454545454546
 40
0.4545454545454546
 40
0.4545454545454546
 40
0.5000000000000001
 40
0.5000000000000001
 40
0.5000000000000001
 40
0.5000000000000001
 40
0.5454545454545455
 40
0.5454545454545455
 40
0.5454545454545455
 40
0.5454545454545455
 40
0.5909090909090909
 40
0.5909090909090909
 40
0.5909090909090909
 40
0.5909090909090909
 40
0.6363636363636364
 40
0.6363636363636364
 40
0.6363636363636364
 40
0.6363636363636364
 40
0.6818181818181818
 40
0.6818181818181818
 40
0.6818181818181818
 40
0.6818181818181818
 40
0.7272727272727272
 40
0.7272727272727272
 40
0.7272727272727272
 40
0.7272727272727272
 40
0.7727272727272726
 40
0.7727272727272726
 40
0.7727272727272726
 40
0.7727272727272726
 40
0.818181818181818
 40
0.818181818181818
 40
0.818181818181818
 40
0.818181818181818
 40
0.8636363636363634
 40
0.8636363636363634
 40
0.8636363636363634
 40
0.8636363636363634
 40
0.9090909090909088
 40
0.9090909090909088
 40
0.9090909090909088
 40
0.9090909090909088
 40
0.9545454545454543
 40
0.9545454545454543
 40
0.9545454545454543
 40
0.9545454545454543
 40
1.0
 40
1.0
 40
1.0
 40
1.0
 10
-10.18611
 20
-16.9515
 30
0.0
 10
-10.18611
 20
-16.9515
 30
0.0
 10
-10.13722
 20
-16.9515
 30
0.0
 10
-10.13722
 20
-16.9515
 30
0.0
 10
-10.13722
 20
-16.9515
 30
0.0
 10
-10.13722
 20
-16.9515
 30
0.0
 10
-10.13722
 20
-16.96718
 30
0.0
 10
-10.13722
 20
-16.96718
 30
0.0
 10
-10.13722
 20
-16.96718
 30
0.0
 10
-10.13722
 20
-16.96718
 30
0.0
 10
-10.17171
 20
-16.96718
 30
0.0
 10
-10.17171
 20
-16.96718
 30
0.0
 10
-10.17171
 20
-16.96718
 30
0.0
 10
-10.17171
 20
-16.96718
 30
0.0
 10
-10.17171
 20
-16.98387
 30
0.0
 10
-10.17171
 20
-16.98387
 30
0.0
 10
-10.17171
 20
-16.98387
 30
0.0
 10
-10.17027
 20
-16.98331
 30
0.0
 10
-10.1687
 20
-16.9829
 30
0.0
 10
-10.16706
 20
-16.98264
 30
0.0
 10
-10.16706
 20
-16.98264
 30
0.0
 10
-10.16541
 20
-16.98237
 30
0.0
 10
-10.16366
 20
-16.98224
 30
0.0
 10
-10.16181
 20
-16.98224
 30
0.0
 10
-10.16181
 20
-16.98224
 30
0.0
 10
-10.1529
 20
-16.98224
 30
0.0
 10
-10.14566
 20
-16.98506
 30
0.0
 10
-10.1401
 20
-16.99068
 30
0.0
 10
-10.1401
 20
-16.99068
 30
0.0
 10
-10.13456
 20
-16.99632
 30
0.0
 10
-10.13179
 20
-17.00363
 30
0.0
 10
-10.13179
 20
-17.01264
 30
0.0
 10
-10.13179
 20
-17.01264
 30
0.0
 10
-10.13179
 20
-17.02208
 30
0.0
 10
-10.13479
 20
-17.02953
 30
0.0
 10
-10.1408
 20
-17.03503
 30
0.0
 10
-10.1408
 20
-17.03503
 30
0.0
 10
-10.14681
 20
-17.04052
 30
0.0
 10
-10.155
 20
-17.04326
 30
0.0
 10
-10.16537
 20
-17.04326
 30
0.0
 10
-10.16537
 20
-17.04326
 30
0.0
 10
-10.16922
 20
-17.04326
 30
0.0
 10
-10.17313
 20
-17.04293
 30
0.0
 10
-10.17706
 20
-17.04229
 30
0.0
 10
-10.17706
 20
-17.04229
 30
0.0
 10
-10.18099
 20
-17.04165
 30
0.0
 10
-10.18502
 20
-17.04069
 30
0.0
 10
-10.18912
 20
-17.03939
 30
0.0
 10
-10.18912
 20
-17.03939
 30
0.0
 10
-10.18912
 20
-17.03939
 30
0.0
 10
-10.18912
 20
-17.02336
 30
0.0
 10
-10.18912
 20
-17.02336
 30
0.0
 10
-10.18912
 20
-17.02336
 30
0.0
 10
-10.18578
 20
-17.02501
 30
0.0
 10
-10.18235
 20
-17.02624
 30
0.0
 10
-10.17885
 20
-17.02706
 30
0.0
 10
-10.17885
 20
-17.02706
 30
0.0
 10
-10.17533
 20
-17.02789
 30
0.0
 10
-10.17179
 20
-17.0283
 30
0.0
 10
-10.16825
 20
-17.0283
 30
0.0
 10
-10.16825
 20
-17.0283
 30
0.0
 10
-10.162
 20
-17.0283
 30
0.0
 10
-10.15722
 20
-17.02696
 30
0.0
 10
-10.15397
 20
-17.02429
 30
0.0
 10
-10.15397
 20
-17.02429
 30
0.0
 10
-10.15072
 20
-17.02161
 30
0.0
 10
-10.14909
 20
-17.01774
 30
0.0
 10
-10.14909
 20
-17.01264
 30
0.0
 10
-10.14909
 20
-17.01264
 30
0.0
 10
-10.14909
 20
-17.00793
 30
0.0
 10
-10.15072
 20
-17.00416
 30
0.0
 10
-10.15395
 20
-17.00132
 30
0.0
 10
-10.15395
 20
-17.00132
 30
0.0
 10
-10.15718
 20
-16.9985
 30
0.0
 10
-10.1615
 20
-16.99708
 30
0.0
 10
-10.16687
 20
-16.99708
 30
0.0
 10
-10.16687
 20
-16.99708
 30
0.0
 10
-10.17006
 20
-16.99708
 30
0.0
 10
-10.17323
 20
-16.99747
 30
0.0
 10
-10.17644
 20
-16.99825
 30
0.0
 10
-10.17644
 20
-16.99825
 30
0.0
 10
-10.17963
 20
-16.99904
 30
0.0
 10
-10.18286
 20
-17.00023
 30
0.0
 10
-10.18611
 20
-17.00179
 30
0.0
 10
-10.18611
 20
-17.00179
 30
0.0
 10
-10.18611
 20
-17.00179
 30
0.0
 10
-10.18611
 20
-16.9515
 30
0.0
 10
-10.18611
 20
-16.9515
 30
0.0
  0
SPLINE
  5
8E
330
1F
100
AcDbEntity
  8
Layer 1
 62
   250
100
AcDbSpline
210
0.0
220
0.0
230
1.0
 70
    11
 71
     3
 72
    80
 73
    76
 74
     0
 42
0.0000000001
 43
0.0000000001
 40
0.0
 40
0.0
 40
0.0
 40
0.0
 40
0.0526315789473684
 40
0.0526315789473684
 40
0.0526315789473684
 40
0.0526315789473684
 40
0.1052631578947368
 40
0.1052631578947368
 40
0.1052631578947368
 40
0.1052631578947368
 40
0.1578947368421053
 40
0.1578947368421053
 40
0.1578947368421053
 40
0.1578947368421053
 40
0.2105263157894737
 40
0.2105263157894737
 40
0.2105263157894737
 40
0.2105263157894737
 40
0.2631578947368421
 40
0.2631578947368421
 40
0.2631578947368421
 40
0.2631578947368421
 40
0.3157894736842105
 40
0.3157894736842105
 40
0.3157894736842105
 40
0.3157894736842105
 40
0.3684210526315789
 40
0.3684210526315789
 40
0.3684210526315789
 40
0.3684210526315789
 40
0.4210526315789473
 40
0.4210526315789473
 40
0.4210526315789473
 40
0.4210526315789473
 40
0.4736842105263158
 40
0.4736842105263158
 40
0.4736842105263158
 40
0.4736842105263158
 40
0.5263157894736842
 40
0.5263157894736842
 40
0.5263157894736842
 40
0.5263157894736842
 40
0.5789473684210527
 40
0.5789473684210527
 40
0.5789473684210527
 40
0.5789473684210527
 40
0.631578947368421
 40
0.631578947368421
 40
0.631578947368421
 40
0.631578947368421
 40
0.6842105263157894
 40
0.6842105263157894
 40
0.6842105263157894
 40
0.6842105263157894
 40
0.7368421052631577
 40
0.7368421052631577
 40
0.7368421052631577
 40
0.7368421052631577
 40
0.7894736842105261
 40
0.7894736842105261
 40
0.7894736842105261
 40
0.7894736842105261
 40
0.8421052631578945
 40
0.8421052631578945
 40
0.8421052631578945
 40
0.8421052631578945
 40
0.8947368421052628
 40
0.8947368421052628
 40
0.8947368421052628
 40
0.8947368421052628
 40
0.9473684210526312
 40
0.9473684210526312
 40
0.9473684210526312
 40
0.9473684210526312
 40
1.0
 40
1.0
 40
1.0
 40
1.0
 10
-10.80503
 20
-11.88297
 30
0.0
 10
-10.80503
 20
-11.88297
 30
0.0
 10
-10.75975
 20
-11.88297
 30
0.0
 10
-10.75975
 20
-11.88297
 30
0.0
 10
-10.75975
 20
-11.88297
 30
0.0
 10
-10.75975
 20
-11.88297
 30
0.0
 10
-10.75975
 20
-11.90247
 30
0.0
 10
-10.75975
 20
-11.90247
 30
0.0
 10
-10.75975
 20
-11.90247
 30
0.0
 10
-10.75975
 20
-11.90247
 30
0.0
 10
-10.83452
 20
-11.90247
 30
0.0
 10
-10.83452
 20
-11.90247
 30
0.0
 10
-10.83452
 20
-11.90247
 30
0.0
 10
-10.83452
 20
-11.90247
 30
0.0
 10
-10.83452
 20
-11.88297
 30
0.0
 10
-10.83452
 20
-11.88297
 30
0.0
 10
-10.83452
 20
-11.88297
 30
0.0
 10
-10.83452
 20
-11.88297
 30
0.0
 10
-10.79696
 20
-11.84984
 30
0.0
 10
-10.79696
 20
-11.84984
 30
0.0
 10
-10.79696
 20
-11.84984
 30
0.0
 10
-10.7936
 20
-11.8468
 30
0.0
 10
-10.79113
 20
-11.84384
 30
0.0
 10
-10.78953
 20
-11.84095
 30
0.0
 10
-10.78953
 20
-11.84095
 30
0.0
 10
-10.78791
 20
-11.83805
 30
0.0
 10
-10.78711
 20
-11.83504
 30
0.0
 10
-10.78711
 20
-11.83191
 30
0.0
 10
-10.78711
 20
-11.83191
 30
0.0
 10
-10.78711
 20
-11.82709
 30
0.0
 10
-10.78873
 20
-11.82321
 30
0.0
 10
-10.79197
 20
-11.82027
 30
0.0
 10
-10.79197
 20
-11.82027
 30
0.0
 10
-10.7952
 20
-11.81733
 30
0.0
 10
-10.7995
 20
-11.81588
 30
0.0
 10
-10.80489
 20
-11.81588
 30
0.0
 10
-10.80489
 20
-11.81588
 30
0.0
 10
-10.80902
 20
-11.81588
 30
0.0
 10
-10.81354
 20
-11.81677
 30
0.0
 10
-10.81846
 20
-11.81853
 30
0.0
 10
-10.81846
 20
-11.81853
 30
0.0
 10
-10.82337
 20
-11.8203
 30
0.0
 10
-10.82864
 20
-11.82293
 30
0.0
 10
-10.83424
 20
-11.82641
 30
0.0
 10
-10.83424
 20
-11.82641
 30
0.0
 10
-10.83424
 20
-11.82641
 30
0.0
 10
-10.83424
 20
-11.80381
 30
0.0
 10
-10.83424
 20
-11.80381
 30
0.0
 10
-10.83424
 20
-11.80381
 30
0.0
 10
-10.82826
 20
-11.80184
 30
0.0
 10
-10.82236
 20
-11.80033
 30
0.0
 10
-10.81653
 20
-11.7993
 30
0.0
 10
-10.81653
 20
-11.7993
 30
0.0
 10
-10.81069
 20
-11.79826
 30
0.0
 10
-10.80498
 20
-11.79774
 30
0.0
 10
-10.79936
 20
-11.79774
 30
0.0
 10
-10.79936
 20
-11.79774
 30
0.0
 10
-10.78706
 20
-11.79774
 30
0.0
 10
-10.77749
 20
-11.80045
 30
0.0
 10
-10.77067
 20
-11.80588
 30
0.0
 10
-10.77067
 20
-11.80588
 30
0.0
 10
-10.76385
 20
-11.81129
 30
0.0
 10
-10.76044
 20
-11.81884
 30
0.0
 10
-10.76044
 20
-11.82855
 30
0.0
 10
-10.76044
 20
-11.82855
 30
0.0
 10
-10.76044
 20
-11.83415
 30
0.0
 10
-10.76189
 20
-11.83937
 30
0.0
 10
-10.76479
 20
-11.84422
 30
0.0
 10
-10.76479
 20
-11.84422
 30
0.0
 10
-10.76768
 20
-11.84906
 30
0.0
 10
-10.77377
 20
-11.85555
 30
0.0
 10
-10.78304
 20
-11.86369
 30
0.0
 10
-10.78304
 20
-11.86369
 30
0.0
 10
-10.78304
 20
-11.86369
 30
0.0
 10
-10.80503
 20
-11.88297
 30
0.0
 10
-10.80503
 20
-11.88297
 30
0.0
  0
SPLINE
  5
8F
330
1F
100
AcDbEntity
  8
Layer 1
 62
   250
100
AcDbSpline
210
0.0
220
0.0
230
1.0
 70
    11
 71
     3
 72
    20
 73
    16
 74
     0
 42
0.0000000001
 43
0.0000000001
 40
0.0
 40
0.0
 40
0.0
 40
0.0
 40
0.25
 40
0.25
 40
0.25
 40
0.25
 40
0.5
 40
0.5
 40
0.5
 40
0.5
 40
0.75
 40
0.75
 40
0.75
 40
0.75
 40
1.0
 40
1.0
 40
1.0
 40
1.0
 10
-10.73311
 20
-11.8758
 30
0.0
 10
-10.73311
 20
-11.8758
 30
0.0
 10
-10.70829
 20
-11.8758
 30
0.0
 10
-10.70829
 20
-11.8758
 30
0.0
 10
-10.70829
 20
-11.8758
 30
0.0
 10
-10.70829
 20
-11.8758
 30
0.0
 10
-10.70829
 20
-11.90247
 30
0.0
 10
-10.70829
 20
-11.90247
 30
0.0
 10
-10.70829
 20
-11.90247
 30
0.0
 10
-10.70829
 20
-11.90247
 30
0.0
 10
-10.73311
 20
-11.90247
 30
0.0
 10
-10.73311
 20
-11.90247
 30
0.0
 10
-10.73311
 20
-11.90247
 30
0.0
 10
-10.73311
 20
-11.90247
 30
0.0
 10
-10.73311
 20
-11.8758
 30
0.0
 10
-10.73311
 20
-11.8758
 30
0.0
  0
SPLINE
  5
90
330
1F
100
AcDbEntity
  8
Layer 1
 62
   250
100
AcDbSpline
210
0.0
220
0.0
230
1.0
 70
    11
 71
     3
 72
    92
 73
    88
 74
     0
 42
0.0000000001
 43
0.0000000001
 40
0.0
 40
0.0
 40
0.0
 40
0.0
 40
0.0454545454545455
 40
0.0454545454545455
 40
0.0454545454545455
 40
0.0454545454545455
 40
0.0909090909090909
 40
0.0909090909090909
 40
0.0909090909090909
 40
0.0909090909090909
 40
0.1363636363636364
 40
0.1363636363636364
 40
0.1363636363636364
 40
0.1363636363636364
 40
0.1818181818181818
 40
0.1818181818181818
 40
0.1818181818181818
 40
0.1818181818181818
 40
0.2272727272727273
 40
0.2272727272727273
 40
0.2272727272727273
 40
0.2272727272727273
 40
0.2727272727272728
 40
0.2727272727272728
 40
0.2727272727272728
 40
0.2727272727272728
 40
0.3181818181818182
 40
0.3181818181818182
 40
0.3181818181818182
 40
0.3181818181818182
 40
0.3636363636363637
 40
0.3636363636363637
 40
0.3636363636363637
 40
0.3636363636363637
 40
0.4090909090909092
 40
0.4090909090909092
 40
0.4090909090909092
 40
0.4090909090909092
 40
0.4545454545454546
 40
0.4545454545454546
 40
0.4545454545454546
 40
0.4545454545454546
 40
0.5000000000000001
 40
0.5000000000000001
 40
0.5000000000000001
 40
0.5000000000000001
 40
0.5454545454545455
 40
0.5454545454545455
 40
0.5454545454545455
 40
0.5454545454545455
 40
0.5909090909090909
 40
0.5909090909090909
 40
0.5909090909090909
 40
0.5909090909090909
 40
0.6363636363636364
 40
0.6363636363636364
 40
0.6363636363636364
 40
0.6363636363636364
 40
0.6818181818181818
 40
0.6818181818181818
 40
0.6818181818181818
 40
0.6818181818181818
 40
0.7272727272727272
 40
0.7272727272727272
 40
0.7272727272727272
 40
0.7272727272727272
 40
0.7727272727272726
 40
0.7727272727272726
 40
0.7727272727272726
 40
0.7727272727272726
 40
0.818181818181818
 40
0.818181818181818
 40
0.818181818181818
 40
0.818181818181818
 40
0.8636363636363634
 40
0.8636363636363634
 40
0.8636363636363634
 40
0.8636363636363634
 40
0.9090909090909088
 40
0.9090909090909088
 40
0.9090909090909088
 40
0.9090909090909088
 40
0.9545454545454543
 40
0.9545454545454543
 40
0.9545454545454543
 40
0.9545454545454543
 40
1.0
 40
1.0
 40
1.0
 40
1.0
 10
-10.67894
 20
-11.7996
 30
0.0
 10
-10.67894
 20
-11.7996
 30
0.0
 10
-10.613
 20
-11.7996
 30
0.0
 10
-10.613
 20
-11.7996
 30
0.0
 10
-10.613
 20
-11.7996
 30
0.0
 10
-10.613
 20
-11.7996
 30
0.0
 10
-10.613
 20
-11.8191
 30
0.0
 10
-10.613
 20
-11.8191
 30
0.0
 10
-10.613
 20
-11.8191
 30
0.0
 10
-10.613
 20
-11.8191
 30
0.0
 10
-10.6578
 20
-11.8191
 30
0.0
 10
-10.6578
 20
-11.8191
 30
0.0
 10
-10.6578
 20
-11.8191
 30
0.0
 10
-10.6578
 20
-11.8191
 30
0.0
 10
-10.6578
 20
-11.83502
 30
0.0
 10
-10.6578
 20
-11.83502
 30
0.0
 10
-10.6578
 20
-11.83502
 30
0.0
 10
-10.65578
 20
-11.83448
 30
0.0
 10
-10.65375
 20
-11.83406
 30
0.0
 10
-10.65171
 20
-11.83375
 30
0.0
 10
-10.65171
 20
-11.83375
 30
0.0
 10
-10.64966
 20
-11.83344
 30
0.0
 10
-10.64752
 20
-11.8333
 30
0.0
 10
-10.64533
 20
-11.8333
 30
0.0
 10
-10.64533
 20
-11.8333
 30
0.0
 10
-10.63278
 20
-11.8333
 30
0.0
 10
-10.62302
 20
-11.83643
 30
0.0
 10
-10.61603
 20
-11.84271
 30
0.0
 10
-10.61603
 20
-11.84271
 30
0.0
 10
-10.60905
 20
-11.84897
 30
0.0
 10
-10.60557
 20
-11.85771
 30
0.0
 10
-10.60557
 20
-11.86891
 30
0.0
 10
-10.60557
 20
-11.86891
 30
0.0
 10
-10.60557
 20
-11.88003
 30
0.0
 10
-10.60938
 20
-11.88874
 30
0.0
 10
-10.61697
 20
-11.89504
 30
0.0
 10
-10.61697
 20
-11.89504
 30
0.0
 10
-10.62457
 20
-11.90132
 30
0.0
 10
-10.63513
 20
-11.90447
 30
0.0
 10
-10.64863
 20
-11.90447
 30
0.0
 10
-10.64863
 20
-11.90447
 30
0.0
 10
-10.65446
 20
-11.90447
 30
0.0
 10
-10.66025
 20
-11.9039
 30
0.0
 10
-10.66596
 20
-11.90278
 30
0.0
 10
-10.66596
 20
-11.90278
 30
0.0
 10
-10.67168
 20
-11.90165
 30
0.0
 10
-10.67737
 20
-11.89995
 30
0.0
 10
-10.68301
 20
-11.89765
 30
0.0
 10
-10.68301
 20
-11.89765
 30
0.0
 10
-10.68301
 20
-11.89765
 30
0.0
 10
-10.68301
 20
-11.87676
 30
0.0
 10
-10.68301
 20
-11.87676
 30
0.0
 10
-10.68301
 20
-11.87676
 30
0.0
 10
-10.67741
 20
-11.87999
 30
0.0
 10
-10.6721
 20
-11.88239
 30
0.0
 10
-10.66707
 20
-11.88398
 30
0.0
 10
-10.66707
 20
-11.88398
 30
0.0
 10
-10.66203
 20
-11.88561
 30
0.0
 10
-10.65728
 20
-11.88641
 30
0.0
 10
-10.65284
 20
-11.88641
 30
0.0
 10
-10.65284
 20
-11.88641
 30
0.0
 10
-10.64639
 20
-11.88641
 30
0.0
 10
-10.64134
 20
-11.88483
 30
0.0
 10
-10.63764
 20
-11.88168
 30
0.0
 10
-10.63764
 20
-11.88168
 30
0.0
 10
-10.63395
 20
-11.87855
 30
0.0
 10
-10.63209
 20
-11.8743
 30
0.0
 10
-10.63209
 20
-11.86891
 30
0.0
 10
-10.63209
 20
-11.86891
 30
0.0
 10
-10.63209
 20
-11.8635
 30
0.0
 10
-10.63395
 20
-11.85924
 30
0.0
 10
-10.63764
 20
-11.85612
 30
0.0
 10
-10.63764
 20
-11.85612
 30
0.0
 10
-10.64134
 20
-11.85299
 30
0.0
 10
-10.64639
 20
-11.85144
 30
0.0
 10
-10.65284
 20
-11.85144
 30
0.0
 10
-10.65284
 20
-11.85144
 30
0.0
 10
-10.65665
 20
-11.85144
 30
0.0
 10
-10.66072
 20
-11.85193
 30
0.0
 10
-10.66502
 20
-11.85292
 30
0.0
 10
-10.66502
 20
-11.85292
 30
0.0
 10
-10.66935
 20
-11.8539
 30
0.0
 10
-10.67398
 20
-11.85543
 30
0.0
 10
-10.67894
 20
-11.8575
 30
0.0
 10
-10.67894
 20
-11.8575
 30
0.0
 10
-10.67894
 20
-11.8575
 30
0.0
 10
-10.67894
 20
-11.7996
 30
0.0
 10
-10.67894
 20
-11.7996
 30
0.0
  0
SPLINE
  5
91
330
1F
100
AcDbEntity
  8
Layer 1
 62
   250
100
AcDbSpline
210
0.0
220
0.0
230
1.0
 70
    11
 71
     3
 72
    16
 73
    12
 74
     0
 42
0.0000000001
 43
0.0000000001
 40
0.0
 40
0.0
 40
0.0
 40
0.0
 40
0.3333333333333333
 40
0.3333333333333333
 40
0.3333333333333333
 40
0.3333333333333333
 40
0.6666666666666666
 40
0.6666666666666666
 40
0.6666666666666666
 40
0.6666666666666666
 40
1.0
 40
1.0
 40
1.0
 40
1.0
 10
-10.54373
 20
-11.82145
 30
0.0
 10
-10.54373
 20
-11.82145
 30
0.0
 10
-10.57283
 20
-11.86451
 30
0.0
 10
-10.57283
 20
-11.86451
 30
0.0
 10
-10.57283
 20
-11.86451
 30
0.0
 10
-10.57283
 20
-11.86451
 30
0.0
 10
-10.54373
 20
-11.86451
 30
0.0
 10
-10.54373
 20
-11.86451
 30
0.0
 10
-10.54373
 20
-11.86451
 30
0.0
 10
-10.54373
 20
-11.86451
 30
0.0
 10
-10.54373
 20
-11.82145
 30
0.0
 10
-10.54373
 20
-11.82145
 30
0.0
  0
SPLINE
  5
92
330
1F
100
AcDbEntity
  8
Layer 1
 62
   250
100
AcDbSpline
210
0.0
220
0.0
230
1.0
 70
    11
 71
     3
 72
    48
 73
    44
 74
     0
 42
0.0000000001
 43
0.0000000001
 40
0.0
 40
0.0
 40
0.0
 40
0.0
 40
0.0909090909090909
 40
0.0909090909090909
 40
0.0909090909090909
 40
0.0909090909090909
 40
0.1818181818181818
 40
0.1818181818181818
 40
0.1818181818181818
 40
0.1818181818181818
 40
0.2727272727272727
 40
0.2727272727272727
 40
0.2727272727272727
 40
0.2727272727272727
 40
0.3636363636363636
 40
0.3636363636363636
 40
0.3636363636363636
 40
0.3636363636363636
 40
0.4545454545454546
 40
0.4545454545454546
 40
0.4545454545454546
 40
0.4545454545454546
 40
0.5454545454545455
 40
0.5454545454545455
 40
0.5454545454545455
 40
0.5454545454545455
 40
0.6363636363636365
 40
0.6363636363636365
 40
0.6363636363636365
 40
0.6363636363636365
 40
0.7272727272727274
 40
0.7272727272727274
 40
0.7272727272727274
 40
0.7272727272727274
 40
0.8181818181818183
 40
0.8181818181818183
 40
0.8181818181818183
 40
0.8181818181818183
 40
0.9090909090909093
 40
0.9090909090909093
 40
0.9090909090909093
 40
0.9090909090909093
 40
1.0
 40
1.0
 40
1.0
 40
1.0
 10
-10.54816
 20
-11.7996
 30
0.0
 10
-10.54816
 20
-11.7996
 30
0.0
 10
-10.51866
 20
-11.7996
 30
0.0
 10
-10.51866
 20
-11.7996
 30
0.0
 10
-10.51866
 20
-11.7996
 30
0.0
 10
-10.51866
 20
-11.7996
 30
0.0
 10
-10.51866
 20
-11.86451
 30
0.0
 10
-10.51866
 20
-11.86451
 30
0.0
 10
-10.51866
 20
-11.86451
 30
0.0
 10
-10.51866
 20
-11.86451
 30
0.0
 10
-10.50399
 20
-11.86451
 30
0.0
 10
-10.50399
 20
-11.86451
 30
0.0
 10
-10.50399
 20
-11.86451
 30
0.0
 10
-10.50399
 20
-11.86451
 30
0.0
 10
-10.50399
 20
-11.88373
 30
0.0
 10
-10.50399
 20
-11.88373
 30
0.0
 10
-10.50399
 20
-11.88373
 30
0.0
 10
-10.50399
 20
-11.88373
 30
0.0
 10
-10.51866
 20
-11.88373
 30
0.0
 10
-10.51866
 20
-11.88373
 30
0.0
 10
-10.51866
 20
-11.88373
 30
0.0
 10
-10.51866
 20
-11.88373
 30
0.0
 10
-10.51866
 20
-11.90247
 30
0.0
 10
-10.51866
 20
-11.90247
 30
0.0
 10
-10.51866
 20
-11.90247
 30
0.0
 10
-10.51866
 20
-11.90247
 30
0.0
 10
-10.54373
 20
-11.90247
 30
0.0
 10
-10.54373
 20
-11.90247
 30
0.0
 10
-10.54373
 20
-11.90247
 30
0.0
 10
-10.54373
 20
-11.90247
 30
0.0
 10
-10.54373
 20
-11.88373
 30
0.0
 10
-10.54373
 20
-11.88373
 30
0.0
 10
-10.54373
 20
-11.88373
 30
0.0
 10
-10.54373
 20
-11.88373
 30
0.0
 10
-10.58936
 20
-11.88373
 30
0.0
 10
-10.58936
 20
-11.88373
 30
0.0
 10
-10.58936
 20
-11.88373
 30
0.0
 10
-10.58936
 20
-11.88373
 30
0.0
 10
-10.58936
 20
-11.86098
 30
0.0
 10
-10.58936
 20
-11.86098
 30
0.0
 10
-10.58936
 20
-11.86098
 30
0.0
 10
-10.58936
 20
-11.86098
 30
0.0
 10
-10.54816
 20
-11.7996
 30
0.0
 10
-10.54816
 20
-11.7996
 30
0.0
  0
SPLINE
  5
93
330
1F
100
AcDbEntity
  8
Layer 1
 62
   250
100
AcDbSpline
210
0.0
220
0.0
230
1.0
 70
    11
 71
     3
 72
   120
 73
   116
 74
     0
 42
0.0000000001
 43
0.0000000001
 40
0.0
 40
0.0
 40
0.0
 40
0.0
 40
0.0344827586206897
 40
0.0344827586206897
 40
0.0344827586206897
 40
0.0344827586206897
 40
0.0689655172413793
 40
0.0689655172413793
 40
0.0689655172413793
 40
0.0689655172413793
 40
0.103448275862069
 40
0.103448275862069
 40
0.103448275862069
 40
0.103448275862069
 40
0.1379310344827586
 40
0.1379310344827586
 40
0.1379310344827586
 40
0.1379310344827586
 40
0.1724137931034483
 40
0.1724137931034483
 40
0.1724137931034483
 40
0.1724137931034483
 40
0.206896551724138
 40
0.206896551724138
 40
0.206896551724138
 40
0.206896551724138
 40
0.2413793103448276
 40
0.2413793103448276
 40
0.2413793103448276
 40
0.2413793103448276
 40
0.2758620689655173
 40
0.2758620689655173
 40
0.2758620689655173
 40
0.2758620689655173
 40
0.310344827586207
 40
0.310344827586207
 40
0.310344827586207
 40
0.310344827586207
 40
0.3448275862068966
 40
0.3448275862068966
 40
0.3448275862068966
 40
0.3448275862068966
 40
0.3793103448275863
 40
0.3793103448275863
 40
0.3793103448275863
 40
0.3793103448275863
 40
0.413793103448276
 40
0.413793103448276
 40
0.413793103448276
 40
0.413793103448276
 40
0.4482758620689656
 40
0.4482758620689656
 40
0.4482758620689656
 40
0.4482758620689656
 40
0.4827586206896553
 40
0.4827586206896553
 40
0.4827586206896553
 40
0.4827586206896553
 40
0.517241379310345
 40
0.517241379310345
 40
0.517241379310345
 40
0.517241379310345
 40
0.5517241379310346
 40
0.5517241379310346
 40
0.5517241379310346
 40
0.5517241379310346
 40
0.5862068965517242
 40
0.5862068965517242
 40
0.5862068965517242
 40
0.5862068965517242
 40
0.6206896551724138
 40
0.6206896551724138
 40
0.6206896551724138
 40
0.6206896551724138
 40
0.6551724137931034
 40
0.6551724137931034
 40
0.6551724137931034
 40
0.6551724137931034
 40
0.689655172413793
 40
0.689655172413793
 40
0.689655172413793
 40
0.689655172413793
 40
0.7241379310344827
 40
0.7241379310344827
 40
0.7241379310344827
 40
0.7241379310344827
 40
0.7586206896551723
 40
0.7586206896551723
 40
0.7586206896551723
 40
0.7586206896551723
 40
0.7931034482758619
 40
0.7931034482758619
 40
0.7931034482758619
 40
0.7931034482758619
 40
0.8275862068965515
 40
0.8275862068965515
 40
0.8275862068965515
 40
0.8275862068965515
 40
0.8620689655172411
 40
0.8620689655172411
 40
0.8620689655172411
 40
0.8620689655172411
 40
0.8965517241379307
 40
0.8965517241379307
 40
0.8965517241379307
 40
0.8965517241379307
 40
0.9310344827586203
 40
0.9310344827586203
 40
0.9310344827586203
 40
0.9310344827586203
 40
0.9655172413793099
 40
0.9655172413793099
 40
0.9655172413793099
 40
0.9655172413793099
 40
1.0
 40
1.0
 40
1.0
 40
1.0
 10
-10.36502
 20
-11.83812
 30
0.0
 10
-10.36189
 20
-11.83335
 30
0.0
 10
-10.3582
 20
-11.8297
 30
0.0
 10
-10.35389
 20
-11.82721
 30
0.0
 10
-10.35389
 20
-11.82721
 30
0.0
 10
-10.34959
 20
-11.82469
 30
0.0
 10
-10.34489
 20
-11.82345
 30
0.0
 10
-10.33974
 20
-11.82345
 30
0.0
 10
-10.33974
 20
-11.82345
 30
0.0
 10
-10.33087
 20
-11.82345
 30
0.0
 10
-10.32412
 20
-11.82618
 30
0.0
 10
-10.31949
 20
-11.83166
 30
0.0
 10
-10.31949
 20
-11.83166
 30
0.0
 10
-10.31485
 20
-11.83711
 30
0.0
 10
-10.31252
 20
-11.84506
 30
0.0
 10
-10.31252
 20
-11.85548
 30
0.0
 10
-10.31252
 20
-11.85548
 30
0.0
 10
-10.31252
 20
-11.85548
 30
0.0
 10
-10.31252
 20
-11.90247
 30
0.0
 10
-10.31252
 20
-11.90247
 30
0.0
 10
-10.31252
 20
-11.90247
 30
0.0
 10
-10.31252
 20
-11.90247
 30
0.0
 10
-10.33734
 20
-11.90247
 30
0.0
 10
-10.33734
 20
-11.90247
 30
0.0
 10
-10.33734
 20
-11.90247
 30
0.0
 10
-10.33734
 20
-11.90247
 30
0.0
 10
-10.33734
 20
-11.86223
 30
0.0
 10
-10.33734
 20
-11.86223
 30
0.0
 10
-10.33734
 20
-11.86223
 30
0.0
 10
-10.33729
 20
-11.86164
 30
0.0
 10
-10.33727
 20
-11.86103
 30
0.0
 10
-10.33724
 20
-11.86037
 30
0.0
 10
-10.33724
 20
-11.86037
 30
0.0
 10
-10.33722
 20
-11.85974
 30
0.0
 10
-10.3372
 20
-11.85882
 30
0.0
 10
-10.3372
 20
-11.85762
 30
0.0
 10
-10.3372
 20
-11.85762
 30
0.0
 10
-10.3372
 20
-11.85216
 30
0.0
 10
-10.33799
 20
-11.84819
 30
0.0
 10
-10.33962
 20
-11.84574
 30
0.0
 10
-10.33962
 20
-11.84574
 30
0.0
 10
-10.34122
 20
-11.84327
 30
0.0
 10
-10.3438
 20
-11.84205
 30
0.0
 10
-10.34738
 20
-11.84205
 30
0.0
 10
-10.34738
 20
-11.84205
 30
0.0
 10
-10.35208
 20
-11.84205
 30
0.0
 10
-10.35568
 20
-11.84398
 30
0.0
 10
-10.35824
 20
-11.84784
 30
0.0
 10
-10.35824
 20
-11.84784
 30
0.0
 10
-10.36078
 20
-11.85169
 30
0.0
 10
-10.3621
 20
-11.85727
 30
0.0
 10
-10.3622
 20
-11.86458
 30
0.0
 10
-10.3622
 20
-11.86458
 30
0.0
 10
-10.3622
 20
-11.86458
 30
0.0
 10
-10.3622
 20
-11.90247
 30
0.0
 10
-10.3622
 20
-11.90247
 30
0.0
 10
-10.3622
 20
-11.90247
 30
0.0
 10
-10.3622
 20
-11.90247
 30
0.0
 10
-10.38701
 20
-11.90247
 30
0.0
 10
-10.38701
 20
-11.90247
 30
0.0
 10
-10.38701
 20
-11.90247
 30
0.0
 10
-10.38701
 20
-11.90247
 30
0.0
 10
-10.38701
 20
-11.86223
 30
0.0
 10
-10.38701
 20
-11.86223
 30
0.0
 10
-10.38701
 20
-11.86223
 30
0.0
 10
-10.38701
 20
-11.85369
 30
0.0
 10
-10.38774
 20
-11.84819
 30
0.0
 10
-10.38922
 20
-11.84574
 30
0.0
 10
-10.38922
 20
-11.84574
 30
0.0
 10
-10.39068
 20
-11.84327
 30
0.0
 10
-10.39329
 20
-11.84205
 30
0.0
 10
-10.39705
 20
-11.84205
 30
0.0
 10
-10.39705
 20
-11.84205
 30
0.0
 10
-10.4018
 20
-11.84205
 30
0.0
 10
-10.40545
 20
-11.844
 30
0.0
 10
-10.40801
 20
-11.84788
 30
0.0
 10
-10.40801
 20
-11.84788
 30
0.0
 10
-10.41057
 20
-11.85176
 30
0.0
 10
-10.41187
 20
-11.85729
 30
0.0
 10
-10.41187
 20
-11.86451
 30
0.0
 10
-10.41187
 20
-11.86451
 30
0.0
 10
-10.41187
 20
-11.86451
 30
0.0
 10
-10.41187
 20
-11.90247
 30
0.0
 10
-10.41187
 20
-11.90247
 30
0.0
 10
-10.41187
 20
-11.90247
 30
0.0
 10
-10.41187
 20
-11.90247
 30
0.0
 10
-10.43668
 20
-11.90247
 30
0.0
 10
-10.43668
 20
-11.90247
 30
0.0
 10
-10.43668
 20
-11.90247
 30
0.0
 10
-10.43668
 20
-11.90247
 30
0.0
 10
-10.43668
 20
-11.82531
 30
0.0
 10
-10.43668
 20
-11.82531
 30
0.0
 10
-10.43668
 20
-11.82531
 30
0.0
 10
-10.43668
 20
-11.82531
 30
0.0
 10
-10.41187
 20
-11.82531
 30
0.0
 10
-10.41187
 20
-11.82531
 30
0.0
 10
-10.41187
 20
-11.82531
 30
0.0
 10
-10.41187
 20
-11.82531
 30
0.0
 10
-10.41187
 20
-11.83662
 30
0.0
 10
-10.41187
 20
-11.83662
 30
0.0
 10
-10.41187
 20
-11.83662
 30
0.0
 10
-10.40883
 20
-11.83224
 30
0.0
 10
-10.40535
 20
-11.82898
 30
0.0
 10
-10.40142
 20
-11.82676
 30
0.0
 10
-10.40142
 20
-11.82676
 30
0.0
 10
-10.3975
 20
-11.82455
 30
0.0
 10
-10.39317
 20
-11.82345
 30
0.0
 10
-10.38844
 20
-11.82345
 30
0.0
 10
-10.38844
 20
-11.82345
 30
0.0
 10
-10.38313
 20
-11.82345
 30
0.0
 10
-10.3784
 20
-11.82474
 30
0.0
 10
-10.37433
 20
-11.82731
 30
0.0
 10
-10.37433
 20
-11.82731
 30
0.0
 10
-10.37024
 20
-11.82989
 30
0.0
 10
-10.36713
 20
-11.83349
 30
0.0
 10
-10.36502
 20
-11.83812
 30
0.0
  0
SPLINE
  5
94
330
1F
100
AcDbEntity
  8
Layer 1
 62
   250
100
AcDbSpline
210
0.0
220
0.0
230
1.0
 70
    11
 71
     3
 72
   120
 73
   116
 74
     0
 42
0.0000000001
 43
0.0000000001
 40
0.0
 40
0.0
 40
0.0
 40
0.0
 40
0.0344827586206897
 40
0.0344827586206897
 40
0.0344827586206897
 40
0.0344827586206897
 40
0.0689655172413793
 40
0.0689655172413793
 40
0.0689655172413793
 40
0.0689655172413793
 40
0.103448275862069
 40
0.103448275862069
 40
0.103448275862069
 40
0.103448275862069
 40
0.1379310344827586
 40
0.1379310344827586
 40
0.1379310344827586
 40
0.1379310344827586
 40
0.1724137931034483
 40
0.1724137931034483
 40
0.1724137931034483
 40
0.1724137931034483
 40
0.206896551724138
 40
0.206896551724138
 40
0.206896551724138
 40
0.206896551724138
 40
0.2413793103448276
 40
0.2413793103448276
 40
0.2413793103448276
 40
0.2413793103448276
 40
0.2758620689655173
 40
0.2758620689655173
 40
0.2758620689655173
 40
0.2758620689655173
 40
0.310344827586207
 40
0.310344827586207
 40
0.310344827586207
 40
0.310344827586207
 40
0.3448275862068966
 40
0.3448275862068966
 40
0.3448275862068966
 40
0.3448275862068966
 40
0.3793103448275863
 40
0.3793103448275863
 40
0.3793103448275863
 40
0.3793103448275863
 40
0.413793103448276
 40
0.413793103448276
 40
0.413793103448276
 40
0.413793103448276
 40
0.4482758620689656
 40
0.4482758620689656
 40
0.4482758620689656
 40
0.4482758620689656
 40
0.4827586206896553
 40
0.4827586206896553
 40
0.4827586206896553
 40
0.4827586206896553
 40
0.517241379310345
 40
0.517241379310345
 40
0.517241379310345
 40
0.517241379310345
 40
0.5517241379310346
 40
0.5517241379310346
 40
0.5517241379310346
 40
0.5517241379310346
 40
0.5862068965517242
 40
0.5862068965517242
 40
0.5862068965517242
 40
0.5862068965517242
 40
0.6206896551724138
 40
0.6206896551724138
 40
0.6206896551724138
 40
0.6206896551724138
 40
0.6551724137931034
 40
0.6551724137931034
 40
0.6551724137931034
 40
0.6551724137931034
 40
0.689655172413793
 40
0.689655172413793
 40
0.689655172413793
 40
0.689655172413793
 40
0.7241379310344827
 40
0.7241379310344827
 40
0.7241379310344827
 40
0.7241379310344827
 40
0.7586206896551723
 40
0.7586206896551723
 40
0.7586206896551723
 40
0.7586206896551723
 40
0.7931034482758619
 40
0.7931034482758619
 40
0.7931034482758619
 40
0.7931034482758619
 40
0.8275862068965515
 40
0.8275862068965515
 40
0.8275862068965515
 40
0.8275862068965515
 40
0.8620689655172411
 40
0.8620689655172411
 40
0.8620689655172411
 40
0.8620689655172411
 40
0.8965517241379307
 40
0.8965517241379307
 40
0.8965517241379307
 40
0.8965517241379307
 40
0.9310344827586203
 40
0.9310344827586203
 40
0.9310344827586203
 40
0.9310344827586203
 40
0.9655172413793099
 40
0.9655172413793099
 40
0.9655172413793099
 40
0.9655172413793099
 40
1.0
 40
1.0
 40
1.0
 40
1.0
 10
-10.21798
 20
-11.83812
 30
0.0
 10
-10.21485
 20
-11.83335
 30
0.0
 10
-10.21116
 20
-11.8297
 30
0.0
 10
-10.20685
 20
-11.82721
 30
0.0
 10
-10.20685
 20
-11.82721
 30
0.0
 10
-10.20255
 20
-11.82469
 30
0.0
 10
-10.19785
 20
-11.82345
 30
0.0
 10
-10.1927
 20
-11.82345
 30
0.0
 10
-10.1927
 20
-11.82345
 30
0.0
 10
-10.18383
 20
-11.82345
 30
0.0
 10
-10.17708
 20
-11.82618
 30
0.0
 10
-10.17245
 20
-11.83166
 30
0.0
 10
-10.17245
 20
-11.83166
 30
0.0
 10
-10.16781
 20
-11.83711
 30
0.0
 10
-10.16548
 20
-11.84506
 30
0.0
 10
-10.16548
 20
-11.85548
 30
0.0
 10
-10.16548
 20
-11.85548
 30
0.0
 10
-10.16548
 20
-11.85548
 30
0.0
 10
-10.16548
 20
-11.90247
 30
0.0
 10
-10.16548
 20
-11.90247
 30
0.0
 10
-10.16548
 20
-11.90247
 30
0.0
 10
-10.16548
 20
-11.90247
 30
0.0
 10
-10.1903
 20
-11.90247
 30
0.0
 10
-10.1903
 20
-11.90247
 30
0.0
 10
-10.1903
 20
-11.90247
 30
0.0
 10
-10.1903
 20
-11.90247
 30
0.0
 10
-10.1903
 20
-11.86223
 30
0.0
 10
-10.1903
 20
-11.86223
 30
0.0
 10
-10.1903
 20
-11.86223
 30
0.0
 10
-10.19025
 20
-11.86164
 30
0.0
 10
-10.19023
 20
-11.86103
 30
0.0
 10
-10.1902
 20
-11.86037
 30
0.0
 10
-10.1902
 20
-11.86037
 30
0.0
 10
-10.19018
 20
-11.85974
 30
0.0
 10
-10.19016
 20
-11.85882
 30
0.0
 10
-10.19016
 20
-11.85762
 30
0.0
 10
-10.19016
 20
-11.85762
 30
0.0
 10
-10.19016
 20
-11.85216
 30
0.0
 10
-10.19095
 20
-11.84819
 30
0.0
 10
-10.19258
 20
-11.84574
 30
0.0
 10
-10.19258
 20
-11.84574
 30
0.0
 10
-10.19418
 20
-11.84327
 30
0.0
 10
-10.19676
 20
-11.84205
 30
0.0
 10
-10.20034
 20
-11.84205
 30
0.0
 10
-10.20034
 20
-11.84205
 30
0.0
 10
-10.20504
 20
-11.84205
 30
0.0
 10
-10.20864
 20
-11.84398
 30
0.0
 10
-10.2112
 20
-11.84784
 30
0.0
 10
-10.2112
 20
-11.84784
 30
0.0
 10
-10.21374
 20
-11.85169
 30
0.0
 10
-10.21506
 20
-11.85727
 30
0.0
 10
-10.21516
 20
-11.86458
 30
0.0
 10
-10.21516
 20
-11.86458
 30
0.0
 10
-10.21516
 20
-11.86458
 30
0.0
 10
-10.21516
 20
-11.90247
 30
0.0
 10
-10.21516
 20
-11.90247
 30
0.0
 10
-10.21516
 20
-11.90247
 30
0.0
 10
-10.21516
 20
-11.90247
 30
0.0
 10
-10.23997
 20
-11.90247
 30
0.0
 10
-10.23997
 20
-11.90247
 30
0.0
 10
-10.23997
 20
-11.90247
 30
0.0
 10
-10.23997
 20
-11.90247
 30
0.0
 10
-10.23997
 20
-11.86223
 30
0.0
 10
-10.23997
 20
-11.86223
 30
0.0
 10
-10.23997
 20
-11.86223
 30
0.0
 10
-10.23997
 20
-11.85369
 30
0.0
 10
-10.2407
 20
-11.84819
 30
0.0
 10
-10.24218
 20
-11.84574
 30
0.0
 10
-10.24218
 20
-11.84574
 30
0.0
 10
-10.24364
 20
-11.84327
 30
0.0
 10
-10.24625
 20
-11.84205
 30
0.0
 10
-10.25001
 20
-11.84205
 30
0.0
 10
-10.25001
 20
-11.84205
 30
0.0
 10
-10.25476
 20
-11.84205
 30
0.0
 10
-10.25841
 20
-11.844
 30
0.0
 10
-10.26097
 20
-11.84788
 30
0.0
 10
-10.26097
 20
-11.84788
 30
0.0
 10
-10.26353
 20
-11.85176
 30
0.0
 10
-10.26483
 20
-11.85729
 30
0.0
 10
-10.26483
 20
-11.86451
 30
0.0
 10
-10.26483
 20
-11.86451
 30
0.0
 10
-10.26483
 20
-11.86451
 30
0.0
 10
-10.26483
 20
-11.90247
 30
0.0
 10
-10.26483
 20
-11.90247
 30
0.0
 10
-10.26483
 20
-11.90247
 30
0.0
 10
-10.26483
 20
-11.90247
 30
0.0
 10
-10.28964
 20
-11.90247
 30
0.0
 10
-10.28964
 20
-11.90247
 30
0.0
 10
-10.28964
 20
-11.90247
 30
0.0
 10
-10.28964
 20
-11.90247
 30
0.0
 10
-10.28964
 20
-11.82531
 30
0.0
 10
-10.28964
 20
-11.82531
 30
0.0
 10
-10.28964
 20
-11.82531
 30
0.0
 10
-10.28964
 20
-11.82531
 30
0.0
 10
-10.26483
 20
-11.82531
 30
0.0
 10
-10.26483
 20
-11.82531
 30
0.0
 10
-10.26483
 20
-11.82531
 30
0.0
 10
-10.26483
 20
-11.82531
 30
0.0
 10
-10.26483
 20
-11.83662
 30
0.0
 10
-10.26483
 20
-11.83662
 30
0.0
 10
-10.26483
 20
-11.83662
 30
0.0
 10
-10.26179
 20
-11.83224
 30
0.0
 10
-10.25831
 20
-11.82898
 30
0.0
 10
-10.25438
 20
-11.82676
 30
0.0
 10
-10.25438
 20
-11.82676
 30
0.0
 10
-10.25046
 20
-11.82455
 30
0.0
 10
-10.24613
 20
-11.82345
 30
0.0
 10
-10.2414
 20
-11.82345
 30
0.0
 10
-10.2414
 20
-11.82345
 30
0.0
 10
-10.23609
 20
-11.82345
 30
0.0
 10
-10.23136
 20
-11.82474
 30
0.0
 10
-10.22729
 20
-11.82731
 30
0.0
 10
-10.22729
 20
-11.82731
 30
0.0
 10
-10.2232
 20
-11.82989
 30
0.0
 10
-10.22009
 20
-11.83349
 30
0.0
 10
-10.21798
 20
-11.83812
 30
0.0
  0
SPLINE
  5
95
330
1F
100
AcDbEntity
  8
Layer 1
 62
   250
100
AcDbSpline
210
0.0
220
0.0
230
1.0
 70
    11
 71
     3
 72
    92
 73
    88
 74
     0
 42
0.0000000001
 43
0.0000000001
 40
0.0
 40
0.0
 40
0.0
 40
0.0
 40
0.0454545454545455
 40
0.0454545454545455
 40
0.0454545454545455
 40
0.0454545454545455
 40
0.0909090909090909
 40
0.0909090909090909
 40
0.0909090909090909
 40
0.0909090909090909
 40
0.1363636363636364
 40
0.1363636363636364
 40
0.1363636363636364
 40
0.1363636363636364
 40
0.1818181818181818
 40
0.1818181818181818
 40
0.1818181818181818
 40
0.1818181818181818
 40
0.2272727272727273
 40
0.2272727272727273
 40
0.2272727272727273
 40
0.2272727272727273
 40
0.2727272727272728
 40
0.2727272727272728
 40
0.2727272727272728
 40
0.2727272727272728
 40
0.3181818181818182
 40
0.3181818181818182
 40
0.3181818181818182
 40
0.3181818181818182
 40
0.3636363636363637
 40
0.3636363636363637
 40
0.3636363636363637
 40
0.3636363636363637
 40
0.4090909090909092
 40
0.4090909090909092
 40
0.4090909090909092
 40
0.4090909090909092
 40
0.4545454545454546
 40
0.4545454545454546
 40
0.4545454545454546
 40
0.4545454545454546
 40
0.5000000000000001
 40
0.5000000000000001
 40
0.5000000000000001
 40
0.5000000000000001
 40
0.5454545454545455
 40
0.5454545454545455
 40
0.5454545454545455
 40
0.5454545454545455
 40
0.5909090909090909
 40
0.5909090909090909
 40
0.5909090909090909
 40
0.5909090909090909
 40
0.6363636363636364
 40
0.6363636363636364
 40
0.6363636363636364
 40
0.6363636363636364
 40
0.6818181818181818
 40
0.6818181818181818
 40
0.6818181818181818
 40
0.6818181818181818
 40
0.7272727272727272
 40
0.7272727272727272
 40
0.7272727272727272
 40
0.7272727272727272
 40
0.7727272727272726
 40
0.7727272727272726
 40
0.7727272727272726
 40
0.7727272727272726
 40
0.818181818181818
 40
0.818181818181818
 40
0.818181818181818
 40
0.818181818181818
 40
0.8636363636363634
 40
0.8636363636363634
 40
0.8636363636363634
 40
0.8636363636363634
 40
0.9090909090909088
 40
0.9090909090909088
 40
0.9090909090909088
 40
0.9090909090909088
 40
0.9545454545454543
 40
0.9545454545454543
 40
0.9545454545454543
 40
0.9545454545454543
 40
1.0
 40
1.0
 40
1.0
 40
1.0
 10
-11.0432
 20
-11.96385
 30
0.0
 10
-11.0432
 20
-11.96385
 30
0.0
 10
-10.97726
 20
-11.96385
 30
0.0
 10
-10.97726
 20
-11.96385
 30
0.0
 10
-10.97726
 20
-11.96385
 30
0.0
 10
-10.97726
 20
-11.96385
 30
0.0
 10
-10.97726
 20
-11.98335
 30
0.0
 10
-10.97726
 20
-11.98335
 30
0.0
 10
-10.97726
 20
-11.98335
 30
0.0
 10
-10.97726
 20
-11.98335
 30
0.0
 10
-11.02206
 20
-11.98335
 30
0.0
 10
-11.02206
 20
-11.98335
 30
0.0
 10
-11.02206
 20
-11.98335
 30
0.0
 10
-11.02206
 20
-11.98335
 30
0.0
 10
-11.02206
 20
-11.99927
 30
0.0
 10
-11.02206
 20
-11.99927
 30
0.0
 10
-11.02206
 20
-11.99927
 30
0.0
 10
-11.02004
 20
-11.99873
 30
0.0
 10
-11.01801
 20
-11.99831
 30
0.0
 10
-11.01597
 20
-11.998
 30
0.0
 10
-11.01597
 20
-11.998
 30
0.0
 10
-11.01392
 20
-11.99769
 30
0.0
 10
-11.01178
 20
-11.99755
 30
0.0
 10
-11.00959
 20
-11.99755
 30
0.0
 10
-11.00959
 20
-11.99755
 30
0.0
 10
-10.99704
 20
-11.99755
 30
0.0
 10
-10.98728
 20
-12.00068
 30
0.0
 10
-10.98029
 20
-12.00696
 30
0.0
 10
-10.98029
 20
-12.00696
 30
0.0
 10
-10.97331
 20
-12.01322
 30
0.0
 10
-10.96983
 20
-12.02196
 30
0.0
 10
-10.96983
 20
-12.03316
 30
0.0
 10
-10.96983
 20
-12.03316
 30
0.0
 10
-10.96983
 20
-12.04428
 30
0.0
 10
-10.97364
 20
-12.05299
 30
0.0
 10
-10.98123
 20
-12.05929
 30
0.0
 10
-10.98123
 20
-12.05929
 30
0.0
 10
-10.98883
 20
-12.06557
 30
0.0
 10
-10.99939
 20
-12.06872
 30
0.0
 10
-11.01289
 20
-12.06872
 30
0.0
 10
-11.01289
 20
-12.06872
 30
0.0
 10
-11.01872
 20
-12.06872
 30
0.0
 10
-11.02451
 20
-12.06815
 30
0.0
 10
-11.03022
 20
-12.06703
 30
0.0
 10
-11.03022
 20
-12.06703
 30
0.0
 10
-11.03594
 20
-12.0659
 30
0.0
 10
-11.04163
 20
-12.0642
 30
0.0
 10
-11.04727
 20
-12.0619
 30
0.0
 10
-11.04727
 20
-12.0619
 30
0.0
 10
-11.04727
 20
-12.0619
 30
0.0
 10
-11.04727
 20
-12.04101
 30
0.0
 10
-11.04727
 20
-12.04101
 30
0.0
 10
-11.04727
 20
-12.04101
 30
0.0
 10
-11.04167
 20
-12.04424
 30
0.0
 10
-11.03636
 20
-12.04664
 30
0.0
 10
-11.03133
 20
-12.04823
 30
0.0
 10
-11.03133
 20
-12.04823
 30
0.0
 10
-11.02629
 20
-12.04986
 30
0.0
 10
-11.02154
 20
-12.05066
 30
0.0
 10
-11.0171
 20
-12.05066
 30
0.0
 10
-11.0171
 20
-12.05066
 30
0.0
 10
-11.01065
 20
-12.05066
 30
0.0
 10
-11.0056
 20
-12.04908
 30
0.0
 10
-11.0019
 20
-12.04593
 30
0.0
 10
-11.0019
 20
-12.04593
 30
0.0
 10
-10.99821
 20
-12.0428
 30
0.0
 10
-10.99635
 20
-12.03855
 30
0.0
 10
-10.99635
 20
-12.03316
 30
0.0
 10
-10.99635
 20
-12.03316
 30
0.0
 10
-10.99635
 20
-12.02775
 30
0.0
 10
-10.99821
 20
-12.02349
 30
0.0
 10
-11.0019
 20
-12.02037
 30
0.0
 10
-11.0019
 20
-12.02037
 30
0.0
 10
-11.0056
 20
-12.01724
 30
0.0
 10
-11.01065
 20
-12.01569
 30
0.0
 10
-11.0171
 20
-12.01569
 30
0.0
 10
-11.0171
 20
-12.01569
 30
0.0
 10
-11.02091
 20
-12.01569
 30
0.0
 10
-11.02498
 20
-12.01618
 30
0.0
 10
-11.02928
 20
-12.01717
 30
0.0
 10
-11.02928
 20
-12.01717
 30
0.0
 10
-11.03361
 20
-12.01815
 30
0.0
 10
-11.03824
 20
-12.01968
 30
0.0
 10
-11.0432
 20
-12.02175
 30
0.0
 10
-11.0432
 20
-12.02175
 30
0.0
 10
-11.0432
 20
-12.02175
 30
0.0
 10
-11.0432
 20
-11.96385
 30
0.0
 10
-11.0432
 20
-11.96385
 30
0.0
  0
SPLINE
  5
96
330
1F
100
AcDbEntity
  8
Layer 1
 62
   250
100
AcDbSpline
210
0.0
220
0.0
230
1.0
 70
    11
 71
     3
 72
    40
 73
    36
 74
     0
 42
0.0000000001
 43
0.0000000001
 40
0.0
 40
0.0
 40
0.0
 40
0.0
 40
0.1111111111111111
 40
0.1111111111111111
 40
0.1111111111111111
 40
0.1111111111111111
 40
0.2222222222222222
 40
0.2222222222222222
 40
0.2222222222222222
 40
0.2222222222222222
 40
0.3333333333333333
 40
0.3333333333333333
 40
0.3333333333333333
 40
0.3333333333333333
 40
0.4444444444444444
 40
0.4444444444444444
 40
0.4444444444444444
 40
0.4444444444444444
 40
0.5555555555555556
 40
0.5555555555555556
 40
0.5555555555555556
 40
0.5555555555555556
 40
0.6666666666666667
 40
0.6666666666666667
 40
0.6666666666666667
 40
0.6666666666666667
 40
0.7777777777777779
 40
0.7777777777777779
 40
0.7777777777777779
 40
0.7777777777777779
 40
0.8888888888888891
 40
0.8888888888888891
 40
0.8888888888888891
 40
0.8888888888888891
 40
1.0
 40
1.0
 40
1.0
 40
1.0
 10
-10.89788
 20
-11.96385
 30
0.0
 10
-10.89788
 20
-11.96385
 30
0.0
 10
-10.85386
 20
-11.96385
 30
0.0
 10
-10.85386
 20
-11.96385
 30
0.0
 10
-10.85386
 20
-11.96385
 30
0.0
 10
-10.84076
 20
-11.96385
 30
0.0
 10
-10.83071
 20
-11.96677
 30
0.0
 10
-10.8237
 20
-11.97258
 30
0.0
 10
-10.8237
 20
-11.97258
 30
0.0
 10
-10.8167
 20
-11.97839
 30
0.0
 10
-10.81319
 20
-11.98666
 30
0.0
 10
-10.81319
 20
-11.99741
 30
0.0
 10
-10.81319
 20
-11.99741
 30
0.0
 10
-10.81319
 20
-12.00818
 30
0.0
 10
-10.8167
 20
-12.01648
 30
0.0
 10
-10.8237
 20
-12.02229
 30
0.0
 10
-10.8237
 20
-12.02229
 30
0.0
 10
-10.83071
 20
-12.0281
 30
0.0
 10
-10.84076
 20
-12.03102
 30
0.0
 10
-10.85386
 20
-12.03102
 30
0.0
 10
-10.85386
 20
-12.03102
 30
0.0
 10
-10.85386
 20
-12.03102
 30
0.0
 10
-10.87135
 20
-12.03102
 30
0.0
 10
-10.87135
 20
-12.03102
 30
0.0
 10
-10.87135
 20
-12.03102
 30
0.0
 10
-10.87135
 20
-12.03102
 30
0.0
 10
-10.87135
 20
-12.06672
 30
0.0
 10
-10.87135
 20
-12.06672
 30
0.0
 10
-10.87135
 20
-12.06672
 30
0.0
 10
-10.87135
 20
-12.06672
 30
0.0
 10
-10.89788
 20
-12.06672
 30
0.0
 10
-10.89788
 20
-12.06672
 30
0.0
 10
-10.89788
 20
-12.06672
 30
0.0
 10
-10.89788
 20
-12.06672
 30
0.0
 10
-10.89788
 20
-11.96385
 30
0.0
 10
-10.89788
 20
-11.96385
 30
0.0
  0
SPLINE
  5
97
330
1F
100
AcDbEntity
  8
Layer 1
 62
   250
100
AcDbSpline
210
0.0
220
0.0
230
1.0
 70
    11
 71
     3
 72
    32
 73
    28
 74
     0
 42
0.0000000001
 43
0.0000000001
 40
0.0
 40
0.0
 40
0.0
 40
0.0
 40
0.1428571428571428
 40
0.1428571428571428
 40
0.1428571428571428
 40
0.1428571428571428
 40
0.2857142857142857
 40
0.2857142857142857
 40
0.2857142857142857
 40
0.2857142857142857
 40
0.4285714285714285
 40
0.4285714285714285
 40
0.4285714285714285
 40
0.4285714285714285
 40
0.5714285714285714
 40
0.5714285714285714
 40
0.5714285714285714
 40
0.5714285714285714
 40
0.7142857142857142
 40
0.7142857142857142
 40
0.7142857142857142
 40
0.7142857142857142
 40
0.857142857142857
 40
0.857142857142857
 40
0.857142857142857
 40
0.857142857142857
 40
1.0
 40
1.0
 40
1.0
 40
1.0
 10
-10.87135
 20
-11.98307
 30
0.0
 10
-10.87135
 20
-11.98307
 30
0.0
 10
-10.87135
 20
-12.0118
 30
0.0
 10
-10.87135
 20
-12.0118
 30
0.0
 10
-10.87135
 20
-12.0118
 30
0.0
 10
-10.87135
 20
-12.0118
 30
0.0
 10
-10.85668
 20
-12.0118
 30
0.0
 10
-10.85668
 20
-12.0118
 30
0.0
 10
-10.85668
 20
-12.0118
 30
0.0
 10
-10.85153
 20
-12.0118
 30
0.0
 10
-10.84755
 20
-12.01056
 30
0.0
 10
-10.84475
 20
-12.00804
 30
0.0
 10
-10.84475
 20
-12.00804
 30
0.0
 10
-10.84195
 20
-12.00555
 30
0.0
 10
-10.84054
 20
-12.002
 30
0.0
 10
-10.84054
 20
-11.99741
 30
0.0
 10
-10.84054
 20
-11.99741
 30
0.0
 10
-10.84054
 20
-11.9928
 30
0.0
 10
-10.84195
 20
-11.98927
 30
0.0
 10
-10.84475
 20
-11.98678
 30
0.0
 10
-10.84475
 20
-11.98678
 30
0.0
 10
-10.84755
 20
-11.98431
 30
0.0
 10
-10.85153
 20
-11.98307
 30
0.0
 10
-10.85668
 20
-11.98307
 30
0.0
 10
-10.85668
 20
-11.98307
 30
0.0
 10
-10.85668
 20
-11.98307
 30
0.0
 10
-10.87135
 20
-11.98307
 30
0.0
 10
-10.87135
 20
-11.98307
 30
0.0
  0
SPLINE
  5
98
330
1F
100
AcDbEntity
  8
Layer 1
 62
   250
100
AcDbSpline
210
0.0
220
0.0
230
1.0
 70
    11
 71
     3
 72
    20
 73
    16
 74
     0
 42
0.0000000001
 43
0.0000000001
 40
0.0
 40
0.0
 40
0.0
 40
0.0
 40
0.25
 40
0.25
 40
0.25
 40
0.25
 40
0.5
 40
0.5
 40
0.5
 40
0.5
 40
0.75
 40
0.75
 40
0.75
 40
0.75
 40
1.0
 40
1.0
 40
1.0
 40
1.0
 10
-10.79447
 20
-11.96385
 30
0.0
 10
-10.79447
 20
-11.96385
 30
0.0
 10
-10.76794
 20
-11.96385
 30
0.0
 10
-10.76794
 20
-11.96385
 30
0.0
 10
-10.76794
 20
-11.96385
 30
0.0
 10
-10.76794
 20
-11.96385
 30
0.0
 10
-10.76794
 20
-12.06672
 30
0.0
 10
-10.76794
 20
-12.06672
 30
0.0
 10
-10.76794
 20
-12.06672
 30
0.0
 10
-10.76794
 20
-12.06672
 30
0.0
 10
-10.79447
 20
-12.06672
 30
0.0
 10
-10.79447
 20
-12.06672
 30
0.0
 10
-10.79447
 20
-12.06672
 30
0.0
 10
-10.79447
 20
-12.06672
 30
0.0
 10
-10.79447
 20
-11.96385
 30
0.0
 10
-10.79447
 20
-11.96385
 30
0.0
  0
SPLINE
  5
99
330
1F
100
AcDbEntity
  8
Layer 1
 62
   250
100
AcDbSpline
210
0.0
220
0.0
230
1.0
 70
    11
 71
     3
 72
    44
 73
    40
 74
     0
 42
0.0000000001
 43
0.0000000001
 40
0.0
 40
0.0
 40
0.0
 40
0.0
 40
0.1
 40
0.1
 40
0.1
 40
0.1
 40
0.2
 40
0.2
 40
0.2
 40
0.2
 40
0.3
 40
0.3
 40
0.3
 40
0.3
 40
0.4
 40
0.4
 40
0.4
 40
0.4
 40
0.5
 40
0.5
 40
0.5
 40
0.5
 40
0.6
 40
0.6
 40
0.6
 40
0.6
 40
0.7
 40
0.7
 40
0.7
 40
0.7
 40
0.7999999999999999
 40
0.7999999999999999
 40
0.7999999999999999
 40
0.7999999999999999
 40
0.8999999999999999
 40
0.8999999999999999
 40
0.8999999999999999
 40
0.8999999999999999
 40
1.0
 40
1.0
 40
1.0
 40
1.0
 10
-10.74198
 20
-11.96385
 30
0.0
 10
-10.74198
 20
-11.96385
 30
0.0
 10
-10.71235
 20
-11.96385
 30
0.0
 10
-10.71235
 20
-11.96385
 30
0.0
 10
-10.71235
 20
-11.96385
 30
0.0
 10
-10.71235
 20
-11.96385
 30
0.0
 10
-10.67493
 20
-12.03441
 30
0.0
 10
-10.67493
 20
-12.03441
 30
0.0
 10
-10.67493
 20
-12.03441
 30
0.0
 10
-10.67493
 20
-12.03441
 30
0.0
 10
-10.67493
 20
-11.96385
 30
0.0
 10
-10.67493
 20
-11.96385
 30
0.0
 10
-10.67493
 20
-11.96385
 30
0.0
 10
-10.67493
 20
-11.96385
 30
0.0
 10
-10.64979
 20
-11.96385
 30
0.0
 10
-10.64979
 20
-11.96385
 30
0.0
 10
-10.64979
 20
-11.96385
 30
0.0
 10
-10.64979
 20
-11.96385
 30
0.0
 10
-10.64979
 20
-12.06672
 30
0.0
 10
-10.64979
 20
-12.06672
 30
0.0
 10
-10.64979
 20
-12.06672
 30
0.0
 10
-10.64979
 20
-12.06672
 30
0.0
 10
-10.67942
 20
-12.06672
 30
0.0
 10
-10.67942
 20
-12.06672
 30
0.0
 10
-10.67942
 20
-12.06672
 30
0.0
 10
-10.67942
 20
-12.06672
 30
0.0
 10
-10.71684
 20
-11.99616
 30
0.0
 10
-10.71684
 20
-11.99616
 30
0.0
 10
-10.71684
 20
-11.99616
 30
0.0
 10
-10.71684
 20
-11.99616
 30
0.0
 10
-10.71684
 20
-12.06672
 30
0.0
 10
-10.71684
 20
-12.06672
 30
0.0
 10
-10.71684
 20
-12.06672
 30
0.0
 10
-10.71684
 20
-12.06672
 30
0.0
 10
-10.74198
 20
-12.06672
 30
0.0
 10
-10.74198
 20
-12.06672
 30
0.0
 10
-10.74198
 20
-12.06672
 30
0.0
 10
-10.74198
 20
-12.06672
 30
0.0
 10
-10.74198
 20
-11.96385
 30
0.0
 10
-10.74198
 20
-11.96385
 30
0.0
  0
SPLINE
  5
9A
330
1F
100
AcDbEntity
  8
Layer 1
 62
   250
100
AcDbSpline
210
0.0
220
0.0
230
1.0
 70
    11
 71
     3
 72
    52
 73
    48
 74
     0
 42
0.0000000001
 43
0.0000000001
 40
0.0
 40
0.0
 40
0.0
 40
0.0
 40
0.0833333333333333
 40
0.0833333333333333
 40
0.0833333333333333
 40
0.0833333333333333
 40
0.1666666666666667
 40
0.1666666666666667
 40
0.1666666666666667
 40
0.1666666666666667
 40
0.25
 40
0.25
 40
0.25
 40
0.25
 40
0.3333333333333333
 40
0.3333333333333333
 40
0.3333333333333333
 40
0.3333333333333333
 40
0.4166666666666666
 40
0.4166666666666666
 40
0.4166666666666666
 40
0.4166666666666666
 40
0.4999999999999999
 40
0.4999999999999999
 40
0.4999999999999999
 40
0.4999999999999999
 40
0.5833333333333333
 40
0.5833333333333333
 40
0.5833333333333333
 40
0.5833333333333333
 40
0.6666666666666666
 40
0.6666666666666666
 40
0.6666666666666666
 40
0.6666666666666666
 40
0.75
 40
0.75
 40
0.75
 40
0.75
 40
0.8333333333333334
 40
0.8333333333333334
 40
0.8333333333333334
 40
0.8333333333333334
 40
0.9166666666666667
 40
0.9166666666666667
 40
0.9166666666666667
 40
0.9166666666666667
 40
1.0
 40
1.0
 40
1.0
 40
1.0
 10
-10.57476
 20
-11.96385
 30
0.0
 10
-10.57476
 20
-11.96385
 30
0.0
 10
-10.54823
 20
-11.96385
 30
0.0
 10
-10.54823
 20
-11.96385
 30
0.0
 10
-10.54823
 20
-11.96385
 30
0.0
 10
-10.54823
 20
-11.96385
 30
0.0
 10
-10.54823
 20
-12.00306
 30
0.0
 10
-10.54823
 20
-12.00306
 30
0.0
 10
-10.54823
 20
-12.00306
 30
0.0
 10
-10.54823
 20
-12.00306
 30
0.0
 10
-10.5091
 20
-12.00306
 30
0.0
 10
-10.5091
 20
-12.00306
 30
0.0
 10
-10.5091
 20
-12.00306
 30
0.0
 10
-10.5091
 20
-12.00306
 30
0.0
 10
-10.5091
 20
-11.96385
 30
0.0
 10
-10.5091
 20
-11.96385
 30
0.0
 10
-10.5091
 20
-11.96385
 30
0.0
 10
-10.5091
 20
-11.96385
 30
0.0
 10
-10.48257
 20
-11.96385
 30
0.0
 10
-10.48257
 20
-11.96385
 30
0.0
 10
-10.48257
 20
-11.96385
 30
0.0
 10
-10.48257
 20
-11.96385
 30
0.0
 10
-10.48257
 20
-12.06672
 30
0.0
 10
-10.48257
 20
-12.06672
 30
0.0
 10
-10.48257
 20
-12.06672
 30
0.0
 10
-10.48257
 20
-12.06672
 30
0.0
 10
-10.5091
 20
-12.06672
 30
0.0
 10
-10.5091
 20
-12.06672
 30
0.0
 10
-10.5091
 20
-12.06672
 30
0.0
 10
-10.5091
 20
-12.06672
 30
0.0
 10
-10.5091
 20
-12.02312
 30
0.0
 10
-10.5091
 20
-12.02312
 30
0.0
 10
-10.5091
 20
-12.02312
 30
0.0
 10
-10.5091
 20
-12.02312
 30
0.0
 10
-10.54823
 20
-12.02312
 30
0.0
 10
-10.54823
 20
-12.02312
 30
0.0
 10
-10.54823
 20
-12.02312
 30
0.0
 10
-10.54823
 20
-12.02312
 30
0.0
 10
-10.54823
 20
-12.06672
 30
0.0
 10
-10.54823
 20
-12.06672
 30
0.0
 10
-10.54823
 20
-12.06672
 30
0.0
 10
-10.54823
 20
-12.06672
 30
0.0
 10
-10.57476
 20
-12.06672
 30
0.0
 10
-10.57476
 20
-12.06672
 30
0.0
 10
-10.57476
 20
-12.06672
 30
0.0
 10
-10.57476
 20
-12.06672
 30
0.0
 10
-10.57476
 20
-11.96385
 30
0.0
 10
-10.57476
 20
-11.96385
 30
0.0
  0
SPLINE
  5
9B
330
1F
100
AcDbEntity
  8
Layer 1
 62
   250
100
AcDbSpline
210
0.0
220
0.0
230
1.0
 70
    11
 71
     3
 72
    52
 73
    48
 74
     0
 42
0.0000000001
 43
0.0000000001
 40
0.0
 40
0.0
 40
0.0
 40
0.0
 40
0.0833333333333333
 40
0.0833333333333333
 40
0.0833333333333333
 40
0.0833333333333333
 40
0.1666666666666667
 40
0.1666666666666667
 40
0.1666666666666667
 40
0.1666666666666667
 40
0.25
 40
0.25
 40
0.25
 40
0.25
 40
0.3333333333333333
 40
0.3333333333333333
 40
0.3333333333333333
 40
0.3333333333333333
 40
0.4166666666666666
 40
0.4166666666666666
 40
0.4166666666666666
 40
0.4166666666666666
 40
0.4999999999999999
 40
0.4999999999999999
 40
0.4999999999999999
 40
0.4999999999999999
 40
0.5833333333333333
 40
0.5833333333333333
 40
0.5833333333333333
 40
0.5833333333333333
 40
0.6666666666666666
 40
0.6666666666666666
 40
0.6666666666666666
 40
0.6666666666666666
 40
0.75
 40
0.75
 40
0.75
 40
0.75
 40
0.8333333333333334
 40
0.8333333333333334
 40
0.8333333333333334
 40
0.8333333333333334
 40
0.9166666666666667
 40
0.9166666666666667
 40
0.9166666666666667
 40
0.9166666666666667
 40
1.0
 40
1.0
 40
1.0
 40
1.0
 10
-10.45667
 20
-11.96385
 30
0.0
 10
-10.45667
 20
-11.96385
 30
0.0
 10
-10.38508
 20
-11.96385
 30
0.0
 10
-10.38508
 20
-11.96385
 30
0.0
 10
-10.38508
 20
-11.96385
 30
0.0
 10
-10.38508
 20
-11.96385
 30
0.0
 10
-10.38508
 20
-11.98391
 30
0.0
 10
-10.38508
 20
-11.98391
 30
0.0
 10
-10.38508
 20
-11.98391
 30
0.0
 10
-10.38508
 20
-11.98391
 30
0.0
 10
-10.43014
 20
-11.98391
 30
0.0
 10
-10.43014
 20
-11.98391
 30
0.0
 10
-10.43014
 20
-11.98391
 30
0.0
 10
-10.43014
 20
-11.98391
 30
0.0
 10
-10.43014
 20
-12.00306
 30
0.0
 10
-10.43014
 20
-12.00306
 30
0.0
 10
-10.43014
 20
-12.00306
 30
0.0
 10
-10.43014
 20
-12.00306
 30
0.0
 10
-10.38779
 20
-12.00306
 30
0.0
 10
-10.38779
 20
-12.00306
 30
0.0
 10
-10.38779
 20
-12.00306
 30
0.0
 10
-10.38779
 20
-12.00306
 30
0.0
 10
-10.38779
 20
-12.02312
 30
0.0
 10
-10.38779
 20
-12.02312
 30
0.0
 10
-10.38779
 20
-12.02312
 30
0.0
 10
-10.38779
 20
-12.02312
 30
0.0
 10
-10.43014
 20
-12.02312
 30
0.0
 10
-10.43014
 20
-12.02312
 30
0.0
 10
-10.43014
 20
-12.02312
 30
0.0
 10
-10.43014
 20
-12.02312
 30
0.0
 10
-10.43014
 20
-12.04666
 30
0.0
 10
-10.43014
 20
-12.04666
 30
0.0
 10
-10.43014
 20
-12.04666
 30
0.0
 10
-10.43014
 20
-12.04666
 30
0.0
 10
-10.38358
 20
-12.04666
 30
0.0
 10
-10.38358
 20
-12.04666
 30
0.0
 10
-10.38358
 20
-12.04666
 30
0.0
 10
-10.38358
 20
-12.04666
 30
0.0
 10
-10.38358
 20
-12.06672
 30
0.0
 10
-10.38358
 20
-12.06672
 30
0.0
 10
-10.38358
 20
-12.06672
 30
0.0
 10
-10.38358
 20
-12.06672
 30
0.0
 10
-10.45667
 20
-12.06672
 30
0.0
 10
-10.45667
 20
-12.06672
 30
0.0
 10
-10.45667
 20
-12.06672
 30
0.0
 10
-10.45667
 20
-12.06672
 30
0.0
 10
-10.45667
 20
-11.96385
 30
0.0
 10
-10.45667
 20
-11.96385
 30
0.0
  0
SPLINE
  5
9C
330
1F
100
AcDbEntity
  8
Layer 1
 62
   250
100
AcDbSpline
210
0.0
220
0.0
230
1.0
 70
    11
 71
     3
 72
    36
 73
    32
 74
     0
 42
0.0000000001
 43
0.0000000001
 40
0.0
 40
0.0
 40
0.0
 40
0.0
 40
0.125
 40
0.125
 40
0.125
 40
0.125
 40
0.25
 40
0.25
 40
0.25
 40
0.25
 40
0.375
 40
0.375
 40
0.375
 40
0.375
 40
0.5
 40
0.5
 40
0.5
 40
0.5
 40
0.625
 40
0.625
 40
0.625
 40
0.625
 40
0.75
 40
0.75
 40
0.75
 40
0.75
 40
0.875
 40
0.875
 40
0.875
 40
0.875
 40
1.0
 40
1.0
 40
1.0
 40
1.0
 10
-10.29785
 20
-12.048
 30
0.0
 10
-10.29785
 20
-12.048
 30
0.0
 10
-10.33934
 20
-12.048
 30
0.0
 10
-10.33934
 20
-12.048
 30
0.0
 10
-10.33934
 20
-12.048
 30
0.0
 10
-10.33934
 20
-12.048
 30
0.0
 10
-10.34588
 20
-12.06672
 30
0.0
 10
-10.34588
 20
-12.06672
 30
0.0
 10
-10.34588
 20
-12.06672
 30
0.0
 10
-10.34588
 20
-12.06672
 30
0.0
 10
-10.37255
 20
-12.06672
 30
0.0
 10
-10.37255
 20
-12.06672
 30
0.0
 10
-10.37255
 20
-12.06672
 30
0.0
 10
-10.37255
 20
-12.06672
 30
0.0
 10
-10.33445
 20
-11.96385
 30
0.0
 10
-10.33445
 20
-11.96385
 30
0.0
 10
-10.33445
 20
-11.96385
 30
0.0
 10
-10.33445
 20
-11.96385
 30
0.0
 10
-10.30282
 20
-11.96385
 30
0.0
 10
-10.30282
 20
-11.96385
 30
0.0
 10
-10.30282
 20
-11.96385
 30
0.0
 10
-10.30282
 20
-11.96385
 30
0.0
 10
-10.26472
 20
-12.06672
 30
0.0
 10
-10.26472
 20
-12.06672
 30
0.0
 10
-10.26472
 20
-12.06672
 30
0.0
 10
-10.26472
 20
-12.06672
 30
0.0
 10
-10.29139
 20
-12.06672
 30
0.0
 10
-10.29139
 20
-12.06672
 30
0.0
 10
-10.29139
 20
-12.06672
 30
0.0
 10
-10.29139
 20
-12.06672
 30
0.0
 10
-10.29785
 20
-12.048
 30
0.0
 10
-10.29785
 20
-12.048
 30
0.0
  0
SPLINE
  5
9D
330
1F
100
AcDbEntity
  8
Layer 1
 62
   250
100
AcDbSpline
210
0.0
220
0.0
230
1.0
 70
    11
 71
     3
 72
    16
 73
    12
 74
     0
 42
0.0000000001
 43
0.0000000001
 40
0.0
 40
0.0
 40
0.0
 40
0.0
 40
0.3333333333333333
 40
0.3333333333333333
 40
0.3333333333333333
 40
0.3333333333333333
 40
0.6666666666666666
 40
0.6666666666666666
 40
0.6666666666666666
 40
0.6666666666666666
 40
1.0
 40
1.0
 40
1.0
 40
1.0
 10
-10.33273
 20
-12.0289
 30
0.0
 10
-10.33273
 20
-12.0289
 30
0.0
 10
-10.30453
 20
-12.0289
 30
0.0
 10
-10.30453
 20
-12.0289
 30
0.0
 10
-10.30453
 20
-12.0289
 30
0.0
 10
-10.30453
 20
-12.0289
 30
0.0
 10
-10.3186
 20
-11.98798
 30
0.0
 10
-10.3186
 20
-11.98798
 30
0.0
 10
-10.3186
 20
-11.98798
 30
0.0
 10
-10.3186
 20
-11.98798
 30
0.0
 10
-10.33273
 20
-12.0289
 30
0.0
 10
-10.33273
 20
-12.0289
 30
0.0
  0
SPLINE
  5
9E
330
1F
100
AcDbEntity
  8
Layer 1
 62
   250
100
AcDbSpline
210
0.0
220
0.0
230
1.0
 70
    11
 71
     3
 72
    32
 73
    28
 74
     0
 42
0.0000000001
 43
0.0000000001
 40
0.0
 40
0.0
 40
0.0
 40
0.0
 40
0.1428571428571428
 40
0.1428571428571428
 40
0.1428571428571428
 40
0.1428571428571428
 40
0.2857142857142857
 40
0.2857142857142857
 40
0.2857142857142857
 40
0.2857142857142857
 40
0.4285714285714285
 40
0.4285714285714285
 40
0.4285714285714285
 40
0.4285714285714285
 40
0.5714285714285714
 40
0.5714285714285714
 40
0.5714285714285714
 40
0.5714285714285714
 40
0.7142857142857142
 40
0.7142857142857142
 40
0.7142857142857142
 40
0.7142857142857142
 40
0.857142857142857
 40
0.857142857142857
 40
0.857142857142857
 40
0.857142857142857
 40
1.0
 40
1.0
 40
1.0
 40
1.0
 10
-10.22452
 20
-11.98391
 30
0.0
 10
-10.22452
 20
-11.98391
 30
0.0
 10
-10.22452
 20
-12.04666
 30
0.0
 10
-10.22452
 20
-12.04666
 30
0.0
 10
-10.22452
 20
-12.04666
 30
0.0
 10
-10.22452
 20
-12.04666
 30
0.0
 10
-10.21502
 20
-12.04666
 30
0.0
 10
-10.21502
 20
-12.04666
 30
0.0
 10
-10.21502
 20
-12.04666
 30
0.0
 10
-10.20418
 20
-12.04666
 30
0.0
 10
-10.1959
 20
-12.04398
 30
0.0
 10
-10.19019
 20
-12.03859
 30
0.0
 10
-10.19019
 20
-12.03859
 30
0.0
 10
-10.18447
 20
-12.03323
 30
0.0
 10
-10.1816
 20
-12.02542
 30
0.0
 10
-10.1816
 20
-12.01519
 30
0.0
 10
-10.1816
 20
-12.01519
 30
0.0
 10
-10.1816
 20
-12.00498
 30
0.0
 10
-10.18445
 20
-11.99722
 30
0.0
 10
-10.19014
 20
-11.99191
 30
0.0
 10
-10.19014
 20
-11.99191
 30
0.0
 10
-10.19583
 20
-11.98657
 30
0.0
 10
-10.20413
 20
-11.98391
 30
0.0
 10
-10.21502
 20
-11.98391
 30
0.0
 10
-10.21502
 20
-11.98391
 30
0.0
 10
-10.21502
 20
-11.98391
 30
0.0
 10
-10.22452
 20
-11.98391
 30
0.0
 10
-10.22452
 20
-11.98391
 30
0.0
  0
SPLINE
  5
9F
330
1F
100
AcDbEntity
  8
Layer 1
 62
   250
100
AcDbSpline
210
0.0
220
0.0
230
1.0
 70
    11
 71
     3
 72
    48
 73
    44
 74
     0
 42
0.0000000001
 43
0.0000000001
 40
0.0
 40
0.0
 40
0.0
 40
0.0
 40
0.0909090909090909
 40
0.0909090909090909
 40
0.0909090909090909
 40
0.0909090909090909
 40
0.1818181818181818
 40
0.1818181818181818
 40
0.1818181818181818
 40
0.1818181818181818
 40
0.2727272727272727
 40
0.2727272727272727
 40
0.2727272727272727
 40
0.2727272727272727
 40
0.3636363636363636
 40
0.3636363636363636
 40
0.3636363636363636
 40
0.3636363636363636
 40
0.4545454545454546
 40
0.4545454545454546
 40
0.4545454545454546
 40
0.4545454545454546
 40
0.5454545454545455
 40
0.5454545454545455
 40
0.5454545454545455
 40
0.5454545454545455
 40
0.6363636363636365
 40
0.6363636363636365
 40
0.6363636363636365
 40
0.6363636363636365
 40
0.7272727272727274
 40
0.7272727272727274
 40
0.7272727272727274
 40
0.7272727272727274
 40
0.8181818181818183
 40
0.8181818181818183
 40
0.8181818181818183
 40
0.8181818181818183
 40
0.9090909090909093
 40
0.9090909090909093
 40
0.9090909090909093
 40
0.9090909090909093
 40
1.0
 40
1.0
 40
1.0
 40
1.0
 10
-10.25105
 20
-11.96385
 30
0.0
 10
-10.25105
 20
-11.96385
 30
0.0
 10
-10.22306
 20
-11.96385
 30
0.0
 10
-10.22306
 20
-11.96385
 30
0.0
 10
-10.22306
 20
-11.96385
 30
0.0
 10
-10.20745
 20
-11.96385
 30
0.0
 10
-10.19583
 20
-11.96496
 30
0.0
 10
-10.18819
 20
-11.96719
 30
0.0
 10
-10.18819
 20
-11.96719
 30
0.0
 10
-10.18054
 20
-11.96942
 30
0.0
 10
-10.17398
 20
-11.97319
 30
0.0
 10
-10.1685
 20
-11.97853
 30
0.0
 10
-10.1685
 20
-11.97853
 30
0.0
 10
-10.16368
 20
-11.98316
 30
0.0
 10
-10.16011
 20
-11.98852
 30
0.0
 10
-10.15775
 20
-11.99459
 30
0.0
 10
-10.15775
 20
-11.99459
 30
0.0
 10
-10.15543
 20
-12.00063
 30
0.0
 10
-10.15425
 20
-12.0075
 30
0.0
 10
-10.15425
 20
-12.01519
 30
0.0
 10
-10.15425
 20
-12.01519
 30
0.0
 10
-10.15425
 20
-12.02295
 30
0.0
 10
-10.15543
 20
-12.02987
 30
0.0
 10
-10.15775
 20
-12.03596
 30
0.0
 10
-10.15775
 20
-12.03596
 30
0.0
 10
-10.16011
 20
-12.04205
 30
0.0
 10
-10.16368
 20
-12.04741
 30
0.0
 10
-10.1685
 20
-12.05204
 30
0.0
 10
-10.1685
 20
-12.05204
 30
0.0
 10
-10.17403
 20
-12.05738
 30
0.0
 10
-10.18064
 20
-12.06115
 30
0.0
 10
-10.18835
 20
-12.06338
 30
0.0
 10
-10.18835
 20
-12.06338
 30
0.0
 10
-10.19607
 20
-12.06561
 30
0.0
 10
-10.20764
 20
-12.06672
 30
0.0
 10
-10.22306
 20
-12.06672
 30
0.0
 10
-10.22306
 20
-12.06672
 30
0.0
 10
-10.22306
 20
-12.06672
 30
0.0
 10
-10.25105
 20
-12.06672
 30
0.0
 10
-10.25105
 20
-12.06672
 30
0.0
 10
-10.25105
 20
-12.06672
 30
0.0
 10
-10.25105
 20
-12.06672
 30
0.0
 10
-10.25105
 20
-11.96385
 30
0.0
 10
-10.25105
 20
-11.96385
 30
0.0
  0
SPLINE
  5
A0
330
1F
100
AcDbEntity
  8
Layer 1
 62
   250
100
AcDbSpline
210
0.0
220
0.0
230
1.0
 70
    11
 71
     3
 72
    52
 73
    48
 74
     0
 42
0.0000000001
 43
0.0000000001
 40
0.0
 40
0.0
 40
0.0
 40
0.0
 40
0.0833333333333333
 40
0.0833333333333333
 40
0.0833333333333333
 40
0.0833333333333333
 40
0.1666666666666667
 40
0.1666666666666667
 40
0.1666666666666667
 40
0.1666666666666667
 40
0.25
 40
0.25
 40
0.25
 40
0.25
 40
0.3333333333333333
 40
0.3333333333333333
 40
0.3333333333333333
 40
0.3333333333333333
 40
0.4166666666666666
 40
0.4166666666666666
 40
0.4166666666666666
 40
0.4166666666666666
 40
0.4999999999999999
 40
0.4999999999999999
 40
0.4999999999999999
 40
0.4999999999999999
 40
0.5833333333333333
 40
0.5833333333333333
 40
0.5833333333333333
 40
0.5833333333333333
 40
0.6666666666666666
 40
0.6666666666666666
 40
0.6666666666666666
 40
0.6666666666666666
 40
0.75
 40
0.75
 40
0.75
 40
0.75
 40
0.8333333333333334
 40
0.8333333333333334
 40
0.8333333333333334
 40
0.8333333333333334
 40
0.9166666666666667
 40
0.9166666666666667
 40
0.9166666666666667
 40
0.9166666666666667
 40
1.0
 40
1.0
 40
1.0
 40
1.0
 10
-10.13393
 20
-11.96385
 30
0.0
 10
-10.13393
 20
-11.96385
 30
0.0
 10
-10.06234
 20
-11.96385
 30
0.0
 10
-10.06234
 20
-11.96385
 30
0.0
 10
-10.06234
 20
-11.96385
 30
0.0
 10
-10.06234
 20
-11.96385
 30
0.0
 10
-10.06234
 20
-11.98391
 30
0.0
 10
-10.06234
 20
-11.98391
 30
0.0
 10
-10.06234
 20
-11.98391
 30
0.0
 10
-10.06234
 20
-11.98391
 30
0.0
 10
-10.1074
 20
-11.98391
 30
0.0
 10
-10.1074
 20
-11.98391
 30
0.0
 10
-10.1074
 20
-11.98391
 30
0.0
 10
-10.1074
 20
-11.98391
 30
0.0
 10
-10.1074
 20
-12.00306
 30
0.0
 10
-10.1074
 20
-12.00306
 30
0.0
 10
-10.1074
 20
-12.00306
 30
0.0
 10
-10.1074
 20
-12.00306
 30
0.0
 10
-10.06505
 20
-12.00306
 30
0.0
 10
-10.06505
 20
-12.00306
 30
0.0
 10
-10.06505
 20
-12.00306
 30
0.0
 10
-10.06505
 20
-12.00306
 30
0.0
 10
-10.06505
 20
-12.02312
 30
0.0
 10
-10.06505
 20
-12.02312
 30
0.0
 10
-10.06505
 20
-12.02312
 30
0.0
 10
-10.06505
 20
-12.02312
 30
0.0
 10
-10.1074
 20
-12.02312
 30
0.0
 10
-10.1074
 20
-12.02312
 30
0.0
 10
-10.1074
 20
-12.02312
 30
0.0
 10
-10.1074
 20
-12.02312
 30
0.0
 10
-10.1074
 20
-12.04666
 30
0.0
 10
-10.1074
 20
-12.04666
 30
0.0
 10
-10.1074
 20
-12.04666
 30
0.0
 10
-10.1074
 20
-12.04666
 30
0.0
 10
-10.06084
 20
-12.04666
 30
0.0
 10
-10.06084
 20
-12.04666
 30
0.0
 10
-10.06084
 20
-12.04666
 30
0.0
 10
-10.06084
 20
-12.04666
 30
0.0
 10
-10.06084
 20
-12.06672
 30
0.0
 10
-10.06084
 20
-12.06672
 30
0.0
 10
-10.06084
 20
-12.06672
 30
0.0
 10
-10.06084
 20
-12.06672
 30
0.0
 10
-10.13393
 20
-12.06672
 30
0.0
 10
-10.13393
 20
-12.06672
 30
0.0
 10
-10.13393
 20
-12.06672
 30
0.0
 10
-10.13393
 20
-12.06672
 30
0.0
 10
-10.13393
 20
-11.96385
 30
0.0
 10
-10.13393
 20
-11.96385
 30
0.0
  0
SPLINE
  5
A1
330
1F
100
AcDbEntity
  8
Layer 1
 62
   250
100
AcDbSpline
210
0.0
220
0.0
230
1.0
 70
    11
 71
     3
 72
    32
 73
    28
 74
     0
 42
0.0000000001
 43
0.0000000001
 40
0.0
 40
0.0
 40
0.0
 40
0.0
 40
0.1428571428571428
 40
0.1428571428571428
 40
0.1428571428571428
 40
0.1428571428571428
 40
0.2857142857142857
 40
0.2857142857142857
 40
0.2857142857142857
 40
0.2857142857142857
 40
0.4285714285714285
 40
0.4285714285714285
 40
0.4285714285714285
 40
0.4285714285714285
 40
0.5714285714285714
 40
0.5714285714285714
 40
0.5714285714285714
 40
0.5714285714285714
 40
0.7142857142857142
 40
0.7142857142857142
 40
0.7142857142857142
 40
0.7142857142857142
 40
0.857142857142857
 40
0.857142857142857
 40
0.857142857142857
 40
0.857142857142857
 40
1.0
 40
1.0
 40
1.0
 40
1.0
 10
-9.99983
 20
-12.00948
 30
0.0
 10
-9.99428
 20
-12.00948
 30
0.0
 10
-9.99028
 20
-12.00844
 30
0.0
 10
-9.98788
 20
-12.00637
 30
0.0
 10
-9.98788
 20
-12.00637
 30
0.0
 10
-9.98546
 20
-12.0043
 30
0.0
 10
-9.98426
 20
-12.00089
 30
0.0
 10
-9.98426
 20
-11.99616
 30
0.0
 10
-9.98426
 20
-11.99616
 30
0.0
 10
-9.98426
 20
-11.99148
 30
0.0
 10
-9.98546
 20
-11.98812
 30
0.0
 10
-9.98788
 20
-11.9861
 30
0.0
 10
-9.98788
 20
-11.9861
 30
0.0
 10
-9.99028
 20
-11.98408
 30
0.0
 10
-9.99428
 20
-11.98307
 30
0.0
 10
-9.99983
 20
-11.98307
 30
0.0
 10
-9.99983
 20
-11.98307
 30
0.0
 10
-9.99983
 20
-11.98307
 30
0.0
 10
-10.011
 20
-11.98307
 30
0.0
 10
-10.011
 20
-11.98307
 30
0.0
 10
-10.011
 20
-11.98307
 30
0.0
 10
-10.011
 20
-11.98307
 30
0.0
 10
-10.011
 20
-12.00948
 30
0.0
 10
-10.011
 20
-12.00948
 30
0.0
 10
-10.011
 20
-12.00948
 30
0.0
 10
-10.011
 20
-12.00948
 30
0.0
 10
-9.99983
 20
-12.00948
 30
0.0
 10
-9.99983
 20
-12.00948
 30
0.0
  0
SPLINE
  5
A2
330
1F
100
AcDbEntity
  8
Layer 1
 62
   250
100
AcDbSpline
210
0.0
220
0.0
230
1.0
 70
    11
 71
     3
 72
    68
 73
    64
 74
     0
 42
0.0000000001
 43
0.0000000001
 40
0.0
 40
0.0
 40
0.0
 40
0.0
 40
0.0625
 40
0.0625
 40
0.0625
 40
0.0625
 40
0.125
 40
0.125
 40
0.125
 40
0.125
 40
0.1875
 40
0.1875
 40
0.1875
 40
0.1875
 40
0.25
 40
0.25
 40
0.25
 40
0.25
 40
0.3125
 40
0.3125
 40
0.3125
 40
0.3125
 40
0.375
 40
0.375
 40
0.375
 40
0.375
 40
0.4375
 40
0.4375
 40
0.4375
 40
0.4375
 40
0.5
 40
0.5
 40
0.5
 40
0.5
 40
0.5625
 40
0.5625
 40
0.5625
 40
0.5625
 40
0.625
 40
0.625
 40
0.625
 40
0.625
 40
0.6875
 40
0.6875
 40
0.6875
 40
0.6875
 40
0.75
 40
0.75
 40
0.75
 40
0.75
 40
0.8125
 40
0.8125
 40
0.8125
 40
0.8125
 40
0.875
 40
0.875
 40
0.875
 40
0.875
 40
0.9375
 40
0.9375
 40
0.9375
 40
0.9375
 40
1.0
 40
1.0
 40
1.0
 40
1.0
 10
-10.011
 20
-12.0278
 30
0.0
 10
-10.011
 20
-12.0278
 30
0.0
 10
-10.011
 20
-12.06672
 30
0.0
 10
-10.011
 20
-12.06672
 30
0.0
 10
-10.011
 20
-12.06672
 30
0.0
 10
-10.011
 20
-12.06672
 30
0.0
 10
-10.03753
 20
-12.06672
 30
0.0
 10
-10.03753
 20
-12.06672
 30
0.0
 10
-10.03753
 20
-12.06672
 30
0.0
 10
-10.03753
 20
-12.06672
 30
0.0
 10
-10.03753
 20
-11.96385
 30
0.0
 10
-10.03753
 20
-11.96385
 30
0.0
 10
-10.03753
 20
-11.96385
 30
0.0
 10
-10.03753
 20
-11.96385
 30
0.0
 10
-9.99701
 20
-11.96385
 30
0.0
 10
-9.99701
 20
-11.96385
 30
0.0
 10
-9.99701
 20
-11.96385
 30
0.0
 10
-9.98346
 20
-11.96385
 30
0.0
 10
-9.97351
 20
-11.96613
 30
0.0
 10
-9.96721
 20
-11.97067
 30
0.0
 10
-9.96721
 20
-11.97067
 30
0.0
 10
-9.96089
 20
-11.97521
 30
0.0
 10
-9.95773
 20
-11.98241
 30
0.0
 10
-9.95773
 20
-11.99224
 30
0.0
 10
-9.95773
 20
-11.99224
 30
0.0
 10
-9.95773
 20
-11.99903
 30
0.0
 10
-9.95938
 20
-12.00463
 30
0.0
 10
-9.96265
 20
-12.00898
 30
0.0
 10
-9.96265
 20
-12.00898
 30
0.0
 10
-9.96594
 20
-12.01336
 30
0.0
 10
-9.9709
 20
-12.01658
 30
0.0
 10
-9.97751
 20
-12.01863
 30
0.0
 10
-9.97751
 20
-12.01863
 30
0.0
 10
-9.97389
 20
-12.01947
 30
0.0
 10
-9.97062
 20
-12.02133
 30
0.0
 10
-9.96775
 20
-12.02425
 30
0.0
 10
-9.96775
 20
-12.02425
 30
0.0
 10
-9.96488
 20
-12.02716
 30
0.0
 10
-9.96199
 20
-12.03158
 30
0.0
 10
-9.95905
 20
-12.03751
 30
0.0
 10
-9.95905
 20
-12.03751
 30
0.0
 10
-9.95905
 20
-12.03751
 30
0.0
 10
-9.94463
 20
-12.06672
 30
0.0
 10
-9.94463
 20
-12.06672
 30
0.0
 10
-9.94463
 20
-12.06672
 30
0.0
 10
-9.94463
 20
-12.06672
 30
0.0
 10
-9.9729
 20
-12.06672
 30
0.0
 10
-9.9729
 20
-12.06672
 30
0.0
 10
-9.9729
 20
-12.06672
 30
0.0
 10
-9.9729
 20
-12.06672
 30
0.0
 10
-9.98544
 20
-12.04116
 30
0.0
 10
-9.98544
 20
-12.04116
 30
0.0
 10
-9.98544
 20
-12.04116
 30
0.0
 10
-9.98795
 20
-12.03603
 30
0.0
 10
-9.99052
 20
-12.0325
 30
0.0
 10
-9.99313
 20
-12.03062
 30
0.0
 10
-9.99313
 20
-12.03062
 30
0.0
 10
-9.99572
 20
-12.02874
 30
0.0
 10
-9.99917
 20
-12.0278
 30
0.0
 10
-10.0035
 20
-12.0278
 30
0.0
 10
-10.0035
 20
-12.0278
 30
0.0
 10
-10.0035
 20
-12.0278
 30
0.0
 10
-10.011
 20
-12.0278
 30
0.0
 10
-10.011
 20
-12.0278
 30
0.0
  0
ENDSEC
  0
SECTION
  2
OBJECTS
  0
DICTIONARY
  5
C
330
0
100
AcDbDictionary
281
     1
  3
ACAD_GROUP
350
D
  3
ACAD_LAYOUT
350
1A
  3
ACAD_MLEADERSTYLE
350
A4
  3
ACAD_MLINESTYLE
350
17
  3
ACAD_PLOTSETTINGS
350
19
  3
ACAD_PLOTSTYLENAME
350
E
  3
ACAD_SCALELIST
350
3B
  3
ACAD_TABLESTYLE
350
A3
  3
ACAD_VISUALSTYLE
350
2A
  0
DICTIONARY
  5
D
102
{ACAD_REACTORS
330
C
102
}
330
C
100
AcDbDictionary
281
     1
  0
DICTIONARY
  5
1A
102
{ACAD_REACTORS
330
C
102
}
330
C
100
AcDbDictionary
281
     1
  3
Layout1
350
1E
  3
Layout2
350
26
  3
Model
350
22
  0
DICTIONARY
  5
A4
102
{ACAD_REACTORS
330
C
102
}
330
C
100
AcDbDictionary
281
     1
  0
DICTIONARY
  5
17
102
{ACAD_REACTORS
330
C
102
}
330
C
100
AcDbDictionary
281
     1
  3
Standard
350
18
  0
DICTIONARY
  5
19
102
{ACAD_REACTORS
330
C
102
}
330
C
100
AcDbDictionary
281
     1
  0
ACDBDICTIONARYWDFLT
  5
E
102
{ACAD_REACTORS
330
C
102
}
330
C
100
AcDbDictionary
281
     1
  3
Normal
350
F
100
AcDbDictionaryWithDefault
340
F
  0
DICTIONARY
  5
3B
102
{ACAD_REACTORS
330
C
102
}
330
C
100
AcDbDictionary
281
     1
  3
A0
350
3C
  3
A1
350
3D
  3
A2
350
3E
  3
A3
350
3F
  3
A4
350
40
  3
A5
350
41
  3
A6
350
42
  3
A7
350
43
  3
A8
350
44
  3
A9
350
45
  3
B0
350
46
  3
B1
350
47
  3
B2
350
48
  3
B3
350
49
  3
B4
350
4A
  3
B5
350
4B
  3
B6
350
4C
  3
B7
350
4D
  3
B8
350
4E
  3
B9
350
4F
  3
C0
350
50
  3
C1
350
51
  3
C2
350
52
  3
C3
350
53
  3
C4
350
54
  3
C5
350
55
  3
C6
350
56
  3
C7
350
57
  3
C8
350
58
  3
C9
350
59
  3
D0
350
5A
  3
D1
350
5B
  3
D2
350
5C
  0
DICTIONARY
  5
A3
102
{ACAD_REACTORS
330
C
102
}
330
C
100
AcDbDictionary
281
     1
  0
DICTIONARY
  5
2A
102
{ACAD_REACTORS
330
C
102
}
330
C
100
AcDbDictionary
281
     1
  3
2dWireframe
350
2F
  3
3D Hidden
350
31
  3
3dWireframe
350
30
  3
Basic
350
32
  3
Brighten
350
36
  3
ColorChange
350
3A
  3
Conceptual
350
34
  3
Dim
350
35
  3
Facepattern
350
39
  3
Flat
350
2B
  3
FlatWithEdges
350
2C
  3
Gouraud
350
2D
  3
GouraudWithEdges
350
2E
  3
Linepattern
350
38
  3
Realistic
350
33
  3
Thicken
350
37
  0
LAYOUT
  5
1E
102
{ACAD_REACTORS
330
1A
102
}
330
1A
100
AcDbPlotSettings
  1

  2
none_device
  4

  6

 40
0.0
 41
0.0
 42
0.0
 43
0.0
 44
0.0
 45
0.0
 46
0.0
 47
0.0
 48
0.0
 49
0.0
140
0.0
141
0.0
142
1.0
143
1.0
 70
   688
 72
     0
 73
     0
 74
     5
  7

 75
    16
 76
     0
 77
     2
 78
   300
147
1.0
148
0.0
149
0.0
100
AcDbLayout
  1
Layout1
 70
     1
 71
     1
 10
0.0
 20
0.0
 11
12.0
 21
9.0
 12
0.0
 22
0.0
 32
0.0
 14
1.000000000000000E+20
 24
1.000000000000000E+20
 34
1.000000000000000E+20
 15
-1.000000000000000E+20
 25
-1.000000000000000E+20
 35
-1.000000000000000E+20
146
0.0
 13
0.0
 23
0.0
 33
0.0
 16
1.0
 26
0.0
 36
0.0
 17
0.0
 27
1.0
 37
0.0
 76
     0
330
1B
  0
LAYOUT
  5
26
102
{ACAD_REACTORS
330
1A
102
}
330
1A
100
AcDbPlotSettings
  1

  2
none_device
  4

  6

 40
0.0
 41
0.0
 42
0.0
 43
0.0
 44
0.0
 45
0.0
 46
0.0
 47
0.0
 48
0.0
 49
0.0
140
0.0
141
0.0
142
1.0
143
1.0
 70
   688
 72
     0
 73
     0
 74
     5
  7

 75
    16
 76
     0
 77
     2
 78
   300
147
1.0
148
0.0
149
0.0
100
AcDbLayout
  1
Layout2
 70
     1
 71
     2
 10
0.0
 20
0.0
 11
0.0
 21
0.0
 12
0.0
 22
0.0
 32
0.0
 14
0.0
 24
0.0
 34
0.0
 15
0.0
 25
0.0
 35
0.0
146
0.0
 13
0.0
 23
0.0
 33
0.0
 16
1.0
 26
0.0
 36
0.0
 17
0.0
 27
1.0
 37
0.0
 76
     0
330
23
  0
LAYOUT
  5
22
102
{ACAD_REACTORS
330
1A
102
}
330
1A
100
AcDbPlotSettings
  1

  2
none_device
  4

  6

 40
0.0
 41
0.0
 42
0.0
 43
0.0
 44
0.0
 45
0.0
 46
0.0
 47
0.0
 48
0.0
 49
0.0
140
0.0
141
0.0
142
1.0
143
1.0
 70
  1712
 72
     0
 73
     0
 74
     0
  7

 75
     0
 76
     0
 77
     2
 78
   300
147
1.0
148
0.0
149
0.0
100
AcDbLayout
  1
Model
 70
     1
 71
     0
 10
0.0
 20
0.0
 11
12.0
 21
9.0
 12
0.0
 22
0.0
 32
0.0
 14
-11.5
 24
-17.85
 34
0.0
 15
-9.45
 25
-9.85
 35
0.0
146
0.0
 13
0.0
 23
0.0
 33
0.0
 16
1.0
 26
0.0
 36
0.0
 17
0.0
 27
1.0
 37
0.0
 76
     0
330
1F
331
29
  0
MLINESTYLE
  5
18
102
{ACAD_REACTORS
330
17
102
}
330
17
100
AcDbMlineStyle
  2
Standard
 70
     0
  3

 62
   256
 51
90.0
 52
90.0
 71
     2
 49
0.5
 62
   256
  6
BYLAYER
 49
-0.5
 62
   256
  6
BYLAYER
  0
ACDBPLACEHOLDER
  5
F
102
{ACAD_REACTORS
330
E
102
}
330
E
  0
SCALE
  5
3C
102
{ACAD_REACTORS
330
3B
102
}
330
3B
100
AcDbScale
 70
     0
300
1:1
140
1.0
141
1.0
290
     1
  0
SCALE
  5
3D
102
{ACAD_REACTORS
330
3B
102
}
330
3B
100
AcDbScale
 70
     0
300
1:2
140
1.0
141
2.0
290
     0
  0
SCALE
  5
3E
102
{ACAD_REACTORS
330
3B
102
}
330
3B
100
AcDbScale
 70
     0
300
1:4
140
1.0
141
4.0
290
     0
  0
SCALE
  5
3F
102
{ACAD_REACTORS
330
3B
102
}
330
3B
100
AcDbScale
 70
     0
300
1:5
140
1.0
141
5.0
290
     0
  0
SCALE
  5
40
102
{ACAD_REACTORS
330
3B
102
}
330
3B
100
AcDbScale
 70
     0
300
1:8
140
1.0
141
8.0
290
     0
  0
SCALE
  5
41
102
{ACAD_REACTORS
330
3B
102
}
330
3B
100
AcDbScale
 70
     0
300
1:10
140
1.0
141
10.0
290
     0
  0
SCALE
  5
42
102
{ACAD_REACTORS
330
3B
102
}
330
3B
100
AcDbScale
 70
     0
300
1:16
140
1.0
141
16.0
290
     0
  0
SCALE
  5
43
102
{ACAD_REACTORS
330
3B
102
}
330
3B
100
AcDbScale
 70
     0
300
1:20
140
1.0
141
20.0
290
     0
  0
SCALE
  5
44
102
{ACAD_REACTORS
330
3B
102
}
330
3B
100
AcDbScale
 70
     0
300
1:30
140
1.0
141
30.0
290
     0
  0
SCALE
  5
45
102
{ACAD_REACTORS
330
3B
102
}
330
3B
100
AcDbScale
 70
     0
300
1:40
140
1.0
141
40.0
290
     0
  0
SCALE
  5
46
102
{ACAD_REACTORS
330
3B
102
}
330
3B
100
AcDbScale
 70
     0
300
1:50
140
1.0
141
50.0
290
     0
  0
SCALE
  5
47
102
{ACAD_REACTORS
330
3B
102
}
330
3B
100
AcDbScale
 70
     0
300
1:100
140
1.0
141
100.0
290
     0
  0
SCALE
  5
48
102
{ACAD_REACTORS
330
3B
102
}
330
3B
100
AcDbScale
 70
     0
300
2:1
140
2.0
141
1.0
290
     0
  0
SCALE
  5
49
102
{ACAD_REACTORS
330
3B
102
}
330
3B
100
AcDbScale
 70
     0
300
4:1
140
4.0
141
1.0
290
     0
  0
SCALE
  5
4A
102
{ACAD_REACTORS
330
3B
102
}
330
3B
100
AcDbScale
 70
     0
300
8:1
140
8.0
141
1.0
290
     0
  0
SCALE
  5
4B
102
{ACAD_REACTORS
330
3B
102
}
330
3B
100
AcDbScale
 70
     0
300
10:1
140
10.0
141
1.0
290
     0
  0
SCALE
  5
4C
102
{ACAD_REACTORS
330
3B
102
}
330
3B
100
AcDbScale
 70
     0
300
100:1
140
100.0
141
1.0
290
     0
  0
SCALE
  5
4D
102
{ACAD_REACTORS
330
3B
102
}
330
3B
100
AcDbScale
 70
     0
300
1/128" = 1'-0"
140
0.0078125
141
12.0
290
     0
  0
SCALE
  5
4E
102
{ACAD_REACTORS
330
3B
102
}
330
3B
100
AcDbScale
 70
     0
300
1/64" = 1'-0"
140
0.015625
141
12.0
290
     0
  0
SCALE
  5
4F
102
{ACAD_REACTORS
330
3B
102
}
330
3B
100
AcDbScale
 70
     0
300
1/32" = 1'-0"
140
0.03125
141
12.0
290
     0
  0
SCALE
  5
50
102
{ACAD_REACTORS
330
3B
102
}
330
3B
100
AcDbScale
 70
     0
300
1/16" = 1'-0"
140
0.0625
141
12.0
290
     0
  0
SCALE
  5
51
102
{ACAD_REACTORS
330
3B
102
}
330
3B
100
AcDbScale
 70
     0
300
3/32" = 1'-0"
140
0.09375
141
12.0
290
     0
  0
SCALE
  5
52
102
{ACAD_REACTORS
330
3B
102
}
330
3B
100
AcDbScale
 70
     0
300
1/8" = 1'-0"
140
0.125
141
12.0
290
     0
  0
SCALE
  5
53
102
{ACAD_REACTORS
330
3B
102
}
330
3B
100
AcDbScale
 70
     0
300
3/16" = 1'-0"
140
0.1875
141
12.0
290
     0
  0
SCALE
  5
54
102
{ACAD_REACTORS
330
3B
102
}
330
3B
100
AcDbScale
 70
     0
300
1/4" = 1'-0"
140
0.25
141
12.0
290
     0
  0
SCALE
  5
55
102
{ACAD_REACTORS
330
3B
102
}
330
3B
100
AcDbScale
 70
     0
300
3/8" = 1'-0"
140
0.375
141
12.0
290
     0
  0
SCALE
  5
56
102
{ACAD_REACTORS
330
3B
102
}
330
3B
100
AcDbScale
 70
     0
300
1/2" = 1'-0"
140
0.5
141
12.0
290
     0
  0
SCALE
  5
57
102
{ACAD_REACTORS
330
3B
102
}
330
3B
100
AcDbScale
 70
     0
300
3/4" = 1'-0"
140
0.75
141
12.0
290
     0
  0
SCALE
  5
58
102
{ACAD_REACTORS
330
3B
102
}
330
3B
100
AcDbScale
 70
     0
300
1" = 1'-0"
140
1.0
141
12.0
290
     0
  0
SCALE
  5
59
102
{ACAD_REACTORS
330
3B
102
}
330
3B
100
AcDbScale
 70
     0
300
1-1/2" = 1'-0"
140
1.5
141
12.0
290
     0
  0
SCALE
  5
5A
102
{ACAD_REACTORS
330
3B
102
}
330
3B
100
AcDbScale
 70
     0
300
3" = 1'-0"
140
3.0
141
12.0
290
     0
  0
SCALE
  5
5B
102
{ACAD_REACTORS
330
3B
102
}
330
3B
100
AcDbScale
 70
     0
300
6" = 1'-0"
140
6.0
141
12.0
290
     0
  0
SCALE
  5
5C
102
{ACAD_REACTORS
330
3B
102
}
330
3B
100
AcDbScale
 70
     0
300
1'-0" = 1'-0"
140
12.0
141
12.0
290
     0
  0
VISUALSTYLE
  5
2F
102
{ACAD_REACTORS
330
2A
102
}
330
2A
100
AcDbVisualStyle
  2
2dWireframe
 70
     4
 71
     0
 72
     2
 73
     0
 90
        0
 40
-0.6
 41
-30.0
 62
     5
 63
     7
421
 16777215
 74
     1
 91
        4
 64
     7
 65
   257
 75
     1
175
     1
 42
1.0
 92
        0
 66
   257
 43
1.0
 76
     1
 77
     6
 78
     2
 67
     7
 79
     5
170
     0
171
     0
290
     0
174
     0
 93
        1
 44
0.0
173
     0
291
     0
 45
0.0
  0
VISUALSTYLE
  5
31
102
{ACAD_REACTORS
330
2A
102
}
330
2A
100
AcDbVisualStyle
  2
3D Hidden
 70
     6
 71
     1
 72
     2
 73
     2
 90
        0
 40
-0.6
 41
-30.0
 62
     5
 63
     7
421
 16777215
 74
     2
 91
        2
 64
     7
 65
   257
 75
     2
175
     1
 42
40.0
 92
        0
 66
   257
 43
1.0
 76
     1
 77
     6
 78
     2
 67
     7
 79
     3
170
     0
171
     0
290
     0
174
     0
 93
        1
 44
0.0
173
     0
291
     0
 45
0.0
  0
VISUALSTYLE
  5
30
102
{ACAD_REACTORS
330
2A
102
}
330
2A
100
AcDbVisualStyle
  2
3dWireframe
 70
     5
 71
     0
 72
     2
 73
     0
 90
        0
 40
-0.6
 41
-30.0
 62
     5
 63
     7
421
 16777215
 74
     1
 91
        4
 64
     7
 65
   257
 75
     1
175
     1
 42
1.0
 92
        0
 66
   257
 43
1.0
 76
     1
 77
     6
 78
     2
 67
     7
 79
     5
170
     0
171
     0
290
     0
174
     0
 93
        1
 44
0.0
173
     0
291
     0
 45
0.0
  0
VISUALSTYLE
  5
32
102
{ACAD_REACTORS
330
2A
102
}
330
2A
100
AcDbVisualStyle
  2
Basic
 70
     7
 71
     1
 72
     0
 73
     1
 90
        0
 40
-0.6
 41
-30.0
 62
     5
 63
     7
421
 16777215
 74
     0
 91
        4
 64
     7
 65
   257
 75
     1
175
     1
 42
1.0
 92
        8
 66
     7
 43
1.0
 76
     1
 77
     6
 78
     2
 67
     7
 79
     5
170
     0
171
     0
290
     0
174
     0
 93
        1
 44
0.0
173
     0
291
     1
 45
0.0
  0
VISUALSTYLE
  5
36
102
{ACAD_REACTORS
330
2A
102
}
330
2A
100
AcDbVisualStyle
  2
Brighten
 70
    12
 71
     2
 72
     2
 73
     0
 90
        0
 40
-0.6
 41
-30.0
 62
     5
 63
     7
421
 16777215
 74
     1
 91
        4
 64
     7
 65
   257
 75
     1
175
     1
 42
1.0
 92
        8
 66
     7
 43
1.0
 76
     1
 77
     6
 78
     2
 67
     7
 79
     5
170
     0
171
     0
290
     0
174
     0
 93
        1
 44
50.0
173
     0
291
     1
 45
0.0
  0
VISUALSTYLE
  5
3A
102
{ACAD_REACTORS
330
2A
102
}
330
2A
100
AcDbVisualStyle
  2
ColorChange
 70
    16
 71
     2
 72
     2
 73
     3
 90
        0
 40
-0.6
 41
-30.0
 62
     5
 63
     8
421
  8421504
 74
     1
 91
        4
 64
     7
 65
   257
 75
     1
175
     1
 42
1.0
 92
        8
 66
     8
424
  8421504
 43
1.0
 76
     1
 77
     6
 78
     2
 67
     7
 79
     5
170
     0
171
     0
290
     0
174
     0
 93
        1
 44
0.0
173
     0
291
     1
 45
0.0
  0
VISUALSTYLE
  5
34
102
{ACAD_REACTORS
330
2A
102
}
330
2A
100
AcDbVisualStyle
  2
Conceptual
 70
     9
 71
     3
 72
     2
 73
     0
 90
        0
 40
-0.6
 41
-30.0
 62
     5
 63
     7
421
 16777215
 74
     2
 91
        2
 64
     7
 65
   257
 75
     1
175
     1
 42
40.0
 92
        8
 66
     7
 43
1.0
 76
     1
 77
     6
 78
     2
 67
     7
 79
     3
170
     0
171
     0
290
     0
174
     0
 93
        1
 44
0.0
173
     0
291
     0
 45
0.0
  0
VISUALSTYLE
  5
35
102
{ACAD_REACTORS
330
2A
102
}
330
2A
100
AcDbVisualStyle
  2
Dim
 70
    11
 71
     2
 72
     2
 73
     0
 90
        0
 40
-0.6
 41
-30.0
 62
     5
 63
     7
421
 16777215
 74
     1
 91
        4
 64
     7
 65
   257
 75
     1
175
     1
 42
1.0
 92
        8
 66
     7
 43
1.0
 76
     1
 77
     6
 78
     2
 67
     7
 79
     5
170
     0
171
     0
290
     0
174
     0
 93
        1
 44
-50.0
173
     0
291
     1
 45
0.0
  0
VISUALSTYLE
  5
39
102
{ACAD_REACTORS
330
2A
102
}
330
2A
100
AcDbVisualStyle
  2
Facepattern
 70
    15
 71
     2
 72
     2
 73
     0
 90
        0
 40
-0.6
 41
-30.0
 62
     5
 63
     7
421
 16777215
 74
     1
 91
        4
 64
     7
 65
   257
 75
     1
175
     1
 42
1.0
 92
        8
 66
     7
 43
1.0
 76
     1
 77
     6
 78
     2
 67
     7
 79
     5
170
     0
171
     0
290
     0
174
     0
 93
        1
 44
0.0
173
     0
291
     1
 45
0.0
  0
VISUALSTYLE
  5
2B
102
{ACAD_REACTORS
330
2A
102
}
330
2A
100
AcDbVisualStyle
  2
Flat
 70
     0
 71
     2
 72
     1
 73
     1
 90
        2
 40
-0.6
 41
30.0
 62
     5
 63
     7
421
 16777215
 74
     0
 91
        4
 64
     7
 65
   257
 75
     1
175
     1
 42
1.0
 92
        8
 66
     7
 43
1.0
 76
     1
 77
     6
 78
     2
 67
     7
 79
     5
170
     0
171
     0
290
     0
174
     0
 93
       13
 44
0.0
173
     0
291
     1
 45
0.0
  0
VISUALSTYLE
  5
2C
102
{ACAD_REACTORS
330
2A
102
}
330
2A
100
AcDbVisualStyle
  2
FlatWithEdges
 70
     1
 71
     2
 72
     1
 73
     1
 90
        2
 40
-0.6
 41
30.0
 62
     5
 63
     7
421
 16777215
 74
     1
 91
        4
 64
     7
 65
   257
 75
     1
175
     1
 42
1.0
 92
        0
 66
   257
 43
1.0
 76
     1
 77
     6
 78
     2
 67
     7
 79
     5
170
     0
171
     0
290
     0
174
     0
 93
       13
 44
0.0
173
     0
291
     1
 45
0.0
  0
VISUALSTYLE
  5
2D
102
{ACAD_REACTORS
330
2A
102
}
330
2A
100
AcDbVisualStyle
  2
Gouraud
 70
     2
 71
     2
 72
     2
 73
     1
 90
        2
 40
-0.6
 41
30.0
 62
     5
 63
     7
421
 16777215
 74
     0
 91
        4
 64
     7
 65
   257
 75
     1
175
     1
 42
1.0
 92
        0
 66
     7
 43
1.0
 76
     1
 77
     6
 78
     2
 67
     7
 79
     5
170
     0
171
     0
290
     0
174
     0
 93
       13
 44
0.0
173
     0
291
     1
 45
0.0
  0
VISUALSTYLE
  5
2E
102
{ACAD_REACTORS
330
2A
102
}
330
2A
100
AcDbVisualStyle
  2
GouraudWithEdges
 70
     3
 71
     2
 72
     2
 73
     1
 90
        2
 40
-0.6
 41
30.0
 62
     5
 63
     7
421
 16777215
 74
     1
 91
        4
 64
     7
 65
   257
 75
     1
175
     1
 42
1.0
 92
        0
 66
   257
 43
1.0
 76
     1
 77
     6
 78
     2
 67
     7
 79
     5
170
     0
171
     0
290
     0
174
     0
 93
       13
 44
0.0
173
     0
291
     1
 45
0.0
  0
VISUALSTYLE
  5
38
102
{ACAD_REACTORS
330
2A
102
}
330
2A
100
AcDbVisualStyle
  2
Linepattern
 70
    14
 71
     2
 72
     2
 73
     0
 90
        0
 40
-0.6
 41
-30.0
 62
     5
 63
     7
421
 16777215
 74
     1
 91
        4
 64
     7
 65
   257
 75
     7
175
     7
 42
1.0
 92
        8
 66
     7
 43
1.0
 76
     1
 77
     6
 78
     2
 67
     7
 79
     5
170
     0
171
     0
290
     0
174
     0
 93
        1
 44
0.0
173
     0
291
     1
 45
0.0
  0
VISUALSTYLE
  5
33
102
{ACAD_REACTORS
330
2A
102
}
330
2A
100
AcDbVisualStyle
  2
Realistic
 70
     8
 71
     2
 72
     2
 73
     0
 90
        0
 40
-0.6
 41
-30.0
 62
     5
 63
     7
421
 16777215
 74
     1
 91
        0
 64
     7
 65
   257
 75
     1
175
     1
 42
1.0
 92
        8
 66
     8
424
  7895160
 43
1.0
 76
     1
 77
     6
 78
     2
 67
     7
 79
     5
170
     0
171
     0
290
     0
174
     0
 93
       13
 44
0.0
173
     0
291
     0
 45
0.0
  0
VISUALSTYLE
  5
37
102
{ACAD_REACTORS
330
2A
102
}
330
2A
100
AcDbVisualStyle
  2
Thicken
 70
    13
 71
     2
 72
     2
 73
     0
 90
        0
 40
-0.6
 41
-30.0
 62
     5
 63
     7
421
 16777215
 74
     1
 91
        4
 64
     7
 65
   257
 75
     1
175
     1
 42
1.0
 92
       12
 66
     7
 43
1.0
 76
     1
 77
     6
 78
     2
 67
     7
 79
     5
170
     0
171
     0
290
     0
174
     0
 93
        1
 44
0.0
173
     0
291
     1
 45
0.0
  0
ENDSEC
  0
EOF
