  0
SECTION
  2
HEADER
  9
$ACADVER
  1
AC1021
  9
$ACADMAINTVER
 70
    25
  9
$DWGCODEPAGE
  3
ANSI_1252
  9
$INSBASE
 10
0.0
 20
0.0
 30
0.0
  9
$EXTMIN
 10
-11.7
 20
-16.05
 30
0.0
  9
$EXTMAX
 10
-9.3
 20
-13.65
 30
0.0
  9
$LIMMIN
 10
0.0
 20
0.0
  9
$LIMMAX
 10
12.0
 20
9.0
  9
$ORTHOMODE
 70
     0
  9
$REGENMODE
 70
     1
  9
$FILLMODE
 70
     1
  9
$QTEXTMODE
 70
     0
  9
$MIRRTEXT
 70
     1
  9
$LTSCALE
 40
1.0
  9
$ATTMODE
 70
     1
  9
$TEXTSIZE
 40
0.2
  9
$TRACEWID
 40
0.05
  9
$TEXTSTYLE
  7
Standard
  9
$CLAYER
  8
0
  9
$CELTYPE
  6
ByLayer
  9
$CECOLOR
 62
   256
  9
$CELTSCALE
 40
1.0
  9
$DISPSILH
 70
     0
  9
$DIMSCALE
 40
1.0
  9
$DIMASZ
 40
0.18
  9
$DIMEXO
 40
0.0625
  9
$DIMDLI
 40
0.38
  9
$DIMRND
 40
0.0
  9
$DIMDLE
 40
0.0
  9
$DIMEXE
 40
0.18
  9
$DIMTP
 40
0.0
  9
$DIMTM
 40
0.0
  9
$DIMTXT
 40
0.18
  9
$DIMCEN
 40
0.09
  9
$DIMTSZ
 40
0.0
  9
$DIMTOL
 70
     0
  9
$DIMLIM
 70
     0
  9
$DIMTIH
 70
     1
  9
$DIMTOH
 70
     1
  9
$DIMSE1
 70
     0
  9
$DIMSE2
 70
     0
  9
$DIMTAD
 70
     0
  9
$DIMZIN
 70
     0
  9
$DIMBLK
  1

  9
$DIMASO
 70
     1
  9
$DIMSHO
 70
     1
  9
$DIMPOST
  1

  9
$DIMAPOST
  1

  9
$DIMALT
 70
     0
  9
$DIMALTD
 70
     2
  9
$DIMALTF
 40
25.4
  9
$DIMLFAC
 40
1.0
  9
$DIMTOFL
 70
     0
  9
$DIMTVP
 40
0.0
  9
$DIMTIX
 70
     0
  9
$DIMSOXD
 70
     0
  9
$DIMSAH
 70
     0
  9
$DIMBLK1
  1

  9
$DIMBLK2
  1

  9
$DIMSTYLE
  2
Standard
  9
$DIMCLRD
 70
     0
  9
$DIMCLRE
 70
     0
  9
$DIMCLRT
 70
     0
  9
$DIMTFAC
 40
1.0
  9
$DIMGAP
 40
0.09
  9
$DIMJUST
 70
     0
  9
$DIMSD1
 70
     0
  9
$DIMSD2
 70
     0
  9
$DIMTOLJ
 70
     1
  9
$DIMTZIN
 70
     0
  9
$DIMALTZ
 70
     0
  9
$DIMALTTZ
 70
     0
  9
$DIMUPT
 70
     0
  9
$DIMDEC
 70
     4
  9
$DIMTDEC
 70
     4
  9
$DIMALTU
 70
     2
  9
$DIMALTTD
 70
     2
  9
$DIMTXSTY
  7
Standard
  9
$DIMAUNIT
 70
     0
  9
$DIMADEC
 70
     0
  9
$DIMALTRND
 40
0.0
  9
$DIMAZIN
 70
     0
  9
$DIMDSEP
 70
    46
  9
$DIMATFIT
 70
     3
  9
$DIMFRAC
 70
     0
  9
$DIMLDRBLK
  1

  9
$DIMLUNIT
 70
     2
  9
$DIMLWD
 70
    -2
  9
$DIMLWE
 70
    -2
  9
$DIMTMOVE
 70
     0
  9
$DIMFXL
 40
1.0
  9
$DIMFXLON
 70
     0
  9
$DIMJOGANG
 40
0.7853981633974483
  9
$DIMTFILL
 70
     0
  9
$DIMTFILLCLR
 70
     0
  9
$DIMARCSYM
 70
     0
  9
$DIMLTYPE
  6

  9
$DIMLTEX1
  6

  9
$DIMLTEX2
  6

  9
$LUNITS
 70
     2
  9
$LUPREC
 70
     4
  9
$SKETCHINC
 40
0.1
  9
$FILLETRAD
 40
0.5
  9
$AUNITS
 70
     0
  9
$AUPREC
 70
     0
  9
$MENU
  1
.
  9
$ELEVATION
 40
0.0
  9
$PELEVATION
 40
0.0
  9
$THICKNESS
 40
0.0
  9
$LIMCHECK
 70
     0
  9
$CHAMFERA
 40
0.5
  9
$CHAMFERB
 40
0.5
  9
$CHAMFERC
 40
1.0
  9
$CHAMFERD
 40
0.0
  9
$SKPOLY
 70
     0
  9
$TDCREATE
 40
2458512.287047361
  9
$TDUCREATE
 40
2458512.287047361
  9
$TDUPDATE
 40
2458512.287047373
  9
$TDUUPDATE
 40
2458512.287047373
  9
$TDINDWG
 40
0.0000000116
  9
$TDUSRTIMER
 40
0.0000000116
  9
$USRTIMER
 70
     1
  9
$ANGBASE
 50
0.0
  9
$ANGDIR
 70
     0
  9
$PDMODE
 70
     0
  9
$PDSIZE
 40
0.0
  9
$PLINEWID
 40
0.0
  9
$SPLFRAME
 70
     0
  9
$SPLINETYPE
 70
     6
  9
$SPLINESEGS
 70
     8
  9
$HANDSEED
  5
A0
  9
$SURFTAB1
 70
     6
  9
$SURFTAB2
 70
     6
  9
$SURFTYPE
 70
     6
  9
$SURFU
 70
     6
  9
$SURFV
 70
     6
  9
$UCSBASE
  2

  9
$UCSNAME
  2

  9
$UCSORG
 10
0.0
 20
0.0
 30
0.0
  9
$UCSXDIR
 10
1.0
 20
0.0
 30
0.0
  9
$UCSYDIR
 10
0.0
 20
1.0
 30
0.0
  9
$UCSORTHOREF
  2

  9
$UCSORTHOVIEW
 70
     0
  9
$UCSORGTOP
 10
0.0
 20
0.0
 30
0.0
  9
$UCSORGBOTTOM
 10
0.0
 20
0.0
 30
0.0
  9
$UCSORGLEFT
 10
0.0
 20
0.0
 30
0.0
  9
$UCSORGRIGHT
 10
0.0
 20
0.0
 30
0.0
  9
$UCSORGFRONT
 10
0.0
 20
0.0
 30
0.0
  9
$UCSORGBACK
 10
0.0
 20
0.0
 30
0.0
  9
$PUCSBASE
  2

  9
$PUCSNAME
  2

  9
$PUCSORG
 10
0.0
 20
0.0
 30
0.0
  9
$PUCSXDIR
 10
1.0
 20
0.0
 30
0.0
  9
$PUCSYDIR
 10
0.0
 20
1.0
 30
0.0
  9
$PUCSORTHOREF
  2

  9
$PUCSORTHOVIEW
 70
     0
  9
$PUCSORGTOP
 10
0.0
 20
0.0
 30
0.0
  9
$PUCSORGBOTTOM
 10
0.0
 20
0.0
 30
0.0
  9
$PUCSORGLEFT
 10
0.0
 20
0.0
 30
0.0
  9
$PUCSORGRIGHT
 10
0.0
 20
0.0
 30
0.0
  9
$PUCSORGFRONT
 10
0.0
 20
0.0
 30
0.0
  9
$PUCSORGBACK
 10
0.0
 20
0.0
 30
0.0
  9
$USERI1
 70
     0
  9
$USERI2
 70
     0
  9
$USERI3
 70
     0
  9
$USERI4
 70
     0
  9
$USERI5
 70
     0
  9
$USERR1
 40
0.0
  9
$USERR2
 40
0.0
  9
$USERR3
 40
0.0
  9
$USERR4
 40
0.0
  9
$USERR5
 40
0.0
  9
$WORLDVIEW
 70
     1
  9
$SHADEDGE
 70
     3
  9
$SHADEDIF
 70
    70
  9
$TILEMODE
 70
     1
  9
$MAXACTVP
 70
    64
  9
$PINSBASE
 10
0.0
 20
0.0
 30
0.0
  9
$PLIMCHECK
 70
     0
  9
$PEXTMIN
 10
1.000000000000000E+20
 20
1.000000000000000E+20
 30
1.000000000000000E+20
  9
$PEXTMAX
 10
-1.000000000000000E+20
 20
-1.000000000000000E+20
 30
-1.000000000000000E+20
  9
$PLIMMIN
 10
0.0
 20
0.0
  9
$PLIMMAX
 10
12.0
 20
9.0
  9
$UNITMODE
 70
     0
  9
$VISRETAIN
 70
     1
  9
$PLINEGEN
 70
     0
  9
$PSLTSCALE
 70
     1
  9
$TREEDEPTH
 70
  3020
  9
$CMLSTYLE
  2
Standard
  9
$CMLJUST
 70
     0
  9
$CMLSCALE
 40
1.0
  9
$PROXYGRAPHICS
 70
     1
  9
$MEASUREMENT
 70
     0
  9
$CELWEIGHT
370
    -1
  9
$ENDCAPS
280
     0
  9
$JOINSTYLE
280
     0
  9
$LWDISPLAY
290
     0
  9
$INSUNITS
 70
     5
  9
$HYPERLINKBASE
  1

  9
$STYLESHEET
  1

  9
$XEDIT
290
     1
  9
$CEPSNTYPE
380
     0
  9
$PSTYLEMODE
290
     1
  9
$FINGERPRINTGUID
  2
{EB3BD1A8-9B2C-4747-B85E-FCBDB3137666}
  9
$VERSIONGUID
  2
{FAEB1C32-E019-11D5-929B-00C0DF256EC4}
  9
$EXTNAMES
290
     1
  9
$PSVPSCALE
 40
0.0
  9
$OLESTARTUP
290
     0
  9
$SORTENTS
280
   127
  9
$INDEXCTL
280
     0
  9
$HIDETEXT
280
     1
  9
$XCLIPFRAME
290
     0
  9
$HALOGAP
280
     0
  9
$OBSCOLOR
 70
   257
  9
$OBSLTYPE
280
     0
  9
$INTERSECTIONDISPLAY
280
     0
  9
$INTERSECTIONCOLOR
 70
   257
  9
$DIMASSOC
280
     2
  9
$PROJECTNAME
  1

  9
$CAMERADISPLAY
290
     0
  9
$LENSLENGTH
 40
50.0
  9
$CAMERAHEIGHT
 40
0.0
  9
$STEPSPERSEC
 40
2.0
  9
$STEPSIZE
 40
6.0
  9
$3DDWFPREC
 40
2.0
  9
$PSOLWIDTH
 40
0.25
  9
$PSOLHEIGHT
 40
4.0
  9
$LOFTANG1
 40
1.570796326794897
  9
$LOFTANG2
 40
1.570796326794897
  9
$LOFTMAG1
 40
0.0
  9
$LOFTMAG2
 40
0.0
  9
$LOFTPARAM
 70
     7
  9
$LOFTNORMALS
280
     1
  9
$LATITUDE
 40
37.795
  9
$LONGITUDE
 40
-122.394
  9
$NORTHDIRECTION
 40
0.0
  9
$TIMEZONE
 70
 -8000
  9
$LIGHTGLYPHDISPLAY
280
     1
  9
$TILEMODELIGHTSYNCH
280
     1
  9
$SOLIDHIST
280
     1
  9
$SHOWHIST
280
     1
  9
$DWFFRAME
280
     2
  9
$DGNFRAME
280
     2
  9
$REALWORLDSCALE
290
     1
  9
$INTERFERECOLOR
 62
   256
  9
$CSHADOW
280
     0
  9
$SHADOWPLANELOCATION
 40
0.0
  0
ENDSEC
  0
SECTION
  2
CLASSES
  0
CLASS
  1
ACDBDICTIONARYWDFLT
  2
AcDbDictionaryWithDefault
  3
ObjectDBX Classes
 90
        0
 91
        3
280
     0
281
     0
  0
CLASS
  1
VISUALSTYLE
  2
AcDbVisualStyle
  3
ObjectDBX Classes
 90
     4095
 91
        3
280
     0
281
     0
  0
CLASS
  1
SCALE
  2
AcDbScale
  3
ObjectDBX Classes
 90
     1153
 91
        3
280
     0
281
     0
  0
ENDSEC
  0
SECTION
  2
TABLES
  0
TABLE
  2
VPORT
  5
8
330
0
100
AcDbSymbolTable
 70
     1
  0
VPORT
  5
29
330
8
100
AcDbSymbolTableRecord
100
AcDbViewportTableRecord
  2
*Active
 70
     0
 10
0.0
 20
0.0
 11
1.0
 21
1.0
 12
10.42990654205607
 22
4.5
 13
0.0
 23
0.0
 14
0.5
 24
0.5
 15
0.5
 25
0.5
 16
0.0
 26
0.0
 36
1.0
 17
0.0
 27
0.0
 37
0.0
 40
9.0
 41
1.972972972850329
 42
50.0
 43
0.0
 44
0.0
 50
0.0
 51
0.0
 71
     0
 72
   100
 73
     1
 74
     3
 75
     0
 76
     0
 77
     0
 78
     0
281
     0
 65
     1
110
0.0
120
0.0
130
0.0
111
1.0
121
0.0
131
0.0
112
0.0
122
1.0
132
0.0
 79
     0
146
0.0
 60
     3
 61
     5
292
     1
282
     1
141
0.0
142
0.0
 63
   256
  0
ENDTAB
  0
TABLE
  2
LTYPE
  5
5
330
0
100
AcDbSymbolTable
 70
     1
  0
LTYPE
  5
14
330
5
100
AcDbSymbolTableRecord
100
AcDbLinetypeTableRecord
  2
ByBlock
 70
     0
  3

 72
    65
 73
     0
 40
0.0
  0
LTYPE
  5
15
330
5
100
AcDbSymbolTableRecord
100
AcDbLinetypeTableRecord
  2
ByLayer
 70
     0
  3

 72
    65
 73
     0
 40
0.0
  0
LTYPE
  5
16
330
5
100
AcDbSymbolTableRecord
100
AcDbLinetypeTableRecord
  2
Continuous
 70
     0
  3
Solid line
 72
    65
 73
     0
 40
0.0
  0
ENDTAB
  0
TABLE
  2
LAYER
  5
2
330
0
100
AcDbSymbolTable
 70
     2
  0
LAYER
  5
10
330
2
100
AcDbSymbolTableRecord
100
AcDbLayerTableRecord
  2
0
 70
     0
 62
     7
  6
Continuous
370
    -3
390
F
347
0
  0
LAYER
  5
5E
330
2
100
AcDbSymbolTableRecord
100
AcDbLayerTableRecord
  2
Layer 1
 70
     0
 62
     7
  6
Continuous
370
    -3
390
F
347
0
  0
ENDTAB
  0
TABLE
  2
STYLE
  5
3
330
0
100
AcDbSymbolTable
 70
     1
  0
STYLE
  5
11
330
3
100
AcDbSymbolTableRecord
100
AcDbTextStyleTableRecord
  2
Standard
 70
     0
 40
0.0
 41
1.0
 50
0.0
 71
     0
 42
0.2
  3
txt
  4

  0
ENDTAB
  0
TABLE
  2
VIEW
  5
6
330
0
100
AcDbSymbolTable
 70
     0
  0
ENDTAB
  0
TABLE
  2
UCS
  5
7
330
0
100
AcDbSymbolTable
 70
     0
  0
ENDTAB
  0
TABLE
  2
APPID
  5
9
330
0
100
AcDbSymbolTable
 70
     2
  0
APPID
  5
12
330
9
100
AcDbSymbolTableRecord
100
AcDbRegAppTableRecord
  2
ACAD
 70
     0
  0
APPID
  5
5D
330
9
100
AcDbSymbolTableRecord
100
AcDbRegAppTableRecord
  2
ODA
 70
     0
  0
ENDTAB
  0
TABLE
  2
DIMSTYLE
  5
A
330
0
100
AcDbSymbolTable
 70
     1
100
AcDbDimStyleTable
  0
DIMSTYLE
105
27
330
A
100
AcDbSymbolTableRecord
100
AcDbDimStyleTableRecord
  2
Standard
 70
     0
340
11
  0
ENDTAB
  0
TABLE
  2
BLOCK_RECORD
  5
1
330
0
100
AcDbSymbolTable
 70
     1
  0
BLOCK_RECORD
  5
1F
330
1
100
AcDbSymbolTableRecord
100
AcDbBlockTableRecord
  2
*Model_Space
340
22
 70
     0
280
     1
281
     0
  0
BLOCK_RECORD
  5
1B
330
1
100
AcDbSymbolTableRecord
100
AcDbBlockTableRecord
  2
*Paper_Space
340
1E
 70
     0
280
     1
281
     0
  0
BLOCK_RECORD
  5
23
330
1
100
AcDbSymbolTableRecord
100
AcDbBlockTableRecord
  2
*Paper_Space0
340
26
 70
     0
280
     1
281
     0
  0
ENDTAB
  0
ENDSEC
  0
SECTION
  2
BLOCKS
  0
BLOCK
  5
20
330
1F
100
AcDbEntity
  8
0
100
AcDbBlockBegin
  2
*Model_Space
 70
     0
 10
0.0
 20
0.0
 30
0.0
  3
*Model_Space
  1

  0
ENDBLK
  5
21
330
1F
100
AcDbEntity
  8
0
100
AcDbBlockEnd
  0
BLOCK
  5
1C
330
1B
100
AcDbEntity
 67
     1
  8
0
100
AcDbBlockBegin
  2
*Paper_Space
 70
     0
 10
0.0
 20
0.0
 30
0.0
  3
*Paper_Space
  1

  0
ENDBLK
  5
1D
330
1B
100
AcDbEntity
 67
     1
  8
0
100
AcDbBlockEnd
  0
BLOCK
  5
24
330
23
100
AcDbEntity
  8
0
100
AcDbBlockBegin
  2
*Paper_Space0
 70
     0
 10
0.0
 20
0.0
 30
0.0
  3
*Paper_Space0
  1

  0
ENDBLK
  5
25
330
23
100
AcDbEntity
  8
0
100
AcDbBlockEnd
  0
ENDSEC
  0
SECTION
  2
ENTITIES
  0
LWPOLYLINE
  5
5F
330
1F
100
AcDbEntity
  8
Layer 1
 62
     7
100
AcDbPolyline
 90
        5
 70
     1
 43
0.0
 10
-11.7
 20
-16.05
 10
-9.3
 20
-16.05
 10
-9.3
 20
-13.65
 10
-11.7
 20
-13.65
 10
-11.7
 20
-16.05
  0
LWPOLYLINE
  5
60
330
1F
100
AcDbEntity
  8
Layer 1
 62
     7
370
     9
100
AcDbPolyline
 90
        5
 70
     1
 43
0.0
 10
-10.64501
 20
-15.09355
 10
-10.35501
 20
-15.09355
 10
-10.35501
 20
-14.96355
 10
-10.64501
 20
-14.96355
 10
-10.64501
 20
-15.09355
  0
LWPOLYLINE
  5
61
330
1F
100
AcDbEntity
  8
Layer 1
 62
     7
370
     9
100
AcDbPolyline
 90
        5
 70
     1
 43
0.0
 10
-10.61501
 20
-15.14855
 10
-10.57501
 20
-15.14855
 10
-10.57501
 20
-15.09355
 10
-10.61501
 20
-15.09355
 10
-10.61501
 20
-15.14855
  0
LWPOLYLINE
  5
62
330
1F
100
AcDbEntity
  8
Layer 1
 62
     7
370
     9
100
AcDbPolyline
 90
        5
 70
     1
 43
0.0
 10
-10.42501
 20
-15.14855
 10
-10.38501
 20
-15.14855
 10
-10.38501
 20
-15.09355
 10
-10.42501
 20
-15.09355
 10
-10.42501
 20
-15.14855
  0
LWPOLYLINE
  5
63
330
1F
100
AcDbEntity
  8
Layer 1
 62
     7
370
     9
100
AcDbPolyline
 90
        5
 70
     1
 43
0.0
 10
-10.52001
 20
-14.96355
 10
-10.48001
 20
-14.96355
 10
-10.48001
 20
-14.90855
 10
-10.52001
 20
-14.90855
 10
-10.52001
 20
-14.96355
  0
SPLINE
  5
64
330
1F
100
AcDbEntity
  8
Layer 1
 62
   250
100
AcDbSpline
210
0.0
220
0.0
230
1.0
 70
    11
 71
     3
 72
    60
 73
    56
 74
     0
 42
0.0000000001
 43
0.0000000001
 40
0.0
 40
0.0
 40
0.0
 40
0.0
 40
0.0714285714285714
 40
0.0714285714285714
 40
0.0714285714285714
 40
0.0714285714285714
 40
0.1428571428571428
 40
0.1428571428571428
 40
0.1428571428571428
 40
0.1428571428571428
 40
0.2142857142857143
 40
0.2142857142857143
 40
0.2142857142857143
 40
0.2142857142857143
 40
0.2857142857142857
 40
0.2857142857142857
 40
0.2857142857142857
 40
0.2857142857142857
 40
0.3571428571428571
 40
0.3571428571428571
 40
0.3571428571428571
 40
0.3571428571428571
 40
0.4285714285714285
 40
0.4285714285714285
 40
0.4285714285714285
 40
0.4285714285714285
 40
0.4999999999999999
 40
0.4999999999999999
 40
0.4999999999999999
 40
0.4999999999999999
 40
0.5714285714285713
 40
0.5714285714285713
 40
0.5714285714285713
 40
0.5714285714285713
 40
0.6428571428571427
 40
0.6428571428571427
 40
0.6428571428571427
 40
0.6428571428571427
 40
0.7142857142857141
 40
0.7142857142857141
 40
0.7142857142857141
 40
0.7142857142857141
 40
0.7857142857142855
 40
0.7857142857142855
 40
0.7857142857142855
 40
0.7857142857142855
 40
0.8571428571428569
 40
0.8571428571428569
 40
0.8571428571428569
 40
0.8571428571428569
 40
0.9285714285714283
 40
0.9285714285714283
 40
0.9285714285714283
 40
0.9285714285714283
 40
1.0
 40
1.0
 40
1.0
 40
1.0
 10
-10.57479
 20
-15.05746
 30
0.0
 10
-10.57479
 20
-15.05746
 30
0.0
 10
-10.57479
 20
-15.04273
 30
0.0
 10
-10.57479
 20
-15.04273
 30
0.0
 10
-10.57479
 20
-15.04273
 30
0.0
 10
-10.57232
 20
-15.04526
 30
0.0
 10
-10.56969
 20
-15.04719
 30
0.0
 10
-10.56688
 20
-15.04851
 30
0.0
 10
-10.56688
 20
-15.04851
 30
0.0
 10
-10.56409
 20
-15.04983
 30
0.0
 10
-10.56127
 20
-15.05049
 30
0.0
 10
-10.55842
 20
-15.05049
 30
0.0
 10
-10.55842
 20
-15.05049
 30
0.0
 10
-10.5551
 20
-15.05049
 30
0.0
 10
-10.55266
 20
-15.04966
 30
0.0
 10
-10.5511
 20
-15.04799
 30
0.0
 10
-10.5511
 20
-15.04799
 30
0.0
 10
-10.54955
 20
-15.04633
 30
0.0
 10
-10.54878
 20
-15.04367
 30
0.0
 10
-10.54878
 20
-15.04001
 30
0.0
 10
-10.54878
 20
-15.04001
 30
0.0
 10
-10.54878
 20
-15.04001
 30
0.0
 10
-10.54878
 20
-15.00756
 30
0.0
 10
-10.54878
 20
-15.00756
 30
0.0
 10
-10.54878
 20
-15.00756
 30
0.0
 10
-10.54878
 20
-15.00756
 30
0.0
 10
-10.56433
 20
-15.00756
 30
0.0
 10
-10.56433
 20
-15.00756
 30
0.0
 10
-10.56433
 20
-15.00756
 30
0.0
 10
-10.56433
 20
-15.00756
 30
0.0
 10
-10.56433
 20
-14.99636
 30
0.0
 10
-10.56433
 20
-14.99636
 30
0.0
 10
-10.56433
 20
-14.99636
 30
0.0
 10
-10.56433
 20
-14.99636
 30
0.0
 10
-10.53608
 20
-14.99636
 30
0.0
 10
-10.53608
 20
-14.99636
 30
0.0
 10
-10.53608
 20
-14.99636
 30
0.0
 10
-10.53608
 20
-14.99636
 30
0.0
 10
-10.53608
 20
-15.04001
 30
0.0
 10
-10.53608
 20
-15.04001
 30
0.0
 10
-10.53608
 20
-15.04001
 30
0.0
 10
-10.53608
 20
-15.04786
 30
0.0
 10
-10.53772
 20
-15.05346
 30
0.0
 10
-10.541
 20
-15.05684
 30
0.0
 10
-10.541
 20
-15.05684
 30
0.0
 10
-10.54429
 20
-15.06021
 30
0.0
 10
-10.54972
 20
-15.0619
 30
0.0
 10
-10.55727
 20
-15.0619
 30
0.0
 10
-10.55727
 20
-15.0619
 30
0.0
 10
-10.55999
 20
-15.0619
 30
0.0
 10
-10.56284
 20
-15.06153
 30
0.0
 10
-10.56581
 20
-15.06078
 30
0.0
 10
-10.56581
 20
-15.06078
 30
0.0
 10
-10.56878
 20
-15.06003
 30
0.0
 10
-10.57178
 20
-15.05893
 30
0.0
 10
-10.57479
 20
-15.05746
 30
0.0
  0
SPLINE
  5
65
330
1F
100
AcDbEntity
  8
Layer 1
 62
   250
100
AcDbSpline
210
0.0
220
0.0
230
1.0
 70
    11
 71
     3
 72
   120
 73
   116
 74
     0
 42
0.0000000001
 43
0.0000000001
 40
0.0
 40
0.0
 40
0.0
 40
0.0
 40
0.0344827586206897
 40
0.0344827586206897
 40
0.0344827586206897
 40
0.0344827586206897
 40
0.0689655172413793
 40
0.0689655172413793
 40
0.0689655172413793
 40
0.0689655172413793
 40
0.103448275862069
 40
0.103448275862069
 40
0.103448275862069
 40
0.103448275862069
 40
0.1379310344827586
 40
0.1379310344827586
 40
0.1379310344827586
 40
0.1379310344827586
 40
0.1724137931034483
 40
0.1724137931034483
 40
0.1724137931034483
 40
0.1724137931034483
 40
0.206896551724138
 40
0.206896551724138
 40
0.206896551724138
 40
0.206896551724138
 40
0.2413793103448276
 40
0.2413793103448276
 40
0.2413793103448276
 40
0.2413793103448276
 40
0.2758620689655173
 40
0.2758620689655173
 40
0.2758620689655173
 40
0.2758620689655173
 40
0.310344827586207
 40
0.310344827586207
 40
0.310344827586207
 40
0.310344827586207
 40
0.3448275862068966
 40
0.3448275862068966
 40
0.3448275862068966
 40
0.3448275862068966
 40
0.3793103448275863
 40
0.3793103448275863
 40
0.3793103448275863
 40
0.3793103448275863
 40
0.413793103448276
 40
0.413793103448276
 40
0.413793103448276
 40
0.413793103448276
 40
0.4482758620689656
 40
0.4482758620689656
 40
0.4482758620689656
 40
0.4482758620689656
 40
0.4827586206896553
 40
0.4827586206896553
 40
0.4827586206896553
 40
0.4827586206896553
 40
0.517241379310345
 40
0.517241379310345
 40
0.517241379310345
 40
0.517241379310345
 40
0.5517241379310346
 40
0.5517241379310346
 40
0.5517241379310346
 40
0.5517241379310346
 40
0.5862068965517242
 40
0.5862068965517242
 40
0.5862068965517242
 40
0.5862068965517242
 40
0.6206896551724138
 40
0.6206896551724138
 40
0.6206896551724138
 40
0.6206896551724138
 40
0.6551724137931034
 40
0.6551724137931034
 40
0.6551724137931034
 40
0.6551724137931034
 40
0.689655172413793
 40
0.689655172413793
 40
0.689655172413793
 40
0.689655172413793
 40
0.7241379310344827
 40
0.7241379310344827
 40
0.7241379310344827
 40
0.7241379310344827
 40
0.7586206896551723
 40
0.7586206896551723
 40
0.7586206896551723
 40
0.7586206896551723
 40
0.7931034482758619
 40
0.7931034482758619
 40
0.7931034482758619
 40
0.7931034482758619
 40
0.8275862068965515
 40
0.8275862068965515
 40
0.8275862068965515
 40
0.8275862068965515
 40
0.8620689655172411
 40
0.8620689655172411
 40
0.8620689655172411
 40
0.8620689655172411
 40
0.8965517241379307
 40
0.8965517241379307
 40
0.8965517241379307
 40
0.8965517241379307
 40
0.9310344827586203
 40
0.9310344827586203
 40
0.9310344827586203
 40
0.9310344827586203
 40
0.9655172413793099
 40
0.9655172413793099
 40
0.9655172413793099
 40
0.9655172413793099
 40
1.0
 40
1.0
 40
1.0
 40
1.0
 10
-10.50276
 20
-15.03189
 30
0.0
 10
-10.50276
 20
-15.03189
 30
0.0
 10
-10.50956
 20
-15.03189
 30
0.0
 10
-10.50956
 20
-15.03189
 30
0.0
 10
-10.50956
 20
-15.03189
 30
0.0
 10
-10.50956
 20
-15.03189
 30
0.0
 10
-10.50956
 20
-15.02069
 30
0.0
 10
-10.50956
 20
-15.02069
 30
0.0
 10
-10.50956
 20
-15.02069
 30
0.0
 10
-10.50956
 20
-15.02069
 30
0.0
 10
-10.50276
 20
-15.02069
 30
0.0
 10
-10.50276
 20
-15.02069
 30
0.0
 10
-10.50276
 20
-15.02069
 30
0.0
 10
-10.49961
 20
-15.02069
 30
0.0
 10
-10.49716
 20
-15.02007
 30
0.0
 10
-10.49542
 20
-15.01882
 30
0.0
 10
-10.49542
 20
-15.01882
 30
0.0
 10
-10.49369
 20
-15.01757
 30
0.0
 10
-10.49282
 20
-15.01581
 30
0.0
 10
-10.49282
 20
-15.01354
 30
0.0
 10
-10.49282
 20
-15.01354
 30
0.0
 10
-10.49282
 20
-15.01116
 30
0.0
 10
-10.49369
 20
-15.00929
 30
0.0
 10
-10.49542
 20
-15.00796
 30
0.0
 10
-10.49542
 20
-15.00796
 30
0.0
 10
-10.49716
 20
-15.00662
 30
0.0
 10
-10.49961
 20
-15.00596
 30
0.0
 10
-10.50276
 20
-15.00596
 30
0.0
 10
-10.50276
 20
-15.00596
 30
0.0
 10
-10.50517
 20
-15.00596
 30
0.0
 10
-10.50775
 20
-15.00627
 30
0.0
 10
-10.5105
 20
-15.00687
 30
0.0
 10
-10.5105
 20
-15.00687
 30
0.0
 10
-10.51326
 20
-15.00747
 30
0.0
 10
-10.51612
 20
-15.00835
 30
0.0
 10
-10.51907
 20
-15.0095
 30
0.0
 10
-10.51907
 20
-15.0095
 30
0.0
 10
-10.51907
 20
-15.0095
 30
0.0
 10
-10.51907
 20
-14.99796
 30
0.0
 10
-10.51907
 20
-14.99796
 30
0.0
 10
-10.51907
 20
-14.99796
 30
0.0
 10
-10.51612
 20
-14.99707
 30
0.0
 10
-10.51321
 20
-14.99639
 30
0.0
 10
-10.51034
 20
-14.9959
 30
0.0
 10
-10.51034
 20
-14.9959
 30
0.0
 10
-10.50746
 20
-14.99543
 30
0.0
 10
-10.50471
 20
-14.9952
 30
0.0
 10
-10.50206
 20
-14.9952
 30
0.0
 10
-10.50206
 20
-14.9952
 30
0.0
 10
-10.49529
 20
-14.9952
 30
0.0
 10
-10.49001
 20
-14.99668
 30
0.0
 10
-10.48623
 20
-14.99964
 30
0.0
 10
-10.48623
 20
-14.99964
 30
0.0
 10
-10.48244
 20
-15.00259
 30
0.0
 10
-10.48055
 20
-15.00666
 30
0.0
 10
-10.48055
 20
-15.01187
 30
0.0
 10
-10.48055
 20
-15.01187
 30
0.0
 10
-10.48055
 20
-15.01567
 30
0.0
 10
-10.48163
 20
-15.0188
 30
0.0
 10
-10.48382
 20
-15.02123
 30
0.0
 10
-10.48382
 20
-15.02123
 30
0.0
 10
-10.486
 20
-15.02365
 30
0.0
 10
-10.48912
 20
-15.02524
 30
0.0
 10
-10.49316
 20
-15.02598
 30
0.0
 10
-10.49316
 20
-15.02598
 30
0.0
 10
-10.48857
 20
-15.02679
 30
0.0
 10
-10.48506
 20
-15.02862
 30
0.0
 10
-10.48265
 20
-15.03147
 30
0.0
 10
-10.48265
 20
-15.03147
 30
0.0
 10
-10.48024
 20
-15.03433
 30
0.0
 10
-10.47903
 20
-15.03809
 30
0.0
 10
-10.47903
 20
-15.04273
 30
0.0
 10
-10.47903
 20
-15.04273
 30
0.0
 10
-10.47903
 20
-15.04896
 30
0.0
 10
-10.48103
 20
-15.05371
 30
0.0
 10
-10.48501
 20
-15.05699
 30
0.0
 10
-10.48501
 20
-15.05699
 30
0.0
 10
-10.48901
 20
-15.06027
 30
0.0
 10
-10.4948
 20
-15.0619
 30
0.0
 10
-10.50242
 20
-15.0619
 30
0.0
 10
-10.50242
 20
-15.0619
 30
0.0
 10
-10.50565
 20
-15.0619
 30
0.0
 10
-10.50884
 20
-15.06162
 30
0.0
 10
-10.51199
 20
-15.06108
 30
0.0
 10
-10.51199
 20
-15.06108
 30
0.0
 10
-10.51513
 20
-15.06053
 30
0.0
 10
-10.51814
 20
-15.05974
 30
0.0
 10
-10.52101
 20
-15.05871
 30
0.0
 10
-10.52101
 20
-15.05871
 30
0.0
 10
-10.52101
 20
-15.05871
 30
0.0
 10
-10.52101
 20
-15.04691
 30
0.0
 10
-10.52101
 20
-15.04691
 30
0.0
 10
-10.52101
 20
-15.04691
 30
0.0
 10
-10.51831
 20
-15.04826
 30
0.0
 10
-10.5154
 20
-15.04929
 30
0.0
 10
-10.51226
 20
-15.04999
 30
0.0
 10
-10.51226
 20
-15.04999
 30
0.0
 10
-10.50915
 20
-15.0507
 30
0.0
 10
-10.50586
 20
-15.05105
 30
0.0
 10
-10.50242
 20
-15.05105
 30
0.0
 10
-10.50242
 20
-15.05105
 30
0.0
 10
-10.49896
 20
-15.05105
 30
0.0
 10
-10.49624
 20
-15.05026
 30
0.0
 10
-10.49423
 20
-15.04866
 30
0.0
 10
-10.49423
 20
-15.04866
 30
0.0
 10
-10.49222
 20
-15.04707
 30
0.0
 10
-10.49122
 20
-15.04492
 30
0.0
 10
-10.49122
 20
-15.04222
 30
0.0
 10
-10.49122
 20
-15.04222
 30
0.0
 10
-10.49122
 20
-15.03893
 30
0.0
 10
-10.49222
 20
-15.03637
 30
0.0
 10
-10.49423
 20
-15.03458
 30
0.0
 10
-10.49423
 20
-15.03458
 30
0.0
 10
-10.49624
 20
-15.03278
 30
0.0
 10
-10.49908
 20
-15.03189
 30
0.0
 10
-10.50276
 20
-15.03189
 30
0.0
  0
SPLINE
  5
66
330
1F
100
AcDbEntity
  8
Layer 1
 62
   250
100
AcDbSpline
210
0.0
220
0.0
230
1.0
 70
    11
 71
     3
 72
    40
 73
    36
 74
     0
 42
0.0000000001
 43
0.0000000001
 40
0.0
 40
0.0
 40
0.0
 40
0.0
 40
0.1111111111111111
 40
0.1111111111111111
 40
0.1111111111111111
 40
0.1111111111111111
 40
0.2222222222222222
 40
0.2222222222222222
 40
0.2222222222222222
 40
0.2222222222222222
 40
0.3333333333333333
 40
0.3333333333333333
 40
0.3333333333333333
 40
0.3333333333333333
 40
0.4444444444444444
 40
0.4444444444444444
 40
0.4444444444444444
 40
0.4444444444444444
 40
0.5555555555555556
 40
0.5555555555555556
 40
0.5555555555555556
 40
0.5555555555555556
 40
0.6666666666666667
 40
0.6666666666666667
 40
0.6666666666666667
 40
0.6666666666666667
 40
0.7777777777777779
 40
0.7777777777777779
 40
0.7777777777777779
 40
0.7777777777777779
 40
0.8888888888888891
 40
0.8888888888888891
 40
0.8888888888888891
 40
0.8888888888888891
 40
1.0
 40
1.0
 40
1.0
 40
1.0
 10
-10.47296
 20
-14.99636
 30
0.0
 10
-10.47296
 20
-14.99636
 30
0.0
 10
-10.45926
 20
-14.99636
 30
0.0
 10
-10.45926
 20
-14.99636
 30
0.0
 10
-10.45926
 20
-14.99636
 30
0.0
 10
-10.45926
 20
-14.99636
 30
0.0
 10
-10.44677
 20
-15.0222
 30
0.0
 10
-10.44677
 20
-15.0222
 30
0.0
 10
-10.44677
 20
-15.0222
 30
0.0
 10
-10.44677
 20
-15.0222
 30
0.0
 10
-10.43425
 20
-14.99636
 30
0.0
 10
-10.43425
 20
-14.99636
 30
0.0
 10
-10.43425
 20
-14.99636
 30
0.0
 10
-10.43425
 20
-14.99636
 30
0.0
 10
-10.42055
 20
-14.99636
 30
0.0
 10
-10.42055
 20
-14.99636
 30
0.0
 10
-10.42055
 20
-14.99636
 30
0.0
 10
-10.42055
 20
-14.99636
 30
0.0
 10
-10.44041
 20
-15.03532
 30
0.0
 10
-10.44041
 20
-15.03532
 30
0.0
 10
-10.44041
 20
-15.03532
 30
0.0
 10
-10.44041
 20
-15.03532
 30
0.0
 10
-10.44041
 20
-15.06065
 30
0.0
 10
-10.44041
 20
-15.06065
 30
0.0
 10
-10.44041
 20
-15.06065
 30
0.0
 10
-10.44041
 20
-15.06065
 30
0.0
 10
-10.4531
 20
-15.06065
 30
0.0
 10
-10.4531
 20
-15.06065
 30
0.0
 10
-10.4531
 20
-15.06065
 30
0.0
 10
-10.4531
 20
-15.06065
 30
0.0
 10
-10.4531
 20
-15.03532
 30
0.0
 10
-10.4531
 20
-15.03532
 30
0.0
 10
-10.4531
 20
-15.03532
 30
0.0
 10
-10.4531
 20
-15.03532
 30
0.0
 10
-10.47296
 20
-14.99636
 30
0.0
 10
-10.47296
 20
-14.99636
 30
0.0
  0
SPLINE
  5
67
330
1F
100
AcDbEntity
  8
Layer 1
 62
   250
100
AcDbSpline
210
0.0
220
0.0
230
1.0
 70
    11
 71
     3
 72
   116
 73
   112
 74
     0
 42
0.0000000001
 43
0.0000000001
 40
0.0
 40
0.0
 40
0.0
 40
0.0
 40
0.0357142857142857
 40
0.0357142857142857
 40
0.0357142857142857
 40
0.0357142857142857
 40
0.0714285714285714
 40
0.0714285714285714
 40
0.0714285714285714
 40
0.0714285714285714
 40
0.1071428571428571
 40
0.1071428571428571
 40
0.1071428571428571
 40
0.1071428571428571
 40
0.1428571428571428
 40
0.1428571428571428
 40
0.1428571428571428
 40
0.1428571428571428
 40
0.1785714285714285
 40
0.1785714285714285
 40
0.1785714285714285
 40
0.1785714285714285
 40
0.2142857142857142
 40
0.2142857142857142
 40
0.2142857142857142
 40
0.2142857142857142
 40
0.2499999999999999
 40
0.2499999999999999
 40
0.2499999999999999
 40
0.2499999999999999
 40
0.2857142857142856
 40
0.2857142857142856
 40
0.2857142857142856
 40
0.2857142857142856
 40
0.3214285714285713
 40
0.3214285714285713
 40
0.3214285714285713
 40
0.3214285714285713
 40
0.357142857142857
 40
0.357142857142857
 40
0.357142857142857
 40
0.357142857142857
 40
0.3928571428571427
 40
0.3928571428571427
 40
0.3928571428571427
 40
0.3928571428571427
 40
0.4285714285714284
 40
0.4285714285714284
 40
0.4285714285714284
 40
0.4285714285714284
 40
0.4642857142857141
 40
0.4642857142857141
 40
0.4642857142857141
 40
0.4642857142857141
 40
0.4999999999999998
 40
0.4999999999999998
 40
0.4999999999999998
 40
0.4999999999999998
 40
0.5357142857142856
 40
0.5357142857142856
 40
0.5357142857142856
 40
0.5357142857142856
 40
0.5714285714285713
 40
0.5714285714285713
 40
0.5714285714285713
 40
0.5714285714285713
 40
0.607142857142857
 40
0.607142857142857
 40
0.607142857142857
 40
0.607142857142857
 40
0.6428571428571427
 40
0.6428571428571427
 40
0.6428571428571427
 40
0.6428571428571427
 40
0.6785714285714284
 40
0.6785714285714284
 40
0.6785714285714284
 40
0.6785714285714284
 40
0.7142857142857141
 40
0.7142857142857141
 40
0.7142857142857141
 40
0.7142857142857141
 40
0.7499999999999998
 40
0.7499999999999998
 40
0.7499999999999998
 40
0.7499999999999998
 40
0.7857142857142855
 40
0.7857142857142855
 40
0.7857142857142855
 40
0.7857142857142855
 40
0.8214285714285712
 40
0.8214285714285712
 40
0.8214285714285712
 40
0.8214285714285712
 40
0.8571428571428569
 40
0.8571428571428569
 40
0.8571428571428569
 40
0.8571428571428569
 40
0.8928571428571426
 40
0.8928571428571426
 40
0.8928571428571426
 40
0.8928571428571426
 40
0.9285714285714283
 40
0.9285714285714283
 40
0.9285714285714283
 40
0.9285714285714283
 40
0.964285714285714
 40
0.964285714285714
 40
0.964285714285714
 40
0.964285714285714
 40
1.0
 40
1.0
 40
1.0
 40
1.0
 10
-11.29173
 20
-14.4814
 30
0.0
 10
-11.29173
 20
-14.4814
 30
0.0
 10
-11.29173
 20
-14.50315
 30
0.0
 10
-11.29173
 20
-14.50315
 30
0.0
 10
-11.29173
 20
-14.50315
 30
0.0
 10
-11.29738
 20
-14.50063
 30
0.0
 10
-11.3029
 20
-14.49873
 30
0.0
 10
-11.30826
 20
-14.49744
 30
0.0
 10
-11.30826
 20
-14.49744
 30
0.0
 10
-11.31365
 20
-14.49614
 30
0.0
 10
-11.31873
 20
-14.49551
 30
0.0
 10
-11.3235
 20
-14.49551
 30
0.0
 10
-11.3235
 20
-14.49551
 30
0.0
 10
-11.32983
 20
-14.49551
 30
0.0
 10
-11.33453
 20
-14.49638
 30
0.0
 10
-11.33757
 20
-14.49812
 30
0.0
 10
-11.33757
 20
-14.49812
 30
0.0
 10
-11.3406
 20
-14.49988
 30
0.0
 10
-11.34211
 20
-14.50259
 30
0.0
 10
-11.34211
 20
-14.50626
 30
0.0
 10
-11.34211
 20
-14.50626
 30
0.0
 10
-11.34211
 20
-14.50901
 30
0.0
 10
-11.3411
 20
-14.51117
 30
0.0
 10
-11.33905
 20
-14.5127
 30
0.0
 10
-11.33905
 20
-14.5127
 30
0.0
 10
-11.337
 20
-14.51423
 30
0.0
 10
-11.33329
 20
-14.51557
 30
0.0
 10
-11.3279
 20
-14.51667
 30
0.0
 10
-11.3279
 20
-14.51667
 30
0.0
 10
-11.3279
 20
-14.51667
 30
0.0
 10
-11.31661
 20
-14.51893
 30
0.0
 10
-11.31661
 20
-14.51893
 30
0.0
 10
-11.31661
 20
-14.51893
 30
0.0
 10
-11.30516
 20
-14.52124
 30
0.0
 10
-11.29705
 20
-14.52472
 30
0.0
 10
-11.29223
 20
-14.52942
 30
0.0
 10
-11.29223
 20
-14.52942
 30
0.0
 10
-11.2874
 20
-14.5341
 30
0.0
 10
-11.28498
 20
-14.54076
 30
0.0
 10
-11.28498
 20
-14.54939
 30
0.0
 10
-11.28498
 20
-14.54939
 30
0.0
 10
-11.28498
 20
-14.56075
 30
0.0
 10
-11.28834
 20
-14.56919
 30
0.0
 10
-11.29507
 20
-14.57472
 30
0.0
 10
-11.29507
 20
-14.57472
 30
0.0
 10
-11.3018
 20
-14.58024
 30
0.0
 10
-11.31207
 20
-14.58302
 30
0.0
 10
-11.3259
 20
-14.58302
 30
0.0
 10
-11.3259
 20
-14.58302
 30
0.0
 10
-11.33244
 20
-14.58302
 30
0.0
 10
-11.33898
 20
-14.58241
 30
0.0
 10
-11.34554
 20
-14.58116
 30
0.0
 10
-11.34554
 20
-14.58116
 30
0.0
 10
-11.3521
 20
-14.57991
 30
0.0
 10
-11.35869
 20
-14.57808
 30
0.0
 10
-11.36525
 20
-14.57566
 30
0.0
 10
-11.36525
 20
-14.57566
 30
0.0
 10
-11.36525
 20
-14.57566
 30
0.0
 10
-11.36525
 20
-14.55327
 30
0.0
 10
-11.36525
 20
-14.55327
 30
0.0
 10
-11.36525
 20
-14.55327
 30
0.0
 10
-11.35869
 20
-14.55675
 30
0.0
 10
-11.35234
 20
-14.55938
 30
0.0
 10
-11.3462
 20
-14.56115
 30
0.0
 10
-11.3462
 20
-14.56115
 30
0.0
 10
-11.34006
 20
-14.56291
 30
0.0
 10
-11.33416
 20
-14.5638
 30
0.0
 10
-11.32847
 20
-14.5638
 30
0.0
 10
-11.32847
 20
-14.5638
 30
0.0
 10
-11.32268
 20
-14.5638
 30
0.0
 10
-11.31824
 20
-14.56284
 30
0.0
 10
-11.31516
 20
-14.56091
 30
0.0
 10
-11.31516
 20
-14.56091
 30
0.0
 10
-11.31207
 20
-14.55898
 30
0.0
 10
-11.31055
 20
-14.55623
 30
0.0
 10
-11.31055
 20
-14.55263
 30
0.0
 10
-11.31055
 20
-14.55263
 30
0.0
 10
-11.31055
 20
-14.54943
 30
0.0
 10
-11.31158
 20
-14.54694
 30
0.0
 10
-11.31367
 20
-14.5452
 30
0.0
 10
-11.31367
 20
-14.5452
 30
0.0
 10
-11.31577
 20
-14.54346
 30
0.0
 10
-11.31993
 20
-14.54189
 30
0.0
 10
-11.32619
 20
-14.54052
 30
0.0
 10
-11.32619
 20
-14.54052
 30
0.0
 10
-11.32619
 20
-14.54052
 30
0.0
 10
-11.33646
 20
-14.53824
 30
0.0
 10
-11.33646
 20
-14.53824
 30
0.0
 10
-11.33646
 20
-14.53824
 30
0.0
 10
-11.34674
 20
-14.53603
 30
0.0
 10
-11.35427
 20
-14.53253
 30
0.0
 10
-11.35902
 20
-14.5277
 30
0.0
 10
-11.35902
 20
-14.5277
 30
0.0
 10
-11.36377
 20
-14.52288
 30
0.0
 10
-11.36614
 20
-14.51637
 30
0.0
 10
-11.36614
 20
-14.50821
 30
0.0
 10
-11.36614
 20
-14.50821
 30
0.0
 10
-11.36614
 20
-14.49795
 30
0.0
 10
-11.36283
 20
-14.49007
 30
0.0
 10
-11.35622
 20
-14.48457
 30
0.0
 10
-11.35622
 20
-14.48457
 30
0.0
 10
-11.34961
 20
-14.47904
 30
0.0
 10
-11.34011
 20
-14.47629
 30
0.0
 10
-11.32769
 20
-14.47629
 30
0.0
 10
-11.32769
 20
-14.47629
 30
0.0
 10
-11.32205
 20
-14.47629
 30
0.0
 10
-11.31624
 20
-14.47672
 30
0.0
 10
-11.31026
 20
-14.47756
 30
0.0
 10
-11.31026
 20
-14.47756
 30
0.0
 10
-11.30429
 20
-14.47841
 30
0.0
 10
-11.29811
 20
-14.47968
 30
0.0
 10
-11.29173
 20
-14.4814
 30
0.0
  0
SPLINE
  5
68
330
1F
100
AcDbEntity
  8
Layer 1
 62
   250
100
AcDbSpline
210
0.0
220
0.0
230
1.0
 70
    11
 71
     3
 72
    56
 73
    52
 74
     0
 42
0.0000000001
 43
0.0000000001
 40
0.0
 40
0.0
 40
0.0
 40
0.0
 40
0.0769230769230769
 40
0.0769230769230769
 40
0.0769230769230769
 40
0.0769230769230769
 40
0.1538461538461539
 40
0.1538461538461539
 40
0.1538461538461539
 40
0.1538461538461539
 40
0.2307692307692308
 40
0.2307692307692308
 40
0.2307692307692308
 40
0.2307692307692308
 40
0.3076923076923077
 40
0.3076923076923077
 40
0.3076923076923077
 40
0.3076923076923077
 40
0.3846153846153846
 40
0.3846153846153846
 40
0.3846153846153846
 40
0.3846153846153846
 40
0.4615384615384616
 40
0.4615384615384616
 40
0.4615384615384616
 40
0.4615384615384616
 40
0.5384615384615385
 40
0.5384615384615385
 40
0.5384615384615385
 40
0.5384615384615385
 40
0.6153846153846154
 40
0.6153846153846154
 40
0.6153846153846154
 40
0.6153846153846154
 40
0.6923076923076923
 40
0.6923076923076923
 40
0.6923076923076923
 40
0.6923076923076923
 40
0.7692307692307692
 40
0.7692307692307692
 40
0.7692307692307692
 40
0.7692307692307692
 40
0.846153846153846
 40
0.846153846153846
 40
0.846153846153846
 40
0.846153846153846
 40
0.9230769230769229
 40
0.9230769230769229
 40
0.9230769230769229
 40
0.9230769230769229
 40
1.0
 40
1.0
 40
1.0
 40
1.0
 10
-11.2617
 20
-14.47815
 30
0.0
 10
-11.2617
 20
-14.47815
 30
0.0
 10
-11.22795
 20
-14.47815
 30
0.0
 10
-11.22795
 20
-14.47815
 30
0.0
 10
-11.22795
 20
-14.47815
 30
0.0
 10
-11.22795
 20
-14.47815
 30
0.0
 10
-11.2045
 20
-14.53321
 30
0.0
 10
-11.2045
 20
-14.53321
 30
0.0
 10
-11.2045
 20
-14.53321
 30
0.0
 10
-11.2045
 20
-14.53321
 30
0.0
 10
-11.18094
 20
-14.47815
 30
0.0
 10
-11.18094
 20
-14.47815
 30
0.0
 10
-11.18094
 20
-14.47815
 30
0.0
 10
-11.18094
 20
-14.47815
 30
0.0
 10
-11.14726
 20
-14.47815
 30
0.0
 10
-11.14726
 20
-14.47815
 30
0.0
 10
-11.14726
 20
-14.47815
 30
0.0
 10
-11.14726
 20
-14.47815
 30
0.0
 10
-11.14726
 20
-14.58102
 30
0.0
 10
-11.14726
 20
-14.58102
 30
0.0
 10
-11.14726
 20
-14.58102
 30
0.0
 10
-11.14726
 20
-14.58102
 30
0.0
 10
-11.17233
 20
-14.58102
 30
0.0
 10
-11.17233
 20
-14.58102
 30
0.0
 10
-11.17233
 20
-14.58102
 30
0.0
 10
-11.17233
 20
-14.58102
 30
0.0
 10
-11.17233
 20
-14.50578
 30
0.0
 10
-11.17233
 20
-14.50578
 30
0.0
 10
-11.17233
 20
-14.50578
 30
0.0
 10
-11.17233
 20
-14.50578
 30
0.0
 10
-11.19604
 20
-14.56124
 30
0.0
 10
-11.19604
 20
-14.56124
 30
0.0
 10
-11.19604
 20
-14.56124
 30
0.0
 10
-11.19604
 20
-14.56124
 30
0.0
 10
-11.21285
 20
-14.56124
 30
0.0
 10
-11.21285
 20
-14.56124
 30
0.0
 10
-11.21285
 20
-14.56124
 30
0.0
 10
-11.21285
 20
-14.56124
 30
0.0
 10
-11.23656
 20
-14.50578
 30
0.0
 10
-11.23656
 20
-14.50578
 30
0.0
 10
-11.23656
 20
-14.50578
 30
0.0
 10
-11.23656
 20
-14.50578
 30
0.0
 10
-11.23656
 20
-14.58102
 30
0.0
 10
-11.23656
 20
-14.58102
 30
0.0
 10
-11.23656
 20
-14.58102
 30
0.0
 10
-11.23656
 20
-14.58102
 30
0.0
 10
-11.2617
 20
-14.58102
 30
0.0
 10
-11.2617
 20
-14.58102
 30
0.0
 10
-11.2617
 20
-14.58102
 30
0.0
 10
-11.2617
 20
-14.58102
 30
0.0
 10
-11.2617
 20
-14.47815
 30
0.0
 10
-11.2617
 20
-14.47815
 30
0.0
  0
SPLINE
  5
69
330
1F
100
AcDbEntity
  8
Layer 1
 62
   250
100
AcDbSpline
210
0.0
220
0.0
230
1.0
 70
    11
 71
     3
 72
    32
 73
    28
 74
     0
 42
0.0000000001
 43
0.0000000001
 40
0.0
 40
0.0
 40
0.0
 40
0.0
 40
0.1428571428571428
 40
0.1428571428571428
 40
0.1428571428571428
 40
0.1428571428571428
 40
0.2857142857142857
 40
0.2857142857142857
 40
0.2857142857142857
 40
0.2857142857142857
 40
0.4285714285714285
 40
0.4285714285714285
 40
0.4285714285714285
 40
0.4285714285714285
 40
0.5714285714285714
 40
0.5714285714285714
 40
0.5714285714285714
 40
0.5714285714285714
 40
0.7142857142857142
 40
0.7142857142857142
 40
0.7142857142857142
 40
0.7142857142857142
 40
0.857142857142857
 40
0.857142857142857
 40
0.857142857142857
 40
0.857142857142857
 40
1.0
 40
1.0
 40
1.0
 40
1.0
 10
-11.09474
 20
-14.49821
 30
0.0
 10
-11.09474
 20
-14.49821
 30
0.0
 10
-11.09474
 20
-14.56096
 30
0.0
 10
-11.09474
 20
-14.56096
 30
0.0
 10
-11.09474
 20
-14.56096
 30
0.0
 10
-11.09474
 20
-14.56096
 30
0.0
 10
-11.08524
 20
-14.56096
 30
0.0
 10
-11.08524
 20
-14.56096
 30
0.0
 10
-11.08524
 20
-14.56096
 30
0.0
 10
-11.0744
 20
-14.56096
 30
0.0
 10
-11.06612
 20
-14.55828
 30
0.0
 10
-11.06041
 20
-14.55289
 30
0.0
 10
-11.06041
 20
-14.55289
 30
0.0
 10
-11.05469
 20
-14.54753
 30
0.0
 10
-11.05182
 20
-14.53972
 30
0.0
 10
-11.05182
 20
-14.52949
 30
0.0
 10
-11.05182
 20
-14.52949
 30
0.0
 10
-11.05182
 20
-14.51928
 30
0.0
 10
-11.05467
 20
-14.51152
 30
0.0
 10
-11.06036
 20
-14.50621
 30
0.0
 10
-11.06036
 20
-14.50621
 30
0.0
 10
-11.06605
 20
-14.50087
 30
0.0
 10
-11.07435
 20
-14.49821
 30
0.0
 10
-11.08524
 20
-14.49821
 30
0.0
 10
-11.08524
 20
-14.49821
 30
0.0
 10
-11.08524
 20
-14.49821
 30
0.0
 10
-11.09474
 20
-14.49821
 30
0.0
 10
-11.09474
 20
-14.49821
 30
0.0
  0
SPLINE
  5
6A
330
1F
100
AcDbEntity
  8
Layer 1
 62
   250
100
AcDbSpline
210
0.0
220
0.0
230
1.0
 70
    11
 71
     3
 72
    48
 73
    44
 74
     0
 42
0.0000000001
 43
0.0000000001
 40
0.0
 40
0.0
 40
0.0
 40
0.0
 40
0.0909090909090909
 40
0.0909090909090909
 40
0.0909090909090909
 40
0.0909090909090909
 40
0.1818181818181818
 40
0.1818181818181818
 40
0.1818181818181818
 40
0.1818181818181818
 40
0.2727272727272727
 40
0.2727272727272727
 40
0.2727272727272727
 40
0.2727272727272727
 40
0.3636363636363636
 40
0.3636363636363636
 40
0.3636363636363636
 40
0.3636363636363636
 40
0.4545454545454546
 40
0.4545454545454546
 40
0.4545454545454546
 40
0.4545454545454546
 40
0.5454545454545455
 40
0.5454545454545455
 40
0.5454545454545455
 40
0.5454545454545455
 40
0.6363636363636365
 40
0.6363636363636365
 40
0.6363636363636365
 40
0.6363636363636365
 40
0.7272727272727274
 40
0.7272727272727274
 40
0.7272727272727274
 40
0.7272727272727274
 40
0.8181818181818183
 40
0.8181818181818183
 40
0.8181818181818183
 40
0.8181818181818183
 40
0.9090909090909093
 40
0.9090909090909093
 40
0.9090909090909093
 40
0.9090909090909093
 40
1.0
 40
1.0
 40
1.0
 40
1.0
 10
-11.12127
 20
-14.47815
 30
0.0
 10
-11.12127
 20
-14.47815
 30
0.0
 10
-11.09328
 20
-14.47815
 30
0.0
 10
-11.09328
 20
-14.47815
 30
0.0
 10
-11.09328
 20
-14.47815
 30
0.0
 10
-11.07767
 20
-14.47815
 30
0.0
 10
-11.06605
 20
-14.47926
 30
0.0
 10
-11.05841
 20
-14.48149
 30
0.0
 10
-11.05841
 20
-14.48149
 30
0.0
 10
-11.05076
 20
-14.48372
 30
0.0
 10
-11.0442
 20
-14.48749
 30
0.0
 10
-11.03872
 20
-14.49283
 30
0.0
 10
-11.03872
 20
-14.49283
 30
0.0
 10
-11.0339
 20
-14.49746
 30
0.0
 10
-11.03033
 20
-14.50282
 30
0.0
 10
-11.02797
 20
-14.50889
 30
0.0
 10
-11.02797
 20
-14.50889
 30
0.0
 10
-11.02565
 20
-14.51493
 30
0.0
 10
-11.02447
 20
-14.5218
 30
0.0
 10
-11.02447
 20
-14.52949
 30
0.0
 10
-11.02447
 20
-14.52949
 30
0.0
 10
-11.02447
 20
-14.53725
 30
0.0
 10
-11.02565
 20
-14.54417
 30
0.0
 10
-11.02797
 20
-14.55026
 30
0.0
 10
-11.02797
 20
-14.55026
 30
0.0
 10
-11.03033
 20
-14.55635
 30
0.0
 10
-11.0339
 20
-14.56171
 30
0.0
 10
-11.03872
 20
-14.56634
 30
0.0
 10
-11.03872
 20
-14.56634
 30
0.0
 10
-11.04425
 20
-14.57168
 30
0.0
 10
-11.05086
 20
-14.57545
 30
0.0
 10
-11.05857
 20
-14.57768
 30
0.0
 10
-11.05857
 20
-14.57768
 30
0.0
 10
-11.06629
 20
-14.57991
 30
0.0
 10
-11.07786
 20
-14.58102
 30
0.0
 10
-11.09328
 20
-14.58102
 30
0.0
 10
-11.09328
 20
-14.58102
 30
0.0
 10
-11.09328
 20
-14.58102
 30
0.0
 10
-11.12127
 20
-14.58102
 30
0.0
 10
-11.12127
 20
-14.58102
 30
0.0
 10
-11.12127
 20
-14.58102
 30
0.0
 10
-11.12127
 20
-14.58102
 30
0.0
 10
-11.12127
 20
-14.47815
 30
0.0
 10
-11.12127
 20
-14.47815
 30
0.0
  0
SPLINE
  5
6B
330
1F
100
AcDbEntity
  8
Layer 1
 62
   250
100
AcDbSpline
210
0.0
220
0.0
230
1.0
 70
    11
 71
     3
 72
    44
 73
    40
 74
     0
 42
0.0000000001
 43
0.0000000001
 40
0.0
 40
0.0
 40
0.0
 40
0.0
 40
0.1
 40
0.1
 40
0.1
 40
0.1
 40
0.2
 40
0.2
 40
0.2
 40
0.2
 40
0.3
 40
0.3
 40
0.3
 40
0.3
 40
0.4
 40
0.4
 40
0.4
 40
0.4
 40
0.5
 40
0.5
 40
0.5
 40
0.5
 40
0.6
 40
0.6
 40
0.6
 40
0.6
 40
0.7
 40
0.7
 40
0.7
 40
0.7
 40
0.7999999999999999
 40
0.7999999999999999
 40
0.7999999999999999
 40
0.7999999999999999
 40
0.8999999999999999
 40
0.8999999999999999
 40
0.8999999999999999
 40
0.8999999999999999
 40
1.0
 40
1.0
 40
1.0
 40
1.0
 10
-10.91478
 20
-14.59962
 30
0.0
 10
-10.91478
 20
-14.59962
 30
0.0
 10
-10.93524
 20
-14.59962
 30
0.0
 10
-10.93524
 20
-14.59962
 30
0.0
 10
-10.93524
 20
-14.59962
 30
0.0
 10
-10.94227
 20
-14.58829
 30
0.0
 10
-10.94747
 20
-14.57749
 30
0.0
 10
-10.95081
 20
-14.56726
 30
0.0
 10
-10.95081
 20
-14.56726
 30
0.0
 10
-10.95417
 20
-14.55705
 30
0.0
 10
-10.95584
 20
-14.54692
 30
0.0
 10
-10.95584
 20
-14.53685
 30
0.0
 10
-10.95584
 20
-14.53685
 30
0.0
 10
-10.95584
 20
-14.52679
 30
0.0
 10
-10.95415
 20
-14.5166
 30
0.0
 10
-10.95079
 20
-14.5063
 30
0.0
 10
-10.95079
 20
-14.5063
 30
0.0
 10
-10.9474
 20
-14.49598
 30
0.0
 10
-10.94223
 20
-14.48521
 30
0.0
 10
-10.93524
 20
-14.47394
 30
0.0
 10
-10.93524
 20
-14.47394
 30
0.0
 10
-10.93524
 20
-14.47394
 30
0.0
 10
-10.91478
 20
-14.47394
 30
0.0
 10
-10.91478
 20
-14.47394
 30
0.0
 10
-10.91478
 20
-14.47394
 30
0.0
 10
-10.92066
 20
-14.48483
 30
0.0
 10
-10.92506
 20
-14.49548
 30
0.0
 10
-10.928
 20
-14.50588
 30
0.0
 10
-10.928
 20
-14.50588
 30
0.0
 10
-10.93094
 20
-14.51627
 30
0.0
 10
-10.93242
 20
-14.52655
 30
0.0
 10
-10.93242
 20
-14.53671
 30
0.0
 10
-10.93242
 20
-14.53671
 30
0.0
 10
-10.93242
 20
-14.54687
 30
0.0
 10
-10.93096
 20
-14.55715
 30
0.0
 10
-10.92805
 20
-14.56759
 30
0.0
 10
-10.92805
 20
-14.56759
 30
0.0
 10
-10.92513
 20
-14.57801
 30
0.0
 10
-10.92071
 20
-14.58869
 30
0.0
 10
-10.91478
 20
-14.59962
 30
0.0
  0
SPLINE
  5
6C
330
1F
100
AcDbEntity
  8
Layer 1
 62
   250
100
AcDbSpline
210
0.0
220
0.0
230
1.0
 70
    11
 71
     3
 72
   116
 73
   112
 74
     0
 42
0.0000000001
 43
0.0000000001
 40
0.0
 40
0.0
 40
0.0
 40
0.0
 40
0.0357142857142857
 40
0.0357142857142857
 40
0.0357142857142857
 40
0.0357142857142857
 40
0.0714285714285714
 40
0.0714285714285714
 40
0.0714285714285714
 40
0.0714285714285714
 40
0.1071428571428571
 40
0.1071428571428571
 40
0.1071428571428571
 40
0.1071428571428571
 40
0.1428571428571428
 40
0.1428571428571428
 40
0.1428571428571428
 40
0.1428571428571428
 40
0.1785714285714285
 40
0.1785714285714285
 40
0.1785714285714285
 40
0.1785714285714285
 40
0.2142857142857142
 40
0.2142857142857142
 40
0.2142857142857142
 40
0.2142857142857142
 40
0.2499999999999999
 40
0.2499999999999999
 40
0.2499999999999999
 40
0.2499999999999999
 40
0.2857142857142856
 40
0.2857142857142856
 40
0.2857142857142856
 40
0.2857142857142856
 40
0.3214285714285713
 40
0.3214285714285713
 40
0.3214285714285713
 40
0.3214285714285713
 40
0.357142857142857
 40
0.357142857142857
 40
0.357142857142857
 40
0.357142857142857
 40
0.3928571428571427
 40
0.3928571428571427
 40
0.3928571428571427
 40
0.3928571428571427
 40
0.4285714285714284
 40
0.4285714285714284
 40
0.4285714285714284
 40
0.4285714285714284
 40
0.4642857142857141
 40
0.4642857142857141
 40
0.4642857142857141
 40
0.4642857142857141
 40
0.4999999999999998
 40
0.4999999999999998
 40
0.4999999999999998
 40
0.4999999999999998
 40
0.5357142857142856
 40
0.5357142857142856
 40
0.5357142857142856
 40
0.5357142857142856
 40
0.5714285714285713
 40
0.5714285714285713
 40
0.5714285714285713
 40
0.5714285714285713
 40
0.607142857142857
 40
0.607142857142857
 40
0.607142857142857
 40
0.607142857142857
 40
0.6428571428571427
 40
0.6428571428571427
 40
0.6428571428571427
 40
0.6428571428571427
 40
0.6785714285714284
 40
0.6785714285714284
 40
0.6785714285714284
 40
0.6785714285714284
 40
0.7142857142857141
 40
0.7142857142857141
 40
0.7142857142857141
 40
0.7142857142857141
 40
0.7499999999999998
 40
0.7499999999999998
 40
0.7499999999999998
 40
0.7499999999999998
 40
0.7857142857142855
 40
0.7857142857142855
 40
0.7857142857142855
 40
0.7857142857142855
 40
0.8214285714285712
 40
0.8214285714285712
 40
0.8214285714285712
 40
0.8214285714285712
 40
0.8571428571428569
 40
0.8571428571428569
 40
0.8571428571428569
 40
0.8571428571428569
 40
0.8928571428571426
 40
0.8928571428571426
 40
0.8928571428571426
 40
0.8928571428571426
 40
0.9285714285714283
 40
0.9285714285714283
 40
0.9285714285714283
 40
0.9285714285714283
 40
0.964285714285714
 40
0.964285714285714
 40
0.964285714285714
 40
0.964285714285714
 40
1.0
 40
1.0
 40
1.0
 40
1.0
 10
-10.81894
 20
-14.4814
 30
0.0
 10
-10.81894
 20
-14.4814
 30
0.0
 10
-10.81894
 20
-14.50315
 30
0.0
 10
-10.81894
 20
-14.50315
 30
0.0
 10
-10.81894
 20
-14.50315
 30
0.0
 10
-10.82459
 20
-14.50063
 30
0.0
 10
-10.83011
 20
-14.49873
 30
0.0
 10
-10.83547
 20
-14.49744
 30
0.0
 10
-10.83547
 20
-14.49744
 30
0.0
 10
-10.84086
 20
-14.49614
 30
0.0
 10
-10.84594
 20
-14.49551
 30
0.0
 10
-10.85071
 20
-14.49551
 30
0.0
 10
-10.85071
 20
-14.49551
 30
0.0
 10
-10.85704
 20
-14.49551
 30
0.0
 10
-10.86174
 20
-14.49638
 30
0.0
 10
-10.86478
 20
-14.49812
 30
0.0
 10
-10.86478
 20
-14.49812
 30
0.0
 10
-10.86781
 20
-14.49988
 30
0.0
 10
-10.86932
 20
-14.50259
 30
0.0
 10
-10.86932
 20
-14.50626
 30
0.0
 10
-10.86932
 20
-14.50626
 30
0.0
 10
-10.86932
 20
-14.50901
 30
0.0
 10
-10.86831
 20
-14.51117
 30
0.0
 10
-10.86626
 20
-14.5127
 30
0.0
 10
-10.86626
 20
-14.5127
 30
0.0
 10
-10.86421
 20
-14.51423
 30
0.0
 10
-10.8605
 20
-14.51557
 30
0.0
 10
-10.85511
 20
-14.51667
 30
0.0
 10
-10.85511
 20
-14.51667
 30
0.0
 10
-10.85511
 20
-14.51667
 30
0.0
 10
-10.84382
 20
-14.51893
 30
0.0
 10
-10.84382
 20
-14.51893
 30
0.0
 10
-10.84382
 20
-14.51893
 30
0.0
 10
-10.83237
 20
-14.52124
 30
0.0
 10
-10.82426
 20
-14.52472
 30
0.0
 10
-10.81944
 20
-14.52942
 30
0.0
 10
-10.81944
 20
-14.52942
 30
0.0
 10
-10.81461
 20
-14.5341
 30
0.0
 10
-10.81219
 20
-14.54076
 30
0.0
 10
-10.81219
 20
-14.54939
 30
0.0
 10
-10.81219
 20
-14.54939
 30
0.0
 10
-10.81219
 20
-14.56075
 30
0.0
 10
-10.81555
 20
-14.56919
 30
0.0
 10
-10.82228
 20
-14.57472
 30
0.0
 10
-10.82228
 20
-14.57472
 30
0.0
 10
-10.82901
 20
-14.58024
 30
0.0
 10
-10.83928
 20
-14.58302
 30
0.0
 10
-10.85311
 20
-14.58302
 30
0.0
 10
-10.85311
 20
-14.58302
 30
0.0
 10
-10.85965
 20
-14.58302
 30
0.0
 10
-10.86619
 20
-14.58241
 30
0.0
 10
-10.87275
 20
-14.58116
 30
0.0
 10
-10.87275
 20
-14.58116
 30
0.0
 10
-10.87931
 20
-14.57991
 30
0.0
 10
-10.8859
 20
-14.57808
 30
0.0
 10
-10.89246
 20
-14.57566
 30
0.0
 10
-10.89246
 20
-14.57566
 30
0.0
 10
-10.89246
 20
-14.57566
 30
0.0
 10
-10.89246
 20
-14.55327
 30
0.0
 10
-10.89246
 20
-14.55327
 30
0.0
 10
-10.89246
 20
-14.55327
 30
0.0
 10
-10.8859
 20
-14.55675
 30
0.0
 10
-10.87955
 20
-14.55938
 30
0.0
 10
-10.87341
 20
-14.56115
 30
0.0
 10
-10.87341
 20
-14.56115
 30
0.0
 10
-10.86727
 20
-14.56291
 30
0.0
 10
-10.86137
 20
-14.5638
 30
0.0
 10
-10.85568
 20
-14.5638
 30
0.0
 10
-10.85568
 20
-14.5638
 30
0.0
 10
-10.84989
 20
-14.5638
 30
0.0
 10
-10.84545
 20
-14.56284
 30
0.0
 10
-10.84237
 20
-14.56091
 30
0.0
 10
-10.84237
 20
-14.56091
 30
0.0
 10
-10.83928
 20
-14.55898
 30
0.0
 10
-10.83776
 20
-14.55623
 30
0.0
 10
-10.83776
 20
-14.55263
 30
0.0
 10
-10.83776
 20
-14.55263
 30
0.0
 10
-10.83776
 20
-14.54943
 30
0.0
 10
-10.83879
 20
-14.54694
 30
0.0
 10
-10.84088
 20
-14.5452
 30
0.0
 10
-10.84088
 20
-14.5452
 30
0.0
 10
-10.84298
 20
-14.54346
 30
0.0
 10
-10.84714
 20
-14.54189
 30
0.0
 10
-10.8534
 20
-14.54052
 30
0.0
 10
-10.8534
 20
-14.54052
 30
0.0
 10
-10.8534
 20
-14.54052
 30
0.0
 10
-10.86367
 20
-14.53824
 30
0.0
 10
-10.86367
 20
-14.53824
 30
0.0
 10
-10.86367
 20
-14.53824
 30
0.0
 10
-10.87395
 20
-14.53603
 30
0.0
 10
-10.88148
 20
-14.53253
 30
0.0
 10
-10.88623
 20
-14.5277
 30
0.0
 10
-10.88623
 20
-14.5277
 30
0.0
 10
-10.89098
 20
-14.52288
 30
0.0
 10
-10.89335
 20
-14.51637
 30
0.0
 10
-10.89335
 20
-14.50821
 30
0.0
 10
-10.89335
 20
-14.50821
 30
0.0
 10
-10.89335
 20
-14.49795
 30
0.0
 10
-10.89004
 20
-14.49007
 30
0.0
 10
-10.88343
 20
-14.48457
 30
0.0
 10
-10.88343
 20
-14.48457
 30
0.0
 10
-10.87682
 20
-14.47904
 30
0.0
 10
-10.86732
 20
-14.47629
 30
0.0
 10
-10.8549
 20
-14.47629
 30
0.0
 10
-10.8549
 20
-14.47629
 30
0.0
 10
-10.84926
 20
-14.47629
 30
0.0
 10
-10.84345
 20
-14.47672
 30
0.0
 10
-10.83747
 20
-14.47756
 30
0.0
 10
-10.83747
 20
-14.47756
 30
0.0
 10
-10.8315
 20
-14.47841
 30
0.0
 10
-10.82532
 20
-14.47968
 30
0.0
 10
-10.81894
 20
-14.4814
 30
0.0
  0
SPLINE
  5
6D
330
1F
100
AcDbEntity
  8
Layer 1
 62
   250
100
AcDbSpline
210
0.0
220
0.0
230
1.0
 70
    11
 71
     3
 72
    36
 73
    32
 74
     0
 42
0.0000000001
 43
0.0000000001
 40
0.0
 40
0.0
 40
0.0
 40
0.0
 40
0.125
 40
0.125
 40
0.125
 40
0.125
 40
0.25
 40
0.25
 40
0.25
 40
0.25
 40
0.375
 40
0.375
 40
0.375
 40
0.375
 40
0.5
 40
0.5
 40
0.5
 40
0.5
 40
0.625
 40
0.625
 40
0.625
 40
0.625
 40
0.75
 40
0.75
 40
0.75
 40
0.75
 40
0.875
 40
0.875
 40
0.875
 40
0.875
 40
1.0
 40
1.0
 40
1.0
 40
1.0
 10
-10.74192
 20
-14.49551
 30
0.0
 10
-10.75001
 20
-14.49551
 30
0.0
 10
-10.75627
 20
-14.49849
 30
0.0
 10
-10.76074
 20
-14.50447
 30
0.0
 10
-10.76074
 20
-14.50447
 30
0.0
 10
-10.76518
 20
-14.51044
 30
0.0
 10
-10.76742
 20
-14.51884
 30
0.0
 10
-10.76742
 20
-14.52968
 30
0.0
 10
-10.76742
 20
-14.52968
 30
0.0
 10
-10.76742
 20
-14.5405
 30
0.0
 10
-10.76518
 20
-14.54887
 30
0.0
 10
-10.76074
 20
-14.55484
 30
0.0
 10
-10.76074
 20
-14.55484
 30
0.0
 10
-10.75627
 20
-14.56082
 30
0.0
 10
-10.75001
 20
-14.5638
 30
0.0
 10
-10.74192
 20
-14.5638
 30
0.0
 10
-10.74192
 20
-14.5638
 30
0.0
 10
-10.73378
 20
-14.5638
 30
0.0
 10
-10.72751
 20
-14.56082
 30
0.0
 10
-10.72304
 20
-14.55484
 30
0.0
 10
-10.72304
 20
-14.55484
 30
0.0
 10
-10.71859
 20
-14.54887
 30
0.0
 10
-10.71636
 20
-14.5405
 30
0.0
 10
-10.71636
 20
-14.52968
 30
0.0
 10
-10.71636
 20
-14.52968
 30
0.0
 10
-10.71636
 20
-14.51884
 30
0.0
 10
-10.71859
 20
-14.51044
 30
0.0
 10
-10.72304
 20
-14.50447
 30
0.0
 10
-10.72304
 20
-14.50447
 30
0.0
 10
-10.72751
 20
-14.49849
 30
0.0
 10
-10.73378
 20
-14.49551
 30
0.0
 10
-10.74192
 20
-14.49551
 30
0.0
  0
SPLINE
  5
6E
330
1F
100
AcDbEntity
  8
Layer 1
 62
   250
100
AcDbSpline
210
0.0
220
0.0
230
1.0
 70
    11
 71
     3
 72
    36
 73
    32
 74
     0
 42
0.0000000001
 43
0.0000000001
 40
0.0
 40
0.0
 40
0.0
 40
0.0
 40
0.125
 40
0.125
 40
0.125
 40
0.125
 40
0.25
 40
0.25
 40
0.25
 40
0.25
 40
0.375
 40
0.375
 40
0.375
 40
0.375
 40
0.5
 40
0.5
 40
0.5
 40
0.5
 40
0.625
 40
0.625
 40
0.625
 40
0.625
 40
0.75
 40
0.75
 40
0.75
 40
0.75
 40
0.875
 40
0.875
 40
0.875
 40
0.875
 40
1.0
 40
1.0
 40
1.0
 40
1.0
 10
-10.74192
 20
-14.47629
 30
0.0
 10
-10.72539
 20
-14.47629
 30
0.0
 10
-10.71243
 20
-14.48102
 30
0.0
 10
-10.70307
 20
-14.4905
 30
0.0
 10
-10.70307
 20
-14.4905
 30
0.0
 10
-10.69369
 20
-14.49995
 30
0.0
 10
-10.68901
 20
-14.513
 30
0.0
 10
-10.68901
 20
-14.52968
 30
0.0
 10
-10.68901
 20
-14.52968
 30
0.0
 10
-10.68901
 20
-14.54631
 30
0.0
 10
-10.69369
 20
-14.55936
 30
0.0
 10
-10.70307
 20
-14.56881
 30
0.0
 10
-10.70307
 20
-14.56881
 30
0.0
 10
-10.71243
 20
-14.57829
 30
0.0
 10
-10.72539
 20
-14.58302
 30
0.0
 10
-10.74192
 20
-14.58302
 30
0.0
 10
-10.74192
 20
-14.58302
 30
0.0
 10
-10.75841
 20
-14.58302
 30
0.0
 10
-10.77134
 20
-14.57829
 30
0.0
 10
-10.78075
 20
-14.56881
 30
0.0
 10
-10.78075
 20
-14.56881
 30
0.0
 10
-10.79013
 20
-14.55936
 30
0.0
 10
-10.79484
 20
-14.54631
 30
0.0
 10
-10.79484
 20
-14.52968
 30
0.0
 10
-10.79484
 20
-14.52968
 30
0.0
 10
-10.79484
 20
-14.513
 30
0.0
 10
-10.79013
 20
-14.49995
 30
0.0
 10
-10.78075
 20
-14.4905
 30
0.0
 10
-10.78075
 20
-14.4905
 30
0.0
 10
-10.77134
 20
-14.48102
 30
0.0
 10
-10.75841
 20
-14.47629
 30
0.0
 10
-10.74192
 20
-14.47629
 30
0.0
  0
SPLINE
  5
6F
330
1F
100
AcDbEntity
  8
Layer 1
 62
   250
100
AcDbSpline
210
0.0
220
0.0
230
1.0
 70
    11
 71
     3
 72
    36
 73
    32
 74
     0
 42
0.0000000001
 43
0.0000000001
 40
0.0
 40
0.0
 40
0.0
 40
0.0
 40
0.125
 40
0.125
 40
0.125
 40
0.125
 40
0.25
 40
0.25
 40
0.25
 40
0.25
 40
0.375
 40
0.375
 40
0.375
 40
0.375
 40
0.5
 40
0.5
 40
0.5
 40
0.5
 40
0.625
 40
0.625
 40
0.625
 40
0.625
 40
0.75
 40
0.75
 40
0.75
 40
0.75
 40
0.875
 40
0.875
 40
0.875
 40
0.875
 40
1.0
 40
1.0
 40
1.0
 40
1.0
 10
-10.68122
 20
-14.47815
 30
0.0
 10
-10.68122
 20
-14.47815
 30
0.0
 10
-10.58642
 20
-14.47815
 30
0.0
 10
-10.58642
 20
-14.47815
 30
0.0
 10
-10.58642
 20
-14.47815
 30
0.0
 10
-10.58642
 20
-14.47815
 30
0.0
 10
-10.58642
 20
-14.49821
 30
0.0
 10
-10.58642
 20
-14.49821
 30
0.0
 10
-10.58642
 20
-14.49821
 30
0.0
 10
-10.58642
 20
-14.49821
 30
0.0
 10
-10.62052
 20
-14.49821
 30
0.0
 10
-10.62052
 20
-14.49821
 30
0.0
 10
-10.62052
 20
-14.49821
 30
0.0
 10
-10.62052
 20
-14.49821
 30
0.0
 10
-10.62052
 20
-14.58102
 30
0.0
 10
-10.62052
 20
-14.58102
 30
0.0
 10
-10.62052
 20
-14.58102
 30
0.0
 10
-10.62052
 20
-14.58102
 30
0.0
 10
-10.64705
 20
-14.58102
 30
0.0
 10
-10.64705
 20
-14.58102
 30
0.0
 10
-10.64705
 20
-14.58102
 30
0.0
 10
-10.64705
 20
-14.58102
 30
0.0
 10
-10.64705
 20
-14.49821
 30
0.0
 10
-10.64705
 20
-14.49821
 30
0.0
 10
-10.64705
 20
-14.49821
 30
0.0
 10
-10.64705
 20
-14.49821
 30
0.0
 10
-10.68122
 20
-14.49821
 30
0.0
 10
-10.68122
 20
-14.49821
 30
0.0
 10
-10.68122
 20
-14.49821
 30
0.0
 10
-10.68122
 20
-14.49821
 30
0.0
 10
-10.68122
 20
-14.47815
 30
0.0
 10
-10.68122
 20
-14.47815
 30
0.0
  0
SPLINE
  5
70
330
1F
100
AcDbEntity
  8
Layer 1
 62
   250
100
AcDbSpline
210
0.0
220
0.0
230
1.0
 70
    11
 71
     3
 72
    20
 73
    16
 74
     0
 42
0.0000000001
 43
0.0000000001
 40
0.0
 40
0.0
 40
0.0
 40
0.0
 40
0.25
 40
0.25
 40
0.25
 40
0.25
 40
0.5
 40
0.5
 40
0.5
 40
0.5
 40
0.75
 40
0.75
 40
0.75
 40
0.75
 40
1.0
 40
1.0
 40
1.0
 40
1.0
 10
-10.578
 20
-14.53039
 30
0.0
 10
-10.578
 20
-14.53039
 30
0.0
 10
-10.53472
 20
-14.53039
 30
0.0
 10
-10.53472
 20
-14.53039
 30
0.0
 10
-10.53472
 20
-14.53039
 30
0.0
 10
-10.53472
 20
-14.53039
 30
0.0
 10
-10.53472
 20
-14.55045
 30
0.0
 10
-10.53472
 20
-14.55045
 30
0.0
 10
-10.53472
 20
-14.55045
 30
0.0
 10
-10.53472
 20
-14.55045
 30
0.0
 10
-10.578
 20
-14.55045
 30
0.0
 10
-10.578
 20
-14.55045
 30
0.0
 10
-10.578
 20
-14.55045
 30
0.0
 10
-10.578
 20
-14.55045
 30
0.0
 10
-10.578
 20
-14.53039
 30
0.0
 10
-10.578
 20
-14.53039
 30
0.0
  0
SPLINE
  5
71
330
1F
100
AcDbEntity
  8
Layer 1
 62
   250
100
AcDbSpline
210
0.0
220
0.0
230
1.0
 70
    11
 71
     3
 72
    80
 73
    76
 74
     0
 42
0.0000000001
 43
0.0000000001
 40
0.0
 40
0.0
 40
0.0
 40
0.0
 40
0.0526315789473684
 40
0.0526315789473684
 40
0.0526315789473684
 40
0.0526315789473684
 40
0.1052631578947368
 40
0.1052631578947368
 40
0.1052631578947368
 40
0.1052631578947368
 40
0.1578947368421053
 40
0.1578947368421053
 40
0.1578947368421053
 40
0.1578947368421053
 40
0.2105263157894737
 40
0.2105263157894737
 40
0.2105263157894737
 40
0.2105263157894737
 40
0.2631578947368421
 40
0.2631578947368421
 40
0.2631578947368421
 40
0.2631578947368421
 40
0.3157894736842105
 40
0.3157894736842105
 40
0.3157894736842105
 40
0.3157894736842105
 40
0.3684210526315789
 40
0.3684210526315789
 40
0.3684210526315789
 40
0.3684210526315789
 40
0.4210526315789473
 40
0.4210526315789473
 40
0.4210526315789473
 40
0.4210526315789473
 40
0.4736842105263158
 40
0.4736842105263158
 40
0.4736842105263158
 40
0.4736842105263158
 40
0.5263157894736842
 40
0.5263157894736842
 40
0.5263157894736842
 40
0.5263157894736842
 40
0.5789473684210527
 40
0.5789473684210527
 40
0.5789473684210527
 40
0.5789473684210527
 40
0.631578947368421
 40
0.631578947368421
 40
0.631578947368421
 40
0.631578947368421
 40
0.6842105263157894
 40
0.6842105263157894
 40
0.6842105263157894
 40
0.6842105263157894
 40
0.7368421052631577
 40
0.7368421052631577
 40
0.7368421052631577
 40
0.7368421052631577
 40
0.7894736842105261
 40
0.7894736842105261
 40
0.7894736842105261
 40
0.7894736842105261
 40
0.8421052631578945
 40
0.8421052631578945
 40
0.8421052631578945
 40
0.8421052631578945
 40
0.8947368421052628
 40
0.8947368421052628
 40
0.8947368421052628
 40
0.8947368421052628
 40
0.9473684210526312
 40
0.9473684210526312
 40
0.9473684210526312
 40
0.9473684210526312
 40
1.0
 40
1.0
 40
1.0
 40
1.0
 10
-10.48642
 20
-14.56152
 30
0.0
 10
-10.48642
 20
-14.56152
 30
0.0
 10
-10.44114
 20
-14.56152
 30
0.0
 10
-10.44114
 20
-14.56152
 30
0.0
 10
-10.44114
 20
-14.56152
 30
0.0
 10
-10.44114
 20
-14.56152
 30
0.0
 10
-10.44114
 20
-14.58102
 30
0.0
 10
-10.44114
 20
-14.58102
 30
0.0
 10
-10.44114
 20
-14.58102
 30
0.0
 10
-10.44114
 20
-14.58102
 30
0.0
 10
-10.51591
 20
-14.58102
 30
0.0
 10
-10.51591
 20
-14.58102
 30
0.0
 10
-10.51591
 20
-14.58102
 30
0.0
 10
-10.51591
 20
-14.58102
 30
0.0
 10
-10.51591
 20
-14.56152
 30
0.0
 10
-10.51591
 20
-14.56152
 30
0.0
 10
-10.51591
 20
-14.56152
 30
0.0
 10
-10.51591
 20
-14.56152
 30
0.0
 10
-10.47835
 20
-14.52839
 30
0.0
 10
-10.47835
 20
-14.52839
 30
0.0
 10
-10.47835
 20
-14.52839
 30
0.0
 10
-10.47499
 20
-14.52535
 30
0.0
 10
-10.47252
 20
-14.52239
 30
0.0
 10
-10.47092
 20
-14.5195
 30
0.0
 10
-10.47092
 20
-14.5195
 30
0.0
 10
-10.4693
 20
-14.5166
 30
0.0
 10
-10.4685
 20
-14.51359
 30
0.0
 10
-10.4685
 20
-14.51046
 30
0.0
 10
-10.4685
 20
-14.51046
 30
0.0
 10
-10.4685
 20
-14.50564
 30
0.0
 10
-10.47012
 20
-14.50176
 30
0.0
 10
-10.47336
 20
-14.49882
 30
0.0
 10
-10.47336
 20
-14.49882
 30
0.0
 10
-10.47659
 20
-14.49588
 30
0.0
 10
-10.48089
 20
-14.49443
 30
0.0
 10
-10.48628
 20
-14.49443
 30
0.0
 10
-10.48628
 20
-14.49443
 30
0.0
 10
-10.49041
 20
-14.49443
 30
0.0
 10
-10.49493
 20
-14.49532
 30
0.0
 10
-10.49985
 20
-14.49708
 30
0.0
 10
-10.49985
 20
-14.49708
 30
0.0
 10
-10.50476
 20
-14.49885
 30
0.0
 10
-10.51003
 20
-14.50148
 30
0.0
 10
-10.51563
 20
-14.50496
 30
0.0
 10
-10.51563
 20
-14.50496
 30
0.0
 10
-10.51563
 20
-14.50496
 30
0.0
 10
-10.51563
 20
-14.48236
 30
0.0
 10
-10.51563
 20
-14.48236
 30
0.0
 10
-10.51563
 20
-14.48236
 30
0.0
 10
-10.50965
 20
-14.48039
 30
0.0
 10
-10.50375
 20
-14.47888
 30
0.0
 10
-10.49792
 20
-14.47785
 30
0.0
 10
-10.49792
 20
-14.47785
 30
0.0
 10
-10.49208
 20
-14.47681
 30
0.0
 10
-10.48637
 20
-14.47629
 30
0.0
 10
-10.48075
 20
-14.47629
 30
0.0
 10
-10.48075
 20
-14.47629
 30
0.0
 10
-10.46845
 20
-14.47629
 30
0.0
 10
-10.45888
 20
-14.479
 30
0.0
 10
-10.45206
 20
-14.48443
 30
0.0
 10
-10.45206
 20
-14.48443
 30
0.0
 10
-10.44524
 20
-14.48984
 30
0.0
 10
-10.44183
 20
-14.49739
 30
0.0
 10
-10.44183
 20
-14.5071
 30
0.0
 10
-10.44183
 20
-14.5071
 30
0.0
 10
-10.44183
 20
-14.5127
 30
0.0
 10
-10.44328
 20
-14.51792
 30
0.0
 10
-10.44618
 20
-14.52277
 30
0.0
 10
-10.44618
 20
-14.52277
 30
0.0
 10
-10.44907
 20
-14.52761
 30
0.0
 10
-10.45516
 20
-14.5341
 30
0.0
 10
-10.46443
 20
-14.54224
 30
0.0
 10
-10.46443
 20
-14.54224
 30
0.0
 10
-10.46443
 20
-14.54224
 30
0.0
 10
-10.48642
 20
-14.56152
 30
0.0
 10
-10.48642
 20
-14.56152
 30
0.0
  0
SPLINE
  5
72
330
1F
100
AcDbEntity
  8
Layer 1
 62
   250
100
AcDbSpline
210
0.0
220
0.0
230
1.0
 70
    11
 71
     3
 72
   120
 73
   116
 74
     0
 42
0.0000000001
 43
0.0000000001
 40
0.0
 40
0.0
 40
0.0
 40
0.0
 40
0.0344827586206897
 40
0.0344827586206897
 40
0.0344827586206897
 40
0.0344827586206897
 40
0.0689655172413793
 40
0.0689655172413793
 40
0.0689655172413793
 40
0.0689655172413793
 40
0.103448275862069
 40
0.103448275862069
 40
0.103448275862069
 40
0.103448275862069
 40
0.1379310344827586
 40
0.1379310344827586
 40
0.1379310344827586
 40
0.1379310344827586
 40
0.1724137931034483
 40
0.1724137931034483
 40
0.1724137931034483
 40
0.1724137931034483
 40
0.206896551724138
 40
0.206896551724138
 40
0.206896551724138
 40
0.206896551724138
 40
0.2413793103448276
 40
0.2413793103448276
 40
0.2413793103448276
 40
0.2413793103448276
 40
0.2758620689655173
 40
0.2758620689655173
 40
0.2758620689655173
 40
0.2758620689655173
 40
0.310344827586207
 40
0.310344827586207
 40
0.310344827586207
 40
0.310344827586207
 40
0.3448275862068966
 40
0.3448275862068966
 40
0.3448275862068966
 40
0.3448275862068966
 40
0.3793103448275863
 40
0.3793103448275863
 40
0.3793103448275863
 40
0.3793103448275863
 40
0.413793103448276
 40
0.413793103448276
 40
0.413793103448276
 40
0.413793103448276
 40
0.4482758620689656
 40
0.4482758620689656
 40
0.4482758620689656
 40
0.4482758620689656
 40
0.4827586206896553
 40
0.4827586206896553
 40
0.4827586206896553
 40
0.4827586206896553
 40
0.517241379310345
 40
0.517241379310345
 40
0.517241379310345
 40
0.517241379310345
 40
0.5517241379310346
 40
0.5517241379310346
 40
0.5517241379310346
 40
0.5517241379310346
 40
0.5862068965517242
 40
0.5862068965517242
 40
0.5862068965517242
 40
0.5862068965517242
 40
0.6206896551724138
 40
0.6206896551724138
 40
0.6206896551724138
 40
0.6206896551724138
 40
0.6551724137931034
 40
0.6551724137931034
 40
0.6551724137931034
 40
0.6551724137931034
 40
0.689655172413793
 40
0.689655172413793
 40
0.689655172413793
 40
0.689655172413793
 40
0.7241379310344827
 40
0.7241379310344827
 40
0.7241379310344827
 40
0.7241379310344827
 40
0.7586206896551723
 40
0.7586206896551723
 40
0.7586206896551723
 40
0.7586206896551723
 40
0.7931034482758619
 40
0.7931034482758619
 40
0.7931034482758619
 40
0.7931034482758619
 40
0.8275862068965515
 40
0.8275862068965515
 40
0.8275862068965515
 40
0.8275862068965515
 40
0.8620689655172411
 40
0.8620689655172411
 40
0.8620689655172411
 40
0.8620689655172411
 40
0.8965517241379307
 40
0.8965517241379307
 40
0.8965517241379307
 40
0.8965517241379307
 40
0.9310344827586203
 40
0.9310344827586203
 40
0.9310344827586203
 40
0.9310344827586203
 40
0.9655172413793099
 40
0.9655172413793099
 40
0.9655172413793099
 40
0.9655172413793099
 40
1.0
 40
1.0
 40
1.0
 40
1.0
 10
-10.36316
 20
-14.52554
 30
0.0
 10
-10.35624
 20
-14.52733
 30
0.0
 10
-10.35095
 20
-14.53046
 30
0.0
 10
-10.34735
 20
-14.53488
 30
0.0
 10
-10.34735
 20
-14.53488
 30
0.0
 10
-10.34375
 20
-14.53932
 30
0.0
 10
-10.34194
 20
-14.54494
 30
0.0
 10
-10.34194
 20
-14.55179
 30
0.0
 10
-10.34194
 20
-14.55179
 30
0.0
 10
-10.34194
 20
-14.56199
 30
0.0
 10
-10.34585
 20
-14.56975
 30
0.0
 10
-10.35365
 20
-14.57507
 30
0.0
 10
-10.35365
 20
-14.57507
 30
0.0
 10
-10.36146
 20
-14.58036
 30
0.0
 10
-10.37285
 20
-14.58302
 30
0.0
 10
-10.38783
 20
-14.58302
 30
0.0
 10
-10.38783
 20
-14.58302
 30
0.0
 10
-10.39312
 20
-14.58302
 30
0.0
 10
-10.39841
 20
-14.5826
 30
0.0
 10
-10.40373
 20
-14.58175
 30
0.0
 10
-10.40373
 20
-14.58175
 30
0.0
 10
-10.40902
 20
-14.5809
 30
0.0
 10
-10.41426
 20
-14.57961
 30
0.0
 10
-10.41946
 20
-14.57792
 30
0.0
 10
-10.41946
 20
-14.57792
 30
0.0
 10
-10.41946
 20
-14.57792
 30
0.0
 10
-10.41946
 20
-14.55745
 30
0.0
 10
-10.41946
 20
-14.55745
 30
0.0
 10
-10.41946
 20
-14.55745
 30
0.0
 10
-10.4145
 20
-14.55992
 30
0.0
 10
-10.40958
 20
-14.56181
 30
0.0
 10
-10.40469
 20
-14.56308
 30
0.0
 10
-10.40469
 20
-14.56308
 30
0.0
 10
-10.3998
 20
-14.56432
 30
0.0
 10
-10.39498
 20
-14.56496
 30
0.0
 10
-10.39025
 20
-14.56496
 30
0.0
 10
-10.39025
 20
-14.56496
 30
0.0
 10
-10.38322
 20
-14.56496
 30
0.0
 10
-10.37783
 20
-14.56373
 30
0.0
 10
-10.37409
 20
-14.56131
 30
0.0
 10
-10.37409
 20
-14.56131
 30
0.0
 10
-10.37035
 20
-14.55887
 30
0.0
 10
-10.36847
 20
-14.55539
 30
0.0
 10
-10.36847
 20
-14.55082
 30
0.0
 10
-10.36847
 20
-14.55082
 30
0.0
 10
-10.36847
 20
-14.54614
 30
0.0
 10
-10.3704
 20
-14.54259
 30
0.0
 10
-10.37423
 20
-14.54019
 30
0.0
 10
-10.37423
 20
-14.54019
 30
0.0
 10
-10.37807
 20
-14.53777
 30
0.0
 10
-10.38373
 20
-14.53657
 30
0.0
 10
-10.39121
 20
-14.53657
 30
0.0
 10
-10.39121
 20
-14.53657
 30
0.0
 10
-10.39121
 20
-14.53657
 30
0.0
 10
-10.40182
 20
-14.53657
 30
0.0
 10
-10.40182
 20
-14.53657
 30
0.0
 10
-10.40182
 20
-14.53657
 30
0.0
 10
-10.40182
 20
-14.53657
 30
0.0
 10
-10.40182
 20
-14.51947
 30
0.0
 10
-10.40182
 20
-14.51947
 30
0.0
 10
-10.40182
 20
-14.51947
 30
0.0
 10
-10.40182
 20
-14.51947
 30
0.0
 10
-10.39067
 20
-14.51947
 30
0.0
 10
-10.39067
 20
-14.51947
 30
0.0
 10
-10.39067
 20
-14.51947
 30
0.0
 10
-10.38399
 20
-14.51947
 30
0.0
 10
-10.37905
 20
-14.51844
 30
0.0
 10
-10.37579
 20
-14.51634
 30
0.0
 10
-10.37579
 20
-14.51634
 30
0.0
 10
-10.37252
 20
-14.51425
 30
0.0
 10
-10.37089
 20
-14.51108
 30
0.0
 10
-10.37089
 20
-14.50682
 30
0.0
 10
-10.37089
 20
-14.50682
 30
0.0
 10
-10.37089
 20
-14.50287
 30
0.0
 10
-10.37247
 20
-14.49981
 30
0.0
 10
-10.37564
 20
-14.49767
 30
0.0
 10
-10.37564
 20
-14.49767
 30
0.0
 10
-10.37882
 20
-14.49551
 30
0.0
 10
-10.38329
 20
-14.49443
 30
0.0
 10
-10.38907
 20
-14.49443
 30
0.0
 10
-10.38907
 20
-14.49443
 30
0.0
 10
-10.39335
 20
-14.49443
 30
0.0
 10
-10.39766
 20
-14.4949
 30
0.0
 10
-10.40203
 20
-14.49586
 30
0.0
 10
-10.40203
 20
-14.49586
 30
0.0
 10
-10.40638
 20
-14.49682
 30
0.0
 10
-10.41071
 20
-14.49826
 30
0.0
 10
-10.41504
 20
-14.50014
 30
0.0
 10
-10.41504
 20
-14.50014
 30
0.0
 10
-10.41504
 20
-14.50014
 30
0.0
 10
-10.41504
 20
-14.48071
 30
0.0
 10
-10.41504
 20
-14.48071
 30
0.0
 10
-10.41504
 20
-14.48071
 30
0.0
 10
-10.40979
 20
-14.47923
 30
0.0
 10
-10.40462
 20
-14.47813
 30
0.0
 10
-10.39947
 20
-14.4774
 30
0.0
 10
-10.39947
 20
-14.4774
 30
0.0
 10
-10.39432
 20
-14.47667
 30
0.0
 10
-10.38929
 20
-14.47629
 30
0.0
 10
-10.38432
 20
-14.47629
 30
0.0
 10
-10.38432
 20
-14.47629
 30
0.0
 10
-10.37096
 20
-14.47629
 30
0.0
 10
-10.36095
 20
-14.47848
 30
0.0
 10
-10.35431
 20
-14.48288
 30
0.0
 10
-10.35431
 20
-14.48288
 30
0.0
 10
-10.34768
 20
-14.48725
 30
0.0
 10
-10.34437
 20
-14.49386
 30
0.0
 10
-10.34437
 20
-14.50268
 30
0.0
 10
-10.34437
 20
-14.50268
 30
0.0
 10
-10.34437
 20
-14.50868
 30
0.0
 10
-10.34594
 20
-14.51362
 30
0.0
 10
-10.34912
 20
-14.51745
 30
0.0
 10
-10.34912
 20
-14.51745
 30
0.0
 10
-10.35229
 20
-14.52128
 30
0.0
 10
-10.35697
 20
-14.52399
 30
0.0
 10
-10.36316
 20
-14.52554
 30
0.0
  0
SPLINE
  5
73
330
1F
100
AcDbEntity
  8
Layer 1
 62
   250
100
AcDbSpline
210
0.0
220
0.0
230
1.0
 70
    11
 71
     3
 72
    44
 73
    40
 74
     0
 42
0.0000000001
 43
0.0000000001
 40
0.0
 40
0.0
 40
0.0
 40
0.0
 40
0.1
 40
0.1
 40
0.1
 40
0.1
 40
0.2
 40
0.2
 40
0.2
 40
0.2
 40
0.3
 40
0.3
 40
0.3
 40
0.3
 40
0.4
 40
0.4
 40
0.4
 40
0.4
 40
0.5
 40
0.5
 40
0.5
 40
0.5
 40
0.6
 40
0.6
 40
0.6
 40
0.6
 40
0.7
 40
0.7
 40
0.7
 40
0.7
 40
0.7999999999999999
 40
0.7999999999999999
 40
0.7999999999999999
 40
0.7999999999999999
 40
0.8999999999999999
 40
0.8999999999999999
 40
0.8999999999999999
 40
0.8999999999999999
 40
1.0
 40
1.0
 40
1.0
 40
1.0
 10
-10.31941
 20
-14.59962
 30
0.0
 10
-10.31353
 20
-14.58869
 30
0.0
 10
-10.30911
 20
-14.57801
 30
0.0
 10
-10.30617
 20
-14.56759
 30
0.0
 10
-10.30617
 20
-14.56759
 30
0.0
 10
-10.30323
 20
-14.55715
 30
0.0
 10
-10.30177
 20
-14.54687
 30
0.0
 10
-10.30177
 20
-14.53671
 30
0.0
 10
-10.30177
 20
-14.53671
 30
0.0
 10
-10.30177
 20
-14.52655
 30
0.0
 10
-10.30323
 20
-14.51627
 30
0.0
 10
-10.30617
 20
-14.50588
 30
0.0
 10
-10.30617
 20
-14.50588
 30
0.0
 10
-10.30911
 20
-14.49548
 30
0.0
 10
-10.31353
 20
-14.48483
 30
0.0
 10
-10.31941
 20
-14.47394
 30
0.0
 10
-10.31941
 20
-14.47394
 30
0.0
 10
-10.31941
 20
-14.47394
 30
0.0
 10
-10.29895
 20
-14.47394
 30
0.0
 10
-10.29895
 20
-14.47394
 30
0.0
 10
-10.29895
 20
-14.47394
 30
0.0
 10
-10.29197
 20
-14.48521
 30
0.0
 10
-10.28679
 20
-14.49598
 30
0.0
 10
-10.2834
 20
-14.5063
 30
0.0
 10
-10.2834
 20
-14.5063
 30
0.0
 10
-10.28004
 20
-14.5166
 30
0.0
 10
-10.27835
 20
-14.52679
 30
0.0
 10
-10.27835
 20
-14.53685
 30
0.0
 10
-10.27835
 20
-14.53685
 30
0.0
 10
-10.27835
 20
-14.54692
 30
0.0
 10
-10.28002
 20
-14.55705
 30
0.0
 10
-10.28338
 20
-14.56726
 30
0.0
 10
-10.28338
 20
-14.56726
 30
0.0
 10
-10.28672
 20
-14.57749
 30
0.0
 10
-10.29192
 20
-14.58829
 30
0.0
 10
-10.29895
 20
-14.59962
 30
0.0
 10
-10.29895
 20
-14.59962
 30
0.0
 10
-10.29895
 20
-14.59962
 30
0.0
 10
-10.31941
 20
-14.59962
 30
0.0
 10
-10.31941
 20
-14.59962
 30
0.0
  0
SPLINE
  5
74
330
1F
100
AcDbEntity
  8
Layer 1
 62
   250
100
AcDbSpline
210
0.0
220
0.0
230
1.0
 70
    11
 71
     3
 72
    92
 73
    88
 74
     0
 42
0.0000000001
 43
0.0000000001
 40
0.0
 40
0.0
 40
0.0
 40
0.0
 40
0.0454545454545455
 40
0.0454545454545455
 40
0.0454545454545455
 40
0.0454545454545455
 40
0.0909090909090909
 40
0.0909090909090909
 40
0.0909090909090909
 40
0.0909090909090909
 40
0.1363636363636364
 40
0.1363636363636364
 40
0.1363636363636364
 40
0.1363636363636364
 40
0.1818181818181818
 40
0.1818181818181818
 40
0.1818181818181818
 40
0.1818181818181818
 40
0.2272727272727273
 40
0.2272727272727273
 40
0.2272727272727273
 40
0.2272727272727273
 40
0.2727272727272728
 40
0.2727272727272728
 40
0.2727272727272728
 40
0.2727272727272728
 40
0.3181818181818182
 40
0.3181818181818182
 40
0.3181818181818182
 40
0.3181818181818182
 40
0.3636363636363637
 40
0.3636363636363637
 40
0.3636363636363637
 40
0.3636363636363637
 40
0.4090909090909092
 40
0.4090909090909092
 40
0.4090909090909092
 40
0.4090909090909092
 40
0.4545454545454546
 40
0.4545454545454546
 40
0.4545454545454546
 40
0.4545454545454546
 40
0.5000000000000001
 40
0.5000000000000001
 40
0.5000000000000001
 40
0.5000000000000001
 40
0.5454545454545455
 40
0.5454545454545455
 40
0.5454545454545455
 40
0.5454545454545455
 40
0.5909090909090909
 40
0.5909090909090909
 40
0.5909090909090909
 40
0.5909090909090909
 40
0.6363636363636364
 40
0.6363636363636364
 40
0.6363636363636364
 40
0.6363636363636364
 40
0.6818181818181818
 40
0.6818181818181818
 40
0.6818181818181818
 40
0.6818181818181818
 40
0.7272727272727272
 40
0.7272727272727272
 40
0.7272727272727272
 40
0.7272727272727272
 40
0.7727272727272726
 40
0.7727272727272726
 40
0.7727272727272726
 40
0.7727272727272726
 40
0.818181818181818
 40
0.818181818181818
 40
0.818181818181818
 40
0.818181818181818
 40
0.8636363636363634
 40
0.8636363636363634
 40
0.8636363636363634
 40
0.8636363636363634
 40
0.9090909090909088
 40
0.9090909090909088
 40
0.9090909090909088
 40
0.9090909090909088
 40
0.9545454545454543
 40
0.9545454545454543
 40
0.9545454545454543
 40
0.9545454545454543
 40
1.0
 40
1.0
 40
1.0
 40
1.0
 10
-10.20212
 20
-14.47815
 30
0.0
 10
-10.20212
 20
-14.47815
 30
0.0
 10
-10.13618
 20
-14.47815
 30
0.0
 10
-10.13618
 20
-14.47815
 30
0.0
 10
-10.13618
 20
-14.47815
 30
0.0
 10
-10.13618
 20
-14.47815
 30
0.0
 10
-10.13618
 20
-14.49765
 30
0.0
 10
-10.13618
 20
-14.49765
 30
0.0
 10
-10.13618
 20
-14.49765
 30
0.0
 10
-10.13618
 20
-14.49765
 30
0.0
 10
-10.18098
 20
-14.49765
 30
0.0
 10
-10.18098
 20
-14.49765
 30
0.0
 10
-10.18098
 20
-14.49765
 30
0.0
 10
-10.18098
 20
-14.49765
 30
0.0
 10
-10.18098
 20
-14.51357
 30
0.0
 10
-10.18098
 20
-14.51357
 30
0.0
 10
-10.18098
 20
-14.51357
 30
0.0
 10
-10.17896
 20
-14.51303
 30
0.0
 10
-10.17693
 20
-14.51261
 30
0.0
 10
-10.17489
 20
-14.5123
 30
0.0
 10
-10.17489
 20
-14.5123
 30
0.0
 10
-10.17284
 20
-14.51199
 30
0.0
 10
-10.1707
 20
-14.51185
 30
0.0
 10
-10.16851
 20
-14.51185
 30
0.0
 10
-10.16851
 20
-14.51185
 30
0.0
 10
-10.15596
 20
-14.51185
 30
0.0
 10
-10.1462
 20
-14.51498
 30
0.0
 10
-10.13921
 20
-14.52126
 30
0.0
 10
-10.13921
 20
-14.52126
 30
0.0
 10
-10.13223
 20
-14.52752
 30
0.0
 10
-10.12875
 20
-14.53626
 30
0.0
 10
-10.12875
 20
-14.54746
 30
0.0
 10
-10.12875
 20
-14.54746
 30
0.0
 10
-10.12875
 20
-14.55858
 30
0.0
 10
-10.13256
 20
-14.56729
 30
0.0
 10
-10.14015
 20
-14.57359
 30
0.0
 10
-10.14015
 20
-14.57359
 30
0.0
 10
-10.14775
 20
-14.57987
 30
0.0
 10
-10.15831
 20
-14.58302
 30
0.0
 10
-10.17181
 20
-14.58302
 30
0.0
 10
-10.17181
 20
-14.58302
 30
0.0
 10
-10.17764
 20
-14.58302
 30
0.0
 10
-10.18343
 20
-14.58245
 30
0.0
 10
-10.18914
 20
-14.58133
 30
0.0
 10
-10.18914
 20
-14.58133
 30
0.0
 10
-10.19486
 20
-14.5802
 30
0.0
 10
-10.20055
 20
-14.5785
 30
0.0
 10
-10.20619
 20
-14.5762
 30
0.0
 10
-10.20619
 20
-14.5762
 30
0.0
 10
-10.20619
 20
-14.5762
 30
0.0
 10
-10.20619
 20
-14.55531
 30
0.0
 10
-10.20619
 20
-14.55531
 30
0.0
 10
-10.20619
 20
-14.55531
 30
0.0
 10
-10.20059
 20
-14.55854
 30
0.0
 10
-10.19528
 20
-14.56094
 30
0.0
 10
-10.19025
 20
-14.56253
 30
0.0
 10
-10.19025
 20
-14.56253
 30
0.0
 10
-10.18521
 20
-14.56416
 30
0.0
 10
-10.18046
 20
-14.56496
 30
0.0
 10
-10.17602
 20
-14.56496
 30
0.0
 10
-10.17602
 20
-14.56496
 30
0.0
 10
-10.16957
 20
-14.56496
 30
0.0
 10
-10.16452
 20
-14.56338
 30
0.0
 10
-10.16082
 20
-14.56023
 30
0.0
 10
-10.16082
 20
-14.56023
 30
0.0
 10
-10.15713
 20
-14.5571
 30
0.0
 10
-10.15527
 20
-14.55285
 30
0.0
 10
-10.15527
 20
-14.54746
 30
0.0
 10
-10.15527
 20
-14.54746
 30
0.0
 10
-10.15527
 20
-14.54205
 30
0.0
 10
-10.15713
 20
-14.53779
 30
0.0
 10
-10.16082
 20
-14.53467
 30
0.0
 10
-10.16082
 20
-14.53467
 30
0.0
 10
-10.16452
 20
-14.53154
 30
0.0
 10
-10.16957
 20
-14.52999
 30
0.0
 10
-10.17602
 20
-14.52999
 30
0.0
 10
-10.17602
 20
-14.52999
 30
0.0
 10
-10.17983
 20
-14.52999
 30
0.0
 10
-10.1839
 20
-14.53048
 30
0.0
 10
-10.1882
 20
-14.53147
 30
0.0
 10
-10.1882
 20
-14.53147
 30
0.0
 10
-10.19253
 20
-14.53245
 30
0.0
 10
-10.19716
 20
-14.53398
 30
0.0
 10
-10.20212
 20
-14.53605
 30
0.0
 10
-10.20212
 20
-14.53605
 30
0.0
 10
-10.20212
 20
-14.53605
 30
0.0
 10
-10.20212
 20
-14.47815
 30
0.0
 10
-10.20212
 20
-14.47815
 30
0.0
  0
SPLINE
  5
75
330
1F
100
AcDbEntity
  8
Layer 1
 62
   250
100
AcDbSpline
210
0.0
220
0.0
230
1.0
 70
    11
 71
     3
 72
    36
 73
    32
 74
     0
 42
0.0000000001
 43
0.0000000001
 40
0.0
 40
0.0
 40
0.0
 40
0.0
 40
0.125
 40
0.125
 40
0.125
 40
0.125
 40
0.25
 40
0.25
 40
0.25
 40
0.25
 40
0.375
 40
0.375
 40
0.375
 40
0.375
 40
0.5
 40
0.5
 40
0.5
 40
0.5
 40
0.625
 40
0.625
 40
0.625
 40
0.625
 40
0.75
 40
0.75
 40
0.75
 40
0.75
 40
0.875
 40
0.875
 40
0.875
 40
0.875
 40
1.0
 40
1.0
 40
1.0
 40
1.0
 10
-10.05398
 20
-14.52949
 30
0.0
 10
-10.05398
 20
-14.51663
 30
0.0
 10
-10.05518
 20
-14.50757
 30
0.0
 10
-10.0576
 20
-14.5023
 30
0.0
 10
-10.0576
 20
-14.5023
 30
0.0
 10
-10.06
 20
-14.49706
 30
0.0
 10
-10.06407
 20
-14.49443
 30
0.0
 10
-10.06976
 20
-14.49443
 30
0.0
 10
-10.06976
 20
-14.49443
 30
0.0
 10
-10.07545
 20
-14.49443
 30
0.0
 10
-10.07952
 20
-14.49706
 30
0.0
 10
-10.08197
 20
-14.5023
 30
0.0
 10
-10.08197
 20
-14.5023
 30
0.0
 10
-10.08439
 20
-14.50757
 30
0.0
 10
-10.08561
 20
-14.51663
 30
0.0
 10
-10.08561
 20
-14.52949
 30
0.0
 10
-10.08561
 20
-14.52949
 30
0.0
 10
-10.08561
 20
-14.54247
 30
0.0
 10
-10.08439
 20
-14.55165
 30
0.0
 10
-10.08197
 20
-14.55696
 30
0.0
 10
-10.08197
 20
-14.55696
 30
0.0
 10
-10.07952
 20
-14.5623
 30
0.0
 10
-10.07545
 20
-14.56496
 30
0.0
 10
-10.06976
 20
-14.56496
 30
0.0
 10
-10.06976
 20
-14.56496
 30
0.0
 10
-10.06412
 20
-14.56496
 30
0.0
 10
-10.06007
 20
-14.5623
 30
0.0
 10
-10.05762
 20
-14.55696
 30
0.0
 10
-10.05762
 20
-14.55696
 30
0.0
 10
-10.0552
 20
-14.55165
 30
0.0
 10
-10.05398
 20
-14.54247
 30
0.0
 10
-10.05398
 20
-14.52949
 30
0.0
  0
SPLINE
  5
76
330
1F
100
AcDbEntity
  8
Layer 1
 62
   250
100
AcDbSpline
210
0.0
220
0.0
230
1.0
 70
    11
 71
     3
 72
    36
 73
    32
 74
     0
 42
0.0000000001
 43
0.0000000001
 40
0.0
 40
0.0
 40
0.0
 40
0.0
 40
0.125
 40
0.125
 40
0.125
 40
0.125
 40
0.25
 40
0.25
 40
0.25
 40
0.25
 40
0.375
 40
0.375
 40
0.375
 40
0.375
 40
0.5
 40
0.5
 40
0.5
 40
0.5
 40
0.625
 40
0.625
 40
0.625
 40
0.625
 40
0.75
 40
0.75
 40
0.75
 40
0.75
 40
0.875
 40
0.875
 40
0.875
 40
0.875
 40
1.0
 40
1.0
 40
1.0
 40
1.0
 10
-10.02745
 20
-14.52968
 30
0.0
 10
-10.02745
 20
-14.54673
 30
0.0
 10
-10.03112
 20
-14.55988
 30
0.0
 10
-10.03848
 20
-14.56914
 30
0.0
 10
-10.03848
 20
-14.56914
 30
0.0
 10
-10.04582
 20
-14.57839
 30
0.0
 10
-10.05626
 20
-14.58302
 30
0.0
 10
-10.06976
 20
-14.58302
 30
0.0
 10
-10.06976
 20
-14.58302
 30
0.0
 10
-10.08331
 20
-14.58302
 30
0.0
 10
-10.09377
 20
-14.57839
 30
0.0
 10
-10.10111
 20
-14.56914
 30
0.0
 10
-10.10111
 20
-14.56914
 30
0.0
 10
-10.10847
 20
-14.55988
 30
0.0
 10
-10.11214
 20
-14.54673
 30
0.0
 10
-10.11214
 20
-14.52968
 30
0.0
 10
-10.11214
 20
-14.52968
 30
0.0
 10
-10.11214
 20
-14.51261
 30
0.0
 10
-10.10847
 20
-14.49943
 30
0.0
 10
-10.10111
 20
-14.49017
 30
0.0
 10
-10.10111
 20
-14.49017
 30
0.0
 10
-10.09377
 20
-14.48093
 30
0.0
 10
-10.08331
 20
-14.47629
 30
0.0
 10
-10.06976
 20
-14.47629
 30
0.0
 10
-10.06976
 20
-14.47629
 30
0.0
 10
-10.05626
 20
-14.47629
 30
0.0
 10
-10.04582
 20
-14.48093
 30
0.0
 10
-10.03848
 20
-14.49017
 30
0.0
 10
-10.03848
 20
-14.49017
 30
0.0
 10
-10.03112
 20
-14.49943
 30
0.0
 10
-10.02745
 20
-14.51261
 30
0.0
 10
-10.02745
 20
-14.52968
 30
0.0
  0
SPLINE
  5
77
330
1F
100
AcDbEntity
  8
Layer 1
 62
   250
100
AcDbSpline
210
0.0
220
0.0
230
1.0
 70
    11
 71
     3
 72
    36
 73
    32
 74
     0
 42
0.0000000001
 43
0.0000000001
 40
0.0
 40
0.0
 40
0.0
 40
0.0
 40
0.125
 40
0.125
 40
0.125
 40
0.125
 40
0.25
 40
0.25
 40
0.25
 40
0.25
 40
0.375
 40
0.375
 40
0.375
 40
0.375
 40
0.5
 40
0.5
 40
0.5
 40
0.5
 40
0.625
 40
0.625
 40
0.625
 40
0.625
 40
0.75
 40
0.75
 40
0.75
 40
0.75
 40
0.875
 40
0.875
 40
0.875
 40
0.875
 40
1.0
 40
1.0
 40
1.0
 40
1.0
 10
-9.95579
 20
-14.52949
 30
0.0
 10
-9.95579
 20
-14.51663
 30
0.0
 10
-9.95699
 20
-14.50757
 30
0.0
 10
-9.95941
 20
-14.5023
 30
0.0
 10
-9.95941
 20
-14.5023
 30
0.0
 10
-9.96181
 20
-14.49706
 30
0.0
 10
-9.96588
 20
-14.49443
 30
0.0
 10
-9.97157
 20
-14.49443
 30
0.0
 10
-9.97157
 20
-14.49443
 30
0.0
 10
-9.97726
 20
-14.49443
 30
0.0
 10
-9.98133
 20
-14.49706
 30
0.0
 10
-9.98378
 20
-14.5023
 30
0.0
 10
-9.98378
 20
-14.5023
 30
0.0
 10
-9.9862
 20
-14.50757
 30
0.0
 10
-9.98742
 20
-14.51663
 30
0.0
 10
-9.98742
 20
-14.52949
 30
0.0
 10
-9.98742
 20
-14.52949
 30
0.0
 10
-9.98742
 20
-14.54247
 30
0.0
 10
-9.9862
 20
-14.55165
 30
0.0
 10
-9.98378
 20
-14.55696
 30
0.0
 10
-9.98378
 20
-14.55696
 30
0.0
 10
-9.98133
 20
-14.5623
 30
0.0
 10
-9.97726
 20
-14.56496
 30
0.0
 10
-9.97157
 20
-14.56496
 30
0.0
 10
-9.97157
 20
-14.56496
 30
0.0
 10
-9.96593
 20
-14.56496
 30
0.0
 10
-9.96188
 20
-14.5623
 30
0.0
 10
-9.95943
 20
-14.55696
 30
0.0
 10
-9.95943
 20
-14.55696
 30
0.0
 10
-9.95701
 20
-14.55165
 30
0.0
 10
-9.95579
 20
-14.54247
 30
0.0
 10
-9.95579
 20
-14.52949
 30
0.0
  0
SPLINE
  5
78
330
1F
100
AcDbEntity
  8
Layer 1
 62
   250
100
AcDbSpline
210
0.0
220
0.0
230
1.0
 70
    11
 71
     3
 72
    36
 73
    32
 74
     0
 42
0.0000000001
 43
0.0000000001
 40
0.0
 40
0.0
 40
0.0
 40
0.0
 40
0.125
 40
0.125
 40
0.125
 40
0.125
 40
0.25
 40
0.25
 40
0.25
 40
0.25
 40
0.375
 40
0.375
 40
0.375
 40
0.375
 40
0.5
 40
0.5
 40
0.5
 40
0.5
 40
0.625
 40
0.625
 40
0.625
 40
0.625
 40
0.75
 40
0.75
 40
0.75
 40
0.75
 40
0.875
 40
0.875
 40
0.875
 40
0.875
 40
1.0
 40
1.0
 40
1.0
 40
1.0
 10
-9.92926
 20
-14.52968
 30
0.0
 10
-9.92926
 20
-14.54673
 30
0.0
 10
-9.93293
 20
-14.55988
 30
0.0
 10
-9.94029
 20
-14.56914
 30
0.0
 10
-9.94029
 20
-14.56914
 30
0.0
 10
-9.94763
 20
-14.57839
 30
0.0
 10
-9.95807
 20
-14.58302
 30
0.0
 10
-9.97157
 20
-14.58302
 30
0.0
 10
-9.97157
 20
-14.58302
 30
0.0
 10
-9.98512
 20
-14.58302
 30
0.0
 10
-9.99558
 20
-14.57839
 30
0.0
 10
-10.00292
 20
-14.56914
 30
0.0
 10
-10.00292
 20
-14.56914
 30
0.0
 10
-10.01028
 20
-14.55988
 30
0.0
 10
-10.01395
 20
-14.54673
 30
0.0
 10
-10.01395
 20
-14.52968
 30
0.0
 10
-10.01395
 20
-14.52968
 30
0.0
 10
-10.01395
 20
-14.51261
 30
0.0
 10
-10.01028
 20
-14.49943
 30
0.0
 10
-10.00292
 20
-14.49017
 30
0.0
 10
-10.00292
 20
-14.49017
 30
0.0
 10
-9.99558
 20
-14.48093
 30
0.0
 10
-9.98512
 20
-14.47629
 30
0.0
 10
-9.97157
 20
-14.47629
 30
0.0
 10
-9.97157
 20
-14.47629
 30
0.0
 10
-9.95807
 20
-14.47629
 30
0.0
 10
-9.94763
 20
-14.48093
 30
0.0
 10
-9.94029
 20
-14.49017
 30
0.0
 10
-9.94029
 20
-14.49017
 30
0.0
 10
-9.93293
 20
-14.49943
 30
0.0
 10
-9.92926
 20
-14.51261
 30
0.0
 10
-9.92926
 20
-14.52968
 30
0.0
  0
SPLINE
  5
79
330
1F
100
AcDbEntity
  8
Layer 1
 62
   250
100
AcDbSpline
210
0.0
220
0.0
230
1.0
 70
    11
 71
     3
 72
    56
 73
    52
 74
     0
 42
0.0000000001
 43
0.0000000001
 40
0.0
 40
0.0
 40
0.0
 40
0.0
 40
0.0769230769230769
 40
0.0769230769230769
 40
0.0769230769230769
 40
0.0769230769230769
 40
0.1538461538461539
 40
0.1538461538461539
 40
0.1538461538461539
 40
0.1538461538461539
 40
0.2307692307692308
 40
0.2307692307692308
 40
0.2307692307692308
 40
0.2307692307692308
 40
0.3076923076923077
 40
0.3076923076923077
 40
0.3076923076923077
 40
0.3076923076923077
 40
0.3846153846153846
 40
0.3846153846153846
 40
0.3846153846153846
 40
0.3846153846153846
 40
0.4615384615384616
 40
0.4615384615384616
 40
0.4615384615384616
 40
0.4615384615384616
 40
0.5384615384615385
 40
0.5384615384615385
 40
0.5384615384615385
 40
0.5384615384615385
 40
0.6153846153846154
 40
0.6153846153846154
 40
0.6153846153846154
 40
0.6153846153846154
 40
0.6923076923076923
 40
0.6923076923076923
 40
0.6923076923076923
 40
0.6923076923076923
 40
0.7692307692307692
 40
0.7692307692307692
 40
0.7692307692307692
 40
0.7692307692307692
 40
0.846153846153846
 40
0.846153846153846
 40
0.846153846153846
 40
0.846153846153846
 40
0.9230769230769229
 40
0.9230769230769229
 40
0.9230769230769229
 40
0.9230769230769229
 40
1.0
 40
1.0
 40
1.0
 40
1.0
 10
-9.86042
 20
-14.47815
 30
0.0
 10
-9.86042
 20
-14.47815
 30
0.0
 10
-9.82667
 20
-14.47815
 30
0.0
 10
-9.82667
 20
-14.47815
 30
0.0
 10
-9.82667
 20
-14.47815
 30
0.0
 10
-9.82667
 20
-14.47815
 30
0.0
 10
-9.80322
 20
-14.53321
 30
0.0
 10
-9.80322
 20
-14.53321
 30
0.0
 10
-9.80322
 20
-14.53321
 30
0.0
 10
-9.80322
 20
-14.53321
 30
0.0
 10
-9.77966
 20
-14.47815
 30
0.0
 10
-9.77966
 20
-14.47815
 30
0.0
 10
-9.77966
 20
-14.47815
 30
0.0
 10
-9.77966
 20
-14.47815
 30
0.0
 10
-9.74598
 20
-14.47815
 30
0.0
 10
-9.74598
 20
-14.47815
 30
0.0
 10
-9.74598
 20
-14.47815
 30
0.0
 10
-9.74598
 20
-14.47815
 30
0.0
 10
-9.74598
 20
-14.58102
 30
0.0
 10
-9.74598
 20
-14.58102
 30
0.0
 10
-9.74598
 20
-14.58102
 30
0.0
 10
-9.74598
 20
-14.58102
 30
0.0
 10
-9.77105
 20
-14.58102
 30
0.0
 10
-9.77105
 20
-14.58102
 30
0.0
 10
-9.77105
 20
-14.58102
 30
0.0
 10
-9.77105
 20
-14.58102
 30
0.0
 10
-9.77105
 20
-14.50578
 30
0.0
 10
-9.77105
 20
-14.50578
 30
0.0
 10
-9.77105
 20
-14.50578
 30
0.0
 10
-9.77105
 20
-14.50578
 30
0.0
 10
-9.79476
 20
-14.56124
 30
0.0
 10
-9.79476
 20
-14.56124
 30
0.0
 10
-9.79476
 20
-14.56124
 30
0.0
 10
-9.79476
 20
-14.56124
 30
0.0
 10
-9.81157
 20
-14.56124
 30
0.0
 10
-9.81157
 20
-14.56124
 30
0.0
 10
-9.81157
 20
-14.56124
 30
0.0
 10
-9.81157
 20
-14.56124
 30
0.0
 10
-9.83528
 20
-14.50578
 30
0.0
 10
-9.83528
 20
-14.50578
 30
0.0
 10
-9.83528
 20
-14.50578
 30
0.0
 10
-9.83528
 20
-14.50578
 30
0.0
 10
-9.83528
 20
-14.58102
 30
0.0
 10
-9.83528
 20
-14.58102
 30
0.0
 10
-9.83528
 20
-14.58102
 30
0.0
 10
-9.83528
 20
-14.58102
 30
0.0
 10
-9.86042
 20
-14.58102
 30
0.0
 10
-9.86042
 20
-14.58102
 30
0.0
 10
-9.86042
 20
-14.58102
 30
0.0
 10
-9.86042
 20
-14.58102
 30
0.0
 10
-9.86042
 20
-14.47815
 30
0.0
 10
-9.86042
 20
-14.47815
 30
0.0
  0
SPLINE
  5
7A
330
1F
100
AcDbEntity
  8
Layer 1
 62
   250
100
AcDbSpline
210
0.0
220
0.0
230
1.0
 70
    11
 71
     3
 72
    36
 73
    32
 74
     0
 42
0.0000000001
 43
0.0000000001
 40
0.0
 40
0.0
 40
0.0
 40
0.0
 40
0.125
 40
0.125
 40
0.125
 40
0.125
 40
0.25
 40
0.25
 40
0.25
 40
0.25
 40
0.375
 40
0.375
 40
0.375
 40
0.375
 40
0.5
 40
0.5
 40
0.5
 40
0.5
 40
0.625
 40
0.625
 40
0.625
 40
0.625
 40
0.75
 40
0.75
 40
0.75
 40
0.75
 40
0.875
 40
0.875
 40
0.875
 40
0.875
 40
1.0
 40
1.0
 40
1.0
 40
1.0
 10
-9.65757
 20
-14.5623
 30
0.0
 10
-9.65757
 20
-14.5623
 30
0.0
 10
-9.69906
 20
-14.5623
 30
0.0
 10
-9.69906
 20
-14.5623
 30
0.0
 10
-9.69906
 20
-14.5623
 30
0.0
 10
-9.69906
 20
-14.5623
 30
0.0
 10
-9.7056
 20
-14.58102
 30
0.0
 10
-9.7056
 20
-14.58102
 30
0.0
 10
-9.7056
 20
-14.58102
 30
0.0
 10
-9.7056
 20
-14.58102
 30
0.0
 10
-9.73227
 20
-14.58102
 30
0.0
 10
-9.73227
 20
-14.58102
 30
0.0
 10
-9.73227
 20
-14.58102
 30
0.0
 10
-9.73227
 20
-14.58102
 30
0.0
 10
-9.69417
 20
-14.47815
 30
0.0
 10
-9.69417
 20
-14.47815
 30
0.0
 10
-9.69417
 20
-14.47815
 30
0.0
 10
-9.69417
 20
-14.47815
 30
0.0
 10
-9.66254
 20
-14.47815
 30
0.0
 10
-9.66254
 20
-14.47815
 30
0.0
 10
-9.66254
 20
-14.47815
 30
0.0
 10
-9.66254
 20
-14.47815
 30
0.0
 10
-9.62444
 20
-14.58102
 30
0.0
 10
-9.62444
 20
-14.58102
 30
0.0
 10
-9.62444
 20
-14.58102
 30
0.0
 10
-9.62444
 20
-14.58102
 30
0.0
 10
-9.65111
 20
-14.58102
 30
0.0
 10
-9.65111
 20
-14.58102
 30
0.0
 10
-9.65111
 20
-14.58102
 30
0.0
 10
-9.65111
 20
-14.58102
 30
0.0
 10
-9.65757
 20
-14.5623
 30
0.0
 10
-9.65757
 20
-14.5623
 30
0.0
  0
SPLINE
  5
7B
330
1F
100
AcDbEntity
  8
Layer 1
 62
   250
100
AcDbSpline
210
0.0
220
0.0
230
1.0
 70
    11
 71
     3
 72
    16
 73
    12
 74
     0
 42
0.0000000001
 43
0.0000000001
 40
0.0
 40
0.0
 40
0.0
 40
0.0
 40
0.3333333333333333
 40
0.3333333333333333
 40
0.3333333333333333
 40
0.3333333333333333
 40
0.6666666666666666
 40
0.6666666666666666
 40
0.6666666666666666
 40
0.6666666666666666
 40
1.0
 40
1.0
 40
1.0
 40
1.0
 10
-9.69245
 20
-14.5432
 30
0.0
 10
-9.69245
 20
-14.5432
 30
0.0
 10
-9.66425
 20
-14.5432
 30
0.0
 10
-9.66425
 20
-14.5432
 30
0.0
 10
-9.66425
 20
-14.5432
 30
0.0
 10
-9.66425
 20
-14.5432
 30
0.0
 10
-9.67832
 20
-14.50228
 30
0.0
 10
-9.67832
 20
-14.50228
 30
0.0
 10
-9.67832
 20
-14.50228
 30
0.0
 10
-9.67832
 20
-14.50228
 30
0.0
 10
-9.69245
 20
-14.5432
 30
0.0
 10
-9.69245
 20
-14.5432
 30
0.0
  0
SPLINE
  5
7C
330
1F
100
AcDbEntity
  8
Layer 1
 62
   250
100
AcDbSpline
210
0.0
220
0.0
230
1.0
 70
    11
 71
     3
 72
    44
 73
    40
 74
     0
 42
0.0000000001
 43
0.0000000001
 40
0.0
 40
0.0
 40
0.0
 40
0.0
 40
0.1
 40
0.1
 40
0.1
 40
0.1
 40
0.2
 40
0.2
 40
0.2
 40
0.2
 40
0.3
 40
0.3
 40
0.3
 40
0.3
 40
0.4
 40
0.4
 40
0.4
 40
0.4
 40
0.5
 40
0.5
 40
0.5
 40
0.5
 40
0.6
 40
0.6
 40
0.6
 40
0.6
 40
0.7
 40
0.7
 40
0.7
 40
0.7
 40
0.7999999999999999
 40
0.7999999999999999
 40
0.7999999999999999
 40
0.7999999999999999
 40
0.8999999999999999
 40
0.8999999999999999
 40
0.8999999999999999
 40
0.8999999999999999
 40
1.0
 40
1.0
 40
1.0
 40
1.0
 10
-11.18782
 20
-14.6424
 30
0.0
 10
-11.18782
 20
-14.6424
 30
0.0
 10
-11.15819
 20
-14.6424
 30
0.0
 10
-11.15819
 20
-14.6424
 30
0.0
 10
-11.15819
 20
-14.6424
 30
0.0
 10
-11.15819
 20
-14.6424
 30
0.0
 10
-11.12077
 20
-14.71296
 30
0.0
 10
-11.12077
 20
-14.71296
 30
0.0
 10
-11.12077
 20
-14.71296
 30
0.0
 10
-11.12077
 20
-14.71296
 30
0.0
 10
-11.12077
 20
-14.6424
 30
0.0
 10
-11.12077
 20
-14.6424
 30
0.0
 10
-11.12077
 20
-14.6424
 30
0.0
 10
-11.12077
 20
-14.6424
 30
0.0
 10
-11.09563
 20
-14.6424
 30
0.0
 10
-11.09563
 20
-14.6424
 30
0.0
 10
-11.09563
 20
-14.6424
 30
0.0
 10
-11.09563
 20
-14.6424
 30
0.0
 10
-11.09563
 20
-14.74527
 30
0.0
 10
-11.09563
 20
-14.74527
 30
0.0
 10
-11.09563
 20
-14.74527
 30
0.0
 10
-11.09563
 20
-14.74527
 30
0.0
 10
-11.12526
 20
-14.74527
 30
0.0
 10
-11.12526
 20
-14.74527
 30
0.0
 10
-11.12526
 20
-14.74527
 30
0.0
 10
-11.12526
 20
-14.74527
 30
0.0
 10
-11.16268
 20
-14.67471
 30
0.0
 10
-11.16268
 20
-14.67471
 30
0.0
 10
-11.16268
 20
-14.67471
 30
0.0
 10
-11.16268
 20
-14.67471
 30
0.0
 10
-11.16268
 20
-14.74527
 30
0.0
 10
-11.16268
 20
-14.74527
 30
0.0
 10
-11.16268
 20
-14.74527
 30
0.0
 10
-11.16268
 20
-14.74527
 30
0.0
 10
-11.18782
 20
-14.74527
 30
0.0
 10
-11.18782
 20
-14.74527
 30
0.0
 10
-11.18782
 20
-14.74527
 30
0.0
 10
-11.18782
 20
-14.74527
 30
0.0
 10
-11.18782
 20
-14.6424
 30
0.0
 10
-11.18782
 20
-14.6424
 30
0.0
  0
SPLINE
  5
7D
330
1F
100
AcDbEntity
  8
Layer 1
 62
   250
100
AcDbSpline
210
0.0
220
0.0
230
1.0
 70
    11
 71
     3
 72
    40
 73
    36
 74
     0
 42
0.0000000001
 43
0.0000000001
 40
0.0
 40
0.0
 40
0.0
 40
0.0
 40
0.1111111111111111
 40
0.1111111111111111
 40
0.1111111111111111
 40
0.1111111111111111
 40
0.2222222222222222
 40
0.2222222222222222
 40
0.2222222222222222
 40
0.2222222222222222
 40
0.3333333333333333
 40
0.3333333333333333
 40
0.3333333333333333
 40
0.3333333333333333
 40
0.4444444444444444
 40
0.4444444444444444
 40
0.4444444444444444
 40
0.4444444444444444
 40
0.5555555555555556
 40
0.5555555555555556
 40
0.5555555555555556
 40
0.5555555555555556
 40
0.6666666666666667
 40
0.6666666666666667
 40
0.6666666666666667
 40
0.6666666666666667
 40
0.7777777777777779
 40
0.7777777777777779
 40
0.7777777777777779
 40
0.7777777777777779
 40
0.8888888888888891
 40
0.8888888888888891
 40
0.8888888888888891
 40
0.8888888888888891
 40
1.0
 40
1.0
 40
1.0
 40
1.0
 10
-11.06973
 20
-14.6424
 30
0.0
 10
-11.06973
 20
-14.6424
 30
0.0
 10
-11.02571
 20
-14.6424
 30
0.0
 10
-11.02571
 20
-14.6424
 30
0.0
 10
-11.02571
 20
-14.6424
 30
0.0
 10
-11.01261
 20
-14.6424
 30
0.0
 10
-11.00256
 20
-14.64532
 30
0.0
 10
-10.99555
 20
-14.65113
 30
0.0
 10
-10.99555
 20
-14.65113
 30
0.0
 10
-10.98855
 20
-14.65694
 30
0.0
 10
-10.98504
 20
-14.66521
 30
0.0
 10
-10.98504
 20
-14.67596
 30
0.0
 10
-10.98504
 20
-14.67596
 30
0.0
 10
-10.98504
 20
-14.68673
 30
0.0
 10
-10.98855
 20
-14.69503
 30
0.0
 10
-10.99555
 20
-14.70084
 30
0.0
 10
-10.99555
 20
-14.70084
 30
0.0
 10
-11.00256
 20
-14.70665
 30
0.0
 10
-11.01261
 20
-14.70957
 30
0.0
 10
-11.02571
 20
-14.70957
 30
0.0
 10
-11.02571
 20
-14.70957
 30
0.0
 10
-11.02571
 20
-14.70957
 30
0.0
 10
-11.0432
 20
-14.70957
 30
0.0
 10
-11.0432
 20
-14.70957
 30
0.0
 10
-11.0432
 20
-14.70957
 30
0.0
 10
-11.0432
 20
-14.70957
 30
0.0
 10
-11.0432
 20
-14.74527
 30
0.0
 10
-11.0432
 20
-14.74527
 30
0.0
 10
-11.0432
 20
-14.74527
 30
0.0
 10
-11.0432
 20
-14.74527
 30
0.0
 10
-11.06973
 20
-14.74527
 30
0.0
 10
-11.06973
 20
-14.74527
 30
0.0
 10
-11.06973
 20
-14.74527
 30
0.0
 10
-11.06973
 20
-14.74527
 30
0.0
 10
-11.06973
 20
-14.6424
 30
0.0
 10
-11.06973
 20
-14.6424
 30
0.0
  0
SPLINE
  5
7E
330
1F
100
AcDbEntity
  8
Layer 1
 62
   250
100
AcDbSpline
210
0.0
220
0.0
230
1.0
 70
    11
 71
     3
 72
    32
 73
    28
 74
     0
 42
0.0000000001
 43
0.0000000001
 40
0.0
 40
0.0
 40
0.0
 40
0.0
 40
0.1428571428571428
 40
0.1428571428571428
 40
0.1428571428571428
 40
0.1428571428571428
 40
0.2857142857142857
 40
0.2857142857142857
 40
0.2857142857142857
 40
0.2857142857142857
 40
0.4285714285714285
 40
0.4285714285714285
 40
0.4285714285714285
 40
0.4285714285714285
 40
0.5714285714285714
 40
0.5714285714285714
 40
0.5714285714285714
 40
0.5714285714285714
 40
0.7142857142857142
 40
0.7142857142857142
 40
0.7142857142857142
 40
0.7142857142857142
 40
0.857142857142857
 40
0.857142857142857
 40
0.857142857142857
 40
0.857142857142857
 40
1.0
 40
1.0
 40
1.0
 40
1.0
 10
-11.0432
 20
-14.66162
 30
0.0
 10
-11.0432
 20
-14.66162
 30
0.0
 10
-11.0432
 20
-14.69035
 30
0.0
 10
-11.0432
 20
-14.69035
 30
0.0
 10
-11.0432
 20
-14.69035
 30
0.0
 10
-11.0432
 20
-14.69035
 30
0.0
 10
-11.02853
 20
-14.69035
 30
0.0
 10
-11.02853
 20
-14.69035
 30
0.0
 10
-11.02853
 20
-14.69035
 30
0.0
 10
-11.02338
 20
-14.69035
 30
0.0
 10
-11.0194
 20
-14.68911
 30
0.0
 10
-11.0166
 20
-14.68659
 30
0.0
 10
-11.0166
 20
-14.68659
 30
0.0
 10
-11.0138
 20
-14.6841
 30
0.0
 10
-11.01239
 20
-14.68055
 30
0.0
 10
-11.01239
 20
-14.67596
 30
0.0
 10
-11.01239
 20
-14.67596
 30
0.0
 10
-11.01239
 20
-14.67135
 30
0.0
 10
-11.0138
 20
-14.66782
 30
0.0
 10
-11.0166
 20
-14.66533
 30
0.0
 10
-11.0166
 20
-14.66533
 30
0.0
 10
-11.0194
 20
-14.66286
 30
0.0
 10
-11.02338
 20
-14.66162
 30
0.0
 10
-11.02853
 20
-14.66162
 30
0.0
 10
-11.02853
 20
-14.66162
 30
0.0
 10
-11.02853
 20
-14.66162
 30
0.0
 10
-11.0432
 20
-14.66162
 30
0.0
 10
-11.0432
 20
-14.66162
 30
0.0
  0
SPLINE
  5
7F
330
1F
100
AcDbEntity
  8
Layer 1
 62
   250
100
AcDbSpline
210
0.0
220
0.0
230
1.0
 70
    11
 71
     3
 72
    44
 73
    40
 74
     0
 42
0.0000000001
 43
0.0000000001
 40
0.0
 40
0.0
 40
0.0
 40
0.0
 40
0.1
 40
0.1
 40
0.1
 40
0.1
 40
0.2
 40
0.2
 40
0.2
 40
0.2
 40
0.3
 40
0.3
 40
0.3
 40
0.3
 40
0.4
 40
0.4
 40
0.4
 40
0.4
 40
0.5
 40
0.5
 40
0.5
 40
0.5
 40
0.6
 40
0.6
 40
0.6
 40
0.6
 40
0.7
 40
0.7
 40
0.7
 40
0.7
 40
0.7999999999999999
 40
0.7999999999999999
 40
0.7999999999999999
 40
0.7999999999999999
 40
0.8999999999999999
 40
0.8999999999999999
 40
0.8999999999999999
 40
0.8999999999999999
 40
1.0
 40
1.0
 40
1.0
 40
1.0
 10
-10.96632
 20
-14.6424
 30
0.0
 10
-10.96632
 20
-14.6424
 30
0.0
 10
-10.93669
 20
-14.6424
 30
0.0
 10
-10.93669
 20
-14.6424
 30
0.0
 10
-10.93669
 20
-14.6424
 30
0.0
 10
-10.93669
 20
-14.6424
 30
0.0
 10
-10.89927
 20
-14.71296
 30
0.0
 10
-10.89927
 20
-14.71296
 30
0.0
 10
-10.89927
 20
-14.71296
 30
0.0
 10
-10.89927
 20
-14.71296
 30
0.0
 10
-10.89927
 20
-14.6424
 30
0.0
 10
-10.89927
 20
-14.6424
 30
0.0
 10
-10.89927
 20
-14.6424
 30
0.0
 10
-10.89927
 20
-14.6424
 30
0.0
 10
-10.87413
 20
-14.6424
 30
0.0
 10
-10.87413
 20
-14.6424
 30
0.0
 10
-10.87413
 20
-14.6424
 30
0.0
 10
-10.87413
 20
-14.6424
 30
0.0
 10
-10.87413
 20
-14.74527
 30
0.0
 10
-10.87413
 20
-14.74527
 30
0.0
 10
-10.87413
 20
-14.74527
 30
0.0
 10
-10.87413
 20
-14.74527
 30
0.0
 10
-10.90376
 20
-14.74527
 30
0.0
 10
-10.90376
 20
-14.74527
 30
0.0
 10
-10.90376
 20
-14.74527
 30
0.0
 10
-10.90376
 20
-14.74527
 30
0.0
 10
-10.94118
 20
-14.67471
 30
0.0
 10
-10.94118
 20
-14.67471
 30
0.0
 10
-10.94118
 20
-14.67471
 30
0.0
 10
-10.94118
 20
-14.67471
 30
0.0
 10
-10.94118
 20
-14.74527
 30
0.0
 10
-10.94118
 20
-14.74527
 30
0.0
 10
-10.94118
 20
-14.74527
 30
0.0
 10
-10.94118
 20
-14.74527
 30
0.0
 10
-10.96632
 20
-14.74527
 30
0.0
 10
-10.96632
 20
-14.74527
 30
0.0
 10
-10.96632
 20
-14.74527
 30
0.0
 10
-10.96632
 20
-14.74527
 30
0.0
 10
-10.96632
 20
-14.6424
 30
0.0
 10
-10.96632
 20
-14.6424
 30
0.0
  0
SPLINE
  5
80
330
1F
100
AcDbEntity
  8
Layer 1
 62
   250
100
AcDbSpline
210
0.0
220
0.0
230
1.0
 70
    11
 71
     3
 72
    36
 73
    32
 74
     0
 42
0.0000000001
 43
0.0000000001
 40
0.0
 40
0.0
 40
0.0
 40
0.0
 40
0.125
 40
0.125
 40
0.125
 40
0.125
 40
0.25
 40
0.25
 40
0.25
 40
0.25
 40
0.375
 40
0.375
 40
0.375
 40
0.375
 40
0.5
 40
0.5
 40
0.5
 40
0.5
 40
0.625
 40
0.625
 40
0.625
 40
0.625
 40
0.75
 40
0.75
 40
0.75
 40
0.75
 40
0.875
 40
0.875
 40
0.875
 40
0.875
 40
1.0
 40
1.0
 40
1.0
 40
1.0
 10
-10.81138
 20
-14.6424
 30
0.0
 10
-10.81138
 20
-14.6424
 30
0.0
 10
-10.71658
 20
-14.6424
 30
0.0
 10
-10.71658
 20
-14.6424
 30
0.0
 10
-10.71658
 20
-14.6424
 30
0.0
 10
-10.71658
 20
-14.6424
 30
0.0
 10
-10.71658
 20
-14.66246
 30
0.0
 10
-10.71658
 20
-14.66246
 30
0.0
 10
-10.71658
 20
-14.66246
 30
0.0
 10
-10.71658
 20
-14.66246
 30
0.0
 10
-10.75068
 20
-14.66246
 30
0.0
 10
-10.75068
 20
-14.66246
 30
0.0
 10
-10.75068
 20
-14.66246
 30
0.0
 10
-10.75068
 20
-14.66246
 30
0.0
 10
-10.75068
 20
-14.74527
 30
0.0
 10
-10.75068
 20
-14.74527
 30
0.0
 10
-10.75068
 20
-14.74527
 30
0.0
 10
-10.75068
 20
-14.74527
 30
0.0
 10
-10.77721
 20
-14.74527
 30
0.0
 10
-10.77721
 20
-14.74527
 30
0.0
 10
-10.77721
 20
-14.74527
 30
0.0
 10
-10.77721
 20
-14.74527
 30
0.0
 10
-10.77721
 20
-14.66246
 30
0.0
 10
-10.77721
 20
-14.66246
 30
0.0
 10
-10.77721
 20
-14.66246
 30
0.0
 10
-10.77721
 20
-14.66246
 30
0.0
 10
-10.81138
 20
-14.66246
 30
0.0
 10
-10.81138
 20
-14.66246
 30
0.0
 10
-10.81138
 20
-14.66246
 30
0.0
 10
-10.81138
 20
-14.66246
 30
0.0
 10
-10.81138
 20
-14.6424
 30
0.0
 10
-10.81138
 20
-14.6424
 30
0.0
  0
SPLINE
  5
81
330
1F
100
AcDbEntity
  8
Layer 1
 62
   250
100
AcDbSpline
210
0.0
220
0.0
230
1.0
 70
    11
 71
     3
 72
    32
 73
    28
 74
     0
 42
0.0000000001
 43
0.0000000001
 40
0.0
 40
0.0
 40
0.0
 40
0.0
 40
0.1428571428571428
 40
0.1428571428571428
 40
0.1428571428571428
 40
0.1428571428571428
 40
0.2857142857142857
 40
0.2857142857142857
 40
0.2857142857142857
 40
0.2857142857142857
 40
0.4285714285714285
 40
0.4285714285714285
 40
0.4285714285714285
 40
0.4285714285714285
 40
0.5714285714285714
 40
0.5714285714285714
 40
0.5714285714285714
 40
0.5714285714285714
 40
0.7142857142857142
 40
0.7142857142857142
 40
0.7142857142857142
 40
0.7142857142857142
 40
0.857142857142857
 40
0.857142857142857
 40
0.857142857142857
 40
0.857142857142857
 40
1.0
 40
1.0
 40
1.0
 40
1.0
 10
-10.66514
 20
-14.68803
 30
0.0
 10
-10.65959
 20
-14.68803
 30
0.0
 10
-10.65559
 20
-14.68699
 30
0.0
 10
-10.65319
 20
-14.68492
 30
0.0
 10
-10.65319
 20
-14.68492
 30
0.0
 10
-10.65077
 20
-14.68285
 30
0.0
 10
-10.64957
 20
-14.67944
 30
0.0
 10
-10.64957
 20
-14.67471
 30
0.0
 10
-10.64957
 20
-14.67471
 30
0.0
 10
-10.64957
 20
-14.67003
 30
0.0
 10
-10.65077
 20
-14.66667
 30
0.0
 10
-10.65319
 20
-14.66465
 30
0.0
 10
-10.65319
 20
-14.66465
 30
0.0
 10
-10.65559
 20
-14.66263
 30
0.0
 10
-10.65959
 20
-14.66162
 30
0.0
 10
-10.66514
 20
-14.66162
 30
0.0
 10
-10.66514
 20
-14.66162
 30
0.0
 10
-10.66514
 20
-14.66162
 30
0.0
 10
-10.67631
 20
-14.66162
 30
0.0
 10
-10.67631
 20
-14.66162
 30
0.0
 10
-10.67631
 20
-14.66162
 30
0.0
 10
-10.67631
 20
-14.66162
 30
0.0
 10
-10.67631
 20
-14.68803
 30
0.0
 10
-10.67631
 20
-14.68803
 30
0.0
 10
-10.67631
 20
-14.68803
 30
0.0
 10
-10.67631
 20
-14.68803
 30
0.0
 10
-10.66514
 20
-14.68803
 30
0.0
 10
-10.66514
 20
-14.68803
 30
0.0
  0
SPLINE
  5
82
330
1F
100
AcDbEntity
  8
Layer 1
 62
   250
100
AcDbSpline
210
0.0
220
0.0
230
1.0
 70
    11
 71
     3
 72
    68
 73
    64
 74
     0
 42
0.0000000001
 43
0.0000000001
 40
0.0
 40
0.0
 40
0.0
 40
0.0
 40
0.0625
 40
0.0625
 40
0.0625
 40
0.0625
 40
0.125
 40
0.125
 40
0.125
 40
0.125
 40
0.1875
 40
0.1875
 40
0.1875
 40
0.1875
 40
0.25
 40
0.25
 40
0.25
 40
0.25
 40
0.3125
 40
0.3125
 40
0.3125
 40
0.3125
 40
0.375
 40
0.375
 40
0.375
 40
0.375
 40
0.4375
 40
0.4375
 40
0.4375
 40
0.4375
 40
0.5
 40
0.5
 40
0.5
 40
0.5
 40
0.5625
 40
0.5625
 40
0.5625
 40
0.5625
 40
0.625
 40
0.625
 40
0.625
 40
0.625
 40
0.6875
 40
0.6875
 40
0.6875
 40
0.6875
 40
0.75
 40
0.75
 40
0.75
 40
0.75
 40
0.8125
 40
0.8125
 40
0.8125
 40
0.8125
 40
0.875
 40
0.875
 40
0.875
 40
0.875
 40
0.9375
 40
0.9375
 40
0.9375
 40
0.9375
 40
1.0
 40
1.0
 40
1.0
 40
1.0
 10
-10.67631
 20
-14.70635
 30
0.0
 10
-10.67631
 20
-14.70635
 30
0.0
 10
-10.67631
 20
-14.74527
 30
0.0
 10
-10.67631
 20
-14.74527
 30
0.0
 10
-10.67631
 20
-14.74527
 30
0.0
 10
-10.67631
 20
-14.74527
 30
0.0
 10
-10.70284
 20
-14.74527
 30
0.0
 10
-10.70284
 20
-14.74527
 30
0.0
 10
-10.70284
 20
-14.74527
 30
0.0
 10
-10.70284
 20
-14.74527
 30
0.0
 10
-10.70284
 20
-14.6424
 30
0.0
 10
-10.70284
 20
-14.6424
 30
0.0
 10
-10.70284
 20
-14.6424
 30
0.0
 10
-10.70284
 20
-14.6424
 30
0.0
 10
-10.66232
 20
-14.6424
 30
0.0
 10
-10.66232
 20
-14.6424
 30
0.0
 10
-10.66232
 20
-14.6424
 30
0.0
 10
-10.64877
 20
-14.6424
 30
0.0
 10
-10.63882
 20
-14.64468
 30
0.0
 10
-10.63252
 20
-14.64922
 30
0.0
 10
-10.63252
 20
-14.64922
 30
0.0
 10
-10.6262
 20
-14.65376
 30
0.0
 10
-10.62304
 20
-14.66096
 30
0.0
 10
-10.62304
 20
-14.67079
 30
0.0
 10
-10.62304
 20
-14.67079
 30
0.0
 10
-10.62304
 20
-14.67758
 30
0.0
 10
-10.62469
 20
-14.68318
 30
0.0
 10
-10.62796
 20
-14.68753
 30
0.0
 10
-10.62796
 20
-14.68753
 30
0.0
 10
-10.63125
 20
-14.69191
 30
0.0
 10
-10.63621
 20
-14.69513
 30
0.0
 10
-10.64282
 20
-14.69718
 30
0.0
 10
-10.64282
 20
-14.69718
 30
0.0
 10
-10.6392
 20
-14.69802
 30
0.0
 10
-10.63593
 20
-14.69988
 30
0.0
 10
-10.63306
 20
-14.7028
 30
0.0
 10
-10.63306
 20
-14.7028
 30
0.0
 10
-10.63019
 20
-14.70571
 30
0.0
 10
-10.6273
 20
-14.71013
 30
0.0
 10
-10.62436
 20
-14.71606
 30
0.0
 10
-10.62436
 20
-14.71606
 30
0.0
 10
-10.62436
 20
-14.71606
 30
0.0
 10
-10.60994
 20
-14.74527
 30
0.0
 10
-10.60994
 20
-14.74527
 30
0.0
 10
-10.60994
 20
-14.74527
 30
0.0
 10
-10.60994
 20
-14.74527
 30
0.0
 10
-10.63821
 20
-14.74527
 30
0.0
 10
-10.63821
 20
-14.74527
 30
0.0
 10
-10.63821
 20
-14.74527
 30
0.0
 10
-10.63821
 20
-14.74527
 30
0.0
 10
-10.65075
 20
-14.71971
 30
0.0
 10
-10.65075
 20
-14.71971
 30
0.0
 10
-10.65075
 20
-14.71971
 30
0.0
 10
-10.65326
 20
-14.71458
 30
0.0
 10
-10.65583
 20
-14.71105
 30
0.0
 10
-10.65844
 20
-14.70917
 30
0.0
 10
-10.65844
 20
-14.70917
 30
0.0
 10
-10.66103
 20
-14.70729
 30
0.0
 10
-10.66448
 20
-14.70635
 30
0.0
 10
-10.66881
 20
-14.70635
 30
0.0
 10
-10.66881
 20
-14.70635
 30
0.0
 10
-10.66881
 20
-14.70635
 30
0.0
 10
-10.67631
 20
-14.70635
 30
0.0
 10
-10.67631
 20
-14.70635
 30
0.0
  0
SPLINE
  5
83
330
1F
100
AcDbEntity
  8
Layer 1
 62
   250
100
AcDbSpline
210
0.0
220
0.0
230
1.0
 70
    11
 71
     3
 72
    36
 73
    32
 74
     0
 42
0.0000000001
 43
0.0000000001
 40
0.0
 40
0.0
 40
0.0
 40
0.0
 40
0.125
 40
0.125
 40
0.125
 40
0.125
 40
0.25
 40
0.25
 40
0.25
 40
0.25
 40
0.375
 40
0.375
 40
0.375
 40
0.375
 40
0.5
 40
0.5
 40
0.5
 40
0.5
 40
0.625
 40
0.625
 40
0.625
 40
0.625
 40
0.75
 40
0.75
 40
0.75
 40
0.75
 40
0.875
 40
0.875
 40
0.875
 40
0.875
 40
1.0
 40
1.0
 40
1.0
 40
1.0
 10
-10.53177
 20
-14.72655
 30
0.0
 10
-10.53177
 20
-14.72655
 30
0.0
 10
-10.57326
 20
-14.72655
 30
0.0
 10
-10.57326
 20
-14.72655
 30
0.0
 10
-10.57326
 20
-14.72655
 30
0.0
 10
-10.57326
 20
-14.72655
 30
0.0
 10
-10.5798
 20
-14.74527
 30
0.0
 10
-10.5798
 20
-14.74527
 30
0.0
 10
-10.5798
 20
-14.74527
 30
0.0
 10
-10.5798
 20
-14.74527
 30
0.0
 10
-10.60647
 20
-14.74527
 30
0.0
 10
-10.60647
 20
-14.74527
 30
0.0
 10
-10.60647
 20
-14.74527
 30
0.0
 10
-10.60647
 20
-14.74527
 30
0.0
 10
-10.56837
 20
-14.6424
 30
0.0
 10
-10.56837
 20
-14.6424
 30
0.0
 10
-10.56837
 20
-14.6424
 30
0.0
 10
-10.56837
 20
-14.6424
 30
0.0
 10
-10.53674
 20
-14.6424
 30
0.0
 10
-10.53674
 20
-14.6424
 30
0.0
 10
-10.53674
 20
-14.6424
 30
0.0
 10
-10.53674
 20
-14.6424
 30
0.0
 10
-10.49864
 20
-14.74527
 30
0.0
 10
-10.49864
 20
-14.74527
 30
0.0
 10
-10.49864
 20
-14.74527
 30
0.0
 10
-10.49864
 20
-14.74527
 30
0.0
 10
-10.52531
 20
-14.74527
 30
0.0
 10
-10.52531
 20
-14.74527
 30
0.0
 10
-10.52531
 20
-14.74527
 30
0.0
 10
-10.52531
 20
-14.74527
 30
0.0
 10
-10.53177
 20
-14.72655
 30
0.0
 10
-10.53177
 20
-14.72655
 30
0.0
  0
SPLINE
  5
84
330
1F
100
AcDbEntity
  8
Layer 1
 62
   250
100
AcDbSpline
210
0.0
220
0.0
230
1.0
 70
    11
 71
     3
 72
    16
 73
    12
 74
     0
 42
0.0000000001
 43
0.0000000001
 40
0.0
 40
0.0
 40
0.0
 40
0.0
 40
0.3333333333333333
 40
0.3333333333333333
 40
0.3333333333333333
 40
0.3333333333333333
 40
0.6666666666666666
 40
0.6666666666666666
 40
0.6666666666666666
 40
0.6666666666666666
 40
1.0
 40
1.0
 40
1.0
 40
1.0
 10
-10.56665
 20
-14.70745
 30
0.0
 10
-10.56665
 20
-14.70745
 30
0.0
 10
-10.53845
 20
-14.70745
 30
0.0
 10
-10.53845
 20
-14.70745
 30
0.0
 10
-10.53845
 20
-14.70745
 30
0.0
 10
-10.53845
 20
-14.70745
 30
0.0
 10
-10.55252
 20
-14.66653
 30
0.0
 10
-10.55252
 20
-14.66653
 30
0.0
 10
-10.55252
 20
-14.66653
 30
0.0
 10
-10.55252
 20
-14.66653
 30
0.0
 10
-10.56665
 20
-14.70745
 30
0.0
 10
-10.56665
 20
-14.70745
 30
0.0
  0
SPLINE
  5
85
330
1F
100
AcDbEntity
  8
Layer 1
 62
   250
100
AcDbSpline
210
0.0
220
0.0
230
1.0
 70
    11
 71
     3
 72
    44
 73
    40
 74
     0
 42
0.0000000001
 43
0.0000000001
 40
0.0
 40
0.0
 40
0.0
 40
0.0
 40
0.1
 40
0.1
 40
0.1
 40
0.1
 40
0.2
 40
0.2
 40
0.2
 40
0.2
 40
0.3
 40
0.3
 40
0.3
 40
0.3
 40
0.4
 40
0.4
 40
0.4
 40
0.4
 40
0.5
 40
0.5
 40
0.5
 40
0.5
 40
0.6
 40
0.6
 40
0.6
 40
0.6
 40
0.7
 40
0.7
 40
0.7
 40
0.7
 40
0.7999999999999999
 40
0.7999999999999999
 40
0.7999999999999999
 40
0.7999999999999999
 40
0.8999999999999999
 40
0.8999999999999999
 40
0.8999999999999999
 40
0.8999999999999999
 40
1.0
 40
1.0
 40
1.0
 40
1.0
 10
-10.48497
 20
-14.6424
 30
0.0
 10
-10.48497
 20
-14.6424
 30
0.0
 10
-10.45534
 20
-14.6424
 30
0.0
 10
-10.45534
 20
-14.6424
 30
0.0
 10
-10.45534
 20
-14.6424
 30
0.0
 10
-10.45534
 20
-14.6424
 30
0.0
 10
-10.41792
 20
-14.71296
 30
0.0
 10
-10.41792
 20
-14.71296
 30
0.0
 10
-10.41792
 20
-14.71296
 30
0.0
 10
-10.41792
 20
-14.71296
 30
0.0
 10
-10.41792
 20
-14.6424
 30
0.0
 10
-10.41792
 20
-14.6424
 30
0.0
 10
-10.41792
 20
-14.6424
 30
0.0
 10
-10.41792
 20
-14.6424
 30
0.0
 10
-10.39278
 20
-14.6424
 30
0.0
 10
-10.39278
 20
-14.6424
 30
0.0
 10
-10.39278
 20
-14.6424
 30
0.0
 10
-10.39278
 20
-14.6424
 30
0.0
 10
-10.39278
 20
-14.74527
 30
0.0
 10
-10.39278
 20
-14.74527
 30
0.0
 10
-10.39278
 20
-14.74527
 30
0.0
 10
-10.39278
 20
-14.74527
 30
0.0
 10
-10.42241
 20
-14.74527
 30
0.0
 10
-10.42241
 20
-14.74527
 30
0.0
 10
-10.42241
 20
-14.74527
 30
0.0
 10
-10.42241
 20
-14.74527
 30
0.0
 10
-10.45983
 20
-14.67471
 30
0.0
 10
-10.45983
 20
-14.67471
 30
0.0
 10
-10.45983
 20
-14.67471
 30
0.0
 10
-10.45983
 20
-14.67471
 30
0.0
 10
-10.45983
 20
-14.74527
 30
0.0
 10
-10.45983
 20
-14.74527
 30
0.0
 10
-10.45983
 20
-14.74527
 30
0.0
 10
-10.45983
 20
-14.74527
 30
0.0
 10
-10.48497
 20
-14.74527
 30
0.0
 10
-10.48497
 20
-14.74527
 30
0.0
 10
-10.48497
 20
-14.74527
 30
0.0
 10
-10.48497
 20
-14.74527
 30
0.0
 10
-10.48497
 20
-14.6424
 30
0.0
 10
-10.48497
 20
-14.6424
 30
0.0
  0
SPLINE
  5
86
330
1F
100
AcDbEntity
  8
Layer 1
 62
   250
100
AcDbSpline
210
0.0
220
0.0
230
1.0
 70
    11
 71
     3
 72
   116
 73
   112
 74
     0
 42
0.0000000001
 43
0.0000000001
 40
0.0
 40
0.0
 40
0.0
 40
0.0
 40
0.0357142857142857
 40
0.0357142857142857
 40
0.0357142857142857
 40
0.0357142857142857
 40
0.0714285714285714
 40
0.0714285714285714
 40
0.0714285714285714
 40
0.0714285714285714
 40
0.1071428571428571
 40
0.1071428571428571
 40
0.1071428571428571
 40
0.1071428571428571
 40
0.1428571428571428
 40
0.1428571428571428
 40
0.1428571428571428
 40
0.1428571428571428
 40
0.1785714285714285
 40
0.1785714285714285
 40
0.1785714285714285
 40
0.1785714285714285
 40
0.2142857142857142
 40
0.2142857142857142
 40
0.2142857142857142
 40
0.2142857142857142
 40
0.2499999999999999
 40
0.2499999999999999
 40
0.2499999999999999
 40
0.2499999999999999
 40
0.2857142857142856
 40
0.2857142857142856
 40
0.2857142857142856
 40
0.2857142857142856
 40
0.3214285714285713
 40
0.3214285714285713
 40
0.3214285714285713
 40
0.3214285714285713
 40
0.357142857142857
 40
0.357142857142857
 40
0.357142857142857
 40
0.357142857142857
 40
0.3928571428571427
 40
0.3928571428571427
 40
0.3928571428571427
 40
0.3928571428571427
 40
0.4285714285714284
 40
0.4285714285714284
 40
0.4285714285714284
 40
0.4285714285714284
 40
0.4642857142857141
 40
0.4642857142857141
 40
0.4642857142857141
 40
0.4642857142857141
 40
0.4999999999999998
 40
0.4999999999999998
 40
0.4999999999999998
 40
0.4999999999999998
 40
0.5357142857142856
 40
0.5357142857142856
 40
0.5357142857142856
 40
0.5357142857142856
 40
0.5714285714285713
 40
0.5714285714285713
 40
0.5714285714285713
 40
0.5714285714285713
 40
0.607142857142857
 40
0.607142857142857
 40
0.607142857142857
 40
0.607142857142857
 40
0.6428571428571427
 40
0.6428571428571427
 40
0.6428571428571427
 40
0.6428571428571427
 40
0.6785714285714284
 40
0.6785714285714284
 40
0.6785714285714284
 40
0.6785714285714284
 40
0.7142857142857141
 40
0.7142857142857141
 40
0.7142857142857141
 40
0.7142857142857141
 40
0.7499999999999998
 40
0.7499999999999998
 40
0.7499999999999998
 40
0.7499999999999998
 40
0.7857142857142855
 40
0.7857142857142855
 40
0.7857142857142855
 40
0.7857142857142855
 40
0.8214285714285712
 40
0.8214285714285712
 40
0.8214285714285712
 40
0.8214285714285712
 40
0.8571428571428569
 40
0.8571428571428569
 40
0.8571428571428569
 40
0.8571428571428569
 40
0.8928571428571426
 40
0.8928571428571426
 40
0.8928571428571426
 40
0.8928571428571426
 40
0.9285714285714283
 40
0.9285714285714283
 40
0.9285714285714283
 40
0.9285714285714283
 40
0.964285714285714
 40
0.964285714285714
 40
0.964285714285714
 40
0.964285714285714
 40
1.0
 40
1.0
 40
1.0
 40
1.0
 10
-10.29529
 20
-14.64565
 30
0.0
 10
-10.29529
 20
-14.64565
 30
0.0
 10
-10.29529
 20
-14.6674
 30
0.0
 10
-10.29529
 20
-14.6674
 30
0.0
 10
-10.29529
 20
-14.6674
 30
0.0
 10
-10.30094
 20
-14.66488
 30
0.0
 10
-10.30646
 20
-14.66298
 30
0.0
 10
-10.31182
 20
-14.66169
 30
0.0
 10
-10.31182
 20
-14.66169
 30
0.0
 10
-10.31721
 20
-14.66039
 30
0.0
 10
-10.32229
 20
-14.65976
 30
0.0
 10
-10.32706
 20
-14.65976
 30
0.0
 10
-10.32706
 20
-14.65976
 30
0.0
 10
-10.33339
 20
-14.65976
 30
0.0
 10
-10.33809
 20
-14.66063
 30
0.0
 10
-10.34113
 20
-14.66237
 30
0.0
 10
-10.34113
 20
-14.66237
 30
0.0
 10
-10.34416
 20
-14.66413
 30
0.0
 10
-10.34567
 20
-14.66684
 30
0.0
 10
-10.34567
 20
-14.67051
 30
0.0
 10
-10.34567
 20
-14.67051
 30
0.0
 10
-10.34567
 20
-14.67326
 30
0.0
 10
-10.34466
 20
-14.67542
 30
0.0
 10
-10.34261
 20
-14.67695
 30
0.0
 10
-10.34261
 20
-14.67695
 30
0.0
 10
-10.34056
 20
-14.67848
 30
0.0
 10
-10.33685
 20
-14.67982
 30
0.0
 10
-10.33146
 20
-14.68092
 30
0.0
 10
-10.33146
 20
-14.68092
 30
0.0
 10
-10.33146
 20
-14.68092
 30
0.0
 10
-10.32017
 20
-14.68318
 30
0.0
 10
-10.32017
 20
-14.68318
 30
0.0
 10
-10.32017
 20
-14.68318
 30
0.0
 10
-10.30872
 20
-14.68549
 30
0.0
 10
-10.30061
 20
-14.68897
 30
0.0
 10
-10.29579
 20
-14.69367
 30
0.0
 10
-10.29579
 20
-14.69367
 30
0.0
 10
-10.29096
 20
-14.69835
 30
0.0
 10
-10.28854
 20
-14.70501
 30
0.0
 10
-10.28854
 20
-14.71364
 30
0.0
 10
-10.28854
 20
-14.71364
 30
0.0
 10
-10.28854
 20
-14.725
 30
0.0
 10
-10.2919
 20
-14.73344
 30
0.0
 10
-10.29863
 20
-14.73897
 30
0.0
 10
-10.29863
 20
-14.73897
 30
0.0
 10
-10.30536
 20
-14.74449
 30
0.0
 10
-10.31563
 20
-14.74727
 30
0.0
 10
-10.32946
 20
-14.74727
 30
0.0
 10
-10.32946
 20
-14.74727
 30
0.0
 10
-10.336
 20
-14.74727
 30
0.0
 10
-10.34254
 20
-14.74666
 30
0.0
 10
-10.3491
 20
-14.74541
 30
0.0
 10
-10.3491
 20
-14.74541
 30
0.0
 10
-10.35566
 20
-14.74416
 30
0.0
 10
-10.36225
 20
-14.74233
 30
0.0
 10
-10.36881
 20
-14.73991
 30
0.0
 10
-10.36881
 20
-14.73991
 30
0.0
 10
-10.36881
 20
-14.73991
 30
0.0
 10
-10.36881
 20
-14.71752
 30
0.0
 10
-10.36881
 20
-14.71752
 30
0.0
 10
-10.36881
 20
-14.71752
 30
0.0
 10
-10.36225
 20
-14.721
 30
0.0
 10
-10.3559
 20
-14.72363
 30
0.0
 10
-10.34976
 20
-14.7254
 30
0.0
 10
-10.34976
 20
-14.7254
 30
0.0
 10
-10.34362
 20
-14.72716
 30
0.0
 10
-10.33772
 20
-14.72805
 30
0.0
 10
-10.33203
 20
-14.72805
 30
0.0
 10
-10.33203
 20
-14.72805
 30
0.0
 10
-10.32624
 20
-14.72805
 30
0.0
 10
-10.3218
 20
-14.72709
 30
0.0
 10
-10.31872
 20
-14.72516
 30
0.0
 10
-10.31872
 20
-14.72516
 30
0.0
 10
-10.31563
 20
-14.72323
 30
0.0
 10
-10.31411
 20
-14.72048
 30
0.0
 10
-10.31411
 20
-14.71688
 30
0.0
 10
-10.31411
 20
-14.71688
 30
0.0
 10
-10.31411
 20
-14.71368
 30
0.0
 10
-10.31514
 20
-14.71119
 30
0.0
 10
-10.31723
 20
-14.70945
 30
0.0
 10
-10.31723
 20
-14.70945
 30
0.0
 10
-10.31933
 20
-14.70771
 30
0.0
 10
-10.32349
 20
-14.70614
 30
0.0
 10
-10.32975
 20
-14.70477
 30
0.0
 10
-10.32975
 20
-14.70477
 30
0.0
 10
-10.32975
 20
-14.70477
 30
0.0
 10
-10.34002
 20
-14.70249
 30
0.0
 10
-10.34002
 20
-14.70249
 30
0.0
 10
-10.34002
 20
-14.70249
 30
0.0
 10
-10.3503
 20
-14.70028
 30
0.0
 10
-10.35783
 20
-14.69678
 30
0.0
 10
-10.36258
 20
-14.69195
 30
0.0
 10
-10.36258
 20
-14.69195
 30
0.0
 10
-10.36733
 20
-14.68713
 30
0.0
 10
-10.3697
 20
-14.68062
 30
0.0
 10
-10.3697
 20
-14.67246
 30
0.0
 10
-10.3697
 20
-14.67246
 30
0.0
 10
-10.3697
 20
-14.6622
 30
0.0
 10
-10.36639
 20
-14.65432
 30
0.0
 10
-10.35978
 20
-14.64882
 30
0.0
 10
-10.35978
 20
-14.64882
 30
0.0
 10
-10.35317
 20
-14.64329
 30
0.0
 10
-10.34367
 20
-14.64054
 30
0.0
 10
-10.33125
 20
-14.64054
 30
0.0
 10
-10.33125
 20
-14.64054
 30
0.0
 10
-10.32561
 20
-14.64054
 30
0.0
 10
-10.3198
 20
-14.64097
 30
0.0
 10
-10.31382
 20
-14.64181
 30
0.0
 10
-10.31382
 20
-14.64181
 30
0.0
 10
-10.30785
 20
-14.64266
 30
0.0
 10
-10.30167
 20
-14.64393
 30
0.0
 10
-10.29529
 20
-14.64565
 30
0.0
  0
SPLINE
  5
87
330
1F
100
AcDbEntity
  8
Layer 1
 62
   250
100
AcDbSpline
210
0.0
220
0.0
230
1.0
 70
    11
 71
     3
 72
    20
 73
    16
 74
     0
 42
0.0000000001
 43
0.0000000001
 40
0.0
 40
0.0
 40
0.0
 40
0.0
 40
0.25
 40
0.25
 40
0.25
 40
0.25
 40
0.5
 40
0.5
 40
0.5
 40
0.5
 40
0.75
 40
0.75
 40
0.75
 40
0.75
 40
1.0
 40
1.0
 40
1.0
 40
1.0
 10
-10.26526
 20
-14.6424
 30
0.0
 10
-10.26526
 20
-14.6424
 30
0.0
 10
-10.23873
 20
-14.6424
 30
0.0
 10
-10.23873
 20
-14.6424
 30
0.0
 10
-10.23873
 20
-14.6424
 30
0.0
 10
-10.23873
 20
-14.6424
 30
0.0
 10
-10.23873
 20
-14.74527
 30
0.0
 10
-10.23873
 20
-14.74527
 30
0.0
 10
-10.23873
 20
-14.74527
 30
0.0
 10
-10.23873
 20
-14.74527
 30
0.0
 10
-10.26526
 20
-14.74527
 30
0.0
 10
-10.26526
 20
-14.74527
 30
0.0
 10
-10.26526
 20
-14.74527
 30
0.0
 10
-10.26526
 20
-14.74527
 30
0.0
 10
-10.26526
 20
-14.6424
 30
0.0
 10
-10.26526
 20
-14.6424
 30
0.0
  0
SPLINE
  5
88
330
1F
100
AcDbEntity
  8
Layer 1
 62
   250
100
AcDbSpline
210
0.0
220
0.0
230
1.0
 70
    11
 71
     3
 72
   116
 73
   112
 74
     0
 42
0.0000000001
 43
0.0000000001
 40
0.0
 40
0.0
 40
0.0
 40
0.0
 40
0.0357142857142857
 40
0.0357142857142857
 40
0.0357142857142857
 40
0.0357142857142857
 40
0.0714285714285714
 40
0.0714285714285714
 40
0.0714285714285714
 40
0.0714285714285714
 40
0.1071428571428571
 40
0.1071428571428571
 40
0.1071428571428571
 40
0.1071428571428571
 40
0.1428571428571428
 40
0.1428571428571428
 40
0.1428571428571428
 40
0.1428571428571428
 40
0.1785714285714285
 40
0.1785714285714285
 40
0.1785714285714285
 40
0.1785714285714285
 40
0.2142857142857142
 40
0.2142857142857142
 40
0.2142857142857142
 40
0.2142857142857142
 40
0.2499999999999999
 40
0.2499999999999999
 40
0.2499999999999999
 40
0.2499999999999999
 40
0.2857142857142856
 40
0.2857142857142856
 40
0.2857142857142856
 40
0.2857142857142856
 40
0.3214285714285713
 40
0.3214285714285713
 40
0.3214285714285713
 40
0.3214285714285713
 40
0.357142857142857
 40
0.357142857142857
 40
0.357142857142857
 40
0.357142857142857
 40
0.3928571428571427
 40
0.3928571428571427
 40
0.3928571428571427
 40
0.3928571428571427
 40
0.4285714285714284
 40
0.4285714285714284
 40
0.4285714285714284
 40
0.4285714285714284
 40
0.4642857142857141
 40
0.4642857142857141
 40
0.4642857142857141
 40
0.4642857142857141
 40
0.4999999999999998
 40
0.4999999999999998
 40
0.4999999999999998
 40
0.4999999999999998
 40
0.5357142857142856
 40
0.5357142857142856
 40
0.5357142857142856
 40
0.5357142857142856
 40
0.5714285714285713
 40
0.5714285714285713
 40
0.5714285714285713
 40
0.5714285714285713
 40
0.607142857142857
 40
0.607142857142857
 40
0.607142857142857
 40
0.607142857142857
 40
0.6428571428571427
 40
0.6428571428571427
 40
0.6428571428571427
 40
0.6428571428571427
 40
0.6785714285714284
 40
0.6785714285714284
 40
0.6785714285714284
 40
0.6785714285714284
 40
0.7142857142857141
 40
0.7142857142857141
 40
0.7142857142857141
 40
0.7142857142857141
 40
0.7499999999999998
 40
0.7499999999999998
 40
0.7499999999999998
 40
0.7499999999999998
 40
0.7857142857142855
 40
0.7857142857142855
 40
0.7857142857142855
 40
0.7857142857142855
 40
0.8214285714285712
 40
0.8214285714285712
 40
0.8214285714285712
 40
0.8214285714285712
 40
0.8571428571428569
 40
0.8571428571428569
 40
0.8571428571428569
 40
0.8571428571428569
 40
0.8928571428571426
 40
0.8928571428571426
 40
0.8928571428571426
 40
0.8928571428571426
 40
0.9285714285714283
 40
0.9285714285714283
 40
0.9285714285714283
 40
0.9285714285714283
 40
0.964285714285714
 40
0.964285714285714
 40
0.964285714285714
 40
0.964285714285714
 40
1.0
 40
1.0
 40
1.0
 40
1.0
 10
-10.14118
 20
-14.64565
 30
0.0
 10
-10.14118
 20
-14.64565
 30
0.0
 10
-10.14118
 20
-14.6674
 30
0.0
 10
-10.14118
 20
-14.6674
 30
0.0
 10
-10.14118
 20
-14.6674
 30
0.0
 10
-10.14683
 20
-14.66488
 30
0.0
 10
-10.15235
 20
-14.66298
 30
0.0
 10
-10.15771
 20
-14.66169
 30
0.0
 10
-10.15771
 20
-14.66169
 30
0.0
 10
-10.1631
 20
-14.66039
 30
0.0
 10
-10.16818
 20
-14.65976
 30
0.0
 10
-10.17295
 20
-14.65976
 30
0.0
 10
-10.17295
 20
-14.65976
 30
0.0
 10
-10.17928
 20
-14.65976
 30
0.0
 10
-10.18398
 20
-14.66063
 30
0.0
 10
-10.18702
 20
-14.66237
 30
0.0
 10
-10.18702
 20
-14.66237
 30
0.0
 10
-10.19005
 20
-14.66413
 30
0.0
 10
-10.19156
 20
-14.66684
 30
0.0
 10
-10.19156
 20
-14.67051
 30
0.0
 10
-10.19156
 20
-14.67051
 30
0.0
 10
-10.19156
 20
-14.67326
 30
0.0
 10
-10.19055
 20
-14.67542
 30
0.0
 10
-10.1885
 20
-14.67695
 30
0.0
 10
-10.1885
 20
-14.67695
 30
0.0
 10
-10.18645
 20
-14.67848
 30
0.0
 10
-10.18274
 20
-14.67982
 30
0.0
 10
-10.17735
 20
-14.68092
 30
0.0
 10
-10.17735
 20
-14.68092
 30
0.0
 10
-10.17735
 20
-14.68092
 30
0.0
 10
-10.16606
 20
-14.68318
 30
0.0
 10
-10.16606
 20
-14.68318
 30
0.0
 10
-10.16606
 20
-14.68318
 30
0.0
 10
-10.15461
 20
-14.68549
 30
0.0
 10
-10.1465
 20
-14.68897
 30
0.0
 10
-10.14168
 20
-14.69367
 30
0.0
 10
-10.14168
 20
-14.69367
 30
0.0
 10
-10.13685
 20
-14.69835
 30
0.0
 10
-10.13443
 20
-14.70501
 30
0.0
 10
-10.13443
 20
-14.71364
 30
0.0
 10
-10.13443
 20
-14.71364
 30
0.0
 10
-10.13443
 20
-14.725
 30
0.0
 10
-10.13779
 20
-14.73344
 30
0.0
 10
-10.14452
 20
-14.73897
 30
0.0
 10
-10.14452
 20
-14.73897
 30
0.0
 10
-10.15125
 20
-14.74449
 30
0.0
 10
-10.16152
 20
-14.74727
 30
0.0
 10
-10.17535
 20
-14.74727
 30
0.0
 10
-10.17535
 20
-14.74727
 30
0.0
 10
-10.18189
 20
-14.74727
 30
0.0
 10
-10.18843
 20
-14.74666
 30
0.0
 10
-10.19499
 20
-14.74541
 30
0.0
 10
-10.19499
 20
-14.74541
 30
0.0
 10
-10.20155
 20
-14.74416
 30
0.0
 10
-10.20814
 20
-14.74233
 30
0.0
 10
-10.2147
 20
-14.73991
 30
0.0
 10
-10.2147
 20
-14.73991
 30
0.0
 10
-10.2147
 20
-14.73991
 30
0.0
 10
-10.2147
 20
-14.71752
 30
0.0
 10
-10.2147
 20
-14.71752
 30
0.0
 10
-10.2147
 20
-14.71752
 30
0.0
 10
-10.20814
 20
-14.721
 30
0.0
 10
-10.20179
 20
-14.72363
 30
0.0
 10
-10.19565
 20
-14.7254
 30
0.0
 10
-10.19565
 20
-14.7254
 30
0.0
 10
-10.18951
 20
-14.72716
 30
0.0
 10
-10.18361
 20
-14.72805
 30
0.0
 10
-10.17792
 20
-14.72805
 30
0.0
 10
-10.17792
 20
-14.72805
 30
0.0
 10
-10.17213
 20
-14.72805
 30
0.0
 10
-10.16769
 20
-14.72709
 30
0.0
 10
-10.16461
 20
-14.72516
 30
0.0
 10
-10.16461
 20
-14.72516
 30
0.0
 10
-10.16152
 20
-14.72323
 30
0.0
 10
-10.16
 20
-14.72048
 30
0.0
 10
-10.16
 20
-14.71688
 30
0.0
 10
-10.16
 20
-14.71688
 30
0.0
 10
-10.16
 20
-14.71368
 30
0.0
 10
-10.16103
 20
-14.71119
 30
0.0
 10
-10.16312
 20
-14.70945
 30
0.0
 10
-10.16312
 20
-14.70945
 30
0.0
 10
-10.16522
 20
-14.70771
 30
0.0
 10
-10.16938
 20
-14.70614
 30
0.0
 10
-10.17564
 20
-14.70477
 30
0.0
 10
-10.17564
 20
-14.70477
 30
0.0
 10
-10.17564
 20
-14.70477
 30
0.0
 10
-10.18591
 20
-14.70249
 30
0.0
 10
-10.18591
 20
-14.70249
 30
0.0
 10
-10.18591
 20
-14.70249
 30
0.0
 10
-10.19619
 20
-14.70028
 30
0.0
 10
-10.20372
 20
-14.69678
 30
0.0
 10
-10.20847
 20
-14.69195
 30
0.0
 10
-10.20847
 20
-14.69195
 30
0.0
 10
-10.21322
 20
-14.68713
 30
0.0
 10
-10.21559
 20
-14.68062
 30
0.0
 10
-10.21559
 20
-14.67246
 30
0.0
 10
-10.21559
 20
-14.67246
 30
0.0
 10
-10.21559
 20
-14.6622
 30
0.0
 10
-10.21228
 20
-14.65432
 30
0.0
 10
-10.20567
 20
-14.64882
 30
0.0
 10
-10.20567
 20
-14.64882
 30
0.0
 10
-10.19906
 20
-14.64329
 30
0.0
 10
-10.18956
 20
-14.64054
 30
0.0
 10
-10.17714
 20
-14.64054
 30
0.0
 10
-10.17714
 20
-14.64054
 30
0.0
 10
-10.1715
 20
-14.64054
 30
0.0
 10
-10.16569
 20
-14.64097
 30
0.0
 10
-10.15971
 20
-14.64181
 30
0.0
 10
-10.15971
 20
-14.64181
 30
0.0
 10
-10.15374
 20
-14.64266
 30
0.0
 10
-10.14756
 20
-14.64393
 30
0.0
 10
-10.14118
 20
-14.64565
 30
0.0
  0
SPLINE
  5
89
330
1F
100
AcDbEntity
  8
Layer 1
 62
   250
100
AcDbSpline
210
0.0
220
0.0
230
1.0
 70
    11
 71
     3
 72
    36
 73
    32
 74
     0
 42
0.0000000001
 43
0.0000000001
 40
0.0
 40
0.0
 40
0.0
 40
0.0
 40
0.125
 40
0.125
 40
0.125
 40
0.125
 40
0.25
 40
0.25
 40
0.25
 40
0.25
 40
0.375
 40
0.375
 40
0.375
 40
0.375
 40
0.5
 40
0.5
 40
0.5
 40
0.5
 40
0.625
 40
0.625
 40
0.625
 40
0.625
 40
0.75
 40
0.75
 40
0.75
 40
0.75
 40
0.875
 40
0.875
 40
0.875
 40
0.875
 40
1.0
 40
1.0
 40
1.0
 40
1.0
 10
-10.12343
 20
-14.6424
 30
0.0
 10
-10.12343
 20
-14.6424
 30
0.0
 10
-10.02863
 20
-14.6424
 30
0.0
 10
-10.02863
 20
-14.6424
 30
0.0
 10
-10.02863
 20
-14.6424
 30
0.0
 10
-10.02863
 20
-14.6424
 30
0.0
 10
-10.02863
 20
-14.66246
 30
0.0
 10
-10.02863
 20
-14.66246
 30
0.0
 10
-10.02863
 20
-14.66246
 30
0.0
 10
-10.02863
 20
-14.66246
 30
0.0
 10
-10.06273
 20
-14.66246
 30
0.0
 10
-10.06273
 20
-14.66246
 30
0.0
 10
-10.06273
 20
-14.66246
 30
0.0
 10
-10.06273
 20
-14.66246
 30
0.0
 10
-10.06273
 20
-14.74527
 30
0.0
 10
-10.06273
 20
-14.74527
 30
0.0
 10
-10.06273
 20
-14.74527
 30
0.0
 10
-10.06273
 20
-14.74527
 30
0.0
 10
-10.08926
 20
-14.74527
 30
0.0
 10
-10.08926
 20
-14.74527
 30
0.0
 10
-10.08926
 20
-14.74527
 30
0.0
 10
-10.08926
 20
-14.74527
 30
0.0
 10
-10.08926
 20
-14.66246
 30
0.0
 10
-10.08926
 20
-14.66246
 30
0.0
 10
-10.08926
 20
-14.66246
 30
0.0
 10
-10.08926
 20
-14.66246
 30
0.0
 10
-10.12343
 20
-14.66246
 30
0.0
 10
-10.12343
 20
-14.66246
 30
0.0
 10
-10.12343
 20
-14.66246
 30
0.0
 10
-10.12343
 20
-14.66246
 30
0.0
 10
-10.12343
 20
-14.6424
 30
0.0
 10
-10.12343
 20
-14.6424
 30
0.0
  0
SPLINE
  5
8A
330
1F
100
AcDbEntity
  8
Layer 1
 62
   250
100
AcDbSpline
210
0.0
220
0.0
230
1.0
 70
    11
 71
     3
 72
    36
 73
    32
 74
     0
 42
0.0000000001
 43
0.0000000001
 40
0.0
 40
0.0
 40
0.0
 40
0.0
 40
0.125
 40
0.125
 40
0.125
 40
0.125
 40
0.25
 40
0.25
 40
0.25
 40
0.25
 40
0.375
 40
0.375
 40
0.375
 40
0.375
 40
0.5
 40
0.5
 40
0.5
 40
0.5
 40
0.625
 40
0.625
 40
0.625
 40
0.625
 40
0.75
 40
0.75
 40
0.75
 40
0.75
 40
0.875
 40
0.875
 40
0.875
 40
0.875
 40
1.0
 40
1.0
 40
1.0
 40
1.0
 10
-9.9679
 20
-14.65976
 30
0.0
 10
-9.97599
 20
-14.65976
 30
0.0
 10
-9.98225
 20
-14.66274
 30
0.0
 10
-9.98672
 20
-14.66872
 30
0.0
 10
-9.98672
 20
-14.66872
 30
0.0
 10
-9.99116
 20
-14.67469
 30
0.0
 10
-9.9934
 20
-14.68309
 30
0.0
 10
-9.9934
 20
-14.69393
 30
0.0
 10
-9.9934
 20
-14.69393
 30
0.0
 10
-9.9934
 20
-14.70475
 30
0.0
 10
-9.99116
 20
-14.71312
 30
0.0
 10
-9.98672
 20
-14.71909
 30
0.0
 10
-9.98672
 20
-14.71909
 30
0.0
 10
-9.98225
 20
-14.72507
 30
0.0
 10
-9.97599
 20
-14.72805
 30
0.0
 10
-9.9679
 20
-14.72805
 30
0.0
 10
-9.9679
 20
-14.72805
 30
0.0
 10
-9.95976
 20
-14.72805
 30
0.0
 10
-9.95349
 20
-14.72507
 30
0.0
 10
-9.94902
 20
-14.71909
 30
0.0
 10
-9.94902
 20
-14.71909
 30
0.0
 10
-9.94457
 20
-14.71312
 30
0.0
 10
-9.94234
 20
-14.70475
 30
0.0
 10
-9.94234
 20
-14.69393
 30
0.0
 10
-9.94234
 20
-14.69393
 30
0.0
 10
-9.94234
 20
-14.68309
 30
0.0
 10
-9.94457
 20
-14.67469
 30
0.0
 10
-9.94902
 20
-14.66872
 30
0.0
 10
-9.94902
 20
-14.66872
 30
0.0
 10
-9.95349
 20
-14.66274
 30
0.0
 10
-9.95976
 20
-14.65976
 30
0.0
 10
-9.9679
 20
-14.65976
 30
0.0
  0
SPLINE
  5
8B
330
1F
100
AcDbEntity
  8
Layer 1
 62
   250
100
AcDbSpline
210
0.0
220
0.0
230
1.0
 70
    11
 71
     3
 72
    36
 73
    32
 74
     0
 42
0.0000000001
 43
0.0000000001
 40
0.0
 40
0.0
 40
0.0
 40
0.0
 40
0.125
 40
0.125
 40
0.125
 40
0.125
 40
0.25
 40
0.25
 40
0.25
 40
0.25
 40
0.375
 40
0.375
 40
0.375
 40
0.375
 40
0.5
 40
0.5
 40
0.5
 40
0.5
 40
0.625
 40
0.625
 40
0.625
 40
0.625
 40
0.75
 40
0.75
 40
0.75
 40
0.75
 40
0.875
 40
0.875
 40
0.875
 40
0.875
 40
1.0
 40
1.0
 40
1.0
 40
1.0
 10
-9.9679
 20
-14.64054
 30
0.0
 10
-9.95137
 20
-14.64054
 30
0.0
 10
-9.93841
 20
-14.64527
 30
0.0
 10
-9.92905
 20
-14.65475
 30
0.0
 10
-9.92905
 20
-14.65475
 30
0.0
 10
-9.91967
 20
-14.6642
 30
0.0
 10
-9.91499
 20
-14.67725
 30
0.0
 10
-9.91499
 20
-14.69393
 30
0.0
 10
-9.91499
 20
-14.69393
 30
0.0
 10
-9.91499
 20
-14.71056
 30
0.0
 10
-9.91967
 20
-14.72361
 30
0.0
 10
-9.92905
 20
-14.73306
 30
0.0
 10
-9.92905
 20
-14.73306
 30
0.0
 10
-9.93841
 20
-14.74254
 30
0.0
 10
-9.95137
 20
-14.74727
 30
0.0
 10
-9.9679
 20
-14.74727
 30
0.0
 10
-9.9679
 20
-14.74727
 30
0.0
 10
-9.98439
 20
-14.74727
 30
0.0
 10
-9.99732
 20
-14.74254
 30
0.0
 10
-10.00673
 20
-14.73306
 30
0.0
 10
-10.00673
 20
-14.73306
 30
0.0
 10
-10.01611
 20
-14.72361
 30
0.0
 10
-10.02082
 20
-14.71056
 30
0.0
 10
-10.02082
 20
-14.69393
 30
0.0
 10
-10.02082
 20
-14.69393
 30
0.0
 10
-10.02082
 20
-14.67725
 30
0.0
 10
-10.01611
 20
-14.6642
 30
0.0
 10
-10.00673
 20
-14.65475
 30
0.0
 10
-10.00673
 20
-14.65475
 30
0.0
 10
-9.99732
 20
-14.64527
 30
0.0
 10
-9.98439
 20
-14.64054
 30
0.0
 10
-9.9679
 20
-14.64054
 30
0.0
  0
SPLINE
  5
8C
330
1F
100
AcDbEntity
  8
Layer 1
 62
   250
100
AcDbSpline
210
0.0
220
0.0
230
1.0
 70
    11
 71
     3
 72
    32
 73
    28
 74
     0
 42
0.0000000001
 43
0.0000000001
 40
0.0
 40
0.0
 40
0.0
 40
0.0
 40
0.1428571428571428
 40
0.1428571428571428
 40
0.1428571428571428
 40
0.1428571428571428
 40
0.2857142857142857
 40
0.2857142857142857
 40
0.2857142857142857
 40
0.2857142857142857
 40
0.4285714285714285
 40
0.4285714285714285
 40
0.4285714285714285
 40
0.4285714285714285
 40
0.5714285714285714
 40
0.5714285714285714
 40
0.5714285714285714
 40
0.5714285714285714
 40
0.7142857142857142
 40
0.7142857142857142
 40
0.7142857142857142
 40
0.7142857142857142
 40
0.857142857142857
 40
0.857142857142857
 40
0.857142857142857
 40
0.857142857142857
 40
1.0
 40
1.0
 40
1.0
 40
1.0
 10
-9.85722
 20
-14.68803
 30
0.0
 10
-9.85167
 20
-14.68803
 30
0.0
 10
-9.84767
 20
-14.68699
 30
0.0
 10
-9.84527
 20
-14.68492
 30
0.0
 10
-9.84527
 20
-14.68492
 30
0.0
 10
-9.84285
 20
-14.68285
 30
0.0
 10
-9.84165
 20
-14.67944
 30
0.0
 10
-9.84165
 20
-14.67471
 30
0.0
 10
-9.84165
 20
-14.67471
 30
0.0
 10
-9.84165
 20
-14.67003
 30
0.0
 10
-9.84285
 20
-14.66667
 30
0.0
 10
-9.84527
 20
-14.66465
 30
0.0
 10
-9.84527
 20
-14.66465
 30
0.0
 10
-9.84767
 20
-14.66263
 30
0.0
 10
-9.85167
 20
-14.66162
 30
0.0
 10
-9.85722
 20
-14.66162
 30
0.0
 10
-9.85722
 20
-14.66162
 30
0.0
 10
-9.85722
 20
-14.66162
 30
0.0
 10
-9.86839
 20
-14.66162
 30
0.0
 10
-9.86839
 20
-14.66162
 30
0.0
 10
-9.86839
 20
-14.66162
 30
0.0
 10
-9.86839
 20
-14.66162
 30
0.0
 10
-9.86839
 20
-14.68803
 30
0.0
 10
-9.86839
 20
-14.68803
 30
0.0
 10
-9.86839
 20
-14.68803
 30
0.0
 10
-9.86839
 20
-14.68803
 30
0.0
 10
-9.85722
 20
-14.68803
 30
0.0
 10
-9.85722
 20
-14.68803
 30
0.0
  0
SPLINE
  5
8D
330
1F
100
AcDbEntity
  8
Layer 1
 62
   250
100
AcDbSpline
210
0.0
220
0.0
230
1.0
 70
    11
 71
     3
 72
    68
 73
    64
 74
     0
 42
0.0000000001
 43
0.0000000001
 40
0.0
 40
0.0
 40
0.0
 40
0.0
 40
0.0625
 40
0.0625
 40
0.0625
 40
0.0625
 40
0.125
 40
0.125
 40
0.125
 40
0.125
 40
0.1875
 40
0.1875
 40
0.1875
 40
0.1875
 40
0.25
 40
0.25
 40
0.25
 40
0.25
 40
0.3125
 40
0.3125
 40
0.3125
 40
0.3125
 40
0.375
 40
0.375
 40
0.375
 40
0.375
 40
0.4375
 40
0.4375
 40
0.4375
 40
0.4375
 40
0.5
 40
0.5
 40
0.5
 40
0.5
 40
0.5625
 40
0.5625
 40
0.5625
 40
0.5625
 40
0.625
 40
0.625
 40
0.625
 40
0.625
 40
0.6875
 40
0.6875
 40
0.6875
 40
0.6875
 40
0.75
 40
0.75
 40
0.75
 40
0.75
 40
0.8125
 40
0.8125
 40
0.8125
 40
0.8125
 40
0.875
 40
0.875
 40
0.875
 40
0.875
 40
0.9375
 40
0.9375
 40
0.9375
 40
0.9375
 40
1.0
 40
1.0
 40
1.0
 40
1.0
 10
-9.86839
 20
-14.70635
 30
0.0
 10
-9.86839
 20
-14.70635
 30
0.0
 10
-9.86839
 20
-14.74527
 30
0.0
 10
-9.86839
 20
-14.74527
 30
0.0
 10
-9.86839
 20
-14.74527
 30
0.0
 10
-9.86839
 20
-14.74527
 30
0.0
 10
-9.89492
 20
-14.74527
 30
0.0
 10
-9.89492
 20
-14.74527
 30
0.0
 10
-9.89492
 20
-14.74527
 30
0.0
 10
-9.89492
 20
-14.74527
 30
0.0
 10
-9.89492
 20
-14.6424
 30
0.0
 10
-9.89492
 20
-14.6424
 30
0.0
 10
-9.89492
 20
-14.6424
 30
0.0
 10
-9.89492
 20
-14.6424
 30
0.0
 10
-9.8544
 20
-14.6424
 30
0.0
 10
-9.8544
 20
-14.6424
 30
0.0
 10
-9.8544
 20
-14.6424
 30
0.0
 10
-9.84085
 20
-14.6424
 30
0.0
 10
-9.8309
 20
-14.64468
 30
0.0
 10
-9.8246
 20
-14.64922
 30
0.0
 10
-9.8246
 20
-14.64922
 30
0.0
 10
-9.81828
 20
-14.65376
 30
0.0
 10
-9.81512
 20
-14.66096
 30
0.0
 10
-9.81512
 20
-14.67079
 30
0.0
 10
-9.81512
 20
-14.67079
 30
0.0
 10
-9.81512
 20
-14.67758
 30
0.0
 10
-9.81677
 20
-14.68318
 30
0.0
 10
-9.82004
 20
-14.68753
 30
0.0
 10
-9.82004
 20
-14.68753
 30
0.0
 10
-9.82333
 20
-14.69191
 30
0.0
 10
-9.82829
 20
-14.69513
 30
0.0
 10
-9.8349
 20
-14.69718
 30
0.0
 10
-9.8349
 20
-14.69718
 30
0.0
 10
-9.83128
 20
-14.69802
 30
0.0
 10
-9.82801
 20
-14.69988
 30
0.0
 10
-9.82514
 20
-14.7028
 30
0.0
 10
-9.82514
 20
-14.7028
 30
0.0
 10
-9.82227
 20
-14.70571
 30
0.0
 10
-9.81938
 20
-14.71013
 30
0.0
 10
-9.81644
 20
-14.71606
 30
0.0
 10
-9.81644
 20
-14.71606
 30
0.0
 10
-9.81644
 20
-14.71606
 30
0.0
 10
-9.80202
 20
-14.74527
 30
0.0
 10
-9.80202
 20
-14.74527
 30
0.0
 10
-9.80202
 20
-14.74527
 30
0.0
 10
-9.80202
 20
-14.74527
 30
0.0
 10
-9.83029
 20
-14.74527
 30
0.0
 10
-9.83029
 20
-14.74527
 30
0.0
 10
-9.83029
 20
-14.74527
 30
0.0
 10
-9.83029
 20
-14.74527
 30
0.0
 10
-9.84283
 20
-14.71971
 30
0.0
 10
-9.84283
 20
-14.71971
 30
0.0
 10
-9.84283
 20
-14.71971
 30
0.0
 10
-9.84534
 20
-14.71458
 30
0.0
 10
-9.84791
 20
-14.71105
 30
0.0
 10
-9.85052
 20
-14.70917
 30
0.0
 10
-9.85052
 20
-14.70917
 30
0.0
 10
-9.85311
 20
-14.70729
 30
0.0
 10
-9.85656
 20
-14.70635
 30
0.0
 10
-9.86089
 20
-14.70635
 30
0.0
 10
-9.86089
 20
-14.70635
 30
0.0
 10
-9.86089
 20
-14.70635
 30
0.0
 10
-9.86839
 20
-14.70635
 30
0.0
 10
-9.86839
 20
-14.70635
 30
0.0
  0
SPLINE
  5
8E
330
1F
100
AcDbEntity
  8
Layer 1
 62
   250
100
AcDbSpline
210
0.0
220
0.0
230
1.0
 70
    11
 71
     3
 72
    36
 73
    32
 74
     0
 42
0.0000000001
 43
0.0000000001
 40
0.0
 40
0.0
 40
0.0
 40
0.0
 40
0.125
 40
0.125
 40
0.125
 40
0.125
 40
0.25
 40
0.25
 40
0.25
 40
0.25
 40
0.375
 40
0.375
 40
0.375
 40
0.375
 40
0.5
 40
0.5
 40
0.5
 40
0.5
 40
0.625
 40
0.625
 40
0.625
 40
0.625
 40
0.75
 40
0.75
 40
0.75
 40
0.75
 40
0.875
 40
0.875
 40
0.875
 40
0.875
 40
1.0
 40
1.0
 40
1.0
 40
1.0
 10
-10.85819
 20
-15.36378
 30
0.0
 10
-10.86276
 20
-15.36378
 30
0.0
 10
-10.86621
 20
-15.36555
 30
0.0
 10
-10.86856
 20
-15.3691
 30
0.0
 10
-10.86856
 20
-15.3691
 30
0.0
 10
-10.87091
 20
-15.37265
 30
0.0
 10
-10.87208
 20
-15.37792
 30
0.0
 10
-10.87208
 20
-15.38487
 30
0.0
 10
-10.87208
 20
-15.38487
 30
0.0
 10
-10.87208
 20
-15.3918
 30
0.0
 10
-10.87091
 20
-15.39705
 30
0.0
 10
-10.86856
 20
-15.40062
 30
0.0
 10
-10.86856
 20
-15.40062
 30
0.0
 10
-10.86621
 20
-15.40419
 30
0.0
 10
-10.86276
 20
-15.40597
 30
0.0
 10
-10.85819
 20
-15.40597
 30
0.0
 10
-10.85819
 20
-15.40597
 30
0.0
 10
-10.85361
 20
-15.40597
 30
0.0
 10
-10.85014
 20
-15.40419
 30
0.0
 10
-10.84779
 20
-15.40062
 30
0.0
 10
-10.84779
 20
-15.40062
 30
0.0
 10
-10.84544
 20
-15.39705
 30
0.0
 10
-10.84428
 20
-15.3918
 30
0.0
 10
-10.84428
 20
-15.38487
 30
0.0
 10
-10.84428
 20
-15.38487
 30
0.0
 10
-10.84428
 20
-15.37792
 30
0.0
 10
-10.84544
 20
-15.37265
 30
0.0
 10
-10.84779
 20
-15.3691
 30
0.0
 10
-10.84779
 20
-15.3691
 30
0.0
 10
-10.85014
 20
-15.36555
 30
0.0
 10
-10.85361
 20
-15.36378
 30
0.0
 10
-10.85819
 20
-15.36378
 30
0.0
  0
SPLINE
  5
8F
330
1F
100
AcDbEntity
  8
Layer 1
 62
   250
100
AcDbSpline
210
0.0
220
0.0
230
1.0
 70
    11
 71
     3
 72
    36
 73
    32
 74
     0
 42
0.0000000001
 43
0.0000000001
 40
0.0
 40
0.0
 40
0.0
 40
0.0
 40
0.125
 40
0.125
 40
0.125
 40
0.125
 40
0.25
 40
0.25
 40
0.25
 40
0.25
 40
0.375
 40
0.375
 40
0.375
 40
0.375
 40
0.5
 40
0.5
 40
0.5
 40
0.5
 40
0.625
 40
0.625
 40
0.625
 40
0.625
 40
0.75
 40
0.75
 40
0.75
 40
0.75
 40
0.875
 40
0.875
 40
0.875
 40
0.875
 40
1.0
 40
1.0
 40
1.0
 40
1.0
 10
-10.85819
 20
-15.35616
 30
0.0
 10
-10.85061
 20
-15.35616
 30
0.0
 10
-10.84481
 20
-15.35861
 30
0.0
 10
-10.84079
 20
-15.36353
 30
0.0
 10
-10.84079
 20
-15.36353
 30
0.0
 10
-10.83677
 20
-15.36845
 30
0.0
 10
-10.83476
 20
-15.37557
 30
0.0
 10
-10.83476
 20
-15.38487
 30
0.0
 10
-10.83476
 20
-15.38487
 30
0.0
 10
-10.83476
 20
-15.39422
 30
0.0
 10
-10.83676
 20
-15.40134
 30
0.0
 10
-10.84076
 20
-15.40624
 30
0.0
 10
-10.84076
 20
-15.40624
 30
0.0
 10
-10.84478
 20
-15.41114
 30
0.0
 10
-10.85058
 20
-15.41359
 30
0.0
 10
-10.85819
 20
-15.41359
 30
0.0
 10
-10.85819
 20
-15.41359
 30
0.0
 10
-10.86579
 20
-15.41359
 30
0.0
 10
-10.87158
 20
-15.41114
 30
0.0
 10
-10.8756
 20
-15.40624
 30
0.0
 10
-10.8756
 20
-15.40624
 30
0.0
 10
-10.8796
 20
-15.40134
 30
0.0
 10
-10.8816
 20
-15.39422
 30
0.0
 10
-10.8816
 20
-15.38487
 30
0.0
 10
-10.8816
 20
-15.38487
 30
0.0
 10
-10.8816
 20
-15.37557
 30
0.0
 10
-10.8796
 20
-15.36845
 30
0.0
 10
-10.8756
 20
-15.36353
 30
0.0
 10
-10.8756
 20
-15.36353
 30
0.0
 10
-10.87158
 20
-15.35861
 30
0.0
 10
-10.86579
 20
-15.35616
 30
0.0
 10
-10.85819
 20
-15.35616
 30
0.0
  0
SPLINE
  5
90
330
1F
100
AcDbEntity
  8
Layer 1
 62
   250
100
AcDbSpline
210
0.0
220
0.0
230
1.0
 70
    11
 71
     3
 72
    36
 73
    32
 74
     0
 42
0.0000000001
 43
0.0000000001
 40
0.0
 40
0.0
 40
0.0
 40
0.0
 40
0.125
 40
0.125
 40
0.125
 40
0.125
 40
0.25
 40
0.25
 40
0.25
 40
0.25
 40
0.375
 40
0.375
 40
0.375
 40
0.375
 40
0.5
 40
0.5
 40
0.5
 40
0.5
 40
0.625
 40
0.625
 40
0.625
 40
0.625
 40
0.75
 40
0.75
 40
0.75
 40
0.75
 40
0.875
 40
0.875
 40
0.875
 40
0.875
 40
1.0
 40
1.0
 40
1.0
 40
1.0
 10
-10.79798
 20
-15.36378
 30
0.0
 10
-10.80255
 20
-15.36378
 30
0.0
 10
-10.806
 20
-15.36555
 30
0.0
 10
-10.80835
 20
-15.3691
 30
0.0
 10
-10.80835
 20
-15.3691
 30
0.0
 10
-10.8107
 20
-15.37265
 30
0.0
 10
-10.81187
 20
-15.37792
 30
0.0
 10
-10.81187
 20
-15.38487
 30
0.0
 10
-10.81187
 20
-15.38487
 30
0.0
 10
-10.81187
 20
-15.3918
 30
0.0
 10
-10.8107
 20
-15.39705
 30
0.0
 10
-10.80835
 20
-15.40062
 30
0.0
 10
-10.80835
 20
-15.40062
 30
0.0
 10
-10.806
 20
-15.40419
 30
0.0
 10
-10.80255
 20
-15.40597
 30
0.0
 10
-10.79798
 20
-15.40597
 30
0.0
 10
-10.79798
 20
-15.40597
 30
0.0
 10
-10.7934
 20
-15.40597
 30
0.0
 10
-10.78993
 20
-15.40419
 30
0.0
 10
-10.78758
 20
-15.40062
 30
0.0
 10
-10.78758
 20
-15.40062
 30
0.0
 10
-10.78523
 20
-15.39705
 30
0.0
 10
-10.78407
 20
-15.3918
 30
0.0
 10
-10.78407
 20
-15.38487
 30
0.0
 10
-10.78407
 20
-15.38487
 30
0.0
 10
-10.78407
 20
-15.37792
 30
0.0
 10
-10.78523
 20
-15.37265
 30
0.0
 10
-10.78758
 20
-15.3691
 30
0.0
 10
-10.78758
 20
-15.3691
 30
0.0
 10
-10.78993
 20
-15.36555
 30
0.0
 10
-10.7934
 20
-15.36378
 30
0.0
 10
-10.79798
 20
-15.36378
 30
0.0
  0
SPLINE
  5
91
330
1F
100
AcDbEntity
  8
Layer 1
 62
   250
100
AcDbSpline
210
0.0
220
0.0
230
1.0
 70
    11
 71
     3
 72
    36
 73
    32
 74
     0
 42
0.0000000001
 43
0.0000000001
 40
0.0
 40
0.0
 40
0.0
 40
0.0
 40
0.125
 40
0.125
 40
0.125
 40
0.125
 40
0.25
 40
0.25
 40
0.25
 40
0.25
 40
0.375
 40
0.375
 40
0.375
 40
0.375
 40
0.5
 40
0.5
 40
0.5
 40
0.5
 40
0.625
 40
0.625
 40
0.625
 40
0.625
 40
0.75
 40
0.75
 40
0.75
 40
0.75
 40
0.875
 40
0.875
 40
0.875
 40
0.875
 40
1.0
 40
1.0
 40
1.0
 40
1.0
 10
-10.79798
 20
-15.35616
 30
0.0
 10
-10.7904
 20
-15.35616
 30
0.0
 10
-10.7846
 20
-15.35861
 30
0.0
 10
-10.78058
 20
-15.36353
 30
0.0
 10
-10.78058
 20
-15.36353
 30
0.0
 10
-10.77656
 20
-15.36845
 30
0.0
 10
-10.77455
 20
-15.37557
 30
0.0
 10
-10.77455
 20
-15.38487
 30
0.0
 10
-10.77455
 20
-15.38487
 30
0.0
 10
-10.77455
 20
-15.39422
 30
0.0
 10
-10.77655
 20
-15.40134
 30
0.0
 10
-10.78055
 20
-15.40624
 30
0.0
 10
-10.78055
 20
-15.40624
 30
0.0
 10
-10.78457
 20
-15.41114
 30
0.0
 10
-10.79037
 20
-15.41359
 30
0.0
 10
-10.79798
 20
-15.41359
 30
0.0
 10
-10.79798
 20
-15.41359
 30
0.0
 10
-10.80558
 20
-15.41359
 30
0.0
 10
-10.81137
 20
-15.41114
 30
0.0
 10
-10.81539
 20
-15.40624
 30
0.0
 10
-10.81539
 20
-15.40624
 30
0.0
 10
-10.81939
 20
-15.40134
 30
0.0
 10
-10.82139
 20
-15.39422
 30
0.0
 10
-10.82139
 20
-15.38487
 30
0.0
 10
-10.82139
 20
-15.38487
 30
0.0
 10
-10.82139
 20
-15.37557
 30
0.0
 10
-10.81939
 20
-15.36845
 30
0.0
 10
-10.81539
 20
-15.36353
 30
0.0
 10
-10.81539
 20
-15.36353
 30
0.0
 10
-10.81137
 20
-15.35861
 30
0.0
 10
-10.80558
 20
-15.35616
 30
0.0
 10
-10.79798
 20
-15.35616
 30
0.0
  0
SPLINE
  5
92
330
1F
100
AcDbEntity
  8
Layer 1
 62
   250
100
AcDbSpline
210
0.0
220
0.0
230
1.0
 70
    11
 71
     3
 72
   112
 73
   108
 74
     0
 42
0.0000000001
 43
0.0000000001
 40
0.0
 40
0.0
 40
0.0
 40
0.0
 40
0.037037037037037
 40
0.037037037037037
 40
0.037037037037037
 40
0.037037037037037
 40
0.0740740740740741
 40
0.0740740740740741
 40
0.0740740740740741
 40
0.0740740740740741
 40
0.1111111111111111
 40
0.1111111111111111
 40
0.1111111111111111
 40
0.1111111111111111
 40
0.1481481481481481
 40
0.1481481481481481
 40
0.1481481481481481
 40
0.1481481481481481
 40
0.1851851851851852
 40
0.1851851851851852
 40
0.1851851851851852
 40
0.1851851851851852
 40
0.2222222222222222
 40
0.2222222222222222
 40
0.2222222222222222
 40
0.2222222222222222
 40
0.2592592592592592
 40
0.2592592592592592
 40
0.2592592592592592
 40
0.2592592592592592
 40
0.2962962962962963
 40
0.2962962962962963
 40
0.2962962962962963
 40
0.2962962962962963
 40
0.3333333333333333
 40
0.3333333333333333
 40
0.3333333333333333
 40
0.3333333333333333
 40
0.3703703703703703
 40
0.3703703703703703
 40
0.3703703703703703
 40
0.3703703703703703
 40
0.4074074074074074
 40
0.4074074074074074
 40
0.4074074074074074
 40
0.4074074074074074
 40
0.4444444444444444
 40
0.4444444444444444
 40
0.4444444444444444
 40
0.4444444444444444
 40
0.4814814814814815
 40
0.4814814814814815
 40
0.4814814814814815
 40
0.4814814814814815
 40
0.5185185185185185
 40
0.5185185185185185
 40
0.5185185185185185
 40
0.5185185185185185
 40
0.5555555555555556
 40
0.5555555555555556
 40
0.5555555555555556
 40
0.5555555555555556
 40
0.5925925925925926
 40
0.5925925925925926
 40
0.5925925925925926
 40
0.5925925925925926
 40
0.6296296296296295
 40
0.6296296296296295
 40
0.6296296296296295
 40
0.6296296296296295
 40
0.6666666666666665
 40
0.6666666666666665
 40
0.6666666666666665
 40
0.6666666666666665
 40
0.7037037037037035
 40
0.7037037037037035
 40
0.7037037037037035
 40
0.7037037037037035
 40
0.7407407407407405
 40
0.7407407407407405
 40
0.7407407407407405
 40
0.7407407407407405
 40
0.7777777777777775
 40
0.7777777777777775
 40
0.7777777777777775
 40
0.7777777777777775
 40
0.8148148148148144
 40
0.8148148148148144
 40
0.8148148148148144
 40
0.8148148148148144
 40
0.8518518518518514
 40
0.8518518518518514
 40
0.8518518518518514
 40
0.8518518518518514
 40
0.8888888888888884
 40
0.8888888888888884
 40
0.8888888888888884
 40
0.8888888888888884
 40
0.9259259259259254
 40
0.9259259259259254
 40
0.9259259259259254
 40
0.9259259259259254
 40
0.9629629629629624
 40
0.9629629629629624
 40
0.9629629629629624
 40
0.9629629629629624
 40
1.0
 40
1.0
 40
1.0
 40
1.0
 10
-10.73486
 20
-15.36305
 30
0.0
 10
-10.73376
 20
-15.3607
 30
0.0
 10
-10.73234
 20
-15.35896
 30
0.0
 10
-10.73062
 20
-15.35785
 30
0.0
 10
-10.73062
 20
-15.35785
 30
0.0
 10
-10.72892
 20
-15.35673
 30
0.0
 10
-10.72686
 20
-15.35616
 30
0.0
 10
-10.72446
 20
-15.35616
 30
0.0
 10
-10.72446
 20
-15.35616
 30
0.0
 10
-10.72006
 20
-15.35616
 30
0.0
 10
-10.71695
 20
-15.35786
 30
0.0
 10
-10.71515
 20
-15.36126
 30
0.0
 10
-10.71515
 20
-15.36126
 30
0.0
 10
-10.71334
 20
-15.36467
 30
0.0
 10
-10.71244
 20
-15.37107
 30
0.0
 10
-10.71244
 20
-15.38048
 30
0.0
 10
-10.71244
 20
-15.38048
 30
0.0
 10
-10.71244
 20
-15.38048
 30
0.0
 10
-10.71244
 20
-15.41217
 30
0.0
 10
-10.71244
 20
-15.41217
 30
0.0
 10
-10.71244
 20
-15.41217
 30
0.0
 10
-10.71244
 20
-15.41217
 30
0.0
 10
-10.72064
 20
-15.41217
 30
0.0
 10
-10.72064
 20
-15.41217
 30
0.0
 10
-10.72064
 20
-15.41217
 30
0.0
 10
-10.72064
 20
-15.41217
 30
0.0
 10
-10.72064
 20
-15.38087
 30
0.0
 10
-10.72064
 20
-15.38087
 30
0.0
 10
-10.72064
 20
-15.38087
 30
0.0
 10
-10.72064
 20
-15.37315
 30
0.0
 10
-10.72107
 20
-15.36837
 30
0.0
 10
-10.72194
 20
-15.36648
 30
0.0
 10
-10.72194
 20
-15.36648
 30
0.0
 10
-10.72279
 20
-15.36462
 30
0.0
 10
-10.72437
 20
-15.36368
 30
0.0
 10
-10.72666
 20
-15.36368
 30
0.0
 10
-10.72666
 20
-15.36368
 30
0.0
 10
-10.72926
 20
-15.36368
 30
0.0
 10
-10.73104
 20
-15.36468
 30
0.0
 10
-10.73201
 20
-15.36668
 30
0.0
 10
-10.73201
 20
-15.36668
 30
0.0
 10
-10.73296
 20
-15.36868
 30
0.0
 10
-10.73344
 20
-15.37342
 30
0.0
 10
-10.73344
 20
-15.38087
 30
0.0
 10
-10.73344
 20
-15.38087
 30
0.0
 10
-10.73344
 20
-15.38087
 30
0.0
 10
-10.73344
 20
-15.41217
 30
0.0
 10
-10.73344
 20
-15.41217
 30
0.0
 10
-10.73344
 20
-15.41217
 30
0.0
 10
-10.73344
 20
-15.41217
 30
0.0
 10
-10.74164
 20
-15.41217
 30
0.0
 10
-10.74164
 20
-15.41217
 30
0.0
 10
-10.74164
 20
-15.41217
 30
0.0
 10
-10.74164
 20
-15.41217
 30
0.0
 10
-10.74164
 20
-15.38087
 30
0.0
 10
-10.74164
 20
-15.38087
 30
0.0
 10
-10.74164
 20
-15.38087
 30
0.0
 10
-10.74164
 20
-15.37305
 30
0.0
 10
-10.74211
 20
-15.36823
 30
0.0
 10
-10.74304
 20
-15.36642
 30
0.0
 10
-10.74304
 20
-15.36642
 30
0.0
 10
-10.74396
 20
-15.3646
 30
0.0
 10
-10.74562
 20
-15.36368
 30
0.0
 10
-10.74804
 20
-15.36368
 30
0.0
 10
-10.74804
 20
-15.36368
 30
0.0
 10
-10.75042
 20
-15.36368
 30
0.0
 10
-10.75208
 20
-15.36468
 30
0.0
 10
-10.75299
 20
-15.36668
 30
0.0
 10
-10.75299
 20
-15.36668
 30
0.0
 10
-10.75393
 20
-15.36868
 30
0.0
 10
-10.75439
 20
-15.37342
 30
0.0
 10
-10.75439
 20
-15.38087
 30
0.0
 10
-10.75439
 20
-15.38087
 30
0.0
 10
-10.75439
 20
-15.38087
 30
0.0
 10
-10.75439
 20
-15.41217
 30
0.0
 10
-10.75439
 20
-15.41217
 30
0.0
 10
-10.75439
 20
-15.41217
 30
0.0
 10
-10.75439
 20
-15.41217
 30
0.0
 10
-10.76254
 20
-15.41217
 30
0.0
 10
-10.76254
 20
-15.41217
 30
0.0
 10
-10.76254
 20
-15.41217
 30
0.0
 10
-10.76254
 20
-15.41217
 30
0.0
 10
-10.76254
 20
-15.35748
 30
0.0
 10
-10.76254
 20
-15.35748
 30
0.0
 10
-10.76254
 20
-15.35748
 30
0.0
 10
-10.76254
 20
-15.35748
 30
0.0
 10
-10.75439
 20
-15.35748
 30
0.0
 10
-10.75439
 20
-15.35748
 30
0.0
 10
-10.75439
 20
-15.35748
 30
0.0
 10
-10.75439
 20
-15.35748
 30
0.0
 10
-10.75439
 20
-15.36216
 30
0.0
 10
-10.75439
 20
-15.36216
 30
0.0
 10
-10.75439
 20
-15.36216
 30
0.0
 10
-10.75333
 20
-15.36021
 30
0.0
 10
-10.75198
 20
-15.35873
 30
0.0
 10
-10.75036
 20
-15.3577
 30
0.0
 10
-10.75036
 20
-15.3577
 30
0.0
 10
-10.74876
 20
-15.35668
 30
0.0
 10
-10.74692
 20
-15.35616
 30
0.0
 10
-10.74487
 20
-15.35616
 30
0.0
 10
-10.74487
 20
-15.35616
 30
0.0
 10
-10.74239
 20
-15.35616
 30
0.0
 10
-10.74034
 20
-15.35673
 30
0.0
 10
-10.73869
 20
-15.35786
 30
0.0
 10
-10.73869
 20
-15.35786
 30
0.0
 10
-10.73704
 20
-15.35901
 30
0.0
 10
-10.73577
 20
-15.36073
 30
0.0
 10
-10.73486
 20
-15.36305
 30
0.0
  0
SPLINE
  5
93
330
1F
100
AcDbEntity
  8
Layer 1
 62
   250
100
AcDbSpline
210
0.0
220
0.0
230
1.0
 70
    11
 71
     3
 72
    20
 73
    16
 74
     0
 42
0.0000000001
 43
0.0000000001
 40
0.0
 40
0.0
 40
0.0
 40
0.0
 40
0.25
 40
0.25
 40
0.25
 40
0.25
 40
0.5
 40
0.5
 40
0.5
 40
0.5
 40
0.75
 40
0.75
 40
0.75
 40
0.75
 40
1.0
 40
1.0
 40
1.0
 40
1.0
 10
-10.68376
 20
-15.39727
 30
0.0
 10
-10.68376
 20
-15.39727
 30
0.0
 10
-10.67146
 20
-15.39727
 30
0.0
 10
-10.67146
 20
-15.39727
 30
0.0
 10
-10.67146
 20
-15.39727
 30
0.0
 10
-10.67146
 20
-15.39727
 30
0.0
 10
-10.67146
 20
-15.41217
 30
0.0
 10
-10.67146
 20
-15.41217
 30
0.0
 10
-10.67146
 20
-15.41217
 30
0.0
 10
-10.67146
 20
-15.41217
 30
0.0
 10
-10.68376
 20
-15.41217
 30
0.0
 10
-10.68376
 20
-15.41217
 30
0.0
 10
-10.68376
 20
-15.41217
 30
0.0
 10
-10.68376
 20
-15.41217
 30
0.0
 10
-10.68376
 20
-15.39727
 30
0.0
 10
-10.68376
 20
-15.39727
 30
0.0
  0
SPLINE
  5
94
330
1F
100
AcDbEntity
  8
Layer 1
 62
   250
100
AcDbSpline
210
0.0
220
0.0
230
1.0
 70
    11
 71
     3
 72
    52
 73
    48
 74
     0
 42
0.0000000001
 43
0.0000000001
 40
0.0
 40
0.0
 40
0.0
 40
0.0
 40
0.0833333333333333
 40
0.0833333333333333
 40
0.0833333333333333
 40
0.0833333333333333
 40
0.1666666666666667
 40
0.1666666666666667
 40
0.1666666666666667
 40
0.1666666666666667
 40
0.25
 40
0.25
 40
0.25
 40
0.25
 40
0.3333333333333333
 40
0.3333333333333333
 40
0.3333333333333333
 40
0.3333333333333333
 40
0.4166666666666666
 40
0.4166666666666666
 40
0.4166666666666666
 40
0.4166666666666666
 40
0.4999999999999999
 40
0.4999999999999999
 40
0.4999999999999999
 40
0.4999999999999999
 40
0.5833333333333333
 40
0.5833333333333333
 40
0.5833333333333333
 40
0.5833333333333333
 40
0.6666666666666666
 40
0.6666666666666666
 40
0.6666666666666666
 40
0.6666666666666666
 40
0.75
 40
0.75
 40
0.75
 40
0.75
 40
0.8333333333333334
 40
0.8333333333333334
 40
0.8333333333333334
 40
0.8333333333333334
 40
0.9166666666666667
 40
0.9166666666666667
 40
0.9166666666666667
 40
0.9166666666666667
 40
1.0
 40
1.0
 40
1.0
 40
1.0
 10
-10.61624
 20
-15.39235
 30
0.0
 10
-10.61624
 20
-15.39639
 30
0.0
 10
-10.6155
 20
-15.39942
 30
0.0
 10
-10.61402
 20
-15.40147
 30
0.0
 10
-10.61402
 20
-15.40147
 30
0.0
 10
-10.61254
 20
-15.40352
 30
0.0
 10
-10.61035
 20
-15.40455
 30
0.0
 10
-10.60745
 20
-15.40455
 30
0.0
 10
-10.60745
 20
-15.40455
 30
0.0
 10
-10.60745
 20
-15.40455
 30
0.0
 10
-10.59695
 20
-15.40455
 30
0.0
 10
-10.59695
 20
-15.40455
 30
0.0
 10
-10.59695
 20
-15.40455
 30
0.0
 10
-10.59695
 20
-15.40455
 30
0.0
 10
-10.59695
 20
-15.41217
 30
0.0
 10
-10.59695
 20
-15.41217
 30
0.0
 10
-10.59695
 20
-15.41217
 30
0.0
 10
-10.59695
 20
-15.41217
 30
0.0
 10
-10.60832
 20
-15.41217
 30
0.0
 10
-10.60832
 20
-15.41217
 30
0.0
 10
-10.60832
 20
-15.41217
 30
0.0
 10
-10.6137
 20
-15.41217
 30
0.0
 10
-10.61785
 20
-15.41044
 30
0.0
 10
-10.6208
 20
-15.40699
 30
0.0
 10
-10.6208
 20
-15.40699
 30
0.0
 10
-10.62375
 20
-15.40354
 30
0.0
 10
-10.62522
 20
-15.39865
 30
0.0
 10
-10.62522
 20
-15.39235
 30
0.0
 10
-10.62522
 20
-15.39235
 30
0.0
 10
-10.62522
 20
-15.39235
 30
0.0
 10
-10.62522
 20
-15.34268
 30
0.0
 10
-10.62522
 20
-15.34268
 30
0.0
 10
-10.62522
 20
-15.34268
 30
0.0
 10
-10.62522
 20
-15.34268
 30
0.0
 10
-10.63962
 20
-15.34268
 30
0.0
 10
-10.63962
 20
-15.34268
 30
0.0
 10
-10.63962
 20
-15.34268
 30
0.0
 10
-10.63962
 20
-15.34268
 30
0.0
 10
-10.63962
 20
-15.33565
 30
0.0
 10
-10.63962
 20
-15.33565
 30
0.0
 10
-10.63962
 20
-15.33565
 30
0.0
 10
-10.63962
 20
-15.33565
 30
0.0
 10
-10.61624
 20
-15.33565
 30
0.0
 10
-10.61624
 20
-15.33565
 30
0.0
 10
-10.61624
 20
-15.33565
 30
0.0
 10
-10.61624
 20
-15.33565
 30
0.0
 10
-10.61624
 20
-15.39235
 30
0.0
 10
-10.61624
 20
-15.39235
 30
0.0
  0
SPLINE
  5
95
330
1F
100
AcDbEntity
  8
Layer 1
 62
   250
100
AcDbSpline
210
0.0
220
0.0
230
1.0
 70
    11
 71
     3
 72
    76
 73
    72
 74
     0
 42
0.0000000001
 43
0.0000000001
 40
0.0
 40
0.0
 40
0.0
 40
0.0
 40
0.0555555555555556
 40
0.0555555555555556
 40
0.0555555555555556
 40
0.0555555555555556
 40
0.1111111111111111
 40
0.1111111111111111
 40
0.1111111111111111
 40
0.1111111111111111
 40
0.1666666666666667
 40
0.1666666666666667
 40
0.1666666666666667
 40
0.1666666666666667
 40
0.2222222222222222
 40
0.2222222222222222
 40
0.2222222222222222
 40
0.2222222222222222
 40
0.2777777777777778
 40
0.2777777777777778
 40
0.2777777777777778
 40
0.2777777777777778
 40
0.3333333333333334
 40
0.3333333333333334
 40
0.3333333333333334
 40
0.3333333333333334
 40
0.388888888888889
 40
0.388888888888889
 40
0.388888888888889
 40
0.388888888888889
 40
0.4444444444444445
 40
0.4444444444444445
 40
0.4444444444444445
 40
0.4444444444444445
 40
0.5000000000000001
 40
0.5000000000000001
 40
0.5000000000000001
 40
0.5000000000000001
 40
0.5555555555555557
 40
0.5555555555555557
 40
0.5555555555555557
 40
0.5555555555555557
 40
0.6111111111111113
 40
0.6111111111111113
 40
0.6111111111111113
 40
0.6111111111111113
 40
0.6666666666666669
 40
0.6666666666666669
 40
0.6666666666666669
 40
0.6666666666666669
 40
0.7222222222222224
 40
0.7222222222222224
 40
0.7222222222222224
 40
0.7222222222222224
 40
0.777777777777778
 40
0.777777777777778
 40
0.777777777777778
 40
0.777777777777778
 40
0.8333333333333336
 40
0.8333333333333336
 40
0.8333333333333336
 40
0.8333333333333336
 40
0.8888888888888892
 40
0.8888888888888892
 40
0.8888888888888892
 40
0.8888888888888892
 40
0.9444444444444448
 40
0.9444444444444448
 40
0.9444444444444448
 40
0.9444444444444448
 40
1.0
 40
1.0
 40
1.0
 40
1.0
 10
-10.55724
 20
-15.34195
 30
0.0
 10
-10.55724
 20
-15.34195
 30
0.0
 10
-10.55724
 20
-15.35748
 30
0.0
 10
-10.55724
 20
-15.35748
 30
0.0
 10
-10.55724
 20
-15.35748
 30
0.0
 10
-10.55724
 20
-15.35748
 30
0.0
 10
-10.53682
 20
-15.35748
 30
0.0
 10
-10.53682
 20
-15.35748
 30
0.0
 10
-10.53682
 20
-15.35748
 30
0.0
 10
-10.53682
 20
-15.35748
 30
0.0
 10
-10.53682
 20
-15.36447
 30
0.0
 10
-10.53682
 20
-15.36447
 30
0.0
 10
-10.53682
 20
-15.36447
 30
0.0
 10
-10.53682
 20
-15.36447
 30
0.0
 10
-10.55724
 20
-15.36447
 30
0.0
 10
-10.55724
 20
-15.36447
 30
0.0
 10
-10.55724
 20
-15.36447
 30
0.0
 10
-10.55724
 20
-15.36447
 30
0.0
 10
-10.55724
 20
-15.39415
 30
0.0
 10
-10.55724
 20
-15.39415
 30
0.0
 10
-10.55724
 20
-15.39415
 30
0.0
 10
-10.55724
 20
-15.39819
 30
0.0
 10
-10.55648
 20
-15.401
 30
0.0
 10
-10.55494
 20
-15.40259
 30
0.0
 10
-10.55494
 20
-15.40259
 30
0.0
 10
-10.55341
 20
-15.40419
 30
0.0
 10
-10.55074
 20
-15.40499
 30
0.0
 10
-10.54694
 20
-15.40499
 30
0.0
 10
-10.54694
 20
-15.40499
 30
0.0
 10
-10.54694
 20
-15.40499
 30
0.0
 10
-10.53682
 20
-15.40499
 30
0.0
 10
-10.53682
 20
-15.40499
 30
0.0
 10
-10.53682
 20
-15.40499
 30
0.0
 10
-10.53682
 20
-15.40499
 30
0.0
 10
-10.53682
 20
-15.41217
 30
0.0
 10
-10.53682
 20
-15.41217
 30
0.0
 10
-10.53682
 20
-15.41217
 30
0.0
 10
-10.53682
 20
-15.41217
 30
0.0
 10
-10.54781
 20
-15.41217
 30
0.0
 10
-10.54781
 20
-15.41217
 30
0.0
 10
-10.54781
 20
-15.41217
 30
0.0
 10
-10.55456
 20
-15.41217
 30
0.0
 10
-10.55931
 20
-15.41082
 30
0.0
 10
-10.56208
 20
-15.40812
 30
0.0
 10
-10.56208
 20
-15.40812
 30
0.0
 10
-10.56484
 20
-15.40542
 30
0.0
 10
-10.56623
 20
-15.40075
 30
0.0
 10
-10.56623
 20
-15.39415
 30
0.0
 10
-10.56623
 20
-15.39415
 30
0.0
 10
-10.56623
 20
-15.39415
 30
0.0
 10
-10.56623
 20
-15.36447
 30
0.0
 10
-10.56623
 20
-15.36447
 30
0.0
 10
-10.56623
 20
-15.36447
 30
0.0
 10
-10.56623
 20
-15.36447
 30
0.0
 10
-10.58083
 20
-15.36447
 30
0.0
 10
-10.58083
 20
-15.36447
 30
0.0
 10
-10.58083
 20
-15.36447
 30
0.0
 10
-10.58083
 20
-15.36447
 30
0.0
 10
-10.58083
 20
-15.35748
 30
0.0
 10
-10.58083
 20
-15.35748
 30
0.0
 10
-10.58083
 20
-15.35748
 30
0.0
 10
-10.58083
 20
-15.35748
 30
0.0
 10
-10.56623
 20
-15.35748
 30
0.0
 10
-10.56623
 20
-15.35748
 30
0.0
 10
-10.56623
 20
-15.35748
 30
0.0
 10
-10.56623
 20
-15.35748
 30
0.0
 10
-10.56623
 20
-15.34195
 30
0.0
 10
-10.56623
 20
-15.34195
 30
0.0
 10
-10.56623
 20
-15.34195
 30
0.0
 10
-10.56623
 20
-15.34195
 30
0.0
 10
-10.55724
 20
-15.34195
 30
0.0
 10
-10.55724
 20
-15.34195
 30
0.0
  0
SPLINE
  5
96
330
1F
100
AcDbEntity
  8
Layer 1
 62
   250
100
AcDbSpline
210
0.0
220
0.0
230
1.0
 70
    11
 71
     3
 72
    20
 73
    16
 74
     0
 42
0.0000000001
 43
0.0000000001
 40
0.0
 40
0.0
 40
0.0
 40
0.0
 40
0.25
 40
0.25
 40
0.25
 40
0.25
 40
0.5
 40
0.5
 40
0.5
 40
0.5
 40
0.75
 40
0.75
 40
0.75
 40
0.75
 40
1.0
 40
1.0
 40
1.0
 40
1.0
 10
-10.4836
 20
-15.33926
 30
0.0
 10
-10.4836
 20
-15.33926
 30
0.0
 10
-10.47431
 20
-15.33926
 30
0.0
 10
-10.47431
 20
-15.33926
 30
0.0
 10
-10.47431
 20
-15.33926
 30
0.0
 10
-10.47431
 20
-15.33926
 30
0.0
 10
-10.5127
 20
-15.42145
 30
0.0
 10
-10.5127
 20
-15.42145
 30
0.0
 10
-10.5127
 20
-15.42145
 30
0.0
 10
-10.5127
 20
-15.42145
 30
0.0
 10
-10.52204
 20
-15.42145
 30
0.0
 10
-10.52204
 20
-15.42145
 30
0.0
 10
-10.52204
 20
-15.42145
 30
0.0
 10
-10.52204
 20
-15.42145
 30
0.0
 10
-10.4836
 20
-15.33926
 30
0.0
 10
-10.4836
 20
-15.33926
 30
0.0
  0
SPLINE
  5
97
330
1F
100
AcDbEntity
  8
Layer 1
 62
   250
100
AcDbSpline
210
0.0
220
0.0
230
1.0
 70
    11
 71
     3
 72
    36
 73
    32
 74
     0
 42
0.0000000001
 43
0.0000000001
 40
0.0
 40
0.0
 40
0.0
 40
0.0
 40
0.125
 40
0.125
 40
0.125
 40
0.125
 40
0.25
 40
0.25
 40
0.25
 40
0.25
 40
0.375
 40
0.375
 40
0.375
 40
0.375
 40
0.5
 40
0.5
 40
0.5
 40
0.5
 40
0.625
 40
0.625
 40
0.625
 40
0.625
 40
0.75
 40
0.75
 40
0.75
 40
0.75
 40
0.875
 40
0.875
 40
0.875
 40
0.875
 40
1.0
 40
1.0
 40
1.0
 40
1.0
 10
-10.42951
 20
-15.41217
 30
0.0
 10
-10.42951
 20
-15.41217
 30
0.0
 10
-10.44391
 20
-15.41217
 30
0.0
 10
-10.44391
 20
-15.41217
 30
0.0
 10
-10.44391
 20
-15.41217
 30
0.0
 10
-10.44391
 20
-15.41217
 30
0.0
 10
-10.44391
 20
-15.35186
 30
0.0
 10
-10.44391
 20
-15.35186
 30
0.0
 10
-10.44391
 20
-15.35186
 30
0.0
 10
-10.44391
 20
-15.35186
 30
0.0
 10
-10.46241
 20
-15.35186
 30
0.0
 10
-10.46241
 20
-15.35186
 30
0.0
 10
-10.46241
 20
-15.35186
 30
0.0
 10
-10.46241
 20
-15.35186
 30
0.0
 10
-10.46241
 20
-15.33926
 30
0.0
 10
-10.46241
 20
-15.33926
 30
0.0
 10
-10.46241
 20
-15.33926
 30
0.0
 10
-10.46241
 20
-15.33926
 30
0.0
 10
-10.411
 20
-15.33926
 30
0.0
 10
-10.411
 20
-15.33926
 30
0.0
 10
-10.411
 20
-15.33926
 30
0.0
 10
-10.411
 20
-15.33926
 30
0.0
 10
-10.411
 20
-15.35186
 30
0.0
 10
-10.411
 20
-15.35186
 30
0.0
 10
-10.411
 20
-15.35186
 30
0.0
 10
-10.411
 20
-15.35186
 30
0.0
 10
-10.42951
 20
-15.35186
 30
0.0
 10
-10.42951
 20
-15.35186
 30
0.0
 10
-10.42951
 20
-15.35186
 30
0.0
 10
-10.42951
 20
-15.35186
 30
0.0
 10
-10.42951
 20
-15.41217
 30
0.0
 10
-10.42951
 20
-15.41217
 30
0.0
  0
SPLINE
  5
98
330
1F
100
AcDbEntity
  8
Layer 1
 62
   250
100
AcDbSpline
210
0.0
220
0.0
230
1.0
 70
    11
 71
     3
 72
    44
 73
    40
 74
     0
 42
0.0000000001
 43
0.0000000001
 40
0.0
 40
0.0
 40
0.0
 40
0.0
 40
0.1
 40
0.1
 40
0.1
 40
0.1
 40
0.2
 40
0.2
 40
0.2
 40
0.2
 40
0.3
 40
0.3
 40
0.3
 40
0.3
 40
0.4
 40
0.4
 40
0.4
 40
0.4
 40
0.5
 40
0.5
 40
0.5
 40
0.5
 40
0.6
 40
0.6
 40
0.6
 40
0.6
 40
0.7
 40
0.7
 40
0.7
 40
0.7
 40
0.7999999999999999
 40
0.7999999999999999
 40
0.7999999999999999
 40
0.7999999999999999
 40
0.8999999999999999
 40
0.8999999999999999
 40
0.8999999999999999
 40
0.8999999999999999
 40
1.0
 40
1.0
 40
1.0
 40
1.0
 10
-10.40078
 20
-15.33926
 30
0.0
 10
-10.40078
 20
-15.33926
 30
0.0
 10
-10.3853
 20
-15.33926
 30
0.0
 10
-10.3853
 20
-15.33926
 30
0.0
 10
-10.3853
 20
-15.33926
 30
0.0
 10
-10.3853
 20
-15.33926
 30
0.0
 10
-10.365
 20
-15.39225
 30
0.0
 10
-10.365
 20
-15.39225
 30
0.0
 10
-10.365
 20
-15.39225
 30
0.0
 10
-10.365
 20
-15.39225
 30
0.0
 10
-10.365
 20
-15.33926
 30
0.0
 10
-10.365
 20
-15.33926
 30
0.0
 10
-10.365
 20
-15.33926
 30
0.0
 10
-10.365
 20
-15.33926
 30
0.0
 10
-10.35229
 20
-15.33926
 30
0.0
 10
-10.35229
 20
-15.33926
 30
0.0
 10
-10.35229
 20
-15.33926
 30
0.0
 10
-10.35229
 20
-15.33926
 30
0.0
 10
-10.35229
 20
-15.41217
 30
0.0
 10
-10.35229
 20
-15.41217
 30
0.0
 10
-10.35229
 20
-15.41217
 30
0.0
 10
-10.35229
 20
-15.41217
 30
0.0
 10
-10.36768
 20
-15.41217
 30
0.0
 10
-10.36768
 20
-15.41217
 30
0.0
 10
-10.36768
 20
-15.41217
 30
0.0
 10
-10.36768
 20
-15.41217
 30
0.0
 10
-10.38808
 20
-15.35918
 30
0.0
 10
-10.38808
 20
-15.35918
 30
0.0
 10
-10.38808
 20
-15.35918
 30
0.0
 10
-10.38808
 20
-15.35918
 30
0.0
 10
-10.38808
 20
-15.41217
 30
0.0
 10
-10.38808
 20
-15.41217
 30
0.0
 10
-10.38808
 20
-15.41217
 30
0.0
 10
-10.38808
 20
-15.41217
 30
0.0
 10
-10.40078
 20
-15.41217
 30
0.0
 10
-10.40078
 20
-15.41217
 30
0.0
 10
-10.40078
 20
-15.41217
 30
0.0
 10
-10.40078
 20
-15.41217
 30
0.0
 10
-10.40078
 20
-15.33926
 30
0.0
 10
-10.40078
 20
-15.33926
 30
0.0
  0
SPLINE
  5
99
330
1F
100
AcDbEntity
  8
Layer 1
 62
   250
100
AcDbSpline
210
0.0
220
0.0
230
1.0
 70
    11
 71
     3
 72
   116
 73
   112
 74
     0
 42
0.0000000001
 43
0.0000000001
 40
0.0
 40
0.0
 40
0.0
 40
0.0
 40
0.0357142857142857
 40
0.0357142857142857
 40
0.0357142857142857
 40
0.0357142857142857
 40
0.0714285714285714
 40
0.0714285714285714
 40
0.0714285714285714
 40
0.0714285714285714
 40
0.1071428571428571
 40
0.1071428571428571
 40
0.1071428571428571
 40
0.1071428571428571
 40
0.1428571428571428
 40
0.1428571428571428
 40
0.1428571428571428
 40
0.1428571428571428
 40
0.1785714285714285
 40
0.1785714285714285
 40
0.1785714285714285
 40
0.1785714285714285
 40
0.2142857142857142
 40
0.2142857142857142
 40
0.2142857142857142
 40
0.2142857142857142
 40
0.2499999999999999
 40
0.2499999999999999
 40
0.2499999999999999
 40
0.2499999999999999
 40
0.2857142857142856
 40
0.2857142857142856
 40
0.2857142857142856
 40
0.2857142857142856
 40
0.3214285714285713
 40
0.3214285714285713
 40
0.3214285714285713
 40
0.3214285714285713
 40
0.357142857142857
 40
0.357142857142857
 40
0.357142857142857
 40
0.357142857142857
 40
0.3928571428571427
 40
0.3928571428571427
 40
0.3928571428571427
 40
0.3928571428571427
 40
0.4285714285714284
 40
0.4285714285714284
 40
0.4285714285714284
 40
0.4285714285714284
 40
0.4642857142857141
 40
0.4642857142857141
 40
0.4642857142857141
 40
0.4642857142857141
 40
0.4999999999999998
 40
0.4999999999999998
 40
0.4999999999999998
 40
0.4999999999999998
 40
0.5357142857142856
 40
0.5357142857142856
 40
0.5357142857142856
 40
0.5357142857142856
 40
0.5714285714285713
 40
0.5714285714285713
 40
0.5714285714285713
 40
0.5714285714285713
 40
0.607142857142857
 40
0.607142857142857
 40
0.607142857142857
 40
0.607142857142857
 40
0.6428571428571427
 40
0.6428571428571427
 40
0.6428571428571427
 40
0.6428571428571427
 40
0.6785714285714284
 40
0.6785714285714284
 40
0.6785714285714284
 40
0.6785714285714284
 40
0.7142857142857141
 40
0.7142857142857141
 40
0.7142857142857141
 40
0.7142857142857141
 40
0.7499999999999998
 40
0.7499999999999998
 40
0.7499999999999998
 40
0.7499999999999998
 40
0.7857142857142855
 40
0.7857142857142855
 40
0.7857142857142855
 40
0.7857142857142855
 40
0.8214285714285712
 40
0.8214285714285712
 40
0.8214285714285712
 40
0.8214285714285712
 40
0.8571428571428569
 40
0.8571428571428569
 40
0.8571428571428569
 40
0.8571428571428569
 40
0.8928571428571426
 40
0.8928571428571426
 40
0.8928571428571426
 40
0.8928571428571426
 40
0.9285714285714283
 40
0.9285714285714283
 40
0.9285714285714283
 40
0.9285714285714283
 40
0.964285714285714
 40
0.964285714285714
 40
0.964285714285714
 40
0.964285714285714
 40
1.0
 40
1.0
 40
1.0
 40
1.0
 10
-10.32149
 20
-15.38018
 30
0.0
 10
-10.32874
 20
-15.37742
 30
0.0
 10
-10.33366
 20
-15.3745
 30
0.0
 10
-10.33624
 20
-15.37147
 30
0.0
 10
-10.33624
 20
-15.37147
 30
0.0
 10
-10.33881
 20
-15.36842
 30
0.0
 10
-10.34009
 20
-15.36433
 30
0.0
 10
-10.34009
 20
-15.35918
 30
0.0
 10
-10.34009
 20
-15.35918
 30
0.0
 10
-10.34009
 20
-15.35258
 30
0.0
 10
-10.33797
 20
-15.34738
 30
0.0
 10
-10.33374
 20
-15.34361
 30
0.0
 10
-10.33374
 20
-15.34361
 30
0.0
 10
-10.3295
 20
-15.33983
 30
0.0
 10
-10.3237
 20
-15.33795
 30
0.0
 10
-10.3163
 20
-15.33795
 30
0.0
 10
-10.3163
 20
-15.33795
 30
0.0
 10
-10.31295
 20
-15.33795
 30
0.0
 10
-10.3096
 20
-15.33833
 30
0.0
 10
-10.30625
 20
-15.3391
 30
0.0
 10
-10.30625
 20
-15.3391
 30
0.0
 10
-10.30289
 20
-15.33986
 30
0.0
 10
-10.29957
 20
-15.34098
 30
0.0
 10
-10.29628
 20
-15.34248
 30
0.0
 10
-10.29628
 20
-15.34248
 30
0.0
 10
-10.29628
 20
-15.34248
 30
0.0
 10
-10.29628
 20
-15.35655
 30
0.0
 10
-10.29628
 20
-15.35655
 30
0.0
 10
-10.29628
 20
-15.35655
 30
0.0
 10
-10.29939
 20
-15.35436
 30
0.0
 10
-10.30252
 20
-15.35271
 30
0.0
 10
-10.3057
 20
-15.35156
 30
0.0
 10
-10.3057
 20
-15.35156
 30
0.0
 10
-10.3089
 20
-15.35043
 30
0.0
 10
-10.31205
 20
-15.34986
 30
0.0
 10
-10.31519
 20
-15.34986
 30
0.0
 10
-10.31519
 20
-15.34986
 30
0.0
 10
-10.31867
 20
-15.34986
 30
0.0
 10
-10.32134
 20
-15.35056
 30
0.0
 10
-10.32319
 20
-15.35196
 30
0.0
 10
-10.32319
 20
-15.35196
 30
0.0
 10
-10.32504
 20
-15.35336
 30
0.0
 10
-10.32597
 20
-15.35536
 30
0.0
 10
-10.32597
 20
-15.35796
 30
0.0
 10
-10.32597
 20
-15.35796
 30
0.0
 10
-10.32597
 20
-15.35998
 30
0.0
 10
-10.32529
 20
-15.36165
 30
0.0
 10
-10.32394
 20
-15.36297
 30
0.0
 10
-10.32394
 20
-15.36297
 30
0.0
 10
-10.32259
 20
-15.36428
 30
0.0
 10
-10.31977
 20
-15.36575
 30
0.0
 10
-10.31547
 20
-15.36733
 30
0.0
 10
-10.31547
 20
-15.36733
 30
0.0
 10
-10.31547
 20
-15.36733
 30
0.0
 10
-10.30927
 20
-15.36968
 30
0.0
 10
-10.30927
 20
-15.36968
 30
0.0
 10
-10.30927
 20
-15.36968
 30
0.0
 10
-10.30342
 20
-15.37183
 30
0.0
 10
-10.2991
 20
-15.37468
 30
0.0
 10
-10.29633
 20
-15.37823
 30
0.0
 10
-10.29633
 20
-15.37823
 30
0.0
 10
-10.29357
 20
-15.38178
 30
0.0
 10
-10.29218
 20
-15.38625
 30
0.0
 10
-10.29218
 20
-15.39165
 30
0.0
 10
-10.29218
 20
-15.39165
 30
0.0
 10
-10.29218
 20
-15.39902
 30
0.0
 10
-10.29435
 20
-15.4045
 30
0.0
 10
-10.2987
 20
-15.40814
 30
0.0
 10
-10.2987
 20
-15.40814
 30
0.0
 10
-10.30305
 20
-15.41177
 30
0.0
 10
-10.30962
 20
-15.41359
 30
0.0
 10
-10.3184
 20
-15.41359
 30
0.0
 10
-10.3184
 20
-15.41359
 30
0.0
 10
-10.32202
 20
-15.41359
 30
0.0
 10
-10.32564
 20
-15.41315
 30
0.0
 10
-10.32927
 20
-15.41229
 30
0.0
 10
-10.32927
 20
-15.41229
 30
0.0
 10
-10.33289
 20
-15.41142
 30
0.0
 10
-10.33641
 20
-15.41015
 30
0.0
 10
-10.33979
 20
-15.40845
 30
0.0
 10
-10.33979
 20
-15.40845
 30
0.0
 10
-10.33979
 20
-15.40845
 30
0.0
 10
-10.33979
 20
-15.39355
 30
0.0
 10
-10.33979
 20
-15.39355
 30
0.0
 10
-10.33979
 20
-15.39355
 30
0.0
 10
-10.33596
 20
-15.39629
 30
0.0
 10
-10.33222
 20
-15.39834
 30
0.0
 10
-10.32864
 20
-15.39967
 30
0.0
 10
-10.32864
 20
-15.39967
 30
0.0
 10
-10.32504
 20
-15.401
 30
0.0
 10
-10.32149
 20
-15.40167
 30
0.0
 10
-10.31797
 20
-15.40167
 30
0.0
 10
-10.31797
 20
-15.40167
 30
0.0
 10
-10.31442
 20
-15.40167
 30
0.0
 10
-10.31167
 20
-15.40087
 30
0.0
 10
-10.30972
 20
-15.39925
 30
0.0
 10
-10.30972
 20
-15.39925
 30
0.0
 10
-10.30777
 20
-15.39764
 30
0.0
 10
-10.30679
 20
-15.39538
 30
0.0
 10
-10.30679
 20
-15.39248
 30
0.0
 10
-10.30679
 20
-15.39248
 30
0.0
 10
-10.30679
 20
-15.3903
 30
0.0
 10
-10.30744
 20
-15.38838
 30
0.0
 10
-10.30874
 20
-15.38675
 30
0.0
 10
-10.30874
 20
-15.38675
 30
0.0
 10
-10.31004
 20
-15.3851
 30
0.0
 10
-10.31192
 20
-15.3838
 30
0.0
 10
-10.3144
 20
-15.38287
 30
0.0
 10
-10.3144
 20
-15.38287
 30
0.0
 10
-10.3144
 20
-15.38287
 30
0.0
 10
-10.32149
 20
-15.38018
 30
0.0
 10
-10.32149
 20
-15.38018
 30
0.0
  0
SPLINE
  5
9A
330
1F
100
AcDbEntity
  8
Layer 1
 62
   250
100
AcDbSpline
210
0.0
220
0.0
230
1.0
 70
    11
 71
     3
 72
    88
 73
    84
 74
     0
 42
0.0000000001
 43
0.0000000001
 40
0.0
 40
0.0
 40
0.0
 40
0.0
 40
0.0476190476190476
 40
0.0476190476190476
 40
0.0476190476190476
 40
0.0476190476190476
 40
0.0952380952380952
 40
0.0952380952380952
 40
0.0952380952380952
 40
0.0952380952380952
 40
0.1428571428571428
 40
0.1428571428571428
 40
0.1428571428571428
 40
0.1428571428571428
 40
0.1904761904761905
 40
0.1904761904761905
 40
0.1904761904761905
 40
0.1904761904761905
 40
0.2380952380952381
 40
0.2380952380952381
 40
0.2380952380952381
 40
0.2380952380952381
 40
0.2857142857142857
 40
0.2857142857142857
 40
0.2857142857142857
 40
0.2857142857142857
 40
0.3333333333333333
 40
0.3333333333333333
 40
0.3333333333333333
 40
0.3333333333333333
 40
0.3809523809523809
 40
0.3809523809523809
 40
0.3809523809523809
 40
0.3809523809523809
 40
0.4285714285714285
 40
0.4285714285714285
 40
0.4285714285714285
 40
0.4285714285714285
 40
0.4761904761904762
 40
0.4761904761904762
 40
0.4761904761904762
 40
0.4761904761904762
 40
0.5238095238095237
 40
0.5238095238095237
 40
0.5238095238095237
 40
0.5238095238095237
 40
0.5714285714285714
 40
0.5714285714285714
 40
0.5714285714285714
 40
0.5714285714285714
 40
0.6190476190476191
 40
0.6190476190476191
 40
0.6190476190476191
 40
0.6190476190476191
 40
0.6666666666666667
 40
0.6666666666666667
 40
0.6666666666666667
 40
0.6666666666666667
 40
0.7142857142857144
 40
0.7142857142857144
 40
0.7142857142857144
 40
0.7142857142857144
 40
0.7619047619047621
 40
0.7619047619047621
 40
0.7619047619047621
 40
0.7619047619047621
 40
0.8095238095238098
 40
0.8095238095238098
 40
0.8095238095238098
 40
0.8095238095238098
 40
0.8571428571428574
 40
0.8571428571428574
 40
0.8571428571428574
 40
0.8571428571428574
 40
0.9047619047619051
 40
0.9047619047619051
 40
0.9047619047619051
 40
0.9047619047619051
 40
0.9523809523809528
 40
0.9523809523809528
 40
0.9523809523809528
 40
0.9523809523809528
 40
1.0
 40
1.0
 40
1.0
 40
1.0
 10
-10.26499
 20
-15.39947
 30
0.0
 10
-10.26499
 20
-15.39947
 30
0.0
 10
-10.23427
 20
-15.39947
 30
0.0
 10
-10.23427
 20
-15.39947
 30
0.0
 10
-10.23427
 20
-15.39947
 30
0.0
 10
-10.23427
 20
-15.39947
 30
0.0
 10
-10.23427
 20
-15.41217
 30
0.0
 10
-10.23427
 20
-15.41217
 30
0.0
 10
-10.23427
 20
-15.41217
 30
0.0
 10
-10.23427
 20
-15.41217
 30
0.0
 10
-10.28056
 20
-15.41217
 30
0.0
 10
-10.28056
 20
-15.41217
 30
0.0
 10
-10.28056
 20
-15.41217
 30
0.0
 10
-10.28056
 20
-15.41217
 30
0.0
 10
-10.28056
 20
-15.39985
 30
0.0
 10
-10.28056
 20
-15.39985
 30
0.0
 10
-10.28056
 20
-15.39985
 30
0.0
 10
-10.28056
 20
-15.39985
 30
0.0
 10
-10.27275
 20
-15.39157
 30
0.0
 10
-10.27275
 20
-15.39157
 30
0.0
 10
-10.27275
 20
-15.39157
 30
0.0
 10
-10.26348
 20
-15.3817
 30
0.0
 10
-10.25784
 20
-15.37563
 30
0.0
 10
-10.25586
 20
-15.37335
 30
0.0
 10
-10.25586
 20
-15.37335
 30
0.0
 10
-10.25343
 20
-15.37055
 30
0.0
 10
-10.25166
 20
-15.36807
 30
0.0
 10
-10.25059
 20
-15.3659
 30
0.0
 10
-10.25059
 20
-15.3659
 30
0.0
 10
-10.24951
 20
-15.36373
 30
0.0
 10
-10.24898
 20
-15.3616
 30
0.0
 10
-10.24898
 20
-15.35948
 30
0.0
 10
-10.24898
 20
-15.35948
 30
0.0
 10
-10.24898
 20
-15.35623
 30
0.0
 10
-10.24996
 20
-15.35371
 30
0.0
 10
-10.25193
 20
-15.35195
 30
0.0
 10
-10.25193
 20
-15.35195
 30
0.0
 10
-10.25389
 20
-15.35016
 30
0.0
 10
-10.25669
 20
-15.34928
 30
0.0
 10
-10.26029
 20
-15.34928
 30
0.0
 10
-10.26029
 20
-15.34928
 30
0.0
 10
-10.26288
 20
-15.34928
 30
0.0
 10
-10.26576
 20
-15.3498
 30
0.0
 10
-10.26896
 20
-15.35081
 30
0.0
 10
-10.26896
 20
-15.35081
 30
0.0
 10
-10.27218
 20
-15.35185
 30
0.0
 10
-10.27551
 20
-15.35333
 30
0.0
 10
-10.279
 20
-15.35528
 30
0.0
 10
-10.279
 20
-15.35528
 30
0.0
 10
-10.279
 20
-15.35528
 30
0.0
 10
-10.279
 20
-15.34185
 30
0.0
 10
-10.279
 20
-15.34185
 30
0.0
 10
-10.279
 20
-15.34185
 30
0.0
 10
-10.27551
 20
-15.34058
 30
0.0
 10
-10.27211
 20
-15.33961
 30
0.0
 10
-10.26876
 20
-15.33895
 30
0.0
 10
-10.26876
 20
-15.33895
 30
0.0
 10
-10.26543
 20
-15.33828
 30
0.0
 10
-10.26223
 20
-15.33795
 30
0.0
 10
-10.25918
 20
-15.33795
 30
0.0
 10
-10.25918
 20
-15.33795
 30
0.0
 10
-10.25146
 20
-15.33795
 30
0.0
 10
-10.24539
 20
-15.33975
 30
0.0
 10
-10.24099
 20
-15.34335
 30
0.0
 10
-10.24099
 20
-15.34335
 30
0.0
 10
-10.23658
 20
-15.34693
 30
0.0
 10
-10.23437
 20
-15.35185
 30
0.0
 10
-10.23437
 20
-15.35806
 30
0.0
 10
-10.23437
 20
-15.35806
 30
0.0
 10
-10.23437
 20
-15.36093
 30
0.0
 10
-10.23486
 20
-15.36362
 30
0.0
 10
-10.23581
 20
-15.36612
 30
0.0
 10
-10.23581
 20
-15.36612
 30
0.0
 10
-10.23678
 20
-15.36863
 30
0.0
 10
-10.23843
 20
-15.37142
 30
0.0
 10
-10.24078
 20
-15.37447
 30
0.0
 10
-10.24078
 20
-15.37447
 30
0.0
 10
-10.24249
 20
-15.37668
 30
0.0
 10
-10.24723
 20
-15.38167
 30
0.0
 10
-10.25498
 20
-15.38942
 30
0.0
 10
-10.25498
 20
-15.38942
 30
0.0
 10
-10.25918
 20
-15.3936
 30
0.0
 10
-10.26251
 20
-15.39697
 30
0.0
 10
-10.26499
 20
-15.39947
 30
0.0
  0
SPLINE
  5
9B
330
1F
100
AcDbEntity
  8
Layer 1
 62
   250
100
AcDbSpline
210
0.0
220
0.0
230
1.0
 70
    11
 71
     3
 72
    92
 73
    88
 74
     0
 42
0.0000000001
 43
0.0000000001
 40
0.0
 40
0.0
 40
0.0
 40
0.0
 40
0.0454545454545455
 40
0.0454545454545455
 40
0.0454545454545455
 40
0.0454545454545455
 40
0.0909090909090909
 40
0.0909090909090909
 40
0.0909090909090909
 40
0.0909090909090909
 40
0.1363636363636364
 40
0.1363636363636364
 40
0.1363636363636364
 40
0.1363636363636364
 40
0.1818181818181818
 40
0.1818181818181818
 40
0.1818181818181818
 40
0.1818181818181818
 40
0.2272727272727273
 40
0.2272727272727273
 40
0.2272727272727273
 40
0.2272727272727273
 40
0.2727272727272728
 40
0.2727272727272728
 40
0.2727272727272728
 40
0.2727272727272728
 40
0.3181818181818182
 40
0.3181818181818182
 40
0.3181818181818182
 40
0.3181818181818182
 40
0.3636363636363637
 40
0.3636363636363637
 40
0.3636363636363637
 40
0.3636363636363637
 40
0.4090909090909092
 40
0.4090909090909092
 40
0.4090909090909092
 40
0.4090909090909092
 40
0.4545454545454546
 40
0.4545454545454546
 40
0.4545454545454546
 40
0.4545454545454546
 40
0.5000000000000001
 40
0.5000000000000001
 40
0.5000000000000001
 40
0.5000000000000001
 40
0.5454545454545455
 40
0.5454545454545455
 40
0.5454545454545455
 40
0.5454545454545455
 40
0.5909090909090909
 40
0.5909090909090909
 40
0.5909090909090909
 40
0.5909090909090909
 40
0.6363636363636364
 40
0.6363636363636364
 40
0.6363636363636364
 40
0.6363636363636364
 40
0.6818181818181818
 40
0.6818181818181818
 40
0.6818181818181818
 40
0.6818181818181818
 40
0.7272727272727272
 40
0.7272727272727272
 40
0.7272727272727272
 40
0.7272727272727272
 40
0.7727272727272726
 40
0.7727272727272726
 40
0.7727272727272726
 40
0.7727272727272726
 40
0.818181818181818
 40
0.818181818181818
 40
0.818181818181818
 40
0.818181818181818
 40
0.8636363636363634
 40
0.8636363636363634
 40
0.8636363636363634
 40
0.8636363636363634
 40
0.9090909090909088
 40
0.9090909090909088
 40
0.9090909090909088
 40
0.9090909090909088
 40
0.9545454545454543
 40
0.9545454545454543
 40
0.9545454545454543
 40
0.9545454545454543
 40
1.0
 40
1.0
 40
1.0
 40
1.0
 10
-10.21655
 20
-15.33926
 30
0.0
 10
-10.21655
 20
-15.33926
 30
0.0
 10
-10.17695
 20
-15.33926
 30
0.0
 10
-10.17695
 20
-15.33926
 30
0.0
 10
-10.17695
 20
-15.33926
 30
0.0
 10
-10.17695
 20
-15.33926
 30
0.0
 10
-10.17695
 20
-15.35196
 30
0.0
 10
-10.17695
 20
-15.35196
 30
0.0
 10
-10.17695
 20
-15.35196
 30
0.0
 10
-10.17695
 20
-15.35196
 30
0.0
 10
-10.20488
 20
-15.35196
 30
0.0
 10
-10.20488
 20
-15.35196
 30
0.0
 10
-10.20488
 20
-15.35196
 30
0.0
 10
-10.20488
 20
-15.35196
 30
0.0
 10
-10.20488
 20
-15.36548
 30
0.0
 10
-10.20488
 20
-15.36548
 30
0.0
 10
-10.20488
 20
-15.36548
 30
0.0
 10
-10.20372
 20
-15.36503
 30
0.0
 10
-10.20245
 20
-15.3647
 30
0.0
 10
-10.20112
 20
-15.36448
 30
0.0
 10
-10.20112
 20
-15.36448
 30
0.0
 10
-10.19978
 20
-15.36427
 30
0.0
 10
-10.19837
 20
-15.36417
 30
0.0
 10
-10.19687
 20
-15.36417
 30
0.0
 10
-10.19687
 20
-15.36417
 30
0.0
 10
-10.18965
 20
-15.36417
 30
0.0
 10
-10.18378
 20
-15.36645
 30
0.0
 10
-10.17928
 20
-15.371
 30
0.0
 10
-10.17928
 20
-15.371
 30
0.0
 10
-10.1748
 20
-15.37557
 30
0.0
 10
-10.17255
 20
-15.38148
 30
0.0
 10
-10.17255
 20
-15.38878
 30
0.0
 10
-10.17255
 20
-15.38878
 30
0.0
 10
-10.17255
 20
-15.39644
 30
0.0
 10
-10.17498
 20
-15.40247
 30
0.0
 10
-10.17985
 20
-15.40692
 30
0.0
 10
-10.17985
 20
-15.40692
 30
0.0
 10
-10.18472
 20
-15.41137
 30
0.0
 10
-10.19135
 20
-15.41359
 30
0.0
 10
-10.19975
 20
-15.41359
 30
0.0
 10
-10.19975
 20
-15.41359
 30
0.0
 10
-10.20287
 20
-15.41359
 30
0.0
 10
-10.20603
 20
-15.41332
 30
0.0
 10
-10.20922
 20
-15.4128
 30
0.0
 10
-10.20922
 20
-15.4128
 30
0.0
 10
-10.2124
 20
-15.41229
 30
0.0
 10
-10.21567
 20
-15.4115
 30
0.0
 10
-10.21899
 20
-15.41045
 30
0.0
 10
-10.21899
 20
-15.41045
 30
0.0
 10
-10.21899
 20
-15.41045
 30
0.0
 10
-10.21899
 20
-15.39747
 30
0.0
 10
-10.21899
 20
-15.39747
 30
0.0
 10
-10.21899
 20
-15.39747
 30
0.0
 10
-10.21629
 20
-15.3988
 30
0.0
 10
-10.2135
 20
-15.3998
 30
0.0
 10
-10.21067
 20
-15.40047
 30
0.0
 10
-10.21067
 20
-15.40047
 30
0.0
 10
-10.20782
 20
-15.40114
 30
0.0
 10
-10.20495
 20
-15.40147
 30
0.0
 10
-10.20208
 20
-15.40147
 30
0.0
 10
-10.20208
 20
-15.40147
 30
0.0
 10
-10.19702
 20
-15.40147
 30
0.0
 10
-10.19315
 20
-15.40039
 30
0.0
 10
-10.19052
 20
-15.39822
 30
0.0
 10
-10.19052
 20
-15.39822
 30
0.0
 10
-10.18788
 20
-15.39605
 30
0.0
 10
-10.18657
 20
-15.39292
 30
0.0
 10
-10.18657
 20
-15.38878
 30
0.0
 10
-10.18657
 20
-15.38878
 30
0.0
 10
-10.18657
 20
-15.38497
 30
0.0
 10
-10.18788
 20
-15.38192
 30
0.0
 10
-10.1905
 20
-15.37962
 30
0.0
 10
-10.1905
 20
-15.37962
 30
0.0
 10
-10.19312
 20
-15.37733
 30
0.0
 10
-10.19662
 20
-15.37618
 30
0.0
 10
-10.20097
 20
-15.37618
 30
0.0
 10
-10.20097
 20
-15.37618
 30
0.0
 10
-10.20355
 20
-15.37618
 30
0.0
 10
-10.20612
 20
-15.3765
 30
0.0
 10
-10.20872
 20
-15.37713
 30
0.0
 10
-10.20872
 20
-15.37713
 30
0.0
 10
-10.2113
 20
-15.37777
 30
0.0
 10
-10.21392
 20
-15.37873
 30
0.0
 10
-10.21655
 20
-15.38
 30
0.0
 10
-10.21655
 20
-15.38
 30
0.0
 10
-10.21655
 20
-15.38
 30
0.0
 10
-10.21655
 20
-15.33926
 30
0.0
 10
-10.21655
 20
-15.33926
 30
0.0
  0
SPLINE
  5
9C
330
1F
100
AcDbEntity
  8
Layer 1
 62
   250
100
AcDbSpline
210
0.0
220
0.0
230
1.0
 70
    11
 71
     3
 72
    32
 73
    28
 74
     0
 42
0.0000000001
 43
0.0000000001
 40
0.0
 40
0.0
 40
0.0
 40
0.0
 40
0.1428571428571428
 40
0.1428571428571428
 40
0.1428571428571428
 40
0.1428571428571428
 40
0.2857142857142857
 40
0.2857142857142857
 40
0.2857142857142857
 40
0.2857142857142857
 40
0.4285714285714285
 40
0.4285714285714285
 40
0.4285714285714285
 40
0.4285714285714285
 40
0.5714285714285714
 40
0.5714285714285714
 40
0.5714285714285714
 40
0.5714285714285714
 40
0.7142857142857142
 40
0.7142857142857142
 40
0.7142857142857142
 40
0.7142857142857142
 40
0.857142857142857
 40
0.857142857142857
 40
0.857142857142857
 40
0.857142857142857
 40
1.0
 40
1.0
 40
1.0
 40
1.0
 10
-10.14467
 20
-15.35225
 30
0.0
 10
-10.14467
 20
-15.35225
 30
0.0
 10
-10.14467
 20
-15.39919
 30
0.0
 10
-10.14467
 20
-15.39919
 30
0.0
 10
-10.14467
 20
-15.39919
 30
0.0
 10
-10.14467
 20
-15.39919
 30
0.0
 10
-10.14077
 20
-15.39919
 30
0.0
 10
-10.14077
 20
-15.39919
 30
0.0
 10
-10.14077
 20
-15.39919
 30
0.0
 10
-10.13511
 20
-15.39919
 30
0.0
 10
-10.13106
 20
-15.3974
 30
0.0
 10
-10.12866
 20
-15.39383
 30
0.0
 10
-10.12866
 20
-15.39383
 30
0.0
 10
-10.12624
 20
-15.39027
 30
0.0
 10
-10.12504
 20
-15.3842
 30
0.0
 10
-10.12504
 20
-15.37565
 30
0.0
 10
-10.12504
 20
-15.37565
 30
0.0
 10
-10.12504
 20
-15.36715
 30
0.0
 10
-10.12624
 20
-15.36111
 30
0.0
 10
-10.12866
 20
-15.35756
 30
0.0
 10
-10.12866
 20
-15.35756
 30
0.0
 10
-10.13106
 20
-15.35401
 30
0.0
 10
-10.13511
 20
-15.35225
 30
0.0
 10
-10.14077
 20
-15.35225
 30
0.0
 10
-10.14077
 20
-15.35225
 30
0.0
 10
-10.14077
 20
-15.35225
 30
0.0
 10
-10.14467
 20
-15.35225
 30
0.0
 10
-10.14467
 20
-15.35225
 30
0.0
  0
SPLINE
  5
9D
330
1F
100
AcDbEntity
  8
Layer 1
 62
   250
100
AcDbSpline
210
0.0
220
0.0
230
1.0
 70
    11
 71
     3
 72
    32
 73
    28
 74
     0
 42
0.0000000001
 43
0.0000000001
 40
0.0
 40
0.0
 40
0.0
 40
0.0
 40
0.1428571428571428
 40
0.1428571428571428
 40
0.1428571428571428
 40
0.1428571428571428
 40
0.2857142857142857
 40
0.2857142857142857
 40
0.2857142857142857
 40
0.2857142857142857
 40
0.4285714285714285
 40
0.4285714285714285
 40
0.4285714285714285
 40
0.4285714285714285
 40
0.5714285714285714
 40
0.5714285714285714
 40
0.5714285714285714
 40
0.5714285714285714
 40
0.7142857142857142
 40
0.7142857142857142
 40
0.7142857142857142
 40
0.7142857142857142
 40
0.857142857142857
 40
0.857142857142857
 40
0.857142857142857
 40
0.857142857142857
 40
1.0
 40
1.0
 40
1.0
 40
1.0
 10
-10.15908
 20
-15.33926
 30
0.0
 10
-10.15908
 20
-15.33926
 30
0.0
 10
-10.14364
 20
-15.33926
 30
0.0
 10
-10.14364
 20
-15.33926
 30
0.0
 10
-10.14364
 20
-15.33926
 30
0.0
 10
-10.13174
 20
-15.33926
 30
0.0
 10
-10.12316
 20
-15.3421
 30
0.0
 10
-10.11792
 20
-15.34778
 30
0.0
 10
-10.11792
 20
-15.34778
 30
0.0
 10
-10.11267
 20
-15.35346
 30
0.0
 10
-10.11005
 20
-15.36275
 30
0.0
 10
-10.11005
 20
-15.37565
 30
0.0
 10
-10.11005
 20
-15.37565
 30
0.0
 10
-10.11005
 20
-15.38857
 30
0.0
 10
-10.11267
 20
-15.39789
 30
0.0
 10
-10.11792
 20
-15.4036
 30
0.0
 10
-10.11792
 20
-15.4036
 30
0.0
 10
-10.12316
 20
-15.40932
 30
0.0
 10
-10.13174
 20
-15.41217
 30
0.0
 10
-10.14364
 20
-15.41217
 30
0.0
 10
-10.14364
 20
-15.41217
 30
0.0
 10
-10.14364
 20
-15.41217
 30
0.0
 10
-10.15908
 20
-15.41217
 30
0.0
 10
-10.15908
 20
-15.41217
 30
0.0
 10
-10.15908
 20
-15.41217
 30
0.0
 10
-10.15908
 20
-15.41217
 30
0.0
 10
-10.15908
 20
-15.33926
 30
0.0
 10
-10.15908
 20
-15.33926
 30
0.0
  0
ENDSEC
  0
SECTION
  2
OBJECTS
  0
DICTIONARY
  5
C
330
0
100
AcDbDictionary
281
     1
  3
ACAD_GROUP
350
D
  3
ACAD_LAYOUT
350
1A
  3
ACAD_MLEADERSTYLE
350
9F
  3
ACAD_MLINESTYLE
350
17
  3
ACAD_PLOTSETTINGS
350
19
  3
ACAD_PLOTSTYLENAME
350
E
  3
ACAD_SCALELIST
350
3B
  3
ACAD_TABLESTYLE
350
9E
  3
ACAD_VISUALSTYLE
350
2A
  0
DICTIONARY
  5
D
102
{ACAD_REACTORS
330
C
102
}
330
C
100
AcDbDictionary
281
     1
  0
DICTIONARY
  5
1A
102
{ACAD_REACTORS
330
C
102
}
330
C
100
AcDbDictionary
281
     1
  3
Layout1
350
1E
  3
Layout2
350
26
  3
Model
350
22
  0
DICTIONARY
  5
9F
102
{ACAD_REACTORS
330
C
102
}
330
C
100
AcDbDictionary
281
     1
  0
DICTIONARY
  5
17
102
{ACAD_REACTORS
330
C
102
}
330
C
100
AcDbDictionary
281
     1
  3
Standard
350
18
  0
DICTIONARY
  5
19
102
{ACAD_REACTORS
330
C
102
}
330
C
100
AcDbDictionary
281
     1
  0
ACDBDICTIONARYWDFLT
  5
E
102
{ACAD_REACTORS
330
C
102
}
330
C
100
AcDbDictionary
281
     1
  3
Normal
350
F
100
AcDbDictionaryWithDefault
340
F
  0
DICTIONARY
  5
3B
102
{ACAD_REACTORS
330
C
102
}
330
C
100
AcDbDictionary
281
     1
  3
A0
350
3C
  3
A1
350
3D
  3
A2
350
3E
  3
A3
350
3F
  3
A4
350
40
  3
A5
350
41
  3
A6
350
42
  3
A7
350
43
  3
A8
350
44
  3
A9
350
45
  3
B0
350
46
  3
B1
350
47
  3
B2
350
48
  3
B3
350
49
  3
B4
350
4A
  3
B5
350
4B
  3
B6
350
4C
  3
B7
350
4D
  3
B8
350
4E
  3
B9
350
4F
  3
C0
350
50
  3
C1
350
51
  3
C2
350
52
  3
C3
350
53
  3
C4
350
54
  3
C5
350
55
  3
C6
350
56
  3
C7
350
57
  3
C8
350
58
  3
C9
350
59
  3
D0
350
5A
  3
D1
350
5B
  3
D2
350
5C
  0
DICTIONARY
  5
9E
102
{ACAD_REACTORS
330
C
102
}
330
C
100
AcDbDictionary
281
     1
  0
DICTIONARY
  5
2A
102
{ACAD_REACTORS
330
C
102
}
330
C
100
AcDbDictionary
281
     1
  3
2dWireframe
350
2F
  3
3D Hidden
350
31
  3
3dWireframe
350
30
  3
Basic
350
32
  3
Brighten
350
36
  3
ColorChange
350
3A
  3
Conceptual
350
34
  3
Dim
350
35
  3
Facepattern
350
39
  3
Flat
350
2B
  3
FlatWithEdges
350
2C
  3
Gouraud
350
2D
  3
GouraudWithEdges
350
2E
  3
Linepattern
350
38
  3
Realistic
350
33
  3
Thicken
350
37
  0
LAYOUT
  5
1E
102
{ACAD_REACTORS
330
1A
102
}
330
1A
100
AcDbPlotSettings
  1

  2
none_device
  4

  6

 40
0.0
 41
0.0
 42
0.0
 43
0.0
 44
0.0
 45
0.0
 46
0.0
 47
0.0
 48
0.0
 49
0.0
140
0.0
141
0.0
142
1.0
143
1.0
 70
   688
 72
     0
 73
     0
 74
     5
  7

 75
    16
 76
     0
 77
     2
 78
   300
147
1.0
148
0.0
149
0.0
100
AcDbLayout
  1
Layout1
 70
     1
 71
     1
 10
0.0
 20
0.0
 11
12.0
 21
9.0
 12
0.0
 22
0.0
 32
0.0
 14
1.000000000000000E+20
 24
1.000000000000000E+20
 34
1.000000000000000E+20
 15
-1.000000000000000E+20
 25
-1.000000000000000E+20
 35
-1.000000000000000E+20
146
0.0
 13
0.0
 23
0.0
 33
0.0
 16
1.0
 26
0.0
 36
0.0
 17
0.0
 27
1.0
 37
0.0
 76
     0
330
1B
  0
LAYOUT
  5
26
102
{ACAD_REACTORS
330
1A
102
}
330
1A
100
AcDbPlotSettings
  1

  2
none_device
  4

  6

 40
0.0
 41
0.0
 42
0.0
 43
0.0
 44
0.0
 45
0.0
 46
0.0
 47
0.0
 48
0.0
 49
0.0
140
0.0
141
0.0
142
1.0
143
1.0
 70
   688
 72
     0
 73
     0
 74
     5
  7

 75
    16
 76
     0
 77
     2
 78
   300
147
1.0
148
0.0
149
0.0
100
AcDbLayout
  1
Layout2
 70
     1
 71
     2
 10
0.0
 20
0.0
 11
0.0
 21
0.0
 12
0.0
 22
0.0
 32
0.0
 14
0.0
 24
0.0
 34
0.0
 15
0.0
 25
0.0
 35
0.0
146
0.0
 13
0.0
 23
0.0
 33
0.0
 16
1.0
 26
0.0
 36
0.0
 17
0.0
 27
1.0
 37
0.0
 76
     0
330
23
  0
LAYOUT
  5
22
102
{ACAD_REACTORS
330
1A
102
}
330
1A
100
AcDbPlotSettings
  1

  2
none_device
  4

  6

 40
0.0
 41
0.0
 42
0.0
 43
0.0
 44
0.0
 45
0.0
 46
0.0
 47
0.0
 48
0.0
 49
0.0
140
0.0
141
0.0
142
1.0
143
1.0
 70
  1712
 72
     0
 73
     0
 74
     0
  7

 75
     0
 76
     0
 77
     2
 78
   300
147
1.0
148
0.0
149
0.0
100
AcDbLayout
  1
Model
 70
     1
 71
     0
 10
0.0
 20
0.0
 11
12.0
 21
9.0
 12
0.0
 22
0.0
 32
0.0
 14
-11.7
 24
-16.05
 34
0.0
 15
-9.3
 25
-13.65
 35
0.0
146
0.0
 13
0.0
 23
0.0
 33
0.0
 16
1.0
 26
0.0
 36
0.0
 17
0.0
 27
1.0
 37
0.0
 76
     0
330
1F
331
29
  0
MLINESTYLE
  5
18
102
{ACAD_REACTORS
330
17
102
}
330
17
100
AcDbMlineStyle
  2
Standard
 70
     0
  3

 62
   256
 51
90.0
 52
90.0
 71
     2
 49
0.5
 62
   256
  6
BYLAYER
 49
-0.5
 62
   256
  6
BYLAYER
  0
ACDBPLACEHOLDER
  5
F
102
{ACAD_REACTORS
330
E
102
}
330
E
  0
SCALE
  5
3C
102
{ACAD_REACTORS
330
3B
102
}
330
3B
100
AcDbScale
 70
     0
300
1:1
140
1.0
141
1.0
290
     1
  0
SCALE
  5
3D
102
{ACAD_REACTORS
330
3B
102
}
330
3B
100
AcDbScale
 70
     0
300
1:2
140
1.0
141
2.0
290
     0
  0
SCALE
  5
3E
102
{ACAD_REACTORS
330
3B
102
}
330
3B
100
AcDbScale
 70
     0
300
1:4
140
1.0
141
4.0
290
     0
  0
SCALE
  5
3F
102
{ACAD_REACTORS
330
3B
102
}
330
3B
100
AcDbScale
 70
     0
300
1:5
140
1.0
141
5.0
290
     0
  0
SCALE
  5
40
102
{ACAD_REACTORS
330
3B
102
}
330
3B
100
AcDbScale
 70
     0
300
1:8
140
1.0
141
8.0
290
     0
  0
SCALE
  5
41
102
{ACAD_REACTORS
330
3B
102
}
330
3B
100
AcDbScale
 70
     0
300
1:10
140
1.0
141
10.0
290
     0
  0
SCALE
  5
42
102
{ACAD_REACTORS
330
3B
102
}
330
3B
100
AcDbScale
 70
     0
300
1:16
140
1.0
141
16.0
290
     0
  0
SCALE
  5
43
102
{ACAD_REACTORS
330
3B
102
}
330
3B
100
AcDbScale
 70
     0
300
1:20
140
1.0
141
20.0
290
     0
  0
SCALE
  5
44
102
{ACAD_REACTORS
330
3B
102
}
330
3B
100
AcDbScale
 70
     0
300
1:30
140
1.0
141
30.0
290
     0
  0
SCALE
  5
45
102
{ACAD_REACTORS
330
3B
102
}
330
3B
100
AcDbScale
 70
     0
300
1:40
140
1.0
141
40.0
290
     0
  0
SCALE
  5
46
102
{ACAD_REACTORS
330
3B
102
}
330
3B
100
AcDbScale
 70
     0
300
1:50
140
1.0
141
50.0
290
     0
  0
SCALE
  5
47
102
{ACAD_REACTORS
330
3B
102
}
330
3B
100
AcDbScale
 70
     0
300
1:100
140
1.0
141
100.0
290
     0
  0
SCALE
  5
48
102
{ACAD_REACTORS
330
3B
102
}
330
3B
100
AcDbScale
 70
     0
300
2:1
140
2.0
141
1.0
290
     0
  0
SCALE
  5
49
102
{ACAD_REACTORS
330
3B
102
}
330
3B
100
AcDbScale
 70
     0
300
4:1
140
4.0
141
1.0
290
     0
  0
SCALE
  5
4A
102
{ACAD_REACTORS
330
3B
102
}
330
3B
100
AcDbScale
 70
     0
300
8:1
140
8.0
141
1.0
290
     0
  0
SCALE
  5
4B
102
{ACAD_REACTORS
330
3B
102
}
330
3B
100
AcDbScale
 70
     0
300
10:1
140
10.0
141
1.0
290
     0
  0
SCALE
  5
4C
102
{ACAD_REACTORS
330
3B
102
}
330
3B
100
AcDbScale
 70
     0
300
100:1
140
100.0
141
1.0
290
     0
  0
SCALE
  5
4D
102
{ACAD_REACTORS
330
3B
102
}
330
3B
100
AcDbScale
 70
     0
300
1/128" = 1'-0"
140
0.0078125
141
12.0
290
     0
  0
SCALE
  5
4E
102
{ACAD_REACTORS
330
3B
102
}
330
3B
100
AcDbScale
 70
     0
300
1/64" = 1'-0"
140
0.015625
141
12.0
290
     0
  0
SCALE
  5
4F
102
{ACAD_REACTORS
330
3B
102
}
330
3B
100
AcDbScale
 70
     0
300
1/32" = 1'-0"
140
0.03125
141
12.0
290
     0
  0
SCALE
  5
50
102
{ACAD_REACTORS
330
3B
102
}
330
3B
100
AcDbScale
 70
     0
300
1/16" = 1'-0"
140
0.0625
141
12.0
290
     0
  0
SCALE
  5
51
102
{ACAD_REACTORS
330
3B
102
}
330
3B
100
AcDbScale
 70
     0
300
3/32" = 1'-0"
140
0.09375
141
12.0
290
     0
  0
SCALE
  5
52
102
{ACAD_REACTORS
330
3B
102
}
330
3B
100
AcDbScale
 70
     0
300
1/8" = 1'-0"
140
0.125
141
12.0
290
     0
  0
SCALE
  5
53
102
{ACAD_REACTORS
330
3B
102
}
330
3B
100
AcDbScale
 70
     0
300
3/16" = 1'-0"
140
0.1875
141
12.0
290
     0
  0
SCALE
  5
54
102
{ACAD_REACTORS
330
3B
102
}
330
3B
100
AcDbScale
 70
     0
300
1/4" = 1'-0"
140
0.25
141
12.0
290
     0
  0
SCALE
  5
55
102
{ACAD_REACTORS
330
3B
102
}
330
3B
100
AcDbScale
 70
     0
300
3/8" = 1'-0"
140
0.375
141
12.0
290
     0
  0
SCALE
  5
56
102
{ACAD_REACTORS
330
3B
102
}
330
3B
100
AcDbScale
 70
     0
300
1/2" = 1'-0"
140
0.5
141
12.0
290
     0
  0
SCALE
  5
57
102
{ACAD_REACTORS
330
3B
102
}
330
3B
100
AcDbScale
 70
     0
300
3/4" = 1'-0"
140
0.75
141
12.0
290
     0
  0
SCALE
  5
58
102
{ACAD_REACTORS
330
3B
102
}
330
3B
100
AcDbScale
 70
     0
300
1" = 1'-0"
140
1.0
141
12.0
290
     0
  0
SCALE
  5
59
102
{ACAD_REACTORS
330
3B
102
}
330
3B
100
AcDbScale
 70
     0
300
1-1/2" = 1'-0"
140
1.5
141
12.0
290
     0
  0
SCALE
  5
5A
102
{ACAD_REACTORS
330
3B
102
}
330
3B
100
AcDbScale
 70
     0
300
3" = 1'-0"
140
3.0
141
12.0
290
     0
  0
SCALE
  5
5B
102
{ACAD_REACTORS
330
3B
102
}
330
3B
100
AcDbScale
 70
     0
300
6" = 1'-0"
140
6.0
141
12.0
290
     0
  0
SCALE
  5
5C
102
{ACAD_REACTORS
330
3B
102
}
330
3B
100
AcDbScale
 70
     0
300
1'-0" = 1'-0"
140
12.0
141
12.0
290
     0
  0
VISUALSTYLE
  5
2F
102
{ACAD_REACTORS
330
2A
102
}
330
2A
100
AcDbVisualStyle
  2
2dWireframe
 70
     4
 71
     0
 72
     2
 73
     0
 90
        0
 40
-0.6
 41
-30.0
 62
     5
 63
     7
421
 16777215
 74
     1
 91
        4
 64
     7
 65
   257
 75
     1
175
     1
 42
1.0
 92
        0
 66
   257
 43
1.0
 76
     1
 77
     6
 78
     2
 67
     7
 79
     5
170
     0
171
     0
290
     0
174
     0
 93
        1
 44
0.0
173
     0
291
     0
 45
0.0
  0
VISUALSTYLE
  5
31
102
{ACAD_REACTORS
330
2A
102
}
330
2A
100
AcDbVisualStyle
  2
3D Hidden
 70
     6
 71
     1
 72
     2
 73
     2
 90
        0
 40
-0.6
 41
-30.0
 62
     5
 63
     7
421
 16777215
 74
     2
 91
        2
 64
     7
 65
   257
 75
     2
175
     1
 42
40.0
 92
        0
 66
   257
 43
1.0
 76
     1
 77
     6
 78
     2
 67
     7
 79
     3
170
     0
171
     0
290
     0
174
     0
 93
        1
 44
0.0
173
     0
291
     0
 45
0.0
  0
VISUALSTYLE
  5
30
102
{ACAD_REACTORS
330
2A
102
}
330
2A
100
AcDbVisualStyle
  2
3dWireframe
 70
     5
 71
     0
 72
     2
 73
     0
 90
        0
 40
-0.6
 41
-30.0
 62
     5
 63
     7
421
 16777215
 74
     1
 91
        4
 64
     7
 65
   257
 75
     1
175
     1
 42
1.0
 92
        0
 66
   257
 43
1.0
 76
     1
 77
     6
 78
     2
 67
     7
 79
     5
170
     0
171
     0
290
     0
174
     0
 93
        1
 44
0.0
173
     0
291
     0
 45
0.0
  0
VISUALSTYLE
  5
32
102
{ACAD_REACTORS
330
2A
102
}
330
2A
100
AcDbVisualStyle
  2
Basic
 70
     7
 71
     1
 72
     0
 73
     1
 90
        0
 40
-0.6
 41
-30.0
 62
     5
 63
     7
421
 16777215
 74
     0
 91
        4
 64
     7
 65
   257
 75
     1
175
     1
 42
1.0
 92
        8
 66
     7
 43
1.0
 76
     1
 77
     6
 78
     2
 67
     7
 79
     5
170
     0
171
     0
290
     0
174
     0
 93
        1
 44
0.0
173
     0
291
     1
 45
0.0
  0
VISUALSTYLE
  5
36
102
{ACAD_REACTORS
330
2A
102
}
330
2A
100
AcDbVisualStyle
  2
Brighten
 70
    12
 71
     2
 72
     2
 73
     0
 90
        0
 40
-0.6
 41
-30.0
 62
     5
 63
     7
421
 16777215
 74
     1
 91
        4
 64
     7
 65
   257
 75
     1
175
     1
 42
1.0
 92
        8
 66
     7
 43
1.0
 76
     1
 77
     6
 78
     2
 67
     7
 79
     5
170
     0
171
     0
290
     0
174
     0
 93
        1
 44
50.0
173
     0
291
     1
 45
0.0
  0
VISUALSTYLE
  5
3A
102
{ACAD_REACTORS
330
2A
102
}
330
2A
100
AcDbVisualStyle
  2
ColorChange
 70
    16
 71
     2
 72
     2
 73
     3
 90
        0
 40
-0.6
 41
-30.0
 62
     5
 63
     8
421
  8421504
 74
     1
 91
        4
 64
     7
 65
   257
 75
     1
175
     1
 42
1.0
 92
        8
 66
     8
424
  8421504
 43
1.0
 76
     1
 77
     6
 78
     2
 67
     7
 79
     5
170
     0
171
     0
290
     0
174
     0
 93
        1
 44
0.0
173
     0
291
     1
 45
0.0
  0
VISUALSTYLE
  5
34
102
{ACAD_REACTORS
330
2A
102
}
330
2A
100
AcDbVisualStyle
  2
Conceptual
 70
     9
 71
     3
 72
     2
 73
     0
 90
        0
 40
-0.6
 41
-30.0
 62
     5
 63
     7
421
 16777215
 74
     2
 91
        2
 64
     7
 65
   257
 75
     1
175
     1
 42
40.0
 92
        8
 66
     7
 43
1.0
 76
     1
 77
     6
 78
     2
 67
     7
 79
     3
170
     0
171
     0
290
     0
174
     0
 93
        1
 44
0.0
173
     0
291
     0
 45
0.0
  0
VISUALSTYLE
  5
35
102
{ACAD_REACTORS
330
2A
102
}
330
2A
100
AcDbVisualStyle
  2
Dim
 70
    11
 71
     2
 72
     2
 73
     0
 90
        0
 40
-0.6
 41
-30.0
 62
     5
 63
     7
421
 16777215
 74
     1
 91
        4
 64
     7
 65
   257
 75
     1
175
     1
 42
1.0
 92
        8
 66
     7
 43
1.0
 76
     1
 77
     6
 78
     2
 67
     7
 79
     5
170
     0
171
     0
290
     0
174
     0
 93
        1
 44
-50.0
173
     0
291
     1
 45
0.0
  0
VISUALSTYLE
  5
39
102
{ACAD_REACTORS
330
2A
102
}
330
2A
100
AcDbVisualStyle
  2
Facepattern
 70
    15
 71
     2
 72
     2
 73
     0
 90
        0
 40
-0.6
 41
-30.0
 62
     5
 63
     7
421
 16777215
 74
     1
 91
        4
 64
     7
 65
   257
 75
     1
175
     1
 42
1.0
 92
        8
 66
     7
 43
1.0
 76
     1
 77
     6
 78
     2
 67
     7
 79
     5
170
     0
171
     0
290
     0
174
     0
 93
        1
 44
0.0
173
     0
291
     1
 45
0.0
  0
VISUALSTYLE
  5
2B
102
{ACAD_REACTORS
330
2A
102
}
330
2A
100
AcDbVisualStyle
  2
Flat
 70
     0
 71
     2
 72
     1
 73
     1
 90
        2
 40
-0.6
 41
30.0
 62
     5
 63
     7
421
 16777215
 74
     0
 91
        4
 64
     7
 65
   257
 75
     1
175
     1
 42
1.0
 92
        8
 66
     7
 43
1.0
 76
     1
 77
     6
 78
     2
 67
     7
 79
     5
170
     0
171
     0
290
     0
174
     0
 93
       13
 44
0.0
173
     0
291
     1
 45
0.0
  0
VISUALSTYLE
  5
2C
102
{ACAD_REACTORS
330
2A
102
}
330
2A
100
AcDbVisualStyle
  2
FlatWithEdges
 70
     1
 71
     2
 72
     1
 73
     1
 90
        2
 40
-0.6
 41
30.0
 62
     5
 63
     7
421
 16777215
 74
     1
 91
        4
 64
     7
 65
   257
 75
     1
175
     1
 42
1.0
 92
        0
 66
   257
 43
1.0
 76
     1
 77
     6
 78
     2
 67
     7
 79
     5
170
     0
171
     0
290
     0
174
     0
 93
       13
 44
0.0
173
     0
291
     1
 45
0.0
  0
VISUALSTYLE
  5
2D
102
{ACAD_REACTORS
330
2A
102
}
330
2A
100
AcDbVisualStyle
  2
Gouraud
 70
     2
 71
     2
 72
     2
 73
     1
 90
        2
 40
-0.6
 41
30.0
 62
     5
 63
     7
421
 16777215
 74
     0
 91
        4
 64
     7
 65
   257
 75
     1
175
     1
 42
1.0
 92
        0
 66
     7
 43
1.0
 76
     1
 77
     6
 78
     2
 67
     7
 79
     5
170
     0
171
     0
290
     0
174
     0
 93
       13
 44
0.0
173
     0
291
     1
 45
0.0
  0
VISUALSTYLE
  5
2E
102
{ACAD_REACTORS
330
2A
102
}
330
2A
100
AcDbVisualStyle
  2
GouraudWithEdges
 70
     3
 71
     2
 72
     2
 73
     1
 90
        2
 40
-0.6
 41
30.0
 62
     5
 63
     7
421
 16777215
 74
     1
 91
        4
 64
     7
 65
   257
 75
     1
175
     1
 42
1.0
 92
        0
 66
   257
 43
1.0
 76
     1
 77
     6
 78
     2
 67
     7
 79
     5
170
     0
171
     0
290
     0
174
     0
 93
       13
 44
0.0
173
     0
291
     1
 45
0.0
  0
VISUALSTYLE
  5
38
102
{ACAD_REACTORS
330
2A
102
}
330
2A
100
AcDbVisualStyle
  2
Linepattern
 70
    14
 71
     2
 72
     2
 73
     0
 90
        0
 40
-0.6
 41
-30.0
 62
     5
 63
     7
421
 16777215
 74
     1
 91
        4
 64
     7
 65
   257
 75
     7
175
     7
 42
1.0
 92
        8
 66
     7
 43
1.0
 76
     1
 77
     6
 78
     2
 67
     7
 79
     5
170
     0
171
     0
290
     0
174
     0
 93
        1
 44
0.0
173
     0
291
     1
 45
0.0
  0
VISUALSTYLE
  5
33
102
{ACAD_REACTORS
330
2A
102
}
330
2A
100
AcDbVisualStyle
  2
Realistic
 70
     8
 71
     2
 72
     2
 73
     0
 90
        0
 40
-0.6
 41
-30.0
 62
     5
 63
     7
421
 16777215
 74
     1
 91
        0
 64
     7
 65
   257
 75
     1
175
     1
 42
1.0
 92
        8
 66
     8
424
  7895160
 43
1.0
 76
     1
 77
     6
 78
     2
 67
     7
 79
     5
170
     0
171
     0
290
     0
174
     0
 93
       13
 44
0.0
173
     0
291
     0
 45
0.0
  0
VISUALSTYLE
  5
37
102
{ACAD_REACTORS
330
2A
102
}
330
2A
100
AcDbVisualStyle
  2
Thicken
 70
    13
 71
     2
 72
     2
 73
     0
 90
        0
 40
-0.6
 41
-30.0
 62
     5
 63
     7
421
 16777215
 74
     1
 91
        4
 64
     7
 65
   257
 75
     1
175
     1
 42
1.0
 92
       12
 66
     7
 43
1.0
 76
     1
 77
     6
 78
     2
 67
     7
 79
     5
170
     0
171
     0
290
     0
174
     0
 93
        1
 44
0.0
173
     0
291
     1
 45
0.0
  0
ENDSEC
  0
EOF
