  0
SECTION
  2
HEADER
  9
$ACADVER
  1
AC1021
  9
$ACADMAINTVER
 70
    25
  9
$DWGCODEPAGE
  3
ANSI_1252
  9
$INSBASE
 10
0.0
 20
0.0
 30
0.0
  9
$EXTMIN
 10
-11.55
 20
-15.85
 30
0.0
  9
$EXTMAX
 10
-9.45
 20
-13.85
 30
0.0
  9
$LIMMIN
 10
0.0
 20
0.0
  9
$LIMMAX
 10
12.0
 20
9.0
  9
$ORTHOMODE
 70
     0
  9
$REGENMODE
 70
     1
  9
$FILLMODE
 70
     1
  9
$QTEXTMODE
 70
     0
  9
$MIRRTEXT
 70
     1
  9
$LTSCALE
 40
1.0
  9
$ATTMODE
 70
     1
  9
$TEXTSIZE
 40
0.2
  9
$TRACEWID
 40
0.05
  9
$TEXTSTYLE
  7
Standard
  9
$CLAYER
  8
0
  9
$CELTYPE
  6
ByLayer
  9
$CECOLOR
 62
   256
  9
$CELTSCALE
 40
1.0
  9
$DISPSILH
 70
     0
  9
$DIMSCALE
 40
1.0
  9
$DIMASZ
 40
0.18
  9
$DIMEXO
 40
0.0625
  9
$DIMDLI
 40
0.38
  9
$DIMRND
 40
0.0
  9
$DIMDLE
 40
0.0
  9
$DIMEXE
 40
0.18
  9
$DIMTP
 40
0.0
  9
$DIMTM
 40
0.0
  9
$DIMTXT
 40
0.18
  9
$DIMCEN
 40
0.09
  9
$DIMTSZ
 40
0.0
  9
$DIMTOL
 70
     0
  9
$DIMLIM
 70
     0
  9
$DIMTIH
 70
     1
  9
$DIMTOH
 70
     1
  9
$DIMSE1
 70
     0
  9
$DIMSE2
 70
     0
  9
$DIMTAD
 70
     0
  9
$DIMZIN
 70
     0
  9
$DIMBLK
  1

  9
$DIMASO
 70
     1
  9
$DIMSHO
 70
     1
  9
$DIMPOST
  1

  9
$DIMAPOST
  1

  9
$DIMALT
 70
     0
  9
$DIMALTD
 70
     2
  9
$DIMALTF
 40
25.4
  9
$DIMLFAC
 40
1.0
  9
$DIMTOFL
 70
     0
  9
$DIMTVP
 40
0.0
  9
$DIMTIX
 70
     0
  9
$DIMSOXD
 70
     0
  9
$DIMSAH
 70
     0
  9
$DIMBLK1
  1

  9
$DIMBLK2
  1

  9
$DIMSTYLE
  2
Standard
  9
$DIMCLRD
 70
     0
  9
$DIMCLRE
 70
     0
  9
$DIMCLRT
 70
     0
  9
$DIMTFAC
 40
1.0
  9
$DIMGAP
 40
0.09
  9
$DIMJUST
 70
     0
  9
$DIMSD1
 70
     0
  9
$DIMSD2
 70
     0
  9
$DIMTOLJ
 70
     1
  9
$DIMTZIN
 70
     0
  9
$DIMALTZ
 70
     0
  9
$DIMALTTZ
 70
     0
  9
$DIMUPT
 70
     0
  9
$DIMDEC
 70
     4
  9
$DIMTDEC
 70
     4
  9
$DIMALTU
 70
     2
  9
$DIMALTTD
 70
     2
  9
$DIMTXSTY
  7
Standard
  9
$DIMAUNIT
 70
     0
  9
$DIMADEC
 70
     0
  9
$DIMALTRND
 40
0.0
  9
$DIMAZIN
 70
     0
  9
$DIMDSEP
 70
    46
  9
$DIMATFIT
 70
     3
  9
$DIMFRAC
 70
     0
  9
$DIMLDRBLK
  1

  9
$DIMLUNIT
 70
     2
  9
$DIMLWD
 70
    -2
  9
$DIMLWE
 70
    -2
  9
$DIMTMOVE
 70
     0
  9
$DIMFXL
 40
1.0
  9
$DIMFXLON
 70
     0
  9
$DIMJOGANG
 40
0.7853981633974483
  9
$DIMTFILL
 70
     0
  9
$DIMTFILLCLR
 70
     0
  9
$DIMARCSYM
 70
     0
  9
$DIMLTYPE
  6

  9
$DIMLTEX1
  6

  9
$DIMLTEX2
  6

  9
$LUNITS
 70
     2
  9
$LUPREC
 70
     4
  9
$SKETCHINC
 40
0.1
  9
$FILLETRAD
 40
0.5
  9
$AUNITS
 70
     0
  9
$AUPREC
 70
     0
  9
$MENU
  1
.
  9
$ELEVATION
 40
0.0
  9
$PELEVATION
 40
0.0
  9
$THICKNESS
 40
0.0
  9
$LIMCHECK
 70
     0
  9
$CHAMFERA
 40
0.5
  9
$CHAMFERB
 40
0.5
  9
$CHAMFERC
 40
1.0
  9
$CHAMFERD
 40
0.0
  9
$SKPOLY
 70
     0
  9
$TDCREATE
 40
2458465.768363646
  9
$TDUCREATE
 40
2458465.768363646
  9
$TDUPDATE
 40
2458465.768363657
  9
$TDUUPDATE
 40
2458465.768363657
  9
$TDINDWG
 40
0.0000000116
  9
$TDUSRTIMER
 40
0.0000000116
  9
$USRTIMER
 70
     1
  9
$ANGBASE
 50
0.0
  9
$ANGDIR
 70
     0
  9
$PDMODE
 70
     0
  9
$PDSIZE
 40
0.0
  9
$PLINEWID
 40
0.0
  9
$SPLFRAME
 70
     0
  9
$SPLINETYPE
 70
     6
  9
$SPLINESEGS
 70
     8
  9
$HANDSEED
  5
9B
  9
$SURFTAB1
 70
     6
  9
$SURFTAB2
 70
     6
  9
$SURFTYPE
 70
     6
  9
$SURFU
 70
     6
  9
$SURFV
 70
     6
  9
$UCSBASE
  2

  9
$UCSNAME
  2

  9
$UCSORG
 10
0.0
 20
0.0
 30
0.0
  9
$UCSXDIR
 10
1.0
 20
0.0
 30
0.0
  9
$UCSYDIR
 10
0.0
 20
1.0
 30
0.0
  9
$UCSORTHOREF
  2

  9
$UCSORTHOVIEW
 70
     0
  9
$UCSORGTOP
 10
0.0
 20
0.0
 30
0.0
  9
$UCSORGBOTTOM
 10
0.0
 20
0.0
 30
0.0
  9
$UCSORGLEFT
 10
0.0
 20
0.0
 30
0.0
  9
$UCSORGRIGHT
 10
0.0
 20
0.0
 30
0.0
  9
$UCSORGFRONT
 10
0.0
 20
0.0
 30
0.0
  9
$UCSORGBACK
 10
0.0
 20
0.0
 30
0.0
  9
$PUCSBASE
  2

  9
$PUCSNAME
  2

  9
$PUCSORG
 10
0.0
 20
0.0
 30
0.0
  9
$PUCSXDIR
 10
1.0
 20
0.0
 30
0.0
  9
$PUCSYDIR
 10
0.0
 20
1.0
 30
0.0
  9
$PUCSORTHOREF
  2

  9
$PUCSORTHOVIEW
 70
     0
  9
$PUCSORGTOP
 10
0.0
 20
0.0
 30
0.0
  9
$PUCSORGBOTTOM
 10
0.0
 20
0.0
 30
0.0
  9
$PUCSORGLEFT
 10
0.0
 20
0.0
 30
0.0
  9
$PUCSORGRIGHT
 10
0.0
 20
0.0
 30
0.0
  9
$PUCSORGFRONT
 10
0.0
 20
0.0
 30
0.0
  9
$PUCSORGBACK
 10
0.0
 20
0.0
 30
0.0
  9
$USERI1
 70
     0
  9
$USERI2
 70
     0
  9
$USERI3
 70
     0
  9
$USERI4
 70
     0
  9
$USERI5
 70
     0
  9
$USERR1
 40
0.0
  9
$USERR2
 40
0.0
  9
$USERR3
 40
0.0
  9
$USERR4
 40
0.0
  9
$USERR5
 40
0.0
  9
$WORLDVIEW
 70
     1
  9
$SHADEDGE
 70
     3
  9
$SHADEDIF
 70
    70
  9
$TILEMODE
 70
     1
  9
$MAXACTVP
 70
    64
  9
$PINSBASE
 10
0.0
 20
0.0
 30
0.0
  9
$PLIMCHECK
 70
     0
  9
$PEXTMIN
 10
1.000000000000000E+20
 20
1.000000000000000E+20
 30
1.000000000000000E+20
  9
$PEXTMAX
 10
-1.000000000000000E+20
 20
-1.000000000000000E+20
 30
-1.000000000000000E+20
  9
$PLIMMIN
 10
0.0
 20
0.0
  9
$PLIMMAX
 10
12.0
 20
9.0
  9
$UNITMODE
 70
     0
  9
$VISRETAIN
 70
     1
  9
$PLINEGEN
 70
     0
  9
$PSLTSCALE
 70
     1
  9
$TREEDEPTH
 70
  3020
  9
$CMLSTYLE
  2
Standard
  9
$CMLJUST
 70
     0
  9
$CMLSCALE
 40
1.0
  9
$PROXYGRAPHICS
 70
     1
  9
$MEASUREMENT
 70
     0
  9
$CELWEIGHT
370
    -1
  9
$ENDCAPS
280
     0
  9
$JOINSTYLE
280
     0
  9
$LWDISPLAY
290
     0
  9
$INSUNITS
 70
     5
  9
$HYPERLINKBASE
  1

  9
$STYLESHEET
  1

  9
$XEDIT
290
     1
  9
$CEPSNTYPE
380
     0
  9
$PSTYLEMODE
290
     1
  9
$FINGERPRINTGUID
  2
{CC13F60B-8942-4433-824D-45D428D06729}
  9
$VERSIONGUID
  2
{FAEB1C32-E019-11D5-929B-00C0DF256EC4}
  9
$EXTNAMES
290
     1
  9
$PSVPSCALE
 40
0.0
  9
$OLESTARTUP
290
     0
  9
$SORTENTS
280
   127
  9
$INDEXCTL
280
     0
  9
$HIDETEXT
280
     1
  9
$XCLIPFRAME
290
     0
  9
$HALOGAP
280
     0
  9
$OBSCOLOR
 70
   257
  9
$OBSLTYPE
280
     0
  9
$INTERSECTIONDISPLAY
280
     0
  9
$INTERSECTIONCOLOR
 70
   257
  9
$DIMASSOC
280
     2
  9
$PROJECTNAME
  1

  9
$CAMERADISPLAY
290
     0
  9
$LENSLENGTH
 40
50.0
  9
$CAMERAHEIGHT
 40
0.0
  9
$STEPSPERSEC
 40
2.0
  9
$STEPSIZE
 40
6.0
  9
$3DDWFPREC
 40
2.0
  9
$PSOLWIDTH
 40
0.25
  9
$PSOLHEIGHT
 40
4.0
  9
$LOFTANG1
 40
1.570796326794897
  9
$LOFTANG2
 40
1.570796326794897
  9
$LOFTMAG1
 40
0.0
  9
$LOFTMAG2
 40
0.0
  9
$LOFTPARAM
 70
     7
  9
$LOFTNORMALS
280
     1
  9
$LATITUDE
 40
37.795
  9
$LONGITUDE
 40
-122.394
  9
$NORTHDIRECTION
 40
0.0
  9
$TIMEZONE
 70
 -8000
  9
$LIGHTGLYPHDISPLAY
280
     1
  9
$TILEMODELIGHTSYNCH
280
     1
  9
$SOLIDHIST
280
     1
  9
$SHOWHIST
280
     1
  9
$DWFFRAME
280
     2
  9
$DGNFRAME
280
     2
  9
$REALWORLDSCALE
290
     1
  9
$INTERFERECOLOR
 62
   256
  9
$CSHADOW
280
     0
  9
$SHADOWPLANELOCATION
 40
0.0
  0
ENDSEC
  0
SECTION
  2
CLASSES
  0
CLASS
  1
ACDBDICTIONARYWDFLT
  2
AcDbDictionaryWithDefault
  3
ObjectDBX Classes
 90
        0
 91
        3
280
     0
281
     0
  0
CLASS
  1
VISUALSTYLE
  2
AcDbVisualStyle
  3
ObjectDBX Classes
 90
     4095
 91
        3
280
     0
281
     0
  0
CLASS
  1
SCALE
  2
AcDbScale
  3
ObjectDBX Classes
 90
     1153
 91
        3
280
     0
281
     0
  0
ENDSEC
  0
SECTION
  2
TABLES
  0
TABLE
  2
VPORT
  5
8
330
0
100
AcDbSymbolTable
 70
     1
  0
VPORT
  5
29
330
8
100
AcDbSymbolTableRecord
100
AcDbViewportTableRecord
  2
*Active
 70
     0
 10
0.0
 20
0.0
 11
1.0
 21
1.0
 12
10.42990654205607
 22
4.5
 13
0.0
 23
0.0
 14
0.5
 24
0.5
 15
0.5
 25
0.5
 16
0.0
 26
0.0
 36
1.0
 17
0.0
 27
0.0
 37
0.0
 40
9.0
 41
1.972972972850329
 42
50.0
 43
0.0
 44
0.0
 50
0.0
 51
0.0
 71
     0
 72
   100
 73
     1
 74
     3
 75
     0
 76
     0
 77
     0
 78
     0
281
     0
 65
     1
110
0.0
120
0.0
130
0.0
111
1.0
121
0.0
131
0.0
112
0.0
122
1.0
132
0.0
 79
     0
146
0.0
 60
     3
 61
     5
292
     1
282
     1
141
0.0
142
0.0
 63
   256
  0
ENDTAB
  0
TABLE
  2
LTYPE
  5
5
330
0
100
AcDbSymbolTable
 70
     1
  0
LTYPE
  5
14
330
5
100
AcDbSymbolTableRecord
100
AcDbLinetypeTableRecord
  2
ByBlock
 70
     0
  3

 72
    65
 73
     0
 40
0.0
  0
LTYPE
  5
15
330
5
100
AcDbSymbolTableRecord
100
AcDbLinetypeTableRecord
  2
ByLayer
 70
     0
  3

 72
    65
 73
     0
 40
0.0
  0
LTYPE
  5
16
330
5
100
AcDbSymbolTableRecord
100
AcDbLinetypeTableRecord
  2
Continuous
 70
     0
  3
Solid line
 72
    65
 73
     0
 40
0.0
  0
ENDTAB
  0
TABLE
  2
LAYER
  5
2
330
0
100
AcDbSymbolTable
 70
     2
  0
LAYER
  5
10
330
2
100
AcDbSymbolTableRecord
100
AcDbLayerTableRecord
  2
0
 70
     0
 62
     7
  6
Continuous
370
    -3
390
F
347
0
  0
LAYER
  5
5E
330
2
100
AcDbSymbolTableRecord
100
AcDbLayerTableRecord
  2
Layer 1
 70
     0
 62
     7
  6
Continuous
370
    -3
390
F
347
0
  0
ENDTAB
  0
TABLE
  2
STYLE
  5
3
330
0
100
AcDbSymbolTable
 70
     1
  0
STYLE
  5
11
330
3
100
AcDbSymbolTableRecord
100
AcDbTextStyleTableRecord
  2
Standard
 70
     0
 40
0.0
 41
1.0
 50
0.0
 71
     0
 42
0.2
  3
txt
  4

  0
ENDTAB
  0
TABLE
  2
VIEW
  5
6
330
0
100
AcDbSymbolTable
 70
     0
  0
ENDTAB
  0
TABLE
  2
UCS
  5
7
330
0
100
AcDbSymbolTable
 70
     0
  0
ENDTAB
  0
TABLE
  2
APPID
  5
9
330
0
100
AcDbSymbolTable
 70
     2
  0
APPID
  5
12
330
9
100
AcDbSymbolTableRecord
100
AcDbRegAppTableRecord
  2
ACAD
 70
     0
  0
APPID
  5
5D
330
9
100
AcDbSymbolTableRecord
100
AcDbRegAppTableRecord
  2
ODA
 70
     0
  0
ENDTAB
  0
TABLE
  2
DIMSTYLE
  5
A
330
0
100
AcDbSymbolTable
 70
     1
100
AcDbDimStyleTable
  0
DIMSTYLE
105
27
330
A
100
AcDbSymbolTableRecord
100
AcDbDimStyleTableRecord
  2
Standard
 70
     0
340
11
  0
ENDTAB
  0
TABLE
  2
BLOCK_RECORD
  5
1
330
0
100
AcDbSymbolTable
 70
     1
  0
BLOCK_RECORD
  5
1F
330
1
100
AcDbSymbolTableRecord
100
AcDbBlockTableRecord
  2
*Model_Space
340
22
 70
     0
280
     1
281
     0
  0
BLOCK_RECORD
  5
1B
330
1
100
AcDbSymbolTableRecord
100
AcDbBlockTableRecord
  2
*Paper_Space
340
1E
 70
     0
280
     1
281
     0
  0
BLOCK_RECORD
  5
23
330
1
100
AcDbSymbolTableRecord
100
AcDbBlockTableRecord
  2
*Paper_Space0
340
26
 70
     0
280
     1
281
     0
  0
ENDTAB
  0
ENDSEC
  0
SECTION
  2
BLOCKS
  0
BLOCK
  5
20
330
1F
100
AcDbEntity
  8
0
100
AcDbBlockBegin
  2
*Model_Space
 70
     0
 10
0.0
 20
0.0
 30
0.0
  3
*Model_Space
  1

  0
ENDBLK
  5
21
330
1F
100
AcDbEntity
  8
0
100
AcDbBlockEnd
  0
BLOCK
  5
1C
330
1B
100
AcDbEntity
 67
     1
  8
0
100
AcDbBlockBegin
  2
*Paper_Space
 70
     0
 10
0.0
 20
0.0
 30
0.0
  3
*Paper_Space
  1

  0
ENDBLK
  5
1D
330
1B
100
AcDbEntity
 67
     1
  8
0
100
AcDbBlockEnd
  0
BLOCK
  5
24
330
23
100
AcDbEntity
  8
0
100
AcDbBlockBegin
  2
*Paper_Space0
 70
     0
 10
0.0
 20
0.0
 30
0.0
  3
*Paper_Space0
  1

  0
ENDBLK
  5
25
330
23
100
AcDbEntity
  8
0
100
AcDbBlockEnd
  0
ENDSEC
  0
SECTION
  2
ENTITIES
  0
SPLINE
  5
5F
330
1F
100
AcDbEntity
  8
Layer 1
 62
     7
100
AcDbSpline
210
0.0
220
0.0
230
1.0
 70
    11
 71
     3
 72
    20
 73
    16
 74
     0
 42
0.0000000001
 43
0.0000000001
 40
0.0
 40
0.0
 40
0.0
 40
0.0
 40
0.25
 40
0.25
 40
0.25
 40
0.25
 40
0.5
 40
0.5
 40
0.5
 40
0.5
 40
0.75
 40
0.75
 40
0.75
 40
0.75
 40
1.0
 40
1.0
 40
1.0
 40
1.0
 10
-11.5
 20
-13.85
 30
0.0
 10
-11.5
 20
-13.85
 30
0.0
 10
-9.5
 20
-13.85
 30
0.0
 10
-9.5
 20
-13.85
 30
0.0
 10
-9.5
 20
-13.85
 30
0.0
 10
-9.5
 20
-13.85
 30
0.0
 10
-9.5
 20
-15.85
 30
0.0
 10
-9.5
 20
-15.85
 30
0.0
 10
-9.5
 20
-15.85
 30
0.0
 10
-9.5
 20
-15.85
 30
0.0
 10
-11.5
 20
-15.85
 30
0.0
 10
-11.5
 20
-15.85
 30
0.0
 10
-11.5
 20
-15.85
 30
0.0
 10
-11.5
 20
-15.85
 30
0.0
 10
-11.5
 20
-13.85
 30
0.0
 10
-11.5
 20
-13.85
 30
0.0
  0
SPLINE
  5
60
330
1F
100
AcDbEntity
  8
Layer 1
 62
   250
370
   100
100
AcDbSpline
210
0.0
220
0.0
230
1.0
 70
    24
 71
     3
 72
    12
 73
     8
 74
     0
 42
0.0000000001
 43
0.0000000001
 40
0.0
 40
0.0
 40
0.0
 40
0.0
 40
0.5
 40
0.5
 40
0.5
 40
0.5
 40
1.0
 40
1.0
 40
1.0
 40
1.0
 10
-11.5
 20
-14.85
 30
0.0
 10
-11.5
 20
-14.85
 30
0.0
 10
-9.5
 20
-14.85
 30
0.0
 10
-9.5
 20
-14.85
 30
0.0
 10
-9.5
 20
-14.85
 30
0.0
 10
-9.5
 20
-14.85
 30
0.0
 10
-9.75001
 20
-14.85
 30
0.0
 10
-9.75001
 20
-14.85
 30
0.0
  0
SPLINE
  5
61
330
1F
100
AcDbEntity
  8
Layer 1
 62
     7
370
   106
100
AcDbSpline
210
0.0
220
0.0
230
1.0
 70
    11
 71
     3
 72
    20
 73
    16
 74
     0
 42
0.0000000001
 43
0.0000000001
 40
0.0
 40
0.0
 40
0.0
 40
0.0
 40
0.25
 40
0.25
 40
0.25
 40
0.25
 40
0.5
 40
0.5
 40
0.5
 40
0.5
 40
0.75
 40
0.75
 40
0.75
 40
0.75
 40
1.0
 40
1.0
 40
1.0
 40
1.0
 10
-10.7799
 20
-15.03482
 30
0.0
 10
-10.7799
 20
-15.03482
 30
0.0
 10
-10.4799
 20
-14.5152
 30
0.0
 10
-10.4799
 20
-14.5152
 30
0.0
 10
-10.4799
 20
-14.5152
 30
0.0
 10
-10.4799
 20
-14.5152
 30
0.0
 10
-10.22009
 20
-14.6652
 30
0.0
 10
-10.22009
 20
-14.6652
 30
0.0
 10
-10.22009
 20
-14.6652
 30
0.0
 10
-10.22009
 20
-14.6652
 30
0.0
 10
-10.52009
 20
-15.18482
 30
0.0
 10
-10.52009
 20
-15.18482
 30
0.0
 10
-10.52009
 20
-15.18482
 30
0.0
 10
-10.52009
 20
-15.18482
 30
0.0
 10
-10.7799
 20
-15.03482
 30
0.0
 10
-10.7799
 20
-15.03482
 30
0.0
  0
SPLINE
  5
62
330
1F
100
AcDbEntity
  8
Layer 1
 62
   250
100
AcDbSpline
210
0.0
220
0.0
230
1.0
 70
    11
 71
     3
 72
   116
 73
   112
 74
     0
 42
0.0000000001
 43
0.0000000001
 40
0.0
 40
0.0
 40
0.0
 40
0.0
 40
0.0357142857142857
 40
0.0357142857142857
 40
0.0357142857142857
 40
0.0357142857142857
 40
0.0714285714285714
 40
0.0714285714285714
 40
0.0714285714285714
 40
0.0714285714285714
 40
0.1071428571428571
 40
0.1071428571428571
 40
0.1071428571428571
 40
0.1071428571428571
 40
0.1428571428571428
 40
0.1428571428571428
 40
0.1428571428571428
 40
0.1428571428571428
 40
0.1785714285714285
 40
0.1785714285714285
 40
0.1785714285714285
 40
0.1785714285714285
 40
0.2142857142857142
 40
0.2142857142857142
 40
0.2142857142857142
 40
0.2142857142857142
 40
0.2499999999999999
 40
0.2499999999999999
 40
0.2499999999999999
 40
0.2499999999999999
 40
0.2857142857142856
 40
0.2857142857142856
 40
0.2857142857142856
 40
0.2857142857142856
 40
0.3214285714285713
 40
0.3214285714285713
 40
0.3214285714285713
 40
0.3214285714285713
 40
0.357142857142857
 40
0.357142857142857
 40
0.357142857142857
 40
0.357142857142857
 40
0.3928571428571427
 40
0.3928571428571427
 40
0.3928571428571427
 40
0.3928571428571427
 40
0.4285714285714284
 40
0.4285714285714284
 40
0.4285714285714284
 40
0.4285714285714284
 40
0.4642857142857141
 40
0.4642857142857141
 40
0.4642857142857141
 40
0.4642857142857141
 40
0.4999999999999998
 40
0.4999999999999998
 40
0.4999999999999998
 40
0.4999999999999998
 40
0.5357142857142856
 40
0.5357142857142856
 40
0.5357142857142856
 40
0.5357142857142856
 40
0.5714285714285713
 40
0.5714285714285713
 40
0.5714285714285713
 40
0.5714285714285713
 40
0.607142857142857
 40
0.607142857142857
 40
0.607142857142857
 40
0.607142857142857
 40
0.6428571428571427
 40
0.6428571428571427
 40
0.6428571428571427
 40
0.6428571428571427
 40
0.6785714285714284
 40
0.6785714285714284
 40
0.6785714285714284
 40
0.6785714285714284
 40
0.7142857142857141
 40
0.7142857142857141
 40
0.7142857142857141
 40
0.7142857142857141
 40
0.7499999999999998
 40
0.7499999999999998
 40
0.7499999999999998
 40
0.7499999999999998
 40
0.7857142857142855
 40
0.7857142857142855
 40
0.7857142857142855
 40
0.7857142857142855
 40
0.8214285714285712
 40
0.8214285714285712
 40
0.8214285714285712
 40
0.8214285714285712
 40
0.8571428571428569
 40
0.8571428571428569
 40
0.8571428571428569
 40
0.8571428571428569
 40
0.8928571428571426
 40
0.8928571428571426
 40
0.8928571428571426
 40
0.8928571428571426
 40
0.9285714285714283
 40
0.9285714285714283
 40
0.9285714285714283
 40
0.9285714285714283
 40
0.964285714285714
 40
0.964285714285714
 40
0.964285714285714
 40
0.964285714285714
 40
1.0
 40
1.0
 40
1.0
 40
1.0
 10
-11.26613
 20
-14.15284
 30
0.0
 10
-11.26613
 20
-14.15284
 30
0.0
 10
-11.26613
 20
-14.17459
 30
0.0
 10
-11.26613
 20
-14.17459
 30
0.0
 10
-11.26613
 20
-14.17459
 30
0.0
 10
-11.27178
 20
-14.17207
 30
0.0
 10
-11.2773
 20
-14.17017
 30
0.0
 10
-11.28266
 20
-14.16888
 30
0.0
 10
-11.28266
 20
-14.16888
 30
0.0
 10
-11.28805
 20
-14.16758
 30
0.0
 10
-11.29313
 20
-14.16695
 30
0.0
 10
-11.2979
 20
-14.16695
 30
0.0
 10
-11.2979
 20
-14.16695
 30
0.0
 10
-11.30423
 20
-14.16695
 30
0.0
 10
-11.30893
 20
-14.16782
 30
0.0
 10
-11.31197
 20
-14.16956
 30
0.0
 10
-11.31197
 20
-14.16956
 30
0.0
 10
-11.315
 20
-14.17132
 30
0.0
 10
-11.31651
 20
-14.17403
 30
0.0
 10
-11.31651
 20
-14.1777
 30
0.0
 10
-11.31651
 20
-14.1777
 30
0.0
 10
-11.31651
 20
-14.18045
 30
0.0
 10
-11.3155
 20
-14.18261
 30
0.0
 10
-11.31345
 20
-14.18414
 30
0.0
 10
-11.31345
 20
-14.18414
 30
0.0
 10
-11.3114
 20
-14.18567
 30
0.0
 10
-11.30769
 20
-14.18701
 30
0.0
 10
-11.3023
 20
-14.18811
 30
0.0
 10
-11.3023
 20
-14.18811
 30
0.0
 10
-11.3023
 20
-14.18811
 30
0.0
 10
-11.29101
 20
-14.19037
 30
0.0
 10
-11.29101
 20
-14.19037
 30
0.0
 10
-11.29101
 20
-14.19037
 30
0.0
 10
-11.27956
 20
-14.19268
 30
0.0
 10
-11.27145
 20
-14.19616
 30
0.0
 10
-11.26663
 20
-14.20086
 30
0.0
 10
-11.26663
 20
-14.20086
 30
0.0
 10
-11.2618
 20
-14.20554
 30
0.0
 10
-11.25938
 20
-14.2122
 30
0.0
 10
-11.25938
 20
-14.22083
 30
0.0
 10
-11.25938
 20
-14.22083
 30
0.0
 10
-11.25938
 20
-14.23219
 30
0.0
 10
-11.26274
 20
-14.24063
 30
0.0
 10
-11.26947
 20
-14.24616
 30
0.0
 10
-11.26947
 20
-14.24616
 30
0.0
 10
-11.2762
 20
-14.25168
 30
0.0
 10
-11.28647
 20
-14.25446
 30
0.0
 10
-11.3003
 20
-14.25446
 30
0.0
 10
-11.3003
 20
-14.25446
 30
0.0
 10
-11.30684
 20
-14.25446
 30
0.0
 10
-11.31338
 20
-14.25385
 30
0.0
 10
-11.31994
 20
-14.2526
 30
0.0
 10
-11.31994
 20
-14.2526
 30
0.0
 10
-11.3265
 20
-14.25135
 30
0.0
 10
-11.33309
 20
-14.24952
 30
0.0
 10
-11.33965
 20
-14.2471
 30
0.0
 10
-11.33965
 20
-14.2471
 30
0.0
 10
-11.33965
 20
-14.2471
 30
0.0
 10
-11.33965
 20
-14.22471
 30
0.0
 10
-11.33965
 20
-14.22471
 30
0.0
 10
-11.33965
 20
-14.22471
 30
0.0
 10
-11.33309
 20
-14.22819
 30
0.0
 10
-11.32674
 20
-14.23082
 30
0.0
 10
-11.3206
 20
-14.23259
 30
0.0
 10
-11.3206
 20
-14.23259
 30
0.0
 10
-11.31446
 20
-14.23435
 30
0.0
 10
-11.30856
 20
-14.23524
 30
0.0
 10
-11.30287
 20
-14.23524
 30
0.0
 10
-11.30287
 20
-14.23524
 30
0.0
 10
-11.29708
 20
-14.23524
 30
0.0
 10
-11.29264
 20
-14.23428
 30
0.0
 10
-11.28956
 20
-14.23235
 30
0.0
 10
-11.28956
 20
-14.23235
 30
0.0
 10
-11.28647
 20
-14.23042
 30
0.0
 10
-11.28495
 20
-14.22767
 30
0.0
 10
-11.28495
 20
-14.22407
 30
0.0
 10
-11.28495
 20
-14.22407
 30
0.0
 10
-11.28495
 20
-14.22087
 30
0.0
 10
-11.28598
 20
-14.21838
 30
0.0
 10
-11.28807
 20
-14.21664
 30
0.0
 10
-11.28807
 20
-14.21664
 30
0.0
 10
-11.29017
 20
-14.2149
 30
0.0
 10
-11.29433
 20
-14.21333
 30
0.0
 10
-11.30059
 20
-14.21196
 30
0.0
 10
-11.30059
 20
-14.21196
 30
0.0
 10
-11.30059
 20
-14.21196
 30
0.0
 10
-11.31086
 20
-14.20968
 30
0.0
 10
-11.31086
 20
-14.20968
 30
0.0
 10
-11.31086
 20
-14.20968
 30
0.0
 10
-11.32114
 20
-14.20747
 30
0.0
 10
-11.32867
 20
-14.20397
 30
0.0
 10
-11.33342
 20
-14.19914
 30
0.0
 10
-11.33342
 20
-14.19914
 30
0.0
 10
-11.33817
 20
-14.19432
 30
0.0
 10
-11.34054
 20
-14.18781
 30
0.0
 10
-11.34054
 20
-14.17965
 30
0.0
 10
-11.34054
 20
-14.17965
 30
0.0
 10
-11.34054
 20
-14.16939
 30
0.0
 10
-11.33723
 20
-14.16151
 30
0.0
 10
-11.33062
 20
-14.15601
 30
0.0
 10
-11.33062
 20
-14.15601
 30
0.0
 10
-11.32401
 20
-14.15048
 30
0.0
 10
-11.31451
 20
-14.14773
 30
0.0
 10
-11.30209
 20
-14.14773
 30
0.0
 10
-11.30209
 20
-14.14773
 30
0.0
 10
-11.29645
 20
-14.14773
 30
0.0
 10
-11.29064
 20
-14.14816
 30
0.0
 10
-11.28466
 20
-14.149
 30
0.0
 10
-11.28466
 20
-14.149
 30
0.0
 10
-11.27869
 20
-14.14985
 30
0.0
 10
-11.27251
 20
-14.15112
 30
0.0
 10
-11.26613
 20
-14.15284
 30
0.0
  0
SPLINE
  5
63
330
1F
100
AcDbEntity
  8
Layer 1
 62
   250
100
AcDbSpline
210
0.0
220
0.0
230
1.0
 70
    11
 71
     3
 72
    56
 73
    52
 74
     0
 42
0.0000000001
 43
0.0000000001
 40
0.0
 40
0.0
 40
0.0
 40
0.0
 40
0.0769230769230769
 40
0.0769230769230769
 40
0.0769230769230769
 40
0.0769230769230769
 40
0.1538461538461539
 40
0.1538461538461539
 40
0.1538461538461539
 40
0.1538461538461539
 40
0.2307692307692308
 40
0.2307692307692308
 40
0.2307692307692308
 40
0.2307692307692308
 40
0.3076923076923077
 40
0.3076923076923077
 40
0.3076923076923077
 40
0.3076923076923077
 40
0.3846153846153846
 40
0.3846153846153846
 40
0.3846153846153846
 40
0.3846153846153846
 40
0.4615384615384616
 40
0.4615384615384616
 40
0.4615384615384616
 40
0.4615384615384616
 40
0.5384615384615385
 40
0.5384615384615385
 40
0.5384615384615385
 40
0.5384615384615385
 40
0.6153846153846154
 40
0.6153846153846154
 40
0.6153846153846154
 40
0.6153846153846154
 40
0.6923076923076923
 40
0.6923076923076923
 40
0.6923076923076923
 40
0.6923076923076923
 40
0.7692307692307692
 40
0.7692307692307692
 40
0.7692307692307692
 40
0.7692307692307692
 40
0.846153846153846
 40
0.846153846153846
 40
0.846153846153846
 40
0.846153846153846
 40
0.9230769230769229
 40
0.9230769230769229
 40
0.9230769230769229
 40
0.9230769230769229
 40
1.0
 40
1.0
 40
1.0
 40
1.0
 10
-11.2361
 20
-14.14959
 30
0.0
 10
-11.2361
 20
-14.14959
 30
0.0
 10
-11.20235
 20
-14.14959
 30
0.0
 10
-11.20235
 20
-14.14959
 30
0.0
 10
-11.20235
 20
-14.14959
 30
0.0
 10
-11.20235
 20
-14.14959
 30
0.0
 10
-11.1789
 20
-14.20465
 30
0.0
 10
-11.1789
 20
-14.20465
 30
0.0
 10
-11.1789
 20
-14.20465
 30
0.0
 10
-11.1789
 20
-14.20465
 30
0.0
 10
-11.15534
 20
-14.14959
 30
0.0
 10
-11.15534
 20
-14.14959
 30
0.0
 10
-11.15534
 20
-14.14959
 30
0.0
 10
-11.15534
 20
-14.14959
 30
0.0
 10
-11.12166
 20
-14.14959
 30
0.0
 10
-11.12166
 20
-14.14959
 30
0.0
 10
-11.12166
 20
-14.14959
 30
0.0
 10
-11.12166
 20
-14.14959
 30
0.0
 10
-11.12166
 20
-14.25246
 30
0.0
 10
-11.12166
 20
-14.25246
 30
0.0
 10
-11.12166
 20
-14.25246
 30
0.0
 10
-11.12166
 20
-14.25246
 30
0.0
 10
-11.14673
 20
-14.25246
 30
0.0
 10
-11.14673
 20
-14.25246
 30
0.0
 10
-11.14673
 20
-14.25246
 30
0.0
 10
-11.14673
 20
-14.25246
 30
0.0
 10
-11.14673
 20
-14.17722
 30
0.0
 10
-11.14673
 20
-14.17722
 30
0.0
 10
-11.14673
 20
-14.17722
 30
0.0
 10
-11.14673
 20
-14.17722
 30
0.0
 10
-11.17044
 20
-14.23268
 30
0.0
 10
-11.17044
 20
-14.23268
 30
0.0
 10
-11.17044
 20
-14.23268
 30
0.0
 10
-11.17044
 20
-14.23268
 30
0.0
 10
-11.18725
 20
-14.23268
 30
0.0
 10
-11.18725
 20
-14.23268
 30
0.0
 10
-11.18725
 20
-14.23268
 30
0.0
 10
-11.18725
 20
-14.23268
 30
0.0
 10
-11.21096
 20
-14.17722
 30
0.0
 10
-11.21096
 20
-14.17722
 30
0.0
 10
-11.21096
 20
-14.17722
 30
0.0
 10
-11.21096
 20
-14.17722
 30
0.0
 10
-11.21096
 20
-14.25246
 30
0.0
 10
-11.21096
 20
-14.25246
 30
0.0
 10
-11.21096
 20
-14.25246
 30
0.0
 10
-11.21096
 20
-14.25246
 30
0.0
 10
-11.2361
 20
-14.25246
 30
0.0
 10
-11.2361
 20
-14.25246
 30
0.0
 10
-11.2361
 20
-14.25246
 30
0.0
 10
-11.2361
 20
-14.25246
 30
0.0
 10
-11.2361
 20
-14.14959
 30
0.0
 10
-11.2361
 20
-14.14959
 30
0.0
  0
SPLINE
  5
64
330
1F
100
AcDbEntity
  8
Layer 1
 62
   250
100
AcDbSpline
210
0.0
220
0.0
230
1.0
 70
    11
 71
     3
 72
    32
 73
    28
 74
     0
 42
0.0000000001
 43
0.0000000001
 40
0.0
 40
0.0
 40
0.0
 40
0.0
 40
0.1428571428571428
 40
0.1428571428571428
 40
0.1428571428571428
 40
0.1428571428571428
 40
0.2857142857142857
 40
0.2857142857142857
 40
0.2857142857142857
 40
0.2857142857142857
 40
0.4285714285714285
 40
0.4285714285714285
 40
0.4285714285714285
 40
0.4285714285714285
 40
0.5714285714285714
 40
0.5714285714285714
 40
0.5714285714285714
 40
0.5714285714285714
 40
0.7142857142857142
 40
0.7142857142857142
 40
0.7142857142857142
 40
0.7142857142857142
 40
0.857142857142857
 40
0.857142857142857
 40
0.857142857142857
 40
0.857142857142857
 40
1.0
 40
1.0
 40
1.0
 40
1.0
 10
-11.06914
 20
-14.16965
 30
0.0
 10
-11.06914
 20
-14.16965
 30
0.0
 10
-11.06914
 20
-14.2324
 30
0.0
 10
-11.06914
 20
-14.2324
 30
0.0
 10
-11.06914
 20
-14.2324
 30
0.0
 10
-11.06914
 20
-14.2324
 30
0.0
 10
-11.05964
 20
-14.2324
 30
0.0
 10
-11.05964
 20
-14.2324
 30
0.0
 10
-11.05964
 20
-14.2324
 30
0.0
 10
-11.0488
 20
-14.2324
 30
0.0
 10
-11.04052
 20
-14.22972
 30
0.0
 10
-11.03481
 20
-14.22433
 30
0.0
 10
-11.03481
 20
-14.22433
 30
0.0
 10
-11.02909
 20
-14.21897
 30
0.0
 10
-11.02622
 20
-14.21116
 30
0.0
 10
-11.02622
 20
-14.20093
 30
0.0
 10
-11.02622
 20
-14.20093
 30
0.0
 10
-11.02622
 20
-14.19072
 30
0.0
 10
-11.02907
 20
-14.18296
 30
0.0
 10
-11.03476
 20
-14.17765
 30
0.0
 10
-11.03476
 20
-14.17765
 30
0.0
 10
-11.04045
 20
-14.17231
 30
0.0
 10
-11.04875
 20
-14.16965
 30
0.0
 10
-11.05964
 20
-14.16965
 30
0.0
 10
-11.05964
 20
-14.16965
 30
0.0
 10
-11.05964
 20
-14.16965
 30
0.0
 10
-11.06914
 20
-14.16965
 30
0.0
 10
-11.06914
 20
-14.16965
 30
0.0
  0
SPLINE
  5
65
330
1F
100
AcDbEntity
  8
Layer 1
 62
   250
100
AcDbSpline
210
0.0
220
0.0
230
1.0
 70
    11
 71
     3
 72
    48
 73
    44
 74
     0
 42
0.0000000001
 43
0.0000000001
 40
0.0
 40
0.0
 40
0.0
 40
0.0
 40
0.0909090909090909
 40
0.0909090909090909
 40
0.0909090909090909
 40
0.0909090909090909
 40
0.1818181818181818
 40
0.1818181818181818
 40
0.1818181818181818
 40
0.1818181818181818
 40
0.2727272727272727
 40
0.2727272727272727
 40
0.2727272727272727
 40
0.2727272727272727
 40
0.3636363636363636
 40
0.3636363636363636
 40
0.3636363636363636
 40
0.3636363636363636
 40
0.4545454545454546
 40
0.4545454545454546
 40
0.4545454545454546
 40
0.4545454545454546
 40
0.5454545454545455
 40
0.5454545454545455
 40
0.5454545454545455
 40
0.5454545454545455
 40
0.6363636363636365
 40
0.6363636363636365
 40
0.6363636363636365
 40
0.6363636363636365
 40
0.7272727272727274
 40
0.7272727272727274
 40
0.7272727272727274
 40
0.7272727272727274
 40
0.8181818181818183
 40
0.8181818181818183
 40
0.8181818181818183
 40
0.8181818181818183
 40
0.9090909090909093
 40
0.9090909090909093
 40
0.9090909090909093
 40
0.9090909090909093
 40
1.0
 40
1.0
 40
1.0
 40
1.0
 10
-11.09567
 20
-14.14959
 30
0.0
 10
-11.09567
 20
-14.14959
 30
0.0
 10
-11.06768
 20
-14.14959
 30
0.0
 10
-11.06768
 20
-14.14959
 30
0.0
 10
-11.06768
 20
-14.14959
 30
0.0
 10
-11.05207
 20
-14.14959
 30
0.0
 10
-11.04045
 20
-14.1507
 30
0.0
 10
-11.03281
 20
-14.15293
 30
0.0
 10
-11.03281
 20
-14.15293
 30
0.0
 10
-11.02516
 20
-14.15516
 30
0.0
 10
-11.0186
 20
-14.15893
 30
0.0
 10
-11.01312
 20
-14.16427
 30
0.0
 10
-11.01312
 20
-14.16427
 30
0.0
 10
-11.0083
 20
-14.1689
 30
0.0
 10
-11.00473
 20
-14.17426
 30
0.0
 10
-11.00237
 20
-14.18033
 30
0.0
 10
-11.00237
 20
-14.18033
 30
0.0
 10
-11.00005
 20
-14.18637
 30
0.0
 10
-10.99887
 20
-14.19324
 30
0.0
 10
-10.99887
 20
-14.20093
 30
0.0
 10
-10.99887
 20
-14.20093
 30
0.0
 10
-10.99887
 20
-14.20869
 30
0.0
 10
-11.00005
 20
-14.21561
 30
0.0
 10
-11.00237
 20
-14.2217
 30
0.0
 10
-11.00237
 20
-14.2217
 30
0.0
 10
-11.00473
 20
-14.22779
 30
0.0
 10
-11.0083
 20
-14.23315
 30
0.0
 10
-11.01312
 20
-14.23778
 30
0.0
 10
-11.01312
 20
-14.23778
 30
0.0
 10
-11.01865
 20
-14.24312
 30
0.0
 10
-11.02526
 20
-14.24689
 30
0.0
 10
-11.03297
 20
-14.24912
 30
0.0
 10
-11.03297
 20
-14.24912
 30
0.0
 10
-11.04069
 20
-14.25135
 30
0.0
 10
-11.05226
 20
-14.25246
 30
0.0
 10
-11.06768
 20
-14.25246
 30
0.0
 10
-11.06768
 20
-14.25246
 30
0.0
 10
-11.06768
 20
-14.25246
 30
0.0
 10
-11.09567
 20
-14.25246
 30
0.0
 10
-11.09567
 20
-14.25246
 30
0.0
 10
-11.09567
 20
-14.25246
 30
0.0
 10
-11.09567
 20
-14.25246
 30
0.0
 10
-11.09567
 20
-14.14959
 30
0.0
 10
-11.09567
 20
-14.14959
 30
0.0
  0
SPLINE
  5
66
330
1F
100
AcDbEntity
  8
Layer 1
 62
   250
100
AcDbSpline
210
0.0
220
0.0
230
1.0
 70
    11
 71
     3
 72
    44
 73
    40
 74
     0
 42
0.0000000001
 43
0.0000000001
 40
0.0
 40
0.0
 40
0.0
 40
0.0
 40
0.1
 40
0.1
 40
0.1
 40
0.1
 40
0.2
 40
0.2
 40
0.2
 40
0.2
 40
0.3
 40
0.3
 40
0.3
 40
0.3
 40
0.4
 40
0.4
 40
0.4
 40
0.4
 40
0.5
 40
0.5
 40
0.5
 40
0.5
 40
0.6
 40
0.6
 40
0.6
 40
0.6
 40
0.7
 40
0.7
 40
0.7
 40
0.7
 40
0.7999999999999999
 40
0.7999999999999999
 40
0.7999999999999999
 40
0.7999999999999999
 40
0.8999999999999999
 40
0.8999999999999999
 40
0.8999999999999999
 40
0.8999999999999999
 40
1.0
 40
1.0
 40
1.0
 40
1.0
 10
-10.88918
 20
-14.27106
 30
0.0
 10
-10.88918
 20
-14.27106
 30
0.0
 10
-10.90964
 20
-14.27106
 30
0.0
 10
-10.90964
 20
-14.27106
 30
0.0
 10
-10.90964
 20
-14.27106
 30
0.0
 10
-10.91667
 20
-14.25973
 30
0.0
 10
-10.92187
 20
-14.24893
 30
0.0
 10
-10.92521
 20
-14.2387
 30
0.0
 10
-10.92521
 20
-14.2387
 30
0.0
 10
-10.92857
 20
-14.22849
 30
0.0
 10
-10.93024
 20
-14.21836
 30
0.0
 10
-10.93024
 20
-14.20829
 30
0.0
 10
-10.93024
 20
-14.20829
 30
0.0
 10
-10.93024
 20
-14.19823
 30
0.0
 10
-10.92855
 20
-14.18804
 30
0.0
 10
-10.92519
 20
-14.17774
 30
0.0
 10
-10.92519
 20
-14.17774
 30
0.0
 10
-10.9218
 20
-14.16742
 30
0.0
 10
-10.91663
 20
-14.15665
 30
0.0
 10
-10.90964
 20
-14.14538
 30
0.0
 10
-10.90964
 20
-14.14538
 30
0.0
 10
-10.90964
 20
-14.14538
 30
0.0
 10
-10.88918
 20
-14.14538
 30
0.0
 10
-10.88918
 20
-14.14538
 30
0.0
 10
-10.88918
 20
-14.14538
 30
0.0
 10
-10.89506
 20
-14.15627
 30
0.0
 10
-10.89946
 20
-14.16692
 30
0.0
 10
-10.9024
 20
-14.17732
 30
0.0
 10
-10.9024
 20
-14.17732
 30
0.0
 10
-10.90534
 20
-14.18771
 30
0.0
 10
-10.90682
 20
-14.19799
 30
0.0
 10
-10.90682
 20
-14.20815
 30
0.0
 10
-10.90682
 20
-14.20815
 30
0.0
 10
-10.90682
 20
-14.21831
 30
0.0
 10
-10.90536
 20
-14.22859
 30
0.0
 10
-10.90245
 20
-14.23903
 30
0.0
 10
-10.90245
 20
-14.23903
 30
0.0
 10
-10.89953
 20
-14.24945
 30
0.0
 10
-10.89511
 20
-14.26013
 30
0.0
 10
-10.88918
 20
-14.27106
 30
0.0
  0
SPLINE
  5
67
330
1F
100
AcDbEntity
  8
Layer 1
 62
   250
100
AcDbSpline
210
0.0
220
0.0
230
1.0
 70
    11
 71
     3
 72
    36
 73
    32
 74
     0
 42
0.0000000001
 43
0.0000000001
 40
0.0
 40
0.0
 40
0.0
 40
0.0
 40
0.125
 40
0.125
 40
0.125
 40
0.125
 40
0.25
 40
0.25
 40
0.25
 40
0.25
 40
0.375
 40
0.375
 40
0.375
 40
0.375
 40
0.5
 40
0.5
 40
0.5
 40
0.5
 40
0.625
 40
0.625
 40
0.625
 40
0.625
 40
0.75
 40
0.75
 40
0.75
 40
0.75
 40
0.875
 40
0.875
 40
0.875
 40
0.875
 40
1.0
 40
1.0
 40
1.0
 40
1.0
 10
-10.81298
 20
-14.20093
 30
0.0
 10
-10.81298
 20
-14.18807
 30
0.0
 10
-10.81418
 20
-14.17901
 30
0.0
 10
-10.8166
 20
-14.17374
 30
0.0
 10
-10.8166
 20
-14.17374
 30
0.0
 10
-10.819
 20
-14.1685
 30
0.0
 10
-10.82307
 20
-14.16587
 30
0.0
 10
-10.82876
 20
-14.16587
 30
0.0
 10
-10.82876
 20
-14.16587
 30
0.0
 10
-10.83445
 20
-14.16587
 30
0.0
 10
-10.83852
 20
-14.1685
 30
0.0
 10
-10.84097
 20
-14.17374
 30
0.0
 10
-10.84097
 20
-14.17374
 30
0.0
 10
-10.84339
 20
-14.17901
 30
0.0
 10
-10.84461
 20
-14.18807
 30
0.0
 10
-10.84461
 20
-14.20093
 30
0.0
 10
-10.84461
 20
-14.20093
 30
0.0
 10
-10.84461
 20
-14.21391
 30
0.0
 10
-10.84339
 20
-14.22309
 30
0.0
 10
-10.84097
 20
-14.2284
 30
0.0
 10
-10.84097
 20
-14.2284
 30
0.0
 10
-10.83852
 20
-14.23374
 30
0.0
 10
-10.83445
 20
-14.2364
 30
0.0
 10
-10.82876
 20
-14.2364
 30
0.0
 10
-10.82876
 20
-14.2364
 30
0.0
 10
-10.82312
 20
-14.2364
 30
0.0
 10
-10.81907
 20
-14.23374
 30
0.0
 10
-10.81662
 20
-14.2284
 30
0.0
 10
-10.81662
 20
-14.2284
 30
0.0
 10
-10.8142
 20
-14.22309
 30
0.0
 10
-10.81298
 20
-14.21391
 30
0.0
 10
-10.81298
 20
-14.20093
 30
0.0
  0
SPLINE
  5
68
330
1F
100
AcDbEntity
  8
Layer 1
 62
   250
100
AcDbSpline
210
0.0
220
0.0
230
1.0
 70
    11
 71
     3
 72
    36
 73
    32
 74
     0
 42
0.0000000001
 43
0.0000000001
 40
0.0
 40
0.0
 40
0.0
 40
0.0
 40
0.125
 40
0.125
 40
0.125
 40
0.125
 40
0.25
 40
0.25
 40
0.25
 40
0.25
 40
0.375
 40
0.375
 40
0.375
 40
0.375
 40
0.5
 40
0.5
 40
0.5
 40
0.5
 40
0.625
 40
0.625
 40
0.625
 40
0.625
 40
0.75
 40
0.75
 40
0.75
 40
0.75
 40
0.875
 40
0.875
 40
0.875
 40
0.875
 40
1.0
 40
1.0
 40
1.0
 40
1.0
 10
-10.78645
 20
-14.20112
 30
0.0
 10
-10.78645
 20
-14.21817
 30
0.0
 10
-10.79012
 20
-14.23132
 30
0.0
 10
-10.79748
 20
-14.24058
 30
0.0
 10
-10.79748
 20
-14.24058
 30
0.0
 10
-10.80482
 20
-14.24983
 30
0.0
 10
-10.81526
 20
-14.25446
 30
0.0
 10
-10.82876
 20
-14.25446
 30
0.0
 10
-10.82876
 20
-14.25446
 30
0.0
 10
-10.84231
 20
-14.25446
 30
0.0
 10
-10.85277
 20
-14.24983
 30
0.0
 10
-10.86011
 20
-14.24058
 30
0.0
 10
-10.86011
 20
-14.24058
 30
0.0
 10
-10.86747
 20
-14.23132
 30
0.0
 10
-10.87114
 20
-14.21817
 30
0.0
 10
-10.87114
 20
-14.20112
 30
0.0
 10
-10.87114
 20
-14.20112
 30
0.0
 10
-10.87114
 20
-14.18405
 30
0.0
 10
-10.86747
 20
-14.17087
 30
0.0
 10
-10.86011
 20
-14.16161
 30
0.0
 10
-10.86011
 20
-14.16161
 30
0.0
 10
-10.85277
 20
-14.15237
 30
0.0
 10
-10.84231
 20
-14.14773
 30
0.0
 10
-10.82876
 20
-14.14773
 30
0.0
 10
-10.82876
 20
-14.14773
 30
0.0
 10
-10.81526
 20
-14.14773
 30
0.0
 10
-10.80482
 20
-14.15237
 30
0.0
 10
-10.79748
 20
-14.16161
 30
0.0
 10
-10.79748
 20
-14.16161
 30
0.0
 10
-10.79012
 20
-14.17087
 30
0.0
 10
-10.78645
 20
-14.18405
 30
0.0
 10
-10.78645
 20
-14.20112
 30
0.0
  0
SPLINE
  5
69
330
1F
100
AcDbEntity
  8
Layer 1
 62
   250
100
AcDbSpline
210
0.0
220
0.0
230
1.0
 70
    11
 71
     3
 72
    36
 73
    32
 74
     0
 42
0.0000000001
 43
0.0000000001
 40
0.0
 40
0.0
 40
0.0
 40
0.0
 40
0.125
 40
0.125
 40
0.125
 40
0.125
 40
0.25
 40
0.25
 40
0.25
 40
0.25
 40
0.375
 40
0.375
 40
0.375
 40
0.375
 40
0.5
 40
0.5
 40
0.5
 40
0.5
 40
0.625
 40
0.625
 40
0.625
 40
0.625
 40
0.75
 40
0.75
 40
0.75
 40
0.75
 40
0.875
 40
0.875
 40
0.875
 40
0.875
 40
1.0
 40
1.0
 40
1.0
 40
1.0
 10
-10.73057
 20
-14.20643
 30
0.0
 10
-10.73553
 20
-14.20643
 30
0.0
 10
-10.73937
 20
-14.2078
 30
0.0
 10
-10.74202
 20
-14.2105
 30
0.0
 10
-10.74202
 20
-14.2105
 30
0.0
 10
-10.74468
 20
-14.21321
 30
0.0
 10
-10.74602
 20
-14.21709
 30
0.0
 10
-10.74602
 20
-14.22214
 30
0.0
 10
-10.74602
 20
-14.22214
 30
0.0
 10
-10.74602
 20
-14.2272
 30
0.0
 10
-10.74468
 20
-14.23106
 30
0.0
 10
-10.74202
 20
-14.23376
 30
0.0
 10
-10.74202
 20
-14.23376
 30
0.0
 10
-10.73937
 20
-14.23644
 30
0.0
 10
-10.73553
 20
-14.23778
 30
0.0
 10
-10.73057
 20
-14.23778
 30
0.0
 10
-10.73057
 20
-14.23778
 30
0.0
 10
-10.72565
 20
-14.23778
 30
0.0
 10
-10.72189
 20
-14.23644
 30
0.0
 10
-10.71926
 20
-14.23376
 30
0.0
 10
-10.71926
 20
-14.23376
 30
0.0
 10
-10.71665
 20
-14.23106
 30
0.0
 10
-10.71533
 20
-14.2272
 30
0.0
 10
-10.71533
 20
-14.22214
 30
0.0
 10
-10.71533
 20
-14.22214
 30
0.0
 10
-10.71533
 20
-14.21704
 30
0.0
 10
-10.71665
 20
-14.21316
 30
0.0
 10
-10.71926
 20
-14.21046
 30
0.0
 10
-10.71926
 20
-14.21046
 30
0.0
 10
-10.72189
 20
-14.20778
 30
0.0
 10
-10.72565
 20
-14.20643
 30
0.0
 10
-10.73057
 20
-14.20643
 30
0.0
  0
SPLINE
  5
6A
330
1F
100
AcDbEntity
  8
Layer 1
 62
   250
100
AcDbSpline
210
0.0
220
0.0
230
1.0
 70
    11
 71
     3
 72
    68
 73
    64
 74
     0
 42
0.0000000001
 43
0.0000000001
 40
0.0
 40
0.0
 40
0.0
 40
0.0
 40
0.0625
 40
0.0625
 40
0.0625
 40
0.0625
 40
0.125
 40
0.125
 40
0.125
 40
0.125
 40
0.1875
 40
0.1875
 40
0.1875
 40
0.1875
 40
0.25
 40
0.25
 40
0.25
 40
0.25
 40
0.3125
 40
0.3125
 40
0.3125
 40
0.3125
 40
0.375
 40
0.375
 40
0.375
 40
0.375
 40
0.4375
 40
0.4375
 40
0.4375
 40
0.4375
 40
0.5
 40
0.5
 40
0.5
 40
0.5
 40
0.5625
 40
0.5625
 40
0.5625
 40
0.5625
 40
0.625
 40
0.625
 40
0.625
 40
0.625
 40
0.6875
 40
0.6875
 40
0.6875
 40
0.6875
 40
0.75
 40
0.75
 40
0.75
 40
0.75
 40
0.8125
 40
0.8125
 40
0.8125
 40
0.8125
 40
0.875
 40
0.875
 40
0.875
 40
0.875
 40
0.9375
 40
0.9375
 40
0.9375
 40
0.9375
 40
1.0
 40
1.0
 40
1.0
 40
1.0
 10
-10.74995
 20
-14.19769
 30
0.0
 10
-10.75618
 20
-14.1958
 30
0.0
 10
-10.76089
 20
-14.19291
 30
0.0
 10
-10.76406
 20
-14.18901
 30
0.0
 10
-10.76406
 20
-14.18901
 30
0.0
 10
-10.76724
 20
-14.1851
 30
0.0
 10
-10.76881
 20
-14.18024
 30
0.0
 10
-10.76881
 20
-14.1744
 30
0.0
 10
-10.76881
 20
-14.1744
 30
0.0
 10
-10.76881
 20
-14.16572
 30
0.0
 10
-10.76557
 20
-14.15909
 30
0.0
 10
-10.7591
 20
-14.15455
 30
0.0
 10
-10.7591
 20
-14.15455
 30
0.0
 10
-10.75263
 20
-14.15001
 30
0.0
 10
-10.74311
 20
-14.14773
 30
0.0
 10
-10.73057
 20
-14.14773
 30
0.0
 10
-10.73057
 20
-14.14773
 30
0.0
 10
-10.71813
 20
-14.14773
 30
0.0
 10
-10.70865
 20
-14.14999
 30
0.0
 10
-10.70218
 20
-14.15453
 30
0.0
 10
-10.70218
 20
-14.15453
 30
0.0
 10
-10.69572
 20
-14.15905
 30
0.0
 10
-10.69247
 20
-14.16568
 30
0.0
 10
-10.69247
 20
-14.1744
 30
0.0
 10
-10.69247
 20
-14.1744
 30
0.0
 10
-10.69247
 20
-14.18024
 30
0.0
 10
-10.69407
 20
-14.1851
 30
0.0
 10
-10.69724
 20
-14.18901
 30
0.0
 10
-10.69724
 20
-14.18901
 30
0.0
 10
-10.70044
 20
-14.19291
 30
0.0
 10
-10.70517
 20
-14.1958
 30
0.0
 10
-10.7114
 20
-14.19769
 30
0.0
 10
-10.7114
 20
-14.19769
 30
0.0
 10
-10.70442
 20
-14.19961
 30
0.0
 10
-10.69915
 20
-14.20274
 30
0.0
 10
-10.6956
 20
-14.20709
 30
0.0
 10
-10.6956
 20
-14.20709
 30
0.0
 10
-10.69205
 20
-14.21142
 30
0.0
 10
-10.69026
 20
-14.2169
 30
0.0
 10
-10.69026
 20
-14.22353
 30
0.0
 10
-10.69026
 20
-14.22353
 30
0.0
 10
-10.69026
 20
-14.23372
 30
0.0
 10
-10.69365
 20
-14.24143
 30
0.0
 10
-10.70042
 20
-14.24663
 30
0.0
 10
-10.70042
 20
-14.24663
 30
0.0
 10
-10.70719
 20
-14.25185
 30
0.0
 10
-10.71726
 20
-14.25446
 30
0.0
 10
-10.73057
 20
-14.25446
 30
0.0
 10
-10.73057
 20
-14.25446
 30
0.0
 10
-10.74395
 20
-14.25446
 30
0.0
 10
-10.75404
 20
-14.25185
 30
0.0
 10
-10.76086
 20
-14.24663
 30
0.0
 10
-10.76086
 20
-14.24663
 30
0.0
 10
-10.76768
 20
-14.24143
 30
0.0
 10
-10.77109
 20
-14.23372
 30
0.0
 10
-10.77109
 20
-14.22353
 30
0.0
 10
-10.77109
 20
-14.22353
 30
0.0
 10
-10.77109
 20
-14.2169
 30
0.0
 10
-10.7693
 20
-14.21142
 30
0.0
 10
-10.76575
 20
-14.20709
 30
0.0
 10
-10.76575
 20
-14.20709
 30
0.0
 10
-10.7622
 20
-14.20274
 30
0.0
 10
-10.75693
 20
-14.19961
 30
0.0
 10
-10.74995
 20
-14.19769
 30
0.0
  0
SPLINE
  5
6B
330
1F
100
AcDbEntity
  8
Layer 1
 62
   250
100
AcDbSpline
210
0.0
220
0.0
230
1.0
 70
    11
 71
     3
 72
    36
 73
    32
 74
     0
 42
0.0000000001
 43
0.0000000001
 40
0.0
 40
0.0
 40
0.0
 40
0.0
 40
0.125
 40
0.125
 40
0.125
 40
0.125
 40
0.25
 40
0.25
 40
0.25
 40
0.25
 40
0.375
 40
0.375
 40
0.375
 40
0.375
 40
0.5
 40
0.5
 40
0.5
 40
0.5
 40
0.625
 40
0.625
 40
0.625
 40
0.625
 40
0.75
 40
0.75
 40
0.75
 40
0.75
 40
0.875
 40
0.875
 40
0.875
 40
0.875
 40
1.0
 40
1.0
 40
1.0
 40
1.0
 10
-10.74374
 20
-14.17708
 30
0.0
 10
-10.74374
 20
-14.18118
 30
0.0
 10
-10.74261
 20
-14.18433
 30
0.0
 10
-10.74033
 20
-14.18651
 30
0.0
 10
-10.74033
 20
-14.18651
 30
0.0
 10
-10.73805
 20
-14.18873
 30
0.0
 10
-10.7348
 20
-14.18983
 30
0.0
 10
-10.73057
 20
-14.18983
 30
0.0
 10
-10.73057
 20
-14.18983
 30
0.0
 10
-10.72643
 20
-14.18983
 30
0.0
 10
-10.72323
 20
-14.18873
 30
0.0
 10
-10.721
 20
-14.18651
 30
0.0
 10
-10.721
 20
-14.18651
 30
0.0
 10
-10.71874
 20
-14.18433
 30
0.0
 10
-10.71761
 20
-14.18118
 30
0.0
 10
-10.71761
 20
-14.17708
 30
0.0
 10
-10.71761
 20
-14.17708
 30
0.0
 10
-10.71761
 20
-14.17299
 30
0.0
 10
-10.71874
 20
-14.16986
 30
0.0
 10
-10.721
 20
-14.16768
 30
0.0
 10
-10.721
 20
-14.16768
 30
0.0
 10
-10.72323
 20
-14.16549
 30
0.0
 10
-10.72643
 20
-14.16441
 30
0.0
 10
-10.73057
 20
-14.16441
 30
0.0
 10
-10.73057
 20
-14.16441
 30
0.0
 10
-10.7348
 20
-14.16441
 30
0.0
 10
-10.73805
 20
-14.16551
 30
0.0
 10
-10.74033
 20
-14.16772
 30
0.0
 10
-10.74033
 20
-14.16772
 30
0.0
 10
-10.74261
 20
-14.16991
 30
0.0
 10
-10.74374
 20
-14.17304
 30
0.0
 10
-10.74374
 20
-14.17708
 30
0.0
  0
SPLINE
  5
6C
330
1F
100
AcDbEntity
  8
Layer 1
 62
   250
100
AcDbSpline
210
0.0
220
0.0
230
1.0
 70
    11
 71
     3
 72
    36
 73
    32
 74
     0
 42
0.0000000001
 43
0.0000000001
 40
0.0
 40
0.0
 40
0.0
 40
0.0
 40
0.125
 40
0.125
 40
0.125
 40
0.125
 40
0.25
 40
0.25
 40
0.25
 40
0.25
 40
0.375
 40
0.375
 40
0.375
 40
0.375
 40
0.5
 40
0.5
 40
0.5
 40
0.5
 40
0.625
 40
0.625
 40
0.625
 40
0.625
 40
0.75
 40
0.75
 40
0.75
 40
0.75
 40
0.875
 40
0.875
 40
0.875
 40
0.875
 40
1.0
 40
1.0
 40
1.0
 40
1.0
 10
-10.6166
 20
-14.20093
 30
0.0
 10
-10.6166
 20
-14.18807
 30
0.0
 10
-10.6178
 20
-14.17901
 30
0.0
 10
-10.62022
 20
-14.17374
 30
0.0
 10
-10.62022
 20
-14.17374
 30
0.0
 10
-10.62262
 20
-14.1685
 30
0.0
 10
-10.62669
 20
-14.16587
 30
0.0
 10
-10.63238
 20
-14.16587
 30
0.0
 10
-10.63238
 20
-14.16587
 30
0.0
 10
-10.63807
 20
-14.16587
 30
0.0
 10
-10.64214
 20
-14.1685
 30
0.0
 10
-10.64459
 20
-14.17374
 30
0.0
 10
-10.64459
 20
-14.17374
 30
0.0
 10
-10.64701
 20
-14.17901
 30
0.0
 10
-10.64823
 20
-14.18807
 30
0.0
 10
-10.64823
 20
-14.20093
 30
0.0
 10
-10.64823
 20
-14.20093
 30
0.0
 10
-10.64823
 20
-14.21391
 30
0.0
 10
-10.64701
 20
-14.22309
 30
0.0
 10
-10.64459
 20
-14.2284
 30
0.0
 10
-10.64459
 20
-14.2284
 30
0.0
 10
-10.64214
 20
-14.23374
 30
0.0
 10
-10.63807
 20
-14.2364
 30
0.0
 10
-10.63238
 20
-14.2364
 30
0.0
 10
-10.63238
 20
-14.2364
 30
0.0
 10
-10.62674
 20
-14.2364
 30
0.0
 10
-10.62269
 20
-14.23374
 30
0.0
 10
-10.62024
 20
-14.2284
 30
0.0
 10
-10.62024
 20
-14.2284
 30
0.0
 10
-10.61782
 20
-14.22309
 30
0.0
 10
-10.6166
 20
-14.21391
 30
0.0
 10
-10.6166
 20
-14.20093
 30
0.0
  0
SPLINE
  5
6D
330
1F
100
AcDbEntity
  8
Layer 1
 62
   250
100
AcDbSpline
210
0.0
220
0.0
230
1.0
 70
    11
 71
     3
 72
    36
 73
    32
 74
     0
 42
0.0000000001
 43
0.0000000001
 40
0.0
 40
0.0
 40
0.0
 40
0.0
 40
0.125
 40
0.125
 40
0.125
 40
0.125
 40
0.25
 40
0.25
 40
0.25
 40
0.25
 40
0.375
 40
0.375
 40
0.375
 40
0.375
 40
0.5
 40
0.5
 40
0.5
 40
0.5
 40
0.625
 40
0.625
 40
0.625
 40
0.625
 40
0.75
 40
0.75
 40
0.75
 40
0.75
 40
0.875
 40
0.875
 40
0.875
 40
0.875
 40
1.0
 40
1.0
 40
1.0
 40
1.0
 10
-10.59007
 20
-14.20112
 30
0.0
 10
-10.59007
 20
-14.21817
 30
0.0
 10
-10.59374
 20
-14.23132
 30
0.0
 10
-10.6011
 20
-14.24058
 30
0.0
 10
-10.6011
 20
-14.24058
 30
0.0
 10
-10.60844
 20
-14.24983
 30
0.0
 10
-10.61888
 20
-14.25446
 30
0.0
 10
-10.63238
 20
-14.25446
 30
0.0
 10
-10.63238
 20
-14.25446
 30
0.0
 10
-10.64593
 20
-14.25446
 30
0.0
 10
-10.65639
 20
-14.24983
 30
0.0
 10
-10.66373
 20
-14.24058
 30
0.0
 10
-10.66373
 20
-14.24058
 30
0.0
 10
-10.67109
 20
-14.23132
 30
0.0
 10
-10.67476
 20
-14.21817
 30
0.0
 10
-10.67476
 20
-14.20112
 30
0.0
 10
-10.67476
 20
-14.20112
 30
0.0
 10
-10.67476
 20
-14.18405
 30
0.0
 10
-10.67109
 20
-14.17087
 30
0.0
 10
-10.66373
 20
-14.16161
 30
0.0
 10
-10.66373
 20
-14.16161
 30
0.0
 10
-10.65639
 20
-14.15237
 30
0.0
 10
-10.64593
 20
-14.14773
 30
0.0
 10
-10.63238
 20
-14.14773
 30
0.0
 10
-10.63238
 20
-14.14773
 30
0.0
 10
-10.61888
 20
-14.14773
 30
0.0
 10
-10.60844
 20
-14.15237
 30
0.0
 10
-10.6011
 20
-14.16161
 30
0.0
 10
-10.6011
 20
-14.16161
 30
0.0
 10
-10.59374
 20
-14.17087
 30
0.0
 10
-10.59007
 20
-14.18405
 30
0.0
 10
-10.59007
 20
-14.20112
 30
0.0
  0
SPLINE
  5
6E
330
1F
100
AcDbEntity
  8
Layer 1
 62
   250
100
AcDbSpline
210
0.0
220
0.0
230
1.0
 70
    11
 71
     3
 72
    92
 73
    88
 74
     0
 42
0.0000000001
 43
0.0000000001
 40
0.0
 40
0.0
 40
0.0
 40
0.0
 40
0.0454545454545455
 40
0.0454545454545455
 40
0.0454545454545455
 40
0.0454545454545455
 40
0.0909090909090909
 40
0.0909090909090909
 40
0.0909090909090909
 40
0.0909090909090909
 40
0.1363636363636364
 40
0.1363636363636364
 40
0.1363636363636364
 40
0.1363636363636364
 40
0.1818181818181818
 40
0.1818181818181818
 40
0.1818181818181818
 40
0.1818181818181818
 40
0.2272727272727273
 40
0.2272727272727273
 40
0.2272727272727273
 40
0.2272727272727273
 40
0.2727272727272728
 40
0.2727272727272728
 40
0.2727272727272728
 40
0.2727272727272728
 40
0.3181818181818182
 40
0.3181818181818182
 40
0.3181818181818182
 40
0.3181818181818182
 40
0.3636363636363637
 40
0.3636363636363637
 40
0.3636363636363637
 40
0.3636363636363637
 40
0.4090909090909092
 40
0.4090909090909092
 40
0.4090909090909092
 40
0.4090909090909092
 40
0.4545454545454546
 40
0.4545454545454546
 40
0.4545454545454546
 40
0.4545454545454546
 40
0.5000000000000001
 40
0.5000000000000001
 40
0.5000000000000001
 40
0.5000000000000001
 40
0.5454545454545455
 40
0.5454545454545455
 40
0.5454545454545455
 40
0.5454545454545455
 40
0.5909090909090909
 40
0.5909090909090909
 40
0.5909090909090909
 40
0.5909090909090909
 40
0.6363636363636364
 40
0.6363636363636364
 40
0.6363636363636364
 40
0.6363636363636364
 40
0.6818181818181818
 40
0.6818181818181818
 40
0.6818181818181818
 40
0.6818181818181818
 40
0.7272727272727272
 40
0.7272727272727272
 40
0.7272727272727272
 40
0.7272727272727272
 40
0.7727272727272726
 40
0.7727272727272726
 40
0.7727272727272726
 40
0.7727272727272726
 40
0.818181818181818
 40
0.818181818181818
 40
0.818181818181818
 40
0.818181818181818
 40
0.8636363636363634
 40
0.8636363636363634
 40
0.8636363636363634
 40
0.8636363636363634
 40
0.9090909090909088
 40
0.9090909090909088
 40
0.9090909090909088
 40
0.9090909090909088
 40
0.9545454545454543
 40
0.9545454545454543
 40
0.9545454545454543
 40
0.9545454545454543
 40
1.0
 40
1.0
 40
1.0
 40
1.0
 10
-10.56836
 20
-14.14959
 30
0.0
 10
-10.56836
 20
-14.14959
 30
0.0
 10
-10.50242
 20
-14.14959
 30
0.0
 10
-10.50242
 20
-14.14959
 30
0.0
 10
-10.50242
 20
-14.14959
 30
0.0
 10
-10.50242
 20
-14.14959
 30
0.0
 10
-10.50242
 20
-14.16909
 30
0.0
 10
-10.50242
 20
-14.16909
 30
0.0
 10
-10.50242
 20
-14.16909
 30
0.0
 10
-10.50242
 20
-14.16909
 30
0.0
 10
-10.54722
 20
-14.16909
 30
0.0
 10
-10.54722
 20
-14.16909
 30
0.0
 10
-10.54722
 20
-14.16909
 30
0.0
 10
-10.54722
 20
-14.16909
 30
0.0
 10
-10.54722
 20
-14.18501
 30
0.0
 10
-10.54722
 20
-14.18501
 30
0.0
 10
-10.54722
 20
-14.18501
 30
0.0
 10
-10.5452
 20
-14.18447
 30
0.0
 10
-10.54317
 20
-14.18405
 30
0.0
 10
-10.54113
 20
-14.18374
 30
0.0
 10
-10.54113
 20
-14.18374
 30
0.0
 10
-10.53908
 20
-14.18343
 30
0.0
 10
-10.53694
 20
-14.18329
 30
0.0
 10
-10.53475
 20
-14.18329
 30
0.0
 10
-10.53475
 20
-14.18329
 30
0.0
 10
-10.5222
 20
-14.18329
 30
0.0
 10
-10.51244
 20
-14.18642
 30
0.0
 10
-10.50545
 20
-14.1927
 30
0.0
 10
-10.50545
 20
-14.1927
 30
0.0
 10
-10.49847
 20
-14.19896
 30
0.0
 10
-10.49499
 20
-14.2077
 30
0.0
 10
-10.49499
 20
-14.2189
 30
0.0
 10
-10.49499
 20
-14.2189
 30
0.0
 10
-10.49499
 20
-14.23002
 30
0.0
 10
-10.4988
 20
-14.23873
 30
0.0
 10
-10.50639
 20
-14.24503
 30
0.0
 10
-10.50639
 20
-14.24503
 30
0.0
 10
-10.51399
 20
-14.25131
 30
0.0
 10
-10.52455
 20
-14.25446
 30
0.0
 10
-10.53805
 20
-14.25446
 30
0.0
 10
-10.53805
 20
-14.25446
 30
0.0
 10
-10.54388
 20
-14.25446
 30
0.0
 10
-10.54967
 20
-14.25389
 30
0.0
 10
-10.55538
 20
-14.25277
 30
0.0
 10
-10.55538
 20
-14.25277
 30
0.0
 10
-10.5611
 20
-14.25164
 30
0.0
 10
-10.56679
 20
-14.24994
 30
0.0
 10
-10.57243
 20
-14.24764
 30
0.0
 10
-10.57243
 20
-14.24764
 30
0.0
 10
-10.57243
 20
-14.24764
 30
0.0
 10
-10.57243
 20
-14.22675
 30
0.0
 10
-10.57243
 20
-14.22675
 30
0.0
 10
-10.57243
 20
-14.22675
 30
0.0
 10
-10.56683
 20
-14.22998
 30
0.0
 10
-10.56152
 20
-14.23238
 30
0.0
 10
-10.55649
 20
-14.23397
 30
0.0
 10
-10.55649
 20
-14.23397
 30
0.0
 10
-10.55145
 20
-14.2356
 30
0.0
 10
-10.5467
 20
-14.2364
 30
0.0
 10
-10.54226
 20
-14.2364
 30
0.0
 10
-10.54226
 20
-14.2364
 30
0.0
 10
-10.53581
 20
-14.2364
 30
0.0
 10
-10.53076
 20
-14.23482
 30
0.0
 10
-10.52706
 20
-14.23167
 30
0.0
 10
-10.52706
 20
-14.23167
 30
0.0
 10
-10.52337
 20
-14.22854
 30
0.0
 10
-10.52151
 20
-14.22429
 30
0.0
 10
-10.52151
 20
-14.2189
 30
0.0
 10
-10.52151
 20
-14.2189
 30
0.0
 10
-10.52151
 20
-14.21349
 30
0.0
 10
-10.52337
 20
-14.20923
 30
0.0
 10
-10.52706
 20
-14.20611
 30
0.0
 10
-10.52706
 20
-14.20611
 30
0.0
 10
-10.53076
 20
-14.20298
 30
0.0
 10
-10.53581
 20
-14.20143
 30
0.0
 10
-10.54226
 20
-14.20143
 30
0.0
 10
-10.54226
 20
-14.20143
 30
0.0
 10
-10.54607
 20
-14.20143
 30
0.0
 10
-10.55014
 20
-14.20192
 30
0.0
 10
-10.55444
 20
-14.20291
 30
0.0
 10
-10.55444
 20
-14.20291
 30
0.0
 10
-10.55877
 20
-14.20389
 30
0.0
 10
-10.5634
 20
-14.20542
 30
0.0
 10
-10.56836
 20
-14.20749
 30
0.0
 10
-10.56836
 20
-14.20749
 30
0.0
 10
-10.56836
 20
-14.20749
 30
0.0
 10
-10.56836
 20
-14.14959
 30
0.0
 10
-10.56836
 20
-14.14959
 30
0.0
  0
SPLINE
  5
6F
330
1F
100
AcDbEntity
  8
Layer 1
 62
   250
100
AcDbSpline
210
0.0
220
0.0
230
1.0
 70
    11
 71
     3
 72
    44
 73
    40
 74
     0
 42
0.0000000001
 43
0.0000000001
 40
0.0
 40
0.0
 40
0.0
 40
0.0
 40
0.1
 40
0.1
 40
0.1
 40
0.1
 40
0.2
 40
0.2
 40
0.2
 40
0.2
 40
0.3
 40
0.3
 40
0.3
 40
0.3
 40
0.4
 40
0.4
 40
0.4
 40
0.4
 40
0.5
 40
0.5
 40
0.5
 40
0.5
 40
0.6
 40
0.6
 40
0.6
 40
0.6
 40
0.7
 40
0.7
 40
0.7
 40
0.7
 40
0.7999999999999999
 40
0.7999999999999999
 40
0.7999999999999999
 40
0.7999999999999999
 40
0.8999999999999999
 40
0.8999999999999999
 40
0.8999999999999999
 40
0.8999999999999999
 40
1.0
 40
1.0
 40
1.0
 40
1.0
 10
-10.47384
 20
-14.27106
 30
0.0
 10
-10.46796
 20
-14.26013
 30
0.0
 10
-10.46354
 20
-14.24945
 30
0.0
 10
-10.4606
 20
-14.23903
 30
0.0
 10
-10.4606
 20
-14.23903
 30
0.0
 10
-10.45766
 20
-14.22859
 30
0.0
 10
-10.4562
 20
-14.21831
 30
0.0
 10
-10.4562
 20
-14.20815
 30
0.0
 10
-10.4562
 20
-14.20815
 30
0.0
 10
-10.4562
 20
-14.19799
 30
0.0
 10
-10.45766
 20
-14.18771
 30
0.0
 10
-10.4606
 20
-14.17732
 30
0.0
 10
-10.4606
 20
-14.17732
 30
0.0
 10
-10.46354
 20
-14.16692
 30
0.0
 10
-10.46796
 20
-14.15627
 30
0.0
 10
-10.47384
 20
-14.14538
 30
0.0
 10
-10.47384
 20
-14.14538
 30
0.0
 10
-10.47384
 20
-14.14538
 30
0.0
 10
-10.45338
 20
-14.14538
 30
0.0
 10
-10.45338
 20
-14.14538
 30
0.0
 10
-10.45338
 20
-14.14538
 30
0.0
 10
-10.4464
 20
-14.15665
 30
0.0
 10
-10.44122
 20
-14.16742
 30
0.0
 10
-10.43783
 20
-14.17774
 30
0.0
 10
-10.43783
 20
-14.17774
 30
0.0
 10
-10.43447
 20
-14.18804
 30
0.0
 10
-10.43278
 20
-14.19823
 30
0.0
 10
-10.43278
 20
-14.20829
 30
0.0
 10
-10.43278
 20
-14.20829
 30
0.0
 10
-10.43278
 20
-14.21836
 30
0.0
 10
-10.43445
 20
-14.22849
 30
0.0
 10
-10.43781
 20
-14.2387
 30
0.0
 10
-10.43781
 20
-14.2387
 30
0.0
 10
-10.44115
 20
-14.24893
 30
0.0
 10
-10.44635
 20
-14.25973
 30
0.0
 10
-10.45338
 20
-14.27106
 30
0.0
 10
-10.45338
 20
-14.27106
 30
0.0
 10
-10.45338
 20
-14.27106
 30
0.0
 10
-10.47384
 20
-14.27106
 30
0.0
 10
-10.47384
 20
-14.27106
 30
0.0
  0
SPLINE
  5
70
330
1F
100
AcDbEntity
  8
Layer 1
 62
   250
100
AcDbSpline
210
0.0
220
0.0
230
1.0
 70
    11
 71
     3
 72
    80
 73
    76
 74
     0
 42
0.0000000001
 43
0.0000000001
 40
0.0
 40
0.0
 40
0.0
 40
0.0
 40
0.0526315789473684
 40
0.0526315789473684
 40
0.0526315789473684
 40
0.0526315789473684
 40
0.1052631578947368
 40
0.1052631578947368
 40
0.1052631578947368
 40
0.1052631578947368
 40
0.1578947368421053
 40
0.1578947368421053
 40
0.1578947368421053
 40
0.1578947368421053
 40
0.2105263157894737
 40
0.2105263157894737
 40
0.2105263157894737
 40
0.2105263157894737
 40
0.2631578947368421
 40
0.2631578947368421
 40
0.2631578947368421
 40
0.2631578947368421
 40
0.3157894736842105
 40
0.3157894736842105
 40
0.3157894736842105
 40
0.3157894736842105
 40
0.3684210526315789
 40
0.3684210526315789
 40
0.3684210526315789
 40
0.3684210526315789
 40
0.4210526315789473
 40
0.4210526315789473
 40
0.4210526315789473
 40
0.4210526315789473
 40
0.4736842105263158
 40
0.4736842105263158
 40
0.4736842105263158
 40
0.4736842105263158
 40
0.5263157894736842
 40
0.5263157894736842
 40
0.5263157894736842
 40
0.5263157894736842
 40
0.5789473684210527
 40
0.5789473684210527
 40
0.5789473684210527
 40
0.5789473684210527
 40
0.631578947368421
 40
0.631578947368421
 40
0.631578947368421
 40
0.631578947368421
 40
0.6842105263157894
 40
0.6842105263157894
 40
0.6842105263157894
 40
0.6842105263157894
 40
0.7368421052631577
 40
0.7368421052631577
 40
0.7368421052631577
 40
0.7368421052631577
 40
0.7894736842105261
 40
0.7894736842105261
 40
0.7894736842105261
 40
0.7894736842105261
 40
0.8421052631578945
 40
0.8421052631578945
 40
0.8421052631578945
 40
0.8421052631578945
 40
0.8947368421052628
 40
0.8947368421052628
 40
0.8947368421052628
 40
0.8947368421052628
 40
0.9473684210526312
 40
0.9473684210526312
 40
0.9473684210526312
 40
0.9473684210526312
 40
1.0
 40
1.0
 40
1.0
 40
1.0
 10
-10.33085
 20
-14.23296
 30
0.0
 10
-10.33085
 20
-14.23296
 30
0.0
 10
-10.28557
 20
-14.23296
 30
0.0
 10
-10.28557
 20
-14.23296
 30
0.0
 10
-10.28557
 20
-14.23296
 30
0.0
 10
-10.28557
 20
-14.23296
 30
0.0
 10
-10.28557
 20
-14.25246
 30
0.0
 10
-10.28557
 20
-14.25246
 30
0.0
 10
-10.28557
 20
-14.25246
 30
0.0
 10
-10.28557
 20
-14.25246
 30
0.0
 10
-10.36034
 20
-14.25246
 30
0.0
 10
-10.36034
 20
-14.25246
 30
0.0
 10
-10.36034
 20
-14.25246
 30
0.0
 10
-10.36034
 20
-14.25246
 30
0.0
 10
-10.36034
 20
-14.23296
 30
0.0
 10
-10.36034
 20
-14.23296
 30
0.0
 10
-10.36034
 20
-14.23296
 30
0.0
 10
-10.36034
 20
-14.23296
 30
0.0
 10
-10.32278
 20
-14.19983
 30
0.0
 10
-10.32278
 20
-14.19983
 30
0.0
 10
-10.32278
 20
-14.19983
 30
0.0
 10
-10.31942
 20
-14.19679
 30
0.0
 10
-10.31695
 20
-14.19383
 30
0.0
 10
-10.31535
 20
-14.19094
 30
0.0
 10
-10.31535
 20
-14.19094
 30
0.0
 10
-10.31373
 20
-14.18804
 30
0.0
 10
-10.31293
 20
-14.18503
 30
0.0
 10
-10.31293
 20
-14.1819
 30
0.0
 10
-10.31293
 20
-14.1819
 30
0.0
 10
-10.31293
 20
-14.17708
 30
0.0
 10
-10.31455
 20
-14.1732
 30
0.0
 10
-10.31779
 20
-14.17026
 30
0.0
 10
-10.31779
 20
-14.17026
 30
0.0
 10
-10.32102
 20
-14.16732
 30
0.0
 10
-10.32532
 20
-14.16587
 30
0.0
 10
-10.33071
 20
-14.16587
 30
0.0
 10
-10.33071
 20
-14.16587
 30
0.0
 10
-10.33484
 20
-14.16587
 30
0.0
 10
-10.33936
 20
-14.16676
 30
0.0
 10
-10.34428
 20
-14.16852
 30
0.0
 10
-10.34428
 20
-14.16852
 30
0.0
 10
-10.34919
 20
-14.17029
 30
0.0
 10
-10.35446
 20
-14.17292
 30
0.0
 10
-10.36006
 20
-14.1764
 30
0.0
 10
-10.36006
 20
-14.1764
 30
0.0
 10
-10.36006
 20
-14.1764
 30
0.0
 10
-10.36006
 20
-14.1538
 30
0.0
 10
-10.36006
 20
-14.1538
 30
0.0
 10
-10.36006
 20
-14.1538
 30
0.0
 10
-10.35408
 20
-14.15183
 30
0.0
 10
-10.34818
 20
-14.15032
 30
0.0
 10
-10.34235
 20
-14.14929
 30
0.0
 10
-10.34235
 20
-14.14929
 30
0.0
 10
-10.33651
 20
-14.14825
 30
0.0
 10
-10.3308
 20
-14.14773
 30
0.0
 10
-10.32518
 20
-14.14773
 30
0.0
 10
-10.32518
 20
-14.14773
 30
0.0
 10
-10.31288
 20
-14.14773
 30
0.0
 10
-10.30331
 20
-14.15044
 30
0.0
 10
-10.29649
 20
-14.15587
 30
0.0
 10
-10.29649
 20
-14.15587
 30
0.0
 10
-10.28967
 20
-14.16128
 30
0.0
 10
-10.28626
 20
-14.16883
 30
0.0
 10
-10.28626
 20
-14.17854
 30
0.0
 10
-10.28626
 20
-14.17854
 30
0.0
 10
-10.28626
 20
-14.18414
 30
0.0
 10
-10.28771
 20
-14.18936
 30
0.0
 10
-10.29061
 20
-14.19421
 30
0.0
 10
-10.29061
 20
-14.19421
 30
0.0
 10
-10.2935
 20
-14.19905
 30
0.0
 10
-10.29959
 20
-14.20554
 30
0.0
 10
-10.30886
 20
-14.21368
 30
0.0
 10
-10.30886
 20
-14.21368
 30
0.0
 10
-10.30886
 20
-14.21368
 30
0.0
 10
-10.33085
 20
-14.23296
 30
0.0
 10
-10.33085
 20
-14.23296
 30
0.0
  0
SPLINE
  5
71
330
1F
100
AcDbEntity
  8
Layer 1
 62
   250
100
AcDbSpline
210
0.0
220
0.0
230
1.0
 70
    11
 71
     3
 72
    80
 73
    76
 74
     0
 42
0.0000000001
 43
0.0000000001
 40
0.0
 40
0.0
 40
0.0
 40
0.0
 40
0.0526315789473684
 40
0.0526315789473684
 40
0.0526315789473684
 40
0.0526315789473684
 40
0.1052631578947368
 40
0.1052631578947368
 40
0.1052631578947368
 40
0.1052631578947368
 40
0.1578947368421053
 40
0.1578947368421053
 40
0.1578947368421053
 40
0.1578947368421053
 40
0.2105263157894737
 40
0.2105263157894737
 40
0.2105263157894737
 40
0.2105263157894737
 40
0.2631578947368421
 40
0.2631578947368421
 40
0.2631578947368421
 40
0.2631578947368421
 40
0.3157894736842105
 40
0.3157894736842105
 40
0.3157894736842105
 40
0.3157894736842105
 40
0.3684210526315789
 40
0.3684210526315789
 40
0.3684210526315789
 40
0.3684210526315789
 40
0.4210526315789473
 40
0.4210526315789473
 40
0.4210526315789473
 40
0.4210526315789473
 40
0.4736842105263158
 40
0.4736842105263158
 40
0.4736842105263158
 40
0.4736842105263158
 40
0.5263157894736842
 40
0.5263157894736842
 40
0.5263157894736842
 40
0.5263157894736842
 40
0.5789473684210527
 40
0.5789473684210527
 40
0.5789473684210527
 40
0.5789473684210527
 40
0.631578947368421
 40
0.631578947368421
 40
0.631578947368421
 40
0.631578947368421
 40
0.6842105263157894
 40
0.6842105263157894
 40
0.6842105263157894
 40
0.6842105263157894
 40
0.7368421052631577
 40
0.7368421052631577
 40
0.7368421052631577
 40
0.7368421052631577
 40
0.7894736842105261
 40
0.7894736842105261
 40
0.7894736842105261
 40
0.7894736842105261
 40
0.8421052631578945
 40
0.8421052631578945
 40
0.8421052631578945
 40
0.8421052631578945
 40
0.8947368421052628
 40
0.8947368421052628
 40
0.8947368421052628
 40
0.8947368421052628
 40
0.9473684210526312
 40
0.9473684210526312
 40
0.9473684210526312
 40
0.9473684210526312
 40
1.0
 40
1.0
 40
1.0
 40
1.0
 10
-10.23266
 20
-14.23296
 30
0.0
 10
-10.23266
 20
-14.23296
 30
0.0
 10
-10.18738
 20
-14.23296
 30
0.0
 10
-10.18738
 20
-14.23296
 30
0.0
 10
-10.18738
 20
-14.23296
 30
0.0
 10
-10.18738
 20
-14.23296
 30
0.0
 10
-10.18738
 20
-14.25246
 30
0.0
 10
-10.18738
 20
-14.25246
 30
0.0
 10
-10.18738
 20
-14.25246
 30
0.0
 10
-10.18738
 20
-14.25246
 30
0.0
 10
-10.26215
 20
-14.25246
 30
0.0
 10
-10.26215
 20
-14.25246
 30
0.0
 10
-10.26215
 20
-14.25246
 30
0.0
 10
-10.26215
 20
-14.25246
 30
0.0
 10
-10.26215
 20
-14.23296
 30
0.0
 10
-10.26215
 20
-14.23296
 30
0.0
 10
-10.26215
 20
-14.23296
 30
0.0
 10
-10.26215
 20
-14.23296
 30
0.0
 10
-10.22459
 20
-14.19983
 30
0.0
 10
-10.22459
 20
-14.19983
 30
0.0
 10
-10.22459
 20
-14.19983
 30
0.0
 10
-10.22123
 20
-14.19679
 30
0.0
 10
-10.21876
 20
-14.19383
 30
0.0
 10
-10.21716
 20
-14.19094
 30
0.0
 10
-10.21716
 20
-14.19094
 30
0.0
 10
-10.21554
 20
-14.18804
 30
0.0
 10
-10.21474
 20
-14.18503
 30
0.0
 10
-10.21474
 20
-14.1819
 30
0.0
 10
-10.21474
 20
-14.1819
 30
0.0
 10
-10.21474
 20
-14.17708
 30
0.0
 10
-10.21636
 20
-14.1732
 30
0.0
 10
-10.2196
 20
-14.17026
 30
0.0
 10
-10.2196
 20
-14.17026
 30
0.0
 10
-10.22283
 20
-14.16732
 30
0.0
 10
-10.22713
 20
-14.16587
 30
0.0
 10
-10.23252
 20
-14.16587
 30
0.0
 10
-10.23252
 20
-14.16587
 30
0.0
 10
-10.23665
 20
-14.16587
 30
0.0
 10
-10.24117
 20
-14.16676
 30
0.0
 10
-10.24609
 20
-14.16852
 30
0.0
 10
-10.24609
 20
-14.16852
 30
0.0
 10
-10.251
 20
-14.17029
 30
0.0
 10
-10.25627
 20
-14.17292
 30
0.0
 10
-10.26187
 20
-14.1764
 30
0.0
 10
-10.26187
 20
-14.1764
 30
0.0
 10
-10.26187
 20
-14.1764
 30
0.0
 10
-10.26187
 20
-14.1538
 30
0.0
 10
-10.26187
 20
-14.1538
 30
0.0
 10
-10.26187
 20
-14.1538
 30
0.0
 10
-10.25589
 20
-14.15183
 30
0.0
 10
-10.24999
 20
-14.15032
 30
0.0
 10
-10.24416
 20
-14.14929
 30
0.0
 10
-10.24416
 20
-14.14929
 30
0.0
 10
-10.23832
 20
-14.14825
 30
0.0
 10
-10.23261
 20
-14.14773
 30
0.0
 10
-10.22699
 20
-14.14773
 30
0.0
 10
-10.22699
 20
-14.14773
 30
0.0
 10
-10.21469
 20
-14.14773
 30
0.0
 10
-10.20512
 20
-14.15044
 30
0.0
 10
-10.1983
 20
-14.15587
 30
0.0
 10
-10.1983
 20
-14.15587
 30
0.0
 10
-10.19148
 20
-14.16128
 30
0.0
 10
-10.18807
 20
-14.16883
 30
0.0
 10
-10.18807
 20
-14.17854
 30
0.0
 10
-10.18807
 20
-14.17854
 30
0.0
 10
-10.18807
 20
-14.18414
 30
0.0
 10
-10.18952
 20
-14.18936
 30
0.0
 10
-10.19242
 20
-14.19421
 30
0.0
 10
-10.19242
 20
-14.19421
 30
0.0
 10
-10.19531
 20
-14.19905
 30
0.0
 10
-10.2014
 20
-14.20554
 30
0.0
 10
-10.21067
 20
-14.21368
 30
0.0
 10
-10.21067
 20
-14.21368
 30
0.0
 10
-10.21067
 20
-14.21368
 30
0.0
 10
-10.23266
 20
-14.23296
 30
0.0
 10
-10.23266
 20
-14.23296
 30
0.0
  0
SPLINE
  5
72
330
1F
100
AcDbEntity
  8
Layer 1
 62
   250
100
AcDbSpline
210
0.0
220
0.0
230
1.0
 70
    11
 71
     3
 72
    36
 73
    32
 74
     0
 42
0.0000000001
 43
0.0000000001
 40
0.0
 40
0.0
 40
0.0
 40
0.0
 40
0.125
 40
0.125
 40
0.125
 40
0.125
 40
0.25
 40
0.25
 40
0.25
 40
0.25
 40
0.375
 40
0.375
 40
0.375
 40
0.375
 40
0.5
 40
0.5
 40
0.5
 40
0.5
 40
0.625
 40
0.625
 40
0.625
 40
0.625
 40
0.75
 40
0.75
 40
0.75
 40
0.75
 40
0.875
 40
0.875
 40
0.875
 40
0.875
 40
1.0
 40
1.0
 40
1.0
 40
1.0
 10
-10.11022
 20
-14.20093
 30
0.0
 10
-10.11022
 20
-14.18807
 30
0.0
 10
-10.11142
 20
-14.17901
 30
0.0
 10
-10.11384
 20
-14.17374
 30
0.0
 10
-10.11384
 20
-14.17374
 30
0.0
 10
-10.11624
 20
-14.1685
 30
0.0
 10
-10.12031
 20
-14.16587
 30
0.0
 10
-10.126
 20
-14.16587
 30
0.0
 10
-10.126
 20
-14.16587
 30
0.0
 10
-10.13169
 20
-14.16587
 30
0.0
 10
-10.13576
 20
-14.1685
 30
0.0
 10
-10.13821
 20
-14.17374
 30
0.0
 10
-10.13821
 20
-14.17374
 30
0.0
 10
-10.14063
 20
-14.17901
 30
0.0
 10
-10.14185
 20
-14.18807
 30
0.0
 10
-10.14185
 20
-14.20093
 30
0.0
 10
-10.14185
 20
-14.20093
 30
0.0
 10
-10.14185
 20
-14.21391
 30
0.0
 10
-10.14063
 20
-14.22309
 30
0.0
 10
-10.13821
 20
-14.2284
 30
0.0
 10
-10.13821
 20
-14.2284
 30
0.0
 10
-10.13576
 20
-14.23374
 30
0.0
 10
-10.13169
 20
-14.2364
 30
0.0
 10
-10.126
 20
-14.2364
 30
0.0
 10
-10.126
 20
-14.2364
 30
0.0
 10
-10.12036
 20
-14.2364
 30
0.0
 10
-10.11631
 20
-14.23374
 30
0.0
 10
-10.11386
 20
-14.2284
 30
0.0
 10
-10.11386
 20
-14.2284
 30
0.0
 10
-10.11144
 20
-14.22309
 30
0.0
 10
-10.11022
 20
-14.21391
 30
0.0
 10
-10.11022
 20
-14.20093
 30
0.0
  0
SPLINE
  5
73
330
1F
100
AcDbEntity
  8
Layer 1
 62
   250
100
AcDbSpline
210
0.0
220
0.0
230
1.0
 70
    11
 71
     3
 72
    36
 73
    32
 74
     0
 42
0.0000000001
 43
0.0000000001
 40
0.0
 40
0.0
 40
0.0
 40
0.0
 40
0.125
 40
0.125
 40
0.125
 40
0.125
 40
0.25
 40
0.25
 40
0.25
 40
0.25
 40
0.375
 40
0.375
 40
0.375
 40
0.375
 40
0.5
 40
0.5
 40
0.5
 40
0.5
 40
0.625
 40
0.625
 40
0.625
 40
0.625
 40
0.75
 40
0.75
 40
0.75
 40
0.75
 40
0.875
 40
0.875
 40
0.875
 40
0.875
 40
1.0
 40
1.0
 40
1.0
 40
1.0
 10
-10.08369
 20
-14.20112
 30
0.0
 10
-10.08369
 20
-14.21817
 30
0.0
 10
-10.08736
 20
-14.23132
 30
0.0
 10
-10.09472
 20
-14.24058
 30
0.0
 10
-10.09472
 20
-14.24058
 30
0.0
 10
-10.10206
 20
-14.24983
 30
0.0
 10
-10.1125
 20
-14.25446
 30
0.0
 10
-10.126
 20
-14.25446
 30
0.0
 10
-10.126
 20
-14.25446
 30
0.0
 10
-10.13955
 20
-14.25446
 30
0.0
 10
-10.15001
 20
-14.24983
 30
0.0
 10
-10.15735
 20
-14.24058
 30
0.0
 10
-10.15735
 20
-14.24058
 30
0.0
 10
-10.16471
 20
-14.23132
 30
0.0
 10
-10.16838
 20
-14.21817
 30
0.0
 10
-10.16838
 20
-14.20112
 30
0.0
 10
-10.16838
 20
-14.20112
 30
0.0
 10
-10.16838
 20
-14.18405
 30
0.0
 10
-10.16471
 20
-14.17087
 30
0.0
 10
-10.15735
 20
-14.16161
 30
0.0
 10
-10.15735
 20
-14.16161
 30
0.0
 10
-10.15001
 20
-14.15237
 30
0.0
 10
-10.13955
 20
-14.14773
 30
0.0
 10
-10.126
 20
-14.14773
 30
0.0
 10
-10.126
 20
-14.14773
 30
0.0
 10
-10.1125
 20
-14.14773
 30
0.0
 10
-10.10206
 20
-14.15237
 30
0.0
 10
-10.09472
 20
-14.16161
 30
0.0
 10
-10.09472
 20
-14.16161
 30
0.0
 10
-10.08736
 20
-14.17087
 30
0.0
 10
-10.08369
 20
-14.18405
 30
0.0
 10
-10.08369
 20
-14.20112
 30
0.0
  0
SPLINE
  5
74
330
1F
100
AcDbEntity
  8
Layer 1
 62
   250
100
AcDbSpline
210
0.0
220
0.0
230
1.0
 70
    11
 71
     3
 72
    36
 73
    32
 74
     0
 42
0.0000000001
 43
0.0000000001
 40
0.0
 40
0.0
 40
0.0
 40
0.0
 40
0.125
 40
0.125
 40
0.125
 40
0.125
 40
0.25
 40
0.25
 40
0.25
 40
0.25
 40
0.375
 40
0.375
 40
0.375
 40
0.375
 40
0.5
 40
0.5
 40
0.5
 40
0.5
 40
0.625
 40
0.625
 40
0.625
 40
0.625
 40
0.75
 40
0.75
 40
0.75
 40
0.75
 40
0.875
 40
0.875
 40
0.875
 40
0.875
 40
1.0
 40
1.0
 40
1.0
 40
1.0
 10
-9.96786
 20
-14.16695
 30
0.0
 10
-9.97595
 20
-14.16695
 30
0.0
 10
-9.98221
 20
-14.16993
 30
0.0
 10
-9.98668
 20
-14.17591
 30
0.0
 10
-9.98668
 20
-14.17591
 30
0.0
 10
-9.99112
 20
-14.18188
 30
0.0
 10
-9.99336
 20
-14.19028
 30
0.0
 10
-9.99336
 20
-14.20112
 30
0.0
 10
-9.99336
 20
-14.20112
 30
0.0
 10
-9.99336
 20
-14.21194
 30
0.0
 10
-9.99112
 20
-14.22031
 30
0.0
 10
-9.98668
 20
-14.22628
 30
0.0
 10
-9.98668
 20
-14.22628
 30
0.0
 10
-9.98221
 20
-14.23226
 30
0.0
 10
-9.97595
 20
-14.23524
 30
0.0
 10
-9.96786
 20
-14.23524
 30
0.0
 10
-9.96786
 20
-14.23524
 30
0.0
 10
-9.95972
 20
-14.23524
 30
0.0
 10
-9.95345
 20
-14.23226
 30
0.0
 10
-9.94898
 20
-14.22628
 30
0.0
 10
-9.94898
 20
-14.22628
 30
0.0
 10
-9.94453
 20
-14.22031
 30
0.0
 10
-9.9423
 20
-14.21194
 30
0.0
 10
-9.9423
 20
-14.20112
 30
0.0
 10
-9.9423
 20
-14.20112
 30
0.0
 10
-9.9423
 20
-14.19028
 30
0.0
 10
-9.94453
 20
-14.18188
 30
0.0
 10
-9.94898
 20
-14.17591
 30
0.0
 10
-9.94898
 20
-14.17591
 30
0.0
 10
-9.95345
 20
-14.16993
 30
0.0
 10
-9.95972
 20
-14.16695
 30
0.0
 10
-9.96786
 20
-14.16695
 30
0.0
  0
SPLINE
  5
75
330
1F
100
AcDbEntity
  8
Layer 1
 62
   250
100
AcDbSpline
210
0.0
220
0.0
230
1.0
 70
    11
 71
     3
 72
    36
 73
    32
 74
     0
 42
0.0000000001
 43
0.0000000001
 40
0.0
 40
0.0
 40
0.0
 40
0.0
 40
0.125
 40
0.125
 40
0.125
 40
0.125
 40
0.25
 40
0.25
 40
0.25
 40
0.25
 40
0.375
 40
0.375
 40
0.375
 40
0.375
 40
0.5
 40
0.5
 40
0.5
 40
0.5
 40
0.625
 40
0.625
 40
0.625
 40
0.625
 40
0.75
 40
0.75
 40
0.75
 40
0.75
 40
0.875
 40
0.875
 40
0.875
 40
0.875
 40
1.0
 40
1.0
 40
1.0
 40
1.0
 10
-9.96786
 20
-14.14773
 30
0.0
 10
-9.95133
 20
-14.14773
 30
0.0
 10
-9.93837
 20
-14.15246
 30
0.0
 10
-9.92901
 20
-14.16194
 30
0.0
 10
-9.92901
 20
-14.16194
 30
0.0
 10
-9.91963
 20
-14.17139
 30
0.0
 10
-9.91495
 20
-14.18444
 30
0.0
 10
-9.91495
 20
-14.20112
 30
0.0
 10
-9.91495
 20
-14.20112
 30
0.0
 10
-9.91495
 20
-14.21775
 30
0.0
 10
-9.91963
 20
-14.2308
 30
0.0
 10
-9.92901
 20
-14.24025
 30
0.0
 10
-9.92901
 20
-14.24025
 30
0.0
 10
-9.93837
 20
-14.24973
 30
0.0
 10
-9.95133
 20
-14.25446
 30
0.0
 10
-9.96786
 20
-14.25446
 30
0.0
 10
-9.96786
 20
-14.25446
 30
0.0
 10
-9.98435
 20
-14.25446
 30
0.0
 10
-9.99728
 20
-14.24973
 30
0.0
 10
-10.00669
 20
-14.24025
 30
0.0
 10
-10.00669
 20
-14.24025
 30
0.0
 10
-10.01607
 20
-14.2308
 30
0.0
 10
-10.02078
 20
-14.21775
 30
0.0
 10
-10.02078
 20
-14.20112
 30
0.0
 10
-10.02078
 20
-14.20112
 30
0.0
 10
-10.02078
 20
-14.18444
 30
0.0
 10
-10.01607
 20
-14.17139
 30
0.0
 10
-10.00669
 20
-14.16194
 30
0.0
 10
-10.00669
 20
-14.16194
 30
0.0
 10
-9.99728
 20
-14.15246
 30
0.0
 10
-9.98435
 20
-14.14773
 30
0.0
 10
-9.96786
 20
-14.14773
 30
0.0
  0
SPLINE
  5
76
330
1F
100
AcDbEntity
  8
Layer 1
 62
   250
100
AcDbSpline
210
0.0
220
0.0
230
1.0
 70
    11
 71
     3
 72
    52
 73
    48
 74
     0
 42
0.0000000001
 43
0.0000000001
 40
0.0
 40
0.0
 40
0.0
 40
0.0
 40
0.0833333333333333
 40
0.0833333333333333
 40
0.0833333333333333
 40
0.0833333333333333
 40
0.1666666666666667
 40
0.1666666666666667
 40
0.1666666666666667
 40
0.1666666666666667
 40
0.25
 40
0.25
 40
0.25
 40
0.25
 40
0.3333333333333333
 40
0.3333333333333333
 40
0.3333333333333333
 40
0.3333333333333333
 40
0.4166666666666666
 40
0.4166666666666666
 40
0.4166666666666666
 40
0.4166666666666666
 40
0.4999999999999999
 40
0.4999999999999999
 40
0.4999999999999999
 40
0.4999999999999999
 40
0.5833333333333333
 40
0.5833333333333333
 40
0.5833333333333333
 40
0.5833333333333333
 40
0.6666666666666666
 40
0.6666666666666666
 40
0.6666666666666666
 40
0.6666666666666666
 40
0.75
 40
0.75
 40
0.75
 40
0.75
 40
0.8333333333333334
 40
0.8333333333333334
 40
0.8333333333333334
 40
0.8333333333333334
 40
0.9166666666666667
 40
0.9166666666666667
 40
0.9166666666666667
 40
0.9166666666666667
 40
1.0
 40
1.0
 40
1.0
 40
1.0
 10
-9.89488
 20
-14.14959
 30
0.0
 10
-9.89488
 20
-14.14959
 30
0.0
 10
-9.86835
 20
-14.14959
 30
0.0
 10
-9.86835
 20
-14.14959
 30
0.0
 10
-9.86835
 20
-14.14959
 30
0.0
 10
-9.86835
 20
-14.14959
 30
0.0
 10
-9.86835
 20
-14.1888
 30
0.0
 10
-9.86835
 20
-14.1888
 30
0.0
 10
-9.86835
 20
-14.1888
 30
0.0
 10
-9.86835
 20
-14.1888
 30
0.0
 10
-9.82922
 20
-14.1888
 30
0.0
 10
-9.82922
 20
-14.1888
 30
0.0
 10
-9.82922
 20
-14.1888
 30
0.0
 10
-9.82922
 20
-14.1888
 30
0.0
 10
-9.82922
 20
-14.14959
 30
0.0
 10
-9.82922
 20
-14.14959
 30
0.0
 10
-9.82922
 20
-14.14959
 30
0.0
 10
-9.82922
 20
-14.14959
 30
0.0
 10
-9.80269
 20
-14.14959
 30
0.0
 10
-9.80269
 20
-14.14959
 30
0.0
 10
-9.80269
 20
-14.14959
 30
0.0
 10
-9.80269
 20
-14.14959
 30
0.0
 10
-9.80269
 20
-14.25246
 30
0.0
 10
-9.80269
 20
-14.25246
 30
0.0
 10
-9.80269
 20
-14.25246
 30
0.0
 10
-9.80269
 20
-14.25246
 30
0.0
 10
-9.82922
 20
-14.25246
 30
0.0
 10
-9.82922
 20
-14.25246
 30
0.0
 10
-9.82922
 20
-14.25246
 30
0.0
 10
-9.82922
 20
-14.25246
 30
0.0
 10
-9.82922
 20
-14.20886
 30
0.0
 10
-9.82922
 20
-14.20886
 30
0.0
 10
-9.82922
 20
-14.20886
 30
0.0
 10
-9.82922
 20
-14.20886
 30
0.0
 10
-9.86835
 20
-14.20886
 30
0.0
 10
-9.86835
 20
-14.20886
 30
0.0
 10
-9.86835
 20
-14.20886
 30
0.0
 10
-9.86835
 20
-14.20886
 30
0.0
 10
-9.86835
 20
-14.25246
 30
0.0
 10
-9.86835
 20
-14.25246
 30
0.0
 10
-9.86835
 20
-14.25246
 30
0.0
 10
-9.86835
 20
-14.25246
 30
0.0
 10
-9.89488
 20
-14.25246
 30
0.0
 10
-9.89488
 20
-14.25246
 30
0.0
 10
-9.89488
 20
-14.25246
 30
0.0
 10
-9.89488
 20
-14.25246
 30
0.0
 10
-9.89488
 20
-14.14959
 30
0.0
 10
-9.89488
 20
-14.14959
 30
0.0
  0
SPLINE
  5
77
330
1F
100
AcDbEntity
  8
Layer 1
 62
   250
100
AcDbSpline
210
0.0
220
0.0
230
1.0
 70
    11
 71
     3
 72
    56
 73
    52
 74
     0
 42
0.0000000001
 43
0.0000000001
 40
0.0
 40
0.0
 40
0.0
 40
0.0
 40
0.0769230769230769
 40
0.0769230769230769
 40
0.0769230769230769
 40
0.0769230769230769
 40
0.1538461538461539
 40
0.1538461538461539
 40
0.1538461538461539
 40
0.1538461538461539
 40
0.2307692307692308
 40
0.2307692307692308
 40
0.2307692307692308
 40
0.2307692307692308
 40
0.3076923076923077
 40
0.3076923076923077
 40
0.3076923076923077
 40
0.3076923076923077
 40
0.3846153846153846
 40
0.3846153846153846
 40
0.3846153846153846
 40
0.3846153846153846
 40
0.4615384615384616
 40
0.4615384615384616
 40
0.4615384615384616
 40
0.4615384615384616
 40
0.5384615384615385
 40
0.5384615384615385
 40
0.5384615384615385
 40
0.5384615384615385
 40
0.6153846153846154
 40
0.6153846153846154
 40
0.6153846153846154
 40
0.6153846153846154
 40
0.6923076923076923
 40
0.6923076923076923
 40
0.6923076923076923
 40
0.6923076923076923
 40
0.7692307692307692
 40
0.7692307692307692
 40
0.7692307692307692
 40
0.7692307692307692
 40
0.846153846153846
 40
0.846153846153846
 40
0.846153846153846
 40
0.846153846153846
 40
0.9230769230769229
 40
0.9230769230769229
 40
0.9230769230769229
 40
0.9230769230769229
 40
1.0
 40
1.0
 40
1.0
 40
1.0
 10
-9.77679
 20
-14.14959
 30
0.0
 10
-9.77679
 20
-14.14959
 30
0.0
 10
-9.74304
 20
-14.14959
 30
0.0
 10
-9.74304
 20
-14.14959
 30
0.0
 10
-9.74304
 20
-14.14959
 30
0.0
 10
-9.74304
 20
-14.14959
 30
0.0
 10
-9.71959
 20
-14.20465
 30
0.0
 10
-9.71959
 20
-14.20465
 30
0.0
 10
-9.71959
 20
-14.20465
 30
0.0
 10
-9.71959
 20
-14.20465
 30
0.0
 10
-9.69603
 20
-14.14959
 30
0.0
 10
-9.69603
 20
-14.14959
 30
0.0
 10
-9.69603
 20
-14.14959
 30
0.0
 10
-9.69603
 20
-14.14959
 30
0.0
 10
-9.66235
 20
-14.14959
 30
0.0
 10
-9.66235
 20
-14.14959
 30
0.0
 10
-9.66235
 20
-14.14959
 30
0.0
 10
-9.66235
 20
-14.14959
 30
0.0
 10
-9.66235
 20
-14.25246
 30
0.0
 10
-9.66235
 20
-14.25246
 30
0.0
 10
-9.66235
 20
-14.25246
 30
0.0
 10
-9.66235
 20
-14.25246
 30
0.0
 10
-9.68742
 20
-14.25246
 30
0.0
 10
-9.68742
 20
-14.25246
 30
0.0
 10
-9.68742
 20
-14.25246
 30
0.0
 10
-9.68742
 20
-14.25246
 30
0.0
 10
-9.68742
 20
-14.17722
 30
0.0
 10
-9.68742
 20
-14.17722
 30
0.0
 10
-9.68742
 20
-14.17722
 30
0.0
 10
-9.68742
 20
-14.17722
 30
0.0
 10
-9.71113
 20
-14.23268
 30
0.0
 10
-9.71113
 20
-14.23268
 30
0.0
 10
-9.71113
 20
-14.23268
 30
0.0
 10
-9.71113
 20
-14.23268
 30
0.0
 10
-9.72794
 20
-14.23268
 30
0.0
 10
-9.72794
 20
-14.23268
 30
0.0
 10
-9.72794
 20
-14.23268
 30
0.0
 10
-9.72794
 20
-14.23268
 30
0.0
 10
-9.75165
 20
-14.17722
 30
0.0
 10
-9.75165
 20
-14.17722
 30
0.0
 10
-9.75165
 20
-14.17722
 30
0.0
 10
-9.75165
 20
-14.17722
 30
0.0
 10
-9.75165
 20
-14.25246
 30
0.0
 10
-9.75165
 20
-14.25246
 30
0.0
 10
-9.75165
 20
-14.25246
 30
0.0
 10
-9.75165
 20
-14.25246
 30
0.0
 10
-9.77679
 20
-14.25246
 30
0.0
 10
-9.77679
 20
-14.25246
 30
0.0
 10
-9.77679
 20
-14.25246
 30
0.0
 10
-9.77679
 20
-14.25246
 30
0.0
 10
-9.77679
 20
-14.14959
 30
0.0
 10
-9.77679
 20
-14.14959
 30
0.0
  0
SPLINE
  5
78
330
1F
100
AcDbEntity
  8
Layer 1
 62
   250
100
AcDbSpline
210
0.0
220
0.0
230
1.0
 70
    11
 71
     3
 72
    44
 73
    40
 74
     0
 42
0.0000000001
 43
0.0000000001
 40
0.0
 40
0.0
 40
0.0
 40
0.0
 40
0.1
 40
0.1
 40
0.1
 40
0.1
 40
0.2
 40
0.2
 40
0.2
 40
0.2
 40
0.3
 40
0.3
 40
0.3
 40
0.3
 40
0.4
 40
0.4
 40
0.4
 40
0.4
 40
0.5
 40
0.5
 40
0.5
 40
0.5
 40
0.6
 40
0.6
 40
0.6
 40
0.6
 40
0.7
 40
0.7
 40
0.7
 40
0.7
 40
0.7999999999999999
 40
0.7999999999999999
 40
0.7999999999999999
 40
0.7999999999999999
 40
0.8999999999999999
 40
0.8999999999999999
 40
0.8999999999999999
 40
0.8999999999999999
 40
1.0
 40
1.0
 40
1.0
 40
1.0
 10
-11.05438
 20
-14.31384
 30
0.0
 10
-11.05438
 20
-14.31384
 30
0.0
 10
-10.98279
 20
-14.31384
 30
0.0
 10
-10.98279
 20
-14.31384
 30
0.0
 10
-10.98279
 20
-14.31384
 30
0.0
 10
-10.98279
 20
-14.31384
 30
0.0
 10
-10.98279
 20
-14.3339
 30
0.0
 10
-10.98279
 20
-14.3339
 30
0.0
 10
-10.98279
 20
-14.3339
 30
0.0
 10
-10.98279
 20
-14.3339
 30
0.0
 10
-11.02785
 20
-14.3339
 30
0.0
 10
-11.02785
 20
-14.3339
 30
0.0
 10
-11.02785
 20
-14.3339
 30
0.0
 10
-11.02785
 20
-14.3339
 30
0.0
 10
-11.02785
 20
-14.35305
 30
0.0
 10
-11.02785
 20
-14.35305
 30
0.0
 10
-11.02785
 20
-14.35305
 30
0.0
 10
-11.02785
 20
-14.35305
 30
0.0
 10
-10.98547
 20
-14.35305
 30
0.0
 10
-10.98547
 20
-14.35305
 30
0.0
 10
-10.98547
 20
-14.35305
 30
0.0
 10
-10.98547
 20
-14.35305
 30
0.0
 10
-10.98547
 20
-14.37311
 30
0.0
 10
-10.98547
 20
-14.37311
 30
0.0
 10
-10.98547
 20
-14.37311
 30
0.0
 10
-10.98547
 20
-14.37311
 30
0.0
 10
-11.02785
 20
-14.37311
 30
0.0
 10
-11.02785
 20
-14.37311
 30
0.0
 10
-11.02785
 20
-14.37311
 30
0.0
 10
-11.02785
 20
-14.37311
 30
0.0
 10
-11.02785
 20
-14.41671
 30
0.0
 10
-11.02785
 20
-14.41671
 30
0.0
 10
-11.02785
 20
-14.41671
 30
0.0
 10
-11.02785
 20
-14.41671
 30
0.0
 10
-11.05438
 20
-14.41671
 30
0.0
 10
-11.05438
 20
-14.41671
 30
0.0
 10
-11.05438
 20
-14.41671
 30
0.0
 10
-11.05438
 20
-14.41671
 30
0.0
 10
-11.05438
 20
-14.31384
 30
0.0
 10
-11.05438
 20
-14.31384
 30
0.0
  0
SPLINE
  5
79
330
1F
100
AcDbEntity
  8
Layer 1
 62
   250
100
AcDbSpline
210
0.0
220
0.0
230
1.0
 70
    11
 71
     3
 72
    52
 73
    48
 74
     0
 42
0.0000000001
 43
0.0000000001
 40
0.0
 40
0.0
 40
0.0
 40
0.0
 40
0.0833333333333333
 40
0.0833333333333333
 40
0.0833333333333333
 40
0.0833333333333333
 40
0.1666666666666667
 40
0.1666666666666667
 40
0.1666666666666667
 40
0.1666666666666667
 40
0.25
 40
0.25
 40
0.25
 40
0.25
 40
0.3333333333333333
 40
0.3333333333333333
 40
0.3333333333333333
 40
0.3333333333333333
 40
0.4166666666666666
 40
0.4166666666666666
 40
0.4166666666666666
 40
0.4166666666666666
 40
0.4999999999999999
 40
0.4999999999999999
 40
0.4999999999999999
 40
0.4999999999999999
 40
0.5833333333333333
 40
0.5833333333333333
 40
0.5833333333333333
 40
0.5833333333333333
 40
0.6666666666666666
 40
0.6666666666666666
 40
0.6666666666666666
 40
0.6666666666666666
 40
0.75
 40
0.75
 40
0.75
 40
0.75
 40
0.8333333333333334
 40
0.8333333333333334
 40
0.8333333333333334
 40
0.8333333333333334
 40
0.9166666666666667
 40
0.9166666666666667
 40
0.9166666666666667
 40
0.9166666666666667
 40
1.0
 40
1.0
 40
1.0
 40
1.0
 10
-10.95798
 20
-14.31384
 30
0.0
 10
-10.95798
 20
-14.31384
 30
0.0
 10
-10.88639
 20
-14.31384
 30
0.0
 10
-10.88639
 20
-14.31384
 30
0.0
 10
-10.88639
 20
-14.31384
 30
0.0
 10
-10.88639
 20
-14.31384
 30
0.0
 10
-10.88639
 20
-14.3339
 30
0.0
 10
-10.88639
 20
-14.3339
 30
0.0
 10
-10.88639
 20
-14.3339
 30
0.0
 10
-10.88639
 20
-14.3339
 30
0.0
 10
-10.93145
 20
-14.3339
 30
0.0
 10
-10.93145
 20
-14.3339
 30
0.0
 10
-10.93145
 20
-14.3339
 30
0.0
 10
-10.93145
 20
-14.3339
 30
0.0
 10
-10.93145
 20
-14.35305
 30
0.0
 10
-10.93145
 20
-14.35305
 30
0.0
 10
-10.93145
 20
-14.35305
 30
0.0
 10
-10.93145
 20
-14.35305
 30
0.0
 10
-10.8891
 20
-14.35305
 30
0.0
 10
-10.8891
 20
-14.35305
 30
0.0
 10
-10.8891
 20
-14.35305
 30
0.0
 10
-10.8891
 20
-14.35305
 30
0.0
 10
-10.8891
 20
-14.37311
 30
0.0
 10
-10.8891
 20
-14.37311
 30
0.0
 10
-10.8891
 20
-14.37311
 30
0.0
 10
-10.8891
 20
-14.37311
 30
0.0
 10
-10.93145
 20
-14.37311
 30
0.0
 10
-10.93145
 20
-14.37311
 30
0.0
 10
-10.93145
 20
-14.37311
 30
0.0
 10
-10.93145
 20
-14.37311
 30
0.0
 10
-10.93145
 20
-14.39665
 30
0.0
 10
-10.93145
 20
-14.39665
 30
0.0
 10
-10.93145
 20
-14.39665
 30
0.0
 10
-10.93145
 20
-14.39665
 30
0.0
 10
-10.88489
 20
-14.39665
 30
0.0
 10
-10.88489
 20
-14.39665
 30
0.0
 10
-10.88489
 20
-14.39665
 30
0.0
 10
-10.88489
 20
-14.39665
 30
0.0
 10
-10.88489
 20
-14.41671
 30
0.0
 10
-10.88489
 20
-14.41671
 30
0.0
 10
-10.88489
 20
-14.41671
 30
0.0
 10
-10.88489
 20
-14.41671
 30
0.0
 10
-10.95798
 20
-14.41671
 30
0.0
 10
-10.95798
 20
-14.41671
 30
0.0
 10
-10.95798
 20
-14.41671
 30
0.0
 10
-10.95798
 20
-14.41671
 30
0.0
 10
-10.95798
 20
-14.31384
 30
0.0
 10
-10.95798
 20
-14.31384
 30
0.0
  0
SPLINE
  5
7A
330
1F
100
AcDbEntity
  8
Layer 1
 62
   250
100
AcDbSpline
210
0.0
220
0.0
230
1.0
 70
    11
 71
     3
 72
    32
 73
    28
 74
     0
 42
0.0000000001
 43
0.0000000001
 40
0.0
 40
0.0
 40
0.0
 40
0.0
 40
0.1428571428571428
 40
0.1428571428571428
 40
0.1428571428571428
 40
0.1428571428571428
 40
0.2857142857142857
 40
0.2857142857142857
 40
0.2857142857142857
 40
0.2857142857142857
 40
0.4285714285714285
 40
0.4285714285714285
 40
0.4285714285714285
 40
0.4285714285714285
 40
0.5714285714285714
 40
0.5714285714285714
 40
0.5714285714285714
 40
0.5714285714285714
 40
0.7142857142857142
 40
0.7142857142857142
 40
0.7142857142857142
 40
0.7142857142857142
 40
0.857142857142857
 40
0.857142857142857
 40
0.857142857142857
 40
0.857142857142857
 40
1.0
 40
1.0
 40
1.0
 40
1.0
 10
-10.82388
 20
-14.35947
 30
0.0
 10
-10.81833
 20
-14.35947
 30
0.0
 10
-10.81433
 20
-14.35843
 30
0.0
 10
-10.81193
 20
-14.35636
 30
0.0
 10
-10.81193
 20
-14.35636
 30
0.0
 10
-10.80951
 20
-14.35429
 30
0.0
 10
-10.80831
 20
-14.35088
 30
0.0
 10
-10.80831
 20
-14.34615
 30
0.0
 10
-10.80831
 20
-14.34615
 30
0.0
 10
-10.80831
 20
-14.34147
 30
0.0
 10
-10.80951
 20
-14.33811
 30
0.0
 10
-10.81193
 20
-14.33609
 30
0.0
 10
-10.81193
 20
-14.33609
 30
0.0
 10
-10.81433
 20
-14.33407
 30
0.0
 10
-10.81833
 20
-14.33306
 30
0.0
 10
-10.82388
 20
-14.33306
 30
0.0
 10
-10.82388
 20
-14.33306
 30
0.0
 10
-10.82388
 20
-14.33306
 30
0.0
 10
-10.83505
 20
-14.33306
 30
0.0
 10
-10.83505
 20
-14.33306
 30
0.0
 10
-10.83505
 20
-14.33306
 30
0.0
 10
-10.83505
 20
-14.33306
 30
0.0
 10
-10.83505
 20
-14.35947
 30
0.0
 10
-10.83505
 20
-14.35947
 30
0.0
 10
-10.83505
 20
-14.35947
 30
0.0
 10
-10.83505
 20
-14.35947
 30
0.0
 10
-10.82388
 20
-14.35947
 30
0.0
 10
-10.82388
 20
-14.35947
 30
0.0
  0
SPLINE
  5
7B
330
1F
100
AcDbEntity
  8
Layer 1
 62
   250
100
AcDbSpline
210
0.0
220
0.0
230
1.0
 70
    11
 71
     3
 72
    68
 73
    64
 74
     0
 42
0.0000000001
 43
0.0000000001
 40
0.0
 40
0.0
 40
0.0
 40
0.0
 40
0.0625
 40
0.0625
 40
0.0625
 40
0.0625
 40
0.125
 40
0.125
 40
0.125
 40
0.125
 40
0.1875
 40
0.1875
 40
0.1875
 40
0.1875
 40
0.25
 40
0.25
 40
0.25
 40
0.25
 40
0.3125
 40
0.3125
 40
0.3125
 40
0.3125
 40
0.375
 40
0.375
 40
0.375
 40
0.375
 40
0.4375
 40
0.4375
 40
0.4375
 40
0.4375
 40
0.5
 40
0.5
 40
0.5
 40
0.5
 40
0.5625
 40
0.5625
 40
0.5625
 40
0.5625
 40
0.625
 40
0.625
 40
0.625
 40
0.625
 40
0.6875
 40
0.6875
 40
0.6875
 40
0.6875
 40
0.75
 40
0.75
 40
0.75
 40
0.75
 40
0.8125
 40
0.8125
 40
0.8125
 40
0.8125
 40
0.875
 40
0.875
 40
0.875
 40
0.875
 40
0.9375
 40
0.9375
 40
0.9375
 40
0.9375
 40
1.0
 40
1.0
 40
1.0
 40
1.0
 10
-10.83505
 20
-14.37779
 30
0.0
 10
-10.83505
 20
-14.37779
 30
0.0
 10
-10.83505
 20
-14.41671
 30
0.0
 10
-10.83505
 20
-14.41671
 30
0.0
 10
-10.83505
 20
-14.41671
 30
0.0
 10
-10.83505
 20
-14.41671
 30
0.0
 10
-10.86158
 20
-14.41671
 30
0.0
 10
-10.86158
 20
-14.41671
 30
0.0
 10
-10.86158
 20
-14.41671
 30
0.0
 10
-10.86158
 20
-14.41671
 30
0.0
 10
-10.86158
 20
-14.31384
 30
0.0
 10
-10.86158
 20
-14.31384
 30
0.0
 10
-10.86158
 20
-14.31384
 30
0.0
 10
-10.86158
 20
-14.31384
 30
0.0
 10
-10.82106
 20
-14.31384
 30
0.0
 10
-10.82106
 20
-14.31384
 30
0.0
 10
-10.82106
 20
-14.31384
 30
0.0
 10
-10.80751
 20
-14.31384
 30
0.0
 10
-10.79756
 20
-14.31612
 30
0.0
 10
-10.79126
 20
-14.32066
 30
0.0
 10
-10.79126
 20
-14.32066
 30
0.0
 10
-10.78494
 20
-14.3252
 30
0.0
 10
-10.78178
 20
-14.3324
 30
0.0
 10
-10.78178
 20
-14.34223
 30
0.0
 10
-10.78178
 20
-14.34223
 30
0.0
 10
-10.78178
 20
-14.34902
 30
0.0
 10
-10.78343
 20
-14.35462
 30
0.0
 10
-10.7867
 20
-14.35897
 30
0.0
 10
-10.7867
 20
-14.35897
 30
0.0
 10
-10.78999
 20
-14.36335
 30
0.0
 10
-10.79495
 20
-14.36657
 30
0.0
 10
-10.80156
 20
-14.36862
 30
0.0
 10
-10.80156
 20
-14.36862
 30
0.0
 10
-10.79794
 20
-14.36946
 30
0.0
 10
-10.79467
 20
-14.37132
 30
0.0
 10
-10.7918
 20
-14.37424
 30
0.0
 10
-10.7918
 20
-14.37424
 30
0.0
 10
-10.78893
 20
-14.37715
 30
0.0
 10
-10.78604
 20
-14.38157
 30
0.0
 10
-10.7831
 20
-14.3875
 30
0.0
 10
-10.7831
 20
-14.3875
 30
0.0
 10
-10.7831
 20
-14.3875
 30
0.0
 10
-10.76868
 20
-14.41671
 30
0.0
 10
-10.76868
 20
-14.41671
 30
0.0
 10
-10.76868
 20
-14.41671
 30
0.0
 10
-10.76868
 20
-14.41671
 30
0.0
 10
-10.79695
 20
-14.41671
 30
0.0
 10
-10.79695
 20
-14.41671
 30
0.0
 10
-10.79695
 20
-14.41671
 30
0.0
 10
-10.79695
 20
-14.41671
 30
0.0
 10
-10.80949
 20
-14.39115
 30
0.0
 10
-10.80949
 20
-14.39115
 30
0.0
 10
-10.80949
 20
-14.39115
 30
0.0
 10
-10.812
 20
-14.38602
 30
0.0
 10
-10.81457
 20
-14.38249
 30
0.0
 10
-10.81718
 20
-14.38061
 30
0.0
 10
-10.81718
 20
-14.38061
 30
0.0
 10
-10.81977
 20
-14.37873
 30
0.0
 10
-10.82322
 20
-14.37779
 30
0.0
 10
-10.82755
 20
-14.37779
 30
0.0
 10
-10.82755
 20
-14.37779
 30
0.0
 10
-10.82755
 20
-14.37779
 30
0.0
 10
-10.83505
 20
-14.37779
 30
0.0
 10
-10.83505
 20
-14.37779
 30
0.0
  0
SPLINE
  5
7C
330
1F
100
AcDbEntity
  8
Layer 1
 62
   250
100
AcDbSpline
210
0.0
220
0.0
230
1.0
 70
    11
 71
     3
 72
    32
 73
    28
 74
     0
 42
0.0000000001
 43
0.0000000001
 40
0.0
 40
0.0
 40
0.0
 40
0.0
 40
0.1428571428571428
 40
0.1428571428571428
 40
0.1428571428571428
 40
0.1428571428571428
 40
0.2857142857142857
 40
0.2857142857142857
 40
0.2857142857142857
 40
0.2857142857142857
 40
0.4285714285714285
 40
0.4285714285714285
 40
0.4285714285714285
 40
0.4285714285714285
 40
0.5714285714285714
 40
0.5714285714285714
 40
0.5714285714285714
 40
0.5714285714285714
 40
0.7142857142857142
 40
0.7142857142857142
 40
0.7142857142857142
 40
0.7142857142857142
 40
0.857142857142857
 40
0.857142857142857
 40
0.857142857142857
 40
0.857142857142857
 40
1.0
 40
1.0
 40
1.0
 40
1.0
 10
-10.71523
 20
-14.35947
 30
0.0
 10
-10.70968
 20
-14.35947
 30
0.0
 10
-10.70568
 20
-14.35843
 30
0.0
 10
-10.70328
 20
-14.35636
 30
0.0
 10
-10.70328
 20
-14.35636
 30
0.0
 10
-10.70086
 20
-14.35429
 30
0.0
 10
-10.69966
 20
-14.35088
 30
0.0
 10
-10.69966
 20
-14.34615
 30
0.0
 10
-10.69966
 20
-14.34615
 30
0.0
 10
-10.69966
 20
-14.34147
 30
0.0
 10
-10.70086
 20
-14.33811
 30
0.0
 10
-10.70328
 20
-14.33609
 30
0.0
 10
-10.70328
 20
-14.33609
 30
0.0
 10
-10.70568
 20
-14.33407
 30
0.0
 10
-10.70968
 20
-14.33306
 30
0.0
 10
-10.71523
 20
-14.33306
 30
0.0
 10
-10.71523
 20
-14.33306
 30
0.0
 10
-10.71523
 20
-14.33306
 30
0.0
 10
-10.7264
 20
-14.33306
 30
0.0
 10
-10.7264
 20
-14.33306
 30
0.0
 10
-10.7264
 20
-14.33306
 30
0.0
 10
-10.7264
 20
-14.33306
 30
0.0
 10
-10.7264
 20
-14.35947
 30
0.0
 10
-10.7264
 20
-14.35947
 30
0.0
 10
-10.7264
 20
-14.35947
 30
0.0
 10
-10.7264
 20
-14.35947
 30
0.0
 10
-10.71523
 20
-14.35947
 30
0.0
 10
-10.71523
 20
-14.35947
 30
0.0
  0
SPLINE
  5
7D
330
1F
100
AcDbEntity
  8
Layer 1
 62
   250
100
AcDbSpline
210
0.0
220
0.0
230
1.0
 70
    11
 71
     3
 72
    68
 73
    64
 74
     0
 42
0.0000000001
 43
0.0000000001
 40
0.0
 40
0.0
 40
0.0
 40
0.0
 40
0.0625
 40
0.0625
 40
0.0625
 40
0.0625
 40
0.125
 40
0.125
 40
0.125
 40
0.125
 40
0.1875
 40
0.1875
 40
0.1875
 40
0.1875
 40
0.25
 40
0.25
 40
0.25
 40
0.25
 40
0.3125
 40
0.3125
 40
0.3125
 40
0.3125
 40
0.375
 40
0.375
 40
0.375
 40
0.375
 40
0.4375
 40
0.4375
 40
0.4375
 40
0.4375
 40
0.5
 40
0.5
 40
0.5
 40
0.5
 40
0.5625
 40
0.5625
 40
0.5625
 40
0.5625
 40
0.625
 40
0.625
 40
0.625
 40
0.625
 40
0.6875
 40
0.6875
 40
0.6875
 40
0.6875
 40
0.75
 40
0.75
 40
0.75
 40
0.75
 40
0.8125
 40
0.8125
 40
0.8125
 40
0.8125
 40
0.875
 40
0.875
 40
0.875
 40
0.875
 40
0.9375
 40
0.9375
 40
0.9375
 40
0.9375
 40
1.0
 40
1.0
 40
1.0
 40
1.0
 10
-10.7264
 20
-14.37779
 30
0.0
 10
-10.7264
 20
-14.37779
 30
0.0
 10
-10.7264
 20
-14.41671
 30
0.0
 10
-10.7264
 20
-14.41671
 30
0.0
 10
-10.7264
 20
-14.41671
 30
0.0
 10
-10.7264
 20
-14.41671
 30
0.0
 10
-10.75293
 20
-14.41671
 30
0.0
 10
-10.75293
 20
-14.41671
 30
0.0
 10
-10.75293
 20
-14.41671
 30
0.0
 10
-10.75293
 20
-14.41671
 30
0.0
 10
-10.75293
 20
-14.31384
 30
0.0
 10
-10.75293
 20
-14.31384
 30
0.0
 10
-10.75293
 20
-14.31384
 30
0.0
 10
-10.75293
 20
-14.31384
 30
0.0
 10
-10.71241
 20
-14.31384
 30
0.0
 10
-10.71241
 20
-14.31384
 30
0.0
 10
-10.71241
 20
-14.31384
 30
0.0
 10
-10.69886
 20
-14.31384
 30
0.0
 10
-10.68891
 20
-14.31612
 30
0.0
 10
-10.68261
 20
-14.32066
 30
0.0
 10
-10.68261
 20
-14.32066
 30
0.0
 10
-10.67629
 20
-14.3252
 30
0.0
 10
-10.67313
 20
-14.3324
 30
0.0
 10
-10.67313
 20
-14.34223
 30
0.0
 10
-10.67313
 20
-14.34223
 30
0.0
 10
-10.67313
 20
-14.34902
 30
0.0
 10
-10.67478
 20
-14.35462
 30
0.0
 10
-10.67805
 20
-14.35897
 30
0.0
 10
-10.67805
 20
-14.35897
 30
0.0
 10
-10.68134
 20
-14.36335
 30
0.0
 10
-10.6863
 20
-14.36657
 30
0.0
 10
-10.69291
 20
-14.36862
 30
0.0
 10
-10.69291
 20
-14.36862
 30
0.0
 10
-10.68929
 20
-14.36946
 30
0.0
 10
-10.68602
 20
-14.37132
 30
0.0
 10
-10.68315
 20
-14.37424
 30
0.0
 10
-10.68315
 20
-14.37424
 30
0.0
 10
-10.68028
 20
-14.37715
 30
0.0
 10
-10.67739
 20
-14.38157
 30
0.0
 10
-10.67445
 20
-14.3875
 30
0.0
 10
-10.67445
 20
-14.3875
 30
0.0
 10
-10.67445
 20
-14.3875
 30
0.0
 10
-10.66003
 20
-14.41671
 30
0.0
 10
-10.66003
 20
-14.41671
 30
0.0
 10
-10.66003
 20
-14.41671
 30
0.0
 10
-10.66003
 20
-14.41671
 30
0.0
 10
-10.6883
 20
-14.41671
 30
0.0
 10
-10.6883
 20
-14.41671
 30
0.0
 10
-10.6883
 20
-14.41671
 30
0.0
 10
-10.6883
 20
-14.41671
 30
0.0
 10
-10.70084
 20
-14.39115
 30
0.0
 10
-10.70084
 20
-14.39115
 30
0.0
 10
-10.70084
 20
-14.39115
 30
0.0
 10
-10.70335
 20
-14.38602
 30
0.0
 10
-10.70592
 20
-14.38249
 30
0.0
 10
-10.70853
 20
-14.38061
 30
0.0
 10
-10.70853
 20
-14.38061
 30
0.0
 10
-10.71112
 20
-14.37873
 30
0.0
 10
-10.71457
 20
-14.37779
 30
0.0
 10
-10.7189
 20
-14.37779
 30
0.0
 10
-10.7189
 20
-14.37779
 30
0.0
 10
-10.7189
 20
-14.37779
 30
0.0
 10
-10.7264
 20
-14.37779
 30
0.0
 10
-10.7264
 20
-14.37779
 30
0.0
  0
SPLINE
  5
7E
330
1F
100
AcDbEntity
  8
Layer 1
 62
   250
100
AcDbSpline
210
0.0
220
0.0
230
1.0
 70
    11
 71
     3
 72
    20
 73
    16
 74
     0
 42
0.0000000001
 43
0.0000000001
 40
0.0
 40
0.0
 40
0.0
 40
0.0
 40
0.25
 40
0.25
 40
0.25
 40
0.25
 40
0.5
 40
0.5
 40
0.5
 40
0.5
 40
0.75
 40
0.75
 40
0.75
 40
0.75
 40
1.0
 40
1.0
 40
1.0
 40
1.0
 10
-10.64428
 20
-14.31384
 30
0.0
 10
-10.64428
 20
-14.31384
 30
0.0
 10
-10.61775
 20
-14.31384
 30
0.0
 10
-10.61775
 20
-14.31384
 30
0.0
 10
-10.61775
 20
-14.31384
 30
0.0
 10
-10.61775
 20
-14.31384
 30
0.0
 10
-10.61775
 20
-14.41671
 30
0.0
 10
-10.61775
 20
-14.41671
 30
0.0
 10
-10.61775
 20
-14.41671
 30
0.0
 10
-10.61775
 20
-14.41671
 30
0.0
 10
-10.64428
 20
-14.41671
 30
0.0
 10
-10.64428
 20
-14.41671
 30
0.0
 10
-10.64428
 20
-14.41671
 30
0.0
 10
-10.64428
 20
-14.41671
 30
0.0
 10
-10.64428
 20
-14.31384
 30
0.0
 10
-10.64428
 20
-14.31384
 30
0.0
  0
SPLINE
  5
7F
330
1F
100
AcDbEntity
  8
Layer 1
 62
   250
100
AcDbSpline
210
0.0
220
0.0
230
1.0
 70
    11
 71
     3
 72
    36
 73
    32
 74
     0
 42
0.0000000001
 43
0.0000000001
 40
0.0
 40
0.0
 40
0.0
 40
0.0
 40
0.125
 40
0.125
 40
0.125
 40
0.125
 40
0.25
 40
0.25
 40
0.25
 40
0.25
 40
0.375
 40
0.375
 40
0.375
 40
0.375
 40
0.5
 40
0.5
 40
0.5
 40
0.5
 40
0.625
 40
0.625
 40
0.625
 40
0.625
 40
0.75
 40
0.75
 40
0.75
 40
0.75
 40
0.875
 40
0.875
 40
0.875
 40
0.875
 40
1.0
 40
1.0
 40
1.0
 40
1.0
 10
-10.60407
 20
-14.31384
 30
0.0
 10
-10.60407
 20
-14.31384
 30
0.0
 10
-10.50927
 20
-14.31384
 30
0.0
 10
-10.50927
 20
-14.31384
 30
0.0
 10
-10.50927
 20
-14.31384
 30
0.0
 10
-10.50927
 20
-14.31384
 30
0.0
 10
-10.50927
 20
-14.3339
 30
0.0
 10
-10.50927
 20
-14.3339
 30
0.0
 10
-10.50927
 20
-14.3339
 30
0.0
 10
-10.50927
 20
-14.3339
 30
0.0
 10
-10.54337
 20
-14.3339
 30
0.0
 10
-10.54337
 20
-14.3339
 30
0.0
 10
-10.54337
 20
-14.3339
 30
0.0
 10
-10.54337
 20
-14.3339
 30
0.0
 10
-10.54337
 20
-14.41671
 30
0.0
 10
-10.54337
 20
-14.41671
 30
0.0
 10
-10.54337
 20
-14.41671
 30
0.0
 10
-10.54337
 20
-14.41671
 30
0.0
 10
-10.5699
 20
-14.41671
 30
0.0
 10
-10.5699
 20
-14.41671
 30
0.0
 10
-10.5699
 20
-14.41671
 30
0.0
 10
-10.5699
 20
-14.41671
 30
0.0
 10
-10.5699
 20
-14.3339
 30
0.0
 10
-10.5699
 20
-14.3339
 30
0.0
 10
-10.5699
 20
-14.3339
 30
0.0
 10
-10.5699
 20
-14.3339
 30
0.0
 10
-10.60407
 20
-14.3339
 30
0.0
 10
-10.60407
 20
-14.3339
 30
0.0
 10
-10.60407
 20
-14.3339
 30
0.0
 10
-10.60407
 20
-14.3339
 30
0.0
 10
-10.60407
 20
-14.31384
 30
0.0
 10
-10.60407
 20
-14.31384
 30
0.0
  0
SPLINE
  5
80
330
1F
100
AcDbEntity
  8
Layer 1
 62
   250
100
AcDbSpline
210
0.0
220
0.0
230
1.0
 70
    11
 71
     3
 72
    52
 73
    48
 74
     0
 42
0.0000000001
 43
0.0000000001
 40
0.0
 40
0.0
 40
0.0
 40
0.0
 40
0.0833333333333333
 40
0.0833333333333333
 40
0.0833333333333333
 40
0.0833333333333333
 40
0.1666666666666667
 40
0.1666666666666667
 40
0.1666666666666667
 40
0.1666666666666667
 40
0.25
 40
0.25
 40
0.25
 40
0.25
 40
0.3333333333333333
 40
0.3333333333333333
 40
0.3333333333333333
 40
0.3333333333333333
 40
0.4166666666666666
 40
0.4166666666666666
 40
0.4166666666666666
 40
0.4166666666666666
 40
0.4999999999999999
 40
0.4999999999999999
 40
0.4999999999999999
 40
0.4999999999999999
 40
0.5833333333333333
 40
0.5833333333333333
 40
0.5833333333333333
 40
0.5833333333333333
 40
0.6666666666666666
 40
0.6666666666666666
 40
0.6666666666666666
 40
0.6666666666666666
 40
0.75
 40
0.75
 40
0.75
 40
0.75
 40
0.8333333333333334
 40
0.8333333333333334
 40
0.8333333333333334
 40
0.8333333333333334
 40
0.9166666666666667
 40
0.9166666666666667
 40
0.9166666666666667
 40
0.9166666666666667
 40
1.0
 40
1.0
 40
1.0
 40
1.0
 10
-10.49553
 20
-14.31384
 30
0.0
 10
-10.49553
 20
-14.31384
 30
0.0
 10
-10.42394
 20
-14.31384
 30
0.0
 10
-10.42394
 20
-14.31384
 30
0.0
 10
-10.42394
 20
-14.31384
 30
0.0
 10
-10.42394
 20
-14.31384
 30
0.0
 10
-10.42394
 20
-14.3339
 30
0.0
 10
-10.42394
 20
-14.3339
 30
0.0
 10
-10.42394
 20
-14.3339
 30
0.0
 10
-10.42394
 20
-14.3339
 30
0.0
 10
-10.469
 20
-14.3339
 30
0.0
 10
-10.469
 20
-14.3339
 30
0.0
 10
-10.469
 20
-14.3339
 30
0.0
 10
-10.469
 20
-14.3339
 30
0.0
 10
-10.469
 20
-14.35305
 30
0.0
 10
-10.469
 20
-14.35305
 30
0.0
 10
-10.469
 20
-14.35305
 30
0.0
 10
-10.469
 20
-14.35305
 30
0.0
 10
-10.42665
 20
-14.35305
 30
0.0
 10
-10.42665
 20
-14.35305
 30
0.0
 10
-10.42665
 20
-14.35305
 30
0.0
 10
-10.42665
 20
-14.35305
 30
0.0
 10
-10.42665
 20
-14.37311
 30
0.0
 10
-10.42665
 20
-14.37311
 30
0.0
 10
-10.42665
 20
-14.37311
 30
0.0
 10
-10.42665
 20
-14.37311
 30
0.0
 10
-10.469
 20
-14.37311
 30
0.0
 10
-10.469
 20
-14.37311
 30
0.0
 10
-10.469
 20
-14.37311
 30
0.0
 10
-10.469
 20
-14.37311
 30
0.0
 10
-10.469
 20
-14.39665
 30
0.0
 10
-10.469
 20
-14.39665
 30
0.0
 10
-10.469
 20
-14.39665
 30
0.0
 10
-10.469
 20
-14.39665
 30
0.0
 10
-10.42244
 20
-14.39665
 30
0.0
 10
-10.42244
 20
-14.39665
 30
0.0
 10
-10.42244
 20
-14.39665
 30
0.0
 10
-10.42244
 20
-14.39665
 30
0.0
 10
-10.42244
 20
-14.41671
 30
0.0
 10
-10.42244
 20
-14.41671
 30
0.0
 10
-10.42244
 20
-14.41671
 30
0.0
 10
-10.42244
 20
-14.41671
 30
0.0
 10
-10.49553
 20
-14.41671
 30
0.0
 10
-10.49553
 20
-14.41671
 30
0.0
 10
-10.49553
 20
-14.41671
 30
0.0
 10
-10.49553
 20
-14.41671
 30
0.0
 10
-10.49553
 20
-14.31384
 30
0.0
 10
-10.49553
 20
-14.31384
 30
0.0
  0
SPLINE
  5
81
330
1F
100
AcDbEntity
  8
Layer 1
 62
   250
100
AcDbSpline
210
0.0
220
0.0
230
1.0
 70
    11
 71
     3
 72
    32
 73
    28
 74
     0
 42
0.0000000001
 43
0.0000000001
 40
0.0
 40
0.0
 40
0.0
 40
0.0
 40
0.1428571428571428
 40
0.1428571428571428
 40
0.1428571428571428
 40
0.1428571428571428
 40
0.2857142857142857
 40
0.2857142857142857
 40
0.2857142857142857
 40
0.2857142857142857
 40
0.4285714285714285
 40
0.4285714285714285
 40
0.4285714285714285
 40
0.4285714285714285
 40
0.5714285714285714
 40
0.5714285714285714
 40
0.5714285714285714
 40
0.5714285714285714
 40
0.7142857142857142
 40
0.7142857142857142
 40
0.7142857142857142
 40
0.7142857142857142
 40
0.857142857142857
 40
0.857142857142857
 40
0.857142857142857
 40
0.857142857142857
 40
1.0
 40
1.0
 40
1.0
 40
1.0
 10
-10.3088
 20
-14.35366
 30
0.0
 10
-10.30461
 20
-14.35366
 30
0.0
 10
-10.30144
 20
-14.35274
 30
0.0
 10
-10.2993
 20
-14.35091
 30
0.0
 10
-10.2993
 20
-14.35091
 30
0.0
 10
-10.29713
 20
-14.34907
 30
0.0
 10
-10.29605
 20
-14.34637
 30
0.0
 10
-10.29605
 20
-14.34277
 30
0.0
 10
-10.29605
 20
-14.34277
 30
0.0
 10
-10.29605
 20
-14.33924
 30
0.0
 10
-10.29713
 20
-14.33656
 30
0.0
 10
-10.2993
 20
-14.3347
 30
0.0
 10
-10.2993
 20
-14.3347
 30
0.0
 10
-10.30144
 20
-14.33284
 30
0.0
 10
-10.30461
 20
-14.3319
 30
0.0
 10
-10.3088
 20
-14.3319
 30
0.0
 10
-10.3088
 20
-14.3319
 30
0.0
 10
-10.3088
 20
-14.3319
 30
0.0
 10
-10.32347
 20
-14.3319
 30
0.0
 10
-10.32347
 20
-14.3319
 30
0.0
 10
-10.32347
 20
-14.3319
 30
0.0
 10
-10.32347
 20
-14.3319
 30
0.0
 10
-10.32347
 20
-14.35366
 30
0.0
 10
-10.32347
 20
-14.35366
 30
0.0
 10
-10.32347
 20
-14.35366
 30
0.0
 10
-10.32347
 20
-14.35366
 30
0.0
 10
-10.3088
 20
-14.35366
 30
0.0
 10
-10.3088
 20
-14.35366
 30
0.0
  0
SPLINE
  5
82
330
1F
100
AcDbEntity
  8
Layer 1
 62
   250
100
AcDbSpline
210
0.0
220
0.0
230
1.0
 70
    11
 71
     3
 72
    32
 73
    28
 74
     0
 42
0.0000000001
 43
0.0000000001
 40
0.0
 40
0.0
 40
0.0
 40
0.0
 40
0.1428571428571428
 40
0.1428571428571428
 40
0.1428571428571428
 40
0.1428571428571428
 40
0.2857142857142857
 40
0.2857142857142857
 40
0.2857142857142857
 40
0.2857142857142857
 40
0.4285714285714285
 40
0.4285714285714285
 40
0.4285714285714285
 40
0.4285714285714285
 40
0.5714285714285714
 40
0.5714285714285714
 40
0.5714285714285714
 40
0.5714285714285714
 40
0.7142857142857142
 40
0.7142857142857142
 40
0.7142857142857142
 40
0.7142857142857142
 40
0.857142857142857
 40
0.857142857142857
 40
0.857142857142857
 40
0.857142857142857
 40
1.0
 40
1.0
 40
1.0
 40
1.0
 10
-10.3079
 20
-14.39865
 30
0.0
 10
-10.30256
 20
-14.39865
 30
0.0
 10
-10.29857
 20
-14.39752
 30
0.0
 10
-10.29586
 20
-14.39528
 30
0.0
 10
-10.29586
 20
-14.39528
 30
0.0
 10
-10.29318
 20
-14.39303
 30
0.0
 10
-10.29184
 20
-14.38962
 30
0.0
 10
-10.29184
 20
-14.38508
 30
0.0
 10
-10.29184
 20
-14.38508
 30
0.0
 10
-10.29184
 20
-14.38063
 30
0.0
 10
-10.29318
 20
-14.37729
 30
0.0
 10
-10.29584
 20
-14.37506
 30
0.0
 10
-10.29584
 20
-14.37506
 30
0.0
 10
-10.2985
 20
-14.37282
 30
0.0
 10
-10.30252
 20
-14.37172
 30
0.0
 10
-10.3079
 20
-14.37172
 30
0.0
 10
-10.3079
 20
-14.37172
 30
0.0
 10
-10.3079
 20
-14.37172
 30
0.0
 10
-10.32347
 20
-14.37172
 30
0.0
 10
-10.32347
 20
-14.37172
 30
0.0
 10
-10.32347
 20
-14.37172
 30
0.0
 10
-10.32347
 20
-14.37172
 30
0.0
 10
-10.32347
 20
-14.39865
 30
0.0
 10
-10.32347
 20
-14.39865
 30
0.0
 10
-10.32347
 20
-14.39865
 30
0.0
 10
-10.32347
 20
-14.39865
 30
0.0
 10
-10.3079
 20
-14.39865
 30
0.0
 10
-10.3079
 20
-14.39865
 30
0.0
  0
SPLINE
  5
83
330
1F
100
AcDbEntity
  8
Layer 1
 62
   250
100
AcDbSpline
210
0.0
220
0.0
230
1.0
 70
    11
 71
     3
 72
    48
 73
    44
 74
     0
 42
0.0000000001
 43
0.0000000001
 40
0.0
 40
0.0
 40
0.0
 40
0.0
 40
0.0909090909090909
 40
0.0909090909090909
 40
0.0909090909090909
 40
0.0909090909090909
 40
0.1818181818181818
 40
0.1818181818181818
 40
0.1818181818181818
 40
0.1818181818181818
 40
0.2727272727272727
 40
0.2727272727272727
 40
0.2727272727272727
 40
0.2727272727272727
 40
0.3636363636363636
 40
0.3636363636363636
 40
0.3636363636363636
 40
0.3636363636363636
 40
0.4545454545454546
 40
0.4545454545454546
 40
0.4545454545454546
 40
0.4545454545454546
 40
0.5454545454545455
 40
0.5454545454545455
 40
0.5454545454545455
 40
0.5454545454545455
 40
0.6363636363636365
 40
0.6363636363636365
 40
0.6363636363636365
 40
0.6363636363636365
 40
0.7272727272727274
 40
0.7272727272727274
 40
0.7272727272727274
 40
0.7272727272727274
 40
0.8181818181818183
 40
0.8181818181818183
 40
0.8181818181818183
 40
0.8181818181818183
 40
0.9090909090909093
 40
0.9090909090909093
 40
0.9090909090909093
 40
0.9090909090909093
 40
1.0
 40
1.0
 40
1.0
 40
1.0
 10
-10.28323
 20
-14.36165
 30
0.0
 10
-10.27754
 20
-14.3633
 30
0.0
 10
-10.27312
 20
-14.36636
 30
0.0
 10
-10.26999
 20
-14.37083
 30
0.0
 10
-10.26999
 20
-14.37083
 30
0.0
 10
-10.26686
 20
-14.37527
 30
0.0
 10
-10.26531
 20
-14.38075
 30
0.0
 10
-10.26531
 20
-14.38722
 30
0.0
 10
-10.26531
 20
-14.38722
 30
0.0
 10
-10.26531
 20
-14.39714
 30
0.0
 10
-10.26868
 20
-14.40453
 30
0.0
 10
-10.27538
 20
-14.4094
 30
0.0
 10
-10.27538
 20
-14.4094
 30
0.0
 10
-10.28208
 20
-14.41426
 30
0.0
 10
-10.29229
 20
-14.41671
 30
0.0
 10
-10.30598
 20
-14.41671
 30
0.0
 10
-10.30598
 20
-14.41671
 30
0.0
 10
-10.30598
 20
-14.41671
 30
0.0
 10
-10.35
 20
-14.41671
 30
0.0
 10
-10.35
 20
-14.41671
 30
0.0
 10
-10.35
 20
-14.41671
 30
0.0
 10
-10.35
 20
-14.41671
 30
0.0
 10
-10.35
 20
-14.31384
 30
0.0
 10
-10.35
 20
-14.31384
 30
0.0
 10
-10.35
 20
-14.31384
 30
0.0
 10
-10.35
 20
-14.31384
 30
0.0
 10
-10.31018
 20
-14.31384
 30
0.0
 10
-10.31018
 20
-14.31384
 30
0.0
 10
-10.31018
 20
-14.31384
 30
0.0
 10
-10.29589
 20
-14.31384
 30
0.0
 10
-10.28554
 20
-14.316
 30
0.0
 10
-10.27914
 20
-14.32031
 30
0.0
 10
-10.27914
 20
-14.32031
 30
0.0
 10
-10.27272
 20
-14.32464
 30
0.0
 10
-10.26952
 20
-14.33155
 30
0.0
 10
-10.26952
 20
-14.34105
 30
0.0
 10
-10.26952
 20
-14.34105
 30
0.0
 10
-10.26952
 20
-14.34606
 30
0.0
 10
-10.2707
 20
-14.35032
 30
0.0
 10
-10.27303
 20
-14.35385
 30
0.0
 10
-10.27303
 20
-14.35385
 30
0.0
 10
-10.27538
 20
-14.35735
 30
0.0
 10
-10.27876
 20
-14.35996
 30
0.0
 10
-10.28323
 20
-14.36165
 30
0.0
  0
SPLINE
  5
84
330
1F
100
AcDbEntity
  8
Layer 1
 62
   250
100
AcDbSpline
210
0.0
220
0.0
230
1.0
 70
    11
 71
     3
 72
    52
 73
    48
 74
     0
 42
0.0000000001
 43
0.0000000001
 40
0.0
 40
0.0
 40
0.0
 40
0.0
 40
0.0833333333333333
 40
0.0833333333333333
 40
0.0833333333333333
 40
0.0833333333333333
 40
0.1666666666666667
 40
0.1666666666666667
 40
0.1666666666666667
 40
0.1666666666666667
 40
0.25
 40
0.25
 40
0.25
 40
0.25
 40
0.3333333333333333
 40
0.3333333333333333
 40
0.3333333333333333
 40
0.3333333333333333
 40
0.4166666666666666
 40
0.4166666666666666
 40
0.4166666666666666
 40
0.4166666666666666
 40
0.4999999999999999
 40
0.4999999999999999
 40
0.4999999999999999
 40
0.4999999999999999
 40
0.5833333333333333
 40
0.5833333333333333
 40
0.5833333333333333
 40
0.5833333333333333
 40
0.6666666666666666
 40
0.6666666666666666
 40
0.6666666666666666
 40
0.6666666666666666
 40
0.75
 40
0.75
 40
0.75
 40
0.75
 40
0.8333333333333334
 40
0.8333333333333334
 40
0.8333333333333334
 40
0.8333333333333334
 40
0.9166666666666667
 40
0.9166666666666667
 40
0.9166666666666667
 40
0.9166666666666667
 40
1.0
 40
1.0
 40
1.0
 40
1.0
 10
-10.24245
 20
-14.31384
 30
0.0
 10
-10.24245
 20
-14.31384
 30
0.0
 10
-10.17086
 20
-14.31384
 30
0.0
 10
-10.17086
 20
-14.31384
 30
0.0
 10
-10.17086
 20
-14.31384
 30
0.0
 10
-10.17086
 20
-14.31384
 30
0.0
 10
-10.17086
 20
-14.3339
 30
0.0
 10
-10.17086
 20
-14.3339
 30
0.0
 10
-10.17086
 20
-14.3339
 30
0.0
 10
-10.17086
 20
-14.3339
 30
0.0
 10
-10.21592
 20
-14.3339
 30
0.0
 10
-10.21592
 20
-14.3339
 30
0.0
 10
-10.21592
 20
-14.3339
 30
0.0
 10
-10.21592
 20
-14.3339
 30
0.0
 10
-10.21592
 20
-14.35305
 30
0.0
 10
-10.21592
 20
-14.35305
 30
0.0
 10
-10.21592
 20
-14.35305
 30
0.0
 10
-10.21592
 20
-14.35305
 30
0.0
 10
-10.17357
 20
-14.35305
 30
0.0
 10
-10.17357
 20
-14.35305
 30
0.0
 10
-10.17357
 20
-14.35305
 30
0.0
 10
-10.17357
 20
-14.35305
 30
0.0
 10
-10.17357
 20
-14.37311
 30
0.0
 10
-10.17357
 20
-14.37311
 30
0.0
 10
-10.17357
 20
-14.37311
 30
0.0
 10
-10.17357
 20
-14.37311
 30
0.0
 10
-10.21592
 20
-14.37311
 30
0.0
 10
-10.21592
 20
-14.37311
 30
0.0
 10
-10.21592
 20
-14.37311
 30
0.0
 10
-10.21592
 20
-14.37311
 30
0.0
 10
-10.21592
 20
-14.39665
 30
0.0
 10
-10.21592
 20
-14.39665
 30
0.0
 10
-10.21592
 20
-14.39665
 30
0.0
 10
-10.21592
 20
-14.39665
 30
0.0
 10
-10.16936
 20
-14.39665
 30
0.0
 10
-10.16936
 20
-14.39665
 30
0.0
 10
-10.16936
 20
-14.39665
 30
0.0
 10
-10.16936
 20
-14.39665
 30
0.0
 10
-10.16936
 20
-14.41671
 30
0.0
 10
-10.16936
 20
-14.41671
 30
0.0
 10
-10.16936
 20
-14.41671
 30
0.0
 10
-10.16936
 20
-14.41671
 30
0.0
 10
-10.24245
 20
-14.41671
 30
0.0
 10
-10.24245
 20
-14.41671
 30
0.0
 10
-10.24245
 20
-14.41671
 30
0.0
 10
-10.24245
 20
-14.41671
 30
0.0
 10
-10.24245
 20
-14.31384
 30
0.0
 10
-10.24245
 20
-14.31384
 30
0.0
  0
SPLINE
  5
85
330
1F
100
AcDbEntity
  8
Layer 1
 62
   250
100
AcDbSpline
210
0.0
220
0.0
230
1.0
 70
    11
 71
     3
 72
    36
 73
    32
 74
     0
 42
0.0000000001
 43
0.0000000001
 40
0.0
 40
0.0
 40
0.0
 40
0.0
 40
0.125
 40
0.125
 40
0.125
 40
0.125
 40
0.25
 40
0.25
 40
0.25
 40
0.25
 40
0.375
 40
0.375
 40
0.375
 40
0.375
 40
0.5
 40
0.5
 40
0.5
 40
0.5
 40
0.625
 40
0.625
 40
0.625
 40
0.625
 40
0.75
 40
0.75
 40
0.75
 40
0.75
 40
0.875
 40
0.875
 40
0.875
 40
0.875
 40
1.0
 40
1.0
 40
1.0
 40
1.0
 10
-10.08363
 20
-14.39799
 30
0.0
 10
-10.08363
 20
-14.39799
 30
0.0
 10
-10.12512
 20
-14.39799
 30
0.0
 10
-10.12512
 20
-14.39799
 30
0.0
 10
-10.12512
 20
-14.39799
 30
0.0
 10
-10.12512
 20
-14.39799
 30
0.0
 10
-10.13166
 20
-14.41671
 30
0.0
 10
-10.13166
 20
-14.41671
 30
0.0
 10
-10.13166
 20
-14.41671
 30
0.0
 10
-10.13166
 20
-14.41671
 30
0.0
 10
-10.15833
 20
-14.41671
 30
0.0
 10
-10.15833
 20
-14.41671
 30
0.0
 10
-10.15833
 20
-14.41671
 30
0.0
 10
-10.15833
 20
-14.41671
 30
0.0
 10
-10.12023
 20
-14.31384
 30
0.0
 10
-10.12023
 20
-14.31384
 30
0.0
 10
-10.12023
 20
-14.31384
 30
0.0
 10
-10.12023
 20
-14.31384
 30
0.0
 10
-10.0886
 20
-14.31384
 30
0.0
 10
-10.0886
 20
-14.31384
 30
0.0
 10
-10.0886
 20
-14.31384
 30
0.0
 10
-10.0886
 20
-14.31384
 30
0.0
 10
-10.0505
 20
-14.41671
 30
0.0
 10
-10.0505
 20
-14.41671
 30
0.0
 10
-10.0505
 20
-14.41671
 30
0.0
 10
-10.0505
 20
-14.41671
 30
0.0
 10
-10.07717
 20
-14.41671
 30
0.0
 10
-10.07717
 20
-14.41671
 30
0.0
 10
-10.07717
 20
-14.41671
 30
0.0
 10
-10.07717
 20
-14.41671
 30
0.0
 10
-10.08363
 20
-14.39799
 30
0.0
 10
-10.08363
 20
-14.39799
 30
0.0
  0
SPLINE
  5
86
330
1F
100
AcDbEntity
  8
Layer 1
 62
   250
100
AcDbSpline
210
0.0
220
0.0
230
1.0
 70
    11
 71
     3
 72
    16
 73
    12
 74
     0
 42
0.0000000001
 43
0.0000000001
 40
0.0
 40
0.0
 40
0.0
 40
0.0
 40
0.3333333333333333
 40
0.3333333333333333
 40
0.3333333333333333
 40
0.3333333333333333
 40
0.6666666666666666
 40
0.6666666666666666
 40
0.6666666666666666
 40
0.6666666666666666
 40
1.0
 40
1.0
 40
1.0
 40
1.0
 10
-10.11851
 20
-14.37889
 30
0.0
 10
-10.11851
 20
-14.37889
 30
0.0
 10
-10.09031
 20
-14.37889
 30
0.0
 10
-10.09031
 20
-14.37889
 30
0.0
 10
-10.09031
 20
-14.37889
 30
0.0
 10
-10.09031
 20
-14.37889
 30
0.0
 10
-10.10438
 20
-14.33797
 30
0.0
 10
-10.10438
 20
-14.33797
 30
0.0
 10
-10.10438
 20
-14.33797
 30
0.0
 10
-10.10438
 20
-14.33797
 30
0.0
 10
-10.11851
 20
-14.37889
 30
0.0
 10
-10.11851
 20
-14.37889
 30
0.0
  0
SPLINE
  5
87
330
1F
100
AcDbEntity
  8
Layer 1
 62
   250
100
AcDbSpline
210
0.0
220
0.0
230
1.0
 70
    11
 71
     3
 72
    32
 73
    28
 74
     0
 42
0.0000000001
 43
0.0000000001
 40
0.0
 40
0.0
 40
0.0
 40
0.0
 40
0.1428571428571428
 40
0.1428571428571428
 40
0.1428571428571428
 40
0.1428571428571428
 40
0.2857142857142857
 40
0.2857142857142857
 40
0.2857142857142857
 40
0.2857142857142857
 40
0.4285714285714285
 40
0.4285714285714285
 40
0.4285714285714285
 40
0.4285714285714285
 40
0.5714285714285714
 40
0.5714285714285714
 40
0.5714285714285714
 40
0.5714285714285714
 40
0.7142857142857142
 40
0.7142857142857142
 40
0.7142857142857142
 40
0.7142857142857142
 40
0.857142857142857
 40
0.857142857142857
 40
0.857142857142857
 40
0.857142857142857
 40
1.0
 40
1.0
 40
1.0
 40
1.0
 10
-10.0103
 20
-14.3339
 30
0.0
 10
-10.0103
 20
-14.3339
 30
0.0
 10
-10.0103
 20
-14.39665
 30
0.0
 10
-10.0103
 20
-14.39665
 30
0.0
 10
-10.0103
 20
-14.39665
 30
0.0
 10
-10.0103
 20
-14.39665
 30
0.0
 10
-10.0008
 20
-14.39665
 30
0.0
 10
-10.0008
 20
-14.39665
 30
0.0
 10
-10.0008
 20
-14.39665
 30
0.0
 10
-9.98996
 20
-14.39665
 30
0.0
 10
-9.98168
 20
-14.39397
 30
0.0
 10
-9.97597
 20
-14.38858
 30
0.0
 10
-9.97597
 20
-14.38858
 30
0.0
 10
-9.97025
 20
-14.38322
 30
0.0
 10
-9.96738
 20
-14.37541
 30
0.0
 10
-9.96738
 20
-14.36518
 30
0.0
 10
-9.96738
 20
-14.36518
 30
0.0
 10
-9.96738
 20
-14.35497
 30
0.0
 10
-9.97023
 20
-14.34721
 30
0.0
 10
-9.97592
 20
-14.3419
 30
0.0
 10
-9.97592
 20
-14.3419
 30
0.0
 10
-9.98161
 20
-14.33656
 30
0.0
 10
-9.98991
 20
-14.3339
 30
0.0
 10
-10.0008
 20
-14.3339
 30
0.0
 10
-10.0008
 20
-14.3339
 30
0.0
 10
-10.0008
 20
-14.3339
 30
0.0
 10
-10.0103
 20
-14.3339
 30
0.0
 10
-10.0103
 20
-14.3339
 30
0.0
  0
SPLINE
  5
88
330
1F
100
AcDbEntity
  8
Layer 1
 62
   250
100
AcDbSpline
210
0.0
220
0.0
230
1.0
 70
    11
 71
     3
 72
    48
 73
    44
 74
     0
 42
0.0000000001
 43
0.0000000001
 40
0.0
 40
0.0
 40
0.0
 40
0.0
 40
0.0909090909090909
 40
0.0909090909090909
 40
0.0909090909090909
 40
0.0909090909090909
 40
0.1818181818181818
 40
0.1818181818181818
 40
0.1818181818181818
 40
0.1818181818181818
 40
0.2727272727272727
 40
0.2727272727272727
 40
0.2727272727272727
 40
0.2727272727272727
 40
0.3636363636363636
 40
0.3636363636363636
 40
0.3636363636363636
 40
0.3636363636363636
 40
0.4545454545454546
 40
0.4545454545454546
 40
0.4545454545454546
 40
0.4545454545454546
 40
0.5454545454545455
 40
0.5454545454545455
 40
0.5454545454545455
 40
0.5454545454545455
 40
0.6363636363636365
 40
0.6363636363636365
 40
0.6363636363636365
 40
0.6363636363636365
 40
0.7272727272727274
 40
0.7272727272727274
 40
0.7272727272727274
 40
0.7272727272727274
 40
0.8181818181818183
 40
0.8181818181818183
 40
0.8181818181818183
 40
0.8181818181818183
 40
0.9090909090909093
 40
0.9090909090909093
 40
0.9090909090909093
 40
0.9090909090909093
 40
1.0
 40
1.0
 40
1.0
 40
1.0
 10
-10.03683
 20
-14.31384
 30
0.0
 10
-10.03683
 20
-14.31384
 30
0.0
 10
-10.00884
 20
-14.31384
 30
0.0
 10
-10.00884
 20
-14.31384
 30
0.0
 10
-10.00884
 20
-14.31384
 30
0.0
 10
-9.99323
 20
-14.31384
 30
0.0
 10
-9.98161
 20
-14.31495
 30
0.0
 10
-9.97397
 20
-14.31718
 30
0.0
 10
-9.97397
 20
-14.31718
 30
0.0
 10
-9.96632
 20
-14.31941
 30
0.0
 10
-9.95976
 20
-14.32318
 30
0.0
 10
-9.95428
 20
-14.32852
 30
0.0
 10
-9.95428
 20
-14.32852
 30
0.0
 10
-9.94946
 20
-14.33315
 30
0.0
 10
-9.94589
 20
-14.33851
 30
0.0
 10
-9.94353
 20
-14.34458
 30
0.0
 10
-9.94353
 20
-14.34458
 30
0.0
 10
-9.94121
 20
-14.35062
 30
0.0
 10
-9.94003
 20
-14.35749
 30
0.0
 10
-9.94003
 20
-14.36518
 30
0.0
 10
-9.94003
 20
-14.36518
 30
0.0
 10
-9.94003
 20
-14.37294
 30
0.0
 10
-9.94121
 20
-14.37986
 30
0.0
 10
-9.94353
 20
-14.38595
 30
0.0
 10
-9.94353
 20
-14.38595
 30
0.0
 10
-9.94589
 20
-14.39204
 30
0.0
 10
-9.94946
 20
-14.3974
 30
0.0
 10
-9.95428
 20
-14.40203
 30
0.0
 10
-9.95428
 20
-14.40203
 30
0.0
 10
-9.95981
 20
-14.40737
 30
0.0
 10
-9.96642
 20
-14.41114
 30
0.0
 10
-9.97413
 20
-14.41337
 30
0.0
 10
-9.97413
 20
-14.41337
 30
0.0
 10
-9.98185
 20
-14.4156
 30
0.0
 10
-9.99342
 20
-14.41671
 30
0.0
 10
-10.00884
 20
-14.41671
 30
0.0
 10
-10.00884
 20
-14.41671
 30
0.0
 10
-10.00884
 20
-14.41671
 30
0.0
 10
-10.03683
 20
-14.41671
 30
0.0
 10
-10.03683
 20
-14.41671
 30
0.0
 10
-10.03683
 20
-14.41671
 30
0.0
 10
-10.03683
 20
-14.41671
 30
0.0
 10
-10.03683
 20
-14.31384
 30
0.0
 10
-10.03683
 20
-14.31384
 30
0.0
  0
SPLINE
  5
89
330
1F
100
AcDbEntity
  8
Layer 1
 62
   250
100
AcDbSpline
210
0.0
220
0.0
230
1.0
 70
    11
 71
     3
 72
    36
 73
    32
 74
     0
 42
0.0000000001
 43
0.0000000001
 40
0.0
 40
0.0
 40
0.0
 40
0.0
 40
0.125
 40
0.125
 40
0.125
 40
0.125
 40
0.25
 40
0.25
 40
0.25
 40
0.25
 40
0.375
 40
0.375
 40
0.375
 40
0.375
 40
0.5
 40
0.5
 40
0.5
 40
0.5
 40
0.625
 40
0.625
 40
0.625
 40
0.625
 40
0.75
 40
0.75
 40
0.75
 40
0.75
 40
0.875
 40
0.875
 40
0.875
 40
0.875
 40
1.0
 40
1.0
 40
1.0
 40
1.0
 10
-10.82778
 20
-15.33523
 30
0.0
 10
-10.83235
 20
-15.33523
 30
0.0
 10
-10.8358
 20
-15.337
 30
0.0
 10
-10.83815
 20
-15.34055
 30
0.0
 10
-10.83815
 20
-15.34055
 30
0.0
 10
-10.8405
 20
-15.3441
 30
0.0
 10
-10.84167
 20
-15.34937
 30
0.0
 10
-10.84167
 20
-15.35632
 30
0.0
 10
-10.84167
 20
-15.35632
 30
0.0
 10
-10.84167
 20
-15.36325
 30
0.0
 10
-10.8405
 20
-15.3685
 30
0.0
 10
-10.83815
 20
-15.37207
 30
0.0
 10
-10.83815
 20
-15.37207
 30
0.0
 10
-10.8358
 20
-15.37564
 30
0.0
 10
-10.83235
 20
-15.37742
 30
0.0
 10
-10.82778
 20
-15.37742
 30
0.0
 10
-10.82778
 20
-15.37742
 30
0.0
 10
-10.8232
 20
-15.37742
 30
0.0
 10
-10.81973
 20
-15.37564
 30
0.0
 10
-10.81738
 20
-15.37207
 30
0.0
 10
-10.81738
 20
-15.37207
 30
0.0
 10
-10.81503
 20
-15.3685
 30
0.0
 10
-10.81387
 20
-15.36325
 30
0.0
 10
-10.81387
 20
-15.35632
 30
0.0
 10
-10.81387
 20
-15.35632
 30
0.0
 10
-10.81387
 20
-15.34937
 30
0.0
 10
-10.81503
 20
-15.3441
 30
0.0
 10
-10.81738
 20
-15.34055
 30
0.0
 10
-10.81738
 20
-15.34055
 30
0.0
 10
-10.81973
 20
-15.337
 30
0.0
 10
-10.8232
 20
-15.33523
 30
0.0
 10
-10.82778
 20
-15.33523
 30
0.0
  0
SPLINE
  5
8A
330
1F
100
AcDbEntity
  8
Layer 1
 62
   250
100
AcDbSpline
210
0.0
220
0.0
230
1.0
 70
    11
 71
     3
 72
    36
 73
    32
 74
     0
 42
0.0000000001
 43
0.0000000001
 40
0.0
 40
0.0
 40
0.0
 40
0.0
 40
0.125
 40
0.125
 40
0.125
 40
0.125
 40
0.25
 40
0.25
 40
0.25
 40
0.25
 40
0.375
 40
0.375
 40
0.375
 40
0.375
 40
0.5
 40
0.5
 40
0.5
 40
0.5
 40
0.625
 40
0.625
 40
0.625
 40
0.625
 40
0.75
 40
0.75
 40
0.75
 40
0.75
 40
0.875
 40
0.875
 40
0.875
 40
0.875
 40
1.0
 40
1.0
 40
1.0
 40
1.0
 10
-10.82778
 20
-15.32761
 30
0.0
 10
-10.8202
 20
-15.32761
 30
0.0
 10
-10.8144
 20
-15.33006
 30
0.0
 10
-10.81038
 20
-15.33498
 30
0.0
 10
-10.81038
 20
-15.33498
 30
0.0
 10
-10.80636
 20
-15.3399
 30
0.0
 10
-10.80435
 20
-15.34702
 30
0.0
 10
-10.80435
 20
-15.35632
 30
0.0
 10
-10.80435
 20
-15.35632
 30
0.0
 10
-10.80435
 20
-15.36567
 30
0.0
 10
-10.80635
 20
-15.37279
 30
0.0
 10
-10.81035
 20
-15.37769
 30
0.0
 10
-10.81035
 20
-15.37769
 30
0.0
 10
-10.81437
 20
-15.38259
 30
0.0
 10
-10.82017
 20
-15.38504
 30
0.0
 10
-10.82778
 20
-15.38504
 30
0.0
 10
-10.82778
 20
-15.38504
 30
0.0
 10
-10.83538
 20
-15.38504
 30
0.0
 10
-10.84117
 20
-15.38259
 30
0.0
 10
-10.84519
 20
-15.37769
 30
0.0
 10
-10.84519
 20
-15.37769
 30
0.0
 10
-10.84919
 20
-15.37279
 30
0.0
 10
-10.85119
 20
-15.36567
 30
0.0
 10
-10.85119
 20
-15.35632
 30
0.0
 10
-10.85119
 20
-15.35632
 30
0.0
 10
-10.85119
 20
-15.34702
 30
0.0
 10
-10.84919
 20
-15.3399
 30
0.0
 10
-10.84519
 20
-15.33498
 30
0.0
 10
-10.84519
 20
-15.33498
 30
0.0
 10
-10.84117
 20
-15.33006
 30
0.0
 10
-10.83538
 20
-15.32761
 30
0.0
 10
-10.82778
 20
-15.32761
 30
0.0
  0
SPLINE
  5
8B
330
1F
100
AcDbEntity
  8
Layer 1
 62
   250
100
AcDbSpline
210
0.0
220
0.0
230
1.0
 70
    11
 71
     3
 72
    36
 73
    32
 74
     0
 42
0.0000000001
 43
0.0000000001
 40
0.0
 40
0.0
 40
0.0
 40
0.0
 40
0.125
 40
0.125
 40
0.125
 40
0.125
 40
0.25
 40
0.25
 40
0.25
 40
0.25
 40
0.375
 40
0.375
 40
0.375
 40
0.375
 40
0.5
 40
0.5
 40
0.5
 40
0.5
 40
0.625
 40
0.625
 40
0.625
 40
0.625
 40
0.75
 40
0.75
 40
0.75
 40
0.75
 40
0.875
 40
0.875
 40
0.875
 40
0.875
 40
1.0
 40
1.0
 40
1.0
 40
1.0
 10
-10.76757
 20
-15.33523
 30
0.0
 10
-10.77214
 20
-15.33523
 30
0.0
 10
-10.77559
 20
-15.337
 30
0.0
 10
-10.77794
 20
-15.34055
 30
0.0
 10
-10.77794
 20
-15.34055
 30
0.0
 10
-10.78029
 20
-15.3441
 30
0.0
 10
-10.78146
 20
-15.34937
 30
0.0
 10
-10.78146
 20
-15.35632
 30
0.0
 10
-10.78146
 20
-15.35632
 30
0.0
 10
-10.78146
 20
-15.36325
 30
0.0
 10
-10.78029
 20
-15.3685
 30
0.0
 10
-10.77794
 20
-15.37207
 30
0.0
 10
-10.77794
 20
-15.37207
 30
0.0
 10
-10.77559
 20
-15.37564
 30
0.0
 10
-10.77214
 20
-15.37742
 30
0.0
 10
-10.76757
 20
-15.37742
 30
0.0
 10
-10.76757
 20
-15.37742
 30
0.0
 10
-10.76299
 20
-15.37742
 30
0.0
 10
-10.75952
 20
-15.37564
 30
0.0
 10
-10.75717
 20
-15.37207
 30
0.0
 10
-10.75717
 20
-15.37207
 30
0.0
 10
-10.75482
 20
-15.3685
 30
0.0
 10
-10.75366
 20
-15.36325
 30
0.0
 10
-10.75366
 20
-15.35632
 30
0.0
 10
-10.75366
 20
-15.35632
 30
0.0
 10
-10.75366
 20
-15.34937
 30
0.0
 10
-10.75482
 20
-15.3441
 30
0.0
 10
-10.75717
 20
-15.34055
 30
0.0
 10
-10.75717
 20
-15.34055
 30
0.0
 10
-10.75952
 20
-15.337
 30
0.0
 10
-10.76299
 20
-15.33523
 30
0.0
 10
-10.76757
 20
-15.33523
 30
0.0
  0
SPLINE
  5
8C
330
1F
100
AcDbEntity
  8
Layer 1
 62
   250
100
AcDbSpline
210
0.0
220
0.0
230
1.0
 70
    11
 71
     3
 72
    36
 73
    32
 74
     0
 42
0.0000000001
 43
0.0000000001
 40
0.0
 40
0.0
 40
0.0
 40
0.0
 40
0.125
 40
0.125
 40
0.125
 40
0.125
 40
0.25
 40
0.25
 40
0.25
 40
0.25
 40
0.375
 40
0.375
 40
0.375
 40
0.375
 40
0.5
 40
0.5
 40
0.5
 40
0.5
 40
0.625
 40
0.625
 40
0.625
 40
0.625
 40
0.75
 40
0.75
 40
0.75
 40
0.75
 40
0.875
 40
0.875
 40
0.875
 40
0.875
 40
1.0
 40
1.0
 40
1.0
 40
1.0
 10
-10.76757
 20
-15.32761
 30
0.0
 10
-10.75999
 20
-15.32761
 30
0.0
 10
-10.75419
 20
-15.33006
 30
0.0
 10
-10.75017
 20
-15.33498
 30
0.0
 10
-10.75017
 20
-15.33498
 30
0.0
 10
-10.74615
 20
-15.3399
 30
0.0
 10
-10.74414
 20
-15.34702
 30
0.0
 10
-10.74414
 20
-15.35632
 30
0.0
 10
-10.74414
 20
-15.35632
 30
0.0
 10
-10.74414
 20
-15.36567
 30
0.0
 10
-10.74614
 20
-15.37279
 30
0.0
 10
-10.75014
 20
-15.37769
 30
0.0
 10
-10.75014
 20
-15.37769
 30
0.0
 10
-10.75416
 20
-15.38259
 30
0.0
 10
-10.75996
 20
-15.38504
 30
0.0
 10
-10.76757
 20
-15.38504
 30
0.0
 10
-10.76757
 20
-15.38504
 30
0.0
 10
-10.77517
 20
-15.38504
 30
0.0
 10
-10.78096
 20
-15.38259
 30
0.0
 10
-10.78498
 20
-15.37769
 30
0.0
 10
-10.78498
 20
-15.37769
 30
0.0
 10
-10.78898
 20
-15.37279
 30
0.0
 10
-10.79098
 20
-15.36567
 30
0.0
 10
-10.79098
 20
-15.35632
 30
0.0
 10
-10.79098
 20
-15.35632
 30
0.0
 10
-10.79098
 20
-15.34702
 30
0.0
 10
-10.78898
 20
-15.3399
 30
0.0
 10
-10.78498
 20
-15.33498
 30
0.0
 10
-10.78498
 20
-15.33498
 30
0.0
 10
-10.78096
 20
-15.33006
 30
0.0
 10
-10.77517
 20
-15.32761
 30
0.0
 10
-10.76757
 20
-15.32761
 30
0.0
  0
SPLINE
  5
8D
330
1F
100
AcDbEntity
  8
Layer 1
 62
   250
100
AcDbSpline
210
0.0
220
0.0
230
1.0
 70
    11
 71
     3
 72
   112
 73
   108
 74
     0
 42
0.0000000001
 43
0.0000000001
 40
0.0
 40
0.0
 40
0.0
 40
0.0
 40
0.037037037037037
 40
0.037037037037037
 40
0.037037037037037
 40
0.037037037037037
 40
0.0740740740740741
 40
0.0740740740740741
 40
0.0740740740740741
 40
0.0740740740740741
 40
0.1111111111111111
 40
0.1111111111111111
 40
0.1111111111111111
 40
0.1111111111111111
 40
0.1481481481481481
 40
0.1481481481481481
 40
0.1481481481481481
 40
0.1481481481481481
 40
0.1851851851851852
 40
0.1851851851851852
 40
0.1851851851851852
 40
0.1851851851851852
 40
0.2222222222222222
 40
0.2222222222222222
 40
0.2222222222222222
 40
0.2222222222222222
 40
0.2592592592592592
 40
0.2592592592592592
 40
0.2592592592592592
 40
0.2592592592592592
 40
0.2962962962962963
 40
0.2962962962962963
 40
0.2962962962962963
 40
0.2962962962962963
 40
0.3333333333333333
 40
0.3333333333333333
 40
0.3333333333333333
 40
0.3333333333333333
 40
0.3703703703703703
 40
0.3703703703703703
 40
0.3703703703703703
 40
0.3703703703703703
 40
0.4074074074074074
 40
0.4074074074074074
 40
0.4074074074074074
 40
0.4074074074074074
 40
0.4444444444444444
 40
0.4444444444444444
 40
0.4444444444444444
 40
0.4444444444444444
 40
0.4814814814814815
 40
0.4814814814814815
 40
0.4814814814814815
 40
0.4814814814814815
 40
0.5185185185185185
 40
0.5185185185185185
 40
0.5185185185185185
 40
0.5185185185185185
 40
0.5555555555555556
 40
0.5555555555555556
 40
0.5555555555555556
 40
0.5555555555555556
 40
0.5925925925925926
 40
0.5925925925925926
 40
0.5925925925925926
 40
0.5925925925925926
 40
0.6296296296296295
 40
0.6296296296296295
 40
0.6296296296296295
 40
0.6296296296296295
 40
0.6666666666666665
 40
0.6666666666666665
 40
0.6666666666666665
 40
0.6666666666666665
 40
0.7037037037037035
 40
0.7037037037037035
 40
0.7037037037037035
 40
0.7037037037037035
 40
0.7407407407407405
 40
0.7407407407407405
 40
0.7407407407407405
 40
0.7407407407407405
 40
0.7777777777777775
 40
0.7777777777777775
 40
0.7777777777777775
 40
0.7777777777777775
 40
0.8148148148148144
 40
0.8148148148148144
 40
0.8148148148148144
 40
0.8148148148148144
 40
0.8518518518518514
 40
0.8518518518518514
 40
0.8518518518518514
 40
0.8518518518518514
 40
0.8888888888888884
 40
0.8888888888888884
 40
0.8888888888888884
 40
0.8888888888888884
 40
0.9259259259259254
 40
0.9259259259259254
 40
0.9259259259259254
 40
0.9259259259259254
 40
0.9629629629629624
 40
0.9629629629629624
 40
0.9629629629629624
 40
0.9629629629629624
 40
1.0
 40
1.0
 40
1.0
 40
1.0
 10
-10.70445
 20
-15.3345
 30
0.0
 10
-10.70335
 20
-15.33215
 30
0.0
 10
-10.70193
 20
-15.33041
 30
0.0
 10
-10.70021
 20
-15.3293
 30
0.0
 10
-10.70021
 20
-15.3293
 30
0.0
 10
-10.69851
 20
-15.32818
 30
0.0
 10
-10.69645
 20
-15.32761
 30
0.0
 10
-10.69405
 20
-15.32761
 30
0.0
 10
-10.69405
 20
-15.32761
 30
0.0
 10
-10.68965
 20
-15.32761
 30
0.0
 10
-10.68654
 20
-15.32931
 30
0.0
 10
-10.68474
 20
-15.33271
 30
0.0
 10
-10.68474
 20
-15.33271
 30
0.0
 10
-10.68293
 20
-15.33612
 30
0.0
 10
-10.68203
 20
-15.34252
 30
0.0
 10
-10.68203
 20
-15.35193
 30
0.0
 10
-10.68203
 20
-15.35193
 30
0.0
 10
-10.68203
 20
-15.35193
 30
0.0
 10
-10.68203
 20
-15.38362
 30
0.0
 10
-10.68203
 20
-15.38362
 30
0.0
 10
-10.68203
 20
-15.38362
 30
0.0
 10
-10.68203
 20
-15.38362
 30
0.0
 10
-10.69023
 20
-15.38362
 30
0.0
 10
-10.69023
 20
-15.38362
 30
0.0
 10
-10.69023
 20
-15.38362
 30
0.0
 10
-10.69023
 20
-15.38362
 30
0.0
 10
-10.69023
 20
-15.35232
 30
0.0
 10
-10.69023
 20
-15.35232
 30
0.0
 10
-10.69023
 20
-15.35232
 30
0.0
 10
-10.69023
 20
-15.3446
 30
0.0
 10
-10.69066
 20
-15.33982
 30
0.0
 10
-10.69153
 20
-15.33793
 30
0.0
 10
-10.69153
 20
-15.33793
 30
0.0
 10
-10.69238
 20
-15.33607
 30
0.0
 10
-10.69396
 20
-15.33513
 30
0.0
 10
-10.69625
 20
-15.33513
 30
0.0
 10
-10.69625
 20
-15.33513
 30
0.0
 10
-10.69885
 20
-15.33513
 30
0.0
 10
-10.70063
 20
-15.33613
 30
0.0
 10
-10.7016
 20
-15.33813
 30
0.0
 10
-10.7016
 20
-15.33813
 30
0.0
 10
-10.70255
 20
-15.34013
 30
0.0
 10
-10.70303
 20
-15.34487
 30
0.0
 10
-10.70303
 20
-15.35232
 30
0.0
 10
-10.70303
 20
-15.35232
 30
0.0
 10
-10.70303
 20
-15.35232
 30
0.0
 10
-10.70303
 20
-15.38362
 30
0.0
 10
-10.70303
 20
-15.38362
 30
0.0
 10
-10.70303
 20
-15.38362
 30
0.0
 10
-10.70303
 20
-15.38362
 30
0.0
 10
-10.71123
 20
-15.38362
 30
0.0
 10
-10.71123
 20
-15.38362
 30
0.0
 10
-10.71123
 20
-15.38362
 30
0.0
 10
-10.71123
 20
-15.38362
 30
0.0
 10
-10.71123
 20
-15.35232
 30
0.0
 10
-10.71123
 20
-15.35232
 30
0.0
 10
-10.71123
 20
-15.35232
 30
0.0
 10
-10.71123
 20
-15.3445
 30
0.0
 10
-10.7117
 20
-15.33968
 30
0.0
 10
-10.71263
 20
-15.33787
 30
0.0
 10
-10.71263
 20
-15.33787
 30
0.0
 10
-10.71355
 20
-15.33605
 30
0.0
 10
-10.71521
 20
-15.33513
 30
0.0
 10
-10.71763
 20
-15.33513
 30
0.0
 10
-10.71763
 20
-15.33513
 30
0.0
 10
-10.72001
 20
-15.33513
 30
0.0
 10
-10.72167
 20
-15.33613
 30
0.0
 10
-10.72258
 20
-15.33813
 30
0.0
 10
-10.72258
 20
-15.33813
 30
0.0
 10
-10.72352
 20
-15.34013
 30
0.0
 10
-10.72398
 20
-15.34487
 30
0.0
 10
-10.72398
 20
-15.35232
 30
0.0
 10
-10.72398
 20
-15.35232
 30
0.0
 10
-10.72398
 20
-15.35232
 30
0.0
 10
-10.72398
 20
-15.38362
 30
0.0
 10
-10.72398
 20
-15.38362
 30
0.0
 10
-10.72398
 20
-15.38362
 30
0.0
 10
-10.72398
 20
-15.38362
 30
0.0
 10
-10.73213
 20
-15.38362
 30
0.0
 10
-10.73213
 20
-15.38362
 30
0.0
 10
-10.73213
 20
-15.38362
 30
0.0
 10
-10.73213
 20
-15.38362
 30
0.0
 10
-10.73213
 20
-15.32893
 30
0.0
 10
-10.73213
 20
-15.32893
 30
0.0
 10
-10.73213
 20
-15.32893
 30
0.0
 10
-10.73213
 20
-15.32893
 30
0.0
 10
-10.72398
 20
-15.32893
 30
0.0
 10
-10.72398
 20
-15.32893
 30
0.0
 10
-10.72398
 20
-15.32893
 30
0.0
 10
-10.72398
 20
-15.32893
 30
0.0
 10
-10.72398
 20
-15.33361
 30
0.0
 10
-10.72398
 20
-15.33361
 30
0.0
 10
-10.72398
 20
-15.33361
 30
0.0
 10
-10.72292
 20
-15.33166
 30
0.0
 10
-10.72157
 20
-15.33018
 30
0.0
 10
-10.71995
 20
-15.32915
 30
0.0
 10
-10.71995
 20
-15.32915
 30
0.0
 10
-10.71835
 20
-15.32813
 30
0.0
 10
-10.71651
 20
-15.32761
 30
0.0
 10
-10.71446
 20
-15.32761
 30
0.0
 10
-10.71446
 20
-15.32761
 30
0.0
 10
-10.71198
 20
-15.32761
 30
0.0
 10
-10.70993
 20
-15.32818
 30
0.0
 10
-10.70828
 20
-15.32931
 30
0.0
 10
-10.70828
 20
-15.32931
 30
0.0
 10
-10.70663
 20
-15.33046
 30
0.0
 10
-10.70536
 20
-15.33218
 30
0.0
 10
-10.70445
 20
-15.3345
 30
0.0
  0
SPLINE
  5
8E
330
1F
100
AcDbEntity
  8
Layer 1
 62
   250
100
AcDbSpline
210
0.0
220
0.0
230
1.0
 70
    11
 71
     3
 72
    20
 73
    16
 74
     0
 42
0.0000000001
 43
0.0000000001
 40
0.0
 40
0.0
 40
0.0
 40
0.0
 40
0.25
 40
0.25
 40
0.25
 40
0.25
 40
0.5
 40
0.5
 40
0.5
 40
0.5
 40
0.75
 40
0.75
 40
0.75
 40
0.75
 40
1.0
 40
1.0
 40
1.0
 40
1.0
 10
-10.65335
 20
-15.36872
 30
0.0
 10
-10.65335
 20
-15.36872
 30
0.0
 10
-10.64105
 20
-15.36872
 30
0.0
 10
-10.64105
 20
-15.36872
 30
0.0
 10
-10.64105
 20
-15.36872
 30
0.0
 10
-10.64105
 20
-15.36872
 30
0.0
 10
-10.64105
 20
-15.38362
 30
0.0
 10
-10.64105
 20
-15.38362
 30
0.0
 10
-10.64105
 20
-15.38362
 30
0.0
 10
-10.64105
 20
-15.38362
 30
0.0
 10
-10.65335
 20
-15.38362
 30
0.0
 10
-10.65335
 20
-15.38362
 30
0.0
 10
-10.65335
 20
-15.38362
 30
0.0
 10
-10.65335
 20
-15.38362
 30
0.0
 10
-10.65335
 20
-15.36872
 30
0.0
 10
-10.65335
 20
-15.36872
 30
0.0
  0
SPLINE
  5
8F
330
1F
100
AcDbEntity
  8
Layer 1
 62
   250
100
AcDbSpline
210
0.0
220
0.0
230
1.0
 70
    11
 71
     3
 72
    52
 73
    48
 74
     0
 42
0.0000000001
 43
0.0000000001
 40
0.0
 40
0.0
 40
0.0
 40
0.0
 40
0.0833333333333333
 40
0.0833333333333333
 40
0.0833333333333333
 40
0.0833333333333333
 40
0.1666666666666667
 40
0.1666666666666667
 40
0.1666666666666667
 40
0.1666666666666667
 40
0.25
 40
0.25
 40
0.25
 40
0.25
 40
0.3333333333333333
 40
0.3333333333333333
 40
0.3333333333333333
 40
0.3333333333333333
 40
0.4166666666666666
 40
0.4166666666666666
 40
0.4166666666666666
 40
0.4166666666666666
 40
0.4999999999999999
 40
0.4999999999999999
 40
0.4999999999999999
 40
0.4999999999999999
 40
0.5833333333333333
 40
0.5833333333333333
 40
0.5833333333333333
 40
0.5833333333333333
 40
0.6666666666666666
 40
0.6666666666666666
 40
0.6666666666666666
 40
0.6666666666666666
 40
0.75
 40
0.75
 40
0.75
 40
0.75
 40
0.8333333333333334
 40
0.8333333333333334
 40
0.8333333333333334
 40
0.8333333333333334
 40
0.9166666666666667
 40
0.9166666666666667
 40
0.9166666666666667
 40
0.9166666666666667
 40
1.0
 40
1.0
 40
1.0
 40
1.0
 10
-10.58583
 20
-15.3638
 30
0.0
 10
-10.58583
 20
-15.36784
 30
0.0
 10
-10.58509
 20
-15.37087
 30
0.0
 10
-10.58361
 20
-15.37292
 30
0.0
 10
-10.58361
 20
-15.37292
 30
0.0
 10
-10.58213
 20
-15.37497
 30
0.0
 10
-10.57994
 20
-15.376
 30
0.0
 10
-10.57704
 20
-15.376
 30
0.0
 10
-10.57704
 20
-15.376
 30
0.0
 10
-10.57704
 20
-15.376
 30
0.0
 10
-10.56654
 20
-15.376
 30
0.0
 10
-10.56654
 20
-15.376
 30
0.0
 10
-10.56654
 20
-15.376
 30
0.0
 10
-10.56654
 20
-15.376
 30
0.0
 10
-10.56654
 20
-15.38362
 30
0.0
 10
-10.56654
 20
-15.38362
 30
0.0
 10
-10.56654
 20
-15.38362
 30
0.0
 10
-10.56654
 20
-15.38362
 30
0.0
 10
-10.57791
 20
-15.38362
 30
0.0
 10
-10.57791
 20
-15.38362
 30
0.0
 10
-10.57791
 20
-15.38362
 30
0.0
 10
-10.58329
 20
-15.38362
 30
0.0
 10
-10.58744
 20
-15.38189
 30
0.0
 10
-10.59039
 20
-15.37844
 30
0.0
 10
-10.59039
 20
-15.37844
 30
0.0
 10
-10.59334
 20
-15.37499
 30
0.0
 10
-10.59481
 20
-15.3701
 30
0.0
 10
-10.59481
 20
-15.3638
 30
0.0
 10
-10.59481
 20
-15.3638
 30
0.0
 10
-10.59481
 20
-15.3638
 30
0.0
 10
-10.59481
 20
-15.31413
 30
0.0
 10
-10.59481
 20
-15.31413
 30
0.0
 10
-10.59481
 20
-15.31413
 30
0.0
 10
-10.59481
 20
-15.31413
 30
0.0
 10
-10.60921
 20
-15.31413
 30
0.0
 10
-10.60921
 20
-15.31413
 30
0.0
 10
-10.60921
 20
-15.31413
 30
0.0
 10
-10.60921
 20
-15.31413
 30
0.0
 10
-10.60921
 20
-15.3071
 30
0.0
 10
-10.60921
 20
-15.3071
 30
0.0
 10
-10.60921
 20
-15.3071
 30
0.0
 10
-10.60921
 20
-15.3071
 30
0.0
 10
-10.58583
 20
-15.3071
 30
0.0
 10
-10.58583
 20
-15.3071
 30
0.0
 10
-10.58583
 20
-15.3071
 30
0.0
 10
-10.58583
 20
-15.3071
 30
0.0
 10
-10.58583
 20
-15.3638
 30
0.0
 10
-10.58583
 20
-15.3638
 30
0.0
  0
SPLINE
  5
90
330
1F
100
AcDbEntity
  8
Layer 1
 62
   250
100
AcDbSpline
210
0.0
220
0.0
230
1.0
 70
    11
 71
     3
 72
    76
 73
    72
 74
     0
 42
0.0000000001
 43
0.0000000001
 40
0.0
 40
0.0
 40
0.0
 40
0.0
 40
0.0555555555555556
 40
0.0555555555555556
 40
0.0555555555555556
 40
0.0555555555555556
 40
0.1111111111111111
 40
0.1111111111111111
 40
0.1111111111111111
 40
0.1111111111111111
 40
0.1666666666666667
 40
0.1666666666666667
 40
0.1666666666666667
 40
0.1666666666666667
 40
0.2222222222222222
 40
0.2222222222222222
 40
0.2222222222222222
 40
0.2222222222222222
 40
0.2777777777777778
 40
0.2777777777777778
 40
0.2777777777777778
 40
0.2777777777777778
 40
0.3333333333333334
 40
0.3333333333333334
 40
0.3333333333333334
 40
0.3333333333333334
 40
0.388888888888889
 40
0.388888888888889
 40
0.388888888888889
 40
0.388888888888889
 40
0.4444444444444445
 40
0.4444444444444445
 40
0.4444444444444445
 40
0.4444444444444445
 40
0.5000000000000001
 40
0.5000000000000001
 40
0.5000000000000001
 40
0.5000000000000001
 40
0.5555555555555557
 40
0.5555555555555557
 40
0.5555555555555557
 40
0.5555555555555557
 40
0.6111111111111113
 40
0.6111111111111113
 40
0.6111111111111113
 40
0.6111111111111113
 40
0.6666666666666669
 40
0.6666666666666669
 40
0.6666666666666669
 40
0.6666666666666669
 40
0.7222222222222224
 40
0.7222222222222224
 40
0.7222222222222224
 40
0.7222222222222224
 40
0.777777777777778
 40
0.777777777777778
 40
0.777777777777778
 40
0.777777777777778
 40
0.8333333333333336
 40
0.8333333333333336
 40
0.8333333333333336
 40
0.8333333333333336
 40
0.8888888888888892
 40
0.8888888888888892
 40
0.8888888888888892
 40
0.8888888888888892
 40
0.9444444444444448
 40
0.9444444444444448
 40
0.9444444444444448
 40
0.9444444444444448
 40
1.0
 40
1.0
 40
1.0
 40
1.0
 10
-10.52683
 20
-15.3134
 30
0.0
 10
-10.52683
 20
-15.3134
 30
0.0
 10
-10.52683
 20
-15.32893
 30
0.0
 10
-10.52683
 20
-15.32893
 30
0.0
 10
-10.52683
 20
-15.32893
 30
0.0
 10
-10.52683
 20
-15.32893
 30
0.0
 10
-10.50641
 20
-15.32893
 30
0.0
 10
-10.50641
 20
-15.32893
 30
0.0
 10
-10.50641
 20
-15.32893
 30
0.0
 10
-10.50641
 20
-15.32893
 30
0.0
 10
-10.50641
 20
-15.33592
 30
0.0
 10
-10.50641
 20
-15.33592
 30
0.0
 10
-10.50641
 20
-15.33592
 30
0.0
 10
-10.50641
 20
-15.33592
 30
0.0
 10
-10.52683
 20
-15.33592
 30
0.0
 10
-10.52683
 20
-15.33592
 30
0.0
 10
-10.52683
 20
-15.33592
 30
0.0
 10
-10.52683
 20
-15.33592
 30
0.0
 10
-10.52683
 20
-15.3656
 30
0.0
 10
-10.52683
 20
-15.3656
 30
0.0
 10
-10.52683
 20
-15.3656
 30
0.0
 10
-10.52683
 20
-15.36964
 30
0.0
 10
-10.52607
 20
-15.37245
 30
0.0
 10
-10.52453
 20
-15.37404
 30
0.0
 10
-10.52453
 20
-15.37404
 30
0.0
 10
-10.523
 20
-15.37564
 30
0.0
 10
-10.52033
 20
-15.37644
 30
0.0
 10
-10.51653
 20
-15.37644
 30
0.0
 10
-10.51653
 20
-15.37644
 30
0.0
 10
-10.51653
 20
-15.37644
 30
0.0
 10
-10.50641
 20
-15.37644
 30
0.0
 10
-10.50641
 20
-15.37644
 30
0.0
 10
-10.50641
 20
-15.37644
 30
0.0
 10
-10.50641
 20
-15.37644
 30
0.0
 10
-10.50641
 20
-15.38362
 30
0.0
 10
-10.50641
 20
-15.38362
 30
0.0
 10
-10.50641
 20
-15.38362
 30
0.0
 10
-10.50641
 20
-15.38362
 30
0.0
 10
-10.5174
 20
-15.38362
 30
0.0
 10
-10.5174
 20
-15.38362
 30
0.0
 10
-10.5174
 20
-15.38362
 30
0.0
 10
-10.52415
 20
-15.38362
 30
0.0
 10
-10.5289
 20
-15.38227
 30
0.0
 10
-10.53167
 20
-15.37957
 30
0.0
 10
-10.53167
 20
-15.37957
 30
0.0
 10
-10.53443
 20
-15.37687
 30
0.0
 10
-10.53582
 20
-15.3722
 30
0.0
 10
-10.53582
 20
-15.3656
 30
0.0
 10
-10.53582
 20
-15.3656
 30
0.0
 10
-10.53582
 20
-15.3656
 30
0.0
 10
-10.53582
 20
-15.33592
 30
0.0
 10
-10.53582
 20
-15.33592
 30
0.0
 10
-10.53582
 20
-15.33592
 30
0.0
 10
-10.53582
 20
-15.33592
 30
0.0
 10
-10.55042
 20
-15.33592
 30
0.0
 10
-10.55042
 20
-15.33592
 30
0.0
 10
-10.55042
 20
-15.33592
 30
0.0
 10
-10.55042
 20
-15.33592
 30
0.0
 10
-10.55042
 20
-15.32893
 30
0.0
 10
-10.55042
 20
-15.32893
 30
0.0
 10
-10.55042
 20
-15.32893
 30
0.0
 10
-10.55042
 20
-15.32893
 30
0.0
 10
-10.53582
 20
-15.32893
 30
0.0
 10
-10.53582
 20
-15.32893
 30
0.0
 10
-10.53582
 20
-15.32893
 30
0.0
 10
-10.53582
 20
-15.32893
 30
0.0
 10
-10.53582
 20
-15.3134
 30
0.0
 10
-10.53582
 20
-15.3134
 30
0.0
 10
-10.53582
 20
-15.3134
 30
0.0
 10
-10.53582
 20
-15.3134
 30
0.0
 10
-10.52683
 20
-15.3134
 30
0.0
 10
-10.52683
 20
-15.3134
 30
0.0
  0
SPLINE
  5
91
330
1F
100
AcDbEntity
  8
Layer 1
 62
   250
100
AcDbSpline
210
0.0
220
0.0
230
1.0
 70
    11
 71
     3
 72
    20
 73
    16
 74
     0
 42
0.0000000001
 43
0.0000000001
 40
0.0
 40
0.0
 40
0.0
 40
0.0
 40
0.25
 40
0.25
 40
0.25
 40
0.25
 40
0.5
 40
0.5
 40
0.5
 40
0.5
 40
0.75
 40
0.75
 40
0.75
 40
0.75
 40
1.0
 40
1.0
 40
1.0
 40
1.0
 10
-10.45319
 20
-15.31071
 30
0.0
 10
-10.45319
 20
-15.31071
 30
0.0
 10
-10.4439
 20
-15.31071
 30
0.0
 10
-10.4439
 20
-15.31071
 30
0.0
 10
-10.4439
 20
-15.31071
 30
0.0
 10
-10.4439
 20
-15.31071
 30
0.0
 10
-10.48229
 20
-15.3929
 30
0.0
 10
-10.48229
 20
-15.3929
 30
0.0
 10
-10.48229
 20
-15.3929
 30
0.0
 10
-10.48229
 20
-15.3929
 30
0.0
 10
-10.49163
 20
-15.3929
 30
0.0
 10
-10.49163
 20
-15.3929
 30
0.0
 10
-10.49163
 20
-15.3929
 30
0.0
 10
-10.49163
 20
-15.3929
 30
0.0
 10
-10.45319
 20
-15.31071
 30
0.0
 10
-10.45319
 20
-15.31071
 30
0.0
  0
SPLINE
  5
92
330
1F
100
AcDbEntity
  8
Layer 1
 62
   250
100
AcDbSpline
210
0.0
220
0.0
230
1.0
 70
    11
 71
     3
 72
    44
 73
    40
 74
     0
 42
0.0000000001
 43
0.0000000001
 40
0.0
 40
0.0
 40
0.0
 40
0.0
 40
0.1
 40
0.1
 40
0.1
 40
0.1
 40
0.2
 40
0.2
 40
0.2
 40
0.2
 40
0.3
 40
0.3
 40
0.3
 40
0.3
 40
0.4
 40
0.4
 40
0.4
 40
0.4
 40
0.5
 40
0.5
 40
0.5
 40
0.5
 40
0.6
 40
0.6
 40
0.6
 40
0.6
 40
0.7
 40
0.7
 40
0.7
 40
0.7
 40
0.7999999999999999
 40
0.7999999999999999
 40
0.7999999999999999
 40
0.7999999999999999
 40
0.8999999999999999
 40
0.8999999999999999
 40
0.8999999999999999
 40
0.8999999999999999
 40
1.0
 40
1.0
 40
1.0
 40
1.0
 10
-10.38209
 20
-15.32341
 30
0.0
 10
-10.38209
 20
-15.32341
 30
0.0
 10
-10.41311
 20
-15.32341
 30
0.0
 10
-10.41311
 20
-15.32341
 30
0.0
 10
-10.41311
 20
-15.32341
 30
0.0
 10
-10.41311
 20
-15.32341
 30
0.0
 10
-10.41311
 20
-15.33913
 30
0.0
 10
-10.41311
 20
-15.33913
 30
0.0
 10
-10.41311
 20
-15.33913
 30
0.0
 10
-10.41311
 20
-15.33913
 30
0.0
 10
-10.38488
 20
-15.33913
 30
0.0
 10
-10.38488
 20
-15.33913
 30
0.0
 10
-10.38488
 20
-15.33913
 30
0.0
 10
-10.38488
 20
-15.33913
 30
0.0
 10
-10.38488
 20
-15.35183
 30
0.0
 10
-10.38488
 20
-15.35183
 30
0.0
 10
-10.38488
 20
-15.35183
 30
0.0
 10
-10.38488
 20
-15.35183
 30
0.0
 10
-10.41311
 20
-15.35183
 30
0.0
 10
-10.41311
 20
-15.35183
 30
0.0
 10
-10.41311
 20
-15.35183
 30
0.0
 10
-10.41311
 20
-15.35183
 30
0.0
 10
-10.41311
 20
-15.38362
 30
0.0
 10
-10.41311
 20
-15.38362
 30
0.0
 10
-10.41311
 20
-15.38362
 30
0.0
 10
-10.41311
 20
-15.38362
 30
0.0
 10
-10.42752
 20
-15.38362
 30
0.0
 10
-10.42752
 20
-15.38362
 30
0.0
 10
-10.42752
 20
-15.38362
 30
0.0
 10
-10.42752
 20
-15.38362
 30
0.0
 10
-10.42752
 20
-15.31071
 30
0.0
 10
-10.42752
 20
-15.31071
 30
0.0
 10
-10.42752
 20
-15.31071
 30
0.0
 10
-10.42752
 20
-15.31071
 30
0.0
 10
-10.38209
 20
-15.31071
 30
0.0
 10
-10.38209
 20
-15.31071
 30
0.0
 10
-10.38209
 20
-15.31071
 30
0.0
 10
-10.38209
 20
-15.31071
 30
0.0
 10
-10.38209
 20
-15.32341
 30
0.0
 10
-10.38209
 20
-15.32341
 30
0.0
  0
SPLINE
  5
93
330
1F
100
AcDbEntity
  8
Layer 1
 62
   250
100
AcDbSpline
210
0.0
220
0.0
230
1.0
 70
    11
 71
     3
 72
    36
 73
    32
 74
     0
 42
0.0000000001
 43
0.0000000001
 40
0.0
 40
0.0
 40
0.0
 40
0.0
 40
0.125
 40
0.125
 40
0.125
 40
0.125
 40
0.25
 40
0.25
 40
0.25
 40
0.25
 40
0.375
 40
0.375
 40
0.375
 40
0.375
 40
0.5
 40
0.5
 40
0.5
 40
0.5
 40
0.625
 40
0.625
 40
0.625
 40
0.625
 40
0.75
 40
0.75
 40
0.75
 40
0.75
 40
0.875
 40
0.875
 40
0.875
 40
0.875
 40
1.0
 40
1.0
 40
1.0
 40
1.0
 10
-10.3461
 20
-15.35108
 30
0.0
 10
-10.34934
 20
-15.35108
 30
0.0
 10
-10.35194
 20
-15.3521
 30
0.0
 10
-10.35392
 20
-15.35413
 30
0.0
 10
-10.35392
 20
-15.35413
 30
0.0
 10
-10.3559
 20
-15.35617
 30
0.0
 10
-10.3569
 20
-15.35887
 30
0.0
 10
-10.3569
 20
-15.36223
 30
0.0
 10
-10.3569
 20
-15.36223
 30
0.0
 10
-10.3569
 20
-15.36558
 30
0.0
 10
-10.3559
 20
-15.36829
 30
0.0
 10
-10.35392
 20
-15.37034
 30
0.0
 10
-10.35392
 20
-15.37034
 30
0.0
 10
-10.35194
 20
-15.37239
 30
0.0
 10
-10.34934
 20
-15.37342
 30
0.0
 10
-10.3461
 20
-15.37342
 30
0.0
 10
-10.3461
 20
-15.37342
 30
0.0
 10
-10.34289
 20
-15.37342
 30
0.0
 10
-10.34027
 20
-15.37237
 30
0.0
 10
-10.33827
 20
-15.37029
 30
0.0
 10
-10.33827
 20
-15.37029
 30
0.0
 10
-10.33627
 20
-15.3682
 30
0.0
 10
-10.33527
 20
-15.36552
 30
0.0
 10
-10.33527
 20
-15.36223
 30
0.0
 10
-10.33527
 20
-15.36223
 30
0.0
 10
-10.33527
 20
-15.35887
 30
0.0
 10
-10.33627
 20
-15.35617
 30
0.0
 10
-10.33825
 20
-15.35413
 30
0.0
 10
-10.33825
 20
-15.35413
 30
0.0
 10
-10.34024
 20
-15.3521
 30
0.0
 10
-10.34285
 20
-15.35108
 30
0.0
 10
-10.3461
 20
-15.35108
 30
0.0
  0
SPLINE
  5
94
330
1F
100
AcDbEntity
  8
Layer 1
 62
   250
100
AcDbSpline
210
0.0
220
0.0
230
1.0
 70
    11
 71
     3
 72
    68
 73
    64
 74
     0
 42
0.0000000001
 43
0.0000000001
 40
0.0
 40
0.0
 40
0.0
 40
0.0
 40
0.0625
 40
0.0625
 40
0.0625
 40
0.0625
 40
0.125
 40
0.125
 40
0.125
 40
0.125
 40
0.1875
 40
0.1875
 40
0.1875
 40
0.1875
 40
0.25
 40
0.25
 40
0.25
 40
0.25
 40
0.3125
 40
0.3125
 40
0.3125
 40
0.3125
 40
0.375
 40
0.375
 40
0.375
 40
0.375
 40
0.4375
 40
0.4375
 40
0.4375
 40
0.4375
 40
0.5
 40
0.5
 40
0.5
 40
0.5
 40
0.5625
 40
0.5625
 40
0.5625
 40
0.5625
 40
0.625
 40
0.625
 40
0.625
 40
0.625
 40
0.6875
 40
0.6875
 40
0.6875
 40
0.6875
 40
0.75
 40
0.75
 40
0.75
 40
0.75
 40
0.8125
 40
0.8125
 40
0.8125
 40
0.8125
 40
0.875
 40
0.875
 40
0.875
 40
0.875
 40
0.9375
 40
0.9375
 40
0.9375
 40
0.9375
 40
1.0
 40
1.0
 40
1.0
 40
1.0
 10
-10.3568
 20
-15.34498
 30
0.0
 10
-10.36049
 20
-15.34372
 30
0.0
 10
-10.36329
 20
-15.34172
 30
0.0
 10
-10.36521
 20
-15.339
 30
0.0
 10
-10.36521
 20
-15.339
 30
0.0
 10
-10.36712
 20
-15.33628
 30
0.0
 10
-10.36809
 20
-15.33296
 30
0.0
 10
-10.36809
 20
-15.32901
 30
0.0
 10
-10.36809
 20
-15.32901
 30
0.0
 10
-10.36809
 20
-15.32296
 30
0.0
 10
-10.36612
 20
-15.31818
 30
0.0
 10
-10.36217
 20
-15.31466
 30
0.0
 10
-10.36217
 20
-15.31466
 30
0.0
 10
-10.35824
 20
-15.31115
 30
0.0
 10
-10.35289
 20
-15.3094
 30
0.0
 10
-10.3461
 20
-15.3094
 30
0.0
 10
-10.3461
 20
-15.3094
 30
0.0
 10
-10.3393
 20
-15.3094
 30
0.0
 10
-10.33394
 20
-15.31115
 30
0.0
 10
-10.33
 20
-15.31466
 30
0.0
 10
-10.33
 20
-15.31466
 30
0.0
 10
-10.32605
 20
-15.31818
 30
0.0
 10
-10.32408
 20
-15.32296
 30
0.0
 10
-10.32408
 20
-15.32901
 30
0.0
 10
-10.32408
 20
-15.32901
 30
0.0
 10
-10.32408
 20
-15.33293
 30
0.0
 10
-10.32503
 20
-15.33623
 30
0.0
 10
-10.32692
 20
-15.33895
 30
0.0
 10
-10.32692
 20
-15.33895
 30
0.0
 10
-10.3288
 20
-15.34167
 30
0.0
 10
-10.33155
 20
-15.34368
 30
0.0
 10
-10.33517
 20
-15.34498
 30
0.0
 10
-10.33517
 20
-15.34498
 30
0.0
 10
-10.33114
 20
-15.34622
 30
0.0
 10
-10.32799
 20
-15.34843
 30
0.0
 10
-10.3257
 20
-15.35163
 30
0.0
 10
-10.3257
 20
-15.35163
 30
0.0
 10
-10.32342
 20
-15.35482
 30
0.0
 10
-10.32228
 20
-15.35865
 30
0.0
 10
-10.32228
 20
-15.3631
 30
0.0
 10
-10.32228
 20
-15.3631
 30
0.0
 10
-10.32228
 20
-15.3701
 30
0.0
 10
-10.32435
 20
-15.37552
 30
0.0
 10
-10.32849
 20
-15.37932
 30
0.0
 10
-10.32849
 20
-15.37932
 30
0.0
 10
-10.33262
 20
-15.38314
 30
0.0
 10
-10.3385
 20
-15.38504
 30
0.0
 10
-10.3461
 20
-15.38504
 30
0.0
 10
-10.3461
 20
-15.38504
 30
0.0
 10
-10.35369
 20
-15.38504
 30
0.0
 10
-10.35956
 20
-15.38314
 30
0.0
 10
-10.36369
 20
-15.37932
 30
0.0
 10
-10.36369
 20
-15.37932
 30
0.0
 10
-10.36782
 20
-15.37552
 30
0.0
 10
-10.36989
 20
-15.3701
 30
0.0
 10
-10.36989
 20
-15.3631
 30
0.0
 10
-10.36989
 20
-15.3631
 30
0.0
 10
-10.36989
 20
-15.35862
 30
0.0
 10
-10.36874
 20
-15.35477
 30
0.0
 10
-10.36642
 20
-15.35158
 30
0.0
 10
-10.36642
 20
-15.35158
 30
0.0
 10
-10.36411
 20
-15.34838
 30
0.0
 10
-10.36091
 20
-15.34618
 30
0.0
 10
-10.3568
 20
-15.34498
 30
0.0
  0
SPLINE
  5
95
330
1F
100
AcDbEntity
  8
Layer 1
 62
   250
100
AcDbSpline
210
0.0
220
0.0
230
1.0
 70
    11
 71
     3
 72
    36
 73
    32
 74
     0
 42
0.0000000001
 43
0.0000000001
 40
0.0
 40
0.0
 40
0.0
 40
0.0
 40
0.125
 40
0.125
 40
0.125
 40
0.125
 40
0.25
 40
0.25
 40
0.25
 40
0.25
 40
0.375
 40
0.375
 40
0.375
 40
0.375
 40
0.5
 40
0.5
 40
0.5
 40
0.5
 40
0.625
 40
0.625
 40
0.625
 40
0.625
 40
0.75
 40
0.75
 40
0.75
 40
0.75
 40
0.875
 40
0.875
 40
0.875
 40
0.875
 40
1.0
 40
1.0
 40
1.0
 40
1.0
 10
-10.35529
 20
-15.3302
 30
0.0
 10
-10.35529
 20
-15.33305
 30
0.0
 10
-10.35447
 20
-15.33533
 30
0.0
 10
-10.35282
 20
-15.337
 30
0.0
 10
-10.35282
 20
-15.337
 30
0.0
 10
-10.35119
 20
-15.33868
 30
0.0
 10
-10.34894
 20
-15.33952
 30
0.0
 10
-10.3461
 20
-15.33952
 30
0.0
 10
-10.3461
 20
-15.33952
 30
0.0
 10
-10.34325
 20
-15.33952
 30
0.0
 10
-10.34099
 20
-15.33868
 30
0.0
 10
-10.33935
 20
-15.337
 30
0.0
 10
-10.33935
 20
-15.337
 30
0.0
 10
-10.3377
 20
-15.33533
 30
0.0
 10
-10.33689
 20
-15.33305
 30
0.0
 10
-10.33689
 20
-15.3302
 30
0.0
 10
-10.33689
 20
-15.3302
 30
0.0
 10
-10.33689
 20
-15.32736
 30
0.0
 10
-10.3377
 20
-15.32513
 30
0.0
 10
-10.33935
 20
-15.32348
 30
0.0
 10
-10.33935
 20
-15.32348
 30
0.0
 10
-10.34099
 20
-15.32183
 30
0.0
 10
-10.34325
 20
-15.32101
 30
0.0
 10
-10.3461
 20
-15.32101
 30
0.0
 10
-10.3461
 20
-15.32101
 30
0.0
 10
-10.3489
 20
-15.32101
 30
0.0
 10
-10.35114
 20
-15.32185
 30
0.0
 10
-10.3528
 20
-15.3235
 30
0.0
 10
-10.3528
 20
-15.3235
 30
0.0
 10
-10.35445
 20
-15.32516
 30
0.0
 10
-10.35529
 20
-15.3274
 30
0.0
 10
-10.35529
 20
-15.3302
 30
0.0
  0
SPLINE
  5
96
330
1F
100
AcDbEntity
  8
Layer 1
 62
   250
100
AcDbSpline
210
0.0
220
0.0
230
1.0
 70
    11
 71
     3
 72
    88
 73
    84
 74
     0
 42
0.0000000001
 43
0.0000000001
 40
0.0
 40
0.0
 40
0.0
 40
0.0
 40
0.0476190476190476
 40
0.0476190476190476
 40
0.0476190476190476
 40
0.0476190476190476
 40
0.0952380952380952
 40
0.0952380952380952
 40
0.0952380952380952
 40
0.0952380952380952
 40
0.1428571428571428
 40
0.1428571428571428
 40
0.1428571428571428
 40
0.1428571428571428
 40
0.1904761904761905
 40
0.1904761904761905
 40
0.1904761904761905
 40
0.1904761904761905
 40
0.2380952380952381
 40
0.2380952380952381
 40
0.2380952380952381
 40
0.2380952380952381
 40
0.2857142857142857
 40
0.2857142857142857
 40
0.2857142857142857
 40
0.2857142857142857
 40
0.3333333333333333
 40
0.3333333333333333
 40
0.3333333333333333
 40
0.3333333333333333
 40
0.3809523809523809
 40
0.3809523809523809
 40
0.3809523809523809
 40
0.3809523809523809
 40
0.4285714285714285
 40
0.4285714285714285
 40
0.4285714285714285
 40
0.4285714285714285
 40
0.4761904761904762
 40
0.4761904761904762
 40
0.4761904761904762
 40
0.4761904761904762
 40
0.5238095238095237
 40
0.5238095238095237
 40
0.5238095238095237
 40
0.5238095238095237
 40
0.5714285714285714
 40
0.5714285714285714
 40
0.5714285714285714
 40
0.5714285714285714
 40
0.6190476190476191
 40
0.6190476190476191
 40
0.6190476190476191
 40
0.6190476190476191
 40
0.6666666666666667
 40
0.6666666666666667
 40
0.6666666666666667
 40
0.6666666666666667
 40
0.7142857142857144
 40
0.7142857142857144
 40
0.7142857142857144
 40
0.7142857142857144
 40
0.7619047619047621
 40
0.7619047619047621
 40
0.7619047619047621
 40
0.7619047619047621
 40
0.8095238095238098
 40
0.8095238095238098
 40
0.8095238095238098
 40
0.8095238095238098
 40
0.8571428571428574
 40
0.8571428571428574
 40
0.8571428571428574
 40
0.8571428571428574
 40
0.9047619047619051
 40
0.9047619047619051
 40
0.9047619047619051
 40
0.9047619047619051
 40
0.9523809523809528
 40
0.9523809523809528
 40
0.9523809523809528
 40
0.9523809523809528
 40
1.0
 40
1.0
 40
1.0
 40
1.0
 10
-10.29479
 20
-15.37092
 30
0.0
 10
-10.29479
 20
-15.37092
 30
0.0
 10
-10.26407
 20
-15.37092
 30
0.0
 10
-10.26407
 20
-15.37092
 30
0.0
 10
-10.26407
 20
-15.37092
 30
0.0
 10
-10.26407
 20
-15.37092
 30
0.0
 10
-10.26407
 20
-15.38362
 30
0.0
 10
-10.26407
 20
-15.38362
 30
0.0
 10
-10.26407
 20
-15.38362
 30
0.0
 10
-10.26407
 20
-15.38362
 30
0.0
 10
-10.31036
 20
-15.38362
 30
0.0
 10
-10.31036
 20
-15.38362
 30
0.0
 10
-10.31036
 20
-15.38362
 30
0.0
 10
-10.31036
 20
-15.38362
 30
0.0
 10
-10.31036
 20
-15.3713
 30
0.0
 10
-10.31036
 20
-15.3713
 30
0.0
 10
-10.31036
 20
-15.3713
 30
0.0
 10
-10.31036
 20
-15.3713
 30
0.0
 10
-10.30255
 20
-15.36302
 30
0.0
 10
-10.30255
 20
-15.36302
 30
0.0
 10
-10.30255
 20
-15.36302
 30
0.0
 10
-10.29328
 20
-15.35315
 30
0.0
 10
-10.28764
 20
-15.34708
 30
0.0
 10
-10.28566
 20
-15.3448
 30
0.0
 10
-10.28566
 20
-15.3448
 30
0.0
 10
-10.28323
 20
-15.342
 30
0.0
 10
-10.28146
 20
-15.33952
 30
0.0
 10
-10.28039
 20
-15.33735
 30
0.0
 10
-10.28039
 20
-15.33735
 30
0.0
 10
-10.27931
 20
-15.33518
 30
0.0
 10
-10.27878
 20
-15.33305
 30
0.0
 10
-10.27878
 20
-15.33093
 30
0.0
 10
-10.27878
 20
-15.33093
 30
0.0
 10
-10.27878
 20
-15.32768
 30
0.0
 10
-10.27976
 20
-15.32516
 30
0.0
 10
-10.28173
 20
-15.3234
 30
0.0
 10
-10.28173
 20
-15.3234
 30
0.0
 10
-10.28369
 20
-15.32161
 30
0.0
 10
-10.28649
 20
-15.32073
 30
0.0
 10
-10.29009
 20
-15.32073
 30
0.0
 10
-10.29009
 20
-15.32073
 30
0.0
 10
-10.29268
 20
-15.32073
 30
0.0
 10
-10.29556
 20
-15.32125
 30
0.0
 10
-10.29876
 20
-15.32226
 30
0.0
 10
-10.29876
 20
-15.32226
 30
0.0
 10
-10.30198
 20
-15.3233
 30
0.0
 10
-10.30531
 20
-15.32478
 30
0.0
 10
-10.3088
 20
-15.32673
 30
0.0
 10
-10.3088
 20
-15.32673
 30
0.0
 10
-10.3088
 20
-15.32673
 30
0.0
 10
-10.3088
 20
-15.3133
 30
0.0
 10
-10.3088
 20
-15.3133
 30
0.0
 10
-10.3088
 20
-15.3133
 30
0.0
 10
-10.30531
 20
-15.31203
 30
0.0
 10
-10.30191
 20
-15.31106
 30
0.0
 10
-10.29856
 20
-15.3104
 30
0.0
 10
-10.29856
 20
-15.3104
 30
0.0
 10
-10.29523
 20
-15.30973
 30
0.0
 10
-10.29203
 20
-15.3094
 30
0.0
 10
-10.28898
 20
-15.3094
 30
0.0
 10
-10.28898
 20
-15.3094
 30
0.0
 10
-10.28126
 20
-15.3094
 30
0.0
 10
-10.27519
 20
-15.3112
 30
0.0
 10
-10.27079
 20
-15.3148
 30
0.0
 10
-10.27079
 20
-15.3148
 30
0.0
 10
-10.26638
 20
-15.31838
 30
0.0
 10
-10.26417
 20
-15.3233
 30
0.0
 10
-10.26417
 20
-15.32951
 30
0.0
 10
-10.26417
 20
-15.32951
 30
0.0
 10
-10.26417
 20
-15.33238
 30
0.0
 10
-10.26466
 20
-15.33507
 30
0.0
 10
-10.26561
 20
-15.33757
 30
0.0
 10
-10.26561
 20
-15.33757
 30
0.0
 10
-10.26658
 20
-15.34008
 30
0.0
 10
-10.26823
 20
-15.34287
 30
0.0
 10
-10.27058
 20
-15.34592
 30
0.0
 10
-10.27058
 20
-15.34592
 30
0.0
 10
-10.27229
 20
-15.34813
 30
0.0
 10
-10.27703
 20
-15.35312
 30
0.0
 10
-10.28478
 20
-15.36087
 30
0.0
 10
-10.28478
 20
-15.36087
 30
0.0
 10
-10.28898
 20
-15.36505
 30
0.0
 10
-10.29231
 20
-15.36842
 30
0.0
 10
-10.29479
 20
-15.37092
 30
0.0
  0
SPLINE
  5
97
330
1F
100
AcDbEntity
  8
Layer 1
 62
   250
100
AcDbSpline
210
0.0
220
0.0
230
1.0
 70
    11
 71
     3
 72
    88
 73
    84
 74
     0
 42
0.0000000001
 43
0.0000000001
 40
0.0
 40
0.0
 40
0.0
 40
0.0
 40
0.0476190476190476
 40
0.0476190476190476
 40
0.0476190476190476
 40
0.0476190476190476
 40
0.0952380952380952
 40
0.0952380952380952
 40
0.0952380952380952
 40
0.0952380952380952
 40
0.1428571428571428
 40
0.1428571428571428
 40
0.1428571428571428
 40
0.1428571428571428
 40
0.1904761904761905
 40
0.1904761904761905
 40
0.1904761904761905
 40
0.1904761904761905
 40
0.2380952380952381
 40
0.2380952380952381
 40
0.2380952380952381
 40
0.2380952380952381
 40
0.2857142857142857
 40
0.2857142857142857
 40
0.2857142857142857
 40
0.2857142857142857
 40
0.3333333333333333
 40
0.3333333333333333
 40
0.3333333333333333
 40
0.3333333333333333
 40
0.3809523809523809
 40
0.3809523809523809
 40
0.3809523809523809
 40
0.3809523809523809
 40
0.4285714285714285
 40
0.4285714285714285
 40
0.4285714285714285
 40
0.4285714285714285
 40
0.4761904761904762
 40
0.4761904761904762
 40
0.4761904761904762
 40
0.4761904761904762
 40
0.5238095238095237
 40
0.5238095238095237
 40
0.5238095238095237
 40
0.5238095238095237
 40
0.5714285714285714
 40
0.5714285714285714
 40
0.5714285714285714
 40
0.5714285714285714
 40
0.6190476190476191
 40
0.6190476190476191
 40
0.6190476190476191
 40
0.6190476190476191
 40
0.6666666666666667
 40
0.6666666666666667
 40
0.6666666666666667
 40
0.6666666666666667
 40
0.7142857142857144
 40
0.7142857142857144
 40
0.7142857142857144
 40
0.7142857142857144
 40
0.7619047619047621
 40
0.7619047619047621
 40
0.7619047619047621
 40
0.7619047619047621
 40
0.8095238095238098
 40
0.8095238095238098
 40
0.8095238095238098
 40
0.8095238095238098
 40
0.8571428571428574
 40
0.8571428571428574
 40
0.8571428571428574
 40
0.8571428571428574
 40
0.9047619047619051
 40
0.9047619047619051
 40
0.9047619047619051
 40
0.9047619047619051
 40
0.9523809523809528
 40
0.9523809523809528
 40
0.9523809523809528
 40
0.9523809523809528
 40
1.0
 40
1.0
 40
1.0
 40
1.0
 10
-10.23458
 20
-15.37092
 30
0.0
 10
-10.23458
 20
-15.37092
 30
0.0
 10
-10.20386
 20
-15.37092
 30
0.0
 10
-10.20386
 20
-15.37092
 30
0.0
 10
-10.20386
 20
-15.37092
 30
0.0
 10
-10.20386
 20
-15.37092
 30
0.0
 10
-10.20386
 20
-15.38362
 30
0.0
 10
-10.20386
 20
-15.38362
 30
0.0
 10
-10.20386
 20
-15.38362
 30
0.0
 10
-10.20386
 20
-15.38362
 30
0.0
 10
-10.25015
 20
-15.38362
 30
0.0
 10
-10.25015
 20
-15.38362
 30
0.0
 10
-10.25015
 20
-15.38362
 30
0.0
 10
-10.25015
 20
-15.38362
 30
0.0
 10
-10.25015
 20
-15.3713
 30
0.0
 10
-10.25015
 20
-15.3713
 30
0.0
 10
-10.25015
 20
-15.3713
 30
0.0
 10
-10.25015
 20
-15.3713
 30
0.0
 10
-10.24234
 20
-15.36302
 30
0.0
 10
-10.24234
 20
-15.36302
 30
0.0
 10
-10.24234
 20
-15.36302
 30
0.0
 10
-10.23307
 20
-15.35315
 30
0.0
 10
-10.22743
 20
-15.34708
 30
0.0
 10
-10.22545
 20
-15.3448
 30
0.0
 10
-10.22545
 20
-15.3448
 30
0.0
 10
-10.22302
 20
-15.342
 30
0.0
 10
-10.22125
 20
-15.33952
 30
0.0
 10
-10.22018
 20
-15.33735
 30
0.0
 10
-10.22018
 20
-15.33735
 30
0.0
 10
-10.2191
 20
-15.33518
 30
0.0
 10
-10.21857
 20
-15.33305
 30
0.0
 10
-10.21857
 20
-15.33093
 30
0.0
 10
-10.21857
 20
-15.33093
 30
0.0
 10
-10.21857
 20
-15.32768
 30
0.0
 10
-10.21955
 20
-15.32516
 30
0.0
 10
-10.22152
 20
-15.3234
 30
0.0
 10
-10.22152
 20
-15.3234
 30
0.0
 10
-10.22348
 20
-15.32161
 30
0.0
 10
-10.22628
 20
-15.32073
 30
0.0
 10
-10.22988
 20
-15.32073
 30
0.0
 10
-10.22988
 20
-15.32073
 30
0.0
 10
-10.23247
 20
-15.32073
 30
0.0
 10
-10.23535
 20
-15.32125
 30
0.0
 10
-10.23855
 20
-15.32226
 30
0.0
 10
-10.23855
 20
-15.32226
 30
0.0
 10
-10.24177
 20
-15.3233
 30
0.0
 10
-10.2451
 20
-15.32478
 30
0.0
 10
-10.24859
 20
-15.32673
 30
0.0
 10
-10.24859
 20
-15.32673
 30
0.0
 10
-10.24859
 20
-15.32673
 30
0.0
 10
-10.24859
 20
-15.3133
 30
0.0
 10
-10.24859
 20
-15.3133
 30
0.0
 10
-10.24859
 20
-15.3133
 30
0.0
 10
-10.2451
 20
-15.31203
 30
0.0
 10
-10.2417
 20
-15.31106
 30
0.0
 10
-10.23835
 20
-15.3104
 30
0.0
 10
-10.23835
 20
-15.3104
 30
0.0
 10
-10.23502
 20
-15.30973
 30
0.0
 10
-10.23182
 20
-15.3094
 30
0.0
 10
-10.22877
 20
-15.3094
 30
0.0
 10
-10.22877
 20
-15.3094
 30
0.0
 10
-10.22105
 20
-15.3094
 30
0.0
 10
-10.21498
 20
-15.3112
 30
0.0
 10
-10.21058
 20
-15.3148
 30
0.0
 10
-10.21058
 20
-15.3148
 30
0.0
 10
-10.20617
 20
-15.31838
 30
0.0
 10
-10.20396
 20
-15.3233
 30
0.0
 10
-10.20396
 20
-15.32951
 30
0.0
 10
-10.20396
 20
-15.32951
 30
0.0
 10
-10.20396
 20
-15.33238
 30
0.0
 10
-10.20445
 20
-15.33507
 30
0.0
 10
-10.2054
 20
-15.33757
 30
0.0
 10
-10.2054
 20
-15.33757
 30
0.0
 10
-10.20637
 20
-15.34008
 30
0.0
 10
-10.20802
 20
-15.34287
 30
0.0
 10
-10.21037
 20
-15.34592
 30
0.0
 10
-10.21037
 20
-15.34592
 30
0.0
 10
-10.21208
 20
-15.34813
 30
0.0
 10
-10.21682
 20
-15.35312
 30
0.0
 10
-10.22457
 20
-15.36087
 30
0.0
 10
-10.22457
 20
-15.36087
 30
0.0
 10
-10.22877
 20
-15.36505
 30
0.0
 10
-10.2321
 20
-15.36842
 30
0.0
 10
-10.23458
 20
-15.37092
 30
0.0
  0
SPLINE
  5
98
330
1F
100
AcDbEntity
  8
Layer 1
 62
   250
100
AcDbSpline
210
0.0
220
0.0
230
1.0
 70
    11
 71
     3
 72
    48
 73
    44
 74
     0
 42
0.0000000001
 43
0.0000000001
 40
0.0
 40
0.0
 40
0.0
 40
0.0
 40
0.0909090909090909
 40
0.0909090909090909
 40
0.0909090909090909
 40
0.0909090909090909
 40
0.1818181818181818
 40
0.1818181818181818
 40
0.1818181818181818
 40
0.1818181818181818
 40
0.2727272727272727
 40
0.2727272727272727
 40
0.2727272727272727
 40
0.2727272727272727
 40
0.3636363636363636
 40
0.3636363636363636
 40
0.3636363636363636
 40
0.3636363636363636
 40
0.4545454545454546
 40
0.4545454545454546
 40
0.4545454545454546
 40
0.4545454545454546
 40
0.5454545454545455
 40
0.5454545454545455
 40
0.5454545454545455
 40
0.5454545454545455
 40
0.6363636363636365
 40
0.6363636363636365
 40
0.6363636363636365
 40
0.6363636363636365
 40
0.7272727272727274
 40
0.7272727272727274
 40
0.7272727272727274
 40
0.7272727272727274
 40
0.8181818181818183
 40
0.8181818181818183
 40
0.8181818181818183
 40
0.8181818181818183
 40
0.9090909090909093
 40
0.9090909090909093
 40
0.9090909090909093
 40
0.9090909090909093
 40
1.0
 40
1.0
 40
1.0
 40
1.0
 10
-10.18638
 20
-15.37092
 30
0.0
 10
-10.18638
 20
-15.37092
 30
0.0
 10
-10.17026
 20
-15.37092
 30
0.0
 10
-10.17026
 20
-15.37092
 30
0.0
 10
-10.17026
 20
-15.37092
 30
0.0
 10
-10.17026
 20
-15.37092
 30
0.0
 10
-10.17026
 20
-15.3236
 30
0.0
 10
-10.17026
 20
-15.3236
 30
0.0
 10
-10.17026
 20
-15.3236
 30
0.0
 10
-10.17026
 20
-15.3236
 30
0.0
 10
-10.18524
 20
-15.32731
 30
0.0
 10
-10.18524
 20
-15.32731
 30
0.0
 10
-10.18524
 20
-15.32731
 30
0.0
 10
-10.18524
 20
-15.32731
 30
0.0
 10
-10.18524
 20
-15.31433
 30
0.0
 10
-10.18524
 20
-15.31433
 30
0.0
 10
-10.18524
 20
-15.31433
 30
0.0
 10
-10.18524
 20
-15.31433
 30
0.0
 10
-10.17016
 20
-15.31071
 30
0.0
 10
-10.17016
 20
-15.31071
 30
0.0
 10
-10.17016
 20
-15.31071
 30
0.0
 10
-10.17016
 20
-15.31071
 30
0.0
 10
-10.15624
 20
-15.31071
 30
0.0
 10
-10.15624
 20
-15.31071
 30
0.0
 10
-10.15624
 20
-15.31071
 30
0.0
 10
-10.15624
 20
-15.31071
 30
0.0
 10
-10.15624
 20
-15.37092
 30
0.0
 10
-10.15624
 20
-15.37092
 30
0.0
 10
-10.15624
 20
-15.37092
 30
0.0
 10
-10.15624
 20
-15.37092
 30
0.0
 10
-10.14012
 20
-15.37092
 30
0.0
 10
-10.14012
 20
-15.37092
 30
0.0
 10
-10.14012
 20
-15.37092
 30
0.0
 10
-10.14012
 20
-15.37092
 30
0.0
 10
-10.14012
 20
-15.38362
 30
0.0
 10
-10.14012
 20
-15.38362
 30
0.0
 10
-10.14012
 20
-15.38362
 30
0.0
 10
-10.14012
 20
-15.38362
 30
0.0
 10
-10.18638
 20
-15.38362
 30
0.0
 10
-10.18638
 20
-15.38362
 30
0.0
 10
-10.18638
 20
-15.38362
 30
0.0
 10
-10.18638
 20
-15.38362
 30
0.0
 10
-10.18638
 20
-15.37092
 30
0.0
 10
-10.18638
 20
-15.37092
 30
0.0
  0
ENDSEC
  0
SECTION
  2
OBJECTS
  0
DICTIONARY
  5
C
330
0
100
AcDbDictionary
281
     1
  3
ACAD_GROUP
350
D
  3
ACAD_LAYOUT
350
1A
  3
ACAD_MLEADERSTYLE
350
9A
  3
ACAD_MLINESTYLE
350
17
  3
ACAD_PLOTSETTINGS
350
19
  3
ACAD_PLOTSTYLENAME
350
E
  3
ACAD_SCALELIST
350
3B
  3
ACAD_TABLESTYLE
350
99
  3
ACAD_VISUALSTYLE
350
2A
  0
DICTIONARY
  5
D
102
{ACAD_REACTORS
330
C
102
}
330
C
100
AcDbDictionary
281
     1
  0
DICTIONARY
  5
1A
102
{ACAD_REACTORS
330
C
102
}
330
C
100
AcDbDictionary
281
     1
  3
Layout1
350
1E
  3
Layout2
350
26
  3
Model
350
22
  0
DICTIONARY
  5
9A
102
{ACAD_REACTORS
330
C
102
}
330
C
100
AcDbDictionary
281
     1
  0
DICTIONARY
  5
17
102
{ACAD_REACTORS
330
C
102
}
330
C
100
AcDbDictionary
281
     1
  3
Standard
350
18
  0
DICTIONARY
  5
19
102
{ACAD_REACTORS
330
C
102
}
330
C
100
AcDbDictionary
281
     1
  0
ACDBDICTIONARYWDFLT
  5
E
102
{ACAD_REACTORS
330
C
102
}
330
C
100
AcDbDictionary
281
     1
  3
Normal
350
F
100
AcDbDictionaryWithDefault
340
F
  0
DICTIONARY
  5
3B
102
{ACAD_REACTORS
330
C
102
}
330
C
100
AcDbDictionary
281
     1
  3
A0
350
3C
  3
A1
350
3D
  3
A2
350
3E
  3
A3
350
3F
  3
A4
350
40
  3
A5
350
41
  3
A6
350
42
  3
A7
350
43
  3
A8
350
44
  3
A9
350
45
  3
B0
350
46
  3
B1
350
47
  3
B2
350
48
  3
B3
350
49
  3
B4
350
4A
  3
B5
350
4B
  3
B6
350
4C
  3
B7
350
4D
  3
B8
350
4E
  3
B9
350
4F
  3
C0
350
50
  3
C1
350
51
  3
C2
350
52
  3
C3
350
53
  3
C4
350
54
  3
C5
350
55
  3
C6
350
56
  3
C7
350
57
  3
C8
350
58
  3
C9
350
59
  3
D0
350
5A
  3
D1
350
5B
  3
D2
350
5C
  0
DICTIONARY
  5
99
102
{ACAD_REACTORS
330
C
102
}
330
C
100
AcDbDictionary
281
     1
  0
DICTIONARY
  5
2A
102
{ACAD_REACTORS
330
C
102
}
330
C
100
AcDbDictionary
281
     1
  3
2dWireframe
350
2F
  3
3D Hidden
350
31
  3
3dWireframe
350
30
  3
Basic
350
32
  3
Brighten
350
36
  3
ColorChange
350
3A
  3
Conceptual
350
34
  3
Dim
350
35
  3
Facepattern
350
39
  3
Flat
350
2B
  3
FlatWithEdges
350
2C
  3
Gouraud
350
2D
  3
GouraudWithEdges
350
2E
  3
Linepattern
350
38
  3
Realistic
350
33
  3
Thicken
350
37
  0
LAYOUT
  5
1E
102
{ACAD_REACTORS
330
1A
102
}
330
1A
100
AcDbPlotSettings
  1

  2
none_device
  4

  6

 40
0.0
 41
0.0
 42
0.0
 43
0.0
 44
0.0
 45
0.0
 46
0.0
 47
0.0
 48
0.0
 49
0.0
140
0.0
141
0.0
142
1.0
143
1.0
 70
   688
 72
     0
 73
     0
 74
     5
  7

 75
    16
 76
     0
 77
     2
 78
   300
147
1.0
148
0.0
149
0.0
100
AcDbLayout
  1
Layout1
 70
     1
 71
     1
 10
0.0
 20
0.0
 11
12.0
 21
9.0
 12
0.0
 22
0.0
 32
0.0
 14
1.000000000000000E+20
 24
1.000000000000000E+20
 34
1.000000000000000E+20
 15
-1.000000000000000E+20
 25
-1.000000000000000E+20
 35
-1.000000000000000E+20
146
0.0
 13
0.0
 23
0.0
 33
0.0
 16
1.0
 26
0.0
 36
0.0
 17
0.0
 27
1.0
 37
0.0
 76
     0
330
1B
  0
LAYOUT
  5
26
102
{ACAD_REACTORS
330
1A
102
}
330
1A
100
AcDbPlotSettings
  1

  2
none_device
  4

  6

 40
0.0
 41
0.0
 42
0.0
 43
0.0
 44
0.0
 45
0.0
 46
0.0
 47
0.0
 48
0.0
 49
0.0
140
0.0
141
0.0
142
1.0
143
1.0
 70
   688
 72
     0
 73
     0
 74
     5
  7

 75
    16
 76
     0
 77
     2
 78
   300
147
1.0
148
0.0
149
0.0
100
AcDbLayout
  1
Layout2
 70
     1
 71
     2
 10
0.0
 20
0.0
 11
0.0
 21
0.0
 12
0.0
 22
0.0
 32
0.0
 14
0.0
 24
0.0
 34
0.0
 15
0.0
 25
0.0
 35
0.0
146
0.0
 13
0.0
 23
0.0
 33
0.0
 16
1.0
 26
0.0
 36
0.0
 17
0.0
 27
1.0
 37
0.0
 76
     0
330
23
  0
LAYOUT
  5
22
102
{ACAD_REACTORS
330
1A
102
}
330
1A
100
AcDbPlotSettings
  1

  2
none_device
  4

  6

 40
0.0
 41
0.0
 42
0.0
 43
0.0
 44
0.0
 45
0.0
 46
0.0
 47
0.0
 48
0.0
 49
0.0
140
0.0
141
0.0
142
1.0
143
1.0
 70
  1712
 72
     0
 73
     0
 74
     0
  7

 75
     0
 76
     0
 77
     2
 78
   300
147
1.0
148
0.0
149
0.0
100
AcDbLayout
  1
Model
 70
     1
 71
     0
 10
0.0
 20
0.0
 11
12.0
 21
9.0
 12
0.0
 22
0.0
 32
0.0
 14
-11.55
 24
-15.85
 34
0.0
 15
-9.45
 25
-13.85
 35
0.0
146
0.0
 13
0.0
 23
0.0
 33
0.0
 16
1.0
 26
0.0
 36
0.0
 17
0.0
 27
1.0
 37
0.0
 76
     0
330
1F
331
29
  0
MLINESTYLE
  5
18
102
{ACAD_REACTORS
330
17
102
}
330
17
100
AcDbMlineStyle
  2
Standard
 70
     0
  3

 62
   256
 51
90.0
 52
90.0
 71
     2
 49
0.5
 62
   256
  6
BYLAYER
 49
-0.5
 62
   256
  6
BYLAYER
  0
ACDBPLACEHOLDER
  5
F
102
{ACAD_REACTORS
330
E
102
}
330
E
  0
SCALE
  5
3C
102
{ACAD_REACTORS
330
3B
102
}
330
3B
100
AcDbScale
 70
     0
300
1:1
140
1.0
141
1.0
290
     1
  0
SCALE
  5
3D
102
{ACAD_REACTORS
330
3B
102
}
330
3B
100
AcDbScale
 70
     0
300
1:2
140
1.0
141
2.0
290
     0
  0
SCALE
  5
3E
102
{ACAD_REACTORS
330
3B
102
}
330
3B
100
AcDbScale
 70
     0
300
1:4
140
1.0
141
4.0
290
     0
  0
SCALE
  5
3F
102
{ACAD_REACTORS
330
3B
102
}
330
3B
100
AcDbScale
 70
     0
300
1:5
140
1.0
141
5.0
290
     0
  0
SCALE
  5
40
102
{ACAD_REACTORS
330
3B
102
}
330
3B
100
AcDbScale
 70
     0
300
1:8
140
1.0
141
8.0
290
     0
  0
SCALE
  5
41
102
{ACAD_REACTORS
330
3B
102
}
330
3B
100
AcDbScale
 70
     0
300
1:10
140
1.0
141
10.0
290
     0
  0
SCALE
  5
42
102
{ACAD_REACTORS
330
3B
102
}
330
3B
100
AcDbScale
 70
     0
300
1:16
140
1.0
141
16.0
290
     0
  0
SCALE
  5
43
102
{ACAD_REACTORS
330
3B
102
}
330
3B
100
AcDbScale
 70
     0
300
1:20
140
1.0
141
20.0
290
     0
  0
SCALE
  5
44
102
{ACAD_REACTORS
330
3B
102
}
330
3B
100
AcDbScale
 70
     0
300
1:30
140
1.0
141
30.0
290
     0
  0
SCALE
  5
45
102
{ACAD_REACTORS
330
3B
102
}
330
3B
100
AcDbScale
 70
     0
300
1:40
140
1.0
141
40.0
290
     0
  0
SCALE
  5
46
102
{ACAD_REACTORS
330
3B
102
}
330
3B
100
AcDbScale
 70
     0
300
1:50
140
1.0
141
50.0
290
     0
  0
SCALE
  5
47
102
{ACAD_REACTORS
330
3B
102
}
330
3B
100
AcDbScale
 70
     0
300
1:100
140
1.0
141
100.0
290
     0
  0
SCALE
  5
48
102
{ACAD_REACTORS
330
3B
102
}
330
3B
100
AcDbScale
 70
     0
300
2:1
140
2.0
141
1.0
290
     0
  0
SCALE
  5
49
102
{ACAD_REACTORS
330
3B
102
}
330
3B
100
AcDbScale
 70
     0
300
4:1
140
4.0
141
1.0
290
     0
  0
SCALE
  5
4A
102
{ACAD_REACTORS
330
3B
102
}
330
3B
100
AcDbScale
 70
     0
300
8:1
140
8.0
141
1.0
290
     0
  0
SCALE
  5
4B
102
{ACAD_REACTORS
330
3B
102
}
330
3B
100
AcDbScale
 70
     0
300
10:1
140
10.0
141
1.0
290
     0
  0
SCALE
  5
4C
102
{ACAD_REACTORS
330
3B
102
}
330
3B
100
AcDbScale
 70
     0
300
100:1
140
100.0
141
1.0
290
     0
  0
SCALE
  5
4D
102
{ACAD_REACTORS
330
3B
102
}
330
3B
100
AcDbScale
 70
     0
300
1/128" = 1'-0"
140
0.0078125
141
12.0
290
     0
  0
SCALE
  5
4E
102
{ACAD_REACTORS
330
3B
102
}
330
3B
100
AcDbScale
 70
     0
300
1/64" = 1'-0"
140
0.015625
141
12.0
290
     0
  0
SCALE
  5
4F
102
{ACAD_REACTORS
330
3B
102
}
330
3B
100
AcDbScale
 70
     0
300
1/32" = 1'-0"
140
0.03125
141
12.0
290
     0
  0
SCALE
  5
50
102
{ACAD_REACTORS
330
3B
102
}
330
3B
100
AcDbScale
 70
     0
300
1/16" = 1'-0"
140
0.0625
141
12.0
290
     0
  0
SCALE
  5
51
102
{ACAD_REACTORS
330
3B
102
}
330
3B
100
AcDbScale
 70
     0
300
3/32" = 1'-0"
140
0.09375
141
12.0
290
     0
  0
SCALE
  5
52
102
{ACAD_REACTORS
330
3B
102
}
330
3B
100
AcDbScale
 70
     0
300
1/8" = 1'-0"
140
0.125
141
12.0
290
     0
  0
SCALE
  5
53
102
{ACAD_REACTORS
330
3B
102
}
330
3B
100
AcDbScale
 70
     0
300
3/16" = 1'-0"
140
0.1875
141
12.0
290
     0
  0
SCALE
  5
54
102
{ACAD_REACTORS
330
3B
102
}
330
3B
100
AcDbScale
 70
     0
300
1/4" = 1'-0"
140
0.25
141
12.0
290
     0
  0
SCALE
  5
55
102
{ACAD_REACTORS
330
3B
102
}
330
3B
100
AcDbScale
 70
     0
300
3/8" = 1'-0"
140
0.375
141
12.0
290
     0
  0
SCALE
  5
56
102
{ACAD_REACTORS
330
3B
102
}
330
3B
100
AcDbScale
 70
     0
300
1/2" = 1'-0"
140
0.5
141
12.0
290
     0
  0
SCALE
  5
57
102
{ACAD_REACTORS
330
3B
102
}
330
3B
100
AcDbScale
 70
     0
300
3/4" = 1'-0"
140
0.75
141
12.0
290
     0
  0
SCALE
  5
58
102
{ACAD_REACTORS
330
3B
102
}
330
3B
100
AcDbScale
 70
     0
300
1" = 1'-0"
140
1.0
141
12.0
290
     0
  0
SCALE
  5
59
102
{ACAD_REACTORS
330
3B
102
}
330
3B
100
AcDbScale
 70
     0
300
1-1/2" = 1'-0"
140
1.5
141
12.0
290
     0
  0
SCALE
  5
5A
102
{ACAD_REACTORS
330
3B
102
}
330
3B
100
AcDbScale
 70
     0
300
3" = 1'-0"
140
3.0
141
12.0
290
     0
  0
SCALE
  5
5B
102
{ACAD_REACTORS
330
3B
102
}
330
3B
100
AcDbScale
 70
     0
300
6" = 1'-0"
140
6.0
141
12.0
290
     0
  0
SCALE
  5
5C
102
{ACAD_REACTORS
330
3B
102
}
330
3B
100
AcDbScale
 70
     0
300
1'-0" = 1'-0"
140
12.0
141
12.0
290
     0
  0
VISUALSTYLE
  5
2F
102
{ACAD_REACTORS
330
2A
102
}
330
2A
100
AcDbVisualStyle
  2
2dWireframe
 70
     4
 71
     0
 72
     2
 73
     0
 90
        0
 40
-0.6
 41
-30.0
 62
     5
 63
     7
421
 16777215
 74
     1
 91
        4
 64
     7
 65
   257
 75
     1
175
     1
 42
1.0
 92
        0
 66
   257
 43
1.0
 76
     1
 77
     6
 78
     2
 67
     7
 79
     5
170
     0
171
     0
290
     0
174
     0
 93
        1
 44
0.0
173
     0
291
     0
 45
0.0
  0
VISUALSTYLE
  5
31
102
{ACAD_REACTORS
330
2A
102
}
330
2A
100
AcDbVisualStyle
  2
3D Hidden
 70
     6
 71
     1
 72
     2
 73
     2
 90
        0
 40
-0.6
 41
-30.0
 62
     5
 63
     7
421
 16777215
 74
     2
 91
        2
 64
     7
 65
   257
 75
     2
175
     1
 42
40.0
 92
        0
 66
   257
 43
1.0
 76
     1
 77
     6
 78
     2
 67
     7
 79
     3
170
     0
171
     0
290
     0
174
     0
 93
        1
 44
0.0
173
     0
291
     0
 45
0.0
  0
VISUALSTYLE
  5
30
102
{ACAD_REACTORS
330
2A
102
}
330
2A
100
AcDbVisualStyle
  2
3dWireframe
 70
     5
 71
     0
 72
     2
 73
     0
 90
        0
 40
-0.6
 41
-30.0
 62
     5
 63
     7
421
 16777215
 74
     1
 91
        4
 64
     7
 65
   257
 75
     1
175
     1
 42
1.0
 92
        0
 66
   257
 43
1.0
 76
     1
 77
     6
 78
     2
 67
     7
 79
     5
170
     0
171
     0
290
     0
174
     0
 93
        1
 44
0.0
173
     0
291
     0
 45
0.0
  0
VISUALSTYLE
  5
32
102
{ACAD_REACTORS
330
2A
102
}
330
2A
100
AcDbVisualStyle
  2
Basic
 70
     7
 71
     1
 72
     0
 73
     1
 90
        0
 40
-0.6
 41
-30.0
 62
     5
 63
     7
421
 16777215
 74
     0
 91
        4
 64
     7
 65
   257
 75
     1
175
     1
 42
1.0
 92
        8
 66
     7
 43
1.0
 76
     1
 77
     6
 78
     2
 67
     7
 79
     5
170
     0
171
     0
290
     0
174
     0
 93
        1
 44
0.0
173
     0
291
     1
 45
0.0
  0
VISUALSTYLE
  5
36
102
{ACAD_REACTORS
330
2A
102
}
330
2A
100
AcDbVisualStyle
  2
Brighten
 70
    12
 71
     2
 72
     2
 73
     0
 90
        0
 40
-0.6
 41
-30.0
 62
     5
 63
     7
421
 16777215
 74
     1
 91
        4
 64
     7
 65
   257
 75
     1
175
     1
 42
1.0
 92
        8
 66
     7
 43
1.0
 76
     1
 77
     6
 78
     2
 67
     7
 79
     5
170
     0
171
     0
290
     0
174
     0
 93
        1
 44
50.0
173
     0
291
     1
 45
0.0
  0
VISUALSTYLE
  5
3A
102
{ACAD_REACTORS
330
2A
102
}
330
2A
100
AcDbVisualStyle
  2
ColorChange
 70
    16
 71
     2
 72
     2
 73
     3
 90
        0
 40
-0.6
 41
-30.0
 62
     5
 63
     8
421
  8421504
 74
     1
 91
        4
 64
     7
 65
   257
 75
     1
175
     1
 42
1.0
 92
        8
 66
     8
424
  8421504
 43
1.0
 76
     1
 77
     6
 78
     2
 67
     7
 79
     5
170
     0
171
     0
290
     0
174
     0
 93
        1
 44
0.0
173
     0
291
     1
 45
0.0
  0
VISUALSTYLE
  5
34
102
{ACAD_REACTORS
330
2A
102
}
330
2A
100
AcDbVisualStyle
  2
Conceptual
 70
     9
 71
     3
 72
     2
 73
     0
 90
        0
 40
-0.6
 41
-30.0
 62
     5
 63
     7
421
 16777215
 74
     2
 91
        2
 64
     7
 65
   257
 75
     1
175
     1
 42
40.0
 92
        8
 66
     7
 43
1.0
 76
     1
 77
     6
 78
     2
 67
     7
 79
     3
170
     0
171
     0
290
     0
174
     0
 93
        1
 44
0.0
173
     0
291
     0
 45
0.0
  0
VISUALSTYLE
  5
35
102
{ACAD_REACTORS
330
2A
102
}
330
2A
100
AcDbVisualStyle
  2
Dim
 70
    11
 71
     2
 72
     2
 73
     0
 90
        0
 40
-0.6
 41
-30.0
 62
     5
 63
     7
421
 16777215
 74
     1
 91
        4
 64
     7
 65
   257
 75
     1
175
     1
 42
1.0
 92
        8
 66
     7
 43
1.0
 76
     1
 77
     6
 78
     2
 67
     7
 79
     5
170
     0
171
     0
290
     0
174
     0
 93
        1
 44
-50.0
173
     0
291
     1
 45
0.0
  0
VISUALSTYLE
  5
39
102
{ACAD_REACTORS
330
2A
102
}
330
2A
100
AcDbVisualStyle
  2
Facepattern
 70
    15
 71
     2
 72
     2
 73
     0
 90
        0
 40
-0.6
 41
-30.0
 62
     5
 63
     7
421
 16777215
 74
     1
 91
        4
 64
     7
 65
   257
 75
     1
175
     1
 42
1.0
 92
        8
 66
     7
 43
1.0
 76
     1
 77
     6
 78
     2
 67
     7
 79
     5
170
     0
171
     0
290
     0
174
     0
 93
        1
 44
0.0
173
     0
291
     1
 45
0.0
  0
VISUALSTYLE
  5
2B
102
{ACAD_REACTORS
330
2A
102
}
330
2A
100
AcDbVisualStyle
  2
Flat
 70
     0
 71
     2
 72
     1
 73
     1
 90
        2
 40
-0.6
 41
30.0
 62
     5
 63
     7
421
 16777215
 74
     0
 91
        4
 64
     7
 65
   257
 75
     1
175
     1
 42
1.0
 92
        8
 66
     7
 43
1.0
 76
     1
 77
     6
 78
     2
 67
     7
 79
     5
170
     0
171
     0
290
     0
174
     0
 93
       13
 44
0.0
173
     0
291
     1
 45
0.0
  0
VISUALSTYLE
  5
2C
102
{ACAD_REACTORS
330
2A
102
}
330
2A
100
AcDbVisualStyle
  2
FlatWithEdges
 70
     1
 71
     2
 72
     1
 73
     1
 90
        2
 40
-0.6
 41
30.0
 62
     5
 63
     7
421
 16777215
 74
     1
 91
        4
 64
     7
 65
   257
 75
     1
175
     1
 42
1.0
 92
        0
 66
   257
 43
1.0
 76
     1
 77
     6
 78
     2
 67
     7
 79
     5
170
     0
171
     0
290
     0
174
     0
 93
       13
 44
0.0
173
     0
291
     1
 45
0.0
  0
VISUALSTYLE
  5
2D
102
{ACAD_REACTORS
330
2A
102
}
330
2A
100
AcDbVisualStyle
  2
Gouraud
 70
     2
 71
     2
 72
     2
 73
     1
 90
        2
 40
-0.6
 41
30.0
 62
     5
 63
     7
421
 16777215
 74
     0
 91
        4
 64
     7
 65
   257
 75
     1
175
     1
 42
1.0
 92
        0
 66
     7
 43
1.0
 76
     1
 77
     6
 78
     2
 67
     7
 79
     5
170
     0
171
     0
290
     0
174
     0
 93
       13
 44
0.0
173
     0
291
     1
 45
0.0
  0
VISUALSTYLE
  5
2E
102
{ACAD_REACTORS
330
2A
102
}
330
2A
100
AcDbVisualStyle
  2
GouraudWithEdges
 70
     3
 71
     2
 72
     2
 73
     1
 90
        2
 40
-0.6
 41
30.0
 62
     5
 63
     7
421
 16777215
 74
     1
 91
        4
 64
     7
 65
   257
 75
     1
175
     1
 42
1.0
 92
        0
 66
   257
 43
1.0
 76
     1
 77
     6
 78
     2
 67
     7
 79
     5
170
     0
171
     0
290
     0
174
     0
 93
       13
 44
0.0
173
     0
291
     1
 45
0.0
  0
VISUALSTYLE
  5
38
102
{ACAD_REACTORS
330
2A
102
}
330
2A
100
AcDbVisualStyle
  2
Linepattern
 70
    14
 71
     2
 72
     2
 73
     0
 90
        0
 40
-0.6
 41
-30.0
 62
     5
 63
     7
421
 16777215
 74
     1
 91
        4
 64
     7
 65
   257
 75
     7
175
     7
 42
1.0
 92
        8
 66
     7
 43
1.0
 76
     1
 77
     6
 78
     2
 67
     7
 79
     5
170
     0
171
     0
290
     0
174
     0
 93
        1
 44
0.0
173
     0
291
     1
 45
0.0
  0
VISUALSTYLE
  5
33
102
{ACAD_REACTORS
330
2A
102
}
330
2A
100
AcDbVisualStyle
  2
Realistic
 70
     8
 71
     2
 72
     2
 73
     0
 90
        0
 40
-0.6
 41
-30.0
 62
     5
 63
     7
421
 16777215
 74
     1
 91
        0
 64
     7
 65
   257
 75
     1
175
     1
 42
1.0
 92
        8
 66
     8
424
  7895160
 43
1.0
 76
     1
 77
     6
 78
     2
 67
     7
 79
     5
170
     0
171
     0
290
     0
174
     0
 93
       13
 44
0.0
173
     0
291
     0
 45
0.0
  0
VISUALSTYLE
  5
37
102
{ACAD_REACTORS
330
2A
102
}
330
2A
100
AcDbVisualStyle
  2
Thicken
 70
    13
 71
     2
 72
     2
 73
     0
 90
        0
 40
-0.6
 41
-30.0
 62
     5
 63
     7
421
 16777215
 74
     1
 91
        4
 64
     7
 65
   257
 75
     1
175
     1
 42
1.0
 92
       12
 66
     7
 43
1.0
 76
     1
 77
     6
 78
     2
 67
     7
 79
     5
170
     0
171
     0
290
     0
174
     0
 93
        1
 44
0.0
173
     0
291
     1
 45
0.0
  0
ENDSEC
  0
EOF
