  0
SECTION
  2
HEADER
  9
$ACADVER
  1
AC1021
  9
$ACADMAINTVER
 70
    25
  9
$DWGCODEPAGE
  3
ANSI_1252
  9
$INSBASE
 10
0.0
 20
0.0
 30
0.0
  9
$EXTMIN
 10
-10.585
 20
-14.895
 30
0.0
  9
$EXTMAX
 10
-10.415
 20
-14.805
 30
0.0
  9
$LIMMIN
 10
0.0
 20
0.0
  9
$LIMMAX
 10
12.0
 20
9.0
  9
$ORTHOMODE
 70
     0
  9
$REGENMODE
 70
     1
  9
$FILLMODE
 70
     1
  9
$QTEXTMODE
 70
     0
  9
$MIRRTEXT
 70
     1
  9
$LTSCALE
 40
1.0
  9
$ATTMODE
 70
     1
  9
$TEXTSIZE
 40
0.2
  9
$TRACEWID
 40
0.05
  9
$TEXTSTYLE
  7
Standard
  9
$CLAYER
  8
0
  9
$CELTYPE
  6
ByLayer
  9
$CECOLOR
 62
   256
  9
$CELTSCALE
 40
1.0
  9
$DISPSILH
 70
     0
  9
$DIMSCALE
 40
1.0
  9
$DIMASZ
 40
0.18
  9
$DIMEXO
 40
0.0625
  9
$DIMDLI
 40
0.38
  9
$DIMRND
 40
0.0
  9
$DIMDLE
 40
0.0
  9
$DIMEXE
 40
0.18
  9
$DIMTP
 40
0.0
  9
$DIMTM
 40
0.0
  9
$DIMTXT
 40
0.18
  9
$DIMCEN
 40
0.09
  9
$DIMTSZ
 40
0.0
  9
$DIMTOL
 70
     0
  9
$DIMLIM
 70
     0
  9
$DIMTIH
 70
     1
  9
$DIMTOH
 70
     1
  9
$DIMSE1
 70
     0
  9
$DIMSE2
 70
     0
  9
$DIMTAD
 70
     0
  9
$DIMZIN
 70
     0
  9
$DIMBLK
  1

  9
$DIMASO
 70
     1
  9
$DIMSHO
 70
     1
  9
$DIMPOST
  1

  9
$DIMAPOST
  1

  9
$DIMALT
 70
     0
  9
$DIMALTD
 70
     2
  9
$DIMALTF
 40
25.4
  9
$DIMLFAC
 40
1.0
  9
$DIMTOFL
 70
     0
  9
$DIMTVP
 40
0.0
  9
$DIMTIX
 70
     0
  9
$DIMSOXD
 70
     0
  9
$DIMSAH
 70
     0
  9
$DIMBLK1
  1

  9
$DIMBLK2
  1

  9
$DIMSTYLE
  2
Standard
  9
$DIMCLRD
 70
     0
  9
$DIMCLRE
 70
     0
  9
$DIMCLRT
 70
     0
  9
$DIMTFAC
 40
1.0
  9
$DIMGAP
 40
0.09
  9
$DIMJUST
 70
     0
  9
$DIMSD1
 70
     0
  9
$DIMSD2
 70
     0
  9
$DIMTOLJ
 70
     1
  9
$DIMTZIN
 70
     0
  9
$DIMALTZ
 70
     0
  9
$DIMALTTZ
 70
     0
  9
$DIMUPT
 70
     0
  9
$DIMDEC
 70
     4
  9
$DIMTDEC
 70
     4
  9
$DIMALTU
 70
     2
  9
$DIMALTTD
 70
     2
  9
$DIMTXSTY
  7
Standard
  9
$DIMAUNIT
 70
     0
  9
$DIMADEC
 70
     0
  9
$DIMALTRND
 40
0.0
  9
$DIMAZIN
 70
     0
  9
$DIMDSEP
 70
    46
  9
$DIMATFIT
 70
     3
  9
$DIMFRAC
 70
     0
  9
$DIMLDRBLK
  1

  9
$DIMLUNIT
 70
     2
  9
$DIMLWD
 70
    -2
  9
$DIMLWE
 70
    -2
  9
$DIMTMOVE
 70
     0
  9
$DIMFXL
 40
1.0
  9
$DIMFXLON
 70
     0
  9
$DIMJOGANG
 40
0.7853981633974483
  9
$DIMTFILL
 70
     0
  9
$DIMTFILLCLR
 70
     0
  9
$DIMARCSYM
 70
     0
  9
$DIMLTYPE
  6

  9
$DIMLTEX1
  6

  9
$DIMLTEX2
  6

  9
$LUNITS
 70
     2
  9
$LUPREC
 70
     4
  9
$SKETCHINC
 40
0.1
  9
$FILLETRAD
 40
0.5
  9
$AUNITS
 70
     0
  9
$AUPREC
 70
     0
  9
$MENU
  1
.
  9
$ELEVATION
 40
0.0
  9
$PELEVATION
 40
0.0
  9
$THICKNESS
 40
0.0
  9
$LIMCHECK
 70
     0
  9
$CHAMFERA
 40
0.5
  9
$CHAMFERB
 40
0.5
  9
$CHAMFERC
 40
1.0
  9
$CHAMFERD
 40
0.0
  9
$SKPOLY
 70
     0
  9
$TDCREATE
 40
2458640.238587512
  9
$TDUCREATE
 40
2458640.196920845
  9
$TDUPDATE
 40
2458640.238587523
  9
$TDUUPDATE
 40
2458640.196920856
  9
$TDINDWG
 40
0.0000000116
  9
$TDUSRTIMER
 40
0.0000000116
  9
$USRTIMER
 70
     1
  9
$ANGBASE
 50
0.0
  9
$ANGDIR
 70
     0
  9
$PDMODE
 70
     0
  9
$PDSIZE
 40
0.0
  9
$PLINEWID
 40
0.0
  9
$SPLFRAME
 70
     0
  9
$SPLINETYPE
 70
     6
  9
$SPLINESEGS
 70
     8
  9
$HANDSEED
  5
7A
  9
$SURFTAB1
 70
     6
  9
$SURFTAB2
 70
     6
  9
$SURFTYPE
 70
     6
  9
$SURFU
 70
     6
  9
$SURFV
 70
     6
  9
$UCSBASE
  2

  9
$UCSNAME
  2

  9
$UCSORG
 10
0.0
 20
0.0
 30
0.0
  9
$UCSXDIR
 10
1.0
 20
0.0
 30
0.0
  9
$UCSYDIR
 10
0.0
 20
1.0
 30
0.0
  9
$UCSORTHOREF
  2

  9
$UCSORTHOVIEW
 70
     0
  9
$UCSORGTOP
 10
0.0
 20
0.0
 30
0.0
  9
$UCSORGBOTTOM
 10
0.0
 20
0.0
 30
0.0
  9
$UCSORGLEFT
 10
0.0
 20
0.0
 30
0.0
  9
$UCSORGRIGHT
 10
0.0
 20
0.0
 30
0.0
  9
$UCSORGFRONT
 10
0.0
 20
0.0
 30
0.0
  9
$UCSORGBACK
 10
0.0
 20
0.0
 30
0.0
  9
$PUCSBASE
  2

  9
$PUCSNAME
  2

  9
$PUCSORG
 10
0.0
 20
0.0
 30
0.0
  9
$PUCSXDIR
 10
1.0
 20
0.0
 30
0.0
  9
$PUCSYDIR
 10
0.0
 20
1.0
 30
0.0
  9
$PUCSORTHOREF
  2

  9
$PUCSORTHOVIEW
 70
     0
  9
$PUCSORGTOP
 10
0.0
 20
0.0
 30
0.0
  9
$PUCSORGBOTTOM
 10
0.0
 20
0.0
 30
0.0
  9
$PUCSORGLEFT
 10
0.0
 20
0.0
 30
0.0
  9
$PUCSORGRIGHT
 10
0.0
 20
0.0
 30
0.0
  9
$PUCSORGFRONT
 10
0.0
 20
0.0
 30
0.0
  9
$PUCSORGBACK
 10
0.0
 20
0.0
 30
0.0
  9
$USERI1
 70
     0
  9
$USERI2
 70
     0
  9
$USERI3
 70
     0
  9
$USERI4
 70
     0
  9
$USERI5
 70
     0
  9
$USERR1
 40
0.0
  9
$USERR2
 40
0.0
  9
$USERR3
 40
0.0
  9
$USERR4
 40
0.0
  9
$USERR5
 40
0.0
  9
$WORLDVIEW
 70
     1
  9
$SHADEDGE
 70
     3
  9
$SHADEDIF
 70
    70
  9
$TILEMODE
 70
     1
  9
$MAXACTVP
 70
    64
  9
$PINSBASE
 10
0.0
 20
0.0
 30
0.0
  9
$PLIMCHECK
 70
     0
  9
$PEXTMIN
 10
1.000000000000000E+20
 20
1.000000000000000E+20
 30
1.000000000000000E+20
  9
$PEXTMAX
 10
-1.000000000000000E+20
 20
-1.000000000000000E+20
 30
-1.000000000000000E+20
  9
$PLIMMIN
 10
0.0
 20
0.0
  9
$PLIMMAX
 10
12.0
 20
9.0
  9
$UNITMODE
 70
     0
  9
$VISRETAIN
 70
     1
  9
$PLINEGEN
 70
     0
  9
$PSLTSCALE
 70
     1
  9
$TREEDEPTH
 70
  3020
  9
$CMLSTYLE
  2
Standard
  9
$CMLJUST
 70
     0
  9
$CMLSCALE
 40
1.0
  9
$PROXYGRAPHICS
 70
     1
  9
$MEASUREMENT
 70
     0
  9
$CELWEIGHT
370
    -1
  9
$ENDCAPS
280
     0
  9
$JOINSTYLE
280
     0
  9
$LWDISPLAY
290
     0
  9
$INSUNITS
 70
     5
  9
$HYPERLINKBASE
  1

  9
$STYLESHEET
  1

  9
$XEDIT
290
     1
  9
$CEPSNTYPE
380
     0
  9
$PSTYLEMODE
290
     1
  9
$FINGERPRINTGUID
  2
{72E02EC5-451E-4D02-90CA-92EC52ED1F48}
  9
$VERSIONGUID
  2
{FAEB1C32-E019-11D5-929B-00C0DF256EC4}
  9
$EXTNAMES
290
     1
  9
$PSVPSCALE
 40
0.0
  9
$OLESTARTUP
290
     0
  9
$SORTENTS
280
   127
  9
$INDEXCTL
280
     0
  9
$HIDETEXT
280
     1
  9
$XCLIPFRAME
290
     0
  9
$HALOGAP
280
     0
  9
$OBSCOLOR
 70
   257
  9
$OBSLTYPE
280
     0
  9
$INTERSECTIONDISPLAY
280
     0
  9
$INTERSECTIONCOLOR
 70
   257
  9
$DIMASSOC
280
     2
  9
$PROJECTNAME
  1

  9
$CAMERADISPLAY
290
     0
  9
$LENSLENGTH
 40
50.0
  9
$CAMERAHEIGHT
 40
0.0
  9
$STEPSPERSEC
 40
2.0
  9
$STEPSIZE
 40
6.0
  9
$3DDWFPREC
 40
2.0
  9
$PSOLWIDTH
 40
0.25
  9
$PSOLHEIGHT
 40
4.0
  9
$LOFTANG1
 40
1.570796326794897
  9
$LOFTANG2
 40
1.570796326794897
  9
$LOFTMAG1
 40
0.0
  9
$LOFTMAG2
 40
0.0
  9
$LOFTPARAM
 70
     7
  9
$LOFTNORMALS
280
     1
  9
$LATITUDE
 40
37.795
  9
$LONGITUDE
 40
-122.394
  9
$NORTHDIRECTION
 40
0.0
  9
$TIMEZONE
 70
 -8000
  9
$LIGHTGLYPHDISPLAY
280
     1
  9
$TILEMODELIGHTSYNCH
280
     1
  9
$SOLIDHIST
280
     1
  9
$SHOWHIST
280
     1
  9
$DWFFRAME
280
     2
  9
$DGNFRAME
280
     2
  9
$REALWORLDSCALE
290
     1
  9
$INTERFERECOLOR
 62
   256
  9
$CSHADOW
280
     0
  9
$SHADOWPLANELOCATION
 40
0.0
  0
ENDSEC
  0
SECTION
  2
CLASSES
  0
CLASS
  1
ACDBDICTIONARYWDFLT
  2
AcDbDictionaryWithDefault
  3
ObjectDBX Classes
 90
        0
 91
        3
280
     0
281
     0
  0
CLASS
  1
VISUALSTYLE
  2
AcDbVisualStyle
  3
ObjectDBX Classes
 90
     4095
 91
        3
280
     0
281
     0
  0
CLASS
  1
SCALE
  2
AcDbScale
  3
ObjectDBX Classes
 90
     1153
 91
        3
280
     0
281
     0
  0
ENDSEC
  0
SECTION
  2
TABLES
  0
TABLE
  2
VPORT
  5
8
330
0
100
AcDbSymbolTable
 70
     1
  0
VPORT
  5
29
330
8
100
AcDbSymbolTableRecord
100
AcDbViewportTableRecord
  2
*Active
 70
     0
 10
0.0
 20
0.0
 11
1.0
 21
1.0
 12
10.42990654205607
 22
4.5
 13
0.0
 23
0.0
 14
0.5
 24
0.5
 15
0.5
 25
0.5
 16
0.0
 26
0.0
 36
1.0
 17
0.0
 27
0.0
 37
0.0
 40
9.0
 41
1.972972972850329
 42
50.0
 43
0.0
 44
0.0
 50
0.0
 51
0.0
 71
     0
 72
   100
 73
     1
 74
     3
 75
     0
 76
     0
 77
     0
 78
     0
281
     0
 65
     1
110
0.0
120
0.0
130
0.0
111
1.0
121
0.0
131
0.0
112
0.0
122
1.0
132
0.0
 79
     0
146
0.0
 60
     3
 61
     5
292
     1
282
     1
141
0.0
142
0.0
 63
   256
  0
ENDTAB
  0
TABLE
  2
LTYPE
  5
5
330
0
100
AcDbSymbolTable
 70
     1
  0
LTYPE
  5
14
330
5
100
AcDbSymbolTableRecord
100
AcDbLinetypeTableRecord
  2
ByBlock
 70
     0
  3

 72
    65
 73
     0
 40
0.0
  0
LTYPE
  5
15
330
5
100
AcDbSymbolTableRecord
100
AcDbLinetypeTableRecord
  2
ByLayer
 70
     0
  3

 72
    65
 73
     0
 40
0.0
  0
LTYPE
  5
16
330
5
100
AcDbSymbolTableRecord
100
AcDbLinetypeTableRecord
  2
Continuous
 70
     0
  3
Solid line
 72
    65
 73
     0
 40
0.0
  0
ENDTAB
  0
TABLE
  2
LAYER
  5
2
330
0
100
AcDbSymbolTable
 70
     2
  0
LAYER
  5
10
330
2
100
AcDbSymbolTableRecord
100
AcDbLayerTableRecord
  2
0
 70
     0
 62
     7
  6
Continuous
370
    -3
390
F
347
0
  0
LAYER
  5
5E
330
2
100
AcDbSymbolTableRecord
100
AcDbLayerTableRecord
  2
Layer 1
 70
     0
 62
     7
  6
Continuous
370
    -3
390
F
347
0
  0
ENDTAB
  0
TABLE
  2
STYLE
  5
3
330
0
100
AcDbSymbolTable
 70
     1
  0
STYLE
  5
11
330
3
100
AcDbSymbolTableRecord
100
AcDbTextStyleTableRecord
  2
Standard
 70
     0
 40
0.0
 41
1.0
 50
0.0
 71
     0
 42
0.2
  3
txt
  4

  0
ENDTAB
  0
TABLE
  2
VIEW
  5
6
330
0
100
AcDbSymbolTable
 70
     0
  0
ENDTAB
  0
TABLE
  2
UCS
  5
7
330
0
100
AcDbSymbolTable
 70
     0
  0
ENDTAB
  0
TABLE
  2
APPID
  5
9
330
0
100
AcDbSymbolTable
 70
     2
  0
APPID
  5
12
330
9
100
AcDbSymbolTableRecord
100
AcDbRegAppTableRecord
  2
ACAD
 70
     0
  0
APPID
  5
5D
330
9
100
AcDbSymbolTableRecord
100
AcDbRegAppTableRecord
  2
ODA
 70
     0
  0
ENDTAB
  0
TABLE
  2
DIMSTYLE
  5
A
330
0
100
AcDbSymbolTable
 70
     1
100
AcDbDimStyleTable
  0
DIMSTYLE
105
27
330
A
100
AcDbSymbolTableRecord
100
AcDbDimStyleTableRecord
  2
Standard
 70
     0
340
11
  0
ENDTAB
  0
TABLE
  2
BLOCK_RECORD
  5
1
330
0
100
AcDbSymbolTable
 70
     1
  0
BLOCK_RECORD
  5
1F
330
1
100
AcDbSymbolTableRecord
100
AcDbBlockTableRecord
  2
*Model_Space
340
22
 70
     0
280
     1
281
     0
  0
BLOCK_RECORD
  5
1B
330
1
100
AcDbSymbolTableRecord
100
AcDbBlockTableRecord
  2
*Paper_Space
340
1E
 70
     0
280
     1
281
     0
  0
BLOCK_RECORD
  5
23
330
1
100
AcDbSymbolTableRecord
100
AcDbBlockTableRecord
  2
*Paper_Space0
340
26
 70
     0
280
     1
281
     0
  0
ENDTAB
  0
ENDSEC
  0
SECTION
  2
BLOCKS
  0
BLOCK
  5
20
330
1F
100
AcDbEntity
  8
0
100
AcDbBlockBegin
  2
*Model_Space
 70
     0
 10
0.0
 20
0.0
 30
0.0
  3
*Model_Space
  1

  0
ENDBLK
  5
21
330
1F
100
AcDbEntity
  8
0
100
AcDbBlockEnd
  0
BLOCK
  5
1C
330
1B
100
AcDbEntity
 67
     1
  8
0
100
AcDbBlockBegin
  2
*Paper_Space
 70
     0
 10
0.0
 20
0.0
 30
0.0
  3
*Paper_Space
  1

  0
ENDBLK
  5
1D
330
1B
100
AcDbEntity
 67
     1
  8
0
100
AcDbBlockEnd
  0
BLOCK
  5
24
330
23
100
AcDbEntity
  8
0
100
AcDbBlockBegin
  2
*Paper_Space0
 70
     0
 10
0.0
 20
0.0
 30
0.0
  3
*Paper_Space0
  1

  0
ENDBLK
  5
25
330
23
100
AcDbEntity
  8
0
100
AcDbBlockEnd
  0
ENDSEC
  0
SECTION
  2
ENTITIES
  0
LWPOLYLINE
  5
5F
330
1F
100
AcDbEntity
  8
Layer 1
 62
     7
370
     9
100
AcDbPolyline
 90
        5
 70
     1
 43
0.0
 10
-10.58
 20
-14.89
 10
-10.42
 20
-14.89
 10
-10.42
 20
-14.81
 10
-10.58
 20
-14.81
 10
-10.58
 20
-14.89
  0
LWPOLYLINE
  5
60
330
1F
100
AcDbEntity
  8
Layer 1
 62
     7
370
     9
100
AcDbPolyline
 90
        5
 70
     1
 43
0.0
 10
-10.555
 20
-14.89
 10
-10.445
 20
-14.89
 10
-10.445
 20
-14.81
 10
-10.555
 20
-14.81
 10
-10.555
 20
-14.89
  0
SPLINE
  5
61
330
1F
100
AcDbEntity
  8
Layer 1
 62
   250
100
AcDbSpline
210
0.0
220
0.0
230
1.0
 70
    11
 71
     3
 72
    36
 73
    32
 74
     0
 42
0.0000000001
 43
0.0000000001
 40
0.0
 40
0.0
 40
0.0
 40
0.0
 40
0.125
 40
0.125
 40
0.125
 40
0.125
 40
0.25
 40
0.25
 40
0.25
 40
0.25
 40
0.375
 40
0.375
 40
0.375
 40
0.375
 40
0.5
 40
0.5
 40
0.5
 40
0.5
 40
0.625
 40
0.625
 40
0.625
 40
0.625
 40
0.75
 40
0.75
 40
0.75
 40
0.75
 40
0.875
 40
0.875
 40
0.875
 40
0.875
 40
1.0
 40
1.0
 40
1.0
 40
1.0
 10
-10.5312
 20
-14.8341
 30
0.0
 10
-10.53201
 20
-14.8341
 30
0.0
 10
-10.53262
 20
-14.83441
 30
0.0
 10
-10.53303
 20
-14.83503
 30
0.0
 10
-10.53303
 20
-14.83503
 30
0.0
 10
-10.53345
 20
-14.83566
 30
0.0
 10
-10.53365
 20
-14.83659
 30
0.0
 10
-10.53365
 20
-14.83781
 30
0.0
 10
-10.53365
 20
-14.83781
 30
0.0
 10
-10.53365
 20
-14.83904
 30
0.0
 10
-10.53345
 20
-14.83996
 30
0.0
 10
-10.53303
 20
-14.84059
 30
0.0
 10
-10.53303
 20
-14.84059
 30
0.0
 10
-10.53262
 20
-14.84122
 30
0.0
 10
-10.53201
 20
-14.84154
 30
0.0
 10
-10.5312
 20
-14.84154
 30
0.0
 10
-10.5312
 20
-14.84154
 30
0.0
 10
-10.53039
 20
-14.84154
 30
0.0
 10
-10.52978
 20
-14.84122
 30
0.0
 10
-10.52937
 20
-14.84059
 30
0.0
 10
-10.52937
 20
-14.84059
 30
0.0
 10
-10.52895
 20
-14.83996
 30
0.0
 10
-10.52875
 20
-14.83904
 30
0.0
 10
-10.52875
 20
-14.83781
 30
0.0
 10
-10.52875
 20
-14.83781
 30
0.0
 10
-10.52875
 20
-14.83659
 30
0.0
 10
-10.52895
 20
-14.83566
 30
0.0
 10
-10.52937
 20
-14.83503
 30
0.0
 10
-10.52937
 20
-14.83503
 30
0.0
 10
-10.52978
 20
-14.83441
 30
0.0
 10
-10.53039
 20
-14.8341
 30
0.0
 10
-10.5312
 20
-14.8341
 30
0.0
  0
SPLINE
  5
62
330
1F
100
AcDbEntity
  8
Layer 1
 62
   250
100
AcDbSpline
210
0.0
220
0.0
230
1.0
 70
    11
 71
     3
 72
    36
 73
    32
 74
     0
 42
0.0000000001
 43
0.0000000001
 40
0.0
 40
0.0
 40
0.0
 40
0.0
 40
0.125
 40
0.125
 40
0.125
 40
0.125
 40
0.25
 40
0.25
 40
0.25
 40
0.25
 40
0.375
 40
0.375
 40
0.375
 40
0.375
 40
0.5
 40
0.5
 40
0.5
 40
0.5
 40
0.625
 40
0.625
 40
0.625
 40
0.625
 40
0.75
 40
0.75
 40
0.75
 40
0.75
 40
0.875
 40
0.875
 40
0.875
 40
0.875
 40
1.0
 40
1.0
 40
1.0
 40
1.0
 10
-10.5312
 20
-14.83275
 30
0.0
 10
-10.52987
 20
-14.83275
 30
0.0
 10
-10.52884
 20
-14.83318
 30
0.0
 10
-10.52813
 20
-14.83405
 30
0.0
 10
-10.52813
 20
-14.83405
 30
0.0
 10
-10.52743
 20
-14.83492
 30
0.0
 10
-10.52707
 20
-14.83617
 30
0.0
 10
-10.52707
 20
-14.83781
 30
0.0
 10
-10.52707
 20
-14.83781
 30
0.0
 10
-10.52707
 20
-14.83946
 30
0.0
 10
-10.52742
 20
-14.84072
 30
0.0
 10
-10.52813
 20
-14.84158
 30
0.0
 10
-10.52813
 20
-14.84158
 30
0.0
 10
-10.52884
 20
-14.84245
 30
0.0
 10
-10.52986
 20
-14.84288
 30
0.0
 10
-10.5312
 20
-14.84288
 30
0.0
 10
-10.5312
 20
-14.84288
 30
0.0
 10
-10.53254
 20
-14.84288
 30
0.0
 10
-10.53356
 20
-14.84245
 30
0.0
 10
-10.53427
 20
-14.84158
 30
0.0
 10
-10.53427
 20
-14.84158
 30
0.0
 10
-10.53498
 20
-14.84072
 30
0.0
 10
-10.53533
 20
-14.83946
 30
0.0
 10
-10.53533
 20
-14.83781
 30
0.0
 10
-10.53533
 20
-14.83781
 30
0.0
 10
-10.53533
 20
-14.83617
 30
0.0
 10
-10.53498
 20
-14.83492
 30
0.0
 10
-10.53427
 20
-14.83405
 30
0.0
 10
-10.53427
 20
-14.83405
 30
0.0
 10
-10.53356
 20
-14.83318
 30
0.0
 10
-10.53254
 20
-14.83275
 30
0.0
 10
-10.5312
 20
-14.83275
 30
0.0
  0
SPLINE
  5
63
330
1F
100
AcDbEntity
  8
Layer 1
 62
   250
100
AcDbSpline
210
0.0
220
0.0
230
1.0
 70
    11
 71
     3
 72
    36
 73
    32
 74
     0
 42
0.0000000001
 43
0.0000000001
 40
0.0
 40
0.0
 40
0.0
 40
0.0
 40
0.125
 40
0.125
 40
0.125
 40
0.125
 40
0.25
 40
0.25
 40
0.25
 40
0.25
 40
0.375
 40
0.375
 40
0.375
 40
0.375
 40
0.5
 40
0.5
 40
0.5
 40
0.5
 40
0.625
 40
0.625
 40
0.625
 40
0.625
 40
0.75
 40
0.75
 40
0.75
 40
0.75
 40
0.875
 40
0.875
 40
0.875
 40
0.875
 40
1.0
 40
1.0
 40
1.0
 40
1.0
 10
-10.52058
 20
-14.8341
 30
0.0
 10
-10.52139
 20
-14.8341
 30
0.0
 10
-10.522
 20
-14.83441
 30
0.0
 10
-10.52241
 20
-14.83503
 30
0.0
 10
-10.52241
 20
-14.83503
 30
0.0
 10
-10.52283
 20
-14.83566
 30
0.0
 10
-10.52303
 20
-14.83659
 30
0.0
 10
-10.52303
 20
-14.83781
 30
0.0
 10
-10.52303
 20
-14.83781
 30
0.0
 10
-10.52303
 20
-14.83904
 30
0.0
 10
-10.52283
 20
-14.83996
 30
0.0
 10
-10.52241
 20
-14.84059
 30
0.0
 10
-10.52241
 20
-14.84059
 30
0.0
 10
-10.522
 20
-14.84122
 30
0.0
 10
-10.52139
 20
-14.84154
 30
0.0
 10
-10.52058
 20
-14.84154
 30
0.0
 10
-10.52058
 20
-14.84154
 30
0.0
 10
-10.51977
 20
-14.84154
 30
0.0
 10
-10.51916
 20
-14.84122
 30
0.0
 10
-10.51875
 20
-14.84059
 30
0.0
 10
-10.51875
 20
-14.84059
 30
0.0
 10
-10.51833
 20
-14.83996
 30
0.0
 10
-10.51813
 20
-14.83904
 30
0.0
 10
-10.51813
 20
-14.83781
 30
0.0
 10
-10.51813
 20
-14.83781
 30
0.0
 10
-10.51813
 20
-14.83659
 30
0.0
 10
-10.51833
 20
-14.83566
 30
0.0
 10
-10.51875
 20
-14.83503
 30
0.0
 10
-10.51875
 20
-14.83503
 30
0.0
 10
-10.51916
 20
-14.83441
 30
0.0
 10
-10.51977
 20
-14.8341
 30
0.0
 10
-10.52058
 20
-14.8341
 30
0.0
  0
SPLINE
  5
64
330
1F
100
AcDbEntity
  8
Layer 1
 62
   250
100
AcDbSpline
210
0.0
220
0.0
230
1.0
 70
    11
 71
     3
 72
    36
 73
    32
 74
     0
 42
0.0000000001
 43
0.0000000001
 40
0.0
 40
0.0
 40
0.0
 40
0.0
 40
0.125
 40
0.125
 40
0.125
 40
0.125
 40
0.25
 40
0.25
 40
0.25
 40
0.25
 40
0.375
 40
0.375
 40
0.375
 40
0.375
 40
0.5
 40
0.5
 40
0.5
 40
0.5
 40
0.625
 40
0.625
 40
0.625
 40
0.625
 40
0.75
 40
0.75
 40
0.75
 40
0.75
 40
0.875
 40
0.875
 40
0.875
 40
0.875
 40
1.0
 40
1.0
 40
1.0
 40
1.0
 10
-10.52058
 20
-14.83275
 30
0.0
 10
-10.51925
 20
-14.83275
 30
0.0
 10
-10.51822
 20
-14.83318
 30
0.0
 10
-10.51751
 20
-14.83405
 30
0.0
 10
-10.51751
 20
-14.83405
 30
0.0
 10
-10.51681
 20
-14.83492
 30
0.0
 10
-10.51645
 20
-14.83617
 30
0.0
 10
-10.51645
 20
-14.83781
 30
0.0
 10
-10.51645
 20
-14.83781
 30
0.0
 10
-10.51645
 20
-14.83946
 30
0.0
 10
-10.5168
 20
-14.84072
 30
0.0
 10
-10.51751
 20
-14.84158
 30
0.0
 10
-10.51751
 20
-14.84158
 30
0.0
 10
-10.51822
 20
-14.84245
 30
0.0
 10
-10.51924
 20
-14.84288
 30
0.0
 10
-10.52058
 20
-14.84288
 30
0.0
 10
-10.52058
 20
-14.84288
 30
0.0
 10
-10.52192
 20
-14.84288
 30
0.0
 10
-10.52294
 20
-14.84245
 30
0.0
 10
-10.52365
 20
-14.84158
 30
0.0
 10
-10.52365
 20
-14.84158
 30
0.0
 10
-10.52436
 20
-14.84072
 30
0.0
 10
-10.52471
 20
-14.83946
 30
0.0
 10
-10.52471
 20
-14.83781
 30
0.0
 10
-10.52471
 20
-14.83781
 30
0.0
 10
-10.52471
 20
-14.83617
 30
0.0
 10
-10.52436
 20
-14.83492
 30
0.0
 10
-10.52365
 20
-14.83405
 30
0.0
 10
-10.52365
 20
-14.83405
 30
0.0
 10
-10.52294
 20
-14.83318
 30
0.0
 10
-10.52192
 20
-14.83275
 30
0.0
 10
-10.52058
 20
-14.83275
 30
0.0
  0
SPLINE
  5
65
330
1F
100
AcDbEntity
  8
Layer 1
 62
   250
100
AcDbSpline
210
0.0
220
0.0
230
1.0
 70
    11
 71
     3
 72
   112
 73
   108
 74
     0
 42
0.0000000001
 43
0.0000000001
 40
0.0
 40
0.0
 40
0.0
 40
0.0
 40
0.037037037037037
 40
0.037037037037037
 40
0.037037037037037
 40
0.037037037037037
 40
0.0740740740740741
 40
0.0740740740740741
 40
0.0740740740740741
 40
0.0740740740740741
 40
0.1111111111111111
 40
0.1111111111111111
 40
0.1111111111111111
 40
0.1111111111111111
 40
0.1481481481481481
 40
0.1481481481481481
 40
0.1481481481481481
 40
0.1481481481481481
 40
0.1851851851851852
 40
0.1851851851851852
 40
0.1851851851851852
 40
0.1851851851851852
 40
0.2222222222222222
 40
0.2222222222222222
 40
0.2222222222222222
 40
0.2222222222222222
 40
0.2592592592592592
 40
0.2592592592592592
 40
0.2592592592592592
 40
0.2592592592592592
 40
0.2962962962962963
 40
0.2962962962962963
 40
0.2962962962962963
 40
0.2962962962962963
 40
0.3333333333333333
 40
0.3333333333333333
 40
0.3333333333333333
 40
0.3333333333333333
 40
0.3703703703703703
 40
0.3703703703703703
 40
0.3703703703703703
 40
0.3703703703703703
 40
0.4074074074074074
 40
0.4074074074074074
 40
0.4074074074074074
 40
0.4074074074074074
 40
0.4444444444444444
 40
0.4444444444444444
 40
0.4444444444444444
 40
0.4444444444444444
 40
0.4814814814814815
 40
0.4814814814814815
 40
0.4814814814814815
 40
0.4814814814814815
 40
0.5185185185185185
 40
0.5185185185185185
 40
0.5185185185185185
 40
0.5185185185185185
 40
0.5555555555555556
 40
0.5555555555555556
 40
0.5555555555555556
 40
0.5555555555555556
 40
0.5925925925925926
 40
0.5925925925925926
 40
0.5925925925925926
 40
0.5925925925925926
 40
0.6296296296296295
 40
0.6296296296296295
 40
0.6296296296296295
 40
0.6296296296296295
 40
0.6666666666666665
 40
0.6666666666666665
 40
0.6666666666666665
 40
0.6666666666666665
 40
0.7037037037037035
 40
0.7037037037037035
 40
0.7037037037037035
 40
0.7037037037037035
 40
0.7407407407407405
 40
0.7407407407407405
 40
0.7407407407407405
 40
0.7407407407407405
 40
0.7777777777777775
 40
0.7777777777777775
 40
0.7777777777777775
 40
0.7777777777777775
 40
0.8148148148148144
 40
0.8148148148148144
 40
0.8148148148148144
 40
0.8148148148148144
 40
0.8518518518518514
 40
0.8518518518518514
 40
0.8518518518518514
 40
0.8518518518518514
 40
0.8888888888888884
 40
0.8888888888888884
 40
0.8888888888888884
 40
0.8888888888888884
 40
0.9259259259259254
 40
0.9259259259259254
 40
0.9259259259259254
 40
0.9259259259259254
 40
0.9629629629629624
 40
0.9629629629629624
 40
0.9629629629629624
 40
0.9629629629629624
 40
1.0
 40
1.0
 40
1.0
 40
1.0
 10
-10.50945
 20
-14.83397
 30
0.0
 10
-10.50925
 20
-14.83355
 30
0.0
 10
-10.509
 20
-14.83325
 30
0.0
 10
-10.5087
 20
-14.83305
 30
0.0
 10
-10.5087
 20
-14.83305
 30
0.0
 10
-10.5084
 20
-14.83285
 30
0.0
 10
-10.50804
 20
-14.83275
 30
0.0
 10
-10.50761
 20
-14.83275
 30
0.0
 10
-10.50761
 20
-14.83275
 30
0.0
 10
-10.50684
 20
-14.83275
 30
0.0
 10
-10.50629
 20
-14.83305
 30
0.0
 10
-10.50597
 20
-14.83365
 30
0.0
 10
-10.50597
 20
-14.83365
 30
0.0
 10
-10.50565
 20
-14.83425
 30
0.0
 10
-10.50549
 20
-14.83538
 30
0.0
 10
-10.50549
 20
-14.83704
 30
0.0
 10
-10.50549
 20
-14.83704
 30
0.0
 10
-10.50549
 20
-14.83704
 30
0.0
 10
-10.50549
 20
-14.84263
 30
0.0
 10
-10.50549
 20
-14.84263
 30
0.0
 10
-10.50549
 20
-14.84263
 30
0.0
 10
-10.50549
 20
-14.84263
 30
0.0
 10
-10.50694
 20
-14.84263
 30
0.0
 10
-10.50694
 20
-14.84263
 30
0.0
 10
-10.50694
 20
-14.84263
 30
0.0
 10
-10.50694
 20
-14.84263
 30
0.0
 10
-10.50694
 20
-14.83711
 30
0.0
 10
-10.50694
 20
-14.83711
 30
0.0
 10
-10.50694
 20
-14.83711
 30
0.0
 10
-10.50694
 20
-14.83575
 30
0.0
 10
-10.50702
 20
-14.8349
 30
0.0
 10
-10.50717
 20
-14.83457
 30
0.0
 10
-10.50717
 20
-14.83457
 30
0.0
 10
-10.50732
 20
-14.83424
 30
0.0
 10
-10.5076
 20
-14.83408
 30
0.0
 10
-10.508
 20
-14.83408
 30
0.0
 10
-10.508
 20
-14.83408
 30
0.0
 10
-10.50846
 20
-14.83408
 30
0.0
 10
-10.50878
 20
-14.83425
 30
0.0
 10
-10.50895
 20
-14.83461
 30
0.0
 10
-10.50895
 20
-14.83461
 30
0.0
 10
-10.50911
 20
-14.83496
 30
0.0
 10
-10.5092
 20
-14.83579
 30
0.0
 10
-10.5092
 20
-14.83711
 30
0.0
 10
-10.5092
 20
-14.83711
 30
0.0
 10
-10.5092
 20
-14.83711
 30
0.0
 10
-10.5092
 20
-14.84263
 30
0.0
 10
-10.5092
 20
-14.84263
 30
0.0
 10
-10.5092
 20
-14.84263
 30
0.0
 10
-10.5092
 20
-14.84263
 30
0.0
 10
-10.51065
 20
-14.84263
 30
0.0
 10
-10.51065
 20
-14.84263
 30
0.0
 10
-10.51065
 20
-14.84263
 30
0.0
 10
-10.51065
 20
-14.84263
 30
0.0
 10
-10.51065
 20
-14.83711
 30
0.0
 10
-10.51065
 20
-14.83711
 30
0.0
 10
-10.51065
 20
-14.83711
 30
0.0
 10
-10.51065
 20
-14.83573
 30
0.0
 10
-10.51073
 20
-14.83488
 30
0.0
 10
-10.51089
 20
-14.83456
 30
0.0
 10
-10.51089
 20
-14.83456
 30
0.0
 10
-10.51105
 20
-14.83424
 30
0.0
 10
-10.51135
 20
-14.83408
 30
0.0
 10
-10.51177
 20
-14.83408
 30
0.0
 10
-10.51177
 20
-14.83408
 30
0.0
 10
-10.51219
 20
-14.83408
 30
0.0
 10
-10.51249
 20
-14.83425
 30
0.0
 10
-10.51265
 20
-14.83461
 30
0.0
 10
-10.51265
 20
-14.83461
 30
0.0
 10
-10.51281
 20
-14.83496
 30
0.0
 10
-10.51289
 20
-14.83579
 30
0.0
 10
-10.51289
 20
-14.83711
 30
0.0
 10
-10.51289
 20
-14.83711
 30
0.0
 10
-10.51289
 20
-14.83711
 30
0.0
 10
-10.51289
 20
-14.84263
 30
0.0
 10
-10.51289
 20
-14.84263
 30
0.0
 10
-10.51289
 20
-14.84263
 30
0.0
 10
-10.51289
 20
-14.84263
 30
0.0
 10
-10.51433
 20
-14.84263
 30
0.0
 10
-10.51433
 20
-14.84263
 30
0.0
 10
-10.51433
 20
-14.84263
 30
0.0
 10
-10.51433
 20
-14.84263
 30
0.0
 10
-10.51433
 20
-14.83298
 30
0.0
 10
-10.51433
 20
-14.83298
 30
0.0
 10
-10.51433
 20
-14.83298
 30
0.0
 10
-10.51433
 20
-14.83298
 30
0.0
 10
-10.51289
 20
-14.83298
 30
0.0
 10
-10.51289
 20
-14.83298
 30
0.0
 10
-10.51289
 20
-14.83298
 30
0.0
 10
-10.51289
 20
-14.83298
 30
0.0
 10
-10.51289
 20
-14.83381
 30
0.0
 10
-10.51289
 20
-14.83381
 30
0.0
 10
-10.51289
 20
-14.83381
 30
0.0
 10
-10.51271
 20
-14.83347
 30
0.0
 10
-10.51247
 20
-14.8332
 30
0.0
 10
-10.51218
 20
-14.83302
 30
0.0
 10
-10.51218
 20
-14.83302
 30
0.0
 10
-10.5119
 20
-14.83284
 30
0.0
 10
-10.51158
 20
-14.83275
 30
0.0
 10
-10.51122
 20
-14.83275
 30
0.0
 10
-10.51122
 20
-14.83275
 30
0.0
 10
-10.51078
 20
-14.83275
 30
0.0
 10
-10.51042
 20
-14.83285
 30
0.0
 10
-10.51012
 20
-14.83305
 30
0.0
 10
-10.51012
 20
-14.83305
 30
0.0
 10
-10.50983
 20
-14.83325
 30
0.0
 10
-10.50961
 20
-14.83356
 30
0.0
 10
-10.50945
 20
-14.83397
 30
0.0
  0
SPLINE
  5
66
330
1F
100
AcDbEntity
  8
Layer 1
 62
   250
100
AcDbSpline
210
0.0
220
0.0
230
1.0
 70
    11
 71
     3
 72
    20
 73
    16
 74
     0
 42
0.0000000001
 43
0.0000000001
 40
0.0
 40
0.0
 40
0.0
 40
0.0
 40
0.25
 40
0.25
 40
0.25
 40
0.25
 40
0.5
 40
0.5
 40
0.5
 40
0.5
 40
0.75
 40
0.75
 40
0.75
 40
0.75
 40
1.0
 40
1.0
 40
1.0
 40
1.0
 10
-10.50044
 20
-14.84
 30
0.0
 10
-10.50044
 20
-14.84
 30
0.0
 10
-10.49827
 20
-14.84
 30
0.0
 10
-10.49827
 20
-14.84
 30
0.0
 10
-10.49827
 20
-14.84
 30
0.0
 10
-10.49827
 20
-14.84
 30
0.0
 10
-10.49827
 20
-14.84263
 30
0.0
 10
-10.49827
 20
-14.84263
 30
0.0
 10
-10.49827
 20
-14.84263
 30
0.0
 10
-10.49827
 20
-14.84263
 30
0.0
 10
-10.50044
 20
-14.84263
 30
0.0
 10
-10.50044
 20
-14.84263
 30
0.0
 10
-10.50044
 20
-14.84263
 30
0.0
 10
-10.50044
 20
-14.84263
 30
0.0
 10
-10.50044
 20
-14.84
 30
0.0
 10
-10.50044
 20
-14.84
 30
0.0
  0
SPLINE
  5
67
330
1F
100
AcDbEntity
  8
Layer 1
 62
   250
100
AcDbSpline
210
0.0
220
0.0
230
1.0
 70
    11
 71
     3
 72
    52
 73
    48
 74
     0
 42
0.0000000001
 43
0.0000000001
 40
0.0
 40
0.0
 40
0.0
 40
0.0
 40
0.0833333333333333
 40
0.0833333333333333
 40
0.0833333333333333
 40
0.0833333333333333
 40
0.1666666666666667
 40
0.1666666666666667
 40
0.1666666666666667
 40
0.1666666666666667
 40
0.25
 40
0.25
 40
0.25
 40
0.25
 40
0.3333333333333333
 40
0.3333333333333333
 40
0.3333333333333333
 40
0.3333333333333333
 40
0.4166666666666666
 40
0.4166666666666666
 40
0.4166666666666666
 40
0.4166666666666666
 40
0.4999999999999999
 40
0.4999999999999999
 40
0.4999999999999999
 40
0.4999999999999999
 40
0.5833333333333333
 40
0.5833333333333333
 40
0.5833333333333333
 40
0.5833333333333333
 40
0.6666666666666666
 40
0.6666666666666666
 40
0.6666666666666666
 40
0.6666666666666666
 40
0.75
 40
0.75
 40
0.75
 40
0.75
 40
0.8333333333333334
 40
0.8333333333333334
 40
0.8333333333333334
 40
0.8333333333333334
 40
0.9166666666666667
 40
0.9166666666666667
 40
0.9166666666666667
 40
0.9166666666666667
 40
1.0
 40
1.0
 40
1.0
 40
1.0
 10
-10.48853
 20
-14.83913
 30
0.0
 10
-10.48853
 20
-14.83985
 30
0.0
 10
-10.4884
 20
-14.84038
 30
0.0
 10
-10.48814
 20
-14.84074
 30
0.0
 10
-10.48814
 20
-14.84074
 30
0.0
 10
-10.48787
 20
-14.8411
 30
0.0
 10
-10.48749
 20
-14.84129
 30
0.0
 10
-10.48698
 20
-14.84129
 30
0.0
 10
-10.48698
 20
-14.84129
 30
0.0
 10
-10.48698
 20
-14.84129
 30
0.0
 10
-10.48512
 20
-14.84129
 30
0.0
 10
-10.48512
 20
-14.84129
 30
0.0
 10
-10.48512
 20
-14.84129
 30
0.0
 10
-10.48512
 20
-14.84129
 30
0.0
 10
-10.48512
 20
-14.84263
 30
0.0
 10
-10.48512
 20
-14.84263
 30
0.0
 10
-10.48512
 20
-14.84263
 30
0.0
 10
-10.48512
 20
-14.84263
 30
0.0
 10
-10.48713
 20
-14.84263
 30
0.0
 10
-10.48713
 20
-14.84263
 30
0.0
 10
-10.48713
 20
-14.84263
 30
0.0
 10
-10.48808
 20
-14.84263
 30
0.0
 10
-10.48881
 20
-14.84232
 30
0.0
 10
-10.48933
 20
-14.84172
 30
0.0
 10
-10.48933
 20
-14.84172
 30
0.0
 10
-10.48985
 20
-14.84111
 30
0.0
 10
-10.49011
 20
-14.84025
 30
0.0
 10
-10.49011
 20
-14.83913
 30
0.0
 10
-10.49011
 20
-14.83913
 30
0.0
 10
-10.49011
 20
-14.83913
 30
0.0
 10
-10.49011
 20
-14.83037
 30
0.0
 10
-10.49011
 20
-14.83037
 30
0.0
 10
-10.49011
 20
-14.83037
 30
0.0
 10
-10.49011
 20
-14.83037
 30
0.0
 10
-10.49265
 20
-14.83037
 30
0.0
 10
-10.49265
 20
-14.83037
 30
0.0
 10
-10.49265
 20
-14.83037
 30
0.0
 10
-10.49265
 20
-14.83037
 30
0.0
 10
-10.49265
 20
-14.82913
 30
0.0
 10
-10.49265
 20
-14.82913
 30
0.0
 10
-10.49265
 20
-14.82913
 30
0.0
 10
-10.49265
 20
-14.82913
 30
0.0
 10
-10.48853
 20
-14.82913
 30
0.0
 10
-10.48853
 20
-14.82913
 30
0.0
 10
-10.48853
 20
-14.82913
 30
0.0
 10
-10.48853
 20
-14.82913
 30
0.0
 10
-10.48853
 20
-14.83913
 30
0.0
 10
-10.48853
 20
-14.83913
 30
0.0
  0
SPLINE
  5
68
330
1F
100
AcDbEntity
  8
Layer 1
 62
   250
100
AcDbSpline
210
0.0
220
0.0
230
1.0
 70
    11
 71
     3
 72
    76
 73
    72
 74
     0
 42
0.0000000001
 43
0.0000000001
 40
0.0
 40
0.0
 40
0.0
 40
0.0
 40
0.0555555555555556
 40
0.0555555555555556
 40
0.0555555555555556
 40
0.0555555555555556
 40
0.1111111111111111
 40
0.1111111111111111
 40
0.1111111111111111
 40
0.1111111111111111
 40
0.1666666666666667
 40
0.1666666666666667
 40
0.1666666666666667
 40
0.1666666666666667
 40
0.2222222222222222
 40
0.2222222222222222
 40
0.2222222222222222
 40
0.2222222222222222
 40
0.2777777777777778
 40
0.2777777777777778
 40
0.2777777777777778
 40
0.2777777777777778
 40
0.3333333333333334
 40
0.3333333333333334
 40
0.3333333333333334
 40
0.3333333333333334
 40
0.388888888888889
 40
0.388888888888889
 40
0.388888888888889
 40
0.388888888888889
 40
0.4444444444444445
 40
0.4444444444444445
 40
0.4444444444444445
 40
0.4444444444444445
 40
0.5000000000000001
 40
0.5000000000000001
 40
0.5000000000000001
 40
0.5000000000000001
 40
0.5555555555555557
 40
0.5555555555555557
 40
0.5555555555555557
 40
0.5555555555555557
 40
0.6111111111111113
 40
0.6111111111111113
 40
0.6111111111111113
 40
0.6111111111111113
 40
0.6666666666666669
 40
0.6666666666666669
 40
0.6666666666666669
 40
0.6666666666666669
 40
0.7222222222222224
 40
0.7222222222222224
 40
0.7222222222222224
 40
0.7222222222222224
 40
0.777777777777778
 40
0.777777777777778
 40
0.777777777777778
 40
0.777777777777778
 40
0.8333333333333336
 40
0.8333333333333336
 40
0.8333333333333336
 40
0.8333333333333336
 40
0.8888888888888892
 40
0.8888888888888892
 40
0.8888888888888892
 40
0.8888888888888892
 40
0.9444444444444448
 40
0.9444444444444448
 40
0.9444444444444448
 40
0.9444444444444448
 40
1.0
 40
1.0
 40
1.0
 40
1.0
 10
-10.47812
 20
-14.83024
 30
0.0
 10
-10.47812
 20
-14.83024
 30
0.0
 10
-10.47812
 20
-14.83298
 30
0.0
 10
-10.47812
 20
-14.83298
 30
0.0
 10
-10.47812
 20
-14.83298
 30
0.0
 10
-10.47812
 20
-14.83298
 30
0.0
 10
-10.47452
 20
-14.83298
 30
0.0
 10
-10.47452
 20
-14.83298
 30
0.0
 10
-10.47452
 20
-14.83298
 30
0.0
 10
-10.47452
 20
-14.83298
 30
0.0
 10
-10.47452
 20
-14.83422
 30
0.0
 10
-10.47452
 20
-14.83422
 30
0.0
 10
-10.47452
 20
-14.83422
 30
0.0
 10
-10.47452
 20
-14.83422
 30
0.0
 10
-10.47812
 20
-14.83422
 30
0.0
 10
-10.47812
 20
-14.83422
 30
0.0
 10
-10.47812
 20
-14.83422
 30
0.0
 10
-10.47812
 20
-14.83422
 30
0.0
 10
-10.47812
 20
-14.83945
 30
0.0
 10
-10.47812
 20
-14.83945
 30
0.0
 10
-10.47812
 20
-14.83945
 30
0.0
 10
-10.47812
 20
-14.84016
 30
0.0
 10
-10.47799
 20
-14.84066
 30
0.0
 10
-10.47772
 20
-14.84094
 30
0.0
 10
-10.47772
 20
-14.84094
 30
0.0
 10
-10.47744
 20
-14.84122
 30
0.0
 10
-10.47697
 20
-14.84136
 30
0.0
 10
-10.4763
 20
-14.84136
 30
0.0
 10
-10.4763
 20
-14.84136
 30
0.0
 10
-10.4763
 20
-14.84136
 30
0.0
 10
-10.47452
 20
-14.84136
 30
0.0
 10
-10.47452
 20
-14.84136
 30
0.0
 10
-10.47452
 20
-14.84136
 30
0.0
 10
-10.47452
 20
-14.84136
 30
0.0
 10
-10.47452
 20
-14.84263
 30
0.0
 10
-10.47452
 20
-14.84263
 30
0.0
 10
-10.47452
 20
-14.84263
 30
0.0
 10
-10.47452
 20
-14.84263
 30
0.0
 10
-10.47646
 20
-14.84263
 30
0.0
 10
-10.47646
 20
-14.84263
 30
0.0
 10
-10.47646
 20
-14.84263
 30
0.0
 10
-10.47765
 20
-14.84263
 30
0.0
 10
-10.47849
 20
-14.84239
 30
0.0
 10
-10.47897
 20
-14.84192
 30
0.0
 10
-10.47897
 20
-14.84192
 30
0.0
 10
-10.47946
 20
-14.84144
 30
0.0
 10
-10.47971
 20
-14.84062
 30
0.0
 10
-10.47971
 20
-14.83945
 30
0.0
 10
-10.47971
 20
-14.83945
 30
0.0
 10
-10.47971
 20
-14.83945
 30
0.0
 10
-10.47971
 20
-14.83422
 30
0.0
 10
-10.47971
 20
-14.83422
 30
0.0
 10
-10.47971
 20
-14.83422
 30
0.0
 10
-10.47971
 20
-14.83422
 30
0.0
 10
-10.48228
 20
-14.83422
 30
0.0
 10
-10.48228
 20
-14.83422
 30
0.0
 10
-10.48228
 20
-14.83422
 30
0.0
 10
-10.48228
 20
-14.83422
 30
0.0
 10
-10.48228
 20
-14.83298
 30
0.0
 10
-10.48228
 20
-14.83298
 30
0.0
 10
-10.48228
 20
-14.83298
 30
0.0
 10
-10.48228
 20
-14.83298
 30
0.0
 10
-10.47971
 20
-14.83298
 30
0.0
 10
-10.47971
 20
-14.83298
 30
0.0
 10
-10.47971
 20
-14.83298
 30
0.0
 10
-10.47971
 20
-14.83298
 30
0.0
 10
-10.47971
 20
-14.83024
 30
0.0
 10
-10.47971
 20
-14.83024
 30
0.0
 10
-10.47971
 20
-14.83024
 30
0.0
 10
-10.47971
 20
-14.83024
 30
0.0
 10
-10.47812
 20
-14.83024
 30
0.0
 10
-10.47812
 20
-14.83024
 30
0.0
  0
SPLINE
  5
69
330
1F
100
AcDbEntity
  8
Layer 1
 62
   250
100
AcDbSpline
210
0.0
220
0.0
230
1.0
 70
    11
 71
     3
 72
    20
 73
    16
 74
     0
 42
0.0000000001
 43
0.0000000001
 40
0.0
 40
0.0
 40
0.0
 40
0.0
 40
0.25
 40
0.25
 40
0.25
 40
0.25
 40
0.5
 40
0.5
 40
0.5
 40
0.5
 40
0.75
 40
0.75
 40
0.75
 40
0.75
 40
1.0
 40
1.0
 40
1.0
 40
1.0
 10
-10.46513
 20
-14.82977
 30
0.0
 10
-10.46513
 20
-14.82977
 30
0.0
 10
-10.46349
 20
-14.82977
 30
0.0
 10
-10.46349
 20
-14.82977
 30
0.0
 10
-10.46349
 20
-14.82977
 30
0.0
 10
-10.46349
 20
-14.82977
 30
0.0
 10
-10.47026
 20
-14.84427
 30
0.0
 10
-10.47026
 20
-14.84427
 30
0.0
 10
-10.47026
 20
-14.84427
 30
0.0
 10
-10.47026
 20
-14.84427
 30
0.0
 10
-10.47191
 20
-14.84427
 30
0.0
 10
-10.47191
 20
-14.84427
 30
0.0
 10
-10.47191
 20
-14.84427
 30
0.0
 10
-10.47191
 20
-14.84427
 30
0.0
 10
-10.46513
 20
-14.82977
 30
0.0
 10
-10.46513
 20
-14.82977
 30
0.0
  0
SPLINE
  5
6A
330
1F
100
AcDbEntity
  8
Layer 1
 62
   250
100
AcDbSpline
210
0.0
220
0.0
230
1.0
 70
    11
 71
     3
 72
    68
 73
    64
 74
     0
 42
0.0000000001
 43
0.0000000001
 40
0.0
 40
0.0
 40
0.0
 40
0.0
 40
0.0625
 40
0.0625
 40
0.0625
 40
0.0625
 40
0.125
 40
0.125
 40
0.125
 40
0.125
 40
0.1875
 40
0.1875
 40
0.1875
 40
0.1875
 40
0.25
 40
0.25
 40
0.25
 40
0.25
 40
0.3125
 40
0.3125
 40
0.3125
 40
0.3125
 40
0.375
 40
0.375
 40
0.375
 40
0.375
 40
0.4375
 40
0.4375
 40
0.4375
 40
0.4375
 40
0.5
 40
0.5
 40
0.5
 40
0.5
 40
0.5625
 40
0.5625
 40
0.5625
 40
0.5625
 40
0.625
 40
0.625
 40
0.625
 40
0.625
 40
0.6875
 40
0.6875
 40
0.6875
 40
0.6875
 40
0.75
 40
0.75
 40
0.75
 40
0.75
 40
0.8125
 40
0.8125
 40
0.8125
 40
0.8125
 40
0.875
 40
0.875
 40
0.875
 40
0.875
 40
0.9375
 40
0.9375
 40
0.9375
 40
0.9375
 40
1.0
 40
1.0
 40
1.0
 40
1.0
 10
-10.53008
 20
-14.86358
 30
0.0
 10
-10.52983
 20
-14.86363
 30
0.0
 10
-10.52961
 20
-14.86375
 30
0.0
 10
-10.52942
 20
-14.86394
 30
0.0
 10
-10.52942
 20
-14.86394
 30
0.0
 10
-10.52923
 20
-14.86412
 30
0.0
 10
-10.52901
 20
-14.86449
 30
0.0
 10
-10.52874
 20
-14.86503
 30
0.0
 10
-10.52874
 20
-14.86503
 30
0.0
 10
-10.52874
 20
-14.86503
 30
0.0
 10
-10.52641
 20
-14.86965
 30
0.0
 10
-10.52641
 20
-14.86965
 30
0.0
 10
-10.52641
 20
-14.86965
 30
0.0
 10
-10.52641
 20
-14.86965
 30
0.0
 10
-10.5292
 20
-14.86965
 30
0.0
 10
-10.5292
 20
-14.86965
 30
0.0
 10
-10.5292
 20
-14.86965
 30
0.0
 10
-10.5292
 20
-14.86965
 30
0.0
 10
-10.53075
 20
-14.8664
 30
0.0
 10
-10.53075
 20
-14.8664
 30
0.0
 10
-10.53075
 20
-14.8664
 30
0.0
 10
-10.5308
 20
-14.86631
 30
0.0
 10
-10.53086
 20
-14.86619
 30
0.0
 10
-10.53093
 20
-14.86602
 30
0.0
 10
-10.53093
 20
-14.86602
 30
0.0
 10
-10.53139
 20
-14.86505
 30
0.0
 10
-10.53192
 20
-14.86457
 30
0.0
 10
-10.53253
 20
-14.86457
 30
0.0
 10
-10.53253
 20
-14.86457
 30
0.0
 10
-10.53253
 20
-14.86457
 30
0.0
 10
-10.53334
 20
-14.86457
 30
0.0
 10
-10.53334
 20
-14.86457
 30
0.0
 10
-10.53334
 20
-14.86457
 30
0.0
 10
-10.53334
 20
-14.86457
 30
0.0
 10
-10.53334
 20
-14.86965
 30
0.0
 10
-10.53334
 20
-14.86965
 30
0.0
 10
-10.53334
 20
-14.86965
 30
0.0
 10
-10.53334
 20
-14.86965
 30
0.0
 10
-10.53588
 20
-14.86965
 30
0.0
 10
-10.53588
 20
-14.86965
 30
0.0
 10
-10.53588
 20
-14.86965
 30
0.0
 10
-10.53588
 20
-14.86965
 30
0.0
 10
-10.53588
 20
-14.85679
 30
0.0
 10
-10.53588
 20
-14.85679
 30
0.0
 10
-10.53588
 20
-14.85679
 30
0.0
 10
-10.53588
 20
-14.85679
 30
0.0
 10
-10.53221
 20
-14.85679
 30
0.0
 10
-10.53221
 20
-14.85679
 30
0.0
 10
-10.53221
 20
-14.85679
 30
0.0
 10
-10.53056
 20
-14.85679
 30
0.0
 10
-10.52937
 20
-14.85708
 30
0.0
 10
-10.52865
 20
-14.85767
 30
0.0
 10
-10.52865
 20
-14.85767
 30
0.0
 10
-10.52793
 20
-14.85825
 30
0.0
 10
-10.52757
 20
-14.85921
 30
0.0
 10
-10.52757
 20
-14.86053
 30
0.0
 10
-10.52757
 20
-14.86053
 30
0.0
 10
-10.52757
 20
-14.86141
 30
0.0
 10
-10.52779
 20
-14.86212
 30
0.0
 10
-10.52822
 20
-14.86264
 30
0.0
 10
-10.52822
 20
-14.86264
 30
0.0
 10
-10.52865
 20
-14.86316
 30
0.0
 10
-10.52927
 20
-14.86348
 30
0.0
 10
-10.53008
 20
-14.86358
 30
0.0
  0
SPLINE
  5
6B
330
1F
100
AcDbEntity
  8
Layer 1
 62
   250
100
AcDbSpline
210
0.0
220
0.0
230
1.0
 70
    11
 71
     3
 72
    32
 73
    28
 74
     0
 42
0.0000000001
 43
0.0000000001
 40
0.0
 40
0.0
 40
0.0
 40
0.0
 40
0.1428571428571428
 40
0.1428571428571428
 40
0.1428571428571428
 40
0.1428571428571428
 40
0.2857142857142857
 40
0.2857142857142857
 40
0.2857142857142857
 40
0.2857142857142857
 40
0.4285714285714285
 40
0.4285714285714285
 40
0.4285714285714285
 40
0.4285714285714285
 40
0.5714285714285714
 40
0.5714285714285714
 40
0.5714285714285714
 40
0.5714285714285714
 40
0.7142857142857142
 40
0.7142857142857142
 40
0.7142857142857142
 40
0.7142857142857142
 40
0.857142857142857
 40
0.857142857142857
 40
0.857142857142857
 40
0.857142857142857
 40
1.0
 40
1.0
 40
1.0
 40
1.0
 10
-10.53334
 20
-14.85893
 30
0.0
 10
-10.53334
 20
-14.85893
 30
0.0
 10
-10.53334
 20
-14.86243
 30
0.0
 10
-10.53334
 20
-14.86243
 30
0.0
 10
-10.53334
 20
-14.86243
 30
0.0
 10
-10.53334
 20
-14.86243
 30
0.0
 10
-10.53215
 20
-14.86243
 30
0.0
 10
-10.53215
 20
-14.86243
 30
0.0
 10
-10.53215
 20
-14.86243
 30
0.0
 10
-10.53145
 20
-14.86243
 30
0.0
 10
-10.53095
 20
-14.8623
 30
0.0
 10
-10.53065
 20
-14.86202
 30
0.0
 10
-10.53065
 20
-14.86202
 30
0.0
 10
-10.53035
 20
-14.86175
 30
0.0
 10
-10.5302
 20
-14.8613
 30
0.0
 10
-10.5302
 20
-14.86068
 30
0.0
 10
-10.5302
 20
-14.86068
 30
0.0
 10
-10.5302
 20
-14.86005
 30
0.0
 10
-10.53035
 20
-14.8596
 30
0.0
 10
-10.53065
 20
-14.85933
 30
0.0
 10
-10.53065
 20
-14.85933
 30
0.0
 10
-10.53095
 20
-14.85906
 30
0.0
 10
-10.53145
 20
-14.85893
 30
0.0
 10
-10.53215
 20
-14.85893
 30
0.0
 10
-10.53215
 20
-14.85893
 30
0.0
 10
-10.53215
 20
-14.85893
 30
0.0
 10
-10.53334
 20
-14.85893
 30
0.0
 10
-10.53334
 20
-14.85893
 30
0.0
  0
SPLINE
  5
6C
330
1F
100
AcDbEntity
  8
Layer 1
 62
   250
100
AcDbSpline
210
0.0
220
0.0
230
1.0
 70
    11
 71
     3
 72
    36
 73
    32
 74
     0
 42
0.0000000001
 43
0.0000000001
 40
0.0
 40
0.0
 40
0.0
 40
0.0
 40
0.125
 40
0.125
 40
0.125
 40
0.125
 40
0.25
 40
0.25
 40
0.25
 40
0.25
 40
0.375
 40
0.375
 40
0.375
 40
0.375
 40
0.5
 40
0.5
 40
0.5
 40
0.5
 40
0.625
 40
0.625
 40
0.625
 40
0.625
 40
0.75
 40
0.75
 40
0.75
 40
0.75
 40
0.875
 40
0.875
 40
0.875
 40
0.875
 40
1.0
 40
1.0
 40
1.0
 40
1.0
 10
-10.52087
 20
-14.86321
 30
0.0
 10
-10.52142
 20
-14.86321
 30
0.0
 10
-10.52184
 20
-14.86341
 30
0.0
 10
-10.52213
 20
-14.86381
 30
0.0
 10
-10.52213
 20
-14.86381
 30
0.0
 10
-10.52242
 20
-14.86421
 30
0.0
 10
-10.52257
 20
-14.86478
 30
0.0
 10
-10.52257
 20
-14.86554
 30
0.0
 10
-10.52257
 20
-14.86554
 30
0.0
 10
-10.52257
 20
-14.86629
 30
0.0
 10
-10.52242
 20
-14.86687
 30
0.0
 10
-10.52213
 20
-14.86727
 30
0.0
 10
-10.52213
 20
-14.86727
 30
0.0
 10
-10.52184
 20
-14.86767
 30
0.0
 10
-10.52142
 20
-14.86787
 30
0.0
 10
-10.52087
 20
-14.86787
 30
0.0
 10
-10.52087
 20
-14.86787
 30
0.0
 10
-10.52032
 20
-14.86787
 30
0.0
 10
-10.51989
 20
-14.86767
 30
0.0
 10
-10.5196
 20
-14.86727
 30
0.0
 10
-10.5196
 20
-14.86727
 30
0.0
 10
-10.5193
 20
-14.86687
 30
0.0
 10
-10.51916
 20
-14.86629
 30
0.0
 10
-10.51916
 20
-14.86554
 30
0.0
 10
-10.51916
 20
-14.86554
 30
0.0
 10
-10.51916
 20
-14.86479
 30
0.0
 10
-10.5193
 20
-14.86421
 30
0.0
 10
-10.5196
 20
-14.86381
 30
0.0
 10
-10.5196
 20
-14.86381
 30
0.0
 10
-10.51989
 20
-14.86341
 30
0.0
 10
-10.52032
 20
-14.86321
 30
0.0
 10
-10.52087
 20
-14.86321
 30
0.0
  0
SPLINE
  5
6D
330
1F
100
AcDbEntity
  8
Layer 1
 62
   250
100
AcDbSpline
210
0.0
220
0.0
230
1.0
 70
    11
 71
     3
 72
    72
 73
    68
 74
     0
 42
0.0000000001
 43
0.0000000001
 40
0.0
 40
0.0
 40
0.0
 40
0.0
 40
0.0588235294117647
 40
0.0588235294117647
 40
0.0588235294117647
 40
0.0588235294117647
 40
0.1176470588235294
 40
0.1176470588235294
 40
0.1176470588235294
 40
0.1176470588235294
 40
0.1764705882352941
 40
0.1764705882352941
 40
0.1764705882352941
 40
0.1764705882352941
 40
0.2352941176470588
 40
0.2352941176470588
 40
0.2352941176470588
 40
0.2352941176470588
 40
0.2941176470588235
 40
0.2941176470588235
 40
0.2941176470588235
 40
0.2941176470588235
 40
0.3529411764705883
 40
0.3529411764705883
 40
0.3529411764705883
 40
0.3529411764705883
 40
0.411764705882353
 40
0.411764705882353
 40
0.411764705882353
 40
0.411764705882353
 40
0.4705882352941177
 40
0.4705882352941177
 40
0.4705882352941177
 40
0.4705882352941177
 40
0.5294117647058824
 40
0.5294117647058824
 40
0.5294117647058824
 40
0.5294117647058824
 40
0.5882352941176471
 40
0.5882352941176471
 40
0.5882352941176471
 40
0.5882352941176471
 40
0.6470588235294118
 40
0.6470588235294118
 40
0.6470588235294118
 40
0.6470588235294118
 40
0.7058823529411765
 40
0.7058823529411765
 40
0.7058823529411765
 40
0.7058823529411765
 40
0.7647058823529412
 40
0.7647058823529412
 40
0.7647058823529412
 40
0.7647058823529412
 40
0.823529411764706
 40
0.823529411764706
 40
0.823529411764706
 40
0.823529411764706
 40
0.8823529411764707
 40
0.8823529411764707
 40
0.8823529411764707
 40
0.8823529411764707
 40
0.9411764705882354
 40
0.9411764705882354
 40
0.9411764705882354
 40
0.9411764705882354
 40
1.0
 40
1.0
 40
1.0
 40
1.0
 10
-10.51754
 20
-14.85709
 30
0.0
 10
-10.51754
 20
-14.85709
 30
0.0
 10
-10.51754
 20
-14.8594
 30
0.0
 10
-10.51754
 20
-14.8594
 30
0.0
 10
-10.51754
 20
-14.8594
 30
0.0
 10
-10.51799
 20
-14.85914
 30
0.0
 10
-10.51843
 20
-14.85895
 30
0.0
 10
-10.51885
 20
-14.85882
 30
0.0
 10
-10.51885
 20
-14.85882
 30
0.0
 10
-10.51926
 20
-14.85869
 30
0.0
 10
-10.51966
 20
-14.85862
 30
0.0
 10
-10.52004
 20
-14.85862
 30
0.0
 10
-10.52004
 20
-14.85862
 30
0.0
 10
-10.52096
 20
-14.85862
 30
0.0
 10
-10.52166
 20
-14.85893
 30
0.0
 10
-10.52214
 20
-14.85955
 30
0.0
 10
-10.52214
 20
-14.85955
 30
0.0
 10
-10.52262
 20
-14.86017
 30
0.0
 10
-10.52287
 20
-14.86108
 30
0.0
 10
-10.52289
 20
-14.86229
 30
0.0
 10
-10.52289
 20
-14.86229
 30
0.0
 10
-10.52262
 20
-14.86191
 30
0.0
 10
-10.52228
 20
-14.86163
 30
0.0
 10
-10.52186
 20
-14.86144
 30
0.0
 10
-10.52186
 20
-14.86144
 30
0.0
 10
-10.52144
 20
-14.86126
 30
0.0
 10
-10.52095
 20
-14.86117
 30
0.0
 10
-10.52038
 20
-14.86117
 30
0.0
 10
-10.52038
 20
-14.86117
 30
0.0
 10
-10.51922
 20
-14.86117
 30
0.0
 10
-10.51832
 20
-14.86153
 30
0.0
 10
-10.51769
 20
-14.86226
 30
0.0
 10
-10.51769
 20
-14.86226
 30
0.0
 10
-10.51706
 20
-14.863
 30
0.0
 10
-10.51675
 20
-14.86403
 30
0.0
 10
-10.51675
 20
-14.86538
 30
0.0
 10
-10.51675
 20
-14.86538
 30
0.0
 10
-10.51675
 20
-14.86682
 30
0.0
 10
-10.5171
 20
-14.86794
 30
0.0
 10
-10.51781
 20
-14.86873
 30
0.0
 10
-10.51781
 20
-14.86873
 30
0.0
 10
-10.51852
 20
-14.86952
 30
0.0
 10
-10.51952
 20
-14.86992
 30
0.0
 10
-10.5208
 20
-14.86992
 30
0.0
 10
-10.5208
 20
-14.86992
 30
0.0
 10
-10.52237
 20
-14.86992
 30
0.0
 10
-10.52351
 20
-14.86939
 30
0.0
 10
-10.52422
 20
-14.86834
 30
0.0
 10
-10.52422
 20
-14.86834
 30
0.0
 10
-10.52493
 20
-14.86729
 30
0.0
 10
-10.52528
 20
-14.86559
 30
0.0
 10
-10.52528
 20
-14.86325
 30
0.0
 10
-10.52528
 20
-14.86325
 30
0.0
 10
-10.52528
 20
-14.86102
 30
0.0
 10
-10.52485
 20
-14.85935
 30
0.0
 10
-10.52398
 20
-14.85824
 30
0.0
 10
-10.52398
 20
-14.85824
 30
0.0
 10
-10.52311
 20
-14.85713
 30
0.0
 10
-10.52181
 20
-14.85658
 30
0.0
 10
-10.52008
 20
-14.85658
 30
0.0
 10
-10.52008
 20
-14.85658
 30
0.0
 10
-10.51968
 20
-14.85658
 30
0.0
 10
-10.51926
 20
-14.85662
 30
0.0
 10
-10.51884
 20
-14.85671
 30
0.0
 10
-10.51884
 20
-14.85671
 30
0.0
 10
-10.51841
 20
-14.85679
 30
0.0
 10
-10.51798
 20
-14.85692
 30
0.0
 10
-10.51754
 20
-14.85709
 30
0.0
  0
SPLINE
  5
6E
330
1F
100
AcDbEntity
  8
Layer 1
 62
   250
100
AcDbSpline
210
0.0
220
0.0
230
1.0
 70
    11
 71
     3
 72
    16
 73
    12
 74
     0
 42
0.0000000001
 43
0.0000000001
 40
0.0
 40
0.0
 40
0.0
 40
0.0
 40
0.3333333333333333
 40
0.3333333333333333
 40
0.3333333333333333
 40
0.3333333333333333
 40
0.6666666666666666
 40
0.6666666666666666
 40
0.6666666666666666
 40
0.6666666666666666
 40
1.0
 40
1.0
 40
1.0
 40
1.0
 10
-10.50981
 20
-14.85962
 30
0.0
 10
-10.50981
 20
-14.85962
 30
0.0
 10
-10.51306
 20
-14.8647
 30
0.0
 10
-10.51306
 20
-14.8647
 30
0.0
 10
-10.51306
 20
-14.8647
 30
0.0
 10
-10.51306
 20
-14.8647
 30
0.0
 10
-10.50981
 20
-14.8647
 30
0.0
 10
-10.50981
 20
-14.8647
 30
0.0
 10
-10.50981
 20
-14.8647
 30
0.0
 10
-10.50981
 20
-14.8647
 30
0.0
 10
-10.50981
 20
-14.85962
 30
0.0
 10
-10.50981
 20
-14.85962
 30
0.0
  0
SPLINE
  5
6F
330
1F
100
AcDbEntity
  8
Layer 1
 62
   250
100
AcDbSpline
210
0.0
220
0.0
230
1.0
 70
    11
 71
     3
 72
    48
 73
    44
 74
     0
 42
0.0000000001
 43
0.0000000001
 40
0.0
 40
0.0
 40
0.0
 40
0.0
 40
0.0909090909090909
 40
0.0909090909090909
 40
0.0909090909090909
 40
0.0909090909090909
 40
0.1818181818181818
 40
0.1818181818181818
 40
0.1818181818181818
 40
0.1818181818181818
 40
0.2727272727272727
 40
0.2727272727272727
 40
0.2727272727272727
 40
0.2727272727272727
 40
0.3636363636363636
 40
0.3636363636363636
 40
0.3636363636363636
 40
0.3636363636363636
 40
0.4545454545454546
 40
0.4545454545454546
 40
0.4545454545454546
 40
0.4545454545454546
 40
0.5454545454545455
 40
0.5454545454545455
 40
0.5454545454545455
 40
0.5454545454545455
 40
0.6363636363636365
 40
0.6363636363636365
 40
0.6363636363636365
 40
0.6363636363636365
 40
0.7272727272727274
 40
0.7272727272727274
 40
0.7272727272727274
 40
0.7272727272727274
 40
0.8181818181818183
 40
0.8181818181818183
 40
0.8181818181818183
 40
0.8181818181818183
 40
0.9090909090909093
 40
0.9090909090909093
 40
0.9090909090909093
 40
0.9090909090909093
 40
1.0
 40
1.0
 40
1.0
 40
1.0
 10
-10.51003
 20
-14.85679
 30
0.0
 10
-10.51003
 20
-14.85679
 30
0.0
 10
-10.50737
 20
-14.85679
 30
0.0
 10
-10.50737
 20
-14.85679
 30
0.0
 10
-10.50737
 20
-14.85679
 30
0.0
 10
-10.50737
 20
-14.85679
 30
0.0
 10
-10.50737
 20
-14.8647
 30
0.0
 10
-10.50737
 20
-14.8647
 30
0.0
 10
-10.50737
 20
-14.8647
 30
0.0
 10
-10.50737
 20
-14.8647
 30
0.0
 10
-10.50596
 20
-14.8647
 30
0.0
 10
-10.50596
 20
-14.8647
 30
0.0
 10
-10.50596
 20
-14.8647
 30
0.0
 10
-10.50596
 20
-14.8647
 30
0.0
 10
-10.50596
 20
-14.86687
 30
0.0
 10
-10.50596
 20
-14.86687
 30
0.0
 10
-10.50596
 20
-14.86687
 30
0.0
 10
-10.50596
 20
-14.86687
 30
0.0
 10
-10.50737
 20
-14.86687
 30
0.0
 10
-10.50737
 20
-14.86687
 30
0.0
 10
-10.50737
 20
-14.86687
 30
0.0
 10
-10.50737
 20
-14.86687
 30
0.0
 10
-10.50737
 20
-14.86965
 30
0.0
 10
-10.50737
 20
-14.86965
 30
0.0
 10
-10.50737
 20
-14.86965
 30
0.0
 10
-10.50737
 20
-14.86965
 30
0.0
 10
-10.50981
 20
-14.86965
 30
0.0
 10
-10.50981
 20
-14.86965
 30
0.0
 10
-10.50981
 20
-14.86965
 30
0.0
 10
-10.50981
 20
-14.86965
 30
0.0
 10
-10.50981
 20
-14.86687
 30
0.0
 10
-10.50981
 20
-14.86687
 30
0.0
 10
-10.50981
 20
-14.86687
 30
0.0
 10
-10.50981
 20
-14.86687
 30
0.0
 10
-10.51491
 20
-14.86687
 30
0.0
 10
-10.51491
 20
-14.86687
 30
0.0
 10
-10.51491
 20
-14.86687
 30
0.0
 10
-10.51491
 20
-14.86687
 30
0.0
 10
-10.51491
 20
-14.86441
 30
0.0
 10
-10.51491
 20
-14.86441
 30
0.0
 10
-10.51491
 20
-14.86441
 30
0.0
 10
-10.51491
 20
-14.86441
 30
0.0
 10
-10.51003
 20
-14.85679
 30
0.0
 10
-10.51003
 20
-14.85679
 30
0.0
  0
SPLINE
  5
70
330
1F
100
AcDbEntity
  8
Layer 1
 62
   250
100
AcDbSpline
210
0.0
220
0.0
230
1.0
 70
    11
 71
     3
 72
    72
 73
    68
 74
     0
 42
0.0000000001
 43
0.0000000001
 40
0.0
 40
0.0
 40
0.0
 40
0.0
 40
0.0588235294117647
 40
0.0588235294117647
 40
0.0588235294117647
 40
0.0588235294117647
 40
0.1176470588235294
 40
0.1176470588235294
 40
0.1176470588235294
 40
0.1176470588235294
 40
0.1764705882352941
 40
0.1764705882352941
 40
0.1764705882352941
 40
0.1764705882352941
 40
0.2352941176470588
 40
0.2352941176470588
 40
0.2352941176470588
 40
0.2352941176470588
 40
0.2941176470588235
 40
0.2941176470588235
 40
0.2941176470588235
 40
0.2941176470588235
 40
0.3529411764705883
 40
0.3529411764705883
 40
0.3529411764705883
 40
0.3529411764705883
 40
0.411764705882353
 40
0.411764705882353
 40
0.411764705882353
 40
0.411764705882353
 40
0.4705882352941177
 40
0.4705882352941177
 40
0.4705882352941177
 40
0.4705882352941177
 40
0.5294117647058824
 40
0.5294117647058824
 40
0.5294117647058824
 40
0.5294117647058824
 40
0.5882352941176471
 40
0.5882352941176471
 40
0.5882352941176471
 40
0.5882352941176471
 40
0.6470588235294118
 40
0.6470588235294118
 40
0.6470588235294118
 40
0.6470588235294118
 40
0.7058823529411765
 40
0.7058823529411765
 40
0.7058823529411765
 40
0.7058823529411765
 40
0.7647058823529412
 40
0.7647058823529412
 40
0.7647058823529412
 40
0.7647058823529412
 40
0.823529411764706
 40
0.823529411764706
 40
0.823529411764706
 40
0.823529411764706
 40
0.8823529411764707
 40
0.8823529411764707
 40
0.8823529411764707
 40
0.8823529411764707
 40
0.9411764705882354
 40
0.9411764705882354
 40
0.9411764705882354
 40
0.9411764705882354
 40
1.0
 40
1.0
 40
1.0
 40
1.0
 10
-10.50342
 20
-14.86948
 30
0.0
 10
-10.50342
 20
-14.86948
 30
0.0
 10
-10.50342
 20
-14.86716
 30
0.0
 10
-10.50342
 20
-14.86716
 30
0.0
 10
-10.50342
 20
-14.86716
 30
0.0
 10
-10.50297
 20
-14.86742
 30
0.0
 10
-10.50253
 20
-14.86762
 30
0.0
 10
-10.50212
 20
-14.86774
 30
0.0
 10
-10.50212
 20
-14.86774
 30
0.0
 10
-10.5017
 20
-14.86787
 30
0.0
 10
-10.5013
 20
-14.86794
 30
0.0
 10
-10.50092
 20
-14.86794
 30
0.0
 10
-10.50092
 20
-14.86794
 30
0.0
 10
-10.5
 20
-14.86794
 30
0.0
 10
-10.49931
 20
-14.86763
 30
0.0
 10
-10.49883
 20
-14.86702
 30
0.0
 10
-10.49883
 20
-14.86702
 30
0.0
 10
-10.49835
 20
-14.86641
 30
0.0
 10
-10.4981
 20
-14.86549
 30
0.0
 10
-10.49807
 20
-14.86428
 30
0.0
 10
-10.49807
 20
-14.86428
 30
0.0
 10
-10.49834
 20
-14.86465
 30
0.0
 10
-10.49868
 20
-14.86493
 30
0.0
 10
-10.4991
 20
-14.86512
 30
0.0
 10
-10.4991
 20
-14.86512
 30
0.0
 10
-10.49952
 20
-14.8653
 30
0.0
 10
-10.50002
 20
-14.8654
 30
0.0
 10
-10.50059
 20
-14.8654
 30
0.0
 10
-10.50059
 20
-14.8654
 30
0.0
 10
-10.50174
 20
-14.8654
 30
0.0
 10
-10.50264
 20
-14.86503
 30
0.0
 10
-10.50327
 20
-14.8643
 30
0.0
 10
-10.50327
 20
-14.8643
 30
0.0
 10
-10.5039
 20
-14.86356
 30
0.0
 10
-10.50421
 20
-14.86253
 30
0.0
 10
-10.50421
 20
-14.86118
 30
0.0
 10
-10.50421
 20
-14.86118
 30
0.0
 10
-10.50421
 20
-14.85975
 30
0.0
 10
-10.50386
 20
-14.85864
 30
0.0
 10
-10.50316
 20
-14.85785
 30
0.0
 10
-10.50316
 20
-14.85785
 30
0.0
 10
-10.50245
 20
-14.85706
 30
0.0
 10
-10.50145
 20
-14.85667
 30
0.0
 10
-10.50016
 20
-14.85667
 30
0.0
 10
-10.50016
 20
-14.85667
 30
0.0
 10
-10.49859
 20
-14.85667
 30
0.0
 10
-10.49745
 20
-14.85719
 30
0.0
 10
-10.49674
 20
-14.85824
 30
0.0
 10
-10.49674
 20
-14.85824
 30
0.0
 10
-10.49604
 20
-14.85929
 30
0.0
 10
-10.49568
 20
-14.86098
 30
0.0
 10
-10.49568
 20
-14.86332
 30
0.0
 10
-10.49568
 20
-14.86332
 30
0.0
 10
-10.49568
 20
-14.86554
 30
0.0
 10
-10.49611
 20
-14.86721
 30
0.0
 10
-10.49698
 20
-14.86832
 30
0.0
 10
-10.49698
 20
-14.86832
 30
0.0
 10
-10.49785
 20
-14.86943
 30
0.0
 10
-10.49915
 20
-14.86999
 30
0.0
 10
-10.50088
 20
-14.86999
 30
0.0
 10
-10.50088
 20
-14.86999
 30
0.0
 10
-10.50128
 20
-14.86999
 30
0.0
 10
-10.5017
 20
-14.86994
 30
0.0
 10
-10.50212
 20
-14.86986
 30
0.0
 10
-10.50212
 20
-14.86986
 30
0.0
 10
-10.50255
 20
-14.86977
 30
0.0
 10
-10.50299
 20
-14.86964
 30
0.0
 10
-10.50342
 20
-14.86948
 30
0.0
  0
SPLINE
  5
71
330
1F
100
AcDbEntity
  8
Layer 1
 62
   250
100
AcDbSpline
210
0.0
220
0.0
230
1.0
 70
    11
 71
     3
 72
    36
 73
    32
 74
     0
 42
0.0000000001
 43
0.0000000001
 40
0.0
 40
0.0
 40
0.0
 40
0.0
 40
0.125
 40
0.125
 40
0.125
 40
0.125
 40
0.25
 40
0.25
 40
0.25
 40
0.25
 40
0.375
 40
0.375
 40
0.375
 40
0.375
 40
0.5
 40
0.5
 40
0.5
 40
0.5
 40
0.625
 40
0.625
 40
0.625
 40
0.625
 40
0.75
 40
0.75
 40
0.75
 40
0.75
 40
0.875
 40
0.875
 40
0.875
 40
0.875
 40
1.0
 40
1.0
 40
1.0
 40
1.0
 10
-10.50009
 20
-14.86327
 30
0.0
 10
-10.49955
 20
-14.86327
 30
0.0
 10
-10.49913
 20
-14.86307
 30
0.0
 10
-10.49884
 20
-14.86267
 30
0.0
 10
-10.49884
 20
-14.86267
 30
0.0
 10
-10.49855
 20
-14.86227
 30
0.0
 10
-10.4984
 20
-14.86169
 30
0.0
 10
-10.4984
 20
-14.86093
 30
0.0
 10
-10.4984
 20
-14.86093
 30
0.0
 10
-10.4984
 20
-14.86018
 30
0.0
 10
-10.49855
 20
-14.8596
 30
0.0
 10
-10.49884
 20
-14.85921
 30
0.0
 10
-10.49884
 20
-14.85921
 30
0.0
 10
-10.49913
 20
-14.85881
 30
0.0
 10
-10.49955
 20
-14.85861
 30
0.0
 10
-10.50009
 20
-14.85861
 30
0.0
 10
-10.50009
 20
-14.85861
 30
0.0
 10
-10.50064
 20
-14.85861
 30
0.0
 10
-10.50107
 20
-14.85881
 30
0.0
 10
-10.50136
 20
-14.85921
 30
0.0
 10
-10.50136
 20
-14.85921
 30
0.0
 10
-10.50166
 20
-14.8596
 30
0.0
 10
-10.5018
 20
-14.86018
 30
0.0
 10
-10.5018
 20
-14.86093
 30
0.0
 10
-10.5018
 20
-14.86093
 30
0.0
 10
-10.5018
 20
-14.86169
 30
0.0
 10
-10.50166
 20
-14.86226
 30
0.0
 10
-10.50136
 20
-14.86266
 30
0.0
 10
-10.50136
 20
-14.86266
 30
0.0
 10
-10.50107
 20
-14.86307
 30
0.0
 10
-10.50064
 20
-14.86327
 30
0.0
 10
-10.50009
 20
-14.86327
 30
0.0
  0
SPLINE
  5
72
330
1F
100
AcDbEntity
  8
Layer 1
 62
   250
100
AcDbSpline
210
0.0
220
0.0
230
1.0
 70
    11
 71
     3
 72
    72
 73
    68
 74
     0
 42
0.0000000001
 43
0.0000000001
 40
0.0
 40
0.0
 40
0.0
 40
0.0
 40
0.0588235294117647
 40
0.0588235294117647
 40
0.0588235294117647
 40
0.0588235294117647
 40
0.1176470588235294
 40
0.1176470588235294
 40
0.1176470588235294
 40
0.1176470588235294
 40
0.1764705882352941
 40
0.1764705882352941
 40
0.1764705882352941
 40
0.1764705882352941
 40
0.2352941176470588
 40
0.2352941176470588
 40
0.2352941176470588
 40
0.2352941176470588
 40
0.2941176470588235
 40
0.2941176470588235
 40
0.2941176470588235
 40
0.2941176470588235
 40
0.3529411764705883
 40
0.3529411764705883
 40
0.3529411764705883
 40
0.3529411764705883
 40
0.411764705882353
 40
0.411764705882353
 40
0.411764705882353
 40
0.411764705882353
 40
0.4705882352941177
 40
0.4705882352941177
 40
0.4705882352941177
 40
0.4705882352941177
 40
0.5294117647058824
 40
0.5294117647058824
 40
0.5294117647058824
 40
0.5294117647058824
 40
0.5882352941176471
 40
0.5882352941176471
 40
0.5882352941176471
 40
0.5882352941176471
 40
0.6470588235294118
 40
0.6470588235294118
 40
0.6470588235294118
 40
0.6470588235294118
 40
0.7058823529411765
 40
0.7058823529411765
 40
0.7058823529411765
 40
0.7058823529411765
 40
0.7647058823529412
 40
0.7647058823529412
 40
0.7647058823529412
 40
0.7647058823529412
 40
0.823529411764706
 40
0.823529411764706
 40
0.823529411764706
 40
0.823529411764706
 40
0.8823529411764707
 40
0.8823529411764707
 40
0.8823529411764707
 40
0.8823529411764707
 40
0.9411764705882354
 40
0.9411764705882354
 40
0.9411764705882354
 40
0.9411764705882354
 40
1.0
 40
1.0
 40
1.0
 40
1.0
 10
-10.4928
 20
-14.86948
 30
0.0
 10
-10.4928
 20
-14.86948
 30
0.0
 10
-10.4928
 20
-14.86716
 30
0.0
 10
-10.4928
 20
-14.86716
 30
0.0
 10
-10.4928
 20
-14.86716
 30
0.0
 10
-10.49235
 20
-14.86742
 30
0.0
 10
-10.49191
 20
-14.86762
 30
0.0
 10
-10.4915
 20
-14.86774
 30
0.0
 10
-10.4915
 20
-14.86774
 30
0.0
 10
-10.49108
 20
-14.86787
 30
0.0
 10
-10.49068
 20
-14.86794
 30
0.0
 10
-10.4903
 20
-14.86794
 30
0.0
 10
-10.4903
 20
-14.86794
 30
0.0
 10
-10.48938
 20
-14.86794
 30
0.0
 10
-10.48869
 20
-14.86763
 30
0.0
 10
-10.48821
 20
-14.86702
 30
0.0
 10
-10.48821
 20
-14.86702
 30
0.0
 10
-10.48773
 20
-14.86641
 30
0.0
 10
-10.48748
 20
-14.86549
 30
0.0
 10
-10.48745
 20
-14.86428
 30
0.0
 10
-10.48745
 20
-14.86428
 30
0.0
 10
-10.48772
 20
-14.86465
 30
0.0
 10
-10.48806
 20
-14.86493
 30
0.0
 10
-10.48848
 20
-14.86512
 30
0.0
 10
-10.48848
 20
-14.86512
 30
0.0
 10
-10.4889
 20
-14.8653
 30
0.0
 10
-10.4894
 20
-14.8654
 30
0.0
 10
-10.48997
 20
-14.8654
 30
0.0
 10
-10.48997
 20
-14.8654
 30
0.0
 10
-10.49112
 20
-14.8654
 30
0.0
 10
-10.49202
 20
-14.86503
 30
0.0
 10
-10.49265
 20
-14.8643
 30
0.0
 10
-10.49265
 20
-14.8643
 30
0.0
 10
-10.49328
 20
-14.86356
 30
0.0
 10
-10.49359
 20
-14.86253
 30
0.0
 10
-10.49359
 20
-14.86118
 30
0.0
 10
-10.49359
 20
-14.86118
 30
0.0
 10
-10.49359
 20
-14.85975
 30
0.0
 10
-10.49324
 20
-14.85864
 30
0.0
 10
-10.49254
 20
-14.85785
 30
0.0
 10
-10.49254
 20
-14.85785
 30
0.0
 10
-10.49183
 20
-14.85706
 30
0.0
 10
-10.49083
 20
-14.85667
 30
0.0
 10
-10.48954
 20
-14.85667
 30
0.0
 10
-10.48954
 20
-14.85667
 30
0.0
 10
-10.48797
 20
-14.85667
 30
0.0
 10
-10.48683
 20
-14.85719
 30
0.0
 10
-10.48612
 20
-14.85824
 30
0.0
 10
-10.48612
 20
-14.85824
 30
0.0
 10
-10.48542
 20
-14.85929
 30
0.0
 10
-10.48506
 20
-14.86098
 30
0.0
 10
-10.48506
 20
-14.86332
 30
0.0
 10
-10.48506
 20
-14.86332
 30
0.0
 10
-10.48506
 20
-14.86554
 30
0.0
 10
-10.48549
 20
-14.86721
 30
0.0
 10
-10.48636
 20
-14.86832
 30
0.0
 10
-10.48636
 20
-14.86832
 30
0.0
 10
-10.48723
 20
-14.86943
 30
0.0
 10
-10.48853
 20
-14.86999
 30
0.0
 10
-10.49026
 20
-14.86999
 30
0.0
 10
-10.49026
 20
-14.86999
 30
0.0
 10
-10.49066
 20
-14.86999
 30
0.0
 10
-10.49108
 20
-14.86994
 30
0.0
 10
-10.4915
 20
-14.86986
 30
0.0
 10
-10.4915
 20
-14.86986
 30
0.0
 10
-10.49193
 20
-14.86977
 30
0.0
 10
-10.49237
 20
-14.86964
 30
0.0
 10
-10.4928
 20
-14.86948
 30
0.0
  0
SPLINE
  5
73
330
1F
100
AcDbEntity
  8
Layer 1
 62
   250
100
AcDbSpline
210
0.0
220
0.0
230
1.0
 70
    11
 71
     3
 72
    36
 73
    32
 74
     0
 42
0.0000000001
 43
0.0000000001
 40
0.0
 40
0.0
 40
0.0
 40
0.0
 40
0.125
 40
0.125
 40
0.125
 40
0.125
 40
0.25
 40
0.25
 40
0.25
 40
0.25
 40
0.375
 40
0.375
 40
0.375
 40
0.375
 40
0.5
 40
0.5
 40
0.5
 40
0.5
 40
0.625
 40
0.625
 40
0.625
 40
0.625
 40
0.75
 40
0.75
 40
0.75
 40
0.75
 40
0.875
 40
0.875
 40
0.875
 40
0.875
 40
1.0
 40
1.0
 40
1.0
 40
1.0
 10
-10.48947
 20
-14.86327
 30
0.0
 10
-10.48893
 20
-14.86327
 30
0.0
 10
-10.48851
 20
-14.86307
 30
0.0
 10
-10.48822
 20
-14.86267
 30
0.0
 10
-10.48822
 20
-14.86267
 30
0.0
 10
-10.48793
 20
-14.86227
 30
0.0
 10
-10.48778
 20
-14.86169
 30
0.0
 10
-10.48778
 20
-14.86093
 30
0.0
 10
-10.48778
 20
-14.86093
 30
0.0
 10
-10.48778
 20
-14.86018
 30
0.0
 10
-10.48793
 20
-14.8596
 30
0.0
 10
-10.48822
 20
-14.85921
 30
0.0
 10
-10.48822
 20
-14.85921
 30
0.0
 10
-10.48851
 20
-14.85881
 30
0.0
 10
-10.48893
 20
-14.85861
 30
0.0
 10
-10.48947
 20
-14.85861
 30
0.0
 10
-10.48947
 20
-14.85861
 30
0.0
 10
-10.49002
 20
-14.85861
 30
0.0
 10
-10.49045
 20
-14.85881
 30
0.0
 10
-10.49074
 20
-14.85921
 30
0.0
 10
-10.49074
 20
-14.85921
 30
0.0
 10
-10.49104
 20
-14.8596
 30
0.0
 10
-10.49118
 20
-14.86018
 30
0.0
 10
-10.49118
 20
-14.86093
 30
0.0
 10
-10.49118
 20
-14.86093
 30
0.0
 10
-10.49118
 20
-14.86169
 30
0.0
 10
-10.49104
 20
-14.86226
 30
0.0
 10
-10.49074
 20
-14.86266
 30
0.0
 10
-10.49074
 20
-14.86266
 30
0.0
 10
-10.49045
 20
-14.86307
 30
0.0
 10
-10.49002
 20
-14.86327
 30
0.0
 10
-10.48947
 20
-14.86327
 30
0.0
  0
SPLINE
  5
74
330
1F
100
AcDbEntity
  8
Layer 1
 62
   250
100
AcDbSpline
210
0.0
220
0.0
230
1.0
 70
    11
 71
     3
 72
    32
 73
    28
 74
     0
 42
0.0000000001
 43
0.0000000001
 40
0.0
 40
0.0
 40
0.0
 40
0.0
 40
0.1428571428571428
 40
0.1428571428571428
 40
0.1428571428571428
 40
0.1428571428571428
 40
0.2857142857142857
 40
0.2857142857142857
 40
0.2857142857142857
 40
0.2857142857142857
 40
0.4285714285714285
 40
0.4285714285714285
 40
0.4285714285714285
 40
0.4285714285714285
 40
0.5714285714285714
 40
0.5714285714285714
 40
0.5714285714285714
 40
0.5714285714285714
 40
0.7142857142857142
 40
0.7142857142857142
 40
0.7142857142857142
 40
0.7142857142857142
 40
0.857142857142857
 40
0.857142857142857
 40
0.857142857142857
 40
0.857142857142857
 40
1.0
 40
1.0
 40
1.0
 40
1.0
 10
-10.48021
 20
-14.85908
 30
0.0
 10
-10.48021
 20
-14.85908
 30
0.0
 10
-10.48021
 20
-14.86736
 30
0.0
 10
-10.48021
 20
-14.86736
 30
0.0
 10
-10.48021
 20
-14.86736
 30
0.0
 10
-10.48021
 20
-14.86736
 30
0.0
 10
-10.47952
 20
-14.86736
 30
0.0
 10
-10.47952
 20
-14.86736
 30
0.0
 10
-10.47952
 20
-14.86736
 30
0.0
 10
-10.47852
 20
-14.86736
 30
0.0
 10
-10.47781
 20
-14.86705
 30
0.0
 10
-10.47739
 20
-14.86642
 30
0.0
 10
-10.47739
 20
-14.86642
 30
0.0
 10
-10.47696
 20
-14.86579
 30
0.0
 10
-10.47675
 20
-14.86472
 30
0.0
 10
-10.47675
 20
-14.86321
 30
0.0
 10
-10.47675
 20
-14.86321
 30
0.0
 10
-10.47675
 20
-14.86171
 30
0.0
 10
-10.47696
 20
-14.86064
 30
0.0
 10
-10.47739
 20
-14.86002
 30
0.0
 10
-10.47739
 20
-14.86002
 30
0.0
 10
-10.47781
 20
-14.85939
 30
0.0
 10
-10.47852
 20
-14.85908
 30
0.0
 10
-10.47952
 20
-14.85908
 30
0.0
 10
-10.47952
 20
-14.85908
 30
0.0
 10
-10.47952
 20
-14.85908
 30
0.0
 10
-10.48021
 20
-14.85908
 30
0.0
 10
-10.48021
 20
-14.85908
 30
0.0
  0
SPLINE
  5
75
330
1F
100
AcDbEntity
  8
Layer 1
 62
   250
100
AcDbSpline
210
0.0
220
0.0
230
1.0
 70
    11
 71
     3
 72
    32
 73
    28
 74
     0
 42
0.0000000001
 43
0.0000000001
 40
0.0
 40
0.0
 40
0.0
 40
0.0
 40
0.1428571428571428
 40
0.1428571428571428
 40
0.1428571428571428
 40
0.1428571428571428
 40
0.2857142857142857
 40
0.2857142857142857
 40
0.2857142857142857
 40
0.2857142857142857
 40
0.4285714285714285
 40
0.4285714285714285
 40
0.4285714285714285
 40
0.4285714285714285
 40
0.5714285714285714
 40
0.5714285714285714
 40
0.5714285714285714
 40
0.5714285714285714
 40
0.7142857142857142
 40
0.7142857142857142
 40
0.7142857142857142
 40
0.7142857142857142
 40
0.857142857142857
 40
0.857142857142857
 40
0.857142857142857
 40
0.857142857142857
 40
1.0
 40
1.0
 40
1.0
 40
1.0
 10
-10.48275
 20
-14.85679
 30
0.0
 10
-10.48275
 20
-14.85679
 30
0.0
 10
-10.48003
 20
-14.85679
 30
0.0
 10
-10.48003
 20
-14.85679
 30
0.0
 10
-10.48003
 20
-14.85679
 30
0.0
 10
-10.47793
 20
-14.85679
 30
0.0
 10
-10.47642
 20
-14.85729
 30
0.0
 10
-10.47549
 20
-14.85829
 30
0.0
 10
-10.47549
 20
-14.85829
 30
0.0
 10
-10.47457
 20
-14.8593
 30
0.0
 10
-10.4741
 20
-14.86093
 30
0.0
 10
-10.4741
 20
-14.86321
 30
0.0
 10
-10.4741
 20
-14.86321
 30
0.0
 10
-10.4741
 20
-14.86549
 30
0.0
 10
-10.47457
 20
-14.86713
 30
0.0
 10
-10.47549
 20
-14.86814
 30
0.0
 10
-10.47549
 20
-14.86814
 30
0.0
 10
-10.47642
 20
-14.86915
 30
0.0
 10
-10.47793
 20
-14.86965
 30
0.0
 10
-10.48003
 20
-14.86965
 30
0.0
 10
-10.48003
 20
-14.86965
 30
0.0
 10
-10.48003
 20
-14.86965
 30
0.0
 10
-10.48275
 20
-14.86965
 30
0.0
 10
-10.48275
 20
-14.86965
 30
0.0
 10
-10.48275
 20
-14.86965
 30
0.0
 10
-10.48275
 20
-14.86965
 30
0.0
 10
-10.48275
 20
-14.85679
 30
0.0
 10
-10.48275
 20
-14.85679
 30
0.0
  0
SPLINE
  5
76
330
1F
100
AcDbEntity
  8
Layer 1
 62
   250
100
AcDbSpline
210
0.0
220
0.0
230
1.0
 70
    11
 71
     3
 72
    16
 73
    12
 74
     0
 42
0.0000000001
 43
0.0000000001
 40
0.0
 40
0.0
 40
0.0
 40
0.0
 40
0.3333333333333333
 40
0.3333333333333333
 40
0.3333333333333333
 40
0.3333333333333333
 40
0.6666666666666666
 40
0.6666666666666666
 40
0.6666666666666666
 40
0.6666666666666666
 40
1.0
 40
1.0
 40
1.0
 40
1.0
 10
-10.468
 20
-14.85912
 30
0.0
 10
-10.468
 20
-14.85912
 30
0.0
 10
-10.4692
 20
-14.86438
 30
0.0
 10
-10.4692
 20
-14.86438
 30
0.0
 10
-10.4692
 20
-14.86438
 30
0.0
 10
-10.4692
 20
-14.86438
 30
0.0
 10
-10.4668
 20
-14.86438
 30
0.0
 10
-10.4668
 20
-14.86438
 30
0.0
 10
-10.4668
 20
-14.86438
 30
0.0
 10
-10.4668
 20
-14.86438
 30
0.0
 10
-10.468
 20
-14.85912
 30
0.0
 10
-10.468
 20
-14.85912
 30
0.0
  0
SPLINE
  5
77
330
1F
100
AcDbEntity
  8
Layer 1
 62
   250
100
AcDbSpline
210
0.0
220
0.0
230
1.0
 70
    11
 71
     3
 72
    36
 73
    32
 74
     0
 42
0.0000000001
 43
0.0000000001
 40
0.0
 40
0.0
 40
0.0
 40
0.0
 40
0.125
 40
0.125
 40
0.125
 40
0.125
 40
0.25
 40
0.25
 40
0.25
 40
0.25
 40
0.375
 40
0.375
 40
0.375
 40
0.375
 40
0.5
 40
0.5
 40
0.5
 40
0.5
 40
0.625
 40
0.625
 40
0.625
 40
0.625
 40
0.75
 40
0.75
 40
0.75
 40
0.75
 40
0.875
 40
0.875
 40
0.875
 40
0.875
 40
1.0
 40
1.0
 40
1.0
 40
1.0
 10
-10.46955
 20
-14.85679
 30
0.0
 10
-10.46955
 20
-14.85679
 30
0.0
 10
-10.46645
 20
-14.85679
 30
0.0
 10
-10.46645
 20
-14.85679
 30
0.0
 10
-10.46645
 20
-14.85679
 30
0.0
 10
-10.46645
 20
-14.85679
 30
0.0
 10
-10.46297
 20
-14.86965
 30
0.0
 10
-10.46297
 20
-14.86965
 30
0.0
 10
-10.46297
 20
-14.86965
 30
0.0
 10
-10.46297
 20
-14.86965
 30
0.0
 10
-10.46551
 20
-14.86965
 30
0.0
 10
-10.46551
 20
-14.86965
 30
0.0
 10
-10.46551
 20
-14.86965
 30
0.0
 10
-10.46551
 20
-14.86965
 30
0.0
 10
-10.46631
 20
-14.86647
 30
0.0
 10
-10.46631
 20
-14.86647
 30
0.0
 10
-10.46631
 20
-14.86647
 30
0.0
 10
-10.46631
 20
-14.86647
 30
0.0
 10
-10.46971
 20
-14.86647
 30
0.0
 10
-10.46971
 20
-14.86647
 30
0.0
 10
-10.46971
 20
-14.86647
 30
0.0
 10
-10.46971
 20
-14.86647
 30
0.0
 10
-10.47048
 20
-14.86965
 30
0.0
 10
-10.47048
 20
-14.86965
 30
0.0
 10
-10.47048
 20
-14.86965
 30
0.0
 10
-10.47048
 20
-14.86965
 30
0.0
 10
-10.47302
 20
-14.86965
 30
0.0
 10
-10.47302
 20
-14.86965
 30
0.0
 10
-10.47302
 20
-14.86965
 30
0.0
 10
-10.47302
 20
-14.86965
 30
0.0
 10
-10.46955
 20
-14.85679
 30
0.0
 10
-10.46955
 20
-14.85679
 30
0.0
  0
ENDSEC
  0
SECTION
  2
OBJECTS
  0
DICTIONARY
  5
C
330
0
100
AcDbDictionary
281
     1
  3
ACAD_GROUP
350
D
  3
ACAD_LAYOUT
350
1A
  3
ACAD_MLEADERSTYLE
350
79
  3
ACAD_MLINESTYLE
350
17
  3
ACAD_PLOTSETTINGS
350
19
  3
ACAD_PLOTSTYLENAME
350
E
  3
ACAD_SCALELIST
350
3B
  3
ACAD_TABLESTYLE
350
78
  3
ACAD_VISUALSTYLE
350
2A
  0
DICTIONARY
  5
D
102
{ACAD_REACTORS
330
C
102
}
330
C
100
AcDbDictionary
281
     1
  0
DICTIONARY
  5
1A
102
{ACAD_REACTORS
330
C
102
}
330
C
100
AcDbDictionary
281
     1
  3
Layout1
350
1E
  3
Layout2
350
26
  3
Model
350
22
  0
DICTIONARY
  5
79
102
{ACAD_REACTORS
330
C
102
}
330
C
100
AcDbDictionary
281
     1
  0
DICTIONARY
  5
17
102
{ACAD_REACTORS
330
C
102
}
330
C
100
AcDbDictionary
281
     1
  3
Standard
350
18
  0
DICTIONARY
  5
19
102
{ACAD_REACTORS
330
C
102
}
330
C
100
AcDbDictionary
281
     1
  0
ACDBDICTIONARYWDFLT
  5
E
102
{ACAD_REACTORS
330
C
102
}
330
C
100
AcDbDictionary
281
     1
  3
Normal
350
F
100
AcDbDictionaryWithDefault
340
F
  0
DICTIONARY
  5
3B
102
{ACAD_REACTORS
330
C
102
}
330
C
100
AcDbDictionary
281
     1
  3
A0
350
3C
  3
A1
350
3D
  3
A2
350
3E
  3
A3
350
3F
  3
A4
350
40
  3
A5
350
41
  3
A6
350
42
  3
A7
350
43
  3
A8
350
44
  3
A9
350
45
  3
B0
350
46
  3
B1
350
47
  3
B2
350
48
  3
B3
350
49
  3
B4
350
4A
  3
B5
350
4B
  3
B6
350
4C
  3
B7
350
4D
  3
B8
350
4E
  3
B9
350
4F
  3
C0
350
50
  3
C1
350
51
  3
C2
350
52
  3
C3
350
53
  3
C4
350
54
  3
C5
350
55
  3
C6
350
56
  3
C7
350
57
  3
C8
350
58
  3
C9
350
59
  3
D0
350
5A
  3
D1
350
5B
  3
D2
350
5C
  0
DICTIONARY
  5
78
102
{ACAD_REACTORS
330
C
102
}
330
C
100
AcDbDictionary
281
     1
  0
DICTIONARY
  5
2A
102
{ACAD_REACTORS
330
C
102
}
330
C
100
AcDbDictionary
281
     1
  3
2dWireframe
350
2F
  3
3D Hidden
350
31
  3
3dWireframe
350
30
  3
Basic
350
32
  3
Brighten
350
36
  3
ColorChange
350
3A
  3
Conceptual
350
34
  3
Dim
350
35
  3
Facepattern
350
39
  3
Flat
350
2B
  3
FlatWithEdges
350
2C
  3
Gouraud
350
2D
  3
GouraudWithEdges
350
2E
  3
Linepattern
350
38
  3
Realistic
350
33
  3
Thicken
350
37
  0
LAYOUT
  5
1E
102
{ACAD_REACTORS
330
1A
102
}
330
1A
100
AcDbPlotSettings
  1

  2
none_device
  4

  6

 40
0.0
 41
0.0
 42
0.0
 43
0.0
 44
0.0
 45
0.0
 46
0.0
 47
0.0
 48
0.0
 49
0.0
140
0.0
141
0.0
142
1.0
143
1.0
 70
   688
 72
     0
 73
     0
 74
     5
  7

 75
    16
 76
     0
 77
     2
 78
   300
147
1.0
148
0.0
149
0.0
100
AcDbLayout
  1
Layout1
 70
     1
 71
     1
 10
0.0
 20
0.0
 11
12.0
 21
9.0
 12
0.0
 22
0.0
 32
0.0
 14
1.000000000000000E+20
 24
1.000000000000000E+20
 34
1.000000000000000E+20
 15
-1.000000000000000E+20
 25
-1.000000000000000E+20
 35
-1.000000000000000E+20
146
0.0
 13
0.0
 23
0.0
 33
0.0
 16
1.0
 26
0.0
 36
0.0
 17
0.0
 27
1.0
 37
0.0
 76
     0
330
1B
  0
LAYOUT
  5
26
102
{ACAD_REACTORS
330
1A
102
}
330
1A
100
AcDbPlotSettings
  1

  2
none_device
  4

  6

 40
0.0
 41
0.0
 42
0.0
 43
0.0
 44
0.0
 45
0.0
 46
0.0
 47
0.0
 48
0.0
 49
0.0
140
0.0
141
0.0
142
1.0
143
1.0
 70
   688
 72
     0
 73
     0
 74
     5
  7

 75
    16
 76
     0
 77
     2
 78
   300
147
1.0
148
0.0
149
0.0
100
AcDbLayout
  1
Layout2
 70
     1
 71
     2
 10
0.0
 20
0.0
 11
0.0
 21
0.0
 12
0.0
 22
0.0
 32
0.0
 14
0.0
 24
0.0
 34
0.0
 15
0.0
 25
0.0
 35
0.0
146
0.0
 13
0.0
 23
0.0
 33
0.0
 16
1.0
 26
0.0
 36
0.0
 17
0.0
 27
1.0
 37
0.0
 76
     0
330
23
  0
LAYOUT
  5
22
102
{ACAD_REACTORS
330
1A
102
}
330
1A
100
AcDbPlotSettings
  1

  2
none_device
  4

  6

 40
0.0
 41
0.0
 42
0.0
 43
0.0
 44
0.0
 45
0.0
 46
0.0
 47
0.0
 48
0.0
 49
0.0
140
0.0
141
0.0
142
1.0
143
1.0
 70
  1712
 72
     0
 73
     0
 74
     0
  7

 75
     0
 76
     0
 77
     2
 78
   300
147
1.0
148
0.0
149
0.0
100
AcDbLayout
  1
Model
 70
     1
 71
     0
 10
0.0
 20
0.0
 11
12.0
 21
9.0
 12
0.0
 22
0.0
 32
0.0
 14
-10.585
 24
-14.895
 34
0.0
 15
-10.415
 25
-14.805
 35
0.0
146
0.0
 13
0.0
 23
0.0
 33
0.0
 16
1.0
 26
0.0
 36
0.0
 17
0.0
 27
1.0
 37
0.0
 76
     0
330
1F
331
29
  0
MLINESTYLE
  5
18
102
{ACAD_REACTORS
330
17
102
}
330
17
100
AcDbMlineStyle
  2
Standard
 70
     0
  3

 62
   256
 51
90.0
 52
90.0
 71
     2
 49
0.5
 62
   256
  6
BYLAYER
 49
-0.5
 62
   256
  6
BYLAYER
  0
ACDBPLACEHOLDER
  5
F
102
{ACAD_REACTORS
330
E
102
}
330
E
  0
SCALE
  5
3C
102
{ACAD_REACTORS
330
3B
102
}
330
3B
100
AcDbScale
 70
     0
300
1:1
140
1.0
141
1.0
290
     1
  0
SCALE
  5
3D
102
{ACAD_REACTORS
330
3B
102
}
330
3B
100
AcDbScale
 70
     0
300
1:2
140
1.0
141
2.0
290
     0
  0
SCALE
  5
3E
102
{ACAD_REACTORS
330
3B
102
}
330
3B
100
AcDbScale
 70
     0
300
1:4
140
1.0
141
4.0
290
     0
  0
SCALE
  5
3F
102
{ACAD_REACTORS
330
3B
102
}
330
3B
100
AcDbScale
 70
     0
300
1:5
140
1.0
141
5.0
290
     0
  0
SCALE
  5
40
102
{ACAD_REACTORS
330
3B
102
}
330
3B
100
AcDbScale
 70
     0
300
1:8
140
1.0
141
8.0
290
     0
  0
SCALE
  5
41
102
{ACAD_REACTORS
330
3B
102
}
330
3B
100
AcDbScale
 70
     0
300
1:10
140
1.0
141
10.0
290
     0
  0
SCALE
  5
42
102
{ACAD_REACTORS
330
3B
102
}
330
3B
100
AcDbScale
 70
     0
300
1:16
140
1.0
141
16.0
290
     0
  0
SCALE
  5
43
102
{ACAD_REACTORS
330
3B
102
}
330
3B
100
AcDbScale
 70
     0
300
1:20
140
1.0
141
20.0
290
     0
  0
SCALE
  5
44
102
{ACAD_REACTORS
330
3B
102
}
330
3B
100
AcDbScale
 70
     0
300
1:30
140
1.0
141
30.0
290
     0
  0
SCALE
  5
45
102
{ACAD_REACTORS
330
3B
102
}
330
3B
100
AcDbScale
 70
     0
300
1:40
140
1.0
141
40.0
290
     0
  0
SCALE
  5
46
102
{ACAD_REACTORS
330
3B
102
}
330
3B
100
AcDbScale
 70
     0
300
1:50
140
1.0
141
50.0
290
     0
  0
SCALE
  5
47
102
{ACAD_REACTORS
330
3B
102
}
330
3B
100
AcDbScale
 70
     0
300
1:100
140
1.0
141
100.0
290
     0
  0
SCALE
  5
48
102
{ACAD_REACTORS
330
3B
102
}
330
3B
100
AcDbScale
 70
     0
300
2:1
140
2.0
141
1.0
290
     0
  0
SCALE
  5
49
102
{ACAD_REACTORS
330
3B
102
}
330
3B
100
AcDbScale
 70
     0
300
4:1
140
4.0
141
1.0
290
     0
  0
SCALE
  5
4A
102
{ACAD_REACTORS
330
3B
102
}
330
3B
100
AcDbScale
 70
     0
300
8:1
140
8.0
141
1.0
290
     0
  0
SCALE
  5
4B
102
{ACAD_REACTORS
330
3B
102
}
330
3B
100
AcDbScale
 70
     0
300
10:1
140
10.0
141
1.0
290
     0
  0
SCALE
  5
4C
102
{ACAD_REACTORS
330
3B
102
}
330
3B
100
AcDbScale
 70
     0
300
100:1
140
100.0
141
1.0
290
     0
  0
SCALE
  5
4D
102
{ACAD_REACTORS
330
3B
102
}
330
3B
100
AcDbScale
 70
     0
300
1/128" = 1'-0"
140
0.0078125
141
12.0
290
     0
  0
SCALE
  5
4E
102
{ACAD_REACTORS
330
3B
102
}
330
3B
100
AcDbScale
 70
     0
300
1/64" = 1'-0"
140
0.015625
141
12.0
290
     0
  0
SCALE
  5
4F
102
{ACAD_REACTORS
330
3B
102
}
330
3B
100
AcDbScale
 70
     0
300
1/32" = 1'-0"
140
0.03125
141
12.0
290
     0
  0
SCALE
  5
50
102
{ACAD_REACTORS
330
3B
102
}
330
3B
100
AcDbScale
 70
     0
300
1/16" = 1'-0"
140
0.0625
141
12.0
290
     0
  0
SCALE
  5
51
102
{ACAD_REACTORS
330
3B
102
}
330
3B
100
AcDbScale
 70
     0
300
3/32" = 1'-0"
140
0.09375
141
12.0
290
     0
  0
SCALE
  5
52
102
{ACAD_REACTORS
330
3B
102
}
330
3B
100
AcDbScale
 70
     0
300
1/8" = 1'-0"
140
0.125
141
12.0
290
     0
  0
SCALE
  5
53
102
{ACAD_REACTORS
330
3B
102
}
330
3B
100
AcDbScale
 70
     0
300
3/16" = 1'-0"
140
0.1875
141
12.0
290
     0
  0
SCALE
  5
54
102
{ACAD_REACTORS
330
3B
102
}
330
3B
100
AcDbScale
 70
     0
300
1/4" = 1'-0"
140
0.25
141
12.0
290
     0
  0
SCALE
  5
55
102
{ACAD_REACTORS
330
3B
102
}
330
3B
100
AcDbScale
 70
     0
300
3/8" = 1'-0"
140
0.375
141
12.0
290
     0
  0
SCALE
  5
56
102
{ACAD_REACTORS
330
3B
102
}
330
3B
100
AcDbScale
 70
     0
300
1/2" = 1'-0"
140
0.5
141
12.0
290
     0
  0
SCALE
  5
57
102
{ACAD_REACTORS
330
3B
102
}
330
3B
100
AcDbScale
 70
     0
300
3/4" = 1'-0"
140
0.75
141
12.0
290
     0
  0
SCALE
  5
58
102
{ACAD_REACTORS
330
3B
102
}
330
3B
100
AcDbScale
 70
     0
300
1" = 1'-0"
140
1.0
141
12.0
290
     0
  0
SCALE
  5
59
102
{ACAD_REACTORS
330
3B
102
}
330
3B
100
AcDbScale
 70
     0
300
1-1/2" = 1'-0"
140
1.5
141
12.0
290
     0
  0
SCALE
  5
5A
102
{ACAD_REACTORS
330
3B
102
}
330
3B
100
AcDbScale
 70
     0
300
3" = 1'-0"
140
3.0
141
12.0
290
     0
  0
SCALE
  5
5B
102
{ACAD_REACTORS
330
3B
102
}
330
3B
100
AcDbScale
 70
     0
300
6" = 1'-0"
140
6.0
141
12.0
290
     0
  0
SCALE
  5
5C
102
{ACAD_REACTORS
330
3B
102
}
330
3B
100
AcDbScale
 70
     0
300
1'-0" = 1'-0"
140
12.0
141
12.0
290
     0
  0
VISUALSTYLE
  5
2F
102
{ACAD_REACTORS
330
2A
102
}
330
2A
100
AcDbVisualStyle
  2
2dWireframe
 70
     4
 71
     0
 72
     2
 73
     0
 90
        0
 40
-0.6
 41
-30.0
 62
     5
 63
     7
421
 16777215
 74
     1
 91
        4
 64
     7
 65
   257
 75
     1
175
     1
 42
1.0
 92
        0
 66
   257
 43
1.0
 76
     1
 77
     6
 78
     2
 67
     7
 79
     5
170
     0
171
     0
290
     0
174
     0
 93
        1
 44
0.0
173
     0
291
     0
 45
0.0
  0
VISUALSTYLE
  5
31
102
{ACAD_REACTORS
330
2A
102
}
330
2A
100
AcDbVisualStyle
  2
3D Hidden
 70
     6
 71
     1
 72
     2
 73
     2
 90
        0
 40
-0.6
 41
-30.0
 62
     5
 63
     7
421
 16777215
 74
     2
 91
        2
 64
     7
 65
   257
 75
     2
175
     1
 42
40.0
 92
        0
 66
   257
 43
1.0
 76
     1
 77
     6
 78
     2
 67
     7
 79
     3
170
     0
171
     0
290
     0
174
     0
 93
        1
 44
0.0
173
     0
291
     0
 45
0.0
  0
VISUALSTYLE
  5
30
102
{ACAD_REACTORS
330
2A
102
}
330
2A
100
AcDbVisualStyle
  2
3dWireframe
 70
     5
 71
     0
 72
     2
 73
     0
 90
        0
 40
-0.6
 41
-30.0
 62
     5
 63
     7
421
 16777215
 74
     1
 91
        4
 64
     7
 65
   257
 75
     1
175
     1
 42
1.0
 92
        0
 66
   257
 43
1.0
 76
     1
 77
     6
 78
     2
 67
     7
 79
     5
170
     0
171
     0
290
     0
174
     0
 93
        1
 44
0.0
173
     0
291
     0
 45
0.0
  0
VISUALSTYLE
  5
32
102
{ACAD_REACTORS
330
2A
102
}
330
2A
100
AcDbVisualStyle
  2
Basic
 70
     7
 71
     1
 72
     0
 73
     1
 90
        0
 40
-0.6
 41
-30.0
 62
     5
 63
     7
421
 16777215
 74
     0
 91
        4
 64
     7
 65
   257
 75
     1
175
     1
 42
1.0
 92
        8
 66
     7
 43
1.0
 76
     1
 77
     6
 78
     2
 67
     7
 79
     5
170
     0
171
     0
290
     0
174
     0
 93
        1
 44
0.0
173
     0
291
     1
 45
0.0
  0
VISUALSTYLE
  5
36
102
{ACAD_REACTORS
330
2A
102
}
330
2A
100
AcDbVisualStyle
  2
Brighten
 70
    12
 71
     2
 72
     2
 73
     0
 90
        0
 40
-0.6
 41
-30.0
 62
     5
 63
     7
421
 16777215
 74
     1
 91
        4
 64
     7
 65
   257
 75
     1
175
     1
 42
1.0
 92
        8
 66
     7
 43
1.0
 76
     1
 77
     6
 78
     2
 67
     7
 79
     5
170
     0
171
     0
290
     0
174
     0
 93
        1
 44
50.0
173
     0
291
     1
 45
0.0
  0
VISUALSTYLE
  5
3A
102
{ACAD_REACTORS
330
2A
102
}
330
2A
100
AcDbVisualStyle
  2
ColorChange
 70
    16
 71
     2
 72
     2
 73
     3
 90
        0
 40
-0.6
 41
-30.0
 62
     5
 63
     8
421
  8421504
 74
     1
 91
        4
 64
     7
 65
   257
 75
     1
175
     1
 42
1.0
 92
        8
 66
     8
424
  8421504
 43
1.0
 76
     1
 77
     6
 78
     2
 67
     7
 79
     5
170
     0
171
     0
290
     0
174
     0
 93
        1
 44
0.0
173
     0
291
     1
 45
0.0
  0
VISUALSTYLE
  5
34
102
{ACAD_REACTORS
330
2A
102
}
330
2A
100
AcDbVisualStyle
  2
Conceptual
 70
     9
 71
     3
 72
     2
 73
     0
 90
        0
 40
-0.6
 41
-30.0
 62
     5
 63
     7
421
 16777215
 74
     2
 91
        2
 64
     7
 65
   257
 75
     1
175
     1
 42
40.0
 92
        8
 66
     7
 43
1.0
 76
     1
 77
     6
 78
     2
 67
     7
 79
     3
170
     0
171
     0
290
     0
174
     0
 93
        1
 44
0.0
173
     0
291
     0
 45
0.0
  0
VISUALSTYLE
  5
35
102
{ACAD_REACTORS
330
2A
102
}
330
2A
100
AcDbVisualStyle
  2
Dim
 70
    11
 71
     2
 72
     2
 73
     0
 90
        0
 40
-0.6
 41
-30.0
 62
     5
 63
     7
421
 16777215
 74
     1
 91
        4
 64
     7
 65
   257
 75
     1
175
     1
 42
1.0
 92
        8
 66
     7
 43
1.0
 76
     1
 77
     6
 78
     2
 67
     7
 79
     5
170
     0
171
     0
290
     0
174
     0
 93
        1
 44
-50.0
173
     0
291
     1
 45
0.0
  0
VISUALSTYLE
  5
39
102
{ACAD_REACTORS
330
2A
102
}
330
2A
100
AcDbVisualStyle
  2
Facepattern
 70
    15
 71
     2
 72
     2
 73
     0
 90
        0
 40
-0.6
 41
-30.0
 62
     5
 63
     7
421
 16777215
 74
     1
 91
        4
 64
     7
 65
   257
 75
     1
175
     1
 42
1.0
 92
        8
 66
     7
 43
1.0
 76
     1
 77
     6
 78
     2
 67
     7
 79
     5
170
     0
171
     0
290
     0
174
     0
 93
        1
 44
0.0
173
     0
291
     1
 45
0.0
  0
VISUALSTYLE
  5
2B
102
{ACAD_REACTORS
330
2A
102
}
330
2A
100
AcDbVisualStyle
  2
Flat
 70
     0
 71
     2
 72
     1
 73
     1
 90
        2
 40
-0.6
 41
30.0
 62
     5
 63
     7
421
 16777215
 74
     0
 91
        4
 64
     7
 65
   257
 75
     1
175
     1
 42
1.0
 92
        8
 66
     7
 43
1.0
 76
     1
 77
     6
 78
     2
 67
     7
 79
     5
170
     0
171
     0
290
     0
174
     0
 93
       13
 44
0.0
173
     0
291
     1
 45
0.0
  0
VISUALSTYLE
  5
2C
102
{ACAD_REACTORS
330
2A
102
}
330
2A
100
AcDbVisualStyle
  2
FlatWithEdges
 70
     1
 71
     2
 72
     1
 73
     1
 90
        2
 40
-0.6
 41
30.0
 62
     5
 63
     7
421
 16777215
 74
     1
 91
        4
 64
     7
 65
   257
 75
     1
175
     1
 42
1.0
 92
        0
 66
   257
 43
1.0
 76
     1
 77
     6
 78
     2
 67
     7
 79
     5
170
     0
171
     0
290
     0
174
     0
 93
       13
 44
0.0
173
     0
291
     1
 45
0.0
  0
VISUALSTYLE
  5
2D
102
{ACAD_REACTORS
330
2A
102
}
330
2A
100
AcDbVisualStyle
  2
Gouraud
 70
     2
 71
     2
 72
     2
 73
     1
 90
        2
 40
-0.6
 41
30.0
 62
     5
 63
     7
421
 16777215
 74
     0
 91
        4
 64
     7
 65
   257
 75
     1
175
     1
 42
1.0
 92
        0
 66
     7
 43
1.0
 76
     1
 77
     6
 78
     2
 67
     7
 79
     5
170
     0
171
     0
290
     0
174
     0
 93
       13
 44
0.0
173
     0
291
     1
 45
0.0
  0
VISUALSTYLE
  5
2E
102
{ACAD_REACTORS
330
2A
102
}
330
2A
100
AcDbVisualStyle
  2
GouraudWithEdges
 70
     3
 71
     2
 72
     2
 73
     1
 90
        2
 40
-0.6
 41
30.0
 62
     5
 63
     7
421
 16777215
 74
     1
 91
        4
 64
     7
 65
   257
 75
     1
175
     1
 42
1.0
 92
        0
 66
   257
 43
1.0
 76
     1
 77
     6
 78
     2
 67
     7
 79
     5
170
     0
171
     0
290
     0
174
     0
 93
       13
 44
0.0
173
     0
291
     1
 45
0.0
  0
VISUALSTYLE
  5
38
102
{ACAD_REACTORS
330
2A
102
}
330
2A
100
AcDbVisualStyle
  2
Linepattern
 70
    14
 71
     2
 72
     2
 73
     0
 90
        0
 40
-0.6
 41
-30.0
 62
     5
 63
     7
421
 16777215
 74
     1
 91
        4
 64
     7
 65
   257
 75
     7
175
     7
 42
1.0
 92
        8
 66
     7
 43
1.0
 76
     1
 77
     6
 78
     2
 67
     7
 79
     5
170
     0
171
     0
290
     0
174
     0
 93
        1
 44
0.0
173
     0
291
     1
 45
0.0
  0
VISUALSTYLE
  5
33
102
{ACAD_REACTORS
330
2A
102
}
330
2A
100
AcDbVisualStyle
  2
Realistic
 70
     8
 71
     2
 72
     2
 73
     0
 90
        0
 40
-0.6
 41
-30.0
 62
     5
 63
     7
421
 16777215
 74
     1
 91
        0
 64
     7
 65
   257
 75
     1
175
     1
 42
1.0
 92
        8
 66
     8
424
  7895160
 43
1.0
 76
     1
 77
     6
 78
     2
 67
     7
 79
     5
170
     0
171
     0
290
     0
174
     0
 93
       13
 44
0.0
173
     0
291
     0
 45
0.0
  0
VISUALSTYLE
  5
37
102
{ACAD_REACTORS
330
2A
102
}
330
2A
100
AcDbVisualStyle
  2
Thicken
 70
    13
 71
     2
 72
     2
 73
     0
 90
        0
 40
-0.6
 41
-30.0
 62
     5
 63
     7
421
 16777215
 74
     1
 91
        4
 64
     7
 65
   257
 75
     1
175
     1
 42
1.0
 92
       12
 66
     7
 43
1.0
 76
     1
 77
     6
 78
     2
 67
     7
 79
     5
170
     0
171
     0
290
     0
174
     0
 93
        1
 44
0.0
173
     0
291
     1
 45
0.0
  0
ENDSEC
  0
EOF
