  0
SECTION
  2
HEADER
  9
$ACADVER
  1
AC1014
  9
$ACADMAINTVER
 70
     9
  9
$DWGCODEPAGE
  3
ANSI_1252
  9
$INSBASE
 10
0.0
 20
0.0
 30
0.0
  9
$EXTMIN
 10
-115.0
 20
-156.429
 30
0.0
  9
$EXTMAX
 10
-95.0
 20
-135.0
 30
0.0
  9
$LIMMIN
 10
0.0
 20
0.0
  9
$LIMMAX
 10
12.0
 20
9.0
  9
$ORTHOMODE
 70
     0
  9
$REGENMODE
 70
     1
  9
$FILLMODE
 70
     1
  9
$QTEXTMODE
 70
     0
  9
$MIRRTEXT
 70
     1
  9
$DRAGMODE
 70
     2
  9
$LTSCALE
 40
1.0
  9
$OSMODE
 70
    37
  9
$ATTMODE
 70
     1
  9
$TEXTSIZE
 40
0.2
  9
$TRACEWID
 40
0.05
  9
$TEXTSTYLE
  7
STANDARD
  9
$CLAYER
  8
0
  9
$CELTYPE
  6
BYLAYER
  9
$CECOLOR
 62
   256
  9
$CELTSCALE
 40
1.0
  9
$DELOBJ
 70
     1
  9
$DISPSILH
 70
     0
  9
$DIMSCALE
 40
1.0
  9
$DIMASZ
 40
0.18
  9
$DIMEXO
 40
0.0625
  9
$DIMDLI
 40
0.38
  9
$DIMRND
 40
0.0
  9
$DIMDLE
 40
0.0
  9
$DIMEXE
 40
0.18
  9
$DIMTP
 40
0.0
  9
$DIMTM
 40
0.0
  9
$DIMTXT
 40
0.18
  9
$DIMCEN
 40
0.09
  9
$DIMTSZ
 40
0.0
  9
$DIMTOL
 70
     0
  9
$DIMLIM
 70
     0
  9
$DIMTIH
 70
     1
  9
$DIMTOH
 70
     1
  9
$DIMSE1
 70
     0
  9
$DIMSE2
 70
     0
  9
$DIMTAD
 70
     0
  9
$DIMZIN
 70
     0
  9
$DIMBLK
  1

  9
$DIMASO
 70
     1
  9
$DIMSHO
 70
     1
  9
$DIMPOST
  1

  9
$DIMAPOST
  1

  9
$DIMALT
 70
     0
  9
$DIMALTD
 70
     2
  9
$DIMALTF
 40
25.4
  9
$DIMLFAC
 40
1.0
  9
$DIMTOFL
 70
     0
  9
$DIMTVP
 40
0.0
  9
$DIMTIX
 70
     0
  9
$DIMSOXD
 70
     0
  9
$DIMSAH
 70
     0
  9
$DIMBLK1
  1

  9
$DIMBLK2
  1

  9
$DIMSTYLE
  2
STANDARD
  9
$DIMCLRD
 70
     0
  9
$DIMCLRE
 70
     0
  9
$DIMCLRT
 70
     0
  9
$DIMTFAC
 40
1.0
  9
$DIMGAP
 40
0.09
  9
$DIMJUST
 70
     0
  9
$DIMSD1
 70
     0
  9
$DIMSD2
 70
     0
  9
$DIMTOLJ
 70
     1
  9
$DIMTZIN
 70
     0
  9
$DIMALTZ
 70
     0
  9
$DIMALTTZ
 70
     0
  9
$DIMFIT
 70
     3
  9
$DIMUPT
 70
     0
  9
$DIMUNIT
 70
     2
  9
$DIMDEC
 70
     4
  9
$DIMTDEC
 70
     4
  9
$DIMALTU
 70
     2
  9
$DIMALTTD
 70
     2
  9
$DIMTXSTY
  7
STANDARD
  9
$DIMAUNIT
 70
     0
  9
$LUNITS
 70
     2
  9
$LUPREC
 70
     4
  9
$SKETCHINC
 40
0.1
  9
$FILLETRAD
 40
0.5
  9
$AUNITS
 70
     0
  9
$AUPREC
 70
     0
  9
$MENU
  1
.
  9
$ELEVATION
 40
0.0
  9
$PELEVATION
 40
0.0
  9
$THICKNESS
 40
0.0
  9
$LIMCHECK
 70
     0
  9
$CHAMFERA
 40
0.5
  9
$CHAMFERB
 40
0.5
  9
$CHAMFERC
 40
1.0
  9
$CHAMFERD
 40
0.0
  9
$SKPOLY
 70
     0
  9
$TDCREATE
 40
2458627.599010324
  9
$TDUPDATE
 40
2458627.599010336
  9
$TDINDWG
 40
0.0000000116
  9
$TDUSRTIMER
 40
0.0000000116
  9
$USRTIMER
 70
     1
  9
$ANGBASE
 50
0.0
  9
$ANGDIR
 70
     0
  9
$PDMODE
 70
     0
  9
$PDSIZE
 40
0.0
  9
$PLINEWID
 40
0.0
  9
$COORDS
 70
     1
  9
$SPLFRAME
 70
     0
  9
$SPLINETYPE
 70
     6
  9
$SPLINESEGS
 70
     8
  9
$ATTDIA
 70
     0
  9
$ATTREQ
 70
     1
  9
$HANDLING
 70
     1
  9
$HANDSEED
  5
B4
  9
$SURFTAB1
 70
     6
  9
$SURFTAB2
 70
     6
  9
$SURFTYPE
 70
     6
  9
$SURFU
 70
     6
  9
$SURFV
 70
     6
  9
$UCSNAME
  2

  9
$UCSORG
 10
0.0
 20
0.0
 30
0.0
  9
$UCSXDIR
 10
1.0
 20
0.0
 30
0.0
  9
$UCSYDIR
 10
0.0
 20
1.0
 30
0.0
  9
$PUCSNAME
  2

  9
$PUCSORG
 10
0.0
 20
0.0
 30
0.0
  9
$PUCSXDIR
 10
1.0
 20
0.0
 30
0.0
  9
$PUCSYDIR
 10
0.0
 20
1.0
 30
0.0
  9
$USERI1
 70
     0
  9
$USERI2
 70
     0
  9
$USERI3
 70
     0
  9
$USERI4
 70
     0
  9
$USERI5
 70
     0
  9
$USERR1
 40
0.0
  9
$USERR2
 40
0.0
  9
$USERR3
 40
0.0
  9
$USERR4
 40
0.0
  9
$USERR5
 40
0.0
  9
$WORLDVIEW
 70
     1
  9
$SHADEDGE
 70
     3
  9
$SHADEDIF
 70
    70
  9
$TILEMODE
 70
     1
  9
$MAXACTVP
 70
    64
  9
$PINSBASE
 10
0.0
 20
0.0
 30
0.0
  9
$PLIMCHECK
 70
     0
  9
$PEXTMIN
 10
1.000000000000000E+20
 20
1.000000000000000E+20
 30
1.000000000000000E+20
  9
$PEXTMAX
 10
-1.000000000000000E+20
 20
-1.000000000000000E+20
 30
-1.000000000000000E+20
  9
$PLIMMIN
 10
0.0
 20
0.0
  9
$PLIMMAX
 10
12.0
 20
9.0
  9
$UNITMODE
 70
     0
  9
$VISRETAIN
 70
     1
  9
$PLINEGEN
 70
     0
  9
$PSLTSCALE
 70
     1
  9
$TREEDEPTH
 70
  3020
  9
$PICKSTYLE
 70
     1
  9
$CMLSTYLE
  2
STANDARD
  9
$CMLJUST
 70
     0
  9
$CMLSCALE
 40
1.0
  9
$PROXYGRAPHICS
 70
     1
  9
$MEASUREMENT
 70
     0
  0
ENDSEC
  0
SECTION
  2
CLASSES
  0
CLASS
  1
ACDBDICTIONARYWDFLT
  2
AcDbDictionaryWithDefault
  3
ObjectDBX Classes
 90
        0
280
     0
281
     0
  0
CLASS
  1
VISUALSTYLE
  2
AcDbVisualStyle
  3
ObjectDBX Classes
 90
     4095
280
     0
281
     0
  0
CLASS
  1
SCALE
  2
AcDbScale
  3
ObjectDBX Classes
 90
     1153
280
     0
281
     0
  0
CLASS
  1
DICTIONARYVAR
  2
AcDbDictionaryVar
  3
ObjectDBX Classes
 90
        0
280
     0
281
     0
  0
CLASS
  1
XRECORD
  2
AcDbXrecord
  3
AutoCAD 2000
 90
        0
280
     0
281
     0
  0
CLASS
  1
LWPOLYLINE
  2
AcDbPolyline
  3
AutoCAD 2000
 90
        0
280
     0
281
     1
  0
CLASS
  1
HATCH
  2
AcDbHatch
  3
AutoCAD 2000
 90
        0
280
     0
281
     1
  0
CLASS
  1
ACDBPLACEHOLDER
  2
AcDbPlaceHolder
  3
ObjectDBX Classes
 90
        0
280
     0
281
     0
  0
CLASS
  1
LAYOUT
  2
AcDbLayout
  3
ObjectDBX Classes
 90
        0
280
     0
281
     0
  0
ENDSEC
  0
SECTION
  2
TABLES
  0
TABLE
  2
VPORT
  5
8
330
0
100
AcDbSymbolTable
 70
     1
  0
VPORT
  5
29
330
8
100
AcDbSymbolTableRecord
100
AcDbViewportTableRecord
  2
*ACTIVE
 70
     0
 10
0.0
 20
0.0
 11
1.0
 21
1.0
 12
10.42990654205607
 22
4.5
 13
0.0
 23
0.0
 14
0.5
 24
0.5
 15
0.5
 25
0.5
 16
0.0
 26
0.0
 36
1.0
 17
0.0
 27
0.0
 37
0.0
 40
9.0
 41
1.972972972850329
 42
50.0
 43
0.0
 44
0.0
 50
0.0
 51
0.0
 71
     0
 72
   100
 73
     1
 74
     3
 75
     0
 76
     0
 77
     0
 78
     0
  0
ENDTAB
  0
TABLE
  2
LTYPE
  5
5
330
0
100
AcDbSymbolTable
 70
     1
  0
LTYPE
  5
14
330
5
100
AcDbSymbolTableRecord
100
AcDbLinetypeTableRecord
  2
BYBLOCK
 70
     0
  3

 72
    65
 73
     0
 40
0.0
  0
LTYPE
  5
15
330
5
100
AcDbSymbolTableRecord
100
AcDbLinetypeTableRecord
  2
BYLAYER
 70
     0
  3

 72
    65
 73
     0
 40
0.0
  0
LTYPE
  5
16
330
5
100
AcDbSymbolTableRecord
100
AcDbLinetypeTableRecord
  2
CONTINUOUS
 70
     0
  3
Solid line
 72
    65
 73
     0
 40
0.0
  0
ENDTAB
  0
TABLE
  2
LAYER
  5
2
330
0
100
AcDbSymbolTable
 70
     2
  0
LAYER
  5
10
330
2
100
AcDbSymbolTableRecord
100
AcDbLayerTableRecord
  2
0
 70
     0
 62
     7
  6
CONTINUOUS
  0
LAYER
  5
5E
330
2
100
AcDbSymbolTableRecord
100
AcDbLayerTableRecord
  2
LAYER_1
 70
     0
 62
     7
  6
CONTINUOUS
  0
ENDTAB
  0
TABLE
  2
STYLE
  5
3
330
0
100
AcDbSymbolTable
 70
     1
  0
STYLE
  5
11
330
3
100
AcDbSymbolTableRecord
100
AcDbTextStyleTableRecord
  2
STANDARD
 70
     0
 40
0.0
 41
1.0
 50
0.0
 71
     0
 42
0.2
  3
txt
  4

  0
ENDTAB
  0
TABLE
  2
VIEW
  5
6
330
0
100
AcDbSymbolTable
 70
     0
  0
ENDTAB
  0
TABLE
  2
UCS
  5
7
330
0
100
AcDbSymbolTable
 70
     0
  0
ENDTAB
  0
TABLE
  2
APPID
  5
9
330
0
100
AcDbSymbolTable
 70
     2
  0
APPID
  5
12
330
9
100
AcDbSymbolTableRecord
100
AcDbRegAppTableRecord
  2
ACAD
 70
     0
  0
APPID
  5
5D
330
9
100
AcDbSymbolTableRecord
100
AcDbRegAppTableRecord
  2
ODA
 70
     0
  0
ENDTAB
  0
TABLE
  2
DIMSTYLE
  5
A
330
0
100
AcDbSymbolTable
 70
     1
  0
DIMSTYLE
105
27
330
A
100
AcDbSymbolTableRecord
100
AcDbDimStyleTableRecord
  2
STANDARD
 70
     0
  3

  4

  5

  6

  7

 40
1.0
 41
0.18
 42
0.0625
 43
0.38
 44
0.18
 45
0.0
 46
0.0
 47
0.0
 48
0.0
140
0.18
141
0.09
142
0.0
143
25.4
144
1.0
145
0.0
146
1.0
147
0.09
 71
     0
 72
     0
 73
     1
 74
     1
 75
     0
 76
     0
 77
     0
 78
     0
170
     0
171
     2
172
     0
173
     0
174
     0
175
     0
176
     0
177
     0
178
     0
270
     2
271
     4
272
     4
273
     2
274
     2
340
11
275
     0
280
     0
281
     0
282
     0
283
     1
284
     0
285
     0
286
     0
287
     3
288
     0
  0
ENDTAB
  0
TABLE
  2
BLOCK_RECORD
  5
1
330
0
100
AcDbSymbolTable
 70
     1
  0
BLOCK_RECORD
  5
1F
330
1
100
AcDbSymbolTableRecord
100
AcDbBlockTableRecord
  2
*MODEL_SPACE
  0
BLOCK_RECORD
  5
1B
330
1
100
AcDbSymbolTableRecord
100
AcDbBlockTableRecord
  2
*PAPER_SPACE
  0
ENDTAB
  0
ENDSEC
  0
SECTION
  2
BLOCKS
  0
BLOCK
  5
20
330
1F
100
AcDbEntity
  8
0
100
AcDbBlockBegin
  2
*MODEL_SPACE
 70
     0
 10
0.0
 20
0.0
 30
0.0
  3
*MODEL_SPACE
  1

  0
ENDBLK
  5
21
330
1F
100
AcDbEntity
  8
0
100
AcDbBlockEnd
  0
BLOCK
  5
1C
330
1B
100
AcDbEntity
 67
     1
  8
0
100
AcDbBlockBegin
  2
*PAPER_SPACE
 70
     0
 10
0.0
 20
0.0
 30
0.0
  3
*PAPER_SPACE
  1

  0
ENDBLK
  5
1D
330
1B
100
AcDbEntity
 67
     1
  8
0
100
AcDbBlockEnd
  0
ENDSEC
  0
SECTION
  2
ENTITIES
  0
LWPOLYLINE
  5
5F
330
1F
100
AcDbEntity
  8
LAYER_1
 62
     7
100
AcDbPolyline
 90
        5
 70
     1
 43
0.0
 10
-108.1
 20
-151.6
 10
-101.9
 20
-151.6
 10
-101.9
 20
-145.4
 10
-108.1
 20
-145.4
 10
-108.1
 20
-151.6
  0
ELLIPSE
  5
60
330
1F
100
AcDbEntity
  8
LAYER_1
 62
     7
100
AcDbEllipse
 10
-105.0
 20
-148.5
 30
0.0
 11
0.0
 21
1.5
 31
0.0
210
0.0
220
0.0
230
1.0
 40
1.0
 41
0.0
 42
6.283185307179586
  0
LWPOLYLINE
  5
61
330
1F
100
AcDbEntity
  8
LAYER_1
 62
     7
100
AcDbPolyline
 90
        5
 70
     1
 43
0.0
 10
-108.75
 20
-146.75
 10
-107.75
 20
-146.75
 10
-107.75
 20
-145.75
 10
-108.75
 20
-145.75
 10
-108.75
 20
-146.75
  0
LWPOLYLINE
  5
62
330
1F
100
AcDbEntity
  8
LAYER_1
 62
     7
100
AcDbPolyline
 90
        5
 70
     1
 43
0.0
 10
-102.25
 20
-146.75
 10
-101.25
 20
-146.75
 10
-101.25
 20
-145.75
 10
-102.25
 20
-145.75
 10
-102.25
 20
-146.75
  0
LWPOLYLINE
  5
63
330
1F
100
AcDbEntity
  8
LAYER_1
 62
     7
100
AcDbPolyline
 90
        5
 70
     1
 43
0.0
 10
-102.25
 20
-151.25
 10
-101.25
 20
-151.25
 10
-101.25
 20
-150.25
 10
-102.25
 20
-150.25
 10
-102.25
 20
-151.25
  0
LWPOLYLINE
  5
64
330
1F
100
AcDbEntity
  8
LAYER_1
 62
     7
100
AcDbPolyline
 90
        5
 70
     1
 43
0.0
 10
-108.75
 20
-151.25
 10
-107.75
 20
-151.25
 10
-107.75
 20
-150.25
 10
-108.75
 20
-150.25
 10
-108.75
 20
-151.25
  0
SPLINE
  5
65
330
1F
100
AcDbEntity
  8
LAYER_1
100
AcDbSpline
210
0.0
220
0.0
230
1.0
 70
    11
 71
     3
 72
    36
 73
    32
 74
     0
 42
0.0000000001
 43
0.0000000001
 40
0.0
 40
0.0
 40
0.0
 40
0.0
 40
0.125
 40
0.125
 40
0.125
 40
0.125
 40
0.25
 40
0.25
 40
0.25
 40
0.25
 40
0.375
 40
0.375
 40
0.375
 40
0.375
 40
0.5
 40
0.5
 40
0.5
 40
0.5
 40
0.625
 40
0.625
 40
0.625
 40
0.625
 40
0.75
 40
0.75
 40
0.75
 40
0.75
 40
0.875
 40
0.875
 40
0.875
 40
0.875
 40
1.0
 40
1.0
 40
1.0
 40
1.0
 10
-106.6964
 20
-138.5168
 30
0.0
 10
-106.743
 20
-138.5168
 30
0.0
 10
-106.7778
 20
-138.5319
 30
0.0
 10
-106.8008
 20
-138.562
 30
0.0
 10
-106.8008
 20
-138.562
 30
0.0
 10
-106.8241
 20
-138.5921
 30
0.0
 10
-106.8356
 20
-138.6373
 30
0.0
 10
-106.8356
 20
-138.6972
 30
0.0
 10
-106.8356
 20
-138.6972
 30
0.0
 10
-106.8356
 20
-138.7574
 30
0.0
 10
-106.8241
 20
-138.8026
 30
0.0
 10
-106.8008
 20
-138.8327
 30
0.0
 10
-106.8008
 20
-138.8327
 30
0.0
 10
-106.7778
 20
-138.8628
 30
0.0
 10
-106.743
 20
-138.8778
 30
0.0
 10
-106.6964
 20
-138.8778
 30
0.0
 10
-106.6964
 20
-138.8778
 30
0.0
 10
-106.6496
 20
-138.8778
 30
0.0
 10
-106.6146
 20
-138.8628
 30
0.0
 10
-106.5915
 20
-138.8327
 30
0.0
 10
-106.5915
 20
-138.8327
 30
0.0
 10
-106.5682
 20
-138.8026
 30
0.0
 10
-106.5567
 20
-138.7574
 30
0.0
 10
-106.5567
 20
-138.6972
 30
0.0
 10
-106.5567
 20
-138.6972
 30
0.0
 10
-106.5567
 20
-138.6373
 30
0.0
 10
-106.5682
 20
-138.5921
 30
0.0
 10
-106.5915
 20
-138.562
 30
0.0
 10
-106.5915
 20
-138.562
 30
0.0
 10
-106.6146
 20
-138.5319
 30
0.0
 10
-106.6496
 20
-138.5168
 30
0.0
 10
-106.6964
 20
-138.5168
 30
0.0
  0
SPLINE
  5
66
330
1F
100
AcDbEntity
  8
LAYER_1
100
AcDbSpline
210
0.0
220
0.0
230
1.0
 70
    11
 71
     3
 72
    72
 73
    68
 74
     0
 42
0.0000000001
 43
0.0000000001
 40
0.0
 40
0.0
 40
0.0
 40
0.0
 40
0.0588235294117647
 40
0.0588235294117647
 40
0.0588235294117647
 40
0.0588235294117647
 40
0.1176470588235294
 40
0.1176470588235294
 40
0.1176470588235294
 40
0.1176470588235294
 40
0.1764705882352941
 40
0.1764705882352941
 40
0.1764705882352941
 40
0.1764705882352941
 40
0.2352941176470588
 40
0.2352941176470588
 40
0.2352941176470588
 40
0.2352941176470588
 40
0.2941176470588235
 40
0.2941176470588235
 40
0.2941176470588235
 40
0.2941176470588235
 40
0.3529411764705883
 40
0.3529411764705883
 40
0.3529411764705883
 40
0.3529411764705883
 40
0.411764705882353
 40
0.411764705882353
 40
0.411764705882353
 40
0.411764705882353
 40
0.4705882352941177
 40
0.4705882352941177
 40
0.4705882352941177
 40
0.4705882352941177
 40
0.5294117647058824
 40
0.5294117647058824
 40
0.5294117647058824
 40
0.5294117647058824
 40
0.5882352941176471
 40
0.5882352941176471
 40
0.5882352941176471
 40
0.5882352941176471
 40
0.6470588235294118
 40
0.6470588235294118
 40
0.6470588235294118
 40
0.6470588235294118
 40
0.7058823529411765
 40
0.7058823529411765
 40
0.7058823529411765
 40
0.7058823529411765
 40
0.7647058823529412
 40
0.7647058823529412
 40
0.7647058823529412
 40
0.7647058823529412
 40
0.823529411764706
 40
0.823529411764706
 40
0.823529411764706
 40
0.823529411764706
 40
0.8823529411764707
 40
0.8823529411764707
 40
0.8823529411764707
 40
0.8823529411764707
 40
0.9411764705882354
 40
0.9411764705882354
 40
0.9411764705882354
 40
0.9411764705882354
 40
1.0
 40
1.0
 40
1.0
 40
1.0
 10
-106.3686
 20
-138.0227
 30
0.0
 10
-106.3686
 20
-138.0227
 30
0.0
 10
-106.3686
 20
-138.213
 30
0.0
 10
-106.3686
 20
-138.213
 30
0.0
 10
-106.3686
 20
-138.213
 30
0.0
 10
-106.4123
 20
-138.1923
 30
0.0
 10
-106.4532
 20
-138.177
 30
0.0
 10
-106.4918
 20
-138.1671
 30
0.0
 10
-106.4918
 20
-138.1671
 30
0.0
 10
-106.5304
 20
-138.1572
 30
0.0
 10
-106.5682
 20
-138.1523
 30
0.0
 10
-106.6049
 20
-138.1523
 30
0.0
 10
-106.6049
 20
-138.1523
 30
0.0
 10
-106.684
 20
-138.1523
 30
0.0
 10
-106.7453
 20
-138.1742
 30
0.0
 10
-106.7895
 20
-138.2182
 30
0.0
 10
-106.7895
 20
-138.2182
 30
0.0
 10
-106.8335
 20
-138.2619
 30
0.0
 10
-106.8594
 20
-138.327
 30
0.0
 10
-106.8667
 20
-138.4134
 30
0.0
 10
-106.8667
 20
-138.4134
 30
0.0
 10
-106.8364
 20
-138.391
 30
0.0
 10
-106.8034
 20
-138.3741
 30
0.0
 10
-106.7681
 20
-138.3628
 30
0.0
 10
-106.7681
 20
-138.3628
 30
0.0
 10
-106.7329
 20
-138.3515
 30
0.0
 10
-106.6943
 20
-138.3459
 30
0.0
 10
-106.6524
 20
-138.3459
 30
0.0
 10
-106.6524
 20
-138.3459
 30
0.0
 10
-106.5473
 20
-138.3459
 30
0.0
 10
-106.4624
 20
-138.3767
 30
0.0
 10
-106.398
 20
-138.4383
 30
0.0
 10
-106.398
 20
-138.4383
 30
0.0
 10
-106.3333
 20
-138.4997
 30
0.0
 10
-106.3011
 20
-138.5803
 30
0.0
 10
-106.3011
 20
-138.6801
 30
0.0
 10
-106.3011
 20
-138.6801
 30
0.0
 10
-106.3011
 20
-138.7904
 30
0.0
 10
-106.3371
 20
-138.8786
 30
0.0
 10
-106.4093
 20
-138.9451
 30
0.0
 10
-106.4093
 20
-138.9451
 30
0.0
 10
-106.4812
 20
-139.0114
 30
0.0
 10
-106.5781
 20
-139.0446
 30
0.0
 10
-106.6992
 20
-139.0446
 30
0.0
 10
-106.6992
 20
-139.0446
 30
0.0
 10
-106.8328
 20
-139.0446
 30
0.0
 10
-106.9363
 20
-138.9994
 30
0.0
 10
-107.0097
 20
-138.9091
 30
0.0
 10
-107.0097
 20
-138.9091
 30
0.0
 10
-107.0828
 20
-138.819
 30
0.0
 10
-107.1195
 20
-138.6909
 30
0.0
 10
-107.1195
 20
-138.5251
 30
0.0
 10
-107.1195
 20
-138.5251
 30
0.0
 10
-107.1195
 20
-138.3553
 30
0.0
 10
-107.0767
 20
-138.2217
 30
0.0
 10
-106.9911
 20
-138.1246
 30
0.0
 10
-106.9911
 20
-138.1246
 30
0.0
 10
-106.9053
 20
-138.0274
 30
0.0
 10
-106.7879
 20
-137.9787
 30
0.0
 10
-106.6386
 20
-137.9787
 30
0.0
 10
-106.6386
 20
-137.9787
 30
0.0
 10
-106.5913
 20
-137.9787
 30
0.0
 10
-106.5454
 20
-137.9825
 30
0.0
 10
-106.5007
 20
-137.9898
 30
0.0
 10
-106.5007
 20
-137.9898
 30
0.0
 10
-106.4563
 20
-137.9971
 30
0.0
 10
-106.4123
 20
-138.0081
 30
0.0
 10
-106.3686
 20
-138.0227
 30
0.0
  0
SPLINE
  5
67
330
1F
100
AcDbEntity
  8
LAYER_1
100
AcDbSpline
210
0.0
220
0.0
230
1.0
 70
    11
 71
     3
 72
   120
 73
   116
 74
     0
 42
0.0000000001
 43
0.0000000001
 40
0.0
 40
0.0
 40
0.0
 40
0.0
 40
0.0344827586206897
 40
0.0344827586206897
 40
0.0344827586206897
 40
0.0344827586206897
 40
0.0689655172413793
 40
0.0689655172413793
 40
0.0689655172413793
 40
0.0689655172413793
 40
0.103448275862069
 40
0.103448275862069
 40
0.103448275862069
 40
0.103448275862069
 40
0.1379310344827586
 40
0.1379310344827586
 40
0.1379310344827586
 40
0.1379310344827586
 40
0.1724137931034483
 40
0.1724137931034483
 40
0.1724137931034483
 40
0.1724137931034483
 40
0.206896551724138
 40
0.206896551724138
 40
0.206896551724138
 40
0.206896551724138
 40
0.2413793103448276
 40
0.2413793103448276
 40
0.2413793103448276
 40
0.2413793103448276
 40
0.2758620689655173
 40
0.2758620689655173
 40
0.2758620689655173
 40
0.2758620689655173
 40
0.310344827586207
 40
0.310344827586207
 40
0.310344827586207
 40
0.310344827586207
 40
0.3448275862068966
 40
0.3448275862068966
 40
0.3448275862068966
 40
0.3448275862068966
 40
0.3793103448275863
 40
0.3793103448275863
 40
0.3793103448275863
 40
0.3793103448275863
 40
0.413793103448276
 40
0.413793103448276
 40
0.413793103448276
 40
0.413793103448276
 40
0.4482758620689656
 40
0.4482758620689656
 40
0.4482758620689656
 40
0.4482758620689656
 40
0.4827586206896553
 40
0.4827586206896553
 40
0.4827586206896553
 40
0.4827586206896553
 40
0.517241379310345
 40
0.517241379310345
 40
0.517241379310345
 40
0.517241379310345
 40
0.5517241379310346
 40
0.5517241379310346
 40
0.5517241379310346
 40
0.5517241379310346
 40
0.5862068965517242
 40
0.5862068965517242
 40
0.5862068965517242
 40
0.5862068965517242
 40
0.6206896551724138
 40
0.6206896551724138
 40
0.6206896551724138
 40
0.6206896551724138
 40
0.6551724137931034
 40
0.6551724137931034
 40
0.6551724137931034
 40
0.6551724137931034
 40
0.689655172413793
 40
0.689655172413793
 40
0.689655172413793
 40
0.689655172413793
 40
0.7241379310344827
 40
0.7241379310344827
 40
0.7241379310344827
 40
0.7241379310344827
 40
0.7586206896551723
 40
0.7586206896551723
 40
0.7586206896551723
 40
0.7586206896551723
 40
0.7931034482758619
 40
0.7931034482758619
 40
0.7931034482758619
 40
0.7931034482758619
 40
0.8275862068965515
 40
0.8275862068965515
 40
0.8275862068965515
 40
0.8275862068965515
 40
0.8620689655172411
 40
0.8620689655172411
 40
0.8620689655172411
 40
0.8620689655172411
 40
0.8965517241379307
 40
0.8965517241379307
 40
0.8965517241379307
 40
0.8965517241379307
 40
0.9310344827586203
 40
0.9310344827586203
 40
0.9310344827586203
 40
0.9310344827586203
 40
0.9655172413793099
 40
0.9655172413793099
 40
0.9655172413793099
 40
0.9655172413793099
 40
1.0
 40
1.0
 40
1.0
 40
1.0
 10
-104.9001
 20
-138.3811
 30
0.0
 10
-104.8688
 20
-138.3334
 30
0.0
 10
-104.8319
 20
-138.2969
 30
0.0
 10
-104.7888
 20
-138.272
 30
0.0
 10
-104.7888
 20
-138.272
 30
0.0
 10
-104.7458
 20
-138.2468
 30
0.0
 10
-104.6988
 20
-138.2344
 30
0.0
 10
-104.6473
 20
-138.2344
 30
0.0
 10
-104.6473
 20
-138.2344
 30
0.0
 10
-104.5586
 20
-138.2344
 30
0.0
 10
-104.4911
 20
-138.2617
 30
0.0
 10
-104.4448
 20
-138.3165
 30
0.0
 10
-104.4448
 20
-138.3165
 30
0.0
 10
-104.3984
 20
-138.371
 30
0.0
 10
-104.3751
 20
-138.4505
 30
0.0
 10
-104.3751
 20
-138.5547
 30
0.0
 10
-104.3751
 20
-138.5547
 30
0.0
 10
-104.3751
 20
-138.5547
 30
0.0
 10
-104.3751
 20
-139.0246
 30
0.0
 10
-104.3751
 20
-139.0246
 30
0.0
 10
-104.3751
 20
-139.0246
 30
0.0
 10
-104.3751
 20
-139.0246
 30
0.0
 10
-104.6233
 20
-139.0246
 30
0.0
 10
-104.6233
 20
-139.0246
 30
0.0
 10
-104.6233
 20
-139.0246
 30
0.0
 10
-104.6233
 20
-139.0246
 30
0.0
 10
-104.6233
 20
-138.6222
 30
0.0
 10
-104.6233
 20
-138.6222
 30
0.0
 10
-104.6233
 20
-138.6222
 30
0.0
 10
-104.6228
 20
-138.6163
 30
0.0
 10
-104.6226
 20
-138.6102
 30
0.0
 10
-104.6223
 20
-138.6036
 30
0.0
 10
-104.6223
 20
-138.6036
 30
0.0
 10
-104.6221
 20
-138.5973
 30
0.0
 10
-104.6219
 20
-138.5881
 30
0.0
 10
-104.6219
 20
-138.5761
 30
0.0
 10
-104.6219
 20
-138.5761
 30
0.0
 10
-104.6219
 20
-138.5215
 30
0.0
 10
-104.6298
 20
-138.4818
 30
0.0
 10
-104.6461
 20
-138.4573
 30
0.0
 10
-104.6461
 20
-138.4573
 30
0.0
 10
-104.6621
 20
-138.4326
 30
0.0
 10
-104.6879
 20
-138.4204
 30
0.0
 10
-104.7237
 20
-138.4204
 30
0.0
 10
-104.7237
 20
-138.4204
 30
0.0
 10
-104.7707
 20
-138.4204
 30
0.0
 10
-104.8067
 20
-138.4397
 30
0.0
 10
-104.8323
 20
-138.4783
 30
0.0
 10
-104.8323
 20
-138.4783
 30
0.0
 10
-104.8577
 20
-138.5168
 30
0.0
 10
-104.8709
 20
-138.5726
 30
0.0
 10
-104.8719
 20
-138.6457
 30
0.0
 10
-104.8719
 20
-138.6457
 30
0.0
 10
-104.8719
 20
-138.6457
 30
0.0
 10
-104.8719
 20
-139.0246
 30
0.0
 10
-104.8719
 20
-139.0246
 30
0.0
 10
-104.8719
 20
-139.0246
 30
0.0
 10
-104.8719
 20
-139.0246
 30
0.0
 10
-105.12
 20
-139.0246
 30
0.0
 10
-105.12
 20
-139.0246
 30
0.0
 10
-105.12
 20
-139.0246
 30
0.0
 10
-105.12
 20
-139.0246
 30
0.0
 10
-105.12
 20
-138.6222
 30
0.0
 10
-105.12
 20
-138.6222
 30
0.0
 10
-105.12
 20
-138.6222
 30
0.0
 10
-105.12
 20
-138.5368
 30
0.0
 10
-105.1273
 20
-138.4818
 30
0.0
 10
-105.1421
 20
-138.4573
 30
0.0
 10
-105.1421
 20
-138.4573
 30
0.0
 10
-105.1567
 20
-138.4326
 30
0.0
 10
-105.1828
 20
-138.4204
 30
0.0
 10
-105.2204
 20
-138.4204
 30
0.0
 10
-105.2204
 20
-138.4204
 30
0.0
 10
-105.2679
 20
-138.4204
 30
0.0
 10
-105.3044
 20
-138.4399
 30
0.0
 10
-105.33
 20
-138.4787
 30
0.0
 10
-105.33
 20
-138.4787
 30
0.0
 10
-105.3556
 20
-138.5175
 30
0.0
 10
-105.3686
 20
-138.5728
 30
0.0
 10
-105.3686
 20
-138.645
 30
0.0
 10
-105.3686
 20
-138.645
 30
0.0
 10
-105.3686
 20
-138.645
 30
0.0
 10
-105.3686
 20
-139.0246
 30
0.0
 10
-105.3686
 20
-139.0246
 30
0.0
 10
-105.3686
 20
-139.0246
 30
0.0
 10
-105.3686
 20
-139.0246
 30
0.0
 10
-105.6167
 20
-139.0246
 30
0.0
 10
-105.6167
 20
-139.0246
 30
0.0
 10
-105.6167
 20
-139.0246
 30
0.0
 10
-105.6167
 20
-139.0246
 30
0.0
 10
-105.6167
 20
-138.253
 30
0.0
 10
-105.6167
 20
-138.253
 30
0.0
 10
-105.6167
 20
-138.253
 30
0.0
 10
-105.6167
 20
-138.253
 30
0.0
 10
-105.3686
 20
-138.253
 30
0.0
 10
-105.3686
 20
-138.253
 30
0.0
 10
-105.3686
 20
-138.253
 30
0.0
 10
-105.3686
 20
-138.253
 30
0.0
 10
-105.3686
 20
-138.3661
 30
0.0
 10
-105.3686
 20
-138.3661
 30
0.0
 10
-105.3686
 20
-138.3661
 30
0.0
 10
-105.3382
 20
-138.3223
 30
0.0
 10
-105.3034
 20
-138.2897
 30
0.0
 10
-105.2641
 20
-138.2675
 30
0.0
 10
-105.2641
 20
-138.2675
 30
0.0
 10
-105.2249
 20
-138.2454
 30
0.0
 10
-105.1816
 20
-138.2344
 30
0.0
 10
-105.1343
 20
-138.2344
 30
0.0
 10
-105.1343
 20
-138.2344
 30
0.0
 10
-105.0812
 20
-138.2344
 30
0.0
 10
-105.0339
 20
-138.2473
 30
0.0
 10
-104.9932
 20
-138.273
 30
0.0
 10
-104.9932
 20
-138.273
 30
0.0
 10
-104.9523
 20
-138.2988
 30
0.0
 10
-104.9212
 20
-138.3348
 30
0.0
 10
-104.9001
 20
-138.3811
 30
0.0
  0
SPLINE
  5
68
330
1F
100
AcDbEntity
  8
LAYER_1
100
AcDbSpline
210
0.0
220
0.0
230
1.0
 70
    11
 71
     3
 72
   120
 73
   116
 74
     0
 42
0.0000000001
 43
0.0000000001
 40
0.0
 40
0.0
 40
0.0
 40
0.0
 40
0.0344827586206897
 40
0.0344827586206897
 40
0.0344827586206897
 40
0.0344827586206897
 40
0.0689655172413793
 40
0.0689655172413793
 40
0.0689655172413793
 40
0.0689655172413793
 40
0.103448275862069
 40
0.103448275862069
 40
0.103448275862069
 40
0.103448275862069
 40
0.1379310344827586
 40
0.1379310344827586
 40
0.1379310344827586
 40
0.1379310344827586
 40
0.1724137931034483
 40
0.1724137931034483
 40
0.1724137931034483
 40
0.1724137931034483
 40
0.206896551724138
 40
0.206896551724138
 40
0.206896551724138
 40
0.206896551724138
 40
0.2413793103448276
 40
0.2413793103448276
 40
0.2413793103448276
 40
0.2413793103448276
 40
0.2758620689655173
 40
0.2758620689655173
 40
0.2758620689655173
 40
0.2758620689655173
 40
0.310344827586207
 40
0.310344827586207
 40
0.310344827586207
 40
0.310344827586207
 40
0.3448275862068966
 40
0.3448275862068966
 40
0.3448275862068966
 40
0.3448275862068966
 40
0.3793103448275863
 40
0.3793103448275863
 40
0.3793103448275863
 40
0.3793103448275863
 40
0.413793103448276
 40
0.413793103448276
 40
0.413793103448276
 40
0.413793103448276
 40
0.4482758620689656
 40
0.4482758620689656
 40
0.4482758620689656
 40
0.4482758620689656
 40
0.4827586206896553
 40
0.4827586206896553
 40
0.4827586206896553
 40
0.4827586206896553
 40
0.517241379310345
 40
0.517241379310345
 40
0.517241379310345
 40
0.517241379310345
 40
0.5517241379310346
 40
0.5517241379310346
 40
0.5517241379310346
 40
0.5517241379310346
 40
0.5862068965517242
 40
0.5862068965517242
 40
0.5862068965517242
 40
0.5862068965517242
 40
0.6206896551724138
 40
0.6206896551724138
 40
0.6206896551724138
 40
0.6206896551724138
 40
0.6551724137931034
 40
0.6551724137931034
 40
0.6551724137931034
 40
0.6551724137931034
 40
0.689655172413793
 40
0.689655172413793
 40
0.689655172413793
 40
0.689655172413793
 40
0.7241379310344827
 40
0.7241379310344827
 40
0.7241379310344827
 40
0.7241379310344827
 40
0.7586206896551723
 40
0.7586206896551723
 40
0.7586206896551723
 40
0.7586206896551723
 40
0.7931034482758619
 40
0.7931034482758619
 40
0.7931034482758619
 40
0.7931034482758619
 40
0.8275862068965515
 40
0.8275862068965515
 40
0.8275862068965515
 40
0.8275862068965515
 40
0.8620689655172411
 40
0.8620689655172411
 40
0.8620689655172411
 40
0.8620689655172411
 40
0.8965517241379307
 40
0.8965517241379307
 40
0.8965517241379307
 40
0.8965517241379307
 40
0.9310344827586203
 40
0.9310344827586203
 40
0.9310344827586203
 40
0.9310344827586203
 40
0.9655172413793099
 40
0.9655172413793099
 40
0.9655172413793099
 40
0.9655172413793099
 40
1.0
 40
1.0
 40
1.0
 40
1.0
 10
-103.4297
 20
-138.3811
 30
0.0
 10
-103.3984
 20
-138.3334
 30
0.0
 10
-103.3615
 20
-138.2969
 30
0.0
 10
-103.3184
 20
-138.272
 30
0.0
 10
-103.3184
 20
-138.272
 30
0.0
 10
-103.2754
 20
-138.2468
 30
0.0
 10
-103.2284
 20
-138.2344
 30
0.0
 10
-103.1769
 20
-138.2344
 30
0.0
 10
-103.1769
 20
-138.2344
 30
0.0
 10
-103.0882
 20
-138.2344
 30
0.0
 10
-103.0207
 20
-138.2617
 30
0.0
 10
-102.9744
 20
-138.3165
 30
0.0
 10
-102.9744
 20
-138.3165
 30
0.0
 10
-102.928
 20
-138.371
 30
0.0
 10
-102.9047
 20
-138.4505
 30
0.0
 10
-102.9047
 20
-138.5547
 30
0.0
 10
-102.9047
 20
-138.5547
 30
0.0
 10
-102.9047
 20
-138.5547
 30
0.0
 10
-102.9047
 20
-139.0246
 30
0.0
 10
-102.9047
 20
-139.0246
 30
0.0
 10
-102.9047
 20
-139.0246
 30
0.0
 10
-102.9047
 20
-139.0246
 30
0.0
 10
-103.1529
 20
-139.0246
 30
0.0
 10
-103.1529
 20
-139.0246
 30
0.0
 10
-103.1529
 20
-139.0246
 30
0.0
 10
-103.1529
 20
-139.0246
 30
0.0
 10
-103.1529
 20
-138.6222
 30
0.0
 10
-103.1529
 20
-138.6222
 30
0.0
 10
-103.1529
 20
-138.6222
 30
0.0
 10
-103.1524
 20
-138.6163
 30
0.0
 10
-103.1522
 20
-138.6102
 30
0.0
 10
-103.1519
 20
-138.6036
 30
0.0
 10
-103.1519
 20
-138.6036
 30
0.0
 10
-103.1517
 20
-138.5973
 30
0.0
 10
-103.1515
 20
-138.5881
 30
0.0
 10
-103.1515
 20
-138.5761
 30
0.0
 10
-103.1515
 20
-138.5761
 30
0.0
 10
-103.1515
 20
-138.5215
 30
0.0
 10
-103.1594
 20
-138.4818
 30
0.0
 10
-103.1757
 20
-138.4573
 30
0.0
 10
-103.1757
 20
-138.4573
 30
0.0
 10
-103.1917
 20
-138.4326
 30
0.0
 10
-103.2175
 20
-138.4204
 30
0.0
 10
-103.2533
 20
-138.4204
 30
0.0
 10
-103.2533
 20
-138.4204
 30
0.0
 10
-103.3003
 20
-138.4204
 30
0.0
 10
-103.3363
 20
-138.4397
 30
0.0
 10
-103.3619
 20
-138.4783
 30
0.0
 10
-103.3619
 20
-138.4783
 30
0.0
 10
-103.3873
 20
-138.5168
 30
0.0
 10
-103.4005
 20
-138.5726
 30
0.0
 10
-103.4015
 20
-138.6457
 30
0.0
 10
-103.4015
 20
-138.6457
 30
0.0
 10
-103.4015
 20
-138.6457
 30
0.0
 10
-103.4015
 20
-139.0246
 30
0.0
 10
-103.4015
 20
-139.0246
 30
0.0
 10
-103.4015
 20
-139.0246
 30
0.0
 10
-103.4015
 20
-139.0246
 30
0.0
 10
-103.6496
 20
-139.0246
 30
0.0
 10
-103.6496
 20
-139.0246
 30
0.0
 10
-103.6496
 20
-139.0246
 30
0.0
 10
-103.6496
 20
-139.0246
 30
0.0
 10
-103.6496
 20
-138.6222
 30
0.0
 10
-103.6496
 20
-138.6222
 30
0.0
 10
-103.6496
 20
-138.6222
 30
0.0
 10
-103.6496
 20
-138.5368
 30
0.0
 10
-103.6569
 20
-138.4818
 30
0.0
 10
-103.6717
 20
-138.4573
 30
0.0
 10
-103.6717
 20
-138.4573
 30
0.0
 10
-103.6863
 20
-138.4326
 30
0.0
 10
-103.7124
 20
-138.4204
 30
0.0
 10
-103.75
 20
-138.4204
 30
0.0
 10
-103.75
 20
-138.4204
 30
0.0
 10
-103.7975
 20
-138.4204
 30
0.0
 10
-103.834
 20
-138.4399
 30
0.0
 10
-103.8596
 20
-138.4787
 30
0.0
 10
-103.8596
 20
-138.4787
 30
0.0
 10
-103.8852
 20
-138.5175
 30
0.0
 10
-103.8982
 20
-138.5728
 30
0.0
 10
-103.8982
 20
-138.645
 30
0.0
 10
-103.8982
 20
-138.645
 30
0.0
 10
-103.8982
 20
-138.645
 30
0.0
 10
-103.8982
 20
-139.0246
 30
0.0
 10
-103.8982
 20
-139.0246
 30
0.0
 10
-103.8982
 20
-139.0246
 30
0.0
 10
-103.8982
 20
-139.0246
 30
0.0
 10
-104.1463
 20
-139.0246
 30
0.0
 10
-104.1463
 20
-139.0246
 30
0.0
 10
-104.1463
 20
-139.0246
 30
0.0
 10
-104.1463
 20
-139.0246
 30
0.0
 10
-104.1463
 20
-138.253
 30
0.0
 10
-104.1463
 20
-138.253
 30
0.0
 10
-104.1463
 20
-138.253
 30
0.0
 10
-104.1463
 20
-138.253
 30
0.0
 10
-103.8982
 20
-138.253
 30
0.0
 10
-103.8982
 20
-138.253
 30
0.0
 10
-103.8982
 20
-138.253
 30
0.0
 10
-103.8982
 20
-138.253
 30
0.0
 10
-103.8982
 20
-138.3661
 30
0.0
 10
-103.8982
 20
-138.3661
 30
0.0
 10
-103.8982
 20
-138.3661
 30
0.0
 10
-103.8678
 20
-138.3223
 30
0.0
 10
-103.833
 20
-138.2897
 30
0.0
 10
-103.7937
 20
-138.2675
 30
0.0
 10
-103.7937
 20
-138.2675
 30
0.0
 10
-103.7545
 20
-138.2454
 30
0.0
 10
-103.7112
 20
-138.2344
 30
0.0
 10
-103.6639
 20
-138.2344
 30
0.0
 10
-103.6639
 20
-138.2344
 30
0.0
 10
-103.6108
 20
-138.2344
 30
0.0
 10
-103.5635
 20
-138.2473
 30
0.0
 10
-103.5228
 20
-138.273
 30
0.0
 10
-103.5228
 20
-138.273
 30
0.0
 10
-103.4819
 20
-138.2988
 30
0.0
 10
-103.4508
 20
-138.3348
 30
0.0
 10
-103.4297
 20
-138.3811
 30
0.0
  0
SPLINE
  5
69
330
1F
100
AcDbEntity
  8
LAYER_1
100
AcDbSpline
210
0.0
220
0.0
230
1.0
 70
    11
 71
     3
 72
    40
 73
    36
 74
     0
 42
0.0000000001
 43
0.0000000001
 40
0.0
 40
0.0
 40
0.0
 40
0.0
 40
0.1111111111111111
 40
0.1111111111111111
 40
0.1111111111111111
 40
0.1111111111111111
 40
0.2222222222222222
 40
0.2222222222222222
 40
0.2222222222222222
 40
0.2222222222222222
 40
0.3333333333333333
 40
0.3333333333333333
 40
0.3333333333333333
 40
0.3333333333333333
 40
0.4444444444444444
 40
0.4444444444444444
 40
0.4444444444444444
 40
0.4444444444444444
 40
0.5555555555555556
 40
0.5555555555555556
 40
0.5555555555555556
 40
0.5555555555555556
 40
0.6666666666666667
 40
0.6666666666666667
 40
0.6666666666666667
 40
0.6666666666666667
 40
0.7777777777777779
 40
0.7777777777777779
 40
0.7777777777777779
 40
0.7777777777777779
 40
0.8888888888888891
 40
0.8888888888888891
 40
0.8888888888888891
 40
0.8888888888888891
 40
1.0
 40
1.0
 40
1.0
 40
1.0
 10
-114.3949
 20
-139.6384
 30
0.0
 10
-114.3949
 20
-139.6384
 30
0.0
 10
-113.9547
 20
-139.6384
 30
0.0
 10
-113.9547
 20
-139.6384
 30
0.0
 10
-113.9547
 20
-139.6384
 30
0.0
 10
-113.8237
 20
-139.6384
 30
0.0
 10
-113.7232
 20
-139.6676
 30
0.0
 10
-113.6531
 20
-139.7257
 30
0.0
 10
-113.6531
 20
-139.7257
 30
0.0
 10
-113.5831
 20
-139.7838
 30
0.0
 10
-113.548
 20
-139.8665
 30
0.0
 10
-113.548
 20
-139.974
 30
0.0
 10
-113.548
 20
-139.974
 30
0.0
 10
-113.548
 20
-140.0817
 30
0.0
 10
-113.5831
 20
-140.1647
 30
0.0
 10
-113.6531
 20
-140.2228
 30
0.0
 10
-113.6531
 20
-140.2228
 30
0.0
 10
-113.7232
 20
-140.2809
 30
0.0
 10
-113.8237
 20
-140.3101
 30
0.0
 10
-113.9547
 20
-140.3101
 30
0.0
 10
-113.9547
 20
-140.3101
 30
0.0
 10
-113.9547
 20
-140.3101
 30
0.0
 10
-114.1296
 20
-140.3101
 30
0.0
 10
-114.1296
 20
-140.3101
 30
0.0
 10
-114.1296
 20
-140.3101
 30
0.0
 10
-114.1296
 20
-140.3101
 30
0.0
 10
-114.1296
 20
-140.6671
 30
0.0
 10
-114.1296
 20
-140.6671
 30
0.0
 10
-114.1296
 20
-140.6671
 30
0.0
 10
-114.1296
 20
-140.6671
 30
0.0
 10
-114.3949
 20
-140.6671
 30
0.0
 10
-114.3949
 20
-140.6671
 30
0.0
 10
-114.3949
 20
-140.6671
 30
0.0
 10
-114.3949
 20
-140.6671
 30
0.0
 10
-114.3949
 20
-139.6384
 30
0.0
 10
-114.3949
 20
-139.6384
 30
0.0
  0
SPLINE
  5
6A
330
1F
100
AcDbEntity
  8
LAYER_1
100
AcDbSpline
210
0.0
220
0.0
230
1.0
 70
    11
 71
     3
 72
    32
 73
    28
 74
     0
 42
0.0000000001
 43
0.0000000001
 40
0.0
 40
0.0
 40
0.0
 40
0.0
 40
0.1428571428571428
 40
0.1428571428571428
 40
0.1428571428571428
 40
0.1428571428571428
 40
0.2857142857142857
 40
0.2857142857142857
 40
0.2857142857142857
 40
0.2857142857142857
 40
0.4285714285714285
 40
0.4285714285714285
 40
0.4285714285714285
 40
0.4285714285714285
 40
0.5714285714285714
 40
0.5714285714285714
 40
0.5714285714285714
 40
0.5714285714285714
 40
0.7142857142857142
 40
0.7142857142857142
 40
0.7142857142857142
 40
0.7142857142857142
 40
0.857142857142857
 40
0.857142857142857
 40
0.857142857142857
 40
0.857142857142857
 40
1.0
 40
1.0
 40
1.0
 40
1.0
 10
-114.1296
 20
-139.8306
 30
0.0
 10
-114.1296
 20
-139.8306
 30
0.0
 10
-114.1296
 20
-140.1179
 30
0.0
 10
-114.1296
 20
-140.1179
 30
0.0
 10
-114.1296
 20
-140.1179
 30
0.0
 10
-114.1296
 20
-140.1179
 30
0.0
 10
-113.9829
 20
-140.1179
 30
0.0
 10
-113.9829
 20
-140.1179
 30
0.0
 10
-113.9829
 20
-140.1179
 30
0.0
 10
-113.9314
 20
-140.1179
 30
0.0
 10
-113.8916
 20
-140.1055
 30
0.0
 10
-113.8636
 20
-140.0803
 30
0.0
 10
-113.8636
 20
-140.0803
 30
0.0
 10
-113.8356
 20
-140.0554
 30
0.0
 10
-113.8215
 20
-140.0199
 30
0.0
 10
-113.8215
 20
-139.974
 30
0.0
 10
-113.8215
 20
-139.974
 30
0.0
 10
-113.8215
 20
-139.9279
 30
0.0
 10
-113.8356
 20
-139.8926
 30
0.0
 10
-113.8636
 20
-139.8677
 30
0.0
 10
-113.8636
 20
-139.8677
 30
0.0
 10
-113.8916
 20
-139.843
 30
0.0
 10
-113.9314
 20
-139.8306
 30
0.0
 10
-113.9829
 20
-139.8306
 30
0.0
 10
-113.9829
 20
-139.8306
 30
0.0
 10
-113.9829
 20
-139.8306
 30
0.0
 10
-114.1296
 20
-139.8306
 30
0.0
 10
-114.1296
 20
-139.8306
 30
0.0
  0
SPLINE
  5
6B
330
1F
100
AcDbEntity
  8
LAYER_1
100
AcDbSpline
210
0.0
220
0.0
230
1.0
 70
    11
 71
     3
 72
    60
 73
    56
 74
     0
 42
0.0000000001
 43
0.0000000001
 40
0.0
 40
0.0
 40
0.0
 40
0.0
 40
0.0714285714285714
 40
0.0714285714285714
 40
0.0714285714285714
 40
0.0714285714285714
 40
0.1428571428571428
 40
0.1428571428571428
 40
0.1428571428571428
 40
0.1428571428571428
 40
0.2142857142857143
 40
0.2142857142857143
 40
0.2142857142857143
 40
0.2142857142857143
 40
0.2857142857142857
 40
0.2857142857142857
 40
0.2857142857142857
 40
0.2857142857142857
 40
0.3571428571428571
 40
0.3571428571428571
 40
0.3571428571428571
 40
0.3571428571428571
 40
0.4285714285714285
 40
0.4285714285714285
 40
0.4285714285714285
 40
0.4285714285714285
 40
0.4999999999999999
 40
0.4999999999999999
 40
0.4999999999999999
 40
0.4999999999999999
 40
0.5714285714285713
 40
0.5714285714285713
 40
0.5714285714285713
 40
0.5714285714285713
 40
0.6428571428571427
 40
0.6428571428571427
 40
0.6428571428571427
 40
0.6428571428571427
 40
0.7142857142857141
 40
0.7142857142857141
 40
0.7142857142857141
 40
0.7142857142857141
 40
0.7857142857142855
 40
0.7857142857142855
 40
0.7857142857142855
 40
0.7857142857142855
 40
0.8571428571428569
 40
0.8571428571428569
 40
0.8571428571428569
 40
0.8571428571428569
 40
0.9285714285714283
 40
0.9285714285714283
 40
0.9285714285714283
 40
0.9285714285714283
 40
1.0
 40
1.0
 40
1.0
 40
1.0
 10
-113.3608
 20
-139.6384
 30
0.0
 10
-113.3608
 20
-139.6384
 30
0.0
 10
-113.0955
 20
-139.6384
 30
0.0
 10
-113.0955
 20
-139.6384
 30
0.0
 10
-113.0955
 20
-139.6384
 30
0.0
 10
-113.0955
 20
-139.6384
 30
0.0
 10
-113.0955
 20
-140.2551
 30
0.0
 10
-113.0955
 20
-140.2551
 30
0.0
 10
-113.0955
 20
-140.2551
 30
0.0
 10
-113.0955
 20
-140.34
 30
0.0
 10
-113.0817
 20
-140.4009
 30
0.0
 10
-113.0539
 20
-140.4373
 30
0.0
 10
-113.0539
 20
-140.4373
 30
0.0
 10
-113.0261
 20
-140.4738
 30
0.0
 10
-112.9808
 20
-140.4921
 30
0.0
 10
-112.9177
 20
-140.4921
 30
0.0
 10
-112.9177
 20
-140.4921
 30
0.0
 10
-112.8542
 20
-140.4921
 30
0.0
 10
-112.8086
 20
-140.4738
 30
0.0
 10
-112.7809
 20
-140.4373
 30
0.0
 10
-112.7809
 20
-140.4373
 30
0.0
 10
-112.7531
 20
-140.4009
 30
0.0
 10
-112.7392
 20
-140.34
 30
0.0
 10
-112.7392
 20
-140.2551
 30
0.0
 10
-112.7392
 20
-140.2551
 30
0.0
 10
-112.7392
 20
-140.2551
 30
0.0
 10
-112.7392
 20
-139.6384
 30
0.0
 10
-112.7392
 20
-139.6384
 30
0.0
 10
-112.7392
 20
-139.6384
 30
0.0
 10
-112.7392
 20
-139.6384
 30
0.0
 10
-112.4739
 20
-139.6384
 30
0.0
 10
-112.4739
 20
-139.6384
 30
0.0
 10
-112.4739
 20
-139.6384
 30
0.0
 10
-112.4739
 20
-139.6384
 30
0.0
 10
-112.4739
 20
-140.2551
 30
0.0
 10
-112.4739
 20
-140.2551
 30
0.0
 10
-112.4739
 20
-140.2551
 30
0.0
 10
-112.4739
 20
-140.4006
 30
0.0
 10
-112.5104
 20
-140.5091
 30
0.0
 10
-112.5835
 20
-140.5803
 30
0.0
 10
-112.5835
 20
-140.5803
 30
0.0
 10
-112.6564
 20
-140.6516
 30
0.0
 10
-112.7679
 20
-140.6871
 30
0.0
 10
-112.9177
 20
-140.6871
 30
0.0
 10
-112.9177
 20
-140.6871
 30
0.0
 10
-113.0671
 20
-140.6871
 30
0.0
 10
-113.1783
 20
-140.6516
 30
0.0
 10
-113.2512
 20
-140.5803
 30
0.0
 10
-113.2512
 20
-140.5803
 30
0.0
 10
-113.3244
 20
-140.5091
 30
0.0
 10
-113.3608
 20
-140.4006
 30
0.0
 10
-113.3608
 20
-140.2551
 30
0.0
 10
-113.3608
 20
-140.2551
 30
0.0
 10
-113.3608
 20
-140.2551
 30
0.0
 10
-113.3608
 20
-139.6384
 30
0.0
 10
-113.3608
 20
-139.6384
 30
0.0
  0
SPLINE
  5
6C
330
1F
100
AcDbEntity
  8
LAYER_1
100
AcDbSpline
210
0.0
220
0.0
230
1.0
 70
    11
 71
     3
 72
   116
 73
   112
 74
     0
 42
0.0000000001
 43
0.0000000001
 40
0.0
 40
0.0
 40
0.0
 40
0.0
 40
0.0357142857142857
 40
0.0357142857142857
 40
0.0357142857142857
 40
0.0357142857142857
 40
0.0714285714285714
 40
0.0714285714285714
 40
0.0714285714285714
 40
0.0714285714285714
 40
0.1071428571428571
 40
0.1071428571428571
 40
0.1071428571428571
 40
0.1071428571428571
 40
0.1428571428571428
 40
0.1428571428571428
 40
0.1428571428571428
 40
0.1428571428571428
 40
0.1785714285714285
 40
0.1785714285714285
 40
0.1785714285714285
 40
0.1785714285714285
 40
0.2142857142857142
 40
0.2142857142857142
 40
0.2142857142857142
 40
0.2142857142857142
 40
0.2499999999999999
 40
0.2499999999999999
 40
0.2499999999999999
 40
0.2499999999999999
 40
0.2857142857142856
 40
0.2857142857142856
 40
0.2857142857142856
 40
0.2857142857142856
 40
0.3214285714285713
 40
0.3214285714285713
 40
0.3214285714285713
 40
0.3214285714285713
 40
0.357142857142857
 40
0.357142857142857
 40
0.357142857142857
 40
0.357142857142857
 40
0.3928571428571427
 40
0.3928571428571427
 40
0.3928571428571427
 40
0.3928571428571427
 40
0.4285714285714284
 40
0.4285714285714284
 40
0.4285714285714284
 40
0.4285714285714284
 40
0.4642857142857141
 40
0.4642857142857141
 40
0.4642857142857141
 40
0.4642857142857141
 40
0.4999999999999998
 40
0.4999999999999998
 40
0.4999999999999998
 40
0.4999999999999998
 40
0.5357142857142856
 40
0.5357142857142856
 40
0.5357142857142856
 40
0.5357142857142856
 40
0.5714285714285713
 40
0.5714285714285713
 40
0.5714285714285713
 40
0.5714285714285713
 40
0.607142857142857
 40
0.607142857142857
 40
0.607142857142857
 40
0.607142857142857
 40
0.6428571428571427
 40
0.6428571428571427
 40
0.6428571428571427
 40
0.6428571428571427
 40
0.6785714285714284
 40
0.6785714285714284
 40
0.6785714285714284
 40
0.6785714285714284
 40
0.7142857142857141
 40
0.7142857142857141
 40
0.7142857142857141
 40
0.7142857142857141
 40
0.7499999999999998
 40
0.7499999999999998
 40
0.7499999999999998
 40
0.7499999999999998
 40
0.7857142857142855
 40
0.7857142857142855
 40
0.7857142857142855
 40
0.7857142857142855
 40
0.8214285714285712
 40
0.8214285714285712
 40
0.8214285714285712
 40
0.8214285714285712
 40
0.8571428571428569
 40
0.8571428571428569
 40
0.8571428571428569
 40
0.8571428571428569
 40
0.8928571428571426
 40
0.8928571428571426
 40
0.8928571428571426
 40
0.8928571428571426
 40
0.9285714285714283
 40
0.9285714285714283
 40
0.9285714285714283
 40
0.9285714285714283
 40
0.964285714285714
 40
0.964285714285714
 40
0.964285714285714
 40
0.964285714285714
 40
1.0
 40
1.0
 40
1.0
 40
1.0
 10
-111.4991
 20
-139.6709
 30
0.0
 10
-111.4991
 20
-139.6709
 30
0.0
 10
-111.4991
 20
-139.8884
 30
0.0
 10
-111.4991
 20
-139.8884
 30
0.0
 10
-111.4991
 20
-139.8884
 30
0.0
 10
-111.5556
 20
-139.8632
 30
0.0
 10
-111.6108
 20
-139.8442
 30
0.0
 10
-111.6644
 20
-139.8313
 30
0.0
 10
-111.6644
 20
-139.8313
 30
0.0
 10
-111.7183
 20
-139.8183
 30
0.0
 10
-111.7691
 20
-139.812
 30
0.0
 10
-111.8168
 20
-139.812
 30
0.0
 10
-111.8168
 20
-139.812
 30
0.0
 10
-111.8801
 20
-139.812
 30
0.0
 10
-111.9271
 20
-139.8207
 30
0.0
 10
-111.9575
 20
-139.8381
 30
0.0
 10
-111.9575
 20
-139.8381
 30
0.0
 10
-111.9878
 20
-139.8557
 30
0.0
 10
-112.0029
 20
-139.8828
 30
0.0
 10
-112.0029
 20
-139.9195
 30
0.0
 10
-112.0029
 20
-139.9195
 30
0.0
 10
-112.0029
 20
-139.947
 30
0.0
 10
-111.9928
 20
-139.9686
 30
0.0
 10
-111.9723
 20
-139.9839
 30
0.0
 10
-111.9723
 20
-139.9839
 30
0.0
 10
-111.9518
 20
-139.9992
 30
0.0
 10
-111.9147
 20
-140.0126
 30
0.0
 10
-111.8608
 20
-140.0236
 30
0.0
 10
-111.8608
 20
-140.0236
 30
0.0
 10
-111.8608
 20
-140.0236
 30
0.0
 10
-111.7479
 20
-140.0462
 30
0.0
 10
-111.7479
 20
-140.0462
 30
0.0
 10
-111.7479
 20
-140.0462
 30
0.0
 10
-111.6334
 20
-140.0693
 30
0.0
 10
-111.5523
 20
-140.1041
 30
0.0
 10
-111.5041
 20
-140.1511
 30
0.0
 10
-111.5041
 20
-140.1511
 30
0.0
 10
-111.4558
 20
-140.1979
 30
0.0
 10
-111.4316
 20
-140.2645
 30
0.0
 10
-111.4316
 20
-140.3508
 30
0.0
 10
-111.4316
 20
-140.3508
 30
0.0
 10
-111.4316
 20
-140.4644
 30
0.0
 10
-111.4652
 20
-140.5488
 30
0.0
 10
-111.5325
 20
-140.6041
 30
0.0
 10
-111.5325
 20
-140.6041
 30
0.0
 10
-111.5998
 20
-140.6593
 30
0.0
 10
-111.7025
 20
-140.6871
 30
0.0
 10
-111.8408
 20
-140.6871
 30
0.0
 10
-111.8408
 20
-140.6871
 30
0.0
 10
-111.9062
 20
-140.6871
 30
0.0
 10
-111.9716
 20
-140.681
 30
0.0
 10
-112.0372
 20
-140.6685
 30
0.0
 10
-112.0372
 20
-140.6685
 30
0.0
 10
-112.1028
 20
-140.656
 30
0.0
 10
-112.1687
 20
-140.6377
 30
0.0
 10
-112.2343
 20
-140.6135
 30
0.0
 10
-112.2343
 20
-140.6135
 30
0.0
 10
-112.2343
 20
-140.6135
 30
0.0
 10
-112.2343
 20
-140.3896
 30
0.0
 10
-112.2343
 20
-140.3896
 30
0.0
 10
-112.2343
 20
-140.3896
 30
0.0
 10
-112.1687
 20
-140.4244
 30
0.0
 10
-112.1052
 20
-140.4507
 30
0.0
 10
-112.0438
 20
-140.4684
 30
0.0
 10
-112.0438
 20
-140.4684
 30
0.0
 10
-111.9824
 20
-140.486
 30
0.0
 10
-111.9234
 20
-140.4949
 30
0.0
 10
-111.8665
 20
-140.4949
 30
0.0
 10
-111.8665
 20
-140.4949
 30
0.0
 10
-111.8086
 20
-140.4949
 30
0.0
 10
-111.7642
 20
-140.4853
 30
0.0
 10
-111.7334
 20
-140.466
 30
0.0
 10
-111.7334
 20
-140.466
 30
0.0
 10
-111.7025
 20
-140.4467
 30
0.0
 10
-111.6873
 20
-140.4192
 30
0.0
 10
-111.6873
 20
-140.3832
 30
0.0
 10
-111.6873
 20
-140.3832
 30
0.0
 10
-111.6873
 20
-140.3512
 30
0.0
 10
-111.6976
 20
-140.3263
 30
0.0
 10
-111.7185
 20
-140.3089
 30
0.0
 10
-111.7185
 20
-140.3089
 30
0.0
 10
-111.7395
 20
-140.2915
 30
0.0
 10
-111.7811
 20
-140.2758
 30
0.0
 10
-111.8437
 20
-140.2621
 30
0.0
 10
-111.8437
 20
-140.2621
 30
0.0
 10
-111.8437
 20
-140.2621
 30
0.0
 10
-111.9464
 20
-140.2393
 30
0.0
 10
-111.9464
 20
-140.2393
 30
0.0
 10
-111.9464
 20
-140.2393
 30
0.0
 10
-112.0492
 20
-140.2172
 30
0.0
 10
-112.1245
 20
-140.1822
 30
0.0
 10
-112.172
 20
-140.1339
 30
0.0
 10
-112.172
 20
-140.1339
 30
0.0
 10
-112.2195
 20
-140.0857
 30
0.0
 10
-112.2432
 20
-140.0206
 30
0.0
 10
-112.2432
 20
-139.939
 30
0.0
 10
-112.2432
 20
-139.939
 30
0.0
 10
-112.2432
 20
-139.8364
 30
0.0
 10
-112.2101
 20
-139.7576
 30
0.0
 10
-112.144
 20
-139.7026
 30
0.0
 10
-112.144
 20
-139.7026
 30
0.0
 10
-112.0779
 20
-139.6473
 30
0.0
 10
-111.9829
 20
-139.6198
 30
0.0
 10
-111.8587
 20
-139.6198
 30
0.0
 10
-111.8587
 20
-139.6198
 30
0.0
 10
-111.8023
 20
-139.6198
 30
0.0
 10
-111.7442
 20
-139.6241
 30
0.0
 10
-111.6844
 20
-139.6325
 30
0.0
 10
-111.6844
 20
-139.6325
 30
0.0
 10
-111.6247
 20
-139.641
 30
0.0
 10
-111.5629
 20
-139.6537
 30
0.0
 10
-111.4991
 20
-139.6709
 30
0.0
  0
SPLINE
  5
6D
330
1F
100
AcDbEntity
  8
LAYER_1
100
AcDbSpline
210
0.0
220
0.0
230
1.0
 70
    11
 71
     3
 72
    52
 73
    48
 74
     0
 42
0.0000000001
 43
0.0000000001
 40
0.0
 40
0.0
 40
0.0
 40
0.0
 40
0.0833333333333333
 40
0.0833333333333333
 40
0.0833333333333333
 40
0.0833333333333333
 40
0.1666666666666667
 40
0.1666666666666667
 40
0.1666666666666667
 40
0.1666666666666667
 40
0.25
 40
0.25
 40
0.25
 40
0.25
 40
0.3333333333333333
 40
0.3333333333333333
 40
0.3333333333333333
 40
0.3333333333333333
 40
0.4166666666666666
 40
0.4166666666666666
 40
0.4166666666666666
 40
0.4166666666666666
 40
0.4999999999999999
 40
0.4999999999999999
 40
0.4999999999999999
 40
0.4999999999999999
 40
0.5833333333333333
 40
0.5833333333333333
 40
0.5833333333333333
 40
0.5833333333333333
 40
0.6666666666666666
 40
0.6666666666666666
 40
0.6666666666666666
 40
0.6666666666666666
 40
0.75
 40
0.75
 40
0.75
 40
0.75
 40
0.8333333333333334
 40
0.8333333333333334
 40
0.8333333333333334
 40
0.8333333333333334
 40
0.9166666666666667
 40
0.9166666666666667
 40
0.9166666666666667
 40
0.9166666666666667
 40
1.0
 40
1.0
 40
1.0
 40
1.0
 10
-111.1988
 20
-139.6384
 30
0.0
 10
-111.1988
 20
-139.6384
 30
0.0
 10
-110.9335
 20
-139.6384
 30
0.0
 10
-110.9335
 20
-139.6384
 30
0.0
 10
-110.9335
 20
-139.6384
 30
0.0
 10
-110.9335
 20
-139.6384
 30
0.0
 10
-110.9335
 20
-140.0305
 30
0.0
 10
-110.9335
 20
-140.0305
 30
0.0
 10
-110.9335
 20
-140.0305
 30
0.0
 10
-110.9335
 20
-140.0305
 30
0.0
 10
-110.5422
 20
-140.0305
 30
0.0
 10
-110.5422
 20
-140.0305
 30
0.0
 10
-110.5422
 20
-140.0305
 30
0.0
 10
-110.5422
 20
-140.0305
 30
0.0
 10
-110.5422
 20
-139.6384
 30
0.0
 10
-110.5422
 20
-139.6384
 30
0.0
 10
-110.5422
 20
-139.6384
 30
0.0
 10
-110.5422
 20
-139.6384
 30
0.0
 10
-110.2769
 20
-139.6384
 30
0.0
 10
-110.2769
 20
-139.6384
 30
0.0
 10
-110.2769
 20
-139.6384
 30
0.0
 10
-110.2769
 20
-139.6384
 30
0.0
 10
-110.2769
 20
-140.6671
 30
0.0
 10
-110.2769
 20
-140.6671
 30
0.0
 10
-110.2769
 20
-140.6671
 30
0.0
 10
-110.2769
 20
-140.6671
 30
0.0
 10
-110.5422
 20
-140.6671
 30
0.0
 10
-110.5422
 20
-140.6671
 30
0.0
 10
-110.5422
 20
-140.6671
 30
0.0
 10
-110.5422
 20
-140.6671
 30
0.0
 10
-110.5422
 20
-140.2311
 30
0.0
 10
-110.5422
 20
-140.2311
 30
0.0
 10
-110.5422
 20
-140.2311
 30
0.0
 10
-110.5422
 20
-140.2311
 30
0.0
 10
-110.9335
 20
-140.2311
 30
0.0
 10
-110.9335
 20
-140.2311
 30
0.0
 10
-110.9335
 20
-140.2311
 30
0.0
 10
-110.9335
 20
-140.2311
 30
0.0
 10
-110.9335
 20
-140.6671
 30
0.0
 10
-110.9335
 20
-140.6671
 30
0.0
 10
-110.9335
 20
-140.6671
 30
0.0
 10
-110.9335
 20
-140.6671
 30
0.0
 10
-111.1988
 20
-140.6671
 30
0.0
 10
-111.1988
 20
-140.6671
 30
0.0
 10
-111.1988
 20
-140.6671
 30
0.0
 10
-111.1988
 20
-140.6671
 30
0.0
 10
-111.1988
 20
-139.6384
 30
0.0
 10
-111.1988
 20
-139.6384
 30
0.0
  0
SPLINE
  5
6E
330
1F
100
AcDbEntity
  8
LAYER_1
100
AcDbSpline
210
0.0
220
0.0
230
1.0
 70
    11
 71
     3
 72
    32
 73
    28
 74
     0
 42
0.0000000001
 43
0.0000000001
 40
0.0
 40
0.0
 40
0.0
 40
0.0
 40
0.1428571428571428
 40
0.1428571428571428
 40
0.1428571428571428
 40
0.1428571428571428
 40
0.2857142857142857
 40
0.2857142857142857
 40
0.2857142857142857
 40
0.2857142857142857
 40
0.4285714285714285
 40
0.4285714285714285
 40
0.4285714285714285
 40
0.4285714285714285
 40
0.5714285714285714
 40
0.5714285714285714
 40
0.5714285714285714
 40
0.5714285714285714
 40
0.7142857142857142
 40
0.7142857142857142
 40
0.7142857142857142
 40
0.7142857142857142
 40
0.857142857142857
 40
0.857142857142857
 40
0.857142857142857
 40
0.857142857142857
 40
1.0
 40
1.0
 40
1.0
 40
1.0
 10
-109.6059
 20
-140.0366
 30
0.0
 10
-109.564
 20
-140.0366
 30
0.0
 10
-109.5323
 20
-140.0274
 30
0.0
 10
-109.5109
 20
-140.0091
 30
0.0
 10
-109.5109
 20
-140.0091
 30
0.0
 10
-109.4892
 20
-139.9907
 30
0.0
 10
-109.4784
 20
-139.9637
 30
0.0
 10
-109.4784
 20
-139.9277
 30
0.0
 10
-109.4784
 20
-139.9277
 30
0.0
 10
-109.4784
 20
-139.8924
 30
0.0
 10
-109.4892
 20
-139.8656
 30
0.0
 10
-109.5109
 20
-139.847
 30
0.0
 10
-109.5109
 20
-139.847
 30
0.0
 10
-109.5323
 20
-139.8284
 30
0.0
 10
-109.564
 20
-139.819
 30
0.0
 10
-109.6059
 20
-139.819
 30
0.0
 10
-109.6059
 20
-139.819
 30
0.0
 10
-109.6059
 20
-139.819
 30
0.0
 10
-109.7526
 20
-139.819
 30
0.0
 10
-109.7526
 20
-139.819
 30
0.0
 10
-109.7526
 20
-139.819
 30
0.0
 10
-109.7526
 20
-139.819
 30
0.0
 10
-109.7526
 20
-140.0366
 30
0.0
 10
-109.7526
 20
-140.0366
 30
0.0
 10
-109.7526
 20
-140.0366
 30
0.0
 10
-109.7526
 20
-140.0366
 30
0.0
 10
-109.6059
 20
-140.0366
 30
0.0
 10
-109.6059
 20
-140.0366
 30
0.0
  0
SPLINE
  5
6F
330
1F
100
AcDbEntity
  8
LAYER_1
100
AcDbSpline
210
0.0
220
0.0
230
1.0
 70
    11
 71
     3
 72
    32
 73
    28
 74
     0
 42
0.0000000001
 43
0.0000000001
 40
0.0
 40
0.0
 40
0.0
 40
0.0
 40
0.1428571428571428
 40
0.1428571428571428
 40
0.1428571428571428
 40
0.1428571428571428
 40
0.2857142857142857
 40
0.2857142857142857
 40
0.2857142857142857
 40
0.2857142857142857
 40
0.4285714285714285
 40
0.4285714285714285
 40
0.4285714285714285
 40
0.4285714285714285
 40
0.5714285714285714
 40
0.5714285714285714
 40
0.5714285714285714
 40
0.5714285714285714
 40
0.7142857142857142
 40
0.7142857142857142
 40
0.7142857142857142
 40
0.7142857142857142
 40
0.857142857142857
 40
0.857142857142857
 40
0.857142857142857
 40
0.857142857142857
 40
1.0
 40
1.0
 40
1.0
 40
1.0
 10
-109.5969
 20
-140.4865
 30
0.0
 10
-109.5435
 20
-140.4865
 30
0.0
 10
-109.5036
 20
-140.4752
 30
0.0
 10
-109.4765
 20
-140.4528
 30
0.0
 10
-109.4765
 20
-140.4528
 30
0.0
 10
-109.4497
 20
-140.4303
 30
0.0
 10
-109.4363
 20
-140.3962
 30
0.0
 10
-109.4363
 20
-140.3508
 30
0.0
 10
-109.4363
 20
-140.3508
 30
0.0
 10
-109.4363
 20
-140.3063
 30
0.0
 10
-109.4497
 20
-140.2729
 30
0.0
 10
-109.4763
 20
-140.2506
 30
0.0
 10
-109.4763
 20
-140.2506
 30
0.0
 10
-109.5029
 20
-140.2282
 30
0.0
 10
-109.5431
 20
-140.2172
 30
0.0
 10
-109.5969
 20
-140.2172
 30
0.0
 10
-109.5969
 20
-140.2172
 30
0.0
 10
-109.5969
 20
-140.2172
 30
0.0
 10
-109.7526
 20
-140.2172
 30
0.0
 10
-109.7526
 20
-140.2172
 30
0.0
 10
-109.7526
 20
-140.2172
 30
0.0
 10
-109.7526
 20
-140.2172
 30
0.0
 10
-109.7526
 20
-140.4865
 30
0.0
 10
-109.7526
 20
-140.4865
 30
0.0
 10
-109.7526
 20
-140.4865
 30
0.0
 10
-109.7526
 20
-140.4865
 30
0.0
 10
-109.5969
 20
-140.4865
 30
0.0
 10
-109.5969
 20
-140.4865
 30
0.0
  0
SPLINE
  5
70
330
1F
100
AcDbEntity
  8
LAYER_1
100
AcDbSpline
210
0.0
220
0.0
230
1.0
 70
    11
 71
     3
 72
    48
 73
    44
 74
     0
 42
0.0000000001
 43
0.0000000001
 40
0.0
 40
0.0
 40
0.0
 40
0.0
 40
0.0909090909090909
 40
0.0909090909090909
 40
0.0909090909090909
 40
0.0909090909090909
 40
0.1818181818181818
 40
0.1818181818181818
 40
0.1818181818181818
 40
0.1818181818181818
 40
0.2727272727272727
 40
0.2727272727272727
 40
0.2727272727272727
 40
0.2727272727272727
 40
0.3636363636363636
 40
0.3636363636363636
 40
0.3636363636363636
 40
0.3636363636363636
 40
0.4545454545454546
 40
0.4545454545454546
 40
0.4545454545454546
 40
0.4545454545454546
 40
0.5454545454545455
 40
0.5454545454545455
 40
0.5454545454545455
 40
0.5454545454545455
 40
0.6363636363636365
 40
0.6363636363636365
 40
0.6363636363636365
 40
0.6363636363636365
 40
0.7272727272727274
 40
0.7272727272727274
 40
0.7272727272727274
 40
0.7272727272727274
 40
0.8181818181818183
 40
0.8181818181818183
 40
0.8181818181818183
 40
0.8181818181818183
 40
0.9090909090909093
 40
0.9090909090909093
 40
0.9090909090909093
 40
0.9090909090909093
 40
1.0
 40
1.0
 40
1.0
 40
1.0
 10
-109.3502
 20
-140.1165
 30
0.0
 10
-109.2933
 20
-140.133
 30
0.0
 10
-109.2491
 20
-140.1636
 30
0.0
 10
-109.2178
 20
-140.2083
 30
0.0
 10
-109.2178
 20
-140.2083
 30
0.0
 10
-109.1865
 20
-140.2527
 30
0.0
 10
-109.171
 20
-140.3075
 30
0.0
 10
-109.171
 20
-140.3722
 30
0.0
 10
-109.171
 20
-140.3722
 30
0.0
 10
-109.171
 20
-140.4714
 30
0.0
 10
-109.2047
 20
-140.5453
 30
0.0
 10
-109.2717
 20
-140.594
 30
0.0
 10
-109.2717
 20
-140.594
 30
0.0
 10
-109.3387
 20
-140.6426
 30
0.0
 10
-109.4408
 20
-140.6671
 30
0.0
 10
-109.5777
 20
-140.6671
 30
0.0
 10
-109.5777
 20
-140.6671
 30
0.0
 10
-109.5777
 20
-140.6671
 30
0.0
 10
-110.0179
 20
-140.6671
 30
0.0
 10
-110.0179
 20
-140.6671
 30
0.0
 10
-110.0179
 20
-140.6671
 30
0.0
 10
-110.0179
 20
-140.6671
 30
0.0
 10
-110.0179
 20
-139.6384
 30
0.0
 10
-110.0179
 20
-139.6384
 30
0.0
 10
-110.0179
 20
-139.6384
 30
0.0
 10
-110.0179
 20
-139.6384
 30
0.0
 10
-109.6197
 20
-139.6384
 30
0.0
 10
-109.6197
 20
-139.6384
 30
0.0
 10
-109.6197
 20
-139.6384
 30
0.0
 10
-109.4768
 20
-139.6384
 30
0.0
 10
-109.3733
 20
-139.66
 30
0.0
 10
-109.3093
 20
-139.7031
 30
0.0
 10
-109.3093
 20
-139.7031
 30
0.0
 10
-109.2451
 20
-139.7464
 30
0.0
 10
-109.2131
 20
-139.8155
 30
0.0
 10
-109.2131
 20
-139.9105
 30
0.0
 10
-109.2131
 20
-139.9105
 30
0.0
 10
-109.2131
 20
-139.9606
 30
0.0
 10
-109.2249
 20
-140.0032
 30
0.0
 10
-109.2482
 20
-140.0385
 30
0.0
 10
-109.2482
 20
-140.0385
 30
0.0
 10
-109.2717
 20
-140.0735
 30
0.0
 10
-109.3055
 20
-140.0996
 30
0.0
 10
-109.3502
 20
-140.1165
 30
0.0
  0
SPLINE
  5
71
330
1F
100
AcDbEntity
  8
LAYER_1
100
AcDbSpline
210
0.0
220
0.0
230
1.0
 70
    11
 71
     3
 72
    60
 73
    56
 74
     0
 42
0.0000000001
 43
0.0000000001
 40
0.0
 40
0.0
 40
0.0
 40
0.0
 40
0.0714285714285714
 40
0.0714285714285714
 40
0.0714285714285714
 40
0.0714285714285714
 40
0.1428571428571428
 40
0.1428571428571428
 40
0.1428571428571428
 40
0.1428571428571428
 40
0.2142857142857143
 40
0.2142857142857143
 40
0.2142857142857143
 40
0.2142857142857143
 40
0.2857142857142857
 40
0.2857142857142857
 40
0.2857142857142857
 40
0.2857142857142857
 40
0.3571428571428571
 40
0.3571428571428571
 40
0.3571428571428571
 40
0.3571428571428571
 40
0.4285714285714285
 40
0.4285714285714285
 40
0.4285714285714285
 40
0.4285714285714285
 40
0.4999999999999999
 40
0.4999999999999999
 40
0.4999999999999999
 40
0.4999999999999999
 40
0.5714285714285713
 40
0.5714285714285713
 40
0.5714285714285713
 40
0.5714285714285713
 40
0.6428571428571427
 40
0.6428571428571427
 40
0.6428571428571427
 40
0.6428571428571427
 40
0.7142857142857141
 40
0.7142857142857141
 40
0.7142857142857141
 40
0.7142857142857141
 40
0.7857142857142855
 40
0.7857142857142855
 40
0.7857142857142855
 40
0.7857142857142855
 40
0.8571428571428569
 40
0.8571428571428569
 40
0.8571428571428569
 40
0.8571428571428569
 40
0.9285714285714283
 40
0.9285714285714283
 40
0.9285714285714283
 40
0.9285714285714283
 40
1.0
 40
1.0
 40
1.0
 40
1.0
 10
-108.9424
 20
-139.6384
 30
0.0
 10
-108.9424
 20
-139.6384
 30
0.0
 10
-108.6771
 20
-139.6384
 30
0.0
 10
-108.6771
 20
-139.6384
 30
0.0
 10
-108.6771
 20
-139.6384
 30
0.0
 10
-108.6771
 20
-139.6384
 30
0.0
 10
-108.6771
 20
-140.2551
 30
0.0
 10
-108.6771
 20
-140.2551
 30
0.0
 10
-108.6771
 20
-140.2551
 30
0.0
 10
-108.6771
 20
-140.34
 30
0.0
 10
-108.6633
 20
-140.4009
 30
0.0
 10
-108.6355
 20
-140.4373
 30
0.0
 10
-108.6355
 20
-140.4373
 30
0.0
 10
-108.6077
 20
-140.4738
 30
0.0
 10
-108.5624
 20
-140.4921
 30
0.0
 10
-108.4993
 20
-140.4921
 30
0.0
 10
-108.4993
 20
-140.4921
 30
0.0
 10
-108.4358
 20
-140.4921
 30
0.0
 10
-108.3902
 20
-140.4738
 30
0.0
 10
-108.3625
 20
-140.4373
 30
0.0
 10
-108.3625
 20
-140.4373
 30
0.0
 10
-108.3347
 20
-140.4009
 30
0.0
 10
-108.3208
 20
-140.34
 30
0.0
 10
-108.3208
 20
-140.2551
 30
0.0
 10
-108.3208
 20
-140.2551
 30
0.0
 10
-108.3208
 20
-140.2551
 30
0.0
 10
-108.3208
 20
-139.6384
 30
0.0
 10
-108.3208
 20
-139.6384
 30
0.0
 10
-108.3208
 20
-139.6384
 30
0.0
 10
-108.3208
 20
-139.6384
 30
0.0
 10
-108.0555
 20
-139.6384
 30
0.0
 10
-108.0555
 20
-139.6384
 30
0.0
 10
-108.0555
 20
-139.6384
 30
0.0
 10
-108.0555
 20
-139.6384
 30
0.0
 10
-108.0555
 20
-140.2551
 30
0.0
 10
-108.0555
 20
-140.2551
 30
0.0
 10
-108.0555
 20
-140.2551
 30
0.0
 10
-108.0555
 20
-140.4006
 30
0.0
 10
-108.092
 20
-140.5091
 30
0.0
 10
-108.1651
 20
-140.5803
 30
0.0
 10
-108.1651
 20
-140.5803
 30
0.0
 10
-108.238
 20
-140.6516
 30
0.0
 10
-108.3495
 20
-140.6871
 30
0.0
 10
-108.4993
 20
-140.6871
 30
0.0
 10
-108.4993
 20
-140.6871
 30
0.0
 10
-108.6487
 20
-140.6871
 30
0.0
 10
-108.7599
 20
-140.6516
 30
0.0
 10
-108.8328
 20
-140.5803
 30
0.0
 10
-108.8328
 20
-140.5803
 30
0.0
 10
-108.906
 20
-140.5091
 30
0.0
 10
-108.9424
 20
-140.4006
 30
0.0
 10
-108.9424
 20
-140.2551
 30
0.0
 10
-108.9424
 20
-140.2551
 30
0.0
 10
-108.9424
 20
-140.2551
 30
0.0
 10
-108.9424
 20
-139.6384
 30
0.0
 10
-108.9424
 20
-139.6384
 30
0.0
  0
SPLINE
  5
72
330
1F
100
AcDbEntity
  8
LAYER_1
100
AcDbSpline
210
0.0
220
0.0
230
1.0
 70
    11
 71
     3
 72
    36
 73
    32
 74
     0
 42
0.0000000001
 43
0.0000000001
 40
0.0
 40
0.0
 40
0.0
 40
0.0
 40
0.125
 40
0.125
 40
0.125
 40
0.125
 40
0.25
 40
0.25
 40
0.25
 40
0.25
 40
0.375
 40
0.375
 40
0.375
 40
0.375
 40
0.5
 40
0.5
 40
0.5
 40
0.5
 40
0.625
 40
0.625
 40
0.625
 40
0.625
 40
0.75
 40
0.75
 40
0.75
 40
0.75
 40
0.875
 40
0.875
 40
0.875
 40
0.875
 40
1.0
 40
1.0
 40
1.0
 40
1.0
 10
-107.9194
 20
-139.6384
 30
0.0
 10
-107.9194
 20
-139.6384
 30
0.0
 10
-106.9714
 20
-139.6384
 30
0.0
 10
-106.9714
 20
-139.6384
 30
0.0
 10
-106.9714
 20
-139.6384
 30
0.0
 10
-106.9714
 20
-139.6384
 30
0.0
 10
-106.9714
 20
-139.839
 30
0.0
 10
-106.9714
 20
-139.839
 30
0.0
 10
-106.9714
 20
-139.839
 30
0.0
 10
-106.9714
 20
-139.839
 30
0.0
 10
-107.3124
 20
-139.839
 30
0.0
 10
-107.3124
 20
-139.839
 30
0.0
 10
-107.3124
 20
-139.839
 30
0.0
 10
-107.3124
 20
-139.839
 30
0.0
 10
-107.3124
 20
-140.6671
 30
0.0
 10
-107.3124
 20
-140.6671
 30
0.0
 10
-107.3124
 20
-140.6671
 30
0.0
 10
-107.3124
 20
-140.6671
 30
0.0
 10
-107.5777
 20
-140.6671
 30
0.0
 10
-107.5777
 20
-140.6671
 30
0.0
 10
-107.5777
 20
-140.6671
 30
0.0
 10
-107.5777
 20
-140.6671
 30
0.0
 10
-107.5777
 20
-139.839
 30
0.0
 10
-107.5777
 20
-139.839
 30
0.0
 10
-107.5777
 20
-139.839
 30
0.0
 10
-107.5777
 20
-139.839
 30
0.0
 10
-107.9194
 20
-139.839
 30
0.0
 10
-107.9194
 20
-139.839
 30
0.0
 10
-107.9194
 20
-139.839
 30
0.0
 10
-107.9194
 20
-139.839
 30
0.0
 10
-107.9194
 20
-139.6384
 30
0.0
 10
-107.9194
 20
-139.6384
 30
0.0
  0
SPLINE
  5
73
330
1F
100
AcDbEntity
  8
LAYER_1
100
AcDbSpline
210
0.0
220
0.0
230
1.0
 70
    11
 71
     3
 72
    36
 73
    32
 74
     0
 42
0.0000000001
 43
0.0000000001
 40
0.0
 40
0.0
 40
0.0
 40
0.0
 40
0.125
 40
0.125
 40
0.125
 40
0.125
 40
0.25
 40
0.25
 40
0.25
 40
0.25
 40
0.375
 40
0.375
 40
0.375
 40
0.375
 40
0.5
 40
0.5
 40
0.5
 40
0.5
 40
0.625
 40
0.625
 40
0.625
 40
0.625
 40
0.75
 40
0.75
 40
0.75
 40
0.75
 40
0.875
 40
0.875
 40
0.875
 40
0.875
 40
1.0
 40
1.0
 40
1.0
 40
1.0
 10
-106.9243
 20
-139.6384
 30
0.0
 10
-106.9243
 20
-139.6384
 30
0.0
 10
-105.9763
 20
-139.6384
 30
0.0
 10
-105.9763
 20
-139.6384
 30
0.0
 10
-105.9763
 20
-139.6384
 30
0.0
 10
-105.9763
 20
-139.6384
 30
0.0
 10
-105.9763
 20
-139.839
 30
0.0
 10
-105.9763
 20
-139.839
 30
0.0
 10
-105.9763
 20
-139.839
 30
0.0
 10
-105.9763
 20
-139.839
 30
0.0
 10
-106.3173
 20
-139.839
 30
0.0
 10
-106.3173
 20
-139.839
 30
0.0
 10
-106.3173
 20
-139.839
 30
0.0
 10
-106.3173
 20
-139.839
 30
0.0
 10
-106.3173
 20
-140.6671
 30
0.0
 10
-106.3173
 20
-140.6671
 30
0.0
 10
-106.3173
 20
-140.6671
 30
0.0
 10
-106.3173
 20
-140.6671
 30
0.0
 10
-106.5826
 20
-140.6671
 30
0.0
 10
-106.5826
 20
-140.6671
 30
0.0
 10
-106.5826
 20
-140.6671
 30
0.0
 10
-106.5826
 20
-140.6671
 30
0.0
 10
-106.5826
 20
-139.839
 30
0.0
 10
-106.5826
 20
-139.839
 30
0.0
 10
-106.5826
 20
-139.839
 30
0.0
 10
-106.5826
 20
-139.839
 30
0.0
 10
-106.9243
 20
-139.839
 30
0.0
 10
-106.9243
 20
-139.839
 30
0.0
 10
-106.9243
 20
-139.839
 30
0.0
 10
-106.9243
 20
-139.839
 30
0.0
 10
-106.9243
 20
-139.6384
 30
0.0
 10
-106.9243
 20
-139.6384
 30
0.0
  0
SPLINE
  5
74
330
1F
100
AcDbEntity
  8
LAYER_1
100
AcDbSpline
210
0.0
220
0.0
230
1.0
 70
    11
 71
     3
 72
    36
 73
    32
 74
     0
 42
0.0000000001
 43
0.0000000001
 40
0.0
 40
0.0
 40
0.0
 40
0.0
 40
0.125
 40
0.125
 40
0.125
 40
0.125
 40
0.25
 40
0.25
 40
0.25
 40
0.25
 40
0.375
 40
0.375
 40
0.375
 40
0.375
 40
0.5
 40
0.5
 40
0.5
 40
0.5
 40
0.625
 40
0.625
 40
0.625
 40
0.625
 40
0.75
 40
0.75
 40
0.75
 40
0.75
 40
0.875
 40
0.875
 40
0.875
 40
0.875
 40
1.0
 40
1.0
 40
1.0
 40
1.0
 10
-105.369
 20
-139.812
 30
0.0
 10
-105.4499
 20
-139.812
 30
0.0
 10
-105.5125
 20
-139.8418
 30
0.0
 10
-105.5572
 20
-139.9016
 30
0.0
 10
-105.5572
 20
-139.9016
 30
0.0
 10
-105.6016
 20
-139.9613
 30
0.0
 10
-105.624
 20
-140.0453
 30
0.0
 10
-105.624
 20
-140.1537
 30
0.0
 10
-105.624
 20
-140.1537
 30
0.0
 10
-105.624
 20
-140.2619
 30
0.0
 10
-105.6016
 20
-140.3456
 30
0.0
 10
-105.5572
 20
-140.4053
 30
0.0
 10
-105.5572
 20
-140.4053
 30
0.0
 10
-105.5125
 20
-140.4651
 30
0.0
 10
-105.4499
 20
-140.4949
 30
0.0
 10
-105.369
 20
-140.4949
 30
0.0
 10
-105.369
 20
-140.4949
 30
0.0
 10
-105.2876
 20
-140.4949
 30
0.0
 10
-105.2249
 20
-140.4651
 30
0.0
 10
-105.1802
 20
-140.4053
 30
0.0
 10
-105.1802
 20
-140.4053
 30
0.0
 10
-105.1357
 20
-140.3456
 30
0.0
 10
-105.1134
 20
-140.2619
 30
0.0
 10
-105.1134
 20
-140.1537
 30
0.0
 10
-105.1134
 20
-140.1537
 30
0.0
 10
-105.1134
 20
-140.0453
 30
0.0
 10
-105.1357
 20
-139.9613
 30
0.0
 10
-105.1802
 20
-139.9016
 30
0.0
 10
-105.1802
 20
-139.9016
 30
0.0
 10
-105.2249
 20
-139.8418
 30
0.0
 10
-105.2876
 20
-139.812
 30
0.0
 10
-105.369
 20
-139.812
 30
0.0
  0
SPLINE
  5
75
330
1F
100
AcDbEntity
  8
LAYER_1
100
AcDbSpline
210
0.0
220
0.0
230
1.0
 70
    11
 71
     3
 72
    36
 73
    32
 74
     0
 42
0.0000000001
 43
0.0000000001
 40
0.0
 40
0.0
 40
0.0
 40
0.0
 40
0.125
 40
0.125
 40
0.125
 40
0.125
 40
0.25
 40
0.25
 40
0.25
 40
0.25
 40
0.375
 40
0.375
 40
0.375
 40
0.375
 40
0.5
 40
0.5
 40
0.5
 40
0.5
 40
0.625
 40
0.625
 40
0.625
 40
0.625
 40
0.75
 40
0.75
 40
0.75
 40
0.75
 40
0.875
 40
0.875
 40
0.875
 40
0.875
 40
1.0
 40
1.0
 40
1.0
 40
1.0
 10
-105.369
 20
-139.6198
 30
0.0
 10
-105.2037
 20
-139.6198
 30
0.0
 10
-105.0741
 20
-139.6671
 30
0.0
 10
-104.9805
 20
-139.7619
 30
0.0
 10
-104.9805
 20
-139.7619
 30
0.0
 10
-104.8867
 20
-139.8564
 30
0.0
 10
-104.8399
 20
-139.9869
 30
0.0
 10
-104.8399
 20
-140.1537
 30
0.0
 10
-104.8399
 20
-140.1537
 30
0.0
 10
-104.8399
 20
-140.32
 30
0.0
 10
-104.8867
 20
-140.4505
 30
0.0
 10
-104.9805
 20
-140.545
 30
0.0
 10
-104.9805
 20
-140.545
 30
0.0
 10
-105.0741
 20
-140.6398
 30
0.0
 10
-105.2037
 20
-140.6871
 30
0.0
 10
-105.369
 20
-140.6871
 30
0.0
 10
-105.369
 20
-140.6871
 30
0.0
 10
-105.5339
 20
-140.6871
 30
0.0
 10
-105.6632
 20
-140.6398
 30
0.0
 10
-105.7573
 20
-140.545
 30
0.0
 10
-105.7573
 20
-140.545
 30
0.0
 10
-105.8511
 20
-140.4505
 30
0.0
 10
-105.8982
 20
-140.32
 30
0.0
 10
-105.8982
 20
-140.1537
 30
0.0
 10
-105.8982
 20
-140.1537
 30
0.0
 10
-105.8982
 20
-139.9869
 30
0.0
 10
-105.8511
 20
-139.8564
 30
0.0
 10
-105.7573
 20
-139.7619
 30
0.0
 10
-105.7573
 20
-139.7619
 30
0.0
 10
-105.6632
 20
-139.6671
 30
0.0
 10
-105.5339
 20
-139.6198
 30
0.0
 10
-105.369
 20
-139.6198
 30
0.0
  0
SPLINE
  5
76
330
1F
100
AcDbEntity
  8
LAYER_1
100
AcDbSpline
210
0.0
220
0.0
230
1.0
 70
    11
 71
     3
 72
    44
 73
    40
 74
     0
 42
0.0000000001
 43
0.0000000001
 40
0.0
 40
0.0
 40
0.0
 40
0.0
 40
0.1
 40
0.1
 40
0.1
 40
0.1
 40
0.2
 40
0.2
 40
0.2
 40
0.2
 40
0.3
 40
0.3
 40
0.3
 40
0.3
 40
0.4
 40
0.4
 40
0.4
 40
0.4
 40
0.5
 40
0.5
 40
0.5
 40
0.5
 40
0.6
 40
0.6
 40
0.6
 40
0.6
 40
0.7
 40
0.7
 40
0.7
 40
0.7
 40
0.7999999999999999
 40
0.7999999999999999
 40
0.7999999999999999
 40
0.7999999999999999
 40
0.8999999999999999
 40
0.8999999999999999
 40
0.8999999999999999
 40
0.8999999999999999
 40
1.0
 40
1.0
 40
1.0
 40
1.0
 10
-104.6392
 20
-139.6384
 30
0.0
 10
-104.6392
 20
-139.6384
 30
0.0
 10
-104.3429
 20
-139.6384
 30
0.0
 10
-104.3429
 20
-139.6384
 30
0.0
 10
-104.3429
 20
-139.6384
 30
0.0
 10
-104.3429
 20
-139.6384
 30
0.0
 10
-103.9687
 20
-140.344
 30
0.0
 10
-103.9687
 20
-140.344
 30
0.0
 10
-103.9687
 20
-140.344
 30
0.0
 10
-103.9687
 20
-140.344
 30
0.0
 10
-103.9687
 20
-139.6384
 30
0.0
 10
-103.9687
 20
-139.6384
 30
0.0
 10
-103.9687
 20
-139.6384
 30
0.0
 10
-103.9687
 20
-139.6384
 30
0.0
 10
-103.7173
 20
-139.6384
 30
0.0
 10
-103.7173
 20
-139.6384
 30
0.0
 10
-103.7173
 20
-139.6384
 30
0.0
 10
-103.7173
 20
-139.6384
 30
0.0
 10
-103.7173
 20
-140.6671
 30
0.0
 10
-103.7173
 20
-140.6671
 30
0.0
 10
-103.7173
 20
-140.6671
 30
0.0
 10
-103.7173
 20
-140.6671
 30
0.0
 10
-104.0136
 20
-140.6671
 30
0.0
 10
-104.0136
 20
-140.6671
 30
0.0
 10
-104.0136
 20
-140.6671
 30
0.0
 10
-104.0136
 20
-140.6671
 30
0.0
 10
-104.3878
 20
-139.9615
 30
0.0
 10
-104.3878
 20
-139.9615
 30
0.0
 10
-104.3878
 20
-139.9615
 30
0.0
 10
-104.3878
 20
-139.9615
 30
0.0
 10
-104.3878
 20
-140.6671
 30
0.0
 10
-104.3878
 20
-140.6671
 30
0.0
 10
-104.3878
 20
-140.6671
 30
0.0
 10
-104.3878
 20
-140.6671
 30
0.0
 10
-104.6392
 20
-140.6671
 30
0.0
 10
-104.6392
 20
-140.6671
 30
0.0
 10
-104.6392
 20
-140.6671
 30
0.0
 10
-104.6392
 20
-140.6671
 30
0.0
 10
-104.6392
 20
-139.6384
 30
0.0
 10
-104.6392
 20
-139.6384
 30
0.0
  0
SPLINE
  5
77
330
1F
100
AcDbEntity
  8
LAYER_1
100
AcDbSpline
210
0.0
220
0.0
230
1.0
 70
    11
 71
     3
 72
    44
 73
    40
 74
     0
 42
0.0000000001
 43
0.0000000001
 40
0.0
 40
0.0
 40
0.0
 40
0.0
 40
0.1
 40
0.1
 40
0.1
 40
0.1
 40
0.2
 40
0.2
 40
0.2
 40
0.2
 40
0.3
 40
0.3
 40
0.3
 40
0.3
 40
0.4
 40
0.4
 40
0.4
 40
0.4
 40
0.5
 40
0.5
 40
0.5
 40
0.5
 40
0.6
 40
0.6
 40
0.6
 40
0.6
 40
0.7
 40
0.7
 40
0.7
 40
0.7
 40
0.7999999999999999
 40
0.7999999999999999
 40
0.7999999999999999
 40
0.7999999999999999
 40
0.8999999999999999
 40
0.8999999999999999
 40
0.8999999999999999
 40
0.8999999999999999
 40
1.0
 40
1.0
 40
1.0
 40
1.0
 10
-102.5646
 20
-140.8531
 30
0.0
 10
-102.5646
 20
-140.8531
 30
0.0
 10
-102.7692
 20
-140.8531
 30
0.0
 10
-102.7692
 20
-140.8531
 30
0.0
 10
-102.7692
 20
-140.8531
 30
0.0
 10
-102.8395
 20
-140.7398
 30
0.0
 10
-102.8915
 20
-140.6318
 30
0.0
 10
-102.9249
 20
-140.5295
 30
0.0
 10
-102.9249
 20
-140.5295
 30
0.0
 10
-102.9585
 20
-140.4274
 30
0.0
 10
-102.9752
 20
-140.3261
 30
0.0
 10
-102.9752
 20
-140.2254
 30
0.0
 10
-102.9752
 20
-140.2254
 30
0.0
 10
-102.9752
 20
-140.1248
 30
0.0
 10
-102.9583
 20
-140.0229
 30
0.0
 10
-102.9247
 20
-139.9199
 30
0.0
 10
-102.9247
 20
-139.9199
 30
0.0
 10
-102.8908
 20
-139.8167
 30
0.0
 10
-102.8391
 20
-139.709
 30
0.0
 10
-102.7692
 20
-139.5963
 30
0.0
 10
-102.7692
 20
-139.5963
 30
0.0
 10
-102.7692
 20
-139.5963
 30
0.0
 10
-102.5646
 20
-139.5963
 30
0.0
 10
-102.5646
 20
-139.5963
 30
0.0
 10
-102.5646
 20
-139.5963
 30
0.0
 10
-102.6234
 20
-139.7052
 30
0.0
 10
-102.6674
 20
-139.8117
 30
0.0
 10
-102.6968
 20
-139.9157
 30
0.0
 10
-102.6968
 20
-139.9157
 30
0.0
 10
-102.7262
 20
-140.0196
 30
0.0
 10
-102.741
 20
-140.1224
 30
0.0
 10
-102.741
 20
-140.224
 30
0.0
 10
-102.741
 20
-140.224
 30
0.0
 10
-102.741
 20
-140.3256
 30
0.0
 10
-102.7264
 20
-140.4284
 30
0.0
 10
-102.6973
 20
-140.5328
 30
0.0
 10
-102.6973
 20
-140.5328
 30
0.0
 10
-102.6681
 20
-140.637
 30
0.0
 10
-102.6239
 20
-140.7438
 30
0.0
 10
-102.5646
 20
-140.8531
 30
0.0
  0
SPLINE
  5
78
330
1F
100
AcDbEntity
  8
LAYER_1
100
AcDbSpline
210
0.0
220
0.0
230
1.0
 70
    11
 71
     3
 72
    36
 73
    32
 74
     0
 42
0.0000000001
 43
0.0000000001
 40
0.0
 40
0.0
 40
0.0
 40
0.0
 40
0.125
 40
0.125
 40
0.125
 40
0.125
 40
0.25
 40
0.25
 40
0.25
 40
0.25
 40
0.375
 40
0.375
 40
0.375
 40
0.375
 40
0.5
 40
0.5
 40
0.5
 40
0.5
 40
0.625
 40
0.625
 40
0.625
 40
0.625
 40
0.75
 40
0.75
 40
0.75
 40
0.75
 40
0.875
 40
0.875
 40
0.875
 40
0.875
 40
1.0
 40
1.0
 40
1.0
 40
1.0
 10
-102.4449
 20
-139.6384
 30
0.0
 10
-102.4449
 20
-139.6384
 30
0.0
 10
-101.4969
 20
-139.6384
 30
0.0
 10
-101.4969
 20
-139.6384
 30
0.0
 10
-101.4969
 20
-139.6384
 30
0.0
 10
-101.4969
 20
-139.6384
 30
0.0
 10
-101.4969
 20
-139.839
 30
0.0
 10
-101.4969
 20
-139.839
 30
0.0
 10
-101.4969
 20
-139.839
 30
0.0
 10
-101.4969
 20
-139.839
 30
0.0
 10
-101.8379
 20
-139.839
 30
0.0
 10
-101.8379
 20
-139.839
 30
0.0
 10
-101.8379
 20
-139.839
 30
0.0
 10
-101.8379
 20
-139.839
 30
0.0
 10
-101.8379
 20
-140.6671
 30
0.0
 10
-101.8379
 20
-140.6671
 30
0.0
 10
-101.8379
 20
-140.6671
 30
0.0
 10
-101.8379
 20
-140.6671
 30
0.0
 10
-102.1032
 20
-140.6671
 30
0.0
 10
-102.1032
 20
-140.6671
 30
0.0
 10
-102.1032
 20
-140.6671
 30
0.0
 10
-102.1032
 20
-140.6671
 30
0.0
 10
-102.1032
 20
-139.839
 30
0.0
 10
-102.1032
 20
-139.839
 30
0.0
 10
-102.1032
 20
-139.839
 30
0.0
 10
-102.1032
 20
-139.839
 30
0.0
 10
-102.4449
 20
-139.839
 30
0.0
 10
-102.4449
 20
-139.839
 30
0.0
 10
-102.4449
 20
-139.839
 30
0.0
 10
-102.4449
 20
-139.839
 30
0.0
 10
-102.4449
 20
-139.6384
 30
0.0
 10
-102.4449
 20
-139.6384
 30
0.0
  0
SPLINE
  5
79
330
1F
100
AcDbEntity
  8
LAYER_1
100
AcDbSpline
210
0.0
220
0.0
230
1.0
 70
    11
 71
     3
 72
    36
 73
    32
 74
     0
 42
0.0000000001
 43
0.0000000001
 40
0.0
 40
0.0
 40
0.0
 40
0.0
 40
0.125
 40
0.125
 40
0.125
 40
0.125
 40
0.25
 40
0.25
 40
0.25
 40
0.25
 40
0.375
 40
0.375
 40
0.375
 40
0.375
 40
0.5
 40
0.5
 40
0.5
 40
0.5
 40
0.625
 40
0.625
 40
0.625
 40
0.625
 40
0.75
 40
0.75
 40
0.75
 40
0.75
 40
0.875
 40
0.875
 40
0.875
 40
0.875
 40
1.0
 40
1.0
 40
1.0
 40
1.0
 10
-100.8449
 20
-140.4799
 30
0.0
 10
-100.8449
 20
-140.4799
 30
0.0
 10
-101.2598
 20
-140.4799
 30
0.0
 10
-101.2598
 20
-140.4799
 30
0.0
 10
-101.2598
 20
-140.4799
 30
0.0
 10
-101.2598
 20
-140.4799
 30
0.0
 10
-101.3252
 20
-140.6671
 30
0.0
 10
-101.3252
 20
-140.6671
 30
0.0
 10
-101.3252
 20
-140.6671
 30
0.0
 10
-101.3252
 20
-140.6671
 30
0.0
 10
-101.5919
 20
-140.6671
 30
0.0
 10
-101.5919
 20
-140.6671
 30
0.0
 10
-101.5919
 20
-140.6671
 30
0.0
 10
-101.5919
 20
-140.6671
 30
0.0
 10
-101.2109
 20
-139.6384
 30
0.0
 10
-101.2109
 20
-139.6384
 30
0.0
 10
-101.2109
 20
-139.6384
 30
0.0
 10
-101.2109
 20
-139.6384
 30
0.0
 10
-100.8946
 20
-139.6384
 30
0.0
 10
-100.8946
 20
-139.6384
 30
0.0
 10
-100.8946
 20
-139.6384
 30
0.0
 10
-100.8946
 20
-139.6384
 30
0.0
 10
-100.5136
 20
-140.6671
 30
0.0
 10
-100.5136
 20
-140.6671
 30
0.0
 10
-100.5136
 20
-140.6671
 30
0.0
 10
-100.5136
 20
-140.6671
 30
0.0
 10
-100.7803
 20
-140.6671
 30
0.0
 10
-100.7803
 20
-140.6671
 30
0.0
 10
-100.7803
 20
-140.6671
 30
0.0
 10
-100.7803
 20
-140.6671
 30
0.0
 10
-100.8449
 20
-140.4799
 30
0.0
 10
-100.8449
 20
-140.4799
 30
0.0
  0
SPLINE
  5
7A
330
1F
100
AcDbEntity
  8
LAYER_1
100
AcDbSpline
210
0.0
220
0.0
230
1.0
 70
    11
 71
     3
 72
    16
 73
    12
 74
     0
 42
0.0000000001
 43
0.0000000001
 40
0.0
 40
0.0
 40
0.0
 40
0.0
 40
0.3333333333333333
 40
0.3333333333333333
 40
0.3333333333333333
 40
0.3333333333333333
 40
0.6666666666666666
 40
0.6666666666666666
 40
0.6666666666666666
 40
0.6666666666666666
 40
1.0
 40
1.0
 40
1.0
 40
1.0
 10
-101.1937
 20
-140.2889
 30
0.0
 10
-101.1937
 20
-140.2889
 30
0.0
 10
-100.9117
 20
-140.2889
 30
0.0
 10
-100.9117
 20
-140.2889
 30
0.0
 10
-100.9117
 20
-140.2889
 30
0.0
 10
-100.9117
 20
-140.2889
 30
0.0
 10
-101.0524
 20
-139.8797
 30
0.0
 10
-101.0524
 20
-139.8797
 30
0.0
 10
-101.0524
 20
-139.8797
 30
0.0
 10
-101.0524
 20
-139.8797
 30
0.0
 10
-101.1937
 20
-140.2889
 30
0.0
 10
-101.1937
 20
-140.2889
 30
0.0
  0
SPLINE
  5
7B
330
1F
100
AcDbEntity
  8
LAYER_1
100
AcDbSpline
210
0.0
220
0.0
230
1.0
 70
    11
 71
     3
 72
    76
 73
    72
 74
     0
 42
0.0000000001
 43
0.0000000001
 40
0.0
 40
0.0
 40
0.0
 40
0.0
 40
0.0555555555555556
 40
0.0555555555555556
 40
0.0555555555555556
 40
0.0555555555555556
 40
0.1111111111111111
 40
0.1111111111111111
 40
0.1111111111111111
 40
0.1111111111111111
 40
0.1666666666666667
 40
0.1666666666666667
 40
0.1666666666666667
 40
0.1666666666666667
 40
0.2222222222222222
 40
0.2222222222222222
 40
0.2222222222222222
 40
0.2222222222222222
 40
0.2777777777777778
 40
0.2777777777777778
 40
0.2777777777777778
 40
0.2777777777777778
 40
0.3333333333333334
 40
0.3333333333333334
 40
0.3333333333333334
 40
0.3333333333333334
 40
0.388888888888889
 40
0.388888888888889
 40
0.388888888888889
 40
0.388888888888889
 40
0.4444444444444445
 40
0.4444444444444445
 40
0.4444444444444445
 40
0.4444444444444445
 40
0.5000000000000001
 40
0.5000000000000001
 40
0.5000000000000001
 40
0.5000000000000001
 40
0.5555555555555557
 40
0.5555555555555557
 40
0.5555555555555557
 40
0.5555555555555557
 40
0.6111111111111113
 40
0.6111111111111113
 40
0.6111111111111113
 40
0.6111111111111113
 40
0.6666666666666669
 40
0.6666666666666669
 40
0.6666666666666669
 40
0.6666666666666669
 40
0.7222222222222224
 40
0.7222222222222224
 40
0.7222222222222224
 40
0.7222222222222224
 40
0.777777777777778
 40
0.777777777777778
 40
0.777777777777778
 40
0.777777777777778
 40
0.8333333333333336
 40
0.8333333333333336
 40
0.8333333333333336
 40
0.8333333333333336
 40
0.8888888888888892
 40
0.8888888888888892
 40
0.8888888888888892
 40
0.8888888888888892
 40
0.9444444444444448
 40
0.9444444444444448
 40
0.9444444444444448
 40
0.9444444444444448
 40
1.0
 40
1.0
 40
1.0
 40
1.0
 10
-99.5611
 20
-140.6107
 30
0.0
 10
-99.6097
 20
-140.6358
 30
0.0
 10
-99.6605
 20
-140.6549
 30
0.0
 10
-99.7135
 20
-140.6678
 30
0.0
 10
-99.7135
 20
-140.6678
 30
0.0
 10
-99.7661
 20
-140.6807
 30
0.0
 10
-99.8214
 20
-140.6871
 30
0.0
 10
-99.8788
 20
-140.6871
 30
0.0
 10
-99.8788
 20
-140.6871
 30
0.0
 10
-100.05
 20
-140.6871
 30
0.0
 10
-100.1857
 20
-140.6391
 30
0.0
 10
-100.2859
 20
-140.5434
 30
0.0
 10
-100.2859
 20
-140.5434
 30
0.0
 10
-100.3861
 20
-140.4477
 30
0.0
 10
-100.4362
 20
-140.3179
 30
0.0
 10
-100.4362
 20
-140.1537
 30
0.0
 10
-100.4362
 20
-140.1537
 30
0.0
 10
-100.4362
 20
-139.9893
 30
0.0
 10
-100.3861
 20
-139.8592
 30
0.0
 10
-100.2859
 20
-139.7635
 30
0.0
 10
-100.2859
 20
-139.7635
 30
0.0
 10
-100.1857
 20
-139.6678
 30
0.0
 10
-100.05
 20
-139.6198
 30
0.0
 10
-99.8788
 20
-139.6198
 30
0.0
 10
-99.8788
 20
-139.6198
 30
0.0
 10
-99.8214
 20
-139.6198
 30
0.0
 10
-99.7661
 20
-139.6262
 30
0.0
 10
-99.7135
 20
-139.6391
 30
0.0
 10
-99.7135
 20
-139.6391
 30
0.0
 10
-99.6605
 20
-139.652
 30
0.0
 10
-99.6097
 20
-139.6711
 30
0.0
 10
-99.5611
 20
-139.6963
 30
0.0
 10
-99.5611
 20
-139.6963
 30
0.0
 10
-99.5611
 20
-139.6963
 30
0.0
 10
-99.5611
 20
-139.9091
 30
0.0
 10
-99.5611
 20
-139.9091
 30
0.0
 10
-99.5611
 20
-139.9091
 30
0.0
 10
-99.6102
 20
-139.8755
 30
0.0
 10
-99.6587
 20
-139.851
 30
0.0
 10
-99.7064
 20
-139.8355
 30
0.0
 10
-99.7064
 20
-139.8355
 30
0.0
 10
-99.7541
 20
-139.8197
 30
0.0
 10
-99.8045
 20
-139.812
 30
0.0
 10
-99.8574
 20
-139.812
 30
0.0
 10
-99.8574
 20
-139.812
 30
0.0
 10
-99.9519
 20
-139.812
 30
0.0
 10
-100.0265
 20
-139.8423
 30
0.0
 10
-100.0806
 20
-139.903
 30
0.0
 10
-100.0806
 20
-139.903
 30
0.0
 10
-100.1349
 20
-139.9637
 30
0.0
 10
-100.162
 20
-140.0472
 30
0.0
 10
-100.162
 20
-140.1537
 30
0.0
 10
-100.162
 20
-140.1537
 30
0.0
 10
-100.162
 20
-140.26
 30
0.0
 10
-100.1349
 20
-140.3433
 30
0.0
 10
-100.0806
 20
-140.4039
 30
0.0
 10
-100.0806
 20
-140.4039
 30
0.0
 10
-100.0265
 20
-140.4646
 30
0.0
 10
-99.9519
 20
-140.4949
 30
0.0
 10
-99.8574
 20
-140.4949
 30
0.0
 10
-99.8574
 20
-140.4949
 30
0.0
 10
-99.8045
 20
-140.4949
 30
0.0
 10
-99.7541
 20
-140.4872
 30
0.0
 10
-99.7064
 20
-140.4714
 30
0.0
 10
-99.7064
 20
-140.4714
 30
0.0
 10
-99.6587
 20
-140.4559
 30
0.0
 10
-99.6102
 20
-140.4314
 30
0.0
 10
-99.5611
 20
-140.3978
 30
0.0
 10
-99.5611
 20
-140.3978
 30
0.0
 10
-99.5611
 20
-140.3978
 30
0.0
 10
-99.5611
 20
-140.6107
 30
0.0
 10
-99.5611
 20
-140.6107
 30
0.0
  0
SPLINE
  5
7C
330
1F
100
AcDbEntity
  8
LAYER_1
100
AcDbSpline
210
0.0
220
0.0
230
1.0
 70
    11
 71
     3
 72
    36
 73
    32
 74
     0
 42
0.0000000001
 43
0.0000000001
 40
0.0
 40
0.0
 40
0.0
 40
0.0
 40
0.125
 40
0.125
 40
0.125
 40
0.125
 40
0.25
 40
0.25
 40
0.25
 40
0.25
 40
0.375
 40
0.375
 40
0.375
 40
0.375
 40
0.5
 40
0.5
 40
0.5
 40
0.5
 40
0.625
 40
0.625
 40
0.625
 40
0.625
 40
0.75
 40
0.75
 40
0.75
 40
0.75
 40
0.875
 40
0.875
 40
0.875
 40
0.875
 40
1.0
 40
1.0
 40
1.0
 40
1.0
 10
-99.4642
 20
-139.6384
 30
0.0
 10
-99.4642
 20
-139.6384
 30
0.0
 10
-98.5162
 20
-139.6384
 30
0.0
 10
-98.5162
 20
-139.6384
 30
0.0
 10
-98.5162
 20
-139.6384
 30
0.0
 10
-98.5162
 20
-139.6384
 30
0.0
 10
-98.5162
 20
-139.839
 30
0.0
 10
-98.5162
 20
-139.839
 30
0.0
 10
-98.5162
 20
-139.839
 30
0.0
 10
-98.5162
 20
-139.839
 30
0.0
 10
-98.8572
 20
-139.839
 30
0.0
 10
-98.8572
 20
-139.839
 30
0.0
 10
-98.8572
 20
-139.839
 30
0.0
 10
-98.8572
 20
-139.839
 30
0.0
 10
-98.8572
 20
-140.6671
 30
0.0
 10
-98.8572
 20
-140.6671
 30
0.0
 10
-98.8572
 20
-140.6671
 30
0.0
 10
-98.8572
 20
-140.6671
 30
0.0
 10
-99.1225
 20
-140.6671
 30
0.0
 10
-99.1225
 20
-140.6671
 30
0.0
 10
-99.1225
 20
-140.6671
 30
0.0
 10
-99.1225
 20
-140.6671
 30
0.0
 10
-99.1225
 20
-139.839
 30
0.0
 10
-99.1225
 20
-139.839
 30
0.0
 10
-99.1225
 20
-139.839
 30
0.0
 10
-99.1225
 20
-139.839
 30
0.0
 10
-99.4642
 20
-139.839
 30
0.0
 10
-99.4642
 20
-139.839
 30
0.0
 10
-99.4642
 20
-139.839
 30
0.0
 10
-99.4642
 20
-139.839
 30
0.0
 10
-99.4642
 20
-139.6384
 30
0.0
 10
-99.4642
 20
-139.6384
 30
0.0
  0
SPLINE
  5
7D
330
1F
100
AcDbEntity
  8
LAYER_1
100
AcDbSpline
210
0.0
220
0.0
230
1.0
 70
    11
 71
     3
 72
    20
 73
    16
 74
     0
 42
0.0000000001
 43
0.0000000001
 40
0.0
 40
0.0
 40
0.0
 40
0.0
 40
0.25
 40
0.25
 40
0.25
 40
0.25
 40
0.5
 40
0.5
 40
0.5
 40
0.5
 40
0.75
 40
0.75
 40
0.75
 40
0.75
 40
1.0
 40
1.0
 40
1.0
 40
1.0
 10
-98.3788
 20
-139.6384
 30
0.0
 10
-98.3788
 20
-139.6384
 30
0.0
 10
-98.1135
 20
-139.6384
 30
0.0
 10
-98.1135
 20
-139.6384
 30
0.0
 10
-98.1135
 20
-139.6384
 30
0.0
 10
-98.1135
 20
-139.6384
 30
0.0
 10
-98.1135
 20
-140.6671
 30
0.0
 10
-98.1135
 20
-140.6671
 30
0.0
 10
-98.1135
 20
-140.6671
 30
0.0
 10
-98.1135
 20
-140.6671
 30
0.0
 10
-98.3788
 20
-140.6671
 30
0.0
 10
-98.3788
 20
-140.6671
 30
0.0
 10
-98.3788
 20
-140.6671
 30
0.0
 10
-98.3788
 20
-140.6671
 30
0.0
 10
-98.3788
 20
-139.6384
 30
0.0
 10
-98.3788
 20
-139.6384
 30
0.0
  0
SPLINE
  5
7E
330
1F
100
AcDbEntity
  8
LAYER_1
100
AcDbSpline
210
0.0
220
0.0
230
1.0
 70
    11
 71
     3
 72
    28
 73
    24
 74
     0
 42
0.0000000001
 43
0.0000000001
 40
0.0
 40
0.0
 40
0.0
 40
0.0
 40
0.1666666666666667
 40
0.1666666666666667
 40
0.1666666666666667
 40
0.1666666666666667
 40
0.3333333333333333
 40
0.3333333333333333
 40
0.3333333333333333
 40
0.3333333333333333
 40
0.5
 40
0.5
 40
0.5
 40
0.5
 40
0.6666666666666666
 40
0.6666666666666666
 40
0.6666666666666666
 40
0.6666666666666666
 40
0.8333333333333333
 40
0.8333333333333333
 40
0.8333333333333333
 40
0.8333333333333333
 40
1.0
 40
1.0
 40
1.0
 40
1.0
 10
-97.8539
 20
-139.6384
 30
0.0
 10
-97.8539
 20
-139.6384
 30
0.0
 10
-97.5886
 20
-139.6384
 30
0.0
 10
-97.5886
 20
-139.6384
 30
0.0
 10
-97.5886
 20
-139.6384
 30
0.0
 10
-97.5886
 20
-139.6384
 30
0.0
 10
-97.5886
 20
-140.4665
 30
0.0
 10
-97.5886
 20
-140.4665
 30
0.0
 10
-97.5886
 20
-140.4665
 30
0.0
 10
-97.5886
 20
-140.4665
 30
0.0
 10
-97.123
 20
-140.4665
 30
0.0
 10
-97.123
 20
-140.4665
 30
0.0
 10
-97.123
 20
-140.4665
 30
0.0
 10
-97.123
 20
-140.4665
 30
0.0
 10
-97.123
 20
-140.6671
 30
0.0
 10
-97.123
 20
-140.6671
 30
0.0
 10
-97.123
 20
-140.6671
 30
0.0
 10
-97.123
 20
-140.6671
 30
0.0
 10
-97.8539
 20
-140.6671
 30
0.0
 10
-97.8539
 20
-140.6671
 30
0.0
 10
-97.8539
 20
-140.6671
 30
0.0
 10
-97.8539
 20
-140.6671
 30
0.0
 10
-97.8539
 20
-139.6384
 30
0.0
 10
-97.8539
 20
-139.6384
 30
0.0
  0
SPLINE
  5
7F
330
1F
100
AcDbEntity
  8
LAYER_1
100
AcDbSpline
210
0.0
220
0.0
230
1.0
 70
    11
 71
     3
 72
    52
 73
    48
 74
     0
 42
0.0000000001
 43
0.0000000001
 40
0.0
 40
0.0
 40
0.0
 40
0.0
 40
0.0833333333333333
 40
0.0833333333333333
 40
0.0833333333333333
 40
0.0833333333333333
 40
0.1666666666666667
 40
0.1666666666666667
 40
0.1666666666666667
 40
0.1666666666666667
 40
0.25
 40
0.25
 40
0.25
 40
0.25
 40
0.3333333333333333
 40
0.3333333333333333
 40
0.3333333333333333
 40
0.3333333333333333
 40
0.4166666666666666
 40
0.4166666666666666
 40
0.4166666666666666
 40
0.4166666666666666
 40
0.4999999999999999
 40
0.4999999999999999
 40
0.4999999999999999
 40
0.4999999999999999
 40
0.5833333333333333
 40
0.5833333333333333
 40
0.5833333333333333
 40
0.5833333333333333
 40
0.6666666666666666
 40
0.6666666666666666
 40
0.6666666666666666
 40
0.6666666666666666
 40
0.75
 40
0.75
 40
0.75
 40
0.75
 40
0.8333333333333334
 40
0.8333333333333334
 40
0.8333333333333334
 40
0.8333333333333334
 40
0.9166666666666667
 40
0.9166666666666667
 40
0.9166666666666667
 40
0.9166666666666667
 40
1.0
 40
1.0
 40
1.0
 40
1.0
 10
-96.9548
 20
-139.6384
 30
0.0
 10
-96.9548
 20
-139.6384
 30
0.0
 10
-96.2389
 20
-139.6384
 30
0.0
 10
-96.2389
 20
-139.6384
 30
0.0
 10
-96.2389
 20
-139.6384
 30
0.0
 10
-96.2389
 20
-139.6384
 30
0.0
 10
-96.2389
 20
-139.839
 30
0.0
 10
-96.2389
 20
-139.839
 30
0.0
 10
-96.2389
 20
-139.839
 30
0.0
 10
-96.2389
 20
-139.839
 30
0.0
 10
-96.6895
 20
-139.839
 30
0.0
 10
-96.6895
 20
-139.839
 30
0.0
 10
-96.6895
 20
-139.839
 30
0.0
 10
-96.6895
 20
-139.839
 30
0.0
 10
-96.6895
 20
-140.0305
 30
0.0
 10
-96.6895
 20
-140.0305
 30
0.0
 10
-96.6895
 20
-140.0305
 30
0.0
 10
-96.6895
 20
-140.0305
 30
0.0
 10
-96.266
 20
-140.0305
 30
0.0
 10
-96.266
 20
-140.0305
 30
0.0
 10
-96.266
 20
-140.0305
 30
0.0
 10
-96.266
 20
-140.0305
 30
0.0
 10
-96.266
 20
-140.2311
 30
0.0
 10
-96.266
 20
-140.2311
 30
0.0
 10
-96.266
 20
-140.2311
 30
0.0
 10
-96.266
 20
-140.2311
 30
0.0
 10
-96.6895
 20
-140.2311
 30
0.0
 10
-96.6895
 20
-140.2311
 30
0.0
 10
-96.6895
 20
-140.2311
 30
0.0
 10
-96.6895
 20
-140.2311
 30
0.0
 10
-96.6895
 20
-140.4665
 30
0.0
 10
-96.6895
 20
-140.4665
 30
0.0
 10
-96.6895
 20
-140.4665
 30
0.0
 10
-96.6895
 20
-140.4665
 30
0.0
 10
-96.2239
 20
-140.4665
 30
0.0
 10
-96.2239
 20
-140.4665
 30
0.0
 10
-96.2239
 20
-140.4665
 30
0.0
 10
-96.2239
 20
-140.4665
 30
0.0
 10
-96.2239
 20
-140.6671
 30
0.0
 10
-96.2239
 20
-140.6671
 30
0.0
 10
-96.2239
 20
-140.6671
 30
0.0
 10
-96.2239
 20
-140.6671
 30
0.0
 10
-96.9548
 20
-140.6671
 30
0.0
 10
-96.9548
 20
-140.6671
 30
0.0
 10
-96.9548
 20
-140.6671
 30
0.0
 10
-96.9548
 20
-140.6671
 30
0.0
 10
-96.9548
 20
-139.6384
 30
0.0
 10
-96.9548
 20
-139.6384
 30
0.0
  0
SPLINE
  5
80
330
1F
100
AcDbEntity
  8
LAYER_1
100
AcDbSpline
210
0.0
220
0.0
230
1.0
 70
    11
 71
     3
 72
    44
 73
    40
 74
     0
 42
0.0000000001
 43
0.0000000001
 40
0.0
 40
0.0
 40
0.0
 40
0.0
 40
0.1
 40
0.1
 40
0.1
 40
0.1
 40
0.2
 40
0.2
 40
0.2
 40
0.2
 40
0.3
 40
0.3
 40
0.3
 40
0.3
 40
0.4
 40
0.4
 40
0.4
 40
0.4
 40
0.5
 40
0.5
 40
0.5
 40
0.5
 40
0.6
 40
0.6
 40
0.6
 40
0.6
 40
0.7
 40
0.7
 40
0.7
 40
0.7
 40
0.7999999999999999
 40
0.7999999999999999
 40
0.7999999999999999
 40
0.7999999999999999
 40
0.8999999999999999
 40
0.8999999999999999
 40
0.8999999999999999
 40
0.8999999999999999
 40
1.0
 40
1.0
 40
1.0
 40
1.0
 10
-96.0075
 20
-140.8531
 30
0.0
 10
-95.9487
 20
-140.7438
 30
0.0
 10
-95.9045
 20
-140.637
 30
0.0
 10
-95.8751
 20
-140.5328
 30
0.0
 10
-95.8751
 20
-140.5328
 30
0.0
 10
-95.8457
 20
-140.4284
 30
0.0
 10
-95.8311
 20
-140.3256
 30
0.0
 10
-95.8311
 20
-140.224
 30
0.0
 10
-95.8311
 20
-140.224
 30
0.0
 10
-95.8311
 20
-140.1224
 30
0.0
 10
-95.8457
 20
-140.0196
 30
0.0
 10
-95.8751
 20
-139.9157
 30
0.0
 10
-95.8751
 20
-139.9157
 30
0.0
 10
-95.9045
 20
-139.8117
 30
0.0
 10
-95.9487
 20
-139.7052
 30
0.0
 10
-96.0075
 20
-139.5963
 30
0.0
 10
-96.0075
 20
-139.5963
 30
0.0
 10
-96.0075
 20
-139.5963
 30
0.0
 10
-95.8029
 20
-139.5963
 30
0.0
 10
-95.8029
 20
-139.5963
 30
0.0
 10
-95.8029
 20
-139.5963
 30
0.0
 10
-95.7331
 20
-139.709
 30
0.0
 10
-95.6813
 20
-139.8167
 30
0.0
 10
-95.6474
 20
-139.9199
 30
0.0
 10
-95.6474
 20
-139.9199
 30
0.0
 10
-95.6138
 20
-140.0229
 30
0.0
 10
-95.5969
 20
-140.1248
 30
0.0
 10
-95.5969
 20
-140.2254
 30
0.0
 10
-95.5969
 20
-140.2254
 30
0.0
 10
-95.5969
 20
-140.3261
 30
0.0
 10
-95.6136
 20
-140.4274
 30
0.0
 10
-95.6472
 20
-140.5295
 30
0.0
 10
-95.6472
 20
-140.5295
 30
0.0
 10
-95.6806
 20
-140.6318
 30
0.0
 10
-95.7326
 20
-140.7398
 30
0.0
 10
-95.8029
 20
-140.8531
 30
0.0
 10
-95.8029
 20
-140.8531
 30
0.0
 10
-95.8029
 20
-140.8531
 30
0.0
 10
-96.0075
 20
-140.8531
 30
0.0
 10
-96.0075
 20
-140.8531
 30
0.0
  0
SPLINE
  5
81
330
1F
100
AcDbEntity
  8
LAYER_1
100
AcDbSpline
210
0.0
220
0.0
230
1.0
 70
    11
 71
     3
 72
    36
 73
    32
 74
     0
 42
0.0000000001
 43
0.0000000001
 40
0.0
 40
0.0
 40
0.0
 40
0.0
 40
0.125
 40
0.125
 40
0.125
 40
0.125
 40
0.25
 40
0.25
 40
0.25
 40
0.25
 40
0.375
 40
0.375
 40
0.375
 40
0.375
 40
0.5
 40
0.5
 40
0.5
 40
0.5
 40
0.625
 40
0.625
 40
0.625
 40
0.625
 40
0.75
 40
0.75
 40
0.75
 40
0.75
 40
0.875
 40
0.875
 40
0.875
 40
0.875
 40
1.0
 40
1.0
 40
1.0
 40
1.0
 10
-107.6772
 20
-155.8523
 30
0.0
 10
-107.7229
 20
-155.8523
 30
0.0
 10
-107.7574
 20
-155.87
 30
0.0
 10
-107.7809
 20
-155.9055
 30
0.0
 10
-107.7809
 20
-155.9055
 30
0.0
 10
-107.8044
 20
-155.941
 30
0.0
 10
-107.8161
 20
-155.9937
 30
0.0
 10
-107.8161
 20
-156.0632
 30
0.0
 10
-107.8161
 20
-156.0632
 30
0.0
 10
-107.8161
 20
-156.1325
 30
0.0
 10
-107.8044
 20
-156.185
 30
0.0
 10
-107.7809
 20
-156.2207
 30
0.0
 10
-107.7809
 20
-156.2207
 30
0.0
 10
-107.7574
 20
-156.2564
 30
0.0
 10
-107.7229
 20
-156.2742
 30
0.0
 10
-107.6772
 20
-156.2742
 30
0.0
 10
-107.6772
 20
-156.2742
 30
0.0
 10
-107.6314
 20
-156.2742
 30
0.0
 10
-107.5967
 20
-156.2564
 30
0.0
 10
-107.5732
 20
-156.2207
 30
0.0
 10
-107.5732
 20
-156.2207
 30
0.0
 10
-107.5497
 20
-156.185
 30
0.0
 10
-107.5381
 20
-156.1325
 30
0.0
 10
-107.5381
 20
-156.0632
 30
0.0
 10
-107.5381
 20
-156.0632
 30
0.0
 10
-107.5381
 20
-155.9937
 30
0.0
 10
-107.5497
 20
-155.941
 30
0.0
 10
-107.5732
 20
-155.9055
 30
0.0
 10
-107.5732
 20
-155.9055
 30
0.0
 10
-107.5967
 20
-155.87
 30
0.0
 10
-107.6314
 20
-155.8523
 30
0.0
 10
-107.6772
 20
-155.8523
 30
0.0
  0
SPLINE
  5
82
330
1F
100
AcDbEntity
  8
LAYER_1
100
AcDbSpline
210
0.0
220
0.0
230
1.0
 70
    11
 71
     3
 72
    36
 73
    32
 74
     0
 42
0.0000000001
 43
0.0000000001
 40
0.0
 40
0.0
 40
0.0
 40
0.0
 40
0.125
 40
0.125
 40
0.125
 40
0.125
 40
0.25
 40
0.25
 40
0.25
 40
0.25
 40
0.375
 40
0.375
 40
0.375
 40
0.375
 40
0.5
 40
0.5
 40
0.5
 40
0.5
 40
0.625
 40
0.625
 40
0.625
 40
0.625
 40
0.75
 40
0.75
 40
0.75
 40
0.75
 40
0.875
 40
0.875
 40
0.875
 40
0.875
 40
1.0
 40
1.0
 40
1.0
 40
1.0
 10
-107.6772
 20
-155.7761
 30
0.0
 10
-107.6014
 20
-155.7761
 30
0.0
 10
-107.5434
 20
-155.8006
 30
0.0
 10
-107.5032
 20
-155.8498
 30
0.0
 10
-107.5032
 20
-155.8498
 30
0.0
 10
-107.463
 20
-155.899
 30
0.0
 10
-107.4429
 20
-155.9702
 30
0.0
 10
-107.4429
 20
-156.0632
 30
0.0
 10
-107.4429
 20
-156.0632
 30
0.0
 10
-107.4429
 20
-156.1567
 30
0.0
 10
-107.4629
 20
-156.2279
 30
0.0
 10
-107.5029
 20
-156.2769
 30
0.0
 10
-107.5029
 20
-156.2769
 30
0.0
 10
-107.5431
 20
-156.3259
 30
0.0
 10
-107.6011
 20
-156.3504
 30
0.0
 10
-107.6772
 20
-156.3504
 30
0.0
 10
-107.6772
 20
-156.3504
 30
0.0
 10
-107.7532
 20
-156.3504
 30
0.0
 10
-107.8111
 20
-156.3259
 30
0.0
 10
-107.8513
 20
-156.2769
 30
0.0
 10
-107.8513
 20
-156.2769
 30
0.0
 10
-107.8913
 20
-156.2279
 30
0.0
 10
-107.9113
 20
-156.1567
 30
0.0
 10
-107.9113
 20
-156.0632
 30
0.0
 10
-107.9113
 20
-156.0632
 30
0.0
 10
-107.9113
 20
-155.9702
 30
0.0
 10
-107.8913
 20
-155.899
 30
0.0
 10
-107.8513
 20
-155.8498
 30
0.0
 10
-107.8513
 20
-155.8498
 30
0.0
 10
-107.8111
 20
-155.8006
 30
0.0
 10
-107.7532
 20
-155.7761
 30
0.0
 10
-107.6772
 20
-155.7761
 30
0.0
  0
SPLINE
  5
83
330
1F
100
AcDbEntity
  8
LAYER_1
100
AcDbSpline
210
0.0
220
0.0
230
1.0
 70
    11
 71
     3
 72
    36
 73
    32
 74
     0
 42
0.0000000001
 43
0.0000000001
 40
0.0
 40
0.0
 40
0.0
 40
0.0
 40
0.125
 40
0.125
 40
0.125
 40
0.125
 40
0.25
 40
0.25
 40
0.25
 40
0.25
 40
0.375
 40
0.375
 40
0.375
 40
0.375
 40
0.5
 40
0.5
 40
0.5
 40
0.5
 40
0.625
 40
0.625
 40
0.625
 40
0.625
 40
0.75
 40
0.75
 40
0.75
 40
0.75
 40
0.875
 40
0.875
 40
0.875
 40
0.875
 40
1.0
 40
1.0
 40
1.0
 40
1.0
 10
-107.0751
 20
-155.8523
 30
0.0
 10
-107.1208
 20
-155.8523
 30
0.0
 10
-107.1553
 20
-155.87
 30
0.0
 10
-107.1788
 20
-155.9055
 30
0.0
 10
-107.1788
 20
-155.9055
 30
0.0
 10
-107.2023
 20
-155.941
 30
0.0
 10
-107.214
 20
-155.9937
 30
0.0
 10
-107.214
 20
-156.0632
 30
0.0
 10
-107.214
 20
-156.0632
 30
0.0
 10
-107.214
 20
-156.1325
 30
0.0
 10
-107.2023
 20
-156.185
 30
0.0
 10
-107.1788
 20
-156.2207
 30
0.0
 10
-107.1788
 20
-156.2207
 30
0.0
 10
-107.1553
 20
-156.2564
 30
0.0
 10
-107.1208
 20
-156.2742
 30
0.0
 10
-107.0751
 20
-156.2742
 30
0.0
 10
-107.0751
 20
-156.2742
 30
0.0
 10
-107.0293
 20
-156.2742
 30
0.0
 10
-106.9946
 20
-156.2564
 30
0.0
 10
-106.9711
 20
-156.2207
 30
0.0
 10
-106.9711
 20
-156.2207
 30
0.0
 10
-106.9476
 20
-156.185
 30
0.0
 10
-106.936
 20
-156.1325
 30
0.0
 10
-106.936
 20
-156.0632
 30
0.0
 10
-106.936
 20
-156.0632
 30
0.0
 10
-106.936
 20
-155.9937
 30
0.0
 10
-106.9476
 20
-155.941
 30
0.0
 10
-106.9711
 20
-155.9055
 30
0.0
 10
-106.9711
 20
-155.9055
 30
0.0
 10
-106.9946
 20
-155.87
 30
0.0
 10
-107.0293
 20
-155.8523
 30
0.0
 10
-107.0751
 20
-155.8523
 30
0.0
  0
SPLINE
  5
84
330
1F
100
AcDbEntity
  8
LAYER_1
100
AcDbSpline
210
0.0
220
0.0
230
1.0
 70
    11
 71
     3
 72
    36
 73
    32
 74
     0
 42
0.0000000001
 43
0.0000000001
 40
0.0
 40
0.0
 40
0.0
 40
0.0
 40
0.125
 40
0.125
 40
0.125
 40
0.125
 40
0.25
 40
0.25
 40
0.25
 40
0.25
 40
0.375
 40
0.375
 40
0.375
 40
0.375
 40
0.5
 40
0.5
 40
0.5
 40
0.5
 40
0.625
 40
0.625
 40
0.625
 40
0.625
 40
0.75
 40
0.75
 40
0.75
 40
0.75
 40
0.875
 40
0.875
 40
0.875
 40
0.875
 40
1.0
 40
1.0
 40
1.0
 40
1.0
 10
-107.0751
 20
-155.7761
 30
0.0
 10
-106.9993
 20
-155.7761
 30
0.0
 10
-106.9413
 20
-155.8006
 30
0.0
 10
-106.9011
 20
-155.8498
 30
0.0
 10
-106.9011
 20
-155.8498
 30
0.0
 10
-106.8609
 20
-155.899
 30
0.0
 10
-106.8408
 20
-155.9702
 30
0.0
 10
-106.8408
 20
-156.0632
 30
0.0
 10
-106.8408
 20
-156.0632
 30
0.0
 10
-106.8408
 20
-156.1567
 30
0.0
 10
-106.8608
 20
-156.2279
 30
0.0
 10
-106.9008
 20
-156.2769
 30
0.0
 10
-106.9008
 20
-156.2769
 30
0.0
 10
-106.941
 20
-156.3259
 30
0.0
 10
-106.999
 20
-156.3504
 30
0.0
 10
-107.0751
 20
-156.3504
 30
0.0
 10
-107.0751
 20
-156.3504
 30
0.0
 10
-107.1511
 20
-156.3504
 30
0.0
 10
-107.209
 20
-156.3259
 30
0.0
 10
-107.2492
 20
-156.2769
 30
0.0
 10
-107.2492
 20
-156.2769
 30
0.0
 10
-107.2892
 20
-156.2279
 30
0.0
 10
-107.3092
 20
-156.1567
 30
0.0
 10
-107.3092
 20
-156.0632
 30
0.0
 10
-107.3092
 20
-156.0632
 30
0.0
 10
-107.3092
 20
-155.9702
 30
0.0
 10
-107.2892
 20
-155.899
 30
0.0
 10
-107.2492
 20
-155.8498
 30
0.0
 10
-107.2492
 20
-155.8498
 30
0.0
 10
-107.209
 20
-155.8006
 30
0.0
 10
-107.1511
 20
-155.7761
 30
0.0
 10
-107.0751
 20
-155.7761
 30
0.0
  0
SPLINE
  5
85
330
1F
100
AcDbEntity
  8
LAYER_1
100
AcDbSpline
210
0.0
220
0.0
230
1.0
 70
    11
 71
     3
 72
   112
 73
   108
 74
     0
 42
0.0000000001
 43
0.0000000001
 40
0.0
 40
0.0
 40
0.0
 40
0.0
 40
0.037037037037037
 40
0.037037037037037
 40
0.037037037037037
 40
0.037037037037037
 40
0.0740740740740741
 40
0.0740740740740741
 40
0.0740740740740741
 40
0.0740740740740741
 40
0.1111111111111111
 40
0.1111111111111111
 40
0.1111111111111111
 40
0.1111111111111111
 40
0.1481481481481481
 40
0.1481481481481481
 40
0.1481481481481481
 40
0.1481481481481481
 40
0.1851851851851852
 40
0.1851851851851852
 40
0.1851851851851852
 40
0.1851851851851852
 40
0.2222222222222222
 40
0.2222222222222222
 40
0.2222222222222222
 40
0.2222222222222222
 40
0.2592592592592592
 40
0.2592592592592592
 40
0.2592592592592592
 40
0.2592592592592592
 40
0.2962962962962963
 40
0.2962962962962963
 40
0.2962962962962963
 40
0.2962962962962963
 40
0.3333333333333333
 40
0.3333333333333333
 40
0.3333333333333333
 40
0.3333333333333333
 40
0.3703703703703703
 40
0.3703703703703703
 40
0.3703703703703703
 40
0.3703703703703703
 40
0.4074074074074074
 40
0.4074074074074074
 40
0.4074074074074074
 40
0.4074074074074074
 40
0.4444444444444444
 40
0.4444444444444444
 40
0.4444444444444444
 40
0.4444444444444444
 40
0.4814814814814815
 40
0.4814814814814815
 40
0.4814814814814815
 40
0.4814814814814815
 40
0.5185185185185185
 40
0.5185185185185185
 40
0.5185185185185185
 40
0.5185185185185185
 40
0.5555555555555556
 40
0.5555555555555556
 40
0.5555555555555556
 40
0.5555555555555556
 40
0.5925925925925926
 40
0.5925925925925926
 40
0.5925925925925926
 40
0.5925925925925926
 40
0.6296296296296295
 40
0.6296296296296295
 40
0.6296296296296295
 40
0.6296296296296295
 40
0.6666666666666665
 40
0.6666666666666665
 40
0.6666666666666665
 40
0.6666666666666665
 40
0.7037037037037035
 40
0.7037037037037035
 40
0.7037037037037035
 40
0.7037037037037035
 40
0.7407407407407405
 40
0.7407407407407405
 40
0.7407407407407405
 40
0.7407407407407405
 40
0.7777777777777775
 40
0.7777777777777775
 40
0.7777777777777775
 40
0.7777777777777775
 40
0.8148148148148144
 40
0.8148148148148144
 40
0.8148148148148144
 40
0.8148148148148144
 40
0.8518518518518514
 40
0.8518518518518514
 40
0.8518518518518514
 40
0.8518518518518514
 40
0.8888888888888884
 40
0.8888888888888884
 40
0.8888888888888884
 40
0.8888888888888884
 40
0.9259259259259254
 40
0.9259259259259254
 40
0.9259259259259254
 40
0.9259259259259254
 40
0.9629629629629624
 40
0.9629629629629624
 40
0.9629629629629624
 40
0.9629629629629624
 40
1.0
 40
1.0
 40
1.0
 40
1.0
 10
-106.4439
 20
-155.845
 30
0.0
 10
-106.4329
 20
-155.8215
 30
0.0
 10
-106.4187
 20
-155.8041
 30
0.0
 10
-106.4015
 20
-155.793
 30
0.0
 10
-106.4015
 20
-155.793
 30
0.0
 10
-106.3845
 20
-155.7818
 30
0.0
 10
-106.3639
 20
-155.7761
 30
0.0
 10
-106.3399
 20
-155.7761
 30
0.0
 10
-106.3399
 20
-155.7761
 30
0.0
 10
-106.2959
 20
-155.7761
 30
0.0
 10
-106.2648
 20
-155.7931
 30
0.0
 10
-106.2468
 20
-155.8271
 30
0.0
 10
-106.2468
 20
-155.8271
 30
0.0
 10
-106.2287
 20
-155.8612
 30
0.0
 10
-106.2197
 20
-155.9252
 30
0.0
 10
-106.2197
 20
-156.0193
 30
0.0
 10
-106.2197
 20
-156.0193
 30
0.0
 10
-106.2197
 20
-156.0193
 30
0.0
 10
-106.2197
 20
-156.3362
 30
0.0
 10
-106.2197
 20
-156.3362
 30
0.0
 10
-106.2197
 20
-156.3362
 30
0.0
 10
-106.2197
 20
-156.3362
 30
0.0
 10
-106.3017
 20
-156.3362
 30
0.0
 10
-106.3017
 20
-156.3362
 30
0.0
 10
-106.3017
 20
-156.3362
 30
0.0
 10
-106.3017
 20
-156.3362
 30
0.0
 10
-106.3017
 20
-156.0232
 30
0.0
 10
-106.3017
 20
-156.0232
 30
0.0
 10
-106.3017
 20
-156.0232
 30
0.0
 10
-106.3017
 20
-155.946
 30
0.0
 10
-106.306
 20
-155.8982
 30
0.0
 10
-106.3147
 20
-155.8793
 30
0.0
 10
-106.3147
 20
-155.8793
 30
0.0
 10
-106.3232
 20
-155.8607
 30
0.0
 10
-106.339
 20
-155.8513
 30
0.0
 10
-106.3619
 20
-155.8513
 30
0.0
 10
-106.3619
 20
-155.8513
 30
0.0
 10
-106.3879
 20
-155.8513
 30
0.0
 10
-106.4057
 20
-155.8613
 30
0.0
 10
-106.4154
 20
-155.8813
 30
0.0
 10
-106.4154
 20
-155.8813
 30
0.0
 10
-106.4249
 20
-155.9013
 30
0.0
 10
-106.4297
 20
-155.9487
 30
0.0
 10
-106.4297
 20
-156.0232
 30
0.0
 10
-106.4297
 20
-156.0232
 30
0.0
 10
-106.4297
 20
-156.0232
 30
0.0
 10
-106.4297
 20
-156.3362
 30
0.0
 10
-106.4297
 20
-156.3362
 30
0.0
 10
-106.4297
 20
-156.3362
 30
0.0
 10
-106.4297
 20
-156.3362
 30
0.0
 10
-106.5117
 20
-156.3362
 30
0.0
 10
-106.5117
 20
-156.3362
 30
0.0
 10
-106.5117
 20
-156.3362
 30
0.0
 10
-106.5117
 20
-156.3362
 30
0.0
 10
-106.5117
 20
-156.0232
 30
0.0
 10
-106.5117
 20
-156.0232
 30
0.0
 10
-106.5117
 20
-156.0232
 30
0.0
 10
-106.5117
 20
-155.945
 30
0.0
 10
-106.5164
 20
-155.8968
 30
0.0
 10
-106.5257
 20
-155.8787
 30
0.0
 10
-106.5257
 20
-155.8787
 30
0.0
 10
-106.5349
 20
-155.8605
 30
0.0
 10
-106.5515
 20
-155.8513
 30
0.0
 10
-106.5757
 20
-155.8513
 30
0.0
 10
-106.5757
 20
-155.8513
 30
0.0
 10
-106.5995
 20
-155.8513
 30
0.0
 10
-106.6161
 20
-155.8613
 30
0.0
 10
-106.6252
 20
-155.8813
 30
0.0
 10
-106.6252
 20
-155.8813
 30
0.0
 10
-106.6346
 20
-155.9013
 30
0.0
 10
-106.6392
 20
-155.9487
 30
0.0
 10
-106.6392
 20
-156.0232
 30
0.0
 10
-106.6392
 20
-156.0232
 30
0.0
 10
-106.6392
 20
-156.0232
 30
0.0
 10
-106.6392
 20
-156.3362
 30
0.0
 10
-106.6392
 20
-156.3362
 30
0.0
 10
-106.6392
 20
-156.3362
 30
0.0
 10
-106.6392
 20
-156.3362
 30
0.0
 10
-106.7207
 20
-156.3362
 30
0.0
 10
-106.7207
 20
-156.3362
 30
0.0
 10
-106.7207
 20
-156.3362
 30
0.0
 10
-106.7207
 20
-156.3362
 30
0.0
 10
-106.7207
 20
-155.7893
 30
0.0
 10
-106.7207
 20
-155.7893
 30
0.0
 10
-106.7207
 20
-155.7893
 30
0.0
 10
-106.7207
 20
-155.7893
 30
0.0
 10
-106.6392
 20
-155.7893
 30
0.0
 10
-106.6392
 20
-155.7893
 30
0.0
 10
-106.6392
 20
-155.7893
 30
0.0
 10
-106.6392
 20
-155.7893
 30
0.0
 10
-106.6392
 20
-155.8361
 30
0.0
 10
-106.6392
 20
-155.8361
 30
0.0
 10
-106.6392
 20
-155.8361
 30
0.0
 10
-106.6286
 20
-155.8166
 30
0.0
 10
-106.6151
 20
-155.8018
 30
0.0
 10
-106.5989
 20
-155.7915
 30
0.0
 10
-106.5989
 20
-155.7915
 30
0.0
 10
-106.5829
 20
-155.7813
 30
0.0
 10
-106.5645
 20
-155.7761
 30
0.0
 10
-106.544
 20
-155.7761
 30
0.0
 10
-106.544
 20
-155.7761
 30
0.0
 10
-106.5192
 20
-155.7761
 30
0.0
 10
-106.4987
 20
-155.7818
 30
0.0
 10
-106.4822
 20
-155.7931
 30
0.0
 10
-106.4822
 20
-155.7931
 30
0.0
 10
-106.4657
 20
-155.8046
 30
0.0
 10
-106.453
 20
-155.8218
 30
0.0
 10
-106.4439
 20
-155.845
 30
0.0
  0
SPLINE
  5
86
330
1F
100
AcDbEntity
  8
LAYER_1
100
AcDbSpline
210
0.0
220
0.0
230
1.0
 70
    11
 71
     3
 72
    20
 73
    16
 74
     0
 42
0.0000000001
 43
0.0000000001
 40
0.0
 40
0.0
 40
0.0
 40
0.0
 40
0.25
 40
0.25
 40
0.25
 40
0.25
 40
0.5
 40
0.5
 40
0.5
 40
0.5
 40
0.75
 40
0.75
 40
0.75
 40
0.75
 40
1.0
 40
1.0
 40
1.0
 40
1.0
 10
-105.9329
 20
-156.1872
 30
0.0
 10
-105.9329
 20
-156.1872
 30
0.0
 10
-105.8099
 20
-156.1872
 30
0.0
 10
-105.8099
 20
-156.1872
 30
0.0
 10
-105.8099
 20
-156.1872
 30
0.0
 10
-105.8099
 20
-156.1872
 30
0.0
 10
-105.8099
 20
-156.3362
 30
0.0
 10
-105.8099
 20
-156.3362
 30
0.0
 10
-105.8099
 20
-156.3362
 30
0.0
 10
-105.8099
 20
-156.3362
 30
0.0
 10
-105.9329
 20
-156.3362
 30
0.0
 10
-105.9329
 20
-156.3362
 30
0.0
 10
-105.9329
 20
-156.3362
 30
0.0
 10
-105.9329
 20
-156.3362
 30
0.0
 10
-105.9329
 20
-156.1872
 30
0.0
 10
-105.9329
 20
-156.1872
 30
0.0
  0
SPLINE
  5
87
330
1F
100
AcDbEntity
  8
LAYER_1
100
AcDbSpline
210
0.0
220
0.0
230
1.0
 70
    11
 71
     3
 72
    52
 73
    48
 74
     0
 42
0.0000000001
 43
0.0000000001
 40
0.0
 40
0.0
 40
0.0
 40
0.0
 40
0.0833333333333333
 40
0.0833333333333333
 40
0.0833333333333333
 40
0.0833333333333333
 40
0.1666666666666667
 40
0.1666666666666667
 40
0.1666666666666667
 40
0.1666666666666667
 40
0.25
 40
0.25
 40
0.25
 40
0.25
 40
0.3333333333333333
 40
0.3333333333333333
 40
0.3333333333333333
 40
0.3333333333333333
 40
0.4166666666666666
 40
0.4166666666666666
 40
0.4166666666666666
 40
0.4166666666666666
 40
0.4999999999999999
 40
0.4999999999999999
 40
0.4999999999999999
 40
0.4999999999999999
 40
0.5833333333333333
 40
0.5833333333333333
 40
0.5833333333333333
 40
0.5833333333333333
 40
0.6666666666666666
 40
0.6666666666666666
 40
0.6666666666666666
 40
0.6666666666666666
 40
0.75
 40
0.75
 40
0.75
 40
0.75
 40
0.8333333333333334
 40
0.8333333333333334
 40
0.8333333333333334
 40
0.8333333333333334
 40
0.9166666666666667
 40
0.9166666666666667
 40
0.9166666666666667
 40
0.9166666666666667
 40
1.0
 40
1.0
 40
1.0
 40
1.0
 10
-105.2577
 20
-156.138
 30
0.0
 10
-105.2577
 20
-156.1784
 30
0.0
 10
-105.2503
 20
-156.2087
 30
0.0
 10
-105.2355
 20
-156.2292
 30
0.0
 10
-105.2355
 20
-156.2292
 30
0.0
 10
-105.2207
 20
-156.2497
 30
0.0
 10
-105.1988
 20
-156.26
 30
0.0
 10
-105.1698
 20
-156.26
 30
0.0
 10
-105.1698
 20
-156.26
 30
0.0
 10
-105.1698
 20
-156.26
 30
0.0
 10
-105.0648
 20
-156.26
 30
0.0
 10
-105.0648
 20
-156.26
 30
0.0
 10
-105.0648
 20
-156.26
 30
0.0
 10
-105.0648
 20
-156.26
 30
0.0
 10
-105.0648
 20
-156.3362
 30
0.0
 10
-105.0648
 20
-156.3362
 30
0.0
 10
-105.0648
 20
-156.3362
 30
0.0
 10
-105.0648
 20
-156.3362
 30
0.0
 10
-105.1785
 20
-156.3362
 30
0.0
 10
-105.1785
 20
-156.3362
 30
0.0
 10
-105.1785
 20
-156.3362
 30
0.0
 10
-105.2323
 20
-156.3362
 30
0.0
 10
-105.2738
 20
-156.3189
 30
0.0
 10
-105.3033
 20
-156.2844
 30
0.0
 10
-105.3033
 20
-156.2844
 30
0.0
 10
-105.3328
 20
-156.2499
 30
0.0
 10
-105.3475
 20
-156.201
 30
0.0
 10
-105.3475
 20
-156.138
 30
0.0
 10
-105.3475
 20
-156.138
 30
0.0
 10
-105.3475
 20
-156.138
 30
0.0
 10
-105.3475
 20
-155.6413
 30
0.0
 10
-105.3475
 20
-155.6413
 30
0.0
 10
-105.3475
 20
-155.6413
 30
0.0
 10
-105.3475
 20
-155.6413
 30
0.0
 10
-105.4915
 20
-155.6413
 30
0.0
 10
-105.4915
 20
-155.6413
 30
0.0
 10
-105.4915
 20
-155.6413
 30
0.0
 10
-105.4915
 20
-155.6413
 30
0.0
 10
-105.4915
 20
-155.571
 30
0.0
 10
-105.4915
 20
-155.571
 30
0.0
 10
-105.4915
 20
-155.571
 30
0.0
 10
-105.4915
 20
-155.571
 30
0.0
 10
-105.2577
 20
-155.571
 30
0.0
 10
-105.2577
 20
-155.571
 30
0.0
 10
-105.2577
 20
-155.571
 30
0.0
 10
-105.2577
 20
-155.571
 30
0.0
 10
-105.2577
 20
-156.138
 30
0.0
 10
-105.2577
 20
-156.138
 30
0.0
  0
SPLINE
  5
88
330
1F
100
AcDbEntity
  8
LAYER_1
100
AcDbSpline
210
0.0
220
0.0
230
1.0
 70
    11
 71
     3
 72
    76
 73
    72
 74
     0
 42
0.0000000001
 43
0.0000000001
 40
0.0
 40
0.0
 40
0.0
 40
0.0
 40
0.0555555555555556
 40
0.0555555555555556
 40
0.0555555555555556
 40
0.0555555555555556
 40
0.1111111111111111
 40
0.1111111111111111
 40
0.1111111111111111
 40
0.1111111111111111
 40
0.1666666666666667
 40
0.1666666666666667
 40
0.1666666666666667
 40
0.1666666666666667
 40
0.2222222222222222
 40
0.2222222222222222
 40
0.2222222222222222
 40
0.2222222222222222
 40
0.2777777777777778
 40
0.2777777777777778
 40
0.2777777777777778
 40
0.2777777777777778
 40
0.3333333333333334
 40
0.3333333333333334
 40
0.3333333333333334
 40
0.3333333333333334
 40
0.388888888888889
 40
0.388888888888889
 40
0.388888888888889
 40
0.388888888888889
 40
0.4444444444444445
 40
0.4444444444444445
 40
0.4444444444444445
 40
0.4444444444444445
 40
0.5000000000000001
 40
0.5000000000000001
 40
0.5000000000000001
 40
0.5000000000000001
 40
0.5555555555555557
 40
0.5555555555555557
 40
0.5555555555555557
 40
0.5555555555555557
 40
0.6111111111111113
 40
0.6111111111111113
 40
0.6111111111111113
 40
0.6111111111111113
 40
0.6666666666666669
 40
0.6666666666666669
 40
0.6666666666666669
 40
0.6666666666666669
 40
0.7222222222222224
 40
0.7222222222222224
 40
0.7222222222222224
 40
0.7222222222222224
 40
0.777777777777778
 40
0.777777777777778
 40
0.777777777777778
 40
0.777777777777778
 40
0.8333333333333336
 40
0.8333333333333336
 40
0.8333333333333336
 40
0.8333333333333336
 40
0.8888888888888892
 40
0.8888888888888892
 40
0.8888888888888892
 40
0.8888888888888892
 40
0.9444444444444448
 40
0.9444444444444448
 40
0.9444444444444448
 40
0.9444444444444448
 40
1.0
 40
1.0
 40
1.0
 40
1.0
 10
-104.6677
 20
-155.634
 30
0.0
 10
-104.6677
 20
-155.634
 30
0.0
 10
-104.6677
 20
-155.7893
 30
0.0
 10
-104.6677
 20
-155.7893
 30
0.0
 10
-104.6677
 20
-155.7893
 30
0.0
 10
-104.6677
 20
-155.7893
 30
0.0
 10
-104.4635
 20
-155.7893
 30
0.0
 10
-104.4635
 20
-155.7893
 30
0.0
 10
-104.4635
 20
-155.7893
 30
0.0
 10
-104.4635
 20
-155.7893
 30
0.0
 10
-104.4635
 20
-155.8592
 30
0.0
 10
-104.4635
 20
-155.8592
 30
0.0
 10
-104.4635
 20
-155.8592
 30
0.0
 10
-104.4635
 20
-155.8592
 30
0.0
 10
-104.6677
 20
-155.8592
 30
0.0
 10
-104.6677
 20
-155.8592
 30
0.0
 10
-104.6677
 20
-155.8592
 30
0.0
 10
-104.6677
 20
-155.8592
 30
0.0
 10
-104.6677
 20
-156.156
 30
0.0
 10
-104.6677
 20
-156.156
 30
0.0
 10
-104.6677
 20
-156.156
 30
0.0
 10
-104.6677
 20
-156.1964
 30
0.0
 10
-104.6601
 20
-156.2245
 30
0.0
 10
-104.6447
 20
-156.2404
 30
0.0
 10
-104.6447
 20
-156.2404
 30
0.0
 10
-104.6294
 20
-156.2564
 30
0.0
 10
-104.6027
 20
-156.2644
 30
0.0
 10
-104.5647
 20
-156.2644
 30
0.0
 10
-104.5647
 20
-156.2644
 30
0.0
 10
-104.5647
 20
-156.2644
 30
0.0
 10
-104.4635
 20
-156.2644
 30
0.0
 10
-104.4635
 20
-156.2644
 30
0.0
 10
-104.4635
 20
-156.2644
 30
0.0
 10
-104.4635
 20
-156.2644
 30
0.0
 10
-104.4635
 20
-156.3362
 30
0.0
 10
-104.4635
 20
-156.3362
 30
0.0
 10
-104.4635
 20
-156.3362
 30
0.0
 10
-104.4635
 20
-156.3362
 30
0.0
 10
-104.5734
 20
-156.3362
 30
0.0
 10
-104.5734
 20
-156.3362
 30
0.0
 10
-104.5734
 20
-156.3362
 30
0.0
 10
-104.6409
 20
-156.3362
 30
0.0
 10
-104.6884
 20
-156.3227
 30
0.0
 10
-104.7161
 20
-156.2957
 30
0.0
 10
-104.7161
 20
-156.2957
 30
0.0
 10
-104.7437
 20
-156.2687
 30
0.0
 10
-104.7576
 20
-156.222
 30
0.0
 10
-104.7576
 20
-156.156
 30
0.0
 10
-104.7576
 20
-156.156
 30
0.0
 10
-104.7576
 20
-156.156
 30
0.0
 10
-104.7576
 20
-155.8592
 30
0.0
 10
-104.7576
 20
-155.8592
 30
0.0
 10
-104.7576
 20
-155.8592
 30
0.0
 10
-104.7576
 20
-155.8592
 30
0.0
 10
-104.9036
 20
-155.8592
 30
0.0
 10
-104.9036
 20
-155.8592
 30
0.0
 10
-104.9036
 20
-155.8592
 30
0.0
 10
-104.9036
 20
-155.8592
 30
0.0
 10
-104.9036
 20
-155.7893
 30
0.0
 10
-104.9036
 20
-155.7893
 30
0.0
 10
-104.9036
 20
-155.7893
 30
0.0
 10
-104.9036
 20
-155.7893
 30
0.0
 10
-104.7576
 20
-155.7893
 30
0.0
 10
-104.7576
 20
-155.7893
 30
0.0
 10
-104.7576
 20
-155.7893
 30
0.0
 10
-104.7576
 20
-155.7893
 30
0.0
 10
-104.7576
 20
-155.634
 30
0.0
 10
-104.7576
 20
-155.634
 30
0.0
 10
-104.7576
 20
-155.634
 30
0.0
 10
-104.7576
 20
-155.634
 30
0.0
 10
-104.6677
 20
-155.634
 30
0.0
 10
-104.6677
 20
-155.634
 30
0.0
  0
SPLINE
  5
89
330
1F
100
AcDbEntity
  8
LAYER_1
100
AcDbSpline
210
0.0
220
0.0
230
1.0
 70
    11
 71
     3
 72
    20
 73
    16
 74
     0
 42
0.0000000001
 43
0.0000000001
 40
0.0
 40
0.0
 40
0.0
 40
0.0
 40
0.25
 40
0.25
 40
0.25
 40
0.25
 40
0.5
 40
0.5
 40
0.5
 40
0.5
 40
0.75
 40
0.75
 40
0.75
 40
0.75
 40
1.0
 40
1.0
 40
1.0
 40
1.0
 10
-103.9313
 20
-155.6071
 30
0.0
 10
-103.9313
 20
-155.6071
 30
0.0
 10
-103.8384
 20
-155.6071
 30
0.0
 10
-103.8384
 20
-155.6071
 30
0.0
 10
-103.8384
 20
-155.6071
 30
0.0
 10
-103.8384
 20
-155.6071
 30
0.0
 10
-104.2223
 20
-156.429
 30
0.0
 10
-104.2223
 20
-156.429
 30
0.0
 10
-104.2223
 20
-156.429
 30
0.0
 10
-104.2223
 20
-156.429
 30
0.0
 10
-104.3157
 20
-156.429
 30
0.0
 10
-104.3157
 20
-156.429
 30
0.0
 10
-104.3157
 20
-156.429
 30
0.0
 10
-104.3157
 20
-156.429
 30
0.0
 10
-103.9313
 20
-155.6071
 30
0.0
 10
-103.9313
 20
-155.6071
 30
0.0
  0
SPLINE
  5
8A
330
1F
100
AcDbEntity
  8
LAYER_1
100
AcDbSpline
210
0.0
220
0.0
230
1.0
 70
    11
 71
     3
 72
    32
 73
    28
 74
     0
 42
0.0000000001
 43
0.0000000001
 40
0.0
 40
0.0
 40
0.0
 40
0.0
 40
0.1428571428571428
 40
0.1428571428571428
 40
0.1428571428571428
 40
0.1428571428571428
 40
0.2857142857142857
 40
0.2857142857142857
 40
0.2857142857142857
 40
0.2857142857142857
 40
0.4285714285714285
 40
0.4285714285714285
 40
0.4285714285714285
 40
0.4285714285714285
 40
0.5714285714285714
 40
0.5714285714285714
 40
0.5714285714285714
 40
0.5714285714285714
 40
0.7142857142857142
 40
0.7142857142857142
 40
0.7142857142857142
 40
0.7142857142857142
 40
0.857142857142857
 40
0.857142857142857
 40
0.857142857142857
 40
0.857142857142857
 40
1.0
 40
1.0
 40
1.0
 40
1.0
 10
-103.5632
 20
-156.005
 30
0.0
 10
-103.5632
 20
-156.005
 30
0.0
 10
-103.5632
 20
-156.221
 30
0.0
 10
-103.5632
 20
-156.221
 30
0.0
 10
-103.5632
 20
-156.221
 30
0.0
 10
-103.5632
 20
-156.221
 30
0.0
 10
-103.4675
 20
-156.221
 30
0.0
 10
-103.4675
 20
-156.221
 30
0.0
 10
-103.4675
 20
-156.221
 30
0.0
 10
-103.4215
 20
-156.221
 30
0.0
 10
-103.3895
 20
-156.2132
 30
0.0
 10
-103.371
 20
-156.1975
 30
0.0
 10
-103.371
 20
-156.1975
 30
0.0
 10
-103.3527
 20
-156.1819
 30
0.0
 10
-103.3435
 20
-156.1547
 30
0.0
 10
-103.3435
 20
-156.116
 30
0.0
 10
-103.3435
 20
-156.116
 30
0.0
 10
-103.3435
 20
-156.0765
 30
0.0
 10
-103.3532
 20
-156.0482
 30
0.0
 10
-103.3724
 20
-156.0308
 30
0.0
 10
-103.3724
 20
-156.0308
 30
0.0
 10
-103.3915
 20
-156.0137
 30
0.0
 10
-103.4232
 20
-156.005
 30
0.0
 10
-103.4675
 20
-156.005
 30
0.0
 10
-103.4675
 20
-156.005
 30
0.0
 10
-103.4675
 20
-156.005
 30
0.0
 10
-103.5632
 20
-156.005
 30
0.0
 10
-103.5632
 20
-156.005
 30
0.0
  0
SPLINE
  5
8B
330
1F
100
AcDbEntity
  8
LAYER_1
100
AcDbSpline
210
0.0
220
0.0
230
1.0
 70
    11
 71
     3
 72
    32
 73
    28
 74
     0
 42
0.0000000001
 43
0.0000000001
 40
0.0
 40
0.0
 40
0.0
 40
0.0
 40
0.1428571428571428
 40
0.1428571428571428
 40
0.1428571428571428
 40
0.1428571428571428
 40
0.2857142857142857
 40
0.2857142857142857
 40
0.2857142857142857
 40
0.2857142857142857
 40
0.4285714285714285
 40
0.4285714285714285
 40
0.4285714285714285
 40
0.4285714285714285
 40
0.5714285714285714
 40
0.5714285714285714
 40
0.5714285714285714
 40
0.5714285714285714
 40
0.7142857142857142
 40
0.7142857142857142
 40
0.7142857142857142
 40
0.7142857142857142
 40
0.857142857142857
 40
0.857142857142857
 40
0.857142857142857
 40
0.857142857142857
 40
1.0
 40
1.0
 40
1.0
 40
1.0
 10
-103.5632
 20
-155.7208
 30
0.0
 10
-103.5632
 20
-155.7208
 30
0.0
 10
-103.5632
 20
-155.8903
 30
0.0
 10
-103.5632
 20
-155.8903
 30
0.0
 10
-103.5632
 20
-155.8903
 30
0.0
 10
-103.5632
 20
-155.8903
 30
0.0
 10
-103.4675
 20
-155.8903
 30
0.0
 10
-103.4675
 20
-155.8903
 30
0.0
 10
-103.4675
 20
-155.8903
 30
0.0
 10
-103.431
 20
-155.8903
 30
0.0
 10
-103.405
 20
-155.8838
 30
0.0
 10
-103.3895
 20
-155.8708
 30
0.0
 10
-103.3895
 20
-155.8708
 30
0.0
 10
-103.374
 20
-155.8578
 30
0.0
 10
-103.3664
 20
-155.8363
 30
0.0
 10
-103.3664
 20
-155.8063
 30
0.0
 10
-103.3664
 20
-155.8063
 30
0.0
 10
-103.3664
 20
-155.7763
 30
0.0
 10
-103.3742
 20
-155.7546
 30
0.0
 10
-103.39
 20
-155.7411
 30
0.0
 10
-103.39
 20
-155.7411
 30
0.0
 10
-103.4059
 20
-155.7276
 30
0.0
 10
-103.4317
 20
-155.7208
 30
0.0
 10
-103.4675
 20
-155.7208
 30
0.0
 10
-103.4675
 20
-155.7208
 30
0.0
 10
-103.4675
 20
-155.7208
 30
0.0
 10
-103.5632
 20
-155.7208
 30
0.0
 10
-103.5632
 20
-155.7208
 30
0.0
  0
SPLINE
  5
8C
330
1F
100
AcDbEntity
  8
LAYER_1
100
AcDbSpline
210
0.0
220
0.0
230
1.0
 70
    11
 71
     3
 72
    48
 73
    44
 74
     0
 42
0.0000000001
 43
0.0000000001
 40
0.0
 40
0.0
 40
0.0
 40
0.0
 40
0.0909090909090909
 40
0.0909090909090909
 40
0.0909090909090909
 40
0.0909090909090909
 40
0.1818181818181818
 40
0.1818181818181818
 40
0.1818181818181818
 40
0.1818181818181818
 40
0.2727272727272727
 40
0.2727272727272727
 40
0.2727272727272727
 40
0.2727272727272727
 40
0.3636363636363636
 40
0.3636363636363636
 40
0.3636363636363636
 40
0.3636363636363636
 40
0.4545454545454546
 40
0.4545454545454546
 40
0.4545454545454546
 40
0.4545454545454546
 40
0.5454545454545455
 40
0.5454545454545455
 40
0.5454545454545455
 40
0.5454545454545455
 40
0.6363636363636365
 40
0.6363636363636365
 40
0.6363636363636365
 40
0.6363636363636365
 40
0.7272727272727274
 40
0.7272727272727274
 40
0.7272727272727274
 40
0.7272727272727274
 40
0.8181818181818183
 40
0.8181818181818183
 40
0.8181818181818183
 40
0.8181818181818183
 40
0.9090909090909093
 40
0.9090909090909093
 40
0.9090909090909093
 40
0.9090909090909093
 40
1.0
 40
1.0
 40
1.0
 40
1.0
 10
-103.7024
 20
-155.6061
 30
0.0
 10
-103.7024
 20
-155.6061
 30
0.0
 10
-103.4675
 20
-155.6061
 30
0.0
 10
-103.4675
 20
-155.6061
 30
0.0
 10
-103.4675
 20
-155.6061
 30
0.0
 10
-103.3864
 20
-155.6061
 30
0.0
 10
-103.3255
 20
-155.6215
 30
0.0
 10
-103.2847
 20
-155.6523
 30
0.0
 10
-103.2847
 20
-155.6523
 30
0.0
 10
-103.2438
 20
-155.683
 30
0.0
 10
-103.2233
 20
-155.729
 30
0.0
 10
-103.2233
 20
-155.7901
 30
0.0
 10
-103.2233
 20
-155.7901
 30
0.0
 10
-103.2233
 20
-155.8372
 30
0.0
 10
-103.2353
 20
-155.8737
 30
0.0
 10
-103.2595
 20
-155.9
 30
0.0
 10
-103.2595
 20
-155.9
 30
0.0
 10
-103.2835
 20
-155.9265
 30
0.0
 10
-103.3189
 20
-155.9417
 30
0.0
 10
-103.3654
 20
-155.946
 30
0.0
 10
-103.3654
 20
-155.946
 30
0.0
 10
-103.3097
 20
-155.9515
 30
0.0
 10
-103.2679
 20
-155.9702
 30
0.0
 10
-103.2397
 20
-156.0022
 30
0.0
 10
-103.2397
 20
-156.0022
 30
0.0
 10
-103.2115
 20
-156.034
 30
0.0
 10
-103.1975
 20
-156.0787
 30
0.0
 10
-103.1975
 20
-156.136
 30
0.0
 10
-103.1975
 20
-156.136
 30
0.0
 10
-103.1975
 20
-156.2064
 30
0.0
 10
-103.2187
 20
-156.2572
 30
0.0
 10
-103.261
 20
-156.2889
 30
0.0
 10
-103.261
 20
-156.2889
 30
0.0
 10
-103.3034
 20
-156.3204
 30
0.0
 10
-103.3722
 20
-156.3362
 30
0.0
 10
-103.4675
 20
-156.3362
 30
0.0
 10
-103.4675
 20
-156.3362
 30
0.0
 10
-103.4675
 20
-156.3362
 30
0.0
 10
-103.7024
 20
-156.3362
 30
0.0
 10
-103.7024
 20
-156.3362
 30
0.0
 10
-103.7024
 20
-156.3362
 30
0.0
 10
-103.7024
 20
-156.3362
 30
0.0
 10
-103.7024
 20
-155.6061
 30
0.0
 10
-103.7024
 20
-155.6061
 30
0.0
  0
SPLINE
  5
8D
330
1F
100
AcDbEntity
  8
LAYER_1
100
AcDbSpline
210
0.0
220
0.0
230
1.0
 70
    11
 71
     3
 72
    36
 73
    32
 74
     0
 42
0.0000000001
 43
0.0000000001
 40
0.0
 40
0.0
 40
0.0
 40
0.0
 40
0.125
 40
0.125
 40
0.125
 40
0.125
 40
0.25
 40
0.25
 40
0.25
 40
0.25
 40
0.375
 40
0.375
 40
0.375
 40
0.375
 40
0.5
 40
0.5
 40
0.5
 40
0.5
 40
0.625
 40
0.625
 40
0.625
 40
0.625
 40
0.75
 40
0.75
 40
0.75
 40
0.75
 40
0.875
 40
0.875
 40
0.875
 40
0.875
 40
1.0
 40
1.0
 40
1.0
 40
1.0
 10
-102.7883
 20
-156.3362
 30
0.0
 10
-102.7883
 20
-156.3362
 30
0.0
 10
-102.9323
 20
-156.3362
 30
0.0
 10
-102.9323
 20
-156.3362
 30
0.0
 10
-102.9323
 20
-156.3362
 30
0.0
 10
-102.9323
 20
-156.3362
 30
0.0
 10
-102.9323
 20
-155.7331
 30
0.0
 10
-102.9323
 20
-155.7331
 30
0.0
 10
-102.9323
 20
-155.7331
 30
0.0
 10
-102.9323
 20
-155.7331
 30
0.0
 10
-103.1173
 20
-155.7331
 30
0.0
 10
-103.1173
 20
-155.7331
 30
0.0
 10
-103.1173
 20
-155.7331
 30
0.0
 10
-103.1173
 20
-155.7331
 30
0.0
 10
-103.1173
 20
-155.6071
 30
0.0
 10
-103.1173
 20
-155.6071
 30
0.0
 10
-103.1173
 20
-155.6071
 30
0.0
 10
-103.1173
 20
-155.6071
 30
0.0
 10
-102.6032
 20
-155.6071
 30
0.0
 10
-102.6032
 20
-155.6071
 30
0.0
 10
-102.6032
 20
-155.6071
 30
0.0
 10
-102.6032
 20
-155.6071
 30
0.0
 10
-102.6032
 20
-155.7331
 30
0.0
 10
-102.6032
 20
-155.7331
 30
0.0
 10
-102.6032
 20
-155.7331
 30
0.0
 10
-102.6032
 20
-155.7331
 30
0.0
 10
-102.7883
 20
-155.7331
 30
0.0
 10
-102.7883
 20
-155.7331
 30
0.0
 10
-102.7883
 20
-155.7331
 30
0.0
 10
-102.7883
 20
-155.7331
 30
0.0
 10
-102.7883
 20
-156.3362
 30
0.0
 10
-102.7883
 20
-156.3362
 30
0.0
  0
SPLINE
  5
8E
330
1F
100
AcDbEntity
  8
LAYER_1
100
AcDbSpline
210
0.0
220
0.0
230
1.0
 70
    11
 71
     3
 72
    36
 73
    32
 74
     0
 42
0.0000000001
 43
0.0000000001
 40
0.0
 40
0.0
 40
0.0
 40
0.0
 40
0.125
 40
0.125
 40
0.125
 40
0.125
 40
0.25
 40
0.25
 40
0.25
 40
0.25
 40
0.375
 40
0.375
 40
0.375
 40
0.375
 40
0.5
 40
0.5
 40
0.5
 40
0.5
 40
0.625
 40
0.625
 40
0.625
 40
0.625
 40
0.75
 40
0.75
 40
0.75
 40
0.75
 40
0.875
 40
0.875
 40
0.875
 40
0.875
 40
1.0
 40
1.0
 40
1.0
 40
1.0
 10
-102.2452
 20
-155.9708
 30
0.0
 10
-102.2763
 20
-155.9708
 30
0.0
 10
-102.3002
 20
-155.9822
 30
0.0
 10
-102.3167
 20
-156.0048
 30
0.0
 10
-102.3167
 20
-156.0048
 30
0.0
 10
-102.3332
 20
-156.0275
 30
0.0
 10
-102.3413
 20
-156.0602
 30
0.0
 10
-102.3413
 20
-156.1032
 30
0.0
 10
-102.3413
 20
-156.1032
 30
0.0
 10
-102.3413
 20
-156.1458
 30
0.0
 10
-102.3332
 20
-156.1785
 30
0.0
 10
-102.3167
 20
-156.2012
 30
0.0
 10
-102.3167
 20
-156.2012
 30
0.0
 10
-102.3002
 20
-156.2239
 30
0.0
 10
-102.2763
 20
-156.2352
 30
0.0
 10
-102.2452
 20
-156.2352
 30
0.0
 10
-102.2452
 20
-156.2352
 30
0.0
 10
-102.2138
 20
-156.2352
 30
0.0
 10
-102.1898
 20
-156.2239
 30
0.0
 10
-102.1732
 20
-156.2012
 30
0.0
 10
-102.1732
 20
-156.2012
 30
0.0
 10
-102.1563
 20
-156.1785
 30
0.0
 10
-102.148
 20
-156.1458
 30
0.0
 10
-102.148
 20
-156.1032
 30
0.0
 10
-102.148
 20
-156.1032
 30
0.0
 10
-102.148
 20
-156.0605
 30
0.0
 10
-102.1563
 20
-156.0278
 30
0.0
 10
-102.1732
 20
-156.005
 30
0.0
 10
-102.1732
 20
-156.005
 30
0.0
 10
-102.1898
 20
-155.9822
 30
0.0
 10
-102.2138
 20
-155.9708
 30
0.0
 10
-102.2452
 20
-155.9708
 30
0.0
  0
SPLINE
  5
8F
330
1F
100
AcDbEntity
  8
LAYER_1
100
AcDbSpline
210
0.0
220
0.0
230
1.0
 70
    11
 71
     3
 72
    72
 73
    68
 74
     0
 42
0.0000000001
 43
0.0000000001
 40
0.0
 40
0.0
 40
0.0
 40
0.0
 40
0.0588235294117647
 40
0.0588235294117647
 40
0.0588235294117647
 40
0.0588235294117647
 40
0.1176470588235294
 40
0.1176470588235294
 40
0.1176470588235294
 40
0.1176470588235294
 40
0.1764705882352941
 40
0.1764705882352941
 40
0.1764705882352941
 40
0.1764705882352941
 40
0.2352941176470588
 40
0.2352941176470588
 40
0.2352941176470588
 40
0.2352941176470588
 40
0.2941176470588235
 40
0.2941176470588235
 40
0.2941176470588235
 40
0.2941176470588235
 40
0.3529411764705883
 40
0.3529411764705883
 40
0.3529411764705883
 40
0.3529411764705883
 40
0.411764705882353
 40
0.411764705882353
 40
0.411764705882353
 40
0.411764705882353
 40
0.4705882352941177
 40
0.4705882352941177
 40
0.4705882352941177
 40
0.4705882352941177
 40
0.5294117647058824
 40
0.5294117647058824
 40
0.5294117647058824
 40
0.5294117647058824
 40
0.5882352941176471
 40
0.5882352941176471
 40
0.5882352941176471
 40
0.5882352941176471
 40
0.6470588235294118
 40
0.6470588235294118
 40
0.6470588235294118
 40
0.6470588235294118
 40
0.7058823529411765
 40
0.7058823529411765
 40
0.7058823529411765
 40
0.7058823529411765
 40
0.7647058823529412
 40
0.7647058823529412
 40
0.7647058823529412
 40
0.7647058823529412
 40
0.823529411764706
 40
0.823529411764706
 40
0.823529411764706
 40
0.823529411764706
 40
0.8823529411764707
 40
0.8823529411764707
 40
0.8823529411764707
 40
0.8823529411764707
 40
0.9411764705882354
 40
0.9411764705882354
 40
0.9411764705882354
 40
0.9411764705882354
 40
1.0
 40
1.0
 40
1.0
 40
1.0
 10
-102.0563
 20
-155.6243
 30
0.0
 10
-102.0563
 20
-155.6243
 30
0.0
 10
-102.0563
 20
-155.7551
 30
0.0
 10
-102.0563
 20
-155.7551
 30
0.0
 10
-102.0563
 20
-155.7551
 30
0.0
 10
-102.082
 20
-155.7405
 30
0.0
 10
-102.1067
 20
-155.7295
 30
0.0
 10
-102.1303
 20
-155.7221
 30
0.0
 10
-102.1303
 20
-155.7221
 30
0.0
 10
-102.1538
 20
-155.7148
 30
0.0
 10
-102.1765
 20
-155.7111
 30
0.0
 10
-102.1983
 20
-155.7111
 30
0.0
 10
-102.1983
 20
-155.7111
 30
0.0
 10
-102.2503
 20
-155.7111
 30
0.0
 10
-102.29
 20
-155.7286
 30
0.0
 10
-102.3172
 20
-155.7636
 30
0.0
 10
-102.3172
 20
-155.7636
 30
0.0
 10
-102.3443
 20
-155.7986
 30
0.0
 10
-102.3585
 20
-155.8503
 30
0.0
 10
-102.3598
 20
-155.9187
 30
0.0
 10
-102.3598
 20
-155.9187
 30
0.0
 10
-102.3445
 20
-155.8975
 30
0.0
 10
-102.325
 20
-155.8817
 30
0.0
 10
-102.3013
 20
-155.871
 30
0.0
 10
-102.3013
 20
-155.871
 30
0.0
 10
-102.2775
 20
-155.8605
 30
0.0
 10
-102.2495
 20
-155.8552
 30
0.0
 10
-102.2173
 20
-155.8552
 30
0.0
 10
-102.2173
 20
-155.8552
 30
0.0
 10
-102.1515
 20
-155.8552
 30
0.0
 10
-102.1008
 20
-155.876
 30
0.0
 10
-102.065
 20
-155.9175
 30
0.0
 10
-102.065
 20
-155.9175
 30
0.0
 10
-102.0291
 20
-155.959
 30
0.0
 10
-102.0113
 20
-156.0178
 30
0.0
 10
-102.0113
 20
-156.094
 30
0.0
 10
-102.0113
 20
-156.094
 30
0.0
 10
-102.0113
 20
-156.1757
 30
0.0
 10
-102.0315
 20
-156.239
 30
0.0
 10
-102.0717
 20
-156.284
 30
0.0
 10
-102.0717
 20
-156.284
 30
0.0
 10
-102.1118
 20
-156.3289
 30
0.0
 10
-102.1683
 20
-156.3514
 30
0.0
 10
-102.2413
 20
-156.3514
 30
0.0
 10
-102.2413
 20
-156.3514
 30
0.0
 10
-102.3302
 20
-156.3514
 30
0.0
 10
-102.3947
 20
-156.3215
 30
0.0
 10
-102.4349
 20
-156.262
 30
0.0
 10
-102.4349
 20
-156.262
 30
0.0
 10
-102.475
 20
-156.2024
 30
0.0
 10
-102.4952
 20
-156.1062
 30
0.0
 10
-102.4952
 20
-155.9733
 30
0.0
 10
-102.4952
 20
-155.9733
 30
0.0
 10
-102.4952
 20
-155.8472
 30
0.0
 10
-102.4707
 20
-155.7525
 30
0.0
 10
-102.4215
 20
-155.6895
 30
0.0
 10
-102.4215
 20
-155.6895
 30
0.0
 10
-102.3723
 20
-155.6265
 30
0.0
 10
-102.2987
 20
-155.595
 30
0.0
 10
-102.2003
 20
-155.595
 30
0.0
 10
-102.2003
 20
-155.595
 30
0.0
 10
-102.1775
 20
-155.595
 30
0.0
 10
-102.154
 20
-155.5975
 30
0.0
 10
-102.1298
 20
-155.6023
 30
0.0
 10
-102.1298
 20
-155.6023
 30
0.0
 10
-102.1055
 20
-155.6071
 30
0.0
 10
-102.081
 20
-155.6145
 30
0.0
 10
-102.0563
 20
-155.6243
 30
0.0
  0
ENDSEC
  0
SECTION
  2
OBJECTS
  0
DICTIONARY
  5
C
330
0
100
AcDbDictionary
  3
ACAD_GROUP
350
D
  3
ACAD_LAYOUT
350
1A
  3
ACAD_MLEADERSTYLE
350
B3
  3
ACAD_MLINESTYLE
350
17
  3
ACAD_PLOTSETTINGS
350
19
  3
ACAD_SCALELIST
350
3B
  3
ACAD_TABLESTYLE
350
B2
  3
ACAD_VISUALSTYLE
350
2A
  3
ACDBHEADERROUNDTRIPXREC
350
90
  3
ACDBVARIABLEDICTIONARY
350
B0
  0
DICTIONARY
  5
D
102
{ACAD_REACTORS
330
C
102
}
330
C
100
AcDbDictionary
  0
DICTIONARY
  5
1A
102
{ACAD_REACTORS
330
C
102
}
330
C
100
AcDbDictionary
  0
DICTIONARY
  5
B3
102
{ACAD_REACTORS
330
C
102
}
330
C
100
AcDbDictionary
  0
DICTIONARY
  5
17
102
{ACAD_REACTORS
330
C
102
}
330
C
100
AcDbDictionary
  3
STANDARD
350
18
  0
DICTIONARY
  5
19
102
{ACAD_REACTORS
330
C
102
}
330
C
100
AcDbDictionary
  0
DICTIONARY
  5
3B
102
{ACAD_REACTORS
330
C
102
}
330
C
100
AcDbDictionary
  3
A0
350
3C
  3
A1
350
3D
  3
A2
350
3E
  3
A3
350
3F
  3
A4
350
40
  3
A5
350
41
  3
A6
350
42
  3
A7
350
43
  3
A8
350
44
  3
A9
350
45
  3
B0
350
46
  3
B1
350
47
  3
B2
350
48
  3
B3
350
49
  3
B4
350
4A
  3
B5
350
4B
  3
B6
350
4C
  3
B7
350
4D
  3
B8
350
4E
  3
B9
350
4F
  3
C0
350
50
  3
C1
350
51
  3
C2
350
52
  3
C3
350
53
  3
C4
350
54
  3
C5
350
55
  3
C6
350
56
  3
C7
350
57
  3
C8
350
58
  3
C9
350
59
  3
D0
350
5A
  3
D1
350
5B
  3
D2
350
5C
  0
DICTIONARY
  5
B2
102
{ACAD_REACTORS
330
C
102
}
330
C
100
AcDbDictionary
  0
DICTIONARY
  5
2A
102
{ACAD_REACTORS
330
C
102
}
330
C
100
AcDbDictionary
  3
2DWIREFRAME
350
2F
  3
3D_HIDDEN
350
31
  3
3DWIREFRAME
350
30
  3
BASIC
350
32
  3
BRIGHTEN
350
36
  3
COLORCHANGE
350
3A
  3
CONCEPTUAL
350
34
  3
DIM
350
35
  3
FACEPATTERN
350
39
  3
FLAT
350
2B
  3
FLATWITHEDGES
350
2C
  3
GOURAUD
350
2D
  3
GOURAUDWITHEDGES
350
2E
  3
LINEPATTERN
350
38
  3
REALISTIC
350
33
  3
THICKEN
350
37
  0
DICTIONARY
  5
90
102
{ACAD_REACTORS
330
C
102
}
330
C
100
AcDbDictionary
  3
CEPSNTYPE
350
99
  3
DIMSTYLEDATA
350
AF
  3
FINGERPRINTGUID
350
9A
  3
HYPERLINKBASE
350
93
  3
INSUNITS
350
98
  3
LAYOUTDICT
350
95
  3
LWETCUNION
350
97
  3
PLOTSETDICT
350
96
  3
PSVPSCALE
350
9C
  3
PUCSBASE
350
9F
  3
PUCSORGBACK
350
A5
  3
PUCSORGBOTTOM
350
A1
  3
PUCSORGFRONT
350
A4
  3
PUCSORGLEFT
350
A2
  3
PUCSORGRIGHT
350
A3
  3
PUCSORGTOP
350
A0
  3
PUCSORTHOREF
350
9D
  3
PUCSORTHOVIEW
350
9E
  3
STYLESHEET
350
94
  3
TSTACKALIGN
350
91
  3
TSTACKSIZE
350
92
  3
UCSBASE
350
A8
  3
UCSORGBACK
350
AE
  3
UCSORGBOTTOM
350
AA
  3
UCSORGFRONT
350
AD
  3
UCSORGLEFT
350
AB
  3
UCSORGRIGHT
350
AC
  3
UCSORGTOP
350
A9
  3
UCSORTHOREF
350
A6
  3
UCSORTHOVIEW
350
A7
  3
VERSIONGUID
350
9B
  0
DICTIONARY
  5
B0
102
{ACAD_REACTORS
330
C
102
}
330
C
100
AcDbDictionary
  3
CANNOSCALE
350
B1
  0
MLINESTYLE
  5
18
102
{ACAD_REACTORS
330
17
102
}
330
17
100
AcDbMlineStyle
  2
Standard
 70
     0
  3

 62
   256
 51
90.0
 52
90.0
 71
     2
 49
0.5
 62
   256
  6
BYLAYER
 49
-0.5
 62
   256
  6
BYLAYER
  0
SCALE
  5
3C
102
{ACAD_REACTORS
330
3B
102
}
330
3B
100
AcDbScale
 70
     0
300
1:1
140
1.0
141
1.0
290
     1
  0
SCALE
  5
3D
102
{ACAD_REACTORS
330
3B
102
}
330
3B
100
AcDbScale
 70
     0
300
1:2
140
1.0
141
2.0
290
     0
  0
SCALE
  5
3E
102
{ACAD_REACTORS
330
3B
102
}
330
3B
100
AcDbScale
 70
     0
300
1:4
140
1.0
141
4.0
290
     0
  0
SCALE
  5
3F
102
{ACAD_REACTORS
330
3B
102
}
330
3B
100
AcDbScale
 70
     0
300
1:5
140
1.0
141
5.0
290
     0
  0
SCALE
  5
40
102
{ACAD_REACTORS
330
3B
102
}
330
3B
100
AcDbScale
 70
     0
300
1:8
140
1.0
141
8.0
290
     0
  0
SCALE
  5
41
102
{ACAD_REACTORS
330
3B
102
}
330
3B
100
AcDbScale
 70
     0
300
1:10
140
1.0
141
10.0
290
     0
  0
SCALE
  5
42
102
{ACAD_REACTORS
330
3B
102
}
330
3B
100
AcDbScale
 70
     0
300
1:16
140
1.0
141
16.0
290
     0
  0
SCALE
  5
43
102
{ACAD_REACTORS
330
3B
102
}
330
3B
100
AcDbScale
 70
     0
300
1:20
140
1.0
141
20.0
290
     0
  0
SCALE
  5
44
102
{ACAD_REACTORS
330
3B
102
}
330
3B
100
AcDbScale
 70
     0
300
1:30
140
1.0
141
30.0
290
     0
  0
SCALE
  5
45
102
{ACAD_REACTORS
330
3B
102
}
330
3B
100
AcDbScale
 70
     0
300
1:40
140
1.0
141
40.0
290
     0
  0
SCALE
  5
46
102
{ACAD_REACTORS
330
3B
102
}
330
3B
100
AcDbScale
 70
     0
300
1:50
140
1.0
141
50.0
290
     0
  0
SCALE
  5
47
102
{ACAD_REACTORS
330
3B
102
}
330
3B
100
AcDbScale
 70
     0
300
1:100
140
1.0
141
100.0
290
     0
  0
SCALE
  5
48
102
{ACAD_REACTORS
330
3B
102
}
330
3B
100
AcDbScale
 70
     0
300
2:1
140
2.0
141
1.0
290
     0
  0
SCALE
  5
49
102
{ACAD_REACTORS
330
3B
102
}
330
3B
100
AcDbScale
 70
     0
300
4:1
140
4.0
141
1.0
290
     0
  0
SCALE
  5
4A
102
{ACAD_REACTORS
330
3B
102
}
330
3B
100
AcDbScale
 70
     0
300
8:1
140
8.0
141
1.0
290
     0
  0
SCALE
  5
4B
102
{ACAD_REACTORS
330
3B
102
}
330
3B
100
AcDbScale
 70
     0
300
10:1
140
10.0
141
1.0
290
     0
  0
SCALE
  5
4C
102
{ACAD_REACTORS
330
3B
102
}
330
3B
100
AcDbScale
 70
     0
300
100:1
140
100.0
141
1.0
290
     0
  0
SCALE
  5
4D
102
{ACAD_REACTORS
330
3B
102
}
330
3B
100
AcDbScale
 70
     0
300
1/128" = 1'-0"
140
0.0078125
141
12.0
290
     0
  0
SCALE
  5
4E
102
{ACAD_REACTORS
330
3B
102
}
330
3B
100
AcDbScale
 70
     0
300
1/64" = 1'-0"
140
0.015625
141
12.0
290
     0
  0
SCALE
  5
4F
102
{ACAD_REACTORS
330
3B
102
}
330
3B
100
AcDbScale
 70
     0
300
1/32" = 1'-0"
140
0.03125
141
12.0
290
     0
  0
SCALE
  5
50
102
{ACAD_REACTORS
330
3B
102
}
330
3B
100
AcDbScale
 70
     0
300
1/16" = 1'-0"
140
0.0625
141
12.0
290
     0
  0
SCALE
  5
51
102
{ACAD_REACTORS
330
3B
102
}
330
3B
100
AcDbScale
 70
     0
300
3/32" = 1'-0"
140
0.09375
141
12.0
290
     0
  0
SCALE
  5
52
102
{ACAD_REACTORS
330
3B
102
}
330
3B
100
AcDbScale
 70
     0
300
1/8" = 1'-0"
140
0.125
141
12.0
290
     0
  0
SCALE
  5
53
102
{ACAD_REACTORS
330
3B
102
}
330
3B
100
AcDbScale
 70
     0
300
3/16" = 1'-0"
140
0.1875
141
12.0
290
     0
  0
SCALE
  5
54
102
{ACAD_REACTORS
330
3B
102
}
330
3B
100
AcDbScale
 70
     0
300
1/4" = 1'-0"
140
0.25
141
12.0
290
     0
  0
SCALE
  5
55
102
{ACAD_REACTORS
330
3B
102
}
330
3B
100
AcDbScale
 70
     0
300
3/8" = 1'-0"
140
0.375
141
12.0
290
     0
  0
SCALE
  5
56
102
{ACAD_REACTORS
330
3B
102
}
330
3B
100
AcDbScale
 70
     0
300
1/2" = 1'-0"
140
0.5
141
12.0
290
     0
  0
SCALE
  5
57
102
{ACAD_REACTORS
330
3B
102
}
330
3B
100
AcDbScale
 70
     0
300
3/4" = 1'-0"
140
0.75
141
12.0
290
     0
  0
SCALE
  5
58
102
{ACAD_REACTORS
330
3B
102
}
330
3B
100
AcDbScale
 70
     0
300
1" = 1'-0"
140
1.0
141
12.0
290
     0
  0
SCALE
  5
59
102
{ACAD_REACTORS
330
3B
102
}
330
3B
100
AcDbScale
 70
     0
300
1-1/2" = 1'-0"
140
1.5
141
12.0
290
     0
  0
SCALE
  5
5A
102
{ACAD_REACTORS
330
3B
102
}
330
3B
100
AcDbScale
 70
     0
300
3" = 1'-0"
140
3.0
141
12.0
290
     0
  0
SCALE
  5
5B
102
{ACAD_REACTORS
330
3B
102
}
330
3B
100
AcDbScale
 70
     0
300
6" = 1'-0"
140
6.0
141
12.0
290
     0
  0
SCALE
  5
5C
102
{ACAD_REACTORS
330
3B
102
}
330
3B
100
AcDbScale
 70
     0
300
1'-0" = 1'-0"
140
12.0
141
12.0
290
     0
  0
VISUALSTYLE
  5
2F
102
{ACAD_REACTORS
330
2A
102
}
330
2A
100
AcDbVisualStyle
  2
2dWireframe
 70
     4
 71
     0
 72
     2
 73
     0
 90
        0
 40
-0.6
 41
-30.0
 62
     5
 63
     7
 74
     1
 91
        4
 64
     7
 65
   257
 75
     1
175
     1
 42
1.0
 92
        0
 66
   257
 43
1.0
 76
     1
 77
     6
 78
     2
 67
     7
 79
     5
170
     0
171
     0
290
     0
174
     0
 93
        1
 44
0.0
173
     0
291
     0
 45
0.0
1001
ACAD
1000
AcDbSavedByObjectVersion
1070
     0
  0
VISUALSTYLE
  5
31
102
{ACAD_REACTORS
330
2A
102
}
330
2A
100
AcDbVisualStyle
  2
3D Hidden
 70
     6
 71
     1
 72
     2
 73
     2
 90
        0
 40
-0.6
 41
-30.0
 62
     5
 63
     7
 74
     2
 91
        2
 64
     7
 65
   257
 75
     2
175
     1
 42
40.0
 92
        0
 66
   257
 43
1.0
 76
     1
 77
     6
 78
     2
 67
     7
 79
     3
170
     0
171
     0
290
     0
174
     0
 93
        1
 44
0.0
173
     0
291
     0
 45
0.0
1001
ACAD
1000
AcDbSavedByObjectVersion
1070
     0
  0
VISUALSTYLE
  5
30
102
{ACAD_REACTORS
330
2A
102
}
330
2A
100
AcDbVisualStyle
  2
3dWireframe
 70
     5
 71
     0
 72
     2
 73
     0
 90
        0
 40
-0.6
 41
-30.0
 62
     5
 63
     7
 74
     1
 91
        4
 64
     7
 65
   257
 75
     1
175
     1
 42
1.0
 92
        0
 66
   257
 43
1.0
 76
     1
 77
     6
 78
     2
 67
     7
 79
     5
170
     0
171
     0
290
     0
174
     0
 93
        1
 44
0.0
173
     0
291
     0
 45
0.0
1001
ACAD
1000
AcDbSavedByObjectVersion
1070
     0
  0
VISUALSTYLE
  5
32
102
{ACAD_REACTORS
330
2A
102
}
330
2A
100
AcDbVisualStyle
  2
Basic
 70
     7
 71
     1
 72
     0
 73
     1
 90
        0
 40
-0.6
 41
-30.0
 62
     5
 63
     7
 74
     0
 91
        4
 64
     7
 65
   257
 75
     1
175
     1
 42
1.0
 92
        8
 66
     7
 43
1.0
 76
     1
 77
     6
 78
     2
 67
     7
 79
     5
170
     0
171
     0
290
     0
174
     0
 93
        1
 44
0.0
173
     0
291
     1
 45
0.0
1001
ACAD
1000
AcDbSavedByObjectVersion
1070
     0
  0
VISUALSTYLE
  5
36
102
{ACAD_REACTORS
330
2A
102
}
330
2A
100
AcDbVisualStyle
  2
Brighten
 70
    12
 71
     2
 72
     2
 73
     0
 90
        0
 40
-0.6
 41
-30.0
 62
     5
 63
     7
 74
     1
 91
        4
 64
     7
 65
   257
 75
     1
175
     1
 42
1.0
 92
        8
 66
     7
 43
1.0
 76
     1
 77
     6
 78
     2
 67
     7
 79
     5
170
     0
171
     0
290
     0
174
     0
 93
        1
 44
50.0
173
     0
291
     1
 45
0.0
1001
ACAD
1000
AcDbSavedByObjectVersion
1070
     0
  0
VISUALSTYLE
  5
3A
102
{ACAD_REACTORS
330
2A
102
}
330
2A
100
AcDbVisualStyle
  2
ColorChange
 70
    16
 71
     2
 72
     2
 73
     3
 90
        0
 40
-0.6
 41
-30.0
 62
     5
 63
     8
 74
     1
 91
        4
 64
     7
 65
   257
 75
     1
175
     1
 42
1.0
 92
        8
 66
     8
 43
1.0
 76
     1
 77
     6
 78
     2
 67
     7
 79
     5
170
     0
171
     0
290
     0
174
     0
 93
        1
 44
0.0
173
     0
291
     1
 45
0.0
1001
ACAD
1000
AcDbSavedByObjectVersion
1070
     0
  0
VISUALSTYLE
  5
34
102
{ACAD_REACTORS
330
2A
102
}
330
2A
100
AcDbVisualStyle
  2
Conceptual
 70
     9
 71
     3
 72
     2
 73
     0
 90
        0
 40
-0.6
 41
-30.0
 62
     5
 63
     7
 74
     2
 91
        2
 64
     7
 65
   257
 75
     1
175
     1
 42
40.0
 92
        8
 66
     7
 43
1.0
 76
     1
 77
     6
 78
     2
 67
     7
 79
     3
170
     0
171
     0
290
     0
174
     0
 93
        1
 44
0.0
173
     0
291
     0
 45
0.0
1001
ACAD
1000
AcDbSavedByObjectVersion
1070
     0
  0
VISUALSTYLE
  5
35
102
{ACAD_REACTORS
330
2A
102
}
330
2A
100
AcDbVisualStyle
  2
Dim
 70
    11
 71
     2
 72
     2
 73
     0
 90
        0
 40
-0.6
 41
-30.0
 62
     5
 63
     7
 74
     1
 91
        4
 64
     7
 65
   257
 75
     1
175
     1
 42
1.0
 92
        8
 66
     7
 43
1.0
 76
     1
 77
     6
 78
     2
 67
     7
 79
     5
170
     0
171
     0
290
     0
174
     0
 93
        1
 44
-50.0
173
     0
291
     1
 45
0.0
1001
ACAD
1000
AcDbSavedByObjectVersion
1070
     0
  0
VISUALSTYLE
  5
39
102
{ACAD_REACTORS
330
2A
102
}
330
2A
100
AcDbVisualStyle
  2
Facepattern
 70
    15
 71
     2
 72
     2
 73
     0
 90
        0
 40
-0.6
 41
-30.0
 62
     5
 63
     7
 74
     1
 91
        4
 64
     7
 65
   257
 75
     1
175
     1
 42
1.0
 92
        8
 66
     7
 43
1.0
 76
     1
 77
     6
 78
     2
 67
     7
 79
     5
170
     0
171
     0
290
     0
174
     0
 93
        1
 44
0.0
173
     0
291
     1
 45
0.0
1001
ACAD
1000
AcDbSavedByObjectVersion
1070
     0
  0
VISUALSTYLE
  5
2B
102
{ACAD_REACTORS
330
2A
102
}
330
2A
100
AcDbVisualStyle
  2
Flat
 70
     0
 71
     2
 72
     1
 73
     1
 90
        2
 40
-0.6
 41
30.0
 62
     5
 63
     7
 74
     0
 91
        4
 64
     7
 65
   257
 75
     1
175
     1
 42
1.0
 92
        8
 66
     7
 43
1.0
 76
     1
 77
     6
 78
     2
 67
     7
 79
     5
170
     0
171
     0
290
     0
174
     0
 93
       13
 44
0.0
173
     0
291
     1
 45
0.0
1001
ACAD
1000
AcDbSavedByObjectVersion
1070
     0
  0
VISUALSTYLE
  5
2C
102
{ACAD_REACTORS
330
2A
102
}
330
2A
100
AcDbVisualStyle
  2
FlatWithEdges
 70
     1
 71
     2
 72
     1
 73
     1
 90
        2
 40
-0.6
 41
30.0
 62
     5
 63
     7
 74
     1
 91
        4
 64
     7
 65
   257
 75
     1
175
     1
 42
1.0
 92
        0
 66
   257
 43
1.0
 76
     1
 77
     6
 78
     2
 67
     7
 79
     5
170
     0
171
     0
290
     0
174
     0
 93
       13
 44
0.0
173
     0
291
     1
 45
0.0
1001
ACAD
1000
AcDbSavedByObjectVersion
1070
     0
  0
VISUALSTYLE
  5
2D
102
{ACAD_REACTORS
330
2A
102
}
330
2A
100
AcDbVisualStyle
  2
Gouraud
 70
     2
 71
     2
 72
     2
 73
     1
 90
        2
 40
-0.6
 41
30.0
 62
     5
 63
     7
 74
     0
 91
        4
 64
     7
 65
   257
 75
     1
175
     1
 42
1.0
 92
        0
 66
     7
 43
1.0
 76
     1
 77
     6
 78
     2
 67
     7
 79
     5
170
     0
171
     0
290
     0
174
     0
 93
       13
 44
0.0
173
     0
291
     1
 45
0.0
1001
ACAD
1000
AcDbSavedByObjectVersion
1070
     0
  0
VISUALSTYLE
  5
2E
102
{ACAD_REACTORS
330
2A
102
}
330
2A
100
AcDbVisualStyle
  2
GouraudWithEdges
 70
     3
 71
     2
 72
     2
 73
     1
 90
        2
 40
-0.6
 41
30.0
 62
     5
 63
     7
 74
     1
 91
        4
 64
     7
 65
   257
 75
     1
175
     1
 42
1.0
 92
        0
 66
   257
 43
1.0
 76
     1
 77
     6
 78
     2
 67
     7
 79
     5
170
     0
171
     0
290
     0
174
     0
 93
       13
 44
0.0
173
     0
291
     1
 45
0.0
1001
ACAD
1000
AcDbSavedByObjectVersion
1070
     0
  0
VISUALSTYLE
  5
38
102
{ACAD_REACTORS
330
2A
102
}
330
2A
100
AcDbVisualStyle
  2
Linepattern
 70
    14
 71
     2
 72
     2
 73
     0
 90
        0
 40
-0.6
 41
-30.0
 62
     5
 63
     7
 74
     1
 91
        4
 64
     7
 65
   257
 75
     7
175
     7
 42
1.0
 92
        8
 66
     7
 43
1.0
 76
     1
 77
     6
 78
     2
 67
     7
 79
     5
170
     0
171
     0
290
     0
174
     0
 93
        1
 44
0.0
173
     0
291
     1
 45
0.0
1001
ACAD
1000
AcDbSavedByObjectVersion
1070
     0
  0
VISUALSTYLE
  5
33
102
{ACAD_REACTORS
330
2A
102
}
330
2A
100
AcDbVisualStyle
  2
Realistic
 70
     8
 71
     2
 72
     2
 73
     0
 90
        0
 40
-0.6
 41
-30.0
 62
     5
 63
     7
 74
     1
 91
        0
 64
     7
 65
   257
 75
     1
175
     1
 42
1.0
 92
        8
 66
     8
 43
1.0
 76
     1
 77
     6
 78
     2
 67
     7
 79
     5
170
     0
171
     0
290
     0
174
     0
 93
       13
 44
0.0
173
     0
291
     0
 45
0.0
1001
ACAD
1000
AcDbSavedByObjectVersion
1070
     0
  0
VISUALSTYLE
  5
37
102
{ACAD_REACTORS
330
2A
102
}
330
2A
100
AcDbVisualStyle
  2
Thicken
 70
    13
 71
     2
 72
     2
 73
     0
 90
        0
 40
-0.6
 41
-30.0
 62
     5
 63
     7
 74
     1
 91
        4
 64
     7
 65
   257
 75
     1
175
     1
 42
1.0
 92
       12
 66
     7
 43
1.0
 76
     1
 77
     6
 78
     2
 67
     7
 79
     5
170
     0
171
     0
290
     0
174
     0
 93
        1
 44
0.0
173
     0
291
     1
 45
0.0
1001
ACAD
1000
AcDbSavedByObjectVersion
1070
     0
  0
XRECORD
  5
99
102
{ACAD_REACTORS
330
90
102
}
330
90
100
AcDbXrecord
 90
        0
  0
XRECORD
  5
AF
102
{ACAD_REACTORS
330
90
102
}
330
90
100
AcDbXrecord
1000
DSTYLE
1002
{
1070
   340
340
11
1002
}
  0
XRECORD
  5
9A
102
{ACAD_REACTORS
330
90
102
}
330
90
100
AcDbXrecord
  1
{973AB148-2EF1-49E6-A543-71C634E5FA54}
  0
XRECORD
  5
93
102
{ACAD_REACTORS
330
90
102
}
330
90
100
AcDbXrecord
  1

  0
XRECORD
  5
98
102
{ACAD_REACTORS
330
90
102
}
330
90
100
AcDbXrecord
 90
        4
  0
XRECORD
  5
95
102
{ACAD_REACTORS
330
90
102
}
330
90
100
AcDbXrecord
340
1A
  0
XRECORD
  5
97
102
{ACAD_REACTORS
330
90
102
}
330
90
100
AcDbXrecord
 90
    10781
  0
XRECORD
  5
96
102
{ACAD_REACTORS
330
90
102
}
330
90
100
AcDbXrecord
340
19
  0
XRECORD
  5
9C
102
{ACAD_REACTORS
330
90
102
}
330
90
100
AcDbXrecord
 40
0.0
  0
XRECORD
  5
9F
102
{ACAD_REACTORS
330
90
102
}
330
90
100
AcDbXrecord
340
0
  0
XRECORD
  5
A5
102
{ACAD_REACTORS
330
90
102
}
330
90
100
AcDbXrecord
 10
0.0
 20
0.0
 30
0.0
  0
XRECORD
  5
A1
102
{ACAD_REACTORS
330
90
102
}
330
90
100
AcDbXrecord
 10
0.0
 20
0.0
 30
0.0
  0
XRECORD
  5
A4
102
{ACAD_REACTORS
330
90
102
}
330
90
100
AcDbXrecord
 10
0.0
 20
0.0
 30
0.0
  0
XRECORD
  5
A2
102
{ACAD_REACTORS
330
90
102
}
330
90
100
AcDbXrecord
 10
0.0
 20
0.0
 30
0.0
  0
XRECORD
  5
A3
102
{ACAD_REACTORS
330
90
102
}
330
90
100
AcDbXrecord
 10
0.0
 20
0.0
 30
0.0
  0
XRECORD
  5
A0
102
{ACAD_REACTORS
330
90
102
}
330
90
100
AcDbXrecord
 10
0.0
 20
0.0
 30
0.0
  0
XRECORD
  5
9D
102
{ACAD_REACTORS
330
90
102
}
330
90
100
AcDbXrecord
340
0
  0
XRECORD
  5
9E
102
{ACAD_REACTORS
330
90
102
}
330
90
100
AcDbXrecord
 70
     0
  0
XRECORD
  5
94
102
{ACAD_REACTORS
330
90
102
}
330
90
100
AcDbXrecord
  1

  0
XRECORD
  5
91
102
{ACAD_REACTORS
330
90
102
}
330
90
100
AcDbXrecord
 90
        1
  0
XRECORD
  5
92
102
{ACAD_REACTORS
330
90
102
}
330
90
100
AcDbXrecord
 90
       70
  0
XRECORD
  5
A8
102
{ACAD_REACTORS
330
90
102
}
330
90
100
AcDbXrecord
340
0
  0
XRECORD
  5
AE
102
{ACAD_REACTORS
330
90
102
}
330
90
100
AcDbXrecord
 10
0.0
 20
0.0
 30
0.0
  0
XRECORD
  5
AA
102
{ACAD_REACTORS
330
90
102
}
330
90
100
AcDbXrecord
 10
0.0
 20
0.0
 30
0.0
  0
XRECORD
  5
AD
102
{ACAD_REACTORS
330
90
102
}
330
90
100
AcDbXrecord
 10
0.0
 20
0.0
 30
0.0
  0
XRECORD
  5
AB
102
{ACAD_REACTORS
330
90
102
}
330
90
100
AcDbXrecord
 10
0.0
 20
0.0
 30
0.0
  0
XRECORD
  5
AC
102
{ACAD_REACTORS
330
90
102
}
330
90
100
AcDbXrecord
 10
0.0
 20
0.0
 30
0.0
  0
XRECORD
  5
A9
102
{ACAD_REACTORS
330
90
102
}
330
90
100
AcDbXrecord
 10
0.0
 20
0.0
 30
0.0
  0
XRECORD
  5
A6
102
{ACAD_REACTORS
330
90
102
}
330
90
100
AcDbXrecord
340
0
  0
XRECORD
  5
A7
102
{ACAD_REACTORS
330
90
102
}
330
90
100
AcDbXrecord
 70
     0
  0
XRECORD
  5
9B
102
{ACAD_REACTORS
330
90
102
}
330
90
100
AcDbXrecord
  1
{FAEB1C32-E019-11D5-929B-00C0DF256EC4}
  0
DICTIONARYVAR
  5
B1
102
{ACAD_REACTORS
330
B0
102
}
330
B0
100
DictionaryVariables
280
     0
  1
1:1
  0
ENDSEC
  0
EOF
