  0
SECTION
  2
HEADER
  9
$ACADVER
  1
AC1014
  9
$ACADMAINTVER
 70
     9
  9
$DWGCODEPAGE
  3
ANSI_1252
  9
$INSBASE
 10
0.0
 20
0.0
 30
0.0
  9
$EXTMIN
 10
-117.5
 20
-161.0
 30
0.0
  9
$EXTMAX
 10
-92.5
 20
-136.0
 30
0.0
  9
$LIMMIN
 10
0.0
 20
0.0
  9
$LIMMAX
 10
12.0
 20
9.0
  9
$ORTHOMODE
 70
     0
  9
$REGENMODE
 70
     1
  9
$FILLMODE
 70
     1
  9
$QTEXTMODE
 70
     0
  9
$MIRRTEXT
 70
     1
  9
$DRAGMODE
 70
     2
  9
$LTSCALE
 40
1.0
  9
$OSMODE
 70
    37
  9
$ATTMODE
 70
     1
  9
$TEXTSIZE
 40
0.2
  9
$TRACEWID
 40
0.05
  9
$TEXTSTYLE
  7
STANDARD
  9
$CLAYER
  8
0
  9
$CELTYPE
  6
BYLAYER
  9
$CECOLOR
 62
   256
  9
$CELTSCALE
 40
1.0
  9
$DELOBJ
 70
     1
  9
$DISPSILH
 70
     0
  9
$DIMSCALE
 40
1.0
  9
$DIMASZ
 40
0.18
  9
$DIMEXO
 40
0.0625
  9
$DIMDLI
 40
0.38
  9
$DIMRND
 40
0.0
  9
$DIMDLE
 40
0.0
  9
$DIMEXE
 40
0.18
  9
$DIMTP
 40
0.0
  9
$DIMTM
 40
0.0
  9
$DIMTXT
 40
0.18
  9
$DIMCEN
 40
0.09
  9
$DIMTSZ
 40
0.0
  9
$DIMTOL
 70
     0
  9
$DIMLIM
 70
     0
  9
$DIMTIH
 70
     1
  9
$DIMTOH
 70
     1
  9
$DIMSE1
 70
     0
  9
$DIMSE2
 70
     0
  9
$DIMTAD
 70
     0
  9
$DIMZIN
 70
     0
  9
$DIMBLK
  1

  9
$DIMASO
 70
     1
  9
$DIMSHO
 70
     1
  9
$DIMPOST
  1

  9
$DIMAPOST
  1

  9
$DIMALT
 70
     0
  9
$DIMALTD
 70
     2
  9
$DIMALTF
 40
25.4
  9
$DIMLFAC
 40
1.0
  9
$DIMTOFL
 70
     0
  9
$DIMTVP
 40
0.0
  9
$DIMTIX
 70
     0
  9
$DIMSOXD
 70
     0
  9
$DIMSAH
 70
     0
  9
$DIMBLK1
  1

  9
$DIMBLK2
  1

  9
$DIMSTYLE
  2
STANDARD
  9
$DIMCLRD
 70
     0
  9
$DIMCLRE
 70
     0
  9
$DIMCLRT
 70
     0
  9
$DIMTFAC
 40
1.0
  9
$DIMGAP
 40
0.09
  9
$DIMJUST
 70
     0
  9
$DIMSD1
 70
     0
  9
$DIMSD2
 70
     0
  9
$DIMTOLJ
 70
     1
  9
$DIMTZIN
 70
     0
  9
$DIMALTZ
 70
     0
  9
$DIMALTTZ
 70
     0
  9
$DIMFIT
 70
     3
  9
$DIMUPT
 70
     0
  9
$DIMUNIT
 70
     2
  9
$DIMDEC
 70
     4
  9
$DIMTDEC
 70
     4
  9
$DIMALTU
 70
     2
  9
$DIMALTTD
 70
     2
  9
$DIMTXSTY
  7
STANDARD
  9
$DIMAUNIT
 70
     0
  9
$LUNITS
 70
     2
  9
$LUPREC
 70
     4
  9
$SKETCHINC
 40
0.1
  9
$FILLETRAD
 40
0.5
  9
$AUNITS
 70
     0
  9
$AUPREC
 70
     0
  9
$MENU
  1
.
  9
$ELEVATION
 40
0.0
  9
$PELEVATION
 40
0.0
  9
$THICKNESS
 40
0.0
  9
$LIMCHECK
 70
     0
  9
$CHAMFERA
 40
0.5
  9
$CHAMFERB
 40
0.5
  9
$CHAMFERC
 40
1.0
  9
$CHAMFERD
 40
0.0
  9
$SKPOLY
 70
     0
  9
$TDCREATE
 40
2458627.572404954
  9
$TDUPDATE
 40
2458627.572404965
  9
$TDINDWG
 40
0.0000000116
  9
$TDUSRTIMER
 40
0.0000000116
  9
$USRTIMER
 70
     1
  9
$ANGBASE
 50
0.0
  9
$ANGDIR
 70
     0
  9
$PDMODE
 70
     0
  9
$PDSIZE
 40
0.0
  9
$PLINEWID
 40
0.0
  9
$COORDS
 70
     1
  9
$SPLFRAME
 70
     0
  9
$SPLINETYPE
 70
     6
  9
$SPLINESEGS
 70
     8
  9
$ATTDIA
 70
     0
  9
$ATTREQ
 70
     1
  9
$HANDLING
 70
     1
  9
$HANDSEED
  5
B5
  9
$SURFTAB1
 70
     6
  9
$SURFTAB2
 70
     6
  9
$SURFTYPE
 70
     6
  9
$SURFU
 70
     6
  9
$SURFV
 70
     6
  9
$UCSNAME
  2

  9
$UCSORG
 10
0.0
 20
0.0
 30
0.0
  9
$UCSXDIR
 10
1.0
 20
0.0
 30
0.0
  9
$UCSYDIR
 10
0.0
 20
1.0
 30
0.0
  9
$PUCSNAME
  2

  9
$PUCSORG
 10
0.0
 20
0.0
 30
0.0
  9
$PUCSXDIR
 10
1.0
 20
0.0
 30
0.0
  9
$PUCSYDIR
 10
0.0
 20
1.0
 30
0.0
  9
$USERI1
 70
     0
  9
$USERI2
 70
     0
  9
$USERI3
 70
     0
  9
$USERI4
 70
     0
  9
$USERI5
 70
     0
  9
$USERR1
 40
0.0
  9
$USERR2
 40
0.0
  9
$USERR3
 40
0.0
  9
$USERR4
 40
0.0
  9
$USERR5
 40
0.0
  9
$WORLDVIEW
 70
     1
  9
$SHADEDGE
 70
     3
  9
$SHADEDIF
 70
    70
  9
$TILEMODE
 70
     1
  9
$MAXACTVP
 70
    64
  9
$PINSBASE
 10
0.0
 20
0.0
 30
0.0
  9
$PLIMCHECK
 70
     0
  9
$PEXTMIN
 10
1.000000000000000E+20
 20
1.000000000000000E+20
 30
1.000000000000000E+20
  9
$PEXTMAX
 10
-1.000000000000000E+20
 20
-1.000000000000000E+20
 30
-1.000000000000000E+20
  9
$PLIMMIN
 10
0.0
 20
0.0
  9
$PLIMMAX
 10
12.0
 20
9.0
  9
$UNITMODE
 70
     0
  9
$VISRETAIN
 70
     1
  9
$PLINEGEN
 70
     0
  9
$PSLTSCALE
 70
     1
  9
$TREEDEPTH
 70
  3020
  9
$PICKSTYLE
 70
     1
  9
$CMLSTYLE
  2
STANDARD
  9
$CMLJUST
 70
     0
  9
$CMLSCALE
 40
1.0
  9
$PROXYGRAPHICS
 70
     1
  9
$MEASUREMENT
 70
     0
  0
ENDSEC
  0
SECTION
  2
CLASSES
  0
CLASS
  1
ACDBDICTIONARYWDFLT
  2
AcDbDictionaryWithDefault
  3
ObjectDBX Classes
 90
        0
280
     0
281
     0
  0
CLASS
  1
VISUALSTYLE
  2
AcDbVisualStyle
  3
ObjectDBX Classes
 90
     4095
280
     0
281
     0
  0
CLASS
  1
SCALE
  2
AcDbScale
  3
ObjectDBX Classes
 90
     1153
280
     0
281
     0
  0
CLASS
  1
DICTIONARYVAR
  2
AcDbDictionaryVar
  3
ObjectDBX Classes
 90
        0
280
     0
281
     0
  0
CLASS
  1
XRECORD
  2
AcDbXrecord
  3
AutoCAD 2000
 90
        0
280
     0
281
     0
  0
CLASS
  1
LWPOLYLINE
  2
AcDbPolyline
  3
AutoCAD 2000
 90
        0
280
     0
281
     1
  0
CLASS
  1
HATCH
  2
AcDbHatch
  3
AutoCAD 2000
 90
        0
280
     0
281
     1
  0
CLASS
  1
ACDBPLACEHOLDER
  2
AcDbPlaceHolder
  3
ObjectDBX Classes
 90
        0
280
     0
281
     0
  0
CLASS
  1
LAYOUT
  2
AcDbLayout
  3
ObjectDBX Classes
 90
        0
280
     0
281
     0
  0
ENDSEC
  0
SECTION
  2
TABLES
  0
TABLE
  2
VPORT
  5
8
330
0
100
AcDbSymbolTable
 70
     1
  0
VPORT
  5
29
330
8
100
AcDbSymbolTableRecord
100
AcDbViewportTableRecord
  2
*ACTIVE
 70
     0
 10
0.0
 20
0.0
 11
1.0
 21
1.0
 12
10.42990654205607
 22
4.5
 13
0.0
 23
0.0
 14
0.5
 24
0.5
 15
0.5
 25
0.5
 16
0.0
 26
0.0
 36
1.0
 17
0.0
 27
0.0
 37
0.0
 40
9.0
 41
1.972972972850329
 42
50.0
 43
0.0
 44
0.0
 50
0.0
 51
0.0
 71
     0
 72
   100
 73
     1
 74
     3
 75
     0
 76
     0
 77
     0
 78
     0
  0
ENDTAB
  0
TABLE
  2
LTYPE
  5
5
330
0
100
AcDbSymbolTable
 70
     1
  0
LTYPE
  5
14
330
5
100
AcDbSymbolTableRecord
100
AcDbLinetypeTableRecord
  2
BYBLOCK
 70
     0
  3

 72
    65
 73
     0
 40
0.0
  0
LTYPE
  5
15
330
5
100
AcDbSymbolTableRecord
100
AcDbLinetypeTableRecord
  2
BYLAYER
 70
     0
  3

 72
    65
 73
     0
 40
0.0
  0
LTYPE
  5
16
330
5
100
AcDbSymbolTableRecord
100
AcDbLinetypeTableRecord
  2
CONTINUOUS
 70
     0
  3
Solid line
 72
    65
 73
     0
 40
0.0
  0
ENDTAB
  0
TABLE
  2
LAYER
  5
2
330
0
100
AcDbSymbolTable
 70
     2
  0
LAYER
  5
10
330
2
100
AcDbSymbolTableRecord
100
AcDbLayerTableRecord
  2
0
 70
     0
 62
     7
  6
CONTINUOUS
  0
LAYER
  5
5E
330
2
100
AcDbSymbolTableRecord
100
AcDbLayerTableRecord
  2
LAYER_1
 70
     0
 62
     7
  6
CONTINUOUS
  0
ENDTAB
  0
TABLE
  2
STYLE
  5
3
330
0
100
AcDbSymbolTable
 70
     1
  0
STYLE
  5
11
330
3
100
AcDbSymbolTableRecord
100
AcDbTextStyleTableRecord
  2
STANDARD
 70
     0
 40
0.0
 41
1.0
 50
0.0
 71
     0
 42
0.2
  3
txt
  4

  0
ENDTAB
  0
TABLE
  2
VIEW
  5
6
330
0
100
AcDbSymbolTable
 70
     0
  0
ENDTAB
  0
TABLE
  2
UCS
  5
7
330
0
100
AcDbSymbolTable
 70
     0
  0
ENDTAB
  0
TABLE
  2
APPID
  5
9
330
0
100
AcDbSymbolTable
 70
     2
  0
APPID
  5
12
330
9
100
AcDbSymbolTableRecord
100
AcDbRegAppTableRecord
  2
ACAD
 70
     0
  0
APPID
  5
5D
330
9
100
AcDbSymbolTableRecord
100
AcDbRegAppTableRecord
  2
ODA
 70
     0
  0
ENDTAB
  0
TABLE
  2
DIMSTYLE
  5
A
330
0
100
AcDbSymbolTable
 70
     1
  0
DIMSTYLE
105
27
330
A
100
AcDbSymbolTableRecord
100
AcDbDimStyleTableRecord
  2
STANDARD
 70
     0
  3

  4

  5

  6

  7

 40
1.0
 41
0.18
 42
0.0625
 43
0.38
 44
0.18
 45
0.0
 46
0.0
 47
0.0
 48
0.0
140
0.18
141
0.09
142
0.0
143
25.4
144
1.0
145
0.0
146
1.0
147
0.09
 71
     0
 72
     0
 73
     1
 74
     1
 75
     0
 76
     0
 77
     0
 78
     0
170
     0
171
     2
172
     0
173
     0
174
     0
175
     0
176
     0
177
     0
178
     0
270
     2
271
     4
272
     4
273
     2
274
     2
340
11
275
     0
280
     0
281
     0
282
     0
283
     1
284
     0
285
     0
286
     0
287
     3
288
     0
  0
ENDTAB
  0
TABLE
  2
BLOCK_RECORD
  5
1
330
0
100
AcDbSymbolTable
 70
     1
  0
BLOCK_RECORD
  5
1F
330
1
100
AcDbSymbolTableRecord
100
AcDbBlockTableRecord
  2
*MODEL_SPACE
  0
BLOCK_RECORD
  5
1B
330
1
100
AcDbSymbolTableRecord
100
AcDbBlockTableRecord
  2
*PAPER_SPACE
  0
ENDTAB
  0
ENDSEC
  0
SECTION
  2
BLOCKS
  0
BLOCK
  5
20
330
1F
100
AcDbEntity
  8
0
100
AcDbBlockBegin
  2
*MODEL_SPACE
 70
     0
 10
0.0
 20
0.0
 30
0.0
  3
*MODEL_SPACE
  1

  0
ENDBLK
  5
21
330
1F
100
AcDbEntity
  8
0
100
AcDbBlockEnd
  0
BLOCK
  5
1C
330
1B
100
AcDbEntity
 67
     1
  8
0
100
AcDbBlockBegin
  2
*PAPER_SPACE
 70
     0
 10
0.0
 20
0.0
 30
0.0
  3
*PAPER_SPACE
  1

  0
ENDBLK
  5
1D
330
1B
100
AcDbEntity
 67
     1
  8
0
100
AcDbBlockEnd
  0
ENDSEC
  0
SECTION
  2
ENTITIES
  0
LWPOLYLINE
  5
5F
330
1F
100
AcDbEntity
  8
LAYER_1
 62
     7
100
AcDbPolyline
 90
        5
 70
     1
 43
0.0
 10
-117.5
 20
-161.0
 10
-92.5
 20
-161.0
 10
-92.5
 20
-136.0
 10
-117.5
 20
-136.0
 10
-117.5
 20
-161.0
  0
LWPOLYLINE
  5
60
330
1F
100
AcDbEntity
  8
LAYER_1
 62
     7
100
AcDbPolyline
 90
        5
 70
     1
 43
0.0
 10
-108.1
 20
-154.3855
 10
-101.9
 20
-154.3855
 10
-101.9
 20
-148.1855
 10
-108.1
 20
-148.1855
 10
-108.1
 20
-154.3855
  0
ELLIPSE
  5
61
330
1F
100
AcDbEntity
  8
LAYER_1
 62
     7
100
AcDbEllipse
 10
-105.0
 20
-151.2855
 30
0.0
 11
0.0
 21
1.5
 31
0.0
210
0.0
220
0.0
230
1.0
 40
1.0
 41
0.0
 42
6.283185307179586
  0
LWPOLYLINE
  5
62
330
1F
100
AcDbEntity
  8
LAYER_1
 62
     7
100
AcDbPolyline
 90
        5
 70
     1
 43
0.0
 10
-108.75
 20
-149.5355
 10
-107.75
 20
-149.5355
 10
-107.75
 20
-148.5355
 10
-108.75
 20
-148.5355
 10
-108.75
 20
-149.5355
  0
LWPOLYLINE
  5
63
330
1F
100
AcDbEntity
  8
LAYER_1
 62
     7
100
AcDbPolyline
 90
        5
 70
     1
 43
0.0
 10
-102.25
 20
-149.5355
 10
-101.25
 20
-149.5355
 10
-101.25
 20
-148.5355
 10
-102.25
 20
-148.5355
 10
-102.25
 20
-149.5355
  0
LWPOLYLINE
  5
64
330
1F
100
AcDbEntity
  8
LAYER_1
 62
     7
100
AcDbPolyline
 90
        5
 70
     1
 43
0.0
 10
-102.25
 20
-154.0355
 10
-101.25
 20
-154.0355
 10
-101.25
 20
-153.0355
 10
-102.25
 20
-153.0355
 10
-102.25
 20
-154.0355
  0
LWPOLYLINE
  5
65
330
1F
100
AcDbEntity
  8
LAYER_1
 62
     7
100
AcDbPolyline
 90
        5
 70
     1
 43
0.0
 10
-108.75
 20
-154.0355
 10
-107.75
 20
-154.0355
 10
-107.75
 20
-153.0355
 10
-108.75
 20
-153.0355
 10
-108.75
 20
-154.0355
  0
SPLINE
  5
66
330
1F
100
AcDbEntity
  8
LAYER_1
100
AcDbSpline
210
0.0
220
0.0
230
1.0
 70
    11
 71
     3
 72
    36
 73
    32
 74
     0
 42
0.0000000001
 43
0.0000000001
 40
0.0
 40
0.0
 40
0.0
 40
0.0
 40
0.125
 40
0.125
 40
0.125
 40
0.125
 40
0.25
 40
0.25
 40
0.25
 40
0.25
 40
0.375
 40
0.375
 40
0.375
 40
0.375
 40
0.5
 40
0.5
 40
0.5
 40
0.5
 40
0.625
 40
0.625
 40
0.625
 40
0.625
 40
0.75
 40
0.75
 40
0.75
 40
0.75
 40
0.875
 40
0.875
 40
0.875
 40
0.875
 40
1.0
 40
1.0
 40
1.0
 40
1.0
 10
-106.6964
 20
-141.3023
 30
0.0
 10
-106.743
 20
-141.3023
 30
0.0
 10
-106.7778
 20
-141.3174
 30
0.0
 10
-106.8008
 20
-141.3475
 30
0.0
 10
-106.8008
 20
-141.3475
 30
0.0
 10
-106.8241
 20
-141.3776
 30
0.0
 10
-106.8356
 20
-141.4228
 30
0.0
 10
-106.8356
 20
-141.4827
 30
0.0
 10
-106.8356
 20
-141.4827
 30
0.0
 10
-106.8356
 20
-141.5429
 30
0.0
 10
-106.8241
 20
-141.5881
 30
0.0
 10
-106.8008
 20
-141.6182
 30
0.0
 10
-106.8008
 20
-141.6182
 30
0.0
 10
-106.7778
 20
-141.6483
 30
0.0
 10
-106.743
 20
-141.6633
 30
0.0
 10
-106.6964
 20
-141.6633
 30
0.0
 10
-106.6964
 20
-141.6633
 30
0.0
 10
-106.6496
 20
-141.6633
 30
0.0
 10
-106.6146
 20
-141.6483
 30
0.0
 10
-106.5915
 20
-141.6182
 30
0.0
 10
-106.5915
 20
-141.6182
 30
0.0
 10
-106.5682
 20
-141.5881
 30
0.0
 10
-106.5567
 20
-141.5429
 30
0.0
 10
-106.5567
 20
-141.4827
 30
0.0
 10
-106.5567
 20
-141.4827
 30
0.0
 10
-106.5567
 20
-141.4228
 30
0.0
 10
-106.5682
 20
-141.3776
 30
0.0
 10
-106.5915
 20
-141.3475
 30
0.0
 10
-106.5915
 20
-141.3475
 30
0.0
 10
-106.6146
 20
-141.3174
 30
0.0
 10
-106.6496
 20
-141.3023
 30
0.0
 10
-106.6964
 20
-141.3023
 30
0.0
  0
SPLINE
  5
67
330
1F
100
AcDbEntity
  8
LAYER_1
100
AcDbSpline
210
0.0
220
0.0
230
1.0
 70
    11
 71
     3
 72
    72
 73
    68
 74
     0
 42
0.0000000001
 43
0.0000000001
 40
0.0
 40
0.0
 40
0.0
 40
0.0
 40
0.0588235294117647
 40
0.0588235294117647
 40
0.0588235294117647
 40
0.0588235294117647
 40
0.1176470588235294
 40
0.1176470588235294
 40
0.1176470588235294
 40
0.1176470588235294
 40
0.1764705882352941
 40
0.1764705882352941
 40
0.1764705882352941
 40
0.1764705882352941
 40
0.2352941176470588
 40
0.2352941176470588
 40
0.2352941176470588
 40
0.2352941176470588
 40
0.2941176470588235
 40
0.2941176470588235
 40
0.2941176470588235
 40
0.2941176470588235
 40
0.3529411764705883
 40
0.3529411764705883
 40
0.3529411764705883
 40
0.3529411764705883
 40
0.411764705882353
 40
0.411764705882353
 40
0.411764705882353
 40
0.411764705882353
 40
0.4705882352941177
 40
0.4705882352941177
 40
0.4705882352941177
 40
0.4705882352941177
 40
0.5294117647058824
 40
0.5294117647058824
 40
0.5294117647058824
 40
0.5294117647058824
 40
0.5882352941176471
 40
0.5882352941176471
 40
0.5882352941176471
 40
0.5882352941176471
 40
0.6470588235294118
 40
0.6470588235294118
 40
0.6470588235294118
 40
0.6470588235294118
 40
0.7058823529411765
 40
0.7058823529411765
 40
0.7058823529411765
 40
0.7058823529411765
 40
0.7647058823529412
 40
0.7647058823529412
 40
0.7647058823529412
 40
0.7647058823529412
 40
0.823529411764706
 40
0.823529411764706
 40
0.823529411764706
 40
0.823529411764706
 40
0.8823529411764707
 40
0.8823529411764707
 40
0.8823529411764707
 40
0.8823529411764707
 40
0.9411764705882354
 40
0.9411764705882354
 40
0.9411764705882354
 40
0.9411764705882354
 40
1.0
 40
1.0
 40
1.0
 40
1.0
 10
-106.3686
 20
-140.8082
 30
0.0
 10
-106.3686
 20
-140.8082
 30
0.0
 10
-106.3686
 20
-140.9985
 30
0.0
 10
-106.3686
 20
-140.9985
 30
0.0
 10
-106.3686
 20
-140.9985
 30
0.0
 10
-106.4123
 20
-140.9778
 30
0.0
 10
-106.4532
 20
-140.9625
 30
0.0
 10
-106.4918
 20
-140.9526
 30
0.0
 10
-106.4918
 20
-140.9526
 30
0.0
 10
-106.5304
 20
-140.9427
 30
0.0
 10
-106.5682
 20
-140.9378
 30
0.0
 10
-106.6049
 20
-140.9378
 30
0.0
 10
-106.6049
 20
-140.9378
 30
0.0
 10
-106.684
 20
-140.9378
 30
0.0
 10
-106.7453
 20
-140.9597
 30
0.0
 10
-106.7895
 20
-141.0037
 30
0.0
 10
-106.7895
 20
-141.0037
 30
0.0
 10
-106.8335
 20
-141.0474
 30
0.0
 10
-106.8594
 20
-141.1125
 30
0.0
 10
-106.8667
 20
-141.1989
 30
0.0
 10
-106.8667
 20
-141.1989
 30
0.0
 10
-106.8364
 20
-141.1765
 30
0.0
 10
-106.8034
 20
-141.1596
 30
0.0
 10
-106.7681
 20
-141.1483
 30
0.0
 10
-106.7681
 20
-141.1483
 30
0.0
 10
-106.7329
 20
-141.137
 30
0.0
 10
-106.6943
 20
-141.1314
 30
0.0
 10
-106.6524
 20
-141.1314
 30
0.0
 10
-106.6524
 20
-141.1314
 30
0.0
 10
-106.5473
 20
-141.1314
 30
0.0
 10
-106.4624
 20
-141.1622
 30
0.0
 10
-106.398
 20
-141.2238
 30
0.0
 10
-106.398
 20
-141.2238
 30
0.0
 10
-106.3333
 20
-141.2852
 30
0.0
 10
-106.3011
 20
-141.3658
 30
0.0
 10
-106.3011
 20
-141.4656
 30
0.0
 10
-106.3011
 20
-141.4656
 30
0.0
 10
-106.3011
 20
-141.5759
 30
0.0
 10
-106.3371
 20
-141.6641
 30
0.0
 10
-106.4093
 20
-141.7306
 30
0.0
 10
-106.4093
 20
-141.7306
 30
0.0
 10
-106.4812
 20
-141.7969
 30
0.0
 10
-106.5781
 20
-141.8301
 30
0.0
 10
-106.6992
 20
-141.8301
 30
0.0
 10
-106.6992
 20
-141.8301
 30
0.0
 10
-106.8328
 20
-141.8301
 30
0.0
 10
-106.9363
 20
-141.7849
 30
0.0
 10
-107.0097
 20
-141.6946
 30
0.0
 10
-107.0097
 20
-141.6946
 30
0.0
 10
-107.0828
 20
-141.6045
 30
0.0
 10
-107.1195
 20
-141.4764
 30
0.0
 10
-107.1195
 20
-141.3106
 30
0.0
 10
-107.1195
 20
-141.3106
 30
0.0
 10
-107.1195
 20
-141.1408
 30
0.0
 10
-107.0767
 20
-141.0072
 30
0.0
 10
-106.9911
 20
-140.9101
 30
0.0
 10
-106.9911
 20
-140.9101
 30
0.0
 10
-106.9053
 20
-140.8129
 30
0.0
 10
-106.7879
 20
-140.7642
 30
0.0
 10
-106.6386
 20
-140.7642
 30
0.0
 10
-106.6386
 20
-140.7642
 30
0.0
 10
-106.5913
 20
-140.7642
 30
0.0
 10
-106.5454
 20
-140.768
 30
0.0
 10
-106.5007
 20
-140.7753
 30
0.0
 10
-106.5007
 20
-140.7753
 30
0.0
 10
-106.4563
 20
-140.7826
 30
0.0
 10
-106.4123
 20
-140.7936
 30
0.0
 10
-106.3686
 20
-140.8082
 30
0.0
  0
SPLINE
  5
68
330
1F
100
AcDbEntity
  8
LAYER_1
100
AcDbSpline
210
0.0
220
0.0
230
1.0
 70
    11
 71
     3
 72
   120
 73
   116
 74
     0
 42
0.0000000001
 43
0.0000000001
 40
0.0
 40
0.0
 40
0.0
 40
0.0
 40
0.0344827586206897
 40
0.0344827586206897
 40
0.0344827586206897
 40
0.0344827586206897
 40
0.0689655172413793
 40
0.0689655172413793
 40
0.0689655172413793
 40
0.0689655172413793
 40
0.103448275862069
 40
0.103448275862069
 40
0.103448275862069
 40
0.103448275862069
 40
0.1379310344827586
 40
0.1379310344827586
 40
0.1379310344827586
 40
0.1379310344827586
 40
0.1724137931034483
 40
0.1724137931034483
 40
0.1724137931034483
 40
0.1724137931034483
 40
0.206896551724138
 40
0.206896551724138
 40
0.206896551724138
 40
0.206896551724138
 40
0.2413793103448276
 40
0.2413793103448276
 40
0.2413793103448276
 40
0.2413793103448276
 40
0.2758620689655173
 40
0.2758620689655173
 40
0.2758620689655173
 40
0.2758620689655173
 40
0.310344827586207
 40
0.310344827586207
 40
0.310344827586207
 40
0.310344827586207
 40
0.3448275862068966
 40
0.3448275862068966
 40
0.3448275862068966
 40
0.3448275862068966
 40
0.3793103448275863
 40
0.3793103448275863
 40
0.3793103448275863
 40
0.3793103448275863
 40
0.413793103448276
 40
0.413793103448276
 40
0.413793103448276
 40
0.413793103448276
 40
0.4482758620689656
 40
0.4482758620689656
 40
0.4482758620689656
 40
0.4482758620689656
 40
0.4827586206896553
 40
0.4827586206896553
 40
0.4827586206896553
 40
0.4827586206896553
 40
0.517241379310345
 40
0.517241379310345
 40
0.517241379310345
 40
0.517241379310345
 40
0.5517241379310346
 40
0.5517241379310346
 40
0.5517241379310346
 40
0.5517241379310346
 40
0.5862068965517242
 40
0.5862068965517242
 40
0.5862068965517242
 40
0.5862068965517242
 40
0.6206896551724138
 40
0.6206896551724138
 40
0.6206896551724138
 40
0.6206896551724138
 40
0.6551724137931034
 40
0.6551724137931034
 40
0.6551724137931034
 40
0.6551724137931034
 40
0.689655172413793
 40
0.689655172413793
 40
0.689655172413793
 40
0.689655172413793
 40
0.7241379310344827
 40
0.7241379310344827
 40
0.7241379310344827
 40
0.7241379310344827
 40
0.7586206896551723
 40
0.7586206896551723
 40
0.7586206896551723
 40
0.7586206896551723
 40
0.7931034482758619
 40
0.7931034482758619
 40
0.7931034482758619
 40
0.7931034482758619
 40
0.8275862068965515
 40
0.8275862068965515
 40
0.8275862068965515
 40
0.8275862068965515
 40
0.8620689655172411
 40
0.8620689655172411
 40
0.8620689655172411
 40
0.8620689655172411
 40
0.8965517241379307
 40
0.8965517241379307
 40
0.8965517241379307
 40
0.8965517241379307
 40
0.9310344827586203
 40
0.9310344827586203
 40
0.9310344827586203
 40
0.9310344827586203
 40
0.9655172413793099
 40
0.9655172413793099
 40
0.9655172413793099
 40
0.9655172413793099
 40
1.0
 40
1.0
 40
1.0
 40
1.0
 10
-104.9001
 20
-141.1666
 30
0.0
 10
-104.8688
 20
-141.1189
 30
0.0
 10
-104.8319
 20
-141.0824
 30
0.0
 10
-104.7888
 20
-141.0575
 30
0.0
 10
-104.7888
 20
-141.0575
 30
0.0
 10
-104.7458
 20
-141.0323
 30
0.0
 10
-104.6988
 20
-141.0199
 30
0.0
 10
-104.6473
 20
-141.0199
 30
0.0
 10
-104.6473
 20
-141.0199
 30
0.0
 10
-104.5586
 20
-141.0199
 30
0.0
 10
-104.4911
 20
-141.0472
 30
0.0
 10
-104.4448
 20
-141.102
 30
0.0
 10
-104.4448
 20
-141.102
 30
0.0
 10
-104.3984
 20
-141.1565
 30
0.0
 10
-104.3751
 20
-141.236
 30
0.0
 10
-104.3751
 20
-141.3402
 30
0.0
 10
-104.3751
 20
-141.3402
 30
0.0
 10
-104.3751
 20
-141.3402
 30
0.0
 10
-104.3751
 20
-141.8101
 30
0.0
 10
-104.3751
 20
-141.8101
 30
0.0
 10
-104.3751
 20
-141.8101
 30
0.0
 10
-104.3751
 20
-141.8101
 30
0.0
 10
-104.6233
 20
-141.8101
 30
0.0
 10
-104.6233
 20
-141.8101
 30
0.0
 10
-104.6233
 20
-141.8101
 30
0.0
 10
-104.6233
 20
-141.8101
 30
0.0
 10
-104.6233
 20
-141.4077
 30
0.0
 10
-104.6233
 20
-141.4077
 30
0.0
 10
-104.6233
 20
-141.4077
 30
0.0
 10
-104.6228
 20
-141.4018
 30
0.0
 10
-104.6226
 20
-141.3957
 30
0.0
 10
-104.6223
 20
-141.3891
 30
0.0
 10
-104.6223
 20
-141.3891
 30
0.0
 10
-104.6221
 20
-141.3828
 30
0.0
 10
-104.6219
 20
-141.3736
 30
0.0
 10
-104.6219
 20
-141.3616
 30
0.0
 10
-104.6219
 20
-141.3616
 30
0.0
 10
-104.6219
 20
-141.307
 30
0.0
 10
-104.6298
 20
-141.2673
 30
0.0
 10
-104.6461
 20
-141.2428
 30
0.0
 10
-104.6461
 20
-141.2428
 30
0.0
 10
-104.6621
 20
-141.2181
 30
0.0
 10
-104.6879
 20
-141.2059
 30
0.0
 10
-104.7237
 20
-141.2059
 30
0.0
 10
-104.7237
 20
-141.2059
 30
0.0
 10
-104.7707
 20
-141.2059
 30
0.0
 10
-104.8067
 20
-141.2252
 30
0.0
 10
-104.8323
 20
-141.2638
 30
0.0
 10
-104.8323
 20
-141.2638
 30
0.0
 10
-104.8577
 20
-141.3023
 30
0.0
 10
-104.8709
 20
-141.3581
 30
0.0
 10
-104.8719
 20
-141.4312
 30
0.0
 10
-104.8719
 20
-141.4312
 30
0.0
 10
-104.8719
 20
-141.4312
 30
0.0
 10
-104.8719
 20
-141.8101
 30
0.0
 10
-104.8719
 20
-141.8101
 30
0.0
 10
-104.8719
 20
-141.8101
 30
0.0
 10
-104.8719
 20
-141.8101
 30
0.0
 10
-105.12
 20
-141.8101
 30
0.0
 10
-105.12
 20
-141.8101
 30
0.0
 10
-105.12
 20
-141.8101
 30
0.0
 10
-105.12
 20
-141.8101
 30
0.0
 10
-105.12
 20
-141.4077
 30
0.0
 10
-105.12
 20
-141.4077
 30
0.0
 10
-105.12
 20
-141.4077
 30
0.0
 10
-105.12
 20
-141.3223
 30
0.0
 10
-105.1273
 20
-141.2673
 30
0.0
 10
-105.1421
 20
-141.2428
 30
0.0
 10
-105.1421
 20
-141.2428
 30
0.0
 10
-105.1567
 20
-141.2181
 30
0.0
 10
-105.1828
 20
-141.2059
 30
0.0
 10
-105.2204
 20
-141.2059
 30
0.0
 10
-105.2204
 20
-141.2059
 30
0.0
 10
-105.2679
 20
-141.2059
 30
0.0
 10
-105.3044
 20
-141.2254
 30
0.0
 10
-105.33
 20
-141.2642
 30
0.0
 10
-105.33
 20
-141.2642
 30
0.0
 10
-105.3556
 20
-141.303
 30
0.0
 10
-105.3686
 20
-141.3583
 30
0.0
 10
-105.3686
 20
-141.4305
 30
0.0
 10
-105.3686
 20
-141.4305
 30
0.0
 10
-105.3686
 20
-141.4305
 30
0.0
 10
-105.3686
 20
-141.8101
 30
0.0
 10
-105.3686
 20
-141.8101
 30
0.0
 10
-105.3686
 20
-141.8101
 30
0.0
 10
-105.3686
 20
-141.8101
 30
0.0
 10
-105.6167
 20
-141.8101
 30
0.0
 10
-105.6167
 20
-141.8101
 30
0.0
 10
-105.6167
 20
-141.8101
 30
0.0
 10
-105.6167
 20
-141.8101
 30
0.0
 10
-105.6167
 20
-141.0385
 30
0.0
 10
-105.6167
 20
-141.0385
 30
0.0
 10
-105.6167
 20
-141.0385
 30
0.0
 10
-105.6167
 20
-141.0385
 30
0.0
 10
-105.3686
 20
-141.0385
 30
0.0
 10
-105.3686
 20
-141.0385
 30
0.0
 10
-105.3686
 20
-141.0385
 30
0.0
 10
-105.3686
 20
-141.0385
 30
0.0
 10
-105.3686
 20
-141.1516
 30
0.0
 10
-105.3686
 20
-141.1516
 30
0.0
 10
-105.3686
 20
-141.1516
 30
0.0
 10
-105.3382
 20
-141.1078
 30
0.0
 10
-105.3034
 20
-141.0752
 30
0.0
 10
-105.2641
 20
-141.053
 30
0.0
 10
-105.2641
 20
-141.053
 30
0.0
 10
-105.2249
 20
-141.0309
 30
0.0
 10
-105.1816
 20
-141.0199
 30
0.0
 10
-105.1343
 20
-141.0199
 30
0.0
 10
-105.1343
 20
-141.0199
 30
0.0
 10
-105.0812
 20
-141.0199
 30
0.0
 10
-105.0339
 20
-141.0328
 30
0.0
 10
-104.9932
 20
-141.0585
 30
0.0
 10
-104.9932
 20
-141.0585
 30
0.0
 10
-104.9523
 20
-141.0843
 30
0.0
 10
-104.9212
 20
-141.1203
 30
0.0
 10
-104.9001
 20
-141.1666
 30
0.0
  0
SPLINE
  5
69
330
1F
100
AcDbEntity
  8
LAYER_1
100
AcDbSpline
210
0.0
220
0.0
230
1.0
 70
    11
 71
     3
 72
   120
 73
   116
 74
     0
 42
0.0000000001
 43
0.0000000001
 40
0.0
 40
0.0
 40
0.0
 40
0.0
 40
0.0344827586206897
 40
0.0344827586206897
 40
0.0344827586206897
 40
0.0344827586206897
 40
0.0689655172413793
 40
0.0689655172413793
 40
0.0689655172413793
 40
0.0689655172413793
 40
0.103448275862069
 40
0.103448275862069
 40
0.103448275862069
 40
0.103448275862069
 40
0.1379310344827586
 40
0.1379310344827586
 40
0.1379310344827586
 40
0.1379310344827586
 40
0.1724137931034483
 40
0.1724137931034483
 40
0.1724137931034483
 40
0.1724137931034483
 40
0.206896551724138
 40
0.206896551724138
 40
0.206896551724138
 40
0.206896551724138
 40
0.2413793103448276
 40
0.2413793103448276
 40
0.2413793103448276
 40
0.2413793103448276
 40
0.2758620689655173
 40
0.2758620689655173
 40
0.2758620689655173
 40
0.2758620689655173
 40
0.310344827586207
 40
0.310344827586207
 40
0.310344827586207
 40
0.310344827586207
 40
0.3448275862068966
 40
0.3448275862068966
 40
0.3448275862068966
 40
0.3448275862068966
 40
0.3793103448275863
 40
0.3793103448275863
 40
0.3793103448275863
 40
0.3793103448275863
 40
0.413793103448276
 40
0.413793103448276
 40
0.413793103448276
 40
0.413793103448276
 40
0.4482758620689656
 40
0.4482758620689656
 40
0.4482758620689656
 40
0.4482758620689656
 40
0.4827586206896553
 40
0.4827586206896553
 40
0.4827586206896553
 40
0.4827586206896553
 40
0.517241379310345
 40
0.517241379310345
 40
0.517241379310345
 40
0.517241379310345
 40
0.5517241379310346
 40
0.5517241379310346
 40
0.5517241379310346
 40
0.5517241379310346
 40
0.5862068965517242
 40
0.5862068965517242
 40
0.5862068965517242
 40
0.5862068965517242
 40
0.6206896551724138
 40
0.6206896551724138
 40
0.6206896551724138
 40
0.6206896551724138
 40
0.6551724137931034
 40
0.6551724137931034
 40
0.6551724137931034
 40
0.6551724137931034
 40
0.689655172413793
 40
0.689655172413793
 40
0.689655172413793
 40
0.689655172413793
 40
0.7241379310344827
 40
0.7241379310344827
 40
0.7241379310344827
 40
0.7241379310344827
 40
0.7586206896551723
 40
0.7586206896551723
 40
0.7586206896551723
 40
0.7586206896551723
 40
0.7931034482758619
 40
0.7931034482758619
 40
0.7931034482758619
 40
0.7931034482758619
 40
0.8275862068965515
 40
0.8275862068965515
 40
0.8275862068965515
 40
0.8275862068965515
 40
0.8620689655172411
 40
0.8620689655172411
 40
0.8620689655172411
 40
0.8620689655172411
 40
0.8965517241379307
 40
0.8965517241379307
 40
0.8965517241379307
 40
0.8965517241379307
 40
0.9310344827586203
 40
0.9310344827586203
 40
0.9310344827586203
 40
0.9310344827586203
 40
0.9655172413793099
 40
0.9655172413793099
 40
0.9655172413793099
 40
0.9655172413793099
 40
1.0
 40
1.0
 40
1.0
 40
1.0
 10
-103.4297
 20
-141.1666
 30
0.0
 10
-103.3984
 20
-141.1189
 30
0.0
 10
-103.3615
 20
-141.0824
 30
0.0
 10
-103.3184
 20
-141.0575
 30
0.0
 10
-103.3184
 20
-141.0575
 30
0.0
 10
-103.2754
 20
-141.0323
 30
0.0
 10
-103.2284
 20
-141.0199
 30
0.0
 10
-103.1769
 20
-141.0199
 30
0.0
 10
-103.1769
 20
-141.0199
 30
0.0
 10
-103.0882
 20
-141.0199
 30
0.0
 10
-103.0207
 20
-141.0472
 30
0.0
 10
-102.9744
 20
-141.102
 30
0.0
 10
-102.9744
 20
-141.102
 30
0.0
 10
-102.928
 20
-141.1565
 30
0.0
 10
-102.9047
 20
-141.236
 30
0.0
 10
-102.9047
 20
-141.3402
 30
0.0
 10
-102.9047
 20
-141.3402
 30
0.0
 10
-102.9047
 20
-141.3402
 30
0.0
 10
-102.9047
 20
-141.8101
 30
0.0
 10
-102.9047
 20
-141.8101
 30
0.0
 10
-102.9047
 20
-141.8101
 30
0.0
 10
-102.9047
 20
-141.8101
 30
0.0
 10
-103.1529
 20
-141.8101
 30
0.0
 10
-103.1529
 20
-141.8101
 30
0.0
 10
-103.1529
 20
-141.8101
 30
0.0
 10
-103.1529
 20
-141.8101
 30
0.0
 10
-103.1529
 20
-141.4077
 30
0.0
 10
-103.1529
 20
-141.4077
 30
0.0
 10
-103.1529
 20
-141.4077
 30
0.0
 10
-103.1524
 20
-141.4018
 30
0.0
 10
-103.1522
 20
-141.3957
 30
0.0
 10
-103.1519
 20
-141.3891
 30
0.0
 10
-103.1519
 20
-141.3891
 30
0.0
 10
-103.1517
 20
-141.3828
 30
0.0
 10
-103.1515
 20
-141.3736
 30
0.0
 10
-103.1515
 20
-141.3616
 30
0.0
 10
-103.1515
 20
-141.3616
 30
0.0
 10
-103.1515
 20
-141.307
 30
0.0
 10
-103.1594
 20
-141.2673
 30
0.0
 10
-103.1757
 20
-141.2428
 30
0.0
 10
-103.1757
 20
-141.2428
 30
0.0
 10
-103.1917
 20
-141.2181
 30
0.0
 10
-103.2175
 20
-141.2059
 30
0.0
 10
-103.2533
 20
-141.2059
 30
0.0
 10
-103.2533
 20
-141.2059
 30
0.0
 10
-103.3003
 20
-141.2059
 30
0.0
 10
-103.3363
 20
-141.2252
 30
0.0
 10
-103.3619
 20
-141.2638
 30
0.0
 10
-103.3619
 20
-141.2638
 30
0.0
 10
-103.3873
 20
-141.3023
 30
0.0
 10
-103.4005
 20
-141.3581
 30
0.0
 10
-103.4015
 20
-141.4312
 30
0.0
 10
-103.4015
 20
-141.4312
 30
0.0
 10
-103.4015
 20
-141.4312
 30
0.0
 10
-103.4015
 20
-141.8101
 30
0.0
 10
-103.4015
 20
-141.8101
 30
0.0
 10
-103.4015
 20
-141.8101
 30
0.0
 10
-103.4015
 20
-141.8101
 30
0.0
 10
-103.6496
 20
-141.8101
 30
0.0
 10
-103.6496
 20
-141.8101
 30
0.0
 10
-103.6496
 20
-141.8101
 30
0.0
 10
-103.6496
 20
-141.8101
 30
0.0
 10
-103.6496
 20
-141.4077
 30
0.0
 10
-103.6496
 20
-141.4077
 30
0.0
 10
-103.6496
 20
-141.4077
 30
0.0
 10
-103.6496
 20
-141.3223
 30
0.0
 10
-103.6569
 20
-141.2673
 30
0.0
 10
-103.6717
 20
-141.2428
 30
0.0
 10
-103.6717
 20
-141.2428
 30
0.0
 10
-103.6863
 20
-141.2181
 30
0.0
 10
-103.7124
 20
-141.2059
 30
0.0
 10
-103.75
 20
-141.2059
 30
0.0
 10
-103.75
 20
-141.2059
 30
0.0
 10
-103.7975
 20
-141.2059
 30
0.0
 10
-103.834
 20
-141.2254
 30
0.0
 10
-103.8596
 20
-141.2642
 30
0.0
 10
-103.8596
 20
-141.2642
 30
0.0
 10
-103.8852
 20
-141.303
 30
0.0
 10
-103.8982
 20
-141.3583
 30
0.0
 10
-103.8982
 20
-141.4305
 30
0.0
 10
-103.8982
 20
-141.4305
 30
0.0
 10
-103.8982
 20
-141.4305
 30
0.0
 10
-103.8982
 20
-141.8101
 30
0.0
 10
-103.8982
 20
-141.8101
 30
0.0
 10
-103.8982
 20
-141.8101
 30
0.0
 10
-103.8982
 20
-141.8101
 30
0.0
 10
-104.1463
 20
-141.8101
 30
0.0
 10
-104.1463
 20
-141.8101
 30
0.0
 10
-104.1463
 20
-141.8101
 30
0.0
 10
-104.1463
 20
-141.8101
 30
0.0
 10
-104.1463
 20
-141.0385
 30
0.0
 10
-104.1463
 20
-141.0385
 30
0.0
 10
-104.1463
 20
-141.0385
 30
0.0
 10
-104.1463
 20
-141.0385
 30
0.0
 10
-103.8982
 20
-141.0385
 30
0.0
 10
-103.8982
 20
-141.0385
 30
0.0
 10
-103.8982
 20
-141.0385
 30
0.0
 10
-103.8982
 20
-141.0385
 30
0.0
 10
-103.8982
 20
-141.1516
 30
0.0
 10
-103.8982
 20
-141.1516
 30
0.0
 10
-103.8982
 20
-141.1516
 30
0.0
 10
-103.8678
 20
-141.1078
 30
0.0
 10
-103.833
 20
-141.0752
 30
0.0
 10
-103.7937
 20
-141.053
 30
0.0
 10
-103.7937
 20
-141.053
 30
0.0
 10
-103.7545
 20
-141.0309
 30
0.0
 10
-103.7112
 20
-141.0199
 30
0.0
 10
-103.6639
 20
-141.0199
 30
0.0
 10
-103.6639
 20
-141.0199
 30
0.0
 10
-103.6108
 20
-141.0199
 30
0.0
 10
-103.5635
 20
-141.0328
 30
0.0
 10
-103.5228
 20
-141.0585
 30
0.0
 10
-103.5228
 20
-141.0585
 30
0.0
 10
-103.4819
 20
-141.0843
 30
0.0
 10
-103.4508
 20
-141.1203
 30
0.0
 10
-103.4297
 20
-141.1666
 30
0.0
  0
SPLINE
  5
6A
330
1F
100
AcDbEntity
  8
LAYER_1
100
AcDbSpline
210
0.0
220
0.0
230
1.0
 70
    11
 71
     3
 72
    40
 73
    36
 74
     0
 42
0.0000000001
 43
0.0000000001
 40
0.0
 40
0.0
 40
0.0
 40
0.0
 40
0.1111111111111111
 40
0.1111111111111111
 40
0.1111111111111111
 40
0.1111111111111111
 40
0.2222222222222222
 40
0.2222222222222222
 40
0.2222222222222222
 40
0.2222222222222222
 40
0.3333333333333333
 40
0.3333333333333333
 40
0.3333333333333333
 40
0.3333333333333333
 40
0.4444444444444444
 40
0.4444444444444444
 40
0.4444444444444444
 40
0.4444444444444444
 40
0.5555555555555556
 40
0.5555555555555556
 40
0.5555555555555556
 40
0.5555555555555556
 40
0.6666666666666667
 40
0.6666666666666667
 40
0.6666666666666667
 40
0.6666666666666667
 40
0.7777777777777779
 40
0.7777777777777779
 40
0.7777777777777779
 40
0.7777777777777779
 40
0.8888888888888891
 40
0.8888888888888891
 40
0.8888888888888891
 40
0.8888888888888891
 40
1.0
 40
1.0
 40
1.0
 40
1.0
 10
-114.3949
 20
-142.4239
 30
0.0
 10
-114.3949
 20
-142.4239
 30
0.0
 10
-113.9547
 20
-142.4239
 30
0.0
 10
-113.9547
 20
-142.4239
 30
0.0
 10
-113.9547
 20
-142.4239
 30
0.0
 10
-113.8237
 20
-142.4239
 30
0.0
 10
-113.7232
 20
-142.4531
 30
0.0
 10
-113.6531
 20
-142.5112
 30
0.0
 10
-113.6531
 20
-142.5112
 30
0.0
 10
-113.5831
 20
-142.5693
 30
0.0
 10
-113.548
 20
-142.652
 30
0.0
 10
-113.548
 20
-142.7595
 30
0.0
 10
-113.548
 20
-142.7595
 30
0.0
 10
-113.548
 20
-142.8672
 30
0.0
 10
-113.5831
 20
-142.9502
 30
0.0
 10
-113.6531
 20
-143.0083
 30
0.0
 10
-113.6531
 20
-143.0083
 30
0.0
 10
-113.7232
 20
-143.0664
 30
0.0
 10
-113.8237
 20
-143.0956
 30
0.0
 10
-113.9547
 20
-143.0956
 30
0.0
 10
-113.9547
 20
-143.0956
 30
0.0
 10
-113.9547
 20
-143.0956
 30
0.0
 10
-114.1296
 20
-143.0956
 30
0.0
 10
-114.1296
 20
-143.0956
 30
0.0
 10
-114.1296
 20
-143.0956
 30
0.0
 10
-114.1296
 20
-143.0956
 30
0.0
 10
-114.1296
 20
-143.4526
 30
0.0
 10
-114.1296
 20
-143.4526
 30
0.0
 10
-114.1296
 20
-143.4526
 30
0.0
 10
-114.1296
 20
-143.4526
 30
0.0
 10
-114.3949
 20
-143.4526
 30
0.0
 10
-114.3949
 20
-143.4526
 30
0.0
 10
-114.3949
 20
-143.4526
 30
0.0
 10
-114.3949
 20
-143.4526
 30
0.0
 10
-114.3949
 20
-142.4239
 30
0.0
 10
-114.3949
 20
-142.4239
 30
0.0
  0
SPLINE
  5
6B
330
1F
100
AcDbEntity
  8
LAYER_1
100
AcDbSpline
210
0.0
220
0.0
230
1.0
 70
    11
 71
     3
 72
    32
 73
    28
 74
     0
 42
0.0000000001
 43
0.0000000001
 40
0.0
 40
0.0
 40
0.0
 40
0.0
 40
0.1428571428571428
 40
0.1428571428571428
 40
0.1428571428571428
 40
0.1428571428571428
 40
0.2857142857142857
 40
0.2857142857142857
 40
0.2857142857142857
 40
0.2857142857142857
 40
0.4285714285714285
 40
0.4285714285714285
 40
0.4285714285714285
 40
0.4285714285714285
 40
0.5714285714285714
 40
0.5714285714285714
 40
0.5714285714285714
 40
0.5714285714285714
 40
0.7142857142857142
 40
0.7142857142857142
 40
0.7142857142857142
 40
0.7142857142857142
 40
0.857142857142857
 40
0.857142857142857
 40
0.857142857142857
 40
0.857142857142857
 40
1.0
 40
1.0
 40
1.0
 40
1.0
 10
-114.1296
 20
-142.6161
 30
0.0
 10
-114.1296
 20
-142.6161
 30
0.0
 10
-114.1296
 20
-142.9034
 30
0.0
 10
-114.1296
 20
-142.9034
 30
0.0
 10
-114.1296
 20
-142.9034
 30
0.0
 10
-114.1296
 20
-142.9034
 30
0.0
 10
-113.9829
 20
-142.9034
 30
0.0
 10
-113.9829
 20
-142.9034
 30
0.0
 10
-113.9829
 20
-142.9034
 30
0.0
 10
-113.9314
 20
-142.9034
 30
0.0
 10
-113.8916
 20
-142.891
 30
0.0
 10
-113.8636
 20
-142.8658
 30
0.0
 10
-113.8636
 20
-142.8658
 30
0.0
 10
-113.8356
 20
-142.8409
 30
0.0
 10
-113.8215
 20
-142.8054
 30
0.0
 10
-113.8215
 20
-142.7595
 30
0.0
 10
-113.8215
 20
-142.7595
 30
0.0
 10
-113.8215
 20
-142.7134
 30
0.0
 10
-113.8356
 20
-142.6781
 30
0.0
 10
-113.8636
 20
-142.6532
 30
0.0
 10
-113.8636
 20
-142.6532
 30
0.0
 10
-113.8916
 20
-142.6285
 30
0.0
 10
-113.9314
 20
-142.6161
 30
0.0
 10
-113.9829
 20
-142.6161
 30
0.0
 10
-113.9829
 20
-142.6161
 30
0.0
 10
-113.9829
 20
-142.6161
 30
0.0
 10
-114.1296
 20
-142.6161
 30
0.0
 10
-114.1296
 20
-142.6161
 30
0.0
  0
SPLINE
  5
6C
330
1F
100
AcDbEntity
  8
LAYER_1
100
AcDbSpline
210
0.0
220
0.0
230
1.0
 70
    11
 71
     3
 72
    60
 73
    56
 74
     0
 42
0.0000000001
 43
0.0000000001
 40
0.0
 40
0.0
 40
0.0
 40
0.0
 40
0.0714285714285714
 40
0.0714285714285714
 40
0.0714285714285714
 40
0.0714285714285714
 40
0.1428571428571428
 40
0.1428571428571428
 40
0.1428571428571428
 40
0.1428571428571428
 40
0.2142857142857143
 40
0.2142857142857143
 40
0.2142857142857143
 40
0.2142857142857143
 40
0.2857142857142857
 40
0.2857142857142857
 40
0.2857142857142857
 40
0.2857142857142857
 40
0.3571428571428571
 40
0.3571428571428571
 40
0.3571428571428571
 40
0.3571428571428571
 40
0.4285714285714285
 40
0.4285714285714285
 40
0.4285714285714285
 40
0.4285714285714285
 40
0.4999999999999999
 40
0.4999999999999999
 40
0.4999999999999999
 40
0.4999999999999999
 40
0.5714285714285713
 40
0.5714285714285713
 40
0.5714285714285713
 40
0.5714285714285713
 40
0.6428571428571427
 40
0.6428571428571427
 40
0.6428571428571427
 40
0.6428571428571427
 40
0.7142857142857141
 40
0.7142857142857141
 40
0.7142857142857141
 40
0.7142857142857141
 40
0.7857142857142855
 40
0.7857142857142855
 40
0.7857142857142855
 40
0.7857142857142855
 40
0.8571428571428569
 40
0.8571428571428569
 40
0.8571428571428569
 40
0.8571428571428569
 40
0.9285714285714283
 40
0.9285714285714283
 40
0.9285714285714283
 40
0.9285714285714283
 40
1.0
 40
1.0
 40
1.0
 40
1.0
 10
-113.3608
 20
-142.4239
 30
0.0
 10
-113.3608
 20
-142.4239
 30
0.0
 10
-113.0955
 20
-142.4239
 30
0.0
 10
-113.0955
 20
-142.4239
 30
0.0
 10
-113.0955
 20
-142.4239
 30
0.0
 10
-113.0955
 20
-142.4239
 30
0.0
 10
-113.0955
 20
-143.0406
 30
0.0
 10
-113.0955
 20
-143.0406
 30
0.0
 10
-113.0955
 20
-143.0406
 30
0.0
 10
-113.0955
 20
-143.1255
 30
0.0
 10
-113.0817
 20
-143.1864
 30
0.0
 10
-113.0539
 20
-143.2228
 30
0.0
 10
-113.0539
 20
-143.2228
 30
0.0
 10
-113.0261
 20
-143.2593
 30
0.0
 10
-112.9808
 20
-143.2776
 30
0.0
 10
-112.9177
 20
-143.2776
 30
0.0
 10
-112.9177
 20
-143.2776
 30
0.0
 10
-112.8542
 20
-143.2776
 30
0.0
 10
-112.8086
 20
-143.2593
 30
0.0
 10
-112.7809
 20
-143.2228
 30
0.0
 10
-112.7809
 20
-143.2228
 30
0.0
 10
-112.7531
 20
-143.1864
 30
0.0
 10
-112.7392
 20
-143.1255
 30
0.0
 10
-112.7392
 20
-143.0406
 30
0.0
 10
-112.7392
 20
-143.0406
 30
0.0
 10
-112.7392
 20
-143.0406
 30
0.0
 10
-112.7392
 20
-142.4239
 30
0.0
 10
-112.7392
 20
-142.4239
 30
0.0
 10
-112.7392
 20
-142.4239
 30
0.0
 10
-112.7392
 20
-142.4239
 30
0.0
 10
-112.4739
 20
-142.4239
 30
0.0
 10
-112.4739
 20
-142.4239
 30
0.0
 10
-112.4739
 20
-142.4239
 30
0.0
 10
-112.4739
 20
-142.4239
 30
0.0
 10
-112.4739
 20
-143.0406
 30
0.0
 10
-112.4739
 20
-143.0406
 30
0.0
 10
-112.4739
 20
-143.0406
 30
0.0
 10
-112.4739
 20
-143.1861
 30
0.0
 10
-112.5104
 20
-143.2946
 30
0.0
 10
-112.5835
 20
-143.3658
 30
0.0
 10
-112.5835
 20
-143.3658
 30
0.0
 10
-112.6564
 20
-143.4371
 30
0.0
 10
-112.7679
 20
-143.4726
 30
0.0
 10
-112.9177
 20
-143.4726
 30
0.0
 10
-112.9177
 20
-143.4726
 30
0.0
 10
-113.0671
 20
-143.4726
 30
0.0
 10
-113.1783
 20
-143.4371
 30
0.0
 10
-113.2512
 20
-143.3658
 30
0.0
 10
-113.2512
 20
-143.3658
 30
0.0
 10
-113.3244
 20
-143.2946
 30
0.0
 10
-113.3608
 20
-143.1861
 30
0.0
 10
-113.3608
 20
-143.0406
 30
0.0
 10
-113.3608
 20
-143.0406
 30
0.0
 10
-113.3608
 20
-143.0406
 30
0.0
 10
-113.3608
 20
-142.4239
 30
0.0
 10
-113.3608
 20
-142.4239
 30
0.0
  0
SPLINE
  5
6D
330
1F
100
AcDbEntity
  8
LAYER_1
100
AcDbSpline
210
0.0
220
0.0
230
1.0
 70
    11
 71
     3
 72
   116
 73
   112
 74
     0
 42
0.0000000001
 43
0.0000000001
 40
0.0
 40
0.0
 40
0.0
 40
0.0
 40
0.0357142857142857
 40
0.0357142857142857
 40
0.0357142857142857
 40
0.0357142857142857
 40
0.0714285714285714
 40
0.0714285714285714
 40
0.0714285714285714
 40
0.0714285714285714
 40
0.1071428571428571
 40
0.1071428571428571
 40
0.1071428571428571
 40
0.1071428571428571
 40
0.1428571428571428
 40
0.1428571428571428
 40
0.1428571428571428
 40
0.1428571428571428
 40
0.1785714285714285
 40
0.1785714285714285
 40
0.1785714285714285
 40
0.1785714285714285
 40
0.2142857142857142
 40
0.2142857142857142
 40
0.2142857142857142
 40
0.2142857142857142
 40
0.2499999999999999
 40
0.2499999999999999
 40
0.2499999999999999
 40
0.2499999999999999
 40
0.2857142857142856
 40
0.2857142857142856
 40
0.2857142857142856
 40
0.2857142857142856
 40
0.3214285714285713
 40
0.3214285714285713
 40
0.3214285714285713
 40
0.3214285714285713
 40
0.357142857142857
 40
0.357142857142857
 40
0.357142857142857
 40
0.357142857142857
 40
0.3928571428571427
 40
0.3928571428571427
 40
0.3928571428571427
 40
0.3928571428571427
 40
0.4285714285714284
 40
0.4285714285714284
 40
0.4285714285714284
 40
0.4285714285714284
 40
0.4642857142857141
 40
0.4642857142857141
 40
0.4642857142857141
 40
0.4642857142857141
 40
0.4999999999999998
 40
0.4999999999999998
 40
0.4999999999999998
 40
0.4999999999999998
 40
0.5357142857142856
 40
0.5357142857142856
 40
0.5357142857142856
 40
0.5357142857142856
 40
0.5714285714285713
 40
0.5714285714285713
 40
0.5714285714285713
 40
0.5714285714285713
 40
0.607142857142857
 40
0.607142857142857
 40
0.607142857142857
 40
0.607142857142857
 40
0.6428571428571427
 40
0.6428571428571427
 40
0.6428571428571427
 40
0.6428571428571427
 40
0.6785714285714284
 40
0.6785714285714284
 40
0.6785714285714284
 40
0.6785714285714284
 40
0.7142857142857141
 40
0.7142857142857141
 40
0.7142857142857141
 40
0.7142857142857141
 40
0.7499999999999998
 40
0.7499999999999998
 40
0.7499999999999998
 40
0.7499999999999998
 40
0.7857142857142855
 40
0.7857142857142855
 40
0.7857142857142855
 40
0.7857142857142855
 40
0.8214285714285712
 40
0.8214285714285712
 40
0.8214285714285712
 40
0.8214285714285712
 40
0.8571428571428569
 40
0.8571428571428569
 40
0.8571428571428569
 40
0.8571428571428569
 40
0.8928571428571426
 40
0.8928571428571426
 40
0.8928571428571426
 40
0.8928571428571426
 40
0.9285714285714283
 40
0.9285714285714283
 40
0.9285714285714283
 40
0.9285714285714283
 40
0.964285714285714
 40
0.964285714285714
 40
0.964285714285714
 40
0.964285714285714
 40
1.0
 40
1.0
 40
1.0
 40
1.0
 10
-111.4991
 20
-142.4564
 30
0.0
 10
-111.4991
 20
-142.4564
 30
0.0
 10
-111.4991
 20
-142.6739
 30
0.0
 10
-111.4991
 20
-142.6739
 30
0.0
 10
-111.4991
 20
-142.6739
 30
0.0
 10
-111.5556
 20
-142.6487
 30
0.0
 10
-111.6108
 20
-142.6297
 30
0.0
 10
-111.6644
 20
-142.6168
 30
0.0
 10
-111.6644
 20
-142.6168
 30
0.0
 10
-111.7183
 20
-142.6038
 30
0.0
 10
-111.7691
 20
-142.5975
 30
0.0
 10
-111.8168
 20
-142.5975
 30
0.0
 10
-111.8168
 20
-142.5975
 30
0.0
 10
-111.8801
 20
-142.5975
 30
0.0
 10
-111.9271
 20
-142.6062
 30
0.0
 10
-111.9575
 20
-142.6236
 30
0.0
 10
-111.9575
 20
-142.6236
 30
0.0
 10
-111.9878
 20
-142.6412
 30
0.0
 10
-112.0029
 20
-142.6683
 30
0.0
 10
-112.0029
 20
-142.705
 30
0.0
 10
-112.0029
 20
-142.705
 30
0.0
 10
-112.0029
 20
-142.7325
 30
0.0
 10
-111.9928
 20
-142.7541
 30
0.0
 10
-111.9723
 20
-142.7694
 30
0.0
 10
-111.9723
 20
-142.7694
 30
0.0
 10
-111.9518
 20
-142.7847
 30
0.0
 10
-111.9147
 20
-142.7981
 30
0.0
 10
-111.8608
 20
-142.8091
 30
0.0
 10
-111.8608
 20
-142.8091
 30
0.0
 10
-111.8608
 20
-142.8091
 30
0.0
 10
-111.7479
 20
-142.8317
 30
0.0
 10
-111.7479
 20
-142.8317
 30
0.0
 10
-111.7479
 20
-142.8317
 30
0.0
 10
-111.6334
 20
-142.8548
 30
0.0
 10
-111.5523
 20
-142.8896
 30
0.0
 10
-111.5041
 20
-142.9366
 30
0.0
 10
-111.5041
 20
-142.9366
 30
0.0
 10
-111.4558
 20
-142.9834
 30
0.0
 10
-111.4316
 20
-143.05
 30
0.0
 10
-111.4316
 20
-143.1363
 30
0.0
 10
-111.4316
 20
-143.1363
 30
0.0
 10
-111.4316
 20
-143.2499
 30
0.0
 10
-111.4652
 20
-143.3343
 30
0.0
 10
-111.5325
 20
-143.3896
 30
0.0
 10
-111.5325
 20
-143.3896
 30
0.0
 10
-111.5998
 20
-143.4448
 30
0.0
 10
-111.7025
 20
-143.4726
 30
0.0
 10
-111.8408
 20
-143.4726
 30
0.0
 10
-111.8408
 20
-143.4726
 30
0.0
 10
-111.9062
 20
-143.4726
 30
0.0
 10
-111.9716
 20
-143.4665
 30
0.0
 10
-112.0372
 20
-143.454
 30
0.0
 10
-112.0372
 20
-143.454
 30
0.0
 10
-112.1028
 20
-143.4415
 30
0.0
 10
-112.1687
 20
-143.4232
 30
0.0
 10
-112.2343
 20
-143.399
 30
0.0
 10
-112.2343
 20
-143.399
 30
0.0
 10
-112.2343
 20
-143.399
 30
0.0
 10
-112.2343
 20
-143.1751
 30
0.0
 10
-112.2343
 20
-143.1751
 30
0.0
 10
-112.2343
 20
-143.1751
 30
0.0
 10
-112.1687
 20
-143.2099
 30
0.0
 10
-112.1052
 20
-143.2362
 30
0.0
 10
-112.0438
 20
-143.2539
 30
0.0
 10
-112.0438
 20
-143.2539
 30
0.0
 10
-111.9824
 20
-143.2715
 30
0.0
 10
-111.9234
 20
-143.2804
 30
0.0
 10
-111.8665
 20
-143.2804
 30
0.0
 10
-111.8665
 20
-143.2804
 30
0.0
 10
-111.8086
 20
-143.2804
 30
0.0
 10
-111.7642
 20
-143.2708
 30
0.0
 10
-111.7334
 20
-143.2515
 30
0.0
 10
-111.7334
 20
-143.2515
 30
0.0
 10
-111.7025
 20
-143.2322
 30
0.0
 10
-111.6873
 20
-143.2047
 30
0.0
 10
-111.6873
 20
-143.1687
 30
0.0
 10
-111.6873
 20
-143.1687
 30
0.0
 10
-111.6873
 20
-143.1367
 30
0.0
 10
-111.6976
 20
-143.1118
 30
0.0
 10
-111.7185
 20
-143.0944
 30
0.0
 10
-111.7185
 20
-143.0944
 30
0.0
 10
-111.7395
 20
-143.077
 30
0.0
 10
-111.7811
 20
-143.0613
 30
0.0
 10
-111.8437
 20
-143.0476
 30
0.0
 10
-111.8437
 20
-143.0476
 30
0.0
 10
-111.8437
 20
-143.0476
 30
0.0
 10
-111.9464
 20
-143.0248
 30
0.0
 10
-111.9464
 20
-143.0248
 30
0.0
 10
-111.9464
 20
-143.0248
 30
0.0
 10
-112.0492
 20
-143.0027
 30
0.0
 10
-112.1245
 20
-142.9677
 30
0.0
 10
-112.172
 20
-142.9194
 30
0.0
 10
-112.172
 20
-142.9194
 30
0.0
 10
-112.2195
 20
-142.8712
 30
0.0
 10
-112.2432
 20
-142.8061
 30
0.0
 10
-112.2432
 20
-142.7245
 30
0.0
 10
-112.2432
 20
-142.7245
 30
0.0
 10
-112.2432
 20
-142.6219
 30
0.0
 10
-112.2101
 20
-142.5431
 30
0.0
 10
-112.144
 20
-142.4881
 30
0.0
 10
-112.144
 20
-142.4881
 30
0.0
 10
-112.0779
 20
-142.4328
 30
0.0
 10
-111.9829
 20
-142.4053
 30
0.0
 10
-111.8587
 20
-142.4053
 30
0.0
 10
-111.8587
 20
-142.4053
 30
0.0
 10
-111.8023
 20
-142.4053
 30
0.0
 10
-111.7442
 20
-142.4096
 30
0.0
 10
-111.6844
 20
-142.418
 30
0.0
 10
-111.6844
 20
-142.418
 30
0.0
 10
-111.6247
 20
-142.4265
 30
0.0
 10
-111.5629
 20
-142.4392
 30
0.0
 10
-111.4991
 20
-142.4564
 30
0.0
  0
SPLINE
  5
6E
330
1F
100
AcDbEntity
  8
LAYER_1
100
AcDbSpline
210
0.0
220
0.0
230
1.0
 70
    11
 71
     3
 72
    52
 73
    48
 74
     0
 42
0.0000000001
 43
0.0000000001
 40
0.0
 40
0.0
 40
0.0
 40
0.0
 40
0.0833333333333333
 40
0.0833333333333333
 40
0.0833333333333333
 40
0.0833333333333333
 40
0.1666666666666667
 40
0.1666666666666667
 40
0.1666666666666667
 40
0.1666666666666667
 40
0.25
 40
0.25
 40
0.25
 40
0.25
 40
0.3333333333333333
 40
0.3333333333333333
 40
0.3333333333333333
 40
0.3333333333333333
 40
0.4166666666666666
 40
0.4166666666666666
 40
0.4166666666666666
 40
0.4166666666666666
 40
0.4999999999999999
 40
0.4999999999999999
 40
0.4999999999999999
 40
0.4999999999999999
 40
0.5833333333333333
 40
0.5833333333333333
 40
0.5833333333333333
 40
0.5833333333333333
 40
0.6666666666666666
 40
0.6666666666666666
 40
0.6666666666666666
 40
0.6666666666666666
 40
0.75
 40
0.75
 40
0.75
 40
0.75
 40
0.8333333333333334
 40
0.8333333333333334
 40
0.8333333333333334
 40
0.8333333333333334
 40
0.9166666666666667
 40
0.9166666666666667
 40
0.9166666666666667
 40
0.9166666666666667
 40
1.0
 40
1.0
 40
1.0
 40
1.0
 10
-111.1988
 20
-142.4239
 30
0.0
 10
-111.1988
 20
-142.4239
 30
0.0
 10
-110.9335
 20
-142.4239
 30
0.0
 10
-110.9335
 20
-142.4239
 30
0.0
 10
-110.9335
 20
-142.4239
 30
0.0
 10
-110.9335
 20
-142.4239
 30
0.0
 10
-110.9335
 20
-142.816
 30
0.0
 10
-110.9335
 20
-142.816
 30
0.0
 10
-110.9335
 20
-142.816
 30
0.0
 10
-110.9335
 20
-142.816
 30
0.0
 10
-110.5422
 20
-142.816
 30
0.0
 10
-110.5422
 20
-142.816
 30
0.0
 10
-110.5422
 20
-142.816
 30
0.0
 10
-110.5422
 20
-142.816
 30
0.0
 10
-110.5422
 20
-142.4239
 30
0.0
 10
-110.5422
 20
-142.4239
 30
0.0
 10
-110.5422
 20
-142.4239
 30
0.0
 10
-110.5422
 20
-142.4239
 30
0.0
 10
-110.2769
 20
-142.4239
 30
0.0
 10
-110.2769
 20
-142.4239
 30
0.0
 10
-110.2769
 20
-142.4239
 30
0.0
 10
-110.2769
 20
-142.4239
 30
0.0
 10
-110.2769
 20
-143.4526
 30
0.0
 10
-110.2769
 20
-143.4526
 30
0.0
 10
-110.2769
 20
-143.4526
 30
0.0
 10
-110.2769
 20
-143.4526
 30
0.0
 10
-110.5422
 20
-143.4526
 30
0.0
 10
-110.5422
 20
-143.4526
 30
0.0
 10
-110.5422
 20
-143.4526
 30
0.0
 10
-110.5422
 20
-143.4526
 30
0.0
 10
-110.5422
 20
-143.0166
 30
0.0
 10
-110.5422
 20
-143.0166
 30
0.0
 10
-110.5422
 20
-143.0166
 30
0.0
 10
-110.5422
 20
-143.0166
 30
0.0
 10
-110.9335
 20
-143.0166
 30
0.0
 10
-110.9335
 20
-143.0166
 30
0.0
 10
-110.9335
 20
-143.0166
 30
0.0
 10
-110.9335
 20
-143.0166
 30
0.0
 10
-110.9335
 20
-143.4526
 30
0.0
 10
-110.9335
 20
-143.4526
 30
0.0
 10
-110.9335
 20
-143.4526
 30
0.0
 10
-110.9335
 20
-143.4526
 30
0.0
 10
-111.1988
 20
-143.4526
 30
0.0
 10
-111.1988
 20
-143.4526
 30
0.0
 10
-111.1988
 20
-143.4526
 30
0.0
 10
-111.1988
 20
-143.4526
 30
0.0
 10
-111.1988
 20
-142.4239
 30
0.0
 10
-111.1988
 20
-142.4239
 30
0.0
  0
SPLINE
  5
6F
330
1F
100
AcDbEntity
  8
LAYER_1
100
AcDbSpline
210
0.0
220
0.0
230
1.0
 70
    11
 71
     3
 72
    32
 73
    28
 74
     0
 42
0.0000000001
 43
0.0000000001
 40
0.0
 40
0.0
 40
0.0
 40
0.0
 40
0.1428571428571428
 40
0.1428571428571428
 40
0.1428571428571428
 40
0.1428571428571428
 40
0.2857142857142857
 40
0.2857142857142857
 40
0.2857142857142857
 40
0.2857142857142857
 40
0.4285714285714285
 40
0.4285714285714285
 40
0.4285714285714285
 40
0.4285714285714285
 40
0.5714285714285714
 40
0.5714285714285714
 40
0.5714285714285714
 40
0.5714285714285714
 40
0.7142857142857142
 40
0.7142857142857142
 40
0.7142857142857142
 40
0.7142857142857142
 40
0.857142857142857
 40
0.857142857142857
 40
0.857142857142857
 40
0.857142857142857
 40
1.0
 40
1.0
 40
1.0
 40
1.0
 10
-109.6059
 20
-142.8221
 30
0.0
 10
-109.564
 20
-142.8221
 30
0.0
 10
-109.5323
 20
-142.8129
 30
0.0
 10
-109.5109
 20
-142.7946
 30
0.0
 10
-109.5109
 20
-142.7946
 30
0.0
 10
-109.4892
 20
-142.7762
 30
0.0
 10
-109.4784
 20
-142.7492
 30
0.0
 10
-109.4784
 20
-142.7132
 30
0.0
 10
-109.4784
 20
-142.7132
 30
0.0
 10
-109.4784
 20
-142.6779
 30
0.0
 10
-109.4892
 20
-142.6511
 30
0.0
 10
-109.5109
 20
-142.6325
 30
0.0
 10
-109.5109
 20
-142.6325
 30
0.0
 10
-109.5323
 20
-142.6139
 30
0.0
 10
-109.564
 20
-142.6045
 30
0.0
 10
-109.6059
 20
-142.6045
 30
0.0
 10
-109.6059
 20
-142.6045
 30
0.0
 10
-109.6059
 20
-142.6045
 30
0.0
 10
-109.7526
 20
-142.6045
 30
0.0
 10
-109.7526
 20
-142.6045
 30
0.0
 10
-109.7526
 20
-142.6045
 30
0.0
 10
-109.7526
 20
-142.6045
 30
0.0
 10
-109.7526
 20
-142.8221
 30
0.0
 10
-109.7526
 20
-142.8221
 30
0.0
 10
-109.7526
 20
-142.8221
 30
0.0
 10
-109.7526
 20
-142.8221
 30
0.0
 10
-109.6059
 20
-142.8221
 30
0.0
 10
-109.6059
 20
-142.8221
 30
0.0
  0
SPLINE
  5
70
330
1F
100
AcDbEntity
  8
LAYER_1
100
AcDbSpline
210
0.0
220
0.0
230
1.0
 70
    11
 71
     3
 72
    32
 73
    28
 74
     0
 42
0.0000000001
 43
0.0000000001
 40
0.0
 40
0.0
 40
0.0
 40
0.0
 40
0.1428571428571428
 40
0.1428571428571428
 40
0.1428571428571428
 40
0.1428571428571428
 40
0.2857142857142857
 40
0.2857142857142857
 40
0.2857142857142857
 40
0.2857142857142857
 40
0.4285714285714285
 40
0.4285714285714285
 40
0.4285714285714285
 40
0.4285714285714285
 40
0.5714285714285714
 40
0.5714285714285714
 40
0.5714285714285714
 40
0.5714285714285714
 40
0.7142857142857142
 40
0.7142857142857142
 40
0.7142857142857142
 40
0.7142857142857142
 40
0.857142857142857
 40
0.857142857142857
 40
0.857142857142857
 40
0.857142857142857
 40
1.0
 40
1.0
 40
1.0
 40
1.0
 10
-109.5969
 20
-143.272
 30
0.0
 10
-109.5435
 20
-143.272
 30
0.0
 10
-109.5036
 20
-143.2607
 30
0.0
 10
-109.4765
 20
-143.2383
 30
0.0
 10
-109.4765
 20
-143.2383
 30
0.0
 10
-109.4497
 20
-143.2158
 30
0.0
 10
-109.4363
 20
-143.1817
 30
0.0
 10
-109.4363
 20
-143.1363
 30
0.0
 10
-109.4363
 20
-143.1363
 30
0.0
 10
-109.4363
 20
-143.0918
 30
0.0
 10
-109.4497
 20
-143.0584
 30
0.0
 10
-109.4763
 20
-143.0361
 30
0.0
 10
-109.4763
 20
-143.0361
 30
0.0
 10
-109.5029
 20
-143.0137
 30
0.0
 10
-109.5431
 20
-143.0027
 30
0.0
 10
-109.5969
 20
-143.0027
 30
0.0
 10
-109.5969
 20
-143.0027
 30
0.0
 10
-109.5969
 20
-143.0027
 30
0.0
 10
-109.7526
 20
-143.0027
 30
0.0
 10
-109.7526
 20
-143.0027
 30
0.0
 10
-109.7526
 20
-143.0027
 30
0.0
 10
-109.7526
 20
-143.0027
 30
0.0
 10
-109.7526
 20
-143.272
 30
0.0
 10
-109.7526
 20
-143.272
 30
0.0
 10
-109.7526
 20
-143.272
 30
0.0
 10
-109.7526
 20
-143.272
 30
0.0
 10
-109.5969
 20
-143.272
 30
0.0
 10
-109.5969
 20
-143.272
 30
0.0
  0
SPLINE
  5
71
330
1F
100
AcDbEntity
  8
LAYER_1
100
AcDbSpline
210
0.0
220
0.0
230
1.0
 70
    11
 71
     3
 72
    48
 73
    44
 74
     0
 42
0.0000000001
 43
0.0000000001
 40
0.0
 40
0.0
 40
0.0
 40
0.0
 40
0.0909090909090909
 40
0.0909090909090909
 40
0.0909090909090909
 40
0.0909090909090909
 40
0.1818181818181818
 40
0.1818181818181818
 40
0.1818181818181818
 40
0.1818181818181818
 40
0.2727272727272727
 40
0.2727272727272727
 40
0.2727272727272727
 40
0.2727272727272727
 40
0.3636363636363636
 40
0.3636363636363636
 40
0.3636363636363636
 40
0.3636363636363636
 40
0.4545454545454546
 40
0.4545454545454546
 40
0.4545454545454546
 40
0.4545454545454546
 40
0.5454545454545455
 40
0.5454545454545455
 40
0.5454545454545455
 40
0.5454545454545455
 40
0.6363636363636365
 40
0.6363636363636365
 40
0.6363636363636365
 40
0.6363636363636365
 40
0.7272727272727274
 40
0.7272727272727274
 40
0.7272727272727274
 40
0.7272727272727274
 40
0.8181818181818183
 40
0.8181818181818183
 40
0.8181818181818183
 40
0.8181818181818183
 40
0.9090909090909093
 40
0.9090909090909093
 40
0.9090909090909093
 40
0.9090909090909093
 40
1.0
 40
1.0
 40
1.0
 40
1.0
 10
-109.3502
 20
-142.902
 30
0.0
 10
-109.2933
 20
-142.9185
 30
0.0
 10
-109.2491
 20
-142.9491
 30
0.0
 10
-109.2178
 20
-142.9938
 30
0.0
 10
-109.2178
 20
-142.9938
 30
0.0
 10
-109.1865
 20
-143.0382
 30
0.0
 10
-109.171
 20
-143.093
 30
0.0
 10
-109.171
 20
-143.1577
 30
0.0
 10
-109.171
 20
-143.1577
 30
0.0
 10
-109.171
 20
-143.2569
 30
0.0
 10
-109.2047
 20
-143.3308
 30
0.0
 10
-109.2717
 20
-143.3795
 30
0.0
 10
-109.2717
 20
-143.3795
 30
0.0
 10
-109.3387
 20
-143.4281
 30
0.0
 10
-109.4408
 20
-143.4526
 30
0.0
 10
-109.5777
 20
-143.4526
 30
0.0
 10
-109.5777
 20
-143.4526
 30
0.0
 10
-109.5777
 20
-143.4526
 30
0.0
 10
-110.0179
 20
-143.4526
 30
0.0
 10
-110.0179
 20
-143.4526
 30
0.0
 10
-110.0179
 20
-143.4526
 30
0.0
 10
-110.0179
 20
-143.4526
 30
0.0
 10
-110.0179
 20
-142.4239
 30
0.0
 10
-110.0179
 20
-142.4239
 30
0.0
 10
-110.0179
 20
-142.4239
 30
0.0
 10
-110.0179
 20
-142.4239
 30
0.0
 10
-109.6197
 20
-142.4239
 30
0.0
 10
-109.6197
 20
-142.4239
 30
0.0
 10
-109.6197
 20
-142.4239
 30
0.0
 10
-109.4768
 20
-142.4239
 30
0.0
 10
-109.3733
 20
-142.4455
 30
0.0
 10
-109.3093
 20
-142.4886
 30
0.0
 10
-109.3093
 20
-142.4886
 30
0.0
 10
-109.2451
 20
-142.5319
 30
0.0
 10
-109.2131
 20
-142.601
 30
0.0
 10
-109.2131
 20
-142.696
 30
0.0
 10
-109.2131
 20
-142.696
 30
0.0
 10
-109.2131
 20
-142.7461
 30
0.0
 10
-109.2249
 20
-142.7887
 30
0.0
 10
-109.2482
 20
-142.824
 30
0.0
 10
-109.2482
 20
-142.824
 30
0.0
 10
-109.2717
 20
-142.859
 30
0.0
 10
-109.3055
 20
-142.8851
 30
0.0
 10
-109.3502
 20
-142.902
 30
0.0
  0
SPLINE
  5
72
330
1F
100
AcDbEntity
  8
LAYER_1
100
AcDbSpline
210
0.0
220
0.0
230
1.0
 70
    11
 71
     3
 72
    60
 73
    56
 74
     0
 42
0.0000000001
 43
0.0000000001
 40
0.0
 40
0.0
 40
0.0
 40
0.0
 40
0.0714285714285714
 40
0.0714285714285714
 40
0.0714285714285714
 40
0.0714285714285714
 40
0.1428571428571428
 40
0.1428571428571428
 40
0.1428571428571428
 40
0.1428571428571428
 40
0.2142857142857143
 40
0.2142857142857143
 40
0.2142857142857143
 40
0.2142857142857143
 40
0.2857142857142857
 40
0.2857142857142857
 40
0.2857142857142857
 40
0.2857142857142857
 40
0.3571428571428571
 40
0.3571428571428571
 40
0.3571428571428571
 40
0.3571428571428571
 40
0.4285714285714285
 40
0.4285714285714285
 40
0.4285714285714285
 40
0.4285714285714285
 40
0.4999999999999999
 40
0.4999999999999999
 40
0.4999999999999999
 40
0.4999999999999999
 40
0.5714285714285713
 40
0.5714285714285713
 40
0.5714285714285713
 40
0.5714285714285713
 40
0.6428571428571427
 40
0.6428571428571427
 40
0.6428571428571427
 40
0.6428571428571427
 40
0.7142857142857141
 40
0.7142857142857141
 40
0.7142857142857141
 40
0.7142857142857141
 40
0.7857142857142855
 40
0.7857142857142855
 40
0.7857142857142855
 40
0.7857142857142855
 40
0.8571428571428569
 40
0.8571428571428569
 40
0.8571428571428569
 40
0.8571428571428569
 40
0.9285714285714283
 40
0.9285714285714283
 40
0.9285714285714283
 40
0.9285714285714283
 40
1.0
 40
1.0
 40
1.0
 40
1.0
 10
-108.9424
 20
-142.4239
 30
0.0
 10
-108.9424
 20
-142.4239
 30
0.0
 10
-108.6771
 20
-142.4239
 30
0.0
 10
-108.6771
 20
-142.4239
 30
0.0
 10
-108.6771
 20
-142.4239
 30
0.0
 10
-108.6771
 20
-142.4239
 30
0.0
 10
-108.6771
 20
-143.0406
 30
0.0
 10
-108.6771
 20
-143.0406
 30
0.0
 10
-108.6771
 20
-143.0406
 30
0.0
 10
-108.6771
 20
-143.1255
 30
0.0
 10
-108.6633
 20
-143.1864
 30
0.0
 10
-108.6355
 20
-143.2228
 30
0.0
 10
-108.6355
 20
-143.2228
 30
0.0
 10
-108.6077
 20
-143.2593
 30
0.0
 10
-108.5624
 20
-143.2776
 30
0.0
 10
-108.4993
 20
-143.2776
 30
0.0
 10
-108.4993
 20
-143.2776
 30
0.0
 10
-108.4358
 20
-143.2776
 30
0.0
 10
-108.3902
 20
-143.2593
 30
0.0
 10
-108.3625
 20
-143.2228
 30
0.0
 10
-108.3625
 20
-143.2228
 30
0.0
 10
-108.3347
 20
-143.1864
 30
0.0
 10
-108.3208
 20
-143.1255
 30
0.0
 10
-108.3208
 20
-143.0406
 30
0.0
 10
-108.3208
 20
-143.0406
 30
0.0
 10
-108.3208
 20
-143.0406
 30
0.0
 10
-108.3208
 20
-142.4239
 30
0.0
 10
-108.3208
 20
-142.4239
 30
0.0
 10
-108.3208
 20
-142.4239
 30
0.0
 10
-108.3208
 20
-142.4239
 30
0.0
 10
-108.0555
 20
-142.4239
 30
0.0
 10
-108.0555
 20
-142.4239
 30
0.0
 10
-108.0555
 20
-142.4239
 30
0.0
 10
-108.0555
 20
-142.4239
 30
0.0
 10
-108.0555
 20
-143.0406
 30
0.0
 10
-108.0555
 20
-143.0406
 30
0.0
 10
-108.0555
 20
-143.0406
 30
0.0
 10
-108.0555
 20
-143.1861
 30
0.0
 10
-108.092
 20
-143.2946
 30
0.0
 10
-108.1651
 20
-143.3658
 30
0.0
 10
-108.1651
 20
-143.3658
 30
0.0
 10
-108.238
 20
-143.4371
 30
0.0
 10
-108.3495
 20
-143.4726
 30
0.0
 10
-108.4993
 20
-143.4726
 30
0.0
 10
-108.4993
 20
-143.4726
 30
0.0
 10
-108.6487
 20
-143.4726
 30
0.0
 10
-108.7599
 20
-143.4371
 30
0.0
 10
-108.8328
 20
-143.3658
 30
0.0
 10
-108.8328
 20
-143.3658
 30
0.0
 10
-108.906
 20
-143.2946
 30
0.0
 10
-108.9424
 20
-143.1861
 30
0.0
 10
-108.9424
 20
-143.0406
 30
0.0
 10
-108.9424
 20
-143.0406
 30
0.0
 10
-108.9424
 20
-143.0406
 30
0.0
 10
-108.9424
 20
-142.4239
 30
0.0
 10
-108.9424
 20
-142.4239
 30
0.0
  0
SPLINE
  5
73
330
1F
100
AcDbEntity
  8
LAYER_1
100
AcDbSpline
210
0.0
220
0.0
230
1.0
 70
    11
 71
     3
 72
    36
 73
    32
 74
     0
 42
0.0000000001
 43
0.0000000001
 40
0.0
 40
0.0
 40
0.0
 40
0.0
 40
0.125
 40
0.125
 40
0.125
 40
0.125
 40
0.25
 40
0.25
 40
0.25
 40
0.25
 40
0.375
 40
0.375
 40
0.375
 40
0.375
 40
0.5
 40
0.5
 40
0.5
 40
0.5
 40
0.625
 40
0.625
 40
0.625
 40
0.625
 40
0.75
 40
0.75
 40
0.75
 40
0.75
 40
0.875
 40
0.875
 40
0.875
 40
0.875
 40
1.0
 40
1.0
 40
1.0
 40
1.0
 10
-107.9194
 20
-142.4239
 30
0.0
 10
-107.9194
 20
-142.4239
 30
0.0
 10
-106.9714
 20
-142.4239
 30
0.0
 10
-106.9714
 20
-142.4239
 30
0.0
 10
-106.9714
 20
-142.4239
 30
0.0
 10
-106.9714
 20
-142.4239
 30
0.0
 10
-106.9714
 20
-142.6245
 30
0.0
 10
-106.9714
 20
-142.6245
 30
0.0
 10
-106.9714
 20
-142.6245
 30
0.0
 10
-106.9714
 20
-142.6245
 30
0.0
 10
-107.3124
 20
-142.6245
 30
0.0
 10
-107.3124
 20
-142.6245
 30
0.0
 10
-107.3124
 20
-142.6245
 30
0.0
 10
-107.3124
 20
-142.6245
 30
0.0
 10
-107.3124
 20
-143.4526
 30
0.0
 10
-107.3124
 20
-143.4526
 30
0.0
 10
-107.3124
 20
-143.4526
 30
0.0
 10
-107.3124
 20
-143.4526
 30
0.0
 10
-107.5777
 20
-143.4526
 30
0.0
 10
-107.5777
 20
-143.4526
 30
0.0
 10
-107.5777
 20
-143.4526
 30
0.0
 10
-107.5777
 20
-143.4526
 30
0.0
 10
-107.5777
 20
-142.6245
 30
0.0
 10
-107.5777
 20
-142.6245
 30
0.0
 10
-107.5777
 20
-142.6245
 30
0.0
 10
-107.5777
 20
-142.6245
 30
0.0
 10
-107.9194
 20
-142.6245
 30
0.0
 10
-107.9194
 20
-142.6245
 30
0.0
 10
-107.9194
 20
-142.6245
 30
0.0
 10
-107.9194
 20
-142.6245
 30
0.0
 10
-107.9194
 20
-142.4239
 30
0.0
 10
-107.9194
 20
-142.4239
 30
0.0
  0
SPLINE
  5
74
330
1F
100
AcDbEntity
  8
LAYER_1
100
AcDbSpline
210
0.0
220
0.0
230
1.0
 70
    11
 71
     3
 72
    36
 73
    32
 74
     0
 42
0.0000000001
 43
0.0000000001
 40
0.0
 40
0.0
 40
0.0
 40
0.0
 40
0.125
 40
0.125
 40
0.125
 40
0.125
 40
0.25
 40
0.25
 40
0.25
 40
0.25
 40
0.375
 40
0.375
 40
0.375
 40
0.375
 40
0.5
 40
0.5
 40
0.5
 40
0.5
 40
0.625
 40
0.625
 40
0.625
 40
0.625
 40
0.75
 40
0.75
 40
0.75
 40
0.75
 40
0.875
 40
0.875
 40
0.875
 40
0.875
 40
1.0
 40
1.0
 40
1.0
 40
1.0
 10
-106.9243
 20
-142.4239
 30
0.0
 10
-106.9243
 20
-142.4239
 30
0.0
 10
-105.9763
 20
-142.4239
 30
0.0
 10
-105.9763
 20
-142.4239
 30
0.0
 10
-105.9763
 20
-142.4239
 30
0.0
 10
-105.9763
 20
-142.4239
 30
0.0
 10
-105.9763
 20
-142.6245
 30
0.0
 10
-105.9763
 20
-142.6245
 30
0.0
 10
-105.9763
 20
-142.6245
 30
0.0
 10
-105.9763
 20
-142.6245
 30
0.0
 10
-106.3173
 20
-142.6245
 30
0.0
 10
-106.3173
 20
-142.6245
 30
0.0
 10
-106.3173
 20
-142.6245
 30
0.0
 10
-106.3173
 20
-142.6245
 30
0.0
 10
-106.3173
 20
-143.4526
 30
0.0
 10
-106.3173
 20
-143.4526
 30
0.0
 10
-106.3173
 20
-143.4526
 30
0.0
 10
-106.3173
 20
-143.4526
 30
0.0
 10
-106.5826
 20
-143.4526
 30
0.0
 10
-106.5826
 20
-143.4526
 30
0.0
 10
-106.5826
 20
-143.4526
 30
0.0
 10
-106.5826
 20
-143.4526
 30
0.0
 10
-106.5826
 20
-142.6245
 30
0.0
 10
-106.5826
 20
-142.6245
 30
0.0
 10
-106.5826
 20
-142.6245
 30
0.0
 10
-106.5826
 20
-142.6245
 30
0.0
 10
-106.9243
 20
-142.6245
 30
0.0
 10
-106.9243
 20
-142.6245
 30
0.0
 10
-106.9243
 20
-142.6245
 30
0.0
 10
-106.9243
 20
-142.6245
 30
0.0
 10
-106.9243
 20
-142.4239
 30
0.0
 10
-106.9243
 20
-142.4239
 30
0.0
  0
SPLINE
  5
75
330
1F
100
AcDbEntity
  8
LAYER_1
100
AcDbSpline
210
0.0
220
0.0
230
1.0
 70
    11
 71
     3
 72
    36
 73
    32
 74
     0
 42
0.0000000001
 43
0.0000000001
 40
0.0
 40
0.0
 40
0.0
 40
0.0
 40
0.125
 40
0.125
 40
0.125
 40
0.125
 40
0.25
 40
0.25
 40
0.25
 40
0.25
 40
0.375
 40
0.375
 40
0.375
 40
0.375
 40
0.5
 40
0.5
 40
0.5
 40
0.5
 40
0.625
 40
0.625
 40
0.625
 40
0.625
 40
0.75
 40
0.75
 40
0.75
 40
0.75
 40
0.875
 40
0.875
 40
0.875
 40
0.875
 40
1.0
 40
1.0
 40
1.0
 40
1.0
 10
-105.369
 20
-142.5975
 30
0.0
 10
-105.4499
 20
-142.5975
 30
0.0
 10
-105.5125
 20
-142.6273
 30
0.0
 10
-105.5572
 20
-142.6871
 30
0.0
 10
-105.5572
 20
-142.6871
 30
0.0
 10
-105.6016
 20
-142.7468
 30
0.0
 10
-105.624
 20
-142.8308
 30
0.0
 10
-105.624
 20
-142.9392
 30
0.0
 10
-105.624
 20
-142.9392
 30
0.0
 10
-105.624
 20
-143.0474
 30
0.0
 10
-105.6016
 20
-143.1311
 30
0.0
 10
-105.5572
 20
-143.1908
 30
0.0
 10
-105.5572
 20
-143.1908
 30
0.0
 10
-105.5125
 20
-143.2506
 30
0.0
 10
-105.4499
 20
-143.2804
 30
0.0
 10
-105.369
 20
-143.2804
 30
0.0
 10
-105.369
 20
-143.2804
 30
0.0
 10
-105.2876
 20
-143.2804
 30
0.0
 10
-105.2249
 20
-143.2506
 30
0.0
 10
-105.1802
 20
-143.1908
 30
0.0
 10
-105.1802
 20
-143.1908
 30
0.0
 10
-105.1357
 20
-143.1311
 30
0.0
 10
-105.1134
 20
-143.0474
 30
0.0
 10
-105.1134
 20
-142.9392
 30
0.0
 10
-105.1134
 20
-142.9392
 30
0.0
 10
-105.1134
 20
-142.8308
 30
0.0
 10
-105.1357
 20
-142.7468
 30
0.0
 10
-105.1802
 20
-142.6871
 30
0.0
 10
-105.1802
 20
-142.6871
 30
0.0
 10
-105.2249
 20
-142.6273
 30
0.0
 10
-105.2876
 20
-142.5975
 30
0.0
 10
-105.369
 20
-142.5975
 30
0.0
  0
SPLINE
  5
76
330
1F
100
AcDbEntity
  8
LAYER_1
100
AcDbSpline
210
0.0
220
0.0
230
1.0
 70
    11
 71
     3
 72
    36
 73
    32
 74
     0
 42
0.0000000001
 43
0.0000000001
 40
0.0
 40
0.0
 40
0.0
 40
0.0
 40
0.125
 40
0.125
 40
0.125
 40
0.125
 40
0.25
 40
0.25
 40
0.25
 40
0.25
 40
0.375
 40
0.375
 40
0.375
 40
0.375
 40
0.5
 40
0.5
 40
0.5
 40
0.5
 40
0.625
 40
0.625
 40
0.625
 40
0.625
 40
0.75
 40
0.75
 40
0.75
 40
0.75
 40
0.875
 40
0.875
 40
0.875
 40
0.875
 40
1.0
 40
1.0
 40
1.0
 40
1.0
 10
-105.369
 20
-142.4053
 30
0.0
 10
-105.2037
 20
-142.4053
 30
0.0
 10
-105.0741
 20
-142.4526
 30
0.0
 10
-104.9805
 20
-142.5474
 30
0.0
 10
-104.9805
 20
-142.5474
 30
0.0
 10
-104.8867
 20
-142.6419
 30
0.0
 10
-104.8399
 20
-142.7724
 30
0.0
 10
-104.8399
 20
-142.9392
 30
0.0
 10
-104.8399
 20
-142.9392
 30
0.0
 10
-104.8399
 20
-143.1055
 30
0.0
 10
-104.8867
 20
-143.236
 30
0.0
 10
-104.9805
 20
-143.3305
 30
0.0
 10
-104.9805
 20
-143.3305
 30
0.0
 10
-105.0741
 20
-143.4253
 30
0.0
 10
-105.2037
 20
-143.4726
 30
0.0
 10
-105.369
 20
-143.4726
 30
0.0
 10
-105.369
 20
-143.4726
 30
0.0
 10
-105.5339
 20
-143.4726
 30
0.0
 10
-105.6632
 20
-143.4253
 30
0.0
 10
-105.7573
 20
-143.3305
 30
0.0
 10
-105.7573
 20
-143.3305
 30
0.0
 10
-105.8511
 20
-143.236
 30
0.0
 10
-105.8982
 20
-143.1055
 30
0.0
 10
-105.8982
 20
-142.9392
 30
0.0
 10
-105.8982
 20
-142.9392
 30
0.0
 10
-105.8982
 20
-142.7724
 30
0.0
 10
-105.8511
 20
-142.6419
 30
0.0
 10
-105.7573
 20
-142.5474
 30
0.0
 10
-105.7573
 20
-142.5474
 30
0.0
 10
-105.6632
 20
-142.4526
 30
0.0
 10
-105.5339
 20
-142.4053
 30
0.0
 10
-105.369
 20
-142.4053
 30
0.0
  0
SPLINE
  5
77
330
1F
100
AcDbEntity
  8
LAYER_1
100
AcDbSpline
210
0.0
220
0.0
230
1.0
 70
    11
 71
     3
 72
    44
 73
    40
 74
     0
 42
0.0000000001
 43
0.0000000001
 40
0.0
 40
0.0
 40
0.0
 40
0.0
 40
0.1
 40
0.1
 40
0.1
 40
0.1
 40
0.2
 40
0.2
 40
0.2
 40
0.2
 40
0.3
 40
0.3
 40
0.3
 40
0.3
 40
0.4
 40
0.4
 40
0.4
 40
0.4
 40
0.5
 40
0.5
 40
0.5
 40
0.5
 40
0.6
 40
0.6
 40
0.6
 40
0.6
 40
0.7
 40
0.7
 40
0.7
 40
0.7
 40
0.7999999999999999
 40
0.7999999999999999
 40
0.7999999999999999
 40
0.7999999999999999
 40
0.8999999999999999
 40
0.8999999999999999
 40
0.8999999999999999
 40
0.8999999999999999
 40
1.0
 40
1.0
 40
1.0
 40
1.0
 10
-104.6392
 20
-142.4239
 30
0.0
 10
-104.6392
 20
-142.4239
 30
0.0
 10
-104.3429
 20
-142.4239
 30
0.0
 10
-104.3429
 20
-142.4239
 30
0.0
 10
-104.3429
 20
-142.4239
 30
0.0
 10
-104.3429
 20
-142.4239
 30
0.0
 10
-103.9687
 20
-143.1295
 30
0.0
 10
-103.9687
 20
-143.1295
 30
0.0
 10
-103.9687
 20
-143.1295
 30
0.0
 10
-103.9687
 20
-143.1295
 30
0.0
 10
-103.9687
 20
-142.4239
 30
0.0
 10
-103.9687
 20
-142.4239
 30
0.0
 10
-103.9687
 20
-142.4239
 30
0.0
 10
-103.9687
 20
-142.4239
 30
0.0
 10
-103.7173
 20
-142.4239
 30
0.0
 10
-103.7173
 20
-142.4239
 30
0.0
 10
-103.7173
 20
-142.4239
 30
0.0
 10
-103.7173
 20
-142.4239
 30
0.0
 10
-103.7173
 20
-143.4526
 30
0.0
 10
-103.7173
 20
-143.4526
 30
0.0
 10
-103.7173
 20
-143.4526
 30
0.0
 10
-103.7173
 20
-143.4526
 30
0.0
 10
-104.0136
 20
-143.4526
 30
0.0
 10
-104.0136
 20
-143.4526
 30
0.0
 10
-104.0136
 20
-143.4526
 30
0.0
 10
-104.0136
 20
-143.4526
 30
0.0
 10
-104.3878
 20
-142.747
 30
0.0
 10
-104.3878
 20
-142.747
 30
0.0
 10
-104.3878
 20
-142.747
 30
0.0
 10
-104.3878
 20
-142.747
 30
0.0
 10
-104.3878
 20
-143.4526
 30
0.0
 10
-104.3878
 20
-143.4526
 30
0.0
 10
-104.3878
 20
-143.4526
 30
0.0
 10
-104.3878
 20
-143.4526
 30
0.0
 10
-104.6392
 20
-143.4526
 30
0.0
 10
-104.6392
 20
-143.4526
 30
0.0
 10
-104.6392
 20
-143.4526
 30
0.0
 10
-104.6392
 20
-143.4526
 30
0.0
 10
-104.6392
 20
-142.4239
 30
0.0
 10
-104.6392
 20
-142.4239
 30
0.0
  0
SPLINE
  5
78
330
1F
100
AcDbEntity
  8
LAYER_1
100
AcDbSpline
210
0.0
220
0.0
230
1.0
 70
    11
 71
     3
 72
    44
 73
    40
 74
     0
 42
0.0000000001
 43
0.0000000001
 40
0.0
 40
0.0
 40
0.0
 40
0.0
 40
0.1
 40
0.1
 40
0.1
 40
0.1
 40
0.2
 40
0.2
 40
0.2
 40
0.2
 40
0.3
 40
0.3
 40
0.3
 40
0.3
 40
0.4
 40
0.4
 40
0.4
 40
0.4
 40
0.5
 40
0.5
 40
0.5
 40
0.5
 40
0.6
 40
0.6
 40
0.6
 40
0.6
 40
0.7
 40
0.7
 40
0.7
 40
0.7
 40
0.7999999999999999
 40
0.7999999999999999
 40
0.7999999999999999
 40
0.7999999999999999
 40
0.8999999999999999
 40
0.8999999999999999
 40
0.8999999999999999
 40
0.8999999999999999
 40
1.0
 40
1.0
 40
1.0
 40
1.0
 10
-102.5646
 20
-143.6386
 30
0.0
 10
-102.5646
 20
-143.6386
 30
0.0
 10
-102.7692
 20
-143.6386
 30
0.0
 10
-102.7692
 20
-143.6386
 30
0.0
 10
-102.7692
 20
-143.6386
 30
0.0
 10
-102.8395
 20
-143.5253
 30
0.0
 10
-102.8915
 20
-143.4173
 30
0.0
 10
-102.9249
 20
-143.315
 30
0.0
 10
-102.9249
 20
-143.315
 30
0.0
 10
-102.9585
 20
-143.2129
 30
0.0
 10
-102.9752
 20
-143.1116
 30
0.0
 10
-102.9752
 20
-143.0109
 30
0.0
 10
-102.9752
 20
-143.0109
 30
0.0
 10
-102.9752
 20
-142.9103
 30
0.0
 10
-102.9583
 20
-142.8084
 30
0.0
 10
-102.9247
 20
-142.7054
 30
0.0
 10
-102.9247
 20
-142.7054
 30
0.0
 10
-102.8908
 20
-142.6022
 30
0.0
 10
-102.8391
 20
-142.4945
 30
0.0
 10
-102.7692
 20
-142.3818
 30
0.0
 10
-102.7692
 20
-142.3818
 30
0.0
 10
-102.7692
 20
-142.3818
 30
0.0
 10
-102.5646
 20
-142.3818
 30
0.0
 10
-102.5646
 20
-142.3818
 30
0.0
 10
-102.5646
 20
-142.3818
 30
0.0
 10
-102.6234
 20
-142.4907
 30
0.0
 10
-102.6674
 20
-142.5972
 30
0.0
 10
-102.6968
 20
-142.7012
 30
0.0
 10
-102.6968
 20
-142.7012
 30
0.0
 10
-102.7262
 20
-142.8051
 30
0.0
 10
-102.741
 20
-142.9079
 30
0.0
 10
-102.741
 20
-143.0095
 30
0.0
 10
-102.741
 20
-143.0095
 30
0.0
 10
-102.741
 20
-143.1111
 30
0.0
 10
-102.7264
 20
-143.2139
 30
0.0
 10
-102.6973
 20
-143.3183
 30
0.0
 10
-102.6973
 20
-143.3183
 30
0.0
 10
-102.6681
 20
-143.4225
 30
0.0
 10
-102.6239
 20
-143.5293
 30
0.0
 10
-102.5646
 20
-143.6386
 30
0.0
  0
SPLINE
  5
79
330
1F
100
AcDbEntity
  8
LAYER_1
100
AcDbSpline
210
0.0
220
0.0
230
1.0
 70
    11
 71
     3
 72
    36
 73
    32
 74
     0
 42
0.0000000001
 43
0.0000000001
 40
0.0
 40
0.0
 40
0.0
 40
0.0
 40
0.125
 40
0.125
 40
0.125
 40
0.125
 40
0.25
 40
0.25
 40
0.25
 40
0.25
 40
0.375
 40
0.375
 40
0.375
 40
0.375
 40
0.5
 40
0.5
 40
0.5
 40
0.5
 40
0.625
 40
0.625
 40
0.625
 40
0.625
 40
0.75
 40
0.75
 40
0.75
 40
0.75
 40
0.875
 40
0.875
 40
0.875
 40
0.875
 40
1.0
 40
1.0
 40
1.0
 40
1.0
 10
-102.4449
 20
-142.4239
 30
0.0
 10
-102.4449
 20
-142.4239
 30
0.0
 10
-101.4969
 20
-142.4239
 30
0.0
 10
-101.4969
 20
-142.4239
 30
0.0
 10
-101.4969
 20
-142.4239
 30
0.0
 10
-101.4969
 20
-142.4239
 30
0.0
 10
-101.4969
 20
-142.6245
 30
0.0
 10
-101.4969
 20
-142.6245
 30
0.0
 10
-101.4969
 20
-142.6245
 30
0.0
 10
-101.4969
 20
-142.6245
 30
0.0
 10
-101.8379
 20
-142.6245
 30
0.0
 10
-101.8379
 20
-142.6245
 30
0.0
 10
-101.8379
 20
-142.6245
 30
0.0
 10
-101.8379
 20
-142.6245
 30
0.0
 10
-101.8379
 20
-143.4526
 30
0.0
 10
-101.8379
 20
-143.4526
 30
0.0
 10
-101.8379
 20
-143.4526
 30
0.0
 10
-101.8379
 20
-143.4526
 30
0.0
 10
-102.1032
 20
-143.4526
 30
0.0
 10
-102.1032
 20
-143.4526
 30
0.0
 10
-102.1032
 20
-143.4526
 30
0.0
 10
-102.1032
 20
-143.4526
 30
0.0
 10
-102.1032
 20
-142.6245
 30
0.0
 10
-102.1032
 20
-142.6245
 30
0.0
 10
-102.1032
 20
-142.6245
 30
0.0
 10
-102.1032
 20
-142.6245
 30
0.0
 10
-102.4449
 20
-142.6245
 30
0.0
 10
-102.4449
 20
-142.6245
 30
0.0
 10
-102.4449
 20
-142.6245
 30
0.0
 10
-102.4449
 20
-142.6245
 30
0.0
 10
-102.4449
 20
-142.4239
 30
0.0
 10
-102.4449
 20
-142.4239
 30
0.0
  0
SPLINE
  5
7A
330
1F
100
AcDbEntity
  8
LAYER_1
100
AcDbSpline
210
0.0
220
0.0
230
1.0
 70
    11
 71
     3
 72
    36
 73
    32
 74
     0
 42
0.0000000001
 43
0.0000000001
 40
0.0
 40
0.0
 40
0.0
 40
0.0
 40
0.125
 40
0.125
 40
0.125
 40
0.125
 40
0.25
 40
0.25
 40
0.25
 40
0.25
 40
0.375
 40
0.375
 40
0.375
 40
0.375
 40
0.5
 40
0.5
 40
0.5
 40
0.5
 40
0.625
 40
0.625
 40
0.625
 40
0.625
 40
0.75
 40
0.75
 40
0.75
 40
0.75
 40
0.875
 40
0.875
 40
0.875
 40
0.875
 40
1.0
 40
1.0
 40
1.0
 40
1.0
 10
-100.8449
 20
-143.2654
 30
0.0
 10
-100.8449
 20
-143.2654
 30
0.0
 10
-101.2598
 20
-143.2654
 30
0.0
 10
-101.2598
 20
-143.2654
 30
0.0
 10
-101.2598
 20
-143.2654
 30
0.0
 10
-101.2598
 20
-143.2654
 30
0.0
 10
-101.3252
 20
-143.4526
 30
0.0
 10
-101.3252
 20
-143.4526
 30
0.0
 10
-101.3252
 20
-143.4526
 30
0.0
 10
-101.3252
 20
-143.4526
 30
0.0
 10
-101.5919
 20
-143.4526
 30
0.0
 10
-101.5919
 20
-143.4526
 30
0.0
 10
-101.5919
 20
-143.4526
 30
0.0
 10
-101.5919
 20
-143.4526
 30
0.0
 10
-101.2109
 20
-142.4239
 30
0.0
 10
-101.2109
 20
-142.4239
 30
0.0
 10
-101.2109
 20
-142.4239
 30
0.0
 10
-101.2109
 20
-142.4239
 30
0.0
 10
-100.8946
 20
-142.4239
 30
0.0
 10
-100.8946
 20
-142.4239
 30
0.0
 10
-100.8946
 20
-142.4239
 30
0.0
 10
-100.8946
 20
-142.4239
 30
0.0
 10
-100.5136
 20
-143.4526
 30
0.0
 10
-100.5136
 20
-143.4526
 30
0.0
 10
-100.5136
 20
-143.4526
 30
0.0
 10
-100.5136
 20
-143.4526
 30
0.0
 10
-100.7803
 20
-143.4526
 30
0.0
 10
-100.7803
 20
-143.4526
 30
0.0
 10
-100.7803
 20
-143.4526
 30
0.0
 10
-100.7803
 20
-143.4526
 30
0.0
 10
-100.8449
 20
-143.2654
 30
0.0
 10
-100.8449
 20
-143.2654
 30
0.0
  0
SPLINE
  5
7B
330
1F
100
AcDbEntity
  8
LAYER_1
100
AcDbSpline
210
0.0
220
0.0
230
1.0
 70
    11
 71
     3
 72
    16
 73
    12
 74
     0
 42
0.0000000001
 43
0.0000000001
 40
0.0
 40
0.0
 40
0.0
 40
0.0
 40
0.3333333333333333
 40
0.3333333333333333
 40
0.3333333333333333
 40
0.3333333333333333
 40
0.6666666666666666
 40
0.6666666666666666
 40
0.6666666666666666
 40
0.6666666666666666
 40
1.0
 40
1.0
 40
1.0
 40
1.0
 10
-101.1937
 20
-143.0744
 30
0.0
 10
-101.1937
 20
-143.0744
 30
0.0
 10
-100.9117
 20
-143.0744
 30
0.0
 10
-100.9117
 20
-143.0744
 30
0.0
 10
-100.9117
 20
-143.0744
 30
0.0
 10
-100.9117
 20
-143.0744
 30
0.0
 10
-101.0524
 20
-142.6652
 30
0.0
 10
-101.0524
 20
-142.6652
 30
0.0
 10
-101.0524
 20
-142.6652
 30
0.0
 10
-101.0524
 20
-142.6652
 30
0.0
 10
-101.1937
 20
-143.0744
 30
0.0
 10
-101.1937
 20
-143.0744
 30
0.0
  0
SPLINE
  5
7C
330
1F
100
AcDbEntity
  8
LAYER_1
100
AcDbSpline
210
0.0
220
0.0
230
1.0
 70
    11
 71
     3
 72
    76
 73
    72
 74
     0
 42
0.0000000001
 43
0.0000000001
 40
0.0
 40
0.0
 40
0.0
 40
0.0
 40
0.0555555555555556
 40
0.0555555555555556
 40
0.0555555555555556
 40
0.0555555555555556
 40
0.1111111111111111
 40
0.1111111111111111
 40
0.1111111111111111
 40
0.1111111111111111
 40
0.1666666666666667
 40
0.1666666666666667
 40
0.1666666666666667
 40
0.1666666666666667
 40
0.2222222222222222
 40
0.2222222222222222
 40
0.2222222222222222
 40
0.2222222222222222
 40
0.2777777777777778
 40
0.2777777777777778
 40
0.2777777777777778
 40
0.2777777777777778
 40
0.3333333333333334
 40
0.3333333333333334
 40
0.3333333333333334
 40
0.3333333333333334
 40
0.388888888888889
 40
0.388888888888889
 40
0.388888888888889
 40
0.388888888888889
 40
0.4444444444444445
 40
0.4444444444444445
 40
0.4444444444444445
 40
0.4444444444444445
 40
0.5000000000000001
 40
0.5000000000000001
 40
0.5000000000000001
 40
0.5000000000000001
 40
0.5555555555555557
 40
0.5555555555555557
 40
0.5555555555555557
 40
0.5555555555555557
 40
0.6111111111111113
 40
0.6111111111111113
 40
0.6111111111111113
 40
0.6111111111111113
 40
0.6666666666666669
 40
0.6666666666666669
 40
0.6666666666666669
 40
0.6666666666666669
 40
0.7222222222222224
 40
0.7222222222222224
 40
0.7222222222222224
 40
0.7222222222222224
 40
0.777777777777778
 40
0.777777777777778
 40
0.777777777777778
 40
0.777777777777778
 40
0.8333333333333336
 40
0.8333333333333336
 40
0.8333333333333336
 40
0.8333333333333336
 40
0.8888888888888892
 40
0.8888888888888892
 40
0.8888888888888892
 40
0.8888888888888892
 40
0.9444444444444448
 40
0.9444444444444448
 40
0.9444444444444448
 40
0.9444444444444448
 40
1.0
 40
1.0
 40
1.0
 40
1.0
 10
-99.5611
 20
-143.3962
 30
0.0
 10
-99.6097
 20
-143.4213
 30
0.0
 10
-99.6605
 20
-143.4404
 30
0.0
 10
-99.7135
 20
-143.4533
 30
0.0
 10
-99.7135
 20
-143.4533
 30
0.0
 10
-99.7661
 20
-143.4662
 30
0.0
 10
-99.8214
 20
-143.4726
 30
0.0
 10
-99.8788
 20
-143.4726
 30
0.0
 10
-99.8788
 20
-143.4726
 30
0.0
 10
-100.05
 20
-143.4726
 30
0.0
 10
-100.1857
 20
-143.4246
 30
0.0
 10
-100.2859
 20
-143.3289
 30
0.0
 10
-100.2859
 20
-143.3289
 30
0.0
 10
-100.3861
 20
-143.2332
 30
0.0
 10
-100.4362
 20
-143.1034
 30
0.0
 10
-100.4362
 20
-142.9392
 30
0.0
 10
-100.4362
 20
-142.9392
 30
0.0
 10
-100.4362
 20
-142.7748
 30
0.0
 10
-100.3861
 20
-142.6447
 30
0.0
 10
-100.2859
 20
-142.549
 30
0.0
 10
-100.2859
 20
-142.549
 30
0.0
 10
-100.1857
 20
-142.4533
 30
0.0
 10
-100.05
 20
-142.4053
 30
0.0
 10
-99.8788
 20
-142.4053
 30
0.0
 10
-99.8788
 20
-142.4053
 30
0.0
 10
-99.8214
 20
-142.4053
 30
0.0
 10
-99.7661
 20
-142.4117
 30
0.0
 10
-99.7135
 20
-142.4246
 30
0.0
 10
-99.7135
 20
-142.4246
 30
0.0
 10
-99.6605
 20
-142.4375
 30
0.0
 10
-99.6097
 20
-142.4566
 30
0.0
 10
-99.5611
 20
-142.4818
 30
0.0
 10
-99.5611
 20
-142.4818
 30
0.0
 10
-99.5611
 20
-142.4818
 30
0.0
 10
-99.5611
 20
-142.6946
 30
0.0
 10
-99.5611
 20
-142.6946
 30
0.0
 10
-99.5611
 20
-142.6946
 30
0.0
 10
-99.6102
 20
-142.661
 30
0.0
 10
-99.6587
 20
-142.6365
 30
0.0
 10
-99.7064
 20
-142.621
 30
0.0
 10
-99.7064
 20
-142.621
 30
0.0
 10
-99.7541
 20
-142.6052
 30
0.0
 10
-99.8045
 20
-142.5975
 30
0.0
 10
-99.8574
 20
-142.5975
 30
0.0
 10
-99.8574
 20
-142.5975
 30
0.0
 10
-99.9519
 20
-142.5975
 30
0.0
 10
-100.0265
 20
-142.6278
 30
0.0
 10
-100.0806
 20
-142.6885
 30
0.0
 10
-100.0806
 20
-142.6885
 30
0.0
 10
-100.1349
 20
-142.7492
 30
0.0
 10
-100.162
 20
-142.8327
 30
0.0
 10
-100.162
 20
-142.9392
 30
0.0
 10
-100.162
 20
-142.9392
 30
0.0
 10
-100.162
 20
-143.0455
 30
0.0
 10
-100.1349
 20
-143.1288
 30
0.0
 10
-100.0806
 20
-143.1894
 30
0.0
 10
-100.0806
 20
-143.1894
 30
0.0
 10
-100.0265
 20
-143.2501
 30
0.0
 10
-99.9519
 20
-143.2804
 30
0.0
 10
-99.8574
 20
-143.2804
 30
0.0
 10
-99.8574
 20
-143.2804
 30
0.0
 10
-99.8045
 20
-143.2804
 30
0.0
 10
-99.7541
 20
-143.2727
 30
0.0
 10
-99.7064
 20
-143.2569
 30
0.0
 10
-99.7064
 20
-143.2569
 30
0.0
 10
-99.6587
 20
-143.2414
 30
0.0
 10
-99.6102
 20
-143.2169
 30
0.0
 10
-99.5611
 20
-143.1833
 30
0.0
 10
-99.5611
 20
-143.1833
 30
0.0
 10
-99.5611
 20
-143.1833
 30
0.0
 10
-99.5611
 20
-143.3962
 30
0.0
 10
-99.5611
 20
-143.3962
 30
0.0
  0
SPLINE
  5
7D
330
1F
100
AcDbEntity
  8
LAYER_1
100
AcDbSpline
210
0.0
220
0.0
230
1.0
 70
    11
 71
     3
 72
    36
 73
    32
 74
     0
 42
0.0000000001
 43
0.0000000001
 40
0.0
 40
0.0
 40
0.0
 40
0.0
 40
0.125
 40
0.125
 40
0.125
 40
0.125
 40
0.25
 40
0.25
 40
0.25
 40
0.25
 40
0.375
 40
0.375
 40
0.375
 40
0.375
 40
0.5
 40
0.5
 40
0.5
 40
0.5
 40
0.625
 40
0.625
 40
0.625
 40
0.625
 40
0.75
 40
0.75
 40
0.75
 40
0.75
 40
0.875
 40
0.875
 40
0.875
 40
0.875
 40
1.0
 40
1.0
 40
1.0
 40
1.0
 10
-99.4642
 20
-142.4239
 30
0.0
 10
-99.4642
 20
-142.4239
 30
0.0
 10
-98.5162
 20
-142.4239
 30
0.0
 10
-98.5162
 20
-142.4239
 30
0.0
 10
-98.5162
 20
-142.4239
 30
0.0
 10
-98.5162
 20
-142.4239
 30
0.0
 10
-98.5162
 20
-142.6245
 30
0.0
 10
-98.5162
 20
-142.6245
 30
0.0
 10
-98.5162
 20
-142.6245
 30
0.0
 10
-98.5162
 20
-142.6245
 30
0.0
 10
-98.8572
 20
-142.6245
 30
0.0
 10
-98.8572
 20
-142.6245
 30
0.0
 10
-98.8572
 20
-142.6245
 30
0.0
 10
-98.8572
 20
-142.6245
 30
0.0
 10
-98.8572
 20
-143.4526
 30
0.0
 10
-98.8572
 20
-143.4526
 30
0.0
 10
-98.8572
 20
-143.4526
 30
0.0
 10
-98.8572
 20
-143.4526
 30
0.0
 10
-99.1225
 20
-143.4526
 30
0.0
 10
-99.1225
 20
-143.4526
 30
0.0
 10
-99.1225
 20
-143.4526
 30
0.0
 10
-99.1225
 20
-143.4526
 30
0.0
 10
-99.1225
 20
-142.6245
 30
0.0
 10
-99.1225
 20
-142.6245
 30
0.0
 10
-99.1225
 20
-142.6245
 30
0.0
 10
-99.1225
 20
-142.6245
 30
0.0
 10
-99.4642
 20
-142.6245
 30
0.0
 10
-99.4642
 20
-142.6245
 30
0.0
 10
-99.4642
 20
-142.6245
 30
0.0
 10
-99.4642
 20
-142.6245
 30
0.0
 10
-99.4642
 20
-142.4239
 30
0.0
 10
-99.4642
 20
-142.4239
 30
0.0
  0
SPLINE
  5
7E
330
1F
100
AcDbEntity
  8
LAYER_1
100
AcDbSpline
210
0.0
220
0.0
230
1.0
 70
    11
 71
     3
 72
    20
 73
    16
 74
     0
 42
0.0000000001
 43
0.0000000001
 40
0.0
 40
0.0
 40
0.0
 40
0.0
 40
0.25
 40
0.25
 40
0.25
 40
0.25
 40
0.5
 40
0.5
 40
0.5
 40
0.5
 40
0.75
 40
0.75
 40
0.75
 40
0.75
 40
1.0
 40
1.0
 40
1.0
 40
1.0
 10
-98.3788
 20
-142.4239
 30
0.0
 10
-98.3788
 20
-142.4239
 30
0.0
 10
-98.1135
 20
-142.4239
 30
0.0
 10
-98.1135
 20
-142.4239
 30
0.0
 10
-98.1135
 20
-142.4239
 30
0.0
 10
-98.1135
 20
-142.4239
 30
0.0
 10
-98.1135
 20
-143.4526
 30
0.0
 10
-98.1135
 20
-143.4526
 30
0.0
 10
-98.1135
 20
-143.4526
 30
0.0
 10
-98.1135
 20
-143.4526
 30
0.0
 10
-98.3788
 20
-143.4526
 30
0.0
 10
-98.3788
 20
-143.4526
 30
0.0
 10
-98.3788
 20
-143.4526
 30
0.0
 10
-98.3788
 20
-143.4526
 30
0.0
 10
-98.3788
 20
-142.4239
 30
0.0
 10
-98.3788
 20
-142.4239
 30
0.0
  0
SPLINE
  5
7F
330
1F
100
AcDbEntity
  8
LAYER_1
100
AcDbSpline
210
0.0
220
0.0
230
1.0
 70
    11
 71
     3
 72
    28
 73
    24
 74
     0
 42
0.0000000001
 43
0.0000000001
 40
0.0
 40
0.0
 40
0.0
 40
0.0
 40
0.1666666666666667
 40
0.1666666666666667
 40
0.1666666666666667
 40
0.1666666666666667
 40
0.3333333333333333
 40
0.3333333333333333
 40
0.3333333333333333
 40
0.3333333333333333
 40
0.5
 40
0.5
 40
0.5
 40
0.5
 40
0.6666666666666666
 40
0.6666666666666666
 40
0.6666666666666666
 40
0.6666666666666666
 40
0.8333333333333333
 40
0.8333333333333333
 40
0.8333333333333333
 40
0.8333333333333333
 40
1.0
 40
1.0
 40
1.0
 40
1.0
 10
-97.8539
 20
-142.4239
 30
0.0
 10
-97.8539
 20
-142.4239
 30
0.0
 10
-97.5886
 20
-142.4239
 30
0.0
 10
-97.5886
 20
-142.4239
 30
0.0
 10
-97.5886
 20
-142.4239
 30
0.0
 10
-97.5886
 20
-142.4239
 30
0.0
 10
-97.5886
 20
-143.252
 30
0.0
 10
-97.5886
 20
-143.252
 30
0.0
 10
-97.5886
 20
-143.252
 30
0.0
 10
-97.5886
 20
-143.252
 30
0.0
 10
-97.123
 20
-143.252
 30
0.0
 10
-97.123
 20
-143.252
 30
0.0
 10
-97.123
 20
-143.252
 30
0.0
 10
-97.123
 20
-143.252
 30
0.0
 10
-97.123
 20
-143.4526
 30
0.0
 10
-97.123
 20
-143.4526
 30
0.0
 10
-97.123
 20
-143.4526
 30
0.0
 10
-97.123
 20
-143.4526
 30
0.0
 10
-97.8539
 20
-143.4526
 30
0.0
 10
-97.8539
 20
-143.4526
 30
0.0
 10
-97.8539
 20
-143.4526
 30
0.0
 10
-97.8539
 20
-143.4526
 30
0.0
 10
-97.8539
 20
-142.4239
 30
0.0
 10
-97.8539
 20
-142.4239
 30
0.0
  0
SPLINE
  5
80
330
1F
100
AcDbEntity
  8
LAYER_1
100
AcDbSpline
210
0.0
220
0.0
230
1.0
 70
    11
 71
     3
 72
    52
 73
    48
 74
     0
 42
0.0000000001
 43
0.0000000001
 40
0.0
 40
0.0
 40
0.0
 40
0.0
 40
0.0833333333333333
 40
0.0833333333333333
 40
0.0833333333333333
 40
0.0833333333333333
 40
0.1666666666666667
 40
0.1666666666666667
 40
0.1666666666666667
 40
0.1666666666666667
 40
0.25
 40
0.25
 40
0.25
 40
0.25
 40
0.3333333333333333
 40
0.3333333333333333
 40
0.3333333333333333
 40
0.3333333333333333
 40
0.4166666666666666
 40
0.4166666666666666
 40
0.4166666666666666
 40
0.4166666666666666
 40
0.4999999999999999
 40
0.4999999999999999
 40
0.4999999999999999
 40
0.4999999999999999
 40
0.5833333333333333
 40
0.5833333333333333
 40
0.5833333333333333
 40
0.5833333333333333
 40
0.6666666666666666
 40
0.6666666666666666
 40
0.6666666666666666
 40
0.6666666666666666
 40
0.75
 40
0.75
 40
0.75
 40
0.75
 40
0.8333333333333334
 40
0.8333333333333334
 40
0.8333333333333334
 40
0.8333333333333334
 40
0.9166666666666667
 40
0.9166666666666667
 40
0.9166666666666667
 40
0.9166666666666667
 40
1.0
 40
1.0
 40
1.0
 40
1.0
 10
-96.9548
 20
-142.4239
 30
0.0
 10
-96.9548
 20
-142.4239
 30
0.0
 10
-96.2389
 20
-142.4239
 30
0.0
 10
-96.2389
 20
-142.4239
 30
0.0
 10
-96.2389
 20
-142.4239
 30
0.0
 10
-96.2389
 20
-142.4239
 30
0.0
 10
-96.2389
 20
-142.6245
 30
0.0
 10
-96.2389
 20
-142.6245
 30
0.0
 10
-96.2389
 20
-142.6245
 30
0.0
 10
-96.2389
 20
-142.6245
 30
0.0
 10
-96.6895
 20
-142.6245
 30
0.0
 10
-96.6895
 20
-142.6245
 30
0.0
 10
-96.6895
 20
-142.6245
 30
0.0
 10
-96.6895
 20
-142.6245
 30
0.0
 10
-96.6895
 20
-142.816
 30
0.0
 10
-96.6895
 20
-142.816
 30
0.0
 10
-96.6895
 20
-142.816
 30
0.0
 10
-96.6895
 20
-142.816
 30
0.0
 10
-96.266
 20
-142.816
 30
0.0
 10
-96.266
 20
-142.816
 30
0.0
 10
-96.266
 20
-142.816
 30
0.0
 10
-96.266
 20
-142.816
 30
0.0
 10
-96.266
 20
-143.0166
 30
0.0
 10
-96.266
 20
-143.0166
 30
0.0
 10
-96.266
 20
-143.0166
 30
0.0
 10
-96.266
 20
-143.0166
 30
0.0
 10
-96.6895
 20
-143.0166
 30
0.0
 10
-96.6895
 20
-143.0166
 30
0.0
 10
-96.6895
 20
-143.0166
 30
0.0
 10
-96.6895
 20
-143.0166
 30
0.0
 10
-96.6895
 20
-143.252
 30
0.0
 10
-96.6895
 20
-143.252
 30
0.0
 10
-96.6895
 20
-143.252
 30
0.0
 10
-96.6895
 20
-143.252
 30
0.0
 10
-96.2239
 20
-143.252
 30
0.0
 10
-96.2239
 20
-143.252
 30
0.0
 10
-96.2239
 20
-143.252
 30
0.0
 10
-96.2239
 20
-143.252
 30
0.0
 10
-96.2239
 20
-143.4526
 30
0.0
 10
-96.2239
 20
-143.4526
 30
0.0
 10
-96.2239
 20
-143.4526
 30
0.0
 10
-96.2239
 20
-143.4526
 30
0.0
 10
-96.9548
 20
-143.4526
 30
0.0
 10
-96.9548
 20
-143.4526
 30
0.0
 10
-96.9548
 20
-143.4526
 30
0.0
 10
-96.9548
 20
-143.4526
 30
0.0
 10
-96.9548
 20
-142.4239
 30
0.0
 10
-96.9548
 20
-142.4239
 30
0.0
  0
SPLINE
  5
81
330
1F
100
AcDbEntity
  8
LAYER_1
100
AcDbSpline
210
0.0
220
0.0
230
1.0
 70
    11
 71
     3
 72
    44
 73
    40
 74
     0
 42
0.0000000001
 43
0.0000000001
 40
0.0
 40
0.0
 40
0.0
 40
0.0
 40
0.1
 40
0.1
 40
0.1
 40
0.1
 40
0.2
 40
0.2
 40
0.2
 40
0.2
 40
0.3
 40
0.3
 40
0.3
 40
0.3
 40
0.4
 40
0.4
 40
0.4
 40
0.4
 40
0.5
 40
0.5
 40
0.5
 40
0.5
 40
0.6
 40
0.6
 40
0.6
 40
0.6
 40
0.7
 40
0.7
 40
0.7
 40
0.7
 40
0.7999999999999999
 40
0.7999999999999999
 40
0.7999999999999999
 40
0.7999999999999999
 40
0.8999999999999999
 40
0.8999999999999999
 40
0.8999999999999999
 40
0.8999999999999999
 40
1.0
 40
1.0
 40
1.0
 40
1.0
 10
-96.0075
 20
-143.6386
 30
0.0
 10
-95.9487
 20
-143.5293
 30
0.0
 10
-95.9045
 20
-143.4225
 30
0.0
 10
-95.8751
 20
-143.3183
 30
0.0
 10
-95.8751
 20
-143.3183
 30
0.0
 10
-95.8457
 20
-143.2139
 30
0.0
 10
-95.8311
 20
-143.1111
 30
0.0
 10
-95.8311
 20
-143.0095
 30
0.0
 10
-95.8311
 20
-143.0095
 30
0.0
 10
-95.8311
 20
-142.9079
 30
0.0
 10
-95.8457
 20
-142.8051
 30
0.0
 10
-95.8751
 20
-142.7012
 30
0.0
 10
-95.8751
 20
-142.7012
 30
0.0
 10
-95.9045
 20
-142.5972
 30
0.0
 10
-95.9487
 20
-142.4907
 30
0.0
 10
-96.0075
 20
-142.3818
 30
0.0
 10
-96.0075
 20
-142.3818
 30
0.0
 10
-96.0075
 20
-142.3818
 30
0.0
 10
-95.8029
 20
-142.3818
 30
0.0
 10
-95.8029
 20
-142.3818
 30
0.0
 10
-95.8029
 20
-142.3818
 30
0.0
 10
-95.7331
 20
-142.4945
 30
0.0
 10
-95.6813
 20
-142.6022
 30
0.0
 10
-95.6474
 20
-142.7054
 30
0.0
 10
-95.6474
 20
-142.7054
 30
0.0
 10
-95.6138
 20
-142.8084
 30
0.0
 10
-95.5969
 20
-142.9103
 30
0.0
 10
-95.5969
 20
-143.0109
 30
0.0
 10
-95.5969
 20
-143.0109
 30
0.0
 10
-95.5969
 20
-143.1116
 30
0.0
 10
-95.6136
 20
-143.2129
 30
0.0
 10
-95.6472
 20
-143.315
 30
0.0
 10
-95.6472
 20
-143.315
 30
0.0
 10
-95.6806
 20
-143.4173
 30
0.0
 10
-95.7326
 20
-143.5253
 30
0.0
 10
-95.8029
 20
-143.6386
 30
0.0
 10
-95.8029
 20
-143.6386
 30
0.0
 10
-95.8029
 20
-143.6386
 30
0.0
 10
-96.0075
 20
-143.6386
 30
0.0
 10
-96.0075
 20
-143.6386
 30
0.0
  0
SPLINE
  5
82
330
1F
100
AcDbEntity
  8
LAYER_1
100
AcDbSpline
210
0.0
220
0.0
230
1.0
 70
    11
 71
     3
 72
    36
 73
    32
 74
     0
 42
0.0000000001
 43
0.0000000001
 40
0.0
 40
0.0
 40
0.0
 40
0.0
 40
0.125
 40
0.125
 40
0.125
 40
0.125
 40
0.25
 40
0.25
 40
0.25
 40
0.25
 40
0.375
 40
0.375
 40
0.375
 40
0.375
 40
0.5
 40
0.5
 40
0.5
 40
0.5
 40
0.625
 40
0.625
 40
0.625
 40
0.625
 40
0.75
 40
0.75
 40
0.75
 40
0.75
 40
0.875
 40
0.875
 40
0.875
 40
0.875
 40
1.0
 40
1.0
 40
1.0
 40
1.0
 10
-107.6772
 20
-158.6378
 30
0.0
 10
-107.7229
 20
-158.6378
 30
0.0
 10
-107.7574
 20
-158.6555
 30
0.0
 10
-107.7809
 20
-158.691
 30
0.0
 10
-107.7809
 20
-158.691
 30
0.0
 10
-107.8044
 20
-158.7265
 30
0.0
 10
-107.8161
 20
-158.7792
 30
0.0
 10
-107.8161
 20
-158.8487
 30
0.0
 10
-107.8161
 20
-158.8487
 30
0.0
 10
-107.8161
 20
-158.918
 30
0.0
 10
-107.8044
 20
-158.9705
 30
0.0
 10
-107.7809
 20
-159.0062
 30
0.0
 10
-107.7809
 20
-159.0062
 30
0.0
 10
-107.7574
 20
-159.0419
 30
0.0
 10
-107.7229
 20
-159.0597
 30
0.0
 10
-107.6772
 20
-159.0597
 30
0.0
 10
-107.6772
 20
-159.0597
 30
0.0
 10
-107.6314
 20
-159.0597
 30
0.0
 10
-107.5967
 20
-159.0419
 30
0.0
 10
-107.5732
 20
-159.0062
 30
0.0
 10
-107.5732
 20
-159.0062
 30
0.0
 10
-107.5497
 20
-158.9705
 30
0.0
 10
-107.5381
 20
-158.918
 30
0.0
 10
-107.5381
 20
-158.8487
 30
0.0
 10
-107.5381
 20
-158.8487
 30
0.0
 10
-107.5381
 20
-158.7792
 30
0.0
 10
-107.5497
 20
-158.7265
 30
0.0
 10
-107.5732
 20
-158.691
 30
0.0
 10
-107.5732
 20
-158.691
 30
0.0
 10
-107.5967
 20
-158.6555
 30
0.0
 10
-107.6314
 20
-158.6378
 30
0.0
 10
-107.6772
 20
-158.6378
 30
0.0
  0
SPLINE
  5
83
330
1F
100
AcDbEntity
  8
LAYER_1
100
AcDbSpline
210
0.0
220
0.0
230
1.0
 70
    11
 71
     3
 72
    36
 73
    32
 74
     0
 42
0.0000000001
 43
0.0000000001
 40
0.0
 40
0.0
 40
0.0
 40
0.0
 40
0.125
 40
0.125
 40
0.125
 40
0.125
 40
0.25
 40
0.25
 40
0.25
 40
0.25
 40
0.375
 40
0.375
 40
0.375
 40
0.375
 40
0.5
 40
0.5
 40
0.5
 40
0.5
 40
0.625
 40
0.625
 40
0.625
 40
0.625
 40
0.75
 40
0.75
 40
0.75
 40
0.75
 40
0.875
 40
0.875
 40
0.875
 40
0.875
 40
1.0
 40
1.0
 40
1.0
 40
1.0
 10
-107.6772
 20
-158.5616
 30
0.0
 10
-107.6014
 20
-158.5616
 30
0.0
 10
-107.5434
 20
-158.5861
 30
0.0
 10
-107.5032
 20
-158.6353
 30
0.0
 10
-107.5032
 20
-158.6353
 30
0.0
 10
-107.463
 20
-158.6845
 30
0.0
 10
-107.4429
 20
-158.7557
 30
0.0
 10
-107.4429
 20
-158.8487
 30
0.0
 10
-107.4429
 20
-158.8487
 30
0.0
 10
-107.4429
 20
-158.9422
 30
0.0
 10
-107.4629
 20
-159.0134
 30
0.0
 10
-107.5029
 20
-159.0624
 30
0.0
 10
-107.5029
 20
-159.0624
 30
0.0
 10
-107.5431
 20
-159.1114
 30
0.0
 10
-107.6011
 20
-159.1359
 30
0.0
 10
-107.6772
 20
-159.1359
 30
0.0
 10
-107.6772
 20
-159.1359
 30
0.0
 10
-107.7532
 20
-159.1359
 30
0.0
 10
-107.8111
 20
-159.1114
 30
0.0
 10
-107.8513
 20
-159.0624
 30
0.0
 10
-107.8513
 20
-159.0624
 30
0.0
 10
-107.8913
 20
-159.0134
 30
0.0
 10
-107.9113
 20
-158.9422
 30
0.0
 10
-107.9113
 20
-158.8487
 30
0.0
 10
-107.9113
 20
-158.8487
 30
0.0
 10
-107.9113
 20
-158.7557
 30
0.0
 10
-107.8913
 20
-158.6845
 30
0.0
 10
-107.8513
 20
-158.6353
 30
0.0
 10
-107.8513
 20
-158.6353
 30
0.0
 10
-107.8111
 20
-158.5861
 30
0.0
 10
-107.7532
 20
-158.5616
 30
0.0
 10
-107.6772
 20
-158.5616
 30
0.0
  0
SPLINE
  5
84
330
1F
100
AcDbEntity
  8
LAYER_1
100
AcDbSpline
210
0.0
220
0.0
230
1.0
 70
    11
 71
     3
 72
    36
 73
    32
 74
     0
 42
0.0000000001
 43
0.0000000001
 40
0.0
 40
0.0
 40
0.0
 40
0.0
 40
0.125
 40
0.125
 40
0.125
 40
0.125
 40
0.25
 40
0.25
 40
0.25
 40
0.25
 40
0.375
 40
0.375
 40
0.375
 40
0.375
 40
0.5
 40
0.5
 40
0.5
 40
0.5
 40
0.625
 40
0.625
 40
0.625
 40
0.625
 40
0.75
 40
0.75
 40
0.75
 40
0.75
 40
0.875
 40
0.875
 40
0.875
 40
0.875
 40
1.0
 40
1.0
 40
1.0
 40
1.0
 10
-107.0751
 20
-158.6378
 30
0.0
 10
-107.1208
 20
-158.6378
 30
0.0
 10
-107.1553
 20
-158.6555
 30
0.0
 10
-107.1788
 20
-158.691
 30
0.0
 10
-107.1788
 20
-158.691
 30
0.0
 10
-107.2023
 20
-158.7265
 30
0.0
 10
-107.214
 20
-158.7792
 30
0.0
 10
-107.214
 20
-158.8487
 30
0.0
 10
-107.214
 20
-158.8487
 30
0.0
 10
-107.214
 20
-158.918
 30
0.0
 10
-107.2023
 20
-158.9705
 30
0.0
 10
-107.1788
 20
-159.0062
 30
0.0
 10
-107.1788
 20
-159.0062
 30
0.0
 10
-107.1553
 20
-159.0419
 30
0.0
 10
-107.1208
 20
-159.0597
 30
0.0
 10
-107.0751
 20
-159.0597
 30
0.0
 10
-107.0751
 20
-159.0597
 30
0.0
 10
-107.0293
 20
-159.0597
 30
0.0
 10
-106.9946
 20
-159.0419
 30
0.0
 10
-106.9711
 20
-159.0062
 30
0.0
 10
-106.9711
 20
-159.0062
 30
0.0
 10
-106.9476
 20
-158.9705
 30
0.0
 10
-106.936
 20
-158.918
 30
0.0
 10
-106.936
 20
-158.8487
 30
0.0
 10
-106.936
 20
-158.8487
 30
0.0
 10
-106.936
 20
-158.7792
 30
0.0
 10
-106.9476
 20
-158.7265
 30
0.0
 10
-106.9711
 20
-158.691
 30
0.0
 10
-106.9711
 20
-158.691
 30
0.0
 10
-106.9946
 20
-158.6555
 30
0.0
 10
-107.0293
 20
-158.6378
 30
0.0
 10
-107.0751
 20
-158.6378
 30
0.0
  0
SPLINE
  5
85
330
1F
100
AcDbEntity
  8
LAYER_1
100
AcDbSpline
210
0.0
220
0.0
230
1.0
 70
    11
 71
     3
 72
    36
 73
    32
 74
     0
 42
0.0000000001
 43
0.0000000001
 40
0.0
 40
0.0
 40
0.0
 40
0.0
 40
0.125
 40
0.125
 40
0.125
 40
0.125
 40
0.25
 40
0.25
 40
0.25
 40
0.25
 40
0.375
 40
0.375
 40
0.375
 40
0.375
 40
0.5
 40
0.5
 40
0.5
 40
0.5
 40
0.625
 40
0.625
 40
0.625
 40
0.625
 40
0.75
 40
0.75
 40
0.75
 40
0.75
 40
0.875
 40
0.875
 40
0.875
 40
0.875
 40
1.0
 40
1.0
 40
1.0
 40
1.0
 10
-107.0751
 20
-158.5616
 30
0.0
 10
-106.9993
 20
-158.5616
 30
0.0
 10
-106.9413
 20
-158.5861
 30
0.0
 10
-106.9011
 20
-158.6353
 30
0.0
 10
-106.9011
 20
-158.6353
 30
0.0
 10
-106.8609
 20
-158.6845
 30
0.0
 10
-106.8408
 20
-158.7557
 30
0.0
 10
-106.8408
 20
-158.8487
 30
0.0
 10
-106.8408
 20
-158.8487
 30
0.0
 10
-106.8408
 20
-158.9422
 30
0.0
 10
-106.8608
 20
-159.0134
 30
0.0
 10
-106.9008
 20
-159.0624
 30
0.0
 10
-106.9008
 20
-159.0624
 30
0.0
 10
-106.941
 20
-159.1114
 30
0.0
 10
-106.999
 20
-159.1359
 30
0.0
 10
-107.0751
 20
-159.1359
 30
0.0
 10
-107.0751
 20
-159.1359
 30
0.0
 10
-107.1511
 20
-159.1359
 30
0.0
 10
-107.209
 20
-159.1114
 30
0.0
 10
-107.2492
 20
-159.0624
 30
0.0
 10
-107.2492
 20
-159.0624
 30
0.0
 10
-107.2892
 20
-159.0134
 30
0.0
 10
-107.3092
 20
-158.9422
 30
0.0
 10
-107.3092
 20
-158.8487
 30
0.0
 10
-107.3092
 20
-158.8487
 30
0.0
 10
-107.3092
 20
-158.7557
 30
0.0
 10
-107.2892
 20
-158.6845
 30
0.0
 10
-107.2492
 20
-158.6353
 30
0.0
 10
-107.2492
 20
-158.6353
 30
0.0
 10
-107.209
 20
-158.5861
 30
0.0
 10
-107.1511
 20
-158.5616
 30
0.0
 10
-107.0751
 20
-158.5616
 30
0.0
  0
SPLINE
  5
86
330
1F
100
AcDbEntity
  8
LAYER_1
100
AcDbSpline
210
0.0
220
0.0
230
1.0
 70
    11
 71
     3
 72
   112
 73
   108
 74
     0
 42
0.0000000001
 43
0.0000000001
 40
0.0
 40
0.0
 40
0.0
 40
0.0
 40
0.037037037037037
 40
0.037037037037037
 40
0.037037037037037
 40
0.037037037037037
 40
0.0740740740740741
 40
0.0740740740740741
 40
0.0740740740740741
 40
0.0740740740740741
 40
0.1111111111111111
 40
0.1111111111111111
 40
0.1111111111111111
 40
0.1111111111111111
 40
0.1481481481481481
 40
0.1481481481481481
 40
0.1481481481481481
 40
0.1481481481481481
 40
0.1851851851851852
 40
0.1851851851851852
 40
0.1851851851851852
 40
0.1851851851851852
 40
0.2222222222222222
 40
0.2222222222222222
 40
0.2222222222222222
 40
0.2222222222222222
 40
0.2592592592592592
 40
0.2592592592592592
 40
0.2592592592592592
 40
0.2592592592592592
 40
0.2962962962962963
 40
0.2962962962962963
 40
0.2962962962962963
 40
0.2962962962962963
 40
0.3333333333333333
 40
0.3333333333333333
 40
0.3333333333333333
 40
0.3333333333333333
 40
0.3703703703703703
 40
0.3703703703703703
 40
0.3703703703703703
 40
0.3703703703703703
 40
0.4074074074074074
 40
0.4074074074074074
 40
0.4074074074074074
 40
0.4074074074074074
 40
0.4444444444444444
 40
0.4444444444444444
 40
0.4444444444444444
 40
0.4444444444444444
 40
0.4814814814814815
 40
0.4814814814814815
 40
0.4814814814814815
 40
0.4814814814814815
 40
0.5185185185185185
 40
0.5185185185185185
 40
0.5185185185185185
 40
0.5185185185185185
 40
0.5555555555555556
 40
0.5555555555555556
 40
0.5555555555555556
 40
0.5555555555555556
 40
0.5925925925925926
 40
0.5925925925925926
 40
0.5925925925925926
 40
0.5925925925925926
 40
0.6296296296296295
 40
0.6296296296296295
 40
0.6296296296296295
 40
0.6296296296296295
 40
0.6666666666666665
 40
0.6666666666666665
 40
0.6666666666666665
 40
0.6666666666666665
 40
0.7037037037037035
 40
0.7037037037037035
 40
0.7037037037037035
 40
0.7037037037037035
 40
0.7407407407407405
 40
0.7407407407407405
 40
0.7407407407407405
 40
0.7407407407407405
 40
0.7777777777777775
 40
0.7777777777777775
 40
0.7777777777777775
 40
0.7777777777777775
 40
0.8148148148148144
 40
0.8148148148148144
 40
0.8148148148148144
 40
0.8148148148148144
 40
0.8518518518518514
 40
0.8518518518518514
 40
0.8518518518518514
 40
0.8518518518518514
 40
0.8888888888888884
 40
0.8888888888888884
 40
0.8888888888888884
 40
0.8888888888888884
 40
0.9259259259259254
 40
0.9259259259259254
 40
0.9259259259259254
 40
0.9259259259259254
 40
0.9629629629629624
 40
0.9629629629629624
 40
0.9629629629629624
 40
0.9629629629629624
 40
1.0
 40
1.0
 40
1.0
 40
1.0
 10
-106.4439
 20
-158.6305
 30
0.0
 10
-106.4329
 20
-158.607
 30
0.0
 10
-106.4187
 20
-158.5896
 30
0.0
 10
-106.4015
 20
-158.5785
 30
0.0
 10
-106.4015
 20
-158.5785
 30
0.0
 10
-106.3845
 20
-158.5673
 30
0.0
 10
-106.3639
 20
-158.5616
 30
0.0
 10
-106.3399
 20
-158.5616
 30
0.0
 10
-106.3399
 20
-158.5616
 30
0.0
 10
-106.2959
 20
-158.5616
 30
0.0
 10
-106.2648
 20
-158.5786
 30
0.0
 10
-106.2468
 20
-158.6126
 30
0.0
 10
-106.2468
 20
-158.6126
 30
0.0
 10
-106.2287
 20
-158.6467
 30
0.0
 10
-106.2197
 20
-158.7107
 30
0.0
 10
-106.2197
 20
-158.8048
 30
0.0
 10
-106.2197
 20
-158.8048
 30
0.0
 10
-106.2197
 20
-158.8048
 30
0.0
 10
-106.2197
 20
-159.1217
 30
0.0
 10
-106.2197
 20
-159.1217
 30
0.0
 10
-106.2197
 20
-159.1217
 30
0.0
 10
-106.2197
 20
-159.1217
 30
0.0
 10
-106.3017
 20
-159.1217
 30
0.0
 10
-106.3017
 20
-159.1217
 30
0.0
 10
-106.3017
 20
-159.1217
 30
0.0
 10
-106.3017
 20
-159.1217
 30
0.0
 10
-106.3017
 20
-158.8087
 30
0.0
 10
-106.3017
 20
-158.8087
 30
0.0
 10
-106.3017
 20
-158.8087
 30
0.0
 10
-106.3017
 20
-158.7315
 30
0.0
 10
-106.306
 20
-158.6837
 30
0.0
 10
-106.3147
 20
-158.6648
 30
0.0
 10
-106.3147
 20
-158.6648
 30
0.0
 10
-106.3232
 20
-158.6462
 30
0.0
 10
-106.339
 20
-158.6368
 30
0.0
 10
-106.3619
 20
-158.6368
 30
0.0
 10
-106.3619
 20
-158.6368
 30
0.0
 10
-106.3879
 20
-158.6368
 30
0.0
 10
-106.4057
 20
-158.6468
 30
0.0
 10
-106.4154
 20
-158.6668
 30
0.0
 10
-106.4154
 20
-158.6668
 30
0.0
 10
-106.4249
 20
-158.6868
 30
0.0
 10
-106.4297
 20
-158.7342
 30
0.0
 10
-106.4297
 20
-158.8087
 30
0.0
 10
-106.4297
 20
-158.8087
 30
0.0
 10
-106.4297
 20
-158.8087
 30
0.0
 10
-106.4297
 20
-159.1217
 30
0.0
 10
-106.4297
 20
-159.1217
 30
0.0
 10
-106.4297
 20
-159.1217
 30
0.0
 10
-106.4297
 20
-159.1217
 30
0.0
 10
-106.5117
 20
-159.1217
 30
0.0
 10
-106.5117
 20
-159.1217
 30
0.0
 10
-106.5117
 20
-159.1217
 30
0.0
 10
-106.5117
 20
-159.1217
 30
0.0
 10
-106.5117
 20
-158.8087
 30
0.0
 10
-106.5117
 20
-158.8087
 30
0.0
 10
-106.5117
 20
-158.8087
 30
0.0
 10
-106.5117
 20
-158.7305
 30
0.0
 10
-106.5164
 20
-158.6823
 30
0.0
 10
-106.5257
 20
-158.6642
 30
0.0
 10
-106.5257
 20
-158.6642
 30
0.0
 10
-106.5349
 20
-158.646
 30
0.0
 10
-106.5515
 20
-158.6368
 30
0.0
 10
-106.5757
 20
-158.6368
 30
0.0
 10
-106.5757
 20
-158.6368
 30
0.0
 10
-106.5995
 20
-158.6368
 30
0.0
 10
-106.6161
 20
-158.6468
 30
0.0
 10
-106.6252
 20
-158.6668
 30
0.0
 10
-106.6252
 20
-158.6668
 30
0.0
 10
-106.6346
 20
-158.6868
 30
0.0
 10
-106.6392
 20
-158.7342
 30
0.0
 10
-106.6392
 20
-158.8087
 30
0.0
 10
-106.6392
 20
-158.8087
 30
0.0
 10
-106.6392
 20
-158.8087
 30
0.0
 10
-106.6392
 20
-159.1217
 30
0.0
 10
-106.6392
 20
-159.1217
 30
0.0
 10
-106.6392
 20
-159.1217
 30
0.0
 10
-106.6392
 20
-159.1217
 30
0.0
 10
-106.7207
 20
-159.1217
 30
0.0
 10
-106.7207
 20
-159.1217
 30
0.0
 10
-106.7207
 20
-159.1217
 30
0.0
 10
-106.7207
 20
-159.1217
 30
0.0
 10
-106.7207
 20
-158.5748
 30
0.0
 10
-106.7207
 20
-158.5748
 30
0.0
 10
-106.7207
 20
-158.5748
 30
0.0
 10
-106.7207
 20
-158.5748
 30
0.0
 10
-106.6392
 20
-158.5748
 30
0.0
 10
-106.6392
 20
-158.5748
 30
0.0
 10
-106.6392
 20
-158.5748
 30
0.0
 10
-106.6392
 20
-158.5748
 30
0.0
 10
-106.6392
 20
-158.6216
 30
0.0
 10
-106.6392
 20
-158.6216
 30
0.0
 10
-106.6392
 20
-158.6216
 30
0.0
 10
-106.6286
 20
-158.6021
 30
0.0
 10
-106.6151
 20
-158.5873
 30
0.0
 10
-106.5989
 20
-158.577
 30
0.0
 10
-106.5989
 20
-158.577
 30
0.0
 10
-106.5829
 20
-158.5668
 30
0.0
 10
-106.5645
 20
-158.5616
 30
0.0
 10
-106.544
 20
-158.5616
 30
0.0
 10
-106.544
 20
-158.5616
 30
0.0
 10
-106.5192
 20
-158.5616
 30
0.0
 10
-106.4987
 20
-158.5673
 30
0.0
 10
-106.4822
 20
-158.5786
 30
0.0
 10
-106.4822
 20
-158.5786
 30
0.0
 10
-106.4657
 20
-158.5901
 30
0.0
 10
-106.453
 20
-158.6073
 30
0.0
 10
-106.4439
 20
-158.6305
 30
0.0
  0
SPLINE
  5
87
330
1F
100
AcDbEntity
  8
LAYER_1
100
AcDbSpline
210
0.0
220
0.0
230
1.0
 70
    11
 71
     3
 72
    20
 73
    16
 74
     0
 42
0.0000000001
 43
0.0000000001
 40
0.0
 40
0.0
 40
0.0
 40
0.0
 40
0.25
 40
0.25
 40
0.25
 40
0.25
 40
0.5
 40
0.5
 40
0.5
 40
0.5
 40
0.75
 40
0.75
 40
0.75
 40
0.75
 40
1.0
 40
1.0
 40
1.0
 40
1.0
 10
-105.9329
 20
-158.9727
 30
0.0
 10
-105.9329
 20
-158.9727
 30
0.0
 10
-105.8099
 20
-158.9727
 30
0.0
 10
-105.8099
 20
-158.9727
 30
0.0
 10
-105.8099
 20
-158.9727
 30
0.0
 10
-105.8099
 20
-158.9727
 30
0.0
 10
-105.8099
 20
-159.1217
 30
0.0
 10
-105.8099
 20
-159.1217
 30
0.0
 10
-105.8099
 20
-159.1217
 30
0.0
 10
-105.8099
 20
-159.1217
 30
0.0
 10
-105.9329
 20
-159.1217
 30
0.0
 10
-105.9329
 20
-159.1217
 30
0.0
 10
-105.9329
 20
-159.1217
 30
0.0
 10
-105.9329
 20
-159.1217
 30
0.0
 10
-105.9329
 20
-158.9727
 30
0.0
 10
-105.9329
 20
-158.9727
 30
0.0
  0
SPLINE
  5
88
330
1F
100
AcDbEntity
  8
LAYER_1
100
AcDbSpline
210
0.0
220
0.0
230
1.0
 70
    11
 71
     3
 72
    52
 73
    48
 74
     0
 42
0.0000000001
 43
0.0000000001
 40
0.0
 40
0.0
 40
0.0
 40
0.0
 40
0.0833333333333333
 40
0.0833333333333333
 40
0.0833333333333333
 40
0.0833333333333333
 40
0.1666666666666667
 40
0.1666666666666667
 40
0.1666666666666667
 40
0.1666666666666667
 40
0.25
 40
0.25
 40
0.25
 40
0.25
 40
0.3333333333333333
 40
0.3333333333333333
 40
0.3333333333333333
 40
0.3333333333333333
 40
0.4166666666666666
 40
0.4166666666666666
 40
0.4166666666666666
 40
0.4166666666666666
 40
0.4999999999999999
 40
0.4999999999999999
 40
0.4999999999999999
 40
0.4999999999999999
 40
0.5833333333333333
 40
0.5833333333333333
 40
0.5833333333333333
 40
0.5833333333333333
 40
0.6666666666666666
 40
0.6666666666666666
 40
0.6666666666666666
 40
0.6666666666666666
 40
0.75
 40
0.75
 40
0.75
 40
0.75
 40
0.8333333333333334
 40
0.8333333333333334
 40
0.8333333333333334
 40
0.8333333333333334
 40
0.9166666666666667
 40
0.9166666666666667
 40
0.9166666666666667
 40
0.9166666666666667
 40
1.0
 40
1.0
 40
1.0
 40
1.0
 10
-105.2577
 20
-158.9235
 30
0.0
 10
-105.2577
 20
-158.9639
 30
0.0
 10
-105.2503
 20
-158.9942
 30
0.0
 10
-105.2355
 20
-159.0147
 30
0.0
 10
-105.2355
 20
-159.0147
 30
0.0
 10
-105.2207
 20
-159.0352
 30
0.0
 10
-105.1988
 20
-159.0455
 30
0.0
 10
-105.1698
 20
-159.0455
 30
0.0
 10
-105.1698
 20
-159.0455
 30
0.0
 10
-105.1698
 20
-159.0455
 30
0.0
 10
-105.0648
 20
-159.0455
 30
0.0
 10
-105.0648
 20
-159.0455
 30
0.0
 10
-105.0648
 20
-159.0455
 30
0.0
 10
-105.0648
 20
-159.0455
 30
0.0
 10
-105.0648
 20
-159.1217
 30
0.0
 10
-105.0648
 20
-159.1217
 30
0.0
 10
-105.0648
 20
-159.1217
 30
0.0
 10
-105.0648
 20
-159.1217
 30
0.0
 10
-105.1785
 20
-159.1217
 30
0.0
 10
-105.1785
 20
-159.1217
 30
0.0
 10
-105.1785
 20
-159.1217
 30
0.0
 10
-105.2323
 20
-159.1217
 30
0.0
 10
-105.2738
 20
-159.1044
 30
0.0
 10
-105.3033
 20
-159.0699
 30
0.0
 10
-105.3033
 20
-159.0699
 30
0.0
 10
-105.3328
 20
-159.0354
 30
0.0
 10
-105.3475
 20
-158.9865
 30
0.0
 10
-105.3475
 20
-158.9235
 30
0.0
 10
-105.3475
 20
-158.9235
 30
0.0
 10
-105.3475
 20
-158.9235
 30
0.0
 10
-105.3475
 20
-158.4268
 30
0.0
 10
-105.3475
 20
-158.4268
 30
0.0
 10
-105.3475
 20
-158.4268
 30
0.0
 10
-105.3475
 20
-158.4268
 30
0.0
 10
-105.4915
 20
-158.4268
 30
0.0
 10
-105.4915
 20
-158.4268
 30
0.0
 10
-105.4915
 20
-158.4268
 30
0.0
 10
-105.4915
 20
-158.4268
 30
0.0
 10
-105.4915
 20
-158.3565
 30
0.0
 10
-105.4915
 20
-158.3565
 30
0.0
 10
-105.4915
 20
-158.3565
 30
0.0
 10
-105.4915
 20
-158.3565
 30
0.0
 10
-105.2577
 20
-158.3565
 30
0.0
 10
-105.2577
 20
-158.3565
 30
0.0
 10
-105.2577
 20
-158.3565
 30
0.0
 10
-105.2577
 20
-158.3565
 30
0.0
 10
-105.2577
 20
-158.9235
 30
0.0
 10
-105.2577
 20
-158.9235
 30
0.0
  0
SPLINE
  5
89
330
1F
100
AcDbEntity
  8
LAYER_1
100
AcDbSpline
210
0.0
220
0.0
230
1.0
 70
    11
 71
     3
 72
    76
 73
    72
 74
     0
 42
0.0000000001
 43
0.0000000001
 40
0.0
 40
0.0
 40
0.0
 40
0.0
 40
0.0555555555555556
 40
0.0555555555555556
 40
0.0555555555555556
 40
0.0555555555555556
 40
0.1111111111111111
 40
0.1111111111111111
 40
0.1111111111111111
 40
0.1111111111111111
 40
0.1666666666666667
 40
0.1666666666666667
 40
0.1666666666666667
 40
0.1666666666666667
 40
0.2222222222222222
 40
0.2222222222222222
 40
0.2222222222222222
 40
0.2222222222222222
 40
0.2777777777777778
 40
0.2777777777777778
 40
0.2777777777777778
 40
0.2777777777777778
 40
0.3333333333333334
 40
0.3333333333333334
 40
0.3333333333333334
 40
0.3333333333333334
 40
0.388888888888889
 40
0.388888888888889
 40
0.388888888888889
 40
0.388888888888889
 40
0.4444444444444445
 40
0.4444444444444445
 40
0.4444444444444445
 40
0.4444444444444445
 40
0.5000000000000001
 40
0.5000000000000001
 40
0.5000000000000001
 40
0.5000000000000001
 40
0.5555555555555557
 40
0.5555555555555557
 40
0.5555555555555557
 40
0.5555555555555557
 40
0.6111111111111113
 40
0.6111111111111113
 40
0.6111111111111113
 40
0.6111111111111113
 40
0.6666666666666669
 40
0.6666666666666669
 40
0.6666666666666669
 40
0.6666666666666669
 40
0.7222222222222224
 40
0.7222222222222224
 40
0.7222222222222224
 40
0.7222222222222224
 40
0.777777777777778
 40
0.777777777777778
 40
0.777777777777778
 40
0.777777777777778
 40
0.8333333333333336
 40
0.8333333333333336
 40
0.8333333333333336
 40
0.8333333333333336
 40
0.8888888888888892
 40
0.8888888888888892
 40
0.8888888888888892
 40
0.8888888888888892
 40
0.9444444444444448
 40
0.9444444444444448
 40
0.9444444444444448
 40
0.9444444444444448
 40
1.0
 40
1.0
 40
1.0
 40
1.0
 10
-104.6677
 20
-158.4195
 30
0.0
 10
-104.6677
 20
-158.4195
 30
0.0
 10
-104.6677
 20
-158.5748
 30
0.0
 10
-104.6677
 20
-158.5748
 30
0.0
 10
-104.6677
 20
-158.5748
 30
0.0
 10
-104.6677
 20
-158.5748
 30
0.0
 10
-104.4635
 20
-158.5748
 30
0.0
 10
-104.4635
 20
-158.5748
 30
0.0
 10
-104.4635
 20
-158.5748
 30
0.0
 10
-104.4635
 20
-158.5748
 30
0.0
 10
-104.4635
 20
-158.6447
 30
0.0
 10
-104.4635
 20
-158.6447
 30
0.0
 10
-104.4635
 20
-158.6447
 30
0.0
 10
-104.4635
 20
-158.6447
 30
0.0
 10
-104.6677
 20
-158.6447
 30
0.0
 10
-104.6677
 20
-158.6447
 30
0.0
 10
-104.6677
 20
-158.6447
 30
0.0
 10
-104.6677
 20
-158.6447
 30
0.0
 10
-104.6677
 20
-158.9415
 30
0.0
 10
-104.6677
 20
-158.9415
 30
0.0
 10
-104.6677
 20
-158.9415
 30
0.0
 10
-104.6677
 20
-158.9819
 30
0.0
 10
-104.6601
 20
-159.01
 30
0.0
 10
-104.6447
 20
-159.0259
 30
0.0
 10
-104.6447
 20
-159.0259
 30
0.0
 10
-104.6294
 20
-159.0419
 30
0.0
 10
-104.6027
 20
-159.0499
 30
0.0
 10
-104.5647
 20
-159.0499
 30
0.0
 10
-104.5647
 20
-159.0499
 30
0.0
 10
-104.5647
 20
-159.0499
 30
0.0
 10
-104.4635
 20
-159.0499
 30
0.0
 10
-104.4635
 20
-159.0499
 30
0.0
 10
-104.4635
 20
-159.0499
 30
0.0
 10
-104.4635
 20
-159.0499
 30
0.0
 10
-104.4635
 20
-159.1217
 30
0.0
 10
-104.4635
 20
-159.1217
 30
0.0
 10
-104.4635
 20
-159.1217
 30
0.0
 10
-104.4635
 20
-159.1217
 30
0.0
 10
-104.5734
 20
-159.1217
 30
0.0
 10
-104.5734
 20
-159.1217
 30
0.0
 10
-104.5734
 20
-159.1217
 30
0.0
 10
-104.6409
 20
-159.1217
 30
0.0
 10
-104.6884
 20
-159.1082
 30
0.0
 10
-104.7161
 20
-159.0812
 30
0.0
 10
-104.7161
 20
-159.0812
 30
0.0
 10
-104.7437
 20
-159.0542
 30
0.0
 10
-104.7576
 20
-159.0075
 30
0.0
 10
-104.7576
 20
-158.9415
 30
0.0
 10
-104.7576
 20
-158.9415
 30
0.0
 10
-104.7576
 20
-158.9415
 30
0.0
 10
-104.7576
 20
-158.6447
 30
0.0
 10
-104.7576
 20
-158.6447
 30
0.0
 10
-104.7576
 20
-158.6447
 30
0.0
 10
-104.7576
 20
-158.6447
 30
0.0
 10
-104.9036
 20
-158.6447
 30
0.0
 10
-104.9036
 20
-158.6447
 30
0.0
 10
-104.9036
 20
-158.6447
 30
0.0
 10
-104.9036
 20
-158.6447
 30
0.0
 10
-104.9036
 20
-158.5748
 30
0.0
 10
-104.9036
 20
-158.5748
 30
0.0
 10
-104.9036
 20
-158.5748
 30
0.0
 10
-104.9036
 20
-158.5748
 30
0.0
 10
-104.7576
 20
-158.5748
 30
0.0
 10
-104.7576
 20
-158.5748
 30
0.0
 10
-104.7576
 20
-158.5748
 30
0.0
 10
-104.7576
 20
-158.5748
 30
0.0
 10
-104.7576
 20
-158.4195
 30
0.0
 10
-104.7576
 20
-158.4195
 30
0.0
 10
-104.7576
 20
-158.4195
 30
0.0
 10
-104.7576
 20
-158.4195
 30
0.0
 10
-104.6677
 20
-158.4195
 30
0.0
 10
-104.6677
 20
-158.4195
 30
0.0
  0
SPLINE
  5
8A
330
1F
100
AcDbEntity
  8
LAYER_1
100
AcDbSpline
210
0.0
220
0.0
230
1.0
 70
    11
 71
     3
 72
    20
 73
    16
 74
     0
 42
0.0000000001
 43
0.0000000001
 40
0.0
 40
0.0
 40
0.0
 40
0.0
 40
0.25
 40
0.25
 40
0.25
 40
0.25
 40
0.5
 40
0.5
 40
0.5
 40
0.5
 40
0.75
 40
0.75
 40
0.75
 40
0.75
 40
1.0
 40
1.0
 40
1.0
 40
1.0
 10
-103.9313
 20
-158.3926
 30
0.0
 10
-103.9313
 20
-158.3926
 30
0.0
 10
-103.8384
 20
-158.3926
 30
0.0
 10
-103.8384
 20
-158.3926
 30
0.0
 10
-103.8384
 20
-158.3926
 30
0.0
 10
-103.8384
 20
-158.3926
 30
0.0
 10
-104.2223
 20
-159.2145
 30
0.0
 10
-104.2223
 20
-159.2145
 30
0.0
 10
-104.2223
 20
-159.2145
 30
0.0
 10
-104.2223
 20
-159.2145
 30
0.0
 10
-104.3157
 20
-159.2145
 30
0.0
 10
-104.3157
 20
-159.2145
 30
0.0
 10
-104.3157
 20
-159.2145
 30
0.0
 10
-104.3157
 20
-159.2145
 30
0.0
 10
-103.9313
 20
-158.3926
 30
0.0
 10
-103.9313
 20
-158.3926
 30
0.0
  0
SPLINE
  5
8B
330
1F
100
AcDbEntity
  8
LAYER_1
100
AcDbSpline
210
0.0
220
0.0
230
1.0
 70
    11
 71
     3
 72
    32
 73
    28
 74
     0
 42
0.0000000001
 43
0.0000000001
 40
0.0
 40
0.0
 40
0.0
 40
0.0
 40
0.1428571428571428
 40
0.1428571428571428
 40
0.1428571428571428
 40
0.1428571428571428
 40
0.2857142857142857
 40
0.2857142857142857
 40
0.2857142857142857
 40
0.2857142857142857
 40
0.4285714285714285
 40
0.4285714285714285
 40
0.4285714285714285
 40
0.4285714285714285
 40
0.5714285714285714
 40
0.5714285714285714
 40
0.5714285714285714
 40
0.5714285714285714
 40
0.7142857142857142
 40
0.7142857142857142
 40
0.7142857142857142
 40
0.7142857142857142
 40
0.857142857142857
 40
0.857142857142857
 40
0.857142857142857
 40
0.857142857142857
 40
1.0
 40
1.0
 40
1.0
 40
1.0
 10
-103.5632
 20
-158.7905
 30
0.0
 10
-103.5632
 20
-158.7905
 30
0.0
 10
-103.5632
 20
-159.0065
 30
0.0
 10
-103.5632
 20
-159.0065
 30
0.0
 10
-103.5632
 20
-159.0065
 30
0.0
 10
-103.5632
 20
-159.0065
 30
0.0
 10
-103.4675
 20
-159.0065
 30
0.0
 10
-103.4675
 20
-159.0065
 30
0.0
 10
-103.4675
 20
-159.0065
 30
0.0
 10
-103.4215
 20
-159.0065
 30
0.0
 10
-103.3895
 20
-158.9987
 30
0.0
 10
-103.371
 20
-158.983
 30
0.0
 10
-103.371
 20
-158.983
 30
0.0
 10
-103.3527
 20
-158.9674
 30
0.0
 10
-103.3435
 20
-158.9402
 30
0.0
 10
-103.3435
 20
-158.9015
 30
0.0
 10
-103.3435
 20
-158.9015
 30
0.0
 10
-103.3435
 20
-158.862
 30
0.0
 10
-103.3532
 20
-158.8337
 30
0.0
 10
-103.3724
 20
-158.8163
 30
0.0
 10
-103.3724
 20
-158.8163
 30
0.0
 10
-103.3915
 20
-158.7992
 30
0.0
 10
-103.4232
 20
-158.7905
 30
0.0
 10
-103.4675
 20
-158.7905
 30
0.0
 10
-103.4675
 20
-158.7905
 30
0.0
 10
-103.4675
 20
-158.7905
 30
0.0
 10
-103.5632
 20
-158.7905
 30
0.0
 10
-103.5632
 20
-158.7905
 30
0.0
  0
SPLINE
  5
8C
330
1F
100
AcDbEntity
  8
LAYER_1
100
AcDbSpline
210
0.0
220
0.0
230
1.0
 70
    11
 71
     3
 72
    32
 73
    28
 74
     0
 42
0.0000000001
 43
0.0000000001
 40
0.0
 40
0.0
 40
0.0
 40
0.0
 40
0.1428571428571428
 40
0.1428571428571428
 40
0.1428571428571428
 40
0.1428571428571428
 40
0.2857142857142857
 40
0.2857142857142857
 40
0.2857142857142857
 40
0.2857142857142857
 40
0.4285714285714285
 40
0.4285714285714285
 40
0.4285714285714285
 40
0.4285714285714285
 40
0.5714285714285714
 40
0.5714285714285714
 40
0.5714285714285714
 40
0.5714285714285714
 40
0.7142857142857142
 40
0.7142857142857142
 40
0.7142857142857142
 40
0.7142857142857142
 40
0.857142857142857
 40
0.857142857142857
 40
0.857142857142857
 40
0.857142857142857
 40
1.0
 40
1.0
 40
1.0
 40
1.0
 10
-103.5632
 20
-158.5063
 30
0.0
 10
-103.5632
 20
-158.5063
 30
0.0
 10
-103.5632
 20
-158.6758
 30
0.0
 10
-103.5632
 20
-158.6758
 30
0.0
 10
-103.5632
 20
-158.6758
 30
0.0
 10
-103.5632
 20
-158.6758
 30
0.0
 10
-103.4675
 20
-158.6758
 30
0.0
 10
-103.4675
 20
-158.6758
 30
0.0
 10
-103.4675
 20
-158.6758
 30
0.0
 10
-103.431
 20
-158.6758
 30
0.0
 10
-103.405
 20
-158.6693
 30
0.0
 10
-103.3895
 20
-158.6563
 30
0.0
 10
-103.3895
 20
-158.6563
 30
0.0
 10
-103.374
 20
-158.6433
 30
0.0
 10
-103.3664
 20
-158.6218
 30
0.0
 10
-103.3664
 20
-158.5918
 30
0.0
 10
-103.3664
 20
-158.5918
 30
0.0
 10
-103.3664
 20
-158.5618
 30
0.0
 10
-103.3742
 20
-158.5401
 30
0.0
 10
-103.39
 20
-158.5266
 30
0.0
 10
-103.39
 20
-158.5266
 30
0.0
 10
-103.4059
 20
-158.5131
 30
0.0
 10
-103.4317
 20
-158.5063
 30
0.0
 10
-103.4675
 20
-158.5063
 30
0.0
 10
-103.4675
 20
-158.5063
 30
0.0
 10
-103.4675
 20
-158.5063
 30
0.0
 10
-103.5632
 20
-158.5063
 30
0.0
 10
-103.5632
 20
-158.5063
 30
0.0
  0
SPLINE
  5
8D
330
1F
100
AcDbEntity
  8
LAYER_1
100
AcDbSpline
210
0.0
220
0.0
230
1.0
 70
    11
 71
     3
 72
    48
 73
    44
 74
     0
 42
0.0000000001
 43
0.0000000001
 40
0.0
 40
0.0
 40
0.0
 40
0.0
 40
0.0909090909090909
 40
0.0909090909090909
 40
0.0909090909090909
 40
0.0909090909090909
 40
0.1818181818181818
 40
0.1818181818181818
 40
0.1818181818181818
 40
0.1818181818181818
 40
0.2727272727272727
 40
0.2727272727272727
 40
0.2727272727272727
 40
0.2727272727272727
 40
0.3636363636363636
 40
0.3636363636363636
 40
0.3636363636363636
 40
0.3636363636363636
 40
0.4545454545454546
 40
0.4545454545454546
 40
0.4545454545454546
 40
0.4545454545454546
 40
0.5454545454545455
 40
0.5454545454545455
 40
0.5454545454545455
 40
0.5454545454545455
 40
0.6363636363636365
 40
0.6363636363636365
 40
0.6363636363636365
 40
0.6363636363636365
 40
0.7272727272727274
 40
0.7272727272727274
 40
0.7272727272727274
 40
0.7272727272727274
 40
0.8181818181818183
 40
0.8181818181818183
 40
0.8181818181818183
 40
0.8181818181818183
 40
0.9090909090909093
 40
0.9090909090909093
 40
0.9090909090909093
 40
0.9090909090909093
 40
1.0
 40
1.0
 40
1.0
 40
1.0
 10
-103.7024
 20
-158.3916
 30
0.0
 10
-103.7024
 20
-158.3916
 30
0.0
 10
-103.4675
 20
-158.3916
 30
0.0
 10
-103.4675
 20
-158.3916
 30
0.0
 10
-103.4675
 20
-158.3916
 30
0.0
 10
-103.3864
 20
-158.3916
 30
0.0
 10
-103.3255
 20
-158.407
 30
0.0
 10
-103.2847
 20
-158.4378
 30
0.0
 10
-103.2847
 20
-158.4378
 30
0.0
 10
-103.2438
 20
-158.4685
 30
0.0
 10
-103.2233
 20
-158.5145
 30
0.0
 10
-103.2233
 20
-158.5756
 30
0.0
 10
-103.2233
 20
-158.5756
 30
0.0
 10
-103.2233
 20
-158.6227
 30
0.0
 10
-103.2353
 20
-158.6592
 30
0.0
 10
-103.2595
 20
-158.6855
 30
0.0
 10
-103.2595
 20
-158.6855
 30
0.0
 10
-103.2835
 20
-158.712
 30
0.0
 10
-103.3189
 20
-158.7272
 30
0.0
 10
-103.3654
 20
-158.7315
 30
0.0
 10
-103.3654
 20
-158.7315
 30
0.0
 10
-103.3097
 20
-158.737
 30
0.0
 10
-103.2679
 20
-158.7557
 30
0.0
 10
-103.2397
 20
-158.7877
 30
0.0
 10
-103.2397
 20
-158.7877
 30
0.0
 10
-103.2115
 20
-158.8195
 30
0.0
 10
-103.1975
 20
-158.8642
 30
0.0
 10
-103.1975
 20
-158.9215
 30
0.0
 10
-103.1975
 20
-158.9215
 30
0.0
 10
-103.1975
 20
-158.9919
 30
0.0
 10
-103.2187
 20
-159.0427
 30
0.0
 10
-103.261
 20
-159.0744
 30
0.0
 10
-103.261
 20
-159.0744
 30
0.0
 10
-103.3034
 20
-159.1059
 30
0.0
 10
-103.3722
 20
-159.1217
 30
0.0
 10
-103.4675
 20
-159.1217
 30
0.0
 10
-103.4675
 20
-159.1217
 30
0.0
 10
-103.4675
 20
-159.1217
 30
0.0
 10
-103.7024
 20
-159.1217
 30
0.0
 10
-103.7024
 20
-159.1217
 30
0.0
 10
-103.7024
 20
-159.1217
 30
0.0
 10
-103.7024
 20
-159.1217
 30
0.0
 10
-103.7024
 20
-158.3916
 30
0.0
 10
-103.7024
 20
-158.3916
 30
0.0
  0
SPLINE
  5
8E
330
1F
100
AcDbEntity
  8
LAYER_1
100
AcDbSpline
210
0.0
220
0.0
230
1.0
 70
    11
 71
     3
 72
    36
 73
    32
 74
     0
 42
0.0000000001
 43
0.0000000001
 40
0.0
 40
0.0
 40
0.0
 40
0.0
 40
0.125
 40
0.125
 40
0.125
 40
0.125
 40
0.25
 40
0.25
 40
0.25
 40
0.25
 40
0.375
 40
0.375
 40
0.375
 40
0.375
 40
0.5
 40
0.5
 40
0.5
 40
0.5
 40
0.625
 40
0.625
 40
0.625
 40
0.625
 40
0.75
 40
0.75
 40
0.75
 40
0.75
 40
0.875
 40
0.875
 40
0.875
 40
0.875
 40
1.0
 40
1.0
 40
1.0
 40
1.0
 10
-102.7883
 20
-159.1217
 30
0.0
 10
-102.7883
 20
-159.1217
 30
0.0
 10
-102.9323
 20
-159.1217
 30
0.0
 10
-102.9323
 20
-159.1217
 30
0.0
 10
-102.9323
 20
-159.1217
 30
0.0
 10
-102.9323
 20
-159.1217
 30
0.0
 10
-102.9323
 20
-158.5186
 30
0.0
 10
-102.9323
 20
-158.5186
 30
0.0
 10
-102.9323
 20
-158.5186
 30
0.0
 10
-102.9323
 20
-158.5186
 30
0.0
 10
-103.1173
 20
-158.5186
 30
0.0
 10
-103.1173
 20
-158.5186
 30
0.0
 10
-103.1173
 20
-158.5186
 30
0.0
 10
-103.1173
 20
-158.5186
 30
0.0
 10
-103.1173
 20
-158.3926
 30
0.0
 10
-103.1173
 20
-158.3926
 30
0.0
 10
-103.1173
 20
-158.3926
 30
0.0
 10
-103.1173
 20
-158.3926
 30
0.0
 10
-102.6032
 20
-158.3926
 30
0.0
 10
-102.6032
 20
-158.3926
 30
0.0
 10
-102.6032
 20
-158.3926
 30
0.0
 10
-102.6032
 20
-158.3926
 30
0.0
 10
-102.6032
 20
-158.5186
 30
0.0
 10
-102.6032
 20
-158.5186
 30
0.0
 10
-102.6032
 20
-158.5186
 30
0.0
 10
-102.6032
 20
-158.5186
 30
0.0
 10
-102.7883
 20
-158.5186
 30
0.0
 10
-102.7883
 20
-158.5186
 30
0.0
 10
-102.7883
 20
-158.5186
 30
0.0
 10
-102.7883
 20
-158.5186
 30
0.0
 10
-102.7883
 20
-159.1217
 30
0.0
 10
-102.7883
 20
-159.1217
 30
0.0
  0
SPLINE
  5
8F
330
1F
100
AcDbEntity
  8
LAYER_1
100
AcDbSpline
210
0.0
220
0.0
230
1.0
 70
    11
 71
     3
 72
    36
 73
    32
 74
     0
 42
0.0000000001
 43
0.0000000001
 40
0.0
 40
0.0
 40
0.0
 40
0.0
 40
0.125
 40
0.125
 40
0.125
 40
0.125
 40
0.25
 40
0.25
 40
0.25
 40
0.25
 40
0.375
 40
0.375
 40
0.375
 40
0.375
 40
0.5
 40
0.5
 40
0.5
 40
0.5
 40
0.625
 40
0.625
 40
0.625
 40
0.625
 40
0.75
 40
0.75
 40
0.75
 40
0.75
 40
0.875
 40
0.875
 40
0.875
 40
0.875
 40
1.0
 40
1.0
 40
1.0
 40
1.0
 10
-102.2452
 20
-158.7563
 30
0.0
 10
-102.2763
 20
-158.7563
 30
0.0
 10
-102.3002
 20
-158.7677
 30
0.0
 10
-102.3167
 20
-158.7903
 30
0.0
 10
-102.3167
 20
-158.7903
 30
0.0
 10
-102.3332
 20
-158.813
 30
0.0
 10
-102.3413
 20
-158.8457
 30
0.0
 10
-102.3413
 20
-158.8887
 30
0.0
 10
-102.3413
 20
-158.8887
 30
0.0
 10
-102.3413
 20
-158.9313
 30
0.0
 10
-102.3332
 20
-158.964
 30
0.0
 10
-102.3167
 20
-158.9867
 30
0.0
 10
-102.3167
 20
-158.9867
 30
0.0
 10
-102.3002
 20
-159.0094
 30
0.0
 10
-102.2763
 20
-159.0207
 30
0.0
 10
-102.2452
 20
-159.0207
 30
0.0
 10
-102.2452
 20
-159.0207
 30
0.0
 10
-102.2138
 20
-159.0207
 30
0.0
 10
-102.1898
 20
-159.0094
 30
0.0
 10
-102.1732
 20
-158.9867
 30
0.0
 10
-102.1732
 20
-158.9867
 30
0.0
 10
-102.1563
 20
-158.964
 30
0.0
 10
-102.148
 20
-158.9313
 30
0.0
 10
-102.148
 20
-158.8887
 30
0.0
 10
-102.148
 20
-158.8887
 30
0.0
 10
-102.148
 20
-158.846
 30
0.0
 10
-102.1563
 20
-158.8133
 30
0.0
 10
-102.1732
 20
-158.7905
 30
0.0
 10
-102.1732
 20
-158.7905
 30
0.0
 10
-102.1898
 20
-158.7677
 30
0.0
 10
-102.2138
 20
-158.7563
 30
0.0
 10
-102.2452
 20
-158.7563
 30
0.0
  0
SPLINE
  5
90
330
1F
100
AcDbEntity
  8
LAYER_1
100
AcDbSpline
210
0.0
220
0.0
230
1.0
 70
    11
 71
     3
 72
    72
 73
    68
 74
     0
 42
0.0000000001
 43
0.0000000001
 40
0.0
 40
0.0
 40
0.0
 40
0.0
 40
0.0588235294117647
 40
0.0588235294117647
 40
0.0588235294117647
 40
0.0588235294117647
 40
0.1176470588235294
 40
0.1176470588235294
 40
0.1176470588235294
 40
0.1176470588235294
 40
0.1764705882352941
 40
0.1764705882352941
 40
0.1764705882352941
 40
0.1764705882352941
 40
0.2352941176470588
 40
0.2352941176470588
 40
0.2352941176470588
 40
0.2352941176470588
 40
0.2941176470588235
 40
0.2941176470588235
 40
0.2941176470588235
 40
0.2941176470588235
 40
0.3529411764705883
 40
0.3529411764705883
 40
0.3529411764705883
 40
0.3529411764705883
 40
0.411764705882353
 40
0.411764705882353
 40
0.411764705882353
 40
0.411764705882353
 40
0.4705882352941177
 40
0.4705882352941177
 40
0.4705882352941177
 40
0.4705882352941177
 40
0.5294117647058824
 40
0.5294117647058824
 40
0.5294117647058824
 40
0.5294117647058824
 40
0.5882352941176471
 40
0.5882352941176471
 40
0.5882352941176471
 40
0.5882352941176471
 40
0.6470588235294118
 40
0.6470588235294118
 40
0.6470588235294118
 40
0.6470588235294118
 40
0.7058823529411765
 40
0.7058823529411765
 40
0.7058823529411765
 40
0.7058823529411765
 40
0.7647058823529412
 40
0.7647058823529412
 40
0.7647058823529412
 40
0.7647058823529412
 40
0.823529411764706
 40
0.823529411764706
 40
0.823529411764706
 40
0.823529411764706
 40
0.8823529411764707
 40
0.8823529411764707
 40
0.8823529411764707
 40
0.8823529411764707
 40
0.9411764705882354
 40
0.9411764705882354
 40
0.9411764705882354
 40
0.9411764705882354
 40
1.0
 40
1.0
 40
1.0
 40
1.0
 10
-102.0563
 20
-158.4098
 30
0.0
 10
-102.0563
 20
-158.4098
 30
0.0
 10
-102.0563
 20
-158.5406
 30
0.0
 10
-102.0563
 20
-158.5406
 30
0.0
 10
-102.0563
 20
-158.5406
 30
0.0
 10
-102.082
 20
-158.526
 30
0.0
 10
-102.1067
 20
-158.515
 30
0.0
 10
-102.1303
 20
-158.5076
 30
0.0
 10
-102.1303
 20
-158.5076
 30
0.0
 10
-102.1538
 20
-158.5003
 30
0.0
 10
-102.1765
 20
-158.4966
 30
0.0
 10
-102.1983
 20
-158.4966
 30
0.0
 10
-102.1983
 20
-158.4966
 30
0.0
 10
-102.2503
 20
-158.4966
 30
0.0
 10
-102.29
 20
-158.5141
 30
0.0
 10
-102.3172
 20
-158.5491
 30
0.0
 10
-102.3172
 20
-158.5491
 30
0.0
 10
-102.3443
 20
-158.5841
 30
0.0
 10
-102.3585
 20
-158.6358
 30
0.0
 10
-102.3598
 20
-158.7042
 30
0.0
 10
-102.3598
 20
-158.7042
 30
0.0
 10
-102.3445
 20
-158.683
 30
0.0
 10
-102.325
 20
-158.6672
 30
0.0
 10
-102.3013
 20
-158.6565
 30
0.0
 10
-102.3013
 20
-158.6565
 30
0.0
 10
-102.2775
 20
-158.646
 30
0.0
 10
-102.2495
 20
-158.6407
 30
0.0
 10
-102.2173
 20
-158.6407
 30
0.0
 10
-102.2173
 20
-158.6407
 30
0.0
 10
-102.1515
 20
-158.6407
 30
0.0
 10
-102.1008
 20
-158.6615
 30
0.0
 10
-102.065
 20
-158.703
 30
0.0
 10
-102.065
 20
-158.703
 30
0.0
 10
-102.0291
 20
-158.7445
 30
0.0
 10
-102.0113
 20
-158.8033
 30
0.0
 10
-102.0113
 20
-158.8795
 30
0.0
 10
-102.0113
 20
-158.8795
 30
0.0
 10
-102.0113
 20
-158.9612
 30
0.0
 10
-102.0315
 20
-159.0245
 30
0.0
 10
-102.0717
 20
-159.0695
 30
0.0
 10
-102.0717
 20
-159.0695
 30
0.0
 10
-102.1118
 20
-159.1144
 30
0.0
 10
-102.1683
 20
-159.1369
 30
0.0
 10
-102.2413
 20
-159.1369
 30
0.0
 10
-102.2413
 20
-159.1369
 30
0.0
 10
-102.3302
 20
-159.1369
 30
0.0
 10
-102.3947
 20
-159.107
 30
0.0
 10
-102.4349
 20
-159.0475
 30
0.0
 10
-102.4349
 20
-159.0475
 30
0.0
 10
-102.475
 20
-158.9879
 30
0.0
 10
-102.4952
 20
-158.8917
 30
0.0
 10
-102.4952
 20
-158.7588
 30
0.0
 10
-102.4952
 20
-158.7588
 30
0.0
 10
-102.4952
 20
-158.6327
 30
0.0
 10
-102.4707
 20
-158.538
 30
0.0
 10
-102.4215
 20
-158.475
 30
0.0
 10
-102.4215
 20
-158.475
 30
0.0
 10
-102.3723
 20
-158.412
 30
0.0
 10
-102.2987
 20
-158.3805
 30
0.0
 10
-102.2003
 20
-158.3805
 30
0.0
 10
-102.2003
 20
-158.3805
 30
0.0
 10
-102.1775
 20
-158.3805
 30
0.0
 10
-102.154
 20
-158.383
 30
0.0
 10
-102.1298
 20
-158.3878
 30
0.0
 10
-102.1298
 20
-158.3878
 30
0.0
 10
-102.1055
 20
-158.3926
 30
0.0
 10
-102.081
 20
-158.4
 30
0.0
 10
-102.0563
 20
-158.4098
 30
0.0
  0
ENDSEC
  0
SECTION
  2
OBJECTS
  0
DICTIONARY
  5
C
330
0
100
AcDbDictionary
  3
ACAD_GROUP
350
D
  3
ACAD_LAYOUT
350
1A
  3
ACAD_MLEADERSTYLE
350
B4
  3
ACAD_MLINESTYLE
350
17
  3
ACAD_PLOTSETTINGS
350
19
  3
ACAD_SCALELIST
350
3B
  3
ACAD_TABLESTYLE
350
B3
  3
ACAD_VISUALSTYLE
350
2A
  3
ACDBHEADERROUNDTRIPXREC
350
91
  3
ACDBVARIABLEDICTIONARY
350
B1
  0
DICTIONARY
  5
D
102
{ACAD_REACTORS
330
C
102
}
330
C
100
AcDbDictionary
  0
DICTIONARY
  5
1A
102
{ACAD_REACTORS
330
C
102
}
330
C
100
AcDbDictionary
  0
DICTIONARY
  5
B4
102
{ACAD_REACTORS
330
C
102
}
330
C
100
AcDbDictionary
  0
DICTIONARY
  5
17
102
{ACAD_REACTORS
330
C
102
}
330
C
100
AcDbDictionary
  3
STANDARD
350
18
  0
DICTIONARY
  5
19
102
{ACAD_REACTORS
330
C
102
}
330
C
100
AcDbDictionary
  0
DICTIONARY
  5
3B
102
{ACAD_REACTORS
330
C
102
}
330
C
100
AcDbDictionary
  3
A0
350
3C
  3
A1
350
3D
  3
A2
350
3E
  3
A3
350
3F
  3
A4
350
40
  3
A5
350
41
  3
A6
350
42
  3
A7
350
43
  3
A8
350
44
  3
A9
350
45
  3
B0
350
46
  3
B1
350
47
  3
B2
350
48
  3
B3
350
49
  3
B4
350
4A
  3
B5
350
4B
  3
B6
350
4C
  3
B7
350
4D
  3
B8
350
4E
  3
B9
350
4F
  3
C0
350
50
  3
C1
350
51
  3
C2
350
52
  3
C3
350
53
  3
C4
350
54
  3
C5
350
55
  3
C6
350
56
  3
C7
350
57
  3
C8
350
58
  3
C9
350
59
  3
D0
350
5A
  3
D1
350
5B
  3
D2
350
5C
  0
DICTIONARY
  5
B3
102
{ACAD_REACTORS
330
C
102
}
330
C
100
AcDbDictionary
  0
DICTIONARY
  5
2A
102
{ACAD_REACTORS
330
C
102
}
330
C
100
AcDbDictionary
  3
2DWIREFRAME
350
2F
  3
3D_HIDDEN
350
31
  3
3DWIREFRAME
350
30
  3
BASIC
350
32
  3
BRIGHTEN
350
36
  3
COLORCHANGE
350
3A
  3
CONCEPTUAL
350
34
  3
DIM
350
35
  3
FACEPATTERN
350
39
  3
FLAT
350
2B
  3
FLATWITHEDGES
350
2C
  3
GOURAUD
350
2D
  3
GOURAUDWITHEDGES
350
2E
  3
LINEPATTERN
350
38
  3
REALISTIC
350
33
  3
THICKEN
350
37
  0
DICTIONARY
  5
91
102
{ACAD_REACTORS
330
C
102
}
330
C
100
AcDbDictionary
  3
CEPSNTYPE
350
9A
  3
DIMSTYLEDATA
350
B0
  3
FINGERPRINTGUID
350
9B
  3
HYPERLINKBASE
350
94
  3
INSUNITS
350
99
  3
LAYOUTDICT
350
96
  3
LWETCUNION
350
98
  3
PLOTSETDICT
350
97
  3
PSVPSCALE
350
9D
  3
PUCSBASE
350
A0
  3
PUCSORGBACK
350
A6
  3
PUCSORGBOTTOM
350
A2
  3
PUCSORGFRONT
350
A5
  3
PUCSORGLEFT
350
A3
  3
PUCSORGRIGHT
350
A4
  3
PUCSORGTOP
350
A1
  3
PUCSORTHOREF
350
9E
  3
PUCSORTHOVIEW
350
9F
  3
STYLESHEET
350
95
  3
TSTACKALIGN
350
92
  3
TSTACKSIZE
350
93
  3
UCSBASE
350
A9
  3
UCSORGBACK
350
AF
  3
UCSORGBOTTOM
350
AB
  3
UCSORGFRONT
350
AE
  3
UCSORGLEFT
350
AC
  3
UCSORGRIGHT
350
AD
  3
UCSORGTOP
350
AA
  3
UCSORTHOREF
350
A7
  3
UCSORTHOVIEW
350
A8
  3
VERSIONGUID
350
9C
  0
DICTIONARY
  5
B1
102
{ACAD_REACTORS
330
C
102
}
330
C
100
AcDbDictionary
  3
CANNOSCALE
350
B2
  0
MLINESTYLE
  5
18
102
{ACAD_REACTORS
330
17
102
}
330
17
100
AcDbMlineStyle
  2
Standard
 70
     0
  3

 62
   256
 51
90.0
 52
90.0
 71
     2
 49
0.5
 62
   256
  6
BYLAYER
 49
-0.5
 62
   256
  6
BYLAYER
  0
SCALE
  5
3C
102
{ACAD_REACTORS
330
3B
102
}
330
3B
100
AcDbScale
 70
     0
300
1:1
140
1.0
141
1.0
290
     1
  0
SCALE
  5
3D
102
{ACAD_REACTORS
330
3B
102
}
330
3B
100
AcDbScale
 70
     0
300
1:2
140
1.0
141
2.0
290
     0
  0
SCALE
  5
3E
102
{ACAD_REACTORS
330
3B
102
}
330
3B
100
AcDbScale
 70
     0
300
1:4
140
1.0
141
4.0
290
     0
  0
SCALE
  5
3F
102
{ACAD_REACTORS
330
3B
102
}
330
3B
100
AcDbScale
 70
     0
300
1:5
140
1.0
141
5.0
290
     0
  0
SCALE
  5
40
102
{ACAD_REACTORS
330
3B
102
}
330
3B
100
AcDbScale
 70
     0
300
1:8
140
1.0
141
8.0
290
     0
  0
SCALE
  5
41
102
{ACAD_REACTORS
330
3B
102
}
330
3B
100
AcDbScale
 70
     0
300
1:10
140
1.0
141
10.0
290
     0
  0
SCALE
  5
42
102
{ACAD_REACTORS
330
3B
102
}
330
3B
100
AcDbScale
 70
     0
300
1:16
140
1.0
141
16.0
290
     0
  0
SCALE
  5
43
102
{ACAD_REACTORS
330
3B
102
}
330
3B
100
AcDbScale
 70
     0
300
1:20
140
1.0
141
20.0
290
     0
  0
SCALE
  5
44
102
{ACAD_REACTORS
330
3B
102
}
330
3B
100
AcDbScale
 70
     0
300
1:30
140
1.0
141
30.0
290
     0
  0
SCALE
  5
45
102
{ACAD_REACTORS
330
3B
102
}
330
3B
100
AcDbScale
 70
     0
300
1:40
140
1.0
141
40.0
290
     0
  0
SCALE
  5
46
102
{ACAD_REACTORS
330
3B
102
}
330
3B
100
AcDbScale
 70
     0
300
1:50
140
1.0
141
50.0
290
     0
  0
SCALE
  5
47
102
{ACAD_REACTORS
330
3B
102
}
330
3B
100
AcDbScale
 70
     0
300
1:100
140
1.0
141
100.0
290
     0
  0
SCALE
  5
48
102
{ACAD_REACTORS
330
3B
102
}
330
3B
100
AcDbScale
 70
     0
300
2:1
140
2.0
141
1.0
290
     0
  0
SCALE
  5
49
102
{ACAD_REACTORS
330
3B
102
}
330
3B
100
AcDbScale
 70
     0
300
4:1
140
4.0
141
1.0
290
     0
  0
SCALE
  5
4A
102
{ACAD_REACTORS
330
3B
102
}
330
3B
100
AcDbScale
 70
     0
300
8:1
140
8.0
141
1.0
290
     0
  0
SCALE
  5
4B
102
{ACAD_REACTORS
330
3B
102
}
330
3B
100
AcDbScale
 70
     0
300
10:1
140
10.0
141
1.0
290
     0
  0
SCALE
  5
4C
102
{ACAD_REACTORS
330
3B
102
}
330
3B
100
AcDbScale
 70
     0
300
100:1
140
100.0
141
1.0
290
     0
  0
SCALE
  5
4D
102
{ACAD_REACTORS
330
3B
102
}
330
3B
100
AcDbScale
 70
     0
300
1/128" = 1'-0"
140
0.0078125
141
12.0
290
     0
  0
SCALE
  5
4E
102
{ACAD_REACTORS
330
3B
102
}
330
3B
100
AcDbScale
 70
     0
300
1/64" = 1'-0"
140
0.015625
141
12.0
290
     0
  0
SCALE
  5
4F
102
{ACAD_REACTORS
330
3B
102
}
330
3B
100
AcDbScale
 70
     0
300
1/32" = 1'-0"
140
0.03125
141
12.0
290
     0
  0
SCALE
  5
50
102
{ACAD_REACTORS
330
3B
102
}
330
3B
100
AcDbScale
 70
     0
300
1/16" = 1'-0"
140
0.0625
141
12.0
290
     0
  0
SCALE
  5
51
102
{ACAD_REACTORS
330
3B
102
}
330
3B
100
AcDbScale
 70
     0
300
3/32" = 1'-0"
140
0.09375
141
12.0
290
     0
  0
SCALE
  5
52
102
{ACAD_REACTORS
330
3B
102
}
330
3B
100
AcDbScale
 70
     0
300
1/8" = 1'-0"
140
0.125
141
12.0
290
     0
  0
SCALE
  5
53
102
{ACAD_REACTORS
330
3B
102
}
330
3B
100
AcDbScale
 70
     0
300
3/16" = 1'-0"
140
0.1875
141
12.0
290
     0
  0
SCALE
  5
54
102
{ACAD_REACTORS
330
3B
102
}
330
3B
100
AcDbScale
 70
     0
300
1/4" = 1'-0"
140
0.25
141
12.0
290
     0
  0
SCALE
  5
55
102
{ACAD_REACTORS
330
3B
102
}
330
3B
100
AcDbScale
 70
     0
300
3/8" = 1'-0"
140
0.375
141
12.0
290
     0
  0
SCALE
  5
56
102
{ACAD_REACTORS
330
3B
102
}
330
3B
100
AcDbScale
 70
     0
300
1/2" = 1'-0"
140
0.5
141
12.0
290
     0
  0
SCALE
  5
57
102
{ACAD_REACTORS
330
3B
102
}
330
3B
100
AcDbScale
 70
     0
300
3/4" = 1'-0"
140
0.75
141
12.0
290
     0
  0
SCALE
  5
58
102
{ACAD_REACTORS
330
3B
102
}
330
3B
100
AcDbScale
 70
     0
300
1" = 1'-0"
140
1.0
141
12.0
290
     0
  0
SCALE
  5
59
102
{ACAD_REACTORS
330
3B
102
}
330
3B
100
AcDbScale
 70
     0
300
1-1/2" = 1'-0"
140
1.5
141
12.0
290
     0
  0
SCALE
  5
5A
102
{ACAD_REACTORS
330
3B
102
}
330
3B
100
AcDbScale
 70
     0
300
3" = 1'-0"
140
3.0
141
12.0
290
     0
  0
SCALE
  5
5B
102
{ACAD_REACTORS
330
3B
102
}
330
3B
100
AcDbScale
 70
     0
300
6" = 1'-0"
140
6.0
141
12.0
290
     0
  0
SCALE
  5
5C
102
{ACAD_REACTORS
330
3B
102
}
330
3B
100
AcDbScale
 70
     0
300
1'-0" = 1'-0"
140
12.0
141
12.0
290
     0
  0
VISUALSTYLE
  5
2F
102
{ACAD_REACTORS
330
2A
102
}
330
2A
100
AcDbVisualStyle
  2
2dWireframe
 70
     4
 71
     0
 72
     2
 73
     0
 90
        0
 40
-0.6
 41
-30.0
 62
     5
 63
     7
 74
     1
 91
        4
 64
     7
 65
   257
 75
     1
175
     1
 42
1.0
 92
        0
 66
   257
 43
1.0
 76
     1
 77
     6
 78
     2
 67
     7
 79
     5
170
     0
171
     0
290
     0
174
     0
 93
        1
 44
0.0
173
     0
291
     0
 45
0.0
1001
ACAD
1000
AcDbSavedByObjectVersion
1070
     0
  0
VISUALSTYLE
  5
31
102
{ACAD_REACTORS
330
2A
102
}
330
2A
100
AcDbVisualStyle
  2
3D Hidden
 70
     6
 71
     1
 72
     2
 73
     2
 90
        0
 40
-0.6
 41
-30.0
 62
     5
 63
     7
 74
     2
 91
        2
 64
     7
 65
   257
 75
     2
175
     1
 42
40.0
 92
        0
 66
   257
 43
1.0
 76
     1
 77
     6
 78
     2
 67
     7
 79
     3
170
     0
171
     0
290
     0
174
     0
 93
        1
 44
0.0
173
     0
291
     0
 45
0.0
1001
ACAD
1000
AcDbSavedByObjectVersion
1070
     0
  0
VISUALSTYLE
  5
30
102
{ACAD_REACTORS
330
2A
102
}
330
2A
100
AcDbVisualStyle
  2
3dWireframe
 70
     5
 71
     0
 72
     2
 73
     0
 90
        0
 40
-0.6
 41
-30.0
 62
     5
 63
     7
 74
     1
 91
        4
 64
     7
 65
   257
 75
     1
175
     1
 42
1.0
 92
        0
 66
   257
 43
1.0
 76
     1
 77
     6
 78
     2
 67
     7
 79
     5
170
     0
171
     0
290
     0
174
     0
 93
        1
 44
0.0
173
     0
291
     0
 45
0.0
1001
ACAD
1000
AcDbSavedByObjectVersion
1070
     0
  0
VISUALSTYLE
  5
32
102
{ACAD_REACTORS
330
2A
102
}
330
2A
100
AcDbVisualStyle
  2
Basic
 70
     7
 71
     1
 72
     0
 73
     1
 90
        0
 40
-0.6
 41
-30.0
 62
     5
 63
     7
 74
     0
 91
        4
 64
     7
 65
   257
 75
     1
175
     1
 42
1.0
 92
        8
 66
     7
 43
1.0
 76
     1
 77
     6
 78
     2
 67
     7
 79
     5
170
     0
171
     0
290
     0
174
     0
 93
        1
 44
0.0
173
     0
291
     1
 45
0.0
1001
ACAD
1000
AcDbSavedByObjectVersion
1070
     0
  0
VISUALSTYLE
  5
36
102
{ACAD_REACTORS
330
2A
102
}
330
2A
100
AcDbVisualStyle
  2
Brighten
 70
    12
 71
     2
 72
     2
 73
     0
 90
        0
 40
-0.6
 41
-30.0
 62
     5
 63
     7
 74
     1
 91
        4
 64
     7
 65
   257
 75
     1
175
     1
 42
1.0
 92
        8
 66
     7
 43
1.0
 76
     1
 77
     6
 78
     2
 67
     7
 79
     5
170
     0
171
     0
290
     0
174
     0
 93
        1
 44
50.0
173
     0
291
     1
 45
0.0
1001
ACAD
1000
AcDbSavedByObjectVersion
1070
     0
  0
VISUALSTYLE
  5
3A
102
{ACAD_REACTORS
330
2A
102
}
330
2A
100
AcDbVisualStyle
  2
ColorChange
 70
    16
 71
     2
 72
     2
 73
     3
 90
        0
 40
-0.6
 41
-30.0
 62
     5
 63
     8
 74
     1
 91
        4
 64
     7
 65
   257
 75
     1
175
     1
 42
1.0
 92
        8
 66
     8
 43
1.0
 76
     1
 77
     6
 78
     2
 67
     7
 79
     5
170
     0
171
     0
290
     0
174
     0
 93
        1
 44
0.0
173
     0
291
     1
 45
0.0
1001
ACAD
1000
AcDbSavedByObjectVersion
1070
     0
  0
VISUALSTYLE
  5
34
102
{ACAD_REACTORS
330
2A
102
}
330
2A
100
AcDbVisualStyle
  2
Conceptual
 70
     9
 71
     3
 72
     2
 73
     0
 90
        0
 40
-0.6
 41
-30.0
 62
     5
 63
     7
 74
     2
 91
        2
 64
     7
 65
   257
 75
     1
175
     1
 42
40.0
 92
        8
 66
     7
 43
1.0
 76
     1
 77
     6
 78
     2
 67
     7
 79
     3
170
     0
171
     0
290
     0
174
     0
 93
        1
 44
0.0
173
     0
291
     0
 45
0.0
1001
ACAD
1000
AcDbSavedByObjectVersion
1070
     0
  0
VISUALSTYLE
  5
35
102
{ACAD_REACTORS
330
2A
102
}
330
2A
100
AcDbVisualStyle
  2
Dim
 70
    11
 71
     2
 72
     2
 73
     0
 90
        0
 40
-0.6
 41
-30.0
 62
     5
 63
     7
 74
     1
 91
        4
 64
     7
 65
   257
 75
     1
175
     1
 42
1.0
 92
        8
 66
     7
 43
1.0
 76
     1
 77
     6
 78
     2
 67
     7
 79
     5
170
     0
171
     0
290
     0
174
     0
 93
        1
 44
-50.0
173
     0
291
     1
 45
0.0
1001
ACAD
1000
AcDbSavedByObjectVersion
1070
     0
  0
VISUALSTYLE
  5
39
102
{ACAD_REACTORS
330
2A
102
}
330
2A
100
AcDbVisualStyle
  2
Facepattern
 70
    15
 71
     2
 72
     2
 73
     0
 90
        0
 40
-0.6
 41
-30.0
 62
     5
 63
     7
 74
     1
 91
        4
 64
     7
 65
   257
 75
     1
175
     1
 42
1.0
 92
        8
 66
     7
 43
1.0
 76
     1
 77
     6
 78
     2
 67
     7
 79
     5
170
     0
171
     0
290
     0
174
     0
 93
        1
 44
0.0
173
     0
291
     1
 45
0.0
1001
ACAD
1000
AcDbSavedByObjectVersion
1070
     0
  0
VISUALSTYLE
  5
2B
102
{ACAD_REACTORS
330
2A
102
}
330
2A
100
AcDbVisualStyle
  2
Flat
 70
     0
 71
     2
 72
     1
 73
     1
 90
        2
 40
-0.6
 41
30.0
 62
     5
 63
     7
 74
     0
 91
        4
 64
     7
 65
   257
 75
     1
175
     1
 42
1.0
 92
        8
 66
     7
 43
1.0
 76
     1
 77
     6
 78
     2
 67
     7
 79
     5
170
     0
171
     0
290
     0
174
     0
 93
       13
 44
0.0
173
     0
291
     1
 45
0.0
1001
ACAD
1000
AcDbSavedByObjectVersion
1070
     0
  0
VISUALSTYLE
  5
2C
102
{ACAD_REACTORS
330
2A
102
}
330
2A
100
AcDbVisualStyle
  2
FlatWithEdges
 70
     1
 71
     2
 72
     1
 73
     1
 90
        2
 40
-0.6
 41
30.0
 62
     5
 63
     7
 74
     1
 91
        4
 64
     7
 65
   257
 75
     1
175
     1
 42
1.0
 92
        0
 66
   257
 43
1.0
 76
     1
 77
     6
 78
     2
 67
     7
 79
     5
170
     0
171
     0
290
     0
174
     0
 93
       13
 44
0.0
173
     0
291
     1
 45
0.0
1001
ACAD
1000
AcDbSavedByObjectVersion
1070
     0
  0
VISUALSTYLE
  5
2D
102
{ACAD_REACTORS
330
2A
102
}
330
2A
100
AcDbVisualStyle
  2
Gouraud
 70
     2
 71
     2
 72
     2
 73
     1
 90
        2
 40
-0.6
 41
30.0
 62
     5
 63
     7
 74
     0
 91
        4
 64
     7
 65
   257
 75
     1
175
     1
 42
1.0
 92
        0
 66
     7
 43
1.0
 76
     1
 77
     6
 78
     2
 67
     7
 79
     5
170
     0
171
     0
290
     0
174
     0
 93
       13
 44
0.0
173
     0
291
     1
 45
0.0
1001
ACAD
1000
AcDbSavedByObjectVersion
1070
     0
  0
VISUALSTYLE
  5
2E
102
{ACAD_REACTORS
330
2A
102
}
330
2A
100
AcDbVisualStyle
  2
GouraudWithEdges
 70
     3
 71
     2
 72
     2
 73
     1
 90
        2
 40
-0.6
 41
30.0
 62
     5
 63
     7
 74
     1
 91
        4
 64
     7
 65
   257
 75
     1
175
     1
 42
1.0
 92
        0
 66
   257
 43
1.0
 76
     1
 77
     6
 78
     2
 67
     7
 79
     5
170
     0
171
     0
290
     0
174
     0
 93
       13
 44
0.0
173
     0
291
     1
 45
0.0
1001
ACAD
1000
AcDbSavedByObjectVersion
1070
     0
  0
VISUALSTYLE
  5
38
102
{ACAD_REACTORS
330
2A
102
}
330
2A
100
AcDbVisualStyle
  2
Linepattern
 70
    14
 71
     2
 72
     2
 73
     0
 90
        0
 40
-0.6
 41
-30.0
 62
     5
 63
     7
 74
     1
 91
        4
 64
     7
 65
   257
 75
     7
175
     7
 42
1.0
 92
        8
 66
     7
 43
1.0
 76
     1
 77
     6
 78
     2
 67
     7
 79
     5
170
     0
171
     0
290
     0
174
     0
 93
        1
 44
0.0
173
     0
291
     1
 45
0.0
1001
ACAD
1000
AcDbSavedByObjectVersion
1070
     0
  0
VISUALSTYLE
  5
33
102
{ACAD_REACTORS
330
2A
102
}
330
2A
100
AcDbVisualStyle
  2
Realistic
 70
     8
 71
     2
 72
     2
 73
     0
 90
        0
 40
-0.6
 41
-30.0
 62
     5
 63
     7
 74
     1
 91
        0
 64
     7
 65
   257
 75
     1
175
     1
 42
1.0
 92
        8
 66
     8
 43
1.0
 76
     1
 77
     6
 78
     2
 67
     7
 79
     5
170
     0
171
     0
290
     0
174
     0
 93
       13
 44
0.0
173
     0
291
     0
 45
0.0
1001
ACAD
1000
AcDbSavedByObjectVersion
1070
     0
  0
VISUALSTYLE
  5
37
102
{ACAD_REACTORS
330
2A
102
}
330
2A
100
AcDbVisualStyle
  2
Thicken
 70
    13
 71
     2
 72
     2
 73
     0
 90
        0
 40
-0.6
 41
-30.0
 62
     5
 63
     7
 74
     1
 91
        4
 64
     7
 65
   257
 75
     1
175
     1
 42
1.0
 92
       12
 66
     7
 43
1.0
 76
     1
 77
     6
 78
     2
 67
     7
 79
     5
170
     0
171
     0
290
     0
174
     0
 93
        1
 44
0.0
173
     0
291
     1
 45
0.0
1001
ACAD
1000
AcDbSavedByObjectVersion
1070
     0
  0
XRECORD
  5
9A
102
{ACAD_REACTORS
330
91
102
}
330
91
100
AcDbXrecord
 90
        0
  0
XRECORD
  5
B0
102
{ACAD_REACTORS
330
91
102
}
330
91
100
AcDbXrecord
1000
DSTYLE
1002
{
1070
   340
340
11
1002
}
  0
XRECORD
  5
9B
102
{ACAD_REACTORS
330
91
102
}
330
91
100
AcDbXrecord
  1
{5603C648-4BE0-425E-9748-9D985CC37000}
  0
XRECORD
  5
94
102
{ACAD_REACTORS
330
91
102
}
330
91
100
AcDbXrecord
  1

  0
XRECORD
  5
99
102
{ACAD_REACTORS
330
91
102
}
330
91
100
AcDbXrecord
 90
        4
  0
XRECORD
  5
96
102
{ACAD_REACTORS
330
91
102
}
330
91
100
AcDbXrecord
340
1A
  0
XRECORD
  5
98
102
{ACAD_REACTORS
330
91
102
}
330
91
100
AcDbXrecord
 90
    10781
  0
XRECORD
  5
97
102
{ACAD_REACTORS
330
91
102
}
330
91
100
AcDbXrecord
340
19
  0
XRECORD
  5
9D
102
{ACAD_REACTORS
330
91
102
}
330
91
100
AcDbXrecord
 40
0.0
  0
XRECORD
  5
A0
102
{ACAD_REACTORS
330
91
102
}
330
91
100
AcDbXrecord
340
0
  0
XRECORD
  5
A6
102
{ACAD_REACTORS
330
91
102
}
330
91
100
AcDbXrecord
 10
0.0
 20
0.0
 30
0.0
  0
XRECORD
  5
A2
102
{ACAD_REACTORS
330
91
102
}
330
91
100
AcDbXrecord
 10
0.0
 20
0.0
 30
0.0
  0
XRECORD
  5
A5
102
{ACAD_REACTORS
330
91
102
}
330
91
100
AcDbXrecord
 10
0.0
 20
0.0
 30
0.0
  0
XRECORD
  5
A3
102
{ACAD_REACTORS
330
91
102
}
330
91
100
AcDbXrecord
 10
0.0
 20
0.0
 30
0.0
  0
XRECORD
  5
A4
102
{ACAD_REACTORS
330
91
102
}
330
91
100
AcDbXrecord
 10
0.0
 20
0.0
 30
0.0
  0
XRECORD
  5
A1
102
{ACAD_REACTORS
330
91
102
}
330
91
100
AcDbXrecord
 10
0.0
 20
0.0
 30
0.0
  0
XRECORD
  5
9E
102
{ACAD_REACTORS
330
91
102
}
330
91
100
AcDbXrecord
340
0
  0
XRECORD
  5
9F
102
{ACAD_REACTORS
330
91
102
}
330
91
100
AcDbXrecord
 70
     0
  0
XRECORD
  5
95
102
{ACAD_REACTORS
330
91
102
}
330
91
100
AcDbXrecord
  1

  0
XRECORD
  5
92
102
{ACAD_REACTORS
330
91
102
}
330
91
100
AcDbXrecord
 90
        1
  0
XRECORD
  5
93
102
{ACAD_REACTORS
330
91
102
}
330
91
100
AcDbXrecord
 90
       70
  0
XRECORD
  5
A9
102
{ACAD_REACTORS
330
91
102
}
330
91
100
AcDbXrecord
340
0
  0
XRECORD
  5
AF
102
{ACAD_REACTORS
330
91
102
}
330
91
100
AcDbXrecord
 10
0.0
 20
0.0
 30
0.0
  0
XRECORD
  5
AB
102
{ACAD_REACTORS
330
91
102
}
330
91
100
AcDbXrecord
 10
0.0
 20
0.0
 30
0.0
  0
XRECORD
  5
AE
102
{ACAD_REACTORS
330
91
102
}
330
91
100
AcDbXrecord
 10
0.0
 20
0.0
 30
0.0
  0
XRECORD
  5
AC
102
{ACAD_REACTORS
330
91
102
}
330
91
100
AcDbXrecord
 10
0.0
 20
0.0
 30
0.0
  0
XRECORD
  5
AD
102
{ACAD_REACTORS
330
91
102
}
330
91
100
AcDbXrecord
 10
0.0
 20
0.0
 30
0.0
  0
XRECORD
  5
AA
102
{ACAD_REACTORS
330
91
102
}
330
91
100
AcDbXrecord
 10
0.0
 20
0.0
 30
0.0
  0
XRECORD
  5
A7
102
{ACAD_REACTORS
330
91
102
}
330
91
100
AcDbXrecord
340
0
  0
XRECORD
  5
A8
102
{ACAD_REACTORS
330
91
102
}
330
91
100
AcDbXrecord
 70
     0
  0
XRECORD
  5
9C
102
{ACAD_REACTORS
330
91
102
}
330
91
100
AcDbXrecord
  1
{FAEB1C32-E019-11D5-929B-00C0DF256EC4}
  0
DICTIONARYVAR
  5
B2
102
{ACAD_REACTORS
330
B1
102
}
330
B1
100
DictionaryVariables
280
     0
  1
1:1
  0
ENDSEC
  0
EOF
