  0
SECTION
  2
HEADER
  9
$ACADVER
  1
AC1021
  9
$ACADMAINTVER
 70
    25
  9
$DWGCODEPAGE
  3
ANSI_1252
  9
$INSBASE
 10
0.0
 20
0.0
 30
0.0
  9
$EXTMIN
 10
-11.48952
 20
-15.14264
 30
0.0
  9
$EXTMAX
 10
-9.51152
 20
-13.95442
 30
0.0
  9
$LIMMIN
 10
0.0
 20
0.0
  9
$LIMMAX
 10
12.0
 20
9.0
  9
$ORTHOMODE
 70
     0
  9
$REGENMODE
 70
     1
  9
$FILLMODE
 70
     1
  9
$QTEXTMODE
 70
     0
  9
$MIRRTEXT
 70
     1
  9
$LTSCALE
 40
1.0
  9
$ATTMODE
 70
     1
  9
$TEXTSIZE
 40
0.2
  9
$TRACEWID
 40
0.05
  9
$TEXTSTYLE
  7
Standard
  9
$CLAYER
  8
0
  9
$CELTYPE
  6
ByLayer
  9
$CECOLOR
 62
   256
  9
$CELTSCALE
 40
1.0
  9
$DISPSILH
 70
     0
  9
$DIMSCALE
 40
1.0
  9
$DIMASZ
 40
0.18
  9
$DIMEXO
 40
0.0625
  9
$DIMDLI
 40
0.38
  9
$DIMRND
 40
0.0
  9
$DIMDLE
 40
0.0
  9
$DIMEXE
 40
0.18
  9
$DIMTP
 40
0.0
  9
$DIMTM
 40
0.0
  9
$DIMTXT
 40
0.18
  9
$DIMCEN
 40
0.09
  9
$DIMTSZ
 40
0.0
  9
$DIMTOL
 70
     0
  9
$DIMLIM
 70
     0
  9
$DIMTIH
 70
     1
  9
$DIMTOH
 70
     1
  9
$DIMSE1
 70
     0
  9
$DIMSE2
 70
     0
  9
$DIMTAD
 70
     0
  9
$DIMZIN
 70
     0
  9
$DIMBLK
  1

  9
$DIMASO
 70
     1
  9
$DIMSHO
 70
     1
  9
$DIMPOST
  1

  9
$DIMAPOST
  1

  9
$DIMALT
 70
     0
  9
$DIMALTD
 70
     2
  9
$DIMALTF
 40
25.4
  9
$DIMLFAC
 40
1.0
  9
$DIMTOFL
 70
     0
  9
$DIMTVP
 40
0.0
  9
$DIMTIX
 70
     0
  9
$DIMSOXD
 70
     0
  9
$DIMSAH
 70
     0
  9
$DIMBLK1
  1

  9
$DIMBLK2
  1

  9
$DIMSTYLE
  2
Standard
  9
$DIMCLRD
 70
     0
  9
$DIMCLRE
 70
     0
  9
$DIMCLRT
 70
     0
  9
$DIMTFAC
 40
1.0
  9
$DIMGAP
 40
0.09
  9
$DIMJUST
 70
     0
  9
$DIMSD1
 70
     0
  9
$DIMSD2
 70
     0
  9
$DIMTOLJ
 70
     1
  9
$DIMTZIN
 70
     0
  9
$DIMALTZ
 70
     0
  9
$DIMALTTZ
 70
     0
  9
$DIMUPT
 70
     0
  9
$DIMDEC
 70
     4
  9
$DIMTDEC
 70
     4
  9
$DIMALTU
 70
     2
  9
$DIMALTTD
 70
     2
  9
$DIMTXSTY
  7
Standard
  9
$DIMAUNIT
 70
     0
  9
$DIMADEC
 70
     0
  9
$DIMALTRND
 40
0.0
  9
$DIMAZIN
 70
     0
  9
$DIMDSEP
 70
    46
  9
$DIMATFIT
 70
     3
  9
$DIMFRAC
 70
     0
  9
$DIMLDRBLK
  1

  9
$DIMLUNIT
 70
     2
  9
$DIMLWD
 70
    -2
  9
$DIMLWE
 70
    -2
  9
$DIMTMOVE
 70
     0
  9
$DIMFXL
 40
1.0
  9
$DIMFXLON
 70
     0
  9
$DIMJOGANG
 40
0.7853981633974483
  9
$DIMTFILL
 70
     0
  9
$DIMTFILLCLR
 70
     0
  9
$DIMARCSYM
 70
     0
  9
$DIMLTYPE
  6

  9
$DIMLTEX1
  6

  9
$DIMLTEX2
  6

  9
$LUNITS
 70
     2
  9
$LUPREC
 70
     4
  9
$SKETCHINC
 40
0.1
  9
$FILLETRAD
 40
0.5
  9
$AUNITS
 70
     0
  9
$AUPREC
 70
     0
  9
$MENU
  1
.
  9
$ELEVATION
 40
0.0
  9
$PELEVATION
 40
0.0
  9
$THICKNESS
 40
0.0
  9
$LIMCHECK
 70
     0
  9
$CHAMFERA
 40
0.5
  9
$CHAMFERB
 40
0.5
  9
$CHAMFERC
 40
1.0
  9
$CHAMFERD
 40
0.0
  9
$SKPOLY
 70
     0
  9
$TDCREATE
 40
2457064.720848206
  9
$TDUCREATE
 40
2457064.720848206
  9
$TDUPDATE
 40
2457064.720848218
  9
$TDUUPDATE
 40
2457064.720848218
  9
$TDINDWG
 40
0.0000000116
  9
$TDUSRTIMER
 40
0.0000000116
  9
$USRTIMER
 70
     1
  9
$ANGBASE
 50
0.0
  9
$ANGDIR
 70
     0
  9
$PDMODE
 70
     0
  9
$PDSIZE
 40
0.0
  9
$PLINEWID
 40
0.0
  9
$SPLFRAME
 70
     0
  9
$SPLINETYPE
 70
     6
  9
$SPLINESEGS
 70
     8
  9
$HANDSEED
  5
94
  9
$SURFTAB1
 70
     6
  9
$SURFTAB2
 70
     6
  9
$SURFTYPE
 70
     6
  9
$SURFU
 70
     6
  9
$SURFV
 70
     6
  9
$UCSBASE
  2

  9
$UCSNAME
  2

  9
$UCSORG
 10
0.0
 20
0.0
 30
0.0
  9
$UCSXDIR
 10
1.0
 20
0.0
 30
0.0
  9
$UCSYDIR
 10
0.0
 20
1.0
 30
0.0
  9
$UCSORTHOREF
  2

  9
$UCSORTHOVIEW
 70
     0
  9
$UCSORGTOP
 10
0.0
 20
0.0
 30
0.0
  9
$UCSORGBOTTOM
 10
0.0
 20
0.0
 30
0.0
  9
$UCSORGLEFT
 10
0.0
 20
0.0
 30
0.0
  9
$UCSORGRIGHT
 10
0.0
 20
0.0
 30
0.0
  9
$UCSORGFRONT
 10
0.0
 20
0.0
 30
0.0
  9
$UCSORGBACK
 10
0.0
 20
0.0
 30
0.0
  9
$PUCSBASE
  2

  9
$PUCSNAME
  2

  9
$PUCSORG
 10
0.0
 20
0.0
 30
0.0
  9
$PUCSXDIR
 10
1.0
 20
0.0
 30
0.0
  9
$PUCSYDIR
 10
0.0
 20
1.0
 30
0.0
  9
$PUCSORTHOREF
  2

  9
$PUCSORTHOVIEW
 70
     0
  9
$PUCSORGTOP
 10
0.0
 20
0.0
 30
0.0
  9
$PUCSORGBOTTOM
 10
0.0
 20
0.0
 30
0.0
  9
$PUCSORGLEFT
 10
0.0
 20
0.0
 30
0.0
  9
$PUCSORGRIGHT
 10
0.0
 20
0.0
 30
0.0
  9
$PUCSORGFRONT
 10
0.0
 20
0.0
 30
0.0
  9
$PUCSORGBACK
 10
0.0
 20
0.0
 30
0.0
  9
$USERI1
 70
     0
  9
$USERI2
 70
     0
  9
$USERI3
 70
     0
  9
$USERI4
 70
     0
  9
$USERI5
 70
     0
  9
$USERR1
 40
0.0
  9
$USERR2
 40
0.0
  9
$USERR3
 40
0.0
  9
$USERR4
 40
0.0
  9
$USERR5
 40
0.0
  9
$WORLDVIEW
 70
     1
  9
$SHADEDGE
 70
     3
  9
$SHADEDIF
 70
    70
  9
$TILEMODE
 70
     1
  9
$MAXACTVP
 70
    64
  9
$PINSBASE
 10
0.0
 20
0.0
 30
0.0
  9
$PLIMCHECK
 70
     0
  9
$PEXTMIN
 10
1.000000000000000E+20
 20
1.000000000000000E+20
 30
1.000000000000000E+20
  9
$PEXTMAX
 10
-1.000000000000000E+20
 20
-1.000000000000000E+20
 30
-1.000000000000000E+20
  9
$PLIMMIN
 10
0.0
 20
0.0
  9
$PLIMMAX
 10
12.0
 20
9.0
  9
$UNITMODE
 70
     0
  9
$VISRETAIN
 70
     1
  9
$PLINEGEN
 70
     0
  9
$PSLTSCALE
 70
     1
  9
$TREEDEPTH
 70
  3020
  9
$CMLSTYLE
  2
Standard
  9
$CMLJUST
 70
     0
  9
$CMLSCALE
 40
1.0
  9
$PROXYGRAPHICS
 70
     1
  9
$MEASUREMENT
 70
     0
  9
$CELWEIGHT
370
    -1
  9
$ENDCAPS
280
     0
  9
$JOINSTYLE
280
     0
  9
$LWDISPLAY
290
     0
  9
$INSUNITS
 70
     5
  9
$HYPERLINKBASE
  1

  9
$STYLESHEET
  1

  9
$XEDIT
290
     1
  9
$CEPSNTYPE
380
     0
  9
$PSTYLEMODE
290
     1
  9
$FINGERPRINTGUID
  2
{02C836BE-25C2-4FBA-9F6D-E466D01DDA5A}
  9
$VERSIONGUID
  2
{FAEB1C32-E019-11D5-929B-00C0DF256EC4}
  9
$EXTNAMES
290
     1
  9
$PSVPSCALE
 40
0.0
  9
$OLESTARTUP
290
     0
  9
$SORTENTS
280
   127
  9
$INDEXCTL
280
     0
  9
$HIDETEXT
280
     1
  9
$XCLIPFRAME
290
     0
  9
$HALOGAP
280
     0
  9
$OBSCOLOR
 70
   257
  9
$OBSLTYPE
280
     0
  9
$INTERSECTIONDISPLAY
280
     0
  9
$INTERSECTIONCOLOR
 70
   257
  9
$DIMASSOC
280
     2
  9
$PROJECTNAME
  1

  9
$CAMERADISPLAY
290
     0
  9
$LENSLENGTH
 40
50.0
  9
$CAMERAHEIGHT
 40
0.0
  9
$STEPSPERSEC
 40
2.0
  9
$STEPSIZE
 40
6.0
  9
$3DDWFPREC
 40
2.0
  9
$PSOLWIDTH
 40
0.25
  9
$PSOLHEIGHT
 40
4.0
  9
$LOFTANG1
 40
1.570796326794897
  9
$LOFTANG2
 40
1.570796326794897
  9
$LOFTMAG1
 40
0.0
  9
$LOFTMAG2
 40
0.0
  9
$LOFTPARAM
 70
     7
  9
$LOFTNORMALS
280
     1
  9
$LATITUDE
 40
37.795
  9
$LONGITUDE
 40
-122.394
  9
$NORTHDIRECTION
 40
0.0
  9
$TIMEZONE
 70
 -8000
  9
$LIGHTGLYPHDISPLAY
280
     1
  9
$TILEMODELIGHTSYNCH
280
     1
  9
$SOLIDHIST
280
     1
  9
$SHOWHIST
280
     1
  9
$DWFFRAME
280
     2
  9
$DGNFRAME
280
     2
  9
$REALWORLDSCALE
290
     1
  9
$INTERFERECOLOR
 62
   256
  9
$CSHADOW
280
     0
  9
$SHADOWPLANELOCATION
 40
0.0
  0
ENDSEC
  0
SECTION
  2
CLASSES
  0
CLASS
  1
ACDBDICTIONARYWDFLT
  2
AcDbDictionaryWithDefault
  3
ObjectDBX Classes
 90
        0
 91
        3
280
     0
281
     0
  0
CLASS
  1
VISUALSTYLE
  2
AcDbVisualStyle
  3
ObjectDBX Classes
 90
     4095
 91
        3
280
     0
281
     0
  0
CLASS
  1
SCALE
  2
AcDbScale
  3
ObjectDBX Classes
 90
     1153
 91
        3
280
     0
281
     0
  0
ENDSEC
  0
SECTION
  2
TABLES
  0
TABLE
  2
VPORT
  5
8
330
0
100
AcDbSymbolTable
 70
     1
  0
VPORT
  5
29
330
8
100
AcDbSymbolTableRecord
100
AcDbViewportTableRecord
  2
*Active
 70
     0
 10
0.0
 20
0.0
 11
1.0
 21
1.0
 12
10.42990654205607
 22
4.5
 13
0.0
 23
0.0
 14
0.5
 24
0.5
 15
0.5
 25
0.5
 16
0.0
 26
0.0
 36
1.0
 17
0.0
 27
0.0
 37
0.0
 40
9.0
 41
1.972972972850329
 42
50.0
 43
0.0
 44
0.0
 50
0.0
 51
0.0
 71
     0
 72
   100
 73
     1
 74
     3
 75
     0
 76
     0
 77
     0
 78
     0
281
     0
 65
     1
110
0.0
120
0.0
130
0.0
111
1.0
121
0.0
131
0.0
112
0.0
122
1.0
132
0.0
 79
     0
146
0.0
 60
     3
 61
     5
292
     1
282
     1
141
0.0
142
0.0
 63
   256
  0
ENDTAB
  0
TABLE
  2
LTYPE
  5
5
330
0
100
AcDbSymbolTable
 70
     1
  0
LTYPE
  5
14
330
5
100
AcDbSymbolTableRecord
100
AcDbLinetypeTableRecord
  2
ByBlock
 70
     0
  3

 72
    65
 73
     0
 40
0.0
  0
LTYPE
  5
15
330
5
100
AcDbSymbolTableRecord
100
AcDbLinetypeTableRecord
  2
ByLayer
 70
     0
  3

 72
    65
 73
     0
 40
0.0
  0
LTYPE
  5
16
330
5
100
AcDbSymbolTableRecord
100
AcDbLinetypeTableRecord
  2
Continuous
 70
     0
  3
Solid line
 72
    65
 73
     0
 40
0.0
  0
ENDTAB
  0
TABLE
  2
LAYER
  5
2
330
0
100
AcDbSymbolTable
 70
     2
  0
LAYER
  5
10
330
2
100
AcDbSymbolTableRecord
100
AcDbLayerTableRecord
  2
0
 70
     0
 62
     7
  6
Continuous
370
    -3
390
F
347
0
  0
LAYER
  5
5E
330
2
100
AcDbSymbolTableRecord
100
AcDbLayerTableRecord
  2
Layer 1
 70
     0
 62
     7
  6
Continuous
370
    -3
390
F
347
0
  0
ENDTAB
  0
TABLE
  2
STYLE
  5
3
330
0
100
AcDbSymbolTable
 70
     1
  0
STYLE
  5
11
330
3
100
AcDbSymbolTableRecord
100
AcDbTextStyleTableRecord
  2
Standard
 70
     0
 40
0.0
 41
1.0
 50
0.0
 71
     0
 42
0.2
  3
txt
  4

  0
ENDTAB
  0
TABLE
  2
VIEW
  5
6
330
0
100
AcDbSymbolTable
 70
     0
  0
ENDTAB
  0
TABLE
  2
UCS
  5
7
330
0
100
AcDbSymbolTable
 70
     0
  0
ENDTAB
  0
TABLE
  2
APPID
  5
9
330
0
100
AcDbSymbolTable
 70
     2
  0
APPID
  5
12
330
9
100
AcDbSymbolTableRecord
100
AcDbRegAppTableRecord
  2
ACAD
 70
     0
  0
APPID
  5
5D
330
9
100
AcDbSymbolTableRecord
100
AcDbRegAppTableRecord
  2
ODA
 70
     0
  0
ENDTAB
  0
TABLE
  2
DIMSTYLE
  5
A
330
0
100
AcDbSymbolTable
 70
     1
100
AcDbDimStyleTable
  0
DIMSTYLE
105
27
330
A
100
AcDbSymbolTableRecord
100
AcDbDimStyleTableRecord
  2
Standard
 70
     0
340
11
  0
ENDTAB
  0
TABLE
  2
BLOCK_RECORD
  5
1
330
0
100
AcDbSymbolTable
 70
     1
  0
BLOCK_RECORD
  5
1F
330
1
100
AcDbSymbolTableRecord
100
AcDbBlockTableRecord
  2
*Model_Space
340
22
 70
     0
280
     1
281
     0
  0
BLOCK_RECORD
  5
1B
330
1
100
AcDbSymbolTableRecord
100
AcDbBlockTableRecord
  2
*Paper_Space
340
1E
 70
     0
280
     1
281
     0
  0
BLOCK_RECORD
  5
23
330
1
100
AcDbSymbolTableRecord
100
AcDbBlockTableRecord
  2
*Paper_Space0
340
26
 70
     0
280
     1
281
     0
  0
ENDTAB
  0
ENDSEC
  0
SECTION
  2
BLOCKS
  0
BLOCK
  5
20
330
1F
100
AcDbEntity
  8
0
100
AcDbBlockBegin
  2
*Model_Space
 70
     0
 10
0.0
 20
0.0
 30
0.0
  3
*Model_Space
  1

  0
ENDBLK
  5
21
330
1F
100
AcDbEntity
  8
0
100
AcDbBlockEnd
  0
BLOCK
  5
1C
330
1B
100
AcDbEntity
 67
     1
  8
0
100
AcDbBlockBegin
  2
*Paper_Space
 70
     0
 10
0.0
 20
0.0
 30
0.0
  3
*Paper_Space
  1

  0
ENDBLK
  5
1D
330
1B
100
AcDbEntity
 67
     1
  8
0
100
AcDbBlockEnd
  0
BLOCK
  5
24
330
23
100
AcDbEntity
  8
0
100
AcDbBlockBegin
  2
*Paper_Space0
 70
     0
 10
0.0
 20
0.0
 30
0.0
  3
*Paper_Space0
  1

  0
ENDBLK
  5
25
330
23
100
AcDbEntity
  8
0
100
AcDbBlockEnd
  0
ENDSEC
  0
SECTION
  2
ENTITIES
  0
LWPOLYLINE
  5
5F
330
1F
100
AcDbEntity
  8
Layer 1
 62
     7
370
    35
100
AcDbPolyline
 90
        5
 70
     1
 43
0.0
 10
-10.6125
 20
-15.125
 10
-10.3875
 20
-15.125
 10
-10.3875
 20
-14.575
 10
-10.6125
 20
-14.575
 10
-10.6125
 20
-15.125
  0
LWPOLYLINE
  5
60
330
1F
100
AcDbEntity
  8
Layer 1
 62
   250
370
    35
100
AcDbPolyline
 90
        5
 70
     1
 43
0.0
 10
-10.5375
 20
-14.7605
 10
-10.4625
 20
-14.7605
 10
-10.4625
 20
-14.6855
 10
-10.5375
 20
-14.6855
 10
-10.5375
 20
-14.7605
  0
LWPOLYLINE
  5
61
330
1F
100
AcDbEntity
  8
Layer 1
 62
   250
370
    35
100
AcDbPolyline
 90
        5
 70
     1
 43
0.0
 10
-10.5375
 20
-15.0145
 10
-10.4625
 20
-15.0145
 10
-10.4625
 20
-14.9395
 10
-10.5375
 20
-14.9395
 10
-10.5375
 20
-15.0145
  0
SPLINE
  5
62
330
1F
100
AcDbEntity
  8
Layer 1
 62
   250
100
AcDbSpline
210
0.0
220
0.0
230
1.0
 70
    11
 71
     3
 72
    80
 73
    76
 74
     0
 42
0.0000000001
 43
0.0000000001
 40
0.0
 40
0.0
 40
0.0
 40
0.0
 40
0.0526315789473684
 40
0.0526315789473684
 40
0.0526315789473684
 40
0.0526315789473684
 40
0.1052631578947368
 40
0.1052631578947368
 40
0.1052631578947368
 40
0.1052631578947368
 40
0.1578947368421053
 40
0.1578947368421053
 40
0.1578947368421053
 40
0.1578947368421053
 40
0.2105263157894737
 40
0.2105263157894737
 40
0.2105263157894737
 40
0.2105263157894737
 40
0.2631578947368421
 40
0.2631578947368421
 40
0.2631578947368421
 40
0.2631578947368421
 40
0.3157894736842105
 40
0.3157894736842105
 40
0.3157894736842105
 40
0.3157894736842105
 40
0.3684210526315789
 40
0.3684210526315789
 40
0.3684210526315789
 40
0.3684210526315789
 40
0.4210526315789473
 40
0.4210526315789473
 40
0.4210526315789473
 40
0.4210526315789473
 40
0.4736842105263158
 40
0.4736842105263158
 40
0.4736842105263158
 40
0.4736842105263158
 40
0.5263157894736842
 40
0.5263157894736842
 40
0.5263157894736842
 40
0.5263157894736842
 40
0.5789473684210527
 40
0.5789473684210527
 40
0.5789473684210527
 40
0.5789473684210527
 40
0.631578947368421
 40
0.631578947368421
 40
0.631578947368421
 40
0.631578947368421
 40
0.6842105263157894
 40
0.6842105263157894
 40
0.6842105263157894
 40
0.6842105263157894
 40
0.7368421052631577
 40
0.7368421052631577
 40
0.7368421052631577
 40
0.7368421052631577
 40
0.7894736842105261
 40
0.7894736842105261
 40
0.7894736842105261
 40
0.7894736842105261
 40
0.8421052631578945
 40
0.8421052631578945
 40
0.8421052631578945
 40
0.8421052631578945
 40
0.8947368421052628
 40
0.8947368421052628
 40
0.8947368421052628
 40
0.8947368421052628
 40
0.9473684210526312
 40
0.9473684210526312
 40
0.9473684210526312
 40
0.9473684210526312
 40
1.0
 40
1.0
 40
1.0
 40
1.0
 10
-11.43189
 20
-14.07522
 30
0.0
 10
-11.43189
 20
-14.07522
 30
0.0
 10
-11.36772
 20
-14.07522
 30
0.0
 10
-11.36772
 20
-14.07522
 30
0.0
 10
-11.36772
 20
-14.07522
 30
0.0
 10
-11.36772
 20
-14.07522
 30
0.0
 10
-11.36772
 20
-14.10285
 30
0.0
 10
-11.36772
 20
-14.10285
 30
0.0
 10
-11.36772
 20
-14.10285
 30
0.0
 10
-11.36772
 20
-14.10285
 30
0.0
 10
-11.47369
 20
-14.10285
 30
0.0
 10
-11.47369
 20
-14.10285
 30
0.0
 10
-11.47369
 20
-14.10285
 30
0.0
 10
-11.47369
 20
-14.10285
 30
0.0
 10
-11.47369
 20
-14.07522
 30
0.0
 10
-11.47369
 20
-14.07522
 30
0.0
 10
-11.47369
 20
-14.07522
 30
0.0
 10
-11.47369
 20
-14.07522
 30
0.0
 10
-11.42045
 20
-14.02825
 30
0.0
 10
-11.42045
 20
-14.02825
 30
0.0
 10
-11.42045
 20
-14.02825
 30
0.0
 10
-11.41569
 20
-14.02395
 30
0.0
 10
-11.41219
 20
-14.01975
 30
0.0
 10
-11.40992
 20
-14.01565
 30
0.0
 10
-11.40992
 20
-14.01565
 30
0.0
 10
-11.40762
 20
-14.01155
 30
0.0
 10
-11.40649
 20
-14.00728
 30
0.0
 10
-11.40649
 20
-14.00285
 30
0.0
 10
-11.40649
 20
-14.00285
 30
0.0
 10
-11.40649
 20
-13.99602
 30
0.0
 10
-11.40879
 20
-13.99052
 30
0.0
 10
-11.41339
 20
-13.98635
 30
0.0
 10
-11.41339
 20
-13.98635
 30
0.0
 10
-11.41795
 20
-13.98218
 30
0.0
 10
-11.42405
 20
-13.98012
 30
0.0
 10
-11.43169
 20
-13.98012
 30
0.0
 10
-11.43169
 20
-13.98012
 30
0.0
 10
-11.43755
 20
-13.98012
 30
0.0
 10
-11.44395
 20
-13.98138
 30
0.0
 10
-11.45092
 20
-13.98388
 30
0.0
 10
-11.45092
 20
-13.98388
 30
0.0
 10
-11.45789
 20
-13.98638
 30
0.0
 10
-11.46535
 20
-13.99012
 30
0.0
 10
-11.47329
 20
-13.99505
 30
0.0
 10
-11.47329
 20
-13.99505
 30
0.0
 10
-11.47329
 20
-13.99505
 30
0.0
 10
-11.47329
 20
-13.96302
 30
0.0
 10
-11.47329
 20
-13.96302
 30
0.0
 10
-11.47329
 20
-13.96302
 30
0.0
 10
-11.46482
 20
-13.96022
 30
0.0
 10
-11.45645
 20
-13.95808
 30
0.0
 10
-11.44819
 20
-13.95662
 30
0.0
 10
-11.44819
 20
-13.95662
 30
0.0
 10
-11.43992
 20
-13.95515
 30
0.0
 10
-11.43182
 20
-13.95442
 30
0.0
 10
-11.42385
 20
-13.95442
 30
0.0
 10
-11.42385
 20
-13.95442
 30
0.0
 10
-11.40642
 20
-13.95442
 30
0.0
 10
-11.39285
 20
-13.95825
 30
0.0
 10
-11.38319
 20
-13.96595
 30
0.0
 10
-11.38319
 20
-13.96595
 30
0.0
 10
-11.37352
 20
-13.97362
 30
0.0
 10
-11.36869
 20
-13.98432
 30
0.0
 10
-11.36869
 20
-13.99808
 30
0.0
 10
-11.36869
 20
-13.99808
 30
0.0
 10
-11.36869
 20
-14.00602
 30
0.0
 10
-11.37075
 20
-14.01342
 30
0.0
 10
-11.37485
 20
-14.02028
 30
0.0
 10
-11.37485
 20
-14.02028
 30
0.0
 10
-11.37895
 20
-14.02715
 30
0.0
 10
-11.38759
 20
-14.03635
 30
0.0
 10
-11.40072
 20
-14.04788
 30
0.0
 10
-11.40072
 20
-14.04788
 30
0.0
 10
-11.40072
 20
-14.04788
 30
0.0
 10
-11.43189
 20
-14.07522
 30
0.0
 10
-11.43189
 20
-14.07522
 30
0.0
  0
SPLINE
  5
63
330
1F
100
AcDbEntity
  8
Layer 1
 62
   250
100
AcDbSpline
210
0.0
220
0.0
230
1.0
 70
    11
 71
     3
 72
    80
 73
    76
 74
     0
 42
0.0000000001
 43
0.0000000001
 40
0.0
 40
0.0
 40
0.0
 40
0.0
 40
0.0526315789473684
 40
0.0526315789473684
 40
0.0526315789473684
 40
0.0526315789473684
 40
0.1052631578947368
 40
0.1052631578947368
 40
0.1052631578947368
 40
0.1052631578947368
 40
0.1578947368421053
 40
0.1578947368421053
 40
0.1578947368421053
 40
0.1578947368421053
 40
0.2105263157894737
 40
0.2105263157894737
 40
0.2105263157894737
 40
0.2105263157894737
 40
0.2631578947368421
 40
0.2631578947368421
 40
0.2631578947368421
 40
0.2631578947368421
 40
0.3157894736842105
 40
0.3157894736842105
 40
0.3157894736842105
 40
0.3157894736842105
 40
0.3684210526315789
 40
0.3684210526315789
 40
0.3684210526315789
 40
0.3684210526315789
 40
0.4210526315789473
 40
0.4210526315789473
 40
0.4210526315789473
 40
0.4210526315789473
 40
0.4736842105263158
 40
0.4736842105263158
 40
0.4736842105263158
 40
0.4736842105263158
 40
0.5263157894736842
 40
0.5263157894736842
 40
0.5263157894736842
 40
0.5263157894736842
 40
0.5789473684210527
 40
0.5789473684210527
 40
0.5789473684210527
 40
0.5789473684210527
 40
0.631578947368421
 40
0.631578947368421
 40
0.631578947368421
 40
0.631578947368421
 40
0.6842105263157894
 40
0.6842105263157894
 40
0.6842105263157894
 40
0.6842105263157894
 40
0.7368421052631577
 40
0.7368421052631577
 40
0.7368421052631577
 40
0.7368421052631577
 40
0.7894736842105261
 40
0.7894736842105261
 40
0.7894736842105261
 40
0.7894736842105261
 40
0.8421052631578945
 40
0.8421052631578945
 40
0.8421052631578945
 40
0.8421052631578945
 40
0.8947368421052628
 40
0.8947368421052628
 40
0.8947368421052628
 40
0.8947368421052628
 40
0.9473684210526312
 40
0.9473684210526312
 40
0.9473684210526312
 40
0.9473684210526312
 40
1.0
 40
1.0
 40
1.0
 40
1.0
 10
-11.29272
 20
-14.07522
 30
0.0
 10
-11.29272
 20
-14.07522
 30
0.0
 10
-11.22855
 20
-14.07522
 30
0.0
 10
-11.22855
 20
-14.07522
 30
0.0
 10
-11.22855
 20
-14.07522
 30
0.0
 10
-11.22855
 20
-14.07522
 30
0.0
 10
-11.22855
 20
-14.10285
 30
0.0
 10
-11.22855
 20
-14.10285
 30
0.0
 10
-11.22855
 20
-14.10285
 30
0.0
 10
-11.22855
 20
-14.10285
 30
0.0
 10
-11.33452
 20
-14.10285
 30
0.0
 10
-11.33452
 20
-14.10285
 30
0.0
 10
-11.33452
 20
-14.10285
 30
0.0
 10
-11.33452
 20
-14.10285
 30
0.0
 10
-11.33452
 20
-14.07522
 30
0.0
 10
-11.33452
 20
-14.07522
 30
0.0
 10
-11.33452
 20
-14.07522
 30
0.0
 10
-11.33452
 20
-14.07522
 30
0.0
 10
-11.28128
 20
-14.02825
 30
0.0
 10
-11.28128
 20
-14.02825
 30
0.0
 10
-11.28128
 20
-14.02825
 30
0.0
 10
-11.27652
 20
-14.02395
 30
0.0
 10
-11.27302
 20
-14.01975
 30
0.0
 10
-11.27075
 20
-14.01565
 30
0.0
 10
-11.27075
 20
-14.01565
 30
0.0
 10
-11.26845
 20
-14.01155
 30
0.0
 10
-11.26732
 20
-14.00728
 30
0.0
 10
-11.26732
 20
-14.00285
 30
0.0
 10
-11.26732
 20
-14.00285
 30
0.0
 10
-11.26732
 20
-13.99602
 30
0.0
 10
-11.26962
 20
-13.99052
 30
0.0
 10
-11.27422
 20
-13.98635
 30
0.0
 10
-11.27422
 20
-13.98635
 30
0.0
 10
-11.27878
 20
-13.98218
 30
0.0
 10
-11.28488
 20
-13.98012
 30
0.0
 10
-11.29252
 20
-13.98012
 30
0.0
 10
-11.29252
 20
-13.98012
 30
0.0
 10
-11.29838
 20
-13.98012
 30
0.0
 10
-11.30478
 20
-13.98138
 30
0.0
 10
-11.31175
 20
-13.98388
 30
0.0
 10
-11.31175
 20
-13.98388
 30
0.0
 10
-11.31872
 20
-13.98638
 30
0.0
 10
-11.32618
 20
-13.99012
 30
0.0
 10
-11.33412
 20
-13.99505
 30
0.0
 10
-11.33412
 20
-13.99505
 30
0.0
 10
-11.33412
 20
-13.99505
 30
0.0
 10
-11.33412
 20
-13.96302
 30
0.0
 10
-11.33412
 20
-13.96302
 30
0.0
 10
-11.33412
 20
-13.96302
 30
0.0
 10
-11.32565
 20
-13.96022
 30
0.0
 10
-11.31728
 20
-13.95808
 30
0.0
 10
-11.30902
 20
-13.95662
 30
0.0
 10
-11.30902
 20
-13.95662
 30
0.0
 10
-11.30075
 20
-13.95515
 30
0.0
 10
-11.29265
 20
-13.95442
 30
0.0
 10
-11.28468
 20
-13.95442
 30
0.0
 10
-11.28468
 20
-13.95442
 30
0.0
 10
-11.26725
 20
-13.95442
 30
0.0
 10
-11.25368
 20
-13.95825
 30
0.0
 10
-11.24402
 20
-13.96595
 30
0.0
 10
-11.24402
 20
-13.96595
 30
0.0
 10
-11.23435
 20
-13.97362
 30
0.0
 10
-11.22952
 20
-13.98432
 30
0.0
 10
-11.22952
 20
-13.99808
 30
0.0
 10
-11.22952
 20
-13.99808
 30
0.0
 10
-11.22952
 20
-14.00602
 30
0.0
 10
-11.23158
 20
-14.01342
 30
0.0
 10
-11.23568
 20
-14.02028
 30
0.0
 10
-11.23568
 20
-14.02028
 30
0.0
 10
-11.23978
 20
-14.02715
 30
0.0
 10
-11.24842
 20
-14.03635
 30
0.0
 10
-11.26155
 20
-14.04788
 30
0.0
 10
-11.26155
 20
-14.04788
 30
0.0
 10
-11.26155
 20
-14.04788
 30
0.0
 10
-11.29272
 20
-14.07522
 30
0.0
 10
-11.29272
 20
-14.07522
 30
0.0
  0
SPLINE
  5
64
330
1F
100
AcDbEntity
  8
Layer 1
 62
   250
100
AcDbSpline
210
0.0
220
0.0
230
1.0
 70
    11
 71
     3
 72
    56
 73
    52
 74
     0
 42
0.0000000001
 43
0.0000000001
 40
0.0
 40
0.0
 40
0.0
 40
0.0
 40
0.0769230769230769
 40
0.0769230769230769
 40
0.0769230769230769
 40
0.0769230769230769
 40
0.1538461538461539
 40
0.1538461538461539
 40
0.1538461538461539
 40
0.1538461538461539
 40
0.2307692307692308
 40
0.2307692307692308
 40
0.2307692307692308
 40
0.2307692307692308
 40
0.3076923076923077
 40
0.3076923076923077
 40
0.3076923076923077
 40
0.3076923076923077
 40
0.3846153846153846
 40
0.3846153846153846
 40
0.3846153846153846
 40
0.3846153846153846
 40
0.4615384615384616
 40
0.4615384615384616
 40
0.4615384615384616
 40
0.4615384615384616
 40
0.5384615384615385
 40
0.5384615384615385
 40
0.5384615384615385
 40
0.5384615384615385
 40
0.6153846153846154
 40
0.6153846153846154
 40
0.6153846153846154
 40
0.6153846153846154
 40
0.6923076923076923
 40
0.6923076923076923
 40
0.6923076923076923
 40
0.6923076923076923
 40
0.7692307692307692
 40
0.7692307692307692
 40
0.7692307692307692
 40
0.7692307692307692
 40
0.846153846153846
 40
0.846153846153846
 40
0.846153846153846
 40
0.846153846153846
 40
0.9230769230769229
 40
0.9230769230769229
 40
0.9230769230769229
 40
0.9230769230769229
 40
1.0
 40
1.0
 40
1.0
 40
1.0
 10
-11.08978
 20
-14.08702
 30
0.0
 10
-11.08978
 20
-14.08702
 30
0.0
 10
-11.08978
 20
-14.14445
 30
0.0
 10
-11.08978
 20
-14.14445
 30
0.0
 10
-11.08978
 20
-14.14445
 30
0.0
 10
-11.08978
 20
-14.14445
 30
0.0
 10
-11.12475
 20
-14.14445
 30
0.0
 10
-11.12475
 20
-14.14445
 30
0.0
 10
-11.12475
 20
-14.14445
 30
0.0
 10
-11.12475
 20
-14.14445
 30
0.0
 10
-11.12475
 20
-13.99348
 30
0.0
 10
-11.12475
 20
-13.99348
 30
0.0
 10
-11.12475
 20
-13.99348
 30
0.0
 10
-11.12475
 20
-13.99348
 30
0.0
 10
-11.08978
 20
-13.99348
 30
0.0
 10
-11.08978
 20
-13.99348
 30
0.0
 10
-11.08978
 20
-13.99348
 30
0.0
 10
-11.08978
 20
-13.99348
 30
0.0
 10
-11.08978
 20
-14.00952
 30
0.0
 10
-11.08978
 20
-14.00952
 30
0.0
 10
-11.08978
 20
-14.00952
 30
0.0
 10
-11.08498
 20
-14.00312
 30
0.0
 10
-11.07962
 20
-13.99842
 30
0.0
 10
-11.07378
 20
-13.99538
 30
0.0
 10
-11.07378
 20
-13.99538
 30
0.0
 10
-11.06792
 20
-13.99235
 30
0.0
 10
-11.06118
 20
-13.99085
 30
0.0
 10
-11.05355
 20
-13.99085
 30
0.0
 10
-11.05355
 20
-13.99085
 30
0.0
 10
-11.04008
 20
-13.99085
 30
0.0
 10
-11.02902
 20
-13.99622
 30
0.0
 10
-11.02038
 20
-14.00692
 30
0.0
 10
-11.02038
 20
-14.00692
 30
0.0
 10
-11.01172
 20
-14.01762
 30
0.0
 10
-11.00738
 20
-14.03142
 30
0.0
 10
-11.00738
 20
-14.04825
 30
0.0
 10
-11.00738
 20
-14.04825
 30
0.0
 10
-11.00738
 20
-14.06512
 30
0.0
 10
-11.01172
 20
-14.07892
 30
0.0
 10
-11.02038
 20
-14.08962
 30
0.0
 10
-11.02038
 20
-14.08962
 30
0.0
 10
-11.02902
 20
-14.10032
 30
0.0
 10
-11.04008
 20
-14.10568
 30
0.0
 10
-11.05355
 20
-14.10568
 30
0.0
 10
-11.05355
 20
-14.10568
 30
0.0
 10
-11.06118
 20
-14.10568
 30
0.0
 10
-11.06792
 20
-14.10418
 30
0.0
 10
-11.07378
 20
-14.10115
 30
0.0
 10
-11.07378
 20
-14.10115
 30
0.0
 10
-11.07962
 20
-14.09812
 30
0.0
 10
-11.08498
 20
-14.09342
 30
0.0
 10
-11.08978
 20
-14.08702
 30
0.0
  0
SPLINE
  5
65
330
1F
100
AcDbEntity
  8
Layer 1
 62
   250
100
AcDbSpline
210
0.0
220
0.0
230
1.0
 70
    11
 71
     3
 72
    36
 73
    32
 74
     0
 42
0.0000000001
 43
0.0000000001
 40
0.0
 40
0.0
 40
0.0
 40
0.0
 40
0.125
 40
0.125
 40
0.125
 40
0.125
 40
0.25
 40
0.25
 40
0.25
 40
0.25
 40
0.375
 40
0.375
 40
0.375
 40
0.375
 40
0.5
 40
0.5
 40
0.5
 40
0.5
 40
0.625
 40
0.625
 40
0.625
 40
0.625
 40
0.75
 40
0.75
 40
0.75
 40
0.75
 40
0.875
 40
0.875
 40
0.875
 40
0.875
 40
1.0
 40
1.0
 40
1.0
 40
1.0
 10
-11.06655
 20
-14.01625
 30
0.0
 10
-11.07405
 20
-14.01625
 30
0.0
 10
-11.07978
 20
-14.01898
 30
0.0
 10
-11.08378
 20
-14.02448
 30
0.0
 10
-11.08378
 20
-14.02448
 30
0.0
 10
-11.08778
 20
-14.02998
 30
0.0
 10
-11.08978
 20
-14.03792
 30
0.0
 10
-11.08978
 20
-14.04825
 30
0.0
 10
-11.08978
 20
-14.04825
 30
0.0
 10
-11.08978
 20
-14.05862
 30
0.0
 10
-11.08778
 20
-14.06655
 30
0.0
 10
-11.08378
 20
-14.07205
 30
0.0
 10
-11.08378
 20
-14.07205
 30
0.0
 10
-11.07978
 20
-14.07755
 30
0.0
 10
-11.07405
 20
-14.08028
 30
0.0
 10
-11.06655
 20
-14.08028
 30
0.0
 10
-11.06655
 20
-14.08028
 30
0.0
 10
-11.05908
 20
-14.08028
 30
0.0
 10
-11.05335
 20
-14.07755
 30
0.0
 10
-11.04942
 20
-14.07208
 30
0.0
 10
-11.04942
 20
-14.07208
 30
0.0
 10
-11.04548
 20
-14.06662
 30
0.0
 10
-11.04352
 20
-14.05868
 30
0.0
 10
-11.04352
 20
-14.04825
 30
0.0
 10
-11.04352
 20
-14.04825
 30
0.0
 10
-11.04352
 20
-14.03785
 30
0.0
 10
-11.04548
 20
-14.02992
 30
0.0
 10
-11.04942
 20
-14.02445
 30
0.0
 10
-11.04942
 20
-14.02445
 30
0.0
 10
-11.05335
 20
-14.01898
 30
0.0
 10
-11.05908
 20
-14.01625
 30
0.0
 10
-11.06655
 20
-14.01625
 30
0.0
  0
SPLINE
  5
66
330
1F
100
AcDbEntity
  8
Layer 1
 62
   250
100
AcDbSpline
210
0.0
220
0.0
230
1.0
 70
    11
 71
     3
 72
    44
 73
    40
 74
     0
 42
0.0000000001
 43
0.0000000001
 40
0.0
 40
0.0
 40
0.0
 40
0.0
 40
0.1
 40
0.1
 40
0.1
 40
0.1
 40
0.2
 40
0.2
 40
0.2
 40
0.2
 40
0.3
 40
0.3
 40
0.3
 40
0.3
 40
0.4
 40
0.4
 40
0.4
 40
0.4
 40
0.5
 40
0.5
 40
0.5
 40
0.5
 40
0.6
 40
0.6
 40
0.6
 40
0.6
 40
0.7
 40
0.7
 40
0.7
 40
0.7
 40
0.7999999999999999
 40
0.7999999999999999
 40
0.7999999999999999
 40
0.7999999999999999
 40
0.8999999999999999
 40
0.8999999999999999
 40
0.8999999999999999
 40
0.8999999999999999
 40
1.0
 40
1.0
 40
1.0
 40
1.0
 10
-10.98001
 20
-13.95705
 30
0.0
 10
-10.98001
 20
-13.95705
 30
0.0
 10
-10.87855
 20
-13.95705
 30
0.0
 10
-10.87855
 20
-13.95705
 30
0.0
 10
-10.87855
 20
-13.95705
 30
0.0
 10
-10.87855
 20
-13.95705
 30
0.0
 10
-10.87855
 20
-13.98548
 30
0.0
 10
-10.87855
 20
-13.98548
 30
0.0
 10
-10.87855
 20
-13.98548
 30
0.0
 10
-10.87855
 20
-13.98548
 30
0.0
 10
-10.94241
 20
-13.98548
 30
0.0
 10
-10.94241
 20
-13.98548
 30
0.0
 10
-10.94241
 20
-13.98548
 30
0.0
 10
-10.94241
 20
-13.98548
 30
0.0
 10
-10.94241
 20
-14.01262
 30
0.0
 10
-10.94241
 20
-14.01262
 30
0.0
 10
-10.94241
 20
-14.01262
 30
0.0
 10
-10.94241
 20
-14.01262
 30
0.0
 10
-10.88235
 20
-14.01262
 30
0.0
 10
-10.88235
 20
-14.01262
 30
0.0
 10
-10.88235
 20
-14.01262
 30
0.0
 10
-10.88235
 20
-14.01262
 30
0.0
 10
-10.88235
 20
-14.04105
 30
0.0
 10
-10.88235
 20
-14.04105
 30
0.0
 10
-10.88235
 20
-14.04105
 30
0.0
 10
-10.88235
 20
-14.04105
 30
0.0
 10
-10.94241
 20
-14.04105
 30
0.0
 10
-10.94241
 20
-14.04105
 30
0.0
 10
-10.94241
 20
-14.04105
 30
0.0
 10
-10.94241
 20
-14.04105
 30
0.0
 10
-10.94241
 20
-14.10285
 30
0.0
 10
-10.94241
 20
-14.10285
 30
0.0
 10
-10.94241
 20
-14.10285
 30
0.0
 10
-10.94241
 20
-14.10285
 30
0.0
 10
-10.98001
 20
-14.10285
 30
0.0
 10
-10.98001
 20
-14.10285
 30
0.0
 10
-10.98001
 20
-14.10285
 30
0.0
 10
-10.98001
 20
-14.10285
 30
0.0
 10
-10.98001
 20
-13.95705
 30
0.0
 10
-10.98001
 20
-13.95705
 30
0.0
  0
SPLINE
  5
67
330
1F
100
AcDbEntity
  8
Layer 1
 62
   250
100
AcDbSpline
210
0.0
220
0.0
230
1.0
 70
    11
 71
     3
 72
    76
 73
    72
 74
     0
 42
0.0000000001
 43
0.0000000001
 40
0.0
 40
0.0
 40
0.0
 40
0.0
 40
0.0555555555555556
 40
0.0555555555555556
 40
0.0555555555555556
 40
0.0555555555555556
 40
0.1111111111111111
 40
0.1111111111111111
 40
0.1111111111111111
 40
0.1111111111111111
 40
0.1666666666666667
 40
0.1666666666666667
 40
0.1666666666666667
 40
0.1666666666666667
 40
0.2222222222222222
 40
0.2222222222222222
 40
0.2222222222222222
 40
0.2222222222222222
 40
0.2777777777777778
 40
0.2777777777777778
 40
0.2777777777777778
 40
0.2777777777777778
 40
0.3333333333333334
 40
0.3333333333333334
 40
0.3333333333333334
 40
0.3333333333333334
 40
0.388888888888889
 40
0.388888888888889
 40
0.388888888888889
 40
0.388888888888889
 40
0.4444444444444445
 40
0.4444444444444445
 40
0.4444444444444445
 40
0.4444444444444445
 40
0.5000000000000001
 40
0.5000000000000001
 40
0.5000000000000001
 40
0.5000000000000001
 40
0.5555555555555557
 40
0.5555555555555557
 40
0.5555555555555557
 40
0.5555555555555557
 40
0.6111111111111113
 40
0.6111111111111113
 40
0.6111111111111113
 40
0.6111111111111113
 40
0.6666666666666669
 40
0.6666666666666669
 40
0.6666666666666669
 40
0.6666666666666669
 40
0.7222222222222224
 40
0.7222222222222224
 40
0.7222222222222224
 40
0.7222222222222224
 40
0.777777777777778
 40
0.777777777777778
 40
0.777777777777778
 40
0.777777777777778
 40
0.8333333333333336
 40
0.8333333333333336
 40
0.8333333333333336
 40
0.8333333333333336
 40
0.8888888888888892
 40
0.8888888888888892
 40
0.8888888888888892
 40
0.8888888888888892
 40
0.9444444444444448
 40
0.9444444444444448
 40
0.9444444444444448
 40
0.9444444444444448
 40
1.0
 40
1.0
 40
1.0
 40
1.0
 10
-10.65812
 20
-14.09485
 30
0.0
 10
-10.66502
 20
-14.09842
 30
0.0
 10
-10.67222
 20
-14.10112
 30
0.0
 10
-10.67972
 20
-14.10295
 30
0.0
 10
-10.67972
 20
-14.10295
 30
0.0
 10
-10.68719
 20
-14.10478
 30
0.0
 10
-10.69502
 20
-14.10568
 30
0.0
 10
-10.70315
 20
-14.10568
 30
0.0
 10
-10.70315
 20
-14.10568
 30
0.0
 10
-10.72742
 20
-14.10568
 30
0.0
 10
-10.74665
 20
-14.09888
 30
0.0
 10
-10.76085
 20
-14.08532
 30
0.0
 10
-10.76085
 20
-14.08532
 30
0.0
 10
-10.77505
 20
-14.07175
 30
0.0
 10
-10.78215
 20
-14.05335
 30
0.0
 10
-10.78215
 20
-14.03008
 30
0.0
 10
-10.78215
 20
-14.03008
 30
0.0
 10
-10.78215
 20
-14.00678
 30
0.0
 10
-10.77505
 20
-13.98835
 30
0.0
 10
-10.76085
 20
-13.97478
 30
0.0
 10
-10.76085
 20
-13.97478
 30
0.0
 10
-10.74665
 20
-13.96122
 30
0.0
 10
-10.72742
 20
-13.95442
 30
0.0
 10
-10.70315
 20
-13.95442
 30
0.0
 10
-10.70315
 20
-13.95442
 30
0.0
 10
-10.69502
 20
-13.95442
 30
0.0
 10
-10.68719
 20
-13.95532
 30
0.0
 10
-10.67972
 20
-13.95715
 30
0.0
 10
-10.67972
 20
-13.95715
 30
0.0
 10
-10.67222
 20
-13.95898
 30
0.0
 10
-10.66502
 20
-13.96168
 30
0.0
 10
-10.65812
 20
-13.96525
 30
0.0
 10
-10.65812
 20
-13.96525
 30
0.0
 10
-10.65812
 20
-13.96525
 30
0.0
 10
-10.65812
 20
-13.99542
 30
0.0
 10
-10.65812
 20
-13.99542
 30
0.0
 10
-10.65812
 20
-13.99542
 30
0.0
 10
-10.66509
 20
-13.99065
 30
0.0
 10
-10.67195
 20
-13.98718
 30
0.0
 10
-10.67872
 20
-13.98498
 30
0.0
 10
-10.67872
 20
-13.98498
 30
0.0
 10
-10.68549
 20
-13.98275
 30
0.0
 10
-10.69262
 20
-13.98165
 30
0.0
 10
-10.70012
 20
-13.98165
 30
0.0
 10
-10.70012
 20
-13.98165
 30
0.0
 10
-10.71352
 20
-13.98165
 30
0.0
 10
-10.72409
 20
-13.98595
 30
0.0
 10
-10.73175
 20
-13.99455
 30
0.0
 10
-10.73175
 20
-13.99455
 30
0.0
 10
-10.73945
 20
-14.00315
 30
0.0
 10
-10.74329
 20
-14.01498
 30
0.0
 10
-10.74329
 20
-14.03008
 30
0.0
 10
-10.74329
 20
-14.03008
 30
0.0
 10
-10.74329
 20
-14.04515
 30
0.0
 10
-10.73945
 20
-14.05695
 30
0.0
 10
-10.73175
 20
-14.06555
 30
0.0
 10
-10.73175
 20
-14.06555
 30
0.0
 10
-10.72409
 20
-14.07415
 30
0.0
 10
-10.71352
 20
-14.07845
 30
0.0
 10
-10.70012
 20
-14.07845
 30
0.0
 10
-10.70012
 20
-14.07845
 30
0.0
 10
-10.69262
 20
-14.07845
 30
0.0
 10
-10.68549
 20
-14.07735
 30
0.0
 10
-10.67872
 20
-14.07512
 30
0.0
 10
-10.67872
 20
-14.07512
 30
0.0
 10
-10.67195
 20
-14.07292
 30
0.0
 10
-10.66509
 20
-14.06945
 30
0.0
 10
-10.65812
 20
-14.06468
 30
0.0
 10
-10.65812
 20
-14.06468
 30
0.0
 10
-10.65812
 20
-14.06468
 30
0.0
 10
-10.65812
 20
-14.09485
 30
0.0
 10
-10.65812
 20
-14.09485
 30
0.0
  0
SPLINE
  5
68
330
1F
100
AcDbEntity
  8
Layer 1
 62
   250
100
AcDbSpline
210
0.0
220
0.0
230
1.0
 70
    11
 71
     3
 72
    36
 73
    32
 74
     0
 42
0.0000000001
 43
0.0000000001
 40
0.0
 40
0.0
 40
0.0
 40
0.0
 40
0.125
 40
0.125
 40
0.125
 40
0.125
 40
0.25
 40
0.25
 40
0.25
 40
0.25
 40
0.375
 40
0.375
 40
0.375
 40
0.375
 40
0.5
 40
0.5
 40
0.5
 40
0.5
 40
0.625
 40
0.625
 40
0.625
 40
0.625
 40
0.75
 40
0.75
 40
0.75
 40
0.75
 40
0.875
 40
0.875
 40
0.875
 40
0.875
 40
1.0
 40
1.0
 40
1.0
 40
1.0
 10
-10.53852
 20
-14.07632
 30
0.0
 10
-10.53852
 20
-14.07632
 30
0.0
 10
-10.59732
 20
-14.07632
 30
0.0
 10
-10.59732
 20
-14.07632
 30
0.0
 10
-10.59732
 20
-14.07632
 30
0.0
 10
-10.59732
 20
-14.07632
 30
0.0
 10
-10.60658
 20
-14.10285
 30
0.0
 10
-10.60658
 20
-14.10285
 30
0.0
 10
-10.60658
 20
-14.10285
 30
0.0
 10
-10.60658
 20
-14.10285
 30
0.0
 10
-10.64438
 20
-14.10285
 30
0.0
 10
-10.64438
 20
-14.10285
 30
0.0
 10
-10.64438
 20
-14.10285
 30
0.0
 10
-10.64438
 20
-14.10285
 30
0.0
 10
-10.59038
 20
-13.95705
 30
0.0
 10
-10.59038
 20
-13.95705
 30
0.0
 10
-10.59038
 20
-13.95705
 30
0.0
 10
-10.59038
 20
-13.95705
 30
0.0
 10
-10.54555
 20
-13.95705
 30
0.0
 10
-10.54555
 20
-13.95705
 30
0.0
 10
-10.54555
 20
-13.95705
 30
0.0
 10
-10.54555
 20
-13.95705
 30
0.0
 10
-10.49155
 20
-14.10285
 30
0.0
 10
-10.49155
 20
-14.10285
 30
0.0
 10
-10.49155
 20
-14.10285
 30
0.0
 10
-10.49155
 20
-14.10285
 30
0.0
 10
-10.52935
 20
-14.10285
 30
0.0
 10
-10.52935
 20
-14.10285
 30
0.0
 10
-10.52935
 20
-14.10285
 30
0.0
 10
-10.52935
 20
-14.10285
 30
0.0
 10
-10.53852
 20
-14.07632
 30
0.0
 10
-10.53852
 20
-14.07632
 30
0.0
  0
SPLINE
  5
69
330
1F
100
AcDbEntity
  8
Layer 1
 62
   250
100
AcDbSpline
210
0.0
220
0.0
230
1.0
 70
    11
 71
     3
 72
    16
 73
    12
 74
     0
 42
0.0000000001
 43
0.0000000001
 40
0.0
 40
0.0
 40
0.0
 40
0.0
 40
0.3333333333333333
 40
0.3333333333333333
 40
0.3333333333333333
 40
0.3333333333333333
 40
0.6666666666666666
 40
0.6666666666666666
 40
0.6666666666666666
 40
0.6666666666666666
 40
1.0
 40
1.0
 40
1.0
 40
1.0
 10
-10.58795
 20
-14.04925
 30
0.0
 10
-10.58795
 20
-14.04925
 30
0.0
 10
-10.54798
 20
-14.04925
 30
0.0
 10
-10.54798
 20
-14.04925
 30
0.0
 10
-10.54798
 20
-14.04925
 30
0.0
 10
-10.54798
 20
-14.04925
 30
0.0
 10
-10.56792
 20
-13.99125
 30
0.0
 10
-10.56792
 20
-13.99125
 30
0.0
 10
-10.56792
 20
-13.99125
 30
0.0
 10
-10.56792
 20
-13.99125
 30
0.0
 10
-10.58795
 20
-14.04925
 30
0.0
 10
-10.58795
 20
-14.04925
 30
0.0
  0
SPLINE
  5
6A
330
1F
100
AcDbEntity
  8
Layer 1
 62
   250
100
AcDbSpline
210
0.0
220
0.0
230
1.0
 70
    11
 71
     3
 72
    40
 73
    36
 74
     0
 42
0.0000000001
 43
0.0000000001
 40
0.0
 40
0.0
 40
0.0
 40
0.0
 40
0.1111111111111111
 40
0.1111111111111111
 40
0.1111111111111111
 40
0.1111111111111111
 40
0.2222222222222222
 40
0.2222222222222222
 40
0.2222222222222222
 40
0.2222222222222222
 40
0.3333333333333333
 40
0.3333333333333333
 40
0.3333333333333333
 40
0.3333333333333333
 40
0.4444444444444444
 40
0.4444444444444444
 40
0.4444444444444444
 40
0.4444444444444444
 40
0.5555555555555556
 40
0.5555555555555556
 40
0.5555555555555556
 40
0.5555555555555556
 40
0.6666666666666667
 40
0.6666666666666667
 40
0.6666666666666667
 40
0.6666666666666667
 40
0.7777777777777779
 40
0.7777777777777779
 40
0.7777777777777779
 40
0.7777777777777779
 40
0.8888888888888891
 40
0.8888888888888891
 40
0.8888888888888891
 40
0.8888888888888891
 40
1.0
 40
1.0
 40
1.0
 40
1.0
 10
-10.47218
 20
-13.95705
 30
0.0
 10
-10.47218
 20
-13.95705
 30
0.0
 10
-10.40978
 20
-13.95705
 30
0.0
 10
-10.40978
 20
-13.95705
 30
0.0
 10
-10.40978
 20
-13.95705
 30
0.0
 10
-10.39122
 20
-13.95705
 30
0.0
 10
-10.37698
 20
-13.96118
 30
0.0
 10
-10.36705
 20
-13.96942
 30
0.0
 10
-10.36705
 20
-13.96942
 30
0.0
 10
-10.35712
 20
-13.97765
 30
0.0
 10
-10.35215
 20
-13.98938
 30
0.0
 10
-10.35215
 20
-14.00462
 30
0.0
 10
-10.35215
 20
-14.00462
 30
0.0
 10
-10.35215
 20
-14.01988
 30
0.0
 10
-10.35712
 20
-14.03165
 30
0.0
 10
-10.36705
 20
-14.03988
 30
0.0
 10
-10.36705
 20
-14.03988
 30
0.0
 10
-10.37698
 20
-14.04812
 30
0.0
 10
-10.39122
 20
-14.05225
 30
0.0
 10
-10.40978
 20
-14.05225
 30
0.0
 10
-10.40978
 20
-14.05225
 30
0.0
 10
-10.40978
 20
-14.05225
 30
0.0
 10
-10.43458
 20
-14.05225
 30
0.0
 10
-10.43458
 20
-14.05225
 30
0.0
 10
-10.43458
 20
-14.05225
 30
0.0
 10
-10.43458
 20
-14.05225
 30
0.0
 10
-10.43458
 20
-14.10285
 30
0.0
 10
-10.43458
 20
-14.10285
 30
0.0
 10
-10.43458
 20
-14.10285
 30
0.0
 10
-10.43458
 20
-14.10285
 30
0.0
 10
-10.47218
 20
-14.10285
 30
0.0
 10
-10.47218
 20
-14.10285
 30
0.0
 10
-10.47218
 20
-14.10285
 30
0.0
 10
-10.47218
 20
-14.10285
 30
0.0
 10
-10.47218
 20
-13.95705
 30
0.0
 10
-10.47218
 20
-13.95705
 30
0.0
  0
SPLINE
  5
6B
330
1F
100
AcDbEntity
  8
Layer 1
 62
   250
100
AcDbSpline
210
0.0
220
0.0
230
1.0
 70
    11
 71
     3
 72
    32
 73
    28
 74
     0
 42
0.0000000001
 43
0.0000000001
 40
0.0
 40
0.0
 40
0.0
 40
0.0
 40
0.1428571428571428
 40
0.1428571428571428
 40
0.1428571428571428
 40
0.1428571428571428
 40
0.2857142857142857
 40
0.2857142857142857
 40
0.2857142857142857
 40
0.2857142857142857
 40
0.4285714285714285
 40
0.4285714285714285
 40
0.4285714285714285
 40
0.4285714285714285
 40
0.5714285714285714
 40
0.5714285714285714
 40
0.5714285714285714
 40
0.5714285714285714
 40
0.7142857142857142
 40
0.7142857142857142
 40
0.7142857142857142
 40
0.7142857142857142
 40
0.857142857142857
 40
0.857142857142857
 40
0.857142857142857
 40
0.857142857142857
 40
1.0
 40
1.0
 40
1.0
 40
1.0
 10
-10.43458
 20
-13.98428
 30
0.0
 10
-10.43458
 20
-13.98428
 30
0.0
 10
-10.43458
 20
-14.02502
 30
0.0
 10
-10.43458
 20
-14.02502
 30
0.0
 10
-10.43458
 20
-14.02502
 30
0.0
 10
-10.43458
 20
-14.02502
 30
0.0
 10
-10.41378
 20
-14.02502
 30
0.0
 10
-10.41378
 20
-14.02502
 30
0.0
 10
-10.41378
 20
-14.02502
 30
0.0
 10
-10.40648
 20
-14.02502
 30
0.0
 10
-10.40085
 20
-14.02325
 30
0.0
 10
-10.39688
 20
-14.01968
 30
0.0
 10
-10.39688
 20
-14.01968
 30
0.0
 10
-10.39292
 20
-14.01615
 30
0.0
 10
-10.39092
 20
-14.01112
 30
0.0
 10
-10.39092
 20
-14.00462
 30
0.0
 10
-10.39092
 20
-14.00462
 30
0.0
 10
-10.39092
 20
-13.99808
 30
0.0
 10
-10.39292
 20
-13.99308
 30
0.0
 10
-10.39688
 20
-13.98955
 30
0.0
 10
-10.39688
 20
-13.98955
 30
0.0
 10
-10.40085
 20
-13.98605
 30
0.0
 10
-10.40648
 20
-13.98428
 30
0.0
 10
-10.41378
 20
-13.98428
 30
0.0
 10
-10.41378
 20
-13.98428
 30
0.0
 10
-10.41378
 20
-13.98428
 30
0.0
 10
-10.43458
 20
-13.98428
 30
0.0
 10
-10.43458
 20
-13.98428
 30
0.0
  0
SPLINE
  5
6C
330
1F
100
AcDbEntity
  8
Layer 1
 62
   250
100
AcDbSpline
210
0.0
220
0.0
230
1.0
 70
    11
 71
     3
 72
    36
 73
    32
 74
     0
 42
0.0000000001
 43
0.0000000001
 40
0.0
 40
0.0
 40
0.0
 40
0.0
 40
0.125
 40
0.125
 40
0.125
 40
0.125
 40
0.25
 40
0.25
 40
0.25
 40
0.25
 40
0.375
 40
0.375
 40
0.375
 40
0.375
 40
0.5
 40
0.5
 40
0.5
 40
0.5
 40
0.625
 40
0.625
 40
0.625
 40
0.625
 40
0.75
 40
0.75
 40
0.75
 40
0.75
 40
0.875
 40
0.875
 40
0.875
 40
0.875
 40
1.0
 40
1.0
 40
1.0
 40
1.0
 10
-10.23715
 20
-14.07632
 30
0.0
 10
-10.23715
 20
-14.07632
 30
0.0
 10
-10.29595
 20
-14.07632
 30
0.0
 10
-10.29595
 20
-14.07632
 30
0.0
 10
-10.29595
 20
-14.07632
 30
0.0
 10
-10.29595
 20
-14.07632
 30
0.0
 10
-10.30521
 20
-14.10285
 30
0.0
 10
-10.30521
 20
-14.10285
 30
0.0
 10
-10.30521
 20
-14.10285
 30
0.0
 10
-10.30521
 20
-14.10285
 30
0.0
 10
-10.34301
 20
-14.10285
 30
0.0
 10
-10.34301
 20
-14.10285
 30
0.0
 10
-10.34301
 20
-14.10285
 30
0.0
 10
-10.34301
 20
-14.10285
 30
0.0
 10
-10.28901
 20
-13.95705
 30
0.0
 10
-10.28901
 20
-13.95705
 30
0.0
 10
-10.28901
 20
-13.95705
 30
0.0
 10
-10.28901
 20
-13.95705
 30
0.0
 10
-10.24418
 20
-13.95705
 30
0.0
 10
-10.24418
 20
-13.95705
 30
0.0
 10
-10.24418
 20
-13.95705
 30
0.0
 10
-10.24418
 20
-13.95705
 30
0.0
 10
-10.19018
 20
-14.10285
 30
0.0
 10
-10.19018
 20
-14.10285
 30
0.0
 10
-10.19018
 20
-14.10285
 30
0.0
 10
-10.19018
 20
-14.10285
 30
0.0
 10
-10.22798
 20
-14.10285
 30
0.0
 10
-10.22798
 20
-14.10285
 30
0.0
 10
-10.22798
 20
-14.10285
 30
0.0
 10
-10.22798
 20
-14.10285
 30
0.0
 10
-10.23715
 20
-14.07632
 30
0.0
 10
-10.23715
 20
-14.07632
 30
0.0
  0
SPLINE
  5
6D
330
1F
100
AcDbEntity
  8
Layer 1
 62
   250
100
AcDbSpline
210
0.0
220
0.0
230
1.0
 70
    11
 71
     3
 72
    16
 73
    12
 74
     0
 42
0.0000000001
 43
0.0000000001
 40
0.0
 40
0.0
 40
0.0
 40
0.0
 40
0.3333333333333333
 40
0.3333333333333333
 40
0.3333333333333333
 40
0.3333333333333333
 40
0.6666666666666666
 40
0.6666666666666666
 40
0.6666666666666666
 40
0.6666666666666666
 40
1.0
 40
1.0
 40
1.0
 40
1.0
 10
-10.28658
 20
-14.04925
 30
0.0
 10
-10.28658
 20
-14.04925
 30
0.0
 10
-10.24661
 20
-14.04925
 30
0.0
 10
-10.24661
 20
-14.04925
 30
0.0
 10
-10.24661
 20
-14.04925
 30
0.0
 10
-10.24661
 20
-14.04925
 30
0.0
 10
-10.26655
 20
-13.99125
 30
0.0
 10
-10.26655
 20
-13.99125
 30
0.0
 10
-10.26655
 20
-13.99125
 30
0.0
 10
-10.26655
 20
-13.99125
 30
0.0
 10
-10.28658
 20
-14.04925
 30
0.0
 10
-10.28658
 20
-14.04925
 30
0.0
  0
SPLINE
  5
6E
330
1F
100
AcDbEntity
  8
Layer 1
 62
   250
100
AcDbSpline
210
0.0
220
0.0
230
1.0
 70
    11
 71
     3
 72
    76
 73
    72
 74
     0
 42
0.0000000001
 43
0.0000000001
 40
0.0
 40
0.0
 40
0.0
 40
0.0
 40
0.0555555555555556
 40
0.0555555555555556
 40
0.0555555555555556
 40
0.0555555555555556
 40
0.1111111111111111
 40
0.1111111111111111
 40
0.1111111111111111
 40
0.1111111111111111
 40
0.1666666666666667
 40
0.1666666666666667
 40
0.1666666666666667
 40
0.1666666666666667
 40
0.2222222222222222
 40
0.2222222222222222
 40
0.2222222222222222
 40
0.2222222222222222
 40
0.2777777777777778
 40
0.2777777777777778
 40
0.2777777777777778
 40
0.2777777777777778
 40
0.3333333333333334
 40
0.3333333333333334
 40
0.3333333333333334
 40
0.3333333333333334
 40
0.388888888888889
 40
0.388888888888889
 40
0.388888888888889
 40
0.388888888888889
 40
0.4444444444444445
 40
0.4444444444444445
 40
0.4444444444444445
 40
0.4444444444444445
 40
0.5000000000000001
 40
0.5000000000000001
 40
0.5000000000000001
 40
0.5000000000000001
 40
0.5555555555555557
 40
0.5555555555555557
 40
0.5555555555555557
 40
0.5555555555555557
 40
0.6111111111111113
 40
0.6111111111111113
 40
0.6111111111111113
 40
0.6111111111111113
 40
0.6666666666666669
 40
0.6666666666666669
 40
0.6666666666666669
 40
0.6666666666666669
 40
0.7222222222222224
 40
0.7222222222222224
 40
0.7222222222222224
 40
0.7222222222222224
 40
0.777777777777778
 40
0.777777777777778
 40
0.777777777777778
 40
0.777777777777778
 40
0.8333333333333336
 40
0.8333333333333336
 40
0.8333333333333336
 40
0.8333333333333336
 40
0.8888888888888892
 40
0.8888888888888892
 40
0.8888888888888892
 40
0.8888888888888892
 40
0.9444444444444448
 40
0.9444444444444448
 40
0.9444444444444448
 40
0.9444444444444448
 40
1.0
 40
1.0
 40
1.0
 40
1.0
 10
-10.05518
 20
-14.09485
 30
0.0
 10
-10.06208
 20
-14.09842
 30
0.0
 10
-10.06928
 20
-14.10112
 30
0.0
 10
-10.07678
 20
-14.10295
 30
0.0
 10
-10.07678
 20
-14.10295
 30
0.0
 10
-10.08425
 20
-14.10478
 30
0.0
 10
-10.09208
 20
-14.10568
 30
0.0
 10
-10.10021
 20
-14.10568
 30
0.0
 10
-10.10021
 20
-14.10568
 30
0.0
 10
-10.12448
 20
-14.10568
 30
0.0
 10
-10.14371
 20
-14.09888
 30
0.0
 10
-10.15791
 20
-14.08532
 30
0.0
 10
-10.15791
 20
-14.08532
 30
0.0
 10
-10.17211
 20
-14.07175
 30
0.0
 10
-10.17921
 20
-14.05335
 30
0.0
 10
-10.17921
 20
-14.03008
 30
0.0
 10
-10.17921
 20
-14.03008
 30
0.0
 10
-10.17921
 20
-14.00678
 30
0.0
 10
-10.17211
 20
-13.98835
 30
0.0
 10
-10.15791
 20
-13.97478
 30
0.0
 10
-10.15791
 20
-13.97478
 30
0.0
 10
-10.14371
 20
-13.96122
 30
0.0
 10
-10.12448
 20
-13.95442
 30
0.0
 10
-10.10021
 20
-13.95442
 30
0.0
 10
-10.10021
 20
-13.95442
 30
0.0
 10
-10.09208
 20
-13.95442
 30
0.0
 10
-10.08425
 20
-13.95532
 30
0.0
 10
-10.07678
 20
-13.95715
 30
0.0
 10
-10.07678
 20
-13.95715
 30
0.0
 10
-10.06928
 20
-13.95898
 30
0.0
 10
-10.06208
 20
-13.96168
 30
0.0
 10
-10.05518
 20
-13.96525
 30
0.0
 10
-10.05518
 20
-13.96525
 30
0.0
 10
-10.05518
 20
-13.96525
 30
0.0
 10
-10.05518
 20
-13.99542
 30
0.0
 10
-10.05518
 20
-13.99542
 30
0.0
 10
-10.05518
 20
-13.99542
 30
0.0
 10
-10.06215
 20
-13.99065
 30
0.0
 10
-10.06901
 20
-13.98718
 30
0.0
 10
-10.07578
 20
-13.98498
 30
0.0
 10
-10.07578
 20
-13.98498
 30
0.0
 10
-10.08255
 20
-13.98275
 30
0.0
 10
-10.08968
 20
-13.98165
 30
0.0
 10
-10.09718
 20
-13.98165
 30
0.0
 10
-10.09718
 20
-13.98165
 30
0.0
 10
-10.11058
 20
-13.98165
 30
0.0
 10
-10.12115
 20
-13.98595
 30
0.0
 10
-10.12881
 20
-13.99455
 30
0.0
 10
-10.12881
 20
-13.99455
 30
0.0
 10
-10.13651
 20
-14.00315
 30
0.0
 10
-10.14035
 20
-14.01498
 30
0.0
 10
-10.14035
 20
-14.03008
 30
0.0
 10
-10.14035
 20
-14.03008
 30
0.0
 10
-10.14035
 20
-14.04515
 30
0.0
 10
-10.13651
 20
-14.05695
 30
0.0
 10
-10.12881
 20
-14.06555
 30
0.0
 10
-10.12881
 20
-14.06555
 30
0.0
 10
-10.12115
 20
-14.07415
 30
0.0
 10
-10.11058
 20
-14.07845
 30
0.0
 10
-10.09718
 20
-14.07845
 30
0.0
 10
-10.09718
 20
-14.07845
 30
0.0
 10
-10.08968
 20
-14.07845
 30
0.0
 10
-10.08255
 20
-14.07735
 30
0.0
 10
-10.07578
 20
-14.07512
 30
0.0
 10
-10.07578
 20
-14.07512
 30
0.0
 10
-10.06901
 20
-14.07292
 30
0.0
 10
-10.06215
 20
-14.06945
 30
0.0
 10
-10.05518
 20
-14.06468
 30
0.0
 10
-10.05518
 20
-14.06468
 30
0.0
 10
-10.05518
 20
-14.06468
 30
0.0
 10
-10.05518
 20
-14.09485
 30
0.0
 10
-10.05518
 20
-14.09485
 30
0.0
  0
SPLINE
  5
6F
330
1F
100
AcDbEntity
  8
Layer 1
 62
   250
100
AcDbSpline
210
0.0
220
0.0
230
1.0
 70
    11
 71
     3
 72
    20
 73
    16
 74
     0
 42
0.0000000001
 43
0.0000000001
 40
0.0
 40
0.0
 40
0.0
 40
0.0
 40
0.25
 40
0.25
 40
0.25
 40
0.25
 40
0.5
 40
0.5
 40
0.5
 40
0.5
 40
0.75
 40
0.75
 40
0.75
 40
0.75
 40
1.0
 40
1.0
 40
1.0
 40
1.0
 10
-10.02404
 20
-13.95705
 30
0.0
 10
-10.02404
 20
-13.95705
 30
0.0
 10
-9.98644
 20
-13.95705
 30
0.0
 10
-9.98644
 20
-13.95705
 30
0.0
 10
-9.98644
 20
-13.95705
 30
0.0
 10
-9.98644
 20
-13.95705
 30
0.0
 10
-9.98644
 20
-14.10285
 30
0.0
 10
-9.98644
 20
-14.10285
 30
0.0
 10
-9.98644
 20
-14.10285
 30
0.0
 10
-9.98644
 20
-14.10285
 30
0.0
 10
-10.02404
 20
-14.10285
 30
0.0
 10
-10.02404
 20
-14.10285
 30
0.0
 10
-10.02404
 20
-14.10285
 30
0.0
 10
-10.02404
 20
-14.10285
 30
0.0
 10
-10.02404
 20
-13.95705
 30
0.0
 10
-10.02404
 20
-13.95705
 30
0.0
  0
SPLINE
  5
70
330
1F
100
AcDbEntity
  8
Layer 1
 62
   250
100
AcDbSpline
210
0.0
220
0.0
230
1.0
 70
    11
 71
     3
 72
    36
 73
    32
 74
     0
 42
0.0000000001
 43
0.0000000001
 40
0.0
 40
0.0
 40
0.0
 40
0.0
 40
0.125
 40
0.125
 40
0.125
 40
0.125
 40
0.25
 40
0.25
 40
0.25
 40
0.25
 40
0.375
 40
0.375
 40
0.375
 40
0.375
 40
0.5
 40
0.5
 40
0.5
 40
0.5
 40
0.625
 40
0.625
 40
0.625
 40
0.625
 40
0.75
 40
0.75
 40
0.75
 40
0.75
 40
0.875
 40
0.875
 40
0.875
 40
0.875
 40
1.0
 40
1.0
 40
1.0
 40
1.0
 10
-9.96704
 20
-13.95705
 30
0.0
 10
-9.96704
 20
-13.95705
 30
0.0
 10
-9.83268
 20
-13.95705
 30
0.0
 10
-9.83268
 20
-13.95705
 30
0.0
 10
-9.83268
 20
-13.95705
 30
0.0
 10
-9.83268
 20
-13.95705
 30
0.0
 10
-9.83268
 20
-13.98548
 30
0.0
 10
-9.83268
 20
-13.98548
 30
0.0
 10
-9.83268
 20
-13.98548
 30
0.0
 10
-9.83268
 20
-13.98548
 30
0.0
 10
-9.88101
 20
-13.98548
 30
0.0
 10
-9.88101
 20
-13.98548
 30
0.0
 10
-9.88101
 20
-13.98548
 30
0.0
 10
-9.88101
 20
-13.98548
 30
0.0
 10
-9.88101
 20
-14.10285
 30
0.0
 10
-9.88101
 20
-14.10285
 30
0.0
 10
-9.88101
 20
-14.10285
 30
0.0
 10
-9.88101
 20
-14.10285
 30
0.0
 10
-9.91861
 20
-14.10285
 30
0.0
 10
-9.91861
 20
-14.10285
 30
0.0
 10
-9.91861
 20
-14.10285
 30
0.0
 10
-9.91861
 20
-14.10285
 30
0.0
 10
-9.91861
 20
-13.98548
 30
0.0
 10
-9.91861
 20
-13.98548
 30
0.0
 10
-9.91861
 20
-13.98548
 30
0.0
 10
-9.91861
 20
-13.98548
 30
0.0
 10
-9.96704
 20
-13.98548
 30
0.0
 10
-9.96704
 20
-13.98548
 30
0.0
 10
-9.96704
 20
-13.98548
 30
0.0
 10
-9.96704
 20
-13.98548
 30
0.0
 10
-9.96704
 20
-13.95705
 30
0.0
 10
-9.96704
 20
-13.95705
 30
0.0
  0
SPLINE
  5
71
330
1F
100
AcDbEntity
  8
Layer 1
 62
   250
100
AcDbSpline
210
0.0
220
0.0
230
1.0
 70
    11
 71
     3
 72
    36
 73
    32
 74
     0
 42
0.0000000001
 43
0.0000000001
 40
0.0
 40
0.0
 40
0.0
 40
0.0
 40
0.125
 40
0.125
 40
0.125
 40
0.125
 40
0.25
 40
0.25
 40
0.25
 40
0.25
 40
0.375
 40
0.375
 40
0.375
 40
0.375
 40
0.5
 40
0.5
 40
0.5
 40
0.5
 40
0.625
 40
0.625
 40
0.625
 40
0.625
 40
0.75
 40
0.75
 40
0.75
 40
0.75
 40
0.875
 40
0.875
 40
0.875
 40
0.875
 40
1.0
 40
1.0
 40
1.0
 40
1.0
 10
-9.74661
 20
-13.98165
 30
0.0
 10
-9.75808
 20
-13.98165
 30
0.0
 10
-9.76695
 20
-13.98588
 30
0.0
 10
-9.77328
 20
-13.99435
 30
0.0
 10
-9.77328
 20
-13.99435
 30
0.0
 10
-9.77958
 20
-14.00282
 30
0.0
 10
-9.78275
 20
-14.01472
 30
0.0
 10
-9.78275
 20
-14.03008
 30
0.0
 10
-9.78275
 20
-14.03008
 30
0.0
 10
-9.78275
 20
-14.04542
 30
0.0
 10
-9.77958
 20
-14.05728
 30
0.0
 10
-9.77328
 20
-14.06575
 30
0.0
 10
-9.77328
 20
-14.06575
 30
0.0
 10
-9.76695
 20
-14.07422
 30
0.0
 10
-9.75808
 20
-14.07845
 30
0.0
 10
-9.74661
 20
-14.07845
 30
0.0
 10
-9.74661
 20
-14.07845
 30
0.0
 10
-9.73508
 20
-14.07845
 30
0.0
 10
-9.72618
 20
-14.07422
 30
0.0
 10
-9.71985
 20
-14.06575
 30
0.0
 10
-9.71985
 20
-14.06575
 30
0.0
 10
-9.71355
 20
-14.05728
 30
0.0
 10
-9.71038
 20
-14.04542
 30
0.0
 10
-9.71038
 20
-14.03008
 30
0.0
 10
-9.71038
 20
-14.03008
 30
0.0
 10
-9.71038
 20
-14.01472
 30
0.0
 10
-9.71355
 20
-14.00282
 30
0.0
 10
-9.71985
 20
-13.99435
 30
0.0
 10
-9.71985
 20
-13.99435
 30
0.0
 10
-9.72618
 20
-13.98588
 30
0.0
 10
-9.73508
 20
-13.98165
 30
0.0
 10
-9.74661
 20
-13.98165
 30
0.0
  0
SPLINE
  5
72
330
1F
100
AcDbEntity
  8
Layer 1
 62
   250
100
AcDbSpline
210
0.0
220
0.0
230
1.0
 70
    11
 71
     3
 72
    36
 73
    32
 74
     0
 42
0.0000000001
 43
0.0000000001
 40
0.0
 40
0.0
 40
0.0
 40
0.0
 40
0.125
 40
0.125
 40
0.125
 40
0.125
 40
0.25
 40
0.25
 40
0.25
 40
0.25
 40
0.375
 40
0.375
 40
0.375
 40
0.375
 40
0.5
 40
0.5
 40
0.5
 40
0.5
 40
0.625
 40
0.625
 40
0.625
 40
0.625
 40
0.75
 40
0.75
 40
0.75
 40
0.75
 40
0.875
 40
0.875
 40
0.875
 40
0.875
 40
1.0
 40
1.0
 40
1.0
 40
1.0
 10
-9.74661
 20
-13.95442
 30
0.0
 10
-9.72318
 20
-13.95442
 30
0.0
 10
-9.70481
 20
-13.96112
 30
0.0
 10
-9.69155
 20
-13.97455
 30
0.0
 10
-9.69155
 20
-13.97455
 30
0.0
 10
-9.67825
 20
-13.98795
 30
0.0
 10
-9.67161
 20
-14.00645
 30
0.0
 10
-9.67161
 20
-14.03008
 30
0.0
 10
-9.67161
 20
-14.03008
 30
0.0
 10
-9.67161
 20
-14.05365
 30
0.0
 10
-9.67825
 20
-14.07215
 30
0.0
 10
-9.69155
 20
-14.08555
 30
0.0
 10
-9.69155
 20
-14.08555
 30
0.0
 10
-9.70481
 20
-14.09898
 30
0.0
 10
-9.72318
 20
-14.10568
 30
0.0
 10
-9.74661
 20
-14.10568
 30
0.0
 10
-9.74661
 20
-14.10568
 30
0.0
 10
-9.76998
 20
-14.10568
 30
0.0
 10
-9.78831
 20
-14.09898
 30
0.0
 10
-9.80165
 20
-14.08555
 30
0.0
 10
-9.80165
 20
-14.08555
 30
0.0
 10
-9.81495
 20
-14.07215
 30
0.0
 10
-9.82161
 20
-14.05365
 30
0.0
 10
-9.82161
 20
-14.03008
 30
0.0
 10
-9.82161
 20
-14.03008
 30
0.0
 10
-9.82161
 20
-14.00645
 30
0.0
 10
-9.81495
 20
-13.98795
 30
0.0
 10
-9.80165
 20
-13.97455
 30
0.0
 10
-9.80165
 20
-13.97455
 30
0.0
 10
-9.78831
 20
-13.96112
 30
0.0
 10
-9.76998
 20
-13.95442
 30
0.0
 10
-9.74661
 20
-13.95442
 30
0.0
  0
SPLINE
  5
73
330
1F
100
AcDbEntity
  8
Layer 1
 62
   250
100
AcDbSpline
210
0.0
220
0.0
230
1.0
 70
    11
 71
     3
 72
    32
 73
    28
 74
     0
 42
0.0000000001
 43
0.0000000001
 40
0.0
 40
0.0
 40
0.0
 40
0.0
 40
0.1428571428571428
 40
0.1428571428571428
 40
0.1428571428571428
 40
0.1428571428571428
 40
0.2857142857142857
 40
0.2857142857142857
 40
0.2857142857142857
 40
0.2857142857142857
 40
0.4285714285714285
 40
0.4285714285714285
 40
0.4285714285714285
 40
0.4285714285714285
 40
0.5714285714285714
 40
0.5714285714285714
 40
0.5714285714285714
 40
0.5714285714285714
 40
0.7142857142857142
 40
0.7142857142857142
 40
0.7142857142857142
 40
0.7142857142857142
 40
0.857142857142857
 40
0.857142857142857
 40
0.857142857142857
 40
0.857142857142857
 40
1.0
 40
1.0
 40
1.0
 40
1.0
 10
-9.58975
 20
-14.02172
 30
0.0
 10
-9.58188
 20
-14.02172
 30
0.0
 10
-9.57622
 20
-14.02025
 30
0.0
 10
-9.57282
 20
-14.01732
 30
0.0
 10
-9.57282
 20
-14.01732
 30
0.0
 10
-9.56938
 20
-14.01438
 30
0.0
 10
-9.56768
 20
-14.00955
 30
0.0
 10
-9.56768
 20
-14.00285
 30
0.0
 10
-9.56768
 20
-14.00285
 30
0.0
 10
-9.56768
 20
-13.99622
 30
0.0
 10
-9.56938
 20
-13.99145
 30
0.0
 10
-9.57282
 20
-13.98858
 30
0.0
 10
-9.57282
 20
-13.98858
 30
0.0
 10
-9.57622
 20
-13.98572
 30
0.0
 10
-9.58188
 20
-13.98428
 30
0.0
 10
-9.58975
 20
-13.98428
 30
0.0
 10
-9.58975
 20
-13.98428
 30
0.0
 10
-9.58975
 20
-13.98428
 30
0.0
 10
-9.60558
 20
-13.98428
 30
0.0
 10
-9.60558
 20
-13.98428
 30
0.0
 10
-9.60558
 20
-13.98428
 30
0.0
 10
-9.60558
 20
-13.98428
 30
0.0
 10
-9.60558
 20
-14.02172
 30
0.0
 10
-9.60558
 20
-14.02172
 30
0.0
 10
-9.60558
 20
-14.02172
 30
0.0
 10
-9.60558
 20
-14.02172
 30
0.0
 10
-9.58975
 20
-14.02172
 30
0.0
 10
-9.58975
 20
-14.02172
 30
0.0
  0
SPLINE
  5
74
330
1F
100
AcDbEntity
  8
Layer 1
 62
   250
100
AcDbSpline
210
0.0
220
0.0
230
1.0
 70
    11
 71
     3
 72
    68
 73
    64
 74
     0
 42
0.0000000001
 43
0.0000000001
 40
0.0
 40
0.0
 40
0.0
 40
0.0
 40
0.0625
 40
0.0625
 40
0.0625
 40
0.0625
 40
0.125
 40
0.125
 40
0.125
 40
0.125
 40
0.1875
 40
0.1875
 40
0.1875
 40
0.1875
 40
0.25
 40
0.25
 40
0.25
 40
0.25
 40
0.3125
 40
0.3125
 40
0.3125
 40
0.3125
 40
0.375
 40
0.375
 40
0.375
 40
0.375
 40
0.4375
 40
0.4375
 40
0.4375
 40
0.4375
 40
0.5
 40
0.5
 40
0.5
 40
0.5
 40
0.5625
 40
0.5625
 40
0.5625
 40
0.5625
 40
0.625
 40
0.625
 40
0.625
 40
0.625
 40
0.6875
 40
0.6875
 40
0.6875
 40
0.6875
 40
0.75
 40
0.75
 40
0.75
 40
0.75
 40
0.8125
 40
0.8125
 40
0.8125
 40
0.8125
 40
0.875
 40
0.875
 40
0.875
 40
0.875
 40
0.9375
 40
0.9375
 40
0.9375
 40
0.9375
 40
1.0
 40
1.0
 40
1.0
 40
1.0
 10
-9.60558
 20
-14.04768
 30
0.0
 10
-9.60558
 20
-14.04768
 30
0.0
 10
-9.60558
 20
-14.10285
 30
0.0
 10
-9.60558
 20
-14.10285
 30
0.0
 10
-9.60558
 20
-14.10285
 30
0.0
 10
-9.60558
 20
-14.10285
 30
0.0
 10
-9.64318
 20
-14.10285
 30
0.0
 10
-9.64318
 20
-14.10285
 30
0.0
 10
-9.64318
 20
-14.10285
 30
0.0
 10
-9.64318
 20
-14.10285
 30
0.0
 10
-9.64318
 20
-13.95705
 30
0.0
 10
-9.64318
 20
-13.95705
 30
0.0
 10
-9.64318
 20
-13.95705
 30
0.0
 10
-9.64318
 20
-13.95705
 30
0.0
 10
-9.58575
 20
-13.95705
 30
0.0
 10
-9.58575
 20
-13.95705
 30
0.0
 10
-9.58575
 20
-13.95705
 30
0.0
 10
-9.56655
 20
-13.95705
 30
0.0
 10
-9.55245
 20
-13.96028
 30
0.0
 10
-9.54352
 20
-13.96672
 30
0.0
 10
-9.54352
 20
-13.96672
 30
0.0
 10
-9.53455
 20
-13.97315
 30
0.0
 10
-9.53008
 20
-13.98335
 30
0.0
 10
-9.53008
 20
-13.99728
 30
0.0
 10
-9.53008
 20
-13.99728
 30
0.0
 10
-9.53008
 20
-14.00692
 30
0.0
 10
-9.53242
 20
-14.01485
 30
0.0
 10
-9.53705
 20
-14.02102
 30
0.0
 10
-9.53705
 20
-14.02102
 30
0.0
 10
-9.54172
 20
-14.02722
 30
0.0
 10
-9.54875
 20
-14.03178
 30
0.0
 10
-9.55812
 20
-14.03468
 30
0.0
 10
-9.55812
 20
-14.03468
 30
0.0
 10
-9.55298
 20
-14.03588
 30
0.0
 10
-9.54835
 20
-14.03852
 30
0.0
 10
-9.54428
 20
-14.04265
 30
0.0
 10
-9.54428
 20
-14.04265
 30
0.0
 10
-9.54022
 20
-14.04678
 30
0.0
 10
-9.53612
 20
-14.05305
 30
0.0
 10
-9.53195
 20
-14.06145
 30
0.0
 10
-9.53195
 20
-14.06145
 30
0.0
 10
-9.53195
 20
-14.06145
 30
0.0
 10
-9.51152
 20
-14.10285
 30
0.0
 10
-9.51152
 20
-14.10285
 30
0.0
 10
-9.51152
 20
-14.10285
 30
0.0
 10
-9.51152
 20
-14.10285
 30
0.0
 10
-9.55158
 20
-14.10285
 30
0.0
 10
-9.55158
 20
-14.10285
 30
0.0
 10
-9.55158
 20
-14.10285
 30
0.0
 10
-9.55158
 20
-14.10285
 30
0.0
 10
-9.56935
 20
-14.06662
 30
0.0
 10
-9.56935
 20
-14.06662
 30
0.0
 10
-9.56935
 20
-14.06662
 30
0.0
 10
-9.57292
 20
-14.05935
 30
0.0
 10
-9.57655
 20
-14.05435
 30
0.0
 10
-9.58025
 20
-14.05168
 30
0.0
 10
-9.58025
 20
-14.05168
 30
0.0
 10
-9.58392
 20
-14.04902
 30
0.0
 10
-9.58882
 20
-14.04768
 30
0.0
 10
-9.59495
 20
-14.04768
 30
0.0
 10
-9.59495
 20
-14.04768
 30
0.0
 10
-9.59495
 20
-14.04768
 30
0.0
 10
-9.60558
 20
-14.04768
 30
0.0
 10
-9.60558
 20
-14.04768
 30
0.0
  0
SPLINE
  5
75
330
1F
100
AcDbEntity
  8
Layer 1
 62
   250
100
AcDbSpline
210
0.0
220
0.0
230
1.0
 70
    11
 71
     3
 72
    44
 73
    40
 74
     0
 42
0.0000000001
 43
0.0000000001
 40
0.0
 40
0.0
 40
0.0
 40
0.0
 40
0.1
 40
0.1
 40
0.1
 40
0.1
 40
0.2
 40
0.2
 40
0.2
 40
0.2
 40
0.3
 40
0.3
 40
0.3
 40
0.3
 40
0.4
 40
0.4
 40
0.4
 40
0.4
 40
0.5
 40
0.5
 40
0.5
 40
0.5
 40
0.6
 40
0.6
 40
0.6
 40
0.6
 40
0.7
 40
0.7
 40
0.7
 40
0.7
 40
0.7999999999999999
 40
0.7999999999999999
 40
0.7999999999999999
 40
0.7999999999999999
 40
0.8999999999999999
 40
0.8999999999999999
 40
0.8999999999999999
 40
0.8999999999999999
 40
1.0
 40
1.0
 40
1.0
 40
1.0
 10
-11.02073
 20
-14.36202
 30
0.0
 10
-11.02073
 20
-14.36202
 30
0.0
 10
-11.04973
 20
-14.36202
 30
0.0
 10
-11.04973
 20
-14.36202
 30
0.0
 10
-11.04973
 20
-14.36202
 30
0.0
 10
-11.0597
 20
-14.34595
 30
0.0
 10
-11.06706
 20
-14.33065
 30
0.0
 10
-11.0718
 20
-14.31615
 30
0.0
 10
-11.0718
 20
-14.31615
 30
0.0
 10
-11.07656
 20
-14.30168
 30
0.0
 10
-11.07893
 20
-14.28732
 30
0.0
 10
-11.07893
 20
-14.27305
 30
0.0
 10
-11.07893
 20
-14.27305
 30
0.0
 10
-11.07893
 20
-14.25878
 30
0.0
 10
-11.07653
 20
-14.24435
 30
0.0
 10
-11.07176
 20
-14.22975
 30
0.0
 10
-11.07176
 20
-14.22975
 30
0.0
 10
-11.06696
 20
-14.21512
 30
0.0
 10
-11.05963
 20
-14.19985
 30
0.0
 10
-11.04973
 20
-14.18388
 30
0.0
 10
-11.04973
 20
-14.18388
 30
0.0
 10
-11.04973
 20
-14.18388
 30
0.0
 10
-11.02073
 20
-14.18388
 30
0.0
 10
-11.02073
 20
-14.18388
 30
0.0
 10
-11.02073
 20
-14.18388
 30
0.0
 10
-11.02906
 20
-14.19932
 30
0.0
 10
-11.0353
 20
-14.21442
 30
0.0
 10
-11.03946
 20
-14.22915
 30
0.0
 10
-11.03946
 20
-14.22915
 30
0.0
 10
-11.04363
 20
-14.24388
 30
0.0
 10
-11.04573
 20
-14.25845
 30
0.0
 10
-11.04573
 20
-14.27285
 30
0.0
 10
-11.04573
 20
-14.27285
 30
0.0
 10
-11.04573
 20
-14.28725
 30
0.0
 10
-11.04366
 20
-14.30182
 30
0.0
 10
-11.03953
 20
-14.31662
 30
0.0
 10
-11.03953
 20
-14.31662
 30
0.0
 10
-11.0354
 20
-14.33138
 30
0.0
 10
-11.02913
 20
-14.34652
 30
0.0
 10
-11.02073
 20
-14.36202
 30
0.0
  0
SPLINE
  5
76
330
1F
100
AcDbEntity
  8
Layer 1
 62
   250
100
AcDbSpline
210
0.0
220
0.0
230
1.0
 70
    11
 71
     3
 72
    76
 73
    72
 74
     0
 42
0.0000000001
 43
0.0000000001
 40
0.0
 40
0.0
 40
0.0
 40
0.0
 40
0.0555555555555556
 40
0.0555555555555556
 40
0.0555555555555556
 40
0.0555555555555556
 40
0.1111111111111111
 40
0.1111111111111111
 40
0.1111111111111111
 40
0.1111111111111111
 40
0.1666666666666667
 40
0.1666666666666667
 40
0.1666666666666667
 40
0.1666666666666667
 40
0.2222222222222222
 40
0.2222222222222222
 40
0.2222222222222222
 40
0.2222222222222222
 40
0.2777777777777778
 40
0.2777777777777778
 40
0.2777777777777778
 40
0.2777777777777778
 40
0.3333333333333334
 40
0.3333333333333334
 40
0.3333333333333334
 40
0.3333333333333334
 40
0.388888888888889
 40
0.388888888888889
 40
0.388888888888889
 40
0.388888888888889
 40
0.4444444444444445
 40
0.4444444444444445
 40
0.4444444444444445
 40
0.4444444444444445
 40
0.5000000000000001
 40
0.5000000000000001
 40
0.5000000000000001
 40
0.5000000000000001
 40
0.5555555555555557
 40
0.5555555555555557
 40
0.5555555555555557
 40
0.5555555555555557
 40
0.6111111111111113
 40
0.6111111111111113
 40
0.6111111111111113
 40
0.6111111111111113
 40
0.6666666666666669
 40
0.6666666666666669
 40
0.6666666666666669
 40
0.6666666666666669
 40
0.7222222222222224
 40
0.7222222222222224
 40
0.7222222222222224
 40
0.7222222222222224
 40
0.777777777777778
 40
0.777777777777778
 40
0.777777777777778
 40
0.777777777777778
 40
0.8333333333333336
 40
0.8333333333333336
 40
0.8333333333333336
 40
0.8333333333333336
 40
0.8888888888888892
 40
0.8888888888888892
 40
0.8888888888888892
 40
0.8888888888888892
 40
0.9444444444444448
 40
0.9444444444444448
 40
0.9444444444444448
 40
0.9444444444444448
 40
1.0
 40
1.0
 40
1.0
 40
1.0
 10
-10.87073
 20
-14.32765
 30
0.0
 10
-10.87763
 20
-14.33122
 30
0.0
 10
-10.88483
 20
-14.33392
 30
0.0
 10
-10.89233
 20
-14.33575
 30
0.0
 10
-10.89233
 20
-14.33575
 30
0.0
 10
-10.8998
 20
-14.33758
 30
0.0
 10
-10.90763
 20
-14.33848
 30
0.0
 10
-10.91576
 20
-14.33848
 30
0.0
 10
-10.91576
 20
-14.33848
 30
0.0
 10
-10.94003
 20
-14.33848
 30
0.0
 10
-10.95926
 20
-14.33168
 30
0.0
 10
-10.97346
 20
-14.31812
 30
0.0
 10
-10.97346
 20
-14.31812
 30
0.0
 10
-10.98766
 20
-14.30455
 30
0.0
 10
-10.99476
 20
-14.28615
 30
0.0
 10
-10.99476
 20
-14.26288
 30
0.0
 10
-10.99476
 20
-14.26288
 30
0.0
 10
-10.99476
 20
-14.23958
 30
0.0
 10
-10.98766
 20
-14.22115
 30
0.0
 10
-10.97346
 20
-14.20758
 30
0.0
 10
-10.97346
 20
-14.20758
 30
0.0
 10
-10.95926
 20
-14.19402
 30
0.0
 10
-10.94003
 20
-14.18722
 30
0.0
 10
-10.91576
 20
-14.18722
 30
0.0
 10
-10.91576
 20
-14.18722
 30
0.0
 10
-10.90763
 20
-14.18722
 30
0.0
 10
-10.8998
 20
-14.18812
 30
0.0
 10
-10.89233
 20
-14.18995
 30
0.0
 10
-10.89233
 20
-14.18995
 30
0.0
 10
-10.88483
 20
-14.19178
 30
0.0
 10
-10.87763
 20
-14.19448
 30
0.0
 10
-10.87073
 20
-14.19805
 30
0.0
 10
-10.87073
 20
-14.19805
 30
0.0
 10
-10.87073
 20
-14.19805
 30
0.0
 10
-10.87073
 20
-14.22822
 30
0.0
 10
-10.87073
 20
-14.22822
 30
0.0
 10
-10.87073
 20
-14.22822
 30
0.0
 10
-10.8777
 20
-14.22345
 30
0.0
 10
-10.88456
 20
-14.21998
 30
0.0
 10
-10.89133
 20
-14.21778
 30
0.0
 10
-10.89133
 20
-14.21778
 30
0.0
 10
-10.8981
 20
-14.21555
 30
0.0
 10
-10.90523
 20
-14.21445
 30
0.0
 10
-10.91273
 20
-14.21445
 30
0.0
 10
-10.91273
 20
-14.21445
 30
0.0
 10
-10.92613
 20
-14.21445
 30
0.0
 10
-10.9367
 20
-14.21875
 30
0.0
 10
-10.94436
 20
-14.22735
 30
0.0
 10
-10.94436
 20
-14.22735
 30
0.0
 10
-10.95206
 20
-14.23595
 30
0.0
 10
-10.9559
 20
-14.24778
 30
0.0
 10
-10.9559
 20
-14.26288
 30
0.0
 10
-10.9559
 20
-14.26288
 30
0.0
 10
-10.9559
 20
-14.27795
 30
0.0
 10
-10.95206
 20
-14.28975
 30
0.0
 10
-10.94436
 20
-14.29835
 30
0.0
 10
-10.94436
 20
-14.29835
 30
0.0
 10
-10.9367
 20
-14.30695
 30
0.0
 10
-10.92613
 20
-14.31125
 30
0.0
 10
-10.91273
 20
-14.31125
 30
0.0
 10
-10.91273
 20
-14.31125
 30
0.0
 10
-10.90523
 20
-14.31125
 30
0.0
 10
-10.8981
 20
-14.31015
 30
0.0
 10
-10.89133
 20
-14.30792
 30
0.0
 10
-10.89133
 20
-14.30792
 30
0.0
 10
-10.88456
 20
-14.30572
 30
0.0
 10
-10.8777
 20
-14.30225
 30
0.0
 10
-10.87073
 20
-14.29748
 30
0.0
 10
-10.87073
 20
-14.29748
 30
0.0
 10
-10.87073
 20
-14.29748
 30
0.0
 10
-10.87073
 20
-14.32765
 30
0.0
 10
-10.87073
 20
-14.32765
 30
0.0
  0
SPLINE
  5
77
330
1F
100
AcDbEntity
  8
Layer 1
 62
   250
100
AcDbSpline
210
0.0
220
0.0
230
1.0
 70
    11
 71
     3
 72
    52
 73
    48
 74
     0
 42
0.0000000001
 43
0.0000000001
 40
0.0
 40
0.0
 40
0.0
 40
0.0
 40
0.0833333333333333
 40
0.0833333333333333
 40
0.0833333333333333
 40
0.0833333333333333
 40
0.1666666666666667
 40
0.1666666666666667
 40
0.1666666666666667
 40
0.1666666666666667
 40
0.25
 40
0.25
 40
0.25
 40
0.25
 40
0.3333333333333333
 40
0.3333333333333333
 40
0.3333333333333333
 40
0.3333333333333333
 40
0.4166666666666666
 40
0.4166666666666666
 40
0.4166666666666666
 40
0.4166666666666666
 40
0.4999999999999999
 40
0.4999999999999999
 40
0.4999999999999999
 40
0.4999999999999999
 40
0.5833333333333333
 40
0.5833333333333333
 40
0.5833333333333333
 40
0.5833333333333333
 40
0.6666666666666666
 40
0.6666666666666666
 40
0.6666666666666666
 40
0.6666666666666666
 40
0.75
 40
0.75
 40
0.75
 40
0.75
 40
0.8333333333333334
 40
0.8333333333333334
 40
0.8333333333333334
 40
0.8333333333333334
 40
0.9166666666666667
 40
0.9166666666666667
 40
0.9166666666666667
 40
0.9166666666666667
 40
1.0
 40
1.0
 40
1.0
 40
1.0
 10
-10.83959
 20
-14.18985
 30
0.0
 10
-10.83959
 20
-14.18985
 30
0.0
 10
-10.73813
 20
-14.18985
 30
0.0
 10
-10.73813
 20
-14.18985
 30
0.0
 10
-10.73813
 20
-14.18985
 30
0.0
 10
-10.73813
 20
-14.18985
 30
0.0
 10
-10.73813
 20
-14.21828
 30
0.0
 10
-10.73813
 20
-14.21828
 30
0.0
 10
-10.73813
 20
-14.21828
 30
0.0
 10
-10.73813
 20
-14.21828
 30
0.0
 10
-10.80199
 20
-14.21828
 30
0.0
 10
-10.80199
 20
-14.21828
 30
0.0
 10
-10.80199
 20
-14.21828
 30
0.0
 10
-10.80199
 20
-14.21828
 30
0.0
 10
-10.80199
 20
-14.24542
 30
0.0
 10
-10.80199
 20
-14.24542
 30
0.0
 10
-10.80199
 20
-14.24542
 30
0.0
 10
-10.80199
 20
-14.24542
 30
0.0
 10
-10.74196
 20
-14.24542
 30
0.0
 10
-10.74196
 20
-14.24542
 30
0.0
 10
-10.74196
 20
-14.24542
 30
0.0
 10
-10.74196
 20
-14.24542
 30
0.0
 10
-10.74196
 20
-14.27385
 30
0.0
 10
-10.74196
 20
-14.27385
 30
0.0
 10
-10.74196
 20
-14.27385
 30
0.0
 10
-10.74196
 20
-14.27385
 30
0.0
 10
-10.80199
 20
-14.27385
 30
0.0
 10
-10.80199
 20
-14.27385
 30
0.0
 10
-10.80199
 20
-14.27385
 30
0.0
 10
-10.80199
 20
-14.27385
 30
0.0
 10
-10.80199
 20
-14.30722
 30
0.0
 10
-10.80199
 20
-14.30722
 30
0.0
 10
-10.80199
 20
-14.30722
 30
0.0
 10
-10.80199
 20
-14.30722
 30
0.0
 10
-10.73599
 20
-14.30722
 30
0.0
 10
-10.73599
 20
-14.30722
 30
0.0
 10
-10.73599
 20
-14.30722
 30
0.0
 10
-10.73599
 20
-14.30722
 30
0.0
 10
-10.73599
 20
-14.33565
 30
0.0
 10
-10.73599
 20
-14.33565
 30
0.0
 10
-10.73599
 20
-14.33565
 30
0.0
 10
-10.73599
 20
-14.33565
 30
0.0
 10
-10.83959
 20
-14.33565
 30
0.0
 10
-10.83959
 20
-14.33565
 30
0.0
 10
-10.83959
 20
-14.33565
 30
0.0
 10
-10.83959
 20
-14.33565
 30
0.0
 10
-10.83959
 20
-14.18985
 30
0.0
 10
-10.83959
 20
-14.18985
 30
0.0
  0
SPLINE
  5
78
330
1F
100
AcDbEntity
  8
Layer 1
 62
   250
100
AcDbSpline
210
0.0
220
0.0
230
1.0
 70
    11
 71
     3
 72
    32
 73
    28
 74
     0
 42
0.0000000001
 43
0.0000000001
 40
0.0
 40
0.0
 40
0.0
 40
0.0
 40
0.1428571428571428
 40
0.1428571428571428
 40
0.1428571428571428
 40
0.1428571428571428
 40
0.2857142857142857
 40
0.2857142857142857
 40
0.2857142857142857
 40
0.2857142857142857
 40
0.4285714285714285
 40
0.4285714285714285
 40
0.4285714285714285
 40
0.4285714285714285
 40
0.5714285714285714
 40
0.5714285714285714
 40
0.5714285714285714
 40
0.5714285714285714
 40
0.7142857142857142
 40
0.7142857142857142
 40
0.7142857142857142
 40
0.7142857142857142
 40
0.857142857142857
 40
0.857142857142857
 40
0.857142857142857
 40
0.857142857142857
 40
1.0
 40
1.0
 40
1.0
 40
1.0
 10
-10.64953
 20
-14.25452
 30
0.0
 10
-10.64166
 20
-14.25452
 30
0.0
 10
-10.636
 20
-14.25305
 30
0.0
 10
-10.6326
 20
-14.25012
 30
0.0
 10
-10.6326
 20
-14.25012
 30
0.0
 10
-10.62916
 20
-14.24718
 30
0.0
 10
-10.62746
 20
-14.24235
 30
0.0
 10
-10.62746
 20
-14.23565
 30
0.0
 10
-10.62746
 20
-14.23565
 30
0.0
 10
-10.62746
 20
-14.22902
 30
0.0
 10
-10.62916
 20
-14.22425
 30
0.0
 10
-10.6326
 20
-14.22138
 30
0.0
 10
-10.6326
 20
-14.22138
 30
0.0
 10
-10.636
 20
-14.21852
 30
0.0
 10
-10.64166
 20
-14.21708
 30
0.0
 10
-10.64953
 20
-14.21708
 30
0.0
 10
-10.64953
 20
-14.21708
 30
0.0
 10
-10.64953
 20
-14.21708
 30
0.0
 10
-10.66536
 20
-14.21708
 30
0.0
 10
-10.66536
 20
-14.21708
 30
0.0
 10
-10.66536
 20
-14.21708
 30
0.0
 10
-10.66536
 20
-14.21708
 30
0.0
 10
-10.66536
 20
-14.25452
 30
0.0
 10
-10.66536
 20
-14.25452
 30
0.0
 10
-10.66536
 20
-14.25452
 30
0.0
 10
-10.66536
 20
-14.25452
 30
0.0
 10
-10.64953
 20
-14.25452
 30
0.0
 10
-10.64953
 20
-14.25452
 30
0.0
  0
SPLINE
  5
79
330
1F
100
AcDbEntity
  8
Layer 1
 62
   250
100
AcDbSpline
210
0.0
220
0.0
230
1.0
 70
    11
 71
     3
 72
    68
 73
    64
 74
     0
 42
0.0000000001
 43
0.0000000001
 40
0.0
 40
0.0
 40
0.0
 40
0.0
 40
0.0625
 40
0.0625
 40
0.0625
 40
0.0625
 40
0.125
 40
0.125
 40
0.125
 40
0.125
 40
0.1875
 40
0.1875
 40
0.1875
 40
0.1875
 40
0.25
 40
0.25
 40
0.25
 40
0.25
 40
0.3125
 40
0.3125
 40
0.3125
 40
0.3125
 40
0.375
 40
0.375
 40
0.375
 40
0.375
 40
0.4375
 40
0.4375
 40
0.4375
 40
0.4375
 40
0.5
 40
0.5
 40
0.5
 40
0.5
 40
0.5625
 40
0.5625
 40
0.5625
 40
0.5625
 40
0.625
 40
0.625
 40
0.625
 40
0.625
 40
0.6875
 40
0.6875
 40
0.6875
 40
0.6875
 40
0.75
 40
0.75
 40
0.75
 40
0.75
 40
0.8125
 40
0.8125
 40
0.8125
 40
0.8125
 40
0.875
 40
0.875
 40
0.875
 40
0.875
 40
0.9375
 40
0.9375
 40
0.9375
 40
0.9375
 40
1.0
 40
1.0
 40
1.0
 40
1.0
 10
-10.66536
 20
-14.28048
 30
0.0
 10
-10.66536
 20
-14.28048
 30
0.0
 10
-10.66536
 20
-14.33565
 30
0.0
 10
-10.66536
 20
-14.33565
 30
0.0
 10
-10.66536
 20
-14.33565
 30
0.0
 10
-10.66536
 20
-14.33565
 30
0.0
 10
-10.70296
 20
-14.33565
 30
0.0
 10
-10.70296
 20
-14.33565
 30
0.0
 10
-10.70296
 20
-14.33565
 30
0.0
 10
-10.70296
 20
-14.33565
 30
0.0
 10
-10.70296
 20
-14.18985
 30
0.0
 10
-10.70296
 20
-14.18985
 30
0.0
 10
-10.70296
 20
-14.18985
 30
0.0
 10
-10.70296
 20
-14.18985
 30
0.0
 10
-10.64553
 20
-14.18985
 30
0.0
 10
-10.64553
 20
-14.18985
 30
0.0
 10
-10.64553
 20
-14.18985
 30
0.0
 10
-10.62633
 20
-14.18985
 30
0.0
 10
-10.61223
 20
-14.19308
 30
0.0
 10
-10.6033
 20
-14.19952
 30
0.0
 10
-10.6033
 20
-14.19952
 30
0.0
 10
-10.59433
 20
-14.20595
 30
0.0
 10
-10.58986
 20
-14.21615
 30
0.0
 10
-10.58986
 20
-14.23008
 30
0.0
 10
-10.58986
 20
-14.23008
 30
0.0
 10
-10.58986
 20
-14.23972
 30
0.0
 10
-10.5922
 20
-14.24765
 30
0.0
 10
-10.59683
 20
-14.25382
 30
0.0
 10
-10.59683
 20
-14.25382
 30
0.0
 10
-10.6015
 20
-14.26002
 30
0.0
 10
-10.60853
 20
-14.26458
 30
0.0
 10
-10.6179
 20
-14.26748
 30
0.0
 10
-10.6179
 20
-14.26748
 30
0.0
 10
-10.61276
 20
-14.26868
 30
0.0
 10
-10.60813
 20
-14.27132
 30
0.0
 10
-10.60406
 20
-14.27545
 30
0.0
 10
-10.60406
 20
-14.27545
 30
0.0
 10
-10.6
 20
-14.27958
 30
0.0
 10
-10.5959
 20
-14.28585
 30
0.0
 10
-10.59173
 20
-14.29425
 30
0.0
 10
-10.59173
 20
-14.29425
 30
0.0
 10
-10.59173
 20
-14.29425
 30
0.0
 10
-10.5713
 20
-14.33565
 30
0.0
 10
-10.5713
 20
-14.33565
 30
0.0
 10
-10.5713
 20
-14.33565
 30
0.0
 10
-10.5713
 20
-14.33565
 30
0.0
 10
-10.61136
 20
-14.33565
 30
0.0
 10
-10.61136
 20
-14.33565
 30
0.0
 10
-10.61136
 20
-14.33565
 30
0.0
 10
-10.61136
 20
-14.33565
 30
0.0
 10
-10.62913
 20
-14.29942
 30
0.0
 10
-10.62913
 20
-14.29942
 30
0.0
 10
-10.62913
 20
-14.29942
 30
0.0
 10
-10.6327
 20
-14.29215
 30
0.0
 10
-10.63633
 20
-14.28715
 30
0.0
 10
-10.64003
 20
-14.28448
 30
0.0
 10
-10.64003
 20
-14.28448
 30
0.0
 10
-10.6437
 20
-14.28182
 30
0.0
 10
-10.6486
 20
-14.28048
 30
0.0
 10
-10.65473
 20
-14.28048
 30
0.0
 10
-10.65473
 20
-14.28048
 30
0.0
 10
-10.65473
 20
-14.28048
 30
0.0
 10
-10.66536
 20
-14.28048
 30
0.0
 10
-10.66536
 20
-14.28048
 30
0.0
  0
SPLINE
  5
7A
330
1F
100
AcDbEntity
  8
Layer 1
 62
   250
100
AcDbSpline
210
0.0
220
0.0
230
1.0
 70
    11
 71
     3
 72
    36
 73
    32
 74
     0
 42
0.0000000001
 43
0.0000000001
 40
0.0
 40
0.0
 40
0.0
 40
0.0
 40
0.125
 40
0.125
 40
0.125
 40
0.125
 40
0.25
 40
0.25
 40
0.25
 40
0.25
 40
0.375
 40
0.375
 40
0.375
 40
0.375
 40
0.5
 40
0.5
 40
0.5
 40
0.5
 40
0.625
 40
0.625
 40
0.625
 40
0.625
 40
0.75
 40
0.75
 40
0.75
 40
0.75
 40
0.875
 40
0.875
 40
0.875
 40
0.875
 40
1.0
 40
1.0
 40
1.0
 40
1.0
 10
-10.4605
 20
-14.30912
 30
0.0
 10
-10.4605
 20
-14.30912
 30
0.0
 10
-10.5193
 20
-14.30912
 30
0.0
 10
-10.5193
 20
-14.30912
 30
0.0
 10
-10.5193
 20
-14.30912
 30
0.0
 10
-10.5193
 20
-14.30912
 30
0.0
 10
-10.52856
 20
-14.33565
 30
0.0
 10
-10.52856
 20
-14.33565
 30
0.0
 10
-10.52856
 20
-14.33565
 30
0.0
 10
-10.52856
 20
-14.33565
 30
0.0
 10
-10.56636
 20
-14.33565
 30
0.0
 10
-10.56636
 20
-14.33565
 30
0.0
 10
-10.56636
 20
-14.33565
 30
0.0
 10
-10.56636
 20
-14.33565
 30
0.0
 10
-10.51236
 20
-14.18985
 30
0.0
 10
-10.51236
 20
-14.18985
 30
0.0
 10
-10.51236
 20
-14.18985
 30
0.0
 10
-10.51236
 20
-14.18985
 30
0.0
 10
-10.46753
 20
-14.18985
 30
0.0
 10
-10.46753
 20
-14.18985
 30
0.0
 10
-10.46753
 20
-14.18985
 30
0.0
 10
-10.46753
 20
-14.18985
 30
0.0
 10
-10.41353
 20
-14.33565
 30
0.0
 10
-10.41353
 20
-14.33565
 30
0.0
 10
-10.41353
 20
-14.33565
 30
0.0
 10
-10.41353
 20
-14.33565
 30
0.0
 10
-10.45133
 20
-14.33565
 30
0.0
 10
-10.45133
 20
-14.33565
 30
0.0
 10
-10.45133
 20
-14.33565
 30
0.0
 10
-10.45133
 20
-14.33565
 30
0.0
 10
-10.4605
 20
-14.30912
 30
0.0
 10
-10.4605
 20
-14.30912
 30
0.0
  0
SPLINE
  5
7B
330
1F
100
AcDbEntity
  8
Layer 1
 62
   250
100
AcDbSpline
210
0.0
220
0.0
230
1.0
 70
    11
 71
     3
 72
    16
 73
    12
 74
     0
 42
0.0000000001
 43
0.0000000001
 40
0.0
 40
0.0
 40
0.0
 40
0.0
 40
0.3333333333333333
 40
0.3333333333333333
 40
0.3333333333333333
 40
0.3333333333333333
 40
0.6666666666666666
 40
0.6666666666666666
 40
0.6666666666666666
 40
0.6666666666666666
 40
1.0
 40
1.0
 40
1.0
 40
1.0
 10
-10.50993
 20
-14.28205
 30
0.0
 10
-10.50993
 20
-14.28205
 30
0.0
 10
-10.46996
 20
-14.28205
 30
0.0
 10
-10.46996
 20
-14.28205
 30
0.0
 10
-10.46996
 20
-14.28205
 30
0.0
 10
-10.46996
 20
-14.28205
 30
0.0
 10
-10.4899
 20
-14.22405
 30
0.0
 10
-10.4899
 20
-14.22405
 30
0.0
 10
-10.4899
 20
-14.22405
 30
0.0
 10
-10.4899
 20
-14.22405
 30
0.0
 10
-10.50993
 20
-14.28205
 30
0.0
 10
-10.50993
 20
-14.28205
 30
0.0
  0
SPLINE
  5
7C
330
1F
100
AcDbEntity
  8
Layer 1
 62
   250
100
AcDbSpline
210
0.0
220
0.0
230
1.0
 70
    11
 71
     3
 72
    56
 73
    52
 74
     0
 42
0.0000000001
 43
0.0000000001
 40
0.0
 40
0.0
 40
0.0
 40
0.0
 40
0.0769230769230769
 40
0.0769230769230769
 40
0.0769230769230769
 40
0.0769230769230769
 40
0.1538461538461539
 40
0.1538461538461539
 40
0.1538461538461539
 40
0.1538461538461539
 40
0.2307692307692308
 40
0.2307692307692308
 40
0.2307692307692308
 40
0.2307692307692308
 40
0.3076923076923077
 40
0.3076923076923077
 40
0.3076923076923077
 40
0.3076923076923077
 40
0.3846153846153846
 40
0.3846153846153846
 40
0.3846153846153846
 40
0.3846153846153846
 40
0.4615384615384616
 40
0.4615384615384616
 40
0.4615384615384616
 40
0.4615384615384616
 40
0.5384615384615385
 40
0.5384615384615385
 40
0.5384615384615385
 40
0.5384615384615385
 40
0.6153846153846154
 40
0.6153846153846154
 40
0.6153846153846154
 40
0.6153846153846154
 40
0.6923076923076923
 40
0.6923076923076923
 40
0.6923076923076923
 40
0.6923076923076923
 40
0.7692307692307692
 40
0.7692307692307692
 40
0.7692307692307692
 40
0.7692307692307692
 40
0.846153846153846
 40
0.846153846153846
 40
0.846153846153846
 40
0.846153846153846
 40
0.9230769230769229
 40
0.9230769230769229
 40
0.9230769230769229
 40
0.9230769230769229
 40
1.0
 40
1.0
 40
1.0
 40
1.0
 10
-10.39416
 20
-14.18985
 30
0.0
 10
-10.39416
 20
-14.18985
 30
0.0
 10
-10.34633
 20
-14.18985
 30
0.0
 10
-10.34633
 20
-14.18985
 30
0.0
 10
-10.34633
 20
-14.18985
 30
0.0
 10
-10.34633
 20
-14.18985
 30
0.0
 10
-10.3131
 20
-14.26788
 30
0.0
 10
-10.3131
 20
-14.26788
 30
0.0
 10
-10.3131
 20
-14.26788
 30
0.0
 10
-10.3131
 20
-14.26788
 30
0.0
 10
-10.2797
 20
-14.18985
 30
0.0
 10
-10.2797
 20
-14.18985
 30
0.0
 10
-10.2797
 20
-14.18985
 30
0.0
 10
-10.2797
 20
-14.18985
 30
0.0
 10
-10.23196
 20
-14.18985
 30
0.0
 10
-10.23196
 20
-14.18985
 30
0.0
 10
-10.23196
 20
-14.18985
 30
0.0
 10
-10.23196
 20
-14.18985
 30
0.0
 10
-10.23196
 20
-14.33565
 30
0.0
 10
-10.23196
 20
-14.33565
 30
0.0
 10
-10.23196
 20
-14.33565
 30
0.0
 10
-10.23196
 20
-14.33565
 30
0.0
 10
-10.2675
 20
-14.33565
 30
0.0
 10
-10.2675
 20
-14.33565
 30
0.0
 10
-10.2675
 20
-14.33565
 30
0.0
 10
-10.2675
 20
-14.33565
 30
0.0
 10
-10.2675
 20
-14.22902
 30
0.0
 10
-10.2675
 20
-14.22902
 30
0.0
 10
-10.2675
 20
-14.22902
 30
0.0
 10
-10.2675
 20
-14.22902
 30
0.0
 10
-10.3011
 20
-14.30762
 30
0.0
 10
-10.3011
 20
-14.30762
 30
0.0
 10
-10.3011
 20
-14.30762
 30
0.0
 10
-10.3011
 20
-14.30762
 30
0.0
 10
-10.32493
 20
-14.30762
 30
0.0
 10
-10.32493
 20
-14.30762
 30
0.0
 10
-10.32493
 20
-14.30762
 30
0.0
 10
-10.32493
 20
-14.30762
 30
0.0
 10
-10.35853
 20
-14.22902
 30
0.0
 10
-10.35853
 20
-14.22902
 30
0.0
 10
-10.35853
 20
-14.22902
 30
0.0
 10
-10.35853
 20
-14.22902
 30
0.0
 10
-10.35853
 20
-14.33565
 30
0.0
 10
-10.35853
 20
-14.33565
 30
0.0
 10
-10.35853
 20
-14.33565
 30
0.0
 10
-10.35853
 20
-14.33565
 30
0.0
 10
-10.39416
 20
-14.33565
 30
0.0
 10
-10.39416
 20
-14.33565
 30
0.0
 10
-10.39416
 20
-14.33565
 30
0.0
 10
-10.39416
 20
-14.33565
 30
0.0
 10
-10.39416
 20
-14.18985
 30
0.0
 10
-10.39416
 20
-14.18985
 30
0.0
  0
SPLINE
  5
7D
330
1F
100
AcDbEntity
  8
Layer 1
 62
   250
100
AcDbSpline
210
0.0
220
0.0
230
1.0
 70
    11
 71
     3
 72
    20
 73
    16
 74
     0
 42
0.0000000001
 43
0.0000000001
 40
0.0
 40
0.0
 40
0.0
 40
0.0
 40
0.25
 40
0.25
 40
0.25
 40
0.25
 40
0.5
 40
0.5
 40
0.5
 40
0.5
 40
0.75
 40
0.75
 40
0.75
 40
0.75
 40
1.0
 40
1.0
 40
1.0
 40
1.0
 10
-10.19513
 20
-14.18985
 30
0.0
 10
-10.19513
 20
-14.18985
 30
0.0
 10
-10.15753
 20
-14.18985
 30
0.0
 10
-10.15753
 20
-14.18985
 30
0.0
 10
-10.15753
 20
-14.18985
 30
0.0
 10
-10.15753
 20
-14.18985
 30
0.0
 10
-10.15753
 20
-14.33565
 30
0.0
 10
-10.15753
 20
-14.33565
 30
0.0
 10
-10.15753
 20
-14.33565
 30
0.0
 10
-10.15753
 20
-14.33565
 30
0.0
 10
-10.19513
 20
-14.33565
 30
0.0
 10
-10.19513
 20
-14.33565
 30
0.0
 10
-10.19513
 20
-14.33565
 30
0.0
 10
-10.19513
 20
-14.33565
 30
0.0
 10
-10.19513
 20
-14.18985
 30
0.0
 10
-10.19513
 20
-14.18985
 30
0.0
  0
SPLINE
  5
7E
330
1F
100
AcDbEntity
  8
Layer 1
 62
   250
100
AcDbSpline
210
0.0
220
0.0
230
1.0
 70
    11
 71
     3
 72
    76
 73
    72
 74
     0
 42
0.0000000001
 43
0.0000000001
 40
0.0
 40
0.0
 40
0.0
 40
0.0
 40
0.0555555555555556
 40
0.0555555555555556
 40
0.0555555555555556
 40
0.0555555555555556
 40
0.1111111111111111
 40
0.1111111111111111
 40
0.1111111111111111
 40
0.1111111111111111
 40
0.1666666666666667
 40
0.1666666666666667
 40
0.1666666666666667
 40
0.1666666666666667
 40
0.2222222222222222
 40
0.2222222222222222
 40
0.2222222222222222
 40
0.2222222222222222
 40
0.2777777777777778
 40
0.2777777777777778
 40
0.2777777777777778
 40
0.2777777777777778
 40
0.3333333333333334
 40
0.3333333333333334
 40
0.3333333333333334
 40
0.3333333333333334
 40
0.388888888888889
 40
0.388888888888889
 40
0.388888888888889
 40
0.388888888888889
 40
0.4444444444444445
 40
0.4444444444444445
 40
0.4444444444444445
 40
0.4444444444444445
 40
0.5000000000000001
 40
0.5000000000000001
 40
0.5000000000000001
 40
0.5000000000000001
 40
0.5555555555555557
 40
0.5555555555555557
 40
0.5555555555555557
 40
0.5555555555555557
 40
0.6111111111111113
 40
0.6111111111111113
 40
0.6111111111111113
 40
0.6111111111111113
 40
0.6666666666666669
 40
0.6666666666666669
 40
0.6666666666666669
 40
0.6666666666666669
 40
0.7222222222222224
 40
0.7222222222222224
 40
0.7222222222222224
 40
0.7222222222222224
 40
0.777777777777778
 40
0.777777777777778
 40
0.777777777777778
 40
0.777777777777778
 40
0.8333333333333336
 40
0.8333333333333336
 40
0.8333333333333336
 40
0.8333333333333336
 40
0.8888888888888892
 40
0.8888888888888892
 40
0.8888888888888892
 40
0.8888888888888892
 40
0.9444444444444448
 40
0.9444444444444448
 40
0.9444444444444448
 40
0.9444444444444448
 40
1.0
 40
1.0
 40
1.0
 40
1.0
 10
-10.0051
 20
-14.32765
 30
0.0
 10
-10.012
 20
-14.33122
 30
0.0
 10
-10.0192
 20
-14.33392
 30
0.0
 10
-10.0267
 20
-14.33575
 30
0.0
 10
-10.0267
 20
-14.33575
 30
0.0
 10
-10.03417
 20
-14.33758
 30
0.0
 10
-10.042
 20
-14.33848
 30
0.0
 10
-10.05013
 20
-14.33848
 30
0.0
 10
-10.05013
 20
-14.33848
 30
0.0
 10
-10.0744
 20
-14.33848
 30
0.0
 10
-10.09363
 20
-14.33168
 30
0.0
 10
-10.10783
 20
-14.31812
 30
0.0
 10
-10.10783
 20
-14.31812
 30
0.0
 10
-10.12203
 20
-14.30455
 30
0.0
 10
-10.12913
 20
-14.28615
 30
0.0
 10
-10.12913
 20
-14.26288
 30
0.0
 10
-10.12913
 20
-14.26288
 30
0.0
 10
-10.12913
 20
-14.23958
 30
0.0
 10
-10.12203
 20
-14.22115
 30
0.0
 10
-10.10783
 20
-14.20758
 30
0.0
 10
-10.10783
 20
-14.20758
 30
0.0
 10
-10.09363
 20
-14.19402
 30
0.0
 10
-10.0744
 20
-14.18722
 30
0.0
 10
-10.05013
 20
-14.18722
 30
0.0
 10
-10.05013
 20
-14.18722
 30
0.0
 10
-10.042
 20
-14.18722
 30
0.0
 10
-10.03417
 20
-14.18812
 30
0.0
 10
-10.0267
 20
-14.18995
 30
0.0
 10
-10.0267
 20
-14.18995
 30
0.0
 10
-10.0192
 20
-14.19178
 30
0.0
 10
-10.012
 20
-14.19448
 30
0.0
 10
-10.0051
 20
-14.19805
 30
0.0
 10
-10.0051
 20
-14.19805
 30
0.0
 10
-10.0051
 20
-14.19805
 30
0.0
 10
-10.0051
 20
-14.22822
 30
0.0
 10
-10.0051
 20
-14.22822
 30
0.0
 10
-10.0051
 20
-14.22822
 30
0.0
 10
-10.01207
 20
-14.22345
 30
0.0
 10
-10.01893
 20
-14.21998
 30
0.0
 10
-10.0257
 20
-14.21778
 30
0.0
 10
-10.0257
 20
-14.21778
 30
0.0
 10
-10.03247
 20
-14.21555
 30
0.0
 10
-10.0396
 20
-14.21445
 30
0.0
 10
-10.0471
 20
-14.21445
 30
0.0
 10
-10.0471
 20
-14.21445
 30
0.0
 10
-10.0605
 20
-14.21445
 30
0.0
 10
-10.07107
 20
-14.21875
 30
0.0
 10
-10.07873
 20
-14.22735
 30
0.0
 10
-10.07873
 20
-14.22735
 30
0.0
 10
-10.08643
 20
-14.23595
 30
0.0
 10
-10.09027
 20
-14.24778
 30
0.0
 10
-10.09027
 20
-14.26288
 30
0.0
 10
-10.09027
 20
-14.26288
 30
0.0
 10
-10.09027
 20
-14.27795
 30
0.0
 10
-10.08643
 20
-14.28975
 30
0.0
 10
-10.07873
 20
-14.29835
 30
0.0
 10
-10.07873
 20
-14.29835
 30
0.0
 10
-10.07107
 20
-14.30695
 30
0.0
 10
-10.0605
 20
-14.31125
 30
0.0
 10
-10.0471
 20
-14.31125
 30
0.0
 10
-10.0471
 20
-14.31125
 30
0.0
 10
-10.0396
 20
-14.31125
 30
0.0
 10
-10.03247
 20
-14.31015
 30
0.0
 10
-10.0257
 20
-14.30792
 30
0.0
 10
-10.0257
 20
-14.30792
 30
0.0
 10
-10.01893
 20
-14.30572
 30
0.0
 10
-10.01207
 20
-14.30225
 30
0.0
 10
-10.0051
 20
-14.29748
 30
0.0
 10
-10.0051
 20
-14.29748
 30
0.0
 10
-10.0051
 20
-14.29748
 30
0.0
 10
-10.0051
 20
-14.32765
 30
0.0
 10
-10.0051
 20
-14.32765
 30
0.0
  0
SPLINE
  5
7F
330
1F
100
AcDbEntity
  8
Layer 1
 62
   250
100
AcDbSpline
210
0.0
220
0.0
230
1.0
 70
    11
 71
     3
 72
    44
 73
    40
 74
     0
 42
0.0000000001
 43
0.0000000001
 40
0.0
 40
0.0
 40
0.0
 40
0.0
 40
0.1
 40
0.1
 40
0.1
 40
0.1
 40
0.2
 40
0.2
 40
0.2
 40
0.2
 40
0.3
 40
0.3
 40
0.3
 40
0.3
 40
0.4
 40
0.4
 40
0.4
 40
0.4
 40
0.5
 40
0.5
 40
0.5
 40
0.5
 40
0.6
 40
0.6
 40
0.6
 40
0.6
 40
0.7
 40
0.7
 40
0.7
 40
0.7
 40
0.7999999999999999
 40
0.7999999999999999
 40
0.7999999999999999
 40
0.7999999999999999
 40
0.8999999999999999
 40
0.8999999999999999
 40
0.8999999999999999
 40
0.8999999999999999
 40
1.0
 40
1.0
 40
1.0
 40
1.0
 10
-9.97633
 20
-14.36202
 30
0.0
 10
-9.968
 20
-14.34652
 30
0.0
 10
-9.96173
 20
-14.33138
 30
0.0
 10
-9.95756
 20
-14.31662
 30
0.0
 10
-9.95756
 20
-14.31662
 30
0.0
 10
-9.9534
 20
-14.30182
 30
0.0
 10
-9.95133
 20
-14.28725
 30
0.0
 10
-9.95133
 20
-14.27285
 30
0.0
 10
-9.95133
 20
-14.27285
 30
0.0
 10
-9.95133
 20
-14.25845
 30
0.0
 10
-9.9534
 20
-14.24388
 30
0.0
 10
-9.95756
 20
-14.22915
 30
0.0
 10
-9.95756
 20
-14.22915
 30
0.0
 10
-9.96173
 20
-14.21442
 30
0.0
 10
-9.968
 20
-14.19932
 30
0.0
 10
-9.97633
 20
-14.18388
 30
0.0
 10
-9.97633
 20
-14.18388
 30
0.0
 10
-9.97633
 20
-14.18388
 30
0.0
 10
-9.94733
 20
-14.18388
 30
0.0
 10
-9.94733
 20
-14.18388
 30
0.0
 10
-9.94733
 20
-14.18388
 30
0.0
 10
-9.93743
 20
-14.19985
 30
0.0
 10
-9.9301
 20
-14.21512
 30
0.0
 10
-9.9253
 20
-14.22975
 30
0.0
 10
-9.9253
 20
-14.22975
 30
0.0
 10
-9.92053
 20
-14.24435
 30
0.0
 10
-9.91813
 20
-14.25878
 30
0.0
 10
-9.91813
 20
-14.27305
 30
0.0
 10
-9.91813
 20
-14.27305
 30
0.0
 10
-9.91813
 20
-14.28732
 30
0.0
 10
-9.9205
 20
-14.30168
 30
0.0
 10
-9.92526
 20
-14.31615
 30
0.0
 10
-9.92526
 20
-14.31615
 30
0.0
 10
-9.93
 20
-14.33065
 30
0.0
 10
-9.93736
 20
-14.34595
 30
0.0
 10
-9.94733
 20
-14.36202
 30
0.0
 10
-9.94733
 20
-14.36202
 30
0.0
 10
-9.94733
 20
-14.36202
 30
0.0
 10
-9.97633
 20
-14.36202
 30
0.0
 10
-9.97633
 20
-14.36202
 30
0.0
  0
SPLINE
  5
80
330
1F
100
AcDbEntity
  8
Layer 1
 62
   250
100
AcDbSpline
210
0.0
220
0.0
230
1.0
 70
    11
 71
     3
 72
    36
 73
    32
 74
     0
 42
0.0000000001
 43
0.0000000001
 40
0.0
 40
0.0
 40
0.0
 40
0.0
 40
0.125
 40
0.125
 40
0.125
 40
0.125
 40
0.25
 40
0.25
 40
0.25
 40
0.25
 40
0.375
 40
0.375
 40
0.375
 40
0.375
 40
0.5
 40
0.5
 40
0.5
 40
0.5
 40
0.625
 40
0.625
 40
0.625
 40
0.625
 40
0.75
 40
0.75
 40
0.75
 40
0.75
 40
0.875
 40
0.875
 40
0.875
 40
0.875
 40
1.0
 40
1.0
 40
1.0
 40
1.0
 10
-10.85975
 20
-14.42726
 30
0.0
 10
-10.86431
 20
-14.42726
 30
0.0
 10
-10.86776
 20
-14.42902
 30
0.0
 10
-10.87011
 20
-14.43257
 30
0.0
 10
-10.87011
 20
-14.43257
 30
0.0
 10
-10.87246
 20
-14.43612
 30
0.0
 10
-10.87363
 20
-14.44139
 30
0.0
 10
-10.87363
 20
-14.44834
 30
0.0
 10
-10.87363
 20
-14.44834
 30
0.0
 10
-10.87363
 20
-14.45527
 30
0.0
 10
-10.87246
 20
-14.46052
 30
0.0
 10
-10.87011
 20
-14.46409
 30
0.0
 10
-10.87011
 20
-14.46409
 30
0.0
 10
-10.86776
 20
-14.46766
 30
0.0
 10
-10.86431
 20
-14.46944
 30
0.0
 10
-10.85975
 20
-14.46944
 30
0.0
 10
-10.85975
 20
-14.46944
 30
0.0
 10
-10.85516
 20
-14.46944
 30
0.0
 10
-10.8517
 20
-14.46766
 30
0.0
 10
-10.84935
 20
-14.46409
 30
0.0
 10
-10.84935
 20
-14.46409
 30
0.0
 10
-10.847
 20
-14.46052
 30
0.0
 10
-10.84583
 20
-14.45527
 30
0.0
 10
-10.84583
 20
-14.44834
 30
0.0
 10
-10.84583
 20
-14.44834
 30
0.0
 10
-10.84583
 20
-14.44139
 30
0.0
 10
-10.847
 20
-14.43612
 30
0.0
 10
-10.84935
 20
-14.43257
 30
0.0
 10
-10.84935
 20
-14.43257
 30
0.0
 10
-10.8517
 20
-14.42902
 30
0.0
 10
-10.85516
 20
-14.42726
 30
0.0
 10
-10.85975
 20
-14.42726
 30
0.0
  0
SPLINE
  5
81
330
1F
100
AcDbEntity
  8
Layer 1
 62
   250
100
AcDbSpline
210
0.0
220
0.0
230
1.0
 70
    11
 71
     3
 72
    36
 73
    32
 74
     0
 42
0.0000000001
 43
0.0000000001
 40
0.0
 40
0.0
 40
0.0
 40
0.0
 40
0.125
 40
0.125
 40
0.125
 40
0.125
 40
0.25
 40
0.25
 40
0.25
 40
0.25
 40
0.375
 40
0.375
 40
0.375
 40
0.375
 40
0.5
 40
0.5
 40
0.5
 40
0.5
 40
0.625
 40
0.625
 40
0.625
 40
0.625
 40
0.75
 40
0.75
 40
0.75
 40
0.75
 40
0.875
 40
0.875
 40
0.875
 40
0.875
 40
1.0
 40
1.0
 40
1.0
 40
1.0
 10
-10.85975
 20
-14.41964
 30
0.0
 10
-10.85216
 20
-14.41964
 30
0.0
 10
-10.84636
 20
-14.42209
 30
0.0
 10
-10.84235
 20
-14.42701
 30
0.0
 10
-10.84235
 20
-14.42701
 30
0.0
 10
-10.83833
 20
-14.43192
 30
0.0
 10
-10.83631
 20
-14.43904
 30
0.0
 10
-10.83631
 20
-14.44834
 30
0.0
 10
-10.83631
 20
-14.44834
 30
0.0
 10
-10.83631
 20
-14.45769
 30
0.0
 10
-10.83831
 20
-14.46481
 30
0.0
 10
-10.84231
 20
-14.46971
 30
0.0
 10
-10.84231
 20
-14.46971
 30
0.0
 10
-10.84633
 20
-14.47461
 30
0.0
 10
-10.85213
 20
-14.47706
 30
0.0
 10
-10.85975
 20
-14.47706
 30
0.0
 10
-10.85975
 20
-14.47706
 30
0.0
 10
-10.86735
 20
-14.47706
 30
0.0
 10
-10.87313
 20
-14.47461
 30
0.0
 10
-10.87715
 20
-14.46971
 30
0.0
 10
-10.87715
 20
-14.46971
 30
0.0
 10
-10.88115
 20
-14.46481
 30
0.0
 10
-10.88315
 20
-14.45769
 30
0.0
 10
-10.88315
 20
-14.44834
 30
0.0
 10
-10.88315
 20
-14.44834
 30
0.0
 10
-10.88315
 20
-14.43904
 30
0.0
 10
-10.88115
 20
-14.43192
 30
0.0
 10
-10.87715
 20
-14.42701
 30
0.0
 10
-10.87715
 20
-14.42701
 30
0.0
 10
-10.87313
 20
-14.42209
 30
0.0
 10
-10.86735
 20
-14.41964
 30
0.0
 10
-10.85975
 20
-14.41964
 30
0.0
  0
SPLINE
  5
82
330
1F
100
AcDbEntity
  8
Layer 1
 62
   250
100
AcDbSpline
210
0.0
220
0.0
230
1.0
 70
    11
 71
     3
 72
    36
 73
    32
 74
     0
 42
0.0000000001
 43
0.0000000001
 40
0.0
 40
0.0
 40
0.0
 40
0.0
 40
0.125
 40
0.125
 40
0.125
 40
0.125
 40
0.25
 40
0.25
 40
0.25
 40
0.25
 40
0.375
 40
0.375
 40
0.375
 40
0.375
 40
0.5
 40
0.5
 40
0.5
 40
0.5
 40
0.625
 40
0.625
 40
0.625
 40
0.625
 40
0.75
 40
0.75
 40
0.75
 40
0.75
 40
0.875
 40
0.875
 40
0.875
 40
0.875
 40
1.0
 40
1.0
 40
1.0
 40
1.0
 10
-10.79955
 20
-14.42726
 30
0.0
 10
-10.80411
 20
-14.42726
 30
0.0
 10
-10.80756
 20
-14.42902
 30
0.0
 10
-10.80991
 20
-14.43257
 30
0.0
 10
-10.80991
 20
-14.43257
 30
0.0
 10
-10.81226
 20
-14.43612
 30
0.0
 10
-10.81343
 20
-14.44139
 30
0.0
 10
-10.81343
 20
-14.44834
 30
0.0
 10
-10.81343
 20
-14.44834
 30
0.0
 10
-10.81343
 20
-14.45527
 30
0.0
 10
-10.81226
 20
-14.46052
 30
0.0
 10
-10.80991
 20
-14.46409
 30
0.0
 10
-10.80991
 20
-14.46409
 30
0.0
 10
-10.80756
 20
-14.46766
 30
0.0
 10
-10.80411
 20
-14.46944
 30
0.0
 10
-10.79955
 20
-14.46944
 30
0.0
 10
-10.79955
 20
-14.46944
 30
0.0
 10
-10.79496
 20
-14.46944
 30
0.0
 10
-10.7915
 20
-14.46766
 30
0.0
 10
-10.78915
 20
-14.46409
 30
0.0
 10
-10.78915
 20
-14.46409
 30
0.0
 10
-10.7868
 20
-14.46052
 30
0.0
 10
-10.78563
 20
-14.45527
 30
0.0
 10
-10.78563
 20
-14.44834
 30
0.0
 10
-10.78563
 20
-14.44834
 30
0.0
 10
-10.78563
 20
-14.44139
 30
0.0
 10
-10.7868
 20
-14.43612
 30
0.0
 10
-10.78915
 20
-14.43257
 30
0.0
 10
-10.78915
 20
-14.43257
 30
0.0
 10
-10.7915
 20
-14.42902
 30
0.0
 10
-10.79496
 20
-14.42726
 30
0.0
 10
-10.79955
 20
-14.42726
 30
0.0
  0
SPLINE
  5
83
330
1F
100
AcDbEntity
  8
Layer 1
 62
   250
100
AcDbSpline
210
0.0
220
0.0
230
1.0
 70
    11
 71
     3
 72
    36
 73
    32
 74
     0
 42
0.0000000001
 43
0.0000000001
 40
0.0
 40
0.0
 40
0.0
 40
0.0
 40
0.125
 40
0.125
 40
0.125
 40
0.125
 40
0.25
 40
0.25
 40
0.25
 40
0.25
 40
0.375
 40
0.375
 40
0.375
 40
0.375
 40
0.5
 40
0.5
 40
0.5
 40
0.5
 40
0.625
 40
0.625
 40
0.625
 40
0.625
 40
0.75
 40
0.75
 40
0.75
 40
0.75
 40
0.875
 40
0.875
 40
0.875
 40
0.875
 40
1.0
 40
1.0
 40
1.0
 40
1.0
 10
-10.79955
 20
-14.41964
 30
0.0
 10
-10.79196
 20
-14.41964
 30
0.0
 10
-10.78616
 20
-14.42209
 30
0.0
 10
-10.78215
 20
-14.42701
 30
0.0
 10
-10.78215
 20
-14.42701
 30
0.0
 10
-10.77813
 20
-14.43192
 30
0.0
 10
-10.77611
 20
-14.43904
 30
0.0
 10
-10.77611
 20
-14.44834
 30
0.0
 10
-10.77611
 20
-14.44834
 30
0.0
 10
-10.77611
 20
-14.45769
 30
0.0
 10
-10.77811
 20
-14.46481
 30
0.0
 10
-10.78211
 20
-14.46971
 30
0.0
 10
-10.78211
 20
-14.46971
 30
0.0
 10
-10.78613
 20
-14.47461
 30
0.0
 10
-10.79193
 20
-14.47706
 30
0.0
 10
-10.79955
 20
-14.47706
 30
0.0
 10
-10.79955
 20
-14.47706
 30
0.0
 10
-10.80715
 20
-14.47706
 30
0.0
 10
-10.81293
 20
-14.47461
 30
0.0
 10
-10.81695
 20
-14.46971
 30
0.0
 10
-10.81695
 20
-14.46971
 30
0.0
 10
-10.82095
 20
-14.46481
 30
0.0
 10
-10.82295
 20
-14.45769
 30
0.0
 10
-10.82295
 20
-14.44834
 30
0.0
 10
-10.82295
 20
-14.44834
 30
0.0
 10
-10.82295
 20
-14.43904
 30
0.0
 10
-10.82095
 20
-14.43192
 30
0.0
 10
-10.81695
 20
-14.42701
 30
0.0
 10
-10.81695
 20
-14.42701
 30
0.0
 10
-10.81293
 20
-14.42209
 30
0.0
 10
-10.80715
 20
-14.41964
 30
0.0
 10
-10.79955
 20
-14.41964
 30
0.0
  0
SPLINE
  5
84
330
1F
100
AcDbEntity
  8
Layer 1
 62
   250
100
AcDbSpline
210
0.0
220
0.0
230
1.0
 70
    11
 71
     3
 72
   112
 73
   108
 74
     0
 42
0.0000000001
 43
0.0000000001
 40
0.0
 40
0.0
 40
0.0
 40
0.0
 40
0.037037037037037
 40
0.037037037037037
 40
0.037037037037037
 40
0.037037037037037
 40
0.0740740740740741
 40
0.0740740740740741
 40
0.0740740740740741
 40
0.0740740740740741
 40
0.1111111111111111
 40
0.1111111111111111
 40
0.1111111111111111
 40
0.1111111111111111
 40
0.1481481481481481
 40
0.1481481481481481
 40
0.1481481481481481
 40
0.1481481481481481
 40
0.1851851851851852
 40
0.1851851851851852
 40
0.1851851851851852
 40
0.1851851851851852
 40
0.2222222222222222
 40
0.2222222222222222
 40
0.2222222222222222
 40
0.2222222222222222
 40
0.2592592592592592
 40
0.2592592592592592
 40
0.2592592592592592
 40
0.2592592592592592
 40
0.2962962962962963
 40
0.2962962962962963
 40
0.2962962962962963
 40
0.2962962962962963
 40
0.3333333333333333
 40
0.3333333333333333
 40
0.3333333333333333
 40
0.3333333333333333
 40
0.3703703703703703
 40
0.3703703703703703
 40
0.3703703703703703
 40
0.3703703703703703
 40
0.4074074074074074
 40
0.4074074074074074
 40
0.4074074074074074
 40
0.4074074074074074
 40
0.4444444444444444
 40
0.4444444444444444
 40
0.4444444444444444
 40
0.4444444444444444
 40
0.4814814814814815
 40
0.4814814814814815
 40
0.4814814814814815
 40
0.4814814814814815
 40
0.5185185185185185
 40
0.5185185185185185
 40
0.5185185185185185
 40
0.5185185185185185
 40
0.5555555555555556
 40
0.5555555555555556
 40
0.5555555555555556
 40
0.5555555555555556
 40
0.5925925925925926
 40
0.5925925925925926
 40
0.5925925925925926
 40
0.5925925925925926
 40
0.6296296296296295
 40
0.6296296296296295
 40
0.6296296296296295
 40
0.6296296296296295
 40
0.6666666666666665
 40
0.6666666666666665
 40
0.6666666666666665
 40
0.6666666666666665
 40
0.7037037037037035
 40
0.7037037037037035
 40
0.7037037037037035
 40
0.7037037037037035
 40
0.7407407407407405
 40
0.7407407407407405
 40
0.7407407407407405
 40
0.7407407407407405
 40
0.7777777777777775
 40
0.7777777777777775
 40
0.7777777777777775
 40
0.7777777777777775
 40
0.8148148148148144
 40
0.8148148148148144
 40
0.8148148148148144
 40
0.8148148148148144
 40
0.8518518518518514
 40
0.8518518518518514
 40
0.8518518518518514
 40
0.8518518518518514
 40
0.8888888888888884
 40
0.8888888888888884
 40
0.8888888888888884
 40
0.8888888888888884
 40
0.9259259259259254
 40
0.9259259259259254
 40
0.9259259259259254
 40
0.9259259259259254
 40
0.9629629629629624
 40
0.9629629629629624
 40
0.9629629629629624
 40
0.9629629629629624
 40
1.0
 40
1.0
 40
1.0
 40
1.0
 10
-10.73643
 20
-14.42652
 30
0.0
 10
-10.73533
 20
-14.42417
 30
0.0
 10
-10.73391
 20
-14.42244
 30
0.0
 10
-10.7322
 20
-14.42132
 30
0.0
 10
-10.7322
 20
-14.42132
 30
0.0
 10
-10.7305
 20
-14.42021
 30
0.0
 10
-10.72843
 20
-14.41964
 30
0.0
 10
-10.72603
 20
-14.41964
 30
0.0
 10
-10.72603
 20
-14.41964
 30
0.0
 10
-10.72163
 20
-14.41964
 30
0.0
 10
-10.71853
 20
-14.42134
 30
0.0
 10
-10.71673
 20
-14.42474
 30
0.0
 10
-10.71673
 20
-14.42474
 30
0.0
 10
-10.71491
 20
-14.42814
 30
0.0
 10
-10.71401
 20
-14.43454
 30
0.0
 10
-10.71401
 20
-14.44396
 30
0.0
 10
-10.71401
 20
-14.44396
 30
0.0
 10
-10.71401
 20
-14.44396
 30
0.0
 10
-10.71401
 20
-14.47564
 30
0.0
 10
-10.71401
 20
-14.47564
 30
0.0
 10
-10.71401
 20
-14.47564
 30
0.0
 10
-10.71401
 20
-14.47564
 30
0.0
 10
-10.72221
 20
-14.47564
 30
0.0
 10
-10.72221
 20
-14.47564
 30
0.0
 10
-10.72221
 20
-14.47564
 30
0.0
 10
-10.72221
 20
-14.47564
 30
0.0
 10
-10.72221
 20
-14.44434
 30
0.0
 10
-10.72221
 20
-14.44434
 30
0.0
 10
-10.72221
 20
-14.44434
 30
0.0
 10
-10.72221
 20
-14.43662
 30
0.0
 10
-10.72265
 20
-14.43184
 30
0.0
 10
-10.72351
 20
-14.42996
 30
0.0
 10
-10.72351
 20
-14.42996
 30
0.0
 10
-10.72436
 20
-14.42809
 30
0.0
 10
-10.72595
 20
-14.42716
 30
0.0
 10
-10.72823
 20
-14.42716
 30
0.0
 10
-10.72823
 20
-14.42716
 30
0.0
 10
-10.73083
 20
-14.42716
 30
0.0
 10
-10.73261
 20
-14.42816
 30
0.0
 10
-10.73358
 20
-14.43016
 30
0.0
 10
-10.73358
 20
-14.43016
 30
0.0
 10
-10.73453
 20
-14.43216
 30
0.0
 10
-10.73501
 20
-14.43689
 30
0.0
 10
-10.73501
 20
-14.44434
 30
0.0
 10
-10.73501
 20
-14.44434
 30
0.0
 10
-10.73501
 20
-14.44434
 30
0.0
 10
-10.73501
 20
-14.47564
 30
0.0
 10
-10.73501
 20
-14.47564
 30
0.0
 10
-10.73501
 20
-14.47564
 30
0.0
 10
-10.73501
 20
-14.47564
 30
0.0
 10
-10.74321
 20
-14.47564
 30
0.0
 10
-10.74321
 20
-14.47564
 30
0.0
 10
-10.74321
 20
-14.47564
 30
0.0
 10
-10.74321
 20
-14.47564
 30
0.0
 10
-10.74321
 20
-14.44434
 30
0.0
 10
-10.74321
 20
-14.44434
 30
0.0
 10
-10.74321
 20
-14.44434
 30
0.0
 10
-10.74321
 20
-14.43652
 30
0.0
 10
-10.74368
 20
-14.43171
 30
0.0
 10
-10.74461
 20
-14.42989
 30
0.0
 10
-10.74461
 20
-14.42989
 30
0.0
 10
-10.74553
 20
-14.42807
 30
0.0
 10
-10.7472
 20
-14.42716
 30
0.0
 10
-10.74961
 20
-14.42716
 30
0.0
 10
-10.74961
 20
-14.42716
 30
0.0
 10
-10.752
 20
-14.42716
 30
0.0
 10
-10.75365
 20
-14.42816
 30
0.0
 10
-10.75456
 20
-14.43016
 30
0.0
 10
-10.75456
 20
-14.43016
 30
0.0
 10
-10.7555
 20
-14.43216
 30
0.0
 10
-10.75596
 20
-14.43689
 30
0.0
 10
-10.75596
 20
-14.44434
 30
0.0
 10
-10.75596
 20
-14.44434
 30
0.0
 10
-10.75596
 20
-14.44434
 30
0.0
 10
-10.75596
 20
-14.47564
 30
0.0
 10
-10.75596
 20
-14.47564
 30
0.0
 10
-10.75596
 20
-14.47564
 30
0.0
 10
-10.75596
 20
-14.47564
 30
0.0
 10
-10.76411
 20
-14.47564
 30
0.0
 10
-10.76411
 20
-14.47564
 30
0.0
 10
-10.76411
 20
-14.47564
 30
0.0
 10
-10.76411
 20
-14.47564
 30
0.0
 10
-10.76411
 20
-14.42096
 30
0.0
 10
-10.76411
 20
-14.42096
 30
0.0
 10
-10.76411
 20
-14.42096
 30
0.0
 10
-10.76411
 20
-14.42096
 30
0.0
 10
-10.75596
 20
-14.42096
 30
0.0
 10
-10.75596
 20
-14.42096
 30
0.0
 10
-10.75596
 20
-14.42096
 30
0.0
 10
-10.75596
 20
-14.42096
 30
0.0
 10
-10.75596
 20
-14.42564
 30
0.0
 10
-10.75596
 20
-14.42564
 30
0.0
 10
-10.75596
 20
-14.42564
 30
0.0
 10
-10.7549
 20
-14.42369
 30
0.0
 10
-10.75355
 20
-14.42221
 30
0.0
 10
-10.75193
 20
-14.42117
 30
0.0
 10
-10.75193
 20
-14.42117
 30
0.0
 10
-10.75033
 20
-14.42016
 30
0.0
 10
-10.7485
 20
-14.41964
 30
0.0
 10
-10.74645
 20
-14.41964
 30
0.0
 10
-10.74645
 20
-14.41964
 30
0.0
 10
-10.74396
 20
-14.41964
 30
0.0
 10
-10.74191
 20
-14.42021
 30
0.0
 10
-10.74026
 20
-14.42134
 30
0.0
 10
-10.74026
 20
-14.42134
 30
0.0
 10
-10.73861
 20
-14.42249
 30
0.0
 10
-10.73735
 20
-14.42421
 30
0.0
 10
-10.73643
 20
-14.42652
 30
0.0
  0
SPLINE
  5
85
330
1F
100
AcDbEntity
  8
Layer 1
 62
   250
100
AcDbSpline
210
0.0
220
0.0
230
1.0
 70
    11
 71
     3
 72
    20
 73
    16
 74
     0
 42
0.0000000001
 43
0.0000000001
 40
0.0
 40
0.0
 40
0.0
 40
0.0
 40
0.25
 40
0.25
 40
0.25
 40
0.25
 40
0.5
 40
0.5
 40
0.5
 40
0.5
 40
0.75
 40
0.75
 40
0.75
 40
0.75
 40
1.0
 40
1.0
 40
1.0
 40
1.0
 10
-10.68535
 20
-14.46074
 30
0.0
 10
-10.68535
 20
-14.46074
 30
0.0
 10
-10.67305
 20
-14.46074
 30
0.0
 10
-10.67305
 20
-14.46074
 30
0.0
 10
-10.67305
 20
-14.46074
 30
0.0
 10
-10.67305
 20
-14.46074
 30
0.0
 10
-10.67305
 20
-14.47564
 30
0.0
 10
-10.67305
 20
-14.47564
 30
0.0
 10
-10.67305
 20
-14.47564
 30
0.0
 10
-10.67305
 20
-14.47564
 30
0.0
 10
-10.68535
 20
-14.47564
 30
0.0
 10
-10.68535
 20
-14.47564
 30
0.0
 10
-10.68535
 20
-14.47564
 30
0.0
 10
-10.68535
 20
-14.47564
 30
0.0
 10
-10.68535
 20
-14.46074
 30
0.0
 10
-10.68535
 20
-14.46074
 30
0.0
  0
SPLINE
  5
86
330
1F
100
AcDbEntity
  8
Layer 1
 62
   250
100
AcDbSpline
210
0.0
220
0.0
230
1.0
 70
    11
 71
     3
 72
    52
 73
    48
 74
     0
 42
0.0000000001
 43
0.0000000001
 40
0.0
 40
0.0
 40
0.0
 40
0.0
 40
0.0833333333333333
 40
0.0833333333333333
 40
0.0833333333333333
 40
0.0833333333333333
 40
0.1666666666666667
 40
0.1666666666666667
 40
0.1666666666666667
 40
0.1666666666666667
 40
0.25
 40
0.25
 40
0.25
 40
0.25
 40
0.3333333333333333
 40
0.3333333333333333
 40
0.3333333333333333
 40
0.3333333333333333
 40
0.4166666666666666
 40
0.4166666666666666
 40
0.4166666666666666
 40
0.4166666666666666
 40
0.4999999999999999
 40
0.4999999999999999
 40
0.4999999999999999
 40
0.4999999999999999
 40
0.5833333333333333
 40
0.5833333333333333
 40
0.5833333333333333
 40
0.5833333333333333
 40
0.6666666666666666
 40
0.6666666666666666
 40
0.6666666666666666
 40
0.6666666666666666
 40
0.75
 40
0.75
 40
0.75
 40
0.75
 40
0.8333333333333334
 40
0.8333333333333334
 40
0.8333333333333334
 40
0.8333333333333334
 40
0.9166666666666667
 40
0.9166666666666667
 40
0.9166666666666667
 40
0.9166666666666667
 40
1.0
 40
1.0
 40
1.0
 40
1.0
 10
-10.61783
 20
-14.45582
 30
0.0
 10
-10.61783
 20
-14.45986
 30
0.0
 10
-10.6171
 20
-14.46289
 30
0.0
 10
-10.61561
 20
-14.46494
 30
0.0
 10
-10.61561
 20
-14.46494
 30
0.0
 10
-10.61413
 20
-14.46699
 30
0.0
 10
-10.61195
 20
-14.46802
 30
0.0
 10
-10.60905
 20
-14.46802
 30
0.0
 10
-10.60905
 20
-14.46802
 30
0.0
 10
-10.60905
 20
-14.46802
 30
0.0
 10
-10.59855
 20
-14.46802
 30
0.0
 10
-10.59855
 20
-14.46802
 30
0.0
 10
-10.59855
 20
-14.46802
 30
0.0
 10
-10.59855
 20
-14.46802
 30
0.0
 10
-10.59855
 20
-14.47564
 30
0.0
 10
-10.59855
 20
-14.47564
 30
0.0
 10
-10.59855
 20
-14.47564
 30
0.0
 10
-10.59855
 20
-14.47564
 30
0.0
 10
-10.60991
 20
-14.47564
 30
0.0
 10
-10.60991
 20
-14.47564
 30
0.0
 10
-10.60991
 20
-14.47564
 30
0.0
 10
-10.6153
 20
-14.47564
 30
0.0
 10
-10.61945
 20
-14.47391
 30
0.0
 10
-10.6224
 20
-14.47046
 30
0.0
 10
-10.6224
 20
-14.47046
 30
0.0
 10
-10.62535
 20
-14.46701
 30
0.0
 10
-10.62681
 20
-14.46212
 30
0.0
 10
-10.62681
 20
-14.45582
 30
0.0
 10
-10.62681
 20
-14.45582
 30
0.0
 10
-10.62681
 20
-14.45582
 30
0.0
 10
-10.62681
 20
-14.40616
 30
0.0
 10
-10.62681
 20
-14.40616
 30
0.0
 10
-10.62681
 20
-14.40616
 30
0.0
 10
-10.62681
 20
-14.40616
 30
0.0
 10
-10.64121
 20
-14.40616
 30
0.0
 10
-10.64121
 20
-14.40616
 30
0.0
 10
-10.64121
 20
-14.40616
 30
0.0
 10
-10.64121
 20
-14.40616
 30
0.0
 10
-10.64121
 20
-14.39912
 30
0.0
 10
-10.64121
 20
-14.39912
 30
0.0
 10
-10.64121
 20
-14.39912
 30
0.0
 10
-10.64121
 20
-14.39912
 30
0.0
 10
-10.61783
 20
-14.39912
 30
0.0
 10
-10.61783
 20
-14.39912
 30
0.0
 10
-10.61783
 20
-14.39912
 30
0.0
 10
-10.61783
 20
-14.39912
 30
0.0
 10
-10.61783
 20
-14.45582
 30
0.0
 10
-10.61783
 20
-14.45582
 30
0.0
  0
SPLINE
  5
87
330
1F
100
AcDbEntity
  8
Layer 1
 62
   250
100
AcDbSpline
210
0.0
220
0.0
230
1.0
 70
    11
 71
     3
 72
    76
 73
    72
 74
     0
 42
0.0000000001
 43
0.0000000001
 40
0.0
 40
0.0
 40
0.0
 40
0.0
 40
0.0555555555555556
 40
0.0555555555555556
 40
0.0555555555555556
 40
0.0555555555555556
 40
0.1111111111111111
 40
0.1111111111111111
 40
0.1111111111111111
 40
0.1111111111111111
 40
0.1666666666666667
 40
0.1666666666666667
 40
0.1666666666666667
 40
0.1666666666666667
 40
0.2222222222222222
 40
0.2222222222222222
 40
0.2222222222222222
 40
0.2222222222222222
 40
0.2777777777777778
 40
0.2777777777777778
 40
0.2777777777777778
 40
0.2777777777777778
 40
0.3333333333333334
 40
0.3333333333333334
 40
0.3333333333333334
 40
0.3333333333333334
 40
0.388888888888889
 40
0.388888888888889
 40
0.388888888888889
 40
0.388888888888889
 40
0.4444444444444445
 40
0.4444444444444445
 40
0.4444444444444445
 40
0.4444444444444445
 40
0.5000000000000001
 40
0.5000000000000001
 40
0.5000000000000001
 40
0.5000000000000001
 40
0.5555555555555557
 40
0.5555555555555557
 40
0.5555555555555557
 40
0.5555555555555557
 40
0.6111111111111113
 40
0.6111111111111113
 40
0.6111111111111113
 40
0.6111111111111113
 40
0.6666666666666669
 40
0.6666666666666669
 40
0.6666666666666669
 40
0.6666666666666669
 40
0.7222222222222224
 40
0.7222222222222224
 40
0.7222222222222224
 40
0.7222222222222224
 40
0.777777777777778
 40
0.777777777777778
 40
0.777777777777778
 40
0.777777777777778
 40
0.8333333333333336
 40
0.8333333333333336
 40
0.8333333333333336
 40
0.8333333333333336
 40
0.8888888888888892
 40
0.8888888888888892
 40
0.8888888888888892
 40
0.8888888888888892
 40
0.9444444444444448
 40
0.9444444444444448
 40
0.9444444444444448
 40
0.9444444444444448
 40
1.0
 40
1.0
 40
1.0
 40
1.0
 10
-10.55885
 20
-14.40542
 30
0.0
 10
-10.55885
 20
-14.40542
 30
0.0
 10
-10.55885
 20
-14.42096
 30
0.0
 10
-10.55885
 20
-14.42096
 30
0.0
 10
-10.55885
 20
-14.42096
 30
0.0
 10
-10.55885
 20
-14.42096
 30
0.0
 10
-10.53843
 20
-14.42096
 30
0.0
 10
-10.53843
 20
-14.42096
 30
0.0
 10
-10.53843
 20
-14.42096
 30
0.0
 10
-10.53843
 20
-14.42096
 30
0.0
 10
-10.53843
 20
-14.42794
 30
0.0
 10
-10.53843
 20
-14.42794
 30
0.0
 10
-10.53843
 20
-14.42794
 30
0.0
 10
-10.53843
 20
-14.42794
 30
0.0
 10
-10.55885
 20
-14.42794
 30
0.0
 10
-10.55885
 20
-14.42794
 30
0.0
 10
-10.55885
 20
-14.42794
 30
0.0
 10
-10.55885
 20
-14.42794
 30
0.0
 10
-10.55885
 20
-14.45762
 30
0.0
 10
-10.55885
 20
-14.45762
 30
0.0
 10
-10.55885
 20
-14.45762
 30
0.0
 10
-10.55885
 20
-14.46166
 30
0.0
 10
-10.55808
 20
-14.46447
 30
0.0
 10
-10.55655
 20
-14.46606
 30
0.0
 10
-10.55655
 20
-14.46606
 30
0.0
 10
-10.55501
 20
-14.46766
 30
0.0
 10
-10.55235
 20
-14.46846
 30
0.0
 10
-10.54855
 20
-14.46846
 30
0.0
 10
-10.54855
 20
-14.46846
 30
0.0
 10
-10.54855
 20
-14.46846
 30
0.0
 10
-10.53843
 20
-14.46846
 30
0.0
 10
-10.53843
 20
-14.46846
 30
0.0
 10
-10.53843
 20
-14.46846
 30
0.0
 10
-10.53843
 20
-14.46846
 30
0.0
 10
-10.53843
 20
-14.47564
 30
0.0
 10
-10.53843
 20
-14.47564
 30
0.0
 10
-10.53843
 20
-14.47564
 30
0.0
 10
-10.53843
 20
-14.47564
 30
0.0
 10
-10.54941
 20
-14.47564
 30
0.0
 10
-10.54941
 20
-14.47564
 30
0.0
 10
-10.54941
 20
-14.47564
 30
0.0
 10
-10.55616
 20
-14.47564
 30
0.0
 10
-10.56091
 20
-14.47429
 30
0.0
 10
-10.56368
 20
-14.47159
 30
0.0
 10
-10.56368
 20
-14.47159
 30
0.0
 10
-10.56645
 20
-14.46889
 30
0.0
 10
-10.56783
 20
-14.46422
 30
0.0
 10
-10.56783
 20
-14.45762
 30
0.0
 10
-10.56783
 20
-14.45762
 30
0.0
 10
-10.56783
 20
-14.45762
 30
0.0
 10
-10.56783
 20
-14.42794
 30
0.0
 10
-10.56783
 20
-14.42794
 30
0.0
 10
-10.56783
 20
-14.42794
 30
0.0
 10
-10.56783
 20
-14.42794
 30
0.0
 10
-10.58243
 20
-14.42794
 30
0.0
 10
-10.58243
 20
-14.42794
 30
0.0
 10
-10.58243
 20
-14.42794
 30
0.0
 10
-10.58243
 20
-14.42794
 30
0.0
 10
-10.58243
 20
-14.42096
 30
0.0
 10
-10.58243
 20
-14.42096
 30
0.0
 10
-10.58243
 20
-14.42096
 30
0.0
 10
-10.58243
 20
-14.42096
 30
0.0
 10
-10.56783
 20
-14.42096
 30
0.0
 10
-10.56783
 20
-14.42096
 30
0.0
 10
-10.56783
 20
-14.42096
 30
0.0
 10
-10.56783
 20
-14.42096
 30
0.0
 10
-10.56783
 20
-14.40542
 30
0.0
 10
-10.56783
 20
-14.40542
 30
0.0
 10
-10.56783
 20
-14.40542
 30
0.0
 10
-10.56783
 20
-14.40542
 30
0.0
 10
-10.55885
 20
-14.40542
 30
0.0
 10
-10.55885
 20
-14.40542
 30
0.0
  0
SPLINE
  5
88
330
1F
100
AcDbEntity
  8
Layer 1
 62
   250
100
AcDbSpline
210
0.0
220
0.0
230
1.0
 70
    11
 71
     3
 72
    20
 73
    16
 74
     0
 42
0.0000000001
 43
0.0000000001
 40
0.0
 40
0.0
 40
0.0
 40
0.0
 40
0.25
 40
0.25
 40
0.25
 40
0.25
 40
0.5
 40
0.5
 40
0.5
 40
0.5
 40
0.75
 40
0.75
 40
0.75
 40
0.75
 40
1.0
 40
1.0
 40
1.0
 40
1.0
 10
-10.48521
 20
-14.40274
 30
0.0
 10
-10.48521
 20
-14.40274
 30
0.0
 10
-10.47593
 20
-14.40274
 30
0.0
 10
-10.47593
 20
-14.40274
 30
0.0
 10
-10.47593
 20
-14.40274
 30
0.0
 10
-10.47593
 20
-14.40274
 30
0.0
 10
-10.51431
 20
-14.48492
 30
0.0
 10
-10.51431
 20
-14.48492
 30
0.0
 10
-10.51431
 20
-14.48492
 30
0.0
 10
-10.51431
 20
-14.48492
 30
0.0
 10
-10.52365
 20
-14.48492
 30
0.0
 10
-10.52365
 20
-14.48492
 30
0.0
 10
-10.52365
 20
-14.48492
 30
0.0
 10
-10.52365
 20
-14.48492
 30
0.0
 10
-10.48521
 20
-14.40274
 30
0.0
 10
-10.48521
 20
-14.40274
 30
0.0
  0
SPLINE
  5
89
330
1F
100
AcDbEntity
  8
Layer 1
 62
   250
100
AcDbSpline
210
0.0
220
0.0
230
1.0
 70
    11
 71
     3
 72
    76
 73
    72
 74
     0
 42
0.0000000001
 43
0.0000000001
 40
0.0
 40
0.0
 40
0.0
 40
0.0
 40
0.0555555555555556
 40
0.0555555555555556
 40
0.0555555555555556
 40
0.0555555555555556
 40
0.1111111111111111
 40
0.1111111111111111
 40
0.1111111111111111
 40
0.1111111111111111
 40
0.1666666666666667
 40
0.1666666666666667
 40
0.1666666666666667
 40
0.1666666666666667
 40
0.2222222222222222
 40
0.2222222222222222
 40
0.2222222222222222
 40
0.2222222222222222
 40
0.2777777777777778
 40
0.2777777777777778
 40
0.2777777777777778
 40
0.2777777777777778
 40
0.3333333333333334
 40
0.3333333333333334
 40
0.3333333333333334
 40
0.3333333333333334
 40
0.388888888888889
 40
0.388888888888889
 40
0.388888888888889
 40
0.388888888888889
 40
0.4444444444444445
 40
0.4444444444444445
 40
0.4444444444444445
 40
0.4444444444444445
 40
0.5000000000000001
 40
0.5000000000000001
 40
0.5000000000000001
 40
0.5000000000000001
 40
0.5555555555555557
 40
0.5555555555555557
 40
0.5555555555555557
 40
0.5555555555555557
 40
0.6111111111111113
 40
0.6111111111111113
 40
0.6111111111111113
 40
0.6111111111111113
 40
0.6666666666666669
 40
0.6666666666666669
 40
0.6666666666666669
 40
0.6666666666666669
 40
0.7222222222222224
 40
0.7222222222222224
 40
0.7222222222222224
 40
0.7222222222222224
 40
0.777777777777778
 40
0.777777777777778
 40
0.777777777777778
 40
0.777777777777778
 40
0.8333333333333336
 40
0.8333333333333336
 40
0.8333333333333336
 40
0.8333333333333336
 40
0.8888888888888892
 40
0.8888888888888892
 40
0.8888888888888892
 40
0.8888888888888892
 40
0.9444444444444448
 40
0.9444444444444448
 40
0.9444444444444448
 40
0.9444444444444448
 40
1.0
 40
1.0
 40
1.0
 40
1.0
 10
-10.41565
 20
-14.47354
 30
0.0
 10
-10.41793
 20
-14.47471
 30
0.0
 10
-10.42031
 20
-14.47559
 30
0.0
 10
-10.42283
 20
-14.47617
 30
0.0
 10
-10.42283
 20
-14.47617
 30
0.0
 10
-10.42533
 20
-14.47676
 30
0.0
 10
-10.42796
 20
-14.47706
 30
0.0
 10
-10.43073
 20
-14.47706
 30
0.0
 10
-10.43073
 20
-14.47706
 30
0.0
 10
-10.44056
 20
-14.47706
 30
0.0
 10
-10.44808
 20
-14.47382
 30
0.0
 10
-10.45325
 20
-14.46734
 30
0.0
 10
-10.45325
 20
-14.46734
 30
0.0
 10
-10.45843
 20
-14.46086
 30
0.0
 10
-10.46101
 20
-14.45151
 30
0.0
 10
-10.46101
 20
-14.43926
 30
0.0
 10
-10.46101
 20
-14.43926
 30
0.0
 10
-10.46101
 20
-14.42699
 30
0.0
 10
-10.45843
 20
-14.41762
 30
0.0
 10
-10.45325
 20
-14.41114
 30
0.0
 10
-10.45325
 20
-14.41114
 30
0.0
 10
-10.44808
 20
-14.40466
 30
0.0
 10
-10.44056
 20
-14.40142
 30
0.0
 10
-10.43073
 20
-14.40142
 30
0.0
 10
-10.43073
 20
-14.40142
 30
0.0
 10
-10.42796
 20
-14.40142
 30
0.0
 10
-10.42531
 20
-14.40172
 30
0.0
 10
-10.42278
 20
-14.40231
 30
0.0
 10
-10.42278
 20
-14.40231
 30
0.0
 10
-10.42023
 20
-14.40289
 30
0.0
 10
-10.41786
 20
-14.40377
 30
0.0
 10
-10.41565
 20
-14.40494
 30
0.0
 10
-10.41565
 20
-14.40494
 30
0.0
 10
-10.41565
 20
-14.40494
 30
0.0
 10
-10.41565
 20
-14.42096
 30
0.0
 10
-10.41565
 20
-14.42096
 30
0.0
 10
-10.41565
 20
-14.42096
 30
0.0
 10
-10.41811
 20
-14.41867
 30
0.0
 10
-10.42053
 20
-14.41701
 30
0.0
 10
-10.42285
 20
-14.41594
 30
0.0
 10
-10.42285
 20
-14.41594
 30
0.0
 10
-10.42518
 20
-14.41489
 30
0.0
 10
-10.42758
 20
-14.41436
 30
0.0
 10
-10.43006
 20
-14.41436
 30
0.0
 10
-10.43006
 20
-14.41436
 30
0.0
 10
-10.43533
 20
-14.41436
 30
0.0
 10
-10.43931
 20
-14.41646
 30
0.0
 10
-10.442
 20
-14.42064
 30
0.0
 10
-10.442
 20
-14.42064
 30
0.0
 10
-10.44468
 20
-14.42482
 30
0.0
 10
-10.44603
 20
-14.43102
 30
0.0
 10
-10.44603
 20
-14.43926
 30
0.0
 10
-10.44603
 20
-14.43926
 30
0.0
 10
-10.44603
 20
-14.44747
 30
0.0
 10
-10.44468
 20
-14.45366
 30
0.0
 10
-10.442
 20
-14.45784
 30
0.0
 10
-10.442
 20
-14.45784
 30
0.0
 10
-10.43931
 20
-14.46202
 30
0.0
 10
-10.43533
 20
-14.46412
 30
0.0
 10
-10.43006
 20
-14.46412
 30
0.0
 10
-10.43006
 20
-14.46412
 30
0.0
 10
-10.42758
 20
-14.46412
 30
0.0
 10
-10.42518
 20
-14.46359
 30
0.0
 10
-10.42285
 20
-14.46254
 30
0.0
 10
-10.42285
 20
-14.46254
 30
0.0
 10
-10.42053
 20
-14.46147
 30
0.0
 10
-10.41811
 20
-14.45981
 30
0.0
 10
-10.41565
 20
-14.45752
 30
0.0
 10
-10.41565
 20
-14.45752
 30
0.0
 10
-10.41565
 20
-14.45752
 30
0.0
 10
-10.41565
 20
-14.47354
 30
0.0
 10
-10.41565
 20
-14.47354
 30
0.0
  0
SPLINE
  5
8A
330
1F
100
AcDbEntity
  8
Layer 1
 62
   250
100
AcDbSpline
210
0.0
220
0.0
230
1.0
 70
    11
 71
     3
 72
    76
 73
    72
 74
     0
 42
0.0000000001
 43
0.0000000001
 40
0.0
 40
0.0
 40
0.0
 40
0.0
 40
0.0555555555555556
 40
0.0555555555555556
 40
0.0555555555555556
 40
0.0555555555555556
 40
0.1111111111111111
 40
0.1111111111111111
 40
0.1111111111111111
 40
0.1111111111111111
 40
0.1666666666666667
 40
0.1666666666666667
 40
0.1666666666666667
 40
0.1666666666666667
 40
0.2222222222222222
 40
0.2222222222222222
 40
0.2222222222222222
 40
0.2222222222222222
 40
0.2777777777777778
 40
0.2777777777777778
 40
0.2777777777777778
 40
0.2777777777777778
 40
0.3333333333333334
 40
0.3333333333333334
 40
0.3333333333333334
 40
0.3333333333333334
 40
0.388888888888889
 40
0.388888888888889
 40
0.388888888888889
 40
0.388888888888889
 40
0.4444444444444445
 40
0.4444444444444445
 40
0.4444444444444445
 40
0.4444444444444445
 40
0.5000000000000001
 40
0.5000000000000001
 40
0.5000000000000001
 40
0.5000000000000001
 40
0.5555555555555557
 40
0.5555555555555557
 40
0.5555555555555557
 40
0.5555555555555557
 40
0.6111111111111113
 40
0.6111111111111113
 40
0.6111111111111113
 40
0.6111111111111113
 40
0.6666666666666669
 40
0.6666666666666669
 40
0.6666666666666669
 40
0.6666666666666669
 40
0.7222222222222224
 40
0.7222222222222224
 40
0.7222222222222224
 40
0.7222222222222224
 40
0.777777777777778
 40
0.777777777777778
 40
0.777777777777778
 40
0.777777777777778
 40
0.8333333333333336
 40
0.8333333333333336
 40
0.8333333333333336
 40
0.8333333333333336
 40
0.8888888888888892
 40
0.8888888888888892
 40
0.8888888888888892
 40
0.8888888888888892
 40
0.9444444444444448
 40
0.9444444444444448
 40
0.9444444444444448
 40
0.9444444444444448
 40
1.0
 40
1.0
 40
1.0
 40
1.0
 10
-10.35545
 20
-14.47354
 30
0.0
 10
-10.35773
 20
-14.47471
 30
0.0
 10
-10.36011
 20
-14.47559
 30
0.0
 10
-10.36263
 20
-14.47617
 30
0.0
 10
-10.36263
 20
-14.47617
 30
0.0
 10
-10.36513
 20
-14.47676
 30
0.0
 10
-10.36776
 20
-14.47706
 30
0.0
 10
-10.37053
 20
-14.47706
 30
0.0
 10
-10.37053
 20
-14.47706
 30
0.0
 10
-10.38036
 20
-14.47706
 30
0.0
 10
-10.38788
 20
-14.47382
 30
0.0
 10
-10.39305
 20
-14.46734
 30
0.0
 10
-10.39305
 20
-14.46734
 30
0.0
 10
-10.39823
 20
-14.46086
 30
0.0
 10
-10.40081
 20
-14.45151
 30
0.0
 10
-10.40081
 20
-14.43926
 30
0.0
 10
-10.40081
 20
-14.43926
 30
0.0
 10
-10.40081
 20
-14.42699
 30
0.0
 10
-10.39823
 20
-14.41762
 30
0.0
 10
-10.39305
 20
-14.41114
 30
0.0
 10
-10.39305
 20
-14.41114
 30
0.0
 10
-10.38788
 20
-14.40466
 30
0.0
 10
-10.38036
 20
-14.40142
 30
0.0
 10
-10.37053
 20
-14.40142
 30
0.0
 10
-10.37053
 20
-14.40142
 30
0.0
 10
-10.36776
 20
-14.40142
 30
0.0
 10
-10.36511
 20
-14.40172
 30
0.0
 10
-10.36258
 20
-14.40231
 30
0.0
 10
-10.36258
 20
-14.40231
 30
0.0
 10
-10.36003
 20
-14.40289
 30
0.0
 10
-10.35766
 20
-14.40377
 30
0.0
 10
-10.35545
 20
-14.40494
 30
0.0
 10
-10.35545
 20
-14.40494
 30
0.0
 10
-10.35545
 20
-14.40494
 30
0.0
 10
-10.35545
 20
-14.42096
 30
0.0
 10
-10.35545
 20
-14.42096
 30
0.0
 10
-10.35545
 20
-14.42096
 30
0.0
 10
-10.35791
 20
-14.41867
 30
0.0
 10
-10.36033
 20
-14.41701
 30
0.0
 10
-10.36265
 20
-14.41594
 30
0.0
 10
-10.36265
 20
-14.41594
 30
0.0
 10
-10.36498
 20
-14.41489
 30
0.0
 10
-10.36738
 20
-14.41436
 30
0.0
 10
-10.36986
 20
-14.41436
 30
0.0
 10
-10.36986
 20
-14.41436
 30
0.0
 10
-10.37513
 20
-14.41436
 30
0.0
 10
-10.37911
 20
-14.41646
 30
0.0
 10
-10.3818
 20
-14.42064
 30
0.0
 10
-10.3818
 20
-14.42064
 30
0.0
 10
-10.38448
 20
-14.42482
 30
0.0
 10
-10.38583
 20
-14.43102
 30
0.0
 10
-10.38583
 20
-14.43926
 30
0.0
 10
-10.38583
 20
-14.43926
 30
0.0
 10
-10.38583
 20
-14.44747
 30
0.0
 10
-10.38448
 20
-14.45366
 30
0.0
 10
-10.3818
 20
-14.45784
 30
0.0
 10
-10.3818
 20
-14.45784
 30
0.0
 10
-10.37911
 20
-14.46202
 30
0.0
 10
-10.37513
 20
-14.46412
 30
0.0
 10
-10.36986
 20
-14.46412
 30
0.0
 10
-10.36986
 20
-14.46412
 30
0.0
 10
-10.36738
 20
-14.46412
 30
0.0
 10
-10.36498
 20
-14.46359
 30
0.0
 10
-10.36265
 20
-14.46254
 30
0.0
 10
-10.36265
 20
-14.46254
 30
0.0
 10
-10.36033
 20
-14.46147
 30
0.0
 10
-10.35791
 20
-14.45981
 30
0.0
 10
-10.35545
 20
-14.45752
 30
0.0
 10
-10.35545
 20
-14.45752
 30
0.0
 10
-10.35545
 20
-14.45752
 30
0.0
 10
-10.35545
 20
-14.47354
 30
0.0
 10
-10.35545
 20
-14.47354
 30
0.0
  0
SPLINE
  5
8B
330
1F
100
AcDbEntity
  8
Layer 1
 62
   250
100
AcDbSpline
210
0.0
220
0.0
230
1.0
 70
    11
 71
     3
 72
    32
 73
    28
 74
     0
 42
0.0000000001
 43
0.0000000001
 40
0.0
 40
0.0
 40
0.0
 40
0.0
 40
0.1428571428571428
 40
0.1428571428571428
 40
0.1428571428571428
 40
0.1428571428571428
 40
0.2857142857142857
 40
0.2857142857142857
 40
0.2857142857142857
 40
0.2857142857142857
 40
0.4285714285714285
 40
0.4285714285714285
 40
0.4285714285714285
 40
0.4285714285714285
 40
0.5714285714285714
 40
0.5714285714285714
 40
0.5714285714285714
 40
0.5714285714285714
 40
0.7142857142857142
 40
0.7142857142857142
 40
0.7142857142857142
 40
0.7142857142857142
 40
0.857142857142857
 40
0.857142857142857
 40
0.857142857142857
 40
0.857142857142857
 40
1.0
 40
1.0
 40
1.0
 40
1.0
 10
-10.32571
 20
-14.41486
 30
0.0
 10
-10.32571
 20
-14.41486
 30
0.0
 10
-10.32571
 20
-14.43622
 30
0.0
 10
-10.32571
 20
-14.43622
 30
0.0
 10
-10.32571
 20
-14.43622
 30
0.0
 10
-10.32571
 20
-14.43622
 30
0.0
 10
-10.3198
 20
-14.43622
 30
0.0
 10
-10.3198
 20
-14.43622
 30
0.0
 10
-10.3198
 20
-14.43622
 30
0.0
 10
-10.31508
 20
-14.43622
 30
0.0
 10
-10.31176
 20
-14.43542
 30
0.0
 10
-10.30986
 20
-14.43384
 30
0.0
 10
-10.30986
 20
-14.43384
 30
0.0
 10
-10.30795
 20
-14.43224
 30
0.0
 10
-10.307
 20
-14.42947
 30
0.0
 10
-10.307
 20
-14.42554
 30
0.0
 10
-10.307
 20
-14.42554
 30
0.0
 10
-10.307
 20
-14.42161
 30
0.0
 10
-10.30795
 20
-14.41884
 30
0.0
 10
-10.30986
 20
-14.41724
 30
0.0
 10
-10.30986
 20
-14.41724
 30
0.0
 10
-10.31176
 20
-14.41566
 30
0.0
 10
-10.31508
 20
-14.41486
 30
0.0
 10
-10.3198
 20
-14.41486
 30
0.0
 10
-10.3198
 20
-14.41486
 30
0.0
 10
-10.3198
 20
-14.41486
 30
0.0
 10
-10.32571
 20
-14.41486
 30
0.0
 10
-10.32571
 20
-14.41486
 30
0.0
  0
SPLINE
  5
8C
330
1F
100
AcDbEntity
  8
Layer 1
 62
   250
100
AcDbSpline
210
0.0
220
0.0
230
1.0
 70
    11
 71
     3
 72
    40
 73
    36
 74
     0
 42
0.0000000001
 43
0.0000000001
 40
0.0
 40
0.0
 40
0.0
 40
0.0
 40
0.1111111111111111
 40
0.1111111111111111
 40
0.1111111111111111
 40
0.1111111111111111
 40
0.2222222222222222
 40
0.2222222222222222
 40
0.2222222222222222
 40
0.2222222222222222
 40
0.3333333333333333
 40
0.3333333333333333
 40
0.3333333333333333
 40
0.3333333333333333
 40
0.4444444444444444
 40
0.4444444444444444
 40
0.4444444444444444
 40
0.4444444444444444
 40
0.5555555555555556
 40
0.5555555555555556
 40
0.5555555555555556
 40
0.5555555555555556
 40
0.6666666666666667
 40
0.6666666666666667
 40
0.6666666666666667
 40
0.6666666666666667
 40
0.7777777777777779
 40
0.7777777777777779
 40
0.7777777777777779
 40
0.7777777777777779
 40
0.8888888888888891
 40
0.8888888888888891
 40
0.8888888888888891
 40
0.8888888888888891
 40
1.0
 40
1.0
 40
1.0
 40
1.0
 10
-10.34011
 20
-14.40274
 30
0.0
 10
-10.34011
 20
-14.40274
 30
0.0
 10
-10.32033
 20
-14.40274
 30
0.0
 10
-10.32033
 20
-14.40274
 30
0.0
 10
-10.32033
 20
-14.40274
 30
0.0
 10
-10.31028
 20
-14.40274
 30
0.0
 10
-10.30305
 20
-14.40452
 30
0.0
 10
-10.29863
 20
-14.40811
 30
0.0
 10
-10.29863
 20
-14.40811
 30
0.0
 10
-10.29421
 20
-14.41169
 30
0.0
 10
-10.29201
 20
-14.41751
 30
0.0
 10
-10.29201
 20
-14.42554
 30
0.0
 10
-10.29201
 20
-14.42554
 30
0.0
 10
-10.29201
 20
-14.43357
 30
0.0
 10
-10.29421
 20
-14.43939
 30
0.0
 10
-10.29863
 20
-14.44297
 30
0.0
 10
-10.29863
 20
-14.44297
 30
0.0
 10
-10.30305
 20
-14.44656
 30
0.0
 10
-10.31028
 20
-14.44834
 30
0.0
 10
-10.32033
 20
-14.44834
 30
0.0
 10
-10.32033
 20
-14.44834
 30
0.0
 10
-10.32033
 20
-14.44834
 30
0.0
 10
-10.32571
 20
-14.44834
 30
0.0
 10
-10.32571
 20
-14.44834
 30
0.0
 10
-10.32571
 20
-14.44834
 30
0.0
 10
-10.32571
 20
-14.44834
 30
0.0
 10
-10.32571
 20
-14.47564
 30
0.0
 10
-10.32571
 20
-14.47564
 30
0.0
 10
-10.32571
 20
-14.47564
 30
0.0
 10
-10.32571
 20
-14.47564
 30
0.0
 10
-10.34011
 20
-14.47564
 30
0.0
 10
-10.34011
 20
-14.47564
 30
0.0
 10
-10.34011
 20
-14.47564
 30
0.0
 10
-10.34011
 20
-14.47564
 30
0.0
 10
-10.34011
 20
-14.40274
 30
0.0
 10
-10.34011
 20
-14.40274
 30
0.0
  0
SPLINE
  5
8D
330
1F
100
AcDbEntity
  8
Layer 1
 62
   250
100
AcDbSpline
210
0.0
220
0.0
230
1.0
 70
    11
 71
     3
 72
    36
 73
    32
 74
     0
 42
0.0000000001
 43
0.0000000001
 40
0.0
 40
0.0
 40
0.0
 40
0.0
 40
0.125
 40
0.125
 40
0.125
 40
0.125
 40
0.25
 40
0.25
 40
0.25
 40
0.25
 40
0.375
 40
0.375
 40
0.375
 40
0.375
 40
0.5
 40
0.5
 40
0.5
 40
0.5
 40
0.625
 40
0.625
 40
0.625
 40
0.625
 40
0.75
 40
0.75
 40
0.75
 40
0.75
 40
0.875
 40
0.875
 40
0.875
 40
0.875
 40
1.0
 40
1.0
 40
1.0
 40
1.0
 10
-10.26381
 20
-14.43926
 30
0.0
 10
-10.26381
 20
-14.43754
 30
0.0
 10
-10.26323
 20
-14.43609
 30
0.0
 10
-10.26205
 20
-14.43492
 30
0.0
 10
-10.26205
 20
-14.43492
 30
0.0
 10
-10.26088
 20
-14.43374
 30
0.0
 10
-10.25945
 20
-14.43316
 30
0.0
 10
-10.25775
 20
-14.43316
 30
0.0
 10
-10.25775
 20
-14.43316
 30
0.0
 10
-10.25603
 20
-14.43316
 30
0.0
 10
-10.25458
 20
-14.43374
 30
0.0
 10
-10.25341
 20
-14.43492
 30
0.0
 10
-10.25341
 20
-14.43492
 30
0.0
 10
-10.25223
 20
-14.43609
 30
0.0
 10
-10.25165
 20
-14.43754
 30
0.0
 10
-10.25165
 20
-14.43926
 30
0.0
 10
-10.25165
 20
-14.43926
 30
0.0
 10
-10.25165
 20
-14.44096
 30
0.0
 10
-10.25223
 20
-14.44239
 30
0.0
 10
-10.25341
 20
-14.44356
 30
0.0
 10
-10.25341
 20
-14.44356
 30
0.0
 10
-10.25458
 20
-14.44474
 30
0.0
 10
-10.25603
 20
-14.44532
 30
0.0
 10
-10.25775
 20
-14.44532
 30
0.0
 10
-10.25775
 20
-14.44532
 30
0.0
 10
-10.25945
 20
-14.44532
 30
0.0
 10
-10.26088
 20
-14.44474
 30
0.0
 10
-10.26205
 20
-14.44359
 30
0.0
 10
-10.26205
 20
-14.44359
 30
0.0
 10
-10.26323
 20
-14.44244
 30
0.0
 10
-10.26381
 20
-14.44099
 30
0.0
 10
-10.26381
 20
-14.43926
 30
0.0
  0
SPLINE
  5
8E
330
1F
100
AcDbEntity
  8
Layer 1
 62
   250
100
AcDbSpline
210
0.0
220
0.0
230
1.0
 70
    11
 71
     3
 72
    36
 73
    32
 74
     0
 42
0.0000000001
 43
0.0000000001
 40
0.0
 40
0.0
 40
0.0
 40
0.0
 40
0.125
 40
0.125
 40
0.125
 40
0.125
 40
0.25
 40
0.25
 40
0.25
 40
0.25
 40
0.375
 40
0.375
 40
0.375
 40
0.375
 40
0.5
 40
0.5
 40
0.5
 40
0.5
 40
0.625
 40
0.625
 40
0.625
 40
0.625
 40
0.75
 40
0.75
 40
0.75
 40
0.75
 40
0.875
 40
0.875
 40
0.875
 40
0.875
 40
1.0
 40
1.0
 40
1.0
 40
1.0
 10
-10.25775
 20
-14.41362
 30
0.0
 10
-10.26108
 20
-14.41362
 30
0.0
 10
-10.2635
 20
-14.41566
 30
0.0
 10
-10.26503
 20
-14.41972
 30
0.0
 10
-10.26503
 20
-14.41972
 30
0.0
 10
-10.26656
 20
-14.42381
 30
0.0
 10
-10.26733
 20
-14.43031
 30
0.0
 10
-10.26733
 20
-14.43926
 30
0.0
 10
-10.26733
 20
-14.43926
 30
0.0
 10
-10.26733
 20
-14.44819
 30
0.0
 10
-10.26656
 20
-14.45467
 30
0.0
 10
-10.26503
 20
-14.45876
 30
0.0
 10
-10.26503
 20
-14.45876
 30
0.0
 10
-10.2635
 20
-14.46282
 30
0.0
 10
-10.26108
 20
-14.46486
 30
0.0
 10
-10.25775
 20
-14.46486
 30
0.0
 10
-10.25775
 20
-14.46486
 30
0.0
 10
-10.2544
 20
-14.46486
 30
0.0
 10
-10.25196
 20
-14.46282
 30
0.0
 10
-10.25043
 20
-14.45876
 30
0.0
 10
-10.25043
 20
-14.45876
 30
0.0
 10
-10.2489
 20
-14.45467
 30
0.0
 10
-10.24813
 20
-14.44819
 30
0.0
 10
-10.24813
 20
-14.43926
 30
0.0
 10
-10.24813
 20
-14.43926
 30
0.0
 10
-10.24813
 20
-14.43031
 30
0.0
 10
-10.2489
 20
-14.42381
 30
0.0
 10
-10.25043
 20
-14.41972
 30
0.0
 10
-10.25043
 20
-14.41972
 30
0.0
 10
-10.25196
 20
-14.41566
 30
0.0
 10
-10.2544
 20
-14.41362
 30
0.0
 10
-10.25775
 20
-14.41362
 30
0.0
  0
SPLINE
  5
8F
330
1F
100
AcDbEntity
  8
Layer 1
 62
   250
100
AcDbSpline
210
0.0
220
0.0
230
1.0
 70
    11
 71
     3
 72
    36
 73
    32
 74
     0
 42
0.0000000001
 43
0.0000000001
 40
0.0
 40
0.0
 40
0.0
 40
0.0
 40
0.125
 40
0.125
 40
0.125
 40
0.125
 40
0.25
 40
0.25
 40
0.25
 40
0.25
 40
0.375
 40
0.375
 40
0.375
 40
0.375
 40
0.5
 40
0.5
 40
0.5
 40
0.5
 40
0.625
 40
0.625
 40
0.625
 40
0.625
 40
0.75
 40
0.75
 40
0.75
 40
0.75
 40
0.875
 40
0.875
 40
0.875
 40
0.875
 40
1.0
 40
1.0
 40
1.0
 40
1.0
 10
-10.28183
 20
-14.43926
 30
0.0
 10
-10.28183
 20
-14.42664
 30
0.0
 10
-10.27983
 20
-14.41717
 30
0.0
 10
-10.27583
 20
-14.41087
 30
0.0
 10
-10.27583
 20
-14.41087
 30
0.0
 10
-10.27181
 20
-14.40457
 30
0.0
 10
-10.2658
 20
-14.40142
 30
0.0
 10
-10.25775
 20
-14.40142
 30
0.0
 10
-10.25775
 20
-14.40142
 30
0.0
 10
-10.24968
 20
-14.40142
 30
0.0
 10
-10.24365
 20
-14.40456
 30
0.0
 10
-10.23963
 20
-14.41084
 30
0.0
 10
-10.23963
 20
-14.41084
 30
0.0
 10
-10.23563
 20
-14.41712
 30
0.0
 10
-10.23363
 20
-14.42661
 30
0.0
 10
-10.23363
 20
-14.43926
 30
0.0
 10
-10.23363
 20
-14.43926
 30
0.0
 10
-10.23363
 20
-14.45189
 30
0.0
 10
-10.23563
 20
-14.46136
 30
0.0
 10
-10.23963
 20
-14.46764
 30
0.0
 10
-10.23963
 20
-14.46764
 30
0.0
 10
-10.24365
 20
-14.47392
 30
0.0
 10
-10.24968
 20
-14.47706
 30
0.0
 10
-10.25775
 20
-14.47706
 30
0.0
 10
-10.25775
 20
-14.47706
 30
0.0
 10
-10.2658
 20
-14.47706
 30
0.0
 10
-10.27181
 20
-14.47391
 30
0.0
 10
-10.27583
 20
-14.46761
 30
0.0
 10
-10.27583
 20
-14.46761
 30
0.0
 10
-10.27983
 20
-14.46131
 30
0.0
 10
-10.28183
 20
-14.45186
 30
0.0
 10
-10.28183
 20
-14.43926
 30
0.0
  0
SPLINE
  5
90
330
1F
100
AcDbEntity
  8
Layer 1
 62
   250
100
AcDbSpline
210
0.0
220
0.0
230
1.0
 70
    11
 71
     3
 72
    88
 73
    84
 74
     0
 42
0.0000000001
 43
0.0000000001
 40
0.0
 40
0.0
 40
0.0
 40
0.0
 40
0.0476190476190476
 40
0.0476190476190476
 40
0.0476190476190476
 40
0.0476190476190476
 40
0.0952380952380952
 40
0.0952380952380952
 40
0.0952380952380952
 40
0.0952380952380952
 40
0.1428571428571428
 40
0.1428571428571428
 40
0.1428571428571428
 40
0.1428571428571428
 40
0.1904761904761905
 40
0.1904761904761905
 40
0.1904761904761905
 40
0.1904761904761905
 40
0.2380952380952381
 40
0.2380952380952381
 40
0.2380952380952381
 40
0.2380952380952381
 40
0.2857142857142857
 40
0.2857142857142857
 40
0.2857142857142857
 40
0.2857142857142857
 40
0.3333333333333333
 40
0.3333333333333333
 40
0.3333333333333333
 40
0.3333333333333333
 40
0.3809523809523809
 40
0.3809523809523809
 40
0.3809523809523809
 40
0.3809523809523809
 40
0.4285714285714285
 40
0.4285714285714285
 40
0.4285714285714285
 40
0.4285714285714285
 40
0.4761904761904762
 40
0.4761904761904762
 40
0.4761904761904762
 40
0.4761904761904762
 40
0.5238095238095237
 40
0.5238095238095237
 40
0.5238095238095237
 40
0.5238095238095237
 40
0.5714285714285714
 40
0.5714285714285714
 40
0.5714285714285714
 40
0.5714285714285714
 40
0.6190476190476191
 40
0.6190476190476191
 40
0.6190476190476191
 40
0.6190476190476191
 40
0.6666666666666667
 40
0.6666666666666667
 40
0.6666666666666667
 40
0.6666666666666667
 40
0.7142857142857144
 40
0.7142857142857144
 40
0.7142857142857144
 40
0.7142857142857144
 40
0.7619047619047621
 40
0.7619047619047621
 40
0.7619047619047621
 40
0.7619047619047621
 40
0.8095238095238098
 40
0.8095238095238098
 40
0.8095238095238098
 40
0.8095238095238098
 40
0.8571428571428574
 40
0.8571428571428574
 40
0.8571428571428574
 40
0.8571428571428574
 40
0.9047619047619051
 40
0.9047619047619051
 40
0.9047619047619051
 40
0.9047619047619051
 40
0.9523809523809528
 40
0.9523809523809528
 40
0.9523809523809528
 40
0.9523809523809528
 40
1.0
 40
1.0
 40
1.0
 40
1.0
 10
-10.20645
 20
-14.46294
 30
0.0
 10
-10.20645
 20
-14.46294
 30
0.0
 10
-10.17573
 20
-14.46294
 30
0.0
 10
-10.17573
 20
-14.46294
 30
0.0
 10
-10.17573
 20
-14.46294
 30
0.0
 10
-10.17573
 20
-14.46294
 30
0.0
 10
-10.17573
 20
-14.47564
 30
0.0
 10
-10.17573
 20
-14.47564
 30
0.0
 10
-10.17573
 20
-14.47564
 30
0.0
 10
-10.17573
 20
-14.47564
 30
0.0
 10
-10.22201
 20
-14.47564
 30
0.0
 10
-10.22201
 20
-14.47564
 30
0.0
 10
-10.22201
 20
-14.47564
 30
0.0
 10
-10.22201
 20
-14.47564
 30
0.0
 10
-10.22201
 20
-14.46332
 30
0.0
 10
-10.22201
 20
-14.46332
 30
0.0
 10
-10.22201
 20
-14.46332
 30
0.0
 10
-10.22201
 20
-14.46332
 30
0.0
 10
-10.2142
 20
-14.45504
 30
0.0
 10
-10.2142
 20
-14.45504
 30
0.0
 10
-10.2142
 20
-14.45504
 30
0.0
 10
-10.20493
 20
-14.44517
 30
0.0
 10
-10.1993
 20
-14.43911
 30
0.0
 10
-10.19731
 20
-14.43682
 30
0.0
 10
-10.19731
 20
-14.43682
 30
0.0
 10
-10.19488
 20
-14.43402
 30
0.0
 10
-10.19311
 20
-14.43154
 30
0.0
 10
-10.19205
 20
-14.42937
 30
0.0
 10
-10.19205
 20
-14.42937
 30
0.0
 10
-10.19096
 20
-14.42721
 30
0.0
 10
-10.19043
 20
-14.42507
 30
0.0
 10
-10.19043
 20
-14.42296
 30
0.0
 10
-10.19043
 20
-14.42296
 30
0.0
 10
-10.19043
 20
-14.41971
 30
0.0
 10
-10.19141
 20
-14.41719
 30
0.0
 10
-10.19338
 20
-14.41542
 30
0.0
 10
-10.19338
 20
-14.41542
 30
0.0
 10
-10.19535
 20
-14.41364
 30
0.0
 10
-10.19815
 20
-14.41276
 30
0.0
 10
-10.20175
 20
-14.41276
 30
0.0
 10
-10.20175
 20
-14.41276
 30
0.0
 10
-10.20433
 20
-14.41276
 30
0.0
 10
-10.20721
 20
-14.41327
 30
0.0
 10
-10.21041
 20
-14.41429
 30
0.0
 10
-10.21041
 20
-14.41429
 30
0.0
 10
-10.21363
 20
-14.41532
 30
0.0
 10
-10.21696
 20
-14.41681
 30
0.0
 10
-10.22045
 20
-14.41876
 30
0.0
 10
-10.22045
 20
-14.41876
 30
0.0
 10
-10.22045
 20
-14.41876
 30
0.0
 10
-10.22045
 20
-14.40532
 30
0.0
 10
-10.22045
 20
-14.40532
 30
0.0
 10
-10.22045
 20
-14.40532
 30
0.0
 10
-10.21696
 20
-14.40406
 30
0.0
 10
-10.21356
 20
-14.40309
 30
0.0
 10
-10.21021
 20
-14.40242
 30
0.0
 10
-10.21021
 20
-14.40242
 30
0.0
 10
-10.20688
 20
-14.40176
 30
0.0
 10
-10.20368
 20
-14.40142
 30
0.0
 10
-10.20063
 20
-14.40142
 30
0.0
 10
-10.20063
 20
-14.40142
 30
0.0
 10
-10.19291
 20
-14.40142
 30
0.0
 10
-10.18685
 20
-14.40322
 30
0.0
 10
-10.18245
 20
-14.40682
 30
0.0
 10
-10.18245
 20
-14.40682
 30
0.0
 10
-10.17803
 20
-14.41041
 30
0.0
 10
-10.17583
 20
-14.41532
 30
0.0
 10
-10.17583
 20
-14.42154
 30
0.0
 10
-10.17583
 20
-14.42154
 30
0.0
 10
-10.17583
 20
-14.42441
 30
0.0
 10
-10.17631
 20
-14.42709
 30
0.0
 10
-10.17726
 20
-14.42959
 30
0.0
 10
-10.17726
 20
-14.42959
 30
0.0
 10
-10.17823
 20
-14.43211
 30
0.0
 10
-10.17988
 20
-14.43489
 30
0.0
 10
-10.18223
 20
-14.43794
 30
0.0
 10
-10.18223
 20
-14.43794
 30
0.0
 10
-10.18395
 20
-14.44016
 30
0.0
 10
-10.18868
 20
-14.44514
 30
0.0
 10
-10.19643
 20
-14.45289
 30
0.0
 10
-10.19643
 20
-14.45289
 30
0.0
 10
-10.20063
 20
-14.45707
 30
0.0
 10
-10.20396
 20
-14.46044
 30
0.0
 10
-10.20645
 20
-14.46294
 30
0.0
  0
SPLINE
  5
91
330
1F
100
AcDbEntity
  8
Layer 1
 62
   250
100
AcDbSpline
210
0.0
220
0.0
230
1.0
 70
    11
 71
     3
 72
    88
 73
    84
 74
     0
 42
0.0000000001
 43
0.0000000001
 40
0.0
 40
0.0
 40
0.0
 40
0.0
 40
0.0476190476190476
 40
0.0476190476190476
 40
0.0476190476190476
 40
0.0476190476190476
 40
0.0952380952380952
 40
0.0952380952380952
 40
0.0952380952380952
 40
0.0952380952380952
 40
0.1428571428571428
 40
0.1428571428571428
 40
0.1428571428571428
 40
0.1428571428571428
 40
0.1904761904761905
 40
0.1904761904761905
 40
0.1904761904761905
 40
0.1904761904761905
 40
0.2380952380952381
 40
0.2380952380952381
 40
0.2380952380952381
 40
0.2380952380952381
 40
0.2857142857142857
 40
0.2857142857142857
 40
0.2857142857142857
 40
0.2857142857142857
 40
0.3333333333333333
 40
0.3333333333333333
 40
0.3333333333333333
 40
0.3333333333333333
 40
0.3809523809523809
 40
0.3809523809523809
 40
0.3809523809523809
 40
0.3809523809523809
 40
0.4285714285714285
 40
0.4285714285714285
 40
0.4285714285714285
 40
0.4285714285714285
 40
0.4761904761904762
 40
0.4761904761904762
 40
0.4761904761904762
 40
0.4761904761904762
 40
0.5238095238095237
 40
0.5238095238095237
 40
0.5238095238095237
 40
0.5238095238095237
 40
0.5714285714285714
 40
0.5714285714285714
 40
0.5714285714285714
 40
0.5714285714285714
 40
0.6190476190476191
 40
0.6190476190476191
 40
0.6190476190476191
 40
0.6190476190476191
 40
0.6666666666666667
 40
0.6666666666666667
 40
0.6666666666666667
 40
0.6666666666666667
 40
0.7142857142857144
 40
0.7142857142857144
 40
0.7142857142857144
 40
0.7142857142857144
 40
0.7619047619047621
 40
0.7619047619047621
 40
0.7619047619047621
 40
0.7619047619047621
 40
0.8095238095238098
 40
0.8095238095238098
 40
0.8095238095238098
 40
0.8095238095238098
 40
0.8571428571428574
 40
0.8571428571428574
 40
0.8571428571428574
 40
0.8571428571428574
 40
0.9047619047619051
 40
0.9047619047619051
 40
0.9047619047619051
 40
0.9047619047619051
 40
0.9523809523809528
 40
0.9523809523809528
 40
0.9523809523809528
 40
0.9523809523809528
 40
1.0
 40
1.0
 40
1.0
 40
1.0
 10
-10.14625
 20
-14.46294
 30
0.0
 10
-10.14625
 20
-14.46294
 30
0.0
 10
-10.11553
 20
-14.46294
 30
0.0
 10
-10.11553
 20
-14.46294
 30
0.0
 10
-10.11553
 20
-14.46294
 30
0.0
 10
-10.11553
 20
-14.46294
 30
0.0
 10
-10.11553
 20
-14.47564
 30
0.0
 10
-10.11553
 20
-14.47564
 30
0.0
 10
-10.11553
 20
-14.47564
 30
0.0
 10
-10.11553
 20
-14.47564
 30
0.0
 10
-10.16181
 20
-14.47564
 30
0.0
 10
-10.16181
 20
-14.47564
 30
0.0
 10
-10.16181
 20
-14.47564
 30
0.0
 10
-10.16181
 20
-14.47564
 30
0.0
 10
-10.16181
 20
-14.46332
 30
0.0
 10
-10.16181
 20
-14.46332
 30
0.0
 10
-10.16181
 20
-14.46332
 30
0.0
 10
-10.16181
 20
-14.46332
 30
0.0
 10
-10.154
 20
-14.45504
 30
0.0
 10
-10.154
 20
-14.45504
 30
0.0
 10
-10.154
 20
-14.45504
 30
0.0
 10
-10.14473
 20
-14.44517
 30
0.0
 10
-10.1391
 20
-14.43911
 30
0.0
 10
-10.13711
 20
-14.43682
 30
0.0
 10
-10.13711
 20
-14.43682
 30
0.0
 10
-10.13468
 20
-14.43402
 30
0.0
 10
-10.13291
 20
-14.43154
 30
0.0
 10
-10.13185
 20
-14.42937
 30
0.0
 10
-10.13185
 20
-14.42937
 30
0.0
 10
-10.13076
 20
-14.42721
 30
0.0
 10
-10.13023
 20
-14.42507
 30
0.0
 10
-10.13023
 20
-14.42296
 30
0.0
 10
-10.13023
 20
-14.42296
 30
0.0
 10
-10.13023
 20
-14.41971
 30
0.0
 10
-10.13121
 20
-14.41719
 30
0.0
 10
-10.13318
 20
-14.41542
 30
0.0
 10
-10.13318
 20
-14.41542
 30
0.0
 10
-10.13515
 20
-14.41364
 30
0.0
 10
-10.13795
 20
-14.41276
 30
0.0
 10
-10.14155
 20
-14.41276
 30
0.0
 10
-10.14155
 20
-14.41276
 30
0.0
 10
-10.14413
 20
-14.41276
 30
0.0
 10
-10.14701
 20
-14.41327
 30
0.0
 10
-10.15021
 20
-14.41429
 30
0.0
 10
-10.15021
 20
-14.41429
 30
0.0
 10
-10.15343
 20
-14.41532
 30
0.0
 10
-10.15676
 20
-14.41681
 30
0.0
 10
-10.16025
 20
-14.41876
 30
0.0
 10
-10.16025
 20
-14.41876
 30
0.0
 10
-10.16025
 20
-14.41876
 30
0.0
 10
-10.16025
 20
-14.40532
 30
0.0
 10
-10.16025
 20
-14.40532
 30
0.0
 10
-10.16025
 20
-14.40532
 30
0.0
 10
-10.15676
 20
-14.40406
 30
0.0
 10
-10.15336
 20
-14.40309
 30
0.0
 10
-10.15001
 20
-14.40242
 30
0.0
 10
-10.15001
 20
-14.40242
 30
0.0
 10
-10.14668
 20
-14.40176
 30
0.0
 10
-10.14348
 20
-14.40142
 30
0.0
 10
-10.14043
 20
-14.40142
 30
0.0
 10
-10.14043
 20
-14.40142
 30
0.0
 10
-10.13271
 20
-14.40142
 30
0.0
 10
-10.12665
 20
-14.40322
 30
0.0
 10
-10.12225
 20
-14.40682
 30
0.0
 10
-10.12225
 20
-14.40682
 30
0.0
 10
-10.11783
 20
-14.41041
 30
0.0
 10
-10.11563
 20
-14.41532
 30
0.0
 10
-10.11563
 20
-14.42154
 30
0.0
 10
-10.11563
 20
-14.42154
 30
0.0
 10
-10.11563
 20
-14.42441
 30
0.0
 10
-10.11611
 20
-14.42709
 30
0.0
 10
-10.11706
 20
-14.42959
 30
0.0
 10
-10.11706
 20
-14.42959
 30
0.0
 10
-10.11803
 20
-14.43211
 30
0.0
 10
-10.11968
 20
-14.43489
 30
0.0
 10
-10.12203
 20
-14.43794
 30
0.0
 10
-10.12203
 20
-14.43794
 30
0.0
 10
-10.12375
 20
-14.44016
 30
0.0
 10
-10.12848
 20
-14.44514
 30
0.0
 10
-10.13623
 20
-14.45289
 30
0.0
 10
-10.13623
 20
-14.45289
 30
0.0
 10
-10.14043
 20
-14.45707
 30
0.0
 10
-10.14376
 20
-14.46044
 30
0.0
 10
-10.14625
 20
-14.46294
 30
0.0
  0
ENDSEC
  0
SECTION
  2
OBJECTS
  0
DICTIONARY
  5
C
330
0
100
AcDbDictionary
281
     1
  3
ACAD_GROUP
350
D
  3
ACAD_LAYOUT
350
1A
  3
ACAD_MLEADERSTYLE
350
93
  3
ACAD_MLINESTYLE
350
17
  3
ACAD_PLOTSETTINGS
350
19
  3
ACAD_PLOTSTYLENAME
350
E
  3
ACAD_SCALELIST
350
3B
  3
ACAD_TABLESTYLE
350
92
  3
ACAD_VISUALSTYLE
350
2A
  0
DICTIONARY
  5
D
102
{ACAD_REACTORS
330
C
102
}
330
C
100
AcDbDictionary
281
     1
  0
DICTIONARY
  5
1A
102
{ACAD_REACTORS
330
C
102
}
330
C
100
AcDbDictionary
281
     1
  3
Layout1
350
1E
  3
Layout2
350
26
  3
Model
350
22
  0
DICTIONARY
  5
93
102
{ACAD_REACTORS
330
C
102
}
330
C
100
AcDbDictionary
281
     1
  0
DICTIONARY
  5
17
102
{ACAD_REACTORS
330
C
102
}
330
C
100
AcDbDictionary
281
     1
  3
Standard
350
18
  0
DICTIONARY
  5
19
102
{ACAD_REACTORS
330
C
102
}
330
C
100
AcDbDictionary
281
     1
  0
ACDBDICTIONARYWDFLT
  5
E
102
{ACAD_REACTORS
330
C
102
}
330
C
100
AcDbDictionary
281
     1
  3
Normal
350
F
100
AcDbDictionaryWithDefault
340
F
  0
DICTIONARY
  5
3B
102
{ACAD_REACTORS
330
C
102
}
330
C
100
AcDbDictionary
281
     1
  3
A0
350
3C
  3
A1
350
3D
  3
A2
350
3E
  3
A3
350
3F
  3
A4
350
40
  3
A5
350
41
  3
A6
350
42
  3
A7
350
43
  3
A8
350
44
  3
A9
350
45
  3
B0
350
46
  3
B1
350
47
  3
B2
350
48
  3
B3
350
49
  3
B4
350
4A
  3
B5
350
4B
  3
B6
350
4C
  3
B7
350
4D
  3
B8
350
4E
  3
B9
350
4F
  3
C0
350
50
  3
C1
350
51
  3
C2
350
52
  3
C3
350
53
  3
C4
350
54
  3
C5
350
55
  3
C6
350
56
  3
C7
350
57
  3
C8
350
58
  3
C9
350
59
  3
D0
350
5A
  3
D1
350
5B
  3
D2
350
5C
  0
DICTIONARY
  5
92
102
{ACAD_REACTORS
330
C
102
}
330
C
100
AcDbDictionary
281
     1
  0
DICTIONARY
  5
2A
102
{ACAD_REACTORS
330
C
102
}
330
C
100
AcDbDictionary
281
     1
  3
2dWireframe
350
2F
  3
3D Hidden
350
31
  3
3dWireframe
350
30
  3
Basic
350
32
  3
Brighten
350
36
  3
ColorChange
350
3A
  3
Conceptual
350
34
  3
Dim
350
35
  3
Facepattern
350
39
  3
Flat
350
2B
  3
FlatWithEdges
350
2C
  3
Gouraud
350
2D
  3
GouraudWithEdges
350
2E
  3
Linepattern
350
38
  3
Realistic
350
33
  3
Thicken
350
37
  0
LAYOUT
  5
1E
102
{ACAD_REACTORS
330
1A
102
}
330
1A
100
AcDbPlotSettings
  1

  2
none_device
  4

  6

 40
0.0
 41
0.0
 42
0.0
 43
0.0
 44
0.0
 45
0.0
 46
0.0
 47
0.0
 48
0.0
 49
0.0
140
0.0
141
0.0
142
1.0
143
1.0
 70
   688
 72
     0
 73
     0
 74
     5
  7

 75
    16
 76
     0
 77
     2
 78
   300
147
1.0
148
0.0
149
0.0
100
AcDbLayout
  1
Layout1
 70
     1
 71
     1
 10
0.0
 20
0.0
 11
12.0
 21
9.0
 12
0.0
 22
0.0
 32
0.0
 14
1.000000000000000E+20
 24
1.000000000000000E+20
 34
1.000000000000000E+20
 15
-1.000000000000000E+20
 25
-1.000000000000000E+20
 35
-1.000000000000000E+20
146
0.0
 13
0.0
 23
0.0
 33
0.0
 16
1.0
 26
0.0
 36
0.0
 17
0.0
 27
1.0
 37
0.0
 76
     0
330
1B
  0
LAYOUT
  5
26
102
{ACAD_REACTORS
330
1A
102
}
330
1A
100
AcDbPlotSettings
  1

  2
none_device
  4

  6

 40
0.0
 41
0.0
 42
0.0
 43
0.0
 44
0.0
 45
0.0
 46
0.0
 47
0.0
 48
0.0
 49
0.0
140
0.0
141
0.0
142
1.0
143
1.0
 70
   688
 72
     0
 73
     0
 74
     5
  7

 75
    16
 76
     0
 77
     2
 78
   300
147
1.0
148
0.0
149
0.0
100
AcDbLayout
  1
Layout2
 70
     1
 71
     2
 10
0.0
 20
0.0
 11
0.0
 21
0.0
 12
0.0
 22
0.0
 32
0.0
 14
0.0
 24
0.0
 34
0.0
 15
0.0
 25
0.0
 35
0.0
146
0.0
 13
0.0
 23
0.0
 33
0.0
 16
1.0
 26
0.0
 36
0.0
 17
0.0
 27
1.0
 37
0.0
 76
     0
330
23
  0
LAYOUT
  5
22
102
{ACAD_REACTORS
330
1A
102
}
330
1A
100
AcDbPlotSettings
  1

  2
none_device
  4

  6

 40
0.0
 41
0.0
 42
0.0
 43
0.0
 44
0.0
 45
0.0
 46
0.0
 47
0.0
 48
0.0
 49
0.0
140
0.0
141
0.0
142
1.0
143
1.0
 70
  1712
 72
     0
 73
     0
 74
     0
  7

 75
     0
 76
     0
 77
     2
 78
   300
147
1.0
148
0.0
149
0.0
100
AcDbLayout
  1
Model
 70
     1
 71
     0
 10
0.0
 20
0.0
 11
12.0
 21
9.0
 12
0.0
 22
0.0
 32
0.0
 14
-11.48952
 24
-15.14264
 34
0.0
 15
-9.51152
 25
-13.95442
 35
0.0
146
0.0
 13
0.0
 23
0.0
 33
0.0
 16
1.0
 26
0.0
 36
0.0
 17
0.0
 27
1.0
 37
0.0
 76
     0
330
1F
331
29
  0
MLINESTYLE
  5
18
102
{ACAD_REACTORS
330
17
102
}
330
17
100
AcDbMlineStyle
  2
Standard
 70
     0
  3

 62
   256
 51
90.0
 52
90.0
 71
     2
 49
0.5
 62
   256
  6
BYLAYER
 49
-0.5
 62
   256
  6
BYLAYER
  0
ACDBPLACEHOLDER
  5
F
102
{ACAD_REACTORS
330
E
102
}
330
E
  0
SCALE
  5
3C
102
{ACAD_REACTORS
330
3B
102
}
330
3B
100
AcDbScale
 70
     0
300
1:1
140
1.0
141
1.0
290
     1
  0
SCALE
  5
3D
102
{ACAD_REACTORS
330
3B
102
}
330
3B
100
AcDbScale
 70
     0
300
1:2
140
1.0
141
2.0
290
     0
  0
SCALE
  5
3E
102
{ACAD_REACTORS
330
3B
102
}
330
3B
100
AcDbScale
 70
     0
300
1:4
140
1.0
141
4.0
290
     0
  0
SCALE
  5
3F
102
{ACAD_REACTORS
330
3B
102
}
330
3B
100
AcDbScale
 70
     0
300
1:5
140
1.0
141
5.0
290
     0
  0
SCALE
  5
40
102
{ACAD_REACTORS
330
3B
102
}
330
3B
100
AcDbScale
 70
     0
300
1:8
140
1.0
141
8.0
290
     0
  0
SCALE
  5
41
102
{ACAD_REACTORS
330
3B
102
}
330
3B
100
AcDbScale
 70
     0
300
1:10
140
1.0
141
10.0
290
     0
  0
SCALE
  5
42
102
{ACAD_REACTORS
330
3B
102
}
330
3B
100
AcDbScale
 70
     0
300
1:16
140
1.0
141
16.0
290
     0
  0
SCALE
  5
43
102
{ACAD_REACTORS
330
3B
102
}
330
3B
100
AcDbScale
 70
     0
300
1:20
140
1.0
141
20.0
290
     0
  0
SCALE
  5
44
102
{ACAD_REACTORS
330
3B
102
}
330
3B
100
AcDbScale
 70
     0
300
1:30
140
1.0
141
30.0
290
     0
  0
SCALE
  5
45
102
{ACAD_REACTORS
330
3B
102
}
330
3B
100
AcDbScale
 70
     0
300
1:40
140
1.0
141
40.0
290
     0
  0
SCALE
  5
46
102
{ACAD_REACTORS
330
3B
102
}
330
3B
100
AcDbScale
 70
     0
300
1:50
140
1.0
141
50.0
290
     0
  0
SCALE
  5
47
102
{ACAD_REACTORS
330
3B
102
}
330
3B
100
AcDbScale
 70
     0
300
1:100
140
1.0
141
100.0
290
     0
  0
SCALE
  5
48
102
{ACAD_REACTORS
330
3B
102
}
330
3B
100
AcDbScale
 70
     0
300
2:1
140
2.0
141
1.0
290
     0
  0
SCALE
  5
49
102
{ACAD_REACTORS
330
3B
102
}
330
3B
100
AcDbScale
 70
     0
300
4:1
140
4.0
141
1.0
290
     0
  0
SCALE
  5
4A
102
{ACAD_REACTORS
330
3B
102
}
330
3B
100
AcDbScale
 70
     0
300
8:1
140
8.0
141
1.0
290
     0
  0
SCALE
  5
4B
102
{ACAD_REACTORS
330
3B
102
}
330
3B
100
AcDbScale
 70
     0
300
10:1
140
10.0
141
1.0
290
     0
  0
SCALE
  5
4C
102
{ACAD_REACTORS
330
3B
102
}
330
3B
100
AcDbScale
 70
     0
300
100:1
140
100.0
141
1.0
290
     0
  0
SCALE
  5
4D
102
{ACAD_REACTORS
330
3B
102
}
330
3B
100
AcDbScale
 70
     0
300
1/128" = 1'-0"
140
0.0078125
141
12.0
290
     0
  0
SCALE
  5
4E
102
{ACAD_REACTORS
330
3B
102
}
330
3B
100
AcDbScale
 70
     0
300
1/64" = 1'-0"
140
0.015625
141
12.0
290
     0
  0
SCALE
  5
4F
102
{ACAD_REACTORS
330
3B
102
}
330
3B
100
AcDbScale
 70
     0
300
1/32" = 1'-0"
140
0.03125
141
12.0
290
     0
  0
SCALE
  5
50
102
{ACAD_REACTORS
330
3B
102
}
330
3B
100
AcDbScale
 70
     0
300
1/16" = 1'-0"
140
0.0625
141
12.0
290
     0
  0
SCALE
  5
51
102
{ACAD_REACTORS
330
3B
102
}
330
3B
100
AcDbScale
 70
     0
300
3/32" = 1'-0"
140
0.09375
141
12.0
290
     0
  0
SCALE
  5
52
102
{ACAD_REACTORS
330
3B
102
}
330
3B
100
AcDbScale
 70
     0
300
1/8" = 1'-0"
140
0.125
141
12.0
290
     0
  0
SCALE
  5
53
102
{ACAD_REACTORS
330
3B
102
}
330
3B
100
AcDbScale
 70
     0
300
3/16" = 1'-0"
140
0.1875
141
12.0
290
     0
  0
SCALE
  5
54
102
{ACAD_REACTORS
330
3B
102
}
330
3B
100
AcDbScale
 70
     0
300
1/4" = 1'-0"
140
0.25
141
12.0
290
     0
  0
SCALE
  5
55
102
{ACAD_REACTORS
330
3B
102
}
330
3B
100
AcDbScale
 70
     0
300
3/8" = 1'-0"
140
0.375
141
12.0
290
     0
  0
SCALE
  5
56
102
{ACAD_REACTORS
330
3B
102
}
330
3B
100
AcDbScale
 70
     0
300
1/2" = 1'-0"
140
0.5
141
12.0
290
     0
  0
SCALE
  5
57
102
{ACAD_REACTORS
330
3B
102
}
330
3B
100
AcDbScale
 70
     0
300
3/4" = 1'-0"
140
0.75
141
12.0
290
     0
  0
SCALE
  5
58
102
{ACAD_REACTORS
330
3B
102
}
330
3B
100
AcDbScale
 70
     0
300
1" = 1'-0"
140
1.0
141
12.0
290
     0
  0
SCALE
  5
59
102
{ACAD_REACTORS
330
3B
102
}
330
3B
100
AcDbScale
 70
     0
300
1-1/2" = 1'-0"
140
1.5
141
12.0
290
     0
  0
SCALE
  5
5A
102
{ACAD_REACTORS
330
3B
102
}
330
3B
100
AcDbScale
 70
     0
300
3" = 1'-0"
140
3.0
141
12.0
290
     0
  0
SCALE
  5
5B
102
{ACAD_REACTORS
330
3B
102
}
330
3B
100
AcDbScale
 70
     0
300
6" = 1'-0"
140
6.0
141
12.0
290
     0
  0
SCALE
  5
5C
102
{ACAD_REACTORS
330
3B
102
}
330
3B
100
AcDbScale
 70
     0
300
1'-0" = 1'-0"
140
12.0
141
12.0
290
     0
  0
VISUALSTYLE
  5
2F
102
{ACAD_REACTORS
330
2A
102
}
330
2A
100
AcDbVisualStyle
  2
2dWireframe
 70
     4
 71
     0
 72
     2
 73
     0
 90
        0
 40
-0.6
 41
-30.0
 62
     5
 63
     7
421
 16777215
 74
     1
 91
        4
 64
     7
 65
   257
 75
     1
175
     1
 42
1.0
 92
        0
 66
   257
 43
1.0
 76
     1
 77
     6
 78
     2
 67
     7
 79
     5
170
     0
171
     0
290
     0
174
     0
 93
        1
 44
0.0
173
     0
291
     0
 45
0.0
  0
VISUALSTYLE
  5
31
102
{ACAD_REACTORS
330
2A
102
}
330
2A
100
AcDbVisualStyle
  2
3D Hidden
 70
     6
 71
     1
 72
     2
 73
     2
 90
        0
 40
-0.6
 41
-30.0
 62
     5
 63
     7
421
 16777215
 74
     2
 91
        2
 64
     7
 65
   257
 75
     2
175
     1
 42
40.0
 92
        0
 66
   257
 43
1.0
 76
     1
 77
     6
 78
     2
 67
     7
 79
     3
170
     0
171
     0
290
     0
174
     0
 93
        1
 44
0.0
173
     0
291
     0
 45
0.0
  0
VISUALSTYLE
  5
30
102
{ACAD_REACTORS
330
2A
102
}
330
2A
100
AcDbVisualStyle
  2
3dWireframe
 70
     5
 71
     0
 72
     2
 73
     0
 90
        0
 40
-0.6
 41
-30.0
 62
     5
 63
     7
421
 16777215
 74
     1
 91
        4
 64
     7
 65
   257
 75
     1
175
     1
 42
1.0
 92
        0
 66
   257
 43
1.0
 76
     1
 77
     6
 78
     2
 67
     7
 79
     5
170
     0
171
     0
290
     0
174
     0
 93
        1
 44
0.0
173
     0
291
     0
 45
0.0
  0
VISUALSTYLE
  5
32
102
{ACAD_REACTORS
330
2A
102
}
330
2A
100
AcDbVisualStyle
  2
Basic
 70
     7
 71
     1
 72
     0
 73
     1
 90
        0
 40
-0.6
 41
-30.0
 62
     5
 63
     7
421
 16777215
 74
     0
 91
        4
 64
     7
 65
   257
 75
     1
175
     1
 42
1.0
 92
        8
 66
     7
 43
1.0
 76
     1
 77
     6
 78
     2
 67
     7
 79
     5
170
     0
171
     0
290
     0
174
     0
 93
        1
 44
0.0
173
     0
291
     1
 45
0.0
  0
VISUALSTYLE
  5
36
102
{ACAD_REACTORS
330
2A
102
}
330
2A
100
AcDbVisualStyle
  2
Brighten
 70
    12
 71
     2
 72
     2
 73
     0
 90
        0
 40
-0.6
 41
-30.0
 62
     5
 63
     7
421
 16777215
 74
     1
 91
        4
 64
     7
 65
   257
 75
     1
175
     1
 42
1.0
 92
        8
 66
     7
 43
1.0
 76
     1
 77
     6
 78
     2
 67
     7
 79
     5
170
     0
171
     0
290
     0
174
     0
 93
        1
 44
50.0
173
     0
291
     1
 45
0.0
  0
VISUALSTYLE
  5
3A
102
{ACAD_REACTORS
330
2A
102
}
330
2A
100
AcDbVisualStyle
  2
ColorChange
 70
    16
 71
     2
 72
     2
 73
     3
 90
        0
 40
-0.6
 41
-30.0
 62
     5
 63
     8
421
  8421504
 74
     1
 91
        4
 64
     7
 65
   257
 75
     1
175
     1
 42
1.0
 92
        8
 66
     8
424
  8421504
 43
1.0
 76
     1
 77
     6
 78
     2
 67
     7
 79
     5
170
     0
171
     0
290
     0
174
     0
 93
        1
 44
0.0
173
     0
291
     1
 45
0.0
  0
VISUALSTYLE
  5
34
102
{ACAD_REACTORS
330
2A
102
}
330
2A
100
AcDbVisualStyle
  2
Conceptual
 70
     9
 71
     3
 72
     2
 73
     0
 90
        0
 40
-0.6
 41
-30.0
 62
     5
 63
     7
421
 16777215
 74
     2
 91
        2
 64
     7
 65
   257
 75
     1
175
     1
 42
40.0
 92
        8
 66
     7
 43
1.0
 76
     1
 77
     6
 78
     2
 67
     7
 79
     3
170
     0
171
     0
290
     0
174
     0
 93
        1
 44
0.0
173
     0
291
     0
 45
0.0
  0
VISUALSTYLE
  5
35
102
{ACAD_REACTORS
330
2A
102
}
330
2A
100
AcDbVisualStyle
  2
Dim
 70
    11
 71
     2
 72
     2
 73
     0
 90
        0
 40
-0.6
 41
-30.0
 62
     5
 63
     7
421
 16777215
 74
     1
 91
        4
 64
     7
 65
   257
 75
     1
175
     1
 42
1.0
 92
        8
 66
     7
 43
1.0
 76
     1
 77
     6
 78
     2
 67
     7
 79
     5
170
     0
171
     0
290
     0
174
     0
 93
        1
 44
-50.0
173
     0
291
     1
 45
0.0
  0
VISUALSTYLE
  5
39
102
{ACAD_REACTORS
330
2A
102
}
330
2A
100
AcDbVisualStyle
  2
Facepattern
 70
    15
 71
     2
 72
     2
 73
     0
 90
        0
 40
-0.6
 41
-30.0
 62
     5
 63
     7
421
 16777215
 74
     1
 91
        4
 64
     7
 65
   257
 75
     1
175
     1
 42
1.0
 92
        8
 66
     7
 43
1.0
 76
     1
 77
     6
 78
     2
 67
     7
 79
     5
170
     0
171
     0
290
     0
174
     0
 93
        1
 44
0.0
173
     0
291
     1
 45
0.0
  0
VISUALSTYLE
  5
2B
102
{ACAD_REACTORS
330
2A
102
}
330
2A
100
AcDbVisualStyle
  2
Flat
 70
     0
 71
     2
 72
     1
 73
     1
 90
        2
 40
-0.6
 41
30.0
 62
     5
 63
     7
421
 16777215
 74
     0
 91
        4
 64
     7
 65
   257
 75
     1
175
     1
 42
1.0
 92
        8
 66
     7
 43
1.0
 76
     1
 77
     6
 78
     2
 67
     7
 79
     5
170
     0
171
     0
290
     0
174
     0
 93
       13
 44
0.0
173
     0
291
     1
 45
0.0
  0
VISUALSTYLE
  5
2C
102
{ACAD_REACTORS
330
2A
102
}
330
2A
100
AcDbVisualStyle
  2
FlatWithEdges
 70
     1
 71
     2
 72
     1
 73
     1
 90
        2
 40
-0.6
 41
30.0
 62
     5
 63
     7
421
 16777215
 74
     1
 91
        4
 64
     7
 65
   257
 75
     1
175
     1
 42
1.0
 92
        0
 66
   257
 43
1.0
 76
     1
 77
     6
 78
     2
 67
     7
 79
     5
170
     0
171
     0
290
     0
174
     0
 93
       13
 44
0.0
173
     0
291
     1
 45
0.0
  0
VISUALSTYLE
  5
2D
102
{ACAD_REACTORS
330
2A
102
}
330
2A
100
AcDbVisualStyle
  2
Gouraud
 70
     2
 71
     2
 72
     2
 73
     1
 90
        2
 40
-0.6
 41
30.0
 62
     5
 63
     7
421
 16777215
 74
     0
 91
        4
 64
     7
 65
   257
 75
     1
175
     1
 42
1.0
 92
        0
 66
     7
 43
1.0
 76
     1
 77
     6
 78
     2
 67
     7
 79
     5
170
     0
171
     0
290
     0
174
     0
 93
       13
 44
0.0
173
     0
291
     1
 45
0.0
  0
VISUALSTYLE
  5
2E
102
{ACAD_REACTORS
330
2A
102
}
330
2A
100
AcDbVisualStyle
  2
GouraudWithEdges
 70
     3
 71
     2
 72
     2
 73
     1
 90
        2
 40
-0.6
 41
30.0
 62
     5
 63
     7
421
 16777215
 74
     1
 91
        4
 64
     7
 65
   257
 75
     1
175
     1
 42
1.0
 92
        0
 66
   257
 43
1.0
 76
     1
 77
     6
 78
     2
 67
     7
 79
     5
170
     0
171
     0
290
     0
174
     0
 93
       13
 44
0.0
173
     0
291
     1
 45
0.0
  0
VISUALSTYLE
  5
38
102
{ACAD_REACTORS
330
2A
102
}
330
2A
100
AcDbVisualStyle
  2
Linepattern
 70
    14
 71
     2
 72
     2
 73
     0
 90
        0
 40
-0.6
 41
-30.0
 62
     5
 63
     7
421
 16777215
 74
     1
 91
        4
 64
     7
 65
   257
 75
     7
175
     7
 42
1.0
 92
        8
 66
     7
 43
1.0
 76
     1
 77
     6
 78
     2
 67
     7
 79
     5
170
     0
171
     0
290
     0
174
     0
 93
        1
 44
0.0
173
     0
291
     1
 45
0.0
  0
VISUALSTYLE
  5
33
102
{ACAD_REACTORS
330
2A
102
}
330
2A
100
AcDbVisualStyle
  2
Realistic
 70
     8
 71
     2
 72
     2
 73
     0
 90
        0
 40
-0.6
 41
-30.0
 62
     5
 63
     7
421
 16777215
 74
     1
 91
        0
 64
     7
 65
   257
 75
     1
175
     1
 42
1.0
 92
        8
 66
     8
424
  7895160
 43
1.0
 76
     1
 77
     6
 78
     2
 67
     7
 79
     5
170
     0
171
     0
290
     0
174
     0
 93
       13
 44
0.0
173
     0
291
     0
 45
0.0
  0
VISUALSTYLE
  5
37
102
{ACAD_REACTORS
330
2A
102
}
330
2A
100
AcDbVisualStyle
  2
Thicken
 70
    13
 71
     2
 72
     2
 73
     0
 90
        0
 40
-0.6
 41
-30.0
 62
     5
 63
     7
421
 16777215
 74
     1
 91
        4
 64
     7
 65
   257
 75
     1
175
     1
 42
1.0
 92
       12
 66
     7
 43
1.0
 76
     1
 77
     6
 78
     2
 67
     7
 79
     5
170
     0
171
     0
290
     0
174
     0
 93
        1
 44
0.0
173
     0
291
     1
 45
0.0
  0
ENDSEC
  0
EOF
