  0
SECTION
  2
HEADER
  9
$ACADVER
  1
AC1021
  9
$ACADMAINTVER
 70
    25
  9
$DWGCODEPAGE
  3
ANSI_1252
  9
$INSBASE
 10
0.0
 20
0.0
 30
0.0
  9
$EXTMIN
 10
-11.55271
 20
-15.85
 30
0.0
  9
$EXTMAX
 10
-9.4473
 20
-13.85
 30
0.0
  9
$LIMMIN
 10
0.0
 20
0.0
  9
$LIMMAX
 10
12.0
 20
9.0
  9
$ORTHOMODE
 70
     0
  9
$REGENMODE
 70
     1
  9
$FILLMODE
 70
     1
  9
$QTEXTMODE
 70
     0
  9
$MIRRTEXT
 70
     1
  9
$LTSCALE
 40
1.0
  9
$ATTMODE
 70
     1
  9
$TEXTSIZE
 40
0.2
  9
$TRACEWID
 40
0.05
  9
$TEXTSTYLE
  7
Standard
  9
$CLAYER
  8
0
  9
$CELTYPE
  6
ByLayer
  9
$CECOLOR
 62
   256
  9
$CELTSCALE
 40
1.0
  9
$DISPSILH
 70
     0
  9
$DIMSCALE
 40
1.0
  9
$DIMASZ
 40
0.18
  9
$DIMEXO
 40
0.0625
  9
$DIMDLI
 40
0.38
  9
$DIMRND
 40
0.0
  9
$DIMDLE
 40
0.0
  9
$DIMEXE
 40
0.18
  9
$DIMTP
 40
0.0
  9
$DIMTM
 40
0.0
  9
$DIMTXT
 40
0.18
  9
$DIMCEN
 40
0.09
  9
$DIMTSZ
 40
0.0
  9
$DIMTOL
 70
     0
  9
$DIMLIM
 70
     0
  9
$DIMTIH
 70
     1
  9
$DIMTOH
 70
     1
  9
$DIMSE1
 70
     0
  9
$DIMSE2
 70
     0
  9
$DIMTAD
 70
     0
  9
$DIMZIN
 70
     0
  9
$DIMBLK
  1

  9
$DIMASO
 70
     1
  9
$DIMSHO
 70
     1
  9
$DIMPOST
  1

  9
$DIMAPOST
  1

  9
$DIMALT
 70
     0
  9
$DIMALTD
 70
     2
  9
$DIMALTF
 40
25.4
  9
$DIMLFAC
 40
1.0
  9
$DIMTOFL
 70
     0
  9
$DIMTVP
 40
0.0
  9
$DIMTIX
 70
     0
  9
$DIMSOXD
 70
     0
  9
$DIMSAH
 70
     0
  9
$DIMBLK1
  1

  9
$DIMBLK2
  1

  9
$DIMSTYLE
  2
Standard
  9
$DIMCLRD
 70
     0
  9
$DIMCLRE
 70
     0
  9
$DIMCLRT
 70
     0
  9
$DIMTFAC
 40
1.0
  9
$DIMGAP
 40
0.09
  9
$DIMJUST
 70
     0
  9
$DIMSD1
 70
     0
  9
$DIMSD2
 70
     0
  9
$DIMTOLJ
 70
     1
  9
$DIMTZIN
 70
     0
  9
$DIMALTZ
 70
     0
  9
$DIMALTTZ
 70
     0
  9
$DIMUPT
 70
     0
  9
$DIMDEC
 70
     4
  9
$DIMTDEC
 70
     4
  9
$DIMALTU
 70
     2
  9
$DIMALTTD
 70
     2
  9
$DIMTXSTY
  7
Standard
  9
$DIMAUNIT
 70
     0
  9
$DIMADEC
 70
     0
  9
$DIMALTRND
 40
0.0
  9
$DIMAZIN
 70
     0
  9
$DIMDSEP
 70
    46
  9
$DIMATFIT
 70
     3
  9
$DIMFRAC
 70
     0
  9
$DIMLDRBLK
  1

  9
$DIMLUNIT
 70
     2
  9
$DIMLWD
 70
    -2
  9
$DIMLWE
 70
    -2
  9
$DIMTMOVE
 70
     0
  9
$DIMFXL
 40
1.0
  9
$DIMFXLON
 70
     0
  9
$DIMJOGANG
 40
0.7853981633974483
  9
$DIMTFILL
 70
     0
  9
$DIMTFILLCLR
 70
     0
  9
$DIMARCSYM
 70
     0
  9
$DIMLTYPE
  6

  9
$DIMLTEX1
  6

  9
$DIMLTEX2
  6

  9
$LUNITS
 70
     2
  9
$LUPREC
 70
     4
  9
$SKETCHINC
 40
0.1
  9
$FILLETRAD
 40
0.5
  9
$AUNITS
 70
     0
  9
$AUPREC
 70
     0
  9
$MENU
  1
.
  9
$ELEVATION
 40
0.0
  9
$PELEVATION
 40
0.0
  9
$THICKNESS
 40
0.0
  9
$LIMCHECK
 70
     0
  9
$CHAMFERA
 40
0.5
  9
$CHAMFERB
 40
0.5
  9
$CHAMFERC
 40
1.0
  9
$CHAMFERD
 40
0.0
  9
$SKPOLY
 70
     0
  9
$TDCREATE
 40
2458462.120312928
  9
$TDUCREATE
 40
2458462.120312928
  9
$TDUPDATE
 40
2458462.12031294
  9
$TDUUPDATE
 40
2458462.12031294
  9
$TDINDWG
 40
0.0000000116
  9
$TDUSRTIMER
 40
0.0000000116
  9
$USRTIMER
 70
     1
  9
$ANGBASE
 50
0.0
  9
$ANGDIR
 70
     0
  9
$PDMODE
 70
     0
  9
$PDSIZE
 40
0.0
  9
$PLINEWID
 40
0.0
  9
$SPLFRAME
 70
     0
  9
$SPLINETYPE
 70
     6
  9
$SPLINESEGS
 70
     8
  9
$HANDSEED
  5
A4
  9
$SURFTAB1
 70
     6
  9
$SURFTAB2
 70
     6
  9
$SURFTYPE
 70
     6
  9
$SURFU
 70
     6
  9
$SURFV
 70
     6
  9
$UCSBASE
  2

  9
$UCSNAME
  2

  9
$UCSORG
 10
0.0
 20
0.0
 30
0.0
  9
$UCSXDIR
 10
1.0
 20
0.0
 30
0.0
  9
$UCSYDIR
 10
0.0
 20
1.0
 30
0.0
  9
$UCSORTHOREF
  2

  9
$UCSORTHOVIEW
 70
     0
  9
$UCSORGTOP
 10
0.0
 20
0.0
 30
0.0
  9
$UCSORGBOTTOM
 10
0.0
 20
0.0
 30
0.0
  9
$UCSORGLEFT
 10
0.0
 20
0.0
 30
0.0
  9
$UCSORGRIGHT
 10
0.0
 20
0.0
 30
0.0
  9
$UCSORGFRONT
 10
0.0
 20
0.0
 30
0.0
  9
$UCSORGBACK
 10
0.0
 20
0.0
 30
0.0
  9
$PUCSBASE
  2

  9
$PUCSNAME
  2

  9
$PUCSORG
 10
0.0
 20
0.0
 30
0.0
  9
$PUCSXDIR
 10
1.0
 20
0.0
 30
0.0
  9
$PUCSYDIR
 10
0.0
 20
1.0
 30
0.0
  9
$PUCSORTHOREF
  2

  9
$PUCSORTHOVIEW
 70
     0
  9
$PUCSORGTOP
 10
0.0
 20
0.0
 30
0.0
  9
$PUCSORGBOTTOM
 10
0.0
 20
0.0
 30
0.0
  9
$PUCSORGLEFT
 10
0.0
 20
0.0
 30
0.0
  9
$PUCSORGRIGHT
 10
0.0
 20
0.0
 30
0.0
  9
$PUCSORGFRONT
 10
0.0
 20
0.0
 30
0.0
  9
$PUCSORGBACK
 10
0.0
 20
0.0
 30
0.0
  9
$USERI1
 70
     0
  9
$USERI2
 70
     0
  9
$USERI3
 70
     0
  9
$USERI4
 70
     0
  9
$USERI5
 70
     0
  9
$USERR1
 40
0.0
  9
$USERR2
 40
0.0
  9
$USERR3
 40
0.0
  9
$USERR4
 40
0.0
  9
$USERR5
 40
0.0
  9
$WORLDVIEW
 70
     1
  9
$SHADEDGE
 70
     3
  9
$SHADEDIF
 70
    70
  9
$TILEMODE
 70
     1
  9
$MAXACTVP
 70
    64
  9
$PINSBASE
 10
0.0
 20
0.0
 30
0.0
  9
$PLIMCHECK
 70
     0
  9
$PEXTMIN
 10
1.000000000000000E+20
 20
1.000000000000000E+20
 30
1.000000000000000E+20
  9
$PEXTMAX
 10
-1.000000000000000E+20
 20
-1.000000000000000E+20
 30
-1.000000000000000E+20
  9
$PLIMMIN
 10
0.0
 20
0.0
  9
$PLIMMAX
 10
12.0
 20
9.0
  9
$UNITMODE
 70
     0
  9
$VISRETAIN
 70
     1
  9
$PLINEGEN
 70
     0
  9
$PSLTSCALE
 70
     1
  9
$TREEDEPTH
 70
  3020
  9
$CMLSTYLE
  2
Standard
  9
$CMLJUST
 70
     0
  9
$CMLSCALE
 40
1.0
  9
$PROXYGRAPHICS
 70
     1
  9
$MEASUREMENT
 70
     0
  9
$CELWEIGHT
370
    -1
  9
$ENDCAPS
280
     0
  9
$JOINSTYLE
280
     0
  9
$LWDISPLAY
290
     0
  9
$INSUNITS
 70
     5
  9
$HYPERLINKBASE
  1

  9
$STYLESHEET
  1

  9
$XEDIT
290
     1
  9
$CEPSNTYPE
380
     0
  9
$PSTYLEMODE
290
     1
  9
$FINGERPRINTGUID
  2
{CE5A9C74-23EA-41B6-AACD-C248E56F1E98}
  9
$VERSIONGUID
  2
{FAEB1C32-E019-11D5-929B-00C0DF256EC4}
  9
$EXTNAMES
290
     1
  9
$PSVPSCALE
 40
0.0
  9
$OLESTARTUP
290
     0
  9
$SORTENTS
280
   127
  9
$INDEXCTL
280
     0
  9
$HIDETEXT
280
     1
  9
$XCLIPFRAME
290
     0
  9
$HALOGAP
280
     0
  9
$OBSCOLOR
 70
   257
  9
$OBSLTYPE
280
     0
  9
$INTERSECTIONDISPLAY
280
     0
  9
$INTERSECTIONCOLOR
 70
   257
  9
$DIMASSOC
280
     2
  9
$PROJECTNAME
  1

  9
$CAMERADISPLAY
290
     0
  9
$LENSLENGTH
 40
50.0
  9
$CAMERAHEIGHT
 40
0.0
  9
$STEPSPERSEC
 40
2.0
  9
$STEPSIZE
 40
6.0
  9
$3DDWFPREC
 40
2.0
  9
$PSOLWIDTH
 40
0.25
  9
$PSOLHEIGHT
 40
4.0
  9
$LOFTANG1
 40
1.570796326794897
  9
$LOFTANG2
 40
1.570796326794897
  9
$LOFTMAG1
 40
0.0
  9
$LOFTMAG2
 40
0.0
  9
$LOFTPARAM
 70
     7
  9
$LOFTNORMALS
280
     1
  9
$LATITUDE
 40
37.795
  9
$LONGITUDE
 40
-122.394
  9
$NORTHDIRECTION
 40
0.0
  9
$TIMEZONE
 70
 -8000
  9
$LIGHTGLYPHDISPLAY
280
     1
  9
$TILEMODELIGHTSYNCH
280
     1
  9
$SOLIDHIST
280
     1
  9
$SHOWHIST
280
     1
  9
$DWFFRAME
280
     2
  9
$DGNFRAME
280
     2
  9
$REALWORLDSCALE
290
     1
  9
$INTERFERECOLOR
 62
   256
  9
$CSHADOW
280
     0
  9
$SHADOWPLANELOCATION
 40
0.0
  0
ENDSEC
  0
SECTION
  2
CLASSES
  0
CLASS
  1
ACDBDICTIONARYWDFLT
  2
AcDbDictionaryWithDefault
  3
ObjectDBX Classes
 90
        0
 91
        3
280
     0
281
     0
  0
CLASS
  1
VISUALSTYLE
  2
AcDbVisualStyle
  3
ObjectDBX Classes
 90
     4095
 91
        3
280
     0
281
     0
  0
CLASS
  1
SCALE
  2
AcDbScale
  3
ObjectDBX Classes
 90
     1153
 91
        3
280
     0
281
     0
  0
ENDSEC
  0
SECTION
  2
TABLES
  0
TABLE
  2
VPORT
  5
8
330
0
100
AcDbSymbolTable
 70
     1
  0
VPORT
  5
29
330
8
100
AcDbSymbolTableRecord
100
AcDbViewportTableRecord
  2
*Active
 70
     0
 10
0.0
 20
0.0
 11
1.0
 21
1.0
 12
10.42990654205607
 22
4.5
 13
0.0
 23
0.0
 14
0.5
 24
0.5
 15
0.5
 25
0.5
 16
0.0
 26
0.0
 36
1.0
 17
0.0
 27
0.0
 37
0.0
 40
9.0
 41
1.972972972850329
 42
50.0
 43
0.0
 44
0.0
 50
0.0
 51
0.0
 71
     0
 72
   100
 73
     1
 74
     3
 75
     0
 76
     0
 77
     0
 78
     0
281
     0
 65
     1
110
0.0
120
0.0
130
0.0
111
1.0
121
0.0
131
0.0
112
0.0
122
1.0
132
0.0
 79
     0
146
0.0
 60
     3
 61
     5
292
     1
282
     1
141
0.0
142
0.0
 63
   256
  0
ENDTAB
  0
TABLE
  2
LTYPE
  5
5
330
0
100
AcDbSymbolTable
 70
     1
  0
LTYPE
  5
14
330
5
100
AcDbSymbolTableRecord
100
AcDbLinetypeTableRecord
  2
ByBlock
 70
     0
  3

 72
    65
 73
     0
 40
0.0
  0
LTYPE
  5
15
330
5
100
AcDbSymbolTableRecord
100
AcDbLinetypeTableRecord
  2
ByLayer
 70
     0
  3

 72
    65
 73
     0
 40
0.0
  0
LTYPE
  5
16
330
5
100
AcDbSymbolTableRecord
100
AcDbLinetypeTableRecord
  2
Continuous
 70
     0
  3
Solid line
 72
    65
 73
     0
 40
0.0
  0
ENDTAB
  0
TABLE
  2
LAYER
  5
2
330
0
100
AcDbSymbolTable
 70
     2
  0
LAYER
  5
10
330
2
100
AcDbSymbolTableRecord
100
AcDbLayerTableRecord
  2
0
 70
     0
 62
     7
  6
Continuous
370
    -3
390
F
347
0
  0
LAYER
  5
5E
330
2
100
AcDbSymbolTableRecord
100
AcDbLayerTableRecord
  2
Layer 1
 70
     0
 62
     7
  6
Continuous
370
    -3
390
F
347
0
  0
ENDTAB
  0
TABLE
  2
STYLE
  5
3
330
0
100
AcDbSymbolTable
 70
     1
  0
STYLE
  5
11
330
3
100
AcDbSymbolTableRecord
100
AcDbTextStyleTableRecord
  2
Standard
 70
     0
 40
0.0
 41
1.0
 50
0.0
 71
     0
 42
0.2
  3
txt
  4

  0
ENDTAB
  0
TABLE
  2
VIEW
  5
6
330
0
100
AcDbSymbolTable
 70
     0
  0
ENDTAB
  0
TABLE
  2
UCS
  5
7
330
0
100
AcDbSymbolTable
 70
     0
  0
ENDTAB
  0
TABLE
  2
APPID
  5
9
330
0
100
AcDbSymbolTable
 70
     2
  0
APPID
  5
12
330
9
100
AcDbSymbolTableRecord
100
AcDbRegAppTableRecord
  2
ACAD
 70
     0
  0
APPID
  5
5D
330
9
100
AcDbSymbolTableRecord
100
AcDbRegAppTableRecord
  2
ODA
 70
     0
  0
ENDTAB
  0
TABLE
  2
DIMSTYLE
  5
A
330
0
100
AcDbSymbolTable
 70
     1
100
AcDbDimStyleTable
  0
DIMSTYLE
105
27
330
A
100
AcDbSymbolTableRecord
100
AcDbDimStyleTableRecord
  2
Standard
 70
     0
340
11
  0
ENDTAB
  0
TABLE
  2
BLOCK_RECORD
  5
1
330
0
100
AcDbSymbolTable
 70
     1
  0
BLOCK_RECORD
  5
1F
330
1
100
AcDbSymbolTableRecord
100
AcDbBlockTableRecord
  2
*Model_Space
340
22
 70
     0
280
     1
281
     0
  0
BLOCK_RECORD
  5
1B
330
1
100
AcDbSymbolTableRecord
100
AcDbBlockTableRecord
  2
*Paper_Space
340
1E
 70
     0
280
     1
281
     0
  0
BLOCK_RECORD
  5
23
330
1
100
AcDbSymbolTableRecord
100
AcDbBlockTableRecord
  2
*Paper_Space0
340
26
 70
     0
280
     1
281
     0
  0
ENDTAB
  0
ENDSEC
  0
SECTION
  2
BLOCKS
  0
BLOCK
  5
20
330
1F
100
AcDbEntity
  8
0
100
AcDbBlockBegin
  2
*Model_Space
 70
     0
 10
0.0
 20
0.0
 30
0.0
  3
*Model_Space
  1

  0
ENDBLK
  5
21
330
1F
100
AcDbEntity
  8
0
100
AcDbBlockEnd
  0
BLOCK
  5
1C
330
1B
100
AcDbEntity
 67
     1
  8
0
100
AcDbBlockBegin
  2
*Paper_Space
 70
     0
 10
0.0
 20
0.0
 30
0.0
  3
*Paper_Space
  1

  0
ENDBLK
  5
1D
330
1B
100
AcDbEntity
 67
     1
  8
0
100
AcDbBlockEnd
  0
BLOCK
  5
24
330
23
100
AcDbEntity
  8
0
100
AcDbBlockBegin
  2
*Paper_Space0
 70
     0
 10
0.0
 20
0.0
 30
0.0
  3
*Paper_Space0
  1

  0
ENDBLK
  5
25
330
23
100
AcDbEntity
  8
0
100
AcDbBlockEnd
  0
ENDSEC
  0
SECTION
  2
ENTITIES
  0
SPLINE
  5
5F
330
1F
100
AcDbEntity
  8
Layer 1
 62
     7
100
AcDbSpline
210
0.0
220
0.0
230
1.0
 70
    11
 71
     3
 72
    20
 73
    16
 74
     0
 42
0.0000000001
 43
0.0000000001
 40
0.0
 40
0.0
 40
0.0
 40
0.0
 40
0.25
 40
0.25
 40
0.25
 40
0.25
 40
0.5
 40
0.5
 40
0.5
 40
0.5
 40
0.75
 40
0.75
 40
0.75
 40
0.75
 40
1.0
 40
1.0
 40
1.0
 40
1.0
 10
-11.5
 20
-13.85
 30
0.0
 10
-11.5
 20
-13.85
 30
0.0
 10
-9.5
 20
-13.85
 30
0.0
 10
-9.5
 20
-13.85
 30
0.0
 10
-9.5
 20
-13.85
 30
0.0
 10
-9.5
 20
-13.85
 30
0.0
 10
-9.5
 20
-15.85
 30
0.0
 10
-9.5
 20
-15.85
 30
0.0
 10
-9.5
 20
-15.85
 30
0.0
 10
-9.5
 20
-15.85
 30
0.0
 10
-11.5
 20
-15.85
 30
0.0
 10
-11.5
 20
-15.85
 30
0.0
 10
-11.5
 20
-15.85
 30
0.0
 10
-11.5
 20
-15.85
 30
0.0
 10
-11.5
 20
-13.85
 30
0.0
 10
-11.5
 20
-13.85
 30
0.0
  0
SPLINE
  5
60
330
1F
100
AcDbEntity
  8
Layer 1
 62
   250
370
   106
100
AcDbSpline
210
0.0
220
0.0
230
1.0
 70
    24
 71
     3
 72
     8
 73
     4
 74
     0
 42
0.0000000001
 43
0.0000000001
 40
0.0
 40
0.0
 40
0.0
 40
0.0
 40
1.0
 40
1.0
 40
1.0
 40
1.0
 10
-11.5
 20
-14.85
 30
0.0
 10
-11.5
 20
-14.85
 30
0.0
 10
-10.65001
 20
-14.84998
 30
0.0
 10
-10.65001
 20
-14.84998
 30
0.0
  0
SPLINE
  5
61
330
1F
100
AcDbEntity
  8
Layer 1
 62
   250
370
   106
100
AcDbSpline
210
0.0
220
0.0
230
1.0
 70
    24
 71
     3
 72
     8
 73
     4
 74
     0
 42
0.0000000001
 43
0.0000000001
 40
0.0
 40
0.0
 40
0.0
 40
0.0
 40
1.0
 40
1.0
 40
1.0
 40
1.0
 10
-10.35
 20
-14.85
 30
0.0
 10
-10.35
 20
-14.85
 30
0.0
 10
-9.50001
 20
-14.84998
 30
0.0
 10
-9.50001
 20
-14.84998
 30
0.0
  0
SPLINE
  5
62
330
1F
100
AcDbEntity
  8
Layer 1
 62
   250
370
   106
100
AcDbSpline
210
0.0
220
0.0
230
1.0
 70
    24
 71
     3
 72
     8
 73
     4
 74
     0
 42
0.0000000001
 43
0.0000000001
 40
0.0
 40
0.0
 40
0.0
 40
0.0
 40
1.0
 40
1.0
 40
1.0
 40
1.0
 10
-10.65001
 20
-14.6
 30
0.0
 10
-10.65001
 20
-14.6
 30
0.0
 10
-10.65001
 20
-15.1
 30
0.0
 10
-10.65001
 20
-15.1
 30
0.0
  0
SPLINE
  5
63
330
1F
100
AcDbEntity
  8
Layer 1
 62
   250
370
   106
100
AcDbSpline
210
0.0
220
0.0
230
1.0
 70
    24
 71
     3
 72
     8
 73
     4
 74
     0
 42
0.0000000001
 43
0.0000000001
 40
0.0
 40
0.0
 40
0.0
 40
0.0
 40
1.0
 40
1.0
 40
1.0
 40
1.0
 10
-10.35
 20
-14.6
 30
0.0
 10
-10.35
 20
-14.6
 30
0.0
 10
-10.35
 20
-15.1
 30
0.0
 10
-10.35
 20
-15.1
 30
0.0
  0
SPLINE
  5
64
330
1F
100
AcDbEntity
  8
Layer 1
 62
   250
370
    50
100
AcDbSpline
210
0.0
220
0.0
230
1.0
 70
    24
 71
     3
 72
     8
 73
     4
 74
     0
 42
0.0000000001
 43
0.0000000001
 40
0.0
 40
0.0
 40
0.0
 40
0.0
 40
1.0
 40
1.0
 40
1.0
 40
1.0
 10
-11.45002
 20
-14.55
 30
0.0
 10
-11.45002
 20
-14.55
 30
0.0
 10
-11.35001
 20
-14.54998
 30
0.0
 10
-11.35001
 20
-14.54998
 30
0.0
  0
SPLINE
  5
65
330
1F
100
AcDbEntity
  8
Layer 1
 62
   250
370
    50
100
AcDbSpline
210
0.0
220
0.0
230
1.0
 70
    24
 71
     3
 72
     8
 73
     4
 74
     0
 42
0.0000000001
 43
0.0000000001
 40
0.0
 40
0.0
 40
0.0
 40
0.0
 40
1.0
 40
1.0
 40
1.0
 40
1.0
 10
-11.40001
 20
-14.59999
 30
0.0
 10
-11.40001
 20
-14.59999
 30
0.0
 10
-11.40003
 20
-14.49998
 30
0.0
 10
-11.40003
 20
-14.49998
 30
0.0
  0
SPLINE
  5
66
330
1F
100
AcDbEntity
  8
Layer 1
 62
   250
100
AcDbSpline
210
0.0
220
0.0
230
1.0
 70
    11
 71
     3
 72
    92
 73
    88
 74
     0
 42
0.0000000001
 43
0.0000000001
 40
0.0
 40
0.0
 40
0.0
 40
0.0
 40
0.0454545454545455
 40
0.0454545454545455
 40
0.0454545454545455
 40
0.0454545454545455
 40
0.0909090909090909
 40
0.0909090909090909
 40
0.0909090909090909
 40
0.0909090909090909
 40
0.1363636363636364
 40
0.1363636363636364
 40
0.1363636363636364
 40
0.1363636363636364
 40
0.1818181818181818
 40
0.1818181818181818
 40
0.1818181818181818
 40
0.1818181818181818
 40
0.2272727272727273
 40
0.2272727272727273
 40
0.2272727272727273
 40
0.2272727272727273
 40
0.2727272727272728
 40
0.2727272727272728
 40
0.2727272727272728
 40
0.2727272727272728
 40
0.3181818181818182
 40
0.3181818181818182
 40
0.3181818181818182
 40
0.3181818181818182
 40
0.3636363636363637
 40
0.3636363636363637
 40
0.3636363636363637
 40
0.3636363636363637
 40
0.4090909090909092
 40
0.4090909090909092
 40
0.4090909090909092
 40
0.4090909090909092
 40
0.4545454545454546
 40
0.4545454545454546
 40
0.4545454545454546
 40
0.4545454545454546
 40
0.5000000000000001
 40
0.5000000000000001
 40
0.5000000000000001
 40
0.5000000000000001
 40
0.5454545454545455
 40
0.5454545454545455
 40
0.5454545454545455
 40
0.5454545454545455
 40
0.5909090909090909
 40
0.5909090909090909
 40
0.5909090909090909
 40
0.5909090909090909
 40
0.6363636363636364
 40
0.6363636363636364
 40
0.6363636363636364
 40
0.6363636363636364
 40
0.6818181818181818
 40
0.6818181818181818
 40
0.6818181818181818
 40
0.6818181818181818
 40
0.7272727272727272
 40
0.7272727272727272
 40
0.7272727272727272
 40
0.7272727272727272
 40
0.7727272727272726
 40
0.7727272727272726
 40
0.7727272727272726
 40
0.7727272727272726
 40
0.818181818181818
 40
0.818181818181818
 40
0.818181818181818
 40
0.818181818181818
 40
0.8636363636363634
 40
0.8636363636363634
 40
0.8636363636363634
 40
0.8636363636363634
 40
0.9090909090909088
 40
0.9090909090909088
 40
0.9090909090909088
 40
0.9090909090909088
 40
0.9545454545454543
 40
0.9545454545454543
 40
0.9545454545454543
 40
0.9545454545454543
 40
1.0
 40
1.0
 40
1.0
 40
1.0
 10
-10.70574
 20
-13.98534
 30
0.0
 10
-10.70574
 20
-13.98534
 30
0.0
 10
-10.6398
 20
-13.98534
 30
0.0
 10
-10.6398
 20
-13.98534
 30
0.0
 10
-10.6398
 20
-13.98534
 30
0.0
 10
-10.6398
 20
-13.98534
 30
0.0
 10
-10.6398
 20
-14.00484
 30
0.0
 10
-10.6398
 20
-14.00484
 30
0.0
 10
-10.6398
 20
-14.00484
 30
0.0
 10
-10.6398
 20
-14.00484
 30
0.0
 10
-10.6846
 20
-14.00484
 30
0.0
 10
-10.6846
 20
-14.00484
 30
0.0
 10
-10.6846
 20
-14.00484
 30
0.0
 10
-10.6846
 20
-14.00484
 30
0.0
 10
-10.6846
 20
-14.02076
 30
0.0
 10
-10.6846
 20
-14.02076
 30
0.0
 10
-10.6846
 20
-14.02076
 30
0.0
 10
-10.68258
 20
-14.02022
 30
0.0
 10
-10.68055
 20
-14.0198
 30
0.0
 10
-10.67851
 20
-14.01949
 30
0.0
 10
-10.67851
 20
-14.01949
 30
0.0
 10
-10.67646
 20
-14.01918
 30
0.0
 10
-10.67432
 20
-14.01904
 30
0.0
 10
-10.67213
 20
-14.01904
 30
0.0
 10
-10.67213
 20
-14.01904
 30
0.0
 10
-10.65958
 20
-14.01904
 30
0.0
 10
-10.64982
 20
-14.02217
 30
0.0
 10
-10.64283
 20
-14.02845
 30
0.0
 10
-10.64283
 20
-14.02845
 30
0.0
 10
-10.63585
 20
-14.03471
 30
0.0
 10
-10.63237
 20
-14.04345
 30
0.0
 10
-10.63237
 20
-14.05465
 30
0.0
 10
-10.63237
 20
-14.05465
 30
0.0
 10
-10.63237
 20
-14.06577
 30
0.0
 10
-10.63618
 20
-14.07448
 30
0.0
 10
-10.64377
 20
-14.08078
 30
0.0
 10
-10.64377
 20
-14.08078
 30
0.0
 10
-10.65137
 20
-14.08706
 30
0.0
 10
-10.66193
 20
-14.09021
 30
0.0
 10
-10.67543
 20
-14.09021
 30
0.0
 10
-10.67543
 20
-14.09021
 30
0.0
 10
-10.68126
 20
-14.09021
 30
0.0
 10
-10.68705
 20
-14.08964
 30
0.0
 10
-10.69276
 20
-14.08852
 30
0.0
 10
-10.69276
 20
-14.08852
 30
0.0
 10
-10.69848
 20
-14.08739
 30
0.0
 10
-10.70417
 20
-14.08569
 30
0.0
 10
-10.70981
 20
-14.08339
 30
0.0
 10
-10.70981
 20
-14.08339
 30
0.0
 10
-10.70981
 20
-14.08339
 30
0.0
 10
-10.70981
 20
-14.0625
 30
0.0
 10
-10.70981
 20
-14.0625
 30
0.0
 10
-10.70981
 20
-14.0625
 30
0.0
 10
-10.70421
 20
-14.06573
 30
0.0
 10
-10.6989
 20
-14.06813
 30
0.0
 10
-10.69387
 20
-14.06972
 30
0.0
 10
-10.69387
 20
-14.06972
 30
0.0
 10
-10.68883
 20
-14.07135
 30
0.0
 10
-10.68408
 20
-14.07215
 30
0.0
 10
-10.67964
 20
-14.07215
 30
0.0
 10
-10.67964
 20
-14.07215
 30
0.0
 10
-10.67319
 20
-14.07215
 30
0.0
 10
-10.66814
 20
-14.07057
 30
0.0
 10
-10.66444
 20
-14.06742
 30
0.0
 10
-10.66444
 20
-14.06742
 30
0.0
 10
-10.66075
 20
-14.06429
 30
0.0
 10
-10.65889
 20
-14.06004
 30
0.0
 10
-10.65889
 20
-14.05465
 30
0.0
 10
-10.65889
 20
-14.05465
 30
0.0
 10
-10.65889
 20
-14.04924
 30
0.0
 10
-10.66075
 20
-14.04498
 30
0.0
 10
-10.66444
 20
-14.04186
 30
0.0
 10
-10.66444
 20
-14.04186
 30
0.0
 10
-10.66814
 20
-14.03873
 30
0.0
 10
-10.67319
 20
-14.03718
 30
0.0
 10
-10.67964
 20
-14.03718
 30
0.0
 10
-10.67964
 20
-14.03718
 30
0.0
 10
-10.68345
 20
-14.03718
 30
0.0
 10
-10.68752
 20
-14.03767
 30
0.0
 10
-10.69182
 20
-14.03866
 30
0.0
 10
-10.69182
 20
-14.03866
 30
0.0
 10
-10.69615
 20
-14.03964
 30
0.0
 10
-10.70078
 20
-14.04117
 30
0.0
 10
-10.70574
 20
-14.04324
 30
0.0
 10
-10.70574
 20
-14.04324
 30
0.0
 10
-10.70574
 20
-14.04324
 30
0.0
 10
-10.70574
 20
-13.98534
 30
0.0
 10
-10.70574
 20
-13.98534
 30
0.0
  0
SPLINE
  5
67
330
1F
100
AcDbEntity
  8
Layer 1
 62
   250
100
AcDbSpline
210
0.0
220
0.0
230
1.0
 70
    11
 71
     3
 72
   120
 73
   116
 74
     0
 42
0.0000000001
 43
0.0000000001
 40
0.0
 40
0.0
 40
0.0
 40
0.0
 40
0.0344827586206897
 40
0.0344827586206897
 40
0.0344827586206897
 40
0.0344827586206897
 40
0.0689655172413793
 40
0.0689655172413793
 40
0.0689655172413793
 40
0.0689655172413793
 40
0.103448275862069
 40
0.103448275862069
 40
0.103448275862069
 40
0.103448275862069
 40
0.1379310344827586
 40
0.1379310344827586
 40
0.1379310344827586
 40
0.1379310344827586
 40
0.1724137931034483
 40
0.1724137931034483
 40
0.1724137931034483
 40
0.1724137931034483
 40
0.206896551724138
 40
0.206896551724138
 40
0.206896551724138
 40
0.206896551724138
 40
0.2413793103448276
 40
0.2413793103448276
 40
0.2413793103448276
 40
0.2413793103448276
 40
0.2758620689655173
 40
0.2758620689655173
 40
0.2758620689655173
 40
0.2758620689655173
 40
0.310344827586207
 40
0.310344827586207
 40
0.310344827586207
 40
0.310344827586207
 40
0.3448275862068966
 40
0.3448275862068966
 40
0.3448275862068966
 40
0.3448275862068966
 40
0.3793103448275863
 40
0.3793103448275863
 40
0.3793103448275863
 40
0.3793103448275863
 40
0.413793103448276
 40
0.413793103448276
 40
0.413793103448276
 40
0.413793103448276
 40
0.4482758620689656
 40
0.4482758620689656
 40
0.4482758620689656
 40
0.4482758620689656
 40
0.4827586206896553
 40
0.4827586206896553
 40
0.4827586206896553
 40
0.4827586206896553
 40
0.517241379310345
 40
0.517241379310345
 40
0.517241379310345
 40
0.517241379310345
 40
0.5517241379310346
 40
0.5517241379310346
 40
0.5517241379310346
 40
0.5517241379310346
 40
0.5862068965517242
 40
0.5862068965517242
 40
0.5862068965517242
 40
0.5862068965517242
 40
0.6206896551724138
 40
0.6206896551724138
 40
0.6206896551724138
 40
0.6206896551724138
 40
0.6551724137931034
 40
0.6551724137931034
 40
0.6551724137931034
 40
0.6551724137931034
 40
0.689655172413793
 40
0.689655172413793
 40
0.689655172413793
 40
0.689655172413793
 40
0.7241379310344827
 40
0.7241379310344827
 40
0.7241379310344827
 40
0.7241379310344827
 40
0.7586206896551723
 40
0.7586206896551723
 40
0.7586206896551723
 40
0.7586206896551723
 40
0.7931034482758619
 40
0.7931034482758619
 40
0.7931034482758619
 40
0.7931034482758619
 40
0.8275862068965515
 40
0.8275862068965515
 40
0.8275862068965515
 40
0.8275862068965515
 40
0.8620689655172411
 40
0.8620689655172411
 40
0.8620689655172411
 40
0.8620689655172411
 40
0.8965517241379307
 40
0.8965517241379307
 40
0.8965517241379307
 40
0.8965517241379307
 40
0.9310344827586203
 40
0.9310344827586203
 40
0.9310344827586203
 40
0.9310344827586203
 40
0.9655172413793099
 40
0.9655172413793099
 40
0.9655172413793099
 40
0.9655172413793099
 40
1.0
 40
1.0
 40
1.0
 40
1.0
 10
-10.49001
 20
-14.02386
 30
0.0
 10
-10.48688
 20
-14.01909
 30
0.0
 10
-10.48319
 20
-14.01544
 30
0.0
 10
-10.47888
 20
-14.01295
 30
0.0
 10
-10.47888
 20
-14.01295
 30
0.0
 10
-10.47458
 20
-14.01043
 30
0.0
 10
-10.46988
 20
-14.00919
 30
0.0
 10
-10.46473
 20
-14.00919
 30
0.0
 10
-10.46473
 20
-14.00919
 30
0.0
 10
-10.45586
 20
-14.00919
 30
0.0
 10
-10.44911
 20
-14.01192
 30
0.0
 10
-10.44448
 20
-14.0174
 30
0.0
 10
-10.44448
 20
-14.0174
 30
0.0
 10
-10.43984
 20
-14.02285
 30
0.0
 10
-10.43751
 20
-14.0308
 30
0.0
 10
-10.43751
 20
-14.04122
 30
0.0
 10
-10.43751
 20
-14.04122
 30
0.0
 10
-10.43751
 20
-14.04122
 30
0.0
 10
-10.43751
 20
-14.08821
 30
0.0
 10
-10.43751
 20
-14.08821
 30
0.0
 10
-10.43751
 20
-14.08821
 30
0.0
 10
-10.43751
 20
-14.08821
 30
0.0
 10
-10.46233
 20
-14.08821
 30
0.0
 10
-10.46233
 20
-14.08821
 30
0.0
 10
-10.46233
 20
-14.08821
 30
0.0
 10
-10.46233
 20
-14.08821
 30
0.0
 10
-10.46233
 20
-14.04797
 30
0.0
 10
-10.46233
 20
-14.04797
 30
0.0
 10
-10.46233
 20
-14.04797
 30
0.0
 10
-10.46228
 20
-14.04738
 30
0.0
 10
-10.46226
 20
-14.04677
 30
0.0
 10
-10.46223
 20
-14.04611
 30
0.0
 10
-10.46223
 20
-14.04611
 30
0.0
 10
-10.46221
 20
-14.04548
 30
0.0
 10
-10.46219
 20
-14.04456
 30
0.0
 10
-10.46219
 20
-14.04336
 30
0.0
 10
-10.46219
 20
-14.04336
 30
0.0
 10
-10.46219
 20
-14.0379
 30
0.0
 10
-10.46298
 20
-14.03393
 30
0.0
 10
-10.46461
 20
-14.03148
 30
0.0
 10
-10.46461
 20
-14.03148
 30
0.0
 10
-10.46621
 20
-14.02901
 30
0.0
 10
-10.46879
 20
-14.02779
 30
0.0
 10
-10.47237
 20
-14.02779
 30
0.0
 10
-10.47237
 20
-14.02779
 30
0.0
 10
-10.47707
 20
-14.02779
 30
0.0
 10
-10.48067
 20
-14.02972
 30
0.0
 10
-10.48323
 20
-14.03358
 30
0.0
 10
-10.48323
 20
-14.03358
 30
0.0
 10
-10.48577
 20
-14.03743
 30
0.0
 10
-10.48709
 20
-14.04301
 30
0.0
 10
-10.48719
 20
-14.05032
 30
0.0
 10
-10.48719
 20
-14.05032
 30
0.0
 10
-10.48719
 20
-14.05032
 30
0.0
 10
-10.48719
 20
-14.08821
 30
0.0
 10
-10.48719
 20
-14.08821
 30
0.0
 10
-10.48719
 20
-14.08821
 30
0.0
 10
-10.48719
 20
-14.08821
 30
0.0
 10
-10.512
 20
-14.08821
 30
0.0
 10
-10.512
 20
-14.08821
 30
0.0
 10
-10.512
 20
-14.08821
 30
0.0
 10
-10.512
 20
-14.08821
 30
0.0
 10
-10.512
 20
-14.04797
 30
0.0
 10
-10.512
 20
-14.04797
 30
0.0
 10
-10.512
 20
-14.04797
 30
0.0
 10
-10.512
 20
-14.03943
 30
0.0
 10
-10.51273
 20
-14.03393
 30
0.0
 10
-10.51421
 20
-14.03148
 30
0.0
 10
-10.51421
 20
-14.03148
 30
0.0
 10
-10.51567
 20
-14.02901
 30
0.0
 10
-10.51828
 20
-14.02779
 30
0.0
 10
-10.52204
 20
-14.02779
 30
0.0
 10
-10.52204
 20
-14.02779
 30
0.0
 10
-10.52679
 20
-14.02779
 30
0.0
 10
-10.53044
 20
-14.02974
 30
0.0
 10
-10.533
 20
-14.03362
 30
0.0
 10
-10.533
 20
-14.03362
 30
0.0
 10
-10.53556
 20
-14.0375
 30
0.0
 10
-10.53686
 20
-14.04303
 30
0.0
 10
-10.53686
 20
-14.05025
 30
0.0
 10
-10.53686
 20
-14.05025
 30
0.0
 10
-10.53686
 20
-14.05025
 30
0.0
 10
-10.53686
 20
-14.08821
 30
0.0
 10
-10.53686
 20
-14.08821
 30
0.0
 10
-10.53686
 20
-14.08821
 30
0.0
 10
-10.53686
 20
-14.08821
 30
0.0
 10
-10.56167
 20
-14.08821
 30
0.0
 10
-10.56167
 20
-14.08821
 30
0.0
 10
-10.56167
 20
-14.08821
 30
0.0
 10
-10.56167
 20
-14.08821
 30
0.0
 10
-10.56167
 20
-14.01105
 30
0.0
 10
-10.56167
 20
-14.01105
 30
0.0
 10
-10.56167
 20
-14.01105
 30
0.0
 10
-10.56167
 20
-14.01105
 30
0.0
 10
-10.53686
 20
-14.01105
 30
0.0
 10
-10.53686
 20
-14.01105
 30
0.0
 10
-10.53686
 20
-14.01105
 30
0.0
 10
-10.53686
 20
-14.01105
 30
0.0
 10
-10.53686
 20
-14.02236
 30
0.0
 10
-10.53686
 20
-14.02236
 30
0.0
 10
-10.53686
 20
-14.02236
 30
0.0
 10
-10.53382
 20
-14.01798
 30
0.0
 10
-10.53034
 20
-14.01472
 30
0.0
 10
-10.52641
 20
-14.0125
 30
0.0
 10
-10.52641
 20
-14.0125
 30
0.0
 10
-10.52249
 20
-14.01029
 30
0.0
 10
-10.51816
 20
-14.00919
 30
0.0
 10
-10.51343
 20
-14.00919
 30
0.0
 10
-10.51343
 20
-14.00919
 30
0.0
 10
-10.50812
 20
-14.00919
 30
0.0
 10
-10.50339
 20
-14.01048
 30
0.0
 10
-10.49932
 20
-14.01305
 30
0.0
 10
-10.49932
 20
-14.01305
 30
0.0
 10
-10.49523
 20
-14.01563
 30
0.0
 10
-10.49212
 20
-14.01923
 30
0.0
 10
-10.49001
 20
-14.02386
 30
0.0
  0
SPLINE
  5
68
330
1F
100
AcDbEntity
  8
Layer 1
 62
   250
100
AcDbSpline
210
0.0
220
0.0
230
1.0
 70
    11
 71
     3
 72
   120
 73
   116
 74
     0
 42
0.0000000001
 43
0.0000000001
 40
0.0
 40
0.0
 40
0.0
 40
0.0
 40
0.0344827586206897
 40
0.0344827586206897
 40
0.0344827586206897
 40
0.0344827586206897
 40
0.0689655172413793
 40
0.0689655172413793
 40
0.0689655172413793
 40
0.0689655172413793
 40
0.103448275862069
 40
0.103448275862069
 40
0.103448275862069
 40
0.103448275862069
 40
0.1379310344827586
 40
0.1379310344827586
 40
0.1379310344827586
 40
0.1379310344827586
 40
0.1724137931034483
 40
0.1724137931034483
 40
0.1724137931034483
 40
0.1724137931034483
 40
0.206896551724138
 40
0.206896551724138
 40
0.206896551724138
 40
0.206896551724138
 40
0.2413793103448276
 40
0.2413793103448276
 40
0.2413793103448276
 40
0.2413793103448276
 40
0.2758620689655173
 40
0.2758620689655173
 40
0.2758620689655173
 40
0.2758620689655173
 40
0.310344827586207
 40
0.310344827586207
 40
0.310344827586207
 40
0.310344827586207
 40
0.3448275862068966
 40
0.3448275862068966
 40
0.3448275862068966
 40
0.3448275862068966
 40
0.3793103448275863
 40
0.3793103448275863
 40
0.3793103448275863
 40
0.3793103448275863
 40
0.413793103448276
 40
0.413793103448276
 40
0.413793103448276
 40
0.413793103448276
 40
0.4482758620689656
 40
0.4482758620689656
 40
0.4482758620689656
 40
0.4482758620689656
 40
0.4827586206896553
 40
0.4827586206896553
 40
0.4827586206896553
 40
0.4827586206896553
 40
0.517241379310345
 40
0.517241379310345
 40
0.517241379310345
 40
0.517241379310345
 40
0.5517241379310346
 40
0.5517241379310346
 40
0.5517241379310346
 40
0.5517241379310346
 40
0.5862068965517242
 40
0.5862068965517242
 40
0.5862068965517242
 40
0.5862068965517242
 40
0.6206896551724138
 40
0.6206896551724138
 40
0.6206896551724138
 40
0.6206896551724138
 40
0.6551724137931034
 40
0.6551724137931034
 40
0.6551724137931034
 40
0.6551724137931034
 40
0.689655172413793
 40
0.689655172413793
 40
0.689655172413793
 40
0.689655172413793
 40
0.7241379310344827
 40
0.7241379310344827
 40
0.7241379310344827
 40
0.7241379310344827
 40
0.7586206896551723
 40
0.7586206896551723
 40
0.7586206896551723
 40
0.7586206896551723
 40
0.7931034482758619
 40
0.7931034482758619
 40
0.7931034482758619
 40
0.7931034482758619
 40
0.8275862068965515
 40
0.8275862068965515
 40
0.8275862068965515
 40
0.8275862068965515
 40
0.8620689655172411
 40
0.8620689655172411
 40
0.8620689655172411
 40
0.8620689655172411
 40
0.8965517241379307
 40
0.8965517241379307
 40
0.8965517241379307
 40
0.8965517241379307
 40
0.9310344827586203
 40
0.9310344827586203
 40
0.9310344827586203
 40
0.9310344827586203
 40
0.9655172413793099
 40
0.9655172413793099
 40
0.9655172413793099
 40
0.9655172413793099
 40
1.0
 40
1.0
 40
1.0
 40
1.0
 10
-10.34297
 20
-14.02386
 30
0.0
 10
-10.33984
 20
-14.01909
 30
0.0
 10
-10.33615
 20
-14.01544
 30
0.0
 10
-10.33184
 20
-14.01295
 30
0.0
 10
-10.33184
 20
-14.01295
 30
0.0
 10
-10.32754
 20
-14.01043
 30
0.0
 10
-10.32284
 20
-14.00919
 30
0.0
 10
-10.31769
 20
-14.00919
 30
0.0
 10
-10.31769
 20
-14.00919
 30
0.0
 10
-10.30882
 20
-14.00919
 30
0.0
 10
-10.30207
 20
-14.01192
 30
0.0
 10
-10.29744
 20
-14.0174
 30
0.0
 10
-10.29744
 20
-14.0174
 30
0.0
 10
-10.2928
 20
-14.02285
 30
0.0
 10
-10.29047
 20
-14.0308
 30
0.0
 10
-10.29047
 20
-14.04122
 30
0.0
 10
-10.29047
 20
-14.04122
 30
0.0
 10
-10.29047
 20
-14.04122
 30
0.0
 10
-10.29047
 20
-14.08821
 30
0.0
 10
-10.29047
 20
-14.08821
 30
0.0
 10
-10.29047
 20
-14.08821
 30
0.0
 10
-10.29047
 20
-14.08821
 30
0.0
 10
-10.31529
 20
-14.08821
 30
0.0
 10
-10.31529
 20
-14.08821
 30
0.0
 10
-10.31529
 20
-14.08821
 30
0.0
 10
-10.31529
 20
-14.08821
 30
0.0
 10
-10.31529
 20
-14.04797
 30
0.0
 10
-10.31529
 20
-14.04797
 30
0.0
 10
-10.31529
 20
-14.04797
 30
0.0
 10
-10.31524
 20
-14.04738
 30
0.0
 10
-10.31522
 20
-14.04677
 30
0.0
 10
-10.31519
 20
-14.04611
 30
0.0
 10
-10.31519
 20
-14.04611
 30
0.0
 10
-10.31517
 20
-14.04548
 30
0.0
 10
-10.31515
 20
-14.04456
 30
0.0
 10
-10.31515
 20
-14.04336
 30
0.0
 10
-10.31515
 20
-14.04336
 30
0.0
 10
-10.31515
 20
-14.0379
 30
0.0
 10
-10.31594
 20
-14.03393
 30
0.0
 10
-10.31757
 20
-14.03148
 30
0.0
 10
-10.31757
 20
-14.03148
 30
0.0
 10
-10.31917
 20
-14.02901
 30
0.0
 10
-10.32175
 20
-14.02779
 30
0.0
 10
-10.32533
 20
-14.02779
 30
0.0
 10
-10.32533
 20
-14.02779
 30
0.0
 10
-10.33003
 20
-14.02779
 30
0.0
 10
-10.33363
 20
-14.02972
 30
0.0
 10
-10.33619
 20
-14.03358
 30
0.0
 10
-10.33619
 20
-14.03358
 30
0.0
 10
-10.33873
 20
-14.03743
 30
0.0
 10
-10.34005
 20
-14.04301
 30
0.0
 10
-10.34015
 20
-14.05032
 30
0.0
 10
-10.34015
 20
-14.05032
 30
0.0
 10
-10.34015
 20
-14.05032
 30
0.0
 10
-10.34015
 20
-14.08821
 30
0.0
 10
-10.34015
 20
-14.08821
 30
0.0
 10
-10.34015
 20
-14.08821
 30
0.0
 10
-10.34015
 20
-14.08821
 30
0.0
 10
-10.36496
 20
-14.08821
 30
0.0
 10
-10.36496
 20
-14.08821
 30
0.0
 10
-10.36496
 20
-14.08821
 30
0.0
 10
-10.36496
 20
-14.08821
 30
0.0
 10
-10.36496
 20
-14.04797
 30
0.0
 10
-10.36496
 20
-14.04797
 30
0.0
 10
-10.36496
 20
-14.04797
 30
0.0
 10
-10.36496
 20
-14.03943
 30
0.0
 10
-10.36569
 20
-14.03393
 30
0.0
 10
-10.36717
 20
-14.03148
 30
0.0
 10
-10.36717
 20
-14.03148
 30
0.0
 10
-10.36863
 20
-14.02901
 30
0.0
 10
-10.37124
 20
-14.02779
 30
0.0
 10
-10.375
 20
-14.02779
 30
0.0
 10
-10.375
 20
-14.02779
 30
0.0
 10
-10.37975
 20
-14.02779
 30
0.0
 10
-10.3834
 20
-14.02974
 30
0.0
 10
-10.38596
 20
-14.03362
 30
0.0
 10
-10.38596
 20
-14.03362
 30
0.0
 10
-10.38852
 20
-14.0375
 30
0.0
 10
-10.38982
 20
-14.04303
 30
0.0
 10
-10.38982
 20
-14.05025
 30
0.0
 10
-10.38982
 20
-14.05025
 30
0.0
 10
-10.38982
 20
-14.05025
 30
0.0
 10
-10.38982
 20
-14.08821
 30
0.0
 10
-10.38982
 20
-14.08821
 30
0.0
 10
-10.38982
 20
-14.08821
 30
0.0
 10
-10.38982
 20
-14.08821
 30
0.0
 10
-10.41463
 20
-14.08821
 30
0.0
 10
-10.41463
 20
-14.08821
 30
0.0
 10
-10.41463
 20
-14.08821
 30
0.0
 10
-10.41463
 20
-14.08821
 30
0.0
 10
-10.41463
 20
-14.01105
 30
0.0
 10
-10.41463
 20
-14.01105
 30
0.0
 10
-10.41463
 20
-14.01105
 30
0.0
 10
-10.41463
 20
-14.01105
 30
0.0
 10
-10.38982
 20
-14.01105
 30
0.0
 10
-10.38982
 20
-14.01105
 30
0.0
 10
-10.38982
 20
-14.01105
 30
0.0
 10
-10.38982
 20
-14.01105
 30
0.0
 10
-10.38982
 20
-14.02236
 30
0.0
 10
-10.38982
 20
-14.02236
 30
0.0
 10
-10.38982
 20
-14.02236
 30
0.0
 10
-10.38678
 20
-14.01798
 30
0.0
 10
-10.3833
 20
-14.01472
 30
0.0
 10
-10.37937
 20
-14.0125
 30
0.0
 10
-10.37937
 20
-14.0125
 30
0.0
 10
-10.37545
 20
-14.01029
 30
0.0
 10
-10.37112
 20
-14.00919
 30
0.0
 10
-10.36639
 20
-14.00919
 30
0.0
 10
-10.36639
 20
-14.00919
 30
0.0
 10
-10.36108
 20
-14.00919
 30
0.0
 10
-10.35635
 20
-14.01048
 30
0.0
 10
-10.35228
 20
-14.01305
 30
0.0
 10
-10.35228
 20
-14.01305
 30
0.0
 10
-10.34819
 20
-14.01563
 30
0.0
 10
-10.34508
 20
-14.01923
 30
0.0
 10
-10.34297
 20
-14.02386
 30
0.0
  0
SPLINE
  5
69
330
1F
100
AcDbEntity
  8
Layer 1
 62
   250
100
AcDbSpline
210
0.0
220
0.0
230
1.0
 70
    11
 71
     3
 72
    48
 73
    44
 74
     0
 42
0.0000000001
 43
0.0000000001
 40
0.0
 40
0.0
 40
0.0
 40
0.0
 40
0.0909090909090909
 40
0.0909090909090909
 40
0.0909090909090909
 40
0.0909090909090909
 40
0.1818181818181818
 40
0.1818181818181818
 40
0.1818181818181818
 40
0.1818181818181818
 40
0.2727272727272727
 40
0.2727272727272727
 40
0.2727272727272727
 40
0.2727272727272727
 40
0.3636363636363636
 40
0.3636363636363636
 40
0.3636363636363636
 40
0.3636363636363636
 40
0.4545454545454546
 40
0.4545454545454546
 40
0.4545454545454546
 40
0.4545454545454546
 40
0.5454545454545455
 40
0.5454545454545455
 40
0.5454545454545455
 40
0.5454545454545455
 40
0.6363636363636365
 40
0.6363636363636365
 40
0.6363636363636365
 40
0.6363636363636365
 40
0.7272727272727274
 40
0.7272727272727274
 40
0.7272727272727274
 40
0.7272727272727274
 40
0.8181818181818183
 40
0.8181818181818183
 40
0.8181818181818183
 40
0.8181818181818183
 40
0.9090909090909093
 40
0.9090909090909093
 40
0.9090909090909093
 40
0.9090909090909093
 40
1.0
 40
1.0
 40
1.0
 40
1.0
 10
-11.16487
 20
-14.23414
 30
0.0
 10
-11.16487
 20
-14.23414
 30
0.0
 10
-11.14144
 20
-14.23414
 30
0.0
 10
-11.14144
 20
-14.23414
 30
0.0
 10
-11.14144
 20
-14.23414
 30
0.0
 10
-11.14144
 20
-14.23414
 30
0.0
 10
-11.14144
 20
-14.16765
 30
0.0
 10
-11.14144
 20
-14.16765
 30
0.0
 10
-11.14144
 20
-14.16765
 30
0.0
 10
-11.14144
 20
-14.16765
 30
0.0
 10
-11.16548
 20
-14.17262
 30
0.0
 10
-11.16548
 20
-14.17262
 30
0.0
 10
-11.16548
 20
-14.17262
 30
0.0
 10
-11.16548
 20
-14.17262
 30
0.0
 10
-11.16548
 20
-14.15455
 30
0.0
 10
-11.16548
 20
-14.15455
 30
0.0
 10
-11.16548
 20
-14.15455
 30
0.0
 10
-11.16548
 20
-14.15455
 30
0.0
 10
-11.14158
 20
-14.14959
 30
0.0
 10
-11.14158
 20
-14.14959
 30
0.0
 10
-11.14158
 20
-14.14959
 30
0.0
 10
-11.14158
 20
-14.14959
 30
0.0
 10
-11.11637
 20
-14.14959
 30
0.0
 10
-11.11637
 20
-14.14959
 30
0.0
 10
-11.11637
 20
-14.14959
 30
0.0
 10
-11.11637
 20
-14.14959
 30
0.0
 10
-11.11637
 20
-14.23414
 30
0.0
 10
-11.11637
 20
-14.23414
 30
0.0
 10
-11.11637
 20
-14.23414
 30
0.0
 10
-11.11637
 20
-14.23414
 30
0.0
 10
-11.09295
 20
-14.23414
 30
0.0
 10
-11.09295
 20
-14.23414
 30
0.0
 10
-11.09295
 20
-14.23414
 30
0.0
 10
-11.09295
 20
-14.23414
 30
0.0
 10
-11.09295
 20
-14.25246
 30
0.0
 10
-11.09295
 20
-14.25246
 30
0.0
 10
-11.09295
 20
-14.25246
 30
0.0
 10
-11.09295
 20
-14.25246
 30
0.0
 10
-11.16487
 20
-14.25246
 30
0.0
 10
-11.16487
 20
-14.25246
 30
0.0
 10
-11.16487
 20
-14.25246
 30
0.0
 10
-11.16487
 20
-14.25246
 30
0.0
 10
-11.16487
 20
-14.23414
 30
0.0
 10
-11.16487
 20
-14.23414
 30
0.0
  0
SPLINE
  5
6A
330
1F
100
AcDbEntity
  8
Layer 1
 62
   250
100
AcDbSpline
210
0.0
220
0.0
230
1.0
 70
    11
 71
     3
 72
    36
 73
    32
 74
     0
 42
0.0000000001
 43
0.0000000001
 40
0.0
 40
0.0
 40
0.0
 40
0.0
 40
0.125
 40
0.125
 40
0.125
 40
0.125
 40
0.25
 40
0.25
 40
0.25
 40
0.25
 40
0.375
 40
0.375
 40
0.375
 40
0.375
 40
0.5
 40
0.5
 40
0.5
 40
0.5
 40
0.625
 40
0.625
 40
0.625
 40
0.625
 40
0.75
 40
0.75
 40
0.75
 40
0.75
 40
0.875
 40
0.875
 40
0.875
 40
0.875
 40
1.0
 40
1.0
 40
1.0
 40
1.0
 10
-11.0183
 20
-14.20093
 30
0.0
 10
-11.0183
 20
-14.18807
 30
0.0
 10
-11.0195
 20
-14.17901
 30
0.0
 10
-11.02192
 20
-14.17374
 30
0.0
 10
-11.02192
 20
-14.17374
 30
0.0
 10
-11.02432
 20
-14.1685
 30
0.0
 10
-11.02839
 20
-14.16587
 30
0.0
 10
-11.03408
 20
-14.16587
 30
0.0
 10
-11.03408
 20
-14.16587
 30
0.0
 10
-11.03977
 20
-14.16587
 30
0.0
 10
-11.04384
 20
-14.1685
 30
0.0
 10
-11.04629
 20
-14.17374
 30
0.0
 10
-11.04629
 20
-14.17374
 30
0.0
 10
-11.04871
 20
-14.17901
 30
0.0
 10
-11.04993
 20
-14.18807
 30
0.0
 10
-11.04993
 20
-14.20093
 30
0.0
 10
-11.04993
 20
-14.20093
 30
0.0
 10
-11.04993
 20
-14.21391
 30
0.0
 10
-11.04871
 20
-14.22309
 30
0.0
 10
-11.04629
 20
-14.2284
 30
0.0
 10
-11.04629
 20
-14.2284
 30
0.0
 10
-11.04384
 20
-14.23374
 30
0.0
 10
-11.03977
 20
-14.2364
 30
0.0
 10
-11.03408
 20
-14.2364
 30
0.0
 10
-11.03408
 20
-14.2364
 30
0.0
 10
-11.02844
 20
-14.2364
 30
0.0
 10
-11.02439
 20
-14.23374
 30
0.0
 10
-11.02194
 20
-14.2284
 30
0.0
 10
-11.02194
 20
-14.2284
 30
0.0
 10
-11.01952
 20
-14.22309
 30
0.0
 10
-11.0183
 20
-14.21391
 30
0.0
 10
-11.0183
 20
-14.20093
 30
0.0
  0
SPLINE
  5
6B
330
1F
100
AcDbEntity
  8
Layer 1
 62
   250
100
AcDbSpline
210
0.0
220
0.0
230
1.0
 70
    11
 71
     3
 72
    36
 73
    32
 74
     0
 42
0.0000000001
 43
0.0000000001
 40
0.0
 40
0.0
 40
0.0
 40
0.0
 40
0.125
 40
0.125
 40
0.125
 40
0.125
 40
0.25
 40
0.25
 40
0.25
 40
0.25
 40
0.375
 40
0.375
 40
0.375
 40
0.375
 40
0.5
 40
0.5
 40
0.5
 40
0.5
 40
0.625
 40
0.625
 40
0.625
 40
0.625
 40
0.75
 40
0.75
 40
0.75
 40
0.75
 40
0.875
 40
0.875
 40
0.875
 40
0.875
 40
1.0
 40
1.0
 40
1.0
 40
1.0
 10
-10.99177
 20
-14.20112
 30
0.0
 10
-10.99177
 20
-14.21817
 30
0.0
 10
-10.99544
 20
-14.23132
 30
0.0
 10
-11.0028
 20
-14.24058
 30
0.0
 10
-11.0028
 20
-14.24058
 30
0.0
 10
-11.01014
 20
-14.24983
 30
0.0
 10
-11.02058
 20
-14.25446
 30
0.0
 10
-11.03408
 20
-14.25446
 30
0.0
 10
-11.03408
 20
-14.25446
 30
0.0
 10
-11.04763
 20
-14.25446
 30
0.0
 10
-11.05809
 20
-14.24983
 30
0.0
 10
-11.06543
 20
-14.24058
 30
0.0
 10
-11.06543
 20
-14.24058
 30
0.0
 10
-11.07279
 20
-14.23132
 30
0.0
 10
-11.07646
 20
-14.21817
 30
0.0
 10
-11.07646
 20
-14.20112
 30
0.0
 10
-11.07646
 20
-14.20112
 30
0.0
 10
-11.07646
 20
-14.18405
 30
0.0
 10
-11.07279
 20
-14.17087
 30
0.0
 10
-11.06543
 20
-14.16161
 30
0.0
 10
-11.06543
 20
-14.16161
 30
0.0
 10
-11.05809
 20
-14.15237
 30
0.0
 10
-11.04763
 20
-14.14773
 30
0.0
 10
-11.03408
 20
-14.14773
 30
0.0
 10
-11.03408
 20
-14.14773
 30
0.0
 10
-11.02058
 20
-14.14773
 30
0.0
 10
-11.01014
 20
-14.15237
 30
0.0
 10
-11.0028
 20
-14.16161
 30
0.0
 10
-11.0028
 20
-14.16161
 30
0.0
 10
-10.99544
 20
-14.17087
 30
0.0
 10
-10.99177
 20
-14.18405
 30
0.0
 10
-10.99177
 20
-14.20112
 30
0.0
  0
SPLINE
  5
6C
330
1F
100
AcDbEntity
  8
Layer 1
 62
   250
100
AcDbSpline
210
0.0
220
0.0
230
1.0
 70
    11
 71
     3
 72
    84
 73
    80
 74
     0
 42
0.0000000001
 43
0.0000000001
 40
0.0
 40
0.0
 40
0.0
 40
0.0
 40
0.05
 40
0.05
 40
0.05
 40
0.05
 40
0.1
 40
0.1
 40
0.1
 40
0.1
 40
0.15
 40
0.15
 40
0.15
 40
0.15
 40
0.2
 40
0.2
 40
0.2
 40
0.2
 40
0.25
 40
0.25
 40
0.25
 40
0.25
 40
0.3
 40
0.3
 40
0.3
 40
0.3
 40
0.35
 40
0.35
 40
0.35
 40
0.35
 40
0.4
 40
0.4
 40
0.4
 40
0.4
 40
0.45
 40
0.45
 40
0.45
 40
0.45
 40
0.4999999999999999
 40
0.4999999999999999
 40
0.4999999999999999
 40
0.4999999999999999
 40
0.5499999999999999
 40
0.5499999999999999
 40
0.5499999999999999
 40
0.5499999999999999
 40
0.6
 40
0.6
 40
0.6
 40
0.6
 40
0.65
 40
0.65
 40
0.65
 40
0.65
 40
0.7000000000000001
 40
0.7000000000000001
 40
0.7000000000000001
 40
0.7000000000000001
 40
0.7500000000000001
 40
0.7500000000000001
 40
0.7500000000000001
 40
0.7500000000000001
 40
0.8000000000000002
 40
0.8000000000000002
 40
0.8000000000000002
 40
0.8000000000000002
 40
0.8500000000000002
 40
0.8500000000000002
 40
0.8500000000000002
 40
0.8500000000000002
 40
0.9000000000000002
 40
0.9000000000000002
 40
0.9000000000000002
 40
0.9000000000000002
 40
0.9500000000000003
 40
0.9500000000000003
 40
0.9500000000000003
 40
0.9500000000000003
 40
1.0
 40
1.0
 40
1.0
 40
1.0
 10
-10.92486
 20
-14.22243
 30
0.0
 10
-10.92486
 20
-14.22243
 30
0.0
 10
-10.92486
 20
-14.1753
 30
0.0
 10
-10.92486
 20
-14.1753
 30
0.0
 10
-10.92486
 20
-14.1753
 30
0.0
 10
-10.92486
 20
-14.1753
 30
0.0
 10
-10.90005
 20
-14.1753
 30
0.0
 10
-10.90005
 20
-14.1753
 30
0.0
 10
-10.90005
 20
-14.1753
 30
0.0
 10
-10.90005
 20
-14.1753
 30
0.0
 10
-10.90005
 20
-14.18301
 30
0.0
 10
-10.90005
 20
-14.18301
 30
0.0
 10
-10.90005
 20
-14.18301
 30
0.0
 10
-10.90005
 20
-14.1872
 30
0.0
 10
-10.90007
 20
-14.19244
 30
0.0
 10
-10.90012
 20
-14.19874
 30
0.0
 10
-10.90012
 20
-14.19874
 30
0.0
 10
-10.90017
 20
-14.20507
 30
0.0
 10
-10.90019
 20
-14.20928
 30
0.0
 10
-10.90019
 20
-14.2114
 30
0.0
 10
-10.90019
 20
-14.2114
 30
0.0
 10
-10.90019
 20
-14.21761
 30
0.0
 10
-10.90002
 20
-14.22207
 30
0.0
 10
-10.8997
 20
-14.2248
 30
0.0
 10
-10.8997
 20
-14.2248
 30
0.0
 10
-10.89939
 20
-14.22753
 30
0.0
 10
-10.89883
 20
-14.22951
 30
0.0
 10
-10.89805
 20
-14.23075
 30
0.0
 10
-10.89805
 20
-14.23075
 30
0.0
 10
-10.89704
 20
-14.23238
 30
0.0
 10
-10.89572
 20
-14.2336
 30
0.0
 10
-10.8941
 20
-14.23447
 30
0.0
 10
-10.8941
 20
-14.23447
 30
0.0
 10
-10.89245
 20
-14.23534
 30
0.0
 10
-10.89059
 20
-14.23579
 30
0.0
 10
-10.88848
 20
-14.23579
 30
0.0
 10
-10.88848
 20
-14.23579
 30
0.0
 10
-10.88333
 20
-14.23579
 30
0.0
 10
-10.87928
 20
-14.23381
 30
0.0
 10
-10.87634
 20
-14.22986
 30
0.0
 10
-10.87634
 20
-14.22986
 30
0.0
 10
-10.8734
 20
-14.22591
 30
0.0
 10
-10.87194
 20
-14.22043
 30
0.0
 10
-10.87194
 20
-14.2134
 30
0.0
 10
-10.87194
 20
-14.2134
 30
0.0
 10
-10.87194
 20
-14.2134
 30
0.0
 10
-10.87194
 20
-14.1753
 30
0.0
 10
-10.87194
 20
-14.1753
 30
0.0
 10
-10.87194
 20
-14.1753
 30
0.0
 10
-10.87194
 20
-14.1753
 30
0.0
 10
-10.84727
 20
-14.1753
 30
0.0
 10
-10.84727
 20
-14.1753
 30
0.0
 10
-10.84727
 20
-14.1753
 30
0.0
 10
-10.84727
 20
-14.1753
 30
0.0
 10
-10.84727
 20
-14.25246
 30
0.0
 10
-10.84727
 20
-14.25246
 30
0.0
 10
-10.84727
 20
-14.25246
 30
0.0
 10
-10.84727
 20
-14.25246
 30
0.0
 10
-10.87194
 20
-14.25246
 30
0.0
 10
-10.87194
 20
-14.25246
 30
0.0
 10
-10.87194
 20
-14.25246
 30
0.0
 10
-10.87194
 20
-14.25246
 30
0.0
 10
-10.87194
 20
-14.24129
 30
0.0
 10
-10.87194
 20
-14.24129
 30
0.0
 10
-10.87194
 20
-14.24129
 30
0.0
 10
-10.87566
 20
-14.2458
 30
0.0
 10
-10.87961
 20
-14.24912
 30
0.0
 10
-10.88375
 20
-14.25126
 30
0.0
 10
-10.88375
 20
-14.25126
 30
0.0
 10
-10.88791
 20
-14.2534
 30
0.0
 10
-10.8925
 20
-14.25446
 30
0.0
 10
-10.89751
 20
-14.25446
 30
0.0
 10
-10.89751
 20
-14.25446
 30
0.0
 10
-10.90642
 20
-14.25446
 30
0.0
 10
-10.91319
 20
-14.25173
 30
0.0
 10
-10.91787
 20
-14.24625
 30
0.0
 10
-10.91787
 20
-14.24625
 30
0.0
 10
-10.92253
 20
-14.24079
 30
0.0
 10
-10.92486
 20
-14.23285
 30
0.0
 10
-10.92486
 20
-14.22243
 30
0.0
  0
SPLINE
  5
6D
330
1F
100
AcDbEntity
  8
Layer 1
 62
   250
100
AcDbSpline
210
0.0
220
0.0
230
1.0
 70
    11
 71
     3
 72
    76
 73
    72
 74
     0
 42
0.0000000001
 43
0.0000000001
 40
0.0
 40
0.0
 40
0.0
 40
0.0
 40
0.0555555555555556
 40
0.0555555555555556
 40
0.0555555555555556
 40
0.0555555555555556
 40
0.1111111111111111
 40
0.1111111111111111
 40
0.1111111111111111
 40
0.1111111111111111
 40
0.1666666666666667
 40
0.1666666666666667
 40
0.1666666666666667
 40
0.1666666666666667
 40
0.2222222222222222
 40
0.2222222222222222
 40
0.2222222222222222
 40
0.2222222222222222
 40
0.2777777777777778
 40
0.2777777777777778
 40
0.2777777777777778
 40
0.2777777777777778
 40
0.3333333333333334
 40
0.3333333333333334
 40
0.3333333333333334
 40
0.3333333333333334
 40
0.388888888888889
 40
0.388888888888889
 40
0.388888888888889
 40
0.388888888888889
 40
0.4444444444444445
 40
0.4444444444444445
 40
0.4444444444444445
 40
0.4444444444444445
 40
0.5000000000000001
 40
0.5000000000000001
 40
0.5000000000000001
 40
0.5000000000000001
 40
0.5555555555555557
 40
0.5555555555555557
 40
0.5555555555555557
 40
0.5555555555555557
 40
0.6111111111111113
 40
0.6111111111111113
 40
0.6111111111111113
 40
0.6111111111111113
 40
0.6666666666666669
 40
0.6666666666666669
 40
0.6666666666666669
 40
0.6666666666666669
 40
0.7222222222222224
 40
0.7222222222222224
 40
0.7222222222222224
 40
0.7222222222222224
 40
0.777777777777778
 40
0.777777777777778
 40
0.777777777777778
 40
0.777777777777778
 40
0.8333333333333336
 40
0.8333333333333336
 40
0.8333333333333336
 40
0.8333333333333336
 40
0.8888888888888892
 40
0.8888888888888892
 40
0.8888888888888892
 40
0.8888888888888892
 40
0.9444444444444448
 40
0.9444444444444448
 40
0.9444444444444448
 40
0.9444444444444448
 40
1.0
 40
1.0
 40
1.0
 40
1.0
 10
-10.77279
 20
-14.14524
 30
0.0
 10
-10.77279
 20
-14.14524
 30
0.0
 10
-10.77279
 20
-14.16142
 30
0.0
 10
-10.77279
 20
-14.16142
 30
0.0
 10
-10.77279
 20
-14.16142
 30
0.0
 10
-10.77279
 20
-14.16142
 30
0.0
 10
-10.78645
 20
-14.16142
 30
0.0
 10
-10.78645
 20
-14.16142
 30
0.0
 10
-10.78645
 20
-14.16142
 30
0.0
 10
-10.78993
 20
-14.16142
 30
0.0
 10
-10.79238
 20
-14.16206
 30
0.0
 10
-10.79374
 20
-14.16333
 30
0.0
 10
-10.79374
 20
-14.16333
 30
0.0
 10
-10.79513
 20
-14.1646
 30
0.0
 10
-10.79581
 20
-14.16678
 30
0.0
 10
-10.79581
 20
-14.16991
 30
0.0
 10
-10.79581
 20
-14.16991
 30
0.0
 10
-10.79581
 20
-14.16991
 30
0.0
 10
-10.79581
 20
-14.1753
 30
0.0
 10
-10.79581
 20
-14.1753
 30
0.0
 10
-10.79581
 20
-14.1753
 30
0.0
 10
-10.79581
 20
-14.1753
 30
0.0
 10
-10.77474
 20
-14.1753
 30
0.0
 10
-10.77474
 20
-14.1753
 30
0.0
 10
-10.77474
 20
-14.1753
 30
0.0
 10
-10.77474
 20
-14.1753
 30
0.0
 10
-10.77474
 20
-14.19294
 30
0.0
 10
-10.77474
 20
-14.19294
 30
0.0
 10
-10.77474
 20
-14.19294
 30
0.0
 10
-10.77474
 20
-14.19294
 30
0.0
 10
-10.79581
 20
-14.19294
 30
0.0
 10
-10.79581
 20
-14.19294
 30
0.0
 10
-10.79581
 20
-14.19294
 30
0.0
 10
-10.79581
 20
-14.19294
 30
0.0
 10
-10.79581
 20
-14.25246
 30
0.0
 10
-10.79581
 20
-14.25246
 30
0.0
 10
-10.79581
 20
-14.25246
 30
0.0
 10
-10.79581
 20
-14.25246
 30
0.0
 10
-10.82048
 20
-14.25246
 30
0.0
 10
-10.82048
 20
-14.25246
 30
0.0
 10
-10.82048
 20
-14.25246
 30
0.0
 10
-10.82048
 20
-14.25246
 30
0.0
 10
-10.82048
 20
-14.19294
 30
0.0
 10
-10.82048
 20
-14.19294
 30
0.0
 10
-10.82048
 20
-14.19294
 30
0.0
 10
-10.82048
 20
-14.19294
 30
0.0
 10
-10.83274
 20
-14.19294
 30
0.0
 10
-10.83274
 20
-14.19294
 30
0.0
 10
-10.83274
 20
-14.19294
 30
0.0
 10
-10.83274
 20
-14.19294
 30
0.0
 10
-10.83274
 20
-14.1753
 30
0.0
 10
-10.83274
 20
-14.1753
 30
0.0
 10
-10.83274
 20
-14.1753
 30
0.0
 10
-10.83274
 20
-14.1753
 30
0.0
 10
-10.82048
 20
-14.1753
 30
0.0
 10
-10.82048
 20
-14.1753
 30
0.0
 10
-10.82048
 20
-14.1753
 30
0.0
 10
-10.82048
 20
-14.1753
 30
0.0
 10
-10.82048
 20
-14.16991
 30
0.0
 10
-10.82048
 20
-14.16991
 30
0.0
 10
-10.82048
 20
-14.16991
 30
0.0
 10
-10.82048
 20
-14.16151
 30
0.0
 10
-10.81813
 20
-14.15528
 30
0.0
 10
-10.81345
 20
-14.15126
 30
0.0
 10
-10.81345
 20
-14.15126
 30
0.0
 10
-10.80877
 20
-14.14724
 30
0.0
 10
-10.8015
 20
-14.14524
 30
0.0
 10
-10.79167
 20
-14.14524
 30
0.0
 10
-10.79167
 20
-14.14524
 30
0.0
 10
-10.79167
 20
-14.14524
 30
0.0
 10
-10.77279
 20
-14.14524
 30
0.0
 10
-10.77279
 20
-14.14524
 30
0.0
  0
SPLINE
  5
6E
330
1F
100
AcDbEntity
  8
Layer 1
 62
   250
100
AcDbSpline
210
0.0
220
0.0
230
1.0
 70
    11
 71
     3
 72
    76
 73
    72
 74
     0
 42
0.0000000001
 43
0.0000000001
 40
0.0
 40
0.0
 40
0.0
 40
0.0
 40
0.0555555555555556
 40
0.0555555555555556
 40
0.0555555555555556
 40
0.0555555555555556
 40
0.1111111111111111
 40
0.1111111111111111
 40
0.1111111111111111
 40
0.1111111111111111
 40
0.1666666666666667
 40
0.1666666666666667
 40
0.1666666666666667
 40
0.1666666666666667
 40
0.2222222222222222
 40
0.2222222222222222
 40
0.2222222222222222
 40
0.2222222222222222
 40
0.2777777777777778
 40
0.2777777777777778
 40
0.2777777777777778
 40
0.2777777777777778
 40
0.3333333333333334
 40
0.3333333333333334
 40
0.3333333333333334
 40
0.3333333333333334
 40
0.388888888888889
 40
0.388888888888889
 40
0.388888888888889
 40
0.388888888888889
 40
0.4444444444444445
 40
0.4444444444444445
 40
0.4444444444444445
 40
0.4444444444444445
 40
0.5000000000000001
 40
0.5000000000000001
 40
0.5000000000000001
 40
0.5000000000000001
 40
0.5555555555555557
 40
0.5555555555555557
 40
0.5555555555555557
 40
0.5555555555555557
 40
0.6111111111111113
 40
0.6111111111111113
 40
0.6111111111111113
 40
0.6111111111111113
 40
0.6666666666666669
 40
0.6666666666666669
 40
0.6666666666666669
 40
0.6666666666666669
 40
0.7222222222222224
 40
0.7222222222222224
 40
0.7222222222222224
 40
0.7222222222222224
 40
0.777777777777778
 40
0.777777777777778
 40
0.777777777777778
 40
0.777777777777778
 40
0.8333333333333336
 40
0.8333333333333336
 40
0.8333333333333336
 40
0.8333333333333336
 40
0.8888888888888892
 40
0.8888888888888892
 40
0.8888888888888892
 40
0.8888888888888892
 40
0.9444444444444448
 40
0.9444444444444448
 40
0.9444444444444448
 40
0.9444444444444448
 40
1.0
 40
1.0
 40
1.0
 40
1.0
 10
-10.63039
 20
-14.24682
 30
0.0
 10
-10.63525
 20
-14.24933
 30
0.0
 10
-10.64033
 20
-14.25124
 30
0.0
 10
-10.64563
 20
-14.25253
 30
0.0
 10
-10.64563
 20
-14.25253
 30
0.0
 10
-10.65089
 20
-14.25382
 30
0.0
 10
-10.65642
 20
-14.25446
 30
0.0
 10
-10.66216
 20
-14.25446
 30
0.0
 10
-10.66216
 20
-14.25446
 30
0.0
 10
-10.67928
 20
-14.25446
 30
0.0
 10
-10.69285
 20
-14.24966
 30
0.0
 10
-10.70287
 20
-14.24009
 30
0.0
 10
-10.70287
 20
-14.24009
 30
0.0
 10
-10.71289
 20
-14.23052
 30
0.0
 10
-10.7179
 20
-14.21754
 30
0.0
 10
-10.7179
 20
-14.20112
 30
0.0
 10
-10.7179
 20
-14.20112
 30
0.0
 10
-10.7179
 20
-14.18468
 30
0.0
 10
-10.71289
 20
-14.17167
 30
0.0
 10
-10.70287
 20
-14.1621
 30
0.0
 10
-10.70287
 20
-14.1621
 30
0.0
 10
-10.69285
 20
-14.15253
 30
0.0
 10
-10.67928
 20
-14.14773
 30
0.0
 10
-10.66216
 20
-14.14773
 30
0.0
 10
-10.66216
 20
-14.14773
 30
0.0
 10
-10.65642
 20
-14.14773
 30
0.0
 10
-10.65089
 20
-14.14837
 30
0.0
 10
-10.64563
 20
-14.14966
 30
0.0
 10
-10.64563
 20
-14.14966
 30
0.0
 10
-10.64033
 20
-14.15095
 30
0.0
 10
-10.63525
 20
-14.15286
 30
0.0
 10
-10.63039
 20
-14.15538
 30
0.0
 10
-10.63039
 20
-14.15538
 30
0.0
 10
-10.63039
 20
-14.15538
 30
0.0
 10
-10.63039
 20
-14.17666
 30
0.0
 10
-10.63039
 20
-14.17666
 30
0.0
 10
-10.63039
 20
-14.17666
 30
0.0
 10
-10.6353
 20
-14.1733
 30
0.0
 10
-10.64015
 20
-14.17085
 30
0.0
 10
-10.64492
 20
-14.1693
 30
0.0
 10
-10.64492
 20
-14.1693
 30
0.0
 10
-10.64969
 20
-14.16772
 30
0.0
 10
-10.65473
 20
-14.16695
 30
0.0
 10
-10.66002
 20
-14.16695
 30
0.0
 10
-10.66002
 20
-14.16695
 30
0.0
 10
-10.66947
 20
-14.16695
 30
0.0
 10
-10.67693
 20
-14.16998
 30
0.0
 10
-10.68234
 20
-14.17605
 30
0.0
 10
-10.68234
 20
-14.17605
 30
0.0
 10
-10.68777
 20
-14.18212
 30
0.0
 10
-10.69048
 20
-14.19047
 30
0.0
 10
-10.69048
 20
-14.20112
 30
0.0
 10
-10.69048
 20
-14.20112
 30
0.0
 10
-10.69048
 20
-14.21175
 30
0.0
 10
-10.68777
 20
-14.22008
 30
0.0
 10
-10.68234
 20
-14.22614
 30
0.0
 10
-10.68234
 20
-14.22614
 30
0.0
 10
-10.67693
 20
-14.23221
 30
0.0
 10
-10.66947
 20
-14.23524
 30
0.0
 10
-10.66002
 20
-14.23524
 30
0.0
 10
-10.66002
 20
-14.23524
 30
0.0
 10
-10.65473
 20
-14.23524
 30
0.0
 10
-10.64969
 20
-14.23447
 30
0.0
 10
-10.64492
 20
-14.23289
 30
0.0
 10
-10.64492
 20
-14.23289
 30
0.0
 10
-10.64015
 20
-14.23134
 30
0.0
 10
-10.6353
 20
-14.22889
 30
0.0
 10
-10.63039
 20
-14.22553
 30
0.0
 10
-10.63039
 20
-14.22553
 30
0.0
 10
-10.63039
 20
-14.22553
 30
0.0
 10
-10.63039
 20
-14.24682
 30
0.0
 10
-10.63039
 20
-14.24682
 30
0.0
  0
SPLINE
  5
6F
330
1F
100
AcDbEntity
  8
Layer 1
 62
   250
100
AcDbSpline
210
0.0
220
0.0
230
1.0
 70
    11
 71
     3
 72
    36
 73
    32
 74
     0
 42
0.0000000001
 43
0.0000000001
 40
0.0
 40
0.0
 40
0.0
 40
0.0
 40
0.125
 40
0.125
 40
0.125
 40
0.125
 40
0.25
 40
0.25
 40
0.25
 40
0.25
 40
0.375
 40
0.375
 40
0.375
 40
0.375
 40
0.5
 40
0.5
 40
0.5
 40
0.5
 40
0.625
 40
0.625
 40
0.625
 40
0.625
 40
0.75
 40
0.75
 40
0.75
 40
0.75
 40
0.875
 40
0.875
 40
0.875
 40
0.875
 40
1.0
 40
1.0
 40
1.0
 40
1.0
 10
-10.546
 20
-14.23374
 30
0.0
 10
-10.546
 20
-14.23374
 30
0.0
 10
-10.58749
 20
-14.23374
 30
0.0
 10
-10.58749
 20
-14.23374
 30
0.0
 10
-10.58749
 20
-14.23374
 30
0.0
 10
-10.58749
 20
-14.23374
 30
0.0
 10
-10.59403
 20
-14.25246
 30
0.0
 10
-10.59403
 20
-14.25246
 30
0.0
 10
-10.59403
 20
-14.25246
 30
0.0
 10
-10.59403
 20
-14.25246
 30
0.0
 10
-10.6207
 20
-14.25246
 30
0.0
 10
-10.6207
 20
-14.25246
 30
0.0
 10
-10.6207
 20
-14.25246
 30
0.0
 10
-10.6207
 20
-14.25246
 30
0.0
 10
-10.5826
 20
-14.14959
 30
0.0
 10
-10.5826
 20
-14.14959
 30
0.0
 10
-10.5826
 20
-14.14959
 30
0.0
 10
-10.5826
 20
-14.14959
 30
0.0
 10
-10.55097
 20
-14.14959
 30
0.0
 10
-10.55097
 20
-14.14959
 30
0.0
 10
-10.55097
 20
-14.14959
 30
0.0
 10
-10.55097
 20
-14.14959
 30
0.0
 10
-10.51287
 20
-14.25246
 30
0.0
 10
-10.51287
 20
-14.25246
 30
0.0
 10
-10.51287
 20
-14.25246
 30
0.0
 10
-10.51287
 20
-14.25246
 30
0.0
 10
-10.53954
 20
-14.25246
 30
0.0
 10
-10.53954
 20
-14.25246
 30
0.0
 10
-10.53954
 20
-14.25246
 30
0.0
 10
-10.53954
 20
-14.25246
 30
0.0
 10
-10.546
 20
-14.23374
 30
0.0
 10
-10.546
 20
-14.23374
 30
0.0
  0
SPLINE
  5
70
330
1F
100
AcDbEntity
  8
Layer 1
 62
   250
100
AcDbSpline
210
0.0
220
0.0
230
1.0
 70
    11
 71
     3
 72
    16
 73
    12
 74
     0
 42
0.0000000001
 43
0.0000000001
 40
0.0
 40
0.0
 40
0.0
 40
0.0
 40
0.3333333333333333
 40
0.3333333333333333
 40
0.3333333333333333
 40
0.3333333333333333
 40
0.6666666666666666
 40
0.6666666666666666
 40
0.6666666666666666
 40
0.6666666666666666
 40
1.0
 40
1.0
 40
1.0
 40
1.0
 10
-10.58088
 20
-14.21464
 30
0.0
 10
-10.58088
 20
-14.21464
 30
0.0
 10
-10.55268
 20
-14.21464
 30
0.0
 10
-10.55268
 20
-14.21464
 30
0.0
 10
-10.55268
 20
-14.21464
 30
0.0
 10
-10.55268
 20
-14.21464
 30
0.0
 10
-10.56675
 20
-14.17372
 30
0.0
 10
-10.56675
 20
-14.17372
 30
0.0
 10
-10.56675
 20
-14.17372
 30
0.0
 10
-10.56675
 20
-14.17372
 30
0.0
 10
-10.58088
 20
-14.21464
 30
0.0
 10
-10.58088
 20
-14.21464
 30
0.0
  0
SPLINE
  5
71
330
1F
100
AcDbEntity
  8
Layer 1
 62
   250
100
AcDbSpline
210
0.0
220
0.0
230
1.0
 70
    11
 71
     3
 72
    40
 73
    36
 74
     0
 42
0.0000000001
 43
0.0000000001
 40
0.0
 40
0.0
 40
0.0
 40
0.0
 40
0.1111111111111111
 40
0.1111111111111111
 40
0.1111111111111111
 40
0.1111111111111111
 40
0.2222222222222222
 40
0.2222222222222222
 40
0.2222222222222222
 40
0.2222222222222222
 40
0.3333333333333333
 40
0.3333333333333333
 40
0.3333333333333333
 40
0.3333333333333333
 40
0.4444444444444444
 40
0.4444444444444444
 40
0.4444444444444444
 40
0.4444444444444444
 40
0.5555555555555556
 40
0.5555555555555556
 40
0.5555555555555556
 40
0.5555555555555556
 40
0.6666666666666667
 40
0.6666666666666667
 40
0.6666666666666667
 40
0.6666666666666667
 40
0.7777777777777779
 40
0.7777777777777779
 40
0.7777777777777779
 40
0.7777777777777779
 40
0.8888888888888891
 40
0.8888888888888891
 40
0.8888888888888891
 40
0.8888888888888891
 40
1.0
 40
1.0
 40
1.0
 40
1.0
 10
-10.4992
 20
-14.14959
 30
0.0
 10
-10.4992
 20
-14.14959
 30
0.0
 10
-10.45518
 20
-14.14959
 30
0.0
 10
-10.45518
 20
-14.14959
 30
0.0
 10
-10.45518
 20
-14.14959
 30
0.0
 10
-10.44208
 20
-14.14959
 30
0.0
 10
-10.43203
 20
-14.15251
 30
0.0
 10
-10.42502
 20
-14.15832
 30
0.0
 10
-10.42502
 20
-14.15832
 30
0.0
 10
-10.41802
 20
-14.16413
 30
0.0
 10
-10.41451
 20
-14.1724
 30
0.0
 10
-10.41451
 20
-14.18315
 30
0.0
 10
-10.41451
 20
-14.18315
 30
0.0
 10
-10.41451
 20
-14.19392
 30
0.0
 10
-10.41802
 20
-14.20222
 30
0.0
 10
-10.42502
 20
-14.20803
 30
0.0
 10
-10.42502
 20
-14.20803
 30
0.0
 10
-10.43203
 20
-14.21384
 30
0.0
 10
-10.44208
 20
-14.21676
 30
0.0
 10
-10.45518
 20
-14.21676
 30
0.0
 10
-10.45518
 20
-14.21676
 30
0.0
 10
-10.45518
 20
-14.21676
 30
0.0
 10
-10.47267
 20
-14.21676
 30
0.0
 10
-10.47267
 20
-14.21676
 30
0.0
 10
-10.47267
 20
-14.21676
 30
0.0
 10
-10.47267
 20
-14.21676
 30
0.0
 10
-10.47267
 20
-14.25246
 30
0.0
 10
-10.47267
 20
-14.25246
 30
0.0
 10
-10.47267
 20
-14.25246
 30
0.0
 10
-10.47267
 20
-14.25246
 30
0.0
 10
-10.4992
 20
-14.25246
 30
0.0
 10
-10.4992
 20
-14.25246
 30
0.0
 10
-10.4992
 20
-14.25246
 30
0.0
 10
-10.4992
 20
-14.25246
 30
0.0
 10
-10.4992
 20
-14.14959
 30
0.0
 10
-10.4992
 20
-14.14959
 30
0.0
  0
SPLINE
  5
72
330
1F
100
AcDbEntity
  8
Layer 1
 62
   250
100
AcDbSpline
210
0.0
220
0.0
230
1.0
 70
    11
 71
     3
 72
    32
 73
    28
 74
     0
 42
0.0000000001
 43
0.0000000001
 40
0.0
 40
0.0
 40
0.0
 40
0.0
 40
0.1428571428571428
 40
0.1428571428571428
 40
0.1428571428571428
 40
0.1428571428571428
 40
0.2857142857142857
 40
0.2857142857142857
 40
0.2857142857142857
 40
0.2857142857142857
 40
0.4285714285714285
 40
0.4285714285714285
 40
0.4285714285714285
 40
0.4285714285714285
 40
0.5714285714285714
 40
0.5714285714285714
 40
0.5714285714285714
 40
0.5714285714285714
 40
0.7142857142857142
 40
0.7142857142857142
 40
0.7142857142857142
 40
0.7142857142857142
 40
0.857142857142857
 40
0.857142857142857
 40
0.857142857142857
 40
0.857142857142857
 40
1.0
 40
1.0
 40
1.0
 40
1.0
 10
-10.47267
 20
-14.16881
 30
0.0
 10
-10.47267
 20
-14.16881
 30
0.0
 10
-10.47267
 20
-14.19754
 30
0.0
 10
-10.47267
 20
-14.19754
 30
0.0
 10
-10.47267
 20
-14.19754
 30
0.0
 10
-10.47267
 20
-14.19754
 30
0.0
 10
-10.458
 20
-14.19754
 30
0.0
 10
-10.458
 20
-14.19754
 30
0.0
 10
-10.458
 20
-14.19754
 30
0.0
 10
-10.45285
 20
-14.19754
 30
0.0
 10
-10.44887
 20
-14.1963
 30
0.0
 10
-10.44607
 20
-14.19378
 30
0.0
 10
-10.44607
 20
-14.19378
 30
0.0
 10
-10.44327
 20
-14.19129
 30
0.0
 10
-10.44186
 20
-14.18774
 30
0.0
 10
-10.44186
 20
-14.18315
 30
0.0
 10
-10.44186
 20
-14.18315
 30
0.0
 10
-10.44186
 20
-14.17854
 30
0.0
 10
-10.44327
 20
-14.17501
 30
0.0
 10
-10.44607
 20
-14.17252
 30
0.0
 10
-10.44607
 20
-14.17252
 30
0.0
 10
-10.44887
 20
-14.17005
 30
0.0
 10
-10.45285
 20
-14.16881
 30
0.0
 10
-10.458
 20
-14.16881
 30
0.0
 10
-10.458
 20
-14.16881
 30
0.0
 10
-10.458
 20
-14.16881
 30
0.0
 10
-10.47267
 20
-14.16881
 30
0.0
 10
-10.47267
 20
-14.16881
 30
0.0
  0
SPLINE
  5
73
330
1F
100
AcDbEntity
  8
Layer 1
 62
   250
100
AcDbSpline
210
0.0
220
0.0
230
1.0
 70
    11
 71
     3
 72
    36
 73
    32
 74
     0
 42
0.0000000001
 43
0.0000000001
 40
0.0
 40
0.0
 40
0.0
 40
0.0
 40
0.125
 40
0.125
 40
0.125
 40
0.125
 40
0.25
 40
0.25
 40
0.25
 40
0.25
 40
0.375
 40
0.375
 40
0.375
 40
0.375
 40
0.5
 40
0.5
 40
0.5
 40
0.5
 40
0.625
 40
0.625
 40
0.625
 40
0.625
 40
0.75
 40
0.75
 40
0.75
 40
0.75
 40
0.875
 40
0.875
 40
0.875
 40
0.875
 40
1.0
 40
1.0
 40
1.0
 40
1.0
 10
-10.33337
 20
-14.23374
 30
0.0
 10
-10.33337
 20
-14.23374
 30
0.0
 10
-10.37486
 20
-14.23374
 30
0.0
 10
-10.37486
 20
-14.23374
 30
0.0
 10
-10.37486
 20
-14.23374
 30
0.0
 10
-10.37486
 20
-14.23374
 30
0.0
 10
-10.3814
 20
-14.25246
 30
0.0
 10
-10.3814
 20
-14.25246
 30
0.0
 10
-10.3814
 20
-14.25246
 30
0.0
 10
-10.3814
 20
-14.25246
 30
0.0
 10
-10.40807
 20
-14.25246
 30
0.0
 10
-10.40807
 20
-14.25246
 30
0.0
 10
-10.40807
 20
-14.25246
 30
0.0
 10
-10.40807
 20
-14.25246
 30
0.0
 10
-10.36997
 20
-14.14959
 30
0.0
 10
-10.36997
 20
-14.14959
 30
0.0
 10
-10.36997
 20
-14.14959
 30
0.0
 10
-10.36997
 20
-14.14959
 30
0.0
 10
-10.33834
 20
-14.14959
 30
0.0
 10
-10.33834
 20
-14.14959
 30
0.0
 10
-10.33834
 20
-14.14959
 30
0.0
 10
-10.33834
 20
-14.14959
 30
0.0
 10
-10.30024
 20
-14.25246
 30
0.0
 10
-10.30024
 20
-14.25246
 30
0.0
 10
-10.30024
 20
-14.25246
 30
0.0
 10
-10.30024
 20
-14.25246
 30
0.0
 10
-10.32691
 20
-14.25246
 30
0.0
 10
-10.32691
 20
-14.25246
 30
0.0
 10
-10.32691
 20
-14.25246
 30
0.0
 10
-10.32691
 20
-14.25246
 30
0.0
 10
-10.33337
 20
-14.23374
 30
0.0
 10
-10.33337
 20
-14.23374
 30
0.0
  0
SPLINE
  5
74
330
1F
100
AcDbEntity
  8
Layer 1
 62
   250
100
AcDbSpline
210
0.0
220
0.0
230
1.0
 70
    11
 71
     3
 72
    16
 73
    12
 74
     0
 42
0.0000000001
 43
0.0000000001
 40
0.0
 40
0.0
 40
0.0
 40
0.0
 40
0.3333333333333333
 40
0.3333333333333333
 40
0.3333333333333333
 40
0.3333333333333333
 40
0.6666666666666666
 40
0.6666666666666666
 40
0.6666666666666666
 40
0.6666666666666666
 40
1.0
 40
1.0
 40
1.0
 40
1.0
 10
-10.36825
 20
-14.21464
 30
0.0
 10
-10.36825
 20
-14.21464
 30
0.0
 10
-10.34005
 20
-14.21464
 30
0.0
 10
-10.34005
 20
-14.21464
 30
0.0
 10
-10.34005
 20
-14.21464
 30
0.0
 10
-10.34005
 20
-14.21464
 30
0.0
 10
-10.35412
 20
-14.17372
 30
0.0
 10
-10.35412
 20
-14.17372
 30
0.0
 10
-10.35412
 20
-14.17372
 30
0.0
 10
-10.35412
 20
-14.17372
 30
0.0
 10
-10.36825
 20
-14.21464
 30
0.0
 10
-10.36825
 20
-14.21464
 30
0.0
  0
SPLINE
  5
75
330
1F
100
AcDbEntity
  8
Layer 1
 62
   250
100
AcDbSpline
210
0.0
220
0.0
230
1.0
 70
    11
 71
     3
 72
    76
 73
    72
 74
     0
 42
0.0000000001
 43
0.0000000001
 40
0.0
 40
0.0
 40
0.0
 40
0.0
 40
0.0555555555555556
 40
0.0555555555555556
 40
0.0555555555555556
 40
0.0555555555555556
 40
0.1111111111111111
 40
0.1111111111111111
 40
0.1111111111111111
 40
0.1111111111111111
 40
0.1666666666666667
 40
0.1666666666666667
 40
0.1666666666666667
 40
0.1666666666666667
 40
0.2222222222222222
 40
0.2222222222222222
 40
0.2222222222222222
 40
0.2222222222222222
 40
0.2777777777777778
 40
0.2777777777777778
 40
0.2777777777777778
 40
0.2777777777777778
 40
0.3333333333333334
 40
0.3333333333333334
 40
0.3333333333333334
 40
0.3333333333333334
 40
0.388888888888889
 40
0.388888888888889
 40
0.388888888888889
 40
0.388888888888889
 40
0.4444444444444445
 40
0.4444444444444445
 40
0.4444444444444445
 40
0.4444444444444445
 40
0.5000000000000001
 40
0.5000000000000001
 40
0.5000000000000001
 40
0.5000000000000001
 40
0.5555555555555557
 40
0.5555555555555557
 40
0.5555555555555557
 40
0.5555555555555557
 40
0.6111111111111113
 40
0.6111111111111113
 40
0.6111111111111113
 40
0.6111111111111113
 40
0.6666666666666669
 40
0.6666666666666669
 40
0.6666666666666669
 40
0.6666666666666669
 40
0.7222222222222224
 40
0.7222222222222224
 40
0.7222222222222224
 40
0.7222222222222224
 40
0.777777777777778
 40
0.777777777777778
 40
0.777777777777778
 40
0.777777777777778
 40
0.8333333333333336
 40
0.8333333333333336
 40
0.8333333333333336
 40
0.8333333333333336
 40
0.8888888888888892
 40
0.8888888888888892
 40
0.8888888888888892
 40
0.8888888888888892
 40
0.9444444444444448
 40
0.9444444444444448
 40
0.9444444444444448
 40
0.9444444444444448
 40
1.0
 40
1.0
 40
1.0
 40
1.0
 10
-10.20499
 20
-14.24682
 30
0.0
 10
-10.20985
 20
-14.24933
 30
0.0
 10
-10.21493
 20
-14.25124
 30
0.0
 10
-10.22023
 20
-14.25253
 30
0.0
 10
-10.22023
 20
-14.25253
 30
0.0
 10
-10.22549
 20
-14.25382
 30
0.0
 10
-10.23102
 20
-14.25446
 30
0.0
 10
-10.23676
 20
-14.25446
 30
0.0
 10
-10.23676
 20
-14.25446
 30
0.0
 10
-10.25388
 20
-14.25446
 30
0.0
 10
-10.26745
 20
-14.24966
 30
0.0
 10
-10.27747
 20
-14.24009
 30
0.0
 10
-10.27747
 20
-14.24009
 30
0.0
 10
-10.28749
 20
-14.23052
 30
0.0
 10
-10.2925
 20
-14.21754
 30
0.0
 10
-10.2925
 20
-14.20112
 30
0.0
 10
-10.2925
 20
-14.20112
 30
0.0
 10
-10.2925
 20
-14.18468
 30
0.0
 10
-10.28749
 20
-14.17167
 30
0.0
 10
-10.27747
 20
-14.1621
 30
0.0
 10
-10.27747
 20
-14.1621
 30
0.0
 10
-10.26745
 20
-14.15253
 30
0.0
 10
-10.25388
 20
-14.14773
 30
0.0
 10
-10.23676
 20
-14.14773
 30
0.0
 10
-10.23676
 20
-14.14773
 30
0.0
 10
-10.23102
 20
-14.14773
 30
0.0
 10
-10.22549
 20
-14.14837
 30
0.0
 10
-10.22023
 20
-14.14966
 30
0.0
 10
-10.22023
 20
-14.14966
 30
0.0
 10
-10.21493
 20
-14.15095
 30
0.0
 10
-10.20985
 20
-14.15286
 30
0.0
 10
-10.20499
 20
-14.15538
 30
0.0
 10
-10.20499
 20
-14.15538
 30
0.0
 10
-10.20499
 20
-14.15538
 30
0.0
 10
-10.20499
 20
-14.17666
 30
0.0
 10
-10.20499
 20
-14.17666
 30
0.0
 10
-10.20499
 20
-14.17666
 30
0.0
 10
-10.2099
 20
-14.1733
 30
0.0
 10
-10.21475
 20
-14.17085
 30
0.0
 10
-10.21952
 20
-14.1693
 30
0.0
 10
-10.21952
 20
-14.1693
 30
0.0
 10
-10.22429
 20
-14.16772
 30
0.0
 10
-10.22933
 20
-14.16695
 30
0.0
 10
-10.23462
 20
-14.16695
 30
0.0
 10
-10.23462
 20
-14.16695
 30
0.0
 10
-10.24407
 20
-14.16695
 30
0.0
 10
-10.25153
 20
-14.16998
 30
0.0
 10
-10.25694
 20
-14.17605
 30
0.0
 10
-10.25694
 20
-14.17605
 30
0.0
 10
-10.26237
 20
-14.18212
 30
0.0
 10
-10.26508
 20
-14.19047
 30
0.0
 10
-10.26508
 20
-14.20112
 30
0.0
 10
-10.26508
 20
-14.20112
 30
0.0
 10
-10.26508
 20
-14.21175
 30
0.0
 10
-10.26237
 20
-14.22008
 30
0.0
 10
-10.25694
 20
-14.22614
 30
0.0
 10
-10.25694
 20
-14.22614
 30
0.0
 10
-10.25153
 20
-14.23221
 30
0.0
 10
-10.24407
 20
-14.23524
 30
0.0
 10
-10.23462
 20
-14.23524
 30
0.0
 10
-10.23462
 20
-14.23524
 30
0.0
 10
-10.22933
 20
-14.23524
 30
0.0
 10
-10.22429
 20
-14.23447
 30
0.0
 10
-10.21952
 20
-14.23289
 30
0.0
 10
-10.21952
 20
-14.23289
 30
0.0
 10
-10.21475
 20
-14.23134
 30
0.0
 10
-10.2099
 20
-14.22889
 30
0.0
 10
-10.20499
 20
-14.22553
 30
0.0
 10
-10.20499
 20
-14.22553
 30
0.0
 10
-10.20499
 20
-14.22553
 30
0.0
 10
-10.20499
 20
-14.24682
 30
0.0
 10
-10.20499
 20
-14.24682
 30
0.0
  0
SPLINE
  5
76
330
1F
100
AcDbEntity
  8
Layer 1
 62
   250
100
AcDbSpline
210
0.0
220
0.0
230
1.0
 70
    11
 71
     3
 72
    20
 73
    16
 74
     0
 42
0.0000000001
 43
0.0000000001
 40
0.0
 40
0.0
 40
0.0
 40
0.0
 40
0.25
 40
0.25
 40
0.25
 40
0.25
 40
0.5
 40
0.5
 40
0.5
 40
0.5
 40
0.75
 40
0.75
 40
0.75
 40
0.75
 40
1.0
 40
1.0
 40
1.0
 40
1.0
 10
-10.18302
 20
-14.14959
 30
0.0
 10
-10.18302
 20
-14.14959
 30
0.0
 10
-10.15649
 20
-14.14959
 30
0.0
 10
-10.15649
 20
-14.14959
 30
0.0
 10
-10.15649
 20
-14.14959
 30
0.0
 10
-10.15649
 20
-14.14959
 30
0.0
 10
-10.15649
 20
-14.25246
 30
0.0
 10
-10.15649
 20
-14.25246
 30
0.0
 10
-10.15649
 20
-14.25246
 30
0.0
 10
-10.15649
 20
-14.25246
 30
0.0
 10
-10.18302
 20
-14.25246
 30
0.0
 10
-10.18302
 20
-14.25246
 30
0.0
 10
-10.18302
 20
-14.25246
 30
0.0
 10
-10.18302
 20
-14.25246
 30
0.0
 10
-10.18302
 20
-14.14959
 30
0.0
 10
-10.18302
 20
-14.14959
 30
0.0
  0
SPLINE
  5
77
330
1F
100
AcDbEntity
  8
Layer 1
 62
   250
100
AcDbSpline
210
0.0
220
0.0
230
1.0
 70
    11
 71
     3
 72
    36
 73
    32
 74
     0
 42
0.0000000001
 43
0.0000000001
 40
0.0
 40
0.0
 40
0.0
 40
0.0
 40
0.125
 40
0.125
 40
0.125
 40
0.125
 40
0.25
 40
0.25
 40
0.25
 40
0.25
 40
0.375
 40
0.375
 40
0.375
 40
0.375
 40
0.5
 40
0.5
 40
0.5
 40
0.5
 40
0.625
 40
0.625
 40
0.625
 40
0.625
 40
0.75
 40
0.75
 40
0.75
 40
0.75
 40
0.875
 40
0.875
 40
0.875
 40
0.875
 40
1.0
 40
1.0
 40
1.0
 40
1.0
 10
-10.14281
 20
-14.14959
 30
0.0
 10
-10.14281
 20
-14.14959
 30
0.0
 10
-10.04801
 20
-14.14959
 30
0.0
 10
-10.04801
 20
-14.14959
 30
0.0
 10
-10.04801
 20
-14.14959
 30
0.0
 10
-10.04801
 20
-14.14959
 30
0.0
 10
-10.04801
 20
-14.16965
 30
0.0
 10
-10.04801
 20
-14.16965
 30
0.0
 10
-10.04801
 20
-14.16965
 30
0.0
 10
-10.04801
 20
-14.16965
 30
0.0
 10
-10.08211
 20
-14.16965
 30
0.0
 10
-10.08211
 20
-14.16965
 30
0.0
 10
-10.08211
 20
-14.16965
 30
0.0
 10
-10.08211
 20
-14.16965
 30
0.0
 10
-10.08211
 20
-14.25246
 30
0.0
 10
-10.08211
 20
-14.25246
 30
0.0
 10
-10.08211
 20
-14.25246
 30
0.0
 10
-10.08211
 20
-14.25246
 30
0.0
 10
-10.10864
 20
-14.25246
 30
0.0
 10
-10.10864
 20
-14.25246
 30
0.0
 10
-10.10864
 20
-14.25246
 30
0.0
 10
-10.10864
 20
-14.25246
 30
0.0
 10
-10.10864
 20
-14.16965
 30
0.0
 10
-10.10864
 20
-14.16965
 30
0.0
 10
-10.10864
 20
-14.16965
 30
0.0
 10
-10.10864
 20
-14.16965
 30
0.0
 10
-10.14281
 20
-14.16965
 30
0.0
 10
-10.14281
 20
-14.16965
 30
0.0
 10
-10.14281
 20
-14.16965
 30
0.0
 10
-10.14281
 20
-14.16965
 30
0.0
 10
-10.14281
 20
-14.14959
 30
0.0
 10
-10.14281
 20
-14.14959
 30
0.0
  0
SPLINE
  5
78
330
1F
100
AcDbEntity
  8
Layer 1
 62
   250
100
AcDbSpline
210
0.0
220
0.0
230
1.0
 70
    11
 71
     3
 72
    36
 73
    32
 74
     0
 42
0.0000000001
 43
0.0000000001
 40
0.0
 40
0.0
 40
0.0
 40
0.0
 40
0.125
 40
0.125
 40
0.125
 40
0.125
 40
0.25
 40
0.25
 40
0.25
 40
0.25
 40
0.375
 40
0.375
 40
0.375
 40
0.375
 40
0.5
 40
0.5
 40
0.5
 40
0.5
 40
0.625
 40
0.625
 40
0.625
 40
0.625
 40
0.75
 40
0.75
 40
0.75
 40
0.75
 40
0.875
 40
0.875
 40
0.875
 40
0.875
 40
1.0
 40
1.0
 40
1.0
 40
1.0
 10
-9.98728
 20
-14.16695
 30
0.0
 10
-9.99537
 20
-14.16695
 30
0.0
 10
-10.00163
 20
-14.16993
 30
0.0
 10
-10.0061
 20
-14.17591
 30
0.0
 10
-10.0061
 20
-14.17591
 30
0.0
 10
-10.01054
 20
-14.18188
 30
0.0
 10
-10.01278
 20
-14.19028
 30
0.0
 10
-10.01278
 20
-14.20112
 30
0.0
 10
-10.01278
 20
-14.20112
 30
0.0
 10
-10.01278
 20
-14.21194
 30
0.0
 10
-10.01054
 20
-14.22031
 30
0.0
 10
-10.0061
 20
-14.22628
 30
0.0
 10
-10.0061
 20
-14.22628
 30
0.0
 10
-10.00163
 20
-14.23226
 30
0.0
 10
-9.99537
 20
-14.23524
 30
0.0
 10
-9.98728
 20
-14.23524
 30
0.0
 10
-9.98728
 20
-14.23524
 30
0.0
 10
-9.97914
 20
-14.23524
 30
0.0
 10
-9.97287
 20
-14.23226
 30
0.0
 10
-9.9684
 20
-14.22628
 30
0.0
 10
-9.9684
 20
-14.22628
 30
0.0
 10
-9.96395
 20
-14.22031
 30
0.0
 10
-9.96172
 20
-14.21194
 30
0.0
 10
-9.96172
 20
-14.20112
 30
0.0
 10
-9.96172
 20
-14.20112
 30
0.0
 10
-9.96172
 20
-14.19028
 30
0.0
 10
-9.96395
 20
-14.18188
 30
0.0
 10
-9.9684
 20
-14.17591
 30
0.0
 10
-9.9684
 20
-14.17591
 30
0.0
 10
-9.97287
 20
-14.16993
 30
0.0
 10
-9.97914
 20
-14.16695
 30
0.0
 10
-9.98728
 20
-14.16695
 30
0.0
  0
SPLINE
  5
79
330
1F
100
AcDbEntity
  8
Layer 1
 62
   250
100
AcDbSpline
210
0.0
220
0.0
230
1.0
 70
    11
 71
     3
 72
    36
 73
    32
 74
     0
 42
0.0000000001
 43
0.0000000001
 40
0.0
 40
0.0
 40
0.0
 40
0.0
 40
0.125
 40
0.125
 40
0.125
 40
0.125
 40
0.25
 40
0.25
 40
0.25
 40
0.25
 40
0.375
 40
0.375
 40
0.375
 40
0.375
 40
0.5
 40
0.5
 40
0.5
 40
0.5
 40
0.625
 40
0.625
 40
0.625
 40
0.625
 40
0.75
 40
0.75
 40
0.75
 40
0.75
 40
0.875
 40
0.875
 40
0.875
 40
0.875
 40
1.0
 40
1.0
 40
1.0
 40
1.0
 10
-9.98728
 20
-14.14773
 30
0.0
 10
-9.97075
 20
-14.14773
 30
0.0
 10
-9.95779
 20
-14.15246
 30
0.0
 10
-9.94843
 20
-14.16194
 30
0.0
 10
-9.94843
 20
-14.16194
 30
0.0
 10
-9.93905
 20
-14.17139
 30
0.0
 10
-9.93437
 20
-14.18444
 30
0.0
 10
-9.93437
 20
-14.20112
 30
0.0
 10
-9.93437
 20
-14.20112
 30
0.0
 10
-9.93437
 20
-14.21775
 30
0.0
 10
-9.93905
 20
-14.2308
 30
0.0
 10
-9.94843
 20
-14.24025
 30
0.0
 10
-9.94843
 20
-14.24025
 30
0.0
 10
-9.95779
 20
-14.24973
 30
0.0
 10
-9.97075
 20
-14.25446
 30
0.0
 10
-9.98728
 20
-14.25446
 30
0.0
 10
-9.98728
 20
-14.25446
 30
0.0
 10
-10.00377
 20
-14.25446
 30
0.0
 10
-10.0167
 20
-14.24973
 30
0.0
 10
-10.02611
 20
-14.24025
 30
0.0
 10
-10.02611
 20
-14.24025
 30
0.0
 10
-10.03549
 20
-14.2308
 30
0.0
 10
-10.0402
 20
-14.21775
 30
0.0
 10
-10.0402
 20
-14.20112
 30
0.0
 10
-10.0402
 20
-14.20112
 30
0.0
 10
-10.0402
 20
-14.18444
 30
0.0
 10
-10.03549
 20
-14.17139
 30
0.0
 10
-10.02611
 20
-14.16194
 30
0.0
 10
-10.02611
 20
-14.16194
 30
0.0
 10
-10.0167
 20
-14.15246
 30
0.0
 10
-10.00377
 20
-14.14773
 30
0.0
 10
-9.98728
 20
-14.14773
 30
0.0
  0
SPLINE
  5
7A
330
1F
100
AcDbEntity
  8
Layer 1
 62
   250
100
AcDbSpline
210
0.0
220
0.0
230
1.0
 70
    11
 71
     3
 72
    32
 73
    28
 74
     0
 42
0.0000000001
 43
0.0000000001
 40
0.0
 40
0.0
 40
0.0
 40
0.0
 40
0.1428571428571428
 40
0.1428571428571428
 40
0.1428571428571428
 40
0.1428571428571428
 40
0.2857142857142857
 40
0.2857142857142857
 40
0.2857142857142857
 40
0.2857142857142857
 40
0.4285714285714285
 40
0.4285714285714285
 40
0.4285714285714285
 40
0.4285714285714285
 40
0.5714285714285714
 40
0.5714285714285714
 40
0.5714285714285714
 40
0.5714285714285714
 40
0.7142857142857142
 40
0.7142857142857142
 40
0.7142857142857142
 40
0.7142857142857142
 40
0.857142857142857
 40
0.857142857142857
 40
0.857142857142857
 40
0.857142857142857
 40
1.0
 40
1.0
 40
1.0
 40
1.0
 10
-9.8766
 20
-14.19522
 30
0.0
 10
-9.87105
 20
-14.19522
 30
0.0
 10
-9.86705
 20
-14.19418
 30
0.0
 10
-9.86465
 20
-14.19211
 30
0.0
 10
-9.86465
 20
-14.19211
 30
0.0
 10
-9.86223
 20
-14.19004
 30
0.0
 10
-9.86103
 20
-14.18663
 30
0.0
 10
-9.86103
 20
-14.1819
 30
0.0
 10
-9.86103
 20
-14.1819
 30
0.0
 10
-9.86103
 20
-14.17722
 30
0.0
 10
-9.86223
 20
-14.17386
 30
0.0
 10
-9.86465
 20
-14.17184
 30
0.0
 10
-9.86465
 20
-14.17184
 30
0.0
 10
-9.86705
 20
-14.16982
 30
0.0
 10
-9.87105
 20
-14.16881
 30
0.0
 10
-9.8766
 20
-14.16881
 30
0.0
 10
-9.8766
 20
-14.16881
 30
0.0
 10
-9.8766
 20
-14.16881
 30
0.0
 10
-9.88777
 20
-14.16881
 30
0.0
 10
-9.88777
 20
-14.16881
 30
0.0
 10
-9.88777
 20
-14.16881
 30
0.0
 10
-9.88777
 20
-14.16881
 30
0.0
 10
-9.88777
 20
-14.19522
 30
0.0
 10
-9.88777
 20
-14.19522
 30
0.0
 10
-9.88777
 20
-14.19522
 30
0.0
 10
-9.88777
 20
-14.19522
 30
0.0
 10
-9.8766
 20
-14.19522
 30
0.0
 10
-9.8766
 20
-14.19522
 30
0.0
  0
SPLINE
  5
7B
330
1F
100
AcDbEntity
  8
Layer 1
 62
   250
100
AcDbSpline
210
0.0
220
0.0
230
1.0
 70
    11
 71
     3
 72
    68
 73
    64
 74
     0
 42
0.0000000001
 43
0.0000000001
 40
0.0
 40
0.0
 40
0.0
 40
0.0
 40
0.0625
 40
0.0625
 40
0.0625
 40
0.0625
 40
0.125
 40
0.125
 40
0.125
 40
0.125
 40
0.1875
 40
0.1875
 40
0.1875
 40
0.1875
 40
0.25
 40
0.25
 40
0.25
 40
0.25
 40
0.3125
 40
0.3125
 40
0.3125
 40
0.3125
 40
0.375
 40
0.375
 40
0.375
 40
0.375
 40
0.4375
 40
0.4375
 40
0.4375
 40
0.4375
 40
0.5
 40
0.5
 40
0.5
 40
0.5
 40
0.5625
 40
0.5625
 40
0.5625
 40
0.5625
 40
0.625
 40
0.625
 40
0.625
 40
0.625
 40
0.6875
 40
0.6875
 40
0.6875
 40
0.6875
 40
0.75
 40
0.75
 40
0.75
 40
0.75
 40
0.8125
 40
0.8125
 40
0.8125
 40
0.8125
 40
0.875
 40
0.875
 40
0.875
 40
0.875
 40
0.9375
 40
0.9375
 40
0.9375
 40
0.9375
 40
1.0
 40
1.0
 40
1.0
 40
1.0
 10
-9.88777
 20
-14.21354
 30
0.0
 10
-9.88777
 20
-14.21354
 30
0.0
 10
-9.88777
 20
-14.25246
 30
0.0
 10
-9.88777
 20
-14.25246
 30
0.0
 10
-9.88777
 20
-14.25246
 30
0.0
 10
-9.88777
 20
-14.25246
 30
0.0
 10
-9.9143
 20
-14.25246
 30
0.0
 10
-9.9143
 20
-14.25246
 30
0.0
 10
-9.9143
 20
-14.25246
 30
0.0
 10
-9.9143
 20
-14.25246
 30
0.0
 10
-9.9143
 20
-14.14959
 30
0.0
 10
-9.9143
 20
-14.14959
 30
0.0
 10
-9.9143
 20
-14.14959
 30
0.0
 10
-9.9143
 20
-14.14959
 30
0.0
 10
-9.87378
 20
-14.14959
 30
0.0
 10
-9.87378
 20
-14.14959
 30
0.0
 10
-9.87378
 20
-14.14959
 30
0.0
 10
-9.86023
 20
-14.14959
 30
0.0
 10
-9.85028
 20
-14.15187
 30
0.0
 10
-9.84398
 20
-14.15641
 30
0.0
 10
-9.84398
 20
-14.15641
 30
0.0
 10
-9.83766
 20
-14.16095
 30
0.0
 10
-9.8345
 20
-14.16815
 30
0.0
 10
-9.8345
 20
-14.17798
 30
0.0
 10
-9.8345
 20
-14.17798
 30
0.0
 10
-9.8345
 20
-14.18477
 30
0.0
 10
-9.83615
 20
-14.19037
 30
0.0
 10
-9.83942
 20
-14.19472
 30
0.0
 10
-9.83942
 20
-14.19472
 30
0.0
 10
-9.84271
 20
-14.1991
 30
0.0
 10
-9.84767
 20
-14.20232
 30
0.0
 10
-9.85428
 20
-14.20437
 30
0.0
 10
-9.85428
 20
-14.20437
 30
0.0
 10
-9.85066
 20
-14.20521
 30
0.0
 10
-9.84739
 20
-14.20707
 30
0.0
 10
-9.84452
 20
-14.20999
 30
0.0
 10
-9.84452
 20
-14.20999
 30
0.0
 10
-9.84165
 20
-14.2129
 30
0.0
 10
-9.83876
 20
-14.21732
 30
0.0
 10
-9.83582
 20
-14.22325
 30
0.0
 10
-9.83582
 20
-14.22325
 30
0.0
 10
-9.83582
 20
-14.22325
 30
0.0
 10
-9.8214
 20
-14.25246
 30
0.0
 10
-9.8214
 20
-14.25246
 30
0.0
 10
-9.8214
 20
-14.25246
 30
0.0
 10
-9.8214
 20
-14.25246
 30
0.0
 10
-9.84967
 20
-14.25246
 30
0.0
 10
-9.84967
 20
-14.25246
 30
0.0
 10
-9.84967
 20
-14.25246
 30
0.0
 10
-9.84967
 20
-14.25246
 30
0.0
 10
-9.86221
 20
-14.2269
 30
0.0
 10
-9.86221
 20
-14.2269
 30
0.0
 10
-9.86221
 20
-14.2269
 30
0.0
 10
-9.86472
 20
-14.22177
 30
0.0
 10
-9.86729
 20
-14.21824
 30
0.0
 10
-9.8699
 20
-14.21636
 30
0.0
 10
-9.8699
 20
-14.21636
 30
0.0
 10
-9.87249
 20
-14.21448
 30
0.0
 10
-9.87594
 20
-14.21354
 30
0.0
 10
-9.88027
 20
-14.21354
 30
0.0
 10
-9.88027
 20
-14.21354
 30
0.0
 10
-9.88027
 20
-14.21354
 30
0.0
 10
-9.88777
 20
-14.21354
 30
0.0
 10
-9.88777
 20
-14.21354
 30
0.0
  0
SPLINE
  5
7C
330
1F
100
AcDbEntity
  8
Layer 1
 62
   250
100
AcDbSpline
210
0.0
220
0.0
230
1.0
 70
    11
 71
     3
 72
    44
 73
    40
 74
     0
 42
0.0000000001
 43
0.0000000001
 40
0.0
 40
0.0
 40
0.0
 40
0.0
 40
0.1
 40
0.1
 40
0.1
 40
0.1
 40
0.2
 40
0.2
 40
0.2
 40
0.2
 40
0.3
 40
0.3
 40
0.3
 40
0.3
 40
0.4
 40
0.4
 40
0.4
 40
0.4
 40
0.5
 40
0.5
 40
0.5
 40
0.5
 40
0.6
 40
0.6
 40
0.6
 40
0.6
 40
0.7
 40
0.7
 40
0.7
 40
0.7
 40
0.7999999999999999
 40
0.7999999999999999
 40
0.7999999999999999
 40
0.7999999999999999
 40
0.8999999999999999
 40
0.8999999999999999
 40
0.8999999999999999
 40
0.8999999999999999
 40
1.0
 40
1.0
 40
1.0
 40
1.0
 10
-11.25781
 20
-14.43531
 30
0.0
 10
-11.25781
 20
-14.43531
 30
0.0
 10
-11.27827
 20
-14.43531
 30
0.0
 10
-11.27827
 20
-14.43531
 30
0.0
 10
-11.27827
 20
-14.43531
 30
0.0
 10
-11.2853
 20
-14.42398
 30
0.0
 10
-11.2905
 20
-14.41318
 30
0.0
 10
-11.29384
 20
-14.40295
 30
0.0
 10
-11.29384
 20
-14.40295
 30
0.0
 10
-11.2972
 20
-14.39274
 30
0.0
 10
-11.29887
 20
-14.38261
 30
0.0
 10
-11.29887
 20
-14.37254
 30
0.0
 10
-11.29887
 20
-14.37254
 30
0.0
 10
-11.29887
 20
-14.36248
 30
0.0
 10
-11.29718
 20
-14.35229
 30
0.0
 10
-11.29382
 20
-14.34199
 30
0.0
 10
-11.29382
 20
-14.34199
 30
0.0
 10
-11.29043
 20
-14.33167
 30
0.0
 10
-11.28526
 20
-14.3209
 30
0.0
 10
-11.27827
 20
-14.30963
 30
0.0
 10
-11.27827
 20
-14.30963
 30
0.0
 10
-11.27827
 20
-14.30963
 30
0.0
 10
-11.25781
 20
-14.30963
 30
0.0
 10
-11.25781
 20
-14.30963
 30
0.0
 10
-11.25781
 20
-14.30963
 30
0.0
 10
-11.26369
 20
-14.32052
 30
0.0
 10
-11.26809
 20
-14.33117
 30
0.0
 10
-11.27103
 20
-14.34157
 30
0.0
 10
-11.27103
 20
-14.34157
 30
0.0
 10
-11.27397
 20
-14.35196
 30
0.0
 10
-11.27545
 20
-14.36224
 30
0.0
 10
-11.27545
 20
-14.3724
 30
0.0
 10
-11.27545
 20
-14.3724
 30
0.0
 10
-11.27545
 20
-14.38256
 30
0.0
 10
-11.27399
 20
-14.39284
 30
0.0
 10
-11.27108
 20
-14.40328
 30
0.0
 10
-11.27108
 20
-14.40328
 30
0.0
 10
-11.26816
 20
-14.4137
 30
0.0
 10
-11.26374
 20
-14.42438
 30
0.0
 10
-11.25781
 20
-14.43531
 30
0.0
  0
SPLINE
  5
7D
330
1F
100
AcDbEntity
  8
Layer 1
 62
   250
100
AcDbSpline
210
0.0
220
0.0
230
1.0
 70
    11
 71
     3
 72
    52
 73
    48
 74
     0
 42
0.0000000001
 43
0.0000000001
 40
0.0
 40
0.0
 40
0.0
 40
0.0
 40
0.0833333333333333
 40
0.0833333333333333
 40
0.0833333333333333
 40
0.0833333333333333
 40
0.1666666666666667
 40
0.1666666666666667
 40
0.1666666666666667
 40
0.1666666666666667
 40
0.25
 40
0.25
 40
0.25
 40
0.25
 40
0.3333333333333333
 40
0.3333333333333333
 40
0.3333333333333333
 40
0.3333333333333333
 40
0.4166666666666666
 40
0.4166666666666666
 40
0.4166666666666666
 40
0.4166666666666666
 40
0.4999999999999999
 40
0.4999999999999999
 40
0.4999999999999999
 40
0.4999999999999999
 40
0.5833333333333333
 40
0.5833333333333333
 40
0.5833333333333333
 40
0.5833333333333333
 40
0.6666666666666666
 40
0.6666666666666666
 40
0.6666666666666666
 40
0.6666666666666666
 40
0.75
 40
0.75
 40
0.75
 40
0.75
 40
0.8333333333333334
 40
0.8333333333333334
 40
0.8333333333333334
 40
0.8333333333333334
 40
0.9166666666666667
 40
0.9166666666666667
 40
0.9166666666666667
 40
0.9166666666666667
 40
1.0
 40
1.0
 40
1.0
 40
1.0
 10
-11.23356
 20
-14.31384
 30
0.0
 10
-11.23356
 20
-14.31384
 30
0.0
 10
-11.16197
 20
-14.31384
 30
0.0
 10
-11.16197
 20
-14.31384
 30
0.0
 10
-11.16197
 20
-14.31384
 30
0.0
 10
-11.16197
 20
-14.31384
 30
0.0
 10
-11.16197
 20
-14.3339
 30
0.0
 10
-11.16197
 20
-14.3339
 30
0.0
 10
-11.16197
 20
-14.3339
 30
0.0
 10
-11.16197
 20
-14.3339
 30
0.0
 10
-11.20703
 20
-14.3339
 30
0.0
 10
-11.20703
 20
-14.3339
 30
0.0
 10
-11.20703
 20
-14.3339
 30
0.0
 10
-11.20703
 20
-14.3339
 30
0.0
 10
-11.20703
 20
-14.35305
 30
0.0
 10
-11.20703
 20
-14.35305
 30
0.0
 10
-11.20703
 20
-14.35305
 30
0.0
 10
-11.20703
 20
-14.35305
 30
0.0
 10
-11.16468
 20
-14.35305
 30
0.0
 10
-11.16468
 20
-14.35305
 30
0.0
 10
-11.16468
 20
-14.35305
 30
0.0
 10
-11.16468
 20
-14.35305
 30
0.0
 10
-11.16468
 20
-14.37311
 30
0.0
 10
-11.16468
 20
-14.37311
 30
0.0
 10
-11.16468
 20
-14.37311
 30
0.0
 10
-11.16468
 20
-14.37311
 30
0.0
 10
-11.20703
 20
-14.37311
 30
0.0
 10
-11.20703
 20
-14.37311
 30
0.0
 10
-11.20703
 20
-14.37311
 30
0.0
 10
-11.20703
 20
-14.37311
 30
0.0
 10
-11.20703
 20
-14.39665
 30
0.0
 10
-11.20703
 20
-14.39665
 30
0.0
 10
-11.20703
 20
-14.39665
 30
0.0
 10
-11.20703
 20
-14.39665
 30
0.0
 10
-11.16047
 20
-14.39665
 30
0.0
 10
-11.16047
 20
-14.39665
 30
0.0
 10
-11.16047
 20
-14.39665
 30
0.0
 10
-11.16047
 20
-14.39665
 30
0.0
 10
-11.16047
 20
-14.41671
 30
0.0
 10
-11.16047
 20
-14.41671
 30
0.0
 10
-11.16047
 20
-14.41671
 30
0.0
 10
-11.16047
 20
-14.41671
 30
0.0
 10
-11.23356
 20
-14.41671
 30
0.0
 10
-11.23356
 20
-14.41671
 30
0.0
 10
-11.23356
 20
-14.41671
 30
0.0
 10
-11.23356
 20
-14.41671
 30
0.0
 10
-11.23356
 20
-14.31384
 30
0.0
 10
-11.23356
 20
-14.31384
 30
0.0
  0
SPLINE
  5
7E
330
1F
100
AcDbEntity
  8
Layer 1
 62
   250
100
AcDbSpline
210
0.0
220
0.0
230
1.0
 70
    11
 71
     3
 72
    28
 73
    24
 74
     0
 42
0.0000000001
 43
0.0000000001
 40
0.0
 40
0.0
 40
0.0
 40
0.0
 40
0.1666666666666667
 40
0.1666666666666667
 40
0.1666666666666667
 40
0.1666666666666667
 40
0.3333333333333333
 40
0.3333333333333333
 40
0.3333333333333333
 40
0.3333333333333333
 40
0.5
 40
0.5
 40
0.5
 40
0.5
 40
0.6666666666666666
 40
0.6666666666666666
 40
0.6666666666666666
 40
0.6666666666666666
 40
0.8333333333333333
 40
0.8333333333333333
 40
0.8333333333333333
 40
0.8333333333333333
 40
1.0
 40
1.0
 40
1.0
 40
1.0
 10
-11.13716
 20
-14.31384
 30
0.0
 10
-11.13716
 20
-14.31384
 30
0.0
 10
-11.11063
 20
-14.31384
 30
0.0
 10
-11.11063
 20
-14.31384
 30
0.0
 10
-11.11063
 20
-14.31384
 30
0.0
 10
-11.11063
 20
-14.31384
 30
0.0
 10
-11.11063
 20
-14.39665
 30
0.0
 10
-11.11063
 20
-14.39665
 30
0.0
 10
-11.11063
 20
-14.39665
 30
0.0
 10
-11.11063
 20
-14.39665
 30
0.0
 10
-11.06407
 20
-14.39665
 30
0.0
 10
-11.06407
 20
-14.39665
 30
0.0
 10
-11.06407
 20
-14.39665
 30
0.0
 10
-11.06407
 20
-14.39665
 30
0.0
 10
-11.06407
 20
-14.41671
 30
0.0
 10
-11.06407
 20
-14.41671
 30
0.0
 10
-11.06407
 20
-14.41671
 30
0.0
 10
-11.06407
 20
-14.41671
 30
0.0
 10
-11.13716
 20
-14.41671
 30
0.0
 10
-11.13716
 20
-14.41671
 30
0.0
 10
-11.13716
 20
-14.41671
 30
0.0
 10
-11.13716
 20
-14.41671
 30
0.0
 10
-11.13716
 20
-14.31384
 30
0.0
 10
-11.13716
 20
-14.31384
 30
0.0
  0
SPLINE
  5
7F
330
1F
100
AcDbEntity
  8
Layer 1
 62
   250
100
AcDbSpline
210
0.0
220
0.0
230
1.0
 70
    11
 71
     3
 72
    52
 73
    48
 74
     0
 42
0.0000000001
 43
0.0000000001
 40
0.0
 40
0.0
 40
0.0
 40
0.0
 40
0.0833333333333333
 40
0.0833333333333333
 40
0.0833333333333333
 40
0.0833333333333333
 40
0.1666666666666667
 40
0.1666666666666667
 40
0.1666666666666667
 40
0.1666666666666667
 40
0.25
 40
0.25
 40
0.25
 40
0.25
 40
0.3333333333333333
 40
0.3333333333333333
 40
0.3333333333333333
 40
0.3333333333333333
 40
0.4166666666666666
 40
0.4166666666666666
 40
0.4166666666666666
 40
0.4166666666666666
 40
0.4999999999999999
 40
0.4999999999999999
 40
0.4999999999999999
 40
0.4999999999999999
 40
0.5833333333333333
 40
0.5833333333333333
 40
0.5833333333333333
 40
0.5833333333333333
 40
0.6666666666666666
 40
0.6666666666666666
 40
0.6666666666666666
 40
0.6666666666666666
 40
0.75
 40
0.75
 40
0.75
 40
0.75
 40
0.8333333333333334
 40
0.8333333333333334
 40
0.8333333333333334
 40
0.8333333333333334
 40
0.9166666666666667
 40
0.9166666666666667
 40
0.9166666666666667
 40
0.9166666666666667
 40
1.0
 40
1.0
 40
1.0
 40
1.0
 10
-11.04725
 20
-14.31384
 30
0.0
 10
-11.04725
 20
-14.31384
 30
0.0
 10
-10.97566
 20
-14.31384
 30
0.0
 10
-10.97566
 20
-14.31384
 30
0.0
 10
-10.97566
 20
-14.31384
 30
0.0
 10
-10.97566
 20
-14.31384
 30
0.0
 10
-10.97566
 20
-14.3339
 30
0.0
 10
-10.97566
 20
-14.3339
 30
0.0
 10
-10.97566
 20
-14.3339
 30
0.0
 10
-10.97566
 20
-14.3339
 30
0.0
 10
-11.02072
 20
-14.3339
 30
0.0
 10
-11.02072
 20
-14.3339
 30
0.0
 10
-11.02072
 20
-14.3339
 30
0.0
 10
-11.02072
 20
-14.3339
 30
0.0
 10
-11.02072
 20
-14.35305
 30
0.0
 10
-11.02072
 20
-14.35305
 30
0.0
 10
-11.02072
 20
-14.35305
 30
0.0
 10
-11.02072
 20
-14.35305
 30
0.0
 10
-10.97837
 20
-14.35305
 30
0.0
 10
-10.97837
 20
-14.35305
 30
0.0
 10
-10.97837
 20
-14.35305
 30
0.0
 10
-10.97837
 20
-14.35305
 30
0.0
 10
-10.97837
 20
-14.37311
 30
0.0
 10
-10.97837
 20
-14.37311
 30
0.0
 10
-10.97837
 20
-14.37311
 30
0.0
 10
-10.97837
 20
-14.37311
 30
0.0
 10
-11.02072
 20
-14.37311
 30
0.0
 10
-11.02072
 20
-14.37311
 30
0.0
 10
-11.02072
 20
-14.37311
 30
0.0
 10
-11.02072
 20
-14.37311
 30
0.0
 10
-11.02072
 20
-14.39665
 30
0.0
 10
-11.02072
 20
-14.39665
 30
0.0
 10
-11.02072
 20
-14.39665
 30
0.0
 10
-11.02072
 20
-14.39665
 30
0.0
 10
-10.97416
 20
-14.39665
 30
0.0
 10
-10.97416
 20
-14.39665
 30
0.0
 10
-10.97416
 20
-14.39665
 30
0.0
 10
-10.97416
 20
-14.39665
 30
0.0
 10
-10.97416
 20
-14.41671
 30
0.0
 10
-10.97416
 20
-14.41671
 30
0.0
 10
-10.97416
 20
-14.41671
 30
0.0
 10
-10.97416
 20
-14.41671
 30
0.0
 10
-11.04725
 20
-14.41671
 30
0.0
 10
-11.04725
 20
-14.41671
 30
0.0
 10
-11.04725
 20
-14.41671
 30
0.0
 10
-11.04725
 20
-14.41671
 30
0.0
 10
-11.04725
 20
-14.31384
 30
0.0
 10
-11.04725
 20
-14.31384
 30
0.0
  0
SPLINE
  5
80
330
1F
100
AcDbEntity
  8
Layer 1
 62
   250
100
AcDbSpline
210
0.0
220
0.0
230
1.0
 70
    11
 71
     3
 72
    76
 73
    72
 74
     0
 42
0.0000000001
 43
0.0000000001
 40
0.0
 40
0.0
 40
0.0
 40
0.0
 40
0.0555555555555556
 40
0.0555555555555556
 40
0.0555555555555556
 40
0.0555555555555556
 40
0.1111111111111111
 40
0.1111111111111111
 40
0.1111111111111111
 40
0.1111111111111111
 40
0.1666666666666667
 40
0.1666666666666667
 40
0.1666666666666667
 40
0.1666666666666667
 40
0.2222222222222222
 40
0.2222222222222222
 40
0.2222222222222222
 40
0.2222222222222222
 40
0.2777777777777778
 40
0.2777777777777778
 40
0.2777777777777778
 40
0.2777777777777778
 40
0.3333333333333334
 40
0.3333333333333334
 40
0.3333333333333334
 40
0.3333333333333334
 40
0.388888888888889
 40
0.388888888888889
 40
0.388888888888889
 40
0.388888888888889
 40
0.4444444444444445
 40
0.4444444444444445
 40
0.4444444444444445
 40
0.4444444444444445
 40
0.5000000000000001
 40
0.5000000000000001
 40
0.5000000000000001
 40
0.5000000000000001
 40
0.5555555555555557
 40
0.5555555555555557
 40
0.5555555555555557
 40
0.5555555555555557
 40
0.6111111111111113
 40
0.6111111111111113
 40
0.6111111111111113
 40
0.6111111111111113
 40
0.6666666666666669
 40
0.6666666666666669
 40
0.6666666666666669
 40
0.6666666666666669
 40
0.7222222222222224
 40
0.7222222222222224
 40
0.7222222222222224
 40
0.7222222222222224
 40
0.777777777777778
 40
0.777777777777778
 40
0.777777777777778
 40
0.777777777777778
 40
0.8333333333333336
 40
0.8333333333333336
 40
0.8333333333333336
 40
0.8333333333333336
 40
0.8888888888888892
 40
0.8888888888888892
 40
0.8888888888888892
 40
0.8888888888888892
 40
0.9444444444444448
 40
0.9444444444444448
 40
0.9444444444444448
 40
0.9444444444444448
 40
1.0
 40
1.0
 40
1.0
 40
1.0
 10
-10.86927
 20
-14.41107
 30
0.0
 10
-10.87413
 20
-14.41358
 30
0.0
 10
-10.87921
 20
-14.41549
 30
0.0
 10
-10.88451
 20
-14.41678
 30
0.0
 10
-10.88451
 20
-14.41678
 30
0.0
 10
-10.88977
 20
-14.41807
 30
0.0
 10
-10.8953
 20
-14.41871
 30
0.0
 10
-10.90104
 20
-14.41871
 30
0.0
 10
-10.90104
 20
-14.41871
 30
0.0
 10
-10.91816
 20
-14.41871
 30
0.0
 10
-10.93173
 20
-14.41391
 30
0.0
 10
-10.94175
 20
-14.40434
 30
0.0
 10
-10.94175
 20
-14.40434
 30
0.0
 10
-10.95177
 20
-14.39477
 30
0.0
 10
-10.95678
 20
-14.38179
 30
0.0
 10
-10.95678
 20
-14.36537
 30
0.0
 10
-10.95678
 20
-14.36537
 30
0.0
 10
-10.95678
 20
-14.34893
 30
0.0
 10
-10.95177
 20
-14.33592
 30
0.0
 10
-10.94175
 20
-14.32635
 30
0.0
 10
-10.94175
 20
-14.32635
 30
0.0
 10
-10.93173
 20
-14.31678
 30
0.0
 10
-10.91816
 20
-14.31198
 30
0.0
 10
-10.90104
 20
-14.31198
 30
0.0
 10
-10.90104
 20
-14.31198
 30
0.0
 10
-10.8953
 20
-14.31198
 30
0.0
 10
-10.88977
 20
-14.31262
 30
0.0
 10
-10.88451
 20
-14.31391
 30
0.0
 10
-10.88451
 20
-14.31391
 30
0.0
 10
-10.87921
 20
-14.3152
 30
0.0
 10
-10.87413
 20
-14.31711
 30
0.0
 10
-10.86927
 20
-14.31963
 30
0.0
 10
-10.86927
 20
-14.31963
 30
0.0
 10
-10.86927
 20
-14.31963
 30
0.0
 10
-10.86927
 20
-14.34091
 30
0.0
 10
-10.86927
 20
-14.34091
 30
0.0
 10
-10.86927
 20
-14.34091
 30
0.0
 10
-10.87418
 20
-14.33755
 30
0.0
 10
-10.87903
 20
-14.3351
 30
0.0
 10
-10.8838
 20
-14.33355
 30
0.0
 10
-10.8838
 20
-14.33355
 30
0.0
 10
-10.88857
 20
-14.33197
 30
0.0
 10
-10.89361
 20
-14.3312
 30
0.0
 10
-10.8989
 20
-14.3312
 30
0.0
 10
-10.8989
 20
-14.3312
 30
0.0
 10
-10.90835
 20
-14.3312
 30
0.0
 10
-10.91581
 20
-14.33423
 30
0.0
 10
-10.92122
 20
-14.3403
 30
0.0
 10
-10.92122
 20
-14.3403
 30
0.0
 10
-10.92665
 20
-14.34637
 30
0.0
 10
-10.92936
 20
-14.35472
 30
0.0
 10
-10.92936
 20
-14.36537
 30
0.0
 10
-10.92936
 20
-14.36537
 30
0.0
 10
-10.92936
 20
-14.376
 30
0.0
 10
-10.92665
 20
-14.38433
 30
0.0
 10
-10.92122
 20
-14.39039
 30
0.0
 10
-10.92122
 20
-14.39039
 30
0.0
 10
-10.91581
 20
-14.39646
 30
0.0
 10
-10.90835
 20
-14.39949
 30
0.0
 10
-10.8989
 20
-14.39949
 30
0.0
 10
-10.8989
 20
-14.39949
 30
0.0
 10
-10.89361
 20
-14.39949
 30
0.0
 10
-10.88857
 20
-14.39872
 30
0.0
 10
-10.8838
 20
-14.39714
 30
0.0
 10
-10.8838
 20
-14.39714
 30
0.0
 10
-10.87903
 20
-14.39559
 30
0.0
 10
-10.87418
 20
-14.39314
 30
0.0
 10
-10.86927
 20
-14.38978
 30
0.0
 10
-10.86927
 20
-14.38978
 30
0.0
 10
-10.86927
 20
-14.38978
 30
0.0
 10
-10.86927
 20
-14.41107
 30
0.0
 10
-10.86927
 20
-14.41107
 30
0.0
  0
SPLINE
  5
81
330
1F
100
AcDbEntity
  8
Layer 1
 62
   250
100
AcDbSpline
210
0.0
220
0.0
230
1.0
 70
    11
 71
     3
 72
    36
 73
    32
 74
     0
 42
0.0000000001
 43
0.0000000001
 40
0.0
 40
0.0
 40
0.0
 40
0.0
 40
0.125
 40
0.125
 40
0.125
 40
0.125
 40
0.25
 40
0.25
 40
0.25
 40
0.25
 40
0.375
 40
0.375
 40
0.375
 40
0.375
 40
0.5
 40
0.5
 40
0.5
 40
0.5
 40
0.625
 40
0.625
 40
0.625
 40
0.625
 40
0.75
 40
0.75
 40
0.75
 40
0.75
 40
0.875
 40
0.875
 40
0.875
 40
0.875
 40
1.0
 40
1.0
 40
1.0
 40
1.0
 10
-10.85958
 20
-14.31384
 30
0.0
 10
-10.85958
 20
-14.31384
 30
0.0
 10
-10.76478
 20
-14.31384
 30
0.0
 10
-10.76478
 20
-14.31384
 30
0.0
 10
-10.76478
 20
-14.31384
 30
0.0
 10
-10.76478
 20
-14.31384
 30
0.0
 10
-10.76478
 20
-14.3339
 30
0.0
 10
-10.76478
 20
-14.3339
 30
0.0
 10
-10.76478
 20
-14.3339
 30
0.0
 10
-10.76478
 20
-14.3339
 30
0.0
 10
-10.79888
 20
-14.3339
 30
0.0
 10
-10.79888
 20
-14.3339
 30
0.0
 10
-10.79888
 20
-14.3339
 30
0.0
 10
-10.79888
 20
-14.3339
 30
0.0
 10
-10.79888
 20
-14.41671
 30
0.0
 10
-10.79888
 20
-14.41671
 30
0.0
 10
-10.79888
 20
-14.41671
 30
0.0
 10
-10.79888
 20
-14.41671
 30
0.0
 10
-10.82541
 20
-14.41671
 30
0.0
 10
-10.82541
 20
-14.41671
 30
0.0
 10
-10.82541
 20
-14.41671
 30
0.0
 10
-10.82541
 20
-14.41671
 30
0.0
 10
-10.82541
 20
-14.3339
 30
0.0
 10
-10.82541
 20
-14.3339
 30
0.0
 10
-10.82541
 20
-14.3339
 30
0.0
 10
-10.82541
 20
-14.3339
 30
0.0
 10
-10.85958
 20
-14.3339
 30
0.0
 10
-10.85958
 20
-14.3339
 30
0.0
 10
-10.85958
 20
-14.3339
 30
0.0
 10
-10.85958
 20
-14.3339
 30
0.0
 10
-10.85958
 20
-14.31384
 30
0.0
 10
-10.85958
 20
-14.31384
 30
0.0
  0
SPLINE
  5
82
330
1F
100
AcDbEntity
  8
Layer 1
 62
   250
100
AcDbSpline
210
0.0
220
0.0
230
1.0
 70
    11
 71
     3
 72
    32
 73
    28
 74
     0
 42
0.0000000001
 43
0.0000000001
 40
0.0
 40
0.0
 40
0.0
 40
0.0
 40
0.1428571428571428
 40
0.1428571428571428
 40
0.1428571428571428
 40
0.1428571428571428
 40
0.2857142857142857
 40
0.2857142857142857
 40
0.2857142857142857
 40
0.2857142857142857
 40
0.4285714285714285
 40
0.4285714285714285
 40
0.4285714285714285
 40
0.4285714285714285
 40
0.5714285714285714
 40
0.5714285714285714
 40
0.5714285714285714
 40
0.5714285714285714
 40
0.7142857142857142
 40
0.7142857142857142
 40
0.7142857142857142
 40
0.7142857142857142
 40
0.857142857142857
 40
0.857142857142857
 40
0.857142857142857
 40
0.857142857142857
 40
1.0
 40
1.0
 40
1.0
 40
1.0
 10
-10.71334
 20
-14.35947
 30
0.0
 10
-10.70779
 20
-14.35947
 30
0.0
 10
-10.70379
 20
-14.35843
 30
0.0
 10
-10.70139
 20
-14.35636
 30
0.0
 10
-10.70139
 20
-14.35636
 30
0.0
 10
-10.69897
 20
-14.35429
 30
0.0
 10
-10.69777
 20
-14.35088
 30
0.0
 10
-10.69777
 20
-14.34615
 30
0.0
 10
-10.69777
 20
-14.34615
 30
0.0
 10
-10.69777
 20
-14.34147
 30
0.0
 10
-10.69897
 20
-14.33811
 30
0.0
 10
-10.70139
 20
-14.33609
 30
0.0
 10
-10.70139
 20
-14.33609
 30
0.0
 10
-10.70379
 20
-14.33407
 30
0.0
 10
-10.70779
 20
-14.33306
 30
0.0
 10
-10.71334
 20
-14.33306
 30
0.0
 10
-10.71334
 20
-14.33306
 30
0.0
 10
-10.71334
 20
-14.33306
 30
0.0
 10
-10.72451
 20
-14.33306
 30
0.0
 10
-10.72451
 20
-14.33306
 30
0.0
 10
-10.72451
 20
-14.33306
 30
0.0
 10
-10.72451
 20
-14.33306
 30
0.0
 10
-10.72451
 20
-14.35947
 30
0.0
 10
-10.72451
 20
-14.35947
 30
0.0
 10
-10.72451
 20
-14.35947
 30
0.0
 10
-10.72451
 20
-14.35947
 30
0.0
 10
-10.71334
 20
-14.35947
 30
0.0
 10
-10.71334
 20
-14.35947
 30
0.0
  0
SPLINE
  5
83
330
1F
100
AcDbEntity
  8
Layer 1
 62
   250
100
AcDbSpline
210
0.0
220
0.0
230
1.0
 70
    11
 71
     3
 72
    68
 73
    64
 74
     0
 42
0.0000000001
 43
0.0000000001
 40
0.0
 40
0.0
 40
0.0
 40
0.0
 40
0.0625
 40
0.0625
 40
0.0625
 40
0.0625
 40
0.125
 40
0.125
 40
0.125
 40
0.125
 40
0.1875
 40
0.1875
 40
0.1875
 40
0.1875
 40
0.25
 40
0.25
 40
0.25
 40
0.25
 40
0.3125
 40
0.3125
 40
0.3125
 40
0.3125
 40
0.375
 40
0.375
 40
0.375
 40
0.375
 40
0.4375
 40
0.4375
 40
0.4375
 40
0.4375
 40
0.5
 40
0.5
 40
0.5
 40
0.5
 40
0.5625
 40
0.5625
 40
0.5625
 40
0.5625
 40
0.625
 40
0.625
 40
0.625
 40
0.625
 40
0.6875
 40
0.6875
 40
0.6875
 40
0.6875
 40
0.75
 40
0.75
 40
0.75
 40
0.75
 40
0.8125
 40
0.8125
 40
0.8125
 40
0.8125
 40
0.875
 40
0.875
 40
0.875
 40
0.875
 40
0.9375
 40
0.9375
 40
0.9375
 40
0.9375
 40
1.0
 40
1.0
 40
1.0
 40
1.0
 10
-10.72451
 20
-14.37779
 30
0.0
 10
-10.72451
 20
-14.37779
 30
0.0
 10
-10.72451
 20
-14.41671
 30
0.0
 10
-10.72451
 20
-14.41671
 30
0.0
 10
-10.72451
 20
-14.41671
 30
0.0
 10
-10.72451
 20
-14.41671
 30
0.0
 10
-10.75104
 20
-14.41671
 30
0.0
 10
-10.75104
 20
-14.41671
 30
0.0
 10
-10.75104
 20
-14.41671
 30
0.0
 10
-10.75104
 20
-14.41671
 30
0.0
 10
-10.75104
 20
-14.31384
 30
0.0
 10
-10.75104
 20
-14.31384
 30
0.0
 10
-10.75104
 20
-14.31384
 30
0.0
 10
-10.75104
 20
-14.31384
 30
0.0
 10
-10.71052
 20
-14.31384
 30
0.0
 10
-10.71052
 20
-14.31384
 30
0.0
 10
-10.71052
 20
-14.31384
 30
0.0
 10
-10.69697
 20
-14.31384
 30
0.0
 10
-10.68702
 20
-14.31612
 30
0.0
 10
-10.68072
 20
-14.32066
 30
0.0
 10
-10.68072
 20
-14.32066
 30
0.0
 10
-10.6744
 20
-14.3252
 30
0.0
 10
-10.67124
 20
-14.3324
 30
0.0
 10
-10.67124
 20
-14.34223
 30
0.0
 10
-10.67124
 20
-14.34223
 30
0.0
 10
-10.67124
 20
-14.34902
 30
0.0
 10
-10.67289
 20
-14.35462
 30
0.0
 10
-10.67616
 20
-14.35897
 30
0.0
 10
-10.67616
 20
-14.35897
 30
0.0
 10
-10.67945
 20
-14.36335
 30
0.0
 10
-10.68441
 20
-14.36657
 30
0.0
 10
-10.69102
 20
-14.36862
 30
0.0
 10
-10.69102
 20
-14.36862
 30
0.0
 10
-10.6874
 20
-14.36946
 30
0.0
 10
-10.68413
 20
-14.37132
 30
0.0
 10
-10.68126
 20
-14.37424
 30
0.0
 10
-10.68126
 20
-14.37424
 30
0.0
 10
-10.67839
 20
-14.37715
 30
0.0
 10
-10.6755
 20
-14.38157
 30
0.0
 10
-10.67256
 20
-14.3875
 30
0.0
 10
-10.67256
 20
-14.3875
 30
0.0
 10
-10.67256
 20
-14.3875
 30
0.0
 10
-10.65814
 20
-14.41671
 30
0.0
 10
-10.65814
 20
-14.41671
 30
0.0
 10
-10.65814
 20
-14.41671
 30
0.0
 10
-10.65814
 20
-14.41671
 30
0.0
 10
-10.68641
 20
-14.41671
 30
0.0
 10
-10.68641
 20
-14.41671
 30
0.0
 10
-10.68641
 20
-14.41671
 30
0.0
 10
-10.68641
 20
-14.41671
 30
0.0
 10
-10.69895
 20
-14.39115
 30
0.0
 10
-10.69895
 20
-14.39115
 30
0.0
 10
-10.69895
 20
-14.39115
 30
0.0
 10
-10.70146
 20
-14.38602
 30
0.0
 10
-10.70403
 20
-14.38249
 30
0.0
 10
-10.70664
 20
-14.38061
 30
0.0
 10
-10.70664
 20
-14.38061
 30
0.0
 10
-10.70923
 20
-14.37873
 30
0.0
 10
-10.71268
 20
-14.37779
 30
0.0
 10
-10.71701
 20
-14.37779
 30
0.0
 10
-10.71701
 20
-14.37779
 30
0.0
 10
-10.71701
 20
-14.37779
 30
0.0
 10
-10.72451
 20
-14.37779
 30
0.0
 10
-10.72451
 20
-14.37779
 30
0.0
  0
SPLINE
  5
84
330
1F
100
AcDbEntity
  8
Layer 1
 62
   250
100
AcDbSpline
210
0.0
220
0.0
230
1.0
 70
    11
 71
     3
 72
    36
 73
    32
 74
     0
 42
0.0000000001
 43
0.0000000001
 40
0.0
 40
0.0
 40
0.0
 40
0.0
 40
0.125
 40
0.125
 40
0.125
 40
0.125
 40
0.25
 40
0.25
 40
0.25
 40
0.25
 40
0.375
 40
0.375
 40
0.375
 40
0.375
 40
0.5
 40
0.5
 40
0.5
 40
0.5
 40
0.625
 40
0.625
 40
0.625
 40
0.625
 40
0.75
 40
0.75
 40
0.75
 40
0.75
 40
0.875
 40
0.875
 40
0.875
 40
0.875
 40
1.0
 40
1.0
 40
1.0
 40
1.0
 10
-10.5954
 20
-14.3312
 30
0.0
 10
-10.60349
 20
-14.3312
 30
0.0
 10
-10.60975
 20
-14.33418
 30
0.0
 10
-10.61422
 20
-14.34016
 30
0.0
 10
-10.61422
 20
-14.34016
 30
0.0
 10
-10.61866
 20
-14.34613
 30
0.0
 10
-10.6209
 20
-14.35453
 30
0.0
 10
-10.6209
 20
-14.36537
 30
0.0
 10
-10.6209
 20
-14.36537
 30
0.0
 10
-10.6209
 20
-14.37619
 30
0.0
 10
-10.61866
 20
-14.38456
 30
0.0
 10
-10.61422
 20
-14.39053
 30
0.0
 10
-10.61422
 20
-14.39053
 30
0.0
 10
-10.60975
 20
-14.39651
 30
0.0
 10
-10.60349
 20
-14.39949
 30
0.0
 10
-10.5954
 20
-14.39949
 30
0.0
 10
-10.5954
 20
-14.39949
 30
0.0
 10
-10.58726
 20
-14.39949
 30
0.0
 10
-10.58099
 20
-14.39651
 30
0.0
 10
-10.57652
 20
-14.39053
 30
0.0
 10
-10.57652
 20
-14.39053
 30
0.0
 10
-10.57207
 20
-14.38456
 30
0.0
 10
-10.56984
 20
-14.37619
 30
0.0
 10
-10.56984
 20
-14.36537
 30
0.0
 10
-10.56984
 20
-14.36537
 30
0.0
 10
-10.56984
 20
-14.35453
 30
0.0
 10
-10.57207
 20
-14.34613
 30
0.0
 10
-10.57652
 20
-14.34016
 30
0.0
 10
-10.57652
 20
-14.34016
 30
0.0
 10
-10.58099
 20
-14.33418
 30
0.0
 10
-10.58726
 20
-14.3312
 30
0.0
 10
-10.5954
 20
-14.3312
 30
0.0
  0
SPLINE
  5
85
330
1F
100
AcDbEntity
  8
Layer 1
 62
   250
100
AcDbSpline
210
0.0
220
0.0
230
1.0
 70
    11
 71
     3
 72
    36
 73
    32
 74
     0
 42
0.0000000001
 43
0.0000000001
 40
0.0
 40
0.0
 40
0.0
 40
0.0
 40
0.125
 40
0.125
 40
0.125
 40
0.125
 40
0.25
 40
0.25
 40
0.25
 40
0.25
 40
0.375
 40
0.375
 40
0.375
 40
0.375
 40
0.5
 40
0.5
 40
0.5
 40
0.5
 40
0.625
 40
0.625
 40
0.625
 40
0.625
 40
0.75
 40
0.75
 40
0.75
 40
0.75
 40
0.875
 40
0.875
 40
0.875
 40
0.875
 40
1.0
 40
1.0
 40
1.0
 40
1.0
 10
-10.5954
 20
-14.31198
 30
0.0
 10
-10.57887
 20
-14.31198
 30
0.0
 10
-10.56591
 20
-14.31671
 30
0.0
 10
-10.55655
 20
-14.32619
 30
0.0
 10
-10.55655
 20
-14.32619
 30
0.0
 10
-10.54717
 20
-14.33564
 30
0.0
 10
-10.54249
 20
-14.34869
 30
0.0
 10
-10.54249
 20
-14.36537
 30
0.0
 10
-10.54249
 20
-14.36537
 30
0.0
 10
-10.54249
 20
-14.382
 30
0.0
 10
-10.54717
 20
-14.39505
 30
0.0
 10
-10.55655
 20
-14.4045
 30
0.0
 10
-10.55655
 20
-14.4045
 30
0.0
 10
-10.56591
 20
-14.41398
 30
0.0
 10
-10.57887
 20
-14.41871
 30
0.0
 10
-10.5954
 20
-14.41871
 30
0.0
 10
-10.5954
 20
-14.41871
 30
0.0
 10
-10.61189
 20
-14.41871
 30
0.0
 10
-10.62482
 20
-14.41398
 30
0.0
 10
-10.63423
 20
-14.4045
 30
0.0
 10
-10.63423
 20
-14.4045
 30
0.0
 10
-10.64361
 20
-14.39505
 30
0.0
 10
-10.64832
 20
-14.382
 30
0.0
 10
-10.64832
 20
-14.36537
 30
0.0
 10
-10.64832
 20
-14.36537
 30
0.0
 10
-10.64832
 20
-14.34869
 30
0.0
 10
-10.64361
 20
-14.33564
 30
0.0
 10
-10.63423
 20
-14.32619
 30
0.0
 10
-10.63423
 20
-14.32619
 30
0.0
 10
-10.62482
 20
-14.31671
 30
0.0
 10
-10.61189
 20
-14.31198
 30
0.0
 10
-10.5954
 20
-14.31198
 30
0.0
  0
SPLINE
  5
86
330
1F
100
AcDbEntity
  8
Layer 1
 62
   250
100
AcDbSpline
210
0.0
220
0.0
230
1.0
 70
    11
 71
     3
 72
    28
 73
    24
 74
     0
 42
0.0000000001
 43
0.0000000001
 40
0.0
 40
0.0
 40
0.0
 40
0.0
 40
0.1666666666666667
 40
0.1666666666666667
 40
0.1666666666666667
 40
0.1666666666666667
 40
0.3333333333333333
 40
0.3333333333333333
 40
0.3333333333333333
 40
0.3333333333333333
 40
0.5
 40
0.5
 40
0.5
 40
0.5
 40
0.6666666666666666
 40
0.6666666666666666
 40
0.6666666666666666
 40
0.6666666666666666
 40
0.8333333333333333
 40
0.8333333333333333
 40
0.8333333333333333
 40
0.8333333333333333
 40
1.0
 40
1.0
 40
1.0
 40
1.0
 10
-10.52242
 20
-14.31384
 30
0.0
 10
-10.52242
 20
-14.31384
 30
0.0
 10
-10.49589
 20
-14.31384
 30
0.0
 10
-10.49589
 20
-14.31384
 30
0.0
 10
-10.49589
 20
-14.31384
 30
0.0
 10
-10.49589
 20
-14.31384
 30
0.0
 10
-10.49589
 20
-14.39665
 30
0.0
 10
-10.49589
 20
-14.39665
 30
0.0
 10
-10.49589
 20
-14.39665
 30
0.0
 10
-10.49589
 20
-14.39665
 30
0.0
 10
-10.44933
 20
-14.39665
 30
0.0
 10
-10.44933
 20
-14.39665
 30
0.0
 10
-10.44933
 20
-14.39665
 30
0.0
 10
-10.44933
 20
-14.39665
 30
0.0
 10
-10.44933
 20
-14.41671
 30
0.0
 10
-10.44933
 20
-14.41671
 30
0.0
 10
-10.44933
 20
-14.41671
 30
0.0
 10
-10.44933
 20
-14.41671
 30
0.0
 10
-10.52242
 20
-14.41671
 30
0.0
 10
-10.52242
 20
-14.41671
 30
0.0
 10
-10.52242
 20
-14.41671
 30
0.0
 10
-10.52242
 20
-14.41671
 30
0.0
 10
-10.52242
 20
-14.31384
 30
0.0
 10
-10.52242
 20
-14.31384
 30
0.0
  0
SPLINE
  5
87
330
1F
100
AcDbEntity
  8
Layer 1
 62
   250
100
AcDbSpline
210
0.0
220
0.0
230
1.0
 70
    11
 71
     3
 72
    40
 73
    36
 74
     0
 42
0.0000000001
 43
0.0000000001
 40
0.0
 40
0.0
 40
0.0
 40
0.0
 40
0.1111111111111111
 40
0.1111111111111111
 40
0.1111111111111111
 40
0.1111111111111111
 40
0.2222222222222222
 40
0.2222222222222222
 40
0.2222222222222222
 40
0.2222222222222222
 40
0.3333333333333333
 40
0.3333333333333333
 40
0.3333333333333333
 40
0.3333333333333333
 40
0.4444444444444444
 40
0.4444444444444444
 40
0.4444444444444444
 40
0.4444444444444444
 40
0.5555555555555556
 40
0.5555555555555556
 40
0.5555555555555556
 40
0.5555555555555556
 40
0.6666666666666667
 40
0.6666666666666667
 40
0.6666666666666667
 40
0.6666666666666667
 40
0.7777777777777779
 40
0.7777777777777779
 40
0.7777777777777779
 40
0.7777777777777779
 40
0.8888888888888891
 40
0.8888888888888891
 40
0.8888888888888891
 40
0.8888888888888891
 40
1.0
 40
1.0
 40
1.0
 40
1.0
 10
-10.44686
 20
-14.31384
 30
0.0
 10
-10.44686
 20
-14.31384
 30
0.0
 10
-10.41786
 20
-14.31384
 30
0.0
 10
-10.41786
 20
-14.31384
 30
0.0
 10
-10.41786
 20
-14.31384
 30
0.0
 10
-10.41786
 20
-14.31384
 30
0.0
 10
-10.39441
 20
-14.35051
 30
0.0
 10
-10.39441
 20
-14.35051
 30
0.0
 10
-10.39441
 20
-14.35051
 30
0.0
 10
-10.39441
 20
-14.35051
 30
0.0
 10
-10.37099
 20
-14.31384
 30
0.0
 10
-10.37099
 20
-14.31384
 30
0.0
 10
-10.37099
 20
-14.31384
 30
0.0
 10
-10.37099
 20
-14.31384
 30
0.0
 10
-10.34192
 20
-14.31384
 30
0.0
 10
-10.34192
 20
-14.31384
 30
0.0
 10
-10.34192
 20
-14.31384
 30
0.0
 10
-10.34192
 20
-14.31384
 30
0.0
 10
-10.38112
 20
-14.37337
 30
0.0
 10
-10.38112
 20
-14.37337
 30
0.0
 10
-10.38112
 20
-14.37337
 30
0.0
 10
-10.38112
 20
-14.37337
 30
0.0
 10
-10.38112
 20
-14.41671
 30
0.0
 10
-10.38112
 20
-14.41671
 30
0.0
 10
-10.38112
 20
-14.41671
 30
0.0
 10
-10.38112
 20
-14.41671
 30
0.0
 10
-10.40765
 20
-14.41671
 30
0.0
 10
-10.40765
 20
-14.41671
 30
0.0
 10
-10.40765
 20
-14.41671
 30
0.0
 10
-10.40765
 20
-14.41671
 30
0.0
 10
-10.40765
 20
-14.37337
 30
0.0
 10
-10.40765
 20
-14.37337
 30
0.0
 10
-10.40765
 20
-14.37337
 30
0.0
 10
-10.40765
 20
-14.37337
 30
0.0
 10
-10.44686
 20
-14.31384
 30
0.0
 10
-10.44686
 20
-14.31384
 30
0.0
  0
SPLINE
  5
88
330
1F
100
AcDbEntity
  8
Layer 1
 62
   250
100
AcDbSpline
210
0.0
220
0.0
230
1.0
 70
    11
 71
     3
 72
    36
 73
    32
 74
     0
 42
0.0000000001
 43
0.0000000001
 40
0.0
 40
0.0
 40
0.0
 40
0.0
 40
0.125
 40
0.125
 40
0.125
 40
0.125
 40
0.25
 40
0.25
 40
0.25
 40
0.25
 40
0.375
 40
0.375
 40
0.375
 40
0.375
 40
0.5
 40
0.5
 40
0.5
 40
0.5
 40
0.625
 40
0.625
 40
0.625
 40
0.625
 40
0.75
 40
0.75
 40
0.75
 40
0.75
 40
0.875
 40
0.875
 40
0.875
 40
0.875
 40
1.0
 40
1.0
 40
1.0
 40
1.0
 10
-10.3426
 20
-14.31384
 30
0.0
 10
-10.3426
 20
-14.31384
 30
0.0
 10
-10.2478
 20
-14.31384
 30
0.0
 10
-10.2478
 20
-14.31384
 30
0.0
 10
-10.2478
 20
-14.31384
 30
0.0
 10
-10.2478
 20
-14.31384
 30
0.0
 10
-10.2478
 20
-14.3339
 30
0.0
 10
-10.2478
 20
-14.3339
 30
0.0
 10
-10.2478
 20
-14.3339
 30
0.0
 10
-10.2478
 20
-14.3339
 30
0.0
 10
-10.2819
 20
-14.3339
 30
0.0
 10
-10.2819
 20
-14.3339
 30
0.0
 10
-10.2819
 20
-14.3339
 30
0.0
 10
-10.2819
 20
-14.3339
 30
0.0
 10
-10.2819
 20
-14.41671
 30
0.0
 10
-10.2819
 20
-14.41671
 30
0.0
 10
-10.2819
 20
-14.41671
 30
0.0
 10
-10.2819
 20
-14.41671
 30
0.0
 10
-10.30843
 20
-14.41671
 30
0.0
 10
-10.30843
 20
-14.41671
 30
0.0
 10
-10.30843
 20
-14.41671
 30
0.0
 10
-10.30843
 20
-14.41671
 30
0.0
 10
-10.30843
 20
-14.3339
 30
0.0
 10
-10.30843
 20
-14.3339
 30
0.0
 10
-10.30843
 20
-14.3339
 30
0.0
 10
-10.30843
 20
-14.3339
 30
0.0
 10
-10.3426
 20
-14.3339
 30
0.0
 10
-10.3426
 20
-14.3339
 30
0.0
 10
-10.3426
 20
-14.3339
 30
0.0
 10
-10.3426
 20
-14.3339
 30
0.0
 10
-10.3426
 20
-14.31384
 30
0.0
 10
-10.3426
 20
-14.31384
 30
0.0
  0
SPLINE
  5
89
330
1F
100
AcDbEntity
  8
Layer 1
 62
   250
100
AcDbSpline
210
0.0
220
0.0
230
1.0
 70
    11
 71
     3
 72
    20
 73
    16
 74
     0
 42
0.0000000001
 43
0.0000000001
 40
0.0
 40
0.0
 40
0.0
 40
0.0
 40
0.25
 40
0.25
 40
0.25
 40
0.25
 40
0.5
 40
0.5
 40
0.5
 40
0.5
 40
0.75
 40
0.75
 40
0.75
 40
0.75
 40
1.0
 40
1.0
 40
1.0
 40
1.0
 10
-10.23406
 20
-14.31384
 30
0.0
 10
-10.23406
 20
-14.31384
 30
0.0
 10
-10.20753
 20
-14.31384
 30
0.0
 10
-10.20753
 20
-14.31384
 30
0.0
 10
-10.20753
 20
-14.31384
 30
0.0
 10
-10.20753
 20
-14.31384
 30
0.0
 10
-10.20753
 20
-14.41671
 30
0.0
 10
-10.20753
 20
-14.41671
 30
0.0
 10
-10.20753
 20
-14.41671
 30
0.0
 10
-10.20753
 20
-14.41671
 30
0.0
 10
-10.23406
 20
-14.41671
 30
0.0
 10
-10.23406
 20
-14.41671
 30
0.0
 10
-10.23406
 20
-14.41671
 30
0.0
 10
-10.23406
 20
-14.41671
 30
0.0
 10
-10.23406
 20
-14.31384
 30
0.0
 10
-10.23406
 20
-14.31384
 30
0.0
  0
SPLINE
  5
8A
330
1F
100
AcDbEntity
  8
Layer 1
 62
   250
100
AcDbSpline
210
0.0
220
0.0
230
1.0
 70
    11
 71
     3
 72
    76
 73
    72
 74
     0
 42
0.0000000001
 43
0.0000000001
 40
0.0
 40
0.0
 40
0.0
 40
0.0
 40
0.0555555555555556
 40
0.0555555555555556
 40
0.0555555555555556
 40
0.0555555555555556
 40
0.1111111111111111
 40
0.1111111111111111
 40
0.1111111111111111
 40
0.1111111111111111
 40
0.1666666666666667
 40
0.1666666666666667
 40
0.1666666666666667
 40
0.1666666666666667
 40
0.2222222222222222
 40
0.2222222222222222
 40
0.2222222222222222
 40
0.2222222222222222
 40
0.2777777777777778
 40
0.2777777777777778
 40
0.2777777777777778
 40
0.2777777777777778
 40
0.3333333333333334
 40
0.3333333333333334
 40
0.3333333333333334
 40
0.3333333333333334
 40
0.388888888888889
 40
0.388888888888889
 40
0.388888888888889
 40
0.388888888888889
 40
0.4444444444444445
 40
0.4444444444444445
 40
0.4444444444444445
 40
0.4444444444444445
 40
0.5000000000000001
 40
0.5000000000000001
 40
0.5000000000000001
 40
0.5000000000000001
 40
0.5555555555555557
 40
0.5555555555555557
 40
0.5555555555555557
 40
0.5555555555555557
 40
0.6111111111111113
 40
0.6111111111111113
 40
0.6111111111111113
 40
0.6111111111111113
 40
0.6666666666666669
 40
0.6666666666666669
 40
0.6666666666666669
 40
0.6666666666666669
 40
0.7222222222222224
 40
0.7222222222222224
 40
0.7222222222222224
 40
0.7222222222222224
 40
0.777777777777778
 40
0.777777777777778
 40
0.777777777777778
 40
0.777777777777778
 40
0.8333333333333336
 40
0.8333333333333336
 40
0.8333333333333336
 40
0.8333333333333336
 40
0.8888888888888892
 40
0.8888888888888892
 40
0.8888888888888892
 40
0.8888888888888892
 40
0.9444444444444448
 40
0.9444444444444448
 40
0.9444444444444448
 40
0.9444444444444448
 40
1.0
 40
1.0
 40
1.0
 40
1.0
 10
-10.09999
 20
-14.41107
 30
0.0
 10
-10.10485
 20
-14.41358
 30
0.0
 10
-10.10993
 20
-14.41549
 30
0.0
 10
-10.11523
 20
-14.41678
 30
0.0
 10
-10.11523
 20
-14.41678
 30
0.0
 10
-10.12049
 20
-14.41807
 30
0.0
 10
-10.12602
 20
-14.41871
 30
0.0
 10
-10.13176
 20
-14.41871
 30
0.0
 10
-10.13176
 20
-14.41871
 30
0.0
 10
-10.14888
 20
-14.41871
 30
0.0
 10
-10.16245
 20
-14.41391
 30
0.0
 10
-10.17247
 20
-14.40434
 30
0.0
 10
-10.17247
 20
-14.40434
 30
0.0
 10
-10.18249
 20
-14.39477
 30
0.0
 10
-10.1875
 20
-14.38179
 30
0.0
 10
-10.1875
 20
-14.36537
 30
0.0
 10
-10.1875
 20
-14.36537
 30
0.0
 10
-10.1875
 20
-14.34893
 30
0.0
 10
-10.18249
 20
-14.33592
 30
0.0
 10
-10.17247
 20
-14.32635
 30
0.0
 10
-10.17247
 20
-14.32635
 30
0.0
 10
-10.16245
 20
-14.31678
 30
0.0
 10
-10.14888
 20
-14.31198
 30
0.0
 10
-10.13176
 20
-14.31198
 30
0.0
 10
-10.13176
 20
-14.31198
 30
0.0
 10
-10.12602
 20
-14.31198
 30
0.0
 10
-10.12049
 20
-14.31262
 30
0.0
 10
-10.11523
 20
-14.31391
 30
0.0
 10
-10.11523
 20
-14.31391
 30
0.0
 10
-10.10993
 20
-14.3152
 30
0.0
 10
-10.10485
 20
-14.31711
 30
0.0
 10
-10.09999
 20
-14.31963
 30
0.0
 10
-10.09999
 20
-14.31963
 30
0.0
 10
-10.09999
 20
-14.31963
 30
0.0
 10
-10.09999
 20
-14.34091
 30
0.0
 10
-10.09999
 20
-14.34091
 30
0.0
 10
-10.09999
 20
-14.34091
 30
0.0
 10
-10.1049
 20
-14.33755
 30
0.0
 10
-10.10975
 20
-14.3351
 30
0.0
 10
-10.11452
 20
-14.33355
 30
0.0
 10
-10.11452
 20
-14.33355
 30
0.0
 10
-10.11929
 20
-14.33197
 30
0.0
 10
-10.12433
 20
-14.3312
 30
0.0
 10
-10.12962
 20
-14.3312
 30
0.0
 10
-10.12962
 20
-14.3312
 30
0.0
 10
-10.13907
 20
-14.3312
 30
0.0
 10
-10.14653
 20
-14.33423
 30
0.0
 10
-10.15194
 20
-14.3403
 30
0.0
 10
-10.15194
 20
-14.3403
 30
0.0
 10
-10.15737
 20
-14.34637
 30
0.0
 10
-10.16008
 20
-14.35472
 30
0.0
 10
-10.16008
 20
-14.36537
 30
0.0
 10
-10.16008
 20
-14.36537
 30
0.0
 10
-10.16008
 20
-14.376
 30
0.0
 10
-10.15737
 20
-14.38433
 30
0.0
 10
-10.15194
 20
-14.39039
 30
0.0
 10
-10.15194
 20
-14.39039
 30
0.0
 10
-10.14653
 20
-14.39646
 30
0.0
 10
-10.13907
 20
-14.39949
 30
0.0
 10
-10.12962
 20
-14.39949
 30
0.0
 10
-10.12962
 20
-14.39949
 30
0.0
 10
-10.12433
 20
-14.39949
 30
0.0
 10
-10.11929
 20
-14.39872
 30
0.0
 10
-10.11452
 20
-14.39714
 30
0.0
 10
-10.11452
 20
-14.39714
 30
0.0
 10
-10.10975
 20
-14.39559
 30
0.0
 10
-10.1049
 20
-14.39314
 30
0.0
 10
-10.09999
 20
-14.38978
 30
0.0
 10
-10.09999
 20
-14.38978
 30
0.0
 10
-10.09999
 20
-14.38978
 30
0.0
 10
-10.09999
 20
-14.41107
 30
0.0
 10
-10.09999
 20
-14.41107
 30
0.0
  0
SPLINE
  5
8B
330
1F
100
AcDbEntity
  8
Layer 1
 62
   250
100
AcDbSpline
210
0.0
220
0.0
230
1.0
 70
    11
 71
     3
 72
    44
 73
    40
 74
     0
 42
0.0000000001
 43
0.0000000001
 40
0.0
 40
0.0
 40
0.0
 40
0.0
 40
0.1
 40
0.1
 40
0.1
 40
0.1
 40
0.2
 40
0.2
 40
0.2
 40
0.2
 40
0.3
 40
0.3
 40
0.3
 40
0.3
 40
0.4
 40
0.4
 40
0.4
 40
0.4
 40
0.5
 40
0.5
 40
0.5
 40
0.5
 40
0.6
 40
0.6
 40
0.6
 40
0.6
 40
0.7
 40
0.7
 40
0.7
 40
0.7
 40
0.7999999999999999
 40
0.7999999999999999
 40
0.7999999999999999
 40
0.7999999999999999
 40
0.8999999999999999
 40
0.8999999999999999
 40
0.8999999999999999
 40
0.8999999999999999
 40
1.0
 40
1.0
 40
1.0
 40
1.0
 10
-10.07969
 20
-14.43531
 30
0.0
 10
-10.07381
 20
-14.42438
 30
0.0
 10
-10.06939
 20
-14.4137
 30
0.0
 10
-10.06645
 20
-14.40328
 30
0.0
 10
-10.06645
 20
-14.40328
 30
0.0
 10
-10.06351
 20
-14.39284
 30
0.0
 10
-10.06205
 20
-14.38256
 30
0.0
 10
-10.06205
 20
-14.3724
 30
0.0
 10
-10.06205
 20
-14.3724
 30
0.0
 10
-10.06205
 20
-14.36224
 30
0.0
 10
-10.06351
 20
-14.35196
 30
0.0
 10
-10.06645
 20
-14.34157
 30
0.0
 10
-10.06645
 20
-14.34157
 30
0.0
 10
-10.06939
 20
-14.33117
 30
0.0
 10
-10.07381
 20
-14.32052
 30
0.0
 10
-10.07969
 20
-14.30963
 30
0.0
 10
-10.07969
 20
-14.30963
 30
0.0
 10
-10.07969
 20
-14.30963
 30
0.0
 10
-10.05923
 20
-14.30963
 30
0.0
 10
-10.05923
 20
-14.30963
 30
0.0
 10
-10.05923
 20
-14.30963
 30
0.0
 10
-10.05225
 20
-14.3209
 30
0.0
 10
-10.04707
 20
-14.33167
 30
0.0
 10
-10.04368
 20
-14.34199
 30
0.0
 10
-10.04368
 20
-14.34199
 30
0.0
 10
-10.04032
 20
-14.35229
 30
0.0
 10
-10.03863
 20
-14.36248
 30
0.0
 10
-10.03863
 20
-14.37254
 30
0.0
 10
-10.03863
 20
-14.37254
 30
0.0
 10
-10.03863
 20
-14.38261
 30
0.0
 10
-10.0403
 20
-14.39274
 30
0.0
 10
-10.04366
 20
-14.40295
 30
0.0
 10
-10.04366
 20
-14.40295
 30
0.0
 10
-10.047
 20
-14.41318
 30
0.0
 10
-10.0522
 20
-14.42398
 30
0.0
 10
-10.05923
 20
-14.43531
 30
0.0
 10
-10.05923
 20
-14.43531
 30
0.0
 10
-10.05923
 20
-14.43531
 30
0.0
 10
-10.07969
 20
-14.43531
 30
0.0
 10
-10.07969
 20
-14.43531
 30
0.0
  0
SPLINE
  5
8C
330
1F
100
AcDbEntity
  8
Layer 1
 62
   250
100
AcDbSpline
210
0.0
220
0.0
230
1.0
 70
    11
 71
     3
 72
    80
 73
    76
 74
     0
 42
0.0000000001
 43
0.0000000001
 40
0.0
 40
0.0
 40
0.0
 40
0.0
 40
0.0526315789473684
 40
0.0526315789473684
 40
0.0526315789473684
 40
0.0526315789473684
 40
0.1052631578947368
 40
0.1052631578947368
 40
0.1052631578947368
 40
0.1052631578947368
 40
0.1578947368421053
 40
0.1578947368421053
 40
0.1578947368421053
 40
0.1578947368421053
 40
0.2105263157894737
 40
0.2105263157894737
 40
0.2105263157894737
 40
0.2105263157894737
 40
0.2631578947368421
 40
0.2631578947368421
 40
0.2631578947368421
 40
0.2631578947368421
 40
0.3157894736842105
 40
0.3157894736842105
 40
0.3157894736842105
 40
0.3157894736842105
 40
0.3684210526315789
 40
0.3684210526315789
 40
0.3684210526315789
 40
0.3684210526315789
 40
0.4210526315789473
 40
0.4210526315789473
 40
0.4210526315789473
 40
0.4210526315789473
 40
0.4736842105263158
 40
0.4736842105263158
 40
0.4736842105263158
 40
0.4736842105263158
 40
0.5263157894736842
 40
0.5263157894736842
 40
0.5263157894736842
 40
0.5263157894736842
 40
0.5789473684210527
 40
0.5789473684210527
 40
0.5789473684210527
 40
0.5789473684210527
 40
0.631578947368421
 40
0.631578947368421
 40
0.631578947368421
 40
0.631578947368421
 40
0.6842105263157894
 40
0.6842105263157894
 40
0.6842105263157894
 40
0.6842105263157894
 40
0.7368421052631577
 40
0.7368421052631577
 40
0.7368421052631577
 40
0.7368421052631577
 40
0.7894736842105261
 40
0.7894736842105261
 40
0.7894736842105261
 40
0.7894736842105261
 40
0.8421052631578945
 40
0.8421052631578945
 40
0.8421052631578945
 40
0.8421052631578945
 40
0.8947368421052628
 40
0.8947368421052628
 40
0.8947368421052628
 40
0.8947368421052628
 40
0.9473684210526312
 40
0.9473684210526312
 40
0.9473684210526312
 40
0.9473684210526312
 40
1.0
 40
1.0
 40
1.0
 40
1.0
 10
-9.9367
 20
-14.39721
 30
0.0
 10
-9.9367
 20
-14.39721
 30
0.0
 10
-9.89142
 20
-14.39721
 30
0.0
 10
-9.89142
 20
-14.39721
 30
0.0
 10
-9.89142
 20
-14.39721
 30
0.0
 10
-9.89142
 20
-14.39721
 30
0.0
 10
-9.89142
 20
-14.41671
 30
0.0
 10
-9.89142
 20
-14.41671
 30
0.0
 10
-9.89142
 20
-14.41671
 30
0.0
 10
-9.89142
 20
-14.41671
 30
0.0
 10
-9.96619
 20
-14.41671
 30
0.0
 10
-9.96619
 20
-14.41671
 30
0.0
 10
-9.96619
 20
-14.41671
 30
0.0
 10
-9.96619
 20
-14.41671
 30
0.0
 10
-9.96619
 20
-14.39721
 30
0.0
 10
-9.96619
 20
-14.39721
 30
0.0
 10
-9.96619
 20
-14.39721
 30
0.0
 10
-9.96619
 20
-14.39721
 30
0.0
 10
-9.92863
 20
-14.36408
 30
0.0
 10
-9.92863
 20
-14.36408
 30
0.0
 10
-9.92863
 20
-14.36408
 30
0.0
 10
-9.92527
 20
-14.36104
 30
0.0
 10
-9.9228
 20
-14.35808
 30
0.0
 10
-9.9212
 20
-14.35519
 30
0.0
 10
-9.9212
 20
-14.35519
 30
0.0
 10
-9.91958
 20
-14.35229
 30
0.0
 10
-9.91878
 20
-14.34928
 30
0.0
 10
-9.91878
 20
-14.34615
 30
0.0
 10
-9.91878
 20
-14.34615
 30
0.0
 10
-9.91878
 20
-14.34133
 30
0.0
 10
-9.9204
 20
-14.33745
 30
0.0
 10
-9.92364
 20
-14.33451
 30
0.0
 10
-9.92364
 20
-14.33451
 30
0.0
 10
-9.92687
 20
-14.33157
 30
0.0
 10
-9.93117
 20
-14.33012
 30
0.0
 10
-9.93656
 20
-14.33012
 30
0.0
 10
-9.93656
 20
-14.33012
 30
0.0
 10
-9.94069
 20
-14.33012
 30
0.0
 10
-9.94521
 20
-14.33101
 30
0.0
 10
-9.95013
 20
-14.33277
 30
0.0
 10
-9.95013
 20
-14.33277
 30
0.0
 10
-9.95504
 20
-14.33454
 30
0.0
 10
-9.96031
 20
-14.33717
 30
0.0
 10
-9.96591
 20
-14.34065
 30
0.0
 10
-9.96591
 20
-14.34065
 30
0.0
 10
-9.96591
 20
-14.34065
 30
0.0
 10
-9.96591
 20
-14.31805
 30
0.0
 10
-9.96591
 20
-14.31805
 30
0.0
 10
-9.96591
 20
-14.31805
 30
0.0
 10
-9.95993
 20
-14.31608
 30
0.0
 10
-9.95403
 20
-14.31457
 30
0.0
 10
-9.9482
 20
-14.31354
 30
0.0
 10
-9.9482
 20
-14.31354
 30
0.0
 10
-9.94236
 20
-14.3125
 30
0.0
 10
-9.93665
 20
-14.31198
 30
0.0
 10
-9.93103
 20
-14.31198
 30
0.0
 10
-9.93103
 20
-14.31198
 30
0.0
 10
-9.91873
 20
-14.31198
 30
0.0
 10
-9.90916
 20
-14.31469
 30
0.0
 10
-9.90234
 20
-14.32012
 30
0.0
 10
-9.90234
 20
-14.32012
 30
0.0
 10
-9.89552
 20
-14.32553
 30
0.0
 10
-9.89211
 20
-14.33308
 30
0.0
 10
-9.89211
 20
-14.34279
 30
0.0
 10
-9.89211
 20
-14.34279
 30
0.0
 10
-9.89211
 20
-14.34839
 30
0.0
 10
-9.89356
 20
-14.35361
 30
0.0
 10
-9.89646
 20
-14.35846
 30
0.0
 10
-9.89646
 20
-14.35846
 30
0.0
 10
-9.89935
 20
-14.3633
 30
0.0
 10
-9.90544
 20
-14.36979
 30
0.0
 10
-9.91471
 20
-14.37793
 30
0.0
 10
-9.91471
 20
-14.37793
 30
0.0
 10
-9.91471
 20
-14.37793
 30
0.0
 10
-9.9367
 20
-14.39721
 30
0.0
 10
-9.9367
 20
-14.39721
 30
0.0
  0
SPLINE
  5
8D
330
1F
100
AcDbEntity
  8
Layer 1
 62
   250
100
AcDbSpline
210
0.0
220
0.0
230
1.0
 70
    11
 71
     3
 72
    92
 73
    88
 74
     0
 42
0.0000000001
 43
0.0000000001
 40
0.0
 40
0.0
 40
0.0
 40
0.0
 40
0.0454545454545455
 40
0.0454545454545455
 40
0.0454545454545455
 40
0.0454545454545455
 40
0.0909090909090909
 40
0.0909090909090909
 40
0.0909090909090909
 40
0.0909090909090909
 40
0.1363636363636364
 40
0.1363636363636364
 40
0.1363636363636364
 40
0.1363636363636364
 40
0.1818181818181818
 40
0.1818181818181818
 40
0.1818181818181818
 40
0.1818181818181818
 40
0.2272727272727273
 40
0.2272727272727273
 40
0.2272727272727273
 40
0.2272727272727273
 40
0.2727272727272728
 40
0.2727272727272728
 40
0.2727272727272728
 40
0.2727272727272728
 40
0.3181818181818182
 40
0.3181818181818182
 40
0.3181818181818182
 40
0.3181818181818182
 40
0.3636363636363637
 40
0.3636363636363637
 40
0.3636363636363637
 40
0.3636363636363637
 40
0.4090909090909092
 40
0.4090909090909092
 40
0.4090909090909092
 40
0.4090909090909092
 40
0.4545454545454546
 40
0.4545454545454546
 40
0.4545454545454546
 40
0.4545454545454546
 40
0.5000000000000001
 40
0.5000000000000001
 40
0.5000000000000001
 40
0.5000000000000001
 40
0.5454545454545455
 40
0.5454545454545455
 40
0.5454545454545455
 40
0.5454545454545455
 40
0.5909090909090909
 40
0.5909090909090909
 40
0.5909090909090909
 40
0.5909090909090909
 40
0.6363636363636364
 40
0.6363636363636364
 40
0.6363636363636364
 40
0.6363636363636364
 40
0.6818181818181818
 40
0.6818181818181818
 40
0.6818181818181818
 40
0.6818181818181818
 40
0.7272727272727272
 40
0.7272727272727272
 40
0.7272727272727272
 40
0.7272727272727272
 40
0.7727272727272726
 40
0.7727272727272726
 40
0.7727272727272726
 40
0.7727272727272726
 40
0.818181818181818
 40
0.818181818181818
 40
0.818181818181818
 40
0.818181818181818
 40
0.8636363636363634
 40
0.8636363636363634
 40
0.8636363636363634
 40
0.8636363636363634
 40
0.9090909090909088
 40
0.9090909090909088
 40
0.9090909090909088
 40
0.9090909090909088
 40
0.9545454545454543
 40
0.9545454545454543
 40
0.9545454545454543
 40
0.9545454545454543
 40
1.0
 40
1.0
 40
1.0
 40
1.0
 10
-9.86421
 20
-14.31384
 30
0.0
 10
-9.86421
 20
-14.31384
 30
0.0
 10
-9.79827
 20
-14.31384
 30
0.0
 10
-9.79827
 20
-14.31384
 30
0.0
 10
-9.79827
 20
-14.31384
 30
0.0
 10
-9.79827
 20
-14.31384
 30
0.0
 10
-9.79827
 20
-14.33334
 30
0.0
 10
-9.79827
 20
-14.33334
 30
0.0
 10
-9.79827
 20
-14.33334
 30
0.0
 10
-9.79827
 20
-14.33334
 30
0.0
 10
-9.84307
 20
-14.33334
 30
0.0
 10
-9.84307
 20
-14.33334
 30
0.0
 10
-9.84307
 20
-14.33334
 30
0.0
 10
-9.84307
 20
-14.33334
 30
0.0
 10
-9.84307
 20
-14.34926
 30
0.0
 10
-9.84307
 20
-14.34926
 30
0.0
 10
-9.84307
 20
-14.34926
 30
0.0
 10
-9.84105
 20
-14.34872
 30
0.0
 10
-9.83902
 20
-14.3483
 30
0.0
 10
-9.83698
 20
-14.34799
 30
0.0
 10
-9.83698
 20
-14.34799
 30
0.0
 10
-9.83493
 20
-14.34768
 30
0.0
 10
-9.83279
 20
-14.34754
 30
0.0
 10
-9.8306
 20
-14.34754
 30
0.0
 10
-9.8306
 20
-14.34754
 30
0.0
 10
-9.81805
 20
-14.34754
 30
0.0
 10
-9.80829
 20
-14.35067
 30
0.0
 10
-9.8013
 20
-14.35695
 30
0.0
 10
-9.8013
 20
-14.35695
 30
0.0
 10
-9.79432
 20
-14.36321
 30
0.0
 10
-9.79084
 20
-14.37195
 30
0.0
 10
-9.79084
 20
-14.38315
 30
0.0
 10
-9.79084
 20
-14.38315
 30
0.0
 10
-9.79084
 20
-14.39427
 30
0.0
 10
-9.79465
 20
-14.40298
 30
0.0
 10
-9.80224
 20
-14.40928
 30
0.0
 10
-9.80224
 20
-14.40928
 30
0.0
 10
-9.80984
 20
-14.41556
 30
0.0
 10
-9.8204
 20
-14.41871
 30
0.0
 10
-9.8339
 20
-14.41871
 30
0.0
 10
-9.8339
 20
-14.41871
 30
0.0
 10
-9.83973
 20
-14.41871
 30
0.0
 10
-9.84552
 20
-14.41814
 30
0.0
 10
-9.85123
 20
-14.41702
 30
0.0
 10
-9.85123
 20
-14.41702
 30
0.0
 10
-9.85695
 20
-14.41589
 30
0.0
 10
-9.86264
 20
-14.41419
 30
0.0
 10
-9.86828
 20
-14.41189
 30
0.0
 10
-9.86828
 20
-14.41189
 30
0.0
 10
-9.86828
 20
-14.41189
 30
0.0
 10
-9.86828
 20
-14.391
 30
0.0
 10
-9.86828
 20
-14.391
 30
0.0
 10
-9.86828
 20
-14.391
 30
0.0
 10
-9.86268
 20
-14.39423
 30
0.0
 10
-9.85737
 20
-14.39663
 30
0.0
 10
-9.85234
 20
-14.39822
 30
0.0
 10
-9.85234
 20
-14.39822
 30
0.0
 10
-9.8473
 20
-14.39985
 30
0.0
 10
-9.84255
 20
-14.40065
 30
0.0
 10
-9.83811
 20
-14.40065
 30
0.0
 10
-9.83811
 20
-14.40065
 30
0.0
 10
-9.83166
 20
-14.40065
 30
0.0
 10
-9.82661
 20
-14.39907
 30
0.0
 10
-9.82291
 20
-14.39592
 30
0.0
 10
-9.82291
 20
-14.39592
 30
0.0
 10
-9.81922
 20
-14.39279
 30
0.0
 10
-9.81736
 20
-14.38854
 30
0.0
 10
-9.81736
 20
-14.38315
 30
0.0
 10
-9.81736
 20
-14.38315
 30
0.0
 10
-9.81736
 20
-14.37774
 30
0.0
 10
-9.81922
 20
-14.37348
 30
0.0
 10
-9.82291
 20
-14.37036
 30
0.0
 10
-9.82291
 20
-14.37036
 30
0.0
 10
-9.82661
 20
-14.36723
 30
0.0
 10
-9.83166
 20
-14.36568
 30
0.0
 10
-9.83811
 20
-14.36568
 30
0.0
 10
-9.83811
 20
-14.36568
 30
0.0
 10
-9.84192
 20
-14.36568
 30
0.0
 10
-9.84599
 20
-14.36617
 30
0.0
 10
-9.85029
 20
-14.36716
 30
0.0
 10
-9.85029
 20
-14.36716
 30
0.0
 10
-9.85462
 20
-14.36814
 30
0.0
 10
-9.85925
 20
-14.36967
 30
0.0
 10
-9.86421
 20
-14.37174
 30
0.0
 10
-9.86421
 20
-14.37174
 30
0.0
 10
-9.86421
 20
-14.37174
 30
0.0
 10
-9.86421
 20
-14.31384
 30
0.0
 10
-9.86421
 20
-14.31384
 30
0.0
  0
SPLINE
  5
8E
330
1F
100
AcDbEntity
  8
Layer 1
 62
   250
100
AcDbSpline
210
0.0
220
0.0
230
1.0
 70
    11
 71
     3
 72
    32
 73
    28
 74
     0
 42
0.0000000001
 43
0.0000000001
 40
0.0
 40
0.0
 40
0.0
 40
0.0
 40
0.1428571428571428
 40
0.1428571428571428
 40
0.1428571428571428
 40
0.1428571428571428
 40
0.2857142857142857
 40
0.2857142857142857
 40
0.2857142857142857
 40
0.2857142857142857
 40
0.4285714285714285
 40
0.4285714285714285
 40
0.4285714285714285
 40
0.4285714285714285
 40
0.5714285714285714
 40
0.5714285714285714
 40
0.5714285714285714
 40
0.5714285714285714
 40
0.7142857142857142
 40
0.7142857142857142
 40
0.7142857142857142
 40
0.7142857142857142
 40
0.857142857142857
 40
0.857142857142857
 40
0.857142857142857
 40
0.857142857142857
 40
1.0
 40
1.0
 40
1.0
 40
1.0
 10
-9.77884
 20
-14.33955
 30
0.0
 10
-9.77884
 20
-14.33955
 30
0.0
 10
-9.75417
 20
-14.33955
 30
0.0
 10
-9.75417
 20
-14.33955
 30
0.0
 10
-9.75417
 20
-14.33955
 30
0.0
 10
-9.75417
 20
-14.33955
 30
0.0
 10
-9.73495
 20
-14.39286
 30
0.0
 10
-9.73495
 20
-14.39286
 30
0.0
 10
-9.73495
 20
-14.39286
 30
0.0
 10
-9.73495
 20
-14.39286
 30
0.0
 10
-9.71581
 20
-14.33955
 30
0.0
 10
-9.71581
 20
-14.33955
 30
0.0
 10
-9.71581
 20
-14.33955
 30
0.0
 10
-9.71581
 20
-14.33955
 30
0.0
 10
-9.69107
 20
-14.33955
 30
0.0
 10
-9.69107
 20
-14.33955
 30
0.0
 10
-9.69107
 20
-14.33955
 30
0.0
 10
-9.69107
 20
-14.33955
 30
0.0
 10
-9.72146
 20
-14.41671
 30
0.0
 10
-9.72146
 20
-14.41671
 30
0.0
 10
-9.72146
 20
-14.41671
 30
0.0
 10
-9.72146
 20
-14.41671
 30
0.0
 10
-9.74852
 20
-14.41671
 30
0.0
 10
-9.74852
 20
-14.41671
 30
0.0
 10
-9.74852
 20
-14.41671
 30
0.0
 10
-9.74852
 20
-14.41671
 30
0.0
 10
-9.77884
 20
-14.33955
 30
0.0
 10
-9.77884
 20
-14.33955
 30
0.0
  0
SPLINE
  5
8F
330
1F
100
AcDbEntity
  8
Layer 1
 62
   250
100
AcDbSpline
210
0.0
220
0.0
230
1.0
 70
    11
 71
     3
 72
    36
 73
    32
 74
     0
 42
0.0000000001
 43
0.0000000001
 40
0.0
 40
0.0
 40
0.0
 40
0.0
 40
0.125
 40
0.125
 40
0.125
 40
0.125
 40
0.25
 40
0.25
 40
0.25
 40
0.25
 40
0.375
 40
0.375
 40
0.375
 40
0.375
 40
0.5
 40
0.5
 40
0.5
 40
0.5
 40
0.625
 40
0.625
 40
0.625
 40
0.625
 40
0.75
 40
0.75
 40
0.75
 40
0.75
 40
0.875
 40
0.875
 40
0.875
 40
0.875
 40
1.0
 40
1.0
 40
1.0
 40
1.0
 10
-10.85803
 20
-15.33523
 30
0.0
 10
-10.8626
 20
-15.33523
 30
0.0
 10
-10.86605
 20
-15.337
 30
0.0
 10
-10.8684
 20
-15.34055
 30
0.0
 10
-10.8684
 20
-15.34055
 30
0.0
 10
-10.87075
 20
-15.3441
 30
0.0
 10
-10.87192
 20
-15.34937
 30
0.0
 10
-10.87192
 20
-15.35632
 30
0.0
 10
-10.87192
 20
-15.35632
 30
0.0
 10
-10.87192
 20
-15.36325
 30
0.0
 10
-10.87075
 20
-15.3685
 30
0.0
 10
-10.8684
 20
-15.37207
 30
0.0
 10
-10.8684
 20
-15.37207
 30
0.0
 10
-10.86605
 20
-15.37564
 30
0.0
 10
-10.8626
 20
-15.37742
 30
0.0
 10
-10.85803
 20
-15.37742
 30
0.0
 10
-10.85803
 20
-15.37742
 30
0.0
 10
-10.85345
 20
-15.37742
 30
0.0
 10
-10.84998
 20
-15.37564
 30
0.0
 10
-10.84763
 20
-15.37207
 30
0.0
 10
-10.84763
 20
-15.37207
 30
0.0
 10
-10.84528
 20
-15.3685
 30
0.0
 10
-10.84412
 20
-15.36325
 30
0.0
 10
-10.84412
 20
-15.35632
 30
0.0
 10
-10.84412
 20
-15.35632
 30
0.0
 10
-10.84412
 20
-15.34937
 30
0.0
 10
-10.84528
 20
-15.3441
 30
0.0
 10
-10.84763
 20
-15.34055
 30
0.0
 10
-10.84763
 20
-15.34055
 30
0.0
 10
-10.84998
 20
-15.337
 30
0.0
 10
-10.85345
 20
-15.33523
 30
0.0
 10
-10.85803
 20
-15.33523
 30
0.0
  0
SPLINE
  5
90
330
1F
100
AcDbEntity
  8
Layer 1
 62
   250
100
AcDbSpline
210
0.0
220
0.0
230
1.0
 70
    11
 71
     3
 72
    36
 73
    32
 74
     0
 42
0.0000000001
 43
0.0000000001
 40
0.0
 40
0.0
 40
0.0
 40
0.0
 40
0.125
 40
0.125
 40
0.125
 40
0.125
 40
0.25
 40
0.25
 40
0.25
 40
0.25
 40
0.375
 40
0.375
 40
0.375
 40
0.375
 40
0.5
 40
0.5
 40
0.5
 40
0.5
 40
0.625
 40
0.625
 40
0.625
 40
0.625
 40
0.75
 40
0.75
 40
0.75
 40
0.75
 40
0.875
 40
0.875
 40
0.875
 40
0.875
 40
1.0
 40
1.0
 40
1.0
 40
1.0
 10
-10.85803
 20
-15.32761
 30
0.0
 10
-10.85045
 20
-15.32761
 30
0.0
 10
-10.84465
 20
-15.33006
 30
0.0
 10
-10.84063
 20
-15.33498
 30
0.0
 10
-10.84063
 20
-15.33498
 30
0.0
 10
-10.83661
 20
-15.3399
 30
0.0
 10
-10.8346
 20
-15.34702
 30
0.0
 10
-10.8346
 20
-15.35632
 30
0.0
 10
-10.8346
 20
-15.35632
 30
0.0
 10
-10.8346
 20
-15.36567
 30
0.0
 10
-10.8366
 20
-15.37279
 30
0.0
 10
-10.8406
 20
-15.37769
 30
0.0
 10
-10.8406
 20
-15.37769
 30
0.0
 10
-10.84462
 20
-15.38259
 30
0.0
 10
-10.85042
 20
-15.38504
 30
0.0
 10
-10.85803
 20
-15.38504
 30
0.0
 10
-10.85803
 20
-15.38504
 30
0.0
 10
-10.86563
 20
-15.38504
 30
0.0
 10
-10.87142
 20
-15.38259
 30
0.0
 10
-10.87544
 20
-15.37769
 30
0.0
 10
-10.87544
 20
-15.37769
 30
0.0
 10
-10.87944
 20
-15.37279
 30
0.0
 10
-10.88144
 20
-15.36567
 30
0.0
 10
-10.88144
 20
-15.35632
 30
0.0
 10
-10.88144
 20
-15.35632
 30
0.0
 10
-10.88144
 20
-15.34702
 30
0.0
 10
-10.87944
 20
-15.3399
 30
0.0
 10
-10.87544
 20
-15.33498
 30
0.0
 10
-10.87544
 20
-15.33498
 30
0.0
 10
-10.87142
 20
-15.33006
 30
0.0
 10
-10.86563
 20
-15.32761
 30
0.0
 10
-10.85803
 20
-15.32761
 30
0.0
  0
SPLINE
  5
91
330
1F
100
AcDbEntity
  8
Layer 1
 62
   250
100
AcDbSpline
210
0.0
220
0.0
230
1.0
 70
    11
 71
     3
 72
    36
 73
    32
 74
     0
 42
0.0000000001
 43
0.0000000001
 40
0.0
 40
0.0
 40
0.0
 40
0.0
 40
0.125
 40
0.125
 40
0.125
 40
0.125
 40
0.25
 40
0.25
 40
0.25
 40
0.25
 40
0.375
 40
0.375
 40
0.375
 40
0.375
 40
0.5
 40
0.5
 40
0.5
 40
0.5
 40
0.625
 40
0.625
 40
0.625
 40
0.625
 40
0.75
 40
0.75
 40
0.75
 40
0.75
 40
0.875
 40
0.875
 40
0.875
 40
0.875
 40
1.0
 40
1.0
 40
1.0
 40
1.0
 10
-10.79782
 20
-15.33523
 30
0.0
 10
-10.80239
 20
-15.33523
 30
0.0
 10
-10.80584
 20
-15.337
 30
0.0
 10
-10.80819
 20
-15.34055
 30
0.0
 10
-10.80819
 20
-15.34055
 30
0.0
 10
-10.81054
 20
-15.3441
 30
0.0
 10
-10.81171
 20
-15.34937
 30
0.0
 10
-10.81171
 20
-15.35632
 30
0.0
 10
-10.81171
 20
-15.35632
 30
0.0
 10
-10.81171
 20
-15.36325
 30
0.0
 10
-10.81054
 20
-15.3685
 30
0.0
 10
-10.80819
 20
-15.37207
 30
0.0
 10
-10.80819
 20
-15.37207
 30
0.0
 10
-10.80584
 20
-15.37564
 30
0.0
 10
-10.80239
 20
-15.37742
 30
0.0
 10
-10.79782
 20
-15.37742
 30
0.0
 10
-10.79782
 20
-15.37742
 30
0.0
 10
-10.79324
 20
-15.37742
 30
0.0
 10
-10.78977
 20
-15.37564
 30
0.0
 10
-10.78742
 20
-15.37207
 30
0.0
 10
-10.78742
 20
-15.37207
 30
0.0
 10
-10.78507
 20
-15.3685
 30
0.0
 10
-10.78391
 20
-15.36325
 30
0.0
 10
-10.78391
 20
-15.35632
 30
0.0
 10
-10.78391
 20
-15.35632
 30
0.0
 10
-10.78391
 20
-15.34937
 30
0.0
 10
-10.78507
 20
-15.3441
 30
0.0
 10
-10.78742
 20
-15.34055
 30
0.0
 10
-10.78742
 20
-15.34055
 30
0.0
 10
-10.78977
 20
-15.337
 30
0.0
 10
-10.79324
 20
-15.33523
 30
0.0
 10
-10.79782
 20
-15.33523
 30
0.0
  0
SPLINE
  5
92
330
1F
100
AcDbEntity
  8
Layer 1
 62
   250
100
AcDbSpline
210
0.0
220
0.0
230
1.0
 70
    11
 71
     3
 72
    36
 73
    32
 74
     0
 42
0.0000000001
 43
0.0000000001
 40
0.0
 40
0.0
 40
0.0
 40
0.0
 40
0.125
 40
0.125
 40
0.125
 40
0.125
 40
0.25
 40
0.25
 40
0.25
 40
0.25
 40
0.375
 40
0.375
 40
0.375
 40
0.375
 40
0.5
 40
0.5
 40
0.5
 40
0.5
 40
0.625
 40
0.625
 40
0.625
 40
0.625
 40
0.75
 40
0.75
 40
0.75
 40
0.75
 40
0.875
 40
0.875
 40
0.875
 40
0.875
 40
1.0
 40
1.0
 40
1.0
 40
1.0
 10
-10.79782
 20
-15.32761
 30
0.0
 10
-10.79024
 20
-15.32761
 30
0.0
 10
-10.78444
 20
-15.33006
 30
0.0
 10
-10.78042
 20
-15.33498
 30
0.0
 10
-10.78042
 20
-15.33498
 30
0.0
 10
-10.7764
 20
-15.3399
 30
0.0
 10
-10.77439
 20
-15.34702
 30
0.0
 10
-10.77439
 20
-15.35632
 30
0.0
 10
-10.77439
 20
-15.35632
 30
0.0
 10
-10.77439
 20
-15.36567
 30
0.0
 10
-10.77639
 20
-15.37279
 30
0.0
 10
-10.78039
 20
-15.37769
 30
0.0
 10
-10.78039
 20
-15.37769
 30
0.0
 10
-10.78441
 20
-15.38259
 30
0.0
 10
-10.79021
 20
-15.38504
 30
0.0
 10
-10.79782
 20
-15.38504
 30
0.0
 10
-10.79782
 20
-15.38504
 30
0.0
 10
-10.80542
 20
-15.38504
 30
0.0
 10
-10.81121
 20
-15.38259
 30
0.0
 10
-10.81523
 20
-15.37769
 30
0.0
 10
-10.81523
 20
-15.37769
 30
0.0
 10
-10.81923
 20
-15.37279
 30
0.0
 10
-10.82123
 20
-15.36567
 30
0.0
 10
-10.82123
 20
-15.35632
 30
0.0
 10
-10.82123
 20
-15.35632
 30
0.0
 10
-10.82123
 20
-15.34702
 30
0.0
 10
-10.81923
 20
-15.3399
 30
0.0
 10
-10.81523
 20
-15.33498
 30
0.0
 10
-10.81523
 20
-15.33498
 30
0.0
 10
-10.81121
 20
-15.33006
 30
0.0
 10
-10.80542
 20
-15.32761
 30
0.0
 10
-10.79782
 20
-15.32761
 30
0.0
  0
SPLINE
  5
93
330
1F
100
AcDbEntity
  8
Layer 1
 62
   250
100
AcDbSpline
210
0.0
220
0.0
230
1.0
 70
    11
 71
     3
 72
   112
 73
   108
 74
     0
 42
0.0000000001
 43
0.0000000001
 40
0.0
 40
0.0
 40
0.0
 40
0.0
 40
0.037037037037037
 40
0.037037037037037
 40
0.037037037037037
 40
0.037037037037037
 40
0.0740740740740741
 40
0.0740740740740741
 40
0.0740740740740741
 40
0.0740740740740741
 40
0.1111111111111111
 40
0.1111111111111111
 40
0.1111111111111111
 40
0.1111111111111111
 40
0.1481481481481481
 40
0.1481481481481481
 40
0.1481481481481481
 40
0.1481481481481481
 40
0.1851851851851852
 40
0.1851851851851852
 40
0.1851851851851852
 40
0.1851851851851852
 40
0.2222222222222222
 40
0.2222222222222222
 40
0.2222222222222222
 40
0.2222222222222222
 40
0.2592592592592592
 40
0.2592592592592592
 40
0.2592592592592592
 40
0.2592592592592592
 40
0.2962962962962963
 40
0.2962962962962963
 40
0.2962962962962963
 40
0.2962962962962963
 40
0.3333333333333333
 40
0.3333333333333333
 40
0.3333333333333333
 40
0.3333333333333333
 40
0.3703703703703703
 40
0.3703703703703703
 40
0.3703703703703703
 40
0.3703703703703703
 40
0.4074074074074074
 40
0.4074074074074074
 40
0.4074074074074074
 40
0.4074074074074074
 40
0.4444444444444444
 40
0.4444444444444444
 40
0.4444444444444444
 40
0.4444444444444444
 40
0.4814814814814815
 40
0.4814814814814815
 40
0.4814814814814815
 40
0.4814814814814815
 40
0.5185185185185185
 40
0.5185185185185185
 40
0.5185185185185185
 40
0.5185185185185185
 40
0.5555555555555556
 40
0.5555555555555556
 40
0.5555555555555556
 40
0.5555555555555556
 40
0.5925925925925926
 40
0.5925925925925926
 40
0.5925925925925926
 40
0.5925925925925926
 40
0.6296296296296295
 40
0.6296296296296295
 40
0.6296296296296295
 40
0.6296296296296295
 40
0.6666666666666665
 40
0.6666666666666665
 40
0.6666666666666665
 40
0.6666666666666665
 40
0.7037037037037035
 40
0.7037037037037035
 40
0.7037037037037035
 40
0.7037037037037035
 40
0.7407407407407405
 40
0.7407407407407405
 40
0.7407407407407405
 40
0.7407407407407405
 40
0.7777777777777775
 40
0.7777777777777775
 40
0.7777777777777775
 40
0.7777777777777775
 40
0.8148148148148144
 40
0.8148148148148144
 40
0.8148148148148144
 40
0.8148148148148144
 40
0.8518518518518514
 40
0.8518518518518514
 40
0.8518518518518514
 40
0.8518518518518514
 40
0.8888888888888884
 40
0.8888888888888884
 40
0.8888888888888884
 40
0.8888888888888884
 40
0.9259259259259254
 40
0.9259259259259254
 40
0.9259259259259254
 40
0.9259259259259254
 40
0.9629629629629624
 40
0.9629629629629624
 40
0.9629629629629624
 40
0.9629629629629624
 40
1.0
 40
1.0
 40
1.0
 40
1.0
 10
-10.7347
 20
-15.3345
 30
0.0
 10
-10.7336
 20
-15.33215
 30
0.0
 10
-10.73218
 20
-15.33041
 30
0.0
 10
-10.73046
 20
-15.3293
 30
0.0
 10
-10.73046
 20
-15.3293
 30
0.0
 10
-10.72876
 20
-15.32818
 30
0.0
 10
-10.7267
 20
-15.32761
 30
0.0
 10
-10.7243
 20
-15.32761
 30
0.0
 10
-10.7243
 20
-15.32761
 30
0.0
 10
-10.7199
 20
-15.32761
 30
0.0
 10
-10.71679
 20
-15.32931
 30
0.0
 10
-10.71499
 20
-15.33271
 30
0.0
 10
-10.71499
 20
-15.33271
 30
0.0
 10
-10.71318
 20
-15.33612
 30
0.0
 10
-10.71228
 20
-15.34252
 30
0.0
 10
-10.71228
 20
-15.35193
 30
0.0
 10
-10.71228
 20
-15.35193
 30
0.0
 10
-10.71228
 20
-15.35193
 30
0.0
 10
-10.71228
 20
-15.38362
 30
0.0
 10
-10.71228
 20
-15.38362
 30
0.0
 10
-10.71228
 20
-15.38362
 30
0.0
 10
-10.71228
 20
-15.38362
 30
0.0
 10
-10.72048
 20
-15.38362
 30
0.0
 10
-10.72048
 20
-15.38362
 30
0.0
 10
-10.72048
 20
-15.38362
 30
0.0
 10
-10.72048
 20
-15.38362
 30
0.0
 10
-10.72048
 20
-15.35232
 30
0.0
 10
-10.72048
 20
-15.35232
 30
0.0
 10
-10.72048
 20
-15.35232
 30
0.0
 10
-10.72048
 20
-15.3446
 30
0.0
 10
-10.72091
 20
-15.33982
 30
0.0
 10
-10.72178
 20
-15.33793
 30
0.0
 10
-10.72178
 20
-15.33793
 30
0.0
 10
-10.72263
 20
-15.33607
 30
0.0
 10
-10.72421
 20
-15.33513
 30
0.0
 10
-10.7265
 20
-15.33513
 30
0.0
 10
-10.7265
 20
-15.33513
 30
0.0
 10
-10.7291
 20
-15.33513
 30
0.0
 10
-10.73088
 20
-15.33613
 30
0.0
 10
-10.73185
 20
-15.33813
 30
0.0
 10
-10.73185
 20
-15.33813
 30
0.0
 10
-10.7328
 20
-15.34013
 30
0.0
 10
-10.73328
 20
-15.34487
 30
0.0
 10
-10.73328
 20
-15.35232
 30
0.0
 10
-10.73328
 20
-15.35232
 30
0.0
 10
-10.73328
 20
-15.35232
 30
0.0
 10
-10.73328
 20
-15.38362
 30
0.0
 10
-10.73328
 20
-15.38362
 30
0.0
 10
-10.73328
 20
-15.38362
 30
0.0
 10
-10.73328
 20
-15.38362
 30
0.0
 10
-10.74148
 20
-15.38362
 30
0.0
 10
-10.74148
 20
-15.38362
 30
0.0
 10
-10.74148
 20
-15.38362
 30
0.0
 10
-10.74148
 20
-15.38362
 30
0.0
 10
-10.74148
 20
-15.35232
 30
0.0
 10
-10.74148
 20
-15.35232
 30
0.0
 10
-10.74148
 20
-15.35232
 30
0.0
 10
-10.74148
 20
-15.3445
 30
0.0
 10
-10.74195
 20
-15.33968
 30
0.0
 10
-10.74288
 20
-15.33787
 30
0.0
 10
-10.74288
 20
-15.33787
 30
0.0
 10
-10.7438
 20
-15.33605
 30
0.0
 10
-10.74546
 20
-15.33513
 30
0.0
 10
-10.74788
 20
-15.33513
 30
0.0
 10
-10.74788
 20
-15.33513
 30
0.0
 10
-10.75026
 20
-15.33513
 30
0.0
 10
-10.75192
 20
-15.33613
 30
0.0
 10
-10.75283
 20
-15.33813
 30
0.0
 10
-10.75283
 20
-15.33813
 30
0.0
 10
-10.75377
 20
-15.34013
 30
0.0
 10
-10.75423
 20
-15.34487
 30
0.0
 10
-10.75423
 20
-15.35232
 30
0.0
 10
-10.75423
 20
-15.35232
 30
0.0
 10
-10.75423
 20
-15.35232
 30
0.0
 10
-10.75423
 20
-15.38362
 30
0.0
 10
-10.75423
 20
-15.38362
 30
0.0
 10
-10.75423
 20
-15.38362
 30
0.0
 10
-10.75423
 20
-15.38362
 30
0.0
 10
-10.76238
 20
-15.38362
 30
0.0
 10
-10.76238
 20
-15.38362
 30
0.0
 10
-10.76238
 20
-15.38362
 30
0.0
 10
-10.76238
 20
-15.38362
 30
0.0
 10
-10.76238
 20
-15.32893
 30
0.0
 10
-10.76238
 20
-15.32893
 30
0.0
 10
-10.76238
 20
-15.32893
 30
0.0
 10
-10.76238
 20
-15.32893
 30
0.0
 10
-10.75423
 20
-15.32893
 30
0.0
 10
-10.75423
 20
-15.32893
 30
0.0
 10
-10.75423
 20
-15.32893
 30
0.0
 10
-10.75423
 20
-15.32893
 30
0.0
 10
-10.75423
 20
-15.33361
 30
0.0
 10
-10.75423
 20
-15.33361
 30
0.0
 10
-10.75423
 20
-15.33361
 30
0.0
 10
-10.75317
 20
-15.33166
 30
0.0
 10
-10.75182
 20
-15.33018
 30
0.0
 10
-10.7502
 20
-15.32915
 30
0.0
 10
-10.7502
 20
-15.32915
 30
0.0
 10
-10.7486
 20
-15.32813
 30
0.0
 10
-10.74676
 20
-15.32761
 30
0.0
 10
-10.74471
 20
-15.32761
 30
0.0
 10
-10.74471
 20
-15.32761
 30
0.0
 10
-10.74223
 20
-15.32761
 30
0.0
 10
-10.74018
 20
-15.32818
 30
0.0
 10
-10.73853
 20
-15.32931
 30
0.0
 10
-10.73853
 20
-15.32931
 30
0.0
 10
-10.73688
 20
-15.33046
 30
0.0
 10
-10.73561
 20
-15.33218
 30
0.0
 10
-10.7347
 20
-15.3345
 30
0.0
  0
SPLINE
  5
94
330
1F
100
AcDbEntity
  8
Layer 1
 62
   250
100
AcDbSpline
210
0.0
220
0.0
230
1.0
 70
    11
 71
     3
 72
    20
 73
    16
 74
     0
 42
0.0000000001
 43
0.0000000001
 40
0.0
 40
0.0
 40
0.0
 40
0.0
 40
0.25
 40
0.25
 40
0.25
 40
0.25
 40
0.5
 40
0.5
 40
0.5
 40
0.5
 40
0.75
 40
0.75
 40
0.75
 40
0.75
 40
1.0
 40
1.0
 40
1.0
 40
1.0
 10
-10.6836
 20
-15.36872
 30
0.0
 10
-10.6836
 20
-15.36872
 30
0.0
 10
-10.6713
 20
-15.36872
 30
0.0
 10
-10.6713
 20
-15.36872
 30
0.0
 10
-10.6713
 20
-15.36872
 30
0.0
 10
-10.6713
 20
-15.36872
 30
0.0
 10
-10.6713
 20
-15.38362
 30
0.0
 10
-10.6713
 20
-15.38362
 30
0.0
 10
-10.6713
 20
-15.38362
 30
0.0
 10
-10.6713
 20
-15.38362
 30
0.0
 10
-10.6836
 20
-15.38362
 30
0.0
 10
-10.6836
 20
-15.38362
 30
0.0
 10
-10.6836
 20
-15.38362
 30
0.0
 10
-10.6836
 20
-15.38362
 30
0.0
 10
-10.6836
 20
-15.36872
 30
0.0
 10
-10.6836
 20
-15.36872
 30
0.0
  0
SPLINE
  5
95
330
1F
100
AcDbEntity
  8
Layer 1
 62
   250
100
AcDbSpline
210
0.0
220
0.0
230
1.0
 70
    11
 71
     3
 72
    52
 73
    48
 74
     0
 42
0.0000000001
 43
0.0000000001
 40
0.0
 40
0.0
 40
0.0
 40
0.0
 40
0.0833333333333333
 40
0.0833333333333333
 40
0.0833333333333333
 40
0.0833333333333333
 40
0.1666666666666667
 40
0.1666666666666667
 40
0.1666666666666667
 40
0.1666666666666667
 40
0.25
 40
0.25
 40
0.25
 40
0.25
 40
0.3333333333333333
 40
0.3333333333333333
 40
0.3333333333333333
 40
0.3333333333333333
 40
0.4166666666666666
 40
0.4166666666666666
 40
0.4166666666666666
 40
0.4166666666666666
 40
0.4999999999999999
 40
0.4999999999999999
 40
0.4999999999999999
 40
0.4999999999999999
 40
0.5833333333333333
 40
0.5833333333333333
 40
0.5833333333333333
 40
0.5833333333333333
 40
0.6666666666666666
 40
0.6666666666666666
 40
0.6666666666666666
 40
0.6666666666666666
 40
0.75
 40
0.75
 40
0.75
 40
0.75
 40
0.8333333333333334
 40
0.8333333333333334
 40
0.8333333333333334
 40
0.8333333333333334
 40
0.9166666666666667
 40
0.9166666666666667
 40
0.9166666666666667
 40
0.9166666666666667
 40
1.0
 40
1.0
 40
1.0
 40
1.0
 10
-10.61608
 20
-15.3638
 30
0.0
 10
-10.61608
 20
-15.36784
 30
0.0
 10
-10.61534
 20
-15.37087
 30
0.0
 10
-10.61386
 20
-15.37292
 30
0.0
 10
-10.61386
 20
-15.37292
 30
0.0
 10
-10.61238
 20
-15.37497
 30
0.0
 10
-10.61019
 20
-15.376
 30
0.0
 10
-10.60729
 20
-15.376
 30
0.0
 10
-10.60729
 20
-15.376
 30
0.0
 10
-10.60729
 20
-15.376
 30
0.0
 10
-10.59679
 20
-15.376
 30
0.0
 10
-10.59679
 20
-15.376
 30
0.0
 10
-10.59679
 20
-15.376
 30
0.0
 10
-10.59679
 20
-15.376
 30
0.0
 10
-10.59679
 20
-15.38362
 30
0.0
 10
-10.59679
 20
-15.38362
 30
0.0
 10
-10.59679
 20
-15.38362
 30
0.0
 10
-10.59679
 20
-15.38362
 30
0.0
 10
-10.60816
 20
-15.38362
 30
0.0
 10
-10.60816
 20
-15.38362
 30
0.0
 10
-10.60816
 20
-15.38362
 30
0.0
 10
-10.61354
 20
-15.38362
 30
0.0
 10
-10.61769
 20
-15.38189
 30
0.0
 10
-10.62064
 20
-15.37844
 30
0.0
 10
-10.62064
 20
-15.37844
 30
0.0
 10
-10.62359
 20
-15.37499
 30
0.0
 10
-10.62506
 20
-15.3701
 30
0.0
 10
-10.62506
 20
-15.3638
 30
0.0
 10
-10.62506
 20
-15.3638
 30
0.0
 10
-10.62506
 20
-15.3638
 30
0.0
 10
-10.62506
 20
-15.31413
 30
0.0
 10
-10.62506
 20
-15.31413
 30
0.0
 10
-10.62506
 20
-15.31413
 30
0.0
 10
-10.62506
 20
-15.31413
 30
0.0
 10
-10.63946
 20
-15.31413
 30
0.0
 10
-10.63946
 20
-15.31413
 30
0.0
 10
-10.63946
 20
-15.31413
 30
0.0
 10
-10.63946
 20
-15.31413
 30
0.0
 10
-10.63946
 20
-15.3071
 30
0.0
 10
-10.63946
 20
-15.3071
 30
0.0
 10
-10.63946
 20
-15.3071
 30
0.0
 10
-10.63946
 20
-15.3071
 30
0.0
 10
-10.61608
 20
-15.3071
 30
0.0
 10
-10.61608
 20
-15.3071
 30
0.0
 10
-10.61608
 20
-15.3071
 30
0.0
 10
-10.61608
 20
-15.3071
 30
0.0
 10
-10.61608
 20
-15.3638
 30
0.0
 10
-10.61608
 20
-15.3638
 30
0.0
  0
SPLINE
  5
96
330
1F
100
AcDbEntity
  8
Layer 1
 62
   250
100
AcDbSpline
210
0.0
220
0.0
230
1.0
 70
    11
 71
     3
 72
    76
 73
    72
 74
     0
 42
0.0000000001
 43
0.0000000001
 40
0.0
 40
0.0
 40
0.0
 40
0.0
 40
0.0555555555555556
 40
0.0555555555555556
 40
0.0555555555555556
 40
0.0555555555555556
 40
0.1111111111111111
 40
0.1111111111111111
 40
0.1111111111111111
 40
0.1111111111111111
 40
0.1666666666666667
 40
0.1666666666666667
 40
0.1666666666666667
 40
0.1666666666666667
 40
0.2222222222222222
 40
0.2222222222222222
 40
0.2222222222222222
 40
0.2222222222222222
 40
0.2777777777777778
 40
0.2777777777777778
 40
0.2777777777777778
 40
0.2777777777777778
 40
0.3333333333333334
 40
0.3333333333333334
 40
0.3333333333333334
 40
0.3333333333333334
 40
0.388888888888889
 40
0.388888888888889
 40
0.388888888888889
 40
0.388888888888889
 40
0.4444444444444445
 40
0.4444444444444445
 40
0.4444444444444445
 40
0.4444444444444445
 40
0.5000000000000001
 40
0.5000000000000001
 40
0.5000000000000001
 40
0.5000000000000001
 40
0.5555555555555557
 40
0.5555555555555557
 40
0.5555555555555557
 40
0.5555555555555557
 40
0.6111111111111113
 40
0.6111111111111113
 40
0.6111111111111113
 40
0.6111111111111113
 40
0.6666666666666669
 40
0.6666666666666669
 40
0.6666666666666669
 40
0.6666666666666669
 40
0.7222222222222224
 40
0.7222222222222224
 40
0.7222222222222224
 40
0.7222222222222224
 40
0.777777777777778
 40
0.777777777777778
 40
0.777777777777778
 40
0.777777777777778
 40
0.8333333333333336
 40
0.8333333333333336
 40
0.8333333333333336
 40
0.8333333333333336
 40
0.8888888888888892
 40
0.8888888888888892
 40
0.8888888888888892
 40
0.8888888888888892
 40
0.9444444444444448
 40
0.9444444444444448
 40
0.9444444444444448
 40
0.9444444444444448
 40
1.0
 40
1.0
 40
1.0
 40
1.0
 10
-10.55708
 20
-15.3134
 30
0.0
 10
-10.55708
 20
-15.3134
 30
0.0
 10
-10.55708
 20
-15.32893
 30
0.0
 10
-10.55708
 20
-15.32893
 30
0.0
 10
-10.55708
 20
-15.32893
 30
0.0
 10
-10.55708
 20
-15.32893
 30
0.0
 10
-10.53666
 20
-15.32893
 30
0.0
 10
-10.53666
 20
-15.32893
 30
0.0
 10
-10.53666
 20
-15.32893
 30
0.0
 10
-10.53666
 20
-15.32893
 30
0.0
 10
-10.53666
 20
-15.33592
 30
0.0
 10
-10.53666
 20
-15.33592
 30
0.0
 10
-10.53666
 20
-15.33592
 30
0.0
 10
-10.53666
 20
-15.33592
 30
0.0
 10
-10.55708
 20
-15.33592
 30
0.0
 10
-10.55708
 20
-15.33592
 30
0.0
 10
-10.55708
 20
-15.33592
 30
0.0
 10
-10.55708
 20
-15.33592
 30
0.0
 10
-10.55708
 20
-15.3656
 30
0.0
 10
-10.55708
 20
-15.3656
 30
0.0
 10
-10.55708
 20
-15.3656
 30
0.0
 10
-10.55708
 20
-15.36964
 30
0.0
 10
-10.55632
 20
-15.37245
 30
0.0
 10
-10.55478
 20
-15.37404
 30
0.0
 10
-10.55478
 20
-15.37404
 30
0.0
 10
-10.55325
 20
-15.37564
 30
0.0
 10
-10.55058
 20
-15.37644
 30
0.0
 10
-10.54678
 20
-15.37644
 30
0.0
 10
-10.54678
 20
-15.37644
 30
0.0
 10
-10.54678
 20
-15.37644
 30
0.0
 10
-10.53666
 20
-15.37644
 30
0.0
 10
-10.53666
 20
-15.37644
 30
0.0
 10
-10.53666
 20
-15.37644
 30
0.0
 10
-10.53666
 20
-15.37644
 30
0.0
 10
-10.53666
 20
-15.38362
 30
0.0
 10
-10.53666
 20
-15.38362
 30
0.0
 10
-10.53666
 20
-15.38362
 30
0.0
 10
-10.53666
 20
-15.38362
 30
0.0
 10
-10.54765
 20
-15.38362
 30
0.0
 10
-10.54765
 20
-15.38362
 30
0.0
 10
-10.54765
 20
-15.38362
 30
0.0
 10
-10.5544
 20
-15.38362
 30
0.0
 10
-10.55915
 20
-15.38227
 30
0.0
 10
-10.56192
 20
-15.37957
 30
0.0
 10
-10.56192
 20
-15.37957
 30
0.0
 10
-10.56468
 20
-15.37687
 30
0.0
 10
-10.56607
 20
-15.3722
 30
0.0
 10
-10.56607
 20
-15.3656
 30
0.0
 10
-10.56607
 20
-15.3656
 30
0.0
 10
-10.56607
 20
-15.3656
 30
0.0
 10
-10.56607
 20
-15.33592
 30
0.0
 10
-10.56607
 20
-15.33592
 30
0.0
 10
-10.56607
 20
-15.33592
 30
0.0
 10
-10.56607
 20
-15.33592
 30
0.0
 10
-10.58067
 20
-15.33592
 30
0.0
 10
-10.58067
 20
-15.33592
 30
0.0
 10
-10.58067
 20
-15.33592
 30
0.0
 10
-10.58067
 20
-15.33592
 30
0.0
 10
-10.58067
 20
-15.32893
 30
0.0
 10
-10.58067
 20
-15.32893
 30
0.0
 10
-10.58067
 20
-15.32893
 30
0.0
 10
-10.58067
 20
-15.32893
 30
0.0
 10
-10.56607
 20
-15.32893
 30
0.0
 10
-10.56607
 20
-15.32893
 30
0.0
 10
-10.56607
 20
-15.32893
 30
0.0
 10
-10.56607
 20
-15.32893
 30
0.0
 10
-10.56607
 20
-15.3134
 30
0.0
 10
-10.56607
 20
-15.3134
 30
0.0
 10
-10.56607
 20
-15.3134
 30
0.0
 10
-10.56607
 20
-15.3134
 30
0.0
 10
-10.55708
 20
-15.3134
 30
0.0
 10
-10.55708
 20
-15.3134
 30
0.0
  0
SPLINE
  5
97
330
1F
100
AcDbEntity
  8
Layer 1
 62
   250
100
AcDbSpline
210
0.0
220
0.0
230
1.0
 70
    11
 71
     3
 72
    20
 73
    16
 74
     0
 42
0.0000000001
 43
0.0000000001
 40
0.0
 40
0.0
 40
0.0
 40
0.0
 40
0.25
 40
0.25
 40
0.25
 40
0.25
 40
0.5
 40
0.5
 40
0.5
 40
0.5
 40
0.75
 40
0.75
 40
0.75
 40
0.75
 40
1.0
 40
1.0
 40
1.0
 40
1.0
 10
-10.48344
 20
-15.31071
 30
0.0
 10
-10.48344
 20
-15.31071
 30
0.0
 10
-10.47415
 20
-15.31071
 30
0.0
 10
-10.47415
 20
-15.31071
 30
0.0
 10
-10.47415
 20
-15.31071
 30
0.0
 10
-10.47415
 20
-15.31071
 30
0.0
 10
-10.51254
 20
-15.3929
 30
0.0
 10
-10.51254
 20
-15.3929
 30
0.0
 10
-10.51254
 20
-15.3929
 30
0.0
 10
-10.51254
 20
-15.3929
 30
0.0
 10
-10.52188
 20
-15.3929
 30
0.0
 10
-10.52188
 20
-15.3929
 30
0.0
 10
-10.52188
 20
-15.3929
 30
0.0
 10
-10.52188
 20
-15.3929
 30
0.0
 10
-10.48344
 20
-15.31071
 30
0.0
 10
-10.48344
 20
-15.31071
 30
0.0
  0
SPLINE
  5
98
330
1F
100
AcDbEntity
  8
Layer 1
 62
   250
100
AcDbSpline
210
0.0
220
0.0
230
1.0
 70
    11
 71
     3
 72
    76
 73
    72
 74
     0
 42
0.0000000001
 43
0.0000000001
 40
0.0
 40
0.0
 40
0.0
 40
0.0
 40
0.0555555555555556
 40
0.0555555555555556
 40
0.0555555555555556
 40
0.0555555555555556
 40
0.1111111111111111
 40
0.1111111111111111
 40
0.1111111111111111
 40
0.1111111111111111
 40
0.1666666666666667
 40
0.1666666666666667
 40
0.1666666666666667
 40
0.1666666666666667
 40
0.2222222222222222
 40
0.2222222222222222
 40
0.2222222222222222
 40
0.2222222222222222
 40
0.2777777777777778
 40
0.2777777777777778
 40
0.2777777777777778
 40
0.2777777777777778
 40
0.3333333333333334
 40
0.3333333333333334
 40
0.3333333333333334
 40
0.3333333333333334
 40
0.388888888888889
 40
0.388888888888889
 40
0.388888888888889
 40
0.388888888888889
 40
0.4444444444444445
 40
0.4444444444444445
 40
0.4444444444444445
 40
0.4444444444444445
 40
0.5000000000000001
 40
0.5000000000000001
 40
0.5000000000000001
 40
0.5000000000000001
 40
0.5555555555555557
 40
0.5555555555555557
 40
0.5555555555555557
 40
0.5555555555555557
 40
0.6111111111111113
 40
0.6111111111111113
 40
0.6111111111111113
 40
0.6111111111111113
 40
0.6666666666666669
 40
0.6666666666666669
 40
0.6666666666666669
 40
0.6666666666666669
 40
0.7222222222222224
 40
0.7222222222222224
 40
0.7222222222222224
 40
0.7222222222222224
 40
0.777777777777778
 40
0.777777777777778
 40
0.777777777777778
 40
0.777777777777778
 40
0.8333333333333336
 40
0.8333333333333336
 40
0.8333333333333336
 40
0.8333333333333336
 40
0.8888888888888892
 40
0.8888888888888892
 40
0.8888888888888892
 40
0.8888888888888892
 40
0.9444444444444448
 40
0.9444444444444448
 40
0.9444444444444448
 40
0.9444444444444448
 40
1.0
 40
1.0
 40
1.0
 40
1.0
 10
-10.41386
 20
-15.38152
 30
0.0
 10
-10.41614
 20
-15.38269
 30
0.0
 10
-10.41853
 20
-15.38357
 30
0.0
 10
-10.42105
 20
-15.38415
 30
0.0
 10
-10.42105
 20
-15.38415
 30
0.0
 10
-10.42355
 20
-15.38474
 30
0.0
 10
-10.42618
 20
-15.38504
 30
0.0
 10
-10.42895
 20
-15.38504
 30
0.0
 10
-10.42895
 20
-15.38504
 30
0.0
 10
-10.43878
 20
-15.38504
 30
0.0
 10
-10.4463
 20
-15.3818
 30
0.0
 10
-10.45147
 20
-15.37532
 30
0.0
 10
-10.45147
 20
-15.37532
 30
0.0
 10
-10.45665
 20
-15.36884
 30
0.0
 10
-10.45923
 20
-15.35948
 30
0.0
 10
-10.45923
 20
-15.34723
 30
0.0
 10
-10.45923
 20
-15.34723
 30
0.0
 10
-10.45923
 20
-15.33497
 30
0.0
 10
-10.45665
 20
-15.3256
 30
0.0
 10
-10.45147
 20
-15.31911
 30
0.0
 10
-10.45147
 20
-15.31911
 30
0.0
 10
-10.4463
 20
-15.31263
 30
0.0
 10
-10.43878
 20
-15.3094
 30
0.0
 10
-10.42895
 20
-15.3094
 30
0.0
 10
-10.42895
 20
-15.3094
 30
0.0
 10
-10.42618
 20
-15.3094
 30
0.0
 10
-10.42353
 20
-15.3097
 30
0.0
 10
-10.421
 20
-15.31028
 30
0.0
 10
-10.421
 20
-15.31028
 30
0.0
 10
-10.41845
 20
-15.31086
 30
0.0
 10
-10.41608
 20
-15.31175
 30
0.0
 10
-10.41386
 20
-15.31291
 30
0.0
 10
-10.41386
 20
-15.31291
 30
0.0
 10
-10.41386
 20
-15.31291
 30
0.0
 10
-10.41386
 20
-15.32893
 30
0.0
 10
-10.41386
 20
-15.32893
 30
0.0
 10
-10.41386
 20
-15.32893
 30
0.0
 10
-10.41633
 20
-15.32665
 30
0.0
 10
-10.41875
 20
-15.32498
 30
0.0
 10
-10.42106
 20
-15.32391
 30
0.0
 10
-10.42106
 20
-15.32391
 30
0.0
 10
-10.4234
 20
-15.32286
 30
0.0
 10
-10.4258
 20
-15.32233
 30
0.0
 10
-10.42828
 20
-15.32233
 30
0.0
 10
-10.42828
 20
-15.32233
 30
0.0
 10
-10.43355
 20
-15.32233
 30
0.0
 10
-10.43753
 20
-15.32443
 30
0.0
 10
-10.44021
 20
-15.32861
 30
0.0
 10
-10.44021
 20
-15.32861
 30
0.0
 10
-10.4429
 20
-15.3328
 30
0.0
 10
-10.44425
 20
-15.339
 30
0.0
 10
-10.44425
 20
-15.34723
 30
0.0
 10
-10.44425
 20
-15.34723
 30
0.0
 10
-10.44425
 20
-15.35545
 30
0.0
 10
-10.4429
 20
-15.36163
 30
0.0
 10
-10.44021
 20
-15.36582
 30
0.0
 10
-10.44021
 20
-15.36582
 30
0.0
 10
-10.43753
 20
-15.37
 30
0.0
 10
-10.43355
 20
-15.3721
 30
0.0
 10
-10.42828
 20
-15.3721
 30
0.0
 10
-10.42828
 20
-15.3721
 30
0.0
 10
-10.4258
 20
-15.3721
 30
0.0
 10
-10.4234
 20
-15.37157
 30
0.0
 10
-10.42106
 20
-15.37052
 30
0.0
 10
-10.42106
 20
-15.37052
 30
0.0
 10
-10.41875
 20
-15.36945
 30
0.0
 10
-10.41633
 20
-15.36779
 30
0.0
 10
-10.41386
 20
-15.3655
 30
0.0
 10
-10.41386
 20
-15.3655
 30
0.0
 10
-10.41386
 20
-15.3655
 30
0.0
 10
-10.41386
 20
-15.38152
 30
0.0
 10
-10.41386
 20
-15.38152
 30
0.0
  0
SPLINE
  5
99
330
1F
100
AcDbEntity
  8
Layer 1
 62
   250
100
AcDbSpline
210
0.0
220
0.0
230
1.0
 70
    11
 71
     3
 72
    52
 73
    48
 74
     0
 42
0.0000000001
 43
0.0000000001
 40
0.0
 40
0.0
 40
0.0
 40
0.0
 40
0.0833333333333333
 40
0.0833333333333333
 40
0.0833333333333333
 40
0.0833333333333333
 40
0.1666666666666667
 40
0.1666666666666667
 40
0.1666666666666667
 40
0.1666666666666667
 40
0.25
 40
0.25
 40
0.25
 40
0.25
 40
0.3333333333333333
 40
0.3333333333333333
 40
0.3333333333333333
 40
0.3333333333333333
 40
0.4166666666666666
 40
0.4166666666666666
 40
0.4166666666666666
 40
0.4166666666666666
 40
0.4999999999999999
 40
0.4999999999999999
 40
0.4999999999999999
 40
0.4999999999999999
 40
0.5833333333333333
 40
0.5833333333333333
 40
0.5833333333333333
 40
0.5833333333333333
 40
0.6666666666666666
 40
0.6666666666666666
 40
0.6666666666666666
 40
0.6666666666666666
 40
0.75
 40
0.75
 40
0.75
 40
0.75
 40
0.8333333333333334
 40
0.8333333333333334
 40
0.8333333333333334
 40
0.8333333333333334
 40
0.9166666666666667
 40
0.9166666666666667
 40
0.9166666666666667
 40
0.9166666666666667
 40
1.0
 40
1.0
 40
1.0
 40
1.0
 10
-10.35282
 20
-15.38362
 30
0.0
 10
-10.35282
 20
-15.38362
 30
0.0
 10
-10.39824
 20
-15.38362
 30
0.0
 10
-10.39824
 20
-15.38362
 30
0.0
 10
-10.39824
 20
-15.38362
 30
0.0
 10
-10.39824
 20
-15.38362
 30
0.0
 10
-10.39824
 20
-15.31071
 30
0.0
 10
-10.39824
 20
-15.31071
 30
0.0
 10
-10.39824
 20
-15.31071
 30
0.0
 10
-10.39824
 20
-15.31071
 30
0.0
 10
-10.35282
 20
-15.31071
 30
0.0
 10
-10.35282
 20
-15.31071
 30
0.0
 10
-10.35282
 20
-15.31071
 30
0.0
 10
-10.35282
 20
-15.31071
 30
0.0
 10
-10.35282
 20
-15.32341
 30
0.0
 10
-10.35282
 20
-15.32341
 30
0.0
 10
-10.35282
 20
-15.32341
 30
0.0
 10
-10.35282
 20
-15.32341
 30
0.0
 10
-10.38384
 20
-15.32341
 30
0.0
 10
-10.38384
 20
-15.32341
 30
0.0
 10
-10.38384
 20
-15.32341
 30
0.0
 10
-10.38384
 20
-15.32341
 30
0.0
 10
-10.38384
 20
-15.33913
 30
0.0
 10
-10.38384
 20
-15.33913
 30
0.0
 10
-10.38384
 20
-15.33913
 30
0.0
 10
-10.38384
 20
-15.33913
 30
0.0
 10
-10.35575
 20
-15.33913
 30
0.0
 10
-10.35575
 20
-15.33913
 30
0.0
 10
-10.35575
 20
-15.33913
 30
0.0
 10
-10.35575
 20
-15.33913
 30
0.0
 10
-10.35575
 20
-15.35183
 30
0.0
 10
-10.35575
 20
-15.35183
 30
0.0
 10
-10.35575
 20
-15.35183
 30
0.0
 10
-10.35575
 20
-15.35183
 30
0.0
 10
-10.38384
 20
-15.35183
 30
0.0
 10
-10.38384
 20
-15.35183
 30
0.0
 10
-10.38384
 20
-15.35183
 30
0.0
 10
-10.38384
 20
-15.35183
 30
0.0
 10
-10.38384
 20
-15.37092
 30
0.0
 10
-10.38384
 20
-15.37092
 30
0.0
 10
-10.38384
 20
-15.37092
 30
0.0
 10
-10.38384
 20
-15.37092
 30
0.0
 10
-10.35282
 20
-15.37092
 30
0.0
 10
-10.35282
 20
-15.37092
 30
0.0
 10
-10.35282
 20
-15.37092
 30
0.0
 10
-10.35282
 20
-15.37092
 30
0.0
 10
-10.35282
 20
-15.38362
 30
0.0
 10
-10.35282
 20
-15.38362
 30
0.0
  0
SPLINE
  5
9A
330
1F
100
AcDbEntity
  8
Layer 1
 62
   250
100
AcDbSpline
210
0.0
220
0.0
230
1.0
 70
    11
 71
     3
 72
    60
 73
    56
 74
     0
 42
0.0000000001
 43
0.0000000001
 40
0.0
 40
0.0
 40
0.0
 40
0.0
 40
0.0714285714285714
 40
0.0714285714285714
 40
0.0714285714285714
 40
0.0714285714285714
 40
0.1428571428571428
 40
0.1428571428571428
 40
0.1428571428571428
 40
0.1428571428571428
 40
0.2142857142857143
 40
0.2142857142857143
 40
0.2142857142857143
 40
0.2142857142857143
 40
0.2857142857142857
 40
0.2857142857142857
 40
0.2857142857142857
 40
0.2857142857142857
 40
0.3571428571428571
 40
0.3571428571428571
 40
0.3571428571428571
 40
0.3571428571428571
 40
0.4285714285714285
 40
0.4285714285714285
 40
0.4285714285714285
 40
0.4285714285714285
 40
0.4999999999999999
 40
0.4999999999999999
 40
0.4999999999999999
 40
0.4999999999999999
 40
0.5714285714285713
 40
0.5714285714285713
 40
0.5714285714285713
 40
0.5714285714285713
 40
0.6428571428571427
 40
0.6428571428571427
 40
0.6428571428571427
 40
0.6428571428571427
 40
0.7142857142857141
 40
0.7142857142857141
 40
0.7142857142857141
 40
0.7142857142857141
 40
0.7857142857142855
 40
0.7857142857142855
 40
0.7857142857142855
 40
0.7857142857142855
 40
0.8571428571428569
 40
0.8571428571428569
 40
0.8571428571428569
 40
0.8571428571428569
 40
0.9285714285714283
 40
0.9285714285714283
 40
0.9285714285714283
 40
0.9285714285714283
 40
1.0
 40
1.0
 40
1.0
 40
1.0
 10
-10.34105
 20
-15.35672
 30
0.0
 10
-10.34105
 20
-15.35672
 30
0.0
 10
-10.34105
 20
-15.31071
 30
0.0
 10
-10.34105
 20
-15.31071
 30
0.0
 10
-10.34105
 20
-15.31071
 30
0.0
 10
-10.34105
 20
-15.31071
 30
0.0
 10
-10.32664
 20
-15.31071
 30
0.0
 10
-10.32664
 20
-15.31071
 30
0.0
 10
-10.32664
 20
-15.31071
 30
0.0
 10
-10.32664
 20
-15.31071
 30
0.0
 10
-10.32664
 20
-15.36033
 30
0.0
 10
-10.32664
 20
-15.36033
 30
0.0
 10
-10.32664
 20
-15.36033
 30
0.0
 10
-10.32664
 20
-15.36398
 30
0.0
 10
-10.32571
 20
-15.36683
 30
0.0
 10
-10.32386
 20
-15.3689
 30
0.0
 10
-10.32386
 20
-15.3689
 30
0.0
 10
-10.32201
 20
-15.37097
 30
0.0
 10
-10.31943
 20
-15.372
 30
0.0
 10
-10.31614
 20
-15.372
 30
0.0
 10
-10.31614
 20
-15.372
 30
0.0
 10
-10.31286
 20
-15.372
 30
0.0
 10
-10.31028
 20
-15.37097
 30
0.0
 10
-10.30843
 20
-15.3689
 30
0.0
 10
-10.30843
 20
-15.3689
 30
0.0
 10
-10.30658
 20
-15.36683
 30
0.0
 10
-10.30564
 20
-15.36398
 30
0.0
 10
-10.30564
 20
-15.36033
 30
0.0
 10
-10.30564
 20
-15.36033
 30
0.0
 10
-10.30564
 20
-15.36033
 30
0.0
 10
-10.30564
 20
-15.31071
 30
0.0
 10
-10.30564
 20
-15.31071
 30
0.0
 10
-10.30564
 20
-15.31071
 30
0.0
 10
-10.30564
 20
-15.31071
 30
0.0
 10
-10.29124
 20
-15.31071
 30
0.0
 10
-10.29124
 20
-15.31071
 30
0.0
 10
-10.29124
 20
-15.31071
 30
0.0
 10
-10.29124
 20
-15.31071
 30
0.0
 10
-10.29124
 20
-15.35672
 30
0.0
 10
-10.29124
 20
-15.35672
 30
0.0
 10
-10.29124
 20
-15.35672
 30
0.0
 10
-10.29124
 20
-15.36662
 30
0.0
 10
-10.29321
 20
-15.3738
 30
0.0
 10
-10.29714
 20
-15.3783
 30
0.0
 10
-10.29714
 20
-15.3783
 30
0.0
 10
-10.30109
 20
-15.38279
 30
0.0
 10
-10.30743
 20
-15.38504
 30
0.0
 10
-10.31614
 20
-15.38504
 30
0.0
 10
-10.31614
 20
-15.38504
 30
0.0
 10
-10.32483
 20
-15.38504
 30
0.0
 10
-10.33116
 20
-15.38279
 30
0.0
 10
-10.33511
 20
-15.3783
 30
0.0
 10
-10.33511
 20
-15.3783
 30
0.0
 10
-10.33906
 20
-15.3738
 30
0.0
 10
-10.34105
 20
-15.36662
 30
0.0
 10
-10.34105
 20
-15.35672
 30
0.0
  0
SPLINE
  5
9B
330
1F
100
AcDbEntity
  8
Layer 1
 62
   250
100
AcDbSpline
210
0.0
220
0.0
230
1.0
 70
    11
 71
     3
 72
    36
 73
    32
 74
     0
 42
0.0000000001
 43
0.0000000001
 40
0.0
 40
0.0
 40
0.0
 40
0.0
 40
0.125
 40
0.125
 40
0.125
 40
0.125
 40
0.25
 40
0.25
 40
0.25
 40
0.25
 40
0.375
 40
0.375
 40
0.375
 40
0.375
 40
0.5
 40
0.5
 40
0.5
 40
0.5
 40
0.625
 40
0.625
 40
0.625
 40
0.625
 40
0.75
 40
0.75
 40
0.75
 40
0.75
 40
0.875
 40
0.875
 40
0.875
 40
0.875
 40
1.0
 40
1.0
 40
1.0
 40
1.0
 10
-10.262
 20
-15.34723
 30
0.0
 10
-10.262
 20
-15.34552
 30
0.0
 10
-10.26142
 20
-15.34407
 30
0.0
 10
-10.26023
 20
-15.3429
 30
0.0
 10
-10.26023
 20
-15.3429
 30
0.0
 10
-10.25907
 20
-15.34172
 30
0.0
 10
-10.25763
 20
-15.34113
 30
0.0
 10
-10.25593
 20
-15.34113
 30
0.0
 10
-10.25593
 20
-15.34113
 30
0.0
 10
-10.25422
 20
-15.34113
 30
0.0
 10
-10.25277
 20
-15.34172
 30
0.0
 10
-10.2516
 20
-15.3429
 30
0.0
 10
-10.2516
 20
-15.3429
 30
0.0
 10
-10.25042
 20
-15.34407
 30
0.0
 10
-10.24983
 20
-15.34552
 30
0.0
 10
-10.24983
 20
-15.34723
 30
0.0
 10
-10.24983
 20
-15.34723
 30
0.0
 10
-10.24983
 20
-15.34893
 30
0.0
 10
-10.25042
 20
-15.35037
 30
0.0
 10
-10.2516
 20
-15.35153
 30
0.0
 10
-10.2516
 20
-15.35153
 30
0.0
 10
-10.25277
 20
-15.35272
 30
0.0
 10
-10.25422
 20
-15.3533
 30
0.0
 10
-10.25593
 20
-15.3533
 30
0.0
 10
-10.25593
 20
-15.3533
 30
0.0
 10
-10.25763
 20
-15.3533
 30
0.0
 10
-10.25907
 20
-15.35272
 30
0.0
 10
-10.26023
 20
-15.35157
 30
0.0
 10
-10.26023
 20
-15.35157
 30
0.0
 10
-10.26142
 20
-15.35042
 30
0.0
 10
-10.262
 20
-15.34897
 30
0.0
 10
-10.262
 20
-15.34723
 30
0.0
  0
SPLINE
  5
9C
330
1F
100
AcDbEntity
  8
Layer 1
 62
   250
100
AcDbSpline
210
0.0
220
0.0
230
1.0
 70
    11
 71
     3
 72
    36
 73
    32
 74
     0
 42
0.0000000001
 43
0.0000000001
 40
0.0
 40
0.0
 40
0.0
 40
0.0
 40
0.125
 40
0.125
 40
0.125
 40
0.125
 40
0.25
 40
0.25
 40
0.25
 40
0.25
 40
0.375
 40
0.375
 40
0.375
 40
0.375
 40
0.5
 40
0.5
 40
0.5
 40
0.5
 40
0.625
 40
0.625
 40
0.625
 40
0.625
 40
0.75
 40
0.75
 40
0.75
 40
0.75
 40
0.875
 40
0.875
 40
0.875
 40
0.875
 40
1.0
 40
1.0
 40
1.0
 40
1.0
 10
-10.25593
 20
-15.3216
 30
0.0
 10
-10.25927
 20
-15.3216
 30
0.0
 10
-10.26168
 20
-15.32363
 30
0.0
 10
-10.26322
 20
-15.3277
 30
0.0
 10
-10.26322
 20
-15.3277
 30
0.0
 10
-10.26475
 20
-15.33178
 30
0.0
 10
-10.26552
 20
-15.33828
 30
0.0
 10
-10.26552
 20
-15.34723
 30
0.0
 10
-10.26552
 20
-15.34723
 30
0.0
 10
-10.26552
 20
-15.35617
 30
0.0
 10
-10.26475
 20
-15.36265
 30
0.0
 10
-10.26322
 20
-15.36673
 30
0.0
 10
-10.26322
 20
-15.36673
 30
0.0
 10
-10.26168
 20
-15.3708
 30
0.0
 10
-10.25927
 20
-15.37284
 30
0.0
 10
-10.25593
 20
-15.37284
 30
0.0
 10
-10.25593
 20
-15.37284
 30
0.0
 10
-10.25258
 20
-15.37284
 30
0.0
 10
-10.25015
 20
-15.3708
 30
0.0
 10
-10.24862
 20
-15.36673
 30
0.0
 10
-10.24862
 20
-15.36673
 30
0.0
 10
-10.24708
 20
-15.36265
 30
0.0
 10
-10.24632
 20
-15.35617
 30
0.0
 10
-10.24632
 20
-15.34723
 30
0.0
 10
-10.24632
 20
-15.34723
 30
0.0
 10
-10.24632
 20
-15.33828
 30
0.0
 10
-10.24708
 20
-15.33178
 30
0.0
 10
-10.24862
 20
-15.3277
 30
0.0
 10
-10.24862
 20
-15.3277
 30
0.0
 10
-10.25015
 20
-15.32363
 30
0.0
 10
-10.25258
 20
-15.3216
 30
0.0
 10
-10.25593
 20
-15.3216
 30
0.0
  0
SPLINE
  5
9D
330
1F
100
AcDbEntity
  8
Layer 1
 62
   250
100
AcDbSpline
210
0.0
220
0.0
230
1.0
 70
    11
 71
     3
 72
    36
 73
    32
 74
     0
 42
0.0000000001
 43
0.0000000001
 40
0.0
 40
0.0
 40
0.0
 40
0.0
 40
0.125
 40
0.125
 40
0.125
 40
0.125
 40
0.25
 40
0.25
 40
0.25
 40
0.25
 40
0.375
 40
0.375
 40
0.375
 40
0.375
 40
0.5
 40
0.5
 40
0.5
 40
0.5
 40
0.625
 40
0.625
 40
0.625
 40
0.625
 40
0.75
 40
0.75
 40
0.75
 40
0.75
 40
0.875
 40
0.875
 40
0.875
 40
0.875
 40
1.0
 40
1.0
 40
1.0
 40
1.0
 10
-10.28002
 20
-15.34723
 30
0.0
 10
-10.28002
 20
-15.33462
 30
0.0
 10
-10.27802
 20
-15.32515
 30
0.0
 10
-10.27402
 20
-15.31885
 30
0.0
 10
-10.27402
 20
-15.31885
 30
0.0
 10
-10.27
 20
-15.31255
 30
0.0
 10
-10.26398
 20
-15.3094
 30
0.0
 10
-10.25593
 20
-15.3094
 30
0.0
 10
-10.25593
 20
-15.3094
 30
0.0
 10
-10.24787
 20
-15.3094
 30
0.0
 10
-10.24183
 20
-15.31253
 30
0.0
 10
-10.23782
 20
-15.31881
 30
0.0
 10
-10.23782
 20
-15.31881
 30
0.0
 10
-10.23381
 20
-15.3251
 30
0.0
 10
-10.23181
 20
-15.33458
 30
0.0
 10
-10.23181
 20
-15.34723
 30
0.0
 10
-10.23181
 20
-15.34723
 30
0.0
 10
-10.23181
 20
-15.35987
 30
0.0
 10
-10.23381
 20
-15.36934
 30
0.0
 10
-10.23782
 20
-15.37562
 30
0.0
 10
-10.23782
 20
-15.37562
 30
0.0
 10
-10.24183
 20
-15.3819
 30
0.0
 10
-10.24787
 20
-15.38504
 30
0.0
 10
-10.25593
 20
-15.38504
 30
0.0
 10
-10.25593
 20
-15.38504
 30
0.0
 10
-10.26398
 20
-15.38504
 30
0.0
 10
-10.27
 20
-15.38189
 30
0.0
 10
-10.27402
 20
-15.37559
 30
0.0
 10
-10.27402
 20
-15.37559
 30
0.0
 10
-10.27802
 20
-15.36929
 30
0.0
 10
-10.28002
 20
-15.35983
 30
0.0
 10
-10.28002
 20
-15.34723
 30
0.0
  0
SPLINE
  5
9E
330
1F
100
AcDbEntity
  8
Layer 1
 62
   250
100
AcDbSpline
210
0.0
220
0.0
230
1.0
 70
    11
 71
     3
 72
    48
 73
    44
 74
     0
 42
0.0000000001
 43
0.0000000001
 40
0.0
 40
0.0
 40
0.0
 40
0.0
 40
0.0909090909090909
 40
0.0909090909090909
 40
0.0909090909090909
 40
0.0909090909090909
 40
0.1818181818181818
 40
0.1818181818181818
 40
0.1818181818181818
 40
0.1818181818181818
 40
0.2727272727272727
 40
0.2727272727272727
 40
0.2727272727272727
 40
0.2727272727272727
 40
0.3636363636363636
 40
0.3636363636363636
 40
0.3636363636363636
 40
0.3636363636363636
 40
0.4545454545454546
 40
0.4545454545454546
 40
0.4545454545454546
 40
0.4545454545454546
 40
0.5454545454545455
 40
0.5454545454545455
 40
0.5454545454545455
 40
0.5454545454545455
 40
0.6363636363636365
 40
0.6363636363636365
 40
0.6363636363636365
 40
0.6363636363636365
 40
0.7272727272727274
 40
0.7272727272727274
 40
0.7272727272727274
 40
0.7272727272727274
 40
0.8181818181818183
 40
0.8181818181818183
 40
0.8181818181818183
 40
0.8181818181818183
 40
0.9090909090909093
 40
0.9090909090909093
 40
0.9090909090909093
 40
0.9090909090909093
 40
1.0
 40
1.0
 40
1.0
 40
1.0
 10
-10.21663
 20
-15.37092
 30
0.0
 10
-10.21663
 20
-15.37092
 30
0.0
 10
-10.20051
 20
-15.37092
 30
0.0
 10
-10.20051
 20
-15.37092
 30
0.0
 10
-10.20051
 20
-15.37092
 30
0.0
 10
-10.20051
 20
-15.37092
 30
0.0
 10
-10.20051
 20
-15.3236
 30
0.0
 10
-10.20051
 20
-15.3236
 30
0.0
 10
-10.20051
 20
-15.3236
 30
0.0
 10
-10.20051
 20
-15.3236
 30
0.0
 10
-10.21549
 20
-15.32731
 30
0.0
 10
-10.21549
 20
-15.32731
 30
0.0
 10
-10.21549
 20
-15.32731
 30
0.0
 10
-10.21549
 20
-15.32731
 30
0.0
 10
-10.21549
 20
-15.31433
 30
0.0
 10
-10.21549
 20
-15.31433
 30
0.0
 10
-10.21549
 20
-15.31433
 30
0.0
 10
-10.21549
 20
-15.31433
 30
0.0
 10
-10.20041
 20
-15.31071
 30
0.0
 10
-10.20041
 20
-15.31071
 30
0.0
 10
-10.20041
 20
-15.31071
 30
0.0
 10
-10.20041
 20
-15.31071
 30
0.0
 10
-10.18649
 20
-15.31071
 30
0.0
 10
-10.18649
 20
-15.31071
 30
0.0
 10
-10.18649
 20
-15.31071
 30
0.0
 10
-10.18649
 20
-15.31071
 30
0.0
 10
-10.18649
 20
-15.37092
 30
0.0
 10
-10.18649
 20
-15.37092
 30
0.0
 10
-10.18649
 20
-15.37092
 30
0.0
 10
-10.18649
 20
-15.37092
 30
0.0
 10
-10.17037
 20
-15.37092
 30
0.0
 10
-10.17037
 20
-15.37092
 30
0.0
 10
-10.17037
 20
-15.37092
 30
0.0
 10
-10.17037
 20
-15.37092
 30
0.0
 10
-10.17037
 20
-15.38362
 30
0.0
 10
-10.17037
 20
-15.38362
 30
0.0
 10
-10.17037
 20
-15.38362
 30
0.0
 10
-10.17037
 20
-15.38362
 30
0.0
 10
-10.21663
 20
-15.38362
 30
0.0
 10
-10.21663
 20
-15.38362
 30
0.0
 10
-10.21663
 20
-15.38362
 30
0.0
 10
-10.21663
 20
-15.38362
 30
0.0
 10
-10.21663
 20
-15.37092
 30
0.0
 10
-10.21663
 20
-15.37092
 30
0.0
  0
SPLINE
  5
9F
330
1F
100
AcDbEntity
  8
Layer 1
 62
   250
100
AcDbSpline
210
0.0
220
0.0
230
1.0
 70
    11
 71
     3
 72
    36
 73
    32
 74
     0
 42
0.0000000001
 43
0.0000000001
 40
0.0
 40
0.0
 40
0.0
 40
0.0
 40
0.125
 40
0.125
 40
0.125
 40
0.125
 40
0.25
 40
0.25
 40
0.25
 40
0.25
 40
0.375
 40
0.375
 40
0.375
 40
0.375
 40
0.5
 40
0.5
 40
0.5
 40
0.5
 40
0.625
 40
0.625
 40
0.625
 40
0.625
 40
0.75
 40
0.75
 40
0.75
 40
0.75
 40
0.875
 40
0.875
 40
0.875
 40
0.875
 40
1.0
 40
1.0
 40
1.0
 40
1.0
 10
-10.14158
 20
-15.34723
 30
0.0
 10
-10.14158
 20
-15.34552
 30
0.0
 10
-10.141
 20
-15.34407
 30
0.0
 10
-10.13981
 20
-15.3429
 30
0.0
 10
-10.13981
 20
-15.3429
 30
0.0
 10
-10.13865
 20
-15.34172
 30
0.0
 10
-10.13721
 20
-15.34113
 30
0.0
 10
-10.13551
 20
-15.34113
 30
0.0
 10
-10.13551
 20
-15.34113
 30
0.0
 10
-10.1338
 20
-15.34113
 30
0.0
 10
-10.13235
 20
-15.34172
 30
0.0
 10
-10.13118
 20
-15.3429
 30
0.0
 10
-10.13118
 20
-15.3429
 30
0.0
 10
-10.13
 20
-15.34407
 30
0.0
 10
-10.12941
 20
-15.34552
 30
0.0
 10
-10.12941
 20
-15.34723
 30
0.0
 10
-10.12941
 20
-15.34723
 30
0.0
 10
-10.12941
 20
-15.34893
 30
0.0
 10
-10.13
 20
-15.35037
 30
0.0
 10
-10.13118
 20
-15.35153
 30
0.0
 10
-10.13118
 20
-15.35153
 30
0.0
 10
-10.13235
 20
-15.35272
 30
0.0
 10
-10.1338
 20
-15.3533
 30
0.0
 10
-10.13551
 20
-15.3533
 30
0.0
 10
-10.13551
 20
-15.3533
 30
0.0
 10
-10.13721
 20
-15.3533
 30
0.0
 10
-10.13865
 20
-15.35272
 30
0.0
 10
-10.13981
 20
-15.35157
 30
0.0
 10
-10.13981
 20
-15.35157
 30
0.0
 10
-10.141
 20
-15.35042
 30
0.0
 10
-10.14158
 20
-15.34897
 30
0.0
 10
-10.14158
 20
-15.34723
 30
0.0
  0
SPLINE
  5
A0
330
1F
100
AcDbEntity
  8
Layer 1
 62
   250
100
AcDbSpline
210
0.0
220
0.0
230
1.0
 70
    11
 71
     3
 72
    36
 73
    32
 74
     0
 42
0.0000000001
 43
0.0000000001
 40
0.0
 40
0.0
 40
0.0
 40
0.0
 40
0.125
 40
0.125
 40
0.125
 40
0.125
 40
0.25
 40
0.25
 40
0.25
 40
0.25
 40
0.375
 40
0.375
 40
0.375
 40
0.375
 40
0.5
 40
0.5
 40
0.5
 40
0.5
 40
0.625
 40
0.625
 40
0.625
 40
0.625
 40
0.75
 40
0.75
 40
0.75
 40
0.75
 40
0.875
 40
0.875
 40
0.875
 40
0.875
 40
1.0
 40
1.0
 40
1.0
 40
1.0
 10
-10.13551
 20
-15.3216
 30
0.0
 10
-10.13885
 20
-15.3216
 30
0.0
 10
-10.14126
 20
-15.32363
 30
0.0
 10
-10.1428
 20
-15.3277
 30
0.0
 10
-10.1428
 20
-15.3277
 30
0.0
 10
-10.14433
 20
-15.33178
 30
0.0
 10
-10.1451
 20
-15.33828
 30
0.0
 10
-10.1451
 20
-15.34723
 30
0.0
 10
-10.1451
 20
-15.34723
 30
0.0
 10
-10.1451
 20
-15.35617
 30
0.0
 10
-10.14433
 20
-15.36265
 30
0.0
 10
-10.1428
 20
-15.36673
 30
0.0
 10
-10.1428
 20
-15.36673
 30
0.0
 10
-10.14126
 20
-15.3708
 30
0.0
 10
-10.13885
 20
-15.37284
 30
0.0
 10
-10.13551
 20
-15.37284
 30
0.0
 10
-10.13551
 20
-15.37284
 30
0.0
 10
-10.13216
 20
-15.37284
 30
0.0
 10
-10.12973
 20
-15.3708
 30
0.0
 10
-10.1282
 20
-15.36673
 30
0.0
 10
-10.1282
 20
-15.36673
 30
0.0
 10
-10.12666
 20
-15.36265
 30
0.0
 10
-10.1259
 20
-15.35617
 30
0.0
 10
-10.1259
 20
-15.34723
 30
0.0
 10
-10.1259
 20
-15.34723
 30
0.0
 10
-10.1259
 20
-15.33828
 30
0.0
 10
-10.12666
 20
-15.33178
 30
0.0
 10
-10.1282
 20
-15.3277
 30
0.0
 10
-10.1282
 20
-15.3277
 30
0.0
 10
-10.12973
 20
-15.32363
 30
0.0
 10
-10.13216
 20
-15.3216
 30
0.0
 10
-10.13551
 20
-15.3216
 30
0.0
  0
SPLINE
  5
A1
330
1F
100
AcDbEntity
  8
Layer 1
 62
   250
100
AcDbSpline
210
0.0
220
0.0
230
1.0
 70
    11
 71
     3
 72
    36
 73
    32
 74
     0
 42
0.0000000001
 43
0.0000000001
 40
0.0
 40
0.0
 40
0.0
 40
0.0
 40
0.125
 40
0.125
 40
0.125
 40
0.125
 40
0.25
 40
0.25
 40
0.25
 40
0.25
 40
0.375
 40
0.375
 40
0.375
 40
0.375
 40
0.5
 40
0.5
 40
0.5
 40
0.5
 40
0.625
 40
0.625
 40
0.625
 40
0.625
 40
0.75
 40
0.75
 40
0.75
 40
0.75
 40
0.875
 40
0.875
 40
0.875
 40
0.875
 40
1.0
 40
1.0
 40
1.0
 40
1.0
 10
-10.1596
 20
-15.34723
 30
0.0
 10
-10.1596
 20
-15.33462
 30
0.0
 10
-10.1576
 20
-15.32515
 30
0.0
 10
-10.1536
 20
-15.31885
 30
0.0
 10
-10.1536
 20
-15.31885
 30
0.0
 10
-10.14958
 20
-15.31255
 30
0.0
 10
-10.14356
 20
-15.3094
 30
0.0
 10
-10.13551
 20
-15.3094
 30
0.0
 10
-10.13551
 20
-15.3094
 30
0.0
 10
-10.12745
 20
-15.3094
 30
0.0
 10
-10.12141
 20
-15.31253
 30
0.0
 10
-10.1174
 20
-15.31881
 30
0.0
 10
-10.1174
 20
-15.31881
 30
0.0
 10
-10.11339
 20
-15.3251
 30
0.0
 10
-10.11139
 20
-15.33458
 30
0.0
 10
-10.11139
 20
-15.34723
 30
0.0
 10
-10.11139
 20
-15.34723
 30
0.0
 10
-10.11139
 20
-15.35987
 30
0.0
 10
-10.11339
 20
-15.36934
 30
0.0
 10
-10.1174
 20
-15.37562
 30
0.0
 10
-10.1174
 20
-15.37562
 30
0.0
 10
-10.12141
 20
-15.3819
 30
0.0
 10
-10.12745
 20
-15.38504
 30
0.0
 10
-10.13551
 20
-15.38504
 30
0.0
 10
-10.13551
 20
-15.38504
 30
0.0
 10
-10.14356
 20
-15.38504
 30
0.0
 10
-10.14958
 20
-15.38189
 30
0.0
 10
-10.1536
 20
-15.37559
 30
0.0
 10
-10.1536
 20
-15.37559
 30
0.0
 10
-10.1576
 20
-15.36929
 30
0.0
 10
-10.1596
 20
-15.35983
 30
0.0
 10
-10.1596
 20
-15.34723
 30
0.0
  0
ENDSEC
  0
SECTION
  2
OBJECTS
  0
DICTIONARY
  5
C
330
0
100
AcDbDictionary
281
     1
  3
ACAD_GROUP
350
D
  3
ACAD_LAYOUT
350
1A
  3
ACAD_MLEADERSTYLE
350
A3
  3
ACAD_MLINESTYLE
350
17
  3
ACAD_PLOTSETTINGS
350
19
  3
ACAD_PLOTSTYLENAME
350
E
  3
ACAD_SCALELIST
350
3B
  3
ACAD_TABLESTYLE
350
A2
  3
ACAD_VISUALSTYLE
350
2A
  0
DICTIONARY
  5
D
102
{ACAD_REACTORS
330
C
102
}
330
C
100
AcDbDictionary
281
     1
  0
DICTIONARY
  5
1A
102
{ACAD_REACTORS
330
C
102
}
330
C
100
AcDbDictionary
281
     1
  3
Layout1
350
1E
  3
Layout2
350
26
  3
Model
350
22
  0
DICTIONARY
  5
A3
102
{ACAD_REACTORS
330
C
102
}
330
C
100
AcDbDictionary
281
     1
  0
DICTIONARY
  5
17
102
{ACAD_REACTORS
330
C
102
}
330
C
100
AcDbDictionary
281
     1
  3
Standard
350
18
  0
DICTIONARY
  5
19
102
{ACAD_REACTORS
330
C
102
}
330
C
100
AcDbDictionary
281
     1
  0
ACDBDICTIONARYWDFLT
  5
E
102
{ACAD_REACTORS
330
C
102
}
330
C
100
AcDbDictionary
281
     1
  3
Normal
350
F
100
AcDbDictionaryWithDefault
340
F
  0
DICTIONARY
  5
3B
102
{ACAD_REACTORS
330
C
102
}
330
C
100
AcDbDictionary
281
     1
  3
A0
350
3C
  3
A1
350
3D
  3
A2
350
3E
  3
A3
350
3F
  3
A4
350
40
  3
A5
350
41
  3
A6
350
42
  3
A7
350
43
  3
A8
350
44
  3
A9
350
45
  3
B0
350
46
  3
B1
350
47
  3
B2
350
48
  3
B3
350
49
  3
B4
350
4A
  3
B5
350
4B
  3
B6
350
4C
  3
B7
350
4D
  3
B8
350
4E
  3
B9
350
4F
  3
C0
350
50
  3
C1
350
51
  3
C2
350
52
  3
C3
350
53
  3
C4
350
54
  3
C5
350
55
  3
C6
350
56
  3
C7
350
57
  3
C8
350
58
  3
C9
350
59
  3
D0
350
5A
  3
D1
350
5B
  3
D2
350
5C
  0
DICTIONARY
  5
A2
102
{ACAD_REACTORS
330
C
102
}
330
C
100
AcDbDictionary
281
     1
  0
DICTIONARY
  5
2A
102
{ACAD_REACTORS
330
C
102
}
330
C
100
AcDbDictionary
281
     1
  3
2dWireframe
350
2F
  3
3D Hidden
350
31
  3
3dWireframe
350
30
  3
Basic
350
32
  3
Brighten
350
36
  3
ColorChange
350
3A
  3
Conceptual
350
34
  3
Dim
350
35
  3
Facepattern
350
39
  3
Flat
350
2B
  3
FlatWithEdges
350
2C
  3
Gouraud
350
2D
  3
GouraudWithEdges
350
2E
  3
Linepattern
350
38
  3
Realistic
350
33
  3
Thicken
350
37
  0
LAYOUT
  5
1E
102
{ACAD_REACTORS
330
1A
102
}
330
1A
100
AcDbPlotSettings
  1

  2
none_device
  4

  6

 40
0.0
 41
0.0
 42
0.0
 43
0.0
 44
0.0
 45
0.0
 46
0.0
 47
0.0
 48
0.0
 49
0.0
140
0.0
141
0.0
142
1.0
143
1.0
 70
   688
 72
     0
 73
     0
 74
     5
  7

 75
    16
 76
     0
 77
     2
 78
   300
147
1.0
148
0.0
149
0.0
100
AcDbLayout
  1
Layout1
 70
     1
 71
     1
 10
0.0
 20
0.0
 11
12.0
 21
9.0
 12
0.0
 22
0.0
 32
0.0
 14
1.000000000000000E+20
 24
1.000000000000000E+20
 34
1.000000000000000E+20
 15
-1.000000000000000E+20
 25
-1.000000000000000E+20
 35
-1.000000000000000E+20
146
0.0
 13
0.0
 23
0.0
 33
0.0
 16
1.0
 26
0.0
 36
0.0
 17
0.0
 27
1.0
 37
0.0
 76
     0
330
1B
  0
LAYOUT
  5
26
102
{ACAD_REACTORS
330
1A
102
}
330
1A
100
AcDbPlotSettings
  1

  2
none_device
  4

  6

 40
0.0
 41
0.0
 42
0.0
 43
0.0
 44
0.0
 45
0.0
 46
0.0
 47
0.0
 48
0.0
 49
0.0
140
0.0
141
0.0
142
1.0
143
1.0
 70
   688
 72
     0
 73
     0
 74
     5
  7

 75
    16
 76
     0
 77
     2
 78
   300
147
1.0
148
0.0
149
0.0
100
AcDbLayout
  1
Layout2
 70
     1
 71
     2
 10
0.0
 20
0.0
 11
0.0
 21
0.0
 12
0.0
 22
0.0
 32
0.0
 14
0.0
 24
0.0
 34
0.0
 15
0.0
 25
0.0
 35
0.0
146
0.0
 13
0.0
 23
0.0
 33
0.0
 16
1.0
 26
0.0
 36
0.0
 17
0.0
 27
1.0
 37
0.0
 76
     0
330
23
  0
LAYOUT
  5
22
102
{ACAD_REACTORS
330
1A
102
}
330
1A
100
AcDbPlotSettings
  1

  2
none_device
  4

  6

 40
0.0
 41
0.0
 42
0.0
 43
0.0
 44
0.0
 45
0.0
 46
0.0
 47
0.0
 48
0.0
 49
0.0
140
0.0
141
0.0
142
1.0
143
1.0
 70
  1712
 72
     0
 73
     0
 74
     0
  7

 75
     0
 76
     0
 77
     2
 78
   300
147
1.0
148
0.0
149
0.0
100
AcDbLayout
  1
Model
 70
     1
 71
     0
 10
0.0
 20
0.0
 11
12.0
 21
9.0
 12
0.0
 22
0.0
 32
0.0
 14
-11.55271
 24
-15.85
 34
0.0
 15
-9.4473
 25
-13.85
 35
0.0
146
0.0
 13
0.0
 23
0.0
 33
0.0
 16
1.0
 26
0.0
 36
0.0
 17
0.0
 27
1.0
 37
0.0
 76
     0
330
1F
331
29
  0
MLINESTYLE
  5
18
102
{ACAD_REACTORS
330
17
102
}
330
17
100
AcDbMlineStyle
  2
Standard
 70
     0
  3

 62
   256
 51
90.0
 52
90.0
 71
     2
 49
0.5
 62
   256
  6
BYLAYER
 49
-0.5
 62
   256
  6
BYLAYER
  0
ACDBPLACEHOLDER
  5
F
102
{ACAD_REACTORS
330
E
102
}
330
E
  0
SCALE
  5
3C
102
{ACAD_REACTORS
330
3B
102
}
330
3B
100
AcDbScale
 70
     0
300
1:1
140
1.0
141
1.0
290
     1
  0
SCALE
  5
3D
102
{ACAD_REACTORS
330
3B
102
}
330
3B
100
AcDbScale
 70
     0
300
1:2
140
1.0
141
2.0
290
     0
  0
SCALE
  5
3E
102
{ACAD_REACTORS
330
3B
102
}
330
3B
100
AcDbScale
 70
     0
300
1:4
140
1.0
141
4.0
290
     0
  0
SCALE
  5
3F
102
{ACAD_REACTORS
330
3B
102
}
330
3B
100
AcDbScale
 70
     0
300
1:5
140
1.0
141
5.0
290
     0
  0
SCALE
  5
40
102
{ACAD_REACTORS
330
3B
102
}
330
3B
100
AcDbScale
 70
     0
300
1:8
140
1.0
141
8.0
290
     0
  0
SCALE
  5
41
102
{ACAD_REACTORS
330
3B
102
}
330
3B
100
AcDbScale
 70
     0
300
1:10
140
1.0
141
10.0
290
     0
  0
SCALE
  5
42
102
{ACAD_REACTORS
330
3B
102
}
330
3B
100
AcDbScale
 70
     0
300
1:16
140
1.0
141
16.0
290
     0
  0
SCALE
  5
43
102
{ACAD_REACTORS
330
3B
102
}
330
3B
100
AcDbScale
 70
     0
300
1:20
140
1.0
141
20.0
290
     0
  0
SCALE
  5
44
102
{ACAD_REACTORS
330
3B
102
}
330
3B
100
AcDbScale
 70
     0
300
1:30
140
1.0
141
30.0
290
     0
  0
SCALE
  5
45
102
{ACAD_REACTORS
330
3B
102
}
330
3B
100
AcDbScale
 70
     0
300
1:40
140
1.0
141
40.0
290
     0
  0
SCALE
  5
46
102
{ACAD_REACTORS
330
3B
102
}
330
3B
100
AcDbScale
 70
     0
300
1:50
140
1.0
141
50.0
290
     0
  0
SCALE
  5
47
102
{ACAD_REACTORS
330
3B
102
}
330
3B
100
AcDbScale
 70
     0
300
1:100
140
1.0
141
100.0
290
     0
  0
SCALE
  5
48
102
{ACAD_REACTORS
330
3B
102
}
330
3B
100
AcDbScale
 70
     0
300
2:1
140
2.0
141
1.0
290
     0
  0
SCALE
  5
49
102
{ACAD_REACTORS
330
3B
102
}
330
3B
100
AcDbScale
 70
     0
300
4:1
140
4.0
141
1.0
290
     0
  0
SCALE
  5
4A
102
{ACAD_REACTORS
330
3B
102
}
330
3B
100
AcDbScale
 70
     0
300
8:1
140
8.0
141
1.0
290
     0
  0
SCALE
  5
4B
102
{ACAD_REACTORS
330
3B
102
}
330
3B
100
AcDbScale
 70
     0
300
10:1
140
10.0
141
1.0
290
     0
  0
SCALE
  5
4C
102
{ACAD_REACTORS
330
3B
102
}
330
3B
100
AcDbScale
 70
     0
300
100:1
140
100.0
141
1.0
290
     0
  0
SCALE
  5
4D
102
{ACAD_REACTORS
330
3B
102
}
330
3B
100
AcDbScale
 70
     0
300
1/128" = 1'-0"
140
0.0078125
141
12.0
290
     0
  0
SCALE
  5
4E
102
{ACAD_REACTORS
330
3B
102
}
330
3B
100
AcDbScale
 70
     0
300
1/64" = 1'-0"
140
0.015625
141
12.0
290
     0
  0
SCALE
  5
4F
102
{ACAD_REACTORS
330
3B
102
}
330
3B
100
AcDbScale
 70
     0
300
1/32" = 1'-0"
140
0.03125
141
12.0
290
     0
  0
SCALE
  5
50
102
{ACAD_REACTORS
330
3B
102
}
330
3B
100
AcDbScale
 70
     0
300
1/16" = 1'-0"
140
0.0625
141
12.0
290
     0
  0
SCALE
  5
51
102
{ACAD_REACTORS
330
3B
102
}
330
3B
100
AcDbScale
 70
     0
300
3/32" = 1'-0"
140
0.09375
141
12.0
290
     0
  0
SCALE
  5
52
102
{ACAD_REACTORS
330
3B
102
}
330
3B
100
AcDbScale
 70
     0
300
1/8" = 1'-0"
140
0.125
141
12.0
290
     0
  0
SCALE
  5
53
102
{ACAD_REACTORS
330
3B
102
}
330
3B
100
AcDbScale
 70
     0
300
3/16" = 1'-0"
140
0.1875
141
12.0
290
     0
  0
SCALE
  5
54
102
{ACAD_REACTORS
330
3B
102
}
330
3B
100
AcDbScale
 70
     0
300
1/4" = 1'-0"
140
0.25
141
12.0
290
     0
  0
SCALE
  5
55
102
{ACAD_REACTORS
330
3B
102
}
330
3B
100
AcDbScale
 70
     0
300
3/8" = 1'-0"
140
0.375
141
12.0
290
     0
  0
SCALE
  5
56
102
{ACAD_REACTORS
330
3B
102
}
330
3B
100
AcDbScale
 70
     0
300
1/2" = 1'-0"
140
0.5
141
12.0
290
     0
  0
SCALE
  5
57
102
{ACAD_REACTORS
330
3B
102
}
330
3B
100
AcDbScale
 70
     0
300
3/4" = 1'-0"
140
0.75
141
12.0
290
     0
  0
SCALE
  5
58
102
{ACAD_REACTORS
330
3B
102
}
330
3B
100
AcDbScale
 70
     0
300
1" = 1'-0"
140
1.0
141
12.0
290
     0
  0
SCALE
  5
59
102
{ACAD_REACTORS
330
3B
102
}
330
3B
100
AcDbScale
 70
     0
300
1-1/2" = 1'-0"
140
1.5
141
12.0
290
     0
  0
SCALE
  5
5A
102
{ACAD_REACTORS
330
3B
102
}
330
3B
100
AcDbScale
 70
     0
300
3" = 1'-0"
140
3.0
141
12.0
290
     0
  0
SCALE
  5
5B
102
{ACAD_REACTORS
330
3B
102
}
330
3B
100
AcDbScale
 70
     0
300
6" = 1'-0"
140
6.0
141
12.0
290
     0
  0
SCALE
  5
5C
102
{ACAD_REACTORS
330
3B
102
}
330
3B
100
AcDbScale
 70
     0
300
1'-0" = 1'-0"
140
12.0
141
12.0
290
     0
  0
VISUALSTYLE
  5
2F
102
{ACAD_REACTORS
330
2A
102
}
330
2A
100
AcDbVisualStyle
  2
2dWireframe
 70
     4
 71
     0
 72
     2
 73
     0
 90
        0
 40
-0.6
 41
-30.0
 62
     5
 63
     7
421
 16777215
 74
     1
 91
        4
 64
     7
 65
   257
 75
     1
175
     1
 42
1.0
 92
        0
 66
   257
 43
1.0
 76
     1
 77
     6
 78
     2
 67
     7
 79
     5
170
     0
171
     0
290
     0
174
     0
 93
        1
 44
0.0
173
     0
291
     0
 45
0.0
  0
VISUALSTYLE
  5
31
102
{ACAD_REACTORS
330
2A
102
}
330
2A
100
AcDbVisualStyle
  2
3D Hidden
 70
     6
 71
     1
 72
     2
 73
     2
 90
        0
 40
-0.6
 41
-30.0
 62
     5
 63
     7
421
 16777215
 74
     2
 91
        2
 64
     7
 65
   257
 75
     2
175
     1
 42
40.0
 92
        0
 66
   257
 43
1.0
 76
     1
 77
     6
 78
     2
 67
     7
 79
     3
170
     0
171
     0
290
     0
174
     0
 93
        1
 44
0.0
173
     0
291
     0
 45
0.0
  0
VISUALSTYLE
  5
30
102
{ACAD_REACTORS
330
2A
102
}
330
2A
100
AcDbVisualStyle
  2
3dWireframe
 70
     5
 71
     0
 72
     2
 73
     0
 90
        0
 40
-0.6
 41
-30.0
 62
     5
 63
     7
421
 16777215
 74
     1
 91
        4
 64
     7
 65
   257
 75
     1
175
     1
 42
1.0
 92
        0
 66
   257
 43
1.0
 76
     1
 77
     6
 78
     2
 67
     7
 79
     5
170
     0
171
     0
290
     0
174
     0
 93
        1
 44
0.0
173
     0
291
     0
 45
0.0
  0
VISUALSTYLE
  5
32
102
{ACAD_REACTORS
330
2A
102
}
330
2A
100
AcDbVisualStyle
  2
Basic
 70
     7
 71
     1
 72
     0
 73
     1
 90
        0
 40
-0.6
 41
-30.0
 62
     5
 63
     7
421
 16777215
 74
     0
 91
        4
 64
     7
 65
   257
 75
     1
175
     1
 42
1.0
 92
        8
 66
     7
 43
1.0
 76
     1
 77
     6
 78
     2
 67
     7
 79
     5
170
     0
171
     0
290
     0
174
     0
 93
        1
 44
0.0
173
     0
291
     1
 45
0.0
  0
VISUALSTYLE
  5
36
102
{ACAD_REACTORS
330
2A
102
}
330
2A
100
AcDbVisualStyle
  2
Brighten
 70
    12
 71
     2
 72
     2
 73
     0
 90
        0
 40
-0.6
 41
-30.0
 62
     5
 63
     7
421
 16777215
 74
     1
 91
        4
 64
     7
 65
   257
 75
     1
175
     1
 42
1.0
 92
        8
 66
     7
 43
1.0
 76
     1
 77
     6
 78
     2
 67
     7
 79
     5
170
     0
171
     0
290
     0
174
     0
 93
        1
 44
50.0
173
     0
291
     1
 45
0.0
  0
VISUALSTYLE
  5
3A
102
{ACAD_REACTORS
330
2A
102
}
330
2A
100
AcDbVisualStyle
  2
ColorChange
 70
    16
 71
     2
 72
     2
 73
     3
 90
        0
 40
-0.6
 41
-30.0
 62
     5
 63
     8
421
  8421504
 74
     1
 91
        4
 64
     7
 65
   257
 75
     1
175
     1
 42
1.0
 92
        8
 66
     8
424
  8421504
 43
1.0
 76
     1
 77
     6
 78
     2
 67
     7
 79
     5
170
     0
171
     0
290
     0
174
     0
 93
        1
 44
0.0
173
     0
291
     1
 45
0.0
  0
VISUALSTYLE
  5
34
102
{ACAD_REACTORS
330
2A
102
}
330
2A
100
AcDbVisualStyle
  2
Conceptual
 70
     9
 71
     3
 72
     2
 73
     0
 90
        0
 40
-0.6
 41
-30.0
 62
     5
 63
     7
421
 16777215
 74
     2
 91
        2
 64
     7
 65
   257
 75
     1
175
     1
 42
40.0
 92
        8
 66
     7
 43
1.0
 76
     1
 77
     6
 78
     2
 67
     7
 79
     3
170
     0
171
     0
290
     0
174
     0
 93
        1
 44
0.0
173
     0
291
     0
 45
0.0
  0
VISUALSTYLE
  5
35
102
{ACAD_REACTORS
330
2A
102
}
330
2A
100
AcDbVisualStyle
  2
Dim
 70
    11
 71
     2
 72
     2
 73
     0
 90
        0
 40
-0.6
 41
-30.0
 62
     5
 63
     7
421
 16777215
 74
     1
 91
        4
 64
     7
 65
   257
 75
     1
175
     1
 42
1.0
 92
        8
 66
     7
 43
1.0
 76
     1
 77
     6
 78
     2
 67
     7
 79
     5
170
     0
171
     0
290
     0
174
     0
 93
        1
 44
-50.0
173
     0
291
     1
 45
0.0
  0
VISUALSTYLE
  5
39
102
{ACAD_REACTORS
330
2A
102
}
330
2A
100
AcDbVisualStyle
  2
Facepattern
 70
    15
 71
     2
 72
     2
 73
     0
 90
        0
 40
-0.6
 41
-30.0
 62
     5
 63
     7
421
 16777215
 74
     1
 91
        4
 64
     7
 65
   257
 75
     1
175
     1
 42
1.0
 92
        8
 66
     7
 43
1.0
 76
     1
 77
     6
 78
     2
 67
     7
 79
     5
170
     0
171
     0
290
     0
174
     0
 93
        1
 44
0.0
173
     0
291
     1
 45
0.0
  0
VISUALSTYLE
  5
2B
102
{ACAD_REACTORS
330
2A
102
}
330
2A
100
AcDbVisualStyle
  2
Flat
 70
     0
 71
     2
 72
     1
 73
     1
 90
        2
 40
-0.6
 41
30.0
 62
     5
 63
     7
421
 16777215
 74
     0
 91
        4
 64
     7
 65
   257
 75
     1
175
     1
 42
1.0
 92
        8
 66
     7
 43
1.0
 76
     1
 77
     6
 78
     2
 67
     7
 79
     5
170
     0
171
     0
290
     0
174
     0
 93
       13
 44
0.0
173
     0
291
     1
 45
0.0
  0
VISUALSTYLE
  5
2C
102
{ACAD_REACTORS
330
2A
102
}
330
2A
100
AcDbVisualStyle
  2
FlatWithEdges
 70
     1
 71
     2
 72
     1
 73
     1
 90
        2
 40
-0.6
 41
30.0
 62
     5
 63
     7
421
 16777215
 74
     1
 91
        4
 64
     7
 65
   257
 75
     1
175
     1
 42
1.0
 92
        0
 66
   257
 43
1.0
 76
     1
 77
     6
 78
     2
 67
     7
 79
     5
170
     0
171
     0
290
     0
174
     0
 93
       13
 44
0.0
173
     0
291
     1
 45
0.0
  0
VISUALSTYLE
  5
2D
102
{ACAD_REACTORS
330
2A
102
}
330
2A
100
AcDbVisualStyle
  2
Gouraud
 70
     2
 71
     2
 72
     2
 73
     1
 90
        2
 40
-0.6
 41
30.0
 62
     5
 63
     7
421
 16777215
 74
     0
 91
        4
 64
     7
 65
   257
 75
     1
175
     1
 42
1.0
 92
        0
 66
     7
 43
1.0
 76
     1
 77
     6
 78
     2
 67
     7
 79
     5
170
     0
171
     0
290
     0
174
     0
 93
       13
 44
0.0
173
     0
291
     1
 45
0.0
  0
VISUALSTYLE
  5
2E
102
{ACAD_REACTORS
330
2A
102
}
330
2A
100
AcDbVisualStyle
  2
GouraudWithEdges
 70
     3
 71
     2
 72
     2
 73
     1
 90
        2
 40
-0.6
 41
30.0
 62
     5
 63
     7
421
 16777215
 74
     1
 91
        4
 64
     7
 65
   257
 75
     1
175
     1
 42
1.0
 92
        0
 66
   257
 43
1.0
 76
     1
 77
     6
 78
     2
 67
     7
 79
     5
170
     0
171
     0
290
     0
174
     0
 93
       13
 44
0.0
173
     0
291
     1
 45
0.0
  0
VISUALSTYLE
  5
38
102
{ACAD_REACTORS
330
2A
102
}
330
2A
100
AcDbVisualStyle
  2
Linepattern
 70
    14
 71
     2
 72
     2
 73
     0
 90
        0
 40
-0.6
 41
-30.0
 62
     5
 63
     7
421
 16777215
 74
     1
 91
        4
 64
     7
 65
   257
 75
     7
175
     7
 42
1.0
 92
        8
 66
     7
 43
1.0
 76
     1
 77
     6
 78
     2
 67
     7
 79
     5
170
     0
171
     0
290
     0
174
     0
 93
        1
 44
0.0
173
     0
291
     1
 45
0.0
  0
VISUALSTYLE
  5
33
102
{ACAD_REACTORS
330
2A
102
}
330
2A
100
AcDbVisualStyle
  2
Realistic
 70
     8
 71
     2
 72
     2
 73
     0
 90
        0
 40
-0.6
 41
-30.0
 62
     5
 63
     7
421
 16777215
 74
     1
 91
        0
 64
     7
 65
   257
 75
     1
175
     1
 42
1.0
 92
        8
 66
     8
424
  7895160
 43
1.0
 76
     1
 77
     6
 78
     2
 67
     7
 79
     5
170
     0
171
     0
290
     0
174
     0
 93
       13
 44
0.0
173
     0
291
     0
 45
0.0
  0
VISUALSTYLE
  5
37
102
{ACAD_REACTORS
330
2A
102
}
330
2A
100
AcDbVisualStyle
  2
Thicken
 70
    13
 71
     2
 72
     2
 73
     0
 90
        0
 40
-0.6
 41
-30.0
 62
     5
 63
     7
421
 16777215
 74
     1
 91
        4
 64
     7
 65
   257
 75
     1
175
     1
 42
1.0
 92
       12
 66
     7
 43
1.0
 76
     1
 77
     6
 78
     2
 67
     7
 79
     5
170
     0
171
     0
290
     0
174
     0
 93
        1
 44
0.0
173
     0
291
     1
 45
0.0
  0
ENDSEC
  0
EOF
