  0
SECTION
  2
HEADER
  9
$ACADVER
  1
AC1021
  9
$ACADMAINTVER
 70
    25
  9
$DWGCODEPAGE
  3
ANSI_1252
  9
$INSBASE
 10
0.0
 20
0.0
 30
0.0
  9
$EXTMIN
 10
-11.43664
 20
-14.86767
 30
0.0
  9
$EXTMAX
 10
-9.5644
 20
-13.73075
 30
0.0
  9
$LIMMIN
 10
0.0
 20
0.0
  9
$LIMMAX
 10
12.0
 20
9.0
  9
$ORTHOMODE
 70
     0
  9
$REGENMODE
 70
     1
  9
$FILLMODE
 70
     1
  9
$QTEXTMODE
 70
     0
  9
$MIRRTEXT
 70
     1
  9
$LTSCALE
 40
1.0
  9
$ATTMODE
 70
     1
  9
$TEXTSIZE
 40
0.2
  9
$TRACEWID
 40
0.05
  9
$TEXTSTYLE
  7
Standard
  9
$CLAYER
  8
0
  9
$CELTYPE
  6
ByLayer
  9
$CECOLOR
 62
   256
  9
$CELTSCALE
 40
1.0
  9
$DISPSILH
 70
     0
  9
$DIMSCALE
 40
1.0
  9
$DIMASZ
 40
0.18
  9
$DIMEXO
 40
0.0625
  9
$DIMDLI
 40
0.38
  9
$DIMRND
 40
0.0
  9
$DIMDLE
 40
0.0
  9
$DIMEXE
 40
0.18
  9
$DIMTP
 40
0.0
  9
$DIMTM
 40
0.0
  9
$DIMTXT
 40
0.18
  9
$DIMCEN
 40
0.09
  9
$DIMTSZ
 40
0.0
  9
$DIMTOL
 70
     0
  9
$DIMLIM
 70
     0
  9
$DIMTIH
 70
     1
  9
$DIMTOH
 70
     1
  9
$DIMSE1
 70
     0
  9
$DIMSE2
 70
     0
  9
$DIMTAD
 70
     0
  9
$DIMZIN
 70
     0
  9
$DIMBLK
  1

  9
$DIMASO
 70
     1
  9
$DIMSHO
 70
     1
  9
$DIMPOST
  1

  9
$DIMAPOST
  1

  9
$DIMALT
 70
     0
  9
$DIMALTD
 70
     2
  9
$DIMALTF
 40
25.4
  9
$DIMLFAC
 40
1.0
  9
$DIMTOFL
 70
     0
  9
$DIMTVP
 40
0.0
  9
$DIMTIX
 70
     0
  9
$DIMSOXD
 70
     0
  9
$DIMSAH
 70
     0
  9
$DIMBLK1
  1

  9
$DIMBLK2
  1

  9
$DIMSTYLE
  2
Standard
  9
$DIMCLRD
 70
     0
  9
$DIMCLRE
 70
     0
  9
$DIMCLRT
 70
     0
  9
$DIMTFAC
 40
1.0
  9
$DIMGAP
 40
0.09
  9
$DIMJUST
 70
     0
  9
$DIMSD1
 70
     0
  9
$DIMSD2
 70
     0
  9
$DIMTOLJ
 70
     1
  9
$DIMTZIN
 70
     0
  9
$DIMALTZ
 70
     0
  9
$DIMALTTZ
 70
     0
  9
$DIMUPT
 70
     0
  9
$DIMDEC
 70
     4
  9
$DIMTDEC
 70
     4
  9
$DIMALTU
 70
     2
  9
$DIMALTTD
 70
     2
  9
$DIMTXSTY
  7
Standard
  9
$DIMAUNIT
 70
     0
  9
$DIMADEC
 70
     0
  9
$DIMALTRND
 40
0.0
  9
$DIMAZIN
 70
     0
  9
$DIMDSEP
 70
    46
  9
$DIMATFIT
 70
     3
  9
$DIMFRAC
 70
     0
  9
$DIMLDRBLK
  1

  9
$DIMLUNIT
 70
     2
  9
$DIMLWD
 70
    -2
  9
$DIMLWE
 70
    -2
  9
$DIMTMOVE
 70
     0
  9
$DIMFXL
 40
1.0
  9
$DIMFXLON
 70
     0
  9
$DIMJOGANG
 40
0.7853981633974483
  9
$DIMTFILL
 70
     0
  9
$DIMTFILLCLR
 70
     0
  9
$DIMARCSYM
 70
     0
  9
$DIMLTYPE
  6

  9
$DIMLTEX1
  6

  9
$DIMLTEX2
  6

  9
$LUNITS
 70
     2
  9
$LUPREC
 70
     4
  9
$SKETCHINC
 40
0.1
  9
$FILLETRAD
 40
0.5
  9
$AUNITS
 70
     0
  9
$AUPREC
 70
     0
  9
$MENU
  1
.
  9
$ELEVATION
 40
0.0
  9
$PELEVATION
 40
0.0
  9
$THICKNESS
 40
0.0
  9
$LIMCHECK
 70
     0
  9
$CHAMFERA
 40
0.5
  9
$CHAMFERB
 40
0.5
  9
$CHAMFERC
 40
1.0
  9
$CHAMFERD
 40
0.0
  9
$SKPOLY
 70
     0
  9
$TDCREATE
 40
2457048.849708032
  9
$TDUCREATE
 40
2457048.849708032
  9
$TDUPDATE
 40
2457048.849708044
  9
$TDUUPDATE
 40
2457048.849708044
  9
$TDINDWG
 40
0.0000000116
  9
$TDUSRTIMER
 40
0.0000000116
  9
$USRTIMER
 70
     1
  9
$ANGBASE
 50
0.0
  9
$ANGDIR
 70
     0
  9
$PDMODE
 70
     0
  9
$PDSIZE
 40
0.0
  9
$PLINEWID
 40
0.0
  9
$SPLFRAME
 70
     0
  9
$SPLINETYPE
 70
     6
  9
$SPLINESEGS
 70
     8
  9
$HANDSEED
  5
9A
  9
$SURFTAB1
 70
     6
  9
$SURFTAB2
 70
     6
  9
$SURFTYPE
 70
     6
  9
$SURFU
 70
     6
  9
$SURFV
 70
     6
  9
$UCSBASE
  2

  9
$UCSNAME
  2

  9
$UCSORG
 10
0.0
 20
0.0
 30
0.0
  9
$UCSXDIR
 10
1.0
 20
0.0
 30
0.0
  9
$UCSYDIR
 10
0.0
 20
1.0
 30
0.0
  9
$UCSORTHOREF
  2

  9
$UCSORTHOVIEW
 70
     0
  9
$UCSORGTOP
 10
0.0
 20
0.0
 30
0.0
  9
$UCSORGBOTTOM
 10
0.0
 20
0.0
 30
0.0
  9
$UCSORGLEFT
 10
0.0
 20
0.0
 30
0.0
  9
$UCSORGRIGHT
 10
0.0
 20
0.0
 30
0.0
  9
$UCSORGFRONT
 10
0.0
 20
0.0
 30
0.0
  9
$UCSORGBACK
 10
0.0
 20
0.0
 30
0.0
  9
$PUCSBASE
  2

  9
$PUCSNAME
  2

  9
$PUCSORG
 10
0.0
 20
0.0
 30
0.0
  9
$PUCSXDIR
 10
1.0
 20
0.0
 30
0.0
  9
$PUCSYDIR
 10
0.0
 20
1.0
 30
0.0
  9
$PUCSORTHOREF
  2

  9
$PUCSORTHOVIEW
 70
     0
  9
$PUCSORGTOP
 10
0.0
 20
0.0
 30
0.0
  9
$PUCSORGBOTTOM
 10
0.0
 20
0.0
 30
0.0
  9
$PUCSORGLEFT
 10
0.0
 20
0.0
 30
0.0
  9
$PUCSORGRIGHT
 10
0.0
 20
0.0
 30
0.0
  9
$PUCSORGFRONT
 10
0.0
 20
0.0
 30
0.0
  9
$PUCSORGBACK
 10
0.0
 20
0.0
 30
0.0
  9
$USERI1
 70
     0
  9
$USERI2
 70
     0
  9
$USERI3
 70
     0
  9
$USERI4
 70
     0
  9
$USERI5
 70
     0
  9
$USERR1
 40
0.0
  9
$USERR2
 40
0.0
  9
$USERR3
 40
0.0
  9
$USERR4
 40
0.0
  9
$USERR5
 40
0.0
  9
$WORLDVIEW
 70
     1
  9
$SHADEDGE
 70
     3
  9
$SHADEDIF
 70
    70
  9
$TILEMODE
 70
     1
  9
$MAXACTVP
 70
    64
  9
$PINSBASE
 10
0.0
 20
0.0
 30
0.0
  9
$PLIMCHECK
 70
     0
  9
$PEXTMIN
 10
1.000000000000000E+20
 20
1.000000000000000E+20
 30
1.000000000000000E+20
  9
$PEXTMAX
 10
-1.000000000000000E+20
 20
-1.000000000000000E+20
 30
-1.000000000000000E+20
  9
$PLIMMIN
 10
0.0
 20
0.0
  9
$PLIMMAX
 10
12.0
 20
9.0
  9
$UNITMODE
 70
     0
  9
$VISRETAIN
 70
     1
  9
$PLINEGEN
 70
     0
  9
$PSLTSCALE
 70
     1
  9
$TREEDEPTH
 70
  3020
  9
$CMLSTYLE
  2
Standard
  9
$CMLJUST
 70
     0
  9
$CMLSCALE
 40
1.0
  9
$PROXYGRAPHICS
 70
     1
  9
$MEASUREMENT
 70
     0
  9
$CELWEIGHT
370
    -1
  9
$ENDCAPS
280
     0
  9
$JOINSTYLE
280
     0
  9
$LWDISPLAY
290
     0
  9
$INSUNITS
 70
     5
  9
$HYPERLINKBASE
  1

  9
$STYLESHEET
  1

  9
$XEDIT
290
     1
  9
$CEPSNTYPE
380
     0
  9
$PSTYLEMODE
290
     1
  9
$FINGERPRINTGUID
  2
{D216EBE7-CE89-422D-BEA3-5FDC80BD577B}
  9
$VERSIONGUID
  2
{FAEB1C32-E019-11D5-929B-00C0DF256EC4}
  9
$EXTNAMES
290
     1
  9
$PSVPSCALE
 40
0.0
  9
$OLESTARTUP
290
     0
  9
$SORTENTS
280
   127
  9
$INDEXCTL
280
     0
  9
$HIDETEXT
280
     1
  9
$XCLIPFRAME
290
     0
  9
$HALOGAP
280
     0
  9
$OBSCOLOR
 70
   257
  9
$OBSLTYPE
280
     0
  9
$INTERSECTIONDISPLAY
280
     0
  9
$INTERSECTIONCOLOR
 70
   257
  9
$DIMASSOC
280
     2
  9
$PROJECTNAME
  1

  9
$CAMERADISPLAY
290
     0
  9
$LENSLENGTH
 40
50.0
  9
$CAMERAHEIGHT
 40
0.0
  9
$STEPSPERSEC
 40
2.0
  9
$STEPSIZE
 40
6.0
  9
$3DDWFPREC
 40
2.0
  9
$PSOLWIDTH
 40
0.25
  9
$PSOLHEIGHT
 40
4.0
  9
$LOFTANG1
 40
1.570796326794897
  9
$LOFTANG2
 40
1.570796326794897
  9
$LOFTMAG1
 40
0.0
  9
$LOFTMAG2
 40
0.0
  9
$LOFTPARAM
 70
     7
  9
$LOFTNORMALS
280
     1
  9
$LATITUDE
 40
37.795
  9
$LONGITUDE
 40
-122.394
  9
$NORTHDIRECTION
 40
0.0
  9
$TIMEZONE
 70
 -8000
  9
$LIGHTGLYPHDISPLAY
280
     1
  9
$TILEMODELIGHTSYNCH
280
     1
  9
$SOLIDHIST
280
     1
  9
$SHOWHIST
280
     1
  9
$DWFFRAME
280
     2
  9
$DGNFRAME
280
     2
  9
$REALWORLDSCALE
290
     1
  9
$INTERFERECOLOR
 62
   256
  9
$CSHADOW
280
     0
  9
$SHADOWPLANELOCATION
 40
0.0
  0
ENDSEC
  0
SECTION
  2
CLASSES
  0
CLASS
  1
ACDBDICTIONARYWDFLT
  2
AcDbDictionaryWithDefault
  3
ObjectDBX Classes
 90
        0
 91
        3
280
     0
281
     0
  0
CLASS
  1
VISUALSTYLE
  2
AcDbVisualStyle
  3
ObjectDBX Classes
 90
     4095
 91
        3
280
     0
281
     0
  0
CLASS
  1
SCALE
  2
AcDbScale
  3
ObjectDBX Classes
 90
     1153
 91
        3
280
     0
281
     0
  0
ENDSEC
  0
SECTION
  2
TABLES
  0
TABLE
  2
VPORT
  5
8
330
0
100
AcDbSymbolTable
 70
     1
  0
VPORT
  5
29
330
8
100
AcDbSymbolTableRecord
100
AcDbViewportTableRecord
  2
*Active
 70
     0
 10
0.0
 20
0.0
 11
1.0
 21
1.0
 12
10.42990654205607
 22
4.5
 13
0.0
 23
0.0
 14
0.5
 24
0.5
 15
0.5
 25
0.5
 16
0.0
 26
0.0
 36
1.0
 17
0.0
 27
0.0
 37
0.0
 40
9.0
 41
1.972972972850329
 42
50.0
 43
0.0
 44
0.0
 50
0.0
 51
0.0
 71
     0
 72
   100
 73
     1
 74
     3
 75
     0
 76
     0
 77
     0
 78
     0
281
     0
 65
     1
110
0.0
120
0.0
130
0.0
111
1.0
121
0.0
131
0.0
112
0.0
122
1.0
132
0.0
 79
     0
146
0.0
 60
     3
 61
     5
292
     1
282
     1
141
0.0
142
0.0
 63
   256
  0
ENDTAB
  0
TABLE
  2
LTYPE
  5
5
330
0
100
AcDbSymbolTable
 70
     1
  0
LTYPE
  5
14
330
5
100
AcDbSymbolTableRecord
100
AcDbLinetypeTableRecord
  2
ByBlock
 70
     0
  3

 72
    65
 73
     0
 40
0.0
  0
LTYPE
  5
15
330
5
100
AcDbSymbolTableRecord
100
AcDbLinetypeTableRecord
  2
ByLayer
 70
     0
  3

 72
    65
 73
     0
 40
0.0
  0
LTYPE
  5
16
330
5
100
AcDbSymbolTableRecord
100
AcDbLinetypeTableRecord
  2
Continuous
 70
     0
  3
Solid line
 72
    65
 73
     0
 40
0.0
  0
ENDTAB
  0
TABLE
  2
LAYER
  5
2
330
0
100
AcDbSymbolTable
 70
     2
  0
LAYER
  5
10
330
2
100
AcDbSymbolTableRecord
100
AcDbLayerTableRecord
  2
0
 70
     0
 62
     7
  6
Continuous
370
    -3
390
F
347
0
  0
LAYER
  5
5E
330
2
100
AcDbSymbolTableRecord
100
AcDbLayerTableRecord
  2
Layer 1
 70
     0
 62
     7
  6
Continuous
370
    -3
390
F
347
0
  0
ENDTAB
  0
TABLE
  2
STYLE
  5
3
330
0
100
AcDbSymbolTable
 70
     1
  0
STYLE
  5
11
330
3
100
AcDbSymbolTableRecord
100
AcDbTextStyleTableRecord
  2
Standard
 70
     0
 40
0.0
 41
1.0
 50
0.0
 71
     0
 42
0.2
  3
txt
  4

  0
ENDTAB
  0
TABLE
  2
VIEW
  5
6
330
0
100
AcDbSymbolTable
 70
     0
  0
ENDTAB
  0
TABLE
  2
UCS
  5
7
330
0
100
AcDbSymbolTable
 70
     0
  0
ENDTAB
  0
TABLE
  2
APPID
  5
9
330
0
100
AcDbSymbolTable
 70
     2
  0
APPID
  5
12
330
9
100
AcDbSymbolTableRecord
100
AcDbRegAppTableRecord
  2
ACAD
 70
     0
  0
APPID
  5
5D
330
9
100
AcDbSymbolTableRecord
100
AcDbRegAppTableRecord
  2
ODA
 70
     0
  0
ENDTAB
  0
TABLE
  2
DIMSTYLE
  5
A
330
0
100
AcDbSymbolTable
 70
     1
100
AcDbDimStyleTable
  0
DIMSTYLE
105
27
330
A
100
AcDbSymbolTableRecord
100
AcDbDimStyleTableRecord
  2
Standard
 70
     0
340
11
  0
ENDTAB
  0
TABLE
  2
BLOCK_RECORD
  5
1
330
0
100
AcDbSymbolTable
 70
     1
  0
BLOCK_RECORD
  5
1F
330
1
100
AcDbSymbolTableRecord
100
AcDbBlockTableRecord
  2
*Model_Space
340
22
 70
     0
280
     1
281
     0
  0
BLOCK_RECORD
  5
1B
330
1
100
AcDbSymbolTableRecord
100
AcDbBlockTableRecord
  2
*Paper_Space
340
1E
 70
     0
280
     1
281
     0
  0
BLOCK_RECORD
  5
23
330
1
100
AcDbSymbolTableRecord
100
AcDbBlockTableRecord
  2
*Paper_Space0
340
26
 70
     0
280
     1
281
     0
  0
ENDTAB
  0
ENDSEC
  0
SECTION
  2
BLOCKS
  0
BLOCK
  5
20
330
1F
100
AcDbEntity
  8
0
100
AcDbBlockBegin
  2
*Model_Space
 70
     0
 10
0.0
 20
0.0
 30
0.0
  3
*Model_Space
  1

  0
ENDBLK
  5
21
330
1F
100
AcDbEntity
  8
0
100
AcDbBlockEnd
  0
BLOCK
  5
1C
330
1B
100
AcDbEntity
 67
     1
  8
0
100
AcDbBlockBegin
  2
*Paper_Space
 70
     0
 10
0.0
 20
0.0
 30
0.0
  3
*Paper_Space
  1

  0
ENDBLK
  5
1D
330
1B
100
AcDbEntity
 67
     1
  8
0
100
AcDbBlockEnd
  0
BLOCK
  5
24
330
23
100
AcDbEntity
  8
0
100
AcDbBlockBegin
  2
*Paper_Space0
 70
     0
 10
0.0
 20
0.0
 30
0.0
  3
*Paper_Space0
  1

  0
ENDBLK
  5
25
330
23
100
AcDbEntity
  8
0
100
AcDbBlockEnd
  0
ENDSEC
  0
SECTION
  2
ENTITIES
  0
SPLINE
  5
5F
330
1F
100
AcDbEntity
  8
Layer 1
 62
   250
100
AcDbSpline
210
0.0
220
0.0
230
1.0
 70
    11
 71
     3
 72
    80
 73
    76
 74
     0
 42
0.0000000001
 43
0.0000000001
 40
0.0
 40
0.0
 40
0.0
 40
0.0
 40
0.0526315789473684
 40
0.0526315789473684
 40
0.0526315789473684
 40
0.0526315789473684
 40
0.1052631578947368
 40
0.1052631578947368
 40
0.1052631578947368
 40
0.1052631578947368
 40
0.1578947368421053
 40
0.1578947368421053
 40
0.1578947368421053
 40
0.1578947368421053
 40
0.2105263157894737
 40
0.2105263157894737
 40
0.2105263157894737
 40
0.2105263157894737
 40
0.2631578947368421
 40
0.2631578947368421
 40
0.2631578947368421
 40
0.2631578947368421
 40
0.3157894736842105
 40
0.3157894736842105
 40
0.3157894736842105
 40
0.3157894736842105
 40
0.3684210526315789
 40
0.3684210526315789
 40
0.3684210526315789
 40
0.3684210526315789
 40
0.4210526315789473
 40
0.4210526315789473
 40
0.4210526315789473
 40
0.4210526315789473
 40
0.4736842105263158
 40
0.4736842105263158
 40
0.4736842105263158
 40
0.4736842105263158
 40
0.5263157894736842
 40
0.5263157894736842
 40
0.5263157894736842
 40
0.5263157894736842
 40
0.5789473684210527
 40
0.5789473684210527
 40
0.5789473684210527
 40
0.5789473684210527
 40
0.631578947368421
 40
0.631578947368421
 40
0.631578947368421
 40
0.631578947368421
 40
0.6842105263157894
 40
0.6842105263157894
 40
0.6842105263157894
 40
0.6842105263157894
 40
0.7368421052631577
 40
0.7368421052631577
 40
0.7368421052631577
 40
0.7368421052631577
 40
0.7894736842105261
 40
0.7894736842105261
 40
0.7894736842105261
 40
0.7894736842105261
 40
0.8421052631578945
 40
0.8421052631578945
 40
0.8421052631578945
 40
0.8421052631578945
 40
0.8947368421052628
 40
0.8947368421052628
 40
0.8947368421052628
 40
0.8947368421052628
 40
0.9473684210526312
 40
0.9473684210526312
 40
0.9473684210526312
 40
0.9473684210526312
 40
1.0
 40
1.0
 40
1.0
 40
1.0
 10
-10.93086
 20
-13.85155
 30
0.0
 10
-10.93086
 20
-13.85155
 30
0.0
 10
-10.86669
 20
-13.85155
 30
0.0
 10
-10.86669
 20
-13.85155
 30
0.0
 10
-10.86669
 20
-13.85155
 30
0.0
 10
-10.86669
 20
-13.85155
 30
0.0
 10
-10.86669
 20
-13.87918
 30
0.0
 10
-10.86669
 20
-13.87918
 30
0.0
 10
-10.86669
 20
-13.87918
 30
0.0
 10
-10.86669
 20
-13.87918
 30
0.0
 10
-10.97266
 20
-13.87918
 30
0.0
 10
-10.97266
 20
-13.87918
 30
0.0
 10
-10.97266
 20
-13.87918
 30
0.0
 10
-10.97266
 20
-13.87918
 30
0.0
 10
-10.97266
 20
-13.85155
 30
0.0
 10
-10.97266
 20
-13.85155
 30
0.0
 10
-10.97266
 20
-13.85155
 30
0.0
 10
-10.97266
 20
-13.85155
 30
0.0
 10
-10.91942
 20
-13.80458
 30
0.0
 10
-10.91942
 20
-13.80458
 30
0.0
 10
-10.91942
 20
-13.80458
 30
0.0
 10
-10.91466
 20
-13.80028
 30
0.0
 10
-10.91116
 20
-13.79608
 30
0.0
 10
-10.90889
 20
-13.79198
 30
0.0
 10
-10.90889
 20
-13.79198
 30
0.0
 10
-10.90659
 20
-13.78788
 30
0.0
 10
-10.90546
 20
-13.78361
 30
0.0
 10
-10.90546
 20
-13.77918
 30
0.0
 10
-10.90546
 20
-13.77918
 30
0.0
 10
-10.90546
 20
-13.77235
 30
0.0
 10
-10.90776
 20
-13.76685
 30
0.0
 10
-10.91236
 20
-13.76268
 30
0.0
 10
-10.91236
 20
-13.76268
 30
0.0
 10
-10.91692
 20
-13.75851
 30
0.0
 10
-10.92302
 20
-13.75645
 30
0.0
 10
-10.93066
 20
-13.75645
 30
0.0
 10
-10.93066
 20
-13.75645
 30
0.0
 10
-10.93652
 20
-13.75645
 30
0.0
 10
-10.94292
 20
-13.75771
 30
0.0
 10
-10.94989
 20
-13.76021
 30
0.0
 10
-10.94989
 20
-13.76021
 30
0.0
 10
-10.95686
 20
-13.76271
 30
0.0
 10
-10.96432
 20
-13.76645
 30
0.0
 10
-10.97226
 20
-13.77138
 30
0.0
 10
-10.97226
 20
-13.77138
 30
0.0
 10
-10.97226
 20
-13.77138
 30
0.0
 10
-10.97226
 20
-13.73935
 30
0.0
 10
-10.97226
 20
-13.73935
 30
0.0
 10
-10.97226
 20
-13.73935
 30
0.0
 10
-10.96379
 20
-13.73655
 30
0.0
 10
-10.95542
 20
-13.73441
 30
0.0
 10
-10.94716
 20
-13.73295
 30
0.0
 10
-10.94716
 20
-13.73295
 30
0.0
 10
-10.93889
 20
-13.73148
 30
0.0
 10
-10.93079
 20
-13.73075
 30
0.0
 10
-10.92282
 20
-13.73075
 30
0.0
 10
-10.92282
 20
-13.73075
 30
0.0
 10
-10.90539
 20
-13.73075
 30
0.0
 10
-10.89182
 20
-13.73458
 30
0.0
 10
-10.88216
 20
-13.74228
 30
0.0
 10
-10.88216
 20
-13.74228
 30
0.0
 10
-10.87249
 20
-13.74995
 30
0.0
 10
-10.86766
 20
-13.76065
 30
0.0
 10
-10.86766
 20
-13.77441
 30
0.0
 10
-10.86766
 20
-13.77441
 30
0.0
 10
-10.86766
 20
-13.78235
 30
0.0
 10
-10.86972
 20
-13.78975
 30
0.0
 10
-10.87382
 20
-13.79661
 30
0.0
 10
-10.87382
 20
-13.79661
 30
0.0
 10
-10.87792
 20
-13.80348
 30
0.0
 10
-10.88656
 20
-13.81268
 30
0.0
 10
-10.89969
 20
-13.82421
 30
0.0
 10
-10.89969
 20
-13.82421
 30
0.0
 10
-10.89969
 20
-13.82421
 30
0.0
 10
-10.93086
 20
-13.85155
 30
0.0
 10
-10.93086
 20
-13.85155
 30
0.0
  0
SPLINE
  5
60
330
1F
100
AcDbEntity
  8
Layer 1
 62
   250
100
AcDbSpline
210
0.0
220
0.0
230
1.0
 70
    11
 71
     3
 72
    20
 73
    16
 74
     0
 42
0.0000000001
 43
0.0000000001
 40
0.0
 40
0.0
 40
0.0
 40
0.0
 40
0.25
 40
0.25
 40
0.25
 40
0.25
 40
0.5
 40
0.5
 40
0.5
 40
0.5
 40
0.75
 40
0.75
 40
0.75
 40
0.75
 40
1.0
 40
1.0
 40
1.0
 40
1.0
 10
-10.82892
 20
-13.84138
 30
0.0
 10
-10.82892
 20
-13.84138
 30
0.0
 10
-10.79375
 20
-13.84138
 30
0.0
 10
-10.79375
 20
-13.84138
 30
0.0
 10
-10.79375
 20
-13.84138
 30
0.0
 10
-10.79375
 20
-13.84138
 30
0.0
 10
-10.79375
 20
-13.87918
 30
0.0
 10
-10.79375
 20
-13.87918
 30
0.0
 10
-10.79375
 20
-13.87918
 30
0.0
 10
-10.79375
 20
-13.87918
 30
0.0
 10
-10.82892
 20
-13.87918
 30
0.0
 10
-10.82892
 20
-13.87918
 30
0.0
 10
-10.82892
 20
-13.87918
 30
0.0
 10
-10.82892
 20
-13.87918
 30
0.0
 10
-10.82892
 20
-13.84138
 30
0.0
 10
-10.82892
 20
-13.84138
 30
0.0
  0
SPLINE
  5
61
330
1F
100
AcDbEntity
  8
Layer 1
 62
   250
100
AcDbSpline
210
0.0
220
0.0
230
1.0
 70
    11
 71
     3
 72
    92
 73
    88
 74
     0
 42
0.0000000001
 43
0.0000000001
 40
0.0
 40
0.0
 40
0.0
 40
0.0
 40
0.0454545454545455
 40
0.0454545454545455
 40
0.0454545454545455
 40
0.0454545454545455
 40
0.0909090909090909
 40
0.0909090909090909
 40
0.0909090909090909
 40
0.0909090909090909
 40
0.1363636363636364
 40
0.1363636363636364
 40
0.1363636363636364
 40
0.1363636363636364
 40
0.1818181818181818
 40
0.1818181818181818
 40
0.1818181818181818
 40
0.1818181818181818
 40
0.2272727272727273
 40
0.2272727272727273
 40
0.2272727272727273
 40
0.2272727272727273
 40
0.2727272727272728
 40
0.2727272727272728
 40
0.2727272727272728
 40
0.2727272727272728
 40
0.3181818181818182
 40
0.3181818181818182
 40
0.3181818181818182
 40
0.3181818181818182
 40
0.3636363636363637
 40
0.3636363636363637
 40
0.3636363636363637
 40
0.3636363636363637
 40
0.4090909090909092
 40
0.4090909090909092
 40
0.4090909090909092
 40
0.4090909090909092
 40
0.4545454545454546
 40
0.4545454545454546
 40
0.4545454545454546
 40
0.4545454545454546
 40
0.5000000000000001
 40
0.5000000000000001
 40
0.5000000000000001
 40
0.5000000000000001
 40
0.5454545454545455
 40
0.5454545454545455
 40
0.5454545454545455
 40
0.5454545454545455
 40
0.5909090909090909
 40
0.5909090909090909
 40
0.5909090909090909
 40
0.5909090909090909
 40
0.6363636363636364
 40
0.6363636363636364
 40
0.6363636363636364
 40
0.6363636363636364
 40
0.6818181818181818
 40
0.6818181818181818
 40
0.6818181818181818
 40
0.6818181818181818
 40
0.7272727272727272
 40
0.7272727272727272
 40
0.7272727272727272
 40
0.7272727272727272
 40
0.7727272727272726
 40
0.7727272727272726
 40
0.7727272727272726
 40
0.7727272727272726
 40
0.818181818181818
 40
0.818181818181818
 40
0.818181818181818
 40
0.818181818181818
 40
0.8636363636363634
 40
0.8636363636363634
 40
0.8636363636363634
 40
0.8636363636363634
 40
0.9090909090909088
 40
0.9090909090909088
 40
0.9090909090909088
 40
0.9090909090909088
 40
0.9545454545454543
 40
0.9545454545454543
 40
0.9545454545454543
 40
0.9545454545454543
 40
1.0
 40
1.0
 40
1.0
 40
1.0
 10
-10.75215
 20
-13.73338
 30
0.0
 10
-10.75215
 20
-13.73338
 30
0.0
 10
-10.65868
 20
-13.73338
 30
0.0
 10
-10.65868
 20
-13.73338
 30
0.0
 10
-10.65868
 20
-13.73338
 30
0.0
 10
-10.65868
 20
-13.73338
 30
0.0
 10
-10.65868
 20
-13.76101
 30
0.0
 10
-10.65868
 20
-13.76101
 30
0.0
 10
-10.65868
 20
-13.76101
 30
0.0
 10
-10.65868
 20
-13.76101
 30
0.0
 10
-10.72218
 20
-13.76101
 30
0.0
 10
-10.72218
 20
-13.76101
 30
0.0
 10
-10.72218
 20
-13.76101
 30
0.0
 10
-10.72218
 20
-13.76101
 30
0.0
 10
-10.72218
 20
-13.78358
 30
0.0
 10
-10.72218
 20
-13.78358
 30
0.0
 10
-10.72218
 20
-13.78358
 30
0.0
 10
-10.71932
 20
-13.78281
 30
0.0
 10
-10.71645
 20
-13.78221
 30
0.0
 10
-10.71355
 20
-13.78178
 30
0.0
 10
-10.71355
 20
-13.78178
 30
0.0
 10
-10.71065
 20
-13.78135
 30
0.0
 10
-10.70762
 20
-13.78115
 30
0.0
 10
-10.70452
 20
-13.78115
 30
0.0
 10
-10.70452
 20
-13.78115
 30
0.0
 10
-10.68672
 20
-13.78115
 30
0.0
 10
-10.67288
 20
-13.78558
 30
0.0
 10
-10.66298
 20
-13.79448
 30
0.0
 10
-10.66298
 20
-13.79448
 30
0.0
 10
-10.65308
 20
-13.80335
 30
0.0
 10
-10.64815
 20
-13.81575
 30
0.0
 10
-10.64815
 20
-13.83161
 30
0.0
 10
-10.64815
 20
-13.83161
 30
0.0
 10
-10.64815
 20
-13.84738
 30
0.0
 10
-10.65355
 20
-13.85971
 30
0.0
 10
-10.66432
 20
-13.86865
 30
0.0
 10
-10.66432
 20
-13.86865
 30
0.0
 10
-10.67508
 20
-13.87755
 30
0.0
 10
-10.69005
 20
-13.88201
 30
0.0
 10
-10.70918
 20
-13.88201
 30
0.0
 10
-10.70918
 20
-13.88201
 30
0.0
 10
-10.71745
 20
-13.88201
 30
0.0
 10
-10.72565
 20
-13.88121
 30
0.0
 10
-10.73375
 20
-13.87961
 30
0.0
 10
-10.73375
 20
-13.87961
 30
0.0
 10
-10.74185
 20
-13.87801
 30
0.0
 10
-10.74992
 20
-13.87561
 30
0.0
 10
-10.75792
 20
-13.87235
 30
0.0
 10
-10.75792
 20
-13.87235
 30
0.0
 10
-10.75792
 20
-13.87235
 30
0.0
 10
-10.75792
 20
-13.84275
 30
0.0
 10
-10.75792
 20
-13.84275
 30
0.0
 10
-10.75792
 20
-13.84275
 30
0.0
 10
-10.74998
 20
-13.84731
 30
0.0
 10
-10.74245
 20
-13.85071
 30
0.0
 10
-10.73532
 20
-13.85298
 30
0.0
 10
-10.73532
 20
-13.85298
 30
0.0
 10
-10.72818
 20
-13.85528
 30
0.0
 10
-10.72145
 20
-13.85641
 30
0.0
 10
-10.71515
 20
-13.85641
 30
0.0
 10
-10.71515
 20
-13.85641
 30
0.0
 10
-10.70602
 20
-13.85641
 30
0.0
 10
-10.69885
 20
-13.85418
 30
0.0
 10
-10.69362
 20
-13.84971
 30
0.0
 10
-10.69362
 20
-13.84971
 30
0.0
 10
-10.68838
 20
-13.84528
 30
0.0
 10
-10.68575
 20
-13.83925
 30
0.0
 10
-10.68575
 20
-13.83161
 30
0.0
 10
-10.68575
 20
-13.83161
 30
0.0
 10
-10.68575
 20
-13.82395
 30
0.0
 10
-10.68838
 20
-13.81791
 30
0.0
 10
-10.69362
 20
-13.81348
 30
0.0
 10
-10.69362
 20
-13.81348
 30
0.0
 10
-10.69885
 20
-13.80905
 30
0.0
 10
-10.70602
 20
-13.80685
 30
0.0
 10
-10.71515
 20
-13.80685
 30
0.0
 10
-10.71515
 20
-13.80685
 30
0.0
 10
-10.72055
 20
-13.80685
 30
0.0
 10
-10.72632
 20
-13.80755
 30
0.0
 10
-10.73242
 20
-13.80895
 30
0.0
 10
-10.73242
 20
-13.80895
 30
0.0
 10
-10.73855
 20
-13.81035
 30
0.0
 10
-10.74512
 20
-13.81251
 30
0.0
 10
-10.75215
 20
-13.81545
 30
0.0
 10
-10.75215
 20
-13.81545
 30
0.0
 10
-10.75215
 20
-13.81545
 30
0.0
 10
-10.75215
 20
-13.73338
 30
0.0
 10
-10.75215
 20
-13.73338
 30
0.0
  0
SPLINE
  5
62
330
1F
100
AcDbEntity
  8
Layer 1
 62
   250
100
AcDbSpline
210
0.0
220
0.0
230
1.0
 70
    11
 71
     3
 72
    16
 73
    12
 74
     0
 42
0.0000000001
 43
0.0000000001
 40
0.0
 40
0.0
 40
0.0
 40
0.0
 40
0.3333333333333333
 40
0.3333333333333333
 40
0.3333333333333333
 40
0.3333333333333333
 40
0.6666666666666666
 40
0.6666666666666666
 40
0.6666666666666666
 40
0.6666666666666666
 40
1.0
 40
1.0
 40
1.0
 40
1.0
 10
-10.56051
 20
-13.76435
 30
0.0
 10
-10.56051
 20
-13.76435
 30
0.0
 10
-10.60175
 20
-13.82538
 30
0.0
 10
-10.60175
 20
-13.82538
 30
0.0
 10
-10.60175
 20
-13.82538
 30
0.0
 10
-10.60175
 20
-13.82538
 30
0.0
 10
-10.56051
 20
-13.82538
 30
0.0
 10
-10.56051
 20
-13.82538
 30
0.0
 10
-10.56051
 20
-13.82538
 30
0.0
 10
-10.56051
 20
-13.82538
 30
0.0
 10
-10.56051
 20
-13.76435
 30
0.0
 10
-10.56051
 20
-13.76435
 30
0.0
  0
SPLINE
  5
63
330
1F
100
AcDbEntity
  8
Layer 1
 62
   250
100
AcDbSpline
210
0.0
220
0.0
230
1.0
 70
    11
 71
     3
 72
    48
 73
    44
 74
     0
 42
0.0000000001
 43
0.0000000001
 40
0.0
 40
0.0
 40
0.0
 40
0.0
 40
0.0909090909090909
 40
0.0909090909090909
 40
0.0909090909090909
 40
0.0909090909090909
 40
0.1818181818181818
 40
0.1818181818181818
 40
0.1818181818181818
 40
0.1818181818181818
 40
0.2727272727272727
 40
0.2727272727272727
 40
0.2727272727272727
 40
0.2727272727272727
 40
0.3636363636363636
 40
0.3636363636363636
 40
0.3636363636363636
 40
0.3636363636363636
 40
0.4545454545454546
 40
0.4545454545454546
 40
0.4545454545454546
 40
0.4545454545454546
 40
0.5454545454545455
 40
0.5454545454545455
 40
0.5454545454545455
 40
0.5454545454545455
 40
0.6363636363636365
 40
0.6363636363636365
 40
0.6363636363636365
 40
0.6363636363636365
 40
0.7272727272727274
 40
0.7272727272727274
 40
0.7272727272727274
 40
0.7272727272727274
 40
0.8181818181818183
 40
0.8181818181818183
 40
0.8181818181818183
 40
0.8181818181818183
 40
0.9090909090909093
 40
0.9090909090909093
 40
0.9090909090909093
 40
0.9090909090909093
 40
1.0
 40
1.0
 40
1.0
 40
1.0
 10
-10.56678
 20
-13.73338
 30
0.0
 10
-10.56678
 20
-13.73338
 30
0.0
 10
-10.52498
 20
-13.73338
 30
0.0
 10
-10.52498
 20
-13.73338
 30
0.0
 10
-10.52498
 20
-13.73338
 30
0.0
 10
-10.52498
 20
-13.73338
 30
0.0
 10
-10.52498
 20
-13.82538
 30
0.0
 10
-10.52498
 20
-13.82538
 30
0.0
 10
-10.52498
 20
-13.82538
 30
0.0
 10
-10.52498
 20
-13.82538
 30
0.0
 10
-10.50418
 20
-13.82538
 30
0.0
 10
-10.50418
 20
-13.82538
 30
0.0
 10
-10.50418
 20
-13.82538
 30
0.0
 10
-10.50418
 20
-13.82538
 30
0.0
 10
-10.50418
 20
-13.85261
 30
0.0
 10
-10.50418
 20
-13.85261
 30
0.0
 10
-10.50418
 20
-13.85261
 30
0.0
 10
-10.50418
 20
-13.85261
 30
0.0
 10
-10.52498
 20
-13.85261
 30
0.0
 10
-10.52498
 20
-13.85261
 30
0.0
 10
-10.52498
 20
-13.85261
 30
0.0
 10
-10.52498
 20
-13.85261
 30
0.0
 10
-10.52498
 20
-13.87918
 30
0.0
 10
-10.52498
 20
-13.87918
 30
0.0
 10
-10.52498
 20
-13.87918
 30
0.0
 10
-10.52498
 20
-13.87918
 30
0.0
 10
-10.56051
 20
-13.87918
 30
0.0
 10
-10.56051
 20
-13.87918
 30
0.0
 10
-10.56051
 20
-13.87918
 30
0.0
 10
-10.56051
 20
-13.87918
 30
0.0
 10
-10.56051
 20
-13.85261
 30
0.0
 10
-10.56051
 20
-13.85261
 30
0.0
 10
-10.56051
 20
-13.85261
 30
0.0
 10
-10.56051
 20
-13.85261
 30
0.0
 10
-10.62518
 20
-13.85261
 30
0.0
 10
-10.62518
 20
-13.85261
 30
0.0
 10
-10.62518
 20
-13.85261
 30
0.0
 10
-10.62518
 20
-13.85261
 30
0.0
 10
-10.62518
 20
-13.82038
 30
0.0
 10
-10.62518
 20
-13.82038
 30
0.0
 10
-10.62518
 20
-13.82038
 30
0.0
 10
-10.62518
 20
-13.82038
 30
0.0
 10
-10.56678
 20
-13.73338
 30
0.0
 10
-10.56678
 20
-13.73338
 30
0.0
  0
SPLINE
  5
64
330
1F
100
AcDbEntity
  8
Layer 1
 62
   250
100
AcDbSpline
210
0.0
220
0.0
230
1.0
 70
    11
 71
     3
 72
   120
 73
   116
 74
     0
 42
0.0000000001
 43
0.0000000001
 40
0.0
 40
0.0
 40
0.0
 40
0.0
 40
0.0344827586206897
 40
0.0344827586206897
 40
0.0344827586206897
 40
0.0344827586206897
 40
0.0689655172413793
 40
0.0689655172413793
 40
0.0689655172413793
 40
0.0689655172413793
 40
0.103448275862069
 40
0.103448275862069
 40
0.103448275862069
 40
0.103448275862069
 40
0.1379310344827586
 40
0.1379310344827586
 40
0.1379310344827586
 40
0.1379310344827586
 40
0.1724137931034483
 40
0.1724137931034483
 40
0.1724137931034483
 40
0.1724137931034483
 40
0.206896551724138
 40
0.206896551724138
 40
0.206896551724138
 40
0.206896551724138
 40
0.2413793103448276
 40
0.2413793103448276
 40
0.2413793103448276
 40
0.2413793103448276
 40
0.2758620689655173
 40
0.2758620689655173
 40
0.2758620689655173
 40
0.2758620689655173
 40
0.310344827586207
 40
0.310344827586207
 40
0.310344827586207
 40
0.310344827586207
 40
0.3448275862068966
 40
0.3448275862068966
 40
0.3448275862068966
 40
0.3448275862068966
 40
0.3793103448275863
 40
0.3793103448275863
 40
0.3793103448275863
 40
0.3793103448275863
 40
0.413793103448276
 40
0.413793103448276
 40
0.413793103448276
 40
0.413793103448276
 40
0.4482758620689656
 40
0.4482758620689656
 40
0.4482758620689656
 40
0.4482758620689656
 40
0.4827586206896553
 40
0.4827586206896553
 40
0.4827586206896553
 40
0.4827586206896553
 40
0.517241379310345
 40
0.517241379310345
 40
0.517241379310345
 40
0.517241379310345
 40
0.5517241379310346
 40
0.5517241379310346
 40
0.5517241379310346
 40
0.5517241379310346
 40
0.5862068965517242
 40
0.5862068965517242
 40
0.5862068965517242
 40
0.5862068965517242
 40
0.6206896551724138
 40
0.6206896551724138
 40
0.6206896551724138
 40
0.6206896551724138
 40
0.6551724137931034
 40
0.6551724137931034
 40
0.6551724137931034
 40
0.6551724137931034
 40
0.689655172413793
 40
0.689655172413793
 40
0.689655172413793
 40
0.689655172413793
 40
0.7241379310344827
 40
0.7241379310344827
 40
0.7241379310344827
 40
0.7241379310344827
 40
0.7586206896551723
 40
0.7586206896551723
 40
0.7586206896551723
 40
0.7586206896551723
 40
0.7931034482758619
 40
0.7931034482758619
 40
0.7931034482758619
 40
0.7931034482758619
 40
0.8275862068965515
 40
0.8275862068965515
 40
0.8275862068965515
 40
0.8275862068965515
 40
0.8620689655172411
 40
0.8620689655172411
 40
0.8620689655172411
 40
0.8620689655172411
 40
0.8965517241379307
 40
0.8965517241379307
 40
0.8965517241379307
 40
0.8965517241379307
 40
0.9310344827586203
 40
0.9310344827586203
 40
0.9310344827586203
 40
0.9310344827586203
 40
0.9655172413793099
 40
0.9655172413793099
 40
0.9655172413793099
 40
0.9655172413793099
 40
1.0
 40
1.0
 40
1.0
 40
1.0
 10
-10.30721
 20
-13.78798
 30
0.0
 10
-10.30278
 20
-13.78121
 30
0.0
 10
-10.29755
 20
-13.77605
 30
0.0
 10
-10.29145
 20
-13.77251
 30
0.0
 10
-10.29145
 20
-13.77251
 30
0.0
 10
-10.28535
 20
-13.76895
 30
0.0
 10
-10.27868
 20
-13.76718
 30
0.0
 10
-10.27138
 20
-13.76718
 30
0.0
 10
-10.27138
 20
-13.76718
 30
0.0
 10
-10.25881
 20
-13.76718
 30
0.0
 10
-10.24925
 20
-13.77105
 30
0.0
 10
-10.24268
 20
-13.77881
 30
0.0
 10
-10.24268
 20
-13.77881
 30
0.0
 10
-10.23611
 20
-13.78655
 30
0.0
 10
-10.23281
 20
-13.79781
 30
0.0
 10
-10.23281
 20
-13.81258
 30
0.0
 10
-10.23281
 20
-13.81258
 30
0.0
 10
-10.23281
 20
-13.81258
 30
0.0
 10
-10.23281
 20
-13.87918
 30
0.0
 10
-10.23281
 20
-13.87918
 30
0.0
 10
-10.23281
 20
-13.87918
 30
0.0
 10
-10.23281
 20
-13.87918
 30
0.0
 10
-10.26798
 20
-13.87918
 30
0.0
 10
-10.26798
 20
-13.87918
 30
0.0
 10
-10.26798
 20
-13.87918
 30
0.0
 10
-10.26798
 20
-13.87918
 30
0.0
 10
-10.26798
 20
-13.82215
 30
0.0
 10
-10.26798
 20
-13.82215
 30
0.0
 10
-10.26798
 20
-13.82215
 30
0.0
 10
-10.26791
 20
-13.82131
 30
0.0
 10
-10.26788
 20
-13.82045
 30
0.0
 10
-10.26785
 20
-13.81951
 30
0.0
 10
-10.26785
 20
-13.81951
 30
0.0
 10
-10.26781
 20
-13.81861
 30
0.0
 10
-10.26778
 20
-13.81731
 30
0.0
 10
-10.26778
 20
-13.81561
 30
0.0
 10
-10.26778
 20
-13.81561
 30
0.0
 10
-10.26778
 20
-13.80788
 30
0.0
 10
-10.26891
 20
-13.80225
 30
0.0
 10
-10.27121
 20
-13.79878
 30
0.0
 10
-10.27121
 20
-13.79878
 30
0.0
 10
-10.27348
 20
-13.79528
 30
0.0
 10
-10.27715
 20
-13.79355
 30
0.0
 10
-10.28221
 20
-13.79355
 30
0.0
 10
-10.28221
 20
-13.79355
 30
0.0
 10
-10.28888
 20
-13.79355
 30
0.0
 10
-10.29398
 20
-13.79628
 30
0.0
 10
-10.29761
 20
-13.80175
 30
0.0
 10
-10.29761
 20
-13.80175
 30
0.0
 10
-10.30121
 20
-13.80721
 30
0.0
 10
-10.30308
 20
-13.81511
 30
0.0
 10
-10.30321
 20
-13.82548
 30
0.0
 10
-10.30321
 20
-13.82548
 30
0.0
 10
-10.30321
 20
-13.82548
 30
0.0
 10
-10.30321
 20
-13.87918
 30
0.0
 10
-10.30321
 20
-13.87918
 30
0.0
 10
-10.30321
 20
-13.87918
 30
0.0
 10
-10.30321
 20
-13.87918
 30
0.0
 10
-10.33838
 20
-13.87918
 30
0.0
 10
-10.33838
 20
-13.87918
 30
0.0
 10
-10.33838
 20
-13.87918
 30
0.0
 10
-10.33838
 20
-13.87918
 30
0.0
 10
-10.33838
 20
-13.82215
 30
0.0
 10
-10.33838
 20
-13.82215
 30
0.0
 10
-10.33838
 20
-13.82215
 30
0.0
 10
-10.33838
 20
-13.81005
 30
0.0
 10
-10.33941
 20
-13.80225
 30
0.0
 10
-10.34151
 20
-13.79878
 30
0.0
 10
-10.34151
 20
-13.79878
 30
0.0
 10
-10.34358
 20
-13.79528
 30
0.0
 10
-10.34728
 20
-13.79355
 30
0.0
 10
-10.35261
 20
-13.79355
 30
0.0
 10
-10.35261
 20
-13.79355
 30
0.0
 10
-10.35935
 20
-13.79355
 30
0.0
 10
-10.36451
 20
-13.79631
 30
0.0
 10
-10.36815
 20
-13.80181
 30
0.0
 10
-10.36815
 20
-13.80181
 30
0.0
 10
-10.37178
 20
-13.80731
 30
0.0
 10
-10.37361
 20
-13.81515
 30
0.0
 10
-10.37361
 20
-13.82538
 30
0.0
 10
-10.37361
 20
-13.82538
 30
0.0
 10
-10.37361
 20
-13.82538
 30
0.0
 10
-10.37361
 20
-13.87918
 30
0.0
 10
-10.37361
 20
-13.87918
 30
0.0
 10
-10.37361
 20
-13.87918
 30
0.0
 10
-10.37361
 20
-13.87918
 30
0.0
 10
-10.40878
 20
-13.87918
 30
0.0
 10
-10.40878
 20
-13.87918
 30
0.0
 10
-10.40878
 20
-13.87918
 30
0.0
 10
-10.40878
 20
-13.87918
 30
0.0
 10
-10.40878
 20
-13.76981
 30
0.0
 10
-10.40878
 20
-13.76981
 30
0.0
 10
-10.40878
 20
-13.76981
 30
0.0
 10
-10.40878
 20
-13.76981
 30
0.0
 10
-10.37361
 20
-13.76981
 30
0.0
 10
-10.37361
 20
-13.76981
 30
0.0
 10
-10.37361
 20
-13.76981
 30
0.0
 10
-10.37361
 20
-13.76981
 30
0.0
 10
-10.37361
 20
-13.78585
 30
0.0
 10
-10.37361
 20
-13.78585
 30
0.0
 10
-10.37361
 20
-13.78585
 30
0.0
 10
-10.36931
 20
-13.77965
 30
0.0
 10
-10.36438
 20
-13.77501
 30
0.0
 10
-10.35881
 20
-13.77188
 30
0.0
 10
-10.35881
 20
-13.77188
 30
0.0
 10
-10.35325
 20
-13.76875
 30
0.0
 10
-10.34711
 20
-13.76718
 30
0.0
 10
-10.34041
 20
-13.76718
 30
0.0
 10
-10.34041
 20
-13.76718
 30
0.0
 10
-10.33288
 20
-13.76718
 30
0.0
 10
-10.32618
 20
-13.76901
 30
0.0
 10
-10.32041
 20
-13.77265
 30
0.0
 10
-10.32041
 20
-13.77265
 30
0.0
 10
-10.31461
 20
-13.77631
 30
0.0
 10
-10.31021
 20
-13.78141
 30
0.0
 10
-10.30721
 20
-13.78798
 30
0.0
  0
SPLINE
  5
65
330
1F
100
AcDbEntity
  8
Layer 1
 62
   250
100
AcDbSpline
210
0.0
220
0.0
230
1.0
 70
    11
 71
     3
 72
   120
 73
   116
 74
     0
 42
0.0000000001
 43
0.0000000001
 40
0.0
 40
0.0
 40
0.0
 40
0.0
 40
0.0344827586206897
 40
0.0344827586206897
 40
0.0344827586206897
 40
0.0344827586206897
 40
0.0689655172413793
 40
0.0689655172413793
 40
0.0689655172413793
 40
0.0689655172413793
 40
0.103448275862069
 40
0.103448275862069
 40
0.103448275862069
 40
0.103448275862069
 40
0.1379310344827586
 40
0.1379310344827586
 40
0.1379310344827586
 40
0.1379310344827586
 40
0.1724137931034483
 40
0.1724137931034483
 40
0.1724137931034483
 40
0.1724137931034483
 40
0.206896551724138
 40
0.206896551724138
 40
0.206896551724138
 40
0.206896551724138
 40
0.2413793103448276
 40
0.2413793103448276
 40
0.2413793103448276
 40
0.2413793103448276
 40
0.2758620689655173
 40
0.2758620689655173
 40
0.2758620689655173
 40
0.2758620689655173
 40
0.310344827586207
 40
0.310344827586207
 40
0.310344827586207
 40
0.310344827586207
 40
0.3448275862068966
 40
0.3448275862068966
 40
0.3448275862068966
 40
0.3448275862068966
 40
0.3793103448275863
 40
0.3793103448275863
 40
0.3793103448275863
 40
0.3793103448275863
 40
0.413793103448276
 40
0.413793103448276
 40
0.413793103448276
 40
0.413793103448276
 40
0.4482758620689656
 40
0.4482758620689656
 40
0.4482758620689656
 40
0.4482758620689656
 40
0.4827586206896553
 40
0.4827586206896553
 40
0.4827586206896553
 40
0.4827586206896553
 40
0.517241379310345
 40
0.517241379310345
 40
0.517241379310345
 40
0.517241379310345
 40
0.5517241379310346
 40
0.5517241379310346
 40
0.5517241379310346
 40
0.5517241379310346
 40
0.5862068965517242
 40
0.5862068965517242
 40
0.5862068965517242
 40
0.5862068965517242
 40
0.6206896551724138
 40
0.6206896551724138
 40
0.6206896551724138
 40
0.6206896551724138
 40
0.6551724137931034
 40
0.6551724137931034
 40
0.6551724137931034
 40
0.6551724137931034
 40
0.689655172413793
 40
0.689655172413793
 40
0.689655172413793
 40
0.689655172413793
 40
0.7241379310344827
 40
0.7241379310344827
 40
0.7241379310344827
 40
0.7241379310344827
 40
0.7586206896551723
 40
0.7586206896551723
 40
0.7586206896551723
 40
0.7586206896551723
 40
0.7931034482758619
 40
0.7931034482758619
 40
0.7931034482758619
 40
0.7931034482758619
 40
0.8275862068965515
 40
0.8275862068965515
 40
0.8275862068965515
 40
0.8275862068965515
 40
0.8620689655172411
 40
0.8620689655172411
 40
0.8620689655172411
 40
0.8620689655172411
 40
0.8965517241379307
 40
0.8965517241379307
 40
0.8965517241379307
 40
0.8965517241379307
 40
0.9310344827586203
 40
0.9310344827586203
 40
0.9310344827586203
 40
0.9310344827586203
 40
0.9655172413793099
 40
0.9655172413793099
 40
0.9655172413793099
 40
0.9655172413793099
 40
1.0
 40
1.0
 40
1.0
 40
1.0
 10
-10.09881
 20
-13.78798
 30
0.0
 10
-10.09438
 20
-13.78121
 30
0.0
 10
-10.08915
 20
-13.77605
 30
0.0
 10
-10.08305
 20
-13.77251
 30
0.0
 10
-10.08305
 20
-13.77251
 30
0.0
 10
-10.07695
 20
-13.76895
 30
0.0
 10
-10.07028
 20
-13.76718
 30
0.0
 10
-10.06298
 20
-13.76718
 30
0.0
 10
-10.06298
 20
-13.76718
 30
0.0
 10
-10.05041
 20
-13.76718
 30
0.0
 10
-10.04085
 20
-13.77105
 30
0.0
 10
-10.03428
 20
-13.77881
 30
0.0
 10
-10.03428
 20
-13.77881
 30
0.0
 10
-10.02771
 20
-13.78655
 30
0.0
 10
-10.02441
 20
-13.79781
 30
0.0
 10
-10.02441
 20
-13.81258
 30
0.0
 10
-10.02441
 20
-13.81258
 30
0.0
 10
-10.02441
 20
-13.81258
 30
0.0
 10
-10.02441
 20
-13.87918
 30
0.0
 10
-10.02441
 20
-13.87918
 30
0.0
 10
-10.02441
 20
-13.87918
 30
0.0
 10
-10.02441
 20
-13.87918
 30
0.0
 10
-10.05958
 20
-13.87918
 30
0.0
 10
-10.05958
 20
-13.87918
 30
0.0
 10
-10.05958
 20
-13.87918
 30
0.0
 10
-10.05958
 20
-13.87918
 30
0.0
 10
-10.05958
 20
-13.82215
 30
0.0
 10
-10.05958
 20
-13.82215
 30
0.0
 10
-10.05958
 20
-13.82215
 30
0.0
 10
-10.05951
 20
-13.82131
 30
0.0
 10
-10.05948
 20
-13.82045
 30
0.0
 10
-10.05945
 20
-13.81951
 30
0.0
 10
-10.05945
 20
-13.81951
 30
0.0
 10
-10.05941
 20
-13.81861
 30
0.0
 10
-10.05938
 20
-13.81731
 30
0.0
 10
-10.05938
 20
-13.81561
 30
0.0
 10
-10.05938
 20
-13.81561
 30
0.0
 10
-10.05938
 20
-13.80788
 30
0.0
 10
-10.06051
 20
-13.80225
 30
0.0
 10
-10.06281
 20
-13.79878
 30
0.0
 10
-10.06281
 20
-13.79878
 30
0.0
 10
-10.06508
 20
-13.79528
 30
0.0
 10
-10.06875
 20
-13.79355
 30
0.0
 10
-10.07381
 20
-13.79355
 30
0.0
 10
-10.07381
 20
-13.79355
 30
0.0
 10
-10.08048
 20
-13.79355
 30
0.0
 10
-10.08558
 20
-13.79628
 30
0.0
 10
-10.08921
 20
-13.80175
 30
0.0
 10
-10.08921
 20
-13.80175
 30
0.0
 10
-10.09281
 20
-13.80721
 30
0.0
 10
-10.09468
 20
-13.81511
 30
0.0
 10
-10.09481
 20
-13.82548
 30
0.0
 10
-10.09481
 20
-13.82548
 30
0.0
 10
-10.09481
 20
-13.82548
 30
0.0
 10
-10.09481
 20
-13.87918
 30
0.0
 10
-10.09481
 20
-13.87918
 30
0.0
 10
-10.09481
 20
-13.87918
 30
0.0
 10
-10.09481
 20
-13.87918
 30
0.0
 10
-10.12998
 20
-13.87918
 30
0.0
 10
-10.12998
 20
-13.87918
 30
0.0
 10
-10.12998
 20
-13.87918
 30
0.0
 10
-10.12998
 20
-13.87918
 30
0.0
 10
-10.12998
 20
-13.82215
 30
0.0
 10
-10.12998
 20
-13.82215
 30
0.0
 10
-10.12998
 20
-13.82215
 30
0.0
 10
-10.12998
 20
-13.81005
 30
0.0
 10
-10.13101
 20
-13.80225
 30
0.0
 10
-10.13311
 20
-13.79878
 30
0.0
 10
-10.13311
 20
-13.79878
 30
0.0
 10
-10.13518
 20
-13.79528
 30
0.0
 10
-10.13888
 20
-13.79355
 30
0.0
 10
-10.14421
 20
-13.79355
 30
0.0
 10
-10.14421
 20
-13.79355
 30
0.0
 10
-10.15095
 20
-13.79355
 30
0.0
 10
-10.15611
 20
-13.79631
 30
0.0
 10
-10.15975
 20
-13.80181
 30
0.0
 10
-10.15975
 20
-13.80181
 30
0.0
 10
-10.16338
 20
-13.80731
 30
0.0
 10
-10.16521
 20
-13.81515
 30
0.0
 10
-10.16521
 20
-13.82538
 30
0.0
 10
-10.16521
 20
-13.82538
 30
0.0
 10
-10.16521
 20
-13.82538
 30
0.0
 10
-10.16521
 20
-13.87918
 30
0.0
 10
-10.16521
 20
-13.87918
 30
0.0
 10
-10.16521
 20
-13.87918
 30
0.0
 10
-10.16521
 20
-13.87918
 30
0.0
 10
-10.20038
 20
-13.87918
 30
0.0
 10
-10.20038
 20
-13.87918
 30
0.0
 10
-10.20038
 20
-13.87918
 30
0.0
 10
-10.20038
 20
-13.87918
 30
0.0
 10
-10.20038
 20
-13.76981
 30
0.0
 10
-10.20038
 20
-13.76981
 30
0.0
 10
-10.20038
 20
-13.76981
 30
0.0
 10
-10.20038
 20
-13.76981
 30
0.0
 10
-10.16521
 20
-13.76981
 30
0.0
 10
-10.16521
 20
-13.76981
 30
0.0
 10
-10.16521
 20
-13.76981
 30
0.0
 10
-10.16521
 20
-13.76981
 30
0.0
 10
-10.16521
 20
-13.78585
 30
0.0
 10
-10.16521
 20
-13.78585
 30
0.0
 10
-10.16521
 20
-13.78585
 30
0.0
 10
-10.16091
 20
-13.77965
 30
0.0
 10
-10.15598
 20
-13.77501
 30
0.0
 10
-10.15041
 20
-13.77188
 30
0.0
 10
-10.15041
 20
-13.77188
 30
0.0
 10
-10.14485
 20
-13.76875
 30
0.0
 10
-10.13871
 20
-13.76718
 30
0.0
 10
-10.13201
 20
-13.76718
 30
0.0
 10
-10.13201
 20
-13.76718
 30
0.0
 10
-10.12448
 20
-13.76718
 30
0.0
 10
-10.11778
 20
-13.76901
 30
0.0
 10
-10.11201
 20
-13.77265
 30
0.0
 10
-10.11201
 20
-13.77265
 30
0.0
 10
-10.10621
 20
-13.77631
 30
0.0
 10
-10.10181
 20
-13.78141
 30
0.0
 10
-10.09881
 20
-13.78798
 30
0.0
  0
SPLINE
  5
66
330
1F
100
AcDbEntity
  8
Layer 1
 62
   250
100
AcDbSpline
210
0.0
220
0.0
230
1.0
 70
    11
 71
     3
 72
    36
 73
    32
 74
     0
 42
0.0000000001
 43
0.0000000001
 40
0.0
 40
0.0
 40
0.0
 40
0.0
 40
0.125
 40
0.125
 40
0.125
 40
0.125
 40
0.25
 40
0.25
 40
0.25
 40
0.25
 40
0.375
 40
0.375
 40
0.375
 40
0.375
 40
0.5
 40
0.5
 40
0.5
 40
0.5
 40
0.625
 40
0.625
 40
0.625
 40
0.625
 40
0.75
 40
0.75
 40
0.75
 40
0.75
 40
0.875
 40
0.875
 40
0.875
 40
0.875
 40
1.0
 40
1.0
 40
1.0
 40
1.0
 10
-11.12726
 20
-14.04001
 30
0.0
 10
-11.13386
 20
-14.04001
 30
0.0
 10
-11.1388
 20
-14.04215
 30
0.0
 10
-11.14206
 20
-14.04641
 30
0.0
 10
-11.14206
 20
-14.04641
 30
0.0
 10
-11.14536
 20
-14.05068
 30
0.0
 10
-11.147
 20
-14.05708
 30
0.0
 10
-11.147
 20
-14.06558
 30
0.0
 10
-11.147
 20
-14.06558
 30
0.0
 10
-11.147
 20
-14.07411
 30
0.0
 10
-11.14536
 20
-14.08051
 30
0.0
 10
-11.14206
 20
-14.08478
 30
0.0
 10
-11.14206
 20
-14.08478
 30
0.0
 10
-11.1388
 20
-14.08905
 30
0.0
 10
-11.13386
 20
-14.09118
 30
0.0
 10
-11.12726
 20
-14.09118
 30
0.0
 10
-11.12726
 20
-14.09118
 30
0.0
 10
-11.12063
 20
-14.09118
 30
0.0
 10
-11.11566
 20
-14.08905
 30
0.0
 10
-11.1124
 20
-14.08478
 30
0.0
 10
-11.1124
 20
-14.08478
 30
0.0
 10
-11.1091
 20
-14.08051
 30
0.0
 10
-11.10746
 20
-14.07411
 30
0.0
 10
-11.10746
 20
-14.06558
 30
0.0
 10
-11.10746
 20
-14.06558
 30
0.0
 10
-11.10746
 20
-14.05708
 30
0.0
 10
-11.1091
 20
-14.05068
 30
0.0
 10
-11.1124
 20
-14.04641
 30
0.0
 10
-11.1124
 20
-14.04641
 30
0.0
 10
-11.11566
 20
-14.04215
 30
0.0
 10
-11.12063
 20
-14.04001
 30
0.0
 10
-11.12726
 20
-14.04001
 30
0.0
  0
SPLINE
  5
67
330
1F
100
AcDbEntity
  8
Layer 1
 62
   250
100
AcDbSpline
210
0.0
220
0.0
230
1.0
 70
    11
 71
     3
 72
    72
 73
    68
 74
     0
 42
0.0000000001
 43
0.0000000001
 40
0.0
 40
0.0
 40
0.0
 40
0.0
 40
0.0588235294117647
 40
0.0588235294117647
 40
0.0588235294117647
 40
0.0588235294117647
 40
0.1176470588235294
 40
0.1176470588235294
 40
0.1176470588235294
 40
0.1176470588235294
 40
0.1764705882352941
 40
0.1764705882352941
 40
0.1764705882352941
 40
0.1764705882352941
 40
0.2352941176470588
 40
0.2352941176470588
 40
0.2352941176470588
 40
0.2352941176470588
 40
0.2941176470588235
 40
0.2941176470588235
 40
0.2941176470588235
 40
0.2941176470588235
 40
0.3529411764705883
 40
0.3529411764705883
 40
0.3529411764705883
 40
0.3529411764705883
 40
0.411764705882353
 40
0.411764705882353
 40
0.411764705882353
 40
0.411764705882353
 40
0.4705882352941177
 40
0.4705882352941177
 40
0.4705882352941177
 40
0.4705882352941177
 40
0.5294117647058824
 40
0.5294117647058824
 40
0.5294117647058824
 40
0.5294117647058824
 40
0.5882352941176471
 40
0.5882352941176471
 40
0.5882352941176471
 40
0.5882352941176471
 40
0.6470588235294118
 40
0.6470588235294118
 40
0.6470588235294118
 40
0.6470588235294118
 40
0.7058823529411765
 40
0.7058823529411765
 40
0.7058823529411765
 40
0.7058823529411765
 40
0.7647058823529412
 40
0.7647058823529412
 40
0.7647058823529412
 40
0.7647058823529412
 40
0.823529411764706
 40
0.823529411764706
 40
0.823529411764706
 40
0.823529411764706
 40
0.8823529411764707
 40
0.8823529411764707
 40
0.8823529411764707
 40
0.8823529411764707
 40
0.9411764705882354
 40
0.9411764705882354
 40
0.9411764705882354
 40
0.9411764705882354
 40
1.0
 40
1.0
 40
1.0
 40
1.0
 10
-11.0808
 20
-13.96998
 30
0.0
 10
-11.0808
 20
-13.96998
 30
0.0
 10
-11.0808
 20
-13.99695
 30
0.0
 10
-11.0808
 20
-13.99695
 30
0.0
 10
-11.0808
 20
-13.99695
 30
0.0
 10
-11.087
 20
-13.99401
 30
0.0
 10
-11.0928
 20
-13.99185
 30
0.0
 10
-11.09826
 20
-13.99045
 30
0.0
 10
-11.09826
 20
-13.99045
 30
0.0
 10
-11.10373
 20
-13.98905
 30
0.0
 10
-11.1091
 20
-13.98835
 30
0.0
 10
-11.1143
 20
-13.98835
 30
0.0
 10
-11.1143
 20
-13.98835
 30
0.0
 10
-11.1255
 20
-13.98835
 30
0.0
 10
-11.1342
 20
-13.99145
 30
0.0
 10
-11.14046
 20
-13.99768
 30
0.0
 10
-11.14046
 20
-13.99768
 30
0.0
 10
-11.1467
 20
-14.00388
 30
0.0
 10
-11.15036
 20
-14.01311
 30
0.0
 10
-11.1514
 20
-14.02535
 30
0.0
 10
-11.1514
 20
-14.02535
 30
0.0
 10
-11.1471
 20
-14.02218
 30
0.0
 10
-11.14243
 20
-14.01978
 30
0.0
 10
-11.13743
 20
-14.01818
 30
0.0
 10
-11.13743
 20
-14.01818
 30
0.0
 10
-11.13243
 20
-14.01658
 30
0.0
 10
-11.12696
 20
-14.01578
 30
0.0
 10
-11.12103
 20
-14.01578
 30
0.0
 10
-11.12103
 20
-14.01578
 30
0.0
 10
-11.10613
 20
-14.01578
 30
0.0
 10
-11.0941
 20
-14.02015
 30
0.0
 10
-11.08496
 20
-14.02888
 30
0.0
 10
-11.08496
 20
-14.02888
 30
0.0
 10
-11.0758
 20
-14.03758
 30
0.0
 10
-11.07123
 20
-14.04901
 30
0.0
 10
-11.07123
 20
-14.06315
 30
0.0
 10
-11.07123
 20
-14.06315
 30
0.0
 10
-11.07123
 20
-14.07878
 30
0.0
 10
-11.07633
 20
-14.09128
 30
0.0
 10
-11.08656
 20
-14.10071
 30
0.0
 10
-11.08656
 20
-14.10071
 30
0.0
 10
-11.09676
 20
-14.11011
 30
0.0
 10
-11.1105
 20
-14.11481
 30
0.0
 10
-11.12766
 20
-14.11481
 30
0.0
 10
-11.12766
 20
-14.11481
 30
0.0
 10
-11.1466
 20
-14.11481
 30
0.0
 10
-11.16126
 20
-14.10841
 30
0.0
 10
-11.17166
 20
-14.09561
 30
0.0
 10
-11.17166
 20
-14.09561
 30
0.0
 10
-11.18203
 20
-14.08285
 30
0.0
 10
-11.18723
 20
-14.06468
 30
0.0
 10
-11.18723
 20
-14.04118
 30
0.0
 10
-11.18723
 20
-14.04118
 30
0.0
 10
-11.18723
 20
-14.01711
 30
0.0
 10
-11.18116
 20
-13.99818
 30
0.0
 10
-11.16903
 20
-13.98441
 30
0.0
 10
-11.16903
 20
-13.98441
 30
0.0
 10
-11.15686
 20
-13.97065
 30
0.0
 10
-11.14023
 20
-13.96375
 30
0.0
 10
-11.11906
 20
-13.96375
 30
0.0
 10
-11.11906
 20
-13.96375
 30
0.0
 10
-11.11236
 20
-13.96375
 30
0.0
 10
-11.10586
 20
-13.96428
 30
0.0
 10
-11.09953
 20
-13.96531
 30
0.0
 10
-11.09953
 20
-13.96531
 30
0.0
 10
-11.09323
 20
-13.96635
 30
0.0
 10
-11.087
 20
-13.96791
 30
0.0
 10
-11.0808
 20
-13.96998
 30
0.0
  0
SPLINE
  5
68
330
1F
100
AcDbEntity
  8
Layer 1
 62
   250
100
AcDbSpline
210
0.0
220
0.0
230
1.0
 70
    11
 71
     3
 72
    40
 73
    36
 74
     0
 42
0.0000000001
 43
0.0000000001
 40
0.0
 40
0.0
 40
0.0
 40
0.0
 40
0.1111111111111111
 40
0.1111111111111111
 40
0.1111111111111111
 40
0.1111111111111111
 40
0.2222222222222222
 40
0.2222222222222222
 40
0.2222222222222222
 40
0.2222222222222222
 40
0.3333333333333333
 40
0.3333333333333333
 40
0.3333333333333333
 40
0.3333333333333333
 40
0.4444444444444444
 40
0.4444444444444444
 40
0.4444444444444444
 40
0.4444444444444444
 40
0.5555555555555556
 40
0.5555555555555556
 40
0.5555555555555556
 40
0.5555555555555556
 40
0.6666666666666667
 40
0.6666666666666667
 40
0.6666666666666667
 40
0.6666666666666667
 40
0.7777777777777779
 40
0.7777777777777779
 40
0.7777777777777779
 40
0.7777777777777779
 40
0.8888888888888891
 40
0.8888888888888891
 40
0.8888888888888891
 40
0.8888888888888891
 40
1.0
 40
1.0
 40
1.0
 40
1.0
 10
-10.97246
 20
-13.96618
 30
0.0
 10
-10.97246
 20
-13.96618
 30
0.0
 10
-10.91006
 20
-13.96618
 30
0.0
 10
-10.91006
 20
-13.96618
 30
0.0
 10
-10.91006
 20
-13.96618
 30
0.0
 10
-10.8915
 20
-13.96618
 30
0.0
 10
-10.87726
 20
-13.97031
 30
0.0
 10
-10.86733
 20
-13.97855
 30
0.0
 10
-10.86733
 20
-13.97855
 30
0.0
 10
-10.8574
 20
-13.98678
 30
0.0
 10
-10.85243
 20
-13.99851
 30
0.0
 10
-10.85243
 20
-14.01375
 30
0.0
 10
-10.85243
 20
-14.01375
 30
0.0
 10
-10.85243
 20
-14.02901
 30
0.0
 10
-10.8574
 20
-14.04078
 30
0.0
 10
-10.86733
 20
-14.04901
 30
0.0
 10
-10.86733
 20
-14.04901
 30
0.0
 10
-10.87726
 20
-14.05725
 30
0.0
 10
-10.8915
 20
-14.06138
 30
0.0
 10
-10.91006
 20
-14.06138
 30
0.0
 10
-10.91006
 20
-14.06138
 30
0.0
 10
-10.91006
 20
-14.06138
 30
0.0
 10
-10.93486
 20
-14.06138
 30
0.0
 10
-10.93486
 20
-14.06138
 30
0.0
 10
-10.93486
 20
-14.06138
 30
0.0
 10
-10.93486
 20
-14.06138
 30
0.0
 10
-10.93486
 20
-14.11198
 30
0.0
 10
-10.93486
 20
-14.11198
 30
0.0
 10
-10.93486
 20
-14.11198
 30
0.0
 10
-10.93486
 20
-14.11198
 30
0.0
 10
-10.97246
 20
-14.11198
 30
0.0
 10
-10.97246
 20
-14.11198
 30
0.0
 10
-10.97246
 20
-14.11198
 30
0.0
 10
-10.97246
 20
-14.11198
 30
0.0
 10
-10.97246
 20
-13.96618
 30
0.0
 10
-10.97246
 20
-13.96618
 30
0.0
  0
SPLINE
  5
69
330
1F
100
AcDbEntity
  8
Layer 1
 62
   250
100
AcDbSpline
210
0.0
220
0.0
230
1.0
 70
    11
 71
     3
 72
    32
 73
    28
 74
     0
 42
0.0000000001
 43
0.0000000001
 40
0.0
 40
0.0
 40
0.0
 40
0.0
 40
0.1428571428571428
 40
0.1428571428571428
 40
0.1428571428571428
 40
0.1428571428571428
 40
0.2857142857142857
 40
0.2857142857142857
 40
0.2857142857142857
 40
0.2857142857142857
 40
0.4285714285714285
 40
0.4285714285714285
 40
0.4285714285714285
 40
0.4285714285714285
 40
0.5714285714285714
 40
0.5714285714285714
 40
0.5714285714285714
 40
0.5714285714285714
 40
0.7142857142857142
 40
0.7142857142857142
 40
0.7142857142857142
 40
0.7142857142857142
 40
0.857142857142857
 40
0.857142857142857
 40
0.857142857142857
 40
0.857142857142857
 40
1.0
 40
1.0
 40
1.0
 40
1.0
 10
-10.93486
 20
-13.99341
 30
0.0
 10
-10.93486
 20
-13.99341
 30
0.0
 10
-10.93486
 20
-14.03415
 30
0.0
 10
-10.93486
 20
-14.03415
 30
0.0
 10
-10.93486
 20
-14.03415
 30
0.0
 10
-10.93486
 20
-14.03415
 30
0.0
 10
-10.91406
 20
-14.03415
 30
0.0
 10
-10.91406
 20
-14.03415
 30
0.0
 10
-10.91406
 20
-14.03415
 30
0.0
 10
-10.90676
 20
-14.03415
 30
0.0
 10
-10.90113
 20
-14.03238
 30
0.0
 10
-10.89716
 20
-14.02881
 30
0.0
 10
-10.89716
 20
-14.02881
 30
0.0
 10
-10.8932
 20
-14.02528
 30
0.0
 10
-10.8912
 20
-14.02025
 30
0.0
 10
-10.8912
 20
-14.01375
 30
0.0
 10
-10.8912
 20
-14.01375
 30
0.0
 10
-10.8912
 20
-14.00721
 30
0.0
 10
-10.8932
 20
-14.00221
 30
0.0
 10
-10.89716
 20
-13.99868
 30
0.0
 10
-10.89716
 20
-13.99868
 30
0.0
 10
-10.90113
 20
-13.99518
 30
0.0
 10
-10.90676
 20
-13.99341
 30
0.0
 10
-10.91406
 20
-13.99341
 30
0.0
 10
-10.91406
 20
-13.99341
 30
0.0
 10
-10.91406
 20
-13.99341
 30
0.0
 10
-10.93486
 20
-13.99341
 30
0.0
 10
-10.93486
 20
-13.99341
 30
0.0
  0
SPLINE
  5
6A
330
1F
100
AcDbEntity
  8
Layer 1
 62
   250
100
AcDbSpline
210
0.0
220
0.0
230
1.0
 70
    11
 71
     3
 72
    20
 73
    16
 74
     0
 42
0.0000000001
 43
0.0000000001
 40
0.0
 40
0.0
 40
0.0
 40
0.0
 40
0.25
 40
0.25
 40
0.25
 40
0.25
 40
0.5
 40
0.5
 40
0.5
 40
0.5
 40
0.75
 40
0.75
 40
0.75
 40
0.75
 40
1.0
 40
1.0
 40
1.0
 40
1.0
 10
-10.82589
 20
-13.96618
 30
0.0
 10
-10.82589
 20
-13.96618
 30
0.0
 10
-10.78829
 20
-13.96618
 30
0.0
 10
-10.78829
 20
-13.96618
 30
0.0
 10
-10.78829
 20
-13.96618
 30
0.0
 10
-10.78829
 20
-13.96618
 30
0.0
 10
-10.78829
 20
-14.11198
 30
0.0
 10
-10.78829
 20
-14.11198
 30
0.0
 10
-10.78829
 20
-14.11198
 30
0.0
 10
-10.78829
 20
-14.11198
 30
0.0
 10
-10.82589
 20
-14.11198
 30
0.0
 10
-10.82589
 20
-14.11198
 30
0.0
 10
-10.82589
 20
-14.11198
 30
0.0
 10
-10.82589
 20
-14.11198
 30
0.0
 10
-10.82589
 20
-13.96618
 30
0.0
 10
-10.82589
 20
-13.96618
 30
0.0
  0
SPLINE
  5
6B
330
1F
100
AcDbEntity
  8
Layer 1
 62
   250
100
AcDbSpline
210
0.0
220
0.0
230
1.0
 70
    11
 71
     3
 72
    44
 73
    40
 74
     0
 42
0.0000000001
 43
0.0000000001
 40
0.0
 40
0.0
 40
0.0
 40
0.0
 40
0.1
 40
0.1
 40
0.1
 40
0.1
 40
0.2
 40
0.2
 40
0.2
 40
0.2
 40
0.3
 40
0.3
 40
0.3
 40
0.3
 40
0.4
 40
0.4
 40
0.4
 40
0.4
 40
0.5
 40
0.5
 40
0.5
 40
0.5
 40
0.6
 40
0.6
 40
0.6
 40
0.6
 40
0.7
 40
0.7
 40
0.7
 40
0.7
 40
0.7999999999999999
 40
0.7999999999999999
 40
0.7999999999999999
 40
0.7999999999999999
 40
0.8999999999999999
 40
0.8999999999999999
 40
0.8999999999999999
 40
0.8999999999999999
 40
1.0
 40
1.0
 40
1.0
 40
1.0
 10
-10.75149
 20
-13.96618
 30
0.0
 10
-10.75149
 20
-13.96618
 30
0.0
 10
-10.70949
 20
-13.96618
 30
0.0
 10
-10.70949
 20
-13.96618
 30
0.0
 10
-10.70949
 20
-13.96618
 30
0.0
 10
-10.70949
 20
-13.96618
 30
0.0
 10
-10.65646
 20
-14.06618
 30
0.0
 10
-10.65646
 20
-14.06618
 30
0.0
 10
-10.65646
 20
-14.06618
 30
0.0
 10
-10.65646
 20
-14.06618
 30
0.0
 10
-10.65646
 20
-13.96618
 30
0.0
 10
-10.65646
 20
-13.96618
 30
0.0
 10
-10.65646
 20
-13.96618
 30
0.0
 10
-10.65646
 20
-13.96618
 30
0.0
 10
-10.62083
 20
-13.96618
 30
0.0
 10
-10.62083
 20
-13.96618
 30
0.0
 10
-10.62083
 20
-13.96618
 30
0.0
 10
-10.62083
 20
-13.96618
 30
0.0
 10
-10.62083
 20
-14.11198
 30
0.0
 10
-10.62083
 20
-14.11198
 30
0.0
 10
-10.62083
 20
-14.11198
 30
0.0
 10
-10.62083
 20
-14.11198
 30
0.0
 10
-10.66283
 20
-14.11198
 30
0.0
 10
-10.66283
 20
-14.11198
 30
0.0
 10
-10.66283
 20
-14.11198
 30
0.0
 10
-10.66283
 20
-14.11198
 30
0.0
 10
-10.71586
 20
-14.01198
 30
0.0
 10
-10.71586
 20
-14.01198
 30
0.0
 10
-10.71586
 20
-14.01198
 30
0.0
 10
-10.71586
 20
-14.01198
 30
0.0
 10
-10.71586
 20
-14.11198
 30
0.0
 10
-10.71586
 20
-14.11198
 30
0.0
 10
-10.71586
 20
-14.11198
 30
0.0
 10
-10.71586
 20
-14.11198
 30
0.0
 10
-10.75149
 20
-14.11198
 30
0.0
 10
-10.75149
 20
-14.11198
 30
0.0
 10
-10.75149
 20
-14.11198
 30
0.0
 10
-10.75149
 20
-14.11198
 30
0.0
 10
-10.75149
 20
-13.96618
 30
0.0
 10
-10.75149
 20
-13.96618
 30
0.0
  0
SPLINE
  5
6C
330
1F
100
AcDbEntity
  8
Layer 1
 62
   250
100
AcDbSpline
210
0.0
220
0.0
230
1.0
 70
    11
 71
     3
 72
    56
 73
    52
 74
     0
 42
0.0000000001
 43
0.0000000001
 40
0.0
 40
0.0
 40
0.0
 40
0.0
 40
0.0769230769230769
 40
0.0769230769230769
 40
0.0769230769230769
 40
0.0769230769230769
 40
0.1538461538461539
 40
0.1538461538461539
 40
0.1538461538461539
 40
0.1538461538461539
 40
0.2307692307692308
 40
0.2307692307692308
 40
0.2307692307692308
 40
0.2307692307692308
 40
0.3076923076923077
 40
0.3076923076923077
 40
0.3076923076923077
 40
0.3076923076923077
 40
0.3846153846153846
 40
0.3846153846153846
 40
0.3846153846153846
 40
0.3846153846153846
 40
0.4615384615384616
 40
0.4615384615384616
 40
0.4615384615384616
 40
0.4615384615384616
 40
0.5384615384615385
 40
0.5384615384615385
 40
0.5384615384615385
 40
0.5384615384615385
 40
0.6153846153846154
 40
0.6153846153846154
 40
0.6153846153846154
 40
0.6153846153846154
 40
0.6923076923076923
 40
0.6923076923076923
 40
0.6923076923076923
 40
0.6923076923076923
 40
0.7692307692307692
 40
0.7692307692307692
 40
0.7692307692307692
 40
0.7692307692307692
 40
0.846153846153846
 40
0.846153846153846
 40
0.846153846153846
 40
0.846153846153846
 40
0.9230769230769229
 40
0.9230769230769229
 40
0.9230769230769229
 40
0.9230769230769229
 40
1.0
 40
1.0
 40
1.0
 40
1.0
 10
-10.52689
 20
-13.96618
 30
0.0
 10
-10.52689
 20
-13.96618
 30
0.0
 10
-10.49086
 20
-13.96618
 30
0.0
 10
-10.49086
 20
-13.96618
 30
0.0
 10
-10.49086
 20
-13.96618
 30
0.0
 10
-10.49086
 20
-13.96618
 30
0.0
 10
-10.46566
 20
-14.07215
 30
0.0
 10
-10.46566
 20
-14.07215
 30
0.0
 10
-10.46566
 20
-14.07215
 30
0.0
 10
-10.46566
 20
-14.07215
 30
0.0
 10
-10.44066
 20
-13.96618
 30
0.0
 10
-10.44066
 20
-13.96618
 30
0.0
 10
-10.44066
 20
-13.96618
 30
0.0
 10
-10.44066
 20
-13.96618
 30
0.0
 10
-10.40443
 20
-13.96618
 30
0.0
 10
-10.40443
 20
-13.96618
 30
0.0
 10
-10.40443
 20
-13.96618
 30
0.0
 10
-10.40443
 20
-13.96618
 30
0.0
 10
-10.37943
 20
-14.07215
 30
0.0
 10
-10.37943
 20
-14.07215
 30
0.0
 10
-10.37943
 20
-14.07215
 30
0.0
 10
-10.37943
 20
-14.07215
 30
0.0
 10
-10.35423
 20
-13.96618
 30
0.0
 10
-10.35423
 20
-13.96618
 30
0.0
 10
-10.35423
 20
-13.96618
 30
0.0
 10
-10.35423
 20
-13.96618
 30
0.0
 10
-10.31849
 20
-13.96618
 30
0.0
 10
-10.31849
 20
-13.96618
 30
0.0
 10
-10.31849
 20
-13.96618
 30
0.0
 10
-10.31849
 20
-13.96618
 30
0.0
 10
-10.35286
 20
-14.11198
 30
0.0
 10
-10.35286
 20
-14.11198
 30
0.0
 10
-10.35286
 20
-14.11198
 30
0.0
 10
-10.35286
 20
-14.11198
 30
0.0
 10
-10.39623
 20
-14.11198
 30
0.0
 10
-10.39623
 20
-14.11198
 30
0.0
 10
-10.39623
 20
-14.11198
 30
0.0
 10
-10.39623
 20
-14.11198
 30
0.0
 10
-10.42269
 20
-14.00115
 30
0.0
 10
-10.42269
 20
-14.00115
 30
0.0
 10
-10.42269
 20
-14.00115
 30
0.0
 10
-10.42269
 20
-14.00115
 30
0.0
 10
-10.44886
 20
-14.11198
 30
0.0
 10
-10.44886
 20
-14.11198
 30
0.0
 10
-10.44886
 20
-14.11198
 30
0.0
 10
-10.44886
 20
-14.11198
 30
0.0
 10
-10.49223
 20
-14.11198
 30
0.0
 10
-10.49223
 20
-14.11198
 30
0.0
 10
-10.49223
 20
-14.11198
 30
0.0
 10
-10.49223
 20
-14.11198
 30
0.0
 10
-10.52689
 20
-13.96618
 30
0.0
 10
-10.52689
 20
-13.96618
 30
0.0
  0
SPLINE
  5
6D
330
1F
100
AcDbEntity
  8
Layer 1
 62
   250
100
AcDbSpline
210
0.0
220
0.0
230
1.0
 70
    11
 71
     3
 72
    52
 73
    48
 74
     0
 42
0.0000000001
 43
0.0000000001
 40
0.0
 40
0.0
 40
0.0
 40
0.0
 40
0.0833333333333333
 40
0.0833333333333333
 40
0.0833333333333333
 40
0.0833333333333333
 40
0.1666666666666667
 40
0.1666666666666667
 40
0.1666666666666667
 40
0.1666666666666667
 40
0.25
 40
0.25
 40
0.25
 40
0.25
 40
0.3333333333333333
 40
0.3333333333333333
 40
0.3333333333333333
 40
0.3333333333333333
 40
0.4166666666666666
 40
0.4166666666666666
 40
0.4166666666666666
 40
0.4166666666666666
 40
0.4999999999999999
 40
0.4999999999999999
 40
0.4999999999999999
 40
0.4999999999999999
 40
0.5833333333333333
 40
0.5833333333333333
 40
0.5833333333333333
 40
0.5833333333333333
 40
0.6666666666666666
 40
0.6666666666666666
 40
0.6666666666666666
 40
0.6666666666666666
 40
0.75
 40
0.75
 40
0.75
 40
0.75
 40
0.8333333333333334
 40
0.8333333333333334
 40
0.8333333333333334
 40
0.8333333333333334
 40
0.9166666666666667
 40
0.9166666666666667
 40
0.9166666666666667
 40
0.9166666666666667
 40
1.0
 40
1.0
 40
1.0
 40
1.0
 10
-10.29389
 20
-13.96618
 30
0.0
 10
-10.29389
 20
-13.96618
 30
0.0
 10
-10.25629
 20
-13.96618
 30
0.0
 10
-10.25629
 20
-13.96618
 30
0.0
 10
-10.25629
 20
-13.96618
 30
0.0
 10
-10.25629
 20
-13.96618
 30
0.0
 10
-10.25629
 20
-14.02175
 30
0.0
 10
-10.25629
 20
-14.02175
 30
0.0
 10
-10.25629
 20
-14.02175
 30
0.0
 10
-10.25629
 20
-14.02175
 30
0.0
 10
-10.20083
 20
-14.02175
 30
0.0
 10
-10.20083
 20
-14.02175
 30
0.0
 10
-10.20083
 20
-14.02175
 30
0.0
 10
-10.20083
 20
-14.02175
 30
0.0
 10
-10.20083
 20
-13.96618
 30
0.0
 10
-10.20083
 20
-13.96618
 30
0.0
 10
-10.20083
 20
-13.96618
 30
0.0
 10
-10.20083
 20
-13.96618
 30
0.0
 10
-10.16323
 20
-13.96618
 30
0.0
 10
-10.16323
 20
-13.96618
 30
0.0
 10
-10.16323
 20
-13.96618
 30
0.0
 10
-10.16323
 20
-13.96618
 30
0.0
 10
-10.16323
 20
-14.11198
 30
0.0
 10
-10.16323
 20
-14.11198
 30
0.0
 10
-10.16323
 20
-14.11198
 30
0.0
 10
-10.16323
 20
-14.11198
 30
0.0
 10
-10.20083
 20
-14.11198
 30
0.0
 10
-10.20083
 20
-14.11198
 30
0.0
 10
-10.20083
 20
-14.11198
 30
0.0
 10
-10.20083
 20
-14.11198
 30
0.0
 10
-10.20083
 20
-14.05018
 30
0.0
 10
-10.20083
 20
-14.05018
 30
0.0
 10
-10.20083
 20
-14.05018
 30
0.0
 10
-10.20083
 20
-14.05018
 30
0.0
 10
-10.25629
 20
-14.05018
 30
0.0
 10
-10.25629
 20
-14.05018
 30
0.0
 10
-10.25629
 20
-14.05018
 30
0.0
 10
-10.25629
 20
-14.05018
 30
0.0
 10
-10.25629
 20
-14.11198
 30
0.0
 10
-10.25629
 20
-14.11198
 30
0.0
 10
-10.25629
 20
-14.11198
 30
0.0
 10
-10.25629
 20
-14.11198
 30
0.0
 10
-10.29389
 20
-14.11198
 30
0.0
 10
-10.29389
 20
-14.11198
 30
0.0
 10
-10.29389
 20
-14.11198
 30
0.0
 10
-10.29389
 20
-14.11198
 30
0.0
 10
-10.29389
 20
-13.96618
 30
0.0
 10
-10.29389
 20
-13.96618
 30
0.0
  0
SPLINE
  5
6E
330
1F
100
AcDbEntity
  8
Layer 1
 62
   250
100
AcDbSpline
210
0.0
220
0.0
230
1.0
 70
    11
 71
     3
 72
    20
 73
    16
 74
     0
 42
0.0000000001
 43
0.0000000001
 40
0.0
 40
0.0
 40
0.0
 40
0.0
 40
0.25
 40
0.25
 40
0.25
 40
0.25
 40
0.5
 40
0.5
 40
0.5
 40
0.5
 40
0.75
 40
0.75
 40
0.75
 40
0.75
 40
1.0
 40
1.0
 40
1.0
 40
1.0
 10
-10.12652
 20
-13.96618
 30
0.0
 10
-10.12652
 20
-13.96618
 30
0.0
 10
-10.08892
 20
-13.96618
 30
0.0
 10
-10.08892
 20
-13.96618
 30
0.0
 10
-10.08892
 20
-13.96618
 30
0.0
 10
-10.08892
 20
-13.96618
 30
0.0
 10
-10.08892
 20
-14.11198
 30
0.0
 10
-10.08892
 20
-14.11198
 30
0.0
 10
-10.08892
 20
-14.11198
 30
0.0
 10
-10.08892
 20
-14.11198
 30
0.0
 10
-10.12652
 20
-14.11198
 30
0.0
 10
-10.12652
 20
-14.11198
 30
0.0
 10
-10.12652
 20
-14.11198
 30
0.0
 10
-10.12652
 20
-14.11198
 30
0.0
 10
-10.12652
 20
-13.96618
 30
0.0
 10
-10.12652
 20
-13.96618
 30
0.0
  0
SPLINE
  5
6F
330
1F
100
AcDbEntity
  8
Layer 1
 62
   250
100
AcDbSpline
210
0.0
220
0.0
230
1.0
 70
    11
 71
     3
 72
    36
 73
    32
 74
     0
 42
0.0000000001
 43
0.0000000001
 40
0.0
 40
0.0
 40
0.0
 40
0.0
 40
0.125
 40
0.125
 40
0.125
 40
0.125
 40
0.25
 40
0.25
 40
0.25
 40
0.25
 40
0.375
 40
0.375
 40
0.375
 40
0.375
 40
0.5
 40
0.5
 40
0.5
 40
0.5
 40
0.625
 40
0.625
 40
0.625
 40
0.625
 40
0.75
 40
0.75
 40
0.75
 40
0.75
 40
0.875
 40
0.875
 40
0.875
 40
0.875
 40
1.0
 40
1.0
 40
1.0
 40
1.0
 10
-10.06952
 20
-13.96618
 30
0.0
 10
-10.06952
 20
-13.96618
 30
0.0
 10
-9.93516
 20
-13.96618
 30
0.0
 10
-9.93516
 20
-13.96618
 30
0.0
 10
-9.93516
 20
-13.96618
 30
0.0
 10
-9.93516
 20
-13.96618
 30
0.0
 10
-9.93516
 20
-13.99461
 30
0.0
 10
-9.93516
 20
-13.99461
 30
0.0
 10
-9.93516
 20
-13.99461
 30
0.0
 10
-9.93516
 20
-13.99461
 30
0.0
 10
-9.98349
 20
-13.99461
 30
0.0
 10
-9.98349
 20
-13.99461
 30
0.0
 10
-9.98349
 20
-13.99461
 30
0.0
 10
-9.98349
 20
-13.99461
 30
0.0
 10
-9.98349
 20
-14.11198
 30
0.0
 10
-9.98349
 20
-14.11198
 30
0.0
 10
-9.98349
 20
-14.11198
 30
0.0
 10
-9.98349
 20
-14.11198
 30
0.0
 10
-10.02109
 20
-14.11198
 30
0.0
 10
-10.02109
 20
-14.11198
 30
0.0
 10
-10.02109
 20
-14.11198
 30
0.0
 10
-10.02109
 20
-14.11198
 30
0.0
 10
-10.02109
 20
-13.99461
 30
0.0
 10
-10.02109
 20
-13.99461
 30
0.0
 10
-10.02109
 20
-13.99461
 30
0.0
 10
-10.02109
 20
-13.99461
 30
0.0
 10
-10.06952
 20
-13.99461
 30
0.0
 10
-10.06952
 20
-13.99461
 30
0.0
 10
-10.06952
 20
-13.99461
 30
0.0
 10
-10.06952
 20
-13.99461
 30
0.0
 10
-10.06952
 20
-13.96618
 30
0.0
 10
-10.06952
 20
-13.96618
 30
0.0
  0
SPLINE
  5
70
330
1F
100
AcDbEntity
  8
Layer 1
 62
   250
100
AcDbSpline
210
0.0
220
0.0
230
1.0
 70
    11
 71
     3
 72
    52
 73
    48
 74
     0
 42
0.0000000001
 43
0.0000000001
 40
0.0
 40
0.0
 40
0.0
 40
0.0
 40
0.0833333333333333
 40
0.0833333333333333
 40
0.0833333333333333
 40
0.0833333333333333
 40
0.1666666666666667
 40
0.1666666666666667
 40
0.1666666666666667
 40
0.1666666666666667
 40
0.25
 40
0.25
 40
0.25
 40
0.25
 40
0.3333333333333333
 40
0.3333333333333333
 40
0.3333333333333333
 40
0.3333333333333333
 40
0.4166666666666666
 40
0.4166666666666666
 40
0.4166666666666666
 40
0.4166666666666666
 40
0.4999999999999999
 40
0.4999999999999999
 40
0.4999999999999999
 40
0.4999999999999999
 40
0.5833333333333333
 40
0.5833333333333333
 40
0.5833333333333333
 40
0.5833333333333333
 40
0.6666666666666666
 40
0.6666666666666666
 40
0.6666666666666666
 40
0.6666666666666666
 40
0.75
 40
0.75
 40
0.75
 40
0.75
 40
0.8333333333333334
 40
0.8333333333333334
 40
0.8333333333333334
 40
0.8333333333333334
 40
0.9166666666666667
 40
0.9166666666666667
 40
0.9166666666666667
 40
0.9166666666666667
 40
1.0
 40
1.0
 40
1.0
 40
1.0
 10
-9.91569
 20
-13.96618
 30
0.0
 10
-9.91569
 20
-13.96618
 30
0.0
 10
-9.81423
 20
-13.96618
 30
0.0
 10
-9.81423
 20
-13.96618
 30
0.0
 10
-9.81423
 20
-13.96618
 30
0.0
 10
-9.81423
 20
-13.96618
 30
0.0
 10
-9.81423
 20
-13.99461
 30
0.0
 10
-9.81423
 20
-13.99461
 30
0.0
 10
-9.81423
 20
-13.99461
 30
0.0
 10
-9.81423
 20
-13.99461
 30
0.0
 10
-9.87809
 20
-13.99461
 30
0.0
 10
-9.87809
 20
-13.99461
 30
0.0
 10
-9.87809
 20
-13.99461
 30
0.0
 10
-9.87809
 20
-13.99461
 30
0.0
 10
-9.87809
 20
-14.02175
 30
0.0
 10
-9.87809
 20
-14.02175
 30
0.0
 10
-9.87809
 20
-14.02175
 30
0.0
 10
-9.87809
 20
-14.02175
 30
0.0
 10
-9.81806
 20
-14.02175
 30
0.0
 10
-9.81806
 20
-14.02175
 30
0.0
 10
-9.81806
 20
-14.02175
 30
0.0
 10
-9.81806
 20
-14.02175
 30
0.0
 10
-9.81806
 20
-14.05018
 30
0.0
 10
-9.81806
 20
-14.05018
 30
0.0
 10
-9.81806
 20
-14.05018
 30
0.0
 10
-9.81806
 20
-14.05018
 30
0.0
 10
-9.87809
 20
-14.05018
 30
0.0
 10
-9.87809
 20
-14.05018
 30
0.0
 10
-9.87809
 20
-14.05018
 30
0.0
 10
-9.87809
 20
-14.05018
 30
0.0
 10
-9.87809
 20
-14.08355
 30
0.0
 10
-9.87809
 20
-14.08355
 30
0.0
 10
-9.87809
 20
-14.08355
 30
0.0
 10
-9.87809
 20
-14.08355
 30
0.0
 10
-9.81209
 20
-14.08355
 30
0.0
 10
-9.81209
 20
-14.08355
 30
0.0
 10
-9.81209
 20
-14.08355
 30
0.0
 10
-9.81209
 20
-14.08355
 30
0.0
 10
-9.81209
 20
-14.11198
 30
0.0
 10
-9.81209
 20
-14.11198
 30
0.0
 10
-9.81209
 20
-14.11198
 30
0.0
 10
-9.81209
 20
-14.11198
 30
0.0
 10
-9.91569
 20
-14.11198
 30
0.0
 10
-9.91569
 20
-14.11198
 30
0.0
 10
-9.91569
 20
-14.11198
 30
0.0
 10
-9.91569
 20
-14.11198
 30
0.0
 10
-9.91569
 20
-13.96618
 30
0.0
 10
-9.91569
 20
-13.96618
 30
0.0
  0
SPLINE
  5
71
330
1F
100
AcDbEntity
  8
Layer 1
 62
   250
100
AcDbSpline
210
0.0
220
0.0
230
1.0
 70
    11
 71
     3
 72
    44
 73
    40
 74
     0
 42
0.0000000001
 43
0.0000000001
 40
0.0
 40
0.0
 40
0.0
 40
0.0
 40
0.1
 40
0.1
 40
0.1
 40
0.1
 40
0.2
 40
0.2
 40
0.2
 40
0.2
 40
0.3
 40
0.3
 40
0.3
 40
0.3
 40
0.4
 40
0.4
 40
0.4
 40
0.4
 40
0.5
 40
0.5
 40
0.5
 40
0.5
 40
0.6
 40
0.6
 40
0.6
 40
0.6
 40
0.7
 40
0.7
 40
0.7
 40
0.7
 40
0.7999999999999999
 40
0.7999999999999999
 40
0.7999999999999999
 40
0.7999999999999999
 40
0.8999999999999999
 40
0.8999999999999999
 40
0.8999999999999999
 40
0.8999999999999999
 40
1.0
 40
1.0
 40
1.0
 40
1.0
 10
-11.41827
 20
-14.19898
 30
0.0
 10
-11.41827
 20
-14.19898
 30
0.0
 10
-11.31681
 20
-14.19898
 30
0.0
 10
-11.31681
 20
-14.19898
 30
0.0
 10
-11.31681
 20
-14.19898
 30
0.0
 10
-11.31681
 20
-14.19898
 30
0.0
 10
-11.31681
 20
-14.22741
 30
0.0
 10
-11.31681
 20
-14.22741
 30
0.0
 10
-11.31681
 20
-14.22741
 30
0.0
 10
-11.31681
 20
-14.22741
 30
0.0
 10
-11.38067
 20
-14.22741
 30
0.0
 10
-11.38067
 20
-14.22741
 30
0.0
 10
-11.38067
 20
-14.22741
 30
0.0
 10
-11.38067
 20
-14.22741
 30
0.0
 10
-11.38067
 20
-14.25455
 30
0.0
 10
-11.38067
 20
-14.25455
 30
0.0
 10
-11.38067
 20
-14.25455
 30
0.0
 10
-11.38067
 20
-14.25455
 30
0.0
 10
-11.32061
 20
-14.25455
 30
0.0
 10
-11.32061
 20
-14.25455
 30
0.0
 10
-11.32061
 20
-14.25455
 30
0.0
 10
-11.32061
 20
-14.25455
 30
0.0
 10
-11.32061
 20
-14.28298
 30
0.0
 10
-11.32061
 20
-14.28298
 30
0.0
 10
-11.32061
 20
-14.28298
 30
0.0
 10
-11.32061
 20
-14.28298
 30
0.0
 10
-11.38067
 20
-14.28298
 30
0.0
 10
-11.38067
 20
-14.28298
 30
0.0
 10
-11.38067
 20
-14.28298
 30
0.0
 10
-11.38067
 20
-14.28298
 30
0.0
 10
-11.38067
 20
-14.34478
 30
0.0
 10
-11.38067
 20
-14.34478
 30
0.0
 10
-11.38067
 20
-14.34478
 30
0.0
 10
-11.38067
 20
-14.34478
 30
0.0
 10
-11.41827
 20
-14.34478
 30
0.0
 10
-11.41827
 20
-14.34478
 30
0.0
 10
-11.41827
 20
-14.34478
 30
0.0
 10
-11.41827
 20
-14.34478
 30
0.0
 10
-11.41827
 20
-14.19898
 30
0.0
 10
-11.41827
 20
-14.19898
 30
0.0
  0
SPLINE
  5
72
330
1F
100
AcDbEntity
  8
Layer 1
 62
   250
100
AcDbSpline
210
0.0
220
0.0
230
1.0
 70
    11
 71
     3
 72
    52
 73
    48
 74
     0
 42
0.0000000001
 43
0.0000000001
 40
0.0
 40
0.0
 40
0.0
 40
0.0
 40
0.0833333333333333
 40
0.0833333333333333
 40
0.0833333333333333
 40
0.0833333333333333
 40
0.1666666666666667
 40
0.1666666666666667
 40
0.1666666666666667
 40
0.1666666666666667
 40
0.25
 40
0.25
 40
0.25
 40
0.25
 40
0.3333333333333333
 40
0.3333333333333333
 40
0.3333333333333333
 40
0.3333333333333333
 40
0.4166666666666666
 40
0.4166666666666666
 40
0.4166666666666666
 40
0.4166666666666666
 40
0.4999999999999999
 40
0.4999999999999999
 40
0.4999999999999999
 40
0.4999999999999999
 40
0.5833333333333333
 40
0.5833333333333333
 40
0.5833333333333333
 40
0.5833333333333333
 40
0.6666666666666666
 40
0.6666666666666666
 40
0.6666666666666666
 40
0.6666666666666666
 40
0.75
 40
0.75
 40
0.75
 40
0.75
 40
0.8333333333333334
 40
0.8333333333333334
 40
0.8333333333333334
 40
0.8333333333333334
 40
0.9166666666666667
 40
0.9166666666666667
 40
0.9166666666666667
 40
0.9166666666666667
 40
1.0
 40
1.0
 40
1.0
 40
1.0
 10
-11.28164
 20
-14.19898
 30
0.0
 10
-11.28164
 20
-14.19898
 30
0.0
 10
-11.18018
 20
-14.19898
 30
0.0
 10
-11.18018
 20
-14.19898
 30
0.0
 10
-11.18018
 20
-14.19898
 30
0.0
 10
-11.18018
 20
-14.19898
 30
0.0
 10
-11.18018
 20
-14.22741
 30
0.0
 10
-11.18018
 20
-14.22741
 30
0.0
 10
-11.18018
 20
-14.22741
 30
0.0
 10
-11.18018
 20
-14.22741
 30
0.0
 10
-11.24404
 20
-14.22741
 30
0.0
 10
-11.24404
 20
-14.22741
 30
0.0
 10
-11.24404
 20
-14.22741
 30
0.0
 10
-11.24404
 20
-14.22741
 30
0.0
 10
-11.24404
 20
-14.25455
 30
0.0
 10
-11.24404
 20
-14.25455
 30
0.0
 10
-11.24404
 20
-14.25455
 30
0.0
 10
-11.24404
 20
-14.25455
 30
0.0
 10
-11.18401
 20
-14.25455
 30
0.0
 10
-11.18401
 20
-14.25455
 30
0.0
 10
-11.18401
 20
-14.25455
 30
0.0
 10
-11.18401
 20
-14.25455
 30
0.0
 10
-11.18401
 20
-14.28298
 30
0.0
 10
-11.18401
 20
-14.28298
 30
0.0
 10
-11.18401
 20
-14.28298
 30
0.0
 10
-11.18401
 20
-14.28298
 30
0.0
 10
-11.24404
 20
-14.28298
 30
0.0
 10
-11.24404
 20
-14.28298
 30
0.0
 10
-11.24404
 20
-14.28298
 30
0.0
 10
-11.24404
 20
-14.28298
 30
0.0
 10
-11.24404
 20
-14.31635
 30
0.0
 10
-11.24404
 20
-14.31635
 30
0.0
 10
-11.24404
 20
-14.31635
 30
0.0
 10
-11.24404
 20
-14.31635
 30
0.0
 10
-11.17804
 20
-14.31635
 30
0.0
 10
-11.17804
 20
-14.31635
 30
0.0
 10
-11.17804
 20
-14.31635
 30
0.0
 10
-11.17804
 20
-14.31635
 30
0.0
 10
-11.17804
 20
-14.34478
 30
0.0
 10
-11.17804
 20
-14.34478
 30
0.0
 10
-11.17804
 20
-14.34478
 30
0.0
 10
-11.17804
 20
-14.34478
 30
0.0
 10
-11.28164
 20
-14.34478
 30
0.0
 10
-11.28164
 20
-14.34478
 30
0.0
 10
-11.28164
 20
-14.34478
 30
0.0
 10
-11.28164
 20
-14.34478
 30
0.0
 10
-11.28164
 20
-14.19898
 30
0.0
 10
-11.28164
 20
-14.19898
 30
0.0
  0
SPLINE
  5
73
330
1F
100
AcDbEntity
  8
Layer 1
 62
   250
100
AcDbSpline
210
0.0
220
0.0
230
1.0
 70
    11
 71
     3
 72
    56
 73
    52
 74
     0
 42
0.0000000001
 43
0.0000000001
 40
0.0
 40
0.0
 40
0.0
 40
0.0
 40
0.0769230769230769
 40
0.0769230769230769
 40
0.0769230769230769
 40
0.0769230769230769
 40
0.1538461538461539
 40
0.1538461538461539
 40
0.1538461538461539
 40
0.1538461538461539
 40
0.2307692307692308
 40
0.2307692307692308
 40
0.2307692307692308
 40
0.2307692307692308
 40
0.3076923076923077
 40
0.3076923076923077
 40
0.3076923076923077
 40
0.3076923076923077
 40
0.3846153846153846
 40
0.3846153846153846
 40
0.3846153846153846
 40
0.3846153846153846
 40
0.4615384615384616
 40
0.4615384615384616
 40
0.4615384615384616
 40
0.4615384615384616
 40
0.5384615384615385
 40
0.5384615384615385
 40
0.5384615384615385
 40
0.5384615384615385
 40
0.6153846153846154
 40
0.6153846153846154
 40
0.6153846153846154
 40
0.6153846153846154
 40
0.6923076923076923
 40
0.6923076923076923
 40
0.6923076923076923
 40
0.6923076923076923
 40
0.7692307692307692
 40
0.7692307692307692
 40
0.7692307692307692
 40
0.7692307692307692
 40
0.846153846153846
 40
0.846153846153846
 40
0.846153846153846
 40
0.846153846153846
 40
0.9230769230769229
 40
0.9230769230769229
 40
0.9230769230769229
 40
0.9230769230769229
 40
1.0
 40
1.0
 40
1.0
 40
1.0
 10
-11.14501
 20
-14.19898
 30
0.0
 10
-11.14501
 20
-14.19898
 30
0.0
 10
-11.09718
 20
-14.19898
 30
0.0
 10
-11.09718
 20
-14.19898
 30
0.0
 10
-11.09718
 20
-14.19898
 30
0.0
 10
-11.09718
 20
-14.19898
 30
0.0
 10
-11.06395
 20
-14.27701
 30
0.0
 10
-11.06395
 20
-14.27701
 30
0.0
 10
-11.06395
 20
-14.27701
 30
0.0
 10
-11.06395
 20
-14.27701
 30
0.0
 10
-11.03055
 20
-14.19898
 30
0.0
 10
-11.03055
 20
-14.19898
 30
0.0
 10
-11.03055
 20
-14.19898
 30
0.0
 10
-11.03055
 20
-14.19898
 30
0.0
 10
-10.98281
 20
-14.19898
 30
0.0
 10
-10.98281
 20
-14.19898
 30
0.0
 10
-10.98281
 20
-14.19898
 30
0.0
 10
-10.98281
 20
-14.19898
 30
0.0
 10
-10.98281
 20
-14.34478
 30
0.0
 10
-10.98281
 20
-14.34478
 30
0.0
 10
-10.98281
 20
-14.34478
 30
0.0
 10
-10.98281
 20
-14.34478
 30
0.0
 10
-11.01835
 20
-14.34478
 30
0.0
 10
-11.01835
 20
-14.34478
 30
0.0
 10
-11.01835
 20
-14.34478
 30
0.0
 10
-11.01835
 20
-14.34478
 30
0.0
 10
-11.01835
 20
-14.23815
 30
0.0
 10
-11.01835
 20
-14.23815
 30
0.0
 10
-11.01835
 20
-14.23815
 30
0.0
 10
-11.01835
 20
-14.23815
 30
0.0
 10
-11.05195
 20
-14.31675
 30
0.0
 10
-11.05195
 20
-14.31675
 30
0.0
 10
-11.05195
 20
-14.31675
 30
0.0
 10
-11.05195
 20
-14.31675
 30
0.0
 10
-11.07578
 20
-14.31675
 30
0.0
 10
-11.07578
 20
-14.31675
 30
0.0
 10
-11.07578
 20
-14.31675
 30
0.0
 10
-11.07578
 20
-14.31675
 30
0.0
 10
-11.10938
 20
-14.23815
 30
0.0
 10
-11.10938
 20
-14.23815
 30
0.0
 10
-11.10938
 20
-14.23815
 30
0.0
 10
-11.10938
 20
-14.23815
 30
0.0
 10
-11.10938
 20
-14.34478
 30
0.0
 10
-11.10938
 20
-14.34478
 30
0.0
 10
-11.10938
 20
-14.34478
 30
0.0
 10
-11.10938
 20
-14.34478
 30
0.0
 10
-11.14501
 20
-14.34478
 30
0.0
 10
-11.14501
 20
-14.34478
 30
0.0
 10
-11.14501
 20
-14.34478
 30
0.0
 10
-11.14501
 20
-14.34478
 30
0.0
 10
-11.14501
 20
-14.19898
 30
0.0
 10
-11.14501
 20
-14.19898
 30
0.0
  0
SPLINE
  5
74
330
1F
100
AcDbEntity
  8
Layer 1
 62
   250
100
AcDbSpline
210
0.0
220
0.0
230
1.0
 70
    11
 71
     3
 72
    36
 73
    32
 74
     0
 42
0.0000000001
 43
0.0000000001
 40
0.0
 40
0.0
 40
0.0
 40
0.0
 40
0.125
 40
0.125
 40
0.125
 40
0.125
 40
0.25
 40
0.25
 40
0.25
 40
0.25
 40
0.375
 40
0.375
 40
0.375
 40
0.375
 40
0.5
 40
0.5
 40
0.5
 40
0.5
 40
0.625
 40
0.625
 40
0.625
 40
0.625
 40
0.75
 40
0.75
 40
0.75
 40
0.75
 40
0.875
 40
0.875
 40
0.875
 40
0.875
 40
1.0
 40
1.0
 40
1.0
 40
1.0
 10
-10.85752
 20
-14.31825
 30
0.0
 10
-10.85752
 20
-14.31825
 30
0.0
 10
-10.91632
 20
-14.31825
 30
0.0
 10
-10.91632
 20
-14.31825
 30
0.0
 10
-10.91632
 20
-14.31825
 30
0.0
 10
-10.91632
 20
-14.31825
 30
0.0
 10
-10.92558
 20
-14.34478
 30
0.0
 10
-10.92558
 20
-14.34478
 30
0.0
 10
-10.92558
 20
-14.34478
 30
0.0
 10
-10.92558
 20
-14.34478
 30
0.0
 10
-10.96338
 20
-14.34478
 30
0.0
 10
-10.96338
 20
-14.34478
 30
0.0
 10
-10.96338
 20
-14.34478
 30
0.0
 10
-10.96338
 20
-14.34478
 30
0.0
 10
-10.90938
 20
-14.19898
 30
0.0
 10
-10.90938
 20
-14.19898
 30
0.0
 10
-10.90938
 20
-14.19898
 30
0.0
 10
-10.90938
 20
-14.19898
 30
0.0
 10
-10.86455
 20
-14.19898
 30
0.0
 10
-10.86455
 20
-14.19898
 30
0.0
 10
-10.86455
 20
-14.19898
 30
0.0
 10
-10.86455
 20
-14.19898
 30
0.0
 10
-10.81055
 20
-14.34478
 30
0.0
 10
-10.81055
 20
-14.34478
 30
0.0
 10
-10.81055
 20
-14.34478
 30
0.0
 10
-10.81055
 20
-14.34478
 30
0.0
 10
-10.84835
 20
-14.34478
 30
0.0
 10
-10.84835
 20
-14.34478
 30
0.0
 10
-10.84835
 20
-14.34478
 30
0.0
 10
-10.84835
 20
-14.34478
 30
0.0
 10
-10.85752
 20
-14.31825
 30
0.0
 10
-10.85752
 20
-14.31825
 30
0.0
  0
SPLINE
  5
75
330
1F
100
AcDbEntity
  8
Layer 1
 62
   250
100
AcDbSpline
210
0.0
220
0.0
230
1.0
 70
    11
 71
     3
 72
    16
 73
    12
 74
     0
 42
0.0000000001
 43
0.0000000001
 40
0.0
 40
0.0
 40
0.0
 40
0.0
 40
0.3333333333333333
 40
0.3333333333333333
 40
0.3333333333333333
 40
0.3333333333333333
 40
0.6666666666666666
 40
0.6666666666666666
 40
0.6666666666666666
 40
0.6666666666666666
 40
1.0
 40
1.0
 40
1.0
 40
1.0
 10
-10.90695
 20
-14.29118
 30
0.0
 10
-10.90695
 20
-14.29118
 30
0.0
 10
-10.86698
 20
-14.29118
 30
0.0
 10
-10.86698
 20
-14.29118
 30
0.0
 10
-10.86698
 20
-14.29118
 30
0.0
 10
-10.86698
 20
-14.29118
 30
0.0
 10
-10.88692
 20
-14.23318
 30
0.0
 10
-10.88692
 20
-14.23318
 30
0.0
 10
-10.88692
 20
-14.23318
 30
0.0
 10
-10.88692
 20
-14.23318
 30
0.0
 10
-10.90695
 20
-14.29118
 30
0.0
 10
-10.90695
 20
-14.29118
 30
0.0
  0
SPLINE
  5
76
330
1F
100
AcDbEntity
  8
Layer 1
 62
   250
100
AcDbSpline
210
0.0
220
0.0
230
1.0
 70
    11
 71
     3
 72
    28
 73
    24
 74
     0
 42
0.0000000001
 43
0.0000000001
 40
0.0
 40
0.0
 40
0.0
 40
0.0
 40
0.1666666666666667
 40
0.1666666666666667
 40
0.1666666666666667
 40
0.1666666666666667
 40
0.3333333333333333
 40
0.3333333333333333
 40
0.3333333333333333
 40
0.3333333333333333
 40
0.5
 40
0.5
 40
0.5
 40
0.5
 40
0.6666666666666666
 40
0.6666666666666666
 40
0.6666666666666666
 40
0.6666666666666666
 40
0.8333333333333333
 40
0.8333333333333333
 40
0.8333333333333333
 40
0.8333333333333333
 40
1.0
 40
1.0
 40
1.0
 40
1.0
 10
-10.79118
 20
-14.19898
 30
0.0
 10
-10.79118
 20
-14.19898
 30
0.0
 10
-10.75358
 20
-14.19898
 30
0.0
 10
-10.75358
 20
-14.19898
 30
0.0
 10
-10.75358
 20
-14.19898
 30
0.0
 10
-10.75358
 20
-14.19898
 30
0.0
 10
-10.75358
 20
-14.31635
 30
0.0
 10
-10.75358
 20
-14.31635
 30
0.0
 10
-10.75358
 20
-14.31635
 30
0.0
 10
-10.75358
 20
-14.31635
 30
0.0
 10
-10.68758
 20
-14.31635
 30
0.0
 10
-10.68758
 20
-14.31635
 30
0.0
 10
-10.68758
 20
-14.31635
 30
0.0
 10
-10.68758
 20
-14.31635
 30
0.0
 10
-10.68758
 20
-14.34478
 30
0.0
 10
-10.68758
 20
-14.34478
 30
0.0
 10
-10.68758
 20
-14.34478
 30
0.0
 10
-10.68758
 20
-14.34478
 30
0.0
 10
-10.79118
 20
-14.34478
 30
0.0
 10
-10.79118
 20
-14.34478
 30
0.0
 10
-10.79118
 20
-14.34478
 30
0.0
 10
-10.79118
 20
-14.34478
 30
0.0
 10
-10.79118
 20
-14.19898
 30
0.0
 10
-10.79118
 20
-14.19898
 30
0.0
  0
SPLINE
  5
77
330
1F
100
AcDbEntity
  8
Layer 1
 62
   250
100
AcDbSpline
210
0.0
220
0.0
230
1.0
 70
    11
 71
     3
 72
    52
 73
    48
 74
     0
 42
0.0000000001
 43
0.0000000001
 40
0.0
 40
0.0
 40
0.0
 40
0.0
 40
0.0833333333333333
 40
0.0833333333333333
 40
0.0833333333333333
 40
0.0833333333333333
 40
0.1666666666666667
 40
0.1666666666666667
 40
0.1666666666666667
 40
0.1666666666666667
 40
0.25
 40
0.25
 40
0.25
 40
0.25
 40
0.3333333333333333
 40
0.3333333333333333
 40
0.3333333333333333
 40
0.3333333333333333
 40
0.4166666666666666
 40
0.4166666666666666
 40
0.4166666666666666
 40
0.4166666666666666
 40
0.4999999999999999
 40
0.4999999999999999
 40
0.4999999999999999
 40
0.4999999999999999
 40
0.5833333333333333
 40
0.5833333333333333
 40
0.5833333333333333
 40
0.5833333333333333
 40
0.6666666666666666
 40
0.6666666666666666
 40
0.6666666666666666
 40
0.6666666666666666
 40
0.75
 40
0.75
 40
0.75
 40
0.75
 40
0.8333333333333334
 40
0.8333333333333334
 40
0.8333333333333334
 40
0.8333333333333334
 40
0.9166666666666667
 40
0.9166666666666667
 40
0.9166666666666667
 40
0.9166666666666667
 40
1.0
 40
1.0
 40
1.0
 40
1.0
 10
-10.66375
 20
-14.19898
 30
0.0
 10
-10.66375
 20
-14.19898
 30
0.0
 10
-10.56229
 20
-14.19898
 30
0.0
 10
-10.56229
 20
-14.19898
 30
0.0
 10
-10.56229
 20
-14.19898
 30
0.0
 10
-10.56229
 20
-14.19898
 30
0.0
 10
-10.56229
 20
-14.22741
 30
0.0
 10
-10.56229
 20
-14.22741
 30
0.0
 10
-10.56229
 20
-14.22741
 30
0.0
 10
-10.56229
 20
-14.22741
 30
0.0
 10
-10.62615
 20
-14.22741
 30
0.0
 10
-10.62615
 20
-14.22741
 30
0.0
 10
-10.62615
 20
-14.22741
 30
0.0
 10
-10.62615
 20
-14.22741
 30
0.0
 10
-10.62615
 20
-14.25455
 30
0.0
 10
-10.62615
 20
-14.25455
 30
0.0
 10
-10.62615
 20
-14.25455
 30
0.0
 10
-10.62615
 20
-14.25455
 30
0.0
 10
-10.56612
 20
-14.25455
 30
0.0
 10
-10.56612
 20
-14.25455
 30
0.0
 10
-10.56612
 20
-14.25455
 30
0.0
 10
-10.56612
 20
-14.25455
 30
0.0
 10
-10.56612
 20
-14.28298
 30
0.0
 10
-10.56612
 20
-14.28298
 30
0.0
 10
-10.56612
 20
-14.28298
 30
0.0
 10
-10.56612
 20
-14.28298
 30
0.0
 10
-10.62615
 20
-14.28298
 30
0.0
 10
-10.62615
 20
-14.28298
 30
0.0
 10
-10.62615
 20
-14.28298
 30
0.0
 10
-10.62615
 20
-14.28298
 30
0.0
 10
-10.62615
 20
-14.31635
 30
0.0
 10
-10.62615
 20
-14.31635
 30
0.0
 10
-10.62615
 20
-14.31635
 30
0.0
 10
-10.62615
 20
-14.31635
 30
0.0
 10
-10.56015
 20
-14.31635
 30
0.0
 10
-10.56015
 20
-14.31635
 30
0.0
 10
-10.56015
 20
-14.31635
 30
0.0
 10
-10.56015
 20
-14.31635
 30
0.0
 10
-10.56015
 20
-14.34478
 30
0.0
 10
-10.56015
 20
-14.34478
 30
0.0
 10
-10.56015
 20
-14.34478
 30
0.0
 10
-10.56015
 20
-14.34478
 30
0.0
 10
-10.66375
 20
-14.34478
 30
0.0
 10
-10.66375
 20
-14.34478
 30
0.0
 10
-10.66375
 20
-14.34478
 30
0.0
 10
-10.66375
 20
-14.34478
 30
0.0
 10
-10.66375
 20
-14.19898
 30
0.0
 10
-10.66375
 20
-14.19898
 30
0.0
  0
SPLINE
  5
78
330
1F
100
AcDbEntity
  8
Layer 1
 62
   250
100
AcDbSpline
210
0.0
220
0.0
230
1.0
 70
    11
 71
     3
 72
    52
 73
    48
 74
     0
 42
0.0000000001
 43
0.0000000001
 40
0.0
 40
0.0
 40
0.0
 40
0.0
 40
0.0833333333333333
 40
0.0833333333333333
 40
0.0833333333333333
 40
0.0833333333333333
 40
0.1666666666666667
 40
0.1666666666666667
 40
0.1666666666666667
 40
0.1666666666666667
 40
0.25
 40
0.25
 40
0.25
 40
0.25
 40
0.3333333333333333
 40
0.3333333333333333
 40
0.3333333333333333
 40
0.3333333333333333
 40
0.4166666666666666
 40
0.4166666666666666
 40
0.4166666666666666
 40
0.4166666666666666
 40
0.4999999999999999
 40
0.4999999999999999
 40
0.4999999999999999
 40
0.4999999999999999
 40
0.5833333333333333
 40
0.5833333333333333
 40
0.5833333333333333
 40
0.5833333333333333
 40
0.6666666666666666
 40
0.6666666666666666
 40
0.6666666666666666
 40
0.6666666666666666
 40
0.75
 40
0.75
 40
0.75
 40
0.75
 40
0.8333333333333334
 40
0.8333333333333334
 40
0.8333333333333334
 40
0.8333333333333334
 40
0.9166666666666667
 40
0.9166666666666667
 40
0.9166666666666667
 40
0.9166666666666667
 40
1.0
 40
1.0
 40
1.0
 40
1.0
 10
-10.45749
 20
-14.19898
 30
0.0
 10
-10.45749
 20
-14.19898
 30
0.0
 10
-10.41989
 20
-14.19898
 30
0.0
 10
-10.41989
 20
-14.19898
 30
0.0
 10
-10.41989
 20
-14.19898
 30
0.0
 10
-10.41989
 20
-14.19898
 30
0.0
 10
-10.41989
 20
-14.25455
 30
0.0
 10
-10.41989
 20
-14.25455
 30
0.0
 10
-10.41989
 20
-14.25455
 30
0.0
 10
-10.41989
 20
-14.25455
 30
0.0
 10
-10.36443
 20
-14.25455
 30
0.0
 10
-10.36443
 20
-14.25455
 30
0.0
 10
-10.36443
 20
-14.25455
 30
0.0
 10
-10.36443
 20
-14.25455
 30
0.0
 10
-10.36443
 20
-14.19898
 30
0.0
 10
-10.36443
 20
-14.19898
 30
0.0
 10
-10.36443
 20
-14.19898
 30
0.0
 10
-10.36443
 20
-14.19898
 30
0.0
 10
-10.32683
 20
-14.19898
 30
0.0
 10
-10.32683
 20
-14.19898
 30
0.0
 10
-10.32683
 20
-14.19898
 30
0.0
 10
-10.32683
 20
-14.19898
 30
0.0
 10
-10.32683
 20
-14.34478
 30
0.0
 10
-10.32683
 20
-14.34478
 30
0.0
 10
-10.32683
 20
-14.34478
 30
0.0
 10
-10.32683
 20
-14.34478
 30
0.0
 10
-10.36443
 20
-14.34478
 30
0.0
 10
-10.36443
 20
-14.34478
 30
0.0
 10
-10.36443
 20
-14.34478
 30
0.0
 10
-10.36443
 20
-14.34478
 30
0.0
 10
-10.36443
 20
-14.28298
 30
0.0
 10
-10.36443
 20
-14.28298
 30
0.0
 10
-10.36443
 20
-14.28298
 30
0.0
 10
-10.36443
 20
-14.28298
 30
0.0
 10
-10.41989
 20
-14.28298
 30
0.0
 10
-10.41989
 20
-14.28298
 30
0.0
 10
-10.41989
 20
-14.28298
 30
0.0
 10
-10.41989
 20
-14.28298
 30
0.0
 10
-10.41989
 20
-14.34478
 30
0.0
 10
-10.41989
 20
-14.34478
 30
0.0
 10
-10.41989
 20
-14.34478
 30
0.0
 10
-10.41989
 20
-14.34478
 30
0.0
 10
-10.45749
 20
-14.34478
 30
0.0
 10
-10.45749
 20
-14.34478
 30
0.0
 10
-10.45749
 20
-14.34478
 30
0.0
 10
-10.45749
 20
-14.34478
 30
0.0
 10
-10.45749
 20
-14.19898
 30
0.0
 10
-10.45749
 20
-14.19898
 30
0.0
  0
SPLINE
  5
79
330
1F
100
AcDbEntity
  8
Layer 1
 62
   250
100
AcDbSpline
210
0.0
220
0.0
230
1.0
 70
    11
 71
     3
 72
    52
 73
    48
 74
     0
 42
0.0000000001
 43
0.0000000001
 40
0.0
 40
0.0
 40
0.0
 40
0.0
 40
0.0833333333333333
 40
0.0833333333333333
 40
0.0833333333333333
 40
0.0833333333333333
 40
0.1666666666666667
 40
0.1666666666666667
 40
0.1666666666666667
 40
0.1666666666666667
 40
0.25
 40
0.25
 40
0.25
 40
0.25
 40
0.3333333333333333
 40
0.3333333333333333
 40
0.3333333333333333
 40
0.3333333333333333
 40
0.4166666666666666
 40
0.4166666666666666
 40
0.4166666666666666
 40
0.4166666666666666
 40
0.4999999999999999
 40
0.4999999999999999
 40
0.4999999999999999
 40
0.4999999999999999
 40
0.5833333333333333
 40
0.5833333333333333
 40
0.5833333333333333
 40
0.5833333333333333
 40
0.6666666666666666
 40
0.6666666666666666
 40
0.6666666666666666
 40
0.6666666666666666
 40
0.75
 40
0.75
 40
0.75
 40
0.75
 40
0.8333333333333334
 40
0.8333333333333334
 40
0.8333333333333334
 40
0.8333333333333334
 40
0.9166666666666667
 40
0.9166666666666667
 40
0.9166666666666667
 40
0.9166666666666667
 40
1.0
 40
1.0
 40
1.0
 40
1.0
 10
-10.29012
 20
-14.19898
 30
0.0
 10
-10.29012
 20
-14.19898
 30
0.0
 10
-10.18866
 20
-14.19898
 30
0.0
 10
-10.18866
 20
-14.19898
 30
0.0
 10
-10.18866
 20
-14.19898
 30
0.0
 10
-10.18866
 20
-14.19898
 30
0.0
 10
-10.18866
 20
-14.22741
 30
0.0
 10
-10.18866
 20
-14.22741
 30
0.0
 10
-10.18866
 20
-14.22741
 30
0.0
 10
-10.18866
 20
-14.22741
 30
0.0
 10
-10.25252
 20
-14.22741
 30
0.0
 10
-10.25252
 20
-14.22741
 30
0.0
 10
-10.25252
 20
-14.22741
 30
0.0
 10
-10.25252
 20
-14.22741
 30
0.0
 10
-10.25252
 20
-14.25455
 30
0.0
 10
-10.25252
 20
-14.25455
 30
0.0
 10
-10.25252
 20
-14.25455
 30
0.0
 10
-10.25252
 20
-14.25455
 30
0.0
 10
-10.19249
 20
-14.25455
 30
0.0
 10
-10.19249
 20
-14.25455
 30
0.0
 10
-10.19249
 20
-14.25455
 30
0.0
 10
-10.19249
 20
-14.25455
 30
0.0
 10
-10.19249
 20
-14.28298
 30
0.0
 10
-10.19249
 20
-14.28298
 30
0.0
 10
-10.19249
 20
-14.28298
 30
0.0
 10
-10.19249
 20
-14.28298
 30
0.0
 10
-10.25252
 20
-14.28298
 30
0.0
 10
-10.25252
 20
-14.28298
 30
0.0
 10
-10.25252
 20
-14.28298
 30
0.0
 10
-10.25252
 20
-14.28298
 30
0.0
 10
-10.25252
 20
-14.31635
 30
0.0
 10
-10.25252
 20
-14.31635
 30
0.0
 10
-10.25252
 20
-14.31635
 30
0.0
 10
-10.25252
 20
-14.31635
 30
0.0
 10
-10.18652
 20
-14.31635
 30
0.0
 10
-10.18652
 20
-14.31635
 30
0.0
 10
-10.18652
 20
-14.31635
 30
0.0
 10
-10.18652
 20
-14.31635
 30
0.0
 10
-10.18652
 20
-14.34478
 30
0.0
 10
-10.18652
 20
-14.34478
 30
0.0
 10
-10.18652
 20
-14.34478
 30
0.0
 10
-10.18652
 20
-14.34478
 30
0.0
 10
-10.29012
 20
-14.34478
 30
0.0
 10
-10.29012
 20
-14.34478
 30
0.0
 10
-10.29012
 20
-14.34478
 30
0.0
 10
-10.29012
 20
-14.34478
 30
0.0
 10
-10.29012
 20
-14.19898
 30
0.0
 10
-10.29012
 20
-14.19898
 30
0.0
  0
SPLINE
  5
7A
330
1F
100
AcDbEntity
  8
Layer 1
 62
   250
100
AcDbSpline
210
0.0
220
0.0
230
1.0
 70
    11
 71
     3
 72
    36
 73
    32
 74
     0
 42
0.0000000001
 43
0.0000000001
 40
0.0
 40
0.0
 40
0.0
 40
0.0
 40
0.125
 40
0.125
 40
0.125
 40
0.125
 40
0.25
 40
0.25
 40
0.25
 40
0.25
 40
0.375
 40
0.375
 40
0.375
 40
0.375
 40
0.5
 40
0.5
 40
0.5
 40
0.5
 40
0.625
 40
0.625
 40
0.625
 40
0.625
 40
0.75
 40
0.75
 40
0.75
 40
0.75
 40
0.875
 40
0.875
 40
0.875
 40
0.875
 40
1.0
 40
1.0
 40
1.0
 40
1.0
 10
-10.06503
 20
-14.31825
 30
0.0
 10
-10.06503
 20
-14.31825
 30
0.0
 10
-10.12383
 20
-14.31825
 30
0.0
 10
-10.12383
 20
-14.31825
 30
0.0
 10
-10.12383
 20
-14.31825
 30
0.0
 10
-10.12383
 20
-14.31825
 30
0.0
 10
-10.13309
 20
-14.34478
 30
0.0
 10
-10.13309
 20
-14.34478
 30
0.0
 10
-10.13309
 20
-14.34478
 30
0.0
 10
-10.13309
 20
-14.34478
 30
0.0
 10
-10.17089
 20
-14.34478
 30
0.0
 10
-10.17089
 20
-14.34478
 30
0.0
 10
-10.17089
 20
-14.34478
 30
0.0
 10
-10.17089
 20
-14.34478
 30
0.0
 10
-10.11689
 20
-14.19898
 30
0.0
 10
-10.11689
 20
-14.19898
 30
0.0
 10
-10.11689
 20
-14.19898
 30
0.0
 10
-10.11689
 20
-14.19898
 30
0.0
 10
-10.07206
 20
-14.19898
 30
0.0
 10
-10.07206
 20
-14.19898
 30
0.0
 10
-10.07206
 20
-14.19898
 30
0.0
 10
-10.07206
 20
-14.19898
 30
0.0
 10
-10.01806
 20
-14.34478
 30
0.0
 10
-10.01806
 20
-14.34478
 30
0.0
 10
-10.01806
 20
-14.34478
 30
0.0
 10
-10.01806
 20
-14.34478
 30
0.0
 10
-10.05586
 20
-14.34478
 30
0.0
 10
-10.05586
 20
-14.34478
 30
0.0
 10
-10.05586
 20
-14.34478
 30
0.0
 10
-10.05586
 20
-14.34478
 30
0.0
 10
-10.06503
 20
-14.31825
 30
0.0
 10
-10.06503
 20
-14.31825
 30
0.0
  0
SPLINE
  5
7B
330
1F
100
AcDbEntity
  8
Layer 1
 62
   250
100
AcDbSpline
210
0.0
220
0.0
230
1.0
 70
    11
 71
     3
 72
    16
 73
    12
 74
     0
 42
0.0000000001
 43
0.0000000001
 40
0.0
 40
0.0
 40
0.0
 40
0.0
 40
0.3333333333333333
 40
0.3333333333333333
 40
0.3333333333333333
 40
0.3333333333333333
 40
0.6666666666666666
 40
0.6666666666666666
 40
0.6666666666666666
 40
0.6666666666666666
 40
1.0
 40
1.0
 40
1.0
 40
1.0
 10
-10.11446
 20
-14.29118
 30
0.0
 10
-10.11446
 20
-14.29118
 30
0.0
 10
-10.07449
 20
-14.29118
 30
0.0
 10
-10.07449
 20
-14.29118
 30
0.0
 10
-10.07449
 20
-14.29118
 30
0.0
 10
-10.07449
 20
-14.29118
 30
0.0
 10
-10.09443
 20
-14.23318
 30
0.0
 10
-10.09443
 20
-14.23318
 30
0.0
 10
-10.09443
 20
-14.23318
 30
0.0
 10
-10.09443
 20
-14.23318
 30
0.0
 10
-10.11446
 20
-14.29118
 30
0.0
 10
-10.11446
 20
-14.29118
 30
0.0
  0
SPLINE
  5
7C
330
1F
100
AcDbEntity
  8
Layer 1
 62
   250
100
AcDbSpline
210
0.0
220
0.0
230
1.0
 70
    11
 71
     3
 72
    32
 73
    28
 74
     0
 42
0.0000000001
 43
0.0000000001
 40
0.0
 40
0.0
 40
0.0
 40
0.0
 40
0.1428571428571428
 40
0.1428571428571428
 40
0.1428571428571428
 40
0.1428571428571428
 40
0.2857142857142857
 40
0.2857142857142857
 40
0.2857142857142857
 40
0.2857142857142857
 40
0.4285714285714285
 40
0.4285714285714285
 40
0.4285714285714285
 40
0.4285714285714285
 40
0.5714285714285714
 40
0.5714285714285714
 40
0.5714285714285714
 40
0.5714285714285714
 40
0.7142857142857142
 40
0.7142857142857142
 40
0.7142857142857142
 40
0.7142857142857142
 40
0.857142857142857
 40
0.857142857142857
 40
0.857142857142857
 40
0.857142857142857
 40
1.0
 40
1.0
 40
1.0
 40
1.0
 10
-9.96109
 20
-14.22741
 30
0.0
 10
-9.96109
 20
-14.22741
 30
0.0
 10
-9.96109
 20
-14.31635
 30
0.0
 10
-9.96109
 20
-14.31635
 30
0.0
 10
-9.96109
 20
-14.31635
 30
0.0
 10
-9.96109
 20
-14.31635
 30
0.0
 10
-9.94763
 20
-14.31635
 30
0.0
 10
-9.94763
 20
-14.31635
 30
0.0
 10
-9.94763
 20
-14.31635
 30
0.0
 10
-9.93226
 20
-14.31635
 30
0.0
 10
-9.92053
 20
-14.31255
 30
0.0
 10
-9.91243
 20
-14.30491
 30
0.0
 10
-9.91243
 20
-14.30491
 30
0.0
 10
-9.90433
 20
-14.29731
 30
0.0
 10
-9.90026
 20
-14.28625
 30
0.0
 10
-9.90026
 20
-14.27175
 30
0.0
 10
-9.90026
 20
-14.27175
 30
0.0
 10
-9.90026
 20
-14.25728
 30
0.0
 10
-9.90429
 20
-14.24628
 30
0.0
 10
-9.91236
 20
-14.23875
 30
0.0
 10
-9.91236
 20
-14.23875
 30
0.0
 10
-9.92043
 20
-14.23118
 30
0.0
 10
-9.93219
 20
-14.22741
 30
0.0
 10
-9.94763
 20
-14.22741
 30
0.0
 10
-9.94763
 20
-14.22741
 30
0.0
 10
-9.94763
 20
-14.22741
 30
0.0
 10
-9.96109
 20
-14.22741
 30
0.0
 10
-9.96109
 20
-14.22741
 30
0.0
  0
SPLINE
  5
7D
330
1F
100
AcDbEntity
  8
Layer 1
 62
   250
100
AcDbSpline
210
0.0
220
0.0
230
1.0
 70
    11
 71
     3
 72
    48
 73
    44
 74
     0
 42
0.0000000001
 43
0.0000000001
 40
0.0
 40
0.0
 40
0.0
 40
0.0
 40
0.0909090909090909
 40
0.0909090909090909
 40
0.0909090909090909
 40
0.0909090909090909
 40
0.1818181818181818
 40
0.1818181818181818
 40
0.1818181818181818
 40
0.1818181818181818
 40
0.2727272727272727
 40
0.2727272727272727
 40
0.2727272727272727
 40
0.2727272727272727
 40
0.3636363636363636
 40
0.3636363636363636
 40
0.3636363636363636
 40
0.3636363636363636
 40
0.4545454545454546
 40
0.4545454545454546
 40
0.4545454545454546
 40
0.4545454545454546
 40
0.5454545454545455
 40
0.5454545454545455
 40
0.5454545454545455
 40
0.5454545454545455
 40
0.6363636363636365
 40
0.6363636363636365
 40
0.6363636363636365
 40
0.6363636363636365
 40
0.7272727272727274
 40
0.7272727272727274
 40
0.7272727272727274
 40
0.7272727272727274
 40
0.8181818181818183
 40
0.8181818181818183
 40
0.8181818181818183
 40
0.8181818181818183
 40
0.9090909090909093
 40
0.9090909090909093
 40
0.9090909090909093
 40
0.9090909090909093
 40
1.0
 40
1.0
 40
1.0
 40
1.0
 10
-9.99869
 20
-14.19898
 30
0.0
 10
-9.99869
 20
-14.19898
 30
0.0
 10
-9.95903
 20
-14.19898
 30
0.0
 10
-9.95903
 20
-14.19898
 30
0.0
 10
-9.95903
 20
-14.19898
 30
0.0
 10
-9.93689
 20
-14.19898
 30
0.0
 10
-9.92043
 20
-14.20055
 30
0.0
 10
-9.90959
 20
-14.20371
 30
0.0
 10
-9.90959
 20
-14.20371
 30
0.0
 10
-9.89876
 20
-14.20688
 30
0.0
 10
-9.88946
 20
-14.21221
 30
0.0
 10
-9.88169
 20
-14.21978
 30
0.0
 10
-9.88169
 20
-14.21978
 30
0.0
 10
-9.87486
 20
-14.22635
 30
0.0
 10
-9.86979
 20
-14.23395
 30
0.0
 10
-9.86646
 20
-14.24255
 30
0.0
 10
-9.86646
 20
-14.24255
 30
0.0
 10
-9.86316
 20
-14.25111
 30
0.0
 10
-9.86149
 20
-14.26085
 30
0.0
 10
-9.86149
 20
-14.27175
 30
0.0
 10
-9.86149
 20
-14.27175
 30
0.0
 10
-9.86149
 20
-14.28275
 30
0.0
 10
-9.86316
 20
-14.29255
 30
0.0
 10
-9.86646
 20
-14.30118
 30
0.0
 10
-9.86646
 20
-14.30118
 30
0.0
 10
-9.86979
 20
-14.30981
 30
0.0
 10
-9.87486
 20
-14.31741
 30
0.0
 10
-9.88169
 20
-14.32398
 30
0.0
 10
-9.88169
 20
-14.32398
 30
0.0
 10
-9.88953
 20
-14.33155
 30
0.0
 10
-9.89889
 20
-14.33688
 30
0.0
 10
-9.90983
 20
-14.34005
 30
0.0
 10
-9.90983
 20
-14.34005
 30
0.0
 10
-9.92076
 20
-14.34321
 30
0.0
 10
-9.93716
 20
-14.34478
 30
0.0
 10
-9.95903
 20
-14.34478
 30
0.0
 10
-9.95903
 20
-14.34478
 30
0.0
 10
-9.95903
 20
-14.34478
 30
0.0
 10
-9.99869
 20
-14.34478
 30
0.0
 10
-9.99869
 20
-14.34478
 30
0.0
 10
-9.99869
 20
-14.34478
 30
0.0
 10
-9.99869
 20
-14.34478
 30
0.0
 10
-9.99869
 20
-14.19898
 30
0.0
 10
-9.99869
 20
-14.19898
 30
0.0
  0
SPLINE
  5
7E
330
1F
100
AcDbEntity
  8
Layer 1
 62
   250
100
AcDbSpline
210
0.0
220
0.0
230
1.0
 70
    11
 71
     3
 72
    52
 73
    48
 74
     0
 42
0.0000000001
 43
0.0000000001
 40
0.0
 40
0.0
 40
0.0
 40
0.0
 40
0.0833333333333333
 40
0.0833333333333333
 40
0.0833333333333333
 40
0.0833333333333333
 40
0.1666666666666667
 40
0.1666666666666667
 40
0.1666666666666667
 40
0.1666666666666667
 40
0.25
 40
0.25
 40
0.25
 40
0.25
 40
0.3333333333333333
 40
0.3333333333333333
 40
0.3333333333333333
 40
0.3333333333333333
 40
0.4166666666666666
 40
0.4166666666666666
 40
0.4166666666666666
 40
0.4166666666666666
 40
0.4999999999999999
 40
0.4999999999999999
 40
0.4999999999999999
 40
0.4999999999999999
 40
0.5833333333333333
 40
0.5833333333333333
 40
0.5833333333333333
 40
0.5833333333333333
 40
0.6666666666666666
 40
0.6666666666666666
 40
0.6666666666666666
 40
0.6666666666666666
 40
0.75
 40
0.75
 40
0.75
 40
0.75
 40
0.8333333333333334
 40
0.8333333333333334
 40
0.8333333333333334
 40
0.8333333333333334
 40
0.9166666666666667
 40
0.9166666666666667
 40
0.9166666666666667
 40
0.9166666666666667
 40
1.0
 40
1.0
 40
1.0
 40
1.0
 10
-9.83269
 20
-14.19898
 30
0.0
 10
-9.83269
 20
-14.19898
 30
0.0
 10
-9.73123
 20
-14.19898
 30
0.0
 10
-9.73123
 20
-14.19898
 30
0.0
 10
-9.73123
 20
-14.19898
 30
0.0
 10
-9.73123
 20
-14.19898
 30
0.0
 10
-9.73123
 20
-14.22741
 30
0.0
 10
-9.73123
 20
-14.22741
 30
0.0
 10
-9.73123
 20
-14.22741
 30
0.0
 10
-9.73123
 20
-14.22741
 30
0.0
 10
-9.79509
 20
-14.22741
 30
0.0
 10
-9.79509
 20
-14.22741
 30
0.0
 10
-9.79509
 20
-14.22741
 30
0.0
 10
-9.79509
 20
-14.22741
 30
0.0
 10
-9.79509
 20
-14.25455
 30
0.0
 10
-9.79509
 20
-14.25455
 30
0.0
 10
-9.79509
 20
-14.25455
 30
0.0
 10
-9.79509
 20
-14.25455
 30
0.0
 10
-9.73506
 20
-14.25455
 30
0.0
 10
-9.73506
 20
-14.25455
 30
0.0
 10
-9.73506
 20
-14.25455
 30
0.0
 10
-9.73506
 20
-14.25455
 30
0.0
 10
-9.73506
 20
-14.28298
 30
0.0
 10
-9.73506
 20
-14.28298
 30
0.0
 10
-9.73506
 20
-14.28298
 30
0.0
 10
-9.73506
 20
-14.28298
 30
0.0
 10
-9.79509
 20
-14.28298
 30
0.0
 10
-9.79509
 20
-14.28298
 30
0.0
 10
-9.79509
 20
-14.28298
 30
0.0
 10
-9.79509
 20
-14.28298
 30
0.0
 10
-9.79509
 20
-14.31635
 30
0.0
 10
-9.79509
 20
-14.31635
 30
0.0
 10
-9.79509
 20
-14.31635
 30
0.0
 10
-9.79509
 20
-14.31635
 30
0.0
 10
-9.72909
 20
-14.31635
 30
0.0
 10
-9.72909
 20
-14.31635
 30
0.0
 10
-9.72909
 20
-14.31635
 30
0.0
 10
-9.72909
 20
-14.31635
 30
0.0
 10
-9.72909
 20
-14.34478
 30
0.0
 10
-9.72909
 20
-14.34478
 30
0.0
 10
-9.72909
 20
-14.34478
 30
0.0
 10
-9.72909
 20
-14.34478
 30
0.0
 10
-9.83269
 20
-14.34478
 30
0.0
 10
-9.83269
 20
-14.34478
 30
0.0
 10
-9.83269
 20
-14.34478
 30
0.0
 10
-9.83269
 20
-14.34478
 30
0.0
 10
-9.83269
 20
-14.19898
 30
0.0
 10
-9.83269
 20
-14.19898
 30
0.0
  0
SPLINE
  5
7F
330
1F
100
AcDbEntity
  8
Layer 1
 62
   250
100
AcDbSpline
210
0.0
220
0.0
230
1.0
 70
    11
 71
     3
 72
    32
 73
    28
 74
     0
 42
0.0000000001
 43
0.0000000001
 40
0.0
 40
0.0
 40
0.0
 40
0.0
 40
0.1428571428571428
 40
0.1428571428571428
 40
0.1428571428571428
 40
0.1428571428571428
 40
0.2857142857142857
 40
0.2857142857142857
 40
0.2857142857142857
 40
0.2857142857142857
 40
0.4285714285714285
 40
0.4285714285714285
 40
0.4285714285714285
 40
0.4285714285714285
 40
0.5714285714285714
 40
0.5714285714285714
 40
0.5714285714285714
 40
0.5714285714285714
 40
0.7142857142857142
 40
0.7142857142857142
 40
0.7142857142857142
 40
0.7142857142857142
 40
0.857142857142857
 40
0.857142857142857
 40
0.857142857142857
 40
0.857142857142857
 40
1.0
 40
1.0
 40
1.0
 40
1.0
 10
-9.64263
 20
-14.26365
 30
0.0
 10
-9.63476
 20
-14.26365
 30
0.0
 10
-9.6291
 20
-14.26218
 30
0.0
 10
-9.6257
 20
-14.25925
 30
0.0
 10
-9.6257
 20
-14.25925
 30
0.0
 10
-9.62226
 20
-14.25631
 30
0.0
 10
-9.62056
 20
-14.25148
 30
0.0
 10
-9.62056
 20
-14.24478
 30
0.0
 10
-9.62056
 20
-14.24478
 30
0.0
 10
-9.62056
 20
-14.23815
 30
0.0
 10
-9.62226
 20
-14.23338
 30
0.0
 10
-9.6257
 20
-14.23051
 30
0.0
 10
-9.6257
 20
-14.23051
 30
0.0
 10
-9.6291
 20
-14.22765
 30
0.0
 10
-9.63476
 20
-14.22621
 30
0.0
 10
-9.64263
 20
-14.22621
 30
0.0
 10
-9.64263
 20
-14.22621
 30
0.0
 10
-9.64263
 20
-14.22621
 30
0.0
 10
-9.65846
 20
-14.22621
 30
0.0
 10
-9.65846
 20
-14.22621
 30
0.0
 10
-9.65846
 20
-14.22621
 30
0.0
 10
-9.65846
 20
-14.22621
 30
0.0
 10
-9.65846
 20
-14.26365
 30
0.0
 10
-9.65846
 20
-14.26365
 30
0.0
 10
-9.65846
 20
-14.26365
 30
0.0
 10
-9.65846
 20
-14.26365
 30
0.0
 10
-9.64263
 20
-14.26365
 30
0.0
 10
-9.64263
 20
-14.26365
 30
0.0
  0
SPLINE
  5
80
330
1F
100
AcDbEntity
  8
Layer 1
 62
   250
100
AcDbSpline
210
0.0
220
0.0
230
1.0
 70
    11
 71
     3
 72
    68
 73
    64
 74
     0
 42
0.0000000001
 43
0.0000000001
 40
0.0
 40
0.0
 40
0.0
 40
0.0
 40
0.0625
 40
0.0625
 40
0.0625
 40
0.0625
 40
0.125
 40
0.125
 40
0.125
 40
0.125
 40
0.1875
 40
0.1875
 40
0.1875
 40
0.1875
 40
0.25
 40
0.25
 40
0.25
 40
0.25
 40
0.3125
 40
0.3125
 40
0.3125
 40
0.3125
 40
0.375
 40
0.375
 40
0.375
 40
0.375
 40
0.4375
 40
0.4375
 40
0.4375
 40
0.4375
 40
0.5
 40
0.5
 40
0.5
 40
0.5
 40
0.5625
 40
0.5625
 40
0.5625
 40
0.5625
 40
0.625
 40
0.625
 40
0.625
 40
0.625
 40
0.6875
 40
0.6875
 40
0.6875
 40
0.6875
 40
0.75
 40
0.75
 40
0.75
 40
0.75
 40
0.8125
 40
0.8125
 40
0.8125
 40
0.8125
 40
0.875
 40
0.875
 40
0.875
 40
0.875
 40
0.9375
 40
0.9375
 40
0.9375
 40
0.9375
 40
1.0
 40
1.0
 40
1.0
 40
1.0
 10
-9.65846
 20
-14.28961
 30
0.0
 10
-9.65846
 20
-14.28961
 30
0.0
 10
-9.65846
 20
-14.34478
 30
0.0
 10
-9.65846
 20
-14.34478
 30
0.0
 10
-9.65846
 20
-14.34478
 30
0.0
 10
-9.65846
 20
-14.34478
 30
0.0
 10
-9.69606
 20
-14.34478
 30
0.0
 10
-9.69606
 20
-14.34478
 30
0.0
 10
-9.69606
 20
-14.34478
 30
0.0
 10
-9.69606
 20
-14.34478
 30
0.0
 10
-9.69606
 20
-14.19898
 30
0.0
 10
-9.69606
 20
-14.19898
 30
0.0
 10
-9.69606
 20
-14.19898
 30
0.0
 10
-9.69606
 20
-14.19898
 30
0.0
 10
-9.63863
 20
-14.19898
 30
0.0
 10
-9.63863
 20
-14.19898
 30
0.0
 10
-9.63863
 20
-14.19898
 30
0.0
 10
-9.61943
 20
-14.19898
 30
0.0
 10
-9.60533
 20
-14.20221
 30
0.0
 10
-9.5964
 20
-14.20865
 30
0.0
 10
-9.5964
 20
-14.20865
 30
0.0
 10
-9.58743
 20
-14.21508
 30
0.0
 10
-9.58296
 20
-14.22528
 30
0.0
 10
-9.58296
 20
-14.23921
 30
0.0
 10
-9.58296
 20
-14.23921
 30
0.0
 10
-9.58296
 20
-14.24885
 30
0.0
 10
-9.5853
 20
-14.25678
 30
0.0
 10
-9.58993
 20
-14.26295
 30
0.0
 10
-9.58993
 20
-14.26295
 30
0.0
 10
-9.5946
 20
-14.26915
 30
0.0
 10
-9.60163
 20
-14.27371
 30
0.0
 10
-9.611
 20
-14.27661
 30
0.0
 10
-9.611
 20
-14.27661
 30
0.0
 10
-9.60586
 20
-14.27781
 30
0.0
 10
-9.60123
 20
-14.28045
 30
0.0
 10
-9.59716
 20
-14.28458
 30
0.0
 10
-9.59716
 20
-14.28458
 30
0.0
 10
-9.5931
 20
-14.28871
 30
0.0
 10
-9.589
 20
-14.29498
 30
0.0
 10
-9.58483
 20
-14.30338
 30
0.0
 10
-9.58483
 20
-14.30338
 30
0.0
 10
-9.58483
 20
-14.30338
 30
0.0
 10
-9.5644
 20
-14.34478
 30
0.0
 10
-9.5644
 20
-14.34478
 30
0.0
 10
-9.5644
 20
-14.34478
 30
0.0
 10
-9.5644
 20
-14.34478
 30
0.0
 10
-9.60446
 20
-14.34478
 30
0.0
 10
-9.60446
 20
-14.34478
 30
0.0
 10
-9.60446
 20
-14.34478
 30
0.0
 10
-9.60446
 20
-14.34478
 30
0.0
 10
-9.62223
 20
-14.30855
 30
0.0
 10
-9.62223
 20
-14.30855
 30
0.0
 10
-9.62223
 20
-14.30855
 30
0.0
 10
-9.6258
 20
-14.30128
 30
0.0
 10
-9.62943
 20
-14.29628
 30
0.0
 10
-9.63313
 20
-14.29361
 30
0.0
 10
-9.63313
 20
-14.29361
 30
0.0
 10
-9.6368
 20
-14.29095
 30
0.0
 10
-9.6417
 20
-14.28961
 30
0.0
 10
-9.64783
 20
-14.28961
 30
0.0
 10
-9.64783
 20
-14.28961
 30
0.0
 10
-9.64783
 20
-14.28961
 30
0.0
 10
-9.65846
 20
-14.28961
 30
0.0
 10
-9.65846
 20
-14.28961
 30
0.0
  0
SPLINE
  5
81
330
1F
100
AcDbEntity
  8
Layer 1
 62
   250
100
AcDbSpline
210
0.0
220
0.0
230
1.0
 70
    11
 71
     3
 72
    36
 73
    32
 74
     0
 42
0.0000000001
 43
0.0000000001
 40
0.0
 40
0.0
 40
0.0
 40
0.0
 40
0.125
 40
0.125
 40
0.125
 40
0.125
 40
0.25
 40
0.25
 40
0.25
 40
0.25
 40
0.375
 40
0.375
 40
0.375
 40
0.375
 40
0.5
 40
0.5
 40
0.5
 40
0.5
 40
0.625
 40
0.625
 40
0.625
 40
0.625
 40
0.75
 40
0.75
 40
0.75
 40
0.75
 40
0.875
 40
0.875
 40
0.875
 40
0.875
 40
1.0
 40
1.0
 40
1.0
 40
1.0
 10
-10.84476
 20
-14.43639
 30
0.0
 10
-10.84958
 20
-14.43639
 30
0.0
 10
-10.8534
 20
-14.43827
 30
0.0
 10
-10.8562
 20
-14.44202
 30
0.0
 10
-10.8562
 20
-14.44202
 30
0.0
 10
-10.859
 20
-14.44579
 30
0.0
 10
-10.8604
 20
-14.45094
 30
0.0
 10
-10.8604
 20
-14.45747
 30
0.0
 10
-10.8604
 20
-14.45747
 30
0.0
 10
-10.8604
 20
-14.46402
 30
0.0
 10
-10.859
 20
-14.46917
 30
0.0
 10
-10.85621
 20
-14.47294
 30
0.0
 10
-10.85621
 20
-14.47294
 30
0.0
 10
-10.85343
 20
-14.47669
 30
0.0
 10
-10.84961
 20
-14.47857
 30
0.0
 10
-10.84476
 20
-14.47857
 30
0.0
 10
-10.84476
 20
-14.47857
 30
0.0
 10
-10.83998
 20
-14.47857
 30
0.0
 10
-10.83618
 20
-14.47669
 30
0.0
 10
-10.83338
 20
-14.4729
 30
0.0
 10
-10.83338
 20
-14.4729
 30
0.0
 10
-10.83058
 20
-14.46914
 30
0.0
 10
-10.82918
 20
-14.46399
 30
0.0
 10
-10.82918
 20
-14.45747
 30
0.0
 10
-10.82918
 20
-14.45747
 30
0.0
 10
-10.82918
 20
-14.451
 30
0.0
 10
-10.83058
 20
-14.44587
 30
0.0
 10
-10.83338
 20
-14.44207
 30
0.0
 10
-10.83338
 20
-14.44207
 30
0.0
 10
-10.83618
 20
-14.43829
 30
0.0
 10
-10.83998
 20
-14.43639
 30
0.0
 10
-10.84476
 20
-14.43639
 30
0.0
  0
SPLINE
  5
82
330
1F
100
AcDbEntity
  8
Layer 1
 62
   250
100
AcDbSpline
210
0.0
220
0.0
230
1.0
 70
    11
 71
     3
 72
    36
 73
    32
 74
     0
 42
0.0000000001
 43
0.0000000001
 40
0.0
 40
0.0
 40
0.0
 40
0.0
 40
0.125
 40
0.125
 40
0.125
 40
0.125
 40
0.25
 40
0.25
 40
0.25
 40
0.25
 40
0.375
 40
0.375
 40
0.375
 40
0.375
 40
0.5
 40
0.5
 40
0.5
 40
0.5
 40
0.625
 40
0.625
 40
0.625
 40
0.625
 40
0.75
 40
0.75
 40
0.75
 40
0.75
 40
0.875
 40
0.875
 40
0.875
 40
0.875
 40
1.0
 40
1.0
 40
1.0
 40
1.0
 10
-10.84476
 20
-14.42877
 30
0.0
 10
-10.83695
 20
-14.42877
 30
0.0
 10
-10.83081
 20
-14.4313
 30
0.0
 10
-10.82635
 20
-14.43639
 30
0.0
 10
-10.82635
 20
-14.43639
 30
0.0
 10
-10.8219
 20
-14.44147
 30
0.0
 10
-10.81966
 20
-14.44849
 30
0.0
 10
-10.81966
 20
-14.45747
 30
0.0
 10
-10.81966
 20
-14.45747
 30
0.0
 10
-10.81966
 20
-14.46644
 30
0.0
 10
-10.8219
 20
-14.47345
 30
0.0
 10
-10.82635
 20
-14.47855
 30
0.0
 10
-10.82635
 20
-14.47855
 30
0.0
 10
-10.83081
 20
-14.48364
 30
0.0
 10
-10.83695
 20
-14.48619
 30
0.0
 10
-10.84476
 20
-14.48619
 30
0.0
 10
-10.84476
 20
-14.48619
 30
0.0
 10
-10.85261
 20
-14.48619
 30
0.0
 10
-10.85875
 20
-14.48364
 30
0.0
 10
-10.8632
 20
-14.47855
 30
0.0
 10
-10.8632
 20
-14.47855
 30
0.0
 10
-10.86765
 20
-14.47345
 30
0.0
 10
-10.86986
 20
-14.46644
 30
0.0
 10
-10.86986
 20
-14.45747
 30
0.0
 10
-10.86986
 20
-14.45747
 30
0.0
 10
-10.86986
 20
-14.44849
 30
0.0
 10
-10.86765
 20
-14.44147
 30
0.0
 10
-10.8632
 20
-14.43639
 30
0.0
 10
-10.8632
 20
-14.43639
 30
0.0
 10
-10.85875
 20
-14.4313
 30
0.0
 10
-10.85261
 20
-14.42877
 30
0.0
 10
-10.84476
 20
-14.42877
 30
0.0
  0
SPLINE
  5
83
330
1F
100
AcDbEntity
  8
Layer 1
 62
   250
100
AcDbSpline
210
0.0
220
0.0
230
1.0
 70
    11
 71
     3
 72
    36
 73
    32
 74
     0
 42
0.0000000001
 43
0.0000000001
 40
0.0
 40
0.0
 40
0.0
 40
0.0
 40
0.125
 40
0.125
 40
0.125
 40
0.125
 40
0.25
 40
0.25
 40
0.25
 40
0.25
 40
0.375
 40
0.375
 40
0.375
 40
0.375
 40
0.5
 40
0.5
 40
0.5
 40
0.5
 40
0.625
 40
0.625
 40
0.625
 40
0.625
 40
0.75
 40
0.75
 40
0.75
 40
0.75
 40
0.875
 40
0.875
 40
0.875
 40
0.875
 40
1.0
 40
1.0
 40
1.0
 40
1.0
 10
-10.78358
 20
-14.43639
 30
0.0
 10
-10.7884
 20
-14.43639
 30
0.0
 10
-10.79222
 20
-14.43827
 30
0.0
 10
-10.79502
 20
-14.44202
 30
0.0
 10
-10.79502
 20
-14.44202
 30
0.0
 10
-10.79782
 20
-14.44579
 30
0.0
 10
-10.79922
 20
-14.45094
 30
0.0
 10
-10.79922
 20
-14.45747
 30
0.0
 10
-10.79922
 20
-14.45747
 30
0.0
 10
-10.79922
 20
-14.46402
 30
0.0
 10
-10.79782
 20
-14.46917
 30
0.0
 10
-10.79503
 20
-14.47294
 30
0.0
 10
-10.79503
 20
-14.47294
 30
0.0
 10
-10.79225
 20
-14.47669
 30
0.0
 10
-10.78843
 20
-14.47857
 30
0.0
 10
-10.78358
 20
-14.47857
 30
0.0
 10
-10.78358
 20
-14.47857
 30
0.0
 10
-10.7788
 20
-14.47857
 30
0.0
 10
-10.775
 20
-14.47669
 30
0.0
 10
-10.7722
 20
-14.4729
 30
0.0
 10
-10.7722
 20
-14.4729
 30
0.0
 10
-10.7694
 20
-14.46914
 30
0.0
 10
-10.768
 20
-14.46399
 30
0.0
 10
-10.768
 20
-14.45747
 30
0.0
 10
-10.768
 20
-14.45747
 30
0.0
 10
-10.768
 20
-14.451
 30
0.0
 10
-10.7694
 20
-14.44587
 30
0.0
 10
-10.7722
 20
-14.44207
 30
0.0
 10
-10.7722
 20
-14.44207
 30
0.0
 10
-10.775
 20
-14.43829
 30
0.0
 10
-10.7788
 20
-14.43639
 30
0.0
 10
-10.78358
 20
-14.43639
 30
0.0
  0
SPLINE
  5
84
330
1F
100
AcDbEntity
  8
Layer 1
 62
   250
100
AcDbSpline
210
0.0
220
0.0
230
1.0
 70
    11
 71
     3
 72
    36
 73
    32
 74
     0
 42
0.0000000001
 43
0.0000000001
 40
0.0
 40
0.0
 40
0.0
 40
0.0
 40
0.125
 40
0.125
 40
0.125
 40
0.125
 40
0.25
 40
0.25
 40
0.25
 40
0.25
 40
0.375
 40
0.375
 40
0.375
 40
0.375
 40
0.5
 40
0.5
 40
0.5
 40
0.5
 40
0.625
 40
0.625
 40
0.625
 40
0.625
 40
0.75
 40
0.75
 40
0.75
 40
0.75
 40
0.875
 40
0.875
 40
0.875
 40
0.875
 40
1.0
 40
1.0
 40
1.0
 40
1.0
 10
-10.78358
 20
-14.42877
 30
0.0
 10
-10.77577
 20
-14.42877
 30
0.0
 10
-10.76963
 20
-14.4313
 30
0.0
 10
-10.76517
 20
-14.43639
 30
0.0
 10
-10.76517
 20
-14.43639
 30
0.0
 10
-10.76072
 20
-14.44147
 30
0.0
 10
-10.75848
 20
-14.44849
 30
0.0
 10
-10.75848
 20
-14.45747
 30
0.0
 10
-10.75848
 20
-14.45747
 30
0.0
 10
-10.75848
 20
-14.46644
 30
0.0
 10
-10.76072
 20
-14.47345
 30
0.0
 10
-10.76517
 20
-14.47855
 30
0.0
 10
-10.76517
 20
-14.47855
 30
0.0
 10
-10.76963
 20
-14.48364
 30
0.0
 10
-10.77577
 20
-14.48619
 30
0.0
 10
-10.78358
 20
-14.48619
 30
0.0
 10
-10.78358
 20
-14.48619
 30
0.0
 10
-10.79143
 20
-14.48619
 30
0.0
 10
-10.79757
 20
-14.48364
 30
0.0
 10
-10.80202
 20
-14.47855
 30
0.0
 10
-10.80202
 20
-14.47855
 30
0.0
 10
-10.80647
 20
-14.47345
 30
0.0
 10
-10.80868
 20
-14.46644
 30
0.0
 10
-10.80868
 20
-14.45747
 30
0.0
 10
-10.80868
 20
-14.45747
 30
0.0
 10
-10.80868
 20
-14.44849
 30
0.0
 10
-10.80647
 20
-14.44147
 30
0.0
 10
-10.80202
 20
-14.43639
 30
0.0
 10
-10.80202
 20
-14.43639
 30
0.0
 10
-10.79757
 20
-14.4313
 30
0.0
 10
-10.79143
 20
-14.42877
 30
0.0
 10
-10.78358
 20
-14.42877
 30
0.0
  0
SPLINE
  5
85
330
1F
100
AcDbEntity
  8
Layer 1
 62
   250
100
AcDbSpline
210
0.0
220
0.0
230
1.0
 70
    11
 71
     3
 72
   112
 73
   108
 74
     0
 42
0.0000000001
 43
0.0000000001
 40
0.0
 40
0.0
 40
0.0
 40
0.0
 40
0.037037037037037
 40
0.037037037037037
 40
0.037037037037037
 40
0.037037037037037
 40
0.0740740740740741
 40
0.0740740740740741
 40
0.0740740740740741
 40
0.0740740740740741
 40
0.1111111111111111
 40
0.1111111111111111
 40
0.1111111111111111
 40
0.1111111111111111
 40
0.1481481481481481
 40
0.1481481481481481
 40
0.1481481481481481
 40
0.1481481481481481
 40
0.1851851851851852
 40
0.1851851851851852
 40
0.1851851851851852
 40
0.1851851851851852
 40
0.2222222222222222
 40
0.2222222222222222
 40
0.2222222222222222
 40
0.2222222222222222
 40
0.2592592592592592
 40
0.2592592592592592
 40
0.2592592592592592
 40
0.2592592592592592
 40
0.2962962962962963
 40
0.2962962962962963
 40
0.2962962962962963
 40
0.2962962962962963
 40
0.3333333333333333
 40
0.3333333333333333
 40
0.3333333333333333
 40
0.3333333333333333
 40
0.3703703703703703
 40
0.3703703703703703
 40
0.3703703703703703
 40
0.3703703703703703
 40
0.4074074074074074
 40
0.4074074074074074
 40
0.4074074074074074
 40
0.4074074074074074
 40
0.4444444444444444
 40
0.4444444444444444
 40
0.4444444444444444
 40
0.4444444444444444
 40
0.4814814814814815
 40
0.4814814814814815
 40
0.4814814814814815
 40
0.4814814814814815
 40
0.5185185185185185
 40
0.5185185185185185
 40
0.5185185185185185
 40
0.5185185185185185
 40
0.5555555555555556
 40
0.5555555555555556
 40
0.5555555555555556
 40
0.5555555555555556
 40
0.5925925925925926
 40
0.5925925925925926
 40
0.5925925925925926
 40
0.5925925925925926
 40
0.6296296296296295
 40
0.6296296296296295
 40
0.6296296296296295
 40
0.6296296296296295
 40
0.6666666666666665
 40
0.6666666666666665
 40
0.6666666666666665
 40
0.6666666666666665
 40
0.7037037037037035
 40
0.7037037037037035
 40
0.7037037037037035
 40
0.7037037037037035
 40
0.7407407407407405
 40
0.7407407407407405
 40
0.7407407407407405
 40
0.7407407407407405
 40
0.7777777777777775
 40
0.7777777777777775
 40
0.7777777777777775
 40
0.7777777777777775
 40
0.8148148148148144
 40
0.8148148148148144
 40
0.8148148148148144
 40
0.8148148148148144
 40
0.8518518518518514
 40
0.8518518518518514
 40
0.8518518518518514
 40
0.8518518518518514
 40
0.8888888888888884
 40
0.8888888888888884
 40
0.8888888888888884
 40
0.8888888888888884
 40
0.9259259259259254
 40
0.9259259259259254
 40
0.9259259259259254
 40
0.9259259259259254
 40
0.9629629629629624
 40
0.9629629629629624
 40
0.9629629629629624
 40
0.9629629629629624
 40
1.0
 40
1.0
 40
1.0
 40
1.0
 10
-10.70102
 20
-14.44059
 30
0.0
 10
-10.69877
 20
-14.43655
 30
0.0
 10
-10.69609
 20
-14.43357
 30
0.0
 10
-10.69295
 20
-14.43165
 30
0.0
 10
-10.69295
 20
-14.43165
 30
0.0
 10
-10.68984
 20
-14.42974
 30
0.0
 10
-10.68615
 20
-14.42877
 30
0.0
 10
-10.68192
 20
-14.42877
 30
0.0
 10
-10.68192
 20
-14.42877
 30
0.0
 10
-10.67624
 20
-14.42877
 30
0.0
 10
-10.67184
 20
-14.43077
 30
0.0
 10
-10.66874
 20
-14.43475
 30
0.0
 10
-10.66874
 20
-14.43475
 30
0.0
 10
-10.66565
 20
-14.43874
 30
0.0
 10
-10.6641
 20
-14.4444
 30
0.0
 10
-10.6641
 20
-14.45177
 30
0.0
 10
-10.6641
 20
-14.45177
 30
0.0
 10
-10.6641
 20
-14.45177
 30
0.0
 10
-10.6641
 20
-14.48477
 30
0.0
 10
-10.6641
 20
-14.48477
 30
0.0
 10
-10.6641
 20
-14.48477
 30
0.0
 10
-10.6641
 20
-14.48477
 30
0.0
 10
-10.67314
 20
-14.48477
 30
0.0
 10
-10.67314
 20
-14.48477
 30
0.0
 10
-10.67314
 20
-14.48477
 30
0.0
 10
-10.67314
 20
-14.48477
 30
0.0
 10
-10.67314
 20
-14.45205
 30
0.0
 10
-10.67314
 20
-14.45205
 30
0.0
 10
-10.67314
 20
-14.45205
 30
0.0
 10
-10.67314
 20
-14.44682
 30
0.0
 10
-10.67407
 20
-14.44294
 30
0.0
 10
-10.67592
 20
-14.44039
 30
0.0
 10
-10.67592
 20
-14.44039
 30
0.0
 10
-10.67777
 20
-14.43785
 30
0.0
 10
-10.6806
 20
-14.43659
 30
0.0
 10
-10.68442
 20
-14.43659
 30
0.0
 10
-10.68442
 20
-14.43659
 30
0.0
 10
-10.68907
 20
-14.43659
 30
0.0
 10
-10.69275
 20
-14.43814
 30
0.0
 10
-10.69545
 20
-14.44122
 30
0.0
 10
-10.69545
 20
-14.44122
 30
0.0
 10
-10.69815
 20
-14.44432
 30
0.0
 10
-10.6995
 20
-14.44854
 30
0.0
 10
-10.6995
 20
-14.45387
 30
0.0
 10
-10.6995
 20
-14.45387
 30
0.0
 10
-10.6995
 20
-14.45387
 30
0.0
 10
-10.6995
 20
-14.48477
 30
0.0
 10
-10.6995
 20
-14.48477
 30
0.0
 10
-10.6995
 20
-14.48477
 30
0.0
 10
-10.6995
 20
-14.48477
 30
0.0
 10
-10.70854
 20
-14.48477
 30
0.0
 10
-10.70854
 20
-14.48477
 30
0.0
 10
-10.70854
 20
-14.48477
 30
0.0
 10
-10.70854
 20
-14.48477
 30
0.0
 10
-10.70854
 20
-14.45205
 30
0.0
 10
-10.70854
 20
-14.45205
 30
0.0
 10
-10.70854
 20
-14.45205
 30
0.0
 10
-10.70854
 20
-14.44679
 30
0.0
 10
-10.70947
 20
-14.44289
 30
0.0
 10
-10.71132
 20
-14.44037
 30
0.0
 10
-10.71132
 20
-14.44037
 30
0.0
 10
-10.71317
 20
-14.43785
 30
0.0
 10
-10.71604
 20
-14.43659
 30
0.0
 10
-10.71992
 20
-14.43659
 30
0.0
 10
-10.71992
 20
-14.43659
 30
0.0
 10
-10.7245
 20
-14.43659
 30
0.0
 10
-10.72815
 20
-14.43814
 30
0.0
 10
-10.73085
 20
-14.44125
 30
0.0
 10
-10.73085
 20
-14.44125
 30
0.0
 10
-10.73355
 20
-14.44435
 30
0.0
 10
-10.7349
 20
-14.44857
 30
0.0
 10
-10.7349
 20
-14.45387
 30
0.0
 10
-10.7349
 20
-14.45387
 30
0.0
 10
-10.7349
 20
-14.45387
 30
0.0
 10
-10.7349
 20
-14.48477
 30
0.0
 10
-10.7349
 20
-14.48477
 30
0.0
 10
-10.7349
 20
-14.48477
 30
0.0
 10
-10.7349
 20
-14.48477
 30
0.0
 10
-10.74394
 20
-14.48477
 30
0.0
 10
-10.74394
 20
-14.48477
 30
0.0
 10
-10.74394
 20
-14.48477
 30
0.0
 10
-10.74394
 20
-14.48477
 30
0.0
 10
-10.74394
 20
-14.43009
 30
0.0
 10
-10.74394
 20
-14.43009
 30
0.0
 10
-10.74394
 20
-14.43009
 30
0.0
 10
-10.74394
 20
-14.43009
 30
0.0
 10
-10.7349
 20
-14.43009
 30
0.0
 10
-10.7349
 20
-14.43009
 30
0.0
 10
-10.7349
 20
-14.43009
 30
0.0
 10
-10.7349
 20
-14.43009
 30
0.0
 10
-10.7349
 20
-14.43859
 30
0.0
 10
-10.7349
 20
-14.43859
 30
0.0
 10
-10.7349
 20
-14.43859
 30
0.0
 10
-10.73285
 20
-14.43524
 30
0.0
 10
-10.73039
 20
-14.43275
 30
0.0
 10
-10.72754
 20
-14.43117
 30
0.0
 10
-10.72754
 20
-14.43117
 30
0.0
 10
-10.72467
 20
-14.42957
 30
0.0
 10
-10.72127
 20
-14.42877
 30
0.0
 10
-10.71732
 20
-14.42877
 30
0.0
 10
-10.71732
 20
-14.42877
 30
0.0
 10
-10.71335
 20
-14.42877
 30
0.0
 10
-10.70997
 20
-14.42979
 30
0.0
 10
-10.70719
 20
-14.4318
 30
0.0
 10
-10.70719
 20
-14.4318
 30
0.0
 10
-10.7044
 20
-14.43382
 30
0.0
 10
-10.70235
 20
-14.43675
 30
0.0
 10
-10.70102
 20
-14.44059
 30
0.0
  0
SPLINE
  5
86
330
1F
100
AcDbEntity
  8
Layer 1
 62
   250
100
AcDbSpline
210
0.0
220
0.0
230
1.0
 70
    11
 71
     3
 72
    20
 73
    16
 74
     0
 42
0.0000000001
 43
0.0000000001
 40
0.0
 40
0.0
 40
0.0
 40
0.0
 40
0.25
 40
0.25
 40
0.25
 40
0.25
 40
0.5
 40
0.5
 40
0.5
 40
0.5
 40
0.75
 40
0.75
 40
0.75
 40
0.75
 40
1.0
 40
1.0
 40
1.0
 40
1.0
 10
-10.6449
 20
-14.47237
 30
0.0
 10
-10.6449
 20
-14.47237
 30
0.0
 10
-10.6346
 20
-14.47237
 30
0.0
 10
-10.6346
 20
-14.47237
 30
0.0
 10
-10.6346
 20
-14.47237
 30
0.0
 10
-10.6346
 20
-14.47237
 30
0.0
 10
-10.6346
 20
-14.48477
 30
0.0
 10
-10.6346
 20
-14.48477
 30
0.0
 10
-10.6346
 20
-14.48477
 30
0.0
 10
-10.6346
 20
-14.48477
 30
0.0
 10
-10.6449
 20
-14.48477
 30
0.0
 10
-10.6449
 20
-14.48477
 30
0.0
 10
-10.6449
 20
-14.48477
 30
0.0
 10
-10.6449
 20
-14.48477
 30
0.0
 10
-10.6449
 20
-14.47237
 30
0.0
 10
-10.6449
 20
-14.47237
 30
0.0
  0
SPLINE
  5
87
330
1F
100
AcDbEntity
  8
Layer 1
 62
   250
100
AcDbSpline
210
0.0
220
0.0
230
1.0
 70
    11
 71
     3
 72
    20
 73
    16
 74
     0
 42
0.0000000001
 43
0.0000000001
 40
0.0
 40
0.0
 40
0.0
 40
0.0
 40
0.25
 40
0.25
 40
0.25
 40
0.25
 40
0.5
 40
0.5
 40
0.5
 40
0.5
 40
0.75
 40
0.75
 40
0.75
 40
0.75
 40
1.0
 40
1.0
 40
1.0
 40
1.0
 10
-10.6144
 20
-14.40879
 30
0.0
 10
-10.6144
 20
-14.40879
 30
0.0
 10
-10.60542
 20
-14.40879
 30
0.0
 10
-10.60542
 20
-14.40879
 30
0.0
 10
-10.60542
 20
-14.40879
 30
0.0
 10
-10.60542
 20
-14.40879
 30
0.0
 10
-10.60542
 20
-14.48477
 30
0.0
 10
-10.60542
 20
-14.48477
 30
0.0
 10
-10.60542
 20
-14.48477
 30
0.0
 10
-10.60542
 20
-14.48477
 30
0.0
 10
-10.6144
 20
-14.48477
 30
0.0
 10
-10.6144
 20
-14.48477
 30
0.0
 10
-10.6144
 20
-14.48477
 30
0.0
 10
-10.6144
 20
-14.48477
 30
0.0
 10
-10.6144
 20
-14.40879
 30
0.0
 10
-10.6144
 20
-14.40879
 30
0.0
  0
SPLINE
  5
88
330
1F
100
AcDbEntity
  8
Layer 1
 62
   250
100
AcDbSpline
210
0.0
220
0.0
230
1.0
 70
    11
 71
     3
 72
    76
 73
    72
 74
     0
 42
0.0000000001
 43
0.0000000001
 40
0.0
 40
0.0
 40
0.0
 40
0.0
 40
0.0555555555555556
 40
0.0555555555555556
 40
0.0555555555555556
 40
0.0555555555555556
 40
0.1111111111111111
 40
0.1111111111111111
 40
0.1111111111111111
 40
0.1111111111111111
 40
0.1666666666666667
 40
0.1666666666666667
 40
0.1666666666666667
 40
0.1666666666666667
 40
0.2222222222222222
 40
0.2222222222222222
 40
0.2222222222222222
 40
0.2222222222222222
 40
0.2777777777777778
 40
0.2777777777777778
 40
0.2777777777777778
 40
0.2777777777777778
 40
0.3333333333333334
 40
0.3333333333333334
 40
0.3333333333333334
 40
0.3333333333333334
 40
0.388888888888889
 40
0.388888888888889
 40
0.388888888888889
 40
0.388888888888889
 40
0.4444444444444445
 40
0.4444444444444445
 40
0.4444444444444445
 40
0.4444444444444445
 40
0.5000000000000001
 40
0.5000000000000001
 40
0.5000000000000001
 40
0.5000000000000001
 40
0.5555555555555557
 40
0.5555555555555557
 40
0.5555555555555557
 40
0.5555555555555557
 40
0.6111111111111113
 40
0.6111111111111113
 40
0.6111111111111113
 40
0.6111111111111113
 40
0.6666666666666669
 40
0.6666666666666669
 40
0.6666666666666669
 40
0.6666666666666669
 40
0.7222222222222224
 40
0.7222222222222224
 40
0.7222222222222224
 40
0.7222222222222224
 40
0.777777777777778
 40
0.777777777777778
 40
0.777777777777778
 40
0.777777777777778
 40
0.8333333333333336
 40
0.8333333333333336
 40
0.8333333333333336
 40
0.8333333333333336
 40
0.8888888888888892
 40
0.8888888888888892
 40
0.8888888888888892
 40
0.8888888888888892
 40
0.9444444444444448
 40
0.9444444444444448
 40
0.9444444444444448
 40
0.9444444444444448
 40
1.0
 40
1.0
 40
1.0
 40
1.0
 10
-10.57772
 20
-14.41455
 30
0.0
 10
-10.57772
 20
-14.41455
 30
0.0
 10
-10.57772
 20
-14.43009
 30
0.0
 10
-10.57772
 20
-14.43009
 30
0.0
 10
-10.57772
 20
-14.43009
 30
0.0
 10
-10.57772
 20
-14.43009
 30
0.0
 10
-10.55922
 20
-14.43009
 30
0.0
 10
-10.55922
 20
-14.43009
 30
0.0
 10
-10.55922
 20
-14.43009
 30
0.0
 10
-10.55922
 20
-14.43009
 30
0.0
 10
-10.55922
 20
-14.43707
 30
0.0
 10
-10.55922
 20
-14.43707
 30
0.0
 10
-10.55922
 20
-14.43707
 30
0.0
 10
-10.55922
 20
-14.43707
 30
0.0
 10
-10.57772
 20
-14.43707
 30
0.0
 10
-10.57772
 20
-14.43707
 30
0.0
 10
-10.57772
 20
-14.43707
 30
0.0
 10
-10.57772
 20
-14.43707
 30
0.0
 10
-10.57772
 20
-14.46675
 30
0.0
 10
-10.57772
 20
-14.46675
 30
0.0
 10
-10.57772
 20
-14.46675
 30
0.0
 10
-10.57772
 20
-14.47122
 30
0.0
 10
-10.57711
 20
-14.47409
 30
0.0
 10
-10.57589
 20
-14.47535
 30
0.0
 10
-10.57589
 20
-14.47535
 30
0.0
 10
-10.57467
 20
-14.47662
 30
0.0
 10
-10.57219
 20
-14.47725
 30
0.0
 10
-10.56846
 20
-14.47725
 30
0.0
 10
-10.56846
 20
-14.47725
 30
0.0
 10
-10.56846
 20
-14.47725
 30
0.0
 10
-10.55922
 20
-14.47725
 30
0.0
 10
-10.55922
 20
-14.47725
 30
0.0
 10
-10.55922
 20
-14.47725
 30
0.0
 10
-10.55922
 20
-14.47725
 30
0.0
 10
-10.55922
 20
-14.48477
 30
0.0
 10
-10.55922
 20
-14.48477
 30
0.0
 10
-10.55922
 20
-14.48477
 30
0.0
 10
-10.55922
 20
-14.48477
 30
0.0
 10
-10.56846
 20
-14.48477
 30
0.0
 10
-10.56846
 20
-14.48477
 30
0.0
 10
-10.56846
 20
-14.48477
 30
0.0
 10
-10.57537
 20
-14.48477
 30
0.0
 10
-10.58017
 20
-14.48347
 30
0.0
 10
-10.58281
 20
-14.48089
 30
0.0
 10
-10.58281
 20
-14.48089
 30
0.0
 10
-10.58544
 20
-14.4783
 30
0.0
 10
-10.58676
 20
-14.47359
 30
0.0
 10
-10.58676
 20
-14.46675
 30
0.0
 10
-10.58676
 20
-14.46675
 30
0.0
 10
-10.58676
 20
-14.46675
 30
0.0
 10
-10.58676
 20
-14.43707
 30
0.0
 10
-10.58676
 20
-14.43707
 30
0.0
 10
-10.58676
 20
-14.43707
 30
0.0
 10
-10.58676
 20
-14.43707
 30
0.0
 10
-10.59336
 20
-14.43707
 30
0.0
 10
-10.59336
 20
-14.43707
 30
0.0
 10
-10.59336
 20
-14.43707
 30
0.0
 10
-10.59336
 20
-14.43707
 30
0.0
 10
-10.59336
 20
-14.43009
 30
0.0
 10
-10.59336
 20
-14.43009
 30
0.0
 10
-10.59336
 20
-14.43009
 30
0.0
 10
-10.59336
 20
-14.43009
 30
0.0
 10
-10.58676
 20
-14.43009
 30
0.0
 10
-10.58676
 20
-14.43009
 30
0.0
 10
-10.58676
 20
-14.43009
 30
0.0
 10
-10.58676
 20
-14.43009
 30
0.0
 10
-10.58676
 20
-14.41455
 30
0.0
 10
-10.58676
 20
-14.41455
 30
0.0
 10
-10.58676
 20
-14.41455
 30
0.0
 10
-10.58676
 20
-14.41455
 30
0.0
 10
-10.57772
 20
-14.41455
 30
0.0
 10
-10.57772
 20
-14.41455
 30
0.0
  0
SPLINE
  5
89
330
1F
100
AcDbEntity
  8
Layer 1
 62
   250
100
AcDbSpline
210
0.0
220
0.0
230
1.0
 70
    11
 71
     3
 72
    20
 73
    16
 74
     0
 42
0.0000000001
 43
0.0000000001
 40
0.0
 40
0.0
 40
0.0
 40
0.0
 40
0.25
 40
0.25
 40
0.25
 40
0.25
 40
0.5
 40
0.5
 40
0.5
 40
0.5
 40
0.75
 40
0.75
 40
0.75
 40
0.75
 40
1.0
 40
1.0
 40
1.0
 40
1.0
 10
-10.53144
 20
-14.41187
 30
0.0
 10
-10.53144
 20
-14.41187
 30
0.0
 10
-10.52314
 20
-14.41187
 30
0.0
 10
-10.52314
 20
-14.41187
 30
0.0
 10
-10.52314
 20
-14.41187
 30
0.0
 10
-10.52314
 20
-14.41187
 30
0.0
 10
-10.54852
 20
-14.49405
 30
0.0
 10
-10.54852
 20
-14.49405
 30
0.0
 10
-10.54852
 20
-14.49405
 30
0.0
 10
-10.54852
 20
-14.49405
 30
0.0
 10
-10.55682
 20
-14.49405
 30
0.0
 10
-10.55682
 20
-14.49405
 30
0.0
 10
-10.55682
 20
-14.49405
 30
0.0
 10
-10.55682
 20
-14.49405
 30
0.0
 10
-10.53144
 20
-14.41187
 30
0.0
 10
-10.53144
 20
-14.41187
 30
0.0
  0
SPLINE
  5
8A
330
1F
100
AcDbEntity
  8
Layer 1
 62
   250
100
AcDbSpline
210
0.0
220
0.0
230
1.0
 70
    11
 71
     3
 72
    52
 73
    48
 74
     0
 42
0.0000000001
 43
0.0000000001
 40
0.0
 40
0.0
 40
0.0
 40
0.0
 40
0.0833333333333333
 40
0.0833333333333333
 40
0.0833333333333333
 40
0.0833333333333333
 40
0.1666666666666667
 40
0.1666666666666667
 40
0.1666666666666667
 40
0.1666666666666667
 40
0.25
 40
0.25
 40
0.25
 40
0.25
 40
0.3333333333333333
 40
0.3333333333333333
 40
0.3333333333333333
 40
0.3333333333333333
 40
0.4166666666666666
 40
0.4166666666666666
 40
0.4166666666666666
 40
0.4166666666666666
 40
0.4999999999999999
 40
0.4999999999999999
 40
0.4999999999999999
 40
0.4999999999999999
 40
0.5833333333333333
 40
0.5833333333333333
 40
0.5833333333333333
 40
0.5833333333333333
 40
0.6666666666666666
 40
0.6666666666666666
 40
0.6666666666666666
 40
0.6666666666666666
 40
0.75
 40
0.75
 40
0.75
 40
0.75
 40
0.8333333333333334
 40
0.8333333333333334
 40
0.8333333333333334
 40
0.8333333333333334
 40
0.9166666666666667
 40
0.9166666666666667
 40
0.9166666666666667
 40
0.9166666666666667
 40
1.0
 40
1.0
 40
1.0
 40
1.0
 10
-10.51396
 20
-14.41187
 30
0.0
 10
-10.51396
 20
-14.41187
 30
0.0
 10
-10.49516
 20
-14.41187
 30
0.0
 10
-10.49516
 20
-14.41187
 30
0.0
 10
-10.49516
 20
-14.41187
 30
0.0
 10
-10.49516
 20
-14.41187
 30
0.0
 10
-10.49516
 20
-14.43965
 30
0.0
 10
-10.49516
 20
-14.43965
 30
0.0
 10
-10.49516
 20
-14.43965
 30
0.0
 10
-10.49516
 20
-14.43965
 30
0.0
 10
-10.46742
 20
-14.43965
 30
0.0
 10
-10.46742
 20
-14.43965
 30
0.0
 10
-10.46742
 20
-14.43965
 30
0.0
 10
-10.46742
 20
-14.43965
 30
0.0
 10
-10.46742
 20
-14.41187
 30
0.0
 10
-10.46742
 20
-14.41187
 30
0.0
 10
-10.46742
 20
-14.41187
 30
0.0
 10
-10.46742
 20
-14.41187
 30
0.0
 10
-10.44862
 20
-14.41187
 30
0.0
 10
-10.44862
 20
-14.41187
 30
0.0
 10
-10.44862
 20
-14.41187
 30
0.0
 10
-10.44862
 20
-14.41187
 30
0.0
 10
-10.44862
 20
-14.48477
 30
0.0
 10
-10.44862
 20
-14.48477
 30
0.0
 10
-10.44862
 20
-14.48477
 30
0.0
 10
-10.44862
 20
-14.48477
 30
0.0
 10
-10.46742
 20
-14.48477
 30
0.0
 10
-10.46742
 20
-14.48477
 30
0.0
 10
-10.46742
 20
-14.48477
 30
0.0
 10
-10.46742
 20
-14.48477
 30
0.0
 10
-10.46742
 20
-14.45387
 30
0.0
 10
-10.46742
 20
-14.45387
 30
0.0
 10
-10.46742
 20
-14.45387
 30
0.0
 10
-10.46742
 20
-14.45387
 30
0.0
 10
-10.49516
 20
-14.45387
 30
0.0
 10
-10.49516
 20
-14.45387
 30
0.0
 10
-10.49516
 20
-14.45387
 30
0.0
 10
-10.49516
 20
-14.45387
 30
0.0
 10
-10.49516
 20
-14.48477
 30
0.0
 10
-10.49516
 20
-14.48477
 30
0.0
 10
-10.49516
 20
-14.48477
 30
0.0
 10
-10.49516
 20
-14.48477
 30
0.0
 10
-10.51396
 20
-14.48477
 30
0.0
 10
-10.51396
 20
-14.48477
 30
0.0
 10
-10.51396
 20
-14.48477
 30
0.0
 10
-10.51396
 20
-14.48477
 30
0.0
 10
-10.51396
 20
-14.41187
 30
0.0
 10
-10.51396
 20
-14.41187
 30
0.0
  0
SPLINE
  5
8B
330
1F
100
AcDbEntity
  8
Layer 1
 62
   250
100
AcDbSpline
210
0.0
220
0.0
230
1.0
 70
    11
 71
     3
 72
    44
 73
    40
 74
     0
 42
0.0000000001
 43
0.0000000001
 40
0.0
 40
0.0
 40
0.0
 40
0.0
 40
0.1
 40
0.1
 40
0.1
 40
0.1
 40
0.2
 40
0.2
 40
0.2
 40
0.2
 40
0.3
 40
0.3
 40
0.3
 40
0.3
 40
0.4
 40
0.4
 40
0.4
 40
0.4
 40
0.5
 40
0.5
 40
0.5
 40
0.5
 40
0.6
 40
0.6
 40
0.6
 40
0.6
 40
0.7
 40
0.7
 40
0.7
 40
0.7
 40
0.7999999999999999
 40
0.7999999999999999
 40
0.7999999999999999
 40
0.7999999999999999
 40
0.8999999999999999
 40
0.8999999999999999
 40
0.8999999999999999
 40
0.8999999999999999
 40
1.0
 40
1.0
 40
1.0
 40
1.0
 10
-10.43028
 20
-14.41187
 30
0.0
 10
-10.43028
 20
-14.41187
 30
0.0
 10
-10.37954
 20
-14.41187
 30
0.0
 10
-10.37954
 20
-14.41187
 30
0.0
 10
-10.37954
 20
-14.41187
 30
0.0
 10
-10.37954
 20
-14.41187
 30
0.0
 10
-10.37954
 20
-14.42609
 30
0.0
 10
-10.37954
 20
-14.42609
 30
0.0
 10
-10.37954
 20
-14.42609
 30
0.0
 10
-10.37954
 20
-14.42609
 30
0.0
 10
-10.41148
 20
-14.42609
 30
0.0
 10
-10.41148
 20
-14.42609
 30
0.0
 10
-10.41148
 20
-14.42609
 30
0.0
 10
-10.41148
 20
-14.42609
 30
0.0
 10
-10.41148
 20
-14.43965
 30
0.0
 10
-10.41148
 20
-14.43965
 30
0.0
 10
-10.41148
 20
-14.43965
 30
0.0
 10
-10.41148
 20
-14.43965
 30
0.0
 10
-10.38144
 20
-14.43965
 30
0.0
 10
-10.38144
 20
-14.43965
 30
0.0
 10
-10.38144
 20
-14.43965
 30
0.0
 10
-10.38144
 20
-14.43965
 30
0.0
 10
-10.38144
 20
-14.45387
 30
0.0
 10
-10.38144
 20
-14.45387
 30
0.0
 10
-10.38144
 20
-14.45387
 30
0.0
 10
-10.38144
 20
-14.45387
 30
0.0
 10
-10.41148
 20
-14.45387
 30
0.0
 10
-10.41148
 20
-14.45387
 30
0.0
 10
-10.41148
 20
-14.45387
 30
0.0
 10
-10.41148
 20
-14.45387
 30
0.0
 10
-10.41148
 20
-14.48477
 30
0.0
 10
-10.41148
 20
-14.48477
 30
0.0
 10
-10.41148
 20
-14.48477
 30
0.0
 10
-10.41148
 20
-14.48477
 30
0.0
 10
-10.43028
 20
-14.48477
 30
0.0
 10
-10.43028
 20
-14.48477
 30
0.0
 10
-10.43028
 20
-14.48477
 30
0.0
 10
-10.43028
 20
-14.48477
 30
0.0
 10
-10.43028
 20
-14.41187
 30
0.0
 10
-10.43028
 20
-14.41187
 30
0.0
  0
SPLINE
  5
8C
330
1F
100
AcDbEntity
  8
Layer 1
 62
   250
100
AcDbSpline
210
0.0
220
0.0
230
1.0
 70
    11
 71
     3
 72
    36
 73
    32
 74
     0
 42
0.0000000001
 43
0.0000000001
 40
0.0
 40
0.0
 40
0.0
 40
0.0
 40
0.125
 40
0.125
 40
0.125
 40
0.125
 40
0.25
 40
0.25
 40
0.25
 40
0.25
 40
0.375
 40
0.375
 40
0.375
 40
0.375
 40
0.5
 40
0.5
 40
0.5
 40
0.5
 40
0.625
 40
0.625
 40
0.625
 40
0.625
 40
0.75
 40
0.75
 40
0.75
 40
0.75
 40
0.875
 40
0.875
 40
0.875
 40
0.875
 40
1.0
 40
1.0
 40
1.0
 40
1.0
 10
-10.32514
 20
-14.44825
 30
0.0
 10
-10.32514
 20
-14.43914
 30
0.0
 10
-10.32599
 20
-14.43272
 30
0.0
 10
-10.32771
 20
-14.42899
 30
0.0
 10
-10.32771
 20
-14.42899
 30
0.0
 10
-10.32941
 20
-14.42527
 30
0.0
 10
-10.33229
 20
-14.4234
 30
0.0
 10
-10.33632
 20
-14.4234
 30
0.0
 10
-10.33632
 20
-14.4234
 30
0.0
 10
-10.34036
 20
-14.4234
 30
0.0
 10
-10.34324
 20
-14.42527
 30
0.0
 10
-10.34497
 20
-14.42899
 30
0.0
 10
-10.34497
 20
-14.42899
 30
0.0
 10
-10.34669
 20
-14.43272
 30
0.0
 10
-10.34756
 20
-14.43914
 30
0.0
 10
-10.34756
 20
-14.44825
 30
0.0
 10
-10.34756
 20
-14.44825
 30
0.0
 10
-10.34756
 20
-14.45745
 30
0.0
 10
-10.34669
 20
-14.46395
 30
0.0
 10
-10.34497
 20
-14.46772
 30
0.0
 10
-10.34497
 20
-14.46772
 30
0.0
 10
-10.34324
 20
-14.4715
 30
0.0
 10
-10.34036
 20
-14.47339
 30
0.0
 10
-10.33632
 20
-14.47339
 30
0.0
 10
-10.33632
 20
-14.47339
 30
0.0
 10
-10.33232
 20
-14.47339
 30
0.0
 10
-10.32946
 20
-14.4715
 30
0.0
 10
-10.32772
 20
-14.46772
 30
0.0
 10
-10.32772
 20
-14.46772
 30
0.0
 10
-10.32601
 20
-14.46395
 30
0.0
 10
-10.32514
 20
-14.45745
 30
0.0
 10
-10.32514
 20
-14.44825
 30
0.0
  0
SPLINE
  5
8D
330
1F
100
AcDbEntity
  8
Layer 1
 62
   250
100
AcDbSpline
210
0.0
220
0.0
230
1.0
 70
    11
 71
     3
 72
    36
 73
    32
 74
     0
 42
0.0000000001
 43
0.0000000001
 40
0.0
 40
0.0
 40
0.0
 40
0.0
 40
0.125
 40
0.125
 40
0.125
 40
0.125
 40
0.25
 40
0.25
 40
0.25
 40
0.25
 40
0.375
 40
0.375
 40
0.375
 40
0.375
 40
0.5
 40
0.5
 40
0.5
 40
0.5
 40
0.625
 40
0.625
 40
0.625
 40
0.625
 40
0.75
 40
0.75
 40
0.75
 40
0.75
 40
0.875
 40
0.875
 40
0.875
 40
0.875
 40
1.0
 40
1.0
 40
1.0
 40
1.0
 10
-10.30634
 20
-14.44839
 30
0.0
 10
-10.30634
 20
-14.46047
 30
0.0
 10
-10.30894
 20
-14.46979
 30
0.0
 10
-10.31416
 20
-14.47635
 30
0.0
 10
-10.31416
 20
-14.47635
 30
0.0
 10
-10.31936
 20
-14.4829
 30
0.0
 10
-10.32676
 20
-14.48619
 30
0.0
 10
-10.33632
 20
-14.48619
 30
0.0
 10
-10.33632
 20
-14.48619
 30
0.0
 10
-10.34592
 20
-14.48619
 30
0.0
 10
-10.35334
 20
-14.4829
 30
0.0
 10
-10.35854
 20
-14.47635
 30
0.0
 10
-10.35854
 20
-14.47635
 30
0.0
 10
-10.36376
 20
-14.46979
 30
0.0
 10
-10.36636
 20
-14.46047
 30
0.0
 10
-10.36636
 20
-14.44839
 30
0.0
 10
-10.36636
 20
-14.44839
 30
0.0
 10
-10.36636
 20
-14.43629
 30
0.0
 10
-10.36376
 20
-14.42695
 30
0.0
 10
-10.35854
 20
-14.42039
 30
0.0
 10
-10.35854
 20
-14.42039
 30
0.0
 10
-10.35334
 20
-14.41384
 30
0.0
 10
-10.34592
 20
-14.41055
 30
0.0
 10
-10.33632
 20
-14.41055
 30
0.0
 10
-10.33632
 20
-14.41055
 30
0.0
 10
-10.32676
 20
-14.41055
 30
0.0
 10
-10.31936
 20
-14.41384
 30
0.0
 10
-10.31416
 20
-14.42039
 30
0.0
 10
-10.31416
 20
-14.42039
 30
0.0
 10
-10.30894
 20
-14.42695
 30
0.0
 10
-10.30634
 20
-14.43629
 30
0.0
 10
-10.30634
 20
-14.44839
 30
0.0
  0
SPLINE
  5
8E
330
1F
100
AcDbEntity
  8
Layer 1
 62
   250
100
AcDbSpline
210
0.0
220
0.0
230
1.0
 70
    11
 71
     3
 72
    36
 73
    32
 74
     0
 42
0.0000000001
 43
0.0000000001
 40
0.0
 40
0.0
 40
0.0
 40
0.0
 40
0.125
 40
0.125
 40
0.125
 40
0.125
 40
0.25
 40
0.25
 40
0.25
 40
0.25
 40
0.375
 40
0.375
 40
0.375
 40
0.375
 40
0.5
 40
0.5
 40
0.5
 40
0.5
 40
0.625
 40
0.625
 40
0.625
 40
0.625
 40
0.75
 40
0.75
 40
0.75
 40
0.75
 40
0.875
 40
0.875
 40
0.875
 40
0.875
 40
1.0
 40
1.0
 40
1.0
 40
1.0
 10
-10.26538
 20
-14.44879
 30
0.0
 10
-10.26868
 20
-14.44879
 30
0.0
 10
-10.27114
 20
-14.44985
 30
0.0
 10
-10.27278
 20
-14.45199
 30
0.0
 10
-10.27278
 20
-14.45199
 30
0.0
 10
-10.27443
 20
-14.45412
 30
0.0
 10
-10.27524
 20
-14.45732
 30
0.0
 10
-10.27524
 20
-14.46157
 30
0.0
 10
-10.27524
 20
-14.46157
 30
0.0
 10
-10.27524
 20
-14.46584
 30
0.0
 10
-10.27443
 20
-14.46904
 30
0.0
 10
-10.27278
 20
-14.47117
 30
0.0
 10
-10.27278
 20
-14.47117
 30
0.0
 10
-10.27114
 20
-14.4733
 30
0.0
 10
-10.26868
 20
-14.47437
 30
0.0
 10
-10.26538
 20
-14.47437
 30
0.0
 10
-10.26538
 20
-14.47437
 30
0.0
 10
-10.26206
 20
-14.47437
 30
0.0
 10
-10.25958
 20
-14.4733
 30
0.0
 10
-10.25794
 20
-14.47117
 30
0.0
 10
-10.25794
 20
-14.47117
 30
0.0
 10
-10.25629
 20
-14.46904
 30
0.0
 10
-10.25548
 20
-14.46584
 30
0.0
 10
-10.25548
 20
-14.46157
 30
0.0
 10
-10.25548
 20
-14.46157
 30
0.0
 10
-10.25548
 20
-14.45732
 30
0.0
 10
-10.25629
 20
-14.45412
 30
0.0
 10
-10.25794
 20
-14.45199
 30
0.0
 10
-10.25794
 20
-14.45199
 30
0.0
 10
-10.25958
 20
-14.44985
 30
0.0
 10
-10.26206
 20
-14.44879
 30
0.0
 10
-10.26538
 20
-14.44879
 30
0.0
  0
SPLINE
  5
8F
330
1F
100
AcDbEntity
  8
Layer 1
 62
   250
100
AcDbSpline
210
0.0
220
0.0
230
1.0
 70
    11
 71
     3
 72
    72
 73
    68
 74
     0
 42
0.0000000001
 43
0.0000000001
 40
0.0
 40
0.0
 40
0.0
 40
0.0
 40
0.0588235294117647
 40
0.0588235294117647
 40
0.0588235294117647
 40
0.0588235294117647
 40
0.1176470588235294
 40
0.1176470588235294
 40
0.1176470588235294
 40
0.1176470588235294
 40
0.1764705882352941
 40
0.1764705882352941
 40
0.1764705882352941
 40
0.1764705882352941
 40
0.2352941176470588
 40
0.2352941176470588
 40
0.2352941176470588
 40
0.2352941176470588
 40
0.2941176470588235
 40
0.2941176470588235
 40
0.2941176470588235
 40
0.2941176470588235
 40
0.3529411764705883
 40
0.3529411764705883
 40
0.3529411764705883
 40
0.3529411764705883
 40
0.411764705882353
 40
0.411764705882353
 40
0.411764705882353
 40
0.411764705882353
 40
0.4705882352941177
 40
0.4705882352941177
 40
0.4705882352941177
 40
0.4705882352941177
 40
0.5294117647058824
 40
0.5294117647058824
 40
0.5294117647058824
 40
0.5294117647058824
 40
0.5882352941176471
 40
0.5882352941176471
 40
0.5882352941176471
 40
0.5882352941176471
 40
0.6470588235294118
 40
0.6470588235294118
 40
0.6470588235294118
 40
0.6470588235294118
 40
0.7058823529411765
 40
0.7058823529411765
 40
0.7058823529411765
 40
0.7058823529411765
 40
0.7647058823529412
 40
0.7647058823529412
 40
0.7647058823529412
 40
0.7647058823529412
 40
0.823529411764706
 40
0.823529411764706
 40
0.823529411764706
 40
0.823529411764706
 40
0.8823529411764707
 40
0.8823529411764707
 40
0.8823529411764707
 40
0.8823529411764707
 40
0.9411764705882354
 40
0.9411764705882354
 40
0.9411764705882354
 40
0.9411764705882354
 40
1.0
 40
1.0
 40
1.0
 40
1.0
 10
-10.24214
 20
-14.41377
 30
0.0
 10
-10.24214
 20
-14.41377
 30
0.0
 10
-10.24214
 20
-14.42725
 30
0.0
 10
-10.24214
 20
-14.42725
 30
0.0
 10
-10.24214
 20
-14.42725
 30
0.0
 10
-10.24524
 20
-14.42579
 30
0.0
 10
-10.24814
 20
-14.4247
 30
0.0
 10
-10.25088
 20
-14.424
 30
0.0
 10
-10.25088
 20
-14.424
 30
0.0
 10
-10.25361
 20
-14.4233
 30
0.0
 10
-10.25629
 20
-14.42295
 30
0.0
 10
-10.25889
 20
-14.42295
 30
0.0
 10
-10.25889
 20
-14.42295
 30
0.0
 10
-10.26449
 20
-14.42295
 30
0.0
 10
-10.26884
 20
-14.4245
 30
0.0
 10
-10.27198
 20
-14.42762
 30
0.0
 10
-10.27198
 20
-14.42762
 30
0.0
 10
-10.27509
 20
-14.43072
 30
0.0
 10
-10.27693
 20
-14.43534
 30
0.0
 10
-10.27744
 20
-14.44145
 30
0.0
 10
-10.27744
 20
-14.44145
 30
0.0
 10
-10.27529
 20
-14.43987
 30
0.0
 10
-10.27296
 20
-14.43867
 30
0.0
 10
-10.27046
 20
-14.43787
 30
0.0
 10
-10.27046
 20
-14.43787
 30
0.0
 10
-10.26796
 20
-14.43707
 30
0.0
 10
-10.26523
 20
-14.43667
 30
0.0
 10
-10.26226
 20
-14.43667
 30
0.0
 10
-10.26226
 20
-14.43667
 30
0.0
 10
-10.25481
 20
-14.43667
 30
0.0
 10
-10.24879
 20
-14.43885
 30
0.0
 10
-10.24423
 20
-14.44322
 30
0.0
 10
-10.24423
 20
-14.44322
 30
0.0
 10
-10.23964
 20
-14.44757
 30
0.0
 10
-10.23736
 20
-14.45329
 30
0.0
 10
-10.23736
 20
-14.46035
 30
0.0
 10
-10.23736
 20
-14.46035
 30
0.0
 10
-10.23736
 20
-14.46817
 30
0.0
 10
-10.23991
 20
-14.47442
 30
0.0
 10
-10.24503
 20
-14.47914
 30
0.0
 10
-10.24503
 20
-14.47914
 30
0.0
 10
-10.25013
 20
-14.48384
 30
0.0
 10
-10.25699
 20
-14.48619
 30
0.0
 10
-10.26558
 20
-14.48619
 30
0.0
 10
-10.26558
 20
-14.48619
 30
0.0
 10
-10.27504
 20
-14.48619
 30
0.0
 10
-10.28238
 20
-14.48299
 30
0.0
 10
-10.28758
 20
-14.47659
 30
0.0
 10
-10.28758
 20
-14.47659
 30
0.0
 10
-10.29276
 20
-14.4702
 30
0.0
 10
-10.29536
 20
-14.46112
 30
0.0
 10
-10.29536
 20
-14.44937
 30
0.0
 10
-10.29536
 20
-14.44937
 30
0.0
 10
-10.29536
 20
-14.43734
 30
0.0
 10
-10.29233
 20
-14.42787
 30
0.0
 10
-10.28626
 20
-14.42099
 30
0.0
 10
-10.28626
 20
-14.42099
 30
0.0
 10
-10.28018
 20
-14.4141
 30
0.0
 10
-10.27186
 20
-14.41065
 30
0.0
 10
-10.26128
 20
-14.41065
 30
0.0
 10
-10.26128
 20
-14.41065
 30
0.0
 10
-10.25793
 20
-14.41065
 30
0.0
 10
-10.25468
 20
-14.41092
 30
0.0
 10
-10.25151
 20
-14.41144
 30
0.0
 10
-10.25151
 20
-14.41144
 30
0.0
 10
-10.24836
 20
-14.41195
 30
0.0
 10
-10.24524
 20
-14.41274
 30
0.0
 10
-10.24214
 20
-14.41377
 30
0.0
  0
SPLINE
  5
90
330
1F
100
AcDbEntity
  8
Layer 1
 62
   250
100
AcDbSpline
210
0.0
220
0.0
230
1.0
 70
    11
 71
     3
 72
    56
 73
    52
 74
     0
 42
0.0000000001
 43
0.0000000001
 40
0.0
 40
0.0
 40
0.0
 40
0.0
 40
0.0769230769230769
 40
0.0769230769230769
 40
0.0769230769230769
 40
0.0769230769230769
 40
0.1538461538461539
 40
0.1538461538461539
 40
0.1538461538461539
 40
0.1538461538461539
 40
0.2307692307692308
 40
0.2307692307692308
 40
0.2307692307692308
 40
0.2307692307692308
 40
0.3076923076923077
 40
0.3076923076923077
 40
0.3076923076923077
 40
0.3076923076923077
 40
0.3846153846153846
 40
0.3846153846153846
 40
0.3846153846153846
 40
0.3846153846153846
 40
0.4615384615384616
 40
0.4615384615384616
 40
0.4615384615384616
 40
0.4615384615384616
 40
0.5384615384615385
 40
0.5384615384615385
 40
0.5384615384615385
 40
0.5384615384615385
 40
0.6153846153846154
 40
0.6153846153846154
 40
0.6153846153846154
 40
0.6153846153846154
 40
0.6923076923076923
 40
0.6923076923076923
 40
0.6923076923076923
 40
0.6923076923076923
 40
0.7692307692307692
 40
0.7692307692307692
 40
0.7692307692307692
 40
0.7692307692307692
 40
0.846153846153846
 40
0.846153846153846
 40
0.846153846153846
 40
0.846153846153846
 40
0.9230769230769229
 40
0.9230769230769229
 40
0.9230769230769229
 40
0.9230769230769229
 40
1.0
 40
1.0
 40
1.0
 40
1.0
 10
-10.229
 20
-14.41187
 30
0.0
 10
-10.229
 20
-14.41187
 30
0.0
 10
-10.21098
 20
-14.41187
 30
0.0
 10
-10.21098
 20
-14.41187
 30
0.0
 10
-10.21098
 20
-14.41187
 30
0.0
 10
-10.21098
 20
-14.41187
 30
0.0
 10
-10.19838
 20
-14.46485
 30
0.0
 10
-10.19838
 20
-14.46485
 30
0.0
 10
-10.19838
 20
-14.46485
 30
0.0
 10
-10.19838
 20
-14.46485
 30
0.0
 10
-10.18588
 20
-14.41187
 30
0.0
 10
-10.18588
 20
-14.41187
 30
0.0
 10
-10.18588
 20
-14.41187
 30
0.0
 10
-10.18588
 20
-14.41187
 30
0.0
 10
-10.16776
 20
-14.41187
 30
0.0
 10
-10.16776
 20
-14.41187
 30
0.0
 10
-10.16776
 20
-14.41187
 30
0.0
 10
-10.16776
 20
-14.41187
 30
0.0
 10
-10.15526
 20
-14.46485
 30
0.0
 10
-10.15526
 20
-14.46485
 30
0.0
 10
-10.15526
 20
-14.46485
 30
0.0
 10
-10.15526
 20
-14.46485
 30
0.0
 10
-10.14266
 20
-14.41187
 30
0.0
 10
-10.14266
 20
-14.41187
 30
0.0
 10
-10.14266
 20
-14.41187
 30
0.0
 10
-10.14266
 20
-14.41187
 30
0.0
 10
-10.1248
 20
-14.41187
 30
0.0
 10
-10.1248
 20
-14.41187
 30
0.0
 10
-10.1248
 20
-14.41187
 30
0.0
 10
-10.1248
 20
-14.41187
 30
0.0
 10
-10.14198
 20
-14.48477
 30
0.0
 10
-10.14198
 20
-14.48477
 30
0.0
 10
-10.14198
 20
-14.48477
 30
0.0
 10
-10.14198
 20
-14.48477
 30
0.0
 10
-10.16366
 20
-14.48477
 30
0.0
 10
-10.16366
 20
-14.48477
 30
0.0
 10
-10.16366
 20
-14.48477
 30
0.0
 10
-10.16366
 20
-14.48477
 30
0.0
 10
-10.1769
 20
-14.42935
 30
0.0
 10
-10.1769
 20
-14.42935
 30
0.0
 10
-10.1769
 20
-14.42935
 30
0.0
 10
-10.1769
 20
-14.42935
 30
0.0
 10
-10.18998
 20
-14.48477
 30
0.0
 10
-10.18998
 20
-14.48477
 30
0.0
 10
-10.18998
 20
-14.48477
 30
0.0
 10
-10.18998
 20
-14.48477
 30
0.0
 10
-10.21166
 20
-14.48477
 30
0.0
 10
-10.21166
 20
-14.48477
 30
0.0
 10
-10.21166
 20
-14.48477
 30
0.0
 10
-10.21166
 20
-14.48477
 30
0.0
 10
-10.229
 20
-14.41187
 30
0.0
 10
-10.229
 20
-14.41187
 30
0.0
  0
SPLINE
  5
91
330
1F
100
AcDbEntity
  8
Layer 1
 62
     7
370
    35
100
AcDbSpline
210
0.0
220
0.0
230
1.0
 70
    11
 71
     3
 72
    20
 73
    16
 74
     0
 42
0.0000000001
 43
0.0000000001
 40
0.0
 40
0.0
 40
0.0
 40
0.0
 40
0.25
 40
0.25
 40
0.25
 40
0.25
 40
0.5
 40
0.5
 40
0.5
 40
0.5
 40
0.75
 40
0.75
 40
0.75
 40
0.75
 40
1.0
 40
1.0
 40
1.0
 40
1.0
 10
-11.262
 20
-14.59603
 30
0.0
 10
-11.262
 20
-14.59603
 30
0.0
 10
-9.738
 20
-14.59603
 30
0.0
 10
-9.738
 20
-14.59603
 30
0.0
 10
-9.738
 20
-14.59603
 30
0.0
 10
-9.738
 20
-14.59603
 30
0.0
 10
-9.738
 20
-14.85003
 30
0.0
 10
-9.738
 20
-14.85003
 30
0.0
 10
-9.738
 20
-14.85003
 30
0.0
 10
-9.738
 20
-14.85003
 30
0.0
 10
-11.262
 20
-14.85003
 30
0.0
 10
-11.262
 20
-14.85003
 30
0.0
 10
-11.262
 20
-14.85003
 30
0.0
 10
-11.262
 20
-14.85003
 30
0.0
 10
-11.262
 20
-14.59603
 30
0.0
 10
-11.262
 20
-14.59603
 30
0.0
  0
LWPOLYLINE
  5
92
330
1F
100
AcDbEntity
  8
Layer 1
 62
     7
370
    35
100
AcDbPolyline
 90
        5
 70
     1
 43
0.0
 10
-10.65897
 20
-14.755
 10
-10.59497
 20
-14.755
 10
-10.59497
 20
-14.691
 10
-10.65897
 20
-14.691
 10
-10.65897
 20
-14.755
  0
LWPOLYLINE
  5
93
330
1F
100
AcDbEntity
  8
Layer 1
 62
     7
370
    35
100
AcDbPolyline
 90
        5
 70
     1
 43
0.0
 10
-11.16697
 20
-14.755
 10
-11.10297
 20
-14.755
 10
-11.10297
 20
-14.691
 10
-11.16697
 20
-14.691
 10
-11.16697
 20
-14.755
  0
LWPOLYLINE
  5
94
330
1F
100
AcDbEntity
  8
Layer 1
 62
     7
370
    35
100
AcDbPolyline
 90
        5
 70
     1
 43
0.0
 10
-10.40497
 20
-14.755
 10
-10.34097
 20
-14.755
 10
-10.34097
 20
-14.691
 10
-10.40497
 20
-14.691
 10
-10.40497
 20
-14.755
  0
LWPOLYLINE
  5
95
330
1F
100
AcDbEntity
  8
Layer 1
 62
     7
370
    35
100
AcDbPolyline
 90
        5
 70
     1
 43
0.0
 10
-10.91297
 20
-14.755
 10
-10.84897
 20
-14.755
 10
-10.84897
 20
-14.691
 10
-10.91297
 20
-14.691
 10
-10.91297
 20
-14.755
  0
LWPOLYLINE
  5
96
330
1F
100
AcDbEntity
  8
Layer 1
 62
     7
370
    35
100
AcDbPolyline
 90
        5
 70
     1
 43
0.0
 10
-10.15097
 20
-14.755
 10
-10.08697
 20
-14.755
 10
-10.08697
 20
-14.691
 10
-10.15097
 20
-14.691
 10
-10.15097
 20
-14.755
  0
LWPOLYLINE
  5
97
330
1F
100
AcDbEntity
  8
Layer 1
 62
     7
370
    35
100
AcDbPolyline
 90
        5
 70
     1
 43
0.0
 10
-9.89697
 20
-14.755
 10
-9.83297
 20
-14.755
 10
-9.83297
 20
-14.691
 10
-9.89697
 20
-14.691
 10
-9.89697
 20
-14.755
  0
ENDSEC
  0
SECTION
  2
OBJECTS
  0
DICTIONARY
  5
C
330
0
100
AcDbDictionary
281
     1
  3
ACAD_GROUP
350
D
  3
ACAD_LAYOUT
350
1A
  3
ACAD_MLEADERSTYLE
350
99
  3
ACAD_MLINESTYLE
350
17
  3
ACAD_PLOTSETTINGS
350
19
  3
ACAD_PLOTSTYLENAME
350
E
  3
ACAD_SCALELIST
350
3B
  3
ACAD_TABLESTYLE
350
98
  3
ACAD_VISUALSTYLE
350
2A
  0
DICTIONARY
  5
D
102
{ACAD_REACTORS
330
C
102
}
330
C
100
AcDbDictionary
281
     1
  0
DICTIONARY
  5
1A
102
{ACAD_REACTORS
330
C
102
}
330
C
100
AcDbDictionary
281
     1
  3
Layout1
350
1E
  3
Layout2
350
26
  3
Model
350
22
  0
DICTIONARY
  5
99
102
{ACAD_REACTORS
330
C
102
}
330
C
100
AcDbDictionary
281
     1
  0
DICTIONARY
  5
17
102
{ACAD_REACTORS
330
C
102
}
330
C
100
AcDbDictionary
281
     1
  3
Standard
350
18
  0
DICTIONARY
  5
19
102
{ACAD_REACTORS
330
C
102
}
330
C
100
AcDbDictionary
281
     1
  0
ACDBDICTIONARYWDFLT
  5
E
102
{ACAD_REACTORS
330
C
102
}
330
C
100
AcDbDictionary
281
     1
  3
Normal
350
F
100
AcDbDictionaryWithDefault
340
F
  0
DICTIONARY
  5
3B
102
{ACAD_REACTORS
330
C
102
}
330
C
100
AcDbDictionary
281
     1
  3
A0
350
3C
  3
A1
350
3D
  3
A2
350
3E
  3
A3
350
3F
  3
A4
350
40
  3
A5
350
41
  3
A6
350
42
  3
A7
350
43
  3
A8
350
44
  3
A9
350
45
  3
B0
350
46
  3
B1
350
47
  3
B2
350
48
  3
B3
350
49
  3
B4
350
4A
  3
B5
350
4B
  3
B6
350
4C
  3
B7
350
4D
  3
B8
350
4E
  3
B9
350
4F
  3
C0
350
50
  3
C1
350
51
  3
C2
350
52
  3
C3
350
53
  3
C4
350
54
  3
C5
350
55
  3
C6
350
56
  3
C7
350
57
  3
C8
350
58
  3
C9
350
59
  3
D0
350
5A
  3
D1
350
5B
  3
D2
350
5C
  0
DICTIONARY
  5
98
102
{ACAD_REACTORS
330
C
102
}
330
C
100
AcDbDictionary
281
     1
  0
DICTIONARY
  5
2A
102
{ACAD_REACTORS
330
C
102
}
330
C
100
AcDbDictionary
281
     1
  3
2dWireframe
350
2F
  3
3D Hidden
350
31
  3
3dWireframe
350
30
  3
Basic
350
32
  3
Brighten
350
36
  3
ColorChange
350
3A
  3
Conceptual
350
34
  3
Dim
350
35
  3
Facepattern
350
39
  3
Flat
350
2B
  3
FlatWithEdges
350
2C
  3
Gouraud
350
2D
  3
GouraudWithEdges
350
2E
  3
Linepattern
350
38
  3
Realistic
350
33
  3
Thicken
350
37
  0
LAYOUT
  5
1E
102
{ACAD_REACTORS
330
1A
102
}
330
1A
100
AcDbPlotSettings
  1

  2
none_device
  4

  6

 40
0.0
 41
0.0
 42
0.0
 43
0.0
 44
0.0
 45
0.0
 46
0.0
 47
0.0
 48
0.0
 49
0.0
140
0.0
141
0.0
142
1.0
143
1.0
 70
   688
 72
     0
 73
     0
 74
     5
  7

 75
    16
 76
     0
 77
     2
 78
   300
147
1.0
148
0.0
149
0.0
100
AcDbLayout
  1
Layout1
 70
     1
 71
     1
 10
0.0
 20
0.0
 11
12.0
 21
9.0
 12
0.0
 22
0.0
 32
0.0
 14
1.000000000000000E+20
 24
1.000000000000000E+20
 34
1.000000000000000E+20
 15
-1.000000000000000E+20
 25
-1.000000000000000E+20
 35
-1.000000000000000E+20
146
0.0
 13
0.0
 23
0.0
 33
0.0
 16
1.0
 26
0.0
 36
0.0
 17
0.0
 27
1.0
 37
0.0
 76
     0
330
1B
  0
LAYOUT
  5
26
102
{ACAD_REACTORS
330
1A
102
}
330
1A
100
AcDbPlotSettings
  1

  2
none_device
  4

  6

 40
0.0
 41
0.0
 42
0.0
 43
0.0
 44
0.0
 45
0.0
 46
0.0
 47
0.0
 48
0.0
 49
0.0
140
0.0
141
0.0
142
1.0
143
1.0
 70
   688
 72
     0
 73
     0
 74
     5
  7

 75
    16
 76
     0
 77
     2
 78
   300
147
1.0
148
0.0
149
0.0
100
AcDbLayout
  1
Layout2
 70
     1
 71
     2
 10
0.0
 20
0.0
 11
0.0
 21
0.0
 12
0.0
 22
0.0
 32
0.0
 14
0.0
 24
0.0
 34
0.0
 15
0.0
 25
0.0
 35
0.0
146
0.0
 13
0.0
 23
0.0
 33
0.0
 16
1.0
 26
0.0
 36
0.0
 17
0.0
 27
1.0
 37
0.0
 76
     0
330
23
  0
LAYOUT
  5
22
102
{ACAD_REACTORS
330
1A
102
}
330
1A
100
AcDbPlotSettings
  1

  2
none_device
  4

  6

 40
0.0
 41
0.0
 42
0.0
 43
0.0
 44
0.0
 45
0.0
 46
0.0
 47
0.0
 48
0.0
 49
0.0
140
0.0
141
0.0
142
1.0
143
1.0
 70
  1712
 72
     0
 73
     0
 74
     0
  7

 75
     0
 76
     0
 77
     2
 78
   300
147
1.0
148
0.0
149
0.0
100
AcDbLayout
  1
Model
 70
     1
 71
     0
 10
0.0
 20
0.0
 11
12.0
 21
9.0
 12
0.0
 22
0.0
 32
0.0
 14
-11.43664
 24
-14.86767
 34
0.0
 15
-9.5644
 25
-13.73075
 35
0.0
146
0.0
 13
0.0
 23
0.0
 33
0.0
 16
1.0
 26
0.0
 36
0.0
 17
0.0
 27
1.0
 37
0.0
 76
     0
330
1F
331
29
  0
MLINESTYLE
  5
18
102
{ACAD_REACTORS
330
17
102
}
330
17
100
AcDbMlineStyle
  2
Standard
 70
     0
  3

 62
   256
 51
90.0
 52
90.0
 71
     2
 49
0.5
 62
   256
  6
BYLAYER
 49
-0.5
 62
   256
  6
BYLAYER
  0
ACDBPLACEHOLDER
  5
F
102
{ACAD_REACTORS
330
E
102
}
330
E
  0
SCALE
  5
3C
102
{ACAD_REACTORS
330
3B
102
}
330
3B
100
AcDbScale
 70
     0
300
1:1
140
1.0
141
1.0
290
     1
  0
SCALE
  5
3D
102
{ACAD_REACTORS
330
3B
102
}
330
3B
100
AcDbScale
 70
     0
300
1:2
140
1.0
141
2.0
290
     0
  0
SCALE
  5
3E
102
{ACAD_REACTORS
330
3B
102
}
330
3B
100
AcDbScale
 70
     0
300
1:4
140
1.0
141
4.0
290
     0
  0
SCALE
  5
3F
102
{ACAD_REACTORS
330
3B
102
}
330
3B
100
AcDbScale
 70
     0
300
1:5
140
1.0
141
5.0
290
     0
  0
SCALE
  5
40
102
{ACAD_REACTORS
330
3B
102
}
330
3B
100
AcDbScale
 70
     0
300
1:8
140
1.0
141
8.0
290
     0
  0
SCALE
  5
41
102
{ACAD_REACTORS
330
3B
102
}
330
3B
100
AcDbScale
 70
     0
300
1:10
140
1.0
141
10.0
290
     0
  0
SCALE
  5
42
102
{ACAD_REACTORS
330
3B
102
}
330
3B
100
AcDbScale
 70
     0
300
1:16
140
1.0
141
16.0
290
     0
  0
SCALE
  5
43
102
{ACAD_REACTORS
330
3B
102
}
330
3B
100
AcDbScale
 70
     0
300
1:20
140
1.0
141
20.0
290
     0
  0
SCALE
  5
44
102
{ACAD_REACTORS
330
3B
102
}
330
3B
100
AcDbScale
 70
     0
300
1:30
140
1.0
141
30.0
290
     0
  0
SCALE
  5
45
102
{ACAD_REACTORS
330
3B
102
}
330
3B
100
AcDbScale
 70
     0
300
1:40
140
1.0
141
40.0
290
     0
  0
SCALE
  5
46
102
{ACAD_REACTORS
330
3B
102
}
330
3B
100
AcDbScale
 70
     0
300
1:50
140
1.0
141
50.0
290
     0
  0
SCALE
  5
47
102
{ACAD_REACTORS
330
3B
102
}
330
3B
100
AcDbScale
 70
     0
300
1:100
140
1.0
141
100.0
290
     0
  0
SCALE
  5
48
102
{ACAD_REACTORS
330
3B
102
}
330
3B
100
AcDbScale
 70
     0
300
2:1
140
2.0
141
1.0
290
     0
  0
SCALE
  5
49
102
{ACAD_REACTORS
330
3B
102
}
330
3B
100
AcDbScale
 70
     0
300
4:1
140
4.0
141
1.0
290
     0
  0
SCALE
  5
4A
102
{ACAD_REACTORS
330
3B
102
}
330
3B
100
AcDbScale
 70
     0
300
8:1
140
8.0
141
1.0
290
     0
  0
SCALE
  5
4B
102
{ACAD_REACTORS
330
3B
102
}
330
3B
100
AcDbScale
 70
     0
300
10:1
140
10.0
141
1.0
290
     0
  0
SCALE
  5
4C
102
{ACAD_REACTORS
330
3B
102
}
330
3B
100
AcDbScale
 70
     0
300
100:1
140
100.0
141
1.0
290
     0
  0
SCALE
  5
4D
102
{ACAD_REACTORS
330
3B
102
}
330
3B
100
AcDbScale
 70
     0
300
1/128" = 1'-0"
140
0.0078125
141
12.0
290
     0
  0
SCALE
  5
4E
102
{ACAD_REACTORS
330
3B
102
}
330
3B
100
AcDbScale
 70
     0
300
1/64" = 1'-0"
140
0.015625
141
12.0
290
     0
  0
SCALE
  5
4F
102
{ACAD_REACTORS
330
3B
102
}
330
3B
100
AcDbScale
 70
     0
300
1/32" = 1'-0"
140
0.03125
141
12.0
290
     0
  0
SCALE
  5
50
102
{ACAD_REACTORS
330
3B
102
}
330
3B
100
AcDbScale
 70
     0
300
1/16" = 1'-0"
140
0.0625
141
12.0
290
     0
  0
SCALE
  5
51
102
{ACAD_REACTORS
330
3B
102
}
330
3B
100
AcDbScale
 70
     0
300
3/32" = 1'-0"
140
0.09375
141
12.0
290
     0
  0
SCALE
  5
52
102
{ACAD_REACTORS
330
3B
102
}
330
3B
100
AcDbScale
 70
     0
300
1/8" = 1'-0"
140
0.125
141
12.0
290
     0
  0
SCALE
  5
53
102
{ACAD_REACTORS
330
3B
102
}
330
3B
100
AcDbScale
 70
     0
300
3/16" = 1'-0"
140
0.1875
141
12.0
290
     0
  0
SCALE
  5
54
102
{ACAD_REACTORS
330
3B
102
}
330
3B
100
AcDbScale
 70
     0
300
1/4" = 1'-0"
140
0.25
141
12.0
290
     0
  0
SCALE
  5
55
102
{ACAD_REACTORS
330
3B
102
}
330
3B
100
AcDbScale
 70
     0
300
3/8" = 1'-0"
140
0.375
141
12.0
290
     0
  0
SCALE
  5
56
102
{ACAD_REACTORS
330
3B
102
}
330
3B
100
AcDbScale
 70
     0
300
1/2" = 1'-0"
140
0.5
141
12.0
290
     0
  0
SCALE
  5
57
102
{ACAD_REACTORS
330
3B
102
}
330
3B
100
AcDbScale
 70
     0
300
3/4" = 1'-0"
140
0.75
141
12.0
290
     0
  0
SCALE
  5
58
102
{ACAD_REACTORS
330
3B
102
}
330
3B
100
AcDbScale
 70
     0
300
1" = 1'-0"
140
1.0
141
12.0
290
     0
  0
SCALE
  5
59
102
{ACAD_REACTORS
330
3B
102
}
330
3B
100
AcDbScale
 70
     0
300
1-1/2" = 1'-0"
140
1.5
141
12.0
290
     0
  0
SCALE
  5
5A
102
{ACAD_REACTORS
330
3B
102
}
330
3B
100
AcDbScale
 70
     0
300
3" = 1'-0"
140
3.0
141
12.0
290
     0
  0
SCALE
  5
5B
102
{ACAD_REACTORS
330
3B
102
}
330
3B
100
AcDbScale
 70
     0
300
6" = 1'-0"
140
6.0
141
12.0
290
     0
  0
SCALE
  5
5C
102
{ACAD_REACTORS
330
3B
102
}
330
3B
100
AcDbScale
 70
     0
300
1'-0" = 1'-0"
140
12.0
141
12.0
290
     0
  0
VISUALSTYLE
  5
2F
102
{ACAD_REACTORS
330
2A
102
}
330
2A
100
AcDbVisualStyle
  2
2dWireframe
 70
     4
 71
     0
 72
     2
 73
     0
 90
        0
 40
-0.6
 41
-30.0
 62
     5
 63
     7
421
 16777215
 74
     1
 91
        4
 64
     7
 65
   257
 75
     1
175
     1
 42
1.0
 92
        0
 66
   257
 43
1.0
 76
     1
 77
     6
 78
     2
 67
     7
 79
     5
170
     0
171
     0
290
     0
174
     0
 93
        1
 44
0.0
173
     0
291
     0
 45
0.0
  0
VISUALSTYLE
  5
31
102
{ACAD_REACTORS
330
2A
102
}
330
2A
100
AcDbVisualStyle
  2
3D Hidden
 70
     6
 71
     1
 72
     2
 73
     2
 90
        0
 40
-0.6
 41
-30.0
 62
     5
 63
     7
421
 16777215
 74
     2
 91
        2
 64
     7
 65
   257
 75
     2
175
     1
 42
40.0
 92
        0
 66
   257
 43
1.0
 76
     1
 77
     6
 78
     2
 67
     7
 79
     3
170
     0
171
     0
290
     0
174
     0
 93
        1
 44
0.0
173
     0
291
     0
 45
0.0
  0
VISUALSTYLE
  5
30
102
{ACAD_REACTORS
330
2A
102
}
330
2A
100
AcDbVisualStyle
  2
3dWireframe
 70
     5
 71
     0
 72
     2
 73
     0
 90
        0
 40
-0.6
 41
-30.0
 62
     5
 63
     7
421
 16777215
 74
     1
 91
        4
 64
     7
 65
   257
 75
     1
175
     1
 42
1.0
 92
        0
 66
   257
 43
1.0
 76
     1
 77
     6
 78
     2
 67
     7
 79
     5
170
     0
171
     0
290
     0
174
     0
 93
        1
 44
0.0
173
     0
291
     0
 45
0.0
  0
VISUALSTYLE
  5
32
102
{ACAD_REACTORS
330
2A
102
}
330
2A
100
AcDbVisualStyle
  2
Basic
 70
     7
 71
     1
 72
     0
 73
     1
 90
        0
 40
-0.6
 41
-30.0
 62
     5
 63
     7
421
 16777215
 74
     0
 91
        4
 64
     7
 65
   257
 75
     1
175
     1
 42
1.0
 92
        8
 66
     7
 43
1.0
 76
     1
 77
     6
 78
     2
 67
     7
 79
     5
170
     0
171
     0
290
     0
174
     0
 93
        1
 44
0.0
173
     0
291
     1
 45
0.0
  0
VISUALSTYLE
  5
36
102
{ACAD_REACTORS
330
2A
102
}
330
2A
100
AcDbVisualStyle
  2
Brighten
 70
    12
 71
     2
 72
     2
 73
     0
 90
        0
 40
-0.6
 41
-30.0
 62
     5
 63
     7
421
 16777215
 74
     1
 91
        4
 64
     7
 65
   257
 75
     1
175
     1
 42
1.0
 92
        8
 66
     7
 43
1.0
 76
     1
 77
     6
 78
     2
 67
     7
 79
     5
170
     0
171
     0
290
     0
174
     0
 93
        1
 44
50.0
173
     0
291
     1
 45
0.0
  0
VISUALSTYLE
  5
3A
102
{ACAD_REACTORS
330
2A
102
}
330
2A
100
AcDbVisualStyle
  2
ColorChange
 70
    16
 71
     2
 72
     2
 73
     3
 90
        0
 40
-0.6
 41
-30.0
 62
     5
 63
     8
421
  8421504
 74
     1
 91
        4
 64
     7
 65
   257
 75
     1
175
     1
 42
1.0
 92
        8
 66
     8
424
  8421504
 43
1.0
 76
     1
 77
     6
 78
     2
 67
     7
 79
     5
170
     0
171
     0
290
     0
174
     0
 93
        1
 44
0.0
173
     0
291
     1
 45
0.0
  0
VISUALSTYLE
  5
34
102
{ACAD_REACTORS
330
2A
102
}
330
2A
100
AcDbVisualStyle
  2
Conceptual
 70
     9
 71
     3
 72
     2
 73
     0
 90
        0
 40
-0.6
 41
-30.0
 62
     5
 63
     7
421
 16777215
 74
     2
 91
        2
 64
     7
 65
   257
 75
     1
175
     1
 42
40.0
 92
        8
 66
     7
 43
1.0
 76
     1
 77
     6
 78
     2
 67
     7
 79
     3
170
     0
171
     0
290
     0
174
     0
 93
        1
 44
0.0
173
     0
291
     0
 45
0.0
  0
VISUALSTYLE
  5
35
102
{ACAD_REACTORS
330
2A
102
}
330
2A
100
AcDbVisualStyle
  2
Dim
 70
    11
 71
     2
 72
     2
 73
     0
 90
        0
 40
-0.6
 41
-30.0
 62
     5
 63
     7
421
 16777215
 74
     1
 91
        4
 64
     7
 65
   257
 75
     1
175
     1
 42
1.0
 92
        8
 66
     7
 43
1.0
 76
     1
 77
     6
 78
     2
 67
     7
 79
     5
170
     0
171
     0
290
     0
174
     0
 93
        1
 44
-50.0
173
     0
291
     1
 45
0.0
  0
VISUALSTYLE
  5
39
102
{ACAD_REACTORS
330
2A
102
}
330
2A
100
AcDbVisualStyle
  2
Facepattern
 70
    15
 71
     2
 72
     2
 73
     0
 90
        0
 40
-0.6
 41
-30.0
 62
     5
 63
     7
421
 16777215
 74
     1
 91
        4
 64
     7
 65
   257
 75
     1
175
     1
 42
1.0
 92
        8
 66
     7
 43
1.0
 76
     1
 77
     6
 78
     2
 67
     7
 79
     5
170
     0
171
     0
290
     0
174
     0
 93
        1
 44
0.0
173
     0
291
     1
 45
0.0
  0
VISUALSTYLE
  5
2B
102
{ACAD_REACTORS
330
2A
102
}
330
2A
100
AcDbVisualStyle
  2
Flat
 70
     0
 71
     2
 72
     1
 73
     1
 90
        2
 40
-0.6
 41
30.0
 62
     5
 63
     7
421
 16777215
 74
     0
 91
        4
 64
     7
 65
   257
 75
     1
175
     1
 42
1.0
 92
        8
 66
     7
 43
1.0
 76
     1
 77
     6
 78
     2
 67
     7
 79
     5
170
     0
171
     0
290
     0
174
     0
 93
       13
 44
0.0
173
     0
291
     1
 45
0.0
  0
VISUALSTYLE
  5
2C
102
{ACAD_REACTORS
330
2A
102
}
330
2A
100
AcDbVisualStyle
  2
FlatWithEdges
 70
     1
 71
     2
 72
     1
 73
     1
 90
        2
 40
-0.6
 41
30.0
 62
     5
 63
     7
421
 16777215
 74
     1
 91
        4
 64
     7
 65
   257
 75
     1
175
     1
 42
1.0
 92
        0
 66
   257
 43
1.0
 76
     1
 77
     6
 78
     2
 67
     7
 79
     5
170
     0
171
     0
290
     0
174
     0
 93
       13
 44
0.0
173
     0
291
     1
 45
0.0
  0
VISUALSTYLE
  5
2D
102
{ACAD_REACTORS
330
2A
102
}
330
2A
100
AcDbVisualStyle
  2
Gouraud
 70
     2
 71
     2
 72
     2
 73
     1
 90
        2
 40
-0.6
 41
30.0
 62
     5
 63
     7
421
 16777215
 74
     0
 91
        4
 64
     7
 65
   257
 75
     1
175
     1
 42
1.0
 92
        0
 66
     7
 43
1.0
 76
     1
 77
     6
 78
     2
 67
     7
 79
     5
170
     0
171
     0
290
     0
174
     0
 93
       13
 44
0.0
173
     0
291
     1
 45
0.0
  0
VISUALSTYLE
  5
2E
102
{ACAD_REACTORS
330
2A
102
}
330
2A
100
AcDbVisualStyle
  2
GouraudWithEdges
 70
     3
 71
     2
 72
     2
 73
     1
 90
        2
 40
-0.6
 41
30.0
 62
     5
 63
     7
421
 16777215
 74
     1
 91
        4
 64
     7
 65
   257
 75
     1
175
     1
 42
1.0
 92
        0
 66
   257
 43
1.0
 76
     1
 77
     6
 78
     2
 67
     7
 79
     5
170
     0
171
     0
290
     0
174
     0
 93
       13
 44
0.0
173
     0
291
     1
 45
0.0
  0
VISUALSTYLE
  5
38
102
{ACAD_REACTORS
330
2A
102
}
330
2A
100
AcDbVisualStyle
  2
Linepattern
 70
    14
 71
     2
 72
     2
 73
     0
 90
        0
 40
-0.6
 41
-30.0
 62
     5
 63
     7
421
 16777215
 74
     1
 91
        4
 64
     7
 65
   257
 75
     7
175
     7
 42
1.0
 92
        8
 66
     7
 43
1.0
 76
     1
 77
     6
 78
     2
 67
     7
 79
     5
170
     0
171
     0
290
     0
174
     0
 93
        1
 44
0.0
173
     0
291
     1
 45
0.0
  0
VISUALSTYLE
  5
33
102
{ACAD_REACTORS
330
2A
102
}
330
2A
100
AcDbVisualStyle
  2
Realistic
 70
     8
 71
     2
 72
     2
 73
     0
 90
        0
 40
-0.6
 41
-30.0
 62
     5
 63
     7
421
 16777215
 74
     1
 91
        0
 64
     7
 65
   257
 75
     1
175
     1
 42
1.0
 92
        8
 66
     8
424
  7895160
 43
1.0
 76
     1
 77
     6
 78
     2
 67
     7
 79
     5
170
     0
171
     0
290
     0
174
     0
 93
       13
 44
0.0
173
     0
291
     0
 45
0.0
  0
VISUALSTYLE
  5
37
102
{ACAD_REACTORS
330
2A
102
}
330
2A
100
AcDbVisualStyle
  2
Thicken
 70
    13
 71
     2
 72
     2
 73
     0
 90
        0
 40
-0.6
 41
-30.0
 62
     5
 63
     7
421
 16777215
 74
     1
 91
        4
 64
     7
 65
   257
 75
     1
175
     1
 42
1.0
 92
       12
 66
     7
 43
1.0
 76
     1
 77
     6
 78
     2
 67
     7
 79
     5
170
     0
171
     0
290
     0
174
     0
 93
        1
 44
0.0
173
     0
291
     1
 45
0.0
  0
ENDSEC
  0
EOF
