  0
SECTION
  2
HEADER
  9
$ACADVER
  1
AC1021
  9
$ACADMAINTVER
 70
    25
  9
$DWGCODEPAGE
  3
ANSI_1252
  9
$INSBASE
 10
0.0
 20
0.0
 30
0.0
  9
$EXTMIN
 10
-11.55
 20
-15.85
 30
0.0
  9
$EXTMAX
 10
-9.45
 20
-13.85
 30
0.0
  9
$LIMMIN
 10
0.0
 20
0.0
  9
$LIMMAX
 10
12.0
 20
9.0
  9
$ORTHOMODE
 70
     0
  9
$REGENMODE
 70
     1
  9
$FILLMODE
 70
     1
  9
$QTEXTMODE
 70
     0
  9
$MIRRTEXT
 70
     1
  9
$LTSCALE
 40
1.0
  9
$ATTMODE
 70
     1
  9
$TEXTSIZE
 40
0.2
  9
$TRACEWID
 40
0.05
  9
$TEXTSTYLE
  7
Standard
  9
$CLAYER
  8
0
  9
$CELTYPE
  6
ByLayer
  9
$CECOLOR
 62
   256
  9
$CELTSCALE
 40
1.0
  9
$DISPSILH
 70
     0
  9
$DIMSCALE
 40
1.0
  9
$DIMASZ
 40
0.18
  9
$DIMEXO
 40
0.0625
  9
$DIMDLI
 40
0.38
  9
$DIMRND
 40
0.0
  9
$DIMDLE
 40
0.0
  9
$DIMEXE
 40
0.18
  9
$DIMTP
 40
0.0
  9
$DIMTM
 40
0.0
  9
$DIMTXT
 40
0.18
  9
$DIMCEN
 40
0.09
  9
$DIMTSZ
 40
0.0
  9
$DIMTOL
 70
     0
  9
$DIMLIM
 70
     0
  9
$DIMTIH
 70
     1
  9
$DIMTOH
 70
     1
  9
$DIMSE1
 70
     0
  9
$DIMSE2
 70
     0
  9
$DIMTAD
 70
     0
  9
$DIMZIN
 70
     0
  9
$DIMBLK
  1

  9
$DIMASO
 70
     1
  9
$DIMSHO
 70
     1
  9
$DIMPOST
  1

  9
$DIMAPOST
  1

  9
$DIMALT
 70
     0
  9
$DIMALTD
 70
     2
  9
$DIMALTF
 40
25.4
  9
$DIMLFAC
 40
1.0
  9
$DIMTOFL
 70
     0
  9
$DIMTVP
 40
0.0
  9
$DIMTIX
 70
     0
  9
$DIMSOXD
 70
     0
  9
$DIMSAH
 70
     0
  9
$DIMBLK1
  1

  9
$DIMBLK2
  1

  9
$DIMSTYLE
  2
Standard
  9
$DIMCLRD
 70
     0
  9
$DIMCLRE
 70
     0
  9
$DIMCLRT
 70
     0
  9
$DIMTFAC
 40
1.0
  9
$DIMGAP
 40
0.09
  9
$DIMJUST
 70
     0
  9
$DIMSD1
 70
     0
  9
$DIMSD2
 70
     0
  9
$DIMTOLJ
 70
     1
  9
$DIMTZIN
 70
     0
  9
$DIMALTZ
 70
     0
  9
$DIMALTTZ
 70
     0
  9
$DIMUPT
 70
     0
  9
$DIMDEC
 70
     4
  9
$DIMTDEC
 70
     4
  9
$DIMALTU
 70
     2
  9
$DIMALTTD
 70
     2
  9
$DIMTXSTY
  7
Standard
  9
$DIMAUNIT
 70
     0
  9
$DIMADEC
 70
     0
  9
$DIMALTRND
 40
0.0
  9
$DIMAZIN
 70
     0
  9
$DIMDSEP
 70
    46
  9
$DIMATFIT
 70
     3
  9
$DIMFRAC
 70
     0
  9
$DIMLDRBLK
  1

  9
$DIMLUNIT
 70
     2
  9
$DIMLWD
 70
    -2
  9
$DIMLWE
 70
    -2
  9
$DIMTMOVE
 70
     0
  9
$DIMFXL
 40
1.0
  9
$DIMFXLON
 70
     0
  9
$DIMJOGANG
 40
0.7853981633974483
  9
$DIMTFILL
 70
     0
  9
$DIMTFILLCLR
 70
     0
  9
$DIMARCSYM
 70
     0
  9
$DIMLTYPE
  6

  9
$DIMLTEX1
  6

  9
$DIMLTEX2
  6

  9
$LUNITS
 70
     2
  9
$LUPREC
 70
     4
  9
$SKETCHINC
 40
0.1
  9
$FILLETRAD
 40
0.5
  9
$AUNITS
 70
     0
  9
$AUPREC
 70
     0
  9
$MENU
  1
.
  9
$ELEVATION
 40
0.0
  9
$PELEVATION
 40
0.0
  9
$THICKNESS
 40
0.0
  9
$LIMCHECK
 70
     0
  9
$CHAMFERA
 40
0.5
  9
$CHAMFERB
 40
0.5
  9
$CHAMFERC
 40
1.0
  9
$CHAMFERD
 40
0.0
  9
$SKPOLY
 70
     0
  9
$TDCREATE
 40
2457049.557943912
  9
$TDUCREATE
 40
2457049.557943912
  9
$TDUPDATE
 40
2457049.557943923
  9
$TDUUPDATE
 40
2457049.557943923
  9
$TDINDWG
 40
0.0000000116
  9
$TDUSRTIMER
 40
0.0000000116
  9
$USRTIMER
 70
     1
  9
$ANGBASE
 50
0.0
  9
$ANGDIR
 70
     0
  9
$PDMODE
 70
     0
  9
$PDSIZE
 40
0.0
  9
$PLINEWID
 40
0.0
  9
$SPLFRAME
 70
     0
  9
$SPLINETYPE
 70
     6
  9
$SPLINESEGS
 70
     8
  9
$HANDSEED
  5
9B
  9
$SURFTAB1
 70
     6
  9
$SURFTAB2
 70
     6
  9
$SURFTYPE
 70
     6
  9
$SURFU
 70
     6
  9
$SURFV
 70
     6
  9
$UCSBASE
  2

  9
$UCSNAME
  2

  9
$UCSORG
 10
0.0
 20
0.0
 30
0.0
  9
$UCSXDIR
 10
1.0
 20
0.0
 30
0.0
  9
$UCSYDIR
 10
0.0
 20
1.0
 30
0.0
  9
$UCSORTHOREF
  2

  9
$UCSORTHOVIEW
 70
     0
  9
$UCSORGTOP
 10
0.0
 20
0.0
 30
0.0
  9
$UCSORGBOTTOM
 10
0.0
 20
0.0
 30
0.0
  9
$UCSORGLEFT
 10
0.0
 20
0.0
 30
0.0
  9
$UCSORGRIGHT
 10
0.0
 20
0.0
 30
0.0
  9
$UCSORGFRONT
 10
0.0
 20
0.0
 30
0.0
  9
$UCSORGBACK
 10
0.0
 20
0.0
 30
0.0
  9
$PUCSBASE
  2

  9
$PUCSNAME
  2

  9
$PUCSORG
 10
0.0
 20
0.0
 30
0.0
  9
$PUCSXDIR
 10
1.0
 20
0.0
 30
0.0
  9
$PUCSYDIR
 10
0.0
 20
1.0
 30
0.0
  9
$PUCSORTHOREF
  2

  9
$PUCSORTHOVIEW
 70
     0
  9
$PUCSORGTOP
 10
0.0
 20
0.0
 30
0.0
  9
$PUCSORGBOTTOM
 10
0.0
 20
0.0
 30
0.0
  9
$PUCSORGLEFT
 10
0.0
 20
0.0
 30
0.0
  9
$PUCSORGRIGHT
 10
0.0
 20
0.0
 30
0.0
  9
$PUCSORGFRONT
 10
0.0
 20
0.0
 30
0.0
  9
$PUCSORGBACK
 10
0.0
 20
0.0
 30
0.0
  9
$USERI1
 70
     0
  9
$USERI2
 70
     0
  9
$USERI3
 70
     0
  9
$USERI4
 70
     0
  9
$USERI5
 70
     0
  9
$USERR1
 40
0.0
  9
$USERR2
 40
0.0
  9
$USERR3
 40
0.0
  9
$USERR4
 40
0.0
  9
$USERR5
 40
0.0
  9
$WORLDVIEW
 70
     1
  9
$SHADEDGE
 70
     3
  9
$SHADEDIF
 70
    70
  9
$TILEMODE
 70
     1
  9
$MAXACTVP
 70
    64
  9
$PINSBASE
 10
0.0
 20
0.0
 30
0.0
  9
$PLIMCHECK
 70
     0
  9
$PEXTMIN
 10
1.000000000000000E+20
 20
1.000000000000000E+20
 30
1.000000000000000E+20
  9
$PEXTMAX
 10
-1.000000000000000E+20
 20
-1.000000000000000E+20
 30
-1.000000000000000E+20
  9
$PLIMMIN
 10
0.0
 20
0.0
  9
$PLIMMAX
 10
12.0
 20
9.0
  9
$UNITMODE
 70
     0
  9
$VISRETAIN
 70
     1
  9
$PLINEGEN
 70
     0
  9
$PSLTSCALE
 70
     1
  9
$TREEDEPTH
 70
  3020
  9
$CMLSTYLE
  2
Standard
  9
$CMLJUST
 70
     0
  9
$CMLSCALE
 40
1.0
  9
$PROXYGRAPHICS
 70
     1
  9
$MEASUREMENT
 70
     0
  9
$CELWEIGHT
370
    -1
  9
$ENDCAPS
280
     0
  9
$JOINSTYLE
280
     0
  9
$LWDISPLAY
290
     0
  9
$INSUNITS
 70
     5
  9
$HYPERLINKBASE
  1

  9
$STYLESHEET
  1

  9
$XEDIT
290
     1
  9
$CEPSNTYPE
380
     0
  9
$PSTYLEMODE
290
     1
  9
$FINGERPRINTGUID
  2
{5634E4F1-E739-4FA7-B8DD-4F83C7FB08E1}
  9
$VERSIONGUID
  2
{FAEB1C32-E019-11D5-929B-00C0DF256EC4}
  9
$EXTNAMES
290
     1
  9
$PSVPSCALE
 40
0.0
  9
$OLESTARTUP
290
     0
  9
$SORTENTS
280
   127
  9
$INDEXCTL
280
     0
  9
$HIDETEXT
280
     1
  9
$XCLIPFRAME
290
     0
  9
$HALOGAP
280
     0
  9
$OBSCOLOR
 70
   257
  9
$OBSLTYPE
280
     0
  9
$INTERSECTIONDISPLAY
280
     0
  9
$INTERSECTIONCOLOR
 70
   257
  9
$DIMASSOC
280
     2
  9
$PROJECTNAME
  1

  9
$CAMERADISPLAY
290
     0
  9
$LENSLENGTH
 40
50.0
  9
$CAMERAHEIGHT
 40
0.0
  9
$STEPSPERSEC
 40
2.0
  9
$STEPSIZE
 40
6.0
  9
$3DDWFPREC
 40
2.0
  9
$PSOLWIDTH
 40
0.25
  9
$PSOLHEIGHT
 40
4.0
  9
$LOFTANG1
 40
1.570796326794897
  9
$LOFTANG2
 40
1.570796326794897
  9
$LOFTMAG1
 40
0.0
  9
$LOFTMAG2
 40
0.0
  9
$LOFTPARAM
 70
     7
  9
$LOFTNORMALS
280
     1
  9
$LATITUDE
 40
37.795
  9
$LONGITUDE
 40
-122.394
  9
$NORTHDIRECTION
 40
0.0
  9
$TIMEZONE
 70
 -8000
  9
$LIGHTGLYPHDISPLAY
280
     1
  9
$TILEMODELIGHTSYNCH
280
     1
  9
$SOLIDHIST
280
     1
  9
$SHOWHIST
280
     1
  9
$DWFFRAME
280
     2
  9
$DGNFRAME
280
     2
  9
$REALWORLDSCALE
290
     1
  9
$INTERFERECOLOR
 62
   256
  9
$CSHADOW
280
     0
  9
$SHADOWPLANELOCATION
 40
0.0
  0
ENDSEC
  0
SECTION
  2
CLASSES
  0
CLASS
  1
ACDBDICTIONARYWDFLT
  2
AcDbDictionaryWithDefault
  3
ObjectDBX Classes
 90
        0
 91
        3
280
     0
281
     0
  0
CLASS
  1
VISUALSTYLE
  2
AcDbVisualStyle
  3
ObjectDBX Classes
 90
     4095
 91
        3
280
     0
281
     0
  0
CLASS
  1
SCALE
  2
AcDbScale
  3
ObjectDBX Classes
 90
     1153
 91
        3
280
     0
281
     0
  0
ENDSEC
  0
SECTION
  2
TABLES
  0
TABLE
  2
VPORT
  5
8
330
0
100
AcDbSymbolTable
 70
     1
  0
VPORT
  5
29
330
8
100
AcDbSymbolTableRecord
100
AcDbViewportTableRecord
  2
*Active
 70
     0
 10
0.0
 20
0.0
 11
1.0
 21
1.0
 12
10.42990654205607
 22
4.5
 13
0.0
 23
0.0
 14
0.5
 24
0.5
 15
0.5
 25
0.5
 16
0.0
 26
0.0
 36
1.0
 17
0.0
 27
0.0
 37
0.0
 40
9.0
 41
1.972972972850329
 42
50.0
 43
0.0
 44
0.0
 50
0.0
 51
0.0
 71
     0
 72
   100
 73
     1
 74
     3
 75
     0
 76
     0
 77
     0
 78
     0
281
     0
 65
     1
110
0.0
120
0.0
130
0.0
111
1.0
121
0.0
131
0.0
112
0.0
122
1.0
132
0.0
 79
     0
146
0.0
 60
     3
 61
     5
292
     1
282
     1
141
0.0
142
0.0
 63
   256
  0
ENDTAB
  0
TABLE
  2
LTYPE
  5
5
330
0
100
AcDbSymbolTable
 70
     1
  0
LTYPE
  5
14
330
5
100
AcDbSymbolTableRecord
100
AcDbLinetypeTableRecord
  2
ByBlock
 70
     0
  3

 72
    65
 73
     0
 40
0.0
  0
LTYPE
  5
15
330
5
100
AcDbSymbolTableRecord
100
AcDbLinetypeTableRecord
  2
ByLayer
 70
     0
  3

 72
    65
 73
     0
 40
0.0
  0
LTYPE
  5
16
330
5
100
AcDbSymbolTableRecord
100
AcDbLinetypeTableRecord
  2
Continuous
 70
     0
  3
Solid line
 72
    65
 73
     0
 40
0.0
  0
ENDTAB
  0
TABLE
  2
LAYER
  5
2
330
0
100
AcDbSymbolTable
 70
     2
  0
LAYER
  5
10
330
2
100
AcDbSymbolTableRecord
100
AcDbLayerTableRecord
  2
0
 70
     0
 62
     7
  6
Continuous
370
    -3
390
F
347
0
  0
LAYER
  5
5E
330
2
100
AcDbSymbolTableRecord
100
AcDbLayerTableRecord
  2
Layer 1
 70
     0
 62
     7
  6
Continuous
370
    -3
390
F
347
0
  0
ENDTAB
  0
TABLE
  2
STYLE
  5
3
330
0
100
AcDbSymbolTable
 70
     1
  0
STYLE
  5
11
330
3
100
AcDbSymbolTableRecord
100
AcDbTextStyleTableRecord
  2
Standard
 70
     0
 40
0.0
 41
1.0
 50
0.0
 71
     0
 42
0.2
  3
txt
  4

  0
ENDTAB
  0
TABLE
  2
VIEW
  5
6
330
0
100
AcDbSymbolTable
 70
     0
  0
ENDTAB
  0
TABLE
  2
UCS
  5
7
330
0
100
AcDbSymbolTable
 70
     0
  0
ENDTAB
  0
TABLE
  2
APPID
  5
9
330
0
100
AcDbSymbolTable
 70
     2
  0
APPID
  5
12
330
9
100
AcDbSymbolTableRecord
100
AcDbRegAppTableRecord
  2
ACAD
 70
     0
  0
APPID
  5
5D
330
9
100
AcDbSymbolTableRecord
100
AcDbRegAppTableRecord
  2
ODA
 70
     0
  0
ENDTAB
  0
TABLE
  2
DIMSTYLE
  5
A
330
0
100
AcDbSymbolTable
 70
     1
100
AcDbDimStyleTable
  0
DIMSTYLE
105
27
330
A
100
AcDbSymbolTableRecord
100
AcDbDimStyleTableRecord
  2
Standard
 70
     0
340
11
  0
ENDTAB
  0
TABLE
  2
BLOCK_RECORD
  5
1
330
0
100
AcDbSymbolTable
 70
     1
  0
BLOCK_RECORD
  5
1F
330
1
100
AcDbSymbolTableRecord
100
AcDbBlockTableRecord
  2
*Model_Space
340
22
 70
     0
280
     1
281
     0
  0
BLOCK_RECORD
  5
1B
330
1
100
AcDbSymbolTableRecord
100
AcDbBlockTableRecord
  2
*Paper_Space
340
1E
 70
     0
280
     1
281
     0
  0
BLOCK_RECORD
  5
23
330
1
100
AcDbSymbolTableRecord
100
AcDbBlockTableRecord
  2
*Paper_Space0
340
26
 70
     0
280
     1
281
     0
  0
ENDTAB
  0
ENDSEC
  0
SECTION
  2
BLOCKS
  0
BLOCK
  5
20
330
1F
100
AcDbEntity
  8
0
100
AcDbBlockBegin
  2
*Model_Space
 70
     0
 10
0.0
 20
0.0
 30
0.0
  3
*Model_Space
  1

  0
ENDBLK
  5
21
330
1F
100
AcDbEntity
  8
0
100
AcDbBlockEnd
  0
BLOCK
  5
1C
330
1B
100
AcDbEntity
 67
     1
  8
0
100
AcDbBlockBegin
  2
*Paper_Space
 70
     0
 10
0.0
 20
0.0
 30
0.0
  3
*Paper_Space
  1

  0
ENDBLK
  5
1D
330
1B
100
AcDbEntity
 67
     1
  8
0
100
AcDbBlockEnd
  0
BLOCK
  5
24
330
23
100
AcDbEntity
  8
0
100
AcDbBlockBegin
  2
*Paper_Space0
 70
     0
 10
0.0
 20
0.0
 30
0.0
  3
*Paper_Space0
  1

  0
ENDBLK
  5
25
330
23
100
AcDbEntity
  8
0
100
AcDbBlockEnd
  0
ENDSEC
  0
SECTION
  2
ENTITIES
  0
SPLINE
  5
5F
330
1F
100
AcDbEntity
  8
Layer 1
 62
     7
100
AcDbSpline
210
0.0
220
0.0
230
1.0
 70
    11
 71
     3
 72
    20
 73
    16
 74
     0
 42
0.0000000001
 43
0.0000000001
 40
0.0
 40
0.0
 40
0.0
 40
0.0
 40
0.25
 40
0.25
 40
0.25
 40
0.25
 40
0.5
 40
0.5
 40
0.5
 40
0.5
 40
0.75
 40
0.75
 40
0.75
 40
0.75
 40
1.0
 40
1.0
 40
1.0
 40
1.0
 10
-11.5
 20
-13.85
 30
0.0
 10
-11.5
 20
-13.85
 30
0.0
 10
-9.5
 20
-13.85
 30
0.0
 10
-9.5
 20
-13.85
 30
0.0
 10
-9.5
 20
-13.85
 30
0.0
 10
-9.5
 20
-13.85
 30
0.0
 10
-9.5
 20
-15.85
 30
0.0
 10
-9.5
 20
-15.85
 30
0.0
 10
-9.5
 20
-15.85
 30
0.0
 10
-9.5
 20
-15.85
 30
0.0
 10
-11.5
 20
-15.85
 30
0.0
 10
-11.5
 20
-15.85
 30
0.0
 10
-11.5
 20
-15.85
 30
0.0
 10
-11.5
 20
-15.85
 30
0.0
 10
-11.5
 20
-13.85
 30
0.0
 10
-11.5
 20
-13.85
 30
0.0
  0
SPLINE
  5
60
330
1F
100
AcDbEntity
  8
Layer 1
 62
   250
370
   100
100
AcDbSpline
210
0.0
220
0.0
230
1.0
 70
     8
 71
     3
 72
    28
 73
    24
 74
     0
 42
0.0000000001
 43
0.0000000001
 40
0.0
 40
0.0
 40
0.0
 40
0.0
 40
0.1666666666666667
 40
0.1666666666666667
 40
0.1666666666666667
 40
0.1666666666666667
 40
0.3333333333333333
 40
0.3333333333333333
 40
0.3333333333333333
 40
0.3333333333333333
 40
0.5
 40
0.5
 40
0.5
 40
0.5
 40
0.6666666666666666
 40
0.6666666666666666
 40
0.6666666666666666
 40
0.6666666666666666
 40
0.8333333333333333
 40
0.8333333333333333
 40
0.8333333333333333
 40
0.8333333333333333
 40
1.0
 40
1.0
 40
1.0
 40
1.0
 10
-11.5
 20
-14.85
 30
0.0
 10
-11.5
 20
-14.85
 30
0.0
 10
-11.0
 20
-14.85
 30
0.0
 10
-11.0
 20
-14.85
 30
0.0
 10
-11.0
 20
-14.85
 30
0.0
 10
-11.0
 20
-14.71196
 30
0.0
 10
-10.88804
 20
-14.6
 30
0.0
 10
-10.75
 20
-14.6
 30
0.0
 10
-10.75
 20
-14.6
 30
0.0
 10
-10.61196
 20
-14.6
 30
0.0
 10
-10.5
 20
-14.71196
 30
0.0
 10
-10.5
 20
-14.85
 30
0.0
 10
-10.5
 20
-14.85
 30
0.0
 10
-10.5
 20
-14.98804
 30
0.0
 10
-10.38804
 20
-15.1
 30
0.0
 10
-10.25
 20
-15.1
 30
0.0
 10
-10.25
 20
-15.1
 30
0.0
 10
-10.11196
 20
-15.1
 30
0.0
 10
-10.0
 20
-14.98804
 30
0.0
 10
-10.00001
 20
-14.85
 30
0.0
 10
-10.00001
 20
-14.85
 30
0.0
 10
-10.00001
 20
-14.85
 30
0.0
 10
-9.5
 20
-14.85
 30
0.0
 10
-9.5
 20
-14.85
 30
0.0
  0
SPLINE
  5
61
330
1F
100
AcDbEntity
  8
Layer 1
 62
   250
100
AcDbSpline
210
0.0
220
0.0
230
1.0
 70
    11
 71
     3
 72
   116
 73
   112
 74
     0
 42
0.0000000001
 43
0.0000000001
 40
0.0
 40
0.0
 40
0.0
 40
0.0
 40
0.0357142857142857
 40
0.0357142857142857
 40
0.0357142857142857
 40
0.0357142857142857
 40
0.0714285714285714
 40
0.0714285714285714
 40
0.0714285714285714
 40
0.0714285714285714
 40
0.1071428571428571
 40
0.1071428571428571
 40
0.1071428571428571
 40
0.1071428571428571
 40
0.1428571428571428
 40
0.1428571428571428
 40
0.1428571428571428
 40
0.1428571428571428
 40
0.1785714285714285
 40
0.1785714285714285
 40
0.1785714285714285
 40
0.1785714285714285
 40
0.2142857142857142
 40
0.2142857142857142
 40
0.2142857142857142
 40
0.2142857142857142
 40
0.2499999999999999
 40
0.2499999999999999
 40
0.2499999999999999
 40
0.2499999999999999
 40
0.2857142857142856
 40
0.2857142857142856
 40
0.2857142857142856
 40
0.2857142857142856
 40
0.3214285714285713
 40
0.3214285714285713
 40
0.3214285714285713
 40
0.3214285714285713
 40
0.357142857142857
 40
0.357142857142857
 40
0.357142857142857
 40
0.357142857142857
 40
0.3928571428571427
 40
0.3928571428571427
 40
0.3928571428571427
 40
0.3928571428571427
 40
0.4285714285714284
 40
0.4285714285714284
 40
0.4285714285714284
 40
0.4285714285714284
 40
0.4642857142857141
 40
0.4642857142857141
 40
0.4642857142857141
 40
0.4642857142857141
 40
0.4999999999999998
 40
0.4999999999999998
 40
0.4999999999999998
 40
0.4999999999999998
 40
0.5357142857142856
 40
0.5357142857142856
 40
0.5357142857142856
 40
0.5357142857142856
 40
0.5714285714285713
 40
0.5714285714285713
 40
0.5714285714285713
 40
0.5714285714285713
 40
0.607142857142857
 40
0.607142857142857
 40
0.607142857142857
 40
0.607142857142857
 40
0.6428571428571427
 40
0.6428571428571427
 40
0.6428571428571427
 40
0.6428571428571427
 40
0.6785714285714284
 40
0.6785714285714284
 40
0.6785714285714284
 40
0.6785714285714284
 40
0.7142857142857141
 40
0.7142857142857141
 40
0.7142857142857141
 40
0.7142857142857141
 40
0.7499999999999998
 40
0.7499999999999998
 40
0.7499999999999998
 40
0.7499999999999998
 40
0.7857142857142855
 40
0.7857142857142855
 40
0.7857142857142855
 40
0.7857142857142855
 40
0.8214285714285712
 40
0.8214285714285712
 40
0.8214285714285712
 40
0.8214285714285712
 40
0.8571428571428569
 40
0.8571428571428569
 40
0.8571428571428569
 40
0.8571428571428569
 40
0.8928571428571426
 40
0.8928571428571426
 40
0.8928571428571426
 40
0.8928571428571426
 40
0.9285714285714283
 40
0.9285714285714283
 40
0.9285714285714283
 40
0.9285714285714283
 40
0.964285714285714
 40
0.964285714285714
 40
0.964285714285714
 40
0.964285714285714
 40
1.0
 40
1.0
 40
1.0
 40
1.0
 10
-10.87227
 20
-14.03749
 30
0.0
 10
-10.87227
 20
-14.03749
 30
0.0
 10
-10.87227
 20
-14.05924
 30
0.0
 10
-10.87227
 20
-14.05924
 30
0.0
 10
-10.87227
 20
-14.05924
 30
0.0
 10
-10.87792
 20
-14.05672
 30
0.0
 10
-10.88344
 20
-14.05482
 30
0.0
 10
-10.8888
 20
-14.05353
 30
0.0
 10
-10.8888
 20
-14.05353
 30
0.0
 10
-10.89419
 20
-14.05223
 30
0.0
 10
-10.89927
 20
-14.0516
 30
0.0
 10
-10.90404
 20
-14.0516
 30
0.0
 10
-10.90404
 20
-14.0516
 30
0.0
 10
-10.91037
 20
-14.0516
 30
0.0
 10
-10.91507
 20
-14.05247
 30
0.0
 10
-10.91811
 20
-14.05421
 30
0.0
 10
-10.91811
 20
-14.05421
 30
0.0
 10
-10.92114
 20
-14.05597
 30
0.0
 10
-10.92265
 20
-14.05868
 30
0.0
 10
-10.92265
 20
-14.06235
 30
0.0
 10
-10.92265
 20
-14.06235
 30
0.0
 10
-10.92265
 20
-14.0651
 30
0.0
 10
-10.92164
 20
-14.06726
 30
0.0
 10
-10.91959
 20
-14.06879
 30
0.0
 10
-10.91959
 20
-14.06879
 30
0.0
 10
-10.91754
 20
-14.07032
 30
0.0
 10
-10.91383
 20
-14.07166
 30
0.0
 10
-10.90844
 20
-14.07276
 30
0.0
 10
-10.90844
 20
-14.07276
 30
0.0
 10
-10.90844
 20
-14.07276
 30
0.0
 10
-10.89715
 20
-14.07502
 30
0.0
 10
-10.89715
 20
-14.07502
 30
0.0
 10
-10.89715
 20
-14.07502
 30
0.0
 10
-10.8857
 20
-14.07733
 30
0.0
 10
-10.87759
 20
-14.08081
 30
0.0
 10
-10.87277
 20
-14.08551
 30
0.0
 10
-10.87277
 20
-14.08551
 30
0.0
 10
-10.86794
 20
-14.09019
 30
0.0
 10
-10.86552
 20
-14.09685
 30
0.0
 10
-10.86552
 20
-14.10548
 30
0.0
 10
-10.86552
 20
-14.10548
 30
0.0
 10
-10.86552
 20
-14.11684
 30
0.0
 10
-10.86888
 20
-14.12528
 30
0.0
 10
-10.87561
 20
-14.13081
 30
0.0
 10
-10.87561
 20
-14.13081
 30
0.0
 10
-10.88234
 20
-14.13633
 30
0.0
 10
-10.89261
 20
-14.13911
 30
0.0
 10
-10.90644
 20
-14.13911
 30
0.0
 10
-10.90644
 20
-14.13911
 30
0.0
 10
-10.91298
 20
-14.13911
 30
0.0
 10
-10.91952
 20
-14.1385
 30
0.0
 10
-10.92608
 20
-14.13725
 30
0.0
 10
-10.92608
 20
-14.13725
 30
0.0
 10
-10.93264
 20
-14.136
 30
0.0
 10
-10.93923
 20
-14.13417
 30
0.0
 10
-10.94579
 20
-14.13175
 30
0.0
 10
-10.94579
 20
-14.13175
 30
0.0
 10
-10.94579
 20
-14.13175
 30
0.0
 10
-10.94579
 20
-14.10936
 30
0.0
 10
-10.94579
 20
-14.10936
 30
0.0
 10
-10.94579
 20
-14.10936
 30
0.0
 10
-10.93923
 20
-14.11284
 30
0.0
 10
-10.93288
 20
-14.11547
 30
0.0
 10
-10.92674
 20
-14.11724
 30
0.0
 10
-10.92674
 20
-14.11724
 30
0.0
 10
-10.9206
 20
-14.119
 30
0.0
 10
-10.9147
 20
-14.11989
 30
0.0
 10
-10.90901
 20
-14.11989
 30
0.0
 10
-10.90901
 20
-14.11989
 30
0.0
 10
-10.90322
 20
-14.11989
 30
0.0
 10
-10.89878
 20
-14.11893
 30
0.0
 10
-10.8957
 20
-14.117
 30
0.0
 10
-10.8957
 20
-14.117
 30
0.0
 10
-10.89261
 20
-14.11507
 30
0.0
 10
-10.89109
 20
-14.11232
 30
0.0
 10
-10.89109
 20
-14.10872
 30
0.0
 10
-10.89109
 20
-14.10872
 30
0.0
 10
-10.89109
 20
-14.10552
 30
0.0
 10
-10.89212
 20
-14.10303
 30
0.0
 10
-10.89421
 20
-14.10129
 30
0.0
 10
-10.89421
 20
-14.10129
 30
0.0
 10
-10.89631
 20
-14.09955
 30
0.0
 10
-10.90047
 20
-14.09798
 30
0.0
 10
-10.90673
 20
-14.09661
 30
0.0
 10
-10.90673
 20
-14.09661
 30
0.0
 10
-10.90673
 20
-14.09661
 30
0.0
 10
-10.917
 20
-14.09433
 30
0.0
 10
-10.917
 20
-14.09433
 30
0.0
 10
-10.917
 20
-14.09433
 30
0.0
 10
-10.92728
 20
-14.09212
 30
0.0
 10
-10.93481
 20
-14.08862
 30
0.0
 10
-10.93956
 20
-14.08379
 30
0.0
 10
-10.93956
 20
-14.08379
 30
0.0
 10
-10.94431
 20
-14.07897
 30
0.0
 10
-10.94668
 20
-14.07246
 30
0.0
 10
-10.94668
 20
-14.0643
 30
0.0
 10
-10.94668
 20
-14.0643
 30
0.0
 10
-10.94668
 20
-14.05404
 30
0.0
 10
-10.94337
 20
-14.04616
 30
0.0
 10
-10.93676
 20
-14.04066
 30
0.0
 10
-10.93676
 20
-14.04066
 30
0.0
 10
-10.93015
 20
-14.03513
 30
0.0
 10
-10.92065
 20
-14.03238
 30
0.0
 10
-10.90823
 20
-14.03238
 30
0.0
 10
-10.90823
 20
-14.03238
 30
0.0
 10
-10.90259
 20
-14.03238
 30
0.0
 10
-10.89678
 20
-14.03281
 30
0.0
 10
-10.8908
 20
-14.03365
 30
0.0
 10
-10.8908
 20
-14.03365
 30
0.0
 10
-10.88483
 20
-14.0345
 30
0.0
 10
-10.87865
 20
-14.03577
 30
0.0
 10
-10.87227
 20
-14.03749
 30
0.0
  0
SPLINE
  5
62
330
1F
100
AcDbEntity
  8
Layer 1
 62
   250
100
AcDbSpline
210
0.0
220
0.0
230
1.0
 70
    11
 71
     3
 72
    56
 73
    52
 74
     0
 42
0.0000000001
 43
0.0000000001
 40
0.0
 40
0.0
 40
0.0
 40
0.0
 40
0.0769230769230769
 40
0.0769230769230769
 40
0.0769230769230769
 40
0.0769230769230769
 40
0.1538461538461539
 40
0.1538461538461539
 40
0.1538461538461539
 40
0.1538461538461539
 40
0.2307692307692308
 40
0.2307692307692308
 40
0.2307692307692308
 40
0.2307692307692308
 40
0.3076923076923077
 40
0.3076923076923077
 40
0.3076923076923077
 40
0.3076923076923077
 40
0.3846153846153846
 40
0.3846153846153846
 40
0.3846153846153846
 40
0.3846153846153846
 40
0.4615384615384616
 40
0.4615384615384616
 40
0.4615384615384616
 40
0.4615384615384616
 40
0.5384615384615385
 40
0.5384615384615385
 40
0.5384615384615385
 40
0.5384615384615385
 40
0.6153846153846154
 40
0.6153846153846154
 40
0.6153846153846154
 40
0.6153846153846154
 40
0.6923076923076923
 40
0.6923076923076923
 40
0.6923076923076923
 40
0.6923076923076923
 40
0.7692307692307692
 40
0.7692307692307692
 40
0.7692307692307692
 40
0.7692307692307692
 40
0.846153846153846
 40
0.846153846153846
 40
0.846153846153846
 40
0.846153846153846
 40
0.9230769230769229
 40
0.9230769230769229
 40
0.9230769230769229
 40
0.9230769230769229
 40
1.0
 40
1.0
 40
1.0
 40
1.0
 10
-10.84224
 20
-14.03424
 30
0.0
 10
-10.84224
 20
-14.03424
 30
0.0
 10
-10.80849
 20
-14.03424
 30
0.0
 10
-10.80849
 20
-14.03424
 30
0.0
 10
-10.80849
 20
-14.03424
 30
0.0
 10
-10.80849
 20
-14.03424
 30
0.0
 10
-10.78504
 20
-14.0893
 30
0.0
 10
-10.78504
 20
-14.0893
 30
0.0
 10
-10.78504
 20
-14.0893
 30
0.0
 10
-10.78504
 20
-14.0893
 30
0.0
 10
-10.76148
 20
-14.03424
 30
0.0
 10
-10.76148
 20
-14.03424
 30
0.0
 10
-10.76148
 20
-14.03424
 30
0.0
 10
-10.76148
 20
-14.03424
 30
0.0
 10
-10.7278
 20
-14.03424
 30
0.0
 10
-10.7278
 20
-14.03424
 30
0.0
 10
-10.7278
 20
-14.03424
 30
0.0
 10
-10.7278
 20
-14.03424
 30
0.0
 10
-10.7278
 20
-14.13711
 30
0.0
 10
-10.7278
 20
-14.13711
 30
0.0
 10
-10.7278
 20
-14.13711
 30
0.0
 10
-10.7278
 20
-14.13711
 30
0.0
 10
-10.75287
 20
-14.13711
 30
0.0
 10
-10.75287
 20
-14.13711
 30
0.0
 10
-10.75287
 20
-14.13711
 30
0.0
 10
-10.75287
 20
-14.13711
 30
0.0
 10
-10.75287
 20
-14.06187
 30
0.0
 10
-10.75287
 20
-14.06187
 30
0.0
 10
-10.75287
 20
-14.06187
 30
0.0
 10
-10.75287
 20
-14.06187
 30
0.0
 10
-10.77658
 20
-14.11733
 30
0.0
 10
-10.77658
 20
-14.11733
 30
0.0
 10
-10.77658
 20
-14.11733
 30
0.0
 10
-10.77658
 20
-14.11733
 30
0.0
 10
-10.79339
 20
-14.11733
 30
0.0
 10
-10.79339
 20
-14.11733
 30
0.0
 10
-10.79339
 20
-14.11733
 30
0.0
 10
-10.79339
 20
-14.11733
 30
0.0
 10
-10.8171
 20
-14.06187
 30
0.0
 10
-10.8171
 20
-14.06187
 30
0.0
 10
-10.8171
 20
-14.06187
 30
0.0
 10
-10.8171
 20
-14.06187
 30
0.0
 10
-10.8171
 20
-14.13711
 30
0.0
 10
-10.8171
 20
-14.13711
 30
0.0
 10
-10.8171
 20
-14.13711
 30
0.0
 10
-10.8171
 20
-14.13711
 30
0.0
 10
-10.84224
 20
-14.13711
 30
0.0
 10
-10.84224
 20
-14.13711
 30
0.0
 10
-10.84224
 20
-14.13711
 30
0.0
 10
-10.84224
 20
-14.13711
 30
0.0
 10
-10.84224
 20
-14.03424
 30
0.0
 10
-10.84224
 20
-14.03424
 30
0.0
  0
SPLINE
  5
63
330
1F
100
AcDbEntity
  8
Layer 1
 62
   250
100
AcDbSpline
210
0.0
220
0.0
230
1.0
 70
    11
 71
     3
 72
    32
 73
    28
 74
     0
 42
0.0000000001
 43
0.0000000001
 40
0.0
 40
0.0
 40
0.0
 40
0.0
 40
0.1428571428571428
 40
0.1428571428571428
 40
0.1428571428571428
 40
0.1428571428571428
 40
0.2857142857142857
 40
0.2857142857142857
 40
0.2857142857142857
 40
0.2857142857142857
 40
0.4285714285714285
 40
0.4285714285714285
 40
0.4285714285714285
 40
0.4285714285714285
 40
0.5714285714285714
 40
0.5714285714285714
 40
0.5714285714285714
 40
0.5714285714285714
 40
0.7142857142857142
 40
0.7142857142857142
 40
0.7142857142857142
 40
0.7142857142857142
 40
0.857142857142857
 40
0.857142857142857
 40
0.857142857142857
 40
0.857142857142857
 40
1.0
 40
1.0
 40
1.0
 40
1.0
 10
-10.67528
 20
-14.0543
 30
0.0
 10
-10.67528
 20
-14.0543
 30
0.0
 10
-10.67528
 20
-14.11705
 30
0.0
 10
-10.67528
 20
-14.11705
 30
0.0
 10
-10.67528
 20
-14.11705
 30
0.0
 10
-10.67528
 20
-14.11705
 30
0.0
 10
-10.66578
 20
-14.11705
 30
0.0
 10
-10.66578
 20
-14.11705
 30
0.0
 10
-10.66578
 20
-14.11705
 30
0.0
 10
-10.65494
 20
-14.11705
 30
0.0
 10
-10.64666
 20
-14.11437
 30
0.0
 10
-10.64095
 20
-14.10898
 30
0.0
 10
-10.64095
 20
-14.10898
 30
0.0
 10
-10.63523
 20
-14.10362
 30
0.0
 10
-10.63236
 20
-14.09581
 30
0.0
 10
-10.63236
 20
-14.08558
 30
0.0
 10
-10.63236
 20
-14.08558
 30
0.0
 10
-10.63236
 20
-14.07537
 30
0.0
 10
-10.63521
 20
-14.06761
 30
0.0
 10
-10.6409
 20
-14.0623
 30
0.0
 10
-10.6409
 20
-14.0623
 30
0.0
 10
-10.64659
 20
-14.05696
 30
0.0
 10
-10.65489
 20
-14.0543
 30
0.0
 10
-10.66578
 20
-14.0543
 30
0.0
 10
-10.66578
 20
-14.0543
 30
0.0
 10
-10.66578
 20
-14.0543
 30
0.0
 10
-10.67528
 20
-14.0543
 30
0.0
 10
-10.67528
 20
-14.0543
 30
0.0
  0
SPLINE
  5
64
330
1F
100
AcDbEntity
  8
Layer 1
 62
   250
100
AcDbSpline
210
0.0
220
0.0
230
1.0
 70
    11
 71
     3
 72
    48
 73
    44
 74
     0
 42
0.0000000001
 43
0.0000000001
 40
0.0
 40
0.0
 40
0.0
 40
0.0
 40
0.0909090909090909
 40
0.0909090909090909
 40
0.0909090909090909
 40
0.0909090909090909
 40
0.1818181818181818
 40
0.1818181818181818
 40
0.1818181818181818
 40
0.1818181818181818
 40
0.2727272727272727
 40
0.2727272727272727
 40
0.2727272727272727
 40
0.2727272727272727
 40
0.3636363636363636
 40
0.3636363636363636
 40
0.3636363636363636
 40
0.3636363636363636
 40
0.4545454545454546
 40
0.4545454545454546
 40
0.4545454545454546
 40
0.4545454545454546
 40
0.5454545454545455
 40
0.5454545454545455
 40
0.5454545454545455
 40
0.5454545454545455
 40
0.6363636363636365
 40
0.6363636363636365
 40
0.6363636363636365
 40
0.6363636363636365
 40
0.7272727272727274
 40
0.7272727272727274
 40
0.7272727272727274
 40
0.7272727272727274
 40
0.8181818181818183
 40
0.8181818181818183
 40
0.8181818181818183
 40
0.8181818181818183
 40
0.9090909090909093
 40
0.9090909090909093
 40
0.9090909090909093
 40
0.9090909090909093
 40
1.0
 40
1.0
 40
1.0
 40
1.0
 10
-10.70181
 20
-14.03424
 30
0.0
 10
-10.70181
 20
-14.03424
 30
0.0
 10
-10.67382
 20
-14.03424
 30
0.0
 10
-10.67382
 20
-14.03424
 30
0.0
 10
-10.67382
 20
-14.03424
 30
0.0
 10
-10.65821
 20
-14.03424
 30
0.0
 10
-10.64659
 20
-14.03535
 30
0.0
 10
-10.63895
 20
-14.03758
 30
0.0
 10
-10.63895
 20
-14.03758
 30
0.0
 10
-10.6313
 20
-14.03981
 30
0.0
 10
-10.62474
 20
-14.04358
 30
0.0
 10
-10.61926
 20
-14.04892
 30
0.0
 10
-10.61926
 20
-14.04892
 30
0.0
 10
-10.61444
 20
-14.05355
 30
0.0
 10
-10.61087
 20
-14.05891
 30
0.0
 10
-10.60851
 20
-14.06498
 30
0.0
 10
-10.60851
 20
-14.06498
 30
0.0
 10
-10.60619
 20
-14.07102
 30
0.0
 10
-10.60501
 20
-14.07789
 30
0.0
 10
-10.60501
 20
-14.08558
 30
0.0
 10
-10.60501
 20
-14.08558
 30
0.0
 10
-10.60501
 20
-14.09334
 30
0.0
 10
-10.60619
 20
-14.10026
 30
0.0
 10
-10.60851
 20
-14.10635
 30
0.0
 10
-10.60851
 20
-14.10635
 30
0.0
 10
-10.61087
 20
-14.11244
 30
0.0
 10
-10.61444
 20
-14.1178
 30
0.0
 10
-10.61926
 20
-14.12243
 30
0.0
 10
-10.61926
 20
-14.12243
 30
0.0
 10
-10.62479
 20
-14.12777
 30
0.0
 10
-10.6314
 20
-14.13154
 30
0.0
 10
-10.63911
 20
-14.13377
 30
0.0
 10
-10.63911
 20
-14.13377
 30
0.0
 10
-10.64683
 20
-14.136
 30
0.0
 10
-10.6584
 20
-14.13711
 30
0.0
 10
-10.67382
 20
-14.13711
 30
0.0
 10
-10.67382
 20
-14.13711
 30
0.0
 10
-10.67382
 20
-14.13711
 30
0.0
 10
-10.70181
 20
-14.13711
 30
0.0
 10
-10.70181
 20
-14.13711
 30
0.0
 10
-10.70181
 20
-14.13711
 30
0.0
 10
-10.70181
 20
-14.13711
 30
0.0
 10
-10.70181
 20
-14.03424
 30
0.0
 10
-10.70181
 20
-14.03424
 30
0.0
  0
SPLINE
  5
65
330
1F
100
AcDbEntity
  8
Layer 1
 62
   250
100
AcDbSpline
210
0.0
220
0.0
230
1.0
 70
    11
 71
     3
 72
    44
 73
    40
 74
     0
 42
0.0000000001
 43
0.0000000001
 40
0.0
 40
0.0
 40
0.0
 40
0.0
 40
0.1
 40
0.1
 40
0.1
 40
0.1
 40
0.2
 40
0.2
 40
0.2
 40
0.2
 40
0.3
 40
0.3
 40
0.3
 40
0.3
 40
0.4
 40
0.4
 40
0.4
 40
0.4
 40
0.5
 40
0.5
 40
0.5
 40
0.5
 40
0.6
 40
0.6
 40
0.6
 40
0.6
 40
0.7
 40
0.7
 40
0.7
 40
0.7
 40
0.7999999999999999
 40
0.7999999999999999
 40
0.7999999999999999
 40
0.7999999999999999
 40
0.8999999999999999
 40
0.8999999999999999
 40
0.8999999999999999
 40
0.8999999999999999
 40
1.0
 40
1.0
 40
1.0
 40
1.0
 10
-10.49532
 20
-14.15571
 30
0.0
 10
-10.49532
 20
-14.15571
 30
0.0
 10
-10.51578
 20
-14.15571
 30
0.0
 10
-10.51578
 20
-14.15571
 30
0.0
 10
-10.51578
 20
-14.15571
 30
0.0
 10
-10.52281
 20
-14.14438
 30
0.0
 10
-10.52801
 20
-14.13358
 30
0.0
 10
-10.53135
 20
-14.12335
 30
0.0
 10
-10.53135
 20
-14.12335
 30
0.0
 10
-10.53471
 20
-14.11314
 30
0.0
 10
-10.53638
 20
-14.10301
 30
0.0
 10
-10.53638
 20
-14.09294
 30
0.0
 10
-10.53638
 20
-14.09294
 30
0.0
 10
-10.53638
 20
-14.08288
 30
0.0
 10
-10.53469
 20
-14.07269
 30
0.0
 10
-10.53133
 20
-14.06239
 30
0.0
 10
-10.53133
 20
-14.06239
 30
0.0
 10
-10.52794
 20
-14.05207
 30
0.0
 10
-10.52277
 20
-14.0413
 30
0.0
 10
-10.51578
 20
-14.03003
 30
0.0
 10
-10.51578
 20
-14.03003
 30
0.0
 10
-10.51578
 20
-14.03003
 30
0.0
 10
-10.49532
 20
-14.03003
 30
0.0
 10
-10.49532
 20
-14.03003
 30
0.0
 10
-10.49532
 20
-14.03003
 30
0.0
 10
-10.5012
 20
-14.04092
 30
0.0
 10
-10.5056
 20
-14.05157
 30
0.0
 10
-10.50854
 20
-14.06197
 30
0.0
 10
-10.50854
 20
-14.06197
 30
0.0
 10
-10.51148
 20
-14.07236
 30
0.0
 10
-10.51296
 20
-14.08264
 30
0.0
 10
-10.51296
 20
-14.0928
 30
0.0
 10
-10.51296
 20
-14.0928
 30
0.0
 10
-10.51296
 20
-14.10296
 30
0.0
 10
-10.5115
 20
-14.11324
 30
0.0
 10
-10.50859
 20
-14.12368
 30
0.0
 10
-10.50859
 20
-14.12368
 30
0.0
 10
-10.50567
 20
-14.1341
 30
0.0
 10
-10.50125
 20
-14.14478
 30
0.0
 10
-10.49532
 20
-14.15571
 30
0.0
  0
SPLINE
  5
66
330
1F
100
AcDbEntity
  8
Layer 1
 62
   250
100
AcDbSpline
210
0.0
220
0.0
230
1.0
 70
    11
 71
     3
 72
    48
 73
    44
 74
     0
 42
0.0000000001
 43
0.0000000001
 40
0.0
 40
0.0
 40
0.0
 40
0.0
 40
0.0909090909090909
 40
0.0909090909090909
 40
0.0909090909090909
 40
0.0909090909090909
 40
0.1818181818181818
 40
0.1818181818181818
 40
0.1818181818181818
 40
0.1818181818181818
 40
0.2727272727272727
 40
0.2727272727272727
 40
0.2727272727272727
 40
0.2727272727272727
 40
0.3636363636363636
 40
0.3636363636363636
 40
0.3636363636363636
 40
0.3636363636363636
 40
0.4545454545454546
 40
0.4545454545454546
 40
0.4545454545454546
 40
0.4545454545454546
 40
0.5454545454545455
 40
0.5454545454545455
 40
0.5454545454545455
 40
0.5454545454545455
 40
0.6363636363636365
 40
0.6363636363636365
 40
0.6363636363636365
 40
0.6363636363636365
 40
0.7272727272727274
 40
0.7272727272727274
 40
0.7272727272727274
 40
0.7272727272727274
 40
0.8181818181818183
 40
0.8181818181818183
 40
0.8181818181818183
 40
0.8181818181818183
 40
0.9090909090909093
 40
0.9090909090909093
 40
0.9090909090909093
 40
0.9090909090909093
 40
1.0
 40
1.0
 40
1.0
 40
1.0
 10
-10.4675
 20
-14.11879
 30
0.0
 10
-10.4675
 20
-14.11879
 30
0.0
 10
-10.44407
 20
-14.11879
 30
0.0
 10
-10.44407
 20
-14.11879
 30
0.0
 10
-10.44407
 20
-14.11879
 30
0.0
 10
-10.44407
 20
-14.11879
 30
0.0
 10
-10.44407
 20
-14.0523
 30
0.0
 10
-10.44407
 20
-14.0523
 30
0.0
 10
-10.44407
 20
-14.0523
 30
0.0
 10
-10.44407
 20
-14.0523
 30
0.0
 10
-10.46811
 20
-14.05727
 30
0.0
 10
-10.46811
 20
-14.05727
 30
0.0
 10
-10.46811
 20
-14.05727
 30
0.0
 10
-10.46811
 20
-14.05727
 30
0.0
 10
-10.46811
 20
-14.0392
 30
0.0
 10
-10.46811
 20
-14.0392
 30
0.0
 10
-10.46811
 20
-14.0392
 30
0.0
 10
-10.46811
 20
-14.0392
 30
0.0
 10
-10.44421
 20
-14.03424
 30
0.0
 10
-10.44421
 20
-14.03424
 30
0.0
 10
-10.44421
 20
-14.03424
 30
0.0
 10
-10.44421
 20
-14.03424
 30
0.0
 10
-10.419
 20
-14.03424
 30
0.0
 10
-10.419
 20
-14.03424
 30
0.0
 10
-10.419
 20
-14.03424
 30
0.0
 10
-10.419
 20
-14.03424
 30
0.0
 10
-10.419
 20
-14.11879
 30
0.0
 10
-10.419
 20
-14.11879
 30
0.0
 10
-10.419
 20
-14.11879
 30
0.0
 10
-10.419
 20
-14.11879
 30
0.0
 10
-10.39558
 20
-14.11879
 30
0.0
 10
-10.39558
 20
-14.11879
 30
0.0
 10
-10.39558
 20
-14.11879
 30
0.0
 10
-10.39558
 20
-14.11879
 30
0.0
 10
-10.39558
 20
-14.13711
 30
0.0
 10
-10.39558
 20
-14.13711
 30
0.0
 10
-10.39558
 20
-14.13711
 30
0.0
 10
-10.39558
 20
-14.13711
 30
0.0
 10
-10.4675
 20
-14.13711
 30
0.0
 10
-10.4675
 20
-14.13711
 30
0.0
 10
-10.4675
 20
-14.13711
 30
0.0
 10
-10.4675
 20
-14.13711
 30
0.0
 10
-10.4675
 20
-14.11879
 30
0.0
 10
-10.4675
 20
-14.11879
 30
0.0
  0
SPLINE
  5
67
330
1F
100
AcDbEntity
  8
Layer 1
 62
   250
100
AcDbSpline
210
0.0
220
0.0
230
1.0
 70
    11
 71
     3
 72
    36
 73
    32
 74
     0
 42
0.0000000001
 43
0.0000000001
 40
0.0
 40
0.0
 40
0.0
 40
0.0
 40
0.125
 40
0.125
 40
0.125
 40
0.125
 40
0.25
 40
0.25
 40
0.25
 40
0.25
 40
0.375
 40
0.375
 40
0.375
 40
0.375
 40
0.5
 40
0.5
 40
0.5
 40
0.5
 40
0.625
 40
0.625
 40
0.625
 40
0.625
 40
0.75
 40
0.75
 40
0.75
 40
0.75
 40
0.875
 40
0.875
 40
0.875
 40
0.875
 40
1.0
 40
1.0
 40
1.0
 40
1.0
 10
-10.33671
 20
-14.09108
 30
0.0
 10
-10.34167
 20
-14.09108
 30
0.0
 10
-10.34551
 20
-14.09245
 30
0.0
 10
-10.34816
 20
-14.09515
 30
0.0
 10
-10.34816
 20
-14.09515
 30
0.0
 10
-10.35082
 20
-14.09786
 30
0.0
 10
-10.35216
 20
-14.10174
 30
0.0
 10
-10.35216
 20
-14.10679
 30
0.0
 10
-10.35216
 20
-14.10679
 30
0.0
 10
-10.35216
 20
-14.11185
 30
0.0
 10
-10.35082
 20
-14.11571
 30
0.0
 10
-10.34816
 20
-14.11841
 30
0.0
 10
-10.34816
 20
-14.11841
 30
0.0
 10
-10.34551
 20
-14.12109
 30
0.0
 10
-10.34167
 20
-14.12243
 30
0.0
 10
-10.33671
 20
-14.12243
 30
0.0
 10
-10.33671
 20
-14.12243
 30
0.0
 10
-10.33179
 20
-14.12243
 30
0.0
 10
-10.32803
 20
-14.12109
 30
0.0
 10
-10.3254
 20
-14.11841
 30
0.0
 10
-10.3254
 20
-14.11841
 30
0.0
 10
-10.32279
 20
-14.11571
 30
0.0
 10
-10.32147
 20
-14.11185
 30
0.0
 10
-10.32147
 20
-14.10679
 30
0.0
 10
-10.32147
 20
-14.10679
 30
0.0
 10
-10.32147
 20
-14.10169
 30
0.0
 10
-10.32279
 20
-14.09781
 30
0.0
 10
-10.3254
 20
-14.09511
 30
0.0
 10
-10.3254
 20
-14.09511
 30
0.0
 10
-10.32803
 20
-14.09243
 30
0.0
 10
-10.33179
 20
-14.09108
 30
0.0
 10
-10.33671
 20
-14.09108
 30
0.0
  0
SPLINE
  5
68
330
1F
100
AcDbEntity
  8
Layer 1
 62
   250
100
AcDbSpline
210
0.0
220
0.0
230
1.0
 70
    11
 71
     3
 72
    68
 73
    64
 74
     0
 42
0.0000000001
 43
0.0000000001
 40
0.0
 40
0.0
 40
0.0
 40
0.0
 40
0.0625
 40
0.0625
 40
0.0625
 40
0.0625
 40
0.125
 40
0.125
 40
0.125
 40
0.125
 40
0.1875
 40
0.1875
 40
0.1875
 40
0.1875
 40
0.25
 40
0.25
 40
0.25
 40
0.25
 40
0.3125
 40
0.3125
 40
0.3125
 40
0.3125
 40
0.375
 40
0.375
 40
0.375
 40
0.375
 40
0.4375
 40
0.4375
 40
0.4375
 40
0.4375
 40
0.5
 40
0.5
 40
0.5
 40
0.5
 40
0.5625
 40
0.5625
 40
0.5625
 40
0.5625
 40
0.625
 40
0.625
 40
0.625
 40
0.625
 40
0.6875
 40
0.6875
 40
0.6875
 40
0.6875
 40
0.75
 40
0.75
 40
0.75
 40
0.75
 40
0.8125
 40
0.8125
 40
0.8125
 40
0.8125
 40
0.875
 40
0.875
 40
0.875
 40
0.875
 40
0.9375
 40
0.9375
 40
0.9375
 40
0.9375
 40
1.0
 40
1.0
 40
1.0
 40
1.0
 10
-10.35609
 20
-14.08234
 30
0.0
 10
-10.36232
 20
-14.08045
 30
0.0
 10
-10.36703
 20
-14.07756
 30
0.0
 10
-10.3702
 20
-14.07366
 30
0.0
 10
-10.3702
 20
-14.07366
 30
0.0
 10
-10.37338
 20
-14.06975
 30
0.0
 10
-10.37495
 20
-14.06489
 30
0.0
 10
-10.37495
 20
-14.05905
 30
0.0
 10
-10.37495
 20
-14.05905
 30
0.0
 10
-10.37495
 20
-14.05037
 30
0.0
 10
-10.37171
 20
-14.04374
 30
0.0
 10
-10.36524
 20
-14.0392
 30
0.0
 10
-10.36524
 20
-14.0392
 30
0.0
 10
-10.35877
 20
-14.03466
 30
0.0
 10
-10.34925
 20
-14.03238
 30
0.0
 10
-10.33671
 20
-14.03238
 30
0.0
 10
-10.33671
 20
-14.03238
 30
0.0
 10
-10.32427
 20
-14.03238
 30
0.0
 10
-10.31479
 20
-14.03464
 30
0.0
 10
-10.30832
 20
-14.03918
 30
0.0
 10
-10.30832
 20
-14.03918
 30
0.0
 10
-10.30186
 20
-14.0437
 30
0.0
 10
-10.29861
 20
-14.05033
 30
0.0
 10
-10.29861
 20
-14.05905
 30
0.0
 10
-10.29861
 20
-14.05905
 30
0.0
 10
-10.29861
 20
-14.06489
 30
0.0
 10
-10.30021
 20
-14.06975
 30
0.0
 10
-10.30338
 20
-14.07366
 30
0.0
 10
-10.30338
 20
-14.07366
 30
0.0
 10
-10.30658
 20
-14.07756
 30
0.0
 10
-10.31131
 20
-14.08045
 30
0.0
 10
-10.31754
 20
-14.08234
 30
0.0
 10
-10.31754
 20
-14.08234
 30
0.0
 10
-10.31056
 20
-14.08426
 30
0.0
 10
-10.30529
 20
-14.08739
 30
0.0
 10
-10.30174
 20
-14.09174
 30
0.0
 10
-10.30174
 20
-14.09174
 30
0.0
 10
-10.29819
 20
-14.09607
 30
0.0
 10
-10.2964
 20
-14.10155
 30
0.0
 10
-10.2964
 20
-14.10818
 30
0.0
 10
-10.2964
 20
-14.10818
 30
0.0
 10
-10.2964
 20
-14.11837
 30
0.0
 10
-10.29979
 20
-14.12608
 30
0.0
 10
-10.30656
 20
-14.13128
 30
0.0
 10
-10.30656
 20
-14.13128
 30
0.0
 10
-10.31333
 20
-14.1365
 30
0.0
 10
-10.3234
 20
-14.13911
 30
0.0
 10
-10.33671
 20
-14.13911
 30
0.0
 10
-10.33671
 20
-14.13911
 30
0.0
 10
-10.35009
 20
-14.13911
 30
0.0
 10
-10.36018
 20
-14.1365
 30
0.0
 10
-10.367
 20
-14.13128
 30
0.0
 10
-10.367
 20
-14.13128
 30
0.0
 10
-10.37382
 20
-14.12608
 30
0.0
 10
-10.37723
 20
-14.11837
 30
0.0
 10
-10.37723
 20
-14.10818
 30
0.0
 10
-10.37723
 20
-14.10818
 30
0.0
 10
-10.37723
 20
-14.10155
 30
0.0
 10
-10.37544
 20
-14.09607
 30
0.0
 10
-10.37189
 20
-14.09174
 30
0.0
 10
-10.37189
 20
-14.09174
 30
0.0
 10
-10.36834
 20
-14.08739
 30
0.0
 10
-10.36307
 20
-14.08426
 30
0.0
 10
-10.35609
 20
-14.08234
 30
0.0
  0
SPLINE
  5
69
330
1F
100
AcDbEntity
  8
Layer 1
 62
   250
100
AcDbSpline
210
0.0
220
0.0
230
1.0
 70
    11
 71
     3
 72
    36
 73
    32
 74
     0
 42
0.0000000001
 43
0.0000000001
 40
0.0
 40
0.0
 40
0.0
 40
0.0
 40
0.125
 40
0.125
 40
0.125
 40
0.125
 40
0.25
 40
0.25
 40
0.25
 40
0.25
 40
0.375
 40
0.375
 40
0.375
 40
0.375
 40
0.5
 40
0.5
 40
0.5
 40
0.5
 40
0.625
 40
0.625
 40
0.625
 40
0.625
 40
0.75
 40
0.75
 40
0.75
 40
0.75
 40
0.875
 40
0.875
 40
0.875
 40
0.875
 40
1.0
 40
1.0
 40
1.0
 40
1.0
 10
-10.34988
 20
-14.06173
 30
0.0
 10
-10.34988
 20
-14.06583
 30
0.0
 10
-10.34875
 20
-14.06898
 30
0.0
 10
-10.34647
 20
-14.07116
 30
0.0
 10
-10.34647
 20
-14.07116
 30
0.0
 10
-10.34419
 20
-14.07338
 30
0.0
 10
-10.34094
 20
-14.07448
 30
0.0
 10
-10.33671
 20
-14.07448
 30
0.0
 10
-10.33671
 20
-14.07448
 30
0.0
 10
-10.33257
 20
-14.07448
 30
0.0
 10
-10.32937
 20
-14.07338
 30
0.0
 10
-10.32714
 20
-14.07116
 30
0.0
 10
-10.32714
 20
-14.07116
 30
0.0
 10
-10.32488
 20
-14.06898
 30
0.0
 10
-10.32375
 20
-14.06583
 30
0.0
 10
-10.32375
 20
-14.06173
 30
0.0
 10
-10.32375
 20
-14.06173
 30
0.0
 10
-10.32375
 20
-14.05764
 30
0.0
 10
-10.32488
 20
-14.05451
 30
0.0
 10
-10.32714
 20
-14.05233
 30
0.0
 10
-10.32714
 20
-14.05233
 30
0.0
 10
-10.32937
 20
-14.05014
 30
0.0
 10
-10.33257
 20
-14.04906
 30
0.0
 10
-10.33671
 20
-14.04906
 30
0.0
 10
-10.33671
 20
-14.04906
 30
0.0
 10
-10.34094
 20
-14.04906
 30
0.0
 10
-10.34419
 20
-14.05016
 30
0.0
 10
-10.34647
 20
-14.05237
 30
0.0
 10
-10.34647
 20
-14.05237
 30
0.0
 10
-10.34875
 20
-14.05456
 30
0.0
 10
-10.34988
 20
-14.05769
 30
0.0
 10
-10.34988
 20
-14.06173
 30
0.0
  0
SPLINE
  5
6A
330
1F
100
AcDbEntity
  8
Layer 1
 62
   250
100
AcDbSpline
210
0.0
220
0.0
230
1.0
 70
    11
 71
     3
 72
    48
 73
    44
 74
     0
 42
0.0000000001
 43
0.0000000001
 40
0.0
 40
0.0
 40
0.0
 40
0.0
 40
0.0909090909090909
 40
0.0909090909090909
 40
0.0909090909090909
 40
0.0909090909090909
 40
0.1818181818181818
 40
0.1818181818181818
 40
0.1818181818181818
 40
0.1818181818181818
 40
0.2727272727272727
 40
0.2727272727272727
 40
0.2727272727272727
 40
0.2727272727272727
 40
0.3636363636363636
 40
0.3636363636363636
 40
0.3636363636363636
 40
0.3636363636363636
 40
0.4545454545454546
 40
0.4545454545454546
 40
0.4545454545454546
 40
0.4545454545454546
 40
0.5454545454545455
 40
0.5454545454545455
 40
0.5454545454545455
 40
0.5454545454545455
 40
0.6363636363636365
 40
0.6363636363636365
 40
0.6363636363636365
 40
0.6363636363636365
 40
0.7272727272727274
 40
0.7272727272727274
 40
0.7272727272727274
 40
0.7272727272727274
 40
0.8181818181818183
 40
0.8181818181818183
 40
0.8181818181818183
 40
0.8181818181818183
 40
0.9090909090909093
 40
0.9090909090909093
 40
0.9090909090909093
 40
0.9090909090909093
 40
1.0
 40
1.0
 40
1.0
 40
1.0
 10
-10.27112
 20
-14.11879
 30
0.0
 10
-10.27112
 20
-14.11879
 30
0.0
 10
-10.24769
 20
-14.11879
 30
0.0
 10
-10.24769
 20
-14.11879
 30
0.0
 10
-10.24769
 20
-14.11879
 30
0.0
 10
-10.24769
 20
-14.11879
 30
0.0
 10
-10.24769
 20
-14.0523
 30
0.0
 10
-10.24769
 20
-14.0523
 30
0.0
 10
-10.24769
 20
-14.0523
 30
0.0
 10
-10.24769
 20
-14.0523
 30
0.0
 10
-10.27173
 20
-14.05727
 30
0.0
 10
-10.27173
 20
-14.05727
 30
0.0
 10
-10.27173
 20
-14.05727
 30
0.0
 10
-10.27173
 20
-14.05727
 30
0.0
 10
-10.27173
 20
-14.0392
 30
0.0
 10
-10.27173
 20
-14.0392
 30
0.0
 10
-10.27173
 20
-14.0392
 30
0.0
 10
-10.27173
 20
-14.0392
 30
0.0
 10
-10.24783
 20
-14.03424
 30
0.0
 10
-10.24783
 20
-14.03424
 30
0.0
 10
-10.24783
 20
-14.03424
 30
0.0
 10
-10.24783
 20
-14.03424
 30
0.0
 10
-10.22262
 20
-14.03424
 30
0.0
 10
-10.22262
 20
-14.03424
 30
0.0
 10
-10.22262
 20
-14.03424
 30
0.0
 10
-10.22262
 20
-14.03424
 30
0.0
 10
-10.22262
 20
-14.11879
 30
0.0
 10
-10.22262
 20
-14.11879
 30
0.0
 10
-10.22262
 20
-14.11879
 30
0.0
 10
-10.22262
 20
-14.11879
 30
0.0
 10
-10.1992
 20
-14.11879
 30
0.0
 10
-10.1992
 20
-14.11879
 30
0.0
 10
-10.1992
 20
-14.11879
 30
0.0
 10
-10.1992
 20
-14.11879
 30
0.0
 10
-10.1992
 20
-14.13711
 30
0.0
 10
-10.1992
 20
-14.13711
 30
0.0
 10
-10.1992
 20
-14.13711
 30
0.0
 10
-10.1992
 20
-14.13711
 30
0.0
 10
-10.27112
 20
-14.13711
 30
0.0
 10
-10.27112
 20
-14.13711
 30
0.0
 10
-10.27112
 20
-14.13711
 30
0.0
 10
-10.27112
 20
-14.13711
 30
0.0
 10
-10.27112
 20
-14.11879
 30
0.0
 10
-10.27112
 20
-14.11879
 30
0.0
  0
SPLINE
  5
6B
330
1F
100
AcDbEntity
  8
Layer 1
 62
   250
100
AcDbSpline
210
0.0
220
0.0
230
1.0
 70
    11
 71
     3
 72
    80
 73
    76
 74
     0
 42
0.0000000001
 43
0.0000000001
 40
0.0
 40
0.0
 40
0.0
 40
0.0
 40
0.0526315789473684
 40
0.0526315789473684
 40
0.0526315789473684
 40
0.0526315789473684
 40
0.1052631578947368
 40
0.1052631578947368
 40
0.1052631578947368
 40
0.1052631578947368
 40
0.1578947368421053
 40
0.1578947368421053
 40
0.1578947368421053
 40
0.1578947368421053
 40
0.2105263157894737
 40
0.2105263157894737
 40
0.2105263157894737
 40
0.2105263157894737
 40
0.2631578947368421
 40
0.2631578947368421
 40
0.2631578947368421
 40
0.2631578947368421
 40
0.3157894736842105
 40
0.3157894736842105
 40
0.3157894736842105
 40
0.3157894736842105
 40
0.3684210526315789
 40
0.3684210526315789
 40
0.3684210526315789
 40
0.3684210526315789
 40
0.4210526315789473
 40
0.4210526315789473
 40
0.4210526315789473
 40
0.4210526315789473
 40
0.4736842105263158
 40
0.4736842105263158
 40
0.4736842105263158
 40
0.4736842105263158
 40
0.5263157894736842
 40
0.5263157894736842
 40
0.5263157894736842
 40
0.5263157894736842
 40
0.5789473684210527
 40
0.5789473684210527
 40
0.5789473684210527
 40
0.5789473684210527
 40
0.631578947368421
 40
0.631578947368421
 40
0.631578947368421
 40
0.631578947368421
 40
0.6842105263157894
 40
0.6842105263157894
 40
0.6842105263157894
 40
0.6842105263157894
 40
0.7368421052631577
 40
0.7368421052631577
 40
0.7368421052631577
 40
0.7368421052631577
 40
0.7894736842105261
 40
0.7894736842105261
 40
0.7894736842105261
 40
0.7894736842105261
 40
0.8421052631578945
 40
0.8421052631578945
 40
0.8421052631578945
 40
0.8421052631578945
 40
0.8947368421052628
 40
0.8947368421052628
 40
0.8947368421052628
 40
0.8947368421052628
 40
0.9473684210526312
 40
0.9473684210526312
 40
0.9473684210526312
 40
0.9473684210526312
 40
1.0
 40
1.0
 40
1.0
 40
1.0
 10
-10.1488
 20
-14.11761
 30
0.0
 10
-10.1488
 20
-14.11761
 30
0.0
 10
-10.10352
 20
-14.11761
 30
0.0
 10
-10.10352
 20
-14.11761
 30
0.0
 10
-10.10352
 20
-14.11761
 30
0.0
 10
-10.10352
 20
-14.11761
 30
0.0
 10
-10.10352
 20
-14.13711
 30
0.0
 10
-10.10352
 20
-14.13711
 30
0.0
 10
-10.10352
 20
-14.13711
 30
0.0
 10
-10.10352
 20
-14.13711
 30
0.0
 10
-10.17829
 20
-14.13711
 30
0.0
 10
-10.17829
 20
-14.13711
 30
0.0
 10
-10.17829
 20
-14.13711
 30
0.0
 10
-10.17829
 20
-14.13711
 30
0.0
 10
-10.17829
 20
-14.11761
 30
0.0
 10
-10.17829
 20
-14.11761
 30
0.0
 10
-10.17829
 20
-14.11761
 30
0.0
 10
-10.17829
 20
-14.11761
 30
0.0
 10
-10.14073
 20
-14.08448
 30
0.0
 10
-10.14073
 20
-14.08448
 30
0.0
 10
-10.14073
 20
-14.08448
 30
0.0
 10
-10.13737
 20
-14.08144
 30
0.0
 10
-10.1349
 20
-14.07848
 30
0.0
 10
-10.1333
 20
-14.07559
 30
0.0
 10
-10.1333
 20
-14.07559
 30
0.0
 10
-10.13168
 20
-14.07269
 30
0.0
 10
-10.13088
 20
-14.06968
 30
0.0
 10
-10.13088
 20
-14.06655
 30
0.0
 10
-10.13088
 20
-14.06655
 30
0.0
 10
-10.13088
 20
-14.06173
 30
0.0
 10
-10.1325
 20
-14.05785
 30
0.0
 10
-10.13574
 20
-14.05491
 30
0.0
 10
-10.13574
 20
-14.05491
 30
0.0
 10
-10.13897
 20
-14.05197
 30
0.0
 10
-10.14327
 20
-14.05052
 30
0.0
 10
-10.14866
 20
-14.05052
 30
0.0
 10
-10.14866
 20
-14.05052
 30
0.0
 10
-10.15279
 20
-14.05052
 30
0.0
 10
-10.15731
 20
-14.05141
 30
0.0
 10
-10.16223
 20
-14.05317
 30
0.0
 10
-10.16223
 20
-14.05317
 30
0.0
 10
-10.16714
 20
-14.05494
 30
0.0
 10
-10.17241
 20
-14.05757
 30
0.0
 10
-10.17801
 20
-14.06105
 30
0.0
 10
-10.17801
 20
-14.06105
 30
0.0
 10
-10.17801
 20
-14.06105
 30
0.0
 10
-10.17801
 20
-14.03845
 30
0.0
 10
-10.17801
 20
-14.03845
 30
0.0
 10
-10.17801
 20
-14.03845
 30
0.0
 10
-10.17203
 20
-14.03648
 30
0.0
 10
-10.16613
 20
-14.03497
 30
0.0
 10
-10.1603
 20
-14.03394
 30
0.0
 10
-10.1603
 20
-14.03394
 30
0.0
 10
-10.15446
 20
-14.0329
 30
0.0
 10
-10.14875
 20
-14.03238
 30
0.0
 10
-10.14313
 20
-14.03238
 30
0.0
 10
-10.14313
 20
-14.03238
 30
0.0
 10
-10.13083
 20
-14.03238
 30
0.0
 10
-10.12126
 20
-14.03509
 30
0.0
 10
-10.11444
 20
-14.04052
 30
0.0
 10
-10.11444
 20
-14.04052
 30
0.0
 10
-10.10762
 20
-14.04593
 30
0.0
 10
-10.10421
 20
-14.05348
 30
0.0
 10
-10.10421
 20
-14.06319
 30
0.0
 10
-10.10421
 20
-14.06319
 30
0.0
 10
-10.10421
 20
-14.06879
 30
0.0
 10
-10.10566
 20
-14.07401
 30
0.0
 10
-10.10856
 20
-14.07886
 30
0.0
 10
-10.10856
 20
-14.07886
 30
0.0
 10
-10.11145
 20
-14.0837
 30
0.0
 10
-10.11754
 20
-14.09019
 30
0.0
 10
-10.12681
 20
-14.09833
 30
0.0
 10
-10.12681
 20
-14.09833
 30
0.0
 10
-10.12681
 20
-14.09833
 30
0.0
 10
-10.1488
 20
-14.11761
 30
0.0
 10
-10.1488
 20
-14.11761
 30
0.0
  0
SPLINE
  5
6C
330
1F
100
AcDbEntity
  8
Layer 1
 62
   250
100
AcDbSpline
210
0.0
220
0.0
230
1.0
 70
    11
 71
     3
 72
    44
 73
    40
 74
     0
 42
0.0000000001
 43
0.0000000001
 40
0.0
 40
0.0
 40
0.0
 40
0.0
 40
0.1
 40
0.1
 40
0.1
 40
0.1
 40
0.2
 40
0.2
 40
0.2
 40
0.2
 40
0.3
 40
0.3
 40
0.3
 40
0.3
 40
0.4
 40
0.4
 40
0.4
 40
0.4
 40
0.5
 40
0.5
 40
0.5
 40
0.5
 40
0.6
 40
0.6
 40
0.6
 40
0.6
 40
0.7
 40
0.7
 40
0.7
 40
0.7
 40
0.7999999999999999
 40
0.7999999999999999
 40
0.7999999999999999
 40
0.7999999999999999
 40
0.8999999999999999
 40
0.8999999999999999
 40
0.8999999999999999
 40
0.8999999999999999
 40
1.0
 40
1.0
 40
1.0
 40
1.0
 10
-10.07998
 20
-14.15571
 30
0.0
 10
-10.0741
 20
-14.14478
 30
0.0
 10
-10.06968
 20
-14.1341
 30
0.0
 10
-10.06674
 20
-14.12368
 30
0.0
 10
-10.06674
 20
-14.12368
 30
0.0
 10
-10.0638
 20
-14.11324
 30
0.0
 10
-10.06234
 20
-14.10296
 30
0.0
 10
-10.06234
 20
-14.0928
 30
0.0
 10
-10.06234
 20
-14.0928
 30
0.0
 10
-10.06234
 20
-14.08264
 30
0.0
 10
-10.0638
 20
-14.07236
 30
0.0
 10
-10.06674
 20
-14.06197
 30
0.0
 10
-10.06674
 20
-14.06197
 30
0.0
 10
-10.06968
 20
-14.05157
 30
0.0
 10
-10.0741
 20
-14.04092
 30
0.0
 10
-10.07998
 20
-14.03003
 30
0.0
 10
-10.07998
 20
-14.03003
 30
0.0
 10
-10.07998
 20
-14.03003
 30
0.0
 10
-10.05952
 20
-14.03003
 30
0.0
 10
-10.05952
 20
-14.03003
 30
0.0
 10
-10.05952
 20
-14.03003
 30
0.0
 10
-10.05254
 20
-14.0413
 30
0.0
 10
-10.04736
 20
-14.05207
 30
0.0
 10
-10.04397
 20
-14.06239
 30
0.0
 10
-10.04397
 20
-14.06239
 30
0.0
 10
-10.04061
 20
-14.07269
 30
0.0
 10
-10.03892
 20
-14.08288
 30
0.0
 10
-10.03892
 20
-14.09294
 30
0.0
 10
-10.03892
 20
-14.09294
 30
0.0
 10
-10.03892
 20
-14.10301
 30
0.0
 10
-10.04059
 20
-14.11314
 30
0.0
 10
-10.04395
 20
-14.12335
 30
0.0
 10
-10.04395
 20
-14.12335
 30
0.0
 10
-10.04729
 20
-14.13358
 30
0.0
 10
-10.05249
 20
-14.14438
 30
0.0
 10
-10.05952
 20
-14.15571
 30
0.0
 10
-10.05952
 20
-14.15571
 30
0.0
 10
-10.05952
 20
-14.15571
 30
0.0
 10
-10.07998
 20
-14.15571
 30
0.0
 10
-10.07998
 20
-14.15571
 30
0.0
  0
SPLINE
  5
6D
330
1F
100
AcDbEntity
  8
Layer 1
 62
   250
100
AcDbSpline
210
0.0
220
0.0
230
1.0
 70
    11
 71
     3
 72
    92
 73
    88
 74
     0
 42
0.0000000001
 43
0.0000000001
 40
0.0
 40
0.0
 40
0.0
 40
0.0
 40
0.0454545454545455
 40
0.0454545454545455
 40
0.0454545454545455
 40
0.0454545454545455
 40
0.0909090909090909
 40
0.0909090909090909
 40
0.0909090909090909
 40
0.0909090909090909
 40
0.1363636363636364
 40
0.1363636363636364
 40
0.1363636363636364
 40
0.1363636363636364
 40
0.1818181818181818
 40
0.1818181818181818
 40
0.1818181818181818
 40
0.1818181818181818
 40
0.2272727272727273
 40
0.2272727272727273
 40
0.2272727272727273
 40
0.2272727272727273
 40
0.2727272727272728
 40
0.2727272727272728
 40
0.2727272727272728
 40
0.2727272727272728
 40
0.3181818181818182
 40
0.3181818181818182
 40
0.3181818181818182
 40
0.3181818181818182
 40
0.3636363636363637
 40
0.3636363636363637
 40
0.3636363636363637
 40
0.3636363636363637
 40
0.4090909090909092
 40
0.4090909090909092
 40
0.4090909090909092
 40
0.4090909090909092
 40
0.4545454545454546
 40
0.4545454545454546
 40
0.4545454545454546
 40
0.4545454545454546
 40
0.5000000000000001
 40
0.5000000000000001
 40
0.5000000000000001
 40
0.5000000000000001
 40
0.5454545454545455
 40
0.5454545454545455
 40
0.5454545454545455
 40
0.5454545454545455
 40
0.5909090909090909
 40
0.5909090909090909
 40
0.5909090909090909
 40
0.5909090909090909
 40
0.6363636363636364
 40
0.6363636363636364
 40
0.6363636363636364
 40
0.6363636363636364
 40
0.6818181818181818
 40
0.6818181818181818
 40
0.6818181818181818
 40
0.6818181818181818
 40
0.7272727272727272
 40
0.7272727272727272
 40
0.7272727272727272
 40
0.7272727272727272
 40
0.7727272727272726
 40
0.7727272727272726
 40
0.7727272727272726
 40
0.7727272727272726
 40
0.818181818181818
 40
0.818181818181818
 40
0.818181818181818
 40
0.818181818181818
 40
0.8636363636363634
 40
0.8636363636363634
 40
0.8636363636363634
 40
0.8636363636363634
 40
0.9090909090909088
 40
0.9090909090909088
 40
0.9090909090909088
 40
0.9090909090909088
 40
0.9545454545454543
 40
0.9545454545454543
 40
0.9545454545454543
 40
0.9545454545454543
 40
1.0
 40
1.0
 40
1.0
 40
1.0
 10
-11.48166
 20
-14.19849
 30
0.0
 10
-11.48166
 20
-14.19849
 30
0.0
 10
-11.41572
 20
-14.19849
 30
0.0
 10
-11.41572
 20
-14.19849
 30
0.0
 10
-11.41572
 20
-14.19849
 30
0.0
 10
-11.41572
 20
-14.19849
 30
0.0
 10
-11.41572
 20
-14.21799
 30
0.0
 10
-11.41572
 20
-14.21799
 30
0.0
 10
-11.41572
 20
-14.21799
 30
0.0
 10
-11.41572
 20
-14.21799
 30
0.0
 10
-11.46052
 20
-14.21799
 30
0.0
 10
-11.46052
 20
-14.21799
 30
0.0
 10
-11.46052
 20
-14.21799
 30
0.0
 10
-11.46052
 20
-14.21799
 30
0.0
 10
-11.46052
 20
-14.23391
 30
0.0
 10
-11.46052
 20
-14.23391
 30
0.0
 10
-11.46052
 20
-14.23391
 30
0.0
 10
-11.4585
 20
-14.23337
 30
0.0
 10
-11.45647
 20
-14.23295
 30
0.0
 10
-11.45443
 20
-14.23264
 30
0.0
 10
-11.45443
 20
-14.23264
 30
0.0
 10
-11.45238
 20
-14.23233
 30
0.0
 10
-11.45024
 20
-14.23219
 30
0.0
 10
-11.44805
 20
-14.23219
 30
0.0
 10
-11.44805
 20
-14.23219
 30
0.0
 10
-11.4355
 20
-14.23219
 30
0.0
 10
-11.42574
 20
-14.23532
 30
0.0
 10
-11.41875
 20
-14.2416
 30
0.0
 10
-11.41875
 20
-14.2416
 30
0.0
 10
-11.41177
 20
-14.24786
 30
0.0
 10
-11.40829
 20
-14.2566
 30
0.0
 10
-11.40829
 20
-14.2678
 30
0.0
 10
-11.40829
 20
-14.2678
 30
0.0
 10
-11.40829
 20
-14.27892
 30
0.0
 10
-11.4121
 20
-14.28763
 30
0.0
 10
-11.41969
 20
-14.29393
 30
0.0
 10
-11.41969
 20
-14.29393
 30
0.0
 10
-11.42729
 20
-14.30021
 30
0.0
 10
-11.43785
 20
-14.30336
 30
0.0
 10
-11.45135
 20
-14.30336
 30
0.0
 10
-11.45135
 20
-14.30336
 30
0.0
 10
-11.45718
 20
-14.30336
 30
0.0
 10
-11.46297
 20
-14.30279
 30
0.0
 10
-11.46868
 20
-14.30167
 30
0.0
 10
-11.46868
 20
-14.30167
 30
0.0
 10
-11.4744
 20
-14.30054
 30
0.0
 10
-11.48009
 20
-14.29884
 30
0.0
 10
-11.48573
 20
-14.29654
 30
0.0
 10
-11.48573
 20
-14.29654
 30
0.0
 10
-11.48573
 20
-14.29654
 30
0.0
 10
-11.48573
 20
-14.27565
 30
0.0
 10
-11.48573
 20
-14.27565
 30
0.0
 10
-11.48573
 20
-14.27565
 30
0.0
 10
-11.48013
 20
-14.27888
 30
0.0
 10
-11.47482
 20
-14.28128
 30
0.0
 10
-11.46979
 20
-14.28287
 30
0.0
 10
-11.46979
 20
-14.28287
 30
0.0
 10
-11.46475
 20
-14.2845
 30
0.0
 10
-11.46
 20
-14.2853
 30
0.0
 10
-11.45556
 20
-14.2853
 30
0.0
 10
-11.45556
 20
-14.2853
 30
0.0
 10
-11.44911
 20
-14.2853
 30
0.0
 10
-11.44406
 20
-14.28372
 30
0.0
 10
-11.44036
 20
-14.28057
 30
0.0
 10
-11.44036
 20
-14.28057
 30
0.0
 10
-11.43667
 20
-14.27744
 30
0.0
 10
-11.43481
 20
-14.27319
 30
0.0
 10
-11.43481
 20
-14.2678
 30
0.0
 10
-11.43481
 20
-14.2678
 30
0.0
 10
-11.43481
 20
-14.26239
 30
0.0
 10
-11.43667
 20
-14.25813
 30
0.0
 10
-11.44036
 20
-14.25501
 30
0.0
 10
-11.44036
 20
-14.25501
 30
0.0
 10
-11.44406
 20
-14.25188
 30
0.0
 10
-11.44911
 20
-14.25033
 30
0.0
 10
-11.45556
 20
-14.25033
 30
0.0
 10
-11.45556
 20
-14.25033
 30
0.0
 10
-11.45937
 20
-14.25033
 30
0.0
 10
-11.46344
 20
-14.25082
 30
0.0
 10
-11.46774
 20
-14.25181
 30
0.0
 10
-11.46774
 20
-14.25181
 30
0.0
 10
-11.47207
 20
-14.25279
 30
0.0
 10
-11.4767
 20
-14.25432
 30
0.0
 10
-11.48166
 20
-14.25639
 30
0.0
 10
-11.48166
 20
-14.25639
 30
0.0
 10
-11.48166
 20
-14.25639
 30
0.0
 10
-11.48166
 20
-14.19849
 30
0.0
 10
-11.48166
 20
-14.19849
 30
0.0
  0
SPLINE
  5
6E
330
1F
100
AcDbEntity
  8
Layer 1
 62
   250
100
AcDbSpline
210
0.0
220
0.0
230
1.0
 70
    11
 71
     3
 72
    36
 73
    32
 74
     0
 42
0.0000000001
 43
0.0000000001
 40
0.0
 40
0.0
 40
0.0
 40
0.0
 40
0.125
 40
0.125
 40
0.125
 40
0.125
 40
0.25
 40
0.25
 40
0.25
 40
0.25
 40
0.375
 40
0.375
 40
0.375
 40
0.375
 40
0.5
 40
0.5
 40
0.5
 40
0.5
 40
0.625
 40
0.625
 40
0.625
 40
0.625
 40
0.75
 40
0.75
 40
0.75
 40
0.75
 40
0.875
 40
0.875
 40
0.875
 40
0.875
 40
1.0
 40
1.0
 40
1.0
 40
1.0
 10
-11.33352
 20
-14.24983
 30
0.0
 10
-11.33352
 20
-14.23697
 30
0.0
 10
-11.33472
 20
-14.22791
 30
0.0
 10
-11.33714
 20
-14.22264
 30
0.0
 10
-11.33714
 20
-14.22264
 30
0.0
 10
-11.33954
 20
-14.2174
 30
0.0
 10
-11.34361
 20
-14.21477
 30
0.0
 10
-11.3493
 20
-14.21477
 30
0.0
 10
-11.3493
 20
-14.21477
 30
0.0
 10
-11.35499
 20
-14.21477
 30
0.0
 10
-11.35906
 20
-14.2174
 30
0.0
 10
-11.36151
 20
-14.22264
 30
0.0
 10
-11.36151
 20
-14.22264
 30
0.0
 10
-11.36393
 20
-14.22791
 30
0.0
 10
-11.36515
 20
-14.23697
 30
0.0
 10
-11.36515
 20
-14.24983
 30
0.0
 10
-11.36515
 20
-14.24983
 30
0.0
 10
-11.36515
 20
-14.26281
 30
0.0
 10
-11.36393
 20
-14.27199
 30
0.0
 10
-11.36151
 20
-14.2773
 30
0.0
 10
-11.36151
 20
-14.2773
 30
0.0
 10
-11.35906
 20
-14.28264
 30
0.0
 10
-11.35499
 20
-14.2853
 30
0.0
 10
-11.3493
 20
-14.2853
 30
0.0
 10
-11.3493
 20
-14.2853
 30
0.0
 10
-11.34366
 20
-14.2853
 30
0.0
 10
-11.33961
 20
-14.28264
 30
0.0
 10
-11.33716
 20
-14.2773
 30
0.0
 10
-11.33716
 20
-14.2773
 30
0.0
 10
-11.33474
 20
-14.27199
 30
0.0
 10
-11.33352
 20
-14.26281
 30
0.0
 10
-11.33352
 20
-14.24983
 30
0.0
  0
SPLINE
  5
6F
330
1F
100
AcDbEntity
  8
Layer 1
 62
   250
100
AcDbSpline
210
0.0
220
0.0
230
1.0
 70
    11
 71
     3
 72
    36
 73
    32
 74
     0
 42
0.0000000001
 43
0.0000000001
 40
0.0
 40
0.0
 40
0.0
 40
0.0
 40
0.125
 40
0.125
 40
0.125
 40
0.125
 40
0.25
 40
0.25
 40
0.25
 40
0.25
 40
0.375
 40
0.375
 40
0.375
 40
0.375
 40
0.5
 40
0.5
 40
0.5
 40
0.5
 40
0.625
 40
0.625
 40
0.625
 40
0.625
 40
0.75
 40
0.75
 40
0.75
 40
0.75
 40
0.875
 40
0.875
 40
0.875
 40
0.875
 40
1.0
 40
1.0
 40
1.0
 40
1.0
 10
-11.30699
 20
-14.25002
 30
0.0
 10
-11.30699
 20
-14.26707
 30
0.0
 10
-11.31066
 20
-14.28022
 30
0.0
 10
-11.31802
 20
-14.28948
 30
0.0
 10
-11.31802
 20
-14.28948
 30
0.0
 10
-11.32536
 20
-14.29873
 30
0.0
 10
-11.3358
 20
-14.30336
 30
0.0
 10
-11.3493
 20
-14.30336
 30
0.0
 10
-11.3493
 20
-14.30336
 30
0.0
 10
-11.36285
 20
-14.30336
 30
0.0
 10
-11.37331
 20
-14.29873
 30
0.0
 10
-11.38065
 20
-14.28948
 30
0.0
 10
-11.38065
 20
-14.28948
 30
0.0
 10
-11.38801
 20
-14.28022
 30
0.0
 10
-11.39168
 20
-14.26707
 30
0.0
 10
-11.39168
 20
-14.25002
 30
0.0
 10
-11.39168
 20
-14.25002
 30
0.0
 10
-11.39168
 20
-14.23295
 30
0.0
 10
-11.38801
 20
-14.21977
 30
0.0
 10
-11.38065
 20
-14.21051
 30
0.0
 10
-11.38065
 20
-14.21051
 30
0.0
 10
-11.37331
 20
-14.20127
 30
0.0
 10
-11.36285
 20
-14.19663
 30
0.0
 10
-11.3493
 20
-14.19663
 30
0.0
 10
-11.3493
 20
-14.19663
 30
0.0
 10
-11.3358
 20
-14.19663
 30
0.0
 10
-11.32536
 20
-14.20127
 30
0.0
 10
-11.31802
 20
-14.21051
 30
0.0
 10
-11.31802
 20
-14.21051
 30
0.0
 10
-11.31066
 20
-14.21977
 30
0.0
 10
-11.30699
 20
-14.23295
 30
0.0
 10
-11.30699
 20
-14.25002
 30
0.0
  0
SPLINE
  5
70
330
1F
100
AcDbEntity
  8
Layer 1
 62
   250
100
AcDbSpline
210
0.0
220
0.0
230
1.0
 70
    11
 71
     3
 72
    36
 73
    32
 74
     0
 42
0.0000000001
 43
0.0000000001
 40
0.0
 40
0.0
 40
0.0
 40
0.0
 40
0.125
 40
0.125
 40
0.125
 40
0.125
 40
0.25
 40
0.25
 40
0.25
 40
0.25
 40
0.375
 40
0.375
 40
0.375
 40
0.375
 40
0.5
 40
0.5
 40
0.5
 40
0.5
 40
0.625
 40
0.625
 40
0.625
 40
0.625
 40
0.75
 40
0.75
 40
0.75
 40
0.75
 40
0.875
 40
0.875
 40
0.875
 40
0.875
 40
1.0
 40
1.0
 40
1.0
 40
1.0
 10
-11.23533
 20
-14.24983
 30
0.0
 10
-11.23533
 20
-14.23697
 30
0.0
 10
-11.23653
 20
-14.22791
 30
0.0
 10
-11.23895
 20
-14.22264
 30
0.0
 10
-11.23895
 20
-14.22264
 30
0.0
 10
-11.24135
 20
-14.2174
 30
0.0
 10
-11.24542
 20
-14.21477
 30
0.0
 10
-11.25111
 20
-14.21477
 30
0.0
 10
-11.25111
 20
-14.21477
 30
0.0
 10
-11.2568
 20
-14.21477
 30
0.0
 10
-11.26087
 20
-14.2174
 30
0.0
 10
-11.26332
 20
-14.22264
 30
0.0
 10
-11.26332
 20
-14.22264
 30
0.0
 10
-11.26574
 20
-14.22791
 30
0.0
 10
-11.26696
 20
-14.23697
 30
0.0
 10
-11.26696
 20
-14.24983
 30
0.0
 10
-11.26696
 20
-14.24983
 30
0.0
 10
-11.26696
 20
-14.26281
 30
0.0
 10
-11.26574
 20
-14.27199
 30
0.0
 10
-11.26332
 20
-14.2773
 30
0.0
 10
-11.26332
 20
-14.2773
 30
0.0
 10
-11.26087
 20
-14.28264
 30
0.0
 10
-11.2568
 20
-14.2853
 30
0.0
 10
-11.25111
 20
-14.2853
 30
0.0
 10
-11.25111
 20
-14.2853
 30
0.0
 10
-11.24547
 20
-14.2853
 30
0.0
 10
-11.24142
 20
-14.28264
 30
0.0
 10
-11.23897
 20
-14.2773
 30
0.0
 10
-11.23897
 20
-14.2773
 30
0.0
 10
-11.23655
 20
-14.27199
 30
0.0
 10
-11.23533
 20
-14.26281
 30
0.0
 10
-11.23533
 20
-14.24983
 30
0.0
  0
SPLINE
  5
71
330
1F
100
AcDbEntity
  8
Layer 1
 62
   250
100
AcDbSpline
210
0.0
220
0.0
230
1.0
 70
    11
 71
     3
 72
    36
 73
    32
 74
     0
 42
0.0000000001
 43
0.0000000001
 40
0.0
 40
0.0
 40
0.0
 40
0.0
 40
0.125
 40
0.125
 40
0.125
 40
0.125
 40
0.25
 40
0.25
 40
0.25
 40
0.25
 40
0.375
 40
0.375
 40
0.375
 40
0.375
 40
0.5
 40
0.5
 40
0.5
 40
0.5
 40
0.625
 40
0.625
 40
0.625
 40
0.625
 40
0.75
 40
0.75
 40
0.75
 40
0.75
 40
0.875
 40
0.875
 40
0.875
 40
0.875
 40
1.0
 40
1.0
 40
1.0
 40
1.0
 10
-11.2088
 20
-14.25002
 30
0.0
 10
-11.2088
 20
-14.26707
 30
0.0
 10
-11.21247
 20
-14.28022
 30
0.0
 10
-11.21983
 20
-14.28948
 30
0.0
 10
-11.21983
 20
-14.28948
 30
0.0
 10
-11.22717
 20
-14.29873
 30
0.0
 10
-11.23761
 20
-14.30336
 30
0.0
 10
-11.25111
 20
-14.30336
 30
0.0
 10
-11.25111
 20
-14.30336
 30
0.0
 10
-11.26466
 20
-14.30336
 30
0.0
 10
-11.27512
 20
-14.29873
 30
0.0
 10
-11.28246
 20
-14.28948
 30
0.0
 10
-11.28246
 20
-14.28948
 30
0.0
 10
-11.28982
 20
-14.28022
 30
0.0
 10
-11.29349
 20
-14.26707
 30
0.0
 10
-11.29349
 20
-14.25002
 30
0.0
 10
-11.29349
 20
-14.25002
 30
0.0
 10
-11.29349
 20
-14.23295
 30
0.0
 10
-11.28982
 20
-14.21977
 30
0.0
 10
-11.28246
 20
-14.21051
 30
0.0
 10
-11.28246
 20
-14.21051
 30
0.0
 10
-11.27512
 20
-14.20127
 30
0.0
 10
-11.26466
 20
-14.19663
 30
0.0
 10
-11.25111
 20
-14.19663
 30
0.0
 10
-11.25111
 20
-14.19663
 30
0.0
 10
-11.23761
 20
-14.19663
 30
0.0
 10
-11.22717
 20
-14.20127
 30
0.0
 10
-11.21983
 20
-14.21051
 30
0.0
 10
-11.21983
 20
-14.21051
 30
0.0
 10
-11.21247
 20
-14.21977
 30
0.0
 10
-11.2088
 20
-14.23295
 30
0.0
 10
-11.2088
 20
-14.25002
 30
0.0
  0
SPLINE
  5
72
330
1F
100
AcDbEntity
  8
Layer 1
 62
   250
100
AcDbSpline
210
0.0
220
0.0
230
1.0
 70
    11
 71
     3
 72
   120
 73
   116
 74
     0
 42
0.0000000001
 43
0.0000000001
 40
0.0
 40
0.0
 40
0.0
 40
0.0
 40
0.0344827586206897
 40
0.0344827586206897
 40
0.0344827586206897
 40
0.0344827586206897
 40
0.0689655172413793
 40
0.0689655172413793
 40
0.0689655172413793
 40
0.0689655172413793
 40
0.103448275862069
 40
0.103448275862069
 40
0.103448275862069
 40
0.103448275862069
 40
0.1379310344827586
 40
0.1379310344827586
 40
0.1379310344827586
 40
0.1379310344827586
 40
0.1724137931034483
 40
0.1724137931034483
 40
0.1724137931034483
 40
0.1724137931034483
 40
0.206896551724138
 40
0.206896551724138
 40
0.206896551724138
 40
0.206896551724138
 40
0.2413793103448276
 40
0.2413793103448276
 40
0.2413793103448276
 40
0.2413793103448276
 40
0.2758620689655173
 40
0.2758620689655173
 40
0.2758620689655173
 40
0.2758620689655173
 40
0.310344827586207
 40
0.310344827586207
 40
0.310344827586207
 40
0.310344827586207
 40
0.3448275862068966
 40
0.3448275862068966
 40
0.3448275862068966
 40
0.3448275862068966
 40
0.3793103448275863
 40
0.3793103448275863
 40
0.3793103448275863
 40
0.3793103448275863
 40
0.413793103448276
 40
0.413793103448276
 40
0.413793103448276
 40
0.413793103448276
 40
0.4482758620689656
 40
0.4482758620689656
 40
0.4482758620689656
 40
0.4482758620689656
 40
0.4827586206896553
 40
0.4827586206896553
 40
0.4827586206896553
 40
0.4827586206896553
 40
0.517241379310345
 40
0.517241379310345
 40
0.517241379310345
 40
0.517241379310345
 40
0.5517241379310346
 40
0.5517241379310346
 40
0.5517241379310346
 40
0.5517241379310346
 40
0.5862068965517242
 40
0.5862068965517242
 40
0.5862068965517242
 40
0.5862068965517242
 40
0.6206896551724138
 40
0.6206896551724138
 40
0.6206896551724138
 40
0.6206896551724138
 40
0.6551724137931034
 40
0.6551724137931034
 40
0.6551724137931034
 40
0.6551724137931034
 40
0.689655172413793
 40
0.689655172413793
 40
0.689655172413793
 40
0.689655172413793
 40
0.7241379310344827
 40
0.7241379310344827
 40
0.7241379310344827
 40
0.7241379310344827
 40
0.7586206896551723
 40
0.7586206896551723
 40
0.7586206896551723
 40
0.7586206896551723
 40
0.7931034482758619
 40
0.7931034482758619
 40
0.7931034482758619
 40
0.7931034482758619
 40
0.8275862068965515
 40
0.8275862068965515
 40
0.8275862068965515
 40
0.8275862068965515
 40
0.8620689655172411
 40
0.8620689655172411
 40
0.8620689655172411
 40
0.8620689655172411
 40
0.8965517241379307
 40
0.8965517241379307
 40
0.8965517241379307
 40
0.8965517241379307
 40
0.9310344827586203
 40
0.9310344827586203
 40
0.9310344827586203
 40
0.9310344827586203
 40
0.9655172413793099
 40
0.9655172413793099
 40
0.9655172413793099
 40
0.9655172413793099
 40
1.0
 40
1.0
 40
1.0
 40
1.0
 10
-11.06955
 20
-14.23701
 30
0.0
 10
-11.06642
 20
-14.23224
 30
0.0
 10
-11.06273
 20
-14.22859
 30
0.0
 10
-11.05842
 20
-14.2261
 30
0.0
 10
-11.05842
 20
-14.2261
 30
0.0
 10
-11.05412
 20
-14.22358
 30
0.0
 10
-11.04942
 20
-14.22234
 30
0.0
 10
-11.04427
 20
-14.22234
 30
0.0
 10
-11.04427
 20
-14.22234
 30
0.0
 10
-11.0354
 20
-14.22234
 30
0.0
 10
-11.02865
 20
-14.22507
 30
0.0
 10
-11.02402
 20
-14.23055
 30
0.0
 10
-11.02402
 20
-14.23055
 30
0.0
 10
-11.01938
 20
-14.236
 30
0.0
 10
-11.01705
 20
-14.24395
 30
0.0
 10
-11.01705
 20
-14.25437
 30
0.0
 10
-11.01705
 20
-14.25437
 30
0.0
 10
-11.01705
 20
-14.25437
 30
0.0
 10
-11.01705
 20
-14.30136
 30
0.0
 10
-11.01705
 20
-14.30136
 30
0.0
 10
-11.01705
 20
-14.30136
 30
0.0
 10
-11.01705
 20
-14.30136
 30
0.0
 10
-11.04187
 20
-14.30136
 30
0.0
 10
-11.04187
 20
-14.30136
 30
0.0
 10
-11.04187
 20
-14.30136
 30
0.0
 10
-11.04187
 20
-14.30136
 30
0.0
 10
-11.04187
 20
-14.26112
 30
0.0
 10
-11.04187
 20
-14.26112
 30
0.0
 10
-11.04187
 20
-14.26112
 30
0.0
 10
-11.04182
 20
-14.26053
 30
0.0
 10
-11.0418
 20
-14.25992
 30
0.0
 10
-11.04177
 20
-14.25926
 30
0.0
 10
-11.04177
 20
-14.25926
 30
0.0
 10
-11.04175
 20
-14.25863
 30
0.0
 10
-11.04173
 20
-14.25771
 30
0.0
 10
-11.04173
 20
-14.25651
 30
0.0
 10
-11.04173
 20
-14.25651
 30
0.0
 10
-11.04173
 20
-14.25105
 30
0.0
 10
-11.04252
 20
-14.24708
 30
0.0
 10
-11.04415
 20
-14.24463
 30
0.0
 10
-11.04415
 20
-14.24463
 30
0.0
 10
-11.04575
 20
-14.24216
 30
0.0
 10
-11.04833
 20
-14.24094
 30
0.0
 10
-11.05191
 20
-14.24094
 30
0.0
 10
-11.05191
 20
-14.24094
 30
0.0
 10
-11.05661
 20
-14.24094
 30
0.0
 10
-11.06021
 20
-14.24287
 30
0.0
 10
-11.06277
 20
-14.24673
 30
0.0
 10
-11.06277
 20
-14.24673
 30
0.0
 10
-11.06531
 20
-14.25058
 30
0.0
 10
-11.06663
 20
-14.25616
 30
0.0
 10
-11.06673
 20
-14.26347
 30
0.0
 10
-11.06673
 20
-14.26347
 30
0.0
 10
-11.06673
 20
-14.26347
 30
0.0
 10
-11.06673
 20
-14.30136
 30
0.0
 10
-11.06673
 20
-14.30136
 30
0.0
 10
-11.06673
 20
-14.30136
 30
0.0
 10
-11.06673
 20
-14.30136
 30
0.0
 10
-11.09154
 20
-14.30136
 30
0.0
 10
-11.09154
 20
-14.30136
 30
0.0
 10
-11.09154
 20
-14.30136
 30
0.0
 10
-11.09154
 20
-14.30136
 30
0.0
 10
-11.09154
 20
-14.26112
 30
0.0
 10
-11.09154
 20
-14.26112
 30
0.0
 10
-11.09154
 20
-14.26112
 30
0.0
 10
-11.09154
 20
-14.25258
 30
0.0
 10
-11.09227
 20
-14.24708
 30
0.0
 10
-11.09375
 20
-14.24463
 30
0.0
 10
-11.09375
 20
-14.24463
 30
0.0
 10
-11.09521
 20
-14.24216
 30
0.0
 10
-11.09782
 20
-14.24094
 30
0.0
 10
-11.10158
 20
-14.24094
 30
0.0
 10
-11.10158
 20
-14.24094
 30
0.0
 10
-11.10633
 20
-14.24094
 30
0.0
 10
-11.10998
 20
-14.24289
 30
0.0
 10
-11.11254
 20
-14.24677
 30
0.0
 10
-11.11254
 20
-14.24677
 30
0.0
 10
-11.1151
 20
-14.25065
 30
0.0
 10
-11.1164
 20
-14.25618
 30
0.0
 10
-11.1164
 20
-14.2634
 30
0.0
 10
-11.1164
 20
-14.2634
 30
0.0
 10
-11.1164
 20
-14.2634
 30
0.0
 10
-11.1164
 20
-14.30136
 30
0.0
 10
-11.1164
 20
-14.30136
 30
0.0
 10
-11.1164
 20
-14.30136
 30
0.0
 10
-11.1164
 20
-14.30136
 30
0.0
 10
-11.14121
 20
-14.30136
 30
0.0
 10
-11.14121
 20
-14.30136
 30
0.0
 10
-11.14121
 20
-14.30136
 30
0.0
 10
-11.14121
 20
-14.30136
 30
0.0
 10
-11.14121
 20
-14.2242
 30
0.0
 10
-11.14121
 20
-14.2242
 30
0.0
 10
-11.14121
 20
-14.2242
 30
0.0
 10
-11.14121
 20
-14.2242
 30
0.0
 10
-11.1164
 20
-14.2242
 30
0.0
 10
-11.1164
 20
-14.2242
 30
0.0
 10
-11.1164
 20
-14.2242
 30
0.0
 10
-11.1164
 20
-14.2242
 30
0.0
 10
-11.1164
 20
-14.23551
 30
0.0
 10
-11.1164
 20
-14.23551
 30
0.0
 10
-11.1164
 20
-14.23551
 30
0.0
 10
-11.11336
 20
-14.23113
 30
0.0
 10
-11.10988
 20
-14.22787
 30
0.0
 10
-11.10595
 20
-14.22565
 30
0.0
 10
-11.10595
 20
-14.22565
 30
0.0
 10
-11.10203
 20
-14.22344
 30
0.0
 10
-11.0977
 20
-14.22234
 30
0.0
 10
-11.09297
 20
-14.22234
 30
0.0
 10
-11.09297
 20
-14.22234
 30
0.0
 10
-11.08766
 20
-14.22234
 30
0.0
 10
-11.08293
 20
-14.22363
 30
0.0
 10
-11.07886
 20
-14.2262
 30
0.0
 10
-11.07886
 20
-14.2262
 30
0.0
 10
-11.07477
 20
-14.22878
 30
0.0
 10
-11.07166
 20
-14.23238
 30
0.0
 10
-11.06955
 20
-14.23701
 30
0.0
  0
SPLINE
  5
73
330
1F
100
AcDbEntity
  8
Layer 1
 62
   250
100
AcDbSpline
210
0.0
220
0.0
230
1.0
 70
    11
 71
     3
 72
    36
 73
    32
 74
     0
 42
0.0000000001
 43
0.0000000001
 40
0.0
 40
0.0
 40
0.0
 40
0.0
 40
0.125
 40
0.125
 40
0.125
 40
0.125
 40
0.25
 40
0.25
 40
0.25
 40
0.25
 40
0.375
 40
0.375
 40
0.375
 40
0.375
 40
0.5
 40
0.5
 40
0.5
 40
0.5
 40
0.625
 40
0.625
 40
0.625
 40
0.625
 40
0.75
 40
0.75
 40
0.75
 40
0.75
 40
0.875
 40
0.875
 40
0.875
 40
0.875
 40
1.0
 40
1.0
 40
1.0
 40
1.0
 10
-10.9305
 20
-14.28264
 30
0.0
 10
-10.9305
 20
-14.28264
 30
0.0
 10
-10.97199
 20
-14.28264
 30
0.0
 10
-10.97199
 20
-14.28264
 30
0.0
 10
-10.97199
 20
-14.28264
 30
0.0
 10
-10.97199
 20
-14.28264
 30
0.0
 10
-10.97853
 20
-14.30136
 30
0.0
 10
-10.97853
 20
-14.30136
 30
0.0
 10
-10.97853
 20
-14.30136
 30
0.0
 10
-10.97853
 20
-14.30136
 30
0.0
 10
-11.0052
 20
-14.30136
 30
0.0
 10
-11.0052
 20
-14.30136
 30
0.0
 10
-11.0052
 20
-14.30136
 30
0.0
 10
-11.0052
 20
-14.30136
 30
0.0
 10
-10.9671
 20
-14.19849
 30
0.0
 10
-10.9671
 20
-14.19849
 30
0.0
 10
-10.9671
 20
-14.19849
 30
0.0
 10
-10.9671
 20
-14.19849
 30
0.0
 10
-10.93547
 20
-14.19849
 30
0.0
 10
-10.93547
 20
-14.19849
 30
0.0
 10
-10.93547
 20
-14.19849
 30
0.0
 10
-10.93547
 20
-14.19849
 30
0.0
 10
-10.89737
 20
-14.30136
 30
0.0
 10
-10.89737
 20
-14.30136
 30
0.0
 10
-10.89737
 20
-14.30136
 30
0.0
 10
-10.89737
 20
-14.30136
 30
0.0
 10
-10.92404
 20
-14.30136
 30
0.0
 10
-10.92404
 20
-14.30136
 30
0.0
 10
-10.92404
 20
-14.30136
 30
0.0
 10
-10.92404
 20
-14.30136
 30
0.0
 10
-10.9305
 20
-14.28264
 30
0.0
 10
-10.9305
 20
-14.28264
 30
0.0
  0
SPLINE
  5
74
330
1F
100
AcDbEntity
  8
Layer 1
 62
   250
100
AcDbSpline
210
0.0
220
0.0
230
1.0
 70
    11
 71
     3
 72
    16
 73
    12
 74
     0
 42
0.0000000001
 43
0.0000000001
 40
0.0
 40
0.0
 40
0.0
 40
0.0
 40
0.3333333333333333
 40
0.3333333333333333
 40
0.3333333333333333
 40
0.3333333333333333
 40
0.6666666666666666
 40
0.6666666666666666
 40
0.6666666666666666
 40
0.6666666666666666
 40
1.0
 40
1.0
 40
1.0
 40
1.0
 10
-10.96538
 20
-14.26354
 30
0.0
 10
-10.96538
 20
-14.26354
 30
0.0
 10
-10.93718
 20
-14.26354
 30
0.0
 10
-10.93718
 20
-14.26354
 30
0.0
 10
-10.93718
 20
-14.26354
 30
0.0
 10
-10.93718
 20
-14.26354
 30
0.0
 10
-10.95125
 20
-14.22262
 30
0.0
 10
-10.95125
 20
-14.22262
 30
0.0
 10
-10.95125
 20
-14.22262
 30
0.0
 10
-10.95125
 20
-14.22262
 30
0.0
 10
-10.96538
 20
-14.26354
 30
0.0
 10
-10.96538
 20
-14.26354
 30
0.0
  0
SPLINE
  5
75
330
1F
100
AcDbEntity
  8
Layer 1
 62
   250
100
AcDbSpline
210
0.0
220
0.0
230
1.0
 70
    11
 71
     3
 72
    32
 73
    28
 74
     0
 42
0.0000000001
 43
0.0000000001
 40
0.0
 40
0.0
 40
0.0
 40
0.0
 40
0.1428571428571428
 40
0.1428571428571428
 40
0.1428571428571428
 40
0.1428571428571428
 40
0.2857142857142857
 40
0.2857142857142857
 40
0.2857142857142857
 40
0.2857142857142857
 40
0.4285714285714285
 40
0.4285714285714285
 40
0.4285714285714285
 40
0.4285714285714285
 40
0.5714285714285714
 40
0.5714285714285714
 40
0.5714285714285714
 40
0.5714285714285714
 40
0.7142857142857142
 40
0.7142857142857142
 40
0.7142857142857142
 40
0.7142857142857142
 40
0.857142857142857
 40
0.857142857142857
 40
0.857142857142857
 40
0.857142857142857
 40
1.0
 40
1.0
 40
1.0
 40
1.0
 10
-10.79687
 20
-14.24412
 30
0.0
 10
-10.79132
 20
-14.24412
 30
0.0
 10
-10.78732
 20
-14.24308
 30
0.0
 10
-10.78492
 20
-14.24101
 30
0.0
 10
-10.78492
 20
-14.24101
 30
0.0
 10
-10.7825
 20
-14.23894
 30
0.0
 10
-10.7813
 20
-14.23553
 30
0.0
 10
-10.7813
 20
-14.2308
 30
0.0
 10
-10.7813
 20
-14.2308
 30
0.0
 10
-10.7813
 20
-14.22612
 30
0.0
 10
-10.7825
 20
-14.22276
 30
0.0
 10
-10.78492
 20
-14.22074
 30
0.0
 10
-10.78492
 20
-14.22074
 30
0.0
 10
-10.78732
 20
-14.21872
 30
0.0
 10
-10.79132
 20
-14.21771
 30
0.0
 10
-10.79687
 20
-14.21771
 30
0.0
 10
-10.79687
 20
-14.21771
 30
0.0
 10
-10.79687
 20
-14.21771
 30
0.0
 10
-10.80804
 20
-14.21771
 30
0.0
 10
-10.80804
 20
-14.21771
 30
0.0
 10
-10.80804
 20
-14.21771
 30
0.0
 10
-10.80804
 20
-14.21771
 30
0.0
 10
-10.80804
 20
-14.24412
 30
0.0
 10
-10.80804
 20
-14.24412
 30
0.0
 10
-10.80804
 20
-14.24412
 30
0.0
 10
-10.80804
 20
-14.24412
 30
0.0
 10
-10.79687
 20
-14.24412
 30
0.0
 10
-10.79687
 20
-14.24412
 30
0.0
  0
SPLINE
  5
76
330
1F
100
AcDbEntity
  8
Layer 1
 62
   250
100
AcDbSpline
210
0.0
220
0.0
230
1.0
 70
    11
 71
     3
 72
    68
 73
    64
 74
     0
 42
0.0000000001
 43
0.0000000001
 40
0.0
 40
0.0
 40
0.0
 40
0.0
 40
0.0625
 40
0.0625
 40
0.0625
 40
0.0625
 40
0.125
 40
0.125
 40
0.125
 40
0.125
 40
0.1875
 40
0.1875
 40
0.1875
 40
0.1875
 40
0.25
 40
0.25
 40
0.25
 40
0.25
 40
0.3125
 40
0.3125
 40
0.3125
 40
0.3125
 40
0.375
 40
0.375
 40
0.375
 40
0.375
 40
0.4375
 40
0.4375
 40
0.4375
 40
0.4375
 40
0.5
 40
0.5
 40
0.5
 40
0.5
 40
0.5625
 40
0.5625
 40
0.5625
 40
0.5625
 40
0.625
 40
0.625
 40
0.625
 40
0.625
 40
0.6875
 40
0.6875
 40
0.6875
 40
0.6875
 40
0.75
 40
0.75
 40
0.75
 40
0.75
 40
0.8125
 40
0.8125
 40
0.8125
 40
0.8125
 40
0.875
 40
0.875
 40
0.875
 40
0.875
 40
0.9375
 40
0.9375
 40
0.9375
 40
0.9375
 40
1.0
 40
1.0
 40
1.0
 40
1.0
 10
-10.80804
 20
-14.26244
 30
0.0
 10
-10.80804
 20
-14.26244
 30
0.0
 10
-10.80804
 20
-14.30136
 30
0.0
 10
-10.80804
 20
-14.30136
 30
0.0
 10
-10.80804
 20
-14.30136
 30
0.0
 10
-10.80804
 20
-14.30136
 30
0.0
 10
-10.83457
 20
-14.30136
 30
0.0
 10
-10.83457
 20
-14.30136
 30
0.0
 10
-10.83457
 20
-14.30136
 30
0.0
 10
-10.83457
 20
-14.30136
 30
0.0
 10
-10.83457
 20
-14.19849
 30
0.0
 10
-10.83457
 20
-14.19849
 30
0.0
 10
-10.83457
 20
-14.19849
 30
0.0
 10
-10.83457
 20
-14.19849
 30
0.0
 10
-10.79405
 20
-14.19849
 30
0.0
 10
-10.79405
 20
-14.19849
 30
0.0
 10
-10.79405
 20
-14.19849
 30
0.0
 10
-10.7805
 20
-14.19849
 30
0.0
 10
-10.77055
 20
-14.20077
 30
0.0
 10
-10.76425
 20
-14.20531
 30
0.0
 10
-10.76425
 20
-14.20531
 30
0.0
 10
-10.75793
 20
-14.20985
 30
0.0
 10
-10.75477
 20
-14.21705
 30
0.0
 10
-10.75477
 20
-14.22688
 30
0.0
 10
-10.75477
 20
-14.22688
 30
0.0
 10
-10.75477
 20
-14.23367
 30
0.0
 10
-10.75642
 20
-14.23927
 30
0.0
 10
-10.75969
 20
-14.24362
 30
0.0
 10
-10.75969
 20
-14.24362
 30
0.0
 10
-10.76298
 20
-14.248
 30
0.0
 10
-10.76794
 20
-14.25122
 30
0.0
 10
-10.77455
 20
-14.25327
 30
0.0
 10
-10.77455
 20
-14.25327
 30
0.0
 10
-10.77093
 20
-14.25411
 30
0.0
 10
-10.76766
 20
-14.25597
 30
0.0
 10
-10.76479
 20
-14.25889
 30
0.0
 10
-10.76479
 20
-14.25889
 30
0.0
 10
-10.76192
 20
-14.2618
 30
0.0
 10
-10.75903
 20
-14.26622
 30
0.0
 10
-10.75609
 20
-14.27215
 30
0.0
 10
-10.75609
 20
-14.27215
 30
0.0
 10
-10.75609
 20
-14.27215
 30
0.0
 10
-10.74167
 20
-14.30136
 30
0.0
 10
-10.74167
 20
-14.30136
 30
0.0
 10
-10.74167
 20
-14.30136
 30
0.0
 10
-10.74167
 20
-14.30136
 30
0.0
 10
-10.76994
 20
-14.30136
 30
0.0
 10
-10.76994
 20
-14.30136
 30
0.0
 10
-10.76994
 20
-14.30136
 30
0.0
 10
-10.76994
 20
-14.30136
 30
0.0
 10
-10.78248
 20
-14.2758
 30
0.0
 10
-10.78248
 20
-14.2758
 30
0.0
 10
-10.78248
 20
-14.2758
 30
0.0
 10
-10.78499
 20
-14.27067
 30
0.0
 10
-10.78756
 20
-14.26714
 30
0.0
 10
-10.79017
 20
-14.26526
 30
0.0
 10
-10.79017
 20
-14.26526
 30
0.0
 10
-10.79276
 20
-14.26338
 30
0.0
 10
-10.79621
 20
-14.26244
 30
0.0
 10
-10.80054
 20
-14.26244
 30
0.0
 10
-10.80054
 20
-14.26244
 30
0.0
 10
-10.80054
 20
-14.26244
 30
0.0
 10
-10.80804
 20
-14.26244
 30
0.0
 10
-10.80804
 20
-14.26244
 30
0.0
  0
SPLINE
  5
77
330
1F
100
AcDbEntity
  8
Layer 1
 62
   250
100
AcDbSpline
210
0.0
220
0.0
230
1.0
 70
    11
 71
     3
 72
    52
 73
    48
 74
     0
 42
0.0000000001
 43
0.0000000001
 40
0.0
 40
0.0
 40
0.0
 40
0.0
 40
0.0833333333333333
 40
0.0833333333333333
 40
0.0833333333333333
 40
0.0833333333333333
 40
0.1666666666666667
 40
0.1666666666666667
 40
0.1666666666666667
 40
0.1666666666666667
 40
0.25
 40
0.25
 40
0.25
 40
0.25
 40
0.3333333333333333
 40
0.3333333333333333
 40
0.3333333333333333
 40
0.3333333333333333
 40
0.4166666666666666
 40
0.4166666666666666
 40
0.4166666666666666
 40
0.4166666666666666
 40
0.4999999999999999
 40
0.4999999999999999
 40
0.4999999999999999
 40
0.4999999999999999
 40
0.5833333333333333
 40
0.5833333333333333
 40
0.5833333333333333
 40
0.5833333333333333
 40
0.6666666666666666
 40
0.6666666666666666
 40
0.6666666666666666
 40
0.6666666666666666
 40
0.75
 40
0.75
 40
0.75
 40
0.75
 40
0.8333333333333334
 40
0.8333333333333334
 40
0.8333333333333334
 40
0.8333333333333334
 40
0.9166666666666667
 40
0.9166666666666667
 40
0.9166666666666667
 40
0.9166666666666667
 40
1.0
 40
1.0
 40
1.0
 40
1.0
 10
-10.72592
 20
-14.19849
 30
0.0
 10
-10.72592
 20
-14.19849
 30
0.0
 10
-10.65433
 20
-14.19849
 30
0.0
 10
-10.65433
 20
-14.19849
 30
0.0
 10
-10.65433
 20
-14.19849
 30
0.0
 10
-10.65433
 20
-14.19849
 30
0.0
 10
-10.65433
 20
-14.21855
 30
0.0
 10
-10.65433
 20
-14.21855
 30
0.0
 10
-10.65433
 20
-14.21855
 30
0.0
 10
-10.65433
 20
-14.21855
 30
0.0
 10
-10.69939
 20
-14.21855
 30
0.0
 10
-10.69939
 20
-14.21855
 30
0.0
 10
-10.69939
 20
-14.21855
 30
0.0
 10
-10.69939
 20
-14.21855
 30
0.0
 10
-10.69939
 20
-14.2377
 30
0.0
 10
-10.69939
 20
-14.2377
 30
0.0
 10
-10.69939
 20
-14.2377
 30
0.0
 10
-10.69939
 20
-14.2377
 30
0.0
 10
-10.65704
 20
-14.2377
 30
0.0
 10
-10.65704
 20
-14.2377
 30
0.0
 10
-10.65704
 20
-14.2377
 30
0.0
 10
-10.65704
 20
-14.2377
 30
0.0
 10
-10.65704
 20
-14.25776
 30
0.0
 10
-10.65704
 20
-14.25776
 30
0.0
 10
-10.65704
 20
-14.25776
 30
0.0
 10
-10.65704
 20
-14.25776
 30
0.0
 10
-10.69939
 20
-14.25776
 30
0.0
 10
-10.69939
 20
-14.25776
 30
0.0
 10
-10.69939
 20
-14.25776
 30
0.0
 10
-10.69939
 20
-14.25776
 30
0.0
 10
-10.69939
 20
-14.2813
 30
0.0
 10
-10.69939
 20
-14.2813
 30
0.0
 10
-10.69939
 20
-14.2813
 30
0.0
 10
-10.69939
 20
-14.2813
 30
0.0
 10
-10.65283
 20
-14.2813
 30
0.0
 10
-10.65283
 20
-14.2813
 30
0.0
 10
-10.65283
 20
-14.2813
 30
0.0
 10
-10.65283
 20
-14.2813
 30
0.0
 10
-10.65283
 20
-14.30136
 30
0.0
 10
-10.65283
 20
-14.30136
 30
0.0
 10
-10.65283
 20
-14.30136
 30
0.0
 10
-10.65283
 20
-14.30136
 30
0.0
 10
-10.72592
 20
-14.30136
 30
0.0
 10
-10.72592
 20
-14.30136
 30
0.0
 10
-10.72592
 20
-14.30136
 30
0.0
 10
-10.72592
 20
-14.30136
 30
0.0
 10
-10.72592
 20
-14.19849
 30
0.0
 10
-10.72592
 20
-14.19849
 30
0.0
  0
SPLINE
  5
78
330
1F
100
AcDbEntity
  8
Layer 1
 62
   250
100
AcDbSpline
210
0.0
220
0.0
230
1.0
 70
    11
 71
     3
 72
   116
 73
   112
 74
     0
 42
0.0000000001
 43
0.0000000001
 40
0.0
 40
0.0
 40
0.0
 40
0.0
 40
0.0357142857142857
 40
0.0357142857142857
 40
0.0357142857142857
 40
0.0357142857142857
 40
0.0714285714285714
 40
0.0714285714285714
 40
0.0714285714285714
 40
0.0714285714285714
 40
0.1071428571428571
 40
0.1071428571428571
 40
0.1071428571428571
 40
0.1071428571428571
 40
0.1428571428571428
 40
0.1428571428571428
 40
0.1428571428571428
 40
0.1428571428571428
 40
0.1785714285714285
 40
0.1785714285714285
 40
0.1785714285714285
 40
0.1785714285714285
 40
0.2142857142857142
 40
0.2142857142857142
 40
0.2142857142857142
 40
0.2142857142857142
 40
0.2499999999999999
 40
0.2499999999999999
 40
0.2499999999999999
 40
0.2499999999999999
 40
0.2857142857142856
 40
0.2857142857142856
 40
0.2857142857142856
 40
0.2857142857142856
 40
0.3214285714285713
 40
0.3214285714285713
 40
0.3214285714285713
 40
0.3214285714285713
 40
0.357142857142857
 40
0.357142857142857
 40
0.357142857142857
 40
0.357142857142857
 40
0.3928571428571427
 40
0.3928571428571427
 40
0.3928571428571427
 40
0.3928571428571427
 40
0.4285714285714284
 40
0.4285714285714284
 40
0.4285714285714284
 40
0.4285714285714284
 40
0.4642857142857141
 40
0.4642857142857141
 40
0.4642857142857141
 40
0.4642857142857141
 40
0.4999999999999998
 40
0.4999999999999998
 40
0.4999999999999998
 40
0.4999999999999998
 40
0.5357142857142856
 40
0.5357142857142856
 40
0.5357142857142856
 40
0.5357142857142856
 40
0.5714285714285713
 40
0.5714285714285713
 40
0.5714285714285713
 40
0.5714285714285713
 40
0.607142857142857
 40
0.607142857142857
 40
0.607142857142857
 40
0.607142857142857
 40
0.6428571428571427
 40
0.6428571428571427
 40
0.6428571428571427
 40
0.6428571428571427
 40
0.6785714285714284
 40
0.6785714285714284
 40
0.6785714285714284
 40
0.6785714285714284
 40
0.7142857142857141
 40
0.7142857142857141
 40
0.7142857142857141
 40
0.7142857142857141
 40
0.7499999999999998
 40
0.7499999999999998
 40
0.7499999999999998
 40
0.7499999999999998
 40
0.7857142857142855
 40
0.7857142857142855
 40
0.7857142857142855
 40
0.7857142857142855
 40
0.8214285714285712
 40
0.8214285714285712
 40
0.8214285714285712
 40
0.8214285714285712
 40
0.8571428571428569
 40
0.8571428571428569
 40
0.8571428571428569
 40
0.8571428571428569
 40
0.8928571428571426
 40
0.8928571428571426
 40
0.8928571428571426
 40
0.8928571428571426
 40
0.9285714285714283
 40
0.9285714285714283
 40
0.9285714285714283
 40
0.9285714285714283
 40
0.964285714285714
 40
0.964285714285714
 40
0.964285714285714
 40
0.964285714285714
 40
1.0
 40
1.0
 40
1.0
 40
1.0
 10
-10.55793
 20
-14.20174
 30
0.0
 10
-10.55793
 20
-14.20174
 30
0.0
 10
-10.55793
 20
-14.22349
 30
0.0
 10
-10.55793
 20
-14.22349
 30
0.0
 10
-10.55793
 20
-14.22349
 30
0.0
 10
-10.56358
 20
-14.22097
 30
0.0
 10
-10.5691
 20
-14.21907
 30
0.0
 10
-10.57446
 20
-14.21778
 30
0.0
 10
-10.57446
 20
-14.21778
 30
0.0
 10
-10.57985
 20
-14.21648
 30
0.0
 10
-10.58493
 20
-14.21585
 30
0.0
 10
-10.5897
 20
-14.21585
 30
0.0
 10
-10.5897
 20
-14.21585
 30
0.0
 10
-10.59603
 20
-14.21585
 30
0.0
 10
-10.60073
 20
-14.21672
 30
0.0
 10
-10.60377
 20
-14.21846
 30
0.0
 10
-10.60377
 20
-14.21846
 30
0.0
 10
-10.6068
 20
-14.22022
 30
0.0
 10
-10.60831
 20
-14.22293
 30
0.0
 10
-10.60831
 20
-14.2266
 30
0.0
 10
-10.60831
 20
-14.2266
 30
0.0
 10
-10.60831
 20
-14.22935
 30
0.0
 10
-10.6073
 20
-14.23151
 30
0.0
 10
-10.60525
 20
-14.23304
 30
0.0
 10
-10.60525
 20
-14.23304
 30
0.0
 10
-10.6032
 20
-14.23457
 30
0.0
 10
-10.59949
 20
-14.23591
 30
0.0
 10
-10.5941
 20
-14.23701
 30
0.0
 10
-10.5941
 20
-14.23701
 30
0.0
 10
-10.5941
 20
-14.23701
 30
0.0
 10
-10.58281
 20
-14.23927
 30
0.0
 10
-10.58281
 20
-14.23927
 30
0.0
 10
-10.58281
 20
-14.23927
 30
0.0
 10
-10.57136
 20
-14.24158
 30
0.0
 10
-10.56325
 20
-14.24506
 30
0.0
 10
-10.55843
 20
-14.24976
 30
0.0
 10
-10.55843
 20
-14.24976
 30
0.0
 10
-10.5536
 20
-14.25444
 30
0.0
 10
-10.55118
 20
-14.2611
 30
0.0
 10
-10.55118
 20
-14.26973
 30
0.0
 10
-10.55118
 20
-14.26973
 30
0.0
 10
-10.55118
 20
-14.28109
 30
0.0
 10
-10.55454
 20
-14.28953
 30
0.0
 10
-10.56127
 20
-14.29506
 30
0.0
 10
-10.56127
 20
-14.29506
 30
0.0
 10
-10.568
 20
-14.30058
 30
0.0
 10
-10.57827
 20
-14.30336
 30
0.0
 10
-10.5921
 20
-14.30336
 30
0.0
 10
-10.5921
 20
-14.30336
 30
0.0
 10
-10.59864
 20
-14.30336
 30
0.0
 10
-10.60518
 20
-14.30275
 30
0.0
 10
-10.61174
 20
-14.3015
 30
0.0
 10
-10.61174
 20
-14.3015
 30
0.0
 10
-10.6183
 20
-14.30025
 30
0.0
 10
-10.62489
 20
-14.29842
 30
0.0
 10
-10.63145
 20
-14.296
 30
0.0
 10
-10.63145
 20
-14.296
 30
0.0
 10
-10.63145
 20
-14.296
 30
0.0
 10
-10.63145
 20
-14.27361
 30
0.0
 10
-10.63145
 20
-14.27361
 30
0.0
 10
-10.63145
 20
-14.27361
 30
0.0
 10
-10.62489
 20
-14.27709
 30
0.0
 10
-10.61854
 20
-14.27972
 30
0.0
 10
-10.6124
 20
-14.28149
 30
0.0
 10
-10.6124
 20
-14.28149
 30
0.0
 10
-10.60626
 20
-14.28325
 30
0.0
 10
-10.60036
 20
-14.28414
 30
0.0
 10
-10.59467
 20
-14.28414
 30
0.0
 10
-10.59467
 20
-14.28414
 30
0.0
 10
-10.58888
 20
-14.28414
 30
0.0
 10
-10.58444
 20
-14.28318
 30
0.0
 10
-10.58136
 20
-14.28125
 30
0.0
 10
-10.58136
 20
-14.28125
 30
0.0
 10
-10.57827
 20
-14.27932
 30
0.0
 10
-10.57675
 20
-14.27657
 30
0.0
 10
-10.57675
 20
-14.27297
 30
0.0
 10
-10.57675
 20
-14.27297
 30
0.0
 10
-10.57675
 20
-14.26977
 30
0.0
 10
-10.57778
 20
-14.26728
 30
0.0
 10
-10.57987
 20
-14.26554
 30
0.0
 10
-10.57987
 20
-14.26554
 30
0.0
 10
-10.58197
 20
-14.2638
 30
0.0
 10
-10.58613
 20
-14.26223
 30
0.0
 10
-10.59239
 20
-14.26086
 30
0.0
 10
-10.59239
 20
-14.26086
 30
0.0
 10
-10.59239
 20
-14.26086
 30
0.0
 10
-10.60266
 20
-14.25858
 30
0.0
 10
-10.60266
 20
-14.25858
 30
0.0
 10
-10.60266
 20
-14.25858
 30
0.0
 10
-10.61294
 20
-14.25637
 30
0.0
 10
-10.62047
 20
-14.25287
 30
0.0
 10
-10.62522
 20
-14.24804
 30
0.0
 10
-10.62522
 20
-14.24804
 30
0.0
 10
-10.62997
 20
-14.24322
 30
0.0
 10
-10.63234
 20
-14.23671
 30
0.0
 10
-10.63234
 20
-14.22855
 30
0.0
 10
-10.63234
 20
-14.22855
 30
0.0
 10
-10.63234
 20
-14.21829
 30
0.0
 10
-10.62903
 20
-14.21041
 30
0.0
 10
-10.62242
 20
-14.20491
 30
0.0
 10
-10.62242
 20
-14.20491
 30
0.0
 10
-10.61581
 20
-14.19938
 30
0.0
 10
-10.60631
 20
-14.19663
 30
0.0
 10
-10.59389
 20
-14.19663
 30
0.0
 10
-10.59389
 20
-14.19663
 30
0.0
 10
-10.58825
 20
-14.19663
 30
0.0
 10
-10.58244
 20
-14.19706
 30
0.0
 10
-10.57646
 20
-14.1979
 30
0.0
 10
-10.57646
 20
-14.1979
 30
0.0
 10
-10.57049
 20
-14.19875
 30
0.0
 10
-10.56431
 20
-14.20002
 30
0.0
 10
-10.55793
 20
-14.20174
 30
0.0
  0
SPLINE
  5
79
330
1F
100
AcDbEntity
  8
Layer 1
 62
   250
100
AcDbSpline
210
0.0
220
0.0
230
1.0
 70
    11
 71
     3
 72
    52
 73
    48
 74
     0
 42
0.0000000001
 43
0.0000000001
 40
0.0
 40
0.0
 40
0.0
 40
0.0
 40
0.0833333333333333
 40
0.0833333333333333
 40
0.0833333333333333
 40
0.0833333333333333
 40
0.1666666666666667
 40
0.1666666666666667
 40
0.1666666666666667
 40
0.1666666666666667
 40
0.25
 40
0.25
 40
0.25
 40
0.25
 40
0.3333333333333333
 40
0.3333333333333333
 40
0.3333333333333333
 40
0.3333333333333333
 40
0.4166666666666666
 40
0.4166666666666666
 40
0.4166666666666666
 40
0.4166666666666666
 40
0.4999999999999999
 40
0.4999999999999999
 40
0.4999999999999999
 40
0.4999999999999999
 40
0.5833333333333333
 40
0.5833333333333333
 40
0.5833333333333333
 40
0.5833333333333333
 40
0.6666666666666666
 40
0.6666666666666666
 40
0.6666666666666666
 40
0.6666666666666666
 40
0.75
 40
0.75
 40
0.75
 40
0.75
 40
0.8333333333333334
 40
0.8333333333333334
 40
0.8333333333333334
 40
0.8333333333333334
 40
0.9166666666666667
 40
0.9166666666666667
 40
0.9166666666666667
 40
0.9166666666666667
 40
1.0
 40
1.0
 40
1.0
 40
1.0
 10
-10.5279
 20
-14.19849
 30
0.0
 10
-10.5279
 20
-14.19849
 30
0.0
 10
-10.45631
 20
-14.19849
 30
0.0
 10
-10.45631
 20
-14.19849
 30
0.0
 10
-10.45631
 20
-14.19849
 30
0.0
 10
-10.45631
 20
-14.19849
 30
0.0
 10
-10.45631
 20
-14.21855
 30
0.0
 10
-10.45631
 20
-14.21855
 30
0.0
 10
-10.45631
 20
-14.21855
 30
0.0
 10
-10.45631
 20
-14.21855
 30
0.0
 10
-10.50137
 20
-14.21855
 30
0.0
 10
-10.50137
 20
-14.21855
 30
0.0
 10
-10.50137
 20
-14.21855
 30
0.0
 10
-10.50137
 20
-14.21855
 30
0.0
 10
-10.50137
 20
-14.2377
 30
0.0
 10
-10.50137
 20
-14.2377
 30
0.0
 10
-10.50137
 20
-14.2377
 30
0.0
 10
-10.50137
 20
-14.2377
 30
0.0
 10
-10.45902
 20
-14.2377
 30
0.0
 10
-10.45902
 20
-14.2377
 30
0.0
 10
-10.45902
 20
-14.2377
 30
0.0
 10
-10.45902
 20
-14.2377
 30
0.0
 10
-10.45902
 20
-14.25776
 30
0.0
 10
-10.45902
 20
-14.25776
 30
0.0
 10
-10.45902
 20
-14.25776
 30
0.0
 10
-10.45902
 20
-14.25776
 30
0.0
 10
-10.50137
 20
-14.25776
 30
0.0
 10
-10.50137
 20
-14.25776
 30
0.0
 10
-10.50137
 20
-14.25776
 30
0.0
 10
-10.50137
 20
-14.25776
 30
0.0
 10
-10.50137
 20
-14.2813
 30
0.0
 10
-10.50137
 20
-14.2813
 30
0.0
 10
-10.50137
 20
-14.2813
 30
0.0
 10
-10.50137
 20
-14.2813
 30
0.0
 10
-10.45481
 20
-14.2813
 30
0.0
 10
-10.45481
 20
-14.2813
 30
0.0
 10
-10.45481
 20
-14.2813
 30
0.0
 10
-10.45481
 20
-14.2813
 30
0.0
 10
-10.45481
 20
-14.30136
 30
0.0
 10
-10.45481
 20
-14.30136
 30
0.0
 10
-10.45481
 20
-14.30136
 30
0.0
 10
-10.45481
 20
-14.30136
 30
0.0
 10
-10.5279
 20
-14.30136
 30
0.0
 10
-10.5279
 20
-14.30136
 30
0.0
 10
-10.5279
 20
-14.30136
 30
0.0
 10
-10.5279
 20
-14.30136
 30
0.0
 10
-10.5279
 20
-14.19849
 30
0.0
 10
-10.5279
 20
-14.19849
 30
0.0
  0
SPLINE
  5
7A
330
1F
100
AcDbEntity
  8
Layer 1
 62
   250
100
AcDbSpline
210
0.0
220
0.0
230
1.0
 70
    11
 71
     3
 72
    36
 73
    32
 74
     0
 42
0.0000000001
 43
0.0000000001
 40
0.0
 40
0.0
 40
0.0
 40
0.0
 40
0.125
 40
0.125
 40
0.125
 40
0.125
 40
0.25
 40
0.25
 40
0.25
 40
0.25
 40
0.375
 40
0.375
 40
0.375
 40
0.375
 40
0.5
 40
0.5
 40
0.5
 40
0.5
 40
0.625
 40
0.625
 40
0.625
 40
0.625
 40
0.75
 40
0.75
 40
0.75
 40
0.75
 40
0.875
 40
0.875
 40
0.875
 40
0.875
 40
1.0
 40
1.0
 40
1.0
 40
1.0
 10
-10.44378
 20
-14.19849
 30
0.0
 10
-10.44378
 20
-14.19849
 30
0.0
 10
-10.34898
 20
-14.19849
 30
0.0
 10
-10.34898
 20
-14.19849
 30
0.0
 10
-10.34898
 20
-14.19849
 30
0.0
 10
-10.34898
 20
-14.19849
 30
0.0
 10
-10.34898
 20
-14.21855
 30
0.0
 10
-10.34898
 20
-14.21855
 30
0.0
 10
-10.34898
 20
-14.21855
 30
0.0
 10
-10.34898
 20
-14.21855
 30
0.0
 10
-10.38308
 20
-14.21855
 30
0.0
 10
-10.38308
 20
-14.21855
 30
0.0
 10
-10.38308
 20
-14.21855
 30
0.0
 10
-10.38308
 20
-14.21855
 30
0.0
 10
-10.38308
 20
-14.30136
 30
0.0
 10
-10.38308
 20
-14.30136
 30
0.0
 10
-10.38308
 20
-14.30136
 30
0.0
 10
-10.38308
 20
-14.30136
 30
0.0
 10
-10.40961
 20
-14.30136
 30
0.0
 10
-10.40961
 20
-14.30136
 30
0.0
 10
-10.40961
 20
-14.30136
 30
0.0
 10
-10.40961
 20
-14.30136
 30
0.0
 10
-10.40961
 20
-14.21855
 30
0.0
 10
-10.40961
 20
-14.21855
 30
0.0
 10
-10.40961
 20
-14.21855
 30
0.0
 10
-10.40961
 20
-14.21855
 30
0.0
 10
-10.44378
 20
-14.21855
 30
0.0
 10
-10.44378
 20
-14.21855
 30
0.0
 10
-10.44378
 20
-14.21855
 30
0.0
 10
-10.44378
 20
-14.21855
 30
0.0
 10
-10.44378
 20
-14.19849
 30
0.0
 10
-10.44378
 20
-14.19849
 30
0.0
  0
SPLINE
  5
7B
330
1F
100
AcDbEntity
  8
Layer 1
 62
   250
100
AcDbSpline
210
0.0
220
0.0
230
1.0
 70
    11
 71
     3
 72
    36
 73
    32
 74
     0
 42
0.0000000001
 43
0.0000000001
 40
0.0
 40
0.0
 40
0.0
 40
0.0
 40
0.125
 40
0.125
 40
0.125
 40
0.125
 40
0.25
 40
0.25
 40
0.25
 40
0.25
 40
0.375
 40
0.375
 40
0.375
 40
0.375
 40
0.5
 40
0.5
 40
0.5
 40
0.5
 40
0.625
 40
0.625
 40
0.625
 40
0.625
 40
0.75
 40
0.75
 40
0.75
 40
0.75
 40
0.875
 40
0.875
 40
0.875
 40
0.875
 40
1.0
 40
1.0
 40
1.0
 40
1.0
 10
-10.27282
 20
-14.28264
 30
0.0
 10
-10.27282
 20
-14.28264
 30
0.0
 10
-10.31431
 20
-14.28264
 30
0.0
 10
-10.31431
 20
-14.28264
 30
0.0
 10
-10.31431
 20
-14.28264
 30
0.0
 10
-10.31431
 20
-14.28264
 30
0.0
 10
-10.32085
 20
-14.30136
 30
0.0
 10
-10.32085
 20
-14.30136
 30
0.0
 10
-10.32085
 20
-14.30136
 30
0.0
 10
-10.32085
 20
-14.30136
 30
0.0
 10
-10.34752
 20
-14.30136
 30
0.0
 10
-10.34752
 20
-14.30136
 30
0.0
 10
-10.34752
 20
-14.30136
 30
0.0
 10
-10.34752
 20
-14.30136
 30
0.0
 10
-10.30942
 20
-14.19849
 30
0.0
 10
-10.30942
 20
-14.19849
 30
0.0
 10
-10.30942
 20
-14.19849
 30
0.0
 10
-10.30942
 20
-14.19849
 30
0.0
 10
-10.27779
 20
-14.19849
 30
0.0
 10
-10.27779
 20
-14.19849
 30
0.0
 10
-10.27779
 20
-14.19849
 30
0.0
 10
-10.27779
 20
-14.19849
 30
0.0
 10
-10.23969
 20
-14.30136
 30
0.0
 10
-10.23969
 20
-14.30136
 30
0.0
 10
-10.23969
 20
-14.30136
 30
0.0
 10
-10.23969
 20
-14.30136
 30
0.0
 10
-10.26636
 20
-14.30136
 30
0.0
 10
-10.26636
 20
-14.30136
 30
0.0
 10
-10.26636
 20
-14.30136
 30
0.0
 10
-10.26636
 20
-14.30136
 30
0.0
 10
-10.27282
 20
-14.28264
 30
0.0
 10
-10.27282
 20
-14.28264
 30
0.0
  0
SPLINE
  5
7C
330
1F
100
AcDbEntity
  8
Layer 1
 62
   250
100
AcDbSpline
210
0.0
220
0.0
230
1.0
 70
    11
 71
     3
 72
    16
 73
    12
 74
     0
 42
0.0000000001
 43
0.0000000001
 40
0.0
 40
0.0
 40
0.0
 40
0.0
 40
0.3333333333333333
 40
0.3333333333333333
 40
0.3333333333333333
 40
0.3333333333333333
 40
0.6666666666666666
 40
0.6666666666666666
 40
0.6666666666666666
 40
0.6666666666666666
 40
1.0
 40
1.0
 40
1.0
 40
1.0
 10
-10.3077
 20
-14.26354
 30
0.0
 10
-10.3077
 20
-14.26354
 30
0.0
 10
-10.2795
 20
-14.26354
 30
0.0
 10
-10.2795
 20
-14.26354
 30
0.0
 10
-10.2795
 20
-14.26354
 30
0.0
 10
-10.2795
 20
-14.26354
 30
0.0
 10
-10.29357
 20
-14.22262
 30
0.0
 10
-10.29357
 20
-14.22262
 30
0.0
 10
-10.29357
 20
-14.22262
 30
0.0
 10
-10.29357
 20
-14.22262
 30
0.0
 10
-10.3077
 20
-14.26354
 30
0.0
 10
-10.3077
 20
-14.26354
 30
0.0
  0
SPLINE
  5
7D
330
1F
100
AcDbEntity
  8
Layer 1
 62
   250
100
AcDbSpline
210
0.0
220
0.0
230
1.0
 70
    11
 71
     3
 72
    32
 73
    28
 74
     0
 42
0.0000000001
 43
0.0000000001
 40
0.0
 40
0.0
 40
0.0
 40
0.0
 40
0.1428571428571428
 40
0.1428571428571428
 40
0.1428571428571428
 40
0.1428571428571428
 40
0.2857142857142857
 40
0.2857142857142857
 40
0.2857142857142857
 40
0.2857142857142857
 40
0.4285714285714285
 40
0.4285714285714285
 40
0.4285714285714285
 40
0.4285714285714285
 40
0.5714285714285714
 40
0.5714285714285714
 40
0.5714285714285714
 40
0.5714285714285714
 40
0.7142857142857142
 40
0.7142857142857142
 40
0.7142857142857142
 40
0.7142857142857142
 40
0.857142857142857
 40
0.857142857142857
 40
0.857142857142857
 40
0.857142857142857
 40
1.0
 40
1.0
 40
1.0
 40
1.0
 10
-10.18482
 20
-14.23831
 30
0.0
 10
-10.18063
 20
-14.23831
 30
0.0
 10
-10.17746
 20
-14.23739
 30
0.0
 10
-10.17532
 20
-14.23556
 30
0.0
 10
-10.17532
 20
-14.23556
 30
0.0
 10
-10.17315
 20
-14.23372
 30
0.0
 10
-10.17207
 20
-14.23102
 30
0.0
 10
-10.17207
 20
-14.22742
 30
0.0
 10
-10.17207
 20
-14.22742
 30
0.0
 10
-10.17207
 20
-14.22389
 30
0.0
 10
-10.17315
 20
-14.22121
 30
0.0
 10
-10.17532
 20
-14.21935
 30
0.0
 10
-10.17532
 20
-14.21935
 30
0.0
 10
-10.17746
 20
-14.21749
 30
0.0
 10
-10.18063
 20
-14.21655
 30
0.0
 10
-10.18482
 20
-14.21655
 30
0.0
 10
-10.18482
 20
-14.21655
 30
0.0
 10
-10.18482
 20
-14.21655
 30
0.0
 10
-10.19949
 20
-14.21655
 30
0.0
 10
-10.19949
 20
-14.21655
 30
0.0
 10
-10.19949
 20
-14.21655
 30
0.0
 10
-10.19949
 20
-14.21655
 30
0.0
 10
-10.19949
 20
-14.23831
 30
0.0
 10
-10.19949
 20
-14.23831
 30
0.0
 10
-10.19949
 20
-14.23831
 30
0.0
 10
-10.19949
 20
-14.23831
 30
0.0
 10
-10.18482
 20
-14.23831
 30
0.0
 10
-10.18482
 20
-14.23831
 30
0.0
  0
SPLINE
  5
7E
330
1F
100
AcDbEntity
  8
Layer 1
 62
   250
100
AcDbSpline
210
0.0
220
0.0
230
1.0
 70
    11
 71
     3
 72
    32
 73
    28
 74
     0
 42
0.0000000001
 43
0.0000000001
 40
0.0
 40
0.0
 40
0.0
 40
0.0
 40
0.1428571428571428
 40
0.1428571428571428
 40
0.1428571428571428
 40
0.1428571428571428
 40
0.2857142857142857
 40
0.2857142857142857
 40
0.2857142857142857
 40
0.2857142857142857
 40
0.4285714285714285
 40
0.4285714285714285
 40
0.4285714285714285
 40
0.4285714285714285
 40
0.5714285714285714
 40
0.5714285714285714
 40
0.5714285714285714
 40
0.5714285714285714
 40
0.7142857142857142
 40
0.7142857142857142
 40
0.7142857142857142
 40
0.7142857142857142
 40
0.857142857142857
 40
0.857142857142857
 40
0.857142857142857
 40
0.857142857142857
 40
1.0
 40
1.0
 40
1.0
 40
1.0
 10
-10.18392
 20
-14.2833
 30
0.0
 10
-10.17858
 20
-14.2833
 30
0.0
 10
-10.17459
 20
-14.28217
 30
0.0
 10
-10.17188
 20
-14.27993
 30
0.0
 10
-10.17188
 20
-14.27993
 30
0.0
 10
-10.1692
 20
-14.27768
 30
0.0
 10
-10.16786
 20
-14.27427
 30
0.0
 10
-10.16786
 20
-14.26973
 30
0.0
 10
-10.16786
 20
-14.26973
 30
0.0
 10
-10.16786
 20
-14.26528
 30
0.0
 10
-10.1692
 20
-14.26194
 30
0.0
 10
-10.17186
 20
-14.25971
 30
0.0
 10
-10.17186
 20
-14.25971
 30
0.0
 10
-10.17452
 20
-14.25747
 30
0.0
 10
-10.17854
 20
-14.25637
 30
0.0
 10
-10.18392
 20
-14.25637
 30
0.0
 10
-10.18392
 20
-14.25637
 30
0.0
 10
-10.18392
 20
-14.25637
 30
0.0
 10
-10.19949
 20
-14.25637
 30
0.0
 10
-10.19949
 20
-14.25637
 30
0.0
 10
-10.19949
 20
-14.25637
 30
0.0
 10
-10.19949
 20
-14.25637
 30
0.0
 10
-10.19949
 20
-14.2833
 30
0.0
 10
-10.19949
 20
-14.2833
 30
0.0
 10
-10.19949
 20
-14.2833
 30
0.0
 10
-10.19949
 20
-14.2833
 30
0.0
 10
-10.18392
 20
-14.2833
 30
0.0
 10
-10.18392
 20
-14.2833
 30
0.0
  0
SPLINE
  5
7F
330
1F
100
AcDbEntity
  8
Layer 1
 62
   250
100
AcDbSpline
210
0.0
220
0.0
230
1.0
 70
    11
 71
     3
 72
    48
 73
    44
 74
     0
 42
0.0000000001
 43
0.0000000001
 40
0.0
 40
0.0
 40
0.0
 40
0.0
 40
0.0909090909090909
 40
0.0909090909090909
 40
0.0909090909090909
 40
0.0909090909090909
 40
0.1818181818181818
 40
0.1818181818181818
 40
0.1818181818181818
 40
0.1818181818181818
 40
0.2727272727272727
 40
0.2727272727272727
 40
0.2727272727272727
 40
0.2727272727272727
 40
0.3636363636363636
 40
0.3636363636363636
 40
0.3636363636363636
 40
0.3636363636363636
 40
0.4545454545454546
 40
0.4545454545454546
 40
0.4545454545454546
 40
0.4545454545454546
 40
0.5454545454545455
 40
0.5454545454545455
 40
0.5454545454545455
 40
0.5454545454545455
 40
0.6363636363636365
 40
0.6363636363636365
 40
0.6363636363636365
 40
0.6363636363636365
 40
0.7272727272727274
 40
0.7272727272727274
 40
0.7272727272727274
 40
0.7272727272727274
 40
0.8181818181818183
 40
0.8181818181818183
 40
0.8181818181818183
 40
0.8181818181818183
 40
0.9090909090909093
 40
0.9090909090909093
 40
0.9090909090909093
 40
0.9090909090909093
 40
1.0
 40
1.0
 40
1.0
 40
1.0
 10
-10.15925
 20
-14.2463
 30
0.0
 10
-10.15356
 20
-14.24795
 30
0.0
 10
-10.14914
 20
-14.25101
 30
0.0
 10
-10.14601
 20
-14.25548
 30
0.0
 10
-10.14601
 20
-14.25548
 30
0.0
 10
-10.14288
 20
-14.25992
 30
0.0
 10
-10.14133
 20
-14.2654
 30
0.0
 10
-10.14133
 20
-14.27187
 30
0.0
 10
-10.14133
 20
-14.27187
 30
0.0
 10
-10.14133
 20
-14.28179
 30
0.0
 10
-10.1447
 20
-14.28918
 30
0.0
 10
-10.1514
 20
-14.29405
 30
0.0
 10
-10.1514
 20
-14.29405
 30
0.0
 10
-10.1581
 20
-14.29891
 30
0.0
 10
-10.16831
 20
-14.30136
 30
0.0
 10
-10.182
 20
-14.30136
 30
0.0
 10
-10.182
 20
-14.30136
 30
0.0
 10
-10.182
 20
-14.30136
 30
0.0
 10
-10.22602
 20
-14.30136
 30
0.0
 10
-10.22602
 20
-14.30136
 30
0.0
 10
-10.22602
 20
-14.30136
 30
0.0
 10
-10.22602
 20
-14.30136
 30
0.0
 10
-10.22602
 20
-14.19849
 30
0.0
 10
-10.22602
 20
-14.19849
 30
0.0
 10
-10.22602
 20
-14.19849
 30
0.0
 10
-10.22602
 20
-14.19849
 30
0.0
 10
-10.1862
 20
-14.19849
 30
0.0
 10
-10.1862
 20
-14.19849
 30
0.0
 10
-10.1862
 20
-14.19849
 30
0.0
 10
-10.17191
 20
-14.19849
 30
0.0
 10
-10.16156
 20
-14.20065
 30
0.0
 10
-10.15516
 20
-14.20496
 30
0.0
 10
-10.15516
 20
-14.20496
 30
0.0
 10
-10.14874
 20
-14.20929
 30
0.0
 10
-10.14554
 20
-14.2162
 30
0.0
 10
-10.14554
 20
-14.2257
 30
0.0
 10
-10.14554
 20
-14.2257
 30
0.0
 10
-10.14554
 20
-14.23071
 30
0.0
 10
-10.14672
 20
-14.23497
 30
0.0
 10
-10.14905
 20
-14.2385
 30
0.0
 10
-10.14905
 20
-14.2385
 30
0.0
 10
-10.1514
 20
-14.242
 30
0.0
 10
-10.15478
 20
-14.24461
 30
0.0
 10
-10.15925
 20
-14.2463
 30
0.0
  0
SPLINE
  5
80
330
1F
100
AcDbEntity
  8
Layer 1
 62
   250
100
AcDbSpline
210
0.0
220
0.0
230
1.0
 70
    11
 71
     3
 72
    28
 73
    24
 74
     0
 42
0.0000000001
 43
0.0000000001
 40
0.0
 40
0.0
 40
0.0
 40
0.0
 40
0.1666666666666667
 40
0.1666666666666667
 40
0.1666666666666667
 40
0.1666666666666667
 40
0.3333333333333333
 40
0.3333333333333333
 40
0.3333333333333333
 40
0.3333333333333333
 40
0.5
 40
0.5
 40
0.5
 40
0.5
 40
0.6666666666666666
 40
0.6666666666666666
 40
0.6666666666666666
 40
0.6666666666666666
 40
0.8333333333333333
 40
0.8333333333333333
 40
0.8333333333333333
 40
0.8333333333333333
 40
1.0
 40
1.0
 40
1.0
 40
1.0
 10
-10.11847
 20
-14.19849
 30
0.0
 10
-10.11847
 20
-14.19849
 30
0.0
 10
-10.09194
 20
-14.19849
 30
0.0
 10
-10.09194
 20
-14.19849
 30
0.0
 10
-10.09194
 20
-14.19849
 30
0.0
 10
-10.09194
 20
-14.19849
 30
0.0
 10
-10.09194
 20
-14.2813
 30
0.0
 10
-10.09194
 20
-14.2813
 30
0.0
 10
-10.09194
 20
-14.2813
 30
0.0
 10
-10.09194
 20
-14.2813
 30
0.0
 10
-10.04538
 20
-14.2813
 30
0.0
 10
-10.04538
 20
-14.2813
 30
0.0
 10
-10.04538
 20
-14.2813
 30
0.0
 10
-10.04538
 20
-14.2813
 30
0.0
 10
-10.04538
 20
-14.30136
 30
0.0
 10
-10.04538
 20
-14.30136
 30
0.0
 10
-10.04538
 20
-14.30136
 30
0.0
 10
-10.04538
 20
-14.30136
 30
0.0
 10
-10.11847
 20
-14.30136
 30
0.0
 10
-10.11847
 20
-14.30136
 30
0.0
 10
-10.11847
 20
-14.30136
 30
0.0
 10
-10.11847
 20
-14.30136
 30
0.0
 10
-10.11847
 20
-14.19849
 30
0.0
 10
-10.11847
 20
-14.19849
 30
0.0
  0
SPLINE
  5
81
330
1F
100
AcDbEntity
  8
Layer 1
 62
   250
100
AcDbSpline
210
0.0
220
0.0
230
1.0
 70
    11
 71
     3
 72
    52
 73
    48
 74
     0
 42
0.0000000001
 43
0.0000000001
 40
0.0
 40
0.0
 40
0.0
 40
0.0
 40
0.0833333333333333
 40
0.0833333333333333
 40
0.0833333333333333
 40
0.0833333333333333
 40
0.1666666666666667
 40
0.1666666666666667
 40
0.1666666666666667
 40
0.1666666666666667
 40
0.25
 40
0.25
 40
0.25
 40
0.25
 40
0.3333333333333333
 40
0.3333333333333333
 40
0.3333333333333333
 40
0.3333333333333333
 40
0.4166666666666666
 40
0.4166666666666666
 40
0.4166666666666666
 40
0.4166666666666666
 40
0.4999999999999999
 40
0.4999999999999999
 40
0.4999999999999999
 40
0.4999999999999999
 40
0.5833333333333333
 40
0.5833333333333333
 40
0.5833333333333333
 40
0.5833333333333333
 40
0.6666666666666666
 40
0.6666666666666666
 40
0.6666666666666666
 40
0.6666666666666666
 40
0.75
 40
0.75
 40
0.75
 40
0.75
 40
0.8333333333333334
 40
0.8333333333333334
 40
0.8333333333333334
 40
0.8333333333333334
 40
0.9166666666666667
 40
0.9166666666666667
 40
0.9166666666666667
 40
0.9166666666666667
 40
1.0
 40
1.0
 40
1.0
 40
1.0
 10
-10.02856
 20
-14.19849
 30
0.0
 10
-10.02856
 20
-14.19849
 30
0.0
 10
-9.95697
 20
-14.19849
 30
0.0
 10
-9.95697
 20
-14.19849
 30
0.0
 10
-9.95697
 20
-14.19849
 30
0.0
 10
-9.95697
 20
-14.19849
 30
0.0
 10
-9.95697
 20
-14.21855
 30
0.0
 10
-9.95697
 20
-14.21855
 30
0.0
 10
-9.95697
 20
-14.21855
 30
0.0
 10
-9.95697
 20
-14.21855
 30
0.0
 10
-10.00203
 20
-14.21855
 30
0.0
 10
-10.00203
 20
-14.21855
 30
0.0
 10
-10.00203
 20
-14.21855
 30
0.0
 10
-10.00203
 20
-14.21855
 30
0.0
 10
-10.00203
 20
-14.2377
 30
0.0
 10
-10.00203
 20
-14.2377
 30
0.0
 10
-10.00203
 20
-14.2377
 30
0.0
 10
-10.00203
 20
-14.2377
 30
0.0
 10
-9.95968
 20
-14.2377
 30
0.0
 10
-9.95968
 20
-14.2377
 30
0.0
 10
-9.95968
 20
-14.2377
 30
0.0
 10
-9.95968
 20
-14.2377
 30
0.0
 10
-9.95968
 20
-14.25776
 30
0.0
 10
-9.95968
 20
-14.25776
 30
0.0
 10
-9.95968
 20
-14.25776
 30
0.0
 10
-9.95968
 20
-14.25776
 30
0.0
 10
-10.00203
 20
-14.25776
 30
0.0
 10
-10.00203
 20
-14.25776
 30
0.0
 10
-10.00203
 20
-14.25776
 30
0.0
 10
-10.00203
 20
-14.25776
 30
0.0
 10
-10.00203
 20
-14.2813
 30
0.0
 10
-10.00203
 20
-14.2813
 30
0.0
 10
-10.00203
 20
-14.2813
 30
0.0
 10
-10.00203
 20
-14.2813
 30
0.0
 10
-9.95547
 20
-14.2813
 30
0.0
 10
-9.95547
 20
-14.2813
 30
0.0
 10
-9.95547
 20
-14.2813
 30
0.0
 10
-9.95547
 20
-14.2813
 30
0.0
 10
-9.95547
 20
-14.30136
 30
0.0
 10
-9.95547
 20
-14.30136
 30
0.0
 10
-9.95547
 20
-14.30136
 30
0.0
 10
-9.95547
 20
-14.30136
 30
0.0
 10
-10.02856
 20
-14.30136
 30
0.0
 10
-10.02856
 20
-14.30136
 30
0.0
 10
-10.02856
 20
-14.30136
 30
0.0
 10
-10.02856
 20
-14.30136
 30
0.0
 10
-10.02856
 20
-14.19849
 30
0.0
 10
-10.02856
 20
-14.19849
 30
0.0
  0
SPLINE
  5
82
330
1F
100
AcDbEntity
  8
Layer 1
 62
   250
100
AcDbSpline
210
0.0
220
0.0
230
1.0
 70
    11
 71
     3
 72
    44
 73
    40
 74
     0
 42
0.0000000001
 43
0.0000000001
 40
0.0
 40
0.0
 40
0.0
 40
0.0
 40
0.1
 40
0.1
 40
0.1
 40
0.1
 40
0.2
 40
0.2
 40
0.2
 40
0.2
 40
0.3
 40
0.3
 40
0.3
 40
0.3
 40
0.4
 40
0.4
 40
0.4
 40
0.4
 40
0.5
 40
0.5
 40
0.5
 40
0.5
 40
0.6
 40
0.6
 40
0.6
 40
0.6
 40
0.7
 40
0.7
 40
0.7
 40
0.7
 40
0.7999999999999999
 40
0.7999999999999999
 40
0.7999999999999999
 40
0.7999999999999999
 40
0.8999999999999999
 40
0.8999999999999999
 40
0.8999999999999999
 40
0.8999999999999999
 40
1.0
 40
1.0
 40
1.0
 40
1.0
 10
-9.88303
 20
-14.19849
 30
0.0
 10
-9.88303
 20
-14.19849
 30
0.0
 10
-9.81144
 20
-14.19849
 30
0.0
 10
-9.81144
 20
-14.19849
 30
0.0
 10
-9.81144
 20
-14.19849
 30
0.0
 10
-9.81144
 20
-14.19849
 30
0.0
 10
-9.81144
 20
-14.21855
 30
0.0
 10
-9.81144
 20
-14.21855
 30
0.0
 10
-9.81144
 20
-14.21855
 30
0.0
 10
-9.81144
 20
-14.21855
 30
0.0
 10
-9.8565
 20
-14.21855
 30
0.0
 10
-9.8565
 20
-14.21855
 30
0.0
 10
-9.8565
 20
-14.21855
 30
0.0
 10
-9.8565
 20
-14.21855
 30
0.0
 10
-9.8565
 20
-14.2377
 30
0.0
 10
-9.8565
 20
-14.2377
 30
0.0
 10
-9.8565
 20
-14.2377
 30
0.0
 10
-9.8565
 20
-14.2377
 30
0.0
 10
-9.81412
 20
-14.2377
 30
0.0
 10
-9.81412
 20
-14.2377
 30
0.0
 10
-9.81412
 20
-14.2377
 30
0.0
 10
-9.81412
 20
-14.2377
 30
0.0
 10
-9.81412
 20
-14.25776
 30
0.0
 10
-9.81412
 20
-14.25776
 30
0.0
 10
-9.81412
 20
-14.25776
 30
0.0
 10
-9.81412
 20
-14.25776
 30
0.0
 10
-9.8565
 20
-14.25776
 30
0.0
 10
-9.8565
 20
-14.25776
 30
0.0
 10
-9.8565
 20
-14.25776
 30
0.0
 10
-9.8565
 20
-14.25776
 30
0.0
 10
-9.8565
 20
-14.30136
 30
0.0
 10
-9.8565
 20
-14.30136
 30
0.0
 10
-9.8565
 20
-14.30136
 30
0.0
 10
-9.8565
 20
-14.30136
 30
0.0
 10
-9.88303
 20
-14.30136
 30
0.0
 10
-9.88303
 20
-14.30136
 30
0.0
 10
-9.88303
 20
-14.30136
 30
0.0
 10
-9.88303
 20
-14.30136
 30
0.0
 10
-9.88303
 20
-14.19849
 30
0.0
 10
-9.88303
 20
-14.19849
 30
0.0
  0
SPLINE
  5
83
330
1F
100
AcDbEntity
  8
Layer 1
 62
   250
100
AcDbSpline
210
0.0
220
0.0
230
1.0
 70
    11
 71
     3
 72
    60
 73
    56
 74
     0
 42
0.0000000001
 43
0.0000000001
 40
0.0
 40
0.0
 40
0.0
 40
0.0
 40
0.0714285714285714
 40
0.0714285714285714
 40
0.0714285714285714
 40
0.0714285714285714
 40
0.1428571428571428
 40
0.1428571428571428
 40
0.1428571428571428
 40
0.1428571428571428
 40
0.2142857142857143
 40
0.2142857142857143
 40
0.2142857142857143
 40
0.2142857142857143
 40
0.2857142857142857
 40
0.2857142857142857
 40
0.2857142857142857
 40
0.2857142857142857
 40
0.3571428571428571
 40
0.3571428571428571
 40
0.3571428571428571
 40
0.3571428571428571
 40
0.4285714285714285
 40
0.4285714285714285
 40
0.4285714285714285
 40
0.4285714285714285
 40
0.4999999999999999
 40
0.4999999999999999
 40
0.4999999999999999
 40
0.4999999999999999
 40
0.5714285714285713
 40
0.5714285714285713
 40
0.5714285714285713
 40
0.5714285714285713
 40
0.6428571428571427
 40
0.6428571428571427
 40
0.6428571428571427
 40
0.6428571428571427
 40
0.7142857142857141
 40
0.7142857142857141
 40
0.7142857142857141
 40
0.7142857142857141
 40
0.7857142857142855
 40
0.7857142857142855
 40
0.7857142857142855
 40
0.7857142857142855
 40
0.8571428571428569
 40
0.8571428571428569
 40
0.8571428571428569
 40
0.8571428571428569
 40
0.9285714285714283
 40
0.9285714285714283
 40
0.9285714285714283
 40
0.9285714285714283
 40
1.0
 40
1.0
 40
1.0
 40
1.0
 10
-9.78663
 20
-14.19849
 30
0.0
 10
-9.78663
 20
-14.19849
 30
0.0
 10
-9.7601
 20
-14.19849
 30
0.0
 10
-9.7601
 20
-14.19849
 30
0.0
 10
-9.7601
 20
-14.19849
 30
0.0
 10
-9.7601
 20
-14.19849
 30
0.0
 10
-9.7601
 20
-14.26016
 30
0.0
 10
-9.7601
 20
-14.26016
 30
0.0
 10
-9.7601
 20
-14.26016
 30
0.0
 10
-9.7601
 20
-14.26865
 30
0.0
 10
-9.75872
 20
-14.27474
 30
0.0
 10
-9.75594
 20
-14.27838
 30
0.0
 10
-9.75594
 20
-14.27838
 30
0.0
 10
-9.75316
 20
-14.28203
 30
0.0
 10
-9.74863
 20
-14.28386
 30
0.0
 10
-9.74232
 20
-14.28386
 30
0.0
 10
-9.74232
 20
-14.28386
 30
0.0
 10
-9.73597
 20
-14.28386
 30
0.0
 10
-9.73141
 20
-14.28203
 30
0.0
 10
-9.72864
 20
-14.27838
 30
0.0
 10
-9.72864
 20
-14.27838
 30
0.0
 10
-9.72586
 20
-14.27474
 30
0.0
 10
-9.72447
 20
-14.26865
 30
0.0
 10
-9.72447
 20
-14.26016
 30
0.0
 10
-9.72447
 20
-14.26016
 30
0.0
 10
-9.72447
 20
-14.26016
 30
0.0
 10
-9.72447
 20
-14.19849
 30
0.0
 10
-9.72447
 20
-14.19849
 30
0.0
 10
-9.72447
 20
-14.19849
 30
0.0
 10
-9.72447
 20
-14.19849
 30
0.0
 10
-9.69794
 20
-14.19849
 30
0.0
 10
-9.69794
 20
-14.19849
 30
0.0
 10
-9.69794
 20
-14.19849
 30
0.0
 10
-9.69794
 20
-14.19849
 30
0.0
 10
-9.69794
 20
-14.26016
 30
0.0
 10
-9.69794
 20
-14.26016
 30
0.0
 10
-9.69794
 20
-14.26016
 30
0.0
 10
-9.69794
 20
-14.27471
 30
0.0
 10
-9.70159
 20
-14.28556
 30
0.0
 10
-9.7089
 20
-14.29268
 30
0.0
 10
-9.7089
 20
-14.29268
 30
0.0
 10
-9.71619
 20
-14.29981
 30
0.0
 10
-9.72734
 20
-14.30336
 30
0.0
 10
-9.74232
 20
-14.30336
 30
0.0
 10
-9.74232
 20
-14.30336
 30
0.0
 10
-9.75726
 20
-14.30336
 30
0.0
 10
-9.76838
 20
-14.29981
 30
0.0
 10
-9.77567
 20
-14.29268
 30
0.0
 10
-9.77567
 20
-14.29268
 30
0.0
 10
-9.78299
 20
-14.28556
 30
0.0
 10
-9.78663
 20
-14.27471
 30
0.0
 10
-9.78663
 20
-14.26016
 30
0.0
 10
-9.78663
 20
-14.26016
 30
0.0
 10
-9.78663
 20
-14.26016
 30
0.0
 10
-9.78663
 20
-14.19849
 30
0.0
 10
-9.78663
 20
-14.19849
 30
0.0
  0
SPLINE
  5
84
330
1F
100
AcDbEntity
  8
Layer 1
 62
   250
100
AcDbSpline
210
0.0
220
0.0
230
1.0
 70
    11
 71
     3
 72
   116
 73
   112
 74
     0
 42
0.0000000001
 43
0.0000000001
 40
0.0
 40
0.0
 40
0.0
 40
0.0
 40
0.0357142857142857
 40
0.0357142857142857
 40
0.0357142857142857
 40
0.0357142857142857
 40
0.0714285714285714
 40
0.0714285714285714
 40
0.0714285714285714
 40
0.0714285714285714
 40
0.1071428571428571
 40
0.1071428571428571
 40
0.1071428571428571
 40
0.1071428571428571
 40
0.1428571428571428
 40
0.1428571428571428
 40
0.1428571428571428
 40
0.1428571428571428
 40
0.1785714285714285
 40
0.1785714285714285
 40
0.1785714285714285
 40
0.1785714285714285
 40
0.2142857142857142
 40
0.2142857142857142
 40
0.2142857142857142
 40
0.2142857142857142
 40
0.2499999999999999
 40
0.2499999999999999
 40
0.2499999999999999
 40
0.2499999999999999
 40
0.2857142857142856
 40
0.2857142857142856
 40
0.2857142857142856
 40
0.2857142857142856
 40
0.3214285714285713
 40
0.3214285714285713
 40
0.3214285714285713
 40
0.3214285714285713
 40
0.357142857142857
 40
0.357142857142857
 40
0.357142857142857
 40
0.357142857142857
 40
0.3928571428571427
 40
0.3928571428571427
 40
0.3928571428571427
 40
0.3928571428571427
 40
0.4285714285714284
 40
0.4285714285714284
 40
0.4285714285714284
 40
0.4285714285714284
 40
0.4642857142857141
 40
0.4642857142857141
 40
0.4642857142857141
 40
0.4642857142857141
 40
0.4999999999999998
 40
0.4999999999999998
 40
0.4999999999999998
 40
0.4999999999999998
 40
0.5357142857142856
 40
0.5357142857142856
 40
0.5357142857142856
 40
0.5357142857142856
 40
0.5714285714285713
 40
0.5714285714285713
 40
0.5714285714285713
 40
0.5714285714285713
 40
0.607142857142857
 40
0.607142857142857
 40
0.607142857142857
 40
0.607142857142857
 40
0.6428571428571427
 40
0.6428571428571427
 40
0.6428571428571427
 40
0.6428571428571427
 40
0.6785714285714284
 40
0.6785714285714284
 40
0.6785714285714284
 40
0.6785714285714284
 40
0.7142857142857141
 40
0.7142857142857141
 40
0.7142857142857141
 40
0.7142857142857141
 40
0.7499999999999998
 40
0.7499999999999998
 40
0.7499999999999998
 40
0.7499999999999998
 40
0.7857142857142855
 40
0.7857142857142855
 40
0.7857142857142855
 40
0.7857142857142855
 40
0.8214285714285712
 40
0.8214285714285712
 40
0.8214285714285712
 40
0.8214285714285712
 40
0.8571428571428569
 40
0.8571428571428569
 40
0.8571428571428569
 40
0.8571428571428569
 40
0.8928571428571426
 40
0.8928571428571426
 40
0.8928571428571426
 40
0.8928571428571426
 40
0.9285714285714283
 40
0.9285714285714283
 40
0.9285714285714283
 40
0.9285714285714283
 40
0.964285714285714
 40
0.964285714285714
 40
0.964285714285714
 40
0.964285714285714
 40
1.0
 40
1.0
 40
1.0
 40
1.0
 10
-9.60046
 20
-14.20174
 30
0.0
 10
-9.60046
 20
-14.20174
 30
0.0
 10
-9.60046
 20
-14.22349
 30
0.0
 10
-9.60046
 20
-14.22349
 30
0.0
 10
-9.60046
 20
-14.22349
 30
0.0
 10
-9.60611
 20
-14.22097
 30
0.0
 10
-9.61163
 20
-14.21907
 30
0.0
 10
-9.61699
 20
-14.21778
 30
0.0
 10
-9.61699
 20
-14.21778
 30
0.0
 10
-9.62238
 20
-14.21648
 30
0.0
 10
-9.62746
 20
-14.21585
 30
0.0
 10
-9.63223
 20
-14.21585
 30
0.0
 10
-9.63223
 20
-14.21585
 30
0.0
 10
-9.63856
 20
-14.21585
 30
0.0
 10
-9.64326
 20
-14.21672
 30
0.0
 10
-9.6463
 20
-14.21846
 30
0.0
 10
-9.6463
 20
-14.21846
 30
0.0
 10
-9.64933
 20
-14.22022
 30
0.0
 10
-9.65084
 20
-14.22293
 30
0.0
 10
-9.65084
 20
-14.2266
 30
0.0
 10
-9.65084
 20
-14.2266
 30
0.0
 10
-9.65084
 20
-14.22935
 30
0.0
 10
-9.64983
 20
-14.23151
 30
0.0
 10
-9.64778
 20
-14.23304
 30
0.0
 10
-9.64778
 20
-14.23304
 30
0.0
 10
-9.64573
 20
-14.23457
 30
0.0
 10
-9.64202
 20
-14.23591
 30
0.0
 10
-9.63663
 20
-14.23701
 30
0.0
 10
-9.63663
 20
-14.23701
 30
0.0
 10
-9.63663
 20
-14.23701
 30
0.0
 10
-9.62534
 20
-14.23927
 30
0.0
 10
-9.62534
 20
-14.23927
 30
0.0
 10
-9.62534
 20
-14.23927
 30
0.0
 10
-9.61389
 20
-14.24158
 30
0.0
 10
-9.60578
 20
-14.24506
 30
0.0
 10
-9.60096
 20
-14.24976
 30
0.0
 10
-9.60096
 20
-14.24976
 30
0.0
 10
-9.59613
 20
-14.25444
 30
0.0
 10
-9.59371
 20
-14.2611
 30
0.0
 10
-9.59371
 20
-14.26973
 30
0.0
 10
-9.59371
 20
-14.26973
 30
0.0
 10
-9.59371
 20
-14.28109
 30
0.0
 10
-9.59707
 20
-14.28953
 30
0.0
 10
-9.6038
 20
-14.29506
 30
0.0
 10
-9.6038
 20
-14.29506
 30
0.0
 10
-9.61053
 20
-14.30058
 30
0.0
 10
-9.6208
 20
-14.30336
 30
0.0
 10
-9.63463
 20
-14.30336
 30
0.0
 10
-9.63463
 20
-14.30336
 30
0.0
 10
-9.64117
 20
-14.30336
 30
0.0
 10
-9.64771
 20
-14.30275
 30
0.0
 10
-9.65427
 20
-14.3015
 30
0.0
 10
-9.65427
 20
-14.3015
 30
0.0
 10
-9.66083
 20
-14.30025
 30
0.0
 10
-9.66742
 20
-14.29842
 30
0.0
 10
-9.67398
 20
-14.296
 30
0.0
 10
-9.67398
 20
-14.296
 30
0.0
 10
-9.67398
 20
-14.296
 30
0.0
 10
-9.67398
 20
-14.27361
 30
0.0
 10
-9.67398
 20
-14.27361
 30
0.0
 10
-9.67398
 20
-14.27361
 30
0.0
 10
-9.66742
 20
-14.27709
 30
0.0
 10
-9.66107
 20
-14.27972
 30
0.0
 10
-9.65493
 20
-14.28149
 30
0.0
 10
-9.65493
 20
-14.28149
 30
0.0
 10
-9.64879
 20
-14.28325
 30
0.0
 10
-9.64289
 20
-14.28414
 30
0.0
 10
-9.6372
 20
-14.28414
 30
0.0
 10
-9.6372
 20
-14.28414
 30
0.0
 10
-9.63141
 20
-14.28414
 30
0.0
 10
-9.62697
 20
-14.28318
 30
0.0
 10
-9.62389
 20
-14.28125
 30
0.0
 10
-9.62389
 20
-14.28125
 30
0.0
 10
-9.6208
 20
-14.27932
 30
0.0
 10
-9.61928
 20
-14.27657
 30
0.0
 10
-9.61928
 20
-14.27297
 30
0.0
 10
-9.61928
 20
-14.27297
 30
0.0
 10
-9.61928
 20
-14.26977
 30
0.0
 10
-9.62031
 20
-14.26728
 30
0.0
 10
-9.6224
 20
-14.26554
 30
0.0
 10
-9.6224
 20
-14.26554
 30
0.0
 10
-9.6245
 20
-14.2638
 30
0.0
 10
-9.62866
 20
-14.26223
 30
0.0
 10
-9.63492
 20
-14.26086
 30
0.0
 10
-9.63492
 20
-14.26086
 30
0.0
 10
-9.63492
 20
-14.26086
 30
0.0
 10
-9.64519
 20
-14.25858
 30
0.0
 10
-9.64519
 20
-14.25858
 30
0.0
 10
-9.64519
 20
-14.25858
 30
0.0
 10
-9.65547
 20
-14.25637
 30
0.0
 10
-9.663
 20
-14.25287
 30
0.0
 10
-9.66775
 20
-14.24804
 30
0.0
 10
-9.66775
 20
-14.24804
 30
0.0
 10
-9.6725
 20
-14.24322
 30
0.0
 10
-9.67487
 20
-14.23671
 30
0.0
 10
-9.67487
 20
-14.22855
 30
0.0
 10
-9.67487
 20
-14.22855
 30
0.0
 10
-9.67487
 20
-14.21829
 30
0.0
 10
-9.67156
 20
-14.21041
 30
0.0
 10
-9.66495
 20
-14.20491
 30
0.0
 10
-9.66495
 20
-14.20491
 30
0.0
 10
-9.65834
 20
-14.19938
 30
0.0
 10
-9.64884
 20
-14.19663
 30
0.0
 10
-9.63642
 20
-14.19663
 30
0.0
 10
-9.63642
 20
-14.19663
 30
0.0
 10
-9.63078
 20
-14.19663
 30
0.0
 10
-9.62497
 20
-14.19706
 30
0.0
 10
-9.61899
 20
-14.1979
 30
0.0
 10
-9.61899
 20
-14.1979
 30
0.0
 10
-9.61302
 20
-14.19875
 30
0.0
 10
-9.60684
 20
-14.20002
 30
0.0
 10
-9.60046
 20
-14.20174
 30
0.0
  0
SPLINE
  5
85
330
1F
100
AcDbEntity
  8
Layer 1
 62
   250
100
AcDbSpline
210
0.0
220
0.0
230
1.0
 70
    11
 71
     3
 72
    52
 73
    48
 74
     0
 42
0.0000000001
 43
0.0000000001
 40
0.0
 40
0.0
 40
0.0
 40
0.0
 40
0.0833333333333333
 40
0.0833333333333333
 40
0.0833333333333333
 40
0.0833333333333333
 40
0.1666666666666667
 40
0.1666666666666667
 40
0.1666666666666667
 40
0.1666666666666667
 40
0.25
 40
0.25
 40
0.25
 40
0.25
 40
0.3333333333333333
 40
0.3333333333333333
 40
0.3333333333333333
 40
0.3333333333333333
 40
0.4166666666666666
 40
0.4166666666666666
 40
0.4166666666666666
 40
0.4166666666666666
 40
0.4999999999999999
 40
0.4999999999999999
 40
0.4999999999999999
 40
0.4999999999999999
 40
0.5833333333333333
 40
0.5833333333333333
 40
0.5833333333333333
 40
0.5833333333333333
 40
0.6666666666666666
 40
0.6666666666666666
 40
0.6666666666666666
 40
0.6666666666666666
 40
0.75
 40
0.75
 40
0.75
 40
0.75
 40
0.8333333333333334
 40
0.8333333333333334
 40
0.8333333333333334
 40
0.8333333333333334
 40
0.9166666666666667
 40
0.9166666666666667
 40
0.9166666666666667
 40
0.9166666666666667
 40
1.0
 40
1.0
 40
1.0
 40
1.0
 10
-9.57043
 20
-14.19849
 30
0.0
 10
-9.57043
 20
-14.19849
 30
0.0
 10
-9.49884
 20
-14.19849
 30
0.0
 10
-9.49884
 20
-14.19849
 30
0.0
 10
-9.49884
 20
-14.19849
 30
0.0
 10
-9.49884
 20
-14.19849
 30
0.0
 10
-9.49884
 20
-14.21855
 30
0.0
 10
-9.49884
 20
-14.21855
 30
0.0
 10
-9.49884
 20
-14.21855
 30
0.0
 10
-9.49884
 20
-14.21855
 30
0.0
 10
-9.5439
 20
-14.21855
 30
0.0
 10
-9.5439
 20
-14.21855
 30
0.0
 10
-9.5439
 20
-14.21855
 30
0.0
 10
-9.5439
 20
-14.21855
 30
0.0
 10
-9.5439
 20
-14.2377
 30
0.0
 10
-9.5439
 20
-14.2377
 30
0.0
 10
-9.5439
 20
-14.2377
 30
0.0
 10
-9.5439
 20
-14.2377
 30
0.0
 10
-9.50155
 20
-14.2377
 30
0.0
 10
-9.50155
 20
-14.2377
 30
0.0
 10
-9.50155
 20
-14.2377
 30
0.0
 10
-9.50155
 20
-14.2377
 30
0.0
 10
-9.50155
 20
-14.25776
 30
0.0
 10
-9.50155
 20
-14.25776
 30
0.0
 10
-9.50155
 20
-14.25776
 30
0.0
 10
-9.50155
 20
-14.25776
 30
0.0
 10
-9.5439
 20
-14.25776
 30
0.0
 10
-9.5439
 20
-14.25776
 30
0.0
 10
-9.5439
 20
-14.25776
 30
0.0
 10
-9.5439
 20
-14.25776
 30
0.0
 10
-9.5439
 20
-14.2813
 30
0.0
 10
-9.5439
 20
-14.2813
 30
0.0
 10
-9.5439
 20
-14.2813
 30
0.0
 10
-9.5439
 20
-14.2813
 30
0.0
 10
-9.49734
 20
-14.2813
 30
0.0
 10
-9.49734
 20
-14.2813
 30
0.0
 10
-9.49734
 20
-14.2813
 30
0.0
 10
-9.49734
 20
-14.2813
 30
0.0
 10
-9.49734
 20
-14.30136
 30
0.0
 10
-9.49734
 20
-14.30136
 30
0.0
 10
-9.49734
 20
-14.30136
 30
0.0
 10
-9.49734
 20
-14.30136
 30
0.0
 10
-9.57043
 20
-14.30136
 30
0.0
 10
-9.57043
 20
-14.30136
 30
0.0
 10
-9.57043
 20
-14.30136
 30
0.0
 10
-9.57043
 20
-14.30136
 30
0.0
 10
-9.57043
 20
-14.19849
 30
0.0
 10
-9.57043
 20
-14.19849
 30
0.0
  0
SPLINE
  5
86
330
1F
100
AcDbEntity
  8
Layer 1
 62
   250
100
AcDbSpline
210
0.0
220
0.0
230
1.0
 70
    11
 71
     3
 72
    36
 73
    32
 74
     0
 42
0.0000000001
 43
0.0000000001
 40
0.0
 40
0.0
 40
0.0
 40
0.0
 40
0.125
 40
0.125
 40
0.125
 40
0.125
 40
0.25
 40
0.25
 40
0.25
 40
0.25
 40
0.375
 40
0.375
 40
0.375
 40
0.375
 40
0.5
 40
0.5
 40
0.5
 40
0.5
 40
0.625
 40
0.625
 40
0.625
 40
0.625
 40
0.75
 40
0.75
 40
0.75
 40
0.75
 40
0.875
 40
0.875
 40
0.875
 40
0.875
 40
1.0
 40
1.0
 40
1.0
 40
1.0
 10
-10.82292
 20
-14.37908
 30
0.0
 10
-10.82748
 20
-14.37908
 30
0.0
 10
-10.83093
 20
-14.38084
 30
0.0
 10
-10.83328
 20
-14.38439
 30
0.0
 10
-10.83328
 20
-14.38439
 30
0.0
 10
-10.83563
 20
-14.38794
 30
0.0
 10
-10.8368
 20
-14.39321
 30
0.0
 10
-10.8368
 20
-14.40016
 30
0.0
 10
-10.8368
 20
-14.40016
 30
0.0
 10
-10.8368
 20
-14.40709
 30
0.0
 10
-10.83563
 20
-14.41234
 30
0.0
 10
-10.83328
 20
-14.41591
 30
0.0
 10
-10.83328
 20
-14.41591
 30
0.0
 10
-10.83093
 20
-14.41948
 30
0.0
 10
-10.82748
 20
-14.42126
 30
0.0
 10
-10.82292
 20
-14.42126
 30
0.0
 10
-10.82292
 20
-14.42126
 30
0.0
 10
-10.81833
 20
-14.42126
 30
0.0
 10
-10.81487
 20
-14.41948
 30
0.0
 10
-10.81252
 20
-14.41591
 30
0.0
 10
-10.81252
 20
-14.41591
 30
0.0
 10
-10.81017
 20
-14.41234
 30
0.0
 10
-10.809
 20
-14.40709
 30
0.0
 10
-10.809
 20
-14.40016
 30
0.0
 10
-10.809
 20
-14.40016
 30
0.0
 10
-10.809
 20
-14.39321
 30
0.0
 10
-10.81017
 20
-14.38794
 30
0.0
 10
-10.81252
 20
-14.38439
 30
0.0
 10
-10.81252
 20
-14.38439
 30
0.0
 10
-10.81487
 20
-14.38084
 30
0.0
 10
-10.81833
 20
-14.37908
 30
0.0
 10
-10.82292
 20
-14.37908
 30
0.0
  0
SPLINE
  5
87
330
1F
100
AcDbEntity
  8
Layer 1
 62
   250
100
AcDbSpline
210
0.0
220
0.0
230
1.0
 70
    11
 71
     3
 72
    36
 73
    32
 74
     0
 42
0.0000000001
 43
0.0000000001
 40
0.0
 40
0.0
 40
0.0
 40
0.0
 40
0.125
 40
0.125
 40
0.125
 40
0.125
 40
0.25
 40
0.25
 40
0.25
 40
0.25
 40
0.375
 40
0.375
 40
0.375
 40
0.375
 40
0.5
 40
0.5
 40
0.5
 40
0.5
 40
0.625
 40
0.625
 40
0.625
 40
0.625
 40
0.75
 40
0.75
 40
0.75
 40
0.75
 40
0.875
 40
0.875
 40
0.875
 40
0.875
 40
1.0
 40
1.0
 40
1.0
 40
1.0
 10
-10.82292
 20
-14.37146
 30
0.0
 10
-10.81533
 20
-14.37146
 30
0.0
 10
-10.80953
 20
-14.37391
 30
0.0
 10
-10.80552
 20
-14.37883
 30
0.0
 10
-10.80552
 20
-14.37883
 30
0.0
 10
-10.8015
 20
-14.38374
 30
0.0
 10
-10.79948
 20
-14.39086
 30
0.0
 10
-10.79948
 20
-14.40016
 30
0.0
 10
-10.79948
 20
-14.40016
 30
0.0
 10
-10.79948
 20
-14.40951
 30
0.0
 10
-10.80148
 20
-14.41663
 30
0.0
 10
-10.80548
 20
-14.42153
 30
0.0
 10
-10.80548
 20
-14.42153
 30
0.0
 10
-10.8095
 20
-14.42643
 30
0.0
 10
-10.8153
 20
-14.42888
 30
0.0
 10
-10.82292
 20
-14.42888
 30
0.0
 10
-10.82292
 20
-14.42888
 30
0.0
 10
-10.83052
 20
-14.42888
 30
0.0
 10
-10.8363
 20
-14.42643
 30
0.0
 10
-10.84032
 20
-14.42153
 30
0.0
 10
-10.84032
 20
-14.42153
 30
0.0
 10
-10.84432
 20
-14.41663
 30
0.0
 10
-10.84632
 20
-14.40951
 30
0.0
 10
-10.84632
 20
-14.40016
 30
0.0
 10
-10.84632
 20
-14.40016
 30
0.0
 10
-10.84632
 20
-14.39086
 30
0.0
 10
-10.84432
 20
-14.38374
 30
0.0
 10
-10.84032
 20
-14.37883
 30
0.0
 10
-10.84032
 20
-14.37883
 30
0.0
 10
-10.8363
 20
-14.37391
 30
0.0
 10
-10.83052
 20
-14.37146
 30
0.0
 10
-10.82292
 20
-14.37146
 30
0.0
  0
SPLINE
  5
88
330
1F
100
AcDbEntity
  8
Layer 1
 62
   250
100
AcDbSpline
210
0.0
220
0.0
230
1.0
 70
    11
 71
     3
 72
    36
 73
    32
 74
     0
 42
0.0000000001
 43
0.0000000001
 40
0.0
 40
0.0
 40
0.0
 40
0.0
 40
0.125
 40
0.125
 40
0.125
 40
0.125
 40
0.25
 40
0.25
 40
0.25
 40
0.25
 40
0.375
 40
0.375
 40
0.375
 40
0.375
 40
0.5
 40
0.5
 40
0.5
 40
0.5
 40
0.625
 40
0.625
 40
0.625
 40
0.625
 40
0.75
 40
0.75
 40
0.75
 40
0.75
 40
0.875
 40
0.875
 40
0.875
 40
0.875
 40
1.0
 40
1.0
 40
1.0
 40
1.0
 10
-10.76272
 20
-14.37908
 30
0.0
 10
-10.76728
 20
-14.37908
 30
0.0
 10
-10.77073
 20
-14.38084
 30
0.0
 10
-10.77308
 20
-14.38439
 30
0.0
 10
-10.77308
 20
-14.38439
 30
0.0
 10
-10.77543
 20
-14.38794
 30
0.0
 10
-10.7766
 20
-14.39321
 30
0.0
 10
-10.7766
 20
-14.40016
 30
0.0
 10
-10.7766
 20
-14.40016
 30
0.0
 10
-10.7766
 20
-14.40709
 30
0.0
 10
-10.77543
 20
-14.41234
 30
0.0
 10
-10.77308
 20
-14.41591
 30
0.0
 10
-10.77308
 20
-14.41591
 30
0.0
 10
-10.77073
 20
-14.41948
 30
0.0
 10
-10.76728
 20
-14.42126
 30
0.0
 10
-10.76272
 20
-14.42126
 30
0.0
 10
-10.76272
 20
-14.42126
 30
0.0
 10
-10.75813
 20
-14.42126
 30
0.0
 10
-10.75467
 20
-14.41948
 30
0.0
 10
-10.75232
 20
-14.41591
 30
0.0
 10
-10.75232
 20
-14.41591
 30
0.0
 10
-10.74997
 20
-14.41234
 30
0.0
 10
-10.7488
 20
-14.40709
 30
0.0
 10
-10.7488
 20
-14.40016
 30
0.0
 10
-10.7488
 20
-14.40016
 30
0.0
 10
-10.7488
 20
-14.39321
 30
0.0
 10
-10.74997
 20
-14.38794
 30
0.0
 10
-10.75232
 20
-14.38439
 30
0.0
 10
-10.75232
 20
-14.38439
 30
0.0
 10
-10.75467
 20
-14.38084
 30
0.0
 10
-10.75813
 20
-14.37908
 30
0.0
 10
-10.76272
 20
-14.37908
 30
0.0
  0
SPLINE
  5
89
330
1F
100
AcDbEntity
  8
Layer 1
 62
   250
100
AcDbSpline
210
0.0
220
0.0
230
1.0
 70
    11
 71
     3
 72
    36
 73
    32
 74
     0
 42
0.0000000001
 43
0.0000000001
 40
0.0
 40
0.0
 40
0.0
 40
0.0
 40
0.125
 40
0.125
 40
0.125
 40
0.125
 40
0.25
 40
0.25
 40
0.25
 40
0.25
 40
0.375
 40
0.375
 40
0.375
 40
0.375
 40
0.5
 40
0.5
 40
0.5
 40
0.5
 40
0.625
 40
0.625
 40
0.625
 40
0.625
 40
0.75
 40
0.75
 40
0.75
 40
0.75
 40
0.875
 40
0.875
 40
0.875
 40
0.875
 40
1.0
 40
1.0
 40
1.0
 40
1.0
 10
-10.76272
 20
-14.37146
 30
0.0
 10
-10.75513
 20
-14.37146
 30
0.0
 10
-10.74933
 20
-14.37391
 30
0.0
 10
-10.74532
 20
-14.37883
 30
0.0
 10
-10.74532
 20
-14.37883
 30
0.0
 10
-10.7413
 20
-14.38374
 30
0.0
 10
-10.73928
 20
-14.39086
 30
0.0
 10
-10.73928
 20
-14.40016
 30
0.0
 10
-10.73928
 20
-14.40016
 30
0.0
 10
-10.73928
 20
-14.40951
 30
0.0
 10
-10.74128
 20
-14.41663
 30
0.0
 10
-10.74528
 20
-14.42153
 30
0.0
 10
-10.74528
 20
-14.42153
 30
0.0
 10
-10.7493
 20
-14.42643
 30
0.0
 10
-10.7551
 20
-14.42888
 30
0.0
 10
-10.76272
 20
-14.42888
 30
0.0
 10
-10.76272
 20
-14.42888
 30
0.0
 10
-10.77032
 20
-14.42888
 30
0.0
 10
-10.7761
 20
-14.42643
 30
0.0
 10
-10.78012
 20
-14.42153
 30
0.0
 10
-10.78012
 20
-14.42153
 30
0.0
 10
-10.78412
 20
-14.41663
 30
0.0
 10
-10.78612
 20
-14.40951
 30
0.0
 10
-10.78612
 20
-14.40016
 30
0.0
 10
-10.78612
 20
-14.40016
 30
0.0
 10
-10.78612
 20
-14.39086
 30
0.0
 10
-10.78412
 20
-14.38374
 30
0.0
 10
-10.78012
 20
-14.37883
 30
0.0
 10
-10.78012
 20
-14.37883
 30
0.0
 10
-10.7761
 20
-14.37391
 30
0.0
 10
-10.77032
 20
-14.37146
 30
0.0
 10
-10.76272
 20
-14.37146
 30
0.0
  0
SPLINE
  5
8A
330
1F
100
AcDbEntity
  8
Layer 1
 62
   250
100
AcDbSpline
210
0.0
220
0.0
230
1.0
 70
    11
 71
     3
 72
   112
 73
   108
 74
     0
 42
0.0000000001
 43
0.0000000001
 40
0.0
 40
0.0
 40
0.0
 40
0.0
 40
0.037037037037037
 40
0.037037037037037
 40
0.037037037037037
 40
0.037037037037037
 40
0.0740740740740741
 40
0.0740740740740741
 40
0.0740740740740741
 40
0.0740740740740741
 40
0.1111111111111111
 40
0.1111111111111111
 40
0.1111111111111111
 40
0.1111111111111111
 40
0.1481481481481481
 40
0.1481481481481481
 40
0.1481481481481481
 40
0.1481481481481481
 40
0.1851851851851852
 40
0.1851851851851852
 40
0.1851851851851852
 40
0.1851851851851852
 40
0.2222222222222222
 40
0.2222222222222222
 40
0.2222222222222222
 40
0.2222222222222222
 40
0.2592592592592592
 40
0.2592592592592592
 40
0.2592592592592592
 40
0.2592592592592592
 40
0.2962962962962963
 40
0.2962962962962963
 40
0.2962962962962963
 40
0.2962962962962963
 40
0.3333333333333333
 40
0.3333333333333333
 40
0.3333333333333333
 40
0.3333333333333333
 40
0.3703703703703703
 40
0.3703703703703703
 40
0.3703703703703703
 40
0.3703703703703703
 40
0.4074074074074074
 40
0.4074074074074074
 40
0.4074074074074074
 40
0.4074074074074074
 40
0.4444444444444444
 40
0.4444444444444444
 40
0.4444444444444444
 40
0.4444444444444444
 40
0.4814814814814815
 40
0.4814814814814815
 40
0.4814814814814815
 40
0.4814814814814815
 40
0.5185185185185185
 40
0.5185185185185185
 40
0.5185185185185185
 40
0.5185185185185185
 40
0.5555555555555556
 40
0.5555555555555556
 40
0.5555555555555556
 40
0.5555555555555556
 40
0.5925925925925926
 40
0.5925925925925926
 40
0.5925925925925926
 40
0.5925925925925926
 40
0.6296296296296295
 40
0.6296296296296295
 40
0.6296296296296295
 40
0.6296296296296295
 40
0.6666666666666665
 40
0.6666666666666665
 40
0.6666666666666665
 40
0.6666666666666665
 40
0.7037037037037035
 40
0.7037037037037035
 40
0.7037037037037035
 40
0.7037037037037035
 40
0.7407407407407405
 40
0.7407407407407405
 40
0.7407407407407405
 40
0.7407407407407405
 40
0.7777777777777775
 40
0.7777777777777775
 40
0.7777777777777775
 40
0.7777777777777775
 40
0.8148148148148144
 40
0.8148148148148144
 40
0.8148148148148144
 40
0.8148148148148144
 40
0.8518518518518514
 40
0.8518518518518514
 40
0.8518518518518514
 40
0.8518518518518514
 40
0.8888888888888884
 40
0.8888888888888884
 40
0.8888888888888884
 40
0.8888888888888884
 40
0.9259259259259254
 40
0.9259259259259254
 40
0.9259259259259254
 40
0.9259259259259254
 40
0.9629629629629624
 40
0.9629629629629624
 40
0.9629629629629624
 40
0.9629629629629624
 40
1.0
 40
1.0
 40
1.0
 40
1.0
 10
-10.6996
 20
-14.37834
 30
0.0
 10
-10.6985
 20
-14.37599
 30
0.0
 10
-10.69708
 20
-14.37426
 30
0.0
 10
-10.69537
 20
-14.37314
 30
0.0
 10
-10.69537
 20
-14.37314
 30
0.0
 10
-10.69367
 20
-14.37203
 30
0.0
 10
-10.6916
 20
-14.37146
 30
0.0
 10
-10.6892
 20
-14.37146
 30
0.0
 10
-10.6892
 20
-14.37146
 30
0.0
 10
-10.6848
 20
-14.37146
 30
0.0
 10
-10.6817
 20
-14.37316
 30
0.0
 10
-10.6799
 20
-14.37656
 30
0.0
 10
-10.6799
 20
-14.37656
 30
0.0
 10
-10.67808
 20
-14.37996
 30
0.0
 10
-10.67718
 20
-14.38636
 30
0.0
 10
-10.67718
 20
-14.39578
 30
0.0
 10
-10.67718
 20
-14.39578
 30
0.0
 10
-10.67718
 20
-14.39578
 30
0.0
 10
-10.67718
 20
-14.42746
 30
0.0
 10
-10.67718
 20
-14.42746
 30
0.0
 10
-10.67718
 20
-14.42746
 30
0.0
 10
-10.67718
 20
-14.42746
 30
0.0
 10
-10.68538
 20
-14.42746
 30
0.0
 10
-10.68538
 20
-14.42746
 30
0.0
 10
-10.68538
 20
-14.42746
 30
0.0
 10
-10.68538
 20
-14.42746
 30
0.0
 10
-10.68538
 20
-14.39616
 30
0.0
 10
-10.68538
 20
-14.39616
 30
0.0
 10
-10.68538
 20
-14.39616
 30
0.0
 10
-10.68538
 20
-14.38844
 30
0.0
 10
-10.68582
 20
-14.38366
 30
0.0
 10
-10.68668
 20
-14.38178
 30
0.0
 10
-10.68668
 20
-14.38178
 30
0.0
 10
-10.68753
 20
-14.37991
 30
0.0
 10
-10.68912
 20
-14.37898
 30
0.0
 10
-10.6914
 20
-14.37898
 30
0.0
 10
-10.6914
 20
-14.37898
 30
0.0
 10
-10.694
 20
-14.37898
 30
0.0
 10
-10.69578
 20
-14.37998
 30
0.0
 10
-10.69675
 20
-14.38198
 30
0.0
 10
-10.69675
 20
-14.38198
 30
0.0
 10
-10.6977
 20
-14.38398
 30
0.0
 10
-10.69818
 20
-14.38871
 30
0.0
 10
-10.69818
 20
-14.39616
 30
0.0
 10
-10.69818
 20
-14.39616
 30
0.0
 10
-10.69818
 20
-14.39616
 30
0.0
 10
-10.69818
 20
-14.42746
 30
0.0
 10
-10.69818
 20
-14.42746
 30
0.0
 10
-10.69818
 20
-14.42746
 30
0.0
 10
-10.69818
 20
-14.42746
 30
0.0
 10
-10.70638
 20
-14.42746
 30
0.0
 10
-10.70638
 20
-14.42746
 30
0.0
 10
-10.70638
 20
-14.42746
 30
0.0
 10
-10.70638
 20
-14.42746
 30
0.0
 10
-10.70638
 20
-14.39616
 30
0.0
 10
-10.70638
 20
-14.39616
 30
0.0
 10
-10.70638
 20
-14.39616
 30
0.0
 10
-10.70638
 20
-14.38834
 30
0.0
 10
-10.70685
 20
-14.38353
 30
0.0
 10
-10.70778
 20
-14.38171
 30
0.0
 10
-10.70778
 20
-14.38171
 30
0.0
 10
-10.7087
 20
-14.37989
 30
0.0
 10
-10.71037
 20
-14.37898
 30
0.0
 10
-10.71278
 20
-14.37898
 30
0.0
 10
-10.71278
 20
-14.37898
 30
0.0
 10
-10.71517
 20
-14.37898
 30
0.0
 10
-10.71682
 20
-14.37998
 30
0.0
 10
-10.71773
 20
-14.38198
 30
0.0
 10
-10.71773
 20
-14.38198
 30
0.0
 10
-10.71867
 20
-14.38398
 30
0.0
 10
-10.71913
 20
-14.38871
 30
0.0
 10
-10.71913
 20
-14.39616
 30
0.0
 10
-10.71913
 20
-14.39616
 30
0.0
 10
-10.71913
 20
-14.39616
 30
0.0
 10
-10.71913
 20
-14.42746
 30
0.0
 10
-10.71913
 20
-14.42746
 30
0.0
 10
-10.71913
 20
-14.42746
 30
0.0
 10
-10.71913
 20
-14.42746
 30
0.0
 10
-10.72728
 20
-14.42746
 30
0.0
 10
-10.72728
 20
-14.42746
 30
0.0
 10
-10.72728
 20
-14.42746
 30
0.0
 10
-10.72728
 20
-14.42746
 30
0.0
 10
-10.72728
 20
-14.37278
 30
0.0
 10
-10.72728
 20
-14.37278
 30
0.0
 10
-10.72728
 20
-14.37278
 30
0.0
 10
-10.72728
 20
-14.37278
 30
0.0
 10
-10.71913
 20
-14.37278
 30
0.0
 10
-10.71913
 20
-14.37278
 30
0.0
 10
-10.71913
 20
-14.37278
 30
0.0
 10
-10.71913
 20
-14.37278
 30
0.0
 10
-10.71913
 20
-14.37746
 30
0.0
 10
-10.71913
 20
-14.37746
 30
0.0
 10
-10.71913
 20
-14.37746
 30
0.0
 10
-10.71807
 20
-14.37551
 30
0.0
 10
-10.71672
 20
-14.37403
 30
0.0
 10
-10.7151
 20
-14.37299
 30
0.0
 10
-10.7151
 20
-14.37299
 30
0.0
 10
-10.7135
 20
-14.37198
 30
0.0
 10
-10.71167
 20
-14.37146
 30
0.0
 10
-10.70962
 20
-14.37146
 30
0.0
 10
-10.70962
 20
-14.37146
 30
0.0
 10
-10.70713
 20
-14.37146
 30
0.0
 10
-10.70508
 20
-14.37203
 30
0.0
 10
-10.70343
 20
-14.37316
 30
0.0
 10
-10.70343
 20
-14.37316
 30
0.0
 10
-10.70178
 20
-14.37431
 30
0.0
 10
-10.70052
 20
-14.37603
 30
0.0
 10
-10.6996
 20
-14.37834
 30
0.0
  0
SPLINE
  5
8B
330
1F
100
AcDbEntity
  8
Layer 1
 62
   250
100
AcDbSpline
210
0.0
220
0.0
230
1.0
 70
    11
 71
     3
 72
    20
 73
    16
 74
     0
 42
0.0000000001
 43
0.0000000001
 40
0.0
 40
0.0
 40
0.0
 40
0.0
 40
0.25
 40
0.25
 40
0.25
 40
0.25
 40
0.5
 40
0.5
 40
0.5
 40
0.5
 40
0.75
 40
0.75
 40
0.75
 40
0.75
 40
1.0
 40
1.0
 40
1.0
 40
1.0
 10
-10.64852
 20
-14.41256
 30
0.0
 10
-10.64852
 20
-14.41256
 30
0.0
 10
-10.63622
 20
-14.41256
 30
0.0
 10
-10.63622
 20
-14.41256
 30
0.0
 10
-10.63622
 20
-14.41256
 30
0.0
 10
-10.63622
 20
-14.41256
 30
0.0
 10
-10.63622
 20
-14.42746
 30
0.0
 10
-10.63622
 20
-14.42746
 30
0.0
 10
-10.63622
 20
-14.42746
 30
0.0
 10
-10.63622
 20
-14.42746
 30
0.0
 10
-10.64852
 20
-14.42746
 30
0.0
 10
-10.64852
 20
-14.42746
 30
0.0
 10
-10.64852
 20
-14.42746
 30
0.0
 10
-10.64852
 20
-14.42746
 30
0.0
 10
-10.64852
 20
-14.41256
 30
0.0
 10
-10.64852
 20
-14.41256
 30
0.0
  0
SPLINE
  5
8C
330
1F
100
AcDbEntity
  8
Layer 1
 62
   250
100
AcDbSpline
210
0.0
220
0.0
230
1.0
 70
    11
 71
     3
 72
    52
 73
    48
 74
     0
 42
0.0000000001
 43
0.0000000001
 40
0.0
 40
0.0
 40
0.0
 40
0.0
 40
0.0833333333333333
 40
0.0833333333333333
 40
0.0833333333333333
 40
0.0833333333333333
 40
0.1666666666666667
 40
0.1666666666666667
 40
0.1666666666666667
 40
0.1666666666666667
 40
0.25
 40
0.25
 40
0.25
 40
0.25
 40
0.3333333333333333
 40
0.3333333333333333
 40
0.3333333333333333
 40
0.3333333333333333
 40
0.4166666666666666
 40
0.4166666666666666
 40
0.4166666666666666
 40
0.4166666666666666
 40
0.4999999999999999
 40
0.4999999999999999
 40
0.4999999999999999
 40
0.4999999999999999
 40
0.5833333333333333
 40
0.5833333333333333
 40
0.5833333333333333
 40
0.5833333333333333
 40
0.6666666666666666
 40
0.6666666666666666
 40
0.6666666666666666
 40
0.6666666666666666
 40
0.75
 40
0.75
 40
0.75
 40
0.75
 40
0.8333333333333334
 40
0.8333333333333334
 40
0.8333333333333334
 40
0.8333333333333334
 40
0.9166666666666667
 40
0.9166666666666667
 40
0.9166666666666667
 40
0.9166666666666667
 40
1.0
 40
1.0
 40
1.0
 40
1.0
 10
-10.581
 20
-14.40764
 30
0.0
 10
-10.581
 20
-14.41168
 30
0.0
 10
-10.58027
 20
-14.41471
 30
0.0
 10
-10.57878
 20
-14.41676
 30
0.0
 10
-10.57878
 20
-14.41676
 30
0.0
 10
-10.5773
 20
-14.41881
 30
0.0
 10
-10.57512
 20
-14.41984
 30
0.0
 10
-10.57222
 20
-14.41984
 30
0.0
 10
-10.57222
 20
-14.41984
 30
0.0
 10
-10.57222
 20
-14.41984
 30
0.0
 10
-10.56172
 20
-14.41984
 30
0.0
 10
-10.56172
 20
-14.41984
 30
0.0
 10
-10.56172
 20
-14.41984
 30
0.0
 10
-10.56172
 20
-14.41984
 30
0.0
 10
-10.56172
 20
-14.42746
 30
0.0
 10
-10.56172
 20
-14.42746
 30
0.0
 10
-10.56172
 20
-14.42746
 30
0.0
 10
-10.56172
 20
-14.42746
 30
0.0
 10
-10.57308
 20
-14.42746
 30
0.0
 10
-10.57308
 20
-14.42746
 30
0.0
 10
-10.57308
 20
-14.42746
 30
0.0
 10
-10.57847
 20
-14.42746
 30
0.0
 10
-10.58262
 20
-14.42573
 30
0.0
 10
-10.58557
 20
-14.42228
 30
0.0
 10
-10.58557
 20
-14.42228
 30
0.0
 10
-10.58852
 20
-14.41883
 30
0.0
 10
-10.58998
 20
-14.41394
 30
0.0
 10
-10.58998
 20
-14.40764
 30
0.0
 10
-10.58998
 20
-14.40764
 30
0.0
 10
-10.58998
 20
-14.40764
 30
0.0
 10
-10.58998
 20
-14.35798
 30
0.0
 10
-10.58998
 20
-14.35798
 30
0.0
 10
-10.58998
 20
-14.35798
 30
0.0
 10
-10.58998
 20
-14.35798
 30
0.0
 10
-10.60438
 20
-14.35798
 30
0.0
 10
-10.60438
 20
-14.35798
 30
0.0
 10
-10.60438
 20
-14.35798
 30
0.0
 10
-10.60438
 20
-14.35798
 30
0.0
 10
-10.60438
 20
-14.35094
 30
0.0
 10
-10.60438
 20
-14.35094
 30
0.0
 10
-10.60438
 20
-14.35094
 30
0.0
 10
-10.60438
 20
-14.35094
 30
0.0
 10
-10.581
 20
-14.35094
 30
0.0
 10
-10.581
 20
-14.35094
 30
0.0
 10
-10.581
 20
-14.35094
 30
0.0
 10
-10.581
 20
-14.35094
 30
0.0
 10
-10.581
 20
-14.40764
 30
0.0
 10
-10.581
 20
-14.40764
 30
0.0
  0
SPLINE
  5
8D
330
1F
100
AcDbEntity
  8
Layer 1
 62
   250
100
AcDbSpline
210
0.0
220
0.0
230
1.0
 70
    11
 71
     3
 72
    76
 73
    72
 74
     0
 42
0.0000000001
 43
0.0000000001
 40
0.0
 40
0.0
 40
0.0
 40
0.0
 40
0.0555555555555556
 40
0.0555555555555556
 40
0.0555555555555556
 40
0.0555555555555556
 40
0.1111111111111111
 40
0.1111111111111111
 40
0.1111111111111111
 40
0.1111111111111111
 40
0.1666666666666667
 40
0.1666666666666667
 40
0.1666666666666667
 40
0.1666666666666667
 40
0.2222222222222222
 40
0.2222222222222222
 40
0.2222222222222222
 40
0.2222222222222222
 40
0.2777777777777778
 40
0.2777777777777778
 40
0.2777777777777778
 40
0.2777777777777778
 40
0.3333333333333334
 40
0.3333333333333334
 40
0.3333333333333334
 40
0.3333333333333334
 40
0.388888888888889
 40
0.388888888888889
 40
0.388888888888889
 40
0.388888888888889
 40
0.4444444444444445
 40
0.4444444444444445
 40
0.4444444444444445
 40
0.4444444444444445
 40
0.5000000000000001
 40
0.5000000000000001
 40
0.5000000000000001
 40
0.5000000000000001
 40
0.5555555555555557
 40
0.5555555555555557
 40
0.5555555555555557
 40
0.5555555555555557
 40
0.6111111111111113
 40
0.6111111111111113
 40
0.6111111111111113
 40
0.6111111111111113
 40
0.6666666666666669
 40
0.6666666666666669
 40
0.6666666666666669
 40
0.6666666666666669
 40
0.7222222222222224
 40
0.7222222222222224
 40
0.7222222222222224
 40
0.7222222222222224
 40
0.777777777777778
 40
0.777777777777778
 40
0.777777777777778
 40
0.777777777777778
 40
0.8333333333333336
 40
0.8333333333333336
 40
0.8333333333333336
 40
0.8333333333333336
 40
0.8888888888888892
 40
0.8888888888888892
 40
0.8888888888888892
 40
0.8888888888888892
 40
0.9444444444444448
 40
0.9444444444444448
 40
0.9444444444444448
 40
0.9444444444444448
 40
1.0
 40
1.0
 40
1.0
 40
1.0
 10
-10.52202
 20
-14.35724
 30
0.0
 10
-10.52202
 20
-14.35724
 30
0.0
 10
-10.52202
 20
-14.37278
 30
0.0
 10
-10.52202
 20
-14.37278
 30
0.0
 10
-10.52202
 20
-14.37278
 30
0.0
 10
-10.52202
 20
-14.37278
 30
0.0
 10
-10.5016
 20
-14.37278
 30
0.0
 10
-10.5016
 20
-14.37278
 30
0.0
 10
-10.5016
 20
-14.37278
 30
0.0
 10
-10.5016
 20
-14.37278
 30
0.0
 10
-10.5016
 20
-14.37976
 30
0.0
 10
-10.5016
 20
-14.37976
 30
0.0
 10
-10.5016
 20
-14.37976
 30
0.0
 10
-10.5016
 20
-14.37976
 30
0.0
 10
-10.52202
 20
-14.37976
 30
0.0
 10
-10.52202
 20
-14.37976
 30
0.0
 10
-10.52202
 20
-14.37976
 30
0.0
 10
-10.52202
 20
-14.37976
 30
0.0
 10
-10.52202
 20
-14.40944
 30
0.0
 10
-10.52202
 20
-14.40944
 30
0.0
 10
-10.52202
 20
-14.40944
 30
0.0
 10
-10.52202
 20
-14.41348
 30
0.0
 10
-10.52125
 20
-14.41629
 30
0.0
 10
-10.51972
 20
-14.41788
 30
0.0
 10
-10.51972
 20
-14.41788
 30
0.0
 10
-10.51818
 20
-14.41948
 30
0.0
 10
-10.51552
 20
-14.42028
 30
0.0
 10
-10.51172
 20
-14.42028
 30
0.0
 10
-10.51172
 20
-14.42028
 30
0.0
 10
-10.51172
 20
-14.42028
 30
0.0
 10
-10.5016
 20
-14.42028
 30
0.0
 10
-10.5016
 20
-14.42028
 30
0.0
 10
-10.5016
 20
-14.42028
 30
0.0
 10
-10.5016
 20
-14.42028
 30
0.0
 10
-10.5016
 20
-14.42746
 30
0.0
 10
-10.5016
 20
-14.42746
 30
0.0
 10
-10.5016
 20
-14.42746
 30
0.0
 10
-10.5016
 20
-14.42746
 30
0.0
 10
-10.51258
 20
-14.42746
 30
0.0
 10
-10.51258
 20
-14.42746
 30
0.0
 10
-10.51258
 20
-14.42746
 30
0.0
 10
-10.51933
 20
-14.42746
 30
0.0
 10
-10.52408
 20
-14.42611
 30
0.0
 10
-10.52685
 20
-14.42341
 30
0.0
 10
-10.52685
 20
-14.42341
 30
0.0
 10
-10.52962
 20
-14.42071
 30
0.0
 10
-10.531
 20
-14.41604
 30
0.0
 10
-10.531
 20
-14.40944
 30
0.0
 10
-10.531
 20
-14.40944
 30
0.0
 10
-10.531
 20
-14.40944
 30
0.0
 10
-10.531
 20
-14.37976
 30
0.0
 10
-10.531
 20
-14.37976
 30
0.0
 10
-10.531
 20
-14.37976
 30
0.0
 10
-10.531
 20
-14.37976
 30
0.0
 10
-10.5456
 20
-14.37976
 30
0.0
 10
-10.5456
 20
-14.37976
 30
0.0
 10
-10.5456
 20
-14.37976
 30
0.0
 10
-10.5456
 20
-14.37976
 30
0.0
 10
-10.5456
 20
-14.37278
 30
0.0
 10
-10.5456
 20
-14.37278
 30
0.0
 10
-10.5456
 20
-14.37278
 30
0.0
 10
-10.5456
 20
-14.37278
 30
0.0
 10
-10.531
 20
-14.37278
 30
0.0
 10
-10.531
 20
-14.37278
 30
0.0
 10
-10.531
 20
-14.37278
 30
0.0
 10
-10.531
 20
-14.37278
 30
0.0
 10
-10.531
 20
-14.35724
 30
0.0
 10
-10.531
 20
-14.35724
 30
0.0
 10
-10.531
 20
-14.35724
 30
0.0
 10
-10.531
 20
-14.35724
 30
0.0
 10
-10.52202
 20
-14.35724
 30
0.0
 10
-10.52202
 20
-14.35724
 30
0.0
  0
SPLINE
  5
8E
330
1F
100
AcDbEntity
  8
Layer 1
 62
   250
100
AcDbSpline
210
0.0
220
0.0
230
1.0
 70
    11
 71
     3
 72
    20
 73
    16
 74
     0
 42
0.0000000001
 43
0.0000000001
 40
0.0
 40
0.0
 40
0.0
 40
0.0
 40
0.25
 40
0.25
 40
0.25
 40
0.25
 40
0.5
 40
0.5
 40
0.5
 40
0.5
 40
0.75
 40
0.75
 40
0.75
 40
0.75
 40
1.0
 40
1.0
 40
1.0
 40
1.0
 10
-10.44838
 20
-14.35456
 30
0.0
 10
-10.44838
 20
-14.35456
 30
0.0
 10
-10.4391
 20
-14.35456
 30
0.0
 10
-10.4391
 20
-14.35456
 30
0.0
 10
-10.4391
 20
-14.35456
 30
0.0
 10
-10.4391
 20
-14.35456
 30
0.0
 10
-10.47748
 20
-14.43674
 30
0.0
 10
-10.47748
 20
-14.43674
 30
0.0
 10
-10.47748
 20
-14.43674
 30
0.0
 10
-10.47748
 20
-14.43674
 30
0.0
 10
-10.48682
 20
-14.43674
 30
0.0
 10
-10.48682
 20
-14.43674
 30
0.0
 10
-10.48682
 20
-14.43674
 30
0.0
 10
-10.48682
 20
-14.43674
 30
0.0
 10
-10.44838
 20
-14.35456
 30
0.0
 10
-10.44838
 20
-14.35456
 30
0.0
  0
SPLINE
  5
8F
330
1F
100
AcDbEntity
  8
Layer 1
 62
   250
100
AcDbSpline
210
0.0
220
0.0
230
1.0
 70
    11
 71
     3
 72
    68
 73
    64
 74
     0
 42
0.0000000001
 43
0.0000000001
 40
0.0
 40
0.0
 40
0.0
 40
0.0
 40
0.0625
 40
0.0625
 40
0.0625
 40
0.0625
 40
0.125
 40
0.125
 40
0.125
 40
0.125
 40
0.1875
 40
0.1875
 40
0.1875
 40
0.1875
 40
0.25
 40
0.25
 40
0.25
 40
0.25
 40
0.3125
 40
0.3125
 40
0.3125
 40
0.3125
 40
0.375
 40
0.375
 40
0.375
 40
0.375
 40
0.4375
 40
0.4375
 40
0.4375
 40
0.4375
 40
0.5
 40
0.5
 40
0.5
 40
0.5
 40
0.5625
 40
0.5625
 40
0.5625
 40
0.5625
 40
0.625
 40
0.625
 40
0.625
 40
0.625
 40
0.6875
 40
0.6875
 40
0.6875
 40
0.6875
 40
0.75
 40
0.75
 40
0.75
 40
0.75
 40
0.8125
 40
0.8125
 40
0.8125
 40
0.8125
 40
0.875
 40
0.875
 40
0.875
 40
0.875
 40
0.9375
 40
0.9375
 40
0.9375
 40
0.9375
 40
1.0
 40
1.0
 40
1.0
 40
1.0
 10
-10.3922
 20
-14.39304
 30
0.0
 10
-10.39077
 20
-14.39333
 30
0.0
 10
-10.38952
 20
-14.39401
 30
0.0
 10
-10.38847
 20
-14.39508
 30
0.0
 10
-10.38847
 20
-14.39508
 30
0.0
 10
-10.3874
 20
-14.39613
 30
0.0
 10
-10.38612
 20
-14.39819
 30
0.0
 10
-10.38458
 20
-14.40124
 30
0.0
 10
-10.38458
 20
-14.40124
 30
0.0
 10
-10.38458
 20
-14.40124
 30
0.0
 10
-10.37138
 20
-14.42746
 30
0.0
 10
-10.37138
 20
-14.42746
 30
0.0
 10
-10.37138
 20
-14.42746
 30
0.0
 10
-10.37138
 20
-14.42746
 30
0.0
 10
-10.38722
 20
-14.42746
 30
0.0
 10
-10.38722
 20
-14.42746
 30
0.0
 10
-10.38722
 20
-14.42746
 30
0.0
 10
-10.38722
 20
-14.42746
 30
0.0
 10
-10.396
 20
-14.40906
 30
0.0
 10
-10.396
 20
-14.40906
 30
0.0
 10
-10.396
 20
-14.40906
 30
0.0
 10
-10.39627
 20
-14.40854
 30
0.0
 10
-10.39662
 20
-14.40783
 30
0.0
 10
-10.39703
 20
-14.40691
 30
0.0
 10
-10.39703
 20
-14.40691
 30
0.0
 10
-10.3996
 20
-14.40141
 30
0.0
 10
-10.40263
 20
-14.39866
 30
0.0
 10
-10.40612
 20
-14.39866
 30
0.0
 10
-10.40612
 20
-14.39866
 30
0.0
 10
-10.40612
 20
-14.39866
 30
0.0
 10
-10.4107
 20
-14.39866
 30
0.0
 10
-10.4107
 20
-14.39866
 30
0.0
 10
-10.4107
 20
-14.39866
 30
0.0
 10
-10.4107
 20
-14.39866
 30
0.0
 10
-10.4107
 20
-14.42746
 30
0.0
 10
-10.4107
 20
-14.42746
 30
0.0
 10
-10.4107
 20
-14.42746
 30
0.0
 10
-10.4107
 20
-14.42746
 30
0.0
 10
-10.4251
 20
-14.42746
 30
0.0
 10
-10.4251
 20
-14.42746
 30
0.0
 10
-10.4251
 20
-14.42746
 30
0.0
 10
-10.4251
 20
-14.42746
 30
0.0
 10
-10.4251
 20
-14.35456
 30
0.0
 10
-10.4251
 20
-14.35456
 30
0.0
 10
-10.4251
 20
-14.35456
 30
0.0
 10
-10.4251
 20
-14.35456
 30
0.0
 10
-10.4043
 20
-14.35456
 30
0.0
 10
-10.4043
 20
-14.35456
 30
0.0
 10
-10.4043
 20
-14.35456
 30
0.0
 10
-10.39493
 20
-14.35456
 30
0.0
 10
-10.3882
 20
-14.35623
 30
0.0
 10
-10.38412
 20
-14.35954
 30
0.0
 10
-10.38412
 20
-14.35954
 30
0.0
 10
-10.38003
 20
-14.36286
 30
0.0
 10
-10.37798
 20
-14.36826
 30
0.0
 10
-10.37798
 20
-14.37576
 30
0.0
 10
-10.37798
 20
-14.37576
 30
0.0
 10
-10.37798
 20
-14.38076
 30
0.0
 10
-10.3792
 20
-14.38476
 30
0.0
 10
-10.38165
 20
-14.38773
 30
0.0
 10
-10.38165
 20
-14.38773
 30
0.0
 10
-10.38408
 20
-14.39068
 30
0.0
 10
-10.3876
 20
-14.39246
 30
0.0
 10
-10.3922
 20
-14.39304
 30
0.0
  0
SPLINE
  5
90
330
1F
100
AcDbEntity
  8
Layer 1
 62
   250
100
AcDbSpline
210
0.0
220
0.0
230
1.0
 70
    11
 71
     3
 72
    32
 73
    28
 74
     0
 42
0.0000000001
 43
0.0000000001
 40
0.0
 40
0.0
 40
0.0
 40
0.0
 40
0.1428571428571428
 40
0.1428571428571428
 40
0.1428571428571428
 40
0.1428571428571428
 40
0.2857142857142857
 40
0.2857142857142857
 40
0.2857142857142857
 40
0.2857142857142857
 40
0.4285714285714285
 40
0.4285714285714285
 40
0.4285714285714285
 40
0.4285714285714285
 40
0.5714285714285714
 40
0.5714285714285714
 40
0.5714285714285714
 40
0.5714285714285714
 40
0.7142857142857142
 40
0.7142857142857142
 40
0.7142857142857142
 40
0.7142857142857142
 40
0.857142857142857
 40
0.857142857142857
 40
0.857142857142857
 40
0.857142857142857
 40
1.0
 40
1.0
 40
1.0
 40
1.0
 10
-10.4107
 20
-14.36668
 30
0.0
 10
-10.4107
 20
-14.36668
 30
0.0
 10
-10.4107
 20
-14.38654
 30
0.0
 10
-10.4107
 20
-14.38654
 30
0.0
 10
-10.4107
 20
-14.38654
 30
0.0
 10
-10.4107
 20
-14.38654
 30
0.0
 10
-10.40392
 20
-14.38654
 30
0.0
 10
-10.40392
 20
-14.38654
 30
0.0
 10
-10.40392
 20
-14.38654
 30
0.0
 10
-10.39998
 20
-14.38654
 30
0.0
 10
-10.39715
 20
-14.38578
 30
0.0
 10
-10.39545
 20
-14.38423
 30
0.0
 10
-10.39545
 20
-14.38423
 30
0.0
 10
-10.39373
 20
-14.38268
 30
0.0
 10
-10.39288
 20
-14.38013
 30
0.0
 10
-10.39288
 20
-14.37659
 30
0.0
 10
-10.39288
 20
-14.37659
 30
0.0
 10
-10.39288
 20
-14.37304
 30
0.0
 10
-10.39373
 20
-14.37049
 30
0.0
 10
-10.39542
 20
-14.36898
 30
0.0
 10
-10.39542
 20
-14.36898
 30
0.0
 10
-10.39712
 20
-14.36744
 30
0.0
 10
-10.39995
 20
-14.36668
 30
0.0
 10
-10.40392
 20
-14.36668
 30
0.0
 10
-10.40392
 20
-14.36668
 30
0.0
 10
-10.40392
 20
-14.36668
 30
0.0
 10
-10.4107
 20
-14.36668
 30
0.0
 10
-10.4107
 20
-14.36668
 30
0.0
  0
SPLINE
  5
91
330
1F
100
AcDbEntity
  8
Layer 1
 62
   250
100
AcDbSpline
210
0.0
220
0.0
230
1.0
 70
    11
 71
     3
 72
    44
 73
    40
 74
     0
 42
0.0000000001
 43
0.0000000001
 40
0.0
 40
0.0
 40
0.0
 40
0.0
 40
0.1
 40
0.1
 40
0.1
 40
0.1
 40
0.2
 40
0.2
 40
0.2
 40
0.2
 40
0.3
 40
0.3
 40
0.3
 40
0.3
 40
0.4
 40
0.4
 40
0.4
 40
0.4
 40
0.5
 40
0.5
 40
0.5
 40
0.5
 40
0.6
 40
0.6
 40
0.6
 40
0.6
 40
0.7
 40
0.7
 40
0.7
 40
0.7
 40
0.7999999999999999
 40
0.7999999999999999
 40
0.7999999999999999
 40
0.7999999999999999
 40
0.8999999999999999
 40
0.8999999999999999
 40
0.8999999999999999
 40
0.8999999999999999
 40
1.0
 40
1.0
 40
1.0
 40
1.0
 10
-10.3171
 20
-14.36726
 30
0.0
 10
-10.3171
 20
-14.36726
 30
0.0
 10
-10.34812
 20
-14.36726
 30
0.0
 10
-10.34812
 20
-14.36726
 30
0.0
 10
-10.34812
 20
-14.36726
 30
0.0
 10
-10.34812
 20
-14.36726
 30
0.0
 10
-10.34812
 20
-14.38298
 30
0.0
 10
-10.34812
 20
-14.38298
 30
0.0
 10
-10.34812
 20
-14.38298
 30
0.0
 10
-10.34812
 20
-14.38298
 30
0.0
 10
-10.31988
 20
-14.38298
 30
0.0
 10
-10.31988
 20
-14.38298
 30
0.0
 10
-10.31988
 20
-14.38298
 30
0.0
 10
-10.31988
 20
-14.38298
 30
0.0
 10
-10.31988
 20
-14.39568
 30
0.0
 10
-10.31988
 20
-14.39568
 30
0.0
 10
-10.31988
 20
-14.39568
 30
0.0
 10
-10.31988
 20
-14.39568
 30
0.0
 10
-10.34812
 20
-14.39568
 30
0.0
 10
-10.34812
 20
-14.39568
 30
0.0
 10
-10.34812
 20
-14.39568
 30
0.0
 10
-10.34812
 20
-14.39568
 30
0.0
 10
-10.34812
 20
-14.42746
 30
0.0
 10
-10.34812
 20
-14.42746
 30
0.0
 10
-10.34812
 20
-14.42746
 30
0.0
 10
-10.34812
 20
-14.42746
 30
0.0
 10
-10.36252
 20
-14.42746
 30
0.0
 10
-10.36252
 20
-14.42746
 30
0.0
 10
-10.36252
 20
-14.42746
 30
0.0
 10
-10.36252
 20
-14.42746
 30
0.0
 10
-10.36252
 20
-14.35456
 30
0.0
 10
-10.36252
 20
-14.35456
 30
0.0
 10
-10.36252
 20
-14.35456
 30
0.0
 10
-10.36252
 20
-14.35456
 30
0.0
 10
-10.3171
 20
-14.35456
 30
0.0
 10
-10.3171
 20
-14.35456
 30
0.0
 10
-10.3171
 20
-14.35456
 30
0.0
 10
-10.3171
 20
-14.35456
 30
0.0
 10
-10.3171
 20
-14.36726
 30
0.0
 10
-10.3171
 20
-14.36726
 30
0.0
  0
SPLINE
  5
92
330
1F
100
AcDbEntity
  8
Layer 1
 62
   250
100
AcDbSpline
210
0.0
220
0.0
230
1.0
 70
    11
 71
     3
 72
    36
 73
    32
 74
     0
 42
0.0000000001
 43
0.0000000001
 40
0.0
 40
0.0
 40
0.0
 40
0.0
 40
0.125
 40
0.125
 40
0.125
 40
0.125
 40
0.25
 40
0.25
 40
0.25
 40
0.25
 40
0.375
 40
0.375
 40
0.375
 40
0.375
 40
0.5
 40
0.5
 40
0.5
 40
0.5
 40
0.625
 40
0.625
 40
0.625
 40
0.625
 40
0.75
 40
0.75
 40
0.75
 40
0.75
 40
0.875
 40
0.875
 40
0.875
 40
0.875
 40
1.0
 40
1.0
 40
1.0
 40
1.0
 10
-10.28112
 20
-14.39493
 30
0.0
 10
-10.28435
 20
-14.39493
 30
0.0
 10
-10.28695
 20
-14.39594
 30
0.0
 10
-10.28893
 20
-14.39798
 30
0.0
 10
-10.28893
 20
-14.39798
 30
0.0
 10
-10.29092
 20
-14.40001
 30
0.0
 10
-10.29192
 20
-14.40271
 30
0.0
 10
-10.29192
 20
-14.40608
 30
0.0
 10
-10.29192
 20
-14.40608
 30
0.0
 10
-10.29192
 20
-14.40943
 30
0.0
 10
-10.29092
 20
-14.41213
 30
0.0
 10
-10.28893
 20
-14.41418
 30
0.0
 10
-10.28893
 20
-14.41418
 30
0.0
 10
-10.28695
 20
-14.41623
 30
0.0
 10
-10.28435
 20
-14.41726
 30
0.0
 10
-10.28112
 20
-14.41726
 30
0.0
 10
-10.28112
 20
-14.41726
 30
0.0
 10
-10.2779
 20
-14.41726
 30
0.0
 10
-10.27528
 20
-14.41621
 30
0.0
 10
-10.27328
 20
-14.41413
 30
0.0
 10
-10.27328
 20
-14.41413
 30
0.0
 10
-10.27128
 20
-14.41204
 30
0.0
 10
-10.27028
 20
-14.40936
 30
0.0
 10
-10.27028
 20
-14.40608
 30
0.0
 10
-10.27028
 20
-14.40608
 30
0.0
 10
-10.27028
 20
-14.40271
 30
0.0
 10
-10.27128
 20
-14.40001
 30
0.0
 10
-10.27327
 20
-14.39798
 30
0.0
 10
-10.27327
 20
-14.39798
 30
0.0
 10
-10.27525
 20
-14.39594
 30
0.0
 10
-10.27787
 20
-14.39493
 30
0.0
 10
-10.28112
 20
-14.39493
 30
0.0
  0
SPLINE
  5
93
330
1F
100
AcDbEntity
  8
Layer 1
 62
   250
100
AcDbSpline
210
0.0
220
0.0
230
1.0
 70
    11
 71
     3
 72
    68
 73
    64
 74
     0
 42
0.0000000001
 43
0.0000000001
 40
0.0
 40
0.0
 40
0.0
 40
0.0
 40
0.0625
 40
0.0625
 40
0.0625
 40
0.0625
 40
0.125
 40
0.125
 40
0.125
 40
0.125
 40
0.1875
 40
0.1875
 40
0.1875
 40
0.1875
 40
0.25
 40
0.25
 40
0.25
 40
0.25
 40
0.3125
 40
0.3125
 40
0.3125
 40
0.3125
 40
0.375
 40
0.375
 40
0.375
 40
0.375
 40
0.4375
 40
0.4375
 40
0.4375
 40
0.4375
 40
0.5
 40
0.5
 40
0.5
 40
0.5
 40
0.5625
 40
0.5625
 40
0.5625
 40
0.5625
 40
0.625
 40
0.625
 40
0.625
 40
0.625
 40
0.6875
 40
0.6875
 40
0.6875
 40
0.6875
 40
0.75
 40
0.75
 40
0.75
 40
0.75
 40
0.8125
 40
0.8125
 40
0.8125
 40
0.8125
 40
0.875
 40
0.875
 40
0.875
 40
0.875
 40
0.9375
 40
0.9375
 40
0.9375
 40
0.9375
 40
1.0
 40
1.0
 40
1.0
 40
1.0
 10
-10.29182
 20
-14.38883
 30
0.0
 10
-10.2955
 20
-14.38756
 30
0.0
 10
-10.2983
 20
-14.38556
 30
0.0
 10
-10.30022
 20
-14.38284
 30
0.0
 10
-10.30022
 20
-14.38284
 30
0.0
 10
-10.30213
 20
-14.38013
 30
0.0
 10
-10.3031
 20
-14.37681
 30
0.0
 10
-10.3031
 20
-14.37286
 30
0.0
 10
-10.3031
 20
-14.37286
 30
0.0
 10
-10.3031
 20
-14.36681
 30
0.0
 10
-10.30113
 20
-14.36203
 30
0.0
 10
-10.29718
 20
-14.35851
 30
0.0
 10
-10.29718
 20
-14.35851
 30
0.0
 10
-10.29325
 20
-14.35499
 30
0.0
 10
-10.2879
 20
-14.35324
 30
0.0
 10
-10.28112
 20
-14.35324
 30
0.0
 10
-10.28112
 20
-14.35324
 30
0.0
 10
-10.27432
 20
-14.35324
 30
0.0
 10
-10.26895
 20
-14.35499
 30
0.0
 10
-10.26502
 20
-14.35851
 30
0.0
 10
-10.26502
 20
-14.35851
 30
0.0
 10
-10.26107
 20
-14.36203
 30
0.0
 10
-10.2591
 20
-14.36681
 30
0.0
 10
-10.2591
 20
-14.37286
 30
0.0
 10
-10.2591
 20
-14.37286
 30
0.0
 10
-10.2591
 20
-14.37678
 30
0.0
 10
-10.26005
 20
-14.38008
 30
0.0
 10
-10.26193
 20
-14.38279
 30
0.0
 10
-10.26193
 20
-14.38279
 30
0.0
 10
-10.26382
 20
-14.38551
 30
0.0
 10
-10.26657
 20
-14.38753
 30
0.0
 10
-10.27018
 20
-14.38883
 30
0.0
 10
-10.27018
 20
-14.38883
 30
0.0
 10
-10.26615
 20
-14.39006
 30
0.0
 10
-10.263
 20
-14.39228
 30
0.0
 10
-10.26072
 20
-14.39548
 30
0.0
 10
-10.26072
 20
-14.39548
 30
0.0
 10
-10.25843
 20
-14.39866
 30
0.0
 10
-10.2573
 20
-14.40249
 30
0.0
 10
-10.2573
 20
-14.40694
 30
0.0
 10
-10.2573
 20
-14.40694
 30
0.0
 10
-10.2573
 20
-14.41394
 30
0.0
 10
-10.25937
 20
-14.41936
 30
0.0
 10
-10.2635
 20
-14.42316
 30
0.0
 10
-10.2635
 20
-14.42316
 30
0.0
 10
-10.26763
 20
-14.42698
 30
0.0
 10
-10.27352
 20
-14.42888
 30
0.0
 10
-10.28112
 20
-14.42888
 30
0.0
 10
-10.28112
 20
-14.42888
 30
0.0
 10
-10.2887
 20
-14.42888
 30
0.0
 10
-10.29457
 20
-14.42698
 30
0.0
 10
-10.2987
 20
-14.42316
 30
0.0
 10
-10.2987
 20
-14.42316
 30
0.0
 10
-10.30283
 20
-14.41936
 30
0.0
 10
-10.3049
 20
-14.41394
 30
0.0
 10
-10.3049
 20
-14.40694
 30
0.0
 10
-10.3049
 20
-14.40694
 30
0.0
 10
-10.3049
 20
-14.40246
 30
0.0
 10
-10.30375
 20
-14.39861
 30
0.0
 10
-10.30143
 20
-14.39543
 30
0.0
 10
-10.30143
 20
-14.39543
 30
0.0
 10
-10.29912
 20
-14.39223
 30
0.0
 10
-10.29592
 20
-14.39003
 30
0.0
 10
-10.29182
 20
-14.38883
 30
0.0
  0
SPLINE
  5
94
330
1F
100
AcDbEntity
  8
Layer 1
 62
   250
100
AcDbSpline
210
0.0
220
0.0
230
1.0
 70
    11
 71
     3
 72
    36
 73
    32
 74
     0
 42
0.0000000001
 43
0.0000000001
 40
0.0
 40
0.0
 40
0.0
 40
0.0
 40
0.125
 40
0.125
 40
0.125
 40
0.125
 40
0.25
 40
0.25
 40
0.25
 40
0.25
 40
0.375
 40
0.375
 40
0.375
 40
0.375
 40
0.5
 40
0.5
 40
0.5
 40
0.5
 40
0.625
 40
0.625
 40
0.625
 40
0.625
 40
0.75
 40
0.75
 40
0.75
 40
0.75
 40
0.875
 40
0.875
 40
0.875
 40
0.875
 40
1.0
 40
1.0
 40
1.0
 40
1.0
 10
-10.2903
 20
-14.37404
 30
0.0
 10
-10.2903
 20
-14.37689
 30
0.0
 10
-10.28948
 20
-14.37918
 30
0.0
 10
-10.28783
 20
-14.38084
 30
0.0
 10
-10.28783
 20
-14.38084
 30
0.0
 10
-10.2862
 20
-14.38253
 30
0.0
 10
-10.28395
 20
-14.38336
 30
0.0
 10
-10.28112
 20
-14.38336
 30
0.0
 10
-10.28112
 20
-14.38336
 30
0.0
 10
-10.27827
 20
-14.38336
 30
0.0
 10
-10.276
 20
-14.38253
 30
0.0
 10
-10.27437
 20
-14.38084
 30
0.0
 10
-10.27437
 20
-14.38084
 30
0.0
 10
-10.27272
 20
-14.37918
 30
0.0
 10
-10.2719
 20
-14.37689
 30
0.0
 10
-10.2719
 20
-14.37404
 30
0.0
 10
-10.2719
 20
-14.37404
 30
0.0
 10
-10.2719
 20
-14.37121
 30
0.0
 10
-10.27272
 20
-14.36898
 30
0.0
 10
-10.27437
 20
-14.36733
 30
0.0
 10
-10.27437
 20
-14.36733
 30
0.0
 10
-10.276
 20
-14.36568
 30
0.0
 10
-10.27827
 20
-14.36486
 30
0.0
 10
-10.28112
 20
-14.36486
 30
0.0
 10
-10.28112
 20
-14.36486
 30
0.0
 10
-10.28392
 20
-14.36486
 30
0.0
 10
-10.28615
 20
-14.36569
 30
0.0
 10
-10.28782
 20
-14.36734
 30
0.0
 10
-10.28782
 20
-14.36734
 30
0.0
 10
-10.28947
 20
-14.36901
 30
0.0
 10
-10.2903
 20
-14.37124
 30
0.0
 10
-10.2903
 20
-14.37404
 30
0.0
  0
SPLINE
  5
95
330
1F
100
AcDbEntity
  8
Layer 1
 62
   250
100
AcDbSpline
210
0.0
220
0.0
230
1.0
 70
    11
 71
     3
 72
    36
 73
    32
 74
     0
 42
0.0000000001
 43
0.0000000001
 40
0.0
 40
0.0
 40
0.0
 40
0.0
 40
0.125
 40
0.125
 40
0.125
 40
0.125
 40
0.25
 40
0.25
 40
0.25
 40
0.25
 40
0.375
 40
0.375
 40
0.375
 40
0.375
 40
0.5
 40
0.5
 40
0.5
 40
0.5
 40
0.625
 40
0.625
 40
0.625
 40
0.625
 40
0.75
 40
0.75
 40
0.75
 40
0.75
 40
0.875
 40
0.875
 40
0.875
 40
0.875
 40
1.0
 40
1.0
 40
1.0
 40
1.0
 10
-10.22698
 20
-14.39108
 30
0.0
 10
-10.22698
 20
-14.38936
 30
0.0
 10
-10.2264
 20
-14.38791
 30
0.0
 10
-10.22522
 20
-14.38674
 30
0.0
 10
-10.22522
 20
-14.38674
 30
0.0
 10
-10.22405
 20
-14.38556
 30
0.0
 10
-10.22262
 20
-14.38498
 30
0.0
 10
-10.22092
 20
-14.38498
 30
0.0
 10
-10.22092
 20
-14.38498
 30
0.0
 10
-10.2192
 20
-14.38498
 30
0.0
 10
-10.21775
 20
-14.38556
 30
0.0
 10
-10.21658
 20
-14.38674
 30
0.0
 10
-10.21658
 20
-14.38674
 30
0.0
 10
-10.2154
 20
-14.38791
 30
0.0
 10
-10.21482
 20
-14.38936
 30
0.0
 10
-10.21482
 20
-14.39108
 30
0.0
 10
-10.21482
 20
-14.39108
 30
0.0
 10
-10.21482
 20
-14.39278
 30
0.0
 10
-10.2154
 20
-14.39421
 30
0.0
 10
-10.21658
 20
-14.39538
 30
0.0
 10
-10.21658
 20
-14.39538
 30
0.0
 10
-10.21775
 20
-14.39656
 30
0.0
 10
-10.2192
 20
-14.39714
 30
0.0
 10
-10.22092
 20
-14.39714
 30
0.0
 10
-10.22092
 20
-14.39714
 30
0.0
 10
-10.22262
 20
-14.39714
 30
0.0
 10
-10.22405
 20
-14.39656
 30
0.0
 10
-10.22522
 20
-14.39541
 30
0.0
 10
-10.22522
 20
-14.39541
 30
0.0
 10
-10.2264
 20
-14.39426
 30
0.0
 10
-10.22698
 20
-14.39281
 30
0.0
 10
-10.22698
 20
-14.39108
 30
0.0
  0
SPLINE
  5
96
330
1F
100
AcDbEntity
  8
Layer 1
 62
   250
100
AcDbSpline
210
0.0
220
0.0
230
1.0
 70
    11
 71
     3
 72
    36
 73
    32
 74
     0
 42
0.0000000001
 43
0.0000000001
 40
0.0
 40
0.0
 40
0.0
 40
0.0
 40
0.125
 40
0.125
 40
0.125
 40
0.125
 40
0.25
 40
0.25
 40
0.25
 40
0.25
 40
0.375
 40
0.375
 40
0.375
 40
0.375
 40
0.5
 40
0.5
 40
0.5
 40
0.5
 40
0.625
 40
0.625
 40
0.625
 40
0.625
 40
0.75
 40
0.75
 40
0.75
 40
0.75
 40
0.875
 40
0.875
 40
0.875
 40
0.875
 40
1.0
 40
1.0
 40
1.0
 40
1.0
 10
-10.22092
 20
-14.36544
 30
0.0
 10
-10.22425
 20
-14.36544
 30
0.0
 10
-10.22667
 20
-14.36748
 30
0.0
 10
-10.2282
 20
-14.37154
 30
0.0
 10
-10.2282
 20
-14.37154
 30
0.0
 10
-10.22973
 20
-14.37563
 30
0.0
 10
-10.2305
 20
-14.38213
 30
0.0
 10
-10.2305
 20
-14.39108
 30
0.0
 10
-10.2305
 20
-14.39108
 30
0.0
 10
-10.2305
 20
-14.40001
 30
0.0
 10
-10.22973
 20
-14.40649
 30
0.0
 10
-10.2282
 20
-14.41058
 30
0.0
 10
-10.2282
 20
-14.41058
 30
0.0
 10
-10.22667
 20
-14.41464
 30
0.0
 10
-10.22425
 20
-14.41668
 30
0.0
 10
-10.22092
 20
-14.41668
 30
0.0
 10
-10.22092
 20
-14.41668
 30
0.0
 10
-10.21757
 20
-14.41668
 30
0.0
 10
-10.21513
 20
-14.41464
 30
0.0
 10
-10.2136
 20
-14.41058
 30
0.0
 10
-10.2136
 20
-14.41058
 30
0.0
 10
-10.21207
 20
-14.40649
 30
0.0
 10
-10.2113
 20
-14.40001
 30
0.0
 10
-10.2113
 20
-14.39108
 30
0.0
 10
-10.2113
 20
-14.39108
 30
0.0
 10
-10.2113
 20
-14.38213
 30
0.0
 10
-10.21207
 20
-14.37563
 30
0.0
 10
-10.2136
 20
-14.37154
 30
0.0
 10
-10.2136
 20
-14.37154
 30
0.0
 10
-10.21513
 20
-14.36748
 30
0.0
 10
-10.21757
 20
-14.36544
 30
0.0
 10
-10.22092
 20
-14.36544
 30
0.0
  0
SPLINE
  5
97
330
1F
100
AcDbEntity
  8
Layer 1
 62
   250
100
AcDbSpline
210
0.0
220
0.0
230
1.0
 70
    11
 71
     3
 72
    36
 73
    32
 74
     0
 42
0.0000000001
 43
0.0000000001
 40
0.0
 40
0.0
 40
0.0
 40
0.0
 40
0.125
 40
0.125
 40
0.125
 40
0.125
 40
0.25
 40
0.25
 40
0.25
 40
0.25
 40
0.375
 40
0.375
 40
0.375
 40
0.375
 40
0.5
 40
0.5
 40
0.5
 40
0.5
 40
0.625
 40
0.625
 40
0.625
 40
0.625
 40
0.75
 40
0.75
 40
0.75
 40
0.75
 40
0.875
 40
0.875
 40
0.875
 40
0.875
 40
1.0
 40
1.0
 40
1.0
 40
1.0
 10
-10.245
 20
-14.39108
 30
0.0
 10
-10.245
 20
-14.37846
 30
0.0
 10
-10.243
 20
-14.36899
 30
0.0
 10
-10.239
 20
-14.36269
 30
0.0
 10
-10.239
 20
-14.36269
 30
0.0
 10
-10.23498
 20
-14.35639
 30
0.0
 10
-10.22897
 20
-14.35324
 30
0.0
 10
-10.22092
 20
-14.35324
 30
0.0
 10
-10.22092
 20
-14.35324
 30
0.0
 10
-10.21285
 20
-14.35324
 30
0.0
 10
-10.20682
 20
-14.35638
 30
0.0
 10
-10.2028
 20
-14.36266
 30
0.0
 10
-10.2028
 20
-14.36266
 30
0.0
 10
-10.1988
 20
-14.36894
 30
0.0
 10
-10.1968
 20
-14.37843
 30
0.0
 10
-10.1968
 20
-14.39108
 30
0.0
 10
-10.1968
 20
-14.39108
 30
0.0
 10
-10.1968
 20
-14.40371
 30
0.0
 10
-10.1988
 20
-14.41318
 30
0.0
 10
-10.2028
 20
-14.41946
 30
0.0
 10
-10.2028
 20
-14.41946
 30
0.0
 10
-10.20682
 20
-14.42574
 30
0.0
 10
-10.21285
 20
-14.42888
 30
0.0
 10
-10.22092
 20
-14.42888
 30
0.0
 10
-10.22092
 20
-14.42888
 30
0.0
 10
-10.22897
 20
-14.42888
 30
0.0
 10
-10.23498
 20
-14.42573
 30
0.0
 10
-10.239
 20
-14.41943
 30
0.0
 10
-10.239
 20
-14.41943
 30
0.0
 10
-10.243
 20
-14.41313
 30
0.0
 10
-10.245
 20
-14.40368
 30
0.0
 10
-10.245
 20
-14.39108
 30
0.0
  0
SPLINE
  5
98
330
1F
100
AcDbEntity
  8
Layer 1
 62
   250
100
AcDbSpline
210
0.0
220
0.0
230
1.0
 70
    11
 71
     3
 72
    92
 73
    88
 74
     0
 42
0.0000000001
 43
0.0000000001
 40
0.0
 40
0.0
 40
0.0
 40
0.0
 40
0.0454545454545455
 40
0.0454545454545455
 40
0.0454545454545455
 40
0.0454545454545455
 40
0.0909090909090909
 40
0.0909090909090909
 40
0.0909090909090909
 40
0.0909090909090909
 40
0.1363636363636364
 40
0.1363636363636364
 40
0.1363636363636364
 40
0.1363636363636364
 40
0.1818181818181818
 40
0.1818181818181818
 40
0.1818181818181818
 40
0.1818181818181818
 40
0.2272727272727273
 40
0.2272727272727273
 40
0.2272727272727273
 40
0.2272727272727273
 40
0.2727272727272728
 40
0.2727272727272728
 40
0.2727272727272728
 40
0.2727272727272728
 40
0.3181818181818182
 40
0.3181818181818182
 40
0.3181818181818182
 40
0.3181818181818182
 40
0.3636363636363637
 40
0.3636363636363637
 40
0.3636363636363637
 40
0.3636363636363637
 40
0.4090909090909092
 40
0.4090909090909092
 40
0.4090909090909092
 40
0.4090909090909092
 40
0.4545454545454546
 40
0.4545454545454546
 40
0.4545454545454546
 40
0.4545454545454546
 40
0.5000000000000001
 40
0.5000000000000001
 40
0.5000000000000001
 40
0.5000000000000001
 40
0.5454545454545455
 40
0.5454545454545455
 40
0.5454545454545455
 40
0.5454545454545455
 40
0.5909090909090909
 40
0.5909090909090909
 40
0.5909090909090909
 40
0.5909090909090909
 40
0.6363636363636364
 40
0.6363636363636364
 40
0.6363636363636364
 40
0.6363636363636364
 40
0.6818181818181818
 40
0.6818181818181818
 40
0.6818181818181818
 40
0.6818181818181818
 40
0.7272727272727272
 40
0.7272727272727272
 40
0.7272727272727272
 40
0.7272727272727272
 40
0.7727272727272726
 40
0.7727272727272726
 40
0.7727272727272726
 40
0.7727272727272726
 40
0.818181818181818
 40
0.818181818181818
 40
0.818181818181818
 40
0.818181818181818
 40
0.8636363636363634
 40
0.8636363636363634
 40
0.8636363636363634
 40
0.8636363636363634
 40
0.9090909090909088
 40
0.9090909090909088
 40
0.9090909090909088
 40
0.9090909090909088
 40
0.9545454545454543
 40
0.9545454545454543
 40
0.9545454545454543
 40
0.9545454545454543
 40
1.0
 40
1.0
 40
1.0
 40
1.0
 10
-10.18138
 20
-14.35456
 30
0.0
 10
-10.18138
 20
-14.35456
 30
0.0
 10
-10.14178
 20
-14.35456
 30
0.0
 10
-10.14178
 20
-14.35456
 30
0.0
 10
-10.14178
 20
-14.35456
 30
0.0
 10
-10.14178
 20
-14.35456
 30
0.0
 10
-10.14178
 20
-14.36726
 30
0.0
 10
-10.14178
 20
-14.36726
 30
0.0
 10
-10.14178
 20
-14.36726
 30
0.0
 10
-10.14178
 20
-14.36726
 30
0.0
 10
-10.16972
 20
-14.36726
 30
0.0
 10
-10.16972
 20
-14.36726
 30
0.0
 10
-10.16972
 20
-14.36726
 30
0.0
 10
-10.16972
 20
-14.36726
 30
0.0
 10
-10.16972
 20
-14.38078
 30
0.0
 10
-10.16972
 20
-14.38078
 30
0.0
 10
-10.16972
 20
-14.38078
 30
0.0
 10
-10.16855
 20
-14.38033
 30
0.0
 10
-10.16728
 20
-14.37999
 30
0.0
 10
-10.16595
 20
-14.37978
 30
0.0
 10
-10.16595
 20
-14.37978
 30
0.0
 10
-10.16462
 20
-14.37956
 30
0.0
 10
-10.1632
 20
-14.37946
 30
0.0
 10
-10.1617
 20
-14.37946
 30
0.0
 10
-10.1617
 20
-14.37946
 30
0.0
 10
-10.15448
 20
-14.37946
 30
0.0
 10
-10.14862
 20
-14.38174
 30
0.0
 10
-10.14412
 20
-14.38629
 30
0.0
 10
-10.14412
 20
-14.38629
 30
0.0
 10
-10.13963
 20
-14.39086
 30
0.0
 10
-10.13738
 20
-14.39678
 30
0.0
 10
-10.13738
 20
-14.40408
 30
0.0
 10
-10.13738
 20
-14.40408
 30
0.0
 10
-10.13738
 20
-14.41173
 30
0.0
 10
-10.13982
 20
-14.41776
 30
0.0
 10
-10.14468
 20
-14.42221
 30
0.0
 10
-10.14468
 20
-14.42221
 30
0.0
 10
-10.14955
 20
-14.42666
 30
0.0
 10
-10.15618
 20
-14.42888
 30
0.0
 10
-10.16458
 20
-14.42888
 30
0.0
 10
-10.16458
 20
-14.42888
 30
0.0
 10
-10.1677
 20
-14.42888
 30
0.0
 10
-10.17087
 20
-14.42861
 30
0.0
 10
-10.17405
 20
-14.42809
 30
0.0
 10
-10.17405
 20
-14.42809
 30
0.0
 10
-10.17723
 20
-14.42758
 30
0.0
 10
-10.1805
 20
-14.42679
 30
0.0
 10
-10.18382
 20
-14.42574
 30
0.0
 10
-10.18382
 20
-14.42574
 30
0.0
 10
-10.18382
 20
-14.42574
 30
0.0
 10
-10.18382
 20
-14.41276
 30
0.0
 10
-10.18382
 20
-14.41276
 30
0.0
 10
-10.18382
 20
-14.41276
 30
0.0
 10
-10.18112
 20
-14.41409
 30
0.0
 10
-10.17833
 20
-14.41509
 30
0.0
 10
-10.1755
 20
-14.41576
 30
0.0
 10
-10.1755
 20
-14.41576
 30
0.0
 10
-10.17265
 20
-14.41643
 30
0.0
 10
-10.16978
 20
-14.41676
 30
0.0
 10
-10.16692
 20
-14.41676
 30
0.0
 10
-10.16692
 20
-14.41676
 30
0.0
 10
-10.16185
 20
-14.41676
 30
0.0
 10
-10.15798
 20
-14.41568
 30
0.0
 10
-10.15535
 20
-14.41351
 30
0.0
 10
-10.15535
 20
-14.41351
 30
0.0
 10
-10.15272
 20
-14.41134
 30
0.0
 10
-10.1514
 20
-14.40821
 30
0.0
 10
-10.1514
 20
-14.40408
 30
0.0
 10
-10.1514
 20
-14.40408
 30
0.0
 10
-10.1514
 20
-14.40026
 30
0.0
 10
-10.15272
 20
-14.39721
 30
0.0
 10
-10.15533
 20
-14.39491
 30
0.0
 10
-10.15533
 20
-14.39491
 30
0.0
 10
-10.15795
 20
-14.39263
 30
0.0
 10
-10.16145
 20
-14.39148
 30
0.0
 10
-10.1658
 20
-14.39148
 30
0.0
 10
-10.1658
 20
-14.39148
 30
0.0
 10
-10.16838
 20
-14.39148
 30
0.0
 10
-10.17095
 20
-14.39179
 30
0.0
 10
-10.17355
 20
-14.39243
 30
0.0
 10
-10.17355
 20
-14.39243
 30
0.0
 10
-10.17613
 20
-14.39306
 30
0.0
 10
-10.17875
 20
-14.39403
 30
0.0
 10
-10.18138
 20
-14.39529
 30
0.0
 10
-10.18138
 20
-14.39529
 30
0.0
 10
-10.18138
 20
-14.39529
 30
0.0
 10
-10.18138
 20
-14.35456
 30
0.0
 10
-10.18138
 20
-14.35456
 30
0.0
  0
ENDSEC
  0
SECTION
  2
OBJECTS
  0
DICTIONARY
  5
C
330
0
100
AcDbDictionary
281
     1
  3
ACAD_GROUP
350
D
  3
ACAD_LAYOUT
350
1A
  3
ACAD_MLEADERSTYLE
350
9A
  3
ACAD_MLINESTYLE
350
17
  3
ACAD_PLOTSETTINGS
350
19
  3
ACAD_PLOTSTYLENAME
350
E
  3
ACAD_SCALELIST
350
3B
  3
ACAD_TABLESTYLE
350
99
  3
ACAD_VISUALSTYLE
350
2A
  0
DICTIONARY
  5
D
102
{ACAD_REACTORS
330
C
102
}
330
C
100
AcDbDictionary
281
     1
  0
DICTIONARY
  5
1A
102
{ACAD_REACTORS
330
C
102
}
330
C
100
AcDbDictionary
281
     1
  3
Layout1
350
1E
  3
Layout2
350
26
  3
Model
350
22
  0
DICTIONARY
  5
9A
102
{ACAD_REACTORS
330
C
102
}
330
C
100
AcDbDictionary
281
     1
  0
DICTIONARY
  5
17
102
{ACAD_REACTORS
330
C
102
}
330
C
100
AcDbDictionary
281
     1
  3
Standard
350
18
  0
DICTIONARY
  5
19
102
{ACAD_REACTORS
330
C
102
}
330
C
100
AcDbDictionary
281
     1
  0
ACDBDICTIONARYWDFLT
  5
E
102
{ACAD_REACTORS
330
C
102
}
330
C
100
AcDbDictionary
281
     1
  3
Normal
350
F
100
AcDbDictionaryWithDefault
340
F
  0
DICTIONARY
  5
3B
102
{ACAD_REACTORS
330
C
102
}
330
C
100
AcDbDictionary
281
     1
  3
A0
350
3C
  3
A1
350
3D
  3
A2
350
3E
  3
A3
350
3F
  3
A4
350
40
  3
A5
350
41
  3
A6
350
42
  3
A7
350
43
  3
A8
350
44
  3
A9
350
45
  3
B0
350
46
  3
B1
350
47
  3
B2
350
48
  3
B3
350
49
  3
B4
350
4A
  3
B5
350
4B
  3
B6
350
4C
  3
B7
350
4D
  3
B8
350
4E
  3
B9
350
4F
  3
C0
350
50
  3
C1
350
51
  3
C2
350
52
  3
C3
350
53
  3
C4
350
54
  3
C5
350
55
  3
C6
350
56
  3
C7
350
57
  3
C8
350
58
  3
C9
350
59
  3
D0
350
5A
  3
D1
350
5B
  3
D2
350
5C
  0
DICTIONARY
  5
99
102
{ACAD_REACTORS
330
C
102
}
330
C
100
AcDbDictionary
281
     1
  0
DICTIONARY
  5
2A
102
{ACAD_REACTORS
330
C
102
}
330
C
100
AcDbDictionary
281
     1
  3
2dWireframe
350
2F
  3
3D Hidden
350
31
  3
3dWireframe
350
30
  3
Basic
350
32
  3
Brighten
350
36
  3
ColorChange
350
3A
  3
Conceptual
350
34
  3
Dim
350
35
  3
Facepattern
350
39
  3
Flat
350
2B
  3
FlatWithEdges
350
2C
  3
Gouraud
350
2D
  3
GouraudWithEdges
350
2E
  3
Linepattern
350
38
  3
Realistic
350
33
  3
Thicken
350
37
  0
LAYOUT
  5
1E
102
{ACAD_REACTORS
330
1A
102
}
330
1A
100
AcDbPlotSettings
  1

  2
none_device
  4

  6

 40
0.0
 41
0.0
 42
0.0
 43
0.0
 44
0.0
 45
0.0
 46
0.0
 47
0.0
 48
0.0
 49
0.0
140
0.0
141
0.0
142
1.0
143
1.0
 70
   688
 72
     0
 73
     0
 74
     5
  7

 75
    16
 76
     0
 77
     2
 78
   300
147
1.0
148
0.0
149
0.0
100
AcDbLayout
  1
Layout1
 70
     1
 71
     1
 10
0.0
 20
0.0
 11
12.0
 21
9.0
 12
0.0
 22
0.0
 32
0.0
 14
1.000000000000000E+20
 24
1.000000000000000E+20
 34
1.000000000000000E+20
 15
-1.000000000000000E+20
 25
-1.000000000000000E+20
 35
-1.000000000000000E+20
146
0.0
 13
0.0
 23
0.0
 33
0.0
 16
1.0
 26
0.0
 36
0.0
 17
0.0
 27
1.0
 37
0.0
 76
     0
330
1B
  0
LAYOUT
  5
26
102
{ACAD_REACTORS
330
1A
102
}
330
1A
100
AcDbPlotSettings
  1

  2
none_device
  4

  6

 40
0.0
 41
0.0
 42
0.0
 43
0.0
 44
0.0
 45
0.0
 46
0.0
 47
0.0
 48
0.0
 49
0.0
140
0.0
141
0.0
142
1.0
143
1.0
 70
   688
 72
     0
 73
     0
 74
     5
  7

 75
    16
 76
     0
 77
     2
 78
   300
147
1.0
148
0.0
149
0.0
100
AcDbLayout
  1
Layout2
 70
     1
 71
     2
 10
0.0
 20
0.0
 11
0.0
 21
0.0
 12
0.0
 22
0.0
 32
0.0
 14
0.0
 24
0.0
 34
0.0
 15
0.0
 25
0.0
 35
0.0
146
0.0
 13
0.0
 23
0.0
 33
0.0
 16
1.0
 26
0.0
 36
0.0
 17
0.0
 27
1.0
 37
0.0
 76
     0
330
23
  0
LAYOUT
  5
22
102
{ACAD_REACTORS
330
1A
102
}
330
1A
100
AcDbPlotSettings
  1

  2
none_device
  4

  6

 40
0.0
 41
0.0
 42
0.0
 43
0.0
 44
0.0
 45
0.0
 46
0.0
 47
0.0
 48
0.0
 49
0.0
140
0.0
141
0.0
142
1.0
143
1.0
 70
  1712
 72
     0
 73
     0
 74
     0
  7

 75
     0
 76
     0
 77
     2
 78
   300
147
1.0
148
0.0
149
0.0
100
AcDbLayout
  1
Model
 70
     1
 71
     0
 10
0.0
 20
0.0
 11
12.0
 21
9.0
 12
0.0
 22
0.0
 32
0.0
 14
-11.55
 24
-15.85
 34
0.0
 15
-9.45
 25
-13.85
 35
0.0
146
0.0
 13
0.0
 23
0.0
 33
0.0
 16
1.0
 26
0.0
 36
0.0
 17
0.0
 27
1.0
 37
0.0
 76
     0
330
1F
331
29
  0
MLINESTYLE
  5
18
102
{ACAD_REACTORS
330
17
102
}
330
17
100
AcDbMlineStyle
  2
Standard
 70
     0
  3

 62
   256
 51
90.0
 52
90.0
 71
     2
 49
0.5
 62
   256
  6
BYLAYER
 49
-0.5
 62
   256
  6
BYLAYER
  0
ACDBPLACEHOLDER
  5
F
102
{ACAD_REACTORS
330
E
102
}
330
E
  0
SCALE
  5
3C
102
{ACAD_REACTORS
330
3B
102
}
330
3B
100
AcDbScale
 70
     0
300
1:1
140
1.0
141
1.0
290
     1
  0
SCALE
  5
3D
102
{ACAD_REACTORS
330
3B
102
}
330
3B
100
AcDbScale
 70
     0
300
1:2
140
1.0
141
2.0
290
     0
  0
SCALE
  5
3E
102
{ACAD_REACTORS
330
3B
102
}
330
3B
100
AcDbScale
 70
     0
300
1:4
140
1.0
141
4.0
290
     0
  0
SCALE
  5
3F
102
{ACAD_REACTORS
330
3B
102
}
330
3B
100
AcDbScale
 70
     0
300
1:5
140
1.0
141
5.0
290
     0
  0
SCALE
  5
40
102
{ACAD_REACTORS
330
3B
102
}
330
3B
100
AcDbScale
 70
     0
300
1:8
140
1.0
141
8.0
290
     0
  0
SCALE
  5
41
102
{ACAD_REACTORS
330
3B
102
}
330
3B
100
AcDbScale
 70
     0
300
1:10
140
1.0
141
10.0
290
     0
  0
SCALE
  5
42
102
{ACAD_REACTORS
330
3B
102
}
330
3B
100
AcDbScale
 70
     0
300
1:16
140
1.0
141
16.0
290
     0
  0
SCALE
  5
43
102
{ACAD_REACTORS
330
3B
102
}
330
3B
100
AcDbScale
 70
     0
300
1:20
140
1.0
141
20.0
290
     0
  0
SCALE
  5
44
102
{ACAD_REACTORS
330
3B
102
}
330
3B
100
AcDbScale
 70
     0
300
1:30
140
1.0
141
30.0
290
     0
  0
SCALE
  5
45
102
{ACAD_REACTORS
330
3B
102
}
330
3B
100
AcDbScale
 70
     0
300
1:40
140
1.0
141
40.0
290
     0
  0
SCALE
  5
46
102
{ACAD_REACTORS
330
3B
102
}
330
3B
100
AcDbScale
 70
     0
300
1:50
140
1.0
141
50.0
290
     0
  0
SCALE
  5
47
102
{ACAD_REACTORS
330
3B
102
}
330
3B
100
AcDbScale
 70
     0
300
1:100
140
1.0
141
100.0
290
     0
  0
SCALE
  5
48
102
{ACAD_REACTORS
330
3B
102
}
330
3B
100
AcDbScale
 70
     0
300
2:1
140
2.0
141
1.0
290
     0
  0
SCALE
  5
49
102
{ACAD_REACTORS
330
3B
102
}
330
3B
100
AcDbScale
 70
     0
300
4:1
140
4.0
141
1.0
290
     0
  0
SCALE
  5
4A
102
{ACAD_REACTORS
330
3B
102
}
330
3B
100
AcDbScale
 70
     0
300
8:1
140
8.0
141
1.0
290
     0
  0
SCALE
  5
4B
102
{ACAD_REACTORS
330
3B
102
}
330
3B
100
AcDbScale
 70
     0
300
10:1
140
10.0
141
1.0
290
     0
  0
SCALE
  5
4C
102
{ACAD_REACTORS
330
3B
102
}
330
3B
100
AcDbScale
 70
     0
300
100:1
140
100.0
141
1.0
290
     0
  0
SCALE
  5
4D
102
{ACAD_REACTORS
330
3B
102
}
330
3B
100
AcDbScale
 70
     0
300
1/128" = 1'-0"
140
0.0078125
141
12.0
290
     0
  0
SCALE
  5
4E
102
{ACAD_REACTORS
330
3B
102
}
330
3B
100
AcDbScale
 70
     0
300
1/64" = 1'-0"
140
0.015625
141
12.0
290
     0
  0
SCALE
  5
4F
102
{ACAD_REACTORS
330
3B
102
}
330
3B
100
AcDbScale
 70
     0
300
1/32" = 1'-0"
140
0.03125
141
12.0
290
     0
  0
SCALE
  5
50
102
{ACAD_REACTORS
330
3B
102
}
330
3B
100
AcDbScale
 70
     0
300
1/16" = 1'-0"
140
0.0625
141
12.0
290
     0
  0
SCALE
  5
51
102
{ACAD_REACTORS
330
3B
102
}
330
3B
100
AcDbScale
 70
     0
300
3/32" = 1'-0"
140
0.09375
141
12.0
290
     0
  0
SCALE
  5
52
102
{ACAD_REACTORS
330
3B
102
}
330
3B
100
AcDbScale
 70
     0
300
1/8" = 1'-0"
140
0.125
141
12.0
290
     0
  0
SCALE
  5
53
102
{ACAD_REACTORS
330
3B
102
}
330
3B
100
AcDbScale
 70
     0
300
3/16" = 1'-0"
140
0.1875
141
12.0
290
     0
  0
SCALE
  5
54
102
{ACAD_REACTORS
330
3B
102
}
330
3B
100
AcDbScale
 70
     0
300
1/4" = 1'-0"
140
0.25
141
12.0
290
     0
  0
SCALE
  5
55
102
{ACAD_REACTORS
330
3B
102
}
330
3B
100
AcDbScale
 70
     0
300
3/8" = 1'-0"
140
0.375
141
12.0
290
     0
  0
SCALE
  5
56
102
{ACAD_REACTORS
330
3B
102
}
330
3B
100
AcDbScale
 70
     0
300
1/2" = 1'-0"
140
0.5
141
12.0
290
     0
  0
SCALE
  5
57
102
{ACAD_REACTORS
330
3B
102
}
330
3B
100
AcDbScale
 70
     0
300
3/4" = 1'-0"
140
0.75
141
12.0
290
     0
  0
SCALE
  5
58
102
{ACAD_REACTORS
330
3B
102
}
330
3B
100
AcDbScale
 70
     0
300
1" = 1'-0"
140
1.0
141
12.0
290
     0
  0
SCALE
  5
59
102
{ACAD_REACTORS
330
3B
102
}
330
3B
100
AcDbScale
 70
     0
300
1-1/2" = 1'-0"
140
1.5
141
12.0
290
     0
  0
SCALE
  5
5A
102
{ACAD_REACTORS
330
3B
102
}
330
3B
100
AcDbScale
 70
     0
300
3" = 1'-0"
140
3.0
141
12.0
290
     0
  0
SCALE
  5
5B
102
{ACAD_REACTORS
330
3B
102
}
330
3B
100
AcDbScale
 70
     0
300
6" = 1'-0"
140
6.0
141
12.0
290
     0
  0
SCALE
  5
5C
102
{ACAD_REACTORS
330
3B
102
}
330
3B
100
AcDbScale
 70
     0
300
1'-0" = 1'-0"
140
12.0
141
12.0
290
     0
  0
VISUALSTYLE
  5
2F
102
{ACAD_REACTORS
330
2A
102
}
330
2A
100
AcDbVisualStyle
  2
2dWireframe
 70
     4
 71
     0
 72
     2
 73
     0
 90
        0
 40
-0.6
 41
-30.0
 62
     5
 63
     7
421
 16777215
 74
     1
 91
        4
 64
     7
 65
   257
 75
     1
175
     1
 42
1.0
 92
        0
 66
   257
 43
1.0
 76
     1
 77
     6
 78
     2
 67
     7
 79
     5
170
     0
171
     0
290
     0
174
     0
 93
        1
 44
0.0
173
     0
291
     0
 45
0.0
  0
VISUALSTYLE
  5
31
102
{ACAD_REACTORS
330
2A
102
}
330
2A
100
AcDbVisualStyle
  2
3D Hidden
 70
     6
 71
     1
 72
     2
 73
     2
 90
        0
 40
-0.6
 41
-30.0
 62
     5
 63
     7
421
 16777215
 74
     2
 91
        2
 64
     7
 65
   257
 75
     2
175
     1
 42
40.0
 92
        0
 66
   257
 43
1.0
 76
     1
 77
     6
 78
     2
 67
     7
 79
     3
170
     0
171
     0
290
     0
174
     0
 93
        1
 44
0.0
173
     0
291
     0
 45
0.0
  0
VISUALSTYLE
  5
30
102
{ACAD_REACTORS
330
2A
102
}
330
2A
100
AcDbVisualStyle
  2
3dWireframe
 70
     5
 71
     0
 72
     2
 73
     0
 90
        0
 40
-0.6
 41
-30.0
 62
     5
 63
     7
421
 16777215
 74
     1
 91
        4
 64
     7
 65
   257
 75
     1
175
     1
 42
1.0
 92
        0
 66
   257
 43
1.0
 76
     1
 77
     6
 78
     2
 67
     7
 79
     5
170
     0
171
     0
290
     0
174
     0
 93
        1
 44
0.0
173
     0
291
     0
 45
0.0
  0
VISUALSTYLE
  5
32
102
{ACAD_REACTORS
330
2A
102
}
330
2A
100
AcDbVisualStyle
  2
Basic
 70
     7
 71
     1
 72
     0
 73
     1
 90
        0
 40
-0.6
 41
-30.0
 62
     5
 63
     7
421
 16777215
 74
     0
 91
        4
 64
     7
 65
   257
 75
     1
175
     1
 42
1.0
 92
        8
 66
     7
 43
1.0
 76
     1
 77
     6
 78
     2
 67
     7
 79
     5
170
     0
171
     0
290
     0
174
     0
 93
        1
 44
0.0
173
     0
291
     1
 45
0.0
  0
VISUALSTYLE
  5
36
102
{ACAD_REACTORS
330
2A
102
}
330
2A
100
AcDbVisualStyle
  2
Brighten
 70
    12
 71
     2
 72
     2
 73
     0
 90
        0
 40
-0.6
 41
-30.0
 62
     5
 63
     7
421
 16777215
 74
     1
 91
        4
 64
     7
 65
   257
 75
     1
175
     1
 42
1.0
 92
        8
 66
     7
 43
1.0
 76
     1
 77
     6
 78
     2
 67
     7
 79
     5
170
     0
171
     0
290
     0
174
     0
 93
        1
 44
50.0
173
     0
291
     1
 45
0.0
  0
VISUALSTYLE
  5
3A
102
{ACAD_REACTORS
330
2A
102
}
330
2A
100
AcDbVisualStyle
  2
ColorChange
 70
    16
 71
     2
 72
     2
 73
     3
 90
        0
 40
-0.6
 41
-30.0
 62
     5
 63
     8
421
  8421504
 74
     1
 91
        4
 64
     7
 65
   257
 75
     1
175
     1
 42
1.0
 92
        8
 66
     8
424
  8421504
 43
1.0
 76
     1
 77
     6
 78
     2
 67
     7
 79
     5
170
     0
171
     0
290
     0
174
     0
 93
        1
 44
0.0
173
     0
291
     1
 45
0.0
  0
VISUALSTYLE
  5
34
102
{ACAD_REACTORS
330
2A
102
}
330
2A
100
AcDbVisualStyle
  2
Conceptual
 70
     9
 71
     3
 72
     2
 73
     0
 90
        0
 40
-0.6
 41
-30.0
 62
     5
 63
     7
421
 16777215
 74
     2
 91
        2
 64
     7
 65
   257
 75
     1
175
     1
 42
40.0
 92
        8
 66
     7
 43
1.0
 76
     1
 77
     6
 78
     2
 67
     7
 79
     3
170
     0
171
     0
290
     0
174
     0
 93
        1
 44
0.0
173
     0
291
     0
 45
0.0
  0
VISUALSTYLE
  5
35
102
{ACAD_REACTORS
330
2A
102
}
330
2A
100
AcDbVisualStyle
  2
Dim
 70
    11
 71
     2
 72
     2
 73
     0
 90
        0
 40
-0.6
 41
-30.0
 62
     5
 63
     7
421
 16777215
 74
     1
 91
        4
 64
     7
 65
   257
 75
     1
175
     1
 42
1.0
 92
        8
 66
     7
 43
1.0
 76
     1
 77
     6
 78
     2
 67
     7
 79
     5
170
     0
171
     0
290
     0
174
     0
 93
        1
 44
-50.0
173
     0
291
     1
 45
0.0
  0
VISUALSTYLE
  5
39
102
{ACAD_REACTORS
330
2A
102
}
330
2A
100
AcDbVisualStyle
  2
Facepattern
 70
    15
 71
     2
 72
     2
 73
     0
 90
        0
 40
-0.6
 41
-30.0
 62
     5
 63
     7
421
 16777215
 74
     1
 91
        4
 64
     7
 65
   257
 75
     1
175
     1
 42
1.0
 92
        8
 66
     7
 43
1.0
 76
     1
 77
     6
 78
     2
 67
     7
 79
     5
170
     0
171
     0
290
     0
174
     0
 93
        1
 44
0.0
173
     0
291
     1
 45
0.0
  0
VISUALSTYLE
  5
2B
102
{ACAD_REACTORS
330
2A
102
}
330
2A
100
AcDbVisualStyle
  2
Flat
 70
     0
 71
     2
 72
     1
 73
     1
 90
        2
 40
-0.6
 41
30.0
 62
     5
 63
     7
421
 16777215
 74
     0
 91
        4
 64
     7
 65
   257
 75
     1
175
     1
 42
1.0
 92
        8
 66
     7
 43
1.0
 76
     1
 77
     6
 78
     2
 67
     7
 79
     5
170
     0
171
     0
290
     0
174
     0
 93
       13
 44
0.0
173
     0
291
     1
 45
0.0
  0
VISUALSTYLE
  5
2C
102
{ACAD_REACTORS
330
2A
102
}
330
2A
100
AcDbVisualStyle
  2
FlatWithEdges
 70
     1
 71
     2
 72
     1
 73
     1
 90
        2
 40
-0.6
 41
30.0
 62
     5
 63
     7
421
 16777215
 74
     1
 91
        4
 64
     7
 65
   257
 75
     1
175
     1
 42
1.0
 92
        0
 66
   257
 43
1.0
 76
     1
 77
     6
 78
     2
 67
     7
 79
     5
170
     0
171
     0
290
     0
174
     0
 93
       13
 44
0.0
173
     0
291
     1
 45
0.0
  0
VISUALSTYLE
  5
2D
102
{ACAD_REACTORS
330
2A
102
}
330
2A
100
AcDbVisualStyle
  2
Gouraud
 70
     2
 71
     2
 72
     2
 73
     1
 90
        2
 40
-0.6
 41
30.0
 62
     5
 63
     7
421
 16777215
 74
     0
 91
        4
 64
     7
 65
   257
 75
     1
175
     1
 42
1.0
 92
        0
 66
     7
 43
1.0
 76
     1
 77
     6
 78
     2
 67
     7
 79
     5
170
     0
171
     0
290
     0
174
     0
 93
       13
 44
0.0
173
     0
291
     1
 45
0.0
  0
VISUALSTYLE
  5
2E
102
{ACAD_REACTORS
330
2A
102
}
330
2A
100
AcDbVisualStyle
  2
GouraudWithEdges
 70
     3
 71
     2
 72
     2
 73
     1
 90
        2
 40
-0.6
 41
30.0
 62
     5
 63
     7
421
 16777215
 74
     1
 91
        4
 64
     7
 65
   257
 75
     1
175
     1
 42
1.0
 92
        0
 66
   257
 43
1.0
 76
     1
 77
     6
 78
     2
 67
     7
 79
     5
170
     0
171
     0
290
     0
174
     0
 93
       13
 44
0.0
173
     0
291
     1
 45
0.0
  0
VISUALSTYLE
  5
38
102
{ACAD_REACTORS
330
2A
102
}
330
2A
100
AcDbVisualStyle
  2
Linepattern
 70
    14
 71
     2
 72
     2
 73
     0
 90
        0
 40
-0.6
 41
-30.0
 62
     5
 63
     7
421
 16777215
 74
     1
 91
        4
 64
     7
 65
   257
 75
     7
175
     7
 42
1.0
 92
        8
 66
     7
 43
1.0
 76
     1
 77
     6
 78
     2
 67
     7
 79
     5
170
     0
171
     0
290
     0
174
     0
 93
        1
 44
0.0
173
     0
291
     1
 45
0.0
  0
VISUALSTYLE
  5
33
102
{ACAD_REACTORS
330
2A
102
}
330
2A
100
AcDbVisualStyle
  2
Realistic
 70
     8
 71
     2
 72
     2
 73
     0
 90
        0
 40
-0.6
 41
-30.0
 62
     5
 63
     7
421
 16777215
 74
     1
 91
        0
 64
     7
 65
   257
 75
     1
175
     1
 42
1.0
 92
        8
 66
     8
424
  7895160
 43
1.0
 76
     1
 77
     6
 78
     2
 67
     7
 79
     5
170
     0
171
     0
290
     0
174
     0
 93
       13
 44
0.0
173
     0
291
     0
 45
0.0
  0
VISUALSTYLE
  5
37
102
{ACAD_REACTORS
330
2A
102
}
330
2A
100
AcDbVisualStyle
  2
Thicken
 70
    13
 71
     2
 72
     2
 73
     0
 90
        0
 40
-0.6
 41
-30.0
 62
     5
 63
     7
421
 16777215
 74
     1
 91
        4
 64
     7
 65
   257
 75
     1
175
     1
 42
1.0
 92
       12
 66
     7
 43
1.0
 76
     1
 77
     6
 78
     2
 67
     7
 79
     5
170
     0
171
     0
290
     0
174
     0
 93
        1
 44
0.0
173
     0
291
     1
 45
0.0
  0
ENDSEC
  0
EOF
