  0
SECTION
  2
HEADER
  9
$ACADVER
  1
AC1021
  9
$ACADMAINTVER
 70
    25
  9
$DWGCODEPAGE
  3
ANSI_1252
  9
$INSBASE
 10
0.0
 20
0.0
 30
0.0
  9
$EXTMIN
 10
-13.5
 20
-15.85271
 30
0.0
  9
$EXTMAX
 10
-9.5
 20
-13.85
 30
0.0
  9
$LIMMIN
 10
0.0
 20
0.0
  9
$LIMMAX
 10
12.0
 20
9.0
  9
$ORTHOMODE
 70
     0
  9
$REGENMODE
 70
     1
  9
$FILLMODE
 70
     1
  9
$QTEXTMODE
 70
     0
  9
$MIRRTEXT
 70
     1
  9
$LTSCALE
 40
1.0
  9
$ATTMODE
 70
     1
  9
$TEXTSIZE
 40
0.2
  9
$TRACEWID
 40
0.05
  9
$TEXTSTYLE
  7
Standard
  9
$CLAYER
  8
0
  9
$CELTYPE
  6
ByLayer
  9
$CECOLOR
 62
   256
  9
$CELTSCALE
 40
1.0
  9
$DISPSILH
 70
     0
  9
$DIMSCALE
 40
1.0
  9
$DIMASZ
 40
0.18
  9
$DIMEXO
 40
0.0625
  9
$DIMDLI
 40
0.38
  9
$DIMRND
 40
0.0
  9
$DIMDLE
 40
0.0
  9
$DIMEXE
 40
0.18
  9
$DIMTP
 40
0.0
  9
$DIMTM
 40
0.0
  9
$DIMTXT
 40
0.18
  9
$DIMCEN
 40
0.09
  9
$DIMTSZ
 40
0.0
  9
$DIMTOL
 70
     0
  9
$DIMLIM
 70
     0
  9
$DIMTIH
 70
     1
  9
$DIMTOH
 70
     1
  9
$DIMSE1
 70
     0
  9
$DIMSE2
 70
     0
  9
$DIMTAD
 70
     0
  9
$DIMZIN
 70
     0
  9
$DIMBLK
  1

  9
$DIMASO
 70
     1
  9
$DIMSHO
 70
     1
  9
$DIMPOST
  1

  9
$DIMAPOST
  1

  9
$DIMALT
 70
     0
  9
$DIMALTD
 70
     2
  9
$DIMALTF
 40
25.4
  9
$DIMLFAC
 40
1.0
  9
$DIMTOFL
 70
     0
  9
$DIMTVP
 40
0.0
  9
$DIMTIX
 70
     0
  9
$DIMSOXD
 70
     0
  9
$DIMSAH
 70
     0
  9
$DIMBLK1
  1

  9
$DIMBLK2
  1

  9
$DIMSTYLE
  2
Standard
  9
$DIMCLRD
 70
     0
  9
$DIMCLRE
 70
     0
  9
$DIMCLRT
 70
     0
  9
$DIMTFAC
 40
1.0
  9
$DIMGAP
 40
0.09
  9
$DIMJUST
 70
     0
  9
$DIMSD1
 70
     0
  9
$DIMSD2
 70
     0
  9
$DIMTOLJ
 70
     1
  9
$DIMTZIN
 70
     0
  9
$DIMALTZ
 70
     0
  9
$DIMALTTZ
 70
     0
  9
$DIMUPT
 70
     0
  9
$DIMDEC
 70
     4
  9
$DIMTDEC
 70
     4
  9
$DIMALTU
 70
     2
  9
$DIMALTTD
 70
     2
  9
$DIMTXSTY
  7
Standard
  9
$DIMAUNIT
 70
     0
  9
$DIMADEC
 70
     0
  9
$DIMALTRND
 40
0.0
  9
$DIMAZIN
 70
     0
  9
$DIMDSEP
 70
    46
  9
$DIMATFIT
 70
     3
  9
$DIMFRAC
 70
     0
  9
$DIMLDRBLK
  1

  9
$DIMLUNIT
 70
     2
  9
$DIMLWD
 70
    -2
  9
$DIMLWE
 70
    -2
  9
$DIMTMOVE
 70
     0
  9
$DIMFXL
 40
1.0
  9
$DIMFXLON
 70
     0
  9
$DIMJOGANG
 40
0.7853981633974483
  9
$DIMTFILL
 70
     0
  9
$DIMTFILLCLR
 70
     0
  9
$DIMARCSYM
 70
     0
  9
$DIMLTYPE
  6

  9
$DIMLTEX1
  6

  9
$DIMLTEX2
  6

  9
$LUNITS
 70
     2
  9
$LUPREC
 70
     4
  9
$SKETCHINC
 40
0.1
  9
$FILLETRAD
 40
0.5
  9
$AUNITS
 70
     0
  9
$AUPREC
 70
     0
  9
$MENU
  1
.
  9
$ELEVATION
 40
0.0
  9
$PELEVATION
 40
0.0
  9
$THICKNESS
 40
0.0
  9
$LIMCHECK
 70
     0
  9
$CHAMFERA
 40
0.5
  9
$CHAMFERB
 40
0.5
  9
$CHAMFERC
 40
1.0
  9
$CHAMFERD
 40
0.0
  9
$SKPOLY
 70
     0
  9
$TDCREATE
 40
2457063.15199331
  9
$TDUCREATE
 40
2457063.15199331
  9
$TDUPDATE
 40
2457063.151993322
  9
$TDUUPDATE
 40
2457063.151993322
  9
$TDINDWG
 40
0.0000000116
  9
$TDUSRTIMER
 40
0.0000000116
  9
$USRTIMER
 70
     1
  9
$ANGBASE
 50
0.0
  9
$ANGDIR
 70
     0
  9
$PDMODE
 70
     0
  9
$PDSIZE
 40
0.0
  9
$PLINEWID
 40
0.0
  9
$SPLFRAME
 70
     0
  9
$SPLINETYPE
 70
     6
  9
$SPLINESEGS
 70
     8
  9
$HANDSEED
  5
A6
  9
$SURFTAB1
 70
     6
  9
$SURFTAB2
 70
     6
  9
$SURFTYPE
 70
     6
  9
$SURFU
 70
     6
  9
$SURFV
 70
     6
  9
$UCSBASE
  2

  9
$UCSNAME
  2

  9
$UCSORG
 10
0.0
 20
0.0
 30
0.0
  9
$UCSXDIR
 10
1.0
 20
0.0
 30
0.0
  9
$UCSYDIR
 10
0.0
 20
1.0
 30
0.0
  9
$UCSORTHOREF
  2

  9
$UCSORTHOVIEW
 70
     0
  9
$UCSORGTOP
 10
0.0
 20
0.0
 30
0.0
  9
$UCSORGBOTTOM
 10
0.0
 20
0.0
 30
0.0
  9
$UCSORGLEFT
 10
0.0
 20
0.0
 30
0.0
  9
$UCSORGRIGHT
 10
0.0
 20
0.0
 30
0.0
  9
$UCSORGFRONT
 10
0.0
 20
0.0
 30
0.0
  9
$UCSORGBACK
 10
0.0
 20
0.0
 30
0.0
  9
$PUCSBASE
  2

  9
$PUCSNAME
  2

  9
$PUCSORG
 10
0.0
 20
0.0
 30
0.0
  9
$PUCSXDIR
 10
1.0
 20
0.0
 30
0.0
  9
$PUCSYDIR
 10
0.0
 20
1.0
 30
0.0
  9
$PUCSORTHOREF
  2

  9
$PUCSORTHOVIEW
 70
     0
  9
$PUCSORGTOP
 10
0.0
 20
0.0
 30
0.0
  9
$PUCSORGBOTTOM
 10
0.0
 20
0.0
 30
0.0
  9
$PUCSORGLEFT
 10
0.0
 20
0.0
 30
0.0
  9
$PUCSORGRIGHT
 10
0.0
 20
0.0
 30
0.0
  9
$PUCSORGFRONT
 10
0.0
 20
0.0
 30
0.0
  9
$PUCSORGBACK
 10
0.0
 20
0.0
 30
0.0
  9
$USERI1
 70
     0
  9
$USERI2
 70
     0
  9
$USERI3
 70
     0
  9
$USERI4
 70
     0
  9
$USERI5
 70
     0
  9
$USERR1
 40
0.0
  9
$USERR2
 40
0.0
  9
$USERR3
 40
0.0
  9
$USERR4
 40
0.0
  9
$USERR5
 40
0.0
  9
$WORLDVIEW
 70
     1
  9
$SHADEDGE
 70
     3
  9
$SHADEDIF
 70
    70
  9
$TILEMODE
 70
     1
  9
$MAXACTVP
 70
    64
  9
$PINSBASE
 10
0.0
 20
0.0
 30
0.0
  9
$PLIMCHECK
 70
     0
  9
$PEXTMIN
 10
1.000000000000000E+20
 20
1.000000000000000E+20
 30
1.000000000000000E+20
  9
$PEXTMAX
 10
-1.000000000000000E+20
 20
-1.000000000000000E+20
 30
-1.000000000000000E+20
  9
$PLIMMIN
 10
0.0
 20
0.0
  9
$PLIMMAX
 10
12.0
 20
9.0
  9
$UNITMODE
 70
     0
  9
$VISRETAIN
 70
     1
  9
$PLINEGEN
 70
     0
  9
$PSLTSCALE
 70
     1
  9
$TREEDEPTH
 70
  3020
  9
$CMLSTYLE
  2
Standard
  9
$CMLJUST
 70
     0
  9
$CMLSCALE
 40
1.0
  9
$PROXYGRAPHICS
 70
     1
  9
$MEASUREMENT
 70
     0
  9
$CELWEIGHT
370
    -1
  9
$ENDCAPS
280
     0
  9
$JOINSTYLE
280
     0
  9
$LWDISPLAY
290
     0
  9
$INSUNITS
 70
     5
  9
$HYPERLINKBASE
  1

  9
$STYLESHEET
  1

  9
$XEDIT
290
     1
  9
$CEPSNTYPE
380
     0
  9
$PSTYLEMODE
290
     1
  9
$FINGERPRINTGUID
  2
{C2A62363-8FDF-4A52-8384-881642F7476E}
  9
$VERSIONGUID
  2
{FAEB1C32-E019-11D5-929B-00C0DF256EC4}
  9
$EXTNAMES
290
     1
  9
$PSVPSCALE
 40
0.0
  9
$OLESTARTUP
290
     0
  9
$SORTENTS
280
   127
  9
$INDEXCTL
280
     0
  9
$HIDETEXT
280
     1
  9
$XCLIPFRAME
290
     0
  9
$HALOGAP
280
     0
  9
$OBSCOLOR
 70
   257
  9
$OBSLTYPE
280
     0
  9
$INTERSECTIONDISPLAY
280
     0
  9
$INTERSECTIONCOLOR
 70
   257
  9
$DIMASSOC
280
     2
  9
$PROJECTNAME
  1

  9
$CAMERADISPLAY
290
     0
  9
$LENSLENGTH
 40
50.0
  9
$CAMERAHEIGHT
 40
0.0
  9
$STEPSPERSEC
 40
2.0
  9
$STEPSIZE
 40
6.0
  9
$3DDWFPREC
 40
2.0
  9
$PSOLWIDTH
 40
0.25
  9
$PSOLHEIGHT
 40
4.0
  9
$LOFTANG1
 40
1.570796326794897
  9
$LOFTANG2
 40
1.570796326794897
  9
$LOFTMAG1
 40
0.0
  9
$LOFTMAG2
 40
0.0
  9
$LOFTPARAM
 70
     7
  9
$LOFTNORMALS
280
     1
  9
$LATITUDE
 40
37.795
  9
$LONGITUDE
 40
-122.394
  9
$NORTHDIRECTION
 40
0.0
  9
$TIMEZONE
 70
 -8000
  9
$LIGHTGLYPHDISPLAY
280
     1
  9
$TILEMODELIGHTSYNCH
280
     1
  9
$SOLIDHIST
280
     1
  9
$SHOWHIST
280
     1
  9
$DWFFRAME
280
     2
  9
$DGNFRAME
280
     2
  9
$REALWORLDSCALE
290
     1
  9
$INTERFERECOLOR
 62
   256
  9
$CSHADOW
280
     0
  9
$SHADOWPLANELOCATION
 40
0.0
  0
ENDSEC
  0
SECTION
  2
CLASSES
  0
CLASS
  1
ACDBDICTIONARYWDFLT
  2
AcDbDictionaryWithDefault
  3
ObjectDBX Classes
 90
        0
 91
        3
280
     0
281
     0
  0
CLASS
  1
VISUALSTYLE
  2
AcDbVisualStyle
  3
ObjectDBX Classes
 90
     4095
 91
        3
280
     0
281
     0
  0
CLASS
  1
SCALE
  2
AcDbScale
  3
ObjectDBX Classes
 90
     1153
 91
        3
280
     0
281
     0
  0
ENDSEC
  0
SECTION
  2
TABLES
  0
TABLE
  2
VPORT
  5
8
330
0
100
AcDbSymbolTable
 70
     1
  0
VPORT
  5
29
330
8
100
AcDbSymbolTableRecord
100
AcDbViewportTableRecord
  2
*Active
 70
     0
 10
0.0
 20
0.0
 11
1.0
 21
1.0
 12
10.42990654205607
 22
4.5
 13
0.0
 23
0.0
 14
0.5
 24
0.5
 15
0.5
 25
0.5
 16
0.0
 26
0.0
 36
1.0
 17
0.0
 27
0.0
 37
0.0
 40
9.0
 41
1.972972972850329
 42
50.0
 43
0.0
 44
0.0
 50
0.0
 51
0.0
 71
     0
 72
   100
 73
     1
 74
     3
 75
     0
 76
     0
 77
     0
 78
     0
281
     0
 65
     1
110
0.0
120
0.0
130
0.0
111
1.0
121
0.0
131
0.0
112
0.0
122
1.0
132
0.0
 79
     0
146
0.0
 60
     3
 61
     5
292
     1
282
     1
141
0.0
142
0.0
 63
   256
  0
ENDTAB
  0
TABLE
  2
LTYPE
  5
5
330
0
100
AcDbSymbolTable
 70
     1
  0
LTYPE
  5
14
330
5
100
AcDbSymbolTableRecord
100
AcDbLinetypeTableRecord
  2
ByBlock
 70
     0
  3

 72
    65
 73
     0
 40
0.0
  0
LTYPE
  5
15
330
5
100
AcDbSymbolTableRecord
100
AcDbLinetypeTableRecord
  2
ByLayer
 70
     0
  3

 72
    65
 73
     0
 40
0.0
  0
LTYPE
  5
16
330
5
100
AcDbSymbolTableRecord
100
AcDbLinetypeTableRecord
  2
Continuous
 70
     0
  3
Solid line
 72
    65
 73
     0
 40
0.0
  0
ENDTAB
  0
TABLE
  2
LAYER
  5
2
330
0
100
AcDbSymbolTable
 70
     2
  0
LAYER
  5
10
330
2
100
AcDbSymbolTableRecord
100
AcDbLayerTableRecord
  2
0
 70
     0
 62
     7
  6
Continuous
370
    -3
390
F
347
0
  0
LAYER
  5
5E
330
2
100
AcDbSymbolTableRecord
100
AcDbLayerTableRecord
  2
Layer 1
 70
     0
 62
     7
  6
Continuous
370
    -3
390
F
347
0
  0
ENDTAB
  0
TABLE
  2
STYLE
  5
3
330
0
100
AcDbSymbolTable
 70
     1
  0
STYLE
  5
11
330
3
100
AcDbSymbolTableRecord
100
AcDbTextStyleTableRecord
  2
Standard
 70
     0
 40
0.0
 41
1.0
 50
0.0
 71
     0
 42
0.2
  3
txt
  4

  0
ENDTAB
  0
TABLE
  2
VIEW
  5
6
330
0
100
AcDbSymbolTable
 70
     0
  0
ENDTAB
  0
TABLE
  2
UCS
  5
7
330
0
100
AcDbSymbolTable
 70
     0
  0
ENDTAB
  0
TABLE
  2
APPID
  5
9
330
0
100
AcDbSymbolTable
 70
     2
  0
APPID
  5
12
330
9
100
AcDbSymbolTableRecord
100
AcDbRegAppTableRecord
  2
ACAD
 70
     0
  0
APPID
  5
5D
330
9
100
AcDbSymbolTableRecord
100
AcDbRegAppTableRecord
  2
ODA
 70
     0
  0
ENDTAB
  0
TABLE
  2
DIMSTYLE
  5
A
330
0
100
AcDbSymbolTable
 70
     1
100
AcDbDimStyleTable
  0
DIMSTYLE
105
27
330
A
100
AcDbSymbolTableRecord
100
AcDbDimStyleTableRecord
  2
Standard
 70
     0
340
11
  0
ENDTAB
  0
TABLE
  2
BLOCK_RECORD
  5
1
330
0
100
AcDbSymbolTable
 70
     1
  0
BLOCK_RECORD
  5
1F
330
1
100
AcDbSymbolTableRecord
100
AcDbBlockTableRecord
  2
*Model_Space
340
22
 70
     0
280
     1
281
     0
  0
BLOCK_RECORD
  5
1B
330
1
100
AcDbSymbolTableRecord
100
AcDbBlockTableRecord
  2
*Paper_Space
340
1E
 70
     0
280
     1
281
     0
  0
BLOCK_RECORD
  5
23
330
1
100
AcDbSymbolTableRecord
100
AcDbBlockTableRecord
  2
*Paper_Space0
340
26
 70
     0
280
     1
281
     0
  0
ENDTAB
  0
ENDSEC
  0
SECTION
  2
BLOCKS
  0
BLOCK
  5
20
330
1F
100
AcDbEntity
  8
0
100
AcDbBlockBegin
  2
*Model_Space
 70
     0
 10
0.0
 20
0.0
 30
0.0
  3
*Model_Space
  1

  0
ENDBLK
  5
21
330
1F
100
AcDbEntity
  8
0
100
AcDbBlockEnd
  0
BLOCK
  5
1C
330
1B
100
AcDbEntity
 67
     1
  8
0
100
AcDbBlockBegin
  2
*Paper_Space
 70
     0
 10
0.0
 20
0.0
 30
0.0
  3
*Paper_Space
  1

  0
ENDBLK
  5
1D
330
1B
100
AcDbEntity
 67
     1
  8
0
100
AcDbBlockEnd
  0
BLOCK
  5
24
330
23
100
AcDbEntity
  8
0
100
AcDbBlockBegin
  2
*Paper_Space0
 70
     0
 10
0.0
 20
0.0
 30
0.0
  3
*Paper_Space0
  1

  0
ENDBLK
  5
25
330
23
100
AcDbEntity
  8
0
100
AcDbBlockEnd
  0
ENDSEC
  0
SECTION
  2
ENTITIES
  0
SPLINE
  5
5F
330
1F
100
AcDbEntity
  8
Layer 1
 62
     7
100
AcDbSpline
210
0.0
220
0.0
230
1.0
 70
    11
 71
     3
 72
    20
 73
    16
 74
     0
 42
0.0000000001
 43
0.0000000001
 40
0.0
 40
0.0
 40
0.0
 40
0.0
 40
0.25
 40
0.25
 40
0.25
 40
0.25
 40
0.5
 40
0.5
 40
0.5
 40
0.5
 40
0.75
 40
0.75
 40
0.75
 40
0.75
 40
1.0
 40
1.0
 40
1.0
 40
1.0
 10
-13.5
 20
-13.85
 30
0.0
 10
-13.5
 20
-13.85
 30
0.0
 10
-9.5
 20
-13.85
 30
0.0
 10
-9.5
 20
-13.85
 30
0.0
 10
-9.5
 20
-13.85
 30
0.0
 10
-9.5
 20
-13.85
 30
0.0
 10
-9.5
 20
-15.85
 30
0.0
 10
-9.5
 20
-15.85
 30
0.0
 10
-9.5
 20
-15.85
 30
0.0
 10
-9.5
 20
-15.85
 30
0.0
 10
-13.5
 20
-15.85
 30
0.0
 10
-13.5
 20
-15.85
 30
0.0
 10
-13.5
 20
-15.85
 30
0.0
 10
-13.5
 20
-15.85
 30
0.0
 10
-13.5
 20
-13.85
 30
0.0
 10
-13.5
 20
-13.85
 30
0.0
  0
SPLINE
  5
60
330
1F
100
AcDbEntity
  8
Layer 1
 62
   250
370
   106
100
AcDbSpline
210
0.0
220
0.0
230
1.0
 70
    24
 71
     3
 72
     8
 73
     4
 74
     0
 42
0.0000000001
 43
0.0000000001
 40
0.0
 40
0.0
 40
0.0
 40
0.0
 40
1.0
 40
1.0
 40
1.0
 40
1.0
 10
-10.0375
 20
-15.8
 30
0.0
 10
-10.0375
 20
-15.8
 30
0.0
 10
-10.03752
 20
-15.35001
 30
0.0
 10
-10.03752
 20
-15.35001
 30
0.0
  0
SPLINE
  5
61
330
1F
100
AcDbEntity
  8
Layer 1
 62
   250
370
   106
100
AcDbSpline
210
0.0
220
0.0
230
1.0
 70
    24
 71
     3
 72
     8
 73
     4
 74
     0
 42
0.0000000001
 43
0.0000000001
 40
0.0
 40
0.0
 40
0.0
 40
0.0
 40
1.0
 40
1.0
 40
1.0
 40
1.0
 10
-11.0375
 20
-15.8
 30
0.0
 10
-11.0375
 20
-15.8
 30
0.0
 10
-11.03752
 20
-15.35001
 30
0.0
 10
-11.03752
 20
-15.35001
 30
0.0
  0
SPLINE
  5
62
330
1F
100
AcDbEntity
  8
Layer 1
 62
   250
370
   106
100
AcDbSpline
210
0.0
220
0.0
230
1.0
 70
    24
 71
     3
 72
     8
 73
     4
 74
     0
 42
0.0000000001
 43
0.0000000001
 40
0.0
 40
0.0
 40
0.0
 40
0.0
 40
1.0
 40
1.0
 40
1.0
 40
1.0
 10
-12.0375
 20
-15.8
 30
0.0
 10
-12.0375
 20
-15.8
 30
0.0
 10
-12.03752
 20
-15.35001
 30
0.0
 10
-12.03752
 20
-15.35001
 30
0.0
  0
SPLINE
  5
63
330
1F
100
AcDbEntity
  8
Layer 1
 62
   250
370
   106
100
AcDbSpline
210
0.0
220
0.0
230
1.0
 70
    24
 71
     3
 72
     8
 73
     4
 74
     0
 42
0.0000000001
 43
0.0000000001
 40
0.0
 40
0.0
 40
0.0
 40
0.0
 40
1.0
 40
1.0
 40
1.0
 40
1.0
 10
-13.0375
 20
-15.8
 30
0.0
 10
-13.0375
 20
-15.8
 30
0.0
 10
-13.03752
 20
-15.35001
 30
0.0
 10
-13.03752
 20
-15.35001
 30
0.0
  0
SPLINE
  5
64
330
1F
100
AcDbEntity
  8
Layer 1
 62
   250
370
   100
100
AcDbSpline
210
0.0
220
0.0
230
1.0
 70
    11
 71
     3
 72
    20
 73
    16
 74
     0
 42
0.0000000001
 43
0.0000000001
 40
0.0
 40
0.0
 40
0.0
 40
0.0
 40
0.25
 40
0.25
 40
0.25
 40
0.25
 40
0.5
 40
0.5
 40
0.5
 40
0.5
 40
0.75
 40
0.75
 40
0.75
 40
0.75
 40
1.0
 40
1.0
 40
1.0
 40
1.0
 10
-13.30001
 20
-15.3
 30
0.0
 10
-13.30001
 20
-15.3
 30
0.0
 10
-13.30001
 20
-14.3
 30
0.0
 10
-13.30001
 20
-14.3
 30
0.0
 10
-13.30001
 20
-14.3
 30
0.0
 10
-13.30001
 20
-14.3
 30
0.0
 10
-9.70001
 20
-14.3
 30
0.0
 10
-9.70001
 20
-14.3
 30
0.0
 10
-9.70001
 20
-14.3
 30
0.0
 10
-9.70001
 20
-14.3
 30
0.0
 10
-9.70001
 20
-15.3
 30
0.0
 10
-9.70001
 20
-15.3
 30
0.0
 10
-9.70001
 20
-15.3
 30
0.0
 10
-9.70001
 20
-15.3
 30
0.0
 10
-13.30001
 20
-15.3
 30
0.0
 10
-13.30001
 20
-15.3
 30
0.0
  0
SPLINE
  5
65
330
1F
100
AcDbEntity
  8
Layer 1
 62
   250
100
AcDbSpline
210
0.0
220
0.0
230
1.0
 70
    11
 71
     3
 72
    40
 73
    36
 74
     0
 42
0.0000000001
 43
0.0000000001
 40
0.0
 40
0.0
 40
0.0
 40
0.0
 40
0.1111111111111111
 40
0.1111111111111111
 40
0.1111111111111111
 40
0.1111111111111111
 40
0.2222222222222222
 40
0.2222222222222222
 40
0.2222222222222222
 40
0.2222222222222222
 40
0.3333333333333333
 40
0.3333333333333333
 40
0.3333333333333333
 40
0.3333333333333333
 40
0.4444444444444444
 40
0.4444444444444444
 40
0.4444444444444444
 40
0.4444444444444444
 40
0.5555555555555556
 40
0.5555555555555556
 40
0.5555555555555556
 40
0.5555555555555556
 40
0.6666666666666667
 40
0.6666666666666667
 40
0.6666666666666667
 40
0.6666666666666667
 40
0.7777777777777779
 40
0.7777777777777779
 40
0.7777777777777779
 40
0.7777777777777779
 40
0.8888888888888891
 40
0.8888888888888891
 40
0.8888888888888891
 40
0.8888888888888891
 40
1.0
 40
1.0
 40
1.0
 40
1.0
 10
-13.1104
 20
-15.1733
 30
0.0
 10
-13.1104
 20
-15.1733
 30
0.0
 10
-13.1104
 20
-15.1109
 30
0.0
 10
-13.1104
 20
-15.1109
 30
0.0
 10
-13.1104
 20
-15.1109
 30
0.0
 10
-13.1104
 20
-15.09234
 30
0.0
 10
-13.10627
 20
-15.0781
 30
0.0
 10
-13.09803
 20
-15.06817
 30
0.0
 10
-13.09803
 20
-15.06817
 30
0.0
 10
-13.0898
 20
-15.05824
 30
0.0
 10
-13.07807
 20
-15.05327
 30
0.0
 10
-13.06283
 20
-15.05327
 30
0.0
 10
-13.06283
 20
-15.05327
 30
0.0
 10
-13.04757
 20
-15.05327
 30
0.0
 10
-13.0358
 20
-15.05824
 30
0.0
 10
-13.02757
 20
-15.06817
 30
0.0
 10
-13.02757
 20
-15.06817
 30
0.0
 10
-13.01933
 20
-15.0781
 30
0.0
 10
-13.0152
 20
-15.09234
 30
0.0
 10
-13.0152
 20
-15.1109
 30
0.0
 10
-13.0152
 20
-15.1109
 30
0.0
 10
-13.0152
 20
-15.1109
 30
0.0
 10
-13.0152
 20
-15.1357
 30
0.0
 10
-13.0152
 20
-15.1357
 30
0.0
 10
-13.0152
 20
-15.1357
 30
0.0
 10
-13.0152
 20
-15.1357
 30
0.0
 10
-12.9646
 20
-15.1357
 30
0.0
 10
-12.9646
 20
-15.1357
 30
0.0
 10
-12.9646
 20
-15.1357
 30
0.0
 10
-12.9646
 20
-15.1357
 30
0.0
 10
-12.9646
 20
-15.1733
 30
0.0
 10
-12.9646
 20
-15.1733
 30
0.0
 10
-12.9646
 20
-15.1733
 30
0.0
 10
-12.9646
 20
-15.1733
 30
0.0
 10
-13.1104
 20
-15.1733
 30
0.0
 10
-13.1104
 20
-15.1733
 30
0.0
  0
SPLINE
  5
66
330
1F
100
AcDbEntity
  8
Layer 1
 62
   250
100
AcDbSpline
210
0.0
220
0.0
230
1.0
 70
    11
 71
     3
 72
    32
 73
    28
 74
     0
 42
0.0000000001
 43
0.0000000001
 40
0.0
 40
0.0
 40
0.0
 40
0.0
 40
0.1428571428571428
 40
0.1428571428571428
 40
0.1428571428571428
 40
0.1428571428571428
 40
0.2857142857142857
 40
0.2857142857142857
 40
0.2857142857142857
 40
0.2857142857142857
 40
0.4285714285714285
 40
0.4285714285714285
 40
0.4285714285714285
 40
0.4285714285714285
 40
0.5714285714285714
 40
0.5714285714285714
 40
0.5714285714285714
 40
0.5714285714285714
 40
0.7142857142857142
 40
0.7142857142857142
 40
0.7142857142857142
 40
0.7142857142857142
 40
0.857142857142857
 40
0.857142857142857
 40
0.857142857142857
 40
0.857142857142857
 40
1.0
 40
1.0
 40
1.0
 40
1.0
 10
-13.08317
 20
-15.1357
 30
0.0
 10
-13.08317
 20
-15.1357
 30
0.0
 10
-13.04243
 20
-15.1357
 30
0.0
 10
-13.04243
 20
-15.1357
 30
0.0
 10
-13.04243
 20
-15.1357
 30
0.0
 10
-13.04243
 20
-15.1357
 30
0.0
 10
-13.04243
 20
-15.1149
 30
0.0
 10
-13.04243
 20
-15.1149
 30
0.0
 10
-13.04243
 20
-15.1149
 30
0.0
 10
-13.04243
 20
-15.1076
 30
0.0
 10
-13.0442
 20
-15.10197
 30
0.0
 10
-13.04777
 20
-15.098
 30
0.0
 10
-13.04777
 20
-15.098
 30
0.0
 10
-13.0513
 20
-15.09404
 30
0.0
 10
-13.05633
 20
-15.09204
 30
0.0
 10
-13.06283
 20
-15.09204
 30
0.0
 10
-13.06283
 20
-15.09204
 30
0.0
 10
-13.06937
 20
-15.09204
 30
0.0
 10
-13.07437
 20
-15.09404
 30
0.0
 10
-13.0779
 20
-15.098
 30
0.0
 10
-13.0779
 20
-15.098
 30
0.0
 10
-13.0814
 20
-15.10197
 30
0.0
 10
-13.08317
 20
-15.1076
 30
0.0
 10
-13.08317
 20
-15.1149
 30
0.0
 10
-13.08317
 20
-15.1149
 30
0.0
 10
-13.08317
 20
-15.1149
 30
0.0
 10
-13.08317
 20
-15.1357
 30
0.0
 10
-13.08317
 20
-15.1357
 30
0.0
  0
SPLINE
  5
67
330
1F
100
AcDbEntity
  8
Layer 1
 62
   250
100
AcDbSpline
210
0.0
220
0.0
230
1.0
 70
    11
 71
     3
 72
    20
 73
    16
 74
     0
 42
0.0000000001
 43
0.0000000001
 40
0.0
 40
0.0
 40
0.0
 40
0.0
 40
0.25
 40
0.25
 40
0.25
 40
0.25
 40
0.5
 40
0.5
 40
0.5
 40
0.5
 40
0.75
 40
0.75
 40
0.75
 40
0.75
 40
1.0
 40
1.0
 40
1.0
 40
1.0
 10
-13.1104
 20
-15.02673
 30
0.0
 10
-13.1104
 20
-15.02673
 30
0.0
 10
-13.1104
 20
-14.98913
 30
0.0
 10
-13.1104
 20
-14.98913
 30
0.0
 10
-13.1104
 20
-14.98913
 30
0.0
 10
-13.1104
 20
-14.98913
 30
0.0
 10
-12.9646
 20
-14.98913
 30
0.0
 10
-12.9646
 20
-14.98913
 30
0.0
 10
-12.9646
 20
-14.98913
 30
0.0
 10
-12.9646
 20
-14.98913
 30
0.0
 10
-12.9646
 20
-15.02673
 30
0.0
 10
-12.9646
 20
-15.02673
 30
0.0
 10
-12.9646
 20
-15.02673
 30
0.0
 10
-12.9646
 20
-15.02673
 30
0.0
 10
-13.1104
 20
-15.02673
 30
0.0
 10
-13.1104
 20
-15.02673
 30
0.0
  0
SPLINE
  5
68
330
1F
100
AcDbEntity
  8
Layer 1
 62
   250
100
AcDbSpline
210
0.0
220
0.0
230
1.0
 70
    11
 71
     3
 72
    44
 73
    40
 74
     0
 42
0.0000000001
 43
0.0000000001
 40
0.0
 40
0.0
 40
0.0
 40
0.0
 40
0.1
 40
0.1
 40
0.1
 40
0.1
 40
0.2
 40
0.2
 40
0.2
 40
0.2
 40
0.3
 40
0.3
 40
0.3
 40
0.3
 40
0.4
 40
0.4
 40
0.4
 40
0.4
 40
0.5
 40
0.5
 40
0.5
 40
0.5
 40
0.6
 40
0.6
 40
0.6
 40
0.6
 40
0.7
 40
0.7
 40
0.7
 40
0.7
 40
0.7999999999999999
 40
0.7999999999999999
 40
0.7999999999999999
 40
0.7999999999999999
 40
0.8999999999999999
 40
0.8999999999999999
 40
0.8999999999999999
 40
0.8999999999999999
 40
1.0
 40
1.0
 40
1.0
 40
1.0
 10
-13.1104
 20
-14.95233
 30
0.0
 10
-13.1104
 20
-14.95233
 30
0.0
 10
-13.1104
 20
-14.91033
 30
0.0
 10
-13.1104
 20
-14.91033
 30
0.0
 10
-13.1104
 20
-14.91033
 30
0.0
 10
-13.1104
 20
-14.91033
 30
0.0
 10
-13.0104
 20
-14.8573
 30
0.0
 10
-13.0104
 20
-14.8573
 30
0.0
 10
-13.0104
 20
-14.8573
 30
0.0
 10
-13.0104
 20
-14.8573
 30
0.0
 10
-13.1104
 20
-14.8573
 30
0.0
 10
-13.1104
 20
-14.8573
 30
0.0
 10
-13.1104
 20
-14.8573
 30
0.0
 10
-13.1104
 20
-14.8573
 30
0.0
 10
-13.1104
 20
-14.82167
 30
0.0
 10
-13.1104
 20
-14.82167
 30
0.0
 10
-13.1104
 20
-14.82167
 30
0.0
 10
-13.1104
 20
-14.82167
 30
0.0
 10
-12.9646
 20
-14.82167
 30
0.0
 10
-12.9646
 20
-14.82167
 30
0.0
 10
-12.9646
 20
-14.82167
 30
0.0
 10
-12.9646
 20
-14.82167
 30
0.0
 10
-12.9646
 20
-14.86367
 30
0.0
 10
-12.9646
 20
-14.86367
 30
0.0
 10
-12.9646
 20
-14.86367
 30
0.0
 10
-12.9646
 20
-14.86367
 30
0.0
 10
-13.0646
 20
-14.9167
 30
0.0
 10
-13.0646
 20
-14.9167
 30
0.0
 10
-13.0646
 20
-14.9167
 30
0.0
 10
-13.0646
 20
-14.9167
 30
0.0
 10
-12.9646
 20
-14.9167
 30
0.0
 10
-12.9646
 20
-14.9167
 30
0.0
 10
-12.9646
 20
-14.9167
 30
0.0
 10
-12.9646
 20
-14.9167
 30
0.0
 10
-12.9646
 20
-14.95233
 30
0.0
 10
-12.9646
 20
-14.95233
 30
0.0
 10
-12.9646
 20
-14.95233
 30
0.0
 10
-12.9646
 20
-14.95233
 30
0.0
 10
-13.1104
 20
-14.95233
 30
0.0
 10
-13.1104
 20
-14.95233
 30
0.0
  0
SPLINE
  5
69
330
1F
100
AcDbEntity
  8
Layer 1
 62
   250
100
AcDbSpline
210
0.0
220
0.0
230
1.0
 70
    11
 71
     3
 72
    48
 73
    44
 74
     0
 42
0.0000000001
 43
0.0000000001
 40
0.0
 40
0.0
 40
0.0
 40
0.0
 40
0.0909090909090909
 40
0.0909090909090909
 40
0.0909090909090909
 40
0.0909090909090909
 40
0.1818181818181818
 40
0.1818181818181818
 40
0.1818181818181818
 40
0.1818181818181818
 40
0.2727272727272727
 40
0.2727272727272727
 40
0.2727272727272727
 40
0.2727272727272727
 40
0.3636363636363636
 40
0.3636363636363636
 40
0.3636363636363636
 40
0.3636363636363636
 40
0.4545454545454546
 40
0.4545454545454546
 40
0.4545454545454546
 40
0.4545454545454546
 40
0.5454545454545455
 40
0.5454545454545455
 40
0.5454545454545455
 40
0.5454545454545455
 40
0.6363636363636365
 40
0.6363636363636365
 40
0.6363636363636365
 40
0.6363636363636365
 40
0.7272727272727274
 40
0.7272727272727274
 40
0.7272727272727274
 40
0.7272727272727274
 40
0.8181818181818183
 40
0.8181818181818183
 40
0.8181818181818183
 40
0.8181818181818183
 40
0.9090909090909093
 40
0.9090909090909093
 40
0.9090909090909093
 40
0.9090909090909093
 40
1.0
 40
1.0
 40
1.0
 40
1.0
 10
-12.99057
 20
-14.71027
 30
0.0
 10
-12.99057
 20
-14.71027
 30
0.0
 10
-12.99057
 20
-14.67707
 30
0.0
 10
-12.99057
 20
-14.67707
 30
0.0
 10
-12.99057
 20
-14.67707
 30
0.0
 10
-12.99057
 20
-14.67707
 30
0.0
 10
-13.0848
 20
-14.67707
 30
0.0
 10
-13.0848
 20
-14.67707
 30
0.0
 10
-13.0848
 20
-14.67707
 30
0.0
 10
-13.0848
 20
-14.67707
 30
0.0
 10
-13.07777
 20
-14.71113
 30
0.0
 10
-13.07777
 20
-14.71113
 30
0.0
 10
-13.07777
 20
-14.71113
 30
0.0
 10
-13.07777
 20
-14.71113
 30
0.0
 10
-13.10337
 20
-14.71113
 30
0.0
 10
-13.10337
 20
-14.71113
 30
0.0
 10
-13.10337
 20
-14.71113
 30
0.0
 10
-13.10337
 20
-14.71113
 30
0.0
 10
-13.1104
 20
-14.67727
 30
0.0
 10
-13.1104
 20
-14.67727
 30
0.0
 10
-13.1104
 20
-14.67727
 30
0.0
 10
-13.1104
 20
-14.67727
 30
0.0
 10
-13.1104
 20
-14.64153
 30
0.0
 10
-13.1104
 20
-14.64153
 30
0.0
 10
-13.1104
 20
-14.64153
 30
0.0
 10
-13.1104
 20
-14.64153
 30
0.0
 10
-12.99057
 20
-14.64153
 30
0.0
 10
-12.99057
 20
-14.64153
 30
0.0
 10
-12.99057
 20
-14.64153
 30
0.0
 10
-12.99057
 20
-14.64153
 30
0.0
 10
-12.99057
 20
-14.60833
 30
0.0
 10
-12.99057
 20
-14.60833
 30
0.0
 10
-12.99057
 20
-14.60833
 30
0.0
 10
-12.99057
 20
-14.60833
 30
0.0
 10
-12.9646
 20
-14.60833
 30
0.0
 10
-12.9646
 20
-14.60833
 30
0.0
 10
-12.9646
 20
-14.60833
 30
0.0
 10
-12.9646
 20
-14.60833
 30
0.0
 10
-12.9646
 20
-14.71027
 30
0.0
 10
-12.9646
 20
-14.71027
 30
0.0
 10
-12.9646
 20
-14.71027
 30
0.0
 10
-12.9646
 20
-14.71027
 30
0.0
 10
-12.99057
 20
-14.71027
 30
0.0
 10
-12.99057
 20
-14.71027
 30
0.0
  0
SPLINE
  5
6A
330
1F
100
AcDbEntity
  8
Layer 1
 62
   250
100
AcDbSpline
210
0.0
220
0.0
230
1.0
 70
    11
 71
     3
 72
    40
 73
    36
 74
     0
 42
0.0000000001
 43
0.0000000001
 40
0.0
 40
0.0
 40
0.0
 40
0.0
 40
0.1111111111111111
 40
0.1111111111111111
 40
0.1111111111111111
 40
0.1111111111111111
 40
0.2222222222222222
 40
0.2222222222222222
 40
0.2222222222222222
 40
0.2222222222222222
 40
0.3333333333333333
 40
0.3333333333333333
 40
0.3333333333333333
 40
0.3333333333333333
 40
0.4444444444444444
 40
0.4444444444444444
 40
0.4444444444444444
 40
0.4444444444444444
 40
0.5555555555555556
 40
0.5555555555555556
 40
0.5555555555555556
 40
0.5555555555555556
 40
0.6666666666666667
 40
0.6666666666666667
 40
0.6666666666666667
 40
0.6666666666666667
 40
0.7777777777777779
 40
0.7777777777777779
 40
0.7777777777777779
 40
0.7777777777777779
 40
0.8888888888888891
 40
0.8888888888888891
 40
0.8888888888888891
 40
0.8888888888888891
 40
1.0
 40
1.0
 40
1.0
 40
1.0
 10
-12.1104
 20
-15.1733
 30
0.0
 10
-12.1104
 20
-15.1733
 30
0.0
 10
-12.1104
 20
-15.1109
 30
0.0
 10
-12.1104
 20
-15.1109
 30
0.0
 10
-12.1104
 20
-15.1109
 30
0.0
 10
-12.1104
 20
-15.09234
 30
0.0
 10
-12.10627
 20
-15.0781
 30
0.0
 10
-12.09803
 20
-15.06817
 30
0.0
 10
-12.09803
 20
-15.06817
 30
0.0
 10
-12.0898
 20
-15.05824
 30
0.0
 10
-12.07807
 20
-15.05327
 30
0.0
 10
-12.06283
 20
-15.05327
 30
0.0
 10
-12.06283
 20
-15.05327
 30
0.0
 10
-12.04757
 20
-15.05327
 30
0.0
 10
-12.0358
 20
-15.05824
 30
0.0
 10
-12.02757
 20
-15.06817
 30
0.0
 10
-12.02757
 20
-15.06817
 30
0.0
 10
-12.01933
 20
-15.0781
 30
0.0
 10
-12.0152
 20
-15.09234
 30
0.0
 10
-12.0152
 20
-15.1109
 30
0.0
 10
-12.0152
 20
-15.1109
 30
0.0
 10
-12.0152
 20
-15.1109
 30
0.0
 10
-12.0152
 20
-15.1357
 30
0.0
 10
-12.0152
 20
-15.1357
 30
0.0
 10
-12.0152
 20
-15.1357
 30
0.0
 10
-12.0152
 20
-15.1357
 30
0.0
 10
-11.9646
 20
-15.1357
 30
0.0
 10
-11.9646
 20
-15.1357
 30
0.0
 10
-11.9646
 20
-15.1357
 30
0.0
 10
-11.9646
 20
-15.1357
 30
0.0
 10
-11.9646
 20
-15.1733
 30
0.0
 10
-11.9646
 20
-15.1733
 30
0.0
 10
-11.9646
 20
-15.1733
 30
0.0
 10
-11.9646
 20
-15.1733
 30
0.0
 10
-12.1104
 20
-15.1733
 30
0.0
 10
-12.1104
 20
-15.1733
 30
0.0
  0
SPLINE
  5
6B
330
1F
100
AcDbEntity
  8
Layer 1
 62
   250
100
AcDbSpline
210
0.0
220
0.0
230
1.0
 70
    11
 71
     3
 72
    32
 73
    28
 74
     0
 42
0.0000000001
 43
0.0000000001
 40
0.0
 40
0.0
 40
0.0
 40
0.0
 40
0.1428571428571428
 40
0.1428571428571428
 40
0.1428571428571428
 40
0.1428571428571428
 40
0.2857142857142857
 40
0.2857142857142857
 40
0.2857142857142857
 40
0.2857142857142857
 40
0.4285714285714285
 40
0.4285714285714285
 40
0.4285714285714285
 40
0.4285714285714285
 40
0.5714285714285714
 40
0.5714285714285714
 40
0.5714285714285714
 40
0.5714285714285714
 40
0.7142857142857142
 40
0.7142857142857142
 40
0.7142857142857142
 40
0.7142857142857142
 40
0.857142857142857
 40
0.857142857142857
 40
0.857142857142857
 40
0.857142857142857
 40
1.0
 40
1.0
 40
1.0
 40
1.0
 10
-12.08317
 20
-15.1357
 30
0.0
 10
-12.08317
 20
-15.1357
 30
0.0
 10
-12.04243
 20
-15.1357
 30
0.0
 10
-12.04243
 20
-15.1357
 30
0.0
 10
-12.04243
 20
-15.1357
 30
0.0
 10
-12.04243
 20
-15.1357
 30
0.0
 10
-12.04243
 20
-15.1149
 30
0.0
 10
-12.04243
 20
-15.1149
 30
0.0
 10
-12.04243
 20
-15.1149
 30
0.0
 10
-12.04243
 20
-15.1076
 30
0.0
 10
-12.0442
 20
-15.10197
 30
0.0
 10
-12.04777
 20
-15.098
 30
0.0
 10
-12.04777
 20
-15.098
 30
0.0
 10
-12.0513
 20
-15.09404
 30
0.0
 10
-12.05633
 20
-15.09204
 30
0.0
 10
-12.06283
 20
-15.09204
 30
0.0
 10
-12.06283
 20
-15.09204
 30
0.0
 10
-12.06937
 20
-15.09204
 30
0.0
 10
-12.07437
 20
-15.09404
 30
0.0
 10
-12.0779
 20
-15.098
 30
0.0
 10
-12.0779
 20
-15.098
 30
0.0
 10
-12.0814
 20
-15.10197
 30
0.0
 10
-12.08317
 20
-15.1076
 30
0.0
 10
-12.08317
 20
-15.1149
 30
0.0
 10
-12.08317
 20
-15.1149
 30
0.0
 10
-12.08317
 20
-15.1149
 30
0.0
 10
-12.08317
 20
-15.1357
 30
0.0
 10
-12.08317
 20
-15.1357
 30
0.0
  0
SPLINE
  5
6C
330
1F
100
AcDbEntity
  8
Layer 1
 62
   250
100
AcDbSpline
210
0.0
220
0.0
230
1.0
 70
    11
 71
     3
 72
    20
 73
    16
 74
     0
 42
0.0000000001
 43
0.0000000001
 40
0.0
 40
0.0
 40
0.0
 40
0.0
 40
0.25
 40
0.25
 40
0.25
 40
0.25
 40
0.5
 40
0.5
 40
0.5
 40
0.5
 40
0.75
 40
0.75
 40
0.75
 40
0.75
 40
1.0
 40
1.0
 40
1.0
 40
1.0
 10
-12.1104
 20
-15.02673
 30
0.0
 10
-12.1104
 20
-15.02673
 30
0.0
 10
-12.1104
 20
-14.98913
 30
0.0
 10
-12.1104
 20
-14.98913
 30
0.0
 10
-12.1104
 20
-14.98913
 30
0.0
 10
-12.1104
 20
-14.98913
 30
0.0
 10
-11.9646
 20
-14.98913
 30
0.0
 10
-11.9646
 20
-14.98913
 30
0.0
 10
-11.9646
 20
-14.98913
 30
0.0
 10
-11.9646
 20
-14.98913
 30
0.0
 10
-11.9646
 20
-15.02673
 30
0.0
 10
-11.9646
 20
-15.02673
 30
0.0
 10
-11.9646
 20
-15.02673
 30
0.0
 10
-11.9646
 20
-15.02673
 30
0.0
 10
-12.1104
 20
-15.02673
 30
0.0
 10
-12.1104
 20
-15.02673
 30
0.0
  0
SPLINE
  5
6D
330
1F
100
AcDbEntity
  8
Layer 1
 62
   250
100
AcDbSpline
210
0.0
220
0.0
230
1.0
 70
    11
 71
     3
 72
    44
 73
    40
 74
     0
 42
0.0000000001
 43
0.0000000001
 40
0.0
 40
0.0
 40
0.0
 40
0.0
 40
0.1
 40
0.1
 40
0.1
 40
0.1
 40
0.2
 40
0.2
 40
0.2
 40
0.2
 40
0.3
 40
0.3
 40
0.3
 40
0.3
 40
0.4
 40
0.4
 40
0.4
 40
0.4
 40
0.5
 40
0.5
 40
0.5
 40
0.5
 40
0.6
 40
0.6
 40
0.6
 40
0.6
 40
0.7
 40
0.7
 40
0.7
 40
0.7
 40
0.7999999999999999
 40
0.7999999999999999
 40
0.7999999999999999
 40
0.7999999999999999
 40
0.8999999999999999
 40
0.8999999999999999
 40
0.8999999999999999
 40
0.8999999999999999
 40
1.0
 40
1.0
 40
1.0
 40
1.0
 10
-12.1104
 20
-14.95233
 30
0.0
 10
-12.1104
 20
-14.95233
 30
0.0
 10
-12.1104
 20
-14.91033
 30
0.0
 10
-12.1104
 20
-14.91033
 30
0.0
 10
-12.1104
 20
-14.91033
 30
0.0
 10
-12.1104
 20
-14.91033
 30
0.0
 10
-12.0104
 20
-14.8573
 30
0.0
 10
-12.0104
 20
-14.8573
 30
0.0
 10
-12.0104
 20
-14.8573
 30
0.0
 10
-12.0104
 20
-14.8573
 30
0.0
 10
-12.1104
 20
-14.8573
 30
0.0
 10
-12.1104
 20
-14.8573
 30
0.0
 10
-12.1104
 20
-14.8573
 30
0.0
 10
-12.1104
 20
-14.8573
 30
0.0
 10
-12.1104
 20
-14.82167
 30
0.0
 10
-12.1104
 20
-14.82167
 30
0.0
 10
-12.1104
 20
-14.82167
 30
0.0
 10
-12.1104
 20
-14.82167
 30
0.0
 10
-11.9646
 20
-14.82167
 30
0.0
 10
-11.9646
 20
-14.82167
 30
0.0
 10
-11.9646
 20
-14.82167
 30
0.0
 10
-11.9646
 20
-14.82167
 30
0.0
 10
-11.9646
 20
-14.86367
 30
0.0
 10
-11.9646
 20
-14.86367
 30
0.0
 10
-11.9646
 20
-14.86367
 30
0.0
 10
-11.9646
 20
-14.86367
 30
0.0
 10
-12.0646
 20
-14.9167
 30
0.0
 10
-12.0646
 20
-14.9167
 30
0.0
 10
-12.0646
 20
-14.9167
 30
0.0
 10
-12.0646
 20
-14.9167
 30
0.0
 10
-11.9646
 20
-14.9167
 30
0.0
 10
-11.9646
 20
-14.9167
 30
0.0
 10
-11.9646
 20
-14.9167
 30
0.0
 10
-11.9646
 20
-14.9167
 30
0.0
 10
-11.9646
 20
-14.95233
 30
0.0
 10
-11.9646
 20
-14.95233
 30
0.0
 10
-11.9646
 20
-14.95233
 30
0.0
 10
-11.9646
 20
-14.95233
 30
0.0
 10
-12.1104
 20
-14.95233
 30
0.0
 10
-12.1104
 20
-14.95233
 30
0.0
  0
SPLINE
  5
6E
330
1F
100
AcDbEntity
  8
Layer 1
 62
   250
100
AcDbSpline
210
0.0
220
0.0
230
1.0
 70
    11
 71
     3
 72
    80
 73
    76
 74
     0
 42
0.0000000001
 43
0.0000000001
 40
0.0
 40
0.0
 40
0.0
 40
0.0
 40
0.0526315789473684
 40
0.0526315789473684
 40
0.0526315789473684
 40
0.0526315789473684
 40
0.1052631578947368
 40
0.1052631578947368
 40
0.1052631578947368
 40
0.1052631578947368
 40
0.1578947368421053
 40
0.1578947368421053
 40
0.1578947368421053
 40
0.1578947368421053
 40
0.2105263157894737
 40
0.2105263157894737
 40
0.2105263157894737
 40
0.2105263157894737
 40
0.2631578947368421
 40
0.2631578947368421
 40
0.2631578947368421
 40
0.2631578947368421
 40
0.3157894736842105
 40
0.3157894736842105
 40
0.3157894736842105
 40
0.3157894736842105
 40
0.3684210526315789
 40
0.3684210526315789
 40
0.3684210526315789
 40
0.3684210526315789
 40
0.4210526315789473
 40
0.4210526315789473
 40
0.4210526315789473
 40
0.4210526315789473
 40
0.4736842105263158
 40
0.4736842105263158
 40
0.4736842105263158
 40
0.4736842105263158
 40
0.5263157894736842
 40
0.5263157894736842
 40
0.5263157894736842
 40
0.5263157894736842
 40
0.5789473684210527
 40
0.5789473684210527
 40
0.5789473684210527
 40
0.5789473684210527
 40
0.631578947368421
 40
0.631578947368421
 40
0.631578947368421
 40
0.631578947368421
 40
0.6842105263157894
 40
0.6842105263157894
 40
0.6842105263157894
 40
0.6842105263157894
 40
0.7368421052631577
 40
0.7368421052631577
 40
0.7368421052631577
 40
0.7368421052631577
 40
0.7894736842105261
 40
0.7894736842105261
 40
0.7894736842105261
 40
0.7894736842105261
 40
0.8421052631578945
 40
0.8421052631578945
 40
0.8421052631578945
 40
0.8421052631578945
 40
0.8947368421052628
 40
0.8947368421052628
 40
0.8947368421052628
 40
0.8947368421052628
 40
0.9473684210526312
 40
0.9473684210526312
 40
0.9473684210526312
 40
0.9473684210526312
 40
1.0
 40
1.0
 40
1.0
 40
1.0
 10
-11.99223
 20
-14.67607
 30
0.0
 10
-11.99223
 20
-14.67607
 30
0.0
 10
-11.99223
 20
-14.6119
 30
0.0
 10
-11.99223
 20
-14.6119
 30
0.0
 10
-11.99223
 20
-14.6119
 30
0.0
 10
-11.99223
 20
-14.6119
 30
0.0
 10
-11.9646
 20
-14.6119
 30
0.0
 10
-11.9646
 20
-14.6119
 30
0.0
 10
-11.9646
 20
-14.6119
 30
0.0
 10
-11.9646
 20
-14.6119
 30
0.0
 10
-11.9646
 20
-14.71787
 30
0.0
 10
-11.9646
 20
-14.71787
 30
0.0
 10
-11.9646
 20
-14.71787
 30
0.0
 10
-11.9646
 20
-14.71787
 30
0.0
 10
-11.99223
 20
-14.71787
 30
0.0
 10
-11.99223
 20
-14.71787
 30
0.0
 10
-11.99223
 20
-14.71787
 30
0.0
 10
-11.99223
 20
-14.71787
 30
0.0
 10
-12.0392
 20
-14.66463
 30
0.0
 10
-12.0392
 20
-14.66463
 30
0.0
 10
-12.0392
 20
-14.66463
 30
0.0
 10
-12.0435
 20
-14.65987
 30
0.0
 10
-12.0477
 20
-14.65637
 30
0.0
 10
-12.0518
 20
-14.6541
 30
0.0
 10
-12.0518
 20
-14.6541
 30
0.0
 10
-12.0559
 20
-14.6518
 30
0.0
 10
-12.06017
 20
-14.65067
 30
0.0
 10
-12.0646
 20
-14.65067
 30
0.0
 10
-12.0646
 20
-14.65067
 30
0.0
 10
-12.07143
 20
-14.65067
 30
0.0
 10
-12.07693
 20
-14.65297
 30
0.0
 10
-12.0811
 20
-14.65757
 30
0.0
 10
-12.0811
 20
-14.65757
 30
0.0
 10
-12.08527
 20
-14.66213
 30
0.0
 10
-12.08733
 20
-14.66823
 30
0.0
 10
-12.08733
 20
-14.67587
 30
0.0
 10
-12.08733
 20
-14.67587
 30
0.0
 10
-12.08733
 20
-14.68173
 30
0.0
 10
-12.08607
 20
-14.68813
 30
0.0
 10
-12.08357
 20
-14.6951
 30
0.0
 10
-12.08357
 20
-14.6951
 30
0.0
 10
-12.08107
 20
-14.70207
 30
0.0
 10
-12.07733
 20
-14.70953
 30
0.0
 10
-12.0724
 20
-14.71747
 30
0.0
 10
-12.0724
 20
-14.71747
 30
0.0
 10
-12.0724
 20
-14.71747
 30
0.0
 10
-12.10443
 20
-14.71747
 30
0.0
 10
-12.10443
 20
-14.71747
 30
0.0
 10
-12.10443
 20
-14.71747
 30
0.0
 10
-12.10723
 20
-14.709
 30
0.0
 10
-12.10937
 20
-14.70063
 30
0.0
 10
-12.11083
 20
-14.69237
 30
0.0
 10
-12.11083
 20
-14.69237
 30
0.0
 10
-12.1123
 20
-14.6841
 30
0.0
 10
-12.11303
 20
-14.676
 30
0.0
 10
-12.11303
 20
-14.66803
 30
0.0
 10
-12.11303
 20
-14.66803
 30
0.0
 10
-12.11303
 20
-14.6506
 30
0.0
 10
-12.1092
 20
-14.63703
 30
0.0
 10
-12.1015
 20
-14.62737
 30
0.0
 10
-12.1015
 20
-14.62737
 30
0.0
 10
-12.09383
 20
-14.6177
 30
0.0
 10
-12.08313
 20
-14.61287
 30
0.0
 10
-12.06937
 20
-14.61287
 30
0.0
 10
-12.06937
 20
-14.61287
 30
0.0
 10
-12.06143
 20
-14.61287
 30
0.0
 10
-12.05403
 20
-14.61493
 30
0.0
 10
-12.04717
 20
-14.61903
 30
0.0
 10
-12.04717
 20
-14.61903
 30
0.0
 10
-12.0403
 20
-14.62313
 30
0.0
 10
-12.0311
 20
-14.63177
 30
0.0
 10
-12.01957
 20
-14.6449
 30
0.0
 10
-12.01957
 20
-14.6449
 30
0.0
 10
-12.01957
 20
-14.6449
 30
0.0
 10
-11.99223
 20
-14.67607
 30
0.0
 10
-11.99223
 20
-14.67607
 30
0.0
  0
SPLINE
  5
6F
330
1F
100
AcDbEntity
  8
Layer 1
 62
   250
100
AcDbSpline
210
0.0
220
0.0
230
1.0
 70
    11
 71
     3
 72
    40
 73
    36
 74
     0
 42
0.0000000001
 43
0.0000000001
 40
0.0
 40
0.0
 40
0.0
 40
0.0
 40
0.1111111111111111
 40
0.1111111111111111
 40
0.1111111111111111
 40
0.1111111111111111
 40
0.2222222222222222
 40
0.2222222222222222
 40
0.2222222222222222
 40
0.2222222222222222
 40
0.3333333333333333
 40
0.3333333333333333
 40
0.3333333333333333
 40
0.3333333333333333
 40
0.4444444444444444
 40
0.4444444444444444
 40
0.4444444444444444
 40
0.4444444444444444
 40
0.5555555555555556
 40
0.5555555555555556
 40
0.5555555555555556
 40
0.5555555555555556
 40
0.6666666666666667
 40
0.6666666666666667
 40
0.6666666666666667
 40
0.6666666666666667
 40
0.7777777777777779
 40
0.7777777777777779
 40
0.7777777777777779
 40
0.7777777777777779
 40
0.8888888888888891
 40
0.8888888888888891
 40
0.8888888888888891
 40
0.8888888888888891
 40
1.0
 40
1.0
 40
1.0
 40
1.0
 10
-11.1104
 20
-15.1733
 30
0.0
 10
-11.1104
 20
-15.1733
 30
0.0
 10
-11.1104
 20
-15.1109
 30
0.0
 10
-11.1104
 20
-15.1109
 30
0.0
 10
-11.1104
 20
-15.1109
 30
0.0
 10
-11.1104
 20
-15.09234
 30
0.0
 10
-11.10627
 20
-15.0781
 30
0.0
 10
-11.09803
 20
-15.06817
 30
0.0
 10
-11.09803
 20
-15.06817
 30
0.0
 10
-11.0898
 20
-15.05824
 30
0.0
 10
-11.07807
 20
-15.05327
 30
0.0
 10
-11.06283
 20
-15.05327
 30
0.0
 10
-11.06283
 20
-15.05327
 30
0.0
 10
-11.04757
 20
-15.05327
 30
0.0
 10
-11.0358
 20
-15.05824
 30
0.0
 10
-11.02757
 20
-15.06817
 30
0.0
 10
-11.02757
 20
-15.06817
 30
0.0
 10
-11.01933
 20
-15.0781
 30
0.0
 10
-11.0152
 20
-15.09234
 30
0.0
 10
-11.0152
 20
-15.1109
 30
0.0
 10
-11.0152
 20
-15.1109
 30
0.0
 10
-11.0152
 20
-15.1109
 30
0.0
 10
-11.0152
 20
-15.1357
 30
0.0
 10
-11.0152
 20
-15.1357
 30
0.0
 10
-11.0152
 20
-15.1357
 30
0.0
 10
-11.0152
 20
-15.1357
 30
0.0
 10
-10.9646
 20
-15.1357
 30
0.0
 10
-10.9646
 20
-15.1357
 30
0.0
 10
-10.9646
 20
-15.1357
 30
0.0
 10
-10.9646
 20
-15.1357
 30
0.0
 10
-10.9646
 20
-15.1733
 30
0.0
 10
-10.9646
 20
-15.1733
 30
0.0
 10
-10.9646
 20
-15.1733
 30
0.0
 10
-10.9646
 20
-15.1733
 30
0.0
 10
-11.1104
 20
-15.1733
 30
0.0
 10
-11.1104
 20
-15.1733
 30
0.0
  0
SPLINE
  5
70
330
1F
100
AcDbEntity
  8
Layer 1
 62
   250
100
AcDbSpline
210
0.0
220
0.0
230
1.0
 70
    11
 71
     3
 72
    32
 73
    28
 74
     0
 42
0.0000000001
 43
0.0000000001
 40
0.0
 40
0.0
 40
0.0
 40
0.0
 40
0.1428571428571428
 40
0.1428571428571428
 40
0.1428571428571428
 40
0.1428571428571428
 40
0.2857142857142857
 40
0.2857142857142857
 40
0.2857142857142857
 40
0.2857142857142857
 40
0.4285714285714285
 40
0.4285714285714285
 40
0.4285714285714285
 40
0.4285714285714285
 40
0.5714285714285714
 40
0.5714285714285714
 40
0.5714285714285714
 40
0.5714285714285714
 40
0.7142857142857142
 40
0.7142857142857142
 40
0.7142857142857142
 40
0.7142857142857142
 40
0.857142857142857
 40
0.857142857142857
 40
0.857142857142857
 40
0.857142857142857
 40
1.0
 40
1.0
 40
1.0
 40
1.0
 10
-11.08317
 20
-15.1357
 30
0.0
 10
-11.08317
 20
-15.1357
 30
0.0
 10
-11.04243
 20
-15.1357
 30
0.0
 10
-11.04243
 20
-15.1357
 30
0.0
 10
-11.04243
 20
-15.1357
 30
0.0
 10
-11.04243
 20
-15.1357
 30
0.0
 10
-11.04243
 20
-15.1149
 30
0.0
 10
-11.04243
 20
-15.1149
 30
0.0
 10
-11.04243
 20
-15.1149
 30
0.0
 10
-11.04243
 20
-15.1076
 30
0.0
 10
-11.0442
 20
-15.10197
 30
0.0
 10
-11.04777
 20
-15.098
 30
0.0
 10
-11.04777
 20
-15.098
 30
0.0
 10
-11.0513
 20
-15.09404
 30
0.0
 10
-11.05633
 20
-15.09204
 30
0.0
 10
-11.06283
 20
-15.09204
 30
0.0
 10
-11.06283
 20
-15.09204
 30
0.0
 10
-11.06937
 20
-15.09204
 30
0.0
 10
-11.07437
 20
-15.09404
 30
0.0
 10
-11.0779
 20
-15.098
 30
0.0
 10
-11.0779
 20
-15.098
 30
0.0
 10
-11.0814
 20
-15.10197
 30
0.0
 10
-11.08317
 20
-15.1076
 30
0.0
 10
-11.08317
 20
-15.1149
 30
0.0
 10
-11.08317
 20
-15.1149
 30
0.0
 10
-11.08317
 20
-15.1149
 30
0.0
 10
-11.08317
 20
-15.1357
 30
0.0
 10
-11.08317
 20
-15.1357
 30
0.0
  0
SPLINE
  5
71
330
1F
100
AcDbEntity
  8
Layer 1
 62
   250
100
AcDbSpline
210
0.0
220
0.0
230
1.0
 70
    11
 71
     3
 72
    20
 73
    16
 74
     0
 42
0.0000000001
 43
0.0000000001
 40
0.0
 40
0.0
 40
0.0
 40
0.0
 40
0.25
 40
0.25
 40
0.25
 40
0.25
 40
0.5
 40
0.5
 40
0.5
 40
0.5
 40
0.75
 40
0.75
 40
0.75
 40
0.75
 40
1.0
 40
1.0
 40
1.0
 40
1.0
 10
-11.1104
 20
-15.02673
 30
0.0
 10
-11.1104
 20
-15.02673
 30
0.0
 10
-11.1104
 20
-14.98913
 30
0.0
 10
-11.1104
 20
-14.98913
 30
0.0
 10
-11.1104
 20
-14.98913
 30
0.0
 10
-11.1104
 20
-14.98913
 30
0.0
 10
-10.9646
 20
-14.98913
 30
0.0
 10
-10.9646
 20
-14.98913
 30
0.0
 10
-10.9646
 20
-14.98913
 30
0.0
 10
-10.9646
 20
-14.98913
 30
0.0
 10
-10.9646
 20
-15.02673
 30
0.0
 10
-10.9646
 20
-15.02673
 30
0.0
 10
-10.9646
 20
-15.02673
 30
0.0
 10
-10.9646
 20
-15.02673
 30
0.0
 10
-11.1104
 20
-15.02673
 30
0.0
 10
-11.1104
 20
-15.02673
 30
0.0
  0
SPLINE
  5
72
330
1F
100
AcDbEntity
  8
Layer 1
 62
   250
100
AcDbSpline
210
0.0
220
0.0
230
1.0
 70
    11
 71
     3
 72
    44
 73
    40
 74
     0
 42
0.0000000001
 43
0.0000000001
 40
0.0
 40
0.0
 40
0.0
 40
0.0
 40
0.1
 40
0.1
 40
0.1
 40
0.1
 40
0.2
 40
0.2
 40
0.2
 40
0.2
 40
0.3
 40
0.3
 40
0.3
 40
0.3
 40
0.4
 40
0.4
 40
0.4
 40
0.4
 40
0.5
 40
0.5
 40
0.5
 40
0.5
 40
0.6
 40
0.6
 40
0.6
 40
0.6
 40
0.7
 40
0.7
 40
0.7
 40
0.7
 40
0.7999999999999999
 40
0.7999999999999999
 40
0.7999999999999999
 40
0.7999999999999999
 40
0.8999999999999999
 40
0.8999999999999999
 40
0.8999999999999999
 40
0.8999999999999999
 40
1.0
 40
1.0
 40
1.0
 40
1.0
 10
-11.1104
 20
-14.95233
 30
0.0
 10
-11.1104
 20
-14.95233
 30
0.0
 10
-11.1104
 20
-14.91033
 30
0.0
 10
-11.1104
 20
-14.91033
 30
0.0
 10
-11.1104
 20
-14.91033
 30
0.0
 10
-11.1104
 20
-14.91033
 30
0.0
 10
-11.0104
 20
-14.8573
 30
0.0
 10
-11.0104
 20
-14.8573
 30
0.0
 10
-11.0104
 20
-14.8573
 30
0.0
 10
-11.0104
 20
-14.8573
 30
0.0
 10
-11.1104
 20
-14.8573
 30
0.0
 10
-11.1104
 20
-14.8573
 30
0.0
 10
-11.1104
 20
-14.8573
 30
0.0
 10
-11.1104
 20
-14.8573
 30
0.0
 10
-11.1104
 20
-14.82167
 30
0.0
 10
-11.1104
 20
-14.82167
 30
0.0
 10
-11.1104
 20
-14.82167
 30
0.0
 10
-11.1104
 20
-14.82167
 30
0.0
 10
-10.9646
 20
-14.82167
 30
0.0
 10
-10.9646
 20
-14.82167
 30
0.0
 10
-10.9646
 20
-14.82167
 30
0.0
 10
-10.9646
 20
-14.82167
 30
0.0
 10
-10.9646
 20
-14.86367
 30
0.0
 10
-10.9646
 20
-14.86367
 30
0.0
 10
-10.9646
 20
-14.86367
 30
0.0
 10
-10.9646
 20
-14.86367
 30
0.0
 10
-11.0646
 20
-14.9167
 30
0.0
 10
-11.0646
 20
-14.9167
 30
0.0
 10
-11.0646
 20
-14.9167
 30
0.0
 10
-11.0646
 20
-14.9167
 30
0.0
 10
-10.9646
 20
-14.9167
 30
0.0
 10
-10.9646
 20
-14.9167
 30
0.0
 10
-10.9646
 20
-14.9167
 30
0.0
 10
-10.9646
 20
-14.9167
 30
0.0
 10
-10.9646
 20
-14.95233
 30
0.0
 10
-10.9646
 20
-14.95233
 30
0.0
 10
-10.9646
 20
-14.95233
 30
0.0
 10
-10.9646
 20
-14.95233
 30
0.0
 10
-11.1104
 20
-14.95233
 30
0.0
 10
-11.1104
 20
-14.95233
 30
0.0
  0
SPLINE
  5
73
330
1F
100
AcDbEntity
  8
Layer 1
 62
   250
100
AcDbSpline
210
0.0
220
0.0
230
1.0
 70
    11
 71
     3
 72
   120
 73
   116
 74
     0
 42
0.0000000001
 43
0.0000000001
 40
0.0
 40
0.0
 40
0.0
 40
0.0
 40
0.0344827586206897
 40
0.0344827586206897
 40
0.0344827586206897
 40
0.0344827586206897
 40
0.0689655172413793
 40
0.0689655172413793
 40
0.0689655172413793
 40
0.0689655172413793
 40
0.103448275862069
 40
0.103448275862069
 40
0.103448275862069
 40
0.103448275862069
 40
0.1379310344827586
 40
0.1379310344827586
 40
0.1379310344827586
 40
0.1379310344827586
 40
0.1724137931034483
 40
0.1724137931034483
 40
0.1724137931034483
 40
0.1724137931034483
 40
0.206896551724138
 40
0.206896551724138
 40
0.206896551724138
 40
0.206896551724138
 40
0.2413793103448276
 40
0.2413793103448276
 40
0.2413793103448276
 40
0.2413793103448276
 40
0.2758620689655173
 40
0.2758620689655173
 40
0.2758620689655173
 40
0.2758620689655173
 40
0.310344827586207
 40
0.310344827586207
 40
0.310344827586207
 40
0.310344827586207
 40
0.3448275862068966
 40
0.3448275862068966
 40
0.3448275862068966
 40
0.3448275862068966
 40
0.3793103448275863
 40
0.3793103448275863
 40
0.3793103448275863
 40
0.3793103448275863
 40
0.413793103448276
 40
0.413793103448276
 40
0.413793103448276
 40
0.413793103448276
 40
0.4482758620689656
 40
0.4482758620689656
 40
0.4482758620689656
 40
0.4482758620689656
 40
0.4827586206896553
 40
0.4827586206896553
 40
0.4827586206896553
 40
0.4827586206896553
 40
0.517241379310345
 40
0.517241379310345
 40
0.517241379310345
 40
0.517241379310345
 40
0.5517241379310346
 40
0.5517241379310346
 40
0.5517241379310346
 40
0.5517241379310346
 40
0.5862068965517242
 40
0.5862068965517242
 40
0.5862068965517242
 40
0.5862068965517242
 40
0.6206896551724138
 40
0.6206896551724138
 40
0.6206896551724138
 40
0.6206896551724138
 40
0.6551724137931034
 40
0.6551724137931034
 40
0.6551724137931034
 40
0.6551724137931034
 40
0.689655172413793
 40
0.689655172413793
 40
0.689655172413793
 40
0.689655172413793
 40
0.7241379310344827
 40
0.7241379310344827
 40
0.7241379310344827
 40
0.7241379310344827
 40
0.7586206896551723
 40
0.7586206896551723
 40
0.7586206896551723
 40
0.7586206896551723
 40
0.7931034482758619
 40
0.7931034482758619
 40
0.7931034482758619
 40
0.7931034482758619
 40
0.8275862068965515
 40
0.8275862068965515
 40
0.8275862068965515
 40
0.8275862068965515
 40
0.8620689655172411
 40
0.8620689655172411
 40
0.8620689655172411
 40
0.8620689655172411
 40
0.8965517241379307
 40
0.8965517241379307
 40
0.8965517241379307
 40
0.8965517241379307
 40
0.9310344827586203
 40
0.9310344827586203
 40
0.9310344827586203
 40
0.9310344827586203
 40
0.9655172413793099
 40
0.9655172413793099
 40
0.9655172413793099
 40
0.9655172413793099
 40
1.0
 40
1.0
 40
1.0
 40
1.0
 10
-11.04323
 20
-14.64053
 30
0.0
 10
-11.0407
 20
-14.63073
 30
0.0
 10
-11.03627
 20
-14.62323
 30
0.0
 10
-11.03
 20
-14.61813
 30
0.0
 10
-11.03
 20
-14.61813
 30
0.0
 10
-11.0237
 20
-14.61303
 30
0.0
 10
-11.01573
 20
-14.61047
 30
0.0
 10
-11.00603
 20
-14.61047
 30
0.0
 10
-11.00603
 20
-14.61047
 30
0.0
 10
-10.99157
 20
-14.61047
 30
0.0
 10
-10.98057
 20
-14.616
 30
0.0
 10
-10.97303
 20
-14.62707
 30
0.0
 10
-10.97303
 20
-14.62707
 30
0.0
 10
-10.96553
 20
-14.63813
 30
0.0
 10
-10.96177
 20
-14.65427
 30
0.0
 10
-10.96177
 20
-14.6755
 30
0.0
 10
-10.96177
 20
-14.6755
 30
0.0
 10
-10.96177
 20
-14.683
 30
0.0
 10
-10.96237
 20
-14.6905
 30
0.0
 10
-10.96357
 20
-14.69803
 30
0.0
 10
-10.96357
 20
-14.69803
 30
0.0
 10
-10.96477
 20
-14.70553
 30
0.0
 10
-10.9666
 20
-14.71297
 30
0.0
 10
-10.969
 20
-14.72033
 30
0.0
 10
-10.969
 20
-14.72033
 30
0.0
 10
-10.969
 20
-14.72033
 30
0.0
 10
-10.998
 20
-14.72033
 30
0.0
 10
-10.998
 20
-14.72033
 30
0.0
 10
-10.998
 20
-14.72033
 30
0.0
 10
-10.9945
 20
-14.7133
 30
0.0
 10
-10.99183
 20
-14.70633
 30
0.0
 10
-10.99003
 20
-14.6994
 30
0.0
 10
-10.99003
 20
-14.6994
 30
0.0
 10
-10.98827
 20
-14.69247
 30
0.0
 10
-10.98737
 20
-14.68563
 30
0.0
 10
-10.98737
 20
-14.67893
 30
0.0
 10
-10.98737
 20
-14.67893
 30
0.0
 10
-10.98737
 20
-14.66897
 30
0.0
 10
-10.9891
 20
-14.66133
 30
0.0
 10
-10.99253
 20
-14.65603
 30
0.0
 10
-10.99253
 20
-14.65603
 30
0.0
 10
-10.996
 20
-14.65073
 30
0.0
 10
-11.00093
 20
-14.64807
 30
0.0
 10
-11.0074
 20
-14.64807
 30
0.0
 10
-11.0074
 20
-14.64807
 30
0.0
 10
-11.01403
 20
-14.64807
 30
0.0
 10
-11.01907
 20
-14.6508
 30
0.0
 10
-11.02247
 20
-14.65623
 30
0.0
 10
-11.02247
 20
-14.65623
 30
0.0
 10
-11.0259
 20
-14.66167
 30
0.0
 10
-11.0276
 20
-14.6697
 30
0.0
 10
-11.0276
 20
-14.6803
 30
0.0
 10
-11.0276
 20
-14.6803
 30
0.0
 10
-11.0276
 20
-14.6803
 30
0.0
 10
-11.0276
 20
-14.69533
 30
0.0
 10
-11.0276
 20
-14.69533
 30
0.0
 10
-11.0276
 20
-14.69533
 30
0.0
 10
-11.0276
 20
-14.69533
 30
0.0
 10
-11.05183
 20
-14.69533
 30
0.0
 10
-11.05183
 20
-14.69533
 30
0.0
 10
-11.05183
 20
-14.69533
 30
0.0
 10
-11.05183
 20
-14.69533
 30
0.0
 10
-11.05183
 20
-14.67953
 30
0.0
 10
-11.05183
 20
-14.67953
 30
0.0
 10
-11.05183
 20
-14.67953
 30
0.0
 10
-11.05183
 20
-14.67007
 30
0.0
 10
-11.0533
 20
-14.66307
 30
0.0
 10
-11.05627
 20
-14.65843
 30
0.0
 10
-11.05627
 20
-14.65843
 30
0.0
 10
-11.05923
 20
-14.6538
 30
0.0
 10
-11.06373
 20
-14.6515
 30
0.0
 10
-11.06977
 20
-14.6515
 30
0.0
 10
-11.06977
 20
-14.6515
 30
0.0
 10
-11.07537
 20
-14.6515
 30
0.0
 10
-11.0797
 20
-14.65373
 30
0.0
 10
-11.08273
 20
-14.65823
 30
0.0
 10
-11.08273
 20
-14.65823
 30
0.0
 10
-11.0858
 20
-14.66273
 30
0.0
 10
-11.08733
 20
-14.66907
 30
0.0
 10
-11.08733
 20
-14.67727
 30
0.0
 10
-11.08733
 20
-14.67727
 30
0.0
 10
-11.08733
 20
-14.68333
 30
0.0
 10
-11.08667
 20
-14.68943
 30
0.0
 10
-11.0853
 20
-14.69563
 30
0.0
 10
-11.0853
 20
-14.69563
 30
0.0
 10
-11.08393
 20
-14.7018
 30
0.0
 10
-11.0819
 20
-14.70793
 30
0.0
 10
-11.07923
 20
-14.71407
 30
0.0
 10
-11.07923
 20
-14.71407
 30
0.0
 10
-11.07923
 20
-14.71407
 30
0.0
 10
-11.10677
 20
-14.71407
 30
0.0
 10
-11.10677
 20
-14.71407
 30
0.0
 10
-11.10677
 20
-14.71407
 30
0.0
 10
-11.10887
 20
-14.70663
 30
0.0
 10
-11.11043
 20
-14.6993
 30
0.0
 10
-11.11147
 20
-14.692
 30
0.0
 10
-11.11147
 20
-14.692
 30
0.0
 10
-11.1125
 20
-14.6847
 30
0.0
 10
-11.11303
 20
-14.67757
 30
0.0
 10
-11.11303
 20
-14.67053
 30
0.0
 10
-11.11303
 20
-14.67053
 30
0.0
 10
-11.11303
 20
-14.6516
 30
0.0
 10
-11.10993
 20
-14.6374
 30
0.0
 10
-11.1037
 20
-14.628
 30
0.0
 10
-11.1037
 20
-14.628
 30
0.0
 10
-11.0975
 20
-14.6186
 30
0.0
 10
-11.08813
 20
-14.6139
 30
0.0
 10
-11.07563
 20
-14.6139
 30
0.0
 10
-11.07563
 20
-14.6139
 30
0.0
 10
-11.06713
 20
-14.6139
 30
0.0
 10
-11.06013
 20
-14.61613
 30
0.0
 10
-11.0547
 20
-14.62063
 30
0.0
 10
-11.0547
 20
-14.62063
 30
0.0
 10
-11.04927
 20
-14.62513
 30
0.0
 10
-11.04543
 20
-14.63177
 30
0.0
 10
-11.04323
 20
-14.64053
 30
0.0
  0
SPLINE
  5
74
330
1F
100
AcDbEntity
  8
Layer 1
 62
   250
100
AcDbSpline
210
0.0
220
0.0
230
1.0
 70
    11
 71
     3
 72
    40
 73
    36
 74
     0
 42
0.0000000001
 43
0.0000000001
 40
0.0
 40
0.0
 40
0.0
 40
0.0
 40
0.1111111111111111
 40
0.1111111111111111
 40
0.1111111111111111
 40
0.1111111111111111
 40
0.2222222222222222
 40
0.2222222222222222
 40
0.2222222222222222
 40
0.2222222222222222
 40
0.3333333333333333
 40
0.3333333333333333
 40
0.3333333333333333
 40
0.3333333333333333
 40
0.4444444444444444
 40
0.4444444444444444
 40
0.4444444444444444
 40
0.4444444444444444
 40
0.5555555555555556
 40
0.5555555555555556
 40
0.5555555555555556
 40
0.5555555555555556
 40
0.6666666666666667
 40
0.6666666666666667
 40
0.6666666666666667
 40
0.6666666666666667
 40
0.7777777777777779
 40
0.7777777777777779
 40
0.7777777777777779
 40
0.7777777777777779
 40
0.8888888888888891
 40
0.8888888888888891
 40
0.8888888888888891
 40
0.8888888888888891
 40
1.0
 40
1.0
 40
1.0
 40
1.0
 10
-10.1105
 20
-15.17348
 30
0.0
 10
-10.1105
 20
-15.17348
 30
0.0
 10
-10.1105
 20
-15.11108
 30
0.0
 10
-10.1105
 20
-15.11108
 30
0.0
 10
-10.1105
 20
-15.11108
 30
0.0
 10
-10.1105
 20
-15.09252
 30
0.0
 10
-10.10637
 20
-15.07828
 30
0.0
 10
-10.09813
 20
-15.06835
 30
0.0
 10
-10.09813
 20
-15.06835
 30
0.0
 10
-10.0899
 20
-15.05842
 30
0.0
 10
-10.07817
 20
-15.05345
 30
0.0
 10
-10.06293
 20
-15.05345
 30
0.0
 10
-10.06293
 20
-15.05345
 30
0.0
 10
-10.04767
 20
-15.05345
 30
0.0
 10
-10.0359
 20
-15.05842
 30
0.0
 10
-10.02767
 20
-15.06835
 30
0.0
 10
-10.02767
 20
-15.06835
 30
0.0
 10
-10.01943
 20
-15.07828
 30
0.0
 10
-10.0153
 20
-15.09252
 30
0.0
 10
-10.0153
 20
-15.11108
 30
0.0
 10
-10.0153
 20
-15.11108
 30
0.0
 10
-10.0153
 20
-15.11108
 30
0.0
 10
-10.0153
 20
-15.13588
 30
0.0
 10
-10.0153
 20
-15.13588
 30
0.0
 10
-10.0153
 20
-15.13588
 30
0.0
 10
-10.0153
 20
-15.13588
 30
0.0
 10
-9.9647
 20
-15.13588
 30
0.0
 10
-9.9647
 20
-15.13588
 30
0.0
 10
-9.9647
 20
-15.13588
 30
0.0
 10
-9.9647
 20
-15.13588
 30
0.0
 10
-9.9647
 20
-15.17348
 30
0.0
 10
-9.9647
 20
-15.17348
 30
0.0
 10
-9.9647
 20
-15.17348
 30
0.0
 10
-9.9647
 20
-15.17348
 30
0.0
 10
-10.1105
 20
-15.17348
 30
0.0
 10
-10.1105
 20
-15.17348
 30
0.0
  0
SPLINE
  5
75
330
1F
100
AcDbEntity
  8
Layer 1
 62
   250
100
AcDbSpline
210
0.0
220
0.0
230
1.0
 70
    11
 71
     3
 72
    32
 73
    28
 74
     0
 42
0.0000000001
 43
0.0000000001
 40
0.0
 40
0.0
 40
0.0
 40
0.0
 40
0.1428571428571428
 40
0.1428571428571428
 40
0.1428571428571428
 40
0.1428571428571428
 40
0.2857142857142857
 40
0.2857142857142857
 40
0.2857142857142857
 40
0.2857142857142857
 40
0.4285714285714285
 40
0.4285714285714285
 40
0.4285714285714285
 40
0.4285714285714285
 40
0.5714285714285714
 40
0.5714285714285714
 40
0.5714285714285714
 40
0.5714285714285714
 40
0.7142857142857142
 40
0.7142857142857142
 40
0.7142857142857142
 40
0.7142857142857142
 40
0.857142857142857
 40
0.857142857142857
 40
0.857142857142857
 40
0.857142857142857
 40
1.0
 40
1.0
 40
1.0
 40
1.0
 10
-10.08327
 20
-15.13588
 30
0.0
 10
-10.08327
 20
-15.13588
 30
0.0
 10
-10.04253
 20
-15.13588
 30
0.0
 10
-10.04253
 20
-15.13588
 30
0.0
 10
-10.04253
 20
-15.13588
 30
0.0
 10
-10.04253
 20
-15.13588
 30
0.0
 10
-10.04253
 20
-15.11508
 30
0.0
 10
-10.04253
 20
-15.11508
 30
0.0
 10
-10.04253
 20
-15.11508
 30
0.0
 10
-10.04253
 20
-15.10778
 30
0.0
 10
-10.0443
 20
-15.10215
 30
0.0
 10
-10.04787
 20
-15.09818
 30
0.0
 10
-10.04787
 20
-15.09818
 30
0.0
 10
-10.0514
 20
-15.09422
 30
0.0
 10
-10.05643
 20
-15.09222
 30
0.0
 10
-10.06293
 20
-15.09222
 30
0.0
 10
-10.06293
 20
-15.09222
 30
0.0
 10
-10.06947
 20
-15.09222
 30
0.0
 10
-10.07447
 20
-15.09422
 30
0.0
 10
-10.078
 20
-15.09818
 30
0.0
 10
-10.078
 20
-15.09818
 30
0.0
 10
-10.0815
 20
-15.10215
 30
0.0
 10
-10.08327
 20
-15.10778
 30
0.0
 10
-10.08327
 20
-15.11508
 30
0.0
 10
-10.08327
 20
-15.11508
 30
0.0
 10
-10.08327
 20
-15.11508
 30
0.0
 10
-10.08327
 20
-15.13588
 30
0.0
 10
-10.08327
 20
-15.13588
 30
0.0
  0
SPLINE
  5
76
330
1F
100
AcDbEntity
  8
Layer 1
 62
   250
100
AcDbSpline
210
0.0
220
0.0
230
1.0
 70
    11
 71
     3
 72
    20
 73
    16
 74
     0
 42
0.0000000001
 43
0.0000000001
 40
0.0
 40
0.0
 40
0.0
 40
0.0
 40
0.25
 40
0.25
 40
0.25
 40
0.25
 40
0.5
 40
0.5
 40
0.5
 40
0.5
 40
0.75
 40
0.75
 40
0.75
 40
0.75
 40
1.0
 40
1.0
 40
1.0
 40
1.0
 10
-10.1105
 20
-15.02691
 30
0.0
 10
-10.1105
 20
-15.02691
 30
0.0
 10
-10.1105
 20
-14.98931
 30
0.0
 10
-10.1105
 20
-14.98931
 30
0.0
 10
-10.1105
 20
-14.98931
 30
0.0
 10
-10.1105
 20
-14.98931
 30
0.0
 10
-9.9647
 20
-14.98931
 30
0.0
 10
-9.9647
 20
-14.98931
 30
0.0
 10
-9.9647
 20
-14.98931
 30
0.0
 10
-9.9647
 20
-14.98931
 30
0.0
 10
-9.9647
 20
-15.02691
 30
0.0
 10
-9.9647
 20
-15.02691
 30
0.0
 10
-9.9647
 20
-15.02691
 30
0.0
 10
-9.9647
 20
-15.02691
 30
0.0
 10
-10.1105
 20
-15.02691
 30
0.0
 10
-10.1105
 20
-15.02691
 30
0.0
  0
SPLINE
  5
77
330
1F
100
AcDbEntity
  8
Layer 1
 62
   250
100
AcDbSpline
210
0.0
220
0.0
230
1.0
 70
    11
 71
     3
 72
    44
 73
    40
 74
     0
 42
0.0000000001
 43
0.0000000001
 40
0.0
 40
0.0
 40
0.0
 40
0.0
 40
0.1
 40
0.1
 40
0.1
 40
0.1
 40
0.2
 40
0.2
 40
0.2
 40
0.2
 40
0.3
 40
0.3
 40
0.3
 40
0.3
 40
0.4
 40
0.4
 40
0.4
 40
0.4
 40
0.5
 40
0.5
 40
0.5
 40
0.5
 40
0.6
 40
0.6
 40
0.6
 40
0.6
 40
0.7
 40
0.7
 40
0.7
 40
0.7
 40
0.7999999999999999
 40
0.7999999999999999
 40
0.7999999999999999
 40
0.7999999999999999
 40
0.8999999999999999
 40
0.8999999999999999
 40
0.8999999999999999
 40
0.8999999999999999
 40
1.0
 40
1.0
 40
1.0
 40
1.0
 10
-10.1105
 20
-14.95251
 30
0.0
 10
-10.1105
 20
-14.95251
 30
0.0
 10
-10.1105
 20
-14.91051
 30
0.0
 10
-10.1105
 20
-14.91051
 30
0.0
 10
-10.1105
 20
-14.91051
 30
0.0
 10
-10.1105
 20
-14.91051
 30
0.0
 10
-10.0105
 20
-14.85748
 30
0.0
 10
-10.0105
 20
-14.85748
 30
0.0
 10
-10.0105
 20
-14.85748
 30
0.0
 10
-10.0105
 20
-14.85748
 30
0.0
 10
-10.1105
 20
-14.85748
 30
0.0
 10
-10.1105
 20
-14.85748
 30
0.0
 10
-10.1105
 20
-14.85748
 30
0.0
 10
-10.1105
 20
-14.85748
 30
0.0
 10
-10.1105
 20
-14.82185
 30
0.0
 10
-10.1105
 20
-14.82185
 30
0.0
 10
-10.1105
 20
-14.82185
 30
0.0
 10
-10.1105
 20
-14.82185
 30
0.0
 10
-9.9647
 20
-14.82185
 30
0.0
 10
-9.9647
 20
-14.82185
 30
0.0
 10
-9.9647
 20
-14.82185
 30
0.0
 10
-9.9647
 20
-14.82185
 30
0.0
 10
-9.9647
 20
-14.86385
 30
0.0
 10
-9.9647
 20
-14.86385
 30
0.0
 10
-9.9647
 20
-14.86385
 30
0.0
 10
-9.9647
 20
-14.86385
 30
0.0
 10
-10.0647
 20
-14.91688
 30
0.0
 10
-10.0647
 20
-14.91688
 30
0.0
 10
-10.0647
 20
-14.91688
 30
0.0
 10
-10.0647
 20
-14.91688
 30
0.0
 10
-9.9647
 20
-14.91688
 30
0.0
 10
-9.9647
 20
-14.91688
 30
0.0
 10
-9.9647
 20
-14.91688
 30
0.0
 10
-9.9647
 20
-14.91688
 30
0.0
 10
-9.9647
 20
-14.95251
 30
0.0
 10
-9.9647
 20
-14.95251
 30
0.0
 10
-9.9647
 20
-14.95251
 30
0.0
 10
-9.9647
 20
-14.95251
 30
0.0
 10
-10.1105
 20
-14.95251
 30
0.0
 10
-10.1105
 20
-14.95251
 30
0.0
  0
SPLINE
  5
78
330
1F
100
AcDbEntity
  8
Layer 1
 62
   250
100
AcDbSpline
210
0.0
220
0.0
230
1.0
 70
    11
 71
     3
 72
    16
 73
    12
 74
     0
 42
0.0000000001
 43
0.0000000001
 40
0.0
 40
0.0
 40
0.0
 40
0.0
 40
0.3333333333333333
 40
0.3333333333333333
 40
0.3333333333333333
 40
0.3333333333333333
 40
0.6666666666666666
 40
0.6666666666666666
 40
0.6666666666666666
 40
0.6666666666666666
 40
1.0
 40
1.0
 40
1.0
 40
1.0
 10
-10.07953
 20
-14.66021
 30
0.0
 10
-10.07953
 20
-14.66021
 30
0.0
 10
-10.0185
 20
-14.70145
 30
0.0
 10
-10.0185
 20
-14.70145
 30
0.0
 10
-10.0185
 20
-14.70145
 30
0.0
 10
-10.0185
 20
-14.70145
 30
0.0
 10
-10.0185
 20
-14.66021
 30
0.0
 10
-10.0185
 20
-14.66021
 30
0.0
 10
-10.0185
 20
-14.66021
 30
0.0
 10
-10.0185
 20
-14.66021
 30
0.0
 10
-10.07953
 20
-14.66021
 30
0.0
 10
-10.07953
 20
-14.66021
 30
0.0
  0
SPLINE
  5
79
330
1F
100
AcDbEntity
  8
Layer 1
 62
   250
100
AcDbSpline
210
0.0
220
0.0
230
1.0
 70
    11
 71
     3
 72
    48
 73
    44
 74
     0
 42
0.0000000001
 43
0.0000000001
 40
0.0
 40
0.0
 40
0.0
 40
0.0
 40
0.0909090909090909
 40
0.0909090909090909
 40
0.0909090909090909
 40
0.0909090909090909
 40
0.1818181818181818
 40
0.1818181818181818
 40
0.1818181818181818
 40
0.1818181818181818
 40
0.2727272727272727
 40
0.2727272727272727
 40
0.2727272727272727
 40
0.2727272727272727
 40
0.3636363636363636
 40
0.3636363636363636
 40
0.3636363636363636
 40
0.3636363636363636
 40
0.4545454545454546
 40
0.4545454545454546
 40
0.4545454545454546
 40
0.4545454545454546
 40
0.5454545454545455
 40
0.5454545454545455
 40
0.5454545454545455
 40
0.5454545454545455
 40
0.6363636363636365
 40
0.6363636363636365
 40
0.6363636363636365
 40
0.6363636363636365
 40
0.7272727272727274
 40
0.7272727272727274
 40
0.7272727272727274
 40
0.7272727272727274
 40
0.8181818181818183
 40
0.8181818181818183
 40
0.8181818181818183
 40
0.8181818181818183
 40
0.9090909090909093
 40
0.9090909090909093
 40
0.9090909090909093
 40
0.9090909090909093
 40
1.0
 40
1.0
 40
1.0
 40
1.0
 10
-10.1105
 20
-14.66648
 30
0.0
 10
-10.1105
 20
-14.66648
 30
0.0
 10
-10.1105
 20
-14.62468
 30
0.0
 10
-10.1105
 20
-14.62468
 30
0.0
 10
-10.1105
 20
-14.62468
 30
0.0
 10
-10.1105
 20
-14.62468
 30
0.0
 10
-10.0185
 20
-14.62468
 30
0.0
 10
-10.0185
 20
-14.62468
 30
0.0
 10
-10.0185
 20
-14.62468
 30
0.0
 10
-10.0185
 20
-14.62468
 30
0.0
 10
-10.0185
 20
-14.60388
 30
0.0
 10
-10.0185
 20
-14.60388
 30
0.0
 10
-10.0185
 20
-14.60388
 30
0.0
 10
-10.0185
 20
-14.60388
 30
0.0
 10
-9.99127
 20
-14.60388
 30
0.0
 10
-9.99127
 20
-14.60388
 30
0.0
 10
-9.99127
 20
-14.60388
 30
0.0
 10
-9.99127
 20
-14.60388
 30
0.0
 10
-9.99127
 20
-14.62468
 30
0.0
 10
-9.99127
 20
-14.62468
 30
0.0
 10
-9.99127
 20
-14.62468
 30
0.0
 10
-9.99127
 20
-14.62468
 30
0.0
 10
-9.9647
 20
-14.62468
 30
0.0
 10
-9.9647
 20
-14.62468
 30
0.0
 10
-9.9647
 20
-14.62468
 30
0.0
 10
-9.9647
 20
-14.62468
 30
0.0
 10
-9.9647
 20
-14.66021
 30
0.0
 10
-9.9647
 20
-14.66021
 30
0.0
 10
-9.9647
 20
-14.66021
 30
0.0
 10
-9.9647
 20
-14.66021
 30
0.0
 10
-9.99127
 20
-14.66021
 30
0.0
 10
-9.99127
 20
-14.66021
 30
0.0
 10
-9.99127
 20
-14.66021
 30
0.0
 10
-9.99127
 20
-14.66021
 30
0.0
 10
-9.99127
 20
-14.72488
 30
0.0
 10
-9.99127
 20
-14.72488
 30
0.0
 10
-9.99127
 20
-14.72488
 30
0.0
 10
-9.99127
 20
-14.72488
 30
0.0
 10
-10.0235
 20
-14.72488
 30
0.0
 10
-10.0235
 20
-14.72488
 30
0.0
 10
-10.0235
 20
-14.72488
 30
0.0
 10
-10.0235
 20
-14.72488
 30
0.0
 10
-10.1105
 20
-14.66648
 30
0.0
 10
-10.1105
 20
-14.66648
 30
0.0
  0
SPLINE
  5
7A
330
1F
100
AcDbEntity
  8
Layer 1
 62
   250
100
AcDbSpline
210
0.0
220
0.0
230
1.0
 70
    11
 71
     3
 72
    48
 73
    44
 74
     0
 42
0.0000000001
 43
0.0000000001
 40
0.0
 40
0.0
 40
0.0
 40
0.0
 40
0.0909090909090909
 40
0.0909090909090909
 40
0.0909090909090909
 40
0.0909090909090909
 40
0.1818181818181818
 40
0.1818181818181818
 40
0.1818181818181818
 40
0.1818181818181818
 40
0.2727272727272727
 40
0.2727272727272727
 40
0.2727272727272727
 40
0.2727272727272727
 40
0.3636363636363636
 40
0.3636363636363636
 40
0.3636363636363636
 40
0.3636363636363636
 40
0.4545454545454546
 40
0.4545454545454546
 40
0.4545454545454546
 40
0.4545454545454546
 40
0.5454545454545455
 40
0.5454545454545455
 40
0.5454545454545455
 40
0.5454545454545455
 40
0.6363636363636365
 40
0.6363636363636365
 40
0.6363636363636365
 40
0.6363636363636365
 40
0.7272727272727274
 40
0.7272727272727274
 40
0.7272727272727274
 40
0.7272727272727274
 40
0.8181818181818183
 40
0.8181818181818183
 40
0.8181818181818183
 40
0.8181818181818183
 40
0.9090909090909093
 40
0.9090909090909093
 40
0.9090909090909093
 40
0.9090909090909093
 40
1.0
 40
1.0
 40
1.0
 40
1.0
 10
-13.18784
 20
-15.49155
 30
0.0
 10
-13.18784
 20
-15.49155
 30
0.0
 10
-13.18784
 20
-15.45641
 30
0.0
 10
-13.18784
 20
-15.45641
 30
0.0
 10
-13.18784
 20
-15.45641
 30
0.0
 10
-13.18784
 20
-15.45641
 30
0.0
 10
-13.28757
 20
-15.45641
 30
0.0
 10
-13.28757
 20
-15.45641
 30
0.0
 10
-13.28757
 20
-15.45641
 30
0.0
 10
-13.28757
 20
-15.45641
 30
0.0
 10
-13.28013
 20
-15.49247
 30
0.0
 10
-13.28013
 20
-15.49247
 30
0.0
 10
-13.28013
 20
-15.49247
 30
0.0
 10
-13.28013
 20
-15.49247
 30
0.0
 10
-13.30722
 20
-15.49247
 30
0.0
 10
-13.30722
 20
-15.49247
 30
0.0
 10
-13.30722
 20
-15.49247
 30
0.0
 10
-13.30722
 20
-15.49247
 30
0.0
 10
-13.31467
 20
-15.45662
 30
0.0
 10
-13.31467
 20
-15.45662
 30
0.0
 10
-13.31467
 20
-15.45662
 30
0.0
 10
-13.31467
 20
-15.45662
 30
0.0
 10
-13.31467
 20
-15.41881
 30
0.0
 10
-13.31467
 20
-15.41881
 30
0.0
 10
-13.31467
 20
-15.41881
 30
0.0
 10
-13.31467
 20
-15.41881
 30
0.0
 10
-13.18784
 20
-15.41881
 30
0.0
 10
-13.18784
 20
-15.41881
 30
0.0
 10
-13.18784
 20
-15.41881
 30
0.0
 10
-13.18784
 20
-15.41881
 30
0.0
 10
-13.18784
 20
-15.38367
 30
0.0
 10
-13.18784
 20
-15.38367
 30
0.0
 10
-13.18784
 20
-15.38367
 30
0.0
 10
-13.18784
 20
-15.38367
 30
0.0
 10
-13.16036
 20
-15.38367
 30
0.0
 10
-13.16036
 20
-15.38367
 30
0.0
 10
-13.16036
 20
-15.38367
 30
0.0
 10
-13.16036
 20
-15.38367
 30
0.0
 10
-13.16036
 20
-15.49155
 30
0.0
 10
-13.16036
 20
-15.49155
 30
0.0
 10
-13.16036
 20
-15.49155
 30
0.0
 10
-13.16036
 20
-15.49155
 30
0.0
 10
-13.18784
 20
-15.49155
 30
0.0
 10
-13.18784
 20
-15.49155
 30
0.0
  0
SPLINE
  5
7B
330
1F
100
AcDbEntity
  8
Layer 1
 62
   250
100
AcDbSpline
210
0.0
220
0.0
230
1.0
 70
    11
 71
     3
 72
    80
 73
    76
 74
     0
 42
0.0000000001
 43
0.0000000001
 40
0.0
 40
0.0
 40
0.0
 40
0.0
 40
0.0526315789473684
 40
0.0526315789473684
 40
0.0526315789473684
 40
0.0526315789473684
 40
0.1052631578947368
 40
0.1052631578947368
 40
0.1052631578947368
 40
0.1052631578947368
 40
0.1578947368421053
 40
0.1578947368421053
 40
0.1578947368421053
 40
0.1578947368421053
 40
0.2105263157894737
 40
0.2105263157894737
 40
0.2105263157894737
 40
0.2105263157894737
 40
0.2631578947368421
 40
0.2631578947368421
 40
0.2631578947368421
 40
0.2631578947368421
 40
0.3157894736842105
 40
0.3157894736842105
 40
0.3157894736842105
 40
0.3157894736842105
 40
0.3684210526315789
 40
0.3684210526315789
 40
0.3684210526315789
 40
0.3684210526315789
 40
0.4210526315789473
 40
0.4210526315789473
 40
0.4210526315789473
 40
0.4210526315789473
 40
0.4736842105263158
 40
0.4736842105263158
 40
0.4736842105263158
 40
0.4736842105263158
 40
0.5263157894736842
 40
0.5263157894736842
 40
0.5263157894736842
 40
0.5263157894736842
 40
0.5789473684210527
 40
0.5789473684210527
 40
0.5789473684210527
 40
0.5789473684210527
 40
0.631578947368421
 40
0.631578947368421
 40
0.631578947368421
 40
0.631578947368421
 40
0.6842105263157894
 40
0.6842105263157894
 40
0.6842105263157894
 40
0.6842105263157894
 40
0.7368421052631577
 40
0.7368421052631577
 40
0.7368421052631577
 40
0.7368421052631577
 40
0.7894736842105261
 40
0.7894736842105261
 40
0.7894736842105261
 40
0.7894736842105261
 40
0.8421052631578945
 40
0.8421052631578945
 40
0.8421052631578945
 40
0.8421052631578945
 40
0.8947368421052628
 40
0.8947368421052628
 40
0.8947368421052628
 40
0.8947368421052628
 40
0.9473684210526312
 40
0.9473684210526312
 40
0.9473684210526312
 40
0.9473684210526312
 40
1.0
 40
1.0
 40
1.0
 40
1.0
 10
-12.19319
 20
-15.45494
 30
0.0
 10
-12.19319
 20
-15.45494
 30
0.0
 10
-12.19319
 20
-15.38703
 30
0.0
 10
-12.19319
 20
-15.38703
 30
0.0
 10
-12.19319
 20
-15.38703
 30
0.0
 10
-12.19319
 20
-15.38703
 30
0.0
 10
-12.16394
 20
-15.38703
 30
0.0
 10
-12.16394
 20
-15.38703
 30
0.0
 10
-12.16394
 20
-15.38703
 30
0.0
 10
-12.16394
 20
-15.38703
 30
0.0
 10
-12.16394
 20
-15.49918
 30
0.0
 10
-12.16394
 20
-15.49918
 30
0.0
 10
-12.16394
 20
-15.49918
 30
0.0
 10
-12.16394
 20
-15.49918
 30
0.0
 10
-12.19319
 20
-15.49918
 30
0.0
 10
-12.19319
 20
-15.49918
 30
0.0
 10
-12.19319
 20
-15.49918
 30
0.0
 10
-12.19319
 20
-15.49918
 30
0.0
 10
-12.24289
 20
-15.44284
 30
0.0
 10
-12.24289
 20
-15.44284
 30
0.0
 10
-12.24289
 20
-15.44284
 30
0.0
 10
-12.24744
 20
-15.4378
 30
0.0
 10
-12.25189
 20
-15.43409
 30
0.0
 10
-12.25623
 20
-15.4317
 30
0.0
 10
-12.25623
 20
-15.4317
 30
0.0
 10
-12.26057
 20
-15.42926
 30
0.0
 10
-12.26508
 20
-15.42806
 30
0.0
 10
-12.26977
 20
-15.42806
 30
0.0
 10
-12.26977
 20
-15.42806
 30
0.0
 10
-12.27701
 20
-15.42806
 30
0.0
 10
-12.28283
 20
-15.4305
 30
0.0
 10
-12.28724
 20
-15.43536
 30
0.0
 10
-12.28724
 20
-15.43536
 30
0.0
 10
-12.29165
 20
-15.4402
 30
0.0
 10
-12.29383
 20
-15.44665
 30
0.0
 10
-12.29383
 20
-15.45473
 30
0.0
 10
-12.29383
 20
-15.45473
 30
0.0
 10
-12.29383
 20
-15.46094
 30
0.0
 10
-12.29249
 20
-15.46771
 30
0.0
 10
-12.28985
 20
-15.47509
 30
0.0
 10
-12.28985
 20
-15.47509
 30
0.0
 10
-12.2872
 20
-15.48246
 30
0.0
 10
-12.28325
 20
-15.49036
 30
0.0
 10
-12.27803
 20
-15.49876
 30
0.0
 10
-12.27803
 20
-15.49876
 30
0.0
 10
-12.27803
 20
-15.49876
 30
0.0
 10
-12.31193
 20
-15.49876
 30
0.0
 10
-12.31193
 20
-15.49876
 30
0.0
 10
-12.31193
 20
-15.49876
 30
0.0
 10
-12.3149
 20
-15.4898
 30
0.0
 10
-12.31715
 20
-15.48094
 30
0.0
 10
-12.31871
 20
-15.47219
 30
0.0
 10
-12.31871
 20
-15.47219
 30
0.0
 10
-12.32026
 20
-15.46345
 30
0.0
 10
-12.32103
 20
-15.45487
 30
0.0
 10
-12.32103
 20
-15.44644
 30
0.0
 10
-12.32103
 20
-15.44644
 30
0.0
 10
-12.32103
 20
-15.42799
 30
0.0
 10
-12.31698
 20
-15.41363
 30
0.0
 10
-12.30883
 20
-15.4034
 30
0.0
 10
-12.30883
 20
-15.4034
 30
0.0
 10
-12.30071
 20
-15.39317
 30
0.0
 10
-12.28939
 20
-15.38806
 30
0.0
 10
-12.27482
 20
-15.38806
 30
0.0
 10
-12.27482
 20
-15.38806
 30
0.0
 10
-12.26642
 20
-15.38806
 30
0.0
 10
-12.25859
 20
-15.39024
 30
0.0
 10
-12.25132
 20
-15.39458
 30
0.0
 10
-12.25132
 20
-15.39458
 30
0.0
 10
-12.24406
 20
-15.39892
 30
0.0
 10
-12.23432
 20
-15.40806
 30
0.0
 10
-12.22211
 20
-15.42196
 30
0.0
 10
-12.22211
 20
-15.42196
 30
0.0
 10
-12.22211
 20
-15.42196
 30
0.0
 10
-12.19319
 20
-15.45494
 30
0.0
 10
-12.19319
 20
-15.45494
 30
0.0
  0
SPLINE
  5
7C
330
1F
100
AcDbEntity
  8
Layer 1
 62
   250
100
AcDbSpline
210
0.0
220
0.0
230
1.0
 70
    11
 71
     3
 72
   120
 73
   116
 74
     0
 42
0.0000000001
 43
0.0000000001
 40
0.0
 40
0.0
 40
0.0
 40
0.0
 40
0.0344827586206897
 40
0.0344827586206897
 40
0.0344827586206897
 40
0.0344827586206897
 40
0.0689655172413793
 40
0.0689655172413793
 40
0.0689655172413793
 40
0.0689655172413793
 40
0.103448275862069
 40
0.103448275862069
 40
0.103448275862069
 40
0.103448275862069
 40
0.1379310344827586
 40
0.1379310344827586
 40
0.1379310344827586
 40
0.1379310344827586
 40
0.1724137931034483
 40
0.1724137931034483
 40
0.1724137931034483
 40
0.1724137931034483
 40
0.206896551724138
 40
0.206896551724138
 40
0.206896551724138
 40
0.206896551724138
 40
0.2413793103448276
 40
0.2413793103448276
 40
0.2413793103448276
 40
0.2413793103448276
 40
0.2758620689655173
 40
0.2758620689655173
 40
0.2758620689655173
 40
0.2758620689655173
 40
0.310344827586207
 40
0.310344827586207
 40
0.310344827586207
 40
0.310344827586207
 40
0.3448275862068966
 40
0.3448275862068966
 40
0.3448275862068966
 40
0.3448275862068966
 40
0.3793103448275863
 40
0.3793103448275863
 40
0.3793103448275863
 40
0.3793103448275863
 40
0.413793103448276
 40
0.413793103448276
 40
0.413793103448276
 40
0.413793103448276
 40
0.4482758620689656
 40
0.4482758620689656
 40
0.4482758620689656
 40
0.4482758620689656
 40
0.4827586206896553
 40
0.4827586206896553
 40
0.4827586206896553
 40
0.4827586206896553
 40
0.517241379310345
 40
0.517241379310345
 40
0.517241379310345
 40
0.517241379310345
 40
0.5517241379310346
 40
0.5517241379310346
 40
0.5517241379310346
 40
0.5517241379310346
 40
0.5862068965517242
 40
0.5862068965517242
 40
0.5862068965517242
 40
0.5862068965517242
 40
0.6206896551724138
 40
0.6206896551724138
 40
0.6206896551724138
 40
0.6206896551724138
 40
0.6551724137931034
 40
0.6551724137931034
 40
0.6551724137931034
 40
0.6551724137931034
 40
0.689655172413793
 40
0.689655172413793
 40
0.689655172413793
 40
0.689655172413793
 40
0.7241379310344827
 40
0.7241379310344827
 40
0.7241379310344827
 40
0.7241379310344827
 40
0.7586206896551723
 40
0.7586206896551723
 40
0.7586206896551723
 40
0.7586206896551723
 40
0.7931034482758619
 40
0.7931034482758619
 40
0.7931034482758619
 40
0.7931034482758619
 40
0.8275862068965515
 40
0.8275862068965515
 40
0.8275862068965515
 40
0.8275862068965515
 40
0.8620689655172411
 40
0.8620689655172411
 40
0.8620689655172411
 40
0.8620689655172411
 40
0.8965517241379307
 40
0.8965517241379307
 40
0.8965517241379307
 40
0.8965517241379307
 40
0.9310344827586203
 40
0.9310344827586203
 40
0.9310344827586203
 40
0.9310344827586203
 40
0.9655172413793099
 40
0.9655172413793099
 40
0.9655172413793099
 40
0.9655172413793099
 40
1.0
 40
1.0
 40
1.0
 40
1.0
 10
-11.24358
 20
-15.41775
 30
0.0
 10
-11.2409
 20
-15.40738
 30
0.0
 10
-11.23621
 20
-15.39944
 30
0.0
 10
-11.22958
 20
-15.39404
 30
0.0
 10
-11.22958
 20
-15.39404
 30
0.0
 10
-11.22291
 20
-15.38864
 30
0.0
 10
-11.21448
 20
-15.38593
 30
0.0
 10
-11.20421
 20
-15.38593
 30
0.0
 10
-11.20421
 20
-15.38593
 30
0.0
 10
-11.1889
 20
-15.38593
 30
0.0
 10
-11.17726
 20
-15.39178
 30
0.0
 10
-11.16929
 20
-15.40349
 30
0.0
 10
-11.16929
 20
-15.40349
 30
0.0
 10
-11.16135
 20
-15.41521
 30
0.0
 10
-11.15736
 20
-15.43228
 30
0.0
 10
-11.15736
 20
-15.45475
 30
0.0
 10
-11.15736
 20
-15.45475
 30
0.0
 10
-11.15736
 20
-15.46269
 30
0.0
 10
-11.158
 20
-15.47063
 30
0.0
 10
-11.15927
 20
-15.4786
 30
0.0
 10
-11.15927
 20
-15.4786
 30
0.0
 10
-11.16054
 20
-15.48654
 30
0.0
 10
-11.16248
 20
-15.49441
 30
0.0
 10
-11.16502
 20
-15.5022
 30
0.0
 10
-11.16502
 20
-15.5022
 30
0.0
 10
-11.16502
 20
-15.5022
 30
0.0
 10
-11.19571
 20
-15.5022
 30
0.0
 10
-11.19571
 20
-15.5022
 30
0.0
 10
-11.19571
 20
-15.5022
 30
0.0
 10
-11.192
 20
-15.49476
 30
0.0
 10
-11.18918
 20
-15.48739
 30
0.0
 10
-11.18728
 20
-15.48005
 30
0.0
 10
-11.18728
 20
-15.48005
 30
0.0
 10
-11.18541
 20
-15.47271
 30
0.0
 10
-11.18446
 20
-15.46548
 30
0.0
 10
-11.18446
 20
-15.45839
 30
0.0
 10
-11.18446
 20
-15.45839
 30
0.0
 10
-11.18446
 20
-15.44784
 30
0.0
 10
-11.18629
 20
-15.43976
 30
0.0
 10
-11.18992
 20
-15.43415
 30
0.0
 10
-11.18992
 20
-15.43415
 30
0.0
 10
-11.19359
 20
-15.42854
 30
0.0
 10
-11.19881
 20
-15.42572
 30
0.0
 10
-11.20566
 20
-15.42572
 30
0.0
 10
-11.20566
 20
-15.42572
 30
0.0
 10
-11.21268
 20
-15.42572
 30
0.0
 10
-11.218
 20
-15.42861
 30
0.0
 10
-11.2216
 20
-15.43436
 30
0.0
 10
-11.2216
 20
-15.43436
 30
0.0
 10
-11.22524
 20
-15.44011
 30
0.0
 10
-11.22704
 20
-15.44862
 30
0.0
 10
-11.22704
 20
-15.45983
 30
0.0
 10
-11.22704
 20
-15.45983
 30
0.0
 10
-11.22704
 20
-15.45983
 30
0.0
 10
-11.22704
 20
-15.47574
 30
0.0
 10
-11.22704
 20
-15.47574
 30
0.0
 10
-11.22704
 20
-15.47574
 30
0.0
 10
-11.22704
 20
-15.47574
 30
0.0
 10
-11.25268
 20
-15.47574
 30
0.0
 10
-11.25268
 20
-15.47574
 30
0.0
 10
-11.25268
 20
-15.47574
 30
0.0
 10
-11.25268
 20
-15.47574
 30
0.0
 10
-11.25268
 20
-15.45902
 30
0.0
 10
-11.25268
 20
-15.45902
 30
0.0
 10
-11.25268
 20
-15.45902
 30
0.0
 10
-11.25268
 20
-15.449
 30
0.0
 10
-11.25424
 20
-15.4416
 30
0.0
 10
-11.25738
 20
-15.43669
 30
0.0
 10
-11.25738
 20
-15.43669
 30
0.0
 10
-11.26052
 20
-15.43179
 30
0.0
 10
-11.26528
 20
-15.42935
 30
0.0
 10
-11.27166
 20
-15.42935
 30
0.0
 10
-11.27166
 20
-15.42935
 30
0.0
 10
-11.27759
 20
-15.42935
 30
0.0
 10
-11.28218
 20
-15.43172
 30
0.0
 10
-11.28539
 20
-15.43648
 30
0.0
 10
-11.28539
 20
-15.43648
 30
0.0
 10
-11.28863
 20
-15.44124
 30
0.0
 10
-11.29025
 20
-15.44795
 30
0.0
 10
-11.29025
 20
-15.45662
 30
0.0
 10
-11.29025
 20
-15.45662
 30
0.0
 10
-11.29025
 20
-15.46304
 30
0.0
 10
-11.28955
 20
-15.4695
 30
0.0
 10
-11.2881
 20
-15.47606
 30
0.0
 10
-11.2881
 20
-15.47606
 30
0.0
 10
-11.28666
 20
-15.48259
 30
0.0
 10
-11.2845
 20
-15.48908
 30
0.0
 10
-11.28168
 20
-15.49557
 30
0.0
 10
-11.28168
 20
-15.49557
 30
0.0
 10
-11.28168
 20
-15.49557
 30
0.0
 10
-11.31082
 20
-15.49557
 30
0.0
 10
-11.31082
 20
-15.49557
 30
0.0
 10
-11.31082
 20
-15.49557
 30
0.0
 10
-11.31304
 20
-15.4877
 30
0.0
 10
-11.3147
 20
-15.47994
 30
0.0
 10
-11.3158
 20
-15.47222
 30
0.0
 10
-11.3158
 20
-15.47222
 30
0.0
 10
-11.31689
 20
-15.46449
 30
0.0
 10
-11.31745
 20
-15.45694
 30
0.0
 10
-11.31745
 20
-15.4495
 30
0.0
 10
-11.31745
 20
-15.4495
 30
0.0
 10
-11.31745
 20
-15.42946
 30
0.0
 10
-11.31417
 20
-15.41443
 30
0.0
 10
-11.30758
 20
-15.40448
 30
0.0
 10
-11.30758
 20
-15.40448
 30
0.0
 10
-11.30101
 20
-15.39453
 30
0.0
 10
-11.2911
 20
-15.38956
 30
0.0
 10
-11.27787
 20
-15.38956
 30
0.0
 10
-11.27787
 20
-15.38956
 30
0.0
 10
-11.26888
 20
-15.38956
 30
0.0
 10
-11.26147
 20
-15.39192
 30
0.0
 10
-11.25572
 20
-15.39669
 30
0.0
 10
-11.25572
 20
-15.39669
 30
0.0
 10
-11.24997
 20
-15.40145
 30
0.0
 10
-11.24591
 20
-15.40847
 30
0.0
 10
-11.24358
 20
-15.41775
 30
0.0
  0
SPLINE
  5
7D
330
1F
100
AcDbEntity
  8
Layer 1
 62
   250
100
AcDbSpline
210
0.0
220
0.0
230
1.0
 70
    11
 71
     3
 72
    16
 73
    12
 74
     0
 42
0.0000000001
 43
0.0000000001
 40
0.0
 40
0.0
 40
0.0
 40
0.0
 40
0.3333333333333333
 40
0.3333333333333333
 40
0.3333333333333333
 40
0.3333333333333333
 40
0.6666666666666666
 40
0.6666666666666666
 40
0.6666666666666666
 40
0.6666666666666666
 40
1.0
 40
1.0
 40
1.0
 40
1.0
 10
-10.28189
 20
-15.43838
 30
0.0
 10
-10.28189
 20
-15.43838
 30
0.0
 10
-10.2173
 20
-15.48202
 30
0.0
 10
-10.2173
 20
-15.48202
 30
0.0
 10
-10.2173
 20
-15.48202
 30
0.0
 10
-10.2173
 20
-15.48202
 30
0.0
 10
-10.2173
 20
-15.43838
 30
0.0
 10
-10.2173
 20
-15.43838
 30
0.0
 10
-10.2173
 20
-15.43838
 30
0.0
 10
-10.2173
 20
-15.43838
 30
0.0
 10
-10.28189
 20
-15.43838
 30
0.0
 10
-10.28189
 20
-15.43838
 30
0.0
  0
SPLINE
  5
7E
330
1F
100
AcDbEntity
  8
Layer 1
 62
   250
100
AcDbSpline
210
0.0
220
0.0
230
1.0
 70
    11
 71
     3
 72
    48
 73
    44
 74
     0
 42
0.0000000001
 43
0.0000000001
 40
0.0
 40
0.0
 40
0.0
 40
0.0
 40
0.0909090909090909
 40
0.0909090909090909
 40
0.0909090909090909
 40
0.0909090909090909
 40
0.1818181818181818
 40
0.1818181818181818
 40
0.1818181818181818
 40
0.1818181818181818
 40
0.2727272727272727
 40
0.2727272727272727
 40
0.2727272727272727
 40
0.2727272727272727
 40
0.3636363636363636
 40
0.3636363636363636
 40
0.3636363636363636
 40
0.3636363636363636
 40
0.4545454545454546
 40
0.4545454545454546
 40
0.4545454545454546
 40
0.4545454545454546
 40
0.5454545454545455
 40
0.5454545454545455
 40
0.5454545454545455
 40
0.5454545454545455
 40
0.6363636363636365
 40
0.6363636363636365
 40
0.6363636363636365
 40
0.6363636363636365
 40
0.7272727272727274
 40
0.7272727272727274
 40
0.7272727272727274
 40
0.7272727272727274
 40
0.8181818181818183
 40
0.8181818181818183
 40
0.8181818181818183
 40
0.8181818181818183
 40
0.9090909090909093
 40
0.9090909090909093
 40
0.9090909090909093
 40
0.9090909090909093
 40
1.0
 40
1.0
 40
1.0
 40
1.0
 10
-10.31467
 20
-15.44502
 30
0.0
 10
-10.31467
 20
-15.44502
 30
0.0
 10
-10.31467
 20
-15.40078
 30
0.0
 10
-10.31467
 20
-15.40078
 30
0.0
 10
-10.31467
 20
-15.40078
 30
0.0
 10
-10.31467
 20
-15.40078
 30
0.0
 10
-10.2173
 20
-15.40078
 30
0.0
 10
-10.2173
 20
-15.40078
 30
0.0
 10
-10.2173
 20
-15.40078
 30
0.0
 10
-10.2173
 20
-15.40078
 30
0.0
 10
-10.2173
 20
-15.37876
 30
0.0
 10
-10.2173
 20
-15.37876
 30
0.0
 10
-10.2173
 20
-15.37876
 30
0.0
 10
-10.2173
 20
-15.37876
 30
0.0
 10
-10.18848
 20
-15.37876
 30
0.0
 10
-10.18848
 20
-15.37876
 30
0.0
 10
-10.18848
 20
-15.37876
 30
0.0
 10
-10.18848
 20
-15.37876
 30
0.0
 10
-10.18848
 20
-15.40078
 30
0.0
 10
-10.18848
 20
-15.40078
 30
0.0
 10
-10.18848
 20
-15.40078
 30
0.0
 10
-10.18848
 20
-15.40078
 30
0.0
 10
-10.16036
 20
-15.40078
 30
0.0
 10
-10.16036
 20
-15.40078
 30
0.0
 10
-10.16036
 20
-15.40078
 30
0.0
 10
-10.16036
 20
-15.40078
 30
0.0
 10
-10.16036
 20
-15.43838
 30
0.0
 10
-10.16036
 20
-15.43838
 30
0.0
 10
-10.16036
 20
-15.43838
 30
0.0
 10
-10.16036
 20
-15.43838
 30
0.0
 10
-10.18848
 20
-15.43838
 30
0.0
 10
-10.18848
 20
-15.43838
 30
0.0
 10
-10.18848
 20
-15.43838
 30
0.0
 10
-10.18848
 20
-15.43838
 30
0.0
 10
-10.18848
 20
-15.50682
 30
0.0
 10
-10.18848
 20
-15.50682
 30
0.0
 10
-10.18848
 20
-15.50682
 30
0.0
 10
-10.18848
 20
-15.50682
 30
0.0
 10
-10.22259
 20
-15.50682
 30
0.0
 10
-10.22259
 20
-15.50682
 30
0.0
 10
-10.22259
 20
-15.50682
 30
0.0
 10
-10.22259
 20
-15.50682
 30
0.0
 10
-10.31467
 20
-15.44502
 30
0.0
 10
-10.31467
 20
-15.44502
 30
0.0
  0
SPLINE
  5
7F
330
1F
100
AcDbEntity
  8
Layer 1
 62
   250
100
AcDbSpline
210
0.0
220
0.0
230
1.0
 70
    11
 71
     3
 72
    80
 73
    76
 74
     0
 42
0.0000000001
 43
0.0000000001
 40
0.0
 40
0.0
 40
0.0
 40
0.0
 40
0.0526315789473684
 40
0.0526315789473684
 40
0.0526315789473684
 40
0.0526315789473684
 40
0.1052631578947368
 40
0.1052631578947368
 40
0.1052631578947368
 40
0.1052631578947368
 40
0.1578947368421053
 40
0.1578947368421053
 40
0.1578947368421053
 40
0.1578947368421053
 40
0.2105263157894737
 40
0.2105263157894737
 40
0.2105263157894737
 40
0.2105263157894737
 40
0.2631578947368421
 40
0.2631578947368421
 40
0.2631578947368421
 40
0.2631578947368421
 40
0.3157894736842105
 40
0.3157894736842105
 40
0.3157894736842105
 40
0.3157894736842105
 40
0.3684210526315789
 40
0.3684210526315789
 40
0.3684210526315789
 40
0.3684210526315789
 40
0.4210526315789473
 40
0.4210526315789473
 40
0.4210526315789473
 40
0.4210526315789473
 40
0.4736842105263158
 40
0.4736842105263158
 40
0.4736842105263158
 40
0.4736842105263158
 40
0.5263157894736842
 40
0.5263157894736842
 40
0.5263157894736842
 40
0.5263157894736842
 40
0.5789473684210527
 40
0.5789473684210527
 40
0.5789473684210527
 40
0.5789473684210527
 40
0.631578947368421
 40
0.631578947368421
 40
0.631578947368421
 40
0.631578947368421
 40
0.6842105263157894
 40
0.6842105263157894
 40
0.6842105263157894
 40
0.6842105263157894
 40
0.7368421052631577
 40
0.7368421052631577
 40
0.7368421052631577
 40
0.7368421052631577
 40
0.7894736842105261
 40
0.7894736842105261
 40
0.7894736842105261
 40
0.7894736842105261
 40
0.8421052631578945
 40
0.8421052631578945
 40
0.8421052631578945
 40
0.8421052631578945
 40
0.8947368421052628
 40
0.8947368421052628
 40
0.8947368421052628
 40
0.8947368421052628
 40
0.9473684210526312
 40
0.9473684210526312
 40
0.9473684210526312
 40
0.9473684210526312
 40
1.0
 40
1.0
 40
1.0
 40
1.0
 10
-12.75625
 20
-14.05948
 30
0.0
 10
-12.75625
 20
-14.05948
 30
0.0
 10
-12.69208
 20
-14.05948
 30
0.0
 10
-12.69208
 20
-14.05948
 30
0.0
 10
-12.69208
 20
-14.05948
 30
0.0
 10
-12.69208
 20
-14.05948
 30
0.0
 10
-12.69208
 20
-14.08711
 30
0.0
 10
-12.69208
 20
-14.08711
 30
0.0
 10
-12.69208
 20
-14.08711
 30
0.0
 10
-12.69208
 20
-14.08711
 30
0.0
 10
-12.79805
 20
-14.08711
 30
0.0
 10
-12.79805
 20
-14.08711
 30
0.0
 10
-12.79805
 20
-14.08711
 30
0.0
 10
-12.79805
 20
-14.08711
 30
0.0
 10
-12.79805
 20
-14.05948
 30
0.0
 10
-12.79805
 20
-14.05948
 30
0.0
 10
-12.79805
 20
-14.05948
 30
0.0
 10
-12.79805
 20
-14.05948
 30
0.0
 10
-12.74481
 20
-14.01251
 30
0.0
 10
-12.74481
 20
-14.01251
 30
0.0
 10
-12.74481
 20
-14.01251
 30
0.0
 10
-12.74005
 20
-14.00821
 30
0.0
 10
-12.73655
 20
-14.00401
 30
0.0
 10
-12.73428
 20
-13.99991
 30
0.0
 10
-12.73428
 20
-13.99991
 30
0.0
 10
-12.73198
 20
-13.99581
 30
0.0
 10
-12.73085
 20
-13.99154
 30
0.0
 10
-12.73085
 20
-13.98711
 30
0.0
 10
-12.73085
 20
-13.98711
 30
0.0
 10
-12.73085
 20
-13.98028
 30
0.0
 10
-12.73315
 20
-13.97478
 30
0.0
 10
-12.73775
 20
-13.97061
 30
0.0
 10
-12.73775
 20
-13.97061
 30
0.0
 10
-12.74231
 20
-13.96644
 30
0.0
 10
-12.74841
 20
-13.96438
 30
0.0
 10
-12.75605
 20
-13.96438
 30
0.0
 10
-12.75605
 20
-13.96438
 30
0.0
 10
-12.76191
 20
-13.96438
 30
0.0
 10
-12.76831
 20
-13.96564
 30
0.0
 10
-12.77528
 20
-13.96814
 30
0.0
 10
-12.77528
 20
-13.96814
 30
0.0
 10
-12.78225
 20
-13.97064
 30
0.0
 10
-12.78971
 20
-13.97438
 30
0.0
 10
-12.79765
 20
-13.97931
 30
0.0
 10
-12.79765
 20
-13.97931
 30
0.0
 10
-12.79765
 20
-13.97931
 30
0.0
 10
-12.79765
 20
-13.94728
 30
0.0
 10
-12.79765
 20
-13.94728
 30
0.0
 10
-12.79765
 20
-13.94728
 30
0.0
 10
-12.78918
 20
-13.94448
 30
0.0
 10
-12.78081
 20
-13.94234
 30
0.0
 10
-12.77255
 20
-13.94088
 30
0.0
 10
-12.77255
 20
-13.94088
 30
0.0
 10
-12.76428
 20
-13.93941
 30
0.0
 10
-12.75618
 20
-13.93868
 30
0.0
 10
-12.74821
 20
-13.93868
 30
0.0
 10
-12.74821
 20
-13.93868
 30
0.0
 10
-12.73078
 20
-13.93868
 30
0.0
 10
-12.71721
 20
-13.94251
 30
0.0
 10
-12.70755
 20
-13.95021
 30
0.0
 10
-12.70755
 20
-13.95021
 30
0.0
 10
-12.69788
 20
-13.95788
 30
0.0
 10
-12.69305
 20
-13.96858
 30
0.0
 10
-12.69305
 20
-13.98234
 30
0.0
 10
-12.69305
 20
-13.98234
 30
0.0
 10
-12.69305
 20
-13.99028
 30
0.0
 10
-12.69511
 20
-13.99768
 30
0.0
 10
-12.69921
 20
-14.00454
 30
0.0
 10
-12.69921
 20
-14.00454
 30
0.0
 10
-12.70331
 20
-14.01141
 30
0.0
 10
-12.71195
 20
-14.02061
 30
0.0
 10
-12.72508
 20
-14.03214
 30
0.0
 10
-12.72508
 20
-14.03214
 30
0.0
 10
-12.72508
 20
-14.03214
 30
0.0
 10
-12.75625
 20
-14.05948
 30
0.0
 10
-12.75625
 20
-14.05948
 30
0.0
  0
SPLINE
  5
80
330
1F
100
AcDbEntity
  8
Layer 1
 62
   250
100
AcDbSpline
210
0.0
220
0.0
230
1.0
 70
    11
 71
     3
 72
    20
 73
    16
 74
     0
 42
0.0000000001
 43
0.0000000001
 40
0.0
 40
0.0
 40
0.0
 40
0.0
 40
0.25
 40
0.25
 40
0.25
 40
0.25
 40
0.5
 40
0.5
 40
0.5
 40
0.5
 40
0.75
 40
0.75
 40
0.75
 40
0.75
 40
1.0
 40
1.0
 40
1.0
 40
1.0
 10
-12.65431
 20
-14.04931
 30
0.0
 10
-12.65431
 20
-14.04931
 30
0.0
 10
-12.61914
 20
-14.04931
 30
0.0
 10
-12.61914
 20
-14.04931
 30
0.0
 10
-12.61914
 20
-14.04931
 30
0.0
 10
-12.61914
 20
-14.04931
 30
0.0
 10
-12.61914
 20
-14.08711
 30
0.0
 10
-12.61914
 20
-14.08711
 30
0.0
 10
-12.61914
 20
-14.08711
 30
0.0
 10
-12.61914
 20
-14.08711
 30
0.0
 10
-12.65431
 20
-14.08711
 30
0.0
 10
-12.65431
 20
-14.08711
 30
0.0
 10
-12.65431
 20
-14.08711
 30
0.0
 10
-12.65431
 20
-14.08711
 30
0.0
 10
-12.65431
 20
-14.04931
 30
0.0
 10
-12.65431
 20
-14.04931
 30
0.0
  0
SPLINE
  5
81
330
1F
100
AcDbEntity
  8
Layer 1
 62
   250
100
AcDbSpline
210
0.0
220
0.0
230
1.0
 70
    11
 71
     3
 72
    92
 73
    88
 74
     0
 42
0.0000000001
 43
0.0000000001
 40
0.0
 40
0.0
 40
0.0
 40
0.0
 40
0.0454545454545455
 40
0.0454545454545455
 40
0.0454545454545455
 40
0.0454545454545455
 40
0.0909090909090909
 40
0.0909090909090909
 40
0.0909090909090909
 40
0.0909090909090909
 40
0.1363636363636364
 40
0.1363636363636364
 40
0.1363636363636364
 40
0.1363636363636364
 40
0.1818181818181818
 40
0.1818181818181818
 40
0.1818181818181818
 40
0.1818181818181818
 40
0.2272727272727273
 40
0.2272727272727273
 40
0.2272727272727273
 40
0.2272727272727273
 40
0.2727272727272728
 40
0.2727272727272728
 40
0.2727272727272728
 40
0.2727272727272728
 40
0.3181818181818182
 40
0.3181818181818182
 40
0.3181818181818182
 40
0.3181818181818182
 40
0.3636363636363637
 40
0.3636363636363637
 40
0.3636363636363637
 40
0.3636363636363637
 40
0.4090909090909092
 40
0.4090909090909092
 40
0.4090909090909092
 40
0.4090909090909092
 40
0.4545454545454546
 40
0.4545454545454546
 40
0.4545454545454546
 40
0.4545454545454546
 40
0.5000000000000001
 40
0.5000000000000001
 40
0.5000000000000001
 40
0.5000000000000001
 40
0.5454545454545455
 40
0.5454545454545455
 40
0.5454545454545455
 40
0.5454545454545455
 40
0.5909090909090909
 40
0.5909090909090909
 40
0.5909090909090909
 40
0.5909090909090909
 40
0.6363636363636364
 40
0.6363636363636364
 40
0.6363636363636364
 40
0.6363636363636364
 40
0.6818181818181818
 40
0.6818181818181818
 40
0.6818181818181818
 40
0.6818181818181818
 40
0.7272727272727272
 40
0.7272727272727272
 40
0.7272727272727272
 40
0.7272727272727272
 40
0.7727272727272726
 40
0.7727272727272726
 40
0.7727272727272726
 40
0.7727272727272726
 40
0.818181818181818
 40
0.818181818181818
 40
0.818181818181818
 40
0.818181818181818
 40
0.8636363636363634
 40
0.8636363636363634
 40
0.8636363636363634
 40
0.8636363636363634
 40
0.9090909090909088
 40
0.9090909090909088
 40
0.9090909090909088
 40
0.9090909090909088
 40
0.9545454545454543
 40
0.9545454545454543
 40
0.9545454545454543
 40
0.9545454545454543
 40
1.0
 40
1.0
 40
1.0
 40
1.0
 10
-12.57754
 20
-13.94131
 30
0.0
 10
-12.57754
 20
-13.94131
 30
0.0
 10
-12.48407
 20
-13.94131
 30
0.0
 10
-12.48407
 20
-13.94131
 30
0.0
 10
-12.48407
 20
-13.94131
 30
0.0
 10
-12.48407
 20
-13.94131
 30
0.0
 10
-12.48407
 20
-13.96894
 30
0.0
 10
-12.48407
 20
-13.96894
 30
0.0
 10
-12.48407
 20
-13.96894
 30
0.0
 10
-12.48407
 20
-13.96894
 30
0.0
 10
-12.54757
 20
-13.96894
 30
0.0
 10
-12.54757
 20
-13.96894
 30
0.0
 10
-12.54757
 20
-13.96894
 30
0.0
 10
-12.54757
 20
-13.96894
 30
0.0
 10
-12.54757
 20
-13.99151
 30
0.0
 10
-12.54757
 20
-13.99151
 30
0.0
 10
-12.54757
 20
-13.99151
 30
0.0
 10
-12.54471
 20
-13.99074
 30
0.0
 10
-12.54184
 20
-13.99014
 30
0.0
 10
-12.53894
 20
-13.98971
 30
0.0
 10
-12.53894
 20
-13.98971
 30
0.0
 10
-12.53604
 20
-13.98928
 30
0.0
 10
-12.53301
 20
-13.98908
 30
0.0
 10
-12.52991
 20
-13.98908
 30
0.0
 10
-12.52991
 20
-13.98908
 30
0.0
 10
-12.51211
 20
-13.98908
 30
0.0
 10
-12.49827
 20
-13.99351
 30
0.0
 10
-12.48837
 20
-14.00241
 30
0.0
 10
-12.48837
 20
-14.00241
 30
0.0
 10
-12.47847
 20
-14.01128
 30
0.0
 10
-12.47354
 20
-14.02368
 30
0.0
 10
-12.47354
 20
-14.03954
 30
0.0
 10
-12.47354
 20
-14.03954
 30
0.0
 10
-12.47354
 20
-14.05531
 30
0.0
 10
-12.47894
 20
-14.06764
 30
0.0
 10
-12.48971
 20
-14.07658
 30
0.0
 10
-12.48971
 20
-14.07658
 30
0.0
 10
-12.50047
 20
-14.08548
 30
0.0
 10
-12.51544
 20
-14.08994
 30
0.0
 10
-12.53457
 20
-14.08994
 30
0.0
 10
-12.53457
 20
-14.08994
 30
0.0
 10
-12.54284
 20
-14.08994
 30
0.0
 10
-12.55104
 20
-14.08914
 30
0.0
 10
-12.55914
 20
-14.08754
 30
0.0
 10
-12.55914
 20
-14.08754
 30
0.0
 10
-12.56724
 20
-14.08594
 30
0.0
 10
-12.57531
 20
-14.08354
 30
0.0
 10
-12.58331
 20
-14.08028
 30
0.0
 10
-12.58331
 20
-14.08028
 30
0.0
 10
-12.58331
 20
-14.08028
 30
0.0
 10
-12.58331
 20
-14.05068
 30
0.0
 10
-12.58331
 20
-14.05068
 30
0.0
 10
-12.58331
 20
-14.05068
 30
0.0
 10
-12.57537
 20
-14.05524
 30
0.0
 10
-12.56784
 20
-14.05864
 30
0.0
 10
-12.56071
 20
-14.06091
 30
0.0
 10
-12.56071
 20
-14.06091
 30
0.0
 10
-12.55357
 20
-14.06321
 30
0.0
 10
-12.54684
 20
-14.06434
 30
0.0
 10
-12.54054
 20
-14.06434
 30
0.0
 10
-12.54054
 20
-14.06434
 30
0.0
 10
-12.53141
 20
-14.06434
 30
0.0
 10
-12.52424
 20
-14.06211
 30
0.0
 10
-12.51901
 20
-14.05764
 30
0.0
 10
-12.51901
 20
-14.05764
 30
0.0
 10
-12.51377
 20
-14.05321
 30
0.0
 10
-12.51114
 20
-14.04718
 30
0.0
 10
-12.51114
 20
-14.03954
 30
0.0
 10
-12.51114
 20
-14.03954
 30
0.0
 10
-12.51114
 20
-14.03188
 30
0.0
 10
-12.51377
 20
-14.02584
 30
0.0
 10
-12.51901
 20
-14.02141
 30
0.0
 10
-12.51901
 20
-14.02141
 30
0.0
 10
-12.52424
 20
-14.01698
 30
0.0
 10
-12.53141
 20
-14.01478
 30
0.0
 10
-12.54054
 20
-14.01478
 30
0.0
 10
-12.54054
 20
-14.01478
 30
0.0
 10
-12.54594
 20
-14.01478
 30
0.0
 10
-12.55171
 20
-14.01548
 30
0.0
 10
-12.55781
 20
-14.01688
 30
0.0
 10
-12.55781
 20
-14.01688
 30
0.0
 10
-12.56394
 20
-14.01828
 30
0.0
 10
-12.57051
 20
-14.02044
 30
0.0
 10
-12.57754
 20
-14.02338
 30
0.0
 10
-12.57754
 20
-14.02338
 30
0.0
 10
-12.57754
 20
-14.02338
 30
0.0
 10
-12.57754
 20
-13.94131
 30
0.0
 10
-12.57754
 20
-13.94131
 30
0.0
  0
SPLINE
  5
82
330
1F
100
AcDbEntity
  8
Layer 1
 62
   250
100
AcDbSpline
210
0.0
220
0.0
230
1.0
 70
    11
 71
     3
 72
    16
 73
    12
 74
     0
 42
0.0000000001
 43
0.0000000001
 40
0.0
 40
0.0
 40
0.0
 40
0.0
 40
0.3333333333333333
 40
0.3333333333333333
 40
0.3333333333333333
 40
0.3333333333333333
 40
0.6666666666666666
 40
0.6666666666666666
 40
0.6666666666666666
 40
0.6666666666666666
 40
1.0
 40
1.0
 40
1.0
 40
1.0
 10
-12.3859
 20
-13.97228
 30
0.0
 10
-12.3859
 20
-13.97228
 30
0.0
 10
-12.42714
 20
-14.03331
 30
0.0
 10
-12.42714
 20
-14.03331
 30
0.0
 10
-12.42714
 20
-14.03331
 30
0.0
 10
-12.42714
 20
-14.03331
 30
0.0
 10
-12.3859
 20
-14.03331
 30
0.0
 10
-12.3859
 20
-14.03331
 30
0.0
 10
-12.3859
 20
-14.03331
 30
0.0
 10
-12.3859
 20
-14.03331
 30
0.0
 10
-12.3859
 20
-13.97228
 30
0.0
 10
-12.3859
 20
-13.97228
 30
0.0
  0
SPLINE
  5
83
330
1F
100
AcDbEntity
  8
Layer 1
 62
   250
100
AcDbSpline
210
0.0
220
0.0
230
1.0
 70
    11
 71
     3
 72
    48
 73
    44
 74
     0
 42
0.0000000001
 43
0.0000000001
 40
0.0
 40
0.0
 40
0.0
 40
0.0
 40
0.0909090909090909
 40
0.0909090909090909
 40
0.0909090909090909
 40
0.0909090909090909
 40
0.1818181818181818
 40
0.1818181818181818
 40
0.1818181818181818
 40
0.1818181818181818
 40
0.2727272727272727
 40
0.2727272727272727
 40
0.2727272727272727
 40
0.2727272727272727
 40
0.3636363636363636
 40
0.3636363636363636
 40
0.3636363636363636
 40
0.3636363636363636
 40
0.4545454545454546
 40
0.4545454545454546
 40
0.4545454545454546
 40
0.4545454545454546
 40
0.5454545454545455
 40
0.5454545454545455
 40
0.5454545454545455
 40
0.5454545454545455
 40
0.6363636363636365
 40
0.6363636363636365
 40
0.6363636363636365
 40
0.6363636363636365
 40
0.7272727272727274
 40
0.7272727272727274
 40
0.7272727272727274
 40
0.7272727272727274
 40
0.8181818181818183
 40
0.8181818181818183
 40
0.8181818181818183
 40
0.8181818181818183
 40
0.9090909090909093
 40
0.9090909090909093
 40
0.9090909090909093
 40
0.9090909090909093
 40
1.0
 40
1.0
 40
1.0
 40
1.0
 10
-12.39217
 20
-13.94131
 30
0.0
 10
-12.39217
 20
-13.94131
 30
0.0
 10
-12.35037
 20
-13.94131
 30
0.0
 10
-12.35037
 20
-13.94131
 30
0.0
 10
-12.35037
 20
-13.94131
 30
0.0
 10
-12.35037
 20
-13.94131
 30
0.0
 10
-12.35037
 20
-14.03331
 30
0.0
 10
-12.35037
 20
-14.03331
 30
0.0
 10
-12.35037
 20
-14.03331
 30
0.0
 10
-12.35037
 20
-14.03331
 30
0.0
 10
-12.32957
 20
-14.03331
 30
0.0
 10
-12.32957
 20
-14.03331
 30
0.0
 10
-12.32957
 20
-14.03331
 30
0.0
 10
-12.32957
 20
-14.03331
 30
0.0
 10
-12.32957
 20
-14.06054
 30
0.0
 10
-12.32957
 20
-14.06054
 30
0.0
 10
-12.32957
 20
-14.06054
 30
0.0
 10
-12.32957
 20
-14.06054
 30
0.0
 10
-12.35037
 20
-14.06054
 30
0.0
 10
-12.35037
 20
-14.06054
 30
0.0
 10
-12.35037
 20
-14.06054
 30
0.0
 10
-12.35037
 20
-14.06054
 30
0.0
 10
-12.35037
 20
-14.08711
 30
0.0
 10
-12.35037
 20
-14.08711
 30
0.0
 10
-12.35037
 20
-14.08711
 30
0.0
 10
-12.35037
 20
-14.08711
 30
0.0
 10
-12.3859
 20
-14.08711
 30
0.0
 10
-12.3859
 20
-14.08711
 30
0.0
 10
-12.3859
 20
-14.08711
 30
0.0
 10
-12.3859
 20
-14.08711
 30
0.0
 10
-12.3859
 20
-14.06054
 30
0.0
 10
-12.3859
 20
-14.06054
 30
0.0
 10
-12.3859
 20
-14.06054
 30
0.0
 10
-12.3859
 20
-14.06054
 30
0.0
 10
-12.45057
 20
-14.06054
 30
0.0
 10
-12.45057
 20
-14.06054
 30
0.0
 10
-12.45057
 20
-14.06054
 30
0.0
 10
-12.45057
 20
-14.06054
 30
0.0
 10
-12.45057
 20
-14.02831
 30
0.0
 10
-12.45057
 20
-14.02831
 30
0.0
 10
-12.45057
 20
-14.02831
 30
0.0
 10
-12.45057
 20
-14.02831
 30
0.0
 10
-12.39217
 20
-13.94131
 30
0.0
 10
-12.39217
 20
-13.94131
 30
0.0
  0
SPLINE
  5
84
330
1F
100
AcDbEntity
  8
Layer 1
 62
   250
100
AcDbSpline
210
0.0
220
0.0
230
1.0
 70
    11
 71
     3
 72
   120
 73
   116
 74
     0
 42
0.0000000001
 43
0.0000000001
 40
0.0
 40
0.0
 40
0.0
 40
0.0
 40
0.0344827586206897
 40
0.0344827586206897
 40
0.0344827586206897
 40
0.0344827586206897
 40
0.0689655172413793
 40
0.0689655172413793
 40
0.0689655172413793
 40
0.0689655172413793
 40
0.103448275862069
 40
0.103448275862069
 40
0.103448275862069
 40
0.103448275862069
 40
0.1379310344827586
 40
0.1379310344827586
 40
0.1379310344827586
 40
0.1379310344827586
 40
0.1724137931034483
 40
0.1724137931034483
 40
0.1724137931034483
 40
0.1724137931034483
 40
0.206896551724138
 40
0.206896551724138
 40
0.206896551724138
 40
0.206896551724138
 40
0.2413793103448276
 40
0.2413793103448276
 40
0.2413793103448276
 40
0.2413793103448276
 40
0.2758620689655173
 40
0.2758620689655173
 40
0.2758620689655173
 40
0.2758620689655173
 40
0.310344827586207
 40
0.310344827586207
 40
0.310344827586207
 40
0.310344827586207
 40
0.3448275862068966
 40
0.3448275862068966
 40
0.3448275862068966
 40
0.3448275862068966
 40
0.3793103448275863
 40
0.3793103448275863
 40
0.3793103448275863
 40
0.3793103448275863
 40
0.413793103448276
 40
0.413793103448276
 40
0.413793103448276
 40
0.413793103448276
 40
0.4482758620689656
 40
0.4482758620689656
 40
0.4482758620689656
 40
0.4482758620689656
 40
0.4827586206896553
 40
0.4827586206896553
 40
0.4827586206896553
 40
0.4827586206896553
 40
0.517241379310345
 40
0.517241379310345
 40
0.517241379310345
 40
0.517241379310345
 40
0.5517241379310346
 40
0.5517241379310346
 40
0.5517241379310346
 40
0.5517241379310346
 40
0.5862068965517242
 40
0.5862068965517242
 40
0.5862068965517242
 40
0.5862068965517242
 40
0.6206896551724138
 40
0.6206896551724138
 40
0.6206896551724138
 40
0.6206896551724138
 40
0.6551724137931034
 40
0.6551724137931034
 40
0.6551724137931034
 40
0.6551724137931034
 40
0.689655172413793
 40
0.689655172413793
 40
0.689655172413793
 40
0.689655172413793
 40
0.7241379310344827
 40
0.7241379310344827
 40
0.7241379310344827
 40
0.7241379310344827
 40
0.7586206896551723
 40
0.7586206896551723
 40
0.7586206896551723
 40
0.7586206896551723
 40
0.7931034482758619
 40
0.7931034482758619
 40
0.7931034482758619
 40
0.7931034482758619
 40
0.8275862068965515
 40
0.8275862068965515
 40
0.8275862068965515
 40
0.8275862068965515
 40
0.8620689655172411
 40
0.8620689655172411
 40
0.8620689655172411
 40
0.8620689655172411
 40
0.8965517241379307
 40
0.8965517241379307
 40
0.8965517241379307
 40
0.8965517241379307
 40
0.9310344827586203
 40
0.9310344827586203
 40
0.9310344827586203
 40
0.9310344827586203
 40
0.9655172413793099
 40
0.9655172413793099
 40
0.9655172413793099
 40
0.9655172413793099
 40
1.0
 40
1.0
 40
1.0
 40
1.0
 10
-12.1326
 20
-13.99591
 30
0.0
 10
-12.12817
 20
-13.98914
 30
0.0
 10
-12.12294
 20
-13.98398
 30
0.0
 10
-12.11684
 20
-13.98044
 30
0.0
 10
-12.11684
 20
-13.98044
 30
0.0
 10
-12.11074
 20
-13.97688
 30
0.0
 10
-12.10407
 20
-13.97511
 30
0.0
 10
-12.09677
 20
-13.97511
 30
0.0
 10
-12.09677
 20
-13.97511
 30
0.0
 10
-12.0842
 20
-13.97511
 30
0.0
 10
-12.07464
 20
-13.97898
 30
0.0
 10
-12.06807
 20
-13.98674
 30
0.0
 10
-12.06807
 20
-13.98674
 30
0.0
 10
-12.0615
 20
-13.99448
 30
0.0
 10
-12.0582
 20
-14.00574
 30
0.0
 10
-12.0582
 20
-14.02051
 30
0.0
 10
-12.0582
 20
-14.02051
 30
0.0
 10
-12.0582
 20
-14.02051
 30
0.0
 10
-12.0582
 20
-14.08711
 30
0.0
 10
-12.0582
 20
-14.08711
 30
0.0
 10
-12.0582
 20
-14.08711
 30
0.0
 10
-12.0582
 20
-14.08711
 30
0.0
 10
-12.09337
 20
-14.08711
 30
0.0
 10
-12.09337
 20
-14.08711
 30
0.0
 10
-12.09337
 20
-14.08711
 30
0.0
 10
-12.09337
 20
-14.08711
 30
0.0
 10
-12.09337
 20
-14.03008
 30
0.0
 10
-12.09337
 20
-14.03008
 30
0.0
 10
-12.09337
 20
-14.03008
 30
0.0
 10
-12.0933
 20
-14.02924
 30
0.0
 10
-12.09327
 20
-14.02838
 30
0.0
 10
-12.09324
 20
-14.02744
 30
0.0
 10
-12.09324
 20
-14.02744
 30
0.0
 10
-12.0932
 20
-14.02654
 30
0.0
 10
-12.09317
 20
-14.02524
 30
0.0
 10
-12.09317
 20
-14.02354
 30
0.0
 10
-12.09317
 20
-14.02354
 30
0.0
 10
-12.09317
 20
-14.01581
 30
0.0
 10
-12.0943
 20
-14.01018
 30
0.0
 10
-12.0966
 20
-14.00671
 30
0.0
 10
-12.0966
 20
-14.00671
 30
0.0
 10
-12.09887
 20
-14.00321
 30
0.0
 10
-12.10254
 20
-14.00148
 30
0.0
 10
-12.1076
 20
-14.00148
 30
0.0
 10
-12.1076
 20
-14.00148
 30
0.0
 10
-12.11427
 20
-14.00148
 30
0.0
 10
-12.11937
 20
-14.00421
 30
0.0
 10
-12.123
 20
-14.00968
 30
0.0
 10
-12.123
 20
-14.00968
 30
0.0
 10
-12.1266
 20
-14.01514
 30
0.0
 10
-12.12847
 20
-14.02304
 30
0.0
 10
-12.1286
 20
-14.03341
 30
0.0
 10
-12.1286
 20
-14.03341
 30
0.0
 10
-12.1286
 20
-14.03341
 30
0.0
 10
-12.1286
 20
-14.08711
 30
0.0
 10
-12.1286
 20
-14.08711
 30
0.0
 10
-12.1286
 20
-14.08711
 30
0.0
 10
-12.1286
 20
-14.08711
 30
0.0
 10
-12.16377
 20
-14.08711
 30
0.0
 10
-12.16377
 20
-14.08711
 30
0.0
 10
-12.16377
 20
-14.08711
 30
0.0
 10
-12.16377
 20
-14.08711
 30
0.0
 10
-12.16377
 20
-14.03008
 30
0.0
 10
-12.16377
 20
-14.03008
 30
0.0
 10
-12.16377
 20
-14.03008
 30
0.0
 10
-12.16377
 20
-14.01798
 30
0.0
 10
-12.1648
 20
-14.01018
 30
0.0
 10
-12.1669
 20
-14.00671
 30
0.0
 10
-12.1669
 20
-14.00671
 30
0.0
 10
-12.16897
 20
-14.00321
 30
0.0
 10
-12.17267
 20
-14.00148
 30
0.0
 10
-12.178
 20
-14.00148
 30
0.0
 10
-12.178
 20
-14.00148
 30
0.0
 10
-12.18474
 20
-14.00148
 30
0.0
 10
-12.1899
 20
-14.00424
 30
0.0
 10
-12.19354
 20
-14.00974
 30
0.0
 10
-12.19354
 20
-14.00974
 30
0.0
 10
-12.19717
 20
-14.01524
 30
0.0
 10
-12.199
 20
-14.02308
 30
0.0
 10
-12.199
 20
-14.03331
 30
0.0
 10
-12.199
 20
-14.03331
 30
0.0
 10
-12.199
 20
-14.03331
 30
0.0
 10
-12.199
 20
-14.08711
 30
0.0
 10
-12.199
 20
-14.08711
 30
0.0
 10
-12.199
 20
-14.08711
 30
0.0
 10
-12.199
 20
-14.08711
 30
0.0
 10
-12.23417
 20
-14.08711
 30
0.0
 10
-12.23417
 20
-14.08711
 30
0.0
 10
-12.23417
 20
-14.08711
 30
0.0
 10
-12.23417
 20
-14.08711
 30
0.0
 10
-12.23417
 20
-13.97774
 30
0.0
 10
-12.23417
 20
-13.97774
 30
0.0
 10
-12.23417
 20
-13.97774
 30
0.0
 10
-12.23417
 20
-13.97774
 30
0.0
 10
-12.199
 20
-13.97774
 30
0.0
 10
-12.199
 20
-13.97774
 30
0.0
 10
-12.199
 20
-13.97774
 30
0.0
 10
-12.199
 20
-13.97774
 30
0.0
 10
-12.199
 20
-13.99378
 30
0.0
 10
-12.199
 20
-13.99378
 30
0.0
 10
-12.199
 20
-13.99378
 30
0.0
 10
-12.1947
 20
-13.98758
 30
0.0
 10
-12.18977
 20
-13.98294
 30
0.0
 10
-12.1842
 20
-13.97981
 30
0.0
 10
-12.1842
 20
-13.97981
 30
0.0
 10
-12.17864
 20
-13.97668
 30
0.0
 10
-12.1725
 20
-13.97511
 30
0.0
 10
-12.1658
 20
-13.97511
 30
0.0
 10
-12.1658
 20
-13.97511
 30
0.0
 10
-12.15827
 20
-13.97511
 30
0.0
 10
-12.15157
 20
-13.97694
 30
0.0
 10
-12.1458
 20
-13.98058
 30
0.0
 10
-12.1458
 20
-13.98058
 30
0.0
 10
-12.14
 20
-13.98424
 30
0.0
 10
-12.1356
 20
-13.98934
 30
0.0
 10
-12.1326
 20
-13.99591
 30
0.0
  0
SPLINE
  5
85
330
1F
100
AcDbEntity
  8
Layer 1
 62
   250
100
AcDbSpline
210
0.0
220
0.0
230
1.0
 70
    11
 71
     3
 72
   120
 73
   116
 74
     0
 42
0.0000000001
 43
0.0000000001
 40
0.0
 40
0.0
 40
0.0
 40
0.0
 40
0.0344827586206897
 40
0.0344827586206897
 40
0.0344827586206897
 40
0.0344827586206897
 40
0.0689655172413793
 40
0.0689655172413793
 40
0.0689655172413793
 40
0.0689655172413793
 40
0.103448275862069
 40
0.103448275862069
 40
0.103448275862069
 40
0.103448275862069
 40
0.1379310344827586
 40
0.1379310344827586
 40
0.1379310344827586
 40
0.1379310344827586
 40
0.1724137931034483
 40
0.1724137931034483
 40
0.1724137931034483
 40
0.1724137931034483
 40
0.206896551724138
 40
0.206896551724138
 40
0.206896551724138
 40
0.206896551724138
 40
0.2413793103448276
 40
0.2413793103448276
 40
0.2413793103448276
 40
0.2413793103448276
 40
0.2758620689655173
 40
0.2758620689655173
 40
0.2758620689655173
 40
0.2758620689655173
 40
0.310344827586207
 40
0.310344827586207
 40
0.310344827586207
 40
0.310344827586207
 40
0.3448275862068966
 40
0.3448275862068966
 40
0.3448275862068966
 40
0.3448275862068966
 40
0.3793103448275863
 40
0.3793103448275863
 40
0.3793103448275863
 40
0.3793103448275863
 40
0.413793103448276
 40
0.413793103448276
 40
0.413793103448276
 40
0.413793103448276
 40
0.4482758620689656
 40
0.4482758620689656
 40
0.4482758620689656
 40
0.4482758620689656
 40
0.4827586206896553
 40
0.4827586206896553
 40
0.4827586206896553
 40
0.4827586206896553
 40
0.517241379310345
 40
0.517241379310345
 40
0.517241379310345
 40
0.517241379310345
 40
0.5517241379310346
 40
0.5517241379310346
 40
0.5517241379310346
 40
0.5517241379310346
 40
0.5862068965517242
 40
0.5862068965517242
 40
0.5862068965517242
 40
0.5862068965517242
 40
0.6206896551724138
 40
0.6206896551724138
 40
0.6206896551724138
 40
0.6206896551724138
 40
0.6551724137931034
 40
0.6551724137931034
 40
0.6551724137931034
 40
0.6551724137931034
 40
0.689655172413793
 40
0.689655172413793
 40
0.689655172413793
 40
0.689655172413793
 40
0.7241379310344827
 40
0.7241379310344827
 40
0.7241379310344827
 40
0.7241379310344827
 40
0.7586206896551723
 40
0.7586206896551723
 40
0.7586206896551723
 40
0.7586206896551723
 40
0.7931034482758619
 40
0.7931034482758619
 40
0.7931034482758619
 40
0.7931034482758619
 40
0.8275862068965515
 40
0.8275862068965515
 40
0.8275862068965515
 40
0.8275862068965515
 40
0.8620689655172411
 40
0.8620689655172411
 40
0.8620689655172411
 40
0.8620689655172411
 40
0.8965517241379307
 40
0.8965517241379307
 40
0.8965517241379307
 40
0.8965517241379307
 40
0.9310344827586203
 40
0.9310344827586203
 40
0.9310344827586203
 40
0.9310344827586203
 40
0.9655172413793099
 40
0.9655172413793099
 40
0.9655172413793099
 40
0.9655172413793099
 40
1.0
 40
1.0
 40
1.0
 40
1.0
 10
-11.9242
 20
-13.99591
 30
0.0
 10
-11.91977
 20
-13.98914
 30
0.0
 10
-11.91454
 20
-13.98398
 30
0.0
 10
-11.90844
 20
-13.98044
 30
0.0
 10
-11.90844
 20
-13.98044
 30
0.0
 10
-11.90234
 20
-13.97688
 30
0.0
 10
-11.89567
 20
-13.97511
 30
0.0
 10
-11.88837
 20
-13.97511
 30
0.0
 10
-11.88837
 20
-13.97511
 30
0.0
 10
-11.8758
 20
-13.97511
 30
0.0
 10
-11.86624
 20
-13.97898
 30
0.0
 10
-11.85967
 20
-13.98674
 30
0.0
 10
-11.85967
 20
-13.98674
 30
0.0
 10
-11.8531
 20
-13.99448
 30
0.0
 10
-11.8498
 20
-14.00574
 30
0.0
 10
-11.8498
 20
-14.02051
 30
0.0
 10
-11.8498
 20
-14.02051
 30
0.0
 10
-11.8498
 20
-14.02051
 30
0.0
 10
-11.8498
 20
-14.08711
 30
0.0
 10
-11.8498
 20
-14.08711
 30
0.0
 10
-11.8498
 20
-14.08711
 30
0.0
 10
-11.8498
 20
-14.08711
 30
0.0
 10
-11.88497
 20
-14.08711
 30
0.0
 10
-11.88497
 20
-14.08711
 30
0.0
 10
-11.88497
 20
-14.08711
 30
0.0
 10
-11.88497
 20
-14.08711
 30
0.0
 10
-11.88497
 20
-14.03008
 30
0.0
 10
-11.88497
 20
-14.03008
 30
0.0
 10
-11.88497
 20
-14.03008
 30
0.0
 10
-11.8849
 20
-14.02924
 30
0.0
 10
-11.88487
 20
-14.02838
 30
0.0
 10
-11.88484
 20
-14.02744
 30
0.0
 10
-11.88484
 20
-14.02744
 30
0.0
 10
-11.8848
 20
-14.02654
 30
0.0
 10
-11.88477
 20
-14.02524
 30
0.0
 10
-11.88477
 20
-14.02354
 30
0.0
 10
-11.88477
 20
-14.02354
 30
0.0
 10
-11.88477
 20
-14.01581
 30
0.0
 10
-11.8859
 20
-14.01018
 30
0.0
 10
-11.8882
 20
-14.00671
 30
0.0
 10
-11.8882
 20
-14.00671
 30
0.0
 10
-11.89047
 20
-14.00321
 30
0.0
 10
-11.89414
 20
-14.00148
 30
0.0
 10
-11.8992
 20
-14.00148
 30
0.0
 10
-11.8992
 20
-14.00148
 30
0.0
 10
-11.90587
 20
-14.00148
 30
0.0
 10
-11.91097
 20
-14.00421
 30
0.0
 10
-11.9146
 20
-14.00968
 30
0.0
 10
-11.9146
 20
-14.00968
 30
0.0
 10
-11.9182
 20
-14.01514
 30
0.0
 10
-11.92007
 20
-14.02304
 30
0.0
 10
-11.9202
 20
-14.03341
 30
0.0
 10
-11.9202
 20
-14.03341
 30
0.0
 10
-11.9202
 20
-14.03341
 30
0.0
 10
-11.9202
 20
-14.08711
 30
0.0
 10
-11.9202
 20
-14.08711
 30
0.0
 10
-11.9202
 20
-14.08711
 30
0.0
 10
-11.9202
 20
-14.08711
 30
0.0
 10
-11.95537
 20
-14.08711
 30
0.0
 10
-11.95537
 20
-14.08711
 30
0.0
 10
-11.95537
 20
-14.08711
 30
0.0
 10
-11.95537
 20
-14.08711
 30
0.0
 10
-11.95537
 20
-14.03008
 30
0.0
 10
-11.95537
 20
-14.03008
 30
0.0
 10
-11.95537
 20
-14.03008
 30
0.0
 10
-11.95537
 20
-14.01798
 30
0.0
 10
-11.9564
 20
-14.01018
 30
0.0
 10
-11.9585
 20
-14.00671
 30
0.0
 10
-11.9585
 20
-14.00671
 30
0.0
 10
-11.96057
 20
-14.00321
 30
0.0
 10
-11.96427
 20
-14.00148
 30
0.0
 10
-11.9696
 20
-14.00148
 30
0.0
 10
-11.9696
 20
-14.00148
 30
0.0
 10
-11.97634
 20
-14.00148
 30
0.0
 10
-11.9815
 20
-14.00424
 30
0.0
 10
-11.98514
 20
-14.00974
 30
0.0
 10
-11.98514
 20
-14.00974
 30
0.0
 10
-11.98877
 20
-14.01524
 30
0.0
 10
-11.9906
 20
-14.02308
 30
0.0
 10
-11.9906
 20
-14.03331
 30
0.0
 10
-11.9906
 20
-14.03331
 30
0.0
 10
-11.9906
 20
-14.03331
 30
0.0
 10
-11.9906
 20
-14.08711
 30
0.0
 10
-11.9906
 20
-14.08711
 30
0.0
 10
-11.9906
 20
-14.08711
 30
0.0
 10
-11.9906
 20
-14.08711
 30
0.0
 10
-12.02577
 20
-14.08711
 30
0.0
 10
-12.02577
 20
-14.08711
 30
0.0
 10
-12.02577
 20
-14.08711
 30
0.0
 10
-12.02577
 20
-14.08711
 30
0.0
 10
-12.02577
 20
-13.97774
 30
0.0
 10
-12.02577
 20
-13.97774
 30
0.0
 10
-12.02577
 20
-13.97774
 30
0.0
 10
-12.02577
 20
-13.97774
 30
0.0
 10
-11.9906
 20
-13.97774
 30
0.0
 10
-11.9906
 20
-13.97774
 30
0.0
 10
-11.9906
 20
-13.97774
 30
0.0
 10
-11.9906
 20
-13.97774
 30
0.0
 10
-11.9906
 20
-13.99378
 30
0.0
 10
-11.9906
 20
-13.99378
 30
0.0
 10
-11.9906
 20
-13.99378
 30
0.0
 10
-11.9863
 20
-13.98758
 30
0.0
 10
-11.98137
 20
-13.98294
 30
0.0
 10
-11.9758
 20
-13.97981
 30
0.0
 10
-11.9758
 20
-13.97981
 30
0.0
 10
-11.97024
 20
-13.97668
 30
0.0
 10
-11.9641
 20
-13.97511
 30
0.0
 10
-11.9574
 20
-13.97511
 30
0.0
 10
-11.9574
 20
-13.97511
 30
0.0
 10
-11.94987
 20
-13.97511
 30
0.0
 10
-11.94317
 20
-13.97694
 30
0.0
 10
-11.9374
 20
-13.98058
 30
0.0
 10
-11.9374
 20
-13.98058
 30
0.0
 10
-11.9316
 20
-13.98424
 30
0.0
 10
-11.9272
 20
-13.98934
 30
0.0
 10
-11.9242
 20
-13.99591
 30
0.0
  0
SPLINE
  5
86
330
1F
100
AcDbEntity
  8
Layer 1
 62
   250
100
AcDbSpline
210
0.0
220
0.0
230
1.0
 70
    11
 71
     3
 72
    16
 73
    12
 74
     0
 42
0.0000000001
 43
0.0000000001
 40
0.0
 40
0.0
 40
0.0
 40
0.0
 40
0.3333333333333333
 40
0.3333333333333333
 40
0.3333333333333333
 40
0.3333333333333333
 40
0.6666666666666666
 40
0.6666666666666666
 40
0.6666666666666666
 40
0.6666666666666666
 40
1.0
 40
1.0
 40
1.0
 40
1.0
 10
-11.69067
 20
-13.97228
 30
0.0
 10
-11.69067
 20
-13.97228
 30
0.0
 10
-11.73191
 20
-14.03331
 30
0.0
 10
-11.73191
 20
-14.03331
 30
0.0
 10
-11.73191
 20
-14.03331
 30
0.0
 10
-11.73191
 20
-14.03331
 30
0.0
 10
-11.69067
 20
-14.03331
 30
0.0
 10
-11.69067
 20
-14.03331
 30
0.0
 10
-11.69067
 20
-14.03331
 30
0.0
 10
-11.69067
 20
-14.03331
 30
0.0
 10
-11.69067
 20
-13.97228
 30
0.0
 10
-11.69067
 20
-13.97228
 30
0.0
  0
SPLINE
  5
87
330
1F
100
AcDbEntity
  8
Layer 1
 62
   250
100
AcDbSpline
210
0.0
220
0.0
230
1.0
 70
    11
 71
     3
 72
    48
 73
    44
 74
     0
 42
0.0000000001
 43
0.0000000001
 40
0.0
 40
0.0
 40
0.0
 40
0.0
 40
0.0909090909090909
 40
0.0909090909090909
 40
0.0909090909090909
 40
0.0909090909090909
 40
0.1818181818181818
 40
0.1818181818181818
 40
0.1818181818181818
 40
0.1818181818181818
 40
0.2727272727272727
 40
0.2727272727272727
 40
0.2727272727272727
 40
0.2727272727272727
 40
0.3636363636363636
 40
0.3636363636363636
 40
0.3636363636363636
 40
0.3636363636363636
 40
0.4545454545454546
 40
0.4545454545454546
 40
0.4545454545454546
 40
0.4545454545454546
 40
0.5454545454545455
 40
0.5454545454545455
 40
0.5454545454545455
 40
0.5454545454545455
 40
0.6363636363636365
 40
0.6363636363636365
 40
0.6363636363636365
 40
0.6363636363636365
 40
0.7272727272727274
 40
0.7272727272727274
 40
0.7272727272727274
 40
0.7272727272727274
 40
0.8181818181818183
 40
0.8181818181818183
 40
0.8181818181818183
 40
0.8181818181818183
 40
0.9090909090909093
 40
0.9090909090909093
 40
0.9090909090909093
 40
0.9090909090909093
 40
1.0
 40
1.0
 40
1.0
 40
1.0
 10
-11.69694
 20
-13.94131
 30
0.0
 10
-11.69694
 20
-13.94131
 30
0.0
 10
-11.65514
 20
-13.94131
 30
0.0
 10
-11.65514
 20
-13.94131
 30
0.0
 10
-11.65514
 20
-13.94131
 30
0.0
 10
-11.65514
 20
-13.94131
 30
0.0
 10
-11.65514
 20
-14.03331
 30
0.0
 10
-11.65514
 20
-14.03331
 30
0.0
 10
-11.65514
 20
-14.03331
 30
0.0
 10
-11.65514
 20
-14.03331
 30
0.0
 10
-11.63434
 20
-14.03331
 30
0.0
 10
-11.63434
 20
-14.03331
 30
0.0
 10
-11.63434
 20
-14.03331
 30
0.0
 10
-11.63434
 20
-14.03331
 30
0.0
 10
-11.63434
 20
-14.06054
 30
0.0
 10
-11.63434
 20
-14.06054
 30
0.0
 10
-11.63434
 20
-14.06054
 30
0.0
 10
-11.63434
 20
-14.06054
 30
0.0
 10
-11.65514
 20
-14.06054
 30
0.0
 10
-11.65514
 20
-14.06054
 30
0.0
 10
-11.65514
 20
-14.06054
 30
0.0
 10
-11.65514
 20
-14.06054
 30
0.0
 10
-11.65514
 20
-14.08711
 30
0.0
 10
-11.65514
 20
-14.08711
 30
0.0
 10
-11.65514
 20
-14.08711
 30
0.0
 10
-11.65514
 20
-14.08711
 30
0.0
 10
-11.69067
 20
-14.08711
 30
0.0
 10
-11.69067
 20
-14.08711
 30
0.0
 10
-11.69067
 20
-14.08711
 30
0.0
 10
-11.69067
 20
-14.08711
 30
0.0
 10
-11.69067
 20
-14.06054
 30
0.0
 10
-11.69067
 20
-14.06054
 30
0.0
 10
-11.69067
 20
-14.06054
 30
0.0
 10
-11.69067
 20
-14.06054
 30
0.0
 10
-11.75534
 20
-14.06054
 30
0.0
 10
-11.75534
 20
-14.06054
 30
0.0
 10
-11.75534
 20
-14.06054
 30
0.0
 10
-11.75534
 20
-14.06054
 30
0.0
 10
-11.75534
 20
-14.02831
 30
0.0
 10
-11.75534
 20
-14.02831
 30
0.0
 10
-11.75534
 20
-14.02831
 30
0.0
 10
-11.75534
 20
-14.02831
 30
0.0
 10
-11.69694
 20
-13.94131
 30
0.0
 10
-11.69694
 20
-13.94131
 30
0.0
  0
SPLINE
  5
88
330
1F
100
AcDbEntity
  8
Layer 1
 62
   250
100
AcDbSpline
210
0.0
220
0.0
230
1.0
 70
    11
 71
     3
 72
    40
 73
    36
 74
     0
 42
0.0000000001
 43
0.0000000001
 40
0.0
 40
0.0
 40
0.0
 40
0.0
 40
0.1111111111111111
 40
0.1111111111111111
 40
0.1111111111111111
 40
0.1111111111111111
 40
0.2222222222222222
 40
0.2222222222222222
 40
0.2222222222222222
 40
0.2222222222222222
 40
0.3333333333333333
 40
0.3333333333333333
 40
0.3333333333333333
 40
0.3333333333333333
 40
0.4444444444444444
 40
0.4444444444444444
 40
0.4444444444444444
 40
0.4444444444444444
 40
0.5555555555555556
 40
0.5555555555555556
 40
0.5555555555555556
 40
0.5555555555555556
 40
0.6666666666666667
 40
0.6666666666666667
 40
0.6666666666666667
 40
0.6666666666666667
 40
0.7777777777777779
 40
0.7777777777777779
 40
0.7777777777777779
 40
0.7777777777777779
 40
0.8888888888888891
 40
0.8888888888888891
 40
0.8888888888888891
 40
0.8888888888888891
 40
1.0
 40
1.0
 40
1.0
 40
1.0
 10
-11.53717
 20
-13.94131
 30
0.0
 10
-11.53717
 20
-13.94131
 30
0.0
 10
-11.47477
 20
-13.94131
 30
0.0
 10
-11.47477
 20
-13.94131
 30
0.0
 10
-11.47477
 20
-13.94131
 30
0.0
 10
-11.45621
 20
-13.94131
 30
0.0
 10
-11.44197
 20
-13.94544
 30
0.0
 10
-11.43204
 20
-13.95368
 30
0.0
 10
-11.43204
 20
-13.95368
 30
0.0
 10
-11.42211
 20
-13.96191
 30
0.0
 10
-11.41714
 20
-13.97364
 30
0.0
 10
-11.41714
 20
-13.98888
 30
0.0
 10
-11.41714
 20
-13.98888
 30
0.0
 10
-11.41714
 20
-14.00414
 30
0.0
 10
-11.42211
 20
-14.01591
 30
0.0
 10
-11.43204
 20
-14.02414
 30
0.0
 10
-11.43204
 20
-14.02414
 30
0.0
 10
-11.44197
 20
-14.03238
 30
0.0
 10
-11.45621
 20
-14.03651
 30
0.0
 10
-11.47477
 20
-14.03651
 30
0.0
 10
-11.47477
 20
-14.03651
 30
0.0
 10
-11.47477
 20
-14.03651
 30
0.0
 10
-11.49957
 20
-14.03651
 30
0.0
 10
-11.49957
 20
-14.03651
 30
0.0
 10
-11.49957
 20
-14.03651
 30
0.0
 10
-11.49957
 20
-14.03651
 30
0.0
 10
-11.49957
 20
-14.08711
 30
0.0
 10
-11.49957
 20
-14.08711
 30
0.0
 10
-11.49957
 20
-14.08711
 30
0.0
 10
-11.49957
 20
-14.08711
 30
0.0
 10
-11.53717
 20
-14.08711
 30
0.0
 10
-11.53717
 20
-14.08711
 30
0.0
 10
-11.53717
 20
-14.08711
 30
0.0
 10
-11.53717
 20
-14.08711
 30
0.0
 10
-11.53717
 20
-13.94131
 30
0.0
 10
-11.53717
 20
-13.94131
 30
0.0
  0
SPLINE
  5
89
330
1F
100
AcDbEntity
  8
Layer 1
 62
   250
100
AcDbSpline
210
0.0
220
0.0
230
1.0
 70
    11
 71
     3
 72
    32
 73
    28
 74
     0
 42
0.0000000001
 43
0.0000000001
 40
0.0
 40
0.0
 40
0.0
 40
0.0
 40
0.1428571428571428
 40
0.1428571428571428
 40
0.1428571428571428
 40
0.1428571428571428
 40
0.2857142857142857
 40
0.2857142857142857
 40
0.2857142857142857
 40
0.2857142857142857
 40
0.4285714285714285
 40
0.4285714285714285
 40
0.4285714285714285
 40
0.4285714285714285
 40
0.5714285714285714
 40
0.5714285714285714
 40
0.5714285714285714
 40
0.5714285714285714
 40
0.7142857142857142
 40
0.7142857142857142
 40
0.7142857142857142
 40
0.7142857142857142
 40
0.857142857142857
 40
0.857142857142857
 40
0.857142857142857
 40
0.857142857142857
 40
1.0
 40
1.0
 40
1.0
 40
1.0
 10
-11.49957
 20
-13.96854
 30
0.0
 10
-11.49957
 20
-13.96854
 30
0.0
 10
-11.49957
 20
-14.00928
 30
0.0
 10
-11.49957
 20
-14.00928
 30
0.0
 10
-11.49957
 20
-14.00928
 30
0.0
 10
-11.49957
 20
-14.00928
 30
0.0
 10
-11.47877
 20
-14.00928
 30
0.0
 10
-11.47877
 20
-14.00928
 30
0.0
 10
-11.47877
 20
-14.00928
 30
0.0
 10
-11.47147
 20
-14.00928
 30
0.0
 10
-11.46584
 20
-14.00751
 30
0.0
 10
-11.46187
 20
-14.00394
 30
0.0
 10
-11.46187
 20
-14.00394
 30
0.0
 10
-11.45791
 20
-14.00041
 30
0.0
 10
-11.45591
 20
-13.99538
 30
0.0
 10
-11.45591
 20
-13.98888
 30
0.0
 10
-11.45591
 20
-13.98888
 30
0.0
 10
-11.45591
 20
-13.98234
 30
0.0
 10
-11.45791
 20
-13.97734
 30
0.0
 10
-11.46187
 20
-13.97381
 30
0.0
 10
-11.46187
 20
-13.97381
 30
0.0
 10
-11.46584
 20
-13.97031
 30
0.0
 10
-11.47147
 20
-13.96854
 30
0.0
 10
-11.47877
 20
-13.96854
 30
0.0
 10
-11.47877
 20
-13.96854
 30
0.0
 10
-11.47877
 20
-13.96854
 30
0.0
 10
-11.49957
 20
-13.96854
 30
0.0
 10
-11.49957
 20
-13.96854
 30
0.0
  0
SPLINE
  5
8A
330
1F
100
AcDbEntity
  8
Layer 1
 62
   250
100
AcDbSpline
210
0.0
220
0.0
230
1.0
 70
    11
 71
     3
 72
    20
 73
    16
 74
     0
 42
0.0000000001
 43
0.0000000001
 40
0.0
 40
0.0
 40
0.0
 40
0.0
 40
0.25
 40
0.25
 40
0.25
 40
0.25
 40
0.5
 40
0.5
 40
0.5
 40
0.5
 40
0.75
 40
0.75
 40
0.75
 40
0.75
 40
1.0
 40
1.0
 40
1.0
 40
1.0
 10
-11.3906
 20
-13.94131
 30
0.0
 10
-11.3906
 20
-13.94131
 30
0.0
 10
-11.353
 20
-13.94131
 30
0.0
 10
-11.353
 20
-13.94131
 30
0.0
 10
-11.353
 20
-13.94131
 30
0.0
 10
-11.353
 20
-13.94131
 30
0.0
 10
-11.353
 20
-14.08711
 30
0.0
 10
-11.353
 20
-14.08711
 30
0.0
 10
-11.353
 20
-14.08711
 30
0.0
 10
-11.353
 20
-14.08711
 30
0.0
 10
-11.3906
 20
-14.08711
 30
0.0
 10
-11.3906
 20
-14.08711
 30
0.0
 10
-11.3906
 20
-14.08711
 30
0.0
 10
-11.3906
 20
-14.08711
 30
0.0
 10
-11.3906
 20
-13.94131
 30
0.0
 10
-11.3906
 20
-13.94131
 30
0.0
  0
SPLINE
  5
8B
330
1F
100
AcDbEntity
  8
Layer 1
 62
   250
100
AcDbSpline
210
0.0
220
0.0
230
1.0
 70
    11
 71
     3
 72
    44
 73
    40
 74
     0
 42
0.0000000001
 43
0.0000000001
 40
0.0
 40
0.0
 40
0.0
 40
0.0
 40
0.1
 40
0.1
 40
0.1
 40
0.1
 40
0.2
 40
0.2
 40
0.2
 40
0.2
 40
0.3
 40
0.3
 40
0.3
 40
0.3
 40
0.4
 40
0.4
 40
0.4
 40
0.4
 40
0.5
 40
0.5
 40
0.5
 40
0.5
 40
0.6
 40
0.6
 40
0.6
 40
0.6
 40
0.7
 40
0.7
 40
0.7
 40
0.7
 40
0.7999999999999999
 40
0.7999999999999999
 40
0.7999999999999999
 40
0.7999999999999999
 40
0.8999999999999999
 40
0.8999999999999999
 40
0.8999999999999999
 40
0.8999999999999999
 40
1.0
 40
1.0
 40
1.0
 40
1.0
 10
-11.3162
 20
-13.94131
 30
0.0
 10
-11.3162
 20
-13.94131
 30
0.0
 10
-11.2742
 20
-13.94131
 30
0.0
 10
-11.2742
 20
-13.94131
 30
0.0
 10
-11.2742
 20
-13.94131
 30
0.0
 10
-11.2742
 20
-13.94131
 30
0.0
 10
-11.22117
 20
-14.04131
 30
0.0
 10
-11.22117
 20
-14.04131
 30
0.0
 10
-11.22117
 20
-14.04131
 30
0.0
 10
-11.22117
 20
-14.04131
 30
0.0
 10
-11.22117
 20
-13.94131
 30
0.0
 10
-11.22117
 20
-13.94131
 30
0.0
 10
-11.22117
 20
-13.94131
 30
0.0
 10
-11.22117
 20
-13.94131
 30
0.0
 10
-11.18554
 20
-13.94131
 30
0.0
 10
-11.18554
 20
-13.94131
 30
0.0
 10
-11.18554
 20
-13.94131
 30
0.0
 10
-11.18554
 20
-13.94131
 30
0.0
 10
-11.18554
 20
-14.08711
 30
0.0
 10
-11.18554
 20
-14.08711
 30
0.0
 10
-11.18554
 20
-14.08711
 30
0.0
 10
-11.18554
 20
-14.08711
 30
0.0
 10
-11.22754
 20
-14.08711
 30
0.0
 10
-11.22754
 20
-14.08711
 30
0.0
 10
-11.22754
 20
-14.08711
 30
0.0
 10
-11.22754
 20
-14.08711
 30
0.0
 10
-11.28057
 20
-13.98711
 30
0.0
 10
-11.28057
 20
-13.98711
 30
0.0
 10
-11.28057
 20
-13.98711
 30
0.0
 10
-11.28057
 20
-13.98711
 30
0.0
 10
-11.28057
 20
-14.08711
 30
0.0
 10
-11.28057
 20
-14.08711
 30
0.0
 10
-11.28057
 20
-14.08711
 30
0.0
 10
-11.28057
 20
-14.08711
 30
0.0
 10
-11.3162
 20
-14.08711
 30
0.0
 10
-11.3162
 20
-14.08711
 30
0.0
 10
-11.3162
 20
-14.08711
 30
0.0
 10
-11.3162
 20
-14.08711
 30
0.0
 10
-11.3162
 20
-13.94131
 30
0.0
 10
-11.3162
 20
-13.94131
 30
0.0
  0
SPLINE
  5
8C
330
1F
100
AcDbEntity
  8
Layer 1
 62
   250
100
AcDbSpline
210
0.0
220
0.0
230
1.0
 70
    11
 71
     3
 72
    52
 73
    48
 74
     0
 42
0.0000000001
 43
0.0000000001
 40
0.0
 40
0.0
 40
0.0
 40
0.0
 40
0.0833333333333333
 40
0.0833333333333333
 40
0.0833333333333333
 40
0.0833333333333333
 40
0.1666666666666667
 40
0.1666666666666667
 40
0.1666666666666667
 40
0.1666666666666667
 40
0.25
 40
0.25
 40
0.25
 40
0.25
 40
0.3333333333333333
 40
0.3333333333333333
 40
0.3333333333333333
 40
0.3333333333333333
 40
0.4166666666666666
 40
0.4166666666666666
 40
0.4166666666666666
 40
0.4166666666666666
 40
0.4999999999999999
 40
0.4999999999999999
 40
0.4999999999999999
 40
0.4999999999999999
 40
0.5833333333333333
 40
0.5833333333333333
 40
0.5833333333333333
 40
0.5833333333333333
 40
0.6666666666666666
 40
0.6666666666666666
 40
0.6666666666666666
 40
0.6666666666666666
 40
0.75
 40
0.75
 40
0.75
 40
0.75
 40
0.8333333333333334
 40
0.8333333333333334
 40
0.8333333333333334
 40
0.8333333333333334
 40
0.9166666666666667
 40
0.9166666666666667
 40
0.9166666666666667
 40
0.9166666666666667
 40
1.0
 40
1.0
 40
1.0
 40
1.0
 10
-11.0792
 20
-13.94131
 30
0.0
 10
-11.0792
 20
-13.94131
 30
0.0
 10
-11.0416
 20
-13.94131
 30
0.0
 10
-11.0416
 20
-13.94131
 30
0.0
 10
-11.0416
 20
-13.94131
 30
0.0
 10
-11.0416
 20
-13.94131
 30
0.0
 10
-11.0416
 20
-13.99688
 30
0.0
 10
-11.0416
 20
-13.99688
 30
0.0
 10
-11.0416
 20
-13.99688
 30
0.0
 10
-11.0416
 20
-13.99688
 30
0.0
 10
-10.98614
 20
-13.99688
 30
0.0
 10
-10.98614
 20
-13.99688
 30
0.0
 10
-10.98614
 20
-13.99688
 30
0.0
 10
-10.98614
 20
-13.99688
 30
0.0
 10
-10.98614
 20
-13.94131
 30
0.0
 10
-10.98614
 20
-13.94131
 30
0.0
 10
-10.98614
 20
-13.94131
 30
0.0
 10
-10.98614
 20
-13.94131
 30
0.0
 10
-10.94854
 20
-13.94131
 30
0.0
 10
-10.94854
 20
-13.94131
 30
0.0
 10
-10.94854
 20
-13.94131
 30
0.0
 10
-10.94854
 20
-13.94131
 30
0.0
 10
-10.94854
 20
-14.08711
 30
0.0
 10
-10.94854
 20
-14.08711
 30
0.0
 10
-10.94854
 20
-14.08711
 30
0.0
 10
-10.94854
 20
-14.08711
 30
0.0
 10
-10.98614
 20
-14.08711
 30
0.0
 10
-10.98614
 20
-14.08711
 30
0.0
 10
-10.98614
 20
-14.08711
 30
0.0
 10
-10.98614
 20
-14.08711
 30
0.0
 10
-10.98614
 20
-14.02531
 30
0.0
 10
-10.98614
 20
-14.02531
 30
0.0
 10
-10.98614
 20
-14.02531
 30
0.0
 10
-10.98614
 20
-14.02531
 30
0.0
 10
-11.0416
 20
-14.02531
 30
0.0
 10
-11.0416
 20
-14.02531
 30
0.0
 10
-11.0416
 20
-14.02531
 30
0.0
 10
-11.0416
 20
-14.02531
 30
0.0
 10
-11.0416
 20
-14.08711
 30
0.0
 10
-11.0416
 20
-14.08711
 30
0.0
 10
-11.0416
 20
-14.08711
 30
0.0
 10
-11.0416
 20
-14.08711
 30
0.0
 10
-11.0792
 20
-14.08711
 30
0.0
 10
-11.0792
 20
-14.08711
 30
0.0
 10
-11.0792
 20
-14.08711
 30
0.0
 10
-11.0792
 20
-14.08711
 30
0.0
 10
-11.0792
 20
-13.94131
 30
0.0
 10
-11.0792
 20
-13.94131
 30
0.0
  0
SPLINE
  5
8D
330
1F
100
AcDbEntity
  8
Layer 1
 62
   250
100
AcDbSpline
210
0.0
220
0.0
230
1.0
 70
    11
 71
     3
 72
    52
 73
    48
 74
     0
 42
0.0000000001
 43
0.0000000001
 40
0.0
 40
0.0
 40
0.0
 40
0.0
 40
0.0833333333333333
 40
0.0833333333333333
 40
0.0833333333333333
 40
0.0833333333333333
 40
0.1666666666666667
 40
0.1666666666666667
 40
0.1666666666666667
 40
0.1666666666666667
 40
0.25
 40
0.25
 40
0.25
 40
0.25
 40
0.3333333333333333
 40
0.3333333333333333
 40
0.3333333333333333
 40
0.3333333333333333
 40
0.4166666666666666
 40
0.4166666666666666
 40
0.4166666666666666
 40
0.4166666666666666
 40
0.4999999999999999
 40
0.4999999999999999
 40
0.4999999999999999
 40
0.4999999999999999
 40
0.5833333333333333
 40
0.5833333333333333
 40
0.5833333333333333
 40
0.5833333333333333
 40
0.6666666666666666
 40
0.6666666666666666
 40
0.6666666666666666
 40
0.6666666666666666
 40
0.75
 40
0.75
 40
0.75
 40
0.75
 40
0.8333333333333334
 40
0.8333333333333334
 40
0.8333333333333334
 40
0.8333333333333334
 40
0.9166666666666667
 40
0.9166666666666667
 40
0.9166666666666667
 40
0.9166666666666667
 40
1.0
 40
1.0
 40
1.0
 40
1.0
 10
-10.91183
 20
-13.94131
 30
0.0
 10
-10.91183
 20
-13.94131
 30
0.0
 10
-10.81037
 20
-13.94131
 30
0.0
 10
-10.81037
 20
-13.94131
 30
0.0
 10
-10.81037
 20
-13.94131
 30
0.0
 10
-10.81037
 20
-13.94131
 30
0.0
 10
-10.81037
 20
-13.96974
 30
0.0
 10
-10.81037
 20
-13.96974
 30
0.0
 10
-10.81037
 20
-13.96974
 30
0.0
 10
-10.81037
 20
-13.96974
 30
0.0
 10
-10.87423
 20
-13.96974
 30
0.0
 10
-10.87423
 20
-13.96974
 30
0.0
 10
-10.87423
 20
-13.96974
 30
0.0
 10
-10.87423
 20
-13.96974
 30
0.0
 10
-10.87423
 20
-13.99688
 30
0.0
 10
-10.87423
 20
-13.99688
 30
0.0
 10
-10.87423
 20
-13.99688
 30
0.0
 10
-10.87423
 20
-13.99688
 30
0.0
 10
-10.8142
 20
-13.99688
 30
0.0
 10
-10.8142
 20
-13.99688
 30
0.0
 10
-10.8142
 20
-13.99688
 30
0.0
 10
-10.8142
 20
-13.99688
 30
0.0
 10
-10.8142
 20
-14.02531
 30
0.0
 10
-10.8142
 20
-14.02531
 30
0.0
 10
-10.8142
 20
-14.02531
 30
0.0
 10
-10.8142
 20
-14.02531
 30
0.0
 10
-10.87423
 20
-14.02531
 30
0.0
 10
-10.87423
 20
-14.02531
 30
0.0
 10
-10.87423
 20
-14.02531
 30
0.0
 10
-10.87423
 20
-14.02531
 30
0.0
 10
-10.87423
 20
-14.05868
 30
0.0
 10
-10.87423
 20
-14.05868
 30
0.0
 10
-10.87423
 20
-14.05868
 30
0.0
 10
-10.87423
 20
-14.05868
 30
0.0
 10
-10.80823
 20
-14.05868
 30
0.0
 10
-10.80823
 20
-14.05868
 30
0.0
 10
-10.80823
 20
-14.05868
 30
0.0
 10
-10.80823
 20
-14.05868
 30
0.0
 10
-10.80823
 20
-14.08711
 30
0.0
 10
-10.80823
 20
-14.08711
 30
0.0
 10
-10.80823
 20
-14.08711
 30
0.0
 10
-10.80823
 20
-14.08711
 30
0.0
 10
-10.91183
 20
-14.08711
 30
0.0
 10
-10.91183
 20
-14.08711
 30
0.0
 10
-10.91183
 20
-14.08711
 30
0.0
 10
-10.91183
 20
-14.08711
 30
0.0
 10
-10.91183
 20
-13.94131
 30
0.0
 10
-10.91183
 20
-13.94131
 30
0.0
  0
SPLINE
  5
8E
330
1F
100
AcDbEntity
  8
Layer 1
 62
   250
100
AcDbSpline
210
0.0
220
0.0
230
1.0
 70
    11
 71
     3
 72
    36
 73
    32
 74
     0
 42
0.0000000001
 43
0.0000000001
 40
0.0
 40
0.0
 40
0.0
 40
0.0
 40
0.125
 40
0.125
 40
0.125
 40
0.125
 40
0.25
 40
0.25
 40
0.25
 40
0.25
 40
0.375
 40
0.375
 40
0.375
 40
0.375
 40
0.5
 40
0.5
 40
0.5
 40
0.5
 40
0.625
 40
0.625
 40
0.625
 40
0.625
 40
0.75
 40
0.75
 40
0.75
 40
0.75
 40
0.875
 40
0.875
 40
0.875
 40
0.875
 40
1.0
 40
1.0
 40
1.0
 40
1.0
 10
-10.68674
 20
-14.06058
 30
0.0
 10
-10.68674
 20
-14.06058
 30
0.0
 10
-10.74554
 20
-14.06058
 30
0.0
 10
-10.74554
 20
-14.06058
 30
0.0
 10
-10.74554
 20
-14.06058
 30
0.0
 10
-10.74554
 20
-14.06058
 30
0.0
 10
-10.7548
 20
-14.08711
 30
0.0
 10
-10.7548
 20
-14.08711
 30
0.0
 10
-10.7548
 20
-14.08711
 30
0.0
 10
-10.7548
 20
-14.08711
 30
0.0
 10
-10.7926
 20
-14.08711
 30
0.0
 10
-10.7926
 20
-14.08711
 30
0.0
 10
-10.7926
 20
-14.08711
 30
0.0
 10
-10.7926
 20
-14.08711
 30
0.0
 10
-10.7386
 20
-13.94131
 30
0.0
 10
-10.7386
 20
-13.94131
 30
0.0
 10
-10.7386
 20
-13.94131
 30
0.0
 10
-10.7386
 20
-13.94131
 30
0.0
 10
-10.69377
 20
-13.94131
 30
0.0
 10
-10.69377
 20
-13.94131
 30
0.0
 10
-10.69377
 20
-13.94131
 30
0.0
 10
-10.69377
 20
-13.94131
 30
0.0
 10
-10.63977
 20
-14.08711
 30
0.0
 10
-10.63977
 20
-14.08711
 30
0.0
 10
-10.63977
 20
-14.08711
 30
0.0
 10
-10.63977
 20
-14.08711
 30
0.0
 10
-10.67757
 20
-14.08711
 30
0.0
 10
-10.67757
 20
-14.08711
 30
0.0
 10
-10.67757
 20
-14.08711
 30
0.0
 10
-10.67757
 20
-14.08711
 30
0.0
 10
-10.68674
 20
-14.06058
 30
0.0
 10
-10.68674
 20
-14.06058
 30
0.0
  0
SPLINE
  5
8F
330
1F
100
AcDbEntity
  8
Layer 1
 62
   250
100
AcDbSpline
210
0.0
220
0.0
230
1.0
 70
    11
 71
     3
 72
    16
 73
    12
 74
     0
 42
0.0000000001
 43
0.0000000001
 40
0.0
 40
0.0
 40
0.0
 40
0.0
 40
0.3333333333333333
 40
0.3333333333333333
 40
0.3333333333333333
 40
0.3333333333333333
 40
0.6666666666666666
 40
0.6666666666666666
 40
0.6666666666666666
 40
0.6666666666666666
 40
1.0
 40
1.0
 40
1.0
 40
1.0
 10
-10.73617
 20
-14.03351
 30
0.0
 10
-10.73617
 20
-14.03351
 30
0.0
 10
-10.6962
 20
-14.03351
 30
0.0
 10
-10.6962
 20
-14.03351
 30
0.0
 10
-10.6962
 20
-14.03351
 30
0.0
 10
-10.6962
 20
-14.03351
 30
0.0
 10
-10.71614
 20
-13.97551
 30
0.0
 10
-10.71614
 20
-13.97551
 30
0.0
 10
-10.71614
 20
-13.97551
 30
0.0
 10
-10.71614
 20
-13.97551
 30
0.0
 10
-10.73617
 20
-14.03351
 30
0.0
 10
-10.73617
 20
-14.03351
 30
0.0
  0
SPLINE
  5
90
330
1F
100
AcDbEntity
  8
Layer 1
 62
   250
100
AcDbSpline
210
0.0
220
0.0
230
1.0
 70
    11
 71
     3
 72
    32
 73
    28
 74
     0
 42
0.0000000001
 43
0.0000000001
 40
0.0
 40
0.0
 40
0.0
 40
0.0
 40
0.1428571428571428
 40
0.1428571428571428
 40
0.1428571428571428
 40
0.1428571428571428
 40
0.2857142857142857
 40
0.2857142857142857
 40
0.2857142857142857
 40
0.2857142857142857
 40
0.4285714285714285
 40
0.4285714285714285
 40
0.4285714285714285
 40
0.4285714285714285
 40
0.5714285714285714
 40
0.5714285714285714
 40
0.5714285714285714
 40
0.5714285714285714
 40
0.7142857142857142
 40
0.7142857142857142
 40
0.7142857142857142
 40
0.7142857142857142
 40
0.857142857142857
 40
0.857142857142857
 40
0.857142857142857
 40
0.857142857142857
 40
1.0
 40
1.0
 40
1.0
 40
1.0
 10
-10.5828
 20
-13.96974
 30
0.0
 10
-10.5828
 20
-13.96974
 30
0.0
 10
-10.5828
 20
-14.05868
 30
0.0
 10
-10.5828
 20
-14.05868
 30
0.0
 10
-10.5828
 20
-14.05868
 30
0.0
 10
-10.5828
 20
-14.05868
 30
0.0
 10
-10.56934
 20
-14.05868
 30
0.0
 10
-10.56934
 20
-14.05868
 30
0.0
 10
-10.56934
 20
-14.05868
 30
0.0
 10
-10.55397
 20
-14.05868
 30
0.0
 10
-10.54224
 20
-14.05488
 30
0.0
 10
-10.53414
 20
-14.04724
 30
0.0
 10
-10.53414
 20
-14.04724
 30
0.0
 10
-10.52604
 20
-14.03964
 30
0.0
 10
-10.52197
 20
-14.02858
 30
0.0
 10
-10.52197
 20
-14.01408
 30
0.0
 10
-10.52197
 20
-14.01408
 30
0.0
 10
-10.52197
 20
-13.99961
 30
0.0
 10
-10.526
 20
-13.98861
 30
0.0
 10
-10.53407
 20
-13.98108
 30
0.0
 10
-10.53407
 20
-13.98108
 30
0.0
 10
-10.54214
 20
-13.97351
 30
0.0
 10
-10.5539
 20
-13.96974
 30
0.0
 10
-10.56934
 20
-13.96974
 30
0.0
 10
-10.56934
 20
-13.96974
 30
0.0
 10
-10.56934
 20
-13.96974
 30
0.0
 10
-10.5828
 20
-13.96974
 30
0.0
 10
-10.5828
 20
-13.96974
 30
0.0
  0
SPLINE
  5
91
330
1F
100
AcDbEntity
  8
Layer 1
 62
   250
100
AcDbSpline
210
0.0
220
0.0
230
1.0
 70
    11
 71
     3
 72
    48
 73
    44
 74
     0
 42
0.0000000001
 43
0.0000000001
 40
0.0
 40
0.0
 40
0.0
 40
0.0
 40
0.0909090909090909
 40
0.0909090909090909
 40
0.0909090909090909
 40
0.0909090909090909
 40
0.1818181818181818
 40
0.1818181818181818
 40
0.1818181818181818
 40
0.1818181818181818
 40
0.2727272727272727
 40
0.2727272727272727
 40
0.2727272727272727
 40
0.2727272727272727
 40
0.3636363636363636
 40
0.3636363636363636
 40
0.3636363636363636
 40
0.3636363636363636
 40
0.4545454545454546
 40
0.4545454545454546
 40
0.4545454545454546
 40
0.4545454545454546
 40
0.5454545454545455
 40
0.5454545454545455
 40
0.5454545454545455
 40
0.5454545454545455
 40
0.6363636363636365
 40
0.6363636363636365
 40
0.6363636363636365
 40
0.6363636363636365
 40
0.7272727272727274
 40
0.7272727272727274
 40
0.7272727272727274
 40
0.7272727272727274
 40
0.8181818181818183
 40
0.8181818181818183
 40
0.8181818181818183
 40
0.8181818181818183
 40
0.9090909090909093
 40
0.9090909090909093
 40
0.9090909090909093
 40
0.9090909090909093
 40
1.0
 40
1.0
 40
1.0
 40
1.0
 10
-10.6204
 20
-13.94131
 30
0.0
 10
-10.6204
 20
-13.94131
 30
0.0
 10
-10.58074
 20
-13.94131
 30
0.0
 10
-10.58074
 20
-13.94131
 30
0.0
 10
-10.58074
 20
-13.94131
 30
0.0
 10
-10.5586
 20
-13.94131
 30
0.0
 10
-10.54214
 20
-13.94288
 30
0.0
 10
-10.5313
 20
-13.94604
 30
0.0
 10
-10.5313
 20
-13.94604
 30
0.0
 10
-10.52047
 20
-13.94921
 30
0.0
 10
-10.51117
 20
-13.95454
 30
0.0
 10
-10.5034
 20
-13.96211
 30
0.0
 10
-10.5034
 20
-13.96211
 30
0.0
 10
-10.49657
 20
-13.96868
 30
0.0
 10
-10.4915
 20
-13.97628
 30
0.0
 10
-10.48817
 20
-13.98488
 30
0.0
 10
-10.48817
 20
-13.98488
 30
0.0
 10
-10.48487
 20
-13.99344
 30
0.0
 10
-10.4832
 20
-14.00318
 30
0.0
 10
-10.4832
 20
-14.01408
 30
0.0
 10
-10.4832
 20
-14.01408
 30
0.0
 10
-10.4832
 20
-14.02508
 30
0.0
 10
-10.48487
 20
-14.03488
 30
0.0
 10
-10.48817
 20
-14.04351
 30
0.0
 10
-10.48817
 20
-14.04351
 30
0.0
 10
-10.4915
 20
-14.05214
 30
0.0
 10
-10.49657
 20
-14.05974
 30
0.0
 10
-10.5034
 20
-14.06631
 30
0.0
 10
-10.5034
 20
-14.06631
 30
0.0
 10
-10.51124
 20
-14.07388
 30
0.0
 10
-10.5206
 20
-14.07921
 30
0.0
 10
-10.53154
 20
-14.08238
 30
0.0
 10
-10.53154
 20
-14.08238
 30
0.0
 10
-10.54247
 20
-14.08554
 30
0.0
 10
-10.55887
 20
-14.08711
 30
0.0
 10
-10.58074
 20
-14.08711
 30
0.0
 10
-10.58074
 20
-14.08711
 30
0.0
 10
-10.58074
 20
-14.08711
 30
0.0
 10
-10.6204
 20
-14.08711
 30
0.0
 10
-10.6204
 20
-14.08711
 30
0.0
 10
-10.6204
 20
-14.08711
 30
0.0
 10
-10.6204
 20
-14.08711
 30
0.0
 10
-10.6204
 20
-13.94131
 30
0.0
 10
-10.6204
 20
-13.94131
 30
0.0
  0
SPLINE
  5
92
330
1F
100
AcDbEntity
  8
Layer 1
 62
   250
100
AcDbSpline
210
0.0
220
0.0
230
1.0
 70
    11
 71
     3
 72
    52
 73
    48
 74
     0
 42
0.0000000001
 43
0.0000000001
 40
0.0
 40
0.0
 40
0.0
 40
0.0
 40
0.0833333333333333
 40
0.0833333333333333
 40
0.0833333333333333
 40
0.0833333333333333
 40
0.1666666666666667
 40
0.1666666666666667
 40
0.1666666666666667
 40
0.1666666666666667
 40
0.25
 40
0.25
 40
0.25
 40
0.25
 40
0.3333333333333333
 40
0.3333333333333333
 40
0.3333333333333333
 40
0.3333333333333333
 40
0.4166666666666666
 40
0.4166666666666666
 40
0.4166666666666666
 40
0.4166666666666666
 40
0.4999999999999999
 40
0.4999999999999999
 40
0.4999999999999999
 40
0.4999999999999999
 40
0.5833333333333333
 40
0.5833333333333333
 40
0.5833333333333333
 40
0.5833333333333333
 40
0.6666666666666666
 40
0.6666666666666666
 40
0.6666666666666666
 40
0.6666666666666666
 40
0.75
 40
0.75
 40
0.75
 40
0.75
 40
0.8333333333333334
 40
0.8333333333333334
 40
0.8333333333333334
 40
0.8333333333333334
 40
0.9166666666666667
 40
0.9166666666666667
 40
0.9166666666666667
 40
0.9166666666666667
 40
1.0
 40
1.0
 40
1.0
 40
1.0
 10
-10.4544
 20
-13.94131
 30
0.0
 10
-10.4544
 20
-13.94131
 30
0.0
 10
-10.35294
 20
-13.94131
 30
0.0
 10
-10.35294
 20
-13.94131
 30
0.0
 10
-10.35294
 20
-13.94131
 30
0.0
 10
-10.35294
 20
-13.94131
 30
0.0
 10
-10.35294
 20
-13.96974
 30
0.0
 10
-10.35294
 20
-13.96974
 30
0.0
 10
-10.35294
 20
-13.96974
 30
0.0
 10
-10.35294
 20
-13.96974
 30
0.0
 10
-10.4168
 20
-13.96974
 30
0.0
 10
-10.4168
 20
-13.96974
 30
0.0
 10
-10.4168
 20
-13.96974
 30
0.0
 10
-10.4168
 20
-13.96974
 30
0.0
 10
-10.4168
 20
-13.99688
 30
0.0
 10
-10.4168
 20
-13.99688
 30
0.0
 10
-10.4168
 20
-13.99688
 30
0.0
 10
-10.4168
 20
-13.99688
 30
0.0
 10
-10.35677
 20
-13.99688
 30
0.0
 10
-10.35677
 20
-13.99688
 30
0.0
 10
-10.35677
 20
-13.99688
 30
0.0
 10
-10.35677
 20
-13.99688
 30
0.0
 10
-10.35677
 20
-14.02531
 30
0.0
 10
-10.35677
 20
-14.02531
 30
0.0
 10
-10.35677
 20
-14.02531
 30
0.0
 10
-10.35677
 20
-14.02531
 30
0.0
 10
-10.4168
 20
-14.02531
 30
0.0
 10
-10.4168
 20
-14.02531
 30
0.0
 10
-10.4168
 20
-14.02531
 30
0.0
 10
-10.4168
 20
-14.02531
 30
0.0
 10
-10.4168
 20
-14.05868
 30
0.0
 10
-10.4168
 20
-14.05868
 30
0.0
 10
-10.4168
 20
-14.05868
 30
0.0
 10
-10.4168
 20
-14.05868
 30
0.0
 10
-10.3508
 20
-14.05868
 30
0.0
 10
-10.3508
 20
-14.05868
 30
0.0
 10
-10.3508
 20
-14.05868
 30
0.0
 10
-10.3508
 20
-14.05868
 30
0.0
 10
-10.3508
 20
-14.08711
 30
0.0
 10
-10.3508
 20
-14.08711
 30
0.0
 10
-10.3508
 20
-14.08711
 30
0.0
 10
-10.3508
 20
-14.08711
 30
0.0
 10
-10.4544
 20
-14.08711
 30
0.0
 10
-10.4544
 20
-14.08711
 30
0.0
 10
-10.4544
 20
-14.08711
 30
0.0
 10
-10.4544
 20
-14.08711
 30
0.0
 10
-10.4544
 20
-13.94131
 30
0.0
 10
-10.4544
 20
-13.94131
 30
0.0
  0
SPLINE
  5
93
330
1F
100
AcDbEntity
  8
Layer 1
 62
   250
100
AcDbSpline
210
0.0
220
0.0
230
1.0
 70
    11
 71
     3
 72
    32
 73
    28
 74
     0
 42
0.0000000001
 43
0.0000000001
 40
0.0
 40
0.0
 40
0.0
 40
0.0
 40
0.1428571428571428
 40
0.1428571428571428
 40
0.1428571428571428
 40
0.1428571428571428
 40
0.2857142857142857
 40
0.2857142857142857
 40
0.2857142857142857
 40
0.2857142857142857
 40
0.4285714285714285
 40
0.4285714285714285
 40
0.4285714285714285
 40
0.4285714285714285
 40
0.5714285714285714
 40
0.5714285714285714
 40
0.5714285714285714
 40
0.5714285714285714
 40
0.7142857142857142
 40
0.7142857142857142
 40
0.7142857142857142
 40
0.7142857142857142
 40
0.857142857142857
 40
0.857142857142857
 40
0.857142857142857
 40
0.857142857142857
 40
1.0
 40
1.0
 40
1.0
 40
1.0
 10
-10.26434
 20
-14.00598
 30
0.0
 10
-10.25647
 20
-14.00598
 30
0.0
 10
-10.25081
 20
-14.00451
 30
0.0
 10
-10.24741
 20
-14.00158
 30
0.0
 10
-10.24741
 20
-14.00158
 30
0.0
 10
-10.24397
 20
-13.99864
 30
0.0
 10
-10.24227
 20
-13.99381
 30
0.0
 10
-10.24227
 20
-13.98711
 30
0.0
 10
-10.24227
 20
-13.98711
 30
0.0
 10
-10.24227
 20
-13.98048
 30
0.0
 10
-10.24397
 20
-13.97571
 30
0.0
 10
-10.24741
 20
-13.97284
 30
0.0
 10
-10.24741
 20
-13.97284
 30
0.0
 10
-10.25081
 20
-13.96998
 30
0.0
 10
-10.25647
 20
-13.96854
 30
0.0
 10
-10.26434
 20
-13.96854
 30
0.0
 10
-10.26434
 20
-13.96854
 30
0.0
 10
-10.26434
 20
-13.96854
 30
0.0
 10
-10.28017
 20
-13.96854
 30
0.0
 10
-10.28017
 20
-13.96854
 30
0.0
 10
-10.28017
 20
-13.96854
 30
0.0
 10
-10.28017
 20
-13.96854
 30
0.0
 10
-10.28017
 20
-14.00598
 30
0.0
 10
-10.28017
 20
-14.00598
 30
0.0
 10
-10.28017
 20
-14.00598
 30
0.0
 10
-10.28017
 20
-14.00598
 30
0.0
 10
-10.26434
 20
-14.00598
 30
0.0
 10
-10.26434
 20
-14.00598
 30
0.0
  0
SPLINE
  5
94
330
1F
100
AcDbEntity
  8
Layer 1
 62
   250
100
AcDbSpline
210
0.0
220
0.0
230
1.0
 70
    11
 71
     3
 72
    68
 73
    64
 74
     0
 42
0.0000000001
 43
0.0000000001
 40
0.0
 40
0.0
 40
0.0
 40
0.0
 40
0.0625
 40
0.0625
 40
0.0625
 40
0.0625
 40
0.125
 40
0.125
 40
0.125
 40
0.125
 40
0.1875
 40
0.1875
 40
0.1875
 40
0.1875
 40
0.25
 40
0.25
 40
0.25
 40
0.25
 40
0.3125
 40
0.3125
 40
0.3125
 40
0.3125
 40
0.375
 40
0.375
 40
0.375
 40
0.375
 40
0.4375
 40
0.4375
 40
0.4375
 40
0.4375
 40
0.5
 40
0.5
 40
0.5
 40
0.5
 40
0.5625
 40
0.5625
 40
0.5625
 40
0.5625
 40
0.625
 40
0.625
 40
0.625
 40
0.625
 40
0.6875
 40
0.6875
 40
0.6875
 40
0.6875
 40
0.75
 40
0.75
 40
0.75
 40
0.75
 40
0.8125
 40
0.8125
 40
0.8125
 40
0.8125
 40
0.875
 40
0.875
 40
0.875
 40
0.875
 40
0.9375
 40
0.9375
 40
0.9375
 40
0.9375
 40
1.0
 40
1.0
 40
1.0
 40
1.0
 10
-10.28017
 20
-14.03194
 30
0.0
 10
-10.28017
 20
-14.03194
 30
0.0
 10
-10.28017
 20
-14.08711
 30
0.0
 10
-10.28017
 20
-14.08711
 30
0.0
 10
-10.28017
 20
-14.08711
 30
0.0
 10
-10.28017
 20
-14.08711
 30
0.0
 10
-10.31777
 20
-14.08711
 30
0.0
 10
-10.31777
 20
-14.08711
 30
0.0
 10
-10.31777
 20
-14.08711
 30
0.0
 10
-10.31777
 20
-14.08711
 30
0.0
 10
-10.31777
 20
-13.94131
 30
0.0
 10
-10.31777
 20
-13.94131
 30
0.0
 10
-10.31777
 20
-13.94131
 30
0.0
 10
-10.31777
 20
-13.94131
 30
0.0
 10
-10.26034
 20
-13.94131
 30
0.0
 10
-10.26034
 20
-13.94131
 30
0.0
 10
-10.26034
 20
-13.94131
 30
0.0
 10
-10.24114
 20
-13.94131
 30
0.0
 10
-10.22704
 20
-13.94454
 30
0.0
 10
-10.21811
 20
-13.95098
 30
0.0
 10
-10.21811
 20
-13.95098
 30
0.0
 10
-10.20914
 20
-13.95741
 30
0.0
 10
-10.20467
 20
-13.96761
 30
0.0
 10
-10.20467
 20
-13.98154
 30
0.0
 10
-10.20467
 20
-13.98154
 30
0.0
 10
-10.20467
 20
-13.99118
 30
0.0
 10
-10.20701
 20
-13.99911
 30
0.0
 10
-10.21164
 20
-14.00528
 30
0.0
 10
-10.21164
 20
-14.00528
 30
0.0
 10
-10.21631
 20
-14.01148
 30
0.0
 10
-10.22334
 20
-14.01604
 30
0.0
 10
-10.23271
 20
-14.01894
 30
0.0
 10
-10.23271
 20
-14.01894
 30
0.0
 10
-10.22757
 20
-14.02014
 30
0.0
 10
-10.22294
 20
-14.02278
 30
0.0
 10
-10.21887
 20
-14.02691
 30
0.0
 10
-10.21887
 20
-14.02691
 30
0.0
 10
-10.21481
 20
-14.03104
 30
0.0
 10
-10.21071
 20
-14.03731
 30
0.0
 10
-10.20654
 20
-14.04571
 30
0.0
 10
-10.20654
 20
-14.04571
 30
0.0
 10
-10.20654
 20
-14.04571
 30
0.0
 10
-10.18611
 20
-14.08711
 30
0.0
 10
-10.18611
 20
-14.08711
 30
0.0
 10
-10.18611
 20
-14.08711
 30
0.0
 10
-10.18611
 20
-14.08711
 30
0.0
 10
-10.22617
 20
-14.08711
 30
0.0
 10
-10.22617
 20
-14.08711
 30
0.0
 10
-10.22617
 20
-14.08711
 30
0.0
 10
-10.22617
 20
-14.08711
 30
0.0
 10
-10.24394
 20
-14.05088
 30
0.0
 10
-10.24394
 20
-14.05088
 30
0.0
 10
-10.24394
 20
-14.05088
 30
0.0
 10
-10.24751
 20
-14.04361
 30
0.0
 10
-10.25114
 20
-14.03861
 30
0.0
 10
-10.25484
 20
-14.03594
 30
0.0
 10
-10.25484
 20
-14.03594
 30
0.0
 10
-10.25851
 20
-14.03328
 30
0.0
 10
-10.26341
 20
-14.03194
 30
0.0
 10
-10.26954
 20
-14.03194
 30
0.0
 10
-10.26954
 20
-14.03194
 30
0.0
 10
-10.26954
 20
-14.03194
 30
0.0
 10
-10.28017
 20
-14.03194
 30
0.0
 10
-10.28017
 20
-14.03194
 30
0.0
  0
SPLINE
  5
95
330
1F
100
AcDbEntity
  8
Layer 1
 62
   250
100
AcDbSpline
210
0.0
220
0.0
230
1.0
 70
    11
 71
     3
 72
    36
 73
    32
 74
     0
 42
0.0000000001
 43
0.0000000001
 40
0.0
 40
0.0
 40
0.0
 40
0.0
 40
0.125
 40
0.125
 40
0.125
 40
0.125
 40
0.25
 40
0.25
 40
0.25
 40
0.25
 40
0.375
 40
0.375
 40
0.375
 40
0.375
 40
0.5
 40
0.5
 40
0.5
 40
0.5
 40
0.625
 40
0.625
 40
0.625
 40
0.625
 40
0.75
 40
0.75
 40
0.75
 40
0.75
 40
0.875
 40
0.875
 40
0.875
 40
0.875
 40
1.0
 40
1.0
 40
1.0
 40
1.0
 10
-11.76893
 20
-14.17872
 30
0.0
 10
-11.77349
 20
-14.17872
 30
0.0
 10
-11.77694
 20
-14.18048
 30
0.0
 10
-11.77929
 20
-14.18403
 30
0.0
 10
-11.77929
 20
-14.18403
 30
0.0
 10
-11.78164
 20
-14.18758
 30
0.0
 10
-11.78281
 20
-14.19285
 30
0.0
 10
-11.78281
 20
-14.1998
 30
0.0
 10
-11.78281
 20
-14.1998
 30
0.0
 10
-11.78281
 20
-14.20673
 30
0.0
 10
-11.78164
 20
-14.21198
 30
0.0
 10
-11.77929
 20
-14.21555
 30
0.0
 10
-11.77929
 20
-14.21555
 30
0.0
 10
-11.77694
 20
-14.21912
 30
0.0
 10
-11.77349
 20
-14.2209
 30
0.0
 10
-11.76893
 20
-14.2209
 30
0.0
 10
-11.76893
 20
-14.2209
 30
0.0
 10
-11.76434
 20
-14.2209
 30
0.0
 10
-11.76088
 20
-14.21912
 30
0.0
 10
-11.75853
 20
-14.21555
 30
0.0
 10
-11.75853
 20
-14.21555
 30
0.0
 10
-11.75618
 20
-14.21198
 30
0.0
 10
-11.75501
 20
-14.20673
 30
0.0
 10
-11.75501
 20
-14.1998
 30
0.0
 10
-11.75501
 20
-14.1998
 30
0.0
 10
-11.75501
 20
-14.19285
 30
0.0
 10
-11.75618
 20
-14.18758
 30
0.0
 10
-11.75853
 20
-14.18403
 30
0.0
 10
-11.75853
 20
-14.18403
 30
0.0
 10
-11.76088
 20
-14.18048
 30
0.0
 10
-11.76434
 20
-14.17872
 30
0.0
 10
-11.76893
 20
-14.17872
 30
0.0
  0
SPLINE
  5
96
330
1F
100
AcDbEntity
  8
Layer 1
 62
   250
100
AcDbSpline
210
0.0
220
0.0
230
1.0
 70
    11
 71
     3
 72
    36
 73
    32
 74
     0
 42
0.0000000001
 43
0.0000000001
 40
0.0
 40
0.0
 40
0.0
 40
0.0
 40
0.125
 40
0.125
 40
0.125
 40
0.125
 40
0.25
 40
0.25
 40
0.25
 40
0.25
 40
0.375
 40
0.375
 40
0.375
 40
0.375
 40
0.5
 40
0.5
 40
0.5
 40
0.5
 40
0.625
 40
0.625
 40
0.625
 40
0.625
 40
0.75
 40
0.75
 40
0.75
 40
0.75
 40
0.875
 40
0.875
 40
0.875
 40
0.875
 40
1.0
 40
1.0
 40
1.0
 40
1.0
 10
-11.76893
 20
-14.1711
 30
0.0
 10
-11.76134
 20
-14.1711
 30
0.0
 10
-11.75554
 20
-14.17355
 30
0.0
 10
-11.75153
 20
-14.17847
 30
0.0
 10
-11.75153
 20
-14.17847
 30
0.0
 10
-11.74751
 20
-14.18338
 30
0.0
 10
-11.74549
 20
-14.1905
 30
0.0
 10
-11.74549
 20
-14.1998
 30
0.0
 10
-11.74549
 20
-14.1998
 30
0.0
 10
-11.74549
 20
-14.20915
 30
0.0
 10
-11.74749
 20
-14.21627
 30
0.0
 10
-11.75149
 20
-14.22117
 30
0.0
 10
-11.75149
 20
-14.22117
 30
0.0
 10
-11.75551
 20
-14.22607
 30
0.0
 10
-11.76131
 20
-14.22852
 30
0.0
 10
-11.76893
 20
-14.22852
 30
0.0
 10
-11.76893
 20
-14.22852
 30
0.0
 10
-11.77653
 20
-14.22852
 30
0.0
 10
-11.78231
 20
-14.22607
 30
0.0
 10
-11.78633
 20
-14.22117
 30
0.0
 10
-11.78633
 20
-14.22117
 30
0.0
 10
-11.79033
 20
-14.21627
 30
0.0
 10
-11.79233
 20
-14.20915
 30
0.0
 10
-11.79233
 20
-14.1998
 30
0.0
 10
-11.79233
 20
-14.1998
 30
0.0
 10
-11.79233
 20
-14.1905
 30
0.0
 10
-11.79033
 20
-14.18338
 30
0.0
 10
-11.78633
 20
-14.17847
 30
0.0
 10
-11.78633
 20
-14.17847
 30
0.0
 10
-11.78231
 20
-14.17355
 30
0.0
 10
-11.77653
 20
-14.1711
 30
0.0
 10
-11.76893
 20
-14.1711
 30
0.0
  0
SPLINE
  5
97
330
1F
100
AcDbEntity
  8
Layer 1
 62
   250
100
AcDbSpline
210
0.0
220
0.0
230
1.0
 70
    11
 71
     3
 72
    36
 73
    32
 74
     0
 42
0.0000000001
 43
0.0000000001
 40
0.0
 40
0.0
 40
0.0
 40
0.0
 40
0.125
 40
0.125
 40
0.125
 40
0.125
 40
0.25
 40
0.25
 40
0.25
 40
0.25
 40
0.375
 40
0.375
 40
0.375
 40
0.375
 40
0.5
 40
0.5
 40
0.5
 40
0.5
 40
0.625
 40
0.625
 40
0.625
 40
0.625
 40
0.75
 40
0.75
 40
0.75
 40
0.75
 40
0.875
 40
0.875
 40
0.875
 40
0.875
 40
1.0
 40
1.0
 40
1.0
 40
1.0
 10
-11.70873
 20
-14.17872
 30
0.0
 10
-11.71329
 20
-14.17872
 30
0.0
 10
-11.71674
 20
-14.18048
 30
0.0
 10
-11.71909
 20
-14.18403
 30
0.0
 10
-11.71909
 20
-14.18403
 30
0.0
 10
-11.72144
 20
-14.18758
 30
0.0
 10
-11.72261
 20
-14.19285
 30
0.0
 10
-11.72261
 20
-14.1998
 30
0.0
 10
-11.72261
 20
-14.1998
 30
0.0
 10
-11.72261
 20
-14.20673
 30
0.0
 10
-11.72144
 20
-14.21198
 30
0.0
 10
-11.71909
 20
-14.21555
 30
0.0
 10
-11.71909
 20
-14.21555
 30
0.0
 10
-11.71674
 20
-14.21912
 30
0.0
 10
-11.71329
 20
-14.2209
 30
0.0
 10
-11.70873
 20
-14.2209
 30
0.0
 10
-11.70873
 20
-14.2209
 30
0.0
 10
-11.70414
 20
-14.2209
 30
0.0
 10
-11.70068
 20
-14.21912
 30
0.0
 10
-11.69833
 20
-14.21555
 30
0.0
 10
-11.69833
 20
-14.21555
 30
0.0
 10
-11.69598
 20
-14.21198
 30
0.0
 10
-11.69481
 20
-14.20673
 30
0.0
 10
-11.69481
 20
-14.1998
 30
0.0
 10
-11.69481
 20
-14.1998
 30
0.0
 10
-11.69481
 20
-14.19285
 30
0.0
 10
-11.69598
 20
-14.18758
 30
0.0
 10
-11.69833
 20
-14.18403
 30
0.0
 10
-11.69833
 20
-14.18403
 30
0.0
 10
-11.70068
 20
-14.18048
 30
0.0
 10
-11.70414
 20
-14.17872
 30
0.0
 10
-11.70873
 20
-14.17872
 30
0.0
  0
SPLINE
  5
98
330
1F
100
AcDbEntity
  8
Layer 1
 62
   250
100
AcDbSpline
210
0.0
220
0.0
230
1.0
 70
    11
 71
     3
 72
    36
 73
    32
 74
     0
 42
0.0000000001
 43
0.0000000001
 40
0.0
 40
0.0
 40
0.0
 40
0.0
 40
0.125
 40
0.125
 40
0.125
 40
0.125
 40
0.25
 40
0.25
 40
0.25
 40
0.25
 40
0.375
 40
0.375
 40
0.375
 40
0.375
 40
0.5
 40
0.5
 40
0.5
 40
0.5
 40
0.625
 40
0.625
 40
0.625
 40
0.625
 40
0.75
 40
0.75
 40
0.75
 40
0.75
 40
0.875
 40
0.875
 40
0.875
 40
0.875
 40
1.0
 40
1.0
 40
1.0
 40
1.0
 10
-11.70873
 20
-14.1711
 30
0.0
 10
-11.70114
 20
-14.1711
 30
0.0
 10
-11.69534
 20
-14.17355
 30
0.0
 10
-11.69133
 20
-14.17847
 30
0.0
 10
-11.69133
 20
-14.17847
 30
0.0
 10
-11.68731
 20
-14.18338
 30
0.0
 10
-11.68529
 20
-14.1905
 30
0.0
 10
-11.68529
 20
-14.1998
 30
0.0
 10
-11.68529
 20
-14.1998
 30
0.0
 10
-11.68529
 20
-14.20915
 30
0.0
 10
-11.68729
 20
-14.21627
 30
0.0
 10
-11.69129
 20
-14.22117
 30
0.0
 10
-11.69129
 20
-14.22117
 30
0.0
 10
-11.69531
 20
-14.22607
 30
0.0
 10
-11.70111
 20
-14.22852
 30
0.0
 10
-11.70873
 20
-14.22852
 30
0.0
 10
-11.70873
 20
-14.22852
 30
0.0
 10
-11.71633
 20
-14.22852
 30
0.0
 10
-11.72211
 20
-14.22607
 30
0.0
 10
-11.72613
 20
-14.22117
 30
0.0
 10
-11.72613
 20
-14.22117
 30
0.0
 10
-11.73013
 20
-14.21627
 30
0.0
 10
-11.73213
 20
-14.20915
 30
0.0
 10
-11.73213
 20
-14.1998
 30
0.0
 10
-11.73213
 20
-14.1998
 30
0.0
 10
-11.73213
 20
-14.1905
 30
0.0
 10
-11.73013
 20
-14.18338
 30
0.0
 10
-11.72613
 20
-14.17847
 30
0.0
 10
-11.72613
 20
-14.17847
 30
0.0
 10
-11.72211
 20
-14.17355
 30
0.0
 10
-11.71633
 20
-14.1711
 30
0.0
 10
-11.70873
 20
-14.1711
 30
0.0
  0
SPLINE
  5
99
330
1F
100
AcDbEntity
  8
Layer 1
 62
   250
100
AcDbSpline
210
0.0
220
0.0
230
1.0
 70
    11
 71
     3
 72
   112
 73
   108
 74
     0
 42
0.0000000001
 43
0.0000000001
 40
0.0
 40
0.0
 40
0.0
 40
0.0
 40
0.037037037037037
 40
0.037037037037037
 40
0.037037037037037
 40
0.037037037037037
 40
0.0740740740740741
 40
0.0740740740740741
 40
0.0740740740740741
 40
0.0740740740740741
 40
0.1111111111111111
 40
0.1111111111111111
 40
0.1111111111111111
 40
0.1111111111111111
 40
0.1481481481481481
 40
0.1481481481481481
 40
0.1481481481481481
 40
0.1481481481481481
 40
0.1851851851851852
 40
0.1851851851851852
 40
0.1851851851851852
 40
0.1851851851851852
 40
0.2222222222222222
 40
0.2222222222222222
 40
0.2222222222222222
 40
0.2222222222222222
 40
0.2592592592592592
 40
0.2592592592592592
 40
0.2592592592592592
 40
0.2592592592592592
 40
0.2962962962962963
 40
0.2962962962962963
 40
0.2962962962962963
 40
0.2962962962962963
 40
0.3333333333333333
 40
0.3333333333333333
 40
0.3333333333333333
 40
0.3333333333333333
 40
0.3703703703703703
 40
0.3703703703703703
 40
0.3703703703703703
 40
0.3703703703703703
 40
0.4074074074074074
 40
0.4074074074074074
 40
0.4074074074074074
 40
0.4074074074074074
 40
0.4444444444444444
 40
0.4444444444444444
 40
0.4444444444444444
 40
0.4444444444444444
 40
0.4814814814814815
 40
0.4814814814814815
 40
0.4814814814814815
 40
0.4814814814814815
 40
0.5185185185185185
 40
0.5185185185185185
 40
0.5185185185185185
 40
0.5185185185185185
 40
0.5555555555555556
 40
0.5555555555555556
 40
0.5555555555555556
 40
0.5555555555555556
 40
0.5925925925925926
 40
0.5925925925925926
 40
0.5925925925925926
 40
0.5925925925925926
 40
0.6296296296296295
 40
0.6296296296296295
 40
0.6296296296296295
 40
0.6296296296296295
 40
0.6666666666666665
 40
0.6666666666666665
 40
0.6666666666666665
 40
0.6666666666666665
 40
0.7037037037037035
 40
0.7037037037037035
 40
0.7037037037037035
 40
0.7037037037037035
 40
0.7407407407407405
 40
0.7407407407407405
 40
0.7407407407407405
 40
0.7407407407407405
 40
0.7777777777777775
 40
0.7777777777777775
 40
0.7777777777777775
 40
0.7777777777777775
 40
0.8148148148148144
 40
0.8148148148148144
 40
0.8148148148148144
 40
0.8148148148148144
 40
0.8518518518518514
 40
0.8518518518518514
 40
0.8518518518518514
 40
0.8518518518518514
 40
0.8888888888888884
 40
0.8888888888888884
 40
0.8888888888888884
 40
0.8888888888888884
 40
0.9259259259259254
 40
0.9259259259259254
 40
0.9259259259259254
 40
0.9259259259259254
 40
0.9629629629629624
 40
0.9629629629629624
 40
0.9629629629629624
 40
0.9629629629629624
 40
1.0
 40
1.0
 40
1.0
 40
1.0
 10
-11.64561
 20
-14.17798
 30
0.0
 10
-11.64451
 20
-14.17563
 30
0.0
 10
-11.64309
 20
-14.1739
 30
0.0
 10
-11.64138
 20
-14.17278
 30
0.0
 10
-11.64138
 20
-14.17278
 30
0.0
 10
-11.63968
 20
-14.17167
 30
0.0
 10
-11.63761
 20
-14.1711
 30
0.0
 10
-11.63521
 20
-14.1711
 30
0.0
 10
-11.63521
 20
-14.1711
 30
0.0
 10
-11.63081
 20
-14.1711
 30
0.0
 10
-11.62771
 20
-14.1728
 30
0.0
 10
-11.62591
 20
-14.1762
 30
0.0
 10
-11.62591
 20
-14.1762
 30
0.0
 10
-11.62409
 20
-14.1796
 30
0.0
 10
-11.62319
 20
-14.186
 30
0.0
 10
-11.62319
 20
-14.19542
 30
0.0
 10
-11.62319
 20
-14.19542
 30
0.0
 10
-11.62319
 20
-14.19542
 30
0.0
 10
-11.62319
 20
-14.2271
 30
0.0
 10
-11.62319
 20
-14.2271
 30
0.0
 10
-11.62319
 20
-14.2271
 30
0.0
 10
-11.62319
 20
-14.2271
 30
0.0
 10
-11.63139
 20
-14.2271
 30
0.0
 10
-11.63139
 20
-14.2271
 30
0.0
 10
-11.63139
 20
-14.2271
 30
0.0
 10
-11.63139
 20
-14.2271
 30
0.0
 10
-11.63139
 20
-14.1958
 30
0.0
 10
-11.63139
 20
-14.1958
 30
0.0
 10
-11.63139
 20
-14.1958
 30
0.0
 10
-11.63139
 20
-14.18808
 30
0.0
 10
-11.63183
 20
-14.1833
 30
0.0
 10
-11.63269
 20
-14.18142
 30
0.0
 10
-11.63269
 20
-14.18142
 30
0.0
 10
-11.63354
 20
-14.17955
 30
0.0
 10
-11.63513
 20
-14.17862
 30
0.0
 10
-11.63741
 20
-14.17862
 30
0.0
 10
-11.63741
 20
-14.17862
 30
0.0
 10
-11.64001
 20
-14.17862
 30
0.0
 10
-11.64179
 20
-14.17962
 30
0.0
 10
-11.64276
 20
-14.18162
 30
0.0
 10
-11.64276
 20
-14.18162
 30
0.0
 10
-11.64371
 20
-14.18362
 30
0.0
 10
-11.64419
 20
-14.18835
 30
0.0
 10
-11.64419
 20
-14.1958
 30
0.0
 10
-11.64419
 20
-14.1958
 30
0.0
 10
-11.64419
 20
-14.1958
 30
0.0
 10
-11.64419
 20
-14.2271
 30
0.0
 10
-11.64419
 20
-14.2271
 30
0.0
 10
-11.64419
 20
-14.2271
 30
0.0
 10
-11.64419
 20
-14.2271
 30
0.0
 10
-11.65239
 20
-14.2271
 30
0.0
 10
-11.65239
 20
-14.2271
 30
0.0
 10
-11.65239
 20
-14.2271
 30
0.0
 10
-11.65239
 20
-14.2271
 30
0.0
 10
-11.65239
 20
-14.1958
 30
0.0
 10
-11.65239
 20
-14.1958
 30
0.0
 10
-11.65239
 20
-14.1958
 30
0.0
 10
-11.65239
 20
-14.18798
 30
0.0
 10
-11.65286
 20
-14.18317
 30
0.0
 10
-11.65379
 20
-14.18135
 30
0.0
 10
-11.65379
 20
-14.18135
 30
0.0
 10
-11.65471
 20
-14.17953
 30
0.0
 10
-11.65638
 20
-14.17862
 30
0.0
 10
-11.65879
 20
-14.17862
 30
0.0
 10
-11.65879
 20
-14.17862
 30
0.0
 10
-11.66118
 20
-14.17862
 30
0.0
 10
-11.66283
 20
-14.17962
 30
0.0
 10
-11.66374
 20
-14.18162
 30
0.0
 10
-11.66374
 20
-14.18162
 30
0.0
 10
-11.66468
 20
-14.18362
 30
0.0
 10
-11.66514
 20
-14.18835
 30
0.0
 10
-11.66514
 20
-14.1958
 30
0.0
 10
-11.66514
 20
-14.1958
 30
0.0
 10
-11.66514
 20
-14.1958
 30
0.0
 10
-11.66514
 20
-14.2271
 30
0.0
 10
-11.66514
 20
-14.2271
 30
0.0
 10
-11.66514
 20
-14.2271
 30
0.0
 10
-11.66514
 20
-14.2271
 30
0.0
 10
-11.67329
 20
-14.2271
 30
0.0
 10
-11.67329
 20
-14.2271
 30
0.0
 10
-11.67329
 20
-14.2271
 30
0.0
 10
-11.67329
 20
-14.2271
 30
0.0
 10
-11.67329
 20
-14.17242
 30
0.0
 10
-11.67329
 20
-14.17242
 30
0.0
 10
-11.67329
 20
-14.17242
 30
0.0
 10
-11.67329
 20
-14.17242
 30
0.0
 10
-11.66514
 20
-14.17242
 30
0.0
 10
-11.66514
 20
-14.17242
 30
0.0
 10
-11.66514
 20
-14.17242
 30
0.0
 10
-11.66514
 20
-14.17242
 30
0.0
 10
-11.66514
 20
-14.1771
 30
0.0
 10
-11.66514
 20
-14.1771
 30
0.0
 10
-11.66514
 20
-14.1771
 30
0.0
 10
-11.66408
 20
-14.17515
 30
0.0
 10
-11.66273
 20
-14.17367
 30
0.0
 10
-11.66111
 20
-14.17263
 30
0.0
 10
-11.66111
 20
-14.17263
 30
0.0
 10
-11.65951
 20
-14.17162
 30
0.0
 10
-11.65768
 20
-14.1711
 30
0.0
 10
-11.65563
 20
-14.1711
 30
0.0
 10
-11.65563
 20
-14.1711
 30
0.0
 10
-11.65314
 20
-14.1711
 30
0.0
 10
-11.65109
 20
-14.17167
 30
0.0
 10
-11.64944
 20
-14.1728
 30
0.0
 10
-11.64944
 20
-14.1728
 30
0.0
 10
-11.64779
 20
-14.17395
 30
0.0
 10
-11.64653
 20
-14.17567
 30
0.0
 10
-11.64561
 20
-14.17798
 30
0.0
  0
SPLINE
  5
9A
330
1F
100
AcDbEntity
  8
Layer 1
 62
   250
100
AcDbSpline
210
0.0
220
0.0
230
1.0
 70
    11
 71
     3
 72
    20
 73
    16
 74
     0
 42
0.0000000001
 43
0.0000000001
 40
0.0
 40
0.0
 40
0.0
 40
0.0
 40
0.25
 40
0.25
 40
0.25
 40
0.25
 40
0.5
 40
0.5
 40
0.5
 40
0.5
 40
0.75
 40
0.75
 40
0.75
 40
0.75
 40
1.0
 40
1.0
 40
1.0
 40
1.0
 10
-11.59453
 20
-14.2122
 30
0.0
 10
-11.59453
 20
-14.2122
 30
0.0
 10
-11.58223
 20
-14.2122
 30
0.0
 10
-11.58223
 20
-14.2122
 30
0.0
 10
-11.58223
 20
-14.2122
 30
0.0
 10
-11.58223
 20
-14.2122
 30
0.0
 10
-11.58223
 20
-14.2271
 30
0.0
 10
-11.58223
 20
-14.2271
 30
0.0
 10
-11.58223
 20
-14.2271
 30
0.0
 10
-11.58223
 20
-14.2271
 30
0.0
 10
-11.59453
 20
-14.2271
 30
0.0
 10
-11.59453
 20
-14.2271
 30
0.0
 10
-11.59453
 20
-14.2271
 30
0.0
 10
-11.59453
 20
-14.2271
 30
0.0
 10
-11.59453
 20
-14.2122
 30
0.0
 10
-11.59453
 20
-14.2122
 30
0.0
  0
SPLINE
  5
9B
330
1F
100
AcDbEntity
  8
Layer 1
 62
   250
100
AcDbSpline
210
0.0
220
0.0
230
1.0
 70
    11
 71
     3
 72
    52
 73
    48
 74
     0
 42
0.0000000001
 43
0.0000000001
 40
0.0
 40
0.0
 40
0.0
 40
0.0
 40
0.0833333333333333
 40
0.0833333333333333
 40
0.0833333333333333
 40
0.0833333333333333
 40
0.1666666666666667
 40
0.1666666666666667
 40
0.1666666666666667
 40
0.1666666666666667
 40
0.25
 40
0.25
 40
0.25
 40
0.25
 40
0.3333333333333333
 40
0.3333333333333333
 40
0.3333333333333333
 40
0.3333333333333333
 40
0.4166666666666666
 40
0.4166666666666666
 40
0.4166666666666666
 40
0.4166666666666666
 40
0.4999999999999999
 40
0.4999999999999999
 40
0.4999999999999999
 40
0.4999999999999999
 40
0.5833333333333333
 40
0.5833333333333333
 40
0.5833333333333333
 40
0.5833333333333333
 40
0.6666666666666666
 40
0.6666666666666666
 40
0.6666666666666666
 40
0.6666666666666666
 40
0.75
 40
0.75
 40
0.75
 40
0.75
 40
0.8333333333333334
 40
0.8333333333333334
 40
0.8333333333333334
 40
0.8333333333333334
 40
0.9166666666666667
 40
0.9166666666666667
 40
0.9166666666666667
 40
0.9166666666666667
 40
1.0
 40
1.0
 40
1.0
 40
1.0
 10
-11.52701
 20
-14.20728
 30
0.0
 10
-11.52701
 20
-14.21132
 30
0.0
 10
-11.52628
 20
-14.21435
 30
0.0
 10
-11.52479
 20
-14.2164
 30
0.0
 10
-11.52479
 20
-14.2164
 30
0.0
 10
-11.52331
 20
-14.21845
 30
0.0
 10
-11.52113
 20
-14.21948
 30
0.0
 10
-11.51823
 20
-14.21948
 30
0.0
 10
-11.51823
 20
-14.21948
 30
0.0
 10
-11.51823
 20
-14.21948
 30
0.0
 10
-11.50773
 20
-14.21948
 30
0.0
 10
-11.50773
 20
-14.21948
 30
0.0
 10
-11.50773
 20
-14.21948
 30
0.0
 10
-11.50773
 20
-14.21948
 30
0.0
 10
-11.50773
 20
-14.2271
 30
0.0
 10
-11.50773
 20
-14.2271
 30
0.0
 10
-11.50773
 20
-14.2271
 30
0.0
 10
-11.50773
 20
-14.2271
 30
0.0
 10
-11.51909
 20
-14.2271
 30
0.0
 10
-11.51909
 20
-14.2271
 30
0.0
 10
-11.51909
 20
-14.2271
 30
0.0
 10
-11.52448
 20
-14.2271
 30
0.0
 10
-11.52863
 20
-14.22537
 30
0.0
 10
-11.53158
 20
-14.22192
 30
0.0
 10
-11.53158
 20
-14.22192
 30
0.0
 10
-11.53453
 20
-14.21847
 30
0.0
 10
-11.53599
 20
-14.21358
 30
0.0
 10
-11.53599
 20
-14.20728
 30
0.0
 10
-11.53599
 20
-14.20728
 30
0.0
 10
-11.53599
 20
-14.20728
 30
0.0
 10
-11.53599
 20
-14.15762
 30
0.0
 10
-11.53599
 20
-14.15762
 30
0.0
 10
-11.53599
 20
-14.15762
 30
0.0
 10
-11.53599
 20
-14.15762
 30
0.0
 10
-11.55039
 20
-14.15762
 30
0.0
 10
-11.55039
 20
-14.15762
 30
0.0
 10
-11.55039
 20
-14.15762
 30
0.0
 10
-11.55039
 20
-14.15762
 30
0.0
 10
-11.55039
 20
-14.15058
 30
0.0
 10
-11.55039
 20
-14.15058
 30
0.0
 10
-11.55039
 20
-14.15058
 30
0.0
 10
-11.55039
 20
-14.15058
 30
0.0
 10
-11.52701
 20
-14.15058
 30
0.0
 10
-11.52701
 20
-14.15058
 30
0.0
 10
-11.52701
 20
-14.15058
 30
0.0
 10
-11.52701
 20
-14.15058
 30
0.0
 10
-11.52701
 20
-14.20728
 30
0.0
 10
-11.52701
 20
-14.20728
 30
0.0
  0
SPLINE
  5
9C
330
1F
100
AcDbEntity
  8
Layer 1
 62
   250
100
AcDbSpline
210
0.0
220
0.0
230
1.0
 70
    11
 71
     3
 72
    76
 73
    72
 74
     0
 42
0.0000000001
 43
0.0000000001
 40
0.0
 40
0.0
 40
0.0
 40
0.0
 40
0.0555555555555556
 40
0.0555555555555556
 40
0.0555555555555556
 40
0.0555555555555556
 40
0.1111111111111111
 40
0.1111111111111111
 40
0.1111111111111111
 40
0.1111111111111111
 40
0.1666666666666667
 40
0.1666666666666667
 40
0.1666666666666667
 40
0.1666666666666667
 40
0.2222222222222222
 40
0.2222222222222222
 40
0.2222222222222222
 40
0.2222222222222222
 40
0.2777777777777778
 40
0.2777777777777778
 40
0.2777777777777778
 40
0.2777777777777778
 40
0.3333333333333334
 40
0.3333333333333334
 40
0.3333333333333334
 40
0.3333333333333334
 40
0.388888888888889
 40
0.388888888888889
 40
0.388888888888889
 40
0.388888888888889
 40
0.4444444444444445
 40
0.4444444444444445
 40
0.4444444444444445
 40
0.4444444444444445
 40
0.5000000000000001
 40
0.5000000000000001
 40
0.5000000000000001
 40
0.5000000000000001
 40
0.5555555555555557
 40
0.5555555555555557
 40
0.5555555555555557
 40
0.5555555555555557
 40
0.6111111111111113
 40
0.6111111111111113
 40
0.6111111111111113
 40
0.6111111111111113
 40
0.6666666666666669
 40
0.6666666666666669
 40
0.6666666666666669
 40
0.6666666666666669
 40
0.7222222222222224
 40
0.7222222222222224
 40
0.7222222222222224
 40
0.7222222222222224
 40
0.777777777777778
 40
0.777777777777778
 40
0.777777777777778
 40
0.777777777777778
 40
0.8333333333333336
 40
0.8333333333333336
 40
0.8333333333333336
 40
0.8333333333333336
 40
0.8888888888888892
 40
0.8888888888888892
 40
0.8888888888888892
 40
0.8888888888888892
 40
0.9444444444444448
 40
0.9444444444444448
 40
0.9444444444444448
 40
0.9444444444444448
 40
1.0
 40
1.0
 40
1.0
 40
1.0
 10
-11.46803
 20
-14.15688
 30
0.0
 10
-11.46803
 20
-14.15688
 30
0.0
 10
-11.46803
 20
-14.17242
 30
0.0
 10
-11.46803
 20
-14.17242
 30
0.0
 10
-11.46803
 20
-14.17242
 30
0.0
 10
-11.46803
 20
-14.17242
 30
0.0
 10
-11.44761
 20
-14.17242
 30
0.0
 10
-11.44761
 20
-14.17242
 30
0.0
 10
-11.44761
 20
-14.17242
 30
0.0
 10
-11.44761
 20
-14.17242
 30
0.0
 10
-11.44761
 20
-14.1794
 30
0.0
 10
-11.44761
 20
-14.1794
 30
0.0
 10
-11.44761
 20
-14.1794
 30
0.0
 10
-11.44761
 20
-14.1794
 30
0.0
 10
-11.46803
 20
-14.1794
 30
0.0
 10
-11.46803
 20
-14.1794
 30
0.0
 10
-11.46803
 20
-14.1794
 30
0.0
 10
-11.46803
 20
-14.1794
 30
0.0
 10
-11.46803
 20
-14.20908
 30
0.0
 10
-11.46803
 20
-14.20908
 30
0.0
 10
-11.46803
 20
-14.20908
 30
0.0
 10
-11.46803
 20
-14.21312
 30
0.0
 10
-11.46726
 20
-14.21593
 30
0.0
 10
-11.46573
 20
-14.21752
 30
0.0
 10
-11.46573
 20
-14.21752
 30
0.0
 10
-11.46419
 20
-14.21912
 30
0.0
 10
-11.46153
 20
-14.21992
 30
0.0
 10
-11.45773
 20
-14.21992
 30
0.0
 10
-11.45773
 20
-14.21992
 30
0.0
 10
-11.45773
 20
-14.21992
 30
0.0
 10
-11.44761
 20
-14.21992
 30
0.0
 10
-11.44761
 20
-14.21992
 30
0.0
 10
-11.44761
 20
-14.21992
 30
0.0
 10
-11.44761
 20
-14.21992
 30
0.0
 10
-11.44761
 20
-14.2271
 30
0.0
 10
-11.44761
 20
-14.2271
 30
0.0
 10
-11.44761
 20
-14.2271
 30
0.0
 10
-11.44761
 20
-14.2271
 30
0.0
 10
-11.45859
 20
-14.2271
 30
0.0
 10
-11.45859
 20
-14.2271
 30
0.0
 10
-11.45859
 20
-14.2271
 30
0.0
 10
-11.46534
 20
-14.2271
 30
0.0
 10
-11.47009
 20
-14.22575
 30
0.0
 10
-11.47286
 20
-14.22305
 30
0.0
 10
-11.47286
 20
-14.22305
 30
0.0
 10
-11.47563
 20
-14.22035
 30
0.0
 10
-11.47701
 20
-14.21568
 30
0.0
 10
-11.47701
 20
-14.20908
 30
0.0
 10
-11.47701
 20
-14.20908
 30
0.0
 10
-11.47701
 20
-14.20908
 30
0.0
 10
-11.47701
 20
-14.1794
 30
0.0
 10
-11.47701
 20
-14.1794
 30
0.0
 10
-11.47701
 20
-14.1794
 30
0.0
 10
-11.47701
 20
-14.1794
 30
0.0
 10
-11.49161
 20
-14.1794
 30
0.0
 10
-11.49161
 20
-14.1794
 30
0.0
 10
-11.49161
 20
-14.1794
 30
0.0
 10
-11.49161
 20
-14.1794
 30
0.0
 10
-11.49161
 20
-14.17242
 30
0.0
 10
-11.49161
 20
-14.17242
 30
0.0
 10
-11.49161
 20
-14.17242
 30
0.0
 10
-11.49161
 20
-14.17242
 30
0.0
 10
-11.47701
 20
-14.17242
 30
0.0
 10
-11.47701
 20
-14.17242
 30
0.0
 10
-11.47701
 20
-14.17242
 30
0.0
 10
-11.47701
 20
-14.17242
 30
0.0
 10
-11.47701
 20
-14.15688
 30
0.0
 10
-11.47701
 20
-14.15688
 30
0.0
 10
-11.47701
 20
-14.15688
 30
0.0
 10
-11.47701
 20
-14.15688
 30
0.0
 10
-11.46803
 20
-14.15688
 30
0.0
 10
-11.46803
 20
-14.15688
 30
0.0
  0
SPLINE
  5
9D
330
1F
100
AcDbEntity
  8
Layer 1
 62
   250
100
AcDbSpline
210
0.0
220
0.0
230
1.0
 70
    11
 71
     3
 72
    20
 73
    16
 74
     0
 42
0.0000000001
 43
0.0000000001
 40
0.0
 40
0.0
 40
0.0
 40
0.0
 40
0.25
 40
0.25
 40
0.25
 40
0.25
 40
0.5
 40
0.5
 40
0.5
 40
0.5
 40
0.75
 40
0.75
 40
0.75
 40
0.75
 40
1.0
 40
1.0
 40
1.0
 40
1.0
 10
-11.39439
 20
-14.1542
 30
0.0
 10
-11.39439
 20
-14.1542
 30
0.0
 10
-11.38511
 20
-14.1542
 30
0.0
 10
-11.38511
 20
-14.1542
 30
0.0
 10
-11.38511
 20
-14.1542
 30
0.0
 10
-11.38511
 20
-14.1542
 30
0.0
 10
-11.42349
 20
-14.23638
 30
0.0
 10
-11.42349
 20
-14.23638
 30
0.0
 10
-11.42349
 20
-14.23638
 30
0.0
 10
-11.42349
 20
-14.23638
 30
0.0
 10
-11.43283
 20
-14.23638
 30
0.0
 10
-11.43283
 20
-14.23638
 30
0.0
 10
-11.43283
 20
-14.23638
 30
0.0
 10
-11.43283
 20
-14.23638
 30
0.0
 10
-11.39439
 20
-14.1542
 30
0.0
 10
-11.39439
 20
-14.1542
 30
0.0
  0
SPLINE
  5
9E
330
1F
100
AcDbEntity
  8
Layer 1
 62
   250
100
AcDbSpline
210
0.0
220
0.0
230
1.0
 70
    11
 71
     3
 72
    52
 73
    48
 74
     0
 42
0.0000000001
 43
0.0000000001
 40
0.0
 40
0.0
 40
0.0
 40
0.0
 40
0.0833333333333333
 40
0.0833333333333333
 40
0.0833333333333333
 40
0.0833333333333333
 40
0.1666666666666667
 40
0.1666666666666667
 40
0.1666666666666667
 40
0.1666666666666667
 40
0.25
 40
0.25
 40
0.25
 40
0.25
 40
0.3333333333333333
 40
0.3333333333333333
 40
0.3333333333333333
 40
0.3333333333333333
 40
0.4166666666666666
 40
0.4166666666666666
 40
0.4166666666666666
 40
0.4166666666666666
 40
0.4999999999999999
 40
0.4999999999999999
 40
0.4999999999999999
 40
0.4999999999999999
 40
0.5833333333333333
 40
0.5833333333333333
 40
0.5833333333333333
 40
0.5833333333333333
 40
0.6666666666666666
 40
0.6666666666666666
 40
0.6666666666666666
 40
0.6666666666666666
 40
0.75
 40
0.75
 40
0.75
 40
0.75
 40
0.8333333333333334
 40
0.8333333333333334
 40
0.8333333333333334
 40
0.8333333333333334
 40
0.9166666666666667
 40
0.9166666666666667
 40
0.9166666666666667
 40
0.9166666666666667
 40
1.0
 40
1.0
 40
1.0
 40
1.0
 10
-11.37093
 20
-14.1542
 30
0.0
 10
-11.37093
 20
-14.1542
 30
0.0
 10
-11.35653
 20
-14.1542
 30
0.0
 10
-11.35653
 20
-14.1542
 30
0.0
 10
-11.35653
 20
-14.1542
 30
0.0
 10
-11.35653
 20
-14.1542
 30
0.0
 10
-11.35653
 20
-14.18198
 30
0.0
 10
-11.35653
 20
-14.18198
 30
0.0
 10
-11.35653
 20
-14.18198
 30
0.0
 10
-11.35653
 20
-14.18198
 30
0.0
 10
-11.33849
 20
-14.18198
 30
0.0
 10
-11.33849
 20
-14.18198
 30
0.0
 10
-11.33849
 20
-14.18198
 30
0.0
 10
-11.33849
 20
-14.18198
 30
0.0
 10
-11.33849
 20
-14.1542
 30
0.0
 10
-11.33849
 20
-14.1542
 30
0.0
 10
-11.33849
 20
-14.1542
 30
0.0
 10
-11.33849
 20
-14.1542
 30
0.0
 10
-11.32409
 20
-14.1542
 30
0.0
 10
-11.32409
 20
-14.1542
 30
0.0
 10
-11.32409
 20
-14.1542
 30
0.0
 10
-11.32409
 20
-14.1542
 30
0.0
 10
-11.32409
 20
-14.2271
 30
0.0
 10
-11.32409
 20
-14.2271
 30
0.0
 10
-11.32409
 20
-14.2271
 30
0.0
 10
-11.32409
 20
-14.2271
 30
0.0
 10
-11.33849
 20
-14.2271
 30
0.0
 10
-11.33849
 20
-14.2271
 30
0.0
 10
-11.33849
 20
-14.2271
 30
0.0
 10
-11.33849
 20
-14.2271
 30
0.0
 10
-11.33849
 20
-14.19468
 30
0.0
 10
-11.33849
 20
-14.19468
 30
0.0
 10
-11.33849
 20
-14.19468
 30
0.0
 10
-11.33849
 20
-14.19468
 30
0.0
 10
-11.35653
 20
-14.19468
 30
0.0
 10
-11.35653
 20
-14.19468
 30
0.0
 10
-11.35653
 20
-14.19468
 30
0.0
 10
-11.35653
 20
-14.19468
 30
0.0
 10
-11.35653
 20
-14.2271
 30
0.0
 10
-11.35653
 20
-14.2271
 30
0.0
 10
-11.35653
 20
-14.2271
 30
0.0
 10
-11.35653
 20
-14.2271
 30
0.0
 10
-11.37093
 20
-14.2271
 30
0.0
 10
-11.37093
 20
-14.2271
 30
0.0
 10
-11.37093
 20
-14.2271
 30
0.0
 10
-11.37093
 20
-14.2271
 30
0.0
 10
-11.37093
 20
-14.1542
 30
0.0
 10
-11.37093
 20
-14.1542
 30
0.0
  0
SPLINE
  5
9F
330
1F
100
AcDbEntity
  8
Layer 1
 62
   250
100
AcDbSpline
210
0.0
220
0.0
230
1.0
 70
    11
 71
     3
 72
    36
 73
    32
 74
     0
 42
0.0000000001
 43
0.0000000001
 40
0.0
 40
0.0
 40
0.0
 40
0.0
 40
0.125
 40
0.125
 40
0.125
 40
0.125
 40
0.25
 40
0.25
 40
0.25
 40
0.25
 40
0.375
 40
0.375
 40
0.375
 40
0.375
 40
0.5
 40
0.5
 40
0.5
 40
0.5
 40
0.625
 40
0.625
 40
0.625
 40
0.625
 40
0.75
 40
0.75
 40
0.75
 40
0.75
 40
0.875
 40
0.875
 40
0.875
 40
0.875
 40
1.0
 40
1.0
 40
1.0
 40
1.0
 10
-11.29339
 20
-14.19072
 30
0.0
 10
-11.29339
 20
-14.189
 30
0.0
 10
-11.29281
 20
-14.18755
 30
0.0
 10
-11.29163
 20
-14.18638
 30
0.0
 10
-11.29163
 20
-14.18638
 30
0.0
 10
-11.29046
 20
-14.1852
 30
0.0
 10
-11.28903
 20
-14.18462
 30
0.0
 10
-11.28733
 20
-14.18462
 30
0.0
 10
-11.28733
 20
-14.18462
 30
0.0
 10
-11.28561
 20
-14.18462
 30
0.0
 10
-11.28416
 20
-14.1852
 30
0.0
 10
-11.28299
 20
-14.18638
 30
0.0
 10
-11.28299
 20
-14.18638
 30
0.0
 10
-11.28181
 20
-14.18755
 30
0.0
 10
-11.28123
 20
-14.189
 30
0.0
 10
-11.28123
 20
-14.19072
 30
0.0
 10
-11.28123
 20
-14.19072
 30
0.0
 10
-11.28123
 20
-14.19242
 30
0.0
 10
-11.28181
 20
-14.19385
 30
0.0
 10
-11.28299
 20
-14.19502
 30
0.0
 10
-11.28299
 20
-14.19502
 30
0.0
 10
-11.28416
 20
-14.1962
 30
0.0
 10
-11.28561
 20
-14.19678
 30
0.0
 10
-11.28733
 20
-14.19678
 30
0.0
 10
-11.28733
 20
-14.19678
 30
0.0
 10
-11.28903
 20
-14.19678
 30
0.0
 10
-11.29046
 20
-14.1962
 30
0.0
 10
-11.29163
 20
-14.19505
 30
0.0
 10
-11.29163
 20
-14.19505
 30
0.0
 10
-11.29281
 20
-14.1939
 30
0.0
 10
-11.29339
 20
-14.19245
 30
0.0
 10
-11.29339
 20
-14.19072
 30
0.0
  0
SPLINE
  5
A0
330
1F
100
AcDbEntity
  8
Layer 1
 62
   250
100
AcDbSpline
210
0.0
220
0.0
230
1.0
 70
    11
 71
     3
 72
    36
 73
    32
 74
     0
 42
0.0000000001
 43
0.0000000001
 40
0.0
 40
0.0
 40
0.0
 40
0.0
 40
0.125
 40
0.125
 40
0.125
 40
0.125
 40
0.25
 40
0.25
 40
0.25
 40
0.25
 40
0.375
 40
0.375
 40
0.375
 40
0.375
 40
0.5
 40
0.5
 40
0.5
 40
0.5
 40
0.625
 40
0.625
 40
0.625
 40
0.625
 40
0.75
 40
0.75
 40
0.75
 40
0.75
 40
0.875
 40
0.875
 40
0.875
 40
0.875
 40
1.0
 40
1.0
 40
1.0
 40
1.0
 10
-11.28733
 20
-14.16508
 30
0.0
 10
-11.29066
 20
-14.16508
 30
0.0
 10
-11.29308
 20
-14.16712
 30
0.0
 10
-11.29461
 20
-14.17118
 30
0.0
 10
-11.29461
 20
-14.17118
 30
0.0
 10
-11.29614
 20
-14.17527
 30
0.0
 10
-11.29691
 20
-14.18177
 30
0.0
 10
-11.29691
 20
-14.19072
 30
0.0
 10
-11.29691
 20
-14.19072
 30
0.0
 10
-11.29691
 20
-14.19965
 30
0.0
 10
-11.29614
 20
-14.20613
 30
0.0
 10
-11.29461
 20
-14.21022
 30
0.0
 10
-11.29461
 20
-14.21022
 30
0.0
 10
-11.29308
 20
-14.21428
 30
0.0
 10
-11.29066
 20
-14.21632
 30
0.0
 10
-11.28733
 20
-14.21632
 30
0.0
 10
-11.28733
 20
-14.21632
 30
0.0
 10
-11.28398
 20
-14.21632
 30
0.0
 10
-11.28154
 20
-14.21428
 30
0.0
 10
-11.28001
 20
-14.21022
 30
0.0
 10
-11.28001
 20
-14.21022
 30
0.0
 10
-11.27848
 20
-14.20613
 30
0.0
 10
-11.27771
 20
-14.19965
 30
0.0
 10
-11.27771
 20
-14.19072
 30
0.0
 10
-11.27771
 20
-14.19072
 30
0.0
 10
-11.27771
 20
-14.18177
 30
0.0
 10
-11.27848
 20
-14.17527
 30
0.0
 10
-11.28001
 20
-14.17118
 30
0.0
 10
-11.28001
 20
-14.17118
 30
0.0
 10
-11.28154
 20
-14.16712
 30
0.0
 10
-11.28398
 20
-14.16508
 30
0.0
 10
-11.28733
 20
-14.16508
 30
0.0
  0
SPLINE
  5
A1
330
1F
100
AcDbEntity
  8
Layer 1
 62
   250
100
AcDbSpline
210
0.0
220
0.0
230
1.0
 70
    11
 71
     3
 72
    36
 73
    32
 74
     0
 42
0.0000000001
 43
0.0000000001
 40
0.0
 40
0.0
 40
0.0
 40
0.0
 40
0.125
 40
0.125
 40
0.125
 40
0.125
 40
0.25
 40
0.25
 40
0.25
 40
0.25
 40
0.375
 40
0.375
 40
0.375
 40
0.375
 40
0.5
 40
0.5
 40
0.5
 40
0.5
 40
0.625
 40
0.625
 40
0.625
 40
0.625
 40
0.75
 40
0.75
 40
0.75
 40
0.75
 40
0.875
 40
0.875
 40
0.875
 40
0.875
 40
1.0
 40
1.0
 40
1.0
 40
1.0
 10
-11.31141
 20
-14.19072
 30
0.0
 10
-11.31141
 20
-14.1781
 30
0.0
 10
-11.30941
 20
-14.16863
 30
0.0
 10
-11.30541
 20
-14.16233
 30
0.0
 10
-11.30541
 20
-14.16233
 30
0.0
 10
-11.30139
 20
-14.15603
 30
0.0
 10
-11.29538
 20
-14.15288
 30
0.0
 10
-11.28733
 20
-14.15288
 30
0.0
 10
-11.28733
 20
-14.15288
 30
0.0
 10
-11.27926
 20
-14.15288
 30
0.0
 10
-11.27323
 20
-14.15602
 30
0.0
 10
-11.26921
 20
-14.1623
 30
0.0
 10
-11.26921
 20
-14.1623
 30
0.0
 10
-11.26521
 20
-14.16858
 30
0.0
 10
-11.26321
 20
-14.17807
 30
0.0
 10
-11.26321
 20
-14.19072
 30
0.0
 10
-11.26321
 20
-14.19072
 30
0.0
 10
-11.26321
 20
-14.20335
 30
0.0
 10
-11.26521
 20
-14.21282
 30
0.0
 10
-11.26921
 20
-14.2191
 30
0.0
 10
-11.26921
 20
-14.2191
 30
0.0
 10
-11.27323
 20
-14.22538
 30
0.0
 10
-11.27926
 20
-14.22852
 30
0.0
 10
-11.28733
 20
-14.22852
 30
0.0
 10
-11.28733
 20
-14.22852
 30
0.0
 10
-11.29538
 20
-14.22852
 30
0.0
 10
-11.30139
 20
-14.22537
 30
0.0
 10
-11.30541
 20
-14.21907
 30
0.0
 10
-11.30541
 20
-14.21907
 30
0.0
 10
-11.30941
 20
-14.21277
 30
0.0
 10
-11.31141
 20
-14.20332
 30
0.0
 10
-11.31141
 20
-14.19072
 30
0.0
  0
SPLINE
  5
A2
330
1F
100
AcDbEntity
  8
Layer 1
 62
   250
100
AcDbSpline
210
0.0
220
0.0
230
1.0
 70
    11
 71
     3
 72
    16
 73
    12
 74
     0
 42
0.0000000001
 43
0.0000000001
 40
0.0
 40
0.0
 40
0.0
 40
0.0
 40
0.3333333333333333
 40
0.3333333333333333
 40
0.3333333333333333
 40
0.3333333333333333
 40
0.6666666666666666
 40
0.6666666666666666
 40
0.6666666666666666
 40
0.6666666666666666
 40
1.0
 40
1.0
 40
1.0
 40
1.0
 10
-11.22331
 20
-14.17022
 30
0.0
 10
-11.22331
 20
-14.17022
 30
0.0
 10
-11.24173
 20
-14.19902
 30
0.0
 10
-11.24173
 20
-14.19902
 30
0.0
 10
-11.24173
 20
-14.19902
 30
0.0
 10
-11.24173
 20
-14.19902
 30
0.0
 10
-11.22331
 20
-14.19902
 30
0.0
 10
-11.22331
 20
-14.19902
 30
0.0
 10
-11.22331
 20
-14.19902
 30
0.0
 10
-11.22331
 20
-14.19902
 30
0.0
 10
-11.22331
 20
-14.17022
 30
0.0
 10
-11.22331
 20
-14.17022
 30
0.0
  0
SPLINE
  5
A3
330
1F
100
AcDbEntity
  8
Layer 1
 62
   250
100
AcDbSpline
210
0.0
220
0.0
230
1.0
 70
    11
 71
     3
 72
    48
 73
    44
 74
     0
 42
0.0000000001
 43
0.0000000001
 40
0.0
 40
0.0
 40
0.0
 40
0.0
 40
0.0909090909090909
 40
0.0909090909090909
 40
0.0909090909090909
 40
0.0909090909090909
 40
0.1818181818181818
 40
0.1818181818181818
 40
0.1818181818181818
 40
0.1818181818181818
 40
0.2727272727272727
 40
0.2727272727272727
 40
0.2727272727272727
 40
0.2727272727272727
 40
0.3636363636363636
 40
0.3636363636363636
 40
0.3636363636363636
 40
0.3636363636363636
 40
0.4545454545454546
 40
0.4545454545454546
 40
0.4545454545454546
 40
0.4545454545454546
 40
0.5454545454545455
 40
0.5454545454545455
 40
0.5454545454545455
 40
0.5454545454545455
 40
0.6363636363636365
 40
0.6363636363636365
 40
0.6363636363636365
 40
0.6363636363636365
 40
0.7272727272727274
 40
0.7272727272727274
 40
0.7272727272727274
 40
0.7272727272727274
 40
0.8181818181818183
 40
0.8181818181818183
 40
0.8181818181818183
 40
0.8181818181818183
 40
0.9090909090909093
 40
0.9090909090909093
 40
0.9090909090909093
 40
0.9090909090909093
 40
1.0
 40
1.0
 40
1.0
 40
1.0
 10
-11.22458
 20
-14.1542
 30
0.0
 10
-11.22458
 20
-14.1542
 30
0.0
 10
-11.20949
 20
-14.1542
 30
0.0
 10
-11.20949
 20
-14.1542
 30
0.0
 10
-11.20949
 20
-14.1542
 30
0.0
 10
-11.20949
 20
-14.1542
 30
0.0
 10
-11.20949
 20
-14.19902
 30
0.0
 10
-11.20949
 20
-14.19902
 30
0.0
 10
-11.20949
 20
-14.19902
 30
0.0
 10
-11.20949
 20
-14.19902
 30
0.0
 10
-11.20149
 20
-14.19902
 30
0.0
 10
-11.20149
 20
-14.19902
 30
0.0
 10
-11.20149
 20
-14.19902
 30
0.0
 10
-11.20149
 20
-14.19902
 30
0.0
 10
-11.20149
 20
-14.21137
 30
0.0
 10
-11.20149
 20
-14.21137
 30
0.0
 10
-11.20149
 20
-14.21137
 30
0.0
 10
-11.20149
 20
-14.21137
 30
0.0
 10
-11.20949
 20
-14.21137
 30
0.0
 10
-11.20949
 20
-14.21137
 30
0.0
 10
-11.20949
 20
-14.21137
 30
0.0
 10
-11.20949
 20
-14.21137
 30
0.0
 10
-11.20949
 20
-14.2271
 30
0.0
 10
-11.20949
 20
-14.2271
 30
0.0
 10
-11.20949
 20
-14.2271
 30
0.0
 10
-11.20949
 20
-14.2271
 30
0.0
 10
-11.22331
 20
-14.2271
 30
0.0
 10
-11.22331
 20
-14.2271
 30
0.0
 10
-11.22331
 20
-14.2271
 30
0.0
 10
-11.22331
 20
-14.2271
 30
0.0
 10
-11.22331
 20
-14.21137
 30
0.0
 10
-11.22331
 20
-14.21137
 30
0.0
 10
-11.22331
 20
-14.21137
 30
0.0
 10
-11.22331
 20
-14.21137
 30
0.0
 10
-11.25223
 20
-14.21137
 30
0.0
 10
-11.25223
 20
-14.21137
 30
0.0
 10
-11.25223
 20
-14.21137
 30
0.0
 10
-11.25223
 20
-14.21137
 30
0.0
 10
-11.25223
 20
-14.1974
 30
0.0
 10
-11.25223
 20
-14.1974
 30
0.0
 10
-11.25223
 20
-14.1974
 30
0.0
 10
-11.25223
 20
-14.1974
 30
0.0
 10
-11.22458
 20
-14.1542
 30
0.0
 10
-11.22458
 20
-14.1542
 30
0.0
  0
ENDSEC
  0
SECTION
  2
OBJECTS
  0
DICTIONARY
  5
C
330
0
100
AcDbDictionary
281
     1
  3
ACAD_GROUP
350
D
  3
ACAD_LAYOUT
350
1A
  3
ACAD_MLEADERSTYLE
350
A5
  3
ACAD_MLINESTYLE
350
17
  3
ACAD_PLOTSETTINGS
350
19
  3
ACAD_PLOTSTYLENAME
350
E
  3
ACAD_SCALELIST
350
3B
  3
ACAD_TABLESTYLE
350
A4
  3
ACAD_VISUALSTYLE
350
2A
  0
DICTIONARY
  5
D
102
{ACAD_REACTORS
330
C
102
}
330
C
100
AcDbDictionary
281
     1
  0
DICTIONARY
  5
1A
102
{ACAD_REACTORS
330
C
102
}
330
C
100
AcDbDictionary
281
     1
  3
Layout1
350
1E
  3
Layout2
350
26
  3
Model
350
22
  0
DICTIONARY
  5
A5
102
{ACAD_REACTORS
330
C
102
}
330
C
100
AcDbDictionary
281
     1
  0
DICTIONARY
  5
17
102
{ACAD_REACTORS
330
C
102
}
330
C
100
AcDbDictionary
281
     1
  3
Standard
350
18
  0
DICTIONARY
  5
19
102
{ACAD_REACTORS
330
C
102
}
330
C
100
AcDbDictionary
281
     1
  0
ACDBDICTIONARYWDFLT
  5
E
102
{ACAD_REACTORS
330
C
102
}
330
C
100
AcDbDictionary
281
     1
  3
Normal
350
F
100
AcDbDictionaryWithDefault
340
F
  0
DICTIONARY
  5
3B
102
{ACAD_REACTORS
330
C
102
}
330
C
100
AcDbDictionary
281
     1
  3
A0
350
3C
  3
A1
350
3D
  3
A2
350
3E
  3
A3
350
3F
  3
A4
350
40
  3
A5
350
41
  3
A6
350
42
  3
A7
350
43
  3
A8
350
44
  3
A9
350
45
  3
B0
350
46
  3
B1
350
47
  3
B2
350
48
  3
B3
350
49
  3
B4
350
4A
  3
B5
350
4B
  3
B6
350
4C
  3
B7
350
4D
  3
B8
350
4E
  3
B9
350
4F
  3
C0
350
50
  3
C1
350
51
  3
C2
350
52
  3
C3
350
53
  3
C4
350
54
  3
C5
350
55
  3
C6
350
56
  3
C7
350
57
  3
C8
350
58
  3
C9
350
59
  3
D0
350
5A
  3
D1
350
5B
  3
D2
350
5C
  0
DICTIONARY
  5
A4
102
{ACAD_REACTORS
330
C
102
}
330
C
100
AcDbDictionary
281
     1
  0
DICTIONARY
  5
2A
102
{ACAD_REACTORS
330
C
102
}
330
C
100
AcDbDictionary
281
     1
  3
2dWireframe
350
2F
  3
3D Hidden
350
31
  3
3dWireframe
350
30
  3
Basic
350
32
  3
Brighten
350
36
  3
ColorChange
350
3A
  3
Conceptual
350
34
  3
Dim
350
35
  3
Facepattern
350
39
  3
Flat
350
2B
  3
FlatWithEdges
350
2C
  3
Gouraud
350
2D
  3
GouraudWithEdges
350
2E
  3
Linepattern
350
38
  3
Realistic
350
33
  3
Thicken
350
37
  0
LAYOUT
  5
1E
102
{ACAD_REACTORS
330
1A
102
}
330
1A
100
AcDbPlotSettings
  1

  2
none_device
  4

  6

 40
0.0
 41
0.0
 42
0.0
 43
0.0
 44
0.0
 45
0.0
 46
0.0
 47
0.0
 48
0.0
 49
0.0
140
0.0
141
0.0
142
1.0
143
1.0
 70
   688
 72
     0
 73
     0
 74
     5
  7

 75
    16
 76
     0
 77
     2
 78
   300
147
1.0
148
0.0
149
0.0
100
AcDbLayout
  1
Layout1
 70
     1
 71
     1
 10
0.0
 20
0.0
 11
12.0
 21
9.0
 12
0.0
 22
0.0
 32
0.0
 14
1.000000000000000E+20
 24
1.000000000000000E+20
 34
1.000000000000000E+20
 15
-1.000000000000000E+20
 25
-1.000000000000000E+20
 35
-1.000000000000000E+20
146
0.0
 13
0.0
 23
0.0
 33
0.0
 16
1.0
 26
0.0
 36
0.0
 17
0.0
 27
1.0
 37
0.0
 76
     0
330
1B
  0
LAYOUT
  5
26
102
{ACAD_REACTORS
330
1A
102
}
330
1A
100
AcDbPlotSettings
  1

  2
none_device
  4

  6

 40
0.0
 41
0.0
 42
0.0
 43
0.0
 44
0.0
 45
0.0
 46
0.0
 47
0.0
 48
0.0
 49
0.0
140
0.0
141
0.0
142
1.0
143
1.0
 70
   688
 72
     0
 73
     0
 74
     5
  7

 75
    16
 76
     0
 77
     2
 78
   300
147
1.0
148
0.0
149
0.0
100
AcDbLayout
  1
Layout2
 70
     1
 71
     2
 10
0.0
 20
0.0
 11
0.0
 21
0.0
 12
0.0
 22
0.0
 32
0.0
 14
0.0
 24
0.0
 34
0.0
 15
0.0
 25
0.0
 35
0.0
146
0.0
 13
0.0
 23
0.0
 33
0.0
 16
1.0
 26
0.0
 36
0.0
 17
0.0
 27
1.0
 37
0.0
 76
     0
330
23
  0
LAYOUT
  5
22
102
{ACAD_REACTORS
330
1A
102
}
330
1A
100
AcDbPlotSettings
  1

  2
none_device
  4

  6

 40
0.0
 41
0.0
 42
0.0
 43
0.0
 44
0.0
 45
0.0
 46
0.0
 47
0.0
 48
0.0
 49
0.0
140
0.0
141
0.0
142
1.0
143
1.0
 70
  1712
 72
     0
 73
     0
 74
     0
  7

 75
     0
 76
     0
 77
     2
 78
   300
147
1.0
148
0.0
149
0.0
100
AcDbLayout
  1
Model
 70
     1
 71
     0
 10
0.0
 20
0.0
 11
12.0
 21
9.0
 12
0.0
 22
0.0
 32
0.0
 14
-13.5
 24
-15.85271
 34
0.0
 15
-9.5
 25
-13.85
 35
0.0
146
0.0
 13
0.0
 23
0.0
 33
0.0
 16
1.0
 26
0.0
 36
0.0
 17
0.0
 27
1.0
 37
0.0
 76
     0
330
1F
331
29
  0
MLINESTYLE
  5
18
102
{ACAD_REACTORS
330
17
102
}
330
17
100
AcDbMlineStyle
  2
Standard
 70
     0
  3

 62
   256
 51
90.0
 52
90.0
 71
     2
 49
0.5
 62
   256
  6
BYLAYER
 49
-0.5
 62
   256
  6
BYLAYER
  0
ACDBPLACEHOLDER
  5
F
102
{ACAD_REACTORS
330
E
102
}
330
E
  0
SCALE
  5
3C
102
{ACAD_REACTORS
330
3B
102
}
330
3B
100
AcDbScale
 70
     0
300
1:1
140
1.0
141
1.0
290
     1
  0
SCALE
  5
3D
102
{ACAD_REACTORS
330
3B
102
}
330
3B
100
AcDbScale
 70
     0
300
1:2
140
1.0
141
2.0
290
     0
  0
SCALE
  5
3E
102
{ACAD_REACTORS
330
3B
102
}
330
3B
100
AcDbScale
 70
     0
300
1:4
140
1.0
141
4.0
290
     0
  0
SCALE
  5
3F
102
{ACAD_REACTORS
330
3B
102
}
330
3B
100
AcDbScale
 70
     0
300
1:5
140
1.0
141
5.0
290
     0
  0
SCALE
  5
40
102
{ACAD_REACTORS
330
3B
102
}
330
3B
100
AcDbScale
 70
     0
300
1:8
140
1.0
141
8.0
290
     0
  0
SCALE
  5
41
102
{ACAD_REACTORS
330
3B
102
}
330
3B
100
AcDbScale
 70
     0
300
1:10
140
1.0
141
10.0
290
     0
  0
SCALE
  5
42
102
{ACAD_REACTORS
330
3B
102
}
330
3B
100
AcDbScale
 70
     0
300
1:16
140
1.0
141
16.0
290
     0
  0
SCALE
  5
43
102
{ACAD_REACTORS
330
3B
102
}
330
3B
100
AcDbScale
 70
     0
300
1:20
140
1.0
141
20.0
290
     0
  0
SCALE
  5
44
102
{ACAD_REACTORS
330
3B
102
}
330
3B
100
AcDbScale
 70
     0
300
1:30
140
1.0
141
30.0
290
     0
  0
SCALE
  5
45
102
{ACAD_REACTORS
330
3B
102
}
330
3B
100
AcDbScale
 70
     0
300
1:40
140
1.0
141
40.0
290
     0
  0
SCALE
  5
46
102
{ACAD_REACTORS
330
3B
102
}
330
3B
100
AcDbScale
 70
     0
300
1:50
140
1.0
141
50.0
290
     0
  0
SCALE
  5
47
102
{ACAD_REACTORS
330
3B
102
}
330
3B
100
AcDbScale
 70
     0
300
1:100
140
1.0
141
100.0
290
     0
  0
SCALE
  5
48
102
{ACAD_REACTORS
330
3B
102
}
330
3B
100
AcDbScale
 70
     0
300
2:1
140
2.0
141
1.0
290
     0
  0
SCALE
  5
49
102
{ACAD_REACTORS
330
3B
102
}
330
3B
100
AcDbScale
 70
     0
300
4:1
140
4.0
141
1.0
290
     0
  0
SCALE
  5
4A
102
{ACAD_REACTORS
330
3B
102
}
330
3B
100
AcDbScale
 70
     0
300
8:1
140
8.0
141
1.0
290
     0
  0
SCALE
  5
4B
102
{ACAD_REACTORS
330
3B
102
}
330
3B
100
AcDbScale
 70
     0
300
10:1
140
10.0
141
1.0
290
     0
  0
SCALE
  5
4C
102
{ACAD_REACTORS
330
3B
102
}
330
3B
100
AcDbScale
 70
     0
300
100:1
140
100.0
141
1.0
290
     0
  0
SCALE
  5
4D
102
{ACAD_REACTORS
330
3B
102
}
330
3B
100
AcDbScale
 70
     0
300
1/128" = 1'-0"
140
0.0078125
141
12.0
290
     0
  0
SCALE
  5
4E
102
{ACAD_REACTORS
330
3B
102
}
330
3B
100
AcDbScale
 70
     0
300
1/64" = 1'-0"
140
0.015625
141
12.0
290
     0
  0
SCALE
  5
4F
102
{ACAD_REACTORS
330
3B
102
}
330
3B
100
AcDbScale
 70
     0
300
1/32" = 1'-0"
140
0.03125
141
12.0
290
     0
  0
SCALE
  5
50
102
{ACAD_REACTORS
330
3B
102
}
330
3B
100
AcDbScale
 70
     0
300
1/16" = 1'-0"
140
0.0625
141
12.0
290
     0
  0
SCALE
  5
51
102
{ACAD_REACTORS
330
3B
102
}
330
3B
100
AcDbScale
 70
     0
300
3/32" = 1'-0"
140
0.09375
141
12.0
290
     0
  0
SCALE
  5
52
102
{ACAD_REACTORS
330
3B
102
}
330
3B
100
AcDbScale
 70
     0
300
1/8" = 1'-0"
140
0.125
141
12.0
290
     0
  0
SCALE
  5
53
102
{ACAD_REACTORS
330
3B
102
}
330
3B
100
AcDbScale
 70
     0
300
3/16" = 1'-0"
140
0.1875
141
12.0
290
     0
  0
SCALE
  5
54
102
{ACAD_REACTORS
330
3B
102
}
330
3B
100
AcDbScale
 70
     0
300
1/4" = 1'-0"
140
0.25
141
12.0
290
     0
  0
SCALE
  5
55
102
{ACAD_REACTORS
330
3B
102
}
330
3B
100
AcDbScale
 70
     0
300
3/8" = 1'-0"
140
0.375
141
12.0
290
     0
  0
SCALE
  5
56
102
{ACAD_REACTORS
330
3B
102
}
330
3B
100
AcDbScale
 70
     0
300
1/2" = 1'-0"
140
0.5
141
12.0
290
     0
  0
SCALE
  5
57
102
{ACAD_REACTORS
330
3B
102
}
330
3B
100
AcDbScale
 70
     0
300
3/4" = 1'-0"
140
0.75
141
12.0
290
     0
  0
SCALE
  5
58
102
{ACAD_REACTORS
330
3B
102
}
330
3B
100
AcDbScale
 70
     0
300
1" = 1'-0"
140
1.0
141
12.0
290
     0
  0
SCALE
  5
59
102
{ACAD_REACTORS
330
3B
102
}
330
3B
100
AcDbScale
 70
     0
300
1-1/2" = 1'-0"
140
1.5
141
12.0
290
     0
  0
SCALE
  5
5A
102
{ACAD_REACTORS
330
3B
102
}
330
3B
100
AcDbScale
 70
     0
300
3" = 1'-0"
140
3.0
141
12.0
290
     0
  0
SCALE
  5
5B
102
{ACAD_REACTORS
330
3B
102
}
330
3B
100
AcDbScale
 70
     0
300
6" = 1'-0"
140
6.0
141
12.0
290
     0
  0
SCALE
  5
5C
102
{ACAD_REACTORS
330
3B
102
}
330
3B
100
AcDbScale
 70
     0
300
1'-0" = 1'-0"
140
12.0
141
12.0
290
     0
  0
VISUALSTYLE
  5
2F
102
{ACAD_REACTORS
330
2A
102
}
330
2A
100
AcDbVisualStyle
  2
2dWireframe
 70
     4
 71
     0
 72
     2
 73
     0
 90
        0
 40
-0.6
 41
-30.0
 62
     5
 63
     7
421
 16777215
 74
     1
 91
        4
 64
     7
 65
   257
 75
     1
175
     1
 42
1.0
 92
        0
 66
   257
 43
1.0
 76
     1
 77
     6
 78
     2
 67
     7
 79
     5
170
     0
171
     0
290
     0
174
     0
 93
        1
 44
0.0
173
     0
291
     0
 45
0.0
  0
VISUALSTYLE
  5
31
102
{ACAD_REACTORS
330
2A
102
}
330
2A
100
AcDbVisualStyle
  2
3D Hidden
 70
     6
 71
     1
 72
     2
 73
     2
 90
        0
 40
-0.6
 41
-30.0
 62
     5
 63
     7
421
 16777215
 74
     2
 91
        2
 64
     7
 65
   257
 75
     2
175
     1
 42
40.0
 92
        0
 66
   257
 43
1.0
 76
     1
 77
     6
 78
     2
 67
     7
 79
     3
170
     0
171
     0
290
     0
174
     0
 93
        1
 44
0.0
173
     0
291
     0
 45
0.0
  0
VISUALSTYLE
  5
30
102
{ACAD_REACTORS
330
2A
102
}
330
2A
100
AcDbVisualStyle
  2
3dWireframe
 70
     5
 71
     0
 72
     2
 73
     0
 90
        0
 40
-0.6
 41
-30.0
 62
     5
 63
     7
421
 16777215
 74
     1
 91
        4
 64
     7
 65
   257
 75
     1
175
     1
 42
1.0
 92
        0
 66
   257
 43
1.0
 76
     1
 77
     6
 78
     2
 67
     7
 79
     5
170
     0
171
     0
290
     0
174
     0
 93
        1
 44
0.0
173
     0
291
     0
 45
0.0
  0
VISUALSTYLE
  5
32
102
{ACAD_REACTORS
330
2A
102
}
330
2A
100
AcDbVisualStyle
  2
Basic
 70
     7
 71
     1
 72
     0
 73
     1
 90
        0
 40
-0.6
 41
-30.0
 62
     5
 63
     7
421
 16777215
 74
     0
 91
        4
 64
     7
 65
   257
 75
     1
175
     1
 42
1.0
 92
        8
 66
     7
 43
1.0
 76
     1
 77
     6
 78
     2
 67
     7
 79
     5
170
     0
171
     0
290
     0
174
     0
 93
        1
 44
0.0
173
     0
291
     1
 45
0.0
  0
VISUALSTYLE
  5
36
102
{ACAD_REACTORS
330
2A
102
}
330
2A
100
AcDbVisualStyle
  2
Brighten
 70
    12
 71
     2
 72
     2
 73
     0
 90
        0
 40
-0.6
 41
-30.0
 62
     5
 63
     7
421
 16777215
 74
     1
 91
        4
 64
     7
 65
   257
 75
     1
175
     1
 42
1.0
 92
        8
 66
     7
 43
1.0
 76
     1
 77
     6
 78
     2
 67
     7
 79
     5
170
     0
171
     0
290
     0
174
     0
 93
        1
 44
50.0
173
     0
291
     1
 45
0.0
  0
VISUALSTYLE
  5
3A
102
{ACAD_REACTORS
330
2A
102
}
330
2A
100
AcDbVisualStyle
  2
ColorChange
 70
    16
 71
     2
 72
     2
 73
     3
 90
        0
 40
-0.6
 41
-30.0
 62
     5
 63
     8
421
  8421504
 74
     1
 91
        4
 64
     7
 65
   257
 75
     1
175
     1
 42
1.0
 92
        8
 66
     8
424
  8421504
 43
1.0
 76
     1
 77
     6
 78
     2
 67
     7
 79
     5
170
     0
171
     0
290
     0
174
     0
 93
        1
 44
0.0
173
     0
291
     1
 45
0.0
  0
VISUALSTYLE
  5
34
102
{ACAD_REACTORS
330
2A
102
}
330
2A
100
AcDbVisualStyle
  2
Conceptual
 70
     9
 71
     3
 72
     2
 73
     0
 90
        0
 40
-0.6
 41
-30.0
 62
     5
 63
     7
421
 16777215
 74
     2
 91
        2
 64
     7
 65
   257
 75
     1
175
     1
 42
40.0
 92
        8
 66
     7
 43
1.0
 76
     1
 77
     6
 78
     2
 67
     7
 79
     3
170
     0
171
     0
290
     0
174
     0
 93
        1
 44
0.0
173
     0
291
     0
 45
0.0
  0
VISUALSTYLE
  5
35
102
{ACAD_REACTORS
330
2A
102
}
330
2A
100
AcDbVisualStyle
  2
Dim
 70
    11
 71
     2
 72
     2
 73
     0
 90
        0
 40
-0.6
 41
-30.0
 62
     5
 63
     7
421
 16777215
 74
     1
 91
        4
 64
     7
 65
   257
 75
     1
175
     1
 42
1.0
 92
        8
 66
     7
 43
1.0
 76
     1
 77
     6
 78
     2
 67
     7
 79
     5
170
     0
171
     0
290
     0
174
     0
 93
        1
 44
-50.0
173
     0
291
     1
 45
0.0
  0
VISUALSTYLE
  5
39
102
{ACAD_REACTORS
330
2A
102
}
330
2A
100
AcDbVisualStyle
  2
Facepattern
 70
    15
 71
     2
 72
     2
 73
     0
 90
        0
 40
-0.6
 41
-30.0
 62
     5
 63
     7
421
 16777215
 74
     1
 91
        4
 64
     7
 65
   257
 75
     1
175
     1
 42
1.0
 92
        8
 66
     7
 43
1.0
 76
     1
 77
     6
 78
     2
 67
     7
 79
     5
170
     0
171
     0
290
     0
174
     0
 93
        1
 44
0.0
173
     0
291
     1
 45
0.0
  0
VISUALSTYLE
  5
2B
102
{ACAD_REACTORS
330
2A
102
}
330
2A
100
AcDbVisualStyle
  2
Flat
 70
     0
 71
     2
 72
     1
 73
     1
 90
        2
 40
-0.6
 41
30.0
 62
     5
 63
     7
421
 16777215
 74
     0
 91
        4
 64
     7
 65
   257
 75
     1
175
     1
 42
1.0
 92
        8
 66
     7
 43
1.0
 76
     1
 77
     6
 78
     2
 67
     7
 79
     5
170
     0
171
     0
290
     0
174
     0
 93
       13
 44
0.0
173
     0
291
     1
 45
0.0
  0
VISUALSTYLE
  5
2C
102
{ACAD_REACTORS
330
2A
102
}
330
2A
100
AcDbVisualStyle
  2
FlatWithEdges
 70
     1
 71
     2
 72
     1
 73
     1
 90
        2
 40
-0.6
 41
30.0
 62
     5
 63
     7
421
 16777215
 74
     1
 91
        4
 64
     7
 65
   257
 75
     1
175
     1
 42
1.0
 92
        0
 66
   257
 43
1.0
 76
     1
 77
     6
 78
     2
 67
     7
 79
     5
170
     0
171
     0
290
     0
174
     0
 93
       13
 44
0.0
173
     0
291
     1
 45
0.0
  0
VISUALSTYLE
  5
2D
102
{ACAD_REACTORS
330
2A
102
}
330
2A
100
AcDbVisualStyle
  2
Gouraud
 70
     2
 71
     2
 72
     2
 73
     1
 90
        2
 40
-0.6
 41
30.0
 62
     5
 63
     7
421
 16777215
 74
     0
 91
        4
 64
     7
 65
   257
 75
     1
175
     1
 42
1.0
 92
        0
 66
     7
 43
1.0
 76
     1
 77
     6
 78
     2
 67
     7
 79
     5
170
     0
171
     0
290
     0
174
     0
 93
       13
 44
0.0
173
     0
291
     1
 45
0.0
  0
VISUALSTYLE
  5
2E
102
{ACAD_REACTORS
330
2A
102
}
330
2A
100
AcDbVisualStyle
  2
GouraudWithEdges
 70
     3
 71
     2
 72
     2
 73
     1
 90
        2
 40
-0.6
 41
30.0
 62
     5
 63
     7
421
 16777215
 74
     1
 91
        4
 64
     7
 65
   257
 75
     1
175
     1
 42
1.0
 92
        0
 66
   257
 43
1.0
 76
     1
 77
     6
 78
     2
 67
     7
 79
     5
170
     0
171
     0
290
     0
174
     0
 93
       13
 44
0.0
173
     0
291
     1
 45
0.0
  0
VISUALSTYLE
  5
38
102
{ACAD_REACTORS
330
2A
102
}
330
2A
100
AcDbVisualStyle
  2
Linepattern
 70
    14
 71
     2
 72
     2
 73
     0
 90
        0
 40
-0.6
 41
-30.0
 62
     5
 63
     7
421
 16777215
 74
     1
 91
        4
 64
     7
 65
   257
 75
     7
175
     7
 42
1.0
 92
        8
 66
     7
 43
1.0
 76
     1
 77
     6
 78
     2
 67
     7
 79
     5
170
     0
171
     0
290
     0
174
     0
 93
        1
 44
0.0
173
     0
291
     1
 45
0.0
  0
VISUALSTYLE
  5
33
102
{ACAD_REACTORS
330
2A
102
}
330
2A
100
AcDbVisualStyle
  2
Realistic
 70
     8
 71
     2
 72
     2
 73
     0
 90
        0
 40
-0.6
 41
-30.0
 62
     5
 63
     7
421
 16777215
 74
     1
 91
        0
 64
     7
 65
   257
 75
     1
175
     1
 42
1.0
 92
        8
 66
     8
424
  7895160
 43
1.0
 76
     1
 77
     6
 78
     2
 67
     7
 79
     5
170
     0
171
     0
290
     0
174
     0
 93
       13
 44
0.0
173
     0
291
     0
 45
0.0
  0
VISUALSTYLE
  5
37
102
{ACAD_REACTORS
330
2A
102
}
330
2A
100
AcDbVisualStyle
  2
Thicken
 70
    13
 71
     2
 72
     2
 73
     0
 90
        0
 40
-0.6
 41
-30.0
 62
     5
 63
     7
421
 16777215
 74
     1
 91
        4
 64
     7
 65
   257
 75
     1
175
     1
 42
1.0
 92
       12
 66
     7
 43
1.0
 76
     1
 77
     6
 78
     2
 67
     7
 79
     5
170
     0
171
     0
290
     0
174
     0
 93
        1
 44
0.0
173
     0
291
     1
 45
0.0
  0
ENDSEC
  0
EOF
