  0
SECTION
  2
HEADER
  9
$ACADVER
  1
AC1021
  9
$ACADMAINTVER
 70
    25
  9
$DWGCODEPAGE
  3
ANSI_1252
  9
$INSBASE
 10
0.0
 20
0.0
 30
0.0
  9
$EXTMIN
 10
-11.7
 20
-16.05
 30
0.0
  9
$EXTMAX
 10
-9.3
 20
-13.65
 30
0.0
  9
$LIMMIN
 10
0.0
 20
0.0
  9
$LIMMAX
 10
12.0
 20
9.0
  9
$ORTHOMODE
 70
     0
  9
$REGENMODE
 70
     1
  9
$FILLMODE
 70
     1
  9
$QTEXTMODE
 70
     0
  9
$MIRRTEXT
 70
     1
  9
$LTSCALE
 40
1.0
  9
$ATTMODE
 70
     1
  9
$TEXTSIZE
 40
0.2
  9
$TRACEWID
 40
0.05
  9
$TEXTSTYLE
  7
Standard
  9
$CLAYER
  8
0
  9
$CELTYPE
  6
ByLayer
  9
$CECOLOR
 62
   256
  9
$CELTSCALE
 40
1.0
  9
$DISPSILH
 70
     0
  9
$DIMSCALE
 40
1.0
  9
$DIMASZ
 40
0.18
  9
$DIMEXO
 40
0.0625
  9
$DIMDLI
 40
0.38
  9
$DIMRND
 40
0.0
  9
$DIMDLE
 40
0.0
  9
$DIMEXE
 40
0.18
  9
$DIMTP
 40
0.0
  9
$DIMTM
 40
0.0
  9
$DIMTXT
 40
0.18
  9
$DIMCEN
 40
0.09
  9
$DIMTSZ
 40
0.0
  9
$DIMTOL
 70
     0
  9
$DIMLIM
 70
     0
  9
$DIMTIH
 70
     1
  9
$DIMTOH
 70
     1
  9
$DIMSE1
 70
     0
  9
$DIMSE2
 70
     0
  9
$DIMTAD
 70
     0
  9
$DIMZIN
 70
     0
  9
$DIMBLK
  1

  9
$DIMASO
 70
     1
  9
$DIMSHO
 70
     1
  9
$DIMPOST
  1

  9
$DIMAPOST
  1

  9
$DIMALT
 70
     0
  9
$DIMALTD
 70
     2
  9
$DIMALTF
 40
25.4
  9
$DIMLFAC
 40
1.0
  9
$DIMTOFL
 70
     0
  9
$DIMTVP
 40
0.0
  9
$DIMTIX
 70
     0
  9
$DIMSOXD
 70
     0
  9
$DIMSAH
 70
     0
  9
$DIMBLK1
  1

  9
$DIMBLK2
  1

  9
$DIMSTYLE
  2
Standard
  9
$DIMCLRD
 70
     0
  9
$DIMCLRE
 70
     0
  9
$DIMCLRT
 70
     0
  9
$DIMTFAC
 40
1.0
  9
$DIMGAP
 40
0.09
  9
$DIMJUST
 70
     0
  9
$DIMSD1
 70
     0
  9
$DIMSD2
 70
     0
  9
$DIMTOLJ
 70
     1
  9
$DIMTZIN
 70
     0
  9
$DIMALTZ
 70
     0
  9
$DIMALTTZ
 70
     0
  9
$DIMUPT
 70
     0
  9
$DIMDEC
 70
     4
  9
$DIMTDEC
 70
     4
  9
$DIMALTU
 70
     2
  9
$DIMALTTD
 70
     2
  9
$DIMTXSTY
  7
Standard
  9
$DIMAUNIT
 70
     0
  9
$DIMADEC
 70
     0
  9
$DIMALTRND
 40
0.0
  9
$DIMAZIN
 70
     0
  9
$DIMDSEP
 70
    46
  9
$DIMATFIT
 70
     3
  9
$DIMFRAC
 70
     0
  9
$DIMLDRBLK
  1

  9
$DIMLUNIT
 70
     2
  9
$DIMLWD
 70
    -2
  9
$DIMLWE
 70
    -2
  9
$DIMTMOVE
 70
     0
  9
$DIMFXL
 40
1.0
  9
$DIMFXLON
 70
     0
  9
$DIMJOGANG
 40
0.7853981633974483
  9
$DIMTFILL
 70
     0
  9
$DIMTFILLCLR
 70
     0
  9
$DIMARCSYM
 70
     0
  9
$DIMLTYPE
  6

  9
$DIMLTEX1
  6

  9
$DIMLTEX2
  6

  9
$LUNITS
 70
     2
  9
$LUPREC
 70
     4
  9
$SKETCHINC
 40
0.1
  9
$FILLETRAD
 40
0.5
  9
$AUNITS
 70
     0
  9
$AUPREC
 70
     0
  9
$MENU
  1
.
  9
$ELEVATION
 40
0.0
  9
$PELEVATION
 40
0.0
  9
$THICKNESS
 40
0.0
  9
$LIMCHECK
 70
     0
  9
$CHAMFERA
 40
0.5
  9
$CHAMFERB
 40
0.5
  9
$CHAMFERC
 40
1.0
  9
$CHAMFERD
 40
0.0
  9
$SKPOLY
 70
     0
  9
$TDCREATE
 40
2458647.872391134
  9
$TDUCREATE
 40
2458647.830724468
  9
$TDUPDATE
 40
2458647.872391146
  9
$TDUUPDATE
 40
2458647.830724479
  9
$TDINDWG
 40
0.0000000116
  9
$TDUSRTIMER
 40
0.0000000116
  9
$USRTIMER
 70
     1
  9
$ANGBASE
 50
0.0
  9
$ANGDIR
 70
     0
  9
$PDMODE
 70
     0
  9
$PDSIZE
 40
0.0
  9
$PLINEWID
 40
0.0
  9
$SPLFRAME
 70
     0
  9
$SPLINETYPE
 70
     6
  9
$SPLINESEGS
 70
     8
  9
$HANDSEED
  5
9E
  9
$SURFTAB1
 70
     6
  9
$SURFTAB2
 70
     6
  9
$SURFTYPE
 70
     6
  9
$SURFU
 70
     6
  9
$SURFV
 70
     6
  9
$UCSBASE
  2

  9
$UCSNAME
  2

  9
$UCSORG
 10
0.0
 20
0.0
 30
0.0
  9
$UCSXDIR
 10
1.0
 20
0.0
 30
0.0
  9
$UCSYDIR
 10
0.0
 20
1.0
 30
0.0
  9
$UCSORTHOREF
  2

  9
$UCSORTHOVIEW
 70
     0
  9
$UCSORGTOP
 10
0.0
 20
0.0
 30
0.0
  9
$UCSORGBOTTOM
 10
0.0
 20
0.0
 30
0.0
  9
$UCSORGLEFT
 10
0.0
 20
0.0
 30
0.0
  9
$UCSORGRIGHT
 10
0.0
 20
0.0
 30
0.0
  9
$UCSORGFRONT
 10
0.0
 20
0.0
 30
0.0
  9
$UCSORGBACK
 10
0.0
 20
0.0
 30
0.0
  9
$PUCSBASE
  2

  9
$PUCSNAME
  2

  9
$PUCSORG
 10
0.0
 20
0.0
 30
0.0
  9
$PUCSXDIR
 10
1.0
 20
0.0
 30
0.0
  9
$PUCSYDIR
 10
0.0
 20
1.0
 30
0.0
  9
$PUCSORTHOREF
  2

  9
$PUCSORTHOVIEW
 70
     0
  9
$PUCSORGTOP
 10
0.0
 20
0.0
 30
0.0
  9
$PUCSORGBOTTOM
 10
0.0
 20
0.0
 30
0.0
  9
$PUCSORGLEFT
 10
0.0
 20
0.0
 30
0.0
  9
$PUCSORGRIGHT
 10
0.0
 20
0.0
 30
0.0
  9
$PUCSORGFRONT
 10
0.0
 20
0.0
 30
0.0
  9
$PUCSORGBACK
 10
0.0
 20
0.0
 30
0.0
  9
$USERI1
 70
     0
  9
$USERI2
 70
     0
  9
$USERI3
 70
     0
  9
$USERI4
 70
     0
  9
$USERI5
 70
     0
  9
$USERR1
 40
0.0
  9
$USERR2
 40
0.0
  9
$USERR3
 40
0.0
  9
$USERR4
 40
0.0
  9
$USERR5
 40
0.0
  9
$WORLDVIEW
 70
     1
  9
$SHADEDGE
 70
     3
  9
$SHADEDIF
 70
    70
  9
$TILEMODE
 70
     1
  9
$MAXACTVP
 70
    64
  9
$PINSBASE
 10
0.0
 20
0.0
 30
0.0
  9
$PLIMCHECK
 70
     0
  9
$PEXTMIN
 10
1.000000000000000E+20
 20
1.000000000000000E+20
 30
1.000000000000000E+20
  9
$PEXTMAX
 10
-1.000000000000000E+20
 20
-1.000000000000000E+20
 30
-1.000000000000000E+20
  9
$PLIMMIN
 10
0.0
 20
0.0
  9
$PLIMMAX
 10
12.0
 20
9.0
  9
$UNITMODE
 70
     0
  9
$VISRETAIN
 70
     1
  9
$PLINEGEN
 70
     0
  9
$PSLTSCALE
 70
     1
  9
$TREEDEPTH
 70
  3020
  9
$CMLSTYLE
  2
Standard
  9
$CMLJUST
 70
     0
  9
$CMLSCALE
 40
1.0
  9
$PROXYGRAPHICS
 70
     1
  9
$MEASUREMENT
 70
     0
  9
$CELWEIGHT
370
    -1
  9
$ENDCAPS
280
     0
  9
$JOINSTYLE
280
     0
  9
$LWDISPLAY
290
     0
  9
$INSUNITS
 70
     5
  9
$HYPERLINKBASE
  1

  9
$STYLESHEET
  1

  9
$XEDIT
290
     1
  9
$CEPSNTYPE
380
     0
  9
$PSTYLEMODE
290
     1
  9
$FINGERPRINTGUID
  2
{02B5E18A-0640-4479-A875-0B7488FDED0D}
  9
$VERSIONGUID
  2
{FAEB1C32-E019-11D5-929B-00C0DF256EC4}
  9
$EXTNAMES
290
     1
  9
$PSVPSCALE
 40
0.0
  9
$OLESTARTUP
290
     0
  9
$SORTENTS
280
   127
  9
$INDEXCTL
280
     0
  9
$HIDETEXT
280
     1
  9
$XCLIPFRAME
290
     0
  9
$HALOGAP
280
     0
  9
$OBSCOLOR
 70
   257
  9
$OBSLTYPE
280
     0
  9
$INTERSECTIONDISPLAY
280
     0
  9
$INTERSECTIONCOLOR
 70
   257
  9
$DIMASSOC
280
     2
  9
$PROJECTNAME
  1

  9
$CAMERADISPLAY
290
     0
  9
$LENSLENGTH
 40
50.0
  9
$CAMERAHEIGHT
 40
0.0
  9
$STEPSPERSEC
 40
2.0
  9
$STEPSIZE
 40
6.0
  9
$3DDWFPREC
 40
2.0
  9
$PSOLWIDTH
 40
0.25
  9
$PSOLHEIGHT
 40
4.0
  9
$LOFTANG1
 40
1.570796326794897
  9
$LOFTANG2
 40
1.570796326794897
  9
$LOFTMAG1
 40
0.0
  9
$LOFTMAG2
 40
0.0
  9
$LOFTPARAM
 70
     7
  9
$LOFTNORMALS
280
     1
  9
$LATITUDE
 40
37.795
  9
$LONGITUDE
 40
-122.394
  9
$NORTHDIRECTION
 40
0.0
  9
$TIMEZONE
 70
 -8000
  9
$LIGHTGLYPHDISPLAY
280
     1
  9
$TILEMODELIGHTSYNCH
280
     1
  9
$SOLIDHIST
280
     1
  9
$SHOWHIST
280
     1
  9
$DWFFRAME
280
     2
  9
$DGNFRAME
280
     2
  9
$REALWORLDSCALE
290
     1
  9
$INTERFERECOLOR
 62
   256
  9
$CSHADOW
280
     0
  9
$SHADOWPLANELOCATION
 40
0.0
  0
ENDSEC
  0
SECTION
  2
CLASSES
  0
CLASS
  1
ACDBDICTIONARYWDFLT
  2
AcDbDictionaryWithDefault
  3
ObjectDBX Classes
 90
        0
 91
        3
280
     0
281
     0
  0
CLASS
  1
VISUALSTYLE
  2
AcDbVisualStyle
  3
ObjectDBX Classes
 90
     4095
 91
        3
280
     0
281
     0
  0
CLASS
  1
SCALE
  2
AcDbScale
  3
ObjectDBX Classes
 90
     1153
 91
        3
280
     0
281
     0
  0
ENDSEC
  0
SECTION
  2
TABLES
  0
TABLE
  2
VPORT
  5
8
330
0
100
AcDbSymbolTable
 70
     1
  0
VPORT
  5
29
330
8
100
AcDbSymbolTableRecord
100
AcDbViewportTableRecord
  2
*Active
 70
     0
 10
0.0
 20
0.0
 11
1.0
 21
1.0
 12
10.42990654205607
 22
4.5
 13
0.0
 23
0.0
 14
0.5
 24
0.5
 15
0.5
 25
0.5
 16
0.0
 26
0.0
 36
1.0
 17
0.0
 27
0.0
 37
0.0
 40
9.0
 41
1.972972972850329
 42
50.0
 43
0.0
 44
0.0
 50
0.0
 51
0.0
 71
     0
 72
   100
 73
     1
 74
     3
 75
     0
 76
     0
 77
     0
 78
     0
281
     0
 65
     1
110
0.0
120
0.0
130
0.0
111
1.0
121
0.0
131
0.0
112
0.0
122
1.0
132
0.0
 79
     0
146
0.0
 60
     3
 61
     5
292
     1
282
     1
141
0.0
142
0.0
 63
   256
  0
ENDTAB
  0
TABLE
  2
LTYPE
  5
5
330
0
100
AcDbSymbolTable
 70
     1
  0
LTYPE
  5
14
330
5
100
AcDbSymbolTableRecord
100
AcDbLinetypeTableRecord
  2
ByBlock
 70
     0
  3

 72
    65
 73
     0
 40
0.0
  0
LTYPE
  5
15
330
5
100
AcDbSymbolTableRecord
100
AcDbLinetypeTableRecord
  2
ByLayer
 70
     0
  3

 72
    65
 73
     0
 40
0.0
  0
LTYPE
  5
16
330
5
100
AcDbSymbolTableRecord
100
AcDbLinetypeTableRecord
  2
Continuous
 70
     0
  3
Solid line
 72
    65
 73
     0
 40
0.0
  0
ENDTAB
  0
TABLE
  2
LAYER
  5
2
330
0
100
AcDbSymbolTable
 70
     2
  0
LAYER
  5
10
330
2
100
AcDbSymbolTableRecord
100
AcDbLayerTableRecord
  2
0
 70
     0
 62
     7
  6
Continuous
370
    -3
390
F
347
0
  0
LAYER
  5
5E
330
2
100
AcDbSymbolTableRecord
100
AcDbLayerTableRecord
  2
Layer 1
 70
     0
 62
     7
  6
Continuous
370
    -3
390
F
347
0
  0
ENDTAB
  0
TABLE
  2
STYLE
  5
3
330
0
100
AcDbSymbolTable
 70
     1
  0
STYLE
  5
11
330
3
100
AcDbSymbolTableRecord
100
AcDbTextStyleTableRecord
  2
Standard
 70
     0
 40
0.0
 41
1.0
 50
0.0
 71
     0
 42
0.2
  3
txt
  4

  0
ENDTAB
  0
TABLE
  2
VIEW
  5
6
330
0
100
AcDbSymbolTable
 70
     0
  0
ENDTAB
  0
TABLE
  2
UCS
  5
7
330
0
100
AcDbSymbolTable
 70
     0
  0
ENDTAB
  0
TABLE
  2
APPID
  5
9
330
0
100
AcDbSymbolTable
 70
     2
  0
APPID
  5
12
330
9
100
AcDbSymbolTableRecord
100
AcDbRegAppTableRecord
  2
ACAD
 70
     0
  0
APPID
  5
5D
330
9
100
AcDbSymbolTableRecord
100
AcDbRegAppTableRecord
  2
ODA
 70
     0
  0
ENDTAB
  0
TABLE
  2
DIMSTYLE
  5
A
330
0
100
AcDbSymbolTable
 70
     1
100
AcDbDimStyleTable
  0
DIMSTYLE
105
27
330
A
100
AcDbSymbolTableRecord
100
AcDbDimStyleTableRecord
  2
Standard
 70
     0
340
11
  0
ENDTAB
  0
TABLE
  2
BLOCK_RECORD
  5
1
330
0
100
AcDbSymbolTable
 70
     1
  0
BLOCK_RECORD
  5
1F
330
1
100
AcDbSymbolTableRecord
100
AcDbBlockTableRecord
  2
*Model_Space
340
22
 70
     0
280
     1
281
     0
  0
BLOCK_RECORD
  5
1B
330
1
100
AcDbSymbolTableRecord
100
AcDbBlockTableRecord
  2
*Paper_Space
340
1E
 70
     0
280
     1
281
     0
  0
BLOCK_RECORD
  5
23
330
1
100
AcDbSymbolTableRecord
100
AcDbBlockTableRecord
  2
*Paper_Space0
340
26
 70
     0
280
     1
281
     0
  0
ENDTAB
  0
ENDSEC
  0
SECTION
  2
BLOCKS
  0
BLOCK
  5
20
330
1F
100
AcDbEntity
  8
0
100
AcDbBlockBegin
  2
*Model_Space
 70
     0
 10
0.0
 20
0.0
 30
0.0
  3
*Model_Space
  1

  0
ENDBLK
  5
21
330
1F
100
AcDbEntity
  8
0
100
AcDbBlockEnd
  0
BLOCK
  5
1C
330
1B
100
AcDbEntity
 67
     1
  8
0
100
AcDbBlockBegin
  2
*Paper_Space
 70
     0
 10
0.0
 20
0.0
 30
0.0
  3
*Paper_Space
  1

  0
ENDBLK
  5
1D
330
1B
100
AcDbEntity
 67
     1
  8
0
100
AcDbBlockEnd
  0
BLOCK
  5
24
330
23
100
AcDbEntity
  8
0
100
AcDbBlockBegin
  2
*Paper_Space0
 70
     0
 10
0.0
 20
0.0
 30
0.0
  3
*Paper_Space0
  1

  0
ENDBLK
  5
25
330
23
100
AcDbEntity
  8
0
100
AcDbBlockEnd
  0
ENDSEC
  0
SECTION
  2
ENTITIES
  0
LWPOLYLINE
  5
5F
330
1F
100
AcDbEntity
  8
Layer 1
 62
     7
100
AcDbPolyline
 90
        5
 70
     1
 43
0.0
 10
-11.7
 20
-16.05
 10
-9.3
 20
-16.05
 10
-9.3
 20
-13.65
 10
-11.7
 20
-13.65
 10
-11.7
 20
-16.05
  0
LWPOLYLINE
  5
60
330
1F
100
AcDbEntity
  8
Layer 1
 62
     7
370
     9
100
AcDbPolyline
 90
        5
 70
     1
 43
0.0
 10
-10.58
 20
-15.16855
 10
-10.42
 20
-15.16855
 10
-10.42
 20
-15.08855
 10
-10.58
 20
-15.08855
 10
-10.58
 20
-15.16855
  0
LWPOLYLINE
  5
61
330
1F
100
AcDbEntity
  8
Layer 1
 62
     7
370
     9
100
AcDbPolyline
 90
        5
 70
     1
 43
0.0
 10
-10.555
 20
-15.16855
 10
-10.445
 20
-15.16855
 10
-10.445
 20
-15.08855
 10
-10.555
 20
-15.08855
 10
-10.555
 20
-15.16855
  0
SPLINE
  5
62
330
1F
100
AcDbEntity
  8
Layer 1
 62
   250
100
AcDbSpline
210
0.0
220
0.0
230
1.0
 70
    11
 71
     3
 72
   116
 73
   112
 74
     0
 42
0.0000000001
 43
0.0000000001
 40
0.0
 40
0.0
 40
0.0
 40
0.0
 40
0.0357142857142857
 40
0.0357142857142857
 40
0.0357142857142857
 40
0.0357142857142857
 40
0.0714285714285714
 40
0.0714285714285714
 40
0.0714285714285714
 40
0.0714285714285714
 40
0.1071428571428571
 40
0.1071428571428571
 40
0.1071428571428571
 40
0.1071428571428571
 40
0.1428571428571428
 40
0.1428571428571428
 40
0.1428571428571428
 40
0.1428571428571428
 40
0.1785714285714285
 40
0.1785714285714285
 40
0.1785714285714285
 40
0.1785714285714285
 40
0.2142857142857142
 40
0.2142857142857142
 40
0.2142857142857142
 40
0.2142857142857142
 40
0.2499999999999999
 40
0.2499999999999999
 40
0.2499999999999999
 40
0.2499999999999999
 40
0.2857142857142856
 40
0.2857142857142856
 40
0.2857142857142856
 40
0.2857142857142856
 40
0.3214285714285713
 40
0.3214285714285713
 40
0.3214285714285713
 40
0.3214285714285713
 40
0.357142857142857
 40
0.357142857142857
 40
0.357142857142857
 40
0.357142857142857
 40
0.3928571428571427
 40
0.3928571428571427
 40
0.3928571428571427
 40
0.3928571428571427
 40
0.4285714285714284
 40
0.4285714285714284
 40
0.4285714285714284
 40
0.4285714285714284
 40
0.4642857142857141
 40
0.4642857142857141
 40
0.4642857142857141
 40
0.4642857142857141
 40
0.4999999999999998
 40
0.4999999999999998
 40
0.4999999999999998
 40
0.4999999999999998
 40
0.5357142857142856
 40
0.5357142857142856
 40
0.5357142857142856
 40
0.5357142857142856
 40
0.5714285714285713
 40
0.5714285714285713
 40
0.5714285714285713
 40
0.5714285714285713
 40
0.607142857142857
 40
0.607142857142857
 40
0.607142857142857
 40
0.607142857142857
 40
0.6428571428571427
 40
0.6428571428571427
 40
0.6428571428571427
 40
0.6428571428571427
 40
0.6785714285714284
 40
0.6785714285714284
 40
0.6785714285714284
 40
0.6785714285714284
 40
0.7142857142857141
 40
0.7142857142857141
 40
0.7142857142857141
 40
0.7142857142857141
 40
0.7499999999999998
 40
0.7499999999999998
 40
0.7499999999999998
 40
0.7499999999999998
 40
0.7857142857142855
 40
0.7857142857142855
 40
0.7857142857142855
 40
0.7857142857142855
 40
0.8214285714285712
 40
0.8214285714285712
 40
0.8214285714285712
 40
0.8214285714285712
 40
0.8571428571428569
 40
0.8571428571428569
 40
0.8571428571428569
 40
0.8571428571428569
 40
0.8928571428571426
 40
0.8928571428571426
 40
0.8928571428571426
 40
0.8928571428571426
 40
0.9285714285714283
 40
0.9285714285714283
 40
0.9285714285714283
 40
0.9285714285714283
 40
0.964285714285714
 40
0.964285714285714
 40
0.964285714285714
 40
0.964285714285714
 40
1.0
 40
1.0
 40
1.0
 40
1.0
 10
-11.29076
 20
-14.48139
 30
0.0
 10
-11.29076
 20
-14.48139
 30
0.0
 10
-11.29076
 20
-14.50314
 30
0.0
 10
-11.29076
 20
-14.50314
 30
0.0
 10
-11.29076
 20
-14.50314
 30
0.0
 10
-11.29641
 20
-14.50062
 30
0.0
 10
-11.30193
 20
-14.49872
 30
0.0
 10
-11.30729
 20
-14.49743
 30
0.0
 10
-11.30729
 20
-14.49743
 30
0.0
 10
-11.31268
 20
-14.49613
 30
0.0
 10
-11.31776
 20
-14.4955
 30
0.0
 10
-11.32253
 20
-14.4955
 30
0.0
 10
-11.32253
 20
-14.4955
 30
0.0
 10
-11.32886
 20
-14.4955
 30
0.0
 10
-11.33356
 20
-14.49637
 30
0.0
 10
-11.3366
 20
-14.49811
 30
0.0
 10
-11.3366
 20
-14.49811
 30
0.0
 10
-11.33963
 20
-14.49987
 30
0.0
 10
-11.34114
 20
-14.50258
 30
0.0
 10
-11.34114
 20
-14.50625
 30
0.0
 10
-11.34114
 20
-14.50625
 30
0.0
 10
-11.34114
 20
-14.509
 30
0.0
 10
-11.34013
 20
-14.51116
 30
0.0
 10
-11.33808
 20
-14.51269
 30
0.0
 10
-11.33808
 20
-14.51269
 30
0.0
 10
-11.33603
 20
-14.51422
 30
0.0
 10
-11.33232
 20
-14.51556
 30
0.0
 10
-11.32693
 20
-14.51666
 30
0.0
 10
-11.32693
 20
-14.51666
 30
0.0
 10
-11.32693
 20
-14.51666
 30
0.0
 10
-11.31564
 20
-14.51892
 30
0.0
 10
-11.31564
 20
-14.51892
 30
0.0
 10
-11.31564
 20
-14.51892
 30
0.0
 10
-11.30419
 20
-14.52123
 30
0.0
 10
-11.29608
 20
-14.52471
 30
0.0
 10
-11.29126
 20
-14.52941
 30
0.0
 10
-11.29126
 20
-14.52941
 30
0.0
 10
-11.28643
 20
-14.53409
 30
0.0
 10
-11.28401
 20
-14.54075
 30
0.0
 10
-11.28401
 20
-14.54938
 30
0.0
 10
-11.28401
 20
-14.54938
 30
0.0
 10
-11.28401
 20
-14.56074
 30
0.0
 10
-11.28737
 20
-14.56918
 30
0.0
 10
-11.2941
 20
-14.57471
 30
0.0
 10
-11.2941
 20
-14.57471
 30
0.0
 10
-11.30083
 20
-14.58023
 30
0.0
 10
-11.3111
 20
-14.58301
 30
0.0
 10
-11.32493
 20
-14.58301
 30
0.0
 10
-11.32493
 20
-14.58301
 30
0.0
 10
-11.33147
 20
-14.58301
 30
0.0
 10
-11.33801
 20
-14.5824
 30
0.0
 10
-11.34457
 20
-14.58115
 30
0.0
 10
-11.34457
 20
-14.58115
 30
0.0
 10
-11.35113
 20
-14.5799
 30
0.0
 10
-11.35772
 20
-14.57807
 30
0.0
 10
-11.36428
 20
-14.57565
 30
0.0
 10
-11.36428
 20
-14.57565
 30
0.0
 10
-11.36428
 20
-14.57565
 30
0.0
 10
-11.36428
 20
-14.55326
 30
0.0
 10
-11.36428
 20
-14.55326
 30
0.0
 10
-11.36428
 20
-14.55326
 30
0.0
 10
-11.35772
 20
-14.55674
 30
0.0
 10
-11.35137
 20
-14.55937
 30
0.0
 10
-11.34523
 20
-14.56114
 30
0.0
 10
-11.34523
 20
-14.56114
 30
0.0
 10
-11.33909
 20
-14.5629
 30
0.0
 10
-11.33319
 20
-14.56379
 30
0.0
 10
-11.3275
 20
-14.56379
 30
0.0
 10
-11.3275
 20
-14.56379
 30
0.0
 10
-11.32171
 20
-14.56379
 30
0.0
 10
-11.31727
 20
-14.56283
 30
0.0
 10
-11.31419
 20
-14.5609
 30
0.0
 10
-11.31419
 20
-14.5609
 30
0.0
 10
-11.3111
 20
-14.55897
 30
0.0
 10
-11.30958
 20
-14.55622
 30
0.0
 10
-11.30958
 20
-14.55262
 30
0.0
 10
-11.30958
 20
-14.55262
 30
0.0
 10
-11.30958
 20
-14.54942
 30
0.0
 10
-11.31061
 20
-14.54693
 30
0.0
 10
-11.3127
 20
-14.54519
 30
0.0
 10
-11.3127
 20
-14.54519
 30
0.0
 10
-11.3148
 20
-14.54345
 30
0.0
 10
-11.31896
 20
-14.54188
 30
0.0
 10
-11.32522
 20
-14.54051
 30
0.0
 10
-11.32522
 20
-14.54051
 30
0.0
 10
-11.32522
 20
-14.54051
 30
0.0
 10
-11.33549
 20
-14.53823
 30
0.0
 10
-11.33549
 20
-14.53823
 30
0.0
 10
-11.33549
 20
-14.53823
 30
0.0
 10
-11.34577
 20
-14.53602
 30
0.0
 10
-11.3533
 20
-14.53252
 30
0.0
 10
-11.35805
 20
-14.52769
 30
0.0
 10
-11.35805
 20
-14.52769
 30
0.0
 10
-11.3628
 20
-14.52287
 30
0.0
 10
-11.36517
 20
-14.51636
 30
0.0
 10
-11.36517
 20
-14.5082
 30
0.0
 10
-11.36517
 20
-14.5082
 30
0.0
 10
-11.36517
 20
-14.49794
 30
0.0
 10
-11.36186
 20
-14.49006
 30
0.0
 10
-11.35525
 20
-14.48456
 30
0.0
 10
-11.35525
 20
-14.48456
 30
0.0
 10
-11.34864
 20
-14.47903
 30
0.0
 10
-11.33914
 20
-14.47628
 30
0.0
 10
-11.32672
 20
-14.47628
 30
0.0
 10
-11.32672
 20
-14.47628
 30
0.0
 10
-11.32108
 20
-14.47628
 30
0.0
 10
-11.31527
 20
-14.47671
 30
0.0
 10
-11.30929
 20
-14.47755
 30
0.0
 10
-11.30929
 20
-14.47755
 30
0.0
 10
-11.30332
 20
-14.4784
 30
0.0
 10
-11.29714
 20
-14.47967
 30
0.0
 10
-11.29076
 20
-14.48139
 30
0.0
  0
SPLINE
  5
63
330
1F
100
AcDbEntity
  8
Layer 1
 62
   250
100
AcDbSpline
210
0.0
220
0.0
230
1.0
 70
    11
 71
     3
 72
    56
 73
    52
 74
     0
 42
0.0000000001
 43
0.0000000001
 40
0.0
 40
0.0
 40
0.0
 40
0.0
 40
0.0769230769230769
 40
0.0769230769230769
 40
0.0769230769230769
 40
0.0769230769230769
 40
0.1538461538461539
 40
0.1538461538461539
 40
0.1538461538461539
 40
0.1538461538461539
 40
0.2307692307692308
 40
0.2307692307692308
 40
0.2307692307692308
 40
0.2307692307692308
 40
0.3076923076923077
 40
0.3076923076923077
 40
0.3076923076923077
 40
0.3076923076923077
 40
0.3846153846153846
 40
0.3846153846153846
 40
0.3846153846153846
 40
0.3846153846153846
 40
0.4615384615384616
 40
0.4615384615384616
 40
0.4615384615384616
 40
0.4615384615384616
 40
0.5384615384615385
 40
0.5384615384615385
 40
0.5384615384615385
 40
0.5384615384615385
 40
0.6153846153846154
 40
0.6153846153846154
 40
0.6153846153846154
 40
0.6153846153846154
 40
0.6923076923076923
 40
0.6923076923076923
 40
0.6923076923076923
 40
0.6923076923076923
 40
0.7692307692307692
 40
0.7692307692307692
 40
0.7692307692307692
 40
0.7692307692307692
 40
0.846153846153846
 40
0.846153846153846
 40
0.846153846153846
 40
0.846153846153846
 40
0.9230769230769229
 40
0.9230769230769229
 40
0.9230769230769229
 40
0.9230769230769229
 40
1.0
 40
1.0
 40
1.0
 40
1.0
 10
-11.26073
 20
-14.47814
 30
0.0
 10
-11.26073
 20
-14.47814
 30
0.0
 10
-11.22698
 20
-14.47814
 30
0.0
 10
-11.22698
 20
-14.47814
 30
0.0
 10
-11.22698
 20
-14.47814
 30
0.0
 10
-11.22698
 20
-14.47814
 30
0.0
 10
-11.20353
 20
-14.5332
 30
0.0
 10
-11.20353
 20
-14.5332
 30
0.0
 10
-11.20353
 20
-14.5332
 30
0.0
 10
-11.20353
 20
-14.5332
 30
0.0
 10
-11.17997
 20
-14.47814
 30
0.0
 10
-11.17997
 20
-14.47814
 30
0.0
 10
-11.17997
 20
-14.47814
 30
0.0
 10
-11.17997
 20
-14.47814
 30
0.0
 10
-11.14629
 20
-14.47814
 30
0.0
 10
-11.14629
 20
-14.47814
 30
0.0
 10
-11.14629
 20
-14.47814
 30
0.0
 10
-11.14629
 20
-14.47814
 30
0.0
 10
-11.14629
 20
-14.58101
 30
0.0
 10
-11.14629
 20
-14.58101
 30
0.0
 10
-11.14629
 20
-14.58101
 30
0.0
 10
-11.14629
 20
-14.58101
 30
0.0
 10
-11.17136
 20
-14.58101
 30
0.0
 10
-11.17136
 20
-14.58101
 30
0.0
 10
-11.17136
 20
-14.58101
 30
0.0
 10
-11.17136
 20
-14.58101
 30
0.0
 10
-11.17136
 20
-14.50577
 30
0.0
 10
-11.17136
 20
-14.50577
 30
0.0
 10
-11.17136
 20
-14.50577
 30
0.0
 10
-11.17136
 20
-14.50577
 30
0.0
 10
-11.19507
 20
-14.56123
 30
0.0
 10
-11.19507
 20
-14.56123
 30
0.0
 10
-11.19507
 20
-14.56123
 30
0.0
 10
-11.19507
 20
-14.56123
 30
0.0
 10
-11.21188
 20
-14.56123
 30
0.0
 10
-11.21188
 20
-14.56123
 30
0.0
 10
-11.21188
 20
-14.56123
 30
0.0
 10
-11.21188
 20
-14.56123
 30
0.0
 10
-11.23559
 20
-14.50577
 30
0.0
 10
-11.23559
 20
-14.50577
 30
0.0
 10
-11.23559
 20
-14.50577
 30
0.0
 10
-11.23559
 20
-14.50577
 30
0.0
 10
-11.23559
 20
-14.58101
 30
0.0
 10
-11.23559
 20
-14.58101
 30
0.0
 10
-11.23559
 20
-14.58101
 30
0.0
 10
-11.23559
 20
-14.58101
 30
0.0
 10
-11.26073
 20
-14.58101
 30
0.0
 10
-11.26073
 20
-14.58101
 30
0.0
 10
-11.26073
 20
-14.58101
 30
0.0
 10
-11.26073
 20
-14.58101
 30
0.0
 10
-11.26073
 20
-14.47814
 30
0.0
 10
-11.26073
 20
-14.47814
 30
0.0
  0
SPLINE
  5
64
330
1F
100
AcDbEntity
  8
Layer 1
 62
   250
100
AcDbSpline
210
0.0
220
0.0
230
1.0
 70
    11
 71
     3
 72
    32
 73
    28
 74
     0
 42
0.0000000001
 43
0.0000000001
 40
0.0
 40
0.0
 40
0.0
 40
0.0
 40
0.1428571428571428
 40
0.1428571428571428
 40
0.1428571428571428
 40
0.1428571428571428
 40
0.2857142857142857
 40
0.2857142857142857
 40
0.2857142857142857
 40
0.2857142857142857
 40
0.4285714285714285
 40
0.4285714285714285
 40
0.4285714285714285
 40
0.4285714285714285
 40
0.5714285714285714
 40
0.5714285714285714
 40
0.5714285714285714
 40
0.5714285714285714
 40
0.7142857142857142
 40
0.7142857142857142
 40
0.7142857142857142
 40
0.7142857142857142
 40
0.857142857142857
 40
0.857142857142857
 40
0.857142857142857
 40
0.857142857142857
 40
1.0
 40
1.0
 40
1.0
 40
1.0
 10
-11.09377
 20
-14.4982
 30
0.0
 10
-11.09377
 20
-14.4982
 30
0.0
 10
-11.09377
 20
-14.56095
 30
0.0
 10
-11.09377
 20
-14.56095
 30
0.0
 10
-11.09377
 20
-14.56095
 30
0.0
 10
-11.09377
 20
-14.56095
 30
0.0
 10
-11.08427
 20
-14.56095
 30
0.0
 10
-11.08427
 20
-14.56095
 30
0.0
 10
-11.08427
 20
-14.56095
 30
0.0
 10
-11.07343
 20
-14.56095
 30
0.0
 10
-11.06515
 20
-14.55827
 30
0.0
 10
-11.05944
 20
-14.55288
 30
0.0
 10
-11.05944
 20
-14.55288
 30
0.0
 10
-11.05372
 20
-14.54752
 30
0.0
 10
-11.05085
 20
-14.53971
 30
0.0
 10
-11.05085
 20
-14.52948
 30
0.0
 10
-11.05085
 20
-14.52948
 30
0.0
 10
-11.05085
 20
-14.51927
 30
0.0
 10
-11.0537
 20
-14.51151
 30
0.0
 10
-11.05939
 20
-14.5062
 30
0.0
 10
-11.05939
 20
-14.5062
 30
0.0
 10
-11.06508
 20
-14.50086
 30
0.0
 10
-11.07338
 20
-14.4982
 30
0.0
 10
-11.08427
 20
-14.4982
 30
0.0
 10
-11.08427
 20
-14.4982
 30
0.0
 10
-11.08427
 20
-14.4982
 30
0.0
 10
-11.09377
 20
-14.4982
 30
0.0
 10
-11.09377
 20
-14.4982
 30
0.0
  0
SPLINE
  5
65
330
1F
100
AcDbEntity
  8
Layer 1
 62
   250
100
AcDbSpline
210
0.0
220
0.0
230
1.0
 70
    11
 71
     3
 72
    48
 73
    44
 74
     0
 42
0.0000000001
 43
0.0000000001
 40
0.0
 40
0.0
 40
0.0
 40
0.0
 40
0.0909090909090909
 40
0.0909090909090909
 40
0.0909090909090909
 40
0.0909090909090909
 40
0.1818181818181818
 40
0.1818181818181818
 40
0.1818181818181818
 40
0.1818181818181818
 40
0.2727272727272727
 40
0.2727272727272727
 40
0.2727272727272727
 40
0.2727272727272727
 40
0.3636363636363636
 40
0.3636363636363636
 40
0.3636363636363636
 40
0.3636363636363636
 40
0.4545454545454546
 40
0.4545454545454546
 40
0.4545454545454546
 40
0.4545454545454546
 40
0.5454545454545455
 40
0.5454545454545455
 40
0.5454545454545455
 40
0.5454545454545455
 40
0.6363636363636365
 40
0.6363636363636365
 40
0.6363636363636365
 40
0.6363636363636365
 40
0.7272727272727274
 40
0.7272727272727274
 40
0.7272727272727274
 40
0.7272727272727274
 40
0.8181818181818183
 40
0.8181818181818183
 40
0.8181818181818183
 40
0.8181818181818183
 40
0.9090909090909093
 40
0.9090909090909093
 40
0.9090909090909093
 40
0.9090909090909093
 40
1.0
 40
1.0
 40
1.0
 40
1.0
 10
-11.1203
 20
-14.47814
 30
0.0
 10
-11.1203
 20
-14.47814
 30
0.0
 10
-11.09231
 20
-14.47814
 30
0.0
 10
-11.09231
 20
-14.47814
 30
0.0
 10
-11.09231
 20
-14.47814
 30
0.0
 10
-11.0767
 20
-14.47814
 30
0.0
 10
-11.06508
 20
-14.47925
 30
0.0
 10
-11.05744
 20
-14.48148
 30
0.0
 10
-11.05744
 20
-14.48148
 30
0.0
 10
-11.04979
 20
-14.48371
 30
0.0
 10
-11.04323
 20
-14.48748
 30
0.0
 10
-11.03775
 20
-14.49282
 30
0.0
 10
-11.03775
 20
-14.49282
 30
0.0
 10
-11.03293
 20
-14.49745
 30
0.0
 10
-11.02936
 20
-14.50281
 30
0.0
 10
-11.027
 20
-14.50888
 30
0.0
 10
-11.027
 20
-14.50888
 30
0.0
 10
-11.02468
 20
-14.51492
 30
0.0
 10
-11.0235
 20
-14.52179
 30
0.0
 10
-11.0235
 20
-14.52948
 30
0.0
 10
-11.0235
 20
-14.52948
 30
0.0
 10
-11.0235
 20
-14.53724
 30
0.0
 10
-11.02468
 20
-14.54416
 30
0.0
 10
-11.027
 20
-14.55025
 30
0.0
 10
-11.027
 20
-14.55025
 30
0.0
 10
-11.02936
 20
-14.55634
 30
0.0
 10
-11.03293
 20
-14.5617
 30
0.0
 10
-11.03775
 20
-14.56633
 30
0.0
 10
-11.03775
 20
-14.56633
 30
0.0
 10
-11.04328
 20
-14.57167
 30
0.0
 10
-11.04989
 20
-14.57544
 30
0.0
 10
-11.0576
 20
-14.57767
 30
0.0
 10
-11.0576
 20
-14.57767
 30
0.0
 10
-11.06532
 20
-14.5799
 30
0.0
 10
-11.07689
 20
-14.58101
 30
0.0
 10
-11.09231
 20
-14.58101
 30
0.0
 10
-11.09231
 20
-14.58101
 30
0.0
 10
-11.09231
 20
-14.58101
 30
0.0
 10
-11.1203
 20
-14.58101
 30
0.0
 10
-11.1203
 20
-14.58101
 30
0.0
 10
-11.1203
 20
-14.58101
 30
0.0
 10
-11.1203
 20
-14.58101
 30
0.0
 10
-11.1203
 20
-14.47814
 30
0.0
 10
-11.1203
 20
-14.47814
 30
0.0
  0
SPLINE
  5
66
330
1F
100
AcDbEntity
  8
Layer 1
 62
   250
100
AcDbSpline
210
0.0
220
0.0
230
1.0
 70
    11
 71
     3
 72
    44
 73
    40
 74
     0
 42
0.0000000001
 43
0.0000000001
 40
0.0
 40
0.0
 40
0.0
 40
0.0
 40
0.1
 40
0.1
 40
0.1
 40
0.1
 40
0.2
 40
0.2
 40
0.2
 40
0.2
 40
0.3
 40
0.3
 40
0.3
 40
0.3
 40
0.4
 40
0.4
 40
0.4
 40
0.4
 40
0.5
 40
0.5
 40
0.5
 40
0.5
 40
0.6
 40
0.6
 40
0.6
 40
0.6
 40
0.7
 40
0.7
 40
0.7
 40
0.7
 40
0.7999999999999999
 40
0.7999999999999999
 40
0.7999999999999999
 40
0.7999999999999999
 40
0.8999999999999999
 40
0.8999999999999999
 40
0.8999999999999999
 40
0.8999999999999999
 40
1.0
 40
1.0
 40
1.0
 40
1.0
 10
-10.91381
 20
-14.59961
 30
0.0
 10
-10.91381
 20
-14.59961
 30
0.0
 10
-10.93427
 20
-14.59961
 30
0.0
 10
-10.93427
 20
-14.59961
 30
0.0
 10
-10.93427
 20
-14.59961
 30
0.0
 10
-10.9413
 20
-14.58828
 30
0.0
 10
-10.9465
 20
-14.57748
 30
0.0
 10
-10.94984
 20
-14.56725
 30
0.0
 10
-10.94984
 20
-14.56725
 30
0.0
 10
-10.9532
 20
-14.55704
 30
0.0
 10
-10.95487
 20
-14.54691
 30
0.0
 10
-10.95487
 20
-14.53684
 30
0.0
 10
-10.95487
 20
-14.53684
 30
0.0
 10
-10.95487
 20
-14.52678
 30
0.0
 10
-10.95318
 20
-14.51659
 30
0.0
 10
-10.94982
 20
-14.50629
 30
0.0
 10
-10.94982
 20
-14.50629
 30
0.0
 10
-10.94643
 20
-14.49597
 30
0.0
 10
-10.94126
 20
-14.4852
 30
0.0
 10
-10.93427
 20
-14.47393
 30
0.0
 10
-10.93427
 20
-14.47393
 30
0.0
 10
-10.93427
 20
-14.47393
 30
0.0
 10
-10.91381
 20
-14.47393
 30
0.0
 10
-10.91381
 20
-14.47393
 30
0.0
 10
-10.91381
 20
-14.47393
 30
0.0
 10
-10.91969
 20
-14.48482
 30
0.0
 10
-10.92409
 20
-14.49547
 30
0.0
 10
-10.92703
 20
-14.50587
 30
0.0
 10
-10.92703
 20
-14.50587
 30
0.0
 10
-10.92997
 20
-14.51626
 30
0.0
 10
-10.93145
 20
-14.52654
 30
0.0
 10
-10.93145
 20
-14.5367
 30
0.0
 10
-10.93145
 20
-14.5367
 30
0.0
 10
-10.93145
 20
-14.54686
 30
0.0
 10
-10.92999
 20
-14.55714
 30
0.0
 10
-10.92708
 20
-14.56758
 30
0.0
 10
-10.92708
 20
-14.56758
 30
0.0
 10
-10.92416
 20
-14.578
 30
0.0
 10
-10.91974
 20
-14.58868
 30
0.0
 10
-10.91381
 20
-14.59961
 30
0.0
  0
SPLINE
  5
67
330
1F
100
AcDbEntity
  8
Layer 1
 62
   250
100
AcDbSpline
210
0.0
220
0.0
230
1.0
 70
    11
 71
     3
 72
    36
 73
    32
 74
     0
 42
0.0000000001
 43
0.0000000001
 40
0.0
 40
0.0
 40
0.0
 40
0.0
 40
0.125
 40
0.125
 40
0.125
 40
0.125
 40
0.25
 40
0.25
 40
0.25
 40
0.25
 40
0.375
 40
0.375
 40
0.375
 40
0.375
 40
0.5
 40
0.5
 40
0.5
 40
0.5
 40
0.625
 40
0.625
 40
0.625
 40
0.625
 40
0.75
 40
0.75
 40
0.75
 40
0.75
 40
0.875
 40
0.875
 40
0.875
 40
0.875
 40
1.0
 40
1.0
 40
1.0
 40
1.0
 10
-10.83761
 20
-14.52948
 30
0.0
 10
-10.83761
 20
-14.51662
 30
0.0
 10
-10.83881
 20
-14.50756
 30
0.0
 10
-10.84123
 20
-14.50229
 30
0.0
 10
-10.84123
 20
-14.50229
 30
0.0
 10
-10.84363
 20
-14.49705
 30
0.0
 10
-10.8477
 20
-14.49442
 30
0.0
 10
-10.85339
 20
-14.49442
 30
0.0
 10
-10.85339
 20
-14.49442
 30
0.0
 10
-10.85908
 20
-14.49442
 30
0.0
 10
-10.86315
 20
-14.49705
 30
0.0
 10
-10.8656
 20
-14.50229
 30
0.0
 10
-10.8656
 20
-14.50229
 30
0.0
 10
-10.86802
 20
-14.50756
 30
0.0
 10
-10.86924
 20
-14.51662
 30
0.0
 10
-10.86924
 20
-14.52948
 30
0.0
 10
-10.86924
 20
-14.52948
 30
0.0
 10
-10.86924
 20
-14.54246
 30
0.0
 10
-10.86802
 20
-14.55164
 30
0.0
 10
-10.8656
 20
-14.55695
 30
0.0
 10
-10.8656
 20
-14.55695
 30
0.0
 10
-10.86315
 20
-14.56229
 30
0.0
 10
-10.85908
 20
-14.56495
 30
0.0
 10
-10.85339
 20
-14.56495
 30
0.0
 10
-10.85339
 20
-14.56495
 30
0.0
 10
-10.84775
 20
-14.56495
 30
0.0
 10
-10.8437
 20
-14.56229
 30
0.0
 10
-10.84125
 20
-14.55695
 30
0.0
 10
-10.84125
 20
-14.55695
 30
0.0
 10
-10.83883
 20
-14.55164
 30
0.0
 10
-10.83761
 20
-14.54246
 30
0.0
 10
-10.83761
 20
-14.52948
 30
0.0
  0
SPLINE
  5
68
330
1F
100
AcDbEntity
  8
Layer 1
 62
   250
100
AcDbSpline
210
0.0
220
0.0
230
1.0
 70
    11
 71
     3
 72
    36
 73
    32
 74
     0
 42
0.0000000001
 43
0.0000000001
 40
0.0
 40
0.0
 40
0.0
 40
0.0
 40
0.125
 40
0.125
 40
0.125
 40
0.125
 40
0.25
 40
0.25
 40
0.25
 40
0.25
 40
0.375
 40
0.375
 40
0.375
 40
0.375
 40
0.5
 40
0.5
 40
0.5
 40
0.5
 40
0.625
 40
0.625
 40
0.625
 40
0.625
 40
0.75
 40
0.75
 40
0.75
 40
0.75
 40
0.875
 40
0.875
 40
0.875
 40
0.875
 40
1.0
 40
1.0
 40
1.0
 40
1.0
 10
-10.81108
 20
-14.52967
 30
0.0
 10
-10.81108
 20
-14.54672
 30
0.0
 10
-10.81475
 20
-14.55987
 30
0.0
 10
-10.82211
 20
-14.56913
 30
0.0
 10
-10.82211
 20
-14.56913
 30
0.0
 10
-10.82945
 20
-14.57838
 30
0.0
 10
-10.83989
 20
-14.58301
 30
0.0
 10
-10.85339
 20
-14.58301
 30
0.0
 10
-10.85339
 20
-14.58301
 30
0.0
 10
-10.86694
 20
-14.58301
 30
0.0
 10
-10.8774
 20
-14.57838
 30
0.0
 10
-10.88474
 20
-14.56913
 30
0.0
 10
-10.88474
 20
-14.56913
 30
0.0
 10
-10.8921
 20
-14.55987
 30
0.0
 10
-10.89577
 20
-14.54672
 30
0.0
 10
-10.89577
 20
-14.52967
 30
0.0
 10
-10.89577
 20
-14.52967
 30
0.0
 10
-10.89577
 20
-14.5126
 30
0.0
 10
-10.8921
 20
-14.49942
 30
0.0
 10
-10.88474
 20
-14.49016
 30
0.0
 10
-10.88474
 20
-14.49016
 30
0.0
 10
-10.8774
 20
-14.48092
 30
0.0
 10
-10.86694
 20
-14.47628
 30
0.0
 10
-10.85339
 20
-14.47628
 30
0.0
 10
-10.85339
 20
-14.47628
 30
0.0
 10
-10.83989
 20
-14.47628
 30
0.0
 10
-10.82945
 20
-14.48092
 30
0.0
 10
-10.82211
 20
-14.49016
 30
0.0
 10
-10.82211
 20
-14.49016
 30
0.0
 10
-10.81475
 20
-14.49942
 30
0.0
 10
-10.81108
 20
-14.5126
 30
0.0
 10
-10.81108
 20
-14.52967
 30
0.0
  0
SPLINE
  5
69
330
1F
100
AcDbEntity
  8
Layer 1
 62
   250
100
AcDbSpline
210
0.0
220
0.0
230
1.0
 70
    11
 71
     3
 72
    36
 73
    32
 74
     0
 42
0.0000000001
 43
0.0000000001
 40
0.0
 40
0.0
 40
0.0
 40
0.0
 40
0.125
 40
0.125
 40
0.125
 40
0.125
 40
0.25
 40
0.25
 40
0.25
 40
0.25
 40
0.375
 40
0.375
 40
0.375
 40
0.375
 40
0.5
 40
0.5
 40
0.5
 40
0.5
 40
0.625
 40
0.625
 40
0.625
 40
0.625
 40
0.75
 40
0.75
 40
0.75
 40
0.75
 40
0.875
 40
0.875
 40
0.875
 40
0.875
 40
1.0
 40
1.0
 40
1.0
 40
1.0
 10
-10.75327
 20
-14.53023
 30
0.0
 10
-10.75793
 20
-14.53023
 30
0.0
 10
-10.76141
 20
-14.53174
 30
0.0
 10
-10.76371
 20
-14.53475
 30
0.0
 10
-10.76371
 20
-14.53475
 30
0.0
 10
-10.76604
 20
-14.53776
 30
0.0
 10
-10.76719
 20
-14.54228
 30
0.0
 10
-10.76719
 20
-14.54827
 30
0.0
 10
-10.76719
 20
-14.54827
 30
0.0
 10
-10.76719
 20
-14.55429
 30
0.0
 10
-10.76604
 20
-14.55881
 30
0.0
 10
-10.76371
 20
-14.56182
 30
0.0
 10
-10.76371
 20
-14.56182
 30
0.0
 10
-10.76141
 20
-14.56483
 30
0.0
 10
-10.75793
 20
-14.56633
 30
0.0
 10
-10.75327
 20
-14.56633
 30
0.0
 10
-10.75327
 20
-14.56633
 30
0.0
 10
-10.74859
 20
-14.56633
 30
0.0
 10
-10.74509
 20
-14.56483
 30
0.0
 10
-10.74278
 20
-14.56182
 30
0.0
 10
-10.74278
 20
-14.56182
 30
0.0
 10
-10.74045
 20
-14.55881
 30
0.0
 10
-10.7393
 20
-14.55429
 30
0.0
 10
-10.7393
 20
-14.54827
 30
0.0
 10
-10.7393
 20
-14.54827
 30
0.0
 10
-10.7393
 20
-14.54228
 30
0.0
 10
-10.74045
 20
-14.53776
 30
0.0
 10
-10.74278
 20
-14.53475
 30
0.0
 10
-10.74278
 20
-14.53475
 30
0.0
 10
-10.74509
 20
-14.53174
 30
0.0
 10
-10.74859
 20
-14.53023
 30
0.0
 10
-10.75327
 20
-14.53023
 30
0.0
  0
SPLINE
  5
6A
330
1F
100
AcDbEntity
  8
Layer 1
 62
   250
100
AcDbSpline
210
0.0
220
0.0
230
1.0
 70
    11
 71
     3
 72
    72
 73
    68
 74
     0
 42
0.0000000001
 43
0.0000000001
 40
0.0
 40
0.0
 40
0.0
 40
0.0
 40
0.0588235294117647
 40
0.0588235294117647
 40
0.0588235294117647
 40
0.0588235294117647
 40
0.1176470588235294
 40
0.1176470588235294
 40
0.1176470588235294
 40
0.1176470588235294
 40
0.1764705882352941
 40
0.1764705882352941
 40
0.1764705882352941
 40
0.1764705882352941
 40
0.2352941176470588
 40
0.2352941176470588
 40
0.2352941176470588
 40
0.2352941176470588
 40
0.2941176470588235
 40
0.2941176470588235
 40
0.2941176470588235
 40
0.2941176470588235
 40
0.3529411764705883
 40
0.3529411764705883
 40
0.3529411764705883
 40
0.3529411764705883
 40
0.411764705882353
 40
0.411764705882353
 40
0.411764705882353
 40
0.411764705882353
 40
0.4705882352941177
 40
0.4705882352941177
 40
0.4705882352941177
 40
0.4705882352941177
 40
0.5294117647058824
 40
0.5294117647058824
 40
0.5294117647058824
 40
0.5294117647058824
 40
0.5882352941176471
 40
0.5882352941176471
 40
0.5882352941176471
 40
0.5882352941176471
 40
0.6470588235294118
 40
0.6470588235294118
 40
0.6470588235294118
 40
0.6470588235294118
 40
0.7058823529411765
 40
0.7058823529411765
 40
0.7058823529411765
 40
0.7058823529411765
 40
0.7647058823529412
 40
0.7647058823529412
 40
0.7647058823529412
 40
0.7647058823529412
 40
0.823529411764706
 40
0.823529411764706
 40
0.823529411764706
 40
0.823529411764706
 40
0.8823529411764707
 40
0.8823529411764707
 40
0.8823529411764707
 40
0.8823529411764707
 40
0.9411764705882354
 40
0.9411764705882354
 40
0.9411764705882354
 40
0.9411764705882354
 40
1.0
 40
1.0
 40
1.0
 40
1.0
 10
-10.72049
 20
-14.48082
 30
0.0
 10
-10.72049
 20
-14.48082
 30
0.0
 10
-10.72049
 20
-14.49985
 30
0.0
 10
-10.72049
 20
-14.49985
 30
0.0
 10
-10.72049
 20
-14.49985
 30
0.0
 10
-10.72486
 20
-14.49778
 30
0.0
 10
-10.72895
 20
-14.49625
 30
0.0
 10
-10.73281
 20
-14.49526
 30
0.0
 10
-10.73281
 20
-14.49526
 30
0.0
 10
-10.73667
 20
-14.49427
 30
0.0
 10
-10.74045
 20
-14.49378
 30
0.0
 10
-10.74412
 20
-14.49378
 30
0.0
 10
-10.74412
 20
-14.49378
 30
0.0
 10
-10.75203
 20
-14.49378
 30
0.0
 10
-10.75816
 20
-14.49597
 30
0.0
 10
-10.76258
 20
-14.50037
 30
0.0
 10
-10.76258
 20
-14.50037
 30
0.0
 10
-10.76698
 20
-14.50474
 30
0.0
 10
-10.76957
 20
-14.51125
 30
0.0
 10
-10.7703
 20
-14.51989
 30
0.0
 10
-10.7703
 20
-14.51989
 30
0.0
 10
-10.76727
 20
-14.51765
 30
0.0
 10
-10.76397
 20
-14.51596
 30
0.0
 10
-10.76044
 20
-14.51483
 30
0.0
 10
-10.76044
 20
-14.51483
 30
0.0
 10
-10.75692
 20
-14.5137
 30
0.0
 10
-10.75306
 20
-14.51314
 30
0.0
 10
-10.74887
 20
-14.51314
 30
0.0
 10
-10.74887
 20
-14.51314
 30
0.0
 10
-10.73836
 20
-14.51314
 30
0.0
 10
-10.72987
 20
-14.51622
 30
0.0
 10
-10.72343
 20
-14.52238
 30
0.0
 10
-10.72343
 20
-14.52238
 30
0.0
 10
-10.71696
 20
-14.52852
 30
0.0
 10
-10.71374
 20
-14.53658
 30
0.0
 10
-10.71374
 20
-14.54656
 30
0.0
 10
-10.71374
 20
-14.54656
 30
0.0
 10
-10.71374
 20
-14.55759
 30
0.0
 10
-10.71734
 20
-14.56641
 30
0.0
 10
-10.72456
 20
-14.57306
 30
0.0
 10
-10.72456
 20
-14.57306
 30
0.0
 10
-10.73175
 20
-14.57969
 30
0.0
 10
-10.74144
 20
-14.58301
 30
0.0
 10
-10.75355
 20
-14.58301
 30
0.0
 10
-10.75355
 20
-14.58301
 30
0.0
 10
-10.76691
 20
-14.58301
 30
0.0
 10
-10.77726
 20
-14.57849
 30
0.0
 10
-10.7846
 20
-14.56946
 30
0.0
 10
-10.7846
 20
-14.56946
 30
0.0
 10
-10.79191
 20
-14.56045
 30
0.0
 10
-10.79558
 20
-14.54764
 30
0.0
 10
-10.79558
 20
-14.53106
 30
0.0
 10
-10.79558
 20
-14.53106
 30
0.0
 10
-10.79558
 20
-14.51408
 30
0.0
 10
-10.7913
 20
-14.50072
 30
0.0
 10
-10.78274
 20
-14.49101
 30
0.0
 10
-10.78274
 20
-14.49101
 30
0.0
 10
-10.77416
 20
-14.48129
 30
0.0
 10
-10.76242
 20
-14.47642
 30
0.0
 10
-10.74749
 20
-14.47642
 30
0.0
 10
-10.74749
 20
-14.47642
 30
0.0
 10
-10.74276
 20
-14.47642
 30
0.0
 10
-10.73817
 20
-14.4768
 30
0.0
 10
-10.7337
 20
-14.47753
 30
0.0
 10
-10.7337
 20
-14.47753
 30
0.0
 10
-10.72926
 20
-14.47826
 30
0.0
 10
-10.72486
 20
-14.47936
 30
0.0
 10
-10.72049
 20
-14.48082
 30
0.0
  0
SPLINE
  5
6B
330
1F
100
AcDbEntity
  8
Layer 1
 62
   250
100
AcDbSpline
210
0.0
220
0.0
230
1.0
 70
    11
 71
     3
 72
    36
 73
    32
 74
     0
 42
0.0000000001
 43
0.0000000001
 40
0.0
 40
0.0
 40
0.0
 40
0.0
 40
0.125
 40
0.125
 40
0.125
 40
0.125
 40
0.25
 40
0.25
 40
0.25
 40
0.25
 40
0.375
 40
0.375
 40
0.375
 40
0.375
 40
0.5
 40
0.5
 40
0.5
 40
0.5
 40
0.625
 40
0.625
 40
0.625
 40
0.625
 40
0.75
 40
0.75
 40
0.75
 40
0.75
 40
0.875
 40
0.875
 40
0.875
 40
0.875
 40
1.0
 40
1.0
 40
1.0
 40
1.0
 10
-10.64123
 20
-14.52948
 30
0.0
 10
-10.64123
 20
-14.51662
 30
0.0
 10
-10.64243
 20
-14.50756
 30
0.0
 10
-10.64485
 20
-14.50229
 30
0.0
 10
-10.64485
 20
-14.50229
 30
0.0
 10
-10.64725
 20
-14.49705
 30
0.0
 10
-10.65132
 20
-14.49442
 30
0.0
 10
-10.65701
 20
-14.49442
 30
0.0
 10
-10.65701
 20
-14.49442
 30
0.0
 10
-10.6627
 20
-14.49442
 30
0.0
 10
-10.66677
 20
-14.49705
 30
0.0
 10
-10.66922
 20
-14.50229
 30
0.0
 10
-10.66922
 20
-14.50229
 30
0.0
 10
-10.67164
 20
-14.50756
 30
0.0
 10
-10.67286
 20
-14.51662
 30
0.0
 10
-10.67286
 20
-14.52948
 30
0.0
 10
-10.67286
 20
-14.52948
 30
0.0
 10
-10.67286
 20
-14.54246
 30
0.0
 10
-10.67164
 20
-14.55164
 30
0.0
 10
-10.66922
 20
-14.55695
 30
0.0
 10
-10.66922
 20
-14.55695
 30
0.0
 10
-10.66677
 20
-14.56229
 30
0.0
 10
-10.6627
 20
-14.56495
 30
0.0
 10
-10.65701
 20
-14.56495
 30
0.0
 10
-10.65701
 20
-14.56495
 30
0.0
 10
-10.65137
 20
-14.56495
 30
0.0
 10
-10.64732
 20
-14.56229
 30
0.0
 10
-10.64487
 20
-14.55695
 30
0.0
 10
-10.64487
 20
-14.55695
 30
0.0
 10
-10.64245
 20
-14.55164
 30
0.0
 10
-10.64123
 20
-14.54246
 30
0.0
 10
-10.64123
 20
-14.52948
 30
0.0
  0
SPLINE
  5
6C
330
1F
100
AcDbEntity
  8
Layer 1
 62
   250
100
AcDbSpline
210
0.0
220
0.0
230
1.0
 70
    11
 71
     3
 72
    36
 73
    32
 74
     0
 42
0.0000000001
 43
0.0000000001
 40
0.0
 40
0.0
 40
0.0
 40
0.0
 40
0.125
 40
0.125
 40
0.125
 40
0.125
 40
0.25
 40
0.25
 40
0.25
 40
0.25
 40
0.375
 40
0.375
 40
0.375
 40
0.375
 40
0.5
 40
0.5
 40
0.5
 40
0.5
 40
0.625
 40
0.625
 40
0.625
 40
0.625
 40
0.75
 40
0.75
 40
0.75
 40
0.75
 40
0.875
 40
0.875
 40
0.875
 40
0.875
 40
1.0
 40
1.0
 40
1.0
 40
1.0
 10
-10.6147
 20
-14.52967
 30
0.0
 10
-10.6147
 20
-14.54672
 30
0.0
 10
-10.61837
 20
-14.55987
 30
0.0
 10
-10.62573
 20
-14.56913
 30
0.0
 10
-10.62573
 20
-14.56913
 30
0.0
 10
-10.63307
 20
-14.57838
 30
0.0
 10
-10.64351
 20
-14.58301
 30
0.0
 10
-10.65701
 20
-14.58301
 30
0.0
 10
-10.65701
 20
-14.58301
 30
0.0
 10
-10.67056
 20
-14.58301
 30
0.0
 10
-10.68102
 20
-14.57838
 30
0.0
 10
-10.68836
 20
-14.56913
 30
0.0
 10
-10.68836
 20
-14.56913
 30
0.0
 10
-10.69572
 20
-14.55987
 30
0.0
 10
-10.69939
 20
-14.54672
 30
0.0
 10
-10.69939
 20
-14.52967
 30
0.0
 10
-10.69939
 20
-14.52967
 30
0.0
 10
-10.69939
 20
-14.5126
 30
0.0
 10
-10.69572
 20
-14.49942
 30
0.0
 10
-10.68836
 20
-14.49016
 30
0.0
 10
-10.68836
 20
-14.49016
 30
0.0
 10
-10.68102
 20
-14.48092
 30
0.0
 10
-10.67056
 20
-14.47628
 30
0.0
 10
-10.65701
 20
-14.47628
 30
0.0
 10
-10.65701
 20
-14.47628
 30
0.0
 10
-10.64351
 20
-14.47628
 30
0.0
 10
-10.63307
 20
-14.48092
 30
0.0
 10
-10.62573
 20
-14.49016
 30
0.0
 10
-10.62573
 20
-14.49016
 30
0.0
 10
-10.61837
 20
-14.49942
 30
0.0
 10
-10.6147
 20
-14.5126
 30
0.0
 10
-10.6147
 20
-14.52967
 30
0.0
  0
SPLINE
  5
6D
330
1F
100
AcDbEntity
  8
Layer 1
 62
   250
100
AcDbSpline
210
0.0
220
0.0
230
1.0
 70
    11
 71
     3
 72
   120
 73
   116
 74
     0
 42
0.0000000001
 43
0.0000000001
 40
0.0
 40
0.0
 40
0.0
 40
0.0
 40
0.0344827586206897
 40
0.0344827586206897
 40
0.0344827586206897
 40
0.0344827586206897
 40
0.0689655172413793
 40
0.0689655172413793
 40
0.0689655172413793
 40
0.0689655172413793
 40
0.103448275862069
 40
0.103448275862069
 40
0.103448275862069
 40
0.103448275862069
 40
0.1379310344827586
 40
0.1379310344827586
 40
0.1379310344827586
 40
0.1379310344827586
 40
0.1724137931034483
 40
0.1724137931034483
 40
0.1724137931034483
 40
0.1724137931034483
 40
0.206896551724138
 40
0.206896551724138
 40
0.206896551724138
 40
0.206896551724138
 40
0.2413793103448276
 40
0.2413793103448276
 40
0.2413793103448276
 40
0.2413793103448276
 40
0.2758620689655173
 40
0.2758620689655173
 40
0.2758620689655173
 40
0.2758620689655173
 40
0.310344827586207
 40
0.310344827586207
 40
0.310344827586207
 40
0.310344827586207
 40
0.3448275862068966
 40
0.3448275862068966
 40
0.3448275862068966
 40
0.3448275862068966
 40
0.3793103448275863
 40
0.3793103448275863
 40
0.3793103448275863
 40
0.3793103448275863
 40
0.413793103448276
 40
0.413793103448276
 40
0.413793103448276
 40
0.413793103448276
 40
0.4482758620689656
 40
0.4482758620689656
 40
0.4482758620689656
 40
0.4482758620689656
 40
0.4827586206896553
 40
0.4827586206896553
 40
0.4827586206896553
 40
0.4827586206896553
 40
0.517241379310345
 40
0.517241379310345
 40
0.517241379310345
 40
0.517241379310345
 40
0.5517241379310346
 40
0.5517241379310346
 40
0.5517241379310346
 40
0.5517241379310346
 40
0.5862068965517242
 40
0.5862068965517242
 40
0.5862068965517242
 40
0.5862068965517242
 40
0.6206896551724138
 40
0.6206896551724138
 40
0.6206896551724138
 40
0.6206896551724138
 40
0.6551724137931034
 40
0.6551724137931034
 40
0.6551724137931034
 40
0.6551724137931034
 40
0.689655172413793
 40
0.689655172413793
 40
0.689655172413793
 40
0.689655172413793
 40
0.7241379310344827
 40
0.7241379310344827
 40
0.7241379310344827
 40
0.7241379310344827
 40
0.7586206896551723
 40
0.7586206896551723
 40
0.7586206896551723
 40
0.7586206896551723
 40
0.7931034482758619
 40
0.7931034482758619
 40
0.7931034482758619
 40
0.7931034482758619
 40
0.8275862068965515
 40
0.8275862068965515
 40
0.8275862068965515
 40
0.8275862068965515
 40
0.8620689655172411
 40
0.8620689655172411
 40
0.8620689655172411
 40
0.8620689655172411
 40
0.8965517241379307
 40
0.8965517241379307
 40
0.8965517241379307
 40
0.8965517241379307
 40
0.9310344827586203
 40
0.9310344827586203
 40
0.9310344827586203
 40
0.9310344827586203
 40
0.9655172413793099
 40
0.9655172413793099
 40
0.9655172413793099
 40
0.9655172413793099
 40
1.0
 40
1.0
 40
1.0
 40
1.0
 10
-10.54222
 20
-14.52553
 30
0.0
 10
-10.5353
 20
-14.52732
 30
0.0
 10
-10.53001
 20
-14.53045
 30
0.0
 10
-10.52641
 20
-14.53487
 30
0.0
 10
-10.52641
 20
-14.53487
 30
0.0
 10
-10.52281
 20
-14.53931
 30
0.0
 10
-10.521
 20
-14.54493
 30
0.0
 10
-10.521
 20
-14.55178
 30
0.0
 10
-10.521
 20
-14.55178
 30
0.0
 10
-10.521
 20
-14.56198
 30
0.0
 10
-10.52491
 20
-14.56974
 30
0.0
 10
-10.53271
 20
-14.57506
 30
0.0
 10
-10.53271
 20
-14.57506
 30
0.0
 10
-10.54052
 20
-14.58035
 30
0.0
 10
-10.55191
 20
-14.58301
 30
0.0
 10
-10.56689
 20
-14.58301
 30
0.0
 10
-10.56689
 20
-14.58301
 30
0.0
 10
-10.57218
 20
-14.58301
 30
0.0
 10
-10.57747
 20
-14.58259
 30
0.0
 10
-10.58279
 20
-14.58174
 30
0.0
 10
-10.58279
 20
-14.58174
 30
0.0
 10
-10.58808
 20
-14.58089
 30
0.0
 10
-10.59332
 20
-14.5796
 30
0.0
 10
-10.59852
 20
-14.57791
 30
0.0
 10
-10.59852
 20
-14.57791
 30
0.0
 10
-10.59852
 20
-14.57791
 30
0.0
 10
-10.59852
 20
-14.55744
 30
0.0
 10
-10.59852
 20
-14.55744
 30
0.0
 10
-10.59852
 20
-14.55744
 30
0.0
 10
-10.59356
 20
-14.55991
 30
0.0
 10
-10.58864
 20
-14.5618
 30
0.0
 10
-10.58375
 20
-14.56307
 30
0.0
 10
-10.58375
 20
-14.56307
 30
0.0
 10
-10.57886
 20
-14.56431
 30
0.0
 10
-10.57404
 20
-14.56495
 30
0.0
 10
-10.56931
 20
-14.56495
 30
0.0
 10
-10.56931
 20
-14.56495
 30
0.0
 10
-10.56228
 20
-14.56495
 30
0.0
 10
-10.55689
 20
-14.56372
 30
0.0
 10
-10.55315
 20
-14.5613
 30
0.0
 10
-10.55315
 20
-14.5613
 30
0.0
 10
-10.54941
 20
-14.55886
 30
0.0
 10
-10.54753
 20
-14.55538
 30
0.0
 10
-10.54753
 20
-14.55081
 30
0.0
 10
-10.54753
 20
-14.55081
 30
0.0
 10
-10.54753
 20
-14.54613
 30
0.0
 10
-10.54946
 20
-14.54258
 30
0.0
 10
-10.55329
 20
-14.54018
 30
0.0
 10
-10.55329
 20
-14.54018
 30
0.0
 10
-10.55713
 20
-14.53776
 30
0.0
 10
-10.56279
 20
-14.53656
 30
0.0
 10
-10.57027
 20
-14.53656
 30
0.0
 10
-10.57027
 20
-14.53656
 30
0.0
 10
-10.57027
 20
-14.53656
 30
0.0
 10
-10.58088
 20
-14.53656
 30
0.0
 10
-10.58088
 20
-14.53656
 30
0.0
 10
-10.58088
 20
-14.53656
 30
0.0
 10
-10.58088
 20
-14.53656
 30
0.0
 10
-10.58088
 20
-14.51946
 30
0.0
 10
-10.58088
 20
-14.51946
 30
0.0
 10
-10.58088
 20
-14.51946
 30
0.0
 10
-10.58088
 20
-14.51946
 30
0.0
 10
-10.56973
 20
-14.51946
 30
0.0
 10
-10.56973
 20
-14.51946
 30
0.0
 10
-10.56973
 20
-14.51946
 30
0.0
 10
-10.56305
 20
-14.51946
 30
0.0
 10
-10.55811
 20
-14.51843
 30
0.0
 10
-10.55485
 20
-14.51633
 30
0.0
 10
-10.55485
 20
-14.51633
 30
0.0
 10
-10.55158
 20
-14.51424
 30
0.0
 10
-10.54995
 20
-14.51107
 30
0.0
 10
-10.54995
 20
-14.50681
 30
0.0
 10
-10.54995
 20
-14.50681
 30
0.0
 10
-10.54995
 20
-14.50286
 30
0.0
 10
-10.55153
 20
-14.4998
 30
0.0
 10
-10.5547
 20
-14.49766
 30
0.0
 10
-10.5547
 20
-14.49766
 30
0.0
 10
-10.55788
 20
-14.4955
 30
0.0
 10
-10.56235
 20
-14.49442
 30
0.0
 10
-10.56813
 20
-14.49442
 30
0.0
 10
-10.56813
 20
-14.49442
 30
0.0
 10
-10.57241
 20
-14.49442
 30
0.0
 10
-10.57672
 20
-14.49489
 30
0.0
 10
-10.58109
 20
-14.49585
 30
0.0
 10
-10.58109
 20
-14.49585
 30
0.0
 10
-10.58544
 20
-14.49681
 30
0.0
 10
-10.58977
 20
-14.49825
 30
0.0
 10
-10.5941
 20
-14.50013
 30
0.0
 10
-10.5941
 20
-14.50013
 30
0.0
 10
-10.5941
 20
-14.50013
 30
0.0
 10
-10.5941
 20
-14.4807
 30
0.0
 10
-10.5941
 20
-14.4807
 30
0.0
 10
-10.5941
 20
-14.4807
 30
0.0
 10
-10.58885
 20
-14.47922
 30
0.0
 10
-10.58368
 20
-14.47812
 30
0.0
 10
-10.57853
 20
-14.47739
 30
0.0
 10
-10.57853
 20
-14.47739
 30
0.0
 10
-10.57338
 20
-14.47666
 30
0.0
 10
-10.56835
 20
-14.47628
 30
0.0
 10
-10.56338
 20
-14.47628
 30
0.0
 10
-10.56338
 20
-14.47628
 30
0.0
 10
-10.55002
 20
-14.47628
 30
0.0
 10
-10.54001
 20
-14.47847
 30
0.0
 10
-10.53337
 20
-14.48287
 30
0.0
 10
-10.53337
 20
-14.48287
 30
0.0
 10
-10.52674
 20
-14.48724
 30
0.0
 10
-10.52343
 20
-14.49385
 30
0.0
 10
-10.52343
 20
-14.50267
 30
0.0
 10
-10.52343
 20
-14.50267
 30
0.0
 10
-10.52343
 20
-14.50867
 30
0.0
 10
-10.525
 20
-14.51361
 30
0.0
 10
-10.52818
 20
-14.51744
 30
0.0
 10
-10.52818
 20
-14.51744
 30
0.0
 10
-10.53135
 20
-14.52127
 30
0.0
 10
-10.53603
 20
-14.52398
 30
0.0
 10
-10.54222
 20
-14.52553
 30
0.0
  0
SPLINE
  5
6E
330
1F
100
AcDbEntity
  8
Layer 1
 62
   250
100
AcDbSpline
210
0.0
220
0.0
230
1.0
 70
    11
 71
     3
 72
    44
 73
    40
 74
     0
 42
0.0000000001
 43
0.0000000001
 40
0.0
 40
0.0
 40
0.0
 40
0.0
 40
0.1
 40
0.1
 40
0.1
 40
0.1
 40
0.2
 40
0.2
 40
0.2
 40
0.2
 40
0.3
 40
0.3
 40
0.3
 40
0.3
 40
0.4
 40
0.4
 40
0.4
 40
0.4
 40
0.5
 40
0.5
 40
0.5
 40
0.5
 40
0.6
 40
0.6
 40
0.6
 40
0.6
 40
0.7
 40
0.7
 40
0.7
 40
0.7
 40
0.7999999999999999
 40
0.7999999999999999
 40
0.7999999999999999
 40
0.7999999999999999
 40
0.8999999999999999
 40
0.8999999999999999
 40
0.8999999999999999
 40
0.8999999999999999
 40
1.0
 40
1.0
 40
1.0
 40
1.0
 10
-10.49847
 20
-14.59961
 30
0.0
 10
-10.49259
 20
-14.58868
 30
0.0
 10
-10.48817
 20
-14.578
 30
0.0
 10
-10.48523
 20
-14.56758
 30
0.0
 10
-10.48523
 20
-14.56758
 30
0.0
 10
-10.48229
 20
-14.55714
 30
0.0
 10
-10.48083
 20
-14.54686
 30
0.0
 10
-10.48083
 20
-14.5367
 30
0.0
 10
-10.48083
 20
-14.5367
 30
0.0
 10
-10.48083
 20
-14.52654
 30
0.0
 10
-10.48229
 20
-14.51626
 30
0.0
 10
-10.48523
 20
-14.50587
 30
0.0
 10
-10.48523
 20
-14.50587
 30
0.0
 10
-10.48817
 20
-14.49547
 30
0.0
 10
-10.49259
 20
-14.48482
 30
0.0
 10
-10.49847
 20
-14.47393
 30
0.0
 10
-10.49847
 20
-14.47393
 30
0.0
 10
-10.49847
 20
-14.47393
 30
0.0
 10
-10.47801
 20
-14.47393
 30
0.0
 10
-10.47801
 20
-14.47393
 30
0.0
 10
-10.47801
 20
-14.47393
 30
0.0
 10
-10.47103
 20
-14.4852
 30
0.0
 10
-10.46585
 20
-14.49597
 30
0.0
 10
-10.46246
 20
-14.50629
 30
0.0
 10
-10.46246
 20
-14.50629
 30
0.0
 10
-10.4591
 20
-14.51659
 30
0.0
 10
-10.45741
 20
-14.52678
 30
0.0
 10
-10.45741
 20
-14.53684
 30
0.0
 10
-10.45741
 20
-14.53684
 30
0.0
 10
-10.45741
 20
-14.54691
 30
0.0
 10
-10.45908
 20
-14.55704
 30
0.0
 10
-10.46244
 20
-14.56725
 30
0.0
 10
-10.46244
 20
-14.56725
 30
0.0
 10
-10.46578
 20
-14.57748
 30
0.0
 10
-10.47098
 20
-14.58828
 30
0.0
 10
-10.47801
 20
-14.59961
 30
0.0
 10
-10.47801
 20
-14.59961
 30
0.0
 10
-10.47801
 20
-14.59961
 30
0.0
 10
-10.49847
 20
-14.59961
 30
0.0
 10
-10.49847
 20
-14.59961
 30
0.0
  0
SPLINE
  5
6F
330
1F
100
AcDbEntity
  8
Layer 1
 62
   250
100
AcDbSpline
210
0.0
220
0.0
230
1.0
 70
    11
 71
     3
 72
    92
 73
    88
 74
     0
 42
0.0000000001
 43
0.0000000001
 40
0.0
 40
0.0
 40
0.0
 40
0.0
 40
0.0454545454545455
 40
0.0454545454545455
 40
0.0454545454545455
 40
0.0454545454545455
 40
0.0909090909090909
 40
0.0909090909090909
 40
0.0909090909090909
 40
0.0909090909090909
 40
0.1363636363636364
 40
0.1363636363636364
 40
0.1363636363636364
 40
0.1363636363636364
 40
0.1818181818181818
 40
0.1818181818181818
 40
0.1818181818181818
 40
0.1818181818181818
 40
0.2272727272727273
 40
0.2272727272727273
 40
0.2272727272727273
 40
0.2272727272727273
 40
0.2727272727272728
 40
0.2727272727272728
 40
0.2727272727272728
 40
0.2727272727272728
 40
0.3181818181818182
 40
0.3181818181818182
 40
0.3181818181818182
 40
0.3181818181818182
 40
0.3636363636363637
 40
0.3636363636363637
 40
0.3636363636363637
 40
0.3636363636363637
 40
0.4090909090909092
 40
0.4090909090909092
 40
0.4090909090909092
 40
0.4090909090909092
 40
0.4545454545454546
 40
0.4545454545454546
 40
0.4545454545454546
 40
0.4545454545454546
 40
0.5000000000000001
 40
0.5000000000000001
 40
0.5000000000000001
 40
0.5000000000000001
 40
0.5454545454545455
 40
0.5454545454545455
 40
0.5454545454545455
 40
0.5454545454545455
 40
0.5909090909090909
 40
0.5909090909090909
 40
0.5909090909090909
 40
0.5909090909090909
 40
0.6363636363636364
 40
0.6363636363636364
 40
0.6363636363636364
 40
0.6363636363636364
 40
0.6818181818181818
 40
0.6818181818181818
 40
0.6818181818181818
 40
0.6818181818181818
 40
0.7272727272727272
 40
0.7272727272727272
 40
0.7272727272727272
 40
0.7272727272727272
 40
0.7727272727272726
 40
0.7727272727272726
 40
0.7727272727272726
 40
0.7727272727272726
 40
0.818181818181818
 40
0.818181818181818
 40
0.818181818181818
 40
0.818181818181818
 40
0.8636363636363634
 40
0.8636363636363634
 40
0.8636363636363634
 40
0.8636363636363634
 40
0.9090909090909088
 40
0.9090909090909088
 40
0.9090909090909088
 40
0.9090909090909088
 40
0.9545454545454543
 40
0.9545454545454543
 40
0.9545454545454543
 40
0.9545454545454543
 40
1.0
 40
1.0
 40
1.0
 40
1.0
 10
-10.38118
 20
-14.47814
 30
0.0
 10
-10.38118
 20
-14.47814
 30
0.0
 10
-10.31524
 20
-14.47814
 30
0.0
 10
-10.31524
 20
-14.47814
 30
0.0
 10
-10.31524
 20
-14.47814
 30
0.0
 10
-10.31524
 20
-14.47814
 30
0.0
 10
-10.31524
 20
-14.49764
 30
0.0
 10
-10.31524
 20
-14.49764
 30
0.0
 10
-10.31524
 20
-14.49764
 30
0.0
 10
-10.31524
 20
-14.49764
 30
0.0
 10
-10.36004
 20
-14.49764
 30
0.0
 10
-10.36004
 20
-14.49764
 30
0.0
 10
-10.36004
 20
-14.49764
 30
0.0
 10
-10.36004
 20
-14.49764
 30
0.0
 10
-10.36004
 20
-14.51356
 30
0.0
 10
-10.36004
 20
-14.51356
 30
0.0
 10
-10.36004
 20
-14.51356
 30
0.0
 10
-10.35802
 20
-14.51302
 30
0.0
 10
-10.35599
 20
-14.5126
 30
0.0
 10
-10.35395
 20
-14.51229
 30
0.0
 10
-10.35395
 20
-14.51229
 30
0.0
 10
-10.3519
 20
-14.51198
 30
0.0
 10
-10.34976
 20
-14.51184
 30
0.0
 10
-10.34757
 20
-14.51184
 30
0.0
 10
-10.34757
 20
-14.51184
 30
0.0
 10
-10.33502
 20
-14.51184
 30
0.0
 10
-10.32526
 20
-14.51497
 30
0.0
 10
-10.31827
 20
-14.52125
 30
0.0
 10
-10.31827
 20
-14.52125
 30
0.0
 10
-10.31129
 20
-14.52751
 30
0.0
 10
-10.30781
 20
-14.53625
 30
0.0
 10
-10.30781
 20
-14.54745
 30
0.0
 10
-10.30781
 20
-14.54745
 30
0.0
 10
-10.30781
 20
-14.55857
 30
0.0
 10
-10.31162
 20
-14.56728
 30
0.0
 10
-10.31921
 20
-14.57358
 30
0.0
 10
-10.31921
 20
-14.57358
 30
0.0
 10
-10.32681
 20
-14.57986
 30
0.0
 10
-10.33737
 20
-14.58301
 30
0.0
 10
-10.35087
 20
-14.58301
 30
0.0
 10
-10.35087
 20
-14.58301
 30
0.0
 10
-10.3567
 20
-14.58301
 30
0.0
 10
-10.36249
 20
-14.58244
 30
0.0
 10
-10.3682
 20
-14.58132
 30
0.0
 10
-10.3682
 20
-14.58132
 30
0.0
 10
-10.37392
 20
-14.58019
 30
0.0
 10
-10.37961
 20
-14.57849
 30
0.0
 10
-10.38525
 20
-14.57619
 30
0.0
 10
-10.38525
 20
-14.57619
 30
0.0
 10
-10.38525
 20
-14.57619
 30
0.0
 10
-10.38525
 20
-14.5553
 30
0.0
 10
-10.38525
 20
-14.5553
 30
0.0
 10
-10.38525
 20
-14.5553
 30
0.0
 10
-10.37965
 20
-14.55853
 30
0.0
 10
-10.37434
 20
-14.56093
 30
0.0
 10
-10.36931
 20
-14.56252
 30
0.0
 10
-10.36931
 20
-14.56252
 30
0.0
 10
-10.36427
 20
-14.56415
 30
0.0
 10
-10.35952
 20
-14.56495
 30
0.0
 10
-10.35508
 20
-14.56495
 30
0.0
 10
-10.35508
 20
-14.56495
 30
0.0
 10
-10.34863
 20
-14.56495
 30
0.0
 10
-10.34358
 20
-14.56337
 30
0.0
 10
-10.33988
 20
-14.56022
 30
0.0
 10
-10.33988
 20
-14.56022
 30
0.0
 10
-10.33619
 20
-14.55709
 30
0.0
 10
-10.33433
 20
-14.55284
 30
0.0
 10
-10.33433
 20
-14.54745
 30
0.0
 10
-10.33433
 20
-14.54745
 30
0.0
 10
-10.33433
 20
-14.54204
 30
0.0
 10
-10.33619
 20
-14.53778
 30
0.0
 10
-10.33988
 20
-14.53466
 30
0.0
 10
-10.33988
 20
-14.53466
 30
0.0
 10
-10.34358
 20
-14.53153
 30
0.0
 10
-10.34863
 20
-14.52998
 30
0.0
 10
-10.35508
 20
-14.52998
 30
0.0
 10
-10.35508
 20
-14.52998
 30
0.0
 10
-10.35889
 20
-14.52998
 30
0.0
 10
-10.36296
 20
-14.53047
 30
0.0
 10
-10.36726
 20
-14.53146
 30
0.0
 10
-10.36726
 20
-14.53146
 30
0.0
 10
-10.37159
 20
-14.53244
 30
0.0
 10
-10.37622
 20
-14.53397
 30
0.0
 10
-10.38118
 20
-14.53604
 30
0.0
 10
-10.38118
 20
-14.53604
 30
0.0
 10
-10.38118
 20
-14.53604
 30
0.0
 10
-10.38118
 20
-14.47814
 30
0.0
 10
-10.38118
 20
-14.47814
 30
0.0
  0
SPLINE
  5
70
330
1F
100
AcDbEntity
  8
Layer 1
 62
   250
100
AcDbSpline
210
0.0
220
0.0
230
1.0
 70
    11
 71
     3
 72
    20
 73
    16
 74
     0
 42
0.0000000001
 43
0.0000000001
 40
0.0
 40
0.0
 40
0.0
 40
0.0
 40
0.25
 40
0.25
 40
0.25
 40
0.25
 40
0.5
 40
0.5
 40
0.5
 40
0.5
 40
0.75
 40
0.75
 40
0.75
 40
0.75
 40
1.0
 40
1.0
 40
1.0
 40
1.0
 10
-10.28356
 20
-14.55434
 30
0.0
 10
-10.28356
 20
-14.55434
 30
0.0
 10
-10.25874
 20
-14.55434
 30
0.0
 10
-10.25874
 20
-14.55434
 30
0.0
 10
-10.25874
 20
-14.55434
 30
0.0
 10
-10.25874
 20
-14.55434
 30
0.0
 10
-10.25874
 20
-14.58101
 30
0.0
 10
-10.25874
 20
-14.58101
 30
0.0
 10
-10.25874
 20
-14.58101
 30
0.0
 10
-10.25874
 20
-14.58101
 30
0.0
 10
-10.28356
 20
-14.58101
 30
0.0
 10
-10.28356
 20
-14.58101
 30
0.0
 10
-10.28356
 20
-14.58101
 30
0.0
 10
-10.28356
 20
-14.58101
 30
0.0
 10
-10.28356
 20
-14.55434
 30
0.0
 10
-10.28356
 20
-14.55434
 30
0.0
  0
SPLINE
  5
71
330
1F
100
AcDbEntity
  8
Layer 1
 62
   250
100
AcDbSpline
210
0.0
220
0.0
230
1.0
 70
    11
 71
     3
 72
    36
 73
    32
 74
     0
 42
0.0000000001
 43
0.0000000001
 40
0.0
 40
0.0
 40
0.0
 40
0.0
 40
0.125
 40
0.125
 40
0.125
 40
0.125
 40
0.25
 40
0.25
 40
0.25
 40
0.25
 40
0.375
 40
0.375
 40
0.375
 40
0.375
 40
0.5
 40
0.5
 40
0.5
 40
0.5
 40
0.625
 40
0.625
 40
0.625
 40
0.625
 40
0.75
 40
0.75
 40
0.75
 40
0.75
 40
0.875
 40
0.875
 40
0.875
 40
0.875
 40
1.0
 40
1.0
 40
1.0
 40
1.0
 10
-10.19329
 20
-14.53023
 30
0.0
 10
-10.19795
 20
-14.53023
 30
0.0
 10
-10.20143
 20
-14.53174
 30
0.0
 10
-10.20373
 20
-14.53475
 30
0.0
 10
-10.20373
 20
-14.53475
 30
0.0
 10
-10.20606
 20
-14.53776
 30
0.0
 10
-10.20721
 20
-14.54228
 30
0.0
 10
-10.20721
 20
-14.54827
 30
0.0
 10
-10.20721
 20
-14.54827
 30
0.0
 10
-10.20721
 20
-14.55429
 30
0.0
 10
-10.20606
 20
-14.55881
 30
0.0
 10
-10.20373
 20
-14.56182
 30
0.0
 10
-10.20373
 20
-14.56182
 30
0.0
 10
-10.20143
 20
-14.56483
 30
0.0
 10
-10.19795
 20
-14.56633
 30
0.0
 10
-10.19329
 20
-14.56633
 30
0.0
 10
-10.19329
 20
-14.56633
 30
0.0
 10
-10.18861
 20
-14.56633
 30
0.0
 10
-10.18511
 20
-14.56483
 30
0.0
 10
-10.1828
 20
-14.56182
 30
0.0
 10
-10.1828
 20
-14.56182
 30
0.0
 10
-10.18047
 20
-14.55881
 30
0.0
 10
-10.17932
 20
-14.55429
 30
0.0
 10
-10.17932
 20
-14.54827
 30
0.0
 10
-10.17932
 20
-14.54827
 30
0.0
 10
-10.17932
 20
-14.54228
 30
0.0
 10
-10.18047
 20
-14.53776
 30
0.0
 10
-10.1828
 20
-14.53475
 30
0.0
 10
-10.1828
 20
-14.53475
 30
0.0
 10
-10.18511
 20
-14.53174
 30
0.0
 10
-10.18861
 20
-14.53023
 30
0.0
 10
-10.19329
 20
-14.53023
 30
0.0
  0
SPLINE
  5
72
330
1F
100
AcDbEntity
  8
Layer 1
 62
   250
100
AcDbSpline
210
0.0
220
0.0
230
1.0
 70
    11
 71
     3
 72
    72
 73
    68
 74
     0
 42
0.0000000001
 43
0.0000000001
 40
0.0
 40
0.0
 40
0.0
 40
0.0
 40
0.0588235294117647
 40
0.0588235294117647
 40
0.0588235294117647
 40
0.0588235294117647
 40
0.1176470588235294
 40
0.1176470588235294
 40
0.1176470588235294
 40
0.1176470588235294
 40
0.1764705882352941
 40
0.1764705882352941
 40
0.1764705882352941
 40
0.1764705882352941
 40
0.2352941176470588
 40
0.2352941176470588
 40
0.2352941176470588
 40
0.2352941176470588
 40
0.2941176470588235
 40
0.2941176470588235
 40
0.2941176470588235
 40
0.2941176470588235
 40
0.3529411764705883
 40
0.3529411764705883
 40
0.3529411764705883
 40
0.3529411764705883
 40
0.411764705882353
 40
0.411764705882353
 40
0.411764705882353
 40
0.411764705882353
 40
0.4705882352941177
 40
0.4705882352941177
 40
0.4705882352941177
 40
0.4705882352941177
 40
0.5294117647058824
 40
0.5294117647058824
 40
0.5294117647058824
 40
0.5294117647058824
 40
0.5882352941176471
 40
0.5882352941176471
 40
0.5882352941176471
 40
0.5882352941176471
 40
0.6470588235294118
 40
0.6470588235294118
 40
0.6470588235294118
 40
0.6470588235294118
 40
0.7058823529411765
 40
0.7058823529411765
 40
0.7058823529411765
 40
0.7058823529411765
 40
0.7647058823529412
 40
0.7647058823529412
 40
0.7647058823529412
 40
0.7647058823529412
 40
0.823529411764706
 40
0.823529411764706
 40
0.823529411764706
 40
0.823529411764706
 40
0.8823529411764707
 40
0.8823529411764707
 40
0.8823529411764707
 40
0.8823529411764707
 40
0.9411764705882354
 40
0.9411764705882354
 40
0.9411764705882354
 40
0.9411764705882354
 40
1.0
 40
1.0
 40
1.0
 40
1.0
 10
-10.16051
 20
-14.48082
 30
0.0
 10
-10.16051
 20
-14.48082
 30
0.0
 10
-10.16051
 20
-14.49985
 30
0.0
 10
-10.16051
 20
-14.49985
 30
0.0
 10
-10.16051
 20
-14.49985
 30
0.0
 10
-10.16488
 20
-14.49778
 30
0.0
 10
-10.16897
 20
-14.49625
 30
0.0
 10
-10.17283
 20
-14.49526
 30
0.0
 10
-10.17283
 20
-14.49526
 30
0.0
 10
-10.17669
 20
-14.49427
 30
0.0
 10
-10.18047
 20
-14.49378
 30
0.0
 10
-10.18414
 20
-14.49378
 30
0.0
 10
-10.18414
 20
-14.49378
 30
0.0
 10
-10.19205
 20
-14.49378
 30
0.0
 10
-10.19818
 20
-14.49597
 30
0.0
 10
-10.2026
 20
-14.50037
 30
0.0
 10
-10.2026
 20
-14.50037
 30
0.0
 10
-10.207
 20
-14.50474
 30
0.0
 10
-10.20959
 20
-14.51125
 30
0.0
 10
-10.21032
 20
-14.51989
 30
0.0
 10
-10.21032
 20
-14.51989
 30
0.0
 10
-10.20729
 20
-14.51765
 30
0.0
 10
-10.20399
 20
-14.51596
 30
0.0
 10
-10.20046
 20
-14.51483
 30
0.0
 10
-10.20046
 20
-14.51483
 30
0.0
 10
-10.19694
 20
-14.5137
 30
0.0
 10
-10.19308
 20
-14.51314
 30
0.0
 10
-10.18889
 20
-14.51314
 30
0.0
 10
-10.18889
 20
-14.51314
 30
0.0
 10
-10.17838
 20
-14.51314
 30
0.0
 10
-10.16989
 20
-14.51622
 30
0.0
 10
-10.16345
 20
-14.52238
 30
0.0
 10
-10.16345
 20
-14.52238
 30
0.0
 10
-10.15698
 20
-14.52852
 30
0.0
 10
-10.15376
 20
-14.53658
 30
0.0
 10
-10.15376
 20
-14.54656
 30
0.0
 10
-10.15376
 20
-14.54656
 30
0.0
 10
-10.15376
 20
-14.55759
 30
0.0
 10
-10.15736
 20
-14.56641
 30
0.0
 10
-10.16458
 20
-14.57306
 30
0.0
 10
-10.16458
 20
-14.57306
 30
0.0
 10
-10.17177
 20
-14.57969
 30
0.0
 10
-10.18146
 20
-14.58301
 30
0.0
 10
-10.19357
 20
-14.58301
 30
0.0
 10
-10.19357
 20
-14.58301
 30
0.0
 10
-10.20693
 20
-14.58301
 30
0.0
 10
-10.21728
 20
-14.57849
 30
0.0
 10
-10.22462
 20
-14.56946
 30
0.0
 10
-10.22462
 20
-14.56946
 30
0.0
 10
-10.23193
 20
-14.56045
 30
0.0
 10
-10.2356
 20
-14.54764
 30
0.0
 10
-10.2356
 20
-14.53106
 30
0.0
 10
-10.2356
 20
-14.53106
 30
0.0
 10
-10.2356
 20
-14.51408
 30
0.0
 10
-10.23132
 20
-14.50072
 30
0.0
 10
-10.22276
 20
-14.49101
 30
0.0
 10
-10.22276
 20
-14.49101
 30
0.0
 10
-10.21418
 20
-14.48129
 30
0.0
 10
-10.20244
 20
-14.47642
 30
0.0
 10
-10.18751
 20
-14.47642
 30
0.0
 10
-10.18751
 20
-14.47642
 30
0.0
 10
-10.18278
 20
-14.47642
 30
0.0
 10
-10.17819
 20
-14.4768
 30
0.0
 10
-10.17372
 20
-14.47753
 30
0.0
 10
-10.17372
 20
-14.47753
 30
0.0
 10
-10.16928
 20
-14.47826
 30
0.0
 10
-10.16488
 20
-14.47936
 30
0.0
 10
-10.16051
 20
-14.48082
 30
0.0
  0
SPLINE
  5
73
330
1F
100
AcDbEntity
  8
Layer 1
 62
   250
100
AcDbSpline
210
0.0
220
0.0
230
1.0
 70
    11
 71
     3
 72
    48
 73
    44
 74
     0
 42
0.0000000001
 43
0.0000000001
 40
0.0
 40
0.0
 40
0.0
 40
0.0
 40
0.0909090909090909
 40
0.0909090909090909
 40
0.0909090909090909
 40
0.0909090909090909
 40
0.1818181818181818
 40
0.1818181818181818
 40
0.1818181818181818
 40
0.1818181818181818
 40
0.2727272727272727
 40
0.2727272727272727
 40
0.2727272727272727
 40
0.2727272727272727
 40
0.3636363636363636
 40
0.3636363636363636
 40
0.3636363636363636
 40
0.3636363636363636
 40
0.4545454545454546
 40
0.4545454545454546
 40
0.4545454545454546
 40
0.4545454545454546
 40
0.5454545454545455
 40
0.5454545454545455
 40
0.5454545454545455
 40
0.5454545454545455
 40
0.6363636363636365
 40
0.6363636363636365
 40
0.6363636363636365
 40
0.6363636363636365
 40
0.7272727272727274
 40
0.7272727272727274
 40
0.7272727272727274
 40
0.7272727272727274
 40
0.8181818181818183
 40
0.8181818181818183
 40
0.8181818181818183
 40
0.8181818181818183
 40
0.9090909090909093
 40
0.9090909090909093
 40
0.9090909090909093
 40
0.9090909090909093
 40
1.0
 40
1.0
 40
1.0
 40
1.0
 10
-10.13431
 20
-14.47379
 30
0.0
 10
-10.13431
 20
-14.47379
 30
0.0
 10
-10.10964
 20
-14.47379
 30
0.0
 10
-10.10964
 20
-14.47379
 30
0.0
 10
-10.10964
 20
-14.47379
 30
0.0
 10
-10.10964
 20
-14.47379
 30
0.0
 10
-10.10964
 20
-14.53216
 30
0.0
 10
-10.10964
 20
-14.53216
 30
0.0
 10
-10.10964
 20
-14.53216
 30
0.0
 10
-10.10964
 20
-14.53216
 30
0.0
 10
-10.08125
 20
-14.50385
 30
0.0
 10
-10.08125
 20
-14.50385
 30
0.0
 10
-10.08125
 20
-14.50385
 30
0.0
 10
-10.08125
 20
-14.50385
 30
0.0
 10
-10.05258
 20
-14.50385
 30
0.0
 10
-10.05258
 20
-14.50385
 30
0.0
 10
-10.05258
 20
-14.50385
 30
0.0
 10
-10.05258
 20
-14.50385
 30
0.0
 10
-10.09028
 20
-14.53926
 30
0.0
 10
-10.09028
 20
-14.53926
 30
0.0
 10
-10.09028
 20
-14.53926
 30
0.0
 10
-10.09028
 20
-14.53926
 30
0.0
 10
-10.04962
 20
-14.58101
 30
0.0
 10
-10.04962
 20
-14.58101
 30
0.0
 10
-10.04962
 20
-14.58101
 30
0.0
 10
-10.04962
 20
-14.58101
 30
0.0
 10
-10.07953
 20
-14.58101
 30
0.0
 10
-10.07953
 20
-14.58101
 30
0.0
 10
-10.07953
 20
-14.58101
 30
0.0
 10
-10.07953
 20
-14.58101
 30
0.0
 10
-10.10964
 20
-14.54884
 30
0.0
 10
-10.10964
 20
-14.54884
 30
0.0
 10
-10.10964
 20
-14.54884
 30
0.0
 10
-10.10964
 20
-14.54884
 30
0.0
 10
-10.10964
 20
-14.58101
 30
0.0
 10
-10.10964
 20
-14.58101
 30
0.0
 10
-10.10964
 20
-14.58101
 30
0.0
 10
-10.10964
 20
-14.58101
 30
0.0
 10
-10.13431
 20
-14.58101
 30
0.0
 10
-10.13431
 20
-14.58101
 30
0.0
 10
-10.13431
 20
-14.58101
 30
0.0
 10
-10.13431
 20
-14.58101
 30
0.0
 10
-10.13431
 20
-14.47379
 30
0.0
 10
-10.13431
 20
-14.47379
 30
0.0
  0
SPLINE
  5
74
330
1F
100
AcDbEntity
  8
Layer 1
 62
   250
100
AcDbSpline
210
0.0
220
0.0
230
1.0
 70
    11
 71
     3
 72
    36
 73
    32
 74
     0
 42
0.0000000001
 43
0.0000000001
 40
0.0
 40
0.0
 40
0.0
 40
0.0
 40
0.125
 40
0.125
 40
0.125
 40
0.125
 40
0.25
 40
0.25
 40
0.25
 40
0.25
 40
0.375
 40
0.375
 40
0.375
 40
0.375
 40
0.5
 40
0.5
 40
0.5
 40
0.5
 40
0.625
 40
0.625
 40
0.625
 40
0.625
 40
0.75
 40
0.75
 40
0.75
 40
0.75
 40
0.875
 40
0.875
 40
0.875
 40
0.875
 40
1.0
 40
1.0
 40
1.0
 40
1.0
 10
-9.94324
 20
-14.4955
 30
0.0
 10
-9.95133
 20
-14.4955
 30
0.0
 10
-9.95759
 20
-14.49848
 30
0.0
 10
-9.96206
 20
-14.50446
 30
0.0
 10
-9.96206
 20
-14.50446
 30
0.0
 10
-9.9665
 20
-14.51043
 30
0.0
 10
-9.96874
 20
-14.51883
 30
0.0
 10
-9.96874
 20
-14.52967
 30
0.0
 10
-9.96874
 20
-14.52967
 30
0.0
 10
-9.96874
 20
-14.54049
 30
0.0
 10
-9.9665
 20
-14.54886
 30
0.0
 10
-9.96206
 20
-14.55483
 30
0.0
 10
-9.96206
 20
-14.55483
 30
0.0
 10
-9.95759
 20
-14.56081
 30
0.0
 10
-9.95133
 20
-14.56379
 30
0.0
 10
-9.94324
 20
-14.56379
 30
0.0
 10
-9.94324
 20
-14.56379
 30
0.0
 10
-9.9351
 20
-14.56379
 30
0.0
 10
-9.92883
 20
-14.56081
 30
0.0
 10
-9.92436
 20
-14.55483
 30
0.0
 10
-9.92436
 20
-14.55483
 30
0.0
 10
-9.91991
 20
-14.54886
 30
0.0
 10
-9.91768
 20
-14.54049
 30
0.0
 10
-9.91768
 20
-14.52967
 30
0.0
 10
-9.91768
 20
-14.52967
 30
0.0
 10
-9.91768
 20
-14.51883
 30
0.0
 10
-9.91991
 20
-14.51043
 30
0.0
 10
-9.92436
 20
-14.50446
 30
0.0
 10
-9.92436
 20
-14.50446
 30
0.0
 10
-9.92883
 20
-14.49848
 30
0.0
 10
-9.9351
 20
-14.4955
 30
0.0
 10
-9.94324
 20
-14.4955
 30
0.0
  0
SPLINE
  5
75
330
1F
100
AcDbEntity
  8
Layer 1
 62
   250
100
AcDbSpline
210
0.0
220
0.0
230
1.0
 70
    11
 71
     3
 72
    36
 73
    32
 74
     0
 42
0.0000000001
 43
0.0000000001
 40
0.0
 40
0.0
 40
0.0
 40
0.0
 40
0.125
 40
0.125
 40
0.125
 40
0.125
 40
0.25
 40
0.25
 40
0.25
 40
0.25
 40
0.375
 40
0.375
 40
0.375
 40
0.375
 40
0.5
 40
0.5
 40
0.5
 40
0.5
 40
0.625
 40
0.625
 40
0.625
 40
0.625
 40
0.75
 40
0.75
 40
0.75
 40
0.75
 40
0.875
 40
0.875
 40
0.875
 40
0.875
 40
1.0
 40
1.0
 40
1.0
 40
1.0
 10
-9.94324
 20
-14.47628
 30
0.0
 10
-9.92671
 20
-14.47628
 30
0.0
 10
-9.91375
 20
-14.48101
 30
0.0
 10
-9.90439
 20
-14.49049
 30
0.0
 10
-9.90439
 20
-14.49049
 30
0.0
 10
-9.89501
 20
-14.49994
 30
0.0
 10
-9.89033
 20
-14.51299
 30
0.0
 10
-9.89033
 20
-14.52967
 30
0.0
 10
-9.89033
 20
-14.52967
 30
0.0
 10
-9.89033
 20
-14.5463
 30
0.0
 10
-9.89501
 20
-14.55935
 30
0.0
 10
-9.90439
 20
-14.5688
 30
0.0
 10
-9.90439
 20
-14.5688
 30
0.0
 10
-9.91375
 20
-14.57828
 30
0.0
 10
-9.92671
 20
-14.58301
 30
0.0
 10
-9.94324
 20
-14.58301
 30
0.0
 10
-9.94324
 20
-14.58301
 30
0.0
 10
-9.95973
 20
-14.58301
 30
0.0
 10
-9.97266
 20
-14.57828
 30
0.0
 10
-9.98207
 20
-14.5688
 30
0.0
 10
-9.98207
 20
-14.5688
 30
0.0
 10
-9.99145
 20
-14.55935
 30
0.0
 10
-9.99616
 20
-14.5463
 30
0.0
 10
-9.99616
 20
-14.52967
 30
0.0
 10
-9.99616
 20
-14.52967
 30
0.0
 10
-9.99616
 20
-14.51299
 30
0.0
 10
-9.99145
 20
-14.49994
 30
0.0
 10
-9.98207
 20
-14.49049
 30
0.0
 10
-9.98207
 20
-14.49049
 30
0.0
 10
-9.97266
 20
-14.48101
 30
0.0
 10
-9.95973
 20
-14.47628
 30
0.0
 10
-9.94324
 20
-14.47628
 30
0.0
  0
SPLINE
  5
76
330
1F
100
AcDbEntity
  8
Layer 1
 62
   250
100
AcDbSpline
210
0.0
220
0.0
230
1.0
 70
    11
 71
     3
 72
    52
 73
    48
 74
     0
 42
0.0000000001
 43
0.0000000001
 40
0.0
 40
0.0
 40
0.0
 40
0.0
 40
0.0833333333333333
 40
0.0833333333333333
 40
0.0833333333333333
 40
0.0833333333333333
 40
0.1666666666666667
 40
0.1666666666666667
 40
0.1666666666666667
 40
0.1666666666666667
 40
0.25
 40
0.25
 40
0.25
 40
0.25
 40
0.3333333333333333
 40
0.3333333333333333
 40
0.3333333333333333
 40
0.3333333333333333
 40
0.4166666666666666
 40
0.4166666666666666
 40
0.4166666666666666
 40
0.4166666666666666
 40
0.4999999999999999
 40
0.4999999999999999
 40
0.4999999999999999
 40
0.4999999999999999
 40
0.5833333333333333
 40
0.5833333333333333
 40
0.5833333333333333
 40
0.5833333333333333
 40
0.6666666666666666
 40
0.6666666666666666
 40
0.6666666666666666
 40
0.6666666666666666
 40
0.75
 40
0.75
 40
0.75
 40
0.75
 40
0.8333333333333334
 40
0.8333333333333334
 40
0.8333333333333334
 40
0.8333333333333334
 40
0.9166666666666667
 40
0.9166666666666667
 40
0.9166666666666667
 40
0.9166666666666667
 40
1.0
 40
1.0
 40
1.0
 40
1.0
 10
-9.87026
 20
-14.47814
 30
0.0
 10
-9.87026
 20
-14.47814
 30
0.0
 10
-9.84373
 20
-14.47814
 30
0.0
 10
-9.84373
 20
-14.47814
 30
0.0
 10
-9.84373
 20
-14.47814
 30
0.0
 10
-9.84373
 20
-14.47814
 30
0.0
 10
-9.84373
 20
-14.51735
 30
0.0
 10
-9.84373
 20
-14.51735
 30
0.0
 10
-9.84373
 20
-14.51735
 30
0.0
 10
-9.84373
 20
-14.51735
 30
0.0
 10
-9.8046
 20
-14.51735
 30
0.0
 10
-9.8046
 20
-14.51735
 30
0.0
 10
-9.8046
 20
-14.51735
 30
0.0
 10
-9.8046
 20
-14.51735
 30
0.0
 10
-9.8046
 20
-14.47814
 30
0.0
 10
-9.8046
 20
-14.47814
 30
0.0
 10
-9.8046
 20
-14.47814
 30
0.0
 10
-9.8046
 20
-14.47814
 30
0.0
 10
-9.77807
 20
-14.47814
 30
0.0
 10
-9.77807
 20
-14.47814
 30
0.0
 10
-9.77807
 20
-14.47814
 30
0.0
 10
-9.77807
 20
-14.47814
 30
0.0
 10
-9.77807
 20
-14.58101
 30
0.0
 10
-9.77807
 20
-14.58101
 30
0.0
 10
-9.77807
 20
-14.58101
 30
0.0
 10
-9.77807
 20
-14.58101
 30
0.0
 10
-9.8046
 20
-14.58101
 30
0.0
 10
-9.8046
 20
-14.58101
 30
0.0
 10
-9.8046
 20
-14.58101
 30
0.0
 10
-9.8046
 20
-14.58101
 30
0.0
 10
-9.8046
 20
-14.53741
 30
0.0
 10
-9.8046
 20
-14.53741
 30
0.0
 10
-9.8046
 20
-14.53741
 30
0.0
 10
-9.8046
 20
-14.53741
 30
0.0
 10
-9.84373
 20
-14.53741
 30
0.0
 10
-9.84373
 20
-14.53741
 30
0.0
 10
-9.84373
 20
-14.53741
 30
0.0
 10
-9.84373
 20
-14.53741
 30
0.0
 10
-9.84373
 20
-14.58101
 30
0.0
 10
-9.84373
 20
-14.58101
 30
0.0
 10
-9.84373
 20
-14.58101
 30
0.0
 10
-9.84373
 20
-14.58101
 30
0.0
 10
-9.87026
 20
-14.58101
 30
0.0
 10
-9.87026
 20
-14.58101
 30
0.0
 10
-9.87026
 20
-14.58101
 30
0.0
 10
-9.87026
 20
-14.58101
 30
0.0
 10
-9.87026
 20
-14.47814
 30
0.0
 10
-9.87026
 20
-14.47814
 30
0.0
  0
SPLINE
  5
77
330
1F
100
AcDbEntity
  8
Layer 1
 62
   250
100
AcDbSpline
210
0.0
220
0.0
230
1.0
 70
    11
 71
     3
 72
    56
 73
    52
 74
     0
 42
0.0000000001
 43
0.0000000001
 40
0.0
 40
0.0
 40
0.0
 40
0.0
 40
0.0769230769230769
 40
0.0769230769230769
 40
0.0769230769230769
 40
0.0769230769230769
 40
0.1538461538461539
 40
0.1538461538461539
 40
0.1538461538461539
 40
0.1538461538461539
 40
0.2307692307692308
 40
0.2307692307692308
 40
0.2307692307692308
 40
0.2307692307692308
 40
0.3076923076923077
 40
0.3076923076923077
 40
0.3076923076923077
 40
0.3076923076923077
 40
0.3846153846153846
 40
0.3846153846153846
 40
0.3846153846153846
 40
0.3846153846153846
 40
0.4615384615384616
 40
0.4615384615384616
 40
0.4615384615384616
 40
0.4615384615384616
 40
0.5384615384615385
 40
0.5384615384615385
 40
0.5384615384615385
 40
0.5384615384615385
 40
0.6153846153846154
 40
0.6153846153846154
 40
0.6153846153846154
 40
0.6153846153846154
 40
0.6923076923076923
 40
0.6923076923076923
 40
0.6923076923076923
 40
0.6923076923076923
 40
0.7692307692307692
 40
0.7692307692307692
 40
0.7692307692307692
 40
0.7692307692307692
 40
0.846153846153846
 40
0.846153846153846
 40
0.846153846153846
 40
0.846153846153846
 40
0.9230769230769229
 40
0.9230769230769229
 40
0.9230769230769229
 40
0.9230769230769229
 40
1.0
 40
1.0
 40
1.0
 40
1.0
 10
-9.75217
 20
-14.47814
 30
0.0
 10
-9.75217
 20
-14.47814
 30
0.0
 10
-9.71842
 20
-14.47814
 30
0.0
 10
-9.71842
 20
-14.47814
 30
0.0
 10
-9.71842
 20
-14.47814
 30
0.0
 10
-9.71842
 20
-14.47814
 30
0.0
 10
-9.69497
 20
-14.5332
 30
0.0
 10
-9.69497
 20
-14.5332
 30
0.0
 10
-9.69497
 20
-14.5332
 30
0.0
 10
-9.69497
 20
-14.5332
 30
0.0
 10
-9.67141
 20
-14.47814
 30
0.0
 10
-9.67141
 20
-14.47814
 30
0.0
 10
-9.67141
 20
-14.47814
 30
0.0
 10
-9.67141
 20
-14.47814
 30
0.0
 10
-9.63773
 20
-14.47814
 30
0.0
 10
-9.63773
 20
-14.47814
 30
0.0
 10
-9.63773
 20
-14.47814
 30
0.0
 10
-9.63773
 20
-14.47814
 30
0.0
 10
-9.63773
 20
-14.58101
 30
0.0
 10
-9.63773
 20
-14.58101
 30
0.0
 10
-9.63773
 20
-14.58101
 30
0.0
 10
-9.63773
 20
-14.58101
 30
0.0
 10
-9.6628
 20
-14.58101
 30
0.0
 10
-9.6628
 20
-14.58101
 30
0.0
 10
-9.6628
 20
-14.58101
 30
0.0
 10
-9.6628
 20
-14.58101
 30
0.0
 10
-9.6628
 20
-14.50577
 30
0.0
 10
-9.6628
 20
-14.50577
 30
0.0
 10
-9.6628
 20
-14.50577
 30
0.0
 10
-9.6628
 20
-14.50577
 30
0.0
 10
-9.68651
 20
-14.56123
 30
0.0
 10
-9.68651
 20
-14.56123
 30
0.0
 10
-9.68651
 20
-14.56123
 30
0.0
 10
-9.68651
 20
-14.56123
 30
0.0
 10
-9.70332
 20
-14.56123
 30
0.0
 10
-9.70332
 20
-14.56123
 30
0.0
 10
-9.70332
 20
-14.56123
 30
0.0
 10
-9.70332
 20
-14.56123
 30
0.0
 10
-9.72703
 20
-14.50577
 30
0.0
 10
-9.72703
 20
-14.50577
 30
0.0
 10
-9.72703
 20
-14.50577
 30
0.0
 10
-9.72703
 20
-14.50577
 30
0.0
 10
-9.72703
 20
-14.58101
 30
0.0
 10
-9.72703
 20
-14.58101
 30
0.0
 10
-9.72703
 20
-14.58101
 30
0.0
 10
-9.72703
 20
-14.58101
 30
0.0
 10
-9.75217
 20
-14.58101
 30
0.0
 10
-9.75217
 20
-14.58101
 30
0.0
 10
-9.75217
 20
-14.58101
 30
0.0
 10
-9.75217
 20
-14.58101
 30
0.0
 10
-9.75217
 20
-14.47814
 30
0.0
 10
-9.75217
 20
-14.47814
 30
0.0
  0
SPLINE
  5
78
330
1F
100
AcDbEntity
  8
Layer 1
 62
   250
100
AcDbSpline
210
0.0
220
0.0
230
1.0
 70
    11
 71
     3
 72
    32
 73
    28
 74
     0
 42
0.0000000001
 43
0.0000000001
 40
0.0
 40
0.0
 40
0.0
 40
0.0
 40
0.1428571428571428
 40
0.1428571428571428
 40
0.1428571428571428
 40
0.1428571428571428
 40
0.2857142857142857
 40
0.2857142857142857
 40
0.2857142857142857
 40
0.2857142857142857
 40
0.4285714285714285
 40
0.4285714285714285
 40
0.4285714285714285
 40
0.4285714285714285
 40
0.5714285714285714
 40
0.5714285714285714
 40
0.5714285714285714
 40
0.5714285714285714
 40
0.7142857142857142
 40
0.7142857142857142
 40
0.7142857142857142
 40
0.7142857142857142
 40
0.857142857142857
 40
0.857142857142857
 40
0.857142857142857
 40
0.857142857142857
 40
1.0
 40
1.0
 40
1.0
 40
1.0
 10
-10.98653
 20
-14.68802
 30
0.0
 10
-10.98098
 20
-14.68802
 30
0.0
 10
-10.97698
 20
-14.68698
 30
0.0
 10
-10.97458
 20
-14.68491
 30
0.0
 10
-10.97458
 20
-14.68491
 30
0.0
 10
-10.97216
 20
-14.68284
 30
0.0
 10
-10.97096
 20
-14.67943
 30
0.0
 10
-10.97096
 20
-14.6747
 30
0.0
 10
-10.97096
 20
-14.6747
 30
0.0
 10
-10.97096
 20
-14.67002
 30
0.0
 10
-10.97216
 20
-14.66666
 30
0.0
 10
-10.97458
 20
-14.66464
 30
0.0
 10
-10.97458
 20
-14.66464
 30
0.0
 10
-10.97698
 20
-14.66262
 30
0.0
 10
-10.98098
 20
-14.66161
 30
0.0
 10
-10.98653
 20
-14.66161
 30
0.0
 10
-10.98653
 20
-14.66161
 30
0.0
 10
-10.98653
 20
-14.66161
 30
0.0
 10
-10.9977
 20
-14.66161
 30
0.0
 10
-10.9977
 20
-14.66161
 30
0.0
 10
-10.9977
 20
-14.66161
 30
0.0
 10
-10.9977
 20
-14.66161
 30
0.0
 10
-10.9977
 20
-14.68802
 30
0.0
 10
-10.9977
 20
-14.68802
 30
0.0
 10
-10.9977
 20
-14.68802
 30
0.0
 10
-10.9977
 20
-14.68802
 30
0.0
 10
-10.98653
 20
-14.68802
 30
0.0
 10
-10.98653
 20
-14.68802
 30
0.0
  0
SPLINE
  5
79
330
1F
100
AcDbEntity
  8
Layer 1
 62
   250
100
AcDbSpline
210
0.0
220
0.0
230
1.0
 70
    11
 71
     3
 72
    68
 73
    64
 74
     0
 42
0.0000000001
 43
0.0000000001
 40
0.0
 40
0.0
 40
0.0
 40
0.0
 40
0.0625
 40
0.0625
 40
0.0625
 40
0.0625
 40
0.125
 40
0.125
 40
0.125
 40
0.125
 40
0.1875
 40
0.1875
 40
0.1875
 40
0.1875
 40
0.25
 40
0.25
 40
0.25
 40
0.25
 40
0.3125
 40
0.3125
 40
0.3125
 40
0.3125
 40
0.375
 40
0.375
 40
0.375
 40
0.375
 40
0.4375
 40
0.4375
 40
0.4375
 40
0.4375
 40
0.5
 40
0.5
 40
0.5
 40
0.5
 40
0.5625
 40
0.5625
 40
0.5625
 40
0.5625
 40
0.625
 40
0.625
 40
0.625
 40
0.625
 40
0.6875
 40
0.6875
 40
0.6875
 40
0.6875
 40
0.75
 40
0.75
 40
0.75
 40
0.75
 40
0.8125
 40
0.8125
 40
0.8125
 40
0.8125
 40
0.875
 40
0.875
 40
0.875
 40
0.875
 40
0.9375
 40
0.9375
 40
0.9375
 40
0.9375
 40
1.0
 40
1.0
 40
1.0
 40
1.0
 10
-10.9977
 20
-14.70634
 30
0.0
 10
-10.9977
 20
-14.70634
 30
0.0
 10
-10.9977
 20
-14.74526
 30
0.0
 10
-10.9977
 20
-14.74526
 30
0.0
 10
-10.9977
 20
-14.74526
 30
0.0
 10
-10.9977
 20
-14.74526
 30
0.0
 10
-11.02423
 20
-14.74526
 30
0.0
 10
-11.02423
 20
-14.74526
 30
0.0
 10
-11.02423
 20
-14.74526
 30
0.0
 10
-11.02423
 20
-14.74526
 30
0.0
 10
-11.02423
 20
-14.64239
 30
0.0
 10
-11.02423
 20
-14.64239
 30
0.0
 10
-11.02423
 20
-14.64239
 30
0.0
 10
-11.02423
 20
-14.64239
 30
0.0
 10
-10.98371
 20
-14.64239
 30
0.0
 10
-10.98371
 20
-14.64239
 30
0.0
 10
-10.98371
 20
-14.64239
 30
0.0
 10
-10.97016
 20
-14.64239
 30
0.0
 10
-10.96021
 20
-14.64467
 30
0.0
 10
-10.95391
 20
-14.64921
 30
0.0
 10
-10.95391
 20
-14.64921
 30
0.0
 10
-10.94759
 20
-14.65375
 30
0.0
 10
-10.94443
 20
-14.66095
 30
0.0
 10
-10.94443
 20
-14.67078
 30
0.0
 10
-10.94443
 20
-14.67078
 30
0.0
 10
-10.94443
 20
-14.67757
 30
0.0
 10
-10.94608
 20
-14.68317
 30
0.0
 10
-10.94935
 20
-14.68752
 30
0.0
 10
-10.94935
 20
-14.68752
 30
0.0
 10
-10.95264
 20
-14.6919
 30
0.0
 10
-10.9576
 20
-14.69512
 30
0.0
 10
-10.96421
 20
-14.69717
 30
0.0
 10
-10.96421
 20
-14.69717
 30
0.0
 10
-10.96059
 20
-14.69801
 30
0.0
 10
-10.95732
 20
-14.69987
 30
0.0
 10
-10.95445
 20
-14.70279
 30
0.0
 10
-10.95445
 20
-14.70279
 30
0.0
 10
-10.95158
 20
-14.7057
 30
0.0
 10
-10.94869
 20
-14.71012
 30
0.0
 10
-10.94575
 20
-14.71605
 30
0.0
 10
-10.94575
 20
-14.71605
 30
0.0
 10
-10.94575
 20
-14.71605
 30
0.0
 10
-10.93133
 20
-14.74526
 30
0.0
 10
-10.93133
 20
-14.74526
 30
0.0
 10
-10.93133
 20
-14.74526
 30
0.0
 10
-10.93133
 20
-14.74526
 30
0.0
 10
-10.9596
 20
-14.74526
 30
0.0
 10
-10.9596
 20
-14.74526
 30
0.0
 10
-10.9596
 20
-14.74526
 30
0.0
 10
-10.9596
 20
-14.74526
 30
0.0
 10
-10.97214
 20
-14.7197
 30
0.0
 10
-10.97214
 20
-14.7197
 30
0.0
 10
-10.97214
 20
-14.7197
 30
0.0
 10
-10.97465
 20
-14.71457
 30
0.0
 10
-10.97722
 20
-14.71104
 30
0.0
 10
-10.97983
 20
-14.70916
 30
0.0
 10
-10.97983
 20
-14.70916
 30
0.0
 10
-10.98242
 20
-14.70728
 30
0.0
 10
-10.98587
 20
-14.70634
 30
0.0
 10
-10.9902
 20
-14.70634
 30
0.0
 10
-10.9902
 20
-14.70634
 30
0.0
 10
-10.9902
 20
-14.70634
 30
0.0
 10
-10.9977
 20
-14.70634
 30
0.0
 10
-10.9977
 20
-14.70634
 30
0.0
  0
SPLINE
  5
7A
330
1F
100
AcDbEntity
  8
Layer 1
 62
   250
100
AcDbSpline
210
0.0
220
0.0
230
1.0
 70
    11
 71
     3
 72
    52
 73
    48
 74
     0
 42
0.0000000001
 43
0.0000000001
 40
0.0
 40
0.0
 40
0.0
 40
0.0
 40
0.0833333333333333
 40
0.0833333333333333
 40
0.0833333333333333
 40
0.0833333333333333
 40
0.1666666666666667
 40
0.1666666666666667
 40
0.1666666666666667
 40
0.1666666666666667
 40
0.25
 40
0.25
 40
0.25
 40
0.25
 40
0.3333333333333333
 40
0.3333333333333333
 40
0.3333333333333333
 40
0.3333333333333333
 40
0.4166666666666666
 40
0.4166666666666666
 40
0.4166666666666666
 40
0.4166666666666666
 40
0.4999999999999999
 40
0.4999999999999999
 40
0.4999999999999999
 40
0.4999999999999999
 40
0.5833333333333333
 40
0.5833333333333333
 40
0.5833333333333333
 40
0.5833333333333333
 40
0.6666666666666666
 40
0.6666666666666666
 40
0.6666666666666666
 40
0.6666666666666666
 40
0.75
 40
0.75
 40
0.75
 40
0.75
 40
0.8333333333333334
 40
0.8333333333333334
 40
0.8333333333333334
 40
0.8333333333333334
 40
0.9166666666666667
 40
0.9166666666666667
 40
0.9166666666666667
 40
0.9166666666666667
 40
1.0
 40
1.0
 40
1.0
 40
1.0
 10
-10.91558
 20
-14.64239
 30
0.0
 10
-10.91558
 20
-14.64239
 30
0.0
 10
-10.84399
 20
-14.64239
 30
0.0
 10
-10.84399
 20
-14.64239
 30
0.0
 10
-10.84399
 20
-14.64239
 30
0.0
 10
-10.84399
 20
-14.64239
 30
0.0
 10
-10.84399
 20
-14.66245
 30
0.0
 10
-10.84399
 20
-14.66245
 30
0.0
 10
-10.84399
 20
-14.66245
 30
0.0
 10
-10.84399
 20
-14.66245
 30
0.0
 10
-10.88905
 20
-14.66245
 30
0.0
 10
-10.88905
 20
-14.66245
 30
0.0
 10
-10.88905
 20
-14.66245
 30
0.0
 10
-10.88905
 20
-14.66245
 30
0.0
 10
-10.88905
 20
-14.6816
 30
0.0
 10
-10.88905
 20
-14.6816
 30
0.0
 10
-10.88905
 20
-14.6816
 30
0.0
 10
-10.88905
 20
-14.6816
 30
0.0
 10
-10.8467
 20
-14.6816
 30
0.0
 10
-10.8467
 20
-14.6816
 30
0.0
 10
-10.8467
 20
-14.6816
 30
0.0
 10
-10.8467
 20
-14.6816
 30
0.0
 10
-10.8467
 20
-14.70166
 30
0.0
 10
-10.8467
 20
-14.70166
 30
0.0
 10
-10.8467
 20
-14.70166
 30
0.0
 10
-10.8467
 20
-14.70166
 30
0.0
 10
-10.88905
 20
-14.70166
 30
0.0
 10
-10.88905
 20
-14.70166
 30
0.0
 10
-10.88905
 20
-14.70166
 30
0.0
 10
-10.88905
 20
-14.70166
 30
0.0
 10
-10.88905
 20
-14.7252
 30
0.0
 10
-10.88905
 20
-14.7252
 30
0.0
 10
-10.88905
 20
-14.7252
 30
0.0
 10
-10.88905
 20
-14.7252
 30
0.0
 10
-10.84249
 20
-14.7252
 30
0.0
 10
-10.84249
 20
-14.7252
 30
0.0
 10
-10.84249
 20
-14.7252
 30
0.0
 10
-10.84249
 20
-14.7252
 30
0.0
 10
-10.84249
 20
-14.74526
 30
0.0
 10
-10.84249
 20
-14.74526
 30
0.0
 10
-10.84249
 20
-14.74526
 30
0.0
 10
-10.84249
 20
-14.74526
 30
0.0
 10
-10.91558
 20
-14.74526
 30
0.0
 10
-10.91558
 20
-14.74526
 30
0.0
 10
-10.91558
 20
-14.74526
 30
0.0
 10
-10.91558
 20
-14.74526
 30
0.0
 10
-10.91558
 20
-14.64239
 30
0.0
 10
-10.91558
 20
-14.64239
 30
0.0
  0
SPLINE
  5
7B
330
1F
100
AcDbEntity
  8
Layer 1
 62
   250
100
AcDbSpline
210
0.0
220
0.0
230
1.0
 70
    11
 71
     3
 72
   116
 73
   112
 74
     0
 42
0.0000000001
 43
0.0000000001
 40
0.0
 40
0.0
 40
0.0
 40
0.0
 40
0.0357142857142857
 40
0.0357142857142857
 40
0.0357142857142857
 40
0.0357142857142857
 40
0.0714285714285714
 40
0.0714285714285714
 40
0.0714285714285714
 40
0.0714285714285714
 40
0.1071428571428571
 40
0.1071428571428571
 40
0.1071428571428571
 40
0.1071428571428571
 40
0.1428571428571428
 40
0.1428571428571428
 40
0.1428571428571428
 40
0.1428571428571428
 40
0.1785714285714285
 40
0.1785714285714285
 40
0.1785714285714285
 40
0.1785714285714285
 40
0.2142857142857142
 40
0.2142857142857142
 40
0.2142857142857142
 40
0.2142857142857142
 40
0.2499999999999999
 40
0.2499999999999999
 40
0.2499999999999999
 40
0.2499999999999999
 40
0.2857142857142856
 40
0.2857142857142856
 40
0.2857142857142856
 40
0.2857142857142856
 40
0.3214285714285713
 40
0.3214285714285713
 40
0.3214285714285713
 40
0.3214285714285713
 40
0.357142857142857
 40
0.357142857142857
 40
0.357142857142857
 40
0.357142857142857
 40
0.3928571428571427
 40
0.3928571428571427
 40
0.3928571428571427
 40
0.3928571428571427
 40
0.4285714285714284
 40
0.4285714285714284
 40
0.4285714285714284
 40
0.4285714285714284
 40
0.4642857142857141
 40
0.4642857142857141
 40
0.4642857142857141
 40
0.4642857142857141
 40
0.4999999999999998
 40
0.4999999999999998
 40
0.4999999999999998
 40
0.4999999999999998
 40
0.5357142857142856
 40
0.5357142857142856
 40
0.5357142857142856
 40
0.5357142857142856
 40
0.5714285714285713
 40
0.5714285714285713
 40
0.5714285714285713
 40
0.5714285714285713
 40
0.607142857142857
 40
0.607142857142857
 40
0.607142857142857
 40
0.607142857142857
 40
0.6428571428571427
 40
0.6428571428571427
 40
0.6428571428571427
 40
0.6428571428571427
 40
0.6785714285714284
 40
0.6785714285714284
 40
0.6785714285714284
 40
0.6785714285714284
 40
0.7142857142857141
 40
0.7142857142857141
 40
0.7142857142857141
 40
0.7142857142857141
 40
0.7499999999999998
 40
0.7499999999999998
 40
0.7499999999999998
 40
0.7499999999999998
 40
0.7857142857142855
 40
0.7857142857142855
 40
0.7857142857142855
 40
0.7857142857142855
 40
0.8214285714285712
 40
0.8214285714285712
 40
0.8214285714285712
 40
0.8214285714285712
 40
0.8571428571428569
 40
0.8571428571428569
 40
0.8571428571428569
 40
0.8571428571428569
 40
0.8928571428571426
 40
0.8928571428571426
 40
0.8928571428571426
 40
0.8928571428571426
 40
0.9285714285714283
 40
0.9285714285714283
 40
0.9285714285714283
 40
0.9285714285714283
 40
0.964285714285714
 40
0.964285714285714
 40
0.964285714285714
 40
0.964285714285714
 40
1.0
 40
1.0
 40
1.0
 40
1.0
 10
-10.74759
 20
-14.64564
 30
0.0
 10
-10.74759
 20
-14.64564
 30
0.0
 10
-10.74759
 20
-14.66739
 30
0.0
 10
-10.74759
 20
-14.66739
 30
0.0
 10
-10.74759
 20
-14.66739
 30
0.0
 10
-10.75324
 20
-14.66487
 30
0.0
 10
-10.75876
 20
-14.66297
 30
0.0
 10
-10.76412
 20
-14.66168
 30
0.0
 10
-10.76412
 20
-14.66168
 30
0.0
 10
-10.76951
 20
-14.66038
 30
0.0
 10
-10.77459
 20
-14.65975
 30
0.0
 10
-10.77936
 20
-14.65975
 30
0.0
 10
-10.77936
 20
-14.65975
 30
0.0
 10
-10.78569
 20
-14.65975
 30
0.0
 10
-10.79039
 20
-14.66062
 30
0.0
 10
-10.79343
 20
-14.66236
 30
0.0
 10
-10.79343
 20
-14.66236
 30
0.0
 10
-10.79646
 20
-14.66412
 30
0.0
 10
-10.79797
 20
-14.66683
 30
0.0
 10
-10.79797
 20
-14.6705
 30
0.0
 10
-10.79797
 20
-14.6705
 30
0.0
 10
-10.79797
 20
-14.67325
 30
0.0
 10
-10.79696
 20
-14.67541
 30
0.0
 10
-10.79491
 20
-14.67694
 30
0.0
 10
-10.79491
 20
-14.67694
 30
0.0
 10
-10.79286
 20
-14.67847
 30
0.0
 10
-10.78915
 20
-14.67981
 30
0.0
 10
-10.78376
 20
-14.68091
 30
0.0
 10
-10.78376
 20
-14.68091
 30
0.0
 10
-10.78376
 20
-14.68091
 30
0.0
 10
-10.77247
 20
-14.68317
 30
0.0
 10
-10.77247
 20
-14.68317
 30
0.0
 10
-10.77247
 20
-14.68317
 30
0.0
 10
-10.76102
 20
-14.68548
 30
0.0
 10
-10.75291
 20
-14.68896
 30
0.0
 10
-10.74809
 20
-14.69366
 30
0.0
 10
-10.74809
 20
-14.69366
 30
0.0
 10
-10.74326
 20
-14.69834
 30
0.0
 10
-10.74084
 20
-14.705
 30
0.0
 10
-10.74084
 20
-14.71363
 30
0.0
 10
-10.74084
 20
-14.71363
 30
0.0
 10
-10.74084
 20
-14.72499
 30
0.0
 10
-10.7442
 20
-14.73343
 30
0.0
 10
-10.75093
 20
-14.73896
 30
0.0
 10
-10.75093
 20
-14.73896
 30
0.0
 10
-10.75766
 20
-14.74448
 30
0.0
 10
-10.76793
 20
-14.74726
 30
0.0
 10
-10.78176
 20
-14.74726
 30
0.0
 10
-10.78176
 20
-14.74726
 30
0.0
 10
-10.7883
 20
-14.74726
 30
0.0
 10
-10.79484
 20
-14.74665
 30
0.0
 10
-10.8014
 20
-14.7454
 30
0.0
 10
-10.8014
 20
-14.7454
 30
0.0
 10
-10.80796
 20
-14.74415
 30
0.0
 10
-10.81455
 20
-14.74232
 30
0.0
 10
-10.82111
 20
-14.7399
 30
0.0
 10
-10.82111
 20
-14.7399
 30
0.0
 10
-10.82111
 20
-14.7399
 30
0.0
 10
-10.82111
 20
-14.71751
 30
0.0
 10
-10.82111
 20
-14.71751
 30
0.0
 10
-10.82111
 20
-14.71751
 30
0.0
 10
-10.81455
 20
-14.72099
 30
0.0
 10
-10.8082
 20
-14.72362
 30
0.0
 10
-10.80206
 20
-14.72539
 30
0.0
 10
-10.80206
 20
-14.72539
 30
0.0
 10
-10.79592
 20
-14.72715
 30
0.0
 10
-10.79002
 20
-14.72804
 30
0.0
 10
-10.78433
 20
-14.72804
 30
0.0
 10
-10.78433
 20
-14.72804
 30
0.0
 10
-10.77854
 20
-14.72804
 30
0.0
 10
-10.7741
 20
-14.72708
 30
0.0
 10
-10.77102
 20
-14.72515
 30
0.0
 10
-10.77102
 20
-14.72515
 30
0.0
 10
-10.76793
 20
-14.72322
 30
0.0
 10
-10.76641
 20
-14.72047
 30
0.0
 10
-10.76641
 20
-14.71687
 30
0.0
 10
-10.76641
 20
-14.71687
 30
0.0
 10
-10.76641
 20
-14.71367
 30
0.0
 10
-10.76744
 20
-14.71118
 30
0.0
 10
-10.76953
 20
-14.70944
 30
0.0
 10
-10.76953
 20
-14.70944
 30
0.0
 10
-10.77163
 20
-14.7077
 30
0.0
 10
-10.77579
 20
-14.70613
 30
0.0
 10
-10.78205
 20
-14.70476
 30
0.0
 10
-10.78205
 20
-14.70476
 30
0.0
 10
-10.78205
 20
-14.70476
 30
0.0
 10
-10.79232
 20
-14.70248
 30
0.0
 10
-10.79232
 20
-14.70248
 30
0.0
 10
-10.79232
 20
-14.70248
 30
0.0
 10
-10.8026
 20
-14.70027
 30
0.0
 10
-10.81013
 20
-14.69677
 30
0.0
 10
-10.81488
 20
-14.69194
 30
0.0
 10
-10.81488
 20
-14.69194
 30
0.0
 10
-10.81963
 20
-14.68712
 30
0.0
 10
-10.822
 20
-14.68061
 30
0.0
 10
-10.822
 20
-14.67245
 30
0.0
 10
-10.822
 20
-14.67245
 30
0.0
 10
-10.822
 20
-14.66219
 30
0.0
 10
-10.81869
 20
-14.65431
 30
0.0
 10
-10.81208
 20
-14.64881
 30
0.0
 10
-10.81208
 20
-14.64881
 30
0.0
 10
-10.80547
 20
-14.64328
 30
0.0
 10
-10.79597
 20
-14.64053
 30
0.0
 10
-10.78355
 20
-14.64053
 30
0.0
 10
-10.78355
 20
-14.64053
 30
0.0
 10
-10.77791
 20
-14.64053
 30
0.0
 10
-10.7721
 20
-14.64096
 30
0.0
 10
-10.76612
 20
-14.6418
 30
0.0
 10
-10.76612
 20
-14.6418
 30
0.0
 10
-10.76015
 20
-14.64265
 30
0.0
 10
-10.75397
 20
-14.64392
 30
0.0
 10
-10.74759
 20
-14.64564
 30
0.0
  0
SPLINE
  5
7C
330
1F
100
AcDbEntity
  8
Layer 1
 62
   250
100
AcDbSpline
210
0.0
220
0.0
230
1.0
 70
    11
 71
     3
 72
    20
 73
    16
 74
     0
 42
0.0000000001
 43
0.0000000001
 40
0.0
 40
0.0
 40
0.0
 40
0.0
 40
0.25
 40
0.25
 40
0.25
 40
0.25
 40
0.5
 40
0.5
 40
0.5
 40
0.5
 40
0.75
 40
0.75
 40
0.75
 40
0.75
 40
1.0
 40
1.0
 40
1.0
 40
1.0
 10
-10.71756
 20
-14.64239
 30
0.0
 10
-10.71756
 20
-14.64239
 30
0.0
 10
-10.69103
 20
-14.64239
 30
0.0
 10
-10.69103
 20
-14.64239
 30
0.0
 10
-10.69103
 20
-14.64239
 30
0.0
 10
-10.69103
 20
-14.64239
 30
0.0
 10
-10.69103
 20
-14.74526
 30
0.0
 10
-10.69103
 20
-14.74526
 30
0.0
 10
-10.69103
 20
-14.74526
 30
0.0
 10
-10.69103
 20
-14.74526
 30
0.0
 10
-10.71756
 20
-14.74526
 30
0.0
 10
-10.71756
 20
-14.74526
 30
0.0
 10
-10.71756
 20
-14.74526
 30
0.0
 10
-10.71756
 20
-14.74526
 30
0.0
 10
-10.71756
 20
-14.64239
 30
0.0
 10
-10.71756
 20
-14.64239
 30
0.0
  0
SPLINE
  5
7D
330
1F
100
AcDbEntity
  8
Layer 1
 62
   250
100
AcDbSpline
210
0.0
220
0.0
230
1.0
 70
    11
 71
     3
 72
   116
 73
   112
 74
     0
 42
0.0000000001
 43
0.0000000001
 40
0.0
 40
0.0
 40
0.0
 40
0.0
 40
0.0357142857142857
 40
0.0357142857142857
 40
0.0357142857142857
 40
0.0357142857142857
 40
0.0714285714285714
 40
0.0714285714285714
 40
0.0714285714285714
 40
0.0714285714285714
 40
0.1071428571428571
 40
0.1071428571428571
 40
0.1071428571428571
 40
0.1071428571428571
 40
0.1428571428571428
 40
0.1428571428571428
 40
0.1428571428571428
 40
0.1428571428571428
 40
0.1785714285714285
 40
0.1785714285714285
 40
0.1785714285714285
 40
0.1785714285714285
 40
0.2142857142857142
 40
0.2142857142857142
 40
0.2142857142857142
 40
0.2142857142857142
 40
0.2499999999999999
 40
0.2499999999999999
 40
0.2499999999999999
 40
0.2499999999999999
 40
0.2857142857142856
 40
0.2857142857142856
 40
0.2857142857142856
 40
0.2857142857142856
 40
0.3214285714285713
 40
0.3214285714285713
 40
0.3214285714285713
 40
0.3214285714285713
 40
0.357142857142857
 40
0.357142857142857
 40
0.357142857142857
 40
0.357142857142857
 40
0.3928571428571427
 40
0.3928571428571427
 40
0.3928571428571427
 40
0.3928571428571427
 40
0.4285714285714284
 40
0.4285714285714284
 40
0.4285714285714284
 40
0.4285714285714284
 40
0.4642857142857141
 40
0.4642857142857141
 40
0.4642857142857141
 40
0.4642857142857141
 40
0.4999999999999998
 40
0.4999999999999998
 40
0.4999999999999998
 40
0.4999999999999998
 40
0.5357142857142856
 40
0.5357142857142856
 40
0.5357142857142856
 40
0.5357142857142856
 40
0.5714285714285713
 40
0.5714285714285713
 40
0.5714285714285713
 40
0.5714285714285713
 40
0.607142857142857
 40
0.607142857142857
 40
0.607142857142857
 40
0.607142857142857
 40
0.6428571428571427
 40
0.6428571428571427
 40
0.6428571428571427
 40
0.6428571428571427
 40
0.6785714285714284
 40
0.6785714285714284
 40
0.6785714285714284
 40
0.6785714285714284
 40
0.7142857142857141
 40
0.7142857142857141
 40
0.7142857142857141
 40
0.7142857142857141
 40
0.7499999999999998
 40
0.7499999999999998
 40
0.7499999999999998
 40
0.7499999999999998
 40
0.7857142857142855
 40
0.7857142857142855
 40
0.7857142857142855
 40
0.7857142857142855
 40
0.8214285714285712
 40
0.8214285714285712
 40
0.8214285714285712
 40
0.8214285714285712
 40
0.8571428571428569
 40
0.8571428571428569
 40
0.8571428571428569
 40
0.8571428571428569
 40
0.8928571428571426
 40
0.8928571428571426
 40
0.8928571428571426
 40
0.8928571428571426
 40
0.9285714285714283
 40
0.9285714285714283
 40
0.9285714285714283
 40
0.9285714285714283
 40
0.964285714285714
 40
0.964285714285714
 40
0.964285714285714
 40
0.964285714285714
 40
1.0
 40
1.0
 40
1.0
 40
1.0
 10
-10.59348
 20
-14.64564
 30
0.0
 10
-10.59348
 20
-14.64564
 30
0.0
 10
-10.59348
 20
-14.66739
 30
0.0
 10
-10.59348
 20
-14.66739
 30
0.0
 10
-10.59348
 20
-14.66739
 30
0.0
 10
-10.59913
 20
-14.66487
 30
0.0
 10
-10.60465
 20
-14.66297
 30
0.0
 10
-10.61001
 20
-14.66168
 30
0.0
 10
-10.61001
 20
-14.66168
 30
0.0
 10
-10.6154
 20
-14.66038
 30
0.0
 10
-10.62048
 20
-14.65975
 30
0.0
 10
-10.62525
 20
-14.65975
 30
0.0
 10
-10.62525
 20
-14.65975
 30
0.0
 10
-10.63158
 20
-14.65975
 30
0.0
 10
-10.63628
 20
-14.66062
 30
0.0
 10
-10.63932
 20
-14.66236
 30
0.0
 10
-10.63932
 20
-14.66236
 30
0.0
 10
-10.64235
 20
-14.66412
 30
0.0
 10
-10.64386
 20
-14.66683
 30
0.0
 10
-10.64386
 20
-14.6705
 30
0.0
 10
-10.64386
 20
-14.6705
 30
0.0
 10
-10.64386
 20
-14.67325
 30
0.0
 10
-10.64285
 20
-14.67541
 30
0.0
 10
-10.6408
 20
-14.67694
 30
0.0
 10
-10.6408
 20
-14.67694
 30
0.0
 10
-10.63875
 20
-14.67847
 30
0.0
 10
-10.63504
 20
-14.67981
 30
0.0
 10
-10.62965
 20
-14.68091
 30
0.0
 10
-10.62965
 20
-14.68091
 30
0.0
 10
-10.62965
 20
-14.68091
 30
0.0
 10
-10.61836
 20
-14.68317
 30
0.0
 10
-10.61836
 20
-14.68317
 30
0.0
 10
-10.61836
 20
-14.68317
 30
0.0
 10
-10.60691
 20
-14.68548
 30
0.0
 10
-10.5988
 20
-14.68896
 30
0.0
 10
-10.59398
 20
-14.69366
 30
0.0
 10
-10.59398
 20
-14.69366
 30
0.0
 10
-10.58915
 20
-14.69834
 30
0.0
 10
-10.58673
 20
-14.705
 30
0.0
 10
-10.58673
 20
-14.71363
 30
0.0
 10
-10.58673
 20
-14.71363
 30
0.0
 10
-10.58673
 20
-14.72499
 30
0.0
 10
-10.59009
 20
-14.73343
 30
0.0
 10
-10.59682
 20
-14.73896
 30
0.0
 10
-10.59682
 20
-14.73896
 30
0.0
 10
-10.60355
 20
-14.74448
 30
0.0
 10
-10.61382
 20
-14.74726
 30
0.0
 10
-10.62765
 20
-14.74726
 30
0.0
 10
-10.62765
 20
-14.74726
 30
0.0
 10
-10.63419
 20
-14.74726
 30
0.0
 10
-10.64073
 20
-14.74665
 30
0.0
 10
-10.64729
 20
-14.7454
 30
0.0
 10
-10.64729
 20
-14.7454
 30
0.0
 10
-10.65385
 20
-14.74415
 30
0.0
 10
-10.66044
 20
-14.74232
 30
0.0
 10
-10.667
 20
-14.7399
 30
0.0
 10
-10.667
 20
-14.7399
 30
0.0
 10
-10.667
 20
-14.7399
 30
0.0
 10
-10.667
 20
-14.71751
 30
0.0
 10
-10.667
 20
-14.71751
 30
0.0
 10
-10.667
 20
-14.71751
 30
0.0
 10
-10.66044
 20
-14.72099
 30
0.0
 10
-10.65409
 20
-14.72362
 30
0.0
 10
-10.64795
 20
-14.72539
 30
0.0
 10
-10.64795
 20
-14.72539
 30
0.0
 10
-10.64181
 20
-14.72715
 30
0.0
 10
-10.63591
 20
-14.72804
 30
0.0
 10
-10.63022
 20
-14.72804
 30
0.0
 10
-10.63022
 20
-14.72804
 30
0.0
 10
-10.62443
 20
-14.72804
 30
0.0
 10
-10.61999
 20
-14.72708
 30
0.0
 10
-10.61691
 20
-14.72515
 30
0.0
 10
-10.61691
 20
-14.72515
 30
0.0
 10
-10.61382
 20
-14.72322
 30
0.0
 10
-10.6123
 20
-14.72047
 30
0.0
 10
-10.6123
 20
-14.71687
 30
0.0
 10
-10.6123
 20
-14.71687
 30
0.0
 10
-10.6123
 20
-14.71367
 30
0.0
 10
-10.61333
 20
-14.71118
 30
0.0
 10
-10.61542
 20
-14.70944
 30
0.0
 10
-10.61542
 20
-14.70944
 30
0.0
 10
-10.61752
 20
-14.7077
 30
0.0
 10
-10.62168
 20
-14.70613
 30
0.0
 10
-10.62794
 20
-14.70476
 30
0.0
 10
-10.62794
 20
-14.70476
 30
0.0
 10
-10.62794
 20
-14.70476
 30
0.0
 10
-10.63821
 20
-14.70248
 30
0.0
 10
-10.63821
 20
-14.70248
 30
0.0
 10
-10.63821
 20
-14.70248
 30
0.0
 10
-10.64849
 20
-14.70027
 30
0.0
 10
-10.65602
 20
-14.69677
 30
0.0
 10
-10.66077
 20
-14.69194
 30
0.0
 10
-10.66077
 20
-14.69194
 30
0.0
 10
-10.66552
 20
-14.68712
 30
0.0
 10
-10.66789
 20
-14.68061
 30
0.0
 10
-10.66789
 20
-14.67245
 30
0.0
 10
-10.66789
 20
-14.67245
 30
0.0
 10
-10.66789
 20
-14.66219
 30
0.0
 10
-10.66458
 20
-14.65431
 30
0.0
 10
-10.65797
 20
-14.64881
 30
0.0
 10
-10.65797
 20
-14.64881
 30
0.0
 10
-10.65136
 20
-14.64328
 30
0.0
 10
-10.64186
 20
-14.64053
 30
0.0
 10
-10.62944
 20
-14.64053
 30
0.0
 10
-10.62944
 20
-14.64053
 30
0.0
 10
-10.6238
 20
-14.64053
 30
0.0
 10
-10.61799
 20
-14.64096
 30
0.0
 10
-10.61201
 20
-14.6418
 30
0.0
 10
-10.61201
 20
-14.6418
 30
0.0
 10
-10.60604
 20
-14.64265
 30
0.0
 10
-10.59986
 20
-14.64392
 30
0.0
 10
-10.59348
 20
-14.64564
 30
0.0
  0
SPLINE
  5
7E
330
1F
100
AcDbEntity
  8
Layer 1
 62
   250
100
AcDbSpline
210
0.0
220
0.0
230
1.0
 70
    11
 71
     3
 72
    36
 73
    32
 74
     0
 42
0.0000000001
 43
0.0000000001
 40
0.0
 40
0.0
 40
0.0
 40
0.0
 40
0.125
 40
0.125
 40
0.125
 40
0.125
 40
0.25
 40
0.25
 40
0.25
 40
0.25
 40
0.375
 40
0.375
 40
0.375
 40
0.375
 40
0.5
 40
0.5
 40
0.5
 40
0.5
 40
0.625
 40
0.625
 40
0.625
 40
0.625
 40
0.75
 40
0.75
 40
0.75
 40
0.75
 40
0.875
 40
0.875
 40
0.875
 40
0.875
 40
1.0
 40
1.0
 40
1.0
 40
1.0
 10
-10.57573
 20
-14.64239
 30
0.0
 10
-10.57573
 20
-14.64239
 30
0.0
 10
-10.48093
 20
-14.64239
 30
0.0
 10
-10.48093
 20
-14.64239
 30
0.0
 10
-10.48093
 20
-14.64239
 30
0.0
 10
-10.48093
 20
-14.64239
 30
0.0
 10
-10.48093
 20
-14.66245
 30
0.0
 10
-10.48093
 20
-14.66245
 30
0.0
 10
-10.48093
 20
-14.66245
 30
0.0
 10
-10.48093
 20
-14.66245
 30
0.0
 10
-10.51503
 20
-14.66245
 30
0.0
 10
-10.51503
 20
-14.66245
 30
0.0
 10
-10.51503
 20
-14.66245
 30
0.0
 10
-10.51503
 20
-14.66245
 30
0.0
 10
-10.51503
 20
-14.74526
 30
0.0
 10
-10.51503
 20
-14.74526
 30
0.0
 10
-10.51503
 20
-14.74526
 30
0.0
 10
-10.51503
 20
-14.74526
 30
0.0
 10
-10.54156
 20
-14.74526
 30
0.0
 10
-10.54156
 20
-14.74526
 30
0.0
 10
-10.54156
 20
-14.74526
 30
0.0
 10
-10.54156
 20
-14.74526
 30
0.0
 10
-10.54156
 20
-14.66245
 30
0.0
 10
-10.54156
 20
-14.66245
 30
0.0
 10
-10.54156
 20
-14.66245
 30
0.0
 10
-10.54156
 20
-14.66245
 30
0.0
 10
-10.57573
 20
-14.66245
 30
0.0
 10
-10.57573
 20
-14.66245
 30
0.0
 10
-10.57573
 20
-14.66245
 30
0.0
 10
-10.57573
 20
-14.66245
 30
0.0
 10
-10.57573
 20
-14.64239
 30
0.0
 10
-10.57573
 20
-14.64239
 30
0.0
  0
SPLINE
  5
7F
330
1F
100
AcDbEntity
  8
Layer 1
 62
   250
100
AcDbSpline
210
0.0
220
0.0
230
1.0
 70
    11
 71
     3
 72
    36
 73
    32
 74
     0
 42
0.0000000001
 43
0.0000000001
 40
0.0
 40
0.0
 40
0.0
 40
0.0
 40
0.125
 40
0.125
 40
0.125
 40
0.125
 40
0.25
 40
0.25
 40
0.25
 40
0.25
 40
0.375
 40
0.375
 40
0.375
 40
0.375
 40
0.5
 40
0.5
 40
0.5
 40
0.5
 40
0.625
 40
0.625
 40
0.625
 40
0.625
 40
0.75
 40
0.75
 40
0.75
 40
0.75
 40
0.875
 40
0.875
 40
0.875
 40
0.875
 40
1.0
 40
1.0
 40
1.0
 40
1.0
 10
-10.4202
 20
-14.65975
 30
0.0
 10
-10.42829
 20
-14.65975
 30
0.0
 10
-10.43455
 20
-14.66273
 30
0.0
 10
-10.43902
 20
-14.66871
 30
0.0
 10
-10.43902
 20
-14.66871
 30
0.0
 10
-10.44346
 20
-14.67468
 30
0.0
 10
-10.4457
 20
-14.68308
 30
0.0
 10
-10.4457
 20
-14.69392
 30
0.0
 10
-10.4457
 20
-14.69392
 30
0.0
 10
-10.4457
 20
-14.70474
 30
0.0
 10
-10.44346
 20
-14.71311
 30
0.0
 10
-10.43902
 20
-14.71908
 30
0.0
 10
-10.43902
 20
-14.71908
 30
0.0
 10
-10.43455
 20
-14.72506
 30
0.0
 10
-10.42829
 20
-14.72804
 30
0.0
 10
-10.4202
 20
-14.72804
 30
0.0
 10
-10.4202
 20
-14.72804
 30
0.0
 10
-10.41206
 20
-14.72804
 30
0.0
 10
-10.40579
 20
-14.72506
 30
0.0
 10
-10.40132
 20
-14.71908
 30
0.0
 10
-10.40132
 20
-14.71908
 30
0.0
 10
-10.39687
 20
-14.71311
 30
0.0
 10
-10.39464
 20
-14.70474
 30
0.0
 10
-10.39464
 20
-14.69392
 30
0.0
 10
-10.39464
 20
-14.69392
 30
0.0
 10
-10.39464
 20
-14.68308
 30
0.0
 10
-10.39687
 20
-14.67468
 30
0.0
 10
-10.40132
 20
-14.66871
 30
0.0
 10
-10.40132
 20
-14.66871
 30
0.0
 10
-10.40579
 20
-14.66273
 30
0.0
 10
-10.41206
 20
-14.65975
 30
0.0
 10
-10.4202
 20
-14.65975
 30
0.0
  0
SPLINE
  5
80
330
1F
100
AcDbEntity
  8
Layer 1
 62
   250
100
AcDbSpline
210
0.0
220
0.0
230
1.0
 70
    11
 71
     3
 72
    36
 73
    32
 74
     0
 42
0.0000000001
 43
0.0000000001
 40
0.0
 40
0.0
 40
0.0
 40
0.0
 40
0.125
 40
0.125
 40
0.125
 40
0.125
 40
0.25
 40
0.25
 40
0.25
 40
0.25
 40
0.375
 40
0.375
 40
0.375
 40
0.375
 40
0.5
 40
0.5
 40
0.5
 40
0.5
 40
0.625
 40
0.625
 40
0.625
 40
0.625
 40
0.75
 40
0.75
 40
0.75
 40
0.75
 40
0.875
 40
0.875
 40
0.875
 40
0.875
 40
1.0
 40
1.0
 40
1.0
 40
1.0
 10
-10.4202
 20
-14.64053
 30
0.0
 10
-10.40367
 20
-14.64053
 30
0.0
 10
-10.39071
 20
-14.64526
 30
0.0
 10
-10.38135
 20
-14.65474
 30
0.0
 10
-10.38135
 20
-14.65474
 30
0.0
 10
-10.37197
 20
-14.66419
 30
0.0
 10
-10.36729
 20
-14.67724
 30
0.0
 10
-10.36729
 20
-14.69392
 30
0.0
 10
-10.36729
 20
-14.69392
 30
0.0
 10
-10.36729
 20
-14.71055
 30
0.0
 10
-10.37197
 20
-14.7236
 30
0.0
 10
-10.38135
 20
-14.73305
 30
0.0
 10
-10.38135
 20
-14.73305
 30
0.0
 10
-10.39071
 20
-14.74253
 30
0.0
 10
-10.40367
 20
-14.74726
 30
0.0
 10
-10.4202
 20
-14.74726
 30
0.0
 10
-10.4202
 20
-14.74726
 30
0.0
 10
-10.43669
 20
-14.74726
 30
0.0
 10
-10.44962
 20
-14.74253
 30
0.0
 10
-10.45903
 20
-14.73305
 30
0.0
 10
-10.45903
 20
-14.73305
 30
0.0
 10
-10.46841
 20
-14.7236
 30
0.0
 10
-10.47312
 20
-14.71055
 30
0.0
 10
-10.47312
 20
-14.69392
 30
0.0
 10
-10.47312
 20
-14.69392
 30
0.0
 10
-10.47312
 20
-14.67724
 30
0.0
 10
-10.46841
 20
-14.66419
 30
0.0
 10
-10.45903
 20
-14.65474
 30
0.0
 10
-10.45903
 20
-14.65474
 30
0.0
 10
-10.44962
 20
-14.64526
 30
0.0
 10
-10.43669
 20
-14.64053
 30
0.0
 10
-10.4202
 20
-14.64053
 30
0.0
  0
SPLINE
  5
81
330
1F
100
AcDbEntity
  8
Layer 1
 62
   250
100
AcDbSpline
210
0.0
220
0.0
230
1.0
 70
    11
 71
     3
 72
    32
 73
    28
 74
     0
 42
0.0000000001
 43
0.0000000001
 40
0.0
 40
0.0
 40
0.0
 40
0.0
 40
0.1428571428571428
 40
0.1428571428571428
 40
0.1428571428571428
 40
0.1428571428571428
 40
0.2857142857142857
 40
0.2857142857142857
 40
0.2857142857142857
 40
0.2857142857142857
 40
0.4285714285714285
 40
0.4285714285714285
 40
0.4285714285714285
 40
0.4285714285714285
 40
0.5714285714285714
 40
0.5714285714285714
 40
0.5714285714285714
 40
0.5714285714285714
 40
0.7142857142857142
 40
0.7142857142857142
 40
0.7142857142857142
 40
0.7142857142857142
 40
0.857142857142857
 40
0.857142857142857
 40
0.857142857142857
 40
0.857142857142857
 40
1.0
 40
1.0
 40
1.0
 40
1.0
 10
-10.30952
 20
-14.68802
 30
0.0
 10
-10.30397
 20
-14.68802
 30
0.0
 10
-10.29997
 20
-14.68698
 30
0.0
 10
-10.29757
 20
-14.68491
 30
0.0
 10
-10.29757
 20
-14.68491
 30
0.0
 10
-10.29515
 20
-14.68284
 30
0.0
 10
-10.29395
 20
-14.67943
 30
0.0
 10
-10.29395
 20
-14.6747
 30
0.0
 10
-10.29395
 20
-14.6747
 30
0.0
 10
-10.29395
 20
-14.67002
 30
0.0
 10
-10.29515
 20
-14.66666
 30
0.0
 10
-10.29757
 20
-14.66464
 30
0.0
 10
-10.29757
 20
-14.66464
 30
0.0
 10
-10.29997
 20
-14.66262
 30
0.0
 10
-10.30397
 20
-14.66161
 30
0.0
 10
-10.30952
 20
-14.66161
 30
0.0
 10
-10.30952
 20
-14.66161
 30
0.0
 10
-10.30952
 20
-14.66161
 30
0.0
 10
-10.32069
 20
-14.66161
 30
0.0
 10
-10.32069
 20
-14.66161
 30
0.0
 10
-10.32069
 20
-14.66161
 30
0.0
 10
-10.32069
 20
-14.66161
 30
0.0
 10
-10.32069
 20
-14.68802
 30
0.0
 10
-10.32069
 20
-14.68802
 30
0.0
 10
-10.32069
 20
-14.68802
 30
0.0
 10
-10.32069
 20
-14.68802
 30
0.0
 10
-10.30952
 20
-14.68802
 30
0.0
 10
-10.30952
 20
-14.68802
 30
0.0
  0
SPLINE
  5
82
330
1F
100
AcDbEntity
  8
Layer 1
 62
   250
100
AcDbSpline
210
0.0
220
0.0
230
1.0
 70
    11
 71
     3
 72
    68
 73
    64
 74
     0
 42
0.0000000001
 43
0.0000000001
 40
0.0
 40
0.0
 40
0.0
 40
0.0
 40
0.0625
 40
0.0625
 40
0.0625
 40
0.0625
 40
0.125
 40
0.125
 40
0.125
 40
0.125
 40
0.1875
 40
0.1875
 40
0.1875
 40
0.1875
 40
0.25
 40
0.25
 40
0.25
 40
0.25
 40
0.3125
 40
0.3125
 40
0.3125
 40
0.3125
 40
0.375
 40
0.375
 40
0.375
 40
0.375
 40
0.4375
 40
0.4375
 40
0.4375
 40
0.4375
 40
0.5
 40
0.5
 40
0.5
 40
0.5
 40
0.5625
 40
0.5625
 40
0.5625
 40
0.5625
 40
0.625
 40
0.625
 40
0.625
 40
0.625
 40
0.6875
 40
0.6875
 40
0.6875
 40
0.6875
 40
0.75
 40
0.75
 40
0.75
 40
0.75
 40
0.8125
 40
0.8125
 40
0.8125
 40
0.8125
 40
0.875
 40
0.875
 40
0.875
 40
0.875
 40
0.9375
 40
0.9375
 40
0.9375
 40
0.9375
 40
1.0
 40
1.0
 40
1.0
 40
1.0
 10
-10.32069
 20
-14.70634
 30
0.0
 10
-10.32069
 20
-14.70634
 30
0.0
 10
-10.32069
 20
-14.74526
 30
0.0
 10
-10.32069
 20
-14.74526
 30
0.0
 10
-10.32069
 20
-14.74526
 30
0.0
 10
-10.32069
 20
-14.74526
 30
0.0
 10
-10.34722
 20
-14.74526
 30
0.0
 10
-10.34722
 20
-14.74526
 30
0.0
 10
-10.34722
 20
-14.74526
 30
0.0
 10
-10.34722
 20
-14.74526
 30
0.0
 10
-10.34722
 20
-14.64239
 30
0.0
 10
-10.34722
 20
-14.64239
 30
0.0
 10
-10.34722
 20
-14.64239
 30
0.0
 10
-10.34722
 20
-14.64239
 30
0.0
 10
-10.3067
 20
-14.64239
 30
0.0
 10
-10.3067
 20
-14.64239
 30
0.0
 10
-10.3067
 20
-14.64239
 30
0.0
 10
-10.29315
 20
-14.64239
 30
0.0
 10
-10.2832
 20
-14.64467
 30
0.0
 10
-10.2769
 20
-14.64921
 30
0.0
 10
-10.2769
 20
-14.64921
 30
0.0
 10
-10.27058
 20
-14.65375
 30
0.0
 10
-10.26742
 20
-14.66095
 30
0.0
 10
-10.26742
 20
-14.67078
 30
0.0
 10
-10.26742
 20
-14.67078
 30
0.0
 10
-10.26742
 20
-14.67757
 30
0.0
 10
-10.26907
 20
-14.68317
 30
0.0
 10
-10.27234
 20
-14.68752
 30
0.0
 10
-10.27234
 20
-14.68752
 30
0.0
 10
-10.27563
 20
-14.6919
 30
0.0
 10
-10.28059
 20
-14.69512
 30
0.0
 10
-10.2872
 20
-14.69717
 30
0.0
 10
-10.2872
 20
-14.69717
 30
0.0
 10
-10.28358
 20
-14.69801
 30
0.0
 10
-10.28031
 20
-14.69987
 30
0.0
 10
-10.27744
 20
-14.70279
 30
0.0
 10
-10.27744
 20
-14.70279
 30
0.0
 10
-10.27457
 20
-14.7057
 30
0.0
 10
-10.27168
 20
-14.71012
 30
0.0
 10
-10.26874
 20
-14.71605
 30
0.0
 10
-10.26874
 20
-14.71605
 30
0.0
 10
-10.26874
 20
-14.71605
 30
0.0
 10
-10.25432
 20
-14.74526
 30
0.0
 10
-10.25432
 20
-14.74526
 30
0.0
 10
-10.25432
 20
-14.74526
 30
0.0
 10
-10.25432
 20
-14.74526
 30
0.0
 10
-10.28259
 20
-14.74526
 30
0.0
 10
-10.28259
 20
-14.74526
 30
0.0
 10
-10.28259
 20
-14.74526
 30
0.0
 10
-10.28259
 20
-14.74526
 30
0.0
 10
-10.29513
 20
-14.7197
 30
0.0
 10
-10.29513
 20
-14.7197
 30
0.0
 10
-10.29513
 20
-14.7197
 30
0.0
 10
-10.29764
 20
-14.71457
 30
0.0
 10
-10.30021
 20
-14.71104
 30
0.0
 10
-10.30282
 20
-14.70916
 30
0.0
 10
-10.30282
 20
-14.70916
 30
0.0
 10
-10.30541
 20
-14.70728
 30
0.0
 10
-10.30886
 20
-14.70634
 30
0.0
 10
-10.31319
 20
-14.70634
 30
0.0
 10
-10.31319
 20
-14.70634
 30
0.0
 10
-10.31319
 20
-14.70634
 30
0.0
 10
-10.32069
 20
-14.70634
 30
0.0
 10
-10.32069
 20
-14.70634
 30
0.0
  0
SPLINE
  5
83
330
1F
100
AcDbEntity
  8
Layer 1
 62
   250
100
AcDbSpline
210
0.0
220
0.0
230
1.0
 70
    11
 71
     3
 72
    48
 73
    44
 74
     0
 42
0.0000000001
 43
0.0000000001
 40
0.0
 40
0.0
 40
0.0
 40
0.0
 40
0.0909090909090909
 40
0.0909090909090909
 40
0.0909090909090909
 40
0.0909090909090909
 40
0.1818181818181818
 40
0.1818181818181818
 40
0.1818181818181818
 40
0.1818181818181818
 40
0.2727272727272727
 40
0.2727272727272727
 40
0.2727272727272727
 40
0.2727272727272727
 40
0.3636363636363636
 40
0.3636363636363636
 40
0.3636363636363636
 40
0.3636363636363636
 40
0.4545454545454546
 40
0.4545454545454546
 40
0.4545454545454546
 40
0.4545454545454546
 40
0.5454545454545455
 40
0.5454545454545455
 40
0.5454545454545455
 40
0.5454545454545455
 40
0.6363636363636365
 40
0.6363636363636365
 40
0.6363636363636365
 40
0.6363636363636365
 40
0.7272727272727274
 40
0.7272727272727274
 40
0.7272727272727274
 40
0.7272727272727274
 40
0.8181818181818183
 40
0.8181818181818183
 40
0.8181818181818183
 40
0.8181818181818183
 40
0.9090909090909093
 40
0.9090909090909093
 40
0.9090909090909093
 40
0.9090909090909093
 40
1.0
 40
1.0
 40
1.0
 40
1.0
 10
-10.18587
 20
-14.72694
 30
0.0
 10
-10.18587
 20
-14.72694
 30
0.0
 10
-10.16244
 20
-14.72694
 30
0.0
 10
-10.16244
 20
-14.72694
 30
0.0
 10
-10.16244
 20
-14.72694
 30
0.0
 10
-10.16244
 20
-14.72694
 30
0.0
 10
-10.16244
 20
-14.66045
 30
0.0
 10
-10.16244
 20
-14.66045
 30
0.0
 10
-10.16244
 20
-14.66045
 30
0.0
 10
-10.16244
 20
-14.66045
 30
0.0
 10
-10.18648
 20
-14.66542
 30
0.0
 10
-10.18648
 20
-14.66542
 30
0.0
 10
-10.18648
 20
-14.66542
 30
0.0
 10
-10.18648
 20
-14.66542
 30
0.0
 10
-10.18648
 20
-14.64735
 30
0.0
 10
-10.18648
 20
-14.64735
 30
0.0
 10
-10.18648
 20
-14.64735
 30
0.0
 10
-10.18648
 20
-14.64735
 30
0.0
 10
-10.16258
 20
-14.64239
 30
0.0
 10
-10.16258
 20
-14.64239
 30
0.0
 10
-10.16258
 20
-14.64239
 30
0.0
 10
-10.16258
 20
-14.64239
 30
0.0
 10
-10.13737
 20
-14.64239
 30
0.0
 10
-10.13737
 20
-14.64239
 30
0.0
 10
-10.13737
 20
-14.64239
 30
0.0
 10
-10.13737
 20
-14.64239
 30
0.0
 10
-10.13737
 20
-14.72694
 30
0.0
 10
-10.13737
 20
-14.72694
 30
0.0
 10
-10.13737
 20
-14.72694
 30
0.0
 10
-10.13737
 20
-14.72694
 30
0.0
 10
-10.11395
 20
-14.72694
 30
0.0
 10
-10.11395
 20
-14.72694
 30
0.0
 10
-10.11395
 20
-14.72694
 30
0.0
 10
-10.11395
 20
-14.72694
 30
0.0
 10
-10.11395
 20
-14.74526
 30
0.0
 10
-10.11395
 20
-14.74526
 30
0.0
 10
-10.11395
 20
-14.74526
 30
0.0
 10
-10.11395
 20
-14.74526
 30
0.0
 10
-10.18587
 20
-14.74526
 30
0.0
 10
-10.18587
 20
-14.74526
 30
0.0
 10
-10.18587
 20
-14.74526
 30
0.0
 10
-10.18587
 20
-14.74526
 30
0.0
 10
-10.18587
 20
-14.72694
 30
0.0
 10
-10.18587
 20
-14.72694
 30
0.0
  0
SPLINE
  5
84
330
1F
100
AcDbEntity
  8
Layer 1
 62
   250
100
AcDbSpline
210
0.0
220
0.0
230
1.0
 70
    11
 71
     3
 72
    36
 73
    32
 74
     0
 42
0.0000000001
 43
0.0000000001
 40
0.0
 40
0.0
 40
0.0
 40
0.0
 40
0.125
 40
0.125
 40
0.125
 40
0.125
 40
0.25
 40
0.25
 40
0.25
 40
0.25
 40
0.375
 40
0.375
 40
0.375
 40
0.375
 40
0.5
 40
0.5
 40
0.5
 40
0.5
 40
0.625
 40
0.625
 40
0.625
 40
0.625
 40
0.75
 40
0.75
 40
0.75
 40
0.75
 40
0.875
 40
0.875
 40
0.875
 40
0.875
 40
1.0
 40
1.0
 40
1.0
 40
1.0
 10
-9.99487
 20
-14.70281
 30
0.0
 10
-9.99814
 20
-14.70281
 30
0.0
 10
-10.00066
 20
-14.70422
 30
0.0
 10
-10.00247
 20
-14.70704
 30
0.0
 10
-10.00247
 20
-14.70704
 30
0.0
 10
-10.00426
 20
-14.70986
 30
0.0
 10
-10.00515
 20
-14.71391
 30
0.0
 10
-10.00515
 20
-14.71915
 30
0.0
 10
-10.00515
 20
-14.71915
 30
0.0
 10
-10.00515
 20
-14.72442
 30
0.0
 10
-10.00426
 20
-14.72849
 30
0.0
 10
-10.00249
 20
-14.73131
 30
0.0
 10
-10.00249
 20
-14.73131
 30
0.0
 10
-10.00073
 20
-14.73414
 30
0.0
 10
-9.99819
 20
-14.73555
 30
0.0
 10
-9.99487
 20
-14.73555
 30
0.0
 10
-9.99487
 20
-14.73555
 30
0.0
 10
-9.99156
 20
-14.73555
 30
0.0
 10
-9.98904
 20
-14.73414
 30
0.0
 10
-9.98728
 20
-14.73131
 30
0.0
 10
-9.98728
 20
-14.73131
 30
0.0
 10
-9.98554
 20
-14.72849
 30
0.0
 10
-9.98467
 20
-14.72442
 30
0.0
 10
-9.98467
 20
-14.71915
 30
0.0
 10
-9.98467
 20
-14.71915
 30
0.0
 10
-9.98467
 20
-14.71391
 30
0.0
 10
-9.98556
 20
-14.70986
 30
0.0
 10
-9.98732
 20
-14.70704
 30
0.0
 10
-9.98732
 20
-14.70704
 30
0.0
 10
-9.98909
 20
-14.70422
 30
0.0
 10
-9.9916
 20
-14.70281
 30
0.0
 10
-9.99487
 20
-14.70281
 30
0.0
  0
SPLINE
  5
85
330
1F
100
AcDbEntity
  8
Layer 1
 62
   250
100
AcDbSpline
210
0.0
220
0.0
230
1.0
 70
    11
 71
     3
 72
    36
 73
    32
 74
     0
 42
0.0000000001
 43
0.0000000001
 40
0.0
 40
0.0
 40
0.0
 40
0.0
 40
0.125
 40
0.125
 40
0.125
 40
0.125
 40
0.25
 40
0.25
 40
0.25
 40
0.25
 40
0.375
 40
0.375
 40
0.375
 40
0.375
 40
0.5
 40
0.5
 40
0.5
 40
0.5
 40
0.625
 40
0.625
 40
0.625
 40
0.625
 40
0.75
 40
0.75
 40
0.75
 40
0.75
 40
0.875
 40
0.875
 40
0.875
 40
0.875
 40
1.0
 40
1.0
 40
1.0
 40
1.0
 10
-9.99487
 20
-14.69124
 30
0.0
 10
-9.98634
 20
-14.69124
 30
0.0
 10
-9.97961
 20
-14.69371
 30
0.0
 10
-9.97469
 20
-14.69867
 30
0.0
 10
-9.97469
 20
-14.69867
 30
0.0
 10
-9.96978
 20
-14.70363
 30
0.0
 10
-9.96731
 20
-14.71045
 30
0.0
 10
-9.96731
 20
-14.71915
 30
0.0
 10
-9.96731
 20
-14.71915
 30
0.0
 10
-9.96731
 20
-14.72783
 30
0.0
 10
-9.96978
 20
-14.73468
 30
0.0
 10
-9.97469
 20
-14.73971
 30
0.0
 10
-9.97469
 20
-14.73971
 30
0.0
 10
-9.97961
 20
-14.74474
 30
0.0
 10
-9.98634
 20
-14.74726
 30
0.0
 10
-9.99487
 20
-14.74726
 30
0.0
 10
-9.99487
 20
-14.74726
 30
0.0
 10
-10.00341
 20
-14.74726
 30
0.0
 10
-10.01016
 20
-14.74474
 30
0.0
 10
-10.0151
 20
-14.73971
 30
0.0
 10
-10.0151
 20
-14.73971
 30
0.0
 10
-10.02004
 20
-14.73468
 30
0.0
 10
-10.02251
 20
-14.72783
 30
0.0
 10
-10.02251
 20
-14.71915
 30
0.0
 10
-10.02251
 20
-14.71915
 30
0.0
 10
-10.02251
 20
-14.7105
 30
0.0
 10
-10.02004
 20
-14.7037
 30
0.0
 10
-10.0151
 20
-14.69872
 30
0.0
 10
-10.0151
 20
-14.69872
 30
0.0
 10
-10.01016
 20
-14.69373
 30
0.0
 10
-10.00341
 20
-14.69124
 30
0.0
 10
-9.99487
 20
-14.69124
 30
0.0
  0
SPLINE
  5
86
330
1F
100
AcDbEntity
  8
Layer 1
 62
   250
100
AcDbSpline
210
0.0
220
0.0
230
1.0
 70
    11
 71
     3
 72
    20
 73
    16
 74
     0
 42
0.0000000001
 43
0.0000000001
 40
0.0
 40
0.0
 40
0.0
 40
0.0
 40
0.25
 40
0.25
 40
0.25
 40
0.25
 40
0.5
 40
0.5
 40
0.5
 40
0.5
 40
0.75
 40
0.75
 40
0.75
 40
0.75
 40
1.0
 40
1.0
 40
1.0
 40
1.0
 10
-10.05804
 20
-14.74726
 30
0.0
 10
-10.05804
 20
-14.74726
 30
0.0
 10
-10.07326
 20
-14.74726
 30
0.0
 10
-10.07326
 20
-14.74726
 30
0.0
 10
-10.07326
 20
-14.74726
 30
0.0
 10
-10.07326
 20
-14.74726
 30
0.0
 10
-10.00898
 20
-14.64053
 30
0.0
 10
-10.00898
 20
-14.64053
 30
0.0
 10
-10.00898
 20
-14.64053
 30
0.0
 10
-10.00898
 20
-14.64053
 30
0.0
 10
-9.9937
 20
-14.64053
 30
0.0
 10
-9.9937
 20
-14.64053
 30
0.0
 10
-9.9937
 20
-14.64053
 30
0.0
 10
-9.9937
 20
-14.64053
 30
0.0
 10
-10.05804
 20
-14.74726
 30
0.0
 10
-10.05804
 20
-14.74726
 30
0.0
  0
SPLINE
  5
87
330
1F
100
AcDbEntity
  8
Layer 1
 62
   250
100
AcDbSpline
210
0.0
220
0.0
230
1.0
 70
    11
 71
     3
 72
    36
 73
    32
 74
     0
 42
0.0000000001
 43
0.0000000001
 40
0.0
 40
0.0
 40
0.0
 40
0.0
 40
0.125
 40
0.125
 40
0.125
 40
0.125
 40
0.25
 40
0.25
 40
0.25
 40
0.25
 40
0.375
 40
0.375
 40
0.375
 40
0.375
 40
0.5
 40
0.5
 40
0.5
 40
0.5
 40
0.625
 40
0.625
 40
0.625
 40
0.625
 40
0.75
 40
0.75
 40
0.75
 40
0.75
 40
0.875
 40
0.875
 40
0.875
 40
0.875
 40
1.0
 40
1.0
 40
1.0
 40
1.0
 10
-10.07218
 20
-14.64053
 30
0.0
 10
-10.06364
 20
-14.64053
 30
0.0
 10
-10.05691
 20
-14.64303
 30
0.0
 10
-10.05202
 20
-14.64801
 30
0.0
 10
-10.05202
 20
-14.64801
 30
0.0
 10
-10.04713
 20
-14.653
 30
0.0
 10
-10.04469
 20
-14.65982
 30
0.0
 10
-10.04469
 20
-14.66852
 30
0.0
 10
-10.04469
 20
-14.66852
 30
0.0
 10
-10.04469
 20
-14.6772
 30
0.0
 10
-10.04713
 20
-14.68404
 30
0.0
 10
-10.05202
 20
-14.68905
 30
0.0
 10
-10.05202
 20
-14.68905
 30
0.0
 10
-10.05691
 20
-14.69406
 30
0.0
 10
-10.06364
 20
-14.69655
 30
0.0
 10
-10.07218
 20
-14.69655
 30
0.0
 10
-10.07218
 20
-14.69655
 30
0.0
 10
-10.08072
 20
-14.69655
 30
0.0
 10
-10.08744
 20
-14.69406
 30
0.0
 10
-10.09233
 20
-14.68905
 30
0.0
 10
-10.09233
 20
-14.68905
 30
0.0
 10
-10.09723
 20
-14.68404
 30
0.0
 10
-10.09967
 20
-14.6772
 30
0.0
 10
-10.09967
 20
-14.66852
 30
0.0
 10
-10.09967
 20
-14.66852
 30
0.0
 10
-10.09967
 20
-14.65982
 30
0.0
 10
-10.09723
 20
-14.653
 30
0.0
 10
-10.09233
 20
-14.64801
 30
0.0
 10
-10.09233
 20
-14.64801
 30
0.0
 10
-10.08744
 20
-14.64303
 30
0.0
 10
-10.08072
 20
-14.64053
 30
0.0
 10
-10.07218
 20
-14.64053
 30
0.0
  0
SPLINE
  5
88
330
1F
100
AcDbEntity
  8
Layer 1
 62
   250
100
AcDbSpline
210
0.0
220
0.0
230
1.0
 70
    11
 71
     3
 72
    36
 73
    32
 74
     0
 42
0.0000000001
 43
0.0000000001
 40
0.0
 40
0.0
 40
0.0
 40
0.0
 40
0.125
 40
0.125
 40
0.125
 40
0.125
 40
0.25
 40
0.25
 40
0.25
 40
0.25
 40
0.375
 40
0.375
 40
0.375
 40
0.375
 40
0.5
 40
0.5
 40
0.5
 40
0.5
 40
0.625
 40
0.625
 40
0.625
 40
0.625
 40
0.75
 40
0.75
 40
0.75
 40
0.75
 40
0.875
 40
0.875
 40
0.875
 40
0.875
 40
1.0
 40
1.0
 40
1.0
 40
1.0
 10
-10.07218
 20
-14.6521
 30
0.0
 10
-10.07547
 20
-14.6521
 30
0.0
 10
-10.07803
 20
-14.65354
 30
0.0
 10
-10.07982
 20
-14.65638
 30
0.0
 10
-10.07982
 20
-14.65638
 30
0.0
 10
-10.08161
 20
-14.65923
 30
0.0
 10
-10.0825
 20
-14.66328
 30
0.0
 10
-10.0825
 20
-14.66852
 30
0.0
 10
-10.0825
 20
-14.66852
 30
0.0
 10
-10.0825
 20
-14.67379
 30
0.0
 10
-10.08161
 20
-14.67788
 30
0.0
 10
-10.07982
 20
-14.68075
 30
0.0
 10
-10.07982
 20
-14.68075
 30
0.0
 10
-10.07803
 20
-14.68362
 30
0.0
 10
-10.07547
 20
-14.68505
 30
0.0
 10
-10.07218
 20
-14.68505
 30
0.0
 10
-10.07218
 20
-14.68505
 30
0.0
 10
-10.06886
 20
-14.68505
 30
0.0
 10
-10.06632
 20
-14.68362
 30
0.0
 10
-10.06456
 20
-14.68075
 30
0.0
 10
-10.06456
 20
-14.68075
 30
0.0
 10
-10.06279
 20
-14.67788
 30
0.0
 10
-10.0619
 20
-14.67379
 30
0.0
 10
-10.0619
 20
-14.66852
 30
0.0
 10
-10.0619
 20
-14.66852
 30
0.0
 10
-10.0619
 20
-14.66328
 30
0.0
 10
-10.06279
 20
-14.65923
 30
0.0
 10
-10.06458
 20
-14.65638
 30
0.0
 10
-10.06458
 20
-14.65638
 30
0.0
 10
-10.06637
 20
-14.65354
 30
0.0
 10
-10.06891
 20
-14.6521
 30
0.0
 10
-10.07218
 20
-14.6521
 30
0.0
  0
SPLINE
  5
89
330
1F
100
AcDbEntity
  8
Layer 1
 62
   250
100
AcDbSpline
210
0.0
220
0.0
230
1.0
 70
    11
 71
     3
 72
    36
 73
    32
 74
     0
 42
0.0000000001
 43
0.0000000001
 40
0.0
 40
0.0
 40
0.0
 40
0.0
 40
0.125
 40
0.125
 40
0.125
 40
0.125
 40
0.25
 40
0.25
 40
0.25
 40
0.25
 40
0.375
 40
0.375
 40
0.375
 40
0.375
 40
0.5
 40
0.5
 40
0.5
 40
0.5
 40
0.625
 40
0.625
 40
0.625
 40
0.625
 40
0.75
 40
0.75
 40
0.75
 40
0.75
 40
0.875
 40
0.875
 40
0.875
 40
0.875
 40
1.0
 40
1.0
 40
1.0
 40
1.0
 10
-10.86038
 20
-15.46378
 30
0.0
 10
-10.86495
 20
-15.46378
 30
0.0
 10
-10.8684
 20
-15.46555
 30
0.0
 10
-10.87075
 20
-15.4691
 30
0.0
 10
-10.87075
 20
-15.4691
 30
0.0
 10
-10.8731
 20
-15.47265
 30
0.0
 10
-10.87427
 20
-15.47792
 30
0.0
 10
-10.87427
 20
-15.48487
 30
0.0
 10
-10.87427
 20
-15.48487
 30
0.0
 10
-10.87427
 20
-15.4918
 30
0.0
 10
-10.8731
 20
-15.49705
 30
0.0
 10
-10.87075
 20
-15.50062
 30
0.0
 10
-10.87075
 20
-15.50062
 30
0.0
 10
-10.8684
 20
-15.50419
 30
0.0
 10
-10.86495
 20
-15.50597
 30
0.0
 10
-10.86038
 20
-15.50597
 30
0.0
 10
-10.86038
 20
-15.50597
 30
0.0
 10
-10.8558
 20
-15.50597
 30
0.0
 10
-10.85233
 20
-15.50419
 30
0.0
 10
-10.84998
 20
-15.50062
 30
0.0
 10
-10.84998
 20
-15.50062
 30
0.0
 10
-10.84763
 20
-15.49705
 30
0.0
 10
-10.84647
 20
-15.4918
 30
0.0
 10
-10.84647
 20
-15.48487
 30
0.0
 10
-10.84647
 20
-15.48487
 30
0.0
 10
-10.84647
 20
-15.47792
 30
0.0
 10
-10.84763
 20
-15.47265
 30
0.0
 10
-10.84998
 20
-15.4691
 30
0.0
 10
-10.84998
 20
-15.4691
 30
0.0
 10
-10.85233
 20
-15.46555
 30
0.0
 10
-10.8558
 20
-15.46378
 30
0.0
 10
-10.86038
 20
-15.46378
 30
0.0
  0
SPLINE
  5
8A
330
1F
100
AcDbEntity
  8
Layer 1
 62
   250
100
AcDbSpline
210
0.0
220
0.0
230
1.0
 70
    11
 71
     3
 72
    36
 73
    32
 74
     0
 42
0.0000000001
 43
0.0000000001
 40
0.0
 40
0.0
 40
0.0
 40
0.0
 40
0.125
 40
0.125
 40
0.125
 40
0.125
 40
0.25
 40
0.25
 40
0.25
 40
0.25
 40
0.375
 40
0.375
 40
0.375
 40
0.375
 40
0.5
 40
0.5
 40
0.5
 40
0.5
 40
0.625
 40
0.625
 40
0.625
 40
0.625
 40
0.75
 40
0.75
 40
0.75
 40
0.75
 40
0.875
 40
0.875
 40
0.875
 40
0.875
 40
1.0
 40
1.0
 40
1.0
 40
1.0
 10
-10.86038
 20
-15.45616
 30
0.0
 10
-10.8528
 20
-15.45616
 30
0.0
 10
-10.847
 20
-15.45861
 30
0.0
 10
-10.84298
 20
-15.46353
 30
0.0
 10
-10.84298
 20
-15.46353
 30
0.0
 10
-10.83896
 20
-15.46845
 30
0.0
 10
-10.83695
 20
-15.47557
 30
0.0
 10
-10.83695
 20
-15.48487
 30
0.0
 10
-10.83695
 20
-15.48487
 30
0.0
 10
-10.83695
 20
-15.49422
 30
0.0
 10
-10.83895
 20
-15.50134
 30
0.0
 10
-10.84295
 20
-15.50624
 30
0.0
 10
-10.84295
 20
-15.50624
 30
0.0
 10
-10.84697
 20
-15.51114
 30
0.0
 10
-10.85277
 20
-15.51359
 30
0.0
 10
-10.86038
 20
-15.51359
 30
0.0
 10
-10.86038
 20
-15.51359
 30
0.0
 10
-10.86798
 20
-15.51359
 30
0.0
 10
-10.87377
 20
-15.51114
 30
0.0
 10
-10.87779
 20
-15.50624
 30
0.0
 10
-10.87779
 20
-15.50624
 30
0.0
 10
-10.88179
 20
-15.50134
 30
0.0
 10
-10.88379
 20
-15.49422
 30
0.0
 10
-10.88379
 20
-15.48487
 30
0.0
 10
-10.88379
 20
-15.48487
 30
0.0
 10
-10.88379
 20
-15.47557
 30
0.0
 10
-10.88179
 20
-15.46845
 30
0.0
 10
-10.87779
 20
-15.46353
 30
0.0
 10
-10.87779
 20
-15.46353
 30
0.0
 10
-10.87377
 20
-15.45861
 30
0.0
 10
-10.86798
 20
-15.45616
 30
0.0
 10
-10.86038
 20
-15.45616
 30
0.0
  0
SPLINE
  5
8B
330
1F
100
AcDbEntity
  8
Layer 1
 62
   250
100
AcDbSpline
210
0.0
220
0.0
230
1.0
 70
    11
 71
     3
 72
    36
 73
    32
 74
     0
 42
0.0000000001
 43
0.0000000001
 40
0.0
 40
0.0
 40
0.0
 40
0.0
 40
0.125
 40
0.125
 40
0.125
 40
0.125
 40
0.25
 40
0.25
 40
0.25
 40
0.25
 40
0.375
 40
0.375
 40
0.375
 40
0.375
 40
0.5
 40
0.5
 40
0.5
 40
0.5
 40
0.625
 40
0.625
 40
0.625
 40
0.625
 40
0.75
 40
0.75
 40
0.75
 40
0.75
 40
0.875
 40
0.875
 40
0.875
 40
0.875
 40
1.0
 40
1.0
 40
1.0
 40
1.0
 10
-10.80017
 20
-15.46378
 30
0.0
 10
-10.80474
 20
-15.46378
 30
0.0
 10
-10.80819
 20
-15.46555
 30
0.0
 10
-10.81054
 20
-15.4691
 30
0.0
 10
-10.81054
 20
-15.4691
 30
0.0
 10
-10.81289
 20
-15.47265
 30
0.0
 10
-10.81406
 20
-15.47792
 30
0.0
 10
-10.81406
 20
-15.48487
 30
0.0
 10
-10.81406
 20
-15.48487
 30
0.0
 10
-10.81406
 20
-15.4918
 30
0.0
 10
-10.81289
 20
-15.49705
 30
0.0
 10
-10.81054
 20
-15.50062
 30
0.0
 10
-10.81054
 20
-15.50062
 30
0.0
 10
-10.80819
 20
-15.50419
 30
0.0
 10
-10.80474
 20
-15.50597
 30
0.0
 10
-10.80017
 20
-15.50597
 30
0.0
 10
-10.80017
 20
-15.50597
 30
0.0
 10
-10.79559
 20
-15.50597
 30
0.0
 10
-10.79212
 20
-15.50419
 30
0.0
 10
-10.78977
 20
-15.50062
 30
0.0
 10
-10.78977
 20
-15.50062
 30
0.0
 10
-10.78742
 20
-15.49705
 30
0.0
 10
-10.78626
 20
-15.4918
 30
0.0
 10
-10.78626
 20
-15.48487
 30
0.0
 10
-10.78626
 20
-15.48487
 30
0.0
 10
-10.78626
 20
-15.47792
 30
0.0
 10
-10.78742
 20
-15.47265
 30
0.0
 10
-10.78977
 20
-15.4691
 30
0.0
 10
-10.78977
 20
-15.4691
 30
0.0
 10
-10.79212
 20
-15.46555
 30
0.0
 10
-10.79559
 20
-15.46378
 30
0.0
 10
-10.80017
 20
-15.46378
 30
0.0
  0
SPLINE
  5
8C
330
1F
100
AcDbEntity
  8
Layer 1
 62
   250
100
AcDbSpline
210
0.0
220
0.0
230
1.0
 70
    11
 71
     3
 72
    36
 73
    32
 74
     0
 42
0.0000000001
 43
0.0000000001
 40
0.0
 40
0.0
 40
0.0
 40
0.0
 40
0.125
 40
0.125
 40
0.125
 40
0.125
 40
0.25
 40
0.25
 40
0.25
 40
0.25
 40
0.375
 40
0.375
 40
0.375
 40
0.375
 40
0.5
 40
0.5
 40
0.5
 40
0.5
 40
0.625
 40
0.625
 40
0.625
 40
0.625
 40
0.75
 40
0.75
 40
0.75
 40
0.75
 40
0.875
 40
0.875
 40
0.875
 40
0.875
 40
1.0
 40
1.0
 40
1.0
 40
1.0
 10
-10.80017
 20
-15.45616
 30
0.0
 10
-10.79259
 20
-15.45616
 30
0.0
 10
-10.78679
 20
-15.45861
 30
0.0
 10
-10.78277
 20
-15.46353
 30
0.0
 10
-10.78277
 20
-15.46353
 30
0.0
 10
-10.77875
 20
-15.46845
 30
0.0
 10
-10.77674
 20
-15.47557
 30
0.0
 10
-10.77674
 20
-15.48487
 30
0.0
 10
-10.77674
 20
-15.48487
 30
0.0
 10
-10.77674
 20
-15.49422
 30
0.0
 10
-10.77874
 20
-15.50134
 30
0.0
 10
-10.78274
 20
-15.50624
 30
0.0
 10
-10.78274
 20
-15.50624
 30
0.0
 10
-10.78676
 20
-15.51114
 30
0.0
 10
-10.79256
 20
-15.51359
 30
0.0
 10
-10.80017
 20
-15.51359
 30
0.0
 10
-10.80017
 20
-15.51359
 30
0.0
 10
-10.80777
 20
-15.51359
 30
0.0
 10
-10.81356
 20
-15.51114
 30
0.0
 10
-10.81758
 20
-15.50624
 30
0.0
 10
-10.81758
 20
-15.50624
 30
0.0
 10
-10.82158
 20
-15.50134
 30
0.0
 10
-10.82358
 20
-15.49422
 30
0.0
 10
-10.82358
 20
-15.48487
 30
0.0
 10
-10.82358
 20
-15.48487
 30
0.0
 10
-10.82358
 20
-15.47557
 30
0.0
 10
-10.82158
 20
-15.46845
 30
0.0
 10
-10.81758
 20
-15.46353
 30
0.0
 10
-10.81758
 20
-15.46353
 30
0.0
 10
-10.81356
 20
-15.45861
 30
0.0
 10
-10.80777
 20
-15.45616
 30
0.0
 10
-10.80017
 20
-15.45616
 30
0.0
  0
SPLINE
  5
8D
330
1F
100
AcDbEntity
  8
Layer 1
 62
   250
100
AcDbSpline
210
0.0
220
0.0
230
1.0
 70
    11
 71
     3
 72
   112
 73
   108
 74
     0
 42
0.0000000001
 43
0.0000000001
 40
0.0
 40
0.0
 40
0.0
 40
0.0
 40
0.037037037037037
 40
0.037037037037037
 40
0.037037037037037
 40
0.037037037037037
 40
0.0740740740740741
 40
0.0740740740740741
 40
0.0740740740740741
 40
0.0740740740740741
 40
0.1111111111111111
 40
0.1111111111111111
 40
0.1111111111111111
 40
0.1111111111111111
 40
0.1481481481481481
 40
0.1481481481481481
 40
0.1481481481481481
 40
0.1481481481481481
 40
0.1851851851851852
 40
0.1851851851851852
 40
0.1851851851851852
 40
0.1851851851851852
 40
0.2222222222222222
 40
0.2222222222222222
 40
0.2222222222222222
 40
0.2222222222222222
 40
0.2592592592592592
 40
0.2592592592592592
 40
0.2592592592592592
 40
0.2592592592592592
 40
0.2962962962962963
 40
0.2962962962962963
 40
0.2962962962962963
 40
0.2962962962962963
 40
0.3333333333333333
 40
0.3333333333333333
 40
0.3333333333333333
 40
0.3333333333333333
 40
0.3703703703703703
 40
0.3703703703703703
 40
0.3703703703703703
 40
0.3703703703703703
 40
0.4074074074074074
 40
0.4074074074074074
 40
0.4074074074074074
 40
0.4074074074074074
 40
0.4444444444444444
 40
0.4444444444444444
 40
0.4444444444444444
 40
0.4444444444444444
 40
0.4814814814814815
 40
0.4814814814814815
 40
0.4814814814814815
 40
0.4814814814814815
 40
0.5185185185185185
 40
0.5185185185185185
 40
0.5185185185185185
 40
0.5185185185185185
 40
0.5555555555555556
 40
0.5555555555555556
 40
0.5555555555555556
 40
0.5555555555555556
 40
0.5925925925925926
 40
0.5925925925925926
 40
0.5925925925925926
 40
0.5925925925925926
 40
0.6296296296296295
 40
0.6296296296296295
 40
0.6296296296296295
 40
0.6296296296296295
 40
0.6666666666666665
 40
0.6666666666666665
 40
0.6666666666666665
 40
0.6666666666666665
 40
0.7037037037037035
 40
0.7037037037037035
 40
0.7037037037037035
 40
0.7037037037037035
 40
0.7407407407407405
 40
0.7407407407407405
 40
0.7407407407407405
 40
0.7407407407407405
 40
0.7777777777777775
 40
0.7777777777777775
 40
0.7777777777777775
 40
0.7777777777777775
 40
0.8148148148148144
 40
0.8148148148148144
 40
0.8148148148148144
 40
0.8148148148148144
 40
0.8518518518518514
 40
0.8518518518518514
 40
0.8518518518518514
 40
0.8518518518518514
 40
0.8888888888888884
 40
0.8888888888888884
 40
0.8888888888888884
 40
0.8888888888888884
 40
0.9259259259259254
 40
0.9259259259259254
 40
0.9259259259259254
 40
0.9259259259259254
 40
0.9629629629629624
 40
0.9629629629629624
 40
0.9629629629629624
 40
0.9629629629629624
 40
1.0
 40
1.0
 40
1.0
 40
1.0
 10
-10.73705
 20
-15.46305
 30
0.0
 10
-10.73595
 20
-15.4607
 30
0.0
 10
-10.73453
 20
-15.45896
 30
0.0
 10
-10.73281
 20
-15.45785
 30
0.0
 10
-10.73281
 20
-15.45785
 30
0.0
 10
-10.73111
 20
-15.45673
 30
0.0
 10
-10.72905
 20
-15.45616
 30
0.0
 10
-10.72665
 20
-15.45616
 30
0.0
 10
-10.72665
 20
-15.45616
 30
0.0
 10
-10.72225
 20
-15.45616
 30
0.0
 10
-10.71914
 20
-15.45786
 30
0.0
 10
-10.71734
 20
-15.46126
 30
0.0
 10
-10.71734
 20
-15.46126
 30
0.0
 10
-10.71553
 20
-15.46467
 30
0.0
 10
-10.71463
 20
-15.47107
 30
0.0
 10
-10.71463
 20
-15.48048
 30
0.0
 10
-10.71463
 20
-15.48048
 30
0.0
 10
-10.71463
 20
-15.48048
 30
0.0
 10
-10.71463
 20
-15.51217
 30
0.0
 10
-10.71463
 20
-15.51217
 30
0.0
 10
-10.71463
 20
-15.51217
 30
0.0
 10
-10.71463
 20
-15.51217
 30
0.0
 10
-10.72283
 20
-15.51217
 30
0.0
 10
-10.72283
 20
-15.51217
 30
0.0
 10
-10.72283
 20
-15.51217
 30
0.0
 10
-10.72283
 20
-15.51217
 30
0.0
 10
-10.72283
 20
-15.48087
 30
0.0
 10
-10.72283
 20
-15.48087
 30
0.0
 10
-10.72283
 20
-15.48087
 30
0.0
 10
-10.72283
 20
-15.47315
 30
0.0
 10
-10.72326
 20
-15.46837
 30
0.0
 10
-10.72413
 20
-15.46648
 30
0.0
 10
-10.72413
 20
-15.46648
 30
0.0
 10
-10.72498
 20
-15.46462
 30
0.0
 10
-10.72656
 20
-15.46368
 30
0.0
 10
-10.72885
 20
-15.46368
 30
0.0
 10
-10.72885
 20
-15.46368
 30
0.0
 10
-10.73145
 20
-15.46368
 30
0.0
 10
-10.73323
 20
-15.46468
 30
0.0
 10
-10.7342
 20
-15.46668
 30
0.0
 10
-10.7342
 20
-15.46668
 30
0.0
 10
-10.73515
 20
-15.46868
 30
0.0
 10
-10.73563
 20
-15.47342
 30
0.0
 10
-10.73563
 20
-15.48087
 30
0.0
 10
-10.73563
 20
-15.48087
 30
0.0
 10
-10.73563
 20
-15.48087
 30
0.0
 10
-10.73563
 20
-15.51217
 30
0.0
 10
-10.73563
 20
-15.51217
 30
0.0
 10
-10.73563
 20
-15.51217
 30
0.0
 10
-10.73563
 20
-15.51217
 30
0.0
 10
-10.74383
 20
-15.51217
 30
0.0
 10
-10.74383
 20
-15.51217
 30
0.0
 10
-10.74383
 20
-15.51217
 30
0.0
 10
-10.74383
 20
-15.51217
 30
0.0
 10
-10.74383
 20
-15.48087
 30
0.0
 10
-10.74383
 20
-15.48087
 30
0.0
 10
-10.74383
 20
-15.48087
 30
0.0
 10
-10.74383
 20
-15.47305
 30
0.0
 10
-10.7443
 20
-15.46823
 30
0.0
 10
-10.74523
 20
-15.46642
 30
0.0
 10
-10.74523
 20
-15.46642
 30
0.0
 10
-10.74615
 20
-15.4646
 30
0.0
 10
-10.74781
 20
-15.46368
 30
0.0
 10
-10.75023
 20
-15.46368
 30
0.0
 10
-10.75023
 20
-15.46368
 30
0.0
 10
-10.75261
 20
-15.46368
 30
0.0
 10
-10.75427
 20
-15.46468
 30
0.0
 10
-10.75518
 20
-15.46668
 30
0.0
 10
-10.75518
 20
-15.46668
 30
0.0
 10
-10.75612
 20
-15.46868
 30
0.0
 10
-10.75658
 20
-15.47342
 30
0.0
 10
-10.75658
 20
-15.48087
 30
0.0
 10
-10.75658
 20
-15.48087
 30
0.0
 10
-10.75658
 20
-15.48087
 30
0.0
 10
-10.75658
 20
-15.51217
 30
0.0
 10
-10.75658
 20
-15.51217
 30
0.0
 10
-10.75658
 20
-15.51217
 30
0.0
 10
-10.75658
 20
-15.51217
 30
0.0
 10
-10.76473
 20
-15.51217
 30
0.0
 10
-10.76473
 20
-15.51217
 30
0.0
 10
-10.76473
 20
-15.51217
 30
0.0
 10
-10.76473
 20
-15.51217
 30
0.0
 10
-10.76473
 20
-15.45748
 30
0.0
 10
-10.76473
 20
-15.45748
 30
0.0
 10
-10.76473
 20
-15.45748
 30
0.0
 10
-10.76473
 20
-15.45748
 30
0.0
 10
-10.75658
 20
-15.45748
 30
0.0
 10
-10.75658
 20
-15.45748
 30
0.0
 10
-10.75658
 20
-15.45748
 30
0.0
 10
-10.75658
 20
-15.45748
 30
0.0
 10
-10.75658
 20
-15.46216
 30
0.0
 10
-10.75658
 20
-15.46216
 30
0.0
 10
-10.75658
 20
-15.46216
 30
0.0
 10
-10.75552
 20
-15.46021
 30
0.0
 10
-10.75417
 20
-15.45873
 30
0.0
 10
-10.75255
 20
-15.4577
 30
0.0
 10
-10.75255
 20
-15.4577
 30
0.0
 10
-10.75095
 20
-15.45668
 30
0.0
 10
-10.74911
 20
-15.45616
 30
0.0
 10
-10.74706
 20
-15.45616
 30
0.0
 10
-10.74706
 20
-15.45616
 30
0.0
 10
-10.74458
 20
-15.45616
 30
0.0
 10
-10.74253
 20
-15.45673
 30
0.0
 10
-10.74088
 20
-15.45786
 30
0.0
 10
-10.74088
 20
-15.45786
 30
0.0
 10
-10.73923
 20
-15.45901
 30
0.0
 10
-10.73796
 20
-15.46073
 30
0.0
 10
-10.73705
 20
-15.46305
 30
0.0
  0
SPLINE
  5
8E
330
1F
100
AcDbEntity
  8
Layer 1
 62
   250
100
AcDbSpline
210
0.0
220
0.0
230
1.0
 70
    11
 71
     3
 72
    20
 73
    16
 74
     0
 42
0.0000000001
 43
0.0000000001
 40
0.0
 40
0.0
 40
0.0
 40
0.0
 40
0.25
 40
0.25
 40
0.25
 40
0.25
 40
0.5
 40
0.5
 40
0.5
 40
0.5
 40
0.75
 40
0.75
 40
0.75
 40
0.75
 40
1.0
 40
1.0
 40
1.0
 40
1.0
 10
-10.68595
 20
-15.49727
 30
0.0
 10
-10.68595
 20
-15.49727
 30
0.0
 10
-10.67365
 20
-15.49727
 30
0.0
 10
-10.67365
 20
-15.49727
 30
0.0
 10
-10.67365
 20
-15.49727
 30
0.0
 10
-10.67365
 20
-15.49727
 30
0.0
 10
-10.67365
 20
-15.51217
 30
0.0
 10
-10.67365
 20
-15.51217
 30
0.0
 10
-10.67365
 20
-15.51217
 30
0.0
 10
-10.67365
 20
-15.51217
 30
0.0
 10
-10.68595
 20
-15.51217
 30
0.0
 10
-10.68595
 20
-15.51217
 30
0.0
 10
-10.68595
 20
-15.51217
 30
0.0
 10
-10.68595
 20
-15.51217
 30
0.0
 10
-10.68595
 20
-15.49727
 30
0.0
 10
-10.68595
 20
-15.49727
 30
0.0
  0
SPLINE
  5
8F
330
1F
100
AcDbEntity
  8
Layer 1
 62
   250
100
AcDbSpline
210
0.0
220
0.0
230
1.0
 70
    11
 71
     3
 72
    52
 73
    48
 74
     0
 42
0.0000000001
 43
0.0000000001
 40
0.0
 40
0.0
 40
0.0
 40
0.0
 40
0.0833333333333333
 40
0.0833333333333333
 40
0.0833333333333333
 40
0.0833333333333333
 40
0.1666666666666667
 40
0.1666666666666667
 40
0.1666666666666667
 40
0.1666666666666667
 40
0.25
 40
0.25
 40
0.25
 40
0.25
 40
0.3333333333333333
 40
0.3333333333333333
 40
0.3333333333333333
 40
0.3333333333333333
 40
0.4166666666666666
 40
0.4166666666666666
 40
0.4166666666666666
 40
0.4166666666666666
 40
0.4999999999999999
 40
0.4999999999999999
 40
0.4999999999999999
 40
0.4999999999999999
 40
0.5833333333333333
 40
0.5833333333333333
 40
0.5833333333333333
 40
0.5833333333333333
 40
0.6666666666666666
 40
0.6666666666666666
 40
0.6666666666666666
 40
0.6666666666666666
 40
0.75
 40
0.75
 40
0.75
 40
0.75
 40
0.8333333333333334
 40
0.8333333333333334
 40
0.8333333333333334
 40
0.8333333333333334
 40
0.9166666666666667
 40
0.9166666666666667
 40
0.9166666666666667
 40
0.9166666666666667
 40
1.0
 40
1.0
 40
1.0
 40
1.0
 10
-10.61843
 20
-15.49235
 30
0.0
 10
-10.61843
 20
-15.49639
 30
0.0
 10
-10.61769
 20
-15.49942
 30
0.0
 10
-10.61621
 20
-15.50147
 30
0.0
 10
-10.61621
 20
-15.50147
 30
0.0
 10
-10.61473
 20
-15.50352
 30
0.0
 10
-10.61254
 20
-15.50455
 30
0.0
 10
-10.60964
 20
-15.50455
 30
0.0
 10
-10.60964
 20
-15.50455
 30
0.0
 10
-10.60964
 20
-15.50455
 30
0.0
 10
-10.59914
 20
-15.50455
 30
0.0
 10
-10.59914
 20
-15.50455
 30
0.0
 10
-10.59914
 20
-15.50455
 30
0.0
 10
-10.59914
 20
-15.50455
 30
0.0
 10
-10.59914
 20
-15.51217
 30
0.0
 10
-10.59914
 20
-15.51217
 30
0.0
 10
-10.59914
 20
-15.51217
 30
0.0
 10
-10.59914
 20
-15.51217
 30
0.0
 10
-10.61051
 20
-15.51217
 30
0.0
 10
-10.61051
 20
-15.51217
 30
0.0
 10
-10.61051
 20
-15.51217
 30
0.0
 10
-10.61589
 20
-15.51217
 30
0.0
 10
-10.62004
 20
-15.51044
 30
0.0
 10
-10.62299
 20
-15.50699
 30
0.0
 10
-10.62299
 20
-15.50699
 30
0.0
 10
-10.62594
 20
-15.50354
 30
0.0
 10
-10.62741
 20
-15.49865
 30
0.0
 10
-10.62741
 20
-15.49235
 30
0.0
 10
-10.62741
 20
-15.49235
 30
0.0
 10
-10.62741
 20
-15.49235
 30
0.0
 10
-10.62741
 20
-15.44268
 30
0.0
 10
-10.62741
 20
-15.44268
 30
0.0
 10
-10.62741
 20
-15.44268
 30
0.0
 10
-10.62741
 20
-15.44268
 30
0.0
 10
-10.64181
 20
-15.44268
 30
0.0
 10
-10.64181
 20
-15.44268
 30
0.0
 10
-10.64181
 20
-15.44268
 30
0.0
 10
-10.64181
 20
-15.44268
 30
0.0
 10
-10.64181
 20
-15.43565
 30
0.0
 10
-10.64181
 20
-15.43565
 30
0.0
 10
-10.64181
 20
-15.43565
 30
0.0
 10
-10.64181
 20
-15.43565
 30
0.0
 10
-10.61843
 20
-15.43565
 30
0.0
 10
-10.61843
 20
-15.43565
 30
0.0
 10
-10.61843
 20
-15.43565
 30
0.0
 10
-10.61843
 20
-15.43565
 30
0.0
 10
-10.61843
 20
-15.49235
 30
0.0
 10
-10.61843
 20
-15.49235
 30
0.0
  0
SPLINE
  5
90
330
1F
100
AcDbEntity
  8
Layer 1
 62
   250
100
AcDbSpline
210
0.0
220
0.0
230
1.0
 70
    11
 71
     3
 72
    76
 73
    72
 74
     0
 42
0.0000000001
 43
0.0000000001
 40
0.0
 40
0.0
 40
0.0
 40
0.0
 40
0.0555555555555556
 40
0.0555555555555556
 40
0.0555555555555556
 40
0.0555555555555556
 40
0.1111111111111111
 40
0.1111111111111111
 40
0.1111111111111111
 40
0.1111111111111111
 40
0.1666666666666667
 40
0.1666666666666667
 40
0.1666666666666667
 40
0.1666666666666667
 40
0.2222222222222222
 40
0.2222222222222222
 40
0.2222222222222222
 40
0.2222222222222222
 40
0.2777777777777778
 40
0.2777777777777778
 40
0.2777777777777778
 40
0.2777777777777778
 40
0.3333333333333334
 40
0.3333333333333334
 40
0.3333333333333334
 40
0.3333333333333334
 40
0.388888888888889
 40
0.388888888888889
 40
0.388888888888889
 40
0.388888888888889
 40
0.4444444444444445
 40
0.4444444444444445
 40
0.4444444444444445
 40
0.4444444444444445
 40
0.5000000000000001
 40
0.5000000000000001
 40
0.5000000000000001
 40
0.5000000000000001
 40
0.5555555555555557
 40
0.5555555555555557
 40
0.5555555555555557
 40
0.5555555555555557
 40
0.6111111111111113
 40
0.6111111111111113
 40
0.6111111111111113
 40
0.6111111111111113
 40
0.6666666666666669
 40
0.6666666666666669
 40
0.6666666666666669
 40
0.6666666666666669
 40
0.7222222222222224
 40
0.7222222222222224
 40
0.7222222222222224
 40
0.7222222222222224
 40
0.777777777777778
 40
0.777777777777778
 40
0.777777777777778
 40
0.777777777777778
 40
0.8333333333333336
 40
0.8333333333333336
 40
0.8333333333333336
 40
0.8333333333333336
 40
0.8888888888888892
 40
0.8888888888888892
 40
0.8888888888888892
 40
0.8888888888888892
 40
0.9444444444444448
 40
0.9444444444444448
 40
0.9444444444444448
 40
0.9444444444444448
 40
1.0
 40
1.0
 40
1.0
 40
1.0
 10
-10.55943
 20
-15.44195
 30
0.0
 10
-10.55943
 20
-15.44195
 30
0.0
 10
-10.55943
 20
-15.45748
 30
0.0
 10
-10.55943
 20
-15.45748
 30
0.0
 10
-10.55943
 20
-15.45748
 30
0.0
 10
-10.55943
 20
-15.45748
 30
0.0
 10
-10.53901
 20
-15.45748
 30
0.0
 10
-10.53901
 20
-15.45748
 30
0.0
 10
-10.53901
 20
-15.45748
 30
0.0
 10
-10.53901
 20
-15.45748
 30
0.0
 10
-10.53901
 20
-15.46447
 30
0.0
 10
-10.53901
 20
-15.46447
 30
0.0
 10
-10.53901
 20
-15.46447
 30
0.0
 10
-10.53901
 20
-15.46447
 30
0.0
 10
-10.55943
 20
-15.46447
 30
0.0
 10
-10.55943
 20
-15.46447
 30
0.0
 10
-10.55943
 20
-15.46447
 30
0.0
 10
-10.55943
 20
-15.46447
 30
0.0
 10
-10.55943
 20
-15.49415
 30
0.0
 10
-10.55943
 20
-15.49415
 30
0.0
 10
-10.55943
 20
-15.49415
 30
0.0
 10
-10.55943
 20
-15.49819
 30
0.0
 10
-10.55867
 20
-15.501
 30
0.0
 10
-10.55713
 20
-15.50259
 30
0.0
 10
-10.55713
 20
-15.50259
 30
0.0
 10
-10.5556
 20
-15.50419
 30
0.0
 10
-10.55293
 20
-15.50499
 30
0.0
 10
-10.54913
 20
-15.50499
 30
0.0
 10
-10.54913
 20
-15.50499
 30
0.0
 10
-10.54913
 20
-15.50499
 30
0.0
 10
-10.53901
 20
-15.50499
 30
0.0
 10
-10.53901
 20
-15.50499
 30
0.0
 10
-10.53901
 20
-15.50499
 30
0.0
 10
-10.53901
 20
-15.50499
 30
0.0
 10
-10.53901
 20
-15.51217
 30
0.0
 10
-10.53901
 20
-15.51217
 30
0.0
 10
-10.53901
 20
-15.51217
 30
0.0
 10
-10.53901
 20
-15.51217
 30
0.0
 10
-10.55
 20
-15.51217
 30
0.0
 10
-10.55
 20
-15.51217
 30
0.0
 10
-10.55
 20
-15.51217
 30
0.0
 10
-10.55675
 20
-15.51217
 30
0.0
 10
-10.5615
 20
-15.51082
 30
0.0
 10
-10.56427
 20
-15.50812
 30
0.0
 10
-10.56427
 20
-15.50812
 30
0.0
 10
-10.56703
 20
-15.50542
 30
0.0
 10
-10.56842
 20
-15.50075
 30
0.0
 10
-10.56842
 20
-15.49415
 30
0.0
 10
-10.56842
 20
-15.49415
 30
0.0
 10
-10.56842
 20
-15.49415
 30
0.0
 10
-10.56842
 20
-15.46447
 30
0.0
 10
-10.56842
 20
-15.46447
 30
0.0
 10
-10.56842
 20
-15.46447
 30
0.0
 10
-10.56842
 20
-15.46447
 30
0.0
 10
-10.58302
 20
-15.46447
 30
0.0
 10
-10.58302
 20
-15.46447
 30
0.0
 10
-10.58302
 20
-15.46447
 30
0.0
 10
-10.58302
 20
-15.46447
 30
0.0
 10
-10.58302
 20
-15.45748
 30
0.0
 10
-10.58302
 20
-15.45748
 30
0.0
 10
-10.58302
 20
-15.45748
 30
0.0
 10
-10.58302
 20
-15.45748
 30
0.0
 10
-10.56842
 20
-15.45748
 30
0.0
 10
-10.56842
 20
-15.45748
 30
0.0
 10
-10.56842
 20
-15.45748
 30
0.0
 10
-10.56842
 20
-15.45748
 30
0.0
 10
-10.56842
 20
-15.44195
 30
0.0
 10
-10.56842
 20
-15.44195
 30
0.0
 10
-10.56842
 20
-15.44195
 30
0.0
 10
-10.56842
 20
-15.44195
 30
0.0
 10
-10.55943
 20
-15.44195
 30
0.0
 10
-10.55943
 20
-15.44195
 30
0.0
  0
SPLINE
  5
91
330
1F
100
AcDbEntity
  8
Layer 1
 62
   250
100
AcDbSpline
210
0.0
220
0.0
230
1.0
 70
    11
 71
     3
 72
    20
 73
    16
 74
     0
 42
0.0000000001
 43
0.0000000001
 40
0.0
 40
0.0
 40
0.0
 40
0.0
 40
0.25
 40
0.25
 40
0.25
 40
0.25
 40
0.5
 40
0.5
 40
0.5
 40
0.5
 40
0.75
 40
0.75
 40
0.75
 40
0.75
 40
1.0
 40
1.0
 40
1.0
 40
1.0
 10
-10.48579
 20
-15.43926
 30
0.0
 10
-10.48579
 20
-15.43926
 30
0.0
 10
-10.4765
 20
-15.43926
 30
0.0
 10
-10.4765
 20
-15.43926
 30
0.0
 10
-10.4765
 20
-15.43926
 30
0.0
 10
-10.4765
 20
-15.43926
 30
0.0
 10
-10.51489
 20
-15.52145
 30
0.0
 10
-10.51489
 20
-15.52145
 30
0.0
 10
-10.51489
 20
-15.52145
 30
0.0
 10
-10.51489
 20
-15.52145
 30
0.0
 10
-10.52423
 20
-15.52145
 30
0.0
 10
-10.52423
 20
-15.52145
 30
0.0
 10
-10.52423
 20
-15.52145
 30
0.0
 10
-10.52423
 20
-15.52145
 30
0.0
 10
-10.48579
 20
-15.43926
 30
0.0
 10
-10.48579
 20
-15.43926
 30
0.0
  0
SPLINE
  5
92
330
1F
100
AcDbEntity
  8
Layer 1
 62
   250
100
AcDbSpline
210
0.0
220
0.0
230
1.0
 70
    11
 71
     3
 72
    68
 73
    64
 74
     0
 42
0.0000000001
 43
0.0000000001
 40
0.0
 40
0.0
 40
0.0
 40
0.0
 40
0.0625
 40
0.0625
 40
0.0625
 40
0.0625
 40
0.125
 40
0.125
 40
0.125
 40
0.125
 40
0.1875
 40
0.1875
 40
0.1875
 40
0.1875
 40
0.25
 40
0.25
 40
0.25
 40
0.25
 40
0.3125
 40
0.3125
 40
0.3125
 40
0.3125
 40
0.375
 40
0.375
 40
0.375
 40
0.375
 40
0.4375
 40
0.4375
 40
0.4375
 40
0.4375
 40
0.5
 40
0.5
 40
0.5
 40
0.5
 40
0.5625
 40
0.5625
 40
0.5625
 40
0.5625
 40
0.625
 40
0.625
 40
0.625
 40
0.625
 40
0.6875
 40
0.6875
 40
0.6875
 40
0.6875
 40
0.75
 40
0.75
 40
0.75
 40
0.75
 40
0.8125
 40
0.8125
 40
0.8125
 40
0.8125
 40
0.875
 40
0.875
 40
0.875
 40
0.875
 40
0.9375
 40
0.9375
 40
0.9375
 40
0.9375
 40
1.0
 40
1.0
 40
1.0
 40
1.0
 10
-10.4296
 20
-15.47775
 30
0.0
 10
-10.42816
 20
-15.47803
 30
0.0
 10
-10.42691
 20
-15.47872
 30
0.0
 10
-10.42586
 20
-15.47978
 30
0.0
 10
-10.42586
 20
-15.47978
 30
0.0
 10
-10.4248
 20
-15.48083
 30
0.0
 10
-10.42351
 20
-15.4829
 30
0.0
 10
-10.42198
 20
-15.48595
 30
0.0
 10
-10.42198
 20
-15.48595
 30
0.0
 10
-10.42198
 20
-15.48595
 30
0.0
 10
-10.40878
 20
-15.51217
 30
0.0
 10
-10.40878
 20
-15.51217
 30
0.0
 10
-10.40878
 20
-15.51217
 30
0.0
 10
-10.40878
 20
-15.51217
 30
0.0
 10
-10.42461
 20
-15.51217
 30
0.0
 10
-10.42461
 20
-15.51217
 30
0.0
 10
-10.42461
 20
-15.51217
 30
0.0
 10
-10.42461
 20
-15.51217
 30
0.0
 10
-10.4334
 20
-15.49377
 30
0.0
 10
-10.4334
 20
-15.49377
 30
0.0
 10
-10.4334
 20
-15.49377
 30
0.0
 10
-10.43366
 20
-15.49325
 30
0.0
 10
-10.43401
 20
-15.49253
 30
0.0
 10
-10.43443
 20
-15.49162
 30
0.0
 10
-10.43443
 20
-15.49162
 30
0.0
 10
-10.437
 20
-15.48612
 30
0.0
 10
-10.44003
 20
-15.48337
 30
0.0
 10
-10.44351
 20
-15.48337
 30
0.0
 10
-10.44351
 20
-15.48337
 30
0.0
 10
-10.44351
 20
-15.48337
 30
0.0
 10
-10.4481
 20
-15.48337
 30
0.0
 10
-10.4481
 20
-15.48337
 30
0.0
 10
-10.4481
 20
-15.48337
 30
0.0
 10
-10.4481
 20
-15.48337
 30
0.0
 10
-10.4481
 20
-15.51217
 30
0.0
 10
-10.4481
 20
-15.51217
 30
0.0
 10
-10.4481
 20
-15.51217
 30
0.0
 10
-10.4481
 20
-15.51217
 30
0.0
 10
-10.4625
 20
-15.51217
 30
0.0
 10
-10.4625
 20
-15.51217
 30
0.0
 10
-10.4625
 20
-15.51217
 30
0.0
 10
-10.4625
 20
-15.51217
 30
0.0
 10
-10.4625
 20
-15.43926
 30
0.0
 10
-10.4625
 20
-15.43926
 30
0.0
 10
-10.4625
 20
-15.43926
 30
0.0
 10
-10.4625
 20
-15.43926
 30
0.0
 10
-10.4417
 20
-15.43926
 30
0.0
 10
-10.4417
 20
-15.43926
 30
0.0
 10
-10.4417
 20
-15.43926
 30
0.0
 10
-10.43233
 20
-15.43926
 30
0.0
 10
-10.4256
 20
-15.44093
 30
0.0
 10
-10.42151
 20
-15.44425
 30
0.0
 10
-10.42151
 20
-15.44425
 30
0.0
 10
-10.41743
 20
-15.44756
 30
0.0
 10
-10.41538
 20
-15.45296
 30
0.0
 10
-10.41538
 20
-15.46046
 30
0.0
 10
-10.41538
 20
-15.46046
 30
0.0
 10
-10.41538
 20
-15.46547
 30
0.0
 10
-10.41659
 20
-15.46947
 30
0.0
 10
-10.41905
 20
-15.47243
 30
0.0
 10
-10.41905
 20
-15.47243
 30
0.0
 10
-10.42148
 20
-15.47538
 30
0.0
 10
-10.425
 20
-15.47717
 30
0.0
 10
-10.4296
 20
-15.47775
 30
0.0
  0
SPLINE
  5
93
330
1F
100
AcDbEntity
  8
Layer 1
 62
   250
100
AcDbSpline
210
0.0
220
0.0
230
1.0
 70
    11
 71
     3
 72
    32
 73
    28
 74
     0
 42
0.0000000001
 43
0.0000000001
 40
0.0
 40
0.0
 40
0.0
 40
0.0
 40
0.1428571428571428
 40
0.1428571428571428
 40
0.1428571428571428
 40
0.1428571428571428
 40
0.2857142857142857
 40
0.2857142857142857
 40
0.2857142857142857
 40
0.2857142857142857
 40
0.4285714285714285
 40
0.4285714285714285
 40
0.4285714285714285
 40
0.4285714285714285
 40
0.5714285714285714
 40
0.5714285714285714
 40
0.5714285714285714
 40
0.5714285714285714
 40
0.7142857142857142
 40
0.7142857142857142
 40
0.7142857142857142
 40
0.7142857142857142
 40
0.857142857142857
 40
0.857142857142857
 40
0.857142857142857
 40
0.857142857142857
 40
1.0
 40
1.0
 40
1.0
 40
1.0
 10
-10.4481
 20
-15.45138
 30
0.0
 10
-10.4481
 20
-15.45138
 30
0.0
 10
-10.4481
 20
-15.47125
 30
0.0
 10
-10.4481
 20
-15.47125
 30
0.0
 10
-10.4481
 20
-15.47125
 30
0.0
 10
-10.4481
 20
-15.47125
 30
0.0
 10
-10.44131
 20
-15.47125
 30
0.0
 10
-10.44131
 20
-15.47125
 30
0.0
 10
-10.44131
 20
-15.47125
 30
0.0
 10
-10.43738
 20
-15.47125
 30
0.0
 10
-10.43455
 20
-15.47048
 30
0.0
 10
-10.43285
 20
-15.46893
 30
0.0
 10
-10.43285
 20
-15.46893
 30
0.0
 10
-10.43113
 20
-15.46738
 30
0.0
 10
-10.43028
 20
-15.46483
 30
0.0
 10
-10.43028
 20
-15.4613
 30
0.0
 10
-10.43028
 20
-15.4613
 30
0.0
 10
-10.43028
 20
-15.45775
 30
0.0
 10
-10.43113
 20
-15.4552
 30
0.0
 10
-10.43281
 20
-15.45368
 30
0.0
 10
-10.43281
 20
-15.45368
 30
0.0
 10
-10.43451
 20
-15.45215
 30
0.0
 10
-10.43735
 20
-15.45138
 30
0.0
 10
-10.44131
 20
-15.45138
 30
0.0
 10
-10.44131
 20
-15.45138
 30
0.0
 10
-10.44131
 20
-15.45138
 30
0.0
 10
-10.4481
 20
-15.45138
 30
0.0
 10
-10.4481
 20
-15.45138
 30
0.0
  0
SPLINE
  5
94
330
1F
100
AcDbEntity
  8
Layer 1
 62
   250
100
AcDbSpline
210
0.0
220
0.0
230
1.0
 70
    11
 71
     3
 72
    36
 73
    32
 74
     0
 42
0.0000000001
 43
0.0000000001
 40
0.0
 40
0.0
 40
0.0
 40
0.0
 40
0.125
 40
0.125
 40
0.125
 40
0.125
 40
0.25
 40
0.25
 40
0.25
 40
0.25
 40
0.375
 40
0.375
 40
0.375
 40
0.375
 40
0.5
 40
0.5
 40
0.5
 40
0.5
 40
0.625
 40
0.625
 40
0.625
 40
0.625
 40
0.75
 40
0.75
 40
0.75
 40
0.75
 40
0.875
 40
0.875
 40
0.875
 40
0.875
 40
1.0
 40
1.0
 40
1.0
 40
1.0
 10
-10.37739
 20
-15.47563
 30
0.0
 10
-10.3805
 20
-15.47563
 30
0.0
 10
-10.38289
 20
-15.47677
 30
0.0
 10
-10.38454
 20
-15.47903
 30
0.0
 10
-10.38454
 20
-15.47903
 30
0.0
 10
-10.38619
 20
-15.4813
 30
0.0
 10
-10.387
 20
-15.48457
 30
0.0
 10
-10.387
 20
-15.48887
 30
0.0
 10
-10.387
 20
-15.48887
 30
0.0
 10
-10.387
 20
-15.49313
 30
0.0
 10
-10.38619
 20
-15.4964
 30
0.0
 10
-10.38454
 20
-15.49867
 30
0.0
 10
-10.38454
 20
-15.49867
 30
0.0
 10
-10.38289
 20
-15.50094
 30
0.0
 10
-10.3805
 20
-15.50207
 30
0.0
 10
-10.37739
 20
-15.50207
 30
0.0
 10
-10.37739
 20
-15.50207
 30
0.0
 10
-10.37425
 20
-15.50207
 30
0.0
 10
-10.37185
 20
-15.50094
 30
0.0
 10
-10.37019
 20
-15.49867
 30
0.0
 10
-10.37019
 20
-15.49867
 30
0.0
 10
-10.3685
 20
-15.4964
 30
0.0
 10
-10.36767
 20
-15.49313
 30
0.0
 10
-10.36767
 20
-15.48887
 30
0.0
 10
-10.36767
 20
-15.48887
 30
0.0
 10
-10.36767
 20
-15.4846
 30
0.0
 10
-10.3685
 20
-15.48133
 30
0.0
 10
-10.37019
 20
-15.47905
 30
0.0
 10
-10.37019
 20
-15.47905
 30
0.0
 10
-10.37185
 20
-15.47677
 30
0.0
 10
-10.37425
 20
-15.47563
 30
0.0
 10
-10.37739
 20
-15.47563
 30
0.0
  0
SPLINE
  5
95
330
1F
100
AcDbEntity
  8
Layer 1
 62
   250
100
AcDbSpline
210
0.0
220
0.0
230
1.0
 70
    11
 71
     3
 72
    72
 73
    68
 74
     0
 42
0.0000000001
 43
0.0000000001
 40
0.0
 40
0.0
 40
0.0
 40
0.0
 40
0.0588235294117647
 40
0.0588235294117647
 40
0.0588235294117647
 40
0.0588235294117647
 40
0.1176470588235294
 40
0.1176470588235294
 40
0.1176470588235294
 40
0.1176470588235294
 40
0.1764705882352941
 40
0.1764705882352941
 40
0.1764705882352941
 40
0.1764705882352941
 40
0.2352941176470588
 40
0.2352941176470588
 40
0.2352941176470588
 40
0.2352941176470588
 40
0.2941176470588235
 40
0.2941176470588235
 40
0.2941176470588235
 40
0.2941176470588235
 40
0.3529411764705883
 40
0.3529411764705883
 40
0.3529411764705883
 40
0.3529411764705883
 40
0.411764705882353
 40
0.411764705882353
 40
0.411764705882353
 40
0.411764705882353
 40
0.4705882352941177
 40
0.4705882352941177
 40
0.4705882352941177
 40
0.4705882352941177
 40
0.5294117647058824
 40
0.5294117647058824
 40
0.5294117647058824
 40
0.5294117647058824
 40
0.5882352941176471
 40
0.5882352941176471
 40
0.5882352941176471
 40
0.5882352941176471
 40
0.6470588235294118
 40
0.6470588235294118
 40
0.6470588235294118
 40
0.6470588235294118
 40
0.7058823529411765
 40
0.7058823529411765
 40
0.7058823529411765
 40
0.7058823529411765
 40
0.7647058823529412
 40
0.7647058823529412
 40
0.7647058823529412
 40
0.7647058823529412
 40
0.823529411764706
 40
0.823529411764706
 40
0.823529411764706
 40
0.823529411764706
 40
0.8823529411764707
 40
0.8823529411764707
 40
0.8823529411764707
 40
0.8823529411764707
 40
0.9411764705882354
 40
0.9411764705882354
 40
0.9411764705882354
 40
0.9411764705882354
 40
1.0
 40
1.0
 40
1.0
 40
1.0
 10
-10.3585
 20
-15.44098
 30
0.0
 10
-10.3585
 20
-15.44098
 30
0.0
 10
-10.3585
 20
-15.45406
 30
0.0
 10
-10.3585
 20
-15.45406
 30
0.0
 10
-10.3585
 20
-15.45406
 30
0.0
 10
-10.36107
 20
-15.4526
 30
0.0
 10
-10.36354
 20
-15.4515
 30
0.0
 10
-10.3659
 20
-15.45076
 30
0.0
 10
-10.3659
 20
-15.45076
 30
0.0
 10
-10.36825
 20
-15.45003
 30
0.0
 10
-10.37052
 20
-15.44966
 30
0.0
 10
-10.3727
 20
-15.44966
 30
0.0
 10
-10.3727
 20
-15.44966
 30
0.0
 10
-10.3779
 20
-15.44966
 30
0.0
 10
-10.38187
 20
-15.45141
 30
0.0
 10
-10.38459
 20
-15.45491
 30
0.0
 10
-10.38459
 20
-15.45491
 30
0.0
 10
-10.3873
 20
-15.45841
 30
0.0
 10
-10.38872
 20
-15.46358
 30
0.0
 10
-10.38885
 20
-15.47042
 30
0.0
 10
-10.38885
 20
-15.47042
 30
0.0
 10
-10.38732
 20
-15.4683
 30
0.0
 10
-10.38537
 20
-15.46672
 30
0.0
 10
-10.383
 20
-15.46565
 30
0.0
 10
-10.383
 20
-15.46565
 30
0.0
 10
-10.38062
 20
-15.4646
 30
0.0
 10
-10.37782
 20
-15.46407
 30
0.0
 10
-10.3746
 20
-15.46407
 30
0.0
 10
-10.3746
 20
-15.46407
 30
0.0
 10
-10.36802
 20
-15.46407
 30
0.0
 10
-10.36295
 20
-15.46615
 30
0.0
 10
-10.35937
 20
-15.4703
 30
0.0
 10
-10.35937
 20
-15.4703
 30
0.0
 10
-10.35578
 20
-15.47445
 30
0.0
 10
-10.354
 20
-15.48033
 30
0.0
 10
-10.354
 20
-15.48795
 30
0.0
 10
-10.354
 20
-15.48795
 30
0.0
 10
-10.354
 20
-15.49612
 30
0.0
 10
-10.35602
 20
-15.50245
 30
0.0
 10
-10.36004
 20
-15.50695
 30
0.0
 10
-10.36004
 20
-15.50695
 30
0.0
 10
-10.36405
 20
-15.51144
 30
0.0
 10
-10.3697
 20
-15.51369
 30
0.0
 10
-10.377
 20
-15.51369
 30
0.0
 10
-10.377
 20
-15.51369
 30
0.0
 10
-10.38589
 20
-15.51369
 30
0.0
 10
-10.39234
 20
-15.5107
 30
0.0
 10
-10.39636
 20
-15.50475
 30
0.0
 10
-10.39636
 20
-15.50475
 30
0.0
 10
-10.40037
 20
-15.49879
 30
0.0
 10
-10.40239
 20
-15.48917
 30
0.0
 10
-10.40239
 20
-15.47588
 30
0.0
 10
-10.40239
 20
-15.47588
 30
0.0
 10
-10.40239
 20
-15.46327
 30
0.0
 10
-10.39994
 20
-15.4538
 30
0.0
 10
-10.39502
 20
-15.4475
 30
0.0
 10
-10.39502
 20
-15.4475
 30
0.0
 10
-10.3901
 20
-15.4412
 30
0.0
 10
-10.38274
 20
-15.43805
 30
0.0
 10
-10.3729
 20
-15.43805
 30
0.0
 10
-10.3729
 20
-15.43805
 30
0.0
 10
-10.37062
 20
-15.43805
 30
0.0
 10
-10.36827
 20
-15.4383
 30
0.0
 10
-10.36585
 20
-15.43878
 30
0.0
 10
-10.36585
 20
-15.43878
 30
0.0
 10
-10.36342
 20
-15.43926
 30
0.0
 10
-10.36097
 20
-15.44
 30
0.0
 10
-10.3585
 20
-15.44098
 30
0.0
  0
SPLINE
  5
96
330
1F
100
AcDbEntity
  8
Layer 1
 62
   250
100
AcDbSpline
210
0.0
220
0.0
230
1.0
 70
    11
 71
     3
 72
    92
 73
    88
 74
     0
 42
0.0000000001
 43
0.0000000001
 40
0.0
 40
0.0
 40
0.0
 40
0.0
 40
0.0454545454545455
 40
0.0454545454545455
 40
0.0454545454545455
 40
0.0454545454545455
 40
0.0909090909090909
 40
0.0909090909090909
 40
0.0909090909090909
 40
0.0909090909090909
 40
0.1363636363636364
 40
0.1363636363636364
 40
0.1363636363636364
 40
0.1363636363636364
 40
0.1818181818181818
 40
0.1818181818181818
 40
0.1818181818181818
 40
0.1818181818181818
 40
0.2272727272727273
 40
0.2272727272727273
 40
0.2272727272727273
 40
0.2272727272727273
 40
0.2727272727272728
 40
0.2727272727272728
 40
0.2727272727272728
 40
0.2727272727272728
 40
0.3181818181818182
 40
0.3181818181818182
 40
0.3181818181818182
 40
0.3181818181818182
 40
0.3636363636363637
 40
0.3636363636363637
 40
0.3636363636363637
 40
0.3636363636363637
 40
0.4090909090909092
 40
0.4090909090909092
 40
0.4090909090909092
 40
0.4090909090909092
 40
0.4545454545454546
 40
0.4545454545454546
 40
0.4545454545454546
 40
0.4545454545454546
 40
0.5000000000000001
 40
0.5000000000000001
 40
0.5000000000000001
 40
0.5000000000000001
 40
0.5454545454545455
 40
0.5454545454545455
 40
0.5454545454545455
 40
0.5454545454545455
 40
0.5909090909090909
 40
0.5909090909090909
 40
0.5909090909090909
 40
0.5909090909090909
 40
0.6363636363636364
 40
0.6363636363636364
 40
0.6363636363636364
 40
0.6363636363636364
 40
0.6818181818181818
 40
0.6818181818181818
 40
0.6818181818181818
 40
0.6818181818181818
 40
0.7272727272727272
 40
0.7272727272727272
 40
0.7272727272727272
 40
0.7272727272727272
 40
0.7727272727272726
 40
0.7727272727272726
 40
0.7727272727272726
 40
0.7727272727272726
 40
0.818181818181818
 40
0.818181818181818
 40
0.818181818181818
 40
0.818181818181818
 40
0.8636363636363634
 40
0.8636363636363634
 40
0.8636363636363634
 40
0.8636363636363634
 40
0.9090909090909088
 40
0.9090909090909088
 40
0.9090909090909088
 40
0.9090909090909088
 40
0.9545454545454543
 40
0.9545454545454543
 40
0.9545454545454543
 40
0.9545454545454543
 40
1.0
 40
1.0
 40
1.0
 40
1.0
 10
-10.33916
 20
-15.43926
 30
0.0
 10
-10.33916
 20
-15.43926
 30
0.0
 10
-10.29956
 20
-15.43926
 30
0.0
 10
-10.29956
 20
-15.43926
 30
0.0
 10
-10.29956
 20
-15.43926
 30
0.0
 10
-10.29956
 20
-15.43926
 30
0.0
 10
-10.29956
 20
-15.45196
 30
0.0
 10
-10.29956
 20
-15.45196
 30
0.0
 10
-10.29956
 20
-15.45196
 30
0.0
 10
-10.29956
 20
-15.45196
 30
0.0
 10
-10.32749
 20
-15.45196
 30
0.0
 10
-10.32749
 20
-15.45196
 30
0.0
 10
-10.32749
 20
-15.45196
 30
0.0
 10
-10.32749
 20
-15.45196
 30
0.0
 10
-10.32749
 20
-15.46548
 30
0.0
 10
-10.32749
 20
-15.46548
 30
0.0
 10
-10.32749
 20
-15.46548
 30
0.0
 10
-10.32633
 20
-15.46503
 30
0.0
 10
-10.32506
 20
-15.4647
 30
0.0
 10
-10.32373
 20
-15.46448
 30
0.0
 10
-10.32373
 20
-15.46448
 30
0.0
 10
-10.32239
 20
-15.46427
 30
0.0
 10
-10.32098
 20
-15.46417
 30
0.0
 10
-10.31948
 20
-15.46417
 30
0.0
 10
-10.31948
 20
-15.46417
 30
0.0
 10
-10.31226
 20
-15.46417
 30
0.0
 10
-10.30639
 20
-15.46645
 30
0.0
 10
-10.30189
 20
-15.471
 30
0.0
 10
-10.30189
 20
-15.471
 30
0.0
 10
-10.29741
 20
-15.47557
 30
0.0
 10
-10.29516
 20
-15.48148
 30
0.0
 10
-10.29516
 20
-15.48878
 30
0.0
 10
-10.29516
 20
-15.48878
 30
0.0
 10
-10.29516
 20
-15.49644
 30
0.0
 10
-10.29759
 20
-15.50247
 30
0.0
 10
-10.30246
 20
-15.50692
 30
0.0
 10
-10.30246
 20
-15.50692
 30
0.0
 10
-10.30733
 20
-15.51137
 30
0.0
 10
-10.31396
 20
-15.51359
 30
0.0
 10
-10.32236
 20
-15.51359
 30
0.0
 10
-10.32236
 20
-15.51359
 30
0.0
 10
-10.32548
 20
-15.51359
 30
0.0
 10
-10.32864
 20
-15.51332
 30
0.0
 10
-10.33183
 20
-15.5128
 30
0.0
 10
-10.33183
 20
-15.5128
 30
0.0
 10
-10.33501
 20
-15.51229
 30
0.0
 10
-10.33828
 20
-15.5115
 30
0.0
 10
-10.3416
 20
-15.51045
 30
0.0
 10
-10.3416
 20
-15.51045
 30
0.0
 10
-10.3416
 20
-15.51045
 30
0.0
 10
-10.3416
 20
-15.49747
 30
0.0
 10
-10.3416
 20
-15.49747
 30
0.0
 10
-10.3416
 20
-15.49747
 30
0.0
 10
-10.3389
 20
-15.4988
 30
0.0
 10
-10.33611
 20
-15.4998
 30
0.0
 10
-10.33328
 20
-15.50047
 30
0.0
 10
-10.33328
 20
-15.50047
 30
0.0
 10
-10.33043
 20
-15.50114
 30
0.0
 10
-10.32756
 20
-15.50147
 30
0.0
 10
-10.32469
 20
-15.50147
 30
0.0
 10
-10.32469
 20
-15.50147
 30
0.0
 10
-10.31963
 20
-15.50147
 30
0.0
 10
-10.31576
 20
-15.50039
 30
0.0
 10
-10.31313
 20
-15.49822
 30
0.0
 10
-10.31313
 20
-15.49822
 30
0.0
 10
-10.31049
 20
-15.49605
 30
0.0
 10
-10.30918
 20
-15.49292
 30
0.0
 10
-10.30918
 20
-15.48878
 30
0.0
 10
-10.30918
 20
-15.48878
 30
0.0
 10
-10.30918
 20
-15.48497
 30
0.0
 10
-10.31049
 20
-15.48192
 30
0.0
 10
-10.31311
 20
-15.47962
 30
0.0
 10
-10.31311
 20
-15.47962
 30
0.0
 10
-10.31573
 20
-15.47733
 30
0.0
 10
-10.31923
 20
-15.47618
 30
0.0
 10
-10.32358
 20
-15.47618
 30
0.0
 10
-10.32358
 20
-15.47618
 30
0.0
 10
-10.32616
 20
-15.47618
 30
0.0
 10
-10.32873
 20
-15.4765
 30
0.0
 10
-10.33133
 20
-15.47713
 30
0.0
 10
-10.33133
 20
-15.47713
 30
0.0
 10
-10.33391
 20
-15.47777
 30
0.0
 10
-10.33653
 20
-15.47873
 30
0.0
 10
-10.33916
 20
-15.48
 30
0.0
 10
-10.33916
 20
-15.48
 30
0.0
 10
-10.33916
 20
-15.48
 30
0.0
 10
-10.33916
 20
-15.43926
 30
0.0
 10
-10.33916
 20
-15.43926
 30
0.0
  0
SPLINE
  5
97
330
1F
100
AcDbEntity
  8
Layer 1
 62
   250
100
AcDbSpline
210
0.0
220
0.0
230
1.0
 70
    11
 71
     3
 72
    36
 73
    32
 74
     0
 42
0.0000000001
 43
0.0000000001
 40
0.0
 40
0.0
 40
0.0
 40
0.0
 40
0.125
 40
0.125
 40
0.125
 40
0.125
 40
0.25
 40
0.25
 40
0.25
 40
0.25
 40
0.375
 40
0.375
 40
0.375
 40
0.375
 40
0.5
 40
0.5
 40
0.5
 40
0.5
 40
0.625
 40
0.625
 40
0.625
 40
0.625
 40
0.75
 40
0.75
 40
0.75
 40
0.75
 40
0.875
 40
0.875
 40
0.875
 40
0.875
 40
1.0
 40
1.0
 40
1.0
 40
1.0
 10
-10.25697
 20
-15.47563
 30
0.0
 10
-10.26008
 20
-15.47563
 30
0.0
 10
-10.26247
 20
-15.47677
 30
0.0
 10
-10.26412
 20
-15.47903
 30
0.0
 10
-10.26412
 20
-15.47903
 30
0.0
 10
-10.26577
 20
-15.4813
 30
0.0
 10
-10.26658
 20
-15.48457
 30
0.0
 10
-10.26658
 20
-15.48887
 30
0.0
 10
-10.26658
 20
-15.48887
 30
0.0
 10
-10.26658
 20
-15.49313
 30
0.0
 10
-10.26577
 20
-15.4964
 30
0.0
 10
-10.26412
 20
-15.49867
 30
0.0
 10
-10.26412
 20
-15.49867
 30
0.0
 10
-10.26247
 20
-15.50094
 30
0.0
 10
-10.26008
 20
-15.50207
 30
0.0
 10
-10.25697
 20
-15.50207
 30
0.0
 10
-10.25697
 20
-15.50207
 30
0.0
 10
-10.25383
 20
-15.50207
 30
0.0
 10
-10.25143
 20
-15.50094
 30
0.0
 10
-10.24977
 20
-15.49867
 30
0.0
 10
-10.24977
 20
-15.49867
 30
0.0
 10
-10.24808
 20
-15.4964
 30
0.0
 10
-10.24725
 20
-15.49313
 30
0.0
 10
-10.24725
 20
-15.48887
 30
0.0
 10
-10.24725
 20
-15.48887
 30
0.0
 10
-10.24725
 20
-15.4846
 30
0.0
 10
-10.24808
 20
-15.48133
 30
0.0
 10
-10.24977
 20
-15.47905
 30
0.0
 10
-10.24977
 20
-15.47905
 30
0.0
 10
-10.25143
 20
-15.47677
 30
0.0
 10
-10.25383
 20
-15.47563
 30
0.0
 10
-10.25697
 20
-15.47563
 30
0.0
  0
SPLINE
  5
98
330
1F
100
AcDbEntity
  8
Layer 1
 62
   250
100
AcDbSpline
210
0.0
220
0.0
230
1.0
 70
    11
 71
     3
 72
    72
 73
    68
 74
     0
 42
0.0000000001
 43
0.0000000001
 40
0.0
 40
0.0
 40
0.0
 40
0.0
 40
0.0588235294117647
 40
0.0588235294117647
 40
0.0588235294117647
 40
0.0588235294117647
 40
0.1176470588235294
 40
0.1176470588235294
 40
0.1176470588235294
 40
0.1176470588235294
 40
0.1764705882352941
 40
0.1764705882352941
 40
0.1764705882352941
 40
0.1764705882352941
 40
0.2352941176470588
 40
0.2352941176470588
 40
0.2352941176470588
 40
0.2352941176470588
 40
0.2941176470588235
 40
0.2941176470588235
 40
0.2941176470588235
 40
0.2941176470588235
 40
0.3529411764705883
 40
0.3529411764705883
 40
0.3529411764705883
 40
0.3529411764705883
 40
0.411764705882353
 40
0.411764705882353
 40
0.411764705882353
 40
0.411764705882353
 40
0.4705882352941177
 40
0.4705882352941177
 40
0.4705882352941177
 40
0.4705882352941177
 40
0.5294117647058824
 40
0.5294117647058824
 40
0.5294117647058824
 40
0.5294117647058824
 40
0.5882352941176471
 40
0.5882352941176471
 40
0.5882352941176471
 40
0.5882352941176471
 40
0.6470588235294118
 40
0.6470588235294118
 40
0.6470588235294118
 40
0.6470588235294118
 40
0.7058823529411765
 40
0.7058823529411765
 40
0.7058823529411765
 40
0.7058823529411765
 40
0.7647058823529412
 40
0.7647058823529412
 40
0.7647058823529412
 40
0.7647058823529412
 40
0.823529411764706
 40
0.823529411764706
 40
0.823529411764706
 40
0.823529411764706
 40
0.8823529411764707
 40
0.8823529411764707
 40
0.8823529411764707
 40
0.8823529411764707
 40
0.9411764705882354
 40
0.9411764705882354
 40
0.9411764705882354
 40
0.9411764705882354
 40
1.0
 40
1.0
 40
1.0
 40
1.0
 10
-10.23808
 20
-15.44098
 30
0.0
 10
-10.23808
 20
-15.44098
 30
0.0
 10
-10.23808
 20
-15.45406
 30
0.0
 10
-10.23808
 20
-15.45406
 30
0.0
 10
-10.23808
 20
-15.45406
 30
0.0
 10
-10.24065
 20
-15.4526
 30
0.0
 10
-10.24312
 20
-15.4515
 30
0.0
 10
-10.24548
 20
-15.45076
 30
0.0
 10
-10.24548
 20
-15.45076
 30
0.0
 10
-10.24783
 20
-15.45003
 30
0.0
 10
-10.2501
 20
-15.44966
 30
0.0
 10
-10.25228
 20
-15.44966
 30
0.0
 10
-10.25228
 20
-15.44966
 30
0.0
 10
-10.25748
 20
-15.44966
 30
0.0
 10
-10.26145
 20
-15.45141
 30
0.0
 10
-10.26417
 20
-15.45491
 30
0.0
 10
-10.26417
 20
-15.45491
 30
0.0
 10
-10.26688
 20
-15.45841
 30
0.0
 10
-10.2683
 20
-15.46358
 30
0.0
 10
-10.26843
 20
-15.47042
 30
0.0
 10
-10.26843
 20
-15.47042
 30
0.0
 10
-10.2669
 20
-15.4683
 30
0.0
 10
-10.26495
 20
-15.46672
 30
0.0
 10
-10.26258
 20
-15.46565
 30
0.0
 10
-10.26258
 20
-15.46565
 30
0.0
 10
-10.2602
 20
-15.4646
 30
0.0
 10
-10.2574
 20
-15.46407
 30
0.0
 10
-10.25418
 20
-15.46407
 30
0.0
 10
-10.25418
 20
-15.46407
 30
0.0
 10
-10.2476
 20
-15.46407
 30
0.0
 10
-10.24253
 20
-15.46615
 30
0.0
 10
-10.23895
 20
-15.4703
 30
0.0
 10
-10.23895
 20
-15.4703
 30
0.0
 10
-10.23536
 20
-15.47445
 30
0.0
 10
-10.23358
 20
-15.48033
 30
0.0
 10
-10.23358
 20
-15.48795
 30
0.0
 10
-10.23358
 20
-15.48795
 30
0.0
 10
-10.23358
 20
-15.49612
 30
0.0
 10
-10.2356
 20
-15.50245
 30
0.0
 10
-10.23962
 20
-15.50695
 30
0.0
 10
-10.23962
 20
-15.50695
 30
0.0
 10
-10.24363
 20
-15.51144
 30
0.0
 10
-10.24928
 20
-15.51369
 30
0.0
 10
-10.25658
 20
-15.51369
 30
0.0
 10
-10.25658
 20
-15.51369
 30
0.0
 10
-10.26547
 20
-15.51369
 30
0.0
 10
-10.27192
 20
-15.5107
 30
0.0
 10
-10.27594
 20
-15.50475
 30
0.0
 10
-10.27594
 20
-15.50475
 30
0.0
 10
-10.27995
 20
-15.49879
 30
0.0
 10
-10.28197
 20
-15.48917
 30
0.0
 10
-10.28197
 20
-15.47588
 30
0.0
 10
-10.28197
 20
-15.47588
 30
0.0
 10
-10.28197
 20
-15.46327
 30
0.0
 10
-10.27952
 20
-15.4538
 30
0.0
 10
-10.2746
 20
-15.4475
 30
0.0
 10
-10.2746
 20
-15.4475
 30
0.0
 10
-10.26968
 20
-15.4412
 30
0.0
 10
-10.26232
 20
-15.43805
 30
0.0
 10
-10.25248
 20
-15.43805
 30
0.0
 10
-10.25248
 20
-15.43805
 30
0.0
 10
-10.2502
 20
-15.43805
 30
0.0
 10
-10.24785
 20
-15.4383
 30
0.0
 10
-10.24543
 20
-15.43878
 30
0.0
 10
-10.24543
 20
-15.43878
 30
0.0
 10
-10.243
 20
-15.43926
 30
0.0
 10
-10.24055
 20
-15.44
 30
0.0
 10
-10.23808
 20
-15.44098
 30
0.0
  0
SPLINE
  5
99
330
1F
100
AcDbEntity
  8
Layer 1
 62
   250
100
AcDbSpline
210
0.0
220
0.0
230
1.0
 70
    11
 71
     3
 72
    88
 73
    84
 74
     0
 42
0.0000000001
 43
0.0000000001
 40
0.0
 40
0.0
 40
0.0
 40
0.0
 40
0.0476190476190476
 40
0.0476190476190476
 40
0.0476190476190476
 40
0.0476190476190476
 40
0.0952380952380952
 40
0.0952380952380952
 40
0.0952380952380952
 40
0.0952380952380952
 40
0.1428571428571428
 40
0.1428571428571428
 40
0.1428571428571428
 40
0.1428571428571428
 40
0.1904761904761905
 40
0.1904761904761905
 40
0.1904761904761905
 40
0.1904761904761905
 40
0.2380952380952381
 40
0.2380952380952381
 40
0.2380952380952381
 40
0.2380952380952381
 40
0.2857142857142857
 40
0.2857142857142857
 40
0.2857142857142857
 40
0.2857142857142857
 40
0.3333333333333333
 40
0.3333333333333333
 40
0.3333333333333333
 40
0.3333333333333333
 40
0.3809523809523809
 40
0.3809523809523809
 40
0.3809523809523809
 40
0.3809523809523809
 40
0.4285714285714285
 40
0.4285714285714285
 40
0.4285714285714285
 40
0.4285714285714285
 40
0.4761904761904762
 40
0.4761904761904762
 40
0.4761904761904762
 40
0.4761904761904762
 40
0.5238095238095237
 40
0.5238095238095237
 40
0.5238095238095237
 40
0.5238095238095237
 40
0.5714285714285714
 40
0.5714285714285714
 40
0.5714285714285714
 40
0.5714285714285714
 40
0.6190476190476191
 40
0.6190476190476191
 40
0.6190476190476191
 40
0.6190476190476191
 40
0.6666666666666667
 40
0.6666666666666667
 40
0.6666666666666667
 40
0.6666666666666667
 40
0.7142857142857144
 40
0.7142857142857144
 40
0.7142857142857144
 40
0.7142857142857144
 40
0.7619047619047621
 40
0.7619047619047621
 40
0.7619047619047621
 40
0.7619047619047621
 40
0.8095238095238098
 40
0.8095238095238098
 40
0.8095238095238098
 40
0.8095238095238098
 40
0.8571428571428574
 40
0.8571428571428574
 40
0.8571428571428574
 40
0.8571428571428574
 40
0.9047619047619051
 40
0.9047619047619051
 40
0.9047619047619051
 40
0.9047619047619051
 40
0.9523809523809528
 40
0.9523809523809528
 40
0.9523809523809528
 40
0.9523809523809528
 40
1.0
 40
1.0
 40
1.0
 40
1.0
 10
-10.20697
 20
-15.49947
 30
0.0
 10
-10.20697
 20
-15.49947
 30
0.0
 10
-10.17625
 20
-15.49947
 30
0.0
 10
-10.17625
 20
-15.49947
 30
0.0
 10
-10.17625
 20
-15.49947
 30
0.0
 10
-10.17625
 20
-15.49947
 30
0.0
 10
-10.17625
 20
-15.51217
 30
0.0
 10
-10.17625
 20
-15.51217
 30
0.0
 10
-10.17625
 20
-15.51217
 30
0.0
 10
-10.17625
 20
-15.51217
 30
0.0
 10
-10.22254
 20
-15.51217
 30
0.0
 10
-10.22254
 20
-15.51217
 30
0.0
 10
-10.22254
 20
-15.51217
 30
0.0
 10
-10.22254
 20
-15.51217
 30
0.0
 10
-10.22254
 20
-15.49985
 30
0.0
 10
-10.22254
 20
-15.49985
 30
0.0
 10
-10.22254
 20
-15.49985
 30
0.0
 10
-10.22254
 20
-15.49985
 30
0.0
 10
-10.21473
 20
-15.49157
 30
0.0
 10
-10.21473
 20
-15.49157
 30
0.0
 10
-10.21473
 20
-15.49157
 30
0.0
 10
-10.20546
 20
-15.4817
 30
0.0
 10
-10.19982
 20
-15.47563
 30
0.0
 10
-10.19784
 20
-15.47335
 30
0.0
 10
-10.19784
 20
-15.47335
 30
0.0
 10
-10.19541
 20
-15.47055
 30
0.0
 10
-10.19364
 20
-15.46807
 30
0.0
 10
-10.19257
 20
-15.4659
 30
0.0
 10
-10.19257
 20
-15.4659
 30
0.0
 10
-10.19149
 20
-15.46373
 30
0.0
 10
-10.19096
 20
-15.4616
 30
0.0
 10
-10.19096
 20
-15.45948
 30
0.0
 10
-10.19096
 20
-15.45948
 30
0.0
 10
-10.19096
 20
-15.45623
 30
0.0
 10
-10.19194
 20
-15.45371
 30
0.0
 10
-10.19391
 20
-15.45195
 30
0.0
 10
-10.19391
 20
-15.45195
 30
0.0
 10
-10.19587
 20
-15.45016
 30
0.0
 10
-10.19867
 20
-15.44928
 30
0.0
 10
-10.20227
 20
-15.44928
 30
0.0
 10
-10.20227
 20
-15.44928
 30
0.0
 10
-10.20486
 20
-15.44928
 30
0.0
 10
-10.20774
 20
-15.4498
 30
0.0
 10
-10.21094
 20
-15.45081
 30
0.0
 10
-10.21094
 20
-15.45081
 30
0.0
 10
-10.21416
 20
-15.45185
 30
0.0
 10
-10.21749
 20
-15.45333
 30
0.0
 10
-10.22098
 20
-15.45528
 30
0.0
 10
-10.22098
 20
-15.45528
 30
0.0
 10
-10.22098
 20
-15.45528
 30
0.0
 10
-10.22098
 20
-15.44185
 30
0.0
 10
-10.22098
 20
-15.44185
 30
0.0
 10
-10.22098
 20
-15.44185
 30
0.0
 10
-10.21749
 20
-15.44058
 30
0.0
 10
-10.21409
 20
-15.43961
 30
0.0
 10
-10.21074
 20
-15.43895
 30
0.0
 10
-10.21074
 20
-15.43895
 30
0.0
 10
-10.20741
 20
-15.43828
 30
0.0
 10
-10.20421
 20
-15.43795
 30
0.0
 10
-10.20116
 20
-15.43795
 30
0.0
 10
-10.20116
 20
-15.43795
 30
0.0
 10
-10.19344
 20
-15.43795
 30
0.0
 10
-10.18737
 20
-15.43975
 30
0.0
 10
-10.18297
 20
-15.44335
 30
0.0
 10
-10.18297
 20
-15.44335
 30
0.0
 10
-10.17856
 20
-15.44693
 30
0.0
 10
-10.17635
 20
-15.45185
 30
0.0
 10
-10.17635
 20
-15.45806
 30
0.0
 10
-10.17635
 20
-15.45806
 30
0.0
 10
-10.17635
 20
-15.46093
 30
0.0
 10
-10.17684
 20
-15.46362
 30
0.0
 10
-10.17779
 20
-15.46612
 30
0.0
 10
-10.17779
 20
-15.46612
 30
0.0
 10
-10.17876
 20
-15.46863
 30
0.0
 10
-10.18041
 20
-15.47142
 30
0.0
 10
-10.18276
 20
-15.47447
 30
0.0
 10
-10.18276
 20
-15.47447
 30
0.0
 10
-10.18447
 20
-15.47668
 30
0.0
 10
-10.18921
 20
-15.48167
 30
0.0
 10
-10.19696
 20
-15.48942
 30
0.0
 10
-10.19696
 20
-15.48942
 30
0.0
 10
-10.20116
 20
-15.4936
 30
0.0
 10
-10.20449
 20
-15.49697
 30
0.0
 10
-10.20697
 20
-15.49947
 30
0.0
  0
SPLINE
  5
9A
330
1F
100
AcDbEntity
  8
Layer 1
 62
   250
100
AcDbSpline
210
0.0
220
0.0
230
1.0
 70
    11
 71
     3
 72
    16
 73
    12
 74
     0
 42
0.0000000001
 43
0.0000000001
 40
0.0
 40
0.0
 40
0.0
 40
0.0
 40
0.3333333333333333
 40
0.3333333333333333
 40
0.3333333333333333
 40
0.3333333333333333
 40
0.6666666666666666
 40
0.6666666666666666
 40
0.6666666666666666
 40
0.6666666666666666
 40
1.0
 40
1.0
 40
1.0
 40
1.0
 10
-10.13786
 20
-15.45245
 30
0.0
 10
-10.13786
 20
-15.45245
 30
0.0
 10
-10.14465
 20
-15.48228
 30
0.0
 10
-10.14465
 20
-15.48228
 30
0.0
 10
-10.14465
 20
-15.48228
 30
0.0
 10
-10.14465
 20
-15.48228
 30
0.0
 10
-10.13103
 20
-15.48228
 30
0.0
 10
-10.13103
 20
-15.48228
 30
0.0
 10
-10.13103
 20
-15.48228
 30
0.0
 10
-10.13103
 20
-15.48228
 30
0.0
 10
-10.13786
 20
-15.45245
 30
0.0
 10
-10.13786
 20
-15.45245
 30
0.0
  0
SPLINE
  5
9B
330
1F
100
AcDbEntity
  8
Layer 1
 62
   250
100
AcDbSpline
210
0.0
220
0.0
230
1.0
 70
    11
 71
     3
 72
    36
 73
    32
 74
     0
 42
0.0000000001
 43
0.0000000001
 40
0.0
 40
0.0
 40
0.0
 40
0.0
 40
0.125
 40
0.125
 40
0.125
 40
0.125
 40
0.25
 40
0.25
 40
0.25
 40
0.25
 40
0.375
 40
0.375
 40
0.375
 40
0.375
 40
0.5
 40
0.5
 40
0.5
 40
0.5
 40
0.625
 40
0.625
 40
0.625
 40
0.625
 40
0.75
 40
0.75
 40
0.75
 40
0.75
 40
0.875
 40
0.875
 40
0.875
 40
0.875
 40
1.0
 40
1.0
 40
1.0
 40
1.0
 10
-10.14665
 20
-15.43926
 30
0.0
 10
-10.14665
 20
-15.43926
 30
0.0
 10
-10.12903
 20
-15.43926
 30
0.0
 10
-10.12903
 20
-15.43926
 30
0.0
 10
-10.12903
 20
-15.43926
 30
0.0
 10
-10.12903
 20
-15.43926
 30
0.0
 10
-10.10934
 20
-15.51217
 30
0.0
 10
-10.10934
 20
-15.51217
 30
0.0
 10
-10.10934
 20
-15.51217
 30
0.0
 10
-10.10934
 20
-15.51217
 30
0.0
 10
-10.12375
 20
-15.51217
 30
0.0
 10
-10.12375
 20
-15.51217
 30
0.0
 10
-10.12375
 20
-15.51217
 30
0.0
 10
-10.12375
 20
-15.51217
 30
0.0
 10
-10.12825
 20
-15.49415
 30
0.0
 10
-10.12825
 20
-15.49415
 30
0.0
 10
-10.12825
 20
-15.49415
 30
0.0
 10
-10.12825
 20
-15.49415
 30
0.0
 10
-10.14753
 20
-15.49415
 30
0.0
 10
-10.14753
 20
-15.49415
 30
0.0
 10
-10.14753
 20
-15.49415
 30
0.0
 10
-10.14753
 20
-15.49415
 30
0.0
 10
-10.15193
 20
-15.51217
 30
0.0
 10
-10.15193
 20
-15.51217
 30
0.0
 10
-10.15193
 20
-15.51217
 30
0.0
 10
-10.15193
 20
-15.51217
 30
0.0
 10
-10.16633
 20
-15.51217
 30
0.0
 10
-10.16633
 20
-15.51217
 30
0.0
 10
-10.16633
 20
-15.51217
 30
0.0
 10
-10.16633
 20
-15.51217
 30
0.0
 10
-10.14665
 20
-15.43926
 30
0.0
 10
-10.14665
 20
-15.43926
 30
0.0
  0
ENDSEC
  0
SECTION
  2
OBJECTS
  0
DICTIONARY
  5
C
330
0
100
AcDbDictionary
281
     1
  3
ACAD_GROUP
350
D
  3
ACAD_LAYOUT
350
1A
  3
ACAD_MLEADERSTYLE
350
9D
  3
ACAD_MLINESTYLE
350
17
  3
ACAD_PLOTSETTINGS
350
19
  3
ACAD_PLOTSTYLENAME
350
E
  3
ACAD_SCALELIST
350
3B
  3
ACAD_TABLESTYLE
350
9C
  3
ACAD_VISUALSTYLE
350
2A
  0
DICTIONARY
  5
D
102
{ACAD_REACTORS
330
C
102
}
330
C
100
AcDbDictionary
281
     1
  0
DICTIONARY
  5
1A
102
{ACAD_REACTORS
330
C
102
}
330
C
100
AcDbDictionary
281
     1
  3
Layout1
350
1E
  3
Layout2
350
26
  3
Model
350
22
  0
DICTIONARY
  5
9D
102
{ACAD_REACTORS
330
C
102
}
330
C
100
AcDbDictionary
281
     1
  0
DICTIONARY
  5
17
102
{ACAD_REACTORS
330
C
102
}
330
C
100
AcDbDictionary
281
     1
  3
Standard
350
18
  0
DICTIONARY
  5
19
102
{ACAD_REACTORS
330
C
102
}
330
C
100
AcDbDictionary
281
     1
  0
ACDBDICTIONARYWDFLT
  5
E
102
{ACAD_REACTORS
330
C
102
}
330
C
100
AcDbDictionary
281
     1
  3
Normal
350
F
100
AcDbDictionaryWithDefault
340
F
  0
DICTIONARY
  5
3B
102
{ACAD_REACTORS
330
C
102
}
330
C
100
AcDbDictionary
281
     1
  3
A0
350
3C
  3
A1
350
3D
  3
A2
350
3E
  3
A3
350
3F
  3
A4
350
40
  3
A5
350
41
  3
A6
350
42
  3
A7
350
43
  3
A8
350
44
  3
A9
350
45
  3
B0
350
46
  3
B1
350
47
  3
B2
350
48
  3
B3
350
49
  3
B4
350
4A
  3
B5
350
4B
  3
B6
350
4C
  3
B7
350
4D
  3
B8
350
4E
  3
B9
350
4F
  3
C0
350
50
  3
C1
350
51
  3
C2
350
52
  3
C3
350
53
  3
C4
350
54
  3
C5
350
55
  3
C6
350
56
  3
C7
350
57
  3
C8
350
58
  3
C9
350
59
  3
D0
350
5A
  3
D1
350
5B
  3
D2
350
5C
  0
DICTIONARY
  5
9C
102
{ACAD_REACTORS
330
C
102
}
330
C
100
AcDbDictionary
281
     1
  0
DICTIONARY
  5
2A
102
{ACAD_REACTORS
330
C
102
}
330
C
100
AcDbDictionary
281
     1
  3
2dWireframe
350
2F
  3
3D Hidden
350
31
  3
3dWireframe
350
30
  3
Basic
350
32
  3
Brighten
350
36
  3
ColorChange
350
3A
  3
Conceptual
350
34
  3
Dim
350
35
  3
Facepattern
350
39
  3
Flat
350
2B
  3
FlatWithEdges
350
2C
  3
Gouraud
350
2D
  3
GouraudWithEdges
350
2E
  3
Linepattern
350
38
  3
Realistic
350
33
  3
Thicken
350
37
  0
LAYOUT
  5
1E
102
{ACAD_REACTORS
330
1A
102
}
330
1A
100
AcDbPlotSettings
  1

  2
none_device
  4

  6

 40
0.0
 41
0.0
 42
0.0
 43
0.0
 44
0.0
 45
0.0
 46
0.0
 47
0.0
 48
0.0
 49
0.0
140
0.0
141
0.0
142
1.0
143
1.0
 70
   688
 72
     0
 73
     0
 74
     5
  7

 75
    16
 76
     0
 77
     2
 78
   300
147
1.0
148
0.0
149
0.0
100
AcDbLayout
  1
Layout1
 70
     1
 71
     1
 10
0.0
 20
0.0
 11
12.0
 21
9.0
 12
0.0
 22
0.0
 32
0.0
 14
1.000000000000000E+20
 24
1.000000000000000E+20
 34
1.000000000000000E+20
 15
-1.000000000000000E+20
 25
-1.000000000000000E+20
 35
-1.000000000000000E+20
146
0.0
 13
0.0
 23
0.0
 33
0.0
 16
1.0
 26
0.0
 36
0.0
 17
0.0
 27
1.0
 37
0.0
 76
     0
330
1B
  0
LAYOUT
  5
26
102
{ACAD_REACTORS
330
1A
102
}
330
1A
100
AcDbPlotSettings
  1

  2
none_device
  4

  6

 40
0.0
 41
0.0
 42
0.0
 43
0.0
 44
0.0
 45
0.0
 46
0.0
 47
0.0
 48
0.0
 49
0.0
140
0.0
141
0.0
142
1.0
143
1.0
 70
   688
 72
     0
 73
     0
 74
     5
  7

 75
    16
 76
     0
 77
     2
 78
   300
147
1.0
148
0.0
149
0.0
100
AcDbLayout
  1
Layout2
 70
     1
 71
     2
 10
0.0
 20
0.0
 11
0.0
 21
0.0
 12
0.0
 22
0.0
 32
0.0
 14
0.0
 24
0.0
 34
0.0
 15
0.0
 25
0.0
 35
0.0
146
0.0
 13
0.0
 23
0.0
 33
0.0
 16
1.0
 26
0.0
 36
0.0
 17
0.0
 27
1.0
 37
0.0
 76
     0
330
23
  0
LAYOUT
  5
22
102
{ACAD_REACTORS
330
1A
102
}
330
1A
100
AcDbPlotSettings
  1

  2
none_device
  4

  6

 40
0.0
 41
0.0
 42
0.0
 43
0.0
 44
0.0
 45
0.0
 46
0.0
 47
0.0
 48
0.0
 49
0.0
140
0.0
141
0.0
142
1.0
143
1.0
 70
  1712
 72
     0
 73
     0
 74
     0
  7

 75
     0
 76
     0
 77
     2
 78
   300
147
1.0
148
0.0
149
0.0
100
AcDbLayout
  1
Model
 70
     1
 71
     0
 10
0.0
 20
0.0
 11
12.0
 21
9.0
 12
0.0
 22
0.0
 32
0.0
 14
-11.7
 24
-16.05
 34
0.0
 15
-9.3
 25
-13.65
 35
0.0
146
0.0
 13
0.0
 23
0.0
 33
0.0
 16
1.0
 26
0.0
 36
0.0
 17
0.0
 27
1.0
 37
0.0
 76
     0
330
1F
331
29
  0
MLINESTYLE
  5
18
102
{ACAD_REACTORS
330
17
102
}
330
17
100
AcDbMlineStyle
  2
Standard
 70
     0
  3

 62
   256
 51
90.0
 52
90.0
 71
     2
 49
0.5
 62
   256
  6
BYLAYER
 49
-0.5
 62
   256
  6
BYLAYER
  0
ACDBPLACEHOLDER
  5
F
102
{ACAD_REACTORS
330
E
102
}
330
E
  0
SCALE
  5
3C
102
{ACAD_REACTORS
330
3B
102
}
330
3B
100
AcDbScale
 70
     0
300
1:1
140
1.0
141
1.0
290
     1
  0
SCALE
  5
3D
102
{ACAD_REACTORS
330
3B
102
}
330
3B
100
AcDbScale
 70
     0
300
1:2
140
1.0
141
2.0
290
     0
  0
SCALE
  5
3E
102
{ACAD_REACTORS
330
3B
102
}
330
3B
100
AcDbScale
 70
     0
300
1:4
140
1.0
141
4.0
290
     0
  0
SCALE
  5
3F
102
{ACAD_REACTORS
330
3B
102
}
330
3B
100
AcDbScale
 70
     0
300
1:5
140
1.0
141
5.0
290
     0
  0
SCALE
  5
40
102
{ACAD_REACTORS
330
3B
102
}
330
3B
100
AcDbScale
 70
     0
300
1:8
140
1.0
141
8.0
290
     0
  0
SCALE
  5
41
102
{ACAD_REACTORS
330
3B
102
}
330
3B
100
AcDbScale
 70
     0
300
1:10
140
1.0
141
10.0
290
     0
  0
SCALE
  5
42
102
{ACAD_REACTORS
330
3B
102
}
330
3B
100
AcDbScale
 70
     0
300
1:16
140
1.0
141
16.0
290
     0
  0
SCALE
  5
43
102
{ACAD_REACTORS
330
3B
102
}
330
3B
100
AcDbScale
 70
     0
300
1:20
140
1.0
141
20.0
290
     0
  0
SCALE
  5
44
102
{ACAD_REACTORS
330
3B
102
}
330
3B
100
AcDbScale
 70
     0
300
1:30
140
1.0
141
30.0
290
     0
  0
SCALE
  5
45
102
{ACAD_REACTORS
330
3B
102
}
330
3B
100
AcDbScale
 70
     0
300
1:40
140
1.0
141
40.0
290
     0
  0
SCALE
  5
46
102
{ACAD_REACTORS
330
3B
102
}
330
3B
100
AcDbScale
 70
     0
300
1:50
140
1.0
141
50.0
290
     0
  0
SCALE
  5
47
102
{ACAD_REACTORS
330
3B
102
}
330
3B
100
AcDbScale
 70
     0
300
1:100
140
1.0
141
100.0
290
     0
  0
SCALE
  5
48
102
{ACAD_REACTORS
330
3B
102
}
330
3B
100
AcDbScale
 70
     0
300
2:1
140
2.0
141
1.0
290
     0
  0
SCALE
  5
49
102
{ACAD_REACTORS
330
3B
102
}
330
3B
100
AcDbScale
 70
     0
300
4:1
140
4.0
141
1.0
290
     0
  0
SCALE
  5
4A
102
{ACAD_REACTORS
330
3B
102
}
330
3B
100
AcDbScale
 70
     0
300
8:1
140
8.0
141
1.0
290
     0
  0
SCALE
  5
4B
102
{ACAD_REACTORS
330
3B
102
}
330
3B
100
AcDbScale
 70
     0
300
10:1
140
10.0
141
1.0
290
     0
  0
SCALE
  5
4C
102
{ACAD_REACTORS
330
3B
102
}
330
3B
100
AcDbScale
 70
     0
300
100:1
140
100.0
141
1.0
290
     0
  0
SCALE
  5
4D
102
{ACAD_REACTORS
330
3B
102
}
330
3B
100
AcDbScale
 70
     0
300
1/128" = 1'-0"
140
0.0078125
141
12.0
290
     0
  0
SCALE
  5
4E
102
{ACAD_REACTORS
330
3B
102
}
330
3B
100
AcDbScale
 70
     0
300
1/64" = 1'-0"
140
0.015625
141
12.0
290
     0
  0
SCALE
  5
4F
102
{ACAD_REACTORS
330
3B
102
}
330
3B
100
AcDbScale
 70
     0
300
1/32" = 1'-0"
140
0.03125
141
12.0
290
     0
  0
SCALE
  5
50
102
{ACAD_REACTORS
330
3B
102
}
330
3B
100
AcDbScale
 70
     0
300
1/16" = 1'-0"
140
0.0625
141
12.0
290
     0
  0
SCALE
  5
51
102
{ACAD_REACTORS
330
3B
102
}
330
3B
100
AcDbScale
 70
     0
300
3/32" = 1'-0"
140
0.09375
141
12.0
290
     0
  0
SCALE
  5
52
102
{ACAD_REACTORS
330
3B
102
}
330
3B
100
AcDbScale
 70
     0
300
1/8" = 1'-0"
140
0.125
141
12.0
290
     0
  0
SCALE
  5
53
102
{ACAD_REACTORS
330
3B
102
}
330
3B
100
AcDbScale
 70
     0
300
3/16" = 1'-0"
140
0.1875
141
12.0
290
     0
  0
SCALE
  5
54
102
{ACAD_REACTORS
330
3B
102
}
330
3B
100
AcDbScale
 70
     0
300
1/4" = 1'-0"
140
0.25
141
12.0
290
     0
  0
SCALE
  5
55
102
{ACAD_REACTORS
330
3B
102
}
330
3B
100
AcDbScale
 70
     0
300
3/8" = 1'-0"
140
0.375
141
12.0
290
     0
  0
SCALE
  5
56
102
{ACAD_REACTORS
330
3B
102
}
330
3B
100
AcDbScale
 70
     0
300
1/2" = 1'-0"
140
0.5
141
12.0
290
     0
  0
SCALE
  5
57
102
{ACAD_REACTORS
330
3B
102
}
330
3B
100
AcDbScale
 70
     0
300
3/4" = 1'-0"
140
0.75
141
12.0
290
     0
  0
SCALE
  5
58
102
{ACAD_REACTORS
330
3B
102
}
330
3B
100
AcDbScale
 70
     0
300
1" = 1'-0"
140
1.0
141
12.0
290
     0
  0
SCALE
  5
59
102
{ACAD_REACTORS
330
3B
102
}
330
3B
100
AcDbScale
 70
     0
300
1-1/2" = 1'-0"
140
1.5
141
12.0
290
     0
  0
SCALE
  5
5A
102
{ACAD_REACTORS
330
3B
102
}
330
3B
100
AcDbScale
 70
     0
300
3" = 1'-0"
140
3.0
141
12.0
290
     0
  0
SCALE
  5
5B
102
{ACAD_REACTORS
330
3B
102
}
330
3B
100
AcDbScale
 70
     0
300
6" = 1'-0"
140
6.0
141
12.0
290
     0
  0
SCALE
  5
5C
102
{ACAD_REACTORS
330
3B
102
}
330
3B
100
AcDbScale
 70
     0
300
1'-0" = 1'-0"
140
12.0
141
12.0
290
     0
  0
VISUALSTYLE
  5
2F
102
{ACAD_REACTORS
330
2A
102
}
330
2A
100
AcDbVisualStyle
  2
2dWireframe
 70
     4
 71
     0
 72
     2
 73
     0
 90
        0
 40
-0.6
 41
-30.0
 62
     5
 63
     7
421
 16777215
 74
     1
 91
        4
 64
     7
 65
   257
 75
     1
175
     1
 42
1.0
 92
        0
 66
   257
 43
1.0
 76
     1
 77
     6
 78
     2
 67
     7
 79
     5
170
     0
171
     0
290
     0
174
     0
 93
        1
 44
0.0
173
     0
291
     0
 45
0.0
  0
VISUALSTYLE
  5
31
102
{ACAD_REACTORS
330
2A
102
}
330
2A
100
AcDbVisualStyle
  2
3D Hidden
 70
     6
 71
     1
 72
     2
 73
     2
 90
        0
 40
-0.6
 41
-30.0
 62
     5
 63
     7
421
 16777215
 74
     2
 91
        2
 64
     7
 65
   257
 75
     2
175
     1
 42
40.0
 92
        0
 66
   257
 43
1.0
 76
     1
 77
     6
 78
     2
 67
     7
 79
     3
170
     0
171
     0
290
     0
174
     0
 93
        1
 44
0.0
173
     0
291
     0
 45
0.0
  0
VISUALSTYLE
  5
30
102
{ACAD_REACTORS
330
2A
102
}
330
2A
100
AcDbVisualStyle
  2
3dWireframe
 70
     5
 71
     0
 72
     2
 73
     0
 90
        0
 40
-0.6
 41
-30.0
 62
     5
 63
     7
421
 16777215
 74
     1
 91
        4
 64
     7
 65
   257
 75
     1
175
     1
 42
1.0
 92
        0
 66
   257
 43
1.0
 76
     1
 77
     6
 78
     2
 67
     7
 79
     5
170
     0
171
     0
290
     0
174
     0
 93
        1
 44
0.0
173
     0
291
     0
 45
0.0
  0
VISUALSTYLE
  5
32
102
{ACAD_REACTORS
330
2A
102
}
330
2A
100
AcDbVisualStyle
  2
Basic
 70
     7
 71
     1
 72
     0
 73
     1
 90
        0
 40
-0.6
 41
-30.0
 62
     5
 63
     7
421
 16777215
 74
     0
 91
        4
 64
     7
 65
   257
 75
     1
175
     1
 42
1.0
 92
        8
 66
     7
 43
1.0
 76
     1
 77
     6
 78
     2
 67
     7
 79
     5
170
     0
171
     0
290
     0
174
     0
 93
        1
 44
0.0
173
     0
291
     1
 45
0.0
  0
VISUALSTYLE
  5
36
102
{ACAD_REACTORS
330
2A
102
}
330
2A
100
AcDbVisualStyle
  2
Brighten
 70
    12
 71
     2
 72
     2
 73
     0
 90
        0
 40
-0.6
 41
-30.0
 62
     5
 63
     7
421
 16777215
 74
     1
 91
        4
 64
     7
 65
   257
 75
     1
175
     1
 42
1.0
 92
        8
 66
     7
 43
1.0
 76
     1
 77
     6
 78
     2
 67
     7
 79
     5
170
     0
171
     0
290
     0
174
     0
 93
        1
 44
50.0
173
     0
291
     1
 45
0.0
  0
VISUALSTYLE
  5
3A
102
{ACAD_REACTORS
330
2A
102
}
330
2A
100
AcDbVisualStyle
  2
ColorChange
 70
    16
 71
     2
 72
     2
 73
     3
 90
        0
 40
-0.6
 41
-30.0
 62
     5
 63
     8
421
  8421504
 74
     1
 91
        4
 64
     7
 65
   257
 75
     1
175
     1
 42
1.0
 92
        8
 66
     8
424
  8421504
 43
1.0
 76
     1
 77
     6
 78
     2
 67
     7
 79
     5
170
     0
171
     0
290
     0
174
     0
 93
        1
 44
0.0
173
     0
291
     1
 45
0.0
  0
VISUALSTYLE
  5
34
102
{ACAD_REACTORS
330
2A
102
}
330
2A
100
AcDbVisualStyle
  2
Conceptual
 70
     9
 71
     3
 72
     2
 73
     0
 90
        0
 40
-0.6
 41
-30.0
 62
     5
 63
     7
421
 16777215
 74
     2
 91
        2
 64
     7
 65
   257
 75
     1
175
     1
 42
40.0
 92
        8
 66
     7
 43
1.0
 76
     1
 77
     6
 78
     2
 67
     7
 79
     3
170
     0
171
     0
290
     0
174
     0
 93
        1
 44
0.0
173
     0
291
     0
 45
0.0
  0
VISUALSTYLE
  5
35
102
{ACAD_REACTORS
330
2A
102
}
330
2A
100
AcDbVisualStyle
  2
Dim
 70
    11
 71
     2
 72
     2
 73
     0
 90
        0
 40
-0.6
 41
-30.0
 62
     5
 63
     7
421
 16777215
 74
     1
 91
        4
 64
     7
 65
   257
 75
     1
175
     1
 42
1.0
 92
        8
 66
     7
 43
1.0
 76
     1
 77
     6
 78
     2
 67
     7
 79
     5
170
     0
171
     0
290
     0
174
     0
 93
        1
 44
-50.0
173
     0
291
     1
 45
0.0
  0
VISUALSTYLE
  5
39
102
{ACAD_REACTORS
330
2A
102
}
330
2A
100
AcDbVisualStyle
  2
Facepattern
 70
    15
 71
     2
 72
     2
 73
     0
 90
        0
 40
-0.6
 41
-30.0
 62
     5
 63
     7
421
 16777215
 74
     1
 91
        4
 64
     7
 65
   257
 75
     1
175
     1
 42
1.0
 92
        8
 66
     7
 43
1.0
 76
     1
 77
     6
 78
     2
 67
     7
 79
     5
170
     0
171
     0
290
     0
174
     0
 93
        1
 44
0.0
173
     0
291
     1
 45
0.0
  0
VISUALSTYLE
  5
2B
102
{ACAD_REACTORS
330
2A
102
}
330
2A
100
AcDbVisualStyle
  2
Flat
 70
     0
 71
     2
 72
     1
 73
     1
 90
        2
 40
-0.6
 41
30.0
 62
     5
 63
     7
421
 16777215
 74
     0
 91
        4
 64
     7
 65
   257
 75
     1
175
     1
 42
1.0
 92
        8
 66
     7
 43
1.0
 76
     1
 77
     6
 78
     2
 67
     7
 79
     5
170
     0
171
     0
290
     0
174
     0
 93
       13
 44
0.0
173
     0
291
     1
 45
0.0
  0
VISUALSTYLE
  5
2C
102
{ACAD_REACTORS
330
2A
102
}
330
2A
100
AcDbVisualStyle
  2
FlatWithEdges
 70
     1
 71
     2
 72
     1
 73
     1
 90
        2
 40
-0.6
 41
30.0
 62
     5
 63
     7
421
 16777215
 74
     1
 91
        4
 64
     7
 65
   257
 75
     1
175
     1
 42
1.0
 92
        0
 66
   257
 43
1.0
 76
     1
 77
     6
 78
     2
 67
     7
 79
     5
170
     0
171
     0
290
     0
174
     0
 93
       13
 44
0.0
173
     0
291
     1
 45
0.0
  0
VISUALSTYLE
  5
2D
102
{ACAD_REACTORS
330
2A
102
}
330
2A
100
AcDbVisualStyle
  2
Gouraud
 70
     2
 71
     2
 72
     2
 73
     1
 90
        2
 40
-0.6
 41
30.0
 62
     5
 63
     7
421
 16777215
 74
     0
 91
        4
 64
     7
 65
   257
 75
     1
175
     1
 42
1.0
 92
        0
 66
     7
 43
1.0
 76
     1
 77
     6
 78
     2
 67
     7
 79
     5
170
     0
171
     0
290
     0
174
     0
 93
       13
 44
0.0
173
     0
291
     1
 45
0.0
  0
VISUALSTYLE
  5
2E
102
{ACAD_REACTORS
330
2A
102
}
330
2A
100
AcDbVisualStyle
  2
GouraudWithEdges
 70
     3
 71
     2
 72
     2
 73
     1
 90
        2
 40
-0.6
 41
30.0
 62
     5
 63
     7
421
 16777215
 74
     1
 91
        4
 64
     7
 65
   257
 75
     1
175
     1
 42
1.0
 92
        0
 66
   257
 43
1.0
 76
     1
 77
     6
 78
     2
 67
     7
 79
     5
170
     0
171
     0
290
     0
174
     0
 93
       13
 44
0.0
173
     0
291
     1
 45
0.0
  0
VISUALSTYLE
  5
38
102
{ACAD_REACTORS
330
2A
102
}
330
2A
100
AcDbVisualStyle
  2
Linepattern
 70
    14
 71
     2
 72
     2
 73
     0
 90
        0
 40
-0.6
 41
-30.0
 62
     5
 63
     7
421
 16777215
 74
     1
 91
        4
 64
     7
 65
   257
 75
     7
175
     7
 42
1.0
 92
        8
 66
     7
 43
1.0
 76
     1
 77
     6
 78
     2
 67
     7
 79
     5
170
     0
171
     0
290
     0
174
     0
 93
        1
 44
0.0
173
     0
291
     1
 45
0.0
  0
VISUALSTYLE
  5
33
102
{ACAD_REACTORS
330
2A
102
}
330
2A
100
AcDbVisualStyle
  2
Realistic
 70
     8
 71
     2
 72
     2
 73
     0
 90
        0
 40
-0.6
 41
-30.0
 62
     5
 63
     7
421
 16777215
 74
     1
 91
        0
 64
     7
 65
   257
 75
     1
175
     1
 42
1.0
 92
        8
 66
     8
424
  7895160
 43
1.0
 76
     1
 77
     6
 78
     2
 67
     7
 79
     5
170
     0
171
     0
290
     0
174
     0
 93
       13
 44
0.0
173
     0
291
     0
 45
0.0
  0
VISUALSTYLE
  5
37
102
{ACAD_REACTORS
330
2A
102
}
330
2A
100
AcDbVisualStyle
  2
Thicken
 70
    13
 71
     2
 72
     2
 73
     0
 90
        0
 40
-0.6
 41
-30.0
 62
     5
 63
     7
421
 16777215
 74
     1
 91
        4
 64
     7
 65
   257
 75
     1
175
     1
 42
1.0
 92
       12
 66
     7
 43
1.0
 76
     1
 77
     6
 78
     2
 67
     7
 79
     5
170
     0
171
     0
290
     0
174
     0
 93
        1
 44
0.0
173
     0
291
     1
 45
0.0
  0
ENDSEC
  0
EOF
