  0
SECTION
  2
HEADER
  9
$ACADVER
  1
AC1021
  9
$ACADMAINTVER
 70
    25
  9
$DWGCODEPAGE
  3
ANSI_1252
  9
$INSBASE
 10
0.0
 20
0.0
 30
0.0
  9
$EXTMIN
 10
-11.5
 20
-15.1429
 30
0.0
  9
$EXTMAX
 10
-9.5
 20
-13.8
 30
0.0
  9
$LIMMIN
 10
0.0
 20
0.0
  9
$LIMMAX
 10
12.0
 20
9.0
  9
$ORTHOMODE
 70
     0
  9
$REGENMODE
 70
     1
  9
$FILLMODE
 70
     1
  9
$QTEXTMODE
 70
     0
  9
$MIRRTEXT
 70
     1
  9
$LTSCALE
 40
1.0
  9
$ATTMODE
 70
     1
  9
$TEXTSIZE
 40
0.2
  9
$TRACEWID
 40
0.05
  9
$TEXTSTYLE
  7
Standard
  9
$CLAYER
  8
0
  9
$CELTYPE
  6
ByLayer
  9
$CECOLOR
 62
   256
  9
$CELTSCALE
 40
1.0
  9
$DISPSILH
 70
     0
  9
$DIMSCALE
 40
1.0
  9
$DIMASZ
 40
0.18
  9
$DIMEXO
 40
0.0625
  9
$DIMDLI
 40
0.38
  9
$DIMRND
 40
0.0
  9
$DIMDLE
 40
0.0
  9
$DIMEXE
 40
0.18
  9
$DIMTP
 40
0.0
  9
$DIMTM
 40
0.0
  9
$DIMTXT
 40
0.18
  9
$DIMCEN
 40
0.09
  9
$DIMTSZ
 40
0.0
  9
$DIMTOL
 70
     0
  9
$DIMLIM
 70
     0
  9
$DIMTIH
 70
     1
  9
$DIMTOH
 70
     1
  9
$DIMSE1
 70
     0
  9
$DIMSE2
 70
     0
  9
$DIMTAD
 70
     0
  9
$DIMZIN
 70
     0
  9
$DIMBLK
  1

  9
$DIMASO
 70
     1
  9
$DIMSHO
 70
     1
  9
$DIMPOST
  1

  9
$DIMAPOST
  1

  9
$DIMALT
 70
     0
  9
$DIMALTD
 70
     2
  9
$DIMALTF
 40
25.4
  9
$DIMLFAC
 40
1.0
  9
$DIMTOFL
 70
     0
  9
$DIMTVP
 40
0.0
  9
$DIMTIX
 70
     0
  9
$DIMSOXD
 70
     0
  9
$DIMSAH
 70
     0
  9
$DIMBLK1
  1

  9
$DIMBLK2
  1

  9
$DIMSTYLE
  2
Standard
  9
$DIMCLRD
 70
     0
  9
$DIMCLRE
 70
     0
  9
$DIMCLRT
 70
     0
  9
$DIMTFAC
 40
1.0
  9
$DIMGAP
 40
0.09
  9
$DIMJUST
 70
     0
  9
$DIMSD1
 70
     0
  9
$DIMSD2
 70
     0
  9
$DIMTOLJ
 70
     1
  9
$DIMTZIN
 70
     0
  9
$DIMALTZ
 70
     0
  9
$DIMALTTZ
 70
     0
  9
$DIMUPT
 70
     0
  9
$DIMDEC
 70
     4
  9
$DIMTDEC
 70
     4
  9
$DIMALTU
 70
     2
  9
$DIMALTTD
 70
     2
  9
$DIMTXSTY
  7
Standard
  9
$DIMAUNIT
 70
     0
  9
$DIMADEC
 70
     0
  9
$DIMALTRND
 40
0.0
  9
$DIMAZIN
 70
     0
  9
$DIMDSEP
 70
    46
  9
$DIMATFIT
 70
     3
  9
$DIMFRAC
 70
     0
  9
$DIMLDRBLK
  1

  9
$DIMLUNIT
 70
     2
  9
$DIMLWD
 70
    -2
  9
$DIMLWE
 70
    -2
  9
$DIMTMOVE
 70
     0
  9
$DIMFXL
 40
1.0
  9
$DIMFXLON
 70
     0
  9
$DIMJOGANG
 40
0.7853981633974483
  9
$DIMTFILL
 70
     0
  9
$DIMTFILLCLR
 70
     0
  9
$DIMARCSYM
 70
     0
  9
$DIMLTYPE
  6

  9
$DIMLTEX1
  6

  9
$DIMLTEX2
  6

  9
$LUNITS
 70
     2
  9
$LUPREC
 70
     4
  9
$SKETCHINC
 40
0.1
  9
$FILLETRAD
 40
0.5
  9
$AUNITS
 70
     0
  9
$AUPREC
 70
     0
  9
$MENU
  1
.
  9
$ELEVATION
 40
0.0
  9
$PELEVATION
 40
0.0
  9
$THICKNESS
 40
0.0
  9
$LIMCHECK
 70
     0
  9
$CHAMFERA
 40
0.5
  9
$CHAMFERB
 40
0.5
  9
$CHAMFERC
 40
1.0
  9
$CHAMFERD
 40
0.0
  9
$SKPOLY
 70
     0
  9
$TDCREATE
 40
2458675.250337512
  9
$TDUCREATE
 40
2458675.208670845
  9
$TDUPDATE
 40
2458675.250337523
  9
$TDUUPDATE
 40
2458675.208670856
  9
$TDINDWG
 40
0.0000000116
  9
$TDUSRTIMER
 40
0.0000000116
  9
$USRTIMER
 70
     1
  9
$ANGBASE
 50
0.0
  9
$ANGDIR
 70
     0
  9
$PDMODE
 70
     0
  9
$PDSIZE
 40
0.0
  9
$PLINEWID
 40
0.0
  9
$SPLFRAME
 70
     0
  9
$SPLINETYPE
 70
     6
  9
$SPLINESEGS
 70
     8
  9
$HANDSEED
  5
8E
  9
$SURFTAB1
 70
     6
  9
$SURFTAB2
 70
     6
  9
$SURFTYPE
 70
     6
  9
$SURFU
 70
     6
  9
$SURFV
 70
     6
  9
$UCSBASE
  2

  9
$UCSNAME
  2

  9
$UCSORG
 10
0.0
 20
0.0
 30
0.0
  9
$UCSXDIR
 10
1.0
 20
0.0
 30
0.0
  9
$UCSYDIR
 10
0.0
 20
1.0
 30
0.0
  9
$UCSORTHOREF
  2

  9
$UCSORTHOVIEW
 70
     0
  9
$UCSORGTOP
 10
0.0
 20
0.0
 30
0.0
  9
$UCSORGBOTTOM
 10
0.0
 20
0.0
 30
0.0
  9
$UCSORGLEFT
 10
0.0
 20
0.0
 30
0.0
  9
$UCSORGRIGHT
 10
0.0
 20
0.0
 30
0.0
  9
$UCSORGFRONT
 10
0.0
 20
0.0
 30
0.0
  9
$UCSORGBACK
 10
0.0
 20
0.0
 30
0.0
  9
$PUCSBASE
  2

  9
$PUCSNAME
  2

  9
$PUCSORG
 10
0.0
 20
0.0
 30
0.0
  9
$PUCSXDIR
 10
1.0
 20
0.0
 30
0.0
  9
$PUCSYDIR
 10
0.0
 20
1.0
 30
0.0
  9
$PUCSORTHOREF
  2

  9
$PUCSORTHOVIEW
 70
     0
  9
$PUCSORGTOP
 10
0.0
 20
0.0
 30
0.0
  9
$PUCSORGBOTTOM
 10
0.0
 20
0.0
 30
0.0
  9
$PUCSORGLEFT
 10
0.0
 20
0.0
 30
0.0
  9
$PUCSORGRIGHT
 10
0.0
 20
0.0
 30
0.0
  9
$PUCSORGFRONT
 10
0.0
 20
0.0
 30
0.0
  9
$PUCSORGBACK
 10
0.0
 20
0.0
 30
0.0
  9
$USERI1
 70
     0
  9
$USERI2
 70
     0
  9
$USERI3
 70
     0
  9
$USERI4
 70
     0
  9
$USERI5
 70
     0
  9
$USERR1
 40
0.0
  9
$USERR2
 40
0.0
  9
$USERR3
 40
0.0
  9
$USERR4
 40
0.0
  9
$USERR5
 40
0.0
  9
$WORLDVIEW
 70
     1
  9
$SHADEDGE
 70
     3
  9
$SHADEDIF
 70
    70
  9
$TILEMODE
 70
     1
  9
$MAXACTVP
 70
    64
  9
$PINSBASE
 10
0.0
 20
0.0
 30
0.0
  9
$PLIMCHECK
 70
     0
  9
$PEXTMIN
 10
1.000000000000000E+20
 20
1.000000000000000E+20
 30
1.000000000000000E+20
  9
$PEXTMAX
 10
-1.000000000000000E+20
 20
-1.000000000000000E+20
 30
-1.000000000000000E+20
  9
$PLIMMIN
 10
0.0
 20
0.0
  9
$PLIMMAX
 10
12.0
 20
9.0
  9
$UNITMODE
 70
     0
  9
$VISRETAIN
 70
     1
  9
$PLINEGEN
 70
     0
  9
$PSLTSCALE
 70
     1
  9
$TREEDEPTH
 70
  3020
  9
$CMLSTYLE
  2
Standard
  9
$CMLJUST
 70
     0
  9
$CMLSCALE
 40
1.0
  9
$PROXYGRAPHICS
 70
     1
  9
$MEASUREMENT
 70
     0
  9
$CELWEIGHT
370
    -1
  9
$ENDCAPS
280
     0
  9
$JOINSTYLE
280
     0
  9
$LWDISPLAY
290
     0
  9
$INSUNITS
 70
     5
  9
$HYPERLINKBASE
  1

  9
$STYLESHEET
  1

  9
$XEDIT
290
     1
  9
$CEPSNTYPE
380
     0
  9
$PSTYLEMODE
290
     1
  9
$FINGERPRINTGUID
  2
{83F0CF3F-A7B2-478C-BFCF-B69B80D2DCE8}
  9
$VERSIONGUID
  2
{FAEB1C32-E019-11D5-929B-00C0DF256EC4}
  9
$EXTNAMES
290
     1
  9
$PSVPSCALE
 40
0.0
  9
$OLESTARTUP
290
     0
  9
$SORTENTS
280
   127
  9
$INDEXCTL
280
     0
  9
$HIDETEXT
280
     1
  9
$XCLIPFRAME
290
     0
  9
$HALOGAP
280
     0
  9
$OBSCOLOR
 70
   257
  9
$OBSLTYPE
280
     0
  9
$INTERSECTIONDISPLAY
280
     0
  9
$INTERSECTIONCOLOR
 70
   257
  9
$DIMASSOC
280
     2
  9
$PROJECTNAME
  1

  9
$CAMERADISPLAY
290
     0
  9
$LENSLENGTH
 40
50.0
  9
$CAMERAHEIGHT
 40
0.0
  9
$STEPSPERSEC
 40
2.0
  9
$STEPSIZE
 40
6.0
  9
$3DDWFPREC
 40
2.0
  9
$PSOLWIDTH
 40
0.25
  9
$PSOLHEIGHT
 40
4.0
  9
$LOFTANG1
 40
1.570796326794897
  9
$LOFTANG2
 40
1.570796326794897
  9
$LOFTMAG1
 40
0.0
  9
$LOFTMAG2
 40
0.0
  9
$LOFTPARAM
 70
     7
  9
$LOFTNORMALS
280
     1
  9
$LATITUDE
 40
37.795
  9
$LONGITUDE
 40
-122.394
  9
$NORTHDIRECTION
 40
0.0
  9
$TIMEZONE
 70
 -8000
  9
$LIGHTGLYPHDISPLAY
280
     1
  9
$TILEMODELIGHTSYNCH
280
     1
  9
$SOLIDHIST
280
     1
  9
$SHOWHIST
280
     1
  9
$DWFFRAME
280
     2
  9
$DGNFRAME
280
     2
  9
$REALWORLDSCALE
290
     1
  9
$INTERFERECOLOR
 62
   256
  9
$CSHADOW
280
     0
  9
$SHADOWPLANELOCATION
 40
0.0
  0
ENDSEC
  0
SECTION
  2
CLASSES
  0
CLASS
  1
ACDBDICTIONARYWDFLT
  2
AcDbDictionaryWithDefault
  3
ObjectDBX Classes
 90
        0
 91
        3
280
     0
281
     0
  0
CLASS
  1
VISUALSTYLE
  2
AcDbVisualStyle
  3
ObjectDBX Classes
 90
     4095
 91
        3
280
     0
281
     0
  0
CLASS
  1
SCALE
  2
AcDbScale
  3
ObjectDBX Classes
 90
     1153
 91
        3
280
     0
281
     0
  0
ENDSEC
  0
SECTION
  2
TABLES
  0
TABLE
  2
VPORT
  5
8
330
0
100
AcDbSymbolTable
 70
     1
  0
VPORT
  5
29
330
8
100
AcDbSymbolTableRecord
100
AcDbViewportTableRecord
  2
*Active
 70
     0
 10
0.0
 20
0.0
 11
1.0
 21
1.0
 12
10.42990654205607
 22
4.5
 13
0.0
 23
0.0
 14
0.5
 24
0.5
 15
0.5
 25
0.5
 16
0.0
 26
0.0
 36
1.0
 17
0.0
 27
0.0
 37
0.0
 40
9.0
 41
1.972972972850329
 42
50.0
 43
0.0
 44
0.0
 50
0.0
 51
0.0
 71
     0
 72
   100
 73
     1
 74
     3
 75
     0
 76
     0
 77
     0
 78
     0
281
     0
 65
     1
110
0.0
120
0.0
130
0.0
111
1.0
121
0.0
131
0.0
112
0.0
122
1.0
132
0.0
 79
     0
146
0.0
 60
     3
 61
     5
292
     1
282
     1
141
0.0
142
0.0
 63
   256
  0
ENDTAB
  0
TABLE
  2
LTYPE
  5
5
330
0
100
AcDbSymbolTable
 70
     1
  0
LTYPE
  5
14
330
5
100
AcDbSymbolTableRecord
100
AcDbLinetypeTableRecord
  2
ByBlock
 70
     0
  3

 72
    65
 73
     0
 40
0.0
  0
LTYPE
  5
15
330
5
100
AcDbSymbolTableRecord
100
AcDbLinetypeTableRecord
  2
ByLayer
 70
     0
  3

 72
    65
 73
     0
 40
0.0
  0
LTYPE
  5
16
330
5
100
AcDbSymbolTableRecord
100
AcDbLinetypeTableRecord
  2
Continuous
 70
     0
  3
Solid line
 72
    65
 73
     0
 40
0.0
  0
ENDTAB
  0
TABLE
  2
LAYER
  5
2
330
0
100
AcDbSymbolTable
 70
     2
  0
LAYER
  5
10
330
2
100
AcDbSymbolTableRecord
100
AcDbLayerTableRecord
  2
0
 70
     0
 62
     7
  6
Continuous
370
    -3
390
F
347
0
  0
LAYER
  5
5E
330
2
100
AcDbSymbolTableRecord
100
AcDbLayerTableRecord
  2
Layer 1
 70
     0
 62
     7
  6
Continuous
370
    -3
390
F
347
0
  0
ENDTAB
  0
TABLE
  2
STYLE
  5
3
330
0
100
AcDbSymbolTable
 70
     1
  0
STYLE
  5
11
330
3
100
AcDbSymbolTableRecord
100
AcDbTextStyleTableRecord
  2
Standard
 70
     0
 40
0.0
 41
1.0
 50
0.0
 71
     0
 42
0.2
  3
txt
  4

  0
ENDTAB
  0
TABLE
  2
VIEW
  5
6
330
0
100
AcDbSymbolTable
 70
     0
  0
ENDTAB
  0
TABLE
  2
UCS
  5
7
330
0
100
AcDbSymbolTable
 70
     0
  0
ENDTAB
  0
TABLE
  2
APPID
  5
9
330
0
100
AcDbSymbolTable
 70
     2
  0
APPID
  5
12
330
9
100
AcDbSymbolTableRecord
100
AcDbRegAppTableRecord
  2
ACAD
 70
     0
  0
APPID
  5
5D
330
9
100
AcDbSymbolTableRecord
100
AcDbRegAppTableRecord
  2
ODA
 70
     0
  0
ENDTAB
  0
TABLE
  2
DIMSTYLE
  5
A
330
0
100
AcDbSymbolTable
 70
     1
100
AcDbDimStyleTable
  0
DIMSTYLE
105
27
330
A
100
AcDbSymbolTableRecord
100
AcDbDimStyleTableRecord
  2
Standard
 70
     0
340
11
  0
ENDTAB
  0
TABLE
  2
BLOCK_RECORD
  5
1
330
0
100
AcDbSymbolTable
 70
     1
  0
BLOCK_RECORD
  5
1F
330
1
100
AcDbSymbolTableRecord
100
AcDbBlockTableRecord
  2
*Model_Space
340
22
 70
     0
280
     1
281
     0
  0
BLOCK_RECORD
  5
1B
330
1
100
AcDbSymbolTableRecord
100
AcDbBlockTableRecord
  2
*Paper_Space
340
1E
 70
     0
280
     1
281
     0
  0
BLOCK_RECORD
  5
23
330
1
100
AcDbSymbolTableRecord
100
AcDbBlockTableRecord
  2
*Paper_Space0
340
26
 70
     0
280
     1
281
     0
  0
ENDTAB
  0
ENDSEC
  0
SECTION
  2
BLOCKS
  0
BLOCK
  5
20
330
1F
100
AcDbEntity
  8
0
100
AcDbBlockBegin
  2
*Model_Space
 70
     0
 10
0.0
 20
0.0
 30
0.0
  3
*Model_Space
  1

  0
ENDBLK
  5
21
330
1F
100
AcDbEntity
  8
0
100
AcDbBlockEnd
  0
BLOCK
  5
1C
330
1B
100
AcDbEntity
 67
     1
  8
0
100
AcDbBlockBegin
  2
*Paper_Space
 70
     0
 10
0.0
 20
0.0
 30
0.0
  3
*Paper_Space
  1

  0
ENDBLK
  5
1D
330
1B
100
AcDbEntity
 67
     1
  8
0
100
AcDbBlockEnd
  0
BLOCK
  5
24
330
23
100
AcDbEntity
  8
0
100
AcDbBlockBegin
  2
*Paper_Space0
 70
     0
 10
0.0
 20
0.0
 30
0.0
  3
*Paper_Space0
  1

  0
ENDBLK
  5
25
330
23
100
AcDbEntity
  8
0
100
AcDbBlockEnd
  0
ENDSEC
  0
SECTION
  2
ENTITIES
  0
LWPOLYLINE
  5
5F
330
1F
100
AcDbEntity
  8
Layer 1
 62
     7
370
    20
100
AcDbPolyline
 90
        5
 70
     1
 43
0.0
 10
-10.754
 20
-14.977
 10
-10.246
 20
-14.977
 10
-10.246
 20
-14.723
 10
-10.754
 20
-14.723
 10
-10.754
 20
-14.977
  0
LWPOLYLINE
  5
60
330
1F
100
AcDbEntity
  8
Layer 1
 62
     7
370
    20
100
AcDbPolyline
 90
        5
 70
     1
 43
0.0
 10
-10.405
 20
-14.882
 10
-10.341
 20
-14.882
 10
-10.341
 20
-14.818
 10
-10.405
 20
-14.818
 10
-10.405
 20
-14.882
  0
LWPOLYLINE
  5
61
330
1F
100
AcDbEntity
  8
Layer 1
 62
     7
370
    20
100
AcDbPolyline
 90
        5
 70
     1
 43
0.0
 10
-10.659
 20
-14.882
 10
-10.595
 20
-14.882
 10
-10.595
 20
-14.818
 10
-10.659
 20
-14.818
 10
-10.659
 20
-14.882
  0
SPLINE
  5
62
330
1F
100
AcDbEntity
  8
Layer 1
 62
   250
100
AcDbSpline
210
0.0
220
0.0
230
1.0
 70
    11
 71
     3
 72
    80
 73
    76
 74
     0
 42
0.0000000001
 43
0.0000000001
 40
0.0
 40
0.0
 40
0.0
 40
0.0
 40
0.0526315789473684
 40
0.0526315789473684
 40
0.0526315789473684
 40
0.0526315789473684
 40
0.1052631578947368
 40
0.1052631578947368
 40
0.1052631578947368
 40
0.1052631578947368
 40
0.1578947368421053
 40
0.1578947368421053
 40
0.1578947368421053
 40
0.1578947368421053
 40
0.2105263157894737
 40
0.2105263157894737
 40
0.2105263157894737
 40
0.2105263157894737
 40
0.2631578947368421
 40
0.2631578947368421
 40
0.2631578947368421
 40
0.2631578947368421
 40
0.3157894736842105
 40
0.3157894736842105
 40
0.3157894736842105
 40
0.3157894736842105
 40
0.3684210526315789
 40
0.3684210526315789
 40
0.3684210526315789
 40
0.3684210526315789
 40
0.4210526315789473
 40
0.4210526315789473
 40
0.4210526315789473
 40
0.4210526315789473
 40
0.4736842105263158
 40
0.4736842105263158
 40
0.4736842105263158
 40
0.4736842105263158
 40
0.5263157894736842
 40
0.5263157894736842
 40
0.5263157894736842
 40
0.5263157894736842
 40
0.5789473684210527
 40
0.5789473684210527
 40
0.5789473684210527
 40
0.5789473684210527
 40
0.631578947368421
 40
0.631578947368421
 40
0.631578947368421
 40
0.631578947368421
 40
0.6842105263157894
 40
0.6842105263157894
 40
0.6842105263157894
 40
0.6842105263157894
 40
0.7368421052631577
 40
0.7368421052631577
 40
0.7368421052631577
 40
0.7368421052631577
 40
0.7894736842105261
 40
0.7894736842105261
 40
0.7894736842105261
 40
0.7894736842105261
 40
0.8421052631578945
 40
0.8421052631578945
 40
0.8421052631578945
 40
0.8421052631578945
 40
0.8947368421052628
 40
0.8947368421052628
 40
0.8947368421052628
 40
0.8947368421052628
 40
0.9473684210526312
 40
0.9473684210526312
 40
0.9473684210526312
 40
0.9473684210526312
 40
1.0
 40
1.0
 40
1.0
 40
1.0
 10
-10.80503
 20
-14.08297
 30
0.0
 10
-10.80503
 20
-14.08297
 30
0.0
 10
-10.75975
 20
-14.08297
 30
0.0
 10
-10.75975
 20
-14.08297
 30
0.0
 10
-10.75975
 20
-14.08297
 30
0.0
 10
-10.75975
 20
-14.08297
 30
0.0
 10
-10.75975
 20
-14.10247
 30
0.0
 10
-10.75975
 20
-14.10247
 30
0.0
 10
-10.75975
 20
-14.10247
 30
0.0
 10
-10.75975
 20
-14.10247
 30
0.0
 10
-10.83452
 20
-14.10247
 30
0.0
 10
-10.83452
 20
-14.10247
 30
0.0
 10
-10.83452
 20
-14.10247
 30
0.0
 10
-10.83452
 20
-14.10247
 30
0.0
 10
-10.83452
 20
-14.08297
 30
0.0
 10
-10.83452
 20
-14.08297
 30
0.0
 10
-10.83452
 20
-14.08297
 30
0.0
 10
-10.83452
 20
-14.08297
 30
0.0
 10
-10.79696
 20
-14.04984
 30
0.0
 10
-10.79696
 20
-14.04984
 30
0.0
 10
-10.79696
 20
-14.04984
 30
0.0
 10
-10.7936
 20
-14.0468
 30
0.0
 10
-10.79113
 20
-14.04384
 30
0.0
 10
-10.78953
 20
-14.04095
 30
0.0
 10
-10.78953
 20
-14.04095
 30
0.0
 10
-10.78791
 20
-14.03805
 30
0.0
 10
-10.78711
 20
-14.03504
 30
0.0
 10
-10.78711
 20
-14.03191
 30
0.0
 10
-10.78711
 20
-14.03191
 30
0.0
 10
-10.78711
 20
-14.02709
 30
0.0
 10
-10.78873
 20
-14.02321
 30
0.0
 10
-10.79197
 20
-14.02027
 30
0.0
 10
-10.79197
 20
-14.02027
 30
0.0
 10
-10.7952
 20
-14.01733
 30
0.0
 10
-10.7995
 20
-14.01588
 30
0.0
 10
-10.80489
 20
-14.01588
 30
0.0
 10
-10.80489
 20
-14.01588
 30
0.0
 10
-10.80902
 20
-14.01588
 30
0.0
 10
-10.81354
 20
-14.01677
 30
0.0
 10
-10.81846
 20
-14.01853
 30
0.0
 10
-10.81846
 20
-14.01853
 30
0.0
 10
-10.82337
 20
-14.0203
 30
0.0
 10
-10.82864
 20
-14.02293
 30
0.0
 10
-10.83424
 20
-14.02641
 30
0.0
 10
-10.83424
 20
-14.02641
 30
0.0
 10
-10.83424
 20
-14.02641
 30
0.0
 10
-10.83424
 20
-14.00381
 30
0.0
 10
-10.83424
 20
-14.00381
 30
0.0
 10
-10.83424
 20
-14.00381
 30
0.0
 10
-10.82826
 20
-14.00184
 30
0.0
 10
-10.82236
 20
-14.00033
 30
0.0
 10
-10.81653
 20
-13.9993
 30
0.0
 10
-10.81653
 20
-13.9993
 30
0.0
 10
-10.81069
 20
-13.99826
 30
0.0
 10
-10.80498
 20
-13.99774
 30
0.0
 10
-10.79936
 20
-13.99774
 30
0.0
 10
-10.79936
 20
-13.99774
 30
0.0
 10
-10.78706
 20
-13.99774
 30
0.0
 10
-10.77749
 20
-14.00045
 30
0.0
 10
-10.77067
 20
-14.00588
 30
0.0
 10
-10.77067
 20
-14.00588
 30
0.0
 10
-10.76385
 20
-14.01129
 30
0.0
 10
-10.76044
 20
-14.01884
 30
0.0
 10
-10.76044
 20
-14.02855
 30
0.0
 10
-10.76044
 20
-14.02855
 30
0.0
 10
-10.76044
 20
-14.03415
 30
0.0
 10
-10.76189
 20
-14.03937
 30
0.0
 10
-10.76479
 20
-14.04422
 30
0.0
 10
-10.76479
 20
-14.04422
 30
0.0
 10
-10.76768
 20
-14.04906
 30
0.0
 10
-10.77377
 20
-14.05555
 30
0.0
 10
-10.78304
 20
-14.06369
 30
0.0
 10
-10.78304
 20
-14.06369
 30
0.0
 10
-10.78304
 20
-14.06369
 30
0.0
 10
-10.80503
 20
-14.08297
 30
0.0
 10
-10.80503
 20
-14.08297
 30
0.0
  0
SPLINE
  5
63
330
1F
100
AcDbEntity
  8
Layer 1
 62
   250
100
AcDbSpline
210
0.0
220
0.0
230
1.0
 70
    11
 71
     3
 72
    20
 73
    16
 74
     0
 42
0.0000000001
 43
0.0000000001
 40
0.0
 40
0.0
 40
0.0
 40
0.0
 40
0.25
 40
0.25
 40
0.25
 40
0.25
 40
0.5
 40
0.5
 40
0.5
 40
0.5
 40
0.75
 40
0.75
 40
0.75
 40
0.75
 40
1.0
 40
1.0
 40
1.0
 40
1.0
 10
-10.73311
 20
-14.0758
 30
0.0
 10
-10.73311
 20
-14.0758
 30
0.0
 10
-10.70829
 20
-14.0758
 30
0.0
 10
-10.70829
 20
-14.0758
 30
0.0
 10
-10.70829
 20
-14.0758
 30
0.0
 10
-10.70829
 20
-14.0758
 30
0.0
 10
-10.70829
 20
-14.10247
 30
0.0
 10
-10.70829
 20
-14.10247
 30
0.0
 10
-10.70829
 20
-14.10247
 30
0.0
 10
-10.70829
 20
-14.10247
 30
0.0
 10
-10.73311
 20
-14.10247
 30
0.0
 10
-10.73311
 20
-14.10247
 30
0.0
 10
-10.73311
 20
-14.10247
 30
0.0
 10
-10.73311
 20
-14.10247
 30
0.0
 10
-10.73311
 20
-14.0758
 30
0.0
 10
-10.73311
 20
-14.0758
 30
0.0
  0
SPLINE
  5
64
330
1F
100
AcDbEntity
  8
Layer 1
 62
   250
100
AcDbSpline
210
0.0
220
0.0
230
1.0
 70
    11
 71
     3
 72
    92
 73
    88
 74
     0
 42
0.0000000001
 43
0.0000000001
 40
0.0
 40
0.0
 40
0.0
 40
0.0
 40
0.0454545454545455
 40
0.0454545454545455
 40
0.0454545454545455
 40
0.0454545454545455
 40
0.0909090909090909
 40
0.0909090909090909
 40
0.0909090909090909
 40
0.0909090909090909
 40
0.1363636363636364
 40
0.1363636363636364
 40
0.1363636363636364
 40
0.1363636363636364
 40
0.1818181818181818
 40
0.1818181818181818
 40
0.1818181818181818
 40
0.1818181818181818
 40
0.2272727272727273
 40
0.2272727272727273
 40
0.2272727272727273
 40
0.2272727272727273
 40
0.2727272727272728
 40
0.2727272727272728
 40
0.2727272727272728
 40
0.2727272727272728
 40
0.3181818181818182
 40
0.3181818181818182
 40
0.3181818181818182
 40
0.3181818181818182
 40
0.3636363636363637
 40
0.3636363636363637
 40
0.3636363636363637
 40
0.3636363636363637
 40
0.4090909090909092
 40
0.4090909090909092
 40
0.4090909090909092
 40
0.4090909090909092
 40
0.4545454545454546
 40
0.4545454545454546
 40
0.4545454545454546
 40
0.4545454545454546
 40
0.5000000000000001
 40
0.5000000000000001
 40
0.5000000000000001
 40
0.5000000000000001
 40
0.5454545454545455
 40
0.5454545454545455
 40
0.5454545454545455
 40
0.5454545454545455
 40
0.5909090909090909
 40
0.5909090909090909
 40
0.5909090909090909
 40
0.5909090909090909
 40
0.6363636363636364
 40
0.6363636363636364
 40
0.6363636363636364
 40
0.6363636363636364
 40
0.6818181818181818
 40
0.6818181818181818
 40
0.6818181818181818
 40
0.6818181818181818
 40
0.7272727272727272
 40
0.7272727272727272
 40
0.7272727272727272
 40
0.7272727272727272
 40
0.7727272727272726
 40
0.7727272727272726
 40
0.7727272727272726
 40
0.7727272727272726
 40
0.818181818181818
 40
0.818181818181818
 40
0.818181818181818
 40
0.818181818181818
 40
0.8636363636363634
 40
0.8636363636363634
 40
0.8636363636363634
 40
0.8636363636363634
 40
0.9090909090909088
 40
0.9090909090909088
 40
0.9090909090909088
 40
0.9090909090909088
 40
0.9545454545454543
 40
0.9545454545454543
 40
0.9545454545454543
 40
0.9545454545454543
 40
1.0
 40
1.0
 40
1.0
 40
1.0
 10
-10.67894
 20
-13.9996
 30
0.0
 10
-10.67894
 20
-13.9996
 30
0.0
 10
-10.613
 20
-13.9996
 30
0.0
 10
-10.613
 20
-13.9996
 30
0.0
 10
-10.613
 20
-13.9996
 30
0.0
 10
-10.613
 20
-13.9996
 30
0.0
 10
-10.613
 20
-14.0191
 30
0.0
 10
-10.613
 20
-14.0191
 30
0.0
 10
-10.613
 20
-14.0191
 30
0.0
 10
-10.613
 20
-14.0191
 30
0.0
 10
-10.6578
 20
-14.0191
 30
0.0
 10
-10.6578
 20
-14.0191
 30
0.0
 10
-10.6578
 20
-14.0191
 30
0.0
 10
-10.6578
 20
-14.0191
 30
0.0
 10
-10.6578
 20
-14.03502
 30
0.0
 10
-10.6578
 20
-14.03502
 30
0.0
 10
-10.6578
 20
-14.03502
 30
0.0
 10
-10.65578
 20
-14.03448
 30
0.0
 10
-10.65375
 20
-14.03406
 30
0.0
 10
-10.65171
 20
-14.03375
 30
0.0
 10
-10.65171
 20
-14.03375
 30
0.0
 10
-10.64966
 20
-14.03344
 30
0.0
 10
-10.64752
 20
-14.0333
 30
0.0
 10
-10.64533
 20
-14.0333
 30
0.0
 10
-10.64533
 20
-14.0333
 30
0.0
 10
-10.63278
 20
-14.0333
 30
0.0
 10
-10.62302
 20
-14.03643
 30
0.0
 10
-10.61603
 20
-14.04271
 30
0.0
 10
-10.61603
 20
-14.04271
 30
0.0
 10
-10.60905
 20
-14.04897
 30
0.0
 10
-10.60557
 20
-14.05771
 30
0.0
 10
-10.60557
 20
-14.06891
 30
0.0
 10
-10.60557
 20
-14.06891
 30
0.0
 10
-10.60557
 20
-14.08003
 30
0.0
 10
-10.60938
 20
-14.08874
 30
0.0
 10
-10.61697
 20
-14.09504
 30
0.0
 10
-10.61697
 20
-14.09504
 30
0.0
 10
-10.62457
 20
-14.10132
 30
0.0
 10
-10.63513
 20
-14.10447
 30
0.0
 10
-10.64863
 20
-14.10447
 30
0.0
 10
-10.64863
 20
-14.10447
 30
0.0
 10
-10.65446
 20
-14.10447
 30
0.0
 10
-10.66025
 20
-14.1039
 30
0.0
 10
-10.66596
 20
-14.10278
 30
0.0
 10
-10.66596
 20
-14.10278
 30
0.0
 10
-10.67168
 20
-14.10165
 30
0.0
 10
-10.67737
 20
-14.09995
 30
0.0
 10
-10.68301
 20
-14.09765
 30
0.0
 10
-10.68301
 20
-14.09765
 30
0.0
 10
-10.68301
 20
-14.09765
 30
0.0
 10
-10.68301
 20
-14.07676
 30
0.0
 10
-10.68301
 20
-14.07676
 30
0.0
 10
-10.68301
 20
-14.07676
 30
0.0
 10
-10.67741
 20
-14.07999
 30
0.0
 10
-10.6721
 20
-14.08239
 30
0.0
 10
-10.66707
 20
-14.08398
 30
0.0
 10
-10.66707
 20
-14.08398
 30
0.0
 10
-10.66203
 20
-14.08561
 30
0.0
 10
-10.65728
 20
-14.08641
 30
0.0
 10
-10.65284
 20
-14.08641
 30
0.0
 10
-10.65284
 20
-14.08641
 30
0.0
 10
-10.64639
 20
-14.08641
 30
0.0
 10
-10.64134
 20
-14.08483
 30
0.0
 10
-10.63764
 20
-14.08168
 30
0.0
 10
-10.63764
 20
-14.08168
 30
0.0
 10
-10.63395
 20
-14.07855
 30
0.0
 10
-10.63209
 20
-14.0743
 30
0.0
 10
-10.63209
 20
-14.06891
 30
0.0
 10
-10.63209
 20
-14.06891
 30
0.0
 10
-10.63209
 20
-14.0635
 30
0.0
 10
-10.63395
 20
-14.05924
 30
0.0
 10
-10.63764
 20
-14.05612
 30
0.0
 10
-10.63764
 20
-14.05612
 30
0.0
 10
-10.64134
 20
-14.05299
 30
0.0
 10
-10.64639
 20
-14.05144
 30
0.0
 10
-10.65284
 20
-14.05144
 30
0.0
 10
-10.65284
 20
-14.05144
 30
0.0
 10
-10.65665
 20
-14.05144
 30
0.0
 10
-10.66072
 20
-14.05193
 30
0.0
 10
-10.66502
 20
-14.05292
 30
0.0
 10
-10.66502
 20
-14.05292
 30
0.0
 10
-10.66935
 20
-14.0539
 30
0.0
 10
-10.67398
 20
-14.05543
 30
0.0
 10
-10.67894
 20
-14.0575
 30
0.0
 10
-10.67894
 20
-14.0575
 30
0.0
 10
-10.67894
 20
-14.0575
 30
0.0
 10
-10.67894
 20
-13.9996
 30
0.0
 10
-10.67894
 20
-13.9996
 30
0.0
  0
SPLINE
  5
65
330
1F
100
AcDbEntity
  8
Layer 1
 62
   250
100
AcDbSpline
210
0.0
220
0.0
230
1.0
 70
    11
 71
     3
 72
    16
 73
    12
 74
     0
 42
0.0000000001
 43
0.0000000001
 40
0.0
 40
0.0
 40
0.0
 40
0.0
 40
0.3333333333333333
 40
0.3333333333333333
 40
0.3333333333333333
 40
0.3333333333333333
 40
0.6666666666666666
 40
0.6666666666666666
 40
0.6666666666666666
 40
0.6666666666666666
 40
1.0
 40
1.0
 40
1.0
 40
1.0
 10
-10.54373
 20
-14.02145
 30
0.0
 10
-10.54373
 20
-14.02145
 30
0.0
 10
-10.57283
 20
-14.06451
 30
0.0
 10
-10.57283
 20
-14.06451
 30
0.0
 10
-10.57283
 20
-14.06451
 30
0.0
 10
-10.57283
 20
-14.06451
 30
0.0
 10
-10.54373
 20
-14.06451
 30
0.0
 10
-10.54373
 20
-14.06451
 30
0.0
 10
-10.54373
 20
-14.06451
 30
0.0
 10
-10.54373
 20
-14.06451
 30
0.0
 10
-10.54373
 20
-14.02145
 30
0.0
 10
-10.54373
 20
-14.02145
 30
0.0
  0
SPLINE
  5
66
330
1F
100
AcDbEntity
  8
Layer 1
 62
   250
100
AcDbSpline
210
0.0
220
0.0
230
1.0
 70
    11
 71
     3
 72
    48
 73
    44
 74
     0
 42
0.0000000001
 43
0.0000000001
 40
0.0
 40
0.0
 40
0.0
 40
0.0
 40
0.0909090909090909
 40
0.0909090909090909
 40
0.0909090909090909
 40
0.0909090909090909
 40
0.1818181818181818
 40
0.1818181818181818
 40
0.1818181818181818
 40
0.1818181818181818
 40
0.2727272727272727
 40
0.2727272727272727
 40
0.2727272727272727
 40
0.2727272727272727
 40
0.3636363636363636
 40
0.3636363636363636
 40
0.3636363636363636
 40
0.3636363636363636
 40
0.4545454545454546
 40
0.4545454545454546
 40
0.4545454545454546
 40
0.4545454545454546
 40
0.5454545454545455
 40
0.5454545454545455
 40
0.5454545454545455
 40
0.5454545454545455
 40
0.6363636363636365
 40
0.6363636363636365
 40
0.6363636363636365
 40
0.6363636363636365
 40
0.7272727272727274
 40
0.7272727272727274
 40
0.7272727272727274
 40
0.7272727272727274
 40
0.8181818181818183
 40
0.8181818181818183
 40
0.8181818181818183
 40
0.8181818181818183
 40
0.9090909090909093
 40
0.9090909090909093
 40
0.9090909090909093
 40
0.9090909090909093
 40
1.0
 40
1.0
 40
1.0
 40
1.0
 10
-10.54816
 20
-13.9996
 30
0.0
 10
-10.54816
 20
-13.9996
 30
0.0
 10
-10.51866
 20
-13.9996
 30
0.0
 10
-10.51866
 20
-13.9996
 30
0.0
 10
-10.51866
 20
-13.9996
 30
0.0
 10
-10.51866
 20
-13.9996
 30
0.0
 10
-10.51866
 20
-14.06451
 30
0.0
 10
-10.51866
 20
-14.06451
 30
0.0
 10
-10.51866
 20
-14.06451
 30
0.0
 10
-10.51866
 20
-14.06451
 30
0.0
 10
-10.50399
 20
-14.06451
 30
0.0
 10
-10.50399
 20
-14.06451
 30
0.0
 10
-10.50399
 20
-14.06451
 30
0.0
 10
-10.50399
 20
-14.06451
 30
0.0
 10
-10.50399
 20
-14.08373
 30
0.0
 10
-10.50399
 20
-14.08373
 30
0.0
 10
-10.50399
 20
-14.08373
 30
0.0
 10
-10.50399
 20
-14.08373
 30
0.0
 10
-10.51866
 20
-14.08373
 30
0.0
 10
-10.51866
 20
-14.08373
 30
0.0
 10
-10.51866
 20
-14.08373
 30
0.0
 10
-10.51866
 20
-14.08373
 30
0.0
 10
-10.51866
 20
-14.10247
 30
0.0
 10
-10.51866
 20
-14.10247
 30
0.0
 10
-10.51866
 20
-14.10247
 30
0.0
 10
-10.51866
 20
-14.10247
 30
0.0
 10
-10.54373
 20
-14.10247
 30
0.0
 10
-10.54373
 20
-14.10247
 30
0.0
 10
-10.54373
 20
-14.10247
 30
0.0
 10
-10.54373
 20
-14.10247
 30
0.0
 10
-10.54373
 20
-14.08373
 30
0.0
 10
-10.54373
 20
-14.08373
 30
0.0
 10
-10.54373
 20
-14.08373
 30
0.0
 10
-10.54373
 20
-14.08373
 30
0.0
 10
-10.58936
 20
-14.08373
 30
0.0
 10
-10.58936
 20
-14.08373
 30
0.0
 10
-10.58936
 20
-14.08373
 30
0.0
 10
-10.58936
 20
-14.08373
 30
0.0
 10
-10.58936
 20
-14.06098
 30
0.0
 10
-10.58936
 20
-14.06098
 30
0.0
 10
-10.58936
 20
-14.06098
 30
0.0
 10
-10.58936
 20
-14.06098
 30
0.0
 10
-10.54816
 20
-13.9996
 30
0.0
 10
-10.54816
 20
-13.9996
 30
0.0
  0
SPLINE
  5
67
330
1F
100
AcDbEntity
  8
Layer 1
 62
   250
100
AcDbSpline
210
0.0
220
0.0
230
1.0
 70
    11
 71
     3
 72
   120
 73
   116
 74
     0
 42
0.0000000001
 43
0.0000000001
 40
0.0
 40
0.0
 40
0.0
 40
0.0
 40
0.0344827586206897
 40
0.0344827586206897
 40
0.0344827586206897
 40
0.0344827586206897
 40
0.0689655172413793
 40
0.0689655172413793
 40
0.0689655172413793
 40
0.0689655172413793
 40
0.103448275862069
 40
0.103448275862069
 40
0.103448275862069
 40
0.103448275862069
 40
0.1379310344827586
 40
0.1379310344827586
 40
0.1379310344827586
 40
0.1379310344827586
 40
0.1724137931034483
 40
0.1724137931034483
 40
0.1724137931034483
 40
0.1724137931034483
 40
0.206896551724138
 40
0.206896551724138
 40
0.206896551724138
 40
0.206896551724138
 40
0.2413793103448276
 40
0.2413793103448276
 40
0.2413793103448276
 40
0.2413793103448276
 40
0.2758620689655173
 40
0.2758620689655173
 40
0.2758620689655173
 40
0.2758620689655173
 40
0.310344827586207
 40
0.310344827586207
 40
0.310344827586207
 40
0.310344827586207
 40
0.3448275862068966
 40
0.3448275862068966
 40
0.3448275862068966
 40
0.3448275862068966
 40
0.3793103448275863
 40
0.3793103448275863
 40
0.3793103448275863
 40
0.3793103448275863
 40
0.413793103448276
 40
0.413793103448276
 40
0.413793103448276
 40
0.413793103448276
 40
0.4482758620689656
 40
0.4482758620689656
 40
0.4482758620689656
 40
0.4482758620689656
 40
0.4827586206896553
 40
0.4827586206896553
 40
0.4827586206896553
 40
0.4827586206896553
 40
0.517241379310345
 40
0.517241379310345
 40
0.517241379310345
 40
0.517241379310345
 40
0.5517241379310346
 40
0.5517241379310346
 40
0.5517241379310346
 40
0.5517241379310346
 40
0.5862068965517242
 40
0.5862068965517242
 40
0.5862068965517242
 40
0.5862068965517242
 40
0.6206896551724138
 40
0.6206896551724138
 40
0.6206896551724138
 40
0.6206896551724138
 40
0.6551724137931034
 40
0.6551724137931034
 40
0.6551724137931034
 40
0.6551724137931034
 40
0.689655172413793
 40
0.689655172413793
 40
0.689655172413793
 40
0.689655172413793
 40
0.7241379310344827
 40
0.7241379310344827
 40
0.7241379310344827
 40
0.7241379310344827
 40
0.7586206896551723
 40
0.7586206896551723
 40
0.7586206896551723
 40
0.7586206896551723
 40
0.7931034482758619
 40
0.7931034482758619
 40
0.7931034482758619
 40
0.7931034482758619
 40
0.8275862068965515
 40
0.8275862068965515
 40
0.8275862068965515
 40
0.8275862068965515
 40
0.8620689655172411
 40
0.8620689655172411
 40
0.8620689655172411
 40
0.8620689655172411
 40
0.8965517241379307
 40
0.8965517241379307
 40
0.8965517241379307
 40
0.8965517241379307
 40
0.9310344827586203
 40
0.9310344827586203
 40
0.9310344827586203
 40
0.9310344827586203
 40
0.9655172413793099
 40
0.9655172413793099
 40
0.9655172413793099
 40
0.9655172413793099
 40
1.0
 40
1.0
 40
1.0
 40
1.0
 10
-10.36502
 20
-14.03812
 30
0.0
 10
-10.36189
 20
-14.03335
 30
0.0
 10
-10.3582
 20
-14.0297
 30
0.0
 10
-10.35389
 20
-14.02721
 30
0.0
 10
-10.35389
 20
-14.02721
 30
0.0
 10
-10.34959
 20
-14.02469
 30
0.0
 10
-10.34489
 20
-14.02345
 30
0.0
 10
-10.33974
 20
-14.02345
 30
0.0
 10
-10.33974
 20
-14.02345
 30
0.0
 10
-10.33087
 20
-14.02345
 30
0.0
 10
-10.32412
 20
-14.02618
 30
0.0
 10
-10.31949
 20
-14.03166
 30
0.0
 10
-10.31949
 20
-14.03166
 30
0.0
 10
-10.31485
 20
-14.03711
 30
0.0
 10
-10.31252
 20
-14.04506
 30
0.0
 10
-10.31252
 20
-14.05548
 30
0.0
 10
-10.31252
 20
-14.05548
 30
0.0
 10
-10.31252
 20
-14.05548
 30
0.0
 10
-10.31252
 20
-14.10247
 30
0.0
 10
-10.31252
 20
-14.10247
 30
0.0
 10
-10.31252
 20
-14.10247
 30
0.0
 10
-10.31252
 20
-14.10247
 30
0.0
 10
-10.33734
 20
-14.10247
 30
0.0
 10
-10.33734
 20
-14.10247
 30
0.0
 10
-10.33734
 20
-14.10247
 30
0.0
 10
-10.33734
 20
-14.10247
 30
0.0
 10
-10.33734
 20
-14.06223
 30
0.0
 10
-10.33734
 20
-14.06223
 30
0.0
 10
-10.33734
 20
-14.06223
 30
0.0
 10
-10.33729
 20
-14.06164
 30
0.0
 10
-10.33727
 20
-14.06103
 30
0.0
 10
-10.33724
 20
-14.06037
 30
0.0
 10
-10.33724
 20
-14.06037
 30
0.0
 10
-10.33722
 20
-14.05974
 30
0.0
 10
-10.3372
 20
-14.05882
 30
0.0
 10
-10.3372
 20
-14.05762
 30
0.0
 10
-10.3372
 20
-14.05762
 30
0.0
 10
-10.3372
 20
-14.05216
 30
0.0
 10
-10.33799
 20
-14.04819
 30
0.0
 10
-10.33962
 20
-14.04574
 30
0.0
 10
-10.33962
 20
-14.04574
 30
0.0
 10
-10.34122
 20
-14.04327
 30
0.0
 10
-10.3438
 20
-14.04205
 30
0.0
 10
-10.34738
 20
-14.04205
 30
0.0
 10
-10.34738
 20
-14.04205
 30
0.0
 10
-10.35208
 20
-14.04205
 30
0.0
 10
-10.35568
 20
-14.04398
 30
0.0
 10
-10.35824
 20
-14.04784
 30
0.0
 10
-10.35824
 20
-14.04784
 30
0.0
 10
-10.36078
 20
-14.05169
 30
0.0
 10
-10.3621
 20
-14.05727
 30
0.0
 10
-10.3622
 20
-14.06458
 30
0.0
 10
-10.3622
 20
-14.06458
 30
0.0
 10
-10.3622
 20
-14.06458
 30
0.0
 10
-10.3622
 20
-14.10247
 30
0.0
 10
-10.3622
 20
-14.10247
 30
0.0
 10
-10.3622
 20
-14.10247
 30
0.0
 10
-10.3622
 20
-14.10247
 30
0.0
 10
-10.38701
 20
-14.10247
 30
0.0
 10
-10.38701
 20
-14.10247
 30
0.0
 10
-10.38701
 20
-14.10247
 30
0.0
 10
-10.38701
 20
-14.10247
 30
0.0
 10
-10.38701
 20
-14.06223
 30
0.0
 10
-10.38701
 20
-14.06223
 30
0.0
 10
-10.38701
 20
-14.06223
 30
0.0
 10
-10.38701
 20
-14.05369
 30
0.0
 10
-10.38774
 20
-14.04819
 30
0.0
 10
-10.38922
 20
-14.04574
 30
0.0
 10
-10.38922
 20
-14.04574
 30
0.0
 10
-10.39068
 20
-14.04327
 30
0.0
 10
-10.39329
 20
-14.04205
 30
0.0
 10
-10.39705
 20
-14.04205
 30
0.0
 10
-10.39705
 20
-14.04205
 30
0.0
 10
-10.4018
 20
-14.04205
 30
0.0
 10
-10.40545
 20
-14.044
 30
0.0
 10
-10.40801
 20
-14.04788
 30
0.0
 10
-10.40801
 20
-14.04788
 30
0.0
 10
-10.41057
 20
-14.05176
 30
0.0
 10
-10.41187
 20
-14.05729
 30
0.0
 10
-10.41187
 20
-14.06451
 30
0.0
 10
-10.41187
 20
-14.06451
 30
0.0
 10
-10.41187
 20
-14.06451
 30
0.0
 10
-10.41187
 20
-14.10247
 30
0.0
 10
-10.41187
 20
-14.10247
 30
0.0
 10
-10.41187
 20
-14.10247
 30
0.0
 10
-10.41187
 20
-14.10247
 30
0.0
 10
-10.43668
 20
-14.10247
 30
0.0
 10
-10.43668
 20
-14.10247
 30
0.0
 10
-10.43668
 20
-14.10247
 30
0.0
 10
-10.43668
 20
-14.10247
 30
0.0
 10
-10.43668
 20
-14.02531
 30
0.0
 10
-10.43668
 20
-14.02531
 30
0.0
 10
-10.43668
 20
-14.02531
 30
0.0
 10
-10.43668
 20
-14.02531
 30
0.0
 10
-10.41187
 20
-14.02531
 30
0.0
 10
-10.41187
 20
-14.02531
 30
0.0
 10
-10.41187
 20
-14.02531
 30
0.0
 10
-10.41187
 20
-14.02531
 30
0.0
 10
-10.41187
 20
-14.03662
 30
0.0
 10
-10.41187
 20
-14.03662
 30
0.0
 10
-10.41187
 20
-14.03662
 30
0.0
 10
-10.40883
 20
-14.03224
 30
0.0
 10
-10.40535
 20
-14.02898
 30
0.0
 10
-10.40142
 20
-14.02676
 30
0.0
 10
-10.40142
 20
-14.02676
 30
0.0
 10
-10.3975
 20
-14.02455
 30
0.0
 10
-10.39317
 20
-14.02345
 30
0.0
 10
-10.38844
 20
-14.02345
 30
0.0
 10
-10.38844
 20
-14.02345
 30
0.0
 10
-10.38313
 20
-14.02345
 30
0.0
 10
-10.3784
 20
-14.02474
 30
0.0
 10
-10.37433
 20
-14.02731
 30
0.0
 10
-10.37433
 20
-14.02731
 30
0.0
 10
-10.37024
 20
-14.02989
 30
0.0
 10
-10.36713
 20
-14.03349
 30
0.0
 10
-10.36502
 20
-14.03812
 30
0.0
  0
SPLINE
  5
68
330
1F
100
AcDbEntity
  8
Layer 1
 62
   250
100
AcDbSpline
210
0.0
220
0.0
230
1.0
 70
    11
 71
     3
 72
   120
 73
   116
 74
     0
 42
0.0000000001
 43
0.0000000001
 40
0.0
 40
0.0
 40
0.0
 40
0.0
 40
0.0344827586206897
 40
0.0344827586206897
 40
0.0344827586206897
 40
0.0344827586206897
 40
0.0689655172413793
 40
0.0689655172413793
 40
0.0689655172413793
 40
0.0689655172413793
 40
0.103448275862069
 40
0.103448275862069
 40
0.103448275862069
 40
0.103448275862069
 40
0.1379310344827586
 40
0.1379310344827586
 40
0.1379310344827586
 40
0.1379310344827586
 40
0.1724137931034483
 40
0.1724137931034483
 40
0.1724137931034483
 40
0.1724137931034483
 40
0.206896551724138
 40
0.206896551724138
 40
0.206896551724138
 40
0.206896551724138
 40
0.2413793103448276
 40
0.2413793103448276
 40
0.2413793103448276
 40
0.2413793103448276
 40
0.2758620689655173
 40
0.2758620689655173
 40
0.2758620689655173
 40
0.2758620689655173
 40
0.310344827586207
 40
0.310344827586207
 40
0.310344827586207
 40
0.310344827586207
 40
0.3448275862068966
 40
0.3448275862068966
 40
0.3448275862068966
 40
0.3448275862068966
 40
0.3793103448275863
 40
0.3793103448275863
 40
0.3793103448275863
 40
0.3793103448275863
 40
0.413793103448276
 40
0.413793103448276
 40
0.413793103448276
 40
0.413793103448276
 40
0.4482758620689656
 40
0.4482758620689656
 40
0.4482758620689656
 40
0.4482758620689656
 40
0.4827586206896553
 40
0.4827586206896553
 40
0.4827586206896553
 40
0.4827586206896553
 40
0.517241379310345
 40
0.517241379310345
 40
0.517241379310345
 40
0.517241379310345
 40
0.5517241379310346
 40
0.5517241379310346
 40
0.5517241379310346
 40
0.5517241379310346
 40
0.5862068965517242
 40
0.5862068965517242
 40
0.5862068965517242
 40
0.5862068965517242
 40
0.6206896551724138
 40
0.6206896551724138
 40
0.6206896551724138
 40
0.6206896551724138
 40
0.6551724137931034
 40
0.6551724137931034
 40
0.6551724137931034
 40
0.6551724137931034
 40
0.689655172413793
 40
0.689655172413793
 40
0.689655172413793
 40
0.689655172413793
 40
0.7241379310344827
 40
0.7241379310344827
 40
0.7241379310344827
 40
0.7241379310344827
 40
0.7586206896551723
 40
0.7586206896551723
 40
0.7586206896551723
 40
0.7586206896551723
 40
0.7931034482758619
 40
0.7931034482758619
 40
0.7931034482758619
 40
0.7931034482758619
 40
0.8275862068965515
 40
0.8275862068965515
 40
0.8275862068965515
 40
0.8275862068965515
 40
0.8620689655172411
 40
0.8620689655172411
 40
0.8620689655172411
 40
0.8620689655172411
 40
0.8965517241379307
 40
0.8965517241379307
 40
0.8965517241379307
 40
0.8965517241379307
 40
0.9310344827586203
 40
0.9310344827586203
 40
0.9310344827586203
 40
0.9310344827586203
 40
0.9655172413793099
 40
0.9655172413793099
 40
0.9655172413793099
 40
0.9655172413793099
 40
1.0
 40
1.0
 40
1.0
 40
1.0
 10
-10.21798
 20
-14.03812
 30
0.0
 10
-10.21485
 20
-14.03335
 30
0.0
 10
-10.21116
 20
-14.0297
 30
0.0
 10
-10.20685
 20
-14.02721
 30
0.0
 10
-10.20685
 20
-14.02721
 30
0.0
 10
-10.20255
 20
-14.02469
 30
0.0
 10
-10.19785
 20
-14.02345
 30
0.0
 10
-10.1927
 20
-14.02345
 30
0.0
 10
-10.1927
 20
-14.02345
 30
0.0
 10
-10.18383
 20
-14.02345
 30
0.0
 10
-10.17708
 20
-14.02618
 30
0.0
 10
-10.17245
 20
-14.03166
 30
0.0
 10
-10.17245
 20
-14.03166
 30
0.0
 10
-10.16781
 20
-14.03711
 30
0.0
 10
-10.16548
 20
-14.04506
 30
0.0
 10
-10.16548
 20
-14.05548
 30
0.0
 10
-10.16548
 20
-14.05548
 30
0.0
 10
-10.16548
 20
-14.05548
 30
0.0
 10
-10.16548
 20
-14.10247
 30
0.0
 10
-10.16548
 20
-14.10247
 30
0.0
 10
-10.16548
 20
-14.10247
 30
0.0
 10
-10.16548
 20
-14.10247
 30
0.0
 10
-10.1903
 20
-14.10247
 30
0.0
 10
-10.1903
 20
-14.10247
 30
0.0
 10
-10.1903
 20
-14.10247
 30
0.0
 10
-10.1903
 20
-14.10247
 30
0.0
 10
-10.1903
 20
-14.06223
 30
0.0
 10
-10.1903
 20
-14.06223
 30
0.0
 10
-10.1903
 20
-14.06223
 30
0.0
 10
-10.19025
 20
-14.06164
 30
0.0
 10
-10.19023
 20
-14.06103
 30
0.0
 10
-10.1902
 20
-14.06037
 30
0.0
 10
-10.1902
 20
-14.06037
 30
0.0
 10
-10.19018
 20
-14.05974
 30
0.0
 10
-10.19016
 20
-14.05882
 30
0.0
 10
-10.19016
 20
-14.05762
 30
0.0
 10
-10.19016
 20
-14.05762
 30
0.0
 10
-10.19016
 20
-14.05216
 30
0.0
 10
-10.19095
 20
-14.04819
 30
0.0
 10
-10.19258
 20
-14.04574
 30
0.0
 10
-10.19258
 20
-14.04574
 30
0.0
 10
-10.19418
 20
-14.04327
 30
0.0
 10
-10.19676
 20
-14.04205
 30
0.0
 10
-10.20034
 20
-14.04205
 30
0.0
 10
-10.20034
 20
-14.04205
 30
0.0
 10
-10.20504
 20
-14.04205
 30
0.0
 10
-10.20864
 20
-14.04398
 30
0.0
 10
-10.2112
 20
-14.04784
 30
0.0
 10
-10.2112
 20
-14.04784
 30
0.0
 10
-10.21374
 20
-14.05169
 30
0.0
 10
-10.21506
 20
-14.05727
 30
0.0
 10
-10.21516
 20
-14.06458
 30
0.0
 10
-10.21516
 20
-14.06458
 30
0.0
 10
-10.21516
 20
-14.06458
 30
0.0
 10
-10.21516
 20
-14.10247
 30
0.0
 10
-10.21516
 20
-14.10247
 30
0.0
 10
-10.21516
 20
-14.10247
 30
0.0
 10
-10.21516
 20
-14.10247
 30
0.0
 10
-10.23997
 20
-14.10247
 30
0.0
 10
-10.23997
 20
-14.10247
 30
0.0
 10
-10.23997
 20
-14.10247
 30
0.0
 10
-10.23997
 20
-14.10247
 30
0.0
 10
-10.23997
 20
-14.06223
 30
0.0
 10
-10.23997
 20
-14.06223
 30
0.0
 10
-10.23997
 20
-14.06223
 30
0.0
 10
-10.23997
 20
-14.05369
 30
0.0
 10
-10.2407
 20
-14.04819
 30
0.0
 10
-10.24218
 20
-14.04574
 30
0.0
 10
-10.24218
 20
-14.04574
 30
0.0
 10
-10.24364
 20
-14.04327
 30
0.0
 10
-10.24625
 20
-14.04205
 30
0.0
 10
-10.25001
 20
-14.04205
 30
0.0
 10
-10.25001
 20
-14.04205
 30
0.0
 10
-10.25476
 20
-14.04205
 30
0.0
 10
-10.25841
 20
-14.044
 30
0.0
 10
-10.26097
 20
-14.04788
 30
0.0
 10
-10.26097
 20
-14.04788
 30
0.0
 10
-10.26353
 20
-14.05176
 30
0.0
 10
-10.26483
 20
-14.05729
 30
0.0
 10
-10.26483
 20
-14.06451
 30
0.0
 10
-10.26483
 20
-14.06451
 30
0.0
 10
-10.26483
 20
-14.06451
 30
0.0
 10
-10.26483
 20
-14.10247
 30
0.0
 10
-10.26483
 20
-14.10247
 30
0.0
 10
-10.26483
 20
-14.10247
 30
0.0
 10
-10.26483
 20
-14.10247
 30
0.0
 10
-10.28964
 20
-14.10247
 30
0.0
 10
-10.28964
 20
-14.10247
 30
0.0
 10
-10.28964
 20
-14.10247
 30
0.0
 10
-10.28964
 20
-14.10247
 30
0.0
 10
-10.28964
 20
-14.02531
 30
0.0
 10
-10.28964
 20
-14.02531
 30
0.0
 10
-10.28964
 20
-14.02531
 30
0.0
 10
-10.28964
 20
-14.02531
 30
0.0
 10
-10.26483
 20
-14.02531
 30
0.0
 10
-10.26483
 20
-14.02531
 30
0.0
 10
-10.26483
 20
-14.02531
 30
0.0
 10
-10.26483
 20
-14.02531
 30
0.0
 10
-10.26483
 20
-14.03662
 30
0.0
 10
-10.26483
 20
-14.03662
 30
0.0
 10
-10.26483
 20
-14.03662
 30
0.0
 10
-10.26179
 20
-14.03224
 30
0.0
 10
-10.25831
 20
-14.02898
 30
0.0
 10
-10.25438
 20
-14.02676
 30
0.0
 10
-10.25438
 20
-14.02676
 30
0.0
 10
-10.25046
 20
-14.02455
 30
0.0
 10
-10.24613
 20
-14.02345
 30
0.0
 10
-10.2414
 20
-14.02345
 30
0.0
 10
-10.2414
 20
-14.02345
 30
0.0
 10
-10.23609
 20
-14.02345
 30
0.0
 10
-10.23136
 20
-14.02474
 30
0.0
 10
-10.22729
 20
-14.02731
 30
0.0
 10
-10.22729
 20
-14.02731
 30
0.0
 10
-10.2232
 20
-14.02989
 30
0.0
 10
-10.22009
 20
-14.03349
 30
0.0
 10
-10.21798
 20
-14.03812
 30
0.0
  0
SPLINE
  5
69
330
1F
100
AcDbEntity
  8
Layer 1
 62
   250
100
AcDbSpline
210
0.0
220
0.0
230
1.0
 70
    11
 71
     3
 72
    80
 73
    76
 74
     0
 42
0.0000000001
 43
0.0000000001
 40
0.0
 40
0.0
 40
0.0
 40
0.0
 40
0.0526315789473684
 40
0.0526315789473684
 40
0.0526315789473684
 40
0.0526315789473684
 40
0.1052631578947368
 40
0.1052631578947368
 40
0.1052631578947368
 40
0.1052631578947368
 40
0.1578947368421053
 40
0.1578947368421053
 40
0.1578947368421053
 40
0.1578947368421053
 40
0.2105263157894737
 40
0.2105263157894737
 40
0.2105263157894737
 40
0.2105263157894737
 40
0.2631578947368421
 40
0.2631578947368421
 40
0.2631578947368421
 40
0.2631578947368421
 40
0.3157894736842105
 40
0.3157894736842105
 40
0.3157894736842105
 40
0.3157894736842105
 40
0.3684210526315789
 40
0.3684210526315789
 40
0.3684210526315789
 40
0.3684210526315789
 40
0.4210526315789473
 40
0.4210526315789473
 40
0.4210526315789473
 40
0.4210526315789473
 40
0.4736842105263158
 40
0.4736842105263158
 40
0.4736842105263158
 40
0.4736842105263158
 40
0.5263157894736842
 40
0.5263157894736842
 40
0.5263157894736842
 40
0.5263157894736842
 40
0.5789473684210527
 40
0.5789473684210527
 40
0.5789473684210527
 40
0.5789473684210527
 40
0.631578947368421
 40
0.631578947368421
 40
0.631578947368421
 40
0.631578947368421
 40
0.6842105263157894
 40
0.6842105263157894
 40
0.6842105263157894
 40
0.6842105263157894
 40
0.7368421052631577
 40
0.7368421052631577
 40
0.7368421052631577
 40
0.7368421052631577
 40
0.7894736842105261
 40
0.7894736842105261
 40
0.7894736842105261
 40
0.7894736842105261
 40
0.8421052631578945
 40
0.8421052631578945
 40
0.8421052631578945
 40
0.8421052631578945
 40
0.8947368421052628
 40
0.8947368421052628
 40
0.8947368421052628
 40
0.8947368421052628
 40
0.9473684210526312
 40
0.9473684210526312
 40
0.9473684210526312
 40
0.9473684210526312
 40
1.0
 40
1.0
 40
1.0
 40
1.0
 10
-11.24377
 20
-14.24722
 30
0.0
 10
-11.24377
 20
-14.24722
 30
0.0
 10
-11.19849
 20
-14.24722
 30
0.0
 10
-11.19849
 20
-14.24722
 30
0.0
 10
-11.19849
 20
-14.24722
 30
0.0
 10
-11.19849
 20
-14.24722
 30
0.0
 10
-11.19849
 20
-14.26672
 30
0.0
 10
-11.19849
 20
-14.26672
 30
0.0
 10
-11.19849
 20
-14.26672
 30
0.0
 10
-11.19849
 20
-14.26672
 30
0.0
 10
-11.27326
 20
-14.26672
 30
0.0
 10
-11.27326
 20
-14.26672
 30
0.0
 10
-11.27326
 20
-14.26672
 30
0.0
 10
-11.27326
 20
-14.26672
 30
0.0
 10
-11.27326
 20
-14.24722
 30
0.0
 10
-11.27326
 20
-14.24722
 30
0.0
 10
-11.27326
 20
-14.24722
 30
0.0
 10
-11.27326
 20
-14.24722
 30
0.0
 10
-11.2357
 20
-14.21409
 30
0.0
 10
-11.2357
 20
-14.21409
 30
0.0
 10
-11.2357
 20
-14.21409
 30
0.0
 10
-11.23234
 20
-14.21105
 30
0.0
 10
-11.22987
 20
-14.20809
 30
0.0
 10
-11.22827
 20
-14.2052
 30
0.0
 10
-11.22827
 20
-14.2052
 30
0.0
 10
-11.22665
 20
-14.2023
 30
0.0
 10
-11.22585
 20
-14.19929
 30
0.0
 10
-11.22585
 20
-14.19616
 30
0.0
 10
-11.22585
 20
-14.19616
 30
0.0
 10
-11.22585
 20
-14.19134
 30
0.0
 10
-11.22747
 20
-14.18746
 30
0.0
 10
-11.23071
 20
-14.18452
 30
0.0
 10
-11.23071
 20
-14.18452
 30
0.0
 10
-11.23394
 20
-14.18158
 30
0.0
 10
-11.23824
 20
-14.18013
 30
0.0
 10
-11.24363
 20
-14.18013
 30
0.0
 10
-11.24363
 20
-14.18013
 30
0.0
 10
-11.24776
 20
-14.18013
 30
0.0
 10
-11.25228
 20
-14.18102
 30
0.0
 10
-11.2572
 20
-14.18278
 30
0.0
 10
-11.2572
 20
-14.18278
 30
0.0
 10
-11.26211
 20
-14.18455
 30
0.0
 10
-11.26738
 20
-14.18718
 30
0.0
 10
-11.27298
 20
-14.19066
 30
0.0
 10
-11.27298
 20
-14.19066
 30
0.0
 10
-11.27298
 20
-14.19066
 30
0.0
 10
-11.27298
 20
-14.16806
 30
0.0
 10
-11.27298
 20
-14.16806
 30
0.0
 10
-11.27298
 20
-14.16806
 30
0.0
 10
-11.267
 20
-14.16609
 30
0.0
 10
-11.2611
 20
-14.16458
 30
0.0
 10
-11.25527
 20
-14.16355
 30
0.0
 10
-11.25527
 20
-14.16355
 30
0.0
 10
-11.24943
 20
-14.16251
 30
0.0
 10
-11.24372
 20
-14.16199
 30
0.0
 10
-11.2381
 20
-14.16199
 30
0.0
 10
-11.2381
 20
-14.16199
 30
0.0
 10
-11.2258
 20
-14.16199
 30
0.0
 10
-11.21623
 20
-14.1647
 30
0.0
 10
-11.20941
 20
-14.17013
 30
0.0
 10
-11.20941
 20
-14.17013
 30
0.0
 10
-11.20259
 20
-14.17554
 30
0.0
 10
-11.19918
 20
-14.18309
 30
0.0
 10
-11.19918
 20
-14.1928
 30
0.0
 10
-11.19918
 20
-14.1928
 30
0.0
 10
-11.19918
 20
-14.1984
 30
0.0
 10
-11.20063
 20
-14.20362
 30
0.0
 10
-11.20353
 20
-14.20847
 30
0.0
 10
-11.20353
 20
-14.20847
 30
0.0
 10
-11.20642
 20
-14.21331
 30
0.0
 10
-11.21251
 20
-14.2198
 30
0.0
 10
-11.22178
 20
-14.22794
 30
0.0
 10
-11.22178
 20
-14.22794
 30
0.0
 10
-11.22178
 20
-14.22794
 30
0.0
 10
-11.24377
 20
-14.24722
 30
0.0
 10
-11.24377
 20
-14.24722
 30
0.0
  0
SPLINE
  5
6A
330
1F
100
AcDbEntity
  8
Layer 1
 62
   250
100
AcDbSpline
210
0.0
220
0.0
230
1.0
 70
    11
 71
     3
 72
    40
 73
    36
 74
     0
 42
0.0000000001
 43
0.0000000001
 40
0.0
 40
0.0
 40
0.0
 40
0.0
 40
0.1111111111111111
 40
0.1111111111111111
 40
0.1111111111111111
 40
0.1111111111111111
 40
0.2222222222222222
 40
0.2222222222222222
 40
0.2222222222222222
 40
0.2222222222222222
 40
0.3333333333333333
 40
0.3333333333333333
 40
0.3333333333333333
 40
0.3333333333333333
 40
0.4444444444444444
 40
0.4444444444444444
 40
0.4444444444444444
 40
0.4444444444444444
 40
0.5555555555555556
 40
0.5555555555555556
 40
0.5555555555555556
 40
0.5555555555555556
 40
0.6666666666666667
 40
0.6666666666666667
 40
0.6666666666666667
 40
0.6666666666666667
 40
0.7777777777777779
 40
0.7777777777777779
 40
0.7777777777777779
 40
0.7777777777777779
 40
0.8888888888888891
 40
0.8888888888888891
 40
0.8888888888888891
 40
0.8888888888888891
 40
1.0
 40
1.0
 40
1.0
 40
1.0
 10
-11.12415
 20
-14.16385
 30
0.0
 10
-11.12415
 20
-14.16385
 30
0.0
 10
-11.08013
 20
-14.16385
 30
0.0
 10
-11.08013
 20
-14.16385
 30
0.0
 10
-11.08013
 20
-14.16385
 30
0.0
 10
-11.06703
 20
-14.16385
 30
0.0
 10
-11.05698
 20
-14.16677
 30
0.0
 10
-11.04997
 20
-14.17258
 30
0.0
 10
-11.04997
 20
-14.17258
 30
0.0
 10
-11.04297
 20
-14.17839
 30
0.0
 10
-11.03946
 20
-14.18666
 30
0.0
 10
-11.03946
 20
-14.19741
 30
0.0
 10
-11.03946
 20
-14.19741
 30
0.0
 10
-11.03946
 20
-14.20818
 30
0.0
 10
-11.04297
 20
-14.21648
 30
0.0
 10
-11.04997
 20
-14.22229
 30
0.0
 10
-11.04997
 20
-14.22229
 30
0.0
 10
-11.05698
 20
-14.2281
 30
0.0
 10
-11.06703
 20
-14.23102
 30
0.0
 10
-11.08013
 20
-14.23102
 30
0.0
 10
-11.08013
 20
-14.23102
 30
0.0
 10
-11.08013
 20
-14.23102
 30
0.0
 10
-11.09762
 20
-14.23102
 30
0.0
 10
-11.09762
 20
-14.23102
 30
0.0
 10
-11.09762
 20
-14.23102
 30
0.0
 10
-11.09762
 20
-14.23102
 30
0.0
 10
-11.09762
 20
-14.26672
 30
0.0
 10
-11.09762
 20
-14.26672
 30
0.0
 10
-11.09762
 20
-14.26672
 30
0.0
 10
-11.09762
 20
-14.26672
 30
0.0
 10
-11.12415
 20
-14.26672
 30
0.0
 10
-11.12415
 20
-14.26672
 30
0.0
 10
-11.12415
 20
-14.26672
 30
0.0
 10
-11.12415
 20
-14.26672
 30
0.0
 10
-11.12415
 20
-14.16385
 30
0.0
 10
-11.12415
 20
-14.16385
 30
0.0
  0
SPLINE
  5
6B
330
1F
100
AcDbEntity
  8
Layer 1
 62
   250
100
AcDbSpline
210
0.0
220
0.0
230
1.0
 70
    11
 71
     3
 72
    32
 73
    28
 74
     0
 42
0.0000000001
 43
0.0000000001
 40
0.0
 40
0.0
 40
0.0
 40
0.0
 40
0.1428571428571428
 40
0.1428571428571428
 40
0.1428571428571428
 40
0.1428571428571428
 40
0.2857142857142857
 40
0.2857142857142857
 40
0.2857142857142857
 40
0.2857142857142857
 40
0.4285714285714285
 40
0.4285714285714285
 40
0.4285714285714285
 40
0.4285714285714285
 40
0.5714285714285714
 40
0.5714285714285714
 40
0.5714285714285714
 40
0.5714285714285714
 40
0.7142857142857142
 40
0.7142857142857142
 40
0.7142857142857142
 40
0.7142857142857142
 40
0.857142857142857
 40
0.857142857142857
 40
0.857142857142857
 40
0.857142857142857
 40
1.0
 40
1.0
 40
1.0
 40
1.0
 10
-11.09762
 20
-14.18307
 30
0.0
 10
-11.09762
 20
-14.18307
 30
0.0
 10
-11.09762
 20
-14.2118
 30
0.0
 10
-11.09762
 20
-14.2118
 30
0.0
 10
-11.09762
 20
-14.2118
 30
0.0
 10
-11.09762
 20
-14.2118
 30
0.0
 10
-11.08295
 20
-14.2118
 30
0.0
 10
-11.08295
 20
-14.2118
 30
0.0
 10
-11.08295
 20
-14.2118
 30
0.0
 10
-11.0778
 20
-14.2118
 30
0.0
 10
-11.07382
 20
-14.21056
 30
0.0
 10
-11.07102
 20
-14.20804
 30
0.0
 10
-11.07102
 20
-14.20804
 30
0.0
 10
-11.06822
 20
-14.20555
 30
0.0
 10
-11.06681
 20
-14.202
 30
0.0
 10
-11.06681
 20
-14.19741
 30
0.0
 10
-11.06681
 20
-14.19741
 30
0.0
 10
-11.06681
 20
-14.1928
 30
0.0
 10
-11.06822
 20
-14.18927
 30
0.0
 10
-11.07102
 20
-14.18678
 30
0.0
 10
-11.07102
 20
-14.18678
 30
0.0
 10
-11.07382
 20
-14.18431
 30
0.0
 10
-11.0778
 20
-14.18307
 30
0.0
 10
-11.08295
 20
-14.18307
 30
0.0
 10
-11.08295
 20
-14.18307
 30
0.0
 10
-11.08295
 20
-14.18307
 30
0.0
 10
-11.09762
 20
-14.18307
 30
0.0
 10
-11.09762
 20
-14.18307
 30
0.0
  0
SPLINE
  5
6C
330
1F
100
AcDbEntity
  8
Layer 1
 62
   250
100
AcDbSpline
210
0.0
220
0.0
230
1.0
 70
    11
 71
     3
 72
    20
 73
    16
 74
     0
 42
0.0000000001
 43
0.0000000001
 40
0.0
 40
0.0
 40
0.0
 40
0.0
 40
0.25
 40
0.25
 40
0.25
 40
0.25
 40
0.5
 40
0.5
 40
0.5
 40
0.5
 40
0.75
 40
0.75
 40
0.75
 40
0.75
 40
1.0
 40
1.0
 40
1.0
 40
1.0
 10
-11.02074
 20
-14.16385
 30
0.0
 10
-11.02074
 20
-14.16385
 30
0.0
 10
-10.99421
 20
-14.16385
 30
0.0
 10
-10.99421
 20
-14.16385
 30
0.0
 10
-10.99421
 20
-14.16385
 30
0.0
 10
-10.99421
 20
-14.16385
 30
0.0
 10
-10.99421
 20
-14.26672
 30
0.0
 10
-10.99421
 20
-14.26672
 30
0.0
 10
-10.99421
 20
-14.26672
 30
0.0
 10
-10.99421
 20
-14.26672
 30
0.0
 10
-11.02074
 20
-14.26672
 30
0.0
 10
-11.02074
 20
-14.26672
 30
0.0
 10
-11.02074
 20
-14.26672
 30
0.0
 10
-11.02074
 20
-14.26672
 30
0.0
 10
-11.02074
 20
-14.16385
 30
0.0
 10
-11.02074
 20
-14.16385
 30
0.0
  0
SPLINE
  5
6D
330
1F
100
AcDbEntity
  8
Layer 1
 62
   250
100
AcDbSpline
210
0.0
220
0.0
230
1.0
 70
    11
 71
     3
 72
    44
 73
    40
 74
     0
 42
0.0000000001
 43
0.0000000001
 40
0.0
 40
0.0
 40
0.0
 40
0.0
 40
0.1
 40
0.1
 40
0.1
 40
0.1
 40
0.2
 40
0.2
 40
0.2
 40
0.2
 40
0.3
 40
0.3
 40
0.3
 40
0.3
 40
0.4
 40
0.4
 40
0.4
 40
0.4
 40
0.5
 40
0.5
 40
0.5
 40
0.5
 40
0.6
 40
0.6
 40
0.6
 40
0.6
 40
0.7
 40
0.7
 40
0.7
 40
0.7
 40
0.7999999999999999
 40
0.7999999999999999
 40
0.7999999999999999
 40
0.7999999999999999
 40
0.8999999999999999
 40
0.8999999999999999
 40
0.8999999999999999
 40
0.8999999999999999
 40
1.0
 40
1.0
 40
1.0
 40
1.0
 10
-10.96825
 20
-14.16385
 30
0.0
 10
-10.96825
 20
-14.16385
 30
0.0
 10
-10.93862
 20
-14.16385
 30
0.0
 10
-10.93862
 20
-14.16385
 30
0.0
 10
-10.93862
 20
-14.16385
 30
0.0
 10
-10.93862
 20
-14.16385
 30
0.0
 10
-10.9012
 20
-14.23441
 30
0.0
 10
-10.9012
 20
-14.23441
 30
0.0
 10
-10.9012
 20
-14.23441
 30
0.0
 10
-10.9012
 20
-14.23441
 30
0.0
 10
-10.9012
 20
-14.16385
 30
0.0
 10
-10.9012
 20
-14.16385
 30
0.0
 10
-10.9012
 20
-14.16385
 30
0.0
 10
-10.9012
 20
-14.16385
 30
0.0
 10
-10.87606
 20
-14.16385
 30
0.0
 10
-10.87606
 20
-14.16385
 30
0.0
 10
-10.87606
 20
-14.16385
 30
0.0
 10
-10.87606
 20
-14.16385
 30
0.0
 10
-10.87606
 20
-14.26672
 30
0.0
 10
-10.87606
 20
-14.26672
 30
0.0
 10
-10.87606
 20
-14.26672
 30
0.0
 10
-10.87606
 20
-14.26672
 30
0.0
 10
-10.90569
 20
-14.26672
 30
0.0
 10
-10.90569
 20
-14.26672
 30
0.0
 10
-10.90569
 20
-14.26672
 30
0.0
 10
-10.90569
 20
-14.26672
 30
0.0
 10
-10.94311
 20
-14.19616
 30
0.0
 10
-10.94311
 20
-14.19616
 30
0.0
 10
-10.94311
 20
-14.19616
 30
0.0
 10
-10.94311
 20
-14.19616
 30
0.0
 10
-10.94311
 20
-14.26672
 30
0.0
 10
-10.94311
 20
-14.26672
 30
0.0
 10
-10.94311
 20
-14.26672
 30
0.0
 10
-10.94311
 20
-14.26672
 30
0.0
 10
-10.96825
 20
-14.26672
 30
0.0
 10
-10.96825
 20
-14.26672
 30
0.0
 10
-10.96825
 20
-14.26672
 30
0.0
 10
-10.96825
 20
-14.26672
 30
0.0
 10
-10.96825
 20
-14.16385
 30
0.0
 10
-10.96825
 20
-14.16385
 30
0.0
  0
SPLINE
  5
6E
330
1F
100
AcDbEntity
  8
Layer 1
 62
   250
100
AcDbSpline
210
0.0
220
0.0
230
1.0
 70
    11
 71
     3
 72
    32
 73
    28
 74
     0
 42
0.0000000001
 43
0.0000000001
 40
0.0
 40
0.0
 40
0.0
 40
0.0
 40
0.1428571428571428
 40
0.1428571428571428
 40
0.1428571428571428
 40
0.1428571428571428
 40
0.2857142857142857
 40
0.2857142857142857
 40
0.2857142857142857
 40
0.2857142857142857
 40
0.4285714285714285
 40
0.4285714285714285
 40
0.4285714285714285
 40
0.4285714285714285
 40
0.5714285714285714
 40
0.5714285714285714
 40
0.5714285714285714
 40
0.5714285714285714
 40
0.7142857142857142
 40
0.7142857142857142
 40
0.7142857142857142
 40
0.7142857142857142
 40
0.857142857142857
 40
0.857142857142857
 40
0.857142857142857
 40
0.857142857142857
 40
1.0
 40
1.0
 40
1.0
 40
1.0
 10
-10.75983
 20
-14.20367
 30
0.0
 10
-10.75564
 20
-14.20367
 30
0.0
 10
-10.75247
 20
-14.20275
 30
0.0
 10
-10.75033
 20
-14.20092
 30
0.0
 10
-10.75033
 20
-14.20092
 30
0.0
 10
-10.74816
 20
-14.19908
 30
0.0
 10
-10.74708
 20
-14.19638
 30
0.0
 10
-10.74708
 20
-14.19278
 30
0.0
 10
-10.74708
 20
-14.19278
 30
0.0
 10
-10.74708
 20
-14.18925
 30
0.0
 10
-10.74816
 20
-14.18657
 30
0.0
 10
-10.75033
 20
-14.18471
 30
0.0
 10
-10.75033
 20
-14.18471
 30
0.0
 10
-10.75247
 20
-14.18285
 30
0.0
 10
-10.75564
 20
-14.18191
 30
0.0
 10
-10.75983
 20
-14.18191
 30
0.0
 10
-10.75983
 20
-14.18191
 30
0.0
 10
-10.75983
 20
-14.18191
 30
0.0
 10
-10.7745
 20
-14.18191
 30
0.0
 10
-10.7745
 20
-14.18191
 30
0.0
 10
-10.7745
 20
-14.18191
 30
0.0
 10
-10.7745
 20
-14.18191
 30
0.0
 10
-10.7745
 20
-14.20367
 30
0.0
 10
-10.7745
 20
-14.20367
 30
0.0
 10
-10.7745
 20
-14.20367
 30
0.0
 10
-10.7745
 20
-14.20367
 30
0.0
 10
-10.75983
 20
-14.20367
 30
0.0
 10
-10.75983
 20
-14.20367
 30
0.0
  0
SPLINE
  5
6F
330
1F
100
AcDbEntity
  8
Layer 1
 62
   250
100
AcDbSpline
210
0.0
220
0.0
230
1.0
 70
    11
 71
     3
 72
    32
 73
    28
 74
     0
 42
0.0000000001
 43
0.0000000001
 40
0.0
 40
0.0
 40
0.0
 40
0.0
 40
0.1428571428571428
 40
0.1428571428571428
 40
0.1428571428571428
 40
0.1428571428571428
 40
0.2857142857142857
 40
0.2857142857142857
 40
0.2857142857142857
 40
0.2857142857142857
 40
0.4285714285714285
 40
0.4285714285714285
 40
0.4285714285714285
 40
0.4285714285714285
 40
0.5714285714285714
 40
0.5714285714285714
 40
0.5714285714285714
 40
0.5714285714285714
 40
0.7142857142857142
 40
0.7142857142857142
 40
0.7142857142857142
 40
0.7142857142857142
 40
0.857142857142857
 40
0.857142857142857
 40
0.857142857142857
 40
0.857142857142857
 40
1.0
 40
1.0
 40
1.0
 40
1.0
 10
-10.75893
 20
-14.24866
 30
0.0
 10
-10.75359
 20
-14.24866
 30
0.0
 10
-10.7496
 20
-14.24753
 30
0.0
 10
-10.74689
 20
-14.24529
 30
0.0
 10
-10.74689
 20
-14.24529
 30
0.0
 10
-10.74421
 20
-14.24304
 30
0.0
 10
-10.74287
 20
-14.23963
 30
0.0
 10
-10.74287
 20
-14.23509
 30
0.0
 10
-10.74287
 20
-14.23509
 30
0.0
 10
-10.74287
 20
-14.23064
 30
0.0
 10
-10.74421
 20
-14.2273
 30
0.0
 10
-10.74687
 20
-14.22507
 30
0.0
 10
-10.74687
 20
-14.22507
 30
0.0
 10
-10.74953
 20
-14.22283
 30
0.0
 10
-10.75355
 20
-14.22173
 30
0.0
 10
-10.75893
 20
-14.22173
 30
0.0
 10
-10.75893
 20
-14.22173
 30
0.0
 10
-10.75893
 20
-14.22173
 30
0.0
 10
-10.7745
 20
-14.22173
 30
0.0
 10
-10.7745
 20
-14.22173
 30
0.0
 10
-10.7745
 20
-14.22173
 30
0.0
 10
-10.7745
 20
-14.22173
 30
0.0
 10
-10.7745
 20
-14.24866
 30
0.0
 10
-10.7745
 20
-14.24866
 30
0.0
 10
-10.7745
 20
-14.24866
 30
0.0
 10
-10.7745
 20
-14.24866
 30
0.0
 10
-10.75893
 20
-14.24866
 30
0.0
 10
-10.75893
 20
-14.24866
 30
0.0
  0
SPLINE
  5
70
330
1F
100
AcDbEntity
  8
Layer 1
 62
   250
100
AcDbSpline
210
0.0
220
0.0
230
1.0
 70
    11
 71
     3
 72
    48
 73
    44
 74
     0
 42
0.0000000001
 43
0.0000000001
 40
0.0
 40
0.0
 40
0.0
 40
0.0
 40
0.0909090909090909
 40
0.0909090909090909
 40
0.0909090909090909
 40
0.0909090909090909
 40
0.1818181818181818
 40
0.1818181818181818
 40
0.1818181818181818
 40
0.1818181818181818
 40
0.2727272727272727
 40
0.2727272727272727
 40
0.2727272727272727
 40
0.2727272727272727
 40
0.3636363636363636
 40
0.3636363636363636
 40
0.3636363636363636
 40
0.3636363636363636
 40
0.4545454545454546
 40
0.4545454545454546
 40
0.4545454545454546
 40
0.4545454545454546
 40
0.5454545454545455
 40
0.5454545454545455
 40
0.5454545454545455
 40
0.5454545454545455
 40
0.6363636363636365
 40
0.6363636363636365
 40
0.6363636363636365
 40
0.6363636363636365
 40
0.7272727272727274
 40
0.7272727272727274
 40
0.7272727272727274
 40
0.7272727272727274
 40
0.8181818181818183
 40
0.8181818181818183
 40
0.8181818181818183
 40
0.8181818181818183
 40
0.9090909090909093
 40
0.9090909090909093
 40
0.9090909090909093
 40
0.9090909090909093
 40
1.0
 40
1.0
 40
1.0
 40
1.0
 10
-10.73426
 20
-14.21166
 30
0.0
 10
-10.72857
 20
-14.21331
 30
0.0
 10
-10.72415
 20
-14.21637
 30
0.0
 10
-10.72102
 20
-14.22084
 30
0.0
 10
-10.72102
 20
-14.22084
 30
0.0
 10
-10.71789
 20
-14.22528
 30
0.0
 10
-10.71634
 20
-14.23076
 30
0.0
 10
-10.71634
 20
-14.23723
 30
0.0
 10
-10.71634
 20
-14.23723
 30
0.0
 10
-10.71634
 20
-14.24715
 30
0.0
 10
-10.71971
 20
-14.25454
 30
0.0
 10
-10.72641
 20
-14.25941
 30
0.0
 10
-10.72641
 20
-14.25941
 30
0.0
 10
-10.73311
 20
-14.26427
 30
0.0
 10
-10.74332
 20
-14.26672
 30
0.0
 10
-10.75701
 20
-14.26672
 30
0.0
 10
-10.75701
 20
-14.26672
 30
0.0
 10
-10.75701
 20
-14.26672
 30
0.0
 10
-10.80103
 20
-14.26672
 30
0.0
 10
-10.80103
 20
-14.26672
 30
0.0
 10
-10.80103
 20
-14.26672
 30
0.0
 10
-10.80103
 20
-14.26672
 30
0.0
 10
-10.80103
 20
-14.16385
 30
0.0
 10
-10.80103
 20
-14.16385
 30
0.0
 10
-10.80103
 20
-14.16385
 30
0.0
 10
-10.80103
 20
-14.16385
 30
0.0
 10
-10.76121
 20
-14.16385
 30
0.0
 10
-10.76121
 20
-14.16385
 30
0.0
 10
-10.76121
 20
-14.16385
 30
0.0
 10
-10.74692
 20
-14.16385
 30
0.0
 10
-10.73657
 20
-14.16601
 30
0.0
 10
-10.73017
 20
-14.17032
 30
0.0
 10
-10.73017
 20
-14.17032
 30
0.0
 10
-10.72375
 20
-14.17465
 30
0.0
 10
-10.72055
 20
-14.18156
 30
0.0
 10
-10.72055
 20
-14.19106
 30
0.0
 10
-10.72055
 20
-14.19106
 30
0.0
 10
-10.72055
 20
-14.19607
 30
0.0
 10
-10.72173
 20
-14.20033
 30
0.0
 10
-10.72406
 20
-14.20386
 30
0.0
 10
-10.72406
 20
-14.20386
 30
0.0
 10
-10.72641
 20
-14.20736
 30
0.0
 10
-10.72979
 20
-14.20997
 30
0.0
 10
-10.73426
 20
-14.21166
 30
0.0
  0
SPLINE
  5
71
330
1F
100
AcDbEntity
  8
Layer 1
 62
   250
100
AcDbSpline
210
0.0
220
0.0
230
1.0
 70
    11
 71
     3
 72
    28
 73
    24
 74
     0
 42
0.0000000001
 43
0.0000000001
 40
0.0
 40
0.0
 40
0.0
 40
0.0
 40
0.1666666666666667
 40
0.1666666666666667
 40
0.1666666666666667
 40
0.1666666666666667
 40
0.3333333333333333
 40
0.3333333333333333
 40
0.3333333333333333
 40
0.3333333333333333
 40
0.5
 40
0.5
 40
0.5
 40
0.5
 40
0.6666666666666666
 40
0.6666666666666666
 40
0.6666666666666666
 40
0.6666666666666666
 40
0.8333333333333333
 40
0.8333333333333333
 40
0.8333333333333333
 40
0.8333333333333333
 40
1.0
 40
1.0
 40
1.0
 40
1.0
 10
-10.69348
 20
-14.16385
 30
0.0
 10
-10.69348
 20
-14.16385
 30
0.0
 10
-10.66695
 20
-14.16385
 30
0.0
 10
-10.66695
 20
-14.16385
 30
0.0
 10
-10.66695
 20
-14.16385
 30
0.0
 10
-10.66695
 20
-14.16385
 30
0.0
 10
-10.66695
 20
-14.24666
 30
0.0
 10
-10.66695
 20
-14.24666
 30
0.0
 10
-10.66695
 20
-14.24666
 30
0.0
 10
-10.66695
 20
-14.24666
 30
0.0
 10
-10.62039
 20
-14.24666
 30
0.0
 10
-10.62039
 20
-14.24666
 30
0.0
 10
-10.62039
 20
-14.24666
 30
0.0
 10
-10.62039
 20
-14.24666
 30
0.0
 10
-10.62039
 20
-14.26672
 30
0.0
 10
-10.62039
 20
-14.26672
 30
0.0
 10
-10.62039
 20
-14.26672
 30
0.0
 10
-10.62039
 20
-14.26672
 30
0.0
 10
-10.69348
 20
-14.26672
 30
0.0
 10
-10.69348
 20
-14.26672
 30
0.0
 10
-10.69348
 20
-14.26672
 30
0.0
 10
-10.69348
 20
-14.26672
 30
0.0
 10
-10.69348
 20
-14.16385
 30
0.0
 10
-10.69348
 20
-14.16385
 30
0.0
  0
SPLINE
  5
72
330
1F
100
AcDbEntity
  8
Layer 1
 62
   250
100
AcDbSpline
210
0.0
220
0.0
230
1.0
 70
    11
 71
     3
 72
    60
 73
    56
 74
     0
 42
0.0000000001
 43
0.0000000001
 40
0.0
 40
0.0
 40
0.0
 40
0.0
 40
0.0714285714285714
 40
0.0714285714285714
 40
0.0714285714285714
 40
0.0714285714285714
 40
0.1428571428571428
 40
0.1428571428571428
 40
0.1428571428571428
 40
0.1428571428571428
 40
0.2142857142857143
 40
0.2142857142857143
 40
0.2142857142857143
 40
0.2142857142857143
 40
0.2857142857142857
 40
0.2857142857142857
 40
0.2857142857142857
 40
0.2857142857142857
 40
0.3571428571428571
 40
0.3571428571428571
 40
0.3571428571428571
 40
0.3571428571428571
 40
0.4285714285714285
 40
0.4285714285714285
 40
0.4285714285714285
 40
0.4285714285714285
 40
0.4999999999999999
 40
0.4999999999999999
 40
0.4999999999999999
 40
0.4999999999999999
 40
0.5714285714285713
 40
0.5714285714285713
 40
0.5714285714285713
 40
0.5714285714285713
 40
0.6428571428571427
 40
0.6428571428571427
 40
0.6428571428571427
 40
0.6428571428571427
 40
0.7142857142857141
 40
0.7142857142857141
 40
0.7142857142857141
 40
0.7142857142857141
 40
0.7857142857142855
 40
0.7857142857142855
 40
0.7857142857142855
 40
0.7857142857142855
 40
0.8571428571428569
 40
0.8571428571428569
 40
0.8571428571428569
 40
0.8571428571428569
 40
0.9285714285714283
 40
0.9285714285714283
 40
0.9285714285714283
 40
0.9285714285714283
 40
1.0
 40
1.0
 40
1.0
 40
1.0
 10
-10.6086
 20
-14.16385
 30
0.0
 10
-10.6086
 20
-14.16385
 30
0.0
 10
-10.58207
 20
-14.16385
 30
0.0
 10
-10.58207
 20
-14.16385
 30
0.0
 10
-10.58207
 20
-14.16385
 30
0.0
 10
-10.58207
 20
-14.16385
 30
0.0
 10
-10.58207
 20
-14.22552
 30
0.0
 10
-10.58207
 20
-14.22552
 30
0.0
 10
-10.58207
 20
-14.22552
 30
0.0
 10
-10.58207
 20
-14.23401
 30
0.0
 10
-10.58069
 20
-14.2401
 30
0.0
 10
-10.57791
 20
-14.24374
 30
0.0
 10
-10.57791
 20
-14.24374
 30
0.0
 10
-10.57513
 20
-14.24739
 30
0.0
 10
-10.5706
 20
-14.24922
 30
0.0
 10
-10.56429
 20
-14.24922
 30
0.0
 10
-10.56429
 20
-14.24922
 30
0.0
 10
-10.55794
 20
-14.24922
 30
0.0
 10
-10.55338
 20
-14.24739
 30
0.0
 10
-10.55061
 20
-14.24374
 30
0.0
 10
-10.55061
 20
-14.24374
 30
0.0
 10
-10.54783
 20
-14.2401
 30
0.0
 10
-10.54644
 20
-14.23401
 30
0.0
 10
-10.54644
 20
-14.22552
 30
0.0
 10
-10.54644
 20
-14.22552
 30
0.0
 10
-10.54644
 20
-14.22552
 30
0.0
 10
-10.54644
 20
-14.16385
 30
0.0
 10
-10.54644
 20
-14.16385
 30
0.0
 10
-10.54644
 20
-14.16385
 30
0.0
 10
-10.54644
 20
-14.16385
 30
0.0
 10
-10.51991
 20
-14.16385
 30
0.0
 10
-10.51991
 20
-14.16385
 30
0.0
 10
-10.51991
 20
-14.16385
 30
0.0
 10
-10.51991
 20
-14.16385
 30
0.0
 10
-10.51991
 20
-14.22552
 30
0.0
 10
-10.51991
 20
-14.22552
 30
0.0
 10
-10.51991
 20
-14.22552
 30
0.0
 10
-10.51991
 20
-14.24007
 30
0.0
 10
-10.52356
 20
-14.25092
 30
0.0
 10
-10.53087
 20
-14.25804
 30
0.0
 10
-10.53087
 20
-14.25804
 30
0.0
 10
-10.53816
 20
-14.26517
 30
0.0
 10
-10.54931
 20
-14.26872
 30
0.0
 10
-10.56429
 20
-14.26872
 30
0.0
 10
-10.56429
 20
-14.26872
 30
0.0
 10
-10.57923
 20
-14.26872
 30
0.0
 10
-10.59035
 20
-14.26517
 30
0.0
 10
-10.59764
 20
-14.25804
 30
0.0
 10
-10.59764
 20
-14.25804
 30
0.0
 10
-10.60496
 20
-14.25092
 30
0.0
 10
-10.6086
 20
-14.24007
 30
0.0
 10
-10.6086
 20
-14.22552
 30
0.0
 10
-10.6086
 20
-14.22552
 30
0.0
 10
-10.6086
 20
-14.22552
 30
0.0
 10
-10.6086
 20
-14.16385
 30
0.0
 10
-10.6086
 20
-14.16385
 30
0.0
  0
SPLINE
  5
73
330
1F
100
AcDbEntity
  8
Layer 1
 62
   250
100
AcDbSpline
210
0.0
220
0.0
230
1.0
 70
    11
 71
     3
 72
    52
 73
    48
 74
     0
 42
0.0000000001
 43
0.0000000001
 40
0.0
 40
0.0
 40
0.0
 40
0.0
 40
0.0833333333333333
 40
0.0833333333333333
 40
0.0833333333333333
 40
0.0833333333333333
 40
0.1666666666666667
 40
0.1666666666666667
 40
0.1666666666666667
 40
0.1666666666666667
 40
0.25
 40
0.25
 40
0.25
 40
0.25
 40
0.3333333333333333
 40
0.3333333333333333
 40
0.3333333333333333
 40
0.3333333333333333
 40
0.4166666666666666
 40
0.4166666666666666
 40
0.4166666666666666
 40
0.4166666666666666
 40
0.4999999999999999
 40
0.4999999999999999
 40
0.4999999999999999
 40
0.4999999999999999
 40
0.5833333333333333
 40
0.5833333333333333
 40
0.5833333333333333
 40
0.5833333333333333
 40
0.6666666666666666
 40
0.6666666666666666
 40
0.6666666666666666
 40
0.6666666666666666
 40
0.75
 40
0.75
 40
0.75
 40
0.75
 40
0.8333333333333334
 40
0.8333333333333334
 40
0.8333333333333334
 40
0.8333333333333334
 40
0.9166666666666667
 40
0.9166666666666667
 40
0.9166666666666667
 40
0.9166666666666667
 40
1.0
 40
1.0
 40
1.0
 40
1.0
 10
-10.49402
 20
-14.16385
 30
0.0
 10
-10.49402
 20
-14.16385
 30
0.0
 10
-10.42243
 20
-14.16385
 30
0.0
 10
-10.42243
 20
-14.16385
 30
0.0
 10
-10.42243
 20
-14.16385
 30
0.0
 10
-10.42243
 20
-14.16385
 30
0.0
 10
-10.42243
 20
-14.18391
 30
0.0
 10
-10.42243
 20
-14.18391
 30
0.0
 10
-10.42243
 20
-14.18391
 30
0.0
 10
-10.42243
 20
-14.18391
 30
0.0
 10
-10.46749
 20
-14.18391
 30
0.0
 10
-10.46749
 20
-14.18391
 30
0.0
 10
-10.46749
 20
-14.18391
 30
0.0
 10
-10.46749
 20
-14.18391
 30
0.0
 10
-10.46749
 20
-14.20306
 30
0.0
 10
-10.46749
 20
-14.20306
 30
0.0
 10
-10.46749
 20
-14.20306
 30
0.0
 10
-10.46749
 20
-14.20306
 30
0.0
 10
-10.42514
 20
-14.20306
 30
0.0
 10
-10.42514
 20
-14.20306
 30
0.0
 10
-10.42514
 20
-14.20306
 30
0.0
 10
-10.42514
 20
-14.20306
 30
0.0
 10
-10.42514
 20
-14.22312
 30
0.0
 10
-10.42514
 20
-14.22312
 30
0.0
 10
-10.42514
 20
-14.22312
 30
0.0
 10
-10.42514
 20
-14.22312
 30
0.0
 10
-10.46749
 20
-14.22312
 30
0.0
 10
-10.46749
 20
-14.22312
 30
0.0
 10
-10.46749
 20
-14.22312
 30
0.0
 10
-10.46749
 20
-14.22312
 30
0.0
 10
-10.46749
 20
-14.24666
 30
0.0
 10
-10.46749
 20
-14.24666
 30
0.0
 10
-10.46749
 20
-14.24666
 30
0.0
 10
-10.46749
 20
-14.24666
 30
0.0
 10
-10.42093
 20
-14.24666
 30
0.0
 10
-10.42093
 20
-14.24666
 30
0.0
 10
-10.42093
 20
-14.24666
 30
0.0
 10
-10.42093
 20
-14.24666
 30
0.0
 10
-10.42093
 20
-14.26672
 30
0.0
 10
-10.42093
 20
-14.26672
 30
0.0
 10
-10.42093
 20
-14.26672
 30
0.0
 10
-10.42093
 20
-14.26672
 30
0.0
 10
-10.49402
 20
-14.26672
 30
0.0
 10
-10.49402
 20
-14.26672
 30
0.0
 10
-10.49402
 20
-14.26672
 30
0.0
 10
-10.49402
 20
-14.26672
 30
0.0
 10
-10.49402
 20
-14.16385
 30
0.0
 10
-10.49402
 20
-14.16385
 30
0.0
  0
SPLINE
  5
74
330
1F
100
AcDbEntity
  8
Layer 1
 62
   250
100
AcDbSpline
210
0.0
220
0.0
230
1.0
 70
    11
 71
     3
 72
    52
 73
    48
 74
     0
 42
0.0000000001
 43
0.0000000001
 40
0.0
 40
0.0
 40
0.0
 40
0.0
 40
0.0833333333333333
 40
0.0833333333333333
 40
0.0833333333333333
 40
0.0833333333333333
 40
0.1666666666666667
 40
0.1666666666666667
 40
0.1666666666666667
 40
0.1666666666666667
 40
0.25
 40
0.25
 40
0.25
 40
0.25
 40
0.3333333333333333
 40
0.3333333333333333
 40
0.3333333333333333
 40
0.3333333333333333
 40
0.4166666666666666
 40
0.4166666666666666
 40
0.4166666666666666
 40
0.4166666666666666
 40
0.4999999999999999
 40
0.4999999999999999
 40
0.4999999999999999
 40
0.4999999999999999
 40
0.5833333333333333
 40
0.5833333333333333
 40
0.5833333333333333
 40
0.5833333333333333
 40
0.6666666666666666
 40
0.6666666666666666
 40
0.6666666666666666
 40
0.6666666666666666
 40
0.75
 40
0.75
 40
0.75
 40
0.75
 40
0.8333333333333334
 40
0.8333333333333334
 40
0.8333333333333334
 40
0.8333333333333334
 40
0.9166666666666667
 40
0.9166666666666667
 40
0.9166666666666667
 40
0.9166666666666667
 40
1.0
 40
1.0
 40
1.0
 40
1.0
 10
-10.34849
 20
-14.16385
 30
0.0
 10
-10.34849
 20
-14.16385
 30
0.0
 10
-10.32196
 20
-14.16385
 30
0.0
 10
-10.32196
 20
-14.16385
 30
0.0
 10
-10.32196
 20
-14.16385
 30
0.0
 10
-10.32196
 20
-14.16385
 30
0.0
 10
-10.32196
 20
-14.20306
 30
0.0
 10
-10.32196
 20
-14.20306
 30
0.0
 10
-10.32196
 20
-14.20306
 30
0.0
 10
-10.32196
 20
-14.20306
 30
0.0
 10
-10.28283
 20
-14.20306
 30
0.0
 10
-10.28283
 20
-14.20306
 30
0.0
 10
-10.28283
 20
-14.20306
 30
0.0
 10
-10.28283
 20
-14.20306
 30
0.0
 10
-10.28283
 20
-14.16385
 30
0.0
 10
-10.28283
 20
-14.16385
 30
0.0
 10
-10.28283
 20
-14.16385
 30
0.0
 10
-10.28283
 20
-14.16385
 30
0.0
 10
-10.2563
 20
-14.16385
 30
0.0
 10
-10.2563
 20
-14.16385
 30
0.0
 10
-10.2563
 20
-14.16385
 30
0.0
 10
-10.2563
 20
-14.16385
 30
0.0
 10
-10.2563
 20
-14.26672
 30
0.0
 10
-10.2563
 20
-14.26672
 30
0.0
 10
-10.2563
 20
-14.26672
 30
0.0
 10
-10.2563
 20
-14.26672
 30
0.0
 10
-10.28283
 20
-14.26672
 30
0.0
 10
-10.28283
 20
-14.26672
 30
0.0
 10
-10.28283
 20
-14.26672
 30
0.0
 10
-10.28283
 20
-14.26672
 30
0.0
 10
-10.28283
 20
-14.22312
 30
0.0
 10
-10.28283
 20
-14.22312
 30
0.0
 10
-10.28283
 20
-14.22312
 30
0.0
 10
-10.28283
 20
-14.22312
 30
0.0
 10
-10.32196
 20
-14.22312
 30
0.0
 10
-10.32196
 20
-14.22312
 30
0.0
 10
-10.32196
 20
-14.22312
 30
0.0
 10
-10.32196
 20
-14.22312
 30
0.0
 10
-10.32196
 20
-14.26672
 30
0.0
 10
-10.32196
 20
-14.26672
 30
0.0
 10
-10.32196
 20
-14.26672
 30
0.0
 10
-10.32196
 20
-14.26672
 30
0.0
 10
-10.34849
 20
-14.26672
 30
0.0
 10
-10.34849
 20
-14.26672
 30
0.0
 10
-10.34849
 20
-14.26672
 30
0.0
 10
-10.34849
 20
-14.26672
 30
0.0
 10
-10.34849
 20
-14.16385
 30
0.0
 10
-10.34849
 20
-14.16385
 30
0.0
  0
SPLINE
  5
75
330
1F
100
AcDbEntity
  8
Layer 1
 62
   250
100
AcDbSpline
210
0.0
220
0.0
230
1.0
 70
    11
 71
     3
 72
    52
 73
    48
 74
     0
 42
0.0000000001
 43
0.0000000001
 40
0.0
 40
0.0
 40
0.0
 40
0.0
 40
0.0833333333333333
 40
0.0833333333333333
 40
0.0833333333333333
 40
0.0833333333333333
 40
0.1666666666666667
 40
0.1666666666666667
 40
0.1666666666666667
 40
0.1666666666666667
 40
0.25
 40
0.25
 40
0.25
 40
0.25
 40
0.3333333333333333
 40
0.3333333333333333
 40
0.3333333333333333
 40
0.3333333333333333
 40
0.4166666666666666
 40
0.4166666666666666
 40
0.4166666666666666
 40
0.4166666666666666
 40
0.4999999999999999
 40
0.4999999999999999
 40
0.4999999999999999
 40
0.4999999999999999
 40
0.5833333333333333
 40
0.5833333333333333
 40
0.5833333333333333
 40
0.5833333333333333
 40
0.6666666666666666
 40
0.6666666666666666
 40
0.6666666666666666
 40
0.6666666666666666
 40
0.75
 40
0.75
 40
0.75
 40
0.75
 40
0.8333333333333334
 40
0.8333333333333334
 40
0.8333333333333334
 40
0.8333333333333334
 40
0.9166666666666667
 40
0.9166666666666667
 40
0.9166666666666667
 40
0.9166666666666667
 40
1.0
 40
1.0
 40
1.0
 40
1.0
 10
-10.2304
 20
-14.16385
 30
0.0
 10
-10.2304
 20
-14.16385
 30
0.0
 10
-10.15881
 20
-14.16385
 30
0.0
 10
-10.15881
 20
-14.16385
 30
0.0
 10
-10.15881
 20
-14.16385
 30
0.0
 10
-10.15881
 20
-14.16385
 30
0.0
 10
-10.15881
 20
-14.18391
 30
0.0
 10
-10.15881
 20
-14.18391
 30
0.0
 10
-10.15881
 20
-14.18391
 30
0.0
 10
-10.15881
 20
-14.18391
 30
0.0
 10
-10.20387
 20
-14.18391
 30
0.0
 10
-10.20387
 20
-14.18391
 30
0.0
 10
-10.20387
 20
-14.18391
 30
0.0
 10
-10.20387
 20
-14.18391
 30
0.0
 10
-10.20387
 20
-14.20306
 30
0.0
 10
-10.20387
 20
-14.20306
 30
0.0
 10
-10.20387
 20
-14.20306
 30
0.0
 10
-10.20387
 20
-14.20306
 30
0.0
 10
-10.16152
 20
-14.20306
 30
0.0
 10
-10.16152
 20
-14.20306
 30
0.0
 10
-10.16152
 20
-14.20306
 30
0.0
 10
-10.16152
 20
-14.20306
 30
0.0
 10
-10.16152
 20
-14.22312
 30
0.0
 10
-10.16152
 20
-14.22312
 30
0.0
 10
-10.16152
 20
-14.22312
 30
0.0
 10
-10.16152
 20
-14.22312
 30
0.0
 10
-10.20387
 20
-14.22312
 30
0.0
 10
-10.20387
 20
-14.22312
 30
0.0
 10
-10.20387
 20
-14.22312
 30
0.0
 10
-10.20387
 20
-14.22312
 30
0.0
 10
-10.20387
 20
-14.24666
 30
0.0
 10
-10.20387
 20
-14.24666
 30
0.0
 10
-10.20387
 20
-14.24666
 30
0.0
 10
-10.20387
 20
-14.24666
 30
0.0
 10
-10.15731
 20
-14.24666
 30
0.0
 10
-10.15731
 20
-14.24666
 30
0.0
 10
-10.15731
 20
-14.24666
 30
0.0
 10
-10.15731
 20
-14.24666
 30
0.0
 10
-10.15731
 20
-14.26672
 30
0.0
 10
-10.15731
 20
-14.26672
 30
0.0
 10
-10.15731
 20
-14.26672
 30
0.0
 10
-10.15731
 20
-14.26672
 30
0.0
 10
-10.2304
 20
-14.26672
 30
0.0
 10
-10.2304
 20
-14.26672
 30
0.0
 10
-10.2304
 20
-14.26672
 30
0.0
 10
-10.2304
 20
-14.26672
 30
0.0
 10
-10.2304
 20
-14.16385
 30
0.0
 10
-10.2304
 20
-14.16385
 30
0.0
  0
SPLINE
  5
76
330
1F
100
AcDbEntity
  8
Layer 1
 62
   250
100
AcDbSpline
210
0.0
220
0.0
230
1.0
 70
    11
 71
     3
 72
    36
 73
    32
 74
     0
 42
0.0000000001
 43
0.0000000001
 40
0.0
 40
0.0
 40
0.0
 40
0.0
 40
0.125
 40
0.125
 40
0.125
 40
0.125
 40
0.25
 40
0.25
 40
0.25
 40
0.25
 40
0.375
 40
0.375
 40
0.375
 40
0.375
 40
0.5
 40
0.5
 40
0.5
 40
0.5
 40
0.625
 40
0.625
 40
0.625
 40
0.625
 40
0.75
 40
0.75
 40
0.75
 40
0.75
 40
0.875
 40
0.875
 40
0.875
 40
0.875
 40
1.0
 40
1.0
 40
1.0
 40
1.0
 10
-10.07158
 20
-14.248
 30
0.0
 10
-10.07158
 20
-14.248
 30
0.0
 10
-10.11307
 20
-14.248
 30
0.0
 10
-10.11307
 20
-14.248
 30
0.0
 10
-10.11307
 20
-14.248
 30
0.0
 10
-10.11307
 20
-14.248
 30
0.0
 10
-10.11961
 20
-14.26672
 30
0.0
 10
-10.11961
 20
-14.26672
 30
0.0
 10
-10.11961
 20
-14.26672
 30
0.0
 10
-10.11961
 20
-14.26672
 30
0.0
 10
-10.14628
 20
-14.26672
 30
0.0
 10
-10.14628
 20
-14.26672
 30
0.0
 10
-10.14628
 20
-14.26672
 30
0.0
 10
-10.14628
 20
-14.26672
 30
0.0
 10
-10.10818
 20
-14.16385
 30
0.0
 10
-10.10818
 20
-14.16385
 30
0.0
 10
-10.10818
 20
-14.16385
 30
0.0
 10
-10.10818
 20
-14.16385
 30
0.0
 10
-10.07655
 20
-14.16385
 30
0.0
 10
-10.07655
 20
-14.16385
 30
0.0
 10
-10.07655
 20
-14.16385
 30
0.0
 10
-10.07655
 20
-14.16385
 30
0.0
 10
-10.03845
 20
-14.26672
 30
0.0
 10
-10.03845
 20
-14.26672
 30
0.0
 10
-10.03845
 20
-14.26672
 30
0.0
 10
-10.03845
 20
-14.26672
 30
0.0
 10
-10.06512
 20
-14.26672
 30
0.0
 10
-10.06512
 20
-14.26672
 30
0.0
 10
-10.06512
 20
-14.26672
 30
0.0
 10
-10.06512
 20
-14.26672
 30
0.0
 10
-10.07158
 20
-14.248
 30
0.0
 10
-10.07158
 20
-14.248
 30
0.0
  0
SPLINE
  5
77
330
1F
100
AcDbEntity
  8
Layer 1
 62
   250
100
AcDbSpline
210
0.0
220
0.0
230
1.0
 70
    11
 71
     3
 72
    16
 73
    12
 74
     0
 42
0.0000000001
 43
0.0000000001
 40
0.0
 40
0.0
 40
0.0
 40
0.0
 40
0.3333333333333333
 40
0.3333333333333333
 40
0.3333333333333333
 40
0.3333333333333333
 40
0.6666666666666666
 40
0.6666666666666666
 40
0.6666666666666666
 40
0.6666666666666666
 40
1.0
 40
1.0
 40
1.0
 40
1.0
 10
-10.10646
 20
-14.2289
 30
0.0
 10
-10.10646
 20
-14.2289
 30
0.0
 10
-10.07826
 20
-14.2289
 30
0.0
 10
-10.07826
 20
-14.2289
 30
0.0
 10
-10.07826
 20
-14.2289
 30
0.0
 10
-10.07826
 20
-14.2289
 30
0.0
 10
-10.09233
 20
-14.18798
 30
0.0
 10
-10.09233
 20
-14.18798
 30
0.0
 10
-10.09233
 20
-14.18798
 30
0.0
 10
-10.09233
 20
-14.18798
 30
0.0
 10
-10.10646
 20
-14.2289
 30
0.0
 10
-10.10646
 20
-14.2289
 30
0.0
  0
SPLINE
  5
78
330
1F
100
AcDbEntity
  8
Layer 1
 62
   250
100
AcDbSpline
210
0.0
220
0.0
230
1.0
 70
    11
 71
     3
 72
    32
 73
    28
 74
     0
 42
0.0000000001
 43
0.0000000001
 40
0.0
 40
0.0
 40
0.0
 40
0.0
 40
0.1428571428571428
 40
0.1428571428571428
 40
0.1428571428571428
 40
0.1428571428571428
 40
0.2857142857142857
 40
0.2857142857142857
 40
0.2857142857142857
 40
0.2857142857142857
 40
0.4285714285714285
 40
0.4285714285714285
 40
0.4285714285714285
 40
0.4285714285714285
 40
0.5714285714285714
 40
0.5714285714285714
 40
0.5714285714285714
 40
0.5714285714285714
 40
0.7142857142857142
 40
0.7142857142857142
 40
0.7142857142857142
 40
0.7142857142857142
 40
0.857142857142857
 40
0.857142857142857
 40
0.857142857142857
 40
0.857142857142857
 40
1.0
 40
1.0
 40
1.0
 40
1.0
 10
-9.99825
 20
-14.18391
 30
0.0
 10
-9.99825
 20
-14.18391
 30
0.0
 10
-9.99825
 20
-14.24666
 30
0.0
 10
-9.99825
 20
-14.24666
 30
0.0
 10
-9.99825
 20
-14.24666
 30
0.0
 10
-9.99825
 20
-14.24666
 30
0.0
 10
-9.98875
 20
-14.24666
 30
0.0
 10
-9.98875
 20
-14.24666
 30
0.0
 10
-9.98875
 20
-14.24666
 30
0.0
 10
-9.97791
 20
-14.24666
 30
0.0
 10
-9.96963
 20
-14.24398
 30
0.0
 10
-9.96392
 20
-14.23859
 30
0.0
 10
-9.96392
 20
-14.23859
 30
0.0
 10
-9.9582
 20
-14.23323
 30
0.0
 10
-9.95533
 20
-14.22542
 30
0.0
 10
-9.95533
 20
-14.21519
 30
0.0
 10
-9.95533
 20
-14.21519
 30
0.0
 10
-9.95533
 20
-14.20498
 30
0.0
 10
-9.95818
 20
-14.19722
 30
0.0
 10
-9.96387
 20
-14.19191
 30
0.0
 10
-9.96387
 20
-14.19191
 30
0.0
 10
-9.96956
 20
-14.18657
 30
0.0
 10
-9.97786
 20
-14.18391
 30
0.0
 10
-9.98875
 20
-14.18391
 30
0.0
 10
-9.98875
 20
-14.18391
 30
0.0
 10
-9.98875
 20
-14.18391
 30
0.0
 10
-9.99825
 20
-14.18391
 30
0.0
 10
-9.99825
 20
-14.18391
 30
0.0
  0
SPLINE
  5
79
330
1F
100
AcDbEntity
  8
Layer 1
 62
   250
100
AcDbSpline
210
0.0
220
0.0
230
1.0
 70
    11
 71
     3
 72
    48
 73
    44
 74
     0
 42
0.0000000001
 43
0.0000000001
 40
0.0
 40
0.0
 40
0.0
 40
0.0
 40
0.0909090909090909
 40
0.0909090909090909
 40
0.0909090909090909
 40
0.0909090909090909
 40
0.1818181818181818
 40
0.1818181818181818
 40
0.1818181818181818
 40
0.1818181818181818
 40
0.2727272727272727
 40
0.2727272727272727
 40
0.2727272727272727
 40
0.2727272727272727
 40
0.3636363636363636
 40
0.3636363636363636
 40
0.3636363636363636
 40
0.3636363636363636
 40
0.4545454545454546
 40
0.4545454545454546
 40
0.4545454545454546
 40
0.4545454545454546
 40
0.5454545454545455
 40
0.5454545454545455
 40
0.5454545454545455
 40
0.5454545454545455
 40
0.6363636363636365
 40
0.6363636363636365
 40
0.6363636363636365
 40
0.6363636363636365
 40
0.7272727272727274
 40
0.7272727272727274
 40
0.7272727272727274
 40
0.7272727272727274
 40
0.8181818181818183
 40
0.8181818181818183
 40
0.8181818181818183
 40
0.8181818181818183
 40
0.9090909090909093
 40
0.9090909090909093
 40
0.9090909090909093
 40
0.9090909090909093
 40
1.0
 40
1.0
 40
1.0
 40
1.0
 10
-10.02478
 20
-14.16385
 30
0.0
 10
-10.02478
 20
-14.16385
 30
0.0
 10
-9.99679
 20
-14.16385
 30
0.0
 10
-9.99679
 20
-14.16385
 30
0.0
 10
-9.99679
 20
-14.16385
 30
0.0
 10
-9.98118
 20
-14.16385
 30
0.0
 10
-9.96956
 20
-14.16496
 30
0.0
 10
-9.96192
 20
-14.16719
 30
0.0
 10
-9.96192
 20
-14.16719
 30
0.0
 10
-9.95427
 20
-14.16942
 30
0.0
 10
-9.94771
 20
-14.17319
 30
0.0
 10
-9.94223
 20
-14.17853
 30
0.0
 10
-9.94223
 20
-14.17853
 30
0.0
 10
-9.93741
 20
-14.18316
 30
0.0
 10
-9.93384
 20
-14.18852
 30
0.0
 10
-9.93148
 20
-14.19459
 30
0.0
 10
-9.93148
 20
-14.19459
 30
0.0
 10
-9.92916
 20
-14.20063
 30
0.0
 10
-9.92798
 20
-14.2075
 30
0.0
 10
-9.92798
 20
-14.21519
 30
0.0
 10
-9.92798
 20
-14.21519
 30
0.0
 10
-9.92798
 20
-14.22295
 30
0.0
 10
-9.92916
 20
-14.22987
 30
0.0
 10
-9.93148
 20
-14.23596
 30
0.0
 10
-9.93148
 20
-14.23596
 30
0.0
 10
-9.93384
 20
-14.24205
 30
0.0
 10
-9.93741
 20
-14.24741
 30
0.0
 10
-9.94223
 20
-14.25204
 30
0.0
 10
-9.94223
 20
-14.25204
 30
0.0
 10
-9.94776
 20
-14.25738
 30
0.0
 10
-9.95437
 20
-14.26115
 30
0.0
 10
-9.96208
 20
-14.26338
 30
0.0
 10
-9.96208
 20
-14.26338
 30
0.0
 10
-9.9698
 20
-14.26561
 30
0.0
 10
-9.98137
 20
-14.26672
 30
0.0
 10
-9.99679
 20
-14.26672
 30
0.0
 10
-9.99679
 20
-14.26672
 30
0.0
 10
-9.99679
 20
-14.26672
 30
0.0
 10
-10.02478
 20
-14.26672
 30
0.0
 10
-10.02478
 20
-14.26672
 30
0.0
 10
-10.02478
 20
-14.26672
 30
0.0
 10
-10.02478
 20
-14.26672
 30
0.0
 10
-10.02478
 20
-14.16385
 30
0.0
 10
-10.02478
 20
-14.16385
 30
0.0
  0
SPLINE
  5
7A
330
1F
100
AcDbEntity
  8
Layer 1
 62
   250
100
AcDbSpline
210
0.0
220
0.0
230
1.0
 70
    11
 71
     3
 72
    52
 73
    48
 74
     0
 42
0.0000000001
 43
0.0000000001
 40
0.0
 40
0.0
 40
0.0
 40
0.0
 40
0.0833333333333333
 40
0.0833333333333333
 40
0.0833333333333333
 40
0.0833333333333333
 40
0.1666666666666667
 40
0.1666666666666667
 40
0.1666666666666667
 40
0.1666666666666667
 40
0.25
 40
0.25
 40
0.25
 40
0.25
 40
0.3333333333333333
 40
0.3333333333333333
 40
0.3333333333333333
 40
0.3333333333333333
 40
0.4166666666666666
 40
0.4166666666666666
 40
0.4166666666666666
 40
0.4166666666666666
 40
0.4999999999999999
 40
0.4999999999999999
 40
0.4999999999999999
 40
0.4999999999999999
 40
0.5833333333333333
 40
0.5833333333333333
 40
0.5833333333333333
 40
0.5833333333333333
 40
0.6666666666666666
 40
0.6666666666666666
 40
0.6666666666666666
 40
0.6666666666666666
 40
0.75
 40
0.75
 40
0.75
 40
0.75
 40
0.8333333333333334
 40
0.8333333333333334
 40
0.8333333333333334
 40
0.8333333333333334
 40
0.9166666666666667
 40
0.9166666666666667
 40
0.9166666666666667
 40
0.9166666666666667
 40
1.0
 40
1.0
 40
1.0
 40
1.0
 10
-9.90766
 20
-14.16385
 30
0.0
 10
-9.90766
 20
-14.16385
 30
0.0
 10
-9.83607
 20
-14.16385
 30
0.0
 10
-9.83607
 20
-14.16385
 30
0.0
 10
-9.83607
 20
-14.16385
 30
0.0
 10
-9.83607
 20
-14.16385
 30
0.0
 10
-9.83607
 20
-14.18391
 30
0.0
 10
-9.83607
 20
-14.18391
 30
0.0
 10
-9.83607
 20
-14.18391
 30
0.0
 10
-9.83607
 20
-14.18391
 30
0.0
 10
-9.88113
 20
-14.18391
 30
0.0
 10
-9.88113
 20
-14.18391
 30
0.0
 10
-9.88113
 20
-14.18391
 30
0.0
 10
-9.88113
 20
-14.18391
 30
0.0
 10
-9.88113
 20
-14.20306
 30
0.0
 10
-9.88113
 20
-14.20306
 30
0.0
 10
-9.88113
 20
-14.20306
 30
0.0
 10
-9.88113
 20
-14.20306
 30
0.0
 10
-9.83878
 20
-14.20306
 30
0.0
 10
-9.83878
 20
-14.20306
 30
0.0
 10
-9.83878
 20
-14.20306
 30
0.0
 10
-9.83878
 20
-14.20306
 30
0.0
 10
-9.83878
 20
-14.22312
 30
0.0
 10
-9.83878
 20
-14.22312
 30
0.0
 10
-9.83878
 20
-14.22312
 30
0.0
 10
-9.83878
 20
-14.22312
 30
0.0
 10
-9.88113
 20
-14.22312
 30
0.0
 10
-9.88113
 20
-14.22312
 30
0.0
 10
-9.88113
 20
-14.22312
 30
0.0
 10
-9.88113
 20
-14.22312
 30
0.0
 10
-9.88113
 20
-14.24666
 30
0.0
 10
-9.88113
 20
-14.24666
 30
0.0
 10
-9.88113
 20
-14.24666
 30
0.0
 10
-9.88113
 20
-14.24666
 30
0.0
 10
-9.83457
 20
-14.24666
 30
0.0
 10
-9.83457
 20
-14.24666
 30
0.0
 10
-9.83457
 20
-14.24666
 30
0.0
 10
-9.83457
 20
-14.24666
 30
0.0
 10
-9.83457
 20
-14.26672
 30
0.0
 10
-9.83457
 20
-14.26672
 30
0.0
 10
-9.83457
 20
-14.26672
 30
0.0
 10
-9.83457
 20
-14.26672
 30
0.0
 10
-9.90766
 20
-14.26672
 30
0.0
 10
-9.90766
 20
-14.26672
 30
0.0
 10
-9.90766
 20
-14.26672
 30
0.0
 10
-9.90766
 20
-14.26672
 30
0.0
 10
-9.90766
 20
-14.16385
 30
0.0
 10
-9.90766
 20
-14.16385
 30
0.0
  0
SPLINE
  5
7B
330
1F
100
AcDbEntity
  8
Layer 1
 62
   250
100
AcDbSpline
210
0.0
220
0.0
230
1.0
 70
    11
 71
     3
 72
    32
 73
    28
 74
     0
 42
0.0000000001
 43
0.0000000001
 40
0.0
 40
0.0
 40
0.0
 40
0.0
 40
0.1428571428571428
 40
0.1428571428571428
 40
0.1428571428571428
 40
0.1428571428571428
 40
0.2857142857142857
 40
0.2857142857142857
 40
0.2857142857142857
 40
0.2857142857142857
 40
0.4285714285714285
 40
0.4285714285714285
 40
0.4285714285714285
 40
0.4285714285714285
 40
0.5714285714285714
 40
0.5714285714285714
 40
0.5714285714285714
 40
0.5714285714285714
 40
0.7142857142857142
 40
0.7142857142857142
 40
0.7142857142857142
 40
0.7142857142857142
 40
0.857142857142857
 40
0.857142857142857
 40
0.857142857142857
 40
0.857142857142857
 40
1.0
 40
1.0
 40
1.0
 40
1.0
 10
-9.77356
 20
-14.20948
 30
0.0
 10
-9.76801
 20
-14.20948
 30
0.0
 10
-9.76401
 20
-14.20844
 30
0.0
 10
-9.76161
 20
-14.20637
 30
0.0
 10
-9.76161
 20
-14.20637
 30
0.0
 10
-9.75919
 20
-14.2043
 30
0.0
 10
-9.75799
 20
-14.20089
 30
0.0
 10
-9.75799
 20
-14.19616
 30
0.0
 10
-9.75799
 20
-14.19616
 30
0.0
 10
-9.75799
 20
-14.19148
 30
0.0
 10
-9.75919
 20
-14.18812
 30
0.0
 10
-9.76161
 20
-14.1861
 30
0.0
 10
-9.76161
 20
-14.1861
 30
0.0
 10
-9.76401
 20
-14.18408
 30
0.0
 10
-9.76801
 20
-14.18307
 30
0.0
 10
-9.77356
 20
-14.18307
 30
0.0
 10
-9.77356
 20
-14.18307
 30
0.0
 10
-9.77356
 20
-14.18307
 30
0.0
 10
-9.78473
 20
-14.18307
 30
0.0
 10
-9.78473
 20
-14.18307
 30
0.0
 10
-9.78473
 20
-14.18307
 30
0.0
 10
-9.78473
 20
-14.18307
 30
0.0
 10
-9.78473
 20
-14.20948
 30
0.0
 10
-9.78473
 20
-14.20948
 30
0.0
 10
-9.78473
 20
-14.20948
 30
0.0
 10
-9.78473
 20
-14.20948
 30
0.0
 10
-9.77356
 20
-14.20948
 30
0.0
 10
-9.77356
 20
-14.20948
 30
0.0
  0
SPLINE
  5
7C
330
1F
100
AcDbEntity
  8
Layer 1
 62
   250
100
AcDbSpline
210
0.0
220
0.0
230
1.0
 70
    11
 71
     3
 72
    68
 73
    64
 74
     0
 42
0.0000000001
 43
0.0000000001
 40
0.0
 40
0.0
 40
0.0
 40
0.0
 40
0.0625
 40
0.0625
 40
0.0625
 40
0.0625
 40
0.125
 40
0.125
 40
0.125
 40
0.125
 40
0.1875
 40
0.1875
 40
0.1875
 40
0.1875
 40
0.25
 40
0.25
 40
0.25
 40
0.25
 40
0.3125
 40
0.3125
 40
0.3125
 40
0.3125
 40
0.375
 40
0.375
 40
0.375
 40
0.375
 40
0.4375
 40
0.4375
 40
0.4375
 40
0.4375
 40
0.5
 40
0.5
 40
0.5
 40
0.5
 40
0.5625
 40
0.5625
 40
0.5625
 40
0.5625
 40
0.625
 40
0.625
 40
0.625
 40
0.625
 40
0.6875
 40
0.6875
 40
0.6875
 40
0.6875
 40
0.75
 40
0.75
 40
0.75
 40
0.75
 40
0.8125
 40
0.8125
 40
0.8125
 40
0.8125
 40
0.875
 40
0.875
 40
0.875
 40
0.875
 40
0.9375
 40
0.9375
 40
0.9375
 40
0.9375
 40
1.0
 40
1.0
 40
1.0
 40
1.0
 10
-9.78473
 20
-14.2278
 30
0.0
 10
-9.78473
 20
-14.2278
 30
0.0
 10
-9.78473
 20
-14.26672
 30
0.0
 10
-9.78473
 20
-14.26672
 30
0.0
 10
-9.78473
 20
-14.26672
 30
0.0
 10
-9.78473
 20
-14.26672
 30
0.0
 10
-9.81126
 20
-14.26672
 30
0.0
 10
-9.81126
 20
-14.26672
 30
0.0
 10
-9.81126
 20
-14.26672
 30
0.0
 10
-9.81126
 20
-14.26672
 30
0.0
 10
-9.81126
 20
-14.16385
 30
0.0
 10
-9.81126
 20
-14.16385
 30
0.0
 10
-9.81126
 20
-14.16385
 30
0.0
 10
-9.81126
 20
-14.16385
 30
0.0
 10
-9.77074
 20
-14.16385
 30
0.0
 10
-9.77074
 20
-14.16385
 30
0.0
 10
-9.77074
 20
-14.16385
 30
0.0
 10
-9.75719
 20
-14.16385
 30
0.0
 10
-9.74724
 20
-14.16613
 30
0.0
 10
-9.74094
 20
-14.17067
 30
0.0
 10
-9.74094
 20
-14.17067
 30
0.0
 10
-9.73462
 20
-14.17521
 30
0.0
 10
-9.73146
 20
-14.18241
 30
0.0
 10
-9.73146
 20
-14.19224
 30
0.0
 10
-9.73146
 20
-14.19224
 30
0.0
 10
-9.73146
 20
-14.19903
 30
0.0
 10
-9.73311
 20
-14.20463
 30
0.0
 10
-9.73638
 20
-14.20898
 30
0.0
 10
-9.73638
 20
-14.20898
 30
0.0
 10
-9.73967
 20
-14.21336
 30
0.0
 10
-9.74463
 20
-14.21658
 30
0.0
 10
-9.75124
 20
-14.21863
 30
0.0
 10
-9.75124
 20
-14.21863
 30
0.0
 10
-9.74762
 20
-14.21947
 30
0.0
 10
-9.74435
 20
-14.22133
 30
0.0
 10
-9.74148
 20
-14.22425
 30
0.0
 10
-9.74148
 20
-14.22425
 30
0.0
 10
-9.73861
 20
-14.22716
 30
0.0
 10
-9.73572
 20
-14.23158
 30
0.0
 10
-9.73278
 20
-14.23751
 30
0.0
 10
-9.73278
 20
-14.23751
 30
0.0
 10
-9.73278
 20
-14.23751
 30
0.0
 10
-9.71836
 20
-14.26672
 30
0.0
 10
-9.71836
 20
-14.26672
 30
0.0
 10
-9.71836
 20
-14.26672
 30
0.0
 10
-9.71836
 20
-14.26672
 30
0.0
 10
-9.74663
 20
-14.26672
 30
0.0
 10
-9.74663
 20
-14.26672
 30
0.0
 10
-9.74663
 20
-14.26672
 30
0.0
 10
-9.74663
 20
-14.26672
 30
0.0
 10
-9.75917
 20
-14.24116
 30
0.0
 10
-9.75917
 20
-14.24116
 30
0.0
 10
-9.75917
 20
-14.24116
 30
0.0
 10
-9.76168
 20
-14.23603
 30
0.0
 10
-9.76425
 20
-14.2325
 30
0.0
 10
-9.76686
 20
-14.23062
 30
0.0
 10
-9.76686
 20
-14.23062
 30
0.0
 10
-9.76945
 20
-14.22874
 30
0.0
 10
-9.7729
 20
-14.2278
 30
0.0
 10
-9.77723
 20
-14.2278
 30
0.0
 10
-9.77723
 20
-14.2278
 30
0.0
 10
-9.77723
 20
-14.2278
 30
0.0
 10
-9.78473
 20
-14.2278
 30
0.0
 10
-9.78473
 20
-14.2278
 30
0.0
  0
SPLINE
  5
7D
330
1F
100
AcDbEntity
  8
Layer 1
 62
   250
100
AcDbSpline
210
0.0
220
0.0
230
1.0
 70
    11
 71
     3
 72
    36
 73
    32
 74
     0
 42
0.0000000001
 43
0.0000000001
 40
0.0
 40
0.0
 40
0.0
 40
0.0
 40
0.125
 40
0.125
 40
0.125
 40
0.125
 40
0.25
 40
0.25
 40
0.25
 40
0.25
 40
0.375
 40
0.375
 40
0.375
 40
0.375
 40
0.5
 40
0.5
 40
0.5
 40
0.5
 40
0.625
 40
0.625
 40
0.625
 40
0.625
 40
0.75
 40
0.75
 40
0.75
 40
0.75
 40
0.875
 40
0.875
 40
0.875
 40
0.875
 40
1.0
 40
1.0
 40
1.0
 40
1.0
 10
-10.79877
 20
-15.08523
 30
0.0
 10
-10.80334
 20
-15.08523
 30
0.0
 10
-10.80679
 20
-15.087
 30
0.0
 10
-10.80914
 20
-15.09055
 30
0.0
 10
-10.80914
 20
-15.09055
 30
0.0
 10
-10.81149
 20
-15.0941
 30
0.0
 10
-10.81266
 20
-15.09937
 30
0.0
 10
-10.81266
 20
-15.10632
 30
0.0
 10
-10.81266
 20
-15.10632
 30
0.0
 10
-10.81266
 20
-15.11325
 30
0.0
 10
-10.81149
 20
-15.1185
 30
0.0
 10
-10.80914
 20
-15.12207
 30
0.0
 10
-10.80914
 20
-15.12207
 30
0.0
 10
-10.80679
 20
-15.12564
 30
0.0
 10
-10.80334
 20
-15.12742
 30
0.0
 10
-10.79877
 20
-15.12742
 30
0.0
 10
-10.79877
 20
-15.12742
 30
0.0
 10
-10.79419
 20
-15.12742
 30
0.0
 10
-10.79072
 20
-15.12564
 30
0.0
 10
-10.78837
 20
-15.12207
 30
0.0
 10
-10.78837
 20
-15.12207
 30
0.0
 10
-10.78602
 20
-15.1185
 30
0.0
 10
-10.78486
 20
-15.11325
 30
0.0
 10
-10.78486
 20
-15.10632
 30
0.0
 10
-10.78486
 20
-15.10632
 30
0.0
 10
-10.78486
 20
-15.09937
 30
0.0
 10
-10.78602
 20
-15.0941
 30
0.0
 10
-10.78837
 20
-15.09055
 30
0.0
 10
-10.78837
 20
-15.09055
 30
0.0
 10
-10.79072
 20
-15.087
 30
0.0
 10
-10.79419
 20
-15.08523
 30
0.0
 10
-10.79877
 20
-15.08523
 30
0.0
  0
SPLINE
  5
7E
330
1F
100
AcDbEntity
  8
Layer 1
 62
   250
100
AcDbSpline
210
0.0
220
0.0
230
1.0
 70
    11
 71
     3
 72
    36
 73
    32
 74
     0
 42
0.0000000001
 43
0.0000000001
 40
0.0
 40
0.0
 40
0.0
 40
0.0
 40
0.125
 40
0.125
 40
0.125
 40
0.125
 40
0.25
 40
0.25
 40
0.25
 40
0.25
 40
0.375
 40
0.375
 40
0.375
 40
0.375
 40
0.5
 40
0.5
 40
0.5
 40
0.5
 40
0.625
 40
0.625
 40
0.625
 40
0.625
 40
0.75
 40
0.75
 40
0.75
 40
0.75
 40
0.875
 40
0.875
 40
0.875
 40
0.875
 40
1.0
 40
1.0
 40
1.0
 40
1.0
 10
-10.79877
 20
-15.07761
 30
0.0
 10
-10.79119
 20
-15.07761
 30
0.0
 10
-10.78539
 20
-15.08006
 30
0.0
 10
-10.78137
 20
-15.08498
 30
0.0
 10
-10.78137
 20
-15.08498
 30
0.0
 10
-10.77735
 20
-15.0899
 30
0.0
 10
-10.77534
 20
-15.09702
 30
0.0
 10
-10.77534
 20
-15.10632
 30
0.0
 10
-10.77534
 20
-15.10632
 30
0.0
 10
-10.77534
 20
-15.11567
 30
0.0
 10
-10.77734
 20
-15.12279
 30
0.0
 10
-10.78134
 20
-15.12769
 30
0.0
 10
-10.78134
 20
-15.12769
 30
0.0
 10
-10.78536
 20
-15.13259
 30
0.0
 10
-10.79116
 20
-15.13504
 30
0.0
 10
-10.79877
 20
-15.13504
 30
0.0
 10
-10.79877
 20
-15.13504
 30
0.0
 10
-10.80637
 20
-15.13504
 30
0.0
 10
-10.81216
 20
-15.13259
 30
0.0
 10
-10.81618
 20
-15.12769
 30
0.0
 10
-10.81618
 20
-15.12769
 30
0.0
 10
-10.82018
 20
-15.12279
 30
0.0
 10
-10.82218
 20
-15.11567
 30
0.0
 10
-10.82218
 20
-15.10632
 30
0.0
 10
-10.82218
 20
-15.10632
 30
0.0
 10
-10.82218
 20
-15.09702
 30
0.0
 10
-10.82018
 20
-15.0899
 30
0.0
 10
-10.81618
 20
-15.08498
 30
0.0
 10
-10.81618
 20
-15.08498
 30
0.0
 10
-10.81216
 20
-15.08006
 30
0.0
 10
-10.80637
 20
-15.07761
 30
0.0
 10
-10.79877
 20
-15.07761
 30
0.0
  0
SPLINE
  5
7F
330
1F
100
AcDbEntity
  8
Layer 1
 62
   250
100
AcDbSpline
210
0.0
220
0.0
230
1.0
 70
    11
 71
     3
 72
    36
 73
    32
 74
     0
 42
0.0000000001
 43
0.0000000001
 40
0.0
 40
0.0
 40
0.0
 40
0.0
 40
0.125
 40
0.125
 40
0.125
 40
0.125
 40
0.25
 40
0.25
 40
0.25
 40
0.25
 40
0.375
 40
0.375
 40
0.375
 40
0.375
 40
0.5
 40
0.5
 40
0.5
 40
0.5
 40
0.625
 40
0.625
 40
0.625
 40
0.625
 40
0.75
 40
0.75
 40
0.75
 40
0.75
 40
0.875
 40
0.875
 40
0.875
 40
0.875
 40
1.0
 40
1.0
 40
1.0
 40
1.0
 10
-10.73856
 20
-15.08523
 30
0.0
 10
-10.74313
 20
-15.08523
 30
0.0
 10
-10.74658
 20
-15.087
 30
0.0
 10
-10.74893
 20
-15.09055
 30
0.0
 10
-10.74893
 20
-15.09055
 30
0.0
 10
-10.75128
 20
-15.0941
 30
0.0
 10
-10.75245
 20
-15.09937
 30
0.0
 10
-10.75245
 20
-15.10632
 30
0.0
 10
-10.75245
 20
-15.10632
 30
0.0
 10
-10.75245
 20
-15.11325
 30
0.0
 10
-10.75128
 20
-15.1185
 30
0.0
 10
-10.74893
 20
-15.12207
 30
0.0
 10
-10.74893
 20
-15.12207
 30
0.0
 10
-10.74658
 20
-15.12564
 30
0.0
 10
-10.74313
 20
-15.12742
 30
0.0
 10
-10.73856
 20
-15.12742
 30
0.0
 10
-10.73856
 20
-15.12742
 30
0.0
 10
-10.73398
 20
-15.12742
 30
0.0
 10
-10.73051
 20
-15.12564
 30
0.0
 10
-10.72816
 20
-15.12207
 30
0.0
 10
-10.72816
 20
-15.12207
 30
0.0
 10
-10.72581
 20
-15.1185
 30
0.0
 10
-10.72465
 20
-15.11325
 30
0.0
 10
-10.72465
 20
-15.10632
 30
0.0
 10
-10.72465
 20
-15.10632
 30
0.0
 10
-10.72465
 20
-15.09937
 30
0.0
 10
-10.72581
 20
-15.0941
 30
0.0
 10
-10.72816
 20
-15.09055
 30
0.0
 10
-10.72816
 20
-15.09055
 30
0.0
 10
-10.73051
 20
-15.087
 30
0.0
 10
-10.73398
 20
-15.08523
 30
0.0
 10
-10.73856
 20
-15.08523
 30
0.0
  0
SPLINE
  5
80
330
1F
100
AcDbEntity
  8
Layer 1
 62
   250
100
AcDbSpline
210
0.0
220
0.0
230
1.0
 70
    11
 71
     3
 72
    36
 73
    32
 74
     0
 42
0.0000000001
 43
0.0000000001
 40
0.0
 40
0.0
 40
0.0
 40
0.0
 40
0.125
 40
0.125
 40
0.125
 40
0.125
 40
0.25
 40
0.25
 40
0.25
 40
0.25
 40
0.375
 40
0.375
 40
0.375
 40
0.375
 40
0.5
 40
0.5
 40
0.5
 40
0.5
 40
0.625
 40
0.625
 40
0.625
 40
0.625
 40
0.75
 40
0.75
 40
0.75
 40
0.75
 40
0.875
 40
0.875
 40
0.875
 40
0.875
 40
1.0
 40
1.0
 40
1.0
 40
1.0
 10
-10.73856
 20
-15.07761
 30
0.0
 10
-10.73098
 20
-15.07761
 30
0.0
 10
-10.72518
 20
-15.08006
 30
0.0
 10
-10.72116
 20
-15.08498
 30
0.0
 10
-10.72116
 20
-15.08498
 30
0.0
 10
-10.71714
 20
-15.0899
 30
0.0
 10
-10.71513
 20
-15.09702
 30
0.0
 10
-10.71513
 20
-15.10632
 30
0.0
 10
-10.71513
 20
-15.10632
 30
0.0
 10
-10.71513
 20
-15.11567
 30
0.0
 10
-10.71713
 20
-15.12279
 30
0.0
 10
-10.72113
 20
-15.12769
 30
0.0
 10
-10.72113
 20
-15.12769
 30
0.0
 10
-10.72515
 20
-15.13259
 30
0.0
 10
-10.73095
 20
-15.13504
 30
0.0
 10
-10.73856
 20
-15.13504
 30
0.0
 10
-10.73856
 20
-15.13504
 30
0.0
 10
-10.74616
 20
-15.13504
 30
0.0
 10
-10.75195
 20
-15.13259
 30
0.0
 10
-10.75597
 20
-15.12769
 30
0.0
 10
-10.75597
 20
-15.12769
 30
0.0
 10
-10.75997
 20
-15.12279
 30
0.0
 10
-10.76197
 20
-15.11567
 30
0.0
 10
-10.76197
 20
-15.10632
 30
0.0
 10
-10.76197
 20
-15.10632
 30
0.0
 10
-10.76197
 20
-15.09702
 30
0.0
 10
-10.75997
 20
-15.0899
 30
0.0
 10
-10.75597
 20
-15.08498
 30
0.0
 10
-10.75597
 20
-15.08498
 30
0.0
 10
-10.75195
 20
-15.08006
 30
0.0
 10
-10.74616
 20
-15.07761
 30
0.0
 10
-10.73856
 20
-15.07761
 30
0.0
  0
SPLINE
  5
81
330
1F
100
AcDbEntity
  8
Layer 1
 62
   250
100
AcDbSpline
210
0.0
220
0.0
230
1.0
 70
    11
 71
     3
 72
   112
 73
   108
 74
     0
 42
0.0000000001
 43
0.0000000001
 40
0.0
 40
0.0
 40
0.0
 40
0.0
 40
0.037037037037037
 40
0.037037037037037
 40
0.037037037037037
 40
0.037037037037037
 40
0.0740740740740741
 40
0.0740740740740741
 40
0.0740740740740741
 40
0.0740740740740741
 40
0.1111111111111111
 40
0.1111111111111111
 40
0.1111111111111111
 40
0.1111111111111111
 40
0.1481481481481481
 40
0.1481481481481481
 40
0.1481481481481481
 40
0.1481481481481481
 40
0.1851851851851852
 40
0.1851851851851852
 40
0.1851851851851852
 40
0.1851851851851852
 40
0.2222222222222222
 40
0.2222222222222222
 40
0.2222222222222222
 40
0.2222222222222222
 40
0.2592592592592592
 40
0.2592592592592592
 40
0.2592592592592592
 40
0.2592592592592592
 40
0.2962962962962963
 40
0.2962962962962963
 40
0.2962962962962963
 40
0.2962962962962963
 40
0.3333333333333333
 40
0.3333333333333333
 40
0.3333333333333333
 40
0.3333333333333333
 40
0.3703703703703703
 40
0.3703703703703703
 40
0.3703703703703703
 40
0.3703703703703703
 40
0.4074074074074074
 40
0.4074074074074074
 40
0.4074074074074074
 40
0.4074074074074074
 40
0.4444444444444444
 40
0.4444444444444444
 40
0.4444444444444444
 40
0.4444444444444444
 40
0.4814814814814815
 40
0.4814814814814815
 40
0.4814814814814815
 40
0.4814814814814815
 40
0.5185185185185185
 40
0.5185185185185185
 40
0.5185185185185185
 40
0.5185185185185185
 40
0.5555555555555556
 40
0.5555555555555556
 40
0.5555555555555556
 40
0.5555555555555556
 40
0.5925925925925926
 40
0.5925925925925926
 40
0.5925925925925926
 40
0.5925925925925926
 40
0.6296296296296295
 40
0.6296296296296295
 40
0.6296296296296295
 40
0.6296296296296295
 40
0.6666666666666665
 40
0.6666666666666665
 40
0.6666666666666665
 40
0.6666666666666665
 40
0.7037037037037035
 40
0.7037037037037035
 40
0.7037037037037035
 40
0.7037037037037035
 40
0.7407407407407405
 40
0.7407407407407405
 40
0.7407407407407405
 40
0.7407407407407405
 40
0.7777777777777775
 40
0.7777777777777775
 40
0.7777777777777775
 40
0.7777777777777775
 40
0.8148148148148144
 40
0.8148148148148144
 40
0.8148148148148144
 40
0.8148148148148144
 40
0.8518518518518514
 40
0.8518518518518514
 40
0.8518518518518514
 40
0.8518518518518514
 40
0.8888888888888884
 40
0.8888888888888884
 40
0.8888888888888884
 40
0.8888888888888884
 40
0.9259259259259254
 40
0.9259259259259254
 40
0.9259259259259254
 40
0.9259259259259254
 40
0.9629629629629624
 40
0.9629629629629624
 40
0.9629629629629624
 40
0.9629629629629624
 40
1.0
 40
1.0
 40
1.0
 40
1.0
 10
-10.67544
 20
-15.0845
 30
0.0
 10
-10.67434
 20
-15.08215
 30
0.0
 10
-10.67292
 20
-15.08041
 30
0.0
 10
-10.6712
 20
-15.0793
 30
0.0
 10
-10.6712
 20
-15.0793
 30
0.0
 10
-10.6695
 20
-15.07818
 30
0.0
 10
-10.66744
 20
-15.07761
 30
0.0
 10
-10.66504
 20
-15.07761
 30
0.0
 10
-10.66504
 20
-15.07761
 30
0.0
 10
-10.66064
 20
-15.07761
 30
0.0
 10
-10.65753
 20
-15.07931
 30
0.0
 10
-10.65573
 20
-15.08271
 30
0.0
 10
-10.65573
 20
-15.08271
 30
0.0
 10
-10.65392
 20
-15.08612
 30
0.0
 10
-10.65302
 20
-15.09252
 30
0.0
 10
-10.65302
 20
-15.10193
 30
0.0
 10
-10.65302
 20
-15.10193
 30
0.0
 10
-10.65302
 20
-15.10193
 30
0.0
 10
-10.65302
 20
-15.13362
 30
0.0
 10
-10.65302
 20
-15.13362
 30
0.0
 10
-10.65302
 20
-15.13362
 30
0.0
 10
-10.65302
 20
-15.13362
 30
0.0
 10
-10.66122
 20
-15.13362
 30
0.0
 10
-10.66122
 20
-15.13362
 30
0.0
 10
-10.66122
 20
-15.13362
 30
0.0
 10
-10.66122
 20
-15.13362
 30
0.0
 10
-10.66122
 20
-15.10232
 30
0.0
 10
-10.66122
 20
-15.10232
 30
0.0
 10
-10.66122
 20
-15.10232
 30
0.0
 10
-10.66122
 20
-15.0946
 30
0.0
 10
-10.66165
 20
-15.08982
 30
0.0
 10
-10.66252
 20
-15.08793
 30
0.0
 10
-10.66252
 20
-15.08793
 30
0.0
 10
-10.66337
 20
-15.08607
 30
0.0
 10
-10.66495
 20
-15.08513
 30
0.0
 10
-10.66724
 20
-15.08513
 30
0.0
 10
-10.66724
 20
-15.08513
 30
0.0
 10
-10.66984
 20
-15.08513
 30
0.0
 10
-10.67162
 20
-15.08613
 30
0.0
 10
-10.67259
 20
-15.08813
 30
0.0
 10
-10.67259
 20
-15.08813
 30
0.0
 10
-10.67354
 20
-15.09013
 30
0.0
 10
-10.67402
 20
-15.09487
 30
0.0
 10
-10.67402
 20
-15.10232
 30
0.0
 10
-10.67402
 20
-15.10232
 30
0.0
 10
-10.67402
 20
-15.10232
 30
0.0
 10
-10.67402
 20
-15.13362
 30
0.0
 10
-10.67402
 20
-15.13362
 30
0.0
 10
-10.67402
 20
-15.13362
 30
0.0
 10
-10.67402
 20
-15.13362
 30
0.0
 10
-10.68222
 20
-15.13362
 30
0.0
 10
-10.68222
 20
-15.13362
 30
0.0
 10
-10.68222
 20
-15.13362
 30
0.0
 10
-10.68222
 20
-15.13362
 30
0.0
 10
-10.68222
 20
-15.10232
 30
0.0
 10
-10.68222
 20
-15.10232
 30
0.0
 10
-10.68222
 20
-15.10232
 30
0.0
 10
-10.68222
 20
-15.0945
 30
0.0
 10
-10.68269
 20
-15.08968
 30
0.0
 10
-10.68362
 20
-15.08787
 30
0.0
 10
-10.68362
 20
-15.08787
 30
0.0
 10
-10.68454
 20
-15.08605
 30
0.0
 10
-10.6862
 20
-15.08513
 30
0.0
 10
-10.68862
 20
-15.08513
 30
0.0
 10
-10.68862
 20
-15.08513
 30
0.0
 10
-10.691
 20
-15.08513
 30
0.0
 10
-10.69266
 20
-15.08613
 30
0.0
 10
-10.69357
 20
-15.08813
 30
0.0
 10
-10.69357
 20
-15.08813
 30
0.0
 10
-10.69451
 20
-15.09013
 30
0.0
 10
-10.69497
 20
-15.09487
 30
0.0
 10
-10.69497
 20
-15.10232
 30
0.0
 10
-10.69497
 20
-15.10232
 30
0.0
 10
-10.69497
 20
-15.10232
 30
0.0
 10
-10.69497
 20
-15.13362
 30
0.0
 10
-10.69497
 20
-15.13362
 30
0.0
 10
-10.69497
 20
-15.13362
 30
0.0
 10
-10.69497
 20
-15.13362
 30
0.0
 10
-10.70312
 20
-15.13362
 30
0.0
 10
-10.70312
 20
-15.13362
 30
0.0
 10
-10.70312
 20
-15.13362
 30
0.0
 10
-10.70312
 20
-15.13362
 30
0.0
 10
-10.70312
 20
-15.07893
 30
0.0
 10
-10.70312
 20
-15.07893
 30
0.0
 10
-10.70312
 20
-15.07893
 30
0.0
 10
-10.70312
 20
-15.07893
 30
0.0
 10
-10.69497
 20
-15.07893
 30
0.0
 10
-10.69497
 20
-15.07893
 30
0.0
 10
-10.69497
 20
-15.07893
 30
0.0
 10
-10.69497
 20
-15.07893
 30
0.0
 10
-10.69497
 20
-15.08361
 30
0.0
 10
-10.69497
 20
-15.08361
 30
0.0
 10
-10.69497
 20
-15.08361
 30
0.0
 10
-10.69391
 20
-15.08166
 30
0.0
 10
-10.69256
 20
-15.08018
 30
0.0
 10
-10.69094
 20
-15.07915
 30
0.0
 10
-10.69094
 20
-15.07915
 30
0.0
 10
-10.68934
 20
-15.07813
 30
0.0
 10
-10.6875
 20
-15.07761
 30
0.0
 10
-10.68545
 20
-15.07761
 30
0.0
 10
-10.68545
 20
-15.07761
 30
0.0
 10
-10.68297
 20
-15.07761
 30
0.0
 10
-10.68092
 20
-15.07818
 30
0.0
 10
-10.67927
 20
-15.07931
 30
0.0
 10
-10.67927
 20
-15.07931
 30
0.0
 10
-10.67762
 20
-15.08046
 30
0.0
 10
-10.67635
 20
-15.08218
 30
0.0
 10
-10.67544
 20
-15.0845
 30
0.0
  0
SPLINE
  5
82
330
1F
100
AcDbEntity
  8
Layer 1
 62
   250
100
AcDbSpline
210
0.0
220
0.0
230
1.0
 70
    11
 71
     3
 72
    20
 73
    16
 74
     0
 42
0.0000000001
 43
0.0000000001
 40
0.0
 40
0.0
 40
0.0
 40
0.0
 40
0.25
 40
0.25
 40
0.25
 40
0.25
 40
0.5
 40
0.5
 40
0.5
 40
0.5
 40
0.75
 40
0.75
 40
0.75
 40
0.75
 40
1.0
 40
1.0
 40
1.0
 40
1.0
 10
-10.62434
 20
-15.11872
 30
0.0
 10
-10.62434
 20
-15.11872
 30
0.0
 10
-10.61204
 20
-15.11872
 30
0.0
 10
-10.61204
 20
-15.11872
 30
0.0
 10
-10.61204
 20
-15.11872
 30
0.0
 10
-10.61204
 20
-15.11872
 30
0.0
 10
-10.61204
 20
-15.13362
 30
0.0
 10
-10.61204
 20
-15.13362
 30
0.0
 10
-10.61204
 20
-15.13362
 30
0.0
 10
-10.61204
 20
-15.13362
 30
0.0
 10
-10.62434
 20
-15.13362
 30
0.0
 10
-10.62434
 20
-15.13362
 30
0.0
 10
-10.62434
 20
-15.13362
 30
0.0
 10
-10.62434
 20
-15.13362
 30
0.0
 10
-10.62434
 20
-15.11872
 30
0.0
 10
-10.62434
 20
-15.11872
 30
0.0
  0
SPLINE
  5
83
330
1F
100
AcDbEntity
  8
Layer 1
 62
   250
100
AcDbSpline
210
0.0
220
0.0
230
1.0
 70
    11
 71
     3
 72
    52
 73
    48
 74
     0
 42
0.0000000001
 43
0.0000000001
 40
0.0
 40
0.0
 40
0.0
 40
0.0
 40
0.0833333333333333
 40
0.0833333333333333
 40
0.0833333333333333
 40
0.0833333333333333
 40
0.1666666666666667
 40
0.1666666666666667
 40
0.1666666666666667
 40
0.1666666666666667
 40
0.25
 40
0.25
 40
0.25
 40
0.25
 40
0.3333333333333333
 40
0.3333333333333333
 40
0.3333333333333333
 40
0.3333333333333333
 40
0.4166666666666666
 40
0.4166666666666666
 40
0.4166666666666666
 40
0.4166666666666666
 40
0.4999999999999999
 40
0.4999999999999999
 40
0.4999999999999999
 40
0.4999999999999999
 40
0.5833333333333333
 40
0.5833333333333333
 40
0.5833333333333333
 40
0.5833333333333333
 40
0.6666666666666666
 40
0.6666666666666666
 40
0.6666666666666666
 40
0.6666666666666666
 40
0.75
 40
0.75
 40
0.75
 40
0.75
 40
0.8333333333333334
 40
0.8333333333333334
 40
0.8333333333333334
 40
0.8333333333333334
 40
0.9166666666666667
 40
0.9166666666666667
 40
0.9166666666666667
 40
0.9166666666666667
 40
1.0
 40
1.0
 40
1.0
 40
1.0
 10
-10.55682
 20
-15.1138
 30
0.0
 10
-10.55682
 20
-15.11784
 30
0.0
 10
-10.55608
 20
-15.12087
 30
0.0
 10
-10.5546
 20
-15.12292
 30
0.0
 10
-10.5546
 20
-15.12292
 30
0.0
 10
-10.55312
 20
-15.12497
 30
0.0
 10
-10.55093
 20
-15.126
 30
0.0
 10
-10.54803
 20
-15.126
 30
0.0
 10
-10.54803
 20
-15.126
 30
0.0
 10
-10.54803
 20
-15.126
 30
0.0
 10
-10.53753
 20
-15.126
 30
0.0
 10
-10.53753
 20
-15.126
 30
0.0
 10
-10.53753
 20
-15.126
 30
0.0
 10
-10.53753
 20
-15.126
 30
0.0
 10
-10.53753
 20
-15.13362
 30
0.0
 10
-10.53753
 20
-15.13362
 30
0.0
 10
-10.53753
 20
-15.13362
 30
0.0
 10
-10.53753
 20
-15.13362
 30
0.0
 10
-10.5489
 20
-15.13362
 30
0.0
 10
-10.5489
 20
-15.13362
 30
0.0
 10
-10.5489
 20
-15.13362
 30
0.0
 10
-10.55428
 20
-15.13362
 30
0.0
 10
-10.55843
 20
-15.13189
 30
0.0
 10
-10.56138
 20
-15.12844
 30
0.0
 10
-10.56138
 20
-15.12844
 30
0.0
 10
-10.56433
 20
-15.12499
 30
0.0
 10
-10.5658
 20
-15.1201
 30
0.0
 10
-10.5658
 20
-15.1138
 30
0.0
 10
-10.5658
 20
-15.1138
 30
0.0
 10
-10.5658
 20
-15.1138
 30
0.0
 10
-10.5658
 20
-15.06413
 30
0.0
 10
-10.5658
 20
-15.06413
 30
0.0
 10
-10.5658
 20
-15.06413
 30
0.0
 10
-10.5658
 20
-15.06413
 30
0.0
 10
-10.5802
 20
-15.06413
 30
0.0
 10
-10.5802
 20
-15.06413
 30
0.0
 10
-10.5802
 20
-15.06413
 30
0.0
 10
-10.5802
 20
-15.06413
 30
0.0
 10
-10.5802
 20
-15.0571
 30
0.0
 10
-10.5802
 20
-15.0571
 30
0.0
 10
-10.5802
 20
-15.0571
 30
0.0
 10
-10.5802
 20
-15.0571
 30
0.0
 10
-10.55682
 20
-15.0571
 30
0.0
 10
-10.55682
 20
-15.0571
 30
0.0
 10
-10.55682
 20
-15.0571
 30
0.0
 10
-10.55682
 20
-15.0571
 30
0.0
 10
-10.55682
 20
-15.1138
 30
0.0
 10
-10.55682
 20
-15.1138
 30
0.0
  0
SPLINE
  5
84
330
1F
100
AcDbEntity
  8
Layer 1
 62
   250
100
AcDbSpline
210
0.0
220
0.0
230
1.0
 70
    11
 71
     3
 72
    76
 73
    72
 74
     0
 42
0.0000000001
 43
0.0000000001
 40
0.0
 40
0.0
 40
0.0
 40
0.0
 40
0.0555555555555556
 40
0.0555555555555556
 40
0.0555555555555556
 40
0.0555555555555556
 40
0.1111111111111111
 40
0.1111111111111111
 40
0.1111111111111111
 40
0.1111111111111111
 40
0.1666666666666667
 40
0.1666666666666667
 40
0.1666666666666667
 40
0.1666666666666667
 40
0.2222222222222222
 40
0.2222222222222222
 40
0.2222222222222222
 40
0.2222222222222222
 40
0.2777777777777778
 40
0.2777777777777778
 40
0.2777777777777778
 40
0.2777777777777778
 40
0.3333333333333334
 40
0.3333333333333334
 40
0.3333333333333334
 40
0.3333333333333334
 40
0.388888888888889
 40
0.388888888888889
 40
0.388888888888889
 40
0.388888888888889
 40
0.4444444444444445
 40
0.4444444444444445
 40
0.4444444444444445
 40
0.4444444444444445
 40
0.5000000000000001
 40
0.5000000000000001
 40
0.5000000000000001
 40
0.5000000000000001
 40
0.5555555555555557
 40
0.5555555555555557
 40
0.5555555555555557
 40
0.5555555555555557
 40
0.6111111111111113
 40
0.6111111111111113
 40
0.6111111111111113
 40
0.6111111111111113
 40
0.6666666666666669
 40
0.6666666666666669
 40
0.6666666666666669
 40
0.6666666666666669
 40
0.7222222222222224
 40
0.7222222222222224
 40
0.7222222222222224
 40
0.7222222222222224
 40
0.777777777777778
 40
0.777777777777778
 40
0.777777777777778
 40
0.777777777777778
 40
0.8333333333333336
 40
0.8333333333333336
 40
0.8333333333333336
 40
0.8333333333333336
 40
0.8888888888888892
 40
0.8888888888888892
 40
0.8888888888888892
 40
0.8888888888888892
 40
0.9444444444444448
 40
0.9444444444444448
 40
0.9444444444444448
 40
0.9444444444444448
 40
1.0
 40
1.0
 40
1.0
 40
1.0
 10
-10.49782
 20
-15.0634
 30
0.0
 10
-10.49782
 20
-15.0634
 30
0.0
 10
-10.49782
 20
-15.07893
 30
0.0
 10
-10.49782
 20
-15.07893
 30
0.0
 10
-10.49782
 20
-15.07893
 30
0.0
 10
-10.49782
 20
-15.07893
 30
0.0
 10
-10.4774
 20
-15.07893
 30
0.0
 10
-10.4774
 20
-15.07893
 30
0.0
 10
-10.4774
 20
-15.07893
 30
0.0
 10
-10.4774
 20
-15.07893
 30
0.0
 10
-10.4774
 20
-15.08592
 30
0.0
 10
-10.4774
 20
-15.08592
 30
0.0
 10
-10.4774
 20
-15.08592
 30
0.0
 10
-10.4774
 20
-15.08592
 30
0.0
 10
-10.49782
 20
-15.08592
 30
0.0
 10
-10.49782
 20
-15.08592
 30
0.0
 10
-10.49782
 20
-15.08592
 30
0.0
 10
-10.49782
 20
-15.08592
 30
0.0
 10
-10.49782
 20
-15.1156
 30
0.0
 10
-10.49782
 20
-15.1156
 30
0.0
 10
-10.49782
 20
-15.1156
 30
0.0
 10
-10.49782
 20
-15.11964
 30
0.0
 10
-10.49706
 20
-15.12245
 30
0.0
 10
-10.49552
 20
-15.12404
 30
0.0
 10
-10.49552
 20
-15.12404
 30
0.0
 10
-10.49399
 20
-15.12564
 30
0.0
 10
-10.49132
 20
-15.12644
 30
0.0
 10
-10.48752
 20
-15.12644
 30
0.0
 10
-10.48752
 20
-15.12644
 30
0.0
 10
-10.48752
 20
-15.12644
 30
0.0
 10
-10.4774
 20
-15.12644
 30
0.0
 10
-10.4774
 20
-15.12644
 30
0.0
 10
-10.4774
 20
-15.12644
 30
0.0
 10
-10.4774
 20
-15.12644
 30
0.0
 10
-10.4774
 20
-15.13362
 30
0.0
 10
-10.4774
 20
-15.13362
 30
0.0
 10
-10.4774
 20
-15.13362
 30
0.0
 10
-10.4774
 20
-15.13362
 30
0.0
 10
-10.48839
 20
-15.13362
 30
0.0
 10
-10.48839
 20
-15.13362
 30
0.0
 10
-10.48839
 20
-15.13362
 30
0.0
 10
-10.49514
 20
-15.13362
 30
0.0
 10
-10.49989
 20
-15.13227
 30
0.0
 10
-10.50266
 20
-15.12957
 30
0.0
 10
-10.50266
 20
-15.12957
 30
0.0
 10
-10.50542
 20
-15.12687
 30
0.0
 10
-10.50681
 20
-15.1222
 30
0.0
 10
-10.50681
 20
-15.1156
 30
0.0
 10
-10.50681
 20
-15.1156
 30
0.0
 10
-10.50681
 20
-15.1156
 30
0.0
 10
-10.50681
 20
-15.08592
 30
0.0
 10
-10.50681
 20
-15.08592
 30
0.0
 10
-10.50681
 20
-15.08592
 30
0.0
 10
-10.50681
 20
-15.08592
 30
0.0
 10
-10.52141
 20
-15.08592
 30
0.0
 10
-10.52141
 20
-15.08592
 30
0.0
 10
-10.52141
 20
-15.08592
 30
0.0
 10
-10.52141
 20
-15.08592
 30
0.0
 10
-10.52141
 20
-15.07893
 30
0.0
 10
-10.52141
 20
-15.07893
 30
0.0
 10
-10.52141
 20
-15.07893
 30
0.0
 10
-10.52141
 20
-15.07893
 30
0.0
 10
-10.50681
 20
-15.07893
 30
0.0
 10
-10.50681
 20
-15.07893
 30
0.0
 10
-10.50681
 20
-15.07893
 30
0.0
 10
-10.50681
 20
-15.07893
 30
0.0
 10
-10.50681
 20
-15.0634
 30
0.0
 10
-10.50681
 20
-15.0634
 30
0.0
 10
-10.50681
 20
-15.0634
 30
0.0
 10
-10.50681
 20
-15.0634
 30
0.0
 10
-10.49782
 20
-15.0634
 30
0.0
 10
-10.49782
 20
-15.0634
 30
0.0
  0
SPLINE
  5
85
330
1F
100
AcDbEntity
  8
Layer 1
 62
   250
100
AcDbSpline
210
0.0
220
0.0
230
1.0
 70
    11
 71
     3
 72
    20
 73
    16
 74
     0
 42
0.0000000001
 43
0.0000000001
 40
0.0
 40
0.0
 40
0.0
 40
0.0
 40
0.25
 40
0.25
 40
0.25
 40
0.25
 40
0.5
 40
0.5
 40
0.5
 40
0.5
 40
0.75
 40
0.75
 40
0.75
 40
0.75
 40
1.0
 40
1.0
 40
1.0
 40
1.0
 10
-10.42418
 20
-15.06071
 30
0.0
 10
-10.42418
 20
-15.06071
 30
0.0
 10
-10.41489
 20
-15.06071
 30
0.0
 10
-10.41489
 20
-15.06071
 30
0.0
 10
-10.41489
 20
-15.06071
 30
0.0
 10
-10.41489
 20
-15.06071
 30
0.0
 10
-10.45328
 20
-15.1429
 30
0.0
 10
-10.45328
 20
-15.1429
 30
0.0
 10
-10.45328
 20
-15.1429
 30
0.0
 10
-10.45328
 20
-15.1429
 30
0.0
 10
-10.46262
 20
-15.1429
 30
0.0
 10
-10.46262
 20
-15.1429
 30
0.0
 10
-10.46262
 20
-15.1429
 30
0.0
 10
-10.46262
 20
-15.1429
 30
0.0
 10
-10.42418
 20
-15.06071
 30
0.0
 10
-10.42418
 20
-15.06071
 30
0.0
  0
SPLINE
  5
86
330
1F
100
AcDbEntity
  8
Layer 1
 62
   250
100
AcDbSpline
210
0.0
220
0.0
230
1.0
 70
    11
 71
     3
 72
    52
 73
    48
 74
     0
 42
0.0000000001
 43
0.0000000001
 40
0.0
 40
0.0
 40
0.0
 40
0.0
 40
0.0833333333333333
 40
0.0833333333333333
 40
0.0833333333333333
 40
0.0833333333333333
 40
0.1666666666666667
 40
0.1666666666666667
 40
0.1666666666666667
 40
0.1666666666666667
 40
0.25
 40
0.25
 40
0.25
 40
0.25
 40
0.3333333333333333
 40
0.3333333333333333
 40
0.3333333333333333
 40
0.3333333333333333
 40
0.4166666666666666
 40
0.4166666666666666
 40
0.4166666666666666
 40
0.4166666666666666
 40
0.4999999999999999
 40
0.4999999999999999
 40
0.4999999999999999
 40
0.4999999999999999
 40
0.5833333333333333
 40
0.5833333333333333
 40
0.5833333333333333
 40
0.5833333333333333
 40
0.6666666666666666
 40
0.6666666666666666
 40
0.6666666666666666
 40
0.6666666666666666
 40
0.75
 40
0.75
 40
0.75
 40
0.75
 40
0.8333333333333334
 40
0.8333333333333334
 40
0.8333333333333334
 40
0.8333333333333334
 40
0.9166666666666667
 40
0.9166666666666667
 40
0.9166666666666667
 40
0.9166666666666667
 40
1.0
 40
1.0
 40
1.0
 40
1.0
 10
-10.40071
 20
-15.06071
 30
0.0
 10
-10.40071
 20
-15.06071
 30
0.0
 10
-10.3863
 20
-15.06071
 30
0.0
 10
-10.3863
 20
-15.06071
 30
0.0
 10
-10.3863
 20
-15.06071
 30
0.0
 10
-10.3863
 20
-15.06071
 30
0.0
 10
-10.3863
 20
-15.0885
 30
0.0
 10
-10.3863
 20
-15.0885
 30
0.0
 10
-10.3863
 20
-15.0885
 30
0.0
 10
-10.3863
 20
-15.0885
 30
0.0
 10
-10.36827
 20
-15.0885
 30
0.0
 10
-10.36827
 20
-15.0885
 30
0.0
 10
-10.36827
 20
-15.0885
 30
0.0
 10
-10.36827
 20
-15.0885
 30
0.0
 10
-10.36827
 20
-15.06071
 30
0.0
 10
-10.36827
 20
-15.06071
 30
0.0
 10
-10.36827
 20
-15.06071
 30
0.0
 10
-10.36827
 20
-15.06071
 30
0.0
 10
-10.35387
 20
-15.06071
 30
0.0
 10
-10.35387
 20
-15.06071
 30
0.0
 10
-10.35387
 20
-15.06071
 30
0.0
 10
-10.35387
 20
-15.06071
 30
0.0
 10
-10.35387
 20
-15.13362
 30
0.0
 10
-10.35387
 20
-15.13362
 30
0.0
 10
-10.35387
 20
-15.13362
 30
0.0
 10
-10.35387
 20
-15.13362
 30
0.0
 10
-10.36827
 20
-15.13362
 30
0.0
 10
-10.36827
 20
-15.13362
 30
0.0
 10
-10.36827
 20
-15.13362
 30
0.0
 10
-10.36827
 20
-15.13362
 30
0.0
 10
-10.36827
 20
-15.1012
 30
0.0
 10
-10.36827
 20
-15.1012
 30
0.0
 10
-10.36827
 20
-15.1012
 30
0.0
 10
-10.36827
 20
-15.1012
 30
0.0
 10
-10.3863
 20
-15.1012
 30
0.0
 10
-10.3863
 20
-15.1012
 30
0.0
 10
-10.3863
 20
-15.1012
 30
0.0
 10
-10.3863
 20
-15.1012
 30
0.0
 10
-10.3863
 20
-15.13362
 30
0.0
 10
-10.3863
 20
-15.13362
 30
0.0
 10
-10.3863
 20
-15.13362
 30
0.0
 10
-10.3863
 20
-15.13362
 30
0.0
 10
-10.40071
 20
-15.13362
 30
0.0
 10
-10.40071
 20
-15.13362
 30
0.0
 10
-10.40071
 20
-15.13362
 30
0.0
 10
-10.40071
 20
-15.13362
 30
0.0
 10
-10.40071
 20
-15.06071
 30
0.0
 10
-10.40071
 20
-15.06071
 30
0.0
  0
SPLINE
  5
87
330
1F
100
AcDbEntity
  8
Layer 1
 62
   250
100
AcDbSpline
210
0.0
220
0.0
230
1.0
 70
    11
 71
     3
 72
    36
 73
    32
 74
     0
 42
0.0000000001
 43
0.0000000001
 40
0.0
 40
0.0
 40
0.0
 40
0.0
 40
0.125
 40
0.125
 40
0.125
 40
0.125
 40
0.25
 40
0.25
 40
0.25
 40
0.25
 40
0.375
 40
0.375
 40
0.375
 40
0.375
 40
0.5
 40
0.5
 40
0.5
 40
0.5
 40
0.625
 40
0.625
 40
0.625
 40
0.625
 40
0.75
 40
0.75
 40
0.75
 40
0.75
 40
0.875
 40
0.875
 40
0.875
 40
0.875
 40
1.0
 40
1.0
 40
1.0
 40
1.0
 10
-10.32316
 20
-15.09723
 30
0.0
 10
-10.32316
 20
-15.09552
 30
0.0
 10
-10.32258
 20
-15.09407
 30
0.0
 10
-10.32139
 20
-15.0929
 30
0.0
 10
-10.32139
 20
-15.0929
 30
0.0
 10
-10.32023
 20
-15.09172
 30
0.0
 10
-10.31879
 20
-15.09113
 30
0.0
 10
-10.31709
 20
-15.09113
 30
0.0
 10
-10.31709
 20
-15.09113
 30
0.0
 10
-10.31538
 20
-15.09113
 30
0.0
 10
-10.31393
 20
-15.09172
 30
0.0
 10
-10.31276
 20
-15.0929
 30
0.0
 10
-10.31276
 20
-15.0929
 30
0.0
 10
-10.31158
 20
-15.09407
 30
0.0
 10
-10.31099
 20
-15.09552
 30
0.0
 10
-10.31099
 20
-15.09723
 30
0.0
 10
-10.31099
 20
-15.09723
 30
0.0
 10
-10.31099
 20
-15.09893
 30
0.0
 10
-10.31158
 20
-15.10037
 30
0.0
 10
-10.31276
 20
-15.10153
 30
0.0
 10
-10.31276
 20
-15.10153
 30
0.0
 10
-10.31393
 20
-15.10272
 30
0.0
 10
-10.31538
 20
-15.1033
 30
0.0
 10
-10.31709
 20
-15.1033
 30
0.0
 10
-10.31709
 20
-15.1033
 30
0.0
 10
-10.31879
 20
-15.1033
 30
0.0
 10
-10.32023
 20
-15.10272
 30
0.0
 10
-10.32139
 20
-15.10157
 30
0.0
 10
-10.32139
 20
-15.10157
 30
0.0
 10
-10.32258
 20
-15.10042
 30
0.0
 10
-10.32316
 20
-15.09897
 30
0.0
 10
-10.32316
 20
-15.09723
 30
0.0
  0
SPLINE
  5
88
330
1F
100
AcDbEntity
  8
Layer 1
 62
   250
100
AcDbSpline
210
0.0
220
0.0
230
1.0
 70
    11
 71
     3
 72
    36
 73
    32
 74
     0
 42
0.0000000001
 43
0.0000000001
 40
0.0
 40
0.0
 40
0.0
 40
0.0
 40
0.125
 40
0.125
 40
0.125
 40
0.125
 40
0.25
 40
0.25
 40
0.25
 40
0.25
 40
0.375
 40
0.375
 40
0.375
 40
0.375
 40
0.5
 40
0.5
 40
0.5
 40
0.5
 40
0.625
 40
0.625
 40
0.625
 40
0.625
 40
0.75
 40
0.75
 40
0.75
 40
0.75
 40
0.875
 40
0.875
 40
0.875
 40
0.875
 40
1.0
 40
1.0
 40
1.0
 40
1.0
 10
-10.31709
 20
-15.0716
 30
0.0
 10
-10.32043
 20
-15.0716
 30
0.0
 10
-10.32284
 20
-15.07363
 30
0.0
 10
-10.32438
 20
-15.0777
 30
0.0
 10
-10.32438
 20
-15.0777
 30
0.0
 10
-10.32591
 20
-15.08178
 30
0.0
 10
-10.32668
 20
-15.08828
 30
0.0
 10
-10.32668
 20
-15.09723
 30
0.0
 10
-10.32668
 20
-15.09723
 30
0.0
 10
-10.32668
 20
-15.10617
 30
0.0
 10
-10.32591
 20
-15.11265
 30
0.0
 10
-10.32438
 20
-15.11673
 30
0.0
 10
-10.32438
 20
-15.11673
 30
0.0
 10
-10.32284
 20
-15.1208
 30
0.0
 10
-10.32043
 20
-15.12284
 30
0.0
 10
-10.31709
 20
-15.12284
 30
0.0
 10
-10.31709
 20
-15.12284
 30
0.0
 10
-10.31374
 20
-15.12284
 30
0.0
 10
-10.31131
 20
-15.1208
 30
0.0
 10
-10.30978
 20
-15.11673
 30
0.0
 10
-10.30978
 20
-15.11673
 30
0.0
 10
-10.30824
 20
-15.11265
 30
0.0
 10
-10.30748
 20
-15.10617
 30
0.0
 10
-10.30748
 20
-15.09723
 30
0.0
 10
-10.30748
 20
-15.09723
 30
0.0
 10
-10.30748
 20
-15.08828
 30
0.0
 10
-10.30824
 20
-15.08178
 30
0.0
 10
-10.30978
 20
-15.0777
 30
0.0
 10
-10.30978
 20
-15.0777
 30
0.0
 10
-10.31131
 20
-15.07363
 30
0.0
 10
-10.31374
 20
-15.0716
 30
0.0
 10
-10.31709
 20
-15.0716
 30
0.0
  0
SPLINE
  5
89
330
1F
100
AcDbEntity
  8
Layer 1
 62
   250
100
AcDbSpline
210
0.0
220
0.0
230
1.0
 70
    11
 71
     3
 72
    36
 73
    32
 74
     0
 42
0.0000000001
 43
0.0000000001
 40
0.0
 40
0.0
 40
0.0
 40
0.0
 40
0.125
 40
0.125
 40
0.125
 40
0.125
 40
0.25
 40
0.25
 40
0.25
 40
0.25
 40
0.375
 40
0.375
 40
0.375
 40
0.375
 40
0.5
 40
0.5
 40
0.5
 40
0.5
 40
0.625
 40
0.625
 40
0.625
 40
0.625
 40
0.75
 40
0.75
 40
0.75
 40
0.75
 40
0.875
 40
0.875
 40
0.875
 40
0.875
 40
1.0
 40
1.0
 40
1.0
 40
1.0
 10
-10.34118
 20
-15.09723
 30
0.0
 10
-10.34118
 20
-15.08462
 30
0.0
 10
-10.33918
 20
-15.07515
 30
0.0
 10
-10.33518
 20
-15.06885
 30
0.0
 10
-10.33518
 20
-15.06885
 30
0.0
 10
-10.33116
 20
-15.06255
 30
0.0
 10
-10.32514
 20
-15.0594
 30
0.0
 10
-10.31709
 20
-15.0594
 30
0.0
 10
-10.31709
 20
-15.0594
 30
0.0
 10
-10.30903
 20
-15.0594
 30
0.0
 10
-10.30299
 20
-15.06253
 30
0.0
 10
-10.29898
 20
-15.06881
 30
0.0
 10
-10.29898
 20
-15.06881
 30
0.0
 10
-10.29497
 20
-15.0751
 30
0.0
 10
-10.29297
 20
-15.08458
 30
0.0
 10
-10.29297
 20
-15.09723
 30
0.0
 10
-10.29297
 20
-15.09723
 30
0.0
 10
-10.29297
 20
-15.10987
 30
0.0
 10
-10.29497
 20
-15.11934
 30
0.0
 10
-10.29898
 20
-15.12562
 30
0.0
 10
-10.29898
 20
-15.12562
 30
0.0
 10
-10.30299
 20
-15.1319
 30
0.0
 10
-10.30903
 20
-15.13504
 30
0.0
 10
-10.31709
 20
-15.13504
 30
0.0
 10
-10.31709
 20
-15.13504
 30
0.0
 10
-10.32514
 20
-15.13504
 30
0.0
 10
-10.33116
 20
-15.13189
 30
0.0
 10
-10.33518
 20
-15.12559
 30
0.0
 10
-10.33518
 20
-15.12559
 30
0.0
 10
-10.33918
 20
-15.11929
 30
0.0
 10
-10.34118
 20
-15.10983
 30
0.0
 10
-10.34118
 20
-15.09723
 30
0.0
  0
SPLINE
  5
8A
330
1F
100
AcDbEntity
  8
Layer 1
 62
   250
100
AcDbSpline
210
0.0
220
0.0
230
1.0
 70
    11
 71
     3
 72
    88
 73
    84
 74
     0
 42
0.0000000001
 43
0.0000000001
 40
0.0
 40
0.0
 40
0.0
 40
0.0
 40
0.0476190476190476
 40
0.0476190476190476
 40
0.0476190476190476
 40
0.0476190476190476
 40
0.0952380952380952
 40
0.0952380952380952
 40
0.0952380952380952
 40
0.0952380952380952
 40
0.1428571428571428
 40
0.1428571428571428
 40
0.1428571428571428
 40
0.1428571428571428
 40
0.1904761904761905
 40
0.1904761904761905
 40
0.1904761904761905
 40
0.1904761904761905
 40
0.2380952380952381
 40
0.2380952380952381
 40
0.2380952380952381
 40
0.2380952380952381
 40
0.2857142857142857
 40
0.2857142857142857
 40
0.2857142857142857
 40
0.2857142857142857
 40
0.3333333333333333
 40
0.3333333333333333
 40
0.3333333333333333
 40
0.3333333333333333
 40
0.3809523809523809
 40
0.3809523809523809
 40
0.3809523809523809
 40
0.3809523809523809
 40
0.4285714285714285
 40
0.4285714285714285
 40
0.4285714285714285
 40
0.4285714285714285
 40
0.4761904761904762
 40
0.4761904761904762
 40
0.4761904761904762
 40
0.4761904761904762
 40
0.5238095238095237
 40
0.5238095238095237
 40
0.5238095238095237
 40
0.5238095238095237
 40
0.5714285714285714
 40
0.5714285714285714
 40
0.5714285714285714
 40
0.5714285714285714
 40
0.6190476190476191
 40
0.6190476190476191
 40
0.6190476190476191
 40
0.6190476190476191
 40
0.6666666666666667
 40
0.6666666666666667
 40
0.6666666666666667
 40
0.6666666666666667
 40
0.7142857142857144
 40
0.7142857142857144
 40
0.7142857142857144
 40
0.7142857142857144
 40
0.7619047619047621
 40
0.7619047619047621
 40
0.7619047619047621
 40
0.7619047619047621
 40
0.8095238095238098
 40
0.8095238095238098
 40
0.8095238095238098
 40
0.8095238095238098
 40
0.8571428571428574
 40
0.8571428571428574
 40
0.8571428571428574
 40
0.8571428571428574
 40
0.9047619047619051
 40
0.9047619047619051
 40
0.9047619047619051
 40
0.9047619047619051
 40
0.9523809523809528
 40
0.9523809523809528
 40
0.9523809523809528
 40
0.9523809523809528
 40
1.0
 40
1.0
 40
1.0
 40
1.0
 10
-10.26578
 20
-15.12092
 30
0.0
 10
-10.26578
 20
-15.12092
 30
0.0
 10
-10.23506
 20
-15.12092
 30
0.0
 10
-10.23506
 20
-15.12092
 30
0.0
 10
-10.23506
 20
-15.12092
 30
0.0
 10
-10.23506
 20
-15.12092
 30
0.0
 10
-10.23506
 20
-15.13362
 30
0.0
 10
-10.23506
 20
-15.13362
 30
0.0
 10
-10.23506
 20
-15.13362
 30
0.0
 10
-10.23506
 20
-15.13362
 30
0.0
 10
-10.28135
 20
-15.13362
 30
0.0
 10
-10.28135
 20
-15.13362
 30
0.0
 10
-10.28135
 20
-15.13362
 30
0.0
 10
-10.28135
 20
-15.13362
 30
0.0
 10
-10.28135
 20
-15.1213
 30
0.0
 10
-10.28135
 20
-15.1213
 30
0.0
 10
-10.28135
 20
-15.1213
 30
0.0
 10
-10.28135
 20
-15.1213
 30
0.0
 10
-10.27354
 20
-15.11302
 30
0.0
 10
-10.27354
 20
-15.11302
 30
0.0
 10
-10.27354
 20
-15.11302
 30
0.0
 10
-10.26427
 20
-15.10315
 30
0.0
 10
-10.25863
 20
-15.09708
 30
0.0
 10
-10.25665
 20
-15.0948
 30
0.0
 10
-10.25665
 20
-15.0948
 30
0.0
 10
-10.25422
 20
-15.092
 30
0.0
 10
-10.25245
 20
-15.08952
 30
0.0
 10
-10.25138
 20
-15.08735
 30
0.0
 10
-10.25138
 20
-15.08735
 30
0.0
 10
-10.2503
 20
-15.08518
 30
0.0
 10
-10.24977
 20
-15.08305
 30
0.0
 10
-10.24977
 20
-15.08093
 30
0.0
 10
-10.24977
 20
-15.08093
 30
0.0
 10
-10.24977
 20
-15.07768
 30
0.0
 10
-10.25075
 20
-15.07516
 30
0.0
 10
-10.25272
 20
-15.0734
 30
0.0
 10
-10.25272
 20
-15.0734
 30
0.0
 10
-10.25468
 20
-15.07161
 30
0.0
 10
-10.25748
 20
-15.07073
 30
0.0
 10
-10.26108
 20
-15.07073
 30
0.0
 10
-10.26108
 20
-15.07073
 30
0.0
 10
-10.26367
 20
-15.07073
 30
0.0
 10
-10.26655
 20
-15.07125
 30
0.0
 10
-10.26975
 20
-15.07226
 30
0.0
 10
-10.26975
 20
-15.07226
 30
0.0
 10
-10.27297
 20
-15.0733
 30
0.0
 10
-10.2763
 20
-15.07478
 30
0.0
 10
-10.27979
 20
-15.07673
 30
0.0
 10
-10.27979
 20
-15.07673
 30
0.0
 10
-10.27979
 20
-15.07673
 30
0.0
 10
-10.27979
 20
-15.0633
 30
0.0
 10
-10.27979
 20
-15.0633
 30
0.0
 10
-10.27979
 20
-15.0633
 30
0.0
 10
-10.2763
 20
-15.06203
 30
0.0
 10
-10.2729
 20
-15.06106
 30
0.0
 10
-10.26955
 20
-15.0604
 30
0.0
 10
-10.26955
 20
-15.0604
 30
0.0
 10
-10.26622
 20
-15.05973
 30
0.0
 10
-10.26302
 20
-15.0594
 30
0.0
 10
-10.25997
 20
-15.0594
 30
0.0
 10
-10.25997
 20
-15.0594
 30
0.0
 10
-10.25225
 20
-15.0594
 30
0.0
 10
-10.24618
 20
-15.0612
 30
0.0
 10
-10.24178
 20
-15.0648
 30
0.0
 10
-10.24178
 20
-15.0648
 30
0.0
 10
-10.23737
 20
-15.06838
 30
0.0
 10
-10.23516
 20
-15.0733
 30
0.0
 10
-10.23516
 20
-15.07951
 30
0.0
 10
-10.23516
 20
-15.07951
 30
0.0
 10
-10.23516
 20
-15.08238
 30
0.0
 10
-10.23565
 20
-15.08507
 30
0.0
 10
-10.2366
 20
-15.08757
 30
0.0
 10
-10.2366
 20
-15.08757
 30
0.0
 10
-10.23757
 20
-15.09008
 30
0.0
 10
-10.23922
 20
-15.09287
 30
0.0
 10
-10.24157
 20
-15.09592
 30
0.0
 10
-10.24157
 20
-15.09592
 30
0.0
 10
-10.24328
 20
-15.09813
 30
0.0
 10
-10.24802
 20
-15.10312
 30
0.0
 10
-10.25577
 20
-15.11087
 30
0.0
 10
-10.25577
 20
-15.11087
 30
0.0
 10
-10.25997
 20
-15.11505
 30
0.0
 10
-10.2633
 20
-15.11842
 30
0.0
 10
-10.26578
 20
-15.12092
 30
0.0
  0
SPLINE
  5
8B
330
1F
100
AcDbEntity
  8
Layer 1
 62
   250
100
AcDbSpline
210
0.0
220
0.0
230
1.0
 70
    11
 71
     3
 72
    28
 73
    24
 74
     0
 42
0.0000000001
 43
0.0000000001
 40
0.0
 40
0.0
 40
0.0
 40
0.0
 40
0.1666666666666667
 40
0.1666666666666667
 40
0.1666666666666667
 40
0.1666666666666667
 40
0.3333333333333333
 40
0.3333333333333333
 40
0.3333333333333333
 40
0.3333333333333333
 40
0.5
 40
0.5
 40
0.5
 40
0.5
 40
0.6666666666666666
 40
0.6666666666666666
 40
0.6666666666666666
 40
0.6666666666666666
 40
0.8333333333333333
 40
0.8333333333333333
 40
0.8333333333333333
 40
0.8333333333333333
 40
1.0
 40
1.0
 40
1.0
 40
1.0
 10
-10.21578
 20
-15.13362
 30
0.0
 10
-10.21578
 20
-15.13362
 30
0.0
 10
-10.21578
 20
-15.06071
 30
0.0
 10
-10.21578
 20
-15.06071
 30
0.0
 10
-10.21578
 20
-15.06071
 30
0.0
 10
-10.21578
 20
-15.06071
 30
0.0
 10
-10.20137
 20
-15.06071
 30
0.0
 10
-10.20137
 20
-15.06071
 30
0.0
 10
-10.20137
 20
-15.06071
 30
0.0
 10
-10.20137
 20
-15.06071
 30
0.0
 10
-10.20137
 20
-15.12092
 30
0.0
 10
-10.20137
 20
-15.12092
 30
0.0
 10
-10.20137
 20
-15.12092
 30
0.0
 10
-10.20137
 20
-15.12092
 30
0.0
 10
-10.17055
 20
-15.12092
 30
0.0
 10
-10.17055
 20
-15.12092
 30
0.0
 10
-10.17055
 20
-15.12092
 30
0.0
 10
-10.17055
 20
-15.12092
 30
0.0
 10
-10.17055
 20
-15.13362
 30
0.0
 10
-10.17055
 20
-15.13362
 30
0.0
 10
-10.17055
 20
-15.13362
 30
0.0
 10
-10.17055
 20
-15.13362
 30
0.0
 10
-10.21578
 20
-15.13362
 30
0.0
 10
-10.21578
 20
-15.13362
 30
0.0
  0
ENDSEC
  0
SECTION
  2
OBJECTS
  0
DICTIONARY
  5
C
330
0
100
AcDbDictionary
281
     1
  3
ACAD_GROUP
350
D
  3
ACAD_LAYOUT
350
1A
  3
ACAD_MLEADERSTYLE
350
8D
  3
ACAD_MLINESTYLE
350
17
  3
ACAD_PLOTSETTINGS
350
19
  3
ACAD_PLOTSTYLENAME
350
E
  3
ACAD_SCALELIST
350
3B
  3
ACAD_TABLESTYLE
350
8C
  3
ACAD_VISUALSTYLE
350
2A
  0
DICTIONARY
  5
D
102
{ACAD_REACTORS
330
C
102
}
330
C
100
AcDbDictionary
281
     1
  0
DICTIONARY
  5
1A
102
{ACAD_REACTORS
330
C
102
}
330
C
100
AcDbDictionary
281
     1
  3
Layout1
350
1E
  3
Layout2
350
26
  3
Model
350
22
  0
DICTIONARY
  5
8D
102
{ACAD_REACTORS
330
C
102
}
330
C
100
AcDbDictionary
281
     1
  0
DICTIONARY
  5
17
102
{ACAD_REACTORS
330
C
102
}
330
C
100
AcDbDictionary
281
     1
  3
Standard
350
18
  0
DICTIONARY
  5
19
102
{ACAD_REACTORS
330
C
102
}
330
C
100
AcDbDictionary
281
     1
  0
ACDBDICTIONARYWDFLT
  5
E
102
{ACAD_REACTORS
330
C
102
}
330
C
100
AcDbDictionary
281
     1
  3
Normal
350
F
100
AcDbDictionaryWithDefault
340
F
  0
DICTIONARY
  5
3B
102
{ACAD_REACTORS
330
C
102
}
330
C
100
AcDbDictionary
281
     1
  3
A0
350
3C
  3
A1
350
3D
  3
A2
350
3E
  3
A3
350
3F
  3
A4
350
40
  3
A5
350
41
  3
A6
350
42
  3
A7
350
43
  3
A8
350
44
  3
A9
350
45
  3
B0
350
46
  3
B1
350
47
  3
B2
350
48
  3
B3
350
49
  3
B4
350
4A
  3
B5
350
4B
  3
B6
350
4C
  3
B7
350
4D
  3
B8
350
4E
  3
B9
350
4F
  3
C0
350
50
  3
C1
350
51
  3
C2
350
52
  3
C3
350
53
  3
C4
350
54
  3
C5
350
55
  3
C6
350
56
  3
C7
350
57
  3
C8
350
58
  3
C9
350
59
  3
D0
350
5A
  3
D1
350
5B
  3
D2
350
5C
  0
DICTIONARY
  5
8C
102
{ACAD_REACTORS
330
C
102
}
330
C
100
AcDbDictionary
281
     1
  0
DICTIONARY
  5
2A
102
{ACAD_REACTORS
330
C
102
}
330
C
100
AcDbDictionary
281
     1
  3
2dWireframe
350
2F
  3
3D Hidden
350
31
  3
3dWireframe
350
30
  3
Basic
350
32
  3
Brighten
350
36
  3
ColorChange
350
3A
  3
Conceptual
350
34
  3
Dim
350
35
  3
Facepattern
350
39
  3
Flat
350
2B
  3
FlatWithEdges
350
2C
  3
Gouraud
350
2D
  3
GouraudWithEdges
350
2E
  3
Linepattern
350
38
  3
Realistic
350
33
  3
Thicken
350
37
  0
LAYOUT
  5
1E
102
{ACAD_REACTORS
330
1A
102
}
330
1A
100
AcDbPlotSettings
  1

  2
none_device
  4

  6

 40
0.0
 41
0.0
 42
0.0
 43
0.0
 44
0.0
 45
0.0
 46
0.0
 47
0.0
 48
0.0
 49
0.0
140
0.0
141
0.0
142
1.0
143
1.0
 70
   688
 72
     0
 73
     0
 74
     5
  7

 75
    16
 76
     0
 77
     2
 78
   300
147
1.0
148
0.0
149
0.0
100
AcDbLayout
  1
Layout1
 70
     1
 71
     1
 10
0.0
 20
0.0
 11
12.0
 21
9.0
 12
0.0
 22
0.0
 32
0.0
 14
1.000000000000000E+20
 24
1.000000000000000E+20
 34
1.000000000000000E+20
 15
-1.000000000000000E+20
 25
-1.000000000000000E+20
 35
-1.000000000000000E+20
146
0.0
 13
0.0
 23
0.0
 33
0.0
 16
1.0
 26
0.0
 36
0.0
 17
0.0
 27
1.0
 37
0.0
 76
     0
330
1B
  0
LAYOUT
  5
26
102
{ACAD_REACTORS
330
1A
102
}
330
1A
100
AcDbPlotSettings
  1

  2
none_device
  4

  6

 40
0.0
 41
0.0
 42
0.0
 43
0.0
 44
0.0
 45
0.0
 46
0.0
 47
0.0
 48
0.0
 49
0.0
140
0.0
141
0.0
142
1.0
143
1.0
 70
   688
 72
     0
 73
     0
 74
     5
  7

 75
    16
 76
     0
 77
     2
 78
   300
147
1.0
148
0.0
149
0.0
100
AcDbLayout
  1
Layout2
 70
     1
 71
     2
 10
0.0
 20
0.0
 11
0.0
 21
0.0
 12
0.0
 22
0.0
 32
0.0
 14
0.0
 24
0.0
 34
0.0
 15
0.0
 25
0.0
 35
0.0
146
0.0
 13
0.0
 23
0.0
 33
0.0
 16
1.0
 26
0.0
 36
0.0
 17
0.0
 27
1.0
 37
0.0
 76
     0
330
23
  0
LAYOUT
  5
22
102
{ACAD_REACTORS
330
1A
102
}
330
1A
100
AcDbPlotSettings
  1

  2
none_device
  4

  6

 40
0.0
 41
0.0
 42
0.0
 43
0.0
 44
0.0
 45
0.0
 46
0.0
 47
0.0
 48
0.0
 49
0.0
140
0.0
141
0.0
142
1.0
143
1.0
 70
  1712
 72
     0
 73
     0
 74
     0
  7

 75
     0
 76
     0
 77
     2
 78
   300
147
1.0
148
0.0
149
0.0
100
AcDbLayout
  1
Model
 70
     1
 71
     0
 10
0.0
 20
0.0
 11
12.0
 21
9.0
 12
0.0
 22
0.0
 32
0.0
 14
-11.5
 24
-15.1429
 34
0.0
 15
-9.5
 25
-13.8
 35
0.0
146
0.0
 13
0.0
 23
0.0
 33
0.0
 16
1.0
 26
0.0
 36
0.0
 17
0.0
 27
1.0
 37
0.0
 76
     0
330
1F
331
29
  0
MLINESTYLE
  5
18
102
{ACAD_REACTORS
330
17
102
}
330
17
100
AcDbMlineStyle
  2
Standard
 70
     0
  3

 62
   256
 51
90.0
 52
90.0
 71
     2
 49
0.5
 62
   256
  6
BYLAYER
 49
-0.5
 62
   256
  6
BYLAYER
  0
ACDBPLACEHOLDER
  5
F
102
{ACAD_REACTORS
330
E
102
}
330
E
  0
SCALE
  5
3C
102
{ACAD_REACTORS
330
3B
102
}
330
3B
100
AcDbScale
 70
     0
300
1:1
140
1.0
141
1.0
290
     1
  0
SCALE
  5
3D
102
{ACAD_REACTORS
330
3B
102
}
330
3B
100
AcDbScale
 70
     0
300
1:2
140
1.0
141
2.0
290
     0
  0
SCALE
  5
3E
102
{ACAD_REACTORS
330
3B
102
}
330
3B
100
AcDbScale
 70
     0
300
1:4
140
1.0
141
4.0
290
     0
  0
SCALE
  5
3F
102
{ACAD_REACTORS
330
3B
102
}
330
3B
100
AcDbScale
 70
     0
300
1:5
140
1.0
141
5.0
290
     0
  0
SCALE
  5
40
102
{ACAD_REACTORS
330
3B
102
}
330
3B
100
AcDbScale
 70
     0
300
1:8
140
1.0
141
8.0
290
     0
  0
SCALE
  5
41
102
{ACAD_REACTORS
330
3B
102
}
330
3B
100
AcDbScale
 70
     0
300
1:10
140
1.0
141
10.0
290
     0
  0
SCALE
  5
42
102
{ACAD_REACTORS
330
3B
102
}
330
3B
100
AcDbScale
 70
     0
300
1:16
140
1.0
141
16.0
290
     0
  0
SCALE
  5
43
102
{ACAD_REACTORS
330
3B
102
}
330
3B
100
AcDbScale
 70
     0
300
1:20
140
1.0
141
20.0
290
     0
  0
SCALE
  5
44
102
{ACAD_REACTORS
330
3B
102
}
330
3B
100
AcDbScale
 70
     0
300
1:30
140
1.0
141
30.0
290
     0
  0
SCALE
  5
45
102
{ACAD_REACTORS
330
3B
102
}
330
3B
100
AcDbScale
 70
     0
300
1:40
140
1.0
141
40.0
290
     0
  0
SCALE
  5
46
102
{ACAD_REACTORS
330
3B
102
}
330
3B
100
AcDbScale
 70
     0
300
1:50
140
1.0
141
50.0
290
     0
  0
SCALE
  5
47
102
{ACAD_REACTORS
330
3B
102
}
330
3B
100
AcDbScale
 70
     0
300
1:100
140
1.0
141
100.0
290
     0
  0
SCALE
  5
48
102
{ACAD_REACTORS
330
3B
102
}
330
3B
100
AcDbScale
 70
     0
300
2:1
140
2.0
141
1.0
290
     0
  0
SCALE
  5
49
102
{ACAD_REACTORS
330
3B
102
}
330
3B
100
AcDbScale
 70
     0
300
4:1
140
4.0
141
1.0
290
     0
  0
SCALE
  5
4A
102
{ACAD_REACTORS
330
3B
102
}
330
3B
100
AcDbScale
 70
     0
300
8:1
140
8.0
141
1.0
290
     0
  0
SCALE
  5
4B
102
{ACAD_REACTORS
330
3B
102
}
330
3B
100
AcDbScale
 70
     0
300
10:1
140
10.0
141
1.0
290
     0
  0
SCALE
  5
4C
102
{ACAD_REACTORS
330
3B
102
}
330
3B
100
AcDbScale
 70
     0
300
100:1
140
100.0
141
1.0
290
     0
  0
SCALE
  5
4D
102
{ACAD_REACTORS
330
3B
102
}
330
3B
100
AcDbScale
 70
     0
300
1/128" = 1'-0"
140
0.0078125
141
12.0
290
     0
  0
SCALE
  5
4E
102
{ACAD_REACTORS
330
3B
102
}
330
3B
100
AcDbScale
 70
     0
300
1/64" = 1'-0"
140
0.015625
141
12.0
290
     0
  0
SCALE
  5
4F
102
{ACAD_REACTORS
330
3B
102
}
330
3B
100
AcDbScale
 70
     0
300
1/32" = 1'-0"
140
0.03125
141
12.0
290
     0
  0
SCALE
  5
50
102
{ACAD_REACTORS
330
3B
102
}
330
3B
100
AcDbScale
 70
     0
300
1/16" = 1'-0"
140
0.0625
141
12.0
290
     0
  0
SCALE
  5
51
102
{ACAD_REACTORS
330
3B
102
}
330
3B
100
AcDbScale
 70
     0
300
3/32" = 1'-0"
140
0.09375
141
12.0
290
     0
  0
SCALE
  5
52
102
{ACAD_REACTORS
330
3B
102
}
330
3B
100
AcDbScale
 70
     0
300
1/8" = 1'-0"
140
0.125
141
12.0
290
     0
  0
SCALE
  5
53
102
{ACAD_REACTORS
330
3B
102
}
330
3B
100
AcDbScale
 70
     0
300
3/16" = 1'-0"
140
0.1875
141
12.0
290
     0
  0
SCALE
  5
54
102
{ACAD_REACTORS
330
3B
102
}
330
3B
100
AcDbScale
 70
     0
300
1/4" = 1'-0"
140
0.25
141
12.0
290
     0
  0
SCALE
  5
55
102
{ACAD_REACTORS
330
3B
102
}
330
3B
100
AcDbScale
 70
     0
300
3/8" = 1'-0"
140
0.375
141
12.0
290
     0
  0
SCALE
  5
56
102
{ACAD_REACTORS
330
3B
102
}
330
3B
100
AcDbScale
 70
     0
300
1/2" = 1'-0"
140
0.5
141
12.0
290
     0
  0
SCALE
  5
57
102
{ACAD_REACTORS
330
3B
102
}
330
3B
100
AcDbScale
 70
     0
300
3/4" = 1'-0"
140
0.75
141
12.0
290
     0
  0
SCALE
  5
58
102
{ACAD_REACTORS
330
3B
102
}
330
3B
100
AcDbScale
 70
     0
300
1" = 1'-0"
140
1.0
141
12.0
290
     0
  0
SCALE
  5
59
102
{ACAD_REACTORS
330
3B
102
}
330
3B
100
AcDbScale
 70
     0
300
1-1/2" = 1'-0"
140
1.5
141
12.0
290
     0
  0
SCALE
  5
5A
102
{ACAD_REACTORS
330
3B
102
}
330
3B
100
AcDbScale
 70
     0
300
3" = 1'-0"
140
3.0
141
12.0
290
     0
  0
SCALE
  5
5B
102
{ACAD_REACTORS
330
3B
102
}
330
3B
100
AcDbScale
 70
     0
300
6" = 1'-0"
140
6.0
141
12.0
290
     0
  0
SCALE
  5
5C
102
{ACAD_REACTORS
330
3B
102
}
330
3B
100
AcDbScale
 70
     0
300
1'-0" = 1'-0"
140
12.0
141
12.0
290
     0
  0
VISUALSTYLE
  5
2F
102
{ACAD_REACTORS
330
2A
102
}
330
2A
100
AcDbVisualStyle
  2
2dWireframe
 70
     4
 71
     0
 72
     2
 73
     0
 90
        0
 40
-0.6
 41
-30.0
 62
     5
 63
     7
421
 16777215
 74
     1
 91
        4
 64
     7
 65
   257
 75
     1
175
     1
 42
1.0
 92
        0
 66
   257
 43
1.0
 76
     1
 77
     6
 78
     2
 67
     7
 79
     5
170
     0
171
     0
290
     0
174
     0
 93
        1
 44
0.0
173
     0
291
     0
 45
0.0
  0
VISUALSTYLE
  5
31
102
{ACAD_REACTORS
330
2A
102
}
330
2A
100
AcDbVisualStyle
  2
3D Hidden
 70
     6
 71
     1
 72
     2
 73
     2
 90
        0
 40
-0.6
 41
-30.0
 62
     5
 63
     7
421
 16777215
 74
     2
 91
        2
 64
     7
 65
   257
 75
     2
175
     1
 42
40.0
 92
        0
 66
   257
 43
1.0
 76
     1
 77
     6
 78
     2
 67
     7
 79
     3
170
     0
171
     0
290
     0
174
     0
 93
        1
 44
0.0
173
     0
291
     0
 45
0.0
  0
VISUALSTYLE
  5
30
102
{ACAD_REACTORS
330
2A
102
}
330
2A
100
AcDbVisualStyle
  2
3dWireframe
 70
     5
 71
     0
 72
     2
 73
     0
 90
        0
 40
-0.6
 41
-30.0
 62
     5
 63
     7
421
 16777215
 74
     1
 91
        4
 64
     7
 65
   257
 75
     1
175
     1
 42
1.0
 92
        0
 66
   257
 43
1.0
 76
     1
 77
     6
 78
     2
 67
     7
 79
     5
170
     0
171
     0
290
     0
174
     0
 93
        1
 44
0.0
173
     0
291
     0
 45
0.0
  0
VISUALSTYLE
  5
32
102
{ACAD_REACTORS
330
2A
102
}
330
2A
100
AcDbVisualStyle
  2
Basic
 70
     7
 71
     1
 72
     0
 73
     1
 90
        0
 40
-0.6
 41
-30.0
 62
     5
 63
     7
421
 16777215
 74
     0
 91
        4
 64
     7
 65
   257
 75
     1
175
     1
 42
1.0
 92
        8
 66
     7
 43
1.0
 76
     1
 77
     6
 78
     2
 67
     7
 79
     5
170
     0
171
     0
290
     0
174
     0
 93
        1
 44
0.0
173
     0
291
     1
 45
0.0
  0
VISUALSTYLE
  5
36
102
{ACAD_REACTORS
330
2A
102
}
330
2A
100
AcDbVisualStyle
  2
Brighten
 70
    12
 71
     2
 72
     2
 73
     0
 90
        0
 40
-0.6
 41
-30.0
 62
     5
 63
     7
421
 16777215
 74
     1
 91
        4
 64
     7
 65
   257
 75
     1
175
     1
 42
1.0
 92
        8
 66
     7
 43
1.0
 76
     1
 77
     6
 78
     2
 67
     7
 79
     5
170
     0
171
     0
290
     0
174
     0
 93
        1
 44
50.0
173
     0
291
     1
 45
0.0
  0
VISUALSTYLE
  5
3A
102
{ACAD_REACTORS
330
2A
102
}
330
2A
100
AcDbVisualStyle
  2
ColorChange
 70
    16
 71
     2
 72
     2
 73
     3
 90
        0
 40
-0.6
 41
-30.0
 62
     5
 63
     8
421
  8421504
 74
     1
 91
        4
 64
     7
 65
   257
 75
     1
175
     1
 42
1.0
 92
        8
 66
     8
424
  8421504
 43
1.0
 76
     1
 77
     6
 78
     2
 67
     7
 79
     5
170
     0
171
     0
290
     0
174
     0
 93
        1
 44
0.0
173
     0
291
     1
 45
0.0
  0
VISUALSTYLE
  5
34
102
{ACAD_REACTORS
330
2A
102
}
330
2A
100
AcDbVisualStyle
  2
Conceptual
 70
     9
 71
     3
 72
     2
 73
     0
 90
        0
 40
-0.6
 41
-30.0
 62
     5
 63
     7
421
 16777215
 74
     2
 91
        2
 64
     7
 65
   257
 75
     1
175
     1
 42
40.0
 92
        8
 66
     7
 43
1.0
 76
     1
 77
     6
 78
     2
 67
     7
 79
     3
170
     0
171
     0
290
     0
174
     0
 93
        1
 44
0.0
173
     0
291
     0
 45
0.0
  0
VISUALSTYLE
  5
35
102
{ACAD_REACTORS
330
2A
102
}
330
2A
100
AcDbVisualStyle
  2
Dim
 70
    11
 71
     2
 72
     2
 73
     0
 90
        0
 40
-0.6
 41
-30.0
 62
     5
 63
     7
421
 16777215
 74
     1
 91
        4
 64
     7
 65
   257
 75
     1
175
     1
 42
1.0
 92
        8
 66
     7
 43
1.0
 76
     1
 77
     6
 78
     2
 67
     7
 79
     5
170
     0
171
     0
290
     0
174
     0
 93
        1
 44
-50.0
173
     0
291
     1
 45
0.0
  0
VISUALSTYLE
  5
39
102
{ACAD_REACTORS
330
2A
102
}
330
2A
100
AcDbVisualStyle
  2
Facepattern
 70
    15
 71
     2
 72
     2
 73
     0
 90
        0
 40
-0.6
 41
-30.0
 62
     5
 63
     7
421
 16777215
 74
     1
 91
        4
 64
     7
 65
   257
 75
     1
175
     1
 42
1.0
 92
        8
 66
     7
 43
1.0
 76
     1
 77
     6
 78
     2
 67
     7
 79
     5
170
     0
171
     0
290
     0
174
     0
 93
        1
 44
0.0
173
     0
291
     1
 45
0.0
  0
VISUALSTYLE
  5
2B
102
{ACAD_REACTORS
330
2A
102
}
330
2A
100
AcDbVisualStyle
  2
Flat
 70
     0
 71
     2
 72
     1
 73
     1
 90
        2
 40
-0.6
 41
30.0
 62
     5
 63
     7
421
 16777215
 74
     0
 91
        4
 64
     7
 65
   257
 75
     1
175
     1
 42
1.0
 92
        8
 66
     7
 43
1.0
 76
     1
 77
     6
 78
     2
 67
     7
 79
     5
170
     0
171
     0
290
     0
174
     0
 93
       13
 44
0.0
173
     0
291
     1
 45
0.0
  0
VISUALSTYLE
  5
2C
102
{ACAD_REACTORS
330
2A
102
}
330
2A
100
AcDbVisualStyle
  2
FlatWithEdges
 70
     1
 71
     2
 72
     1
 73
     1
 90
        2
 40
-0.6
 41
30.0
 62
     5
 63
     7
421
 16777215
 74
     1
 91
        4
 64
     7
 65
   257
 75
     1
175
     1
 42
1.0
 92
        0
 66
   257
 43
1.0
 76
     1
 77
     6
 78
     2
 67
     7
 79
     5
170
     0
171
     0
290
     0
174
     0
 93
       13
 44
0.0
173
     0
291
     1
 45
0.0
  0
VISUALSTYLE
  5
2D
102
{ACAD_REACTORS
330
2A
102
}
330
2A
100
AcDbVisualStyle
  2
Gouraud
 70
     2
 71
     2
 72
     2
 73
     1
 90
        2
 40
-0.6
 41
30.0
 62
     5
 63
     7
421
 16777215
 74
     0
 91
        4
 64
     7
 65
   257
 75
     1
175
     1
 42
1.0
 92
        0
 66
     7
 43
1.0
 76
     1
 77
     6
 78
     2
 67
     7
 79
     5
170
     0
171
     0
290
     0
174
     0
 93
       13
 44
0.0
173
     0
291
     1
 45
0.0
  0
VISUALSTYLE
  5
2E
102
{ACAD_REACTORS
330
2A
102
}
330
2A
100
AcDbVisualStyle
  2
GouraudWithEdges
 70
     3
 71
     2
 72
     2
 73
     1
 90
        2
 40
-0.6
 41
30.0
 62
     5
 63
     7
421
 16777215
 74
     1
 91
        4
 64
     7
 65
   257
 75
     1
175
     1
 42
1.0
 92
        0
 66
   257
 43
1.0
 76
     1
 77
     6
 78
     2
 67
     7
 79
     5
170
     0
171
     0
290
     0
174
     0
 93
       13
 44
0.0
173
     0
291
     1
 45
0.0
  0
VISUALSTYLE
  5
38
102
{ACAD_REACTORS
330
2A
102
}
330
2A
100
AcDbVisualStyle
  2
Linepattern
 70
    14
 71
     2
 72
     2
 73
     0
 90
        0
 40
-0.6
 41
-30.0
 62
     5
 63
     7
421
 16777215
 74
     1
 91
        4
 64
     7
 65
   257
 75
     7
175
     7
 42
1.0
 92
        8
 66
     7
 43
1.0
 76
     1
 77
     6
 78
     2
 67
     7
 79
     5
170
     0
171
     0
290
     0
174
     0
 93
        1
 44
0.0
173
     0
291
     1
 45
0.0
  0
VISUALSTYLE
  5
33
102
{ACAD_REACTORS
330
2A
102
}
330
2A
100
AcDbVisualStyle
  2
Realistic
 70
     8
 71
     2
 72
     2
 73
     0
 90
        0
 40
-0.6
 41
-30.0
 62
     5
 63
     7
421
 16777215
 74
     1
 91
        0
 64
     7
 65
   257
 75
     1
175
     1
 42
1.0
 92
        8
 66
     8
424
  7895160
 43
1.0
 76
     1
 77
     6
 78
     2
 67
     7
 79
     5
170
     0
171
     0
290
     0
174
     0
 93
       13
 44
0.0
173
     0
291
     0
 45
0.0
  0
VISUALSTYLE
  5
37
102
{ACAD_REACTORS
330
2A
102
}
330
2A
100
AcDbVisualStyle
  2
Thicken
 70
    13
 71
     2
 72
     2
 73
     0
 90
        0
 40
-0.6
 41
-30.0
 62
     5
 63
     7
421
 16777215
 74
     1
 91
        4
 64
     7
 65
   257
 75
     1
175
     1
 42
1.0
 92
       12
 66
     7
 43
1.0
 76
     1
 77
     6
 78
     2
 67
     7
 79
     5
170
     0
171
     0
290
     0
174
     0
 93
        1
 44
0.0
173
     0
291
     1
 45
0.0
  0
ENDSEC
  0
EOF
