  0
SECTION
  2
HEADER
  9
$ACADVER
  1
AC1021
  9
$ACADMAINTVER
 70
    25
  9
$DWGCODEPAGE
  3
ANSI_1252
  9
$INSBASE
 10
0.0
 20
0.0
 30
0.0
  9
$EXTMIN
 10
-11.7
 20
-16.05
 30
0.0
  9
$EXTMAX
 10
-9.3
 20
-13.65
 30
0.0
  9
$LIMMIN
 10
0.0
 20
0.0
  9
$LIMMAX
 10
12.0
 20
9.0
  9
$ORTHOMODE
 70
     0
  9
$REGENMODE
 70
     1
  9
$FILLMODE
 70
     1
  9
$QTEXTMODE
 70
     0
  9
$MIRRTEXT
 70
     1
  9
$LTSCALE
 40
1.0
  9
$ATTMODE
 70
     1
  9
$TEXTSIZE
 40
0.2
  9
$TRACEWID
 40
0.05
  9
$TEXTSTYLE
  7
Standard
  9
$CLAYER
  8
0
  9
$CELTYPE
  6
ByLayer
  9
$CECOLOR
 62
   256
  9
$CELTSCALE
 40
1.0
  9
$DISPSILH
 70
     0
  9
$DIMSCALE
 40
1.0
  9
$DIMASZ
 40
0.18
  9
$DIMEXO
 40
0.0625
  9
$DIMDLI
 40
0.38
  9
$DIMRND
 40
0.0
  9
$DIMDLE
 40
0.0
  9
$DIMEXE
 40
0.18
  9
$DIMTP
 40
0.0
  9
$DIMTM
 40
0.0
  9
$DIMTXT
 40
0.18
  9
$DIMCEN
 40
0.09
  9
$DIMTSZ
 40
0.0
  9
$DIMTOL
 70
     0
  9
$DIMLIM
 70
     0
  9
$DIMTIH
 70
     1
  9
$DIMTOH
 70
     1
  9
$DIMSE1
 70
     0
  9
$DIMSE2
 70
     0
  9
$DIMTAD
 70
     0
  9
$DIMZIN
 70
     0
  9
$DIMBLK
  1

  9
$DIMASO
 70
     1
  9
$DIMSHO
 70
     1
  9
$DIMPOST
  1

  9
$DIMAPOST
  1

  9
$DIMALT
 70
     0
  9
$DIMALTD
 70
     2
  9
$DIMALTF
 40
25.4
  9
$DIMLFAC
 40
1.0
  9
$DIMTOFL
 70
     0
  9
$DIMTVP
 40
0.0
  9
$DIMTIX
 70
     0
  9
$DIMSOXD
 70
     0
  9
$DIMSAH
 70
     0
  9
$DIMBLK1
  1

  9
$DIMBLK2
  1

  9
$DIMSTYLE
  2
Standard
  9
$DIMCLRD
 70
     0
  9
$DIMCLRE
 70
     0
  9
$DIMCLRT
 70
     0
  9
$DIMTFAC
 40
1.0
  9
$DIMGAP
 40
0.09
  9
$DIMJUST
 70
     0
  9
$DIMSD1
 70
     0
  9
$DIMSD2
 70
     0
  9
$DIMTOLJ
 70
     1
  9
$DIMTZIN
 70
     0
  9
$DIMALTZ
 70
     0
  9
$DIMALTTZ
 70
     0
  9
$DIMUPT
 70
     0
  9
$DIMDEC
 70
     4
  9
$DIMTDEC
 70
     4
  9
$DIMALTU
 70
     2
  9
$DIMALTTD
 70
     2
  9
$DIMTXSTY
  7
Standard
  9
$DIMAUNIT
 70
     0
  9
$DIMADEC
 70
     0
  9
$DIMALTRND
 40
0.0
  9
$DIMAZIN
 70
     0
  9
$DIMDSEP
 70
    46
  9
$DIMATFIT
 70
     3
  9
$DIMFRAC
 70
     0
  9
$DIMLDRBLK
  1

  9
$DIMLUNIT
 70
     2
  9
$DIMLWD
 70
    -2
  9
$DIMLWE
 70
    -2
  9
$DIMTMOVE
 70
     0
  9
$DIMFXL
 40
1.0
  9
$DIMFXLON
 70
     0
  9
$DIMJOGANG
 40
0.7853981633974483
  9
$DIMTFILL
 70
     0
  9
$DIMTFILLCLR
 70
     0
  9
$DIMARCSYM
 70
     0
  9
$DIMLTYPE
  6

  9
$DIMLTEX1
  6

  9
$DIMLTEX2
  6

  9
$LUNITS
 70
     2
  9
$LUPREC
 70
     4
  9
$SKETCHINC
 40
0.1
  9
$FILLETRAD
 40
0.5
  9
$AUNITS
 70
     0
  9
$AUPREC
 70
     0
  9
$MENU
  1
.
  9
$ELEVATION
 40
0.0
  9
$PELEVATION
 40
0.0
  9
$THICKNESS
 40
0.0
  9
$LIMCHECK
 70
     0
  9
$CHAMFERA
 40
0.5
  9
$CHAMFERB
 40
0.5
  9
$CHAMFERC
 40
1.0
  9
$CHAMFERD
 40
0.0
  9
$SKPOLY
 70
     0
  9
$TDCREATE
 40
2458675.129589919
  9
$TDUCREATE
 40
2458675.087923252
  9
$TDUPDATE
 40
2458675.129589931
  9
$TDUUPDATE
 40
2458675.087923264
  9
$TDINDWG
 40
0.0000000116
  9
$TDUSRTIMER
 40
0.0000000116
  9
$USRTIMER
 70
     1
  9
$ANGBASE
 50
0.0
  9
$ANGDIR
 70
     0
  9
$PDMODE
 70
     0
  9
$PDSIZE
 40
0.0
  9
$PLINEWID
 40
0.0
  9
$SPLFRAME
 70
     0
  9
$SPLINETYPE
 70
     6
  9
$SPLINESEGS
 70
     8
  9
$HANDSEED
  5
8E
  9
$SURFTAB1
 70
     6
  9
$SURFTAB2
 70
     6
  9
$SURFTYPE
 70
     6
  9
$SURFU
 70
     6
  9
$SURFV
 70
     6
  9
$UCSBASE
  2

  9
$UCSNAME
  2

  9
$UCSORG
 10
0.0
 20
0.0
 30
0.0
  9
$UCSXDIR
 10
1.0
 20
0.0
 30
0.0
  9
$UCSYDIR
 10
0.0
 20
1.0
 30
0.0
  9
$UCSORTHOREF
  2

  9
$UCSORTHOVIEW
 70
     0
  9
$UCSORGTOP
 10
0.0
 20
0.0
 30
0.0
  9
$UCSORGBOTTOM
 10
0.0
 20
0.0
 30
0.0
  9
$UCSORGLEFT
 10
0.0
 20
0.0
 30
0.0
  9
$UCSORGRIGHT
 10
0.0
 20
0.0
 30
0.0
  9
$UCSORGFRONT
 10
0.0
 20
0.0
 30
0.0
  9
$UCSORGBACK
 10
0.0
 20
0.0
 30
0.0
  9
$PUCSBASE
  2

  9
$PUCSNAME
  2

  9
$PUCSORG
 10
0.0
 20
0.0
 30
0.0
  9
$PUCSXDIR
 10
1.0
 20
0.0
 30
0.0
  9
$PUCSYDIR
 10
0.0
 20
1.0
 30
0.0
  9
$PUCSORTHOREF
  2

  9
$PUCSORTHOVIEW
 70
     0
  9
$PUCSORGTOP
 10
0.0
 20
0.0
 30
0.0
  9
$PUCSORGBOTTOM
 10
0.0
 20
0.0
 30
0.0
  9
$PUCSORGLEFT
 10
0.0
 20
0.0
 30
0.0
  9
$PUCSORGRIGHT
 10
0.0
 20
0.0
 30
0.0
  9
$PUCSORGFRONT
 10
0.0
 20
0.0
 30
0.0
  9
$PUCSORGBACK
 10
0.0
 20
0.0
 30
0.0
  9
$USERI1
 70
     0
  9
$USERI2
 70
     0
  9
$USERI3
 70
     0
  9
$USERI4
 70
     0
  9
$USERI5
 70
     0
  9
$USERR1
 40
0.0
  9
$USERR2
 40
0.0
  9
$USERR3
 40
0.0
  9
$USERR4
 40
0.0
  9
$USERR5
 40
0.0
  9
$WORLDVIEW
 70
     1
  9
$SHADEDGE
 70
     3
  9
$SHADEDIF
 70
    70
  9
$TILEMODE
 70
     1
  9
$MAXACTVP
 70
    64
  9
$PINSBASE
 10
0.0
 20
0.0
 30
0.0
  9
$PLIMCHECK
 70
     0
  9
$PEXTMIN
 10
1.000000000000000E+20
 20
1.000000000000000E+20
 30
1.000000000000000E+20
  9
$PEXTMAX
 10
-1.000000000000000E+20
 20
-1.000000000000000E+20
 30
-1.000000000000000E+20
  9
$PLIMMIN
 10
0.0
 20
0.0
  9
$PLIMMAX
 10
12.0
 20
9.0
  9
$UNITMODE
 70
     0
  9
$VISRETAIN
 70
     1
  9
$PLINEGEN
 70
     0
  9
$PSLTSCALE
 70
     1
  9
$TREEDEPTH
 70
  3020
  9
$CMLSTYLE
  2
Standard
  9
$CMLJUST
 70
     0
  9
$CMLSCALE
 40
1.0
  9
$PROXYGRAPHICS
 70
     1
  9
$MEASUREMENT
 70
     0
  9
$CELWEIGHT
370
    -1
  9
$ENDCAPS
280
     0
  9
$JOINSTYLE
280
     0
  9
$LWDISPLAY
290
     0
  9
$INSUNITS
 70
     5
  9
$HYPERLINKBASE
  1

  9
$STYLESHEET
  1

  9
$XEDIT
290
     1
  9
$CEPSNTYPE
380
     0
  9
$PSTYLEMODE
290
     1
  9
$FINGERPRINTGUID
  2
{F3A692F5-D455-4E3E-B9EF-AC60958127D0}
  9
$VERSIONGUID
  2
{FAEB1C32-E019-11D5-929B-00C0DF256EC4}
  9
$EXTNAMES
290
     1
  9
$PSVPSCALE
 40
0.0
  9
$OLESTARTUP
290
     0
  9
$SORTENTS
280
   127
  9
$INDEXCTL
280
     0
  9
$HIDETEXT
280
     1
  9
$XCLIPFRAME
290
     0
  9
$HALOGAP
280
     0
  9
$OBSCOLOR
 70
   257
  9
$OBSLTYPE
280
     0
  9
$INTERSECTIONDISPLAY
280
     0
  9
$INTERSECTIONCOLOR
 70
   257
  9
$DIMASSOC
280
     2
  9
$PROJECTNAME
  1

  9
$CAMERADISPLAY
290
     0
  9
$LENSLENGTH
 40
50.0
  9
$CAMERAHEIGHT
 40
0.0
  9
$STEPSPERSEC
 40
2.0
  9
$STEPSIZE
 40
6.0
  9
$3DDWFPREC
 40
2.0
  9
$PSOLWIDTH
 40
0.25
  9
$PSOLHEIGHT
 40
4.0
  9
$LOFTANG1
 40
1.570796326794897
  9
$LOFTANG2
 40
1.570796326794897
  9
$LOFTMAG1
 40
0.0
  9
$LOFTMAG2
 40
0.0
  9
$LOFTPARAM
 70
     7
  9
$LOFTNORMALS
280
     1
  9
$LATITUDE
 40
37.795
  9
$LONGITUDE
 40
-122.394
  9
$NORTHDIRECTION
 40
0.0
  9
$TIMEZONE
 70
 -8000
  9
$LIGHTGLYPHDISPLAY
280
     1
  9
$TILEMODELIGHTSYNCH
280
     1
  9
$SOLIDHIST
280
     1
  9
$SHOWHIST
280
     1
  9
$DWFFRAME
280
     2
  9
$DGNFRAME
280
     2
  9
$REALWORLDSCALE
290
     1
  9
$INTERFERECOLOR
 62
   256
  9
$CSHADOW
280
     0
  9
$SHADOWPLANELOCATION
 40
0.0
  0
ENDSEC
  0
SECTION
  2
CLASSES
  0
CLASS
  1
ACDBDICTIONARYWDFLT
  2
AcDbDictionaryWithDefault
  3
ObjectDBX Classes
 90
        0
 91
        3
280
     0
281
     0
  0
CLASS
  1
VISUALSTYLE
  2
AcDbVisualStyle
  3
ObjectDBX Classes
 90
     4095
 91
        3
280
     0
281
     0
  0
CLASS
  1
SCALE
  2
AcDbScale
  3
ObjectDBX Classes
 90
     1153
 91
        3
280
     0
281
     0
  0
ENDSEC
  0
SECTION
  2
TABLES
  0
TABLE
  2
VPORT
  5
8
330
0
100
AcDbSymbolTable
 70
     1
  0
VPORT
  5
29
330
8
100
AcDbSymbolTableRecord
100
AcDbViewportTableRecord
  2
*Active
 70
     0
 10
0.0
 20
0.0
 11
1.0
 21
1.0
 12
10.42990654205607
 22
4.5
 13
0.0
 23
0.0
 14
0.5
 24
0.5
 15
0.5
 25
0.5
 16
0.0
 26
0.0
 36
1.0
 17
0.0
 27
0.0
 37
0.0
 40
9.0
 41
1.972972972850329
 42
50.0
 43
0.0
 44
0.0
 50
0.0
 51
0.0
 71
     0
 72
   100
 73
     1
 74
     3
 75
     0
 76
     0
 77
     0
 78
     0
281
     0
 65
     1
110
0.0
120
0.0
130
0.0
111
1.0
121
0.0
131
0.0
112
0.0
122
1.0
132
0.0
 79
     0
146
0.0
 60
     3
 61
     5
292
     1
282
     1
141
0.0
142
0.0
 63
   256
  0
ENDTAB
  0
TABLE
  2
LTYPE
  5
5
330
0
100
AcDbSymbolTable
 70
     1
  0
LTYPE
  5
14
330
5
100
AcDbSymbolTableRecord
100
AcDbLinetypeTableRecord
  2
ByBlock
 70
     0
  3

 72
    65
 73
     0
 40
0.0
  0
LTYPE
  5
15
330
5
100
AcDbSymbolTableRecord
100
AcDbLinetypeTableRecord
  2
ByLayer
 70
     0
  3

 72
    65
 73
     0
 40
0.0
  0
LTYPE
  5
16
330
5
100
AcDbSymbolTableRecord
100
AcDbLinetypeTableRecord
  2
Continuous
 70
     0
  3
Solid line
 72
    65
 73
     0
 40
0.0
  0
ENDTAB
  0
TABLE
  2
LAYER
  5
2
330
0
100
AcDbSymbolTable
 70
     2
  0
LAYER
  5
10
330
2
100
AcDbSymbolTableRecord
100
AcDbLayerTableRecord
  2
0
 70
     0
 62
     7
  6
Continuous
370
    -3
390
F
347
0
  0
LAYER
  5
5E
330
2
100
AcDbSymbolTableRecord
100
AcDbLayerTableRecord
  2
Layer 1
 70
     0
 62
     7
  6
Continuous
370
    -3
390
F
347
0
  0
ENDTAB
  0
TABLE
  2
STYLE
  5
3
330
0
100
AcDbSymbolTable
 70
     1
  0
STYLE
  5
11
330
3
100
AcDbSymbolTableRecord
100
AcDbTextStyleTableRecord
  2
Standard
 70
     0
 40
0.0
 41
1.0
 50
0.0
 71
     0
 42
0.2
  3
txt
  4

  0
ENDTAB
  0
TABLE
  2
VIEW
  5
6
330
0
100
AcDbSymbolTable
 70
     0
  0
ENDTAB
  0
TABLE
  2
UCS
  5
7
330
0
100
AcDbSymbolTable
 70
     0
  0
ENDTAB
  0
TABLE
  2
APPID
  5
9
330
0
100
AcDbSymbolTable
 70
     2
  0
APPID
  5
12
330
9
100
AcDbSymbolTableRecord
100
AcDbRegAppTableRecord
  2
ACAD
 70
     0
  0
APPID
  5
5D
330
9
100
AcDbSymbolTableRecord
100
AcDbRegAppTableRecord
  2
ODA
 70
     0
  0
ENDTAB
  0
TABLE
  2
DIMSTYLE
  5
A
330
0
100
AcDbSymbolTable
 70
     1
100
AcDbDimStyleTable
  0
DIMSTYLE
105
27
330
A
100
AcDbSymbolTableRecord
100
AcDbDimStyleTableRecord
  2
Standard
 70
     0
340
11
  0
ENDTAB
  0
TABLE
  2
BLOCK_RECORD
  5
1
330
0
100
AcDbSymbolTable
 70
     1
  0
BLOCK_RECORD
  5
1F
330
1
100
AcDbSymbolTableRecord
100
AcDbBlockTableRecord
  2
*Model_Space
340
22
 70
     0
280
     1
281
     0
  0
BLOCK_RECORD
  5
1B
330
1
100
AcDbSymbolTableRecord
100
AcDbBlockTableRecord
  2
*Paper_Space
340
1E
 70
     0
280
     1
281
     0
  0
BLOCK_RECORD
  5
23
330
1
100
AcDbSymbolTableRecord
100
AcDbBlockTableRecord
  2
*Paper_Space0
340
26
 70
     0
280
     1
281
     0
  0
ENDTAB
  0
ENDSEC
  0
SECTION
  2
BLOCKS
  0
BLOCK
  5
20
330
1F
100
AcDbEntity
  8
0
100
AcDbBlockBegin
  2
*Model_Space
 70
     0
 10
0.0
 20
0.0
 30
0.0
  3
*Model_Space
  1

  0
ENDBLK
  5
21
330
1F
100
AcDbEntity
  8
0
100
AcDbBlockEnd
  0
BLOCK
  5
1C
330
1B
100
AcDbEntity
 67
     1
  8
0
100
AcDbBlockBegin
  2
*Paper_Space
 70
     0
 10
0.0
 20
0.0
 30
0.0
  3
*Paper_Space
  1

  0
ENDBLK
  5
1D
330
1B
100
AcDbEntity
 67
     1
  8
0
100
AcDbBlockEnd
  0
BLOCK
  5
24
330
23
100
AcDbEntity
  8
0
100
AcDbBlockBegin
  2
*Paper_Space0
 70
     0
 10
0.0
 20
0.0
 30
0.0
  3
*Paper_Space0
  1

  0
ENDBLK
  5
25
330
23
100
AcDbEntity
  8
0
100
AcDbBlockEnd
  0
ENDSEC
  0
SECTION
  2
ENTITIES
  0
LWPOLYLINE
  5
5F
330
1F
100
AcDbEntity
  8
Layer 1
 62
     7
100
AcDbPolyline
 90
        5
 70
     1
 43
0.0
 10
-11.7
 20
-16.05
 10
-9.3
 20
-16.05
 10
-9.3
 20
-13.65
 10
-11.7
 20
-13.65
 10
-11.7
 20
-16.05
  0
LWPOLYLINE
  5
60
330
1F
100
AcDbEntity
  8
Layer 1
 62
     7
370
    20
100
AcDbPolyline
 90
        5
 70
     1
 43
0.0
 10
-10.754
 20
-15.35555
 10
-10.246
 20
-15.35555
 10
-10.246
 20
-15.10155
 10
-10.754
 20
-15.10155
 10
-10.754
 20
-15.35555
  0
LWPOLYLINE
  5
61
330
1F
100
AcDbEntity
  8
Layer 1
 62
     7
370
    20
100
AcDbPolyline
 90
        5
 70
     1
 43
0.0
 10
-10.405
 20
-15.26055
 10
-10.341
 20
-15.26055
 10
-10.341
 20
-15.19655
 10
-10.405
 20
-15.19655
 10
-10.405
 20
-15.26055
  0
LWPOLYLINE
  5
62
330
1F
100
AcDbEntity
  8
Layer 1
 62
     7
370
    20
100
AcDbPolyline
 90
        5
 70
     1
 43
0.0
 10
-10.659
 20
-15.26055
 10
-10.595
 20
-15.26055
 10
-10.595
 20
-15.19655
 10
-10.659
 20
-15.19655
 10
-10.659
 20
-15.26055
  0
SPLINE
  5
63
330
1F
100
AcDbEntity
  8
Layer 1
 62
   250
100
AcDbSpline
210
0.0
220
0.0
230
1.0
 70
    11
 71
     3
 72
    80
 73
    76
 74
     0
 42
0.0000000001
 43
0.0000000001
 40
0.0
 40
0.0
 40
0.0
 40
0.0
 40
0.0526315789473684
 40
0.0526315789473684
 40
0.0526315789473684
 40
0.0526315789473684
 40
0.1052631578947368
 40
0.1052631578947368
 40
0.1052631578947368
 40
0.1052631578947368
 40
0.1578947368421053
 40
0.1578947368421053
 40
0.1578947368421053
 40
0.1578947368421053
 40
0.2105263157894737
 40
0.2105263157894737
 40
0.2105263157894737
 40
0.2105263157894737
 40
0.2631578947368421
 40
0.2631578947368421
 40
0.2631578947368421
 40
0.2631578947368421
 40
0.3157894736842105
 40
0.3157894736842105
 40
0.3157894736842105
 40
0.3157894736842105
 40
0.3684210526315789
 40
0.3684210526315789
 40
0.3684210526315789
 40
0.3684210526315789
 40
0.4210526315789473
 40
0.4210526315789473
 40
0.4210526315789473
 40
0.4210526315789473
 40
0.4736842105263158
 40
0.4736842105263158
 40
0.4736842105263158
 40
0.4736842105263158
 40
0.5263157894736842
 40
0.5263157894736842
 40
0.5263157894736842
 40
0.5263157894736842
 40
0.5789473684210527
 40
0.5789473684210527
 40
0.5789473684210527
 40
0.5789473684210527
 40
0.631578947368421
 40
0.631578947368421
 40
0.631578947368421
 40
0.631578947368421
 40
0.6842105263157894
 40
0.6842105263157894
 40
0.6842105263157894
 40
0.6842105263157894
 40
0.7368421052631577
 40
0.7368421052631577
 40
0.7368421052631577
 40
0.7368421052631577
 40
0.7894736842105261
 40
0.7894736842105261
 40
0.7894736842105261
 40
0.7894736842105261
 40
0.8421052631578945
 40
0.8421052631578945
 40
0.8421052631578945
 40
0.8421052631578945
 40
0.8947368421052628
 40
0.8947368421052628
 40
0.8947368421052628
 40
0.8947368421052628
 40
0.9473684210526312
 40
0.9473684210526312
 40
0.9473684210526312
 40
0.9473684210526312
 40
1.0
 40
1.0
 40
1.0
 40
1.0
 10
-10.80503
 20
-14.46152
 30
0.0
 10
-10.80503
 20
-14.46152
 30
0.0
 10
-10.75975
 20
-14.46152
 30
0.0
 10
-10.75975
 20
-14.46152
 30
0.0
 10
-10.75975
 20
-14.46152
 30
0.0
 10
-10.75975
 20
-14.46152
 30
0.0
 10
-10.75975
 20
-14.48102
 30
0.0
 10
-10.75975
 20
-14.48102
 30
0.0
 10
-10.75975
 20
-14.48102
 30
0.0
 10
-10.75975
 20
-14.48102
 30
0.0
 10
-10.83452
 20
-14.48102
 30
0.0
 10
-10.83452
 20
-14.48102
 30
0.0
 10
-10.83452
 20
-14.48102
 30
0.0
 10
-10.83452
 20
-14.48102
 30
0.0
 10
-10.83452
 20
-14.46152
 30
0.0
 10
-10.83452
 20
-14.46152
 30
0.0
 10
-10.83452
 20
-14.46152
 30
0.0
 10
-10.83452
 20
-14.46152
 30
0.0
 10
-10.79696
 20
-14.42839
 30
0.0
 10
-10.79696
 20
-14.42839
 30
0.0
 10
-10.79696
 20
-14.42839
 30
0.0
 10
-10.7936
 20
-14.42535
 30
0.0
 10
-10.79113
 20
-14.42239
 30
0.0
 10
-10.78953
 20
-14.4195
 30
0.0
 10
-10.78953
 20
-14.4195
 30
0.0
 10
-10.78791
 20
-14.4166
 30
0.0
 10
-10.78711
 20
-14.41359
 30
0.0
 10
-10.78711
 20
-14.41046
 30
0.0
 10
-10.78711
 20
-14.41046
 30
0.0
 10
-10.78711
 20
-14.40564
 30
0.0
 10
-10.78873
 20
-14.40176
 30
0.0
 10
-10.79197
 20
-14.39882
 30
0.0
 10
-10.79197
 20
-14.39882
 30
0.0
 10
-10.7952
 20
-14.39588
 30
0.0
 10
-10.7995
 20
-14.39443
 30
0.0
 10
-10.80489
 20
-14.39443
 30
0.0
 10
-10.80489
 20
-14.39443
 30
0.0
 10
-10.80902
 20
-14.39443
 30
0.0
 10
-10.81354
 20
-14.39532
 30
0.0
 10
-10.81846
 20
-14.39708
 30
0.0
 10
-10.81846
 20
-14.39708
 30
0.0
 10
-10.82337
 20
-14.39885
 30
0.0
 10
-10.82864
 20
-14.40148
 30
0.0
 10
-10.83424
 20
-14.40496
 30
0.0
 10
-10.83424
 20
-14.40496
 30
0.0
 10
-10.83424
 20
-14.40496
 30
0.0
 10
-10.83424
 20
-14.38236
 30
0.0
 10
-10.83424
 20
-14.38236
 30
0.0
 10
-10.83424
 20
-14.38236
 30
0.0
 10
-10.82826
 20
-14.38039
 30
0.0
 10
-10.82236
 20
-14.37888
 30
0.0
 10
-10.81653
 20
-14.37785
 30
0.0
 10
-10.81653
 20
-14.37785
 30
0.0
 10
-10.81069
 20
-14.37681
 30
0.0
 10
-10.80498
 20
-14.37629
 30
0.0
 10
-10.79936
 20
-14.37629
 30
0.0
 10
-10.79936
 20
-14.37629
 30
0.0
 10
-10.78706
 20
-14.37629
 30
0.0
 10
-10.77749
 20
-14.379
 30
0.0
 10
-10.77067
 20
-14.38443
 30
0.0
 10
-10.77067
 20
-14.38443
 30
0.0
 10
-10.76385
 20
-14.38984
 30
0.0
 10
-10.76044
 20
-14.39739
 30
0.0
 10
-10.76044
 20
-14.4071
 30
0.0
 10
-10.76044
 20
-14.4071
 30
0.0
 10
-10.76044
 20
-14.4127
 30
0.0
 10
-10.76189
 20
-14.41792
 30
0.0
 10
-10.76479
 20
-14.42277
 30
0.0
 10
-10.76479
 20
-14.42277
 30
0.0
 10
-10.76768
 20
-14.42761
 30
0.0
 10
-10.77377
 20
-14.4341
 30
0.0
 10
-10.78304
 20
-14.44224
 30
0.0
 10
-10.78304
 20
-14.44224
 30
0.0
 10
-10.78304
 20
-14.44224
 30
0.0
 10
-10.80503
 20
-14.46152
 30
0.0
 10
-10.80503
 20
-14.46152
 30
0.0
  0
SPLINE
  5
64
330
1F
100
AcDbEntity
  8
Layer 1
 62
   250
100
AcDbSpline
210
0.0
220
0.0
230
1.0
 70
    11
 71
     3
 72
    20
 73
    16
 74
     0
 42
0.0000000001
 43
0.0000000001
 40
0.0
 40
0.0
 40
0.0
 40
0.0
 40
0.25
 40
0.25
 40
0.25
 40
0.25
 40
0.5
 40
0.5
 40
0.5
 40
0.5
 40
0.75
 40
0.75
 40
0.75
 40
0.75
 40
1.0
 40
1.0
 40
1.0
 40
1.0
 10
-10.73311
 20
-14.45435
 30
0.0
 10
-10.73311
 20
-14.45435
 30
0.0
 10
-10.70829
 20
-14.45435
 30
0.0
 10
-10.70829
 20
-14.45435
 30
0.0
 10
-10.70829
 20
-14.45435
 30
0.0
 10
-10.70829
 20
-14.45435
 30
0.0
 10
-10.70829
 20
-14.48102
 30
0.0
 10
-10.70829
 20
-14.48102
 30
0.0
 10
-10.70829
 20
-14.48102
 30
0.0
 10
-10.70829
 20
-14.48102
 30
0.0
 10
-10.73311
 20
-14.48102
 30
0.0
 10
-10.73311
 20
-14.48102
 30
0.0
 10
-10.73311
 20
-14.48102
 30
0.0
 10
-10.73311
 20
-14.48102
 30
0.0
 10
-10.73311
 20
-14.45435
 30
0.0
 10
-10.73311
 20
-14.45435
 30
0.0
  0
SPLINE
  5
65
330
1F
100
AcDbEntity
  8
Layer 1
 62
   250
100
AcDbSpline
210
0.0
220
0.0
230
1.0
 70
    11
 71
     3
 72
    92
 73
    88
 74
     0
 42
0.0000000001
 43
0.0000000001
 40
0.0
 40
0.0
 40
0.0
 40
0.0
 40
0.0454545454545455
 40
0.0454545454545455
 40
0.0454545454545455
 40
0.0454545454545455
 40
0.0909090909090909
 40
0.0909090909090909
 40
0.0909090909090909
 40
0.0909090909090909
 40
0.1363636363636364
 40
0.1363636363636364
 40
0.1363636363636364
 40
0.1363636363636364
 40
0.1818181818181818
 40
0.1818181818181818
 40
0.1818181818181818
 40
0.1818181818181818
 40
0.2272727272727273
 40
0.2272727272727273
 40
0.2272727272727273
 40
0.2272727272727273
 40
0.2727272727272728
 40
0.2727272727272728
 40
0.2727272727272728
 40
0.2727272727272728
 40
0.3181818181818182
 40
0.3181818181818182
 40
0.3181818181818182
 40
0.3181818181818182
 40
0.3636363636363637
 40
0.3636363636363637
 40
0.3636363636363637
 40
0.3636363636363637
 40
0.4090909090909092
 40
0.4090909090909092
 40
0.4090909090909092
 40
0.4090909090909092
 40
0.4545454545454546
 40
0.4545454545454546
 40
0.4545454545454546
 40
0.4545454545454546
 40
0.5000000000000001
 40
0.5000000000000001
 40
0.5000000000000001
 40
0.5000000000000001
 40
0.5454545454545455
 40
0.5454545454545455
 40
0.5454545454545455
 40
0.5454545454545455
 40
0.5909090909090909
 40
0.5909090909090909
 40
0.5909090909090909
 40
0.5909090909090909
 40
0.6363636363636364
 40
0.6363636363636364
 40
0.6363636363636364
 40
0.6363636363636364
 40
0.6818181818181818
 40
0.6818181818181818
 40
0.6818181818181818
 40
0.6818181818181818
 40
0.7272727272727272
 40
0.7272727272727272
 40
0.7272727272727272
 40
0.7272727272727272
 40
0.7727272727272726
 40
0.7727272727272726
 40
0.7727272727272726
 40
0.7727272727272726
 40
0.818181818181818
 40
0.818181818181818
 40
0.818181818181818
 40
0.818181818181818
 40
0.8636363636363634
 40
0.8636363636363634
 40
0.8636363636363634
 40
0.8636363636363634
 40
0.9090909090909088
 40
0.9090909090909088
 40
0.9090909090909088
 40
0.9090909090909088
 40
0.9545454545454543
 40
0.9545454545454543
 40
0.9545454545454543
 40
0.9545454545454543
 40
1.0
 40
1.0
 40
1.0
 40
1.0
 10
-10.67894
 20
-14.37815
 30
0.0
 10
-10.67894
 20
-14.37815
 30
0.0
 10
-10.613
 20
-14.37815
 30
0.0
 10
-10.613
 20
-14.37815
 30
0.0
 10
-10.613
 20
-14.37815
 30
0.0
 10
-10.613
 20
-14.37815
 30
0.0
 10
-10.613
 20
-14.39765
 30
0.0
 10
-10.613
 20
-14.39765
 30
0.0
 10
-10.613
 20
-14.39765
 30
0.0
 10
-10.613
 20
-14.39765
 30
0.0
 10
-10.6578
 20
-14.39765
 30
0.0
 10
-10.6578
 20
-14.39765
 30
0.0
 10
-10.6578
 20
-14.39765
 30
0.0
 10
-10.6578
 20
-14.39765
 30
0.0
 10
-10.6578
 20
-14.41357
 30
0.0
 10
-10.6578
 20
-14.41357
 30
0.0
 10
-10.6578
 20
-14.41357
 30
0.0
 10
-10.65578
 20
-14.41303
 30
0.0
 10
-10.65375
 20
-14.41261
 30
0.0
 10
-10.65171
 20
-14.4123
 30
0.0
 10
-10.65171
 20
-14.4123
 30
0.0
 10
-10.64966
 20
-14.41199
 30
0.0
 10
-10.64752
 20
-14.41185
 30
0.0
 10
-10.64533
 20
-14.41185
 30
0.0
 10
-10.64533
 20
-14.41185
 30
0.0
 10
-10.63278
 20
-14.41185
 30
0.0
 10
-10.62302
 20
-14.41498
 30
0.0
 10
-10.61603
 20
-14.42126
 30
0.0
 10
-10.61603
 20
-14.42126
 30
0.0
 10
-10.60905
 20
-14.42752
 30
0.0
 10
-10.60557
 20
-14.43626
 30
0.0
 10
-10.60557
 20
-14.44746
 30
0.0
 10
-10.60557
 20
-14.44746
 30
0.0
 10
-10.60557
 20
-14.45858
 30
0.0
 10
-10.60938
 20
-14.46729
 30
0.0
 10
-10.61697
 20
-14.47359
 30
0.0
 10
-10.61697
 20
-14.47359
 30
0.0
 10
-10.62457
 20
-14.47987
 30
0.0
 10
-10.63513
 20
-14.48302
 30
0.0
 10
-10.64863
 20
-14.48302
 30
0.0
 10
-10.64863
 20
-14.48302
 30
0.0
 10
-10.65446
 20
-14.48302
 30
0.0
 10
-10.66025
 20
-14.48245
 30
0.0
 10
-10.66596
 20
-14.48133
 30
0.0
 10
-10.66596
 20
-14.48133
 30
0.0
 10
-10.67168
 20
-14.4802
 30
0.0
 10
-10.67737
 20
-14.4785
 30
0.0
 10
-10.68301
 20
-14.4762
 30
0.0
 10
-10.68301
 20
-14.4762
 30
0.0
 10
-10.68301
 20
-14.4762
 30
0.0
 10
-10.68301
 20
-14.45531
 30
0.0
 10
-10.68301
 20
-14.45531
 30
0.0
 10
-10.68301
 20
-14.45531
 30
0.0
 10
-10.67741
 20
-14.45854
 30
0.0
 10
-10.6721
 20
-14.46094
 30
0.0
 10
-10.66707
 20
-14.46253
 30
0.0
 10
-10.66707
 20
-14.46253
 30
0.0
 10
-10.66203
 20
-14.46416
 30
0.0
 10
-10.65728
 20
-14.46496
 30
0.0
 10
-10.65284
 20
-14.46496
 30
0.0
 10
-10.65284
 20
-14.46496
 30
0.0
 10
-10.64639
 20
-14.46496
 30
0.0
 10
-10.64134
 20
-14.46338
 30
0.0
 10
-10.63764
 20
-14.46023
 30
0.0
 10
-10.63764
 20
-14.46023
 30
0.0
 10
-10.63395
 20
-14.4571
 30
0.0
 10
-10.63209
 20
-14.45285
 30
0.0
 10
-10.63209
 20
-14.44746
 30
0.0
 10
-10.63209
 20
-14.44746
 30
0.0
 10
-10.63209
 20
-14.44205
 30
0.0
 10
-10.63395
 20
-14.43779
 30
0.0
 10
-10.63764
 20
-14.43467
 30
0.0
 10
-10.63764
 20
-14.43467
 30
0.0
 10
-10.64134
 20
-14.43154
 30
0.0
 10
-10.64639
 20
-14.42999
 30
0.0
 10
-10.65284
 20
-14.42999
 30
0.0
 10
-10.65284
 20
-14.42999
 30
0.0
 10
-10.65665
 20
-14.42999
 30
0.0
 10
-10.66072
 20
-14.43048
 30
0.0
 10
-10.66502
 20
-14.43147
 30
0.0
 10
-10.66502
 20
-14.43147
 30
0.0
 10
-10.66935
 20
-14.43245
 30
0.0
 10
-10.67398
 20
-14.43398
 30
0.0
 10
-10.67894
 20
-14.43605
 30
0.0
 10
-10.67894
 20
-14.43605
 30
0.0
 10
-10.67894
 20
-14.43605
 30
0.0
 10
-10.67894
 20
-14.37815
 30
0.0
 10
-10.67894
 20
-14.37815
 30
0.0
  0
SPLINE
  5
66
330
1F
100
AcDbEntity
  8
Layer 1
 62
   250
100
AcDbSpline
210
0.0
220
0.0
230
1.0
 70
    11
 71
     3
 72
    16
 73
    12
 74
     0
 42
0.0000000001
 43
0.0000000001
 40
0.0
 40
0.0
 40
0.0
 40
0.0
 40
0.3333333333333333
 40
0.3333333333333333
 40
0.3333333333333333
 40
0.3333333333333333
 40
0.6666666666666666
 40
0.6666666666666666
 40
0.6666666666666666
 40
0.6666666666666666
 40
1.0
 40
1.0
 40
1.0
 40
1.0
 10
-10.54373
 20
-14.4
 30
0.0
 10
-10.54373
 20
-14.4
 30
0.0
 10
-10.57283
 20
-14.44306
 30
0.0
 10
-10.57283
 20
-14.44306
 30
0.0
 10
-10.57283
 20
-14.44306
 30
0.0
 10
-10.57283
 20
-14.44306
 30
0.0
 10
-10.54373
 20
-14.44306
 30
0.0
 10
-10.54373
 20
-14.44306
 30
0.0
 10
-10.54373
 20
-14.44306
 30
0.0
 10
-10.54373
 20
-14.44306
 30
0.0
 10
-10.54373
 20
-14.4
 30
0.0
 10
-10.54373
 20
-14.4
 30
0.0
  0
SPLINE
  5
67
330
1F
100
AcDbEntity
  8
Layer 1
 62
   250
100
AcDbSpline
210
0.0
220
0.0
230
1.0
 70
    11
 71
     3
 72
    48
 73
    44
 74
     0
 42
0.0000000001
 43
0.0000000001
 40
0.0
 40
0.0
 40
0.0
 40
0.0
 40
0.0909090909090909
 40
0.0909090909090909
 40
0.0909090909090909
 40
0.0909090909090909
 40
0.1818181818181818
 40
0.1818181818181818
 40
0.1818181818181818
 40
0.1818181818181818
 40
0.2727272727272727
 40
0.2727272727272727
 40
0.2727272727272727
 40
0.2727272727272727
 40
0.3636363636363636
 40
0.3636363636363636
 40
0.3636363636363636
 40
0.3636363636363636
 40
0.4545454545454546
 40
0.4545454545454546
 40
0.4545454545454546
 40
0.4545454545454546
 40
0.5454545454545455
 40
0.5454545454545455
 40
0.5454545454545455
 40
0.5454545454545455
 40
0.6363636363636365
 40
0.6363636363636365
 40
0.6363636363636365
 40
0.6363636363636365
 40
0.7272727272727274
 40
0.7272727272727274
 40
0.7272727272727274
 40
0.7272727272727274
 40
0.8181818181818183
 40
0.8181818181818183
 40
0.8181818181818183
 40
0.8181818181818183
 40
0.9090909090909093
 40
0.9090909090909093
 40
0.9090909090909093
 40
0.9090909090909093
 40
1.0
 40
1.0
 40
1.0
 40
1.0
 10
-10.54816
 20
-14.37815
 30
0.0
 10
-10.54816
 20
-14.37815
 30
0.0
 10
-10.51866
 20
-14.37815
 30
0.0
 10
-10.51866
 20
-14.37815
 30
0.0
 10
-10.51866
 20
-14.37815
 30
0.0
 10
-10.51866
 20
-14.37815
 30
0.0
 10
-10.51866
 20
-14.44306
 30
0.0
 10
-10.51866
 20
-14.44306
 30
0.0
 10
-10.51866
 20
-14.44306
 30
0.0
 10
-10.51866
 20
-14.44306
 30
0.0
 10
-10.50399
 20
-14.44306
 30
0.0
 10
-10.50399
 20
-14.44306
 30
0.0
 10
-10.50399
 20
-14.44306
 30
0.0
 10
-10.50399
 20
-14.44306
 30
0.0
 10
-10.50399
 20
-14.46228
 30
0.0
 10
-10.50399
 20
-14.46228
 30
0.0
 10
-10.50399
 20
-14.46228
 30
0.0
 10
-10.50399
 20
-14.46228
 30
0.0
 10
-10.51866
 20
-14.46228
 30
0.0
 10
-10.51866
 20
-14.46228
 30
0.0
 10
-10.51866
 20
-14.46228
 30
0.0
 10
-10.51866
 20
-14.46228
 30
0.0
 10
-10.51866
 20
-14.48102
 30
0.0
 10
-10.51866
 20
-14.48102
 30
0.0
 10
-10.51866
 20
-14.48102
 30
0.0
 10
-10.51866
 20
-14.48102
 30
0.0
 10
-10.54373
 20
-14.48102
 30
0.0
 10
-10.54373
 20
-14.48102
 30
0.0
 10
-10.54373
 20
-14.48102
 30
0.0
 10
-10.54373
 20
-14.48102
 30
0.0
 10
-10.54373
 20
-14.46228
 30
0.0
 10
-10.54373
 20
-14.46228
 30
0.0
 10
-10.54373
 20
-14.46228
 30
0.0
 10
-10.54373
 20
-14.46228
 30
0.0
 10
-10.58936
 20
-14.46228
 30
0.0
 10
-10.58936
 20
-14.46228
 30
0.0
 10
-10.58936
 20
-14.46228
 30
0.0
 10
-10.58936
 20
-14.46228
 30
0.0
 10
-10.58936
 20
-14.43953
 30
0.0
 10
-10.58936
 20
-14.43953
 30
0.0
 10
-10.58936
 20
-14.43953
 30
0.0
 10
-10.58936
 20
-14.43953
 30
0.0
 10
-10.54816
 20
-14.37815
 30
0.0
 10
-10.54816
 20
-14.37815
 30
0.0
  0
SPLINE
  5
68
330
1F
100
AcDbEntity
  8
Layer 1
 62
   250
100
AcDbSpline
210
0.0
220
0.0
230
1.0
 70
    11
 71
     3
 72
   120
 73
   116
 74
     0
 42
0.0000000001
 43
0.0000000001
 40
0.0
 40
0.0
 40
0.0
 40
0.0
 40
0.0344827586206897
 40
0.0344827586206897
 40
0.0344827586206897
 40
0.0344827586206897
 40
0.0689655172413793
 40
0.0689655172413793
 40
0.0689655172413793
 40
0.0689655172413793
 40
0.103448275862069
 40
0.103448275862069
 40
0.103448275862069
 40
0.103448275862069
 40
0.1379310344827586
 40
0.1379310344827586
 40
0.1379310344827586
 40
0.1379310344827586
 40
0.1724137931034483
 40
0.1724137931034483
 40
0.1724137931034483
 40
0.1724137931034483
 40
0.206896551724138
 40
0.206896551724138
 40
0.206896551724138
 40
0.206896551724138
 40
0.2413793103448276
 40
0.2413793103448276
 40
0.2413793103448276
 40
0.2413793103448276
 40
0.2758620689655173
 40
0.2758620689655173
 40
0.2758620689655173
 40
0.2758620689655173
 40
0.310344827586207
 40
0.310344827586207
 40
0.310344827586207
 40
0.310344827586207
 40
0.3448275862068966
 40
0.3448275862068966
 40
0.3448275862068966
 40
0.3448275862068966
 40
0.3793103448275863
 40
0.3793103448275863
 40
0.3793103448275863
 40
0.3793103448275863
 40
0.413793103448276
 40
0.413793103448276
 40
0.413793103448276
 40
0.413793103448276
 40
0.4482758620689656
 40
0.4482758620689656
 40
0.4482758620689656
 40
0.4482758620689656
 40
0.4827586206896553
 40
0.4827586206896553
 40
0.4827586206896553
 40
0.4827586206896553
 40
0.517241379310345
 40
0.517241379310345
 40
0.517241379310345
 40
0.517241379310345
 40
0.5517241379310346
 40
0.5517241379310346
 40
0.5517241379310346
 40
0.5517241379310346
 40
0.5862068965517242
 40
0.5862068965517242
 40
0.5862068965517242
 40
0.5862068965517242
 40
0.6206896551724138
 40
0.6206896551724138
 40
0.6206896551724138
 40
0.6206896551724138
 40
0.6551724137931034
 40
0.6551724137931034
 40
0.6551724137931034
 40
0.6551724137931034
 40
0.689655172413793
 40
0.689655172413793
 40
0.689655172413793
 40
0.689655172413793
 40
0.7241379310344827
 40
0.7241379310344827
 40
0.7241379310344827
 40
0.7241379310344827
 40
0.7586206896551723
 40
0.7586206896551723
 40
0.7586206896551723
 40
0.7586206896551723
 40
0.7931034482758619
 40
0.7931034482758619
 40
0.7931034482758619
 40
0.7931034482758619
 40
0.8275862068965515
 40
0.8275862068965515
 40
0.8275862068965515
 40
0.8275862068965515
 40
0.8620689655172411
 40
0.8620689655172411
 40
0.8620689655172411
 40
0.8620689655172411
 40
0.8965517241379307
 40
0.8965517241379307
 40
0.8965517241379307
 40
0.8965517241379307
 40
0.9310344827586203
 40
0.9310344827586203
 40
0.9310344827586203
 40
0.9310344827586203
 40
0.9655172413793099
 40
0.9655172413793099
 40
0.9655172413793099
 40
0.9655172413793099
 40
1.0
 40
1.0
 40
1.0
 40
1.0
 10
-10.36502
 20
-14.41667
 30
0.0
 10
-10.36189
 20
-14.4119
 30
0.0
 10
-10.3582
 20
-14.40825
 30
0.0
 10
-10.35389
 20
-14.40576
 30
0.0
 10
-10.35389
 20
-14.40576
 30
0.0
 10
-10.34959
 20
-14.40324
 30
0.0
 10
-10.34489
 20
-14.402
 30
0.0
 10
-10.33974
 20
-14.402
 30
0.0
 10
-10.33974
 20
-14.402
 30
0.0
 10
-10.33087
 20
-14.402
 30
0.0
 10
-10.32412
 20
-14.40473
 30
0.0
 10
-10.31949
 20
-14.41021
 30
0.0
 10
-10.31949
 20
-14.41021
 30
0.0
 10
-10.31485
 20
-14.41566
 30
0.0
 10
-10.31252
 20
-14.42361
 30
0.0
 10
-10.31252
 20
-14.43403
 30
0.0
 10
-10.31252
 20
-14.43403
 30
0.0
 10
-10.31252
 20
-14.43403
 30
0.0
 10
-10.31252
 20
-14.48102
 30
0.0
 10
-10.31252
 20
-14.48102
 30
0.0
 10
-10.31252
 20
-14.48102
 30
0.0
 10
-10.31252
 20
-14.48102
 30
0.0
 10
-10.33734
 20
-14.48102
 30
0.0
 10
-10.33734
 20
-14.48102
 30
0.0
 10
-10.33734
 20
-14.48102
 30
0.0
 10
-10.33734
 20
-14.48102
 30
0.0
 10
-10.33734
 20
-14.44078
 30
0.0
 10
-10.33734
 20
-14.44078
 30
0.0
 10
-10.33734
 20
-14.44078
 30
0.0
 10
-10.33729
 20
-14.44019
 30
0.0
 10
-10.33727
 20
-14.43958
 30
0.0
 10
-10.33724
 20
-14.43892
 30
0.0
 10
-10.33724
 20
-14.43892
 30
0.0
 10
-10.33722
 20
-14.43829
 30
0.0
 10
-10.3372
 20
-14.43737
 30
0.0
 10
-10.3372
 20
-14.43617
 30
0.0
 10
-10.3372
 20
-14.43617
 30
0.0
 10
-10.3372
 20
-14.43071
 30
0.0
 10
-10.33799
 20
-14.42674
 30
0.0
 10
-10.33962
 20
-14.42429
 30
0.0
 10
-10.33962
 20
-14.42429
 30
0.0
 10
-10.34122
 20
-14.42182
 30
0.0
 10
-10.3438
 20
-14.4206
 30
0.0
 10
-10.34738
 20
-14.4206
 30
0.0
 10
-10.34738
 20
-14.4206
 30
0.0
 10
-10.35208
 20
-14.4206
 30
0.0
 10
-10.35568
 20
-14.42253
 30
0.0
 10
-10.35824
 20
-14.42639
 30
0.0
 10
-10.35824
 20
-14.42639
 30
0.0
 10
-10.36078
 20
-14.43024
 30
0.0
 10
-10.3621
 20
-14.43582
 30
0.0
 10
-10.3622
 20
-14.44313
 30
0.0
 10
-10.3622
 20
-14.44313
 30
0.0
 10
-10.3622
 20
-14.44313
 30
0.0
 10
-10.3622
 20
-14.48102
 30
0.0
 10
-10.3622
 20
-14.48102
 30
0.0
 10
-10.3622
 20
-14.48102
 30
0.0
 10
-10.3622
 20
-14.48102
 30
0.0
 10
-10.38701
 20
-14.48102
 30
0.0
 10
-10.38701
 20
-14.48102
 30
0.0
 10
-10.38701
 20
-14.48102
 30
0.0
 10
-10.38701
 20
-14.48102
 30
0.0
 10
-10.38701
 20
-14.44078
 30
0.0
 10
-10.38701
 20
-14.44078
 30
0.0
 10
-10.38701
 20
-14.44078
 30
0.0
 10
-10.38701
 20
-14.43224
 30
0.0
 10
-10.38774
 20
-14.42674
 30
0.0
 10
-10.38922
 20
-14.42429
 30
0.0
 10
-10.38922
 20
-14.42429
 30
0.0
 10
-10.39068
 20
-14.42182
 30
0.0
 10
-10.39329
 20
-14.4206
 30
0.0
 10
-10.39705
 20
-14.4206
 30
0.0
 10
-10.39705
 20
-14.4206
 30
0.0
 10
-10.4018
 20
-14.4206
 30
0.0
 10
-10.40545
 20
-14.42255
 30
0.0
 10
-10.40801
 20
-14.42643
 30
0.0
 10
-10.40801
 20
-14.42643
 30
0.0
 10
-10.41057
 20
-14.43031
 30
0.0
 10
-10.41187
 20
-14.43584
 30
0.0
 10
-10.41187
 20
-14.44306
 30
0.0
 10
-10.41187
 20
-14.44306
 30
0.0
 10
-10.41187
 20
-14.44306
 30
0.0
 10
-10.41187
 20
-14.48102
 30
0.0
 10
-10.41187
 20
-14.48102
 30
0.0
 10
-10.41187
 20
-14.48102
 30
0.0
 10
-10.41187
 20
-14.48102
 30
0.0
 10
-10.43668
 20
-14.48102
 30
0.0
 10
-10.43668
 20
-14.48102
 30
0.0
 10
-10.43668
 20
-14.48102
 30
0.0
 10
-10.43668
 20
-14.48102
 30
0.0
 10
-10.43668
 20
-14.40386
 30
0.0
 10
-10.43668
 20
-14.40386
 30
0.0
 10
-10.43668
 20
-14.40386
 30
0.0
 10
-10.43668
 20
-14.40386
 30
0.0
 10
-10.41187
 20
-14.40386
 30
0.0
 10
-10.41187
 20
-14.40386
 30
0.0
 10
-10.41187
 20
-14.40386
 30
0.0
 10
-10.41187
 20
-14.40386
 30
0.0
 10
-10.41187
 20
-14.41517
 30
0.0
 10
-10.41187
 20
-14.41517
 30
0.0
 10
-10.41187
 20
-14.41517
 30
0.0
 10
-10.40883
 20
-14.41079
 30
0.0
 10
-10.40535
 20
-14.40753
 30
0.0
 10
-10.40142
 20
-14.40531
 30
0.0
 10
-10.40142
 20
-14.40531
 30
0.0
 10
-10.3975
 20
-14.4031
 30
0.0
 10
-10.39317
 20
-14.402
 30
0.0
 10
-10.38844
 20
-14.402
 30
0.0
 10
-10.38844
 20
-14.402
 30
0.0
 10
-10.38313
 20
-14.402
 30
0.0
 10
-10.3784
 20
-14.40329
 30
0.0
 10
-10.37433
 20
-14.40586
 30
0.0
 10
-10.37433
 20
-14.40586
 30
0.0
 10
-10.37024
 20
-14.40844
 30
0.0
 10
-10.36713
 20
-14.41204
 30
0.0
 10
-10.36502
 20
-14.41667
 30
0.0
  0
SPLINE
  5
69
330
1F
100
AcDbEntity
  8
Layer 1
 62
   250
100
AcDbSpline
210
0.0
220
0.0
230
1.0
 70
    11
 71
     3
 72
   120
 73
   116
 74
     0
 42
0.0000000001
 43
0.0000000001
 40
0.0
 40
0.0
 40
0.0
 40
0.0
 40
0.0344827586206897
 40
0.0344827586206897
 40
0.0344827586206897
 40
0.0344827586206897
 40
0.0689655172413793
 40
0.0689655172413793
 40
0.0689655172413793
 40
0.0689655172413793
 40
0.103448275862069
 40
0.103448275862069
 40
0.103448275862069
 40
0.103448275862069
 40
0.1379310344827586
 40
0.1379310344827586
 40
0.1379310344827586
 40
0.1379310344827586
 40
0.1724137931034483
 40
0.1724137931034483
 40
0.1724137931034483
 40
0.1724137931034483
 40
0.206896551724138
 40
0.206896551724138
 40
0.206896551724138
 40
0.206896551724138
 40
0.2413793103448276
 40
0.2413793103448276
 40
0.2413793103448276
 40
0.2413793103448276
 40
0.2758620689655173
 40
0.2758620689655173
 40
0.2758620689655173
 40
0.2758620689655173
 40
0.310344827586207
 40
0.310344827586207
 40
0.310344827586207
 40
0.310344827586207
 40
0.3448275862068966
 40
0.3448275862068966
 40
0.3448275862068966
 40
0.3448275862068966
 40
0.3793103448275863
 40
0.3793103448275863
 40
0.3793103448275863
 40
0.3793103448275863
 40
0.413793103448276
 40
0.413793103448276
 40
0.413793103448276
 40
0.413793103448276
 40
0.4482758620689656
 40
0.4482758620689656
 40
0.4482758620689656
 40
0.4482758620689656
 40
0.4827586206896553
 40
0.4827586206896553
 40
0.4827586206896553
 40
0.4827586206896553
 40
0.517241379310345
 40
0.517241379310345
 40
0.517241379310345
 40
0.517241379310345
 40
0.5517241379310346
 40
0.5517241379310346
 40
0.5517241379310346
 40
0.5517241379310346
 40
0.5862068965517242
 40
0.5862068965517242
 40
0.5862068965517242
 40
0.5862068965517242
 40
0.6206896551724138
 40
0.6206896551724138
 40
0.6206896551724138
 40
0.6206896551724138
 40
0.6551724137931034
 40
0.6551724137931034
 40
0.6551724137931034
 40
0.6551724137931034
 40
0.689655172413793
 40
0.689655172413793
 40
0.689655172413793
 40
0.689655172413793
 40
0.7241379310344827
 40
0.7241379310344827
 40
0.7241379310344827
 40
0.7241379310344827
 40
0.7586206896551723
 40
0.7586206896551723
 40
0.7586206896551723
 40
0.7586206896551723
 40
0.7931034482758619
 40
0.7931034482758619
 40
0.7931034482758619
 40
0.7931034482758619
 40
0.8275862068965515
 40
0.8275862068965515
 40
0.8275862068965515
 40
0.8275862068965515
 40
0.8620689655172411
 40
0.8620689655172411
 40
0.8620689655172411
 40
0.8620689655172411
 40
0.8965517241379307
 40
0.8965517241379307
 40
0.8965517241379307
 40
0.8965517241379307
 40
0.9310344827586203
 40
0.9310344827586203
 40
0.9310344827586203
 40
0.9310344827586203
 40
0.9655172413793099
 40
0.9655172413793099
 40
0.9655172413793099
 40
0.9655172413793099
 40
1.0
 40
1.0
 40
1.0
 40
1.0
 10
-10.21798
 20
-14.41667
 30
0.0
 10
-10.21485
 20
-14.4119
 30
0.0
 10
-10.21116
 20
-14.40825
 30
0.0
 10
-10.20685
 20
-14.40576
 30
0.0
 10
-10.20685
 20
-14.40576
 30
0.0
 10
-10.20255
 20
-14.40324
 30
0.0
 10
-10.19785
 20
-14.402
 30
0.0
 10
-10.1927
 20
-14.402
 30
0.0
 10
-10.1927
 20
-14.402
 30
0.0
 10
-10.18383
 20
-14.402
 30
0.0
 10
-10.17708
 20
-14.40473
 30
0.0
 10
-10.17245
 20
-14.41021
 30
0.0
 10
-10.17245
 20
-14.41021
 30
0.0
 10
-10.16781
 20
-14.41566
 30
0.0
 10
-10.16548
 20
-14.42361
 30
0.0
 10
-10.16548
 20
-14.43403
 30
0.0
 10
-10.16548
 20
-14.43403
 30
0.0
 10
-10.16548
 20
-14.43403
 30
0.0
 10
-10.16548
 20
-14.48102
 30
0.0
 10
-10.16548
 20
-14.48102
 30
0.0
 10
-10.16548
 20
-14.48102
 30
0.0
 10
-10.16548
 20
-14.48102
 30
0.0
 10
-10.1903
 20
-14.48102
 30
0.0
 10
-10.1903
 20
-14.48102
 30
0.0
 10
-10.1903
 20
-14.48102
 30
0.0
 10
-10.1903
 20
-14.48102
 30
0.0
 10
-10.1903
 20
-14.44078
 30
0.0
 10
-10.1903
 20
-14.44078
 30
0.0
 10
-10.1903
 20
-14.44078
 30
0.0
 10
-10.19025
 20
-14.44019
 30
0.0
 10
-10.19023
 20
-14.43958
 30
0.0
 10
-10.1902
 20
-14.43892
 30
0.0
 10
-10.1902
 20
-14.43892
 30
0.0
 10
-10.19018
 20
-14.43829
 30
0.0
 10
-10.19016
 20
-14.43737
 30
0.0
 10
-10.19016
 20
-14.43617
 30
0.0
 10
-10.19016
 20
-14.43617
 30
0.0
 10
-10.19016
 20
-14.43071
 30
0.0
 10
-10.19095
 20
-14.42674
 30
0.0
 10
-10.19258
 20
-14.42429
 30
0.0
 10
-10.19258
 20
-14.42429
 30
0.0
 10
-10.19418
 20
-14.42182
 30
0.0
 10
-10.19676
 20
-14.4206
 30
0.0
 10
-10.20034
 20
-14.4206
 30
0.0
 10
-10.20034
 20
-14.4206
 30
0.0
 10
-10.20504
 20
-14.4206
 30
0.0
 10
-10.20864
 20
-14.42253
 30
0.0
 10
-10.2112
 20
-14.42639
 30
0.0
 10
-10.2112
 20
-14.42639
 30
0.0
 10
-10.21374
 20
-14.43024
 30
0.0
 10
-10.21506
 20
-14.43582
 30
0.0
 10
-10.21516
 20
-14.44313
 30
0.0
 10
-10.21516
 20
-14.44313
 30
0.0
 10
-10.21516
 20
-14.44313
 30
0.0
 10
-10.21516
 20
-14.48102
 30
0.0
 10
-10.21516
 20
-14.48102
 30
0.0
 10
-10.21516
 20
-14.48102
 30
0.0
 10
-10.21516
 20
-14.48102
 30
0.0
 10
-10.23997
 20
-14.48102
 30
0.0
 10
-10.23997
 20
-14.48102
 30
0.0
 10
-10.23997
 20
-14.48102
 30
0.0
 10
-10.23997
 20
-14.48102
 30
0.0
 10
-10.23997
 20
-14.44078
 30
0.0
 10
-10.23997
 20
-14.44078
 30
0.0
 10
-10.23997
 20
-14.44078
 30
0.0
 10
-10.23997
 20
-14.43224
 30
0.0
 10
-10.2407
 20
-14.42674
 30
0.0
 10
-10.24218
 20
-14.42429
 30
0.0
 10
-10.24218
 20
-14.42429
 30
0.0
 10
-10.24364
 20
-14.42182
 30
0.0
 10
-10.24625
 20
-14.4206
 30
0.0
 10
-10.25001
 20
-14.4206
 30
0.0
 10
-10.25001
 20
-14.4206
 30
0.0
 10
-10.25476
 20
-14.4206
 30
0.0
 10
-10.25841
 20
-14.42255
 30
0.0
 10
-10.26097
 20
-14.42643
 30
0.0
 10
-10.26097
 20
-14.42643
 30
0.0
 10
-10.26353
 20
-14.43031
 30
0.0
 10
-10.26483
 20
-14.43584
 30
0.0
 10
-10.26483
 20
-14.44306
 30
0.0
 10
-10.26483
 20
-14.44306
 30
0.0
 10
-10.26483
 20
-14.44306
 30
0.0
 10
-10.26483
 20
-14.48102
 30
0.0
 10
-10.26483
 20
-14.48102
 30
0.0
 10
-10.26483
 20
-14.48102
 30
0.0
 10
-10.26483
 20
-14.48102
 30
0.0
 10
-10.28964
 20
-14.48102
 30
0.0
 10
-10.28964
 20
-14.48102
 30
0.0
 10
-10.28964
 20
-14.48102
 30
0.0
 10
-10.28964
 20
-14.48102
 30
0.0
 10
-10.28964
 20
-14.40386
 30
0.0
 10
-10.28964
 20
-14.40386
 30
0.0
 10
-10.28964
 20
-14.40386
 30
0.0
 10
-10.28964
 20
-14.40386
 30
0.0
 10
-10.26483
 20
-14.40386
 30
0.0
 10
-10.26483
 20
-14.40386
 30
0.0
 10
-10.26483
 20
-14.40386
 30
0.0
 10
-10.26483
 20
-14.40386
 30
0.0
 10
-10.26483
 20
-14.41517
 30
0.0
 10
-10.26483
 20
-14.41517
 30
0.0
 10
-10.26483
 20
-14.41517
 30
0.0
 10
-10.26179
 20
-14.41079
 30
0.0
 10
-10.25831
 20
-14.40753
 30
0.0
 10
-10.25438
 20
-14.40531
 30
0.0
 10
-10.25438
 20
-14.40531
 30
0.0
 10
-10.25046
 20
-14.4031
 30
0.0
 10
-10.24613
 20
-14.402
 30
0.0
 10
-10.2414
 20
-14.402
 30
0.0
 10
-10.2414
 20
-14.402
 30
0.0
 10
-10.23609
 20
-14.402
 30
0.0
 10
-10.23136
 20
-14.40329
 30
0.0
 10
-10.22729
 20
-14.40586
 30
0.0
 10
-10.22729
 20
-14.40586
 30
0.0
 10
-10.2232
 20
-14.40844
 30
0.0
 10
-10.22009
 20
-14.41204
 30
0.0
 10
-10.21798
 20
-14.41667
 30
0.0
  0
SPLINE
  5
6A
330
1F
100
AcDbEntity
  8
Layer 1
 62
   250
100
AcDbSpline
210
0.0
220
0.0
230
1.0
 70
    11
 71
     3
 72
    80
 73
    76
 74
     0
 42
0.0000000001
 43
0.0000000001
 40
0.0
 40
0.0
 40
0.0
 40
0.0
 40
0.0526315789473684
 40
0.0526315789473684
 40
0.0526315789473684
 40
0.0526315789473684
 40
0.1052631578947368
 40
0.1052631578947368
 40
0.1052631578947368
 40
0.1052631578947368
 40
0.1578947368421053
 40
0.1578947368421053
 40
0.1578947368421053
 40
0.1578947368421053
 40
0.2105263157894737
 40
0.2105263157894737
 40
0.2105263157894737
 40
0.2105263157894737
 40
0.2631578947368421
 40
0.2631578947368421
 40
0.2631578947368421
 40
0.2631578947368421
 40
0.3157894736842105
 40
0.3157894736842105
 40
0.3157894736842105
 40
0.3157894736842105
 40
0.3684210526315789
 40
0.3684210526315789
 40
0.3684210526315789
 40
0.3684210526315789
 40
0.4210526315789473
 40
0.4210526315789473
 40
0.4210526315789473
 40
0.4210526315789473
 40
0.4736842105263158
 40
0.4736842105263158
 40
0.4736842105263158
 40
0.4736842105263158
 40
0.5263157894736842
 40
0.5263157894736842
 40
0.5263157894736842
 40
0.5263157894736842
 40
0.5789473684210527
 40
0.5789473684210527
 40
0.5789473684210527
 40
0.5789473684210527
 40
0.631578947368421
 40
0.631578947368421
 40
0.631578947368421
 40
0.631578947368421
 40
0.6842105263157894
 40
0.6842105263157894
 40
0.6842105263157894
 40
0.6842105263157894
 40
0.7368421052631577
 40
0.7368421052631577
 40
0.7368421052631577
 40
0.7368421052631577
 40
0.7894736842105261
 40
0.7894736842105261
 40
0.7894736842105261
 40
0.7894736842105261
 40
0.8421052631578945
 40
0.8421052631578945
 40
0.8421052631578945
 40
0.8421052631578945
 40
0.8947368421052628
 40
0.8947368421052628
 40
0.8947368421052628
 40
0.8947368421052628
 40
0.9473684210526312
 40
0.9473684210526312
 40
0.9473684210526312
 40
0.9473684210526312
 40
1.0
 40
1.0
 40
1.0
 40
1.0
 10
-11.30151
 20
-14.62577
 30
0.0
 10
-11.30151
 20
-14.62577
 30
0.0
 10
-11.25623
 20
-14.62577
 30
0.0
 10
-11.25623
 20
-14.62577
 30
0.0
 10
-11.25623
 20
-14.62577
 30
0.0
 10
-11.25623
 20
-14.62577
 30
0.0
 10
-11.25623
 20
-14.64527
 30
0.0
 10
-11.25623
 20
-14.64527
 30
0.0
 10
-11.25623
 20
-14.64527
 30
0.0
 10
-11.25623
 20
-14.64527
 30
0.0
 10
-11.331
 20
-14.64527
 30
0.0
 10
-11.331
 20
-14.64527
 30
0.0
 10
-11.331
 20
-14.64527
 30
0.0
 10
-11.331
 20
-14.64527
 30
0.0
 10
-11.331
 20
-14.62577
 30
0.0
 10
-11.331
 20
-14.62577
 30
0.0
 10
-11.331
 20
-14.62577
 30
0.0
 10
-11.331
 20
-14.62577
 30
0.0
 10
-11.29344
 20
-14.59264
 30
0.0
 10
-11.29344
 20
-14.59264
 30
0.0
 10
-11.29344
 20
-14.59264
 30
0.0
 10
-11.29008
 20
-14.5896
 30
0.0
 10
-11.28761
 20
-14.58664
 30
0.0
 10
-11.28601
 20
-14.58375
 30
0.0
 10
-11.28601
 20
-14.58375
 30
0.0
 10
-11.28439
 20
-14.58085
 30
0.0
 10
-11.28359
 20
-14.57784
 30
0.0
 10
-11.28359
 20
-14.57471
 30
0.0
 10
-11.28359
 20
-14.57471
 30
0.0
 10
-11.28359
 20
-14.56989
 30
0.0
 10
-11.28521
 20
-14.56601
 30
0.0
 10
-11.28845
 20
-14.56307
 30
0.0
 10
-11.28845
 20
-14.56307
 30
0.0
 10
-11.29168
 20
-14.56013
 30
0.0
 10
-11.29598
 20
-14.55868
 30
0.0
 10
-11.30137
 20
-14.55868
 30
0.0
 10
-11.30137
 20
-14.55868
 30
0.0
 10
-11.3055
 20
-14.55868
 30
0.0
 10
-11.31002
 20
-14.55957
 30
0.0
 10
-11.31494
 20
-14.56133
 30
0.0
 10
-11.31494
 20
-14.56133
 30
0.0
 10
-11.31985
 20
-14.5631
 30
0.0
 10
-11.32512
 20
-14.56573
 30
0.0
 10
-11.33072
 20
-14.56921
 30
0.0
 10
-11.33072
 20
-14.56921
 30
0.0
 10
-11.33072
 20
-14.56921
 30
0.0
 10
-11.33072
 20
-14.54661
 30
0.0
 10
-11.33072
 20
-14.54661
 30
0.0
 10
-11.33072
 20
-14.54661
 30
0.0
 10
-11.32474
 20
-14.54464
 30
0.0
 10
-11.31884
 20
-14.54313
 30
0.0
 10
-11.31301
 20
-14.5421
 30
0.0
 10
-11.31301
 20
-14.5421
 30
0.0
 10
-11.30717
 20
-14.54106
 30
0.0
 10
-11.30146
 20
-14.54054
 30
0.0
 10
-11.29584
 20
-14.54054
 30
0.0
 10
-11.29584
 20
-14.54054
 30
0.0
 10
-11.28354
 20
-14.54054
 30
0.0
 10
-11.27397
 20
-14.54325
 30
0.0
 10
-11.26715
 20
-14.54868
 30
0.0
 10
-11.26715
 20
-14.54868
 30
0.0
 10
-11.26033
 20
-14.55409
 30
0.0
 10
-11.25692
 20
-14.56164
 30
0.0
 10
-11.25692
 20
-14.57135
 30
0.0
 10
-11.25692
 20
-14.57135
 30
0.0
 10
-11.25692
 20
-14.57695
 30
0.0
 10
-11.25837
 20
-14.58217
 30
0.0
 10
-11.26127
 20
-14.58702
 30
0.0
 10
-11.26127
 20
-14.58702
 30
0.0
 10
-11.26416
 20
-14.59186
 30
0.0
 10
-11.27025
 20
-14.59835
 30
0.0
 10
-11.27952
 20
-14.60649
 30
0.0
 10
-11.27952
 20
-14.60649
 30
0.0
 10
-11.27952
 20
-14.60649
 30
0.0
 10
-11.30151
 20
-14.62577
 30
0.0
 10
-11.30151
 20
-14.62577
 30
0.0
  0
SPLINE
  5
6B
330
1F
100
AcDbEntity
  8
Layer 1
 62
   250
100
AcDbSpline
210
0.0
220
0.0
230
1.0
 70
    11
 71
     3
 72
    40
 73
    36
 74
     0
 42
0.0000000001
 43
0.0000000001
 40
0.0
 40
0.0
 40
0.0
 40
0.0
 40
0.1111111111111111
 40
0.1111111111111111
 40
0.1111111111111111
 40
0.1111111111111111
 40
0.2222222222222222
 40
0.2222222222222222
 40
0.2222222222222222
 40
0.2222222222222222
 40
0.3333333333333333
 40
0.3333333333333333
 40
0.3333333333333333
 40
0.3333333333333333
 40
0.4444444444444444
 40
0.4444444444444444
 40
0.4444444444444444
 40
0.4444444444444444
 40
0.5555555555555556
 40
0.5555555555555556
 40
0.5555555555555556
 40
0.5555555555555556
 40
0.6666666666666667
 40
0.6666666666666667
 40
0.6666666666666667
 40
0.6666666666666667
 40
0.7777777777777779
 40
0.7777777777777779
 40
0.7777777777777779
 40
0.7777777777777779
 40
0.8888888888888891
 40
0.8888888888888891
 40
0.8888888888888891
 40
0.8888888888888891
 40
1.0
 40
1.0
 40
1.0
 40
1.0
 10
-11.18189
 20
-14.5424
 30
0.0
 10
-11.18189
 20
-14.5424
 30
0.0
 10
-11.13787
 20
-14.5424
 30
0.0
 10
-11.13787
 20
-14.5424
 30
0.0
 10
-11.13787
 20
-14.5424
 30
0.0
 10
-11.12477
 20
-14.5424
 30
0.0
 10
-11.11472
 20
-14.54532
 30
0.0
 10
-11.10771
 20
-14.55113
 30
0.0
 10
-11.10771
 20
-14.55113
 30
0.0
 10
-11.10071
 20
-14.55694
 30
0.0
 10
-11.0972
 20
-14.56521
 30
0.0
 10
-11.0972
 20
-14.57596
 30
0.0
 10
-11.0972
 20
-14.57596
 30
0.0
 10
-11.0972
 20
-14.58673
 30
0.0
 10
-11.10071
 20
-14.59503
 30
0.0
 10
-11.10771
 20
-14.60084
 30
0.0
 10
-11.10771
 20
-14.60084
 30
0.0
 10
-11.11472
 20
-14.60665
 30
0.0
 10
-11.12477
 20
-14.60957
 30
0.0
 10
-11.13787
 20
-14.60957
 30
0.0
 10
-11.13787
 20
-14.60957
 30
0.0
 10
-11.13787
 20
-14.60957
 30
0.0
 10
-11.15536
 20
-14.60957
 30
0.0
 10
-11.15536
 20
-14.60957
 30
0.0
 10
-11.15536
 20
-14.60957
 30
0.0
 10
-11.15536
 20
-14.60957
 30
0.0
 10
-11.15536
 20
-14.64527
 30
0.0
 10
-11.15536
 20
-14.64527
 30
0.0
 10
-11.15536
 20
-14.64527
 30
0.0
 10
-11.15536
 20
-14.64527
 30
0.0
 10
-11.18189
 20
-14.64527
 30
0.0
 10
-11.18189
 20
-14.64527
 30
0.0
 10
-11.18189
 20
-14.64527
 30
0.0
 10
-11.18189
 20
-14.64527
 30
0.0
 10
-11.18189
 20
-14.5424
 30
0.0
 10
-11.18189
 20
-14.5424
 30
0.0
  0
SPLINE
  5
6C
330
1F
100
AcDbEntity
  8
Layer 1
 62
   250
100
AcDbSpline
210
0.0
220
0.0
230
1.0
 70
    11
 71
     3
 72
    32
 73
    28
 74
     0
 42
0.0000000001
 43
0.0000000001
 40
0.0
 40
0.0
 40
0.0
 40
0.0
 40
0.1428571428571428
 40
0.1428571428571428
 40
0.1428571428571428
 40
0.1428571428571428
 40
0.2857142857142857
 40
0.2857142857142857
 40
0.2857142857142857
 40
0.2857142857142857
 40
0.4285714285714285
 40
0.4285714285714285
 40
0.4285714285714285
 40
0.4285714285714285
 40
0.5714285714285714
 40
0.5714285714285714
 40
0.5714285714285714
 40
0.5714285714285714
 40
0.7142857142857142
 40
0.7142857142857142
 40
0.7142857142857142
 40
0.7142857142857142
 40
0.857142857142857
 40
0.857142857142857
 40
0.857142857142857
 40
0.857142857142857
 40
1.0
 40
1.0
 40
1.0
 40
1.0
 10
-11.15536
 20
-14.56162
 30
0.0
 10
-11.15536
 20
-14.56162
 30
0.0
 10
-11.15536
 20
-14.59035
 30
0.0
 10
-11.15536
 20
-14.59035
 30
0.0
 10
-11.15536
 20
-14.59035
 30
0.0
 10
-11.15536
 20
-14.59035
 30
0.0
 10
-11.14069
 20
-14.59035
 30
0.0
 10
-11.14069
 20
-14.59035
 30
0.0
 10
-11.14069
 20
-14.59035
 30
0.0
 10
-11.13554
 20
-14.59035
 30
0.0
 10
-11.13156
 20
-14.58911
 30
0.0
 10
-11.12876
 20
-14.58659
 30
0.0
 10
-11.12876
 20
-14.58659
 30
0.0
 10
-11.12596
 20
-14.5841
 30
0.0
 10
-11.12455
 20
-14.58055
 30
0.0
 10
-11.12455
 20
-14.57596
 30
0.0
 10
-11.12455
 20
-14.57596
 30
0.0
 10
-11.12455
 20
-14.57135
 30
0.0
 10
-11.12596
 20
-14.56782
 30
0.0
 10
-11.12876
 20
-14.56533
 30
0.0
 10
-11.12876
 20
-14.56533
 30
0.0
 10
-11.13156
 20
-14.56286
 30
0.0
 10
-11.13554
 20
-14.56162
 30
0.0
 10
-11.14069
 20
-14.56162
 30
0.0
 10
-11.14069
 20
-14.56162
 30
0.0
 10
-11.14069
 20
-14.56162
 30
0.0
 10
-11.15536
 20
-14.56162
 30
0.0
 10
-11.15536
 20
-14.56162
 30
0.0
  0
SPLINE
  5
6D
330
1F
100
AcDbEntity
  8
Layer 1
 62
   250
100
AcDbSpline
210
0.0
220
0.0
230
1.0
 70
    11
 71
     3
 72
    20
 73
    16
 74
     0
 42
0.0000000001
 43
0.0000000001
 40
0.0
 40
0.0
 40
0.0
 40
0.0
 40
0.25
 40
0.25
 40
0.25
 40
0.25
 40
0.5
 40
0.5
 40
0.5
 40
0.5
 40
0.75
 40
0.75
 40
0.75
 40
0.75
 40
1.0
 40
1.0
 40
1.0
 40
1.0
 10
-11.07848
 20
-14.5424
 30
0.0
 10
-11.07848
 20
-14.5424
 30
0.0
 10
-11.05195
 20
-14.5424
 30
0.0
 10
-11.05195
 20
-14.5424
 30
0.0
 10
-11.05195
 20
-14.5424
 30
0.0
 10
-11.05195
 20
-14.5424
 30
0.0
 10
-11.05195
 20
-14.64527
 30
0.0
 10
-11.05195
 20
-14.64527
 30
0.0
 10
-11.05195
 20
-14.64527
 30
0.0
 10
-11.05195
 20
-14.64527
 30
0.0
 10
-11.07848
 20
-14.64527
 30
0.0
 10
-11.07848
 20
-14.64527
 30
0.0
 10
-11.07848
 20
-14.64527
 30
0.0
 10
-11.07848
 20
-14.64527
 30
0.0
 10
-11.07848
 20
-14.5424
 30
0.0
 10
-11.07848
 20
-14.5424
 30
0.0
  0
SPLINE
  5
6E
330
1F
100
AcDbEntity
  8
Layer 1
 62
   250
100
AcDbSpline
210
0.0
220
0.0
230
1.0
 70
    11
 71
     3
 72
    44
 73
    40
 74
     0
 42
0.0000000001
 43
0.0000000001
 40
0.0
 40
0.0
 40
0.0
 40
0.0
 40
0.1
 40
0.1
 40
0.1
 40
0.1
 40
0.2
 40
0.2
 40
0.2
 40
0.2
 40
0.3
 40
0.3
 40
0.3
 40
0.3
 40
0.4
 40
0.4
 40
0.4
 40
0.4
 40
0.5
 40
0.5
 40
0.5
 40
0.5
 40
0.6
 40
0.6
 40
0.6
 40
0.6
 40
0.7
 40
0.7
 40
0.7
 40
0.7
 40
0.7999999999999999
 40
0.7999999999999999
 40
0.7999999999999999
 40
0.7999999999999999
 40
0.8999999999999999
 40
0.8999999999999999
 40
0.8999999999999999
 40
0.8999999999999999
 40
1.0
 40
1.0
 40
1.0
 40
1.0
 10
-11.02599
 20
-14.5424
 30
0.0
 10
-11.02599
 20
-14.5424
 30
0.0
 10
-10.99636
 20
-14.5424
 30
0.0
 10
-10.99636
 20
-14.5424
 30
0.0
 10
-10.99636
 20
-14.5424
 30
0.0
 10
-10.99636
 20
-14.5424
 30
0.0
 10
-10.95894
 20
-14.61296
 30
0.0
 10
-10.95894
 20
-14.61296
 30
0.0
 10
-10.95894
 20
-14.61296
 30
0.0
 10
-10.95894
 20
-14.61296
 30
0.0
 10
-10.95894
 20
-14.5424
 30
0.0
 10
-10.95894
 20
-14.5424
 30
0.0
 10
-10.95894
 20
-14.5424
 30
0.0
 10
-10.95894
 20
-14.5424
 30
0.0
 10
-10.9338
 20
-14.5424
 30
0.0
 10
-10.9338
 20
-14.5424
 30
0.0
 10
-10.9338
 20
-14.5424
 30
0.0
 10
-10.9338
 20
-14.5424
 30
0.0
 10
-10.9338
 20
-14.64527
 30
0.0
 10
-10.9338
 20
-14.64527
 30
0.0
 10
-10.9338
 20
-14.64527
 30
0.0
 10
-10.9338
 20
-14.64527
 30
0.0
 10
-10.96343
 20
-14.64527
 30
0.0
 10
-10.96343
 20
-14.64527
 30
0.0
 10
-10.96343
 20
-14.64527
 30
0.0
 10
-10.96343
 20
-14.64527
 30
0.0
 10
-11.00085
 20
-14.57471
 30
0.0
 10
-11.00085
 20
-14.57471
 30
0.0
 10
-11.00085
 20
-14.57471
 30
0.0
 10
-11.00085
 20
-14.57471
 30
0.0
 10
-11.00085
 20
-14.64527
 30
0.0
 10
-11.00085
 20
-14.64527
 30
0.0
 10
-11.00085
 20
-14.64527
 30
0.0
 10
-11.00085
 20
-14.64527
 30
0.0
 10
-11.02599
 20
-14.64527
 30
0.0
 10
-11.02599
 20
-14.64527
 30
0.0
 10
-11.02599
 20
-14.64527
 30
0.0
 10
-11.02599
 20
-14.64527
 30
0.0
 10
-11.02599
 20
-14.5424
 30
0.0
 10
-11.02599
 20
-14.5424
 30
0.0
  0
SPLINE
  5
6F
330
1F
100
AcDbEntity
  8
Layer 1
 62
   250
100
AcDbSpline
210
0.0
220
0.0
230
1.0
 70
    11
 71
     3
 72
    56
 73
    52
 74
     0
 42
0.0000000001
 43
0.0000000001
 40
0.0
 40
0.0
 40
0.0
 40
0.0
 40
0.0769230769230769
 40
0.0769230769230769
 40
0.0769230769230769
 40
0.0769230769230769
 40
0.1538461538461539
 40
0.1538461538461539
 40
0.1538461538461539
 40
0.1538461538461539
 40
0.2307692307692308
 40
0.2307692307692308
 40
0.2307692307692308
 40
0.2307692307692308
 40
0.3076923076923077
 40
0.3076923076923077
 40
0.3076923076923077
 40
0.3076923076923077
 40
0.3846153846153846
 40
0.3846153846153846
 40
0.3846153846153846
 40
0.3846153846153846
 40
0.4615384615384616
 40
0.4615384615384616
 40
0.4615384615384616
 40
0.4615384615384616
 40
0.5384615384615385
 40
0.5384615384615385
 40
0.5384615384615385
 40
0.5384615384615385
 40
0.6153846153846154
 40
0.6153846153846154
 40
0.6153846153846154
 40
0.6153846153846154
 40
0.6923076923076923
 40
0.6923076923076923
 40
0.6923076923076923
 40
0.6923076923076923
 40
0.7692307692307692
 40
0.7692307692307692
 40
0.7692307692307692
 40
0.7692307692307692
 40
0.846153846153846
 40
0.846153846153846
 40
0.846153846153846
 40
0.846153846153846
 40
0.9230769230769229
 40
0.9230769230769229
 40
0.9230769230769229
 40
0.9230769230769229
 40
1.0
 40
1.0
 40
1.0
 40
1.0
 10
-10.86752
 20
-14.5424
 30
0.0
 10
-10.86752
 20
-14.5424
 30
0.0
 10
-10.8421
 20
-14.5424
 30
0.0
 10
-10.8421
 20
-14.5424
 30
0.0
 10
-10.8421
 20
-14.5424
 30
0.0
 10
-10.8421
 20
-14.5424
 30
0.0
 10
-10.82432
 20
-14.61717
 30
0.0
 10
-10.82432
 20
-14.61717
 30
0.0
 10
-10.82432
 20
-14.61717
 30
0.0
 10
-10.82432
 20
-14.61717
 30
0.0
 10
-10.80668
 20
-14.5424
 30
0.0
 10
-10.80668
 20
-14.5424
 30
0.0
 10
-10.80668
 20
-14.5424
 30
0.0
 10
-10.80668
 20
-14.5424
 30
0.0
 10
-10.78111
 20
-14.5424
 30
0.0
 10
-10.78111
 20
-14.5424
 30
0.0
 10
-10.78111
 20
-14.5424
 30
0.0
 10
-10.78111
 20
-14.5424
 30
0.0
 10
-10.76348
 20
-14.61717
 30
0.0
 10
-10.76348
 20
-14.61717
 30
0.0
 10
-10.76348
 20
-14.61717
 30
0.0
 10
-10.76348
 20
-14.61717
 30
0.0
 10
-10.7457
 20
-14.5424
 30
0.0
 10
-10.7457
 20
-14.5424
 30
0.0
 10
-10.7457
 20
-14.5424
 30
0.0
 10
-10.7457
 20
-14.5424
 30
0.0
 10
-10.72048
 20
-14.5424
 30
0.0
 10
-10.72048
 20
-14.5424
 30
0.0
 10
-10.72048
 20
-14.5424
 30
0.0
 10
-10.72048
 20
-14.5424
 30
0.0
 10
-10.74473
 20
-14.64527
 30
0.0
 10
-10.74473
 20
-14.64527
 30
0.0
 10
-10.74473
 20
-14.64527
 30
0.0
 10
-10.74473
 20
-14.64527
 30
0.0
 10
-10.77533
 20
-14.64527
 30
0.0
 10
-10.77533
 20
-14.64527
 30
0.0
 10
-10.77533
 20
-14.64527
 30
0.0
 10
-10.77533
 20
-14.64527
 30
0.0
 10
-10.794
 20
-14.56707
 30
0.0
 10
-10.794
 20
-14.56707
 30
0.0
 10
-10.794
 20
-14.56707
 30
0.0
 10
-10.794
 20
-14.56707
 30
0.0
 10
-10.81246
 20
-14.64527
 30
0.0
 10
-10.81246
 20
-14.64527
 30
0.0
 10
-10.81246
 20
-14.64527
 30
0.0
 10
-10.81246
 20
-14.64527
 30
0.0
 10
-10.84306
 20
-14.64527
 30
0.0
 10
-10.84306
 20
-14.64527
 30
0.0
 10
-10.84306
 20
-14.64527
 30
0.0
 10
-10.84306
 20
-14.64527
 30
0.0
 10
-10.86752
 20
-14.5424
 30
0.0
 10
-10.86752
 20
-14.5424
 30
0.0
  0
SPLINE
  5
70
330
1F
100
AcDbEntity
  8
Layer 1
 62
   250
100
AcDbSpline
210
0.0
220
0.0
230
1.0
 70
    11
 71
     3
 72
    52
 73
    48
 74
     0
 42
0.0000000001
 43
0.0000000001
 40
0.0
 40
0.0
 40
0.0
 40
0.0
 40
0.0833333333333333
 40
0.0833333333333333
 40
0.0833333333333333
 40
0.0833333333333333
 40
0.1666666666666667
 40
0.1666666666666667
 40
0.1666666666666667
 40
0.1666666666666667
 40
0.25
 40
0.25
 40
0.25
 40
0.25
 40
0.3333333333333333
 40
0.3333333333333333
 40
0.3333333333333333
 40
0.3333333333333333
 40
0.4166666666666666
 40
0.4166666666666666
 40
0.4166666666666666
 40
0.4166666666666666
 40
0.4999999999999999
 40
0.4999999999999999
 40
0.4999999999999999
 40
0.4999999999999999
 40
0.5833333333333333
 40
0.5833333333333333
 40
0.5833333333333333
 40
0.5833333333333333
 40
0.6666666666666666
 40
0.6666666666666666
 40
0.6666666666666666
 40
0.6666666666666666
 40
0.75
 40
0.75
 40
0.75
 40
0.75
 40
0.8333333333333334
 40
0.8333333333333334
 40
0.8333333333333334
 40
0.8333333333333334
 40
0.9166666666666667
 40
0.9166666666666667
 40
0.9166666666666667
 40
0.9166666666666667
 40
1.0
 40
1.0
 40
1.0
 40
1.0
 10
-10.70313
 20
-14.5424
 30
0.0
 10
-10.70313
 20
-14.5424
 30
0.0
 10
-10.6766
 20
-14.5424
 30
0.0
 10
-10.6766
 20
-14.5424
 30
0.0
 10
-10.6766
 20
-14.5424
 30
0.0
 10
-10.6766
 20
-14.5424
 30
0.0
 10
-10.6766
 20
-14.58161
 30
0.0
 10
-10.6766
 20
-14.58161
 30
0.0
 10
-10.6766
 20
-14.58161
 30
0.0
 10
-10.6766
 20
-14.58161
 30
0.0
 10
-10.63747
 20
-14.58161
 30
0.0
 10
-10.63747
 20
-14.58161
 30
0.0
 10
-10.63747
 20
-14.58161
 30
0.0
 10
-10.63747
 20
-14.58161
 30
0.0
 10
-10.63747
 20
-14.5424
 30
0.0
 10
-10.63747
 20
-14.5424
 30
0.0
 10
-10.63747
 20
-14.5424
 30
0.0
 10
-10.63747
 20
-14.5424
 30
0.0
 10
-10.61094
 20
-14.5424
 30
0.0
 10
-10.61094
 20
-14.5424
 30
0.0
 10
-10.61094
 20
-14.5424
 30
0.0
 10
-10.61094
 20
-14.5424
 30
0.0
 10
-10.61094
 20
-14.64527
 30
0.0
 10
-10.61094
 20
-14.64527
 30
0.0
 10
-10.61094
 20
-14.64527
 30
0.0
 10
-10.61094
 20
-14.64527
 30
0.0
 10
-10.63747
 20
-14.64527
 30
0.0
 10
-10.63747
 20
-14.64527
 30
0.0
 10
-10.63747
 20
-14.64527
 30
0.0
 10
-10.63747
 20
-14.64527
 30
0.0
 10
-10.63747
 20
-14.60167
 30
0.0
 10
-10.63747
 20
-14.60167
 30
0.0
 10
-10.63747
 20
-14.60167
 30
0.0
 10
-10.63747
 20
-14.60167
 30
0.0
 10
-10.6766
 20
-14.60167
 30
0.0
 10
-10.6766
 20
-14.60167
 30
0.0
 10
-10.6766
 20
-14.60167
 30
0.0
 10
-10.6766
 20
-14.60167
 30
0.0
 10
-10.6766
 20
-14.64527
 30
0.0
 10
-10.6766
 20
-14.64527
 30
0.0
 10
-10.6766
 20
-14.64527
 30
0.0
 10
-10.6766
 20
-14.64527
 30
0.0
 10
-10.70313
 20
-14.64527
 30
0.0
 10
-10.70313
 20
-14.64527
 30
0.0
 10
-10.70313
 20
-14.64527
 30
0.0
 10
-10.70313
 20
-14.64527
 30
0.0
 10
-10.70313
 20
-14.5424
 30
0.0
 10
-10.70313
 20
-14.5424
 30
0.0
  0
SPLINE
  5
71
330
1F
100
AcDbEntity
  8
Layer 1
 62
   250
100
AcDbSpline
210
0.0
220
0.0
230
1.0
 70
    11
 71
     3
 72
    20
 73
    16
 74
     0
 42
0.0000000001
 43
0.0000000001
 40
0.0
 40
0.0
 40
0.0
 40
0.0
 40
0.25
 40
0.25
 40
0.25
 40
0.25
 40
0.5
 40
0.5
 40
0.5
 40
0.5
 40
0.75
 40
0.75
 40
0.75
 40
0.75
 40
1.0
 40
1.0
 40
1.0
 40
1.0
 10
-10.58504
 20
-14.5424
 30
0.0
 10
-10.58504
 20
-14.5424
 30
0.0
 10
-10.55851
 20
-14.5424
 30
0.0
 10
-10.55851
 20
-14.5424
 30
0.0
 10
-10.55851
 20
-14.5424
 30
0.0
 10
-10.55851
 20
-14.5424
 30
0.0
 10
-10.55851
 20
-14.64527
 30
0.0
 10
-10.55851
 20
-14.64527
 30
0.0
 10
-10.55851
 20
-14.64527
 30
0.0
 10
-10.55851
 20
-14.64527
 30
0.0
 10
-10.58504
 20
-14.64527
 30
0.0
 10
-10.58504
 20
-14.64527
 30
0.0
 10
-10.58504
 20
-14.64527
 30
0.0
 10
-10.58504
 20
-14.64527
 30
0.0
 10
-10.58504
 20
-14.5424
 30
0.0
 10
-10.58504
 20
-14.5424
 30
0.0
  0
SPLINE
  5
72
330
1F
100
AcDbEntity
  8
Layer 1
 62
   250
100
AcDbSpline
210
0.0
220
0.0
230
1.0
 70
    11
 71
     3
 72
    36
 73
    32
 74
     0
 42
0.0000000001
 43
0.0000000001
 40
0.0
 40
0.0
 40
0.0
 40
0.0
 40
0.125
 40
0.125
 40
0.125
 40
0.125
 40
0.25
 40
0.25
 40
0.25
 40
0.25
 40
0.375
 40
0.375
 40
0.375
 40
0.375
 40
0.5
 40
0.5
 40
0.5
 40
0.5
 40
0.625
 40
0.625
 40
0.625
 40
0.625
 40
0.75
 40
0.75
 40
0.75
 40
0.75
 40
0.875
 40
0.875
 40
0.875
 40
0.875
 40
1.0
 40
1.0
 40
1.0
 40
1.0
 10
-10.54483
 20
-14.5424
 30
0.0
 10
-10.54483
 20
-14.5424
 30
0.0
 10
-10.45003
 20
-14.5424
 30
0.0
 10
-10.45003
 20
-14.5424
 30
0.0
 10
-10.45003
 20
-14.5424
 30
0.0
 10
-10.45003
 20
-14.5424
 30
0.0
 10
-10.45003
 20
-14.56246
 30
0.0
 10
-10.45003
 20
-14.56246
 30
0.0
 10
-10.45003
 20
-14.56246
 30
0.0
 10
-10.45003
 20
-14.56246
 30
0.0
 10
-10.48413
 20
-14.56246
 30
0.0
 10
-10.48413
 20
-14.56246
 30
0.0
 10
-10.48413
 20
-14.56246
 30
0.0
 10
-10.48413
 20
-14.56246
 30
0.0
 10
-10.48413
 20
-14.64527
 30
0.0
 10
-10.48413
 20
-14.64527
 30
0.0
 10
-10.48413
 20
-14.64527
 30
0.0
 10
-10.48413
 20
-14.64527
 30
0.0
 10
-10.51066
 20
-14.64527
 30
0.0
 10
-10.51066
 20
-14.64527
 30
0.0
 10
-10.51066
 20
-14.64527
 30
0.0
 10
-10.51066
 20
-14.64527
 30
0.0
 10
-10.51066
 20
-14.56246
 30
0.0
 10
-10.51066
 20
-14.56246
 30
0.0
 10
-10.51066
 20
-14.56246
 30
0.0
 10
-10.51066
 20
-14.56246
 30
0.0
 10
-10.54483
 20
-14.56246
 30
0.0
 10
-10.54483
 20
-14.56246
 30
0.0
 10
-10.54483
 20
-14.56246
 30
0.0
 10
-10.54483
 20
-14.56246
 30
0.0
 10
-10.54483
 20
-14.5424
 30
0.0
 10
-10.54483
 20
-14.5424
 30
0.0
  0
SPLINE
  5
73
330
1F
100
AcDbEntity
  8
Layer 1
 62
   250
100
AcDbSpline
210
0.0
220
0.0
230
1.0
 70
    11
 71
     3
 72
    52
 73
    48
 74
     0
 42
0.0000000001
 43
0.0000000001
 40
0.0
 40
0.0
 40
0.0
 40
0.0
 40
0.0833333333333333
 40
0.0833333333333333
 40
0.0833333333333333
 40
0.0833333333333333
 40
0.1666666666666667
 40
0.1666666666666667
 40
0.1666666666666667
 40
0.1666666666666667
 40
0.25
 40
0.25
 40
0.25
 40
0.25
 40
0.3333333333333333
 40
0.3333333333333333
 40
0.3333333333333333
 40
0.3333333333333333
 40
0.4166666666666666
 40
0.4166666666666666
 40
0.4166666666666666
 40
0.4166666666666666
 40
0.4999999999999999
 40
0.4999999999999999
 40
0.4999999999999999
 40
0.4999999999999999
 40
0.5833333333333333
 40
0.5833333333333333
 40
0.5833333333333333
 40
0.5833333333333333
 40
0.6666666666666666
 40
0.6666666666666666
 40
0.6666666666666666
 40
0.6666666666666666
 40
0.75
 40
0.75
 40
0.75
 40
0.75
 40
0.8333333333333334
 40
0.8333333333333334
 40
0.8333333333333334
 40
0.8333333333333334
 40
0.9166666666666667
 40
0.9166666666666667
 40
0.9166666666666667
 40
0.9166666666666667
 40
1.0
 40
1.0
 40
1.0
 40
1.0
 10
-10.43629
 20
-14.5424
 30
0.0
 10
-10.43629
 20
-14.5424
 30
0.0
 10
-10.3647
 20
-14.5424
 30
0.0
 10
-10.3647
 20
-14.5424
 30
0.0
 10
-10.3647
 20
-14.5424
 30
0.0
 10
-10.3647
 20
-14.5424
 30
0.0
 10
-10.3647
 20
-14.56246
 30
0.0
 10
-10.3647
 20
-14.56246
 30
0.0
 10
-10.3647
 20
-14.56246
 30
0.0
 10
-10.3647
 20
-14.56246
 30
0.0
 10
-10.40976
 20
-14.56246
 30
0.0
 10
-10.40976
 20
-14.56246
 30
0.0
 10
-10.40976
 20
-14.56246
 30
0.0
 10
-10.40976
 20
-14.56246
 30
0.0
 10
-10.40976
 20
-14.58161
 30
0.0
 10
-10.40976
 20
-14.58161
 30
0.0
 10
-10.40976
 20
-14.58161
 30
0.0
 10
-10.40976
 20
-14.58161
 30
0.0
 10
-10.36741
 20
-14.58161
 30
0.0
 10
-10.36741
 20
-14.58161
 30
0.0
 10
-10.36741
 20
-14.58161
 30
0.0
 10
-10.36741
 20
-14.58161
 30
0.0
 10
-10.36741
 20
-14.60167
 30
0.0
 10
-10.36741
 20
-14.60167
 30
0.0
 10
-10.36741
 20
-14.60167
 30
0.0
 10
-10.36741
 20
-14.60167
 30
0.0
 10
-10.40976
 20
-14.60167
 30
0.0
 10
-10.40976
 20
-14.60167
 30
0.0
 10
-10.40976
 20
-14.60167
 30
0.0
 10
-10.40976
 20
-14.60167
 30
0.0
 10
-10.40976
 20
-14.62521
 30
0.0
 10
-10.40976
 20
-14.62521
 30
0.0
 10
-10.40976
 20
-14.62521
 30
0.0
 10
-10.40976
 20
-14.62521
 30
0.0
 10
-10.3632
 20
-14.62521
 30
0.0
 10
-10.3632
 20
-14.62521
 30
0.0
 10
-10.3632
 20
-14.62521
 30
0.0
 10
-10.3632
 20
-14.62521
 30
0.0
 10
-10.3632
 20
-14.64527
 30
0.0
 10
-10.3632
 20
-14.64527
 30
0.0
 10
-10.3632
 20
-14.64527
 30
0.0
 10
-10.3632
 20
-14.64527
 30
0.0
 10
-10.43629
 20
-14.64527
 30
0.0
 10
-10.43629
 20
-14.64527
 30
0.0
 10
-10.43629
 20
-14.64527
 30
0.0
 10
-10.43629
 20
-14.64527
 30
0.0
 10
-10.43629
 20
-14.5424
 30
0.0
 10
-10.43629
 20
-14.5424
 30
0.0
  0
SPLINE
  5
74
330
1F
100
AcDbEntity
  8
Layer 1
 62
   250
100
AcDbSpline
210
0.0
220
0.0
230
1.0
 70
    11
 71
     3
 72
    52
 73
    48
 74
     0
 42
0.0000000001
 43
0.0000000001
 40
0.0
 40
0.0
 40
0.0
 40
0.0
 40
0.0833333333333333
 40
0.0833333333333333
 40
0.0833333333333333
 40
0.0833333333333333
 40
0.1666666666666667
 40
0.1666666666666667
 40
0.1666666666666667
 40
0.1666666666666667
 40
0.25
 40
0.25
 40
0.25
 40
0.25
 40
0.3333333333333333
 40
0.3333333333333333
 40
0.3333333333333333
 40
0.3333333333333333
 40
0.4166666666666666
 40
0.4166666666666666
 40
0.4166666666666666
 40
0.4166666666666666
 40
0.4999999999999999
 40
0.4999999999999999
 40
0.4999999999999999
 40
0.4999999999999999
 40
0.5833333333333333
 40
0.5833333333333333
 40
0.5833333333333333
 40
0.5833333333333333
 40
0.6666666666666666
 40
0.6666666666666666
 40
0.6666666666666666
 40
0.6666666666666666
 40
0.75
 40
0.75
 40
0.75
 40
0.75
 40
0.8333333333333334
 40
0.8333333333333334
 40
0.8333333333333334
 40
0.8333333333333334
 40
0.9166666666666667
 40
0.9166666666666667
 40
0.9166666666666667
 40
0.9166666666666667
 40
1.0
 40
1.0
 40
1.0
 40
1.0
 10
-10.29076
 20
-14.5424
 30
0.0
 10
-10.29076
 20
-14.5424
 30
0.0
 10
-10.26423
 20
-14.5424
 30
0.0
 10
-10.26423
 20
-14.5424
 30
0.0
 10
-10.26423
 20
-14.5424
 30
0.0
 10
-10.26423
 20
-14.5424
 30
0.0
 10
-10.26423
 20
-14.58161
 30
0.0
 10
-10.26423
 20
-14.58161
 30
0.0
 10
-10.26423
 20
-14.58161
 30
0.0
 10
-10.26423
 20
-14.58161
 30
0.0
 10
-10.2251
 20
-14.58161
 30
0.0
 10
-10.2251
 20
-14.58161
 30
0.0
 10
-10.2251
 20
-14.58161
 30
0.0
 10
-10.2251
 20
-14.58161
 30
0.0
 10
-10.2251
 20
-14.5424
 30
0.0
 10
-10.2251
 20
-14.5424
 30
0.0
 10
-10.2251
 20
-14.5424
 30
0.0
 10
-10.2251
 20
-14.5424
 30
0.0
 10
-10.19857
 20
-14.5424
 30
0.0
 10
-10.19857
 20
-14.5424
 30
0.0
 10
-10.19857
 20
-14.5424
 30
0.0
 10
-10.19857
 20
-14.5424
 30
0.0
 10
-10.19857
 20
-14.64527
 30
0.0
 10
-10.19857
 20
-14.64527
 30
0.0
 10
-10.19857
 20
-14.64527
 30
0.0
 10
-10.19857
 20
-14.64527
 30
0.0
 10
-10.2251
 20
-14.64527
 30
0.0
 10
-10.2251
 20
-14.64527
 30
0.0
 10
-10.2251
 20
-14.64527
 30
0.0
 10
-10.2251
 20
-14.64527
 30
0.0
 10
-10.2251
 20
-14.60167
 30
0.0
 10
-10.2251
 20
-14.60167
 30
0.0
 10
-10.2251
 20
-14.60167
 30
0.0
 10
-10.2251
 20
-14.60167
 30
0.0
 10
-10.26423
 20
-14.60167
 30
0.0
 10
-10.26423
 20
-14.60167
 30
0.0
 10
-10.26423
 20
-14.60167
 30
0.0
 10
-10.26423
 20
-14.60167
 30
0.0
 10
-10.26423
 20
-14.64527
 30
0.0
 10
-10.26423
 20
-14.64527
 30
0.0
 10
-10.26423
 20
-14.64527
 30
0.0
 10
-10.26423
 20
-14.64527
 30
0.0
 10
-10.29076
 20
-14.64527
 30
0.0
 10
-10.29076
 20
-14.64527
 30
0.0
 10
-10.29076
 20
-14.64527
 30
0.0
 10
-10.29076
 20
-14.64527
 30
0.0
 10
-10.29076
 20
-14.5424
 30
0.0
 10
-10.29076
 20
-14.5424
 30
0.0
  0
SPLINE
  5
75
330
1F
100
AcDbEntity
  8
Layer 1
 62
   250
100
AcDbSpline
210
0.0
220
0.0
230
1.0
 70
    11
 71
     3
 72
    52
 73
    48
 74
     0
 42
0.0000000001
 43
0.0000000001
 40
0.0
 40
0.0
 40
0.0
 40
0.0
 40
0.0833333333333333
 40
0.0833333333333333
 40
0.0833333333333333
 40
0.0833333333333333
 40
0.1666666666666667
 40
0.1666666666666667
 40
0.1666666666666667
 40
0.1666666666666667
 40
0.25
 40
0.25
 40
0.25
 40
0.25
 40
0.3333333333333333
 40
0.3333333333333333
 40
0.3333333333333333
 40
0.3333333333333333
 40
0.4166666666666666
 40
0.4166666666666666
 40
0.4166666666666666
 40
0.4166666666666666
 40
0.4999999999999999
 40
0.4999999999999999
 40
0.4999999999999999
 40
0.4999999999999999
 40
0.5833333333333333
 40
0.5833333333333333
 40
0.5833333333333333
 40
0.5833333333333333
 40
0.6666666666666666
 40
0.6666666666666666
 40
0.6666666666666666
 40
0.6666666666666666
 40
0.75
 40
0.75
 40
0.75
 40
0.75
 40
0.8333333333333334
 40
0.8333333333333334
 40
0.8333333333333334
 40
0.8333333333333334
 40
0.9166666666666667
 40
0.9166666666666667
 40
0.9166666666666667
 40
0.9166666666666667
 40
1.0
 40
1.0
 40
1.0
 40
1.0
 10
-10.17267
 20
-14.5424
 30
0.0
 10
-10.17267
 20
-14.5424
 30
0.0
 10
-10.10108
 20
-14.5424
 30
0.0
 10
-10.10108
 20
-14.5424
 30
0.0
 10
-10.10108
 20
-14.5424
 30
0.0
 10
-10.10108
 20
-14.5424
 30
0.0
 10
-10.10108
 20
-14.56246
 30
0.0
 10
-10.10108
 20
-14.56246
 30
0.0
 10
-10.10108
 20
-14.56246
 30
0.0
 10
-10.10108
 20
-14.56246
 30
0.0
 10
-10.14614
 20
-14.56246
 30
0.0
 10
-10.14614
 20
-14.56246
 30
0.0
 10
-10.14614
 20
-14.56246
 30
0.0
 10
-10.14614
 20
-14.56246
 30
0.0
 10
-10.14614
 20
-14.58161
 30
0.0
 10
-10.14614
 20
-14.58161
 30
0.0
 10
-10.14614
 20
-14.58161
 30
0.0
 10
-10.14614
 20
-14.58161
 30
0.0
 10
-10.10379
 20
-14.58161
 30
0.0
 10
-10.10379
 20
-14.58161
 30
0.0
 10
-10.10379
 20
-14.58161
 30
0.0
 10
-10.10379
 20
-14.58161
 30
0.0
 10
-10.10379
 20
-14.60167
 30
0.0
 10
-10.10379
 20
-14.60167
 30
0.0
 10
-10.10379
 20
-14.60167
 30
0.0
 10
-10.10379
 20
-14.60167
 30
0.0
 10
-10.14614
 20
-14.60167
 30
0.0
 10
-10.14614
 20
-14.60167
 30
0.0
 10
-10.14614
 20
-14.60167
 30
0.0
 10
-10.14614
 20
-14.60167
 30
0.0
 10
-10.14614
 20
-14.62521
 30
0.0
 10
-10.14614
 20
-14.62521
 30
0.0
 10
-10.14614
 20
-14.62521
 30
0.0
 10
-10.14614
 20
-14.62521
 30
0.0
 10
-10.09958
 20
-14.62521
 30
0.0
 10
-10.09958
 20
-14.62521
 30
0.0
 10
-10.09958
 20
-14.62521
 30
0.0
 10
-10.09958
 20
-14.62521
 30
0.0
 10
-10.09958
 20
-14.64527
 30
0.0
 10
-10.09958
 20
-14.64527
 30
0.0
 10
-10.09958
 20
-14.64527
 30
0.0
 10
-10.09958
 20
-14.64527
 30
0.0
 10
-10.17267
 20
-14.64527
 30
0.0
 10
-10.17267
 20
-14.64527
 30
0.0
 10
-10.17267
 20
-14.64527
 30
0.0
 10
-10.17267
 20
-14.64527
 30
0.0
 10
-10.17267
 20
-14.5424
 30
0.0
 10
-10.17267
 20
-14.5424
 30
0.0
  0
SPLINE
  5
76
330
1F
100
AcDbEntity
  8
Layer 1
 62
   250
100
AcDbSpline
210
0.0
220
0.0
230
1.0
 70
    11
 71
     3
 72
    36
 73
    32
 74
     0
 42
0.0000000001
 43
0.0000000001
 40
0.0
 40
0.0
 40
0.0
 40
0.0
 40
0.125
 40
0.125
 40
0.125
 40
0.125
 40
0.25
 40
0.25
 40
0.25
 40
0.25
 40
0.375
 40
0.375
 40
0.375
 40
0.375
 40
0.5
 40
0.5
 40
0.5
 40
0.5
 40
0.625
 40
0.625
 40
0.625
 40
0.625
 40
0.75
 40
0.75
 40
0.75
 40
0.75
 40
0.875
 40
0.875
 40
0.875
 40
0.875
 40
1.0
 40
1.0
 40
1.0
 40
1.0
 10
-10.01385
 20
-14.62655
 30
0.0
 10
-10.01385
 20
-14.62655
 30
0.0
 10
-10.05534
 20
-14.62655
 30
0.0
 10
-10.05534
 20
-14.62655
 30
0.0
 10
-10.05534
 20
-14.62655
 30
0.0
 10
-10.05534
 20
-14.62655
 30
0.0
 10
-10.06188
 20
-14.64527
 30
0.0
 10
-10.06188
 20
-14.64527
 30
0.0
 10
-10.06188
 20
-14.64527
 30
0.0
 10
-10.06188
 20
-14.64527
 30
0.0
 10
-10.08855
 20
-14.64527
 30
0.0
 10
-10.08855
 20
-14.64527
 30
0.0
 10
-10.08855
 20
-14.64527
 30
0.0
 10
-10.08855
 20
-14.64527
 30
0.0
 10
-10.05045
 20
-14.5424
 30
0.0
 10
-10.05045
 20
-14.5424
 30
0.0
 10
-10.05045
 20
-14.5424
 30
0.0
 10
-10.05045
 20
-14.5424
 30
0.0
 10
-10.01882
 20
-14.5424
 30
0.0
 10
-10.01882
 20
-14.5424
 30
0.0
 10
-10.01882
 20
-14.5424
 30
0.0
 10
-10.01882
 20
-14.5424
 30
0.0
 10
-9.98072
 20
-14.64527
 30
0.0
 10
-9.98072
 20
-14.64527
 30
0.0
 10
-9.98072
 20
-14.64527
 30
0.0
 10
-9.98072
 20
-14.64527
 30
0.0
 10
-10.00739
 20
-14.64527
 30
0.0
 10
-10.00739
 20
-14.64527
 30
0.0
 10
-10.00739
 20
-14.64527
 30
0.0
 10
-10.00739
 20
-14.64527
 30
0.0
 10
-10.01385
 20
-14.62655
 30
0.0
 10
-10.01385
 20
-14.62655
 30
0.0
  0
SPLINE
  5
77
330
1F
100
AcDbEntity
  8
Layer 1
 62
   250
100
AcDbSpline
210
0.0
220
0.0
230
1.0
 70
    11
 71
     3
 72
    16
 73
    12
 74
     0
 42
0.0000000001
 43
0.0000000001
 40
0.0
 40
0.0
 40
0.0
 40
0.0
 40
0.3333333333333333
 40
0.3333333333333333
 40
0.3333333333333333
 40
0.3333333333333333
 40
0.6666666666666666
 40
0.6666666666666666
 40
0.6666666666666666
 40
0.6666666666666666
 40
1.0
 40
1.0
 40
1.0
 40
1.0
 10
-10.04873
 20
-14.60745
 30
0.0
 10
-10.04873
 20
-14.60745
 30
0.0
 10
-10.02053
 20
-14.60745
 30
0.0
 10
-10.02053
 20
-14.60745
 30
0.0
 10
-10.02053
 20
-14.60745
 30
0.0
 10
-10.02053
 20
-14.60745
 30
0.0
 10
-10.0346
 20
-14.56653
 30
0.0
 10
-10.0346
 20
-14.56653
 30
0.0
 10
-10.0346
 20
-14.56653
 30
0.0
 10
-10.0346
 20
-14.56653
 30
0.0
 10
-10.04873
 20
-14.60745
 30
0.0
 10
-10.04873
 20
-14.60745
 30
0.0
  0
SPLINE
  5
78
330
1F
100
AcDbEntity
  8
Layer 1
 62
   250
100
AcDbSpline
210
0.0
220
0.0
230
1.0
 70
    11
 71
     3
 72
    32
 73
    28
 74
     0
 42
0.0000000001
 43
0.0000000001
 40
0.0
 40
0.0
 40
0.0
 40
0.0
 40
0.1428571428571428
 40
0.1428571428571428
 40
0.1428571428571428
 40
0.1428571428571428
 40
0.2857142857142857
 40
0.2857142857142857
 40
0.2857142857142857
 40
0.2857142857142857
 40
0.4285714285714285
 40
0.4285714285714285
 40
0.4285714285714285
 40
0.4285714285714285
 40
0.5714285714285714
 40
0.5714285714285714
 40
0.5714285714285714
 40
0.5714285714285714
 40
0.7142857142857142
 40
0.7142857142857142
 40
0.7142857142857142
 40
0.7142857142857142
 40
0.857142857142857
 40
0.857142857142857
 40
0.857142857142857
 40
0.857142857142857
 40
1.0
 40
1.0
 40
1.0
 40
1.0
 10
-9.94052
 20
-14.56246
 30
0.0
 10
-9.94052
 20
-14.56246
 30
0.0
 10
-9.94052
 20
-14.62521
 30
0.0
 10
-9.94052
 20
-14.62521
 30
0.0
 10
-9.94052
 20
-14.62521
 30
0.0
 10
-9.94052
 20
-14.62521
 30
0.0
 10
-9.93102
 20
-14.62521
 30
0.0
 10
-9.93102
 20
-14.62521
 30
0.0
 10
-9.93102
 20
-14.62521
 30
0.0
 10
-9.92018
 20
-14.62521
 30
0.0
 10
-9.9119
 20
-14.62253
 30
0.0
 10
-9.90619
 20
-14.61714
 30
0.0
 10
-9.90619
 20
-14.61714
 30
0.0
 10
-9.90047
 20
-14.61178
 30
0.0
 10
-9.8976
 20
-14.60397
 30
0.0
 10
-9.8976
 20
-14.59374
 30
0.0
 10
-9.8976
 20
-14.59374
 30
0.0
 10
-9.8976
 20
-14.58353
 30
0.0
 10
-9.90045
 20
-14.57577
 30
0.0
 10
-9.90614
 20
-14.57046
 30
0.0
 10
-9.90614
 20
-14.57046
 30
0.0
 10
-9.91183
 20
-14.56512
 30
0.0
 10
-9.92013
 20
-14.56246
 30
0.0
 10
-9.93102
 20
-14.56246
 30
0.0
 10
-9.93102
 20
-14.56246
 30
0.0
 10
-9.93102
 20
-14.56246
 30
0.0
 10
-9.94052
 20
-14.56246
 30
0.0
 10
-9.94052
 20
-14.56246
 30
0.0
  0
SPLINE
  5
79
330
1F
100
AcDbEntity
  8
Layer 1
 62
   250
100
AcDbSpline
210
0.0
220
0.0
230
1.0
 70
    11
 71
     3
 72
    48
 73
    44
 74
     0
 42
0.0000000001
 43
0.0000000001
 40
0.0
 40
0.0
 40
0.0
 40
0.0
 40
0.0909090909090909
 40
0.0909090909090909
 40
0.0909090909090909
 40
0.0909090909090909
 40
0.1818181818181818
 40
0.1818181818181818
 40
0.1818181818181818
 40
0.1818181818181818
 40
0.2727272727272727
 40
0.2727272727272727
 40
0.2727272727272727
 40
0.2727272727272727
 40
0.3636363636363636
 40
0.3636363636363636
 40
0.3636363636363636
 40
0.3636363636363636
 40
0.4545454545454546
 40
0.4545454545454546
 40
0.4545454545454546
 40
0.4545454545454546
 40
0.5454545454545455
 40
0.5454545454545455
 40
0.5454545454545455
 40
0.5454545454545455
 40
0.6363636363636365
 40
0.6363636363636365
 40
0.6363636363636365
 40
0.6363636363636365
 40
0.7272727272727274
 40
0.7272727272727274
 40
0.7272727272727274
 40
0.7272727272727274
 40
0.8181818181818183
 40
0.8181818181818183
 40
0.8181818181818183
 40
0.8181818181818183
 40
0.9090909090909093
 40
0.9090909090909093
 40
0.9090909090909093
 40
0.9090909090909093
 40
1.0
 40
1.0
 40
1.0
 40
1.0
 10
-9.96705
 20
-14.5424
 30
0.0
 10
-9.96705
 20
-14.5424
 30
0.0
 10
-9.93906
 20
-14.5424
 30
0.0
 10
-9.93906
 20
-14.5424
 30
0.0
 10
-9.93906
 20
-14.5424
 30
0.0
 10
-9.92345
 20
-14.5424
 30
0.0
 10
-9.91183
 20
-14.54351
 30
0.0
 10
-9.90419
 20
-14.54574
 30
0.0
 10
-9.90419
 20
-14.54574
 30
0.0
 10
-9.89654
 20
-14.54797
 30
0.0
 10
-9.88998
 20
-14.55174
 30
0.0
 10
-9.8845
 20
-14.55708
 30
0.0
 10
-9.8845
 20
-14.55708
 30
0.0
 10
-9.87968
 20
-14.56171
 30
0.0
 10
-9.87611
 20
-14.56707
 30
0.0
 10
-9.87375
 20
-14.57314
 30
0.0
 10
-9.87375
 20
-14.57314
 30
0.0
 10
-9.87143
 20
-14.57918
 30
0.0
 10
-9.87025
 20
-14.58605
 30
0.0
 10
-9.87025
 20
-14.59374
 30
0.0
 10
-9.87025
 20
-14.59374
 30
0.0
 10
-9.87025
 20
-14.6015
 30
0.0
 10
-9.87143
 20
-14.60842
 30
0.0
 10
-9.87375
 20
-14.61451
 30
0.0
 10
-9.87375
 20
-14.61451
 30
0.0
 10
-9.87611
 20
-14.6206
 30
0.0
 10
-9.87968
 20
-14.62596
 30
0.0
 10
-9.8845
 20
-14.63059
 30
0.0
 10
-9.8845
 20
-14.63059
 30
0.0
 10
-9.89003
 20
-14.63593
 30
0.0
 10
-9.89664
 20
-14.6397
 30
0.0
 10
-9.90435
 20
-14.64193
 30
0.0
 10
-9.90435
 20
-14.64193
 30
0.0
 10
-9.91207
 20
-14.64416
 30
0.0
 10
-9.92364
 20
-14.64527
 30
0.0
 10
-9.93906
 20
-14.64527
 30
0.0
 10
-9.93906
 20
-14.64527
 30
0.0
 10
-9.93906
 20
-14.64527
 30
0.0
 10
-9.96705
 20
-14.64527
 30
0.0
 10
-9.96705
 20
-14.64527
 30
0.0
 10
-9.96705
 20
-14.64527
 30
0.0
 10
-9.96705
 20
-14.64527
 30
0.0
 10
-9.96705
 20
-14.5424
 30
0.0
 10
-9.96705
 20
-14.5424
 30
0.0
  0
SPLINE
  5
7A
330
1F
100
AcDbEntity
  8
Layer 1
 62
   250
100
AcDbSpline
210
0.0
220
0.0
230
1.0
 70
    11
 71
     3
 72
    52
 73
    48
 74
     0
 42
0.0000000001
 43
0.0000000001
 40
0.0
 40
0.0
 40
0.0
 40
0.0
 40
0.0833333333333333
 40
0.0833333333333333
 40
0.0833333333333333
 40
0.0833333333333333
 40
0.1666666666666667
 40
0.1666666666666667
 40
0.1666666666666667
 40
0.1666666666666667
 40
0.25
 40
0.25
 40
0.25
 40
0.25
 40
0.3333333333333333
 40
0.3333333333333333
 40
0.3333333333333333
 40
0.3333333333333333
 40
0.4166666666666666
 40
0.4166666666666666
 40
0.4166666666666666
 40
0.4166666666666666
 40
0.4999999999999999
 40
0.4999999999999999
 40
0.4999999999999999
 40
0.4999999999999999
 40
0.5833333333333333
 40
0.5833333333333333
 40
0.5833333333333333
 40
0.5833333333333333
 40
0.6666666666666666
 40
0.6666666666666666
 40
0.6666666666666666
 40
0.6666666666666666
 40
0.75
 40
0.75
 40
0.75
 40
0.75
 40
0.8333333333333334
 40
0.8333333333333334
 40
0.8333333333333334
 40
0.8333333333333334
 40
0.9166666666666667
 40
0.9166666666666667
 40
0.9166666666666667
 40
0.9166666666666667
 40
1.0
 40
1.0
 40
1.0
 40
1.0
 10
-9.84993
 20
-14.5424
 30
0.0
 10
-9.84993
 20
-14.5424
 30
0.0
 10
-9.77834
 20
-14.5424
 30
0.0
 10
-9.77834
 20
-14.5424
 30
0.0
 10
-9.77834
 20
-14.5424
 30
0.0
 10
-9.77834
 20
-14.5424
 30
0.0
 10
-9.77834
 20
-14.56246
 30
0.0
 10
-9.77834
 20
-14.56246
 30
0.0
 10
-9.77834
 20
-14.56246
 30
0.0
 10
-9.77834
 20
-14.56246
 30
0.0
 10
-9.8234
 20
-14.56246
 30
0.0
 10
-9.8234
 20
-14.56246
 30
0.0
 10
-9.8234
 20
-14.56246
 30
0.0
 10
-9.8234
 20
-14.56246
 30
0.0
 10
-9.8234
 20
-14.58161
 30
0.0
 10
-9.8234
 20
-14.58161
 30
0.0
 10
-9.8234
 20
-14.58161
 30
0.0
 10
-9.8234
 20
-14.58161
 30
0.0
 10
-9.78105
 20
-14.58161
 30
0.0
 10
-9.78105
 20
-14.58161
 30
0.0
 10
-9.78105
 20
-14.58161
 30
0.0
 10
-9.78105
 20
-14.58161
 30
0.0
 10
-9.78105
 20
-14.60167
 30
0.0
 10
-9.78105
 20
-14.60167
 30
0.0
 10
-9.78105
 20
-14.60167
 30
0.0
 10
-9.78105
 20
-14.60167
 30
0.0
 10
-9.8234
 20
-14.60167
 30
0.0
 10
-9.8234
 20
-14.60167
 30
0.0
 10
-9.8234
 20
-14.60167
 30
0.0
 10
-9.8234
 20
-14.60167
 30
0.0
 10
-9.8234
 20
-14.62521
 30
0.0
 10
-9.8234
 20
-14.62521
 30
0.0
 10
-9.8234
 20
-14.62521
 30
0.0
 10
-9.8234
 20
-14.62521
 30
0.0
 10
-9.77684
 20
-14.62521
 30
0.0
 10
-9.77684
 20
-14.62521
 30
0.0
 10
-9.77684
 20
-14.62521
 30
0.0
 10
-9.77684
 20
-14.62521
 30
0.0
 10
-9.77684
 20
-14.64527
 30
0.0
 10
-9.77684
 20
-14.64527
 30
0.0
 10
-9.77684
 20
-14.64527
 30
0.0
 10
-9.77684
 20
-14.64527
 30
0.0
 10
-9.84993
 20
-14.64527
 30
0.0
 10
-9.84993
 20
-14.64527
 30
0.0
 10
-9.84993
 20
-14.64527
 30
0.0
 10
-9.84993
 20
-14.64527
 30
0.0
 10
-9.84993
 20
-14.5424
 30
0.0
 10
-9.84993
 20
-14.5424
 30
0.0
  0
SPLINE
  5
7B
330
1F
100
AcDbEntity
  8
Layer 1
 62
   250
100
AcDbSpline
210
0.0
220
0.0
230
1.0
 70
    11
 71
     3
 72
    32
 73
    28
 74
     0
 42
0.0000000001
 43
0.0000000001
 40
0.0
 40
0.0
 40
0.0
 40
0.0
 40
0.1428571428571428
 40
0.1428571428571428
 40
0.1428571428571428
 40
0.1428571428571428
 40
0.2857142857142857
 40
0.2857142857142857
 40
0.2857142857142857
 40
0.2857142857142857
 40
0.4285714285714285
 40
0.4285714285714285
 40
0.4285714285714285
 40
0.4285714285714285
 40
0.5714285714285714
 40
0.5714285714285714
 40
0.5714285714285714
 40
0.5714285714285714
 40
0.7142857142857142
 40
0.7142857142857142
 40
0.7142857142857142
 40
0.7142857142857142
 40
0.857142857142857
 40
0.857142857142857
 40
0.857142857142857
 40
0.857142857142857
 40
1.0
 40
1.0
 40
1.0
 40
1.0
 10
-9.71583
 20
-14.58803
 30
0.0
 10
-9.71028
 20
-14.58803
 30
0.0
 10
-9.70628
 20
-14.58699
 30
0.0
 10
-9.70388
 20
-14.58492
 30
0.0
 10
-9.70388
 20
-14.58492
 30
0.0
 10
-9.70146
 20
-14.58285
 30
0.0
 10
-9.70026
 20
-14.57944
 30
0.0
 10
-9.70026
 20
-14.57471
 30
0.0
 10
-9.70026
 20
-14.57471
 30
0.0
 10
-9.70026
 20
-14.57003
 30
0.0
 10
-9.70146
 20
-14.56667
 30
0.0
 10
-9.70388
 20
-14.56465
 30
0.0
 10
-9.70388
 20
-14.56465
 30
0.0
 10
-9.70628
 20
-14.56263
 30
0.0
 10
-9.71028
 20
-14.56162
 30
0.0
 10
-9.71583
 20
-14.56162
 30
0.0
 10
-9.71583
 20
-14.56162
 30
0.0
 10
-9.71583
 20
-14.56162
 30
0.0
 10
-9.727
 20
-14.56162
 30
0.0
 10
-9.727
 20
-14.56162
 30
0.0
 10
-9.727
 20
-14.56162
 30
0.0
 10
-9.727
 20
-14.56162
 30
0.0
 10
-9.727
 20
-14.58803
 30
0.0
 10
-9.727
 20
-14.58803
 30
0.0
 10
-9.727
 20
-14.58803
 30
0.0
 10
-9.727
 20
-14.58803
 30
0.0
 10
-9.71583
 20
-14.58803
 30
0.0
 10
-9.71583
 20
-14.58803
 30
0.0
  0
SPLINE
  5
7C
330
1F
100
AcDbEntity
  8
Layer 1
 62
   250
100
AcDbSpline
210
0.0
220
0.0
230
1.0
 70
    11
 71
     3
 72
    68
 73
    64
 74
     0
 42
0.0000000001
 43
0.0000000001
 40
0.0
 40
0.0
 40
0.0
 40
0.0
 40
0.0625
 40
0.0625
 40
0.0625
 40
0.0625
 40
0.125
 40
0.125
 40
0.125
 40
0.125
 40
0.1875
 40
0.1875
 40
0.1875
 40
0.1875
 40
0.25
 40
0.25
 40
0.25
 40
0.25
 40
0.3125
 40
0.3125
 40
0.3125
 40
0.3125
 40
0.375
 40
0.375
 40
0.375
 40
0.375
 40
0.4375
 40
0.4375
 40
0.4375
 40
0.4375
 40
0.5
 40
0.5
 40
0.5
 40
0.5
 40
0.5625
 40
0.5625
 40
0.5625
 40
0.5625
 40
0.625
 40
0.625
 40
0.625
 40
0.625
 40
0.6875
 40
0.6875
 40
0.6875
 40
0.6875
 40
0.75
 40
0.75
 40
0.75
 40
0.75
 40
0.8125
 40
0.8125
 40
0.8125
 40
0.8125
 40
0.875
 40
0.875
 40
0.875
 40
0.875
 40
0.9375
 40
0.9375
 40
0.9375
 40
0.9375
 40
1.0
 40
1.0
 40
1.0
 40
1.0
 10
-9.727
 20
-14.60635
 30
0.0
 10
-9.727
 20
-14.60635
 30
0.0
 10
-9.727
 20
-14.64527
 30
0.0
 10
-9.727
 20
-14.64527
 30
0.0
 10
-9.727
 20
-14.64527
 30
0.0
 10
-9.727
 20
-14.64527
 30
0.0
 10
-9.75353
 20
-14.64527
 30
0.0
 10
-9.75353
 20
-14.64527
 30
0.0
 10
-9.75353
 20
-14.64527
 30
0.0
 10
-9.75353
 20
-14.64527
 30
0.0
 10
-9.75353
 20
-14.5424
 30
0.0
 10
-9.75353
 20
-14.5424
 30
0.0
 10
-9.75353
 20
-14.5424
 30
0.0
 10
-9.75353
 20
-14.5424
 30
0.0
 10
-9.71301
 20
-14.5424
 30
0.0
 10
-9.71301
 20
-14.5424
 30
0.0
 10
-9.71301
 20
-14.5424
 30
0.0
 10
-9.69946
 20
-14.5424
 30
0.0
 10
-9.68951
 20
-14.54468
 30
0.0
 10
-9.68321
 20
-14.54922
 30
0.0
 10
-9.68321
 20
-14.54922
 30
0.0
 10
-9.67689
 20
-14.55376
 30
0.0
 10
-9.67373
 20
-14.56096
 30
0.0
 10
-9.67373
 20
-14.57079
 30
0.0
 10
-9.67373
 20
-14.57079
 30
0.0
 10
-9.67373
 20
-14.57758
 30
0.0
 10
-9.67538
 20
-14.58318
 30
0.0
 10
-9.67865
 20
-14.58753
 30
0.0
 10
-9.67865
 20
-14.58753
 30
0.0
 10
-9.68194
 20
-14.59191
 30
0.0
 10
-9.6869
 20
-14.59513
 30
0.0
 10
-9.69351
 20
-14.59718
 30
0.0
 10
-9.69351
 20
-14.59718
 30
0.0
 10
-9.68989
 20
-14.59802
 30
0.0
 10
-9.68662
 20
-14.59988
 30
0.0
 10
-9.68375
 20
-14.6028
 30
0.0
 10
-9.68375
 20
-14.6028
 30
0.0
 10
-9.68088
 20
-14.60571
 30
0.0
 10
-9.67799
 20
-14.61013
 30
0.0
 10
-9.67505
 20
-14.61606
 30
0.0
 10
-9.67505
 20
-14.61606
 30
0.0
 10
-9.67505
 20
-14.61606
 30
0.0
 10
-9.66063
 20
-14.64527
 30
0.0
 10
-9.66063
 20
-14.64527
 30
0.0
 10
-9.66063
 20
-14.64527
 30
0.0
 10
-9.66063
 20
-14.64527
 30
0.0
 10
-9.6889
 20
-14.64527
 30
0.0
 10
-9.6889
 20
-14.64527
 30
0.0
 10
-9.6889
 20
-14.64527
 30
0.0
 10
-9.6889
 20
-14.64527
 30
0.0
 10
-9.70144
 20
-14.61971
 30
0.0
 10
-9.70144
 20
-14.61971
 30
0.0
 10
-9.70144
 20
-14.61971
 30
0.0
 10
-9.70395
 20
-14.61458
 30
0.0
 10
-9.70652
 20
-14.61105
 30
0.0
 10
-9.70913
 20
-14.60917
 30
0.0
 10
-9.70913
 20
-14.60917
 30
0.0
 10
-9.71172
 20
-14.60729
 30
0.0
 10
-9.71517
 20
-14.60635
 30
0.0
 10
-9.7195
 20
-14.60635
 30
0.0
 10
-9.7195
 20
-14.60635
 30
0.0
 10
-9.7195
 20
-14.60635
 30
0.0
 10
-9.727
 20
-14.60635
 30
0.0
 10
-9.727
 20
-14.60635
 30
0.0
  0
SPLINE
  5
7D
330
1F
100
AcDbEntity
  8
Layer 1
 62
   250
100
AcDbSpline
210
0.0
220
0.0
230
1.0
 70
    11
 71
     3
 72
    36
 73
    32
 74
     0
 42
0.0000000001
 43
0.0000000001
 40
0.0
 40
0.0
 40
0.0
 40
0.0
 40
0.125
 40
0.125
 40
0.125
 40
0.125
 40
0.25
 40
0.25
 40
0.25
 40
0.25
 40
0.375
 40
0.375
 40
0.375
 40
0.375
 40
0.5
 40
0.5
 40
0.5
 40
0.5
 40
0.625
 40
0.625
 40
0.625
 40
0.625
 40
0.75
 40
0.75
 40
0.75
 40
0.75
 40
0.875
 40
0.875
 40
0.875
 40
0.875
 40
1.0
 40
1.0
 40
1.0
 40
1.0
 10
-10.80107
 20
-15.46378
 30
0.0
 10
-10.80564
 20
-15.46378
 30
0.0
 10
-10.80909
 20
-15.46555
 30
0.0
 10
-10.81144
 20
-15.4691
 30
0.0
 10
-10.81144
 20
-15.4691
 30
0.0
 10
-10.81379
 20
-15.47265
 30
0.0
 10
-10.81496
 20
-15.47792
 30
0.0
 10
-10.81496
 20
-15.48487
 30
0.0
 10
-10.81496
 20
-15.48487
 30
0.0
 10
-10.81496
 20
-15.4918
 30
0.0
 10
-10.81379
 20
-15.49705
 30
0.0
 10
-10.81144
 20
-15.50062
 30
0.0
 10
-10.81144
 20
-15.50062
 30
0.0
 10
-10.80909
 20
-15.50419
 30
0.0
 10
-10.80564
 20
-15.50597
 30
0.0
 10
-10.80107
 20
-15.50597
 30
0.0
 10
-10.80107
 20
-15.50597
 30
0.0
 10
-10.79649
 20
-15.50597
 30
0.0
 10
-10.79302
 20
-15.50419
 30
0.0
 10
-10.79067
 20
-15.50062
 30
0.0
 10
-10.79067
 20
-15.50062
 30
0.0
 10
-10.78832
 20
-15.49705
 30
0.0
 10
-10.78716
 20
-15.4918
 30
0.0
 10
-10.78716
 20
-15.48487
 30
0.0
 10
-10.78716
 20
-15.48487
 30
0.0
 10
-10.78716
 20
-15.47792
 30
0.0
 10
-10.78832
 20
-15.47265
 30
0.0
 10
-10.79067
 20
-15.4691
 30
0.0
 10
-10.79067
 20
-15.4691
 30
0.0
 10
-10.79302
 20
-15.46555
 30
0.0
 10
-10.79649
 20
-15.46378
 30
0.0
 10
-10.80107
 20
-15.46378
 30
0.0
  0
SPLINE
  5
7E
330
1F
100
AcDbEntity
  8
Layer 1
 62
   250
100
AcDbSpline
210
0.0
220
0.0
230
1.0
 70
    11
 71
     3
 72
    36
 73
    32
 74
     0
 42
0.0000000001
 43
0.0000000001
 40
0.0
 40
0.0
 40
0.0
 40
0.0
 40
0.125
 40
0.125
 40
0.125
 40
0.125
 40
0.25
 40
0.25
 40
0.25
 40
0.25
 40
0.375
 40
0.375
 40
0.375
 40
0.375
 40
0.5
 40
0.5
 40
0.5
 40
0.5
 40
0.625
 40
0.625
 40
0.625
 40
0.625
 40
0.75
 40
0.75
 40
0.75
 40
0.75
 40
0.875
 40
0.875
 40
0.875
 40
0.875
 40
1.0
 40
1.0
 40
1.0
 40
1.0
 10
-10.80107
 20
-15.45616
 30
0.0
 10
-10.79349
 20
-15.45616
 30
0.0
 10
-10.78769
 20
-15.45861
 30
0.0
 10
-10.78367
 20
-15.46353
 30
0.0
 10
-10.78367
 20
-15.46353
 30
0.0
 10
-10.77965
 20
-15.46845
 30
0.0
 10
-10.77764
 20
-15.47557
 30
0.0
 10
-10.77764
 20
-15.48487
 30
0.0
 10
-10.77764
 20
-15.48487
 30
0.0
 10
-10.77764
 20
-15.49422
 30
0.0
 10
-10.77964
 20
-15.50134
 30
0.0
 10
-10.78364
 20
-15.50624
 30
0.0
 10
-10.78364
 20
-15.50624
 30
0.0
 10
-10.78766
 20
-15.51114
 30
0.0
 10
-10.79346
 20
-15.51359
 30
0.0
 10
-10.80107
 20
-15.51359
 30
0.0
 10
-10.80107
 20
-15.51359
 30
0.0
 10
-10.80867
 20
-15.51359
 30
0.0
 10
-10.81446
 20
-15.51114
 30
0.0
 10
-10.81848
 20
-15.50624
 30
0.0
 10
-10.81848
 20
-15.50624
 30
0.0
 10
-10.82248
 20
-15.50134
 30
0.0
 10
-10.82448
 20
-15.49422
 30
0.0
 10
-10.82448
 20
-15.48487
 30
0.0
 10
-10.82448
 20
-15.48487
 30
0.0
 10
-10.82448
 20
-15.47557
 30
0.0
 10
-10.82248
 20
-15.46845
 30
0.0
 10
-10.81848
 20
-15.46353
 30
0.0
 10
-10.81848
 20
-15.46353
 30
0.0
 10
-10.81446
 20
-15.45861
 30
0.0
 10
-10.80867
 20
-15.45616
 30
0.0
 10
-10.80107
 20
-15.45616
 30
0.0
  0
SPLINE
  5
7F
330
1F
100
AcDbEntity
  8
Layer 1
 62
   250
100
AcDbSpline
210
0.0
220
0.0
230
1.0
 70
    11
 71
     3
 72
    36
 73
    32
 74
     0
 42
0.0000000001
 43
0.0000000001
 40
0.0
 40
0.0
 40
0.0
 40
0.0
 40
0.125
 40
0.125
 40
0.125
 40
0.125
 40
0.25
 40
0.25
 40
0.25
 40
0.25
 40
0.375
 40
0.375
 40
0.375
 40
0.375
 40
0.5
 40
0.5
 40
0.5
 40
0.5
 40
0.625
 40
0.625
 40
0.625
 40
0.625
 40
0.75
 40
0.75
 40
0.75
 40
0.75
 40
0.875
 40
0.875
 40
0.875
 40
0.875
 40
1.0
 40
1.0
 40
1.0
 40
1.0
 10
-10.74086
 20
-15.46378
 30
0.0
 10
-10.74543
 20
-15.46378
 30
0.0
 10
-10.74888
 20
-15.46555
 30
0.0
 10
-10.75123
 20
-15.4691
 30
0.0
 10
-10.75123
 20
-15.4691
 30
0.0
 10
-10.75358
 20
-15.47265
 30
0.0
 10
-10.75475
 20
-15.47792
 30
0.0
 10
-10.75475
 20
-15.48487
 30
0.0
 10
-10.75475
 20
-15.48487
 30
0.0
 10
-10.75475
 20
-15.4918
 30
0.0
 10
-10.75358
 20
-15.49705
 30
0.0
 10
-10.75123
 20
-15.50062
 30
0.0
 10
-10.75123
 20
-15.50062
 30
0.0
 10
-10.74888
 20
-15.50419
 30
0.0
 10
-10.74543
 20
-15.50597
 30
0.0
 10
-10.74086
 20
-15.50597
 30
0.0
 10
-10.74086
 20
-15.50597
 30
0.0
 10
-10.73628
 20
-15.50597
 30
0.0
 10
-10.73281
 20
-15.50419
 30
0.0
 10
-10.73046
 20
-15.50062
 30
0.0
 10
-10.73046
 20
-15.50062
 30
0.0
 10
-10.72811
 20
-15.49705
 30
0.0
 10
-10.72695
 20
-15.4918
 30
0.0
 10
-10.72695
 20
-15.48487
 30
0.0
 10
-10.72695
 20
-15.48487
 30
0.0
 10
-10.72695
 20
-15.47792
 30
0.0
 10
-10.72811
 20
-15.47265
 30
0.0
 10
-10.73046
 20
-15.4691
 30
0.0
 10
-10.73046
 20
-15.4691
 30
0.0
 10
-10.73281
 20
-15.46555
 30
0.0
 10
-10.73628
 20
-15.46378
 30
0.0
 10
-10.74086
 20
-15.46378
 30
0.0
  0
SPLINE
  5
80
330
1F
100
AcDbEntity
  8
Layer 1
 62
   250
100
AcDbSpline
210
0.0
220
0.0
230
1.0
 70
    11
 71
     3
 72
    36
 73
    32
 74
     0
 42
0.0000000001
 43
0.0000000001
 40
0.0
 40
0.0
 40
0.0
 40
0.0
 40
0.125
 40
0.125
 40
0.125
 40
0.125
 40
0.25
 40
0.25
 40
0.25
 40
0.25
 40
0.375
 40
0.375
 40
0.375
 40
0.375
 40
0.5
 40
0.5
 40
0.5
 40
0.5
 40
0.625
 40
0.625
 40
0.625
 40
0.625
 40
0.75
 40
0.75
 40
0.75
 40
0.75
 40
0.875
 40
0.875
 40
0.875
 40
0.875
 40
1.0
 40
1.0
 40
1.0
 40
1.0
 10
-10.74086
 20
-15.45616
 30
0.0
 10
-10.73328
 20
-15.45616
 30
0.0
 10
-10.72748
 20
-15.45861
 30
0.0
 10
-10.72346
 20
-15.46353
 30
0.0
 10
-10.72346
 20
-15.46353
 30
0.0
 10
-10.71944
 20
-15.46845
 30
0.0
 10
-10.71743
 20
-15.47557
 30
0.0
 10
-10.71743
 20
-15.48487
 30
0.0
 10
-10.71743
 20
-15.48487
 30
0.0
 10
-10.71743
 20
-15.49422
 30
0.0
 10
-10.71943
 20
-15.50134
 30
0.0
 10
-10.72343
 20
-15.50624
 30
0.0
 10
-10.72343
 20
-15.50624
 30
0.0
 10
-10.72745
 20
-15.51114
 30
0.0
 10
-10.73325
 20
-15.51359
 30
0.0
 10
-10.74086
 20
-15.51359
 30
0.0
 10
-10.74086
 20
-15.51359
 30
0.0
 10
-10.74846
 20
-15.51359
 30
0.0
 10
-10.75425
 20
-15.51114
 30
0.0
 10
-10.75827
 20
-15.50624
 30
0.0
 10
-10.75827
 20
-15.50624
 30
0.0
 10
-10.76227
 20
-15.50134
 30
0.0
 10
-10.76427
 20
-15.49422
 30
0.0
 10
-10.76427
 20
-15.48487
 30
0.0
 10
-10.76427
 20
-15.48487
 30
0.0
 10
-10.76427
 20
-15.47557
 30
0.0
 10
-10.76227
 20
-15.46845
 30
0.0
 10
-10.75827
 20
-15.46353
 30
0.0
 10
-10.75827
 20
-15.46353
 30
0.0
 10
-10.75425
 20
-15.45861
 30
0.0
 10
-10.74846
 20
-15.45616
 30
0.0
 10
-10.74086
 20
-15.45616
 30
0.0
  0
SPLINE
  5
81
330
1F
100
AcDbEntity
  8
Layer 1
 62
   250
100
AcDbSpline
210
0.0
220
0.0
230
1.0
 70
    11
 71
     3
 72
   112
 73
   108
 74
     0
 42
0.0000000001
 43
0.0000000001
 40
0.0
 40
0.0
 40
0.0
 40
0.0
 40
0.037037037037037
 40
0.037037037037037
 40
0.037037037037037
 40
0.037037037037037
 40
0.0740740740740741
 40
0.0740740740740741
 40
0.0740740740740741
 40
0.0740740740740741
 40
0.1111111111111111
 40
0.1111111111111111
 40
0.1111111111111111
 40
0.1111111111111111
 40
0.1481481481481481
 40
0.1481481481481481
 40
0.1481481481481481
 40
0.1481481481481481
 40
0.1851851851851852
 40
0.1851851851851852
 40
0.1851851851851852
 40
0.1851851851851852
 40
0.2222222222222222
 40
0.2222222222222222
 40
0.2222222222222222
 40
0.2222222222222222
 40
0.2592592592592592
 40
0.2592592592592592
 40
0.2592592592592592
 40
0.2592592592592592
 40
0.2962962962962963
 40
0.2962962962962963
 40
0.2962962962962963
 40
0.2962962962962963
 40
0.3333333333333333
 40
0.3333333333333333
 40
0.3333333333333333
 40
0.3333333333333333
 40
0.3703703703703703
 40
0.3703703703703703
 40
0.3703703703703703
 40
0.3703703703703703
 40
0.4074074074074074
 40
0.4074074074074074
 40
0.4074074074074074
 40
0.4074074074074074
 40
0.4444444444444444
 40
0.4444444444444444
 40
0.4444444444444444
 40
0.4444444444444444
 40
0.4814814814814815
 40
0.4814814814814815
 40
0.4814814814814815
 40
0.4814814814814815
 40
0.5185185185185185
 40
0.5185185185185185
 40
0.5185185185185185
 40
0.5185185185185185
 40
0.5555555555555556
 40
0.5555555555555556
 40
0.5555555555555556
 40
0.5555555555555556
 40
0.5925925925925926
 40
0.5925925925925926
 40
0.5925925925925926
 40
0.5925925925925926
 40
0.6296296296296295
 40
0.6296296296296295
 40
0.6296296296296295
 40
0.6296296296296295
 40
0.6666666666666665
 40
0.6666666666666665
 40
0.6666666666666665
 40
0.6666666666666665
 40
0.7037037037037035
 40
0.7037037037037035
 40
0.7037037037037035
 40
0.7037037037037035
 40
0.7407407407407405
 40
0.7407407407407405
 40
0.7407407407407405
 40
0.7407407407407405
 40
0.7777777777777775
 40
0.7777777777777775
 40
0.7777777777777775
 40
0.7777777777777775
 40
0.8148148148148144
 40
0.8148148148148144
 40
0.8148148148148144
 40
0.8148148148148144
 40
0.8518518518518514
 40
0.8518518518518514
 40
0.8518518518518514
 40
0.8518518518518514
 40
0.8888888888888884
 40
0.8888888888888884
 40
0.8888888888888884
 40
0.8888888888888884
 40
0.9259259259259254
 40
0.9259259259259254
 40
0.9259259259259254
 40
0.9259259259259254
 40
0.9629629629629624
 40
0.9629629629629624
 40
0.9629629629629624
 40
0.9629629629629624
 40
1.0
 40
1.0
 40
1.0
 40
1.0
 10
-10.67774
 20
-15.46305
 30
0.0
 10
-10.67664
 20
-15.4607
 30
0.0
 10
-10.67522
 20
-15.45896
 30
0.0
 10
-10.6735
 20
-15.45785
 30
0.0
 10
-10.6735
 20
-15.45785
 30
0.0
 10
-10.6718
 20
-15.45673
 30
0.0
 10
-10.66974
 20
-15.45616
 30
0.0
 10
-10.66734
 20
-15.45616
 30
0.0
 10
-10.66734
 20
-15.45616
 30
0.0
 10
-10.66294
 20
-15.45616
 30
0.0
 10
-10.65983
 20
-15.45786
 30
0.0
 10
-10.65803
 20
-15.46126
 30
0.0
 10
-10.65803
 20
-15.46126
 30
0.0
 10
-10.65622
 20
-15.46467
 30
0.0
 10
-10.65532
 20
-15.47107
 30
0.0
 10
-10.65532
 20
-15.48048
 30
0.0
 10
-10.65532
 20
-15.48048
 30
0.0
 10
-10.65532
 20
-15.48048
 30
0.0
 10
-10.65532
 20
-15.51217
 30
0.0
 10
-10.65532
 20
-15.51217
 30
0.0
 10
-10.65532
 20
-15.51217
 30
0.0
 10
-10.65532
 20
-15.51217
 30
0.0
 10
-10.66352
 20
-15.51217
 30
0.0
 10
-10.66352
 20
-15.51217
 30
0.0
 10
-10.66352
 20
-15.51217
 30
0.0
 10
-10.66352
 20
-15.51217
 30
0.0
 10
-10.66352
 20
-15.48087
 30
0.0
 10
-10.66352
 20
-15.48087
 30
0.0
 10
-10.66352
 20
-15.48087
 30
0.0
 10
-10.66352
 20
-15.47315
 30
0.0
 10
-10.66395
 20
-15.46837
 30
0.0
 10
-10.66482
 20
-15.46648
 30
0.0
 10
-10.66482
 20
-15.46648
 30
0.0
 10
-10.66567
 20
-15.46462
 30
0.0
 10
-10.66725
 20
-15.46368
 30
0.0
 10
-10.66954
 20
-15.46368
 30
0.0
 10
-10.66954
 20
-15.46368
 30
0.0
 10
-10.67214
 20
-15.46368
 30
0.0
 10
-10.67392
 20
-15.46468
 30
0.0
 10
-10.67489
 20
-15.46668
 30
0.0
 10
-10.67489
 20
-15.46668
 30
0.0
 10
-10.67584
 20
-15.46868
 30
0.0
 10
-10.67632
 20
-15.47342
 30
0.0
 10
-10.67632
 20
-15.48087
 30
0.0
 10
-10.67632
 20
-15.48087
 30
0.0
 10
-10.67632
 20
-15.48087
 30
0.0
 10
-10.67632
 20
-15.51217
 30
0.0
 10
-10.67632
 20
-15.51217
 30
0.0
 10
-10.67632
 20
-15.51217
 30
0.0
 10
-10.67632
 20
-15.51217
 30
0.0
 10
-10.68452
 20
-15.51217
 30
0.0
 10
-10.68452
 20
-15.51217
 30
0.0
 10
-10.68452
 20
-15.51217
 30
0.0
 10
-10.68452
 20
-15.51217
 30
0.0
 10
-10.68452
 20
-15.48087
 30
0.0
 10
-10.68452
 20
-15.48087
 30
0.0
 10
-10.68452
 20
-15.48087
 30
0.0
 10
-10.68452
 20
-15.47305
 30
0.0
 10
-10.68499
 20
-15.46823
 30
0.0
 10
-10.68592
 20
-15.46642
 30
0.0
 10
-10.68592
 20
-15.46642
 30
0.0
 10
-10.68684
 20
-15.4646
 30
0.0
 10
-10.6885
 20
-15.46368
 30
0.0
 10
-10.69092
 20
-15.46368
 30
0.0
 10
-10.69092
 20
-15.46368
 30
0.0
 10
-10.6933
 20
-15.46368
 30
0.0
 10
-10.69496
 20
-15.46468
 30
0.0
 10
-10.69587
 20
-15.46668
 30
0.0
 10
-10.69587
 20
-15.46668
 30
0.0
 10
-10.69681
 20
-15.46868
 30
0.0
 10
-10.69727
 20
-15.47342
 30
0.0
 10
-10.69727
 20
-15.48087
 30
0.0
 10
-10.69727
 20
-15.48087
 30
0.0
 10
-10.69727
 20
-15.48087
 30
0.0
 10
-10.69727
 20
-15.51217
 30
0.0
 10
-10.69727
 20
-15.51217
 30
0.0
 10
-10.69727
 20
-15.51217
 30
0.0
 10
-10.69727
 20
-15.51217
 30
0.0
 10
-10.70542
 20
-15.51217
 30
0.0
 10
-10.70542
 20
-15.51217
 30
0.0
 10
-10.70542
 20
-15.51217
 30
0.0
 10
-10.70542
 20
-15.51217
 30
0.0
 10
-10.70542
 20
-15.45748
 30
0.0
 10
-10.70542
 20
-15.45748
 30
0.0
 10
-10.70542
 20
-15.45748
 30
0.0
 10
-10.70542
 20
-15.45748
 30
0.0
 10
-10.69727
 20
-15.45748
 30
0.0
 10
-10.69727
 20
-15.45748
 30
0.0
 10
-10.69727
 20
-15.45748
 30
0.0
 10
-10.69727
 20
-15.45748
 30
0.0
 10
-10.69727
 20
-15.46216
 30
0.0
 10
-10.69727
 20
-15.46216
 30
0.0
 10
-10.69727
 20
-15.46216
 30
0.0
 10
-10.69621
 20
-15.46021
 30
0.0
 10
-10.69486
 20
-15.45873
 30
0.0
 10
-10.69324
 20
-15.4577
 30
0.0
 10
-10.69324
 20
-15.4577
 30
0.0
 10
-10.69164
 20
-15.45668
 30
0.0
 10
-10.6898
 20
-15.45616
 30
0.0
 10
-10.68775
 20
-15.45616
 30
0.0
 10
-10.68775
 20
-15.45616
 30
0.0
 10
-10.68527
 20
-15.45616
 30
0.0
 10
-10.68322
 20
-15.45673
 30
0.0
 10
-10.68157
 20
-15.45786
 30
0.0
 10
-10.68157
 20
-15.45786
 30
0.0
 10
-10.67992
 20
-15.45901
 30
0.0
 10
-10.67865
 20
-15.46073
 30
0.0
 10
-10.67774
 20
-15.46305
 30
0.0
  0
SPLINE
  5
82
330
1F
100
AcDbEntity
  8
Layer 1
 62
   250
100
AcDbSpline
210
0.0
220
0.0
230
1.0
 70
    11
 71
     3
 72
    20
 73
    16
 74
     0
 42
0.0000000001
 43
0.0000000001
 40
0.0
 40
0.0
 40
0.0
 40
0.0
 40
0.25
 40
0.25
 40
0.25
 40
0.25
 40
0.5
 40
0.5
 40
0.5
 40
0.5
 40
0.75
 40
0.75
 40
0.75
 40
0.75
 40
1.0
 40
1.0
 40
1.0
 40
1.0
 10
-10.62664
 20
-15.49727
 30
0.0
 10
-10.62664
 20
-15.49727
 30
0.0
 10
-10.61434
 20
-15.49727
 30
0.0
 10
-10.61434
 20
-15.49727
 30
0.0
 10
-10.61434
 20
-15.49727
 30
0.0
 10
-10.61434
 20
-15.49727
 30
0.0
 10
-10.61434
 20
-15.51217
 30
0.0
 10
-10.61434
 20
-15.51217
 30
0.0
 10
-10.61434
 20
-15.51217
 30
0.0
 10
-10.61434
 20
-15.51217
 30
0.0
 10
-10.62664
 20
-15.51217
 30
0.0
 10
-10.62664
 20
-15.51217
 30
0.0
 10
-10.62664
 20
-15.51217
 30
0.0
 10
-10.62664
 20
-15.51217
 30
0.0
 10
-10.62664
 20
-15.49727
 30
0.0
 10
-10.62664
 20
-15.49727
 30
0.0
  0
SPLINE
  5
83
330
1F
100
AcDbEntity
  8
Layer 1
 62
   250
100
AcDbSpline
210
0.0
220
0.0
230
1.0
 70
    11
 71
     3
 72
    52
 73
    48
 74
     0
 42
0.0000000001
 43
0.0000000001
 40
0.0
 40
0.0
 40
0.0
 40
0.0
 40
0.0833333333333333
 40
0.0833333333333333
 40
0.0833333333333333
 40
0.0833333333333333
 40
0.1666666666666667
 40
0.1666666666666667
 40
0.1666666666666667
 40
0.1666666666666667
 40
0.25
 40
0.25
 40
0.25
 40
0.25
 40
0.3333333333333333
 40
0.3333333333333333
 40
0.3333333333333333
 40
0.3333333333333333
 40
0.4166666666666666
 40
0.4166666666666666
 40
0.4166666666666666
 40
0.4166666666666666
 40
0.4999999999999999
 40
0.4999999999999999
 40
0.4999999999999999
 40
0.4999999999999999
 40
0.5833333333333333
 40
0.5833333333333333
 40
0.5833333333333333
 40
0.5833333333333333
 40
0.6666666666666666
 40
0.6666666666666666
 40
0.6666666666666666
 40
0.6666666666666666
 40
0.75
 40
0.75
 40
0.75
 40
0.75
 40
0.8333333333333334
 40
0.8333333333333334
 40
0.8333333333333334
 40
0.8333333333333334
 40
0.9166666666666667
 40
0.9166666666666667
 40
0.9166666666666667
 40
0.9166666666666667
 40
1.0
 40
1.0
 40
1.0
 40
1.0
 10
-10.55912
 20
-15.49235
 30
0.0
 10
-10.55912
 20
-15.49639
 30
0.0
 10
-10.55838
 20
-15.49942
 30
0.0
 10
-10.5569
 20
-15.50147
 30
0.0
 10
-10.5569
 20
-15.50147
 30
0.0
 10
-10.55542
 20
-15.50352
 30
0.0
 10
-10.55323
 20
-15.50455
 30
0.0
 10
-10.55033
 20
-15.50455
 30
0.0
 10
-10.55033
 20
-15.50455
 30
0.0
 10
-10.55033
 20
-15.50455
 30
0.0
 10
-10.53983
 20
-15.50455
 30
0.0
 10
-10.53983
 20
-15.50455
 30
0.0
 10
-10.53983
 20
-15.50455
 30
0.0
 10
-10.53983
 20
-15.50455
 30
0.0
 10
-10.53983
 20
-15.51217
 30
0.0
 10
-10.53983
 20
-15.51217
 30
0.0
 10
-10.53983
 20
-15.51217
 30
0.0
 10
-10.53983
 20
-15.51217
 30
0.0
 10
-10.5512
 20
-15.51217
 30
0.0
 10
-10.5512
 20
-15.51217
 30
0.0
 10
-10.5512
 20
-15.51217
 30
0.0
 10
-10.55658
 20
-15.51217
 30
0.0
 10
-10.56073
 20
-15.51044
 30
0.0
 10
-10.56368
 20
-15.50699
 30
0.0
 10
-10.56368
 20
-15.50699
 30
0.0
 10
-10.56663
 20
-15.50354
 30
0.0
 10
-10.5681
 20
-15.49865
 30
0.0
 10
-10.5681
 20
-15.49235
 30
0.0
 10
-10.5681
 20
-15.49235
 30
0.0
 10
-10.5681
 20
-15.49235
 30
0.0
 10
-10.5681
 20
-15.44268
 30
0.0
 10
-10.5681
 20
-15.44268
 30
0.0
 10
-10.5681
 20
-15.44268
 30
0.0
 10
-10.5681
 20
-15.44268
 30
0.0
 10
-10.5825
 20
-15.44268
 30
0.0
 10
-10.5825
 20
-15.44268
 30
0.0
 10
-10.5825
 20
-15.44268
 30
0.0
 10
-10.5825
 20
-15.44268
 30
0.0
 10
-10.5825
 20
-15.43565
 30
0.0
 10
-10.5825
 20
-15.43565
 30
0.0
 10
-10.5825
 20
-15.43565
 30
0.0
 10
-10.5825
 20
-15.43565
 30
0.0
 10
-10.55912
 20
-15.43565
 30
0.0
 10
-10.55912
 20
-15.43565
 30
0.0
 10
-10.55912
 20
-15.43565
 30
0.0
 10
-10.55912
 20
-15.43565
 30
0.0
 10
-10.55912
 20
-15.49235
 30
0.0
 10
-10.55912
 20
-15.49235
 30
0.0
  0
SPLINE
  5
84
330
1F
100
AcDbEntity
  8
Layer 1
 62
   250
100
AcDbSpline
210
0.0
220
0.0
230
1.0
 70
    11
 71
     3
 72
    76
 73
    72
 74
     0
 42
0.0000000001
 43
0.0000000001
 40
0.0
 40
0.0
 40
0.0
 40
0.0
 40
0.0555555555555556
 40
0.0555555555555556
 40
0.0555555555555556
 40
0.0555555555555556
 40
0.1111111111111111
 40
0.1111111111111111
 40
0.1111111111111111
 40
0.1111111111111111
 40
0.1666666666666667
 40
0.1666666666666667
 40
0.1666666666666667
 40
0.1666666666666667
 40
0.2222222222222222
 40
0.2222222222222222
 40
0.2222222222222222
 40
0.2222222222222222
 40
0.2777777777777778
 40
0.2777777777777778
 40
0.2777777777777778
 40
0.2777777777777778
 40
0.3333333333333334
 40
0.3333333333333334
 40
0.3333333333333334
 40
0.3333333333333334
 40
0.388888888888889
 40
0.388888888888889
 40
0.388888888888889
 40
0.388888888888889
 40
0.4444444444444445
 40
0.4444444444444445
 40
0.4444444444444445
 40
0.4444444444444445
 40
0.5000000000000001
 40
0.5000000000000001
 40
0.5000000000000001
 40
0.5000000000000001
 40
0.5555555555555557
 40
0.5555555555555557
 40
0.5555555555555557
 40
0.5555555555555557
 40
0.6111111111111113
 40
0.6111111111111113
 40
0.6111111111111113
 40
0.6111111111111113
 40
0.6666666666666669
 40
0.6666666666666669
 40
0.6666666666666669
 40
0.6666666666666669
 40
0.7222222222222224
 40
0.7222222222222224
 40
0.7222222222222224
 40
0.7222222222222224
 40
0.777777777777778
 40
0.777777777777778
 40
0.777777777777778
 40
0.777777777777778
 40
0.8333333333333336
 40
0.8333333333333336
 40
0.8333333333333336
 40
0.8333333333333336
 40
0.8888888888888892
 40
0.8888888888888892
 40
0.8888888888888892
 40
0.8888888888888892
 40
0.9444444444444448
 40
0.9444444444444448
 40
0.9444444444444448
 40
0.9444444444444448
 40
1.0
 40
1.0
 40
1.0
 40
1.0
 10
-10.50012
 20
-15.44195
 30
0.0
 10
-10.50012
 20
-15.44195
 30
0.0
 10
-10.50012
 20
-15.45748
 30
0.0
 10
-10.50012
 20
-15.45748
 30
0.0
 10
-10.50012
 20
-15.45748
 30
0.0
 10
-10.50012
 20
-15.45748
 30
0.0
 10
-10.4797
 20
-15.45748
 30
0.0
 10
-10.4797
 20
-15.45748
 30
0.0
 10
-10.4797
 20
-15.45748
 30
0.0
 10
-10.4797
 20
-15.45748
 30
0.0
 10
-10.4797
 20
-15.46447
 30
0.0
 10
-10.4797
 20
-15.46447
 30
0.0
 10
-10.4797
 20
-15.46447
 30
0.0
 10
-10.4797
 20
-15.46447
 30
0.0
 10
-10.50012
 20
-15.46447
 30
0.0
 10
-10.50012
 20
-15.46447
 30
0.0
 10
-10.50012
 20
-15.46447
 30
0.0
 10
-10.50012
 20
-15.46447
 30
0.0
 10
-10.50012
 20
-15.49415
 30
0.0
 10
-10.50012
 20
-15.49415
 30
0.0
 10
-10.50012
 20
-15.49415
 30
0.0
 10
-10.50012
 20
-15.49819
 30
0.0
 10
-10.49936
 20
-15.501
 30
0.0
 10
-10.49782
 20
-15.50259
 30
0.0
 10
-10.49782
 20
-15.50259
 30
0.0
 10
-10.49629
 20
-15.50419
 30
0.0
 10
-10.49362
 20
-15.50499
 30
0.0
 10
-10.48982
 20
-15.50499
 30
0.0
 10
-10.48982
 20
-15.50499
 30
0.0
 10
-10.48982
 20
-15.50499
 30
0.0
 10
-10.4797
 20
-15.50499
 30
0.0
 10
-10.4797
 20
-15.50499
 30
0.0
 10
-10.4797
 20
-15.50499
 30
0.0
 10
-10.4797
 20
-15.50499
 30
0.0
 10
-10.4797
 20
-15.51217
 30
0.0
 10
-10.4797
 20
-15.51217
 30
0.0
 10
-10.4797
 20
-15.51217
 30
0.0
 10
-10.4797
 20
-15.51217
 30
0.0
 10
-10.49069
 20
-15.51217
 30
0.0
 10
-10.49069
 20
-15.51217
 30
0.0
 10
-10.49069
 20
-15.51217
 30
0.0
 10
-10.49744
 20
-15.51217
 30
0.0
 10
-10.50219
 20
-15.51082
 30
0.0
 10
-10.50496
 20
-15.50812
 30
0.0
 10
-10.50496
 20
-15.50812
 30
0.0
 10
-10.50772
 20
-15.50542
 30
0.0
 10
-10.50911
 20
-15.50075
 30
0.0
 10
-10.50911
 20
-15.49415
 30
0.0
 10
-10.50911
 20
-15.49415
 30
0.0
 10
-10.50911
 20
-15.49415
 30
0.0
 10
-10.50911
 20
-15.46447
 30
0.0
 10
-10.50911
 20
-15.46447
 30
0.0
 10
-10.50911
 20
-15.46447
 30
0.0
 10
-10.50911
 20
-15.46447
 30
0.0
 10
-10.52371
 20
-15.46447
 30
0.0
 10
-10.52371
 20
-15.46447
 30
0.0
 10
-10.52371
 20
-15.46447
 30
0.0
 10
-10.52371
 20
-15.46447
 30
0.0
 10
-10.52371
 20
-15.45748
 30
0.0
 10
-10.52371
 20
-15.45748
 30
0.0
 10
-10.52371
 20
-15.45748
 30
0.0
 10
-10.52371
 20
-15.45748
 30
0.0
 10
-10.50911
 20
-15.45748
 30
0.0
 10
-10.50911
 20
-15.45748
 30
0.0
 10
-10.50911
 20
-15.45748
 30
0.0
 10
-10.50911
 20
-15.45748
 30
0.0
 10
-10.50911
 20
-15.44195
 30
0.0
 10
-10.50911
 20
-15.44195
 30
0.0
 10
-10.50911
 20
-15.44195
 30
0.0
 10
-10.50911
 20
-15.44195
 30
0.0
 10
-10.50012
 20
-15.44195
 30
0.0
 10
-10.50012
 20
-15.44195
 30
0.0
  0
SPLINE
  5
85
330
1F
100
AcDbEntity
  8
Layer 1
 62
   250
100
AcDbSpline
210
0.0
220
0.0
230
1.0
 70
    11
 71
     3
 72
    20
 73
    16
 74
     0
 42
0.0000000001
 43
0.0000000001
 40
0.0
 40
0.0
 40
0.0
 40
0.0
 40
0.25
 40
0.25
 40
0.25
 40
0.25
 40
0.5
 40
0.5
 40
0.5
 40
0.5
 40
0.75
 40
0.75
 40
0.75
 40
0.75
 40
1.0
 40
1.0
 40
1.0
 40
1.0
 10
-10.42648
 20
-15.43926
 30
0.0
 10
-10.42648
 20
-15.43926
 30
0.0
 10
-10.41719
 20
-15.43926
 30
0.0
 10
-10.41719
 20
-15.43926
 30
0.0
 10
-10.41719
 20
-15.43926
 30
0.0
 10
-10.41719
 20
-15.43926
 30
0.0
 10
-10.45558
 20
-15.52145
 30
0.0
 10
-10.45558
 20
-15.52145
 30
0.0
 10
-10.45558
 20
-15.52145
 30
0.0
 10
-10.45558
 20
-15.52145
 30
0.0
 10
-10.46492
 20
-15.52145
 30
0.0
 10
-10.46492
 20
-15.52145
 30
0.0
 10
-10.46492
 20
-15.52145
 30
0.0
 10
-10.46492
 20
-15.52145
 30
0.0
 10
-10.42648
 20
-15.43926
 30
0.0
 10
-10.42648
 20
-15.43926
 30
0.0
  0
SPLINE
  5
86
330
1F
100
AcDbEntity
  8
Layer 1
 62
   250
100
AcDbSpline
210
0.0
220
0.0
230
1.0
 70
    11
 71
     3
 72
    52
 73
    48
 74
     0
 42
0.0000000001
 43
0.0000000001
 40
0.0
 40
0.0
 40
0.0
 40
0.0
 40
0.0833333333333333
 40
0.0833333333333333
 40
0.0833333333333333
 40
0.0833333333333333
 40
0.1666666666666667
 40
0.1666666666666667
 40
0.1666666666666667
 40
0.1666666666666667
 40
0.25
 40
0.25
 40
0.25
 40
0.25
 40
0.3333333333333333
 40
0.3333333333333333
 40
0.3333333333333333
 40
0.3333333333333333
 40
0.4166666666666666
 40
0.4166666666666666
 40
0.4166666666666666
 40
0.4166666666666666
 40
0.4999999999999999
 40
0.4999999999999999
 40
0.4999999999999999
 40
0.4999999999999999
 40
0.5833333333333333
 40
0.5833333333333333
 40
0.5833333333333333
 40
0.5833333333333333
 40
0.6666666666666666
 40
0.6666666666666666
 40
0.6666666666666666
 40
0.6666666666666666
 40
0.75
 40
0.75
 40
0.75
 40
0.75
 40
0.8333333333333334
 40
0.8333333333333334
 40
0.8333333333333334
 40
0.8333333333333334
 40
0.9166666666666667
 40
0.9166666666666667
 40
0.9166666666666667
 40
0.9166666666666667
 40
1.0
 40
1.0
 40
1.0
 40
1.0
 10
-10.40301
 20
-15.43926
 30
0.0
 10
-10.40301
 20
-15.43926
 30
0.0
 10
-10.3886
 20
-15.43926
 30
0.0
 10
-10.3886
 20
-15.43926
 30
0.0
 10
-10.3886
 20
-15.43926
 30
0.0
 10
-10.3886
 20
-15.43926
 30
0.0
 10
-10.3886
 20
-15.46705
 30
0.0
 10
-10.3886
 20
-15.46705
 30
0.0
 10
-10.3886
 20
-15.46705
 30
0.0
 10
-10.3886
 20
-15.46705
 30
0.0
 10
-10.37057
 20
-15.46705
 30
0.0
 10
-10.37057
 20
-15.46705
 30
0.0
 10
-10.37057
 20
-15.46705
 30
0.0
 10
-10.37057
 20
-15.46705
 30
0.0
 10
-10.37057
 20
-15.43926
 30
0.0
 10
-10.37057
 20
-15.43926
 30
0.0
 10
-10.37057
 20
-15.43926
 30
0.0
 10
-10.37057
 20
-15.43926
 30
0.0
 10
-10.35617
 20
-15.43926
 30
0.0
 10
-10.35617
 20
-15.43926
 30
0.0
 10
-10.35617
 20
-15.43926
 30
0.0
 10
-10.35617
 20
-15.43926
 30
0.0
 10
-10.35617
 20
-15.51217
 30
0.0
 10
-10.35617
 20
-15.51217
 30
0.0
 10
-10.35617
 20
-15.51217
 30
0.0
 10
-10.35617
 20
-15.51217
 30
0.0
 10
-10.37057
 20
-15.51217
 30
0.0
 10
-10.37057
 20
-15.51217
 30
0.0
 10
-10.37057
 20
-15.51217
 30
0.0
 10
-10.37057
 20
-15.51217
 30
0.0
 10
-10.37057
 20
-15.47975
 30
0.0
 10
-10.37057
 20
-15.47975
 30
0.0
 10
-10.37057
 20
-15.47975
 30
0.0
 10
-10.37057
 20
-15.47975
 30
0.0
 10
-10.3886
 20
-15.47975
 30
0.0
 10
-10.3886
 20
-15.47975
 30
0.0
 10
-10.3886
 20
-15.47975
 30
0.0
 10
-10.3886
 20
-15.47975
 30
0.0
 10
-10.3886
 20
-15.51217
 30
0.0
 10
-10.3886
 20
-15.51217
 30
0.0
 10
-10.3886
 20
-15.51217
 30
0.0
 10
-10.3886
 20
-15.51217
 30
0.0
 10
-10.40301
 20
-15.51217
 30
0.0
 10
-10.40301
 20
-15.51217
 30
0.0
 10
-10.40301
 20
-15.51217
 30
0.0
 10
-10.40301
 20
-15.51217
 30
0.0
 10
-10.40301
 20
-15.43926
 30
0.0
 10
-10.40301
 20
-15.43926
 30
0.0
  0
SPLINE
  5
87
330
1F
100
AcDbEntity
  8
Layer 1
 62
   250
100
AcDbSpline
210
0.0
220
0.0
230
1.0
 70
    11
 71
     3
 72
    36
 73
    32
 74
     0
 42
0.0000000001
 43
0.0000000001
 40
0.0
 40
0.0
 40
0.0
 40
0.0
 40
0.125
 40
0.125
 40
0.125
 40
0.125
 40
0.25
 40
0.25
 40
0.25
 40
0.25
 40
0.375
 40
0.375
 40
0.375
 40
0.375
 40
0.5
 40
0.5
 40
0.5
 40
0.5
 40
0.625
 40
0.625
 40
0.625
 40
0.625
 40
0.75
 40
0.75
 40
0.75
 40
0.75
 40
0.875
 40
0.875
 40
0.875
 40
0.875
 40
1.0
 40
1.0
 40
1.0
 40
1.0
 10
-10.32546
 20
-15.47578
 30
0.0
 10
-10.32546
 20
-15.47407
 30
0.0
 10
-10.32488
 20
-15.47262
 30
0.0
 10
-10.32369
 20
-15.47145
 30
0.0
 10
-10.32369
 20
-15.47145
 30
0.0
 10
-10.32253
 20
-15.47027
 30
0.0
 10
-10.32109
 20
-15.46968
 30
0.0
 10
-10.31939
 20
-15.46968
 30
0.0
 10
-10.31939
 20
-15.46968
 30
0.0
 10
-10.31768
 20
-15.46968
 30
0.0
 10
-10.31623
 20
-15.47027
 30
0.0
 10
-10.31506
 20
-15.47145
 30
0.0
 10
-10.31506
 20
-15.47145
 30
0.0
 10
-10.31388
 20
-15.47262
 30
0.0
 10
-10.31329
 20
-15.47407
 30
0.0
 10
-10.31329
 20
-15.47578
 30
0.0
 10
-10.31329
 20
-15.47578
 30
0.0
 10
-10.31329
 20
-15.47748
 30
0.0
 10
-10.31388
 20
-15.47892
 30
0.0
 10
-10.31506
 20
-15.48008
 30
0.0
 10
-10.31506
 20
-15.48008
 30
0.0
 10
-10.31623
 20
-15.48127
 30
0.0
 10
-10.31768
 20
-15.48185
 30
0.0
 10
-10.31939
 20
-15.48185
 30
0.0
 10
-10.31939
 20
-15.48185
 30
0.0
 10
-10.32109
 20
-15.48185
 30
0.0
 10
-10.32253
 20
-15.48127
 30
0.0
 10
-10.32369
 20
-15.48012
 30
0.0
 10
-10.32369
 20
-15.48012
 30
0.0
 10
-10.32488
 20
-15.47897
 30
0.0
 10
-10.32546
 20
-15.47752
 30
0.0
 10
-10.32546
 20
-15.47578
 30
0.0
  0
SPLINE
  5
88
330
1F
100
AcDbEntity
  8
Layer 1
 62
   250
100
AcDbSpline
210
0.0
220
0.0
230
1.0
 70
    11
 71
     3
 72
    36
 73
    32
 74
     0
 42
0.0000000001
 43
0.0000000001
 40
0.0
 40
0.0
 40
0.0
 40
0.0
 40
0.125
 40
0.125
 40
0.125
 40
0.125
 40
0.25
 40
0.25
 40
0.25
 40
0.25
 40
0.375
 40
0.375
 40
0.375
 40
0.375
 40
0.5
 40
0.5
 40
0.5
 40
0.5
 40
0.625
 40
0.625
 40
0.625
 40
0.625
 40
0.75
 40
0.75
 40
0.75
 40
0.75
 40
0.875
 40
0.875
 40
0.875
 40
0.875
 40
1.0
 40
1.0
 40
1.0
 40
1.0
 10
-10.31939
 20
-15.45015
 30
0.0
 10
-10.32273
 20
-15.45015
 30
0.0
 10
-10.32514
 20
-15.45218
 30
0.0
 10
-10.32668
 20
-15.45625
 30
0.0
 10
-10.32668
 20
-15.45625
 30
0.0
 10
-10.32821
 20
-15.46033
 30
0.0
 10
-10.32898
 20
-15.46683
 30
0.0
 10
-10.32898
 20
-15.47578
 30
0.0
 10
-10.32898
 20
-15.47578
 30
0.0
 10
-10.32898
 20
-15.48472
 30
0.0
 10
-10.32821
 20
-15.4912
 30
0.0
 10
-10.32668
 20
-15.49528
 30
0.0
 10
-10.32668
 20
-15.49528
 30
0.0
 10
-10.32514
 20
-15.49935
 30
0.0
 10
-10.32273
 20
-15.50139
 30
0.0
 10
-10.31939
 20
-15.50139
 30
0.0
 10
-10.31939
 20
-15.50139
 30
0.0
 10
-10.31604
 20
-15.50139
 30
0.0
 10
-10.31361
 20
-15.49935
 30
0.0
 10
-10.31208
 20
-15.49528
 30
0.0
 10
-10.31208
 20
-15.49528
 30
0.0
 10
-10.31054
 20
-15.4912
 30
0.0
 10
-10.30978
 20
-15.48472
 30
0.0
 10
-10.30978
 20
-15.47578
 30
0.0
 10
-10.30978
 20
-15.47578
 30
0.0
 10
-10.30978
 20
-15.46683
 30
0.0
 10
-10.31054
 20
-15.46033
 30
0.0
 10
-10.31208
 20
-15.45625
 30
0.0
 10
-10.31208
 20
-15.45625
 30
0.0
 10
-10.31361
 20
-15.45218
 30
0.0
 10
-10.31604
 20
-15.45015
 30
0.0
 10
-10.31939
 20
-15.45015
 30
0.0
  0
SPLINE
  5
89
330
1F
100
AcDbEntity
  8
Layer 1
 62
   250
100
AcDbSpline
210
0.0
220
0.0
230
1.0
 70
    11
 71
     3
 72
    36
 73
    32
 74
     0
 42
0.0000000001
 43
0.0000000001
 40
0.0
 40
0.0
 40
0.0
 40
0.0
 40
0.125
 40
0.125
 40
0.125
 40
0.125
 40
0.25
 40
0.25
 40
0.25
 40
0.25
 40
0.375
 40
0.375
 40
0.375
 40
0.375
 40
0.5
 40
0.5
 40
0.5
 40
0.5
 40
0.625
 40
0.625
 40
0.625
 40
0.625
 40
0.75
 40
0.75
 40
0.75
 40
0.75
 40
0.875
 40
0.875
 40
0.875
 40
0.875
 40
1.0
 40
1.0
 40
1.0
 40
1.0
 10
-10.34348
 20
-15.47578
 30
0.0
 10
-10.34348
 20
-15.46317
 30
0.0
 10
-10.34148
 20
-15.4537
 30
0.0
 10
-10.33748
 20
-15.4474
 30
0.0
 10
-10.33748
 20
-15.4474
 30
0.0
 10
-10.33346
 20
-15.4411
 30
0.0
 10
-10.32744
 20
-15.43795
 30
0.0
 10
-10.31939
 20
-15.43795
 30
0.0
 10
-10.31939
 20
-15.43795
 30
0.0
 10
-10.31133
 20
-15.43795
 30
0.0
 10
-10.30529
 20
-15.44108
 30
0.0
 10
-10.30128
 20
-15.44736
 30
0.0
 10
-10.30128
 20
-15.44736
 30
0.0
 10
-10.29727
 20
-15.45365
 30
0.0
 10
-10.29527
 20
-15.46313
 30
0.0
 10
-10.29527
 20
-15.47578
 30
0.0
 10
-10.29527
 20
-15.47578
 30
0.0
 10
-10.29527
 20
-15.48842
 30
0.0
 10
-10.29727
 20
-15.49789
 30
0.0
 10
-10.30128
 20
-15.50417
 30
0.0
 10
-10.30128
 20
-15.50417
 30
0.0
 10
-10.30529
 20
-15.51045
 30
0.0
 10
-10.31133
 20
-15.51359
 30
0.0
 10
-10.31939
 20
-15.51359
 30
0.0
 10
-10.31939
 20
-15.51359
 30
0.0
 10
-10.32744
 20
-15.51359
 30
0.0
 10
-10.33346
 20
-15.51044
 30
0.0
 10
-10.33748
 20
-15.50414
 30
0.0
 10
-10.33748
 20
-15.50414
 30
0.0
 10
-10.34148
 20
-15.49784
 30
0.0
 10
-10.34348
 20
-15.48838
 30
0.0
 10
-10.34348
 20
-15.47578
 30
0.0
  0
SPLINE
  5
8A
330
1F
100
AcDbEntity
  8
Layer 1
 62
   250
100
AcDbSpline
210
0.0
220
0.0
230
1.0
 70
    11
 71
     3
 72
    88
 73
    84
 74
     0
 42
0.0000000001
 43
0.0000000001
 40
0.0
 40
0.0
 40
0.0
 40
0.0
 40
0.0476190476190476
 40
0.0476190476190476
 40
0.0476190476190476
 40
0.0476190476190476
 40
0.0952380952380952
 40
0.0952380952380952
 40
0.0952380952380952
 40
0.0952380952380952
 40
0.1428571428571428
 40
0.1428571428571428
 40
0.1428571428571428
 40
0.1428571428571428
 40
0.1904761904761905
 40
0.1904761904761905
 40
0.1904761904761905
 40
0.1904761904761905
 40
0.2380952380952381
 40
0.2380952380952381
 40
0.2380952380952381
 40
0.2380952380952381
 40
0.2857142857142857
 40
0.2857142857142857
 40
0.2857142857142857
 40
0.2857142857142857
 40
0.3333333333333333
 40
0.3333333333333333
 40
0.3333333333333333
 40
0.3333333333333333
 40
0.3809523809523809
 40
0.3809523809523809
 40
0.3809523809523809
 40
0.3809523809523809
 40
0.4285714285714285
 40
0.4285714285714285
 40
0.4285714285714285
 40
0.4285714285714285
 40
0.4761904761904762
 40
0.4761904761904762
 40
0.4761904761904762
 40
0.4761904761904762
 40
0.5238095238095237
 40
0.5238095238095237
 40
0.5238095238095237
 40
0.5238095238095237
 40
0.5714285714285714
 40
0.5714285714285714
 40
0.5714285714285714
 40
0.5714285714285714
 40
0.6190476190476191
 40
0.6190476190476191
 40
0.6190476190476191
 40
0.6190476190476191
 40
0.6666666666666667
 40
0.6666666666666667
 40
0.6666666666666667
 40
0.6666666666666667
 40
0.7142857142857144
 40
0.7142857142857144
 40
0.7142857142857144
 40
0.7142857142857144
 40
0.7619047619047621
 40
0.7619047619047621
 40
0.7619047619047621
 40
0.7619047619047621
 40
0.8095238095238098
 40
0.8095238095238098
 40
0.8095238095238098
 40
0.8095238095238098
 40
0.8571428571428574
 40
0.8571428571428574
 40
0.8571428571428574
 40
0.8571428571428574
 40
0.9047619047619051
 40
0.9047619047619051
 40
0.9047619047619051
 40
0.9047619047619051
 40
0.9523809523809528
 40
0.9523809523809528
 40
0.9523809523809528
 40
0.9523809523809528
 40
1.0
 40
1.0
 40
1.0
 40
1.0
 10
-10.26808
 20
-15.49947
 30
0.0
 10
-10.26808
 20
-15.49947
 30
0.0
 10
-10.23736
 20
-15.49947
 30
0.0
 10
-10.23736
 20
-15.49947
 30
0.0
 10
-10.23736
 20
-15.49947
 30
0.0
 10
-10.23736
 20
-15.49947
 30
0.0
 10
-10.23736
 20
-15.51217
 30
0.0
 10
-10.23736
 20
-15.51217
 30
0.0
 10
-10.23736
 20
-15.51217
 30
0.0
 10
-10.23736
 20
-15.51217
 30
0.0
 10
-10.28365
 20
-15.51217
 30
0.0
 10
-10.28365
 20
-15.51217
 30
0.0
 10
-10.28365
 20
-15.51217
 30
0.0
 10
-10.28365
 20
-15.51217
 30
0.0
 10
-10.28365
 20
-15.49985
 30
0.0
 10
-10.28365
 20
-15.49985
 30
0.0
 10
-10.28365
 20
-15.49985
 30
0.0
 10
-10.28365
 20
-15.49985
 30
0.0
 10
-10.27584
 20
-15.49157
 30
0.0
 10
-10.27584
 20
-15.49157
 30
0.0
 10
-10.27584
 20
-15.49157
 30
0.0
 10
-10.26657
 20
-15.4817
 30
0.0
 10
-10.26093
 20
-15.47563
 30
0.0
 10
-10.25895
 20
-15.47335
 30
0.0
 10
-10.25895
 20
-15.47335
 30
0.0
 10
-10.25652
 20
-15.47055
 30
0.0
 10
-10.25475
 20
-15.46807
 30
0.0
 10
-10.25368
 20
-15.4659
 30
0.0
 10
-10.25368
 20
-15.4659
 30
0.0
 10
-10.2526
 20
-15.46373
 30
0.0
 10
-10.25207
 20
-15.4616
 30
0.0
 10
-10.25207
 20
-15.45948
 30
0.0
 10
-10.25207
 20
-15.45948
 30
0.0
 10
-10.25207
 20
-15.45623
 30
0.0
 10
-10.25305
 20
-15.45371
 30
0.0
 10
-10.25502
 20
-15.45195
 30
0.0
 10
-10.25502
 20
-15.45195
 30
0.0
 10
-10.25698
 20
-15.45016
 30
0.0
 10
-10.25978
 20
-15.44928
 30
0.0
 10
-10.26338
 20
-15.44928
 30
0.0
 10
-10.26338
 20
-15.44928
 30
0.0
 10
-10.26597
 20
-15.44928
 30
0.0
 10
-10.26885
 20
-15.4498
 30
0.0
 10
-10.27205
 20
-15.45081
 30
0.0
 10
-10.27205
 20
-15.45081
 30
0.0
 10
-10.27527
 20
-15.45185
 30
0.0
 10
-10.2786
 20
-15.45333
 30
0.0
 10
-10.28209
 20
-15.45528
 30
0.0
 10
-10.28209
 20
-15.45528
 30
0.0
 10
-10.28209
 20
-15.45528
 30
0.0
 10
-10.28209
 20
-15.44185
 30
0.0
 10
-10.28209
 20
-15.44185
 30
0.0
 10
-10.28209
 20
-15.44185
 30
0.0
 10
-10.2786
 20
-15.44058
 30
0.0
 10
-10.2752
 20
-15.43961
 30
0.0
 10
-10.27185
 20
-15.43895
 30
0.0
 10
-10.27185
 20
-15.43895
 30
0.0
 10
-10.26852
 20
-15.43828
 30
0.0
 10
-10.26532
 20
-15.43795
 30
0.0
 10
-10.26227
 20
-15.43795
 30
0.0
 10
-10.26227
 20
-15.43795
 30
0.0
 10
-10.25455
 20
-15.43795
 30
0.0
 10
-10.24848
 20
-15.43975
 30
0.0
 10
-10.24408
 20
-15.44335
 30
0.0
 10
-10.24408
 20
-15.44335
 30
0.0
 10
-10.23967
 20
-15.44693
 30
0.0
 10
-10.23746
 20
-15.45185
 30
0.0
 10
-10.23746
 20
-15.45806
 30
0.0
 10
-10.23746
 20
-15.45806
 30
0.0
 10
-10.23746
 20
-15.46093
 30
0.0
 10
-10.23795
 20
-15.46362
 30
0.0
 10
-10.2389
 20
-15.46612
 30
0.0
 10
-10.2389
 20
-15.46612
 30
0.0
 10
-10.23987
 20
-15.46863
 30
0.0
 10
-10.24152
 20
-15.47142
 30
0.0
 10
-10.24387
 20
-15.47447
 30
0.0
 10
-10.24387
 20
-15.47447
 30
0.0
 10
-10.24558
 20
-15.47668
 30
0.0
 10
-10.25032
 20
-15.48167
 30
0.0
 10
-10.25807
 20
-15.48942
 30
0.0
 10
-10.25807
 20
-15.48942
 30
0.0
 10
-10.26227
 20
-15.4936
 30
0.0
 10
-10.2656
 20
-15.49697
 30
0.0
 10
-10.26808
 20
-15.49947
 30
0.0
  0
SPLINE
  5
8B
330
1F
100
AcDbEntity
  8
Layer 1
 62
   250
100
AcDbSpline
210
0.0
220
0.0
230
1.0
 70
    11
 71
     3
 72
    56
 73
    52
 74
     0
 42
0.0000000001
 43
0.0000000001
 40
0.0
 40
0.0
 40
0.0
 40
0.0
 40
0.0769230769230769
 40
0.0769230769230769
 40
0.0769230769230769
 40
0.0769230769230769
 40
0.1538461538461539
 40
0.1538461538461539
 40
0.1538461538461539
 40
0.1538461538461539
 40
0.2307692307692308
 40
0.2307692307692308
 40
0.2307692307692308
 40
0.2307692307692308
 40
0.3076923076923077
 40
0.3076923076923077
 40
0.3076923076923077
 40
0.3076923076923077
 40
0.3846153846153846
 40
0.3846153846153846
 40
0.3846153846153846
 40
0.3846153846153846
 40
0.4615384615384616
 40
0.4615384615384616
 40
0.4615384615384616
 40
0.4615384615384616
 40
0.5384615384615385
 40
0.5384615384615385
 40
0.5384615384615385
 40
0.5384615384615385
 40
0.6153846153846154
 40
0.6153846153846154
 40
0.6153846153846154
 40
0.6153846153846154
 40
0.6923076923076923
 40
0.6923076923076923
 40
0.6923076923076923
 40
0.6923076923076923
 40
0.7692307692307692
 40
0.7692307692307692
 40
0.7692307692307692
 40
0.7692307692307692
 40
0.846153846153846
 40
0.846153846153846
 40
0.846153846153846
 40
0.846153846153846
 40
0.9230769230769229
 40
0.9230769230769229
 40
0.9230769230769229
 40
0.9230769230769229
 40
1.0
 40
1.0
 40
1.0
 40
1.0
 10
-10.22906
 20
-15.43926
 30
0.0
 10
-10.22906
 20
-15.43926
 30
0.0
 10
-10.21646
 20
-15.43926
 30
0.0
 10
-10.21646
 20
-15.43926
 30
0.0
 10
-10.21646
 20
-15.43926
 30
0.0
 10
-10.21646
 20
-15.43926
 30
0.0
 10
-10.21124
 20
-15.49278
 30
0.0
 10
-10.21124
 20
-15.49278
 30
0.0
 10
-10.21124
 20
-15.49278
 30
0.0
 10
-10.21124
 20
-15.49278
 30
0.0
 10
-10.20494
 20
-15.45816
 30
0.0
 10
-10.20494
 20
-15.45816
 30
0.0
 10
-10.20494
 20
-15.45816
 30
0.0
 10
-10.20494
 20
-15.45816
 30
0.0
 10
-10.19297
 20
-15.45816
 30
0.0
 10
-10.19297
 20
-15.45816
 30
0.0
 10
-10.19297
 20
-15.45816
 30
0.0
 10
-10.19297
 20
-15.45816
 30
0.0
 10
-10.18566
 20
-15.49278
 30
0.0
 10
-10.18566
 20
-15.49278
 30
0.0
 10
-10.18566
 20
-15.49278
 30
0.0
 10
-10.18566
 20
-15.49278
 30
0.0
 10
-10.18156
 20
-15.43926
 30
0.0
 10
-10.18156
 20
-15.43926
 30
0.0
 10
-10.18156
 20
-15.43926
 30
0.0
 10
-10.18156
 20
-15.43926
 30
0.0
 10
-10.16885
 20
-15.43926
 30
0.0
 10
-10.16885
 20
-15.43926
 30
0.0
 10
-10.16885
 20
-15.43926
 30
0.0
 10
-10.16885
 20
-15.43926
 30
0.0
 10
-10.17725
 20
-15.51217
 30
0.0
 10
-10.17725
 20
-15.51217
 30
0.0
 10
-10.17725
 20
-15.51217
 30
0.0
 10
-10.17725
 20
-15.51217
 30
0.0
 10
-10.19067
 20
-15.51217
 30
0.0
 10
-10.19067
 20
-15.51217
 30
0.0
 10
-10.19067
 20
-15.51217
 30
0.0
 10
-10.19067
 20
-15.51217
 30
0.0
 10
-10.19897
 20
-15.47388
 30
0.0
 10
-10.19897
 20
-15.47388
 30
0.0
 10
-10.19897
 20
-15.47388
 30
0.0
 10
-10.19897
 20
-15.47388
 30
0.0
 10
-10.20674
 20
-15.51217
 30
0.0
 10
-10.20674
 20
-15.51217
 30
0.0
 10
-10.20674
 20
-15.51217
 30
0.0
 10
-10.20674
 20
-15.51217
 30
0.0
 10
-10.22008
 20
-15.51217
 30
0.0
 10
-10.22008
 20
-15.51217
 30
0.0
 10
-10.22008
 20
-15.51217
 30
0.0
 10
-10.22008
 20
-15.51217
 30
0.0
 10
-10.22906
 20
-15.43926
 30
0.0
 10
-10.22906
 20
-15.43926
 30
0.0
  0
ENDSEC
  0
SECTION
  2
OBJECTS
  0
DICTIONARY
  5
C
330
0
100
AcDbDictionary
281
     1
  3
ACAD_GROUP
350
D
  3
ACAD_LAYOUT
350
1A
  3
ACAD_MLEADERSTYLE
350
8D
  3
ACAD_MLINESTYLE
350
17
  3
ACAD_PLOTSETTINGS
350
19
  3
ACAD_PLOTSTYLENAME
350
E
  3
ACAD_SCALELIST
350
3B
  3
ACAD_TABLESTYLE
350
8C
  3
ACAD_VISUALSTYLE
350
2A
  0
DICTIONARY
  5
D
102
{ACAD_REACTORS
330
C
102
}
330
C
100
AcDbDictionary
281
     1
  0
DICTIONARY
  5
1A
102
{ACAD_REACTORS
330
C
102
}
330
C
100
AcDbDictionary
281
     1
  3
Layout1
350
1E
  3
Layout2
350
26
  3
Model
350
22
  0
DICTIONARY
  5
8D
102
{ACAD_REACTORS
330
C
102
}
330
C
100
AcDbDictionary
281
     1
  0
DICTIONARY
  5
17
102
{ACAD_REACTORS
330
C
102
}
330
C
100
AcDbDictionary
281
     1
  3
Standard
350
18
  0
DICTIONARY
  5
19
102
{ACAD_REACTORS
330
C
102
}
330
C
100
AcDbDictionary
281
     1
  0
ACDBDICTIONARYWDFLT
  5
E
102
{ACAD_REACTORS
330
C
102
}
330
C
100
AcDbDictionary
281
     1
  3
Normal
350
F
100
AcDbDictionaryWithDefault
340
F
  0
DICTIONARY
  5
3B
102
{ACAD_REACTORS
330
C
102
}
330
C
100
AcDbDictionary
281
     1
  3
A0
350
3C
  3
A1
350
3D
  3
A2
350
3E
  3
A3
350
3F
  3
A4
350
40
  3
A5
350
41
  3
A6
350
42
  3
A7
350
43
  3
A8
350
44
  3
A9
350
45
  3
B0
350
46
  3
B1
350
47
  3
B2
350
48
  3
B3
350
49
  3
B4
350
4A
  3
B5
350
4B
  3
B6
350
4C
  3
B7
350
4D
  3
B8
350
4E
  3
B9
350
4F
  3
C0
350
50
  3
C1
350
51
  3
C2
350
52
  3
C3
350
53
  3
C4
350
54
  3
C5
350
55
  3
C6
350
56
  3
C7
350
57
  3
C8
350
58
  3
C9
350
59
  3
D0
350
5A
  3
D1
350
5B
  3
D2
350
5C
  0
DICTIONARY
  5
8C
102
{ACAD_REACTORS
330
C
102
}
330
C
100
AcDbDictionary
281
     1
  0
DICTIONARY
  5
2A
102
{ACAD_REACTORS
330
C
102
}
330
C
100
AcDbDictionary
281
     1
  3
2dWireframe
350
2F
  3
3D Hidden
350
31
  3
3dWireframe
350
30
  3
Basic
350
32
  3
Brighten
350
36
  3
ColorChange
350
3A
  3
Conceptual
350
34
  3
Dim
350
35
  3
Facepattern
350
39
  3
Flat
350
2B
  3
FlatWithEdges
350
2C
  3
Gouraud
350
2D
  3
GouraudWithEdges
350
2E
  3
Linepattern
350
38
  3
Realistic
350
33
  3
Thicken
350
37
  0
LAYOUT
  5
1E
102
{ACAD_REACTORS
330
1A
102
}
330
1A
100
AcDbPlotSettings
  1

  2
none_device
  4

  6

 40
0.0
 41
0.0
 42
0.0
 43
0.0
 44
0.0
 45
0.0
 46
0.0
 47
0.0
 48
0.0
 49
0.0
140
0.0
141
0.0
142
1.0
143
1.0
 70
   688
 72
     0
 73
     0
 74
     5
  7

 75
    16
 76
     0
 77
     2
 78
   300
147
1.0
148
0.0
149
0.0
100
AcDbLayout
  1
Layout1
 70
     1
 71
     1
 10
0.0
 20
0.0
 11
12.0
 21
9.0
 12
0.0
 22
0.0
 32
0.0
 14
1.000000000000000E+20
 24
1.000000000000000E+20
 34
1.000000000000000E+20
 15
-1.000000000000000E+20
 25
-1.000000000000000E+20
 35
-1.000000000000000E+20
146
0.0
 13
0.0
 23
0.0
 33
0.0
 16
1.0
 26
0.0
 36
0.0
 17
0.0
 27
1.0
 37
0.0
 76
     0
330
1B
  0
LAYOUT
  5
26
102
{ACAD_REACTORS
330
1A
102
}
330
1A
100
AcDbPlotSettings
  1

  2
none_device
  4

  6

 40
0.0
 41
0.0
 42
0.0
 43
0.0
 44
0.0
 45
0.0
 46
0.0
 47
0.0
 48
0.0
 49
0.0
140
0.0
141
0.0
142
1.0
143
1.0
 70
   688
 72
     0
 73
     0
 74
     5
  7

 75
    16
 76
     0
 77
     2
 78
   300
147
1.0
148
0.0
149
0.0
100
AcDbLayout
  1
Layout2
 70
     1
 71
     2
 10
0.0
 20
0.0
 11
0.0
 21
0.0
 12
0.0
 22
0.0
 32
0.0
 14
0.0
 24
0.0
 34
0.0
 15
0.0
 25
0.0
 35
0.0
146
0.0
 13
0.0
 23
0.0
 33
0.0
 16
1.0
 26
0.0
 36
0.0
 17
0.0
 27
1.0
 37
0.0
 76
     0
330
23
  0
LAYOUT
  5
22
102
{ACAD_REACTORS
330
1A
102
}
330
1A
100
AcDbPlotSettings
  1

  2
none_device
  4

  6

 40
0.0
 41
0.0
 42
0.0
 43
0.0
 44
0.0
 45
0.0
 46
0.0
 47
0.0
 48
0.0
 49
0.0
140
0.0
141
0.0
142
1.0
143
1.0
 70
  1712
 72
     0
 73
     0
 74
     0
  7

 75
     0
 76
     0
 77
     2
 78
   300
147
1.0
148
0.0
149
0.0
100
AcDbLayout
  1
Model
 70
     1
 71
     0
 10
0.0
 20
0.0
 11
12.0
 21
9.0
 12
0.0
 22
0.0
 32
0.0
 14
-11.7
 24
-16.05
 34
0.0
 15
-9.3
 25
-13.65
 35
0.0
146
0.0
 13
0.0
 23
0.0
 33
0.0
 16
1.0
 26
0.0
 36
0.0
 17
0.0
 27
1.0
 37
0.0
 76
     0
330
1F
331
29
  0
MLINESTYLE
  5
18
102
{ACAD_REACTORS
330
17
102
}
330
17
100
AcDbMlineStyle
  2
Standard
 70
     0
  3

 62
   256
 51
90.0
 52
90.0
 71
     2
 49
0.5
 62
   256
  6
BYLAYER
 49
-0.5
 62
   256
  6
BYLAYER
  0
ACDBPLACEHOLDER
  5
F
102
{ACAD_REACTORS
330
E
102
}
330
E
  0
SCALE
  5
3C
102
{ACAD_REACTORS
330
3B
102
}
330
3B
100
AcDbScale
 70
     0
300
1:1
140
1.0
141
1.0
290
     1
  0
SCALE
  5
3D
102
{ACAD_REACTORS
330
3B
102
}
330
3B
100
AcDbScale
 70
     0
300
1:2
140
1.0
141
2.0
290
     0
  0
SCALE
  5
3E
102
{ACAD_REACTORS
330
3B
102
}
330
3B
100
AcDbScale
 70
     0
300
1:4
140
1.0
141
4.0
290
     0
  0
SCALE
  5
3F
102
{ACAD_REACTORS
330
3B
102
}
330
3B
100
AcDbScale
 70
     0
300
1:5
140
1.0
141
5.0
290
     0
  0
SCALE
  5
40
102
{ACAD_REACTORS
330
3B
102
}
330
3B
100
AcDbScale
 70
     0
300
1:8
140
1.0
141
8.0
290
     0
  0
SCALE
  5
41
102
{ACAD_REACTORS
330
3B
102
}
330
3B
100
AcDbScale
 70
     0
300
1:10
140
1.0
141
10.0
290
     0
  0
SCALE
  5
42
102
{ACAD_REACTORS
330
3B
102
}
330
3B
100
AcDbScale
 70
     0
300
1:16
140
1.0
141
16.0
290
     0
  0
SCALE
  5
43
102
{ACAD_REACTORS
330
3B
102
}
330
3B
100
AcDbScale
 70
     0
300
1:20
140
1.0
141
20.0
290
     0
  0
SCALE
  5
44
102
{ACAD_REACTORS
330
3B
102
}
330
3B
100
AcDbScale
 70
     0
300
1:30
140
1.0
141
30.0
290
     0
  0
SCALE
  5
45
102
{ACAD_REACTORS
330
3B
102
}
330
3B
100
AcDbScale
 70
     0
300
1:40
140
1.0
141
40.0
290
     0
  0
SCALE
  5
46
102
{ACAD_REACTORS
330
3B
102
}
330
3B
100
AcDbScale
 70
     0
300
1:50
140
1.0
141
50.0
290
     0
  0
SCALE
  5
47
102
{ACAD_REACTORS
330
3B
102
}
330
3B
100
AcDbScale
 70
     0
300
1:100
140
1.0
141
100.0
290
     0
  0
SCALE
  5
48
102
{ACAD_REACTORS
330
3B
102
}
330
3B
100
AcDbScale
 70
     0
300
2:1
140
2.0
141
1.0
290
     0
  0
SCALE
  5
49
102
{ACAD_REACTORS
330
3B
102
}
330
3B
100
AcDbScale
 70
     0
300
4:1
140
4.0
141
1.0
290
     0
  0
SCALE
  5
4A
102
{ACAD_REACTORS
330
3B
102
}
330
3B
100
AcDbScale
 70
     0
300
8:1
140
8.0
141
1.0
290
     0
  0
SCALE
  5
4B
102
{ACAD_REACTORS
330
3B
102
}
330
3B
100
AcDbScale
 70
     0
300
10:1
140
10.0
141
1.0
290
     0
  0
SCALE
  5
4C
102
{ACAD_REACTORS
330
3B
102
}
330
3B
100
AcDbScale
 70
     0
300
100:1
140
100.0
141
1.0
290
     0
  0
SCALE
  5
4D
102
{ACAD_REACTORS
330
3B
102
}
330
3B
100
AcDbScale
 70
     0
300
1/128" = 1'-0"
140
0.0078125
141
12.0
290
     0
  0
SCALE
  5
4E
102
{ACAD_REACTORS
330
3B
102
}
330
3B
100
AcDbScale
 70
     0
300
1/64" = 1'-0"
140
0.015625
141
12.0
290
     0
  0
SCALE
  5
4F
102
{ACAD_REACTORS
330
3B
102
}
330
3B
100
AcDbScale
 70
     0
300
1/32" = 1'-0"
140
0.03125
141
12.0
290
     0
  0
SCALE
  5
50
102
{ACAD_REACTORS
330
3B
102
}
330
3B
100
AcDbScale
 70
     0
300
1/16" = 1'-0"
140
0.0625
141
12.0
290
     0
  0
SCALE
  5
51
102
{ACAD_REACTORS
330
3B
102
}
330
3B
100
AcDbScale
 70
     0
300
3/32" = 1'-0"
140
0.09375
141
12.0
290
     0
  0
SCALE
  5
52
102
{ACAD_REACTORS
330
3B
102
}
330
3B
100
AcDbScale
 70
     0
300
1/8" = 1'-0"
140
0.125
141
12.0
290
     0
  0
SCALE
  5
53
102
{ACAD_REACTORS
330
3B
102
}
330
3B
100
AcDbScale
 70
     0
300
3/16" = 1'-0"
140
0.1875
141
12.0
290
     0
  0
SCALE
  5
54
102
{ACAD_REACTORS
330
3B
102
}
330
3B
100
AcDbScale
 70
     0
300
1/4" = 1'-0"
140
0.25
141
12.0
290
     0
  0
SCALE
  5
55
102
{ACAD_REACTORS
330
3B
102
}
330
3B
100
AcDbScale
 70
     0
300
3/8" = 1'-0"
140
0.375
141
12.0
290
     0
  0
SCALE
  5
56
102
{ACAD_REACTORS
330
3B
102
}
330
3B
100
AcDbScale
 70
     0
300
1/2" = 1'-0"
140
0.5
141
12.0
290
     0
  0
SCALE
  5
57
102
{ACAD_REACTORS
330
3B
102
}
330
3B
100
AcDbScale
 70
     0
300
3/4" = 1'-0"
140
0.75
141
12.0
290
     0
  0
SCALE
  5
58
102
{ACAD_REACTORS
330
3B
102
}
330
3B
100
AcDbScale
 70
     0
300
1" = 1'-0"
140
1.0
141
12.0
290
     0
  0
SCALE
  5
59
102
{ACAD_REACTORS
330
3B
102
}
330
3B
100
AcDbScale
 70
     0
300
1-1/2" = 1'-0"
140
1.5
141
12.0
290
     0
  0
SCALE
  5
5A
102
{ACAD_REACTORS
330
3B
102
}
330
3B
100
AcDbScale
 70
     0
300
3" = 1'-0"
140
3.0
141
12.0
290
     0
  0
SCALE
  5
5B
102
{ACAD_REACTORS
330
3B
102
}
330
3B
100
AcDbScale
 70
     0
300
6" = 1'-0"
140
6.0
141
12.0
290
     0
  0
SCALE
  5
5C
102
{ACAD_REACTORS
330
3B
102
}
330
3B
100
AcDbScale
 70
     0
300
1'-0" = 1'-0"
140
12.0
141
12.0
290
     0
  0
VISUALSTYLE
  5
2F
102
{ACAD_REACTORS
330
2A
102
}
330
2A
100
AcDbVisualStyle
  2
2dWireframe
 70
     4
 71
     0
 72
     2
 73
     0
 90
        0
 40
-0.6
 41
-30.0
 62
     5
 63
     7
421
 16777215
 74
     1
 91
        4
 64
     7
 65
   257
 75
     1
175
     1
 42
1.0
 92
        0
 66
   257
 43
1.0
 76
     1
 77
     6
 78
     2
 67
     7
 79
     5
170
     0
171
     0
290
     0
174
     0
 93
        1
 44
0.0
173
     0
291
     0
 45
0.0
  0
VISUALSTYLE
  5
31
102
{ACAD_REACTORS
330
2A
102
}
330
2A
100
AcDbVisualStyle
  2
3D Hidden
 70
     6
 71
     1
 72
     2
 73
     2
 90
        0
 40
-0.6
 41
-30.0
 62
     5
 63
     7
421
 16777215
 74
     2
 91
        2
 64
     7
 65
   257
 75
     2
175
     1
 42
40.0
 92
        0
 66
   257
 43
1.0
 76
     1
 77
     6
 78
     2
 67
     7
 79
     3
170
     0
171
     0
290
     0
174
     0
 93
        1
 44
0.0
173
     0
291
     0
 45
0.0
  0
VISUALSTYLE
  5
30
102
{ACAD_REACTORS
330
2A
102
}
330
2A
100
AcDbVisualStyle
  2
3dWireframe
 70
     5
 71
     0
 72
     2
 73
     0
 90
        0
 40
-0.6
 41
-30.0
 62
     5
 63
     7
421
 16777215
 74
     1
 91
        4
 64
     7
 65
   257
 75
     1
175
     1
 42
1.0
 92
        0
 66
   257
 43
1.0
 76
     1
 77
     6
 78
     2
 67
     7
 79
     5
170
     0
171
     0
290
     0
174
     0
 93
        1
 44
0.0
173
     0
291
     0
 45
0.0
  0
VISUALSTYLE
  5
32
102
{ACAD_REACTORS
330
2A
102
}
330
2A
100
AcDbVisualStyle
  2
Basic
 70
     7
 71
     1
 72
     0
 73
     1
 90
        0
 40
-0.6
 41
-30.0
 62
     5
 63
     7
421
 16777215
 74
     0
 91
        4
 64
     7
 65
   257
 75
     1
175
     1
 42
1.0
 92
        8
 66
     7
 43
1.0
 76
     1
 77
     6
 78
     2
 67
     7
 79
     5
170
     0
171
     0
290
     0
174
     0
 93
        1
 44
0.0
173
     0
291
     1
 45
0.0
  0
VISUALSTYLE
  5
36
102
{ACAD_REACTORS
330
2A
102
}
330
2A
100
AcDbVisualStyle
  2
Brighten
 70
    12
 71
     2
 72
     2
 73
     0
 90
        0
 40
-0.6
 41
-30.0
 62
     5
 63
     7
421
 16777215
 74
     1
 91
        4
 64
     7
 65
   257
 75
     1
175
     1
 42
1.0
 92
        8
 66
     7
 43
1.0
 76
     1
 77
     6
 78
     2
 67
     7
 79
     5
170
     0
171
     0
290
     0
174
     0
 93
        1
 44
50.0
173
     0
291
     1
 45
0.0
  0
VISUALSTYLE
  5
3A
102
{ACAD_REACTORS
330
2A
102
}
330
2A
100
AcDbVisualStyle
  2
ColorChange
 70
    16
 71
     2
 72
     2
 73
     3
 90
        0
 40
-0.6
 41
-30.0
 62
     5
 63
     8
421
  8421504
 74
     1
 91
        4
 64
     7
 65
   257
 75
     1
175
     1
 42
1.0
 92
        8
 66
     8
424
  8421504
 43
1.0
 76
     1
 77
     6
 78
     2
 67
     7
 79
     5
170
     0
171
     0
290
     0
174
     0
 93
        1
 44
0.0
173
     0
291
     1
 45
0.0
  0
VISUALSTYLE
  5
34
102
{ACAD_REACTORS
330
2A
102
}
330
2A
100
AcDbVisualStyle
  2
Conceptual
 70
     9
 71
     3
 72
     2
 73
     0
 90
        0
 40
-0.6
 41
-30.0
 62
     5
 63
     7
421
 16777215
 74
     2
 91
        2
 64
     7
 65
   257
 75
     1
175
     1
 42
40.0
 92
        8
 66
     7
 43
1.0
 76
     1
 77
     6
 78
     2
 67
     7
 79
     3
170
     0
171
     0
290
     0
174
     0
 93
        1
 44
0.0
173
     0
291
     0
 45
0.0
  0
VISUALSTYLE
  5
35
102
{ACAD_REACTORS
330
2A
102
}
330
2A
100
AcDbVisualStyle
  2
Dim
 70
    11
 71
     2
 72
     2
 73
     0
 90
        0
 40
-0.6
 41
-30.0
 62
     5
 63
     7
421
 16777215
 74
     1
 91
        4
 64
     7
 65
   257
 75
     1
175
     1
 42
1.0
 92
        8
 66
     7
 43
1.0
 76
     1
 77
     6
 78
     2
 67
     7
 79
     5
170
     0
171
     0
290
     0
174
     0
 93
        1
 44
-50.0
173
     0
291
     1
 45
0.0
  0
VISUALSTYLE
  5
39
102
{ACAD_REACTORS
330
2A
102
}
330
2A
100
AcDbVisualStyle
  2
Facepattern
 70
    15
 71
     2
 72
     2
 73
     0
 90
        0
 40
-0.6
 41
-30.0
 62
     5
 63
     7
421
 16777215
 74
     1
 91
        4
 64
     7
 65
   257
 75
     1
175
     1
 42
1.0
 92
        8
 66
     7
 43
1.0
 76
     1
 77
     6
 78
     2
 67
     7
 79
     5
170
     0
171
     0
290
     0
174
     0
 93
        1
 44
0.0
173
     0
291
     1
 45
0.0
  0
VISUALSTYLE
  5
2B
102
{ACAD_REACTORS
330
2A
102
}
330
2A
100
AcDbVisualStyle
  2
Flat
 70
     0
 71
     2
 72
     1
 73
     1
 90
        2
 40
-0.6
 41
30.0
 62
     5
 63
     7
421
 16777215
 74
     0
 91
        4
 64
     7
 65
   257
 75
     1
175
     1
 42
1.0
 92
        8
 66
     7
 43
1.0
 76
     1
 77
     6
 78
     2
 67
     7
 79
     5
170
     0
171
     0
290
     0
174
     0
 93
       13
 44
0.0
173
     0
291
     1
 45
0.0
  0
VISUALSTYLE
  5
2C
102
{ACAD_REACTORS
330
2A
102
}
330
2A
100
AcDbVisualStyle
  2
FlatWithEdges
 70
     1
 71
     2
 72
     1
 73
     1
 90
        2
 40
-0.6
 41
30.0
 62
     5
 63
     7
421
 16777215
 74
     1
 91
        4
 64
     7
 65
   257
 75
     1
175
     1
 42
1.0
 92
        0
 66
   257
 43
1.0
 76
     1
 77
     6
 78
     2
 67
     7
 79
     5
170
     0
171
     0
290
     0
174
     0
 93
       13
 44
0.0
173
     0
291
     1
 45
0.0
  0
VISUALSTYLE
  5
2D
102
{ACAD_REACTORS
330
2A
102
}
330
2A
100
AcDbVisualStyle
  2
Gouraud
 70
     2
 71
     2
 72
     2
 73
     1
 90
        2
 40
-0.6
 41
30.0
 62
     5
 63
     7
421
 16777215
 74
     0
 91
        4
 64
     7
 65
   257
 75
     1
175
     1
 42
1.0
 92
        0
 66
     7
 43
1.0
 76
     1
 77
     6
 78
     2
 67
     7
 79
     5
170
     0
171
     0
290
     0
174
     0
 93
       13
 44
0.0
173
     0
291
     1
 45
0.0
  0
VISUALSTYLE
  5
2E
102
{ACAD_REACTORS
330
2A
102
}
330
2A
100
AcDbVisualStyle
  2
GouraudWithEdges
 70
     3
 71
     2
 72
     2
 73
     1
 90
        2
 40
-0.6
 41
30.0
 62
     5
 63
     7
421
 16777215
 74
     1
 91
        4
 64
     7
 65
   257
 75
     1
175
     1
 42
1.0
 92
        0
 66
   257
 43
1.0
 76
     1
 77
     6
 78
     2
 67
     7
 79
     5
170
     0
171
     0
290
     0
174
     0
 93
       13
 44
0.0
173
     0
291
     1
 45
0.0
  0
VISUALSTYLE
  5
38
102
{ACAD_REACTORS
330
2A
102
}
330
2A
100
AcDbVisualStyle
  2
Linepattern
 70
    14
 71
     2
 72
     2
 73
     0
 90
        0
 40
-0.6
 41
-30.0
 62
     5
 63
     7
421
 16777215
 74
     1
 91
        4
 64
     7
 65
   257
 75
     7
175
     7
 42
1.0
 92
        8
 66
     7
 43
1.0
 76
     1
 77
     6
 78
     2
 67
     7
 79
     5
170
     0
171
     0
290
     0
174
     0
 93
        1
 44
0.0
173
     0
291
     1
 45
0.0
  0
VISUALSTYLE
  5
33
102
{ACAD_REACTORS
330
2A
102
}
330
2A
100
AcDbVisualStyle
  2
Realistic
 70
     8
 71
     2
 72
     2
 73
     0
 90
        0
 40
-0.6
 41
-30.0
 62
     5
 63
     7
421
 16777215
 74
     1
 91
        0
 64
     7
 65
   257
 75
     1
175
     1
 42
1.0
 92
        8
 66
     8
424
  7895160
 43
1.0
 76
     1
 77
     6
 78
     2
 67
     7
 79
     5
170
     0
171
     0
290
     0
174
     0
 93
       13
 44
0.0
173
     0
291
     0
 45
0.0
  0
VISUALSTYLE
  5
37
102
{ACAD_REACTORS
330
2A
102
}
330
2A
100
AcDbVisualStyle
  2
Thicken
 70
    13
 71
     2
 72
     2
 73
     0
 90
        0
 40
-0.6
 41
-30.0
 62
     5
 63
     7
421
 16777215
 74
     1
 91
        4
 64
     7
 65
   257
 75
     1
175
     1
 42
1.0
 92
       12
 66
     7
 43
1.0
 76
     1
 77
     6
 78
     2
 67
     7
 79
     5
170
     0
171
     0
290
     0
174
     0
 93
        1
 44
0.0
173
     0
291
     1
 45
0.0
  0
ENDSEC
  0
EOF
