<?xml version="1.0" encoding="UTF-8"?>
<!DOCTYPE svg PUBLIC "-//W3C//DTD SVG 1.1//EN" "http://www.w3.org/Graphics/SVG/1.1/DTD/svg11.dtd">
<!-- Creator: CorelDRAW -->
<svg xmlns="http://www.w3.org/2000/svg" xml:space="preserve" width="210mm" height="297mm" style="shape-rendering:geometricPrecision; text-rendering:geometricPrecision; image-rendering:optimizeQuality; fill-rule:evenodd; clip-rule:evenodd"
viewBox="0 0 210 297"
 xmlns:xlink="http://www.w3.org/1999/xlink">
 <defs>
  <style type="text/css">
   <![CDATA[
    .str0 {stroke:black;stroke-width:0.2;stroke-linecap:round;stroke-linejoin:round}
    .fil0 {fill:none}
   ]]>
  </style>
 </defs>
 <g id="Layer_x0020_1">
  <metadata id="CorelCorpID_0Corel-Layer"/>
  <g id="_122569264">
   <circle id="_123652544" class="fil0 str0" cy="284.44" r="2"/>
   <polygon id="_123651368" class="fil0 str0" points="-0.75,297 0.75,297 0.75,300.4 0.375,300.4 0.375,313.4 -0.375,313.4 -0.375,300.4 -0.75,300.4 "/>
   <polygon id="_123650360" class="fil0 str0" points="1.79,297 3.29,297 3.29,300.4 2.915,300.4 2.915,313.4 2.165,313.4 2.165,300.4 1.79,300.4 "/>
   <polygon id="_123650960" class="fil0 str0" points="-3.29,297 -1.79,297 -1.79,300.4 -2.165,300.4 -2.165,313.4 -2.915,313.4 -2.915,300.4 -3.29,300.4 "/>
   <rect id="_122568304" class="fil0 str0" x="-5.08" y="281.9" width="10.16" height="15.1"/>
   <line id="_122568400" class="fil0 str0" x1="-5.08" y1="288.235" x2="5.08" y2= "288.235" />
  </g>
 </g>
</svg>
