  0
SECTION
  2
HEADER
  9
$ACADVER
  1
AC1021
  9
$ACADMAINTVER
 70
    25
  9
$DWGCODEPAGE
  3
ANSI_1252
  9
$INSBASE
 10
0.0
 20
0.0
 30
0.0
  9
$EXTMIN
 10
-11.83961
 20
-14.86767
 30
0.0
  9
$EXTMAX
 10
-9.16143
 20
-13.98475
 30
0.0
  9
$LIMMIN
 10
0.0
 20
0.0
  9
$LIMMAX
 10
12.0
 20
9.0
  9
$ORTHOMODE
 70
     0
  9
$REGENMODE
 70
     1
  9
$FILLMODE
 70
     1
  9
$QTEXTMODE
 70
     0
  9
$MIRRTEXT
 70
     1
  9
$LTSCALE
 40
1.0
  9
$ATTMODE
 70
     1
  9
$TEXTSIZE
 40
0.2
  9
$TRACEWID
 40
0.05
  9
$TEXTSTYLE
  7
Standard
  9
$CLAYER
  8
0
  9
$CELTYPE
  6
ByLayer
  9
$CECOLOR
 62
   256
  9
$CELTSCALE
 40
1.0
  9
$DISPSILH
 70
     0
  9
$DIMSCALE
 40
1.0
  9
$DIMASZ
 40
0.18
  9
$DIMEXO
 40
0.0625
  9
$DIMDLI
 40
0.38
  9
$DIMRND
 40
0.0
  9
$DIMDLE
 40
0.0
  9
$DIMEXE
 40
0.18
  9
$DIMTP
 40
0.0
  9
$DIMTM
 40
0.0
  9
$DIMTXT
 40
0.18
  9
$DIMCEN
 40
0.09
  9
$DIMTSZ
 40
0.0
  9
$DIMTOL
 70
     0
  9
$DIMLIM
 70
     0
  9
$DIMTIH
 70
     1
  9
$DIMTOH
 70
     1
  9
$DIMSE1
 70
     0
  9
$DIMSE2
 70
     0
  9
$DIMTAD
 70
     0
  9
$DIMZIN
 70
     0
  9
$DIMBLK
  1

  9
$DIMASO
 70
     1
  9
$DIMSHO
 70
     1
  9
$DIMPOST
  1

  9
$DIMAPOST
  1

  9
$DIMALT
 70
     0
  9
$DIMALTD
 70
     2
  9
$DIMALTF
 40
25.4
  9
$DIMLFAC
 40
1.0
  9
$DIMTOFL
 70
     0
  9
$DIMTVP
 40
0.0
  9
$DIMTIX
 70
     0
  9
$DIMSOXD
 70
     0
  9
$DIMSAH
 70
     0
  9
$DIMBLK1
  1

  9
$DIMBLK2
  1

  9
$DIMSTYLE
  2
Standard
  9
$DIMCLRD
 70
     0
  9
$DIMCLRE
 70
     0
  9
$DIMCLRT
 70
     0
  9
$DIMTFAC
 40
1.0
  9
$DIMGAP
 40
0.09
  9
$DIMJUST
 70
     0
  9
$DIMSD1
 70
     0
  9
$DIMSD2
 70
     0
  9
$DIMTOLJ
 70
     1
  9
$DIMTZIN
 70
     0
  9
$DIMALTZ
 70
     0
  9
$DIMALTTZ
 70
     0
  9
$DIMUPT
 70
     0
  9
$DIMDEC
 70
     4
  9
$DIMTDEC
 70
     4
  9
$DIMALTU
 70
     2
  9
$DIMALTTD
 70
     2
  9
$DIMTXSTY
  7
Standard
  9
$DIMAUNIT
 70
     0
  9
$DIMADEC
 70
     0
  9
$DIMALTRND
 40
0.0
  9
$DIMAZIN
 70
     0
  9
$DIMDSEP
 70
    46
  9
$DIMATFIT
 70
     3
  9
$DIMFRAC
 70
     0
  9
$DIMLDRBLK
  1

  9
$DIMLUNIT
 70
     2
  9
$DIMLWD
 70
    -2
  9
$DIMLWE
 70
    -2
  9
$DIMTMOVE
 70
     0
  9
$DIMFXL
 40
1.0
  9
$DIMFXLON
 70
     0
  9
$DIMJOGANG
 40
0.7853981633974483
  9
$DIMTFILL
 70
     0
  9
$DIMTFILLCLR
 70
     0
  9
$DIMARCSYM
 70
     0
  9
$DIMLTYPE
  6

  9
$DIMLTEX1
  6

  9
$DIMLTEX2
  6

  9
$LUNITS
 70
     2
  9
$LUPREC
 70
     4
  9
$SKETCHINC
 40
0.1
  9
$FILLETRAD
 40
0.5
  9
$AUNITS
 70
     0
  9
$AUPREC
 70
     0
  9
$MENU
  1
.
  9
$ELEVATION
 40
0.0
  9
$PELEVATION
 40
0.0
  9
$THICKNESS
 40
0.0
  9
$LIMCHECK
 70
     0
  9
$CHAMFERA
 40
0.5
  9
$CHAMFERB
 40
0.5
  9
$CHAMFERC
 40
1.0
  9
$CHAMFERD
 40
0.0
  9
$SKPOLY
 70
     0
  9
$TDCREATE
 40
2457049.323624711
  9
$TDUCREATE
 40
2457049.323624711
  9
$TDUPDATE
 40
2457049.323624722
  9
$TDUUPDATE
 40
2457049.323624722
  9
$TDINDWG
 40
0.0000000116
  9
$TDUSRTIMER
 40
0.0000000116
  9
$USRTIMER
 70
     1
  9
$ANGBASE
 50
0.0
  9
$ANGDIR
 70
     0
  9
$PDMODE
 70
     0
  9
$PDSIZE
 40
0.0
  9
$PLINEWID
 40
0.0
  9
$SPLFRAME
 70
     0
  9
$SPLINETYPE
 70
     6
  9
$SPLINESEGS
 70
     8
  9
$HANDSEED
  5
99
  9
$SURFTAB1
 70
     6
  9
$SURFTAB2
 70
     6
  9
$SURFTYPE
 70
     6
  9
$SURFU
 70
     6
  9
$SURFV
 70
     6
  9
$UCSBASE
  2

  9
$UCSNAME
  2

  9
$UCSORG
 10
0.0
 20
0.0
 30
0.0
  9
$UCSXDIR
 10
1.0
 20
0.0
 30
0.0
  9
$UCSYDIR
 10
0.0
 20
1.0
 30
0.0
  9
$UCSORTHOREF
  2

  9
$UCSORTHOVIEW
 70
     0
  9
$UCSORGTOP
 10
0.0
 20
0.0
 30
0.0
  9
$UCSORGBOTTOM
 10
0.0
 20
0.0
 30
0.0
  9
$UCSORGLEFT
 10
0.0
 20
0.0
 30
0.0
  9
$UCSORGRIGHT
 10
0.0
 20
0.0
 30
0.0
  9
$UCSORGFRONT
 10
0.0
 20
0.0
 30
0.0
  9
$UCSORGBACK
 10
0.0
 20
0.0
 30
0.0
  9
$PUCSBASE
  2

  9
$PUCSNAME
  2

  9
$PUCSORG
 10
0.0
 20
0.0
 30
0.0
  9
$PUCSXDIR
 10
1.0
 20
0.0
 30
0.0
  9
$PUCSYDIR
 10
0.0
 20
1.0
 30
0.0
  9
$PUCSORTHOREF
  2

  9
$PUCSORTHOVIEW
 70
     0
  9
$PUCSORGTOP
 10
0.0
 20
0.0
 30
0.0
  9
$PUCSORGBOTTOM
 10
0.0
 20
0.0
 30
0.0
  9
$PUCSORGLEFT
 10
0.0
 20
0.0
 30
0.0
  9
$PUCSORGRIGHT
 10
0.0
 20
0.0
 30
0.0
  9
$PUCSORGFRONT
 10
0.0
 20
0.0
 30
0.0
  9
$PUCSORGBACK
 10
0.0
 20
0.0
 30
0.0
  9
$USERI1
 70
     0
  9
$USERI2
 70
     0
  9
$USERI3
 70
     0
  9
$USERI4
 70
     0
  9
$USERI5
 70
     0
  9
$USERR1
 40
0.0
  9
$USERR2
 40
0.0
  9
$USERR3
 40
0.0
  9
$USERR4
 40
0.0
  9
$USERR5
 40
0.0
  9
$WORLDVIEW
 70
     1
  9
$SHADEDGE
 70
     3
  9
$SHADEDIF
 70
    70
  9
$TILEMODE
 70
     1
  9
$MAXACTVP
 70
    64
  9
$PINSBASE
 10
0.0
 20
0.0
 30
0.0
  9
$PLIMCHECK
 70
     0
  9
$PEXTMIN
 10
1.000000000000000E+20
 20
1.000000000000000E+20
 30
1.000000000000000E+20
  9
$PEXTMAX
 10
-1.000000000000000E+20
 20
-1.000000000000000E+20
 30
-1.000000000000000E+20
  9
$PLIMMIN
 10
0.0
 20
0.0
  9
$PLIMMAX
 10
12.0
 20
9.0
  9
$UNITMODE
 70
     0
  9
$VISRETAIN
 70
     1
  9
$PLINEGEN
 70
     0
  9
$PSLTSCALE
 70
     1
  9
$TREEDEPTH
 70
  3020
  9
$CMLSTYLE
  2
Standard
  9
$CMLJUST
 70
     0
  9
$CMLSCALE
 40
1.0
  9
$PROXYGRAPHICS
 70
     1
  9
$MEASUREMENT
 70
     0
  9
$CELWEIGHT
370
    -1
  9
$ENDCAPS
280
     0
  9
$JOINSTYLE
280
     0
  9
$LWDISPLAY
290
     0
  9
$INSUNITS
 70
     5
  9
$HYPERLINKBASE
  1

  9
$STYLESHEET
  1

  9
$XEDIT
290
     1
  9
$CEPSNTYPE
380
     0
  9
$PSTYLEMODE
290
     1
  9
$FINGERPRINTGUID
  2
{7F47F14F-6624-4EC9-9FB5-80F878FFEF94}
  9
$VERSIONGUID
  2
{FAEB1C32-E019-11D5-929B-00C0DF256EC4}
  9
$EXTNAMES
290
     1
  9
$PSVPSCALE
 40
0.0
  9
$OLESTARTUP
290
     0
  9
$SORTENTS
280
   127
  9
$INDEXCTL
280
     0
  9
$HIDETEXT
280
     1
  9
$XCLIPFRAME
290
     0
  9
$HALOGAP
280
     0
  9
$OBSCOLOR
 70
   257
  9
$OBSLTYPE
280
     0
  9
$INTERSECTIONDISPLAY
280
     0
  9
$INTERSECTIONCOLOR
 70
   257
  9
$DIMASSOC
280
     2
  9
$PROJECTNAME
  1

  9
$CAMERADISPLAY
290
     0
  9
$LENSLENGTH
 40
50.0
  9
$CAMERAHEIGHT
 40
0.0
  9
$STEPSPERSEC
 40
2.0
  9
$STEPSIZE
 40
6.0
  9
$3DDWFPREC
 40
2.0
  9
$PSOLWIDTH
 40
0.25
  9
$PSOLHEIGHT
 40
4.0
  9
$LOFTANG1
 40
1.570796326794897
  9
$LOFTANG2
 40
1.570796326794897
  9
$LOFTMAG1
 40
0.0
  9
$LOFTMAG2
 40
0.0
  9
$LOFTPARAM
 70
     7
  9
$LOFTNORMALS
280
     1
  9
$LATITUDE
 40
37.795
  9
$LONGITUDE
 40
-122.394
  9
$NORTHDIRECTION
 40
0.0
  9
$TIMEZONE
 70
 -8000
  9
$LIGHTGLYPHDISPLAY
280
     1
  9
$TILEMODELIGHTSYNCH
280
     1
  9
$SOLIDHIST
280
     1
  9
$SHOWHIST
280
     1
  9
$DWFFRAME
280
     2
  9
$DGNFRAME
280
     2
  9
$REALWORLDSCALE
290
     1
  9
$INTERFERECOLOR
 62
   256
  9
$CSHADOW
280
     0
  9
$SHADOWPLANELOCATION
 40
0.0
  0
ENDSEC
  0
SECTION
  2
CLASSES
  0
CLASS
  1
ACDBDICTIONARYWDFLT
  2
AcDbDictionaryWithDefault
  3
ObjectDBX Classes
 90
        0
 91
        3
280
     0
281
     0
  0
CLASS
  1
VISUALSTYLE
  2
AcDbVisualStyle
  3
ObjectDBX Classes
 90
     4095
 91
        3
280
     0
281
     0
  0
CLASS
  1
SCALE
  2
AcDbScale
  3
ObjectDBX Classes
 90
     1153
 91
        3
280
     0
281
     0
  0
ENDSEC
  0
SECTION
  2
TABLES
  0
TABLE
  2
VPORT
  5
8
330
0
100
AcDbSymbolTable
 70
     1
  0
VPORT
  5
29
330
8
100
AcDbSymbolTableRecord
100
AcDbViewportTableRecord
  2
*Active
 70
     0
 10
0.0
 20
0.0
 11
1.0
 21
1.0
 12
10.42990654205607
 22
4.5
 13
0.0
 23
0.0
 14
0.5
 24
0.5
 15
0.5
 25
0.5
 16
0.0
 26
0.0
 36
1.0
 17
0.0
 27
0.0
 37
0.0
 40
9.0
 41
1.972972972850329
 42
50.0
 43
0.0
 44
0.0
 50
0.0
 51
0.0
 71
     0
 72
   100
 73
     1
 74
     3
 75
     0
 76
     0
 77
     0
 78
     0
281
     0
 65
     1
110
0.0
120
0.0
130
0.0
111
1.0
121
0.0
131
0.0
112
0.0
122
1.0
132
0.0
 79
     0
146
0.0
 60
     3
 61
     5
292
     1
282
     1
141
0.0
142
0.0
 63
   256
  0
ENDTAB
  0
TABLE
  2
LTYPE
  5
5
330
0
100
AcDbSymbolTable
 70
     1
  0
LTYPE
  5
14
330
5
100
AcDbSymbolTableRecord
100
AcDbLinetypeTableRecord
  2
ByBlock
 70
     0
  3

 72
    65
 73
     0
 40
0.0
  0
LTYPE
  5
15
330
5
100
AcDbSymbolTableRecord
100
AcDbLinetypeTableRecord
  2
ByLayer
 70
     0
  3

 72
    65
 73
     0
 40
0.0
  0
LTYPE
  5
16
330
5
100
AcDbSymbolTableRecord
100
AcDbLinetypeTableRecord
  2
Continuous
 70
     0
  3
Solid line
 72
    65
 73
     0
 40
0.0
  0
ENDTAB
  0
TABLE
  2
LAYER
  5
2
330
0
100
AcDbSymbolTable
 70
     2
  0
LAYER
  5
10
330
2
100
AcDbSymbolTableRecord
100
AcDbLayerTableRecord
  2
0
 70
     0
 62
     7
  6
Continuous
370
    -3
390
F
347
0
  0
LAYER
  5
5E
330
2
100
AcDbSymbolTableRecord
100
AcDbLayerTableRecord
  2
Layer 1
 70
     0
 62
     7
  6
Continuous
370
    -3
390
F
347
0
  0
ENDTAB
  0
TABLE
  2
STYLE
  5
3
330
0
100
AcDbSymbolTable
 70
     1
  0
STYLE
  5
11
330
3
100
AcDbSymbolTableRecord
100
AcDbTextStyleTableRecord
  2
Standard
 70
     0
 40
0.0
 41
1.0
 50
0.0
 71
     0
 42
0.2
  3
txt
  4

  0
ENDTAB
  0
TABLE
  2
VIEW
  5
6
330
0
100
AcDbSymbolTable
 70
     0
  0
ENDTAB
  0
TABLE
  2
UCS
  5
7
330
0
100
AcDbSymbolTable
 70
     0
  0
ENDTAB
  0
TABLE
  2
APPID
  5
9
330
0
100
AcDbSymbolTable
 70
     2
  0
APPID
  5
12
330
9
100
AcDbSymbolTableRecord
100
AcDbRegAppTableRecord
  2
ACAD
 70
     0
  0
APPID
  5
5D
330
9
100
AcDbSymbolTableRecord
100
AcDbRegAppTableRecord
  2
ODA
 70
     0
  0
ENDTAB
  0
TABLE
  2
DIMSTYLE
  5
A
330
0
100
AcDbSymbolTable
 70
     1
100
AcDbDimStyleTable
  0
DIMSTYLE
105
27
330
A
100
AcDbSymbolTableRecord
100
AcDbDimStyleTableRecord
  2
Standard
 70
     0
340
11
  0
ENDTAB
  0
TABLE
  2
BLOCK_RECORD
  5
1
330
0
100
AcDbSymbolTable
 70
     1
  0
BLOCK_RECORD
  5
1F
330
1
100
AcDbSymbolTableRecord
100
AcDbBlockTableRecord
  2
*Model_Space
340
22
 70
     0
280
     1
281
     0
  0
BLOCK_RECORD
  5
1B
330
1
100
AcDbSymbolTableRecord
100
AcDbBlockTableRecord
  2
*Paper_Space
340
1E
 70
     0
280
     1
281
     0
  0
BLOCK_RECORD
  5
23
330
1
100
AcDbSymbolTableRecord
100
AcDbBlockTableRecord
  2
*Paper_Space0
340
26
 70
     0
280
     1
281
     0
  0
ENDTAB
  0
ENDSEC
  0
SECTION
  2
BLOCKS
  0
BLOCK
  5
20
330
1F
100
AcDbEntity
  8
0
100
AcDbBlockBegin
  2
*Model_Space
 70
     0
 10
0.0
 20
0.0
 30
0.0
  3
*Model_Space
  1

  0
ENDBLK
  5
21
330
1F
100
AcDbEntity
  8
0
100
AcDbBlockEnd
  0
BLOCK
  5
1C
330
1B
100
AcDbEntity
 67
     1
  8
0
100
AcDbBlockBegin
  2
*Paper_Space
 70
     0
 10
0.0
 20
0.0
 30
0.0
  3
*Paper_Space
  1

  0
ENDBLK
  5
1D
330
1B
100
AcDbEntity
 67
     1
  8
0
100
AcDbBlockEnd
  0
BLOCK
  5
24
330
23
100
AcDbEntity
  8
0
100
AcDbBlockBegin
  2
*Paper_Space0
 70
     0
 10
0.0
 20
0.0
 30
0.0
  3
*Paper_Space0
  1

  0
ENDBLK
  5
25
330
23
100
AcDbEntity
  8
0
100
AcDbBlockEnd
  0
ENDSEC
  0
SECTION
  2
ENTITIES
  0
SPLINE
  5
5F
330
1F
100
AcDbEntity
  8
Layer 1
 62
   250
100
AcDbSpline
210
0.0
220
0.0
230
1.0
 70
    11
 71
     3
 72
    80
 73
    76
 74
     0
 42
0.0000000001
 43
0.0000000001
 40
0.0
 40
0.0
 40
0.0
 40
0.0
 40
0.0526315789473684
 40
0.0526315789473684
 40
0.0526315789473684
 40
0.0526315789473684
 40
0.1052631578947368
 40
0.1052631578947368
 40
0.1052631578947368
 40
0.1052631578947368
 40
0.1578947368421053
 40
0.1578947368421053
 40
0.1578947368421053
 40
0.1578947368421053
 40
0.2105263157894737
 40
0.2105263157894737
 40
0.2105263157894737
 40
0.2105263157894737
 40
0.2631578947368421
 40
0.2631578947368421
 40
0.2631578947368421
 40
0.2631578947368421
 40
0.3157894736842105
 40
0.3157894736842105
 40
0.3157894736842105
 40
0.3157894736842105
 40
0.3684210526315789
 40
0.3684210526315789
 40
0.3684210526315789
 40
0.3684210526315789
 40
0.4210526315789473
 40
0.4210526315789473
 40
0.4210526315789473
 40
0.4210526315789473
 40
0.4736842105263158
 40
0.4736842105263158
 40
0.4736842105263158
 40
0.4736842105263158
 40
0.5263157894736842
 40
0.5263157894736842
 40
0.5263157894736842
 40
0.5263157894736842
 40
0.5789473684210527
 40
0.5789473684210527
 40
0.5789473684210527
 40
0.5789473684210527
 40
0.631578947368421
 40
0.631578947368421
 40
0.631578947368421
 40
0.631578947368421
 40
0.6842105263157894
 40
0.6842105263157894
 40
0.6842105263157894
 40
0.6842105263157894
 40
0.7368421052631577
 40
0.7368421052631577
 40
0.7368421052631577
 40
0.7368421052631577
 40
0.7894736842105261
 40
0.7894736842105261
 40
0.7894736842105261
 40
0.7894736842105261
 40
0.8421052631578945
 40
0.8421052631578945
 40
0.8421052631578945
 40
0.8421052631578945
 40
0.8947368421052628
 40
0.8947368421052628
 40
0.8947368421052628
 40
0.8947368421052628
 40
0.9473684210526312
 40
0.9473684210526312
 40
0.9473684210526312
 40
0.9473684210526312
 40
1.0
 40
1.0
 40
1.0
 40
1.0
 10
-10.93086
 20
-14.10555
 30
0.0
 10
-10.93086
 20
-14.10555
 30
0.0
 10
-10.86669
 20
-14.10555
 30
0.0
 10
-10.86669
 20
-14.10555
 30
0.0
 10
-10.86669
 20
-14.10555
 30
0.0
 10
-10.86669
 20
-14.10555
 30
0.0
 10
-10.86669
 20
-14.13318
 30
0.0
 10
-10.86669
 20
-14.13318
 30
0.0
 10
-10.86669
 20
-14.13318
 30
0.0
 10
-10.86669
 20
-14.13318
 30
0.0
 10
-10.97266
 20
-14.13318
 30
0.0
 10
-10.97266
 20
-14.13318
 30
0.0
 10
-10.97266
 20
-14.13318
 30
0.0
 10
-10.97266
 20
-14.13318
 30
0.0
 10
-10.97266
 20
-14.10555
 30
0.0
 10
-10.97266
 20
-14.10555
 30
0.0
 10
-10.97266
 20
-14.10555
 30
0.0
 10
-10.97266
 20
-14.10555
 30
0.0
 10
-10.91942
 20
-14.05858
 30
0.0
 10
-10.91942
 20
-14.05858
 30
0.0
 10
-10.91942
 20
-14.05858
 30
0.0
 10
-10.91466
 20
-14.05428
 30
0.0
 10
-10.91116
 20
-14.05008
 30
0.0
 10
-10.90889
 20
-14.04598
 30
0.0
 10
-10.90889
 20
-14.04598
 30
0.0
 10
-10.90659
 20
-14.04188
 30
0.0
 10
-10.90546
 20
-14.03761
 30
0.0
 10
-10.90546
 20
-14.03318
 30
0.0
 10
-10.90546
 20
-14.03318
 30
0.0
 10
-10.90546
 20
-14.02635
 30
0.0
 10
-10.90776
 20
-14.02085
 30
0.0
 10
-10.91236
 20
-14.01668
 30
0.0
 10
-10.91236
 20
-14.01668
 30
0.0
 10
-10.91692
 20
-14.01251
 30
0.0
 10
-10.92302
 20
-14.01045
 30
0.0
 10
-10.93066
 20
-14.01045
 30
0.0
 10
-10.93066
 20
-14.01045
 30
0.0
 10
-10.93652
 20
-14.01045
 30
0.0
 10
-10.94292
 20
-14.01171
 30
0.0
 10
-10.94989
 20
-14.01421
 30
0.0
 10
-10.94989
 20
-14.01421
 30
0.0
 10
-10.95686
 20
-14.01671
 30
0.0
 10
-10.96432
 20
-14.02045
 30
0.0
 10
-10.97226
 20
-14.02538
 30
0.0
 10
-10.97226
 20
-14.02538
 30
0.0
 10
-10.97226
 20
-14.02538
 30
0.0
 10
-10.97226
 20
-13.99335
 30
0.0
 10
-10.97226
 20
-13.99335
 30
0.0
 10
-10.97226
 20
-13.99335
 30
0.0
 10
-10.96379
 20
-13.99055
 30
0.0
 10
-10.95542
 20
-13.98841
 30
0.0
 10
-10.94716
 20
-13.98695
 30
0.0
 10
-10.94716
 20
-13.98695
 30
0.0
 10
-10.93889
 20
-13.98548
 30
0.0
 10
-10.93079
 20
-13.98475
 30
0.0
 10
-10.92282
 20
-13.98475
 30
0.0
 10
-10.92282
 20
-13.98475
 30
0.0
 10
-10.90539
 20
-13.98475
 30
0.0
 10
-10.89182
 20
-13.98858
 30
0.0
 10
-10.88216
 20
-13.99628
 30
0.0
 10
-10.88216
 20
-13.99628
 30
0.0
 10
-10.87249
 20
-14.00395
 30
0.0
 10
-10.86766
 20
-14.01465
 30
0.0
 10
-10.86766
 20
-14.02841
 30
0.0
 10
-10.86766
 20
-14.02841
 30
0.0
 10
-10.86766
 20
-14.03635
 30
0.0
 10
-10.86972
 20
-14.04375
 30
0.0
 10
-10.87382
 20
-14.05061
 30
0.0
 10
-10.87382
 20
-14.05061
 30
0.0
 10
-10.87792
 20
-14.05748
 30
0.0
 10
-10.88656
 20
-14.06668
 30
0.0
 10
-10.89969
 20
-14.07821
 30
0.0
 10
-10.89969
 20
-14.07821
 30
0.0
 10
-10.89969
 20
-14.07821
 30
0.0
 10
-10.93086
 20
-14.10555
 30
0.0
 10
-10.93086
 20
-14.10555
 30
0.0
  0
SPLINE
  5
60
330
1F
100
AcDbEntity
  8
Layer 1
 62
   250
100
AcDbSpline
210
0.0
220
0.0
230
1.0
 70
    11
 71
     3
 72
    20
 73
    16
 74
     0
 42
0.0000000001
 43
0.0000000001
 40
0.0
 40
0.0
 40
0.0
 40
0.0
 40
0.25
 40
0.25
 40
0.25
 40
0.25
 40
0.5
 40
0.5
 40
0.5
 40
0.5
 40
0.75
 40
0.75
 40
0.75
 40
0.75
 40
1.0
 40
1.0
 40
1.0
 40
1.0
 10
-10.82892
 20
-14.09538
 30
0.0
 10
-10.82892
 20
-14.09538
 30
0.0
 10
-10.79375
 20
-14.09538
 30
0.0
 10
-10.79375
 20
-14.09538
 30
0.0
 10
-10.79375
 20
-14.09538
 30
0.0
 10
-10.79375
 20
-14.09538
 30
0.0
 10
-10.79375
 20
-14.13318
 30
0.0
 10
-10.79375
 20
-14.13318
 30
0.0
 10
-10.79375
 20
-14.13318
 30
0.0
 10
-10.79375
 20
-14.13318
 30
0.0
 10
-10.82892
 20
-14.13318
 30
0.0
 10
-10.82892
 20
-14.13318
 30
0.0
 10
-10.82892
 20
-14.13318
 30
0.0
 10
-10.82892
 20
-14.13318
 30
0.0
 10
-10.82892
 20
-14.09538
 30
0.0
 10
-10.82892
 20
-14.09538
 30
0.0
  0
SPLINE
  5
61
330
1F
100
AcDbEntity
  8
Layer 1
 62
   250
100
AcDbSpline
210
0.0
220
0.0
230
1.0
 70
    11
 71
     3
 72
    92
 73
    88
 74
     0
 42
0.0000000001
 43
0.0000000001
 40
0.0
 40
0.0
 40
0.0
 40
0.0
 40
0.0454545454545455
 40
0.0454545454545455
 40
0.0454545454545455
 40
0.0454545454545455
 40
0.0909090909090909
 40
0.0909090909090909
 40
0.0909090909090909
 40
0.0909090909090909
 40
0.1363636363636364
 40
0.1363636363636364
 40
0.1363636363636364
 40
0.1363636363636364
 40
0.1818181818181818
 40
0.1818181818181818
 40
0.1818181818181818
 40
0.1818181818181818
 40
0.2272727272727273
 40
0.2272727272727273
 40
0.2272727272727273
 40
0.2272727272727273
 40
0.2727272727272728
 40
0.2727272727272728
 40
0.2727272727272728
 40
0.2727272727272728
 40
0.3181818181818182
 40
0.3181818181818182
 40
0.3181818181818182
 40
0.3181818181818182
 40
0.3636363636363637
 40
0.3636363636363637
 40
0.3636363636363637
 40
0.3636363636363637
 40
0.4090909090909092
 40
0.4090909090909092
 40
0.4090909090909092
 40
0.4090909090909092
 40
0.4545454545454546
 40
0.4545454545454546
 40
0.4545454545454546
 40
0.4545454545454546
 40
0.5000000000000001
 40
0.5000000000000001
 40
0.5000000000000001
 40
0.5000000000000001
 40
0.5454545454545455
 40
0.5454545454545455
 40
0.5454545454545455
 40
0.5454545454545455
 40
0.5909090909090909
 40
0.5909090909090909
 40
0.5909090909090909
 40
0.5909090909090909
 40
0.6363636363636364
 40
0.6363636363636364
 40
0.6363636363636364
 40
0.6363636363636364
 40
0.6818181818181818
 40
0.6818181818181818
 40
0.6818181818181818
 40
0.6818181818181818
 40
0.7272727272727272
 40
0.7272727272727272
 40
0.7272727272727272
 40
0.7272727272727272
 40
0.7727272727272726
 40
0.7727272727272726
 40
0.7727272727272726
 40
0.7727272727272726
 40
0.818181818181818
 40
0.818181818181818
 40
0.818181818181818
 40
0.818181818181818
 40
0.8636363636363634
 40
0.8636363636363634
 40
0.8636363636363634
 40
0.8636363636363634
 40
0.9090909090909088
 40
0.9090909090909088
 40
0.9090909090909088
 40
0.9090909090909088
 40
0.9545454545454543
 40
0.9545454545454543
 40
0.9545454545454543
 40
0.9545454545454543
 40
1.0
 40
1.0
 40
1.0
 40
1.0
 10
-10.75215
 20
-13.98738
 30
0.0
 10
-10.75215
 20
-13.98738
 30
0.0
 10
-10.65868
 20
-13.98738
 30
0.0
 10
-10.65868
 20
-13.98738
 30
0.0
 10
-10.65868
 20
-13.98738
 30
0.0
 10
-10.65868
 20
-13.98738
 30
0.0
 10
-10.65868
 20
-14.01501
 30
0.0
 10
-10.65868
 20
-14.01501
 30
0.0
 10
-10.65868
 20
-14.01501
 30
0.0
 10
-10.65868
 20
-14.01501
 30
0.0
 10
-10.72218
 20
-14.01501
 30
0.0
 10
-10.72218
 20
-14.01501
 30
0.0
 10
-10.72218
 20
-14.01501
 30
0.0
 10
-10.72218
 20
-14.01501
 30
0.0
 10
-10.72218
 20
-14.03758
 30
0.0
 10
-10.72218
 20
-14.03758
 30
0.0
 10
-10.72218
 20
-14.03758
 30
0.0
 10
-10.71932
 20
-14.03681
 30
0.0
 10
-10.71645
 20
-14.03621
 30
0.0
 10
-10.71355
 20
-14.03578
 30
0.0
 10
-10.71355
 20
-14.03578
 30
0.0
 10
-10.71065
 20
-14.03535
 30
0.0
 10
-10.70762
 20
-14.03515
 30
0.0
 10
-10.70452
 20
-14.03515
 30
0.0
 10
-10.70452
 20
-14.03515
 30
0.0
 10
-10.68672
 20
-14.03515
 30
0.0
 10
-10.67288
 20
-14.03958
 30
0.0
 10
-10.66298
 20
-14.04848
 30
0.0
 10
-10.66298
 20
-14.04848
 30
0.0
 10
-10.65308
 20
-14.05735
 30
0.0
 10
-10.64815
 20
-14.06975
 30
0.0
 10
-10.64815
 20
-14.08561
 30
0.0
 10
-10.64815
 20
-14.08561
 30
0.0
 10
-10.64815
 20
-14.10138
 30
0.0
 10
-10.65355
 20
-14.11371
 30
0.0
 10
-10.66432
 20
-14.12265
 30
0.0
 10
-10.66432
 20
-14.12265
 30
0.0
 10
-10.67508
 20
-14.13155
 30
0.0
 10
-10.69005
 20
-14.13601
 30
0.0
 10
-10.70918
 20
-14.13601
 30
0.0
 10
-10.70918
 20
-14.13601
 30
0.0
 10
-10.71745
 20
-14.13601
 30
0.0
 10
-10.72565
 20
-14.13521
 30
0.0
 10
-10.73375
 20
-14.13361
 30
0.0
 10
-10.73375
 20
-14.13361
 30
0.0
 10
-10.74185
 20
-14.13201
 30
0.0
 10
-10.74992
 20
-14.12961
 30
0.0
 10
-10.75792
 20
-14.12635
 30
0.0
 10
-10.75792
 20
-14.12635
 30
0.0
 10
-10.75792
 20
-14.12635
 30
0.0
 10
-10.75792
 20
-14.09675
 30
0.0
 10
-10.75792
 20
-14.09675
 30
0.0
 10
-10.75792
 20
-14.09675
 30
0.0
 10
-10.74998
 20
-14.10131
 30
0.0
 10
-10.74245
 20
-14.10471
 30
0.0
 10
-10.73532
 20
-14.10698
 30
0.0
 10
-10.73532
 20
-14.10698
 30
0.0
 10
-10.72818
 20
-14.10928
 30
0.0
 10
-10.72145
 20
-14.11041
 30
0.0
 10
-10.71515
 20
-14.11041
 30
0.0
 10
-10.71515
 20
-14.11041
 30
0.0
 10
-10.70602
 20
-14.11041
 30
0.0
 10
-10.69885
 20
-14.10818
 30
0.0
 10
-10.69362
 20
-14.10371
 30
0.0
 10
-10.69362
 20
-14.10371
 30
0.0
 10
-10.68838
 20
-14.09928
 30
0.0
 10
-10.68575
 20
-14.09325
 30
0.0
 10
-10.68575
 20
-14.08561
 30
0.0
 10
-10.68575
 20
-14.08561
 30
0.0
 10
-10.68575
 20
-14.07795
 30
0.0
 10
-10.68838
 20
-14.07191
 30
0.0
 10
-10.69362
 20
-14.06748
 30
0.0
 10
-10.69362
 20
-14.06748
 30
0.0
 10
-10.69885
 20
-14.06305
 30
0.0
 10
-10.70602
 20
-14.06085
 30
0.0
 10
-10.71515
 20
-14.06085
 30
0.0
 10
-10.71515
 20
-14.06085
 30
0.0
 10
-10.72055
 20
-14.06085
 30
0.0
 10
-10.72632
 20
-14.06155
 30
0.0
 10
-10.73242
 20
-14.06295
 30
0.0
 10
-10.73242
 20
-14.06295
 30
0.0
 10
-10.73855
 20
-14.06435
 30
0.0
 10
-10.74512
 20
-14.06651
 30
0.0
 10
-10.75215
 20
-14.06945
 30
0.0
 10
-10.75215
 20
-14.06945
 30
0.0
 10
-10.75215
 20
-14.06945
 30
0.0
 10
-10.75215
 20
-13.98738
 30
0.0
 10
-10.75215
 20
-13.98738
 30
0.0
  0
SPLINE
  5
62
330
1F
100
AcDbEntity
  8
Layer 1
 62
   250
100
AcDbSpline
210
0.0
220
0.0
230
1.0
 70
    11
 71
     3
 72
    16
 73
    12
 74
     0
 42
0.0000000001
 43
0.0000000001
 40
0.0
 40
0.0
 40
0.0
 40
0.0
 40
0.3333333333333333
 40
0.3333333333333333
 40
0.3333333333333333
 40
0.3333333333333333
 40
0.6666666666666666
 40
0.6666666666666666
 40
0.6666666666666666
 40
0.6666666666666666
 40
1.0
 40
1.0
 40
1.0
 40
1.0
 10
-10.56051
 20
-14.01835
 30
0.0
 10
-10.56051
 20
-14.01835
 30
0.0
 10
-10.60175
 20
-14.07938
 30
0.0
 10
-10.60175
 20
-14.07938
 30
0.0
 10
-10.60175
 20
-14.07938
 30
0.0
 10
-10.60175
 20
-14.07938
 30
0.0
 10
-10.56051
 20
-14.07938
 30
0.0
 10
-10.56051
 20
-14.07938
 30
0.0
 10
-10.56051
 20
-14.07938
 30
0.0
 10
-10.56051
 20
-14.07938
 30
0.0
 10
-10.56051
 20
-14.01835
 30
0.0
 10
-10.56051
 20
-14.01835
 30
0.0
  0
SPLINE
  5
63
330
1F
100
AcDbEntity
  8
Layer 1
 62
   250
100
AcDbSpline
210
0.0
220
0.0
230
1.0
 70
    11
 71
     3
 72
    48
 73
    44
 74
     0
 42
0.0000000001
 43
0.0000000001
 40
0.0
 40
0.0
 40
0.0
 40
0.0
 40
0.0909090909090909
 40
0.0909090909090909
 40
0.0909090909090909
 40
0.0909090909090909
 40
0.1818181818181818
 40
0.1818181818181818
 40
0.1818181818181818
 40
0.1818181818181818
 40
0.2727272727272727
 40
0.2727272727272727
 40
0.2727272727272727
 40
0.2727272727272727
 40
0.3636363636363636
 40
0.3636363636363636
 40
0.3636363636363636
 40
0.3636363636363636
 40
0.4545454545454546
 40
0.4545454545454546
 40
0.4545454545454546
 40
0.4545454545454546
 40
0.5454545454545455
 40
0.5454545454545455
 40
0.5454545454545455
 40
0.5454545454545455
 40
0.6363636363636365
 40
0.6363636363636365
 40
0.6363636363636365
 40
0.6363636363636365
 40
0.7272727272727274
 40
0.7272727272727274
 40
0.7272727272727274
 40
0.7272727272727274
 40
0.8181818181818183
 40
0.8181818181818183
 40
0.8181818181818183
 40
0.8181818181818183
 40
0.9090909090909093
 40
0.9090909090909093
 40
0.9090909090909093
 40
0.9090909090909093
 40
1.0
 40
1.0
 40
1.0
 40
1.0
 10
-10.56678
 20
-13.98738
 30
0.0
 10
-10.56678
 20
-13.98738
 30
0.0
 10
-10.52498
 20
-13.98738
 30
0.0
 10
-10.52498
 20
-13.98738
 30
0.0
 10
-10.52498
 20
-13.98738
 30
0.0
 10
-10.52498
 20
-13.98738
 30
0.0
 10
-10.52498
 20
-14.07938
 30
0.0
 10
-10.52498
 20
-14.07938
 30
0.0
 10
-10.52498
 20
-14.07938
 30
0.0
 10
-10.52498
 20
-14.07938
 30
0.0
 10
-10.50418
 20
-14.07938
 30
0.0
 10
-10.50418
 20
-14.07938
 30
0.0
 10
-10.50418
 20
-14.07938
 30
0.0
 10
-10.50418
 20
-14.07938
 30
0.0
 10
-10.50418
 20
-14.10661
 30
0.0
 10
-10.50418
 20
-14.10661
 30
0.0
 10
-10.50418
 20
-14.10661
 30
0.0
 10
-10.50418
 20
-14.10661
 30
0.0
 10
-10.52498
 20
-14.10661
 30
0.0
 10
-10.52498
 20
-14.10661
 30
0.0
 10
-10.52498
 20
-14.10661
 30
0.0
 10
-10.52498
 20
-14.10661
 30
0.0
 10
-10.52498
 20
-14.13318
 30
0.0
 10
-10.52498
 20
-14.13318
 30
0.0
 10
-10.52498
 20
-14.13318
 30
0.0
 10
-10.52498
 20
-14.13318
 30
0.0
 10
-10.56051
 20
-14.13318
 30
0.0
 10
-10.56051
 20
-14.13318
 30
0.0
 10
-10.56051
 20
-14.13318
 30
0.0
 10
-10.56051
 20
-14.13318
 30
0.0
 10
-10.56051
 20
-14.10661
 30
0.0
 10
-10.56051
 20
-14.10661
 30
0.0
 10
-10.56051
 20
-14.10661
 30
0.0
 10
-10.56051
 20
-14.10661
 30
0.0
 10
-10.62518
 20
-14.10661
 30
0.0
 10
-10.62518
 20
-14.10661
 30
0.0
 10
-10.62518
 20
-14.10661
 30
0.0
 10
-10.62518
 20
-14.10661
 30
0.0
 10
-10.62518
 20
-14.07438
 30
0.0
 10
-10.62518
 20
-14.07438
 30
0.0
 10
-10.62518
 20
-14.07438
 30
0.0
 10
-10.62518
 20
-14.07438
 30
0.0
 10
-10.56678
 20
-13.98738
 30
0.0
 10
-10.56678
 20
-13.98738
 30
0.0
  0
SPLINE
  5
64
330
1F
100
AcDbEntity
  8
Layer 1
 62
   250
100
AcDbSpline
210
0.0
220
0.0
230
1.0
 70
    11
 71
     3
 72
   120
 73
   116
 74
     0
 42
0.0000000001
 43
0.0000000001
 40
0.0
 40
0.0
 40
0.0
 40
0.0
 40
0.0344827586206897
 40
0.0344827586206897
 40
0.0344827586206897
 40
0.0344827586206897
 40
0.0689655172413793
 40
0.0689655172413793
 40
0.0689655172413793
 40
0.0689655172413793
 40
0.103448275862069
 40
0.103448275862069
 40
0.103448275862069
 40
0.103448275862069
 40
0.1379310344827586
 40
0.1379310344827586
 40
0.1379310344827586
 40
0.1379310344827586
 40
0.1724137931034483
 40
0.1724137931034483
 40
0.1724137931034483
 40
0.1724137931034483
 40
0.206896551724138
 40
0.206896551724138
 40
0.206896551724138
 40
0.206896551724138
 40
0.2413793103448276
 40
0.2413793103448276
 40
0.2413793103448276
 40
0.2413793103448276
 40
0.2758620689655173
 40
0.2758620689655173
 40
0.2758620689655173
 40
0.2758620689655173
 40
0.310344827586207
 40
0.310344827586207
 40
0.310344827586207
 40
0.310344827586207
 40
0.3448275862068966
 40
0.3448275862068966
 40
0.3448275862068966
 40
0.3448275862068966
 40
0.3793103448275863
 40
0.3793103448275863
 40
0.3793103448275863
 40
0.3793103448275863
 40
0.413793103448276
 40
0.413793103448276
 40
0.413793103448276
 40
0.413793103448276
 40
0.4482758620689656
 40
0.4482758620689656
 40
0.4482758620689656
 40
0.4482758620689656
 40
0.4827586206896553
 40
0.4827586206896553
 40
0.4827586206896553
 40
0.4827586206896553
 40
0.517241379310345
 40
0.517241379310345
 40
0.517241379310345
 40
0.517241379310345
 40
0.5517241379310346
 40
0.5517241379310346
 40
0.5517241379310346
 40
0.5517241379310346
 40
0.5862068965517242
 40
0.5862068965517242
 40
0.5862068965517242
 40
0.5862068965517242
 40
0.6206896551724138
 40
0.6206896551724138
 40
0.6206896551724138
 40
0.6206896551724138
 40
0.6551724137931034
 40
0.6551724137931034
 40
0.6551724137931034
 40
0.6551724137931034
 40
0.689655172413793
 40
0.689655172413793
 40
0.689655172413793
 40
0.689655172413793
 40
0.7241379310344827
 40
0.7241379310344827
 40
0.7241379310344827
 40
0.7241379310344827
 40
0.7586206896551723
 40
0.7586206896551723
 40
0.7586206896551723
 40
0.7586206896551723
 40
0.7931034482758619
 40
0.7931034482758619
 40
0.7931034482758619
 40
0.7931034482758619
 40
0.8275862068965515
 40
0.8275862068965515
 40
0.8275862068965515
 40
0.8275862068965515
 40
0.8620689655172411
 40
0.8620689655172411
 40
0.8620689655172411
 40
0.8620689655172411
 40
0.8965517241379307
 40
0.8965517241379307
 40
0.8965517241379307
 40
0.8965517241379307
 40
0.9310344827586203
 40
0.9310344827586203
 40
0.9310344827586203
 40
0.9310344827586203
 40
0.9655172413793099
 40
0.9655172413793099
 40
0.9655172413793099
 40
0.9655172413793099
 40
1.0
 40
1.0
 40
1.0
 40
1.0
 10
-10.30721
 20
-14.04198
 30
0.0
 10
-10.30278
 20
-14.03521
 30
0.0
 10
-10.29755
 20
-14.03005
 30
0.0
 10
-10.29145
 20
-14.02651
 30
0.0
 10
-10.29145
 20
-14.02651
 30
0.0
 10
-10.28535
 20
-14.02295
 30
0.0
 10
-10.27868
 20
-14.02118
 30
0.0
 10
-10.27138
 20
-14.02118
 30
0.0
 10
-10.27138
 20
-14.02118
 30
0.0
 10
-10.25881
 20
-14.02118
 30
0.0
 10
-10.24925
 20
-14.02505
 30
0.0
 10
-10.24268
 20
-14.03281
 30
0.0
 10
-10.24268
 20
-14.03281
 30
0.0
 10
-10.23611
 20
-14.04055
 30
0.0
 10
-10.23281
 20
-14.05181
 30
0.0
 10
-10.23281
 20
-14.06658
 30
0.0
 10
-10.23281
 20
-14.06658
 30
0.0
 10
-10.23281
 20
-14.06658
 30
0.0
 10
-10.23281
 20
-14.13318
 30
0.0
 10
-10.23281
 20
-14.13318
 30
0.0
 10
-10.23281
 20
-14.13318
 30
0.0
 10
-10.23281
 20
-14.13318
 30
0.0
 10
-10.26798
 20
-14.13318
 30
0.0
 10
-10.26798
 20
-14.13318
 30
0.0
 10
-10.26798
 20
-14.13318
 30
0.0
 10
-10.26798
 20
-14.13318
 30
0.0
 10
-10.26798
 20
-14.07615
 30
0.0
 10
-10.26798
 20
-14.07615
 30
0.0
 10
-10.26798
 20
-14.07615
 30
0.0
 10
-10.26791
 20
-14.07531
 30
0.0
 10
-10.26788
 20
-14.07445
 30
0.0
 10
-10.26785
 20
-14.07351
 30
0.0
 10
-10.26785
 20
-14.07351
 30
0.0
 10
-10.26781
 20
-14.07261
 30
0.0
 10
-10.26778
 20
-14.07131
 30
0.0
 10
-10.26778
 20
-14.06961
 30
0.0
 10
-10.26778
 20
-14.06961
 30
0.0
 10
-10.26778
 20
-14.06188
 30
0.0
 10
-10.26891
 20
-14.05625
 30
0.0
 10
-10.27121
 20
-14.05278
 30
0.0
 10
-10.27121
 20
-14.05278
 30
0.0
 10
-10.27348
 20
-14.04928
 30
0.0
 10
-10.27715
 20
-14.04755
 30
0.0
 10
-10.28221
 20
-14.04755
 30
0.0
 10
-10.28221
 20
-14.04755
 30
0.0
 10
-10.28888
 20
-14.04755
 30
0.0
 10
-10.29398
 20
-14.05028
 30
0.0
 10
-10.29761
 20
-14.05575
 30
0.0
 10
-10.29761
 20
-14.05575
 30
0.0
 10
-10.30121
 20
-14.06121
 30
0.0
 10
-10.30308
 20
-14.06911
 30
0.0
 10
-10.30321
 20
-14.07948
 30
0.0
 10
-10.30321
 20
-14.07948
 30
0.0
 10
-10.30321
 20
-14.07948
 30
0.0
 10
-10.30321
 20
-14.13318
 30
0.0
 10
-10.30321
 20
-14.13318
 30
0.0
 10
-10.30321
 20
-14.13318
 30
0.0
 10
-10.30321
 20
-14.13318
 30
0.0
 10
-10.33838
 20
-14.13318
 30
0.0
 10
-10.33838
 20
-14.13318
 30
0.0
 10
-10.33838
 20
-14.13318
 30
0.0
 10
-10.33838
 20
-14.13318
 30
0.0
 10
-10.33838
 20
-14.07615
 30
0.0
 10
-10.33838
 20
-14.07615
 30
0.0
 10
-10.33838
 20
-14.07615
 30
0.0
 10
-10.33838
 20
-14.06405
 30
0.0
 10
-10.33941
 20
-14.05625
 30
0.0
 10
-10.34151
 20
-14.05278
 30
0.0
 10
-10.34151
 20
-14.05278
 30
0.0
 10
-10.34358
 20
-14.04928
 30
0.0
 10
-10.34728
 20
-14.04755
 30
0.0
 10
-10.35261
 20
-14.04755
 30
0.0
 10
-10.35261
 20
-14.04755
 30
0.0
 10
-10.35935
 20
-14.04755
 30
0.0
 10
-10.36451
 20
-14.05031
 30
0.0
 10
-10.36815
 20
-14.05581
 30
0.0
 10
-10.36815
 20
-14.05581
 30
0.0
 10
-10.37178
 20
-14.06131
 30
0.0
 10
-10.37361
 20
-14.06915
 30
0.0
 10
-10.37361
 20
-14.07938
 30
0.0
 10
-10.37361
 20
-14.07938
 30
0.0
 10
-10.37361
 20
-14.07938
 30
0.0
 10
-10.37361
 20
-14.13318
 30
0.0
 10
-10.37361
 20
-14.13318
 30
0.0
 10
-10.37361
 20
-14.13318
 30
0.0
 10
-10.37361
 20
-14.13318
 30
0.0
 10
-10.40878
 20
-14.13318
 30
0.0
 10
-10.40878
 20
-14.13318
 30
0.0
 10
-10.40878
 20
-14.13318
 30
0.0
 10
-10.40878
 20
-14.13318
 30
0.0
 10
-10.40878
 20
-14.02381
 30
0.0
 10
-10.40878
 20
-14.02381
 30
0.0
 10
-10.40878
 20
-14.02381
 30
0.0
 10
-10.40878
 20
-14.02381
 30
0.0
 10
-10.37361
 20
-14.02381
 30
0.0
 10
-10.37361
 20
-14.02381
 30
0.0
 10
-10.37361
 20
-14.02381
 30
0.0
 10
-10.37361
 20
-14.02381
 30
0.0
 10
-10.37361
 20
-14.03985
 30
0.0
 10
-10.37361
 20
-14.03985
 30
0.0
 10
-10.37361
 20
-14.03985
 30
0.0
 10
-10.36931
 20
-14.03365
 30
0.0
 10
-10.36438
 20
-14.02901
 30
0.0
 10
-10.35881
 20
-14.02588
 30
0.0
 10
-10.35881
 20
-14.02588
 30
0.0
 10
-10.35325
 20
-14.02275
 30
0.0
 10
-10.34711
 20
-14.02118
 30
0.0
 10
-10.34041
 20
-14.02118
 30
0.0
 10
-10.34041
 20
-14.02118
 30
0.0
 10
-10.33288
 20
-14.02118
 30
0.0
 10
-10.32618
 20
-14.02301
 30
0.0
 10
-10.32041
 20
-14.02665
 30
0.0
 10
-10.32041
 20
-14.02665
 30
0.0
 10
-10.31461
 20
-14.03031
 30
0.0
 10
-10.31021
 20
-14.03541
 30
0.0
 10
-10.30721
 20
-14.04198
 30
0.0
  0
SPLINE
  5
65
330
1F
100
AcDbEntity
  8
Layer 1
 62
   250
100
AcDbSpline
210
0.0
220
0.0
230
1.0
 70
    11
 71
     3
 72
   120
 73
   116
 74
     0
 42
0.0000000001
 43
0.0000000001
 40
0.0
 40
0.0
 40
0.0
 40
0.0
 40
0.0344827586206897
 40
0.0344827586206897
 40
0.0344827586206897
 40
0.0344827586206897
 40
0.0689655172413793
 40
0.0689655172413793
 40
0.0689655172413793
 40
0.0689655172413793
 40
0.103448275862069
 40
0.103448275862069
 40
0.103448275862069
 40
0.103448275862069
 40
0.1379310344827586
 40
0.1379310344827586
 40
0.1379310344827586
 40
0.1379310344827586
 40
0.1724137931034483
 40
0.1724137931034483
 40
0.1724137931034483
 40
0.1724137931034483
 40
0.206896551724138
 40
0.206896551724138
 40
0.206896551724138
 40
0.206896551724138
 40
0.2413793103448276
 40
0.2413793103448276
 40
0.2413793103448276
 40
0.2413793103448276
 40
0.2758620689655173
 40
0.2758620689655173
 40
0.2758620689655173
 40
0.2758620689655173
 40
0.310344827586207
 40
0.310344827586207
 40
0.310344827586207
 40
0.310344827586207
 40
0.3448275862068966
 40
0.3448275862068966
 40
0.3448275862068966
 40
0.3448275862068966
 40
0.3793103448275863
 40
0.3793103448275863
 40
0.3793103448275863
 40
0.3793103448275863
 40
0.413793103448276
 40
0.413793103448276
 40
0.413793103448276
 40
0.413793103448276
 40
0.4482758620689656
 40
0.4482758620689656
 40
0.4482758620689656
 40
0.4482758620689656
 40
0.4827586206896553
 40
0.4827586206896553
 40
0.4827586206896553
 40
0.4827586206896553
 40
0.517241379310345
 40
0.517241379310345
 40
0.517241379310345
 40
0.517241379310345
 40
0.5517241379310346
 40
0.5517241379310346
 40
0.5517241379310346
 40
0.5517241379310346
 40
0.5862068965517242
 40
0.5862068965517242
 40
0.5862068965517242
 40
0.5862068965517242
 40
0.6206896551724138
 40
0.6206896551724138
 40
0.6206896551724138
 40
0.6206896551724138
 40
0.6551724137931034
 40
0.6551724137931034
 40
0.6551724137931034
 40
0.6551724137931034
 40
0.689655172413793
 40
0.689655172413793
 40
0.689655172413793
 40
0.689655172413793
 40
0.7241379310344827
 40
0.7241379310344827
 40
0.7241379310344827
 40
0.7241379310344827
 40
0.7586206896551723
 40
0.7586206896551723
 40
0.7586206896551723
 40
0.7586206896551723
 40
0.7931034482758619
 40
0.7931034482758619
 40
0.7931034482758619
 40
0.7931034482758619
 40
0.8275862068965515
 40
0.8275862068965515
 40
0.8275862068965515
 40
0.8275862068965515
 40
0.8620689655172411
 40
0.8620689655172411
 40
0.8620689655172411
 40
0.8620689655172411
 40
0.8965517241379307
 40
0.8965517241379307
 40
0.8965517241379307
 40
0.8965517241379307
 40
0.9310344827586203
 40
0.9310344827586203
 40
0.9310344827586203
 40
0.9310344827586203
 40
0.9655172413793099
 40
0.9655172413793099
 40
0.9655172413793099
 40
0.9655172413793099
 40
1.0
 40
1.0
 40
1.0
 40
1.0
 10
-10.09881
 20
-14.04198
 30
0.0
 10
-10.09438
 20
-14.03521
 30
0.0
 10
-10.08915
 20
-14.03005
 30
0.0
 10
-10.08305
 20
-14.02651
 30
0.0
 10
-10.08305
 20
-14.02651
 30
0.0
 10
-10.07695
 20
-14.02295
 30
0.0
 10
-10.07028
 20
-14.02118
 30
0.0
 10
-10.06298
 20
-14.02118
 30
0.0
 10
-10.06298
 20
-14.02118
 30
0.0
 10
-10.05041
 20
-14.02118
 30
0.0
 10
-10.04085
 20
-14.02505
 30
0.0
 10
-10.03428
 20
-14.03281
 30
0.0
 10
-10.03428
 20
-14.03281
 30
0.0
 10
-10.02771
 20
-14.04055
 30
0.0
 10
-10.02441
 20
-14.05181
 30
0.0
 10
-10.02441
 20
-14.06658
 30
0.0
 10
-10.02441
 20
-14.06658
 30
0.0
 10
-10.02441
 20
-14.06658
 30
0.0
 10
-10.02441
 20
-14.13318
 30
0.0
 10
-10.02441
 20
-14.13318
 30
0.0
 10
-10.02441
 20
-14.13318
 30
0.0
 10
-10.02441
 20
-14.13318
 30
0.0
 10
-10.05958
 20
-14.13318
 30
0.0
 10
-10.05958
 20
-14.13318
 30
0.0
 10
-10.05958
 20
-14.13318
 30
0.0
 10
-10.05958
 20
-14.13318
 30
0.0
 10
-10.05958
 20
-14.07615
 30
0.0
 10
-10.05958
 20
-14.07615
 30
0.0
 10
-10.05958
 20
-14.07615
 30
0.0
 10
-10.05951
 20
-14.07531
 30
0.0
 10
-10.05948
 20
-14.07445
 30
0.0
 10
-10.05945
 20
-14.07351
 30
0.0
 10
-10.05945
 20
-14.07351
 30
0.0
 10
-10.05941
 20
-14.07261
 30
0.0
 10
-10.05938
 20
-14.07131
 30
0.0
 10
-10.05938
 20
-14.06961
 30
0.0
 10
-10.05938
 20
-14.06961
 30
0.0
 10
-10.05938
 20
-14.06188
 30
0.0
 10
-10.06051
 20
-14.05625
 30
0.0
 10
-10.06281
 20
-14.05278
 30
0.0
 10
-10.06281
 20
-14.05278
 30
0.0
 10
-10.06508
 20
-14.04928
 30
0.0
 10
-10.06875
 20
-14.04755
 30
0.0
 10
-10.07381
 20
-14.04755
 30
0.0
 10
-10.07381
 20
-14.04755
 30
0.0
 10
-10.08048
 20
-14.04755
 30
0.0
 10
-10.08558
 20
-14.05028
 30
0.0
 10
-10.08921
 20
-14.05575
 30
0.0
 10
-10.08921
 20
-14.05575
 30
0.0
 10
-10.09281
 20
-14.06121
 30
0.0
 10
-10.09468
 20
-14.06911
 30
0.0
 10
-10.09481
 20
-14.07948
 30
0.0
 10
-10.09481
 20
-14.07948
 30
0.0
 10
-10.09481
 20
-14.07948
 30
0.0
 10
-10.09481
 20
-14.13318
 30
0.0
 10
-10.09481
 20
-14.13318
 30
0.0
 10
-10.09481
 20
-14.13318
 30
0.0
 10
-10.09481
 20
-14.13318
 30
0.0
 10
-10.12998
 20
-14.13318
 30
0.0
 10
-10.12998
 20
-14.13318
 30
0.0
 10
-10.12998
 20
-14.13318
 30
0.0
 10
-10.12998
 20
-14.13318
 30
0.0
 10
-10.12998
 20
-14.07615
 30
0.0
 10
-10.12998
 20
-14.07615
 30
0.0
 10
-10.12998
 20
-14.07615
 30
0.0
 10
-10.12998
 20
-14.06405
 30
0.0
 10
-10.13101
 20
-14.05625
 30
0.0
 10
-10.13311
 20
-14.05278
 30
0.0
 10
-10.13311
 20
-14.05278
 30
0.0
 10
-10.13518
 20
-14.04928
 30
0.0
 10
-10.13888
 20
-14.04755
 30
0.0
 10
-10.14421
 20
-14.04755
 30
0.0
 10
-10.14421
 20
-14.04755
 30
0.0
 10
-10.15095
 20
-14.04755
 30
0.0
 10
-10.15611
 20
-14.05031
 30
0.0
 10
-10.15975
 20
-14.05581
 30
0.0
 10
-10.15975
 20
-14.05581
 30
0.0
 10
-10.16338
 20
-14.06131
 30
0.0
 10
-10.16521
 20
-14.06915
 30
0.0
 10
-10.16521
 20
-14.07938
 30
0.0
 10
-10.16521
 20
-14.07938
 30
0.0
 10
-10.16521
 20
-14.07938
 30
0.0
 10
-10.16521
 20
-14.13318
 30
0.0
 10
-10.16521
 20
-14.13318
 30
0.0
 10
-10.16521
 20
-14.13318
 30
0.0
 10
-10.16521
 20
-14.13318
 30
0.0
 10
-10.20038
 20
-14.13318
 30
0.0
 10
-10.20038
 20
-14.13318
 30
0.0
 10
-10.20038
 20
-14.13318
 30
0.0
 10
-10.20038
 20
-14.13318
 30
0.0
 10
-10.20038
 20
-14.02381
 30
0.0
 10
-10.20038
 20
-14.02381
 30
0.0
 10
-10.20038
 20
-14.02381
 30
0.0
 10
-10.20038
 20
-14.02381
 30
0.0
 10
-10.16521
 20
-14.02381
 30
0.0
 10
-10.16521
 20
-14.02381
 30
0.0
 10
-10.16521
 20
-14.02381
 30
0.0
 10
-10.16521
 20
-14.02381
 30
0.0
 10
-10.16521
 20
-14.03985
 30
0.0
 10
-10.16521
 20
-14.03985
 30
0.0
 10
-10.16521
 20
-14.03985
 30
0.0
 10
-10.16091
 20
-14.03365
 30
0.0
 10
-10.15598
 20
-14.02901
 30
0.0
 10
-10.15041
 20
-14.02588
 30
0.0
 10
-10.15041
 20
-14.02588
 30
0.0
 10
-10.14485
 20
-14.02275
 30
0.0
 10
-10.13871
 20
-14.02118
 30
0.0
 10
-10.13201
 20
-14.02118
 30
0.0
 10
-10.13201
 20
-14.02118
 30
0.0
 10
-10.12448
 20
-14.02118
 30
0.0
 10
-10.11778
 20
-14.02301
 30
0.0
 10
-10.11201
 20
-14.02665
 30
0.0
 10
-10.11201
 20
-14.02665
 30
0.0
 10
-10.10621
 20
-14.03031
 30
0.0
 10
-10.10181
 20
-14.03541
 30
0.0
 10
-10.09881
 20
-14.04198
 30
0.0
  0
SPLINE
  5
66
330
1F
100
AcDbEntity
  8
Layer 1
 62
   250
100
AcDbSpline
210
0.0
220
0.0
230
1.0
 70
    11
 71
     3
 72
    48
 73
    44
 74
     0
 42
0.0000000001
 43
0.0000000001
 40
0.0
 40
0.0
 40
0.0
 40
0.0
 40
0.0909090909090909
 40
0.0909090909090909
 40
0.0909090909090909
 40
0.0909090909090909
 40
0.1818181818181818
 40
0.1818181818181818
 40
0.1818181818181818
 40
0.1818181818181818
 40
0.2727272727272727
 40
0.2727272727272727
 40
0.2727272727272727
 40
0.2727272727272727
 40
0.3636363636363636
 40
0.3636363636363636
 40
0.3636363636363636
 40
0.3636363636363636
 40
0.4545454545454546
 40
0.4545454545454546
 40
0.4545454545454546
 40
0.4545454545454546
 40
0.5454545454545455
 40
0.5454545454545455
 40
0.5454545454545455
 40
0.5454545454545455
 40
0.6363636363636365
 40
0.6363636363636365
 40
0.6363636363636365
 40
0.6363636363636365
 40
0.7272727272727274
 40
0.7272727272727274
 40
0.7272727272727274
 40
0.7272727272727274
 40
0.8181818181818183
 40
0.8181818181818183
 40
0.8181818181818183
 40
0.8181818181818183
 40
0.9090909090909093
 40
0.9090909090909093
 40
0.9090909090909093
 40
0.9090909090909093
 40
1.0
 40
1.0
 40
1.0
 40
1.0
 10
-11.81618
 20
-14.34001
 30
0.0
 10
-11.81618
 20
-14.34001
 30
0.0
 10
-11.78298
 20
-14.34001
 30
0.0
 10
-11.78298
 20
-14.34001
 30
0.0
 10
-11.78298
 20
-14.34001
 30
0.0
 10
-11.78298
 20
-14.34001
 30
0.0
 10
-11.78298
 20
-14.24578
 30
0.0
 10
-11.78298
 20
-14.24578
 30
0.0
 10
-11.78298
 20
-14.24578
 30
0.0
 10
-11.78298
 20
-14.24578
 30
0.0
 10
-11.81704
 20
-14.25281
 30
0.0
 10
-11.81704
 20
-14.25281
 30
0.0
 10
-11.81704
 20
-14.25281
 30
0.0
 10
-11.81704
 20
-14.25281
 30
0.0
 10
-11.81704
 20
-14.22721
 30
0.0
 10
-11.81704
 20
-14.22721
 30
0.0
 10
-11.81704
 20
-14.22721
 30
0.0
 10
-11.81704
 20
-14.22721
 30
0.0
 10
-11.78318
 20
-14.22018
 30
0.0
 10
-11.78318
 20
-14.22018
 30
0.0
 10
-11.78318
 20
-14.22018
 30
0.0
 10
-11.78318
 20
-14.22018
 30
0.0
 10
-11.74744
 20
-14.22018
 30
0.0
 10
-11.74744
 20
-14.22018
 30
0.0
 10
-11.74744
 20
-14.22018
 30
0.0
 10
-11.74744
 20
-14.22018
 30
0.0
 10
-11.74744
 20
-14.34001
 30
0.0
 10
-11.74744
 20
-14.34001
 30
0.0
 10
-11.74744
 20
-14.34001
 30
0.0
 10
-11.74744
 20
-14.34001
 30
0.0
 10
-11.71424
 20
-14.34001
 30
0.0
 10
-11.71424
 20
-14.34001
 30
0.0
 10
-11.71424
 20
-14.34001
 30
0.0
 10
-11.71424
 20
-14.34001
 30
0.0
 10
-11.71424
 20
-14.36598
 30
0.0
 10
-11.71424
 20
-14.36598
 30
0.0
 10
-11.71424
 20
-14.36598
 30
0.0
 10
-11.71424
 20
-14.36598
 30
0.0
 10
-11.81618
 20
-14.36598
 30
0.0
 10
-11.81618
 20
-14.36598
 30
0.0
 10
-11.81618
 20
-14.36598
 30
0.0
 10
-11.81618
 20
-14.36598
 30
0.0
 10
-11.81618
 20
-14.34001
 30
0.0
 10
-11.81618
 20
-14.34001
 30
0.0
  0
SPLINE
  5
67
330
1F
100
AcDbEntity
  8
Layer 1
 62
   250
100
AcDbSpline
210
0.0
220
0.0
230
1.0
 70
    11
 71
     3
 72
    36
 73
    32
 74
     0
 42
0.0000000001
 43
0.0000000001
 40
0.0
 40
0.0
 40
0.0
 40
0.0
 40
0.125
 40
0.125
 40
0.125
 40
0.125
 40
0.25
 40
0.25
 40
0.25
 40
0.25
 40
0.375
 40
0.375
 40
0.375
 40
0.375
 40
0.5
 40
0.5
 40
0.5
 40
0.5
 40
0.625
 40
0.625
 40
0.625
 40
0.625
 40
0.75
 40
0.75
 40
0.75
 40
0.75
 40
0.875
 40
0.875
 40
0.875
 40
0.875
 40
1.0
 40
1.0
 40
1.0
 40
1.0
 10
-11.60844
 20
-14.29295
 30
0.0
 10
-11.60844
 20
-14.27471
 30
0.0
 10
-11.61014
 20
-14.26188
 30
0.0
 10
-11.61357
 20
-14.25441
 30
0.0
 10
-11.61357
 20
-14.25441
 30
0.0
 10
-11.61697
 20
-14.24698
 30
0.0
 10
-11.62274
 20
-14.24325
 30
0.0
 10
-11.63081
 20
-14.24325
 30
0.0
 10
-11.63081
 20
-14.24325
 30
0.0
 10
-11.63887
 20
-14.24325
 30
0.0
 10
-11.64464
 20
-14.24698
 30
0.0
 10
-11.64811
 20
-14.25441
 30
0.0
 10
-11.64811
 20
-14.25441
 30
0.0
 10
-11.65154
 20
-14.26188
 30
0.0
 10
-11.65327
 20
-14.27471
 30
0.0
 10
-11.65327
 20
-14.29295
 30
0.0
 10
-11.65327
 20
-14.29295
 30
0.0
 10
-11.65327
 20
-14.31135
 30
0.0
 10
-11.65154
 20
-14.32435
 30
0.0
 10
-11.64811
 20
-14.33188
 30
0.0
 10
-11.64811
 20
-14.33188
 30
0.0
 10
-11.64464
 20
-14.33945
 30
0.0
 10
-11.63887
 20
-14.34321
 30
0.0
 10
-11.63081
 20
-14.34321
 30
0.0
 10
-11.63081
 20
-14.34321
 30
0.0
 10
-11.62281
 20
-14.34321
 30
0.0
 10
-11.61707
 20
-14.33945
 30
0.0
 10
-11.61361
 20
-14.33188
 30
0.0
 10
-11.61361
 20
-14.33188
 30
0.0
 10
-11.61017
 20
-14.32435
 30
0.0
 10
-11.60844
 20
-14.31135
 30
0.0
 10
-11.60844
 20
-14.29295
 30
0.0
  0
SPLINE
  5
68
330
1F
100
AcDbEntity
  8
Layer 1
 62
   250
100
AcDbSpline
210
0.0
220
0.0
230
1.0
 70
    11
 71
     3
 72
    36
 73
    32
 74
     0
 42
0.0000000001
 43
0.0000000001
 40
0.0
 40
0.0
 40
0.0
 40
0.0
 40
0.125
 40
0.125
 40
0.125
 40
0.125
 40
0.25
 40
0.25
 40
0.25
 40
0.25
 40
0.375
 40
0.375
 40
0.375
 40
0.375
 40
0.5
 40
0.5
 40
0.5
 40
0.5
 40
0.625
 40
0.625
 40
0.625
 40
0.625
 40
0.75
 40
0.75
 40
0.75
 40
0.75
 40
0.875
 40
0.875
 40
0.875
 40
0.875
 40
1.0
 40
1.0
 40
1.0
 40
1.0
 10
-11.57084
 20
-14.29321
 30
0.0
 10
-11.57084
 20
-14.31738
 30
0.0
 10
-11.57604
 20
-14.33601
 30
0.0
 10
-11.58647
 20
-14.34915
 30
0.0
 10
-11.58647
 20
-14.34915
 30
0.0
 10
-11.59687
 20
-14.36225
 30
0.0
 10
-11.61167
 20
-14.36881
 30
0.0
 10
-11.63081
 20
-14.36881
 30
0.0
 10
-11.63081
 20
-14.36881
 30
0.0
 10
-11.65001
 20
-14.36881
 30
0.0
 10
-11.66484
 20
-14.36225
 30
0.0
 10
-11.67524
 20
-14.34915
 30
0.0
 10
-11.67524
 20
-14.34915
 30
0.0
 10
-11.68567
 20
-14.33601
 30
0.0
 10
-11.69087
 20
-14.31738
 30
0.0
 10
-11.69087
 20
-14.29321
 30
0.0
 10
-11.69087
 20
-14.29321
 30
0.0
 10
-11.69087
 20
-14.26901
 30
0.0
 10
-11.68567
 20
-14.25035
 30
0.0
 10
-11.67524
 20
-14.23721
 30
0.0
 10
-11.67524
 20
-14.23721
 30
0.0
 10
-11.66484
 20
-14.22411
 30
0.0
 10
-11.65001
 20
-14.21755
 30
0.0
 10
-11.63081
 20
-14.21755
 30
0.0
 10
-11.63081
 20
-14.21755
 30
0.0
 10
-11.61167
 20
-14.21755
 30
0.0
 10
-11.59687
 20
-14.22411
 30
0.0
 10
-11.58647
 20
-14.23721
 30
0.0
 10
-11.58647
 20
-14.23721
 30
0.0
 10
-11.57604
 20
-14.25035
 30
0.0
 10
-11.57084
 20
-14.26901
 30
0.0
 10
-11.57084
 20
-14.29321
 30
0.0
  0
SPLINE
  5
69
330
1F
100
AcDbEntity
  8
Layer 1
 62
   250
100
AcDbSpline
210
0.0
220
0.0
230
1.0
 70
    11
 71
     3
 72
    40
 73
    36
 74
     0
 42
0.0000000001
 43
0.0000000001
 40
0.0
 40
0.0
 40
0.0
 40
0.0
 40
0.1111111111111111
 40
0.1111111111111111
 40
0.1111111111111111
 40
0.1111111111111111
 40
0.2222222222222222
 40
0.2222222222222222
 40
0.2222222222222222
 40
0.2222222222222222
 40
0.3333333333333333
 40
0.3333333333333333
 40
0.3333333333333333
 40
0.3333333333333333
 40
0.4444444444444444
 40
0.4444444444444444
 40
0.4444444444444444
 40
0.4444444444444444
 40
0.5555555555555556
 40
0.5555555555555556
 40
0.5555555555555556
 40
0.5555555555555556
 40
0.6666666666666667
 40
0.6666666666666667
 40
0.6666666666666667
 40
0.6666666666666667
 40
0.7777777777777779
 40
0.7777777777777779
 40
0.7777777777777779
 40
0.7777777777777779
 40
0.8888888888888891
 40
0.8888888888888891
 40
0.8888888888888891
 40
0.8888888888888891
 40
1.0
 40
1.0
 40
1.0
 40
1.0
 10
-11.47327
 20
-14.22018
 30
0.0
 10
-11.47327
 20
-14.22018
 30
0.0
 10
-11.41087
 20
-14.22018
 30
0.0
 10
-11.41087
 20
-14.22018
 30
0.0
 10
-11.41087
 20
-14.22018
 30
0.0
 10
-11.39231
 20
-14.22018
 30
0.0
 10
-11.37807
 20
-14.22431
 30
0.0
 10
-11.36814
 20
-14.23255
 30
0.0
 10
-11.36814
 20
-14.23255
 30
0.0
 10
-11.35821
 20
-14.24078
 30
0.0
 10
-11.35324
 20
-14.25251
 30
0.0
 10
-11.35324
 20
-14.26775
 30
0.0
 10
-11.35324
 20
-14.26775
 30
0.0
 10
-11.35324
 20
-14.28301
 30
0.0
 10
-11.35821
 20
-14.29478
 30
0.0
 10
-11.36814
 20
-14.30301
 30
0.0
 10
-11.36814
 20
-14.30301
 30
0.0
 10
-11.37807
 20
-14.31125
 30
0.0
 10
-11.39231
 20
-14.31538
 30
0.0
 10
-11.41087
 20
-14.31538
 30
0.0
 10
-11.41087
 20
-14.31538
 30
0.0
 10
-11.41087
 20
-14.31538
 30
0.0
 10
-11.43567
 20
-14.31538
 30
0.0
 10
-11.43567
 20
-14.31538
 30
0.0
 10
-11.43567
 20
-14.31538
 30
0.0
 10
-11.43567
 20
-14.31538
 30
0.0
 10
-11.43567
 20
-14.36598
 30
0.0
 10
-11.43567
 20
-14.36598
 30
0.0
 10
-11.43567
 20
-14.36598
 30
0.0
 10
-11.43567
 20
-14.36598
 30
0.0
 10
-11.47327
 20
-14.36598
 30
0.0
 10
-11.47327
 20
-14.36598
 30
0.0
 10
-11.47327
 20
-14.36598
 30
0.0
 10
-11.47327
 20
-14.36598
 30
0.0
 10
-11.47327
 20
-14.22018
 30
0.0
 10
-11.47327
 20
-14.22018
 30
0.0
  0
SPLINE
  5
6A
330
1F
100
AcDbEntity
  8
Layer 1
 62
   250
100
AcDbSpline
210
0.0
220
0.0
230
1.0
 70
    11
 71
     3
 72
    32
 73
    28
 74
     0
 42
0.0000000001
 43
0.0000000001
 40
0.0
 40
0.0
 40
0.0
 40
0.0
 40
0.1428571428571428
 40
0.1428571428571428
 40
0.1428571428571428
 40
0.1428571428571428
 40
0.2857142857142857
 40
0.2857142857142857
 40
0.2857142857142857
 40
0.2857142857142857
 40
0.4285714285714285
 40
0.4285714285714285
 40
0.4285714285714285
 40
0.4285714285714285
 40
0.5714285714285714
 40
0.5714285714285714
 40
0.5714285714285714
 40
0.5714285714285714
 40
0.7142857142857142
 40
0.7142857142857142
 40
0.7142857142857142
 40
0.7142857142857142
 40
0.857142857142857
 40
0.857142857142857
 40
0.857142857142857
 40
0.857142857142857
 40
1.0
 40
1.0
 40
1.0
 40
1.0
 10
-11.43567
 20
-14.24741
 30
0.0
 10
-11.43567
 20
-14.24741
 30
0.0
 10
-11.43567
 20
-14.28815
 30
0.0
 10
-11.43567
 20
-14.28815
 30
0.0
 10
-11.43567
 20
-14.28815
 30
0.0
 10
-11.43567
 20
-14.28815
 30
0.0
 10
-11.41487
 20
-14.28815
 30
0.0
 10
-11.41487
 20
-14.28815
 30
0.0
 10
-11.41487
 20
-14.28815
 30
0.0
 10
-11.40757
 20
-14.28815
 30
0.0
 10
-11.40194
 20
-14.28638
 30
0.0
 10
-11.39797
 20
-14.28281
 30
0.0
 10
-11.39797
 20
-14.28281
 30
0.0
 10
-11.39401
 20
-14.27928
 30
0.0
 10
-11.39201
 20
-14.27425
 30
0.0
 10
-11.39201
 20
-14.26775
 30
0.0
 10
-11.39201
 20
-14.26775
 30
0.0
 10
-11.39201
 20
-14.26121
 30
0.0
 10
-11.39401
 20
-14.25621
 30
0.0
 10
-11.39797
 20
-14.25268
 30
0.0
 10
-11.39797
 20
-14.25268
 30
0.0
 10
-11.40194
 20
-14.24918
 30
0.0
 10
-11.40757
 20
-14.24741
 30
0.0
 10
-11.41487
 20
-14.24741
 30
0.0
 10
-11.41487
 20
-14.24741
 30
0.0
 10
-11.41487
 20
-14.24741
 30
0.0
 10
-11.43567
 20
-14.24741
 30
0.0
 10
-11.43567
 20
-14.24741
 30
0.0
  0
SPLINE
  5
6B
330
1F
100
AcDbEntity
  8
Layer 1
 62
   250
100
AcDbSpline
210
0.0
220
0.0
230
1.0
 70
    11
 71
     3
 72
    20
 73
    16
 74
     0
 42
0.0000000001
 43
0.0000000001
 40
0.0
 40
0.0
 40
0.0
 40
0.0
 40
0.25
 40
0.25
 40
0.25
 40
0.25
 40
0.5
 40
0.5
 40
0.5
 40
0.5
 40
0.75
 40
0.75
 40
0.75
 40
0.75
 40
1.0
 40
1.0
 40
1.0
 40
1.0
 10
-11.3267
 20
-14.22018
 30
0.0
 10
-11.3267
 20
-14.22018
 30
0.0
 10
-11.2891
 20
-14.22018
 30
0.0
 10
-11.2891
 20
-14.22018
 30
0.0
 10
-11.2891
 20
-14.22018
 30
0.0
 10
-11.2891
 20
-14.22018
 30
0.0
 10
-11.2891
 20
-14.36598
 30
0.0
 10
-11.2891
 20
-14.36598
 30
0.0
 10
-11.2891
 20
-14.36598
 30
0.0
 10
-11.2891
 20
-14.36598
 30
0.0
 10
-11.3267
 20
-14.36598
 30
0.0
 10
-11.3267
 20
-14.36598
 30
0.0
 10
-11.3267
 20
-14.36598
 30
0.0
 10
-11.3267
 20
-14.36598
 30
0.0
 10
-11.3267
 20
-14.22018
 30
0.0
 10
-11.3267
 20
-14.22018
 30
0.0
  0
SPLINE
  5
6C
330
1F
100
AcDbEntity
  8
Layer 1
 62
   250
100
AcDbSpline
210
0.0
220
0.0
230
1.0
 70
    11
 71
     3
 72
    44
 73
    40
 74
     0
 42
0.0000000001
 43
0.0000000001
 40
0.0
 40
0.0
 40
0.0
 40
0.0
 40
0.1
 40
0.1
 40
0.1
 40
0.1
 40
0.2
 40
0.2
 40
0.2
 40
0.2
 40
0.3
 40
0.3
 40
0.3
 40
0.3
 40
0.4
 40
0.4
 40
0.4
 40
0.4
 40
0.5
 40
0.5
 40
0.5
 40
0.5
 40
0.6
 40
0.6
 40
0.6
 40
0.6
 40
0.7
 40
0.7
 40
0.7
 40
0.7
 40
0.7999999999999999
 40
0.7999999999999999
 40
0.7999999999999999
 40
0.7999999999999999
 40
0.8999999999999999
 40
0.8999999999999999
 40
0.8999999999999999
 40
0.8999999999999999
 40
1.0
 40
1.0
 40
1.0
 40
1.0
 10
-11.2523
 20
-14.22018
 30
0.0
 10
-11.2523
 20
-14.22018
 30
0.0
 10
-11.2103
 20
-14.22018
 30
0.0
 10
-11.2103
 20
-14.22018
 30
0.0
 10
-11.2103
 20
-14.22018
 30
0.0
 10
-11.2103
 20
-14.22018
 30
0.0
 10
-11.15727
 20
-14.32018
 30
0.0
 10
-11.15727
 20
-14.32018
 30
0.0
 10
-11.15727
 20
-14.32018
 30
0.0
 10
-11.15727
 20
-14.32018
 30
0.0
 10
-11.15727
 20
-14.22018
 30
0.0
 10
-11.15727
 20
-14.22018
 30
0.0
 10
-11.15727
 20
-14.22018
 30
0.0
 10
-11.15727
 20
-14.22018
 30
0.0
 10
-11.12164
 20
-14.22018
 30
0.0
 10
-11.12164
 20
-14.22018
 30
0.0
 10
-11.12164
 20
-14.22018
 30
0.0
 10
-11.12164
 20
-14.22018
 30
0.0
 10
-11.12164
 20
-14.36598
 30
0.0
 10
-11.12164
 20
-14.36598
 30
0.0
 10
-11.12164
 20
-14.36598
 30
0.0
 10
-11.12164
 20
-14.36598
 30
0.0
 10
-11.16364
 20
-14.36598
 30
0.0
 10
-11.16364
 20
-14.36598
 30
0.0
 10
-11.16364
 20
-14.36598
 30
0.0
 10
-11.16364
 20
-14.36598
 30
0.0
 10
-11.21667
 20
-14.26598
 30
0.0
 10
-11.21667
 20
-14.26598
 30
0.0
 10
-11.21667
 20
-14.26598
 30
0.0
 10
-11.21667
 20
-14.26598
 30
0.0
 10
-11.21667
 20
-14.36598
 30
0.0
 10
-11.21667
 20
-14.36598
 30
0.0
 10
-11.21667
 20
-14.36598
 30
0.0
 10
-11.21667
 20
-14.36598
 30
0.0
 10
-11.2523
 20
-14.36598
 30
0.0
 10
-11.2523
 20
-14.36598
 30
0.0
 10
-11.2523
 20
-14.36598
 30
0.0
 10
-11.2523
 20
-14.36598
 30
0.0
 10
-11.2523
 20
-14.22018
 30
0.0
 10
-11.2523
 20
-14.22018
 30
0.0
  0
SPLINE
  5
6D
330
1F
100
AcDbEntity
  8
Layer 1
 62
   250
100
AcDbSpline
210
0.0
220
0.0
230
1.0
 70
    11
 71
     3
 72
    44
 73
    40
 74
     0
 42
0.0000000001
 43
0.0000000001
 40
0.0
 40
0.0
 40
0.0
 40
0.0
 40
0.1
 40
0.1
 40
0.1
 40
0.1
 40
0.2
 40
0.2
 40
0.2
 40
0.2
 40
0.3
 40
0.3
 40
0.3
 40
0.3
 40
0.4
 40
0.4
 40
0.4
 40
0.4
 40
0.5
 40
0.5
 40
0.5
 40
0.5
 40
0.6
 40
0.6
 40
0.6
 40
0.6
 40
0.7
 40
0.7
 40
0.7
 40
0.7
 40
0.7999999999999999
 40
0.7999999999999999
 40
0.7999999999999999
 40
0.7999999999999999
 40
0.8999999999999999
 40
0.8999999999999999
 40
0.8999999999999999
 40
0.8999999999999999
 40
1.0
 40
1.0
 40
1.0
 40
1.0
 10
-11.0153
 20
-14.22018
 30
0.0
 10
-11.0153
 20
-14.22018
 30
0.0
 10
-10.91384
 20
-14.22018
 30
0.0
 10
-10.91384
 20
-14.22018
 30
0.0
 10
-10.91384
 20
-14.22018
 30
0.0
 10
-10.91384
 20
-14.22018
 30
0.0
 10
-10.91384
 20
-14.24861
 30
0.0
 10
-10.91384
 20
-14.24861
 30
0.0
 10
-10.91384
 20
-14.24861
 30
0.0
 10
-10.91384
 20
-14.24861
 30
0.0
 10
-10.9777
 20
-14.24861
 30
0.0
 10
-10.9777
 20
-14.24861
 30
0.0
 10
-10.9777
 20
-14.24861
 30
0.0
 10
-10.9777
 20
-14.24861
 30
0.0
 10
-10.9777
 20
-14.27575
 30
0.0
 10
-10.9777
 20
-14.27575
 30
0.0
 10
-10.9777
 20
-14.27575
 30
0.0
 10
-10.9777
 20
-14.27575
 30
0.0
 10
-10.91764
 20
-14.27575
 30
0.0
 10
-10.91764
 20
-14.27575
 30
0.0
 10
-10.91764
 20
-14.27575
 30
0.0
 10
-10.91764
 20
-14.27575
 30
0.0
 10
-10.91764
 20
-14.30418
 30
0.0
 10
-10.91764
 20
-14.30418
 30
0.0
 10
-10.91764
 20
-14.30418
 30
0.0
 10
-10.91764
 20
-14.30418
 30
0.0
 10
-10.9777
 20
-14.30418
 30
0.0
 10
-10.9777
 20
-14.30418
 30
0.0
 10
-10.9777
 20
-14.30418
 30
0.0
 10
-10.9777
 20
-14.30418
 30
0.0
 10
-10.9777
 20
-14.36598
 30
0.0
 10
-10.9777
 20
-14.36598
 30
0.0
 10
-10.9777
 20
-14.36598
 30
0.0
 10
-10.9777
 20
-14.36598
 30
0.0
 10
-11.0153
 20
-14.36598
 30
0.0
 10
-11.0153
 20
-14.36598
 30
0.0
 10
-11.0153
 20
-14.36598
 30
0.0
 10
-11.0153
 20
-14.36598
 30
0.0
 10
-11.0153
 20
-14.22018
 30
0.0
 10
-11.0153
 20
-14.22018
 30
0.0
  0
SPLINE
  5
6E
330
1F
100
AcDbEntity
  8
Layer 1
 62
   250
100
AcDbSpline
210
0.0
220
0.0
230
1.0
 70
    11
 71
     3
 72
    52
 73
    48
 74
     0
 42
0.0000000001
 43
0.0000000001
 40
0.0
 40
0.0
 40
0.0
 40
0.0
 40
0.0833333333333333
 40
0.0833333333333333
 40
0.0833333333333333
 40
0.0833333333333333
 40
0.1666666666666667
 40
0.1666666666666667
 40
0.1666666666666667
 40
0.1666666666666667
 40
0.25
 40
0.25
 40
0.25
 40
0.25
 40
0.3333333333333333
 40
0.3333333333333333
 40
0.3333333333333333
 40
0.3333333333333333
 40
0.4166666666666666
 40
0.4166666666666666
 40
0.4166666666666666
 40
0.4166666666666666
 40
0.4999999999999999
 40
0.4999999999999999
 40
0.4999999999999999
 40
0.4999999999999999
 40
0.5833333333333333
 40
0.5833333333333333
 40
0.5833333333333333
 40
0.5833333333333333
 40
0.6666666666666666
 40
0.6666666666666666
 40
0.6666666666666666
 40
0.6666666666666666
 40
0.75
 40
0.75
 40
0.75
 40
0.75
 40
0.8333333333333334
 40
0.8333333333333334
 40
0.8333333333333334
 40
0.8333333333333334
 40
0.9166666666666667
 40
0.9166666666666667
 40
0.9166666666666667
 40
0.9166666666666667
 40
1.0
 40
1.0
 40
1.0
 40
1.0
 10
-10.87867
 20
-14.22018
 30
0.0
 10
-10.87867
 20
-14.22018
 30
0.0
 10
-10.77721
 20
-14.22018
 30
0.0
 10
-10.77721
 20
-14.22018
 30
0.0
 10
-10.77721
 20
-14.22018
 30
0.0
 10
-10.77721
 20
-14.22018
 30
0.0
 10
-10.77721
 20
-14.24861
 30
0.0
 10
-10.77721
 20
-14.24861
 30
0.0
 10
-10.77721
 20
-14.24861
 30
0.0
 10
-10.77721
 20
-14.24861
 30
0.0
 10
-10.84107
 20
-14.24861
 30
0.0
 10
-10.84107
 20
-14.24861
 30
0.0
 10
-10.84107
 20
-14.24861
 30
0.0
 10
-10.84107
 20
-14.24861
 30
0.0
 10
-10.84107
 20
-14.27575
 30
0.0
 10
-10.84107
 20
-14.27575
 30
0.0
 10
-10.84107
 20
-14.27575
 30
0.0
 10
-10.84107
 20
-14.27575
 30
0.0
 10
-10.78104
 20
-14.27575
 30
0.0
 10
-10.78104
 20
-14.27575
 30
0.0
 10
-10.78104
 20
-14.27575
 30
0.0
 10
-10.78104
 20
-14.27575
 30
0.0
 10
-10.78104
 20
-14.30418
 30
0.0
 10
-10.78104
 20
-14.30418
 30
0.0
 10
-10.78104
 20
-14.30418
 30
0.0
 10
-10.78104
 20
-14.30418
 30
0.0
 10
-10.84107
 20
-14.30418
 30
0.0
 10
-10.84107
 20
-14.30418
 30
0.0
 10
-10.84107
 20
-14.30418
 30
0.0
 10
-10.84107
 20
-14.30418
 30
0.0
 10
-10.84107
 20
-14.33755
 30
0.0
 10
-10.84107
 20
-14.33755
 30
0.0
 10
-10.84107
 20
-14.33755
 30
0.0
 10
-10.84107
 20
-14.33755
 30
0.0
 10
-10.77507
 20
-14.33755
 30
0.0
 10
-10.77507
 20
-14.33755
 30
0.0
 10
-10.77507
 20
-14.33755
 30
0.0
 10
-10.77507
 20
-14.33755
 30
0.0
 10
-10.77507
 20
-14.36598
 30
0.0
 10
-10.77507
 20
-14.36598
 30
0.0
 10
-10.77507
 20
-14.36598
 30
0.0
 10
-10.77507
 20
-14.36598
 30
0.0
 10
-10.87867
 20
-14.36598
 30
0.0
 10
-10.87867
 20
-14.36598
 30
0.0
 10
-10.87867
 20
-14.36598
 30
0.0
 10
-10.87867
 20
-14.36598
 30
0.0
 10
-10.87867
 20
-14.22018
 30
0.0
 10
-10.87867
 20
-14.22018
 30
0.0
  0
SPLINE
  5
6F
330
1F
100
AcDbEntity
  8
Layer 1
 62
   250
100
AcDbSpline
210
0.0
220
0.0
230
1.0
 70
    11
 71
     3
 72
    56
 73
    52
 74
     0
 42
0.0000000001
 43
0.0000000001
 40
0.0
 40
0.0
 40
0.0
 40
0.0
 40
0.0769230769230769
 40
0.0769230769230769
 40
0.0769230769230769
 40
0.0769230769230769
 40
0.1538461538461539
 40
0.1538461538461539
 40
0.1538461538461539
 40
0.1538461538461539
 40
0.2307692307692308
 40
0.2307692307692308
 40
0.2307692307692308
 40
0.2307692307692308
 40
0.3076923076923077
 40
0.3076923076923077
 40
0.3076923076923077
 40
0.3076923076923077
 40
0.3846153846153846
 40
0.3846153846153846
 40
0.3846153846153846
 40
0.3846153846153846
 40
0.4615384615384616
 40
0.4615384615384616
 40
0.4615384615384616
 40
0.4615384615384616
 40
0.5384615384615385
 40
0.5384615384615385
 40
0.5384615384615385
 40
0.5384615384615385
 40
0.6153846153846154
 40
0.6153846153846154
 40
0.6153846153846154
 40
0.6153846153846154
 40
0.6923076923076923
 40
0.6923076923076923
 40
0.6923076923076923
 40
0.6923076923076923
 40
0.7692307692307692
 40
0.7692307692307692
 40
0.7692307692307692
 40
0.7692307692307692
 40
0.846153846153846
 40
0.846153846153846
 40
0.846153846153846
 40
0.846153846153846
 40
0.9230769230769229
 40
0.9230769230769229
 40
0.9230769230769229
 40
0.9230769230769229
 40
1.0
 40
1.0
 40
1.0
 40
1.0
 10
-10.74204
 20
-14.22018
 30
0.0
 10
-10.74204
 20
-14.22018
 30
0.0
 10
-10.69421
 20
-14.22018
 30
0.0
 10
-10.69421
 20
-14.22018
 30
0.0
 10
-10.69421
 20
-14.22018
 30
0.0
 10
-10.69421
 20
-14.22018
 30
0.0
 10
-10.66098
 20
-14.29821
 30
0.0
 10
-10.66098
 20
-14.29821
 30
0.0
 10
-10.66098
 20
-14.29821
 30
0.0
 10
-10.66098
 20
-14.29821
 30
0.0
 10
-10.62758
 20
-14.22018
 30
0.0
 10
-10.62758
 20
-14.22018
 30
0.0
 10
-10.62758
 20
-14.22018
 30
0.0
 10
-10.62758
 20
-14.22018
 30
0.0
 10
-10.57984
 20
-14.22018
 30
0.0
 10
-10.57984
 20
-14.22018
 30
0.0
 10
-10.57984
 20
-14.22018
 30
0.0
 10
-10.57984
 20
-14.22018
 30
0.0
 10
-10.57984
 20
-14.36598
 30
0.0
 10
-10.57984
 20
-14.36598
 30
0.0
 10
-10.57984
 20
-14.36598
 30
0.0
 10
-10.57984
 20
-14.36598
 30
0.0
 10
-10.61538
 20
-14.36598
 30
0.0
 10
-10.61538
 20
-14.36598
 30
0.0
 10
-10.61538
 20
-14.36598
 30
0.0
 10
-10.61538
 20
-14.36598
 30
0.0
 10
-10.61538
 20
-14.25935
 30
0.0
 10
-10.61538
 20
-14.25935
 30
0.0
 10
-10.61538
 20
-14.25935
 30
0.0
 10
-10.61538
 20
-14.25935
 30
0.0
 10
-10.64898
 20
-14.33795
 30
0.0
 10
-10.64898
 20
-14.33795
 30
0.0
 10
-10.64898
 20
-14.33795
 30
0.0
 10
-10.64898
 20
-14.33795
 30
0.0
 10
-10.67281
 20
-14.33795
 30
0.0
 10
-10.67281
 20
-14.33795
 30
0.0
 10
-10.67281
 20
-14.33795
 30
0.0
 10
-10.67281
 20
-14.33795
 30
0.0
 10
-10.70641
 20
-14.25935
 30
0.0
 10
-10.70641
 20
-14.25935
 30
0.0
 10
-10.70641
 20
-14.25935
 30
0.0
 10
-10.70641
 20
-14.25935
 30
0.0
 10
-10.70641
 20
-14.36598
 30
0.0
 10
-10.70641
 20
-14.36598
 30
0.0
 10
-10.70641
 20
-14.36598
 30
0.0
 10
-10.70641
 20
-14.36598
 30
0.0
 10
-10.74204
 20
-14.36598
 30
0.0
 10
-10.74204
 20
-14.36598
 30
0.0
 10
-10.74204
 20
-14.36598
 30
0.0
 10
-10.74204
 20
-14.36598
 30
0.0
 10
-10.74204
 20
-14.22018
 30
0.0
 10
-10.74204
 20
-14.22018
 30
0.0
  0
SPLINE
  5
70
330
1F
100
AcDbEntity
  8
Layer 1
 62
   250
100
AcDbSpline
210
0.0
220
0.0
230
1.0
 70
    11
 71
     3
 72
    36
 73
    32
 74
     0
 42
0.0000000001
 43
0.0000000001
 40
0.0
 40
0.0
 40
0.0
 40
0.0
 40
0.125
 40
0.125
 40
0.125
 40
0.125
 40
0.25
 40
0.25
 40
0.25
 40
0.25
 40
0.375
 40
0.375
 40
0.375
 40
0.375
 40
0.5
 40
0.5
 40
0.5
 40
0.5
 40
0.625
 40
0.625
 40
0.625
 40
0.625
 40
0.75
 40
0.75
 40
0.75
 40
0.75
 40
0.875
 40
0.875
 40
0.875
 40
0.875
 40
1.0
 40
1.0
 40
1.0
 40
1.0
 10
-10.45455
 20
-14.33945
 30
0.0
 10
-10.45455
 20
-14.33945
 30
0.0
 10
-10.51335
 20
-14.33945
 30
0.0
 10
-10.51335
 20
-14.33945
 30
0.0
 10
-10.51335
 20
-14.33945
 30
0.0
 10
-10.51335
 20
-14.33945
 30
0.0
 10
-10.52261
 20
-14.36598
 30
0.0
 10
-10.52261
 20
-14.36598
 30
0.0
 10
-10.52261
 20
-14.36598
 30
0.0
 10
-10.52261
 20
-14.36598
 30
0.0
 10
-10.56041
 20
-14.36598
 30
0.0
 10
-10.56041
 20
-14.36598
 30
0.0
 10
-10.56041
 20
-14.36598
 30
0.0
 10
-10.56041
 20
-14.36598
 30
0.0
 10
-10.50641
 20
-14.22018
 30
0.0
 10
-10.50641
 20
-14.22018
 30
0.0
 10
-10.50641
 20
-14.22018
 30
0.0
 10
-10.50641
 20
-14.22018
 30
0.0
 10
-10.46158
 20
-14.22018
 30
0.0
 10
-10.46158
 20
-14.22018
 30
0.0
 10
-10.46158
 20
-14.22018
 30
0.0
 10
-10.46158
 20
-14.22018
 30
0.0
 10
-10.40758
 20
-14.36598
 30
0.0
 10
-10.40758
 20
-14.36598
 30
0.0
 10
-10.40758
 20
-14.36598
 30
0.0
 10
-10.40758
 20
-14.36598
 30
0.0
 10
-10.44538
 20
-14.36598
 30
0.0
 10
-10.44538
 20
-14.36598
 30
0.0
 10
-10.44538
 20
-14.36598
 30
0.0
 10
-10.44538
 20
-14.36598
 30
0.0
 10
-10.45455
 20
-14.33945
 30
0.0
 10
-10.45455
 20
-14.33945
 30
0.0
  0
SPLINE
  5
71
330
1F
100
AcDbEntity
  8
Layer 1
 62
   250
100
AcDbSpline
210
0.0
220
0.0
230
1.0
 70
    11
 71
     3
 72
    16
 73
    12
 74
     0
 42
0.0000000001
 43
0.0000000001
 40
0.0
 40
0.0
 40
0.0
 40
0.0
 40
0.3333333333333333
 40
0.3333333333333333
 40
0.3333333333333333
 40
0.3333333333333333
 40
0.6666666666666666
 40
0.6666666666666666
 40
0.6666666666666666
 40
0.6666666666666666
 40
1.0
 40
1.0
 40
1.0
 40
1.0
 10
-10.50398
 20
-14.31238
 30
0.0
 10
-10.50398
 20
-14.31238
 30
0.0
 10
-10.46401
 20
-14.31238
 30
0.0
 10
-10.46401
 20
-14.31238
 30
0.0
 10
-10.46401
 20
-14.31238
 30
0.0
 10
-10.46401
 20
-14.31238
 30
0.0
 10
-10.48395
 20
-14.25438
 30
0.0
 10
-10.48395
 20
-14.25438
 30
0.0
 10
-10.48395
 20
-14.25438
 30
0.0
 10
-10.48395
 20
-14.25438
 30
0.0
 10
-10.50398
 20
-14.31238
 30
0.0
 10
-10.50398
 20
-14.31238
 30
0.0
  0
SPLINE
  5
72
330
1F
100
AcDbEntity
  8
Layer 1
 62
   250
100
AcDbSpline
210
0.0
220
0.0
230
1.0
 70
    11
 71
     3
 72
    28
 73
    24
 74
     0
 42
0.0000000001
 43
0.0000000001
 40
0.0
 40
0.0
 40
0.0
 40
0.0
 40
0.1666666666666667
 40
0.1666666666666667
 40
0.1666666666666667
 40
0.1666666666666667
 40
0.3333333333333333
 40
0.3333333333333333
 40
0.3333333333333333
 40
0.3333333333333333
 40
0.5
 40
0.5
 40
0.5
 40
0.5
 40
0.6666666666666666
 40
0.6666666666666666
 40
0.6666666666666666
 40
0.6666666666666666
 40
0.8333333333333333
 40
0.8333333333333333
 40
0.8333333333333333
 40
0.8333333333333333
 40
1.0
 40
1.0
 40
1.0
 40
1.0
 10
-10.38821
 20
-14.22018
 30
0.0
 10
-10.38821
 20
-14.22018
 30
0.0
 10
-10.35061
 20
-14.22018
 30
0.0
 10
-10.35061
 20
-14.22018
 30
0.0
 10
-10.35061
 20
-14.22018
 30
0.0
 10
-10.35061
 20
-14.22018
 30
0.0
 10
-10.35061
 20
-14.33755
 30
0.0
 10
-10.35061
 20
-14.33755
 30
0.0
 10
-10.35061
 20
-14.33755
 30
0.0
 10
-10.35061
 20
-14.33755
 30
0.0
 10
-10.28461
 20
-14.33755
 30
0.0
 10
-10.28461
 20
-14.33755
 30
0.0
 10
-10.28461
 20
-14.33755
 30
0.0
 10
-10.28461
 20
-14.33755
 30
0.0
 10
-10.28461
 20
-14.36598
 30
0.0
 10
-10.28461
 20
-14.36598
 30
0.0
 10
-10.28461
 20
-14.36598
 30
0.0
 10
-10.28461
 20
-14.36598
 30
0.0
 10
-10.38821
 20
-14.36598
 30
0.0
 10
-10.38821
 20
-14.36598
 30
0.0
 10
-10.38821
 20
-14.36598
 30
0.0
 10
-10.38821
 20
-14.36598
 30
0.0
 10
-10.38821
 20
-14.22018
 30
0.0
 10
-10.38821
 20
-14.22018
 30
0.0
  0
SPLINE
  5
73
330
1F
100
AcDbEntity
  8
Layer 1
 62
   250
100
AcDbSpline
210
0.0
220
0.0
230
1.0
 70
    11
 71
     3
 72
    52
 73
    48
 74
     0
 42
0.0000000001
 43
0.0000000001
 40
0.0
 40
0.0
 40
0.0
 40
0.0
 40
0.0833333333333333
 40
0.0833333333333333
 40
0.0833333333333333
 40
0.0833333333333333
 40
0.1666666666666667
 40
0.1666666666666667
 40
0.1666666666666667
 40
0.1666666666666667
 40
0.25
 40
0.25
 40
0.25
 40
0.25
 40
0.3333333333333333
 40
0.3333333333333333
 40
0.3333333333333333
 40
0.3333333333333333
 40
0.4166666666666666
 40
0.4166666666666666
 40
0.4166666666666666
 40
0.4166666666666666
 40
0.4999999999999999
 40
0.4999999999999999
 40
0.4999999999999999
 40
0.4999999999999999
 40
0.5833333333333333
 40
0.5833333333333333
 40
0.5833333333333333
 40
0.5833333333333333
 40
0.6666666666666666
 40
0.6666666666666666
 40
0.6666666666666666
 40
0.6666666666666666
 40
0.75
 40
0.75
 40
0.75
 40
0.75
 40
0.8333333333333334
 40
0.8333333333333334
 40
0.8333333333333334
 40
0.8333333333333334
 40
0.9166666666666667
 40
0.9166666666666667
 40
0.9166666666666667
 40
0.9166666666666667
 40
1.0
 40
1.0
 40
1.0
 40
1.0
 10
-10.26078
 20
-14.22018
 30
0.0
 10
-10.26078
 20
-14.22018
 30
0.0
 10
-10.15932
 20
-14.22018
 30
0.0
 10
-10.15932
 20
-14.22018
 30
0.0
 10
-10.15932
 20
-14.22018
 30
0.0
 10
-10.15932
 20
-14.22018
 30
0.0
 10
-10.15932
 20
-14.24861
 30
0.0
 10
-10.15932
 20
-14.24861
 30
0.0
 10
-10.15932
 20
-14.24861
 30
0.0
 10
-10.15932
 20
-14.24861
 30
0.0
 10
-10.22318
 20
-14.24861
 30
0.0
 10
-10.22318
 20
-14.24861
 30
0.0
 10
-10.22318
 20
-14.24861
 30
0.0
 10
-10.22318
 20
-14.24861
 30
0.0
 10
-10.22318
 20
-14.27575
 30
0.0
 10
-10.22318
 20
-14.27575
 30
0.0
 10
-10.22318
 20
-14.27575
 30
0.0
 10
-10.22318
 20
-14.27575
 30
0.0
 10
-10.16315
 20
-14.27575
 30
0.0
 10
-10.16315
 20
-14.27575
 30
0.0
 10
-10.16315
 20
-14.27575
 30
0.0
 10
-10.16315
 20
-14.27575
 30
0.0
 10
-10.16315
 20
-14.30418
 30
0.0
 10
-10.16315
 20
-14.30418
 30
0.0
 10
-10.16315
 20
-14.30418
 30
0.0
 10
-10.16315
 20
-14.30418
 30
0.0
 10
-10.22318
 20
-14.30418
 30
0.0
 10
-10.22318
 20
-14.30418
 30
0.0
 10
-10.22318
 20
-14.30418
 30
0.0
 10
-10.22318
 20
-14.30418
 30
0.0
 10
-10.22318
 20
-14.33755
 30
0.0
 10
-10.22318
 20
-14.33755
 30
0.0
 10
-10.22318
 20
-14.33755
 30
0.0
 10
-10.22318
 20
-14.33755
 30
0.0
 10
-10.15718
 20
-14.33755
 30
0.0
 10
-10.15718
 20
-14.33755
 30
0.0
 10
-10.15718
 20
-14.33755
 30
0.0
 10
-10.15718
 20
-14.33755
 30
0.0
 10
-10.15718
 20
-14.36598
 30
0.0
 10
-10.15718
 20
-14.36598
 30
0.0
 10
-10.15718
 20
-14.36598
 30
0.0
 10
-10.15718
 20
-14.36598
 30
0.0
 10
-10.26078
 20
-14.36598
 30
0.0
 10
-10.26078
 20
-14.36598
 30
0.0
 10
-10.26078
 20
-14.36598
 30
0.0
 10
-10.26078
 20
-14.36598
 30
0.0
 10
-10.26078
 20
-14.22018
 30
0.0
 10
-10.26078
 20
-14.22018
 30
0.0
  0
SPLINE
  5
74
330
1F
100
AcDbEntity
  8
Layer 1
 62
   250
100
AcDbSpline
210
0.0
220
0.0
230
1.0
 70
    11
 71
     3
 72
    52
 73
    48
 74
     0
 42
0.0000000001
 43
0.0000000001
 40
0.0
 40
0.0
 40
0.0
 40
0.0
 40
0.0833333333333333
 40
0.0833333333333333
 40
0.0833333333333333
 40
0.0833333333333333
 40
0.1666666666666667
 40
0.1666666666666667
 40
0.1666666666666667
 40
0.1666666666666667
 40
0.25
 40
0.25
 40
0.25
 40
0.25
 40
0.3333333333333333
 40
0.3333333333333333
 40
0.3333333333333333
 40
0.3333333333333333
 40
0.4166666666666666
 40
0.4166666666666666
 40
0.4166666666666666
 40
0.4166666666666666
 40
0.4999999999999999
 40
0.4999999999999999
 40
0.4999999999999999
 40
0.4999999999999999
 40
0.5833333333333333
 40
0.5833333333333333
 40
0.5833333333333333
 40
0.5833333333333333
 40
0.6666666666666666
 40
0.6666666666666666
 40
0.6666666666666666
 40
0.6666666666666666
 40
0.75
 40
0.75
 40
0.75
 40
0.75
 40
0.8333333333333334
 40
0.8333333333333334
 40
0.8333333333333334
 40
0.8333333333333334
 40
0.9166666666666667
 40
0.9166666666666667
 40
0.9166666666666667
 40
0.9166666666666667
 40
1.0
 40
1.0
 40
1.0
 40
1.0
 10
-10.05452
 20
-14.22018
 30
0.0
 10
-10.05452
 20
-14.22018
 30
0.0
 10
-10.01692
 20
-14.22018
 30
0.0
 10
-10.01692
 20
-14.22018
 30
0.0
 10
-10.01692
 20
-14.22018
 30
0.0
 10
-10.01692
 20
-14.22018
 30
0.0
 10
-10.01692
 20
-14.27575
 30
0.0
 10
-10.01692
 20
-14.27575
 30
0.0
 10
-10.01692
 20
-14.27575
 30
0.0
 10
-10.01692
 20
-14.27575
 30
0.0
 10
-9.96146
 20
-14.27575
 30
0.0
 10
-9.96146
 20
-14.27575
 30
0.0
 10
-9.96146
 20
-14.27575
 30
0.0
 10
-9.96146
 20
-14.27575
 30
0.0
 10
-9.96146
 20
-14.22018
 30
0.0
 10
-9.96146
 20
-14.22018
 30
0.0
 10
-9.96146
 20
-14.22018
 30
0.0
 10
-9.96146
 20
-14.22018
 30
0.0
 10
-9.92386
 20
-14.22018
 30
0.0
 10
-9.92386
 20
-14.22018
 30
0.0
 10
-9.92386
 20
-14.22018
 30
0.0
 10
-9.92386
 20
-14.22018
 30
0.0
 10
-9.92386
 20
-14.36598
 30
0.0
 10
-9.92386
 20
-14.36598
 30
0.0
 10
-9.92386
 20
-14.36598
 30
0.0
 10
-9.92386
 20
-14.36598
 30
0.0
 10
-9.96146
 20
-14.36598
 30
0.0
 10
-9.96146
 20
-14.36598
 30
0.0
 10
-9.96146
 20
-14.36598
 30
0.0
 10
-9.96146
 20
-14.36598
 30
0.0
 10
-9.96146
 20
-14.30418
 30
0.0
 10
-9.96146
 20
-14.30418
 30
0.0
 10
-9.96146
 20
-14.30418
 30
0.0
 10
-9.96146
 20
-14.30418
 30
0.0
 10
-10.01692
 20
-14.30418
 30
0.0
 10
-10.01692
 20
-14.30418
 30
0.0
 10
-10.01692
 20
-14.30418
 30
0.0
 10
-10.01692
 20
-14.30418
 30
0.0
 10
-10.01692
 20
-14.36598
 30
0.0
 10
-10.01692
 20
-14.36598
 30
0.0
 10
-10.01692
 20
-14.36598
 30
0.0
 10
-10.01692
 20
-14.36598
 30
0.0
 10
-10.05452
 20
-14.36598
 30
0.0
 10
-10.05452
 20
-14.36598
 30
0.0
 10
-10.05452
 20
-14.36598
 30
0.0
 10
-10.05452
 20
-14.36598
 30
0.0
 10
-10.05452
 20
-14.22018
 30
0.0
 10
-10.05452
 20
-14.22018
 30
0.0
  0
SPLINE
  5
75
330
1F
100
AcDbEntity
  8
Layer 1
 62
   250
100
AcDbSpline
210
0.0
220
0.0
230
1.0
 70
    11
 71
     3
 72
    52
 73
    48
 74
     0
 42
0.0000000001
 43
0.0000000001
 40
0.0
 40
0.0
 40
0.0
 40
0.0
 40
0.0833333333333333
 40
0.0833333333333333
 40
0.0833333333333333
 40
0.0833333333333333
 40
0.1666666666666667
 40
0.1666666666666667
 40
0.1666666666666667
 40
0.1666666666666667
 40
0.25
 40
0.25
 40
0.25
 40
0.25
 40
0.3333333333333333
 40
0.3333333333333333
 40
0.3333333333333333
 40
0.3333333333333333
 40
0.4166666666666666
 40
0.4166666666666666
 40
0.4166666666666666
 40
0.4166666666666666
 40
0.4999999999999999
 40
0.4999999999999999
 40
0.4999999999999999
 40
0.4999999999999999
 40
0.5833333333333333
 40
0.5833333333333333
 40
0.5833333333333333
 40
0.5833333333333333
 40
0.6666666666666666
 40
0.6666666666666666
 40
0.6666666666666666
 40
0.6666666666666666
 40
0.75
 40
0.75
 40
0.75
 40
0.75
 40
0.8333333333333334
 40
0.8333333333333334
 40
0.8333333333333334
 40
0.8333333333333334
 40
0.9166666666666667
 40
0.9166666666666667
 40
0.9166666666666667
 40
0.9166666666666667
 40
1.0
 40
1.0
 40
1.0
 40
1.0
 10
-9.88715
 20
-14.22018
 30
0.0
 10
-9.88715
 20
-14.22018
 30
0.0
 10
-9.78569
 20
-14.22018
 30
0.0
 10
-9.78569
 20
-14.22018
 30
0.0
 10
-9.78569
 20
-14.22018
 30
0.0
 10
-9.78569
 20
-14.22018
 30
0.0
 10
-9.78569
 20
-14.24861
 30
0.0
 10
-9.78569
 20
-14.24861
 30
0.0
 10
-9.78569
 20
-14.24861
 30
0.0
 10
-9.78569
 20
-14.24861
 30
0.0
 10
-9.84955
 20
-14.24861
 30
0.0
 10
-9.84955
 20
-14.24861
 30
0.0
 10
-9.84955
 20
-14.24861
 30
0.0
 10
-9.84955
 20
-14.24861
 30
0.0
 10
-9.84955
 20
-14.27575
 30
0.0
 10
-9.84955
 20
-14.27575
 30
0.0
 10
-9.84955
 20
-14.27575
 30
0.0
 10
-9.84955
 20
-14.27575
 30
0.0
 10
-9.78952
 20
-14.27575
 30
0.0
 10
-9.78952
 20
-14.27575
 30
0.0
 10
-9.78952
 20
-14.27575
 30
0.0
 10
-9.78952
 20
-14.27575
 30
0.0
 10
-9.78952
 20
-14.30418
 30
0.0
 10
-9.78952
 20
-14.30418
 30
0.0
 10
-9.78952
 20
-14.30418
 30
0.0
 10
-9.78952
 20
-14.30418
 30
0.0
 10
-9.84955
 20
-14.30418
 30
0.0
 10
-9.84955
 20
-14.30418
 30
0.0
 10
-9.84955
 20
-14.30418
 30
0.0
 10
-9.84955
 20
-14.30418
 30
0.0
 10
-9.84955
 20
-14.33755
 30
0.0
 10
-9.84955
 20
-14.33755
 30
0.0
 10
-9.84955
 20
-14.33755
 30
0.0
 10
-9.84955
 20
-14.33755
 30
0.0
 10
-9.78355
 20
-14.33755
 30
0.0
 10
-9.78355
 20
-14.33755
 30
0.0
 10
-9.78355
 20
-14.33755
 30
0.0
 10
-9.78355
 20
-14.33755
 30
0.0
 10
-9.78355
 20
-14.36598
 30
0.0
 10
-9.78355
 20
-14.36598
 30
0.0
 10
-9.78355
 20
-14.36598
 30
0.0
 10
-9.78355
 20
-14.36598
 30
0.0
 10
-9.88715
 20
-14.36598
 30
0.0
 10
-9.88715
 20
-14.36598
 30
0.0
 10
-9.88715
 20
-14.36598
 30
0.0
 10
-9.88715
 20
-14.36598
 30
0.0
 10
-9.88715
 20
-14.22018
 30
0.0
 10
-9.88715
 20
-14.22018
 30
0.0
  0
SPLINE
  5
76
330
1F
100
AcDbEntity
  8
Layer 1
 62
   250
100
AcDbSpline
210
0.0
220
0.0
230
1.0
 70
    11
 71
     3
 72
    36
 73
    32
 74
     0
 42
0.0000000001
 43
0.0000000001
 40
0.0
 40
0.0
 40
0.0
 40
0.0
 40
0.125
 40
0.125
 40
0.125
 40
0.125
 40
0.25
 40
0.25
 40
0.25
 40
0.25
 40
0.375
 40
0.375
 40
0.375
 40
0.375
 40
0.5
 40
0.5
 40
0.5
 40
0.5
 40
0.625
 40
0.625
 40
0.625
 40
0.625
 40
0.75
 40
0.75
 40
0.75
 40
0.75
 40
0.875
 40
0.875
 40
0.875
 40
0.875
 40
1.0
 40
1.0
 40
1.0
 40
1.0
 10
-9.66206
 20
-14.33945
 30
0.0
 10
-9.66206
 20
-14.33945
 30
0.0
 10
-9.72086
 20
-14.33945
 30
0.0
 10
-9.72086
 20
-14.33945
 30
0.0
 10
-9.72086
 20
-14.33945
 30
0.0
 10
-9.72086
 20
-14.33945
 30
0.0
 10
-9.73012
 20
-14.36598
 30
0.0
 10
-9.73012
 20
-14.36598
 30
0.0
 10
-9.73012
 20
-14.36598
 30
0.0
 10
-9.73012
 20
-14.36598
 30
0.0
 10
-9.76792
 20
-14.36598
 30
0.0
 10
-9.76792
 20
-14.36598
 30
0.0
 10
-9.76792
 20
-14.36598
 30
0.0
 10
-9.76792
 20
-14.36598
 30
0.0
 10
-9.71392
 20
-14.22018
 30
0.0
 10
-9.71392
 20
-14.22018
 30
0.0
 10
-9.71392
 20
-14.22018
 30
0.0
 10
-9.71392
 20
-14.22018
 30
0.0
 10
-9.66909
 20
-14.22018
 30
0.0
 10
-9.66909
 20
-14.22018
 30
0.0
 10
-9.66909
 20
-14.22018
 30
0.0
 10
-9.66909
 20
-14.22018
 30
0.0
 10
-9.61509
 20
-14.36598
 30
0.0
 10
-9.61509
 20
-14.36598
 30
0.0
 10
-9.61509
 20
-14.36598
 30
0.0
 10
-9.61509
 20
-14.36598
 30
0.0
 10
-9.65289
 20
-14.36598
 30
0.0
 10
-9.65289
 20
-14.36598
 30
0.0
 10
-9.65289
 20
-14.36598
 30
0.0
 10
-9.65289
 20
-14.36598
 30
0.0
 10
-9.66206
 20
-14.33945
 30
0.0
 10
-9.66206
 20
-14.33945
 30
0.0
  0
SPLINE
  5
77
330
1F
100
AcDbEntity
  8
Layer 1
 62
   250
100
AcDbSpline
210
0.0
220
0.0
230
1.0
 70
    11
 71
     3
 72
    16
 73
    12
 74
     0
 42
0.0000000001
 43
0.0000000001
 40
0.0
 40
0.0
 40
0.0
 40
0.0
 40
0.3333333333333333
 40
0.3333333333333333
 40
0.3333333333333333
 40
0.3333333333333333
 40
0.6666666666666666
 40
0.6666666666666666
 40
0.6666666666666666
 40
0.6666666666666666
 40
1.0
 40
1.0
 40
1.0
 40
1.0
 10
-9.71149
 20
-14.31238
 30
0.0
 10
-9.71149
 20
-14.31238
 30
0.0
 10
-9.67152
 20
-14.31238
 30
0.0
 10
-9.67152
 20
-14.31238
 30
0.0
 10
-9.67152
 20
-14.31238
 30
0.0
 10
-9.67152
 20
-14.31238
 30
0.0
 10
-9.69146
 20
-14.25438
 30
0.0
 10
-9.69146
 20
-14.25438
 30
0.0
 10
-9.69146
 20
-14.25438
 30
0.0
 10
-9.69146
 20
-14.25438
 30
0.0
 10
-9.71149
 20
-14.31238
 30
0.0
 10
-9.71149
 20
-14.31238
 30
0.0
  0
SPLINE
  5
78
330
1F
100
AcDbEntity
  8
Layer 1
 62
   250
100
AcDbSpline
210
0.0
220
0.0
230
1.0
 70
    11
 71
     3
 72
    32
 73
    28
 74
     0
 42
0.0000000001
 43
0.0000000001
 40
0.0
 40
0.0
 40
0.0
 40
0.0
 40
0.1428571428571428
 40
0.1428571428571428
 40
0.1428571428571428
 40
0.1428571428571428
 40
0.2857142857142857
 40
0.2857142857142857
 40
0.2857142857142857
 40
0.2857142857142857
 40
0.4285714285714285
 40
0.4285714285714285
 40
0.4285714285714285
 40
0.4285714285714285
 40
0.5714285714285714
 40
0.5714285714285714
 40
0.5714285714285714
 40
0.5714285714285714
 40
0.7142857142857142
 40
0.7142857142857142
 40
0.7142857142857142
 40
0.7142857142857142
 40
0.857142857142857
 40
0.857142857142857
 40
0.857142857142857
 40
0.857142857142857
 40
1.0
 40
1.0
 40
1.0
 40
1.0
 10
-9.55812
 20
-14.24861
 30
0.0
 10
-9.55812
 20
-14.24861
 30
0.0
 10
-9.55812
 20
-14.33755
 30
0.0
 10
-9.55812
 20
-14.33755
 30
0.0
 10
-9.55812
 20
-14.33755
 30
0.0
 10
-9.55812
 20
-14.33755
 30
0.0
 10
-9.54466
 20
-14.33755
 30
0.0
 10
-9.54466
 20
-14.33755
 30
0.0
 10
-9.54466
 20
-14.33755
 30
0.0
 10
-9.52929
 20
-14.33755
 30
0.0
 10
-9.51756
 20
-14.33375
 30
0.0
 10
-9.50946
 20
-14.32611
 30
0.0
 10
-9.50946
 20
-14.32611
 30
0.0
 10
-9.50136
 20
-14.31851
 30
0.0
 10
-9.49729
 20
-14.30745
 30
0.0
 10
-9.49729
 20
-14.29295
 30
0.0
 10
-9.49729
 20
-14.29295
 30
0.0
 10
-9.49729
 20
-14.27848
 30
0.0
 10
-9.50132
 20
-14.26748
 30
0.0
 10
-9.50939
 20
-14.25995
 30
0.0
 10
-9.50939
 20
-14.25995
 30
0.0
 10
-9.51746
 20
-14.25238
 30
0.0
 10
-9.52922
 20
-14.24861
 30
0.0
 10
-9.54466
 20
-14.24861
 30
0.0
 10
-9.54466
 20
-14.24861
 30
0.0
 10
-9.54466
 20
-14.24861
 30
0.0
 10
-9.55812
 20
-14.24861
 30
0.0
 10
-9.55812
 20
-14.24861
 30
0.0
  0
SPLINE
  5
79
330
1F
100
AcDbEntity
  8
Layer 1
 62
   250
100
AcDbSpline
210
0.0
220
0.0
230
1.0
 70
    11
 71
     3
 72
    48
 73
    44
 74
     0
 42
0.0000000001
 43
0.0000000001
 40
0.0
 40
0.0
 40
0.0
 40
0.0
 40
0.0909090909090909
 40
0.0909090909090909
 40
0.0909090909090909
 40
0.0909090909090909
 40
0.1818181818181818
 40
0.1818181818181818
 40
0.1818181818181818
 40
0.1818181818181818
 40
0.2727272727272727
 40
0.2727272727272727
 40
0.2727272727272727
 40
0.2727272727272727
 40
0.3636363636363636
 40
0.3636363636363636
 40
0.3636363636363636
 40
0.3636363636363636
 40
0.4545454545454546
 40
0.4545454545454546
 40
0.4545454545454546
 40
0.4545454545454546
 40
0.5454545454545455
 40
0.5454545454545455
 40
0.5454545454545455
 40
0.5454545454545455
 40
0.6363636363636365
 40
0.6363636363636365
 40
0.6363636363636365
 40
0.6363636363636365
 40
0.7272727272727274
 40
0.7272727272727274
 40
0.7272727272727274
 40
0.7272727272727274
 40
0.8181818181818183
 40
0.8181818181818183
 40
0.8181818181818183
 40
0.8181818181818183
 40
0.9090909090909093
 40
0.9090909090909093
 40
0.9090909090909093
 40
0.9090909090909093
 40
1.0
 40
1.0
 40
1.0
 40
1.0
 10
-9.59572
 20
-14.22018
 30
0.0
 10
-9.59572
 20
-14.22018
 30
0.0
 10
-9.55606
 20
-14.22018
 30
0.0
 10
-9.55606
 20
-14.22018
 30
0.0
 10
-9.55606
 20
-14.22018
 30
0.0
 10
-9.53392
 20
-14.22018
 30
0.0
 10
-9.51746
 20
-14.22175
 30
0.0
 10
-9.50662
 20
-14.22491
 30
0.0
 10
-9.50662
 20
-14.22491
 30
0.0
 10
-9.49579
 20
-14.22808
 30
0.0
 10
-9.48649
 20
-14.23341
 30
0.0
 10
-9.47872
 20
-14.24098
 30
0.0
 10
-9.47872
 20
-14.24098
 30
0.0
 10
-9.47189
 20
-14.24755
 30
0.0
 10
-9.46682
 20
-14.25515
 30
0.0
 10
-9.46349
 20
-14.26375
 30
0.0
 10
-9.46349
 20
-14.26375
 30
0.0
 10
-9.46019
 20
-14.27231
 30
0.0
 10
-9.45852
 20
-14.28205
 30
0.0
 10
-9.45852
 20
-14.29295
 30
0.0
 10
-9.45852
 20
-14.29295
 30
0.0
 10
-9.45852
 20
-14.30395
 30
0.0
 10
-9.46019
 20
-14.31375
 30
0.0
 10
-9.46349
 20
-14.32238
 30
0.0
 10
-9.46349
 20
-14.32238
 30
0.0
 10
-9.46682
 20
-14.33101
 30
0.0
 10
-9.47189
 20
-14.33861
 30
0.0
 10
-9.47872
 20
-14.34518
 30
0.0
 10
-9.47872
 20
-14.34518
 30
0.0
 10
-9.48656
 20
-14.35275
 30
0.0
 10
-9.49592
 20
-14.35808
 30
0.0
 10
-9.50686
 20
-14.36125
 30
0.0
 10
-9.50686
 20
-14.36125
 30
0.0
 10
-9.51779
 20
-14.36441
 30
0.0
 10
-9.53419
 20
-14.36598
 30
0.0
 10
-9.55606
 20
-14.36598
 30
0.0
 10
-9.55606
 20
-14.36598
 30
0.0
 10
-9.55606
 20
-14.36598
 30
0.0
 10
-9.59572
 20
-14.36598
 30
0.0
 10
-9.59572
 20
-14.36598
 30
0.0
 10
-9.59572
 20
-14.36598
 30
0.0
 10
-9.59572
 20
-14.36598
 30
0.0
 10
-9.59572
 20
-14.22018
 30
0.0
 10
-9.59572
 20
-14.22018
 30
0.0
  0
SPLINE
  5
7A
330
1F
100
AcDbEntity
  8
Layer 1
 62
   250
100
AcDbSpline
210
0.0
220
0.0
230
1.0
 70
    11
 71
     3
 72
    52
 73
    48
 74
     0
 42
0.0000000001
 43
0.0000000001
 40
0.0
 40
0.0
 40
0.0
 40
0.0
 40
0.0833333333333333
 40
0.0833333333333333
 40
0.0833333333333333
 40
0.0833333333333333
 40
0.1666666666666667
 40
0.1666666666666667
 40
0.1666666666666667
 40
0.1666666666666667
 40
0.25
 40
0.25
 40
0.25
 40
0.25
 40
0.3333333333333333
 40
0.3333333333333333
 40
0.3333333333333333
 40
0.3333333333333333
 40
0.4166666666666666
 40
0.4166666666666666
 40
0.4166666666666666
 40
0.4166666666666666
 40
0.4999999999999999
 40
0.4999999999999999
 40
0.4999999999999999
 40
0.4999999999999999
 40
0.5833333333333333
 40
0.5833333333333333
 40
0.5833333333333333
 40
0.5833333333333333
 40
0.6666666666666666
 40
0.6666666666666666
 40
0.6666666666666666
 40
0.6666666666666666
 40
0.75
 40
0.75
 40
0.75
 40
0.75
 40
0.8333333333333334
 40
0.8333333333333334
 40
0.8333333333333334
 40
0.8333333333333334
 40
0.9166666666666667
 40
0.9166666666666667
 40
0.9166666666666667
 40
0.9166666666666667
 40
1.0
 40
1.0
 40
1.0
 40
1.0
 10
-9.42972
 20
-14.22018
 30
0.0
 10
-9.42972
 20
-14.22018
 30
0.0
 10
-9.32826
 20
-14.22018
 30
0.0
 10
-9.32826
 20
-14.22018
 30
0.0
 10
-9.32826
 20
-14.22018
 30
0.0
 10
-9.32826
 20
-14.22018
 30
0.0
 10
-9.32826
 20
-14.24861
 30
0.0
 10
-9.32826
 20
-14.24861
 30
0.0
 10
-9.32826
 20
-14.24861
 30
0.0
 10
-9.32826
 20
-14.24861
 30
0.0
 10
-9.39212
 20
-14.24861
 30
0.0
 10
-9.39212
 20
-14.24861
 30
0.0
 10
-9.39212
 20
-14.24861
 30
0.0
 10
-9.39212
 20
-14.24861
 30
0.0
 10
-9.39212
 20
-14.27575
 30
0.0
 10
-9.39212
 20
-14.27575
 30
0.0
 10
-9.39212
 20
-14.27575
 30
0.0
 10
-9.39212
 20
-14.27575
 30
0.0
 10
-9.33209
 20
-14.27575
 30
0.0
 10
-9.33209
 20
-14.27575
 30
0.0
 10
-9.33209
 20
-14.27575
 30
0.0
 10
-9.33209
 20
-14.27575
 30
0.0
 10
-9.33209
 20
-14.30418
 30
0.0
 10
-9.33209
 20
-14.30418
 30
0.0
 10
-9.33209
 20
-14.30418
 30
0.0
 10
-9.33209
 20
-14.30418
 30
0.0
 10
-9.39212
 20
-14.30418
 30
0.0
 10
-9.39212
 20
-14.30418
 30
0.0
 10
-9.39212
 20
-14.30418
 30
0.0
 10
-9.39212
 20
-14.30418
 30
0.0
 10
-9.39212
 20
-14.33755
 30
0.0
 10
-9.39212
 20
-14.33755
 30
0.0
 10
-9.39212
 20
-14.33755
 30
0.0
 10
-9.39212
 20
-14.33755
 30
0.0
 10
-9.32612
 20
-14.33755
 30
0.0
 10
-9.32612
 20
-14.33755
 30
0.0
 10
-9.32612
 20
-14.33755
 30
0.0
 10
-9.32612
 20
-14.33755
 30
0.0
 10
-9.32612
 20
-14.36598
 30
0.0
 10
-9.32612
 20
-14.36598
 30
0.0
 10
-9.32612
 20
-14.36598
 30
0.0
 10
-9.32612
 20
-14.36598
 30
0.0
 10
-9.42972
 20
-14.36598
 30
0.0
 10
-9.42972
 20
-14.36598
 30
0.0
 10
-9.42972
 20
-14.36598
 30
0.0
 10
-9.42972
 20
-14.36598
 30
0.0
 10
-9.42972
 20
-14.22018
 30
0.0
 10
-9.42972
 20
-14.22018
 30
0.0
  0
SPLINE
  5
7B
330
1F
100
AcDbEntity
  8
Layer 1
 62
   250
100
AcDbSpline
210
0.0
220
0.0
230
1.0
 70
    11
 71
     3
 72
    32
 73
    28
 74
     0
 42
0.0000000001
 43
0.0000000001
 40
0.0
 40
0.0
 40
0.0
 40
0.0
 40
0.1428571428571428
 40
0.1428571428571428
 40
0.1428571428571428
 40
0.1428571428571428
 40
0.2857142857142857
 40
0.2857142857142857
 40
0.2857142857142857
 40
0.2857142857142857
 40
0.4285714285714285
 40
0.4285714285714285
 40
0.4285714285714285
 40
0.4285714285714285
 40
0.5714285714285714
 40
0.5714285714285714
 40
0.5714285714285714
 40
0.5714285714285714
 40
0.7142857142857142
 40
0.7142857142857142
 40
0.7142857142857142
 40
0.7142857142857142
 40
0.857142857142857
 40
0.857142857142857
 40
0.857142857142857
 40
0.857142857142857
 40
1.0
 40
1.0
 40
1.0
 40
1.0
 10
-9.23966
 20
-14.28485
 30
0.0
 10
-9.23179
 20
-14.28485
 30
0.0
 10
-9.22613
 20
-14.28338
 30
0.0
 10
-9.22273
 20
-14.28045
 30
0.0
 10
-9.22273
 20
-14.28045
 30
0.0
 10
-9.21929
 20
-14.27751
 30
0.0
 10
-9.21759
 20
-14.27268
 30
0.0
 10
-9.21759
 20
-14.26598
 30
0.0
 10
-9.21759
 20
-14.26598
 30
0.0
 10
-9.21759
 20
-14.25935
 30
0.0
 10
-9.21929
 20
-14.25458
 30
0.0
 10
-9.22273
 20
-14.25171
 30
0.0
 10
-9.22273
 20
-14.25171
 30
0.0
 10
-9.22613
 20
-14.24885
 30
0.0
 10
-9.23179
 20
-14.24741
 30
0.0
 10
-9.23966
 20
-14.24741
 30
0.0
 10
-9.23966
 20
-14.24741
 30
0.0
 10
-9.23966
 20
-14.24741
 30
0.0
 10
-9.25549
 20
-14.24741
 30
0.0
 10
-9.25549
 20
-14.24741
 30
0.0
 10
-9.25549
 20
-14.24741
 30
0.0
 10
-9.25549
 20
-14.24741
 30
0.0
 10
-9.25549
 20
-14.28485
 30
0.0
 10
-9.25549
 20
-14.28485
 30
0.0
 10
-9.25549
 20
-14.28485
 30
0.0
 10
-9.25549
 20
-14.28485
 30
0.0
 10
-9.23966
 20
-14.28485
 30
0.0
 10
-9.23966
 20
-14.28485
 30
0.0
  0
SPLINE
  5
7C
330
1F
100
AcDbEntity
  8
Layer 1
 62
   250
100
AcDbSpline
210
0.0
220
0.0
230
1.0
 70
    11
 71
     3
 72
    68
 73
    64
 74
     0
 42
0.0000000001
 43
0.0000000001
 40
0.0
 40
0.0
 40
0.0
 40
0.0
 40
0.0625
 40
0.0625
 40
0.0625
 40
0.0625
 40
0.125
 40
0.125
 40
0.125
 40
0.125
 40
0.1875
 40
0.1875
 40
0.1875
 40
0.1875
 40
0.25
 40
0.25
 40
0.25
 40
0.25
 40
0.3125
 40
0.3125
 40
0.3125
 40
0.3125
 40
0.375
 40
0.375
 40
0.375
 40
0.375
 40
0.4375
 40
0.4375
 40
0.4375
 40
0.4375
 40
0.5
 40
0.5
 40
0.5
 40
0.5
 40
0.5625
 40
0.5625
 40
0.5625
 40
0.5625
 40
0.625
 40
0.625
 40
0.625
 40
0.625
 40
0.6875
 40
0.6875
 40
0.6875
 40
0.6875
 40
0.75
 40
0.75
 40
0.75
 40
0.75
 40
0.8125
 40
0.8125
 40
0.8125
 40
0.8125
 40
0.875
 40
0.875
 40
0.875
 40
0.875
 40
0.9375
 40
0.9375
 40
0.9375
 40
0.9375
 40
1.0
 40
1.0
 40
1.0
 40
1.0
 10
-9.25549
 20
-14.31081
 30
0.0
 10
-9.25549
 20
-14.31081
 30
0.0
 10
-9.25549
 20
-14.36598
 30
0.0
 10
-9.25549
 20
-14.36598
 30
0.0
 10
-9.25549
 20
-14.36598
 30
0.0
 10
-9.25549
 20
-14.36598
 30
0.0
 10
-9.29309
 20
-14.36598
 30
0.0
 10
-9.29309
 20
-14.36598
 30
0.0
 10
-9.29309
 20
-14.36598
 30
0.0
 10
-9.29309
 20
-14.36598
 30
0.0
 10
-9.29309
 20
-14.22018
 30
0.0
 10
-9.29309
 20
-14.22018
 30
0.0
 10
-9.29309
 20
-14.22018
 30
0.0
 10
-9.29309
 20
-14.22018
 30
0.0
 10
-9.23566
 20
-14.22018
 30
0.0
 10
-9.23566
 20
-14.22018
 30
0.0
 10
-9.23566
 20
-14.22018
 30
0.0
 10
-9.21646
 20
-14.22018
 30
0.0
 10
-9.20236
 20
-14.22341
 30
0.0
 10
-9.19343
 20
-14.22985
 30
0.0
 10
-9.19343
 20
-14.22985
 30
0.0
 10
-9.18446
 20
-14.23628
 30
0.0
 10
-9.17999
 20
-14.24648
 30
0.0
 10
-9.17999
 20
-14.26041
 30
0.0
 10
-9.17999
 20
-14.26041
 30
0.0
 10
-9.17999
 20
-14.27005
 30
0.0
 10
-9.18233
 20
-14.27798
 30
0.0
 10
-9.18696
 20
-14.28415
 30
0.0
 10
-9.18696
 20
-14.28415
 30
0.0
 10
-9.19163
 20
-14.29035
 30
0.0
 10
-9.19866
 20
-14.29491
 30
0.0
 10
-9.20803
 20
-14.29781
 30
0.0
 10
-9.20803
 20
-14.29781
 30
0.0
 10
-9.20289
 20
-14.29901
 30
0.0
 10
-9.19826
 20
-14.30165
 30
0.0
 10
-9.19419
 20
-14.30578
 30
0.0
 10
-9.19419
 20
-14.30578
 30
0.0
 10
-9.19013
 20
-14.30991
 30
0.0
 10
-9.18603
 20
-14.31618
 30
0.0
 10
-9.18186
 20
-14.32458
 30
0.0
 10
-9.18186
 20
-14.32458
 30
0.0
 10
-9.18186
 20
-14.32458
 30
0.0
 10
-9.16143
 20
-14.36598
 30
0.0
 10
-9.16143
 20
-14.36598
 30
0.0
 10
-9.16143
 20
-14.36598
 30
0.0
 10
-9.16143
 20
-14.36598
 30
0.0
 10
-9.20149
 20
-14.36598
 30
0.0
 10
-9.20149
 20
-14.36598
 30
0.0
 10
-9.20149
 20
-14.36598
 30
0.0
 10
-9.20149
 20
-14.36598
 30
0.0
 10
-9.21926
 20
-14.32975
 30
0.0
 10
-9.21926
 20
-14.32975
 30
0.0
 10
-9.21926
 20
-14.32975
 30
0.0
 10
-9.22283
 20
-14.32248
 30
0.0
 10
-9.22646
 20
-14.31748
 30
0.0
 10
-9.23016
 20
-14.31481
 30
0.0
 10
-9.23016
 20
-14.31481
 30
0.0
 10
-9.23383
 20
-14.31215
 30
0.0
 10
-9.23873
 20
-14.31081
 30
0.0
 10
-9.24486
 20
-14.31081
 30
0.0
 10
-9.24486
 20
-14.31081
 30
0.0
 10
-9.24486
 20
-14.31081
 30
0.0
 10
-9.25549
 20
-14.31081
 30
0.0
 10
-9.25549
 20
-14.31081
 30
0.0
  0
SPLINE
  5
7D
330
1F
100
AcDbEntity
  8
Layer 1
 62
   250
100
AcDbSpline
210
0.0
220
0.0
230
1.0
 70
    11
 71
     3
 72
    36
 73
    32
 74
     0
 42
0.0000000001
 43
0.0000000001
 40
0.0
 40
0.0
 40
0.0
 40
0.0
 40
0.125
 40
0.125
 40
0.125
 40
0.125
 40
0.25
 40
0.25
 40
0.25
 40
0.25
 40
0.375
 40
0.375
 40
0.375
 40
0.375
 40
0.5
 40
0.5
 40
0.5
 40
0.5
 40
0.625
 40
0.625
 40
0.625
 40
0.625
 40
0.75
 40
0.75
 40
0.75
 40
0.75
 40
0.875
 40
0.875
 40
0.875
 40
0.875
 40
1.0
 40
1.0
 40
1.0
 40
1.0
 10
-10.79955
 20
-14.45759
 30
0.0
 10
-10.80411
 20
-14.45759
 30
0.0
 10
-10.80756
 20
-14.45935
 30
0.0
 10
-10.80991
 20
-14.4629
 30
0.0
 10
-10.80991
 20
-14.4629
 30
0.0
 10
-10.81226
 20
-14.46645
 30
0.0
 10
-10.81343
 20
-14.47172
 30
0.0
 10
-10.81343
 20
-14.47867
 30
0.0
 10
-10.81343
 20
-14.47867
 30
0.0
 10
-10.81343
 20
-14.4856
 30
0.0
 10
-10.81226
 20
-14.49085
 30
0.0
 10
-10.80991
 20
-14.49442
 30
0.0
 10
-10.80991
 20
-14.49442
 30
0.0
 10
-10.80756
 20
-14.49799
 30
0.0
 10
-10.80411
 20
-14.49977
 30
0.0
 10
-10.79955
 20
-14.49977
 30
0.0
 10
-10.79955
 20
-14.49977
 30
0.0
 10
-10.79496
 20
-14.49977
 30
0.0
 10
-10.7915
 20
-14.49799
 30
0.0
 10
-10.78915
 20
-14.49442
 30
0.0
 10
-10.78915
 20
-14.49442
 30
0.0
 10
-10.7868
 20
-14.49085
 30
0.0
 10
-10.78563
 20
-14.4856
 30
0.0
 10
-10.78563
 20
-14.47867
 30
0.0
 10
-10.78563
 20
-14.47867
 30
0.0
 10
-10.78563
 20
-14.47172
 30
0.0
 10
-10.7868
 20
-14.46645
 30
0.0
 10
-10.78915
 20
-14.4629
 30
0.0
 10
-10.78915
 20
-14.4629
 30
0.0
 10
-10.7915
 20
-14.45935
 30
0.0
 10
-10.79496
 20
-14.45759
 30
0.0
 10
-10.79955
 20
-14.45759
 30
0.0
  0
SPLINE
  5
7E
330
1F
100
AcDbEntity
  8
Layer 1
 62
   250
100
AcDbSpline
210
0.0
220
0.0
230
1.0
 70
    11
 71
     3
 72
    36
 73
    32
 74
     0
 42
0.0000000001
 43
0.0000000001
 40
0.0
 40
0.0
 40
0.0
 40
0.0
 40
0.125
 40
0.125
 40
0.125
 40
0.125
 40
0.25
 40
0.25
 40
0.25
 40
0.25
 40
0.375
 40
0.375
 40
0.375
 40
0.375
 40
0.5
 40
0.5
 40
0.5
 40
0.5
 40
0.625
 40
0.625
 40
0.625
 40
0.625
 40
0.75
 40
0.75
 40
0.75
 40
0.75
 40
0.875
 40
0.875
 40
0.875
 40
0.875
 40
1.0
 40
1.0
 40
1.0
 40
1.0
 10
-10.79955
 20
-14.44997
 30
0.0
 10
-10.79196
 20
-14.44997
 30
0.0
 10
-10.78616
 20
-14.45242
 30
0.0
 10
-10.78215
 20
-14.45734
 30
0.0
 10
-10.78215
 20
-14.45734
 30
0.0
 10
-10.77813
 20
-14.46225
 30
0.0
 10
-10.77611
 20
-14.46937
 30
0.0
 10
-10.77611
 20
-14.47867
 30
0.0
 10
-10.77611
 20
-14.47867
 30
0.0
 10
-10.77611
 20
-14.48802
 30
0.0
 10
-10.77811
 20
-14.49514
 30
0.0
 10
-10.78211
 20
-14.50004
 30
0.0
 10
-10.78211
 20
-14.50004
 30
0.0
 10
-10.78613
 20
-14.50494
 30
0.0
 10
-10.79193
 20
-14.50739
 30
0.0
 10
-10.79955
 20
-14.50739
 30
0.0
 10
-10.79955
 20
-14.50739
 30
0.0
 10
-10.80715
 20
-14.50739
 30
0.0
 10
-10.81293
 20
-14.50494
 30
0.0
 10
-10.81695
 20
-14.50004
 30
0.0
 10
-10.81695
 20
-14.50004
 30
0.0
 10
-10.82095
 20
-14.49514
 30
0.0
 10
-10.82295
 20
-14.48802
 30
0.0
 10
-10.82295
 20
-14.47867
 30
0.0
 10
-10.82295
 20
-14.47867
 30
0.0
 10
-10.82295
 20
-14.46937
 30
0.0
 10
-10.82095
 20
-14.46225
 30
0.0
 10
-10.81695
 20
-14.45734
 30
0.0
 10
-10.81695
 20
-14.45734
 30
0.0
 10
-10.81293
 20
-14.45242
 30
0.0
 10
-10.80715
 20
-14.44997
 30
0.0
 10
-10.79955
 20
-14.44997
 30
0.0
  0
SPLINE
  5
7F
330
1F
100
AcDbEntity
  8
Layer 1
 62
   250
100
AcDbSpline
210
0.0
220
0.0
230
1.0
 70
    11
 71
     3
 72
    36
 73
    32
 74
     0
 42
0.0000000001
 43
0.0000000001
 40
0.0
 40
0.0
 40
0.0
 40
0.0
 40
0.125
 40
0.125
 40
0.125
 40
0.125
 40
0.25
 40
0.25
 40
0.25
 40
0.25
 40
0.375
 40
0.375
 40
0.375
 40
0.375
 40
0.5
 40
0.5
 40
0.5
 40
0.5
 40
0.625
 40
0.625
 40
0.625
 40
0.625
 40
0.75
 40
0.75
 40
0.75
 40
0.75
 40
0.875
 40
0.875
 40
0.875
 40
0.875
 40
1.0
 40
1.0
 40
1.0
 40
1.0
 10
-10.73935
 20
-14.45759
 30
0.0
 10
-10.74391
 20
-14.45759
 30
0.0
 10
-10.74736
 20
-14.45935
 30
0.0
 10
-10.74971
 20
-14.4629
 30
0.0
 10
-10.74971
 20
-14.4629
 30
0.0
 10
-10.75206
 20
-14.46645
 30
0.0
 10
-10.75323
 20
-14.47172
 30
0.0
 10
-10.75323
 20
-14.47867
 30
0.0
 10
-10.75323
 20
-14.47867
 30
0.0
 10
-10.75323
 20
-14.4856
 30
0.0
 10
-10.75206
 20
-14.49085
 30
0.0
 10
-10.74971
 20
-14.49442
 30
0.0
 10
-10.74971
 20
-14.49442
 30
0.0
 10
-10.74736
 20
-14.49799
 30
0.0
 10
-10.74391
 20
-14.49977
 30
0.0
 10
-10.73935
 20
-14.49977
 30
0.0
 10
-10.73935
 20
-14.49977
 30
0.0
 10
-10.73476
 20
-14.49977
 30
0.0
 10
-10.7313
 20
-14.49799
 30
0.0
 10
-10.72895
 20
-14.49442
 30
0.0
 10
-10.72895
 20
-14.49442
 30
0.0
 10
-10.7266
 20
-14.49085
 30
0.0
 10
-10.72543
 20
-14.4856
 30
0.0
 10
-10.72543
 20
-14.47867
 30
0.0
 10
-10.72543
 20
-14.47867
 30
0.0
 10
-10.72543
 20
-14.47172
 30
0.0
 10
-10.7266
 20
-14.46645
 30
0.0
 10
-10.72895
 20
-14.4629
 30
0.0
 10
-10.72895
 20
-14.4629
 30
0.0
 10
-10.7313
 20
-14.45935
 30
0.0
 10
-10.73476
 20
-14.45759
 30
0.0
 10
-10.73935
 20
-14.45759
 30
0.0
  0
SPLINE
  5
80
330
1F
100
AcDbEntity
  8
Layer 1
 62
   250
100
AcDbSpline
210
0.0
220
0.0
230
1.0
 70
    11
 71
     3
 72
    36
 73
    32
 74
     0
 42
0.0000000001
 43
0.0000000001
 40
0.0
 40
0.0
 40
0.0
 40
0.0
 40
0.125
 40
0.125
 40
0.125
 40
0.125
 40
0.25
 40
0.25
 40
0.25
 40
0.25
 40
0.375
 40
0.375
 40
0.375
 40
0.375
 40
0.5
 40
0.5
 40
0.5
 40
0.5
 40
0.625
 40
0.625
 40
0.625
 40
0.625
 40
0.75
 40
0.75
 40
0.75
 40
0.75
 40
0.875
 40
0.875
 40
0.875
 40
0.875
 40
1.0
 40
1.0
 40
1.0
 40
1.0
 10
-10.73935
 20
-14.44997
 30
0.0
 10
-10.73176
 20
-14.44997
 30
0.0
 10
-10.72596
 20
-14.45242
 30
0.0
 10
-10.72195
 20
-14.45734
 30
0.0
 10
-10.72195
 20
-14.45734
 30
0.0
 10
-10.71793
 20
-14.46225
 30
0.0
 10
-10.71591
 20
-14.46937
 30
0.0
 10
-10.71591
 20
-14.47867
 30
0.0
 10
-10.71591
 20
-14.47867
 30
0.0
 10
-10.71591
 20
-14.48802
 30
0.0
 10
-10.71791
 20
-14.49514
 30
0.0
 10
-10.72191
 20
-14.50004
 30
0.0
 10
-10.72191
 20
-14.50004
 30
0.0
 10
-10.72593
 20
-14.50494
 30
0.0
 10
-10.73173
 20
-14.50739
 30
0.0
 10
-10.73935
 20
-14.50739
 30
0.0
 10
-10.73935
 20
-14.50739
 30
0.0
 10
-10.74695
 20
-14.50739
 30
0.0
 10
-10.75273
 20
-14.50494
 30
0.0
 10
-10.75675
 20
-14.50004
 30
0.0
 10
-10.75675
 20
-14.50004
 30
0.0
 10
-10.76075
 20
-14.49514
 30
0.0
 10
-10.76275
 20
-14.48802
 30
0.0
 10
-10.76275
 20
-14.47867
 30
0.0
 10
-10.76275
 20
-14.47867
 30
0.0
 10
-10.76275
 20
-14.46937
 30
0.0
 10
-10.76075
 20
-14.46225
 30
0.0
 10
-10.75675
 20
-14.45734
 30
0.0
 10
-10.75675
 20
-14.45734
 30
0.0
 10
-10.75273
 20
-14.45242
 30
0.0
 10
-10.74695
 20
-14.44997
 30
0.0
 10
-10.73935
 20
-14.44997
 30
0.0
  0
SPLINE
  5
81
330
1F
100
AcDbEntity
  8
Layer 1
 62
   250
100
AcDbSpline
210
0.0
220
0.0
230
1.0
 70
    11
 71
     3
 72
   112
 73
   108
 74
     0
 42
0.0000000001
 43
0.0000000001
 40
0.0
 40
0.0
 40
0.0
 40
0.0
 40
0.037037037037037
 40
0.037037037037037
 40
0.037037037037037
 40
0.037037037037037
 40
0.0740740740740741
 40
0.0740740740740741
 40
0.0740740740740741
 40
0.0740740740740741
 40
0.1111111111111111
 40
0.1111111111111111
 40
0.1111111111111111
 40
0.1111111111111111
 40
0.1481481481481481
 40
0.1481481481481481
 40
0.1481481481481481
 40
0.1481481481481481
 40
0.1851851851851852
 40
0.1851851851851852
 40
0.1851851851851852
 40
0.1851851851851852
 40
0.2222222222222222
 40
0.2222222222222222
 40
0.2222222222222222
 40
0.2222222222222222
 40
0.2592592592592592
 40
0.2592592592592592
 40
0.2592592592592592
 40
0.2592592592592592
 40
0.2962962962962963
 40
0.2962962962962963
 40
0.2962962962962963
 40
0.2962962962962963
 40
0.3333333333333333
 40
0.3333333333333333
 40
0.3333333333333333
 40
0.3333333333333333
 40
0.3703703703703703
 40
0.3703703703703703
 40
0.3703703703703703
 40
0.3703703703703703
 40
0.4074074074074074
 40
0.4074074074074074
 40
0.4074074074074074
 40
0.4074074074074074
 40
0.4444444444444444
 40
0.4444444444444444
 40
0.4444444444444444
 40
0.4444444444444444
 40
0.4814814814814815
 40
0.4814814814814815
 40
0.4814814814814815
 40
0.4814814814814815
 40
0.5185185185185185
 40
0.5185185185185185
 40
0.5185185185185185
 40
0.5185185185185185
 40
0.5555555555555556
 40
0.5555555555555556
 40
0.5555555555555556
 40
0.5555555555555556
 40
0.5925925925925926
 40
0.5925925925925926
 40
0.5925925925925926
 40
0.5925925925925926
 40
0.6296296296296295
 40
0.6296296296296295
 40
0.6296296296296295
 40
0.6296296296296295
 40
0.6666666666666665
 40
0.6666666666666665
 40
0.6666666666666665
 40
0.6666666666666665
 40
0.7037037037037035
 40
0.7037037037037035
 40
0.7037037037037035
 40
0.7037037037037035
 40
0.7407407407407405
 40
0.7407407407407405
 40
0.7407407407407405
 40
0.7407407407407405
 40
0.7777777777777775
 40
0.7777777777777775
 40
0.7777777777777775
 40
0.7777777777777775
 40
0.8148148148148144
 40
0.8148148148148144
 40
0.8148148148148144
 40
0.8148148148148144
 40
0.8518518518518514
 40
0.8518518518518514
 40
0.8518518518518514
 40
0.8518518518518514
 40
0.8888888888888884
 40
0.8888888888888884
 40
0.8888888888888884
 40
0.8888888888888884
 40
0.9259259259259254
 40
0.9259259259259254
 40
0.9259259259259254
 40
0.9259259259259254
 40
0.9629629629629624
 40
0.9629629629629624
 40
0.9629629629629624
 40
0.9629629629629624
 40
1.0
 40
1.0
 40
1.0
 40
1.0
 10
-10.67623
 20
-14.45685
 30
0.0
 10
-10.67513
 20
-14.4545
 30
0.0
 10
-10.67371
 20
-14.45277
 30
0.0
 10
-10.672
 20
-14.45165
 30
0.0
 10
-10.672
 20
-14.45165
 30
0.0
 10
-10.6703
 20
-14.45054
 30
0.0
 10
-10.66823
 20
-14.44997
 30
0.0
 10
-10.66583
 20
-14.44997
 30
0.0
 10
-10.66583
 20
-14.44997
 30
0.0
 10
-10.66143
 20
-14.44997
 30
0.0
 10
-10.65833
 20
-14.45167
 30
0.0
 10
-10.65653
 20
-14.45507
 30
0.0
 10
-10.65653
 20
-14.45507
 30
0.0
 10
-10.65471
 20
-14.45847
 30
0.0
 10
-10.65381
 20
-14.46487
 30
0.0
 10
-10.65381
 20
-14.47429
 30
0.0
 10
-10.65381
 20
-14.47429
 30
0.0
 10
-10.65381
 20
-14.47429
 30
0.0
 10
-10.65381
 20
-14.50597
 30
0.0
 10
-10.65381
 20
-14.50597
 30
0.0
 10
-10.65381
 20
-14.50597
 30
0.0
 10
-10.65381
 20
-14.50597
 30
0.0
 10
-10.66201
 20
-14.50597
 30
0.0
 10
-10.66201
 20
-14.50597
 30
0.0
 10
-10.66201
 20
-14.50597
 30
0.0
 10
-10.66201
 20
-14.50597
 30
0.0
 10
-10.66201
 20
-14.47467
 30
0.0
 10
-10.66201
 20
-14.47467
 30
0.0
 10
-10.66201
 20
-14.47467
 30
0.0
 10
-10.66201
 20
-14.46695
 30
0.0
 10
-10.66245
 20
-14.46217
 30
0.0
 10
-10.66331
 20
-14.46029
 30
0.0
 10
-10.66331
 20
-14.46029
 30
0.0
 10
-10.66416
 20
-14.45842
 30
0.0
 10
-10.66575
 20
-14.45749
 30
0.0
 10
-10.66803
 20
-14.45749
 30
0.0
 10
-10.66803
 20
-14.45749
 30
0.0
 10
-10.67063
 20
-14.45749
 30
0.0
 10
-10.67241
 20
-14.45849
 30
0.0
 10
-10.67338
 20
-14.46049
 30
0.0
 10
-10.67338
 20
-14.46049
 30
0.0
 10
-10.67433
 20
-14.46249
 30
0.0
 10
-10.67481
 20
-14.46722
 30
0.0
 10
-10.67481
 20
-14.47467
 30
0.0
 10
-10.67481
 20
-14.47467
 30
0.0
 10
-10.67481
 20
-14.47467
 30
0.0
 10
-10.67481
 20
-14.50597
 30
0.0
 10
-10.67481
 20
-14.50597
 30
0.0
 10
-10.67481
 20
-14.50597
 30
0.0
 10
-10.67481
 20
-14.50597
 30
0.0
 10
-10.68301
 20
-14.50597
 30
0.0
 10
-10.68301
 20
-14.50597
 30
0.0
 10
-10.68301
 20
-14.50597
 30
0.0
 10
-10.68301
 20
-14.50597
 30
0.0
 10
-10.68301
 20
-14.47467
 30
0.0
 10
-10.68301
 20
-14.47467
 30
0.0
 10
-10.68301
 20
-14.47467
 30
0.0
 10
-10.68301
 20
-14.46685
 30
0.0
 10
-10.68348
 20
-14.46204
 30
0.0
 10
-10.68441
 20
-14.46022
 30
0.0
 10
-10.68441
 20
-14.46022
 30
0.0
 10
-10.68533
 20
-14.4584
 30
0.0
 10
-10.687
 20
-14.45749
 30
0.0
 10
-10.68941
 20
-14.45749
 30
0.0
 10
-10.68941
 20
-14.45749
 30
0.0
 10
-10.6918
 20
-14.45749
 30
0.0
 10
-10.69345
 20
-14.45849
 30
0.0
 10
-10.69436
 20
-14.46049
 30
0.0
 10
-10.69436
 20
-14.46049
 30
0.0
 10
-10.6953
 20
-14.46249
 30
0.0
 10
-10.69576
 20
-14.46722
 30
0.0
 10
-10.69576
 20
-14.47467
 30
0.0
 10
-10.69576
 20
-14.47467
 30
0.0
 10
-10.69576
 20
-14.47467
 30
0.0
 10
-10.69576
 20
-14.50597
 30
0.0
 10
-10.69576
 20
-14.50597
 30
0.0
 10
-10.69576
 20
-14.50597
 30
0.0
 10
-10.69576
 20
-14.50597
 30
0.0
 10
-10.70391
 20
-14.50597
 30
0.0
 10
-10.70391
 20
-14.50597
 30
0.0
 10
-10.70391
 20
-14.50597
 30
0.0
 10
-10.70391
 20
-14.50597
 30
0.0
 10
-10.70391
 20
-14.45129
 30
0.0
 10
-10.70391
 20
-14.45129
 30
0.0
 10
-10.70391
 20
-14.45129
 30
0.0
 10
-10.70391
 20
-14.45129
 30
0.0
 10
-10.69576
 20
-14.45129
 30
0.0
 10
-10.69576
 20
-14.45129
 30
0.0
 10
-10.69576
 20
-14.45129
 30
0.0
 10
-10.69576
 20
-14.45129
 30
0.0
 10
-10.69576
 20
-14.45597
 30
0.0
 10
-10.69576
 20
-14.45597
 30
0.0
 10
-10.69576
 20
-14.45597
 30
0.0
 10
-10.6947
 20
-14.45402
 30
0.0
 10
-10.69335
 20
-14.45254
 30
0.0
 10
-10.69173
 20
-14.4515
 30
0.0
 10
-10.69173
 20
-14.4515
 30
0.0
 10
-10.69013
 20
-14.45049
 30
0.0
 10
-10.6883
 20
-14.44997
 30
0.0
 10
-10.68625
 20
-14.44997
 30
0.0
 10
-10.68625
 20
-14.44997
 30
0.0
 10
-10.68376
 20
-14.44997
 30
0.0
 10
-10.68171
 20
-14.45054
 30
0.0
 10
-10.68006
 20
-14.45167
 30
0.0
 10
-10.68006
 20
-14.45167
 30
0.0
 10
-10.67841
 20
-14.45282
 30
0.0
 10
-10.67715
 20
-14.45454
 30
0.0
 10
-10.67623
 20
-14.45685
 30
0.0
  0
SPLINE
  5
82
330
1F
100
AcDbEntity
  8
Layer 1
 62
   250
100
AcDbSpline
210
0.0
220
0.0
230
1.0
 70
    11
 71
     3
 72
    20
 73
    16
 74
     0
 42
0.0000000001
 43
0.0000000001
 40
0.0
 40
0.0
 40
0.0
 40
0.0
 40
0.25
 40
0.25
 40
0.25
 40
0.25
 40
0.5
 40
0.5
 40
0.5
 40
0.5
 40
0.75
 40
0.75
 40
0.75
 40
0.75
 40
1.0
 40
1.0
 40
1.0
 40
1.0
 10
-10.62515
 20
-14.49107
 30
0.0
 10
-10.62515
 20
-14.49107
 30
0.0
 10
-10.61285
 20
-14.49107
 30
0.0
 10
-10.61285
 20
-14.49107
 30
0.0
 10
-10.61285
 20
-14.49107
 30
0.0
 10
-10.61285
 20
-14.49107
 30
0.0
 10
-10.61285
 20
-14.50597
 30
0.0
 10
-10.61285
 20
-14.50597
 30
0.0
 10
-10.61285
 20
-14.50597
 30
0.0
 10
-10.61285
 20
-14.50597
 30
0.0
 10
-10.62515
 20
-14.50597
 30
0.0
 10
-10.62515
 20
-14.50597
 30
0.0
 10
-10.62515
 20
-14.50597
 30
0.0
 10
-10.62515
 20
-14.50597
 30
0.0
 10
-10.62515
 20
-14.49107
 30
0.0
 10
-10.62515
 20
-14.49107
 30
0.0
  0
SPLINE
  5
83
330
1F
100
AcDbEntity
  8
Layer 1
 62
   250
100
AcDbSpline
210
0.0
220
0.0
230
1.0
 70
    11
 71
     3
 72
    52
 73
    48
 74
     0
 42
0.0000000001
 43
0.0000000001
 40
0.0
 40
0.0
 40
0.0
 40
0.0
 40
0.0833333333333333
 40
0.0833333333333333
 40
0.0833333333333333
 40
0.0833333333333333
 40
0.1666666666666667
 40
0.1666666666666667
 40
0.1666666666666667
 40
0.1666666666666667
 40
0.25
 40
0.25
 40
0.25
 40
0.25
 40
0.3333333333333333
 40
0.3333333333333333
 40
0.3333333333333333
 40
0.3333333333333333
 40
0.4166666666666666
 40
0.4166666666666666
 40
0.4166666666666666
 40
0.4166666666666666
 40
0.4999999999999999
 40
0.4999999999999999
 40
0.4999999999999999
 40
0.4999999999999999
 40
0.5833333333333333
 40
0.5833333333333333
 40
0.5833333333333333
 40
0.5833333333333333
 40
0.6666666666666666
 40
0.6666666666666666
 40
0.6666666666666666
 40
0.6666666666666666
 40
0.75
 40
0.75
 40
0.75
 40
0.75
 40
0.8333333333333334
 40
0.8333333333333334
 40
0.8333333333333334
 40
0.8333333333333334
 40
0.9166666666666667
 40
0.9166666666666667
 40
0.9166666666666667
 40
0.9166666666666667
 40
1.0
 40
1.0
 40
1.0
 40
1.0
 10
-10.55763
 20
-14.48615
 30
0.0
 10
-10.55763
 20
-14.49019
 30
0.0
 10
-10.5569
 20
-14.49322
 30
0.0
 10
-10.55541
 20
-14.49527
 30
0.0
 10
-10.55541
 20
-14.49527
 30
0.0
 10
-10.55393
 20
-14.49732
 30
0.0
 10
-10.55175
 20
-14.49835
 30
0.0
 10
-10.54885
 20
-14.49835
 30
0.0
 10
-10.54885
 20
-14.49835
 30
0.0
 10
-10.54885
 20
-14.49835
 30
0.0
 10
-10.53835
 20
-14.49835
 30
0.0
 10
-10.53835
 20
-14.49835
 30
0.0
 10
-10.53835
 20
-14.49835
 30
0.0
 10
-10.53835
 20
-14.49835
 30
0.0
 10
-10.53835
 20
-14.50597
 30
0.0
 10
-10.53835
 20
-14.50597
 30
0.0
 10
-10.53835
 20
-14.50597
 30
0.0
 10
-10.53835
 20
-14.50597
 30
0.0
 10
-10.54971
 20
-14.50597
 30
0.0
 10
-10.54971
 20
-14.50597
 30
0.0
 10
-10.54971
 20
-14.50597
 30
0.0
 10
-10.5551
 20
-14.50597
 30
0.0
 10
-10.55925
 20
-14.50424
 30
0.0
 10
-10.5622
 20
-14.50079
 30
0.0
 10
-10.5622
 20
-14.50079
 30
0.0
 10
-10.56515
 20
-14.49734
 30
0.0
 10
-10.56661
 20
-14.49245
 30
0.0
 10
-10.56661
 20
-14.48615
 30
0.0
 10
-10.56661
 20
-14.48615
 30
0.0
 10
-10.56661
 20
-14.48615
 30
0.0
 10
-10.56661
 20
-14.43649
 30
0.0
 10
-10.56661
 20
-14.43649
 30
0.0
 10
-10.56661
 20
-14.43649
 30
0.0
 10
-10.56661
 20
-14.43649
 30
0.0
 10
-10.58101
 20
-14.43649
 30
0.0
 10
-10.58101
 20
-14.43649
 30
0.0
 10
-10.58101
 20
-14.43649
 30
0.0
 10
-10.58101
 20
-14.43649
 30
0.0
 10
-10.58101
 20
-14.42945
 30
0.0
 10
-10.58101
 20
-14.42945
 30
0.0
 10
-10.58101
 20
-14.42945
 30
0.0
 10
-10.58101
 20
-14.42945
 30
0.0
 10
-10.55763
 20
-14.42945
 30
0.0
 10
-10.55763
 20
-14.42945
 30
0.0
 10
-10.55763
 20
-14.42945
 30
0.0
 10
-10.55763
 20
-14.42945
 30
0.0
 10
-10.55763
 20
-14.48615
 30
0.0
 10
-10.55763
 20
-14.48615
 30
0.0
  0
SPLINE
  5
84
330
1F
100
AcDbEntity
  8
Layer 1
 62
   250
100
AcDbSpline
210
0.0
220
0.0
230
1.0
 70
    11
 71
     3
 72
    76
 73
    72
 74
     0
 42
0.0000000001
 43
0.0000000001
 40
0.0
 40
0.0
 40
0.0
 40
0.0
 40
0.0555555555555556
 40
0.0555555555555556
 40
0.0555555555555556
 40
0.0555555555555556
 40
0.1111111111111111
 40
0.1111111111111111
 40
0.1111111111111111
 40
0.1111111111111111
 40
0.1666666666666667
 40
0.1666666666666667
 40
0.1666666666666667
 40
0.1666666666666667
 40
0.2222222222222222
 40
0.2222222222222222
 40
0.2222222222222222
 40
0.2222222222222222
 40
0.2777777777777778
 40
0.2777777777777778
 40
0.2777777777777778
 40
0.2777777777777778
 40
0.3333333333333334
 40
0.3333333333333334
 40
0.3333333333333334
 40
0.3333333333333334
 40
0.388888888888889
 40
0.388888888888889
 40
0.388888888888889
 40
0.388888888888889
 40
0.4444444444444445
 40
0.4444444444444445
 40
0.4444444444444445
 40
0.4444444444444445
 40
0.5000000000000001
 40
0.5000000000000001
 40
0.5000000000000001
 40
0.5000000000000001
 40
0.5555555555555557
 40
0.5555555555555557
 40
0.5555555555555557
 40
0.5555555555555557
 40
0.6111111111111113
 40
0.6111111111111113
 40
0.6111111111111113
 40
0.6111111111111113
 40
0.6666666666666669
 40
0.6666666666666669
 40
0.6666666666666669
 40
0.6666666666666669
 40
0.7222222222222224
 40
0.7222222222222224
 40
0.7222222222222224
 40
0.7222222222222224
 40
0.777777777777778
 40
0.777777777777778
 40
0.777777777777778
 40
0.777777777777778
 40
0.8333333333333336
 40
0.8333333333333336
 40
0.8333333333333336
 40
0.8333333333333336
 40
0.8888888888888892
 40
0.8888888888888892
 40
0.8888888888888892
 40
0.8888888888888892
 40
0.9444444444444448
 40
0.9444444444444448
 40
0.9444444444444448
 40
0.9444444444444448
 40
1.0
 40
1.0
 40
1.0
 40
1.0
 10
-10.49865
 20
-14.43575
 30
0.0
 10
-10.49865
 20
-14.43575
 30
0.0
 10
-10.49865
 20
-14.45129
 30
0.0
 10
-10.49865
 20
-14.45129
 30
0.0
 10
-10.49865
 20
-14.45129
 30
0.0
 10
-10.49865
 20
-14.45129
 30
0.0
 10
-10.47823
 20
-14.45129
 30
0.0
 10
-10.47823
 20
-14.45129
 30
0.0
 10
-10.47823
 20
-14.45129
 30
0.0
 10
-10.47823
 20
-14.45129
 30
0.0
 10
-10.47823
 20
-14.45827
 30
0.0
 10
-10.47823
 20
-14.45827
 30
0.0
 10
-10.47823
 20
-14.45827
 30
0.0
 10
-10.47823
 20
-14.45827
 30
0.0
 10
-10.49865
 20
-14.45827
 30
0.0
 10
-10.49865
 20
-14.45827
 30
0.0
 10
-10.49865
 20
-14.45827
 30
0.0
 10
-10.49865
 20
-14.45827
 30
0.0
 10
-10.49865
 20
-14.48795
 30
0.0
 10
-10.49865
 20
-14.48795
 30
0.0
 10
-10.49865
 20
-14.48795
 30
0.0
 10
-10.49865
 20
-14.49199
 30
0.0
 10
-10.49788
 20
-14.4948
 30
0.0
 10
-10.49635
 20
-14.49639
 30
0.0
 10
-10.49635
 20
-14.49639
 30
0.0
 10
-10.49481
 20
-14.49799
 30
0.0
 10
-10.49215
 20
-14.49879
 30
0.0
 10
-10.48835
 20
-14.49879
 30
0.0
 10
-10.48835
 20
-14.49879
 30
0.0
 10
-10.48835
 20
-14.49879
 30
0.0
 10
-10.47823
 20
-14.49879
 30
0.0
 10
-10.47823
 20
-14.49879
 30
0.0
 10
-10.47823
 20
-14.49879
 30
0.0
 10
-10.47823
 20
-14.49879
 30
0.0
 10
-10.47823
 20
-14.50597
 30
0.0
 10
-10.47823
 20
-14.50597
 30
0.0
 10
-10.47823
 20
-14.50597
 30
0.0
 10
-10.47823
 20
-14.50597
 30
0.0
 10
-10.48921
 20
-14.50597
 30
0.0
 10
-10.48921
 20
-14.50597
 30
0.0
 10
-10.48921
 20
-14.50597
 30
0.0
 10
-10.49596
 20
-14.50597
 30
0.0
 10
-10.50071
 20
-14.50462
 30
0.0
 10
-10.50348
 20
-14.50192
 30
0.0
 10
-10.50348
 20
-14.50192
 30
0.0
 10
-10.50625
 20
-14.49922
 30
0.0
 10
-10.50763
 20
-14.49455
 30
0.0
 10
-10.50763
 20
-14.48795
 30
0.0
 10
-10.50763
 20
-14.48795
 30
0.0
 10
-10.50763
 20
-14.48795
 30
0.0
 10
-10.50763
 20
-14.45827
 30
0.0
 10
-10.50763
 20
-14.45827
 30
0.0
 10
-10.50763
 20
-14.45827
 30
0.0
 10
-10.50763
 20
-14.45827
 30
0.0
 10
-10.52223
 20
-14.45827
 30
0.0
 10
-10.52223
 20
-14.45827
 30
0.0
 10
-10.52223
 20
-14.45827
 30
0.0
 10
-10.52223
 20
-14.45827
 30
0.0
 10
-10.52223
 20
-14.45129
 30
0.0
 10
-10.52223
 20
-14.45129
 30
0.0
 10
-10.52223
 20
-14.45129
 30
0.0
 10
-10.52223
 20
-14.45129
 30
0.0
 10
-10.50763
 20
-14.45129
 30
0.0
 10
-10.50763
 20
-14.45129
 30
0.0
 10
-10.50763
 20
-14.45129
 30
0.0
 10
-10.50763
 20
-14.45129
 30
0.0
 10
-10.50763
 20
-14.43575
 30
0.0
 10
-10.50763
 20
-14.43575
 30
0.0
 10
-10.50763
 20
-14.43575
 30
0.0
 10
-10.50763
 20
-14.43575
 30
0.0
 10
-10.49865
 20
-14.43575
 30
0.0
 10
-10.49865
 20
-14.43575
 30
0.0
  0
SPLINE
  5
85
330
1F
100
AcDbEntity
  8
Layer 1
 62
   250
100
AcDbSpline
210
0.0
220
0.0
230
1.0
 70
    11
 71
     3
 72
    20
 73
    16
 74
     0
 42
0.0000000001
 43
0.0000000001
 40
0.0
 40
0.0
 40
0.0
 40
0.0
 40
0.25
 40
0.25
 40
0.25
 40
0.25
 40
0.5
 40
0.5
 40
0.5
 40
0.5
 40
0.75
 40
0.75
 40
0.75
 40
0.75
 40
1.0
 40
1.0
 40
1.0
 40
1.0
 10
-10.42501
 20
-14.43307
 30
0.0
 10
-10.42501
 20
-14.43307
 30
0.0
 10
-10.41573
 20
-14.43307
 30
0.0
 10
-10.41573
 20
-14.43307
 30
0.0
 10
-10.41573
 20
-14.43307
 30
0.0
 10
-10.41573
 20
-14.43307
 30
0.0
 10
-10.45411
 20
-14.51525
 30
0.0
 10
-10.45411
 20
-14.51525
 30
0.0
 10
-10.45411
 20
-14.51525
 30
0.0
 10
-10.45411
 20
-14.51525
 30
0.0
 10
-10.46345
 20
-14.51525
 30
0.0
 10
-10.46345
 20
-14.51525
 30
0.0
 10
-10.46345
 20
-14.51525
 30
0.0
 10
-10.46345
 20
-14.51525
 30
0.0
 10
-10.42501
 20
-14.43307
 30
0.0
 10
-10.42501
 20
-14.43307
 30
0.0
  0
SPLINE
  5
86
330
1F
100
AcDbEntity
  8
Layer 1
 62
   250
100
AcDbSpline
210
0.0
220
0.0
230
1.0
 70
    11
 71
     3
 72
    52
 73
    48
 74
     0
 42
0.0000000001
 43
0.0000000001
 40
0.0
 40
0.0
 40
0.0
 40
0.0
 40
0.0833333333333333
 40
0.0833333333333333
 40
0.0833333333333333
 40
0.0833333333333333
 40
0.1666666666666667
 40
0.1666666666666667
 40
0.1666666666666667
 40
0.1666666666666667
 40
0.25
 40
0.25
 40
0.25
 40
0.25
 40
0.3333333333333333
 40
0.3333333333333333
 40
0.3333333333333333
 40
0.3333333333333333
 40
0.4166666666666666
 40
0.4166666666666666
 40
0.4166666666666666
 40
0.4166666666666666
 40
0.4999999999999999
 40
0.4999999999999999
 40
0.4999999999999999
 40
0.4999999999999999
 40
0.5833333333333333
 40
0.5833333333333333
 40
0.5833333333333333
 40
0.5833333333333333
 40
0.6666666666666666
 40
0.6666666666666666
 40
0.6666666666666666
 40
0.6666666666666666
 40
0.75
 40
0.75
 40
0.75
 40
0.75
 40
0.8333333333333334
 40
0.8333333333333334
 40
0.8333333333333334
 40
0.8333333333333334
 40
0.9166666666666667
 40
0.9166666666666667
 40
0.9166666666666667
 40
0.9166666666666667
 40
1.0
 40
1.0
 40
1.0
 40
1.0
 10
-10.40155
 20
-14.43307
 30
0.0
 10
-10.40155
 20
-14.43307
 30
0.0
 10
-10.38715
 20
-14.43307
 30
0.0
 10
-10.38715
 20
-14.43307
 30
0.0
 10
-10.38715
 20
-14.43307
 30
0.0
 10
-10.38715
 20
-14.43307
 30
0.0
 10
-10.38715
 20
-14.46085
 30
0.0
 10
-10.38715
 20
-14.46085
 30
0.0
 10
-10.38715
 20
-14.46085
 30
0.0
 10
-10.38715
 20
-14.46085
 30
0.0
 10
-10.36911
 20
-14.46085
 30
0.0
 10
-10.36911
 20
-14.46085
 30
0.0
 10
-10.36911
 20
-14.46085
 30
0.0
 10
-10.36911
 20
-14.46085
 30
0.0
 10
-10.36911
 20
-14.43307
 30
0.0
 10
-10.36911
 20
-14.43307
 30
0.0
 10
-10.36911
 20
-14.43307
 30
0.0
 10
-10.36911
 20
-14.43307
 30
0.0
 10
-10.35471
 20
-14.43307
 30
0.0
 10
-10.35471
 20
-14.43307
 30
0.0
 10
-10.35471
 20
-14.43307
 30
0.0
 10
-10.35471
 20
-14.43307
 30
0.0
 10
-10.35471
 20
-14.50597
 30
0.0
 10
-10.35471
 20
-14.50597
 30
0.0
 10
-10.35471
 20
-14.50597
 30
0.0
 10
-10.35471
 20
-14.50597
 30
0.0
 10
-10.36911
 20
-14.50597
 30
0.0
 10
-10.36911
 20
-14.50597
 30
0.0
 10
-10.36911
 20
-14.50597
 30
0.0
 10
-10.36911
 20
-14.50597
 30
0.0
 10
-10.36911
 20
-14.47355
 30
0.0
 10
-10.36911
 20
-14.47355
 30
0.0
 10
-10.36911
 20
-14.47355
 30
0.0
 10
-10.36911
 20
-14.47355
 30
0.0
 10
-10.38715
 20
-14.47355
 30
0.0
 10
-10.38715
 20
-14.47355
 30
0.0
 10
-10.38715
 20
-14.47355
 30
0.0
 10
-10.38715
 20
-14.47355
 30
0.0
 10
-10.38715
 20
-14.50597
 30
0.0
 10
-10.38715
 20
-14.50597
 30
0.0
 10
-10.38715
 20
-14.50597
 30
0.0
 10
-10.38715
 20
-14.50597
 30
0.0
 10
-10.40155
 20
-14.50597
 30
0.0
 10
-10.40155
 20
-14.50597
 30
0.0
 10
-10.40155
 20
-14.50597
 30
0.0
 10
-10.40155
 20
-14.50597
 30
0.0
 10
-10.40155
 20
-14.43307
 30
0.0
 10
-10.40155
 20
-14.43307
 30
0.0
  0
SPLINE
  5
87
330
1F
100
AcDbEntity
  8
Layer 1
 62
   250
100
AcDbSpline
210
0.0
220
0.0
230
1.0
 70
    11
 71
     3
 72
    44
 73
    40
 74
     0
 42
0.0000000001
 43
0.0000000001
 40
0.0
 40
0.0
 40
0.0
 40
0.0
 40
0.1
 40
0.1
 40
0.1
 40
0.1
 40
0.2
 40
0.2
 40
0.2
 40
0.2
 40
0.3
 40
0.3
 40
0.3
 40
0.3
 40
0.4
 40
0.4
 40
0.4
 40
0.4
 40
0.5
 40
0.5
 40
0.5
 40
0.5
 40
0.6
 40
0.6
 40
0.6
 40
0.6
 40
0.7
 40
0.7
 40
0.7
 40
0.7
 40
0.7999999999999999
 40
0.7999999999999999
 40
0.7999999999999999
 40
0.7999999999999999
 40
0.8999999999999999
 40
0.8999999999999999
 40
0.8999999999999999
 40
0.8999999999999999
 40
1.0
 40
1.0
 40
1.0
 40
1.0
 10
-10.29373
 20
-14.44577
 30
0.0
 10
-10.29373
 20
-14.44577
 30
0.0
 10
-10.32475
 20
-14.44577
 30
0.0
 10
-10.32475
 20
-14.44577
 30
0.0
 10
-10.32475
 20
-14.44577
 30
0.0
 10
-10.32475
 20
-14.44577
 30
0.0
 10
-10.32475
 20
-14.46149
 30
0.0
 10
-10.32475
 20
-14.46149
 30
0.0
 10
-10.32475
 20
-14.46149
 30
0.0
 10
-10.32475
 20
-14.46149
 30
0.0
 10
-10.29651
 20
-14.46149
 30
0.0
 10
-10.29651
 20
-14.46149
 30
0.0
 10
-10.29651
 20
-14.46149
 30
0.0
 10
-10.29651
 20
-14.46149
 30
0.0
 10
-10.29651
 20
-14.47419
 30
0.0
 10
-10.29651
 20
-14.47419
 30
0.0
 10
-10.29651
 20
-14.47419
 30
0.0
 10
-10.29651
 20
-14.47419
 30
0.0
 10
-10.32475
 20
-14.47419
 30
0.0
 10
-10.32475
 20
-14.47419
 30
0.0
 10
-10.32475
 20
-14.47419
 30
0.0
 10
-10.32475
 20
-14.47419
 30
0.0
 10
-10.32475
 20
-14.50597
 30
0.0
 10
-10.32475
 20
-14.50597
 30
0.0
 10
-10.32475
 20
-14.50597
 30
0.0
 10
-10.32475
 20
-14.50597
 30
0.0
 10
-10.33915
 20
-14.50597
 30
0.0
 10
-10.33915
 20
-14.50597
 30
0.0
 10
-10.33915
 20
-14.50597
 30
0.0
 10
-10.33915
 20
-14.50597
 30
0.0
 10
-10.33915
 20
-14.43307
 30
0.0
 10
-10.33915
 20
-14.43307
 30
0.0
 10
-10.33915
 20
-14.43307
 30
0.0
 10
-10.33915
 20
-14.43307
 30
0.0
 10
-10.29373
 20
-14.43307
 30
0.0
 10
-10.29373
 20
-14.43307
 30
0.0
 10
-10.29373
 20
-14.43307
 30
0.0
 10
-10.29373
 20
-14.43307
 30
0.0
 10
-10.29373
 20
-14.44577
 30
0.0
 10
-10.29373
 20
-14.44577
 30
0.0
  0
SPLINE
  5
88
330
1F
100
AcDbEntity
  8
Layer 1
 62
   250
100
AcDbSpline
210
0.0
220
0.0
230
1.0
 70
    11
 71
     3
 72
    48
 73
    44
 74
     0
 42
0.0000000001
 43
0.0000000001
 40
0.0
 40
0.0
 40
0.0
 40
0.0
 40
0.0909090909090909
 40
0.0909090909090909
 40
0.0909090909090909
 40
0.0909090909090909
 40
0.1818181818181818
 40
0.1818181818181818
 40
0.1818181818181818
 40
0.1818181818181818
 40
0.2727272727272727
 40
0.2727272727272727
 40
0.2727272727272727
 40
0.2727272727272727
 40
0.3636363636363636
 40
0.3636363636363636
 40
0.3636363636363636
 40
0.3636363636363636
 40
0.4545454545454546
 40
0.4545454545454546
 40
0.4545454545454546
 40
0.4545454545454546
 40
0.5454545454545455
 40
0.5454545454545455
 40
0.5454545454545455
 40
0.5454545454545455
 40
0.6363636363636365
 40
0.6363636363636365
 40
0.6363636363636365
 40
0.6363636363636365
 40
0.7272727272727274
 40
0.7272727272727274
 40
0.7272727272727274
 40
0.7272727272727274
 40
0.8181818181818183
 40
0.8181818181818183
 40
0.8181818181818183
 40
0.8181818181818183
 40
0.9090909090909093
 40
0.9090909090909093
 40
0.9090909090909093
 40
0.9090909090909093
 40
1.0
 40
1.0
 40
1.0
 40
1.0
 10
-10.27865
 20
-14.49327
 30
0.0
 10
-10.27865
 20
-14.49327
 30
0.0
 10
-10.26253
 20
-14.49327
 30
0.0
 10
-10.26253
 20
-14.49327
 30
0.0
 10
-10.26253
 20
-14.49327
 30
0.0
 10
-10.26253
 20
-14.49327
 30
0.0
 10
-10.26253
 20
-14.44595
 30
0.0
 10
-10.26253
 20
-14.44595
 30
0.0
 10
-10.26253
 20
-14.44595
 30
0.0
 10
-10.26253
 20
-14.44595
 30
0.0
 10
-10.27751
 20
-14.44967
 30
0.0
 10
-10.27751
 20
-14.44967
 30
0.0
 10
-10.27751
 20
-14.44967
 30
0.0
 10
-10.27751
 20
-14.44967
 30
0.0
 10
-10.27751
 20
-14.43669
 30
0.0
 10
-10.27751
 20
-14.43669
 30
0.0
 10
-10.27751
 20
-14.43669
 30
0.0
 10
-10.27751
 20
-14.43669
 30
0.0
 10
-10.26243
 20
-14.43307
 30
0.0
 10
-10.26243
 20
-14.43307
 30
0.0
 10
-10.26243
 20
-14.43307
 30
0.0
 10
-10.26243
 20
-14.43307
 30
0.0
 10
-10.24851
 20
-14.43307
 30
0.0
 10
-10.24851
 20
-14.43307
 30
0.0
 10
-10.24851
 20
-14.43307
 30
0.0
 10
-10.24851
 20
-14.43307
 30
0.0
 10
-10.24851
 20
-14.49327
 30
0.0
 10
-10.24851
 20
-14.49327
 30
0.0
 10
-10.24851
 20
-14.49327
 30
0.0
 10
-10.24851
 20
-14.49327
 30
0.0
 10
-10.2324
 20
-14.49327
 30
0.0
 10
-10.2324
 20
-14.49327
 30
0.0
 10
-10.2324
 20
-14.49327
 30
0.0
 10
-10.2324
 20
-14.49327
 30
0.0
 10
-10.2324
 20
-14.50597
 30
0.0
 10
-10.2324
 20
-14.50597
 30
0.0
 10
-10.2324
 20
-14.50597
 30
0.0
 10
-10.2324
 20
-14.50597
 30
0.0
 10
-10.27865
 20
-14.50597
 30
0.0
 10
-10.27865
 20
-14.50597
 30
0.0
 10
-10.27865
 20
-14.50597
 30
0.0
 10
-10.27865
 20
-14.50597
 30
0.0
 10
-10.27865
 20
-14.49327
 30
0.0
 10
-10.27865
 20
-14.49327
 30
0.0
  0
SPLINE
  5
89
330
1F
100
AcDbEntity
  8
Layer 1
 62
   250
100
AcDbSpline
210
0.0
220
0.0
230
1.0
 70
    11
 71
     3
 72
    36
 73
    32
 74
     0
 42
0.0000000001
 43
0.0000000001
 40
0.0
 40
0.0
 40
0.0
 40
0.0
 40
0.125
 40
0.125
 40
0.125
 40
0.125
 40
0.25
 40
0.25
 40
0.25
 40
0.25
 40
0.375
 40
0.375
 40
0.375
 40
0.375
 40
0.5
 40
0.5
 40
0.5
 40
0.5
 40
0.625
 40
0.625
 40
0.625
 40
0.625
 40
0.75
 40
0.75
 40
0.75
 40
0.75
 40
0.875
 40
0.875
 40
0.875
 40
0.875
 40
1.0
 40
1.0
 40
1.0
 40
1.0
 10
-10.20361
 20
-14.46959
 30
0.0
 10
-10.20361
 20
-14.46787
 30
0.0
 10
-10.20303
 20
-14.46642
 30
0.0
 10
-10.20185
 20
-14.46525
 30
0.0
 10
-10.20185
 20
-14.46525
 30
0.0
 10
-10.20068
 20
-14.46407
 30
0.0
 10
-10.19925
 20
-14.46349
 30
0.0
 10
-10.19755
 20
-14.46349
 30
0.0
 10
-10.19755
 20
-14.46349
 30
0.0
 10
-10.19583
 20
-14.46349
 30
0.0
 10
-10.19438
 20
-14.46407
 30
0.0
 10
-10.19321
 20
-14.46525
 30
0.0
 10
-10.19321
 20
-14.46525
 30
0.0
 10
-10.19203
 20
-14.46642
 30
0.0
 10
-10.19145
 20
-14.46787
 30
0.0
 10
-10.19145
 20
-14.46959
 30
0.0
 10
-10.19145
 20
-14.46959
 30
0.0
 10
-10.19145
 20
-14.47129
 30
0.0
 10
-10.19203
 20
-14.47272
 30
0.0
 10
-10.19321
 20
-14.47389
 30
0.0
 10
-10.19321
 20
-14.47389
 30
0.0
 10
-10.19438
 20
-14.47507
 30
0.0
 10
-10.19583
 20
-14.47565
 30
0.0
 10
-10.19755
 20
-14.47565
 30
0.0
 10
-10.19755
 20
-14.47565
 30
0.0
 10
-10.19925
 20
-14.47565
 30
0.0
 10
-10.20068
 20
-14.47507
 30
0.0
 10
-10.20185
 20
-14.47392
 30
0.0
 10
-10.20185
 20
-14.47392
 30
0.0
 10
-10.20303
 20
-14.47277
 30
0.0
 10
-10.20361
 20
-14.47132
 30
0.0
 10
-10.20361
 20
-14.46959
 30
0.0
  0
SPLINE
  5
8A
330
1F
100
AcDbEntity
  8
Layer 1
 62
   250
100
AcDbSpline
210
0.0
220
0.0
230
1.0
 70
    11
 71
     3
 72
    36
 73
    32
 74
     0
 42
0.0000000001
 43
0.0000000001
 40
0.0
 40
0.0
 40
0.0
 40
0.0
 40
0.125
 40
0.125
 40
0.125
 40
0.125
 40
0.25
 40
0.25
 40
0.25
 40
0.25
 40
0.375
 40
0.375
 40
0.375
 40
0.375
 40
0.5
 40
0.5
 40
0.5
 40
0.5
 40
0.625
 40
0.625
 40
0.625
 40
0.625
 40
0.75
 40
0.75
 40
0.75
 40
0.75
 40
0.875
 40
0.875
 40
0.875
 40
0.875
 40
1.0
 40
1.0
 40
1.0
 40
1.0
 10
-10.19755
 20
-14.44395
 30
0.0
 10
-10.20088
 20
-14.44395
 30
0.0
 10
-10.2033
 20
-14.44599
 30
0.0
 10
-10.20483
 20
-14.45005
 30
0.0
 10
-10.20483
 20
-14.45005
 30
0.0
 10
-10.20636
 20
-14.45414
 30
0.0
 10
-10.20713
 20
-14.46064
 30
0.0
 10
-10.20713
 20
-14.46959
 30
0.0
 10
-10.20713
 20
-14.46959
 30
0.0
 10
-10.20713
 20
-14.47852
 30
0.0
 10
-10.20636
 20
-14.485
 30
0.0
 10
-10.20483
 20
-14.48909
 30
0.0
 10
-10.20483
 20
-14.48909
 30
0.0
 10
-10.2033
 20
-14.49315
 30
0.0
 10
-10.20088
 20
-14.49519
 30
0.0
 10
-10.19755
 20
-14.49519
 30
0.0
 10
-10.19755
 20
-14.49519
 30
0.0
 10
-10.1942
 20
-14.49519
 30
0.0
 10
-10.19176
 20
-14.49315
 30
0.0
 10
-10.19023
 20
-14.48909
 30
0.0
 10
-10.19023
 20
-14.48909
 30
0.0
 10
-10.1887
 20
-14.485
 30
0.0
 10
-10.18793
 20
-14.47852
 30
0.0
 10
-10.18793
 20
-14.46959
 30
0.0
 10
-10.18793
 20
-14.46959
 30
0.0
 10
-10.18793
 20
-14.46064
 30
0.0
 10
-10.1887
 20
-14.45414
 30
0.0
 10
-10.19023
 20
-14.45005
 30
0.0
 10
-10.19023
 20
-14.45005
 30
0.0
 10
-10.19176
 20
-14.44599
 30
0.0
 10
-10.1942
 20
-14.44395
 30
0.0
 10
-10.19755
 20
-14.44395
 30
0.0
  0
SPLINE
  5
8B
330
1F
100
AcDbEntity
  8
Layer 1
 62
   250
100
AcDbSpline
210
0.0
220
0.0
230
1.0
 70
    11
 71
     3
 72
    36
 73
    32
 74
     0
 42
0.0000000001
 43
0.0000000001
 40
0.0
 40
0.0
 40
0.0
 40
0.0
 40
0.125
 40
0.125
 40
0.125
 40
0.125
 40
0.25
 40
0.25
 40
0.25
 40
0.25
 40
0.375
 40
0.375
 40
0.375
 40
0.375
 40
0.5
 40
0.5
 40
0.5
 40
0.5
 40
0.625
 40
0.625
 40
0.625
 40
0.625
 40
0.75
 40
0.75
 40
0.75
 40
0.75
 40
0.875
 40
0.875
 40
0.875
 40
0.875
 40
1.0
 40
1.0
 40
1.0
 40
1.0
 10
-10.22163
 20
-14.46959
 30
0.0
 10
-10.22163
 20
-14.45697
 30
0.0
 10
-10.21963
 20
-14.4475
 30
0.0
 10
-10.21563
 20
-14.4412
 30
0.0
 10
-10.21563
 20
-14.4412
 30
0.0
 10
-10.21161
 20
-14.4349
 30
0.0
 10
-10.2056
 20
-14.43175
 30
0.0
 10
-10.19755
 20
-14.43175
 30
0.0
 10
-10.19755
 20
-14.43175
 30
0.0
 10
-10.18948
 20
-14.43175
 30
0.0
 10
-10.18345
 20
-14.43489
 30
0.0
 10
-10.17943
 20
-14.44117
 30
0.0
 10
-10.17943
 20
-14.44117
 30
0.0
 10
-10.17543
 20
-14.44745
 30
0.0
 10
-10.17343
 20
-14.45694
 30
0.0
 10
-10.17343
 20
-14.46959
 30
0.0
 10
-10.17343
 20
-14.46959
 30
0.0
 10
-10.17343
 20
-14.48222
 30
0.0
 10
-10.17543
 20
-14.49169
 30
0.0
 10
-10.17943
 20
-14.49797
 30
0.0
 10
-10.17943
 20
-14.49797
 30
0.0
 10
-10.18345
 20
-14.50425
 30
0.0
 10
-10.18948
 20
-14.50739
 30
0.0
 10
-10.19755
 20
-14.50739
 30
0.0
 10
-10.19755
 20
-14.50739
 30
0.0
 10
-10.2056
 20
-14.50739
 30
0.0
 10
-10.21161
 20
-14.50424
 30
0.0
 10
-10.21563
 20
-14.49794
 30
0.0
 10
-10.21563
 20
-14.49794
 30
0.0
 10
-10.21963
 20
-14.49164
 30
0.0
 10
-10.22163
 20
-14.48219
 30
0.0
 10
-10.22163
 20
-14.46959
 30
0.0
  0
SPLINE
  5
8C
330
1F
100
AcDbEntity
  8
Layer 1
 62
     7
370
    35
100
AcDbSpline
210
0.0
220
0.0
230
1.0
 70
    11
 71
     3
 72
    20
 73
    16
 74
     0
 42
0.0000000001
 43
0.0000000001
 40
0.0
 40
0.0
 40
0.0
 40
0.0
 40
0.25
 40
0.25
 40
0.25
 40
0.25
 40
0.5
 40
0.5
 40
0.5
 40
0.5
 40
0.75
 40
0.75
 40
0.75
 40
0.75
 40
1.0
 40
1.0
 40
1.0
 40
1.0
 10
-11.77
 20
-14.59603
 30
0.0
 10
-11.77
 20
-14.59603
 30
0.0
 10
-9.23
 20
-14.59603
 30
0.0
 10
-9.23
 20
-14.59603
 30
0.0
 10
-9.23
 20
-14.59603
 30
0.0
 10
-9.23
 20
-14.59603
 30
0.0
 10
-9.23
 20
-14.85003
 30
0.0
 10
-9.23
 20
-14.85003
 30
0.0
 10
-9.23
 20
-14.85003
 30
0.0
 10
-9.23
 20
-14.85003
 30
0.0
 10
-11.77
 20
-14.85003
 30
0.0
 10
-11.77
 20
-14.85003
 30
0.0
 10
-11.77
 20
-14.85003
 30
0.0
 10
-11.77
 20
-14.85003
 30
0.0
 10
-11.77
 20
-14.59603
 30
0.0
 10
-11.77
 20
-14.59603
 30
0.0
  0
LWPOLYLINE
  5
8D
330
1F
100
AcDbEntity
  8
Layer 1
 62
     7
370
    35
100
AcDbPolyline
 90
        5
 70
     1
 43
0.0
 10
-10.65897
 20
-14.755
 10
-10.59497
 20
-14.755
 10
-10.59497
 20
-14.691
 10
-10.65897
 20
-14.691
 10
-10.65897
 20
-14.755
  0
LWPOLYLINE
  5
8E
330
1F
100
AcDbEntity
  8
Layer 1
 62
     7
370
    35
100
AcDbPolyline
 90
        5
 70
     1
 43
0.0
 10
-11.16697
 20
-14.755
 10
-11.10297
 20
-14.755
 10
-11.10297
 20
-14.691
 10
-11.16697
 20
-14.691
 10
-11.16697
 20
-14.755
  0
LWPOLYLINE
  5
8F
330
1F
100
AcDbEntity
  8
Layer 1
 62
     7
370
    35
100
AcDbPolyline
 90
        5
 70
     1
 43
0.0
 10
-10.40497
 20
-14.755
 10
-10.34097
 20
-14.755
 10
-10.34097
 20
-14.691
 10
-10.40497
 20
-14.691
 10
-10.40497
 20
-14.755
  0
LWPOLYLINE
  5
90
330
1F
100
AcDbEntity
  8
Layer 1
 62
     7
370
    35
100
AcDbPolyline
 90
        5
 70
     1
 43
0.0
 10
-10.91297
 20
-14.755
 10
-10.84897
 20
-14.755
 10
-10.84897
 20
-14.691
 10
-10.91297
 20
-14.691
 10
-10.91297
 20
-14.755
  0
LWPOLYLINE
  5
91
330
1F
100
AcDbEntity
  8
Layer 1
 62
     7
370
    35
100
AcDbPolyline
 90
        5
 70
     1
 43
0.0
 10
-10.15097
 20
-14.755
 10
-10.08697
 20
-14.755
 10
-10.08697
 20
-14.691
 10
-10.15097
 20
-14.691
 10
-10.15097
 20
-14.755
  0
LWPOLYLINE
  5
92
330
1F
100
AcDbEntity
  8
Layer 1
 62
     7
370
    35
100
AcDbPolyline
 90
        5
 70
     1
 43
0.0
 10
-9.89697
 20
-14.755
 10
-9.83297
 20
-14.755
 10
-9.83297
 20
-14.691
 10
-9.89697
 20
-14.691
 10
-9.89697
 20
-14.755
  0
LWPOLYLINE
  5
93
330
1F
100
AcDbEntity
  8
Layer 1
 62
     7
370
    35
100
AcDbPolyline
 90
        5
 70
     1
 43
0.0
 10
-11.67497
 20
-14.755
 10
-11.61097
 20
-14.755
 10
-11.61097
 20
-14.691
 10
-11.67497
 20
-14.691
 10
-11.67497
 20
-14.755
  0
LWPOLYLINE
  5
94
330
1F
100
AcDbEntity
  8
Layer 1
 62
     7
370
    35
100
AcDbPolyline
 90
        5
 70
     1
 43
0.0
 10
-11.42097
 20
-14.755
 10
-11.35697
 20
-14.755
 10
-11.35697
 20
-14.691
 10
-11.42097
 20
-14.691
 10
-11.42097
 20
-14.755
  0
LWPOLYLINE
  5
95
330
1F
100
AcDbEntity
  8
Layer 1
 62
     7
370
    35
100
AcDbPolyline
 90
        5
 70
     1
 43
0.0
 10
-9.64297
 20
-14.755
 10
-9.57897
 20
-14.755
 10
-9.57897
 20
-14.691
 10
-9.64297
 20
-14.691
 10
-9.64297
 20
-14.755
  0
LWPOLYLINE
  5
96
330
1F
100
AcDbEntity
  8
Layer 1
 62
     7
370
    35
100
AcDbPolyline
 90
        5
 70
     1
 43
0.0
 10
-9.38897
 20
-14.755
 10
-9.32497
 20
-14.755
 10
-9.32497
 20
-14.691
 10
-9.38897
 20
-14.691
 10
-9.38897
 20
-14.755
  0
ENDSEC
  0
SECTION
  2
OBJECTS
  0
DICTIONARY
  5
C
330
0
100
AcDbDictionary
281
     1
  3
ACAD_GROUP
350
D
  3
ACAD_LAYOUT
350
1A
  3
ACAD_MLEADERSTYLE
350
98
  3
ACAD_MLINESTYLE
350
17
  3
ACAD_PLOTSETTINGS
350
19
  3
ACAD_PLOTSTYLENAME
350
E
  3
ACAD_SCALELIST
350
3B
  3
ACAD_TABLESTYLE
350
97
  3
ACAD_VISUALSTYLE
350
2A
  0
DICTIONARY
  5
D
102
{ACAD_REACTORS
330
C
102
}
330
C
100
AcDbDictionary
281
     1
  0
DICTIONARY
  5
1A
102
{ACAD_REACTORS
330
C
102
}
330
C
100
AcDbDictionary
281
     1
  3
Layout1
350
1E
  3
Layout2
350
26
  3
Model
350
22
  0
DICTIONARY
  5
98
102
{ACAD_REACTORS
330
C
102
}
330
C
100
AcDbDictionary
281
     1
  0
DICTIONARY
  5
17
102
{ACAD_REACTORS
330
C
102
}
330
C
100
AcDbDictionary
281
     1
  3
Standard
350
18
  0
DICTIONARY
  5
19
102
{ACAD_REACTORS
330
C
102
}
330
C
100
AcDbDictionary
281
     1
  0
ACDBDICTIONARYWDFLT
  5
E
102
{ACAD_REACTORS
330
C
102
}
330
C
100
AcDbDictionary
281
     1
  3
Normal
350
F
100
AcDbDictionaryWithDefault
340
F
  0
DICTIONARY
  5
3B
102
{ACAD_REACTORS
330
C
102
}
330
C
100
AcDbDictionary
281
     1
  3
A0
350
3C
  3
A1
350
3D
  3
A2
350
3E
  3
A3
350
3F
  3
A4
350
40
  3
A5
350
41
  3
A6
350
42
  3
A7
350
43
  3
A8
350
44
  3
A9
350
45
  3
B0
350
46
  3
B1
350
47
  3
B2
350
48
  3
B3
350
49
  3
B4
350
4A
  3
B5
350
4B
  3
B6
350
4C
  3
B7
350
4D
  3
B8
350
4E
  3
B9
350
4F
  3
C0
350
50
  3
C1
350
51
  3
C2
350
52
  3
C3
350
53
  3
C4
350
54
  3
C5
350
55
  3
C6
350
56
  3
C7
350
57
  3
C8
350
58
  3
C9
350
59
  3
D0
350
5A
  3
D1
350
5B
  3
D2
350
5C
  0
DICTIONARY
  5
97
102
{ACAD_REACTORS
330
C
102
}
330
C
100
AcDbDictionary
281
     1
  0
DICTIONARY
  5
2A
102
{ACAD_REACTORS
330
C
102
}
330
C
100
AcDbDictionary
281
     1
  3
2dWireframe
350
2F
  3
3D Hidden
350
31
  3
3dWireframe
350
30
  3
Basic
350
32
  3
Brighten
350
36
  3
ColorChange
350
3A
  3
Conceptual
350
34
  3
Dim
350
35
  3
Facepattern
350
39
  3
Flat
350
2B
  3
FlatWithEdges
350
2C
  3
Gouraud
350
2D
  3
GouraudWithEdges
350
2E
  3
Linepattern
350
38
  3
Realistic
350
33
  3
Thicken
350
37
  0
LAYOUT
  5
1E
102
{ACAD_REACTORS
330
1A
102
}
330
1A
100
AcDbPlotSettings
  1

  2
none_device
  4

  6

 40
0.0
 41
0.0
 42
0.0
 43
0.0
 44
0.0
 45
0.0
 46
0.0
 47
0.0
 48
0.0
 49
0.0
140
0.0
141
0.0
142
1.0
143
1.0
 70
   688
 72
     0
 73
     0
 74
     5
  7

 75
    16
 76
     0
 77
     2
 78
   300
147
1.0
148
0.0
149
0.0
100
AcDbLayout
  1
Layout1
 70
     1
 71
     1
 10
0.0
 20
0.0
 11
12.0
 21
9.0
 12
0.0
 22
0.0
 32
0.0
 14
1.000000000000000E+20
 24
1.000000000000000E+20
 34
1.000000000000000E+20
 15
-1.000000000000000E+20
 25
-1.000000000000000E+20
 35
-1.000000000000000E+20
146
0.0
 13
0.0
 23
0.0
 33
0.0
 16
1.0
 26
0.0
 36
0.0
 17
0.0
 27
1.0
 37
0.0
 76
     0
330
1B
  0
LAYOUT
  5
26
102
{ACAD_REACTORS
330
1A
102
}
330
1A
100
AcDbPlotSettings
  1

  2
none_device
  4

  6

 40
0.0
 41
0.0
 42
0.0
 43
0.0
 44
0.0
 45
0.0
 46
0.0
 47
0.0
 48
0.0
 49
0.0
140
0.0
141
0.0
142
1.0
143
1.0
 70
   688
 72
     0
 73
     0
 74
     5
  7

 75
    16
 76
     0
 77
     2
 78
   300
147
1.0
148
0.0
149
0.0
100
AcDbLayout
  1
Layout2
 70
     1
 71
     2
 10
0.0
 20
0.0
 11
0.0
 21
0.0
 12
0.0
 22
0.0
 32
0.0
 14
0.0
 24
0.0
 34
0.0
 15
0.0
 25
0.0
 35
0.0
146
0.0
 13
0.0
 23
0.0
 33
0.0
 16
1.0
 26
0.0
 36
0.0
 17
0.0
 27
1.0
 37
0.0
 76
     0
330
23
  0
LAYOUT
  5
22
102
{ACAD_REACTORS
330
1A
102
}
330
1A
100
AcDbPlotSettings
  1

  2
none_device
  4

  6

 40
0.0
 41
0.0
 42
0.0
 43
0.0
 44
0.0
 45
0.0
 46
0.0
 47
0.0
 48
0.0
 49
0.0
140
0.0
141
0.0
142
1.0
143
1.0
 70
  1712
 72
     0
 73
     0
 74
     0
  7

 75
     0
 76
     0
 77
     2
 78
   300
147
1.0
148
0.0
149
0.0
100
AcDbLayout
  1
Model
 70
     1
 71
     0
 10
0.0
 20
0.0
 11
12.0
 21
9.0
 12
0.0
 22
0.0
 32
0.0
 14
-11.83961
 24
-14.86767
 34
0.0
 15
-9.16143
 25
-13.98475
 35
0.0
146
0.0
 13
0.0
 23
0.0
 33
0.0
 16
1.0
 26
0.0
 36
0.0
 17
0.0
 27
1.0
 37
0.0
 76
     0
330
1F
331
29
  0
MLINESTYLE
  5
18
102
{ACAD_REACTORS
330
17
102
}
330
17
100
AcDbMlineStyle
  2
Standard
 70
     0
  3

 62
   256
 51
90.0
 52
90.0
 71
     2
 49
0.5
 62
   256
  6
BYLAYER
 49
-0.5
 62
   256
  6
BYLAYER
  0
ACDBPLACEHOLDER
  5
F
102
{ACAD_REACTORS
330
E
102
}
330
E
  0
SCALE
  5
3C
102
{ACAD_REACTORS
330
3B
102
}
330
3B
100
AcDbScale
 70
     0
300
1:1
140
1.0
141
1.0
290
     1
  0
SCALE
  5
3D
102
{ACAD_REACTORS
330
3B
102
}
330
3B
100
AcDbScale
 70
     0
300
1:2
140
1.0
141
2.0
290
     0
  0
SCALE
  5
3E
102
{ACAD_REACTORS
330
3B
102
}
330
3B
100
AcDbScale
 70
     0
300
1:4
140
1.0
141
4.0
290
     0
  0
SCALE
  5
3F
102
{ACAD_REACTORS
330
3B
102
}
330
3B
100
AcDbScale
 70
     0
300
1:5
140
1.0
141
5.0
290
     0
  0
SCALE
  5
40
102
{ACAD_REACTORS
330
3B
102
}
330
3B
100
AcDbScale
 70
     0
300
1:8
140
1.0
141
8.0
290
     0
  0
SCALE
  5
41
102
{ACAD_REACTORS
330
3B
102
}
330
3B
100
AcDbScale
 70
     0
300
1:10
140
1.0
141
10.0
290
     0
  0
SCALE
  5
42
102
{ACAD_REACTORS
330
3B
102
}
330
3B
100
AcDbScale
 70
     0
300
1:16
140
1.0
141
16.0
290
     0
  0
SCALE
  5
43
102
{ACAD_REACTORS
330
3B
102
}
330
3B
100
AcDbScale
 70
     0
300
1:20
140
1.0
141
20.0
290
     0
  0
SCALE
  5
44
102
{ACAD_REACTORS
330
3B
102
}
330
3B
100
AcDbScale
 70
     0
300
1:30
140
1.0
141
30.0
290
     0
  0
SCALE
  5
45
102
{ACAD_REACTORS
330
3B
102
}
330
3B
100
AcDbScale
 70
     0
300
1:40
140
1.0
141
40.0
290
     0
  0
SCALE
  5
46
102
{ACAD_REACTORS
330
3B
102
}
330
3B
100
AcDbScale
 70
     0
300
1:50
140
1.0
141
50.0
290
     0
  0
SCALE
  5
47
102
{ACAD_REACTORS
330
3B
102
}
330
3B
100
AcDbScale
 70
     0
300
1:100
140
1.0
141
100.0
290
     0
  0
SCALE
  5
48
102
{ACAD_REACTORS
330
3B
102
}
330
3B
100
AcDbScale
 70
     0
300
2:1
140
2.0
141
1.0
290
     0
  0
SCALE
  5
49
102
{ACAD_REACTORS
330
3B
102
}
330
3B
100
AcDbScale
 70
     0
300
4:1
140
4.0
141
1.0
290
     0
  0
SCALE
  5
4A
102
{ACAD_REACTORS
330
3B
102
}
330
3B
100
AcDbScale
 70
     0
300
8:1
140
8.0
141
1.0
290
     0
  0
SCALE
  5
4B
102
{ACAD_REACTORS
330
3B
102
}
330
3B
100
AcDbScale
 70
     0
300
10:1
140
10.0
141
1.0
290
     0
  0
SCALE
  5
4C
102
{ACAD_REACTORS
330
3B
102
}
330
3B
100
AcDbScale
 70
     0
300
100:1
140
100.0
141
1.0
290
     0
  0
SCALE
  5
4D
102
{ACAD_REACTORS
330
3B
102
}
330
3B
100
AcDbScale
 70
     0
300
1/128" = 1'-0"
140
0.0078125
141
12.0
290
     0
  0
SCALE
  5
4E
102
{ACAD_REACTORS
330
3B
102
}
330
3B
100
AcDbScale
 70
     0
300
1/64" = 1'-0"
140
0.015625
141
12.0
290
     0
  0
SCALE
  5
4F
102
{ACAD_REACTORS
330
3B
102
}
330
3B
100
AcDbScale
 70
     0
300
1/32" = 1'-0"
140
0.03125
141
12.0
290
     0
  0
SCALE
  5
50
102
{ACAD_REACTORS
330
3B
102
}
330
3B
100
AcDbScale
 70
     0
300
1/16" = 1'-0"
140
0.0625
141
12.0
290
     0
  0
SCALE
  5
51
102
{ACAD_REACTORS
330
3B
102
}
330
3B
100
AcDbScale
 70
     0
300
3/32" = 1'-0"
140
0.09375
141
12.0
290
     0
  0
SCALE
  5
52
102
{ACAD_REACTORS
330
3B
102
}
330
3B
100
AcDbScale
 70
     0
300
1/8" = 1'-0"
140
0.125
141
12.0
290
     0
  0
SCALE
  5
53
102
{ACAD_REACTORS
330
3B
102
}
330
3B
100
AcDbScale
 70
     0
300
3/16" = 1'-0"
140
0.1875
141
12.0
290
     0
  0
SCALE
  5
54
102
{ACAD_REACTORS
330
3B
102
}
330
3B
100
AcDbScale
 70
     0
300
1/4" = 1'-0"
140
0.25
141
12.0
290
     0
  0
SCALE
  5
55
102
{ACAD_REACTORS
330
3B
102
}
330
3B
100
AcDbScale
 70
     0
300
3/8" = 1'-0"
140
0.375
141
12.0
290
     0
  0
SCALE
  5
56
102
{ACAD_REACTORS
330
3B
102
}
330
3B
100
AcDbScale
 70
     0
300
1/2" = 1'-0"
140
0.5
141
12.0
290
     0
  0
SCALE
  5
57
102
{ACAD_REACTORS
330
3B
102
}
330
3B
100
AcDbScale
 70
     0
300
3/4" = 1'-0"
140
0.75
141
12.0
290
     0
  0
SCALE
  5
58
102
{ACAD_REACTORS
330
3B
102
}
330
3B
100
AcDbScale
 70
     0
300
1" = 1'-0"
140
1.0
141
12.0
290
     0
  0
SCALE
  5
59
102
{ACAD_REACTORS
330
3B
102
}
330
3B
100
AcDbScale
 70
     0
300
1-1/2" = 1'-0"
140
1.5
141
12.0
290
     0
  0
SCALE
  5
5A
102
{ACAD_REACTORS
330
3B
102
}
330
3B
100
AcDbScale
 70
     0
300
3" = 1'-0"
140
3.0
141
12.0
290
     0
  0
SCALE
  5
5B
102
{ACAD_REACTORS
330
3B
102
}
330
3B
100
AcDbScale
 70
     0
300
6" = 1'-0"
140
6.0
141
12.0
290
     0
  0
SCALE
  5
5C
102
{ACAD_REACTORS
330
3B
102
}
330
3B
100
AcDbScale
 70
     0
300
1'-0" = 1'-0"
140
12.0
141
12.0
290
     0
  0
VISUALSTYLE
  5
2F
102
{ACAD_REACTORS
330
2A
102
}
330
2A
100
AcDbVisualStyle
  2
2dWireframe
 70
     4
 71
     0
 72
     2
 73
     0
 90
        0
 40
-0.6
 41
-30.0
 62
     5
 63
     7
421
 16777215
 74
     1
 91
        4
 64
     7
 65
   257
 75
     1
175
     1
 42
1.0
 92
        0
 66
   257
 43
1.0
 76
     1
 77
     6
 78
     2
 67
     7
 79
     5
170
     0
171
     0
290
     0
174
     0
 93
        1
 44
0.0
173
     0
291
     0
 45
0.0
  0
VISUALSTYLE
  5
31
102
{ACAD_REACTORS
330
2A
102
}
330
2A
100
AcDbVisualStyle
  2
3D Hidden
 70
     6
 71
     1
 72
     2
 73
     2
 90
        0
 40
-0.6
 41
-30.0
 62
     5
 63
     7
421
 16777215
 74
     2
 91
        2
 64
     7
 65
   257
 75
     2
175
     1
 42
40.0
 92
        0
 66
   257
 43
1.0
 76
     1
 77
     6
 78
     2
 67
     7
 79
     3
170
     0
171
     0
290
     0
174
     0
 93
        1
 44
0.0
173
     0
291
     0
 45
0.0
  0
VISUALSTYLE
  5
30
102
{ACAD_REACTORS
330
2A
102
}
330
2A
100
AcDbVisualStyle
  2
3dWireframe
 70
     5
 71
     0
 72
     2
 73
     0
 90
        0
 40
-0.6
 41
-30.0
 62
     5
 63
     7
421
 16777215
 74
     1
 91
        4
 64
     7
 65
   257
 75
     1
175
     1
 42
1.0
 92
        0
 66
   257
 43
1.0
 76
     1
 77
     6
 78
     2
 67
     7
 79
     5
170
     0
171
     0
290
     0
174
     0
 93
        1
 44
0.0
173
     0
291
     0
 45
0.0
  0
VISUALSTYLE
  5
32
102
{ACAD_REACTORS
330
2A
102
}
330
2A
100
AcDbVisualStyle
  2
Basic
 70
     7
 71
     1
 72
     0
 73
     1
 90
        0
 40
-0.6
 41
-30.0
 62
     5
 63
     7
421
 16777215
 74
     0
 91
        4
 64
     7
 65
   257
 75
     1
175
     1
 42
1.0
 92
        8
 66
     7
 43
1.0
 76
     1
 77
     6
 78
     2
 67
     7
 79
     5
170
     0
171
     0
290
     0
174
     0
 93
        1
 44
0.0
173
     0
291
     1
 45
0.0
  0
VISUALSTYLE
  5
36
102
{ACAD_REACTORS
330
2A
102
}
330
2A
100
AcDbVisualStyle
  2
Brighten
 70
    12
 71
     2
 72
     2
 73
     0
 90
        0
 40
-0.6
 41
-30.0
 62
     5
 63
     7
421
 16777215
 74
     1
 91
        4
 64
     7
 65
   257
 75
     1
175
     1
 42
1.0
 92
        8
 66
     7
 43
1.0
 76
     1
 77
     6
 78
     2
 67
     7
 79
     5
170
     0
171
     0
290
     0
174
     0
 93
        1
 44
50.0
173
     0
291
     1
 45
0.0
  0
VISUALSTYLE
  5
3A
102
{ACAD_REACTORS
330
2A
102
}
330
2A
100
AcDbVisualStyle
  2
ColorChange
 70
    16
 71
     2
 72
     2
 73
     3
 90
        0
 40
-0.6
 41
-30.0
 62
     5
 63
     8
421
  8421504
 74
     1
 91
        4
 64
     7
 65
   257
 75
     1
175
     1
 42
1.0
 92
        8
 66
     8
424
  8421504
 43
1.0
 76
     1
 77
     6
 78
     2
 67
     7
 79
     5
170
     0
171
     0
290
     0
174
     0
 93
        1
 44
0.0
173
     0
291
     1
 45
0.0
  0
VISUALSTYLE
  5
34
102
{ACAD_REACTORS
330
2A
102
}
330
2A
100
AcDbVisualStyle
  2
Conceptual
 70
     9
 71
     3
 72
     2
 73
     0
 90
        0
 40
-0.6
 41
-30.0
 62
     5
 63
     7
421
 16777215
 74
     2
 91
        2
 64
     7
 65
   257
 75
     1
175
     1
 42
40.0
 92
        8
 66
     7
 43
1.0
 76
     1
 77
     6
 78
     2
 67
     7
 79
     3
170
     0
171
     0
290
     0
174
     0
 93
        1
 44
0.0
173
     0
291
     0
 45
0.0
  0
VISUALSTYLE
  5
35
102
{ACAD_REACTORS
330
2A
102
}
330
2A
100
AcDbVisualStyle
  2
Dim
 70
    11
 71
     2
 72
     2
 73
     0
 90
        0
 40
-0.6
 41
-30.0
 62
     5
 63
     7
421
 16777215
 74
     1
 91
        4
 64
     7
 65
   257
 75
     1
175
     1
 42
1.0
 92
        8
 66
     7
 43
1.0
 76
     1
 77
     6
 78
     2
 67
     7
 79
     5
170
     0
171
     0
290
     0
174
     0
 93
        1
 44
-50.0
173
     0
291
     1
 45
0.0
  0
VISUALSTYLE
  5
39
102
{ACAD_REACTORS
330
2A
102
}
330
2A
100
AcDbVisualStyle
  2
Facepattern
 70
    15
 71
     2
 72
     2
 73
     0
 90
        0
 40
-0.6
 41
-30.0
 62
     5
 63
     7
421
 16777215
 74
     1
 91
        4
 64
     7
 65
   257
 75
     1
175
     1
 42
1.0
 92
        8
 66
     7
 43
1.0
 76
     1
 77
     6
 78
     2
 67
     7
 79
     5
170
     0
171
     0
290
     0
174
     0
 93
        1
 44
0.0
173
     0
291
     1
 45
0.0
  0
VISUALSTYLE
  5
2B
102
{ACAD_REACTORS
330
2A
102
}
330
2A
100
AcDbVisualStyle
  2
Flat
 70
     0
 71
     2
 72
     1
 73
     1
 90
        2
 40
-0.6
 41
30.0
 62
     5
 63
     7
421
 16777215
 74
     0
 91
        4
 64
     7
 65
   257
 75
     1
175
     1
 42
1.0
 92
        8
 66
     7
 43
1.0
 76
     1
 77
     6
 78
     2
 67
     7
 79
     5
170
     0
171
     0
290
     0
174
     0
 93
       13
 44
0.0
173
     0
291
     1
 45
0.0
  0
VISUALSTYLE
  5
2C
102
{ACAD_REACTORS
330
2A
102
}
330
2A
100
AcDbVisualStyle
  2
FlatWithEdges
 70
     1
 71
     2
 72
     1
 73
     1
 90
        2
 40
-0.6
 41
30.0
 62
     5
 63
     7
421
 16777215
 74
     1
 91
        4
 64
     7
 65
   257
 75
     1
175
     1
 42
1.0
 92
        0
 66
   257
 43
1.0
 76
     1
 77
     6
 78
     2
 67
     7
 79
     5
170
     0
171
     0
290
     0
174
     0
 93
       13
 44
0.0
173
     0
291
     1
 45
0.0
  0
VISUALSTYLE
  5
2D
102
{ACAD_REACTORS
330
2A
102
}
330
2A
100
AcDbVisualStyle
  2
Gouraud
 70
     2
 71
     2
 72
     2
 73
     1
 90
        2
 40
-0.6
 41
30.0
 62
     5
 63
     7
421
 16777215
 74
     0
 91
        4
 64
     7
 65
   257
 75
     1
175
     1
 42
1.0
 92
        0
 66
     7
 43
1.0
 76
     1
 77
     6
 78
     2
 67
     7
 79
     5
170
     0
171
     0
290
     0
174
     0
 93
       13
 44
0.0
173
     0
291
     1
 45
0.0
  0
VISUALSTYLE
  5
2E
102
{ACAD_REACTORS
330
2A
102
}
330
2A
100
AcDbVisualStyle
  2
GouraudWithEdges
 70
     3
 71
     2
 72
     2
 73
     1
 90
        2
 40
-0.6
 41
30.0
 62
     5
 63
     7
421
 16777215
 74
     1
 91
        4
 64
     7
 65
   257
 75
     1
175
     1
 42
1.0
 92
        0
 66
   257
 43
1.0
 76
     1
 77
     6
 78
     2
 67
     7
 79
     5
170
     0
171
     0
290
     0
174
     0
 93
       13
 44
0.0
173
     0
291
     1
 45
0.0
  0
VISUALSTYLE
  5
38
102
{ACAD_REACTORS
330
2A
102
}
330
2A
100
AcDbVisualStyle
  2
Linepattern
 70
    14
 71
     2
 72
     2
 73
     0
 90
        0
 40
-0.6
 41
-30.0
 62
     5
 63
     7
421
 16777215
 74
     1
 91
        4
 64
     7
 65
   257
 75
     7
175
     7
 42
1.0
 92
        8
 66
     7
 43
1.0
 76
     1
 77
     6
 78
     2
 67
     7
 79
     5
170
     0
171
     0
290
     0
174
     0
 93
        1
 44
0.0
173
     0
291
     1
 45
0.0
  0
VISUALSTYLE
  5
33
102
{ACAD_REACTORS
330
2A
102
}
330
2A
100
AcDbVisualStyle
  2
Realistic
 70
     8
 71
     2
 72
     2
 73
     0
 90
        0
 40
-0.6
 41
-30.0
 62
     5
 63
     7
421
 16777215
 74
     1
 91
        0
 64
     7
 65
   257
 75
     1
175
     1
 42
1.0
 92
        8
 66
     8
424
  7895160
 43
1.0
 76
     1
 77
     6
 78
     2
 67
     7
 79
     5
170
     0
171
     0
290
     0
174
     0
 93
       13
 44
0.0
173
     0
291
     0
 45
0.0
  0
VISUALSTYLE
  5
37
102
{ACAD_REACTORS
330
2A
102
}
330
2A
100
AcDbVisualStyle
  2
Thicken
 70
    13
 71
     2
 72
     2
 73
     0
 90
        0
 40
-0.6
 41
-30.0
 62
     5
 63
     7
421
 16777215
 74
     1
 91
        4
 64
     7
 65
   257
 75
     1
175
     1
 42
1.0
 92
       12
 66
     7
 43
1.0
 76
     1
 77
     6
 78
     2
 67
     7
 79
     5
170
     0
171
     0
290
     0
174
     0
 93
        1
 44
0.0
173
     0
291
     1
 45
0.0
  0
ENDSEC
  0
EOF
