  0
SECTION
  2
HEADER
  9
$ACADVER
  1
AC1021
  9
$ACADMAINTVER
 70
    25
  9
$DWGCODEPAGE
  3
ANSI_1252
  9
$INSBASE
 10
0.0
 20
0.0
 30
0.0
  9
$EXTMIN
 10
-11.55
 20
-15.85
 30
0.0
  9
$EXTMAX
 10
-9.45
 20
-13.85
 30
0.0
  9
$LIMMIN
 10
0.0
 20
0.0
  9
$LIMMAX
 10
12.0
 20
9.0
  9
$ORTHOMODE
 70
     0
  9
$REGENMODE
 70
     1
  9
$FILLMODE
 70
     1
  9
$QTEXTMODE
 70
     0
  9
$MIRRTEXT
 70
     1
  9
$LTSCALE
 40
1.0
  9
$ATTMODE
 70
     1
  9
$TEXTSIZE
 40
0.2
  9
$TRACEWID
 40
0.05
  9
$TEXTSTYLE
  7
Standard
  9
$CLAYER
  8
0
  9
$CELTYPE
  6
ByLayer
  9
$CECOLOR
 62
   256
  9
$CELTSCALE
 40
1.0
  9
$DISPSILH
 70
     0
  9
$DIMSCALE
 40
1.0
  9
$DIMASZ
 40
0.18
  9
$DIMEXO
 40
0.0625
  9
$DIMDLI
 40
0.38
  9
$DIMRND
 40
0.0
  9
$DIMDLE
 40
0.0
  9
$DIMEXE
 40
0.18
  9
$DIMTP
 40
0.0
  9
$DIMTM
 40
0.0
  9
$DIMTXT
 40
0.18
  9
$DIMCEN
 40
0.09
  9
$DIMTSZ
 40
0.0
  9
$DIMTOL
 70
     0
  9
$DIMLIM
 70
     0
  9
$DIMTIH
 70
     1
  9
$DIMTOH
 70
     1
  9
$DIMSE1
 70
     0
  9
$DIMSE2
 70
     0
  9
$DIMTAD
 70
     0
  9
$DIMZIN
 70
     0
  9
$DIMBLK
  1

  9
$DIMASO
 70
     1
  9
$DIMSHO
 70
     1
  9
$DIMPOST
  1

  9
$DIMAPOST
  1

  9
$DIMALT
 70
     0
  9
$DIMALTD
 70
     2
  9
$DIMALTF
 40
25.4
  9
$DIMLFAC
 40
1.0
  9
$DIMTOFL
 70
     0
  9
$DIMTVP
 40
0.0
  9
$DIMTIX
 70
     0
  9
$DIMSOXD
 70
     0
  9
$DIMSAH
 70
     0
  9
$DIMBLK1
  1

  9
$DIMBLK2
  1

  9
$DIMSTYLE
  2
Standard
  9
$DIMCLRD
 70
     0
  9
$DIMCLRE
 70
     0
  9
$DIMCLRT
 70
     0
  9
$DIMTFAC
 40
1.0
  9
$DIMGAP
 40
0.09
  9
$DIMJUST
 70
     0
  9
$DIMSD1
 70
     0
  9
$DIMSD2
 70
     0
  9
$DIMTOLJ
 70
     1
  9
$DIMTZIN
 70
     0
  9
$DIMALTZ
 70
     0
  9
$DIMALTTZ
 70
     0
  9
$DIMUPT
 70
     0
  9
$DIMDEC
 70
     4
  9
$DIMTDEC
 70
     4
  9
$DIMALTU
 70
     2
  9
$DIMALTTD
 70
     2
  9
$DIMTXSTY
  7
Standard
  9
$DIMAUNIT
 70
     0
  9
$DIMADEC
 70
     0
  9
$DIMALTRND
 40
0.0
  9
$DIMAZIN
 70
     0
  9
$DIMDSEP
 70
    46
  9
$DIMATFIT
 70
     3
  9
$DIMFRAC
 70
     0
  9
$DIMLDRBLK
  1

  9
$DIMLUNIT
 70
     2
  9
$DIMLWD
 70
    -2
  9
$DIMLWE
 70
    -2
  9
$DIMTMOVE
 70
     0
  9
$DIMFXL
 40
1.0
  9
$DIMFXLON
 70
     0
  9
$DIMJOGANG
 40
0.7853981633974483
  9
$DIMTFILL
 70
     0
  9
$DIMTFILLCLR
 70
     0
  9
$DIMARCSYM
 70
     0
  9
$DIMLTYPE
  6

  9
$DIMLTEX1
  6

  9
$DIMLTEX2
  6

  9
$LUNITS
 70
     2
  9
$LUPREC
 70
     4
  9
$SKETCHINC
 40
0.1
  9
$FILLETRAD
 40
0.5
  9
$AUNITS
 70
     0
  9
$AUPREC
 70
     0
  9
$MENU
  1
.
  9
$ELEVATION
 40
0.0
  9
$PELEVATION
 40
0.0
  9
$THICKNESS
 40
0.0
  9
$LIMCHECK
 70
     0
  9
$CHAMFERA
 40
0.5
  9
$CHAMFERB
 40
0.5
  9
$CHAMFERC
 40
1.0
  9
$CHAMFERD
 40
0.0
  9
$SKPOLY
 70
     0
  9
$TDCREATE
 40
2457067.044818114
  9
$TDUCREATE
 40
2457067.044818114
  9
$TDUPDATE
 40
2457067.044818125
  9
$TDUUPDATE
 40
2457067.044818125
  9
$TDINDWG
 40
0.0000000116
  9
$TDUSRTIMER
 40
0.0000000116
  9
$USRTIMER
 70
     1
  9
$ANGBASE
 50
0.0
  9
$ANGDIR
 70
     0
  9
$PDMODE
 70
     0
  9
$PDSIZE
 40
0.0
  9
$PLINEWID
 40
0.0
  9
$SPLFRAME
 70
     0
  9
$SPLINETYPE
 70
     6
  9
$SPLINESEGS
 70
     8
  9
$HANDSEED
  5
9D
  9
$SURFTAB1
 70
     6
  9
$SURFTAB2
 70
     6
  9
$SURFTYPE
 70
     6
  9
$SURFU
 70
     6
  9
$SURFV
 70
     6
  9
$UCSBASE
  2

  9
$UCSNAME
  2

  9
$UCSORG
 10
0.0
 20
0.0
 30
0.0
  9
$UCSXDIR
 10
1.0
 20
0.0
 30
0.0
  9
$UCSYDIR
 10
0.0
 20
1.0
 30
0.0
  9
$UCSORTHOREF
  2

  9
$UCSORTHOVIEW
 70
     0
  9
$UCSORGTOP
 10
0.0
 20
0.0
 30
0.0
  9
$UCSORGBOTTOM
 10
0.0
 20
0.0
 30
0.0
  9
$UCSORGLEFT
 10
0.0
 20
0.0
 30
0.0
  9
$UCSORGRIGHT
 10
0.0
 20
0.0
 30
0.0
  9
$UCSORGFRONT
 10
0.0
 20
0.0
 30
0.0
  9
$UCSORGBACK
 10
0.0
 20
0.0
 30
0.0
  9
$PUCSBASE
  2

  9
$PUCSNAME
  2

  9
$PUCSORG
 10
0.0
 20
0.0
 30
0.0
  9
$PUCSXDIR
 10
1.0
 20
0.0
 30
0.0
  9
$PUCSYDIR
 10
0.0
 20
1.0
 30
0.0
  9
$PUCSORTHOREF
  2

  9
$PUCSORTHOVIEW
 70
     0
  9
$PUCSORGTOP
 10
0.0
 20
0.0
 30
0.0
  9
$PUCSORGBOTTOM
 10
0.0
 20
0.0
 30
0.0
  9
$PUCSORGLEFT
 10
0.0
 20
0.0
 30
0.0
  9
$PUCSORGRIGHT
 10
0.0
 20
0.0
 30
0.0
  9
$PUCSORGFRONT
 10
0.0
 20
0.0
 30
0.0
  9
$PUCSORGBACK
 10
0.0
 20
0.0
 30
0.0
  9
$USERI1
 70
     0
  9
$USERI2
 70
     0
  9
$USERI3
 70
     0
  9
$USERI4
 70
     0
  9
$USERI5
 70
     0
  9
$USERR1
 40
0.0
  9
$USERR2
 40
0.0
  9
$USERR3
 40
0.0
  9
$USERR4
 40
0.0
  9
$USERR5
 40
0.0
  9
$WORLDVIEW
 70
     1
  9
$SHADEDGE
 70
     3
  9
$SHADEDIF
 70
    70
  9
$TILEMODE
 70
     1
  9
$MAXACTVP
 70
    64
  9
$PINSBASE
 10
0.0
 20
0.0
 30
0.0
  9
$PLIMCHECK
 70
     0
  9
$PEXTMIN
 10
1.000000000000000E+20
 20
1.000000000000000E+20
 30
1.000000000000000E+20
  9
$PEXTMAX
 10
-1.000000000000000E+20
 20
-1.000000000000000E+20
 30
-1.000000000000000E+20
  9
$PLIMMIN
 10
0.0
 20
0.0
  9
$PLIMMAX
 10
12.0
 20
9.0
  9
$UNITMODE
 70
     0
  9
$VISRETAIN
 70
     1
  9
$PLINEGEN
 70
     0
  9
$PSLTSCALE
 70
     1
  9
$TREEDEPTH
 70
  3020
  9
$CMLSTYLE
  2
Standard
  9
$CMLJUST
 70
     0
  9
$CMLSCALE
 40
1.0
  9
$PROXYGRAPHICS
 70
     1
  9
$MEASUREMENT
 70
     0
  9
$CELWEIGHT
370
    -1
  9
$ENDCAPS
280
     0
  9
$JOINSTYLE
280
     0
  9
$LWDISPLAY
290
     0
  9
$INSUNITS
 70
     5
  9
$HYPERLINKBASE
  1

  9
$STYLESHEET
  1

  9
$XEDIT
290
     1
  9
$CEPSNTYPE
380
     0
  9
$PSTYLEMODE
290
     1
  9
$FINGERPRINTGUID
  2
{5D162588-3F83-4C5D-AF10-D07E9C35120F}
  9
$VERSIONGUID
  2
{FAEB1C32-E019-11D5-929B-00C0DF256EC4}
  9
$EXTNAMES
290
     1
  9
$PSVPSCALE
 40
0.0
  9
$OLESTARTUP
290
     0
  9
$SORTENTS
280
   127
  9
$INDEXCTL
280
     0
  9
$HIDETEXT
280
     1
  9
$XCLIPFRAME
290
     0
  9
$HALOGAP
280
     0
  9
$OBSCOLOR
 70
   257
  9
$OBSLTYPE
280
     0
  9
$INTERSECTIONDISPLAY
280
     0
  9
$INTERSECTIONCOLOR
 70
   257
  9
$DIMASSOC
280
     2
  9
$PROJECTNAME
  1

  9
$CAMERADISPLAY
290
     0
  9
$LENSLENGTH
 40
50.0
  9
$CAMERAHEIGHT
 40
0.0
  9
$STEPSPERSEC
 40
2.0
  9
$STEPSIZE
 40
6.0
  9
$3DDWFPREC
 40
2.0
  9
$PSOLWIDTH
 40
0.25
  9
$PSOLHEIGHT
 40
4.0
  9
$LOFTANG1
 40
1.570796326794897
  9
$LOFTANG2
 40
1.570796326794897
  9
$LOFTMAG1
 40
0.0
  9
$LOFTMAG2
 40
0.0
  9
$LOFTPARAM
 70
     7
  9
$LOFTNORMALS
280
     1
  9
$LATITUDE
 40
37.795
  9
$LONGITUDE
 40
-122.394
  9
$NORTHDIRECTION
 40
0.0
  9
$TIMEZONE
 70
 -8000
  9
$LIGHTGLYPHDISPLAY
280
     1
  9
$TILEMODELIGHTSYNCH
280
     1
  9
$SOLIDHIST
280
     1
  9
$SHOWHIST
280
     1
  9
$DWFFRAME
280
     2
  9
$DGNFRAME
280
     2
  9
$REALWORLDSCALE
290
     1
  9
$INTERFERECOLOR
 62
   256
  9
$CSHADOW
280
     0
  9
$SHADOWPLANELOCATION
 40
0.0
  0
ENDSEC
  0
SECTION
  2
CLASSES
  0
CLASS
  1
ACDBDICTIONARYWDFLT
  2
AcDbDictionaryWithDefault
  3
ObjectDBX Classes
 90
        0
 91
        3
280
     0
281
     0
  0
CLASS
  1
VISUALSTYLE
  2
AcDbVisualStyle
  3
ObjectDBX Classes
 90
     4095
 91
        3
280
     0
281
     0
  0
CLASS
  1
SCALE
  2
AcDbScale
  3
ObjectDBX Classes
 90
     1153
 91
        3
280
     0
281
     0
  0
ENDSEC
  0
SECTION
  2
TABLES
  0
TABLE
  2
VPORT
  5
8
330
0
100
AcDbSymbolTable
 70
     1
  0
VPORT
  5
29
330
8
100
AcDbSymbolTableRecord
100
AcDbViewportTableRecord
  2
*Active
 70
     0
 10
0.0
 20
0.0
 11
1.0
 21
1.0
 12
10.42990654205607
 22
4.5
 13
0.0
 23
0.0
 14
0.5
 24
0.5
 15
0.5
 25
0.5
 16
0.0
 26
0.0
 36
1.0
 17
0.0
 27
0.0
 37
0.0
 40
9.0
 41
1.972972972850329
 42
50.0
 43
0.0
 44
0.0
 50
0.0
 51
0.0
 71
     0
 72
   100
 73
     1
 74
     3
 75
     0
 76
     0
 77
     0
 78
     0
281
     0
 65
     1
110
0.0
120
0.0
130
0.0
111
1.0
121
0.0
131
0.0
112
0.0
122
1.0
132
0.0
 79
     0
146
0.0
 60
     3
 61
     5
292
     1
282
     1
141
0.0
142
0.0
 63
   256
  0
ENDTAB
  0
TABLE
  2
LTYPE
  5
5
330
0
100
AcDbSymbolTable
 70
     1
  0
LTYPE
  5
14
330
5
100
AcDbSymbolTableRecord
100
AcDbLinetypeTableRecord
  2
ByBlock
 70
     0
  3

 72
    65
 73
     0
 40
0.0
  0
LTYPE
  5
15
330
5
100
AcDbSymbolTableRecord
100
AcDbLinetypeTableRecord
  2
ByLayer
 70
     0
  3

 72
    65
 73
     0
 40
0.0
  0
LTYPE
  5
16
330
5
100
AcDbSymbolTableRecord
100
AcDbLinetypeTableRecord
  2
Continuous
 70
     0
  3
Solid line
 72
    65
 73
     0
 40
0.0
  0
ENDTAB
  0
TABLE
  2
LAYER
  5
2
330
0
100
AcDbSymbolTable
 70
     2
  0
LAYER
  5
10
330
2
100
AcDbSymbolTableRecord
100
AcDbLayerTableRecord
  2
0
 70
     0
 62
     7
  6
Continuous
370
    -3
390
F
347
0
  0
LAYER
  5
5E
330
2
100
AcDbSymbolTableRecord
100
AcDbLayerTableRecord
  2
Layer 1
 70
     0
 62
     7
  6
Continuous
370
    -3
390
F
347
0
  0
ENDTAB
  0
TABLE
  2
STYLE
  5
3
330
0
100
AcDbSymbolTable
 70
     1
  0
STYLE
  5
11
330
3
100
AcDbSymbolTableRecord
100
AcDbTextStyleTableRecord
  2
Standard
 70
     0
 40
0.0
 41
1.0
 50
0.0
 71
     0
 42
0.2
  3
txt
  4

  0
ENDTAB
  0
TABLE
  2
VIEW
  5
6
330
0
100
AcDbSymbolTable
 70
     0
  0
ENDTAB
  0
TABLE
  2
UCS
  5
7
330
0
100
AcDbSymbolTable
 70
     0
  0
ENDTAB
  0
TABLE
  2
APPID
  5
9
330
0
100
AcDbSymbolTable
 70
     2
  0
APPID
  5
12
330
9
100
AcDbSymbolTableRecord
100
AcDbRegAppTableRecord
  2
ACAD
 70
     0
  0
APPID
  5
5D
330
9
100
AcDbSymbolTableRecord
100
AcDbRegAppTableRecord
  2
ODA
 70
     0
  0
ENDTAB
  0
TABLE
  2
DIMSTYLE
  5
A
330
0
100
AcDbSymbolTable
 70
     1
100
AcDbDimStyleTable
  0
DIMSTYLE
105
27
330
A
100
AcDbSymbolTableRecord
100
AcDbDimStyleTableRecord
  2
Standard
 70
     0
340
11
  0
ENDTAB
  0
TABLE
  2
BLOCK_RECORD
  5
1
330
0
100
AcDbSymbolTable
 70
     1
  0
BLOCK_RECORD
  5
1F
330
1
100
AcDbSymbolTableRecord
100
AcDbBlockTableRecord
  2
*Model_Space
340
22
 70
     0
280
     1
281
     0
  0
BLOCK_RECORD
  5
1B
330
1
100
AcDbSymbolTableRecord
100
AcDbBlockTableRecord
  2
*Paper_Space
340
1E
 70
     0
280
     1
281
     0
  0
BLOCK_RECORD
  5
23
330
1
100
AcDbSymbolTableRecord
100
AcDbBlockTableRecord
  2
*Paper_Space0
340
26
 70
     0
280
     1
281
     0
  0
ENDTAB
  0
ENDSEC
  0
SECTION
  2
BLOCKS
  0
BLOCK
  5
20
330
1F
100
AcDbEntity
  8
0
100
AcDbBlockBegin
  2
*Model_Space
 70
     0
 10
0.0
 20
0.0
 30
0.0
  3
*Model_Space
  1

  0
ENDBLK
  5
21
330
1F
100
AcDbEntity
  8
0
100
AcDbBlockEnd
  0
BLOCK
  5
1C
330
1B
100
AcDbEntity
 67
     1
  8
0
100
AcDbBlockBegin
  2
*Paper_Space
 70
     0
 10
0.0
 20
0.0
 30
0.0
  3
*Paper_Space
  1

  0
ENDBLK
  5
1D
330
1B
100
AcDbEntity
 67
     1
  8
0
100
AcDbBlockEnd
  0
BLOCK
  5
24
330
23
100
AcDbEntity
  8
0
100
AcDbBlockBegin
  2
*Paper_Space0
 70
     0
 10
0.0
 20
0.0
 30
0.0
  3
*Paper_Space0
  1

  0
ENDBLK
  5
25
330
23
100
AcDbEntity
  8
0
100
AcDbBlockEnd
  0
ENDSEC
  0
SECTION
  2
ENTITIES
  0
LWPOLYLINE
  5
5F
330
1F
100
AcDbEntity
  8
Layer 1
 62
     7
100
AcDbPolyline
 90
        5
 70
     1
 43
0.0
 10
-11.5
 20
-15.85
 10
-9.5
 20
-15.85
 10
-9.5
 20
-13.85
 10
-11.5
 20
-13.85
 10
-11.5
 20
-15.85
  0
SPLINE
  5
60
330
1F
100
AcDbEntity
  8
Layer 1
 62
   250
370
   100
100
AcDbSpline
210
0.0
220
0.0
230
1.0
 70
    24
 71
     3
 72
     8
 73
     4
 74
     0
 42
0.0000000001
 43
0.0000000001
 40
0.0
 40
0.0
 40
0.0
 40
0.0
 40
1.0
 40
1.0
 40
1.0
 40
1.0
 10
-11.5
 20
-14.85
 30
0.0
 10
-11.5
 20
-14.85
 30
0.0
 10
-11.25
 20
-14.85
 30
0.0
 10
-11.25
 20
-14.85
 30
0.0
  0
SPLINE
  5
61
330
1F
100
AcDbEntity
  8
Layer 1
 62
   250
370
   100
100
AcDbSpline
210
0.0
220
0.0
230
1.0
 70
     8
 71
     3
 72
    32
 73
    28
 74
     0
 42
0.0000000001
 43
0.0000000001
 40
0.0
 40
0.0
 40
0.0
 40
0.0
 40
0.1428571428571428
 40
0.1428571428571428
 40
0.1428571428571428
 40
0.1428571428571428
 40
0.2857142857142857
 40
0.2857142857142857
 40
0.2857142857142857
 40
0.2857142857142857
 40
0.4285714285714285
 40
0.4285714285714285
 40
0.4285714285714285
 40
0.4285714285714285
 40
0.5714285714285714
 40
0.5714285714285714
 40
0.5714285714285714
 40
0.5714285714285714
 40
0.7142857142857142
 40
0.7142857142857142
 40
0.7142857142857142
 40
0.7142857142857142
 40
0.857142857142857
 40
0.857142857142857
 40
0.857142857142857
 40
0.857142857142857
 40
1.0
 40
1.0
 40
1.0
 40
1.0
 10
-11.25
 20
-14.85
 30
0.0
 10
-11.25
 20
-14.85
 30
0.0
 10
-11.125
 20
-15.1
 30
0.0
 10
-11.125
 20
-15.1
 30
0.0
 10
-11.125
 20
-15.1
 30
0.0
 10
-11.125
 20
-15.1
 30
0.0
 10
-10.875
 20
-14.6
 30
0.0
 10
-10.875
 20
-14.6
 30
0.0
 10
-10.875
 20
-14.6
 30
0.0
 10
-10.875
 20
-14.6
 30
0.0
 10
-10.625
 20
-15.1
 30
0.0
 10
-10.625
 20
-15.1
 30
0.0
 10
-10.625
 20
-15.1
 30
0.0
 10
-10.625
 20
-15.1
 30
0.0
 10
-10.375
 20
-14.6
 30
0.0
 10
-10.375
 20
-14.6
 30
0.0
 10
-10.375
 20
-14.6
 30
0.0
 10
-10.375
 20
-14.6
 30
0.0
 10
-10.12501
 20
-15.1
 30
0.0
 10
-10.12501
 20
-15.1
 30
0.0
 10
-10.12501
 20
-15.1
 30
0.0
 10
-10.12501
 20
-15.1
 30
0.0
 10
-9.87501
 20
-14.6
 30
0.0
 10
-9.87501
 20
-14.6
 30
0.0
 10
-9.87501
 20
-14.6
 30
0.0
 10
-9.87501
 20
-14.6
 30
0.0
 10
-9.75001
 20
-14.85
 30
0.0
 10
-9.75001
 20
-14.85
 30
0.0
  0
SPLINE
  5
62
330
1F
100
AcDbEntity
  8
Layer 1
 62
   250
370
   100
100
AcDbSpline
210
0.0
220
0.0
230
1.0
 70
    24
 71
     3
 72
     8
 73
     4
 74
     0
 42
0.0000000001
 43
0.0000000001
 40
0.0
 40
0.0
 40
0.0
 40
0.0
 40
1.0
 40
1.0
 40
1.0
 40
1.0
 10
-9.75001
 20
-14.85
 30
0.0
 10
-9.75001
 20
-14.85
 30
0.0
 10
-9.5
 20
-14.85
 30
0.0
 10
-9.5
 20
-14.85
 30
0.0
  0
SPLINE
  5
63
330
1F
100
AcDbEntity
  8
Layer 1
 62
   250
100
AcDbSpline
210
0.0
220
0.0
230
1.0
 70
    11
 71
     3
 72
   116
 73
   112
 74
     0
 42
0.0000000001
 43
0.0000000001
 40
0.0
 40
0.0
 40
0.0
 40
0.0
 40
0.0357142857142857
 40
0.0357142857142857
 40
0.0357142857142857
 40
0.0357142857142857
 40
0.0714285714285714
 40
0.0714285714285714
 40
0.0714285714285714
 40
0.0714285714285714
 40
0.1071428571428571
 40
0.1071428571428571
 40
0.1071428571428571
 40
0.1071428571428571
 40
0.1428571428571428
 40
0.1428571428571428
 40
0.1428571428571428
 40
0.1428571428571428
 40
0.1785714285714285
 40
0.1785714285714285
 40
0.1785714285714285
 40
0.1785714285714285
 40
0.2142857142857142
 40
0.2142857142857142
 40
0.2142857142857142
 40
0.2142857142857142
 40
0.2499999999999999
 40
0.2499999999999999
 40
0.2499999999999999
 40
0.2499999999999999
 40
0.2857142857142856
 40
0.2857142857142856
 40
0.2857142857142856
 40
0.2857142857142856
 40
0.3214285714285713
 40
0.3214285714285713
 40
0.3214285714285713
 40
0.3214285714285713
 40
0.357142857142857
 40
0.357142857142857
 40
0.357142857142857
 40
0.357142857142857
 40
0.3928571428571427
 40
0.3928571428571427
 40
0.3928571428571427
 40
0.3928571428571427
 40
0.4285714285714284
 40
0.4285714285714284
 40
0.4285714285714284
 40
0.4285714285714284
 40
0.4642857142857141
 40
0.4642857142857141
 40
0.4642857142857141
 40
0.4642857142857141
 40
0.4999999999999998
 40
0.4999999999999998
 40
0.4999999999999998
 40
0.4999999999999998
 40
0.5357142857142856
 40
0.5357142857142856
 40
0.5357142857142856
 40
0.5357142857142856
 40
0.5714285714285713
 40
0.5714285714285713
 40
0.5714285714285713
 40
0.5714285714285713
 40
0.607142857142857
 40
0.607142857142857
 40
0.607142857142857
 40
0.607142857142857
 40
0.6428571428571427
 40
0.6428571428571427
 40
0.6428571428571427
 40
0.6428571428571427
 40
0.6785714285714284
 40
0.6785714285714284
 40
0.6785714285714284
 40
0.6785714285714284
 40
0.7142857142857141
 40
0.7142857142857141
 40
0.7142857142857141
 40
0.7142857142857141
 40
0.7499999999999998
 40
0.7499999999999998
 40
0.7499999999999998
 40
0.7499999999999998
 40
0.7857142857142855
 40
0.7857142857142855
 40
0.7857142857142855
 40
0.7857142857142855
 40
0.8214285714285712
 40
0.8214285714285712
 40
0.8214285714285712
 40
0.8214285714285712
 40
0.8571428571428569
 40
0.8571428571428569
 40
0.8571428571428569
 40
0.8571428571428569
 40
0.8928571428571426
 40
0.8928571428571426
 40
0.8928571428571426
 40
0.8928571428571426
 40
0.9285714285714283
 40
0.9285714285714283
 40
0.9285714285714283
 40
0.9285714285714283
 40
0.964285714285714
 40
0.964285714285714
 40
0.964285714285714
 40
0.964285714285714
 40
1.0
 40
1.0
 40
1.0
 40
1.0
 10
-10.9212
 20
-13.89359
 30
0.0
 10
-10.9212
 20
-13.89359
 30
0.0
 10
-10.9212
 20
-13.91807
 30
0.0
 10
-10.9212
 20
-13.91807
 30
0.0
 10
-10.9212
 20
-13.91807
 30
0.0
 10
-10.92755
 20
-13.91524
 30
0.0
 10
-10.93377
 20
-13.91309
 30
0.0
 10
-10.9398
 20
-13.91164
 30
0.0
 10
-10.9398
 20
-13.91164
 30
0.0
 10
-10.94586
 20
-13.91018
 30
0.0
 10
-10.95158
 20
-13.90947
 30
0.0
 10
-10.95695
 20
-13.90947
 30
0.0
 10
-10.95695
 20
-13.90947
 30
0.0
 10
-10.96406
 20
-13.90947
 30
0.0
 10
-10.96936
 20
-13.91045
 30
0.0
 10
-10.97277
 20
-13.9124
 30
0.0
 10
-10.97277
 20
-13.9124
 30
0.0
 10
-10.97618
 20
-13.91439
 30
0.0
 10
-10.97788
 20
-13.91743
 30
0.0
 10
-10.97788
 20
-13.92156
 30
0.0
 10
-10.97788
 20
-13.92156
 30
0.0
 10
-10.97788
 20
-13.92465
 30
0.0
 10
-10.97674
 20
-13.92709
 30
0.0
 10
-10.97444
 20
-13.92881
 30
0.0
 10
-10.97444
 20
-13.92881
 30
0.0
 10
-10.97213
 20
-13.93053
 30
0.0
 10
-10.96795
 20
-13.93204
 30
0.0
 10
-10.9619
 20
-13.93328
 30
0.0
 10
-10.9619
 20
-13.93328
 30
0.0
 10
-10.9619
 20
-13.93328
 30
0.0
 10
-10.9492
 20
-13.93582
 30
0.0
 10
-10.9492
 20
-13.93582
 30
0.0
 10
-10.9492
 20
-13.93582
 30
0.0
 10
-10.93631
 20
-13.93841
 30
0.0
 10
-10.92718
 20
-13.94233
 30
0.0
 10
-10.92176
 20
-13.94762
 30
0.0
 10
-10.92176
 20
-13.94762
 30
0.0
 10
-10.91633
 20
-13.95289
 30
0.0
 10
-10.91361
 20
-13.96037
 30
0.0
 10
-10.91361
 20
-13.97008
 30
0.0
 10
-10.91361
 20
-13.97008
 30
0.0
 10
-10.91361
 20
-13.98286
 30
0.0
 10
-10.91739
 20
-13.99236
 30
0.0
 10
-10.92496
 20
-13.99858
 30
0.0
 10
-10.92496
 20
-13.99858
 30
0.0
 10
-10.93253
 20
-14.0048
 30
0.0
 10
-10.94409
 20
-14.00792
 30
0.0
 10
-10.95965
 20
-14.00792
 30
0.0
 10
-10.95965
 20
-14.00792
 30
0.0
 10
-10.967
 20
-14.00792
 30
0.0
 10
-10.97436
 20
-14.00723
 30
0.0
 10
-10.98174
 20
-14.00583
 30
0.0
 10
-10.98174
 20
-14.00583
 30
0.0
 10
-10.98912
 20
-14.00443
 30
0.0
 10
-10.99653
 20
-14.00236
 30
0.0
 10
-11.00391
 20
-13.99964
 30
0.0
 10
-11.00391
 20
-13.99964
 30
0.0
 10
-11.00391
 20
-13.99964
 30
0.0
 10
-11.00391
 20
-13.97445
 30
0.0
 10
-11.00391
 20
-13.97445
 30
0.0
 10
-11.00391
 20
-13.97445
 30
0.0
 10
-10.99653
 20
-13.97836
 30
0.0
 10
-10.98939
 20
-13.98133
 30
0.0
 10
-10.98248
 20
-13.98331
 30
0.0
 10
-10.98248
 20
-13.98331
 30
0.0
 10
-10.97557
 20
-13.9853
 30
0.0
 10
-10.96893
 20
-13.9863
 30
0.0
 10
-10.96253
 20
-13.9863
 30
0.0
 10
-10.96253
 20
-13.9863
 30
0.0
 10
-10.95602
 20
-13.9863
 30
0.0
 10
-10.95102
 20
-13.98522
 30
0.0
 10
-10.94755
 20
-13.98305
 30
0.0
 10
-10.94755
 20
-13.98305
 30
0.0
 10
-10.94409
 20
-13.98088
 30
0.0
 10
-10.94237
 20
-13.97778
 30
0.0
 10
-10.94237
 20
-13.97373
 30
0.0
 10
-10.94237
 20
-13.97373
 30
0.0
 10
-10.94237
 20
-13.97014
 30
0.0
 10
-10.94353
 20
-13.96733
 30
0.0
 10
-10.94589
 20
-13.96537
 30
0.0
 10
-10.94589
 20
-13.96537
 30
0.0
 10
-10.94824
 20
-13.96342
 30
0.0
 10
-10.95293
 20
-13.96164
 30
0.0
 10
-10.95996
 20
-13.96011
 30
0.0
 10
-10.95996
 20
-13.96011
 30
0.0
 10
-10.95996
 20
-13.96011
 30
0.0
 10
-10.97153
 20
-13.95754
 30
0.0
 10
-10.97153
 20
-13.95754
 30
0.0
 10
-10.97153
 20
-13.95754
 30
0.0
 10
-10.98309
 20
-13.95506
 30
0.0
 10
-10.99155
 20
-13.95111
 30
0.0
 10
-10.9969
 20
-13.94569
 30
0.0
 10
-10.9969
 20
-13.94569
 30
0.0
 10
-11.00224
 20
-13.94026
 30
0.0
 10
-11.00492
 20
-13.93294
 30
0.0
 10
-11.00492
 20
-13.92375
 30
0.0
 10
-11.00492
 20
-13.92375
 30
0.0
 10
-11.00492
 20
-13.91222
 30
0.0
 10
-11.00119
 20
-13.90336
 30
0.0
 10
-10.99375
 20
-13.89716
 30
0.0
 10
-10.99375
 20
-13.89716
 30
0.0
 10
-10.98632
 20
-13.89095
 30
0.0
 10
-10.97563
 20
-13.88785
 30
0.0
 10
-10.96166
 20
-13.88785
 30
0.0
 10
-10.96166
 20
-13.88785
 30
0.0
 10
-10.95531
 20
-13.88785
 30
0.0
 10
-10.94877
 20
-13.88833
 30
0.0
 10
-10.94205
 20
-13.88928
 30
0.0
 10
-10.94205
 20
-13.88928
 30
0.0
 10
-10.93533
 20
-13.89023
 30
0.0
 10
-10.92837
 20
-13.89166
 30
0.0
 10
-10.9212
 20
-13.89359
 30
0.0
  0
SPLINE
  5
64
330
1F
100
AcDbEntity
  8
Layer 1
 62
   250
100
AcDbSpline
210
0.0
220
0.0
230
1.0
 70
    11
 71
     3
 72
    56
 73
    52
 74
     0
 42
0.0000000001
 43
0.0000000001
 40
0.0
 40
0.0
 40
0.0
 40
0.0
 40
0.0769230769230769
 40
0.0769230769230769
 40
0.0769230769230769
 40
0.0769230769230769
 40
0.1538461538461539
 40
0.1538461538461539
 40
0.1538461538461539
 40
0.1538461538461539
 40
0.2307692307692308
 40
0.2307692307692308
 40
0.2307692307692308
 40
0.2307692307692308
 40
0.3076923076923077
 40
0.3076923076923077
 40
0.3076923076923077
 40
0.3076923076923077
 40
0.3846153846153846
 40
0.3846153846153846
 40
0.3846153846153846
 40
0.3846153846153846
 40
0.4615384615384616
 40
0.4615384615384616
 40
0.4615384615384616
 40
0.4615384615384616
 40
0.5384615384615385
 40
0.5384615384615385
 40
0.5384615384615385
 40
0.5384615384615385
 40
0.6153846153846154
 40
0.6153846153846154
 40
0.6153846153846154
 40
0.6153846153846154
 40
0.6923076923076923
 40
0.6923076923076923
 40
0.6923076923076923
 40
0.6923076923076923
 40
0.7692307692307692
 40
0.7692307692307692
 40
0.7692307692307692
 40
0.7692307692307692
 40
0.846153846153846
 40
0.846153846153846
 40
0.846153846153846
 40
0.846153846153846
 40
0.9230769230769229
 40
0.9230769230769229
 40
0.9230769230769229
 40
0.9230769230769229
 40
1.0
 40
1.0
 40
1.0
 40
1.0
 10
-10.88741
 20
-13.88994
 30
0.0
 10
-10.88741
 20
-13.88994
 30
0.0
 10
-10.84944
 20
-13.88994
 30
0.0
 10
-10.84944
 20
-13.88994
 30
0.0
 10
-10.84944
 20
-13.88994
 30
0.0
 10
-10.84944
 20
-13.88994
 30
0.0
 10
-10.82306
 20
-13.95188
 30
0.0
 10
-10.82306
 20
-13.95188
 30
0.0
 10
-10.82306
 20
-13.95188
 30
0.0
 10
-10.82306
 20
-13.95188
 30
0.0
 10
-10.79655
 20
-13.88994
 30
0.0
 10
-10.79655
 20
-13.88994
 30
0.0
 10
-10.79655
 20
-13.88994
 30
0.0
 10
-10.79655
 20
-13.88994
 30
0.0
 10
-10.75867
 20
-13.88994
 30
0.0
 10
-10.75867
 20
-13.88994
 30
0.0
 10
-10.75867
 20
-13.88994
 30
0.0
 10
-10.75867
 20
-13.88994
 30
0.0
 10
-10.75867
 20
-14.00567
 30
0.0
 10
-10.75867
 20
-14.00567
 30
0.0
 10
-10.75867
 20
-14.00567
 30
0.0
 10
-10.75867
 20
-14.00567
 30
0.0
 10
-10.78687
 20
-14.00567
 30
0.0
 10
-10.78687
 20
-14.00567
 30
0.0
 10
-10.78687
 20
-14.00567
 30
0.0
 10
-10.78687
 20
-14.00567
 30
0.0
 10
-10.78687
 20
-13.92103
 30
0.0
 10
-10.78687
 20
-13.92103
 30
0.0
 10
-10.78687
 20
-13.92103
 30
0.0
 10
-10.78687
 20
-13.92103
 30
0.0
 10
-10.81354
 20
-13.98342
 30
0.0
 10
-10.81354
 20
-13.98342
 30
0.0
 10
-10.81354
 20
-13.98342
 30
0.0
 10
-10.81354
 20
-13.98342
 30
0.0
 10
-10.83246
 20
-13.98342
 30
0.0
 10
-10.83246
 20
-13.98342
 30
0.0
 10
-10.83246
 20
-13.98342
 30
0.0
 10
-10.83246
 20
-13.98342
 30
0.0
 10
-10.85913
 20
-13.92103
 30
0.0
 10
-10.85913
 20
-13.92103
 30
0.0
 10
-10.85913
 20
-13.92103
 30
0.0
 10
-10.85913
 20
-13.92103
 30
0.0
 10
-10.85913
 20
-14.00567
 30
0.0
 10
-10.85913
 20
-14.00567
 30
0.0
 10
-10.85913
 20
-14.00567
 30
0.0
 10
-10.85913
 20
-14.00567
 30
0.0
 10
-10.88741
 20
-14.00567
 30
0.0
 10
-10.88741
 20
-14.00567
 30
0.0
 10
-10.88741
 20
-14.00567
 30
0.0
 10
-10.88741
 20
-14.00567
 30
0.0
 10
-10.88741
 20
-13.88994
 30
0.0
 10
-10.88741
 20
-13.88994
 30
0.0
  0
SPLINE
  5
65
330
1F
100
AcDbEntity
  8
Layer 1
 62
   250
100
AcDbSpline
210
0.0
220
0.0
230
1.0
 70
    11
 71
     3
 72
    32
 73
    28
 74
     0
 42
0.0000000001
 43
0.0000000001
 40
0.0
 40
0.0
 40
0.0
 40
0.0
 40
0.1428571428571428
 40
0.1428571428571428
 40
0.1428571428571428
 40
0.1428571428571428
 40
0.2857142857142857
 40
0.2857142857142857
 40
0.2857142857142857
 40
0.2857142857142857
 40
0.4285714285714285
 40
0.4285714285714285
 40
0.4285714285714285
 40
0.4285714285714285
 40
0.5714285714285714
 40
0.5714285714285714
 40
0.5714285714285714
 40
0.5714285714285714
 40
0.7142857142857142
 40
0.7142857142857142
 40
0.7142857142857142
 40
0.7142857142857142
 40
0.857142857142857
 40
0.857142857142857
 40
0.857142857142857
 40
0.857142857142857
 40
1.0
 40
1.0
 40
1.0
 40
1.0
 10
-10.69959
 20
-13.91251
 30
0.0
 10
-10.69959
 20
-13.91251
 30
0.0
 10
-10.69959
 20
-13.9831
 30
0.0
 10
-10.69959
 20
-13.9831
 30
0.0
 10
-10.69959
 20
-13.9831
 30
0.0
 10
-10.69959
 20
-13.9831
 30
0.0
 10
-10.6889
 20
-13.9831
 30
0.0
 10
-10.6889
 20
-13.9831
 30
0.0
 10
-10.6889
 20
-13.9831
 30
0.0
 10
-10.6767
 20
-13.9831
 30
0.0
 10
-10.66739
 20
-13.98008
 30
0.0
 10
-10.66096
 20
-13.97403
 30
0.0
 10
-10.66096
 20
-13.97403
 30
0.0
 10
-10.65453
 20
-13.96799
 30
0.0
 10
-10.6513
 20
-13.95921
 30
0.0
 10
-10.6513
 20
-13.9477
 30
0.0
 10
-10.6513
 20
-13.9477
 30
0.0
 10
-10.6513
 20
-13.93622
 30
0.0
 10
-10.6545
 20
-13.92749
 30
0.0
 10
-10.6609
 20
-13.92151
 30
0.0
 10
-10.6609
 20
-13.92151
 30
0.0
 10
-10.66731
 20
-13.9155
 30
0.0
 10
-10.67665
 20
-13.91251
 30
0.0
 10
-10.6889
 20
-13.91251
 30
0.0
 10
-10.6889
 20
-13.91251
 30
0.0
 10
-10.6889
 20
-13.91251
 30
0.0
 10
-10.69959
 20
-13.91251
 30
0.0
 10
-10.69959
 20
-13.91251
 30
0.0
  0
SPLINE
  5
66
330
1F
100
AcDbEntity
  8
Layer 1
 62
   250
100
AcDbSpline
210
0.0
220
0.0
230
1.0
 70
    11
 71
     3
 72
    48
 73
    44
 74
     0
 42
0.0000000001
 43
0.0000000001
 40
0.0
 40
0.0
 40
0.0
 40
0.0
 40
0.0909090909090909
 40
0.0909090909090909
 40
0.0909090909090909
 40
0.0909090909090909
 40
0.1818181818181818
 40
0.1818181818181818
 40
0.1818181818181818
 40
0.1818181818181818
 40
0.2727272727272727
 40
0.2727272727272727
 40
0.2727272727272727
 40
0.2727272727272727
 40
0.3636363636363636
 40
0.3636363636363636
 40
0.3636363636363636
 40
0.3636363636363636
 40
0.4545454545454546
 40
0.4545454545454546
 40
0.4545454545454546
 40
0.4545454545454546
 40
0.5454545454545455
 40
0.5454545454545455
 40
0.5454545454545455
 40
0.5454545454545455
 40
0.6363636363636365
 40
0.6363636363636365
 40
0.6363636363636365
 40
0.6363636363636365
 40
0.7272727272727274
 40
0.7272727272727274
 40
0.7272727272727274
 40
0.7272727272727274
 40
0.8181818181818183
 40
0.8181818181818183
 40
0.8181818181818183
 40
0.8181818181818183
 40
0.9090909090909093
 40
0.9090909090909093
 40
0.9090909090909093
 40
0.9090909090909093
 40
1.0
 40
1.0
 40
1.0
 40
1.0
 10
-10.72943
 20
-13.88994
 30
0.0
 10
-10.72943
 20
-13.88994
 30
0.0
 10
-10.69795
 20
-13.88994
 30
0.0
 10
-10.69795
 20
-13.88994
 30
0.0
 10
-10.69795
 20
-13.88994
 30
0.0
 10
-10.68038
 20
-13.88994
 30
0.0
 10
-10.66731
 20
-13.89118
 30
0.0
 10
-10.65871
 20
-13.8937
 30
0.0
 10
-10.65871
 20
-13.8937
 30
0.0
 10
-10.65011
 20
-13.89621
 30
0.0
 10
-10.64273
 20
-13.90045
 30
0.0
 10
-10.63656
 20
-13.90645
 30
0.0
 10
-10.63656
 20
-13.90645
 30
0.0
 10
-10.63114
 20
-13.91166
 30
0.0
 10
-10.62712
 20
-13.9177
 30
0.0
 10
-10.62447
 20
-13.92452
 30
0.0
 10
-10.62447
 20
-13.92452
 30
0.0
 10
-10.62185
 20
-13.93132
 30
0.0
 10
-10.62053
 20
-13.93905
 30
0.0
 10
-10.62053
 20
-13.9477
 30
0.0
 10
-10.62053
 20
-13.9477
 30
0.0
 10
-10.62053
 20
-13.95643
 30
0.0
 10
-10.62185
 20
-13.96421
 30
0.0
 10
-10.62447
 20
-13.97106
 30
0.0
 10
-10.62447
 20
-13.97106
 30
0.0
 10
-10.62712
 20
-13.97792
 30
0.0
 10
-10.63114
 20
-13.98395
 30
0.0
 10
-10.63656
 20
-13.98916
 30
0.0
 10
-10.63656
 20
-13.98916
 30
0.0
 10
-10.64278
 20
-13.99517
 30
0.0
 10
-10.65022
 20
-13.9994
 30
0.0
 10
-10.65889
 20
-14.00191
 30
0.0
 10
-10.65889
 20
-14.00191
 30
0.0
 10
-10.66757
 20
-14.00443
 30
0.0
 10
-10.68059
 20
-14.00567
 30
0.0
 10
-10.69795
 20
-14.00567
 30
0.0
 10
-10.69795
 20
-14.00567
 30
0.0
 10
-10.69795
 20
-14.00567
 30
0.0
 10
-10.72943
 20
-14.00567
 30
0.0
 10
-10.72943
 20
-14.00567
 30
0.0
 10
-10.72943
 20
-14.00567
 30
0.0
 10
-10.72943
 20
-14.00567
 30
0.0
 10
-10.72943
 20
-13.88994
 30
0.0
 10
-10.72943
 20
-13.88994
 30
0.0
  0
SPLINE
  5
67
330
1F
100
AcDbEntity
  8
Layer 1
 62
   250
100
AcDbSpline
210
0.0
220
0.0
230
1.0
 70
    11
 71
     3
 72
    44
 73
    40
 74
     0
 42
0.0000000001
 43
0.0000000001
 40
0.0
 40
0.0
 40
0.0
 40
0.0
 40
0.1
 40
0.1
 40
0.1
 40
0.1
 40
0.2
 40
0.2
 40
0.2
 40
0.2
 40
0.3
 40
0.3
 40
0.3
 40
0.3
 40
0.4
 40
0.4
 40
0.4
 40
0.4
 40
0.5
 40
0.5
 40
0.5
 40
0.5
 40
0.6
 40
0.6
 40
0.6
 40
0.6
 40
0.7
 40
0.7
 40
0.7
 40
0.7
 40
0.7999999999999999
 40
0.7999999999999999
 40
0.7999999999999999
 40
0.7999999999999999
 40
0.8999999999999999
 40
0.8999999999999999
 40
0.8999999999999999
 40
0.8999999999999999
 40
1.0
 40
1.0
 40
1.0
 40
1.0
 10
-10.49713
 20
-14.0266
 30
0.0
 10
-10.49713
 20
-14.0266
 30
0.0
 10
-10.52015
 20
-14.0266
 30
0.0
 10
-10.52015
 20
-14.0266
 30
0.0
 10
-10.52015
 20
-14.0266
 30
0.0
 10
-10.52806
 20
-14.01385
 30
0.0
 10
-10.53391
 20
-14.0017
 30
0.0
 10
-10.53767
 20
-13.99019
 30
0.0
 10
-10.53767
 20
-13.99019
 30
0.0
 10
-10.54145
 20
-13.97871
 30
0.0
 10
-10.54333
 20
-13.96731
 30
0.0
 10
-10.54333
 20
-13.95598
 30
0.0
 10
-10.54333
 20
-13.95598
 30
0.0
 10
-10.54333
 20
-13.94466
 30
0.0
 10
-10.54142
 20
-13.9332
 30
0.0
 10
-10.53764
 20
-13.92161
 30
0.0
 10
-10.53764
 20
-13.92161
 30
0.0
 10
-10.53383
 20
-13.91
 30
0.0
 10
-10.52801
 20
-13.89788
 30
0.0
 10
-10.52015
 20
-13.88521
 30
0.0
 10
-10.52015
 20
-13.88521
 30
0.0
 10
-10.52015
 20
-13.88521
 30
0.0
 10
-10.49713
 20
-13.88521
 30
0.0
 10
-10.49713
 20
-13.88521
 30
0.0
 10
-10.49713
 20
-13.88521
 30
0.0
 10
-10.50375
 20
-13.89746
 30
0.0
 10
-10.50869
 20
-13.90944
 30
0.0
 10
-10.512
 20
-13.92114
 30
0.0
 10
-10.512
 20
-13.92114
 30
0.0
 10
-10.51531
 20
-13.93283
 30
0.0
 10
-10.51697
 20
-13.94439
 30
0.0
 10
-10.51697
 20
-13.95582
 30
0.0
 10
-10.51697
 20
-13.95582
 30
0.0
 10
-10.51697
 20
-13.96725
 30
0.0
 10
-10.51533
 20
-13.97881
 30
0.0
 10
-10.51205
 20
-13.99056
 30
0.0
 10
-10.51205
 20
-13.99056
 30
0.0
 10
-10.50877
 20
-14.00228
 30
0.0
 10
-10.5038
 20
-14.0143
 30
0.0
 10
-10.49713
 20
-14.0266
 30
0.0
  0
SPLINE
  5
68
330
1F
100
AcDbEntity
  8
Layer 1
 62
   250
100
AcDbSpline
210
0.0
220
0.0
230
1.0
 70
    11
 71
     3
 72
    36
 73
    32
 74
     0
 42
0.0000000001
 43
0.0000000001
 40
0.0
 40
0.0
 40
0.0
 40
0.0
 40
0.125
 40
0.125
 40
0.125
 40
0.125
 40
0.25
 40
0.25
 40
0.25
 40
0.25
 40
0.375
 40
0.375
 40
0.375
 40
0.375
 40
0.5
 40
0.5
 40
0.5
 40
0.5
 40
0.625
 40
0.625
 40
0.625
 40
0.625
 40
0.75
 40
0.75
 40
0.75
 40
0.75
 40
0.875
 40
0.875
 40
0.875
 40
0.875
 40
1.0
 40
1.0
 40
1.0
 40
1.0
 10
-10.4114
 20
-13.9477
 30
0.0
 10
-10.4114
 20
-13.93323
 30
0.0
 10
-10.41275
 20
-13.92304
 30
0.0
 10
-10.41548
 20
-13.91711
 30
0.0
 10
-10.41548
 20
-13.91711
 30
0.0
 10
-10.41818
 20
-13.91121
 30
0.0
 10
-10.42276
 20
-13.90825
 30
0.0
 10
-10.42916
 20
-13.90825
 30
0.0
 10
-10.42916
 20
-13.90825
 30
0.0
 10
-10.43556
 20
-13.90825
 30
0.0
 10
-10.44014
 20
-13.91121
 30
0.0
 10
-10.44289
 20
-13.91711
 30
0.0
 10
-10.44289
 20
-13.91711
 30
0.0
 10
-10.44562
 20
-13.92304
 30
0.0
 10
-10.44699
 20
-13.93323
 30
0.0
 10
-10.44699
 20
-13.9477
 30
0.0
 10
-10.44699
 20
-13.9477
 30
0.0
 10
-10.44699
 20
-13.9623
 30
0.0
 10
-10.44562
 20
-13.97262
 30
0.0
 10
-10.44289
 20
-13.9786
 30
0.0
 10
-10.44289
 20
-13.9786
 30
0.0
 10
-10.44014
 20
-13.98461
 30
0.0
 10
-10.43556
 20
-13.9876
 30
0.0
 10
-10.42916
 20
-13.9876
 30
0.0
 10
-10.42916
 20
-13.9876
 30
0.0
 10
-10.42281
 20
-13.9876
 30
0.0
 10
-10.41826
 20
-13.98461
 30
0.0
 10
-10.41551
 20
-13.9786
 30
0.0
 10
-10.41551
 20
-13.9786
 30
0.0
 10
-10.41278
 20
-13.97262
 30
0.0
 10
-10.4114
 20
-13.9623
 30
0.0
 10
-10.4114
 20
-13.9477
 30
0.0
  0
SPLINE
  5
69
330
1F
100
AcDbEntity
  8
Layer 1
 62
   250
100
AcDbSpline
210
0.0
220
0.0
230
1.0
 70
    11
 71
     3
 72
    36
 73
    32
 74
     0
 42
0.0000000001
 43
0.0000000001
 40
0.0
 40
0.0
 40
0.0
 40
0.0
 40
0.125
 40
0.125
 40
0.125
 40
0.125
 40
0.25
 40
0.25
 40
0.25
 40
0.25
 40
0.375
 40
0.375
 40
0.375
 40
0.375
 40
0.5
 40
0.5
 40
0.5
 40
0.5
 40
0.625
 40
0.625
 40
0.625
 40
0.625
 40
0.75
 40
0.75
 40
0.75
 40
0.75
 40
0.875
 40
0.875
 40
0.875
 40
0.875
 40
1.0
 40
1.0
 40
1.0
 40
1.0
 10
-10.38156
 20
-13.94791
 30
0.0
 10
-10.38156
 20
-13.96709
 30
0.0
 10
-10.38569
 20
-13.98188
 30
0.0
 10
-10.39397
 20
-13.99231
 30
0.0
 10
-10.39397
 20
-13.99231
 30
0.0
 10
-10.40222
 20
-14.00271
 30
0.0
 10
-10.41397
 20
-14.00792
 30
0.0
 10
-10.42916
 20
-14.00792
 30
0.0
 10
-10.42916
 20
-14.00792
 30
0.0
 10
-10.4444
 20
-14.00792
 30
0.0
 10
-10.45617
 20
-14.00271
 30
0.0
 10
-10.46443
 20
-13.99231
 30
0.0
 10
-10.46443
 20
-13.99231
 30
0.0
 10
-10.47271
 20
-13.98188
 30
0.0
 10
-10.47684
 20
-13.96709
 30
0.0
 10
-10.47684
 20
-13.94791
 30
0.0
 10
-10.47684
 20
-13.94791
 30
0.0
 10
-10.47684
 20
-13.9287
 30
0.0
 10
-10.47271
 20
-13.91389
 30
0.0
 10
-10.46443
 20
-13.90346
 30
0.0
 10
-10.46443
 20
-13.90346
 30
0.0
 10
-10.45617
 20
-13.89306
 30
0.0
 10
-10.4444
 20
-13.88785
 30
0.0
 10
-10.42916
 20
-13.88785
 30
0.0
 10
-10.42916
 20
-13.88785
 30
0.0
 10
-10.41397
 20
-13.88785
 30
0.0
 10
-10.40222
 20
-13.89306
 30
0.0
 10
-10.39397
 20
-13.90346
 30
0.0
 10
-10.39397
 20
-13.90346
 30
0.0
 10
-10.38569
 20
-13.91389
 30
0.0
 10
-10.38156
 20
-13.9287
 30
0.0
 10
-10.38156
 20
-13.94791
 30
0.0
  0
SPLINE
  5
6A
330
1F
100
AcDbEntity
  8
Layer 1
 62
   250
100
AcDbSpline
210
0.0
220
0.0
230
1.0
 70
    11
 71
     3
 72
    36
 73
    32
 74
     0
 42
0.0000000001
 43
0.0000000001
 40
0.0
 40
0.0
 40
0.0
 40
0.0
 40
0.125
 40
0.125
 40
0.125
 40
0.125
 40
0.25
 40
0.25
 40
0.25
 40
0.25
 40
0.375
 40
0.375
 40
0.375
 40
0.375
 40
0.5
 40
0.5
 40
0.5
 40
0.5
 40
0.625
 40
0.625
 40
0.625
 40
0.625
 40
0.75
 40
0.75
 40
0.75
 40
0.75
 40
0.875
 40
0.875
 40
0.875
 40
0.875
 40
1.0
 40
1.0
 40
1.0
 40
1.0
 10
-10.31653
 20
-13.94855
 30
0.0
 10
-10.32177
 20
-13.94855
 30
0.0
 10
-10.32568
 20
-13.95024
 30
0.0
 10
-10.32828
 20
-13.95363
 30
0.0
 10
-10.32828
 20
-13.95363
 30
0.0
 10
-10.3309
 20
-13.95701
 30
0.0
 10
-10.33219
 20
-13.96209
 30
0.0
 10
-10.33219
 20
-13.96884
 30
0.0
 10
-10.33219
 20
-13.96884
 30
0.0
 10
-10.33219
 20
-13.97561
 30
0.0
 10
-10.3309
 20
-13.98069
 30
0.0
 10
-10.32828
 20
-13.98408
 30
0.0
 10
-10.32828
 20
-13.98408
 30
0.0
 10
-10.32568
 20
-13.98747
 30
0.0
 10
-10.32177
 20
-13.98916
 30
0.0
 10
-10.31653
 20
-13.98916
 30
0.0
 10
-10.31653
 20
-13.98916
 30
0.0
 10
-10.31126
 20
-13.98916
 30
0.0
 10
-10.30732
 20
-13.98747
 30
0.0
 10
-10.30473
 20
-13.98408
 30
0.0
 10
-10.30473
 20
-13.98408
 30
0.0
 10
-10.30211
 20
-13.98069
 30
0.0
 10
-10.30081
 20
-13.97561
 30
0.0
 10
-10.30081
 20
-13.96884
 30
0.0
 10
-10.30081
 20
-13.96884
 30
0.0
 10
-10.30081
 20
-13.96209
 30
0.0
 10
-10.30211
 20
-13.95701
 30
0.0
 10
-10.30473
 20
-13.95363
 30
0.0
 10
-10.30473
 20
-13.95363
 30
0.0
 10
-10.30732
 20
-13.95024
 30
0.0
 10
-10.31126
 20
-13.94855
 30
0.0
 10
-10.31653
 20
-13.94855
 30
0.0
  0
SPLINE
  5
6B
330
1F
100
AcDbEntity
  8
Layer 1
 62
   250
100
AcDbSpline
210
0.0
220
0.0
230
1.0
 70
    11
 71
     3
 72
    72
 73
    68
 74
     0
 42
0.0000000001
 43
0.0000000001
 40
0.0
 40
0.0
 40
0.0
 40
0.0
 40
0.0588235294117647
 40
0.0588235294117647
 40
0.0588235294117647
 40
0.0588235294117647
 40
0.1176470588235294
 40
0.1176470588235294
 40
0.1176470588235294
 40
0.1176470588235294
 40
0.1764705882352941
 40
0.1764705882352941
 40
0.1764705882352941
 40
0.1764705882352941
 40
0.2352941176470588
 40
0.2352941176470588
 40
0.2352941176470588
 40
0.2352941176470588
 40
0.2941176470588235
 40
0.2941176470588235
 40
0.2941176470588235
 40
0.2941176470588235
 40
0.3529411764705883
 40
0.3529411764705883
 40
0.3529411764705883
 40
0.3529411764705883
 40
0.411764705882353
 40
0.411764705882353
 40
0.411764705882353
 40
0.411764705882353
 40
0.4705882352941177
 40
0.4705882352941177
 40
0.4705882352941177
 40
0.4705882352941177
 40
0.5294117647058824
 40
0.5294117647058824
 40
0.5294117647058824
 40
0.5294117647058824
 40
0.5882352941176471
 40
0.5882352941176471
 40
0.5882352941176471
 40
0.5882352941176471
 40
0.6470588235294118
 40
0.6470588235294118
 40
0.6470588235294118
 40
0.6470588235294118
 40
0.7058823529411765
 40
0.7058823529411765
 40
0.7058823529411765
 40
0.7058823529411765
 40
0.7647058823529412
 40
0.7647058823529412
 40
0.7647058823529412
 40
0.7647058823529412
 40
0.823529411764706
 40
0.823529411764706
 40
0.823529411764706
 40
0.823529411764706
 40
0.8823529411764707
 40
0.8823529411764707
 40
0.8823529411764707
 40
0.8823529411764707
 40
0.9411764705882354
 40
0.9411764705882354
 40
0.9411764705882354
 40
0.9411764705882354
 40
1.0
 40
1.0
 40
1.0
 40
1.0
 10
-10.27965
 20
-13.89296
 30
0.0
 10
-10.27965
 20
-13.89296
 30
0.0
 10
-10.27965
 20
-13.91436
 30
0.0
 10
-10.27965
 20
-13.91436
 30
0.0
 10
-10.27965
 20
-13.91436
 30
0.0
 10
-10.28457
 20
-13.91203
 30
0.0
 10
-10.28917
 20
-13.91031
 30
0.0
 10
-10.29351
 20
-13.9092
 30
0.0
 10
-10.29351
 20
-13.9092
 30
0.0
 10
-10.29785
 20
-13.90809
 30
0.0
 10
-10.30211
 20
-13.90754
 30
0.0
 10
-10.30624
 20
-13.90754
 30
0.0
 10
-10.30624
 20
-13.90754
 30
0.0
 10
-10.31513
 20
-13.90754
 30
0.0
 10
-10.32203
 20
-13.91
 30
0.0
 10
-10.32701
 20
-13.91494
 30
0.0
 10
-10.32701
 20
-13.91494
 30
0.0
 10
-10.33195
 20
-13.91987
 30
0.0
 10
-10.33486
 20
-13.92719
 30
0.0
 10
-10.33568
 20
-13.9369
 30
0.0
 10
-10.33568
 20
-13.9369
 30
0.0
 10
-10.33227
 20
-13.93439
 30
0.0
 10
-10.32857
 20
-13.93249
 30
0.0
 10
-10.3246
 20
-13.93122
 30
0.0
 10
-10.3246
 20
-13.93122
 30
0.0
 10
-10.32063
 20
-13.92995
 30
0.0
 10
-10.31629
 20
-13.92931
 30
0.0
 10
-10.31158
 20
-13.92931
 30
0.0
 10
-10.31158
 20
-13.92931
 30
0.0
 10
-10.29975
 20
-13.92931
 30
0.0
 10
-10.2902
 20
-13.93278
 30
0.0
 10
-10.28295
 20
-13.93971
 30
0.0
 10
-10.28295
 20
-13.93971
 30
0.0
 10
-10.27568
 20
-13.94661
 30
0.0
 10
-10.27205
 20
-13.95569
 30
0.0
 10
-10.27205
 20
-13.96691
 30
0.0
 10
-10.27205
 20
-13.96691
 30
0.0
 10
-10.27205
 20
-13.97932
 30
0.0
 10
-10.2761
 20
-13.98924
 30
0.0
 10
-10.28422
 20
-13.99673
 30
0.0
 10
-10.28422
 20
-13.99673
 30
0.0
 10
-10.29232
 20
-14.00419
 30
0.0
 10
-10.30322
 20
-14.00792
 30
0.0
 10
-10.31685
 20
-14.00792
 30
0.0
 10
-10.31685
 20
-14.00792
 30
0.0
 10
-10.33187
 20
-14.00792
 30
0.0
 10
-10.34352
 20
-14.00284
 30
0.0
 10
-10.35177
 20
-13.99268
 30
0.0
 10
-10.35177
 20
-13.99268
 30
0.0
 10
-10.36
 20
-13.98255
 30
0.0
 10
-10.36413
 20
-13.96813
 30
0.0
 10
-10.36413
 20
-13.94947
 30
0.0
 10
-10.36413
 20
-13.94947
 30
0.0
 10
-10.36413
 20
-13.93037
 30
0.0
 10
-10.35931
 20
-13.91534
 30
0.0
 10
-10.34968
 20
-13.90441
 30
0.0
 10
-10.34968
 20
-13.90441
 30
0.0
 10
-10.34002
 20
-13.89349
 30
0.0
 10
-10.32682
 20
-13.88801
 30
0.0
 10
-10.31002
 20
-13.88801
 30
0.0
 10
-10.31002
 20
-13.88801
 30
0.0
 10
-10.3047
 20
-13.88801
 30
0.0
 10
-10.29954
 20
-13.88843
 30
0.0
 10
-10.29452
 20
-13.88925
 30
0.0
 10
-10.29452
 20
-13.88925
 30
0.0
 10
-10.28951
 20
-13.89007
 30
0.0
 10
-10.28457
 20
-13.89132
 30
0.0
 10
-10.27965
 20
-13.89296
 30
0.0
  0
SPLINE
  5
6C
330
1F
100
AcDbEntity
  8
Layer 1
 62
   250
100
AcDbSpline
210
0.0
220
0.0
230
1.0
 70
    11
 71
     3
 72
    36
 73
    32
 74
     0
 42
0.0000000001
 43
0.0000000001
 40
0.0
 40
0.0
 40
0.0
 40
0.0
 40
0.125
 40
0.125
 40
0.125
 40
0.125
 40
0.25
 40
0.25
 40
0.25
 40
0.25
 40
0.375
 40
0.375
 40
0.375
 40
0.375
 40
0.5
 40
0.5
 40
0.5
 40
0.5
 40
0.625
 40
0.625
 40
0.625
 40
0.625
 40
0.75
 40
0.75
 40
0.75
 40
0.75
 40
0.875
 40
0.875
 40
0.875
 40
0.875
 40
1.0
 40
1.0
 40
1.0
 40
1.0
 10
-10.19048
 20
-13.9477
 30
0.0
 10
-10.19048
 20
-13.93323
 30
0.0
 10
-10.19183
 20
-13.92304
 30
0.0
 10
-10.19456
 20
-13.91711
 30
0.0
 10
-10.19456
 20
-13.91711
 30
0.0
 10
-10.19726
 20
-13.91121
 30
0.0
 10
-10.20184
 20
-13.90825
 30
0.0
 10
-10.20824
 20
-13.90825
 30
0.0
 10
-10.20824
 20
-13.90825
 30
0.0
 10
-10.21464
 20
-13.90825
 30
0.0
 10
-10.21922
 20
-13.91121
 30
0.0
 10
-10.22197
 20
-13.91711
 30
0.0
 10
-10.22197
 20
-13.91711
 30
0.0
 10
-10.2247
 20
-13.92304
 30
0.0
 10
-10.22607
 20
-13.93323
 30
0.0
 10
-10.22607
 20
-13.9477
 30
0.0
 10
-10.22607
 20
-13.9477
 30
0.0
 10
-10.22607
 20
-13.9623
 30
0.0
 10
-10.2247
 20
-13.97262
 30
0.0
 10
-10.22197
 20
-13.9786
 30
0.0
 10
-10.22197
 20
-13.9786
 30
0.0
 10
-10.21922
 20
-13.98461
 30
0.0
 10
-10.21464
 20
-13.9876
 30
0.0
 10
-10.20824
 20
-13.9876
 30
0.0
 10
-10.20824
 20
-13.9876
 30
0.0
 10
-10.20189
 20
-13.9876
 30
0.0
 10
-10.19734
 20
-13.98461
 30
0.0
 10
-10.19459
 20
-13.9786
 30
0.0
 10
-10.19459
 20
-13.9786
 30
0.0
 10
-10.19186
 20
-13.97262
 30
0.0
 10
-10.19048
 20
-13.9623
 30
0.0
 10
-10.19048
 20
-13.9477
 30
0.0
  0
SPLINE
  5
6D
330
1F
100
AcDbEntity
  8
Layer 1
 62
   250
100
AcDbSpline
210
0.0
220
0.0
230
1.0
 70
    11
 71
     3
 72
    36
 73
    32
 74
     0
 42
0.0000000001
 43
0.0000000001
 40
0.0
 40
0.0
 40
0.0
 40
0.0
 40
0.125
 40
0.125
 40
0.125
 40
0.125
 40
0.25
 40
0.25
 40
0.25
 40
0.25
 40
0.375
 40
0.375
 40
0.375
 40
0.375
 40
0.5
 40
0.5
 40
0.5
 40
0.5
 40
0.625
 40
0.625
 40
0.625
 40
0.625
 40
0.75
 40
0.75
 40
0.75
 40
0.75
 40
0.875
 40
0.875
 40
0.875
 40
0.875
 40
1.0
 40
1.0
 40
1.0
 40
1.0
 10
-10.16064
 20
-13.94791
 30
0.0
 10
-10.16064
 20
-13.96709
 30
0.0
 10
-10.16477
 20
-13.98188
 30
0.0
 10
-10.17305
 20
-13.99231
 30
0.0
 10
-10.17305
 20
-13.99231
 30
0.0
 10
-10.1813
 20
-14.00271
 30
0.0
 10
-10.19305
 20
-14.00792
 30
0.0
 10
-10.20824
 20
-14.00792
 30
0.0
 10
-10.20824
 20
-14.00792
 30
0.0
 10
-10.22348
 20
-14.00792
 30
0.0
 10
-10.23525
 20
-14.00271
 30
0.0
 10
-10.24351
 20
-13.99231
 30
0.0
 10
-10.24351
 20
-13.99231
 30
0.0
 10
-10.25179
 20
-13.98188
 30
0.0
 10
-10.25592
 20
-13.96709
 30
0.0
 10
-10.25592
 20
-13.94791
 30
0.0
 10
-10.25592
 20
-13.94791
 30
0.0
 10
-10.25592
 20
-13.9287
 30
0.0
 10
-10.25179
 20
-13.91389
 30
0.0
 10
-10.24351
 20
-13.90346
 30
0.0
 10
-10.24351
 20
-13.90346
 30
0.0
 10
-10.23525
 20
-13.89306
 30
0.0
 10
-10.22348
 20
-13.88785
 30
0.0
 10
-10.20824
 20
-13.88785
 30
0.0
 10
-10.20824
 20
-13.88785
 30
0.0
 10
-10.19305
 20
-13.88785
 30
0.0
 10
-10.1813
 20
-13.89306
 30
0.0
 10
-10.17305
 20
-13.90346
 30
0.0
 10
-10.17305
 20
-13.90346
 30
0.0
 10
-10.16477
 20
-13.91389
 30
0.0
 10
-10.16064
 20
-13.9287
 30
0.0
 10
-10.16064
 20
-13.94791
 30
0.0
  0
SPLINE
  5
6E
330
1F
100
AcDbEntity
  8
Layer 1
 62
   250
100
AcDbSpline
210
0.0
220
0.0
230
1.0
 70
    11
 71
     3
 72
   120
 73
   116
 74
     0
 42
0.0000000001
 43
0.0000000001
 40
0.0
 40
0.0
 40
0.0
 40
0.0
 40
0.0344827586206897
 40
0.0344827586206897
 40
0.0344827586206897
 40
0.0344827586206897
 40
0.0689655172413793
 40
0.0689655172413793
 40
0.0689655172413793
 40
0.0689655172413793
 40
0.103448275862069
 40
0.103448275862069
 40
0.103448275862069
 40
0.103448275862069
 40
0.1379310344827586
 40
0.1379310344827586
 40
0.1379310344827586
 40
0.1379310344827586
 40
0.1724137931034483
 40
0.1724137931034483
 40
0.1724137931034483
 40
0.1724137931034483
 40
0.206896551724138
 40
0.206896551724138
 40
0.206896551724138
 40
0.206896551724138
 40
0.2413793103448276
 40
0.2413793103448276
 40
0.2413793103448276
 40
0.2413793103448276
 40
0.2758620689655173
 40
0.2758620689655173
 40
0.2758620689655173
 40
0.2758620689655173
 40
0.310344827586207
 40
0.310344827586207
 40
0.310344827586207
 40
0.310344827586207
 40
0.3448275862068966
 40
0.3448275862068966
 40
0.3448275862068966
 40
0.3448275862068966
 40
0.3793103448275863
 40
0.3793103448275863
 40
0.3793103448275863
 40
0.3793103448275863
 40
0.413793103448276
 40
0.413793103448276
 40
0.413793103448276
 40
0.413793103448276
 40
0.4482758620689656
 40
0.4482758620689656
 40
0.4482758620689656
 40
0.4482758620689656
 40
0.4827586206896553
 40
0.4827586206896553
 40
0.4827586206896553
 40
0.4827586206896553
 40
0.517241379310345
 40
0.517241379310345
 40
0.517241379310345
 40
0.517241379310345
 40
0.5517241379310346
 40
0.5517241379310346
 40
0.5517241379310346
 40
0.5517241379310346
 40
0.5862068965517242
 40
0.5862068965517242
 40
0.5862068965517242
 40
0.5862068965517242
 40
0.6206896551724138
 40
0.6206896551724138
 40
0.6206896551724138
 40
0.6206896551724138
 40
0.6551724137931034
 40
0.6551724137931034
 40
0.6551724137931034
 40
0.6551724137931034
 40
0.689655172413793
 40
0.689655172413793
 40
0.689655172413793
 40
0.689655172413793
 40
0.7241379310344827
 40
0.7241379310344827
 40
0.7241379310344827
 40
0.7241379310344827
 40
0.7586206896551723
 40
0.7586206896551723
 40
0.7586206896551723
 40
0.7586206896551723
 40
0.7931034482758619
 40
0.7931034482758619
 40
0.7931034482758619
 40
0.7931034482758619
 40
0.8275862068965515
 40
0.8275862068965515
 40
0.8275862068965515
 40
0.8275862068965515
 40
0.8620689655172411
 40
0.8620689655172411
 40
0.8620689655172411
 40
0.8620689655172411
 40
0.8965517241379307
 40
0.8965517241379307
 40
0.8965517241379307
 40
0.8965517241379307
 40
0.9310344827586203
 40
0.9310344827586203
 40
0.9310344827586203
 40
0.9310344827586203
 40
0.9655172413793099
 40
0.9655172413793099
 40
0.9655172413793099
 40
0.9655172413793099
 40
1.0
 40
1.0
 40
1.0
 40
1.0
 10
-10.0791
 20
-13.94325
 30
0.0
 10
-10.07132
 20
-13.94527
 30
0.0
 10
-10.06537
 20
-13.94878
 30
0.0
 10
-10.06132
 20
-13.95376
 30
0.0
 10
-10.06132
 20
-13.95376
 30
0.0
 10
-10.05727
 20
-13.95876
 30
0.0
 10
-10.05523
 20
-13.96508
 30
0.0
 10
-10.05523
 20
-13.97278
 30
0.0
 10
-10.05523
 20
-13.97278
 30
0.0
 10
-10.05523
 20
-13.98427
 30
0.0
 10
-10.05963
 20
-13.993
 30
0.0
 10
-10.06841
 20
-13.99898
 30
0.0
 10
-10.06841
 20
-13.99898
 30
0.0
 10
-10.07719
 20
-14.00493
 30
0.0
 10
-10.09
 20
-14.00792
 30
0.0
 10
-10.10685
 20
-14.00792
 30
0.0
 10
-10.10685
 20
-14.00792
 30
0.0
 10
-10.11281
 20
-14.00792
 30
0.0
 10
-10.11876
 20
-14.00744
 30
0.0
 10
-10.12474
 20
-14.00649
 30
0.0
 10
-10.12474
 20
-14.00649
 30
0.0
 10
-10.13069
 20
-14.00554
 30
0.0
 10
-10.13659
 20
-14.00408
 30
0.0
 10
-10.14244
 20
-14.00218
 30
0.0
 10
-10.14244
 20
-14.00218
 30
0.0
 10
-10.14244
 20
-14.00218
 30
0.0
 10
-10.14244
 20
-13.97916
 30
0.0
 10
-10.14244
 20
-13.97916
 30
0.0
 10
-10.14244
 20
-13.97916
 30
0.0
 10
-10.13686
 20
-13.98194
 30
0.0
 10
-10.13133
 20
-13.98405
 30
0.0
 10
-10.12582
 20
-13.98548
 30
0.0
 10
-10.12582
 20
-13.98548
 30
0.0
 10
-10.12032
 20
-13.98688
 30
0.0
 10
-10.1149
 20
-13.9876
 30
0.0
 10
-10.10958
 20
-13.9876
 30
0.0
 10
-10.10958
 20
-13.9876
 30
0.0
 10
-10.10167
 20
-13.9876
 30
0.0
 10
-10.09561
 20
-13.98622
 30
0.0
 10
-10.0914
 20
-13.9835
 30
0.0
 10
-10.0914
 20
-13.9835
 30
0.0
 10
-10.0872
 20
-13.98075
 30
0.0
 10
-10.08508
 20
-13.97683
 30
0.0
 10
-10.08508
 20
-13.9717
 30
0.0
 10
-10.08508
 20
-13.9717
 30
0.0
 10
-10.08508
 20
-13.96643
 30
0.0
 10
-10.08725
 20
-13.96244
 30
0.0
 10
-10.09156
 20
-13.95974
 30
0.0
 10
-10.09156
 20
-13.95974
 30
0.0
 10
-10.09587
 20
-13.95701
 30
0.0
 10
-10.10225
 20
-13.95566
 30
0.0
 10
-10.11066
 20
-13.95566
 30
0.0
 10
-10.11066
 20
-13.95566
 30
0.0
 10
-10.11066
 20
-13.95566
 30
0.0
 10
-10.1226
 20
-13.95566
 30
0.0
 10
-10.1226
 20
-13.95566
 30
0.0
 10
-10.1226
 20
-13.95566
 30
0.0
 10
-10.1226
 20
-13.95566
 30
0.0
 10
-10.1226
 20
-13.93643
 30
0.0
 10
-10.1226
 20
-13.93643
 30
0.0
 10
-10.1226
 20
-13.93643
 30
0.0
 10
-10.1226
 20
-13.93643
 30
0.0
 10
-10.11006
 20
-13.93643
 30
0.0
 10
-10.11006
 20
-13.93643
 30
0.0
 10
-10.11006
 20
-13.93643
 30
0.0
 10
-10.10254
 20
-13.93643
 30
0.0
 10
-10.09698
 20
-13.93526
 30
0.0
 10
-10.09331
 20
-13.93291
 30
0.0
 10
-10.09331
 20
-13.93291
 30
0.0
 10
-10.08963
 20
-13.93055
 30
0.0
 10
-10.0878
 20
-13.92698
 30
0.0
 10
-10.0878
 20
-13.92219
 30
0.0
 10
-10.0878
 20
-13.92219
 30
0.0
 10
-10.0878
 20
-13.91775
 30
0.0
 10
-10.08958
 20
-13.91431
 30
0.0
 10
-10.09315
 20
-13.9119
 30
0.0
 10
-10.09315
 20
-13.9119
 30
0.0
 10
-10.09672
 20
-13.90947
 30
0.0
 10
-10.10175
 20
-13.90825
 30
0.0
 10
-10.10826
 20
-13.90825
 30
0.0
 10
-10.10826
 20
-13.90825
 30
0.0
 10
-10.11307
 20
-13.90825
 30
0.0
 10
-10.11791
 20
-13.90878
 30
0.0
 10
-10.12283
 20
-13.90986
 30
0.0
 10
-10.12283
 20
-13.90986
 30
0.0
 10
-10.12773
 20
-13.91095
 30
0.0
 10
-10.1326
 20
-13.91256
 30
0.0
 10
-10.13747
 20
-13.91468
 30
0.0
 10
-10.13747
 20
-13.91468
 30
0.0
 10
-10.13747
 20
-13.91468
 30
0.0
 10
-10.13747
 20
-13.89283
 30
0.0
 10
-10.13747
 20
-13.89283
 30
0.0
 10
-10.13747
 20
-13.89283
 30
0.0
 10
-10.13157
 20
-13.89116
 30
0.0
 10
-10.12574
 20
-13.88991
 30
0.0
 10
-10.11995
 20
-13.88909
 30
0.0
 10
-10.11995
 20
-13.88909
 30
0.0
 10
-10.11416
 20
-13.88827
 30
0.0
 10
-10.10849
 20
-13.88785
 30
0.0
 10
-10.10291
 20
-13.88785
 30
0.0
 10
-10.10291
 20
-13.88785
 30
0.0
 10
-10.08788
 20
-13.88785
 30
0.0
 10
-10.07661
 20
-13.89031
 30
0.0
 10
-10.06915
 20
-13.89526
 30
0.0
 10
-10.06915
 20
-13.89526
 30
0.0
 10
-10.06169
 20
-13.90018
 30
0.0
 10
-10.05796
 20
-13.90762
 30
0.0
 10
-10.05796
 20
-13.91754
 30
0.0
 10
-10.05796
 20
-13.91754
 30
0.0
 10
-10.05796
 20
-13.92428
 30
0.0
 10
-10.05973
 20
-13.92984
 30
0.0
 10
-10.0633
 20
-13.93415
 30
0.0
 10
-10.0633
 20
-13.93415
 30
0.0
 10
-10.06688
 20
-13.93847
 30
0.0
 10
-10.07214
 20
-13.94151
 30
0.0
 10
-10.0791
 20
-13.94325
 30
0.0
  0
SPLINE
  5
6F
330
1F
100
AcDbEntity
  8
Layer 1
 62
   250
100
AcDbSpline
210
0.0
220
0.0
230
1.0
 70
    11
 71
     3
 72
    44
 73
    40
 74
     0
 42
0.0000000001
 43
0.0000000001
 40
0.0
 40
0.0
 40
0.0
 40
0.0
 40
0.1
 40
0.1
 40
0.1
 40
0.1
 40
0.2
 40
0.2
 40
0.2
 40
0.2
 40
0.3
 40
0.3
 40
0.3
 40
0.3
 40
0.4
 40
0.4
 40
0.4
 40
0.4
 40
0.5
 40
0.5
 40
0.5
 40
0.5
 40
0.6
 40
0.6
 40
0.6
 40
0.6
 40
0.7
 40
0.7
 40
0.7
 40
0.7
 40
0.7999999999999999
 40
0.7999999999999999
 40
0.7999999999999999
 40
0.7999999999999999
 40
0.8999999999999999
 40
0.8999999999999999
 40
0.8999999999999999
 40
0.8999999999999999
 40
1.0
 40
1.0
 40
1.0
 40
1.0
 10
-10.02989
 20
-14.0266
 30
0.0
 10
-10.02328
 20
-14.0143
 30
0.0
 10
-10.0183
 20
-14.00228
 30
0.0
 10
-10.01499
 20
-13.99056
 30
0.0
 10
-10.01499
 20
-13.99056
 30
0.0
 10
-10.01169
 20
-13.97881
 30
0.0
 10
-10.01005
 20
-13.96725
 30
0.0
 10
-10.01005
 20
-13.95582
 30
0.0
 10
-10.01005
 20
-13.95582
 30
0.0
 10
-10.01005
 20
-13.94439
 30
0.0
 10
-10.01169
 20
-13.93283
 30
0.0
 10
-10.01499
 20
-13.92114
 30
0.0
 10
-10.01499
 20
-13.92114
 30
0.0
 10
-10.0183
 20
-13.90944
 30
0.0
 10
-10.02328
 20
-13.89746
 30
0.0
 10
-10.02989
 20
-13.88521
 30
0.0
 10
-10.02989
 20
-13.88521
 30
0.0
 10
-10.02989
 20
-13.88521
 30
0.0
 10
-10.00687
 20
-13.88521
 30
0.0
 10
-10.00687
 20
-13.88521
 30
0.0
 10
-10.00687
 20
-13.88521
 30
0.0
 10
-9.99901
 20
-13.89788
 30
0.0
 10
-9.99319
 20
-13.91
 30
0.0
 10
-9.98938
 20
-13.92161
 30
0.0
 10
-9.98938
 20
-13.92161
 30
0.0
 10
-9.9856
 20
-13.9332
 30
0.0
 10
-9.98369
 20
-13.94466
 30
0.0
 10
-9.98369
 20
-13.95598
 30
0.0
 10
-9.98369
 20
-13.95598
 30
0.0
 10
-9.98369
 20
-13.96731
 30
0.0
 10
-9.98557
 20
-13.97871
 30
0.0
 10
-9.98936
 20
-13.99019
 30
0.0
 10
-9.98936
 20
-13.99019
 30
0.0
 10
-9.99311
 20
-14.0017
 30
0.0
 10
-9.99896
 20
-14.01385
 30
0.0
 10
-10.00687
 20
-14.0266
 30
0.0
 10
-10.00687
 20
-14.0266
 30
0.0
 10
-10.00687
 20
-14.0266
 30
0.0
 10
-10.02989
 20
-14.0266
 30
0.0
 10
-10.02989
 20
-14.0266
 30
0.0
  0
SPLINE
  5
70
330
1F
100
AcDbEntity
  8
Layer 1
 62
   250
100
AcDbSpline
210
0.0
220
0.0
230
1.0
 70
    11
 71
     3
 72
   120
 73
   116
 74
     0
 42
0.0000000001
 43
0.0000000001
 40
0.0
 40
0.0
 40
0.0
 40
0.0
 40
0.0344827586206897
 40
0.0344827586206897
 40
0.0344827586206897
 40
0.0344827586206897
 40
0.0689655172413793
 40
0.0689655172413793
 40
0.0689655172413793
 40
0.0689655172413793
 40
0.103448275862069
 40
0.103448275862069
 40
0.103448275862069
 40
0.103448275862069
 40
0.1379310344827586
 40
0.1379310344827586
 40
0.1379310344827586
 40
0.1379310344827586
 40
0.1724137931034483
 40
0.1724137931034483
 40
0.1724137931034483
 40
0.1724137931034483
 40
0.206896551724138
 40
0.206896551724138
 40
0.206896551724138
 40
0.206896551724138
 40
0.2413793103448276
 40
0.2413793103448276
 40
0.2413793103448276
 40
0.2413793103448276
 40
0.2758620689655173
 40
0.2758620689655173
 40
0.2758620689655173
 40
0.2758620689655173
 40
0.310344827586207
 40
0.310344827586207
 40
0.310344827586207
 40
0.310344827586207
 40
0.3448275862068966
 40
0.3448275862068966
 40
0.3448275862068966
 40
0.3448275862068966
 40
0.3793103448275863
 40
0.3793103448275863
 40
0.3793103448275863
 40
0.3793103448275863
 40
0.413793103448276
 40
0.413793103448276
 40
0.413793103448276
 40
0.413793103448276
 40
0.4482758620689656
 40
0.4482758620689656
 40
0.4482758620689656
 40
0.4482758620689656
 40
0.4827586206896553
 40
0.4827586206896553
 40
0.4827586206896553
 40
0.4827586206896553
 40
0.517241379310345
 40
0.517241379310345
 40
0.517241379310345
 40
0.517241379310345
 40
0.5517241379310346
 40
0.5517241379310346
 40
0.5517241379310346
 40
0.5517241379310346
 40
0.5862068965517242
 40
0.5862068965517242
 40
0.5862068965517242
 40
0.5862068965517242
 40
0.6206896551724138
 40
0.6206896551724138
 40
0.6206896551724138
 40
0.6206896551724138
 40
0.6551724137931034
 40
0.6551724137931034
 40
0.6551724137931034
 40
0.6551724137931034
 40
0.689655172413793
 40
0.689655172413793
 40
0.689655172413793
 40
0.689655172413793
 40
0.7241379310344827
 40
0.7241379310344827
 40
0.7241379310344827
 40
0.7241379310344827
 40
0.7586206896551723
 40
0.7586206896551723
 40
0.7586206896551723
 40
0.7586206896551723
 40
0.7931034482758619
 40
0.7931034482758619
 40
0.7931034482758619
 40
0.7931034482758619
 40
0.8275862068965515
 40
0.8275862068965515
 40
0.8275862068965515
 40
0.8275862068965515
 40
0.8620689655172411
 40
0.8620689655172411
 40
0.8620689655172411
 40
0.8620689655172411
 40
0.8965517241379307
 40
0.8965517241379307
 40
0.8965517241379307
 40
0.8965517241379307
 40
0.9310344827586203
 40
0.9310344827586203
 40
0.9310344827586203
 40
0.9310344827586203
 40
0.9655172413793099
 40
0.9655172413793099
 40
0.9655172413793099
 40
0.9655172413793099
 40
1.0
 40
1.0
 40
1.0
 40
1.0
 10
-10.77022
 20
-14.12804
 30
0.0
 10
-10.76244
 20
-14.13006
 30
0.0
 10
-10.75649
 20
-14.13357
 30
0.0
 10
-10.75244
 20
-14.13855
 30
0.0
 10
-10.75244
 20
-14.13855
 30
0.0
 10
-10.74839
 20
-14.14355
 30
0.0
 10
-10.74635
 20
-14.14987
 30
0.0
 10
-10.74635
 20
-14.15757
 30
0.0
 10
-10.74635
 20
-14.15757
 30
0.0
 10
-10.74635
 20
-14.16906
 30
0.0
 10
-10.75075
 20
-14.17779
 30
0.0
 10
-10.75953
 20
-14.18377
 30
0.0
 10
-10.75953
 20
-14.18377
 30
0.0
 10
-10.76831
 20
-14.18972
 30
0.0
 10
-10.78112
 20
-14.19271
 30
0.0
 10
-10.79797
 20
-14.19271
 30
0.0
 10
-10.79797
 20
-14.19271
 30
0.0
 10
-10.80393
 20
-14.19271
 30
0.0
 10
-10.80988
 20
-14.19223
 30
0.0
 10
-10.81586
 20
-14.19128
 30
0.0
 10
-10.81586
 20
-14.19128
 30
0.0
 10
-10.82181
 20
-14.19033
 30
0.0
 10
-10.82771
 20
-14.18887
 30
0.0
 10
-10.83356
 20
-14.18697
 30
0.0
 10
-10.83356
 20
-14.18697
 30
0.0
 10
-10.83356
 20
-14.18697
 30
0.0
 10
-10.83356
 20
-14.16395
 30
0.0
 10
-10.83356
 20
-14.16395
 30
0.0
 10
-10.83356
 20
-14.16395
 30
0.0
 10
-10.82798
 20
-14.16673
 30
0.0
 10
-10.82245
 20
-14.16884
 30
0.0
 10
-10.81694
 20
-14.17027
 30
0.0
 10
-10.81694
 20
-14.17027
 30
0.0
 10
-10.81144
 20
-14.17167
 30
0.0
 10
-10.80602
 20
-14.17239
 30
0.0
 10
-10.8007
 20
-14.17239
 30
0.0
 10
-10.8007
 20
-14.17239
 30
0.0
 10
-10.79279
 20
-14.17239
 30
0.0
 10
-10.78673
 20
-14.17101
 30
0.0
 10
-10.78252
 20
-14.16829
 30
0.0
 10
-10.78252
 20
-14.16829
 30
0.0
 10
-10.77832
 20
-14.16554
 30
0.0
 10
-10.7762
 20
-14.16162
 30
0.0
 10
-10.7762
 20
-14.15649
 30
0.0
 10
-10.7762
 20
-14.15649
 30
0.0
 10
-10.7762
 20
-14.15122
 30
0.0
 10
-10.77837
 20
-14.14723
 30
0.0
 10
-10.78268
 20
-14.14453
 30
0.0
 10
-10.78268
 20
-14.14453
 30
0.0
 10
-10.78699
 20
-14.1418
 30
0.0
 10
-10.79337
 20
-14.14045
 30
0.0
 10
-10.80178
 20
-14.14045
 30
0.0
 10
-10.80178
 20
-14.14045
 30
0.0
 10
-10.80178
 20
-14.14045
 30
0.0
 10
-10.81372
 20
-14.14045
 30
0.0
 10
-10.81372
 20
-14.14045
 30
0.0
 10
-10.81372
 20
-14.14045
 30
0.0
 10
-10.81372
 20
-14.14045
 30
0.0
 10
-10.81372
 20
-14.12122
 30
0.0
 10
-10.81372
 20
-14.12122
 30
0.0
 10
-10.81372
 20
-14.12122
 30
0.0
 10
-10.81372
 20
-14.12122
 30
0.0
 10
-10.80118
 20
-14.12122
 30
0.0
 10
-10.80118
 20
-14.12122
 30
0.0
 10
-10.80118
 20
-14.12122
 30
0.0
 10
-10.79366
 20
-14.12122
 30
0.0
 10
-10.7881
 20
-14.12005
 30
0.0
 10
-10.78443
 20
-14.1177
 30
0.0
 10
-10.78443
 20
-14.1177
 30
0.0
 10
-10.78075
 20
-14.11534
 30
0.0
 10
-10.77892
 20
-14.11177
 30
0.0
 10
-10.77892
 20
-14.10698
 30
0.0
 10
-10.77892
 20
-14.10698
 30
0.0
 10
-10.77892
 20
-14.10254
 30
0.0
 10
-10.7807
 20
-14.0991
 30
0.0
 10
-10.78427
 20
-14.09669
 30
0.0
 10
-10.78427
 20
-14.09669
 30
0.0
 10
-10.78784
 20
-14.09426
 30
0.0
 10
-10.79287
 20
-14.09304
 30
0.0
 10
-10.79938
 20
-14.09304
 30
0.0
 10
-10.79938
 20
-14.09304
 30
0.0
 10
-10.80419
 20
-14.09304
 30
0.0
 10
-10.80903
 20
-14.09357
 30
0.0
 10
-10.81395
 20
-14.09465
 30
0.0
 10
-10.81395
 20
-14.09465
 30
0.0
 10
-10.81885
 20
-14.09574
 30
0.0
 10
-10.82372
 20
-14.09735
 30
0.0
 10
-10.82859
 20
-14.09947
 30
0.0
 10
-10.82859
 20
-14.09947
 30
0.0
 10
-10.82859
 20
-14.09947
 30
0.0
 10
-10.82859
 20
-14.07762
 30
0.0
 10
-10.82859
 20
-14.07762
 30
0.0
 10
-10.82859
 20
-14.07762
 30
0.0
 10
-10.82269
 20
-14.07595
 30
0.0
 10
-10.81686
 20
-14.0747
 30
0.0
 10
-10.81107
 20
-14.07388
 30
0.0
 10
-10.81107
 20
-14.07388
 30
0.0
 10
-10.80528
 20
-14.07306
 30
0.0
 10
-10.79961
 20
-14.07264
 30
0.0
 10
-10.79403
 20
-14.07264
 30
0.0
 10
-10.79403
 20
-14.07264
 30
0.0
 10
-10.779
 20
-14.07264
 30
0.0
 10
-10.76773
 20
-14.0751
 30
0.0
 10
-10.76027
 20
-14.08005
 30
0.0
 10
-10.76027
 20
-14.08005
 30
0.0
 10
-10.75281
 20
-14.08497
 30
0.0
 10
-10.74908
 20
-14.09241
 30
0.0
 10
-10.74908
 20
-14.10233
 30
0.0
 10
-10.74908
 20
-14.10233
 30
0.0
 10
-10.74908
 20
-14.10907
 30
0.0
 10
-10.75085
 20
-14.11463
 30
0.0
 10
-10.75442
 20
-14.11894
 30
0.0
 10
-10.75442
 20
-14.11894
 30
0.0
 10
-10.758
 20
-14.12326
 30
0.0
 10
-10.76326
 20
-14.1263
 30
0.0
 10
-10.77022
 20
-14.12804
 30
0.0
  0
SPLINE
  5
71
330
1F
100
AcDbEntity
  8
Layer 1
 62
   250
100
AcDbSpline
210
0.0
220
0.0
230
1.0
 70
    11
 71
     3
 72
   120
 73
   116
 74
     0
 42
0.0000000001
 43
0.0000000001
 40
0.0
 40
0.0
 40
0.0
 40
0.0
 40
0.0344827586206897
 40
0.0344827586206897
 40
0.0344827586206897
 40
0.0344827586206897
 40
0.0689655172413793
 40
0.0689655172413793
 40
0.0689655172413793
 40
0.0689655172413793
 40
0.103448275862069
 40
0.103448275862069
 40
0.103448275862069
 40
0.103448275862069
 40
0.1379310344827586
 40
0.1379310344827586
 40
0.1379310344827586
 40
0.1379310344827586
 40
0.1724137931034483
 40
0.1724137931034483
 40
0.1724137931034483
 40
0.1724137931034483
 40
0.206896551724138
 40
0.206896551724138
 40
0.206896551724138
 40
0.206896551724138
 40
0.2413793103448276
 40
0.2413793103448276
 40
0.2413793103448276
 40
0.2413793103448276
 40
0.2758620689655173
 40
0.2758620689655173
 40
0.2758620689655173
 40
0.2758620689655173
 40
0.310344827586207
 40
0.310344827586207
 40
0.310344827586207
 40
0.310344827586207
 40
0.3448275862068966
 40
0.3448275862068966
 40
0.3448275862068966
 40
0.3448275862068966
 40
0.3793103448275863
 40
0.3793103448275863
 40
0.3793103448275863
 40
0.3793103448275863
 40
0.413793103448276
 40
0.413793103448276
 40
0.413793103448276
 40
0.413793103448276
 40
0.4482758620689656
 40
0.4482758620689656
 40
0.4482758620689656
 40
0.4482758620689656
 40
0.4827586206896553
 40
0.4827586206896553
 40
0.4827586206896553
 40
0.4827586206896553
 40
0.517241379310345
 40
0.517241379310345
 40
0.517241379310345
 40
0.517241379310345
 40
0.5517241379310346
 40
0.5517241379310346
 40
0.5517241379310346
 40
0.5517241379310346
 40
0.5862068965517242
 40
0.5862068965517242
 40
0.5862068965517242
 40
0.5862068965517242
 40
0.6206896551724138
 40
0.6206896551724138
 40
0.6206896551724138
 40
0.6206896551724138
 40
0.6551724137931034
 40
0.6551724137931034
 40
0.6551724137931034
 40
0.6551724137931034
 40
0.689655172413793
 40
0.689655172413793
 40
0.689655172413793
 40
0.689655172413793
 40
0.7241379310344827
 40
0.7241379310344827
 40
0.7241379310344827
 40
0.7241379310344827
 40
0.7586206896551723
 40
0.7586206896551723
 40
0.7586206896551723
 40
0.7586206896551723
 40
0.7931034482758619
 40
0.7931034482758619
 40
0.7931034482758619
 40
0.7931034482758619
 40
0.8275862068965515
 40
0.8275862068965515
 40
0.8275862068965515
 40
0.8275862068965515
 40
0.8620689655172411
 40
0.8620689655172411
 40
0.8620689655172411
 40
0.8620689655172411
 40
0.8965517241379307
 40
0.8965517241379307
 40
0.8965517241379307
 40
0.8965517241379307
 40
0.9310344827586203
 40
0.9310344827586203
 40
0.9310344827586203
 40
0.9310344827586203
 40
0.9655172413793099
 40
0.9655172413793099
 40
0.9655172413793099
 40
0.9655172413793099
 40
1.0
 40
1.0
 40
1.0
 40
1.0
 10
-10.65976
 20
-14.12804
 30
0.0
 10
-10.65198
 20
-14.13006
 30
0.0
 10
-10.64603
 20
-14.13357
 30
0.0
 10
-10.64198
 20
-14.13855
 30
0.0
 10
-10.64198
 20
-14.13855
 30
0.0
 10
-10.63793
 20
-14.14355
 30
0.0
 10
-10.63589
 20
-14.14987
 30
0.0
 10
-10.63589
 20
-14.15757
 30
0.0
 10
-10.63589
 20
-14.15757
 30
0.0
 10
-10.63589
 20
-14.16906
 30
0.0
 10
-10.64029
 20
-14.17779
 30
0.0
 10
-10.64907
 20
-14.18377
 30
0.0
 10
-10.64907
 20
-14.18377
 30
0.0
 10
-10.65785
 20
-14.18972
 30
0.0
 10
-10.67066
 20
-14.19271
 30
0.0
 10
-10.68751
 20
-14.19271
 30
0.0
 10
-10.68751
 20
-14.19271
 30
0.0
 10
-10.69347
 20
-14.19271
 30
0.0
 10
-10.69942
 20
-14.19223
 30
0.0
 10
-10.7054
 20
-14.19128
 30
0.0
 10
-10.7054
 20
-14.19128
 30
0.0
 10
-10.71135
 20
-14.19033
 30
0.0
 10
-10.71725
 20
-14.18887
 30
0.0
 10
-10.7231
 20
-14.18697
 30
0.0
 10
-10.7231
 20
-14.18697
 30
0.0
 10
-10.7231
 20
-14.18697
 30
0.0
 10
-10.7231
 20
-14.16395
 30
0.0
 10
-10.7231
 20
-14.16395
 30
0.0
 10
-10.7231
 20
-14.16395
 30
0.0
 10
-10.71752
 20
-14.16673
 30
0.0
 10
-10.71199
 20
-14.16884
 30
0.0
 10
-10.70648
 20
-14.17027
 30
0.0
 10
-10.70648
 20
-14.17027
 30
0.0
 10
-10.70098
 20
-14.17167
 30
0.0
 10
-10.69556
 20
-14.17239
 30
0.0
 10
-10.69024
 20
-14.17239
 30
0.0
 10
-10.69024
 20
-14.17239
 30
0.0
 10
-10.68233
 20
-14.17239
 30
0.0
 10
-10.67627
 20
-14.17101
 30
0.0
 10
-10.67206
 20
-14.16829
 30
0.0
 10
-10.67206
 20
-14.16829
 30
0.0
 10
-10.66786
 20
-14.16554
 30
0.0
 10
-10.66574
 20
-14.16162
 30
0.0
 10
-10.66574
 20
-14.15649
 30
0.0
 10
-10.66574
 20
-14.15649
 30
0.0
 10
-10.66574
 20
-14.15122
 30
0.0
 10
-10.66791
 20
-14.14723
 30
0.0
 10
-10.67222
 20
-14.14453
 30
0.0
 10
-10.67222
 20
-14.14453
 30
0.0
 10
-10.67653
 20
-14.1418
 30
0.0
 10
-10.68291
 20
-14.14045
 30
0.0
 10
-10.69132
 20
-14.14045
 30
0.0
 10
-10.69132
 20
-14.14045
 30
0.0
 10
-10.69132
 20
-14.14045
 30
0.0
 10
-10.70326
 20
-14.14045
 30
0.0
 10
-10.70326
 20
-14.14045
 30
0.0
 10
-10.70326
 20
-14.14045
 30
0.0
 10
-10.70326
 20
-14.14045
 30
0.0
 10
-10.70326
 20
-14.12122
 30
0.0
 10
-10.70326
 20
-14.12122
 30
0.0
 10
-10.70326
 20
-14.12122
 30
0.0
 10
-10.70326
 20
-14.12122
 30
0.0
 10
-10.69072
 20
-14.12122
 30
0.0
 10
-10.69072
 20
-14.12122
 30
0.0
 10
-10.69072
 20
-14.12122
 30
0.0
 10
-10.6832
 20
-14.12122
 30
0.0
 10
-10.67764
 20
-14.12005
 30
0.0
 10
-10.67397
 20
-14.1177
 30
0.0
 10
-10.67397
 20
-14.1177
 30
0.0
 10
-10.67029
 20
-14.11534
 30
0.0
 10
-10.66846
 20
-14.11177
 30
0.0
 10
-10.66846
 20
-14.10698
 30
0.0
 10
-10.66846
 20
-14.10698
 30
0.0
 10
-10.66846
 20
-14.10254
 30
0.0
 10
-10.67024
 20
-14.0991
 30
0.0
 10
-10.67381
 20
-14.09669
 30
0.0
 10
-10.67381
 20
-14.09669
 30
0.0
 10
-10.67738
 20
-14.09426
 30
0.0
 10
-10.68241
 20
-14.09304
 30
0.0
 10
-10.68892
 20
-14.09304
 30
0.0
 10
-10.68892
 20
-14.09304
 30
0.0
 10
-10.69373
 20
-14.09304
 30
0.0
 10
-10.69857
 20
-14.09357
 30
0.0
 10
-10.70349
 20
-14.09465
 30
0.0
 10
-10.70349
 20
-14.09465
 30
0.0
 10
-10.70839
 20
-14.09574
 30
0.0
 10
-10.71326
 20
-14.09735
 30
0.0
 10
-10.71813
 20
-14.09947
 30
0.0
 10
-10.71813
 20
-14.09947
 30
0.0
 10
-10.71813
 20
-14.09947
 30
0.0
 10
-10.71813
 20
-14.07762
 30
0.0
 10
-10.71813
 20
-14.07762
 30
0.0
 10
-10.71813
 20
-14.07762
 30
0.0
 10
-10.71223
 20
-14.07595
 30
0.0
 10
-10.7064
 20
-14.0747
 30
0.0
 10
-10.70061
 20
-14.07388
 30
0.0
 10
-10.70061
 20
-14.07388
 30
0.0
 10
-10.69482
 20
-14.07306
 30
0.0
 10
-10.68915
 20
-14.07264
 30
0.0
 10
-10.68357
 20
-14.07264
 30
0.0
 10
-10.68357
 20
-14.07264
 30
0.0
 10
-10.66854
 20
-14.07264
 30
0.0
 10
-10.65727
 20
-14.0751
 30
0.0
 10
-10.64981
 20
-14.08005
 30
0.0
 10
-10.64981
 20
-14.08005
 30
0.0
 10
-10.64235
 20
-14.08497
 30
0.0
 10
-10.63862
 20
-14.09241
 30
0.0
 10
-10.63862
 20
-14.10233
 30
0.0
 10
-10.63862
 20
-14.10233
 30
0.0
 10
-10.63862
 20
-14.10907
 30
0.0
 10
-10.64039
 20
-14.11463
 30
0.0
 10
-10.64396
 20
-14.11894
 30
0.0
 10
-10.64396
 20
-14.11894
 30
0.0
 10
-10.64754
 20
-14.12326
 30
0.0
 10
-10.6528
 20
-14.1263
 30
0.0
 10
-10.65976
 20
-14.12804
 30
0.0
  0
SPLINE
  5
72
330
1F
100
AcDbEntity
  8
Layer 1
 62
   250
100
AcDbSpline
210
0.0
220
0.0
230
1.0
 70
    11
 71
     3
 72
    36
 73
    32
 74
     0
 42
0.0000000001
 43
0.0000000001
 40
0.0
 40
0.0
 40
0.0
 40
0.0
 40
0.125
 40
0.125
 40
0.125
 40
0.125
 40
0.25
 40
0.25
 40
0.25
 40
0.25
 40
0.375
 40
0.375
 40
0.375
 40
0.375
 40
0.5
 40
0.5
 40
0.5
 40
0.5
 40
0.625
 40
0.625
 40
0.625
 40
0.625
 40
0.75
 40
0.75
 40
0.75
 40
0.75
 40
0.875
 40
0.875
 40
0.875
 40
0.875
 40
1.0
 40
1.0
 40
1.0
 40
1.0
 10
-10.50054
 20
-14.09426
 30
0.0
 10
-10.50964
 20
-14.09426
 30
0.0
 10
-10.51668
 20
-14.09762
 30
0.0
 10
-10.5217
 20
-14.10434
 30
0.0
 10
-10.5217
 20
-14.10434
 30
0.0
 10
-10.5267
 20
-14.11106
 30
0.0
 10
-10.52922
 20
-14.1205
 30
0.0
 10
-10.52922
 20
-14.1327
 30
0.0
 10
-10.52922
 20
-14.1327
 30
0.0
 10
-10.52922
 20
-14.14487
 30
0.0
 10
-10.5267
 20
-14.15429
 30
0.0
 10
-10.5217
 20
-14.16101
 30
0.0
 10
-10.5217
 20
-14.16101
 30
0.0
 10
-10.51668
 20
-14.16773
 30
0.0
 10
-10.50964
 20
-14.17109
 30
0.0
 10
-10.50054
 20
-14.17109
 30
0.0
 10
-10.50054
 20
-14.17109
 30
0.0
 10
-10.49138
 20
-14.17109
 30
0.0
 10
-10.48432
 20
-14.16773
 30
0.0
 10
-10.47929
 20
-14.16101
 30
0.0
 10
-10.47929
 20
-14.16101
 30
0.0
 10
-10.47429
 20
-14.15429
 30
0.0
 10
-10.47178
 20
-14.14487
 30
0.0
 10
-10.47178
 20
-14.1327
 30
0.0
 10
-10.47178
 20
-14.1327
 30
0.0
 10
-10.47178
 20
-14.1205
 30
0.0
 10
-10.47429
 20
-14.11106
 30
0.0
 10
-10.47929
 20
-14.10434
 30
0.0
 10
-10.47929
 20
-14.10434
 30
0.0
 10
-10.48432
 20
-14.09762
 30
0.0
 10
-10.49138
 20
-14.09426
 30
0.0
 10
-10.50054
 20
-14.09426
 30
0.0
  0
SPLINE
  5
73
330
1F
100
AcDbEntity
  8
Layer 1
 62
   250
100
AcDbSpline
210
0.0
220
0.0
230
1.0
 70
    11
 71
     3
 72
    36
 73
    32
 74
     0
 42
0.0000000001
 43
0.0000000001
 40
0.0
 40
0.0
 40
0.0
 40
0.0
 40
0.125
 40
0.125
 40
0.125
 40
0.125
 40
0.25
 40
0.25
 40
0.25
 40
0.25
 40
0.375
 40
0.375
 40
0.375
 40
0.375
 40
0.5
 40
0.5
 40
0.5
 40
0.5
 40
0.625
 40
0.625
 40
0.625
 40
0.625
 40
0.75
 40
0.75
 40
0.75
 40
0.75
 40
0.875
 40
0.875
 40
0.875
 40
0.875
 40
1.0
 40
1.0
 40
1.0
 40
1.0
 10
-10.50054
 20
-14.07264
 30
0.0
 10
-10.48194
 20
-14.07264
 30
0.0
 10
-10.46736
 20
-14.07796
 30
0.0
 10
-10.45683
 20
-14.08862
 30
0.0
 10
-10.45683
 20
-14.08862
 30
0.0
 10
-10.44627
 20
-14.09926
 30
0.0
 10
-10.44101
 20
-14.11394
 30
0.0
 10
-10.44101
 20
-14.1327
 30
0.0
 10
-10.44101
 20
-14.1327
 30
0.0
 10
-10.44101
 20
-14.15141
 30
0.0
 10
-10.44627
 20
-14.16609
 30
0.0
 10
-10.45683
 20
-14.17673
 30
0.0
 10
-10.45683
 20
-14.17673
 30
0.0
 10
-10.46736
 20
-14.18739
 30
0.0
 10
-10.48194
 20
-14.19271
 30
0.0
 10
-10.50054
 20
-14.19271
 30
0.0
 10
-10.50054
 20
-14.19271
 30
0.0
 10
-10.51908
 20
-14.19271
 30
0.0
 10
-10.53364
 20
-14.18739
 30
0.0
 10
-10.54422
 20
-14.17673
 30
0.0
 10
-10.54422
 20
-14.17673
 30
0.0
 10
-10.55478
 20
-14.16609
 30
0.0
 10
-10.56007
 20
-14.15141
 30
0.0
 10
-10.56007
 20
-14.1327
 30
0.0
 10
-10.56007
 20
-14.1327
 30
0.0
 10
-10.56007
 20
-14.11394
 30
0.0
 10
-10.55478
 20
-14.09926
 30
0.0
 10
-10.54422
 20
-14.08862
 30
0.0
 10
-10.54422
 20
-14.08862
 30
0.0
 10
-10.53364
 20
-14.07796
 30
0.0
 10
-10.51908
 20
-14.07264
 30
0.0
 10
-10.50054
 20
-14.07264
 30
0.0
  0
SPLINE
  5
74
330
1F
100
AcDbEntity
  8
Layer 1
 62
   250
100
AcDbSpline
210
0.0
220
0.0
230
1.0
 70
    11
 71
     3
 72
    52
 73
    48
 74
     0
 42
0.0000000001
 43
0.0000000001
 40
0.0
 40
0.0
 40
0.0
 40
0.0
 40
0.0833333333333333
 40
0.0833333333333333
 40
0.0833333333333333
 40
0.0833333333333333
 40
0.1666666666666667
 40
0.1666666666666667
 40
0.1666666666666667
 40
0.1666666666666667
 40
0.25
 40
0.25
 40
0.25
 40
0.25
 40
0.3333333333333333
 40
0.3333333333333333
 40
0.3333333333333333
 40
0.3333333333333333
 40
0.4166666666666666
 40
0.4166666666666666
 40
0.4166666666666666
 40
0.4166666666666666
 40
0.4999999999999999
 40
0.4999999999999999
 40
0.4999999999999999
 40
0.4999999999999999
 40
0.5833333333333333
 40
0.5833333333333333
 40
0.5833333333333333
 40
0.5833333333333333
 40
0.6666666666666666
 40
0.6666666666666666
 40
0.6666666666666666
 40
0.6666666666666666
 40
0.75
 40
0.75
 40
0.75
 40
0.75
 40
0.8333333333333334
 40
0.8333333333333334
 40
0.8333333333333334
 40
0.8333333333333334
 40
0.9166666666666667
 40
0.9166666666666667
 40
0.9166666666666667
 40
0.9166666666666667
 40
1.0
 40
1.0
 40
1.0
 40
1.0
 10
-10.41844
 20
-14.07473
 30
0.0
 10
-10.41844
 20
-14.07473
 30
0.0
 10
-10.3886
 20
-14.07473
 30
0.0
 10
-10.3886
 20
-14.07473
 30
0.0
 10
-10.3886
 20
-14.07473
 30
0.0
 10
-10.3886
 20
-14.07473
 30
0.0
 10
-10.3886
 20
-14.11884
 30
0.0
 10
-10.3886
 20
-14.11884
 30
0.0
 10
-10.3886
 20
-14.11884
 30
0.0
 10
-10.3886
 20
-14.11884
 30
0.0
 10
-10.34457
 20
-14.11884
 30
0.0
 10
-10.34457
 20
-14.11884
 30
0.0
 10
-10.34457
 20
-14.11884
 30
0.0
 10
-10.34457
 20
-14.11884
 30
0.0
 10
-10.34457
 20
-14.07473
 30
0.0
 10
-10.34457
 20
-14.07473
 30
0.0
 10
-10.34457
 20
-14.07473
 30
0.0
 10
-10.34457
 20
-14.07473
 30
0.0
 10
-10.31472
 20
-14.07473
 30
0.0
 10
-10.31472
 20
-14.07473
 30
0.0
 10
-10.31472
 20
-14.07473
 30
0.0
 10
-10.31472
 20
-14.07473
 30
0.0
 10
-10.31472
 20
-14.19046
 30
0.0
 10
-10.31472
 20
-14.19046
 30
0.0
 10
-10.31472
 20
-14.19046
 30
0.0
 10
-10.31472
 20
-14.19046
 30
0.0
 10
-10.34457
 20
-14.19046
 30
0.0
 10
-10.34457
 20
-14.19046
 30
0.0
 10
-10.34457
 20
-14.19046
 30
0.0
 10
-10.34457
 20
-14.19046
 30
0.0
 10
-10.34457
 20
-14.14141
 30
0.0
 10
-10.34457
 20
-14.14141
 30
0.0
 10
-10.34457
 20
-14.14141
 30
0.0
 10
-10.34457
 20
-14.14141
 30
0.0
 10
-10.3886
 20
-14.14141
 30
0.0
 10
-10.3886
 20
-14.14141
 30
0.0
 10
-10.3886
 20
-14.14141
 30
0.0
 10
-10.3886
 20
-14.14141
 30
0.0
 10
-10.3886
 20
-14.19046
 30
0.0
 10
-10.3886
 20
-14.19046
 30
0.0
 10
-10.3886
 20
-14.19046
 30
0.0
 10
-10.3886
 20
-14.19046
 30
0.0
 10
-10.41844
 20
-14.19046
 30
0.0
 10
-10.41844
 20
-14.19046
 30
0.0
 10
-10.41844
 20
-14.19046
 30
0.0
 10
-10.41844
 20
-14.19046
 30
0.0
 10
-10.41844
 20
-14.07473
 30
0.0
 10
-10.41844
 20
-14.07473
 30
0.0
  0
SPLINE
  5
75
330
1F
100
AcDbEntity
  8
Layer 1
 62
   250
100
AcDbSpline
210
0.0
220
0.0
230
1.0
 70
    11
 71
     3
 72
    56
 73
    52
 74
     0
 42
0.0000000001
 43
0.0000000001
 40
0.0
 40
0.0
 40
0.0
 40
0.0
 40
0.0769230769230769
 40
0.0769230769230769
 40
0.0769230769230769
 40
0.0769230769230769
 40
0.1538461538461539
 40
0.1538461538461539
 40
0.1538461538461539
 40
0.1538461538461539
 40
0.2307692307692308
 40
0.2307692307692308
 40
0.2307692307692308
 40
0.2307692307692308
 40
0.3076923076923077
 40
0.3076923076923077
 40
0.3076923076923077
 40
0.3076923076923077
 40
0.3846153846153846
 40
0.3846153846153846
 40
0.3846153846153846
 40
0.3846153846153846
 40
0.4615384615384616
 40
0.4615384615384616
 40
0.4615384615384616
 40
0.4615384615384616
 40
0.5384615384615385
 40
0.5384615384615385
 40
0.5384615384615385
 40
0.5384615384615385
 40
0.6153846153846154
 40
0.6153846153846154
 40
0.6153846153846154
 40
0.6153846153846154
 40
0.6923076923076923
 40
0.6923076923076923
 40
0.6923076923076923
 40
0.6923076923076923
 40
0.7692307692307692
 40
0.7692307692307692
 40
0.7692307692307692
 40
0.7692307692307692
 40
0.846153846153846
 40
0.846153846153846
 40
0.846153846153846
 40
0.846153846153846
 40
0.9230769230769229
 40
0.9230769230769229
 40
0.9230769230769229
 40
0.9230769230769229
 40
1.0
 40
1.0
 40
1.0
 40
1.0
 10
-10.28559
 20
-14.07473
 30
0.0
 10
-10.28559
 20
-14.07473
 30
0.0
 10
-10.24762
 20
-14.07473
 30
0.0
 10
-10.24762
 20
-14.07473
 30
0.0
 10
-10.24762
 20
-14.07473
 30
0.0
 10
-10.24762
 20
-14.07473
 30
0.0
 10
-10.22124
 20
-14.13667
 30
0.0
 10
-10.22124
 20
-14.13667
 30
0.0
 10
-10.22124
 20
-14.13667
 30
0.0
 10
-10.22124
 20
-14.13667
 30
0.0
 10
-10.19473
 20
-14.07473
 30
0.0
 10
-10.19473
 20
-14.07473
 30
0.0
 10
-10.19473
 20
-14.07473
 30
0.0
 10
-10.19473
 20
-14.07473
 30
0.0
 10
-10.15685
 20
-14.07473
 30
0.0
 10
-10.15685
 20
-14.07473
 30
0.0
 10
-10.15685
 20
-14.07473
 30
0.0
 10
-10.15685
 20
-14.07473
 30
0.0
 10
-10.15685
 20
-14.19046
 30
0.0
 10
-10.15685
 20
-14.19046
 30
0.0
 10
-10.15685
 20
-14.19046
 30
0.0
 10
-10.15685
 20
-14.19046
 30
0.0
 10
-10.18505
 20
-14.19046
 30
0.0
 10
-10.18505
 20
-14.19046
 30
0.0
 10
-10.18505
 20
-14.19046
 30
0.0
 10
-10.18505
 20
-14.19046
 30
0.0
 10
-10.18505
 20
-14.10582
 30
0.0
 10
-10.18505
 20
-14.10582
 30
0.0
 10
-10.18505
 20
-14.10582
 30
0.0
 10
-10.18505
 20
-14.10582
 30
0.0
 10
-10.21172
 20
-14.16821
 30
0.0
 10
-10.21172
 20
-14.16821
 30
0.0
 10
-10.21172
 20
-14.16821
 30
0.0
 10
-10.21172
 20
-14.16821
 30
0.0
 10
-10.23064
 20
-14.16821
 30
0.0
 10
-10.23064
 20
-14.16821
 30
0.0
 10
-10.23064
 20
-14.16821
 30
0.0
 10
-10.23064
 20
-14.16821
 30
0.0
 10
-10.25731
 20
-14.10582
 30
0.0
 10
-10.25731
 20
-14.10582
 30
0.0
 10
-10.25731
 20
-14.10582
 30
0.0
 10
-10.25731
 20
-14.10582
 30
0.0
 10
-10.25731
 20
-14.19046
 30
0.0
 10
-10.25731
 20
-14.19046
 30
0.0
 10
-10.25731
 20
-14.19046
 30
0.0
 10
-10.25731
 20
-14.19046
 30
0.0
 10
-10.28559
 20
-14.19046
 30
0.0
 10
-10.28559
 20
-14.19046
 30
0.0
 10
-10.28559
 20
-14.19046
 30
0.0
 10
-10.28559
 20
-14.19046
 30
0.0
 10
-10.28559
 20
-14.07473
 30
0.0
 10
-10.28559
 20
-14.07473
 30
0.0
  0
SPLINE
  5
76
330
1F
100
AcDbEntity
  8
Layer 1
 62
   250
100
AcDbSpline
210
0.0
220
0.0
230
1.0
 70
    11
 71
     3
 72
    32
 73
    28
 74
     0
 42
0.0000000001
 43
0.0000000001
 40
0.0
 40
0.0
 40
0.0
 40
0.0
 40
0.1428571428571428
 40
0.1428571428571428
 40
0.1428571428571428
 40
0.1428571428571428
 40
0.2857142857142857
 40
0.2857142857142857
 40
0.2857142857142857
 40
0.2857142857142857
 40
0.4285714285714285
 40
0.4285714285714285
 40
0.4285714285714285
 40
0.4285714285714285
 40
0.5714285714285714
 40
0.5714285714285714
 40
0.5714285714285714
 40
0.5714285714285714
 40
0.7142857142857142
 40
0.7142857142857142
 40
0.7142857142857142
 40
0.7142857142857142
 40
0.857142857142857
 40
0.857142857142857
 40
0.857142857142857
 40
0.857142857142857
 40
1.0
 40
1.0
 40
1.0
 40
1.0
 10
-11.04054
 20
-14.31085
 30
0.0
 10
-11.03429
 20
-14.31085
 30
0.0
 10
-11.0298
 20
-14.30969
 30
0.0
 10
-11.0271
 20
-14.30736
 30
0.0
 10
-11.0271
 20
-14.30736
 30
0.0
 10
-11.02437
 20
-14.30503
 30
0.0
 10
-11.02302
 20
-14.30119
 30
0.0
 10
-11.02302
 20
-14.29587
 30
0.0
 10
-11.02302
 20
-14.29587
 30
0.0
 10
-11.02302
 20
-14.29061
 30
0.0
 10
-11.02437
 20
-14.28683
 30
0.0
 10
-11.0271
 20
-14.28455
 30
0.0
 10
-11.0271
 20
-14.28455
 30
0.0
 10
-11.0298
 20
-14.28228
 30
0.0
 10
-11.03429
 20
-14.28114
 30
0.0
 10
-11.04054
 20
-14.28114
 30
0.0
 10
-11.04054
 20
-14.28114
 30
0.0
 10
-11.04054
 20
-14.28114
 30
0.0
 10
-11.05311
 20
-14.28114
 30
0.0
 10
-11.05311
 20
-14.28114
 30
0.0
 10
-11.05311
 20
-14.28114
 30
0.0
 10
-11.05311
 20
-14.28114
 30
0.0
 10
-11.05311
 20
-14.31085
 30
0.0
 10
-11.05311
 20
-14.31085
 30
0.0
 10
-11.05311
 20
-14.31085
 30
0.0
 10
-11.05311
 20
-14.31085
 30
0.0
 10
-11.04054
 20
-14.31085
 30
0.0
 10
-11.04054
 20
-14.31085
 30
0.0
  0
SPLINE
  5
77
330
1F
100
AcDbEntity
  8
Layer 1
 62
   250
100
AcDbSpline
210
0.0
220
0.0
230
1.0
 70
    11
 71
     3
 72
    68
 73
    64
 74
     0
 42
0.0000000001
 43
0.0000000001
 40
0.0
 40
0.0
 40
0.0
 40
0.0
 40
0.0625
 40
0.0625
 40
0.0625
 40
0.0625
 40
0.125
 40
0.125
 40
0.125
 40
0.125
 40
0.1875
 40
0.1875
 40
0.1875
 40
0.1875
 40
0.25
 40
0.25
 40
0.25
 40
0.25
 40
0.3125
 40
0.3125
 40
0.3125
 40
0.3125
 40
0.375
 40
0.375
 40
0.375
 40
0.375
 40
0.4375
 40
0.4375
 40
0.4375
 40
0.4375
 40
0.5
 40
0.5
 40
0.5
 40
0.5
 40
0.5625
 40
0.5625
 40
0.5625
 40
0.5625
 40
0.625
 40
0.625
 40
0.625
 40
0.625
 40
0.6875
 40
0.6875
 40
0.6875
 40
0.6875
 40
0.75
 40
0.75
 40
0.75
 40
0.75
 40
0.8125
 40
0.8125
 40
0.8125
 40
0.8125
 40
0.875
 40
0.875
 40
0.875
 40
0.875
 40
0.9375
 40
0.9375
 40
0.9375
 40
0.9375
 40
1.0
 40
1.0
 40
1.0
 40
1.0
 10
-11.05311
 20
-14.33146
 30
0.0
 10
-11.05311
 20
-14.33146
 30
0.0
 10
-11.05311
 20
-14.37525
 30
0.0
 10
-11.05311
 20
-14.37525
 30
0.0
 10
-11.05311
 20
-14.37525
 30
0.0
 10
-11.05311
 20
-14.37525
 30
0.0
 10
-11.08295
 20
-14.37525
 30
0.0
 10
-11.08295
 20
-14.37525
 30
0.0
 10
-11.08295
 20
-14.37525
 30
0.0
 10
-11.08295
 20
-14.37525
 30
0.0
 10
-11.08295
 20
-14.25952
 30
0.0
 10
-11.08295
 20
-14.25952
 30
0.0
 10
-11.08295
 20
-14.25952
 30
0.0
 10
-11.08295
 20
-14.25952
 30
0.0
 10
-11.03736
 20
-14.25952
 30
0.0
 10
-11.03736
 20
-14.25952
 30
0.0
 10
-11.03736
 20
-14.25952
 30
0.0
 10
-11.02212
 20
-14.25952
 30
0.0
 10
-11.01093
 20
-14.26209
 30
0.0
 10
-11.00384
 20
-14.26719
 30
0.0
 10
-11.00384
 20
-14.26719
 30
0.0
 10
-10.99672
 20
-14.2723
 30
0.0
 10
-10.99318
 20
-14.2804
 30
0.0
 10
-10.99318
 20
-14.29146
 30
0.0
 10
-10.99318
 20
-14.29146
 30
0.0
 10
-10.99318
 20
-14.2991
 30
0.0
 10
-10.99503
 20
-14.3054
 30
0.0
 10
-10.99871
 20
-14.31029
 30
0.0
 10
-10.99871
 20
-14.31029
 30
0.0
 10
-11.00241
 20
-14.31522
 30
0.0
 10
-11.00799
 20
-14.31884
 30
0.0
 10
-11.01543
 20
-14.32114
 30
0.0
 10
-11.01543
 20
-14.32114
 30
0.0
 10
-11.01136
 20
-14.3221
 30
0.0
 10
-11.00768
 20
-14.32419
 30
0.0
 10
-11.00445
 20
-14.32747
 30
0.0
 10
-11.00445
 20
-14.32747
 30
0.0
 10
-11.00122
 20
-14.33075
 30
0.0
 10
-10.99797
 20
-14.33572
 30
0.0
 10
-10.99466
 20
-14.34239
 30
0.0
 10
-10.99466
 20
-14.34239
 30
0.0
 10
-10.99466
 20
-14.34239
 30
0.0
 10
-10.97844
 20
-14.37525
 30
0.0
 10
-10.97844
 20
-14.37525
 30
0.0
 10
-10.97844
 20
-14.37525
 30
0.0
 10
-10.97844
 20
-14.37525
 30
0.0
 10
-11.01024
 20
-14.37525
 30
0.0
 10
-11.01024
 20
-14.37525
 30
0.0
 10
-11.01024
 20
-14.37525
 30
0.0
 10
-11.01024
 20
-14.37525
 30
0.0
 10
-11.02435
 20
-14.34649
 30
0.0
 10
-11.02435
 20
-14.34649
 30
0.0
 10
-11.02435
 20
-14.34649
 30
0.0
 10
-11.02718
 20
-14.34072
 30
0.0
 10
-11.03006
 20
-14.33675
 30
0.0
 10
-11.033
 20
-14.33464
 30
0.0
 10
-11.033
 20
-14.33464
 30
0.0
 10
-11.03591
 20
-14.33252
 30
0.0
 10
-11.0398
 20
-14.33146
 30
0.0
 10
-11.04467
 20
-14.33146
 30
0.0
 10
-11.04467
 20
-14.33146
 30
0.0
 10
-11.04467
 20
-14.33146
 30
0.0
 10
-11.05311
 20
-14.33146
 30
0.0
 10
-11.05311
 20
-14.33146
 30
0.0
  0
SPLINE
  5
78
330
1F
100
AcDbEntity
  8
Layer 1
 62
   250
100
AcDbSpline
210
0.0
220
0.0
230
1.0
 70
    11
 71
     3
 72
    52
 73
    48
 74
     0
 42
0.0000000001
 43
0.0000000001
 40
0.0
 40
0.0
 40
0.0
 40
0.0
 40
0.0833333333333333
 40
0.0833333333333333
 40
0.0833333333333333
 40
0.0833333333333333
 40
0.1666666666666667
 40
0.1666666666666667
 40
0.1666666666666667
 40
0.1666666666666667
 40
0.25
 40
0.25
 40
0.25
 40
0.25
 40
0.3333333333333333
 40
0.3333333333333333
 40
0.3333333333333333
 40
0.3333333333333333
 40
0.4166666666666666
 40
0.4166666666666666
 40
0.4166666666666666
 40
0.4166666666666666
 40
0.4999999999999999
 40
0.4999999999999999
 40
0.4999999999999999
 40
0.4999999999999999
 40
0.5833333333333333
 40
0.5833333333333333
 40
0.5833333333333333
 40
0.5833333333333333
 40
0.6666666666666666
 40
0.6666666666666666
 40
0.6666666666666666
 40
0.6666666666666666
 40
0.75
 40
0.75
 40
0.75
 40
0.75
 40
0.8333333333333334
 40
0.8333333333333334
 40
0.8333333333333334
 40
0.8333333333333334
 40
0.9166666666666667
 40
0.9166666666666667
 40
0.9166666666666667
 40
0.9166666666666667
 40
1.0
 40
1.0
 40
1.0
 40
1.0
 10
-10.96071
 20
-14.25952
 30
0.0
 10
-10.96071
 20
-14.25952
 30
0.0
 10
-10.88017
 20
-14.25952
 30
0.0
 10
-10.88017
 20
-14.25952
 30
0.0
 10
-10.88017
 20
-14.25952
 30
0.0
 10
-10.88017
 20
-14.25952
 30
0.0
 10
-10.88017
 20
-14.28209
 30
0.0
 10
-10.88017
 20
-14.28209
 30
0.0
 10
-10.88017
 20
-14.28209
 30
0.0
 10
-10.88017
 20
-14.28209
 30
0.0
 10
-10.93087
 20
-14.28209
 30
0.0
 10
-10.93087
 20
-14.28209
 30
0.0
 10
-10.93087
 20
-14.28209
 30
0.0
 10
-10.93087
 20
-14.28209
 30
0.0
 10
-10.93087
 20
-14.30363
 30
0.0
 10
-10.93087
 20
-14.30363
 30
0.0
 10
-10.93087
 20
-14.30363
 30
0.0
 10
-10.93087
 20
-14.30363
 30
0.0
 10
-10.88321
 20
-14.30363
 30
0.0
 10
-10.88321
 20
-14.30363
 30
0.0
 10
-10.88321
 20
-14.30363
 30
0.0
 10
-10.88321
 20
-14.30363
 30
0.0
 10
-10.88321
 20
-14.3262
 30
0.0
 10
-10.88321
 20
-14.3262
 30
0.0
 10
-10.88321
 20
-14.3262
 30
0.0
 10
-10.88321
 20
-14.3262
 30
0.0
 10
-10.93087
 20
-14.3262
 30
0.0
 10
-10.93087
 20
-14.3262
 30
0.0
 10
-10.93087
 20
-14.3262
 30
0.0
 10
-10.93087
 20
-14.3262
 30
0.0
 10
-10.93087
 20
-14.35268
 30
0.0
 10
-10.93087
 20
-14.35268
 30
0.0
 10
-10.93087
 20
-14.35268
 30
0.0
 10
-10.93087
 20
-14.35268
 30
0.0
 10
-10.87848
 20
-14.35268
 30
0.0
 10
-10.87848
 20
-14.35268
 30
0.0
 10
-10.87848
 20
-14.35268
 30
0.0
 10
-10.87848
 20
-14.35268
 30
0.0
 10
-10.87848
 20
-14.37525
 30
0.0
 10
-10.87848
 20
-14.37525
 30
0.0
 10
-10.87848
 20
-14.37525
 30
0.0
 10
-10.87848
 20
-14.37525
 30
0.0
 10
-10.96071
 20
-14.37525
 30
0.0
 10
-10.96071
 20
-14.37525
 30
0.0
 10
-10.96071
 20
-14.37525
 30
0.0
 10
-10.96071
 20
-14.37525
 30
0.0
 10
-10.96071
 20
-14.25952
 30
0.0
 10
-10.96071
 20
-14.25952
 30
0.0
  0
SPLINE
  5
79
330
1F
100
AcDbEntity
  8
Layer 1
 62
   250
100
AcDbSpline
210
0.0
220
0.0
230
1.0
 70
    11
 71
     3
 72
   116
 73
   112
 74
     0
 42
0.0000000001
 43
0.0000000001
 40
0.0
 40
0.0
 40
0.0
 40
0.0
 40
0.0357142857142857
 40
0.0357142857142857
 40
0.0357142857142857
 40
0.0357142857142857
 40
0.0714285714285714
 40
0.0714285714285714
 40
0.0714285714285714
 40
0.0714285714285714
 40
0.1071428571428571
 40
0.1071428571428571
 40
0.1071428571428571
 40
0.1071428571428571
 40
0.1428571428571428
 40
0.1428571428571428
 40
0.1428571428571428
 40
0.1428571428571428
 40
0.1785714285714285
 40
0.1785714285714285
 40
0.1785714285714285
 40
0.1785714285714285
 40
0.2142857142857142
 40
0.2142857142857142
 40
0.2142857142857142
 40
0.2142857142857142
 40
0.2499999999999999
 40
0.2499999999999999
 40
0.2499999999999999
 40
0.2499999999999999
 40
0.2857142857142856
 40
0.2857142857142856
 40
0.2857142857142856
 40
0.2857142857142856
 40
0.3214285714285713
 40
0.3214285714285713
 40
0.3214285714285713
 40
0.3214285714285713
 40
0.357142857142857
 40
0.357142857142857
 40
0.357142857142857
 40
0.357142857142857
 40
0.3928571428571427
 40
0.3928571428571427
 40
0.3928571428571427
 40
0.3928571428571427
 40
0.4285714285714284
 40
0.4285714285714284
 40
0.4285714285714284
 40
0.4285714285714284
 40
0.4642857142857141
 40
0.4642857142857141
 40
0.4642857142857141
 40
0.4642857142857141
 40
0.4999999999999998
 40
0.4999999999999998
 40
0.4999999999999998
 40
0.4999999999999998
 40
0.5357142857142856
 40
0.5357142857142856
 40
0.5357142857142856
 40
0.5357142857142856
 40
0.5714285714285713
 40
0.5714285714285713
 40
0.5714285714285713
 40
0.5714285714285713
 40
0.607142857142857
 40
0.607142857142857
 40
0.607142857142857
 40
0.607142857142857
 40
0.6428571428571427
 40
0.6428571428571427
 40
0.6428571428571427
 40
0.6428571428571427
 40
0.6785714285714284
 40
0.6785714285714284
 40
0.6785714285714284
 40
0.6785714285714284
 40
0.7142857142857141
 40
0.7142857142857141
 40
0.7142857142857141
 40
0.7142857142857141
 40
0.7499999999999998
 40
0.7499999999999998
 40
0.7499999999999998
 40
0.7499999999999998
 40
0.7857142857142855
 40
0.7857142857142855
 40
0.7857142857142855
 40
0.7857142857142855
 40
0.8214285714285712
 40
0.8214285714285712
 40
0.8214285714285712
 40
0.8214285714285712
 40
0.8571428571428569
 40
0.8571428571428569
 40
0.8571428571428569
 40
0.8571428571428569
 40
0.8928571428571426
 40
0.8928571428571426
 40
0.8928571428571426
 40
0.8928571428571426
 40
0.9285714285714283
 40
0.9285714285714283
 40
0.9285714285714283
 40
0.9285714285714283
 40
0.964285714285714
 40
0.964285714285714
 40
0.964285714285714
 40
0.964285714285714
 40
1.0
 40
1.0
 40
1.0
 40
1.0
 10
-10.77172
 20
-14.26317
 30
0.0
 10
-10.77172
 20
-14.26317
 30
0.0
 10
-10.77172
 20
-14.28765
 30
0.0
 10
-10.77172
 20
-14.28765
 30
0.0
 10
-10.77172
 20
-14.28765
 30
0.0
 10
-10.77807
 20
-14.28482
 30
0.0
 10
-10.78429
 20
-14.28267
 30
0.0
 10
-10.79032
 20
-14.28122
 30
0.0
 10
-10.79032
 20
-14.28122
 30
0.0
 10
-10.79638
 20
-14.27976
 30
0.0
 10
-10.8021
 20
-14.27905
 30
0.0
 10
-10.80747
 20
-14.27905
 30
0.0
 10
-10.80747
 20
-14.27905
 30
0.0
 10
-10.81458
 20
-14.27905
 30
0.0
 10
-10.81988
 20
-14.28003
 30
0.0
 10
-10.82329
 20
-14.28198
 30
0.0
 10
-10.82329
 20
-14.28198
 30
0.0
 10
-10.8267
 20
-14.28397
 30
0.0
 10
-10.8284
 20
-14.28701
 30
0.0
 10
-10.8284
 20
-14.29114
 30
0.0
 10
-10.8284
 20
-14.29114
 30
0.0
 10
-10.8284
 20
-14.29423
 30
0.0
 10
-10.82726
 20
-14.29667
 30
0.0
 10
-10.82496
 20
-14.29839
 30
0.0
 10
-10.82496
 20
-14.29839
 30
0.0
 10
-10.82265
 20
-14.30011
 30
0.0
 10
-10.81847
 20
-14.30162
 30
0.0
 10
-10.81242
 20
-14.30286
 30
0.0
 10
-10.81242
 20
-14.30286
 30
0.0
 10
-10.81242
 20
-14.30286
 30
0.0
 10
-10.79972
 20
-14.3054
 30
0.0
 10
-10.79972
 20
-14.3054
 30
0.0
 10
-10.79972
 20
-14.3054
 30
0.0
 10
-10.78683
 20
-14.30799
 30
0.0
 10
-10.7777
 20
-14.31191
 30
0.0
 10
-10.77228
 20
-14.3172
 30
0.0
 10
-10.77228
 20
-14.3172
 30
0.0
 10
-10.76685
 20
-14.32247
 30
0.0
 10
-10.76413
 20
-14.32995
 30
0.0
 10
-10.76413
 20
-14.33966
 30
0.0
 10
-10.76413
 20
-14.33966
 30
0.0
 10
-10.76413
 20
-14.35244
 30
0.0
 10
-10.76791
 20
-14.36194
 30
0.0
 10
-10.77548
 20
-14.36816
 30
0.0
 10
-10.77548
 20
-14.36816
 30
0.0
 10
-10.78305
 20
-14.37438
 30
0.0
 10
-10.79461
 20
-14.3775
 30
0.0
 10
-10.81017
 20
-14.3775
 30
0.0
 10
-10.81017
 20
-14.3775
 30
0.0
 10
-10.81752
 20
-14.3775
 30
0.0
 10
-10.82488
 20
-14.37681
 30
0.0
 10
-10.83226
 20
-14.37541
 30
0.0
 10
-10.83226
 20
-14.37541
 30
0.0
 10
-10.83964
 20
-14.37401
 30
0.0
 10
-10.84705
 20
-14.37194
 30
0.0
 10
-10.85443
 20
-14.36922
 30
0.0
 10
-10.85443
 20
-14.36922
 30
0.0
 10
-10.85443
 20
-14.36922
 30
0.0
 10
-10.85443
 20
-14.34403
 30
0.0
 10
-10.85443
 20
-14.34403
 30
0.0
 10
-10.85443
 20
-14.34403
 30
0.0
 10
-10.84705
 20
-14.34794
 30
0.0
 10
-10.83991
 20
-14.35091
 30
0.0
 10
-10.833
 20
-14.35289
 30
0.0
 10
-10.833
 20
-14.35289
 30
0.0
 10
-10.82609
 20
-14.35488
 30
0.0
 10
-10.81945
 20
-14.35588
 30
0.0
 10
-10.81305
 20
-14.35588
 30
0.0
 10
-10.81305
 20
-14.35588
 30
0.0
 10
-10.80654
 20
-14.35588
 30
0.0
 10
-10.80154
 20
-14.3548
 30
0.0
 10
-10.79807
 20
-14.35263
 30
0.0
 10
-10.79807
 20
-14.35263
 30
0.0
 10
-10.79461
 20
-14.35046
 30
0.0
 10
-10.79289
 20
-14.34736
 30
0.0
 10
-10.79289
 20
-14.34331
 30
0.0
 10
-10.79289
 20
-14.34331
 30
0.0
 10
-10.79289
 20
-14.33972
 30
0.0
 10
-10.79405
 20
-14.33691
 30
0.0
 10
-10.79641
 20
-14.33495
 30
0.0
 10
-10.79641
 20
-14.33495
 30
0.0
 10
-10.79876
 20
-14.333
 30
0.0
 10
-10.80345
 20
-14.33122
 30
0.0
 10
-10.81048
 20
-14.32969
 30
0.0
 10
-10.81048
 20
-14.32969
 30
0.0
 10
-10.81048
 20
-14.32969
 30
0.0
 10
-10.82205
 20
-14.32712
 30
0.0
 10
-10.82205
 20
-14.32712
 30
0.0
 10
-10.82205
 20
-14.32712
 30
0.0
 10
-10.83361
 20
-14.32464
 30
0.0
 10
-10.84207
 20
-14.32069
 30
0.0
 10
-10.84742
 20
-14.31527
 30
0.0
 10
-10.84742
 20
-14.31527
 30
0.0
 10
-10.85276
 20
-14.30984
 30
0.0
 10
-10.85544
 20
-14.30252
 30
0.0
 10
-10.85544
 20
-14.29333
 30
0.0
 10
-10.85544
 20
-14.29333
 30
0.0
 10
-10.85544
 20
-14.2818
 30
0.0
 10
-10.85171
 20
-14.27294
 30
0.0
 10
-10.84427
 20
-14.26674
 30
0.0
 10
-10.84427
 20
-14.26674
 30
0.0
 10
-10.83684
 20
-14.26053
 30
0.0
 10
-10.82615
 20
-14.25743
 30
0.0
 10
-10.81218
 20
-14.25743
 30
0.0
 10
-10.81218
 20
-14.25743
 30
0.0
 10
-10.80583
 20
-14.25743
 30
0.0
 10
-10.79929
 20
-14.25791
 30
0.0
 10
-10.79257
 20
-14.25886
 30
0.0
 10
-10.79257
 20
-14.25886
 30
0.0
 10
-10.78585
 20
-14.25981
 30
0.0
 10
-10.77889
 20
-14.26124
 30
0.0
 10
-10.77172
 20
-14.26317
 30
0.0
  0
SPLINE
  5
7A
330
1F
100
AcDbEntity
  8
Layer 1
 62
   250
100
AcDbSpline
210
0.0
220
0.0
230
1.0
 70
    11
 71
     3
 72
    20
 73
    16
 74
     0
 42
0.0000000001
 43
0.0000000001
 40
0.0
 40
0.0
 40
0.0
 40
0.0
 40
0.25
 40
0.25
 40
0.25
 40
0.25
 40
0.5
 40
0.5
 40
0.5
 40
0.5
 40
0.75
 40
0.75
 40
0.75
 40
0.75
 40
1.0
 40
1.0
 40
1.0
 40
1.0
 10
-10.73793
 20
-14.25952
 30
0.0
 10
-10.73793
 20
-14.25952
 30
0.0
 10
-10.70809
 20
-14.25952
 30
0.0
 10
-10.70809
 20
-14.25952
 30
0.0
 10
-10.70809
 20
-14.25952
 30
0.0
 10
-10.70809
 20
-14.25952
 30
0.0
 10
-10.70809
 20
-14.37525
 30
0.0
 10
-10.70809
 20
-14.37525
 30
0.0
 10
-10.70809
 20
-14.37525
 30
0.0
 10
-10.70809
 20
-14.37525
 30
0.0
 10
-10.73793
 20
-14.37525
 30
0.0
 10
-10.73793
 20
-14.37525
 30
0.0
 10
-10.73793
 20
-14.37525
 30
0.0
 10
-10.73793
 20
-14.37525
 30
0.0
 10
-10.73793
 20
-14.25952
 30
0.0
 10
-10.73793
 20
-14.25952
 30
0.0
  0
SPLINE
  5
7B
330
1F
100
AcDbEntity
  8
Layer 1
 62
   250
100
AcDbSpline
210
0.0
220
0.0
230
1.0
 70
    11
 71
     3
 72
   116
 73
   112
 74
     0
 42
0.0000000001
 43
0.0000000001
 40
0.0
 40
0.0
 40
0.0
 40
0.0
 40
0.0357142857142857
 40
0.0357142857142857
 40
0.0357142857142857
 40
0.0357142857142857
 40
0.0714285714285714
 40
0.0714285714285714
 40
0.0714285714285714
 40
0.0714285714285714
 40
0.1071428571428571
 40
0.1071428571428571
 40
0.1071428571428571
 40
0.1071428571428571
 40
0.1428571428571428
 40
0.1428571428571428
 40
0.1428571428571428
 40
0.1428571428571428
 40
0.1785714285714285
 40
0.1785714285714285
 40
0.1785714285714285
 40
0.1785714285714285
 40
0.2142857142857142
 40
0.2142857142857142
 40
0.2142857142857142
 40
0.2142857142857142
 40
0.2499999999999999
 40
0.2499999999999999
 40
0.2499999999999999
 40
0.2499999999999999
 40
0.2857142857142856
 40
0.2857142857142856
 40
0.2857142857142856
 40
0.2857142857142856
 40
0.3214285714285713
 40
0.3214285714285713
 40
0.3214285714285713
 40
0.3214285714285713
 40
0.357142857142857
 40
0.357142857142857
 40
0.357142857142857
 40
0.357142857142857
 40
0.3928571428571427
 40
0.3928571428571427
 40
0.3928571428571427
 40
0.3928571428571427
 40
0.4285714285714284
 40
0.4285714285714284
 40
0.4285714285714284
 40
0.4285714285714284
 40
0.4642857142857141
 40
0.4642857142857141
 40
0.4642857142857141
 40
0.4642857142857141
 40
0.4999999999999998
 40
0.4999999999999998
 40
0.4999999999999998
 40
0.4999999999999998
 40
0.5357142857142856
 40
0.5357142857142856
 40
0.5357142857142856
 40
0.5357142857142856
 40
0.5714285714285713
 40
0.5714285714285713
 40
0.5714285714285713
 40
0.5714285714285713
 40
0.607142857142857
 40
0.607142857142857
 40
0.607142857142857
 40
0.607142857142857
 40
0.6428571428571427
 40
0.6428571428571427
 40
0.6428571428571427
 40
0.6428571428571427
 40
0.6785714285714284
 40
0.6785714285714284
 40
0.6785714285714284
 40
0.6785714285714284
 40
0.7142857142857141
 40
0.7142857142857141
 40
0.7142857142857141
 40
0.7142857142857141
 40
0.7499999999999998
 40
0.7499999999999998
 40
0.7499999999999998
 40
0.7499999999999998
 40
0.7857142857142855
 40
0.7857142857142855
 40
0.7857142857142855
 40
0.7857142857142855
 40
0.8214285714285712
 40
0.8214285714285712
 40
0.8214285714285712
 40
0.8214285714285712
 40
0.8571428571428569
 40
0.8571428571428569
 40
0.8571428571428569
 40
0.8571428571428569
 40
0.8928571428571426
 40
0.8928571428571426
 40
0.8928571428571426
 40
0.8928571428571426
 40
0.9285714285714283
 40
0.9285714285714283
 40
0.9285714285714283
 40
0.9285714285714283
 40
0.964285714285714
 40
0.964285714285714
 40
0.964285714285714
 40
0.964285714285714
 40
1.0
 40
1.0
 40
1.0
 40
1.0
 10
-10.59833
 20
-14.26317
 30
0.0
 10
-10.59833
 20
-14.26317
 30
0.0
 10
-10.59833
 20
-14.28765
 30
0.0
 10
-10.59833
 20
-14.28765
 30
0.0
 10
-10.59833
 20
-14.28765
 30
0.0
 10
-10.60468
 20
-14.28482
 30
0.0
 10
-10.6109
 20
-14.28267
 30
0.0
 10
-10.61693
 20
-14.28122
 30
0.0
 10
-10.61693
 20
-14.28122
 30
0.0
 10
-10.62299
 20
-14.27976
 30
0.0
 10
-10.62871
 20
-14.27905
 30
0.0
 10
-10.63408
 20
-14.27905
 30
0.0
 10
-10.63408
 20
-14.27905
 30
0.0
 10
-10.64119
 20
-14.27905
 30
0.0
 10
-10.64649
 20
-14.28003
 30
0.0
 10
-10.6499
 20
-14.28198
 30
0.0
 10
-10.6499
 20
-14.28198
 30
0.0
 10
-10.65331
 20
-14.28397
 30
0.0
 10
-10.65501
 20
-14.28701
 30
0.0
 10
-10.65501
 20
-14.29114
 30
0.0
 10
-10.65501
 20
-14.29114
 30
0.0
 10
-10.65501
 20
-14.29423
 30
0.0
 10
-10.65387
 20
-14.29667
 30
0.0
 10
-10.65157
 20
-14.29839
 30
0.0
 10
-10.65157
 20
-14.29839
 30
0.0
 10
-10.64926
 20
-14.30011
 30
0.0
 10
-10.64508
 20
-14.30162
 30
0.0
 10
-10.63903
 20
-14.30286
 30
0.0
 10
-10.63903
 20
-14.30286
 30
0.0
 10
-10.63903
 20
-14.30286
 30
0.0
 10
-10.62633
 20
-14.3054
 30
0.0
 10
-10.62633
 20
-14.3054
 30
0.0
 10
-10.62633
 20
-14.3054
 30
0.0
 10
-10.61344
 20
-14.30799
 30
0.0
 10
-10.60431
 20
-14.31191
 30
0.0
 10
-10.59889
 20
-14.3172
 30
0.0
 10
-10.59889
 20
-14.3172
 30
0.0
 10
-10.59346
 20
-14.32247
 30
0.0
 10
-10.59074
 20
-14.32995
 30
0.0
 10
-10.59074
 20
-14.33966
 30
0.0
 10
-10.59074
 20
-14.33966
 30
0.0
 10
-10.59074
 20
-14.35244
 30
0.0
 10
-10.59452
 20
-14.36194
 30
0.0
 10
-10.60209
 20
-14.36816
 30
0.0
 10
-10.60209
 20
-14.36816
 30
0.0
 10
-10.60966
 20
-14.37438
 30
0.0
 10
-10.62122
 20
-14.3775
 30
0.0
 10
-10.63678
 20
-14.3775
 30
0.0
 10
-10.63678
 20
-14.3775
 30
0.0
 10
-10.64413
 20
-14.3775
 30
0.0
 10
-10.65149
 20
-14.37681
 30
0.0
 10
-10.65887
 20
-14.37541
 30
0.0
 10
-10.65887
 20
-14.37541
 30
0.0
 10
-10.66625
 20
-14.37401
 30
0.0
 10
-10.67366
 20
-14.37194
 30
0.0
 10
-10.68104
 20
-14.36922
 30
0.0
 10
-10.68104
 20
-14.36922
 30
0.0
 10
-10.68104
 20
-14.36922
 30
0.0
 10
-10.68104
 20
-14.34403
 30
0.0
 10
-10.68104
 20
-14.34403
 30
0.0
 10
-10.68104
 20
-14.34403
 30
0.0
 10
-10.67366
 20
-14.34794
 30
0.0
 10
-10.66652
 20
-14.35091
 30
0.0
 10
-10.65961
 20
-14.35289
 30
0.0
 10
-10.65961
 20
-14.35289
 30
0.0
 10
-10.6527
 20
-14.35488
 30
0.0
 10
-10.64606
 20
-14.35588
 30
0.0
 10
-10.63966
 20
-14.35588
 30
0.0
 10
-10.63966
 20
-14.35588
 30
0.0
 10
-10.63315
 20
-14.35588
 30
0.0
 10
-10.62815
 20
-14.3548
 30
0.0
 10
-10.62468
 20
-14.35263
 30
0.0
 10
-10.62468
 20
-14.35263
 30
0.0
 10
-10.62122
 20
-14.35046
 30
0.0
 10
-10.6195
 20
-14.34736
 30
0.0
 10
-10.6195
 20
-14.34331
 30
0.0
 10
-10.6195
 20
-14.34331
 30
0.0
 10
-10.6195
 20
-14.33972
 30
0.0
 10
-10.62066
 20
-14.33691
 30
0.0
 10
-10.62302
 20
-14.33495
 30
0.0
 10
-10.62302
 20
-14.33495
 30
0.0
 10
-10.62537
 20
-14.333
 30
0.0
 10
-10.63006
 20
-14.33122
 30
0.0
 10
-10.63709
 20
-14.32969
 30
0.0
 10
-10.63709
 20
-14.32969
 30
0.0
 10
-10.63709
 20
-14.32969
 30
0.0
 10
-10.64866
 20
-14.32712
 30
0.0
 10
-10.64866
 20
-14.32712
 30
0.0
 10
-10.64866
 20
-14.32712
 30
0.0
 10
-10.66022
 20
-14.32464
 30
0.0
 10
-10.66868
 20
-14.32069
 30
0.0
 10
-10.67403
 20
-14.31527
 30
0.0
 10
-10.67403
 20
-14.31527
 30
0.0
 10
-10.67937
 20
-14.30984
 30
0.0
 10
-10.68205
 20
-14.30252
 30
0.0
 10
-10.68205
 20
-14.29333
 30
0.0
 10
-10.68205
 20
-14.29333
 30
0.0
 10
-10.68205
 20
-14.2818
 30
0.0
 10
-10.67832
 20
-14.27294
 30
0.0
 10
-10.67088
 20
-14.26674
 30
0.0
 10
-10.67088
 20
-14.26674
 30
0.0
 10
-10.66345
 20
-14.26053
 30
0.0
 10
-10.65276
 20
-14.25743
 30
0.0
 10
-10.63879
 20
-14.25743
 30
0.0
 10
-10.63879
 20
-14.25743
 30
0.0
 10
-10.63244
 20
-14.25743
 30
0.0
 10
-10.6259
 20
-14.25791
 30
0.0
 10
-10.61918
 20
-14.25886
 30
0.0
 10
-10.61918
 20
-14.25886
 30
0.0
 10
-10.61246
 20
-14.25981
 30
0.0
 10
-10.6055
 20
-14.26124
 30
0.0
 10
-10.59833
 20
-14.26317
 30
0.0
  0
SPLINE
  5
7C
330
1F
100
AcDbEntity
  8
Layer 1
 62
   250
100
AcDbSpline
210
0.0
220
0.0
230
1.0
 70
    11
 71
     3
 72
    36
 73
    32
 74
     0
 42
0.0000000001
 43
0.0000000001
 40
0.0
 40
0.0
 40
0.0
 40
0.0
 40
0.125
 40
0.125
 40
0.125
 40
0.125
 40
0.25
 40
0.25
 40
0.25
 40
0.25
 40
0.375
 40
0.375
 40
0.375
 40
0.375
 40
0.5
 40
0.5
 40
0.5
 40
0.5
 40
0.625
 40
0.625
 40
0.625
 40
0.625
 40
0.75
 40
0.75
 40
0.75
 40
0.75
 40
0.875
 40
0.875
 40
0.875
 40
0.875
 40
1.0
 40
1.0
 40
1.0
 40
1.0
 10
-10.57835
 20
-14.25952
 30
0.0
 10
-10.57835
 20
-14.25952
 30
0.0
 10
-10.4717
 20
-14.25952
 30
0.0
 10
-10.4717
 20
-14.25952
 30
0.0
 10
-10.4717
 20
-14.25952
 30
0.0
 10
-10.4717
 20
-14.25952
 30
0.0
 10
-10.4717
 20
-14.28209
 30
0.0
 10
-10.4717
 20
-14.28209
 30
0.0
 10
-10.4717
 20
-14.28209
 30
0.0
 10
-10.4717
 20
-14.28209
 30
0.0
 10
-10.51006
 20
-14.28209
 30
0.0
 10
-10.51006
 20
-14.28209
 30
0.0
 10
-10.51006
 20
-14.28209
 30
0.0
 10
-10.51006
 20
-14.28209
 30
0.0
 10
-10.51006
 20
-14.37525
 30
0.0
 10
-10.51006
 20
-14.37525
 30
0.0
 10
-10.51006
 20
-14.37525
 30
0.0
 10
-10.51006
 20
-14.37525
 30
0.0
 10
-10.53991
 20
-14.37525
 30
0.0
 10
-10.53991
 20
-14.37525
 30
0.0
 10
-10.53991
 20
-14.37525
 30
0.0
 10
-10.53991
 20
-14.37525
 30
0.0
 10
-10.53991
 20
-14.28209
 30
0.0
 10
-10.53991
 20
-14.28209
 30
0.0
 10
-10.53991
 20
-14.28209
 30
0.0
 10
-10.53991
 20
-14.28209
 30
0.0
 10
-10.57835
 20
-14.28209
 30
0.0
 10
-10.57835
 20
-14.28209
 30
0.0
 10
-10.57835
 20
-14.28209
 30
0.0
 10
-10.57835
 20
-14.28209
 30
0.0
 10
-10.57835
 20
-14.25952
 30
0.0
 10
-10.57835
 20
-14.25952
 30
0.0
  0
SPLINE
  5
7D
330
1F
100
AcDbEntity
  8
Layer 1
 62
   250
100
AcDbSpline
210
0.0
220
0.0
230
1.0
 70
    11
 71
     3
 72
    36
 73
    32
 74
     0
 42
0.0000000001
 43
0.0000000001
 40
0.0
 40
0.0
 40
0.0
 40
0.0
 40
0.125
 40
0.125
 40
0.125
 40
0.125
 40
0.25
 40
0.25
 40
0.25
 40
0.25
 40
0.375
 40
0.375
 40
0.375
 40
0.375
 40
0.5
 40
0.5
 40
0.5
 40
0.5
 40
0.625
 40
0.625
 40
0.625
 40
0.625
 40
0.75
 40
0.75
 40
0.75
 40
0.75
 40
0.875
 40
0.875
 40
0.875
 40
0.875
 40
1.0
 40
1.0
 40
1.0
 40
1.0
 10
-10.40339
 20
-14.27905
 30
0.0
 10
-10.41249
 20
-14.27905
 30
0.0
 10
-10.41953
 20
-14.28241
 30
0.0
 10
-10.42455
 20
-14.28913
 30
0.0
 10
-10.42455
 20
-14.28913
 30
0.0
 10
-10.42955
 20
-14.29585
 30
0.0
 10
-10.43207
 20
-14.30529
 30
0.0
 10
-10.43207
 20
-14.31749
 30
0.0
 10
-10.43207
 20
-14.31749
 30
0.0
 10
-10.43207
 20
-14.32966
 30
0.0
 10
-10.42955
 20
-14.33908
 30
0.0
 10
-10.42455
 20
-14.3458
 30
0.0
 10
-10.42455
 20
-14.3458
 30
0.0
 10
-10.41953
 20
-14.35252
 30
0.0
 10
-10.41249
 20
-14.35588
 30
0.0
 10
-10.40339
 20
-14.35588
 30
0.0
 10
-10.40339
 20
-14.35588
 30
0.0
 10
-10.39423
 20
-14.35588
 30
0.0
 10
-10.38717
 20
-14.35252
 30
0.0
 10
-10.38214
 20
-14.3458
 30
0.0
 10
-10.38214
 20
-14.3458
 30
0.0
 10
-10.37714
 20
-14.33908
 30
0.0
 10
-10.37463
 20
-14.32966
 30
0.0
 10
-10.37463
 20
-14.31749
 30
0.0
 10
-10.37463
 20
-14.31749
 30
0.0
 10
-10.37463
 20
-14.30529
 30
0.0
 10
-10.37714
 20
-14.29585
 30
0.0
 10
-10.38214
 20
-14.28913
 30
0.0
 10
-10.38214
 20
-14.28913
 30
0.0
 10
-10.38717
 20
-14.28241
 30
0.0
 10
-10.39423
 20
-14.27905
 30
0.0
 10
-10.40339
 20
-14.27905
 30
0.0
  0
SPLINE
  5
7E
330
1F
100
AcDbEntity
  8
Layer 1
 62
   250
100
AcDbSpline
210
0.0
220
0.0
230
1.0
 70
    11
 71
     3
 72
    36
 73
    32
 74
     0
 42
0.0000000001
 43
0.0000000001
 40
0.0
 40
0.0
 40
0.0
 40
0.0
 40
0.125
 40
0.125
 40
0.125
 40
0.125
 40
0.25
 40
0.25
 40
0.25
 40
0.25
 40
0.375
 40
0.375
 40
0.375
 40
0.375
 40
0.5
 40
0.5
 40
0.5
 40
0.5
 40
0.625
 40
0.625
 40
0.625
 40
0.625
 40
0.75
 40
0.75
 40
0.75
 40
0.75
 40
0.875
 40
0.875
 40
0.875
 40
0.875
 40
1.0
 40
1.0
 40
1.0
 40
1.0
 10
-10.40339
 20
-14.25743
 30
0.0
 10
-10.38479
 20
-14.25743
 30
0.0
 10
-10.37021
 20
-14.26275
 30
0.0
 10
-10.35968
 20
-14.27341
 30
0.0
 10
-10.35968
 20
-14.27341
 30
0.0
 10
-10.34912
 20
-14.28405
 30
0.0
 10
-10.34386
 20
-14.29873
 30
0.0
 10
-10.34386
 20
-14.31749
 30
0.0
 10
-10.34386
 20
-14.31749
 30
0.0
 10
-10.34386
 20
-14.3362
 30
0.0
 10
-10.34912
 20
-14.35088
 30
0.0
 10
-10.35968
 20
-14.36152
 30
0.0
 10
-10.35968
 20
-14.36152
 30
0.0
 10
-10.37021
 20
-14.37218
 30
0.0
 10
-10.38479
 20
-14.3775
 30
0.0
 10
-10.40339
 20
-14.3775
 30
0.0
 10
-10.40339
 20
-14.3775
 30
0.0
 10
-10.42193
 20
-14.3775
 30
0.0
 10
-10.43649
 20
-14.37218
 30
0.0
 10
-10.44707
 20
-14.36152
 30
0.0
 10
-10.44707
 20
-14.36152
 30
0.0
 10
-10.45763
 20
-14.35088
 30
0.0
 10
-10.46292
 20
-14.3362
 30
0.0
 10
-10.46292
 20
-14.31749
 30
0.0
 10
-10.46292
 20
-14.31749
 30
0.0
 10
-10.46292
 20
-14.29873
 30
0.0
 10
-10.45763
 20
-14.28405
 30
0.0
 10
-10.44707
 20
-14.27341
 30
0.0
 10
-10.44707
 20
-14.27341
 30
0.0
 10
-10.43649
 20
-14.26275
 30
0.0
 10
-10.42193
 20
-14.25743
 30
0.0
 10
-10.40339
 20
-14.25743
 30
0.0
  0
SPLINE
  5
7F
330
1F
100
AcDbEntity
  8
Layer 1
 62
   250
100
AcDbSpline
210
0.0
220
0.0
230
1.0
 70
    11
 71
     3
 72
    32
 73
    28
 74
     0
 42
0.0000000001
 43
0.0000000001
 40
0.0
 40
0.0
 40
0.0
 40
0.0
 40
0.1428571428571428
 40
0.1428571428571428
 40
0.1428571428571428
 40
0.1428571428571428
 40
0.2857142857142857
 40
0.2857142857142857
 40
0.2857142857142857
 40
0.2857142857142857
 40
0.4285714285714285
 40
0.4285714285714285
 40
0.4285714285714285
 40
0.4285714285714285
 40
0.5714285714285714
 40
0.5714285714285714
 40
0.5714285714285714
 40
0.5714285714285714
 40
0.7142857142857142
 40
0.7142857142857142
 40
0.7142857142857142
 40
0.7142857142857142
 40
0.857142857142857
 40
0.857142857142857
 40
0.857142857142857
 40
0.857142857142857
 40
1.0
 40
1.0
 40
1.0
 40
1.0
 10
-10.27888
 20
-14.31085
 30
0.0
 10
-10.27263
 20
-14.31085
 30
0.0
 10
-10.26814
 20
-14.30969
 30
0.0
 10
-10.26544
 20
-14.30736
 30
0.0
 10
-10.26544
 20
-14.30736
 30
0.0
 10
-10.26271
 20
-14.30503
 30
0.0
 10
-10.26136
 20
-14.30119
 30
0.0
 10
-10.26136
 20
-14.29587
 30
0.0
 10
-10.26136
 20
-14.29587
 30
0.0
 10
-10.26136
 20
-14.29061
 30
0.0
 10
-10.26271
 20
-14.28683
 30
0.0
 10
-10.26544
 20
-14.28455
 30
0.0
 10
-10.26544
 20
-14.28455
 30
0.0
 10
-10.26814
 20
-14.28228
 30
0.0
 10
-10.27263
 20
-14.28114
 30
0.0
 10
-10.27888
 20
-14.28114
 30
0.0
 10
-10.27888
 20
-14.28114
 30
0.0
 10
-10.27888
 20
-14.28114
 30
0.0
 10
-10.29145
 20
-14.28114
 30
0.0
 10
-10.29145
 20
-14.28114
 30
0.0
 10
-10.29145
 20
-14.28114
 30
0.0
 10
-10.29145
 20
-14.28114
 30
0.0
 10
-10.29145
 20
-14.31085
 30
0.0
 10
-10.29145
 20
-14.31085
 30
0.0
 10
-10.29145
 20
-14.31085
 30
0.0
 10
-10.29145
 20
-14.31085
 30
0.0
 10
-10.27888
 20
-14.31085
 30
0.0
 10
-10.27888
 20
-14.31085
 30
0.0
  0
SPLINE
  5
80
330
1F
100
AcDbEntity
  8
Layer 1
 62
   250
100
AcDbSpline
210
0.0
220
0.0
230
1.0
 70
    11
 71
     3
 72
    68
 73
    64
 74
     0
 42
0.0000000001
 43
0.0000000001
 40
0.0
 40
0.0
 40
0.0
 40
0.0
 40
0.0625
 40
0.0625
 40
0.0625
 40
0.0625
 40
0.125
 40
0.125
 40
0.125
 40
0.125
 40
0.1875
 40
0.1875
 40
0.1875
 40
0.1875
 40
0.25
 40
0.25
 40
0.25
 40
0.25
 40
0.3125
 40
0.3125
 40
0.3125
 40
0.3125
 40
0.375
 40
0.375
 40
0.375
 40
0.375
 40
0.4375
 40
0.4375
 40
0.4375
 40
0.4375
 40
0.5
 40
0.5
 40
0.5
 40
0.5
 40
0.5625
 40
0.5625
 40
0.5625
 40
0.5625
 40
0.625
 40
0.625
 40
0.625
 40
0.625
 40
0.6875
 40
0.6875
 40
0.6875
 40
0.6875
 40
0.75
 40
0.75
 40
0.75
 40
0.75
 40
0.8125
 40
0.8125
 40
0.8125
 40
0.8125
 40
0.875
 40
0.875
 40
0.875
 40
0.875
 40
0.9375
 40
0.9375
 40
0.9375
 40
0.9375
 40
1.0
 40
1.0
 40
1.0
 40
1.0
 10
-10.29145
 20
-14.33146
 30
0.0
 10
-10.29145
 20
-14.33146
 30
0.0
 10
-10.29145
 20
-14.37525
 30
0.0
 10
-10.29145
 20
-14.37525
 30
0.0
 10
-10.29145
 20
-14.37525
 30
0.0
 10
-10.29145
 20
-14.37525
 30
0.0
 10
-10.32129
 20
-14.37525
 30
0.0
 10
-10.32129
 20
-14.37525
 30
0.0
 10
-10.32129
 20
-14.37525
 30
0.0
 10
-10.32129
 20
-14.37525
 30
0.0
 10
-10.32129
 20
-14.25952
 30
0.0
 10
-10.32129
 20
-14.25952
 30
0.0
 10
-10.32129
 20
-14.25952
 30
0.0
 10
-10.32129
 20
-14.25952
 30
0.0
 10
-10.2757
 20
-14.25952
 30
0.0
 10
-10.2757
 20
-14.25952
 30
0.0
 10
-10.2757
 20
-14.25952
 30
0.0
 10
-10.26046
 20
-14.25952
 30
0.0
 10
-10.24927
 20
-14.26209
 30
0.0
 10
-10.24218
 20
-14.26719
 30
0.0
 10
-10.24218
 20
-14.26719
 30
0.0
 10
-10.23506
 20
-14.2723
 30
0.0
 10
-10.23152
 20
-14.2804
 30
0.0
 10
-10.23152
 20
-14.29146
 30
0.0
 10
-10.23152
 20
-14.29146
 30
0.0
 10
-10.23152
 20
-14.2991
 30
0.0
 10
-10.23337
 20
-14.3054
 30
0.0
 10
-10.23705
 20
-14.31029
 30
0.0
 10
-10.23705
 20
-14.31029
 30
0.0
 10
-10.24075
 20
-14.31522
 30
0.0
 10
-10.24633
 20
-14.31884
 30
0.0
 10
-10.25377
 20
-14.32114
 30
0.0
 10
-10.25377
 20
-14.32114
 30
0.0
 10
-10.2497
 20
-14.3221
 30
0.0
 10
-10.24602
 20
-14.32419
 30
0.0
 10
-10.24279
 20
-14.32747
 30
0.0
 10
-10.24279
 20
-14.32747
 30
0.0
 10
-10.23956
 20
-14.33075
 30
0.0
 10
-10.23631
 20
-14.33572
 30
0.0
 10
-10.233
 20
-14.34239
 30
0.0
 10
-10.233
 20
-14.34239
 30
0.0
 10
-10.233
 20
-14.34239
 30
0.0
 10
-10.21678
 20
-14.37525
 30
0.0
 10
-10.21678
 20
-14.37525
 30
0.0
 10
-10.21678
 20
-14.37525
 30
0.0
 10
-10.21678
 20
-14.37525
 30
0.0
 10
-10.24858
 20
-14.37525
 30
0.0
 10
-10.24858
 20
-14.37525
 30
0.0
 10
-10.24858
 20
-14.37525
 30
0.0
 10
-10.24858
 20
-14.37525
 30
0.0
 10
-10.26269
 20
-14.34649
 30
0.0
 10
-10.26269
 20
-14.34649
 30
0.0
 10
-10.26269
 20
-14.34649
 30
0.0
 10
-10.26552
 20
-14.34072
 30
0.0
 10
-10.2684
 20
-14.33675
 30
0.0
 10
-10.27134
 20
-14.33464
 30
0.0
 10
-10.27134
 20
-14.33464
 30
0.0
 10
-10.27425
 20
-14.33252
 30
0.0
 10
-10.27814
 20
-14.33146
 30
0.0
 10
-10.28301
 20
-14.33146
 30
0.0
 10
-10.28301
 20
-14.33146
 30
0.0
 10
-10.28301
 20
-14.33146
 30
0.0
 10
-10.29145
 20
-14.33146
 30
0.0
 10
-10.29145
 20
-14.33146
 30
0.0
  0
SPLINE
  5
81
330
1F
100
AcDbEntity
  8
Layer 1
 62
   250
100
AcDbSpline
210
0.0
220
0.0
230
1.0
 70
    11
 71
     3
 72
    48
 73
    44
 74
     0
 42
0.0000000001
 43
0.0000000001
 40
0.0
 40
0.0
 40
0.0
 40
0.0
 40
0.0909090909090909
 40
0.0909090909090909
 40
0.0909090909090909
 40
0.0909090909090909
 40
0.1818181818181818
 40
0.1818181818181818
 40
0.1818181818181818
 40
0.1818181818181818
 40
0.2727272727272727
 40
0.2727272727272727
 40
0.2727272727272727
 40
0.2727272727272727
 40
0.3636363636363636
 40
0.3636363636363636
 40
0.3636363636363636
 40
0.3636363636363636
 40
0.4545454545454546
 40
0.4545454545454546
 40
0.4545454545454546
 40
0.4545454545454546
 40
0.5454545454545455
 40
0.5454545454545455
 40
0.5454545454545455
 40
0.5454545454545455
 40
0.6363636363636365
 40
0.6363636363636365
 40
0.6363636363636365
 40
0.6363636363636365
 40
0.7272727272727274
 40
0.7272727272727274
 40
0.7272727272727274
 40
0.7272727272727274
 40
0.8181818181818183
 40
0.8181818181818183
 40
0.8181818181818183
 40
0.8181818181818183
 40
0.9090909090909093
 40
0.9090909090909093
 40
0.9090909090909093
 40
0.9090909090909093
 40
1.0
 40
1.0
 40
1.0
 40
1.0
 10
-10.13976
 20
-14.35464
 30
0.0
 10
-10.13976
 20
-14.35464
 30
0.0
 10
-10.11341
 20
-14.35464
 30
0.0
 10
-10.11341
 20
-14.35464
 30
0.0
 10
-10.11341
 20
-14.35464
 30
0.0
 10
-10.11341
 20
-14.35464
 30
0.0
 10
-10.11341
 20
-14.27984
 30
0.0
 10
-10.11341
 20
-14.27984
 30
0.0
 10
-10.11341
 20
-14.27984
 30
0.0
 10
-10.11341
 20
-14.27984
 30
0.0
 10
-10.14045
 20
-14.28542
 30
0.0
 10
-10.14045
 20
-14.28542
 30
0.0
 10
-10.14045
 20
-14.28542
 30
0.0
 10
-10.14045
 20
-14.28542
 30
0.0
 10
-10.14045
 20
-14.2651
 30
0.0
 10
-10.14045
 20
-14.2651
 30
0.0
 10
-10.14045
 20
-14.2651
 30
0.0
 10
-10.14045
 20
-14.2651
 30
0.0
 10
-10.11357
 20
-14.25952
 30
0.0
 10
-10.11357
 20
-14.25952
 30
0.0
 10
-10.11357
 20
-14.25952
 30
0.0
 10
-10.11357
 20
-14.25952
 30
0.0
 10
-10.0852
 20
-14.25952
 30
0.0
 10
-10.0852
 20
-14.25952
 30
0.0
 10
-10.0852
 20
-14.25952
 30
0.0
 10
-10.0852
 20
-14.25952
 30
0.0
 10
-10.0852
 20
-14.35464
 30
0.0
 10
-10.0852
 20
-14.35464
 30
0.0
 10
-10.0852
 20
-14.35464
 30
0.0
 10
-10.0852
 20
-14.35464
 30
0.0
 10
-10.05885
 20
-14.35464
 30
0.0
 10
-10.05885
 20
-14.35464
 30
0.0
 10
-10.05885
 20
-14.35464
 30
0.0
 10
-10.05885
 20
-14.35464
 30
0.0
 10
-10.05885
 20
-14.37525
 30
0.0
 10
-10.05885
 20
-14.37525
 30
0.0
 10
-10.05885
 20
-14.37525
 30
0.0
 10
-10.05885
 20
-14.37525
 30
0.0
 10
-10.13976
 20
-14.37525
 30
0.0
 10
-10.13976
 20
-14.37525
 30
0.0
 10
-10.13976
 20
-14.37525
 30
0.0
 10
-10.13976
 20
-14.37525
 30
0.0
 10
-10.13976
 20
-14.35464
 30
0.0
 10
-10.13976
 20
-14.35464
 30
0.0
  0
SPLINE
  5
82
330
1F
100
AcDbEntity
  8
Layer 1
 62
   250
100
AcDbSpline
210
0.0
220
0.0
230
1.0
 70
    11
 71
     3
 72
    36
 73
    32
 74
     0
 42
0.0000000001
 43
0.0000000001
 40
0.0
 40
0.0
 40
0.0
 40
0.0
 40
0.125
 40
0.125
 40
0.125
 40
0.125
 40
0.25
 40
0.25
 40
0.25
 40
0.25
 40
0.375
 40
0.375
 40
0.375
 40
0.375
 40
0.5
 40
0.5
 40
0.5
 40
0.5
 40
0.625
 40
0.625
 40
0.625
 40
0.625
 40
0.75
 40
0.75
 40
0.75
 40
0.75
 40
0.875
 40
0.875
 40
0.875
 40
0.875
 40
1.0
 40
1.0
 40
1.0
 40
1.0
 10
-9.9249
 20
-14.32749
 30
0.0
 10
-9.92857
 20
-14.32749
 30
0.0
 10
-9.9314
 20
-14.32908
 30
0.0
 10
-9.93344
 20
-14.33226
 30
0.0
 10
-9.93344
 20
-14.33226
 30
0.0
 10
-9.93545
 20
-14.33543
 30
0.0
 10
-9.93646
 20
-14.33998
 30
0.0
 10
-9.93646
 20
-14.34588
 30
0.0
 10
-9.93646
 20
-14.34588
 30
0.0
 10
-9.93646
 20
-14.35181
 30
0.0
 10
-9.93545
 20
-14.35639
 30
0.0
 10
-9.93347
 20
-14.35956
 30
0.0
 10
-9.93347
 20
-14.35956
 30
0.0
 10
-9.93148
 20
-14.36274
 30
0.0
 10
-9.92863
 20
-14.36432
 30
0.0
 10
-9.9249
 20
-14.36432
 30
0.0
 10
-9.9249
 20
-14.36432
 30
0.0
 10
-9.92116
 20
-14.36432
 30
0.0
 10
-9.91833
 20
-14.36274
 30
0.0
 10
-9.91635
 20
-14.35956
 30
0.0
 10
-9.91635
 20
-14.35956
 30
0.0
 10
-9.91439
 20
-14.35639
 30
0.0
 10
-9.91341
 20
-14.35181
 30
0.0
 10
-9.91341
 20
-14.34588
 30
0.0
 10
-9.91341
 20
-14.34588
 30
0.0
 10
-9.91341
 20
-14.33998
 30
0.0
 10
-9.91442
 20
-14.33543
 30
0.0
 10
-9.9164
 20
-14.33226
 30
0.0
 10
-9.9164
 20
-14.33226
 30
0.0
 10
-9.91839
 20
-14.32908
 30
0.0
 10
-9.92122
 20
-14.32749
 30
0.0
 10
-9.9249
 20
-14.32749
 30
0.0
  0
SPLINE
  5
83
330
1F
100
AcDbEntity
  8
Layer 1
 62
   250
100
AcDbSpline
210
0.0
220
0.0
230
1.0
 70
    11
 71
     3
 72
    36
 73
    32
 74
     0
 42
0.0000000001
 43
0.0000000001
 40
0.0
 40
0.0
 40
0.0
 40
0.0
 40
0.125
 40
0.125
 40
0.125
 40
0.125
 40
0.25
 40
0.25
 40
0.25
 40
0.25
 40
0.375
 40
0.375
 40
0.375
 40
0.375
 40
0.5
 40
0.5
 40
0.5
 40
0.5
 40
0.625
 40
0.625
 40
0.625
 40
0.625
 40
0.75
 40
0.75
 40
0.75
 40
0.75
 40
0.875
 40
0.875
 40
0.875
 40
0.875
 40
1.0
 40
1.0
 40
1.0
 40
1.0
 10
-9.9249
 20
-14.31448
 30
0.0
 10
-9.91529
 20
-14.31448
 30
0.0
 10
-9.90772
 20
-14.31725
 30
0.0
 10
-9.90219
 20
-14.32284
 30
0.0
 10
-9.90219
 20
-14.32284
 30
0.0
 10
-9.89666
 20
-14.32842
 30
0.0
 10
-9.89389
 20
-14.33609
 30
0.0
 10
-9.89389
 20
-14.34588
 30
0.0
 10
-9.89389
 20
-14.34588
 30
0.0
 10
-9.89389
 20
-14.35564
 30
0.0
 10
-9.89666
 20
-14.36334
 30
0.0
 10
-9.90219
 20
-14.36901
 30
0.0
 10
-9.90219
 20
-14.36901
 30
0.0
 10
-9.90772
 20
-14.37467
 30
0.0
 10
-9.91529
 20
-14.3775
 30
0.0
 10
-9.9249
 20
-14.3775
 30
0.0
 10
-9.9249
 20
-14.3775
 30
0.0
 10
-9.9345
 20
-14.3775
 30
0.0
 10
-9.94209
 20
-14.37467
 30
0.0
 10
-9.94765
 20
-14.36901
 30
0.0
 10
-9.94765
 20
-14.36901
 30
0.0
 10
-9.95321
 20
-14.36334
 30
0.0
 10
-9.95598
 20
-14.35564
 30
0.0
 10
-9.95598
 20
-14.34588
 30
0.0
 10
-9.95598
 20
-14.34588
 30
0.0
 10
-9.95598
 20
-14.33614
 30
0.0
 10
-9.95321
 20
-14.3285
 30
0.0
 10
-9.94765
 20
-14.32289
 30
0.0
 10
-9.94765
 20
-14.32289
 30
0.0
 10
-9.94209
 20
-14.31728
 30
0.0
 10
-9.9345
 20
-14.31448
 30
0.0
 10
-9.9249
 20
-14.31448
 30
0.0
  0
SPLINE
  5
84
330
1F
100
AcDbEntity
  8
Layer 1
 62
   250
100
AcDbSpline
210
0.0
220
0.0
230
1.0
 70
    11
 71
     3
 72
    20
 73
    16
 74
     0
 42
0.0000000001
 43
0.0000000001
 40
0.0
 40
0.0
 40
0.0
 40
0.0
 40
0.25
 40
0.25
 40
0.25
 40
0.25
 40
0.5
 40
0.5
 40
0.5
 40
0.5
 40
0.75
 40
0.75
 40
0.75
 40
0.75
 40
1.0
 40
1.0
 40
1.0
 40
1.0
 10
-9.99596
 20
-14.3775
 30
0.0
 10
-9.99596
 20
-14.3775
 30
0.0
 10
-10.01308
 20
-14.3775
 30
0.0
 10
-10.01308
 20
-14.3775
 30
0.0
 10
-10.01308
 20
-14.3775
 30
0.0
 10
-10.01308
 20
-14.3775
 30
0.0
 10
-9.94077
 20
-14.25743
 30
0.0
 10
-9.94077
 20
-14.25743
 30
0.0
 10
-9.94077
 20
-14.25743
 30
0.0
 10
-9.94077
 20
-14.25743
 30
0.0
 10
-9.92357
 20
-14.25743
 30
0.0
 10
-9.92357
 20
-14.25743
 30
0.0
 10
-9.92357
 20
-14.25743
 30
0.0
 10
-9.92357
 20
-14.25743
 30
0.0
 10
-9.99596
 20
-14.3775
 30
0.0
 10
-9.99596
 20
-14.3775
 30
0.0
  0
SPLINE
  5
85
330
1F
100
AcDbEntity
  8
Layer 1
 62
   250
100
AcDbSpline
210
0.0
220
0.0
230
1.0
 70
    11
 71
     3
 72
    36
 73
    32
 74
     0
 42
0.0000000001
 43
0.0000000001
 40
0.0
 40
0.0
 40
0.0
 40
0.0
 40
0.125
 40
0.125
 40
0.125
 40
0.125
 40
0.25
 40
0.25
 40
0.25
 40
0.25
 40
0.375
 40
0.375
 40
0.375
 40
0.375
 40
0.5
 40
0.5
 40
0.5
 40
0.5
 40
0.625
 40
0.625
 40
0.625
 40
0.625
 40
0.75
 40
0.75
 40
0.75
 40
0.75
 40
0.875
 40
0.875
 40
0.875
 40
0.875
 40
1.0
 40
1.0
 40
1.0
 40
1.0
 10
-10.01186
 20
-14.25743
 30
0.0
 10
-10.00226
 20
-14.25743
 30
0.0
 10
-9.99469
 20
-14.26024
 30
0.0
 10
-9.98919
 20
-14.26584
 30
0.0
 10
-9.98919
 20
-14.26584
 30
0.0
 10
-9.98369
 20
-14.27145
 30
0.0
 10
-9.98093
 20
-14.27913
 30
0.0
 10
-9.98093
 20
-14.28892
 30
0.0
 10
-9.98093
 20
-14.28892
 30
0.0
 10
-9.98093
 20
-14.29868
 30
0.0
 10
-9.98369
 20
-14.30638
 30
0.0
 10
-9.98919
 20
-14.31201
 30
0.0
 10
-9.98919
 20
-14.31201
 30
0.0
 10
-9.99469
 20
-14.31765
 30
0.0
 10
-10.00226
 20
-14.32045
 30
0.0
 10
-10.01186
 20
-14.32045
 30
0.0
 10
-10.01186
 20
-14.32045
 30
0.0
 10
-10.02147
 20
-14.32045
 30
0.0
 10
-10.02904
 20
-14.31765
 30
0.0
 10
-10.03454
 20
-14.31201
 30
0.0
 10
-10.03454
 20
-14.31201
 30
0.0
 10
-10.04004
 20
-14.30638
 30
0.0
 10
-10.04279
 20
-14.29868
 30
0.0
 10
-10.04279
 20
-14.28892
 30
0.0
 10
-10.04279
 20
-14.28892
 30
0.0
 10
-10.04279
 20
-14.27913
 30
0.0
 10
-10.04004
 20
-14.27145
 30
0.0
 10
-10.03454
 20
-14.26584
 30
0.0
 10
-10.03454
 20
-14.26584
 30
0.0
 10
-10.02904
 20
-14.26024
 30
0.0
 10
-10.02147
 20
-14.25743
 30
0.0
 10
-10.01186
 20
-14.25743
 30
0.0
  0
SPLINE
  5
86
330
1F
100
AcDbEntity
  8
Layer 1
 62
   250
100
AcDbSpline
210
0.0
220
0.0
230
1.0
 70
    11
 71
     3
 72
    36
 73
    32
 74
     0
 42
0.0000000001
 43
0.0000000001
 40
0.0
 40
0.0
 40
0.0
 40
0.0
 40
0.125
 40
0.125
 40
0.125
 40
0.125
 40
0.25
 40
0.25
 40
0.25
 40
0.25
 40
0.375
 40
0.375
 40
0.375
 40
0.375
 40
0.5
 40
0.5
 40
0.5
 40
0.5
 40
0.625
 40
0.625
 40
0.625
 40
0.625
 40
0.75
 40
0.75
 40
0.75
 40
0.75
 40
0.875
 40
0.875
 40
0.875
 40
0.875
 40
1.0
 40
1.0
 40
1.0
 40
1.0
 10
-10.01186
 20
-14.27045
 30
0.0
 10
-10.01557
 20
-14.27045
 30
0.0
 10
-10.01845
 20
-14.27206
 30
0.0
 10
-10.02046
 20
-14.27526
 30
0.0
 10
-10.02046
 20
-14.27526
 30
0.0
 10
-10.02247
 20
-14.27847
 30
0.0
 10
-10.02348
 20
-14.28302
 30
0.0
 10
-10.02348
 20
-14.28892
 30
0.0
 10
-10.02348
 20
-14.28892
 30
0.0
 10
-10.02348
 20
-14.29484
 30
0.0
 10
-10.02247
 20
-14.29945
 30
0.0
 10
-10.02046
 20
-14.30267
 30
0.0
 10
-10.02046
 20
-14.30267
 30
0.0
 10
-10.01845
 20
-14.3059
 30
0.0
 10
-10.01557
 20
-14.30752
 30
0.0
 10
-10.01186
 20
-14.30752
 30
0.0
 10
-10.01186
 20
-14.30752
 30
0.0
 10
-10.00813
 20
-14.30752
 30
0.0
 10
-10.00528
 20
-14.3059
 30
0.0
 10
-10.00329
 20
-14.30267
 30
0.0
 10
-10.00329
 20
-14.30267
 30
0.0
 10
-10.00131
 20
-14.29945
 30
0.0
 10
-10.0003
 20
-14.29484
 30
0.0
 10
-10.0003
 20
-14.28892
 30
0.0
 10
-10.0003
 20
-14.28892
 30
0.0
 10
-10.0003
 20
-14.28302
 30
0.0
 10
-10.00131
 20
-14.27847
 30
0.0
 10
-10.00332
 20
-14.27526
 30
0.0
 10
-10.00332
 20
-14.27526
 30
0.0
 10
-10.00533
 20
-14.27206
 30
0.0
 10
-10.00819
 20
-14.27045
 30
0.0
 10
-10.01186
 20
-14.27045
 30
0.0
  0
SPLINE
  5
87
330
1F
100
AcDbEntity
  8
Layer 1
 62
   250
100
AcDbSpline
210
0.0
220
0.0
230
1.0
 70
    11
 71
     3
 72
    36
 73
    32
 74
     0
 42
0.0000000001
 43
0.0000000001
 40
0.0
 40
0.0
 40
0.0
 40
0.0
 40
0.125
 40
0.125
 40
0.125
 40
0.125
 40
0.25
 40
0.25
 40
0.25
 40
0.25
 40
0.375
 40
0.375
 40
0.375
 40
0.375
 40
0.5
 40
0.5
 40
0.5
 40
0.5
 40
0.625
 40
0.625
 40
0.625
 40
0.625
 40
0.75
 40
0.75
 40
0.75
 40
0.75
 40
0.875
 40
0.875
 40
0.875
 40
0.875
 40
1.0
 40
1.0
 40
1.0
 40
1.0
 10
-10.8544
 20
-14.45713
 30
0.0
 10
-10.85896
 20
-14.45713
 30
0.0
 10
-10.86241
 20
-14.45889
 30
0.0
 10
-10.86476
 20
-14.46244
 30
0.0
 10
-10.86476
 20
-14.46244
 30
0.0
 10
-10.86711
 20
-14.46599
 30
0.0
 10
-10.86828
 20
-14.47126
 30
0.0
 10
-10.86828
 20
-14.47821
 30
0.0
 10
-10.86828
 20
-14.47821
 30
0.0
 10
-10.86828
 20
-14.48514
 30
0.0
 10
-10.86711
 20
-14.49039
 30
0.0
 10
-10.86476
 20
-14.49396
 30
0.0
 10
-10.86476
 20
-14.49396
 30
0.0
 10
-10.86241
 20
-14.49753
 30
0.0
 10
-10.85896
 20
-14.49931
 30
0.0
 10
-10.8544
 20
-14.49931
 30
0.0
 10
-10.8544
 20
-14.49931
 30
0.0
 10
-10.84981
 20
-14.49931
 30
0.0
 10
-10.84635
 20
-14.49753
 30
0.0
 10
-10.844
 20
-14.49396
 30
0.0
 10
-10.844
 20
-14.49396
 30
0.0
 10
-10.84165
 20
-14.49039
 30
0.0
 10
-10.84048
 20
-14.48514
 30
0.0
 10
-10.84048
 20
-14.47821
 30
0.0
 10
-10.84048
 20
-14.47821
 30
0.0
 10
-10.84048
 20
-14.47126
 30
0.0
 10
-10.84165
 20
-14.46599
 30
0.0
 10
-10.844
 20
-14.46244
 30
0.0
 10
-10.844
 20
-14.46244
 30
0.0
 10
-10.84635
 20
-14.45889
 30
0.0
 10
-10.84981
 20
-14.45713
 30
0.0
 10
-10.8544
 20
-14.45713
 30
0.0
  0
SPLINE
  5
88
330
1F
100
AcDbEntity
  8
Layer 1
 62
   250
100
AcDbSpline
210
0.0
220
0.0
230
1.0
 70
    11
 71
     3
 72
    36
 73
    32
 74
     0
 42
0.0000000001
 43
0.0000000001
 40
0.0
 40
0.0
 40
0.0
 40
0.0
 40
0.125
 40
0.125
 40
0.125
 40
0.125
 40
0.25
 40
0.25
 40
0.25
 40
0.25
 40
0.375
 40
0.375
 40
0.375
 40
0.375
 40
0.5
 40
0.5
 40
0.5
 40
0.5
 40
0.625
 40
0.625
 40
0.625
 40
0.625
 40
0.75
 40
0.75
 40
0.75
 40
0.75
 40
0.875
 40
0.875
 40
0.875
 40
0.875
 40
1.0
 40
1.0
 40
1.0
 40
1.0
 10
-10.8544
 20
-14.44951
 30
0.0
 10
-10.84681
 20
-14.44951
 30
0.0
 10
-10.84101
 20
-14.45196
 30
0.0
 10
-10.837
 20
-14.45688
 30
0.0
 10
-10.837
 20
-14.45688
 30
0.0
 10
-10.83298
 20
-14.46179
 30
0.0
 10
-10.83096
 20
-14.46891
 30
0.0
 10
-10.83096
 20
-14.47821
 30
0.0
 10
-10.83096
 20
-14.47821
 30
0.0
 10
-10.83096
 20
-14.48756
 30
0.0
 10
-10.83296
 20
-14.49468
 30
0.0
 10
-10.83696
 20
-14.49958
 30
0.0
 10
-10.83696
 20
-14.49958
 30
0.0
 10
-10.84098
 20
-14.50448
 30
0.0
 10
-10.84678
 20
-14.50693
 30
0.0
 10
-10.8544
 20
-14.50693
 30
0.0
 10
-10.8544
 20
-14.50693
 30
0.0
 10
-10.862
 20
-14.50693
 30
0.0
 10
-10.86778
 20
-14.50448
 30
0.0
 10
-10.8718
 20
-14.49958
 30
0.0
 10
-10.8718
 20
-14.49958
 30
0.0
 10
-10.8758
 20
-14.49468
 30
0.0
 10
-10.8778
 20
-14.48756
 30
0.0
 10
-10.8778
 20
-14.47821
 30
0.0
 10
-10.8778
 20
-14.47821
 30
0.0
 10
-10.8778
 20
-14.46891
 30
0.0
 10
-10.8758
 20
-14.46179
 30
0.0
 10
-10.8718
 20
-14.45688
 30
0.0
 10
-10.8718
 20
-14.45688
 30
0.0
 10
-10.86778
 20
-14.45196
 30
0.0
 10
-10.862
 20
-14.44951
 30
0.0
 10
-10.8544
 20
-14.44951
 30
0.0
  0
SPLINE
  5
89
330
1F
100
AcDbEntity
  8
Layer 1
 62
   250
100
AcDbSpline
210
0.0
220
0.0
230
1.0
 70
    11
 71
     3
 72
    36
 73
    32
 74
     0
 42
0.0000000001
 43
0.0000000001
 40
0.0
 40
0.0
 40
0.0
 40
0.0
 40
0.125
 40
0.125
 40
0.125
 40
0.125
 40
0.25
 40
0.25
 40
0.25
 40
0.25
 40
0.375
 40
0.375
 40
0.375
 40
0.375
 40
0.5
 40
0.5
 40
0.5
 40
0.5
 40
0.625
 40
0.625
 40
0.625
 40
0.625
 40
0.75
 40
0.75
 40
0.75
 40
0.75
 40
0.875
 40
0.875
 40
0.875
 40
0.875
 40
1.0
 40
1.0
 40
1.0
 40
1.0
 10
-10.7942
 20
-14.45713
 30
0.0
 10
-10.79876
 20
-14.45713
 30
0.0
 10
-10.80221
 20
-14.45889
 30
0.0
 10
-10.80456
 20
-14.46244
 30
0.0
 10
-10.80456
 20
-14.46244
 30
0.0
 10
-10.80691
 20
-14.46599
 30
0.0
 10
-10.80808
 20
-14.47126
 30
0.0
 10
-10.80808
 20
-14.47821
 30
0.0
 10
-10.80808
 20
-14.47821
 30
0.0
 10
-10.80808
 20
-14.48514
 30
0.0
 10
-10.80691
 20
-14.49039
 30
0.0
 10
-10.80456
 20
-14.49396
 30
0.0
 10
-10.80456
 20
-14.49396
 30
0.0
 10
-10.80221
 20
-14.49753
 30
0.0
 10
-10.79876
 20
-14.49931
 30
0.0
 10
-10.7942
 20
-14.49931
 30
0.0
 10
-10.7942
 20
-14.49931
 30
0.0
 10
-10.78961
 20
-14.49931
 30
0.0
 10
-10.78615
 20
-14.49753
 30
0.0
 10
-10.7838
 20
-14.49396
 30
0.0
 10
-10.7838
 20
-14.49396
 30
0.0
 10
-10.78145
 20
-14.49039
 30
0.0
 10
-10.78028
 20
-14.48514
 30
0.0
 10
-10.78028
 20
-14.47821
 30
0.0
 10
-10.78028
 20
-14.47821
 30
0.0
 10
-10.78028
 20
-14.47126
 30
0.0
 10
-10.78145
 20
-14.46599
 30
0.0
 10
-10.7838
 20
-14.46244
 30
0.0
 10
-10.7838
 20
-14.46244
 30
0.0
 10
-10.78615
 20
-14.45889
 30
0.0
 10
-10.78961
 20
-14.45713
 30
0.0
 10
-10.7942
 20
-14.45713
 30
0.0
  0
SPLINE
  5
8A
330
1F
100
AcDbEntity
  8
Layer 1
 62
   250
100
AcDbSpline
210
0.0
220
0.0
230
1.0
 70
    11
 71
     3
 72
    36
 73
    32
 74
     0
 42
0.0000000001
 43
0.0000000001
 40
0.0
 40
0.0
 40
0.0
 40
0.0
 40
0.125
 40
0.125
 40
0.125
 40
0.125
 40
0.25
 40
0.25
 40
0.25
 40
0.25
 40
0.375
 40
0.375
 40
0.375
 40
0.375
 40
0.5
 40
0.5
 40
0.5
 40
0.5
 40
0.625
 40
0.625
 40
0.625
 40
0.625
 40
0.75
 40
0.75
 40
0.75
 40
0.75
 40
0.875
 40
0.875
 40
0.875
 40
0.875
 40
1.0
 40
1.0
 40
1.0
 40
1.0
 10
-10.7942
 20
-14.44951
 30
0.0
 10
-10.78661
 20
-14.44951
 30
0.0
 10
-10.78081
 20
-14.45196
 30
0.0
 10
-10.7768
 20
-14.45688
 30
0.0
 10
-10.7768
 20
-14.45688
 30
0.0
 10
-10.77278
 20
-14.46179
 30
0.0
 10
-10.77076
 20
-14.46891
 30
0.0
 10
-10.77076
 20
-14.47821
 30
0.0
 10
-10.77076
 20
-14.47821
 30
0.0
 10
-10.77076
 20
-14.48756
 30
0.0
 10
-10.77276
 20
-14.49468
 30
0.0
 10
-10.77676
 20
-14.49958
 30
0.0
 10
-10.77676
 20
-14.49958
 30
0.0
 10
-10.78078
 20
-14.50448
 30
0.0
 10
-10.78658
 20
-14.50693
 30
0.0
 10
-10.7942
 20
-14.50693
 30
0.0
 10
-10.7942
 20
-14.50693
 30
0.0
 10
-10.8018
 20
-14.50693
 30
0.0
 10
-10.80758
 20
-14.50448
 30
0.0
 10
-10.8116
 20
-14.49958
 30
0.0
 10
-10.8116
 20
-14.49958
 30
0.0
 10
-10.8156
 20
-14.49468
 30
0.0
 10
-10.8176
 20
-14.48756
 30
0.0
 10
-10.8176
 20
-14.47821
 30
0.0
 10
-10.8176
 20
-14.47821
 30
0.0
 10
-10.8176
 20
-14.46891
 30
0.0
 10
-10.8156
 20
-14.46179
 30
0.0
 10
-10.8116
 20
-14.45688
 30
0.0
 10
-10.8116
 20
-14.45688
 30
0.0
 10
-10.80758
 20
-14.45196
 30
0.0
 10
-10.8018
 20
-14.44951
 30
0.0
 10
-10.7942
 20
-14.44951
 30
0.0
  0
SPLINE
  5
8B
330
1F
100
AcDbEntity
  8
Layer 1
 62
   250
100
AcDbSpline
210
0.0
220
0.0
230
1.0
 70
    11
 71
     3
 72
   112
 73
   108
 74
     0
 42
0.0000000001
 43
0.0000000001
 40
0.0
 40
0.0
 40
0.0
 40
0.0
 40
0.037037037037037
 40
0.037037037037037
 40
0.037037037037037
 40
0.037037037037037
 40
0.0740740740740741
 40
0.0740740740740741
 40
0.0740740740740741
 40
0.0740740740740741
 40
0.1111111111111111
 40
0.1111111111111111
 40
0.1111111111111111
 40
0.1111111111111111
 40
0.1481481481481481
 40
0.1481481481481481
 40
0.1481481481481481
 40
0.1481481481481481
 40
0.1851851851851852
 40
0.1851851851851852
 40
0.1851851851851852
 40
0.1851851851851852
 40
0.2222222222222222
 40
0.2222222222222222
 40
0.2222222222222222
 40
0.2222222222222222
 40
0.2592592592592592
 40
0.2592592592592592
 40
0.2592592592592592
 40
0.2592592592592592
 40
0.2962962962962963
 40
0.2962962962962963
 40
0.2962962962962963
 40
0.2962962962962963
 40
0.3333333333333333
 40
0.3333333333333333
 40
0.3333333333333333
 40
0.3333333333333333
 40
0.3703703703703703
 40
0.3703703703703703
 40
0.3703703703703703
 40
0.3703703703703703
 40
0.4074074074074074
 40
0.4074074074074074
 40
0.4074074074074074
 40
0.4074074074074074
 40
0.4444444444444444
 40
0.4444444444444444
 40
0.4444444444444444
 40
0.4444444444444444
 40
0.4814814814814815
 40
0.4814814814814815
 40
0.4814814814814815
 40
0.4814814814814815
 40
0.5185185185185185
 40
0.5185185185185185
 40
0.5185185185185185
 40
0.5185185185185185
 40
0.5555555555555556
 40
0.5555555555555556
 40
0.5555555555555556
 40
0.5555555555555556
 40
0.5925925925925926
 40
0.5925925925925926
 40
0.5925925925925926
 40
0.5925925925925926
 40
0.6296296296296295
 40
0.6296296296296295
 40
0.6296296296296295
 40
0.6296296296296295
 40
0.6666666666666665
 40
0.6666666666666665
 40
0.6666666666666665
 40
0.6666666666666665
 40
0.7037037037037035
 40
0.7037037037037035
 40
0.7037037037037035
 40
0.7037037037037035
 40
0.7407407407407405
 40
0.7407407407407405
 40
0.7407407407407405
 40
0.7407407407407405
 40
0.7777777777777775
 40
0.7777777777777775
 40
0.7777777777777775
 40
0.7777777777777775
 40
0.8148148148148144
 40
0.8148148148148144
 40
0.8148148148148144
 40
0.8148148148148144
 40
0.8518518518518514
 40
0.8518518518518514
 40
0.8518518518518514
 40
0.8518518518518514
 40
0.8888888888888884
 40
0.8888888888888884
 40
0.8888888888888884
 40
0.8888888888888884
 40
0.9259259259259254
 40
0.9259259259259254
 40
0.9259259259259254
 40
0.9259259259259254
 40
0.9629629629629624
 40
0.9629629629629624
 40
0.9629629629629624
 40
0.9629629629629624
 40
1.0
 40
1.0
 40
1.0
 40
1.0
 10
-10.73108
 20
-14.45639
 30
0.0
 10
-10.72998
 20
-14.45404
 30
0.0
 10
-10.72856
 20
-14.45231
 30
0.0
 10
-10.72685
 20
-14.45119
 30
0.0
 10
-10.72685
 20
-14.45119
 30
0.0
 10
-10.72515
 20
-14.45008
 30
0.0
 10
-10.72308
 20
-14.44951
 30
0.0
 10
-10.72068
 20
-14.44951
 30
0.0
 10
-10.72068
 20
-14.44951
 30
0.0
 10
-10.71628
 20
-14.44951
 30
0.0
 10
-10.71318
 20
-14.45121
 30
0.0
 10
-10.71138
 20
-14.45461
 30
0.0
 10
-10.71138
 20
-14.45461
 30
0.0
 10
-10.70956
 20
-14.45801
 30
0.0
 10
-10.70866
 20
-14.46441
 30
0.0
 10
-10.70866
 20
-14.47383
 30
0.0
 10
-10.70866
 20
-14.47383
 30
0.0
 10
-10.70866
 20
-14.47383
 30
0.0
 10
-10.70866
 20
-14.50551
 30
0.0
 10
-10.70866
 20
-14.50551
 30
0.0
 10
-10.70866
 20
-14.50551
 30
0.0
 10
-10.70866
 20
-14.50551
 30
0.0
 10
-10.71686
 20
-14.50551
 30
0.0
 10
-10.71686
 20
-14.50551
 30
0.0
 10
-10.71686
 20
-14.50551
 30
0.0
 10
-10.71686
 20
-14.50551
 30
0.0
 10
-10.71686
 20
-14.47421
 30
0.0
 10
-10.71686
 20
-14.47421
 30
0.0
 10
-10.71686
 20
-14.47421
 30
0.0
 10
-10.71686
 20
-14.46649
 30
0.0
 10
-10.7173
 20
-14.46171
 30
0.0
 10
-10.71816
 20
-14.45983
 30
0.0
 10
-10.71816
 20
-14.45983
 30
0.0
 10
-10.71901
 20
-14.45796
 30
0.0
 10
-10.7206
 20
-14.45703
 30
0.0
 10
-10.72288
 20
-14.45703
 30
0.0
 10
-10.72288
 20
-14.45703
 30
0.0
 10
-10.72548
 20
-14.45703
 30
0.0
 10
-10.72726
 20
-14.45803
 30
0.0
 10
-10.72823
 20
-14.46003
 30
0.0
 10
-10.72823
 20
-14.46003
 30
0.0
 10
-10.72918
 20
-14.46203
 30
0.0
 10
-10.72966
 20
-14.46676
 30
0.0
 10
-10.72966
 20
-14.47421
 30
0.0
 10
-10.72966
 20
-14.47421
 30
0.0
 10
-10.72966
 20
-14.47421
 30
0.0
 10
-10.72966
 20
-14.50551
 30
0.0
 10
-10.72966
 20
-14.50551
 30
0.0
 10
-10.72966
 20
-14.50551
 30
0.0
 10
-10.72966
 20
-14.50551
 30
0.0
 10
-10.73786
 20
-14.50551
 30
0.0
 10
-10.73786
 20
-14.50551
 30
0.0
 10
-10.73786
 20
-14.50551
 30
0.0
 10
-10.73786
 20
-14.50551
 30
0.0
 10
-10.73786
 20
-14.47421
 30
0.0
 10
-10.73786
 20
-14.47421
 30
0.0
 10
-10.73786
 20
-14.47421
 30
0.0
 10
-10.73786
 20
-14.46639
 30
0.0
 10
-10.73833
 20
-14.46158
 30
0.0
 10
-10.73926
 20
-14.45976
 30
0.0
 10
-10.73926
 20
-14.45976
 30
0.0
 10
-10.74018
 20
-14.45794
 30
0.0
 10
-10.74185
 20
-14.45703
 30
0.0
 10
-10.74426
 20
-14.45703
 30
0.0
 10
-10.74426
 20
-14.45703
 30
0.0
 10
-10.74665
 20
-14.45703
 30
0.0
 10
-10.7483
 20
-14.45803
 30
0.0
 10
-10.74921
 20
-14.46003
 30
0.0
 10
-10.74921
 20
-14.46003
 30
0.0
 10
-10.75015
 20
-14.46203
 30
0.0
 10
-10.75061
 20
-14.46676
 30
0.0
 10
-10.75061
 20
-14.47421
 30
0.0
 10
-10.75061
 20
-14.47421
 30
0.0
 10
-10.75061
 20
-14.47421
 30
0.0
 10
-10.75061
 20
-14.50551
 30
0.0
 10
-10.75061
 20
-14.50551
 30
0.0
 10
-10.75061
 20
-14.50551
 30
0.0
 10
-10.75061
 20
-14.50551
 30
0.0
 10
-10.75876
 20
-14.50551
 30
0.0
 10
-10.75876
 20
-14.50551
 30
0.0
 10
-10.75876
 20
-14.50551
 30
0.0
 10
-10.75876
 20
-14.50551
 30
0.0
 10
-10.75876
 20
-14.45083
 30
0.0
 10
-10.75876
 20
-14.45083
 30
0.0
 10
-10.75876
 20
-14.45083
 30
0.0
 10
-10.75876
 20
-14.45083
 30
0.0
 10
-10.75061
 20
-14.45083
 30
0.0
 10
-10.75061
 20
-14.45083
 30
0.0
 10
-10.75061
 20
-14.45083
 30
0.0
 10
-10.75061
 20
-14.45083
 30
0.0
 10
-10.75061
 20
-14.45551
 30
0.0
 10
-10.75061
 20
-14.45551
 30
0.0
 10
-10.75061
 20
-14.45551
 30
0.0
 10
-10.74955
 20
-14.45356
 30
0.0
 10
-10.7482
 20
-14.45208
 30
0.0
 10
-10.74658
 20
-14.45104
 30
0.0
 10
-10.74658
 20
-14.45104
 30
0.0
 10
-10.74498
 20
-14.45003
 30
0.0
 10
-10.74315
 20
-14.44951
 30
0.0
 10
-10.7411
 20
-14.44951
 30
0.0
 10
-10.7411
 20
-14.44951
 30
0.0
 10
-10.73861
 20
-14.44951
 30
0.0
 10
-10.73656
 20
-14.45008
 30
0.0
 10
-10.73491
 20
-14.45121
 30
0.0
 10
-10.73491
 20
-14.45121
 30
0.0
 10
-10.73326
 20
-14.45236
 30
0.0
 10
-10.732
 20
-14.45408
 30
0.0
 10
-10.73108
 20
-14.45639
 30
0.0
  0
SPLINE
  5
8C
330
1F
100
AcDbEntity
  8
Layer 1
 62
   250
100
AcDbSpline
210
0.0
220
0.0
230
1.0
 70
    11
 71
     3
 72
    20
 73
    16
 74
     0
 42
0.0000000001
 43
0.0000000001
 40
0.0
 40
0.0
 40
0.0
 40
0.0
 40
0.25
 40
0.25
 40
0.25
 40
0.25
 40
0.5
 40
0.5
 40
0.5
 40
0.5
 40
0.75
 40
0.75
 40
0.75
 40
0.75
 40
1.0
 40
1.0
 40
1.0
 40
1.0
 10
-10.68
 20
-14.49061
 30
0.0
 10
-10.68
 20
-14.49061
 30
0.0
 10
-10.6677
 20
-14.49061
 30
0.0
 10
-10.6677
 20
-14.49061
 30
0.0
 10
-10.6677
 20
-14.49061
 30
0.0
 10
-10.6677
 20
-14.49061
 30
0.0
 10
-10.6677
 20
-14.50551
 30
0.0
 10
-10.6677
 20
-14.50551
 30
0.0
 10
-10.6677
 20
-14.50551
 30
0.0
 10
-10.6677
 20
-14.50551
 30
0.0
 10
-10.68
 20
-14.50551
 30
0.0
 10
-10.68
 20
-14.50551
 30
0.0
 10
-10.68
 20
-14.50551
 30
0.0
 10
-10.68
 20
-14.50551
 30
0.0
 10
-10.68
 20
-14.49061
 30
0.0
 10
-10.68
 20
-14.49061
 30
0.0
  0
SPLINE
  5
8D
330
1F
100
AcDbEntity
  8
Layer 1
 62
   250
100
AcDbSpline
210
0.0
220
0.0
230
1.0
 70
    11
 71
     3
 72
    52
 73
    48
 74
     0
 42
0.0000000001
 43
0.0000000001
 40
0.0
 40
0.0
 40
0.0
 40
0.0
 40
0.0833333333333333
 40
0.0833333333333333
 40
0.0833333333333333
 40
0.0833333333333333
 40
0.1666666666666667
 40
0.1666666666666667
 40
0.1666666666666667
 40
0.1666666666666667
 40
0.25
 40
0.25
 40
0.25
 40
0.25
 40
0.3333333333333333
 40
0.3333333333333333
 40
0.3333333333333333
 40
0.3333333333333333
 40
0.4166666666666666
 40
0.4166666666666666
 40
0.4166666666666666
 40
0.4166666666666666
 40
0.4999999999999999
 40
0.4999999999999999
 40
0.4999999999999999
 40
0.4999999999999999
 40
0.5833333333333333
 40
0.5833333333333333
 40
0.5833333333333333
 40
0.5833333333333333
 40
0.6666666666666666
 40
0.6666666666666666
 40
0.6666666666666666
 40
0.6666666666666666
 40
0.75
 40
0.75
 40
0.75
 40
0.75
 40
0.8333333333333334
 40
0.8333333333333334
 40
0.8333333333333334
 40
0.8333333333333334
 40
0.9166666666666667
 40
0.9166666666666667
 40
0.9166666666666667
 40
0.9166666666666667
 40
1.0
 40
1.0
 40
1.0
 40
1.0
 10
-10.61248
 20
-14.48569
 30
0.0
 10
-10.61248
 20
-14.48973
 30
0.0
 10
-10.61175
 20
-14.49276
 30
0.0
 10
-10.61026
 20
-14.49481
 30
0.0
 10
-10.61026
 20
-14.49481
 30
0.0
 10
-10.60878
 20
-14.49686
 30
0.0
 10
-10.6066
 20
-14.49789
 30
0.0
 10
-10.6037
 20
-14.49789
 30
0.0
 10
-10.6037
 20
-14.49789
 30
0.0
 10
-10.6037
 20
-14.49789
 30
0.0
 10
-10.5932
 20
-14.49789
 30
0.0
 10
-10.5932
 20
-14.49789
 30
0.0
 10
-10.5932
 20
-14.49789
 30
0.0
 10
-10.5932
 20
-14.49789
 30
0.0
 10
-10.5932
 20
-14.50551
 30
0.0
 10
-10.5932
 20
-14.50551
 30
0.0
 10
-10.5932
 20
-14.50551
 30
0.0
 10
-10.5932
 20
-14.50551
 30
0.0
 10
-10.60456
 20
-14.50551
 30
0.0
 10
-10.60456
 20
-14.50551
 30
0.0
 10
-10.60456
 20
-14.50551
 30
0.0
 10
-10.60995
 20
-14.50551
 30
0.0
 10
-10.6141
 20
-14.50378
 30
0.0
 10
-10.61705
 20
-14.50033
 30
0.0
 10
-10.61705
 20
-14.50033
 30
0.0
 10
-10.62
 20
-14.49688
 30
0.0
 10
-10.62146
 20
-14.49199
 30
0.0
 10
-10.62146
 20
-14.48569
 30
0.0
 10
-10.62146
 20
-14.48569
 30
0.0
 10
-10.62146
 20
-14.48569
 30
0.0
 10
-10.62146
 20
-14.43603
 30
0.0
 10
-10.62146
 20
-14.43603
 30
0.0
 10
-10.62146
 20
-14.43603
 30
0.0
 10
-10.62146
 20
-14.43603
 30
0.0
 10
-10.63586
 20
-14.43603
 30
0.0
 10
-10.63586
 20
-14.43603
 30
0.0
 10
-10.63586
 20
-14.43603
 30
0.0
 10
-10.63586
 20
-14.43603
 30
0.0
 10
-10.63586
 20
-14.42899
 30
0.0
 10
-10.63586
 20
-14.42899
 30
0.0
 10
-10.63586
 20
-14.42899
 30
0.0
 10
-10.63586
 20
-14.42899
 30
0.0
 10
-10.61248
 20
-14.42899
 30
0.0
 10
-10.61248
 20
-14.42899
 30
0.0
 10
-10.61248
 20
-14.42899
 30
0.0
 10
-10.61248
 20
-14.42899
 30
0.0
 10
-10.61248
 20
-14.48569
 30
0.0
 10
-10.61248
 20
-14.48569
 30
0.0
  0
SPLINE
  5
8E
330
1F
100
AcDbEntity
  8
Layer 1
 62
   250
100
AcDbSpline
210
0.0
220
0.0
230
1.0
 70
    11
 71
     3
 72
    76
 73
    72
 74
     0
 42
0.0000000001
 43
0.0000000001
 40
0.0
 40
0.0
 40
0.0
 40
0.0
 40
0.0555555555555556
 40
0.0555555555555556
 40
0.0555555555555556
 40
0.0555555555555556
 40
0.1111111111111111
 40
0.1111111111111111
 40
0.1111111111111111
 40
0.1111111111111111
 40
0.1666666666666667
 40
0.1666666666666667
 40
0.1666666666666667
 40
0.1666666666666667
 40
0.2222222222222222
 40
0.2222222222222222
 40
0.2222222222222222
 40
0.2222222222222222
 40
0.2777777777777778
 40
0.2777777777777778
 40
0.2777777777777778
 40
0.2777777777777778
 40
0.3333333333333334
 40
0.3333333333333334
 40
0.3333333333333334
 40
0.3333333333333334
 40
0.388888888888889
 40
0.388888888888889
 40
0.388888888888889
 40
0.388888888888889
 40
0.4444444444444445
 40
0.4444444444444445
 40
0.4444444444444445
 40
0.4444444444444445
 40
0.5000000000000001
 40
0.5000000000000001
 40
0.5000000000000001
 40
0.5000000000000001
 40
0.5555555555555557
 40
0.5555555555555557
 40
0.5555555555555557
 40
0.5555555555555557
 40
0.6111111111111113
 40
0.6111111111111113
 40
0.6111111111111113
 40
0.6111111111111113
 40
0.6666666666666669
 40
0.6666666666666669
 40
0.6666666666666669
 40
0.6666666666666669
 40
0.7222222222222224
 40
0.7222222222222224
 40
0.7222222222222224
 40
0.7222222222222224
 40
0.777777777777778
 40
0.777777777777778
 40
0.777777777777778
 40
0.777777777777778
 40
0.8333333333333336
 40
0.8333333333333336
 40
0.8333333333333336
 40
0.8333333333333336
 40
0.8888888888888892
 40
0.8888888888888892
 40
0.8888888888888892
 40
0.8888888888888892
 40
0.9444444444444448
 40
0.9444444444444448
 40
0.9444444444444448
 40
0.9444444444444448
 40
1.0
 40
1.0
 40
1.0
 40
1.0
 10
-10.5535
 20
-14.43529
 30
0.0
 10
-10.5535
 20
-14.43529
 30
0.0
 10
-10.5535
 20
-14.45083
 30
0.0
 10
-10.5535
 20
-14.45083
 30
0.0
 10
-10.5535
 20
-14.45083
 30
0.0
 10
-10.5535
 20
-14.45083
 30
0.0
 10
-10.53308
 20
-14.45083
 30
0.0
 10
-10.53308
 20
-14.45083
 30
0.0
 10
-10.53308
 20
-14.45083
 30
0.0
 10
-10.53308
 20
-14.45083
 30
0.0
 10
-10.53308
 20
-14.45781
 30
0.0
 10
-10.53308
 20
-14.45781
 30
0.0
 10
-10.53308
 20
-14.45781
 30
0.0
 10
-10.53308
 20
-14.45781
 30
0.0
 10
-10.5535
 20
-14.45781
 30
0.0
 10
-10.5535
 20
-14.45781
 30
0.0
 10
-10.5535
 20
-14.45781
 30
0.0
 10
-10.5535
 20
-14.45781
 30
0.0
 10
-10.5535
 20
-14.48749
 30
0.0
 10
-10.5535
 20
-14.48749
 30
0.0
 10
-10.5535
 20
-14.48749
 30
0.0
 10
-10.5535
 20
-14.49153
 30
0.0
 10
-10.55273
 20
-14.49434
 30
0.0
 10
-10.5512
 20
-14.49593
 30
0.0
 10
-10.5512
 20
-14.49593
 30
0.0
 10
-10.54966
 20
-14.49753
 30
0.0
 10
-10.547
 20
-14.49833
 30
0.0
 10
-10.5432
 20
-14.49833
 30
0.0
 10
-10.5432
 20
-14.49833
 30
0.0
 10
-10.5432
 20
-14.49833
 30
0.0
 10
-10.53308
 20
-14.49833
 30
0.0
 10
-10.53308
 20
-14.49833
 30
0.0
 10
-10.53308
 20
-14.49833
 30
0.0
 10
-10.53308
 20
-14.49833
 30
0.0
 10
-10.53308
 20
-14.50551
 30
0.0
 10
-10.53308
 20
-14.50551
 30
0.0
 10
-10.53308
 20
-14.50551
 30
0.0
 10
-10.53308
 20
-14.50551
 30
0.0
 10
-10.54406
 20
-14.50551
 30
0.0
 10
-10.54406
 20
-14.50551
 30
0.0
 10
-10.54406
 20
-14.50551
 30
0.0
 10
-10.55081
 20
-14.50551
 30
0.0
 10
-10.55556
 20
-14.50416
 30
0.0
 10
-10.55833
 20
-14.50146
 30
0.0
 10
-10.55833
 20
-14.50146
 30
0.0
 10
-10.5611
 20
-14.49876
 30
0.0
 10
-10.56248
 20
-14.49409
 30
0.0
 10
-10.56248
 20
-14.48749
 30
0.0
 10
-10.56248
 20
-14.48749
 30
0.0
 10
-10.56248
 20
-14.48749
 30
0.0
 10
-10.56248
 20
-14.45781
 30
0.0
 10
-10.56248
 20
-14.45781
 30
0.0
 10
-10.56248
 20
-14.45781
 30
0.0
 10
-10.56248
 20
-14.45781
 30
0.0
 10
-10.57708
 20
-14.45781
 30
0.0
 10
-10.57708
 20
-14.45781
 30
0.0
 10
-10.57708
 20
-14.45781
 30
0.0
 10
-10.57708
 20
-14.45781
 30
0.0
 10
-10.57708
 20
-14.45083
 30
0.0
 10
-10.57708
 20
-14.45083
 30
0.0
 10
-10.57708
 20
-14.45083
 30
0.0
 10
-10.57708
 20
-14.45083
 30
0.0
 10
-10.56248
 20
-14.45083
 30
0.0
 10
-10.56248
 20
-14.45083
 30
0.0
 10
-10.56248
 20
-14.45083
 30
0.0
 10
-10.56248
 20
-14.45083
 30
0.0
 10
-10.56248
 20
-14.43529
 30
0.0
 10
-10.56248
 20
-14.43529
 30
0.0
 10
-10.56248
 20
-14.43529
 30
0.0
 10
-10.56248
 20
-14.43529
 30
0.0
 10
-10.5535
 20
-14.43529
 30
0.0
 10
-10.5535
 20
-14.43529
 30
0.0
  0
SPLINE
  5
8F
330
1F
100
AcDbEntity
  8
Layer 1
 62
   250
100
AcDbSpline
210
0.0
220
0.0
230
1.0
 70
    11
 71
     3
 72
    20
 73
    16
 74
     0
 42
0.0000000001
 43
0.0000000001
 40
0.0
 40
0.0
 40
0.0
 40
0.0
 40
0.25
 40
0.25
 40
0.25
 40
0.25
 40
0.5
 40
0.5
 40
0.5
 40
0.5
 40
0.75
 40
0.75
 40
0.75
 40
0.75
 40
1.0
 40
1.0
 40
1.0
 40
1.0
 10
-10.47986
 20
-14.43261
 30
0.0
 10
-10.47986
 20
-14.43261
 30
0.0
 10
-10.47058
 20
-14.43261
 30
0.0
 10
-10.47058
 20
-14.43261
 30
0.0
 10
-10.47058
 20
-14.43261
 30
0.0
 10
-10.47058
 20
-14.43261
 30
0.0
 10
-10.50896
 20
-14.51479
 30
0.0
 10
-10.50896
 20
-14.51479
 30
0.0
 10
-10.50896
 20
-14.51479
 30
0.0
 10
-10.50896
 20
-14.51479
 30
0.0
 10
-10.5183
 20
-14.51479
 30
0.0
 10
-10.5183
 20
-14.51479
 30
0.0
 10
-10.5183
 20
-14.51479
 30
0.0
 10
-10.5183
 20
-14.51479
 30
0.0
 10
-10.47986
 20
-14.43261
 30
0.0
 10
-10.47986
 20
-14.43261
 30
0.0
  0
SPLINE
  5
90
330
1F
100
AcDbEntity
  8
Layer 1
 62
   250
100
AcDbSpline
210
0.0
220
0.0
230
1.0
 70
    11
 71
     3
 72
    68
 73
    64
 74
     0
 42
0.0000000001
 43
0.0000000001
 40
0.0
 40
0.0
 40
0.0
 40
0.0
 40
0.0625
 40
0.0625
 40
0.0625
 40
0.0625
 40
0.125
 40
0.125
 40
0.125
 40
0.125
 40
0.1875
 40
0.1875
 40
0.1875
 40
0.1875
 40
0.25
 40
0.25
 40
0.25
 40
0.25
 40
0.3125
 40
0.3125
 40
0.3125
 40
0.3125
 40
0.375
 40
0.375
 40
0.375
 40
0.375
 40
0.4375
 40
0.4375
 40
0.4375
 40
0.4375
 40
0.5
 40
0.5
 40
0.5
 40
0.5
 40
0.5625
 40
0.5625
 40
0.5625
 40
0.5625
 40
0.625
 40
0.625
 40
0.625
 40
0.625
 40
0.6875
 40
0.6875
 40
0.6875
 40
0.6875
 40
0.75
 40
0.75
 40
0.75
 40
0.75
 40
0.8125
 40
0.8125
 40
0.8125
 40
0.8125
 40
0.875
 40
0.875
 40
0.875
 40
0.875
 40
0.9375
 40
0.9375
 40
0.9375
 40
0.9375
 40
1.0
 40
1.0
 40
1.0
 40
1.0
 10
-10.42368
 20
-14.47109
 30
0.0
 10
-10.42225
 20
-14.47138
 30
0.0
 10
-10.421
 20
-14.47206
 30
0.0
 10
-10.41995
 20
-14.47313
 30
0.0
 10
-10.41995
 20
-14.47313
 30
0.0
 10
-10.41888
 20
-14.47418
 30
0.0
 10
-10.4176
 20
-14.47624
 30
0.0
 10
-10.41606
 20
-14.47929
 30
0.0
 10
-10.41606
 20
-14.47929
 30
0.0
 10
-10.41606
 20
-14.47929
 30
0.0
 10
-10.40286
 20
-14.50551
 30
0.0
 10
-10.40286
 20
-14.50551
 30
0.0
 10
-10.40286
 20
-14.50551
 30
0.0
 10
-10.40286
 20
-14.50551
 30
0.0
 10
-10.4187
 20
-14.50551
 30
0.0
 10
-10.4187
 20
-14.50551
 30
0.0
 10
-10.4187
 20
-14.50551
 30
0.0
 10
-10.4187
 20
-14.50551
 30
0.0
 10
-10.42748
 20
-14.48711
 30
0.0
 10
-10.42748
 20
-14.48711
 30
0.0
 10
-10.42748
 20
-14.48711
 30
0.0
 10
-10.42775
 20
-14.48659
 30
0.0
 10
-10.4281
 20
-14.48588
 30
0.0
 10
-10.42851
 20
-14.48496
 30
0.0
 10
-10.42851
 20
-14.48496
 30
0.0
 10
-10.43108
 20
-14.47946
 30
0.0
 10
-10.43411
 20
-14.47671
 30
0.0
 10
-10.4376
 20
-14.47671
 30
0.0
 10
-10.4376
 20
-14.47671
 30
0.0
 10
-10.4376
 20
-14.47671
 30
0.0
 10
-10.44218
 20
-14.47671
 30
0.0
 10
-10.44218
 20
-14.47671
 30
0.0
 10
-10.44218
 20
-14.47671
 30
0.0
 10
-10.44218
 20
-14.47671
 30
0.0
 10
-10.44218
 20
-14.50551
 30
0.0
 10
-10.44218
 20
-14.50551
 30
0.0
 10
-10.44218
 20
-14.50551
 30
0.0
 10
-10.44218
 20
-14.50551
 30
0.0
 10
-10.45658
 20
-14.50551
 30
0.0
 10
-10.45658
 20
-14.50551
 30
0.0
 10
-10.45658
 20
-14.50551
 30
0.0
 10
-10.45658
 20
-14.50551
 30
0.0
 10
-10.45658
 20
-14.43261
 30
0.0
 10
-10.45658
 20
-14.43261
 30
0.0
 10
-10.45658
 20
-14.43261
 30
0.0
 10
-10.45658
 20
-14.43261
 30
0.0
 10
-10.43578
 20
-14.43261
 30
0.0
 10
-10.43578
 20
-14.43261
 30
0.0
 10
-10.43578
 20
-14.43261
 30
0.0
 10
-10.42641
 20
-14.43261
 30
0.0
 10
-10.41968
 20
-14.43428
 30
0.0
 10
-10.4156
 20
-14.43759
 30
0.0
 10
-10.4156
 20
-14.43759
 30
0.0
 10
-10.41151
 20
-14.44091
 30
0.0
 10
-10.40946
 20
-14.44631
 30
0.0
 10
-10.40946
 20
-14.45381
 30
0.0
 10
-10.40946
 20
-14.45381
 30
0.0
 10
-10.40946
 20
-14.45881
 30
0.0
 10
-10.41068
 20
-14.46281
 30
0.0
 10
-10.41313
 20
-14.46578
 30
0.0
 10
-10.41313
 20
-14.46578
 30
0.0
 10
-10.41556
 20
-14.46873
 30
0.0
 10
-10.41908
 20
-14.47051
 30
0.0
 10
-10.42368
 20
-14.47109
 30
0.0
  0
SPLINE
  5
91
330
1F
100
AcDbEntity
  8
Layer 1
 62
   250
100
AcDbSpline
210
0.0
220
0.0
230
1.0
 70
    11
 71
     3
 72
    32
 73
    28
 74
     0
 42
0.0000000001
 43
0.0000000001
 40
0.0
 40
0.0
 40
0.0
 40
0.0
 40
0.1428571428571428
 40
0.1428571428571428
 40
0.1428571428571428
 40
0.1428571428571428
 40
0.2857142857142857
 40
0.2857142857142857
 40
0.2857142857142857
 40
0.2857142857142857
 40
0.4285714285714285
 40
0.4285714285714285
 40
0.4285714285714285
 40
0.4285714285714285
 40
0.5714285714285714
 40
0.5714285714285714
 40
0.5714285714285714
 40
0.5714285714285714
 40
0.7142857142857142
 40
0.7142857142857142
 40
0.7142857142857142
 40
0.7142857142857142
 40
0.857142857142857
 40
0.857142857142857
 40
0.857142857142857
 40
0.857142857142857
 40
1.0
 40
1.0
 40
1.0
 40
1.0
 10
-10.44218
 20
-14.44473
 30
0.0
 10
-10.44218
 20
-14.44473
 30
0.0
 10
-10.44218
 20
-14.46459
 30
0.0
 10
-10.44218
 20
-14.46459
 30
0.0
 10
-10.44218
 20
-14.46459
 30
0.0
 10
-10.44218
 20
-14.46459
 30
0.0
 10
-10.4354
 20
-14.46459
 30
0.0
 10
-10.4354
 20
-14.46459
 30
0.0
 10
-10.4354
 20
-14.46459
 30
0.0
 10
-10.43146
 20
-14.46459
 30
0.0
 10
-10.42863
 20
-14.46383
 30
0.0
 10
-10.42693
 20
-14.46228
 30
0.0
 10
-10.42693
 20
-14.46228
 30
0.0
 10
-10.42521
 20
-14.46073
 30
0.0
 10
-10.42436
 20
-14.45818
 30
0.0
 10
-10.42436
 20
-14.45464
 30
0.0
 10
-10.42436
 20
-14.45464
 30
0.0
 10
-10.42436
 20
-14.45109
 30
0.0
 10
-10.42521
 20
-14.44854
 30
0.0
 10
-10.4269
 20
-14.44703
 30
0.0
 10
-10.4269
 20
-14.44703
 30
0.0
 10
-10.4286
 20
-14.44549
 30
0.0
 10
-10.43143
 20
-14.44473
 30
0.0
 10
-10.4354
 20
-14.44473
 30
0.0
 10
-10.4354
 20
-14.44473
 30
0.0
 10
-10.4354
 20
-14.44473
 30
0.0
 10
-10.44218
 20
-14.44473
 30
0.0
 10
-10.44218
 20
-14.44473
 30
0.0
  0
SPLINE
  5
92
330
1F
100
AcDbEntity
  8
Layer 1
 62
   250
100
AcDbSpline
210
0.0
220
0.0
230
1.0
 70
    11
 71
     3
 72
    36
 73
    32
 74
     0
 42
0.0000000001
 43
0.0000000001
 40
0.0
 40
0.0
 40
0.0
 40
0.0
 40
0.125
 40
0.125
 40
0.125
 40
0.125
 40
0.25
 40
0.25
 40
0.25
 40
0.25
 40
0.375
 40
0.375
 40
0.375
 40
0.375
 40
0.5
 40
0.5
 40
0.5
 40
0.5
 40
0.625
 40
0.625
 40
0.625
 40
0.625
 40
0.75
 40
0.75
 40
0.75
 40
0.75
 40
0.875
 40
0.875
 40
0.875
 40
0.875
 40
1.0
 40
1.0
 40
1.0
 40
1.0
 10
-10.37148
 20
-14.46898
 30
0.0
 10
-10.3746
 20
-14.46898
 30
0.0
 10
-10.37698
 20
-14.47011
 30
0.0
 10
-10.37863
 20
-14.47238
 30
0.0
 10
-10.37863
 20
-14.47238
 30
0.0
 10
-10.38028
 20
-14.47464
 30
0.0
 10
-10.3811
 20
-14.47791
 30
0.0
 10
-10.3811
 20
-14.48221
 30
0.0
 10
-10.3811
 20
-14.48221
 30
0.0
 10
-10.3811
 20
-14.48648
 30
0.0
 10
-10.38028
 20
-14.48974
 30
0.0
 10
-10.37863
 20
-14.49201
 30
0.0
 10
-10.37863
 20
-14.49201
 30
0.0
 10
-10.37698
 20
-14.49428
 30
0.0
 10
-10.3746
 20
-14.49541
 30
0.0
 10
-10.37148
 20
-14.49541
 30
0.0
 10
-10.37148
 20
-14.49541
 30
0.0
 10
-10.36835
 20
-14.49541
 30
0.0
 10
-10.36595
 20
-14.49428
 30
0.0
 10
-10.36428
 20
-14.49201
 30
0.0
 10
-10.36428
 20
-14.49201
 30
0.0
 10
-10.3626
 20
-14.48974
 30
0.0
 10
-10.36176
 20
-14.48648
 30
0.0
 10
-10.36176
 20
-14.48221
 30
0.0
 10
-10.36176
 20
-14.48221
 30
0.0
 10
-10.36176
 20
-14.47794
 30
0.0
 10
-10.3626
 20
-14.47468
 30
0.0
 10
-10.36428
 20
-14.47239
 30
0.0
 10
-10.36428
 20
-14.47239
 30
0.0
 10
-10.36595
 20
-14.47011
 30
0.0
 10
-10.36835
 20
-14.46898
 30
0.0
 10
-10.37148
 20
-14.46898
 30
0.0
  0
SPLINE
  5
93
330
1F
100
AcDbEntity
  8
Layer 1
 62
   250
100
AcDbSpline
210
0.0
220
0.0
230
1.0
 70
    11
 71
     3
 72
    72
 73
    68
 74
     0
 42
0.0000000001
 43
0.0000000001
 40
0.0
 40
0.0
 40
0.0
 40
0.0
 40
0.0588235294117647
 40
0.0588235294117647
 40
0.0588235294117647
 40
0.0588235294117647
 40
0.1176470588235294
 40
0.1176470588235294
 40
0.1176470588235294
 40
0.1176470588235294
 40
0.1764705882352941
 40
0.1764705882352941
 40
0.1764705882352941
 40
0.1764705882352941
 40
0.2352941176470588
 40
0.2352941176470588
 40
0.2352941176470588
 40
0.2352941176470588
 40
0.2941176470588235
 40
0.2941176470588235
 40
0.2941176470588235
 40
0.2941176470588235
 40
0.3529411764705883
 40
0.3529411764705883
 40
0.3529411764705883
 40
0.3529411764705883
 40
0.411764705882353
 40
0.411764705882353
 40
0.411764705882353
 40
0.411764705882353
 40
0.4705882352941177
 40
0.4705882352941177
 40
0.4705882352941177
 40
0.4705882352941177
 40
0.5294117647058824
 40
0.5294117647058824
 40
0.5294117647058824
 40
0.5294117647058824
 40
0.5882352941176471
 40
0.5882352941176471
 40
0.5882352941176471
 40
0.5882352941176471
 40
0.6470588235294118
 40
0.6470588235294118
 40
0.6470588235294118
 40
0.6470588235294118
 40
0.7058823529411765
 40
0.7058823529411765
 40
0.7058823529411765
 40
0.7058823529411765
 40
0.7647058823529412
 40
0.7647058823529412
 40
0.7647058823529412
 40
0.7647058823529412
 40
0.823529411764706
 40
0.823529411764706
 40
0.823529411764706
 40
0.823529411764706
 40
0.8823529411764707
 40
0.8823529411764707
 40
0.8823529411764707
 40
0.8823529411764707
 40
0.9411764705882354
 40
0.9411764705882354
 40
0.9411764705882354
 40
0.9411764705882354
 40
1.0
 40
1.0
 40
1.0
 40
1.0
 10
-10.3526
 20
-14.43433
 30
0.0
 10
-10.3526
 20
-14.43433
 30
0.0
 10
-10.3526
 20
-14.44741
 30
0.0
 10
-10.3526
 20
-14.44741
 30
0.0
 10
-10.3526
 20
-14.44741
 30
0.0
 10
-10.35516
 20
-14.44594
 30
0.0
 10
-10.35763
 20
-14.44484
 30
0.0
 10
-10.36
 20
-14.44411
 30
0.0
 10
-10.36
 20
-14.44411
 30
0.0
 10
-10.36235
 20
-14.44338
 30
0.0
 10
-10.36461
 20
-14.44301
 30
0.0
 10
-10.3668
 20
-14.44301
 30
0.0
 10
-10.3668
 20
-14.44301
 30
0.0
 10
-10.372
 20
-14.44301
 30
0.0
 10
-10.37596
 20
-14.44476
 30
0.0
 10
-10.37868
 20
-14.44826
 30
0.0
 10
-10.37868
 20
-14.44826
 30
0.0
 10
-10.3814
 20
-14.45176
 30
0.0
 10
-10.38281
 20
-14.45693
 30
0.0
 10
-10.38295
 20
-14.46376
 30
0.0
 10
-10.38295
 20
-14.46376
 30
0.0
 10
-10.38141
 20
-14.46164
 30
0.0
 10
-10.37946
 20
-14.46006
 30
0.0
 10
-10.3771
 20
-14.45899
 30
0.0
 10
-10.3771
 20
-14.45899
 30
0.0
 10
-10.37471
 20
-14.45794
 30
0.0
 10
-10.37191
 20
-14.45741
 30
0.0
 10
-10.3687
 20
-14.45741
 30
0.0
 10
-10.3687
 20
-14.45741
 30
0.0
 10
-10.36211
 20
-14.45741
 30
0.0
 10
-10.35705
 20
-14.45949
 30
0.0
 10
-10.35346
 20
-14.46364
 30
0.0
 10
-10.35346
 20
-14.46364
 30
0.0
 10
-10.34988
 20
-14.46779
 30
0.0
 10
-10.3481
 20
-14.47368
 30
0.0
 10
-10.3481
 20
-14.48129
 30
0.0
 10
-10.3481
 20
-14.48129
 30
0.0
 10
-10.3481
 20
-14.48946
 30
0.0
 10
-10.35011
 20
-14.49579
 30
0.0
 10
-10.35413
 20
-14.50029
 30
0.0
 10
-10.35413
 20
-14.50029
 30
0.0
 10
-10.35815
 20
-14.50478
 30
0.0
 10
-10.3638
 20
-14.50703
 30
0.0
 10
-10.3711
 20
-14.50703
 30
0.0
 10
-10.3711
 20
-14.50703
 30
0.0
 10
-10.37998
 20
-14.50703
 30
0.0
 10
-10.38643
 20
-14.50404
 30
0.0
 10
-10.39045
 20
-14.49809
 30
0.0
 10
-10.39045
 20
-14.49809
 30
0.0
 10
-10.39446
 20
-14.49213
 30
0.0
 10
-10.39648
 20
-14.48251
 30
0.0
 10
-10.39648
 20
-14.46923
 30
0.0
 10
-10.39648
 20
-14.46923
 30
0.0
 10
-10.39648
 20
-14.45661
 30
0.0
 10
-10.39403
 20
-14.44714
 30
0.0
 10
-10.38911
 20
-14.44084
 30
0.0
 10
-10.38911
 20
-14.44084
 30
0.0
 10
-10.3842
 20
-14.43454
 30
0.0
 10
-10.37683
 20
-14.43139
 30
0.0
 10
-10.367
 20
-14.43139
 30
0.0
 10
-10.367
 20
-14.43139
 30
0.0
 10
-10.36471
 20
-14.43139
 30
0.0
 10
-10.36236
 20
-14.43164
 30
0.0
 10
-10.35995
 20
-14.43213
 30
0.0
 10
-10.35995
 20
-14.43213
 30
0.0
 10
-10.35751
 20
-14.43261
 30
0.0
 10
-10.35506
 20
-14.43334
 30
0.0
 10
-10.3526
 20
-14.43433
 30
0.0
  0
SPLINE
  5
94
330
1F
100
AcDbEntity
  8
Layer 1
 62
   250
100
AcDbSpline
210
0.0
220
0.0
230
1.0
 70
    11
 71
     3
 72
   120
 73
   116
 74
     0
 42
0.0000000001
 43
0.0000000001
 40
0.0
 40
0.0
 40
0.0
 40
0.0
 40
0.0344827586206897
 40
0.0344827586206897
 40
0.0344827586206897
 40
0.0344827586206897
 40
0.0689655172413793
 40
0.0689655172413793
 40
0.0689655172413793
 40
0.0689655172413793
 40
0.103448275862069
 40
0.103448275862069
 40
0.103448275862069
 40
0.103448275862069
 40
0.1379310344827586
 40
0.1379310344827586
 40
0.1379310344827586
 40
0.1379310344827586
 40
0.1724137931034483
 40
0.1724137931034483
 40
0.1724137931034483
 40
0.1724137931034483
 40
0.206896551724138
 40
0.206896551724138
 40
0.206896551724138
 40
0.206896551724138
 40
0.2413793103448276
 40
0.2413793103448276
 40
0.2413793103448276
 40
0.2413793103448276
 40
0.2758620689655173
 40
0.2758620689655173
 40
0.2758620689655173
 40
0.2758620689655173
 40
0.310344827586207
 40
0.310344827586207
 40
0.310344827586207
 40
0.310344827586207
 40
0.3448275862068966
 40
0.3448275862068966
 40
0.3448275862068966
 40
0.3448275862068966
 40
0.3793103448275863
 40
0.3793103448275863
 40
0.3793103448275863
 40
0.3793103448275863
 40
0.413793103448276
 40
0.413793103448276
 40
0.413793103448276
 40
0.413793103448276
 40
0.4482758620689656
 40
0.4482758620689656
 40
0.4482758620689656
 40
0.4482758620689656
 40
0.4827586206896553
 40
0.4827586206896553
 40
0.4827586206896553
 40
0.4827586206896553
 40
0.517241379310345
 40
0.517241379310345
 40
0.517241379310345
 40
0.517241379310345
 40
0.5517241379310346
 40
0.5517241379310346
 40
0.5517241379310346
 40
0.5517241379310346
 40
0.5862068965517242
 40
0.5862068965517242
 40
0.5862068965517242
 40
0.5862068965517242
 40
0.6206896551724138
 40
0.6206896551724138
 40
0.6206896551724138
 40
0.6206896551724138
 40
0.6551724137931034
 40
0.6551724137931034
 40
0.6551724137931034
 40
0.6551724137931034
 40
0.689655172413793
 40
0.689655172413793
 40
0.689655172413793
 40
0.689655172413793
 40
0.7241379310344827
 40
0.7241379310344827
 40
0.7241379310344827
 40
0.7241379310344827
 40
0.7586206896551723
 40
0.7586206896551723
 40
0.7586206896551723
 40
0.7586206896551723
 40
0.7931034482758619
 40
0.7931034482758619
 40
0.7931034482758619
 40
0.7931034482758619
 40
0.8275862068965515
 40
0.8275862068965515
 40
0.8275862068965515
 40
0.8275862068965515
 40
0.8620689655172411
 40
0.8620689655172411
 40
0.8620689655172411
 40
0.8620689655172411
 40
0.8965517241379307
 40
0.8965517241379307
 40
0.8965517241379307
 40
0.8965517241379307
 40
0.9310344827586203
 40
0.9310344827586203
 40
0.9310344827586203
 40
0.9310344827586203
 40
0.9655172413793099
 40
0.9655172413793099
 40
0.9655172413793099
 40
0.9655172413793099
 40
1.0
 40
1.0
 40
1.0
 40
1.0
 10
-10.31588
 20
-14.47289
 30
0.0
 10
-10.31588
 20
-14.47289
 30
0.0
 10
-10.3236
 20
-14.47289
 30
0.0
 10
-10.3236
 20
-14.47289
 30
0.0
 10
-10.3236
 20
-14.47289
 30
0.0
 10
-10.3236
 20
-14.47289
 30
0.0
 10
-10.3236
 20
-14.46019
 30
0.0
 10
-10.3236
 20
-14.46019
 30
0.0
 10
-10.3236
 20
-14.46019
 30
0.0
 10
-10.3236
 20
-14.46019
 30
0.0
 10
-10.31588
 20
-14.46019
 30
0.0
 10
-10.31588
 20
-14.46019
 30
0.0
 10
-10.31588
 20
-14.46019
 30
0.0
 10
-10.31231
 20
-14.46019
 30
0.0
 10
-10.30953
 20
-14.45949
 30
0.0
 10
-10.30756
 20
-14.45808
 30
0.0
 10
-10.30756
 20
-14.45808
 30
0.0
 10
-10.3056
 20
-14.45666
 30
0.0
 10
-10.30461
 20
-14.45466
 30
0.0
 10
-10.30461
 20
-14.45209
 30
0.0
 10
-10.30461
 20
-14.45209
 30
0.0
 10
-10.30461
 20
-14.44939
 30
0.0
 10
-10.3056
 20
-14.44728
 30
0.0
 10
-10.30756
 20
-14.44576
 30
0.0
 10
-10.30756
 20
-14.44576
 30
0.0
 10
-10.30953
 20
-14.44424
 30
0.0
 10
-10.31231
 20
-14.44349
 30
0.0
 10
-10.31588
 20
-14.44349
 30
0.0
 10
-10.31588
 20
-14.44349
 30
0.0
 10
-10.31861
 20
-14.44349
 30
0.0
 10
-10.32155
 20
-14.44384
 30
0.0
 10
-10.32466
 20
-14.44453
 30
0.0
 10
-10.32466
 20
-14.44453
 30
0.0
 10
-10.3278
 20
-14.44521
 30
0.0
 10
-10.33103
 20
-14.44621
 30
0.0
 10
-10.33438
 20
-14.44751
 30
0.0
 10
-10.33438
 20
-14.44751
 30
0.0
 10
-10.33438
 20
-14.44751
 30
0.0
 10
-10.33438
 20
-14.43443
 30
0.0
 10
-10.33438
 20
-14.43443
 30
0.0
 10
-10.33438
 20
-14.43443
 30
0.0
 10
-10.33103
 20
-14.43341
 30
0.0
 10
-10.32773
 20
-14.43264
 30
0.0
 10
-10.32448
 20
-14.43209
 30
0.0
 10
-10.32448
 20
-14.43209
 30
0.0
 10
-10.32121
 20
-14.43156
 30
0.0
 10
-10.3181
 20
-14.43129
 30
0.0
 10
-10.3151
 20
-14.43129
 30
0.0
 10
-10.3151
 20
-14.43129
 30
0.0
 10
-10.30741
 20
-14.43129
 30
0.0
 10
-10.30143
 20
-14.43298
 30
0.0
 10
-10.29715
 20
-14.43633
 30
0.0
 10
-10.29715
 20
-14.43633
 30
0.0
 10
-10.29285
 20
-14.43968
 30
0.0
 10
-10.2907
 20
-14.44429
 30
0.0
 10
-10.2907
 20
-14.45019
 30
0.0
 10
-10.2907
 20
-14.45019
 30
0.0
 10
-10.2907
 20
-14.45451
 30
0.0
 10
-10.29193
 20
-14.45806
 30
0.0
 10
-10.29441
 20
-14.46081
 30
0.0
 10
-10.29441
 20
-14.46081
 30
0.0
 10
-10.29688
 20
-14.46356
 30
0.0
 10
-10.30041
 20
-14.46536
 30
0.0
 10
-10.305
 20
-14.46619
 30
0.0
 10
-10.305
 20
-14.46619
 30
0.0
 10
-10.2998
 20
-14.46711
 30
0.0
 10
-10.29581
 20
-14.46919
 30
0.0
 10
-10.29308
 20
-14.47243
 30
0.0
 10
-10.29308
 20
-14.47243
 30
0.0
 10
-10.29035
 20
-14.47566
 30
0.0
 10
-10.28898
 20
-14.47993
 30
0.0
 10
-10.28898
 20
-14.48519
 30
0.0
 10
-10.28898
 20
-14.48519
 30
0.0
 10
-10.28898
 20
-14.49226
 30
0.0
 10
-10.29125
 20
-14.49764
 30
0.0
 10
-10.29576
 20
-14.50136
 30
0.0
 10
-10.29576
 20
-14.50136
 30
0.0
 10
-10.3003
 20
-14.50508
 30
0.0
 10
-10.30686
 20
-14.50693
 30
0.0
 10
-10.3155
 20
-14.50693
 30
0.0
 10
-10.3155
 20
-14.50693
 30
0.0
 10
-10.31916
 20
-14.50693
 30
0.0
 10
-10.32278
 20
-14.50661
 30
0.0
 10
-10.32635
 20
-14.50599
 30
0.0
 10
-10.32635
 20
-14.50599
 30
0.0
 10
-10.32991
 20
-14.50538
 30
0.0
 10
-10.33333
 20
-14.50448
 30
0.0
 10
-10.33658
 20
-14.50331
 30
0.0
 10
-10.33658
 20
-14.50331
 30
0.0
 10
-10.33658
 20
-14.50331
 30
0.0
 10
-10.33658
 20
-14.48993
 30
0.0
 10
-10.33658
 20
-14.48993
 30
0.0
 10
-10.33658
 20
-14.48993
 30
0.0
 10
-10.33351
 20
-14.49146
 30
0.0
 10
-10.33021
 20
-14.49263
 30
0.0
 10
-10.32666
 20
-14.49343
 30
0.0
 10
-10.32666
 20
-14.49343
 30
0.0
 10
-10.32313
 20
-14.49423
 30
0.0
 10
-10.3194
 20
-14.49463
 30
0.0
 10
-10.3155
 20
-14.49463
 30
0.0
 10
-10.3155
 20
-14.49463
 30
0.0
 10
-10.31158
 20
-14.49463
 30
0.0
 10
-10.3085
 20
-14.49373
 30
0.0
 10
-10.30621
 20
-14.49191
 30
0.0
 10
-10.30621
 20
-14.49191
 30
0.0
 10
-10.30393
 20
-14.49011
 30
0.0
 10
-10.3028
 20
-14.48768
 30
0.0
 10
-10.3028
 20
-14.48461
 30
0.0
 10
-10.3028
 20
-14.48461
 30
0.0
 10
-10.3028
 20
-14.48088
 30
0.0
 10
-10.30393
 20
-14.47798
 30
0.0
 10
-10.30621
 20
-14.47594
 30
0.0
 10
-10.30621
 20
-14.47594
 30
0.0
 10
-10.3085
 20
-14.47391
 30
0.0
 10
-10.31171
 20
-14.47289
 30
0.0
 10
-10.31588
 20
-14.47289
 30
0.0
  0
SPLINE
  5
95
330
1F
100
AcDbEntity
  8
Layer 1
 62
   250
100
AcDbSpline
210
0.0
220
0.0
230
1.0
 70
    11
 71
     3
 72
   120
 73
   116
 74
     0
 42
0.0000000001
 43
0.0000000001
 40
0.0
 40
0.0
 40
0.0
 40
0.0
 40
0.0344827586206897
 40
0.0344827586206897
 40
0.0344827586206897
 40
0.0344827586206897
 40
0.0689655172413793
 40
0.0689655172413793
 40
0.0689655172413793
 40
0.0689655172413793
 40
0.103448275862069
 40
0.103448275862069
 40
0.103448275862069
 40
0.103448275862069
 40
0.1379310344827586
 40
0.1379310344827586
 40
0.1379310344827586
 40
0.1379310344827586
 40
0.1724137931034483
 40
0.1724137931034483
 40
0.1724137931034483
 40
0.1724137931034483
 40
0.206896551724138
 40
0.206896551724138
 40
0.206896551724138
 40
0.206896551724138
 40
0.2413793103448276
 40
0.2413793103448276
 40
0.2413793103448276
 40
0.2413793103448276
 40
0.2758620689655173
 40
0.2758620689655173
 40
0.2758620689655173
 40
0.2758620689655173
 40
0.310344827586207
 40
0.310344827586207
 40
0.310344827586207
 40
0.310344827586207
 40
0.3448275862068966
 40
0.3448275862068966
 40
0.3448275862068966
 40
0.3448275862068966
 40
0.3793103448275863
 40
0.3793103448275863
 40
0.3793103448275863
 40
0.3793103448275863
 40
0.413793103448276
 40
0.413793103448276
 40
0.413793103448276
 40
0.413793103448276
 40
0.4482758620689656
 40
0.4482758620689656
 40
0.4482758620689656
 40
0.4482758620689656
 40
0.4827586206896553
 40
0.4827586206896553
 40
0.4827586206896553
 40
0.4827586206896553
 40
0.517241379310345
 40
0.517241379310345
 40
0.517241379310345
 40
0.517241379310345
 40
0.5517241379310346
 40
0.5517241379310346
 40
0.5517241379310346
 40
0.5517241379310346
 40
0.5862068965517242
 40
0.5862068965517242
 40
0.5862068965517242
 40
0.5862068965517242
 40
0.6206896551724138
 40
0.6206896551724138
 40
0.6206896551724138
 40
0.6206896551724138
 40
0.6551724137931034
 40
0.6551724137931034
 40
0.6551724137931034
 40
0.6551724137931034
 40
0.689655172413793
 40
0.689655172413793
 40
0.689655172413793
 40
0.689655172413793
 40
0.7241379310344827
 40
0.7241379310344827
 40
0.7241379310344827
 40
0.7241379310344827
 40
0.7586206896551723
 40
0.7586206896551723
 40
0.7586206896551723
 40
0.7586206896551723
 40
0.7931034482758619
 40
0.7931034482758619
 40
0.7931034482758619
 40
0.7931034482758619
 40
0.8275862068965515
 40
0.8275862068965515
 40
0.8275862068965515
 40
0.8275862068965515
 40
0.8620689655172411
 40
0.8620689655172411
 40
0.8620689655172411
 40
0.8620689655172411
 40
0.8965517241379307
 40
0.8965517241379307
 40
0.8965517241379307
 40
0.8965517241379307
 40
0.9310344827586203
 40
0.9310344827586203
 40
0.9310344827586203
 40
0.9310344827586203
 40
0.9655172413793099
 40
0.9655172413793099
 40
0.9655172413793099
 40
0.9655172413793099
 40
1.0
 40
1.0
 40
1.0
 40
1.0
 10
-10.25568
 20
-14.47289
 30
0.0
 10
-10.25568
 20
-14.47289
 30
0.0
 10
-10.2634
 20
-14.47289
 30
0.0
 10
-10.2634
 20
-14.47289
 30
0.0
 10
-10.2634
 20
-14.47289
 30
0.0
 10
-10.2634
 20
-14.47289
 30
0.0
 10
-10.2634
 20
-14.46019
 30
0.0
 10
-10.2634
 20
-14.46019
 30
0.0
 10
-10.2634
 20
-14.46019
 30
0.0
 10
-10.2634
 20
-14.46019
 30
0.0
 10
-10.25568
 20
-14.46019
 30
0.0
 10
-10.25568
 20
-14.46019
 30
0.0
 10
-10.25568
 20
-14.46019
 30
0.0
 10
-10.25211
 20
-14.46019
 30
0.0
 10
-10.24933
 20
-14.45949
 30
0.0
 10
-10.24736
 20
-14.45808
 30
0.0
 10
-10.24736
 20
-14.45808
 30
0.0
 10
-10.2454
 20
-14.45666
 30
0.0
 10
-10.24441
 20
-14.45466
 30
0.0
 10
-10.24441
 20
-14.45209
 30
0.0
 10
-10.24441
 20
-14.45209
 30
0.0
 10
-10.24441
 20
-14.44939
 30
0.0
 10
-10.2454
 20
-14.44728
 30
0.0
 10
-10.24736
 20
-14.44576
 30
0.0
 10
-10.24736
 20
-14.44576
 30
0.0
 10
-10.24933
 20
-14.44424
 30
0.0
 10
-10.25211
 20
-14.44349
 30
0.0
 10
-10.25568
 20
-14.44349
 30
0.0
 10
-10.25568
 20
-14.44349
 30
0.0
 10
-10.25841
 20
-14.44349
 30
0.0
 10
-10.26135
 20
-14.44384
 30
0.0
 10
-10.26446
 20
-14.44453
 30
0.0
 10
-10.26446
 20
-14.44453
 30
0.0
 10
-10.2676
 20
-14.44521
 30
0.0
 10
-10.27083
 20
-14.44621
 30
0.0
 10
-10.27418
 20
-14.44751
 30
0.0
 10
-10.27418
 20
-14.44751
 30
0.0
 10
-10.27418
 20
-14.44751
 30
0.0
 10
-10.27418
 20
-14.43443
 30
0.0
 10
-10.27418
 20
-14.43443
 30
0.0
 10
-10.27418
 20
-14.43443
 30
0.0
 10
-10.27083
 20
-14.43341
 30
0.0
 10
-10.26753
 20
-14.43264
 30
0.0
 10
-10.26428
 20
-14.43209
 30
0.0
 10
-10.26428
 20
-14.43209
 30
0.0
 10
-10.26101
 20
-14.43156
 30
0.0
 10
-10.2579
 20
-14.43129
 30
0.0
 10
-10.2549
 20
-14.43129
 30
0.0
 10
-10.2549
 20
-14.43129
 30
0.0
 10
-10.24721
 20
-14.43129
 30
0.0
 10
-10.24123
 20
-14.43298
 30
0.0
 10
-10.23695
 20
-14.43633
 30
0.0
 10
-10.23695
 20
-14.43633
 30
0.0
 10
-10.23265
 20
-14.43968
 30
0.0
 10
-10.2305
 20
-14.44429
 30
0.0
 10
-10.2305
 20
-14.45019
 30
0.0
 10
-10.2305
 20
-14.45019
 30
0.0
 10
-10.2305
 20
-14.45451
 30
0.0
 10
-10.23173
 20
-14.45806
 30
0.0
 10
-10.23421
 20
-14.46081
 30
0.0
 10
-10.23421
 20
-14.46081
 30
0.0
 10
-10.23668
 20
-14.46356
 30
0.0
 10
-10.24021
 20
-14.46536
 30
0.0
 10
-10.2448
 20
-14.46619
 30
0.0
 10
-10.2448
 20
-14.46619
 30
0.0
 10
-10.2396
 20
-14.46711
 30
0.0
 10
-10.23561
 20
-14.46919
 30
0.0
 10
-10.23288
 20
-14.47243
 30
0.0
 10
-10.23288
 20
-14.47243
 30
0.0
 10
-10.23015
 20
-14.47566
 30
0.0
 10
-10.22878
 20
-14.47993
 30
0.0
 10
-10.22878
 20
-14.48519
 30
0.0
 10
-10.22878
 20
-14.48519
 30
0.0
 10
-10.22878
 20
-14.49226
 30
0.0
 10
-10.23105
 20
-14.49764
 30
0.0
 10
-10.23556
 20
-14.50136
 30
0.0
 10
-10.23556
 20
-14.50136
 30
0.0
 10
-10.2401
 20
-14.50508
 30
0.0
 10
-10.24666
 20
-14.50693
 30
0.0
 10
-10.2553
 20
-14.50693
 30
0.0
 10
-10.2553
 20
-14.50693
 30
0.0
 10
-10.25896
 20
-14.50693
 30
0.0
 10
-10.26258
 20
-14.50661
 30
0.0
 10
-10.26615
 20
-14.50599
 30
0.0
 10
-10.26615
 20
-14.50599
 30
0.0
 10
-10.26971
 20
-14.50538
 30
0.0
 10
-10.27313
 20
-14.50448
 30
0.0
 10
-10.27638
 20
-14.50331
 30
0.0
 10
-10.27638
 20
-14.50331
 30
0.0
 10
-10.27638
 20
-14.50331
 30
0.0
 10
-10.27638
 20
-14.48993
 30
0.0
 10
-10.27638
 20
-14.48993
 30
0.0
 10
-10.27638
 20
-14.48993
 30
0.0
 10
-10.27331
 20
-14.49146
 30
0.0
 10
-10.27001
 20
-14.49263
 30
0.0
 10
-10.26646
 20
-14.49343
 30
0.0
 10
-10.26646
 20
-14.49343
 30
0.0
 10
-10.26293
 20
-14.49423
 30
0.0
 10
-10.2592
 20
-14.49463
 30
0.0
 10
-10.2553
 20
-14.49463
 30
0.0
 10
-10.2553
 20
-14.49463
 30
0.0
 10
-10.25138
 20
-14.49463
 30
0.0
 10
-10.2483
 20
-14.49373
 30
0.0
 10
-10.24601
 20
-14.49191
 30
0.0
 10
-10.24601
 20
-14.49191
 30
0.0
 10
-10.24373
 20
-14.49011
 30
0.0
 10
-10.2426
 20
-14.48768
 30
0.0
 10
-10.2426
 20
-14.48461
 30
0.0
 10
-10.2426
 20
-14.48461
 30
0.0
 10
-10.2426
 20
-14.48088
 30
0.0
 10
-10.24373
 20
-14.47798
 30
0.0
 10
-10.24601
 20
-14.47594
 30
0.0
 10
-10.24601
 20
-14.47594
 30
0.0
 10
-10.2483
 20
-14.47391
 30
0.0
 10
-10.25151
 20
-14.47289
 30
0.0
 10
-10.25568
 20
-14.47289
 30
0.0
  0
SPLINE
  5
96
330
1F
100
AcDbEntity
  8
Layer 1
 62
   250
100
AcDbSpline
210
0.0
220
0.0
230
1.0
 70
    11
 71
     3
 72
    36
 73
    32
 74
     0
 42
0.0000000001
 43
0.0000000001
 40
0.0
 40
0.0
 40
0.0
 40
0.0
 40
0.125
 40
0.125
 40
0.125
 40
0.125
 40
0.25
 40
0.25
 40
0.25
 40
0.25
 40
0.375
 40
0.375
 40
0.375
 40
0.375
 40
0.5
 40
0.5
 40
0.5
 40
0.5
 40
0.625
 40
0.625
 40
0.625
 40
0.625
 40
0.75
 40
0.75
 40
0.75
 40
0.75
 40
0.875
 40
0.875
 40
0.875
 40
0.875
 40
1.0
 40
1.0
 40
1.0
 40
1.0
 10
-10.19826
 20
-14.46913
 30
0.0
 10
-10.19826
 20
-14.46741
 30
0.0
 10
-10.19768
 20
-14.46596
 30
0.0
 10
-10.1965
 20
-14.46479
 30
0.0
 10
-10.1965
 20
-14.46479
 30
0.0
 10
-10.19533
 20
-14.46361
 30
0.0
 10
-10.1939
 20
-14.46303
 30
0.0
 10
-10.1922
 20
-14.46303
 30
0.0
 10
-10.1922
 20
-14.46303
 30
0.0
 10
-10.19048
 20
-14.46303
 30
0.0
 10
-10.18903
 20
-14.46361
 30
0.0
 10
-10.18786
 20
-14.46479
 30
0.0
 10
-10.18786
 20
-14.46479
 30
0.0
 10
-10.18668
 20
-14.46596
 30
0.0
 10
-10.1861
 20
-14.46741
 30
0.0
 10
-10.1861
 20
-14.46913
 30
0.0
 10
-10.1861
 20
-14.46913
 30
0.0
 10
-10.1861
 20
-14.47083
 30
0.0
 10
-10.18668
 20
-14.47226
 30
0.0
 10
-10.18786
 20
-14.47343
 30
0.0
 10
-10.18786
 20
-14.47343
 30
0.0
 10
-10.18903
 20
-14.47461
 30
0.0
 10
-10.19048
 20
-14.47519
 30
0.0
 10
-10.1922
 20
-14.47519
 30
0.0
 10
-10.1922
 20
-14.47519
 30
0.0
 10
-10.1939
 20
-14.47519
 30
0.0
 10
-10.19533
 20
-14.47461
 30
0.0
 10
-10.1965
 20
-14.47346
 30
0.0
 10
-10.1965
 20
-14.47346
 30
0.0
 10
-10.19768
 20
-14.47231
 30
0.0
 10
-10.19826
 20
-14.47086
 30
0.0
 10
-10.19826
 20
-14.46913
 30
0.0
  0
SPLINE
  5
97
330
1F
100
AcDbEntity
  8
Layer 1
 62
   250
100
AcDbSpline
210
0.0
220
0.0
230
1.0
 70
    11
 71
     3
 72
    36
 73
    32
 74
     0
 42
0.0000000001
 43
0.0000000001
 40
0.0
 40
0.0
 40
0.0
 40
0.0
 40
0.125
 40
0.125
 40
0.125
 40
0.125
 40
0.25
 40
0.25
 40
0.25
 40
0.25
 40
0.375
 40
0.375
 40
0.375
 40
0.375
 40
0.5
 40
0.5
 40
0.5
 40
0.5
 40
0.625
 40
0.625
 40
0.625
 40
0.625
 40
0.75
 40
0.75
 40
0.75
 40
0.75
 40
0.875
 40
0.875
 40
0.875
 40
0.875
 40
1.0
 40
1.0
 40
1.0
 40
1.0
 10
-10.1922
 20
-14.44349
 30
0.0
 10
-10.19553
 20
-14.44349
 30
0.0
 10
-10.19795
 20
-14.44553
 30
0.0
 10
-10.19948
 20
-14.44959
 30
0.0
 10
-10.19948
 20
-14.44959
 30
0.0
 10
-10.20101
 20
-14.45368
 30
0.0
 10
-10.20178
 20
-14.46018
 30
0.0
 10
-10.20178
 20
-14.46913
 30
0.0
 10
-10.20178
 20
-14.46913
 30
0.0
 10
-10.20178
 20
-14.47806
 30
0.0
 10
-10.20101
 20
-14.48454
 30
0.0
 10
-10.19948
 20
-14.48863
 30
0.0
 10
-10.19948
 20
-14.48863
 30
0.0
 10
-10.19795
 20
-14.49269
 30
0.0
 10
-10.19553
 20
-14.49473
 30
0.0
 10
-10.1922
 20
-14.49473
 30
0.0
 10
-10.1922
 20
-14.49473
 30
0.0
 10
-10.18885
 20
-14.49473
 30
0.0
 10
-10.18641
 20
-14.49269
 30
0.0
 10
-10.18488
 20
-14.48863
 30
0.0
 10
-10.18488
 20
-14.48863
 30
0.0
 10
-10.18335
 20
-14.48454
 30
0.0
 10
-10.18258
 20
-14.47806
 30
0.0
 10
-10.18258
 20
-14.46913
 30
0.0
 10
-10.18258
 20
-14.46913
 30
0.0
 10
-10.18258
 20
-14.46018
 30
0.0
 10
-10.18335
 20
-14.45368
 30
0.0
 10
-10.18488
 20
-14.44959
 30
0.0
 10
-10.18488
 20
-14.44959
 30
0.0
 10
-10.18641
 20
-14.44553
 30
0.0
 10
-10.18885
 20
-14.44349
 30
0.0
 10
-10.1922
 20
-14.44349
 30
0.0
  0
SPLINE
  5
98
330
1F
100
AcDbEntity
  8
Layer 1
 62
   250
100
AcDbSpline
210
0.0
220
0.0
230
1.0
 70
    11
 71
     3
 72
    36
 73
    32
 74
     0
 42
0.0000000001
 43
0.0000000001
 40
0.0
 40
0.0
 40
0.0
 40
0.0
 40
0.125
 40
0.125
 40
0.125
 40
0.125
 40
0.25
 40
0.25
 40
0.25
 40
0.25
 40
0.375
 40
0.375
 40
0.375
 40
0.375
 40
0.5
 40
0.5
 40
0.5
 40
0.5
 40
0.625
 40
0.625
 40
0.625
 40
0.625
 40
0.75
 40
0.75
 40
0.75
 40
0.75
 40
0.875
 40
0.875
 40
0.875
 40
0.875
 40
1.0
 40
1.0
 40
1.0
 40
1.0
 10
-10.21628
 20
-14.46913
 30
0.0
 10
-10.21628
 20
-14.45651
 30
0.0
 10
-10.21428
 20
-14.44704
 30
0.0
 10
-10.21028
 20
-14.44074
 30
0.0
 10
-10.21028
 20
-14.44074
 30
0.0
 10
-10.20626
 20
-14.43444
 30
0.0
 10
-10.20025
 20
-14.43129
 30
0.0
 10
-10.1922
 20
-14.43129
 30
0.0
 10
-10.1922
 20
-14.43129
 30
0.0
 10
-10.18413
 20
-14.43129
 30
0.0
 10
-10.1781
 20
-14.43443
 30
0.0
 10
-10.17408
 20
-14.44071
 30
0.0
 10
-10.17408
 20
-14.44071
 30
0.0
 10
-10.17008
 20
-14.44699
 30
0.0
 10
-10.16808
 20
-14.45648
 30
0.0
 10
-10.16808
 20
-14.46913
 30
0.0
 10
-10.16808
 20
-14.46913
 30
0.0
 10
-10.16808
 20
-14.48176
 30
0.0
 10
-10.17008
 20
-14.49123
 30
0.0
 10
-10.17408
 20
-14.49751
 30
0.0
 10
-10.17408
 20
-14.49751
 30
0.0
 10
-10.1781
 20
-14.50379
 30
0.0
 10
-10.18413
 20
-14.50693
 30
0.0
 10
-10.1922
 20
-14.50693
 30
0.0
 10
-10.1922
 20
-14.50693
 30
0.0
 10
-10.20025
 20
-14.50693
 30
0.0
 10
-10.20626
 20
-14.50378
 30
0.0
 10
-10.21028
 20
-14.49748
 30
0.0
 10
-10.21028
 20
-14.49748
 30
0.0
 10
-10.21428
 20
-14.49118
 30
0.0
 10
-10.21628
 20
-14.48173
 30
0.0
 10
-10.21628
 20
-14.46913
 30
0.0
  0
SPLINE
  5
99
330
1F
100
AcDbEntity
  8
Layer 1
 62
   250
100
AcDbSpline
210
0.0
220
0.0
230
1.0
 70
    11
 71
     3
 72
    16
 73
    12
 74
     0
 42
0.0000000001
 43
0.0000000001
 40
0.0
 40
0.0
 40
0.0
 40
0.0
 40
0.3333333333333333
 40
0.3333333333333333
 40
0.3333333333333333
 40
0.3333333333333333
 40
0.6666666666666666
 40
0.6666666666666666
 40
0.6666666666666666
 40
0.6666666666666666
 40
1.0
 40
1.0
 40
1.0
 40
1.0
 10
-10.132
 20
-14.44579
 30
0.0
 10
-10.132
 20
-14.44579
 30
0.0
 10
-10.13878
 20
-14.47563
 30
0.0
 10
-10.13878
 20
-14.47563
 30
0.0
 10
-10.13878
 20
-14.47563
 30
0.0
 10
-10.13878
 20
-14.47563
 30
0.0
 10
-10.12516
 20
-14.47563
 30
0.0
 10
-10.12516
 20
-14.47563
 30
0.0
 10
-10.12516
 20
-14.47563
 30
0.0
 10
-10.12516
 20
-14.47563
 30
0.0
 10
-10.132
 20
-14.44579
 30
0.0
 10
-10.132
 20
-14.44579
 30
0.0
  0
SPLINE
  5
9A
330
1F
100
AcDbEntity
  8
Layer 1
 62
   250
100
AcDbSpline
210
0.0
220
0.0
230
1.0
 70
    11
 71
     3
 72
    36
 73
    32
 74
     0
 42
0.0000000001
 43
0.0000000001
 40
0.0
 40
0.0
 40
0.0
 40
0.0
 40
0.125
 40
0.125
 40
0.125
 40
0.125
 40
0.25
 40
0.25
 40
0.25
 40
0.25
 40
0.375
 40
0.375
 40
0.375
 40
0.375
 40
0.5
 40
0.5
 40
0.5
 40
0.5
 40
0.625
 40
0.625
 40
0.625
 40
0.625
 40
0.75
 40
0.75
 40
0.75
 40
0.75
 40
0.875
 40
0.875
 40
0.875
 40
0.875
 40
1.0
 40
1.0
 40
1.0
 40
1.0
 10
-10.14078
 20
-14.43261
 30
0.0
 10
-10.14078
 20
-14.43261
 30
0.0
 10
-10.12316
 20
-14.43261
 30
0.0
 10
-10.12316
 20
-14.43261
 30
0.0
 10
-10.12316
 20
-14.43261
 30
0.0
 10
-10.12316
 20
-14.43261
 30
0.0
 10
-10.10348
 20
-14.50551
 30
0.0
 10
-10.10348
 20
-14.50551
 30
0.0
 10
-10.10348
 20
-14.50551
 30
0.0
 10
-10.10348
 20
-14.50551
 30
0.0
 10
-10.11788
 20
-14.50551
 30
0.0
 10
-10.11788
 20
-14.50551
 30
0.0
 10
-10.11788
 20
-14.50551
 30
0.0
 10
-10.11788
 20
-14.50551
 30
0.0
 10
-10.12238
 20
-14.48749
 30
0.0
 10
-10.12238
 20
-14.48749
 30
0.0
 10
-10.12238
 20
-14.48749
 30
0.0
 10
-10.12238
 20
-14.48749
 30
0.0
 10
-10.14166
 20
-14.48749
 30
0.0
 10
-10.14166
 20
-14.48749
 30
0.0
 10
-10.14166
 20
-14.48749
 30
0.0
 10
-10.14166
 20
-14.48749
 30
0.0
 10
-10.14606
 20
-14.50551
 30
0.0
 10
-10.14606
 20
-14.50551
 30
0.0
 10
-10.14606
 20
-14.50551
 30
0.0
 10
-10.14606
 20
-14.50551
 30
0.0
 10
-10.16046
 20
-14.50551
 30
0.0
 10
-10.16046
 20
-14.50551
 30
0.0
 10
-10.16046
 20
-14.50551
 30
0.0
 10
-10.16046
 20
-14.50551
 30
0.0
 10
-10.14078
 20
-14.43261
 30
0.0
 10
-10.14078
 20
-14.43261
 30
0.0
  0
ENDSEC
  0
SECTION
  2
OBJECTS
  0
DICTIONARY
  5
C
330
0
100
AcDbDictionary
281
     1
  3
ACAD_GROUP
350
D
  3
ACAD_LAYOUT
350
1A
  3
ACAD_MLEADERSTYLE
350
9C
  3
ACAD_MLINESTYLE
350
17
  3
ACAD_PLOTSETTINGS
350
19
  3
ACAD_PLOTSTYLENAME
350
E
  3
ACAD_SCALELIST
350
3B
  3
ACAD_TABLESTYLE
350
9B
  3
ACAD_VISUALSTYLE
350
2A
  0
DICTIONARY
  5
D
102
{ACAD_REACTORS
330
C
102
}
330
C
100
AcDbDictionary
281
     1
  0
DICTIONARY
  5
1A
102
{ACAD_REACTORS
330
C
102
}
330
C
100
AcDbDictionary
281
     1
  3
Layout1
350
1E
  3
Layout2
350
26
  3
Model
350
22
  0
DICTIONARY
  5
9C
102
{ACAD_REACTORS
330
C
102
}
330
C
100
AcDbDictionary
281
     1
  0
DICTIONARY
  5
17
102
{ACAD_REACTORS
330
C
102
}
330
C
100
AcDbDictionary
281
     1
  3
Standard
350
18
  0
DICTIONARY
  5
19
102
{ACAD_REACTORS
330
C
102
}
330
C
100
AcDbDictionary
281
     1
  0
ACDBDICTIONARYWDFLT
  5
E
102
{ACAD_REACTORS
330
C
102
}
330
C
100
AcDbDictionary
281
     1
  3
Normal
350
F
100
AcDbDictionaryWithDefault
340
F
  0
DICTIONARY
  5
3B
102
{ACAD_REACTORS
330
C
102
}
330
C
100
AcDbDictionary
281
     1
  3
A0
350
3C
  3
A1
350
3D
  3
A2
350
3E
  3
A3
350
3F
  3
A4
350
40
  3
A5
350
41
  3
A6
350
42
  3
A7
350
43
  3
A8
350
44
  3
A9
350
45
  3
B0
350
46
  3
B1
350
47
  3
B2
350
48
  3
B3
350
49
  3
B4
350
4A
  3
B5
350
4B
  3
B6
350
4C
  3
B7
350
4D
  3
B8
350
4E
  3
B9
350
4F
  3
C0
350
50
  3
C1
350
51
  3
C2
350
52
  3
C3
350
53
  3
C4
350
54
  3
C5
350
55
  3
C6
350
56
  3
C7
350
57
  3
C8
350
58
  3
C9
350
59
  3
D0
350
5A
  3
D1
350
5B
  3
D2
350
5C
  0
DICTIONARY
  5
9B
102
{ACAD_REACTORS
330
C
102
}
330
C
100
AcDbDictionary
281
     1
  0
DICTIONARY
  5
2A
102
{ACAD_REACTORS
330
C
102
}
330
C
100
AcDbDictionary
281
     1
  3
2dWireframe
350
2F
  3
3D Hidden
350
31
  3
3dWireframe
350
30
  3
Basic
350
32
  3
Brighten
350
36
  3
ColorChange
350
3A
  3
Conceptual
350
34
  3
Dim
350
35
  3
Facepattern
350
39
  3
Flat
350
2B
  3
FlatWithEdges
350
2C
  3
Gouraud
350
2D
  3
GouraudWithEdges
350
2E
  3
Linepattern
350
38
  3
Realistic
350
33
  3
Thicken
350
37
  0
LAYOUT
  5
1E
102
{ACAD_REACTORS
330
1A
102
}
330
1A
100
AcDbPlotSettings
  1

  2
none_device
  4

  6

 40
0.0
 41
0.0
 42
0.0
 43
0.0
 44
0.0
 45
0.0
 46
0.0
 47
0.0
 48
0.0
 49
0.0
140
0.0
141
0.0
142
1.0
143
1.0
 70
   688
 72
     0
 73
     0
 74
     5
  7

 75
    16
 76
     0
 77
     2
 78
   300
147
1.0
148
0.0
149
0.0
100
AcDbLayout
  1
Layout1
 70
     1
 71
     1
 10
0.0
 20
0.0
 11
12.0
 21
9.0
 12
0.0
 22
0.0
 32
0.0
 14
1.000000000000000E+20
 24
1.000000000000000E+20
 34
1.000000000000000E+20
 15
-1.000000000000000E+20
 25
-1.000000000000000E+20
 35
-1.000000000000000E+20
146
0.0
 13
0.0
 23
0.0
 33
0.0
 16
1.0
 26
0.0
 36
0.0
 17
0.0
 27
1.0
 37
0.0
 76
     0
330
1B
  0
LAYOUT
  5
26
102
{ACAD_REACTORS
330
1A
102
}
330
1A
100
AcDbPlotSettings
  1

  2
none_device
  4

  6

 40
0.0
 41
0.0
 42
0.0
 43
0.0
 44
0.0
 45
0.0
 46
0.0
 47
0.0
 48
0.0
 49
0.0
140
0.0
141
0.0
142
1.0
143
1.0
 70
   688
 72
     0
 73
     0
 74
     5
  7

 75
    16
 76
     0
 77
     2
 78
   300
147
1.0
148
0.0
149
0.0
100
AcDbLayout
  1
Layout2
 70
     1
 71
     2
 10
0.0
 20
0.0
 11
0.0
 21
0.0
 12
0.0
 22
0.0
 32
0.0
 14
0.0
 24
0.0
 34
0.0
 15
0.0
 25
0.0
 35
0.0
146
0.0
 13
0.0
 23
0.0
 33
0.0
 16
1.0
 26
0.0
 36
0.0
 17
0.0
 27
1.0
 37
0.0
 76
     0
330
23
  0
LAYOUT
  5
22
102
{ACAD_REACTORS
330
1A
102
}
330
1A
100
AcDbPlotSettings
  1

  2
none_device
  4

  6

 40
0.0
 41
0.0
 42
0.0
 43
0.0
 44
0.0
 45
0.0
 46
0.0
 47
0.0
 48
0.0
 49
0.0
140
0.0
141
0.0
142
1.0
143
1.0
 70
  1712
 72
     0
 73
     0
 74
     0
  7

 75
     0
 76
     0
 77
     2
 78
   300
147
1.0
148
0.0
149
0.0
100
AcDbLayout
  1
Model
 70
     1
 71
     0
 10
0.0
 20
0.0
 11
12.0
 21
9.0
 12
0.0
 22
0.0
 32
0.0
 14
-11.55
 24
-15.85
 34
0.0
 15
-9.45
 25
-13.85
 35
0.0
146
0.0
 13
0.0
 23
0.0
 33
0.0
 16
1.0
 26
0.0
 36
0.0
 17
0.0
 27
1.0
 37
0.0
 76
     0
330
1F
331
29
  0
MLINESTYLE
  5
18
102
{ACAD_REACTORS
330
17
102
}
330
17
100
AcDbMlineStyle
  2
Standard
 70
     0
  3

 62
   256
 51
90.0
 52
90.0
 71
     2
 49
0.5
 62
   256
  6
BYLAYER
 49
-0.5
 62
   256
  6
BYLAYER
  0
ACDBPLACEHOLDER
  5
F
102
{ACAD_REACTORS
330
E
102
}
330
E
  0
SCALE
  5
3C
102
{ACAD_REACTORS
330
3B
102
}
330
3B
100
AcDbScale
 70
     0
300
1:1
140
1.0
141
1.0
290
     1
  0
SCALE
  5
3D
102
{ACAD_REACTORS
330
3B
102
}
330
3B
100
AcDbScale
 70
     0
300
1:2
140
1.0
141
2.0
290
     0
  0
SCALE
  5
3E
102
{ACAD_REACTORS
330
3B
102
}
330
3B
100
AcDbScale
 70
     0
300
1:4
140
1.0
141
4.0
290
     0
  0
SCALE
  5
3F
102
{ACAD_REACTORS
330
3B
102
}
330
3B
100
AcDbScale
 70
     0
300
1:5
140
1.0
141
5.0
290
     0
  0
SCALE
  5
40
102
{ACAD_REACTORS
330
3B
102
}
330
3B
100
AcDbScale
 70
     0
300
1:8
140
1.0
141
8.0
290
     0
  0
SCALE
  5
41
102
{ACAD_REACTORS
330
3B
102
}
330
3B
100
AcDbScale
 70
     0
300
1:10
140
1.0
141
10.0
290
     0
  0
SCALE
  5
42
102
{ACAD_REACTORS
330
3B
102
}
330
3B
100
AcDbScale
 70
     0
300
1:16
140
1.0
141
16.0
290
     0
  0
SCALE
  5
43
102
{ACAD_REACTORS
330
3B
102
}
330
3B
100
AcDbScale
 70
     0
300
1:20
140
1.0
141
20.0
290
     0
  0
SCALE
  5
44
102
{ACAD_REACTORS
330
3B
102
}
330
3B
100
AcDbScale
 70
     0
300
1:30
140
1.0
141
30.0
290
     0
  0
SCALE
  5
45
102
{ACAD_REACTORS
330
3B
102
}
330
3B
100
AcDbScale
 70
     0
300
1:40
140
1.0
141
40.0
290
     0
  0
SCALE
  5
46
102
{ACAD_REACTORS
330
3B
102
}
330
3B
100
AcDbScale
 70
     0
300
1:50
140
1.0
141
50.0
290
     0
  0
SCALE
  5
47
102
{ACAD_REACTORS
330
3B
102
}
330
3B
100
AcDbScale
 70
     0
300
1:100
140
1.0
141
100.0
290
     0
  0
SCALE
  5
48
102
{ACAD_REACTORS
330
3B
102
}
330
3B
100
AcDbScale
 70
     0
300
2:1
140
2.0
141
1.0
290
     0
  0
SCALE
  5
49
102
{ACAD_REACTORS
330
3B
102
}
330
3B
100
AcDbScale
 70
     0
300
4:1
140
4.0
141
1.0
290
     0
  0
SCALE
  5
4A
102
{ACAD_REACTORS
330
3B
102
}
330
3B
100
AcDbScale
 70
     0
300
8:1
140
8.0
141
1.0
290
     0
  0
SCALE
  5
4B
102
{ACAD_REACTORS
330
3B
102
}
330
3B
100
AcDbScale
 70
     0
300
10:1
140
10.0
141
1.0
290
     0
  0
SCALE
  5
4C
102
{ACAD_REACTORS
330
3B
102
}
330
3B
100
AcDbScale
 70
     0
300
100:1
140
100.0
141
1.0
290
     0
  0
SCALE
  5
4D
102
{ACAD_REACTORS
330
3B
102
}
330
3B
100
AcDbScale
 70
     0
300
1/128" = 1'-0"
140
0.0078125
141
12.0
290
     0
  0
SCALE
  5
4E
102
{ACAD_REACTORS
330
3B
102
}
330
3B
100
AcDbScale
 70
     0
300
1/64" = 1'-0"
140
0.015625
141
12.0
290
     0
  0
SCALE
  5
4F
102
{ACAD_REACTORS
330
3B
102
}
330
3B
100
AcDbScale
 70
     0
300
1/32" = 1'-0"
140
0.03125
141
12.0
290
     0
  0
SCALE
  5
50
102
{ACAD_REACTORS
330
3B
102
}
330
3B
100
AcDbScale
 70
     0
300
1/16" = 1'-0"
140
0.0625
141
12.0
290
     0
  0
SCALE
  5
51
102
{ACAD_REACTORS
330
3B
102
}
330
3B
100
AcDbScale
 70
     0
300
3/32" = 1'-0"
140
0.09375
141
12.0
290
     0
  0
SCALE
  5
52
102
{ACAD_REACTORS
330
3B
102
}
330
3B
100
AcDbScale
 70
     0
300
1/8" = 1'-0"
140
0.125
141
12.0
290
     0
  0
SCALE
  5
53
102
{ACAD_REACTORS
330
3B
102
}
330
3B
100
AcDbScale
 70
     0
300
3/16" = 1'-0"
140
0.1875
141
12.0
290
     0
  0
SCALE
  5
54
102
{ACAD_REACTORS
330
3B
102
}
330
3B
100
AcDbScale
 70
     0
300
1/4" = 1'-0"
140
0.25
141
12.0
290
     0
  0
SCALE
  5
55
102
{ACAD_REACTORS
330
3B
102
}
330
3B
100
AcDbScale
 70
     0
300
3/8" = 1'-0"
140
0.375
141
12.0
290
     0
  0
SCALE
  5
56
102
{ACAD_REACTORS
330
3B
102
}
330
3B
100
AcDbScale
 70
     0
300
1/2" = 1'-0"
140
0.5
141
12.0
290
     0
  0
SCALE
  5
57
102
{ACAD_REACTORS
330
3B
102
}
330
3B
100
AcDbScale
 70
     0
300
3/4" = 1'-0"
140
0.75
141
12.0
290
     0
  0
SCALE
  5
58
102
{ACAD_REACTORS
330
3B
102
}
330
3B
100
AcDbScale
 70
     0
300
1" = 1'-0"
140
1.0
141
12.0
290
     0
  0
SCALE
  5
59
102
{ACAD_REACTORS
330
3B
102
}
330
3B
100
AcDbScale
 70
     0
300
1-1/2" = 1'-0"
140
1.5
141
12.0
290
     0
  0
SCALE
  5
5A
102
{ACAD_REACTORS
330
3B
102
}
330
3B
100
AcDbScale
 70
     0
300
3" = 1'-0"
140
3.0
141
12.0
290
     0
  0
SCALE
  5
5B
102
{ACAD_REACTORS
330
3B
102
}
330
3B
100
AcDbScale
 70
     0
300
6" = 1'-0"
140
6.0
141
12.0
290
     0
  0
SCALE
  5
5C
102
{ACAD_REACTORS
330
3B
102
}
330
3B
100
AcDbScale
 70
     0
300
1'-0" = 1'-0"
140
12.0
141
12.0
290
     0
  0
VISUALSTYLE
  5
2F
102
{ACAD_REACTORS
330
2A
102
}
330
2A
100
AcDbVisualStyle
  2
2dWireframe
 70
     4
 71
     0
 72
     2
 73
     0
 90
        0
 40
-0.6
 41
-30.0
 62
     5
 63
     7
421
 16777215
 74
     1
 91
        4
 64
     7
 65
   257
 75
     1
175
     1
 42
1.0
 92
        0
 66
   257
 43
1.0
 76
     1
 77
     6
 78
     2
 67
     7
 79
     5
170
     0
171
     0
290
     0
174
     0
 93
        1
 44
0.0
173
     0
291
     0
 45
0.0
  0
VISUALSTYLE
  5
31
102
{ACAD_REACTORS
330
2A
102
}
330
2A
100
AcDbVisualStyle
  2
3D Hidden
 70
     6
 71
     1
 72
     2
 73
     2
 90
        0
 40
-0.6
 41
-30.0
 62
     5
 63
     7
421
 16777215
 74
     2
 91
        2
 64
     7
 65
   257
 75
     2
175
     1
 42
40.0
 92
        0
 66
   257
 43
1.0
 76
     1
 77
     6
 78
     2
 67
     7
 79
     3
170
     0
171
     0
290
     0
174
     0
 93
        1
 44
0.0
173
     0
291
     0
 45
0.0
  0
VISUALSTYLE
  5
30
102
{ACAD_REACTORS
330
2A
102
}
330
2A
100
AcDbVisualStyle
  2
3dWireframe
 70
     5
 71
     0
 72
     2
 73
     0
 90
        0
 40
-0.6
 41
-30.0
 62
     5
 63
     7
421
 16777215
 74
     1
 91
        4
 64
     7
 65
   257
 75
     1
175
     1
 42
1.0
 92
        0
 66
   257
 43
1.0
 76
     1
 77
     6
 78
     2
 67
     7
 79
     5
170
     0
171
     0
290
     0
174
     0
 93
        1
 44
0.0
173
     0
291
     0
 45
0.0
  0
VISUALSTYLE
  5
32
102
{ACAD_REACTORS
330
2A
102
}
330
2A
100
AcDbVisualStyle
  2
Basic
 70
     7
 71
     1
 72
     0
 73
     1
 90
        0
 40
-0.6
 41
-30.0
 62
     5
 63
     7
421
 16777215
 74
     0
 91
        4
 64
     7
 65
   257
 75
     1
175
     1
 42
1.0
 92
        8
 66
     7
 43
1.0
 76
     1
 77
     6
 78
     2
 67
     7
 79
     5
170
     0
171
     0
290
     0
174
     0
 93
        1
 44
0.0
173
     0
291
     1
 45
0.0
  0
VISUALSTYLE
  5
36
102
{ACAD_REACTORS
330
2A
102
}
330
2A
100
AcDbVisualStyle
  2
Brighten
 70
    12
 71
     2
 72
     2
 73
     0
 90
        0
 40
-0.6
 41
-30.0
 62
     5
 63
     7
421
 16777215
 74
     1
 91
        4
 64
     7
 65
   257
 75
     1
175
     1
 42
1.0
 92
        8
 66
     7
 43
1.0
 76
     1
 77
     6
 78
     2
 67
     7
 79
     5
170
     0
171
     0
290
     0
174
     0
 93
        1
 44
50.0
173
     0
291
     1
 45
0.0
  0
VISUALSTYLE
  5
3A
102
{ACAD_REACTORS
330
2A
102
}
330
2A
100
AcDbVisualStyle
  2
ColorChange
 70
    16
 71
     2
 72
     2
 73
     3
 90
        0
 40
-0.6
 41
-30.0
 62
     5
 63
     8
421
  8421504
 74
     1
 91
        4
 64
     7
 65
   257
 75
     1
175
     1
 42
1.0
 92
        8
 66
     8
424
  8421504
 43
1.0
 76
     1
 77
     6
 78
     2
 67
     7
 79
     5
170
     0
171
     0
290
     0
174
     0
 93
        1
 44
0.0
173
     0
291
     1
 45
0.0
  0
VISUALSTYLE
  5
34
102
{ACAD_REACTORS
330
2A
102
}
330
2A
100
AcDbVisualStyle
  2
Conceptual
 70
     9
 71
     3
 72
     2
 73
     0
 90
        0
 40
-0.6
 41
-30.0
 62
     5
 63
     7
421
 16777215
 74
     2
 91
        2
 64
     7
 65
   257
 75
     1
175
     1
 42
40.0
 92
        8
 66
     7
 43
1.0
 76
     1
 77
     6
 78
     2
 67
     7
 79
     3
170
     0
171
     0
290
     0
174
     0
 93
        1
 44
0.0
173
     0
291
     0
 45
0.0
  0
VISUALSTYLE
  5
35
102
{ACAD_REACTORS
330
2A
102
}
330
2A
100
AcDbVisualStyle
  2
Dim
 70
    11
 71
     2
 72
     2
 73
     0
 90
        0
 40
-0.6
 41
-30.0
 62
     5
 63
     7
421
 16777215
 74
     1
 91
        4
 64
     7
 65
   257
 75
     1
175
     1
 42
1.0
 92
        8
 66
     7
 43
1.0
 76
     1
 77
     6
 78
     2
 67
     7
 79
     5
170
     0
171
     0
290
     0
174
     0
 93
        1
 44
-50.0
173
     0
291
     1
 45
0.0
  0
VISUALSTYLE
  5
39
102
{ACAD_REACTORS
330
2A
102
}
330
2A
100
AcDbVisualStyle
  2
Facepattern
 70
    15
 71
     2
 72
     2
 73
     0
 90
        0
 40
-0.6
 41
-30.0
 62
     5
 63
     7
421
 16777215
 74
     1
 91
        4
 64
     7
 65
   257
 75
     1
175
     1
 42
1.0
 92
        8
 66
     7
 43
1.0
 76
     1
 77
     6
 78
     2
 67
     7
 79
     5
170
     0
171
     0
290
     0
174
     0
 93
        1
 44
0.0
173
     0
291
     1
 45
0.0
  0
VISUALSTYLE
  5
2B
102
{ACAD_REACTORS
330
2A
102
}
330
2A
100
AcDbVisualStyle
  2
Flat
 70
     0
 71
     2
 72
     1
 73
     1
 90
        2
 40
-0.6
 41
30.0
 62
     5
 63
     7
421
 16777215
 74
     0
 91
        4
 64
     7
 65
   257
 75
     1
175
     1
 42
1.0
 92
        8
 66
     7
 43
1.0
 76
     1
 77
     6
 78
     2
 67
     7
 79
     5
170
     0
171
     0
290
     0
174
     0
 93
       13
 44
0.0
173
     0
291
     1
 45
0.0
  0
VISUALSTYLE
  5
2C
102
{ACAD_REACTORS
330
2A
102
}
330
2A
100
AcDbVisualStyle
  2
FlatWithEdges
 70
     1
 71
     2
 72
     1
 73
     1
 90
        2
 40
-0.6
 41
30.0
 62
     5
 63
     7
421
 16777215
 74
     1
 91
        4
 64
     7
 65
   257
 75
     1
175
     1
 42
1.0
 92
        0
 66
   257
 43
1.0
 76
     1
 77
     6
 78
     2
 67
     7
 79
     5
170
     0
171
     0
290
     0
174
     0
 93
       13
 44
0.0
173
     0
291
     1
 45
0.0
  0
VISUALSTYLE
  5
2D
102
{ACAD_REACTORS
330
2A
102
}
330
2A
100
AcDbVisualStyle
  2
Gouraud
 70
     2
 71
     2
 72
     2
 73
     1
 90
        2
 40
-0.6
 41
30.0
 62
     5
 63
     7
421
 16777215
 74
     0
 91
        4
 64
     7
 65
   257
 75
     1
175
     1
 42
1.0
 92
        0
 66
     7
 43
1.0
 76
     1
 77
     6
 78
     2
 67
     7
 79
     5
170
     0
171
     0
290
     0
174
     0
 93
       13
 44
0.0
173
     0
291
     1
 45
0.0
  0
VISUALSTYLE
  5
2E
102
{ACAD_REACTORS
330
2A
102
}
330
2A
100
AcDbVisualStyle
  2
GouraudWithEdges
 70
     3
 71
     2
 72
     2
 73
     1
 90
        2
 40
-0.6
 41
30.0
 62
     5
 63
     7
421
 16777215
 74
     1
 91
        4
 64
     7
 65
   257
 75
     1
175
     1
 42
1.0
 92
        0
 66
   257
 43
1.0
 76
     1
 77
     6
 78
     2
 67
     7
 79
     5
170
     0
171
     0
290
     0
174
     0
 93
       13
 44
0.0
173
     0
291
     1
 45
0.0
  0
VISUALSTYLE
  5
38
102
{ACAD_REACTORS
330
2A
102
}
330
2A
100
AcDbVisualStyle
  2
Linepattern
 70
    14
 71
     2
 72
     2
 73
     0
 90
        0
 40
-0.6
 41
-30.0
 62
     5
 63
     7
421
 16777215
 74
     1
 91
        4
 64
     7
 65
   257
 75
     7
175
     7
 42
1.0
 92
        8
 66
     7
 43
1.0
 76
     1
 77
     6
 78
     2
 67
     7
 79
     5
170
     0
171
     0
290
     0
174
     0
 93
        1
 44
0.0
173
     0
291
     1
 45
0.0
  0
VISUALSTYLE
  5
33
102
{ACAD_REACTORS
330
2A
102
}
330
2A
100
AcDbVisualStyle
  2
Realistic
 70
     8
 71
     2
 72
     2
 73
     0
 90
        0
 40
-0.6
 41
-30.0
 62
     5
 63
     7
421
 16777215
 74
     1
 91
        0
 64
     7
 65
   257
 75
     1
175
     1
 42
1.0
 92
        8
 66
     8
424
  7895160
 43
1.0
 76
     1
 77
     6
 78
     2
 67
     7
 79
     5
170
     0
171
     0
290
     0
174
     0
 93
       13
 44
0.0
173
     0
291
     0
 45
0.0
  0
VISUALSTYLE
  5
37
102
{ACAD_REACTORS
330
2A
102
}
330
2A
100
AcDbVisualStyle
  2
Thicken
 70
    13
 71
     2
 72
     2
 73
     0
 90
        0
 40
-0.6
 41
-30.0
 62
     5
 63
     7
421
 16777215
 74
     1
 91
        4
 64
     7
 65
   257
 75
     1
175
     1
 42
1.0
 92
       12
 66
     7
 43
1.0
 76
     1
 77
     6
 78
     2
 67
     7
 79
     5
170
     0
171
     0
290
     0
174
     0
 93
        1
 44
0.0
173
     0
291
     1
 45
0.0
  0
ENDSEC
  0
EOF
